<?xml version="1.0" encoding="UTF-8" standalone="no"?>
<!DOCTYPE svg PUBLIC "-//W3C//DTD SVG 1.1//EN"
 "http://www.w3.org/Graphics/SVG/1.1/DTD/svg11.dtd">
<!-- Generated by graphviz version 2.43.0 (0)
 -->
<!-- Title: dpp::voice_client_disconnect_t Pages: 1 -->
<svg width="1600pt" height="1268pt"
 viewBox="0.00 0.00 1600.00 1268.37" xmlns="http://www.w3.org/2000/svg" xmlns:xlink="http://www.w3.org/1999/xlink">
<g id="graph0" class="graph" transform="scale(1 1) rotate(0) translate(4 1264.37)">
<title>dpp::voice_client_disconnect_t</title>
<!-- Node1 -->
<g id="node1" class="node">
<title>Node1</title>
<g id="a_node1"><a xlink:title="voice client disconnect event">
<polygon fill="#bfbfbf" stroke="black" points="1426,-1062.37 1426,-1081.37 1592,-1081.37 1592,-1062.37 1426,-1062.37"/>
<text text-anchor="middle" x="1509" y="-1069.37" font-family="Helvetica,sans-Serif" font-size="10.00">dpp::voice_client_disconnect_t</text>
</a>
</g>
</g>
<!-- Node2 -->
<g id="node2" class="node">
<title>Node2</title>
<g id="a_node2"><a xlink:href="structdpp_1_1event__dispatch__t.html" target="_top" xlink:title="Base event parameter struct. Each event you receive from the library will have its parameter derived ...">
<polygon fill="none" stroke="black" points="1265,-1062.37 1265,-1081.37 1389,-1081.37 1389,-1062.37 1265,-1062.37"/>
<text text-anchor="middle" x="1327" y="-1069.37" font-family="Helvetica,sans-Serif" font-size="10.00">dpp::event_dispatch_t</text>
</a>
</g>
</g>
<!-- Node2&#45;&gt;Node1 -->
<g id="edge1" class="edge">
<title>Node2&#45;&gt;Node1</title>
<path fill="none" stroke="midnightblue" d="M1399.32,-1071.87C1408.06,-1071.87 1417.05,-1071.87 1425.94,-1071.87"/>
<polygon fill="midnightblue" stroke="midnightblue" points="1399.19,-1068.37 1389.19,-1071.87 1399.19,-1075.37 1399.19,-1068.37"/>
</g>
<!-- Node3 -->
<g id="node3" class="node">
<title>Node3</title>
<g id="a_node3"><a xlink:title=" ">
<polygon fill="none" stroke="#bfbfbf" points="258,-1113.37 258,-1132.37 323,-1132.37 323,-1113.37 258,-1113.37"/>
<text text-anchor="middle" x="290.5" y="-1120.37" font-family="Helvetica,sans-Serif" font-size="10.00">std::string</text>
</a>
</g>
</g>
<!-- Node3&#45;&gt;Node2 -->
<g id="edge2" class="edge">
<title>Node3&#45;&gt;Node2</title>
<path fill="none" stroke="#9a32cd" stroke-dasharray="5,2" d="M327.33,-1135.71C342.75,-1140.8 361.08,-1146.28 378,-1149.87 465.1,-1168.32 487.97,-1172.87 577,-1172.87 577,-1172.87 577,-1172.87 1149,-1172.87 1222.24,-1172.87 1292.76,-1106.83 1317.08,-1081.55"/>
<polygon fill="#9a32cd" stroke="#9a32cd" points="328.25,-1132.33 317.66,-1132.44 326.01,-1138.96 328.25,-1132.33"/>
<text text-anchor="middle" x="858.5" y="-1175.87" font-family="Helvetica,sans-Serif" font-size="10.00"> raw_event</text>
</g>
<!-- Node5 -->
<g id="node5" class="node">
<title>Node5</title>
<g id="a_node5"><a xlink:href="classdpp_1_1discord__client.html" target="_top" xlink:title="Implements a discord client. Each discord_client connects to one shard and derives from a websocket c...">
<polygon fill="none" stroke="black" points="1094,-574.37 1094,-593.37 1202,-593.37 1202,-574.37 1094,-574.37"/>
<text text-anchor="middle" x="1148" y="-581.37" font-family="Helvetica,sans-Serif" font-size="10.00">dpp::discord_client</text>
</a>
</g>
</g>
<!-- Node3&#45;&gt;Node5 -->
<g id="edge41" class="edge">
<title>Node3&#45;&gt;Node5</title>
<path fill="none" stroke="#9a32cd" stroke-dasharray="5,2" d="M333.23,-1124.5C375.64,-1125.14 442.91,-1123.29 499,-1108.87 773.58,-1038.26 893.39,-1053.73 1076,-836.87 1140.35,-760.44 1146.56,-629.62 1147.01,-593.4"/>
<polygon fill="#9a32cd" stroke="#9a32cd" points="333.07,-1121 323,-1124.29 332.93,-1128 333.07,-1121"/>
<text text-anchor="middle" x="717.5" y="-1086.87" font-family="Helvetica,sans-Serif" font-size="10.00"> sessionid</text>
<text text-anchor="middle" x="717.5" y="-1075.87" font-family="Helvetica,sans-Serif" font-size="10.00">token</text>
</g>
<!-- Node7 -->
<g id="node7" class="node">
<title>Node7</title>
<g id="a_node7"><a xlink:href="classdpp_1_1ssl__client.html" target="_top" xlink:title="Implements a simple non&#45;blocking SSL stream client.">
<polygon fill="none" stroke="black" points="535,-776.37 535,-795.37 621,-795.37 621,-776.37 535,-776.37"/>
<text text-anchor="middle" x="578" y="-783.37" font-family="Helvetica,sans-Serif" font-size="10.00">dpp::ssl_client</text>
</a>
</g>
</g>
<!-- Node3&#45;&gt;Node7 -->
<g id="edge7" class="edge">
<title>Node3&#45;&gt;Node7</title>
<path fill="none" stroke="#9a32cd" stroke-dasharray="5,2" d="M305.9,-1105.56C322.45,-1086.06 350.84,-1053.85 378,-1028.87 428.12,-982.76 464.25,-993.43 499,-934.87 524.5,-891.89 489.47,-865.58 517,-823.87 525.49,-811 540,-801.64 552.62,-795.43"/>
<polygon fill="#9a32cd" stroke="#9a32cd" points="303.13,-1103.41 299.37,-1113.31 308.49,-1107.91 303.13,-1103.41"/>
<text text-anchor="middle" x="438.5" y="-1075.87" font-family="Helvetica,sans-Serif" font-size="10.00"> buffer</text>
<text text-anchor="middle" x="438.5" y="-1064.87" font-family="Helvetica,sans-Serif" font-size="10.00">cipher</text>
<text text-anchor="middle" x="438.5" y="-1053.87" font-family="Helvetica,sans-Serif" font-size="10.00">hostname</text>
<text text-anchor="middle" x="438.5" y="-1042.87" font-family="Helvetica,sans-Serif" font-size="10.00">obuffer</text>
<text text-anchor="middle" x="438.5" y="-1031.87" font-family="Helvetica,sans-Serif" font-size="10.00">port</text>
</g>
<!-- Node15 -->
<g id="node15" class="node">
<title>Node15</title>
<g id="a_node15"><a xlink:href="classdpp_1_1cluster.html" target="_top" xlink:title="The cluster class represents a group of shards and a command queue for sending and receiving commands...">
<polygon fill="none" stroke="black" points="821.5,-330.37 821.5,-349.37 895.5,-349.37 895.5,-330.37 821.5,-330.37"/>
<text text-anchor="middle" x="858.5" y="-337.37" font-family="Helvetica,sans-Serif" font-size="10.00">dpp::cluster</text>
</a>
</g>
</g>
<!-- Node3&#45;&gt;Node15 -->
<g id="edge17" class="edge">
<title>Node3&#45;&gt;Node15</title>
<path fill="none" stroke="#9a32cd" stroke-dasharray="5,2" d="M333.52,-1117.55C390.74,-1109.92 487.45,-1095.5 499,-1083.87 530.81,-1051.81 499.91,-1025.67 517,-983.87 553.44,-894.75 607.19,-895.74 639,-804.87 656.6,-754.6 622.47,-606.42 657,-565.87 692.85,-523.76 736.11,-572.97 778,-536.87 838.07,-485.11 853.32,-381.34 856.66,-349.42"/>
<polygon fill="#9a32cd" stroke="#9a32cd" points="332.78,-1114.11 323.32,-1118.89 333.69,-1121.05 332.78,-1114.11"/>
<text text-anchor="middle" x="578" y="-986.87" font-family="Helvetica,sans-Serif" font-size="10.00"> token</text>
</g>
<!-- Node18 -->
<g id="node18" class="node">
<title>Node18</title>
<g id="a_node18"><a xlink:href="classdpp_1_1user.html" target="_top" xlink:title="Represents a user on discord. May or may not be a member of a dpp::guild.">
<polygon fill="none" stroke="black" points="547,-376.37 547,-395.37 609,-395.37 609,-376.37 547,-376.37"/>
<text text-anchor="middle" x="578" y="-383.37" font-family="Helvetica,sans-Serif" font-size="10.00">dpp::user</text>
</a>
</g>
</g>
<!-- Node3&#45;&gt;Node18 -->
<g id="edge26" class="edge">
<title>Node3&#45;&gt;Node18</title>
<path fill="none" stroke="#9a32cd" stroke-dasharray="5,2" d="M301.83,-1104.2C317.36,-1075.17 346.36,-1016.99 360,-963.87 370.38,-923.43 350.24,-808.04 378,-776.87 414.58,-735.79 463.33,-792.74 499,-750.87 548.93,-692.26 469.91,-465.78 517,-404.87 524.15,-395.62 535.81,-390.78 546.95,-388.28"/>
<polygon fill="#9a32cd" stroke="#9a32cd" points="298.64,-1102.74 296.94,-1113.2 304.79,-1106.08 298.64,-1102.74"/>
<text text-anchor="middle" x="438.5" y="-779.87" font-family="Helvetica,sans-Serif" font-size="10.00"> username</text>
</g>
<!-- Node33 -->
<g id="node33" class="node">
<title>Node33</title>
<g id="a_node33"><a xlink:href="classdpp_1_1discord__voice__client.html" target="_top" xlink:title="Implements a discord voice connection. Each discord_voice_client connects to one voice channel and de...">
<polygon fill="none" stroke="black" points="1094.5,-904.87 1094.5,-934.87 1201.5,-934.87 1201.5,-904.87 1094.5,-904.87"/>
<text text-anchor="start" x="1102.5" y="-922.87" font-family="Helvetica,sans-Serif" font-size="10.00">dpp::discord_voice</text>
<text text-anchor="middle" x="1148" y="-911.87" font-family="Helvetica,sans-Serif" font-size="10.00">_client</text>
</a>
</g>
</g>
<!-- Node3&#45;&gt;Node33 -->
<g id="edge53" class="edge">
<title>Node3&#45;&gt;Node33</title>
<path fill="none" stroke="#9a32cd" stroke-dasharray="5,2" d="M333.03,-1129.23C347.26,-1131.12 363.29,-1132.94 378,-1133.87 431.67,-1137.27 445.36,-1137.66 499,-1133.87 628.19,-1124.73 969.79,-1125.98 1076,-1051.87 1116.97,-1023.28 1136.42,-963.32 1143.59,-935.13"/>
<polygon fill="#9a32cd" stroke="#9a32cd" points="333.43,-1125.75 323.04,-1127.85 332.47,-1132.69 333.43,-1125.75"/>
<text text-anchor="middle" x="717.5" y="-1140.87" font-family="Helvetica,sans-Serif" font-size="10.00"> sessionid</text>
<text text-anchor="middle" x="717.5" y="-1129.87" font-family="Helvetica,sans-Serif" font-size="10.00">token</text>
</g>
<!-- Node4 -->
<g id="node4" class="node">
<title>Node4</title>
<g id="a_node4"><a xlink:title=" ">
<polygon fill="none" stroke="#bfbfbf" points="17,-1229.87 17,-1259.87 121,-1259.87 121,-1229.87 17,-1229.87"/>
<text text-anchor="start" x="25" y="-1247.87" font-family="Helvetica,sans-Serif" font-size="10.00">std::basic_string&lt;</text>
<text text-anchor="middle" x="69" y="-1236.87" font-family="Helvetica,sans-Serif" font-size="10.00"> Char &gt;</text>
</a>
</g>
</g>
<!-- Node4&#45;&gt;Node3 -->
<g id="edge3" class="edge">
<title>Node4&#45;&gt;Node3</title>
<path fill="none" stroke="midnightblue" d="M106.16,-1224.77C154.04,-1198.15 236.59,-1152.28 272.25,-1132.45"/>
<polygon fill="midnightblue" stroke="midnightblue" points="104.4,-1221.74 97.36,-1229.66 107.8,-1227.86 104.4,-1221.74"/>
</g>
<!-- Node5&#45;&gt;Node2 -->
<g id="edge4" class="edge">
<title>Node5&#45;&gt;Node2</title>
<path fill="none" stroke="#9a32cd" stroke-dasharray="5,2" d="M1151.62,-603.58C1160.37,-664.88 1192.22,-856.49 1265,-996.87 1278.6,-1023.09 1302.33,-1048.71 1315.84,-1062.15"/>
<polygon fill="#9a32cd" stroke="#9a32cd" points="1155.05,-602.82 1150.21,-593.4 1148.12,-603.78 1155.05,-602.82"/>
<text text-anchor="middle" x="1233.5" y="-958.87" font-family="Helvetica,sans-Serif" font-size="10.00"> from</text>
</g>
<!-- Node6 -->
<g id="node6" class="node">
<title>Node6</title>
<g id="a_node6"><a xlink:href="classdpp_1_1websocket__client.html" target="_top" xlink:title="Implements a websocket client based on the SSL client.">
<polygon fill="none" stroke="black" points="796,-776.37 796,-795.37 921,-795.37 921,-776.37 796,-776.37"/>
<text text-anchor="middle" x="858.5" y="-783.37" font-family="Helvetica,sans-Serif" font-size="10.00">dpp::websocket_client</text>
</a>
</g>
</g>
<!-- Node6&#45;&gt;Node5 -->
<g id="edge5" class="edge">
<title>Node6&#45;&gt;Node5</title>
<path fill="none" stroke="midnightblue" d="M915.32,-774.02C970.93,-761.33 1051.45,-740.24 1076,-719.87 1118.22,-684.82 1138.47,-618.12 1144.76,-593.39"/>
<polygon fill="midnightblue" stroke="midnightblue" points="914.24,-770.68 905.25,-776.29 915.78,-777.51 914.24,-770.68"/>
</g>
<!-- Node6&#45;&gt;Node33 -->
<g id="edge47" class="edge">
<title>Node6&#45;&gt;Node33</title>
<path fill="none" stroke="midnightblue" d="M873.72,-803.52C888.38,-820.57 912.72,-845.95 939,-860.87 987.8,-888.57 1050.54,-904.04 1094.29,-912.11"/>
<polygon fill="midnightblue" stroke="midnightblue" points="876.09,-800.89 866.99,-795.46 870.72,-805.37 876.09,-800.89"/>
</g>
<!-- Node7&#45;&gt;Node6 -->
<g id="edge6" class="edge">
<title>Node7&#45;&gt;Node6</title>
<path fill="none" stroke="midnightblue" d="M631.51,-785.87C678.24,-785.87 746.62,-785.87 795.91,-785.87"/>
<polygon fill="midnightblue" stroke="midnightblue" points="631.3,-782.37 621.3,-785.87 631.3,-789.37 631.3,-782.37"/>
</g>
<!-- Node8 -->
<g id="node8" class="node">
<title>Node8</title>
<g id="a_node8"><a xlink:title=" ">
<polygon fill="none" stroke="#bfbfbf" points="271.5,-935.37 271.5,-954.37 309.5,-954.37 309.5,-935.37 271.5,-935.37"/>
<text text-anchor="middle" x="290.5" y="-942.37" font-family="Helvetica,sans-Serif" font-size="10.00">bool</text>
</a>
</g>
</g>
<!-- Node8&#45;&gt;Node5 -->
<g id="edge15" class="edge">
<title>Node8&#45;&gt;Node5</title>
<path fill="none" stroke="#9a32cd" stroke-dasharray="5,2" d="M319.71,-944.25C359.76,-943.08 435.29,-939.79 499,-930.87 700.81,-902.59 745.22,-864.96 939,-801.87 999.81,-782.07 1029.08,-801.32 1076,-757.87 1126.51,-711.09 1141.99,-623.22 1145.87,-593.77"/>
<polygon fill="#9a32cd" stroke="#9a32cd" points="319.53,-940.75 309.63,-944.52 319.72,-947.75 319.53,-940.75"/>
<text text-anchor="middle" x="717.5" y="-913.87" font-family="Helvetica,sans-Serif" font-size="10.00"> ready</text>
<text text-anchor="middle" x="717.5" y="-902.87" font-family="Helvetica,sans-Serif" font-size="10.00">terminating</text>
</g>
<!-- Node8&#45;&gt;Node7 -->
<g id="edge8" class="edge">
<title>Node8&#45;&gt;Node7</title>
<path fill="none" stroke="#9a32cd" stroke-dasharray="5,2" d="M310.62,-928.91C327.38,-915.73 352.91,-897.51 378,-886.87 428.64,-865.39 455.71,-894.8 499,-860.87 513.39,-849.58 504.81,-837.5 517,-823.87 527.85,-811.73 543.46,-802.01 556.04,-795.44"/>
<polygon fill="#9a32cd" stroke="#9a32cd" points="308.31,-926.28 302.71,-935.28 312.7,-931.73 308.31,-926.28"/>
<text text-anchor="middle" x="438.5" y="-922.87" font-family="Helvetica,sans-Serif" font-size="10.00"> keepalive</text>
<text text-anchor="middle" x="438.5" y="-911.87" font-family="Helvetica,sans-Serif" font-size="10.00">make_new</text>
<text text-anchor="middle" x="438.5" y="-900.87" font-family="Helvetica,sans-Serif" font-size="10.00">nonblocking</text>
<text text-anchor="middle" x="438.5" y="-889.87" font-family="Helvetica,sans-Serif" font-size="10.00">plaintext</text>
</g>
<!-- Node8&#45;&gt;Node33 -->
<g id="edge49" class="edge">
<title>Node8&#45;&gt;Node33</title>
<path fill="none" stroke="#9a32cd" stroke-dasharray="5,2" d="M319.94,-949.4C336.77,-951.86 358.54,-954.63 378,-955.87 431.67,-959.27 445.25,-957.57 499,-955.87 569.33,-953.64 586.76,-949.95 657,-945.87 816.25,-936.6 1004.69,-926.98 1094.42,-922.48"/>
<polygon fill="#9a32cd" stroke="#9a32cd" points="320.07,-945.88 309.66,-947.86 319.03,-952.81 320.07,-945.88"/>
<text text-anchor="middle" x="717.5" y="-970.87" font-family="Helvetica,sans-Serif" font-size="10.00"> decode_voice_recv</text>
<text text-anchor="middle" x="717.5" y="-959.87" font-family="Helvetica,sans-Serif" font-size="10.00">sodium_initialised</text>
<text text-anchor="middle" x="717.5" y="-948.87" font-family="Helvetica,sans-Serif" font-size="10.00">terminating</text>
</g>
<!-- Node9 -->
<g id="node9" class="node">
<title>Node9</title>
<g id="a_node9"><a xlink:title=" ">
<polygon fill="none" stroke="#bfbfbf" points="276,-795.37 276,-814.37 305,-814.37 305,-795.37 276,-795.37"/>
<text text-anchor="middle" x="290.5" y="-802.37" font-family="Helvetica,sans-Serif" font-size="10.00">int</text>
</a>
</g>
</g>
<!-- Node9&#45;&gt;Node7 -->
<g id="edge9" class="edge">
<title>Node9&#45;&gt;Node7</title>
<path fill="none" stroke="#9a32cd" stroke-dasharray="5,2" d="M315.41,-803.28C363.85,-800.05 474.1,-792.71 534.87,-788.67"/>
<polygon fill="#9a32cd" stroke="#9a32cd" points="315.02,-799.79 305.27,-803.95 315.48,-806.78 315.02,-799.79"/>
<text text-anchor="middle" x="438.5" y="-801.87" font-family="Helvetica,sans-Serif" font-size="10.00"> sfd</text>
</g>
<!-- Node10 -->
<g id="node10" class="node">
<title>Node10</title>
<g id="a_node10"><a xlink:title=" ">
<polygon fill="none" stroke="#bfbfbf" points="241,-729.37 241,-748.37 340,-748.37 340,-729.37 241,-729.37"/>
<text text-anchor="middle" x="290.5" y="-736.37" font-family="Helvetica,sans-Serif" font-size="10.00">opensslcontext *</text>
</a>
</g>
</g>
<!-- Node10&#45;&gt;Node7 -->
<g id="edge10" class="edge">
<title>Node10&#45;&gt;Node7</title>
<path fill="none" stroke="#9a32cd" stroke-dasharray="5,2" d="M350.37,-731.08C392.53,-727.43 450.23,-726.43 499,-739.87 524.77,-746.97 550.71,-764.92 565.23,-776.18"/>
<polygon fill="#9a32cd" stroke="#9a32cd" points="349.9,-727.61 340.27,-732.03 350.56,-734.58 349.9,-727.61"/>
<text text-anchor="middle" x="438.5" y="-742.87" font-family="Helvetica,sans-Serif" font-size="10.00"> ssl</text>
</g>
<!-- Node11 -->
<g id="node11" class="node">
<title>Node11</title>
<g id="a_node11"><a xlink:title=" ">
<polygon fill="none" stroke="#bfbfbf" points="266.5,-539.37 266.5,-558.37 314.5,-558.37 314.5,-539.37 266.5,-539.37"/>
<text text-anchor="middle" x="290.5" y="-546.37" font-family="Helvetica,sans-Serif" font-size="10.00">time_t</text>
</a>
</g>
</g>
<!-- Node11&#45;&gt;Node5 -->
<g id="edge38" class="edge">
<title>Node11&#45;&gt;Node5</title>
<path fill="none" stroke="#9a32cd" stroke-dasharray="5,2" d="M325.03,-550.24C455.92,-555.59 933.17,-575.12 1093.82,-581.69"/>
<polygon fill="#9a32cd" stroke="#9a32cd" points="324.96,-546.73 314.83,-549.82 324.67,-553.73 324.96,-546.73"/>
<text text-anchor="middle" x="717.5" y="-582.87" font-family="Helvetica,sans-Serif" font-size="10.00"> last_heartbeat</text>
<text text-anchor="middle" x="717.5" y="-571.87" font-family="Helvetica,sans-Serif" font-size="10.00">last_heartbeat_ack</text>
</g>
<!-- Node11&#45;&gt;Node7 -->
<g id="edge11" class="edge">
<title>Node11&#45;&gt;Node7</title>
<path fill="none" stroke="#9a32cd" stroke-dasharray="5,2" d="M308.89,-565.48C325.36,-580.25 351.47,-601.26 378,-612.87 428.15,-634.81 457.89,-599.72 499,-635.87 518.32,-652.85 506.05,-667.59 517,-690.87 532.61,-724.05 557.65,-759.73 569.85,-776.34"/>
<polygon fill="#9a32cd" stroke="#9a32cd" points="310.93,-562.6 301.2,-558.4 306.19,-567.75 310.93,-562.6"/>
<text text-anchor="middle" x="438.5" y="-638.87" font-family="Helvetica,sans-Serif" font-size="10.00"> last_tick</text>
</g>
<!-- Node11&#45;&gt;Node15 -->
<g id="edge18" class="edge">
<title>Node11&#45;&gt;Node15</title>
<path fill="none" stroke="#9a32cd" stroke-dasharray="5,2" d="M324.63,-545.63C340.73,-544.1 360.37,-542.3 378,-540.87 422.41,-537.26 741.35,-538.21 778,-512.87 835.91,-472.83 852.49,-379.65 856.43,-349.48"/>
<polygon fill="#9a32cd" stroke="#9a32cd" points="324.24,-542.15 314.62,-546.59 324.91,-549.12 324.24,-542.15"/>
<text text-anchor="middle" x="578" y="-540.87" font-family="Helvetica,sans-Serif" font-size="10.00"> last_identify</text>
</g>
<!-- Node11&#45;&gt;Node33 -->
<g id="edge51" class="edge">
<title>Node11&#45;&gt;Node33</title>
<path fill="none" stroke="#9a32cd" stroke-dasharray="5,2" d="M324.65,-557.41C375.4,-570.86 469.56,-597.31 499,-615.87 508.84,-622.07 507.17,-628.65 517,-634.87 556.91,-660.12 888.44,-732.66 921,-766.87 941.96,-788.89 916.82,-812.07 939,-832.87 984.34,-875.37 1019.97,-833.98 1076,-860.87 1098.54,-871.69 1119.97,-891.23 1133.28,-904.84"/>
<polygon fill="#9a32cd" stroke="#9a32cd" points="325.38,-553.99 314.82,-554.83 323.6,-560.76 325.38,-553.99"/>
<text text-anchor="middle" x="717.5" y="-716.87" font-family="Helvetica,sans-Serif" font-size="10.00"> last_heartbeat</text>
</g>
<!-- Node12 -->
<g id="node12" class="node">
<title>Node12</title>
<g id="a_node12"><a xlink:title=" ">
<polygon fill="none" stroke="#bfbfbf" points="41,-609.37 41,-628.37 97,-628.37 97,-609.37 41,-609.37"/>
<text text-anchor="middle" x="69" y="-616.37" font-family="Helvetica,sans-Serif" font-size="10.00">uint64_t</text>
</a>
</g>
</g>
<!-- Node12&#45;&gt;Node1 -->
<g id="edge55" class="edge">
<title>Node12&#45;&gt;Node1</title>
<path fill="none" stroke="#9a32cd" stroke-dasharray="5,2" d="M72.77,-638.93C87.72,-743.34 162.89,-1219.87 289.5,-1219.87 289.5,-1219.87 289.5,-1219.87 1328,-1219.87 1415.39,-1219.87 1483.45,-1114.5 1502.59,-1081.58"/>
<polygon fill="#9a32cd" stroke="#9a32cd" points="76.2,-638.21 71.34,-628.8 69.27,-639.19 76.2,-638.21"/>
<text text-anchor="middle" x="858.5" y="-1222.87" font-family="Helvetica,sans-Serif" font-size="10.00"> user_id</text>
</g>
<!-- Node12&#45;&gt;Node5 -->
<g id="edge40" class="edge">
<title>Node12&#45;&gt;Node5</title>
<path fill="none" stroke="#9a32cd" stroke-dasharray="5,2" d="M107.33,-617.54C165.26,-615.51 280.33,-611.57 378,-608.87 688.18,-600.28 766.56,-615.96 1076,-592.87 1081.82,-592.43 1087.9,-591.85 1093.95,-591.2"/>
<polygon fill="#9a32cd" stroke="#9a32cd" points="107.06,-614.05 97.19,-617.9 107.31,-621.04 107.06,-614.05"/>
<text text-anchor="middle" x="578" y="-609.87" font-family="Helvetica,sans-Serif" font-size="10.00"> last_seq</text>
</g>
<!-- Node12&#45;&gt;Node7 -->
<g id="edge12" class="edge">
<title>Node12&#45;&gt;Node7</title>
<path fill="none" stroke="#9a32cd" stroke-dasharray="5,2" d="M107.22,-620.77C198.94,-626.03 433.12,-643.08 499,-682.87 537.21,-705.94 563.15,-755.38 572.8,-776.25"/>
<polygon fill="#9a32cd" stroke="#9a32cd" points="107.2,-617.26 97.02,-620.2 106.81,-624.25 107.2,-617.26"/>
<text text-anchor="middle" x="290.5" y="-659.87" font-family="Helvetica,sans-Serif" font-size="10.00"> bytes_in</text>
<text text-anchor="middle" x="290.5" y="-648.87" font-family="Helvetica,sans-Serif" font-size="10.00">bytes_out</text>
</g>
<!-- Node19 -->
<g id="node19" class="node">
<title>Node19</title>
<g id="a_node19"><a xlink:href="classdpp_1_1managed.html" target="_top" xlink:title="The managed class is the base class for various types that can be stored in a cache that are identifi...">
<polygon fill="none" stroke="black" points="247.5,-425.37 247.5,-444.37 333.5,-444.37 333.5,-425.37 247.5,-425.37"/>
<text text-anchor="middle" x="290.5" y="-432.37" font-family="Helvetica,sans-Serif" font-size="10.00">dpp::managed</text>
</a>
</g>
</g>
<!-- Node12&#45;&gt;Node19 -->
<g id="edge23" class="edge">
<title>Node12&#45;&gt;Node19</title>
<path fill="none" stroke="#9a32cd" stroke-dasharray="5,2" d="M81.37,-600.86C103.8,-566.83 157.16,-493.02 221,-453.87 229,-448.96 238.28,-445.3 247.39,-442.56"/>
<polygon fill="#9a32cd" stroke="#9a32cd" points="78.38,-599.04 75.88,-609.33 84.26,-602.84 78.38,-599.04"/>
<text text-anchor="middle" x="179.5" y="-506.87" font-family="Helvetica,sans-Serif" font-size="10.00"> id</text>
</g>
<!-- Node22 -->
<g id="node22" class="node">
<title>Node22</title>
<g id="a_node22"><a xlink:href="structdpp_1_1utility_1_1iconhash.html" target="_top" xlink:title="Store a 128 bit icon hash (profile picture, server icon etc) as a 128 bit binary value made of two ui...">
<polygon fill="none" stroke="black" points="231.5,-387.37 231.5,-406.37 349.5,-406.37 349.5,-387.37 231.5,-387.37"/>
<text text-anchor="middle" x="290.5" y="-394.37" font-family="Helvetica,sans-Serif" font-size="10.00">dpp::utility::iconhash</text>
</a>
</g>
</g>
<!-- Node12&#45;&gt;Node22 -->
<g id="edge28" class="edge">
<title>Node12&#45;&gt;Node22</title>
<path fill="none" stroke="#9a32cd" stroke-dasharray="5,2" d="M74.54,-599.19C83.8,-563.21 108.16,-486.39 156,-441.87 176.59,-422.7 205.62,-411.68 231.35,-405.34"/>
<polygon fill="#9a32cd" stroke="#9a32cd" points="71.03,-598.81 72.05,-609.35 77.83,-600.47 71.03,-598.81"/>
<text text-anchor="middle" x="179.5" y="-455.87" font-family="Helvetica,sans-Serif" font-size="10.00"> first</text>
<text text-anchor="middle" x="179.5" y="-444.87" font-family="Helvetica,sans-Serif" font-size="10.00">second</text>
</g>
<!-- Node12&#45;&gt;Node33 -->
<g id="edge54" class="edge">
<title>Node12&#45;&gt;Node33</title>
<path fill="none" stroke="#9a32cd" stroke-dasharray="5,2" d="M72.07,-638.66C79.49,-698.79 110.53,-880.32 221,-963.87 240.5,-978.62 632.61,-1022.2 657,-1023.87 710.65,-1027.54 724.71,-1031.07 778,-1023.87 901.18,-1007.23 1041.01,-959.52 1107.64,-934.93"/>
<polygon fill="#9a32cd" stroke="#9a32cd" points="75.53,-638.14 70.91,-628.6 68.58,-638.94 75.53,-638.14"/>
<text text-anchor="middle" x="578" y="-1036.87" font-family="Helvetica,sans-Serif" font-size="10.00"> channel_id</text>
<text text-anchor="middle" x="578" y="-1025.87" font-family="Helvetica,sans-Serif" font-size="10.00">server_id</text>
</g>
<!-- Node13 -->
<g id="node13" class="node">
<title>Node13</title>
<g id="a_node13"><a xlink:title=" ">
<polygon fill="none" stroke="#bfbfbf" points="221,-691.37 221,-710.37 360,-710.37 360,-691.37 221,-691.37"/>
<text text-anchor="middle" x="290.5" y="-698.37" font-family="Helvetica,sans-Serif" font-size="10.00">function&lt; dpp::socket()&gt;</text>
</a>
</g>
</g>
<!-- Node13&#45;&gt;Node7 -->
<g id="edge13" class="edge">
<title>Node13&#45;&gt;Node7</title>
<path fill="none" stroke="#9a32cd" stroke-dasharray="5,2" d="M347.41,-689.88C390.65,-684.05 451.04,-681.85 499,-702.87 534.14,-718.27 560.81,-757.99 571.67,-776.33"/>
<polygon fill="#9a32cd" stroke="#9a32cd" points="346.74,-686.44 337.35,-691.35 347.75,-693.37 346.74,-686.44"/>
<text text-anchor="middle" x="438.5" y="-716.87" font-family="Helvetica,sans-Serif" font-size="10.00"> custom_readable_fd</text>
<text text-anchor="middle" x="438.5" y="-705.87" font-family="Helvetica,sans-Serif" font-size="10.00">custom_writeable_fd</text>
</g>
<!-- Node14 -->
<g id="node14" class="node">
<title>Node14</title>
<g id="a_node14"><a xlink:title=" ">
<polygon fill="none" stroke="#bfbfbf" points="238.5,-833.37 238.5,-852.37 342.5,-852.37 342.5,-833.37 238.5,-833.37"/>
<text text-anchor="middle" x="290.5" y="-840.37" font-family="Helvetica,sans-Serif" font-size="10.00">function&lt; void()&gt;</text>
</a>
</g>
</g>
<!-- Node14&#45;&gt;Node7 -->
<g id="edge14" class="edge">
<title>Node14&#45;&gt;Node7</title>
<path fill="none" stroke="#9a32cd" stroke-dasharray="5,2" d="M352.79,-837.65C394.44,-833.28 450.55,-825.81 499,-813.87 518,-809.18 538.82,-801.57 554.17,-795.47"/>
<polygon fill="#9a32cd" stroke="#9a32cd" points="352.39,-834.17 342.8,-838.66 353.1,-841.13 352.39,-834.17"/>
<text text-anchor="middle" x="438.5" y="-848.87" font-family="Helvetica,sans-Serif" font-size="10.00"> custom_readable_ready</text>
<text text-anchor="middle" x="438.5" y="-837.87" font-family="Helvetica,sans-Serif" font-size="10.00">custom_writeable_ready</text>
</g>
<!-- Node15&#45;&gt;Node5 -->
<g id="edge16" class="edge">
<title>Node15&#45;&gt;Node5</title>
<path fill="none" stroke="#9a32cd" stroke-dasharray="5,2" d="M878.71,-356.17C933.85,-402.97 1091.53,-536.79 1135.5,-574.1"/>
<polygon fill="#9a32cd" stroke="#9a32cd" points="880.66,-353.23 870.77,-349.43 876.13,-358.57 880.66,-353.23"/>
<text text-anchor="middle" x="1007.5" y="-521.87" font-family="Helvetica,sans-Serif" font-size="10.00"> creator</text>
</g>
<!-- Node15&#45;&gt;Node33 -->
<g id="edge48" class="edge">
<title>Node15&#45;&gt;Node33</title>
<path fill="none" stroke="#9a32cd" stroke-dasharray="5,2" d="M874.33,-357.21C913.06,-403.35 1018.25,-534.18 1076,-659.87 1116.44,-747.88 1137.9,-863.55 1144.64,-904.61"/>
<polygon fill="#9a32cd" stroke="#9a32cd" points="876.83,-354.74 867.7,-349.37 871.48,-359.26 876.83,-354.74"/>
<text text-anchor="middle" x="1007.5" y="-662.87" font-family="Helvetica,sans-Serif" font-size="10.00"> creator</text>
</g>
<!-- Node16 -->
<g id="node16" class="node">
<title>Node16</title>
<g id="a_node16"><a xlink:title=" ">
<polygon fill="none" stroke="#bfbfbf" points="262.5,-222.37 262.5,-241.37 318.5,-241.37 318.5,-222.37 262.5,-222.37"/>
<text text-anchor="middle" x="290.5" y="-229.37" font-family="Helvetica,sans-Serif" font-size="10.00">uint32_t</text>
</a>
</g>
</g>
<!-- Node16&#45;&gt;Node5 -->
<g id="edge37" class="edge">
<title>Node16&#45;&gt;Node5</title>
<path fill="none" stroke="#9a32cd" stroke-dasharray="5,2" d="M313.85,-216.45C353.47,-189.55 439.22,-133.36 517,-95.87 741.1,12.16 910.2,60.61 1076,-124.87 1138.34,-194.6 1146,-514.91 1146.89,-574.36"/>
<polygon fill="#9a32cd" stroke="#9a32cd" points="311.52,-213.8 305.23,-222.33 315.47,-219.58 311.52,-213.8"/>
<text text-anchor="middle" x="717.5" y="-92.87" font-family="Helvetica,sans-Serif" font-size="10.00"> heartbeat_interval</text>
<text text-anchor="middle" x="717.5" y="-81.87" font-family="Helvetica,sans-Serif" font-size="10.00">intents</text>
<text text-anchor="middle" x="717.5" y="-70.87" font-family="Helvetica,sans-Serif" font-size="10.00">max_shards</text>
<text text-anchor="middle" x="717.5" y="-59.87" font-family="Helvetica,sans-Serif" font-size="10.00">reconnects</text>
<text text-anchor="middle" x="717.5" y="-48.87" font-family="Helvetica,sans-Serif" font-size="10.00">resumes</text>
<text text-anchor="middle" x="717.5" y="-37.87" font-family="Helvetica,sans-Serif" font-size="10.00">shard_id</text>
</g>
<!-- Node16&#45;&gt;Node15 -->
<g id="edge19" class="edge">
<title>Node16&#45;&gt;Node15</title>
<path fill="none" stroke="#9a32cd" stroke-dasharray="5,2" d="M328.76,-232.53C436.36,-234.74 742.19,-243.32 778,-269.87 795.64,-282.94 780.47,-300.35 796,-315.87 802.97,-322.83 812.2,-327.83 821.38,-331.39"/>
<polygon fill="#9a32cd" stroke="#9a32cd" points="328.76,-229.02 318.69,-232.33 328.62,-236.02 328.76,-229.02"/>
<text text-anchor="middle" x="578" y="-281.87" font-family="Helvetica,sans-Serif" font-size="10.00"> cluster_id</text>
<text text-anchor="middle" x="578" y="-270.87" font-family="Helvetica,sans-Serif" font-size="10.00">intents</text>
<text text-anchor="middle" x="578" y="-259.87" font-family="Helvetica,sans-Serif" font-size="10.00">maxclusters</text>
<text text-anchor="middle" x="578" y="-248.87" font-family="Helvetica,sans-Serif" font-size="10.00">numshards</text>
</g>
<!-- Node16&#45;&gt;Node18 -->
<g id="edge29" class="edge">
<title>Node16&#45;&gt;Node18</title>
<path fill="none" stroke="#9a32cd" stroke-dasharray="5,2" d="M324.64,-245.25C340.65,-251.52 360.2,-258.91 378,-264.87 431.09,-282.64 457.78,-261.98 499,-299.87 515.47,-315 502.93,-329.48 517,-346.87 527.31,-359.62 542.94,-369.59 555.66,-376.26"/>
<polygon fill="#9a32cd" stroke="#9a32cd" points="325.76,-241.93 315.17,-241.51 323.19,-248.44 325.76,-241.93"/>
<text text-anchor="middle" x="438.5" y="-302.87" font-family="Helvetica,sans-Serif" font-size="10.00"> flags</text>
</g>
<!-- Node16&#45;&gt;Node33 -->
<g id="edge50" class="edge">
<title>Node16&#45;&gt;Node33</title>
<path fill="none" stroke="#9a32cd" stroke-dasharray="5,2" d="M328.86,-230.81C344.1,-230.43 361.89,-230.05 378,-229.87 431.77,-229.25 445.22,-229.48 499,-229.87 561,-230.31 727.41,-198.01 778,-233.87 796.93,-247.28 779.13,-266.94 796,-282.87 838.21,-322.74 869.25,-294.53 921,-320.87 997.92,-360.02 1033.38,-362.81 1076,-437.87 1094.21,-469.94 1088.96,-566.33 1094,-602.87 1110.1,-719.5 1135.66,-859.22 1144.16,-904.74"/>
<polygon fill="#9a32cd" stroke="#9a32cd" points="328.67,-227.32 318.77,-231.08 328.86,-234.32 328.67,-227.32"/>
<text text-anchor="middle" x="717.5" y="-236.87" font-family="Helvetica,sans-Serif" font-size="10.00"> heartbeat_interval</text>
</g>
<!-- Node17 -->
<g id="node17" class="node">
<title>Node17</title>
<g id="a_node17"><a xlink:title=" ">
<polygon fill="none" stroke="#bfbfbf" points="553,-158.37 553,-177.37 603,-177.37 603,-158.37 553,-158.37"/>
<text text-anchor="middle" x="578" y="-165.37" font-family="Helvetica,sans-Serif" font-size="10.00">double</text>
</a>
</g>
</g>
<!-- Node17&#45;&gt;Node5 -->
<g id="edge43" class="edge">
<title>Node17&#45;&gt;Node5</title>
<path fill="none" stroke="#9a32cd" stroke-dasharray="5,2" d="M613.22,-166.51C714.65,-163.24 1010.62,-159.53 1076,-223.87 1127.87,-274.92 1143.71,-521.65 1146.51,-574.06"/>
<polygon fill="#9a32cd" stroke="#9a32cd" points="613.08,-163.01 603.21,-166.85 613.32,-170 613.08,-163.01"/>
<text text-anchor="middle" x="858.5" y="-178.87" font-family="Helvetica,sans-Serif" font-size="10.00"> websocket_ping</text>
</g>
<!-- Node17&#45;&gt;Node15 -->
<g id="edge20" class="edge">
<title>Node17&#45;&gt;Node15</title>
<path fill="none" stroke="#9a32cd" stroke-dasharray="5,2" d="M613.17,-170.72C666.88,-175.52 766.2,-185.77 778,-196.87 806.45,-223.62 776.77,-248.88 796,-282.87 807.4,-303.01 828.36,-320.12 842.61,-330.2"/>
<polygon fill="#9a32cd" stroke="#9a32cd" points="613.34,-167.22 603.08,-169.84 612.73,-174.2 613.34,-167.22"/>
<text text-anchor="middle" x="717.5" y="-199.87" font-family="Helvetica,sans-Serif" font-size="10.00"> rest_ping</text>
</g>
<!-- Node18&#45;&gt;Node15 -->
<g id="edge21" class="edge">
<title>Node18&#45;&gt;Node15</title>
<path fill="none" stroke="#9a32cd" stroke-dasharray="5,2" d="M605.64,-371.17C616.57,-364.5 628.98,-356.05 639,-346.87 648.57,-338.1 645.33,-329.55 657,-323.87 715.07,-295.57 793.92,-316.53 833.19,-330.33"/>
<polygon fill="#9a32cd" stroke="#9a32cd" points="603.73,-368.24 596.89,-376.34 607.28,-374.27 603.73,-368.24"/>
<text text-anchor="middle" x="717.5" y="-326.87" font-family="Helvetica,sans-Serif" font-size="10.00"> me</text>
</g>
<!-- Node19&#45;&gt;Node18 -->
<g id="edge22" class="edge">
<title>Node19&#45;&gt;Node18</title>
<path fill="none" stroke="midnightblue" d="M343.6,-430.7C385.8,-426.76 446.63,-419.79 499,-408.87 515.72,-405.38 534.06,-400.05 548.76,-395.4"/>
<polygon fill="midnightblue" stroke="midnightblue" points="343.2,-427.22 333.56,-431.61 343.84,-434.19 343.2,-427.22"/>
</g>
<!-- Node20 -->
<g id="node20" class="node">
<title>Node20</title>
<g id="a_node20"><a xlink:href="structdpp_1_1json__interface.html" target="_top" xlink:title=" ">
<polygon fill="none" stroke="black" points="235.5,-337.87 235.5,-367.87 345.5,-367.87 345.5,-337.87 235.5,-337.87"/>
<text text-anchor="start" x="243.5" y="-355.87" font-family="Helvetica,sans-Serif" font-size="10.00">dpp::json_interface</text>
<text text-anchor="middle" x="290.5" y="-344.87" font-family="Helvetica,sans-Serif" font-size="10.00">&lt; user &gt;</text>
</a>
</g>
</g>
<!-- Node20&#45;&gt;Node18 -->
<g id="edge24" class="edge">
<title>Node20&#45;&gt;Node18</title>
<path fill="none" stroke="midnightblue" d="M355.62,-360.28C415.32,-367.18 501.7,-377.16 546.88,-382.39"/>
<polygon fill="midnightblue" stroke="midnightblue" points="355.87,-356.78 345.54,-359.11 355.07,-363.74 355.87,-356.78"/>
</g>
<!-- Node21 -->
<g id="node21" class="node">
<title>Node21</title>
<g id="a_node21"><a xlink:href="structdpp_1_1json__interface.html" target="_top" xlink:title="Represents an interface for an object that can optionally implement functions for converting to and f...">
<polygon fill="none" stroke="black" points="0,-343.37 0,-362.37 138,-362.37 138,-343.37 0,-343.37"/>
<text text-anchor="middle" x="69" y="-350.37" font-family="Helvetica,sans-Serif" font-size="10.00">dpp::json_interface&lt; T &gt;</text>
</a>
</g>
</g>
<!-- Node21&#45;&gt;Node20 -->
<g id="edge25" class="edge">
<title>Node21&#45;&gt;Node20</title>
<path fill="none" stroke="orange" stroke-dasharray="5,2" d="M148.28,-352.87C177.07,-352.87 209.01,-352.87 235.22,-352.87"/>
<polygon fill="orange" stroke="orange" points="148.25,-349.37 138.25,-352.87 148.25,-356.37 148.25,-349.37"/>
<text text-anchor="middle" x="179.5" y="-355.87" font-family="Helvetica,sans-Serif" font-size="10.00"> &lt; user &gt;</text>
</g>
<!-- Node22&#45;&gt;Node18 -->
<g id="edge27" class="edge">
<title>Node22&#45;&gt;Node18</title>
<path fill="none" stroke="#9a32cd" stroke-dasharray="5,2" d="M359.67,-394.24C419.06,-391.95 502.4,-388.74 546.63,-387.04"/>
<polygon fill="#9a32cd" stroke="#9a32cd" points="359.48,-390.75 349.62,-394.63 359.75,-397.74 359.48,-390.75"/>
<text text-anchor="middle" x="438.5" y="-396.87" font-family="Helvetica,sans-Serif" font-size="10.00"> avatar</text>
</g>
<!-- Node23 -->
<g id="node23" class="node">
<title>Node23</title>
<g id="a_node23"><a xlink:title=" ">
<polygon fill="none" stroke="#bfbfbf" points="262.5,-501.37 262.5,-520.37 318.5,-520.37 318.5,-501.37 262.5,-501.37"/>
<text text-anchor="middle" x="290.5" y="-508.37" font-family="Helvetica,sans-Serif" font-size="10.00">uint16_t</text>
</a>
</g>
</g>
<!-- Node23&#45;&gt;Node18 -->
<g id="edge30" class="edge">
<title>Node23&#45;&gt;Node18</title>
<path fill="none" stroke="#9a32cd" stroke-dasharray="5,2" d="M328.89,-507.17C385.23,-501.26 486.67,-489.2 499,-477.87 523.6,-455.25 494.15,-429.25 517,-404.87 524.77,-396.58 536.13,-391.88 546.88,-389.24"/>
<polygon fill="#9a32cd" stroke="#9a32cd" points="328.18,-503.72 318.59,-508.23 328.9,-510.68 328.18,-503.72"/>
<text text-anchor="middle" x="438.5" y="-504.87" font-family="Helvetica,sans-Serif" font-size="10.00"> discriminator</text>
</g>
<!-- Node24 -->
<g id="node24" class="node">
<title>Node24</title>
<g id="a_node24"><a xlink:title=" ">
<polygon fill="none" stroke="#bfbfbf" points="265.5,-463.37 265.5,-482.37 315.5,-482.37 315.5,-463.37 265.5,-463.37"/>
<text text-anchor="middle" x="290.5" y="-470.37" font-family="Helvetica,sans-Serif" font-size="10.00">uint8_t</text>
</a>
</g>
</g>
<!-- Node24&#45;&gt;Node18 -->
<g id="edge31" class="edge">
<title>Node24&#45;&gt;Node18</title>
<path fill="none" stroke="#9a32cd" stroke-dasharray="5,2" d="M325.76,-469.31C377.14,-463.45 471.08,-450.52 499,-431.87 510.99,-423.86 505.47,-413.53 517,-404.87 525.65,-398.37 536.58,-394.05 546.73,-391.2"/>
<polygon fill="#9a32cd" stroke="#9a32cd" points="325.34,-465.84 315.79,-470.42 326.11,-472.79 325.34,-465.84"/>
<text text-anchor="middle" x="438.5" y="-465.87" font-family="Helvetica,sans-Serif" font-size="10.00"> refcount</text>
</g>
<!-- Node25 -->
<g id="node25" class="node">
<title>Node25</title>
<g id="a_node25"><a xlink:href="structdpp_1_1cache__policy__t.html" target="_top" xlink:title="Represents the caching policy of the cluster.">
<polygon fill="none" stroke="black" points="521.5,-318.37 521.5,-337.37 634.5,-337.37 634.5,-318.37 521.5,-318.37"/>
<text text-anchor="middle" x="578" y="-325.37" font-family="Helvetica,sans-Serif" font-size="10.00">dpp::cache_policy_t</text>
</a>
</g>
</g>
<!-- Node25&#45;&gt;Node15 -->
<g id="edge32" class="edge">
<title>Node25&#45;&gt;Node15</title>
<path fill="none" stroke="#9a32cd" stroke-dasharray="5,2" d="M616.88,-314.59C624.39,-311.44 632.09,-307.83 639,-303.87 647.79,-298.82 647.41,-293.16 657,-289.87 707.87,-272.41 730.36,-264.91 778,-289.87 790.45,-296.39 784.97,-307.15 796,-315.87 803.73,-321.98 813.21,-326.69 822.39,-330.26"/>
<polygon fill="#9a32cd" stroke="#9a32cd" points="615.53,-311.37 607.54,-318.33 618.13,-317.87 615.53,-311.37"/>
<text text-anchor="middle" x="717.5" y="-292.87" font-family="Helvetica,sans-Serif" font-size="10.00"> cache_policy</text>
</g>
<!-- Node26 -->
<g id="node26" class="node">
<title>Node26</title>
<g id="a_node26"><a xlink:title=" ">
<polygon fill="none" stroke="#bfbfbf" points="226.5,-299.37 226.5,-318.37 354.5,-318.37 354.5,-299.37 226.5,-299.37"/>
<text text-anchor="middle" x="290.5" y="-306.37" font-family="Helvetica,sans-Serif" font-size="10.00">cache_policy_setting_t</text>
</a>
</g>
</g>
<!-- Node26&#45;&gt;Node25 -->
<g id="edge33" class="edge">
<title>Node26&#45;&gt;Node25</title>
<path fill="none" stroke="#9a32cd" stroke-dasharray="5,2" d="M364.76,-313.2C404.49,-315.62 454.45,-318.76 499,-321.87 506.18,-322.37 513.73,-322.92 521.19,-323.48"/>
<polygon fill="#9a32cd" stroke="#9a32cd" points="364.82,-309.7 354.63,-312.59 364.4,-316.69 364.82,-309.7"/>
<text text-anchor="middle" x="438.5" y="-346.87" font-family="Helvetica,sans-Serif" font-size="10.00"> emoji_policy</text>
<text text-anchor="middle" x="438.5" y="-335.87" font-family="Helvetica,sans-Serif" font-size="10.00">role_policy</text>
<text text-anchor="middle" x="438.5" y="-324.87" font-family="Helvetica,sans-Serif" font-size="10.00">user_policy</text>
</g>
<!-- Node27 -->
<g id="node27" class="node">
<title>Node27</title>
<g id="a_node27"><a xlink:title=" ">
<polygon fill="none" stroke="#bfbfbf" points="517,-105.37 517,-124.37 639,-124.37 639,-105.37 517,-105.37"/>
<text text-anchor="middle" x="578" y="-112.37" font-family="Helvetica,sans-Serif" font-size="10.00">websocket_protocol_t</text>
</a>
</g>
</g>
<!-- Node27&#45;&gt;Node5 -->
<g id="edge44" class="edge">
<title>Node27&#45;&gt;Node5</title>
<path fill="none" stroke="#9a32cd" stroke-dasharray="5,2" d="M649.17,-113.09C771.84,-111.59 1017.79,-116.22 1076,-174.87 1134.51,-233.82 1145.22,-518.19 1146.77,-574.26"/>
<polygon fill="#9a32cd" stroke="#9a32cd" points="649.08,-109.59 639.13,-113.23 649.17,-116.59 649.08,-109.59"/>
<text text-anchor="middle" x="858.5" y="-128.87" font-family="Helvetica,sans-Serif" font-size="10.00"> protocol</text>
</g>
<!-- Node27&#45;&gt;Node15 -->
<g id="edge34" class="edge">
<title>Node27&#45;&gt;Node15</title>
<path fill="none" stroke="#9a32cd" stroke-dasharray="5,2" d="M649.44,-122.72C699.43,-129.8 760.62,-142.03 778,-160.87 815.16,-201.15 770.45,-234.38 796,-282.87 806.79,-303.35 827.9,-320.37 842.35,-330.34"/>
<polygon fill="#9a32cd" stroke="#9a32cd" points="649.67,-119.22 639.28,-121.33 648.72,-126.15 649.67,-119.22"/>
<text text-anchor="middle" x="717.5" y="-163.87" font-family="Helvetica,sans-Serif" font-size="10.00"> ws_mode</text>
</g>
<!-- Node28 -->
<g id="node28" class="node">
<title>Node28</title>
<g id="a_node28"><a xlink:title=" ">
<polygon fill="none" stroke="#bfbfbf" points="524.5,-471.37 524.5,-490.37 631.5,-490.37 631.5,-471.37 524.5,-471.37"/>
<text text-anchor="middle" x="578" y="-478.37" font-family="Helvetica,sans-Serif" font-size="10.00">condition_variable</text>
</a>
</g>
</g>
<!-- Node28&#45;&gt;Node15 -->
<g id="edge35" class="edge">
<title>Node28&#45;&gt;Node15</title>
<path fill="none" stroke="#9a32cd" stroke-dasharray="5,2" d="M623.96,-492.46C666.66,-500.83 731.1,-506.39 778,-478.87 827.87,-449.6 849.18,-376.13 855.42,-349.61"/>
<polygon fill="#9a32cd" stroke="#9a32cd" points="624.64,-489.02 614.13,-490.41 623.21,-495.87 624.64,-489.02"/>
<text text-anchor="middle" x="717.5" y="-502.87" font-family="Helvetica,sans-Serif" font-size="10.00"> terminating</text>
</g>
<!-- Node29 -->
<g id="node29" class="node">
<title>Node29</title>
<g id="a_node29"><a xlink:title=" ">
<polygon fill="none" stroke="#bfbfbf" points="530,-414.37 530,-433.37 626,-433.37 626,-414.37 530,-414.37"/>
<text text-anchor="middle" x="578" y="-421.37" font-family="Helvetica,sans-Serif" font-size="10.00">event_router_t&lt;</text>
</a>
</g>
</g>
<!-- Node29&#45;&gt;Node15 -->
<g id="edge36" class="edge">
<title>Node29&#45;&gt;Node15</title>
<path fill="none" stroke="#9a32cd" stroke-dasharray="5,2" d="M633.6,-409.23C635.51,-407.9 637.32,-406.45 639,-404.87 655.28,-389.52 639.16,-371.36 657,-357.87 682.02,-338.95 770.53,-337.71 821.19,-338.66"/>
<polygon fill="#9a32cd" stroke="#9a32cd" points="631.64,-406.32 624.7,-414.32 635.12,-412.39 631.64,-406.32"/>
<text text-anchor="middle" x="717.5" y="-470.87" font-family="Helvetica,sans-Serif" font-size="10.00"> on_autocomplete</text>
<text text-anchor="middle" x="717.5" y="-459.87" font-family="Helvetica,sans-Serif" font-size="10.00">on_button_click</text>
<text text-anchor="middle" x="717.5" y="-448.87" font-family="Helvetica,sans-Serif" font-size="10.00">on_channel_create</text>
<text text-anchor="middle" x="717.5" y="-437.87" font-family="Helvetica,sans-Serif" font-size="10.00">on_channel_delete</text>
<text text-anchor="middle" x="717.5" y="-426.87" font-family="Helvetica,sans-Serif" font-size="10.00">on_channel_pins_update</text>
<text text-anchor="middle" x="717.5" y="-415.87" font-family="Helvetica,sans-Serif" font-size="10.00">on_channel_update</text>
<text text-anchor="middle" x="717.5" y="-404.87" font-family="Helvetica,sans-Serif" font-size="10.00">on_form_submit</text>
<text text-anchor="middle" x="717.5" y="-393.87" font-family="Helvetica,sans-Serif" font-size="10.00">on_guild_ban_add</text>
<text text-anchor="middle" x="717.5" y="-382.87" font-family="Helvetica,sans-Serif" font-size="10.00">on_guild_ban_remove</text>
<text text-anchor="middle" x="717.5" y="-371.87" font-family="Helvetica,sans-Serif" font-size="10.00">on_guild_create</text>
<text text-anchor="middle" x="717.5" y="-360.87" font-family="Helvetica,sans-Serif" font-size="10.00">...</text>
</g>
<!-- Node30 -->
<g id="node30" class="node">
<title>Node30</title>
<g id="a_node30"><a xlink:title=" ">
<polygon fill="none" stroke="#bfbfbf" points="802,-688.37 802,-707.37 915,-707.37 915,-688.37 802,-688.37"/>
<text text-anchor="middle" x="858.5" y="-695.37" font-family="Helvetica,sans-Serif" font-size="10.00">native_handle_type</text>
</a>
</g>
</g>
<!-- Node30&#45;&gt;Node5 -->
<g id="edge39" class="edge">
<title>Node30&#45;&gt;Node5</title>
<path fill="none" stroke="#9a32cd" stroke-dasharray="5,2" d="M925.35,-703.84C970.45,-704.95 1030.17,-700.32 1076,-674.87 1110.33,-655.8 1133.71,-612.58 1142.79,-593.38"/>
<polygon fill="#9a32cd" stroke="#9a32cd" points="925.2,-700.33 915.08,-703.48 924.96,-707.33 925.2,-700.33"/>
<text text-anchor="middle" x="1007.5" y="-707.87" font-family="Helvetica,sans-Serif" font-size="10.00"> thread_id</text>
</g>
<!-- Node30&#45;&gt;Node33 -->
<g id="edge52" class="edge">
<title>Node30&#45;&gt;Node33</title>
<path fill="none" stroke="#9a32cd" stroke-dasharray="5,2" d="M893.37,-711.31C938.86,-730.61 1020.39,-769.67 1076,-821.87 1102.96,-847.17 1126.41,-884 1138.43,-904.55"/>
<polygon fill="#9a32cd" stroke="#9a32cd" points="894.54,-708.01 883.96,-707.39 891.84,-714.47 894.54,-708.01"/>
<text text-anchor="middle" x="1007.5" y="-824.87" font-family="Helvetica,sans-Serif" font-size="10.00"> thread_id</text>
</g>
<!-- Node31 -->
<g id="node31" class="node">
<title>Node31</title>
<g id="a_node31"><a xlink:title=" ">
<polygon fill="none" stroke="#bfbfbf" points="824,-254.37 824,-273.37 893,-273.37 893,-254.37 824,-254.37"/>
<text text-anchor="middle" x="858.5" y="-261.37" font-family="Helvetica,sans-Serif" font-size="10.00">std::mutex</text>
</a>
</g>
</g>
<!-- Node31&#45;&gt;Node5 -->
<g id="edge42" class="edge">
<title>Node31&#45;&gt;Node5</title>
<path fill="none" stroke="#9a32cd" stroke-dasharray="5,2" d="M896.24,-277.12C944.45,-296.36 1028.51,-336.57 1076,-397.87 1120.66,-455.52 1139.94,-544.49 1145.33,-573.99"/>
<polygon fill="#9a32cd" stroke="#9a32cd" points="897.39,-273.81 886.8,-273.44 894.85,-280.34 897.39,-273.81"/>
<text text-anchor="middle" x="1007.5" y="-400.87" font-family="Helvetica,sans-Serif" font-size="10.00"> voice_mutex</text>
</g>
<!-- Node32 -->
<g id="node32" class="node">
<title>Node32</title>
<g id="a_node32"><a xlink:title=" ">
<polygon fill="none" stroke="#bfbfbf" points="808,-216.37 808,-235.37 909,-235.37 909,-216.37 808,-216.37"/>
<text text-anchor="middle" x="858.5" y="-223.37" font-family="Helvetica,sans-Serif" font-size="10.00">unordered_map&lt;</text>
</a>
</g>
</g>
<!-- Node32&#45;&gt;Node5 -->
<g id="edge45" class="edge">
<title>Node32&#45;&gt;Node5</title>
<path fill="none" stroke="#9a32cd" stroke-dasharray="5,2" d="M919.34,-225.63C968.12,-228.75 1035.35,-241.16 1076,-282.87 1118.34,-326.32 1141.26,-527.64 1146.05,-574.22"/>
<polygon fill="#9a32cd" stroke="#9a32cd" points="919.4,-222.12 909.23,-225.09 919.03,-229.11 919.4,-222.12"/>
<text text-anchor="middle" x="1007.5" y="-285.87" font-family="Helvetica,sans-Serif" font-size="10.00"> connecting_voice_channels</text>
</g>
<!-- Node33&#45;&gt;Node1 -->
<g id="edge46" class="edge">
<title>Node33&#45;&gt;Node1</title>
<path fill="none" stroke="#9a32cd" stroke-dasharray="5,2" d="M1176.7,-940.95C1189.44,-950.01 1205.02,-960.25 1220,-967.87 1307.19,-1012.21 1417.82,-1046.54 1473.16,-1062.34"/>
<polygon fill="#9a32cd" stroke="#9a32cd" points="1178.53,-937.95 1168.38,-934.91 1174.42,-943.61 1178.53,-937.95"/>
<text text-anchor="middle" x="1327" y="-1039.87" font-family="Helvetica,sans-Serif" font-size="10.00"> voice_client</text>
</g>
</g>
</svg>
