<?xml version="1.0" encoding="UTF-8" standalone="no"?>
<!DOCTYPE svg PUBLIC "-//W3C//DTD SVG 1.1//EN"
 "http://www.w3.org/Graphics/SVG/1.1/DTD/svg11.dtd">
<!-- Generated by graphviz version 2.43.0 (0)
 -->
<!-- Title: dpp::log_t Pages: 1 -->
<svg width="1541pt" height="1141pt"
 viewBox="0.00 0.00 1541.00 1141.00" xmlns="http://www.w3.org/2000/svg" xmlns:xlink="http://www.w3.org/1999/xlink">
<g id="graph0" class="graph" transform="scale(1 1) rotate(0) translate(4 1137)">
<title>dpp::log_t</title>
<!-- Node1 -->
<g id="node1" class="node">
<title>Node1</title>
<g id="a_node1"><a xlink:title="Log messages.">
<polygon fill="#bfbfbf" stroke="black" points="1468,-38.5 1468,-57.5 1533,-57.5 1533,-38.5 1468,-38.5"/>
<text text-anchor="middle" x="1500.5" y="-45.5" font-family="Helvetica,sans-Serif" font-size="10.00">dpp::log_t</text>
</a>
</g>
</g>
<!-- Node2 -->
<g id="node2" class="node">
<title>Node2</title>
<g id="a_node2"><a xlink:href="structdpp_1_1event__dispatch__t.html" target="_top" xlink:title="Base event parameter struct. Each event you receive from the library will have its parameter derived ...">
<polygon fill="none" stroke="black" points="1265,-84.5 1265,-103.5 1389,-103.5 1389,-84.5 1265,-84.5"/>
<text text-anchor="middle" x="1327" y="-91.5" font-family="Helvetica,sans-Serif" font-size="10.00">dpp::event_dispatch_t</text>
</a>
</g>
</g>
<!-- Node2&#45;&gt;Node1 -->
<g id="edge1" class="edge">
<title>Node2&#45;&gt;Node1</title>
<path fill="none" stroke="midnightblue" d="M1374.89,-81.93C1397.6,-76.02 1425.25,-68.75 1450,-62 1455.77,-60.43 1461.91,-58.72 1467.84,-57.05"/>
<polygon fill="midnightblue" stroke="midnightblue" points="1373.96,-78.55 1365.16,-84.45 1375.71,-85.33 1373.96,-78.55"/>
</g>
<!-- Node3 -->
<g id="node3" class="node">
<title>Node3</title>
<g id="a_node3"><a xlink:title=" ">
<polygon fill="none" stroke="#bfbfbf" points="258,-193.5 258,-212.5 323,-212.5 323,-193.5 258,-193.5"/>
<text text-anchor="middle" x="290.5" y="-200.5" font-family="Helvetica,sans-Serif" font-size="10.00">std::string</text>
</a>
</g>
</g>
<!-- Node3&#45;&gt;Node1 -->
<g id="edge47" class="edge">
<title>Node3&#45;&gt;Node1</title>
<path fill="none" stroke="#9a32cd" stroke-dasharray="5,2" d="M302.11,-184.66C316.4,-161.62 344,-122.5 378,-101 455.36,-52.08 485.47,-48 577,-48 577,-48 577,-48 1328,-48 1376.83,-48 1433.48,-48 1467.89,-48"/>
<polygon fill="#9a32cd" stroke="#9a32cd" points="298.98,-183.08 296.82,-193.45 304.98,-186.68 298.98,-183.08"/>
<text text-anchor="middle" x="1007.5" y="-51" font-family="Helvetica,sans-Serif" font-size="10.00"> message</text>
</g>
<!-- Node3&#45;&gt;Node2 -->
<g id="edge2" class="edge">
<title>Node3&#45;&gt;Node2</title>
<path fill="none" stroke="#9a32cd" stroke-dasharray="5,2" d="M314.11,-187.82C360.97,-157.85 473.04,-94 577,-94 577,-94 577,-94 1149,-94 1187.57,-94 1230.86,-94 1264.97,-94"/>
<polygon fill="#9a32cd" stroke="#9a32cd" points="312.1,-184.94 305.62,-193.33 315.92,-190.81 312.1,-184.94"/>
<text text-anchor="middle" x="858.5" y="-97" font-family="Helvetica,sans-Serif" font-size="10.00"> raw_event</text>
</g>
<!-- Node5 -->
<g id="node5" class="node">
<title>Node5</title>
<g id="a_node5"><a xlink:href="classdpp_1_1discord__client.html" target="_top" xlink:title="Implements a discord client. Each discord_client connects to one shard and derives from a websocket c...">
<polygon fill="none" stroke="black" points="1094,-644.5 1094,-663.5 1202,-663.5 1202,-644.5 1094,-644.5"/>
<text text-anchor="middle" x="1148" y="-651.5" font-family="Helvetica,sans-Serif" font-size="10.00">dpp::discord_client</text>
</a>
</g>
</g>
<!-- Node3&#45;&gt;Node5 -->
<g id="edge41" class="edge">
<title>Node3&#45;&gt;Node5</title>
<path fill="none" stroke="#9a32cd" stroke-dasharray="5,2" d="M333.06,-194.57C417.56,-178.8 615.18,-148.84 778,-177 844.49,-188.5 860.47,-198.18 921,-228 994.54,-264.23 1029.3,-260.62 1076,-328 1149.59,-434.16 1148.85,-602.74 1147.43,-644.44"/>
<polygon fill="#9a32cd" stroke="#9a32cd" points="332.26,-191.16 323.09,-196.47 333.57,-198.04 332.26,-191.16"/>
<text text-anchor="middle" x="717.5" y="-191" font-family="Helvetica,sans-Serif" font-size="10.00"> sessionid</text>
<text text-anchor="middle" x="717.5" y="-180" font-family="Helvetica,sans-Serif" font-size="10.00">token</text>
</g>
<!-- Node7 -->
<g id="node7" class="node">
<title>Node7</title>
<g id="a_node7"><a xlink:href="classdpp_1_1ssl__client.html" target="_top" xlink:title="Implements a simple non&#45;blocking SSL stream client.">
<polygon fill="none" stroke="black" points="535,-783.5 535,-802.5 621,-802.5 621,-783.5 535,-783.5"/>
<text text-anchor="middle" x="578" y="-790.5" font-family="Helvetica,sans-Serif" font-size="10.00">dpp::ssl_client</text>
</a>
</g>
</g>
<!-- Node3&#45;&gt;Node7 -->
<g id="edge7" class="edge">
<title>Node3&#45;&gt;Node7</title>
<path fill="none" stroke="#9a32cd" stroke-dasharray="5,2" d="M311.36,-219.39C327.36,-233.83 348.95,-256.35 360,-281 373.38,-310.83 355.27,-403.51 378,-427 415.85,-466.12 462,-406.07 499,-446 533.1,-482.79 503.7,-622.64 517,-671 529.27,-715.61 557.92,-763.42 570.68,-783.39"/>
<polygon fill="#9a32cd" stroke="#9a32cd" points="313.42,-216.55 303.58,-212.61 308.82,-221.82 313.42,-216.55"/>
<text text-anchor="middle" x="438.5" y="-493" font-family="Helvetica,sans-Serif" font-size="10.00"> buffer</text>
<text text-anchor="middle" x="438.5" y="-482" font-family="Helvetica,sans-Serif" font-size="10.00">cipher</text>
<text text-anchor="middle" x="438.5" y="-471" font-family="Helvetica,sans-Serif" font-size="10.00">hostname</text>
<text text-anchor="middle" x="438.5" y="-460" font-family="Helvetica,sans-Serif" font-size="10.00">obuffer</text>
<text text-anchor="middle" x="438.5" y="-449" font-family="Helvetica,sans-Serif" font-size="10.00">port</text>
</g>
<!-- Node15 -->
<g id="node15" class="node">
<title>Node15</title>
<g id="a_node15"><a xlink:href="classdpp_1_1cluster.html" target="_top" xlink:title="The cluster class represents a group of shards and a command queue for sending and receiving commands...">
<polygon fill="none" stroke="black" points="821.5,-485.5 821.5,-504.5 895.5,-504.5 895.5,-485.5 821.5,-485.5"/>
<text text-anchor="middle" x="858.5" y="-492.5" font-family="Helvetica,sans-Serif" font-size="10.00">dpp::cluster</text>
</a>
</g>
</g>
<!-- Node3&#45;&gt;Node15 -->
<g id="edge17" class="edge">
<title>Node3&#45;&gt;Node15</title>
<path fill="none" stroke="#9a32cd" stroke-dasharray="5,2" d="M333.36,-208.81C448.19,-224.91 760.74,-269.82 778,-284 843.33,-337.67 855.01,-450.99 857.07,-485.09"/>
<polygon fill="#9a32cd" stroke="#9a32cd" points="333.59,-205.31 323.2,-207.39 332.62,-212.24 333.59,-205.31"/>
<text text-anchor="middle" x="578" y="-257" font-family="Helvetica,sans-Serif" font-size="10.00"> token</text>
</g>
<!-- Node18 -->
<g id="node18" class="node">
<title>Node18</title>
<g id="a_node18"><a xlink:href="classdpp_1_1user.html" target="_top" xlink:title="Represents a user on discord. May or may not be a member of a dpp::guild.">
<polygon fill="none" stroke="black" points="547,-482.5 547,-501.5 609,-501.5 609,-482.5 547,-482.5"/>
<text text-anchor="middle" x="578" y="-489.5" font-family="Helvetica,sans-Serif" font-size="10.00">dpp::user</text>
</a>
</g>
</g>
<!-- Node3&#45;&gt;Node18 -->
<g id="edge26" class="edge">
<title>Node3&#45;&gt;Node18</title>
<path fill="none" stroke="#9a32cd" stroke-dasharray="5,2" d="M317.73,-217.45C334.54,-226.2 357.05,-236.98 378,-244 430.07,-261.44 462.48,-227.99 499,-269 529.27,-302.99 488.52,-437.5 517,-473 524.25,-482.03 535.78,-486.84 546.81,-489.38"/>
<polygon fill="#9a32cd" stroke="#9a32cd" points="319.03,-214.18 308.55,-212.58 315.75,-220.36 319.03,-214.18"/>
<text text-anchor="middle" x="438.5" y="-272" font-family="Helvetica,sans-Serif" font-size="10.00"> username</text>
</g>
<!-- Node4 -->
<g id="node4" class="node">
<title>Node4</title>
<g id="a_node4"><a xlink:title=" ">
<polygon fill="none" stroke="#bfbfbf" points="17,-188 17,-218 121,-218 121,-188 17,-188"/>
<text text-anchor="start" x="25" y="-206" font-family="Helvetica,sans-Serif" font-size="10.00">std::basic_string&lt;</text>
<text text-anchor="middle" x="69" y="-195" font-family="Helvetica,sans-Serif" font-size="10.00"> Char &gt;</text>
</a>
</g>
</g>
<!-- Node4&#45;&gt;Node3 -->
<g id="edge3" class="edge">
<title>Node4&#45;&gt;Node3</title>
<path fill="none" stroke="midnightblue" d="M131.38,-203C172.53,-203 225.02,-203 257.96,-203"/>
<polygon fill="midnightblue" stroke="midnightblue" points="131.19,-199.5 121.19,-203 131.19,-206.5 131.19,-199.5"/>
</g>
<!-- Node5&#45;&gt;Node2 -->
<g id="edge4" class="edge">
<title>Node5&#45;&gt;Node2</title>
<path fill="none" stroke="#9a32cd" stroke-dasharray="5,2" d="M1155.16,-634.52C1183.68,-544.27 1302.48,-168.4 1322.98,-103.55"/>
<polygon fill="#9a32cd" stroke="#9a32cd" points="1151.75,-633.69 1152.07,-644.28 1158.42,-635.8 1151.75,-633.69"/>
<text text-anchor="middle" x="1233.5" y="-427" font-family="Helvetica,sans-Serif" font-size="10.00"> from</text>
</g>
<!-- Node6 -->
<g id="node6" class="node">
<title>Node6</title>
<g id="a_node6"><a xlink:href="classdpp_1_1websocket__client.html" target="_top" xlink:title="Implements a websocket client based on the SSL client.">
<polygon fill="none" stroke="black" points="796,-781.5 796,-800.5 921,-800.5 921,-781.5 796,-781.5"/>
<text text-anchor="middle" x="858.5" y="-788.5" font-family="Helvetica,sans-Serif" font-size="10.00">dpp::websocket_client</text>
</a>
</g>
</g>
<!-- Node6&#45;&gt;Node5 -->
<g id="edge5" class="edge">
<title>Node6&#45;&gt;Node5</title>
<path fill="none" stroke="midnightblue" d="M931.31,-798.64C976.12,-799.91 1033.21,-794.81 1076,-768 1115.91,-742.99 1137.04,-686.47 1144.18,-663.74"/>
<polygon fill="midnightblue" stroke="midnightblue" points="931.21,-795.14 921.08,-798.24 930.93,-802.13 931.21,-795.14"/>
</g>
<!-- Node7&#45;&gt;Node6 -->
<g id="edge6" class="edge">
<title>Node7&#45;&gt;Node6</title>
<path fill="none" stroke="midnightblue" d="M631.51,-792.62C678.24,-792.29 746.62,-791.8 795.91,-791.44"/>
<polygon fill="midnightblue" stroke="midnightblue" points="631.27,-789.12 621.3,-792.7 631.32,-796.12 631.27,-789.12"/>
</g>
<!-- Node8 -->
<g id="node8" class="node">
<title>Node8</title>
<g id="a_node8"><a xlink:title=" ">
<polygon fill="none" stroke="#bfbfbf" points="271.5,-979.5 271.5,-998.5 309.5,-998.5 309.5,-979.5 271.5,-979.5"/>
<text text-anchor="middle" x="290.5" y="-986.5" font-family="Helvetica,sans-Serif" font-size="10.00">bool</text>
</a>
</g>
</g>
<!-- Node8&#45;&gt;Node5 -->
<g id="edge15" class="edge">
<title>Node8&#45;&gt;Node5</title>
<path fill="none" stroke="#9a32cd" stroke-dasharray="5,2" d="M319.03,-1001.64C429.27,-1050.15 844.04,-1212.38 1076,-1021 1133.32,-973.71 1144.9,-717.36 1146.71,-663.81"/>
<polygon fill="#9a32cd" stroke="#9a32cd" points="320.17,-998.31 309.61,-997.44 317.32,-1004.71 320.17,-998.31"/>
<text text-anchor="middle" x="717.5" y="-1125" font-family="Helvetica,sans-Serif" font-size="10.00"> ready</text>
<text text-anchor="middle" x="717.5" y="-1114" font-family="Helvetica,sans-Serif" font-size="10.00">terminating</text>
</g>
<!-- Node8&#45;&gt;Node7 -->
<g id="edge8" class="edge">
<title>Node8&#45;&gt;Node7</title>
<path fill="none" stroke="#9a32cd" stroke-dasharray="5,2" d="M319.68,-983.48C363.66,-973.48 448.74,-948.36 499,-896 513.92,-880.46 504.99,-868.88 517,-851 530.09,-831.52 550.64,-813.47 563.96,-802.84"/>
<polygon fill="#9a32cd" stroke="#9a32cd" points="318.72,-980.11 309.69,-985.65 320.2,-986.95 318.72,-980.11"/>
<text text-anchor="middle" x="438.5" y="-1002" font-family="Helvetica,sans-Serif" font-size="10.00"> keepalive</text>
<text text-anchor="middle" x="438.5" y="-991" font-family="Helvetica,sans-Serif" font-size="10.00">make_new</text>
<text text-anchor="middle" x="438.5" y="-980" font-family="Helvetica,sans-Serif" font-size="10.00">nonblocking</text>
<text text-anchor="middle" x="438.5" y="-969" font-family="Helvetica,sans-Serif" font-size="10.00">plaintext</text>
</g>
<!-- Node9 -->
<g id="node9" class="node">
<title>Node9</title>
<g id="a_node9"><a xlink:title=" ">
<polygon fill="none" stroke="#bfbfbf" points="276,-839.5 276,-858.5 305,-858.5 305,-839.5 276,-839.5"/>
<text text-anchor="middle" x="290.5" y="-846.5" font-family="Helvetica,sans-Serif" font-size="10.00">int</text>
</a>
</g>
</g>
<!-- Node9&#45;&gt;Node7 -->
<g id="edge9" class="edge">
<title>Node9&#45;&gt;Node7</title>
<path fill="none" stroke="#9a32cd" stroke-dasharray="5,2" d="M315.58,-847.16C354.55,-843.85 433.66,-835.72 499,-820 517.53,-815.54 537.86,-808.43 553.12,-802.62"/>
<polygon fill="#9a32cd" stroke="#9a32cd" points="314.95,-843.7 305.27,-848.01 315.52,-850.68 314.95,-843.7"/>
<text text-anchor="middle" x="438.5" y="-843" font-family="Helvetica,sans-Serif" font-size="10.00"> sfd</text>
</g>
<!-- Node10 -->
<g id="node10" class="node">
<title>Node10</title>
<g id="a_node10"><a xlink:title=" ">
<polygon fill="none" stroke="#bfbfbf" points="230,-801.5 230,-820.5 351,-820.5 351,-801.5 230,-801.5"/>
<text text-anchor="middle" x="290.5" y="-808.5" font-family="Helvetica,sans-Serif" font-size="10.00">openssl_connection *</text>
</a>
</g>
</g>
<!-- Node10&#45;&gt;Node7 -->
<g id="edge10" class="edge">
<title>Node10&#45;&gt;Node7</title>
<path fill="none" stroke="#9a32cd" stroke-dasharray="5,2" d="M361.24,-806.6C415.5,-803.18 489.03,-798.55 534.71,-795.67"/>
<polygon fill="#9a32cd" stroke="#9a32cd" points="360.76,-803.13 351,-807.25 361.2,-810.11 360.76,-803.13"/>
<text text-anchor="middle" x="438.5" y="-808" font-family="Helvetica,sans-Serif" font-size="10.00"> ssl</text>
</g>
<!-- Node11 -->
<g id="node11" class="node">
<title>Node11</title>
<g id="a_node11"><a xlink:title=" ">
<polygon fill="none" stroke="#bfbfbf" points="266.5,-896.5 266.5,-915.5 314.5,-915.5 314.5,-896.5 266.5,-896.5"/>
<text text-anchor="middle" x="290.5" y="-903.5" font-family="Helvetica,sans-Serif" font-size="10.00">time_t</text>
</a>
</g>
</g>
<!-- Node11&#45;&gt;Node5 -->
<g id="edge38" class="edge">
<title>Node11&#45;&gt;Node5</title>
<path fill="none" stroke="#9a32cd" stroke-dasharray="5,2" d="M309.21,-922.56C333.26,-944.98 373.78,-982.38 378,-984 428.2,-1003.29 445.88,-992.39 499,-984 765.27,-941.93 871.86,-973.06 1076,-797 1119.45,-759.53 1139.05,-689.16 1144.97,-663.59"/>
<polygon fill="#9a32cd" stroke="#9a32cd" points="311.46,-919.87 301.76,-915.61 306.68,-924.99 311.46,-919.87"/>
<text text-anchor="middle" x="717.5" y="-977" font-family="Helvetica,sans-Serif" font-size="10.00"> last_heartbeat</text>
<text text-anchor="middle" x="717.5" y="-966" font-family="Helvetica,sans-Serif" font-size="10.00">last_heartbeat_ack</text>
</g>
<!-- Node11&#45;&gt;Node7 -->
<g id="edge11" class="edge">
<title>Node11&#45;&gt;Node7</title>
<path fill="none" stroke="#9a32cd" stroke-dasharray="5,2" d="M324.5,-895.88C340.57,-891.1 360.22,-885.47 378,-881 431.34,-867.58 449.27,-878.51 499,-855 527.15,-841.69 554.28,-816.45 567.9,-802.63"/>
<polygon fill="#9a32cd" stroke="#9a32cd" points="323.08,-892.65 314.51,-898.88 325.1,-899.35 323.08,-892.65"/>
<text text-anchor="middle" x="438.5" y="-884" font-family="Helvetica,sans-Serif" font-size="10.00"> last_tick</text>
</g>
<!-- Node11&#45;&gt;Node15 -->
<g id="edge18" class="edge">
<title>Node11&#45;&gt;Node15</title>
<path fill="none" stroke="#9a32cd" stroke-dasharray="5,2" d="M325.28,-909.37C398.06,-914.48 568.76,-914.48 639,-812 669.24,-767.88 629.59,-738.93 657,-693 691.48,-635.22 730.56,-649.72 778,-602 809.98,-569.83 839.59,-524.2 851.72,-504.58"/>
<polygon fill="#9a32cd" stroke="#9a32cd" points="325.11,-905.84 314.87,-908.55 324.57,-912.82 325.11,-905.84"/>
<text text-anchor="middle" x="578" y="-895" font-family="Helvetica,sans-Serif" font-size="10.00"> last_identify</text>
</g>
<!-- Node12 -->
<g id="node12" class="node">
<title>Node12</title>
<g id="a_node12"><a xlink:title=" ">
<polygon fill="none" stroke="#bfbfbf" points="41,-616.5 41,-635.5 97,-635.5 97,-616.5 41,-616.5"/>
<text text-anchor="middle" x="69" y="-623.5" font-family="Helvetica,sans-Serif" font-size="10.00">uint64_t</text>
</a>
</g>
</g>
<!-- Node12&#45;&gt;Node5 -->
<g id="edge40" class="edge">
<title>Node12&#45;&gt;Node5</title>
<path fill="none" stroke="#9a32cd" stroke-dasharray="5,2" d="M107.53,-626.98C269.02,-631.17 905.07,-647.71 1093.88,-652.62"/>
<polygon fill="#9a32cd" stroke="#9a32cd" points="107.25,-623.47 97.16,-626.71 107.07,-630.46 107.25,-623.47"/>
<text text-anchor="middle" x="578" y="-643" font-family="Helvetica,sans-Serif" font-size="10.00"> last_seq</text>
</g>
<!-- Node12&#45;&gt;Node7 -->
<g id="edge12" class="edge">
<title>Node12&#45;&gt;Node7</title>
<path fill="none" stroke="#9a32cd" stroke-dasharray="5,2" d="M106.81,-638.5C121.94,-643.39 139.71,-648.82 156,-653 306.62,-691.66 360.27,-651.77 499,-722 529.39,-737.38 556.79,-767.89 569.51,-783.43"/>
<polygon fill="#9a32cd" stroke="#9a32cd" points="107.88,-635.17 97.29,-635.38 105.7,-641.82 107.88,-635.17"/>
<text text-anchor="middle" x="290.5" y="-692" font-family="Helvetica,sans-Serif" font-size="10.00"> bytes_in</text>
<text text-anchor="middle" x="290.5" y="-681" font-family="Helvetica,sans-Serif" font-size="10.00">bytes_out</text>
</g>
<!-- Node19 -->
<g id="node19" class="node">
<title>Node19</title>
<g id="a_node19"><a xlink:href="classdpp_1_1managed.html" target="_top" xlink:title="The managed class is the base class for various types that can be stored in a cache that are identifi...">
<polygon fill="none" stroke="black" points="247.5,-553.5 247.5,-572.5 333.5,-572.5 333.5,-553.5 247.5,-553.5"/>
<text text-anchor="middle" x="290.5" y="-560.5" font-family="Helvetica,sans-Serif" font-size="10.00">dpp::managed</text>
</a>
</g>
</g>
<!-- Node12&#45;&gt;Node19 -->
<g id="edge23" class="edge">
<title>Node12&#45;&gt;Node19</title>
<path fill="none" stroke="#9a32cd" stroke-dasharray="5,2" d="M107.04,-615.06C137.59,-606.08 182.07,-593.07 221,-582 231.92,-578.89 243.84,-575.57 254.63,-572.58"/>
<polygon fill="#9a32cd" stroke="#9a32cd" points="105.85,-611.76 97.25,-617.94 107.83,-618.48 105.85,-611.76"/>
<text text-anchor="middle" x="179.5" y="-602" font-family="Helvetica,sans-Serif" font-size="10.00"> id</text>
</g>
<!-- Node22 -->
<g id="node22" class="node">
<title>Node22</title>
<g id="a_node22"><a xlink:href="structdpp_1_1utility_1_1iconhash.html" target="_top" xlink:title="Store a 128 bit icon hash (profile picture, server icon etc) as a 128 bit binary value made of two ui...">
<polygon fill="none" stroke="black" points="231.5,-515.5 231.5,-534.5 349.5,-534.5 349.5,-515.5 231.5,-515.5"/>
<text text-anchor="middle" x="290.5" y="-522.5" font-family="Helvetica,sans-Serif" font-size="10.00">dpp::utility::iconhash</text>
</a>
</g>
</g>
<!-- Node12&#45;&gt;Node22 -->
<g id="edge28" class="edge">
<title>Node12&#45;&gt;Node22</title>
<path fill="none" stroke="#9a32cd" stroke-dasharray="5,2" d="M87.71,-609.34C104.21,-594.66 130.09,-573.68 156,-561 181.01,-548.76 210.76,-540.22 235.83,-534.54"/>
<polygon fill="#9a32cd" stroke="#9a32cd" points="85.03,-607.05 79.99,-616.37 89.74,-612.23 85.03,-607.05"/>
<text text-anchor="middle" x="179.5" y="-575" font-family="Helvetica,sans-Serif" font-size="10.00"> first</text>
<text text-anchor="middle" x="179.5" y="-564" font-family="Helvetica,sans-Serif" font-size="10.00">second</text>
</g>
<!-- Node13 -->
<g id="node13" class="node">
<title>Node13</title>
<g id="a_node13"><a xlink:title=" ">
<polygon fill="none" stroke="#bfbfbf" points="221,-763.5 221,-782.5 360,-782.5 360,-763.5 221,-763.5"/>
<text text-anchor="middle" x="290.5" y="-770.5" font-family="Helvetica,sans-Serif" font-size="10.00">function&lt; dpp::socket()&gt;</text>
</a>
</g>
</g>
<!-- Node13&#45;&gt;Node7 -->
<g id="edge13" class="edge">
<title>Node13&#45;&gt;Node7</title>
<path fill="none" stroke="#9a32cd" stroke-dasharray="5,2" d="M370.23,-767.6C409.14,-766.2 456.71,-766.41 499,-772 515.82,-774.22 534.17,-779.04 548.84,-783.5"/>
<polygon fill="#9a32cd" stroke="#9a32cd" points="369.87,-764.11 360.02,-768.01 370.15,-771.1 369.87,-764.11"/>
<text text-anchor="middle" x="438.5" y="-786" font-family="Helvetica,sans-Serif" font-size="10.00"> custom_readable_fd</text>
<text text-anchor="middle" x="438.5" y="-775" font-family="Helvetica,sans-Serif" font-size="10.00">custom_writeable_fd</text>
</g>
<!-- Node14 -->
<g id="node14" class="node">
<title>Node14</title>
<g id="a_node14"><a xlink:title=" ">
<polygon fill="none" stroke="#bfbfbf" points="238.5,-725.5 238.5,-744.5 342.5,-744.5 342.5,-725.5 238.5,-725.5"/>
<text text-anchor="middle" x="290.5" y="-732.5" font-family="Helvetica,sans-Serif" font-size="10.00">function&lt; void()&gt;</text>
</a>
</g>
</g>
<!-- Node14&#45;&gt;Node7 -->
<g id="edge14" class="edge">
<title>Node14&#45;&gt;Node7</title>
<path fill="none" stroke="#9a32cd" stroke-dasharray="5,2" d="M352.83,-727.53C394.96,-724.54 451.61,-724.8 499,-740 526.44,-748.8 553.02,-770.55 566.95,-783.29"/>
<polygon fill="#9a32cd" stroke="#9a32cd" points="352.42,-724.05 342.72,-728.33 352.97,-731.03 352.42,-724.05"/>
<text text-anchor="middle" x="438.5" y="-754" font-family="Helvetica,sans-Serif" font-size="10.00"> custom_readable_ready</text>
<text text-anchor="middle" x="438.5" y="-743" font-family="Helvetica,sans-Serif" font-size="10.00">custom_writeable_ready</text>
</g>
<!-- Node15&#45;&gt;Node5 -->
<g id="edge16" class="edge">
<title>Node15&#45;&gt;Node5</title>
<path fill="none" stroke="#9a32cd" stroke-dasharray="5,2" d="M900.28,-507.8C945.42,-523.01 1019.28,-551.05 1076,-588 1101.38,-604.53 1126.17,-630.45 1138.65,-644.37"/>
<polygon fill="#9a32cd" stroke="#9a32cd" points="901.15,-504.4 890.56,-504.57 898.94,-511.04 901.15,-504.4"/>
<text text-anchor="middle" x="1007.5" y="-591" font-family="Helvetica,sans-Serif" font-size="10.00"> creator</text>
</g>
<!-- Node16 -->
<g id="node16" class="node">
<title>Node16</title>
<g id="a_node16"><a xlink:title=" ">
<polygon fill="none" stroke="#bfbfbf" points="262.5,-591.5 262.5,-610.5 318.5,-610.5 318.5,-591.5 262.5,-591.5"/>
<text text-anchor="middle" x="290.5" y="-598.5" font-family="Helvetica,sans-Serif" font-size="10.00">uint32_t</text>
</a>
</g>
</g>
<!-- Node16&#45;&gt;Node5 -->
<g id="edge37" class="edge">
<title>Node16&#45;&gt;Node5</title>
<path fill="none" stroke="#9a32cd" stroke-dasharray="5,2" d="M323.73,-614.39C366.85,-631.52 446.12,-660.25 517,-671 593.48,-682.6 708.42,-705.17 1076,-668 1085.62,-667.03 1095.88,-665.37 1105.52,-663.53"/>
<polygon fill="#9a32cd" stroke="#9a32cd" points="324.91,-611.1 314.33,-610.62 322.3,-617.59 324.91,-611.1"/>
<text text-anchor="middle" x="717.5" y="-746" font-family="Helvetica,sans-Serif" font-size="10.00"> heartbeat_interval</text>
<text text-anchor="middle" x="717.5" y="-735" font-family="Helvetica,sans-Serif" font-size="10.00">intents</text>
<text text-anchor="middle" x="717.5" y="-724" font-family="Helvetica,sans-Serif" font-size="10.00">max_shards</text>
<text text-anchor="middle" x="717.5" y="-713" font-family="Helvetica,sans-Serif" font-size="10.00">reconnects</text>
<text text-anchor="middle" x="717.5" y="-702" font-family="Helvetica,sans-Serif" font-size="10.00">resumes</text>
<text text-anchor="middle" x="717.5" y="-691" font-family="Helvetica,sans-Serif" font-size="10.00">shard_id</text>
</g>
<!-- Node16&#45;&gt;Node15 -->
<g id="edge19" class="edge">
<title>Node16&#45;&gt;Node15</title>
<path fill="none" stroke="#9a32cd" stroke-dasharray="5,2" d="M328.62,-612.17C373.45,-623.25 449.05,-633.88 499,-598 518.52,-583.98 498.43,-562.26 517,-547 562.28,-509.78 720.13,-518.31 778,-509 792.11,-506.73 807.6,-504.05 821.13,-501.64"/>
<polygon fill="#9a32cd" stroke="#9a32cd" points="329.29,-608.73 318.73,-609.6 327.53,-615.51 329.29,-608.73"/>
<text text-anchor="middle" x="578" y="-583" font-family="Helvetica,sans-Serif" font-size="10.00"> cluster_id</text>
<text text-anchor="middle" x="578" y="-572" font-family="Helvetica,sans-Serif" font-size="10.00">intents</text>
<text text-anchor="middle" x="578" y="-561" font-family="Helvetica,sans-Serif" font-size="10.00">maxclusters</text>
<text text-anchor="middle" x="578" y="-550" font-family="Helvetica,sans-Serif" font-size="10.00">numshards</text>
</g>
<!-- Node16&#45;&gt;Node18 -->
<g id="edge29" class="edge">
<title>Node16&#45;&gt;Node18</title>
<path fill="none" stroke="#9a32cd" stroke-dasharray="5,2" d="M328.67,-594.59C386.58,-584.48 492.43,-565.41 499,-560 515.31,-546.57 502,-530.88 517,-516 525.12,-507.94 536.3,-502.49 546.8,-498.86"/>
<polygon fill="#9a32cd" stroke="#9a32cd" points="328.04,-591.15 318.79,-596.31 329.24,-598.05 328.04,-591.15"/>
<text text-anchor="middle" x="438.5" y="-588" font-family="Helvetica,sans-Serif" font-size="10.00"> flags</text>
</g>
<!-- Node17 -->
<g id="node17" class="node">
<title>Node17</title>
<g id="a_node17"><a xlink:title=" ">
<polygon fill="none" stroke="#bfbfbf" points="553,-600.5 553,-619.5 603,-619.5 603,-600.5 553,-600.5"/>
<text text-anchor="middle" x="578" y="-607.5" font-family="Helvetica,sans-Serif" font-size="10.00">double</text>
</a>
</g>
</g>
<!-- Node17&#45;&gt;Node5 -->
<g id="edge43" class="edge">
<title>Node17&#45;&gt;Node5</title>
<path fill="none" stroke="#9a32cd" stroke-dasharray="5,2" d="M613.28,-610.36C694.18,-611.59 903.19,-616.92 1076,-640 1084.84,-641.18 1094.24,-642.78 1103.21,-644.48"/>
<polygon fill="#9a32cd" stroke="#9a32cd" points="613.22,-606.86 603.17,-610.22 613.12,-613.86 613.22,-606.86"/>
<text text-anchor="middle" x="858.5" y="-626" font-family="Helvetica,sans-Serif" font-size="10.00"> websocket_ping</text>
</g>
<!-- Node17&#45;&gt;Node15 -->
<g id="edge20" class="edge">
<title>Node17&#45;&gt;Node15</title>
<path fill="none" stroke="#9a32cd" stroke-dasharray="5,2" d="M612.63,-600.52C667.37,-585.04 770.42,-555.69 778,-552 804.73,-539 832.06,-517.14 846.69,-504.6"/>
<polygon fill="#9a32cd" stroke="#9a32cd" points="611.68,-597.15 603.01,-603.24 613.58,-603.89 611.68,-597.15"/>
<text text-anchor="middle" x="717.5" y="-590" font-family="Helvetica,sans-Serif" font-size="10.00"> rest_ping</text>
</g>
<!-- Node18&#45;&gt;Node15 -->
<g id="edge21" class="edge">
<title>Node18&#45;&gt;Node15</title>
<path fill="none" stroke="#9a32cd" stroke-dasharray="5,2" d="M619.35,-492.43C673.65,-493.02 769.42,-494.05 821.43,-494.61"/>
<polygon fill="#9a32cd" stroke="#9a32cd" points="619.11,-488.93 609.07,-492.32 619.03,-495.93 619.11,-488.93"/>
<text text-anchor="middle" x="717.5" y="-497" font-family="Helvetica,sans-Serif" font-size="10.00"> me</text>
</g>
<!-- Node19&#45;&gt;Node18 -->
<g id="edge22" class="edge">
<title>Node19&#45;&gt;Node18</title>
<path fill="none" stroke="midnightblue" d="M343.73,-563.35C387.18,-561.77 449.67,-555.07 499,-532 508.7,-527.47 507.89,-521.63 517,-516 526.35,-510.22 537.34,-505.35 547.33,-501.54"/>
<polygon fill="midnightblue" stroke="midnightblue" points="343.56,-559.85 333.67,-563.63 343.76,-566.85 343.56,-559.85"/>
</g>
<!-- Node20 -->
<g id="node20" class="node">
<title>Node20</title>
<g id="a_node20"><a xlink:href="structdpp_1_1json__interface.html" target="_top" xlink:title=" ">
<polygon fill="none" stroke="black" points="235.5,-367 235.5,-397 345.5,-397 345.5,-367 235.5,-367"/>
<text text-anchor="start" x="243.5" y="-385" font-family="Helvetica,sans-Serif" font-size="10.00">dpp::json_interface</text>
<text text-anchor="middle" x="290.5" y="-374" font-family="Helvetica,sans-Serif" font-size="10.00">&lt; user &gt;</text>
</a>
</g>
</g>
<!-- Node20&#45;&gt;Node18 -->
<g id="edge24" class="edge">
<title>Node20&#45;&gt;Node18</title>
<path fill="none" stroke="midnightblue" d="M355.76,-370.39C401,-366.06 460.19,-368.69 499,-402 523.7,-423.2 494.66,-449.32 517,-473 524.8,-481.27 536.16,-485.95 546.91,-488.6"/>
<polygon fill="midnightblue" stroke="midnightblue" points="355.31,-366.92 345.74,-371.48 356.06,-373.88 355.31,-366.92"/>
</g>
<!-- Node21 -->
<g id="node21" class="node">
<title>Node21</title>
<g id="a_node21"><a xlink:href="structdpp_1_1json__interface.html" target="_top" xlink:title="Represents an interface for an object that can optionally implement functions for converting to and f...">
<polygon fill="none" stroke="black" points="0,-372.5 0,-391.5 138,-391.5 138,-372.5 0,-372.5"/>
<text text-anchor="middle" x="69" y="-379.5" font-family="Helvetica,sans-Serif" font-size="10.00">dpp::json_interface&lt; T &gt;</text>
</a>
</g>
</g>
<!-- Node21&#45;&gt;Node20 -->
<g id="edge25" class="edge">
<title>Node21&#45;&gt;Node20</title>
<path fill="none" stroke="orange" stroke-dasharray="5,2" d="M148.28,-382C177.07,-382 209.01,-382 235.22,-382"/>
<polygon fill="orange" stroke="orange" points="148.25,-378.5 138.25,-382 148.25,-385.5 148.25,-378.5"/>
<text text-anchor="middle" x="179.5" y="-385" font-family="Helvetica,sans-Serif" font-size="10.00"> &lt; user &gt;</text>
</g>
<!-- Node22&#45;&gt;Node18 -->
<g id="edge27" class="edge">
<title>Node22&#45;&gt;Node18</title>
<path fill="none" stroke="#9a32cd" stroke-dasharray="5,2" d="M359.8,-519.61C400.33,-516.12 452.69,-511.08 499,-505 514.79,-502.93 532.28,-500.06 546.7,-497.55"/>
<polygon fill="#9a32cd" stroke="#9a32cd" points="359.43,-516.13 349.76,-520.47 360.02,-523.11 359.43,-516.13"/>
<text text-anchor="middle" x="438.5" y="-520" font-family="Helvetica,sans-Serif" font-size="10.00"> avatar</text>
</g>
<!-- Node23 -->
<g id="node23" class="node">
<title>Node23</title>
<g id="a_node23"><a xlink:title=" ">
<polygon fill="none" stroke="#bfbfbf" points="262.5,-328.5 262.5,-347.5 318.5,-347.5 318.5,-328.5 262.5,-328.5"/>
<text text-anchor="middle" x="290.5" y="-335.5" font-family="Helvetica,sans-Serif" font-size="10.00">uint16_t</text>
</a>
</g>
</g>
<!-- Node23&#45;&gt;Node18 -->
<g id="edge30" class="edge">
<title>Node23&#45;&gt;Node18</title>
<path fill="none" stroke="#9a32cd" stroke-dasharray="5,2" d="M328.8,-335.76C381.81,-333.42 475.15,-332.75 499,-355 537.8,-391.18 482.51,-432.69 517,-473 524.46,-481.72 535.89,-486.48 546.79,-489.07"/>
<polygon fill="#9a32cd" stroke="#9a32cd" points="328.59,-332.26 318.77,-336.24 328.93,-339.25 328.59,-332.26"/>
<text text-anchor="middle" x="438.5" y="-358" font-family="Helvetica,sans-Serif" font-size="10.00"> discriminator</text>
</g>
<!-- Node24 -->
<g id="node24" class="node">
<title>Node24</title>
<g id="a_node24"><a xlink:title=" ">
<polygon fill="none" stroke="#bfbfbf" points="265.5,-416.5 265.5,-435.5 315.5,-435.5 315.5,-416.5 265.5,-416.5"/>
<text text-anchor="middle" x="290.5" y="-423.5" font-family="Helvetica,sans-Serif" font-size="10.00">uint8_t</text>
</a>
</g>
</g>
<!-- Node24&#45;&gt;Node18 -->
<g id="edge31" class="edge">
<title>Node24&#45;&gt;Node18</title>
<path fill="none" stroke="#9a32cd" stroke-dasharray="5,2" d="M325.69,-419.32C377.41,-410.04 472.33,-396.45 499,-416 520.43,-431.7 498.22,-454.21 517,-473 524.95,-480.96 536.22,-485.59 546.85,-488.28"/>
<polygon fill="#9a32cd" stroke="#9a32cd" points="324.86,-415.92 315.65,-421.17 326.12,-422.8 324.86,-415.92"/>
<text text-anchor="middle" x="438.5" y="-419" font-family="Helvetica,sans-Serif" font-size="10.00"> refcount</text>
</g>
<!-- Node25 -->
<g id="node25" class="node">
<title>Node25</title>
<g id="a_node25"><a xlink:href="structdpp_1_1cache__policy__t.html" target="_top" xlink:title="Represents the caching policy of the cluster.">
<polygon fill="none" stroke="black" points="521.5,-444.5 521.5,-463.5 634.5,-463.5 634.5,-444.5 521.5,-444.5"/>
<text text-anchor="middle" x="578" y="-451.5" font-family="Helvetica,sans-Serif" font-size="10.00">dpp::cache_policy_t</text>
</a>
</g>
</g>
<!-- Node25&#45;&gt;Node15 -->
<g id="edge32" class="edge">
<title>Node25&#45;&gt;Node15</title>
<path fill="none" stroke="#9a32cd" stroke-dasharray="5,2" d="M644.7,-459.8C683.61,-463.68 733.78,-469.46 778,-477 792.23,-479.43 807.74,-482.78 821.25,-485.93"/>
<polygon fill="#9a32cd" stroke="#9a32cd" points="644.85,-456.3 634.56,-458.81 644.17,-463.26 644.85,-456.3"/>
<text text-anchor="middle" x="717.5" y="-480" font-family="Helvetica,sans-Serif" font-size="10.00"> cache_policy</text>
</g>
<!-- Node26 -->
<g id="node26" class="node">
<title>Node26</title>
<g id="a_node26"><a xlink:title=" ">
<polygon fill="none" stroke="#bfbfbf" points="226.5,-290.5 226.5,-309.5 354.5,-309.5 354.5,-290.5 226.5,-290.5"/>
<text text-anchor="middle" x="290.5" y="-297.5" font-family="Helvetica,sans-Serif" font-size="10.00">cache_policy_setting_t</text>
</a>
</g>
</g>
<!-- Node26&#45;&gt;Node25 -->
<g id="edge33" class="edge">
<title>Node26&#45;&gt;Node25</title>
<path fill="none" stroke="#9a32cd" stroke-dasharray="5,2" d="M362.3,-289.23C414.3,-283.07 479.2,-279.62 499,-297 545.48,-337.81 477.3,-387.57 517,-435 520.23,-438.85 524.23,-441.94 528.63,-444.4"/>
<polygon fill="#9a32cd" stroke="#9a32cd" points="361.58,-285.8 352.08,-290.5 362.44,-292.74 361.58,-285.8"/>
<text text-anchor="middle" x="438.5" y="-322" font-family="Helvetica,sans-Serif" font-size="10.00"> emoji_policy</text>
<text text-anchor="middle" x="438.5" y="-311" font-family="Helvetica,sans-Serif" font-size="10.00">role_policy</text>
<text text-anchor="middle" x="438.5" y="-300" font-family="Helvetica,sans-Serif" font-size="10.00">user_policy</text>
</g>
<!-- Node27 -->
<g id="node27" class="node">
<title>Node27</title>
<g id="a_node27"><a xlink:title=" ">
<polygon fill="none" stroke="#bfbfbf" points="517,-202.5 517,-221.5 639,-221.5 639,-202.5 517,-202.5"/>
<text text-anchor="middle" x="578" y="-209.5" font-family="Helvetica,sans-Serif" font-size="10.00">websocket_protocol_t</text>
</a>
</g>
</g>
<!-- Node27&#45;&gt;Node5 -->
<g id="edge44" class="edge">
<title>Node27&#45;&gt;Node5</title>
<path fill="none" stroke="#9a32cd" stroke-dasharray="5,2" d="M649.1,-203.53C688.57,-201.64 737.83,-204.25 778,-222 948.75,-297.46 965.27,-367.71 1076,-518 1107.91,-561.32 1133.67,-620.95 1143.12,-644.18"/>
<polygon fill="#9a32cd" stroke="#9a32cd" points="648.81,-200.04 639.03,-204.12 649.22,-207.03 648.81,-200.04"/>
<text text-anchor="middle" x="858.5" y="-312" font-family="Helvetica,sans-Serif" font-size="10.00"> protocol</text>
</g>
<!-- Node27&#45;&gt;Node15 -->
<g id="edge34" class="edge">
<title>Node27&#45;&gt;Node15</title>
<path fill="none" stroke="#9a32cd" stroke-dasharray="5,2" d="M649.16,-218.92C702.41,-224.77 768.12,-233.54 778,-242 854.95,-307.87 858.35,-447.37 857.79,-485.31"/>
<polygon fill="#9a32cd" stroke="#9a32cd" points="649.35,-215.42 639.03,-217.82 648.6,-222.38 649.35,-215.42"/>
<text text-anchor="middle" x="717.5" y="-245" font-family="Helvetica,sans-Serif" font-size="10.00"> ws_mode</text>
</g>
<!-- Node28 -->
<g id="node28" class="node">
<title>Node28</title>
<g id="a_node28"><a xlink:title=" ">
<polygon fill="none" stroke="#bfbfbf" points="524.5,-406.5 524.5,-425.5 631.5,-425.5 631.5,-406.5 524.5,-406.5"/>
<text text-anchor="middle" x="578" y="-413.5" font-family="Helvetica,sans-Serif" font-size="10.00">condition_variable</text>
</a>
</g>
</g>
<!-- Node28&#45;&gt;Node15 -->
<g id="edge35" class="edge">
<title>Node28&#45;&gt;Node15</title>
<path fill="none" stroke="#9a32cd" stroke-dasharray="5,2" d="M641.97,-422.72C690.63,-428.42 753.65,-437.08 778,-446 803.88,-455.48 830.45,-473.98 845.37,-485.33"/>
<polygon fill="#9a32cd" stroke="#9a32cd" points="642.16,-419.21 631.83,-421.54 641.36,-426.17 642.16,-419.21"/>
<text text-anchor="middle" x="717.5" y="-449" font-family="Helvetica,sans-Serif" font-size="10.00"> terminating</text>
</g>
<!-- Node29 -->
<g id="node29" class="node">
<title>Node29</title>
<g id="a_node29"><a xlink:title=" ">
<polygon fill="none" stroke="#bfbfbf" points="530,-290.5 530,-309.5 626,-309.5 626,-290.5 530,-290.5"/>
<text text-anchor="middle" x="578" y="-297.5" font-family="Helvetica,sans-Serif" font-size="10.00">event_router_t&lt;</text>
</a>
</g>
</g>
<!-- Node29&#45;&gt;Node15 -->
<g id="edge36" class="edge">
<title>Node29&#45;&gt;Node15</title>
<path fill="none" stroke="#9a32cd" stroke-dasharray="5,2" d="M636.37,-292.75C686.85,-287.6 755.68,-283.97 778,-299 843.79,-343.31 855.16,-452.38 857.1,-485.39"/>
<polygon fill="#9a32cd" stroke="#9a32cd" points="635.79,-289.29 626.21,-293.83 636.53,-296.25 635.79,-289.29"/>
<text text-anchor="middle" x="717.5" y="-412" font-family="Helvetica,sans-Serif" font-size="10.00"> on_autocomplete</text>
<text text-anchor="middle" x="717.5" y="-401" font-family="Helvetica,sans-Serif" font-size="10.00">on_button_click</text>
<text text-anchor="middle" x="717.5" y="-390" font-family="Helvetica,sans-Serif" font-size="10.00">on_channel_create</text>
<text text-anchor="middle" x="717.5" y="-379" font-family="Helvetica,sans-Serif" font-size="10.00">on_channel_delete</text>
<text text-anchor="middle" x="717.5" y="-368" font-family="Helvetica,sans-Serif" font-size="10.00">on_channel_pins_update</text>
<text text-anchor="middle" x="717.5" y="-357" font-family="Helvetica,sans-Serif" font-size="10.00">on_channel_update</text>
<text text-anchor="middle" x="717.5" y="-346" font-family="Helvetica,sans-Serif" font-size="10.00">on_form_submit</text>
<text text-anchor="middle" x="717.5" y="-335" font-family="Helvetica,sans-Serif" font-size="10.00">on_guild_ban_add</text>
<text text-anchor="middle" x="717.5" y="-324" font-family="Helvetica,sans-Serif" font-size="10.00">on_guild_ban_remove</text>
<text text-anchor="middle" x="717.5" y="-313" font-family="Helvetica,sans-Serif" font-size="10.00">on_guild_create</text>
<text text-anchor="middle" x="717.5" y="-302" font-family="Helvetica,sans-Serif" font-size="10.00">...</text>
</g>
<!-- Node30 -->
<g id="node30" class="node">
<title>Node30</title>
<g id="a_node30"><a xlink:title=" ">
<polygon fill="none" stroke="#bfbfbf" points="802,-987.5 802,-1006.5 915,-1006.5 915,-987.5 802,-987.5"/>
<text text-anchor="middle" x="858.5" y="-994.5" font-family="Helvetica,sans-Serif" font-size="10.00">native_handle_type</text>
</a>
</g>
</g>
<!-- Node30&#45;&gt;Node5 -->
<g id="edge39" class="edge">
<title>Node30&#45;&gt;Node5</title>
<path fill="none" stroke="#9a32cd" stroke-dasharray="5,2" d="M919.45,-1007.65C967.67,-1012.58 1034.08,-1010.6 1076,-973 1123.94,-930 1142.69,-712.44 1146.32,-663.7"/>
<polygon fill="#9a32cd" stroke="#9a32cd" points="919.79,-1004.17 909.46,-1006.51 918.99,-1011.12 919.79,-1004.17"/>
<text text-anchor="middle" x="1007.5" y="-1012" font-family="Helvetica,sans-Serif" font-size="10.00"> thread_id</text>
</g>
<!-- Node31 -->
<g id="node31" class="node">
<title>Node31</title>
<g id="a_node31"><a xlink:title=" ">
<polygon fill="none" stroke="#bfbfbf" points="824,-123.5 824,-142.5 893,-142.5 893,-123.5 824,-123.5"/>
<text text-anchor="middle" x="858.5" y="-130.5" font-family="Helvetica,sans-Serif" font-size="10.00">std::mutex</text>
</a>
</g>
</g>
<!-- Node31&#45;&gt;Node5 -->
<g id="edge42" class="edge">
<title>Node31&#45;&gt;Node5</title>
<path fill="none" stroke="#9a32cd" stroke-dasharray="5,2" d="M902.96,-121.17C951.65,-110.8 1029.78,-103.29 1076,-146 1152.19,-216.41 1148.51,-579.47 1147.23,-644.14"/>
<polygon fill="#9a32cd" stroke="#9a32cd" points="902.03,-117.79 893.04,-123.41 903.57,-124.62 902.03,-117.79"/>
<text text-anchor="middle" x="1007.5" y="-149" font-family="Helvetica,sans-Serif" font-size="10.00"> voice_mutex</text>
</g>
<!-- Node32 -->
<g id="node32" class="node">
<title>Node32</title>
<g id="a_node32"><a xlink:title=" ">
<polygon fill="none" stroke="#bfbfbf" points="808,-740.5 808,-759.5 909,-759.5 909,-740.5 808,-740.5"/>
<text text-anchor="middle" x="858.5" y="-747.5" font-family="Helvetica,sans-Serif" font-size="10.00">unordered_map&lt;</text>
</a>
</g>
</g>
<!-- Node32&#45;&gt;Node5 -->
<g id="edge45" class="edge">
<title>Node32&#45;&gt;Node5</title>
<path fill="none" stroke="#9a32cd" stroke-dasharray="5,2" d="M919.61,-753.88C964.8,-754.37 1027.07,-749.72 1076,-726 1105.54,-711.68 1129.81,-679.86 1140.74,-663.75"/>
<polygon fill="#9a32cd" stroke="#9a32cd" points="919.44,-750.38 909.38,-753.68 919.31,-757.38 919.44,-750.38"/>
<text text-anchor="middle" x="1007.5" y="-756" font-family="Helvetica,sans-Serif" font-size="10.00"> connecting_voice_channels</text>
</g>
<!-- Node33 -->
<g id="node33" class="node">
<title>Node33</title>
<g id="a_node33"><a xlink:title=" ">
<polygon fill="none" stroke="#bfbfbf" points="1299,-0.5 1299,-19.5 1355,-19.5 1355,-0.5 1299,-0.5"/>
<text text-anchor="middle" x="1327" y="-7.5" font-family="Helvetica,sans-Serif" font-size="10.00">loglevel</text>
</a>
</g>
</g>
<!-- Node33&#45;&gt;Node1 -->
<g id="edge46" class="edge">
<title>Node33&#45;&gt;Node1</title>
<path fill="none" stroke="#9a32cd" stroke-dasharray="5,2" d="M1365.51,-10.51C1389.99,-11.69 1422.42,-14.86 1450,-23 1462,-26.54 1474.58,-32.93 1484.05,-38.37"/>
<polygon fill="#9a32cd" stroke="#9a32cd" points="1365.33,-7 1355.2,-10.11 1365.05,-14 1365.33,-7"/>
<text text-anchor="middle" x="1428.5" y="-26" font-family="Helvetica,sans-Serif" font-size="10.00"> severity</text>
</g>
</g>
</svg>
