<?xml version="1.0" encoding="UTF-8" standalone="no"?>
<!DOCTYPE svg PUBLIC "-//W3C//DTD SVG 1.1//EN"
 "http://www.w3.org/Graphics/SVG/1.1/DTD/svg11.dtd">
<!-- Generated by graphviz version 2.38.0 (20140413.2041)
 -->
<!-- Title: dpp::event_entities Pages: 1 -->
<svg width="160pt" height="163pt"
 viewBox="0.00 0.00 159.50 163.00" xmlns="http://www.w3.org/2000/svg" xmlns:xlink="http://www.w3.org/1999/xlink">
<g id="graph0" class="graph" transform="scale(1 1) rotate(0) translate(4 159)">
<title>dpp::event_entities</title>
<polygon fill="white" stroke="none" points="-4,4 -4,-159 155.5,-159 155.5,4 -4,4"/>
<!-- Node1 -->
<g id="node1" class="node"><title>Node1</title>
<g id="a_node1"><a xlink:title="Entities for the event.">
<polygon fill="#bfbfbf" stroke="black" points="14.5,-0.5 14.5,-19.5 113.5,-19.5 113.5,-0.5 14.5,-0.5"/>
<text text-anchor="middle" x="64" y="-7.5" font-family="Helvetica,sans-Serif" font-size="10.00">dpp::event_entities</text>
</a>
</g>
</g>
<!-- Node2 -->
<g id="node2" class="node"><title>Node2</title>
<g id="a_node2"><a xlink:title=" ">
<polygon fill="white" stroke="#bfbfbf" points="0,-67.5 0,-86.5 50,-86.5 50,-67.5 0,-67.5"/>
<text text-anchor="middle" x="25" y="-74.5" font-family="Helvetica,sans-Serif" font-size="10.00">vector&lt;</text>
</a>
</g>
</g>
<!-- Node2&#45;&gt;Node1 -->
<g id="edge1" class="edge"><title>Node2&#45;&gt;Node1</title>
<path fill="none" stroke="#9a32cd" stroke-dasharray="5,2" d="M22.1949,-56.8677C22.1074,-50.5435 22.9736,-43.6784 26,-38 30.1871,-30.1439 37.7919,-24.0541 45.1042,-19.6631"/>
<polygon fill="#9a32cd" stroke="#9a32cd" points="18.75,-57.6432 23.1219,-67.2939 25.7225,-57.0232 18.75,-57.6432"/>
<text text-anchor="middle" x="54" y="-41" font-family="Helvetica,sans-Serif" font-size="10.00"> speaker_ids</text>
</g>
<!-- Node3 -->
<g id="node3" class="node"><title>Node3</title>
<g id="a_node3"><a xlink:title=" ">
<polygon fill="white" stroke="#bfbfbf" points="74,-67.5 74,-86.5 134,-86.5 134,-67.5 74,-67.5"/>
<text text-anchor="middle" x="104" y="-74.5" font-family="Helvetica,sans-Serif" font-size="10.00">std::string</text>
</a>
</g>
</g>
<!-- Node3&#45;&gt;Node1 -->
<g id="edge2" class="edge"><title>Node3&#45;&gt;Node1</title>
<path fill="none" stroke="#9a32cd" stroke-dasharray="5,2" d="M94.313,-58.7381C90.5579,-52.189 86.1656,-44.6978 82,-38 78.1916,-31.8766 73.6916,-25.1266 70.1437,-19.9075"/>
<polygon fill="#9a32cd" stroke="#9a32cd" points="91.2803,-60.4856 99.2583,-67.4572 97.3691,-57.0321 91.2803,-60.4856"/>
<text text-anchor="middle" x="106.5" y="-41" font-family="Helvetica,sans-Serif" font-size="10.00"> location</text>
</g>
<!-- Node4 -->
<g id="node4" class="node"><title>Node4</title>
<g id="a_node4"><a xlink:title=" ">
<polygon fill="white" stroke="#bfbfbf" points="56.5,-124.5 56.5,-154.5 151.5,-154.5 151.5,-124.5 56.5,-124.5"/>
<text text-anchor="start" x="64.5" y="-142.5" font-family="Helvetica,sans-Serif" font-size="10.00">std::basic_string&lt;</text>
<text text-anchor="middle" x="104" y="-131.5" font-family="Helvetica,sans-Serif" font-size="10.00"> Char &gt;</text>
</a>
</g>
</g>
<!-- Node4&#45;&gt;Node3 -->
<g id="edge3" class="edge"><title>Node4&#45;&gt;Node3</title>
<path fill="none" stroke="midnightblue" d="M104,-114.352C104,-104.513 104,-93.7753 104,-86.5399"/>
<polygon fill="midnightblue" stroke="midnightblue" points="100.5,-114.468 104,-124.468 107.5,-114.468 100.5,-114.468"/>
</g>
</g>
</svg>
