<?xml version="1.0" encoding="UTF-8" standalone="no"?>
<!DOCTYPE svg PUBLIC "-//W3C//DTD SVG 1.1//EN"
 "http://www.w3.org/Graphics/SVG/1.1/DTD/svg11.dtd">
<!-- Generated by graphviz version 2.43.0 (0)
 -->
<!-- Title: dpp::message::message_interaction_struct Pages: 1 -->
<!--zoomable 262 -->
<svg id="main" version="1.1" xmlns="http://www.w3.org/2000/svg" xmlns:xlink="http://www.w3.org/1999/xlink" xml:space="preserve" onload="init(evt)">
<style type="text/css"><![CDATA[
.edge:hover path { stroke: red; }
.edge:hover polygon { stroke: red; fill: red; }
]]></style>
<script type="text/javascript"><![CDATA[
var edges = document.getElementsByTagName('g');
if (edges && edges.length) {
  for (var i=0;i<edges.length;i++) {
    if (edges[i].id.substr(0,4)=='edge') {
      edges[i].setAttribute('class','edge');
    }
  }
}
]]></script>
        <defs>
                <circle id="rim" cx="0" cy="0" r="7"/>
                <circle id="rim2" cx="0" cy="0" r="3.5"/>
                <g id="zoomPlus">
                        <use xlink:href="#rim" fill="#404040">
                                <set attributeName="fill" to="#808080" begin="zoomplus.mouseover" end="zoomplus.mouseout"/>
                        </use>
                        <path d="M-4,0h8M0,-4v8" fill="none" stroke="white" stroke-width="1.5" pointer-events="none"/>
                </g>
                <g id="zoomMin">
                        <use xlink:href="#rim" fill="#404040">
                                <set attributeName="fill" to="#808080" begin="zoomminus.mouseover" end="zoomminus.mouseout"/>
                        </use>
                        <path d="M-4,0h8" fill="none" stroke="white" stroke-width="1.5" pointer-events="none"/>
                </g>
                <g id="dirArrow">
                        <path fill="none" stroke="white" stroke-width="1.5" d="M0,-3.0v7 M-2.5,-0.5L0,-3.0L2.5,-0.5"/>
                </g>
               <g id="resetDef">
                       <use xlink:href="#rim2" fill="#404040">
                               <set attributeName="fill" to="#808080" begin="reset.mouseover" end="reset.mouseout"/>
                       </use>
               </g>
        </defs>

<script type="text/javascript">
var viewWidth = 569;
var viewHeight = 262;
var sectionId = 'dynsection-0';
</script>
<script xlink:href="svgpan.js"/>
<svg id="graph" class="graph">
<g id="viewport">
<title>dpp::message::message_interaction_struct</title>
<polygon fill="white" stroke="transparent" points="-4,4 -4,-258 565.05,-258 565.05,4 -4,4"/>
<!-- Node1 -->
<g id="node1" class="node">
<title>Node1</title>
<g id="a_node1"><a xlink:title="Reference to an interaction.">
<polygon fill="#bfbfbf" stroke="black" points="284.5,-0.5 284.5,-30.5 419.5,-30.5 419.5,-0.5 284.5,-0.5"/>
<text text-anchor="start" x="292.5" y="-18.5" font-family="Helvetica,sans-Serif" font-size="10.00">dpp::message::message</text>
<text text-anchor="middle" x="352" y="-7.5" font-family="Helvetica,sans-Serif" font-size="10.00">_interaction_struct</text>
</a>
</g>
</g>
<!-- Node2 -->
<g id="node2" class="node">
<title>Node2</title>
<g id="a_node2"><a xlink:title=" ">
<polygon fill="white" stroke="#bfbfbf" points="386,-229 386,-248 442,-248 442,-229 386,-229"/>
<text text-anchor="middle" x="414" y="-236" font-family="Helvetica,sans-Serif" font-size="10.00">uint64_t</text>
</a>
</g>
</g>
<!-- Node2&#45;&gt;Node1 -->
<g id="edge1" class="edge">
<title>Node2&#45;&gt;Node1</title>
<path fill="none" stroke="#9a32cd" stroke-dasharray="5,2" d="M451.98,-229.88C502.16,-217.87 581.41,-191.03 556,-145 522.52,-84.35 447.07,-48.41 397.91,-30.58"/>
<polygon fill="#9a32cd" stroke="#9a32cd" points="451.03,-226.51 442.07,-232.15 452.6,-233.33 451.03,-226.51"/>
<text text-anchor="middle" x="549.5" y="-119" font-family="Helvetica,sans-Serif" font-size="10.00"> id</text>
</g>
<!-- Node7 -->
<g id="node7" class="node">
<title>Node7</title>
<g id="a_node7"><a xlink:href="classdpp_1_1managed.html" target="_top" xlink:title="The managed class is the base class for various types that can be stored in a cache that are identifi...">
<polygon fill="white" stroke="black" points="183,-145.5 183,-164.5 269,-164.5 269,-145.5 183,-145.5"/>
<text text-anchor="middle" x="226" y="-152.5" font-family="Helvetica,sans-Serif" font-size="10.00">dpp::managed</text>
</a>
</g>
</g>
<!-- Node2&#45;&gt;Node7 -->
<g id="edge7" class="edge">
<title>Node2&#45;&gt;Node7</title>
<path fill="none" stroke="#9a32cd" stroke-dasharray="5,2" d="M384.58,-224.75C345.89,-207.97 278.94,-178.95 245.78,-164.58"/>
<polygon fill="#9a32cd" stroke="#9a32cd" points="383.67,-228.17 394.24,-228.93 386.45,-221.74 383.67,-228.17"/>
<text text-anchor="middle" x="342.5" y="-191.5" font-family="Helvetica,sans-Serif" font-size="10.00"> id</text>
</g>
<!-- Node9 -->
<g id="node9" class="node">
<title>Node9</title>
<g id="a_node9"><a xlink:href="structdpp_1_1utility_1_1iconhash.html" target="_top" xlink:title="Store a 128 bit icon hash (profile picture, server icon etc) as a 128 bit binary value made of two ui...">
<polygon fill="white" stroke="black" points="355,-145.5 355,-164.5 473,-164.5 473,-145.5 355,-145.5"/>
<text text-anchor="middle" x="414" y="-152.5" font-family="Helvetica,sans-Serif" font-size="10.00">dpp::utility::iconhash</text>
</a>
</g>
</g>
<!-- Node2&#45;&gt;Node9 -->
<g id="edge11" class="edge">
<title>Node2&#45;&gt;Node9</title>
<path fill="none" stroke="#9a32cd" stroke-dasharray="5,2" d="M414,-218.38C414,-201.4 414,-177.37 414,-164.66"/>
<polygon fill="#9a32cd" stroke="#9a32cd" points="410.5,-218.78 414,-228.78 417.5,-218.78 410.5,-218.78"/>
<text text-anchor="middle" x="431.5" y="-197" font-family="Helvetica,sans-Serif" font-size="10.00"> first</text>
<text text-anchor="middle" x="431.5" y="-186" font-family="Helvetica,sans-Serif" font-size="10.00">second</text>
</g>
<!-- Node3 -->
<g id="node3" class="node">
<title>Node3</title>
<g id="a_node3"><a xlink:title=" ">
<polygon fill="white" stroke="#bfbfbf" points="287,-145.5 287,-164.5 337,-164.5 337,-145.5 287,-145.5"/>
<text text-anchor="middle" x="312" y="-152.5" font-family="Helvetica,sans-Serif" font-size="10.00">uint8_t</text>
</a>
</g>
</g>
<!-- Node3&#45;&gt;Node1 -->
<g id="edge2" class="edge">
<title>Node3&#45;&gt;Node1</title>
<path fill="none" stroke="#9a32cd" stroke-dasharray="5,2" d="M346.62,-144.56C355.04,-140.55 363.04,-134.9 368,-127 386.97,-96.8 370.4,-52.93 359.59,-30.64"/>
<polygon fill="#9a32cd" stroke="#9a32cd" points="345.03,-141.42 337.08,-148.42 347.66,-147.91 345.03,-141.42"/>
<text text-anchor="middle" x="388.5" y="-85.5" font-family="Helvetica,sans-Serif" font-size="10.00"> type</text>
</g>
<!-- Node6 -->
<g id="node6" class="node">
<title>Node6</title>
<g id="a_node6"><a xlink:href="classdpp_1_1user.html" target="_top" xlink:title="Represents a user on discord. May or may not be a member of a dpp::guild.">
<polygon fill="white" stroke="black" points="234,-78.5 234,-97.5 296,-97.5 296,-78.5 234,-78.5"/>
<text text-anchor="middle" x="265" y="-85.5" font-family="Helvetica,sans-Serif" font-size="10.00">dpp::user</text>
</a>
</g>
</g>
<!-- Node3&#45;&gt;Node6 -->
<g id="edge13" class="edge">
<title>Node3&#45;&gt;Node6</title>
<path fill="none" stroke="#9a32cd" stroke-dasharray="5,2" d="M278.58,-140.05C273.58,-136.52 269.08,-132.21 266,-127 260.77,-118.13 261.54,-105.96 262.94,-97.81"/>
<polygon fill="#9a32cd" stroke="#9a32cd" points="276.92,-143.14 287.3,-145.27 280.52,-137.13 276.92,-143.14"/>
<text text-anchor="middle" x="288" y="-119" font-family="Helvetica,sans-Serif" font-size="10.00"> refcount</text>
</g>
<!-- Node4 -->
<g id="node4" class="node">
<title>Node4</title>
<g id="a_node4"><a xlink:title=" ">
<polygon fill="white" stroke="#bfbfbf" points="19.5,-145.5 19.5,-164.5 84.5,-164.5 84.5,-145.5 19.5,-145.5"/>
<text text-anchor="middle" x="52" y="-152.5" font-family="Helvetica,sans-Serif" font-size="10.00">std::string</text>
</a>
</g>
</g>
<!-- Node4&#45;&gt;Node1 -->
<g id="edge3" class="edge">
<title>Node4&#45;&gt;Node1</title>
<path fill="none" stroke="#9a32cd" stroke-dasharray="5,2" d="M61.42,-136.28C65.94,-129.17 71.92,-121.4 79,-116 140.18,-69.37 225.35,-42.98 284.21,-29.27"/>
<polygon fill="#9a32cd" stroke="#9a32cd" points="58.19,-134.88 56.2,-145.29 64.24,-138.39 58.19,-134.88"/>
<text text-anchor="middle" x="154.5" y="-85.5" font-family="Helvetica,sans-Serif" font-size="10.00"> name</text>
</g>
<!-- Node4&#45;&gt;Node6 -->
<g id="edge8" class="edge">
<title>Node4&#45;&gt;Node6</title>
<path fill="none" stroke="#9a32cd" stroke-dasharray="5,2" d="M67.77,-138.12C76.54,-130.23 88.06,-121.27 100,-116 143.81,-96.65 199.69,-91.03 233.88,-89.47"/>
<polygon fill="#9a32cd" stroke="#9a32cd" points="65.14,-135.79 60.29,-145.21 69.96,-140.87 65.14,-135.79"/>
<text text-anchor="middle" x="126" y="-119" font-family="Helvetica,sans-Serif" font-size="10.00"> username</text>
</g>
<!-- Node5 -->
<g id="node5" class="node">
<title>Node5</title>
<g id="a_node5"><a xlink:title=" ">
<polygon fill="white" stroke="#bfbfbf" points="0,-223.5 0,-253.5 104,-253.5 104,-223.5 0,-223.5"/>
<text text-anchor="start" x="8" y="-241.5" font-family="Helvetica,sans-Serif" font-size="10.00">std::basic_string&lt;</text>
<text text-anchor="middle" x="52" y="-230.5" font-family="Helvetica,sans-Serif" font-size="10.00"> Char &gt;</text>
</a>
</g>
</g>
<!-- Node5&#45;&gt;Node4 -->
<g id="edge4" class="edge">
<title>Node5&#45;&gt;Node4</title>
<path fill="none" stroke="midnightblue" d="M52,-213.25C52,-196.78 52,-175.99 52,-164.54"/>
<polygon fill="midnightblue" stroke="midnightblue" points="48.5,-213.3 52,-223.3 55.5,-213.3 48.5,-213.3"/>
</g>
<!-- Node6&#45;&gt;Node1 -->
<g id="edge5" class="edge">
<title>Node6&#45;&gt;Node1</title>
<path fill="none" stroke="#9a32cd" stroke-dasharray="5,2" d="M283.78,-71.78C298.87,-59.55 319.92,-42.5 334.63,-30.58"/>
<polygon fill="#9a32cd" stroke="#9a32cd" points="281.23,-69.34 275.67,-78.36 285.64,-74.78 281.23,-69.34"/>
<text text-anchor="middle" x="320.5" y="-52" font-family="Helvetica,sans-Serif" font-size="10.00"> usr</text>
</g>
<!-- Node7&#45;&gt;Node6 -->
<g id="edge6" class="edge">
<title>Node7&#45;&gt;Node6</title>
<path fill="none" stroke="midnightblue" d="M234.79,-136.15C238.13,-129.7 242.07,-122.43 246,-116 249.83,-109.74 254.58,-102.99 258.37,-97.81"/>
<polygon fill="midnightblue" stroke="midnightblue" points="231.52,-134.87 230.14,-145.37 237.77,-138.02 231.52,-134.87"/>
</g>
<!-- Node8 -->
<g id="node8" class="node">
<title>Node8</title>
<g id="a_node8"><a xlink:title=" ">
<polygon fill="white" stroke="#bfbfbf" points="109,-145.5 109,-164.5 165,-164.5 165,-145.5 109,-145.5"/>
<text text-anchor="middle" x="137" y="-152.5" font-family="Helvetica,sans-Serif" font-size="10.00">uint16_t</text>
</a>
</g>
</g>
<!-- Node8&#45;&gt;Node6 -->
<g id="edge9" class="edge">
<title>Node8&#45;&gt;Node6</title>
<path fill="none" stroke="#9a32cd" stroke-dasharray="5,2" d="M147.55,-136.78C152.85,-129.41 159.88,-121.31 168,-116 187.75,-103.09 213.65,-96.29 233.71,-92.74"/>
<polygon fill="#9a32cd" stroke="#9a32cd" points="144.41,-135.18 141.8,-145.44 150.24,-139.05 144.41,-135.18"/>
<text text-anchor="middle" x="202" y="-119" font-family="Helvetica,sans-Serif" font-size="10.00"> discriminator</text>
</g>
<!-- Node9&#45;&gt;Node6 -->
<g id="edge10" class="edge">
<title>Node9&#45;&gt;Node6</title>
<path fill="none" stroke="#9a32cd" stroke-dasharray="5,2" d="M384.84,-141.28C355.34,-128.41 310.51,-108.85 284.87,-97.67"/>
<polygon fill="#9a32cd" stroke="#9a32cd" points="383.65,-144.58 394.21,-145.37 386.45,-138.16 383.65,-144.58"/>
<text text-anchor="middle" x="365.5" y="-119" font-family="Helvetica,sans-Serif" font-size="10.00"> avatar</text>
</g>
<!-- Node10 -->
<g id="node10" class="node">
<title>Node10</title>
<g id="a_node10"><a xlink:title=" ">
<polygon fill="white" stroke="#bfbfbf" points="491,-145.5 491,-164.5 547,-164.5 547,-145.5 491,-145.5"/>
<text text-anchor="middle" x="519" y="-152.5" font-family="Helvetica,sans-Serif" font-size="10.00">uint32_t</text>
</a>
</g>
</g>
<!-- Node10&#45;&gt;Node6 -->
<g id="edge12" class="edge">
<title>Node10&#45;&gt;Node6</title>
<path fill="none" stroke="#9a32cd" stroke-dasharray="5,2" d="M481.74,-142.6C455.39,-134.7 419.17,-124.18 387,-116 356.31,-108.19 320.94,-100.51 296.22,-95.35"/>
<polygon fill="#9a32cd" stroke="#9a32cd" points="480.74,-145.95 491.33,-145.49 482.76,-139.25 480.74,-145.95"/>
<text text-anchor="middle" x="440.5" y="-119" font-family="Helvetica,sans-Serif" font-size="10.00"> flags</text>
</g>
</g>
</svg>
        <g id="navigator" transform="translate(0 0)" fill="#404254">
                <rect fill="#f2f5e9" fill-opacity="0.5" stroke="#606060" stroke-width=".5" x="0" y="0" width="60" height="60"/>
                <use id="zoomplus" xlink:href="#zoomPlus" x="17" y="9" onmousedown="handleZoom(evt,'in')"/>
                <use id="zoomminus" xlink:href="#zoomMin" x="42" y="9" onmousedown="handleZoom(evt,'out')"/>
                <use id="reset" xlink:href="#resetDef" x="30" y="36" onmousedown="handleReset()"/>
                <g id="arrowUp" xlink:href="#dirArrow" transform="translate(30 24)" onmousedown="handlePan(0,-1)">
                  <use xlink:href="#rim" fill="#404040">
                        <set attributeName="fill" to="#808080" begin="arrowUp.mouseover" end="arrowUp.mouseout"/>
                  </use>
                  <path fill="none" stroke="white" stroke-width="1.5" d="M0,-3.0v7 M-2.5,-0.5L0,-3.0L2.5,-0.5"/>
                </g>
                <g id="arrowRight" xlink:href="#dirArrow" transform="rotate(90) translate(36 -43)" onmousedown="handlePan(1,0)">
                  <use xlink:href="#rim" fill="#404040">
                        <set attributeName="fill" to="#808080" begin="arrowRight.mouseover" end="arrowRight.mouseout"/>
                  </use>
                  <path fill="none" stroke="white" stroke-width="1.5" d="M0,-3.0v7 M-2.5,-0.5L0,-3.0L2.5,-0.5"/>
                </g>
                <g id="arrowDown" xlink:href="#dirArrow" transform="rotate(180) translate(-30 -48)" onmousedown="handlePan(0,1)">
                  <use xlink:href="#rim" fill="#404040">
                        <set attributeName="fill" to="#808080" begin="arrowDown.mouseover" end="arrowDown.mouseout"/>
                  </use>
                  <path fill="none" stroke="white" stroke-width="1.5" d="M0,-3.0v7 M-2.5,-0.5L0,-3.0L2.5,-0.5"/>
                </g>
                <g id="arrowLeft" xlink:href="#dirArrow" transform="rotate(270) translate(-36 17)" onmousedown="handlePan(-1,0)">
                  <use xlink:href="#rim" fill="#404040">
                        <set attributeName="fill" to="#808080" begin="arrowLeft.mouseover" end="arrowLeft.mouseout"/>
                  </use>
                  <path fill="none" stroke="white" stroke-width="1.5" d="M0,-3.0v7 M-2.5,-0.5L0,-3.0L2.5,-0.5"/>
                </g>
        </g>
        <svg viewBox="0 0 15 15" width="100%" height="30px" preserveAspectRatio="xMaxYMin meet">
         <g id="arrow_out" transform="scale(0.3 0.3)">
          <a xlink:href="structdpp_1_1message_1_1message__interaction__struct__coll__graph_org.svg" target="_base">
           <rect id="button" ry="5" rx="5" y="6" x="6" height="38" width="38"
                fill="#f2f5e9" fill-opacity="0.5" stroke="#606060" stroke-width="1.0"/>
           <path id="arrow"
             d="M 11.500037,31.436501 C 11.940474,20.09759 22.043105,11.32322 32.158766,21.979434 L 37.068811,17.246167 C 37.068811,17.246167 37.088388,32 37.088388,32 L 22.160133,31.978069 C 22.160133,31.978069 26.997745,27.140456 26.997745,27.140456 C 18.528582,18.264221 13.291696,25.230495 11.500037,31.436501 z"
             style="fill:#404040;"/>
          </a>
         </g>
        </svg>
</svg>
