<?xml version="1.0" encoding="UTF-8" standalone="no"?>
<!DOCTYPE svg PUBLIC "-//W3C//DTD SVG 1.1//EN"
 "http://www.w3.org/Graphics/SVG/1.1/DTD/svg11.dtd">
<!-- Generated by graphviz version 2.38.0 (20140413.2041)
 -->
<!-- Title: dpp::command_data_option Pages: 1 -->
<svg width="694pt" height="116pt"
 viewBox="0.00 0.00 694.00 115.50" xmlns="http://www.w3.org/2000/svg" xmlns:xlink="http://www.w3.org/1999/xlink">
<g id="graph0" class="graph" transform="scale(1 1) rotate(0) translate(4 111.5)">
<title>dpp::command_data_option</title>
<polygon fill="white" stroke="none" points="-4,4 -4,-111.5 690,-111.5 690,4 -4,4"/>
<!-- Node1 -->
<g id="node1" class="node"><title>Node1</title>
<polygon fill="#bfbfbf" stroke="black" points="333,-38.5 333,-57.5 470,-57.5 470,-38.5 333,-38.5"/>
<text text-anchor="middle" x="401.5" y="-45.5" font-family="Helvetica,sans-Serif" font-size="10.00">dpp::command_data_option</text>
</g>
<!-- Node5 -->
<g id="node5" class="node"><title>Node5</title>
<polygon fill="white" stroke="#bfbfbf" points="549,-33 549,-63 686,-63 686,-33 549,-33"/>
<text text-anchor="start" x="557" y="-51" font-family="Helvetica,sans-Serif" font-size="10.00">std::vector&lt; dpp::command</text>
<text text-anchor="middle" x="617.5" y="-40" font-family="Helvetica,sans-Serif" font-size="10.00">_data_option &gt;</text>
</g>
<!-- Node1&#45;&gt;Node5 -->
<g id="edge5" class="edge"><title>Node1&#45;&gt;Node5</title>
<path fill="none" stroke="#9a32cd" stroke-dasharray="5,2" d="M480.374,-48C502.812,-48 527.1,-48 548.863,-48"/>
<polygon fill="#9a32cd" stroke="#9a32cd" points="480.211,-44.5001 470.211,-48 480.211,-51.5001 480.211,-44.5001"/>
<text text-anchor="middle" x="509.5" y="-51" font-family="Helvetica,sans-Serif" font-size="10.00"> elements</text>
</g>
<!-- Node2 -->
<g id="node2" class="node"><title>Node2</title>
<polygon fill="white" stroke="#bfbfbf" points="132,-77 132,-107 269,-107 269,-77 132,-77"/>
<text text-anchor="start" x="140" y="-95" font-family="Helvetica,sans-Serif" font-size="10.00">variant&lt; std::string,</text>
<text text-anchor="middle" x="200.5" y="-84" font-family="Helvetica,sans-Serif" font-size="10.00"> uint32_t, bool, snowflake &gt;</text>
</g>
<!-- Node2&#45;&gt;Node1 -->
<g id="edge1" class="edge"><title>Node2&#45;&gt;Node1</title>
<path fill="none" stroke="#9a32cd" stroke-dasharray="5,2" d="M279.208,-74.8183C305.774,-68.9443 334.52,-62.5885 357.357,-57.5392"/>
<polygon fill="#9a32cd" stroke="#9a32cd" points="278.159,-71.4658 269.15,-77.0422 279.67,-78.3007 278.159,-71.4658"/>
<text text-anchor="middle" x="301" y="-76" font-family="Helvetica,sans-Serif" font-size="10.00"> value</text>
</g>
<!-- Node3 -->
<g id="node3" class="node"><title>Node3</title>
<g id="a_node3"><a xlink:title="STL class. ">
<polygon fill="white" stroke="#bfbfbf" points="170.5,-38.5 170.5,-57.5 230.5,-57.5 230.5,-38.5 170.5,-38.5"/>
<text text-anchor="middle" x="200.5" y="-45.5" font-family="Helvetica,sans-Serif" font-size="10.00">std::string</text>
</a>
</g>
</g>
<!-- Node3&#45;&gt;Node1 -->
<g id="edge2" class="edge"><title>Node3&#45;&gt;Node1</title>
<path fill="none" stroke="#9a32cd" stroke-dasharray="5,2" d="M241.133,-48C267.272,-48 302.186,-48 332.672,-48"/>
<polygon fill="#9a32cd" stroke="#9a32cd" points="240.863,-44.5001 230.863,-48 240.863,-51.5001 240.863,-44.5001"/>
<text text-anchor="middle" x="301" y="-51" font-family="Helvetica,sans-Serif" font-size="10.00"> name</text>
</g>
<!-- Node4 -->
<g id="node4" class="node"><title>Node4</title>
<g id="a_node4"><a xlink:title="STL class. ">
<polygon fill="white" stroke="#bfbfbf" points="0,-33 0,-63 95,-63 95,-33 0,-33"/>
<text text-anchor="start" x="8" y="-51" font-family="Helvetica,sans-Serif" font-size="10.00">std::basic_string&lt;</text>
<text text-anchor="middle" x="47.5" y="-40" font-family="Helvetica,sans-Serif" font-size="10.00"> char &gt;</text>
</a>
</g>
</g>
<!-- Node4&#45;&gt;Node3 -->
<g id="edge3" class="edge"><title>Node4&#45;&gt;Node3</title>
<path fill="none" stroke="midnightblue" d="M105.068,-48C127.327,-48 151.932,-48 170.444,-48"/>
<polygon fill="midnightblue" stroke="midnightblue" points="105.037,-44.5001 95.0371,-48 105.037,-51.5001 105.037,-44.5001"/>
</g>
<!-- Node5&#45;&gt;Node1 -->
<g id="edge4" class="edge"><title>Node5&#45;&gt;Node1</title>
<path fill="none" stroke="#9a32cd" stroke-dasharray="5,2" d="M539.075,-32.8591C536.355,-32.5352 533.657,-32.2465 531,-32 511.971,-30.2348 507.029,-30.2348 488,-32 473.865,-33.3112 458.583,-35.8167 444.902,-38.4626"/>
<polygon fill="#9a32cd" stroke="#9a32cd" points="538.616,-36.3288 548.989,-34.1735 539.536,-29.3895 538.616,-36.3288"/>
<text text-anchor="middle" x="509.5" y="-35" font-family="Helvetica,sans-Serif" font-size="10.00"> options</text>
</g>
<!-- Node6 -->
<g id="node6" class="node"><title>Node6</title>
<polygon fill="white" stroke="#bfbfbf" points="143,-0.5 143,-19.5 258,-19.5 258,-0.5 143,-0.5"/>
<text text-anchor="middle" x="200.5" y="-7.5" font-family="Helvetica,sans-Serif" font-size="10.00">command_option_type</text>
</g>
<!-- Node6&#45;&gt;Node1 -->
<g id="edge6" class="edge"><title>Node6&#45;&gt;Node1</title>
<path fill="none" stroke="#9a32cd" stroke-dasharray="5,2" d="M261.295,-21.4181C289.768,-26.8552 323.431,-33.2832 350.52,-38.4561"/>
<polygon fill="#9a32cd" stroke="#9a32cd" points="261.938,-17.9778 251.459,-19.54 260.625,-24.8536 261.938,-17.9778"/>
<text text-anchor="middle" x="301" y="-35" font-family="Helvetica,sans-Serif" font-size="10.00"> type</text>
</g>
</g>
</svg>
