<?xml version="1.0" encoding="UTF-8" standalone="no"?>
<!DOCTYPE svg PUBLIC "-//W3C//DTD SVG 1.1//EN"
 "http://www.w3.org/Graphics/SVG/1.1/DTD/svg11.dtd">
<!-- Generated by graphviz version 2.38.0 (20140413.2041)
 -->
<!-- Title: dpp::guild_members_chunk_t Pages: 1 -->
<!--zoomable 638 -->
<svg id="main" version="1.1" xmlns="http://www.w3.org/2000/svg" xmlns:xlink="http://www.w3.org/1999/xlink" xml:space="preserve" onload="init(evt)">
<style type="text/css"><![CDATA[
.edge:hover path { stroke: red; }
.edge:hover polygon { stroke: red; fill: red; }
]]></style>
<script type="text/javascript"><![CDATA[
var edges = document.getElementsByTagName('g');
if (edges && edges.length) {
  for (var i=0;i<edges.length;i++) {
    if (edges[i].id.substr(0,4)=='edge') {
      edges[i].setAttribute('class','edge');
    }
  }
}
]]></script>
        <defs>
                <circle id="rim" cx="0" cy="0" r="7"/>
                <circle id="rim2" cx="0" cy="0" r="3.5"/>
                <g id="zoomPlus">
                        <use xlink:href="#rim" fill="#404040">
                                <set attributeName="fill" to="#808080" begin="zoomplus.mouseover" end="zoomplus.mouseout"/>
                        </use>
                        <path d="M-4,0h8M0,-4v8" fill="none" stroke="white" stroke-width="1.5" pointer-events="none"/>
                </g>
                <g id="zoomMin">
                        <use xlink:href="#rim" fill="#404040">
                                <set attributeName="fill" to="#808080" begin="zoomminus.mouseover" end="zoomminus.mouseout"/>
                        </use>
                        <path d="M-4,0h8" fill="none" stroke="white" stroke-width="1.5" pointer-events="none"/>
                </g>
                <g id="dirArrow">
                        <path fill="none" stroke="white" stroke-width="1.5" d="M0,-3.0v7 M-2.5,-0.5L0,-3.0L2.5,-0.5"/>
                </g>
               <g id="resetDef">
                       <use xlink:href="#rim2" fill="#404040">
                               <set attributeName="fill" to="#808080" begin="reset.mouseover" end="reset.mouseout"/>
                       </use>
               </g>
        </defs>

<script type="text/javascript">
var viewWidth = 1238;
var viewHeight = 638;
var sectionId = 'dynsection-1';
</script>
<script xlink:href="svgpan.js"/>
<svg id="graph" class="graph">
<g id="viewport">
<title>dpp::guild_members_chunk_t</title>
<polygon fill="white" stroke="none" points="-4,4 -4,-634 1234,-634 1234,4 -4,4"/>
<!-- Node1 -->
<g id="node1" class="node"><title>Node1</title>
<polygon fill="#bfbfbf" stroke="black" points="1126,-74 1126,-104 1230,-104 1230,-74 1126,-74"/>
<text text-anchor="start" x="1134" y="-92" font-family="Helvetica,sans-Serif" font-size="10.00">dpp::guild_members</text>
<text text-anchor="middle" x="1178" y="-81" font-family="Helvetica,sans-Serif" font-size="10.00">_chunk_t</text>
</g>
<!-- Node2 -->
<g id="node2" class="node"><title>Node2</title>
<g id="a_node2"><a xlink:href="a00036.html" target="_top" xlink:title="Base event parameter struct. ">
<polygon fill="white" stroke="black" points="547.5,-98.5 547.5,-117.5 660.5,-117.5 660.5,-98.5 547.5,-98.5"/>
<text text-anchor="middle" x="604" y="-105.5" font-family="Helvetica,sans-Serif" font-size="10.00">dpp::event_dispatch_t</text>
</a>
</g>
</g>
<!-- Node2&#45;&gt;Node1 -->
<g id="edge1" class="edge"><title>Node2&#45;&gt;Node1</title>
<path fill="none" stroke="midnightblue" d="M670.716,-105.817C785.88,-101.992 1021.79,-94.1557 1125.8,-90.7006"/>
<polygon fill="midnightblue" stroke="midnightblue" points="670.504,-102.322 660.626,-106.152 670.737,-109.318 670.504,-102.322"/>
</g>
<!-- Node3 -->
<g id="node3" class="node"><title>Node3</title>
<g id="a_node3"><a xlink:title="STL class. ">
<polygon fill="white" stroke="#bfbfbf" points="206.5,-150.5 206.5,-169.5 266.5,-169.5 266.5,-150.5 206.5,-150.5"/>
<text text-anchor="middle" x="236.5" y="-157.5" font-family="Helvetica,sans-Serif" font-size="10.00">std::string</text>
</a>
</g>
</g>
<!-- Node3&#45;&gt;Node2 -->
<g id="edge2" class="edge"><title>Node3&#45;&gt;Node2</title>
<path fill="none" stroke="#9a32cd" stroke-dasharray="5,2" d="M272.777,-147.152C286.425,-142.648 302.279,-137.975 317,-135 396.072,-119.021 489.399,-112.455 547.4,-109.787"/>
<polygon fill="#9a32cd" stroke="#9a32cd" points="271.622,-143.848 263.277,-150.376 273.871,-150.477 271.622,-143.848"/>
<text text-anchor="middle" x="356" y="-138" font-family="Helvetica,sans-Serif" font-size="10.00"> raw_event</text>
</g>
<!-- Node5 -->
<g id="node5" class="node"><title>Node5</title>
<g id="a_node5"><a xlink:href="a00038.html" target="_top" xlink:title="dpp::guild">
<polygon fill="white" stroke="black" points="965,-376.5 965,-395.5 1024,-395.5 1024,-376.5 965,-376.5"/>
<text text-anchor="middle" x="994.5" y="-383.5" font-family="Helvetica,sans-Serif" font-size="10.00">dpp::guild</text>
</a>
</g>
</g>
<!-- Node3&#45;&gt;Node5 -->
<g id="edge21" class="edge"><title>Node3&#45;&gt;Node5</title>
<path fill="none" stroke="#9a32cd" stroke-dasharray="5,2" d="M276.574,-157.427C368.868,-151.762 598.155,-140.221 672,-160 797.404,-193.588 825.125,-223.058 925,-306 951.304,-327.845 975.73,-360.462 986.986,-376.458"/>
<polygon fill="#9a32cd" stroke="#9a32cd" points="276.293,-153.937 266.53,-158.053 276.729,-160.924 276.293,-153.937"/>
<text text-anchor="middle" x="604" y="-229" font-family="Helvetica,sans-Serif" font-size="10.00"> splash</text>
<text text-anchor="middle" x="604" y="-218" font-family="Helvetica,sans-Serif" font-size="10.00">icon</text>
<text text-anchor="middle" x="604" y="-207" font-family="Helvetica,sans-Serif" font-size="10.00">vanity_url_code</text>
<text text-anchor="middle" x="604" y="-196" font-family="Helvetica,sans-Serif" font-size="10.00">banner</text>
<text text-anchor="middle" x="604" y="-185" font-family="Helvetica,sans-Serif" font-size="10.00">name</text>
<text text-anchor="middle" x="604" y="-174" font-family="Helvetica,sans-Serif" font-size="10.00">description</text>
<text text-anchor="middle" x="604" y="-163" font-family="Helvetica,sans-Serif" font-size="10.00">discovery_splash</text>
</g>
<!-- Node11 -->
<g id="node11" class="node"><title>Node11</title>
<g id="a_node11"><a xlink:href="a00051.html" target="_top" xlink:title="dpp::guild_member">
<polygon fill="white" stroke="black" points="416,-300.5 416,-319.5 515,-319.5 515,-300.5 416,-300.5"/>
<text text-anchor="middle" x="465.5" y="-307.5" font-family="Helvetica,sans-Serif" font-size="10.00">dpp::guild_member</text>
</a>
</g>
</g>
<!-- Node3&#45;&gt;Node11 -->
<g id="edge16" class="edge"><title>Node3&#45;&gt;Node11</title>
<path fill="none" stroke="#9a32cd" stroke-dasharray="5,2" d="M273.231,-173.199C306.533,-186.456 356.677,-208.921 395,-237 420.972,-256.03 445.513,-285.416 457.263,-300.441"/>
<polygon fill="#9a32cd" stroke="#9a32cd" points="274.477,-169.928 263.889,-169.546 271.927,-176.448 274.477,-169.928"/>
<text text-anchor="middle" x="356" y="-240" font-family="Helvetica,sans-Serif" font-size="10.00"> nickname</text>
</g>
<!-- Node4 -->
<g id="node4" class="node"><title>Node4</title>
<g id="a_node4"><a xlink:title="STL class. ">
<polygon fill="white" stroke="#bfbfbf" points="0,-145 0,-175 95,-175 95,-145 0,-145"/>
<text text-anchor="start" x="8" y="-163" font-family="Helvetica,sans-Serif" font-size="10.00">std::basic_string&lt;</text>
<text text-anchor="middle" x="47.5" y="-152" font-family="Helvetica,sans-Serif" font-size="10.00"> char &gt;</text>
</a>
</g>
</g>
<!-- Node4&#45;&gt;Node3 -->
<g id="edge3" class="edge"><title>Node4&#45;&gt;Node3</title>
<path fill="none" stroke="midnightblue" d="M105.287,-160C138.612,-160 179.335,-160 206.27,-160"/>
<polygon fill="midnightblue" stroke="midnightblue" points="105.206,-156.5 95.2056,-160 105.206,-163.5 105.206,-156.5"/>
</g>
<!-- Node5&#45;&gt;Node1 -->
<g id="edge4" class="edge"><title>Node5&#45;&gt;Node1</title>
<path fill="none" stroke="#9a32cd" stroke-dasharray="5,2" d="M1006.55,-367.917C1039.54,-313.933 1136.92,-154.58 1167.62,-104.348"/>
<polygon fill="#9a32cd" stroke="#9a32cd" points="1003.56,-366.097 1001.33,-376.455 1009.53,-369.747 1003.56,-366.097"/>
<text text-anchor="middle" x="1086" y="-276" font-family="Helvetica,sans-Serif" font-size="10.00"> adding</text>
</g>
<!-- Node6 -->
<g id="node6" class="node"><title>Node6</title>
<g id="a_node6"><a xlink:href="a00088.html" target="_top" xlink:title="The managed class is the base class for various types that can be stored in a cache that are identifi...">
<polygon fill="white" stroke="black" points="317,-445.5 317,-464.5 395,-464.5 395,-445.5 317,-445.5"/>
<text text-anchor="middle" x="356" y="-452.5" font-family="Helvetica,sans-Serif" font-size="10.00">dpp::managed</text>
</a>
</g>
</g>
<!-- Node6&#45;&gt;Node5 -->
<g id="edge5" class="edge"><title>Node6&#45;&gt;Node5</title>
<path fill="none" stroke="midnightblue" d="M405.074,-458.315C504.265,-463.78 737.981,-469.536 925,-419 944.115,-413.835 964.347,-403.393 977.825,-395.631"/>
<polygon fill="midnightblue" stroke="midnightblue" points="405.242,-454.819 395.057,-457.738 404.839,-461.807 405.242,-454.819"/>
</g>
<!-- Node7 -->
<g id="node7" class="node"><title>Node7</title>
<polygon fill="white" stroke="#bfbfbf" points="22,-409.5 22,-428.5 73,-428.5 73,-409.5 22,-409.5"/>
<text text-anchor="middle" x="47.5" y="-416.5" font-family="Helvetica,sans-Serif" font-size="10.00">uint64_t</text>
</g>
<!-- Node7&#45;&gt;Node5 -->
<g id="edge7" class="edge"><title>Node7&#45;&gt;Node5</title>
<path fill="none" stroke="#9a32cd" stroke-dasharray="5,2" d="M69.7845,-434.877C103.228,-458.204 170.946,-499 235.5,-499 235.5,-499 235.5,-499 750,-499 831.663,-499 853.407,-482.285 925,-443 948.6,-430.05 971.764,-408.371 984.182,-395.812"/>
<polygon fill="#9a32cd" stroke="#9a32cd" points="71.463,-431.775 61.2916,-428.81 67.3938,-437.471 71.463,-431.775"/>
<text text-anchor="middle" x="465.5" y="-579" font-family="Helvetica,sans-Serif" font-size="10.00"> rules_channel_id</text>
<text text-anchor="middle" x="465.5" y="-568" font-family="Helvetica,sans-Serif" font-size="10.00">system_channel_id</text>
<text text-anchor="middle" x="465.5" y="-557" font-family="Helvetica,sans-Serif" font-size="10.00">owner_id</text>
<text text-anchor="middle" x="465.5" y="-546" font-family="Helvetica,sans-Serif" font-size="10.00">widget_channel_id</text>
<text text-anchor="start" x="413" y="-535" font-family="Helvetica,sans-Serif" font-size="10.00">public_updates_channel</text>
<text text-anchor="middle" x="465.5" y="-524" font-family="Helvetica,sans-Serif" font-size="10.00">_id</text>
<text text-anchor="middle" x="465.5" y="-513" font-family="Helvetica,sans-Serif" font-size="10.00">afk_channel_id</text>
<text text-anchor="middle" x="465.5" y="-502" font-family="Helvetica,sans-Serif" font-size="10.00">application_id</text>
</g>
<!-- Node7&#45;&gt;Node6 -->
<g id="edge6" class="edge"><title>Node7&#45;&gt;Node6</title>
<path fill="none" stroke="#9a32cd" stroke-dasharray="5,2" d="M83.1614,-428.013C92.7711,-430.251 103.244,-432.45 113,-434 184.429,-445.346 268.763,-450.915 316.654,-453.355"/>
<polygon fill="#9a32cd" stroke="#9a32cd" points="83.6893,-424.54 73.1475,-425.598 82.0482,-431.345 83.6893,-424.54"/>
<text text-anchor="middle" x="134.5" y="-442" font-family="Helvetica,sans-Serif" font-size="10.00"> id</text>
</g>
<!-- Node10 -->
<g id="node10" class="node"><title>Node10</title>
<polygon fill="white" stroke="#bfbfbf" points="690,-335.5 690,-376.5 808,-376.5 808,-335.5 690,-335.5"/>
<text text-anchor="start" x="698" y="-364.5" font-family="Helvetica,sans-Serif" font-size="10.00">std::unordered_map</text>
<text text-anchor="start" x="698" y="-353.5" font-family="Helvetica,sans-Serif" font-size="10.00">&lt; snowflake, class dpp</text>
<text text-anchor="middle" x="749" y="-342.5" font-family="Helvetica,sans-Serif" font-size="10.00">::guild_member * &gt;</text>
</g>
<!-- Node7&#45;&gt;Node10 -->
<g id="edge11" class="edge"><title>Node7&#45;&gt;Node10</title>
<path fill="none" stroke="#9a32cd" stroke-dasharray="5,2" d="M82.9923,-411.999C131.324,-402.152 221.93,-383.562 299,-367 307.012,-365.278 308.861,-363.96 317,-363 449.662,-347.346 606.866,-350.119 689.89,-353.232"/>
<polygon fill="#9a32cd" stroke="#9a32cd" points="82.1591,-408.597 73.0581,-414.021 83.5553,-415.456 82.1591,-408.597"/>
<text text-anchor="middle" x="356" y="-366" font-family="Helvetica,sans-Serif" font-size="10.00"> keys</text>
</g>
<!-- Node7&#45;&gt;Node11 -->
<g id="edge14" class="edge"><title>Node7&#45;&gt;Node11</title>
<path fill="none" stroke="#9a32cd" stroke-dasharray="5,2" d="M65.5622,-402.594C77.9413,-391.384 95.5167,-376.833 113,-367 138.12,-352.872 145.958,-351.655 174,-345 196.921,-339.56 339.154,-323.627 415.755,-315.264"/>
<polygon fill="#9a32cd" stroke="#9a32cd" points="63.1814,-400.029 58.2309,-409.396 67.9423,-405.16 63.1814,-400.029"/>
<text text-anchor="middle" x="236.5" y="-359" font-family="Helvetica,sans-Serif" font-size="10.00"> user_id</text>
<text text-anchor="middle" x="236.5" y="-348" font-family="Helvetica,sans-Serif" font-size="10.00">guild_id</text>
</g>
<!-- Node14 -->
<g id="node14" class="node"><title>Node14</title>
<polygon fill="white" stroke="#bfbfbf" points="174,-409.5 174,-428.5 299,-428.5 299,-409.5 174,-409.5"/>
<text text-anchor="middle" x="236.5" y="-416.5" font-family="Helvetica,sans-Serif" font-size="10.00">std::vector&lt; snowflake &gt;</text>
</g>
<!-- Node7&#45;&gt;Node14 -->
<g id="edge18" class="edge"><title>Node7&#45;&gt;Node14</title>
<path fill="none" stroke="#9a32cd" stroke-dasharray="5,2" d="M83.5784,-419C108.954,-419 143.908,-419 173.892,-419"/>
<polygon fill="#9a32cd" stroke="#9a32cd" points="83.3322,-415.5 73.3322,-419 83.3321,-422.5 83.3322,-415.5"/>
<text text-anchor="middle" x="134.5" y="-422" font-family="Helvetica,sans-Serif" font-size="10.00"> elements</text>
</g>
<!-- Node8 -->
<g id="node8" class="node"><title>Node8</title>
<polygon fill="white" stroke="#bfbfbf" points="723.5,-117.5 723.5,-136.5 774.5,-136.5 774.5,-117.5 723.5,-117.5"/>
<text text-anchor="middle" x="749" y="-124.5" font-family="Helvetica,sans-Serif" font-size="10.00">uint16_t</text>
</g>
<!-- Node8&#45;&gt;Node5 -->
<g id="edge8" class="edge"><title>Node8&#45;&gt;Node5</title>
<path fill="none" stroke="#9a32cd" stroke-dasharray="5,2" d="M784.491,-116.196C822.965,-106.453 885.035,-97.9273 925,-129 965.828,-160.744 987.652,-333.702 992.47,-376.445"/>
<polygon fill="#9a32cd" stroke="#9a32cd" points="783.523,-112.832 774.775,-118.809 785.341,-119.592 783.523,-112.832"/>
<text text-anchor="start" x="826" y="-143" font-family="Helvetica,sans-Serif" font-size="10.00"> premium_subscription</text>
<text text-anchor="middle" x="875.5" y="-132" font-family="Helvetica,sans-Serif" font-size="10.00">_count</text>
</g>
<!-- Node9 -->
<g id="node9" class="node"><title>Node9</title>
<polygon fill="white" stroke="#bfbfbf" points="727.5,-602.5 727.5,-621.5 770.5,-621.5 770.5,-602.5 727.5,-602.5"/>
<text text-anchor="middle" x="749" y="-609.5" font-family="Helvetica,sans-Serif" font-size="10.00">region</text>
</g>
<!-- Node9&#45;&gt;Node5 -->
<g id="edge9" class="edge"><title>Node9&#45;&gt;Node5</title>
<path fill="none" stroke="#9a32cd" stroke-dasharray="5,2" d="M780.795,-617.2C819.029,-621.819 884.173,-623.419 925,-590 987.445,-538.885 993.28,-428.796 993.579,-395.641"/>
<polygon fill="#9a32cd" stroke="#9a32cd" points="781.147,-613.715 770.768,-615.843 780.208,-620.652 781.147,-613.715"/>
<text text-anchor="middle" x="875.5" y="-622" font-family="Helvetica,sans-Serif" font-size="10.00"> voice_region</text>
</g>
<!-- Node10&#45;&gt;Node5 -->
<g id="edge10" class="edge"><title>Node10&#45;&gt;Node5</title>
<path fill="none" stroke="#9a32cd" stroke-dasharray="5,2" d="M818.124,-364.393C866.572,-370.362 929.18,-378.076 964.986,-382.487"/>
<polygon fill="#9a32cd" stroke="#9a32cd" points="818.368,-360.897 808.015,-363.148 817.512,-367.844 818.368,-360.897"/>
<text text-anchor="middle" x="875.5" y="-381" font-family="Helvetica,sans-Serif" font-size="10.00"> members</text>
</g>
<!-- Node11&#45;&gt;Node10 -->
<g id="edge12" class="edge"><title>Node11&#45;&gt;Node10</title>
<path fill="none" stroke="#9a32cd" stroke-dasharray="5,2" d="M525.391,-317.042C566.587,-322.278 622.819,-330.044 672,-339 677.72,-340.042 683.662,-341.213 689.591,-342.441"/>
<polygon fill="#9a32cd" stroke="#9a32cd" points="525.614,-313.543 515.255,-315.766 524.74,-320.488 525.614,-313.543"/>
<text text-anchor="middle" x="604" y="-342" font-family="Helvetica,sans-Serif" font-size="10.00"> elements</text>
</g>
<!-- Node12 -->
<g id="node12" class="node"><title>Node12</title>
<polygon fill="white" stroke="#bfbfbf" points="214.5,-275.5 214.5,-294.5 258.5,-294.5 258.5,-275.5 214.5,-275.5"/>
<text text-anchor="middle" x="236.5" y="-282.5" font-family="Helvetica,sans-Serif" font-size="10.00">time_t</text>
</g>
<!-- Node12&#45;&gt;Node11 -->
<g id="edge13" class="edge"><title>Node12&#45;&gt;Node11</title>
<path fill="none" stroke="#9a32cd" stroke-dasharray="5,2" d="M268.794,-285.614C300.675,-286.56 351.478,-288.956 395,-295 404.903,-296.375 415.498,-298.382 425.354,-300.483"/>
<polygon fill="#9a32cd" stroke="#9a32cd" points="268.835,-282.114 258.745,-285.345 268.648,-289.111 268.835,-282.114"/>
<text text-anchor="middle" x="356" y="-309" font-family="Helvetica,sans-Serif" font-size="10.00"> joined_at</text>
<text text-anchor="middle" x="356" y="-298" font-family="Helvetica,sans-Serif" font-size="10.00">premium_since</text>
</g>
<!-- Node13 -->
<g id="node13" class="node"><title>Node13</title>
<polygon fill="white" stroke="#bfbfbf" points="213.5,-227.5 213.5,-246.5 259.5,-246.5 259.5,-227.5 213.5,-227.5"/>
<text text-anchor="middle" x="236.5" y="-234.5" font-family="Helvetica,sans-Serif" font-size="10.00">uint8_t</text>
</g>
<!-- Node13&#45;&gt;Node5 -->
<g id="edge20" class="edge"><title>Node13&#45;&gt;Node5</title>
<path fill="none" stroke="#9a32cd" stroke-dasharray="5,2" d="M269.858,-235.219C342.664,-231.967 524.529,-228.074 672,-260 792.7,-286.13 927.327,-351.795 975.311,-376.448"/>
<polygon fill="#9a32cd" stroke="#9a32cd" points="269.35,-231.739 259.527,-235.71 269.682,-238.731 269.35,-231.739"/>
<text text-anchor="middle" x="604" y="-307" font-family="Helvetica,sans-Serif" font-size="10.00"> default_message_notifications</text>
<text text-anchor="middle" x="604" y="-296" font-family="Helvetica,sans-Serif" font-size="10.00">explicit_content_filter</text>
<text text-anchor="middle" x="604" y="-285" font-family="Helvetica,sans-Serif" font-size="10.00">verification_level</text>
<text text-anchor="middle" x="604" y="-274" font-family="Helvetica,sans-Serif" font-size="10.00">mfa_level</text>
<text text-anchor="middle" x="604" y="-263" font-family="Helvetica,sans-Serif" font-size="10.00">premium_tier</text>
</g>
<!-- Node13&#45;&gt;Node11 -->
<g id="edge15" class="edge"><title>Node13&#45;&gt;Node11</title>
<path fill="none" stroke="#9a32cd" stroke-dasharray="5,2" d="M269.915,-241.828C302.276,-247.243 353.089,-257.37 395,-273 414.596,-280.308 435.593,-292.097 449.318,-300.4"/>
<polygon fill="#9a32cd" stroke="#9a32cd" points="270.118,-238.316 259.687,-240.172 268.999,-245.226 270.118,-238.316"/>
<text text-anchor="middle" x="356" y="-276" font-family="Helvetica,sans-Serif" font-size="10.00"> flags</text>
</g>
<!-- Node14&#45;&gt;Node5 -->
<g id="edge22" class="edge"><title>Node14&#45;&gt;Node5</title>
<path fill="none" stroke="#9a32cd" stroke-dasharray="5,2" d="M309.376,-416.834C434.521,-412.892 700.534,-403.76 925,-391 938.095,-390.256 952.584,-389.228 964.851,-388.298"/>
<polygon fill="#9a32cd" stroke="#9a32cd" points="309.045,-413.342 299.16,-417.154 309.264,-420.339 309.045,-413.342"/>
<text text-anchor="middle" x="604" y="-433" font-family="Helvetica,sans-Serif" font-size="10.00"> roles</text>
<text text-anchor="middle" x="604" y="-422" font-family="Helvetica,sans-Serif" font-size="10.00">emojis</text>
<text text-anchor="middle" x="604" y="-411" font-family="Helvetica,sans-Serif" font-size="10.00">channels</text>
</g>
<!-- Node14&#45;&gt;Node11 -->
<g id="edge17" class="edge"><title>Node14&#45;&gt;Node11</title>
<path fill="none" stroke="#9a32cd" stroke-dasharray="5,2" d="M284.168,-406.852C328.788,-395.146 390.021,-378.805 395,-376 421.385,-361.135 445.382,-334.048 457.05,-319.63"/>
<polygon fill="#9a32cd" stroke="#9a32cd" points="283.147,-403.502 274.36,-409.421 284.921,-410.273 283.147,-403.502"/>
<text text-anchor="middle" x="356" y="-400" font-family="Helvetica,sans-Serif" font-size="10.00"> roles</text>
</g>
<!-- Node15 -->
<g id="node15" class="node"><title>Node15</title>
<polygon fill="white" stroke="#bfbfbf" points="723.5,-527.5 723.5,-546.5 774.5,-546.5 774.5,-527.5 723.5,-527.5"/>
<text text-anchor="middle" x="749" y="-534.5" font-family="Helvetica,sans-Serif" font-size="10.00">uint32_t</text>
</g>
<!-- Node15&#45;&gt;Node5 -->
<g id="edge19" class="edge"><title>Node15&#45;&gt;Node5</title>
<path fill="none" stroke="#9a32cd" stroke-dasharray="5,2" d="M784.871,-535.677C829.291,-533.379 902.952,-527.323 925,-512 966.913,-482.87 985.626,-419.596 991.418,-395.541"/>
<polygon fill="#9a32cd" stroke="#9a32cd" points="784.613,-532.185 774.793,-536.16 784.949,-539.177 784.613,-532.185"/>
<text text-anchor="middle" x="875.5" y="-579" font-family="Helvetica,sans-Serif" font-size="10.00"> flags</text>
<text text-anchor="start" x="832" y="-568" font-family="Helvetica,sans-Serif" font-size="10.00">max_video_channel</text>
<text text-anchor="middle" x="875.5" y="-557" font-family="Helvetica,sans-Serif" font-size="10.00">_users</text>
<text text-anchor="middle" x="875.5" y="-546" font-family="Helvetica,sans-Serif" font-size="10.00">member_count</text>
<text text-anchor="middle" x="875.5" y="-535" font-family="Helvetica,sans-Serif" font-size="10.00">afk_timeout</text>
</g>
<!-- Node16 -->
<g id="node16" class="node"><title>Node16</title>
<g id="a_node16"><a xlink:title="STL class. ">
<polygon fill="white" stroke="#bfbfbf" points="943,-30 943,-60 1046,-60 1046,-30 943,-30"/>
<text text-anchor="start" x="951" y="-48" font-family="Helvetica,sans-Serif" font-size="10.00">std::unordered_map</text>
<text text-anchor="middle" x="994.5" y="-37" font-family="Helvetica,sans-Serif" font-size="10.00">&lt; K, T &gt;</text>
</a>
</g>
</g>
<!-- Node16&#45;&gt;Node1 -->
<g id="edge23" class="edge"><title>Node16&#45;&gt;Node1</title>
<path fill="none" stroke="#9a32cd" stroke-dasharray="5,2" d="M1056.33,-53.2168C1073.2,-56.0504 1091.42,-59.6354 1108,-64 1118.35,-66.7251 1129.34,-70.3536 1139.43,-73.9991"/>
<polygon fill="#9a32cd" stroke="#9a32cd" points="1056.47,-49.6928 1046.04,-51.5493 1055.35,-56.6028 1056.47,-49.6928"/>
<text text-anchor="middle" x="1086" y="-67" font-family="Helvetica,sans-Serif" font-size="10.00"> members</text>
</g>
<!-- Node17 -->
<g id="node17" class="node"><title>Node17</title>
<polygon fill="white" stroke="#bfbfbf" points="734.5,-38.5 734.5,-57.5 763.5,-57.5 763.5,-38.5 734.5,-38.5"/>
<text text-anchor="middle" x="749" y="-45.5" font-family="Helvetica,sans-Serif" font-size="10.00">K</text>
</g>
<!-- Node17&#45;&gt;Node16 -->
<g id="edge24" class="edge"><title>Node17&#45;&gt;Node16</title>
<path fill="none" stroke="#9a32cd" stroke-dasharray="5,2" d="M773.925,-47.7052C812.968,-47.2242 891.208,-46.2603 942.967,-45.6226"/>
<polygon fill="#9a32cd" stroke="#9a32cd" points="773.745,-44.2071 763.789,-47.8301 773.832,-51.2066 773.745,-44.2071"/>
<text text-anchor="middle" x="875.5" y="-51" font-family="Helvetica,sans-Serif" font-size="10.00"> keys</text>
</g>
<!-- Node18 -->
<g id="node18" class="node"><title>Node18</title>
<polygon fill="white" stroke="#bfbfbf" points="734.5,-0.5 734.5,-19.5 763.5,-19.5 763.5,-0.5 734.5,-0.5"/>
<text text-anchor="middle" x="749" y="-7.5" font-family="Helvetica,sans-Serif" font-size="10.00">T</text>
</g>
<!-- Node18&#45;&gt;Node16 -->
<g id="edge25" class="edge"><title>Node18&#45;&gt;Node16</title>
<path fill="none" stroke="#9a32cd" stroke-dasharray="5,2" d="M773.926,-12.2422C807.708,-15.5508 871.265,-22.2999 925,-31 930.751,-31.9312 936.754,-33.0054 942.712,-34.1362"/>
<polygon fill="#9a32cd" stroke="#9a32cd" points="773.958,-8.72911 763.668,-11.2542 773.286,-15.6969 773.958,-8.72911"/>
<text text-anchor="middle" x="875.5" y="-34" font-family="Helvetica,sans-Serif" font-size="10.00"> elements</text>
</g>
</g>
</svg>
        <g id="navigator" transform="translate(0 0)" fill="#404254">
                <rect fill="#f2f5e9" fill-opacity="0.5" stroke="#606060" stroke-width=".5" x="0" y="0" width="60" height="60"/>
                <use id="zoomplus" xlink:href="#zoomPlus" x="17" y="9" onmousedown="handleZoom(evt,'in')"/>
                <use id="zoomminus" xlink:href="#zoomMin" x="42" y="9" onmousedown="handleZoom(evt,'out')"/>
                <use id="reset" xlink:href="#resetDef" x="30" y="36" onmousedown="handleReset()"/>
                <g id="arrowUp" xlink:href="#dirArrow" transform="translate(30 24)" onmousedown="handlePan(0,-1)">
                  <use xlink:href="#rim" fill="#404040">
                        <set attributeName="fill" to="#808080" begin="arrowUp.mouseover" end="arrowUp.mouseout"/>
                  </use>
                  <path fill="none" stroke="white" stroke-width="1.5" d="M0,-3.0v7 M-2.5,-0.5L0,-3.0L2.5,-0.5"/>
                </g>
                <g id="arrowRight" xlink:href="#dirArrow" transform="rotate(90) translate(36 -43)" onmousedown="handlePan(1,0)">
                  <use xlink:href="#rim" fill="#404040">
                        <set attributeName="fill" to="#808080" begin="arrowRight.mouseover" end="arrowRight.mouseout"/>
                  </use>
                  <path fill="none" stroke="white" stroke-width="1.5" d="M0,-3.0v7 M-2.5,-0.5L0,-3.0L2.5,-0.5"/>
                </g>
                <g id="arrowDown" xlink:href="#dirArrow" transform="rotate(180) translate(-30 -48)" onmousedown="handlePan(0,1)">
                  <use xlink:href="#rim" fill="#404040">
                        <set attributeName="fill" to="#808080" begin="arrowDown.mouseover" end="arrowDown.mouseout"/>
                  </use>
                  <path fill="none" stroke="white" stroke-width="1.5" d="M0,-3.0v7 M-2.5,-0.5L0,-3.0L2.5,-0.5"/>
                </g>
                <g id="arrowLeft" xlink:href="#dirArrow" transform="rotate(270) translate(-36 17)" onmousedown="handlePan(-1,0)">
                  <use xlink:href="#rim" fill="#404040">
                        <set attributeName="fill" to="#808080" begin="arrowLeft.mouseover" end="arrowLeft.mouseout"/>
                  </use>
                  <path fill="none" stroke="white" stroke-width="1.5" d="M0,-3.0v7 M-2.5,-0.5L0,-3.0L2.5,-0.5"/>
                </g>
        </g>
        <svg viewBox="0 0 15 15" width="100%" height="30px" preserveAspectRatio="xMaxYMin meet">
         <g id="arrow_out" transform="scale(0.3 0.3)">
          <a xlink:href="a00477_org.svg" target="_base">
           <rect id="button" ry="5" rx="5" y="6" x="6" height="38" width="38"
                fill="#f2f5e9" fill-opacity="0.5" stroke="#606060" stroke-width="1.0"/>
           <path id="arrow"
             d="M 11.500037,31.436501 C 11.940474,20.09759 22.043105,11.32322 32.158766,21.979434 L 37.068811,17.246167 C 37.068811,17.246167 37.088388,32 37.088388,32 L 22.160133,31.978069 C 22.160133,31.978069 26.997745,27.140456 26.997745,27.140456 C 18.528582,18.264221 13.291696,25.230495 11.500037,31.436501 z"
             style="fill:#404040;"/>
          </a>
         </g>
        </svg>
</svg>
