<?xml version="1.0" encoding="UTF-8" standalone="no"?>
<!DOCTYPE svg PUBLIC "-//W3C//DTD SVG 1.1//EN"
 "http://www.w3.org/Graphics/SVG/1.1/DTD/svg11.dtd">
<!-- Generated by graphviz version 2.38.0 (20140413.2041)
 -->
<!-- Title: dpp::gateway Pages: 1 -->
<svg width="249pt" height="207pt"
 viewBox="0.00 0.00 249.00 207.00" xmlns="http://www.w3.org/2000/svg" xmlns:xlink="http://www.w3.org/1999/xlink">
<g id="graph0" class="graph" transform="scale(1 1) rotate(0) translate(4 203)">
<title>dpp::gateway</title>
<polygon fill="white" stroke="none" points="-4,4 -4,-203 245,-203 245,4 -4,4"/>
<!-- Node1 -->
<g id="node1" class="node"><title>Node1</title>
<polygon fill="#bfbfbf" stroke="black" points="72,-0.5 72,-19.5 147,-19.5 147,-0.5 72,-0.5"/>
<text text-anchor="middle" x="109.5" y="-7.5" font-family="Helvetica,sans-Serif" font-size="10.00">dpp::gateway</text>
</g>
<!-- Node2 -->
<g id="node2" class="node"><title>Node2</title>
<polygon fill="white" stroke="#bfbfbf" points="0,-111.5 0,-130.5 51,-130.5 51,-111.5 0,-111.5"/>
<text text-anchor="middle" x="25.5" y="-118.5" font-family="Helvetica,sans-Serif" font-size="10.00">uint32_t</text>
</g>
<!-- Node2&#45;&gt;Node1 -->
<g id="edge1" class="edge"><title>Node2&#45;&gt;Node1</title>
<path fill="none" stroke="#9a32cd" stroke-dasharray="5,2" d="M20.0444,-101.457C15.9489,-83.4506 13.086,-56.2346 26.5,-38 37.0056,-23.7189 55.2453,-16.852 71.9552,-13.6051"/>
<polygon fill="#9a32cd" stroke="#9a32cd" points="16.7058,-102.525 22.6191,-111.316 23.4786,-100.756 16.7058,-102.525"/>
<text text-anchor="middle" x="99" y="-85" font-family="Helvetica,sans-Serif" font-size="10.00"> session_start_max_concurrency</text>
<text text-anchor="middle" x="99" y="-74" font-family="Helvetica,sans-Serif" font-size="10.00">session_start_reset_after</text>
<text text-anchor="middle" x="99" y="-63" font-family="Helvetica,sans-Serif" font-size="10.00">shards</text>
<text text-anchor="middle" x="99" y="-52" font-family="Helvetica,sans-Serif" font-size="10.00">session_start_remaining</text>
<text text-anchor="middle" x="99" y="-41" font-family="Helvetica,sans-Serif" font-size="10.00">session_start_total</text>
</g>
<!-- Node3 -->
<g id="node3" class="node"><title>Node3</title>
<g id="a_node3"><a xlink:title="STL class. ">
<polygon fill="white" stroke="#bfbfbf" points="163.5,-111.5 163.5,-130.5 223.5,-130.5 223.5,-111.5 163.5,-111.5"/>
<text text-anchor="middle" x="193.5" y="-118.5" font-family="Helvetica,sans-Serif" font-size="10.00">std::string</text>
</a>
</g>
</g>
<!-- Node3&#45;&gt;Node1 -->
<g id="edge2" class="edge"><title>Node3&#45;&gt;Node1</title>
<path fill="none" stroke="#9a32cd" stroke-dasharray="5,2" d="M192.986,-100.993C191.533,-82.8303 186.724,-55.6723 171.5,-38 164.221,-29.5498 153.806,-23.653 143.585,-19.5783"/>
<polygon fill="#9a32cd" stroke="#9a32cd" points="189.502,-101.407 193.526,-111.208 196.493,-101.037 189.502,-101.407"/>
<text text-anchor="middle" x="199.5" y="-63" font-family="Helvetica,sans-Serif" font-size="10.00"> url</text>
</g>
<!-- Node4 -->
<g id="node4" class="node"><title>Node4</title>
<g id="a_node4"><a xlink:title="STL class. ">
<polygon fill="white" stroke="#bfbfbf" points="146,-168.5 146,-198.5 241,-198.5 241,-168.5 146,-168.5"/>
<text text-anchor="start" x="154" y="-186.5" font-family="Helvetica,sans-Serif" font-size="10.00">std::basic_string&lt;</text>
<text text-anchor="middle" x="193.5" y="-175.5" font-family="Helvetica,sans-Serif" font-size="10.00"> char &gt;</text>
</a>
</g>
</g>
<!-- Node4&#45;&gt;Node3 -->
<g id="edge3" class="edge"><title>Node4&#45;&gt;Node3</title>
<path fill="none" stroke="midnightblue" d="M193.5,-158.352C193.5,-148.513 193.5,-137.775 193.5,-130.54"/>
<polygon fill="midnightblue" stroke="midnightblue" points="190,-158.468 193.5,-168.468 197,-158.468 190,-158.468"/>
</g>
</g>
</svg>
