<?xml version="1.0" encoding="UTF-8" standalone="no"?>
<!DOCTYPE svg PUBLIC "-//W3C//DTD SVG 1.1//EN"
 "http://www.w3.org/Graphics/SVG/1.1/DTD/svg11.dtd">
<!-- Generated by graphviz version 2.38.0 (20140413.2041)
 -->
<!-- Title: dpp::confirmation_callback_t Pages: 1 -->
<svg width="946pt" height="292pt"
 viewBox="0.00 0.00 946.00 291.50" xmlns="http://www.w3.org/2000/svg" xmlns:xlink="http://www.w3.org/1999/xlink">
<g id="graph0" class="graph" transform="scale(1 1) rotate(0) translate(4 287.5)">
<title>dpp::confirmation_callback_t</title>
<polygon fill="white" stroke="none" points="-4,4 -4,-287.5 942,-287.5 942,4 -4,4"/>
<!-- Node1 -->
<g id="node1" class="node"><title>Node1</title>
<polygon fill="#bfbfbf" stroke="black" points="797,-94 797,-113 938,-113 938,-94 797,-94"/>
<text text-anchor="middle" x="867.5" y="-101" font-family="Helvetica,sans-Serif" font-size="10.00">dpp::confirmation_callback_t</text>
</g>
<!-- Node2 -->
<g id="node2" class="node"><title>Node2</title>
<polygon fill="white" stroke="#bfbfbf" points="502,-132 502,-283 720,-283 720,-132 502,-132"/>
<text text-anchor="start" x="510" y="-271" font-family="Helvetica,sans-Serif" font-size="10.00">variant&lt; confirmation,</text>
<text text-anchor="start" x="510" y="-260" font-family="Helvetica,sans-Serif" font-size="10.00"> message, message_map,</text>
<text text-anchor="start" x="510" y="-249" font-family="Helvetica,sans-Serif" font-size="10.00"> user, user_map, guild</text>
<text text-anchor="start" x="510" y="-238" font-family="Helvetica,sans-Serif" font-size="10.00">_member, guild_member_map,</text>
<text text-anchor="start" x="510" y="-227" font-family="Helvetica,sans-Serif" font-size="10.00"> channel, channel_map, guild,</text>
<text text-anchor="start" x="510" y="-216" font-family="Helvetica,sans-Serif" font-size="10.00"> guild_map, role, role_map,</text>
<text text-anchor="start" x="510" y="-205" font-family="Helvetica,sans-Serif" font-size="10.00"> invite, invite_map, dtemplate,</text>
<text text-anchor="start" x="510" y="-194" font-family="Helvetica,sans-Serif" font-size="10.00"> dtemplate_map, emoji, emoji_map,</text>
<text text-anchor="start" x="510" y="-183" font-family="Helvetica,sans-Serif" font-size="10.00"> ban, ban_map, voiceregion, voiceregion</text>
<text text-anchor="start" x="510" y="-172" font-family="Helvetica,sans-Serif" font-size="10.00">_map, integration, integration_map, webhook,</text>
<text text-anchor="start" x="510" y="-161" font-family="Helvetica,sans-Serif" font-size="10.00"> webhook_map, prune, guild_widget, gateway,</text>
<text text-anchor="start" x="510" y="-150" font-family="Helvetica,sans-Serif" font-size="10.00"> interaction, interaction_response, auditlog,</text>
<text text-anchor="middle" x="611" y="-139" font-family="Helvetica,sans-Serif" font-size="10.00"> slashcommand, slashcommand_map &gt;</text>
</g>
<!-- Node2&#45;&gt;Node1 -->
<g id="edge1" class="edge"><title>Node2&#45;&gt;Node1</title>
<path fill="none" stroke="#9a32cd" stroke-dasharray="5,2" d="M729.717,-159.396C772.638,-141.856 817.014,-123.722 843.165,-113.036"/>
<polygon fill="#9a32cd" stroke="#9a32cd" points="728.233,-156.221 720.3,-163.244 730.881,-162.701 728.233,-156.221"/>
<text text-anchor="middle" x="758.5" y="-158.5" font-family="Helvetica,sans-Serif" font-size="10.00"> value</text>
</g>
<!-- Node3 -->
<g id="node3" class="node"><title>Node3</title>
<g id="a_node3"><a xlink:title="STL class. ">
<polygon fill="white" stroke="#bfbfbf" points="132,-6 132,-25 192,-25 192,-6 132,-6"/>
<text text-anchor="middle" x="162" y="-13" font-family="Helvetica,sans-Serif" font-size="10.00">std::string</text>
</a>
</g>
</g>
<!-- Node3&#45;&gt;Node1 -->
<g id="edge2" class="edge"><title>Node3&#45;&gt;Node1</title>
<path fill="none" stroke="#9a32cd" stroke-dasharray="5,2" d="M202.186,-10.119C204.827,-9.87322 207.45,-9.66211 210,-9.5 228.867,-8.30062 274.091,-8.13409 378,-10.5 425.132,-11.5732 437.273,-8.24052 484,-14.5 616.281,-32.2201 769.908,-74.8781 834.894,-93.9758"/>
<polygon fill="#9a32cd" stroke="#9a32cd" points="201.597,-6.662 192.028,-11.2091 202.344,-13.622 201.597,-6.662"/>
<text text-anchor="middle" x="440" y="-17.5" font-family="Helvetica,sans-Serif" font-size="10.00"> type</text>
</g>
<!-- Node5 -->
<g id="node5" class="node"><title>Node5</title>
<g id="a_node5"><a xlink:href="a00122.html" target="_top" xlink:title="The result of any HTTP request. Contains the headers, vital rate limit figures, and returned request ...">
<polygon fill="white" stroke="black" points="534.5,-94 534.5,-113 687.5,-113 687.5,-94 534.5,-94"/>
<text text-anchor="middle" x="611" y="-101" font-family="Helvetica,sans-Serif" font-size="10.00">dpp::http_request_completion_t</text>
</a>
</g>
</g>
<!-- Node3&#45;&gt;Node5 -->
<g id="edge8" class="edge"><title>Node3&#45;&gt;Node5</title>
<path fill="none" stroke="#9a32cd" stroke-dasharray="5,2" d="M202.295,-13.8025C245.693,-12.6997 317.445,-13.1666 378,-24.5 458.3,-39.5288 548.65,-76.4519 588.806,-93.9742"/>
<polygon fill="#9a32cd" stroke="#9a32cd" points="202.053,-10.308 192.161,-14.1021 202.26,-17.305 202.053,-10.308"/>
<text text-anchor="middle" x="323" y="-38.5" font-family="Helvetica,sans-Serif" font-size="10.00"> body</text>
<text text-anchor="middle" x="323" y="-27.5" font-family="Helvetica,sans-Serif" font-size="10.00">ratelimit_bucket</text>
</g>
<!-- Node9 -->
<g id="node9" class="node"><title>Node9</title>
<polygon fill="white" stroke="#bfbfbf" points="268,-217.5 268,-247.5 378,-247.5 378,-217.5 268,-217.5"/>
<text text-anchor="start" x="276" y="-235.5" font-family="Helvetica,sans-Serif" font-size="10.00">std::map&lt; std::string,</text>
<text text-anchor="middle" x="323" y="-224.5" font-family="Helvetica,sans-Serif" font-size="10.00"> std::string &gt;</text>
</g>
<!-- Node3&#45;&gt;Node9 -->
<g id="edge10" class="edge"><title>Node3&#45;&gt;Node9</title>
<path fill="none" stroke="#9a32cd" stroke-dasharray="5,2" d="M170.451,-35.0171C184.871,-70.8241 219.499,-147.968 268,-198.5 274.981,-205.773 283.822,-212.172 292.319,-217.399"/>
<polygon fill="#9a32cd" stroke="#9a32cd" points="173.549,-33.3318 166.632,-25.3069 167.035,-35.8941 173.549,-33.3318"/>
<text text-anchor="middle" x="230" y="-191.5" font-family="Helvetica,sans-Serif" font-size="10.00"> keys</text>
<text text-anchor="middle" x="230" y="-180.5" font-family="Helvetica,sans-Serif" font-size="10.00">elements</text>
</g>
<!-- Node4 -->
<g id="node4" class="node"><title>Node4</title>
<g id="a_node4"><a xlink:title="STL class. ">
<polygon fill="white" stroke="#bfbfbf" points="0,-0.5 0,-30.5 95,-30.5 95,-0.5 0,-0.5"/>
<text text-anchor="start" x="8" y="-18.5" font-family="Helvetica,sans-Serif" font-size="10.00">std::basic_string&lt;</text>
<text text-anchor="middle" x="47.5" y="-7.5" font-family="Helvetica,sans-Serif" font-size="10.00"> char &gt;</text>
</a>
</g>
</g>
<!-- Node4&#45;&gt;Node3 -->
<g id="edge3" class="edge"><title>Node4&#45;&gt;Node3</title>
<path fill="none" stroke="midnightblue" d="M105.526,-15.5C114.678,-15.5 123.803,-15.5 131.931,-15.5"/>
<polygon fill="midnightblue" stroke="midnightblue" points="105.233,-12.0001 95.2328,-15.5 105.233,-19.0001 105.233,-12.0001"/>
</g>
<!-- Node5&#45;&gt;Node1 -->
<g id="edge4" class="edge"><title>Node5&#45;&gt;Node1</title>
<path fill="none" stroke="#9a32cd" stroke-dasharray="5,2" d="M697.963,-103.5C730.132,-103.5 766.249,-103.5 796.773,-103.5"/>
<polygon fill="#9a32cd" stroke="#9a32cd" points="697.669,-100 687.669,-103.5 697.669,-107 697.669,-100"/>
<text text-anchor="middle" x="758.5" y="-106.5" font-family="Helvetica,sans-Serif" font-size="10.00"> http_info</text>
</g>
<!-- Node6 -->
<g id="node6" class="node"><title>Node6</title>
<polygon fill="white" stroke="#bfbfbf" points="297.5,-170 297.5,-189 348.5,-189 348.5,-170 297.5,-170"/>
<text text-anchor="middle" x="323" y="-177" font-family="Helvetica,sans-Serif" font-size="10.00">uint64_t</text>
</g>
<!-- Node6&#45;&gt;Node5 -->
<g id="edge5" class="edge"><title>Node6&#45;&gt;Node5</title>
<path fill="none" stroke="#9a32cd" stroke-dasharray="5,2" d="M358.684,-175.264C399.28,-169.808 463.566,-159.464 484,-146.5 495.259,-139.357 490.638,-129.477 502,-122.5 511.815,-116.473 523.023,-112.233 534.417,-109.273"/>
<polygon fill="#9a32cd" stroke="#9a32cd" points="358.127,-171.807 348.666,-176.577 359.036,-178.748 358.127,-171.807"/>
<text text-anchor="middle" x="440" y="-206.5" font-family="Helvetica,sans-Serif" font-size="10.00"> ratelimit_retry_after</text>
<text text-anchor="middle" x="440" y="-195.5" font-family="Helvetica,sans-Serif" font-size="10.00">ratelimit_remaining</text>
<text text-anchor="middle" x="440" y="-184.5" font-family="Helvetica,sans-Serif" font-size="10.00">ratelimit_reset_after</text>
<text text-anchor="middle" x="440" y="-173.5" font-family="Helvetica,sans-Serif" font-size="10.00">ratelimit_limit</text>
</g>
<!-- Node7 -->
<g id="node7" class="node"><title>Node7</title>
<polygon fill="white" stroke="#bfbfbf" points="297.5,-132 297.5,-151 348.5,-151 348.5,-132 297.5,-132"/>
<text text-anchor="middle" x="323" y="-139" font-family="Helvetica,sans-Serif" font-size="10.00">uint16_t</text>
</g>
<!-- Node7&#45;&gt;Node5 -->
<g id="edge6" class="edge"><title>Node7&#45;&gt;Node5</title>
<path fill="none" stroke="#9a32cd" stroke-dasharray="5,2" d="M358.629,-136.899C403.013,-131.002 481.071,-120.63 538.461,-113.005"/>
<polygon fill="#9a32cd" stroke="#9a32cd" points="358.084,-133.441 348.632,-138.227 359.006,-140.38 358.084,-133.441"/>
<text text-anchor="middle" x="440" y="-134.5" font-family="Helvetica,sans-Serif" font-size="10.00"> status</text>
</g>
<!-- Node8 -->
<g id="node8" class="node"><title>Node8</title>
<polygon fill="white" stroke="#bfbfbf" points="305.5,-94 305.5,-113 340.5,-113 340.5,-94 305.5,-94"/>
<text text-anchor="middle" x="323" y="-101" font-family="Helvetica,sans-Serif" font-size="10.00">bool</text>
</g>
<!-- Node8&#45;&gt;Node5 -->
<g id="edge7" class="edge"><title>Node8&#45;&gt;Node5</title>
<path fill="none" stroke="#9a32cd" stroke-dasharray="5,2" d="M350.736,-103.5C392.229,-103.5 473.65,-103.5 534.23,-103.5"/>
<polygon fill="#9a32cd" stroke="#9a32cd" points="350.613,-100 340.613,-103.5 350.613,-107 350.613,-100"/>
<text text-anchor="middle" x="440" y="-106.5" font-family="Helvetica,sans-Serif" font-size="10.00"> ratelimit_global</text>
</g>
<!-- Node9&#45;&gt;Node5 -->
<g id="edge9" class="edge"><title>Node9&#45;&gt;Node5</title>
<path fill="none" stroke="#9a32cd" stroke-dasharray="5,2" d="M388.691,-243.775C421.111,-245.616 458.74,-241.397 484,-218.5 516.163,-189.346 471.133,-153.023 502,-122.5 510.867,-113.732 522.266,-108.207 534.322,-104.839"/>
<polygon fill="#9a32cd" stroke="#9a32cd" points="388.609,-240.259 378.37,-242.981 388.072,-247.238 388.609,-240.259"/>
<text text-anchor="middle" x="440" y="-246.5" font-family="Helvetica,sans-Serif" font-size="10.00"> headers</text>
</g>
<!-- Node10 -->
<g id="node10" class="node"><title>Node10</title>
<polygon fill="white" stroke="#bfbfbf" points="294,-56 294,-75 352,-75 352,-56 294,-56"/>
<text text-anchor="middle" x="323" y="-63" font-family="Helvetica,sans-Serif" font-size="10.00">http_error</text>
</g>
<!-- Node10&#45;&gt;Node5 -->
<g id="edge11" class="edge"><title>Node10&#45;&gt;Node5</title>
<path fill="none" stroke="#9a32cd" stroke-dasharray="5,2" d="M362.398,-70.6018C407.32,-76.5704 482.642,-86.5783 538.439,-93.9919"/>
<polygon fill="#9a32cd" stroke="#9a32cd" points="362.579,-67.0953 352.205,-69.2476 361.657,-74.0343 362.579,-67.0953"/>
<text text-anchor="middle" x="440" y="-89.5" font-family="Helvetica,sans-Serif" font-size="10.00"> error</text>
</g>
</g>
</svg>
