<?xml version="1.0" encoding="UTF-8" standalone="no"?>
<!DOCTYPE svg PUBLIC "-//W3C//DTD SVG 1.1//EN"
 "http://www.w3.org/Graphics/SVG/1.1/DTD/svg11.dtd">
<!-- Generated by graphviz version 2.38.0 (20140413.2041)
 -->
<!-- Title: dpp::voicestate Pages: 1 -->
<svg width="222pt" height="185pt"
 viewBox="0.00 0.00 222.00 185.00" xmlns="http://www.w3.org/2000/svg" xmlns:xlink="http://www.w3.org/1999/xlink">
<g id="graph0" class="graph" transform="scale(1 1) rotate(0) translate(4 181)">
<title>dpp::voicestate</title>
<polygon fill="white" stroke="none" points="-4,4 -4,-181 218,-181 218,4 -4,4"/>
<!-- Node1 -->
<g id="node1" class="node"><title>Node1</title>
<polygon fill="#bfbfbf" stroke="black" points="54,-0.5 54,-19.5 137,-19.5 137,-0.5 54,-0.5"/>
<text text-anchor="middle" x="95.5" y="-7.5" font-family="Helvetica,sans-Serif" font-size="10.00">dpp::voicestate</text>
</g>
<!-- Node2 -->
<g id="node2" class="node"><title>Node2</title>
<polygon fill="white" stroke="#bfbfbf" points="0,-89.5 0,-108.5 51,-108.5 51,-89.5 0,-89.5"/>
<text text-anchor="middle" x="25.5" y="-96.5" font-family="Helvetica,sans-Serif" font-size="10.00">uint64_t</text>
</g>
<!-- Node2&#45;&gt;Node1 -->
<g id="edge1" class="edge"><title>Node2&#45;&gt;Node1</title>
<path fill="none" stroke="#9a32cd" stroke-dasharray="5,2" d="M27.6707,-79.2261C29.9903,-66.4015 34.7553,-49.6806 44.5,-38 51.3029,-29.8456 61.216,-23.8149 70.4973,-19.5474"/>
<polygon fill="#9a32cd" stroke="#9a32cd" points="24.1861,-78.8666 26.1981,-89.2686 31.112,-79.8823 24.1861,-78.8666"/>
<text text-anchor="middle" x="68" y="-63" font-family="Helvetica,sans-Serif" font-size="10.00"> user_id</text>
<text text-anchor="middle" x="68" y="-52" font-family="Helvetica,sans-Serif" font-size="10.00">guild_id</text>
<text text-anchor="middle" x="68" y="-41" font-family="Helvetica,sans-Serif" font-size="10.00">channel_id</text>
</g>
<!-- Node3 -->
<g id="node3" class="node"><title>Node3</title>
<polygon fill="white" stroke="#bfbfbf" points="72.5,-89.5 72.5,-108.5 118.5,-108.5 118.5,-89.5 72.5,-89.5"/>
<text text-anchor="middle" x="95.5" y="-96.5" font-family="Helvetica,sans-Serif" font-size="10.00">uint8_t</text>
</g>
<!-- Node3&#45;&gt;Node1 -->
<g id="edge2" class="edge"><title>Node3&#45;&gt;Node1</title>
<path fill="none" stroke="#9a32cd" stroke-dasharray="5,2" d="M95.5,-79.1946C95.5,-60.7379 95.5,-33.412 95.5,-19.6249"/>
<polygon fill="#9a32cd" stroke="#9a32cd" points="92.0001,-79.34 95.5,-89.34 99.0001,-79.3401 92.0001,-79.34"/>
<text text-anchor="middle" x="108" y="-52" font-family="Helvetica,sans-Serif" font-size="10.00"> flags</text>
</g>
<!-- Node4 -->
<g id="node4" class="node"><title>Node4</title>
<g id="a_node4"><a xlink:title="STL class. ">
<polygon fill="white" stroke="#bfbfbf" points="136.5,-89.5 136.5,-108.5 196.5,-108.5 196.5,-89.5 136.5,-89.5"/>
<text text-anchor="middle" x="166.5" y="-96.5" font-family="Helvetica,sans-Serif" font-size="10.00">std::string</text>
</a>
</g>
</g>
<!-- Node4&#45;&gt;Node1 -->
<g id="edge3" class="edge"><title>Node4&#45;&gt;Node1</title>
<path fill="none" stroke="#9a32cd" stroke-dasharray="5,2" d="M155.955,-80.9656C147.951,-68.5562 136.337,-51.6078 124.5,-38 118.721,-31.3565 111.471,-24.6065 105.666,-19.5174"/>
<polygon fill="#9a32cd" stroke="#9a32cd" points="153.012,-82.8602 161.316,-89.4399 158.927,-79.1178 153.012,-82.8602"/>
<text text-anchor="middle" x="173.5" y="-52" font-family="Helvetica,sans-Serif" font-size="10.00"> session_id</text>
</g>
<!-- Node5 -->
<g id="node5" class="node"><title>Node5</title>
<g id="a_node5"><a xlink:title="STL class. ">
<polygon fill="white" stroke="#bfbfbf" points="119,-146.5 119,-176.5 214,-176.5 214,-146.5 119,-146.5"/>
<text text-anchor="start" x="127" y="-164.5" font-family="Helvetica,sans-Serif" font-size="10.00">std::basic_string&lt;</text>
<text text-anchor="middle" x="166.5" y="-153.5" font-family="Helvetica,sans-Serif" font-size="10.00"> char &gt;</text>
</a>
</g>
</g>
<!-- Node5&#45;&gt;Node4 -->
<g id="edge4" class="edge"><title>Node5&#45;&gt;Node4</title>
<path fill="none" stroke="midnightblue" d="M166.5,-136.352C166.5,-126.513 166.5,-115.775 166.5,-108.54"/>
<polygon fill="midnightblue" stroke="midnightblue" points="163,-136.468 166.5,-146.468 170,-136.468 163,-136.468"/>
</g>
</g>
</svg>
