<?xml version="1.0" encoding="UTF-8" standalone="no"?>
<!DOCTYPE svg PUBLIC "-//W3C//DTD SVG 1.1//EN"
 "http://www.w3.org/Graphics/SVG/1.1/DTD/svg11.dtd">
<!-- Generated by graphviz version 2.43.0 (0)
 -->
<!-- Title: dpp::component Pages: 1 -->
<!--zoomable 723 -->
<svg id="main" version="1.1" xmlns="http://www.w3.org/2000/svg" xmlns:xlink="http://www.w3.org/1999/xlink" xml:space="preserve" onload="init(evt)">
<style type="text/css"><![CDATA[
.edge:hover path { stroke: red; }
.edge:hover polygon { stroke: red; fill: red; }
]]></style>
<script type="text/javascript"><![CDATA[
var edges = document.getElementsByTagName('g');
if (edges && edges.length) {
  for (var i=0;i<edges.length;i++) {
    if (edges[i].id.substr(0,4)=='edge') {
      edges[i].setAttribute('class','edge');
    }
  }
}
]]></script>
        <defs>
                <circle id="rim" cx="0" cy="0" r="7"/>
                <circle id="rim2" cx="0" cy="0" r="3.5"/>
                <g id="zoomPlus">
                        <use xlink:href="#rim" fill="#404040">
                                <set attributeName="fill" to="#808080" begin="zoomplus.mouseover" end="zoomplus.mouseout"/>
                        </use>
                        <path d="M-4,0h8M0,-4v8" fill="none" stroke="white" stroke-width="1.5" pointer-events="none"/>
                </g>
                <g id="zoomMin">
                        <use xlink:href="#rim" fill="#404040">
                                <set attributeName="fill" to="#808080" begin="zoomminus.mouseover" end="zoomminus.mouseout"/>
                        </use>
                        <path d="M-4,0h8" fill="none" stroke="white" stroke-width="1.5" pointer-events="none"/>
                </g>
                <g id="dirArrow">
                        <path fill="none" stroke="white" stroke-width="1.5" d="M0,-3.0v7 M-2.5,-0.5L0,-3.0L2.5,-0.5"/>
                </g>
               <g id="resetDef">
                       <use xlink:href="#rim2" fill="#404040">
                               <set attributeName="fill" to="#808080" begin="reset.mouseover" end="reset.mouseout"/>
                       </use>
               </g>
        </defs>

<script type="text/javascript">
var viewWidth = 778;
var viewHeight = 723;
var sectionId = 'dynsection-1';
</script>
<script xlink:href="svgpan.js"/>
<svg id="graph" class="graph">
<g id="viewport">
<title>dpp::component</title>
<!-- Node1 -->
<g id="node1" class="node">
<title>Node1</title>
<g id="a_node1"><a xlink:title="Represents the component object. A component is a clickable button or drop down list within a discord...">
<polygon fill="#bfbfbf" stroke="black" points="675,-318.04 675,-337.04 770,-337.04 770,-318.04 675,-318.04"/>
<text text-anchor="middle" x="722.5" y="-325.04" font-family="Helvetica,sans-Serif" font-size="10.00">dpp::component</text>
</a>
</g>
</g>
<!-- Node2 -->
<g id="node2" class="node">
<title>Node2</title>
<g id="a_node2"><a xlink:href="structdpp_1_1json__interface.html" target="_top" xlink:title=" ">
<polygon fill="none" stroke="black" points="426,-684.54 426,-714.54 536,-714.54 536,-684.54 426,-684.54"/>
<text text-anchor="start" x="434" y="-702.54" font-family="Helvetica,sans-Serif" font-size="10.00">dpp::json_interface</text>
<text text-anchor="middle" x="481" y="-691.54" font-family="Helvetica,sans-Serif" font-size="10.00">&lt; component &gt;</text>
</a>
</g>
</g>
<!-- Node2&#45;&gt;Node1 -->
<g id="edge1" class="edge">
<title>Node2&#45;&gt;Node1</title>
<path fill="none" stroke="midnightblue" d="M546.24,-708.23C583.26,-709.49 628.05,-704.02 657,-676.54 708.06,-628.07 719.36,-388.08 721.19,-337.08"/>
<polygon fill="midnightblue" stroke="midnightblue" points="546.18,-704.72 536.02,-707.71 545.83,-711.72 546.18,-704.72"/>
</g>
<!-- Node3 -->
<g id="node3" class="node">
<title>Node3</title>
<g id="a_node3"><a xlink:href="structdpp_1_1json__interface.html" target="_top" xlink:title="Represents an interface for an object that can optionally implement functions for converting to and f...">
<polygon fill="none" stroke="black" points="171,-690.04 171,-709.04 309,-709.04 309,-690.04 171,-690.04"/>
<text text-anchor="middle" x="240" y="-697.04" font-family="Helvetica,sans-Serif" font-size="10.00">dpp::json_interface&lt; T &gt;</text>
</a>
</g>
</g>
<!-- Node3&#45;&gt;Node2 -->
<g id="edge2" class="edge">
<title>Node3&#45;&gt;Node2</title>
<path fill="none" stroke="orange" stroke-dasharray="5,2" d="M319.32,-699.54C354.16,-699.54 394.32,-699.54 425.78,-699.54"/>
<polygon fill="orange" stroke="orange" points="319.17,-696.04 309.17,-699.54 319.17,-703.04 319.17,-696.04"/>
<text text-anchor="middle" x="367.5" y="-702.54" font-family="Helvetica,sans-Serif" font-size="10.00"> &lt; component &gt;</text>
</g>
<!-- Node4 -->
<g id="node4" class="node">
<title>Node4</title>
<g id="a_node4"><a xlink:title=" ">
<polygon fill="none" stroke="#bfbfbf" points="432,-646.04 432,-665.04 530,-665.04 530,-646.04 432,-646.04"/>
<text text-anchor="middle" x="481" y="-653.04" font-family="Helvetica,sans-Serif" font-size="10.00">component_type</text>
</a>
</g>
</g>
<!-- Node4&#45;&gt;Node1 -->
<g id="edge3" class="edge">
<title>Node4&#45;&gt;Node1</title>
<path fill="none" stroke="#9a32cd" stroke-dasharray="5,2" d="M540.63,-663.36C578.52,-664.98 626.31,-660.07 657,-631.54 701.75,-589.93 717.8,-383.97 720.91,-337.06"/>
<polygon fill="#9a32cd" stroke="#9a32cd" points="540.42,-659.84 530.23,-662.74 540,-666.83 540.42,-659.84"/>
<text text-anchor="middle" x="605.5" y="-666.54" font-family="Helvetica,sans-Serif" font-size="10.00"> type</text>
</g>
<!-- Node5 -->
<g id="node5" class="node">
<title>Node5</title>
<g id="a_node5"><a xlink:title=" ">
<polygon fill="none" stroke="#bfbfbf" points="453,-608.04 453,-627.04 509,-627.04 509,-608.04 453,-608.04"/>
<text text-anchor="middle" x="481" y="-615.04" font-family="Helvetica,sans-Serif" font-size="10.00">uint32_t</text>
</a>
</g>
</g>
<!-- Node5&#45;&gt;Node1 -->
<g id="edge4" class="edge">
<title>Node5&#45;&gt;Node1</title>
<path fill="none" stroke="#9a32cd" stroke-dasharray="5,2" d="M519.37,-617.89C564.63,-617.52 637.28,-614.09 657,-596.54 697.26,-560.69 716.51,-380.84 720.64,-337.13"/>
<polygon fill="#9a32cd" stroke="#9a32cd" points="519.32,-614.39 509.33,-617.93 519.34,-621.39 519.32,-614.39"/>
<text text-anchor="middle" x="605.5" y="-619.54" font-family="Helvetica,sans-Serif" font-size="10.00"> component_id</text>
</g>
<!-- Node6 -->
<g id="node6" class="node">
<title>Node6</title>
<g id="a_node6"><a xlink:title=" ">
<polygon fill="none" stroke="#bfbfbf" points="453,-570.04 453,-589.04 509,-589.04 509,-570.04 453,-570.04"/>
<text text-anchor="middle" x="481" y="-577.04" font-family="Helvetica,sans-Serif" font-size="10.00">vector&lt;</text>
</a>
</g>
</g>
<!-- Node6&#45;&gt;Node1 -->
<g id="edge5" class="edge">
<title>Node6&#45;&gt;Node1</title>
<path fill="none" stroke="#9a32cd" stroke-dasharray="5,2" d="M518.47,-567.5C524.81,-564.29 530.97,-560.35 536,-555.54 548.93,-543.18 539.91,-530.55 554,-519.54 590.96,-490.65 621.52,-527.22 657,-496.54 707.12,-453.2 718.44,-366.49 720.87,-337.35"/>
<polygon fill="#9a32cd" stroke="#9a32cd" points="516.87,-564.38 509.18,-571.67 519.73,-570.77 516.87,-564.38"/>
<text text-anchor="middle" x="605.5" y="-588.54" font-family="Helvetica,sans-Serif" font-size="10.00"> channel_types</text>
<text text-anchor="middle" x="605.5" y="-577.54" font-family="Helvetica,sans-Serif" font-size="10.00">components</text>
<text text-anchor="middle" x="605.5" y="-566.54" font-family="Helvetica,sans-Serif" font-size="10.00">default_values</text>
<text text-anchor="middle" x="605.5" y="-555.54" font-family="Helvetica,sans-Serif" font-size="10.00">file_types</text>
<text text-anchor="middle" x="605.5" y="-544.54" font-family="Helvetica,sans-Serif" font-size="10.00">media_gallery_items</text>
<text text-anchor="middle" x="605.5" y="-533.54" font-family="Helvetica,sans-Serif" font-size="10.00">options</text>
<text text-anchor="middle" x="605.5" y="-522.54" font-family="Helvetica,sans-Serif" font-size="10.00">values</text>
</g>
<!-- Node7 -->
<g id="node7" class="node">
<title>Node7</title>
<g id="a_node7"><a xlink:title=" ">
<polygon fill="none" stroke="#bfbfbf" points="207.5,-436.04 207.5,-455.04 272.5,-455.04 272.5,-436.04 207.5,-436.04"/>
<text text-anchor="middle" x="240" y="-443.04" font-family="Helvetica,sans-Serif" font-size="10.00">std::string</text>
</a>
</g>
</g>
<!-- Node7&#45;&gt;Node1 -->
<g id="edge6" class="edge">
<title>Node7&#45;&gt;Node1</title>
<path fill="none" stroke="#9a32cd" stroke-dasharray="5,2" d="M278.99,-458.15C357.34,-481.63 539.38,-522.86 657,-443.54 695.59,-417.51 713.44,-360.33 719.25,-337.37"/>
<polygon fill="#9a32cd" stroke="#9a32cd" points="279.66,-454.69 269.07,-455.1 277.61,-461.39 279.66,-454.69"/>
<text text-anchor="middle" x="481" y="-547.54" font-family="Helvetica,sans-Serif" font-size="10.00"> content</text>
<text text-anchor="middle" x="481" y="-536.54" font-family="Helvetica,sans-Serif" font-size="10.00">custom_id</text>
<text text-anchor="middle" x="481" y="-525.54" font-family="Helvetica,sans-Serif" font-size="10.00">description</text>
<text text-anchor="middle" x="481" y="-514.54" font-family="Helvetica,sans-Serif" font-size="10.00">label</text>
<text text-anchor="middle" x="481" y="-503.54" font-family="Helvetica,sans-Serif" font-size="10.00">placeholder</text>
<text text-anchor="middle" x="481" y="-492.54" font-family="Helvetica,sans-Serif" font-size="10.00">url</text>
</g>
<!-- Node16 -->
<g id="node16" class="node">
<title>Node16</title>
<g id="a_node16"><a xlink:href="structdpp_1_1partial__emoji.html" target="_top" xlink:title="An emoji reference for a component (select menus included) or a poll.">
<polygon fill="none" stroke="black" points="428.5,-225.04 428.5,-244.04 533.5,-244.04 533.5,-225.04 428.5,-225.04"/>
<text text-anchor="middle" x="481" y="-232.04" font-family="Helvetica,sans-Serif" font-size="10.00">dpp::partial_emoji</text>
</a>
</g>
</g>
<!-- Node7&#45;&gt;Node16 -->
<g id="edge16" class="edge">
<title>Node7&#45;&gt;Node16</title>
<path fill="none" stroke="#9a32cd" stroke-dasharray="5,2" d="M262.55,-429.56C296.78,-403.33 364.19,-348.19 408,-289.54 418.71,-275.21 412.58,-265.37 426,-253.54 430.4,-249.66 435.64,-246.56 441.1,-244.08"/>
<polygon fill="#9a32cd" stroke="#9a32cd" points="260.06,-427.05 254.2,-435.88 264.29,-432.63 260.06,-427.05"/>
<text text-anchor="middle" x="367.5" y="-378.54" font-family="Helvetica,sans-Serif" font-size="10.00"> name</text>
</g>
<!-- Node8 -->
<g id="node8" class="node">
<title>Node8</title>
<g id="a_node8"><a xlink:title=" ">
<polygon fill="none" stroke="#bfbfbf" points="0,-430.54 0,-460.54 104,-460.54 104,-430.54 0,-430.54"/>
<text text-anchor="start" x="8" y="-448.54" font-family="Helvetica,sans-Serif" font-size="10.00">std::basic_string&lt;</text>
<text text-anchor="middle" x="52" y="-437.54" font-family="Helvetica,sans-Serif" font-size="10.00"> Char &gt;</text>
</a>
</g>
</g>
<!-- Node8&#45;&gt;Node7 -->
<g id="edge7" class="edge">
<title>Node8&#45;&gt;Node7</title>
<path fill="none" stroke="midnightblue" d="M114.63,-445.54C145.69,-445.54 182.04,-445.54 207.39,-445.54"/>
<polygon fill="midnightblue" stroke="midnightblue" points="114.32,-442.04 104.32,-445.54 114.32,-449.04 114.32,-442.04"/>
</g>
<!-- Node9 -->
<g id="node9" class="node">
<title>Node9</title>
<g id="a_node9"><a xlink:title=" ">
<polygon fill="none" stroke="#bfbfbf" points="430.5,-430.04 430.5,-449.04 531.5,-449.04 531.5,-430.04 430.5,-430.04"/>
<text text-anchor="middle" x="481" y="-437.04" font-family="Helvetica,sans-Serif" font-size="10.00">component_style</text>
</a>
</g>
</g>
<!-- Node9&#45;&gt;Node1 -->
<g id="edge8" class="edge">
<title>Node9&#45;&gt;Node1</title>
<path fill="none" stroke="#9a32cd" stroke-dasharray="5,2" d="M541.99,-431.46C577.26,-424.81 621.71,-413.02 657,-392.54 682.03,-378.01 704.07,-351.29 714.72,-337.05"/>
<polygon fill="#9a32cd" stroke="#9a32cd" points="541.06,-428.07 531.83,-433.28 542.29,-434.96 541.06,-428.07"/>
<text text-anchor="middle" x="605.5" y="-431.54" font-family="Helvetica,sans-Serif" font-size="10.00"> style</text>
</g>
<!-- Node10 -->
<g id="node10" class="node">
<title>Node10</title>
<g id="a_node10"><a xlink:title=" ">
<polygon fill="none" stroke="#bfbfbf" points="435,-392.04 435,-411.04 527,-411.04 527,-392.04 435,-392.04"/>
<text text-anchor="middle" x="481" y="-399.04" font-family="Helvetica,sans-Serif" font-size="10.00">text_style_type</text>
</a>
</g>
</g>
<!-- Node10&#45;&gt;Node1 -->
<g id="edge9" class="edge">
<title>Node10&#45;&gt;Node1</title>
<path fill="none" stroke="#9a32cd" stroke-dasharray="5,2" d="M522.46,-389.04C569.89,-374.38 647.46,-350.41 690.42,-337.14"/>
<polygon fill="#9a32cd" stroke="#9a32cd" points="521.34,-385.72 512.82,-392.01 523.41,-392.41 521.34,-385.72"/>
<text text-anchor="middle" x="605.5" y="-380.54" font-family="Helvetica,sans-Serif" font-size="10.00"> text_style</text>
</g>
<!-- Node11 -->
<g id="node11" class="node">
<title>Node11</title>
<g id="a_node11"><a xlink:href="classdpp_1_1snowflake.html" target="_top" xlink:title="A container for a 64 bit unsigned value representing many things on discord. This value is known in d...">
<polygon fill="none" stroke="black" points="195.5,-168.04 195.5,-187.04 284.5,-187.04 284.5,-168.04 195.5,-168.04"/>
<text text-anchor="middle" x="240" y="-175.04" font-family="Helvetica,sans-Serif" font-size="10.00">dpp::snowflake</text>
</a>
</g>
</g>
<!-- Node11&#45;&gt;Node1 -->
<g id="edge10" class="edge">
<title>Node11&#45;&gt;Node1</title>
<path fill="none" stroke="#9a32cd" stroke-dasharray="5,2" d="M294.88,-170.49C394.23,-158.69 601.22,-140.09 657,-181.54 703.26,-215.92 716.93,-290.81 720.43,-317.69"/>
<polygon fill="#9a32cd" stroke="#9a32cd" points="294.26,-167.04 284.75,-171.71 295.1,-173.99 294.26,-167.04"/>
<text text-anchor="middle" x="481" y="-160.54" font-family="Helvetica,sans-Serif" font-size="10.00"> sku_id</text>
</g>
<!-- Node11&#45;&gt;Node16 -->
<g id="edge17" class="edge">
<title>Node11&#45;&gt;Node16</title>
<path fill="none" stroke="#9a32cd" stroke-dasharray="5,2" d="M290.96,-189.45C335.18,-200 398.89,-215.19 439.87,-224.97"/>
<polygon fill="#9a32cd" stroke="#9a32cd" points="291.54,-185.99 281,-187.08 289.92,-192.8 291.54,-185.99"/>
<text text-anchor="middle" x="367.5" y="-218.54" font-family="Helvetica,sans-Serif" font-size="10.00"> id</text>
</g>
<!-- Node12 -->
<g id="node12" class="node">
<title>Node12</title>
<g id="a_node12"><a xlink:title=" ">
<polygon fill="none" stroke="#bfbfbf" points="24,-168.04 24,-187.04 80,-187.04 80,-168.04 24,-168.04"/>
<text text-anchor="middle" x="52" y="-175.04" font-family="Helvetica,sans-Serif" font-size="10.00">uint64_t</text>
</a>
</g>
</g>
<!-- Node12&#45;&gt;Node11 -->
<g id="edge11" class="edge">
<title>Node12&#45;&gt;Node11</title>
<path fill="none" stroke="#9a32cd" stroke-dasharray="5,2" d="M90.21,-177.54C120.54,-177.54 163.42,-177.54 195.36,-177.54"/>
<polygon fill="#9a32cd" stroke="#9a32cd" points="90.05,-174.04 80.05,-177.54 90.05,-181.04 90.05,-174.04"/>
<text text-anchor="middle" x="137.5" y="-180.54" font-family="Helvetica,sans-Serif" font-size="10.00"> value</text>
</g>
<!-- Node13 -->
<g id="node13" class="node">
<title>Node13</title>
<g id="a_node13"><a xlink:title=" ">
<polygon fill="none" stroke="#bfbfbf" points="456,-263.04 456,-282.04 506,-282.04 506,-263.04 456,-263.04"/>
<text text-anchor="middle" x="481" y="-270.04" font-family="Helvetica,sans-Serif" font-size="10.00">int32_t</text>
</a>
</g>
</g>
<!-- Node13&#45;&gt;Node1 -->
<g id="edge12" class="edge">
<title>Node13&#45;&gt;Node1</title>
<path fill="none" stroke="#9a32cd" stroke-dasharray="5,2" d="M516.25,-264.61C552.51,-257.86 610.78,-251.81 657,-269.54 682.31,-279.24 703.92,-303.97 714.51,-317.8"/>
<polygon fill="#9a32cd" stroke="#9a32cd" points="515.32,-261.22 506.19,-266.6 516.68,-268.09 515.32,-261.22"/>
<text text-anchor="middle" x="605.5" y="-305.54" font-family="Helvetica,sans-Serif" font-size="10.00"> max_length</text>
<text text-anchor="middle" x="605.5" y="-294.54" font-family="Helvetica,sans-Serif" font-size="10.00">max_values</text>
<text text-anchor="middle" x="605.5" y="-283.54" font-family="Helvetica,sans-Serif" font-size="10.00">min_length</text>
<text text-anchor="middle" x="605.5" y="-272.54" font-family="Helvetica,sans-Serif" font-size="10.00">min_values</text>
</g>
<!-- Node14 -->
<g id="node14" class="node">
<title>Node14</title>
<g id="a_node14"><a xlink:title=" ">
<polygon fill="none" stroke="#bfbfbf" points="221,-290.04 221,-309.04 259,-309.04 259,-290.04 221,-290.04"/>
<text text-anchor="middle" x="240" y="-297.04" font-family="Helvetica,sans-Serif" font-size="10.00">bool</text>
</a>
</g>
</g>
<!-- Node14&#45;&gt;Node1 -->
<g id="edge13" class="edge">
<title>Node14&#45;&gt;Node1</title>
<path fill="none" stroke="#9a32cd" stroke-dasharray="5,2" d="M269.52,-301.2C349.42,-305.86 576.02,-319.06 674.66,-324.81"/>
<polygon fill="#9a32cd" stroke="#9a32cd" points="269.44,-297.69 259.25,-300.6 269.03,-304.68 269.44,-297.69"/>
<text text-anchor="middle" x="481" y="-362.54" font-family="Helvetica,sans-Serif" font-size="10.00"> disabled</text>
<text text-anchor="middle" x="481" y="-351.54" font-family="Helvetica,sans-Serif" font-size="10.00">is_default</text>
<text text-anchor="middle" x="481" y="-340.54" font-family="Helvetica,sans-Serif" font-size="10.00">is_divider</text>
<text text-anchor="middle" x="481" y="-329.54" font-family="Helvetica,sans-Serif" font-size="10.00">required</text>
<text text-anchor="middle" x="481" y="-318.54" font-family="Helvetica,sans-Serif" font-size="10.00">spoiler</text>
</g>
<!-- Node14&#45;&gt;Node16 -->
<g id="edge18" class="edge">
<title>Node14&#45;&gt;Node16</title>
<path fill="none" stroke="#9a32cd" stroke-dasharray="5,2" d="M269.05,-291.91C312.8,-280.01 397.18,-257.06 444.9,-244.08"/>
<polygon fill="#9a32cd" stroke="#9a32cd" points="268.09,-288.54 259.36,-294.54 269.93,-295.3 268.09,-288.54"/>
<text text-anchor="middle" x="367.5" y="-277.54" font-family="Helvetica,sans-Serif" font-size="10.00"> animated</text>
</g>
<!-- Node15 -->
<g id="node15" class="node">
<title>Node15</title>
<g id="a_node15"><a xlink:title=" ">
<polygon fill="none" stroke="#bfbfbf" points="451.5,-187.04 451.5,-206.04 510.5,-206.04 510.5,-187.04 451.5,-187.04"/>
<text text-anchor="middle" x="481" y="-194.04" font-family="Helvetica,sans-Serif" font-size="10.00">variant&lt;</text>
</a>
</g>
</g>
<!-- Node15&#45;&gt;Node1 -->
<g id="edge14" class="edge">
<title>Node15&#45;&gt;Node1</title>
<path fill="none" stroke="#9a32cd" stroke-dasharray="5,2" d="M520.76,-189.13C558.59,-184.07 616.26,-182.35 657,-208.54 697.33,-234.46 714.34,-294.63 719.59,-318.01"/>
<polygon fill="#9a32cd" stroke="#9a32cd" points="520.02,-185.7 510.64,-190.62 521.05,-192.62 520.02,-185.7"/>
<text text-anchor="middle" x="605.5" y="-211.54" font-family="Helvetica,sans-Serif" font-size="10.00"> value</text>
</g>
<!-- Node16&#45;&gt;Node1 -->
<g id="edge15" class="edge">
<title>Node16&#45;&gt;Node1</title>
<path fill="none" stroke="#9a32cd" stroke-dasharray="5,2" d="M543.75,-224.95C578.87,-222.44 622.57,-224.45 657,-242.54 688.82,-259.25 709.45,-299.45 717.58,-317.94"/>
<polygon fill="#9a32cd" stroke="#9a32cd" points="543.29,-221.48 533.62,-225.82 543.88,-228.45 543.29,-221.48"/>
<text text-anchor="middle" x="605.5" y="-245.54" font-family="Helvetica,sans-Serif" font-size="10.00"> emoji</text>
</g>
<!-- Node17 -->
<g id="node17" class="node">
<title>Node17</title>
<g id="a_node17"><a xlink:title=" ">
<polygon fill="none" stroke="#bfbfbf" points="442.5,-102.04 442.5,-121.04 519.5,-121.04 519.5,-102.04 442.5,-102.04"/>
<text text-anchor="middle" x="481" y="-109.04" font-family="Helvetica,sans-Serif" font-size="10.00">shared_ptr&lt;</text>
</a>
</g>
</g>
<!-- Node17&#45;&gt;Node1 -->
<g id="edge19" class="edge">
<title>Node17&#45;&gt;Node1</title>
<path fill="none" stroke="#9a32cd" stroke-dasharray="5,2" d="M530.02,-104.32C568.54,-101.31 621.81,-103.77 657,-132.54 716.35,-181.06 721.51,-285.62 721.63,-317.87"/>
<polygon fill="#9a32cd" stroke="#9a32cd" points="529.21,-100.88 519.58,-105.3 529.86,-107.85 529.21,-100.88"/>
<text text-anchor="middle" x="605.5" y="-135.54" font-family="Helvetica,sans-Serif" font-size="10.00"> accessory</text>
</g>
<!-- Node18 -->
<g id="node18" class="node">
<title>Node18</title>
<g id="a_node18"><a xlink:title=" ">
<polygon fill="none" stroke="#bfbfbf" points="428,-64.04 428,-83.04 534,-83.04 534,-64.04 428,-64.04"/>
<text text-anchor="middle" x="481" y="-71.04" font-family="Helvetica,sans-Serif" font-size="10.00">separator_spacing</text>
</a>
</g>
</g>
<!-- Node18&#45;&gt;Node1 -->
<g id="edge20" class="edge">
<title>Node18&#45;&gt;Node1</title>
<path fill="none" stroke="#9a32cd" stroke-dasharray="5,2" d="M537.15,-62.73C575.04,-58.62 624.24,-60.27 657,-87.54 693.9,-118.24 715.38,-276.87 720.37,-317.86"/>
<polygon fill="#9a32cd" stroke="#9a32cd" points="536.27,-59.31 526.78,-64.03 537.14,-66.26 536.27,-59.31"/>
<text text-anchor="middle" x="605.5" y="-90.54" font-family="Helvetica,sans-Serif" font-size="10.00"> spacing</text>
</g>
<!-- Node19 -->
<g id="node19" class="node">
<title>Node19</title>
<g id="a_node19"><a xlink:title=" ">
<polygon fill="none" stroke="#bfbfbf" points="448.5,-10.04 448.5,-29.04 513.5,-29.04 513.5,-10.04 448.5,-10.04"/>
<text text-anchor="middle" x="481" y="-17.04" font-family="Helvetica,sans-Serif" font-size="10.00">optional&lt;</text>
</a>
</g>
</g>
<!-- Node19&#45;&gt;Node1 -->
<g id="edge21" class="edge">
<title>Node19&#45;&gt;Node1</title>
<path fill="none" stroke="#9a32cd" stroke-dasharray="5,2" d="M522.12,-7.59C561.11,1.36 619.74,7.36 657,-23.54 704.04,-62.54 718.33,-270.5 721,-317.91"/>
<polygon fill="#9a32cd" stroke="#9a32cd" points="521.04,-4.25 512.16,-10.03 522.71,-11.04 521.04,-4.25"/>
<text text-anchor="middle" x="605.5" y="-48.54" font-family="Helvetica,sans-Serif" font-size="10.00"> accent</text>
<text text-anchor="middle" x="605.5" y="-37.54" font-family="Helvetica,sans-Serif" font-size="10.00">file</text>
<text text-anchor="middle" x="605.5" y="-26.54" font-family="Helvetica,sans-Serif" font-size="10.00">thumbnail</text>
</g>
</g>
</svg>
        <g id="navigator" transform="translate(0 0)" fill="#404254">
                <rect fill="#f2f5e9" fill-opacity="0.5" stroke="#606060" stroke-width=".5" x="0" y="0" width="60" height="60"/>
                <use id="zoomplus" xlink:href="#zoomPlus" x="17" y="9" onmousedown="handleZoom(evt,'in')"/>
                <use id="zoomminus" xlink:href="#zoomMin" x="42" y="9" onmousedown="handleZoom(evt,'out')"/>
                <use id="reset" xlink:href="#resetDef" x="30" y="36" onmousedown="handleReset()"/>
                <g id="arrowUp" xlink:href="#dirArrow" transform="translate(30 24)" onmousedown="handlePan(0,-1)">
                  <use xlink:href="#rim" fill="#404040">
                        <set attributeName="fill" to="#808080" begin="arrowUp.mouseover" end="arrowUp.mouseout"/>
                  </use>
                  <path fill="none" stroke="white" stroke-width="1.5" d="M0,-3.0v7 M-2.5,-0.5L0,-3.0L2.5,-0.5"/>
                </g>
                <g id="arrowRight" xlink:href="#dirArrow" transform="rotate(90) translate(36 -43)" onmousedown="handlePan(1,0)">
                  <use xlink:href="#rim" fill="#404040">
                        <set attributeName="fill" to="#808080" begin="arrowRight.mouseover" end="arrowRight.mouseout"/>
                  </use>
                  <path fill="none" stroke="white" stroke-width="1.5" d="M0,-3.0v7 M-2.5,-0.5L0,-3.0L2.5,-0.5"/>
                </g>
                <g id="arrowDown" xlink:href="#dirArrow" transform="rotate(180) translate(-30 -48)" onmousedown="handlePan(0,1)">
                  <use xlink:href="#rim" fill="#404040">
                        <set attributeName="fill" to="#808080" begin="arrowDown.mouseover" end="arrowDown.mouseout"/>
                  </use>
                  <path fill="none" stroke="white" stroke-width="1.5" d="M0,-3.0v7 M-2.5,-0.5L0,-3.0L2.5,-0.5"/>
                </g>
                <g id="arrowLeft" xlink:href="#dirArrow" transform="rotate(270) translate(-36 17)" onmousedown="handlePan(-1,0)">
                  <use xlink:href="#rim" fill="#404040">
                        <set attributeName="fill" to="#808080" begin="arrowLeft.mouseover" end="arrowLeft.mouseout"/>
                  </use>
                  <path fill="none" stroke="white" stroke-width="1.5" d="M0,-3.0v7 M-2.5,-0.5L0,-3.0L2.5,-0.5"/>
                </g>
        </g>
        <svg viewBox="0 0 15 15" width="100%" height="30px" preserveAspectRatio="xMaxYMin meet">
         <g id="arrow_out" transform="scale(0.3 0.3)">
          <a xlink:href="classdpp_1_1component__coll__graph_org.svg" target="_base">
           <rect id="button" ry="5" rx="5" y="6" x="6" height="38" width="38"
                fill="#f2f5e9" fill-opacity="0.5" stroke="#606060" stroke-width="1.0"/>
           <path id="arrow"
             d="M 11.500037,31.436501 C 11.940474,20.09759 22.043105,11.32322 32.158766,21.979434 L 37.068811,17.246167 C 37.068811,17.246167 37.088388,32 37.088388,32 L 22.160133,31.978069 C 22.160133,31.978069 26.997745,27.140456 26.997745,27.140456 C 18.528582,18.264221 13.291696,25.230495 11.500037,31.436501 z"
             style="fill:#404040;"/>
          </a>
         </g>
        </svg>
</svg>
