<?xml version="1.0" encoding="UTF-8" standalone="no"?>
<!DOCTYPE svg PUBLIC "-//W3C//DTD SVG 1.1//EN"
 "http://www.w3.org/Graphics/SVG/1.1/DTD/svg11.dtd">
<!-- Generated by graphviz version 2.43.0 (0)
 -->
<!-- Title: dpp::request_queue Pages: 1 -->
<!--zoomable 668 -->
<svg id="main" version="1.1" xmlns="http://www.w3.org/2000/svg" xmlns:xlink="http://www.w3.org/1999/xlink" xml:space="preserve" onload="init(evt)">
<style type="text/css"><![CDATA[
.edge:hover path { stroke: red; }
.edge:hover polygon { stroke: red; fill: red; }
]]></style>
<script type="text/javascript"><![CDATA[
var edges = document.getElementsByTagName('g');
if (edges && edges.length) {
  for (var i=0;i<edges.length;i++) {
    if (edges[i].id.substr(0,4)=='edge') {
      edges[i].setAttribute('class','edge');
    }
  }
}
]]></script>
        <defs>
                <circle id="rim" cx="0" cy="0" r="7"/>
                <circle id="rim2" cx="0" cy="0" r="3.5"/>
                <g id="zoomPlus">
                        <use xlink:href="#rim" fill="#404040">
                                <set attributeName="fill" to="#808080" begin="zoomplus.mouseover" end="zoomplus.mouseout"/>
                        </use>
                        <path d="M-4,0h8M0,-4v8" fill="none" stroke="white" stroke-width="1.5" pointer-events="none"/>
                </g>
                <g id="zoomMin">
                        <use xlink:href="#rim" fill="#404040">
                                <set attributeName="fill" to="#808080" begin="zoomminus.mouseover" end="zoomminus.mouseout"/>
                        </use>
                        <path d="M-4,0h8" fill="none" stroke="white" stroke-width="1.5" pointer-events="none"/>
                </g>
                <g id="dirArrow">
                        <path fill="none" stroke="white" stroke-width="1.5" d="M0,-3.0v7 M-2.5,-0.5L0,-3.0L2.5,-0.5"/>
                </g>
               <g id="resetDef">
                       <use xlink:href="#rim2" fill="#404040">
                               <set attributeName="fill" to="#808080" begin="reset.mouseover" end="reset.mouseout"/>
                       </use>
               </g>
        </defs>

<script type="text/javascript">
var viewWidth = 1300;
var viewHeight = 668;
var sectionId = 'dynsection-0';
</script>
<script xlink:href="svgpan.js"/>
<svg id="graph" class="graph">
<g id="viewport">
<title>dpp::request_queue</title>
<!-- Node1 -->
<g id="node1" class="node">
<title>Node1</title>
<g id="a_node1"><a xlink:title="The request_queue class manages rate limits and marshalls HTTP requests that have been built as http_...">
<polygon fill="#bfbfbf" stroke="black" points="1179,-413.78 1179,-432.78 1292,-432.78 1292,-413.78 1179,-413.78"/>
<text text-anchor="middle" x="1235.5" y="-420.78" font-family="Helvetica,sans-Serif" font-size="10.00">dpp::request_queue</text>
</a>
</g>
</g>
<!-- Node2 -->
<g id="node2" class="node">
<title>Node2</title>
<g id="a_node2"><a xlink:href="classdpp_1_1cluster.html" target="_top" xlink:title="The cluster class represents a group of shards and a command queue for sending and receiving commands...">
<polygon fill="none" stroke="black" points="949.5,-413.78 949.5,-432.78 1023.5,-432.78 1023.5,-413.78 949.5,-413.78"/>
<text text-anchor="middle" x="986.5" y="-420.78" font-family="Helvetica,sans-Serif" font-size="10.00">dpp::cluster</text>
</a>
</g>
</g>
<!-- Node2&#45;&gt;Node1 -->
<g id="edge1" class="edge">
<title>Node2&#45;&gt;Node1</title>
<path fill="none" stroke="#9a32cd" stroke-dasharray="5,2" d="M1033.68,-423.28C1074.72,-423.28 1134.81,-423.28 1178.56,-423.28"/>
<polygon fill="#9a32cd" stroke="#9a32cd" points="1033.68,-419.78 1023.68,-423.28 1033.68,-426.78 1033.68,-419.78"/>
<text text-anchor="middle" x="1110" y="-426.28" font-family="Helvetica,sans-Serif" font-size="10.00"> creator</text>
</g>
<!-- Node3 -->
<g id="node3" class="node">
<title>Node3</title>
<g id="a_node3"><a xlink:title=" ">
<polygon fill="none" stroke="#bfbfbf" points="211.5,-338.78 211.5,-357.78 276.5,-357.78 276.5,-338.78 211.5,-338.78"/>
<text text-anchor="middle" x="244" y="-345.78" font-family="Helvetica,sans-Serif" font-size="10.00">std::string</text>
</a>
</g>
</g>
<!-- Node3&#45;&gt;Node2 -->
<g id="edge2" class="edge">
<title>Node3&#45;&gt;Node2</title>
<path fill="none" stroke="#9a32cd" stroke-dasharray="5,2" d="M260.12,-331.09C285.17,-304.07 338.28,-252.75 396,-233.28 453.69,-213.81 472.44,-226.91 533,-233.28 705.17,-251.38 792.33,-191.13 914,-314.28 942.67,-343.29 905.3,-373.43 932,-404.28 936.58,-409.57 942.73,-413.38 949.24,-416.14"/>
<polygon fill="#9a32cd" stroke="#9a32cd" points="257.41,-328.87 253.28,-338.63 262.59,-333.58 257.41,-328.87"/>
<text text-anchor="middle" x="589" y="-240.28" font-family="Helvetica,sans-Serif" font-size="10.00"> token</text>
</g>
<!-- Node8 -->
<g id="node8" class="node">
<title>Node8</title>
<g id="a_node8"><a xlink:href="classdpp_1_1user.html" target="_top" xlink:title="Represents a user on discord. May or may not be a member of a dpp::guild.">
<polygon fill="none" stroke="black" points="675,-367.78 675,-386.78 737,-386.78 737,-367.78 675,-367.78"/>
<text text-anchor="middle" x="706" y="-374.78" font-family="Helvetica,sans-Serif" font-size="10.00">dpp::user</text>
</a>
</g>
</g>
<!-- Node3&#45;&gt;Node8 -->
<g id="edge13" class="edge">
<title>Node3&#45;&gt;Node8</title>
<path fill="none" stroke="#9a32cd" stroke-dasharray="5,2" d="M286.8,-349.8C342.86,-351.97 445.49,-356.34 533,-362.28 582.79,-365.66 640.57,-370.98 674.89,-374.3"/>
<polygon fill="#9a32cd" stroke="#9a32cd" points="286.69,-346.3 276.56,-349.41 286.42,-353.29 286.69,-346.3"/>
<text text-anchor="middle" x="464.5" y="-376.28" font-family="Helvetica,sans-Serif" font-size="10.00"> global_name</text>
<text text-anchor="middle" x="464.5" y="-365.28" font-family="Helvetica,sans-Serif" font-size="10.00">username</text>
</g>
<!-- Node15 -->
<g id="node15" class="node">
<title>Node15</title>
<g id="a_node15"><a xlink:href="structdpp_1_1utility_1_1primaryguild.html" target="_top" xlink:title="User&#39;s primary guild (server tag)">
<polygon fill="none" stroke="black" points="396,-446.78 396,-465.78 533,-465.78 533,-446.78 396,-446.78"/>
<text text-anchor="middle" x="464.5" y="-453.78" font-family="Helvetica,sans-Serif" font-size="10.00">dpp::utility::primaryguild</text>
</a>
</g>
</g>
<!-- Node3&#45;&gt;Node15 -->
<g id="edge19" class="edge">
<title>Node3&#45;&gt;Node15</title>
<path fill="none" stroke="#9a32cd" stroke-dasharray="5,2" d="M269.13,-363.35C298.41,-381.24 349.63,-411.31 396,-432.28 407.9,-437.66 421.39,-442.66 433.17,-446.69"/>
<polygon fill="#9a32cd" stroke="#9a32cd" points="270.78,-360.25 260.42,-357.99 267.11,-366.21 270.78,-360.25"/>
<text text-anchor="middle" x="354.5" y="-424.28" font-family="Helvetica,sans-Serif" font-size="10.00"> tag</text>
</g>
<!-- Node4 -->
<g id="node4" class="node">
<title>Node4</title>
<g id="a_node4"><a xlink:title=" ">
<polygon fill="none" stroke="#bfbfbf" points="0,-333.28 0,-363.28 104,-363.28 104,-333.28 0,-333.28"/>
<text text-anchor="start" x="8" y="-351.28" font-family="Helvetica,sans-Serif" font-size="10.00">std::basic_string&lt;</text>
<text text-anchor="middle" x="52" y="-340.28" font-family="Helvetica,sans-Serif" font-size="10.00"> Char &gt;</text>
</a>
</g>
</g>
<!-- Node4&#45;&gt;Node3 -->
<g id="edge3" class="edge">
<title>Node4&#45;&gt;Node3</title>
<path fill="none" stroke="midnightblue" d="M114.44,-348.28C146.78,-348.28 185.08,-348.28 211.41,-348.28"/>
<polygon fill="midnightblue" stroke="midnightblue" points="114.17,-344.78 104.17,-348.28 114.17,-351.78 114.17,-344.78"/>
</g>
<!-- Node5 -->
<g id="node5" class="node">
<title>Node5</title>
<g id="a_node5"><a xlink:title=" ">
<polygon fill="none" stroke="#bfbfbf" points="682,-599.78 682,-618.78 730,-618.78 730,-599.78 682,-599.78"/>
<text text-anchor="middle" x="706" y="-606.78" font-family="Helvetica,sans-Serif" font-size="10.00">time_t</text>
</a>
</g>
</g>
<!-- Node5&#45;&gt;Node1 -->
<g id="edge33" class="edge">
<title>Node5&#45;&gt;Node1</title>
<path fill="none" stroke="#9a32cd" stroke-dasharray="5,2" d="M740.32,-611.29C781.85,-612.83 854.61,-612.36 914,-595.28 1043.57,-558.01 1179.94,-463.27 1221.65,-432.84"/>
<polygon fill="#9a32cd" stroke="#9a32cd" points="740.35,-607.78 730.21,-610.85 740.05,-614.78 740.35,-607.78"/>
<text text-anchor="middle" x="986.5" y="-591.28" font-family="Helvetica,sans-Serif" font-size="10.00"> globally_limited_until</text>
</g>
<!-- Node5&#45;&gt;Node2 -->
<g id="edge4" class="edge">
<title>Node5&#45;&gt;Node2</title>
<path fill="none" stroke="#9a32cd" stroke-dasharray="5,2" d="M739.72,-599.01C748.58,-596.21 758.17,-593.15 767,-590.28 775.02,-587.67 776.83,-586.35 785,-584.28 841.44,-569.92 867.1,-595.8 914,-561.28 958.98,-528.16 977.97,-458.37 983.59,-432.87"/>
<polygon fill="#9a32cd" stroke="#9a32cd" points="738.59,-595.7 730.1,-602.05 740.69,-602.38 738.59,-595.7"/>
<text text-anchor="middle" x="849.5" y="-587.28" font-family="Helvetica,sans-Serif" font-size="10.00"> last_identify</text>
</g>
<!-- Node6 -->
<g id="node6" class="node">
<title>Node6</title>
<g id="a_node6"><a xlink:title=" ">
<polygon fill="none" stroke="#bfbfbf" points="436.5,-560.78 436.5,-579.78 492.5,-579.78 492.5,-560.78 436.5,-560.78"/>
<text text-anchor="middle" x="464.5" y="-567.78" font-family="Helvetica,sans-Serif" font-size="10.00">uint32_t</text>
</a>
</g>
</g>
<!-- Node6&#45;&gt;Node1 -->
<g id="edge34" class="edge">
<title>Node6&#45;&gt;Node1</title>
<path fill="none" stroke="#9a32cd" stroke-dasharray="5,2" d="M496.61,-583.63C531.84,-597.97 591.33,-619.82 645,-628.28 819.2,-655.72 876.14,-665.9 1041,-603.28 1102.1,-580.07 1113.82,-563.51 1161,-518.28 1189.9,-490.57 1216.79,-450.98 1228.43,-432.92"/>
<polygon fill="#9a32cd" stroke="#9a32cd" points="497.92,-580.38 487.34,-579.8 495.25,-586.85 497.92,-580.38"/>
<text text-anchor="middle" x="849.5" y="-652.28" font-family="Helvetica,sans-Serif" font-size="10.00"> in_queue_pool_size</text>
</g>
<!-- Node6&#45;&gt;Node2 -->
<g id="edge5" class="edge">
<title>Node6&#45;&gt;Node2</title>
<path fill="none" stroke="#9a32cd" stroke-dasharray="5,2" d="M502.92,-575.6C539.69,-578.54 594.84,-576.45 627,-544.28 662.65,-508.62 607.06,-465.48 645,-432.28 667.47,-412.61 866.48,-418.38 949.44,-421.68"/>
<polygon fill="#9a32cd" stroke="#9a32cd" points="502.89,-572.08 492.6,-574.6 502.22,-579.05 502.89,-572.08"/>
<text text-anchor="middle" x="706" y="-468.28" font-family="Helvetica,sans-Serif" font-size="10.00"> cluster_id</text>
<text text-anchor="middle" x="706" y="-457.28" font-family="Helvetica,sans-Serif" font-size="10.00">intents</text>
<text text-anchor="middle" x="706" y="-446.28" font-family="Helvetica,sans-Serif" font-size="10.00">maxclusters</text>
<text text-anchor="middle" x="706" y="-435.28" font-family="Helvetica,sans-Serif" font-size="10.00">numshards</text>
</g>
<!-- Node6&#45;&gt;Node8 -->
<g id="edge21" class="edge">
<title>Node6&#45;&gt;Node8</title>
<path fill="none" stroke="#9a32cd" stroke-dasharray="5,2" d="M502.7,-563.44C512.95,-560.61 523.78,-556.68 533,-551.28 542.76,-545.56 541.29,-539.09 551,-533.28 581.28,-515.14 603.72,-536.8 627,-510.28 659.39,-473.37 614.24,-439.55 645,-401.28 652.38,-392.09 663.8,-386.41 674.7,-382.89"/>
<polygon fill="#9a32cd" stroke="#9a32cd" points="501.58,-560.11 492.72,-565.92 503.27,-566.9 501.58,-560.11"/>
<text text-anchor="middle" x="589" y="-536.28" font-family="Helvetica,sans-Serif" font-size="10.00"> flags</text>
</g>
<!-- Node7 -->
<g id="node7" class="node">
<title>Node7</title>
<g id="a_node7"><a xlink:title=" ">
<polygon fill="none" stroke="#bfbfbf" points="681,-47.78 681,-66.78 731,-66.78 731,-47.78 681,-47.78"/>
<text text-anchor="middle" x="706" y="-54.78" font-family="Helvetica,sans-Serif" font-size="10.00">double</text>
</a>
</g>
</g>
<!-- Node7&#45;&gt;Node2 -->
<g id="edge6" class="edge">
<title>Node7&#45;&gt;Node2</title>
<path fill="none" stroke="#9a32cd" stroke-dasharray="5,2" d="M741.47,-53.47C794.01,-48.52 890.51,-43.01 914,-66.28 940.72,-92.74 909.5,-374.14 932,-404.28 936.36,-410.12 942.68,-414.17 949.44,-416.98"/>
<polygon fill="#9a32cd" stroke="#9a32cd" points="740.89,-50.01 731.28,-54.48 741.57,-56.98 740.89,-50.01"/>
<text text-anchor="middle" x="849.5" y="-69.28" font-family="Helvetica,sans-Serif" font-size="10.00"> rest_ping</text>
</g>
<!-- Node8&#45;&gt;Node2 -->
<g id="edge7" class="edge">
<title>Node8&#45;&gt;Node2</title>
<path fill="none" stroke="#9a32cd" stroke-dasharray="5,2" d="M747.29,-378.56C789.33,-380.55 856.95,-385.59 914,-398.28 916.34,-398.8 939.27,-406.85 958.54,-413.68"/>
<polygon fill="#9a32cd" stroke="#9a32cd" points="747.32,-375.06 737.18,-378.12 747.01,-382.05 747.32,-375.06"/>
<text text-anchor="middle" x="849.5" y="-401.28" font-family="Helvetica,sans-Serif" font-size="10.00"> me</text>
</g>
<!-- Node9 -->
<g id="node9" class="node">
<title>Node9</title>
<g id="a_node9"><a xlink:href="classdpp_1_1managed.html" target="_top" xlink:title="The managed class is the base class for various types that can be stored in a cache that are identifi...">
<polygon fill="none" stroke="black" points="421.5,-484.78 421.5,-503.78 507.5,-503.78 507.5,-484.78 421.5,-484.78"/>
<text text-anchor="middle" x="464.5" y="-491.78" font-family="Helvetica,sans-Serif" font-size="10.00">dpp::managed</text>
</a>
</g>
</g>
<!-- Node9&#45;&gt;Node8 -->
<g id="edge8" class="edge">
<title>Node9&#45;&gt;Node8</title>
<path fill="none" stroke="midnightblue" d="M517.67,-485.78C558.52,-478.17 611.01,-465.96 627,-451.28 644.4,-435.3 628.59,-418.27 645,-401.28 653.03,-392.96 664.31,-387.45 674.92,-383.84"/>
<polygon fill="midnightblue" stroke="midnightblue" points="517.04,-482.34 507.83,-487.57 518.3,-489.23 517.04,-482.34"/>
</g>
<!-- Node10 -->
<g id="node10" class="node">
<title>Node10</title>
<g id="a_node10"><a xlink:href="classdpp_1_1snowflake.html" target="_top" xlink:title="A container for a 64 bit unsigned value representing many things on discord. This value is known in d...">
<polygon fill="none" stroke="black" points="199.5,-526.78 199.5,-545.78 288.5,-545.78 288.5,-526.78 199.5,-526.78"/>
<text text-anchor="middle" x="244" y="-533.78" font-family="Helvetica,sans-Serif" font-size="10.00">dpp::snowflake</text>
</a>
</g>
</g>
<!-- Node10&#45;&gt;Node9 -->
<g id="edge9" class="edge">
<title>Node10&#45;&gt;Node9</title>
<path fill="none" stroke="#9a32cd" stroke-dasharray="5,2" d="M280.8,-548.63C309.08,-556.09 348.54,-561.24 378,-544.28 391.81,-536.33 383.41,-523.04 396,-513.28 403.31,-507.61 412.23,-503.63 421.16,-500.84"/>
<polygon fill="#9a32cd" stroke="#9a32cd" points="281.51,-545.19 270.93,-545.81 279.59,-551.92 281.51,-545.19"/>
<text text-anchor="middle" x="354.5" y="-558.28" font-family="Helvetica,sans-Serif" font-size="10.00"> id</text>
</g>
<!-- Node10&#45;&gt;Node15 -->
<g id="edge17" class="edge">
<title>Node10&#45;&gt;Node15</title>
<path fill="none" stroke="#9a32cd" stroke-dasharray="5,2" d="M290.22,-523.91C297.84,-521.75 305.66,-519.49 313,-517.28 342.07,-508.52 352.73,-513.1 378,-496.28 388.23,-489.46 385.64,-481.89 396,-475.28 402.05,-471.41 408.9,-468.32 415.86,-465.85"/>
<polygon fill="#9a32cd" stroke="#9a32cd" points="289.05,-520.61 280.37,-526.68 290.94,-527.35 289.05,-520.61"/>
<text text-anchor="middle" x="354.5" y="-515.28" font-family="Helvetica,sans-Serif" font-size="10.00"> id</text>
</g>
<!-- Node11 -->
<g id="node11" class="node">
<title>Node11</title>
<g id="a_node11"><a xlink:title=" ">
<polygon fill="none" stroke="#bfbfbf" points="24,-488.78 24,-507.78 80,-507.78 80,-488.78 24,-488.78"/>
<text text-anchor="middle" x="52" y="-495.78" font-family="Helvetica,sans-Serif" font-size="10.00">uint64_t</text>
</a>
</g>
</g>
<!-- Node11&#45;&gt;Node10 -->
<g id="edge10" class="edge">
<title>Node11&#45;&gt;Node10</title>
<path fill="none" stroke="#9a32cd" stroke-dasharray="5,2" d="M90.28,-505.73C121.58,-511.99 166.34,-520.94 199.32,-527.54"/>
<polygon fill="#9a32cd" stroke="#9a32cd" points="90.71,-502.25 80.22,-503.72 89.34,-509.11 90.71,-502.25"/>
<text text-anchor="middle" x="139.5" y="-521.28" font-family="Helvetica,sans-Serif" font-size="10.00"> value</text>
</g>
<!-- Node14 -->
<g id="node14" class="node">
<title>Node14</title>
<g id="a_node14"><a xlink:href="structdpp_1_1utility_1_1iconhash.html" target="_top" xlink:title="Store a 128 bit icon hash (profile picture, server icon etc) as a 128 bit binary value made of two ui...">
<polygon fill="none" stroke="black" points="185,-450.78 185,-469.78 303,-469.78 303,-450.78 185,-450.78"/>
<text text-anchor="middle" x="244" y="-457.78" font-family="Helvetica,sans-Serif" font-size="10.00">dpp::utility::iconhash</text>
</a>
</g>
</g>
<!-- Node11&#45;&gt;Node14 -->
<g id="edge15" class="edge">
<title>Node11&#45;&gt;Node14</title>
<path fill="none" stroke="#9a32cd" stroke-dasharray="5,2" d="M90.29,-490.82C120.33,-484.81 162.75,-476.33 195.26,-469.82"/>
<polygon fill="#9a32cd" stroke="#9a32cd" points="89.34,-487.44 80.22,-492.83 90.71,-494.3 89.34,-487.44"/>
<text text-anchor="middle" x="139.5" y="-497.28" font-family="Helvetica,sans-Serif" font-size="10.00"> first</text>
<text text-anchor="middle" x="139.5" y="-486.28" font-family="Helvetica,sans-Serif" font-size="10.00">second</text>
</g>
<!-- Node12 -->
<g id="node12" class="node">
<title>Node12</title>
<g id="a_node12"><a xlink:href="structdpp_1_1json__interface.html" target="_top" xlink:title=" ">
<polygon fill="none" stroke="black" points="409.5,-243.28 409.5,-273.28 519.5,-273.28 519.5,-243.28 409.5,-243.28"/>
<text text-anchor="start" x="417.5" y="-261.28" font-family="Helvetica,sans-Serif" font-size="10.00">dpp::json_interface</text>
<text text-anchor="middle" x="464.5" y="-250.28" font-family="Helvetica,sans-Serif" font-size="10.00">&lt; user &gt;</text>
</a>
</g>
</g>
<!-- Node12&#45;&gt;Node8 -->
<g id="edge11" class="edge">
<title>Node12&#45;&gt;Node8</title>
<path fill="none" stroke="midnightblue" d="M529.48,-268.61C560.34,-275.43 597.06,-286.32 627,-303.28 657.21,-320.39 684.7,-351.7 697.47,-367.54"/>
<polygon fill="midnightblue" stroke="midnightblue" points="530.19,-265.19 519.68,-266.54 528.74,-272.04 530.19,-265.19"/>
</g>
<!-- Node13 -->
<g id="node13" class="node">
<title>Node13</title>
<g id="a_node13"><a xlink:href="structdpp_1_1json__interface.html" target="_top" xlink:title="Represents an interface for an object that can optionally implement functions for converting to and f...">
<polygon fill="none" stroke="black" points="175,-178.78 175,-197.78 313,-197.78 313,-178.78 175,-178.78"/>
<text text-anchor="middle" x="244" y="-185.78" font-family="Helvetica,sans-Serif" font-size="10.00">dpp::json_interface&lt; T &gt;</text>
</a>
</g>
</g>
<!-- Node13&#45;&gt;Node12 -->
<g id="edge12" class="edge">
<title>Node13&#45;&gt;Node12</title>
<path fill="none" stroke="orange" stroke-dasharray="5,2" d="M284.86,-201.05C321.91,-212.92 377.13,-230.6 416.35,-243.17"/>
<polygon fill="orange" stroke="orange" points="285.51,-197.58 274.92,-197.86 283.38,-204.25 285.51,-197.58"/>
<text text-anchor="middle" x="354.5" y="-233.28" font-family="Helvetica,sans-Serif" font-size="10.00"> &lt; user &gt;</text>
</g>
<!-- Node14&#45;&gt;Node8 -->
<g id="edge14" class="edge">
<title>Node14&#45;&gt;Node8</title>
<path fill="none" stroke="#9a32cd" stroke-dasharray="5,2" d="M266.03,-444.87C282.75,-433.5 307.21,-418.75 331,-411.28 363.46,-401.08 591.67,-384.91 674.8,-379.28"/>
<polygon fill="#9a32cd" stroke="#9a32cd" points="263.78,-442.17 257.59,-450.77 267.79,-447.91 263.78,-442.17"/>
<text text-anchor="middle" x="464.5" y="-415.28" font-family="Helvetica,sans-Serif" font-size="10.00"> avatar</text>
<text text-anchor="middle" x="464.5" y="-404.28" font-family="Helvetica,sans-Serif" font-size="10.00">avatar_decoration</text>
</g>
<!-- Node14&#45;&gt;Node15 -->
<g id="edge20" class="edge">
<title>Node14&#45;&gt;Node15</title>
<path fill="none" stroke="#9a32cd" stroke-dasharray="5,2" d="M313.49,-459.02C339.71,-458.54 369.57,-458 395.72,-457.52"/>
<polygon fill="#9a32cd" stroke="#9a32cd" points="313.2,-455.53 303.27,-459.21 313.33,-462.53 313.2,-455.53"/>
<text text-anchor="middle" x="354.5" y="-461.28" font-family="Helvetica,sans-Serif" font-size="10.00"> badge</text>
</g>
<!-- Node15&#45;&gt;Node8 -->
<g id="edge16" class="edge">
<title>Node15&#45;&gt;Node8</title>
<path fill="none" stroke="#9a32cd" stroke-dasharray="5,2" d="M526.58,-444.73C564.62,-436.92 609.52,-426.42 627,-417.28 636.49,-412.32 635.89,-406.9 645,-401.28 654.35,-395.5 665.34,-390.62 675.33,-386.81"/>
<polygon fill="#9a32cd" stroke="#9a32cd" points="525.68,-441.34 516.58,-446.75 527.07,-448.2 525.68,-441.34"/>
<text text-anchor="middle" x="589" y="-442.28" font-family="Helvetica,sans-Serif" font-size="10.00"> primary_guild</text>
</g>
<!-- Node16 -->
<g id="node16" class="node">
<title>Node16</title>
<g id="a_node16"><a xlink:title=" ">
<polygon fill="none" stroke="#bfbfbf" points="225,-488.78 225,-507.78 263,-507.78 263,-488.78 225,-488.78"/>
<text text-anchor="middle" x="244" y="-495.78" font-family="Helvetica,sans-Serif" font-size="10.00">bool</text>
</a>
</g>
</g>
<!-- Node16&#45;&gt;Node15 -->
<g id="edge18" class="edge">
<title>Node16&#45;&gt;Node15</title>
<path fill="none" stroke="#9a32cd" stroke-dasharray="5,2" d="M272.97,-493.11C299.89,-488.11 341.75,-480.29 378,-473.28 390.33,-470.89 403.66,-468.27 416.03,-465.81"/>
<polygon fill="#9a32cd" stroke="#9a32cd" points="272.28,-489.68 263.08,-494.94 273.55,-496.56 272.28,-489.68"/>
<text text-anchor="middle" x="354.5" y="-484.28" font-family="Helvetica,sans-Serif" font-size="10.00"> enabled</text>
</g>
<!-- Node17 -->
<g id="node17" class="node">
<title>Node17</title>
<g id="a_node17"><a xlink:title=" ">
<polygon fill="none" stroke="#bfbfbf" points="436.5,-292.78 436.5,-311.78 492.5,-311.78 492.5,-292.78 436.5,-292.78"/>
<text text-anchor="middle" x="464.5" y="-299.78" font-family="Helvetica,sans-Serif" font-size="10.00">uint16_t</text>
</a>
</g>
</g>
<!-- Node17&#45;&gt;Node2 -->
<g id="edge28" class="edge">
<title>Node17&#45;&gt;Node2</title>
<path fill="none" stroke="#9a32cd" stroke-dasharray="5,2" d="M502.84,-299.62C535.68,-297.92 584.71,-296.91 627,-302.28 757.68,-318.85 807.24,-299.11 914,-376.28 925.99,-384.94 920.41,-395.08 932,-404.28 937.1,-408.32 943.12,-411.54 949.26,-414.09"/>
<polygon fill="#9a32cd" stroke="#9a32cd" points="502.56,-296.13 492.78,-300.19 502.96,-303.12 502.56,-296.13"/>
<text text-anchor="middle" x="706" y="-318.28" font-family="Helvetica,sans-Serif" font-size="10.00"> request_timeout</text>
</g>
<!-- Node17&#45;&gt;Node8 -->
<g id="edge22" class="edge">
<title>Node17&#45;&gt;Node8</title>
<path fill="none" stroke="#9a32cd" stroke-dasharray="5,2" d="M503.03,-302.18C536.57,-303.25 586.52,-307.7 627,-323.28 653.75,-333.57 680.17,-354.82 694.35,-367.37"/>
<polygon fill="#9a32cd" stroke="#9a32cd" points="502.82,-298.68 492.74,-301.95 502.66,-305.68 502.82,-298.68"/>
<text text-anchor="middle" x="589" y="-326.28" font-family="Helvetica,sans-Serif" font-size="10.00"> discriminator</text>
</g>
<!-- Node18 -->
<g id="node18" class="node">
<title>Node18</title>
<g id="a_node18"><a xlink:title=" ">
<polygon fill="none" stroke="#bfbfbf" points="439.5,-522.78 439.5,-541.78 489.5,-541.78 489.5,-522.78 439.5,-522.78"/>
<text text-anchor="middle" x="464.5" y="-529.78" font-family="Helvetica,sans-Serif" font-size="10.00">uint8_t</text>
</a>
</g>
</g>
<!-- Node18&#45;&gt;Node8 -->
<g id="edge23" class="edge">
<title>Node18&#45;&gt;Node8</title>
<path fill="none" stroke="#9a32cd" stroke-dasharray="5,2" d="M499.52,-525.44C510.54,-522.51 522.6,-518.53 533,-513.28 542.05,-508.71 542,-503.93 551,-499.28 582.34,-483.06 602.78,-501.95 627,-476.28 650.52,-451.34 622.58,-427.21 645,-401.28 652.63,-392.45 663.96,-386.83 674.73,-383.28"/>
<polygon fill="#9a32cd" stroke="#9a32cd" points="498.64,-522.05 489.77,-527.83 500.31,-528.84 498.64,-522.05"/>
<text text-anchor="middle" x="589" y="-502.28" font-family="Helvetica,sans-Serif" font-size="10.00"> refcount</text>
</g>
<!-- Node19 -->
<g id="node19" class="node">
<title>Node19</title>
<g id="a_node19"><a xlink:href="structdpp_1_1cache__policy__t.html" target="_top" xlink:title="Represents the caching policy of the cluster.">
<polygon fill="none" stroke="black" points="649.5,-9.78 649.5,-28.78 762.5,-28.78 762.5,-9.78 649.5,-9.78"/>
<text text-anchor="middle" x="706" y="-16.78" font-family="Helvetica,sans-Serif" font-size="10.00">dpp::cache_policy_t</text>
</a>
</g>
</g>
<!-- Node19&#45;&gt;Node2 -->
<g id="edge24" class="edge">
<title>Node19&#45;&gt;Node2</title>
<path fill="none" stroke="#9a32cd" stroke-dasharray="5,2" d="M750.81,-7.56C798.15,2.17 872.37,8.35 914,-34.28 942.76,-63.72 907.45,-371.24 932,-404.28 936.35,-410.13 942.66,-414.19 949.42,-417"/>
<polygon fill="#9a32cd" stroke="#9a32cd" points="749.87,-4.18 740.85,-9.73 751.37,-11.02 749.87,-4.18"/>
<text text-anchor="middle" x="849.5" y="-37.28" font-family="Helvetica,sans-Serif" font-size="10.00"> cache_policy</text>
</g>
<!-- Node20 -->
<g id="node20" class="node">
<title>Node20</title>
<g id="a_node20"><a xlink:title=" ">
<polygon fill="none" stroke="#bfbfbf" points="400.5,-9.78 400.5,-28.78 528.5,-28.78 528.5,-9.78 400.5,-9.78"/>
<text text-anchor="middle" x="464.5" y="-16.78" font-family="Helvetica,sans-Serif" font-size="10.00">cache_policy_setting_t</text>
</a>
</g>
</g>
<!-- Node20&#45;&gt;Node19 -->
<g id="edge25" class="edge">
<title>Node20&#45;&gt;Node19</title>
<path fill="none" stroke="#9a32cd" stroke-dasharray="5,2" d="M539.04,-19.28C574.51,-19.28 616.37,-19.28 649.17,-19.28"/>
<polygon fill="#9a32cd" stroke="#9a32cd" points="538.74,-15.78 528.74,-19.28 538.74,-22.78 538.74,-15.78"/>
<text text-anchor="middle" x="589" y="-66.28" font-family="Helvetica,sans-Serif" font-size="10.00"> channel_policy</text>
<text text-anchor="middle" x="589" y="-55.28" font-family="Helvetica,sans-Serif" font-size="10.00">emoji_policy</text>
<text text-anchor="middle" x="589" y="-44.28" font-family="Helvetica,sans-Serif" font-size="10.00">guild_policy</text>
<text text-anchor="middle" x="589" y="-33.28" font-family="Helvetica,sans-Serif" font-size="10.00">role_policy</text>
<text text-anchor="middle" x="589" y="-22.28" font-family="Helvetica,sans-Serif" font-size="10.00">user_policy</text>
</g>
<!-- Node21 -->
<g id="node21" class="node">
<title>Node21</title>
<g id="a_node21"><a xlink:title=" ">
<polygon fill="none" stroke="#bfbfbf" points="645,-561.78 645,-580.78 767,-580.78 767,-561.78 645,-561.78"/>
<text text-anchor="middle" x="706" y="-568.78" font-family="Helvetica,sans-Serif" font-size="10.00">websocket_protocol_t</text>
</a>
</g>
</g>
<!-- Node21&#45;&gt;Node2 -->
<g id="edge26" class="edge">
<title>Node21&#45;&gt;Node2</title>
<path fill="none" stroke="#9a32cd" stroke-dasharray="5,2" d="M749.62,-559.09C761.06,-556.01 773.46,-552.85 785,-550.28 841.84,-537.58 865.05,-558.82 914,-527.28 950.65,-503.66 973.53,-453.91 981.9,-432.93"/>
<polygon fill="#9a32cd" stroke="#9a32cd" points="748.59,-555.74 739.86,-561.75 750.43,-562.49 748.59,-555.74"/>
<text text-anchor="middle" x="849.5" y="-553.28" font-family="Helvetica,sans-Serif" font-size="10.00"> ws_mode</text>
</g>
<!-- Node22 -->
<g id="node22" class="node">
<title>Node22</title>
<g id="a_node22"><a xlink:title=" ">
<polygon fill="none" stroke="#bfbfbf" points="667.5,-523.78 667.5,-542.78 744.5,-542.78 744.5,-523.78 667.5,-523.78"/>
<text text-anchor="middle" x="706" y="-530.78" font-family="Helvetica,sans-Serif" font-size="10.00">atomic_bool</text>
</a>
</g>
</g>
<!-- Node22&#45;&gt;Node2 -->
<g id="edge27" class="edge">
<title>Node22&#45;&gt;Node2</title>
<path fill="none" stroke="#9a32cd" stroke-dasharray="5,2" d="M754.54,-522.91C764.6,-520.72 775.15,-518.42 785,-516.28 842.33,-503.81 861.85,-515.15 914,-488.28 941.14,-474.29 965.83,-447.34 977.83,-432.92"/>
<polygon fill="#9a32cd" stroke="#9a32cd" points="753.71,-519.51 744.69,-525.06 755.2,-526.35 753.71,-519.51"/>
<text text-anchor="middle" x="849.5" y="-519.28" font-family="Helvetica,sans-Serif" font-size="10.00"> terminating</text>
</g>
<!-- Node23 -->
<g id="node23" class="node">
<title>Node23</title>
<g id="a_node23"><a xlink:title=" ">
<polygon fill="none" stroke="#bfbfbf" points="667.5,-485.78 667.5,-504.78 744.5,-504.78 744.5,-485.78 667.5,-485.78"/>
<text text-anchor="middle" x="706" y="-492.78" font-family="Helvetica,sans-Serif" font-size="10.00">unique_ptr&lt;</text>
</a>
</g>
</g>
<!-- Node23&#45;&gt;Node2 -->
<g id="edge29" class="edge">
<title>Node23&#45;&gt;Node2</title>
<path fill="none" stroke="#9a32cd" stroke-dasharray="5,2" d="M753.84,-483.17C808.94,-468.92 899.21,-445.58 949.25,-432.65"/>
<polygon fill="#9a32cd" stroke="#9a32cd" points="752.79,-479.82 743.98,-485.71 754.54,-486.6 752.79,-479.82"/>
<text text-anchor="middle" x="849.5" y="-476.28" font-family="Helvetica,sans-Serif" font-size="10.00"> socketengine</text>
</g>
<!-- Node24 -->
<g id="node24" class="node">
<title>Node24</title>
<g id="a_node24"><a xlink:title=" ">
<polygon fill="none" stroke="#bfbfbf" points="658,-85.78 658,-104.78 754,-104.78 754,-85.78 658,-85.78"/>
<text text-anchor="middle" x="706" y="-92.78" font-family="Helvetica,sans-Serif" font-size="10.00">event_router_t&lt;</text>
</a>
</g>
</g>
<!-- Node24&#45;&gt;Node2 -->
<g id="edge30" class="edge">
<title>Node24&#45;&gt;Node2</title>
<path fill="none" stroke="#9a32cd" stroke-dasharray="5,2" d="M764.45,-86.54C818.18,-79.82 893.19,-74.64 914,-94.28 939.09,-117.96 911.29,-376.68 932,-404.28 936.38,-410.11 942.7,-414.16 949.46,-416.97"/>
<polygon fill="#9a32cd" stroke="#9a32cd" points="763.81,-83.09 754.34,-87.85 764.71,-90.03 763.81,-83.09"/>
<text text-anchor="middle" x="849.5" y="-207.28" font-family="Helvetica,sans-Serif" font-size="10.00"> on_autocomplete</text>
<text text-anchor="middle" x="849.5" y="-196.28" font-family="Helvetica,sans-Serif" font-size="10.00">on_automod_rule_create</text>
<text text-anchor="middle" x="849.5" y="-185.28" font-family="Helvetica,sans-Serif" font-size="10.00">on_automod_rule_delete</text>
<text text-anchor="middle" x="849.5" y="-174.28" font-family="Helvetica,sans-Serif" font-size="10.00">on_automod_rule_execute</text>
<text text-anchor="middle" x="849.5" y="-163.28" font-family="Helvetica,sans-Serif" font-size="10.00">on_automod_rule_update</text>
<text text-anchor="middle" x="849.5" y="-152.28" font-family="Helvetica,sans-Serif" font-size="10.00">on_button_click</text>
<text text-anchor="middle" x="849.5" y="-141.28" font-family="Helvetica,sans-Serif" font-size="10.00">on_channel_create</text>
<text text-anchor="middle" x="849.5" y="-130.28" font-family="Helvetica,sans-Serif" font-size="10.00">on_channel_delete</text>
<text text-anchor="middle" x="849.5" y="-119.28" font-family="Helvetica,sans-Serif" font-size="10.00">on_channel_pins_update</text>
<text text-anchor="middle" x="849.5" y="-108.28" font-family="Helvetica,sans-Serif" font-size="10.00">on_channel_update</text>
<text text-anchor="middle" x="849.5" y="-97.28" font-family="Helvetica,sans-Serif" font-size="10.00">...</text>
</g>
<!-- Node25 -->
<g id="node25" class="node">
<title>Node25</title>
<g id="a_node25"><a xlink:title=" ">
<polygon fill="none" stroke="#bfbfbf" points="958.5,-375.78 958.5,-394.78 1014.5,-394.78 1014.5,-375.78 958.5,-375.78"/>
<text text-anchor="middle" x="986.5" y="-382.78" font-family="Helvetica,sans-Serif" font-size="10.00">vector&lt;</text>
</a>
</g>
</g>
<!-- Node25&#45;&gt;Node1 -->
<g id="edge31" class="edge">
<title>Node25&#45;&gt;Node1</title>
<path fill="none" stroke="#9a32cd" stroke-dasharray="5,2" d="M1024.93,-389.48C1060.14,-393.61 1114.29,-400.42 1161,-408.28 1170.5,-409.87 1180.65,-411.8 1190.28,-413.73"/>
<polygon fill="#9a32cd" stroke="#9a32cd" points="1024.97,-385.96 1014.63,-388.28 1024.16,-392.91 1024.97,-385.96"/>
<text text-anchor="middle" x="1110" y="-411.28" font-family="Helvetica,sans-Serif" font-size="10.00"> requests_in</text>
</g>
<!-- Node26 -->
<g id="node26" class="node">
<title>Node26</title>
<g id="a_node26"><a xlink:title=" ">
<polygon fill="none" stroke="#bfbfbf" points="957,-332.78 957,-351.78 1016,-351.78 1016,-332.78 957,-332.78"/>
<text text-anchor="middle" x="986.5" y="-339.78" font-family="Helvetica,sans-Serif" font-size="10.00">atomic&lt;</text>
</a>
</g>
</g>
<!-- Node26&#45;&gt;Node1 -->
<g id="edge32" class="edge">
<title>Node26&#45;&gt;Node1</title>
<path fill="none" stroke="#9a32cd" stroke-dasharray="5,2" d="M1026.45,-342.34C1062.62,-343.67 1117.32,-348.96 1161,-367.28 1187.04,-378.2 1212.01,-400.57 1225.08,-413.49"/>
<polygon fill="#9a32cd" stroke="#9a32cd" points="1026.4,-338.84 1016.31,-342.06 1026.21,-345.84 1026.4,-338.84"/>
<text text-anchor="middle" x="1110" y="-381.28" font-family="Helvetica,sans-Serif" font-size="10.00"> globally_ratelimited</text>
<text text-anchor="middle" x="1110" y="-370.28" font-family="Helvetica,sans-Serif" font-size="10.00">terminating</text>
</g>
</g>
</svg>
        <g id="navigator" transform="translate(0 0)" fill="#404254">
                <rect fill="#f2f5e9" fill-opacity="0.5" stroke="#606060" stroke-width=".5" x="0" y="0" width="60" height="60"/>
                <use id="zoomplus" xlink:href="#zoomPlus" x="17" y="9" onmousedown="handleZoom(evt,'in')"/>
                <use id="zoomminus" xlink:href="#zoomMin" x="42" y="9" onmousedown="handleZoom(evt,'out')"/>
                <use id="reset" xlink:href="#resetDef" x="30" y="36" onmousedown="handleReset()"/>
                <g id="arrowUp" xlink:href="#dirArrow" transform="translate(30 24)" onmousedown="handlePan(0,-1)">
                  <use xlink:href="#rim" fill="#404040">
                        <set attributeName="fill" to="#808080" begin="arrowUp.mouseover" end="arrowUp.mouseout"/>
                  </use>
                  <path fill="none" stroke="white" stroke-width="1.5" d="M0,-3.0v7 M-2.5,-0.5L0,-3.0L2.5,-0.5"/>
                </g>
                <g id="arrowRight" xlink:href="#dirArrow" transform="rotate(90) translate(36 -43)" onmousedown="handlePan(1,0)">
                  <use xlink:href="#rim" fill="#404040">
                        <set attributeName="fill" to="#808080" begin="arrowRight.mouseover" end="arrowRight.mouseout"/>
                  </use>
                  <path fill="none" stroke="white" stroke-width="1.5" d="M0,-3.0v7 M-2.5,-0.5L0,-3.0L2.5,-0.5"/>
                </g>
                <g id="arrowDown" xlink:href="#dirArrow" transform="rotate(180) translate(-30 -48)" onmousedown="handlePan(0,1)">
                  <use xlink:href="#rim" fill="#404040">
                        <set attributeName="fill" to="#808080" begin="arrowDown.mouseover" end="arrowDown.mouseout"/>
                  </use>
                  <path fill="none" stroke="white" stroke-width="1.5" d="M0,-3.0v7 M-2.5,-0.5L0,-3.0L2.5,-0.5"/>
                </g>
                <g id="arrowLeft" xlink:href="#dirArrow" transform="rotate(270) translate(-36 17)" onmousedown="handlePan(-1,0)">
                  <use xlink:href="#rim" fill="#404040">
                        <set attributeName="fill" to="#808080" begin="arrowLeft.mouseover" end="arrowLeft.mouseout"/>
                  </use>
                  <path fill="none" stroke="white" stroke-width="1.5" d="M0,-3.0v7 M-2.5,-0.5L0,-3.0L2.5,-0.5"/>
                </g>
        </g>
        <svg viewBox="0 0 15 15" width="100%" height="30px" preserveAspectRatio="xMaxYMin meet">
         <g id="arrow_out" transform="scale(0.3 0.3)">
          <a xlink:href="classdpp_1_1request__queue__coll__graph_org.svg" target="_base">
           <rect id="button" ry="5" rx="5" y="6" x="6" height="38" width="38"
                fill="#f2f5e9" fill-opacity="0.5" stroke="#606060" stroke-width="1.0"/>
           <path id="arrow"
             d="M 11.500037,31.436501 C 11.940474,20.09759 22.043105,11.32322 32.158766,21.979434 L 37.068811,17.246167 C 37.068811,17.246167 37.088388,32 37.088388,32 L 22.160133,31.978069 C 22.160133,31.978069 26.997745,27.140456 26.997745,27.140456 C 18.528582,18.264221 13.291696,25.230495 11.500037,31.436501 z"
             style="fill:#404040;"/>
          </a>
         </g>
        </svg>
</svg>
