<?xml version="1.0" encoding="UTF-8" standalone="no"?>
<!DOCTYPE svg PUBLIC "-//W3C//DTD SVG 1.1//EN"
 "http://www.w3.org/Graphics/SVG/1.1/DTD/svg11.dtd">
<!-- Generated by graphviz version 2.38.0 (20140413.2041)
 -->
<!-- Title: dpp::guild_command_permissions Pages: 1 -->
<svg width="289pt" height="273pt"
 viewBox="0.00 0.00 288.50 273.00" xmlns="http://www.w3.org/2000/svg" xmlns:xlink="http://www.w3.org/1999/xlink">
<g id="graph0" class="graph" transform="scale(1 1) rotate(0) translate(4 269)">
<title>dpp::guild_command_permissions</title>
<polygon fill="white" stroke="none" points="-4,4 -4,-269 284.5,-269 284.5,4 -4,4"/>
<!-- Node1 -->
<g id="node1" class="node"><title>Node1</title>
<polygon fill="#bfbfbf" stroke="black" points="0,-0.5 0,-30.5 107,-30.5 107,-0.5 0,-0.5"/>
<text text-anchor="start" x="8" y="-18.5" font-family="Helvetica,sans-Serif" font-size="10.00">dpp::guild_command</text>
<text text-anchor="middle" x="53.5" y="-7.5" font-family="Helvetica,sans-Serif" font-size="10.00">_permissions</text>
</g>
<!-- Node2 -->
<g id="node2" class="node"><title>Node2</title>
<polygon fill="white" stroke="#bfbfbf" points="9,-245.5 9,-264.5 60,-264.5 60,-245.5 9,-245.5"/>
<text text-anchor="middle" x="34.5" y="-252.5" font-family="Helvetica,sans-Serif" font-size="10.00">uint64_t</text>
</g>
<!-- Node2&#45;&gt;Node1 -->
<g id="edge1" class="edge"><title>Node2&#45;&gt;Node1</title>
<path fill="none" stroke="#9a32cd" stroke-dasharray="5,2" d="M34.0665,-234.92C33.5724,-202.527 33.5867,-134.762 40.5,-78 42.5055,-61.5339 46.7124,-42.9401 49.7996,-30.5503"/>
<polygon fill="#9a32cd" stroke="#9a32cd" points="30.5717,-235.235 34.2597,-245.168 37.5705,-235.103 30.5717,-235.235"/>
<text text-anchor="middle" x="66.5" y="-152" font-family="Helvetica,sans-Serif" font-size="10.00"> guild_id</text>
<text text-anchor="middle" x="66.5" y="-141" font-family="Helvetica,sans-Serif" font-size="10.00">id</text>
<text text-anchor="middle" x="66.5" y="-130" font-family="Helvetica,sans-Serif" font-size="10.00">application_id</text>
</g>
<!-- Node4 -->
<g id="node4" class="node"><title>Node4</title>
<g id="a_node4"><a xlink:href="classdpp_1_1command__permission.html" target="_top" xlink:title="Application command permissions allow you to enable or disable commands for specific users or roles w...">
<polygon fill="white" stroke="black" points="50.5,-178.5 50.5,-197.5 184.5,-197.5 184.5,-178.5 50.5,-178.5"/>
<text text-anchor="middle" x="117.5" y="-185.5" font-family="Helvetica,sans-Serif" font-size="10.00">dpp::command_permission</text>
</a>
</g>
</g>
<!-- Node2&#45;&gt;Node4 -->
<g id="edge4" class="edge"><title>Node2&#45;&gt;Node4</title>
<path fill="none" stroke="#9a32cd" stroke-dasharray="5,2" d="M53.5673,-239.068C69.9504,-226.238 93.0019,-208.185 106.484,-197.627"/>
<polygon fill="#9a32cd" stroke="#9a32cd" points="51.4088,-236.313 45.6937,-245.234 55.7248,-241.824 51.4088,-236.313"/>
<text text-anchor="middle" x="87" y="-219" font-family="Helvetica,sans-Serif" font-size="10.00"> id</text>
</g>
<!-- Node3 -->
<g id="node3" class="node"><title>Node3</title>
<polygon fill="white" stroke="#bfbfbf" points="50,-78.5 50,-108.5 187,-108.5 187,-78.5 50,-78.5"/>
<text text-anchor="start" x="58" y="-96.5" font-family="Helvetica,sans-Serif" font-size="10.00">std::vector&lt; dpp::command</text>
<text text-anchor="middle" x="118.5" y="-85.5" font-family="Helvetica,sans-Serif" font-size="10.00">_permission &gt;</text>
</g>
<!-- Node3&#45;&gt;Node1 -->
<g id="edge2" class="edge"><title>Node3&#45;&gt;Node1</title>
<path fill="none" stroke="#9a32cd" stroke-dasharray="5,2" d="M99.5187,-70.3065C88.5939,-57.5329 75.1891,-41.8596 65.6712,-30.7309"/>
<polygon fill="#9a32cd" stroke="#9a32cd" points="97.1144,-72.8802 106.274,-78.205 102.434,-68.3304 97.1144,-72.8802"/>
<text text-anchor="middle" x="118.5" y="-52" font-family="Helvetica,sans-Serif" font-size="10.00"> permissions</text>
</g>
<!-- Node4&#45;&gt;Node3 -->
<g id="edge3" class="edge"><title>Node4&#45;&gt;Node3</title>
<path fill="none" stroke="#9a32cd" stroke-dasharray="5,2" d="M117.702,-168.287C117.893,-150.67 118.174,-124.67 118.346,-108.7"/>
<polygon fill="#9a32cd" stroke="#9a32cd" points="114.201,-168.426 117.592,-178.464 121.2,-168.502 114.201,-168.426"/>
<text text-anchor="middle" x="140" y="-141" font-family="Helvetica,sans-Serif" font-size="10.00"> elements</text>
</g>
<!-- Node5 -->
<g id="node5" class="node"><title>Node5</title>
<polygon fill="white" stroke="#bfbfbf" points="91,-245.5 91,-264.5 126,-264.5 126,-245.5 91,-245.5"/>
<text text-anchor="middle" x="108.5" y="-252.5" font-family="Helvetica,sans-Serif" font-size="10.00">bool</text>
</g>
<!-- Node5&#45;&gt;Node4 -->
<g id="edge5" class="edge"><title>Node5&#45;&gt;Node4</title>
<path fill="none" stroke="#9a32cd" stroke-dasharray="5,2" d="M111.126,-235.037C112.838,-222.67 114.991,-207.12 116.305,-197.627"/>
<polygon fill="#9a32cd" stroke="#9a32cd" points="107.618,-234.848 109.714,-245.234 114.552,-235.808 107.618,-234.848"/>
<text text-anchor="middle" x="140" y="-219" font-family="Helvetica,sans-Serif" font-size="10.00"> permission</text>
</g>
<!-- Node6 -->
<g id="node6" class="node"><title>Node6</title>
<polygon fill="white" stroke="#bfbfbf" points="144.5,-245.5 144.5,-264.5 280.5,-264.5 280.5,-245.5 144.5,-245.5"/>
<text text-anchor="middle" x="212.5" y="-252.5" font-family="Helvetica,sans-Serif" font-size="10.00">command_permission_type</text>
</g>
<!-- Node6&#45;&gt;Node4 -->
<g id="edge6" class="edge"><title>Node6&#45;&gt;Node4</title>
<path fill="none" stroke="#9a32cd" stroke-dasharray="5,2" d="M196.542,-238.208C188.757,-230.958 179.032,-222.54 169.5,-216 159.267,-208.979 146.977,-202.518 136.916,-197.678"/>
<polygon fill="#9a32cd" stroke="#9a32cd" points="194.484,-241.083 204.127,-245.472 199.326,-236.028 194.484,-241.083"/>
<text text-anchor="middle" x="194.5" y="-219" font-family="Helvetica,sans-Serif" font-size="10.00"> type</text>
</g>
</g>
</svg>
