<?xml version="1.0" encoding="UTF-8" standalone="no"?>
<!DOCTYPE svg PUBLIC "-//W3C//DTD SVG 1.1//EN"
 "http://www.w3.org/Graphics/SVG/1.1/DTD/svg11.dtd">
<!-- Generated by graphviz version 2.38.0 (20140413.2041)
 -->
<!-- Title: dpp::channel Pages: 1 -->
<!--zoomable 489 -->
<svg id="main" version="1.1" xmlns="http://www.w3.org/2000/svg" xmlns:xlink="http://www.w3.org/1999/xlink" xml:space="preserve" onload="init(evt)">
<style type="text/css"><![CDATA[
.edge:hover path { stroke: red; }
.edge:hover polygon { stroke: red; fill: red; }
]]></style>
<script type="text/javascript"><![CDATA[
var edges = document.getElementsByTagName('g');
if (edges && edges.length) {
  for (var i=0;i<edges.length;i++) {
    if (edges[i].id.substr(0,4)=='edge') {
      edges[i].setAttribute('class','edge');
    }
  }
}
]]></script>
        <defs>
                <circle id="rim" cx="0" cy="0" r="7"/>
                <circle id="rim2" cx="0" cy="0" r="3.5"/>
                <g id="zoomPlus">
                        <use xlink:href="#rim" fill="#404040">
                                <set attributeName="fill" to="#808080" begin="zoomplus.mouseover" end="zoomplus.mouseout"/>
                        </use>
                        <path d="M-4,0h8M0,-4v8" fill="none" stroke="white" stroke-width="1.5" pointer-events="none"/>
                </g>
                <g id="zoomMin">
                        <use xlink:href="#rim" fill="#404040">
                                <set attributeName="fill" to="#808080" begin="zoomminus.mouseover" end="zoomminus.mouseout"/>
                        </use>
                        <path d="M-4,0h8" fill="none" stroke="white" stroke-width="1.5" pointer-events="none"/>
                </g>
                <g id="dirArrow">
                        <path fill="none" stroke="white" stroke-width="1.5" d="M0,-3.0v7 M-2.5,-0.5L0,-3.0L2.5,-0.5"/>
                </g>
               <g id="resetDef">
                       <use xlink:href="#rim2" fill="#404040">
                               <set attributeName="fill" to="#808080" begin="reset.mouseover" end="reset.mouseout"/>
                       </use>
               </g>
        </defs>

<script type="text/javascript">
var viewWidth = 780;
var viewHeight = 489;
var sectionId = 'dynsection-1';
</script>
<script xlink:href="svgpan.js"/>
<svg id="graph" class="graph">
<g id="viewport">
<title>dpp::channel</title>
<polygon fill="white" stroke="none" points="-4,4 -4,-485.29 776,-485.29 776,4 -4,4"/>
<!-- Node1 -->
<g id="node1" class="node"><title>Node1</title>
<polygon fill="#bfbfbf" stroke="black" points="700,-260.79 700,-279.79 772,-279.79 772,-260.79 700,-260.79"/>
<text text-anchor="middle" x="736" y="-267.79" font-family="Helvetica,sans-Serif" font-size="10.00">dpp::channel</text>
</g>
<!-- Node2 -->
<g id="node2" class="node"><title>Node2</title>
<g id="a_node2"><a xlink:href="classdpp_1_1managed.html" target="_top" xlink:title="The managed class is the base class for various types that can be stored in a cache that are identifi...">
<polygon fill="white" stroke="black" points="302.5,-399.79 302.5,-418.79 380.5,-418.79 380.5,-399.79 302.5,-399.79"/>
<text text-anchor="middle" x="341.5" y="-406.79" font-family="Helvetica,sans-Serif" font-size="10.00">dpp::managed</text>
</a>
</g>
</g>
<!-- Node2&#45;&gt;Node1 -->
<g id="edge1" class="edge"><title>Node2&#45;&gt;Node1</title>
<path fill="none" stroke="midnightblue" d="M390.609,-418.437C461.232,-429.073 594.093,-438.169 682,-377.29 716.085,-353.685 729.261,-301.656 733.394,-280.022"/>
<polygon fill="midnightblue" stroke="midnightblue" points="391.078,-414.967 380.654,-416.864 389.986,-421.882 391.078,-414.967"/>
</g>
<!-- Node3 -->
<g id="node3" class="node"><title>Node3</title>
<polygon fill="white" stroke="#bfbfbf" points="0,-269.79 0,-288.79 51,-288.79 51,-269.79 0,-269.79"/>
<text text-anchor="middle" x="25.5" y="-276.79" font-family="Helvetica,sans-Serif" font-size="10.00">uint64_t</text>
</g>
<!-- Node3&#45;&gt;Node1 -->
<g id="edge8" class="edge"><title>Node3&#45;&gt;Node1</title>
<path fill="none" stroke="#9a32cd" stroke-dasharray="5,2" d="M39.3543,-261.594C56.9874,-238.811 90.9722,-199.94 130,-181.29 190.287,-152.482 212.333,-165.745 279,-161.29 459.618,-149.223 521.662,-136.265 682,-220.29 701.048,-230.272 718.17,-249.046 727.524,-260.533"/>
<polygon fill="#9a32cd" stroke="#9a32cd" points="36.4453,-259.639 33.2231,-269.732 42.0361,-263.851 36.4453,-259.639"/>
<text text-anchor="middle" x="341.5" y="-197.29" font-family="Helvetica,sans-Serif" font-size="10.00"> parent_id</text>
<text text-anchor="middle" x="341.5" y="-186.29" font-family="Helvetica,sans-Serif" font-size="10.00">last_message_id</text>
<text text-anchor="middle" x="341.5" y="-175.29" font-family="Helvetica,sans-Serif" font-size="10.00">guild_id</text>
<text text-anchor="middle" x="341.5" y="-164.29" font-family="Helvetica,sans-Serif" font-size="10.00">owner_id</text>
</g>
<!-- Node3&#45;&gt;Node2 -->
<g id="edge2" class="edge"><title>Node3&#45;&gt;Node2</title>
<path fill="none" stroke="#9a32cd" stroke-dasharray="5,2" d="M40.1696,-296.714C58.2422,-318.423 92.2422,-354.895 130,-373.29 185.828,-400.49 258.716,-407.508 302.439,-409.11"/>
<polygon fill="#9a32cd" stroke="#9a32cd" points="42.8649,-294.481 33.843,-288.927 37.4318,-298.895 42.8649,-294.481"/>
<text text-anchor="middle" x="90.5" y="-366.29" font-family="Helvetica,sans-Serif" font-size="10.00"> id</text>
</g>
<!-- Node11 -->
<g id="node11" class="node"><title>Node11</title>
<polygon fill="white" stroke="#bfbfbf" points="279,-446.79 279,-465.79 404,-465.79 404,-446.79 279,-446.79"/>
<text text-anchor="middle" x="341.5" y="-453.79" font-family="Helvetica,sans-Serif" font-size="10.00">std::vector&lt; snowflake &gt;</text>
</g>
<!-- Node3&#45;&gt;Node11 -->
<g id="edge14" class="edge"><title>Node3&#45;&gt;Node11</title>
<path fill="none" stroke="#9a32cd" stroke-dasharray="5,2" d="M30.3367,-298.942C35.5615,-320.901 46.9084,-356.256 69,-378.29 124.817,-433.963 217.587,-450.474 278.894,-455.053"/>
<polygon fill="#9a32cd" stroke="#9a32cd" points="33.7385,-298.113 28.1905,-289.087 26.8989,-299.603 33.7385,-298.113"/>
<text text-anchor="middle" x="90.5" y="-411.29" font-family="Helvetica,sans-Serif" font-size="10.00"> elements</text>
</g>
<!-- Node13 -->
<g id="node13" class="node"><title>Node13</title>
<g id="a_node13"><a xlink:href="structdpp_1_1permission__overwrite.html" target="_top" xlink:title="channel permission overwrites ">
<polygon fill="white" stroke="black" points="130,-97.7904 130,-116.79 261,-116.79 261,-97.7904 130,-97.7904"/>
<text text-anchor="middle" x="195.5" y="-104.79" font-family="Helvetica,sans-Serif" font-size="10.00">dpp::permission_overwrite</text>
</a>
</g>
</g>
<!-- Node3&#45;&gt;Node13 -->
<g id="edge17" class="edge"><title>Node3&#45;&gt;Node13</title>
<path fill="none" stroke="#9a32cd" stroke-dasharray="5,2" d="M28.4314,-259.474C32.8701,-218.557 45.2843,-126.986 69,-108.29 95.3514,-87.517 135.414,-91.3747 163.156,-97.7467"/>
<polygon fill="#9a32cd" stroke="#9a32cd" points="24.9348,-259.262 27.3882,-269.569 31.8977,-259.981 24.9348,-259.262"/>
<text text-anchor="middle" x="90.5" y="-133.29" font-family="Helvetica,sans-Serif" font-size="10.00"> allow</text>
<text text-anchor="middle" x="90.5" y="-122.29" font-family="Helvetica,sans-Serif" font-size="10.00">deny</text>
<text text-anchor="middle" x="90.5" y="-111.29" font-family="Helvetica,sans-Serif" font-size="10.00">id</text>
</g>
<!-- Node4 -->
<g id="node4" class="node"><title>Node4</title>
<g id="a_node4"><a xlink:href="structdpp_1_1thread__metadata.html" target="_top" xlink:title="metadata for threads ">
<polygon fill="white" stroke="black" points="437,-260.79 437,-279.79 548,-279.79 548,-260.79 437,-260.79"/>
<text text-anchor="middle" x="492.5" y="-267.79" font-family="Helvetica,sans-Serif" font-size="10.00">dpp::thread_metadata</text>
</a>
</g>
</g>
<!-- Node4&#45;&gt;Node1 -->
<g id="edge3" class="edge"><title>Node4&#45;&gt;Node1</title>
<path fill="none" stroke="#9a32cd" stroke-dasharray="5,2" d="M558.368,-270.29C603.836,-270.29 662.867,-270.29 699.847,-270.29"/>
<polygon fill="#9a32cd" stroke="#9a32cd" points="558.3,-266.791 548.3,-270.29 558.3,-273.791 558.3,-266.791"/>
<text text-anchor="middle" x="631.5" y="-273.29" font-family="Helvetica,sans-Serif" font-size="10.00"> metadata</text>
</g>
<!-- Node5 -->
<g id="node5" class="node"><title>Node5</title>
<polygon fill="white" stroke="#bfbfbf" points="173.5,-293.79 173.5,-312.79 217.5,-312.79 217.5,-293.79 173.5,-293.79"/>
<text text-anchor="middle" x="195.5" y="-300.79" font-family="Helvetica,sans-Serif" font-size="10.00">time_t</text>
</g>
<!-- Node5&#45;&gt;Node1 -->
<g id="edge7" class="edge"><title>Node5&#45;&gt;Node1</title>
<path fill="none" stroke="#9a32cd" stroke-dasharray="5,2" d="M227.564,-304.939C304.975,-308.444 512.445,-314.124 682,-285.29 689.731,-283.976 697.946,-281.964 705.544,-279.837"/>
<polygon fill="#9a32cd" stroke="#9a32cd" points="227.676,-301.441 217.521,-304.463 227.344,-308.433 227.676,-301.441"/>
<text text-anchor="middle" x="492.5" y="-310.29" font-family="Helvetica,sans-Serif" font-size="10.00"> last_pin_timestamp</text>
</g>
<!-- Node5&#45;&gt;Node4 -->
<g id="edge4" class="edge"><title>Node5&#45;&gt;Node4</title>
<path fill="none" stroke="#9a32cd" stroke-dasharray="5,2" d="M227.869,-298.382C243.254,-296.063 262.074,-293.357 279,-291.29 332.542,-284.754 393.867,-278.864 436.831,-274.997"/>
<polygon fill="#9a32cd" stroke="#9a32cd" points="227.189,-294.945 217.831,-299.913 228.244,-301.865 227.189,-294.945"/>
<text text-anchor="middle" x="341.5" y="-294.29" font-family="Helvetica,sans-Serif" font-size="10.00"> archive_timestamp</text>
</g>
<!-- Node6 -->
<g id="node6" class="node"><title>Node6</title>
<polygon fill="white" stroke="#bfbfbf" points="170,-344.79 170,-363.79 221,-363.79 221,-344.79 170,-344.79"/>
<text text-anchor="middle" x="195.5" y="-351.79" font-family="Helvetica,sans-Serif" font-size="10.00">uint16_t</text>
</g>
<!-- Node6&#45;&gt;Node1 -->
<g id="edge9" class="edge"><title>Node6&#45;&gt;Node1</title>
<path fill="none" stroke="#9a32cd" stroke-dasharray="5,2" d="M231.24,-355.834C245.967,-356.416 263.318,-357.005 279,-357.29 459.51,-360.571 514.952,-374.771 682,-306.29 697.644,-299.877 713.395,-288.388 723.611,-280.112"/>
<polygon fill="#9a32cd" stroke="#9a32cd" points="231.176,-352.329 221.041,-355.416 230.89,-359.323 231.176,-352.329"/>
<text text-anchor="middle" x="492.5" y="-375.29" font-family="Helvetica,sans-Serif" font-size="10.00"> rate_limit_per_user</text>
<text text-anchor="middle" x="492.5" y="-364.29" font-family="Helvetica,sans-Serif" font-size="10.00">position</text>
</g>
<!-- Node6&#45;&gt;Node4 -->
<g id="edge5" class="edge"><title>Node6&#45;&gt;Node4</title>
<path fill="none" stroke="#9a32cd" stroke-dasharray="5,2" d="M231.074,-350.173C273.258,-344.285 346.107,-331.292 404,-306.29 412.827,-302.478 413.386,-298.561 422,-294.29 433.437,-288.62 446.543,-283.718 458.27,-279.849"/>
<polygon fill="#9a32cd" stroke="#9a32cd" points="230.483,-346.721 221.038,-351.52 231.414,-353.659 230.483,-346.721"/>
<text text-anchor="middle" x="341.5" y="-345.29" font-family="Helvetica,sans-Serif" font-size="10.00"> auto_archive_duration</text>
</g>
<!-- Node7 -->
<g id="node7" class="node"><title>Node7</title>
<polygon fill="white" stroke="#bfbfbf" points="178,-240.79 178,-259.79 213,-259.79 213,-240.79 178,-240.79"/>
<text text-anchor="middle" x="195.5" y="-247.79" font-family="Helvetica,sans-Serif" font-size="10.00">bool</text>
</g>
<!-- Node7&#45;&gt;Node4 -->
<g id="edge6" class="edge"><title>Node7&#45;&gt;Node4</title>
<path fill="none" stroke="#9a32cd" stroke-dasharray="5,2" d="M223.162,-247.189C262.803,-243.161 339.536,-237.61 404,-246.29 424.451,-249.044 446.884,-255.264 463.915,-260.682"/>
<polygon fill="#9a32cd" stroke="#9a32cd" points="222.579,-243.731 213.006,-248.272 223.321,-250.692 222.579,-243.731"/>
<text text-anchor="middle" x="341.5" y="-260.29" font-family="Helvetica,sans-Serif" font-size="10.00"> archived</text>
<text text-anchor="middle" x="341.5" y="-249.29" font-family="Helvetica,sans-Serif" font-size="10.00">locked</text>
</g>
<!-- Node8 -->
<g id="node8" class="node"><title>Node8</title>
<g id="a_node8"><a xlink:title="STL class. ">
<polygon fill="white" stroke="#bfbfbf" points="462.5,-206.79 462.5,-225.79 522.5,-225.79 522.5,-206.79 462.5,-206.79"/>
<text text-anchor="middle" x="492.5" y="-213.79" font-family="Helvetica,sans-Serif" font-size="10.00">std::string</text>
</a>
</g>
</g>
<!-- Node8&#45;&gt;Node1 -->
<g id="edge10" class="edge"><title>Node8&#45;&gt;Node1</title>
<path fill="none" stroke="#9a32cd" stroke-dasharray="5,2" d="M532.846,-218.594C571.534,-221.677 631.902,-228.696 682,-244.29 694.917,-248.311 708.605,-255.098 718.834,-260.73"/>
<polygon fill="#9a32cd" stroke="#9a32cd" points="532.769,-215.078 522.536,-217.825 532.248,-222.059 532.769,-215.078"/>
<text text-anchor="middle" x="631.5" y="-258.29" font-family="Helvetica,sans-Serif" font-size="10.00"> topic</text>
<text text-anchor="middle" x="631.5" y="-247.29" font-family="Helvetica,sans-Serif" font-size="10.00">name</text>
</g>
<!-- Node9 -->
<g id="node9" class="node"><title>Node9</title>
<g id="a_node9"><a xlink:title="STL class. ">
<polygon fill="white" stroke="#bfbfbf" points="148,-191.29 148,-221.29 243,-221.29 243,-191.29 148,-191.29"/>
<text text-anchor="start" x="156" y="-209.29" font-family="Helvetica,sans-Serif" font-size="10.00">std::basic_string&lt;</text>
<text text-anchor="middle" x="195.5" y="-198.29" font-family="Helvetica,sans-Serif" font-size="10.00"> char &gt;</text>
</a>
</g>
</g>
<!-- Node9&#45;&gt;Node8 -->
<g id="edge11" class="edge"><title>Node9&#45;&gt;Node8</title>
<path fill="none" stroke="midnightblue" d="M253.345,-208.217C315.891,-210.338 413.962,-213.662 462.412,-215.304"/>
<polygon fill="midnightblue" stroke="midnightblue" points="253.356,-204.716 243.244,-207.875 253.119,-211.712 253.356,-204.716"/>
</g>
<!-- Node10 -->
<g id="node10" class="node"><title>Node10</title>
<polygon fill="white" stroke="#bfbfbf" points="2.5,-47.7904 2.5,-66.7904 48.5,-66.7904 48.5,-47.7904 2.5,-47.7904"/>
<text text-anchor="middle" x="25.5" y="-54.7904" font-family="Helvetica,sans-Serif" font-size="10.00">uint8_t</text>
</g>
<!-- Node10&#45;&gt;Node1 -->
<g id="edge12" class="edge"><title>Node10&#45;&gt;Node1</title>
<path fill="none" stroke="#9a32cd" stroke-dasharray="5,2" d="M58.4133,-47.3691C162.398,-17.199 495.47,62.1345 682,-95.2904 733.43,-138.696 736.026,-230.224 735.399,-260.405"/>
<polygon fill="#9a32cd" stroke="#9a32cd" points="57.3997,-44.0189 48.8012,-50.209 59.3832,-50.7321 57.3997,-44.0189"/>
<text text-anchor="middle" x="341.5" y="-41.2904" font-family="Helvetica,sans-Serif" font-size="10.00"> flags</text>
<text text-anchor="middle" x="341.5" y="-30.2904" font-family="Helvetica,sans-Serif" font-size="10.00">user_limit</text>
<text text-anchor="middle" x="341.5" y="-19.2904" font-family="Helvetica,sans-Serif" font-size="10.00">message_count</text>
<text text-anchor="middle" x="341.5" y="-8.29041" font-family="Helvetica,sans-Serif" font-size="10.00">member_count</text>
</g>
<!-- Node10&#45;&gt;Node13 -->
<g id="edge18" class="edge"><title>Node10&#45;&gt;Node13</title>
<path fill="none" stroke="#9a32cd" stroke-dasharray="5,2" d="M58.6059,-62.2297C74.7916,-65.0829 94.6228,-69.1353 112,-74.2904 133.444,-80.6521 157.064,-90.3941 173.514,-97.6462"/>
<polygon fill="#9a32cd" stroke="#9a32cd" points="59.0024,-58.7471 48.5584,-60.5284 57.8337,-65.6489 59.0024,-58.7471"/>
<text text-anchor="middle" x="90.5" y="-77.2904" font-family="Helvetica,sans-Serif" font-size="10.00"> type</text>
</g>
<!-- Node11&#45;&gt;Node1 -->
<g id="edge13" class="edge"><title>Node11&#45;&gt;Node1</title>
<path fill="none" stroke="#9a32cd" stroke-dasharray="5,2" d="M407.723,-467.074C483.019,-475.591 606.2,-476.863 682,-411.29 722.94,-375.874 732.325,-305.543 734.418,-279.918"/>
<polygon fill="#9a32cd" stroke="#9a32cd" points="407.774,-463.554 397.426,-465.83 406.935,-470.504 407.774,-463.554"/>
<text text-anchor="middle" x="492.5" y="-473.29" font-family="Helvetica,sans-Serif" font-size="10.00"> recipients</text>
</g>
<!-- Node12 -->
<g id="node12" class="node"><title>Node12</title>
<polygon fill="white" stroke="#bfbfbf" points="422,-94.2904 422,-124.29 563,-124.29 563,-94.2904 422,-94.2904"/>
<text text-anchor="start" x="430" y="-112.29" font-family="Helvetica,sans-Serif" font-size="10.00">std::vector&lt; dpp::permission</text>
<text text-anchor="middle" x="492.5" y="-101.29" font-family="Helvetica,sans-Serif" font-size="10.00">_overwrite &gt;</text>
</g>
<!-- Node12&#45;&gt;Node1 -->
<g id="edge15" class="edge"><title>Node12&#45;&gt;Node1</title>
<path fill="none" stroke="#9a32cd" stroke-dasharray="5,2" d="M573.348,-99.2196C609.864,-98.8452 651.647,-104.879 682,-128.29 725.339,-161.719 733.24,-234.568 734.68,-260.712"/>
<polygon fill="#9a32cd" stroke="#9a32cd" points="573.107,-95.7246 563.203,-99.4859 573.291,-102.722 573.107,-95.7246"/>
<text text-anchor="middle" x="631.5" y="-131.29" font-family="Helvetica,sans-Serif" font-size="10.00"> permission_overwrites</text>
</g>
<!-- Node13&#45;&gt;Node12 -->
<g id="edge16" class="edge"><title>Node13&#45;&gt;Node12</title>
<path fill="none" stroke="#9a32cd" stroke-dasharray="5,2" d="M271.496,-107.799C317.709,-108.112 376.56,-108.511 421.764,-108.818"/>
<polygon fill="#9a32cd" stroke="#9a32cd" points="271.263,-104.297 261.239,-107.729 271.215,-111.297 271.263,-104.297"/>
<text text-anchor="middle" x="341.5" y="-112.29" font-family="Helvetica,sans-Serif" font-size="10.00"> elements</text>
</g>
</g>
</svg>
        <g id="navigator" transform="translate(0 0)" fill="#404254">
                <rect fill="#f2f5e9" fill-opacity="0.5" stroke="#606060" stroke-width=".5" x="0" y="0" width="60" height="60"/>
                <use id="zoomplus" xlink:href="#zoomPlus" x="17" y="9" onmousedown="handleZoom(evt,'in')"/>
                <use id="zoomminus" xlink:href="#zoomMin" x="42" y="9" onmousedown="handleZoom(evt,'out')"/>
                <use id="reset" xlink:href="#resetDef" x="30" y="36" onmousedown="handleReset()"/>
                <g id="arrowUp" xlink:href="#dirArrow" transform="translate(30 24)" onmousedown="handlePan(0,-1)">
                  <use xlink:href="#rim" fill="#404040">
                        <set attributeName="fill" to="#808080" begin="arrowUp.mouseover" end="arrowUp.mouseout"/>
                  </use>
                  <path fill="none" stroke="white" stroke-width="1.5" d="M0,-3.0v7 M-2.5,-0.5L0,-3.0L2.5,-0.5"/>
                </g>
                <g id="arrowRight" xlink:href="#dirArrow" transform="rotate(90) translate(36 -43)" onmousedown="handlePan(1,0)">
                  <use xlink:href="#rim" fill="#404040">
                        <set attributeName="fill" to="#808080" begin="arrowRight.mouseover" end="arrowRight.mouseout"/>
                  </use>
                  <path fill="none" stroke="white" stroke-width="1.5" d="M0,-3.0v7 M-2.5,-0.5L0,-3.0L2.5,-0.5"/>
                </g>
                <g id="arrowDown" xlink:href="#dirArrow" transform="rotate(180) translate(-30 -48)" onmousedown="handlePan(0,1)">
                  <use xlink:href="#rim" fill="#404040">
                        <set attributeName="fill" to="#808080" begin="arrowDown.mouseover" end="arrowDown.mouseout"/>
                  </use>
                  <path fill="none" stroke="white" stroke-width="1.5" d="M0,-3.0v7 M-2.5,-0.5L0,-3.0L2.5,-0.5"/>
                </g>
                <g id="arrowLeft" xlink:href="#dirArrow" transform="rotate(270) translate(-36 17)" onmousedown="handlePan(-1,0)">
                  <use xlink:href="#rim" fill="#404040">
                        <set attributeName="fill" to="#808080" begin="arrowLeft.mouseover" end="arrowLeft.mouseout"/>
                  </use>
                  <path fill="none" stroke="white" stroke-width="1.5" d="M0,-3.0v7 M-2.5,-0.5L0,-3.0L2.5,-0.5"/>
                </g>
        </g>
        <svg viewBox="0 0 15 15" width="100%" height="30px" preserveAspectRatio="xMaxYMin meet">
         <g id="arrow_out" transform="scale(0.3 0.3)">
          <a xlink:href="classdpp_1_1channel__coll__graph_org.svg" target="_base">
           <rect id="button" ry="5" rx="5" y="6" x="6" height="38" width="38"
                fill="#f2f5e9" fill-opacity="0.5" stroke="#606060" stroke-width="1.0"/>
           <path id="arrow"
             d="M 11.500037,31.436501 C 11.940474,20.09759 22.043105,11.32322 32.158766,21.979434 L 37.068811,17.246167 C 37.068811,17.246167 37.088388,32 37.088388,32 L 22.160133,31.978069 C 22.160133,31.978069 26.997745,27.140456 26.997745,27.140456 C 18.528582,18.264221 13.291696,25.230495 11.500037,31.436501 z"
             style="fill:#404040;"/>
          </a>
         </g>
        </svg>
</svg>
