<?xml version="1.0" encoding="UTF-8" standalone="no"?>
<!DOCTYPE svg PUBLIC "-//W3C//DTD SVG 1.1//EN"
 "http://www.w3.org/Graphics/SVG/1.1/DTD/svg11.dtd">
<!-- Generated by graphviz version 2.43.0 (0)
 -->
<!-- Title: dpp::discord_voice_client Pages: 1 -->
<!--zoomable 983 -->
<svg id="main" version="1.1" xmlns="http://www.w3.org/2000/svg" xmlns:xlink="http://www.w3.org/1999/xlink" xml:space="preserve" onload="init(evt)">
<style type="text/css"><![CDATA[
.edge:hover path { stroke: red; }
.edge:hover polygon { stroke: red; fill: red; }
]]></style>
<script type="text/javascript"><![CDATA[
var edges = document.getElementsByTagName('g');
if (edges && edges.length) {
  for (var i=0;i<edges.length;i++) {
    if (edges[i].id.substr(0,4)=='edge') {
      edges[i].setAttribute('class','edge');
    }
  }
}
]]></script>
        <defs>
                <circle id="rim" cx="0" cy="0" r="7"/>
                <circle id="rim2" cx="0" cy="0" r="3.5"/>
                <g id="zoomPlus">
                        <use xlink:href="#rim" fill="#404040">
                                <set attributeName="fill" to="#808080" begin="zoomplus.mouseover" end="zoomplus.mouseout"/>
                        </use>
                        <path d="M-4,0h8M0,-4v8" fill="none" stroke="white" stroke-width="1.5" pointer-events="none"/>
                </g>
                <g id="zoomMin">
                        <use xlink:href="#rim" fill="#404040">
                                <set attributeName="fill" to="#808080" begin="zoomminus.mouseover" end="zoomminus.mouseout"/>
                        </use>
                        <path d="M-4,0h8" fill="none" stroke="white" stroke-width="1.5" pointer-events="none"/>
                </g>
                <g id="dirArrow">
                        <path fill="none" stroke="white" stroke-width="1.5" d="M0,-3.0v7 M-2.5,-0.5L0,-3.0L2.5,-0.5"/>
                </g>
               <g id="resetDef">
                       <use xlink:href="#rim2" fill="#404040">
                               <set attributeName="fill" to="#808080" begin="reset.mouseover" end="reset.mouseout"/>
                       </use>
               </g>
        </defs>

<script type="text/javascript">
var viewWidth = 1072;
var viewHeight = 983;
var sectionId = 'dynsection-1';
</script>
<script xlink:href="svgpan.js"/>
<svg id="graph" class="graph">
<g id="viewport">
<title>dpp::discord_voice_client</title>
<polygon fill="white" stroke="transparent" points="-4,4 -4,-979 1068,-979 1068,4 -4,4"/>
<!-- Node1 -->
<g id="node1" class="node">
<title>Node1</title>
<g id="a_node1"><a xlink:title="Implements a discord voice connection. Each discord_voice_client connects to one voice channel and de...">
<polygon fill="#bfbfbf" stroke="black" points="957,-369 957,-399 1064,-399 1064,-369 957,-369"/>
<text text-anchor="start" x="965" y="-387" font-family="Helvetica,sans-Serif" font-size="10.00">dpp::discord_voice</text>
<text text-anchor="middle" x="1010.5" y="-376" font-family="Helvetica,sans-Serif" font-size="10.00">_client</text>
</a>
</g>
</g>
<!-- Node2 -->
<g id="node2" class="node">
<title>Node2</title>
<g id="a_node2"><a xlink:href="classdpp_1_1websocket__client.html" target="_top" xlink:title="Implements a websocket client based on the SSL client.">
<polygon fill="white" stroke="black" points="747,-258.5 747,-277.5 872,-277.5 872,-258.5 747,-258.5"/>
<text text-anchor="middle" x="809.5" y="-265.5" font-family="Helvetica,sans-Serif" font-size="10.00">dpp::websocket_client</text>
</a>
</g>
</g>
<!-- Node2&#45;&gt;Node1 -->
<g id="edge1" class="edge">
<title>Node2&#45;&gt;Node1</title>
<path fill="none" stroke="midnightblue" d="M836.04,-282.89C874.07,-305.06 945.22,-346.53 983.51,-368.85"/>
<polygon fill="midnightblue" stroke="midnightblue" points="837.53,-279.7 827.12,-277.69 834,-285.75 837.53,-279.7"/>
</g>
<!-- Node3 -->
<g id="node3" class="node">
<title>Node3</title>
<g id="a_node3"><a xlink:href="classdpp_1_1ssl__client.html" target="_top" xlink:title="Implements a simple non&#45;blocking SSL stream client.">
<polygon fill="white" stroke="black" points="478,-219.5 478,-238.5 564,-238.5 564,-219.5 478,-219.5"/>
<text text-anchor="middle" x="521" y="-226.5" font-family="Helvetica,sans-Serif" font-size="10.00">dpp::ssl_client</text>
</a>
</g>
</g>
<!-- Node3&#45;&gt;Node2 -->
<g id="edge2" class="edge">
<title>Node3&#45;&gt;Node2</title>
<path fill="none" stroke="midnightblue" d="M574.28,-236.12C622.96,-242.74 695.54,-252.62 746.98,-259.63"/>
<polygon fill="midnightblue" stroke="midnightblue" points="574.65,-232.64 564.27,-234.75 573.71,-239.57 574.65,-232.64"/>
</g>
<!-- Node4 -->
<g id="node4" class="node">
<title>Node4</title>
<g id="a_node4"><a xlink:title=" ">
<polygon fill="white" stroke="#bfbfbf" points="206.5,-433.5 206.5,-452.5 271.5,-452.5 271.5,-433.5 206.5,-433.5"/>
<text text-anchor="middle" x="239" y="-440.5" font-family="Helvetica,sans-Serif" font-size="10.00">std::string</text>
</a>
</g>
</g>
<!-- Node4&#45;&gt;Node1 -->
<g id="edge35" class="edge">
<title>Node4&#45;&gt;Node1</title>
<path fill="none" stroke="#9a32cd" stroke-dasharray="5,2" d="M281.79,-442.02C346.27,-440.34 473.89,-436.36 582,-429 741.02,-418.18 780.86,-414.85 939,-395 944.78,-394.27 950.81,-393.45 956.81,-392.57"/>
<polygon fill="#9a32cd" stroke="#9a32cd" points="281.53,-438.52 271.62,-442.28 281.71,-445.52 281.53,-438.52"/>
<text text-anchor="middle" x="664.5" y="-441" font-family="Helvetica,sans-Serif" font-size="10.00"> sessionid</text>
<text text-anchor="middle" x="664.5" y="-430" font-family="Helvetica,sans-Serif" font-size="10.00">token</text>
</g>
<!-- Node4&#45;&gt;Node3 -->
<g id="edge3" class="edge">
<title>Node4&#45;&gt;Node3</title>
<path fill="none" stroke="#9a32cd" stroke-dasharray="5,2" d="M264.47,-428.08C276.73,-419.99 291.4,-409.34 303,-398 312.54,-388.68 311.48,-383.33 321,-374 368.3,-327.64 388.53,-326.1 442,-287 465.16,-270.07 491.96,-250.05 507.35,-238.51"/>
<polygon fill="#9a32cd" stroke="#9a32cd" points="262.56,-425.14 256.04,-433.49 266.35,-431.03 262.56,-425.14"/>
<text text-anchor="middle" x="381.5" y="-421" font-family="Helvetica,sans-Serif" font-size="10.00"> buffer</text>
<text text-anchor="middle" x="381.5" y="-410" font-family="Helvetica,sans-Serif" font-size="10.00">cipher</text>
<text text-anchor="middle" x="381.5" y="-399" font-family="Helvetica,sans-Serif" font-size="10.00">hostname</text>
<text text-anchor="middle" x="381.5" y="-388" font-family="Helvetica,sans-Serif" font-size="10.00">obuffer</text>
<text text-anchor="middle" x="381.5" y="-377" font-family="Helvetica,sans-Serif" font-size="10.00">port</text>
</g>
<!-- Node14 -->
<g id="node14" class="node">
<title>Node14</title>
<g id="a_node14"><a xlink:href="classdpp_1_1cluster.html" target="_top" xlink:title="The cluster class represents a group of shards and a command queue for sending and receiving commands...">
<polygon fill="white" stroke="black" points="772.5,-538.5 772.5,-557.5 846.5,-557.5 846.5,-538.5 772.5,-538.5"/>
<text text-anchor="middle" x="809.5" y="-545.5" font-family="Helvetica,sans-Serif" font-size="10.00">dpp::cluster</text>
</a>
</g>
</g>
<!-- Node4&#45;&gt;Node14 -->
<g id="edge14" class="edge">
<title>Node4&#45;&gt;Node14</title>
<path fill="none" stroke="#9a32cd" stroke-dasharray="5,2" d="M281.36,-450.43C294.06,-452.64 308.09,-455 321,-457 501.87,-485.04 552.87,-463.2 729,-513 751.06,-519.24 774.95,-530.41 790.72,-538.45"/>
<polygon fill="#9a32cd" stroke="#9a32cd" points="281.96,-446.98 271.5,-448.71 280.75,-453.88 281.96,-446.98"/>
<text text-anchor="middle" x="521" y="-485" font-family="Helvetica,sans-Serif" font-size="10.00"> token</text>
</g>
<!-- Node17 -->
<g id="node17" class="node">
<title>Node17</title>
<g id="a_node17"><a xlink:href="classdpp_1_1user.html" target="_top" xlink:title="Represents a user on discord. May or may not be a member of a dpp::guild.">
<polygon fill="white" stroke="black" points="490,-814.5 490,-833.5 552,-833.5 552,-814.5 490,-814.5"/>
<text text-anchor="middle" x="521" y="-821.5" font-family="Helvetica,sans-Serif" font-size="10.00">dpp::user</text>
</a>
</g>
</g>
<!-- Node4&#45;&gt;Node17 -->
<g id="edge21" class="edge">
<title>Node4&#45;&gt;Node17</title>
<path fill="none" stroke="#9a32cd" stroke-dasharray="5,2" d="M260.41,-459.22C274.18,-471.13 291.82,-488.41 303,-507 316.7,-529.76 309.35,-540.13 321,-564 362.64,-649.31 401.89,-653.96 442,-740 454.67,-767.17 439.19,-783.42 460,-805 467.81,-813.1 479.05,-817.76 489.69,-820.43"/>
<polygon fill="#9a32cd" stroke="#9a32cd" points="262.34,-456.27 252.43,-452.53 257.85,-461.64 262.34,-456.27"/>
<text text-anchor="middle" x="381.5" y="-743" font-family="Helvetica,sans-Serif" font-size="10.00"> username</text>
</g>
<!-- Node5 -->
<g id="node5" class="node">
<title>Node5</title>
<g id="a_node5"><a xlink:title=" ">
<polygon fill="white" stroke="#bfbfbf" points="0,-213 0,-243 104,-243 104,-213 0,-213"/>
<text text-anchor="start" x="8" y="-231" font-family="Helvetica,sans-Serif" font-size="10.00">std::basic_string&lt;</text>
<text text-anchor="middle" x="52" y="-220" font-family="Helvetica,sans-Serif" font-size="10.00"> Char &gt;</text>
</a>
</g>
</g>
<!-- Node5&#45;&gt;Node4 -->
<g id="edge4" class="edge">
<title>Node5&#45;&gt;Node4</title>
<path fill="none" stroke="midnightblue" d="M66.92,-252.33C87.59,-287.14 128.93,-352.03 175,-398 189.18,-412.15 208.19,-425.07 221.61,-433.4"/>
<polygon fill="midnightblue" stroke="midnightblue" points="69.74,-250.21 61.66,-243.35 63.7,-253.75 69.74,-250.21"/>
</g>
<!-- Node6 -->
<g id="node6" class="node">
<title>Node6</title>
<g id="a_node6"><a xlink:title=" ">
<polygon fill="white" stroke="#bfbfbf" points="220,-51.5 220,-70.5 258,-70.5 258,-51.5 220,-51.5"/>
<text text-anchor="middle" x="239" y="-58.5" font-family="Helvetica,sans-Serif" font-size="10.00">bool</text>
</a>
</g>
</g>
<!-- Node6&#45;&gt;Node1 -->
<g id="edge31" class="edge">
<title>Node6&#45;&gt;Node1</title>
<path fill="none" stroke="#9a32cd" stroke-dasharray="5,2" d="M268.26,-57.59C307.67,-53.64 381.15,-49.18 442,-62 645.93,-104.95 697.5,-135.06 872,-249 925.22,-283.75 975.18,-341.28 997.41,-368.64"/>
<polygon fill="#9a32cd" stroke="#9a32cd" points="267.66,-54.14 258.09,-58.68 268.41,-61.1 267.66,-54.14"/>
<text text-anchor="middle" x="664.5" y="-183" font-family="Helvetica,sans-Serif" font-size="10.00"> decode_voice_recv</text>
<text text-anchor="middle" x="664.5" y="-172" font-family="Helvetica,sans-Serif" font-size="10.00">sodium_initialised</text>
<text text-anchor="middle" x="664.5" y="-161" font-family="Helvetica,sans-Serif" font-size="10.00">terminating</text>
</g>
<!-- Node6&#45;&gt;Node3 -->
<g id="edge5" class="edge">
<title>Node6&#45;&gt;Node3</title>
<path fill="none" stroke="#9a32cd" stroke-dasharray="5,2" d="M268.44,-61.06C317.25,-61.67 414.36,-65.28 442,-84 491.23,-117.34 511.95,-192.23 517.99,-219.14"/>
<polygon fill="#9a32cd" stroke="#9a32cd" points="268.28,-57.55 258.25,-60.96 268.22,-64.55 268.28,-57.55"/>
<text text-anchor="middle" x="381.5" y="-87" font-family="Helvetica,sans-Serif" font-size="10.00"> nonblocking</text>
</g>
<!-- Node7 -->
<g id="node7" class="node">
<title>Node7</title>
<g id="a_node7"><a xlink:title=" ">
<polygon fill="white" stroke="#bfbfbf" points="224.5,-101.5 224.5,-120.5 253.5,-120.5 253.5,-101.5 224.5,-101.5"/>
<text text-anchor="middle" x="239" y="-108.5" font-family="Helvetica,sans-Serif" font-size="10.00">int</text>
</a>
</g>
</g>
<!-- Node7&#45;&gt;Node3 -->
<g id="edge6" class="edge">
<title>Node7&#45;&gt;Node3</title>
<path fill="none" stroke="#9a32cd" stroke-dasharray="5,2" d="M263.88,-105.72C303.57,-98.27 384.46,-88.78 442,-120 483.32,-142.42 507.99,-197.32 516.57,-219.49"/>
<polygon fill="#9a32cd" stroke="#9a32cd" points="262.94,-102.34 253.83,-107.74 264.32,-109.2 262.94,-102.34"/>
<text text-anchor="middle" x="381.5" y="-123" font-family="Helvetica,sans-Serif" font-size="10.00"> sfd</text>
</g>
<!-- Node8 -->
<g id="node8" class="node">
<title>Node8</title>
<g id="a_node8"><a xlink:href="classdpp_1_1opensslcontext.html" target="_top" xlink:title="This is an opaque class containing openssl library specific structures. We define it this way so that...">
<polygon fill="white" stroke="black" points="181.5,-177.5 181.5,-196.5 296.5,-196.5 296.5,-177.5 181.5,-177.5"/>
<text text-anchor="middle" x="239" y="-184.5" font-family="Helvetica,sans-Serif" font-size="10.00">dpp::opensslcontext</text>
</a>
</g>
</g>
<!-- Node8&#45;&gt;Node3 -->
<g id="edge7" class="edge">
<title>Node8&#45;&gt;Node3</title>
<path fill="none" stroke="#9a32cd" stroke-dasharray="5,2" d="M306.62,-196.81C346.01,-202.62 396.85,-210.17 442,-217 453.65,-218.76 466.28,-220.69 477.91,-222.48"/>
<polygon fill="#9a32cd" stroke="#9a32cd" points="307.01,-193.32 296.61,-195.33 305.99,-200.25 307.01,-193.32"/>
<text text-anchor="middle" x="381.5" y="-220" font-family="Helvetica,sans-Serif" font-size="10.00"> ssl</text>
</g>
<!-- Node9 -->
<g id="node9" class="node">
<title>Node9</title>
<g id="a_node9"><a xlink:title=" ">
<polygon fill="white" stroke="#bfbfbf" points="31,-174.5 31,-193.5 73,-193.5 73,-174.5 31,-174.5"/>
<text text-anchor="middle" x="52" y="-181.5" font-family="Helvetica,sans-Serif" font-size="10.00">SSL *</text>
</a>
</g>
</g>
<!-- Node9&#45;&gt;Node8 -->
<g id="edge8" class="edge">
<title>Node9&#45;&gt;Node8</title>
<path fill="none" stroke="#9a32cd" stroke-dasharray="5,2" d="M83.33,-184.49C109.83,-184.92 149,-185.56 181.29,-186.08"/>
<polygon fill="#9a32cd" stroke="#9a32cd" points="83.21,-180.99 73.15,-184.33 83.09,-187.99 83.21,-180.99"/>
<text text-anchor="middle" x="139.5" y="-188" font-family="Helvetica,sans-Serif" font-size="10.00"> ssl</text>
</g>
<!-- Node10 -->
<g id="node10" class="node">
<title>Node10</title>
<g id="a_node10"><a xlink:title=" ">
<polygon fill="white" stroke="#bfbfbf" points="18.5,-136.5 18.5,-155.5 85.5,-155.5 85.5,-136.5 18.5,-136.5"/>
<text text-anchor="middle" x="52" y="-143.5" font-family="Helvetica,sans-Serif" font-size="10.00">SSL_CTX *</text>
</a>
</g>
</g>
<!-- Node10&#45;&gt;Node8 -->
<g id="edge9" class="edge">
<title>Node10&#45;&gt;Node8</title>
<path fill="none" stroke="#9a32cd" stroke-dasharray="5,2" d="M95.74,-155.47C125.5,-162.07 165.06,-170.84 194.91,-177.45"/>
<polygon fill="#9a32cd" stroke="#9a32cd" points="96.17,-151.98 85.65,-153.24 94.65,-158.82 96.17,-151.98"/>
<text text-anchor="middle" x="139.5" y="-171" font-family="Helvetica,sans-Serif" font-size="10.00"> ctx</text>
</g>
<!-- Node11 -->
<g id="node11" class="node">
<title>Node11</title>
<g id="a_node11"><a xlink:title=" ">
<polygon fill="white" stroke="#bfbfbf" points="215,-369.5 215,-388.5 263,-388.5 263,-369.5 215,-369.5"/>
<text text-anchor="middle" x="239" y="-376.5" font-family="Helvetica,sans-Serif" font-size="10.00">time_t</text>
</a>
</g>
</g>
<!-- Node11&#45;&gt;Node1 -->
<g id="edge33" class="edge">
<title>Node11&#45;&gt;Node1</title>
<path fill="none" stroke="#9a32cd" stroke-dasharray="5,2" d="M273.77,-378.63C353.17,-377.84 557.93,-376.17 729,-378 808.39,-378.85 900.4,-381.05 956.77,-382.54"/>
<polygon fill="#9a32cd" stroke="#9a32cd" points="273.38,-375.14 263.41,-378.74 273.45,-382.14 273.38,-375.14"/>
<text text-anchor="middle" x="664.5" y="-381" font-family="Helvetica,sans-Serif" font-size="10.00"> last_heartbeat</text>
</g>
<!-- Node11&#45;&gt;Node3 -->
<g id="edge10" class="edge">
<title>Node11&#45;&gt;Node3</title>
<path fill="none" stroke="#9a32cd" stroke-dasharray="5,2" d="M249.17,-360.45C261.87,-336.81 287.15,-296.57 321,-276 367.78,-247.57 388.87,-266.18 442,-253 458.64,-248.87 476.97,-243.28 491.69,-238.54"/>
<polygon fill="#9a32cd" stroke="#9a32cd" points="246,-358.96 244.51,-369.45 252.21,-362.18 246,-358.96"/>
<text text-anchor="middle" x="381.5" y="-279" font-family="Helvetica,sans-Serif" font-size="10.00"> last_tick</text>
</g>
<!-- Node11&#45;&gt;Node14 -->
<g id="edge15" class="edge">
<title>Node11&#45;&gt;Node14</title>
<path fill="none" stroke="#9a32cd" stroke-dasharray="5,2" d="M273.27,-383.66C369.61,-397.5 647.12,-439.88 729,-480 759.01,-494.71 786.95,-523.4 800.29,-538.38"/>
<polygon fill="#9a32cd" stroke="#9a32cd" points="273.62,-380.17 263.22,-382.23 272.63,-387.1 273.62,-380.17"/>
<text text-anchor="middle" x="521" y="-439" font-family="Helvetica,sans-Serif" font-size="10.00"> last_identify</text>
</g>
<!-- Node12 -->
<g id="node12" class="node">
<title>Node12</title>
<g id="a_node12"><a xlink:title=" ">
<polygon fill="white" stroke="#bfbfbf" points="24,-885.5 24,-904.5 80,-904.5 80,-885.5 24,-885.5"/>
<text text-anchor="middle" x="52" y="-892.5" font-family="Helvetica,sans-Serif" font-size="10.00">uint64_t</text>
</a>
</g>
</g>
<!-- Node12&#45;&gt;Node1 -->
<g id="edge36" class="edge">
<title>Node12&#45;&gt;Node1</title>
<path fill="none" stroke="#9a32cd" stroke-dasharray="5,2" d="M76.45,-909.95C89.42,-917.6 106.1,-926.45 122,-932 171.47,-949.26 185.61,-953 238,-953 238,-953 238,-953 810.5,-953 931.37,-953 996.14,-489.71 1007.64,-399.22"/>
<polygon fill="#9a32cd" stroke="#9a32cd" points="78.08,-906.85 67.72,-904.66 74.45,-912.84 78.08,-906.85"/>
<text text-anchor="middle" x="521" y="-967" font-family="Helvetica,sans-Serif" font-size="10.00"> channel_id</text>
<text text-anchor="middle" x="521" y="-956" font-family="Helvetica,sans-Serif" font-size="10.00">server_id</text>
</g>
<!-- Node12&#45;&gt;Node3 -->
<g id="edge11" class="edge">
<title>Node12&#45;&gt;Node3</title>
<path fill="none" stroke="#9a32cd" stroke-dasharray="5,2" d="M55.13,-875.45C65.03,-787.29 108.97,-427.18 175,-338 246.21,-241.83 402.48,-228.43 477.79,-227.87"/>
<polygon fill="#9a32cd" stroke="#9a32cd" points="51.64,-875.1 54.02,-885.43 58.6,-875.87 51.64,-875.1"/>
<text text-anchor="middle" x="239" y="-352" font-family="Helvetica,sans-Serif" font-size="10.00"> bytes_in</text>
<text text-anchor="middle" x="239" y="-341" font-family="Helvetica,sans-Serif" font-size="10.00">bytes_out</text>
</g>
<!-- Node18 -->
<g id="node18" class="node">
<title>Node18</title>
<g id="a_node18"><a xlink:href="classdpp_1_1managed.html" target="_top" xlink:title="The managed class is the base class for various types that can be stored in a cache that are identifi...">
<polygon fill="white" stroke="black" points="196,-867.5 196,-886.5 282,-886.5 282,-867.5 196,-867.5"/>
<text text-anchor="middle" x="239" y="-874.5" font-family="Helvetica,sans-Serif" font-size="10.00">dpp::managed</text>
</a>
</g>
</g>
<!-- Node12&#45;&gt;Node18 -->
<g id="edge20" class="edge">
<title>Node12&#45;&gt;Node18</title>
<path fill="none" stroke="#9a32cd" stroke-dasharray="5,2" d="M90.2,-885.57C100.44,-883.34 111.59,-881.25 122,-880 146.4,-877.06 173.89,-876.24 195.98,-876.19"/>
<polygon fill="#9a32cd" stroke="#9a32cd" points="89.3,-882.19 80.33,-887.82 90.86,-889.01 89.3,-882.19"/>
<text text-anchor="middle" x="139.5" y="-883" font-family="Helvetica,sans-Serif" font-size="10.00"> id</text>
</g>
<!-- Node20 -->
<g id="node20" class="node">
<title>Node20</title>
<g id="a_node20"><a xlink:href="structdpp_1_1utility_1_1iconhash.html" target="_top" xlink:title="Store a 128 bit icon hash (profile picture, server icon etc) as a 128 bit binary value made of two ui...">
<polygon fill="white" stroke="black" points="180,-905.5 180,-924.5 298,-924.5 298,-905.5 180,-905.5"/>
<text text-anchor="middle" x="239" y="-912.5" font-family="Helvetica,sans-Serif" font-size="10.00">dpp::utility::iconhash</text>
</a>
</g>
</g>
<!-- Node12&#45;&gt;Node20 -->
<g id="edge24" class="edge">
<title>Node12&#45;&gt;Node20</title>
<path fill="none" stroke="#9a32cd" stroke-dasharray="5,2" d="M90.37,-899.04C116.08,-901.82 150.72,-905.56 179.99,-908.73"/>
<polygon fill="#9a32cd" stroke="#9a32cd" points="90.62,-895.55 80.3,-897.95 89.86,-902.51 90.62,-895.55"/>
<text text-anchor="middle" x="139.5" y="-920" font-family="Helvetica,sans-Serif" font-size="10.00"> first</text>
<text text-anchor="middle" x="139.5" y="-909" font-family="Helvetica,sans-Serif" font-size="10.00">second</text>
</g>
<!-- Node13 -->
<g id="node13" class="node">
<title>Node13</title>
<g id="a_node13"><a xlink:title=" ">
<polygon fill="white" stroke="#bfbfbf" points="206.5,-139.5 206.5,-158.5 271.5,-158.5 271.5,-139.5 206.5,-139.5"/>
<text text-anchor="middle" x="239" y="-146.5" font-family="Helvetica,sans-Serif" font-size="10.00">function&lt;</text>
</a>
</g>
</g>
<!-- Node13&#45;&gt;Node3 -->
<g id="edge12" class="edge">
<title>Node13&#45;&gt;Node3</title>
<path fill="none" stroke="#9a32cd" stroke-dasharray="5,2" d="M281.5,-140.56C323.68,-133.97 390.02,-129.17 442,-151 475.9,-165.24 502.83,-201.99 514.17,-219.48"/>
<polygon fill="#9a32cd" stroke="#9a32cd" points="280.87,-137.11 271.58,-142.21 282.02,-144.02 280.87,-137.11"/>
<text text-anchor="middle" x="381.5" y="-187" font-family="Helvetica,sans-Serif" font-size="10.00"> custom_readable_fd</text>
<text text-anchor="middle" x="381.5" y="-176" font-family="Helvetica,sans-Serif" font-size="10.00">custom_readable_ready</text>
<text text-anchor="middle" x="381.5" y="-165" font-family="Helvetica,sans-Serif" font-size="10.00">custom_writeable_fd</text>
<text text-anchor="middle" x="381.5" y="-154" font-family="Helvetica,sans-Serif" font-size="10.00">custom_writeable_ready</text>
</g>
<!-- Node14&#45;&gt;Node1 -->
<g id="edge13" class="edge">
<title>Node14&#45;&gt;Node1</title>
<path fill="none" stroke="#9a32cd" stroke-dasharray="5,2" d="M829.95,-531.97C868.43,-500.26 953.81,-429.89 991.28,-399.02"/>
<polygon fill="#9a32cd" stroke="#9a32cd" points="827.55,-529.41 822.06,-538.47 832,-534.81 827.55,-529.41"/>
<text text-anchor="middle" x="914.5" y="-483" font-family="Helvetica,sans-Serif" font-size="10.00"> creator</text>
</g>
<!-- Node15 -->
<g id="node15" class="node">
<title>Node15</title>
<g id="a_node15"><a xlink:title=" ">
<polygon fill="white" stroke="#bfbfbf" points="211,-746.5 211,-765.5 267,-765.5 267,-746.5 211,-746.5"/>
<text text-anchor="middle" x="239" y="-753.5" font-family="Helvetica,sans-Serif" font-size="10.00">uint32_t</text>
</a>
</g>
</g>
<!-- Node15&#45;&gt;Node1 -->
<g id="edge32" class="edge">
<title>Node15&#45;&gt;Node1</title>
<path fill="none" stroke="#9a32cd" stroke-dasharray="5,2" d="M277,-762.18C286.16,-764.99 295.5,-769.07 303,-775 315.5,-784.88 308.18,-796.54 321,-806 365.4,-838.79 390.06,-815.3 442,-834 450.42,-837.03 451.29,-840.95 460,-843 576.38,-870.47 625.57,-898 729,-838 908.11,-734.09 988.28,-465.57 1005.75,-399.07"/>
<polygon fill="#9a32cd" stroke="#9a32cd" points="277.78,-758.76 267.22,-759.6 275.99,-765.53 277.78,-758.76"/>
<text text-anchor="middle" x="664.5" y="-876" font-family="Helvetica,sans-Serif" font-size="10.00"> heartbeat_interval</text>
</g>
<!-- Node15&#45;&gt;Node14 -->
<g id="edge16" class="edge">
<title>Node15&#45;&gt;Node14</title>
<path fill="none" stroke="#9a32cd" stroke-dasharray="5,2" d="M243.16,-736C250.06,-699.67 270.13,-623.34 321,-588 357.83,-562.41 665.84,-551.82 772.4,-548.89"/>
<polygon fill="#9a32cd" stroke="#9a32cd" points="239.64,-735.84 241.36,-746.29 246.53,-737.04 239.64,-735.84"/>
<text text-anchor="middle" x="521" y="-600" font-family="Helvetica,sans-Serif" font-size="10.00"> cluster_id</text>
<text text-anchor="middle" x="521" y="-589" font-family="Helvetica,sans-Serif" font-size="10.00">intents</text>
<text text-anchor="middle" x="521" y="-578" font-family="Helvetica,sans-Serif" font-size="10.00">maxclusters</text>
<text text-anchor="middle" x="521" y="-567" font-family="Helvetica,sans-Serif" font-size="10.00">numshards</text>
</g>
<!-- Node15&#45;&gt;Node17 -->
<g id="edge25" class="edge">
<title>Node15&#45;&gt;Node17</title>
<path fill="none" stroke="#9a32cd" stroke-dasharray="5,2" d="M277.45,-753.97C319.86,-753.29 389.85,-757.16 442,-785 452.55,-790.63 449.95,-798.52 460,-805 469,-810.8 479.9,-814.94 489.93,-817.85"/>
<polygon fill="#9a32cd" stroke="#9a32cd" points="277.2,-750.48 267.29,-754.23 277.37,-757.48 277.2,-750.48"/>
<text text-anchor="middle" x="381.5" y="-788" font-family="Helvetica,sans-Serif" font-size="10.00"> flags</text>
</g>
<!-- Node16 -->
<g id="node16" class="node">
<title>Node16</title>
<g id="a_node16"><a xlink:title=" ">
<polygon fill="white" stroke="#bfbfbf" points="496,-776.5 496,-795.5 546,-795.5 546,-776.5 496,-776.5"/>
<text text-anchor="middle" x="521" y="-783.5" font-family="Helvetica,sans-Serif" font-size="10.00">double</text>
</a>
</g>
</g>
<!-- Node16&#45;&gt;Node14 -->
<g id="edge17" class="edge">
<title>Node16&#45;&gt;Node14</title>
<path fill="none" stroke="#9a32cd" stroke-dasharray="5,2" d="M556.21,-786.98C607.94,-787.76 702.82,-786.26 729,-766 798.13,-712.49 807.19,-593.06 808.34,-557.91"/>
<polygon fill="#9a32cd" stroke="#9a32cd" points="556.24,-783.48 546.17,-786.79 556.1,-790.48 556.24,-783.48"/>
<text text-anchor="middle" x="664.5" y="-789" font-family="Helvetica,sans-Serif" font-size="10.00"> rest_ping</text>
</g>
<!-- Node17&#45;&gt;Node14 -->
<g id="edge18" class="edge">
<title>Node17&#45;&gt;Node14</title>
<path fill="none" stroke="#9a32cd" stroke-dasharray="5,2" d="M562.16,-824.59C615.08,-824.53 704.33,-821.3 729,-801 807.39,-736.5 809.72,-595.41 808.86,-557.52"/>
<polygon fill="#9a32cd" stroke="#9a32cd" points="562.11,-821.09 552.1,-824.56 562.09,-828.09 562.11,-821.09"/>
<text text-anchor="middle" x="664.5" y="-826" font-family="Helvetica,sans-Serif" font-size="10.00"> me</text>
</g>
<!-- Node18&#45;&gt;Node17 -->
<g id="edge19" class="edge">
<title>Node18&#45;&gt;Node17</title>
<path fill="none" stroke="midnightblue" d="M292.21,-872.26C333.26,-867.94 391.72,-860.45 442,-849 459.61,-844.99 478.94,-838.81 493.96,-833.59"/>
<polygon fill="midnightblue" stroke="midnightblue" points="291.75,-868.79 282.16,-873.29 292.47,-875.75 291.75,-868.79"/>
</g>
<!-- Node19 -->
<g id="node19" class="node">
<title>Node19</title>
<g id="a_node19"><a xlink:title=" ">
<polygon fill="white" stroke="#bfbfbf" points="211,-829.5 211,-848.5 267,-848.5 267,-829.5 211,-829.5"/>
<text text-anchor="middle" x="239" y="-836.5" font-family="Helvetica,sans-Serif" font-size="10.00">uint16_t</text>
</a>
</g>
</g>
<!-- Node19&#45;&gt;Node17 -->
<g id="edge22" class="edge">
<title>Node19&#45;&gt;Node17</title>
<path fill="none" stroke="#9a32cd" stroke-dasharray="5,2" d="M277.31,-837C333.42,-834 438.42,-828.37 489.94,-825.61"/>
<polygon fill="#9a32cd" stroke="#9a32cd" points="276.9,-833.52 267.1,-837.55 277.27,-840.51 276.9,-833.52"/>
<text text-anchor="middle" x="381.5" y="-837" font-family="Helvetica,sans-Serif" font-size="10.00"> discriminator</text>
</g>
<!-- Node20&#45;&gt;Node17 -->
<g id="edge23" class="edge">
<title>Node20&#45;&gt;Node17</title>
<path fill="none" stroke="#9a32cd" stroke-dasharray="5,2" d="M308.05,-906.45C348.05,-899.98 399.04,-889.19 442,-872 466.8,-862.07 492.64,-844.5 507.48,-833.6"/>
<polygon fill="#9a32cd" stroke="#9a32cd" points="307.47,-903 298.13,-908 308.55,-909.91 307.47,-903"/>
<text text-anchor="middle" x="381.5" y="-906" font-family="Helvetica,sans-Serif" font-size="10.00"> avatar</text>
</g>
<!-- Node21 -->
<g id="node21" class="node">
<title>Node21</title>
<g id="a_node21"><a xlink:title=" ">
<polygon fill="white" stroke="#bfbfbf" points="214,-784.5 214,-803.5 264,-803.5 264,-784.5 214,-784.5"/>
<text text-anchor="middle" x="239" y="-791.5" font-family="Helvetica,sans-Serif" font-size="10.00">uint8_t</text>
</a>
</g>
</g>
<!-- Node21&#45;&gt;Node17 -->
<g id="edge26" class="edge">
<title>Node21&#45;&gt;Node17</title>
<path fill="none" stroke="#9a32cd" stroke-dasharray="5,2" d="M274.37,-796.74C314.61,-800.07 383.23,-806.1 442,-813 457.76,-814.85 475.25,-817.28 489.67,-819.39"/>
<polygon fill="#9a32cd" stroke="#9a32cd" points="274.54,-793.25 264.29,-795.92 273.97,-800.22 274.54,-793.25"/>
<text text-anchor="middle" x="381.5" y="-816" font-family="Helvetica,sans-Serif" font-size="10.00"> refcount</text>
</g>
<!-- Node22 -->
<g id="node22" class="node">
<title>Node22</title>
<g id="a_node22"><a xlink:href="structdpp_1_1cache__policy__t.html" target="_top" xlink:title="Represents the caching policy of the cluster.">
<polygon fill="white" stroke="black" points="464.5,-518.5 464.5,-537.5 577.5,-537.5 577.5,-518.5 464.5,-518.5"/>
<text text-anchor="middle" x="521" y="-525.5" font-family="Helvetica,sans-Serif" font-size="10.00">dpp::cache_policy_t</text>
</a>
</g>
</g>
<!-- Node22&#45;&gt;Node14 -->
<g id="edge27" class="edge">
<title>Node22&#45;&gt;Node14</title>
<path fill="none" stroke="#9a32cd" stroke-dasharray="5,2" d="M587.8,-520.54C628.67,-517.35 682.16,-515.81 729,-523 748.16,-525.94 769.05,-532.65 784.6,-538.38"/>
<polygon fill="#9a32cd" stroke="#9a32cd" points="587.37,-517.06 577.69,-521.38 587.95,-524.04 587.37,-517.06"/>
<text text-anchor="middle" x="664.5" y="-526" font-family="Helvetica,sans-Serif" font-size="10.00"> cache_policy</text>
</g>
<!-- Node23 -->
<g id="node23" class="node">
<title>Node23</title>
<g id="a_node23"><a xlink:title=" ">
<polygon fill="white" stroke="#bfbfbf" points="175,-516.5 175,-535.5 303,-535.5 303,-516.5 175,-516.5"/>
<text text-anchor="middle" x="239" y="-523.5" font-family="Helvetica,sans-Serif" font-size="10.00">cache_policy_setting_t</text>
</a>
</g>
</g>
<!-- Node23&#45;&gt;Node22 -->
<g id="edge28" class="edge">
<title>Node23&#45;&gt;Node22</title>
<path fill="none" stroke="#9a32cd" stroke-dasharray="5,2" d="M313.28,-526.22C351.62,-526.38 399.35,-526.62 442,-527 449.18,-527.06 456.73,-527.14 464.18,-527.23"/>
<polygon fill="#9a32cd" stroke="#9a32cd" points="313.25,-522.72 303.23,-526.19 313.22,-529.72 313.25,-522.72"/>
<text text-anchor="middle" x="381.5" y="-552" font-family="Helvetica,sans-Serif" font-size="10.00"> emoji_policy</text>
<text text-anchor="middle" x="381.5" y="-541" font-family="Helvetica,sans-Serif" font-size="10.00">role_policy</text>
<text text-anchor="middle" x="381.5" y="-530" font-family="Helvetica,sans-Serif" font-size="10.00">user_policy</text>
</g>
<!-- Node24 -->
<g id="node24" class="node">
<title>Node24</title>
<g id="a_node24"><a xlink:title=" ">
<polygon fill="white" stroke="#bfbfbf" points="460,-738.5 460,-757.5 582,-757.5 582,-738.5 460,-738.5"/>
<text text-anchor="middle" x="521" y="-745.5" font-family="Helvetica,sans-Serif" font-size="10.00">websocket_protocol_t</text>
</a>
</g>
</g>
<!-- Node24&#45;&gt;Node14 -->
<g id="edge29" class="edge">
<title>Node24&#45;&gt;Node14</title>
<path fill="none" stroke="#9a32cd" stroke-dasharray="5,2" d="M592.15,-751.65C643.41,-752.91 707.56,-751.12 729,-736 791.26,-692.08 805.02,-589.33 807.83,-557.54"/>
<polygon fill="#9a32cd" stroke="#9a32cd" points="592.18,-748.15 582.08,-751.36 591.98,-755.15 592.18,-748.15"/>
<text text-anchor="middle" x="664.5" y="-754" font-family="Helvetica,sans-Serif" font-size="10.00"> ws_mode</text>
</g>
<!-- Node25 -->
<g id="node25" class="node">
<title>Node25</title>
<g id="a_node25"><a xlink:title=" ">
<polygon fill="white" stroke="#bfbfbf" points="473,-636.5 473,-655.5 569,-655.5 569,-636.5 473,-636.5"/>
<text text-anchor="middle" x="521" y="-643.5" font-family="Helvetica,sans-Serif" font-size="10.00">event_router_t&lt;</text>
</a>
</g>
</g>
<!-- Node25&#45;&gt;Node14 -->
<g id="edge30" class="edge">
<title>Node25&#45;&gt;Node14</title>
<path fill="none" stroke="#9a32cd" stroke-dasharray="5,2" d="M568.16,-631.93C573.19,-629.16 577.95,-625.88 582,-622 596.07,-608.51 584.54,-593.87 600,-582 606.78,-576.79 714.34,-561.13 772.24,-553.01"/>
<polygon fill="#9a32cd" stroke="#9a32cd" points="566.4,-628.89 558.9,-636.37 569.43,-635.2 566.4,-628.89"/>
<text text-anchor="start" x="600" y="-728" font-family="Helvetica,sans-Serif" font-size="10.00"> on_application_command</text>
<text text-anchor="middle" x="664.5" y="-717" font-family="Helvetica,sans-Serif" font-size="10.00">_create</text>
<text text-anchor="start" x="600" y="-706" font-family="Helvetica,sans-Serif" font-size="10.00">on_application_command</text>
<text text-anchor="middle" x="664.5" y="-695" font-family="Helvetica,sans-Serif" font-size="10.00">_delete</text>
<text text-anchor="start" x="600" y="-684" font-family="Helvetica,sans-Serif" font-size="10.00">on_application_command</text>
<text text-anchor="middle" x="664.5" y="-673" font-family="Helvetica,sans-Serif" font-size="10.00">_update</text>
<text text-anchor="middle" x="664.5" y="-662" font-family="Helvetica,sans-Serif" font-size="10.00">on_autocomplete</text>
<text text-anchor="middle" x="664.5" y="-651" font-family="Helvetica,sans-Serif" font-size="10.00">on_button_click</text>
<text text-anchor="middle" x="664.5" y="-640" font-family="Helvetica,sans-Serif" font-size="10.00">on_channel_create</text>
<text text-anchor="middle" x="664.5" y="-629" font-family="Helvetica,sans-Serif" font-size="10.00">on_channel_delete</text>
<text text-anchor="middle" x="664.5" y="-618" font-family="Helvetica,sans-Serif" font-size="10.00">on_channel_pins_update</text>
<text text-anchor="middle" x="664.5" y="-607" font-family="Helvetica,sans-Serif" font-size="10.00">on_channel_update</text>
<text text-anchor="middle" x="664.5" y="-596" font-family="Helvetica,sans-Serif" font-size="10.00">on_guild_ban_add</text>
<text text-anchor="middle" x="664.5" y="-585" font-family="Helvetica,sans-Serif" font-size="10.00">...</text>
</g>
<!-- Node26 -->
<g id="node26" class="node">
<title>Node26</title>
<g id="a_node26"><a xlink:title=" ">
<polygon fill="white" stroke="#bfbfbf" points="753,-0.5 753,-19.5 866,-19.5 866,-0.5 753,-0.5"/>
<text text-anchor="middle" x="809.5" y="-7.5" font-family="Helvetica,sans-Serif" font-size="10.00">native_handle_type</text>
</a>
</g>
</g>
<!-- Node26&#45;&gt;Node1 -->
<g id="edge34" class="edge">
<title>Node26&#45;&gt;Node1</title>
<path fill="none" stroke="#9a32cd" stroke-dasharray="5,2" d="M876.36,-1.74C898.72,-2.49 922.26,-7.74 939,-23 991.26,-70.65 1005.86,-306.1 1008.85,-368.69"/>
<polygon fill="#9a32cd" stroke="#9a32cd" points="876.21,1.76 866.19,-1.69 876.17,-5.24 876.21,1.76"/>
<text text-anchor="middle" x="914.5" y="-26" font-family="Helvetica,sans-Serif" font-size="10.00"> thread_id</text>
</g>
</g>
</svg>
        <g id="navigator" transform="translate(0 0)" fill="#404254">
                <rect fill="#f2f5e9" fill-opacity="0.5" stroke="#606060" stroke-width=".5" x="0" y="0" width="60" height="60"/>
                <use id="zoomplus" xlink:href="#zoomPlus" x="17" y="9" onmousedown="handleZoom(evt,'in')"/>
                <use id="zoomminus" xlink:href="#zoomMin" x="42" y="9" onmousedown="handleZoom(evt,'out')"/>
                <use id="reset" xlink:href="#resetDef" x="30" y="36" onmousedown="handleReset()"/>
                <g id="arrowUp" xlink:href="#dirArrow" transform="translate(30 24)" onmousedown="handlePan(0,-1)">
                  <use xlink:href="#rim" fill="#404040">
                        <set attributeName="fill" to="#808080" begin="arrowUp.mouseover" end="arrowUp.mouseout"/>
                  </use>
                  <path fill="none" stroke="white" stroke-width="1.5" d="M0,-3.0v7 M-2.5,-0.5L0,-3.0L2.5,-0.5"/>
                </g>
                <g id="arrowRight" xlink:href="#dirArrow" transform="rotate(90) translate(36 -43)" onmousedown="handlePan(1,0)">
                  <use xlink:href="#rim" fill="#404040">
                        <set attributeName="fill" to="#808080" begin="arrowRight.mouseover" end="arrowRight.mouseout"/>
                  </use>
                  <path fill="none" stroke="white" stroke-width="1.5" d="M0,-3.0v7 M-2.5,-0.5L0,-3.0L2.5,-0.5"/>
                </g>
                <g id="arrowDown" xlink:href="#dirArrow" transform="rotate(180) translate(-30 -48)" onmousedown="handlePan(0,1)">
                  <use xlink:href="#rim" fill="#404040">
                        <set attributeName="fill" to="#808080" begin="arrowDown.mouseover" end="arrowDown.mouseout"/>
                  </use>
                  <path fill="none" stroke="white" stroke-width="1.5" d="M0,-3.0v7 M-2.5,-0.5L0,-3.0L2.5,-0.5"/>
                </g>
                <g id="arrowLeft" xlink:href="#dirArrow" transform="rotate(270) translate(-36 17)" onmousedown="handlePan(-1,0)">
                  <use xlink:href="#rim" fill="#404040">
                        <set attributeName="fill" to="#808080" begin="arrowLeft.mouseover" end="arrowLeft.mouseout"/>
                  </use>
                  <path fill="none" stroke="white" stroke-width="1.5" d="M0,-3.0v7 M-2.5,-0.5L0,-3.0L2.5,-0.5"/>
                </g>
        </g>
        <svg viewBox="0 0 15 15" width="100%" height="30px" preserveAspectRatio="xMaxYMin meet">
         <g id="arrow_out" transform="scale(0.3 0.3)">
          <a xlink:href="classdpp_1_1discord__voice__client__coll__graph_org.svg" target="_base">
           <rect id="button" ry="5" rx="5" y="6" x="6" height="38" width="38"
                fill="#f2f5e9" fill-opacity="0.5" stroke="#606060" stroke-width="1.0"/>
           <path id="arrow"
             d="M 11.500037,31.436501 C 11.940474,20.09759 22.043105,11.32322 32.158766,21.979434 L 37.068811,17.246167 C 37.068811,17.246167 37.088388,32 37.088388,32 L 22.160133,31.978069 C 22.160133,31.978069 26.997745,27.140456 26.997745,27.140456 C 18.528582,18.264221 13.291696,25.230495 11.500037,31.436501 z"
             style="fill:#404040;"/>
          </a>
         </g>
        </svg>
</svg>
