<?xml version="1.0" encoding="UTF-8" standalone="no"?>
<!DOCTYPE svg PUBLIC "-//W3C//DTD SVG 1.1//EN"
 "http://www.w3.org/Graphics/SVG/1.1/DTD/svg11.dtd">
<!-- Generated by graphviz version 2.38.0 (20140413.2041)
 -->
<!-- Title: dpp::interaction Pages: 1 -->
<svg width="711pt" height="560pt"
 viewBox="0.00 0.00 711.00 560.00" xmlns="http://www.w3.org/2000/svg" xmlns:xlink="http://www.w3.org/1999/xlink">
<g id="graph0" class="graph" transform="scale(1 1) rotate(0) translate(4 556)">
<title>dpp::interaction</title>
<polygon fill="white" stroke="none" points="-4,4 -4,-556 707,-556 707,4 -4,4"/>
<!-- Node1 -->
<g id="node1" class="node"><title>Node1</title>
<polygon fill="#bfbfbf" stroke="black" points="620,-299.5 620,-318.5 703,-318.5 703,-299.5 620,-299.5"/>
<text text-anchor="middle" x="661.5" y="-306.5" font-family="Helvetica,sans-Serif" font-size="10.00">dpp::interaction</text>
</g>
<!-- Node2 -->
<g id="node2" class="node"><title>Node2</title>
<g id="a_node2"><a xlink:href="classdpp_1_1managed.html" target="_top" xlink:title="The managed class is the base class for various types that can be stored in a cache that are identifi...">
<polygon fill="white" stroke="black" points="197.5,-479.5 197.5,-498.5 275.5,-498.5 275.5,-479.5 197.5,-479.5"/>
<text text-anchor="middle" x="236.5" y="-486.5" font-family="Helvetica,sans-Serif" font-size="10.00">dpp::managed</text>
</a>
</g>
</g>
<!-- Node2&#45;&gt;Node1 -->
<g id="edge1" class="edge"><title>Node2&#45;&gt;Node1</title>
<path fill="none" stroke="midnightblue" d="M285.781,-487.868C314.737,-486.175 352.026,-482.193 384,-473 489.279,-442.731 513.908,-423.112 602,-358 619.259,-345.243 638.101,-329.009 649.611,-318.808"/>
<polygon fill="midnightblue" stroke="midnightblue" points="285.324,-484.387 275.516,-488.394 285.682,-491.378 285.324,-484.387"/>
</g>
<!-- Node10 -->
<g id="node10" class="node"><title>Node10</title>
<g id="a_node10"><a xlink:href="classdpp_1_1user.html" target="_top" xlink:title="Represents a user on discord. May or may not be a member of a dpp::guild. ">
<polygon fill="white" stroke="black" points="445,-366.5 445,-385.5 502,-385.5 502,-366.5 445,-366.5"/>
<text text-anchor="middle" x="473.5" y="-373.5" font-family="Helvetica,sans-Serif" font-size="10.00">dpp::user</text>
</a>
</g>
</g>
<!-- Node2&#45;&gt;Node10 -->
<g id="edge13" class="edge"><title>Node2&#45;&gt;Node10</title>
<path fill="none" stroke="midnightblue" d="M285.825,-480.209C315.293,-473.639 353.102,-462.994 384,-447 416.188,-430.338 447.825,-400.949 463.075,-385.736"/>
<polygon fill="midnightblue" stroke="midnightblue" points="284.818,-476.846 275.775,-482.366 286.286,-483.69 284.818,-476.846"/>
</g>
<!-- Node3 -->
<g id="node3" class="node"><title>Node3</title>
<polygon fill="white" stroke="#bfbfbf" points="22,-434.5 22,-453.5 73,-453.5 73,-434.5 22,-434.5"/>
<text text-anchor="middle" x="47.5" y="-441.5" font-family="Helvetica,sans-Serif" font-size="10.00">uint64_t</text>
</g>
<!-- Node3&#45;&gt;Node1 -->
<g id="edge3" class="edge"><title>Node3&#45;&gt;Node1</title>
<path fill="none" stroke="#9a32cd" stroke-dasharray="5,2" d="M66.8573,-460.141C79.1787,-470.25 96.179,-482.859 113,-491 221.417,-543.472 266.551,-519.709 384,-493 456.448,-476.524 481.658,-486.833 545,-448 600.371,-414.054 641.713,-344.124 655.511,-318.597"/>
<polygon fill="#9a32cd" stroke="#9a32cd" points="69.035,-457.399 59.1342,-453.627 64.522,-462.75 69.035,-457.399"/>
<text text-anchor="middle" x="350.5" y="-544" font-family="Helvetica,sans-Serif" font-size="10.00"> message_id</text>
<text text-anchor="middle" x="350.5" y="-533" font-family="Helvetica,sans-Serif" font-size="10.00">guild_id</text>
<text text-anchor="middle" x="350.5" y="-522" font-family="Helvetica,sans-Serif" font-size="10.00">channel_id</text>
<text text-anchor="middle" x="350.5" y="-511" font-family="Helvetica,sans-Serif" font-size="10.00">application_id</text>
</g>
<!-- Node3&#45;&gt;Node2 -->
<g id="edge2" class="edge"><title>Node3&#45;&gt;Node2</title>
<path fill="none" stroke="#9a32cd" stroke-dasharray="5,2" d="M81.8962,-457.089C91.8026,-460.649 102.746,-464.271 113,-467 140.876,-474.419 172.991,-480.083 197.344,-483.805"/>
<polygon fill="#9a32cd" stroke="#9a32cd" points="82.9929,-453.763 72.3996,-453.585 80.5695,-460.33 82.9929,-453.763"/>
<text text-anchor="middle" x="134.5" y="-479" font-family="Helvetica,sans-Serif" font-size="10.00"> id</text>
</g>
<!-- Node4 -->
<g id="node4" class="node"><title>Node4</title>
<g id="a_node4"><a xlink:href="classdpp_1_1guild__member.html" target="_top" xlink:title="Represents dpp::user membership upon a dpp::guild. ">
<polygon fill="white" stroke="black" points="424,-189.5 424,-208.5 523,-208.5 523,-189.5 424,-189.5"/>
<text text-anchor="middle" x="473.5" y="-196.5" font-family="Helvetica,sans-Serif" font-size="10.00">dpp::guild_member</text>
</a>
</g>
</g>
<!-- Node3&#45;&gt;Node4 -->
<g id="edge6" class="edge"><title>Node3&#45;&gt;Node4</title>
<path fill="none" stroke="#9a32cd" stroke-dasharray="5,2" d="M52.292,-424.551C62.4684,-378.33 95.1408,-262.252 174,-215 253.575,-167.319 367.556,-178.423 429.099,-189.466"/>
<polygon fill="#9a32cd" stroke="#9a32cd" points="48.8364,-423.977 50.2204,-434.481 55.6889,-425.407 48.8364,-423.977"/>
<text text-anchor="middle" x="236.5" y="-229" font-family="Helvetica,sans-Serif" font-size="10.00"> user_id</text>
<text text-anchor="middle" x="236.5" y="-218" font-family="Helvetica,sans-Serif" font-size="10.00">guild_id</text>
</g>
<!-- Node9 -->
<g id="node9" class="node"><title>Node9</title>
<polygon fill="white" stroke="#bfbfbf" points="174,-246.5 174,-265.5 299,-265.5 299,-246.5 174,-246.5"/>
<text text-anchor="middle" x="236.5" y="-253.5" font-family="Helvetica,sans-Serif" font-size="10.00">std::vector&lt; snowflake &gt;</text>
</g>
<!-- Node3&#45;&gt;Node9 -->
<g id="edge11" class="edge"><title>Node3&#45;&gt;Node9</title>
<path fill="none" stroke="#9a32cd" stroke-dasharray="5,2" d="M59.9583,-425.775C80.0744,-394.865 124.349,-331.484 174,-290 185.89,-280.066 201.119,-271.62 213.447,-265.632"/>
<polygon fill="#9a32cd" stroke="#9a32cd" points="56.9655,-423.958 54.5118,-434.265 62.8573,-427.738 56.9655,-423.958"/>
<text text-anchor="middle" x="134.5" y="-356" font-family="Helvetica,sans-Serif" font-size="10.00"> elements</text>
</g>
<!-- Node13 -->
<g id="node13" class="node"><title>Node13</title>
<g id="a_node13"><a xlink:href="structdpp_1_1utility_1_1iconhash.html" target="_top" xlink:title="Store a 128 bit icon hash (profile picture, server icon etc) as a 128 bit binary value made of two ui...">
<polygon fill="white" stroke="black" points="183,-438.5 183,-457.5 290,-457.5 290,-438.5 183,-438.5"/>
<text text-anchor="middle" x="236.5" y="-445.5" font-family="Helvetica,sans-Serif" font-size="10.00">dpp::utility::iconhash</text>
</a>
</g>
</g>
<!-- Node3&#45;&gt;Node13 -->
<g id="edge19" class="edge"><title>Node3&#45;&gt;Node13</title>
<path fill="none" stroke="#9a32cd" stroke-dasharray="5,2" d="M83.3469,-444.074C104.388,-444.181 131.738,-444.429 156,-445 164.699,-445.205 173.931,-445.49 182.907,-445.804"/>
<polygon fill="#9a32cd" stroke="#9a32cd" points="83.2826,-440.573 73.2677,-444.031 83.2527,-447.573 83.2826,-440.573"/>
<text text-anchor="middle" x="134.5" y="-459" font-family="Helvetica,sans-Serif" font-size="10.00"> second</text>
<text text-anchor="middle" x="134.5" y="-448" font-family="Helvetica,sans-Serif" font-size="10.00">first</text>
</g>
<!-- Node4&#45;&gt;Node1 -->
<g id="edge4" class="edge"><title>Node4&#45;&gt;Node1</title>
<path fill="none" stroke="#9a32cd" stroke-dasharray="5,2" d="M499.757,-213.937C538.551,-236.879 611.716,-280.149 644.224,-299.374"/>
<polygon fill="#9a32cd" stroke="#9a32cd" points="501.07,-210.647 490.681,-208.569 497.507,-216.672 501.07,-210.647"/>
<text text-anchor="middle" x="582.5" y="-277" font-family="Helvetica,sans-Serif" font-size="10.00"> member</text>
</g>
<!-- Node5 -->
<g id="node5" class="node"><title>Node5</title>
<polygon fill="white" stroke="#bfbfbf" points="214.5,-131.5 214.5,-150.5 258.5,-150.5 258.5,-131.5 214.5,-131.5"/>
<text text-anchor="middle" x="236.5" y="-138.5" font-family="Helvetica,sans-Serif" font-size="10.00">time_t</text>
</g>
<!-- Node5&#45;&gt;Node4 -->
<g id="edge5" class="edge"><title>Node5&#45;&gt;Node4</title>
<path fill="none" stroke="#9a32cd" stroke-dasharray="5,2" d="M269.233,-137.583C299.407,-135.374 345.739,-134.713 384,-146 414.232,-154.918 444.725,-176.625 460.831,-189.32"/>
<polygon fill="#9a32cd" stroke="#9a32cd" points="268.566,-134.126 258.892,-138.447 269.149,-141.102 268.566,-134.126"/>
<text text-anchor="middle" x="350.5" y="-160" font-family="Helvetica,sans-Serif" font-size="10.00"> joined_at</text>
<text text-anchor="middle" x="350.5" y="-149" font-family="Helvetica,sans-Serif" font-size="10.00">premium_since</text>
</g>
<!-- Node6 -->
<g id="node6" class="node"><title>Node6</title>
<polygon fill="white" stroke="#bfbfbf" points="213.5,-299.5 213.5,-318.5 259.5,-318.5 259.5,-299.5 213.5,-299.5"/>
<text text-anchor="middle" x="236.5" y="-306.5" font-family="Helvetica,sans-Serif" font-size="10.00">uint8_t</text>
</g>
<!-- Node6&#45;&gt;Node1 -->
<g id="edge22" class="edge"><title>Node6&#45;&gt;Node1</title>
<path fill="none" stroke="#9a32cd" stroke-dasharray="5,2" d="M270.038,-309C346.236,-309 536.111,-309 619.794,-309"/>
<polygon fill="#9a32cd" stroke="#9a32cd" points="269.647,-305.5 259.647,-309 269.647,-312.5 269.647,-305.5"/>
<text text-anchor="middle" x="473.5" y="-323" font-family="Helvetica,sans-Serif" font-size="10.00"> version</text>
<text text-anchor="middle" x="473.5" y="-312" font-family="Helvetica,sans-Serif" font-size="10.00">type</text>
</g>
<!-- Node6&#45;&gt;Node4 -->
<g id="edge7" class="edge"><title>Node6&#45;&gt;Node4</title>
<path fill="none" stroke="#9a32cd" stroke-dasharray="5,2" d="M268.886,-295.075C279.123,-289.672 290.128,-282.875 299,-275 309.24,-265.911 305.952,-258.087 317,-250 319.622,-248.081 397.956,-222.844 442.418,-208.608"/>
<polygon fill="#9a32cd" stroke="#9a32cd" points="267.156,-292.027 259.783,-299.636 270.291,-298.286 267.156,-292.027"/>
<text text-anchor="middle" x="350.5" y="-253" font-family="Helvetica,sans-Serif" font-size="10.00"> flags</text>
</g>
<!-- Node6&#45;&gt;Node10 -->
<g id="edge16" class="edge"><title>Node6&#45;&gt;Node10</title>
<path fill="none" stroke="#9a32cd" stroke-dasharray="5,2" d="M269.431,-318.104C315.815,-331.328 401.063,-355.633 444.887,-368.127"/>
<polygon fill="#9a32cd" stroke="#9a32cd" points="270.185,-314.679 259.608,-315.303 268.265,-321.411 270.185,-314.679"/>
<text text-anchor="middle" x="350.5" y="-354" font-family="Helvetica,sans-Serif" font-size="10.00"> refcount</text>
</g>
<!-- Node7 -->
<g id="node7" class="node"><title>Node7</title>
<g id="a_node7"><a xlink:title="STL class. ">
<polygon fill="white" stroke="#bfbfbf" points="206.5,-93.5 206.5,-112.5 266.5,-112.5 266.5,-93.5 206.5,-93.5"/>
<text text-anchor="middle" x="236.5" y="-100.5" font-family="Helvetica,sans-Serif" font-size="10.00">std::string</text>
</a>
</g>
</g>
<!-- Node7&#45;&gt;Node1 -->
<g id="edge21" class="edge"><title>Node7&#45;&gt;Node1</title>
<path fill="none" stroke="#9a32cd" stroke-dasharray="5,2" d="M276.91,-101.813C289.697,-101.48 303.95,-101.164 317,-101 346.775,-100.626 354.815,-95.0894 384,-101 460.131,-116.418 482.711,-122.593 545,-169 596.799,-207.592 639.703,-274.151 654.742,-299.14"/>
<polygon fill="#9a32cd" stroke="#9a32cd" points="276.473,-98.3231 266.571,-102.093 276.663,-105.321 276.473,-98.3231"/>
<text text-anchor="middle" x="473.5" y="-172" font-family="Helvetica,sans-Serif" font-size="10.00"> token</text>
</g>
<!-- Node7&#45;&gt;Node4 -->
<g id="edge8" class="edge"><title>Node7&#45;&gt;Node4</title>
<path fill="none" stroke="#9a32cd" stroke-dasharray="5,2" d="M276.885,-102.013C307.375,-102.661 349.997,-106.713 384,-122 419.293,-137.867 450.947,-172.596 464.923,-189.449"/>
<polygon fill="#9a32cd" stroke="#9a32cd" points="276.674,-98.5111 266.641,-101.913 276.606,-105.511 276.674,-98.5111"/>
<text text-anchor="middle" x="350.5" y="-125" font-family="Helvetica,sans-Serif" font-size="10.00"> nickname</text>
</g>
<!-- Node7&#45;&gt;Node10 -->
<g id="edge17" class="edge"><title>Node7&#45;&gt;Node10</title>
<path fill="none" stroke="#9a32cd" stroke-dasharray="5,2" d="M276.363,-107.828C284.943,-110.671 293.194,-115.107 299,-122 339.129,-169.646 287.281,-206.253 317,-261 335.652,-295.36 354.89,-291.902 384,-318 392.193,-325.345 393.186,-328.413 402,-335 418.445,-347.29 438.879,-358.811 453.507,-366.492"/>
<polygon fill="#9a32cd" stroke="#9a32cd" points="277.213,-104.433 266.649,-105.25 275.417,-111.199 277.213,-104.433"/>
<text text-anchor="middle" x="350.5" y="-321" font-family="Helvetica,sans-Serif" font-size="10.00"> username</text>
</g>
<!-- Node8 -->
<g id="node8" class="node"><title>Node8</title>
<g id="a_node8"><a xlink:title="STL class. ">
<polygon fill="white" stroke="#bfbfbf" points="0,-88 0,-118 95,-118 95,-88 0,-88"/>
<text text-anchor="start" x="8" y="-106" font-family="Helvetica,sans-Serif" font-size="10.00">std::basic_string&lt;</text>
<text text-anchor="middle" x="47.5" y="-95" font-family="Helvetica,sans-Serif" font-size="10.00"> char &gt;</text>
</a>
</g>
</g>
<!-- Node8&#45;&gt;Node7 -->
<g id="edge9" class="edge"><title>Node8&#45;&gt;Node7</title>
<path fill="none" stroke="midnightblue" d="M105.287,-103C138.612,-103 179.335,-103 206.27,-103"/>
<polygon fill="midnightblue" stroke="midnightblue" points="105.206,-99.5001 95.2056,-103 105.206,-106.5 105.206,-99.5001"/>
</g>
<!-- Node9&#45;&gt;Node4 -->
<g id="edge10" class="edge"><title>Node9&#45;&gt;Node4</title>
<path fill="none" stroke="#9a32cd" stroke-dasharray="5,2" d="M261.161,-241.272C276.504,-232.448 297.246,-221.842 317,-216 351.897,-205.68 392.866,-201.506 423.989,-199.872"/>
<polygon fill="#9a32cd" stroke="#9a32cd" points="259.188,-238.373 252.364,-246.477 262.752,-244.398 259.188,-238.373"/>
<text text-anchor="middle" x="350.5" y="-219" font-family="Helvetica,sans-Serif" font-size="10.00"> roles</text>
</g>
<!-- Node10&#45;&gt;Node1 -->
<g id="edge12" class="edge"><title>Node10&#45;&gt;Node1</title>
<path fill="none" stroke="#9a32cd" stroke-dasharray="5,2" d="M510.823,-362.916C546.977,-349.893 601.603,-330.216 633.9,-318.582"/>
<polygon fill="#9a32cd" stroke="#9a32cd" points="509.371,-359.719 501.149,-366.401 511.744,-366.304 509.371,-359.719"/>
<text text-anchor="middle" x="582.5" y="-346" font-family="Helvetica,sans-Serif" font-size="10.00"> usr</text>
</g>
<!-- Node11 -->
<g id="node11" class="node"><title>Node11</title>
<polygon fill="white" stroke="#bfbfbf" points="211,-400.5 211,-419.5 262,-419.5 262,-400.5 211,-400.5"/>
<text text-anchor="middle" x="236.5" y="-407.5" font-family="Helvetica,sans-Serif" font-size="10.00">uint16_t</text>
</g>
<!-- Node11&#45;&gt;Node10 -->
<g id="edge14" class="edge"><title>Node11&#45;&gt;Node10</title>
<path fill="none" stroke="#9a32cd" stroke-dasharray="5,2" d="M272.207,-404.979C319.144,-398.188 401.915,-386.212 444.88,-379.996"/>
<polygon fill="#9a32cd" stroke="#9a32cd" points="271.601,-401.53 262.205,-406.426 272.603,-408.458 271.601,-401.53"/>
<text text-anchor="middle" x="350.5" y="-402" font-family="Helvetica,sans-Serif" font-size="10.00"> discriminator</text>
</g>
<!-- Node12 -->
<g id="node12" class="node"><title>Node12</title>
<polygon fill="white" stroke="#bfbfbf" points="211,-362.5 211,-381.5 262,-381.5 262,-362.5 211,-362.5"/>
<text text-anchor="middle" x="236.5" y="-369.5" font-family="Helvetica,sans-Serif" font-size="10.00">uint32_t</text>
</g>
<!-- Node12&#45;&gt;Node10 -->
<g id="edge15" class="edge"><title>Node12&#45;&gt;Node10</title>
<path fill="none" stroke="#9a32cd" stroke-dasharray="5,2" d="M272.207,-372.591C319.144,-373.39 401.915,-374.799 444.88,-375.53"/>
<polygon fill="#9a32cd" stroke="#9a32cd" points="272.263,-369.091 262.205,-372.421 272.144,-376.09 272.263,-369.091"/>
<text text-anchor="middle" x="350.5" y="-378" font-family="Helvetica,sans-Serif" font-size="10.00"> flags</text>
</g>
<!-- Node13&#45;&gt;Node10 -->
<g id="edge18" class="edge"><title>Node13&#45;&gt;Node10</title>
<path fill="none" stroke="#9a32cd" stroke-dasharray="5,2" d="M298.549,-436.367C325.101,-430.659 356.39,-423.052 384,-414 408.31,-406.03 435.174,-394.013 452.855,-385.634"/>
<polygon fill="#9a32cd" stroke="#9a32cd" points="297.684,-432.972 288.622,-438.46 299.129,-439.821 297.684,-432.972"/>
<text text-anchor="middle" x="350.5" y="-435" font-family="Helvetica,sans-Serif" font-size="10.00"> avatar</text>
</g>
<!-- Node14 -->
<g id="node14" class="node"><title>Node14</title>
<polygon fill="white" stroke="#bfbfbf" points="402,-0.5 402,-41.5 545,-41.5 545,-0.5 402,-0.5"/>
<text text-anchor="start" x="410" y="-29.5" font-family="Helvetica,sans-Serif" font-size="10.00">variant&lt; dpp::command</text>
<text text-anchor="start" x="410" y="-18.5" font-family="Helvetica,sans-Serif" font-size="10.00">_interaction, dpp::component</text>
<text text-anchor="middle" x="473.5" y="-7.5" font-family="Helvetica,sans-Serif" font-size="10.00">_interaction &gt;</text>
</g>
<!-- Node14&#45;&gt;Node1 -->
<g id="edge20" class="edge"><title>Node14&#45;&gt;Node1</title>
<path fill="none" stroke="#9a32cd" stroke-dasharray="5,2" d="M554.773,-27.2046C572.283,-32.0743 589.338,-40.0657 602,-53 637.64,-89.4055 655.639,-257.37 659.634,-299.43"/>
<polygon fill="#9a32cd" stroke="#9a32cd" points="555.57,-23.7964 545.024,-24.8088 553.9,-30.5942 555.57,-23.7964"/>
<text text-anchor="middle" x="582.5" y="-56" font-family="Helvetica,sans-Serif" font-size="10.00"> data</text>
</g>
</g>
</svg>
