<?xml version="1.0" encoding="UTF-8" standalone="no"?>
<!DOCTYPE svg PUBLIC "-//W3C//DTD SVG 1.1//EN"
 "http://www.w3.org/Graphics/SVG/1.1/DTD/svg11.dtd">
<!-- Generated by graphviz version 2.43.0 (0)
 -->
<!-- Title: dpp::voicestate Pages: 1 -->
<svg width="1320pt" height="943pt"
 viewBox="0.00 0.00 1320.00 943.00" xmlns="http://www.w3.org/2000/svg" xmlns:xlink="http://www.w3.org/1999/xlink">
<g id="graph0" class="graph" transform="scale(1 1) rotate(0) translate(4 939)">
<title>dpp::voicestate</title>
<polygon fill="white" stroke="transparent" points="-4,4 -4,-939 1316,-939 1316,4 -4,4"/>
<!-- Node1 -->
<g id="node1" class="node">
<title>Node1</title>
<g id="a_node1"><a xlink:title="Represents the voice state of a user on a guild These are stored in the dpp::guild object,...">
<polygon fill="#bfbfbf" stroke="black" points="1220,-329.5 1220,-348.5 1312,-348.5 1312,-329.5 1220,-329.5"/>
<text text-anchor="middle" x="1266" y="-336.5" font-family="Helvetica,sans-Serif" font-size="10.00">dpp::voicestate</text>
</a>
</g>
</g>
<!-- Node2 -->
<g id="node2" class="node">
<title>Node2</title>
<g id="a_node2"><a xlink:href="classdpp_1_1discord__client.html" target="_top" xlink:title="Implements a discord client. Each discord_client connects to one shard and derives from a websocket c...">
<polygon fill="white" stroke="black" points="1045,-620.5 1045,-639.5 1153,-639.5 1153,-620.5 1045,-620.5"/>
<text text-anchor="middle" x="1099" y="-627.5" font-family="Helvetica,sans-Serif" font-size="10.00">dpp::discord_client</text>
</a>
</g>
</g>
<!-- Node2&#45;&gt;Node1 -->
<g id="edge1" class="edge">
<title>Node2&#45;&gt;Node1</title>
<path fill="none" stroke="#9a32cd" stroke-dasharray="5,2" d="M1110.48,-611.51C1142.1,-555.76 1235.76,-390.56 1259.49,-348.72"/>
<polygon fill="#9a32cd" stroke="#9a32cd" points="1107.38,-609.89 1105.49,-620.32 1113.47,-613.35 1107.38,-609.89"/>
<text text-anchor="middle" x="1186.5" y="-505" font-family="Helvetica,sans-Serif" font-size="10.00"> shard</text>
</g>
<!-- Node3 -->
<g id="node3" class="node">
<title>Node3</title>
<g id="a_node3"><a xlink:href="classdpp_1_1websocket__client.html" target="_top" xlink:title="Implements a websocket client based on the SSL client.">
<polygon fill="white" stroke="black" points="747,-696.5 747,-715.5 872,-715.5 872,-696.5 747,-696.5"/>
<text text-anchor="middle" x="809.5" y="-703.5" font-family="Helvetica,sans-Serif" font-size="10.00">dpp::websocket_client</text>
</a>
</g>
</g>
<!-- Node3&#45;&gt;Node2 -->
<g id="edge2" class="edge">
<title>Node3&#45;&gt;Node2</title>
<path fill="none" stroke="midnightblue" d="M882.39,-707.26C925.62,-705.79 981,-699.91 1027,-682 1051.77,-672.35 1075.67,-651.8 1088.44,-639.62"/>
<polygon fill="midnightblue" stroke="midnightblue" points="882.14,-703.77 872.23,-707.53 882.32,-710.76 882.14,-703.77"/>
</g>
<!-- Node4 -->
<g id="node4" class="node">
<title>Node4</title>
<g id="a_node4"><a xlink:href="classdpp_1_1ssl__client.html" target="_top" xlink:title="Implements a simple non&#45;blocking SSL stream client.">
<polygon fill="white" stroke="black" points="478,-638.5 478,-657.5 564,-657.5 564,-638.5 478,-638.5"/>
<text text-anchor="middle" x="521" y="-645.5" font-family="Helvetica,sans-Serif" font-size="10.00">dpp::ssl_client</text>
</a>
</g>
</g>
<!-- Node4&#45;&gt;Node3 -->
<g id="edge3" class="edge">
<title>Node4&#45;&gt;Node3</title>
<path fill="none" stroke="midnightblue" d="M548.77,-662.02C563.5,-669.13 582.33,-677.25 600,-682 648.38,-695.02 704.94,-700.97 746.93,-703.7"/>
<polygon fill="midnightblue" stroke="midnightblue" points="550.24,-658.85 539.73,-657.54 547.13,-665.12 550.24,-658.85"/>
</g>
<!-- Node5 -->
<g id="node5" class="node">
<title>Node5</title>
<g id="a_node5"><a xlink:title=" ">
<polygon fill="white" stroke="#bfbfbf" points="206.5,-851.5 206.5,-870.5 271.5,-870.5 271.5,-851.5 206.5,-851.5"/>
<text text-anchor="middle" x="239" y="-858.5" font-family="Helvetica,sans-Serif" font-size="10.00">std::string</text>
</a>
</g>
</g>
<!-- Node5&#45;&gt;Node1 -->
<g id="edge43" class="edge">
<title>Node5&#45;&gt;Node1</title>
<path fill="none" stroke="#9a32cd" stroke-dasharray="5,2" d="M274.52,-873.96C326.83,-892.4 429.66,-924 520,-924 520,-924 520,-924 1100,-924 1224.78,-924 1259.83,-424.73 1264.45,-348.67"/>
<polygon fill="#9a32cd" stroke="#9a32cd" points="275.65,-870.64 265.05,-870.57 273.29,-877.23 275.65,-870.64"/>
<text text-anchor="middle" x="809.5" y="-927" font-family="Helvetica,sans-Serif" font-size="10.00"> session_id</text>
</g>
<!-- Node5&#45;&gt;Node2 -->
<g id="edge36" class="edge">
<title>Node5&#45;&gt;Node2</title>
<path fill="none" stroke="#9a32cd" stroke-dasharray="5,2" d="M282.03,-864.84C346.82,-869.89 474.84,-876.46 582,-861 594.63,-859.18 1016.75,-754.6 1027,-747 1065.55,-718.41 1087.47,-662.09 1095,-639.61"/>
<polygon fill="#9a32cd" stroke="#9a32cd" points="282.06,-861.33 271.81,-864.01 281.49,-868.31 282.06,-861.33"/>
<text text-anchor="middle" x="664.5" y="-870" font-family="Helvetica,sans-Serif" font-size="10.00"> sessionid</text>
<text text-anchor="middle" x="664.5" y="-859" font-family="Helvetica,sans-Serif" font-size="10.00">token</text>
</g>
<!-- Node5&#45;&gt;Node4 -->
<g id="edge4" class="edge">
<title>Node5&#45;&gt;Node4</title>
<path fill="none" stroke="#9a32cd" stroke-dasharray="5,2" d="M256.35,-844.02C271.83,-828.73 296.31,-806.49 321,-792 370.48,-762.95 395.63,-780.79 442,-747 476.66,-721.74 503.97,-677.13 514.87,-657.6"/>
<polygon fill="#9a32cd" stroke="#9a32cd" points="253.68,-841.74 249.12,-851.3 258.65,-846.67 253.68,-841.74"/>
<text text-anchor="middle" x="381.5" y="-839" font-family="Helvetica,sans-Serif" font-size="10.00"> buffer</text>
<text text-anchor="middle" x="381.5" y="-828" font-family="Helvetica,sans-Serif" font-size="10.00">cipher</text>
<text text-anchor="middle" x="381.5" y="-817" font-family="Helvetica,sans-Serif" font-size="10.00">hostname</text>
<text text-anchor="middle" x="381.5" y="-806" font-family="Helvetica,sans-Serif" font-size="10.00">obuffer</text>
<text text-anchor="middle" x="381.5" y="-795" font-family="Helvetica,sans-Serif" font-size="10.00">port</text>
</g>
<!-- Node15 -->
<g id="node15" class="node">
<title>Node15</title>
<g id="a_node15"><a xlink:href="classdpp_1_1cluster.html" target="_top" xlink:title="The cluster class represents a group of shards and a command queue for sending and receiving commands...">
<polygon fill="white" stroke="black" points="772.5,-385.5 772.5,-404.5 846.5,-404.5 846.5,-385.5 772.5,-385.5"/>
<text text-anchor="middle" x="809.5" y="-392.5" font-family="Helvetica,sans-Serif" font-size="10.00">dpp::cluster</text>
</a>
</g>
</g>
<!-- Node5&#45;&gt;Node15 -->
<g id="edge15" class="edge">
<title>Node5&#45;&gt;Node15</title>
<path fill="none" stroke="#9a32cd" stroke-dasharray="5,2" d="M281.82,-859.59C388.68,-855.06 667.67,-837.22 729,-773 755.97,-744.76 738.98,-725.22 747,-687 770.31,-575.96 798.75,-441.21 806.48,-404.58"/>
<polygon fill="#9a32cd" stroke="#9a32cd" points="281.58,-856.09 271.73,-860 281.86,-863.09 281.58,-856.09"/>
<text text-anchor="middle" x="521" y="-849" font-family="Helvetica,sans-Serif" font-size="10.00"> token</text>
</g>
<!-- Node18 -->
<g id="node18" class="node">
<title>Node18</title>
<g id="a_node18"><a xlink:href="classdpp_1_1user.html" target="_top" xlink:title="Represents a user on discord. May or may not be a member of a dpp::guild.">
<polygon fill="white" stroke="black" points="490,-208.5 490,-227.5 552,-227.5 552,-208.5 490,-208.5"/>
<text text-anchor="middle" x="521" y="-215.5" font-family="Helvetica,sans-Serif" font-size="10.00">dpp::user</text>
</a>
</g>
</g>
<!-- Node5&#45;&gt;Node18 -->
<g id="edge22" class="edge">
<title>Node5&#45;&gt;Node18</title>
<path fill="none" stroke="#9a32cd" stroke-dasharray="5,2" d="M255.06,-843.6C270.04,-825.18 292.3,-794.6 303,-764 316.64,-725.01 297.44,-612.93 321,-579 355.13,-529.86 408.41,-569.51 442,-520 471.9,-475.93 438.37,-329.67 460,-281 470.12,-258.22 492.12,-238.64 506.48,-227.59"/>
<polygon fill="#9a32cd" stroke="#9a32cd" points="252.28,-841.46 248.56,-851.38 257.65,-845.95 252.28,-841.46"/>
<text text-anchor="middle" x="381.5" y="-582" font-family="Helvetica,sans-Serif" font-size="10.00"> username</text>
</g>
<!-- Node6 -->
<g id="node6" class="node">
<title>Node6</title>
<g id="a_node6"><a xlink:title=" ">
<polygon fill="white" stroke="#bfbfbf" points="0,-846 0,-876 104,-876 104,-846 0,-846"/>
<text text-anchor="start" x="8" y="-864" font-family="Helvetica,sans-Serif" font-size="10.00">std::basic_string&lt;</text>
<text text-anchor="middle" x="52" y="-853" font-family="Helvetica,sans-Serif" font-size="10.00"> Char &gt;</text>
</a>
</g>
</g>
<!-- Node6&#45;&gt;Node5 -->
<g id="edge5" class="edge">
<title>Node6&#45;&gt;Node5</title>
<path fill="none" stroke="midnightblue" d="M114.26,-861C145.05,-861 181.08,-861 206.29,-861"/>
<polygon fill="midnightblue" stroke="midnightblue" points="114.04,-857.5 104.04,-861 114.04,-864.5 114.04,-857.5"/>
</g>
<!-- Node7 -->
<g id="node7" class="node">
<title>Node7</title>
<g id="a_node7"><a xlink:title=" ">
<polygon fill="white" stroke="#bfbfbf" points="220,-735.5 220,-754.5 258,-754.5 258,-735.5 220,-735.5"/>
<text text-anchor="middle" x="239" y="-742.5" font-family="Helvetica,sans-Serif" font-size="10.00">bool</text>
</a>
</g>
</g>
<!-- Node7&#45;&gt;Node2 -->
<g id="edge39" class="edge">
<title>Node7&#45;&gt;Node2</title>
<path fill="none" stroke="#9a32cd" stroke-dasharray="5,2" d="M268.19,-745.21C307.24,-745.42 379.99,-745.52 442,-744 702.41,-737.6 794.85,-826.16 1027,-708 1058.01,-692.22 1082.1,-656.9 1092.46,-639.73"/>
<polygon fill="#9a32cd" stroke="#9a32cd" points="268.13,-741.71 258.11,-745.15 268.09,-748.71 268.13,-741.71"/>
<text text-anchor="middle" x="664.5" y="-769" font-family="Helvetica,sans-Serif" font-size="10.00"> ready</text>
</g>
<!-- Node7&#45;&gt;Node4 -->
<g id="edge6" class="edge">
<title>Node7&#45;&gt;Node4</title>
<path fill="none" stroke="#9a32cd" stroke-dasharray="5,2" d="M268.38,-740.88C320.23,-733.24 426.39,-717 442,-710 470.41,-697.26 497.43,-671.78 510.97,-657.78"/>
<polygon fill="#9a32cd" stroke="#9a32cd" points="267.58,-737.46 258.19,-742.37 268.6,-744.39 267.58,-737.46"/>
<text text-anchor="middle" x="381.5" y="-735" font-family="Helvetica,sans-Serif" font-size="10.00"> nonblocking</text>
</g>
<!-- Node8 -->
<g id="node8" class="node">
<title>Node8</title>
<g id="a_node8"><a xlink:title=" ">
<polygon fill="white" stroke="#bfbfbf" points="224.5,-621.5 224.5,-640.5 253.5,-640.5 253.5,-621.5 224.5,-621.5"/>
<text text-anchor="middle" x="239" y="-628.5" font-family="Helvetica,sans-Serif" font-size="10.00">int</text>
</a>
</g>
</g>
<!-- Node8&#45;&gt;Node4 -->
<g id="edge7" class="edge">
<title>Node8&#45;&gt;Node4</title>
<path fill="none" stroke="#9a32cd" stroke-dasharray="5,2" d="M263.81,-629.6C301.67,-627.72 377.87,-625.33 442,-632 454.79,-633.33 468.58,-635.81 480.95,-638.42"/>
<polygon fill="#9a32cd" stroke="#9a32cd" points="263.57,-626.11 253.77,-630.14 263.94,-633.1 263.57,-626.11"/>
<text text-anchor="middle" x="381.5" y="-635" font-family="Helvetica,sans-Serif" font-size="10.00"> sfd</text>
</g>
<!-- Node9 -->
<g id="node9" class="node">
<title>Node9</title>
<g id="a_node9"><a xlink:href="classdpp_1_1opensslcontext.html" target="_top" xlink:title="This is an opaque class containing openssl library specific structures. We define it this way so that...">
<polygon fill="white" stroke="black" points="181.5,-583.5 181.5,-602.5 296.5,-602.5 296.5,-583.5 181.5,-583.5"/>
<text text-anchor="middle" x="239" y="-590.5" font-family="Helvetica,sans-Serif" font-size="10.00">dpp::opensslcontext</text>
</a>
</g>
</g>
<!-- Node9&#45;&gt;Node4 -->
<g id="edge8" class="edge">
<title>Node9&#45;&gt;Node4</title>
<path fill="none" stroke="#9a32cd" stroke-dasharray="5,2" d="M306.77,-593.63C346.61,-595.4 397.88,-600.12 442,-612 464.32,-618.01 488.21,-629.94 503.58,-638.42"/>
<polygon fill="#9a32cd" stroke="#9a32cd" points="306.76,-590.13 296.63,-593.24 306.49,-597.13 306.76,-590.13"/>
<text text-anchor="middle" x="381.5" y="-615" font-family="Helvetica,sans-Serif" font-size="10.00"> ssl</text>
</g>
<!-- Node10 -->
<g id="node10" class="node">
<title>Node10</title>
<g id="a_node10"><a xlink:title=" ">
<polygon fill="white" stroke="#bfbfbf" points="31,-606.5 31,-625.5 73,-625.5 73,-606.5 31,-606.5"/>
<text text-anchor="middle" x="52" y="-613.5" font-family="Helvetica,sans-Serif" font-size="10.00">SSL *</text>
</a>
</g>
</g>
<!-- Node10&#45;&gt;Node9 -->
<g id="edge9" class="edge">
<title>Node10&#45;&gt;Node9</title>
<path fill="none" stroke="#9a32cd" stroke-dasharray="5,2" d="M83.33,-612.23C109.83,-608.93 149,-604.07 181.29,-600.05"/>
<polygon fill="#9a32cd" stroke="#9a32cd" points="82.64,-608.79 73.15,-613.49 83.51,-615.73 82.64,-608.79"/>
<text text-anchor="middle" x="139.5" y="-610" font-family="Helvetica,sans-Serif" font-size="10.00"> ssl</text>
</g>
<!-- Node11 -->
<g id="node11" class="node">
<title>Node11</title>
<g id="a_node11"><a xlink:title=" ">
<polygon fill="white" stroke="#bfbfbf" points="18.5,-568.5 18.5,-587.5 85.5,-587.5 85.5,-568.5 18.5,-568.5"/>
<text text-anchor="middle" x="52" y="-575.5" font-family="Helvetica,sans-Serif" font-size="10.00">SSL_CTX *</text>
</a>
</g>
</g>
<!-- Node11&#45;&gt;Node9 -->
<g id="edge10" class="edge">
<title>Node11&#45;&gt;Node9</title>
<path fill="none" stroke="#9a32cd" stroke-dasharray="5,2" d="M95.87,-579.34C114.65,-580.11 136.94,-581.28 157,-583 164.91,-583.68 173.23,-584.54 181.41,-585.47"/>
<polygon fill="#9a32cd" stroke="#9a32cd" points="95.96,-575.84 85.83,-578.95 95.69,-582.84 95.96,-575.84"/>
<text text-anchor="middle" x="139.5" y="-586" font-family="Helvetica,sans-Serif" font-size="10.00"> ctx</text>
</g>
<!-- Node12 -->
<g id="node12" class="node">
<title>Node12</title>
<g id="a_node12"><a xlink:title=" ">
<polygon fill="white" stroke="#bfbfbf" points="215,-436.5 215,-455.5 263,-455.5 263,-436.5 215,-436.5"/>
<text text-anchor="middle" x="239" y="-443.5" font-family="Helvetica,sans-Serif" font-size="10.00">time_t</text>
</a>
</g>
</g>
<!-- Node12&#45;&gt;Node2 -->
<g id="edge33" class="edge">
<title>Node12&#45;&gt;Node2</title>
<path fill="none" stroke="#9a32cd" stroke-dasharray="5,2" d="M273.29,-441.2C314.91,-436.75 387.31,-434.2 442,-460 452.52,-464.96 451.33,-471.25 460,-479 510.64,-524.25 539.11,-518.34 582,-571 593.8,-585.49 584.42,-598.68 600,-609 636.34,-633.08 924,-632.26 1044.84,-630.82"/>
<polygon fill="#9a32cd" stroke="#9a32cd" points="272.68,-437.75 263.16,-442.39 273.5,-444.7 272.68,-437.75"/>
<text text-anchor="middle" x="664.5" y="-641" font-family="Helvetica,sans-Serif" font-size="10.00"> last_heartbeat</text>
<text text-anchor="middle" x="664.5" y="-630" font-family="Helvetica,sans-Serif" font-size="10.00">last_heartbeat_ack</text>
</g>
<!-- Node12&#45;&gt;Node4 -->
<g id="edge11" class="edge">
<title>Node12&#45;&gt;Node4</title>
<path fill="none" stroke="#9a32cd" stroke-dasharray="5,2" d="M272.99,-451.32C324.25,-460.27 419.5,-479.84 442,-505 472.98,-539.64 434.61,-569.07 460,-608 468.89,-621.63 484.22,-631.73 497.16,-638.38"/>
<polygon fill="#9a32cd" stroke="#9a32cd" points="273.5,-447.86 263.06,-449.62 272.32,-454.76 273.5,-447.86"/>
<text text-anchor="middle" x="381.5" y="-508" font-family="Helvetica,sans-Serif" font-size="10.00"> last_tick</text>
</g>
<!-- Node12&#45;&gt;Node15 -->
<g id="edge16" class="edge">
<title>Node12&#45;&gt;Node15</title>
<path fill="none" stroke="#9a32cd" stroke-dasharray="5,2" d="M273.42,-440.99C288.01,-438.93 305.33,-436.64 321,-435 501.84,-416.09 548.07,-423.02 729,-405 743.12,-403.59 758.61,-401.72 772.13,-399.98"/>
<polygon fill="#9a32cd" stroke="#9a32cd" points="272.75,-437.55 263.35,-442.44 273.75,-444.48 272.75,-437.55"/>
<text text-anchor="middle" x="521" y="-427" font-family="Helvetica,sans-Serif" font-size="10.00"> last_identify</text>
</g>
<!-- Node13 -->
<g id="node13" class="node">
<title>Node13</title>
<g id="a_node13"><a xlink:title=" ">
<polygon fill="white" stroke="#bfbfbf" points="24,-202.5 24,-221.5 80,-221.5 80,-202.5 24,-202.5"/>
<text text-anchor="middle" x="52" y="-209.5" font-family="Helvetica,sans-Serif" font-size="10.00">uint64_t</text>
</a>
</g>
</g>
<!-- Node13&#45;&gt;Node1 -->
<g id="edge42" class="edge">
<title>Node13&#45;&gt;Node1</title>
<path fill="none" stroke="#9a32cd" stroke-dasharray="5,2" d="M59.31,-192.58C77.66,-140.21 136.3,0 238,0 238,0 238,0 1100,0 1250.55,0 1263.77,-273.64 1264.9,-329.22"/>
<polygon fill="#9a32cd" stroke="#9a32cd" points="55.89,-191.75 56,-202.34 62.52,-193.99 55.89,-191.75"/>
<text text-anchor="middle" x="664.5" y="-25" font-family="Helvetica,sans-Serif" font-size="10.00"> channel_id</text>
<text text-anchor="middle" x="664.5" y="-14" font-family="Helvetica,sans-Serif" font-size="10.00">guild_id</text>
<text text-anchor="middle" x="664.5" y="-3" font-family="Helvetica,sans-Serif" font-size="10.00">user_id</text>
</g>
<!-- Node13&#45;&gt;Node2 -->
<g id="edge35" class="edge">
<title>Node13&#45;&gt;Node2</title>
<path fill="none" stroke="#9a32cd" stroke-dasharray="5,2" d="M56.38,-231.75C65.72,-279.95 96.57,-404.07 175,-465 270.61,-539.28 336.86,-458.97 442,-519 452.39,-524.93 450.9,-531.24 460,-539 509.14,-580.93 538.65,-570.1 582,-618 593.74,-630.97 585.07,-643.89 600,-653 624.72,-668.08 835.12,-667.65 1027,-645 1037.51,-643.76 1048.77,-641.72 1059.15,-639.53"/>
<polygon fill="#9a32cd" stroke="#9a32cd" points="59.78,-230.9 54.53,-221.7 52.89,-232.16 59.78,-230.9"/>
<text text-anchor="middle" x="521" y="-621" font-family="Helvetica,sans-Serif" font-size="10.00"> last_seq</text>
</g>
<!-- Node13&#45;&gt;Node4 -->
<g id="edge12" class="edge">
<title>Node13&#45;&gt;Node4</title>
<path fill="none" stroke="#9a32cd" stroke-dasharray="5,2" d="M54.92,-231.7C61.03,-290.3 82.07,-461.66 122,-498 175.13,-546.36 387.97,-496.64 442,-544 464.22,-563.48 442.63,-584.1 460,-608 469.79,-621.47 485.6,-631.74 498.54,-638.5"/>
<polygon fill="#9a32cd" stroke="#9a32cd" points="58.38,-231.16 53.89,-221.56 51.42,-231.86 58.38,-231.16"/>
<text text-anchor="middle" x="239" y="-536" font-family="Helvetica,sans-Serif" font-size="10.00"> bytes_in</text>
<text text-anchor="middle" x="239" y="-525" font-family="Helvetica,sans-Serif" font-size="10.00">bytes_out</text>
</g>
<!-- Node19 -->
<g id="node19" class="node">
<title>Node19</title>
<g id="a_node19"><a xlink:href="classdpp_1_1managed.html" target="_top" xlink:title="The managed class is the base class for various types that can be stored in a cache that are identifi...">
<polygon fill="white" stroke="black" points="196,-126.5 196,-145.5 282,-145.5 282,-126.5 196,-126.5"/>
<text text-anchor="middle" x="239" y="-133.5" font-family="Helvetica,sans-Serif" font-size="10.00">dpp::managed</text>
</a>
</g>
</g>
<!-- Node13&#45;&gt;Node19 -->
<g id="edge21" class="edge">
<title>Node13&#45;&gt;Node19</title>
<path fill="none" stroke="#9a32cd" stroke-dasharray="5,2" d="M80.26,-197.88C104.67,-185.57 141.65,-167.74 175,-155 183.96,-151.57 193.83,-148.35 203.04,-145.57"/>
<polygon fill="#9a32cd" stroke="#9a32cd" points="78.57,-194.81 71.24,-202.46 81.74,-201.05 78.57,-194.81"/>
<text text-anchor="middle" x="139.5" y="-180" font-family="Helvetica,sans-Serif" font-size="10.00"> id</text>
</g>
<!-- Node21 -->
<g id="node21" class="node">
<title>Node21</title>
<g id="a_node21"><a xlink:href="structdpp_1_1utility_1_1iconhash.html" target="_top" xlink:title="Store a 128 bit icon hash (profile picture, server icon etc) as a 128 bit binary value made of two ui...">
<polygon fill="white" stroke="black" points="180,-202.5 180,-221.5 298,-221.5 298,-202.5 180,-202.5"/>
<text text-anchor="middle" x="239" y="-209.5" font-family="Helvetica,sans-Serif" font-size="10.00">dpp::utility::iconhash</text>
</a>
</g>
</g>
<!-- Node13&#45;&gt;Node21 -->
<g id="edge25" class="edge">
<title>Node13&#45;&gt;Node21</title>
<path fill="none" stroke="#9a32cd" stroke-dasharray="5,2" d="M90.37,-212C116.08,-212 150.72,-212 179.99,-212"/>
<polygon fill="#9a32cd" stroke="#9a32cd" points="90.3,-208.5 80.3,-212 90.3,-215.5 90.3,-208.5"/>
<text text-anchor="middle" x="139.5" y="-226" font-family="Helvetica,sans-Serif" font-size="10.00"> first</text>
<text text-anchor="middle" x="139.5" y="-215" font-family="Helvetica,sans-Serif" font-size="10.00">second</text>
</g>
<!-- Node14 -->
<g id="node14" class="node">
<title>Node14</title>
<g id="a_node14"><a xlink:title=" ">
<polygon fill="white" stroke="#bfbfbf" points="206.5,-659.5 206.5,-678.5 271.5,-678.5 271.5,-659.5 206.5,-659.5"/>
<text text-anchor="middle" x="239" y="-666.5" font-family="Helvetica,sans-Serif" font-size="10.00">function&lt;</text>
</a>
</g>
</g>
<!-- Node14&#45;&gt;Node4 -->
<g id="edge13" class="edge">
<title>Node14&#45;&gt;Node4</title>
<path fill="none" stroke="#9a32cd" stroke-dasharray="5,2" d="M281.59,-665.88C334.27,-661.93 424.56,-655.16 477.61,-651.18"/>
<polygon fill="#9a32cd" stroke="#9a32cd" points="281.29,-662.39 271.58,-666.63 281.81,-669.37 281.29,-662.39"/>
<text text-anchor="middle" x="381.5" y="-698" font-family="Helvetica,sans-Serif" font-size="10.00"> custom_readable_fd</text>
<text text-anchor="middle" x="381.5" y="-687" font-family="Helvetica,sans-Serif" font-size="10.00">custom_readable_ready</text>
<text text-anchor="middle" x="381.5" y="-676" font-family="Helvetica,sans-Serif" font-size="10.00">custom_writeable_fd</text>
<text text-anchor="middle" x="381.5" y="-665" font-family="Helvetica,sans-Serif" font-size="10.00">custom_writeable_ready</text>
</g>
<!-- Node15&#45;&gt;Node2 -->
<g id="edge14" class="edge">
<title>Node15&#45;&gt;Node2</title>
<path fill="none" stroke="#9a32cd" stroke-dasharray="5,2" d="M830.12,-411.04C885.52,-456.32 1042.01,-584.23 1086.23,-620.38"/>
<polygon fill="#9a32cd" stroke="#9a32cd" points="832.08,-408.12 822.13,-404.5 827.65,-413.54 832.08,-408.12"/>
<text text-anchor="middle" x="958.5" y="-570" font-family="Helvetica,sans-Serif" font-size="10.00"> creator</text>
</g>
<!-- Node16 -->
<g id="node16" class="node">
<title>Node16</title>
<g id="a_node16"><a xlink:title=" ">
<polygon fill="white" stroke="#bfbfbf" points="211,-258.5 211,-277.5 267,-277.5 267,-258.5 211,-258.5"/>
<text text-anchor="middle" x="239" y="-265.5" font-family="Helvetica,sans-Serif" font-size="10.00">uint32_t</text>
</a>
</g>
</g>
<!-- Node16&#45;&gt;Node2 -->
<g id="edge32" class="edge">
<title>Node16&#45;&gt;Node2</title>
<path fill="none" stroke="#9a32cd" stroke-dasharray="5,2" d="M277.38,-265.99C317.96,-263.67 384.66,-259.46 442,-254 504.4,-248.05 528.62,-269.86 582,-237 594.28,-229.44 587.28,-216.81 600,-210 650.55,-182.95 675.14,-190.34 729,-210 891.67,-269.38 924.38,-321.51 1027,-461 1066.41,-514.58 1088.8,-593.31 1095.68,-620.42"/>
<polygon fill="#9a32cd" stroke="#9a32cd" points="276.94,-262.51 267.16,-266.56 277.34,-269.5 276.94,-262.51"/>
<text text-anchor="middle" x="664.5" y="-268" font-family="Helvetica,sans-Serif" font-size="10.00"> heartbeat_interval</text>
<text text-anchor="middle" x="664.5" y="-257" font-family="Helvetica,sans-Serif" font-size="10.00">intents</text>
<text text-anchor="middle" x="664.5" y="-246" font-family="Helvetica,sans-Serif" font-size="10.00">max_shards</text>
<text text-anchor="middle" x="664.5" y="-235" font-family="Helvetica,sans-Serif" font-size="10.00">reconnects</text>
<text text-anchor="middle" x="664.5" y="-224" font-family="Helvetica,sans-Serif" font-size="10.00">resumes</text>
<text text-anchor="middle" x="664.5" y="-213" font-family="Helvetica,sans-Serif" font-size="10.00">shard_id</text>
</g>
<!-- Node16&#45;&gt;Node15 -->
<g id="edge17" class="edge">
<title>Node16&#45;&gt;Node15</title>
<path fill="none" stroke="#9a32cd" stroke-dasharray="5,2" d="M277.35,-274.91C291.05,-277.33 306.7,-279.94 321,-282 378.79,-290.31 534.17,-278.52 582,-312 596.65,-322.26 585.91,-336.97 600,-348 646.27,-384.22 671.68,-364.07 729,-377 743.22,-380.21 758.87,-383.75 772.49,-386.83"/>
<polygon fill="#9a32cd" stroke="#9a32cd" points="277.77,-271.43 267.31,-273.12 276.54,-278.32 277.77,-271.43"/>
<text text-anchor="middle" x="521" y="-348" font-family="Helvetica,sans-Serif" font-size="10.00"> cluster_id</text>
<text text-anchor="middle" x="521" y="-337" font-family="Helvetica,sans-Serif" font-size="10.00">intents</text>
<text text-anchor="middle" x="521" y="-326" font-family="Helvetica,sans-Serif" font-size="10.00">maxclusters</text>
<text text-anchor="middle" x="521" y="-315" font-family="Helvetica,sans-Serif" font-size="10.00">numshards</text>
</g>
<!-- Node16&#45;&gt;Node18 -->
<g id="edge26" class="edge">
<title>Node16&#45;&gt;Node18</title>
<path fill="none" stroke="#9a32cd" stroke-dasharray="5,2" d="M276.33,-255.31C290.17,-250.86 306.18,-246.19 321,-243 380.06,-230.28 450.47,-223.32 489.72,-220.15"/>
<polygon fill="#9a32cd" stroke="#9a32cd" points="275.1,-252.03 266.69,-258.48 277.28,-258.68 275.1,-252.03"/>
<text text-anchor="middle" x="381.5" y="-246" font-family="Helvetica,sans-Serif" font-size="10.00"> flags</text>
</g>
<!-- Node17 -->
<g id="node17" class="node">
<title>Node17</title>
<g id="a_node17"><a xlink:title=" ">
<polygon fill="white" stroke="#bfbfbf" points="496,-170.5 496,-189.5 546,-189.5 546,-170.5 496,-170.5"/>
<text text-anchor="middle" x="521" y="-177.5" font-family="Helvetica,sans-Serif" font-size="10.00">double</text>
</a>
</g>
</g>
<!-- Node17&#45;&gt;Node2 -->
<g id="edge38" class="edge">
<title>Node17&#45;&gt;Node2</title>
<path fill="none" stroke="#9a32cd" stroke-dasharray="5,2" d="M556.06,-179.24C663.83,-177.15 992.32,-173.45 1027,-205 1090.92,-263.14 1097.29,-562.4 1097.93,-620.3"/>
<polygon fill="#9a32cd" stroke="#9a32cd" points="555.98,-175.74 546.05,-179.44 556.12,-182.74 555.98,-175.74"/>
<text text-anchor="middle" x="809.5" y="-185" font-family="Helvetica,sans-Serif" font-size="10.00"> websocket_ping</text>
</g>
<!-- Node17&#45;&gt;Node15 -->
<g id="edge18" class="edge">
<title>Node17&#45;&gt;Node15</title>
<path fill="none" stroke="#9a32cd" stroke-dasharray="5,2" d="M555.95,-184.27C565.55,-187.04 575.21,-191.58 582,-199 606.9,-226.2 573.19,-254.68 600,-280 642.23,-319.88 678.45,-272.39 729,-301 765.46,-321.64 792.69,-365.77 803.45,-385.33"/>
<polygon fill="#9a32cd" stroke="#9a32cd" points="556.64,-180.84 546.11,-181.97 555.05,-187.65 556.64,-180.84"/>
<text text-anchor="middle" x="664.5" y="-304" font-family="Helvetica,sans-Serif" font-size="10.00"> rest_ping</text>
</g>
<!-- Node18&#45;&gt;Node15 -->
<g id="edge19" class="edge">
<title>Node18&#45;&gt;Node15</title>
<path fill="none" stroke="#9a32cd" stroke-dasharray="5,2" d="M540.27,-234.7C552.89,-246.81 569.59,-263.98 582,-281 591.85,-294.5 586.44,-304.24 600,-314 647.26,-348.02 675.44,-314.14 729,-337 756.97,-348.94 784.48,-372.31 798.65,-385.45"/>
<polygon fill="#9a32cd" stroke="#9a32cd" points="542.32,-231.83 532.64,-227.53 537.53,-236.93 542.32,-231.83"/>
<text text-anchor="middle" x="664.5" y="-340" font-family="Helvetica,sans-Serif" font-size="10.00"> me</text>
</g>
<!-- Node19&#45;&gt;Node18 -->
<g id="edge20" class="edge">
<title>Node19&#45;&gt;Node18</title>
<path fill="none" stroke="midnightblue" d="M292.41,-135.4C335.64,-137.22 396.98,-145.37 442,-174 453.55,-181.35 448.91,-190.97 460,-199 468.76,-205.34 479.72,-209.62 489.87,-212.49"/>
<polygon fill="midnightblue" stroke="midnightblue" points="292.48,-131.9 282.37,-135.07 292.26,-138.89 292.48,-131.9"/>
</g>
<!-- Node20 -->
<g id="node20" class="node">
<title>Node20</title>
<g id="a_node20"><a xlink:title=" ">
<polygon fill="white" stroke="#bfbfbf" points="211,-164.5 211,-183.5 267,-183.5 267,-164.5 211,-164.5"/>
<text text-anchor="middle" x="239" y="-171.5" font-family="Helvetica,sans-Serif" font-size="10.00">uint16_t</text>
</a>
</g>
</g>
<!-- Node20&#45;&gt;Node18 -->
<g id="edge23" class="edge">
<title>Node20&#45;&gt;Node18</title>
<path fill="none" stroke="#9a32cd" stroke-dasharray="5,2" d="M277.12,-174.96C317.93,-176.6 385.25,-181.04 442,-193 450.25,-194.74 451.98,-196.39 460,-199 469.66,-202.14 480.23,-205.51 489.76,-208.52"/>
<polygon fill="#9a32cd" stroke="#9a32cd" points="277.21,-171.46 267.09,-174.59 276.95,-178.46 277.21,-171.46"/>
<text text-anchor="middle" x="381.5" y="-196" font-family="Helvetica,sans-Serif" font-size="10.00"> discriminator</text>
</g>
<!-- Node21&#45;&gt;Node18 -->
<g id="edge24" class="edge">
<title>Node21&#45;&gt;Node18</title>
<path fill="none" stroke="#9a32cd" stroke-dasharray="5,2" d="M308.6,-208.52C347.72,-207.16 397.64,-206.45 442,-209 457.79,-209.91 475.28,-211.84 489.7,-213.68"/>
<polygon fill="#9a32cd" stroke="#9a32cd" points="308.25,-205.03 298.39,-208.9 308.51,-212.03 308.25,-205.03"/>
<text text-anchor="middle" x="381.5" y="-212" font-family="Helvetica,sans-Serif" font-size="10.00"> avatar</text>
</g>
<!-- Node22 -->
<g id="node22" class="node">
<title>Node22</title>
<g id="a_node22"><a xlink:title=" ">
<polygon fill="white" stroke="#bfbfbf" points="214,-58.5 214,-77.5 264,-77.5 264,-58.5 214,-58.5"/>
<text text-anchor="middle" x="239" y="-65.5" font-family="Helvetica,sans-Serif" font-size="10.00">uint8_t</text>
</a>
</g>
</g>
<!-- Node22&#45;&gt;Node1 -->
<g id="edge44" class="edge">
<title>Node22&#45;&gt;Node1</title>
<path fill="none" stroke="#9a32cd" stroke-dasharray="5,2" d="M274.46,-63.95C327.24,-58.1 431.32,-48 520,-48 520,-48 520,-48 1100,-48 1232.42,-48 1259.85,-278.82 1264.26,-329.32"/>
<polygon fill="#9a32cd" stroke="#9a32cd" points="273.85,-60.5 264.3,-65.09 274.63,-67.45 273.85,-60.5"/>
<text text-anchor="middle" x="809.5" y="-51" font-family="Helvetica,sans-Serif" font-size="10.00"> flags</text>
</g>
<!-- Node22&#45;&gt;Node18 -->
<g id="edge27" class="edge">
<title>Node22&#45;&gt;Node18</title>
<path fill="none" stroke="#9a32cd" stroke-dasharray="5,2" d="M274.25,-67.3C319.23,-68.32 397.67,-77.17 442,-123 466.13,-147.95 436.38,-173.56 460,-199 467.73,-207.33 479.08,-212.02 489.84,-214.67"/>
<polygon fill="#9a32cd" stroke="#9a32cd" points="274.15,-63.79 264.12,-67.18 274.08,-70.79 274.15,-63.79"/>
<text text-anchor="middle" x="381.5" y="-126" font-family="Helvetica,sans-Serif" font-size="10.00"> refcount</text>
</g>
<!-- Node23 -->
<g id="node23" class="node">
<title>Node23</title>
<g id="a_node23"><a xlink:href="structdpp_1_1cache__policy__t.html" target="_top" xlink:title="Represents the caching policy of the cluster.">
<polygon fill="white" stroke="black" points="464.5,-365.5 464.5,-384.5 577.5,-384.5 577.5,-365.5 464.5,-365.5"/>
<text text-anchor="middle" x="521" y="-372.5" font-family="Helvetica,sans-Serif" font-size="10.00">dpp::cache_policy_t</text>
</a>
</g>
</g>
<!-- Node23&#45;&gt;Node15 -->
<g id="edge28" class="edge">
<title>Node23&#45;&gt;Node15</title>
<path fill="none" stroke="#9a32cd" stroke-dasharray="5,2" d="M587.62,-379.58C644.87,-383.58 725.81,-389.23 772.14,-392.46"/>
<polygon fill="#9a32cd" stroke="#9a32cd" points="587.8,-376.08 577.58,-378.88 587.31,-383.07 587.8,-376.08"/>
<text text-anchor="middle" x="664.5" y="-393" font-family="Helvetica,sans-Serif" font-size="10.00"> cache_policy</text>
</g>
<!-- Node24 -->
<g id="node24" class="node">
<title>Node24</title>
<g id="a_node24"><a xlink:title=" ">
<polygon fill="white" stroke="#bfbfbf" points="175,-363.5 175,-382.5 303,-382.5 303,-363.5 175,-363.5"/>
<text text-anchor="middle" x="239" y="-370.5" font-family="Helvetica,sans-Serif" font-size="10.00">cache_policy_setting_t</text>
</a>
</g>
</g>
<!-- Node24&#45;&gt;Node23 -->
<g id="edge29" class="edge">
<title>Node24&#45;&gt;Node23</title>
<path fill="none" stroke="#9a32cd" stroke-dasharray="5,2" d="M313.28,-373.22C351.62,-373.38 399.35,-373.62 442,-374 449.18,-374.06 456.73,-374.14 464.18,-374.23"/>
<polygon fill="#9a32cd" stroke="#9a32cd" points="313.25,-369.72 303.23,-373.19 313.22,-376.72 313.25,-369.72"/>
<text text-anchor="middle" x="381.5" y="-399" font-family="Helvetica,sans-Serif" font-size="10.00"> emoji_policy</text>
<text text-anchor="middle" x="381.5" y="-388" font-family="Helvetica,sans-Serif" font-size="10.00">role_policy</text>
<text text-anchor="middle" x="381.5" y="-377" font-family="Helvetica,sans-Serif" font-size="10.00">user_policy</text>
</g>
<!-- Node25 -->
<g id="node25" class="node">
<title>Node25</title>
<g id="a_node25"><a xlink:title=" ">
<polygon fill="white" stroke="#bfbfbf" points="460,-122.5 460,-141.5 582,-141.5 582,-122.5 460,-122.5"/>
<text text-anchor="middle" x="521" y="-129.5" font-family="Helvetica,sans-Serif" font-size="10.00">websocket_protocol_t</text>
</a>
</g>
</g>
<!-- Node25&#45;&gt;Node2 -->
<g id="edge40" class="edge">
<title>Node25&#45;&gt;Node2</title>
<path fill="none" stroke="#9a32cd" stroke-dasharray="5,2" d="M592.28,-128.08C716.5,-122.78 967.37,-119.94 1027,-179 1092.18,-243.56 1097.54,-560.16 1097.96,-620.17"/>
<polygon fill="#9a32cd" stroke="#9a32cd" points="591.95,-124.59 582.11,-128.53 592.26,-131.58 591.95,-124.59"/>
<text text-anchor="middle" x="809.5" y="-136" font-family="Helvetica,sans-Serif" font-size="10.00"> protocol</text>
</g>
<!-- Node25&#45;&gt;Node15 -->
<g id="edge30" class="edge">
<title>Node25&#45;&gt;Node15</title>
<path fill="none" stroke="#9a32cd" stroke-dasharray="5,2" d="M592.44,-132.01C636.5,-135.61 691.76,-147.19 729,-180 793.5,-236.83 805.75,-350.82 808.01,-385.06"/>
<polygon fill="#9a32cd" stroke="#9a32cd" points="592.58,-128.51 582.36,-131.3 592.1,-135.49 592.58,-128.51"/>
<text text-anchor="middle" x="664.5" y="-183" font-family="Helvetica,sans-Serif" font-size="10.00"> ws_mode</text>
</g>
<!-- Node26 -->
<g id="node26" class="node">
<title>Node26</title>
<g id="a_node26"><a xlink:title=" ">
<polygon fill="white" stroke="#bfbfbf" points="473,-450.5 473,-469.5 569,-469.5 569,-450.5 473,-450.5"/>
<text text-anchor="middle" x="521" y="-457.5" font-family="Helvetica,sans-Serif" font-size="10.00">event_router_t&lt;</text>
</a>
</g>
</g>
<!-- Node26&#45;&gt;Node15 -->
<g id="edge31" class="edge">
<title>Node26&#45;&gt;Node15</title>
<path fill="none" stroke="#9a32cd" stroke-dasharray="5,2" d="M579.1,-454.22C630.41,-448.67 701.76,-439.98 729,-432 751.64,-425.37 776.01,-413.2 791.71,-404.64"/>
<polygon fill="#9a32cd" stroke="#9a32cd" points="578.7,-450.74 569.12,-455.29 579.44,-457.7 578.7,-450.74"/>
<text text-anchor="start" x="600" y="-598" font-family="Helvetica,sans-Serif" font-size="10.00"> on_application_command</text>
<text text-anchor="middle" x="664.5" y="-587" font-family="Helvetica,sans-Serif" font-size="10.00">_create</text>
<text text-anchor="start" x="600" y="-576" font-family="Helvetica,sans-Serif" font-size="10.00">on_application_command</text>
<text text-anchor="middle" x="664.5" y="-565" font-family="Helvetica,sans-Serif" font-size="10.00">_delete</text>
<text text-anchor="start" x="600" y="-554" font-family="Helvetica,sans-Serif" font-size="10.00">on_application_command</text>
<text text-anchor="middle" x="664.5" y="-543" font-family="Helvetica,sans-Serif" font-size="10.00">_update</text>
<text text-anchor="middle" x="664.5" y="-532" font-family="Helvetica,sans-Serif" font-size="10.00">on_autocomplete</text>
<text text-anchor="middle" x="664.5" y="-521" font-family="Helvetica,sans-Serif" font-size="10.00">on_button_click</text>
<text text-anchor="middle" x="664.5" y="-510" font-family="Helvetica,sans-Serif" font-size="10.00">on_channel_create</text>
<text text-anchor="middle" x="664.5" y="-499" font-family="Helvetica,sans-Serif" font-size="10.00">on_channel_delete</text>
<text text-anchor="middle" x="664.5" y="-488" font-family="Helvetica,sans-Serif" font-size="10.00">on_channel_pins_update</text>
<text text-anchor="middle" x="664.5" y="-477" font-family="Helvetica,sans-Serif" font-size="10.00">on_channel_update</text>
<text text-anchor="middle" x="664.5" y="-466" font-family="Helvetica,sans-Serif" font-size="10.00">on_guild_ban_add</text>
<text text-anchor="middle" x="664.5" y="-455" font-family="Helvetica,sans-Serif" font-size="10.00">...</text>
</g>
<!-- Node27 -->
<g id="node27" class="node">
<title>Node27</title>
<g id="a_node27"><a xlink:title=" ">
<polygon fill="white" stroke="#bfbfbf" points="753,-77.5 753,-96.5 866,-96.5 866,-77.5 753,-77.5"/>
<text text-anchor="middle" x="809.5" y="-84.5" font-family="Helvetica,sans-Serif" font-size="10.00">native_handle_type</text>
</a>
</g>
</g>
<!-- Node27&#45;&gt;Node2 -->
<g id="edge34" class="edge">
<title>Node27&#45;&gt;Node2</title>
<path fill="none" stroke="#9a32cd" stroke-dasharray="5,2" d="M861.83,-75.79C910.96,-68.34 983.81,-66.44 1027,-108 1103.94,-182.04 1099.59,-555.29 1098.23,-620.33"/>
<polygon fill="#9a32cd" stroke="#9a32cd" points="861.02,-72.37 851.72,-77.45 862.16,-79.28 861.02,-72.37"/>
<text text-anchor="middle" x="958.5" y="-111" font-family="Helvetica,sans-Serif" font-size="10.00"> thread_id</text>
</g>
<!-- Node28 -->
<g id="node28" class="node">
<title>Node28</title>
<g id="a_node28"><a xlink:title=" ">
<polygon fill="white" stroke="#bfbfbf" points="775,-868.5 775,-887.5 844,-887.5 844,-868.5 775,-868.5"/>
<text text-anchor="middle" x="809.5" y="-875.5" font-family="Helvetica,sans-Serif" font-size="10.00">std::mutex</text>
</a>
</g>
</g>
<!-- Node28&#45;&gt;Node2 -->
<g id="edge37" class="edge">
<title>Node28&#45;&gt;Node2</title>
<path fill="none" stroke="#9a32cd" stroke-dasharray="5,2" d="M854.11,-885.97C902,-892.09 978.52,-893.78 1027,-854 1095.75,-797.59 1098.9,-674.82 1098.32,-639.61"/>
<polygon fill="#9a32cd" stroke="#9a32cd" points="854.44,-882.48 844.06,-884.57 853.47,-889.42 854.44,-882.48"/>
<text text-anchor="middle" x="958.5" y="-892" font-family="Helvetica,sans-Serif" font-size="10.00"> voice_mutex</text>
</g>
<!-- Node29 -->
<g id="node29" class="node">
<title>Node29</title>
<g id="a_node29"><a xlink:title=" ">
<polygon fill="white" stroke="#bfbfbf" points="759,-830.5 759,-849.5 860,-849.5 860,-830.5 759,-830.5"/>
<text text-anchor="middle" x="809.5" y="-837.5" font-family="Helvetica,sans-Serif" font-size="10.00">unordered_map&lt;</text>
</a>
</g>
</g>
<!-- Node29&#45;&gt;Node2 -->
<g id="edge41" class="edge">
<title>Node29&#45;&gt;Node2</title>
<path fill="none" stroke="#9a32cd" stroke-dasharray="5,2" d="M870.34,-840.19C925.83,-839.17 1003.27,-834.35 1027,-816 1085.51,-770.75 1095.81,-671.18 1097.62,-639.72"/>
<polygon fill="#9a32cd" stroke="#9a32cd" points="870.2,-836.69 860.25,-840.34 870.31,-843.69 870.2,-836.69"/>
<text text-anchor="middle" x="958.5" y="-842" font-family="Helvetica,sans-Serif" font-size="10.00"> connecting_voice_channels</text>
</g>
</g>
</svg>
