<?xml version="1.0" encoding="UTF-8" standalone="no"?>
<!DOCTYPE svg PUBLIC "-//W3C//DTD SVG 1.1//EN"
 "http://www.w3.org/Graphics/SVG/1.1/DTD/svg11.dtd">
<!-- Generated by graphviz version 2.43.0 (0)
 -->
<!-- Title: dpp::discord_client Pages: 1 -->
<!--zoomable 970 -->
<svg id="main" version="1.1" xmlns="http://www.w3.org/2000/svg" xmlns:xlink="http://www.w3.org/1999/xlink" xml:space="preserve" onload="init(evt)">
<style type="text/css"><![CDATA[
.edge:hover path { stroke: red; }
.edge:hover polygon { stroke: red; fill: red; }
]]></style>
<script type="text/javascript"><![CDATA[
var edges = document.getElementsByTagName('g');
if (edges && edges.length) {
  for (var i=0;i<edges.length;i++) {
    if (edges[i].id.substr(0,4)=='edge') {
      edges[i].setAttribute('class','edge');
    }
  }
}
]]></script>
        <defs>
                <circle id="rim" cx="0" cy="0" r="7"/>
                <circle id="rim2" cx="0" cy="0" r="3.5"/>
                <g id="zoomPlus">
                        <use xlink:href="#rim" fill="#404040">
                                <set attributeName="fill" to="#808080" begin="zoomplus.mouseover" end="zoomplus.mouseout"/>
                        </use>
                        <path d="M-4,0h8M0,-4v8" fill="none" stroke="white" stroke-width="1.5" pointer-events="none"/>
                </g>
                <g id="zoomMin">
                        <use xlink:href="#rim" fill="#404040">
                                <set attributeName="fill" to="#808080" begin="zoomminus.mouseover" end="zoomminus.mouseout"/>
                        </use>
                        <path d="M-4,0h8" fill="none" stroke="white" stroke-width="1.5" pointer-events="none"/>
                </g>
                <g id="dirArrow">
                        <path fill="none" stroke="white" stroke-width="1.5" d="M0,-3.0v7 M-2.5,-0.5L0,-3.0L2.5,-0.5"/>
                </g>
               <g id="resetDef">
                       <use xlink:href="#rim2" fill="#404040">
                               <set attributeName="fill" to="#808080" begin="reset.mouseover" end="reset.mouseout"/>
                       </use>
               </g>
        </defs>

<script type="text/javascript">
var viewWidth = 1210;
var viewHeight = 970;
var sectionId = 'dynsection-1';
</script>
<script xlink:href="svgpan.js"/>
<svg id="graph" class="graph">
<g id="viewport">
<title>dpp::discord_client</title>
<!-- Node1 -->
<g id="node1" class="node">
<title>Node1</title>
<g id="a_node1"><a xlink:title="Implements a discord client. Each discord_client connects to one shard and derives from a websocket c...">
<polygon fill="#bfbfbf" stroke="black" points="1094,-309.88 1094,-328.88 1202,-328.88 1202,-309.88 1094,-309.88"/>
<text text-anchor="middle" x="1148" y="-316.88" font-family="Helvetica,sans-Serif" font-size="10.00">dpp::discord_client</text>
</a>
</g>
</g>
<!-- Node2 -->
<g id="node2" class="node">
<title>Node2</title>
<g id="a_node2"><a xlink:href="classdpp_1_1websocket__client.html" target="_top" xlink:title="Implements a websocket client based on the SSL client.">
<polygon fill="none" stroke="black" points="796,-214.88 796,-233.88 921,-233.88 921,-214.88 796,-214.88"/>
<text text-anchor="middle" x="858.5" y="-221.88" font-family="Helvetica,sans-Serif" font-size="10.00">dpp::websocket_client</text>
</a>
</g>
</g>
<!-- Node2&#45;&gt;Node1 -->
<g id="edge1" class="edge">
<title>Node2&#45;&gt;Node1</title>
<path fill="none" stroke="midnightblue" d="M931.27,-220.61C975.07,-221.08 1031.09,-226.81 1076,-248.38 1105.38,-262.5 1129.72,-293.88 1140.71,-309.77"/>
<polygon fill="midnightblue" stroke="midnightblue" points="931.27,-217.11 921.27,-220.59 931.26,-224.11 931.27,-217.11"/>
</g>
<!-- Node3 -->
<g id="node3" class="node">
<title>Node3</title>
<g id="a_node3"><a xlink:href="classdpp_1_1ssl__client.html" target="_top" xlink:title="Implements a simple non&#45;blocking SSL stream client.">
<polygon fill="none" stroke="black" points="535,-163.88 535,-182.88 621,-182.88 621,-163.88 535,-163.88"/>
<text text-anchor="middle" x="578" y="-170.88" font-family="Helvetica,sans-Serif" font-size="10.00">dpp::ssl_client</text>
</a>
</g>
</g>
<!-- Node3&#45;&gt;Node2 -->
<g id="edge2" class="edge">
<title>Node3&#45;&gt;Node2</title>
<path fill="none" stroke="midnightblue" d="M631.22,-182.94C680.99,-192.06 755.52,-205.71 805.29,-214.82"/>
<polygon fill="midnightblue" stroke="midnightblue" points="631.77,-179.49 621.3,-181.13 630.5,-186.37 631.77,-179.49"/>
</g>
<!-- Node4 -->
<g id="node4" class="node">
<title>Node4</title>
<g id="a_node4"><a xlink:title=" ">
<polygon fill="none" stroke="#bfbfbf" points="258,-384.88 258,-403.88 323,-403.88 323,-384.88 258,-384.88"/>
<text text-anchor="middle" x="290.5" y="-391.88" font-family="Helvetica,sans-Serif" font-size="10.00">std::string</text>
</a>
</g>
</g>
<!-- Node4&#45;&gt;Node1 -->
<g id="edge40" class="edge">
<title>Node4&#45;&gt;Node1</title>
<path fill="none" stroke="#9a32cd" stroke-dasharray="5,2" d="M333.16,-396.68C386.07,-398.75 473.54,-399.04 499,-380.38 516.71,-367.4 500.32,-348.66 517,-334.38 565.42,-292.95 593.65,-310.31 657,-303.38 815.22,-286.07 1003.75,-302.59 1093.88,-312.75"/>
<polygon fill="#9a32cd" stroke="#9a32cd" points="333.21,-393.18 323.07,-396.25 332.91,-400.17 333.21,-393.18"/>
<text text-anchor="middle" x="717.5" y="-317.38" font-family="Helvetica,sans-Serif" font-size="10.00"> sessionid</text>
<text text-anchor="middle" x="717.5" y="-306.38" font-family="Helvetica,sans-Serif" font-size="10.00">token</text>
</g>
<!-- Node4&#45;&gt;Node3 -->
<g id="edge3" class="edge">
<title>Node4&#45;&gt;Node3</title>
<path fill="none" stroke="#9a32cd" stroke-dasharray="5,2" d="M302.63,-376.02C317.29,-353.24 345.1,-314.58 378,-291.38 424.89,-258.32 450.21,-276.58 499,-246.38 528.02,-228.42 555.62,-198.57 568.85,-183.2"/>
<polygon fill="#9a32cd" stroke="#9a32cd" points="299.52,-374.38 297.17,-384.72 305.45,-378.1 299.52,-374.38"/>
<text text-anchor="middle" x="438.5" y="-338.38" font-family="Helvetica,sans-Serif" font-size="10.00"> buffer</text>
<text text-anchor="middle" x="438.5" y="-327.38" font-family="Helvetica,sans-Serif" font-size="10.00">cipher</text>
<text text-anchor="middle" x="438.5" y="-316.38" font-family="Helvetica,sans-Serif" font-size="10.00">hostname</text>
<text text-anchor="middle" x="438.5" y="-305.38" font-family="Helvetica,sans-Serif" font-size="10.00">obuffer</text>
<text text-anchor="middle" x="438.5" y="-294.38" font-family="Helvetica,sans-Serif" font-size="10.00">port</text>
</g>
<!-- Node15 -->
<g id="node15" class="node">
<title>Node15</title>
<g id="a_node15"><a xlink:href="classdpp_1_1cluster.html" target="_top" xlink:title="The cluster class represents a group of shards and a command queue for sending and receiving commands...">
<polygon fill="none" stroke="black" points="821.5,-534.88 821.5,-553.88 895.5,-553.88 895.5,-534.88 821.5,-534.88"/>
<text text-anchor="middle" x="858.5" y="-541.88" font-family="Helvetica,sans-Serif" font-size="10.00">dpp::cluster</text>
</a>
</g>
</g>
<!-- Node4&#45;&gt;Node15 -->
<g id="edge16" class="edge">
<title>Node4&#45;&gt;Node15</title>
<path fill="none" stroke="#9a32cd" stroke-dasharray="5,2" d="M332.88,-405.35C439.29,-433.55 721.09,-508.23 821.41,-534.82"/>
<polygon fill="#9a32cd" stroke="#9a32cd" points="333.71,-401.95 323.14,-402.77 331.91,-408.71 333.71,-401.95"/>
<text text-anchor="middle" x="578" y="-486.38" font-family="Helvetica,sans-Serif" font-size="10.00"> token</text>
</g>
<!-- Node18 -->
<g id="node18" class="node">
<title>Node18</title>
<g id="a_node18"><a xlink:href="classdpp_1_1user.html" target="_top" xlink:title="Represents a user on discord. May or may not be a member of a dpp::guild.">
<polygon fill="none" stroke="black" points="547,-732.88 547,-751.88 609,-751.88 609,-732.88 547,-732.88"/>
<text text-anchor="middle" x="578" y="-739.88" font-family="Helvetica,sans-Serif" font-size="10.00">dpp::user</text>
</a>
</g>
</g>
<!-- Node4&#45;&gt;Node18 -->
<g id="edge25" class="edge">
<title>Node4&#45;&gt;Node18</title>
<path fill="none" stroke="#9a32cd" stroke-dasharray="5,2" d="M333.08,-398.72C342.97,-401.55 352.75,-406.1 360,-413.38 381.45,-434.93 358.68,-455.9 378,-479.38 416.13,-525.74 464.91,-489.98 499,-539.38 522.33,-573.2 491.14,-691.46 517,-723.38 524.29,-732.38 535.83,-737.19 546.85,-739.73"/>
<polygon fill="#9a32cd" stroke="#9a32cd" points="333.76,-395.28 323.23,-396.42 332.18,-402.1 333.76,-395.28"/>
<text text-anchor="middle" x="438.5" y="-542.38" font-family="Helvetica,sans-Serif" font-size="10.00"> username</text>
</g>
<!-- Node5 -->
<g id="node5" class="node">
<title>Node5</title>
<g id="a_node5"><a xlink:title=" ">
<polygon fill="none" stroke="#bfbfbf" points="17,-379.38 17,-409.38 121,-409.38 121,-379.38 17,-379.38"/>
<text text-anchor="start" x="25" y="-397.38" font-family="Helvetica,sans-Serif" font-size="10.00">std::basic_string&lt;</text>
<text text-anchor="middle" x="69" y="-386.38" font-family="Helvetica,sans-Serif" font-size="10.00"> Char &gt;</text>
</a>
</g>
</g>
<!-- Node5&#45;&gt;Node4 -->
<g id="edge4" class="edge">
<title>Node5&#45;&gt;Node4</title>
<path fill="none" stroke="midnightblue" d="M131.38,-394.38C172.53,-394.38 225.02,-394.38 257.96,-394.38"/>
<polygon fill="midnightblue" stroke="midnightblue" points="131.19,-390.88 121.19,-394.38 131.19,-397.88 131.19,-390.88"/>
</g>
<!-- Node6 -->
<g id="node6" class="node">
<title>Node6</title>
<g id="a_node6"><a xlink:title=" ">
<polygon fill="none" stroke="#bfbfbf" points="271.5,-170.88 271.5,-189.88 309.5,-189.88 309.5,-170.88 271.5,-170.88"/>
<text text-anchor="middle" x="290.5" y="-177.88" font-family="Helvetica,sans-Serif" font-size="10.00">bool</text>
</a>
</g>
</g>
<!-- Node6&#45;&gt;Node1 -->
<g id="edge14" class="edge">
<title>Node6&#45;&gt;Node1</title>
<path fill="none" stroke="#9a32cd" stroke-dasharray="5,2" d="M316.21,-195.25C333.03,-204.64 356.13,-216.14 378,-222.38 677.93,-308.02 771.27,-228.81 1076,-295.38 1092.02,-298.88 1109.47,-304.75 1123.06,-309.81"/>
<polygon fill="#9a32cd" stroke="#9a32cd" points="317.51,-191.96 307.09,-190.03 314.03,-198.04 317.51,-191.96"/>
<text text-anchor="middle" x="717.5" y="-279.38" font-family="Helvetica,sans-Serif" font-size="10.00"> ready</text>
<text text-anchor="middle" x="717.5" y="-268.38" font-family="Helvetica,sans-Serif" font-size="10.00">terminating</text>
</g>
<!-- Node6&#45;&gt;Node3 -->
<g id="edge5" class="edge">
<title>Node6&#45;&gt;Node3</title>
<path fill="none" stroke="#9a32cd" stroke-dasharray="5,2" d="M320,-177.94C336.85,-176.62 358.63,-175.1 378,-174.38 432.03,-172.37 494.37,-172.45 534.67,-172.81"/>
<polygon fill="#9a32cd" stroke="#9a32cd" points="319.39,-174.48 309.71,-178.78 319.96,-181.46 319.39,-174.48"/>
<text text-anchor="middle" x="438.5" y="-210.38" font-family="Helvetica,sans-Serif" font-size="10.00"> keepalive</text>
<text text-anchor="middle" x="438.5" y="-199.38" font-family="Helvetica,sans-Serif" font-size="10.00">make_new</text>
<text text-anchor="middle" x="438.5" y="-188.38" font-family="Helvetica,sans-Serif" font-size="10.00">nonblocking</text>
<text text-anchor="middle" x="438.5" y="-177.38" font-family="Helvetica,sans-Serif" font-size="10.00">plaintext</text>
</g>
<!-- Node7 -->
<g id="node7" class="node">
<title>Node7</title>
<g id="a_node7"><a xlink:title=" ">
<polygon fill="none" stroke="#bfbfbf" points="276,-46.88 276,-65.88 305,-65.88 305,-46.88 276,-46.88"/>
<text text-anchor="middle" x="290.5" y="-53.88" font-family="Helvetica,sans-Serif" font-size="10.00">int</text>
</a>
</g>
</g>
<!-- Node7&#45;&gt;Node3 -->
<g id="edge6" class="edge">
<title>Node7&#45;&gt;Node3</title>
<path fill="none" stroke="#9a32cd" stroke-dasharray="5,2" d="M315.34,-53.69C355.76,-50.25 439.17,-48.16 499,-80.38 535.36,-99.97 561.77,-144.08 572.15,-163.68"/>
<polygon fill="#9a32cd" stroke="#9a32cd" points="314.75,-50.23 305.13,-54.66 315.42,-57.19 314.75,-50.23"/>
<text text-anchor="middle" x="438.5" y="-83.38" font-family="Helvetica,sans-Serif" font-size="10.00"> sfd</text>
</g>
<!-- Node8 -->
<g id="node8" class="node">
<title>Node8</title>
<g id="a_node8"><a xlink:href="classdpp_1_1opensslcontext.html" target="_top" xlink:title="This is an opaque class containing openssl library specific structures. We define it this way so that...">
<polygon fill="none" stroke="black" points="233,-84.88 233,-103.88 348,-103.88 348,-84.88 233,-84.88"/>
<text text-anchor="middle" x="290.5" y="-91.88" font-family="Helvetica,sans-Serif" font-size="10.00">dpp::opensslcontext</text>
</a>
</g>
</g>
<!-- Node8&#45;&gt;Node3 -->
<g id="edge7" class="edge">
<title>Node8&#45;&gt;Node3</title>
<path fill="none" stroke="#9a32cd" stroke-dasharray="5,2" d="M358.37,-93.78C400.04,-95.41 454.09,-101.24 499,-118.38 526.25,-128.78 552.9,-150.88 566.89,-163.67"/>
<polygon fill="#9a32cd" stroke="#9a32cd" points="358.44,-90.28 348.33,-93.46 358.21,-97.28 358.44,-90.28"/>
<text text-anchor="middle" x="438.5" y="-121.38" font-family="Helvetica,sans-Serif" font-size="10.00"> ssl</text>
</g>
<!-- Node9 -->
<g id="node9" class="node">
<title>Node9</title>
<g id="a_node9"><a xlink:title=" ">
<polygon fill="none" stroke="#bfbfbf" points="48,-103.88 48,-122.88 90,-122.88 90,-103.88 48,-103.88"/>
<text text-anchor="middle" x="69" y="-110.88" font-family="Helvetica,sans-Serif" font-size="10.00">SSL *</text>
</a>
</g>
</g>
<!-- Node9&#45;&gt;Node8 -->
<g id="edge8" class="edge">
<title>Node9&#45;&gt;Node8</title>
<path fill="none" stroke="#9a32cd" stroke-dasharray="5,2" d="M100.5,-110.74C134.56,-107.79 190.43,-102.96 232.62,-99.31"/>
<polygon fill="#9a32cd" stroke="#9a32cd" points="99.92,-107.28 90.26,-111.63 100.52,-114.25 99.92,-107.28"/>
<text text-anchor="middle" x="179.5" y="-109.38" font-family="Helvetica,sans-Serif" font-size="10.00"> ssl</text>
</g>
<!-- Node10 -->
<g id="node10" class="node">
<title>Node10</title>
<g id="a_node10"><a xlink:title=" ">
<polygon fill="none" stroke="#bfbfbf" points="35.5,-65.88 35.5,-84.88 102.5,-84.88 102.5,-65.88 35.5,-65.88"/>
<text text-anchor="middle" x="69" y="-72.88" font-family="Helvetica,sans-Serif" font-size="10.00">SSL_CTX *</text>
</a>
</g>
</g>
<!-- Node10&#45;&gt;Node8 -->
<g id="edge9" class="edge">
<title>Node10&#45;&gt;Node8</title>
<path fill="none" stroke="#9a32cd" stroke-dasharray="5,2" d="M113.02,-79.11C147.29,-82.07 195.54,-86.25 232.93,-89.49"/>
<polygon fill="#9a32cd" stroke="#9a32cd" points="113.13,-75.6 102.86,-78.23 112.52,-82.58 113.13,-75.6"/>
<text text-anchor="middle" x="179.5" y="-90.38" font-family="Helvetica,sans-Serif" font-size="10.00"> ctx</text>
</g>
<!-- Node11 -->
<g id="node11" class="node">
<title>Node11</title>
<g id="a_node11"><a xlink:title=" ">
<polygon fill="none" stroke="#bfbfbf" points="266.5,-422.88 266.5,-441.88 314.5,-441.88 314.5,-422.88 266.5,-422.88"/>
<text text-anchor="middle" x="290.5" y="-429.88" font-family="Helvetica,sans-Serif" font-size="10.00">time_t</text>
</a>
</g>
</g>
<!-- Node11&#45;&gt;Node1 -->
<g id="edge37" class="edge">
<title>Node11&#45;&gt;Node1</title>
<path fill="none" stroke="#9a32cd" stroke-dasharray="5,2" d="M324.99,-436.29C369.02,-439.62 446.91,-439.08 499,-402.38 512.98,-392.54 502.71,-377.76 517,-368.38 564.69,-337.08 950.78,-324.3 1093.89,-320.6"/>
<polygon fill="#9a32cd" stroke="#9a32cd" points="325.08,-432.78 314.82,-435.4 324.48,-439.76 325.08,-432.78"/>
<text text-anchor="middle" x="717.5" y="-356.38" font-family="Helvetica,sans-Serif" font-size="10.00"> last_heartbeat</text>
<text text-anchor="middle" x="717.5" y="-345.38" font-family="Helvetica,sans-Serif" font-size="10.00">last_heartbeat_ack</text>
</g>
<!-- Node11&#45;&gt;Node3 -->
<g id="edge10" class="edge">
<title>Node11&#45;&gt;Node3</title>
<path fill="none" stroke="#9a32cd" stroke-dasharray="5,2" d="M324.57,-427.01C336.32,-424.15 349.28,-419.83 360,-413.38 369.97,-407.39 368.37,-400.9 378,-394.38 425.91,-361.95 457.16,-386.34 499,-346.38 549.27,-298.37 569.66,-211.98 575.28,-183.09"/>
<polygon fill="#9a32cd" stroke="#9a32cd" points="323.66,-423.63 314.64,-429.18 325.15,-430.47 323.66,-423.63"/>
<text text-anchor="middle" x="438.5" y="-397.38" font-family="Helvetica,sans-Serif" font-size="10.00"> last_tick</text>
</g>
<!-- Node11&#45;&gt;Node15 -->
<g id="edge17" class="edge">
<title>Node11&#45;&gt;Node15</title>
<path fill="none" stroke="#9a32cd" stroke-dasharray="5,2" d="M304.3,-450.17C319.43,-469.6 346.56,-499.77 378,-513.38 398.26,-522.16 713.07,-537.62 821.29,-542.71"/>
<polygon fill="#9a32cd" stroke="#9a32cd" points="307.03,-447.98 298.22,-442.1 301.44,-452.19 307.03,-447.98"/>
<text text-anchor="middle" x="578" y="-535.38" font-family="Helvetica,sans-Serif" font-size="10.00"> last_identify</text>
</g>
<!-- Node12 -->
<g id="node12" class="node">
<title>Node12</title>
<g id="a_node12"><a xlink:title=" ">
<polygon fill="none" stroke="#bfbfbf" points="41,-628.88 41,-647.88 97,-647.88 97,-628.88 41,-628.88"/>
<text text-anchor="middle" x="69" y="-635.88" font-family="Helvetica,sans-Serif" font-size="10.00">uint64_t</text>
</a>
</g>
</g>
<!-- Node12&#45;&gt;Node1 -->
<g id="edge39" class="edge">
<title>Node12&#45;&gt;Node1</title>
<path fill="none" stroke="#9a32cd" stroke-dasharray="5,2" d="M80.68,-656.84C94.21,-680.33 118.17,-722.18 138,-758.38 190.4,-854.02 180.45,-951.38 289.5,-951.38 289.5,-951.38 289.5,-951.38 859.5,-951.38 1145.49,-951.38 1148.32,-408.57 1147.2,-329.06"/>
<polygon fill="#9a32cd" stroke="#9a32cd" points="83.59,-654.88 75.56,-647.97 77.53,-658.38 83.59,-654.88"/>
<text text-anchor="middle" x="578" y="-954.38" font-family="Helvetica,sans-Serif" font-size="10.00"> last_seq</text>
</g>
<!-- Node12&#45;&gt;Node3 -->
<g id="edge11" class="edge">
<title>Node12&#45;&gt;Node3</title>
<path fill="none" stroke="#9a32cd" stroke-dasharray="5,2" d="M76.48,-619.14C93.68,-570.22 144.46,-438.93 221,-353.38 277.31,-290.45 300.65,-280.26 378,-246.38 428.56,-224.24 447.64,-238.62 499,-218.38 522.85,-208.98 548.16,-193.16 563.26,-183"/>
<polygon fill="#9a32cd" stroke="#9a32cd" points="73.11,-618.17 73.16,-628.77 79.73,-620.46 73.11,-618.17"/>
<text text-anchor="middle" x="290.5" y="-367.38" font-family="Helvetica,sans-Serif" font-size="10.00"> bytes_in</text>
<text text-anchor="middle" x="290.5" y="-356.38" font-family="Helvetica,sans-Serif" font-size="10.00">bytes_out</text>
</g>
<!-- Node19 -->
<g id="node19" class="node">
<title>Node19</title>
<g id="a_node19"><a xlink:href="classdpp_1_1managed.html" target="_top" xlink:title="The managed class is the base class for various types that can be stored in a cache that are identifi...">
<polygon fill="none" stroke="black" points="247.5,-647.88 247.5,-666.88 333.5,-666.88 333.5,-647.88 247.5,-647.88"/>
<text text-anchor="middle" x="290.5" y="-654.88" font-family="Helvetica,sans-Serif" font-size="10.00">dpp::managed</text>
</a>
</g>
</g>
<!-- Node12&#45;&gt;Node19 -->
<g id="edge22" class="edge">
<title>Node12&#45;&gt;Node19</title>
<path fill="none" stroke="#9a32cd" stroke-dasharray="5,2" d="M107.72,-641.65C146.6,-645.01 207.1,-650.25 247.49,-653.75"/>
<polygon fill="#9a32cd" stroke="#9a32cd" points="107.62,-638.13 97.36,-640.75 107.02,-645.1 107.62,-638.13"/>
<text text-anchor="middle" x="179.5" y="-652.38" font-family="Helvetica,sans-Serif" font-size="10.00"> id</text>
</g>
<!-- Node22 -->
<g id="node22" class="node">
<title>Node22</title>
<g id="a_node22"><a xlink:href="structdpp_1_1utility_1_1iconhash.html" target="_top" xlink:title="Store a 128 bit icon hash (profile picture, server icon etc) as a 128 bit binary value made of two ui...">
<polygon fill="none" stroke="black" points="231.5,-609.88 231.5,-628.88 349.5,-628.88 349.5,-609.88 231.5,-609.88"/>
<text text-anchor="middle" x="290.5" y="-616.88" font-family="Helvetica,sans-Serif" font-size="10.00">dpp::utility::iconhash</text>
</a>
</g>
</g>
<!-- Node12&#45;&gt;Node22 -->
<g id="edge27" class="edge">
<title>Node12&#45;&gt;Node22</title>
<path fill="none" stroke="#9a32cd" stroke-dasharray="5,2" d="M107.2,-628.31C122.23,-624.73 139.82,-621.15 156,-619.38 180.54,-616.7 207.76,-616.25 231.2,-616.64"/>
<polygon fill="#9a32cd" stroke="#9a32cd" points="106.11,-624.97 97.25,-630.77 107.79,-631.77 106.11,-624.97"/>
<text text-anchor="middle" x="179.5" y="-633.38" font-family="Helvetica,sans-Serif" font-size="10.00"> first</text>
<text text-anchor="middle" x="179.5" y="-622.38" font-family="Helvetica,sans-Serif" font-size="10.00">second</text>
</g>
<!-- Node13 -->
<g id="node13" class="node">
<title>Node13</title>
<g id="a_node13"><a xlink:title=" ">
<polygon fill="none" stroke="#bfbfbf" points="221,-3.88 221,-22.88 360,-22.88 360,-3.88 221,-3.88"/>
<text text-anchor="middle" x="290.5" y="-10.88" font-family="Helvetica,sans-Serif" font-size="10.00">function&lt; dpp::socket()&gt;</text>
</a>
</g>
</g>
<!-- Node13&#45;&gt;Node3 -->
<g id="edge12" class="edge">
<title>Node13&#45;&gt;Node3</title>
<path fill="none" stroke="#9a32cd" stroke-dasharray="5,2" d="M349.72,-2.62C394.13,2.39 454.96,2.02 499,-26.38 549.75,-59.11 569.62,-136.38 575.21,-163.65"/>
<polygon fill="#9a32cd" stroke="#9a32cd" points="349.15,0.84 339.66,-3.87 350.01,-6.11 349.15,0.84"/>
<text text-anchor="middle" x="438.5" y="-40.38" font-family="Helvetica,sans-Serif" font-size="10.00"> custom_readable_fd</text>
<text text-anchor="middle" x="438.5" y="-29.38" font-family="Helvetica,sans-Serif" font-size="10.00">custom_writeable_fd</text>
</g>
<!-- Node14 -->
<g id="node14" class="node">
<title>Node14</title>
<g id="a_node14"><a xlink:title=" ">
<polygon fill="none" stroke="#bfbfbf" points="238.5,-122.88 238.5,-141.88 342.5,-141.88 342.5,-122.88 238.5,-122.88"/>
<text text-anchor="middle" x="290.5" y="-129.88" font-family="Helvetica,sans-Serif" font-size="10.00">function&lt; void()&gt;</text>
</a>
</g>
</g>
<!-- Node14&#45;&gt;Node3 -->
<g id="edge13" class="edge">
<title>Node14&#45;&gt;Node3</title>
<path fill="none" stroke="#9a32cd" stroke-dasharray="5,2" d="M352.99,-132.27C394.59,-133.23 450.56,-136.55 499,-146.38 518.24,-150.29 539.23,-157.75 554.58,-163.84"/>
<polygon fill="#9a32cd" stroke="#9a32cd" points="352.81,-128.76 342.74,-132.07 352.67,-135.76 352.81,-128.76"/>
<text text-anchor="middle" x="438.5" y="-160.38" font-family="Helvetica,sans-Serif" font-size="10.00"> custom_readable_ready</text>
<text text-anchor="middle" x="438.5" y="-149.38" font-family="Helvetica,sans-Serif" font-size="10.00">custom_writeable_ready</text>
</g>
<!-- Node15&#45;&gt;Node1 -->
<g id="edge15" class="edge">
<title>Node15&#45;&gt;Node1</title>
<path fill="none" stroke="#9a32cd" stroke-dasharray="5,2" d="M905.3,-532.58C952.7,-518.45 1026.57,-490.82 1076,-445.38 1113.53,-410.89 1136.18,-351.87 1143.96,-328.91"/>
<polygon fill="#9a32cd" stroke="#9a32cd" points="904.24,-529.25 895.61,-535.4 906.19,-535.97 904.24,-529.25"/>
<text text-anchor="middle" x="1007.5" y="-522.38" font-family="Helvetica,sans-Serif" font-size="10.00"> creator</text>
</g>
<!-- Node16 -->
<g id="node16" class="node">
<title>Node16</title>
<g id="a_node16"><a xlink:title=" ">
<polygon fill="none" stroke="#bfbfbf" points="262.5,-811.88 262.5,-830.88 318.5,-830.88 318.5,-811.88 262.5,-811.88"/>
<text text-anchor="middle" x="290.5" y="-818.88" font-family="Helvetica,sans-Serif" font-size="10.00">uint32_t</text>
</a>
</g>
</g>
<!-- Node16&#45;&gt;Node1 -->
<g id="edge36" class="edge">
<title>Node16&#45;&gt;Node1</title>
<path fill="none" stroke="#9a32cd" stroke-dasharray="5,2" d="M328.85,-828.77C373.42,-837.17 450.29,-850.38 517,-855.38 635.04,-864.23 676.99,-864.09 778,-802.38 930.01,-709.53 978.58,-683.51 1076,-534.38 1122.01,-463.96 1140.71,-361.03 1145.61,-329.16"/>
<polygon fill="#9a32cd" stroke="#9a32cd" points="329.25,-825.28 318.77,-826.85 327.94,-832.16 329.25,-825.28"/>
<text text-anchor="middle" x="717.5" y="-912.38" font-family="Helvetica,sans-Serif" font-size="10.00"> heartbeat_interval</text>
<text text-anchor="middle" x="717.5" y="-901.38" font-family="Helvetica,sans-Serif" font-size="10.00">intents</text>
<text text-anchor="middle" x="717.5" y="-890.38" font-family="Helvetica,sans-Serif" font-size="10.00">max_shards</text>
<text text-anchor="middle" x="717.5" y="-879.38" font-family="Helvetica,sans-Serif" font-size="10.00">reconnects</text>
<text text-anchor="middle" x="717.5" y="-868.38" font-family="Helvetica,sans-Serif" font-size="10.00">resumes</text>
<text text-anchor="middle" x="717.5" y="-857.38" font-family="Helvetica,sans-Serif" font-size="10.00">shard_id</text>
</g>
<!-- Node16&#45;&gt;Node15 -->
<g id="edge18" class="edge">
<title>Node16&#45;&gt;Node15</title>
<path fill="none" stroke="#9a32cd" stroke-dasharray="5,2" d="M328.62,-819.37C439.28,-813.21 760.35,-794.22 778,-780.38 852.51,-721.96 857.72,-590.78 857.67,-554.09"/>
<polygon fill="#9a32cd" stroke="#9a32cd" points="328.38,-815.87 318.59,-819.92 328.76,-822.86 328.38,-815.87"/>
<text text-anchor="middle" x="578" y="-843.38" font-family="Helvetica,sans-Serif" font-size="10.00"> cluster_id</text>
<text text-anchor="middle" x="578" y="-832.38" font-family="Helvetica,sans-Serif" font-size="10.00">intents</text>
<text text-anchor="middle" x="578" y="-821.38" font-family="Helvetica,sans-Serif" font-size="10.00">maxclusters</text>
<text text-anchor="middle" x="578" y="-810.38" font-family="Helvetica,sans-Serif" font-size="10.00">numshards</text>
</g>
<!-- Node16&#45;&gt;Node18 -->
<g id="edge28" class="edge">
<title>Node16&#45;&gt;Node18</title>
<path fill="none" stroke="#9a32cd" stroke-dasharray="5,2" d="M328.65,-812.8C338.97,-809.95 350.06,-806.45 360,-802.38 368.47,-798.91 369.4,-795.5 378,-792.38 429.47,-773.74 446.11,-783.48 499,-769.38 517.14,-764.55 537.14,-757.59 552.34,-751.95"/>
<polygon fill="#9a32cd" stroke="#9a32cd" points="327.45,-809.49 318.67,-815.42 329.23,-816.26 327.45,-809.49"/>
<text text-anchor="middle" x="438.5" y="-795.38" font-family="Helvetica,sans-Serif" font-size="10.00"> flags</text>
</g>
<!-- Node17 -->
<g id="node17" class="node">
<title>Node17</title>
<g id="a_node17"><a xlink:title=" ">
<polygon fill="none" stroke="#bfbfbf" points="553,-420.88 553,-439.88 603,-439.88 603,-420.88 553,-420.88"/>
<text text-anchor="middle" x="578" y="-427.88" font-family="Helvetica,sans-Serif" font-size="10.00">double</text>
</a>
</g>
</g>
<!-- Node17&#45;&gt;Node1 -->
<g id="edge42" class="edge">
<title>Node17&#45;&gt;Node1</title>
<path fill="none" stroke="#9a32cd" stroke-dasharray="5,2" d="M613.57,-427.18C627.11,-425.95 642.78,-424.56 657,-423.38 843.66,-407.94 905.49,-455.89 1076,-378.38 1101.97,-366.58 1126.15,-342.66 1138.48,-329.19"/>
<polygon fill="#9a32cd" stroke="#9a32cd" points="612.88,-423.73 603.24,-428.12 613.51,-430.7 612.88,-423.73"/>
<text text-anchor="middle" x="858.5" y="-426.38" font-family="Helvetica,sans-Serif" font-size="10.00"> websocket_ping</text>
</g>
<!-- Node17&#45;&gt;Node15 -->
<g id="edge19" class="edge">
<title>Node17&#45;&gt;Node15</title>
<path fill="none" stroke="#9a32cd" stroke-dasharray="5,2" d="M612.95,-441.72C626.55,-446.03 642.43,-450.77 657,-454.38 710.13,-467.56 728.57,-453.87 778,-477.38 807.99,-491.65 835.94,-520.02 849.29,-534.85"/>
<polygon fill="#9a32cd" stroke="#9a32cd" points="613.64,-438.27 603.05,-438.54 611.5,-444.93 613.64,-438.27"/>
<text text-anchor="middle" x="717.5" y="-480.38" font-family="Helvetica,sans-Serif" font-size="10.00"> rest_ping</text>
</g>
<!-- Node18&#45;&gt;Node15 -->
<g id="edge20" class="edge">
<title>Node18&#45;&gt;Node15</title>
<path fill="none" stroke="#9a32cd" stroke-dasharray="5,2" d="M617.04,-754.67C660.03,-766.05 730.23,-776.8 778,-744.38 844.78,-699.06 855.47,-587.84 857.18,-554.19"/>
<polygon fill="#9a32cd" stroke="#9a32cd" points="617.82,-751.25 607.25,-751.94 615.95,-757.99 617.82,-751.25"/>
<text text-anchor="middle" x="717.5" y="-768.38" font-family="Helvetica,sans-Serif" font-size="10.00"> me</text>
</g>
<!-- Node19&#45;&gt;Node18 -->
<g id="edge21" class="edge">
<title>Node19&#45;&gt;Node18</title>
<path fill="none" stroke="midnightblue" d="M344,-654.82C388.88,-655.18 453.26,-662.02 499,-693.38 511.82,-702.18 504.8,-713.74 517,-723.38 525.57,-730.16 536.61,-734.54 546.87,-737.36"/>
<polygon fill="midnightblue" stroke="midnightblue" points="343.88,-651.32 333.88,-654.84 343.89,-658.32 343.88,-651.32"/>
</g>
<!-- Node20 -->
<g id="node20" class="node">
<title>Node20</title>
<g id="a_node20"><a xlink:href="structdpp_1_1json__interface.html" target="_top" xlink:title=" ">
<polygon fill="none" stroke="black" points="235.5,-762.38 235.5,-792.38 345.5,-792.38 345.5,-762.38 235.5,-762.38"/>
<text text-anchor="start" x="243.5" y="-780.38" font-family="Helvetica,sans-Serif" font-size="10.00">dpp::json_interface</text>
<text text-anchor="middle" x="290.5" y="-769.38" font-family="Helvetica,sans-Serif" font-size="10.00">&lt; user &gt;</text>
</a>
</g>
</g>
<!-- Node20&#45;&gt;Node18 -->
<g id="edge23" class="edge">
<title>Node20&#45;&gt;Node18</title>
<path fill="none" stroke="midnightblue" d="M355.62,-769.52C415.32,-762.2 501.7,-751.61 546.88,-746.08"/>
<polygon fill="midnightblue" stroke="midnightblue" points="355.04,-766.07 345.54,-770.76 355.89,-773.02 355.04,-766.07"/>
</g>
<!-- Node21 -->
<g id="node21" class="node">
<title>Node21</title>
<g id="a_node21"><a xlink:href="structdpp_1_1json__interface.html" target="_top" xlink:title="Represents an interface for an object that can optionally implement functions for converting to and f...">
<polygon fill="none" stroke="black" points="0,-767.88 0,-786.88 138,-786.88 138,-767.88 0,-767.88"/>
<text text-anchor="middle" x="69" y="-774.88" font-family="Helvetica,sans-Serif" font-size="10.00">dpp::json_interface&lt; T &gt;</text>
</a>
</g>
</g>
<!-- Node21&#45;&gt;Node20 -->
<g id="edge24" class="edge">
<title>Node21&#45;&gt;Node20</title>
<path fill="none" stroke="orange" stroke-dasharray="5,2" d="M148.28,-777.38C177.07,-777.38 209.01,-777.38 235.22,-777.38"/>
<polygon fill="orange" stroke="orange" points="148.25,-773.88 138.25,-777.38 148.25,-780.88 148.25,-773.88"/>
<text text-anchor="middle" x="179.5" y="-780.38" font-family="Helvetica,sans-Serif" font-size="10.00"> &lt; user &gt;</text>
</g>
<!-- Node22&#45;&gt;Node18 -->
<g id="edge26" class="edge">
<title>Node22&#45;&gt;Node18</title>
<path fill="none" stroke="#9a32cd" stroke-dasharray="5,2" d="M359.84,-618.27C412.26,-618.91 478.95,-623.43 499,-641.38 526.8,-666.27 491.84,-695.83 517,-723.38 524.66,-731.77 536,-736.48 546.77,-739.12"/>
<polygon fill="#9a32cd" stroke="#9a32cd" points="359.59,-614.77 349.56,-618.19 359.53,-621.77 359.59,-614.77"/>
<text text-anchor="middle" x="438.5" y="-644.38" font-family="Helvetica,sans-Serif" font-size="10.00"> avatar</text>
</g>
<!-- Node23 -->
<g id="node23" class="node">
<title>Node23</title>
<g id="a_node23"><a xlink:title=" ">
<polygon fill="none" stroke="#bfbfbf" points="262.5,-723.88 262.5,-742.88 318.5,-742.88 318.5,-723.88 262.5,-723.88"/>
<text text-anchor="middle" x="290.5" y="-730.88" font-family="Helvetica,sans-Serif" font-size="10.00">uint16_t</text>
</a>
</g>
</g>
<!-- Node23&#45;&gt;Node18 -->
<g id="edge29" class="edge">
<title>Node23&#45;&gt;Node18</title>
<path fill="none" stroke="#9a32cd" stroke-dasharray="5,2" d="M328.93,-732.09C370.51,-730.96 439.61,-729.97 499,-733.38 514.79,-734.29 532.28,-736.22 546.7,-738.07"/>
<polygon fill="#9a32cd" stroke="#9a32cd" points="328.61,-728.6 318.72,-732.39 328.82,-735.6 328.61,-728.6"/>
<text text-anchor="middle" x="438.5" y="-736.38" font-family="Helvetica,sans-Serif" font-size="10.00"> discriminator</text>
</g>
<!-- Node24 -->
<g id="node24" class="node">
<title>Node24</title>
<g id="a_node24"><a xlink:title=" ">
<polygon fill="none" stroke="#bfbfbf" points="265.5,-685.88 265.5,-704.88 315.5,-704.88 315.5,-685.88 265.5,-685.88"/>
<text text-anchor="middle" x="290.5" y="-692.88" font-family="Helvetica,sans-Serif" font-size="10.00">uint8_t</text>
</a>
</g>
</g>
<!-- Node24&#45;&gt;Node18 -->
<g id="edge30" class="edge">
<title>Node24&#45;&gt;Node18</title>
<path fill="none" stroke="#9a32cd" stroke-dasharray="5,2" d="M325.74,-695.34C367.36,-696.04 439.43,-699.72 499,-715.38 507.47,-717.61 508.81,-720.28 517,-723.38 526.6,-727.02 537.24,-730.55 546.87,-733.56"/>
<polygon fill="#9a32cd" stroke="#9a32cd" points="325.63,-691.84 315.59,-695.21 325.54,-698.84 325.63,-691.84"/>
<text text-anchor="middle" x="438.5" y="-718.38" font-family="Helvetica,sans-Serif" font-size="10.00"> refcount</text>
</g>
<!-- Node25 -->
<g id="node25" class="node">
<title>Node25</title>
<g id="a_node25"><a xlink:href="structdpp_1_1cache__policy__t.html" target="_top" xlink:title="Represents the caching policy of the cluster.">
<polygon fill="none" stroke="black" points="521.5,-694.88 521.5,-713.88 634.5,-713.88 634.5,-694.88 521.5,-694.88"/>
<text text-anchor="middle" x="578" y="-701.88" font-family="Helvetica,sans-Serif" font-size="10.00">dpp::cache_policy_t</text>
</a>
</g>
</g>
<!-- Node25&#45;&gt;Node15 -->
<g id="edge31" class="edge">
<title>Node25&#45;&gt;Node15</title>
<path fill="none" stroke="#9a32cd" stroke-dasharray="5,2" d="M615.24,-716.79C657.72,-728.93 728.59,-741.51 778,-710.38 835.32,-674.28 852.22,-584.13 856.34,-554.21"/>
<polygon fill="#9a32cd" stroke="#9a32cd" points="616.18,-713.41 605.59,-713.9 614.17,-720.12 616.18,-713.41"/>
<text text-anchor="middle" x="717.5" y="-732.38" font-family="Helvetica,sans-Serif" font-size="10.00"> cache_policy</text>
</g>
<!-- Node26 -->
<g id="node26" class="node">
<title>Node26</title>
<g id="a_node26"><a xlink:title=" ">
<polygon fill="none" stroke="#bfbfbf" points="226.5,-571.88 226.5,-590.88 354.5,-590.88 354.5,-571.88 226.5,-571.88"/>
<text text-anchor="middle" x="290.5" y="-578.88" font-family="Helvetica,sans-Serif" font-size="10.00">cache_policy_setting_t</text>
</a>
</g>
</g>
<!-- Node26&#45;&gt;Node25 -->
<g id="edge32" class="edge">
<title>Node26&#45;&gt;Node25</title>
<path fill="none" stroke="#9a32cd" stroke-dasharray="5,2" d="M327.45,-568.82C372.97,-555.42 451.22,-541.16 499,-581.38 534.89,-611.59 486.15,-650.05 517,-685.38 520.38,-689.25 524.54,-692.34 529.08,-694.8"/>
<polygon fill="#9a32cd" stroke="#9a32cd" points="326.24,-565.53 317.71,-571.82 328.3,-572.22 326.24,-565.53"/>
<text text-anchor="middle" x="438.5" y="-606.38" font-family="Helvetica,sans-Serif" font-size="10.00"> emoji_policy</text>
<text text-anchor="middle" x="438.5" y="-595.38" font-family="Helvetica,sans-Serif" font-size="10.00">role_policy</text>
<text text-anchor="middle" x="438.5" y="-584.38" font-family="Helvetica,sans-Serif" font-size="10.00">user_policy</text>
</g>
<!-- Node27 -->
<g id="node27" class="node">
<title>Node27</title>
<g id="a_node27"><a xlink:title=" ">
<polygon fill="none" stroke="#bfbfbf" points="517,-377.88 517,-396.88 639,-396.88 639,-377.88 517,-377.88"/>
<text text-anchor="middle" x="578" y="-384.88" font-family="Helvetica,sans-Serif" font-size="10.00">websocket_protocol_t</text>
</a>
</g>
</g>
<!-- Node27&#45;&gt;Node1 -->
<g id="edge43" class="edge">
<title>Node27&#45;&gt;Node1</title>
<path fill="none" stroke="#9a32cd" stroke-dasharray="5,2" d="M649.05,-390.37C746.45,-392.74 927.57,-390.71 1076,-352.38 1095.87,-347.25 1117,-336.69 1131,-328.89"/>
<polygon fill="#9a32cd" stroke="#9a32cd" points="649.12,-386.87 639.03,-390.1 648.93,-393.87 649.12,-386.87"/>
<text text-anchor="middle" x="858.5" y="-391.38" font-family="Helvetica,sans-Serif" font-size="10.00"> protocol</text>
</g>
<!-- Node27&#45;&gt;Node15 -->
<g id="edge33" class="edge">
<title>Node27&#45;&gt;Node15</title>
<path fill="none" stroke="#9a32cd" stroke-dasharray="5,2" d="M638.24,-399.09C688.22,-409.76 755.17,-426.12 778,-441.38 815.18,-466.24 842.41,-514.26 852.83,-534.74"/>
<polygon fill="#9a32cd" stroke="#9a32cd" points="638.68,-395.61 628.17,-396.97 637.24,-402.46 638.68,-395.61"/>
<text text-anchor="middle" x="717.5" y="-444.38" font-family="Helvetica,sans-Serif" font-size="10.00"> ws_mode</text>
</g>
<!-- Node28 -->
<g id="node28" class="node">
<title>Node28</title>
<g id="a_node28"><a xlink:title=" ">
<polygon fill="none" stroke="#bfbfbf" points="524.5,-656.88 524.5,-675.88 631.5,-675.88 631.5,-656.88 524.5,-656.88"/>
<text text-anchor="middle" x="578" y="-663.88" font-family="Helvetica,sans-Serif" font-size="10.00">condition_variable</text>
</a>
</g>
</g>
<!-- Node28&#45;&gt;Node15 -->
<g id="edge34" class="edge">
<title>Node28&#45;&gt;Node15</title>
<path fill="none" stroke="#9a32cd" stroke-dasharray="5,2" d="M627.55,-677.92C637.25,-679.78 647.41,-681.41 657,-682.38 710.5,-687.81 731.44,-709.29 778,-682.38 827.79,-653.6 849.15,-580.49 855.41,-554.08"/>
<polygon fill="#9a32cd" stroke="#9a32cd" points="628.14,-674.47 617.64,-675.92 626.75,-681.33 628.14,-674.47"/>
<text text-anchor="middle" x="717.5" y="-698.38" font-family="Helvetica,sans-Serif" font-size="10.00"> terminating</text>
</g>
<!-- Node29 -->
<g id="node29" class="node">
<title>Node29</title>
<g id="a_node29"><a xlink:title=" ">
<polygon fill="none" stroke="#bfbfbf" points="530,-556.88 530,-575.88 626,-575.88 626,-556.88 530,-556.88"/>
<text text-anchor="middle" x="578" y="-563.88" font-family="Helvetica,sans-Serif" font-size="10.00">event_router_t&lt;</text>
</a>
</g>
</g>
<!-- Node29&#45;&gt;Node15 -->
<g id="edge35" class="edge">
<title>Node29&#45;&gt;Node15</title>
<path fill="none" stroke="#9a32cd" stroke-dasharray="5,2" d="M636.27,-561.86C691.73,-557.48 774.13,-550.97 821.14,-547.25"/>
<polygon fill="#9a32cd" stroke="#9a32cd" points="635.94,-558.37 626.24,-562.65 636.49,-565.35 635.94,-558.37"/>
<text text-anchor="middle" x="717.5" y="-672.38" font-family="Helvetica,sans-Serif" font-size="10.00"> on_autocomplete</text>
<text text-anchor="middle" x="717.5" y="-661.38" font-family="Helvetica,sans-Serif" font-size="10.00">on_button_click</text>
<text text-anchor="middle" x="717.5" y="-650.38" font-family="Helvetica,sans-Serif" font-size="10.00">on_channel_create</text>
<text text-anchor="middle" x="717.5" y="-639.38" font-family="Helvetica,sans-Serif" font-size="10.00">on_channel_delete</text>
<text text-anchor="middle" x="717.5" y="-628.38" font-family="Helvetica,sans-Serif" font-size="10.00">on_channel_pins_update</text>
<text text-anchor="middle" x="717.5" y="-617.38" font-family="Helvetica,sans-Serif" font-size="10.00">on_channel_update</text>
<text text-anchor="middle" x="717.5" y="-606.38" font-family="Helvetica,sans-Serif" font-size="10.00">on_form_submit</text>
<text text-anchor="middle" x="717.5" y="-595.38" font-family="Helvetica,sans-Serif" font-size="10.00">on_guild_ban_add</text>
<text text-anchor="middle" x="717.5" y="-584.38" font-family="Helvetica,sans-Serif" font-size="10.00">on_guild_ban_remove</text>
<text text-anchor="middle" x="717.5" y="-573.38" font-family="Helvetica,sans-Serif" font-size="10.00">on_guild_create</text>
<text text-anchor="middle" x="717.5" y="-562.38" font-family="Helvetica,sans-Serif" font-size="10.00">...</text>
</g>
<!-- Node30 -->
<g id="node30" class="node">
<title>Node30</title>
<g id="a_node30"><a xlink:title=" ">
<polygon fill="none" stroke="#bfbfbf" points="802,-176.88 802,-195.88 915,-195.88 915,-176.88 802,-176.88"/>
<text text-anchor="middle" x="858.5" y="-183.88" font-family="Helvetica,sans-Serif" font-size="10.00">native_handle_type</text>
</a>
</g>
</g>
<!-- Node30&#45;&gt;Node1 -->
<g id="edge38" class="edge">
<title>Node30&#45;&gt;Node1</title>
<path fill="none" stroke="#9a32cd" stroke-dasharray="5,2" d="M925.38,-177.49C970.93,-174.68 1031.16,-177.85 1076,-205.38 1116.14,-230.03 1137.14,-286.76 1144.21,-309.59"/>
<polygon fill="#9a32cd" stroke="#9a32cd" points="925.03,-174.01 915.31,-178.23 925.54,-180.99 925.03,-174.01"/>
<text text-anchor="middle" x="1007.5" y="-208.38" font-family="Helvetica,sans-Serif" font-size="10.00"> thread_id</text>
</g>
<!-- Node31 -->
<g id="node31" class="node">
<title>Node31</title>
<g id="a_node31"><a xlink:title=" ">
<polygon fill="none" stroke="#bfbfbf" points="824,-138.88 824,-157.88 893,-157.88 893,-138.88 824,-138.88"/>
<text text-anchor="middle" x="858.5" y="-145.88" font-family="Helvetica,sans-Serif" font-size="10.00">std::mutex</text>
</a>
</g>
</g>
<!-- Node31&#45;&gt;Node1 -->
<g id="edge41" class="edge">
<title>Node31&#45;&gt;Node1</title>
<path fill="none" stroke="#9a32cd" stroke-dasharray="5,2" d="M903.22,-138.68C950.23,-130.86 1025.05,-126.21 1076,-161.38 1128.22,-197.43 1142.59,-281.39 1146.03,-309.79"/>
<polygon fill="#9a32cd" stroke="#9a32cd" points="902.58,-135.24 893.35,-140.44 903.8,-142.13 902.58,-135.24"/>
<text text-anchor="middle" x="1007.5" y="-164.38" font-family="Helvetica,sans-Serif" font-size="10.00"> voice_mutex</text>
</g>
<!-- Node32 -->
<g id="node32" class="node">
<title>Node32</title>
<g id="a_node32"><a xlink:title=" ">
<polygon fill="none" stroke="#bfbfbf" points="808,-100.88 808,-119.88 909,-119.88 909,-100.88 808,-100.88"/>
<text text-anchor="middle" x="858.5" y="-107.88" font-family="Helvetica,sans-Serif" font-size="10.00">unordered_map&lt;</text>
</a>
</g>
</g>
<!-- Node32&#45;&gt;Node1 -->
<g id="edge44" class="edge">
<title>Node32&#45;&gt;Node1</title>
<path fill="none" stroke="#9a32cd" stroke-dasharray="5,2" d="M903.66,-98.66C951.03,-88.87 1026.17,-81.74 1076,-118.38 1140.4,-165.74 1146.67,-276.28 1147.06,-309.66"/>
<polygon fill="#9a32cd" stroke="#9a32cd" points="902.72,-95.28 893.7,-100.84 904.21,-102.12 902.72,-95.28"/>
<text text-anchor="middle" x="1007.5" y="-121.38" font-family="Helvetica,sans-Serif" font-size="10.00"> connecting_voice_channels</text>
</g>
</g>
</svg>
        <g id="navigator" transform="translate(0 0)" fill="#404254">
                <rect fill="#f2f5e9" fill-opacity="0.5" stroke="#606060" stroke-width=".5" x="0" y="0" width="60" height="60"/>
                <use id="zoomplus" xlink:href="#zoomPlus" x="17" y="9" onmousedown="handleZoom(evt,'in')"/>
                <use id="zoomminus" xlink:href="#zoomMin" x="42" y="9" onmousedown="handleZoom(evt,'out')"/>
                <use id="reset" xlink:href="#resetDef" x="30" y="36" onmousedown="handleReset()"/>
                <g id="arrowUp" xlink:href="#dirArrow" transform="translate(30 24)" onmousedown="handlePan(0,-1)">
                  <use xlink:href="#rim" fill="#404040">
                        <set attributeName="fill" to="#808080" begin="arrowUp.mouseover" end="arrowUp.mouseout"/>
                  </use>
                  <path fill="none" stroke="white" stroke-width="1.5" d="M0,-3.0v7 M-2.5,-0.5L0,-3.0L2.5,-0.5"/>
                </g>
                <g id="arrowRight" xlink:href="#dirArrow" transform="rotate(90) translate(36 -43)" onmousedown="handlePan(1,0)">
                  <use xlink:href="#rim" fill="#404040">
                        <set attributeName="fill" to="#808080" begin="arrowRight.mouseover" end="arrowRight.mouseout"/>
                  </use>
                  <path fill="none" stroke="white" stroke-width="1.5" d="M0,-3.0v7 M-2.5,-0.5L0,-3.0L2.5,-0.5"/>
                </g>
                <g id="arrowDown" xlink:href="#dirArrow" transform="rotate(180) translate(-30 -48)" onmousedown="handlePan(0,1)">
                  <use xlink:href="#rim" fill="#404040">
                        <set attributeName="fill" to="#808080" begin="arrowDown.mouseover" end="arrowDown.mouseout"/>
                  </use>
                  <path fill="none" stroke="white" stroke-width="1.5" d="M0,-3.0v7 M-2.5,-0.5L0,-3.0L2.5,-0.5"/>
                </g>
                <g id="arrowLeft" xlink:href="#dirArrow" transform="rotate(270) translate(-36 17)" onmousedown="handlePan(-1,0)">
                  <use xlink:href="#rim" fill="#404040">
                        <set attributeName="fill" to="#808080" begin="arrowLeft.mouseover" end="arrowLeft.mouseout"/>
                  </use>
                  <path fill="none" stroke="white" stroke-width="1.5" d="M0,-3.0v7 M-2.5,-0.5L0,-3.0L2.5,-0.5"/>
                </g>
        </g>
        <svg viewBox="0 0 15 15" width="100%" height="30px" preserveAspectRatio="xMaxYMin meet">
         <g id="arrow_out" transform="scale(0.3 0.3)">
          <a xlink:href="classdpp_1_1discord__client__coll__graph_org.svg" target="_base">
           <rect id="button" ry="5" rx="5" y="6" x="6" height="38" width="38"
                fill="#f2f5e9" fill-opacity="0.5" stroke="#606060" stroke-width="1.0"/>
           <path id="arrow"
             d="M 11.500037,31.436501 C 11.940474,20.09759 22.043105,11.32322 32.158766,21.979434 L 37.068811,17.246167 C 37.068811,17.246167 37.088388,32 37.088388,32 L 22.160133,31.978069 C 22.160133,31.978069 26.997745,27.140456 26.997745,27.140456 C 18.528582,18.264221 13.291696,25.230495 11.500037,31.436501 z"
             style="fill:#404040;"/>
          </a>
         </g>
        </svg>
</svg>
