<?xml version="1.0" encoding="UTF-8" standalone="no"?>
<!DOCTYPE svg PUBLIC "-//W3C//DTD SVG 1.1//EN"
 "http://www.w3.org/Graphics/SVG/1.1/DTD/svg11.dtd">
<!-- Generated by graphviz version 2.43.0 (0)
 -->
<!-- Title: dpp::request_queue Pages: 1 -->
<svg width="1337pt" height="834pt"
 viewBox="0.00 0.00 1337.00 834.00" xmlns="http://www.w3.org/2000/svg" xmlns:xlink="http://www.w3.org/1999/xlink">
<g id="graph0" class="graph" transform="scale(1 1) rotate(0) translate(4 830)">
<title>dpp::request_queue</title>
<!-- Node1 -->
<g id="node1" class="node">
<title>Node1</title>
<g id="a_node1"><a xlink:title="The request_queue class manages rate limits and marshalls HTTP requests that have been built as http_...">
<polygon fill="#bfbfbf" stroke="black" points="1216,-172.5 1216,-191.5 1329,-191.5 1329,-172.5 1216,-172.5"/>
<text text-anchor="middle" x="1272.5" y="-179.5" font-family="Helvetica,sans-Serif" font-size="10.00">dpp::request_queue</text>
</a>
</g>
</g>
<!-- Node2 -->
<g id="node2" class="node">
<title>Node2</title>
<g id="a_node2"><a xlink:href="classdpp_1_1cluster.html" target="_top" xlink:title="The cluster class represents a group of shards and a command queue for sending and receiving commands...">
<polygon fill="none" stroke="black" points="987.5,-396.5 987.5,-415.5 1061.5,-415.5 1061.5,-396.5 987.5,-396.5"/>
<text text-anchor="middle" x="1024.5" y="-403.5" font-family="Helvetica,sans-Serif" font-size="10.00">dpp::cluster</text>
</a>
</g>
</g>
<!-- Node2&#45;&gt;Node1 -->
<g id="edge1" class="edge">
<title>Node2&#45;&gt;Node1</title>
<path fill="none" stroke="#9a32cd" stroke-dasharray="5,2" d="M1046.05,-389.85C1079.05,-363.66 1145.46,-309.81 1198,-260 1222.71,-236.57 1249.65,-206.78 1263.01,-191.7"/>
<polygon fill="#9a32cd" stroke="#9a32cd" points="1043.71,-387.24 1038.04,-396.19 1048.05,-392.73 1043.71,-387.24"/>
<text text-anchor="middle" x="1147" y="-351" font-family="Helvetica,sans-Serif" font-size="10.00"> creator</text>
</g>
<!-- Node3 -->
<g id="node3" class="node">
<title>Node3</title>
<g id="a_node3"><a xlink:title=" ">
<polygon fill="none" stroke="#bfbfbf" points="450.5,-245.5 450.5,-264.5 515.5,-264.5 515.5,-245.5 450.5,-245.5"/>
<text text-anchor="middle" x="483" y="-252.5" font-family="Helvetica,sans-Serif" font-size="10.00">std::string</text>
</a>
</g>
</g>
<!-- Node3&#45;&gt;Node2 -->
<g id="edge2" class="edge">
<title>Node3&#45;&gt;Node2</title>
<path fill="none" stroke="#9a32cd" stroke-dasharray="5,2" d="M526.04,-251.52C563.21,-249.43 618.72,-248.73 666,-258 674.42,-259.65 675.87,-262.25 684,-265 801.9,-304.93 844.1,-282.69 953,-343 978.85,-357.31 1003.2,-382.65 1015.38,-396.42"/>
<polygon fill="#9a32cd" stroke="#9a32cd" points="525.35,-248.06 515.59,-252.17 525.79,-255.05 525.35,-248.06"/>
<text text-anchor="middle" x="745" y="-296" font-family="Helvetica,sans-Serif" font-size="10.00"> token</text>
</g>
<!-- Node8 -->
<g id="node8" class="node">
<title>Node8</title>
<g id="a_node8"><a xlink:href="classdpp_1_1user.html" target="_top" xlink:title="Represents a user on discord. May or may not be a member of a dpp::guild.">
<polygon fill="none" stroke="black" points="714,-368.5 714,-387.5 776,-387.5 776,-368.5 714,-368.5"/>
<text text-anchor="middle" x="745" y="-375.5" font-family="Helvetica,sans-Serif" font-size="10.00">dpp::user</text>
</a>
</g>
</g>
<!-- Node3&#45;&gt;Node8 -->
<g id="edge13" class="edge">
<title>Node3&#45;&gt;Node8</title>
<path fill="none" stroke="#9a32cd" stroke-dasharray="5,2" d="M525.75,-254.34C566.52,-255.96 627.84,-264.75 666,-300 684.58,-317.16 666.64,-335.59 684,-354 691.93,-362.41 703.19,-367.93 713.82,-371.54"/>
<polygon fill="#9a32cd" stroke="#9a32cd" points="525.69,-250.84 515.6,-254.07 525.5,-257.84 525.69,-250.84"/>
<text text-anchor="middle" x="615.5" y="-314" font-family="Helvetica,sans-Serif" font-size="10.00"> global_name</text>
<text text-anchor="middle" x="615.5" y="-303" font-family="Helvetica,sans-Serif" font-size="10.00">username</text>
</g>
<!-- Node4 -->
<g id="node4" class="node">
<title>Node4</title>
<g id="a_node4"><a xlink:title=" ">
<polygon fill="none" stroke="#bfbfbf" points="144,-240 144,-270 248,-270 248,-240 144,-240"/>
<text text-anchor="start" x="152" y="-258" font-family="Helvetica,sans-Serif" font-size="10.00">std::basic_string&lt;</text>
<text text-anchor="middle" x="196" y="-247" font-family="Helvetica,sans-Serif" font-size="10.00"> Char &gt;</text>
</a>
</g>
</g>
<!-- Node4&#45;&gt;Node3 -->
<g id="edge3" class="edge">
<title>Node4&#45;&gt;Node3</title>
<path fill="none" stroke="midnightblue" d="M258.58,-255C317.47,-255 403.94,-255 450.13,-255"/>
<polygon fill="midnightblue" stroke="midnightblue" points="258.28,-251.5 248.28,-255 258.28,-258.5 258.28,-251.5"/>
</g>
<!-- Node5 -->
<g id="node5" class="node">
<title>Node5</title>
<g id="a_node5"><a xlink:title=" ">
<polygon fill="none" stroke="#bfbfbf" points="721,-656.5 721,-675.5 769,-675.5 769,-656.5 721,-656.5"/>
<text text-anchor="middle" x="745" y="-663.5" font-family="Helvetica,sans-Serif" font-size="10.00">time_t</text>
</a>
</g>
</g>
<!-- Node5&#45;&gt;Node2 -->
<g id="edge4" class="edge">
<title>Node5&#45;&gt;Node2</title>
<path fill="none" stroke="#9a32cd" stroke-dasharray="5,2" d="M779.21,-666.62C830.9,-666.9 927.37,-664.42 953,-643 1025.14,-582.71 1025.45,-452.13 1024.03,-415.64"/>
<polygon fill="#9a32cd" stroke="#9a32cd" points="779.23,-663.12 769.2,-666.53 779.16,-670.12 779.23,-663.12"/>
<text text-anchor="middle" x="888.5" y="-669" font-family="Helvetica,sans-Serif" font-size="10.00"> last_identify</text>
</g>
<!-- Node6 -->
<g id="node6" class="node">
<title>Node6</title>
<g id="a_node6"><a xlink:title=" ">
<polygon fill="none" stroke="#bfbfbf" points="455,-520.5 455,-539.5 511,-539.5 511,-520.5 455,-520.5"/>
<text text-anchor="middle" x="483" y="-527.5" font-family="Helvetica,sans-Serif" font-size="10.00">uint32_t</text>
</a>
</g>
</g>
<!-- Node6&#45;&gt;Node1 -->
<g id="edge33" class="edge">
<title>Node6&#45;&gt;Node1</title>
<path fill="none" stroke="#9a32cd" stroke-dasharray="5,2" d="M499.08,-547.74C529.7,-582.23 603.15,-657.34 684,-685 702.87,-691.45 951.09,-681.97 953,-681 1165.04,-573.08 1254.04,-252.29 1269.13,-191.87"/>
<polygon fill="#9a32cd" stroke="#9a32cd" points="501.45,-545.14 492.24,-539.9 496.18,-549.74 501.45,-545.14"/>
<text text-anchor="middle" x="888.5" y="-688" font-family="Helvetica,sans-Serif" font-size="10.00"> in_thread_pool_size</text>
</g>
<!-- Node6&#45;&gt;Node2 -->
<g id="edge5" class="edge">
<title>Node6&#45;&gt;Node2</title>
<path fill="none" stroke="#9a32cd" stroke-dasharray="5,2" d="M521.3,-529.27C561.47,-528.53 627.26,-527.43 684,-527 738.22,-526.59 751.8,-525.5 806,-527 814.01,-527.22 815.99,-527.78 824,-528 881.31,-529.59 903.34,-556.66 953,-528 996.43,-502.93 1015.51,-439.78 1021.39,-415.61"/>
<polygon fill="#9a32cd" stroke="#9a32cd" points="521.1,-525.78 511.17,-529.46 521.24,-532.78 521.1,-525.78"/>
<text text-anchor="middle" x="745" y="-563" font-family="Helvetica,sans-Serif" font-size="10.00"> cluster_id</text>
<text text-anchor="middle" x="745" y="-552" font-family="Helvetica,sans-Serif" font-size="10.00">intents</text>
<text text-anchor="middle" x="745" y="-541" font-family="Helvetica,sans-Serif" font-size="10.00">maxclusters</text>
<text text-anchor="middle" x="745" y="-530" font-family="Helvetica,sans-Serif" font-size="10.00">numshards</text>
</g>
<!-- Node6&#45;&gt;Node8 -->
<g id="edge16" class="edge">
<title>Node6&#45;&gt;Node8</title>
<path fill="none" stroke="#9a32cd" stroke-dasharray="5,2" d="M520.5,-516.8C529.25,-513.45 538.51,-509.73 547,-506 555.19,-502.4 556.58,-500.01 565,-497 608.34,-481.48 633.35,-506.46 666,-474 690.92,-449.22 660.12,-422.79 684,-397 691.72,-388.66 703.07,-383.96 713.83,-381.32"/>
<polygon fill="#9a32cd" stroke="#9a32cd" points="519.03,-513.62 510.91,-520.42 521.5,-520.17 519.03,-513.62"/>
<text text-anchor="middle" x="615.5" y="-500" font-family="Helvetica,sans-Serif" font-size="10.00"> flags</text>
</g>
<!-- Node7 -->
<g id="node7" class="node">
<title>Node7</title>
<g id="a_node7"><a xlink:title=" ">
<polygon fill="none" stroke="#bfbfbf" points="720,-618.5 720,-637.5 770,-637.5 770,-618.5 720,-618.5"/>
<text text-anchor="middle" x="745" y="-625.5" font-family="Helvetica,sans-Serif" font-size="10.00">double</text>
</a>
</g>
</g>
<!-- Node7&#45;&gt;Node2 -->
<g id="edge6" class="edge">
<title>Node7&#45;&gt;Node2</title>
<path fill="none" stroke="#9a32cd" stroke-dasharray="5,2" d="M780.26,-628.65C832.05,-628.95 927.01,-626.55 953,-606 1015.39,-556.69 1022.69,-448.21 1023.44,-415.51"/>
<polygon fill="#9a32cd" stroke="#9a32cd" points="780.24,-625.15 770.2,-628.56 780.17,-632.15 780.24,-625.15"/>
<text text-anchor="middle" x="888.5" y="-631" font-family="Helvetica,sans-Serif" font-size="10.00"> rest_ping</text>
</g>
<!-- Node8&#45;&gt;Node2 -->
<g id="edge7" class="edge">
<title>Node8&#45;&gt;Node2</title>
<path fill="none" stroke="#9a32cd" stroke-dasharray="5,2" d="M786.42,-377.96C828.3,-378.43 895.55,-380.62 953,-389 964.96,-390.74 977.86,-393.57 989.32,-396.42"/>
<polygon fill="#9a32cd" stroke="#9a32cd" points="786.37,-374.46 776.34,-377.88 786.31,-381.46 786.37,-374.46"/>
<text text-anchor="middle" x="888.5" y="-392" font-family="Helvetica,sans-Serif" font-size="10.00"> me</text>
</g>
<!-- Node9 -->
<g id="node9" class="node">
<title>Node9</title>
<g id="a_node9"><a xlink:href="classdpp_1_1managed.html" target="_top" xlink:title="The managed class is the base class for various types that can be stored in a cache that are identifi...">
<polygon fill="none" stroke="black" points="440,-298.5 440,-317.5 526,-317.5 526,-298.5 440,-298.5"/>
<text text-anchor="middle" x="483" y="-305.5" font-family="Helvetica,sans-Serif" font-size="10.00">dpp::managed</text>
</a>
</g>
</g>
<!-- Node9&#45;&gt;Node8 -->
<g id="edge8" class="edge">
<title>Node9&#45;&gt;Node8</title>
<path fill="none" stroke="midnightblue" d="M536.13,-319.37C572.69,-327.65 622.59,-339.54 666,-352 683.15,-356.92 702.15,-363.24 717.1,-368.41"/>
<polygon fill="midnightblue" stroke="midnightblue" points="536.72,-315.92 526.19,-317.14 535.18,-322.74 536.72,-315.92"/>
</g>
<!-- Node10 -->
<g id="node10" class="node">
<title>Node10</title>
<g id="a_node10"><a xlink:href="classdpp_1_1snowflake.html" target="_top" xlink:title="A container for a 64 bit unsigned value representing many things on discord. This value is known in d...">
<polygon fill="none" stroke="black" points="151.5,-342.5 151.5,-361.5 240.5,-361.5 240.5,-342.5 151.5,-342.5"/>
<text text-anchor="middle" x="196" y="-349.5" font-family="Helvetica,sans-Serif" font-size="10.00">dpp::snowflake</text>
</a>
</g>
</g>
<!-- Node10&#45;&gt;Node9 -->
<g id="edge9" class="edge">
<title>Node10&#45;&gt;Node9</title>
<path fill="none" stroke="#9a32cd" stroke-dasharray="5,2" d="M250.82,-343.69C305.66,-335.22 389.59,-322.27 439.8,-314.51"/>
<polygon fill="#9a32cd" stroke="#9a32cd" points="249.94,-340.28 240.6,-345.27 251.01,-347.2 249.94,-340.28"/>
<text text-anchor="middle" x="342" y="-340" font-family="Helvetica,sans-Serif" font-size="10.00"> id</text>
</g>
<!-- Node11 -->
<g id="node11" class="node">
<title>Node11</title>
<g id="a_node11"><a xlink:title=" ">
<polygon fill="none" stroke="#bfbfbf" points="0,-470.5 0,-489.5 56,-489.5 56,-470.5 0,-470.5"/>
<text text-anchor="middle" x="28" y="-477.5" font-family="Helvetica,sans-Serif" font-size="10.00">uint64_t</text>
</a>
</g>
</g>
<!-- Node11&#45;&gt;Node1 -->
<g id="edge32" class="edge">
<title>Node11&#45;&gt;Node1</title>
<path fill="none" stroke="#9a32cd" stroke-dasharray="5,2" d="M29.54,-500.08C32.64,-572.36 53.58,-815 195,-815 195,-815 195,-815 1025.5,-815 1165.36,-815 1257.27,-271.33 1269.99,-191.69"/>
<polygon fill="#9a32cd" stroke="#9a32cd" points="33.02,-499.53 29.17,-489.66 26.03,-499.78 33.02,-499.53"/>
<text text-anchor="middle" x="615.5" y="-818" font-family="Helvetica,sans-Serif" font-size="10.00"> globally_limited_for</text>
</g>
<!-- Node11&#45;&gt;Node10 -->
<g id="edge10" class="edge">
<title>Node11&#45;&gt;Node10</title>
<path fill="none" stroke="#9a32cd" stroke-dasharray="5,2" d="M49.53,-464.17C84.32,-437.34 153.88,-383.71 182.38,-361.73"/>
<polygon fill="#9a32cd" stroke="#9a32cd" points="47.26,-461.5 41.48,-470.38 51.53,-467.04 47.26,-461.5"/>
<text text-anchor="middle" x="91.5" y="-445" font-family="Helvetica,sans-Serif" font-size="10.00"> value</text>
</g>
<!-- Node14 -->
<g id="node14" class="node">
<title>Node14</title>
<g id="a_node14"><a xlink:href="structdpp_1_1utility_1_1iconhash.html" target="_top" xlink:title="Store a 128 bit icon hash (profile picture, server icon etc) as a 128 bit binary value made of two ui...">
<polygon fill="none" stroke="black" points="283,-470.5 283,-489.5 401,-489.5 401,-470.5 283,-470.5"/>
<text text-anchor="middle" x="342" y="-477.5" font-family="Helvetica,sans-Serif" font-size="10.00">dpp::utility::iconhash</text>
</a>
</g>
</g>
<!-- Node11&#45;&gt;Node14 -->
<g id="edge15" class="edge">
<title>Node11&#45;&gt;Node14</title>
<path fill="none" stroke="#9a32cd" stroke-dasharray="5,2" d="M66.24,-480C119.92,-480 219.53,-480 282.92,-480"/>
<polygon fill="#9a32cd" stroke="#9a32cd" points="66.14,-476.5 56.14,-480 66.14,-483.5 66.14,-476.5"/>
<text text-anchor="middle" x="91.5" y="-494" font-family="Helvetica,sans-Serif" font-size="10.00"> first</text>
<text text-anchor="middle" x="91.5" y="-483" font-family="Helvetica,sans-Serif" font-size="10.00">second</text>
</g>
<!-- Node12 -->
<g id="node12" class="node">
<title>Node12</title>
<g id="a_node12"><a xlink:href="structdpp_1_1json__interface.html" target="_top" xlink:title=" ">
<polygon fill="none" stroke="black" points="428,-413 428,-443 538,-443 538,-413 428,-413"/>
<text text-anchor="start" x="436" y="-431" font-family="Helvetica,sans-Serif" font-size="10.00">dpp::json_interface</text>
<text text-anchor="middle" x="483" y="-420" font-family="Helvetica,sans-Serif" font-size="10.00">&lt; user &gt;</text>
</a>
</g>
</g>
<!-- Node12&#45;&gt;Node8 -->
<g id="edge11" class="edge">
<title>Node12&#45;&gt;Node8</title>
<path fill="none" stroke="midnightblue" d="M548.17,-420.08C583.18,-415.27 627.19,-408.43 666,-400 681.95,-396.54 699.46,-391.7 713.84,-387.44"/>
<polygon fill="midnightblue" stroke="midnightblue" points="547.51,-416.64 538.07,-421.44 548.45,-423.57 547.51,-416.64"/>
</g>
<!-- Node13 -->
<g id="node13" class="node">
<title>Node13</title>
<g id="a_node13"><a xlink:href="structdpp_1_1json__interface.html" target="_top" xlink:title="Represents an interface for an object that can optionally implement functions for converting to and f...">
<polygon fill="none" stroke="black" points="127,-418.5 127,-437.5 265,-437.5 265,-418.5 127,-418.5"/>
<text text-anchor="middle" x="196" y="-425.5" font-family="Helvetica,sans-Serif" font-size="10.00">dpp::json_interface&lt; T &gt;</text>
</a>
</g>
</g>
<!-- Node13&#45;&gt;Node12 -->
<g id="edge12" class="edge">
<title>Node13&#45;&gt;Node12</title>
<path fill="none" stroke="orange" stroke-dasharray="5,2" d="M275.38,-428C323.74,-428 384.53,-428 427.63,-428"/>
<polygon fill="orange" stroke="orange" points="275.26,-424.5 265.26,-428 275.26,-431.5 275.26,-424.5"/>
<text text-anchor="middle" x="342" y="-431" font-family="Helvetica,sans-Serif" font-size="10.00"> &lt; user &gt;</text>
</g>
<!-- Node14&#45;&gt;Node8 -->
<g id="edge14" class="edge">
<title>Node14&#45;&gt;Node8</title>
<path fill="none" stroke="#9a32cd" stroke-dasharray="5,2" d="M411.14,-483.39C481.02,-483.52 589.96,-474.11 666,-422 677.29,-414.26 672.91,-405.03 684,-397 692.76,-390.66 703.72,-386.38 713.87,-383.51"/>
<polygon fill="#9a32cd" stroke="#9a32cd" points="411.15,-479.89 401.12,-483.3 411.09,-486.89 411.15,-479.89"/>
<text text-anchor="middle" x="483" y="-497" font-family="Helvetica,sans-Serif" font-size="10.00"> avatar</text>
<text text-anchor="middle" x="483" y="-486" font-family="Helvetica,sans-Serif" font-size="10.00">avatar_decoration</text>
</g>
<!-- Node15 -->
<g id="node15" class="node">
<title>Node15</title>
<g id="a_node15"><a xlink:title=" ">
<polygon fill="none" stroke="#bfbfbf" points="455,-336.5 455,-355.5 511,-355.5 511,-336.5 455,-336.5"/>
<text text-anchor="middle" x="483" y="-343.5" font-family="Helvetica,sans-Serif" font-size="10.00">uint16_t</text>
</a>
</g>
</g>
<!-- Node15&#45;&gt;Node2 -->
<g id="edge23" class="edge">
<title>Node15&#45;&gt;Node2</title>
<path fill="none" stroke="#9a32cd" stroke-dasharray="5,2" d="M521.43,-342.31C602.33,-335.59 798.65,-326.16 953,-374 971.62,-379.77 991.76,-389.27 1005.73,-396.42"/>
<polygon fill="#9a32cd" stroke="#9a32cd" points="520.9,-338.84 511.24,-343.19 521.51,-345.81 520.9,-338.84"/>
<text text-anchor="middle" x="745" y="-346" font-family="Helvetica,sans-Serif" font-size="10.00"> request_timeout</text>
</g>
<!-- Node15&#45;&gt;Node8 -->
<g id="edge17" class="edge">
<title>Node15&#45;&gt;Node8</title>
<path fill="none" stroke="#9a32cd" stroke-dasharray="5,2" d="M521.45,-350.61C573.35,-357 666.14,-368.42 713.85,-374.29"/>
<polygon fill="#9a32cd" stroke="#9a32cd" points="521.69,-347.11 511.33,-349.36 520.83,-354.06 521.69,-347.11"/>
<text text-anchor="middle" x="615.5" y="-370" font-family="Helvetica,sans-Serif" font-size="10.00"> discriminator</text>
</g>
<!-- Node16 -->
<g id="node16" class="node">
<title>Node16</title>
<g id="a_node16"><a xlink:title=" ">
<polygon fill="none" stroke="#bfbfbf" points="458,-374.5 458,-393.5 508,-393.5 508,-374.5 458,-374.5"/>
<text text-anchor="middle" x="483" y="-381.5" font-family="Helvetica,sans-Serif" font-size="10.00">uint8_t</text>
</a>
</g>
</g>
<!-- Node16&#45;&gt;Node8 -->
<g id="edge18" class="edge">
<title>Node16&#45;&gt;Node8</title>
<path fill="none" stroke="#9a32cd" stroke-dasharray="5,2" d="M518.29,-384.78C554.88,-385.44 614.56,-385.98 666,-384 681.74,-383.4 699.23,-382.11 713.66,-380.88"/>
<polygon fill="#9a32cd" stroke="#9a32cd" points="518.22,-381.28 508.15,-384.59 518.08,-388.28 518.22,-381.28"/>
<text text-anchor="middle" x="615.5" y="-388" font-family="Helvetica,sans-Serif" font-size="10.00"> refcount</text>
</g>
<!-- Node17 -->
<g id="node17" class="node">
<title>Node17</title>
<g id="a_node17"><a xlink:href="structdpp_1_1cache__policy__t.html" target="_top" xlink:title="Represents the caching policy of the cluster.">
<polygon fill="none" stroke="black" points="688.5,-732.5 688.5,-751.5 801.5,-751.5 801.5,-732.5 688.5,-732.5"/>
<text text-anchor="middle" x="745" y="-739.5" font-family="Helvetica,sans-Serif" font-size="10.00">dpp::cache_policy_t</text>
</a>
</g>
</g>
<!-- Node17&#45;&gt;Node2 -->
<g id="edge19" class="edge">
<title>Node17&#45;&gt;Node2</title>
<path fill="none" stroke="#9a32cd" stroke-dasharray="5,2" d="M810.51,-752.44C855.85,-755.93 914.97,-752.17 953,-718 999.78,-675.97 1018.97,-464.08 1022.77,-415.8"/>
<polygon fill="#9a32cd" stroke="#9a32cd" points="810.75,-748.95 800.48,-751.53 810.12,-755.92 810.75,-748.95"/>
<text text-anchor="middle" x="888.5" y="-756" font-family="Helvetica,sans-Serif" font-size="10.00"> cache_policy</text>
</g>
<!-- Node18 -->
<g id="node18" class="node">
<title>Node18</title>
<g id="a_node18"><a xlink:title=" ">
<polygon fill="none" stroke="#bfbfbf" points="419,-727.5 419,-746.5 547,-746.5 547,-727.5 419,-727.5"/>
<text text-anchor="middle" x="483" y="-734.5" font-family="Helvetica,sans-Serif" font-size="10.00">cache_policy_setting_t</text>
</a>
</g>
</g>
<!-- Node18&#45;&gt;Node17 -->
<g id="edge20" class="edge">
<title>Node18&#45;&gt;Node17</title>
<path fill="none" stroke="#9a32cd" stroke-dasharray="5,2" d="M557.27,-736.64C590.47,-736.67 630.22,-736.98 666,-738 673.18,-738.2 680.74,-738.49 688.2,-738.83"/>
<polygon fill="#9a32cd" stroke="#9a32cd" points="557.18,-733.14 547.18,-736.64 557.18,-740.14 557.18,-733.14"/>
<text text-anchor="middle" x="615.5" y="-785" font-family="Helvetica,sans-Serif" font-size="10.00"> channel_policy</text>
<text text-anchor="middle" x="615.5" y="-774" font-family="Helvetica,sans-Serif" font-size="10.00">emoji_policy</text>
<text text-anchor="middle" x="615.5" y="-763" font-family="Helvetica,sans-Serif" font-size="10.00">guild_policy</text>
<text text-anchor="middle" x="615.5" y="-752" font-family="Helvetica,sans-Serif" font-size="10.00">role_policy</text>
<text text-anchor="middle" x="615.5" y="-741" font-family="Helvetica,sans-Serif" font-size="10.00">user_policy</text>
</g>
<!-- Node19 -->
<g id="node19" class="node">
<title>Node19</title>
<g id="a_node19"><a xlink:title=" ">
<polygon fill="none" stroke="#bfbfbf" points="684,-580.5 684,-599.5 806,-599.5 806,-580.5 684,-580.5"/>
<text text-anchor="middle" x="745" y="-587.5" font-family="Helvetica,sans-Serif" font-size="10.00">websocket_protocol_t</text>
</a>
</g>
</g>
<!-- Node19&#45;&gt;Node2 -->
<g id="edge21" class="edge">
<title>Node19&#45;&gt;Node2</title>
<path fill="none" stroke="#9a32cd" stroke-dasharray="5,2" d="M816.37,-594.23C859.74,-593.28 914.26,-585.27 953,-556 1000.98,-519.74 1017.61,-442.71 1022.1,-415.65"/>
<polygon fill="#9a32cd" stroke="#9a32cd" points="816.13,-590.73 806.17,-594.33 816.2,-597.73 816.13,-590.73"/>
<text text-anchor="middle" x="888.5" y="-596" font-family="Helvetica,sans-Serif" font-size="10.00"> ws_mode</text>
</g>
<!-- Node20 -->
<g id="node20" class="node">
<title>Node20</title>
<g id="a_node20"><a xlink:title=" ">
<polygon fill="none" stroke="#bfbfbf" points="691.5,-236.5 691.5,-255.5 798.5,-255.5 798.5,-236.5 691.5,-236.5"/>
<text text-anchor="middle" x="745" y="-243.5" font-family="Helvetica,sans-Serif" font-size="10.00">condition_variable</text>
</a>
</g>
</g>
<!-- Node20&#45;&gt;Node1 -->
<g id="edge27" class="edge">
<title>Node20&#45;&gt;Node1</title>
<path fill="none" stroke="#9a32cd" stroke-dasharray="5,2" d="M808.63,-246.21C896.62,-245.31 1061.38,-239.21 1198,-209 1216.05,-205.01 1235.67,-197.64 1250.09,-191.61"/>
<polygon fill="#9a32cd" stroke="#9a32cd" points="808.51,-242.71 798.54,-246.29 808.57,-249.71 808.51,-242.71"/>
<text text-anchor="middle" x="1024.5" y="-242" font-family="Helvetica,sans-Serif" font-size="10.00"> out_ready</text>
</g>
<!-- Node20&#45;&gt;Node2 -->
<g id="edge22" class="edge">
<title>Node20&#45;&gt;Node2</title>
<path fill="none" stroke="#9a32cd" stroke-dasharray="5,2" d="M808.47,-254.92C867.2,-263.51 947.02,-275.8 953,-280 994.86,-309.37 1014.77,-371.94 1021.14,-396.15"/>
<polygon fill="#9a32cd" stroke="#9a32cd" points="808.9,-251.44 798.5,-253.47 807.89,-258.37 808.9,-251.44"/>
<text text-anchor="middle" x="888.5" y="-283" font-family="Helvetica,sans-Serif" font-size="10.00"> terminating</text>
</g>
<!-- Node21 -->
<g id="node21" class="node">
<title>Node21</title>
<g id="a_node21"><a xlink:title=" ">
<polygon fill="none" stroke="#bfbfbf" points="697,-406.5 697,-425.5 793,-425.5 793,-406.5 697,-406.5"/>
<text text-anchor="middle" x="745" y="-413.5" font-family="Helvetica,sans-Serif" font-size="10.00">event_router_t&lt;</text>
</a>
</g>
</g>
<!-- Node21&#45;&gt;Node2 -->
<g id="edge24" class="edge">
<title>Node21&#45;&gt;Node2</title>
<path fill="none" stroke="#9a32cd" stroke-dasharray="5,2" d="M803.42,-408.65C810.35,-407.98 817.33,-407.4 824,-407 881.05,-403.58 947.43,-404.15 987.42,-404.99"/>
<polygon fill="#9a32cd" stroke="#9a32cd" points="802.95,-405.18 793.36,-409.69 803.67,-412.14 802.95,-405.18"/>
<text text-anchor="middle" x="888.5" y="-520" font-family="Helvetica,sans-Serif" font-size="10.00"> on_autocomplete</text>
<text text-anchor="middle" x="888.5" y="-509" font-family="Helvetica,sans-Serif" font-size="10.00">on_automod_rule_create</text>
<text text-anchor="middle" x="888.5" y="-498" font-family="Helvetica,sans-Serif" font-size="10.00">on_automod_rule_delete</text>
<text text-anchor="middle" x="888.5" y="-487" font-family="Helvetica,sans-Serif" font-size="10.00">on_automod_rule_execute</text>
<text text-anchor="middle" x="888.5" y="-476" font-family="Helvetica,sans-Serif" font-size="10.00">on_automod_rule_update</text>
<text text-anchor="middle" x="888.5" y="-465" font-family="Helvetica,sans-Serif" font-size="10.00">on_button_click</text>
<text text-anchor="middle" x="888.5" y="-454" font-family="Helvetica,sans-Serif" font-size="10.00">on_channel_create</text>
<text text-anchor="middle" x="888.5" y="-443" font-family="Helvetica,sans-Serif" font-size="10.00">on_channel_delete</text>
<text text-anchor="middle" x="888.5" y="-432" font-family="Helvetica,sans-Serif" font-size="10.00">on_channel_pins_update</text>
<text text-anchor="middle" x="888.5" y="-421" font-family="Helvetica,sans-Serif" font-size="10.00">on_channel_update</text>
<text text-anchor="middle" x="888.5" y="-410" font-family="Helvetica,sans-Serif" font-size="10.00">...</text>
</g>
<!-- Node22 -->
<g id="node22" class="node">
<title>Node22</title>
<g id="a_node22"><a xlink:title=" ">
<polygon fill="none" stroke="#bfbfbf" points="971,-190.5 971,-209.5 1078,-209.5 1078,-190.5 971,-190.5"/>
<text text-anchor="middle" x="1024.5" y="-197.5" font-family="Helvetica,sans-Serif" font-size="10.00">std::shared_mutex</text>
</a>
</g>
</g>
<!-- Node22&#45;&gt;Node1 -->
<g id="edge25" class="edge">
<title>Node22&#45;&gt;Node1</title>
<path fill="none" stroke="#9a32cd" stroke-dasharray="5,2" d="M1088.29,-195.41C1127.64,-192.53 1177.9,-188.85 1215.82,-186.07"/>
<polygon fill="#9a32cd" stroke="#9a32cd" points="1087.99,-191.92 1078.27,-196.14 1088.5,-198.9 1087.99,-191.92"/>
<text text-anchor="middle" x="1147" y="-197" font-family="Helvetica,sans-Serif" font-size="10.00"> out_mutex</text>
</g>
<!-- Node23 -->
<g id="node23" class="node">
<title>Node23</title>
<g id="a_node23"><a xlink:title=" ">
<polygon fill="none" stroke="#bfbfbf" points="990,-152.5 990,-171.5 1059,-171.5 1059,-152.5 990,-152.5"/>
<text text-anchor="middle" x="1024.5" y="-159.5" font-family="Helvetica,sans-Serif" font-size="10.00">std::thread</text>
</a>
</g>
</g>
<!-- Node23&#45;&gt;Node1 -->
<g id="edge26" class="edge">
<title>Node23&#45;&gt;Node1</title>
<path fill="none" stroke="#9a32cd" stroke-dasharray="5,2" d="M1069.6,-163.62C1104.49,-165.12 1154.43,-167.78 1198,-172 1203.77,-172.56 1209.78,-173.23 1215.77,-173.96"/>
<polygon fill="#9a32cd" stroke="#9a32cd" points="1069.41,-160.11 1059.27,-163.19 1069.12,-167.1 1069.41,-160.11"/>
<text text-anchor="middle" x="1147" y="-175" font-family="Helvetica,sans-Serif" font-size="10.00"> out_thread</text>
</g>
<!-- Node24 -->
<g id="node24" class="node">
<title>Node24</title>
<g id="a_node24"><a xlink:title=" ">
<polygon fill="none" stroke="#bfbfbf" points="997,-114.5 997,-133.5 1052,-133.5 1052,-114.5 997,-114.5"/>
<text text-anchor="middle" x="1024.5" y="-121.5" font-family="Helvetica,sans-Serif" font-size="10.00">queue&lt;</text>
</a>
</g>
</g>
<!-- Node24&#45;&gt;Node1 -->
<g id="edge28" class="edge">
<title>Node24&#45;&gt;Node1</title>
<path fill="none" stroke="#9a32cd" stroke-dasharray="5,2" d="M1062.59,-126.77C1097.93,-130.07 1152.37,-136.87 1198,-150 1217.53,-155.62 1238.69,-165.24 1253.27,-172.46"/>
<polygon fill="#9a32cd" stroke="#9a32cd" points="1062.53,-123.26 1052.26,-125.86 1061.91,-130.23 1062.53,-123.26"/>
<text text-anchor="middle" x="1147" y="-153" font-family="Helvetica,sans-Serif" font-size="10.00"> responses_out</text>
</g>
<!-- Node25 -->
<g id="node25" class="node">
<title>Node25</title>
<g id="a_node25"><a xlink:title=" ">
<polygon fill="none" stroke="#bfbfbf" points="996.5,-76.5 996.5,-95.5 1052.5,-95.5 1052.5,-76.5 996.5,-76.5"/>
<text text-anchor="middle" x="1024.5" y="-83.5" font-family="Helvetica,sans-Serif" font-size="10.00">vector&lt;</text>
</a>
</g>
</g>
<!-- Node25&#45;&gt;Node1 -->
<g id="edge29" class="edge">
<title>Node25&#45;&gt;Node1</title>
<path fill="none" stroke="#9a32cd" stroke-dasharray="5,2" d="M1062.98,-82.63C1099.39,-80.98 1155.26,-82.85 1198,-104 1229.69,-119.68 1254.82,-155.05 1265.68,-172.25"/>
<polygon fill="#9a32cd" stroke="#9a32cd" points="1062.59,-79.15 1052.8,-83.2 1062.99,-86.13 1062.59,-79.15"/>
<text text-anchor="middle" x="1147" y="-118" font-family="Helvetica,sans-Serif" font-size="10.00"> requests_in</text>
<text text-anchor="middle" x="1147" y="-107" font-family="Helvetica,sans-Serif" font-size="10.00">responses_to_delete</text>
</g>
<!-- Node26 -->
<g id="node26" class="node">
<title>Node26</title>
<g id="a_node26"><a xlink:title=" ">
<polygon fill="none" stroke="#bfbfbf" points="995,-38.5 995,-57.5 1054,-57.5 1054,-38.5 995,-38.5"/>
<text text-anchor="middle" x="1024.5" y="-45.5" font-family="Helvetica,sans-Serif" font-size="10.00">atomic&lt;</text>
</a>
</g>
</g>
<!-- Node26&#45;&gt;Node1 -->
<g id="edge30" class="edge">
<title>Node26&#45;&gt;Node1</title>
<path fill="none" stroke="#9a32cd" stroke-dasharray="5,2" d="M1064.59,-43.15C1101.72,-40.54 1157.7,-41.97 1198,-67 1238.66,-92.26 1260.91,-149.26 1268.5,-172.18"/>
<polygon fill="#9a32cd" stroke="#9a32cd" points="1063.85,-39.7 1054.18,-44.02 1064.44,-46.68 1063.85,-39.7"/>
<text text-anchor="middle" x="1147" y="-70" font-family="Helvetica,sans-Serif" font-size="10.00"> terminating</text>
</g>
<!-- Node27 -->
<g id="node27" class="node">
<title>Node27</title>
<g id="a_node27"><a xlink:title=" ">
<polygon fill="none" stroke="#bfbfbf" points="1005.5,-0.5 1005.5,-19.5 1043.5,-19.5 1043.5,-0.5 1005.5,-0.5"/>
<text text-anchor="middle" x="1024.5" y="-7.5" font-family="Helvetica,sans-Serif" font-size="10.00">bool</text>
</a>
</g>
</g>
<!-- Node27&#45;&gt;Node1 -->
<g id="edge31" class="edge">
<title>Node27&#45;&gt;Node1</title>
<path fill="none" stroke="#9a32cd" stroke-dasharray="5,2" d="M1053.61,-5.12C1090.34,-0.35 1155.01,2.35 1198,-28 1248.82,-63.88 1265.72,-144.52 1270.16,-172.35"/>
<polygon fill="#9a32cd" stroke="#9a32cd" points="1053,-1.67 1043.6,-6.56 1053.99,-8.6 1053,-1.67"/>
<text text-anchor="middle" x="1147" y="-31" font-family="Helvetica,sans-Serif" font-size="10.00"> globally_ratelimited</text>
</g>
</g>
</svg>
