<?xml version="1.0" encoding="UTF-8" standalone="no"?>
<!DOCTYPE svg PUBLIC "-//W3C//DTD SVG 1.1//EN"
 "http://www.w3.org/Graphics/SVG/1.1/DTD/svg11.dtd">
<!-- Generated by graphviz version 2.43.0 (0)
 -->
<!-- Title: dpp::guild Pages: 1 -->
<!--zoomable 1025 -->
<svg id="main" version="1.1" xmlns="http://www.w3.org/2000/svg" xmlns:xlink="http://www.w3.org/1999/xlink" xml:space="preserve" onload="init(evt)">
<style type="text/css"><![CDATA[
.edge:hover path { stroke: red; }
.edge:hover polygon { stroke: red; fill: red; }
]]></style>
<script type="text/javascript"><![CDATA[
var edges = document.getElementsByTagName('g');
if (edges && edges.length) {
  for (var i=0;i<edges.length;i++) {
    if (edges[i].id.substr(0,4)=='edge') {
      edges[i].setAttribute('class','edge');
    }
  }
}
]]></script>
        <defs>
                <circle id="rim" cx="0" cy="0" r="7"/>
                <circle id="rim2" cx="0" cy="0" r="3.5"/>
                <g id="zoomPlus">
                        <use xlink:href="#rim" fill="#404040">
                                <set attributeName="fill" to="#808080" begin="zoomplus.mouseover" end="zoomplus.mouseout"/>
                        </use>
                        <path d="M-4,0h8M0,-4v8" fill="none" stroke="white" stroke-width="1.5" pointer-events="none"/>
                </g>
                <g id="zoomMin">
                        <use xlink:href="#rim" fill="#404040">
                                <set attributeName="fill" to="#808080" begin="zoomminus.mouseover" end="zoomminus.mouseout"/>
                        </use>
                        <path d="M-4,0h8" fill="none" stroke="white" stroke-width="1.5" pointer-events="none"/>
                </g>
                <g id="dirArrow">
                        <path fill="none" stroke="white" stroke-width="1.5" d="M0,-3.0v7 M-2.5,-0.5L0,-3.0L2.5,-0.5"/>
                </g>
               <g id="resetDef">
                       <use xlink:href="#rim2" fill="#404040">
                               <set attributeName="fill" to="#808080" begin="reset.mouseover" end="reset.mouseout"/>
                       </use>
               </g>
        </defs>

<script type="text/javascript">
var viewWidth = 1264;
var viewHeight = 1025;
var sectionId = 'dynsection-1';
</script>
<script xlink:href="svgpan.js"/>
<svg id="graph" class="graph">
<g id="viewport">
<title>dpp::guild</title>
<!-- Node1 -->
<g id="node1" class="node">
<title>Node1</title>
<g id="a_node1"><a xlink:title="Represents a guild on Discord (AKA a server)">
<polygon fill="#bfbfbf" stroke="black" points="1191,-378.21 1191,-397.21 1256,-397.21 1256,-378.21 1191,-378.21"/>
<text text-anchor="middle" x="1223.5" y="-385.21" font-family="Helvetica,sans-Serif" font-size="10.00">dpp::guild</text>
</a>
</g>
</g>
<!-- Node2 -->
<g id="node2" class="node">
<title>Node2</title>
<g id="a_node2"><a xlink:href="classdpp_1_1managed.html" target="_top" xlink:title="The managed class is the base class for various types that can be stored in a cache that are identifi...">
<polygon fill="none" stroke="black" points="716.5,-361.21 716.5,-380.21 802.5,-380.21 802.5,-361.21 716.5,-361.21"/>
<text text-anchor="middle" x="759.5" y="-368.21" font-family="Helvetica,sans-Serif" font-size="10.00">dpp::managed</text>
</a>
</g>
</g>
<!-- Node2&#45;&gt;Node1 -->
<g id="edge1" class="edge">
<title>Node2&#45;&gt;Node1</title>
<path fill="none" stroke="midnightblue" d="M811.22,-382.25C818.18,-383.57 825.25,-384.77 832,-385.71 982.23,-406.56 1022.24,-415.26 1173,-398.71 1178.86,-398.07 1185.05,-397.01 1190.98,-395.79"/>
<polygon fill="midnightblue" stroke="midnightblue" points="811.66,-378.77 801.17,-380.25 810.29,-385.63 811.66,-378.77"/>
</g>
<!-- Node3 -->
<g id="node3" class="node">
<title>Node3</title>
<g id="a_node3"><a xlink:href="classdpp_1_1snowflake.html" target="_top" xlink:title="A container for a 64 bit unsigned value representing many things on discord. This value is known in d...">
<polygon fill="none" stroke="black" points="298,-436.21 298,-455.21 387,-455.21 387,-436.21 298,-436.21"/>
<text text-anchor="middle" x="342.5" y="-443.21" font-family="Helvetica,sans-Serif" font-size="10.00">dpp::snowflake</text>
</a>
</g>
</g>
<!-- Node3&#45;&gt;Node1 -->
<g id="edge29" class="edge">
<title>Node3&#45;&gt;Node1</title>
<path fill="none" stroke="#9a32cd" stroke-dasharray="5,2" d="M397.48,-442.02C513.5,-434.53 779.01,-419.94 814,-440.71 828.37,-449.24 817.63,-465.18 832,-473.71 896.97,-512.28 926.46,-475.26 1002,-473.71 1078.05,-472.16 1107.22,-504.9 1173,-466.71 1199.74,-451.19 1214.13,-414.85 1219.72,-397.4"/>
<polygon fill="#9a32cd" stroke="#9a32cd" points="397.14,-438.53 387.39,-442.68 397.6,-445.52 397.14,-438.53"/>
<text text-anchor="middle" x="759.5" y="-542.71" font-family="Helvetica,sans-Serif" font-size="10.00"> afk_channel_id</text>
<text text-anchor="middle" x="759.5" y="-531.71" font-family="Helvetica,sans-Serif" font-size="10.00">application_id</text>
<text text-anchor="middle" x="759.5" y="-520.71" font-family="Helvetica,sans-Serif" font-size="10.00">owner_id</text>
<text text-anchor="start" x="705.5" y="-509.71" font-family="Helvetica,sans-Serif" font-size="10.00">public_updates</text>
<text text-anchor="middle" x="759.5" y="-498.71" font-family="Helvetica,sans-Serif" font-size="10.00">_channel_id</text>
<text text-anchor="middle" x="759.5" y="-487.71" font-family="Helvetica,sans-Serif" font-size="10.00">rules_channel_id</text>
<text text-anchor="start" x="705.5" y="-476.71" font-family="Helvetica,sans-Serif" font-size="10.00">safety_alerts_channel</text>
<text text-anchor="middle" x="759.5" y="-465.71" font-family="Helvetica,sans-Serif" font-size="10.00">_id</text>
<text text-anchor="middle" x="759.5" y="-454.71" font-family="Helvetica,sans-Serif" font-size="10.00">system_channel_id</text>
<text text-anchor="middle" x="759.5" y="-443.71" font-family="Helvetica,sans-Serif" font-size="10.00">widget_channel_id</text>
</g>
<!-- Node3&#45;&gt;Node2 -->
<g id="edge2" class="edge">
<title>Node3&#45;&gt;Node2</title>
<path fill="none" stroke="#9a32cd" stroke-dasharray="5,2" d="M358.29,-428.23C372.55,-412.79 395.66,-391.29 421,-381.71 521.35,-343.78 650.7,-354.46 716.3,-363.63"/>
<polygon fill="#9a32cd" stroke="#9a32cd" points="355.35,-426.27 351.32,-436.07 360.58,-430.92 355.35,-426.27"/>
<text text-anchor="middle" x="484" y="-384.71" font-family="Helvetica,sans-Serif" font-size="10.00"> id</text>
</g>
<!-- Node11 -->
<g id="node11" class="node">
<title>Node11</title>
<g id="a_node11"><a xlink:title=" ">
<polygon fill="none" stroke="#bfbfbf" points="835,-433.71 835,-463.71 999,-463.71 999,-433.71 835,-433.71"/>
<text text-anchor="start" x="843" y="-451.71" font-family="Helvetica,sans-Serif" font-size="10.00">std::unordered_map</text>
<text text-anchor="middle" x="917" y="-440.71" font-family="Helvetica,sans-Serif" font-size="10.00">&lt; snowflake, guild_member &gt;</text>
</a>
</g>
</g>
<!-- Node3&#45;&gt;Node11 -->
<g id="edge11" class="edge">
<title>Node3&#45;&gt;Node11</title>
<path fill="none" stroke="#9a32cd" stroke-dasharray="5,2" d="M397.19,-435.28C405.15,-433.94 413.28,-432.7 421,-431.71 594.32,-409.5 640.83,-397.38 814,-420.71 833.11,-423.29 853.7,-428.46 871.35,-433.67"/>
<polygon fill="#9a32cd" stroke="#9a32cd" points="396.49,-431.85 387.23,-437 397.68,-438.74 396.49,-431.85"/>
<text text-anchor="middle" x="626" y="-415.71" font-family="Helvetica,sans-Serif" font-size="10.00"> keys</text>
</g>
<!-- Node12 -->
<g id="node12" class="node">
<title>Node12</title>
<g id="a_node12"><a xlink:href="classdpp_1_1guild__member.html" target="_top" xlink:title="Represents dpp::user membership upon a dpp::guild. This contains the user&#39;s nickname,...">
<polygon fill="none" stroke="black" points="570.5,-629.21 570.5,-648.21 681.5,-648.21 681.5,-629.21 570.5,-629.21"/>
<text text-anchor="middle" x="626" y="-636.21" font-family="Helvetica,sans-Serif" font-size="10.00">dpp::guild_member</text>
</a>
</g>
</g>
<!-- Node3&#45;&gt;Node12 -->
<g id="edge16" class="edge">
<title>Node3&#45;&gt;Node12</title>
<path fill="none" stroke="#9a32cd" stroke-dasharray="5,2" d="M397.34,-456.57C449.39,-467.9 523.69,-486.51 547,-504.71 590.49,-538.67 614.35,-604.17 622.13,-628.92"/>
<polygon fill="#9a32cd" stroke="#9a32cd" points="397.76,-453.08 387.25,-454.41 396.29,-459.93 397.76,-453.08"/>
<text text-anchor="middle" x="484" y="-518.71" font-family="Helvetica,sans-Serif" font-size="10.00"> guild_id</text>
<text text-anchor="middle" x="484" y="-507.71" font-family="Helvetica,sans-Serif" font-size="10.00">user_id</text>
</g>
<!-- Node4 -->
<g id="node4" class="node">
<title>Node4</title>
<g id="a_node4"><a xlink:title=" ">
<polygon fill="none" stroke="#bfbfbf" points="41,-468.21 41,-487.21 97,-487.21 97,-468.21 41,-468.21"/>
<text text-anchor="middle" x="69" y="-475.21" font-family="Helvetica,sans-Serif" font-size="10.00">uint64_t</text>
</a>
</g>
</g>
<!-- Node4&#45;&gt;Node3 -->
<g id="edge3" class="edge">
<title>Node4&#45;&gt;Node3</title>
<path fill="none" stroke="#9a32cd" stroke-dasharray="5,2" d="M107.11,-472.28C122.26,-470.12 139.95,-467.7 156,-465.71 204.54,-459.71 260.36,-453.83 297.98,-450.02"/>
<polygon fill="#9a32cd" stroke="#9a32cd" points="106.49,-468.83 97.08,-473.71 107.48,-475.76 106.49,-468.83"/>
<text text-anchor="middle" x="210" y="-468.71" font-family="Helvetica,sans-Serif" font-size="10.00"> value</text>
</g>
<!-- Node14 -->
<g id="node14" class="node">
<title>Node14</title>
<g id="a_node14"><a xlink:href="structdpp_1_1utility_1_1iconhash.html" target="_top" xlink:title="Store a 128 bit icon hash (profile picture, server icon etc) as a 128 bit binary value made of two ui...">
<polygon fill="none" stroke="black" points="283.5,-507.21 283.5,-526.21 401.5,-526.21 401.5,-507.21 283.5,-507.21"/>
<text text-anchor="middle" x="342.5" y="-514.21" font-family="Helvetica,sans-Serif" font-size="10.00">dpp::utility::iconhash</text>
</a>
</g>
</g>
<!-- Node4&#45;&gt;Node14 -->
<g id="edge18" class="edge">
<title>Node4&#45;&gt;Node14</title>
<path fill="none" stroke="#9a32cd" stroke-dasharray="5,2" d="M107.03,-483.03C152.43,-489.55 229.93,-500.69 283.33,-508.36"/>
<polygon fill="#9a32cd" stroke="#9a32cd" points="107.42,-479.55 97.03,-481.59 106.43,-486.48 107.42,-479.55"/>
<text text-anchor="middle" x="210" y="-518.71" font-family="Helvetica,sans-Serif" font-size="10.00"> first</text>
<text text-anchor="middle" x="210" y="-507.71" font-family="Helvetica,sans-Serif" font-size="10.00">second</text>
</g>
<!-- Node5 -->
<g id="node5" class="node">
<title>Node5</title>
<g id="a_node5"><a xlink:href="structdpp_1_1json__interface.html" target="_top" xlink:title=" ">
<polygon fill="none" stroke="black" points="429,-785.71 429,-815.71 539,-815.71 539,-785.71 429,-785.71"/>
<text text-anchor="start" x="437" y="-803.71" font-family="Helvetica,sans-Serif" font-size="10.00">dpp::json_interface</text>
<text text-anchor="middle" x="484" y="-792.71" font-family="Helvetica,sans-Serif" font-size="10.00">&lt; guild &gt;</text>
</a>
</g>
</g>
<!-- Node5&#45;&gt;Node1 -->
<g id="edge4" class="edge">
<title>Node5&#45;&gt;Node1</title>
<path fill="none" stroke="midnightblue" d="M549.38,-806.25C702.86,-817.96 1084.15,-837.77 1173,-754.71 1226.78,-704.44 1223.95,-450.44 1222.76,-397.42"/>
<polygon fill="midnightblue" stroke="midnightblue" points="549.4,-802.74 539.16,-805.45 548.86,-809.72 549.4,-802.74"/>
</g>
<!-- Node6 -->
<g id="node6" class="node">
<title>Node6</title>
<g id="a_node6"><a xlink:href="structdpp_1_1json__interface.html" target="_top" xlink:title="Represents an interface for an object that can optionally implement functions for converting to and f...">
<polygon fill="none" stroke="black" points="0,-846.21 0,-865.21 138,-865.21 138,-846.21 0,-846.21"/>
<text text-anchor="middle" x="69" y="-853.21" font-family="Helvetica,sans-Serif" font-size="10.00">dpp::json_interface&lt; T &gt;</text>
</a>
</g>
</g>
<!-- Node6&#45;&gt;Node5 -->
<g id="edge5" class="edge">
<title>Node6&#45;&gt;Node5</title>
<path fill="none" stroke="orange" stroke-dasharray="5,2" d="M148.23,-845.29C230.33,-834.36 357.21,-817.46 428.88,-807.92"/>
<polygon fill="orange" stroke="orange" points="147.65,-841.84 138.2,-846.63 148.57,-848.78 147.65,-841.84"/>
<text text-anchor="middle" x="210" y="-846.71" font-family="Helvetica,sans-Serif" font-size="10.00"> &lt; guild &gt;</text>
</g>
<!-- Node20 -->
<g id="node20" class="node">
<title>Node20</title>
<g id="a_node20"><a xlink:href="structdpp_1_1json__interface.html" target="_top" xlink:title=" ">
<polygon fill="none" stroke="black" points="282,-905.71 282,-935.71 403,-935.71 403,-905.71 282,-905.71"/>
<text text-anchor="start" x="290" y="-923.71" font-family="Helvetica,sans-Serif" font-size="10.00">dpp::json_interface</text>
<text text-anchor="middle" x="342.5" y="-912.71" font-family="Helvetica,sans-Serif" font-size="10.00">&lt; welcome_screen &gt;</text>
</a>
</g>
</g>
<!-- Node6&#45;&gt;Node20 -->
<g id="edge25" class="edge">
<title>Node6&#45;&gt;Node20</title>
<path fill="none" stroke="orange" stroke-dasharray="5,2" d="M119.74,-867.62C165.42,-878.56 233.21,-894.79 281.8,-906.42"/>
<polygon fill="orange" stroke="orange" points="120.31,-864.16 109.77,-865.23 118.68,-870.97 120.31,-864.16"/>
<text text-anchor="middle" x="210" y="-903.71" font-family="Helvetica,sans-Serif" font-size="10.00"> &lt; welcome_screen &gt;</text>
</g>
<!-- Node7 -->
<g id="node7" class="node">
<title>Node7</title>
<g id="a_node7"><a xlink:title=" ">
<polygon fill="none" stroke="#bfbfbf" points="310,-726.21 310,-745.21 375,-745.21 375,-726.21 310,-726.21"/>
<text text-anchor="middle" x="342.5" y="-733.21" font-family="Helvetica,sans-Serif" font-size="10.00">std::string</text>
</a>
</g>
</g>
<!-- Node7&#45;&gt;Node1 -->
<g id="edge6" class="edge">
<title>Node7&#45;&gt;Node1</title>
<path fill="none" stroke="#9a32cd" stroke-dasharray="5,2" d="M385.58,-738.25C491.77,-743.36 778.13,-748.97 1002,-678.71 1080.68,-654.02 1120.05,-669.93 1173,-606.71 1200.6,-573.77 1217.38,-435.1 1221.5,-397.28"/>
<polygon fill="#9a32cd" stroke="#9a32cd" points="385.45,-734.74 375.28,-737.73 385.09,-741.73 385.45,-734.74"/>
<text text-anchor="middle" x="759.5" y="-756.71" font-family="Helvetica,sans-Serif" font-size="10.00"> description</text>
<text text-anchor="middle" x="759.5" y="-745.71" font-family="Helvetica,sans-Serif" font-size="10.00">name</text>
<text text-anchor="middle" x="759.5" y="-734.71" font-family="Helvetica,sans-Serif" font-size="10.00">vanity_url_code</text>
</g>
<!-- Node7&#45;&gt;Node12 -->
<g id="edge13" class="edge">
<title>Node7&#45;&gt;Node12</title>
<path fill="none" stroke="#9a32cd" stroke-dasharray="5,2" d="M381.78,-722.96C422.74,-709.26 489.57,-686.76 547,-666.71 564.25,-660.69 583.58,-653.75 598.68,-648.29"/>
<polygon fill="#9a32cd" stroke="#9a32cd" points="380.58,-719.67 372.2,-726.16 382.79,-726.31 380.58,-719.67"/>
<text text-anchor="middle" x="484" y="-712.71" font-family="Helvetica,sans-Serif" font-size="10.00"> nickname</text>
</g>
<!-- Node19 -->
<g id="node19" class="node">
<title>Node19</title>
<g id="a_node19"><a xlink:href="structdpp_1_1welcome__screen.html" target="_top" xlink:title="Defines a server&#39;s welcome screen.">
<polygon fill="none" stroke="black" points="565,-846.21 565,-865.21 687,-865.21 687,-846.21 565,-846.21"/>
<text text-anchor="middle" x="626" y="-853.21" font-family="Helvetica,sans-Serif" font-size="10.00">dpp::welcome_screen</text>
</a>
</g>
</g>
<!-- Node7&#45;&gt;Node19 -->
<g id="edge26" class="edge">
<title>Node7&#45;&gt;Node19</title>
<path fill="none" stroke="#9a32cd" stroke-dasharray="5,2" d="M385.09,-741.89C443.58,-750.64 543.46,-765.77 547,-767.71 581.74,-786.73 608.62,-827.46 619.6,-846.07"/>
<polygon fill="#9a32cd" stroke="#9a32cd" points="385.44,-738.41 375.03,-740.39 384.4,-745.33 385.44,-738.41"/>
<text text-anchor="middle" x="484" y="-770.71" font-family="Helvetica,sans-Serif" font-size="10.00"> description</text>
</g>
<!-- Node8 -->
<g id="node8" class="node">
<title>Node8</title>
<g id="a_node8"><a xlink:title=" ">
<polygon fill="none" stroke="#bfbfbf" points="17,-720.71 17,-750.71 121,-750.71 121,-720.71 17,-720.71"/>
<text text-anchor="start" x="25" y="-738.71" font-family="Helvetica,sans-Serif" font-size="10.00">std::basic_string&lt;</text>
<text text-anchor="middle" x="69" y="-727.71" font-family="Helvetica,sans-Serif" font-size="10.00"> Char &gt;</text>
</a>
</g>
</g>
<!-- Node8&#45;&gt;Node7 -->
<g id="edge7" class="edge">
<title>Node8&#45;&gt;Node7</title>
<path fill="none" stroke="midnightblue" d="M131.12,-735.71C186.56,-735.71 266.08,-735.71 309.76,-735.71"/>
<polygon fill="midnightblue" stroke="midnightblue" points="131.07,-732.21 121.07,-735.71 131.07,-739.21 131.07,-732.21"/>
</g>
<!-- Node9 -->
<g id="node9" class="node">
<title>Node9</title>
<g id="a_node9"><a xlink:title=" ">
<polygon fill="none" stroke="#bfbfbf" points="314.5,-864.21 314.5,-883.21 370.5,-883.21 370.5,-864.21 314.5,-864.21"/>
<text text-anchor="middle" x="342.5" y="-871.21" font-family="Helvetica,sans-Serif" font-size="10.00">vector&lt;</text>
</a>
</g>
</g>
<!-- Node9&#45;&gt;Node1 -->
<g id="edge8" class="edge">
<title>Node9&#45;&gt;Node1</title>
<path fill="none" stroke="#9a32cd" stroke-dasharray="5,2" d="M377.81,-886.89C505.91,-933.6 959.68,-1076.45 1173,-844.71 1204.48,-810.51 1219.66,-459.99 1222.14,-397.29"/>
<polygon fill="#9a32cd" stroke="#9a32cd" points="378.73,-883.49 368.13,-883.31 376.3,-890.06 378.73,-883.49"/>
<text text-anchor="middle" x="759.5" y="-1008.71" font-family="Helvetica,sans-Serif" font-size="10.00"> channels</text>
<text text-anchor="middle" x="759.5" y="-997.71" font-family="Helvetica,sans-Serif" font-size="10.00">emojis</text>
<text text-anchor="middle" x="759.5" y="-986.71" font-family="Helvetica,sans-Serif" font-size="10.00">roles</text>
<text text-anchor="middle" x="759.5" y="-975.71" font-family="Helvetica,sans-Serif" font-size="10.00">threads</text>
</g>
<!-- Node9&#45;&gt;Node12 -->
<g id="edge14" class="edge">
<title>Node9&#45;&gt;Node12</title>
<path fill="none" stroke="#9a32cd" stroke-dasharray="5,2" d="M376.75,-860.64C390.34,-855.58 406.3,-849.98 421,-845.71 476.09,-829.71 502.73,-854.19 547,-817.71 602.72,-771.79 619.72,-678.37 623.85,-648.28"/>
<polygon fill="#9a32cd" stroke="#9a32cd" points="375.44,-857.39 367.33,-864.21 377.92,-863.94 375.44,-857.39"/>
<text text-anchor="middle" x="484" y="-848.71" font-family="Helvetica,sans-Serif" font-size="10.00"> roles</text>
</g>
<!-- Node9&#45;&gt;Node19 -->
<g id="edge27" class="edge">
<title>Node9&#45;&gt;Node19</title>
<path fill="none" stroke="#9a32cd" stroke-dasharray="5,2" d="M380.79,-871.33C427.76,-868.32 509.06,-863.13 564.86,-859.56"/>
<polygon fill="#9a32cd" stroke="#9a32cd" points="380.5,-867.84 370.75,-871.97 380.95,-874.82 380.5,-867.84"/>
<text text-anchor="middle" x="484" y="-870.71" font-family="Helvetica,sans-Serif" font-size="10.00"> welcome_channels</text>
</g>
<!-- Node10 -->
<g id="node10" class="node">
<title>Node10</title>
<g id="a_node10"><a xlink:title=" ">
<polygon fill="none" stroke="#bfbfbf" points="893.5,-357.21 893.5,-376.21 940.5,-376.21 940.5,-357.21 893.5,-357.21"/>
<text text-anchor="middle" x="917" y="-364.21" font-family="Helvetica,sans-Serif" font-size="10.00">map&lt;</text>
</a>
</g>
</g>
<!-- Node10&#45;&gt;Node1 -->
<g id="edge9" class="edge">
<title>Node10&#45;&gt;Node1</title>
<path fill="none" stroke="#9a32cd" stroke-dasharray="5,2" d="M951.15,-369C1010.21,-373.07 1132.9,-381.53 1190.87,-385.53"/>
<polygon fill="#9a32cd" stroke="#9a32cd" points="951.1,-365.49 940.89,-368.29 950.62,-372.47 951.1,-365.49"/>
<text text-anchor="middle" x="1096.5" y="-386.71" font-family="Helvetica,sans-Serif" font-size="10.00"> voice_members</text>
</g>
<!-- Node11&#45;&gt;Node1 -->
<g id="edge10" class="edge">
<title>Node11&#45;&gt;Node1</title>
<path fill="none" stroke="#9a32cd" stroke-dasharray="5,2" d="M1009.17,-452.69C1059.11,-451.9 1121.19,-445.95 1173,-425.71 1188.94,-419.48 1204.06,-406.47 1213.3,-397.42"/>
<polygon fill="#9a32cd" stroke="#9a32cd" points="1009,-449.19 999.03,-452.78 1009.06,-456.19 1009,-449.19"/>
<text text-anchor="middle" x="1096.5" y="-454.71" font-family="Helvetica,sans-Serif" font-size="10.00"> members</text>
</g>
<!-- Node12&#45;&gt;Node11 -->
<g id="edge12" class="edge">
<title>Node12&#45;&gt;Node11</title>
<path fill="none" stroke="#9a32cd" stroke-dasharray="5,2" d="M692.03,-637.44C737.79,-635.43 794.24,-630.37 814,-617.71 871.86,-580.64 901.65,-497.97 911.85,-463.87"/>
<polygon fill="#9a32cd" stroke="#9a32cd" points="691.71,-633.95 681.86,-637.85 691.99,-640.95 691.71,-633.95"/>
<text text-anchor="middle" x="759.5" y="-638.71" font-family="Helvetica,sans-Serif" font-size="10.00"> elements</text>
</g>
<!-- Node13 -->
<g id="node13" class="node">
<title>Node13</title>
<g id="a_node13"><a xlink:title=" ">
<polygon fill="none" stroke="#bfbfbf" points="314.5,-654.21 314.5,-673.21 370.5,-673.21 370.5,-654.21 314.5,-654.21"/>
<text text-anchor="middle" x="342.5" y="-661.21" font-family="Helvetica,sans-Serif" font-size="10.00">uint16_t</text>
</a>
</g>
</g>
<!-- Node13&#45;&gt;Node1 -->
<g id="edge31" class="edge">
<title>Node13&#45;&gt;Node1</title>
<path fill="none" stroke="#9a32cd" stroke-dasharray="5,2" d="M380.86,-663.87C421.68,-663.97 489,-663.89 547,-662.71 830.4,-656.96 971.01,-739.58 1173,-540.71 1214.38,-499.97 1221.2,-424.43 1222.3,-397.53"/>
<polygon fill="#9a32cd" stroke="#9a32cd" points="380.83,-660.37 370.82,-663.84 380.81,-667.37 380.83,-660.37"/>
<text text-anchor="middle" x="759.5" y="-709.71" font-family="Helvetica,sans-Serif" font-size="10.00"> flags_extra</text>
<text text-anchor="start" x="705" y="-698.71" font-family="Helvetica,sans-Serif" font-size="10.00">premium_subscription</text>
<text text-anchor="middle" x="759.5" y="-687.71" font-family="Helvetica,sans-Serif" font-size="10.00">_count</text>
<text text-anchor="middle" x="759.5" y="-676.71" font-family="Helvetica,sans-Serif" font-size="10.00">shard_id</text>
</g>
<!-- Node13&#45;&gt;Node12 -->
<g id="edge15" class="edge">
<title>Node13&#45;&gt;Node12</title>
<path fill="none" stroke="#9a32cd" stroke-dasharray="5,2" d="M380.91,-657.22C393.6,-655.21 407.89,-653.14 421,-651.71 471.45,-646.21 529.19,-642.8 570.34,-640.86"/>
<polygon fill="#9a32cd" stroke="#9a32cd" points="379.99,-653.83 370.68,-658.89 381.11,-660.74 379.99,-653.83"/>
<text text-anchor="middle" x="484" y="-654.71" font-family="Helvetica,sans-Serif" font-size="10.00"> flags</text>
</g>
<!-- Node14&#45;&gt;Node1 -->
<g id="edge28" class="edge">
<title>Node14&#45;&gt;Node1</title>
<path fill="none" stroke="#9a32cd" stroke-dasharray="5,2" d="M411.96,-520.44C451.48,-522.84 502.09,-526.33 547,-530.71 617.45,-537.59 634.36,-546.26 705,-550.71 914.34,-563.91 1005.21,-615.59 1173,-489.71 1204.18,-466.32 1216.74,-418.1 1220.83,-397.45"/>
<polygon fill="#9a32cd" stroke="#9a32cd" points="412.1,-516.94 401.91,-519.84 411.68,-523.93 412.1,-516.94"/>
<text text-anchor="middle" x="759.5" y="-595.71" font-family="Helvetica,sans-Serif" font-size="10.00"> banner</text>
<text text-anchor="middle" x="759.5" y="-584.71" font-family="Helvetica,sans-Serif" font-size="10.00">discovery_splash</text>
<text text-anchor="middle" x="759.5" y="-573.71" font-family="Helvetica,sans-Serif" font-size="10.00">icon</text>
<text text-anchor="middle" x="759.5" y="-562.71" font-family="Helvetica,sans-Serif" font-size="10.00">splash</text>
</g>
<!-- Node14&#45;&gt;Node12 -->
<g id="edge17" class="edge">
<title>Node14&#45;&gt;Node12</title>
<path fill="none" stroke="#9a32cd" stroke-dasharray="5,2" d="M410.14,-528.14C460.05,-537.43 523.58,-551.03 547,-563.71 578.06,-580.53 605.56,-613.1 617.99,-629.21"/>
<polygon fill="#9a32cd" stroke="#9a32cd" points="410.5,-524.65 400.03,-526.28 409.24,-531.53 410.5,-524.65"/>
<text text-anchor="middle" x="484" y="-566.71" font-family="Helvetica,sans-Serif" font-size="10.00"> avatar</text>
</g>
<!-- Node15 -->
<g id="node15" class="node">
<title>Node15</title>
<g id="a_node15"><a xlink:title=" ">
<polygon fill="none" stroke="#bfbfbf" points="318.5,-574.21 318.5,-593.21 366.5,-593.21 366.5,-574.21 318.5,-574.21"/>
<text text-anchor="middle" x="342.5" y="-581.21" font-family="Helvetica,sans-Serif" font-size="10.00">time_t</text>
</a>
</g>
</g>
<!-- Node15&#45;&gt;Node12 -->
<g id="edge19" class="edge">
<title>Node15&#45;&gt;Node12</title>
<path fill="none" stroke="#9a32cd" stroke-dasharray="5,2" d="M376.9,-580.63C417.88,-577.91 489.06,-576.66 547,-593.71 572.2,-601.13 597.91,-618.19 612.62,-629.04"/>
<polygon fill="#9a32cd" stroke="#9a32cd" points="376.38,-577.16 366.67,-581.38 376.9,-584.14 376.38,-577.16"/>
<text text-anchor="start" x="421" y="-629.71" font-family="Helvetica,sans-Serif" font-size="10.00"> communication_disabled</text>
<text text-anchor="middle" x="484" y="-618.71" font-family="Helvetica,sans-Serif" font-size="10.00">_until</text>
<text text-anchor="middle" x="484" y="-607.71" font-family="Helvetica,sans-Serif" font-size="10.00">joined_at</text>
<text text-anchor="middle" x="484" y="-596.71" font-family="Helvetica,sans-Serif" font-size="10.00">premium_since</text>
</g>
<!-- Node16 -->
<g id="node16" class="node">
<title>Node16</title>
<g id="a_node16"><a xlink:title=" ">
<polygon fill="none" stroke="#bfbfbf" points="569,-301.71 569,-331.71 683,-331.71 683,-301.71 569,-301.71"/>
<text text-anchor="start" x="577" y="-319.71" font-family="Helvetica,sans-Serif" font-size="10.00">std::unordered_map</text>
<text text-anchor="middle" x="626" y="-308.71" font-family="Helvetica,sans-Serif" font-size="10.00">&lt; K, T &gt;</text>
</a>
</g>
</g>
<!-- Node16&#45;&gt;Node11 -->
<g id="edge20" class="edge">
<title>Node16&#45;&gt;Node11</title>
<path fill="none" stroke="orange" stroke-dasharray="5,2" d="M693.38,-304.16C732.4,-300.64 780.49,-303.46 814,-329.71 834.58,-345.84 816.83,-364.42 832,-385.71 846.39,-405.9 869.2,-422.42 887.42,-433.47"/>
<polygon fill="orange" stroke="orange" points="692.73,-300.71 683.15,-305.25 693.47,-307.67 692.73,-300.71"/>
<text text-anchor="start" x="712.5" y="-343.71" font-family="Helvetica,sans-Serif" font-size="10.00"> &lt; snowflake, guild</text>
<text text-anchor="middle" x="759.5" y="-332.71" font-family="Helvetica,sans-Serif" font-size="10.00">_member &gt;</text>
</g>
<!-- Node17 -->
<g id="node17" class="node">
<title>Node17</title>
<g id="a_node17"><a xlink:title=" ">
<polygon fill="none" stroke="#bfbfbf" points="328,-274.21 328,-293.21 357,-293.21 357,-274.21 328,-274.21"/>
<text text-anchor="middle" x="342.5" y="-281.21" font-family="Helvetica,sans-Serif" font-size="10.00">K</text>
</a>
</g>
</g>
<!-- Node17&#45;&gt;Node16 -->
<g id="edge21" class="edge">
<title>Node17&#45;&gt;Node16</title>
<path fill="none" stroke="#9a32cd" stroke-dasharray="5,2" d="M367.48,-285.29C405.61,-287.95 482.36,-293.91 547,-302.71 554.09,-303.68 561.52,-304.83 568.85,-306.05"/>
<polygon fill="#9a32cd" stroke="#9a32cd" points="367.58,-281.79 357.36,-284.6 367.1,-288.77 367.58,-281.79"/>
<text text-anchor="middle" x="484" y="-305.71" font-family="Helvetica,sans-Serif" font-size="10.00"> keys</text>
</g>
<!-- Node18 -->
<g id="node18" class="node">
<title>Node18</title>
<g id="a_node18"><a xlink:title=" ">
<polygon fill="none" stroke="#bfbfbf" points="328,-312.21 328,-331.21 357,-331.21 357,-312.21 328,-312.21"/>
<text text-anchor="middle" x="342.5" y="-319.21" font-family="Helvetica,sans-Serif" font-size="10.00">T</text>
</a>
</g>
</g>
<!-- Node18&#45;&gt;Node16 -->
<g id="edge22" class="edge">
<title>Node18&#45;&gt;Node16</title>
<path fill="none" stroke="#9a32cd" stroke-dasharray="5,2" d="M367.11,-321.29C411.19,-320.51 507.1,-318.81 568.72,-317.71"/>
<polygon fill="#9a32cd" stroke="#9a32cd" points="367.01,-317.79 357.08,-321.47 367.14,-324.79 367.01,-317.79"/>
<text text-anchor="middle" x="484" y="-322.71" font-family="Helvetica,sans-Serif" font-size="10.00"> elements</text>
</g>
<!-- Node19&#45;&gt;Node1 -->
<g id="edge23" class="edge">
<title>Node19&#45;&gt;Node1</title>
<path fill="none" stroke="#9a32cd" stroke-dasharray="5,2" d="M697.01,-860C828.92,-866.45 1106.96,-871.83 1173,-807.71 1203.55,-778.05 1219.38,-457.21 1222.08,-397.31"/>
<polygon fill="#9a32cd" stroke="#9a32cd" points="697.17,-856.5 687.01,-859.49 696.82,-863.49 697.17,-856.5"/>
<text text-anchor="middle" x="917" y="-865.71" font-family="Helvetica,sans-Serif" font-size="10.00"> welcome_screen</text>
</g>
<!-- Node20&#45;&gt;Node19 -->
<g id="edge24" class="edge">
<title>Node20&#45;&gt;Node19</title>
<path fill="none" stroke="midnightblue" d="M413.31,-910.31C452.85,-903.77 503.05,-894.35 547,-882.71 565.15,-877.91 585.15,-870.95 600.35,-865.3"/>
<polygon fill="midnightblue" stroke="midnightblue" points="412.54,-906.89 403.24,-911.96 413.67,-913.8 412.54,-906.89"/>
</g>
<!-- Node21 -->
<g id="node21" class="node">
<title>Node21</title>
<g id="a_node21"><a xlink:title=" ">
<polygon fill="none" stroke="#bfbfbf" points="889,-319.21 889,-338.21 945,-338.21 945,-319.21 889,-319.21"/>
<text text-anchor="middle" x="917" y="-326.21" font-family="Helvetica,sans-Serif" font-size="10.00">uint32_t</text>
</a>
</g>
</g>
<!-- Node21&#45;&gt;Node1 -->
<g id="edge30" class="edge">
<title>Node21&#45;&gt;Node1</title>
<path fill="none" stroke="#9a32cd" stroke-dasharray="5,2" d="M955.29,-324.28C1016.61,-317.65 1135.66,-307.74 1173,-325.71 1195.59,-336.58 1211.08,-363.33 1218.15,-377.89"/>
<polygon fill="#9a32cd" stroke="#9a32cd" points="954.81,-320.81 945.25,-325.39 955.58,-327.77 954.81,-320.81"/>
<text text-anchor="middle" x="1096.5" y="-361.71" font-family="Helvetica,sans-Serif" font-size="10.00"> flags</text>
<text text-anchor="middle" x="1096.5" y="-350.71" font-family="Helvetica,sans-Serif" font-size="10.00">max_members</text>
<text text-anchor="middle" x="1096.5" y="-339.71" font-family="Helvetica,sans-Serif" font-size="10.00">max_presences</text>
<text text-anchor="middle" x="1096.5" y="-328.71" font-family="Helvetica,sans-Serif" font-size="10.00">member_count</text>
</g>
<!-- Node22 -->
<g id="node22" class="node">
<title>Node22</title>
<g id="a_node22"><a xlink:title=" ">
<polygon fill="none" stroke="#bfbfbf" points="860,-281.21 860,-300.21 974,-300.21 974,-281.21 860,-281.21"/>
<text text-anchor="middle" x="917" y="-288.21" font-family="Helvetica,sans-Serif" font-size="10.00">guild_afk_timeout_t</text>
</a>
</g>
</g>
<!-- Node22&#45;&gt;Node1 -->
<g id="edge32" class="edge">
<title>Node22&#45;&gt;Node1</title>
<path fill="none" stroke="#9a32cd" stroke-dasharray="5,2" d="M966.36,-279.23C1020.81,-269.11 1109.9,-261.3 1173,-299.71 1202.2,-317.49 1215.63,-359.24 1220.38,-378.13"/>
<polygon fill="#9a32cd" stroke="#9a32cd" points="965.42,-275.84 956.28,-281.2 966.77,-282.71 965.42,-275.84"/>
<text text-anchor="middle" x="1096.5" y="-302.71" font-family="Helvetica,sans-Serif" font-size="10.00"> afk_timeout</text>
</g>
<!-- Node23 -->
<g id="node23" class="node">
<title>Node23</title>
<g id="a_node23"><a xlink:title=" ">
<polygon fill="none" stroke="#bfbfbf" points="892,-243.21 892,-262.21 942,-262.21 942,-243.21 892,-243.21"/>
<text text-anchor="middle" x="917" y="-250.21" font-family="Helvetica,sans-Serif" font-size="10.00">uint8_t</text>
</a>
</g>
</g>
<!-- Node23&#45;&gt;Node1 -->
<g id="edge33" class="edge">
<title>Node23&#45;&gt;Node1</title>
<path fill="none" stroke="#9a32cd" stroke-dasharray="5,2" d="M952.32,-248.49C1013.54,-241.7 1138.4,-231.43 1173,-255.71 1214.27,-284.67 1221.17,-352.5 1222.3,-377.89"/>
<polygon fill="#9a32cd" stroke="#9a32cd" points="951.9,-245.02 942.37,-249.63 952.7,-251.97 951.9,-245.02"/>
<text text-anchor="middle" x="1096.5" y="-258.71" font-family="Helvetica,sans-Serif" font-size="10.00"> max_video_channel_users</text>
</g>
<!-- Node24 -->
<g id="node24" class="node">
<title>Node24</title>
<g id="a_node24"><a xlink:title=" ">
<polygon fill="none" stroke="#bfbfbf" points="832,-205.21 832,-224.21 1002,-224.21 1002,-205.21 832,-205.21"/>
<text text-anchor="middle" x="917" y="-212.21" font-family="Helvetica,sans-Serif" font-size="10.00">default_message_notification_t</text>
</a>
</g>
</g>
<!-- Node24&#45;&gt;Node1 -->
<g id="edge34" class="edge">
<title>Node24&#45;&gt;Node1</title>
<path fill="none" stroke="#9a32cd" stroke-dasharray="5,2" d="M1012.24,-207.35C1074.29,-204.54 1148.42,-205.73 1173,-224.71 1222.39,-262.85 1223.99,-348.85 1223.03,-377.91"/>
<polygon fill="#9a32cd" stroke="#9a32cd" points="1011.82,-203.86 1002.01,-207.85 1012.17,-210.85 1011.82,-203.86"/>
<text text-anchor="middle" x="1096.5" y="-227.71" font-family="Helvetica,sans-Serif" font-size="10.00"> default_message_notifications</text>
</g>
<!-- Node25 -->
<g id="node25" class="node">
<title>Node25</title>
<g id="a_node25"><a xlink:title=" ">
<polygon fill="none" stroke="#bfbfbf" points="856.5,-167.21 856.5,-186.21 977.5,-186.21 977.5,-167.21 856.5,-167.21"/>
<text text-anchor="middle" x="917" y="-174.21" font-family="Helvetica,sans-Serif" font-size="10.00">guild_premium_tier_t</text>
</a>
</g>
</g>
<!-- Node25&#45;&gt;Node1 -->
<g id="edge35" class="edge">
<title>Node25&#45;&gt;Node1</title>
<path fill="none" stroke="#9a32cd" stroke-dasharray="5,2" d="M961.71,-164.93C1017.42,-152.76 1113.59,-141.71 1173,-190.71 1202.79,-215.28 1217.84,-341.98 1221.56,-378.1"/>
<polygon fill="#9a32cd" stroke="#9a32cd" points="960.76,-161.55 951.8,-167.2 962.33,-168.37 960.76,-161.55"/>
<text text-anchor="middle" x="1096.5" y="-193.71" font-family="Helvetica,sans-Serif" font-size="10.00"> premium_tier</text>
</g>
<!-- Node26 -->
<g id="node26" class="node">
<title>Node26</title>
<g id="a_node26"><a xlink:title=" ">
<polygon fill="none" stroke="#bfbfbf" points="862,-129.21 862,-148.21 972,-148.21 972,-129.21 862,-129.21"/>
<text text-anchor="middle" x="917" y="-136.21" font-family="Helvetica,sans-Serif" font-size="10.00">verification_level_t</text>
</a>
</g>
</g>
<!-- Node26&#45;&gt;Node1 -->
<g id="edge36" class="edge">
<title>Node26&#45;&gt;Node1</title>
<path fill="none" stroke="#9a32cd" stroke-dasharray="5,2" d="M982.57,-129.75C1048.49,-122.14 1144.98,-115.72 1173,-138.71 1211.07,-169.96 1220.4,-336.44 1222.15,-378.2"/>
<polygon fill="#9a32cd" stroke="#9a32cd" points="981.78,-126.32 972.27,-130.98 982.61,-133.27 981.78,-126.32"/>
<text text-anchor="middle" x="1096.5" y="-141.71" font-family="Helvetica,sans-Serif" font-size="10.00"> verification_level</text>
</g>
<!-- Node27 -->
<g id="node27" class="node">
<title>Node27</title>
<g id="a_node27"><a xlink:title=" ">
<polygon fill="none" stroke="#bfbfbf" points="850.5,-91.21 850.5,-110.21 983.5,-110.21 983.5,-91.21 850.5,-91.21"/>
<text text-anchor="middle" x="917" y="-98.21" font-family="Helvetica,sans-Serif" font-size="10.00">guild_explicit_content_t</text>
</a>
</g>
</g>
<!-- Node27&#45;&gt;Node1 -->
<g id="edge37" class="edge">
<title>Node27&#45;&gt;Node1</title>
<path fill="none" stroke="#9a32cd" stroke-dasharray="5,2" d="M993.97,-92.63C1059.32,-87.45 1147.05,-85.34 1173,-107.71 1215.06,-143.98 1221.42,-332.79 1222.35,-377.98"/>
<polygon fill="#9a32cd" stroke="#9a32cd" points="993.36,-89.16 983.69,-93.48 993.94,-96.14 993.36,-89.16"/>
<text text-anchor="middle" x="1096.5" y="-110.71" font-family="Helvetica,sans-Serif" font-size="10.00"> explicit_content_filter</text>
</g>
<!-- Node28 -->
<g id="node28" class="node">
<title>Node28</title>
<g id="a_node28"><a xlink:title=" ">
<polygon fill="none" stroke="#bfbfbf" points="880,-53.21 880,-72.21 954,-72.21 954,-53.21 880,-53.21"/>
<text text-anchor="middle" x="917" y="-60.21" font-family="Helvetica,sans-Serif" font-size="10.00">mfa_level_t</text>
</a>
</g>
</g>
<!-- Node28&#45;&gt;Node1 -->
<g id="edge38" class="edge">
<title>Node28&#45;&gt;Node1</title>
<path fill="none" stroke="#9a32cd" stroke-dasharray="5,2" d="M964.35,-58.01C1029.42,-52.5 1143.27,-47.17 1173,-73.71 1219.73,-115.43 1222.51,-330.05 1222.54,-378.14"/>
<polygon fill="#9a32cd" stroke="#9a32cd" points="963.99,-54.53 954.34,-58.89 964.61,-61.5 963.99,-54.53"/>
<text text-anchor="middle" x="1096.5" y="-76.71" font-family="Helvetica,sans-Serif" font-size="10.00"> mfa_level</text>
</g>
<!-- Node29 -->
<g id="node29" class="node">
<title>Node29</title>
<g id="a_node29"><a xlink:title=" ">
<polygon fill="none" stroke="#bfbfbf" points="863.5,-15.21 863.5,-34.21 970.5,-34.21 970.5,-15.21 863.5,-15.21"/>
<text text-anchor="middle" x="917" y="-22.21" font-family="Helvetica,sans-Serif" font-size="10.00">guild_nsfw_level_t</text>
</a>
</g>
</g>
<!-- Node29&#45;&gt;Node1 -->
<g id="edge39" class="edge">
<title>Node29&#45;&gt;Node1</title>
<path fill="none" stroke="#9a32cd" stroke-dasharray="5,2" d="M959.81,-12.62C1015.96,0.8 1115.33,14.2 1173,-38.71 1224.52,-85.98 1223.51,-326.91 1222.69,-378.13"/>
<polygon fill="#9a32cd" stroke="#9a32cd" points="958.7,-9.29 949.84,-15.11 960.39,-16.08 958.7,-9.29"/>
<text text-anchor="middle" x="1096.5" y="-41.71" font-family="Helvetica,sans-Serif" font-size="10.00"> nsfw_level</text>
</g>
</g>
</svg>
        <g id="navigator" transform="translate(0 0)" fill="#404254">
                <rect fill="#f2f5e9" fill-opacity="0.5" stroke="#606060" stroke-width=".5" x="0" y="0" width="60" height="60"/>
                <use id="zoomplus" xlink:href="#zoomPlus" x="17" y="9" onmousedown="handleZoom(evt,'in')"/>
                <use id="zoomminus" xlink:href="#zoomMin" x="42" y="9" onmousedown="handleZoom(evt,'out')"/>
                <use id="reset" xlink:href="#resetDef" x="30" y="36" onmousedown="handleReset()"/>
                <g id="arrowUp" xlink:href="#dirArrow" transform="translate(30 24)" onmousedown="handlePan(0,-1)">
                  <use xlink:href="#rim" fill="#404040">
                        <set attributeName="fill" to="#808080" begin="arrowUp.mouseover" end="arrowUp.mouseout"/>
                  </use>
                  <path fill="none" stroke="white" stroke-width="1.5" d="M0,-3.0v7 M-2.5,-0.5L0,-3.0L2.5,-0.5"/>
                </g>
                <g id="arrowRight" xlink:href="#dirArrow" transform="rotate(90) translate(36 -43)" onmousedown="handlePan(1,0)">
                  <use xlink:href="#rim" fill="#404040">
                        <set attributeName="fill" to="#808080" begin="arrowRight.mouseover" end="arrowRight.mouseout"/>
                  </use>
                  <path fill="none" stroke="white" stroke-width="1.5" d="M0,-3.0v7 M-2.5,-0.5L0,-3.0L2.5,-0.5"/>
                </g>
                <g id="arrowDown" xlink:href="#dirArrow" transform="rotate(180) translate(-30 -48)" onmousedown="handlePan(0,1)">
                  <use xlink:href="#rim" fill="#404040">
                        <set attributeName="fill" to="#808080" begin="arrowDown.mouseover" end="arrowDown.mouseout"/>
                  </use>
                  <path fill="none" stroke="white" stroke-width="1.5" d="M0,-3.0v7 M-2.5,-0.5L0,-3.0L2.5,-0.5"/>
                </g>
                <g id="arrowLeft" xlink:href="#dirArrow" transform="rotate(270) translate(-36 17)" onmousedown="handlePan(-1,0)">
                  <use xlink:href="#rim" fill="#404040">
                        <set attributeName="fill" to="#808080" begin="arrowLeft.mouseover" end="arrowLeft.mouseout"/>
                  </use>
                  <path fill="none" stroke="white" stroke-width="1.5" d="M0,-3.0v7 M-2.5,-0.5L0,-3.0L2.5,-0.5"/>
                </g>
        </g>
        <svg viewBox="0 0 15 15" width="100%" height="30px" preserveAspectRatio="xMaxYMin meet">
         <g id="arrow_out" transform="scale(0.3 0.3)">
          <a xlink:href="classdpp_1_1guild__coll__graph_org.svg" target="_base">
           <rect id="button" ry="5" rx="5" y="6" x="6" height="38" width="38"
                fill="#f2f5e9" fill-opacity="0.5" stroke="#606060" stroke-width="1.0"/>
           <path id="arrow"
             d="M 11.500037,31.436501 C 11.940474,20.09759 22.043105,11.32322 32.158766,21.979434 L 37.068811,17.246167 C 37.068811,17.246167 37.088388,32 37.088388,32 L 22.160133,31.978069 C 22.160133,31.978069 26.997745,27.140456 26.997745,27.140456 C 18.528582,18.264221 13.291696,25.230495 11.500037,31.436501 z"
             style="fill:#404040;"/>
          </a>
         </g>
        </svg>
</svg>
