<?xml version="1.0" encoding="UTF-8" standalone="no"?>
<!DOCTYPE svg PUBLIC "-//W3C//DTD SVG 1.1//EN"
 "http://www.w3.org/Graphics/SVG/1.1/DTD/svg11.dtd">
<!-- Generated by graphviz version 2.43.0 (0)
 -->
<!-- Title: dpp::channel Pages: 1 -->
<svg width="531pt" height="445pt"
 viewBox="0.00 0.00 531.00 445.22" xmlns="http://www.w3.org/2000/svg" xmlns:xlink="http://www.w3.org/1999/xlink">
<g id="graph0" class="graph" transform="scale(1 1) rotate(0) translate(4 441.22)">
<title>dpp::channel</title>
<polygon fill="white" stroke="transparent" points="-4,4 -4,-441.22 527,-441.22 527,4 -4,4"/>
<!-- Node1 -->
<g id="node1" class="node">
<title>Node1</title>
<g id="a_node1"><a xlink:title="A definition of a discord channel There are one of these for every channel type except threads....">
<polygon fill="#bfbfbf" stroke="black" points="444,-178.72 444,-197.72 523,-197.72 523,-178.72 444,-178.72"/>
<text text-anchor="middle" x="483.5" y="-185.72" font-family="Helvetica,sans-Serif" font-size="10.00">dpp::channel</text>
</a>
</g>
</g>
<!-- Node2 -->
<g id="node2" class="node">
<title>Node2</title>
<g id="a_node2"><a xlink:href="classdpp_1_1managed.html" target="_top" xlink:title="The managed class is the base class for various types that can be stored in a cache that are identifi...">
<polygon fill="white" stroke="black" points="191,-319.72 191,-338.72 277,-338.72 277,-319.72 191,-319.72"/>
<text text-anchor="middle" x="234" y="-326.72" font-family="Helvetica,sans-Serif" font-size="10.00">dpp::managed</text>
</a>
</g>
</g>
<!-- Node2&#45;&gt;Node1 -->
<g id="edge1" class="edge">
<title>Node2&#45;&gt;Node1</title>
<path fill="none" stroke="midnightblue" d="M287.25,-337.94C328.62,-341.91 385.92,-340.59 426,-312.22 465.39,-284.34 477.88,-222.15 481.33,-198.04"/>
<polygon fill="midnightblue" stroke="midnightblue" points="287.41,-334.43 277.09,-336.82 286.65,-341.39 287.41,-334.43"/>
</g>
<!-- Node3 -->
<g id="node3" class="node">
<title>Node3</title>
<g id="a_node3"><a xlink:title=" ">
<polygon fill="white" stroke="#bfbfbf" points="24,-326.72 24,-345.72 80,-345.72 80,-326.72 24,-326.72"/>
<text text-anchor="middle" x="52" y="-333.72" font-family="Helvetica,sans-Serif" font-size="10.00">uint64_t</text>
</a>
</g>
</g>
<!-- Node3&#45;&gt;Node1 -->
<g id="edge5" class="edge">
<title>Node3&#45;&gt;Node1</title>
<path fill="none" stroke="#9a32cd" stroke-dasharray="5,2" d="M88.23,-349.18C159.86,-373.06 324.27,-414.98 426,-339.22 472.92,-304.28 480.89,-225.74 482.23,-198.09"/>
<polygon fill="#9a32cd" stroke="#9a32cd" points="88.95,-345.73 78.36,-345.8 86.69,-352.35 88.95,-345.73"/>
<text text-anchor="middle" x="234" y="-429.22" font-family="Helvetica,sans-Serif" font-size="10.00"> guild_id</text>
<text text-anchor="middle" x="234" y="-418.22" font-family="Helvetica,sans-Serif" font-size="10.00">last_message_id</text>
<text text-anchor="middle" x="234" y="-407.22" font-family="Helvetica,sans-Serif" font-size="10.00">owner_id</text>
<text text-anchor="middle" x="234" y="-396.22" font-family="Helvetica,sans-Serif" font-size="10.00">parent_id</text>
<text text-anchor="middle" x="234" y="-385.22" font-family="Helvetica,sans-Serif" font-size="10.00">permissions</text>
</g>
<!-- Node3&#45;&gt;Node2 -->
<g id="edge2" class="edge">
<title>Node3&#45;&gt;Node2</title>
<path fill="none" stroke="#9a32cd" stroke-dasharray="5,2" d="M90.58,-334.76C119.9,-333.62 160.6,-332.03 190.99,-330.85"/>
<polygon fill="#9a32cd" stroke="#9a32cd" points="90.19,-331.27 80.34,-335.16 90.47,-338.26 90.19,-331.27"/>
<text text-anchor="middle" x="139.5" y="-336.22" font-family="Helvetica,sans-Serif" font-size="10.00"> id</text>
</g>
<!-- Node11 -->
<g id="node11" class="node">
<title>Node11</title>
<g id="a_node11"><a xlink:href="structdpp_1_1utility_1_1iconhash.html" target="_top" xlink:title="Store a 128 bit icon hash (profile picture, server icon etc) as a 128 bit binary value made of two ui...">
<polygon fill="white" stroke="black" points="175,-281.72 175,-300.72 293,-300.72 293,-281.72 175,-281.72"/>
<text text-anchor="middle" x="234" y="-288.72" font-family="Helvetica,sans-Serif" font-size="10.00">dpp::utility::iconhash</text>
</a>
</g>
</g>
<!-- Node3&#45;&gt;Node11 -->
<g id="edge12" class="edge">
<title>Node3&#45;&gt;Node11</title>
<path fill="none" stroke="#9a32cd" stroke-dasharray="5,2" d="M80.54,-322.16C92.93,-316.39 107.9,-310.15 122,-306.22 138.86,-301.51 157.58,-298.26 174.77,-296.03"/>
<polygon fill="#9a32cd" stroke="#9a32cd" points="78.73,-319.15 71.23,-326.64 81.76,-325.46 78.73,-319.15"/>
<text text-anchor="middle" x="139.5" y="-320.22" font-family="Helvetica,sans-Serif" font-size="10.00"> first</text>
<text text-anchor="middle" x="139.5" y="-309.22" font-family="Helvetica,sans-Serif" font-size="10.00">second</text>
</g>
<!-- Node4 -->
<g id="node4" class="node">
<title>Node4</title>
<g id="a_node4"><a xlink:href="structdpp_1_1json__interface.html" target="_top" xlink:title=" ">
<polygon fill="white" stroke="black" points="179,-232.22 179,-262.22 289,-262.22 289,-232.22 179,-232.22"/>
<text text-anchor="start" x="187" y="-250.22" font-family="Helvetica,sans-Serif" font-size="10.00">dpp::json_interface</text>
<text text-anchor="middle" x="234" y="-239.22" font-family="Helvetica,sans-Serif" font-size="10.00">&lt; channel &gt;</text>
</a>
</g>
</g>
<!-- Node4&#45;&gt;Node1 -->
<g id="edge3" class="edge">
<title>Node4&#45;&gt;Node1</title>
<path fill="none" stroke="midnightblue" d="M299.07,-257.88C337.37,-261.46 386.15,-260.99 426,-244.22 448.66,-234.68 467.12,-211.34 476.27,-197.99"/>
<polygon fill="midnightblue" stroke="midnightblue" points="299.38,-254.39 289.07,-256.83 298.65,-261.35 299.38,-254.39"/>
</g>
<!-- Node5 -->
<g id="node5" class="node">
<title>Node5</title>
<g id="a_node5"><a xlink:title=" ">
<polygon fill="white" stroke="#bfbfbf" points="206,-178.72 206,-197.72 262,-197.72 262,-178.72 206,-178.72"/>
<text text-anchor="middle" x="234" y="-185.72" font-family="Helvetica,sans-Serif" font-size="10.00">uint16_t</text>
</a>
</g>
</g>
<!-- Node5&#45;&gt;Node1 -->
<g id="edge4" class="edge">
<title>Node5&#45;&gt;Node1</title>
<path fill="none" stroke="#9a32cd" stroke-dasharray="5,2" d="M272.62,-188.22C318.82,-188.22 396.79,-188.22 443.58,-188.22"/>
<polygon fill="#9a32cd" stroke="#9a32cd" points="272.43,-184.72 262.43,-188.22 272.43,-191.72 272.43,-184.72"/>
<text text-anchor="middle" x="368.5" y="-235.22" font-family="Helvetica,sans-Serif" font-size="10.00"> bitrate</text>
<text text-anchor="middle" x="368.5" y="-224.22" font-family="Helvetica,sans-Serif" font-size="10.00">flags</text>
<text text-anchor="middle" x="368.5" y="-213.22" font-family="Helvetica,sans-Serif" font-size="10.00">position</text>
<text text-anchor="start" x="334" y="-202.22" font-family="Helvetica,sans-Serif" font-size="10.00">rate_limit_per</text>
<text text-anchor="middle" x="368.5" y="-191.22" font-family="Helvetica,sans-Serif" font-size="10.00">_user</text>
</g>
<!-- Node6 -->
<g id="node6" class="node">
<title>Node6</title>
<g id="a_node6"><a xlink:title=" ">
<polygon fill="white" stroke="#bfbfbf" points="201.5,-126.72 201.5,-145.72 266.5,-145.72 266.5,-126.72 201.5,-126.72"/>
<text text-anchor="middle" x="234" y="-133.72" font-family="Helvetica,sans-Serif" font-size="10.00">std::string</text>
</a>
</g>
</g>
<!-- Node6&#45;&gt;Node1 -->
<g id="edge6" class="edge">
<title>Node6&#45;&gt;Node1</title>
<path fill="none" stroke="#9a32cd" stroke-dasharray="5,2" d="M276.8,-133.63C316.32,-132.54 376.73,-134.4 426,-151.22 443.31,-157.13 460.5,-169.58 471.3,-178.4"/>
<polygon fill="#9a32cd" stroke="#9a32cd" points="276.6,-130.14 266.73,-133.99 276.84,-137.13 276.6,-130.14"/>
<text text-anchor="middle" x="368.5" y="-176.22" font-family="Helvetica,sans-Serif" font-size="10.00"> name</text>
<text text-anchor="middle" x="368.5" y="-165.22" font-family="Helvetica,sans-Serif" font-size="10.00">rtc_region</text>
<text text-anchor="middle" x="368.5" y="-154.22" font-family="Helvetica,sans-Serif" font-size="10.00">topic</text>
</g>
<!-- Node7 -->
<g id="node7" class="node">
<title>Node7</title>
<g id="a_node7"><a xlink:title=" ">
<polygon fill="white" stroke="#bfbfbf" points="0,-121.22 0,-151.22 104,-151.22 104,-121.22 0,-121.22"/>
<text text-anchor="start" x="8" y="-139.22" font-family="Helvetica,sans-Serif" font-size="10.00">std::basic_string&lt;</text>
<text text-anchor="middle" x="52" y="-128.22" font-family="Helvetica,sans-Serif" font-size="10.00"> Char &gt;</text>
</a>
</g>
</g>
<!-- Node7&#45;&gt;Node6 -->
<g id="edge7" class="edge">
<title>Node7&#45;&gt;Node6</title>
<path fill="none" stroke="midnightblue" d="M114.23,-136.22C143.49,-136.22 177.27,-136.22 201.31,-136.22"/>
<polygon fill="midnightblue" stroke="midnightblue" points="114.1,-132.72 104.1,-136.22 114.1,-139.72 114.1,-132.72"/>
</g>
<!-- Node8 -->
<g id="node8" class="node">
<title>Node8</title>
<g id="a_node8"><a xlink:title=" ">
<polygon fill="white" stroke="#bfbfbf" points="209,-88.72 209,-107.72 259,-107.72 259,-88.72 209,-88.72"/>
<text text-anchor="middle" x="234" y="-95.72" font-family="Helvetica,sans-Serif" font-size="10.00">uint8_t</text>
</a>
</g>
</g>
<!-- Node8&#45;&gt;Node1 -->
<g id="edge8" class="edge">
<title>Node8&#45;&gt;Node1</title>
<path fill="none" stroke="#9a32cd" stroke-dasharray="5,2" d="M269.1,-94.25C309.19,-91.21 376.53,-91.32 426,-118.22 451.52,-132.1 469.78,-162.76 477.86,-178.49"/>
<polygon fill="#9a32cd" stroke="#9a32cd" points="268.7,-90.77 259.04,-95.12 269.3,-97.74 268.7,-90.77"/>
<text text-anchor="middle" x="368.5" y="-121.22" font-family="Helvetica,sans-Serif" font-size="10.00"> user_limit</text>
</g>
<!-- Node9 -->
<g id="node9" class="node">
<title>Node9</title>
<g id="a_node9"><a xlink:title=" ">
<polygon fill="white" stroke="#bfbfbf" points="210,-50.72 210,-69.72 258,-69.72 258,-50.72 210,-50.72"/>
<text text-anchor="middle" x="234" y="-57.72" font-family="Helvetica,sans-Serif" font-size="10.00">time_t</text>
</a>
</g>
</g>
<!-- Node9&#45;&gt;Node1 -->
<g id="edge9" class="edge">
<title>Node9&#45;&gt;Node1</title>
<path fill="none" stroke="#9a32cd" stroke-dasharray="5,2" d="M268.18,-54.35C309,-49 378.68,-46.18 426,-78.22 461.73,-102.41 476.18,-156.43 480.75,-178.52"/>
<polygon fill="#9a32cd" stroke="#9a32cd" points="267.62,-50.89 258.22,-55.78 268.61,-57.82 267.62,-50.89"/>
<text text-anchor="middle" x="368.5" y="-81.22" font-family="Helvetica,sans-Serif" font-size="10.00"> last_pin_timestamp</text>
</g>
<!-- Node10 -->
<g id="node10" class="node">
<title>Node10</title>
<g id="a_node10"><a xlink:title=" ">
<polygon fill="white" stroke="#bfbfbf" points="206,-7.72 206,-26.72 262,-26.72 262,-7.72 206,-7.72"/>
<text text-anchor="middle" x="234" y="-14.72" font-family="Helvetica,sans-Serif" font-size="10.00">vector&lt;</text>
</a>
</g>
</g>
<!-- Node10&#45;&gt;Node1 -->
<g id="edge10" class="edge">
<title>Node10&#45;&gt;Node1</title>
<path fill="none" stroke="#9a32cd" stroke-dasharray="5,2" d="M272.18,-7.43C313.91,1.2 381.56,7.83 426,-25.22 476.71,-62.93 482.21,-149.21 482.58,-178.38"/>
<polygon fill="#9a32cd" stroke="#9a32cd" points="271.17,-4.07 262.16,-9.65 272.68,-10.91 271.17,-4.07"/>
<text text-anchor="middle" x="368.5" y="-39.22" font-family="Helvetica,sans-Serif" font-size="10.00"> permission_overwrites</text>
<text text-anchor="middle" x="368.5" y="-28.22" font-family="Helvetica,sans-Serif" font-size="10.00">recipients</text>
</g>
<!-- Node11&#45;&gt;Node1 -->
<g id="edge11" class="edge">
<title>Node11&#45;&gt;Node1</title>
<path fill="none" stroke="#9a32cd" stroke-dasharray="5,2" d="M303.13,-287.54C349.36,-284 405.63,-277.33 426,-265.22 453.08,-249.12 471.08,-214.5 478.57,-197.72"/>
<polygon fill="#9a32cd" stroke="#9a32cd" points="302.85,-284.05 293.13,-288.27 303.36,-291.03 302.85,-284.05"/>
<text text-anchor="middle" x="368.5" y="-300.22" font-family="Helvetica,sans-Serif" font-size="10.00"> banner</text>
<text text-anchor="middle" x="368.5" y="-289.22" font-family="Helvetica,sans-Serif" font-size="10.00">icon</text>
</g>
</g>
</svg>
