<?xml version="1.0" encoding="UTF-8" standalone="no"?>
<!DOCTYPE svg PUBLIC "-//W3C//DTD SVG 1.1//EN"
 "http://www.w3.org/Graphics/SVG/1.1/DTD/svg11.dtd">
<!-- Generated by graphviz version 2.38.0 (20140413.2041)
 -->
<!-- Title: dpp::channel Pages: 1 -->
<!--zoomable 252 -->
<svg id="main" version="1.1" xmlns="http://www.w3.org/2000/svg" xmlns:xlink="http://www.w3.org/1999/xlink" xml:space="preserve" onload="init(evt)">
<style type="text/css"><![CDATA[
.edge:hover path { stroke: red; }
.edge:hover polygon { stroke: red; fill: red; }
]]></style>
<script type="text/javascript"><![CDATA[
var edges = document.getElementsByTagName('g');
if (edges && edges.length) {
  for (var i=0;i<edges.length;i++) {
    if (edges[i].id.substr(0,4)=='edge') {
      edges[i].setAttribute('class','edge');
    }
  }
}
]]></script>
        <defs>
                <circle id="rim" cx="0" cy="0" r="7"/>
                <circle id="rim2" cx="0" cy="0" r="3.5"/>
                <g id="zoomPlus">
                        <use xlink:href="#rim" fill="#404040">
                                <set attributeName="fill" to="#808080" begin="zoomplus.mouseover" end="zoomplus.mouseout"/>
                        </use>
                        <path d="M-4,0h8M0,-4v8" fill="none" stroke="white" stroke-width="1.5" pointer-events="none"/>
                </g>
                <g id="zoomMin">
                        <use xlink:href="#rim" fill="#404040">
                                <set attributeName="fill" to="#808080" begin="zoomminus.mouseover" end="zoomminus.mouseout"/>
                        </use>
                        <path d="M-4,0h8" fill="none" stroke="white" stroke-width="1.5" pointer-events="none"/>
                </g>
                <g id="dirArrow">
                        <path fill="none" stroke="white" stroke-width="1.5" d="M0,-3.0v7 M-2.5,-0.5L0,-3.0L2.5,-0.5"/>
                </g>
               <g id="resetDef">
                       <use xlink:href="#rim2" fill="#404040">
                               <set attributeName="fill" to="#808080" begin="reset.mouseover" end="reset.mouseout"/>
                       </use>
               </g>
        </defs>

<script type="text/javascript">
var viewWidth = 889;
var viewHeight = 252;
var sectionId = 'dynsection-1';
</script>
<script xlink:href="svgpan.js"/>
<svg id="graph" class="graph">
<g id="viewport">
<title>dpp::channel</title>
<polygon fill="white" stroke="none" points="-4,4 -4,-248 885.331,-248 885.331,4 -4,4"/>
<!-- Node1 -->
<g id="node1" class="node"><title>Node1</title>
<g id="a_node1"><a xlink:title="A definition of a discord channel.">
<polygon fill="#bfbfbf" stroke="black" points="300.331,-0.5 300.331,-19.5 372.331,-19.5 372.331,-0.5 300.331,-0.5"/>
<text text-anchor="middle" x="336.331" y="-7.5" font-family="Helvetica,sans-Serif" font-size="10.00">dpp::channel</text>
</a>
</g>
</g>
<!-- Node2 -->
<g id="node2" class="node"><title>Node2</title>
<g id="a_node2"><a xlink:href="classdpp_1_1managed.html" target="_top" xlink:title="The managed class is the base class for various types that can be stored in a cache that are identifi...">
<polygon fill="white" stroke="black" points="92.3311,-112.5 92.3311,-131.5 170.331,-131.5 170.331,-112.5 92.3311,-112.5"/>
<text text-anchor="middle" x="131.331" y="-119.5" font-family="Helvetica,sans-Serif" font-size="10.00">dpp::managed</text>
</a>
</g>
</g>
<!-- Node2&#45;&gt;Node1 -->
<g id="edge1" class="edge"><title>Node2&#45;&gt;Node1</title>
<path fill="none" stroke="midnightblue" d="M139.453,-103.048C149.166,-83.75 167.306,-53.7308 192.331,-38 224.956,-17.4924 269.398,-11.8014 300.245,-10.5724"/>
<polygon fill="midnightblue" stroke="midnightblue" points="136.2,-101.738 135.042,-112.269 142.515,-104.759 136.2,-101.738"/>
</g>
<!-- Node3 -->
<g id="node3" class="node"><title>Node3</title>
<g id="a_node3"><a xlink:title=" ">
<polygon fill="white" stroke="#bfbfbf" points="15.8311,-219 15.8311,-238 66.8311,-238 66.8311,-219 15.8311,-219"/>
<text text-anchor="middle" x="41.3311" y="-226" font-family="Helvetica,sans-Serif" font-size="10.00">uint64_t</text>
</a>
</g>
</g>
<!-- Node3&#45;&gt;Node1 -->
<g id="edge4" class="edge"><title>Node3&#45;&gt;Node1</title>
<path fill="none" stroke="#9a32cd" stroke-dasharray="5,2" d="M29.0896,-210.292C12.3184,-184.398 -13.2866,-134.753 9.33112,-100 46.4508,-42.9645 83.9333,-56.8158 149.331,-38 200.556,-23.2619 262.097,-16.3552 300.217,-13.2761"/>
<polygon fill="#9a32cd" stroke="#9a32cd" points="26.2634,-212.36 34.7631,-218.685 32.0628,-208.44 26.2634,-212.36"/>
<text text-anchor="middle" x="46.3311" y="-136" font-family="Helvetica,sans-Serif" font-size="10.00"> guild_id</text>
<text text-anchor="middle" x="46.3311" y="-125" font-family="Helvetica,sans-Serif" font-size="10.00">last_message_id</text>
<text text-anchor="middle" x="46.3311" y="-114" font-family="Helvetica,sans-Serif" font-size="10.00">owner_id</text>
<text text-anchor="middle" x="46.3311" y="-103" font-family="Helvetica,sans-Serif" font-size="10.00">parent_id</text>
</g>
<!-- Node3&#45;&gt;Node2 -->
<g id="edge2" class="edge"><title>Node3&#45;&gt;Node2</title>
<path fill="none" stroke="#9a32cd" stroke-dasharray="5,2" d="M55.3016,-211.279C74.6213,-188.846 108.813,-149.146 123.864,-131.67"/>
<polygon fill="#9a32cd" stroke="#9a32cd" points="52.57,-209.087 48.6962,-218.948 57.8741,-213.655 52.57,-209.087"/>
<text text-anchor="middle" x="102.831" y="-176" font-family="Helvetica,sans-Serif" font-size="10.00"> id</text>
</g>
<!-- Node4 -->
<g id="node4" class="node"><title>Node4</title>
<g id="a_node4"><a xlink:title=" ">
<polygon fill="white" stroke="#bfbfbf" points="188.331,-112.5 188.331,-131.5 234.331,-131.5 234.331,-112.5 188.331,-112.5"/>
<text text-anchor="middle" x="211.331" y="-119.5" font-family="Helvetica,sans-Serif" font-size="10.00">uint8_t</text>
</a>
</g>
</g>
<!-- Node4&#45;&gt;Node1 -->
<g id="edge3" class="edge"><title>Node4&#45;&gt;Node1</title>
<path fill="none" stroke="#9a32cd" stroke-dasharray="5,2" d="M203.529,-103.015C196.883,-84.593 190.538,-56.1533 205.331,-38 217.103,-23.5542 265.606,-16.6092 300.156,-13.4379"/>
<polygon fill="#9a32cd" stroke="#9a32cd" points="200.28,-104.316 207.22,-112.321 206.786,-101.735 200.28,-104.316"/>
<text text-anchor="middle" x="240.331" y="-74" font-family="Helvetica,sans-Serif" font-size="10.00"> flags</text>
<text text-anchor="middle" x="240.331" y="-63" font-family="Helvetica,sans-Serif" font-size="10.00">member_count</text>
<text text-anchor="middle" x="240.331" y="-52" font-family="Helvetica,sans-Serif" font-size="10.00">message_count</text>
<text text-anchor="middle" x="240.331" y="-41" font-family="Helvetica,sans-Serif" font-size="10.00">user_limit</text>
</g>
<!-- Node5 -->
<g id="node5" class="node"><title>Node5</title>
<g id="a_node5"><a xlink:title=" ">
<polygon fill="white" stroke="#bfbfbf" points="273.831,-219 273.831,-238 324.831,-238 324.831,-219 273.831,-219"/>
<text text-anchor="middle" x="299.331" y="-226" font-family="Helvetica,sans-Serif" font-size="10.00">uint16_t</text>
</a>
</g>
</g>
<!-- Node5&#45;&gt;Node1 -->
<g id="edge5" class="edge"><title>Node5&#45;&gt;Node1</title>
<path fill="none" stroke="#9a32cd" stroke-dasharray="5,2" d="M295.035,-208.704C290.028,-183.577 283.494,-137.815 292.331,-100 299.705,-68.4455 319.978,-35.2384 330.228,-19.8235"/>
<polygon fill="#9a32cd" stroke="#9a32cd" points="291.657,-209.646 297.168,-218.695 298.503,-208.184 291.657,-209.646"/>
<text text-anchor="middle" x="333.831" y="-125" font-family="Helvetica,sans-Serif" font-size="10.00"> position</text>
<text text-anchor="middle" x="333.831" y="-114" font-family="Helvetica,sans-Serif" font-size="10.00">rate_limit_per_user</text>
</g>
<!-- Node10 -->
<g id="node10" class="node"><title>Node10</title>
<g id="a_node10"><a xlink:href="structdpp_1_1thread__metadata.html" target="_top" xlink:title="metadata for threads">
<polygon fill="white" stroke="black" points="384.831,-112.5 384.831,-131.5 495.831,-131.5 495.831,-112.5 384.831,-112.5"/>
<text text-anchor="middle" x="440.331" y="-119.5" font-family="Helvetica,sans-Serif" font-size="10.00">dpp::thread_metadata</text>
</a>
</g>
</g>
<!-- Node5&#45;&gt;Node10 -->
<g id="edge13" class="edge"><title>Node5&#45;&gt;Node10</title>
<path fill="none" stroke="#9a32cd" stroke-dasharray="5,2" d="M305.681,-209.091C311.563,-194.511 321.637,-174.571 336.331,-162 347.834,-152.16 384.343,-139.721 410.861,-131.571"/>
<polygon fill="#9a32cd" stroke="#9a32cd" points="302.357,-207.986 302.132,-218.578 308.914,-210.438 302.357,-207.986"/>
<text text-anchor="middle" x="385.831" y="-176" font-family="Helvetica,sans-Serif" font-size="10.00"> auto_archive_duration</text>
</g>
<!-- Node6 -->
<g id="node6" class="node"><title>Node6</title>
<g id="a_node6"><a xlink:title=" ">
<polygon fill="white" stroke="#bfbfbf" points="708.331,-112.5 708.331,-131.5 768.331,-131.5 768.331,-112.5 708.331,-112.5"/>
<text text-anchor="middle" x="738.331" y="-119.5" font-family="Helvetica,sans-Serif" font-size="10.00">std::string</text>
</a>
</g>
</g>
<!-- Node6&#45;&gt;Node1 -->
<g id="edge6" class="edge"><title>Node6&#45;&gt;Node1</title>
<path fill="none" stroke="#9a32cd" stroke-dasharray="5,2" d="M721.624,-105.502C699.451,-85.972 658.203,-53.1313 616.331,-38 572.411,-22.1286 437.842,-14.9022 372.578,-12.262"/>
<polygon fill="#9a32cd" stroke="#9a32cd" points="719.374,-108.186 729.149,-112.271 724.055,-102.982 719.374,-108.186"/>
<text text-anchor="middle" x="706.331" y="-63" font-family="Helvetica,sans-Serif" font-size="10.00"> name</text>
<text text-anchor="middle" x="706.331" y="-52" font-family="Helvetica,sans-Serif" font-size="10.00">topic</text>
</g>
<!-- Node7 -->
<g id="node7" class="node"><title>Node7</title>
<g id="a_node7"><a xlink:title=" ">
<polygon fill="white" stroke="#bfbfbf" points="690.831,-213.5 690.831,-243.5 785.831,-243.5 785.831,-213.5 690.831,-213.5"/>
<text text-anchor="start" x="698.831" y="-231.5" font-family="Helvetica,sans-Serif" font-size="10.00">std::basic_string&lt;</text>
<text text-anchor="middle" x="738.331" y="-220.5" font-family="Helvetica,sans-Serif" font-size="10.00"> Char &gt;</text>
</a>
</g>
</g>
<!-- Node7&#45;&gt;Node6 -->
<g id="edge7" class="edge"><title>Node7&#45;&gt;Node6</title>
<path fill="none" stroke="midnightblue" d="M738.331,-203.095C738.331,-180.195 738.331,-147.213 738.331,-131.695"/>
<polygon fill="midnightblue" stroke="midnightblue" points="734.831,-203.407 738.331,-213.407 741.831,-203.407 734.831,-203.407"/>
</g>
<!-- Node8 -->
<g id="node8" class="node"><title>Node8</title>
<g id="a_node8"><a xlink:title=" ">
<polygon fill="white" stroke="#bfbfbf" points="529.331,-219 529.331,-238 573.331,-238 573.331,-219 529.331,-219"/>
<text text-anchor="middle" x="551.331" y="-226" font-family="Helvetica,sans-Serif" font-size="10.00">time_t</text>
</a>
</g>
</g>
<!-- Node8&#45;&gt;Node1 -->
<g id="edge8" class="edge"><title>Node8&#45;&gt;Node1</title>
<path fill="none" stroke="#9a32cd" stroke-dasharray="5,2" d="M574.339,-212.627C579.967,-207.747 585.252,-201.803 588.331,-195 594.379,-181.638 594.327,-175.385 588.331,-162 554.484,-86.4479 522.706,-76.3383 449.331,-38 425.376,-25.4834 395.538,-18.6725 372.54,-15.0235"/>
<polygon fill="#9a32cd" stroke="#9a32cd" points="571.859,-210.119 566.067,-218.99 576.127,-215.667 571.859,-210.119"/>
<text text-anchor="middle" x="623.331" y="-119.5" font-family="Helvetica,sans-Serif" font-size="10.00"> last_pin_timestamp</text>
</g>
<!-- Node8&#45;&gt;Node10 -->
<g id="edge12" class="edge"><title>Node8&#45;&gt;Node10</title>
<path fill="none" stroke="#9a32cd" stroke-dasharray="5,2" d="M526.654,-213.697C518.417,-208.446 509.516,-202.021 502.331,-195 489.545,-182.505 490.808,-175.707 479.331,-162 469.988,-150.84 457.991,-139.184 449.785,-131.555"/>
<polygon fill="#9a32cd" stroke="#9a32cd" points="524.855,-216.7 535.218,-218.905 528.493,-210.719 524.855,-216.7"/>
<text text-anchor="middle" x="545.331" y="-176" font-family="Helvetica,sans-Serif" font-size="10.00"> archive_timestamp</text>
</g>
<!-- Node9 -->
<g id="node9" class="node"><title>Node9</title>
<g id="a_node9"><a xlink:title=" ">
<polygon fill="white" stroke="#bfbfbf" points="786.331,-112.5 786.331,-131.5 836.331,-131.5 836.331,-112.5 786.331,-112.5"/>
<text text-anchor="middle" x="811.331" y="-119.5" font-family="Helvetica,sans-Serif" font-size="10.00">vector&lt;</text>
</a>
</g>
</g>
<!-- Node9&#45;&gt;Node1 -->
<g id="edge9" class="edge"><title>Node9&#45;&gt;Node1</title>
<path fill="none" stroke="#9a32cd" stroke-dasharray="5,2" d="M799.684,-104.336C784.782,-84.5435 756.957,-52.4007 724.331,-38 661.939,-10.4607 456.433,-9.57111 372.511,-10.4212"/>
<polygon fill="#9a32cd" stroke="#9a32cd" points="796.878,-106.428 805.593,-112.452 802.537,-102.308 796.878,-106.428"/>
<text text-anchor="middle" x="830.831" y="-63" font-family="Helvetica,sans-Serif" font-size="10.00"> permission_overwrites</text>
<text text-anchor="middle" x="830.831" y="-52" font-family="Helvetica,sans-Serif" font-size="10.00">recipients</text>
</g>
<!-- Node10&#45;&gt;Node1 -->
<g id="edge10" class="edge"><title>Node10&#45;&gt;Node1</title>
<path fill="none" stroke="#9a32cd" stroke-dasharray="5,2" d="M425.106,-104.897C402.748,-81.2486 361.81,-37.9493 344.454,-19.5914"/>
<polygon fill="#9a32cd" stroke="#9a32cd" points="422.757,-107.507 432.17,-112.368 427.844,-102.697 422.757,-107.507"/>
<text text-anchor="middle" x="423.331" y="-57.5" font-family="Helvetica,sans-Serif" font-size="10.00"> metadata</text>
</g>
<!-- Node11 -->
<g id="node11" class="node"><title>Node11</title>
<g id="a_node11"><a xlink:title=" ">
<polygon fill="white" stroke="#bfbfbf" points="420.831,-219 420.831,-238 455.831,-238 455.831,-219 420.831,-219"/>
<text text-anchor="middle" x="438.331" y="-226" font-family="Helvetica,sans-Serif" font-size="10.00">bool</text>
</a>
</g>
</g>
<!-- Node11&#45;&gt;Node10 -->
<g id="edge11" class="edge"><title>Node11&#45;&gt;Node10</title>
<path fill="none" stroke="#9a32cd" stroke-dasharray="5,2" d="M438.569,-208.488C438.746,-195.414 439.011,-177.654 439.331,-162 439.544,-151.572 439.863,-139.577 440.083,-131.674"/>
<polygon fill="#9a32cd" stroke="#9a32cd" points="435.068,-208.555 438.438,-218.6 442.068,-208.647 435.068,-208.555"/>
<text text-anchor="middle" x="459.331" y="-187" font-family="Helvetica,sans-Serif" font-size="10.00"> archived</text>
<text text-anchor="middle" x="459.331" y="-176" font-family="Helvetica,sans-Serif" font-size="10.00">invitable</text>
<text text-anchor="middle" x="459.331" y="-165" font-family="Helvetica,sans-Serif" font-size="10.00">locked</text>
</g>
</g>
</svg>
        <g id="navigator" transform="translate(0 0)" fill="#404254">
                <rect fill="#f2f5e9" fill-opacity="0.5" stroke="#606060" stroke-width=".5" x="0" y="0" width="60" height="60"/>
                <use id="zoomplus" xlink:href="#zoomPlus" x="17" y="9" onmousedown="handleZoom(evt,'in')"/>
                <use id="zoomminus" xlink:href="#zoomMin" x="42" y="9" onmousedown="handleZoom(evt,'out')"/>
                <use id="reset" xlink:href="#resetDef" x="30" y="36" onmousedown="handleReset()"/>
                <g id="arrowUp" xlink:href="#dirArrow" transform="translate(30 24)" onmousedown="handlePan(0,-1)">
                  <use xlink:href="#rim" fill="#404040">
                        <set attributeName="fill" to="#808080" begin="arrowUp.mouseover" end="arrowUp.mouseout"/>
                  </use>
                  <path fill="none" stroke="white" stroke-width="1.5" d="M0,-3.0v7 M-2.5,-0.5L0,-3.0L2.5,-0.5"/>
                </g>
                <g id="arrowRight" xlink:href="#dirArrow" transform="rotate(90) translate(36 -43)" onmousedown="handlePan(1,0)">
                  <use xlink:href="#rim" fill="#404040">
                        <set attributeName="fill" to="#808080" begin="arrowRight.mouseover" end="arrowRight.mouseout"/>
                  </use>
                  <path fill="none" stroke="white" stroke-width="1.5" d="M0,-3.0v7 M-2.5,-0.5L0,-3.0L2.5,-0.5"/>
                </g>
                <g id="arrowDown" xlink:href="#dirArrow" transform="rotate(180) translate(-30 -48)" onmousedown="handlePan(0,1)">
                  <use xlink:href="#rim" fill="#404040">
                        <set attributeName="fill" to="#808080" begin="arrowDown.mouseover" end="arrowDown.mouseout"/>
                  </use>
                  <path fill="none" stroke="white" stroke-width="1.5" d="M0,-3.0v7 M-2.5,-0.5L0,-3.0L2.5,-0.5"/>
                </g>
                <g id="arrowLeft" xlink:href="#dirArrow" transform="rotate(270) translate(-36 17)" onmousedown="handlePan(-1,0)">
                  <use xlink:href="#rim" fill="#404040">
                        <set attributeName="fill" to="#808080" begin="arrowLeft.mouseover" end="arrowLeft.mouseout"/>
                  </use>
                  <path fill="none" stroke="white" stroke-width="1.5" d="M0,-3.0v7 M-2.5,-0.5L0,-3.0L2.5,-0.5"/>
                </g>
        </g>
        <svg viewBox="0 0 15 15" width="100%" height="30px" preserveAspectRatio="xMaxYMin meet">
         <g id="arrow_out" transform="scale(0.3 0.3)">
          <a xlink:href="classdpp_1_1channel__coll__graph_org.svg" target="_base">
           <rect id="button" ry="5" rx="5" y="6" x="6" height="38" width="38"
                fill="#f2f5e9" fill-opacity="0.5" stroke="#606060" stroke-width="1.0"/>
           <path id="arrow"
             d="M 11.500037,31.436501 C 11.940474,20.09759 22.043105,11.32322 32.158766,21.979434 L 37.068811,17.246167 C 37.068811,17.246167 37.088388,32 37.088388,32 L 22.160133,31.978069 C 22.160133,31.978069 26.997745,27.140456 26.997745,27.140456 C 18.528582,18.264221 13.291696,25.230495 11.500037,31.436501 z"
             style="fill:#404040;"/>
          </a>
         </g>
        </svg>
</svg>
