<?xml version="1.0" encoding="UTF-8" standalone="no"?>
<!DOCTYPE svg PUBLIC "-//W3C//DTD SVG 1.1//EN"
 "http://www.w3.org/Graphics/SVG/1.1/DTD/svg11.dtd">
<!-- Generated by graphviz version 2.43.0 (0)
 -->
<!-- Title: dpp::user Pages: 1 -->
<svg width="703pt" height="288pt"
 viewBox="0.00 0.00 703.00 288.00" xmlns="http://www.w3.org/2000/svg" xmlns:xlink="http://www.w3.org/1999/xlink">
<g id="graph0" class="graph" transform="scale(1 1) rotate(0) translate(4 284)">
<title>dpp::user</title>
<!-- Node1 -->
<g id="node1" class="node">
<title>Node1</title>
<g id="a_node1"><a xlink:title="Represents a user on discord. May or may not be a member of a dpp::guild.">
<polygon fill="#bfbfbf" stroke="black" points="633,-114.5 633,-133.5 695,-133.5 695,-114.5 633,-114.5"/>
<text text-anchor="middle" x="664" y="-121.5" font-family="Helvetica,sans-Serif" font-size="10.00">dpp::user</text>
</a>
</g>
</g>
<!-- Node2 -->
<g id="node2" class="node">
<title>Node2</title>
<g id="a_node2"><a xlink:href="classdpp_1_1managed.html" target="_top" xlink:title="The managed class is the base class for various types that can be stored in a cache that are identifi...">
<polygon fill="none" stroke="black" points="431,-260.5 431,-279.5 517,-279.5 517,-260.5 431,-260.5"/>
<text text-anchor="middle" x="474" y="-267.5" font-family="Helvetica,sans-Serif" font-size="10.00">dpp::managed</text>
</a>
</g>
</g>
<!-- Node2&#45;&gt;Node1 -->
<g id="edge1" class="edge">
<title>Node2&#45;&gt;Node1</title>
<path fill="none" stroke="midnightblue" d="M527.4,-267.52C556.14,-263.68 590.75,-254.65 615,-234 646.72,-206.98 658.18,-155.04 661.67,-133.61"/>
<polygon fill="midnightblue" stroke="midnightblue" points="526.63,-264.09 517.1,-268.72 527.44,-271.04 526.63,-264.09"/>
</g>
<!-- Node3 -->
<g id="node3" class="node">
<title>Node3</title>
<g id="a_node3"><a xlink:href="classdpp_1_1snowflake.html" target="_top" xlink:title="A container for a 64 bit unsigned value representing many things on discord. This value is known in d...">
<polygon fill="none" stroke="black" points="151.5,-258.5 151.5,-277.5 240.5,-277.5 240.5,-258.5 151.5,-258.5"/>
<text text-anchor="middle" x="196" y="-265.5" font-family="Helvetica,sans-Serif" font-size="10.00">dpp::snowflake</text>
</a>
</g>
</g>
<!-- Node3&#45;&gt;Node2 -->
<g id="edge2" class="edge">
<title>Node3&#45;&gt;Node2</title>
<path fill="none" stroke="#9a32cd" stroke-dasharray="5,2" d="M250.89,-268.39C303.55,-268.77 382.61,-269.34 430.83,-269.69"/>
<polygon fill="#9a32cd" stroke="#9a32cd" points="250.76,-264.89 240.73,-268.32 250.71,-271.89 250.76,-264.89"/>
<text text-anchor="middle" x="342" y="-272" font-family="Helvetica,sans-Serif" font-size="10.00"> id</text>
</g>
<!-- Node4 -->
<g id="node4" class="node">
<title>Node4</title>
<g id="a_node4"><a xlink:title=" ">
<polygon fill="none" stroke="#bfbfbf" points="0,-234.5 0,-253.5 56,-253.5 56,-234.5 0,-234.5"/>
<text text-anchor="middle" x="28" y="-241.5" font-family="Helvetica,sans-Serif" font-size="10.00">uint64_t</text>
</a>
</g>
</g>
<!-- Node4&#45;&gt;Node3 -->
<g id="edge3" class="edge">
<title>Node4&#45;&gt;Node3</title>
<path fill="none" stroke="#9a32cd" stroke-dasharray="5,2" d="M65.97,-249.35C91.25,-253 124.85,-257.86 151.43,-261.7"/>
<polygon fill="#9a32cd" stroke="#9a32cd" points="66.44,-245.88 56.04,-247.91 65.44,-252.8 66.44,-245.88"/>
<text text-anchor="middle" x="91.5" y="-258" font-family="Helvetica,sans-Serif" font-size="10.00"> value</text>
</g>
<!-- Node9 -->
<g id="node9" class="node">
<title>Node9</title>
<g id="a_node9"><a xlink:href="structdpp_1_1utility_1_1iconhash.html" target="_top" xlink:title="Store a 128 bit icon hash (profile picture, server icon etc) as a 128 bit binary value made of two ui...">
<polygon fill="none" stroke="black" points="283,-210.5 283,-229.5 401,-229.5 401,-210.5 283,-210.5"/>
<text text-anchor="middle" x="342" y="-217.5" font-family="Helvetica,sans-Serif" font-size="10.00">dpp::utility::iconhash</text>
</a>
</g>
</g>
<!-- Node4&#45;&gt;Node9 -->
<g id="edge9" class="edge">
<title>Node4&#45;&gt;Node9</title>
<path fill="none" stroke="#9a32cd" stroke-dasharray="5,2" d="M56.85,-230.32C62.41,-228.14 68.3,-226.21 74,-225 144.75,-209.99 228.42,-211.41 282.99,-214.82"/>
<polygon fill="#9a32cd" stroke="#9a32cd" points="55.13,-227.25 47.31,-234.4 57.88,-233.68 55.13,-227.25"/>
<text text-anchor="middle" x="91.5" y="-239" font-family="Helvetica,sans-Serif" font-size="10.00"> first</text>
<text text-anchor="middle" x="91.5" y="-228" font-family="Helvetica,sans-Serif" font-size="10.00">second</text>
</g>
<!-- Node5 -->
<g id="node5" class="node">
<title>Node5</title>
<g id="a_node5"><a xlink:href="structdpp_1_1json__interface.html" target="_top" xlink:title=" ">
<polygon fill="none" stroke="black" points="419,-153 419,-183 529,-183 529,-153 419,-153"/>
<text text-anchor="start" x="427" y="-171" font-family="Helvetica,sans-Serif" font-size="10.00">dpp::json_interface</text>
<text text-anchor="middle" x="474" y="-160" font-family="Helvetica,sans-Serif" font-size="10.00">&lt; user &gt;</text>
</a>
</g>
</g>
<!-- Node5&#45;&gt;Node1 -->
<g id="edge4" class="edge">
<title>Node5&#45;&gt;Node1</title>
<path fill="none" stroke="midnightblue" d="M539.33,-164.72C563.49,-162.2 590.92,-157.77 615,-150 626.91,-146.16 639.3,-139.37 648.5,-133.69"/>
<polygon fill="midnightblue" stroke="midnightblue" points="538.82,-161.25 529.2,-165.69 539.48,-168.22 538.82,-161.25"/>
</g>
<!-- Node6 -->
<g id="node6" class="node">
<title>Node6</title>
<g id="a_node6"><a xlink:href="structdpp_1_1json__interface.html" target="_top" xlink:title="Represents an interface for an object that can optionally implement functions for converting to and f...">
<polygon fill="none" stroke="black" points="127,-158.5 127,-177.5 265,-177.5 265,-158.5 127,-158.5"/>
<text text-anchor="middle" x="196" y="-165.5" font-family="Helvetica,sans-Serif" font-size="10.00">dpp::json_interface&lt; T &gt;</text>
</a>
</g>
</g>
<!-- Node6&#45;&gt;Node5 -->
<g id="edge5" class="edge">
<title>Node6&#45;&gt;Node5</title>
<path fill="none" stroke="orange" stroke-dasharray="5,2" d="M275.44,-168C321.31,-168 378.05,-168 418.94,-168"/>
<polygon fill="orange" stroke="orange" points="275.22,-164.5 265.22,-168 275.22,-171.5 275.22,-164.5"/>
<text text-anchor="middle" x="342" y="-171" font-family="Helvetica,sans-Serif" font-size="10.00"> &lt; user &gt;</text>
</g>
<!-- Node7 -->
<g id="node7" class="node">
<title>Node7</title>
<g id="a_node7"><a xlink:title=" ">
<polygon fill="none" stroke="#bfbfbf" points="441.5,-114.5 441.5,-133.5 506.5,-133.5 506.5,-114.5 441.5,-114.5"/>
<text text-anchor="middle" x="474" y="-121.5" font-family="Helvetica,sans-Serif" font-size="10.00">std::string</text>
</a>
</g>
</g>
<!-- Node7&#45;&gt;Node1 -->
<g id="edge6" class="edge">
<title>Node7&#45;&gt;Node1</title>
<path fill="none" stroke="#9a32cd" stroke-dasharray="5,2" d="M517.31,-124C552.44,-124 601.56,-124 632.82,-124"/>
<polygon fill="#9a32cd" stroke="#9a32cd" points="516.89,-120.5 506.89,-124 516.89,-127.5 516.89,-120.5"/>
<text text-anchor="middle" x="581" y="-138" font-family="Helvetica,sans-Serif" font-size="10.00"> global_name</text>
<text text-anchor="middle" x="581" y="-127" font-family="Helvetica,sans-Serif" font-size="10.00">username</text>
</g>
<!-- Node8 -->
<g id="node8" class="node">
<title>Node8</title>
<g id="a_node8"><a xlink:title=" ">
<polygon fill="none" stroke="#bfbfbf" points="144,-109 144,-139 248,-139 248,-109 144,-109"/>
<text text-anchor="start" x="152" y="-127" font-family="Helvetica,sans-Serif" font-size="10.00">std::basic_string&lt;</text>
<text text-anchor="middle" x="196" y="-116" font-family="Helvetica,sans-Serif" font-size="10.00"> Char &gt;</text>
</a>
</g>
</g>
<!-- Node8&#45;&gt;Node7 -->
<g id="edge7" class="edge">
<title>Node8&#45;&gt;Node7</title>
<path fill="none" stroke="midnightblue" d="M258.54,-124C315.18,-124 396.93,-124 441.36,-124"/>
<polygon fill="midnightblue" stroke="midnightblue" points="258.27,-120.5 248.27,-124 258.27,-127.5 258.27,-120.5"/>
</g>
<!-- Node9&#45;&gt;Node1 -->
<g id="edge8" class="edge">
<title>Node9&#45;&gt;Node1</title>
<path fill="none" stroke="#9a32cd" stroke-dasharray="5,2" d="M411.2,-219.6C468.87,-216.53 551.95,-205.5 615,-170 631.7,-160.6 646.92,-144.05 655.56,-133.57"/>
<polygon fill="#9a32cd" stroke="#9a32cd" points="410.92,-216.11 401.09,-220.07 411.24,-223.1 410.92,-216.11"/>
<text text-anchor="middle" x="474" y="-233" font-family="Helvetica,sans-Serif" font-size="10.00"> avatar</text>
<text text-anchor="middle" x="474" y="-222" font-family="Helvetica,sans-Serif" font-size="10.00">avatar_decoration</text>
</g>
<!-- Node10 -->
<g id="node10" class="node">
<title>Node10</title>
<g id="a_node10"><a xlink:title=" ">
<polygon fill="none" stroke="#bfbfbf" points="446,-76.5 446,-95.5 502,-95.5 502,-76.5 446,-76.5"/>
<text text-anchor="middle" x="474" y="-83.5" font-family="Helvetica,sans-Serif" font-size="10.00">uint32_t</text>
</a>
</g>
</g>
<!-- Node10&#45;&gt;Node1 -->
<g id="edge10" class="edge">
<title>Node10&#45;&gt;Node1</title>
<path fill="none" stroke="#9a32cd" stroke-dasharray="5,2" d="M512.33,-90.68C540.7,-94.59 580.57,-100.84 615,-109 621.46,-110.53 628.31,-112.48 634.76,-114.45"/>
<polygon fill="#9a32cd" stroke="#9a32cd" points="512.44,-87.17 502.06,-89.3 511.5,-94.1 512.44,-87.17"/>
<text text-anchor="middle" x="581" y="-112" font-family="Helvetica,sans-Serif" font-size="10.00"> flags</text>
</g>
<!-- Node11 -->
<g id="node11" class="node">
<title>Node11</title>
<g id="a_node11"><a xlink:title=" ">
<polygon fill="none" stroke="#bfbfbf" points="446,-38.5 446,-57.5 502,-57.5 502,-38.5 446,-38.5"/>
<text text-anchor="middle" x="474" y="-45.5" font-family="Helvetica,sans-Serif" font-size="10.00">uint16_t</text>
</a>
</g>
</g>
<!-- Node11&#45;&gt;Node1 -->
<g id="edge11" class="edge">
<title>Node11&#45;&gt;Node1</title>
<path fill="none" stroke="#9a32cd" stroke-dasharray="5,2" d="M512.34,-52.12C541.57,-56.48 582.57,-65.18 615,-82 630.73,-90.16 645.55,-104.52 654.45,-114.15"/>
<polygon fill="#9a32cd" stroke="#9a32cd" points="512.53,-48.61 502.14,-50.7 511.56,-55.54 512.53,-48.61"/>
<text text-anchor="middle" x="581" y="-85" font-family="Helvetica,sans-Serif" font-size="10.00"> discriminator</text>
</g>
<!-- Node12 -->
<g id="node12" class="node">
<title>Node12</title>
<g id="a_node12"><a xlink:title=" ">
<polygon fill="none" stroke="#bfbfbf" points="449,-0.5 449,-19.5 499,-19.5 499,-0.5 449,-0.5"/>
<text text-anchor="middle" x="474" y="-7.5" font-family="Helvetica,sans-Serif" font-size="10.00">uint8_t</text>
</a>
</g>
</g>
<!-- Node12&#45;&gt;Node1 -->
<g id="edge12" class="edge">
<title>Node12&#45;&gt;Node1</title>
<path fill="none" stroke="#9a32cd" stroke-dasharray="5,2" d="M509.27,-11.03C539.69,-13.52 584,-21.19 615,-44 639.79,-62.24 654.22,-97.47 660.02,-114.43"/>
<polygon fill="#9a32cd" stroke="#9a32cd" points="509.35,-7.52 499.14,-10.34 508.88,-14.51 509.35,-7.52"/>
<text text-anchor="middle" x="581" y="-47" font-family="Helvetica,sans-Serif" font-size="10.00"> refcount</text>
</g>
</g>
</svg>
