<?xml version="1.0" encoding="UTF-8" standalone="no"?>
<!DOCTYPE svg PUBLIC "-//W3C//DTD SVG 1.1//EN"
 "http://www.w3.org/Graphics/SVG/1.1/DTD/svg11.dtd">
<!-- Generated by graphviz version 2.43.0 (0)
 -->
<!-- Title: dpp::guild Pages: 1 -->
<!--zoomable 1108 -->
<svg id="main" version="1.1" xmlns="http://www.w3.org/2000/svg" xmlns:xlink="http://www.w3.org/1999/xlink" xml:space="preserve" onload="init(evt)">
<style type="text/css"><![CDATA[
.edge:hover path { stroke: red; }
.edge:hover polygon { stroke: red; fill: red; }
]]></style>
<script type="text/javascript"><![CDATA[
var edges = document.getElementsByTagName('g');
if (edges && edges.length) {
  for (var i=0;i<edges.length;i++) {
    if (edges[i].id.substr(0,4)=='edge') {
      edges[i].setAttribute('class','edge');
    }
  }
}
]]></script>
        <defs>
                <circle id="rim" cx="0" cy="0" r="7"/>
                <circle id="rim2" cx="0" cy="0" r="3.5"/>
                <g id="zoomPlus">
                        <use xlink:href="#rim" fill="#404040">
                                <set attributeName="fill" to="#808080" begin="zoomplus.mouseover" end="zoomplus.mouseout"/>
                        </use>
                        <path d="M-4,0h8M0,-4v8" fill="none" stroke="white" stroke-width="1.5" pointer-events="none"/>
                </g>
                <g id="zoomMin">
                        <use xlink:href="#rim" fill="#404040">
                                <set attributeName="fill" to="#808080" begin="zoomminus.mouseover" end="zoomminus.mouseout"/>
                        </use>
                        <path d="M-4,0h8" fill="none" stroke="white" stroke-width="1.5" pointer-events="none"/>
                </g>
                <g id="dirArrow">
                        <path fill="none" stroke="white" stroke-width="1.5" d="M0,-3.0v7 M-2.5,-0.5L0,-3.0L2.5,-0.5"/>
                </g>
               <g id="resetDef">
                       <use xlink:href="#rim2" fill="#404040">
                               <set attributeName="fill" to="#808080" begin="reset.mouseover" end="reset.mouseout"/>
                       </use>
               </g>
        </defs>

<script type="text/javascript">
var viewWidth = 1264;
var viewHeight = 1108;
var sectionId = 'dynsection-1';
</script>
<script xlink:href="svgpan.js"/>
<svg id="graph" class="graph">
<g id="viewport">
<title>dpp::guild</title>
<!-- Node1 -->
<g id="node1" class="node">
<title>Node1</title>
<g id="a_node1"><a xlink:title="Represents a guild on Discord (AKA a server)">
<polygon fill="#bfbfbf" stroke="black" points="1191,-378.21 1191,-397.21 1256,-397.21 1256,-378.21 1191,-378.21"/>
<text text-anchor="middle" x="1223.5" y="-385.21" font-family="Helvetica,sans-Serif" font-size="10.00">dpp::guild</text>
</a>
</g>
</g>
<!-- Node2 -->
<g id="node2" class="node">
<title>Node2</title>
<g id="a_node2"><a xlink:href="classdpp_1_1managed.html" target="_top" xlink:title="The managed class is the base class for various types that can be stored in a cache that are identifi...">
<polygon fill="none" stroke="black" points="716.5,-435.21 716.5,-454.21 802.5,-454.21 802.5,-435.21 716.5,-435.21"/>
<text text-anchor="middle" x="759.5" y="-442.21" font-family="Helvetica,sans-Serif" font-size="10.00">dpp::managed</text>
</a>
</g>
</g>
<!-- Node2&#45;&gt;Node1 -->
<g id="edge1" class="edge">
<title>Node2&#45;&gt;Node1</title>
<path fill="none" stroke="midnightblue" d="M812.96,-452.75C893.4,-462.86 1050.72,-473.8 1173,-427.71 1189.75,-421.4 1205.12,-407.06 1214.15,-397.38"/>
<polygon fill="midnightblue" stroke="midnightblue" points="812.97,-449.22 802.6,-451.4 812.06,-456.16 812.97,-449.22"/>
</g>
<!-- Node3 -->
<g id="node3" class="node">
<title>Node3</title>
<g id="a_node3"><a xlink:href="classdpp_1_1snowflake.html" target="_top" xlink:title="A container for a 64 bit unsigned value representing many things on discord. This value is known in d...">
<polygon fill="none" stroke="black" points="298,-469.21 298,-488.21 387,-488.21 387,-469.21 298,-469.21"/>
<text text-anchor="middle" x="342.5" y="-476.21" font-family="Helvetica,sans-Serif" font-size="10.00">dpp::snowflake</text>
</a>
</g>
</g>
<!-- Node3&#45;&gt;Node1 -->
<g id="edge31" class="edge">
<title>Node3&#45;&gt;Node1</title>
<path fill="none" stroke="#9a32cd" stroke-dasharray="5,2" d="M397.1,-478.46C509.36,-477.79 777.36,-475.32 1002,-466.71 1078.07,-463.8 1106.32,-493.44 1173,-456.71 1197.02,-443.48 1212.27,-413.05 1218.81,-397.4"/>
<polygon fill="#9a32cd" stroke="#9a32cd" points="397.03,-474.96 387.05,-478.52 397.07,-481.96 397.03,-474.96"/>
<text text-anchor="middle" x="759.5" y="-575.71" font-family="Helvetica,sans-Serif" font-size="10.00"> afk_channel_id</text>
<text text-anchor="middle" x="759.5" y="-564.71" font-family="Helvetica,sans-Serif" font-size="10.00">application_id</text>
<text text-anchor="middle" x="759.5" y="-553.71" font-family="Helvetica,sans-Serif" font-size="10.00">owner_id</text>
<text text-anchor="start" x="705.5" y="-542.71" font-family="Helvetica,sans-Serif" font-size="10.00">public_updates</text>
<text text-anchor="middle" x="759.5" y="-531.71" font-family="Helvetica,sans-Serif" font-size="10.00">_channel_id</text>
<text text-anchor="middle" x="759.5" y="-520.71" font-family="Helvetica,sans-Serif" font-size="10.00">rules_channel_id</text>
<text text-anchor="start" x="705.5" y="-509.71" font-family="Helvetica,sans-Serif" font-size="10.00">safety_alerts_channel</text>
<text text-anchor="middle" x="759.5" y="-498.71" font-family="Helvetica,sans-Serif" font-size="10.00">_id</text>
<text text-anchor="middle" x="759.5" y="-487.71" font-family="Helvetica,sans-Serif" font-size="10.00">system_channel_id</text>
<text text-anchor="middle" x="759.5" y="-476.71" font-family="Helvetica,sans-Serif" font-size="10.00">widget_channel_id</text>
</g>
<!-- Node3&#45;&gt;Node2 -->
<g id="edge2" class="edge">
<title>Node3&#45;&gt;Node2</title>
<path fill="none" stroke="#9a32cd" stroke-dasharray="5,2" d="M376.93,-465.62C390.41,-460.96 406.23,-456.24 421,-453.71 526.01,-435.76 652.03,-438.76 716.3,-442.01"/>
<polygon fill="#9a32cd" stroke="#9a32cd" points="375.37,-462.46 367.14,-469.14 377.74,-469.05 375.37,-462.46"/>
<text text-anchor="middle" x="484" y="-456.71" font-family="Helvetica,sans-Serif" font-size="10.00"> id</text>
</g>
<!-- Node11 -->
<g id="node11" class="node">
<title>Node11</title>
<g id="a_node11"><a xlink:title=" ">
<polygon fill="none" stroke="#bfbfbf" points="835,-606.71 835,-636.71 999,-636.71 999,-606.71 835,-606.71"/>
<text text-anchor="start" x="843" y="-624.71" font-family="Helvetica,sans-Serif" font-size="10.00">std::unordered_map</text>
<text text-anchor="middle" x="917" y="-613.71" font-family="Helvetica,sans-Serif" font-size="10.00">&lt; snowflake, guild_member &gt;</text>
</a>
</g>
</g>
<!-- Node3&#45;&gt;Node11 -->
<g id="edge11" class="edge">
<title>Node3&#45;&gt;Node11</title>
<path fill="none" stroke="#9a32cd" stroke-dasharray="5,2" d="M397.25,-487.46C447.84,-495.97 519.79,-508.89 547,-517.71 620.76,-541.64 630.69,-569.57 705,-591.71 746.93,-604.21 795.14,-611.56 834.89,-615.86"/>
<polygon fill="#9a32cd" stroke="#9a32cd" points="397.56,-483.96 387.12,-485.76 396.41,-490.87 397.56,-483.96"/>
<text text-anchor="middle" x="626" y="-587.71" font-family="Helvetica,sans-Serif" font-size="10.00"> keys</text>
</g>
<!-- Node12 -->
<g id="node12" class="node">
<title>Node12</title>
<g id="a_node12"><a xlink:href="classdpp_1_1guild__member.html" target="_top" xlink:title="Represents dpp::user membership upon a dpp::guild. This contains the user&#39;s nickname,...">
<polygon fill="none" stroke="black" points="570.5,-629.21 570.5,-648.21 681.5,-648.21 681.5,-629.21 570.5,-629.21"/>
<text text-anchor="middle" x="626" y="-636.21" font-family="Helvetica,sans-Serif" font-size="10.00">dpp::guild_member</text>
</a>
</g>
</g>
<!-- Node3&#45;&gt;Node12 -->
<g id="edge18" class="edge">
<title>Node3&#45;&gt;Node12</title>
<path fill="none" stroke="#9a32cd" stroke-dasharray="5,2" d="M370.6,-492.75C385.25,-499.97 403.82,-508.53 421,-514.71 475.47,-534.32 500.93,-512.66 547,-547.71 559.68,-557.36 555.29,-566.08 565,-578.71 579.91,-598.09 600.71,-617.57 613.5,-628.87"/>
<polygon fill="#9a32cd" stroke="#9a32cd" points="372.1,-489.59 361.59,-488.24 368.96,-495.85 372.1,-489.59"/>
<text text-anchor="middle" x="484" y="-561.71" font-family="Helvetica,sans-Serif" font-size="10.00"> guild_id</text>
<text text-anchor="middle" x="484" y="-550.71" font-family="Helvetica,sans-Serif" font-size="10.00">user_id</text>
</g>
<!-- Node4 -->
<g id="node4" class="node">
<title>Node4</title>
<g id="a_node4"><a xlink:title=" ">
<polygon fill="none" stroke="#bfbfbf" points="41,-439.21 41,-458.21 97,-458.21 97,-439.21 41,-439.21"/>
<text text-anchor="middle" x="69" y="-446.21" font-family="Helvetica,sans-Serif" font-size="10.00">uint64_t</text>
</a>
</g>
</g>
<!-- Node4&#45;&gt;Node3 -->
<g id="edge3" class="edge">
<title>Node4&#45;&gt;Node3</title>
<path fill="none" stroke="#9a32cd" stroke-dasharray="5,2" d="M107.01,-452.8C156.68,-458.29 244.74,-468.02 297.66,-473.87"/>
<polygon fill="#9a32cd" stroke="#9a32cd" points="107.35,-449.32 97.03,-451.7 106.58,-456.28 107.35,-449.32"/>
<text text-anchor="middle" x="210" y="-472.71" font-family="Helvetica,sans-Serif" font-size="10.00"> value</text>
</g>
<!-- Node15 -->
<g id="node15" class="node">
<title>Node15</title>
<g id="a_node15"><a xlink:href="structdpp_1_1utility_1_1iconhash.html" target="_top" xlink:title="Store a 128 bit icon hash (profile picture, server icon etc) as a 128 bit binary value made of two ui...">
<polygon fill="none" stroke="black" points="283.5,-409.21 283.5,-428.21 401.5,-428.21 401.5,-409.21 283.5,-409.21"/>
<text text-anchor="middle" x="342.5" y="-416.21" font-family="Helvetica,sans-Serif" font-size="10.00">dpp::utility::iconhash</text>
</a>
</g>
</g>
<!-- Node4&#45;&gt;Node15 -->
<g id="edge20" class="edge">
<title>Node4&#45;&gt;Node15</title>
<path fill="none" stroke="#9a32cd" stroke-dasharray="5,2" d="M107.32,-440.28C122.37,-437.15 139.94,-433.85 156,-431.71 198.4,-426.06 246.6,-422.77 283.24,-420.92"/>
<polygon fill="#9a32cd" stroke="#9a32cd" points="106.41,-436.89 97.35,-442.4 107.86,-443.74 106.41,-436.89"/>
<text text-anchor="middle" x="210" y="-445.71" font-family="Helvetica,sans-Serif" font-size="10.00"> first</text>
<text text-anchor="middle" x="210" y="-434.71" font-family="Helvetica,sans-Serif" font-size="10.00">second</text>
</g>
<!-- Node5 -->
<g id="node5" class="node">
<title>Node5</title>
<g id="a_node5"><a xlink:href="structdpp_1_1json__interface.html" target="_top" xlink:title=" ">
<polygon fill="none" stroke="black" points="429,-1013.71 429,-1043.71 539,-1043.71 539,-1013.71 429,-1013.71"/>
<text text-anchor="start" x="437" y="-1031.71" font-family="Helvetica,sans-Serif" font-size="10.00">dpp::json_interface</text>
<text text-anchor="middle" x="484" y="-1020.71" font-family="Helvetica,sans-Serif" font-size="10.00">&lt; guild &gt;</text>
</a>
</g>
</g>
<!-- Node5&#45;&gt;Node1 -->
<g id="edge4" class="edge">
<title>Node5&#45;&gt;Node1</title>
<path fill="none" stroke="midnightblue" d="M539.3,-1046.87C669.58,-1086.63 1001.73,-1164.75 1173,-992.71 1216.87,-948.65 1221.92,-471.67 1222.44,-397.41"/>
<polygon fill="midnightblue" stroke="midnightblue" points="540.13,-1043.46 529.54,-1043.85 538.05,-1050.15 540.13,-1043.46"/>
</g>
<!-- Node6 -->
<g id="node6" class="node">
<title>Node6</title>
<g id="a_node6"><a xlink:href="structdpp_1_1json__interface.html" target="_top" xlink:title="Represents an interface for an object that can optionally implement functions for converting to and f...">
<polygon fill="none" stroke="black" points="0,-904.21 0,-923.21 138,-923.21 138,-904.21 0,-904.21"/>
<text text-anchor="middle" x="69" y="-911.21" font-family="Helvetica,sans-Serif" font-size="10.00">dpp::json_interface&lt; T &gt;</text>
</a>
</g>
</g>
<!-- Node6&#45;&gt;Node5 -->
<g id="edge5" class="edge">
<title>Node6&#45;&gt;Node5</title>
<path fill="none" stroke="orange" stroke-dasharray="5,2" d="M110.51,-926.22C153.08,-939.25 222.06,-960.06 282,-976.71 331.49,-990.46 388.16,-1005.02 428.69,-1015.22"/>
<polygon fill="orange" stroke="orange" points="111.38,-922.83 100.8,-923.24 109.33,-929.52 111.38,-922.83"/>
<text text-anchor="middle" x="210" y="-973.71" font-family="Helvetica,sans-Serif" font-size="10.00"> &lt; guild &gt;</text>
</g>
<!-- Node13 -->
<g id="node13" class="node">
<title>Node13</title>
<g id="a_node13"><a xlink:href="structdpp_1_1json__interface.html" target="_top" xlink:title=" ">
<polygon fill="none" stroke="black" points="287.5,-619.71 287.5,-649.71 397.5,-649.71 397.5,-619.71 287.5,-619.71"/>
<text text-anchor="start" x="295.5" y="-637.71" font-family="Helvetica,sans-Serif" font-size="10.00">dpp::json_interface</text>
<text text-anchor="middle" x="342.5" y="-626.71" font-family="Helvetica,sans-Serif" font-size="10.00">&lt; guild_member &gt;</text>
</a>
</g>
</g>
<!-- Node6&#45;&gt;Node13 -->
<g id="edge14" class="edge">
<title>Node6&#45;&gt;Node13</title>
<path fill="none" stroke="orange" stroke-dasharray="5,2" d="M94.42,-898.57C108.09,-889.44 124.95,-877.01 138,-863.71 215.71,-784.48 195.49,-729.23 282,-659.71 286.72,-655.92 292.09,-652.62 297.63,-649.76"/>
<polygon fill="orange" stroke="orange" points="92.44,-895.69 85.98,-904.08 96.26,-901.55 92.44,-895.69"/>
<text text-anchor="middle" x="210" y="-842.71" font-family="Helvetica,sans-Serif" font-size="10.00"> &lt; guild_member &gt;</text>
</g>
<!-- Node21 -->
<g id="node21" class="node">
<title>Node21</title>
<g id="a_node21"><a xlink:href="structdpp_1_1json__interface.html" target="_top" xlink:title=" ">
<polygon fill="none" stroke="black" points="282,-898.71 282,-928.71 403,-928.71 403,-898.71 282,-898.71"/>
<text text-anchor="start" x="290" y="-916.71" font-family="Helvetica,sans-Serif" font-size="10.00">dpp::json_interface</text>
<text text-anchor="middle" x="342.5" y="-905.71" font-family="Helvetica,sans-Serif" font-size="10.00">&lt; welcome_screen &gt;</text>
</a>
</g>
</g>
<!-- Node6&#45;&gt;Node21 -->
<g id="edge27" class="edge">
<title>Node6&#45;&gt;Node21</title>
<path fill="none" stroke="orange" stroke-dasharray="5,2" d="M148.19,-913.71C190.67,-913.71 242.38,-913.71 281.63,-913.71"/>
<polygon fill="orange" stroke="orange" points="148.16,-910.21 138.16,-913.71 148.16,-917.21 148.16,-910.21"/>
<text text-anchor="middle" x="210" y="-916.71" font-family="Helvetica,sans-Serif" font-size="10.00"> &lt; welcome_screen &gt;</text>
</g>
<!-- Node7 -->
<g id="node7" class="node">
<title>Node7</title>
<g id="a_node7"><a xlink:title=" ">
<polygon fill="none" stroke="#bfbfbf" points="310,-829.21 310,-848.21 375,-848.21 375,-829.21 310,-829.21"/>
<text text-anchor="middle" x="342.5" y="-836.21" font-family="Helvetica,sans-Serif" font-size="10.00">std::string</text>
</a>
</g>
</g>
<!-- Node7&#45;&gt;Node1 -->
<g id="edge6" class="edge">
<title>Node7&#45;&gt;Node1</title>
<path fill="none" stroke="#9a32cd" stroke-dasharray="5,2" d="M385.37,-837.1C539.88,-830.16 1074.22,-797.23 1173,-670.71 1207.45,-626.58 1219.55,-442.21 1222,-397.51"/>
<polygon fill="#9a32cd" stroke="#9a32cd" points="385.17,-833.6 375.33,-837.53 385.47,-840.6 385.17,-833.6"/>
<text text-anchor="middle" x="759.5" y="-835.71" font-family="Helvetica,sans-Serif" font-size="10.00"> description</text>
<text text-anchor="middle" x="759.5" y="-824.71" font-family="Helvetica,sans-Serif" font-size="10.00">name</text>
<text text-anchor="middle" x="759.5" y="-813.71" font-family="Helvetica,sans-Serif" font-size="10.00">vanity_url_code</text>
</g>
<!-- Node7&#45;&gt;Node12 -->
<g id="edge15" class="edge">
<title>Node7&#45;&gt;Node12</title>
<path fill="none" stroke="#9a32cd" stroke-dasharray="5,2" d="M385.21,-831.53C391.88,-828.77 398.16,-824.96 403,-819.71 427.1,-793.54 395.17,-766.18 421,-741.71 462.27,-702.61 504.58,-757.55 547,-719.71 568.09,-700.9 545.36,-679.04 565,-658.71 569.2,-654.37 574.36,-650.97 579.88,-648.31"/>
<polygon fill="#9a32cd" stroke="#9a32cd" points="383.65,-828.36 375.29,-834.87 385.88,-835 383.65,-828.36"/>
<text text-anchor="middle" x="484" y="-744.71" font-family="Helvetica,sans-Serif" font-size="10.00"> nickname</text>
</g>
<!-- Node20 -->
<g id="node20" class="node">
<title>Node20</title>
<g id="a_node20"><a xlink:href="structdpp_1_1welcome__screen.html" target="_top" xlink:title="Defines a server&#39;s welcome screen.">
<polygon fill="none" stroke="black" points="565,-899.21 565,-918.21 687,-918.21 687,-899.21 565,-899.21"/>
<text text-anchor="middle" x="626" y="-906.21" font-family="Helvetica,sans-Serif" font-size="10.00">dpp::welcome_screen</text>
</a>
</g>
</g>
<!-- Node7&#45;&gt;Node20 -->
<g id="edge28" class="edge">
<title>Node7&#45;&gt;Node20</title>
<path fill="none" stroke="#9a32cd" stroke-dasharray="5,2" d="M372.14,-852.72C386.52,-859.28 404.38,-866.73 421,-871.71 422.83,-872.26 512.19,-888.4 572.02,-899.18"/>
<polygon fill="#9a32cd" stroke="#9a32cd" points="373.34,-849.42 362.8,-848.36 370.38,-855.76 373.34,-849.42"/>
<text text-anchor="middle" x="484" y="-896.71" font-family="Helvetica,sans-Serif" font-size="10.00"> description</text>
</g>
<!-- Node8 -->
<g id="node8" class="node">
<title>Node8</title>
<g id="a_node8"><a xlink:title=" ">
<polygon fill="none" stroke="#bfbfbf" points="17,-823.71 17,-853.71 121,-853.71 121,-823.71 17,-823.71"/>
<text text-anchor="start" x="25" y="-841.71" font-family="Helvetica,sans-Serif" font-size="10.00">std::basic_string&lt;</text>
<text text-anchor="middle" x="69" y="-830.71" font-family="Helvetica,sans-Serif" font-size="10.00"> Char &gt;</text>
</a>
</g>
</g>
<!-- Node8&#45;&gt;Node7 -->
<g id="edge7" class="edge">
<title>Node8&#45;&gt;Node7</title>
<path fill="none" stroke="midnightblue" d="M131.12,-838.71C186.56,-838.71 266.08,-838.71 309.76,-838.71"/>
<polygon fill="midnightblue" stroke="midnightblue" points="131.07,-835.21 121.07,-838.71 131.07,-842.21 131.07,-835.21"/>
</g>
<!-- Node9 -->
<g id="node9" class="node">
<title>Node9</title>
<g id="a_node9"><a xlink:title=" ">
<polygon fill="none" stroke="#bfbfbf" points="314.5,-948.21 314.5,-967.21 370.5,-967.21 370.5,-948.21 314.5,-948.21"/>
<text text-anchor="middle" x="342.5" y="-955.21" font-family="Helvetica,sans-Serif" font-size="10.00">vector&lt;</text>
</a>
</g>
</g>
<!-- Node9&#45;&gt;Node1 -->
<g id="edge8" class="edge">
<title>Node9&#45;&gt;Node1</title>
<path fill="none" stroke="#9a32cd" stroke-dasharray="5,2" d="M380.87,-961.61C529.43,-976.18 1074.94,-1020.35 1173,-894.71 1204.83,-853.93 1219.83,-464.1 1222.17,-397.4"/>
<polygon fill="#9a32cd" stroke="#9a32cd" points="381.17,-958.13 370.87,-960.62 380.47,-965.09 381.17,-958.13"/>
<text text-anchor="middle" x="759.5" y="-1016.71" font-family="Helvetica,sans-Serif" font-size="10.00"> channels</text>
<text text-anchor="middle" x="759.5" y="-1005.71" font-family="Helvetica,sans-Serif" font-size="10.00">emojis</text>
<text text-anchor="middle" x="759.5" y="-994.71" font-family="Helvetica,sans-Serif" font-size="10.00">roles</text>
<text text-anchor="middle" x="759.5" y="-983.71" font-family="Helvetica,sans-Serif" font-size="10.00">threads</text>
</g>
<!-- Node9&#45;&gt;Node12 -->
<g id="edge16" class="edge">
<title>Node9&#45;&gt;Node12</title>
<path fill="none" stroke="#9a32cd" stroke-dasharray="5,2" d="M380.52,-952.32C388.89,-949.49 397.05,-945.21 403,-938.71 427.61,-911.84 397.42,-886.5 421,-858.71 460.09,-812.65 510.28,-855.69 547,-807.71 587.54,-754.74 522.82,-710.38 565,-658.71 568.54,-654.37 573.05,-650.97 578.01,-648.3"/>
<polygon fill="#9a32cd" stroke="#9a32cd" points="379.43,-948.99 370.71,-955.01 381.28,-955.74 379.43,-948.99"/>
<text text-anchor="middle" x="484" y="-861.71" font-family="Helvetica,sans-Serif" font-size="10.00"> roles</text>
</g>
<!-- Node9&#45;&gt;Node20 -->
<g id="edge29" class="edge">
<title>Node9&#45;&gt;Node20</title>
<path fill="none" stroke="#9a32cd" stroke-dasharray="5,2" d="M380.59,-952.17C421.44,-945.96 489.03,-935.35 547,-924.71 557.74,-922.74 569.28,-920.46 580.1,-918.25"/>
<polygon fill="#9a32cd" stroke="#9a32cd" points="379.92,-948.73 370.55,-953.69 380.97,-955.65 379.92,-948.73"/>
<text text-anchor="middle" x="484" y="-948.71" font-family="Helvetica,sans-Serif" font-size="10.00"> welcome_channels</text>
</g>
<!-- Node10 -->
<g id="node10" class="node">
<title>Node10</title>
<g id="a_node10"><a xlink:title=" ">
<polygon fill="none" stroke="#bfbfbf" points="893.5,-357.21 893.5,-376.21 940.5,-376.21 940.5,-357.21 893.5,-357.21"/>
<text text-anchor="middle" x="917" y="-364.21" font-family="Helvetica,sans-Serif" font-size="10.00">map&lt;</text>
</a>
</g>
</g>
<!-- Node10&#45;&gt;Node1 -->
<g id="edge9" class="edge">
<title>Node10&#45;&gt;Node1</title>
<path fill="none" stroke="#9a32cd" stroke-dasharray="5,2" d="M951.15,-369C1010.21,-373.07 1132.9,-381.53 1190.87,-385.53"/>
<polygon fill="#9a32cd" stroke="#9a32cd" points="951.1,-365.49 940.89,-368.29 950.62,-372.47 951.1,-365.49"/>
<text text-anchor="middle" x="1096.5" y="-386.71" font-family="Helvetica,sans-Serif" font-size="10.00"> voice_members</text>
</g>
<!-- Node11&#45;&gt;Node1 -->
<g id="edge10" class="edge">
<title>Node11&#45;&gt;Node1</title>
<path fill="none" stroke="#9a32cd" stroke-dasharray="5,2" d="M981.29,-603.52C1037.83,-584.45 1119.73,-549.54 1173,-494.71 1201.24,-465.65 1215.41,-417.53 1220.38,-397.22"/>
<polygon fill="#9a32cd" stroke="#9a32cd" points="980.15,-600.21 971.75,-606.67 982.34,-606.86 980.15,-600.21"/>
<text text-anchor="middle" x="1096.5" y="-589.71" font-family="Helvetica,sans-Serif" font-size="10.00"> members</text>
</g>
<!-- Node12&#45;&gt;Node11 -->
<g id="edge12" class="edge">
<title>Node12&#45;&gt;Node11</title>
<path fill="none" stroke="#9a32cd" stroke-dasharray="5,2" d="M691.87,-634.9C734.11,-632.41 789.57,-629.15 834.75,-626.49"/>
<polygon fill="#9a32cd" stroke="#9a32cd" points="691.48,-631.41 681.7,-635.49 691.89,-638.4 691.48,-631.41"/>
<text text-anchor="middle" x="759.5" y="-635.71" font-family="Helvetica,sans-Serif" font-size="10.00"> elements</text>
</g>
<!-- Node13&#45;&gt;Node12 -->
<g id="edge13" class="edge">
<title>Node13&#45;&gt;Node12</title>
<path fill="none" stroke="midnightblue" d="M407.97,-635.63C457.08,-636.33 523.93,-637.28 570.41,-637.94"/>
<polygon fill="midnightblue" stroke="midnightblue" points="407.82,-632.13 397.78,-635.48 407.73,-639.12 407.82,-632.13"/>
</g>
<!-- Node14 -->
<g id="node14" class="node">
<title>Node14</title>
<g id="a_node14"><a xlink:title=" ">
<polygon fill="none" stroke="#bfbfbf" points="314.5,-728.21 314.5,-747.21 370.5,-747.21 370.5,-728.21 314.5,-728.21"/>
<text text-anchor="middle" x="342.5" y="-735.21" font-family="Helvetica,sans-Serif" font-size="10.00">uint16_t</text>
</a>
</g>
</g>
<!-- Node14&#45;&gt;Node1 -->
<g id="edge33" class="edge">
<title>Node14&#45;&gt;Node1</title>
<path fill="none" stroke="#9a32cd" stroke-dasharray="5,2" d="M380.38,-746.92C393.16,-749.69 407.63,-752.35 421,-753.71 476.71,-759.4 491.33,-759.79 547,-753.71 831.62,-722.64 973.61,-807.18 1173,-601.71 1202.21,-571.61 1217.77,-435.2 1221.57,-397.43"/>
<polygon fill="#9a32cd" stroke="#9a32cd" points="381.07,-743.49 370.55,-744.71 379.53,-750.32 381.07,-743.49"/>
<text text-anchor="middle" x="759.5" y="-781.71" font-family="Helvetica,sans-Serif" font-size="10.00"> flags_extra</text>
<text text-anchor="start" x="705" y="-770.71" font-family="Helvetica,sans-Serif" font-size="10.00">premium_subscription</text>
<text text-anchor="middle" x="759.5" y="-759.71" font-family="Helvetica,sans-Serif" font-size="10.00">_count</text>
<text text-anchor="middle" x="759.5" y="-748.71" font-family="Helvetica,sans-Serif" font-size="10.00">shard_id</text>
</g>
<!-- Node14&#45;&gt;Node12 -->
<g id="edge17" class="edge">
<title>Node14&#45;&gt;Node12</title>
<path fill="none" stroke="#9a32cd" stroke-dasharray="5,2" d="M375.41,-724.31C389.24,-718.89 405.73,-712.93 421,-708.71 475.87,-693.57 499.44,-716.99 547,-685.71 559.05,-677.79 553.54,-667.47 565,-658.71 570.67,-654.38 577.33,-650.96 584.11,-648.26"/>
<polygon fill="#9a32cd" stroke="#9a32cd" points="373.85,-721.17 365.87,-728.13 376.46,-727.67 373.85,-721.17"/>
<text text-anchor="middle" x="484" y="-711.71" font-family="Helvetica,sans-Serif" font-size="10.00"> flags</text>
</g>
<!-- Node15&#45;&gt;Node1 -->
<g id="edge30" class="edge">
<title>Node15&#45;&gt;Node1</title>
<path fill="none" stroke="#9a32cd" stroke-dasharray="5,2" d="M391.77,-406.99C401.4,-404.97 411.49,-403.08 421,-401.71 546.24,-383.66 578.54,-386.16 705,-381.71 753.41,-380.01 765.84,-376.43 814,-381.71 822.15,-382.61 823.89,-384.54 832,-385.71 914.89,-397.72 936.29,-395.82 1020,-398.71 1087.96,-401.06 1105.41,-406.13 1173,-398.71 1178.86,-398.07 1185.05,-397.01 1190.98,-395.79"/>
<polygon fill="#9a32cd" stroke="#9a32cd" points="390.96,-403.58 381.93,-409.12 392.44,-410.42 390.96,-403.58"/>
<text text-anchor="middle" x="759.5" y="-417.71" font-family="Helvetica,sans-Serif" font-size="10.00"> banner</text>
<text text-anchor="middle" x="759.5" y="-406.71" font-family="Helvetica,sans-Serif" font-size="10.00">discovery_splash</text>
<text text-anchor="middle" x="759.5" y="-395.71" font-family="Helvetica,sans-Serif" font-size="10.00">icon</text>
<text text-anchor="middle" x="759.5" y="-384.71" font-family="Helvetica,sans-Serif" font-size="10.00">splash</text>
</g>
<!-- Node15&#45;&gt;Node12 -->
<g id="edge19" class="edge">
<title>Node15&#45;&gt;Node12</title>
<path fill="none" stroke="#9a32cd" stroke-dasharray="5,2" d="M411.57,-409.74C462.87,-404.63 527.59,-402.29 547,-419.71 573.46,-443.46 549.56,-546.68 565,-578.71 575.36,-600.21 596.64,-618.53 610.86,-629.08"/>
<polygon fill="#9a32cd" stroke="#9a32cd" points="411.08,-406.27 401.5,-410.79 411.81,-413.23 411.08,-406.27"/>
<text text-anchor="middle" x="484" y="-422.71" font-family="Helvetica,sans-Serif" font-size="10.00"> avatar</text>
</g>
<!-- Node16 -->
<g id="node16" class="node">
<title>Node16</title>
<g id="a_node16"><a xlink:title=" ">
<polygon fill="none" stroke="#bfbfbf" points="318.5,-572.21 318.5,-591.21 366.5,-591.21 366.5,-572.21 318.5,-572.21"/>
<text text-anchor="middle" x="342.5" y="-579.21" font-family="Helvetica,sans-Serif" font-size="10.00">time_t</text>
</a>
</g>
</g>
<!-- Node16&#45;&gt;Node12 -->
<g id="edge21" class="edge">
<title>Node16&#45;&gt;Node12</title>
<path fill="none" stroke="#9a32cd" stroke-dasharray="5,2" d="M376.76,-577.28C417.82,-573.01 489.3,-569.59 547,-587.71 573.86,-596.15 600.24,-616.68 614.39,-628.96"/>
<polygon fill="#9a32cd" stroke="#9a32cd" points="376.31,-573.8 366.76,-578.39 377.08,-580.76 376.31,-573.8"/>
<text text-anchor="start" x="421" y="-623.71" font-family="Helvetica,sans-Serif" font-size="10.00"> communication_disabled</text>
<text text-anchor="middle" x="484" y="-612.71" font-family="Helvetica,sans-Serif" font-size="10.00">_until</text>
<text text-anchor="middle" x="484" y="-601.71" font-family="Helvetica,sans-Serif" font-size="10.00">joined_at</text>
<text text-anchor="middle" x="484" y="-590.71" font-family="Helvetica,sans-Serif" font-size="10.00">premium_since</text>
</g>
<!-- Node17 -->
<g id="node17" class="node">
<title>Node17</title>
<g id="a_node17"><a xlink:title=" ">
<polygon fill="none" stroke="#bfbfbf" points="569,-667.71 569,-697.71 683,-697.71 683,-667.71 569,-667.71"/>
<text text-anchor="start" x="577" y="-685.71" font-family="Helvetica,sans-Serif" font-size="10.00">std::unordered_map</text>
<text text-anchor="middle" x="626" y="-674.71" font-family="Helvetica,sans-Serif" font-size="10.00">&lt; K, T &gt;</text>
</a>
</g>
</g>
<!-- Node17&#45;&gt;Node11 -->
<g id="edge22" class="edge">
<title>Node17&#45;&gt;Node11</title>
<path fill="none" stroke="orange" stroke-dasharray="5,2" d="M693.11,-671.41C728.99,-665.01 774.05,-656.53 814,-647.71 828.9,-644.42 844.93,-640.51 859.77,-636.74"/>
<polygon fill="orange" stroke="orange" points="692.48,-667.97 683.24,-673.16 693.7,-674.86 692.48,-667.97"/>
<text text-anchor="start" x="712.5" y="-682.71" font-family="Helvetica,sans-Serif" font-size="10.00"> &lt; snowflake, guild</text>
<text text-anchor="middle" x="759.5" y="-671.71" font-family="Helvetica,sans-Serif" font-size="10.00">_member &gt;</text>
</g>
<!-- Node18 -->
<g id="node18" class="node">
<title>Node18</title>
<g id="a_node18"><a xlink:title=" ">
<polygon fill="none" stroke="#bfbfbf" points="328,-791.21 328,-810.21 357,-810.21 357,-791.21 328,-791.21"/>
<text text-anchor="middle" x="342.5" y="-798.21" font-family="Helvetica,sans-Serif" font-size="10.00">K</text>
</a>
</g>
</g>
<!-- Node18&#45;&gt;Node17 -->
<g id="edge23" class="edge">
<title>Node18&#45;&gt;Node17</title>
<path fill="none" stroke="#9a32cd" stroke-dasharray="5,2" d="M367.19,-799.71C406.66,-797.16 487.4,-788.2 547,-756.71 574.73,-742.06 599.65,-714.77 613.52,-697.74"/>
<polygon fill="#9a32cd" stroke="#9a32cd" points="367,-796.21 357.21,-800.27 367.39,-803.2 367,-796.21"/>
<text text-anchor="middle" x="484" y="-795.71" font-family="Helvetica,sans-Serif" font-size="10.00"> keys</text>
</g>
<!-- Node19 -->
<g id="node19" class="node">
<title>Node19</title>
<g id="a_node19"><a xlink:title=" ">
<polygon fill="none" stroke="#bfbfbf" points="328,-669.21 328,-688.21 357,-688.21 357,-669.21 328,-669.21"/>
<text text-anchor="middle" x="342.5" y="-676.21" font-family="Helvetica,sans-Serif" font-size="10.00">T</text>
</a>
</g>
</g>
<!-- Node19&#45;&gt;Node17 -->
<g id="edge24" class="edge">
<title>Node19&#45;&gt;Node17</title>
<path fill="none" stroke="#9a32cd" stroke-dasharray="5,2" d="M367.42,-677.15C405.47,-674.9 482.12,-671.39 547,-674.71 554.07,-675.07 561.49,-675.62 568.81,-676.26"/>
<polygon fill="#9a32cd" stroke="#9a32cd" points="367.1,-673.66 357.33,-677.77 367.52,-680.65 367.1,-673.66"/>
<text text-anchor="middle" x="484" y="-677.71" font-family="Helvetica,sans-Serif" font-size="10.00"> elements</text>
</g>
<!-- Node20&#45;&gt;Node1 -->
<g id="edge25" class="edge">
<title>Node20&#45;&gt;Node1</title>
<path fill="none" stroke="#9a32cd" stroke-dasharray="5,2" d="M676.58,-920.3C784.09,-942.16 1039.71,-976.02 1173,-840.71 1205.34,-807.88 1219.82,-459.55 1222.16,-397.23"/>
<polygon fill="#9a32cd" stroke="#9a32cd" points="677.15,-916.84 666.64,-918.22 675.72,-923.69 677.15,-916.84"/>
<text text-anchor="middle" x="917" y="-943.71" font-family="Helvetica,sans-Serif" font-size="10.00"> welcome_screen</text>
</g>
<!-- Node21&#45;&gt;Node20 -->
<g id="edge26" class="edge">
<title>Node21&#45;&gt;Node20</title>
<path fill="none" stroke="midnightblue" d="M413.21,-912.47C459.8,-911.65 520.45,-910.57 564.9,-909.78"/>
<polygon fill="midnightblue" stroke="midnightblue" points="413.14,-908.97 403.2,-912.65 413.26,-915.97 413.14,-908.97"/>
</g>
<!-- Node22 -->
<g id="node22" class="node">
<title>Node22</title>
<g id="a_node22"><a xlink:title=" ">
<polygon fill="none" stroke="#bfbfbf" points="889,-319.21 889,-338.21 945,-338.21 945,-319.21 889,-319.21"/>
<text text-anchor="middle" x="917" y="-326.21" font-family="Helvetica,sans-Serif" font-size="10.00">uint32_t</text>
</a>
</g>
</g>
<!-- Node22&#45;&gt;Node1 -->
<g id="edge32" class="edge">
<title>Node22&#45;&gt;Node1</title>
<path fill="none" stroke="#9a32cd" stroke-dasharray="5,2" d="M955.29,-324.28C1016.61,-317.65 1135.66,-307.74 1173,-325.71 1195.59,-336.58 1211.08,-363.33 1218.15,-377.89"/>
<polygon fill="#9a32cd" stroke="#9a32cd" points="954.81,-320.81 945.25,-325.39 955.58,-327.77 954.81,-320.81"/>
<text text-anchor="middle" x="1096.5" y="-361.71" font-family="Helvetica,sans-Serif" font-size="10.00"> flags</text>
<text text-anchor="middle" x="1096.5" y="-350.71" font-family="Helvetica,sans-Serif" font-size="10.00">max_members</text>
<text text-anchor="middle" x="1096.5" y="-339.71" font-family="Helvetica,sans-Serif" font-size="10.00">max_presences</text>
<text text-anchor="middle" x="1096.5" y="-328.71" font-family="Helvetica,sans-Serif" font-size="10.00">member_count</text>
</g>
<!-- Node23 -->
<g id="node23" class="node">
<title>Node23</title>
<g id="a_node23"><a xlink:title=" ">
<polygon fill="none" stroke="#bfbfbf" points="860,-281.21 860,-300.21 974,-300.21 974,-281.21 860,-281.21"/>
<text text-anchor="middle" x="917" y="-288.21" font-family="Helvetica,sans-Serif" font-size="10.00">guild_afk_timeout_t</text>
</a>
</g>
</g>
<!-- Node23&#45;&gt;Node1 -->
<g id="edge34" class="edge">
<title>Node23&#45;&gt;Node1</title>
<path fill="none" stroke="#9a32cd" stroke-dasharray="5,2" d="M966.36,-279.23C1020.81,-269.11 1109.9,-261.3 1173,-299.71 1202.2,-317.49 1215.63,-359.24 1220.38,-378.13"/>
<polygon fill="#9a32cd" stroke="#9a32cd" points="965.42,-275.84 956.28,-281.2 966.77,-282.71 965.42,-275.84"/>
<text text-anchor="middle" x="1096.5" y="-302.71" font-family="Helvetica,sans-Serif" font-size="10.00"> afk_timeout</text>
</g>
<!-- Node24 -->
<g id="node24" class="node">
<title>Node24</title>
<g id="a_node24"><a xlink:title=" ">
<polygon fill="none" stroke="#bfbfbf" points="892,-243.21 892,-262.21 942,-262.21 942,-243.21 892,-243.21"/>
<text text-anchor="middle" x="917" y="-250.21" font-family="Helvetica,sans-Serif" font-size="10.00">uint8_t</text>
</a>
</g>
</g>
<!-- Node24&#45;&gt;Node1 -->
<g id="edge35" class="edge">
<title>Node24&#45;&gt;Node1</title>
<path fill="none" stroke="#9a32cd" stroke-dasharray="5,2" d="M952.32,-248.49C1013.54,-241.7 1138.4,-231.43 1173,-255.71 1214.27,-284.67 1221.17,-352.5 1222.3,-377.89"/>
<polygon fill="#9a32cd" stroke="#9a32cd" points="951.9,-245.02 942.37,-249.63 952.7,-251.97 951.9,-245.02"/>
<text text-anchor="middle" x="1096.5" y="-258.71" font-family="Helvetica,sans-Serif" font-size="10.00"> max_video_channel_users</text>
</g>
<!-- Node25 -->
<g id="node25" class="node">
<title>Node25</title>
<g id="a_node25"><a xlink:title=" ">
<polygon fill="none" stroke="#bfbfbf" points="832,-205.21 832,-224.21 1002,-224.21 1002,-205.21 832,-205.21"/>
<text text-anchor="middle" x="917" y="-212.21" font-family="Helvetica,sans-Serif" font-size="10.00">default_message_notification_t</text>
</a>
</g>
</g>
<!-- Node25&#45;&gt;Node1 -->
<g id="edge36" class="edge">
<title>Node25&#45;&gt;Node1</title>
<path fill="none" stroke="#9a32cd" stroke-dasharray="5,2" d="M1012.24,-207.35C1074.29,-204.54 1148.42,-205.73 1173,-224.71 1222.39,-262.85 1223.99,-348.85 1223.03,-377.91"/>
<polygon fill="#9a32cd" stroke="#9a32cd" points="1011.82,-203.86 1002.01,-207.85 1012.17,-210.85 1011.82,-203.86"/>
<text text-anchor="middle" x="1096.5" y="-227.71" font-family="Helvetica,sans-Serif" font-size="10.00"> default_message_notifications</text>
</g>
<!-- Node26 -->
<g id="node26" class="node">
<title>Node26</title>
<g id="a_node26"><a xlink:title=" ">
<polygon fill="none" stroke="#bfbfbf" points="856.5,-167.21 856.5,-186.21 977.5,-186.21 977.5,-167.21 856.5,-167.21"/>
<text text-anchor="middle" x="917" y="-174.21" font-family="Helvetica,sans-Serif" font-size="10.00">guild_premium_tier_t</text>
</a>
</g>
</g>
<!-- Node26&#45;&gt;Node1 -->
<g id="edge37" class="edge">
<title>Node26&#45;&gt;Node1</title>
<path fill="none" stroke="#9a32cd" stroke-dasharray="5,2" d="M961.71,-164.93C1017.42,-152.76 1113.59,-141.71 1173,-190.71 1202.79,-215.28 1217.84,-341.98 1221.56,-378.1"/>
<polygon fill="#9a32cd" stroke="#9a32cd" points="960.76,-161.55 951.8,-167.2 962.33,-168.37 960.76,-161.55"/>
<text text-anchor="middle" x="1096.5" y="-193.71" font-family="Helvetica,sans-Serif" font-size="10.00"> premium_tier</text>
</g>
<!-- Node27 -->
<g id="node27" class="node">
<title>Node27</title>
<g id="a_node27"><a xlink:title=" ">
<polygon fill="none" stroke="#bfbfbf" points="862,-129.21 862,-148.21 972,-148.21 972,-129.21 862,-129.21"/>
<text text-anchor="middle" x="917" y="-136.21" font-family="Helvetica,sans-Serif" font-size="10.00">verification_level_t</text>
</a>
</g>
</g>
<!-- Node27&#45;&gt;Node1 -->
<g id="edge38" class="edge">
<title>Node27&#45;&gt;Node1</title>
<path fill="none" stroke="#9a32cd" stroke-dasharray="5,2" d="M982.57,-129.75C1048.49,-122.14 1144.98,-115.72 1173,-138.71 1211.07,-169.96 1220.4,-336.44 1222.15,-378.2"/>
<polygon fill="#9a32cd" stroke="#9a32cd" points="981.78,-126.32 972.27,-130.98 982.61,-133.27 981.78,-126.32"/>
<text text-anchor="middle" x="1096.5" y="-141.71" font-family="Helvetica,sans-Serif" font-size="10.00"> verification_level</text>
</g>
<!-- Node28 -->
<g id="node28" class="node">
<title>Node28</title>
<g id="a_node28"><a xlink:title=" ">
<polygon fill="none" stroke="#bfbfbf" points="850.5,-91.21 850.5,-110.21 983.5,-110.21 983.5,-91.21 850.5,-91.21"/>
<text text-anchor="middle" x="917" y="-98.21" font-family="Helvetica,sans-Serif" font-size="10.00">guild_explicit_content_t</text>
</a>
</g>
</g>
<!-- Node28&#45;&gt;Node1 -->
<g id="edge39" class="edge">
<title>Node28&#45;&gt;Node1</title>
<path fill="none" stroke="#9a32cd" stroke-dasharray="5,2" d="M993.97,-92.63C1059.32,-87.45 1147.05,-85.34 1173,-107.71 1215.06,-143.98 1221.42,-332.79 1222.35,-377.98"/>
<polygon fill="#9a32cd" stroke="#9a32cd" points="993.36,-89.16 983.69,-93.48 993.94,-96.14 993.36,-89.16"/>
<text text-anchor="middle" x="1096.5" y="-110.71" font-family="Helvetica,sans-Serif" font-size="10.00"> explicit_content_filter</text>
</g>
<!-- Node29 -->
<g id="node29" class="node">
<title>Node29</title>
<g id="a_node29"><a xlink:title=" ">
<polygon fill="none" stroke="#bfbfbf" points="880,-53.21 880,-72.21 954,-72.21 954,-53.21 880,-53.21"/>
<text text-anchor="middle" x="917" y="-60.21" font-family="Helvetica,sans-Serif" font-size="10.00">mfa_level_t</text>
</a>
</g>
</g>
<!-- Node29&#45;&gt;Node1 -->
<g id="edge40" class="edge">
<title>Node29&#45;&gt;Node1</title>
<path fill="none" stroke="#9a32cd" stroke-dasharray="5,2" d="M964.35,-58.01C1029.42,-52.5 1143.27,-47.17 1173,-73.71 1219.73,-115.43 1222.51,-330.05 1222.54,-378.14"/>
<polygon fill="#9a32cd" stroke="#9a32cd" points="963.99,-54.53 954.34,-58.89 964.61,-61.5 963.99,-54.53"/>
<text text-anchor="middle" x="1096.5" y="-76.71" font-family="Helvetica,sans-Serif" font-size="10.00"> mfa_level</text>
</g>
<!-- Node30 -->
<g id="node30" class="node">
<title>Node30</title>
<g id="a_node30"><a xlink:title=" ">
<polygon fill="none" stroke="#bfbfbf" points="863.5,-15.21 863.5,-34.21 970.5,-34.21 970.5,-15.21 863.5,-15.21"/>
<text text-anchor="middle" x="917" y="-22.21" font-family="Helvetica,sans-Serif" font-size="10.00">guild_nsfw_level_t</text>
</a>
</g>
</g>
<!-- Node30&#45;&gt;Node1 -->
<g id="edge41" class="edge">
<title>Node30&#45;&gt;Node1</title>
<path fill="none" stroke="#9a32cd" stroke-dasharray="5,2" d="M959.81,-12.62C1015.96,0.8 1115.33,14.2 1173,-38.71 1224.52,-85.98 1223.51,-326.91 1222.69,-378.13"/>
<polygon fill="#9a32cd" stroke="#9a32cd" points="958.7,-9.29 949.84,-15.11 960.39,-16.08 958.7,-9.29"/>
<text text-anchor="middle" x="1096.5" y="-41.71" font-family="Helvetica,sans-Serif" font-size="10.00"> nsfw_level</text>
</g>
</g>
</svg>
        <g id="navigator" transform="translate(0 0)" fill="#404254">
                <rect fill="#f2f5e9" fill-opacity="0.5" stroke="#606060" stroke-width=".5" x="0" y="0" width="60" height="60"/>
                <use id="zoomplus" xlink:href="#zoomPlus" x="17" y="9" onmousedown="handleZoom(evt,'in')"/>
                <use id="zoomminus" xlink:href="#zoomMin" x="42" y="9" onmousedown="handleZoom(evt,'out')"/>
                <use id="reset" xlink:href="#resetDef" x="30" y="36" onmousedown="handleReset()"/>
                <g id="arrowUp" xlink:href="#dirArrow" transform="translate(30 24)" onmousedown="handlePan(0,-1)">
                  <use xlink:href="#rim" fill="#404040">
                        <set attributeName="fill" to="#808080" begin="arrowUp.mouseover" end="arrowUp.mouseout"/>
                  </use>
                  <path fill="none" stroke="white" stroke-width="1.5" d="M0,-3.0v7 M-2.5,-0.5L0,-3.0L2.5,-0.5"/>
                </g>
                <g id="arrowRight" xlink:href="#dirArrow" transform="rotate(90) translate(36 -43)" onmousedown="handlePan(1,0)">
                  <use xlink:href="#rim" fill="#404040">
                        <set attributeName="fill" to="#808080" begin="arrowRight.mouseover" end="arrowRight.mouseout"/>
                  </use>
                  <path fill="none" stroke="white" stroke-width="1.5" d="M0,-3.0v7 M-2.5,-0.5L0,-3.0L2.5,-0.5"/>
                </g>
                <g id="arrowDown" xlink:href="#dirArrow" transform="rotate(180) translate(-30 -48)" onmousedown="handlePan(0,1)">
                  <use xlink:href="#rim" fill="#404040">
                        <set attributeName="fill" to="#808080" begin="arrowDown.mouseover" end="arrowDown.mouseout"/>
                  </use>
                  <path fill="none" stroke="white" stroke-width="1.5" d="M0,-3.0v7 M-2.5,-0.5L0,-3.0L2.5,-0.5"/>
                </g>
                <g id="arrowLeft" xlink:href="#dirArrow" transform="rotate(270) translate(-36 17)" onmousedown="handlePan(-1,0)">
                  <use xlink:href="#rim" fill="#404040">
                        <set attributeName="fill" to="#808080" begin="arrowLeft.mouseover" end="arrowLeft.mouseout"/>
                  </use>
                  <path fill="none" stroke="white" stroke-width="1.5" d="M0,-3.0v7 M-2.5,-0.5L0,-3.0L2.5,-0.5"/>
                </g>
        </g>
        <svg viewBox="0 0 15 15" width="100%" height="30px" preserveAspectRatio="xMaxYMin meet">
         <g id="arrow_out" transform="scale(0.3 0.3)">
          <a xlink:href="classdpp_1_1guild__coll__graph_org.svg" target="_base">
           <rect id="button" ry="5" rx="5" y="6" x="6" height="38" width="38"
                fill="#f2f5e9" fill-opacity="0.5" stroke="#606060" stroke-width="1.0"/>
           <path id="arrow"
             d="M 11.500037,31.436501 C 11.940474,20.09759 22.043105,11.32322 32.158766,21.979434 L 37.068811,17.246167 C 37.068811,17.246167 37.088388,32 37.088388,32 L 22.160133,31.978069 C 22.160133,31.978069 26.997745,27.140456 26.997745,27.140456 C 18.528582,18.264221 13.291696,25.230495 11.500037,31.436501 z"
             style="fill:#404040;"/>
          </a>
         </g>
        </svg>
</svg>
