<?xml version="1.0" encoding="UTF-8" standalone="no"?>
<!DOCTYPE svg PUBLIC "-//W3C//DTD SVG 1.1//EN"
 "http://www.w3.org/Graphics/SVG/1.1/DTD/svg11.dtd">
<!-- Generated by graphviz version 2.43.0 (0)
 -->
<!-- Title: dpp::app_team Pages: 1 -->
<svg width="412pt" height="195pt"
 viewBox="0.00 0.00 412.00 195.00" xmlns="http://www.w3.org/2000/svg" xmlns:xlink="http://www.w3.org/1999/xlink">
<g id="graph0" class="graph" transform="scale(1 1) rotate(0) translate(4 191)">
<title>dpp::app_team</title>
<!-- Node1 -->
<g id="node1" class="node">
<title>Node1</title>
<g id="a_node1"><a xlink:title="Represents a team of users who maintain a bot/application.">
<polygon fill="#bfbfbf" stroke="black" points="181.5,-0.5 181.5,-19.5 270.5,-19.5 270.5,-0.5 181.5,-0.5"/>
<text text-anchor="middle" x="226" y="-7.5" font-family="Helvetica,sans-Serif" font-size="10.00">dpp::app_team</text>
</a>
</g>
</g>
<!-- Node2 -->
<g id="node2" class="node">
<title>Node2</title>
<g id="a_node2"><a xlink:href="structdpp_1_1utility_1_1iconhash.html" target="_top" xlink:title="Store a 128 bit icon hash (profile picture, server icon etc) as a 128 bit binary value made of two ui...">
<polygon fill="none" stroke="black" points="0,-78.5 0,-97.5 118,-97.5 118,-78.5 0,-78.5"/>
<text text-anchor="middle" x="59" y="-85.5" font-family="Helvetica,sans-Serif" font-size="10.00">dpp::utility::iconhash</text>
</a>
</g>
</g>
<!-- Node2&#45;&gt;Node1 -->
<g id="edge1" class="edge">
<title>Node2&#45;&gt;Node1</title>
<path fill="none" stroke="#9a32cd" stroke-dasharray="5,2" d="M81.77,-73.05C99.43,-62.59 124.74,-48.34 148,-38 163.98,-30.9 182.44,-24.43 197.39,-19.61"/>
<polygon fill="#9a32cd" stroke="#9a32cd" points="79.58,-70.29 72.8,-78.43 83.18,-76.29 79.58,-70.29"/>
<text text-anchor="middle" x="160" y="-46.5" font-family="Helvetica,sans-Serif" font-size="10.00"> icon</text>
</g>
<!-- Node3 -->
<g id="node3" class="node">
<title>Node3</title>
<g id="a_node3"><a xlink:title=" ">
<polygon fill="none" stroke="#bfbfbf" points="84,-162 84,-181 140,-181 140,-162 84,-162"/>
<text text-anchor="middle" x="112" y="-169" font-family="Helvetica,sans-Serif" font-size="10.00">uint64_t</text>
</a>
</g>
</g>
<!-- Node3&#45;&gt;Node2 -->
<g id="edge2" class="edge">
<title>Node3&#45;&gt;Node2</title>
<path fill="none" stroke="#9a32cd" stroke-dasharray="5,2" d="M100.82,-153.3C89.74,-136.26 73.21,-110.86 64.63,-97.66"/>
<polygon fill="#9a32cd" stroke="#9a32cd" points="97.94,-155.3 106.33,-161.78 103.81,-151.49 97.94,-155.3"/>
<text text-anchor="middle" x="108.5" y="-130" font-family="Helvetica,sans-Serif" font-size="10.00"> first</text>
<text text-anchor="middle" x="108.5" y="-119" font-family="Helvetica,sans-Serif" font-size="10.00">second</text>
</g>
<!-- Node4 -->
<g id="node4" class="node">
<title>Node4</title>
<g id="a_node4"><a xlink:href="classdpp_1_1snowflake.html" target="_top" xlink:title="A container for a 64 bit unsigned value representing many things on discord. This value is known in d...">
<polygon fill="none" stroke="black" points="136.5,-78.5 136.5,-97.5 225.5,-97.5 225.5,-78.5 136.5,-78.5"/>
<text text-anchor="middle" x="181" y="-85.5" font-family="Helvetica,sans-Serif" font-size="10.00">dpp::snowflake</text>
</a>
</g>
</g>
<!-- Node3&#45;&gt;Node4 -->
<g id="edge4" class="edge">
<title>Node3&#45;&gt;Node4</title>
<path fill="none" stroke="#9a32cd" stroke-dasharray="5,2" d="M126.16,-153.77C140.59,-136.73 162.39,-110.98 173.67,-97.66"/>
<polygon fill="#9a32cd" stroke="#9a32cd" points="123.17,-151.88 119.38,-161.78 128.52,-156.41 123.17,-151.88"/>
<text text-anchor="middle" x="172.5" y="-124.5" font-family="Helvetica,sans-Serif" font-size="10.00"> value</text>
</g>
<!-- Node4&#45;&gt;Node1 -->
<g id="edge3" class="edge">
<title>Node4&#45;&gt;Node1</title>
<path fill="none" stroke="#9a32cd" stroke-dasharray="5,2" d="M176.28,-68.54C174.83,-58.85 174.78,-47.12 180,-38 184.69,-29.8 192.95,-23.85 201.18,-19.66"/>
<polygon fill="#9a32cd" stroke="#9a32cd" points="172.86,-69.29 178.3,-78.38 179.71,-67.88 172.86,-69.29"/>
<text text-anchor="middle" x="215.5" y="-52" font-family="Helvetica,sans-Serif" font-size="10.00"> id</text>
<text text-anchor="middle" x="215.5" y="-41" font-family="Helvetica,sans-Serif" font-size="10.00">owner_user_id</text>
</g>
<!-- Node5 -->
<g id="node5" class="node">
<title>Node5</title>
<g id="a_node5"><a xlink:title=" ">
<polygon fill="none" stroke="#bfbfbf" points="245,-78.5 245,-97.5 301,-97.5 301,-78.5 245,-78.5"/>
<text text-anchor="middle" x="273" y="-85.5" font-family="Helvetica,sans-Serif" font-size="10.00">vector&lt;</text>
</a>
</g>
</g>
<!-- Node5&#45;&gt;Node1 -->
<g id="edge5" class="edge">
<title>Node5&#45;&gt;Node1</title>
<path fill="none" stroke="#9a32cd" stroke-dasharray="5,2" d="M266.39,-68.59C262.57,-59.07 257.28,-47.49 251,-38 246.63,-31.39 240.63,-24.85 235.6,-19.86"/>
<polygon fill="#9a32cd" stroke="#9a32cd" points="263.23,-70.13 270.05,-78.24 269.78,-67.65 263.23,-70.13"/>
<text text-anchor="middle" x="288" y="-46.5" font-family="Helvetica,sans-Serif" font-size="10.00"> members</text>
</g>
<!-- Node6 -->
<g id="node6" class="node">
<title>Node6</title>
<g id="a_node6"><a xlink:title=" ">
<polygon fill="none" stroke="#bfbfbf" points="319.5,-78.5 319.5,-97.5 384.5,-97.5 384.5,-78.5 319.5,-78.5"/>
<text text-anchor="middle" x="352" y="-85.5" font-family="Helvetica,sans-Serif" font-size="10.00">std::string</text>
</a>
</g>
</g>
<!-- Node6&#45;&gt;Node1 -->
<g id="edge6" class="edge">
<title>Node6&#45;&gt;Node1</title>
<path fill="none" stroke="#9a32cd" stroke-dasharray="5,2" d="M343.21,-69.25C337.17,-58.76 328.22,-46 317,-38 303.45,-28.34 286.43,-22.09 270.78,-18.08"/>
<polygon fill="#9a32cd" stroke="#9a32cd" points="340.29,-71.22 348.09,-78.39 346.46,-67.92 340.29,-71.22"/>
<text text-anchor="middle" x="352.5" y="-46.5" font-family="Helvetica,sans-Serif" font-size="10.00"> name</text>
</g>
<!-- Node7 -->
<g id="node7" class="node">
<title>Node7</title>
<g id="a_node7"><a xlink:title=" ">
<polygon fill="none" stroke="#bfbfbf" points="300,-156.5 300,-186.5 404,-186.5 404,-156.5 300,-156.5"/>
<text text-anchor="start" x="308" y="-174.5" font-family="Helvetica,sans-Serif" font-size="10.00">std::basic_string&lt;</text>
<text text-anchor="middle" x="352" y="-163.5" font-family="Helvetica,sans-Serif" font-size="10.00"> Char &gt;</text>
</a>
</g>
</g>
<!-- Node7&#45;&gt;Node6 -->
<g id="edge7" class="edge">
<title>Node7&#45;&gt;Node6</title>
<path fill="none" stroke="midnightblue" d="M352,-146.25C352,-129.78 352,-108.99 352,-97.54"/>
<polygon fill="midnightblue" stroke="midnightblue" points="348.5,-146.3 352,-156.3 355.5,-146.3 348.5,-146.3"/>
</g>
</g>
</svg>
