<?xml version="1.0" encoding="UTF-8" standalone="no"?>
<!DOCTYPE svg PUBLIC "-//W3C//DTD SVG 1.1//EN"
 "http://www.w3.org/Graphics/SVG/1.1/DTD/svg11.dtd">
<!-- Generated by graphviz version 2.43.0 (0)
 -->
<!-- Title: dpp::discord_client Pages: 1 -->
<!--zoomable 1051 -->
<svg id="main" version="1.1" xmlns="http://www.w3.org/2000/svg" xmlns:xlink="http://www.w3.org/1999/xlink" xml:space="preserve" onload="init(evt)">
<style type="text/css"><![CDATA[
.edge:hover path { stroke: red; }
.edge:hover polygon { stroke: red; fill: red; }
]]></style>
<script type="text/javascript"><![CDATA[
var edges = document.getElementsByTagName('g');
if (edges && edges.length) {
  for (var i=0;i<edges.length;i++) {
    if (edges[i].id.substr(0,4)=='edge') {
      edges[i].setAttribute('class','edge');
    }
  }
}
]]></script>
        <defs>
                <circle id="rim" cx="0" cy="0" r="7"/>
                <circle id="rim2" cx="0" cy="0" r="3.5"/>
                <g id="zoomPlus">
                        <use xlink:href="#rim" fill="#404040">
                                <set attributeName="fill" to="#808080" begin="zoomplus.mouseover" end="zoomplus.mouseout"/>
                        </use>
                        <path d="M-4,0h8M0,-4v8" fill="none" stroke="white" stroke-width="1.5" pointer-events="none"/>
                </g>
                <g id="zoomMin">
                        <use xlink:href="#rim" fill="#404040">
                                <set attributeName="fill" to="#808080" begin="zoomminus.mouseover" end="zoomminus.mouseout"/>
                        </use>
                        <path d="M-4,0h8" fill="none" stroke="white" stroke-width="1.5" pointer-events="none"/>
                </g>
                <g id="dirArrow">
                        <path fill="none" stroke="white" stroke-width="1.5" d="M0,-3.0v7 M-2.5,-0.5L0,-3.0L2.5,-0.5"/>
                </g>
               <g id="resetDef">
                       <use xlink:href="#rim2" fill="#404040">
                               <set attributeName="fill" to="#808080" begin="reset.mouseover" end="reset.mouseout"/>
                       </use>
               </g>
        </defs>

<script type="text/javascript">
var viewWidth = 1164;
var viewHeight = 1051;
var sectionId = 'dynsection-1';
</script>
<script xlink:href="svgpan.js"/>
<svg id="graph" class="graph">
<g id="viewport">
<title>dpp::discord_client</title>
<polygon fill="white" stroke="transparent" points="-4,4 -4,-1046.55 1160,-1046.55 1160,4 -4,4"/>
<!-- Node1 -->
<g id="node1" class="node">
<title>Node1</title>
<g id="a_node1"><a xlink:title="Implements a discord client. Each discord_client connects to one shard and derives from a websocket c...">
<polygon fill="#bfbfbf" stroke="black" points="1048,-503.37 1048,-522.37 1156,-522.37 1156,-503.37 1048,-503.37"/>
<text text-anchor="middle" x="1102" y="-510.37" font-family="Helvetica,sans-Serif" font-size="10.00">dpp::discord_client</text>
</a>
</g>
</g>
<!-- Node2 -->
<g id="node2" class="node">
<title>Node2</title>
<g id="a_node2"><a xlink:href="classdpp_1_1websocket__client.html" target="_top" xlink:title="Implements a websocket client based on the SSL client.">
<polygon fill="white" stroke="black" points="750,-790.37 750,-809.37 875,-809.37 875,-790.37 750,-790.37"/>
<text text-anchor="middle" x="812.5" y="-797.37" font-family="Helvetica,sans-Serif" font-size="10.00">dpp::websocket_client</text>
</a>
</g>
</g>
<!-- Node2&#45;&gt;Node1 -->
<g id="edge1" class="edge">
<title>Node2&#45;&gt;Node1</title>
<path fill="none" stroke="midnightblue" d="M867.3,-787.74C915.85,-774.2 986.18,-747.77 1030,-700.87 1080.74,-646.57 1096.2,-552.48 1099.96,-522.41"/>
<polygon fill="midnightblue" stroke="midnightblue" points="866.34,-784.37 857.59,-790.36 868.16,-791.13 866.34,-784.37"/>
</g>
<!-- Node3 -->
<g id="node3" class="node">
<title>Node3</title>
<g id="a_node3"><a xlink:href="classdpp_1_1ssl__client.html" target="_top" xlink:title="Implements a simple non&#45;blocking SSL stream client.">
<polygon fill="white" stroke="black" points="489,-843.37 489,-862.37 575,-862.37 575,-843.37 489,-843.37"/>
<text text-anchor="middle" x="532" y="-850.37" font-family="Helvetica,sans-Serif" font-size="10.00">dpp::ssl_client</text>
</a>
</g>
</g>
<!-- Node3&#45;&gt;Node2 -->
<g id="edge2" class="edge">
<title>Node3&#45;&gt;Node2</title>
<path fill="none" stroke="midnightblue" d="M585.34,-842.91C635.77,-833.31 711.53,-818.9 761.25,-809.44"/>
<polygon fill="midnightblue" stroke="midnightblue" points="584.47,-839.51 575.3,-844.82 585.78,-846.39 584.47,-839.51"/>
</g>
<!-- Node4 -->
<g id="node4" class="node">
<title>Node4</title>
<g id="a_node4"><a xlink:title=" ">
<polygon fill="white" stroke="#bfbfbf" points="212,-672.37 212,-691.37 277,-691.37 277,-672.37 212,-672.37"/>
<text text-anchor="middle" x="244.5" y="-679.37" font-family="Helvetica,sans-Serif" font-size="10.00">std::string</text>
</a>
</g>
</g>
<!-- Node4&#45;&gt;Node1 -->
<g id="edge38" class="edge">
<title>Node4&#45;&gt;Node1</title>
<path fill="none" stroke="#9a32cd" stroke-dasharray="5,2" d="M287.22,-684.77C431.28,-693.99 905.82,-717.58 1030,-637.87 1073.06,-610.24 1092.68,-546.7 1098.8,-522.49"/>
<polygon fill="#9a32cd" stroke="#9a32cd" points="287.24,-681.27 277.03,-684.11 286.79,-688.25 287.24,-681.27"/>
<text text-anchor="middle" x="671.5" y="-708.87" font-family="Helvetica,sans-Serif" font-size="10.00"> sessionid</text>
<text text-anchor="middle" x="671.5" y="-697.87" font-family="Helvetica,sans-Serif" font-size="10.00">token</text>
</g>
<!-- Node4&#45;&gt;Node3 -->
<g id="edge3" class="edge">
<title>Node4&#45;&gt;Node3</title>
<path fill="none" stroke="#9a32cd" stroke-dasharray="5,2" d="M268.83,-696.77C285.75,-706.94 309.53,-719.97 332,-727.87 383.64,-746.04 406.42,-722.13 453,-750.87 490.56,-774.05 516.68,-822.39 526.59,-843.11"/>
<polygon fill="#9a32cd" stroke="#9a32cd" points="270.53,-693.71 260.18,-691.46 266.87,-699.67 270.53,-693.71"/>
<text text-anchor="middle" x="392.5" y="-797.87" font-family="Helvetica,sans-Serif" font-size="10.00"> buffer</text>
<text text-anchor="middle" x="392.5" y="-786.87" font-family="Helvetica,sans-Serif" font-size="10.00">cipher</text>
<text text-anchor="middle" x="392.5" y="-775.87" font-family="Helvetica,sans-Serif" font-size="10.00">hostname</text>
<text text-anchor="middle" x="392.5" y="-764.87" font-family="Helvetica,sans-Serif" font-size="10.00">obuffer</text>
<text text-anchor="middle" x="392.5" y="-753.87" font-family="Helvetica,sans-Serif" font-size="10.00">port</text>
</g>
<!-- Node15 -->
<g id="node15" class="node">
<title>Node15</title>
<g id="a_node15"><a xlink:href="classdpp_1_1cluster.html" target="_top" xlink:title="The cluster class represents a group of shards and a command queue for sending and receiving commands...">
<polygon fill="white" stroke="black" points="775.5,-348.37 775.5,-367.37 849.5,-367.37 849.5,-348.37 775.5,-348.37"/>
<text text-anchor="middle" x="812.5" y="-355.37" font-family="Helvetica,sans-Serif" font-size="10.00">dpp::cluster</text>
</a>
</g>
</g>
<!-- Node4&#45;&gt;Node15 -->
<g id="edge16" class="edge">
<title>Node4&#45;&gt;Node15</title>
<path fill="none" stroke="#9a32cd" stroke-dasharray="5,2" d="M286.95,-671.33C296.06,-668.43 305.51,-664.93 314,-660.87 381.28,-628.7 404.71,-623.71 453,-566.87 465.36,-552.32 455.45,-538.95 471,-527.87 565.96,-460.25 634.67,-566.03 732,-501.87 781.59,-469.18 803.08,-394.55 809.39,-367.71"/>
<polygon fill="#9a32cd" stroke="#9a32cd" points="285.83,-668.02 277.27,-674.26 287.86,-674.72 285.83,-668.02"/>
<text text-anchor="middle" x="532" y="-530.87" font-family="Helvetica,sans-Serif" font-size="10.00"> token</text>
</g>
<!-- Node18 -->
<g id="node18" class="node">
<title>Node18</title>
<g id="a_node18"><a xlink:href="classdpp_1_1user.html" target="_top" xlink:title="Represents a user on discord. May or may not be a member of a dpp::guild.">
<polygon fill="white" stroke="black" points="501,-306.37 501,-325.37 563,-325.37 563,-306.37 501,-306.37"/>
<text text-anchor="middle" x="532" y="-313.37" font-family="Helvetica,sans-Serif" font-size="10.00">dpp::user</text>
</a>
</g>
</g>
<!-- Node4&#45;&gt;Node18 -->
<g id="edge24" class="edge">
<title>Node4&#45;&gt;Node18</title>
<path fill="none" stroke="#9a32cd" stroke-dasharray="5,2" d="M287.08,-674.2C296.55,-671.12 306.13,-666.84 314,-660.87 325.79,-651.94 323.46,-644.95 332,-632.87 382.66,-561.23 419.41,-557.93 453,-476.87 477.36,-418.1 430.26,-383.73 471,-334.87 478.42,-325.98 489.98,-321.19 500.98,-318.64"/>
<polygon fill="#9a32cd" stroke="#9a32cd" points="285.98,-670.87 277.32,-676.98 287.9,-677.6 285.98,-670.87"/>
<text text-anchor="middle" x="392.5" y="-635.87" font-family="Helvetica,sans-Serif" font-size="10.00"> username</text>
</g>
<!-- Node5 -->
<g id="node5" class="node">
<title>Node5</title>
<g id="a_node5"><a xlink:title=" ">
<polygon fill="white" stroke="#bfbfbf" points="0,-666.87 0,-696.87 104,-696.87 104,-666.87 0,-666.87"/>
<text text-anchor="start" x="8" y="-684.87" font-family="Helvetica,sans-Serif" font-size="10.00">std::basic_string&lt;</text>
<text text-anchor="middle" x="52" y="-673.87" font-family="Helvetica,sans-Serif" font-size="10.00"> Char &gt;</text>
</a>
</g>
</g>
<!-- Node5&#45;&gt;Node4 -->
<g id="edge4" class="edge">
<title>Node5&#45;&gt;Node4</title>
<path fill="none" stroke="midnightblue" d="M114.35,-681.87C146.8,-681.87 185.28,-681.87 211.75,-681.87"/>
<polygon fill="midnightblue" stroke="midnightblue" points="114.05,-678.37 104.05,-681.87 114.05,-685.37 114.05,-678.37"/>
</g>
<!-- Node6 -->
<g id="node6" class="node">
<title>Node6</title>
<g id="a_node6"><a xlink:title=" ">
<polygon fill="white" stroke="#bfbfbf" points="225.5,-1021.37 225.5,-1040.37 263.5,-1040.37 263.5,-1021.37 225.5,-1021.37"/>
<text text-anchor="middle" x="244.5" y="-1028.37" font-family="Helvetica,sans-Serif" font-size="10.00">bool</text>
</a>
</g>
</g>
<!-- Node6&#45;&gt;Node1 -->
<g id="edge14" class="edge">
<title>Node6&#45;&gt;Node1</title>
<path fill="none" stroke="#9a32cd" stroke-dasharray="5,2" d="M273.46,-1035.44C313.74,-1041.09 390.15,-1048.32 453,-1033.87 730.8,-970.03 845.77,-971.38 1030,-753.87 1091.46,-681.31 1099.73,-557.57 1100.83,-522.43"/>
<polygon fill="#9a32cd" stroke="#9a32cd" points="273.97,-1031.98 263.57,-1033.98 272.95,-1038.91 273.97,-1031.98"/>
<text text-anchor="middle" x="671.5" y="-1011.87" font-family="Helvetica,sans-Serif" font-size="10.00"> ready</text>
<text text-anchor="middle" x="671.5" y="-1000.87" font-family="Helvetica,sans-Serif" font-size="10.00">terminating</text>
</g>
<!-- Node6&#45;&gt;Node3 -->
<g id="edge5" class="edge">
<title>Node6&#45;&gt;Node3</title>
<path fill="none" stroke="#9a32cd" stroke-dasharray="5,2" d="M273.5,-1024.51C290.41,-1020.72 312.42,-1015.88 332,-1011.87 385.63,-1000.89 408.41,-1020.63 453,-988.87 498.67,-956.34 521.35,-888.1 528.46,-862.69"/>
<polygon fill="#9a32cd" stroke="#9a32cd" points="272.68,-1021.11 263.69,-1026.72 274.22,-1027.94 272.68,-1021.11"/>
<text text-anchor="middle" x="392.5" y="-1025.87" font-family="Helvetica,sans-Serif" font-size="10.00"> nonblocking</text>
<text text-anchor="middle" x="392.5" y="-1014.87" font-family="Helvetica,sans-Serif" font-size="10.00">plaintext</text>
</g>
<!-- Node7 -->
<g id="node7" class="node">
<title>Node7</title>
<g id="a_node7"><a xlink:title=" ">
<polygon fill="white" stroke="#bfbfbf" points="230,-967.37 230,-986.37 259,-986.37 259,-967.37 230,-967.37"/>
<text text-anchor="middle" x="244.5" y="-974.37" font-family="Helvetica,sans-Serif" font-size="10.00">int</text>
</a>
</g>
</g>
<!-- Node7&#45;&gt;Node3 -->
<g id="edge6" class="edge">
<title>Node7&#45;&gt;Node3</title>
<path fill="none" stroke="#9a32cd" stroke-dasharray="5,2" d="M269.4,-976.68C317.07,-975.91 422.08,-972.24 453,-954.87 491.68,-933.15 517.36,-883.56 526.87,-862.56"/>
<polygon fill="#9a32cd" stroke="#9a32cd" points="269.06,-973.18 259.1,-976.81 269.15,-980.18 269.06,-973.18"/>
<text text-anchor="middle" x="392.5" y="-976.87" font-family="Helvetica,sans-Serif" font-size="10.00"> sfd</text>
</g>
<!-- Node8 -->
<g id="node8" class="node">
<title>Node8</title>
<g id="a_node8"><a xlink:href="classdpp_1_1opensslcontext.html" target="_top" xlink:title="This is an opaque class containing openssl library specific structures. We define it this way so that...">
<polygon fill="white" stroke="black" points="187,-929.37 187,-948.37 302,-948.37 302,-929.37 187,-929.37"/>
<text text-anchor="middle" x="244.5" y="-936.37" font-family="Helvetica,sans-Serif" font-size="10.00">dpp::opensslcontext</text>
</a>
</g>
</g>
<!-- Node8&#45;&gt;Node3 -->
<g id="edge7" class="edge">
<title>Node8&#45;&gt;Node3</title>
<path fill="none" stroke="#9a32cd" stroke-dasharray="5,2" d="M312.4,-941.91C354.31,-941.47 408.59,-936.53 453,-917.87 482.9,-905.31 510.11,-877.23 523.06,-862.42"/>
<polygon fill="#9a32cd" stroke="#9a32cd" points="312.29,-938.41 302.3,-941.93 312.3,-945.41 312.29,-938.41"/>
<text text-anchor="middle" x="392.5" y="-943.87" font-family="Helvetica,sans-Serif" font-size="10.00"> ssl</text>
</g>
<!-- Node9 -->
<g id="node9" class="node">
<title>Node9</title>
<g id="a_node9"><a xlink:title=" ">
<polygon fill="white" stroke="#bfbfbf" points="31,-948.37 31,-967.37 73,-967.37 73,-948.37 31,-948.37"/>
<text text-anchor="middle" x="52" y="-955.37" font-family="Helvetica,sans-Serif" font-size="10.00">SSL *</text>
</a>
</g>
</g>
<!-- Node9&#45;&gt;Node8 -->
<g id="edge8" class="edge">
<title>Node9&#45;&gt;Node8</title>
<path fill="none" stroke="#9a32cd" stroke-dasharray="5,2" d="M83.27,-954.85C111,-952.09 152.76,-947.92 186.69,-944.54"/>
<polygon fill="#9a32cd" stroke="#9a32cd" points="82.63,-951.4 73.03,-955.88 83.32,-958.37 82.63,-951.4"/>
<text text-anchor="middle" x="139.5" y="-952.87" font-family="Helvetica,sans-Serif" font-size="10.00"> ssl</text>
</g>
<!-- Node10 -->
<g id="node10" class="node">
<title>Node10</title>
<g id="a_node10"><a xlink:title=" ">
<polygon fill="white" stroke="#bfbfbf" points="18.5,-910.37 18.5,-929.37 85.5,-929.37 85.5,-910.37 18.5,-910.37"/>
<text text-anchor="middle" x="52" y="-917.37" font-family="Helvetica,sans-Serif" font-size="10.00">SSL_CTX *</text>
</a>
</g>
</g>
<!-- Node10&#45;&gt;Node8 -->
<g id="edge9" class="edge">
<title>Node10&#45;&gt;Node8</title>
<path fill="none" stroke="#9a32cd" stroke-dasharray="5,2" d="M96,-924.16C122.89,-926.84 157.83,-930.33 186.95,-933.23"/>
<polygon fill="#9a32cd" stroke="#9a32cd" points="96.05,-920.65 85.75,-923.14 95.35,-927.61 96.05,-920.65"/>
<text text-anchor="middle" x="139.5" y="-932.87" font-family="Helvetica,sans-Serif" font-size="10.00"> ctx</text>
</g>
<!-- Node11 -->
<g id="node11" class="node">
<title>Node11</title>
<g id="a_node11"><a xlink:title=" ">
<polygon fill="white" stroke="#bfbfbf" points="220.5,-632.37 220.5,-651.37 268.5,-651.37 268.5,-632.37 220.5,-632.37"/>
<text text-anchor="middle" x="244.5" y="-639.37" font-family="Helvetica,sans-Serif" font-size="10.00">time_t</text>
</a>
</g>
</g>
<!-- Node11&#45;&gt;Node1 -->
<g id="edge35" class="edge">
<title>Node11&#45;&gt;Node1</title>
<path fill="none" stroke="#9a32cd" stroke-dasharray="5,2" d="M278.79,-641.7C424.04,-640.82 996.67,-636.23 1030,-617.87 1068.74,-596.53 1090.42,-543.97 1097.94,-522.37"/>
<polygon fill="#9a32cd" stroke="#9a32cd" points="278.68,-638.2 268.7,-641.76 278.72,-645.2 278.68,-638.2"/>
<text text-anchor="middle" x="671.5" y="-651.87" font-family="Helvetica,sans-Serif" font-size="10.00"> last_heartbeat</text>
<text text-anchor="middle" x="671.5" y="-640.87" font-family="Helvetica,sans-Serif" font-size="10.00">last_heartbeat_ack</text>
</g>
<!-- Node11&#45;&gt;Node3 -->
<g id="edge10" class="edge">
<title>Node11&#45;&gt;Node3</title>
<path fill="none" stroke="#9a32cd" stroke-dasharray="5,2" d="M278.73,-646.02C323.08,-653.1 401.93,-671.23 453,-714.87 496.1,-751.7 520.34,-818.62 528.17,-843.35"/>
<polygon fill="#9a32cd" stroke="#9a32cd" points="279.17,-642.55 268.77,-644.53 278.14,-649.47 279.17,-642.55"/>
<text text-anchor="middle" x="392.5" y="-717.87" font-family="Helvetica,sans-Serif" font-size="10.00"> last_tick</text>
</g>
<!-- Node11&#45;&gt;Node15 -->
<g id="edge17" class="edge">
<title>Node11&#45;&gt;Node15</title>
<path fill="none" stroke="#9a32cd" stroke-dasharray="5,2" d="M274.81,-627.95C317.35,-606.79 397.18,-563.39 453,-510.87 462.97,-501.49 458.89,-492.25 471,-485.87 573.66,-431.79 630.63,-536.33 732,-479.87 777.28,-454.66 801.02,-391.59 808.68,-367.47"/>
<polygon fill="#9a32cd" stroke="#9a32cd" points="273.26,-624.81 265.83,-632.36 276.35,-631.09 273.26,-624.81"/>
<text text-anchor="middle" x="532" y="-488.87" font-family="Helvetica,sans-Serif" font-size="10.00"> last_identify</text>
</g>
<!-- Node12 -->
<g id="node12" class="node">
<title>Node12</title>
<g id="a_node12"><a xlink:title=" ">
<polygon fill="white" stroke="#bfbfbf" points="24,-553.37 24,-572.37 80,-572.37 80,-553.37 24,-553.37"/>
<text text-anchor="middle" x="52" y="-560.37" font-family="Helvetica,sans-Serif" font-size="10.00">uint64_t</text>
</a>
</g>
</g>
<!-- Node12&#45;&gt;Node1 -->
<g id="edge37" class="edge">
<title>Node12&#45;&gt;Node1</title>
<path fill="none" stroke="#9a32cd" stroke-dasharray="5,2" d="M89.33,-575.49C127.3,-587.54 188.84,-603.87 243.5,-603.87 243.5,-603.87 243.5,-603.87 813.5,-603.87 912.67,-603.87 937.27,-585.03 1030,-549.87 1049.76,-542.38 1071.08,-530.74 1085.15,-522.52"/>
<polygon fill="#9a32cd" stroke="#9a32cd" points="90.33,-572.14 79.74,-572.38 88.17,-578.8 90.33,-572.14"/>
<text text-anchor="middle" x="532" y="-606.87" font-family="Helvetica,sans-Serif" font-size="10.00"> last_seq</text>
</g>
<!-- Node12&#45;&gt;Node3 -->
<g id="edge11" class="edge">
<title>Node12&#45;&gt;Node3</title>
<path fill="none" stroke="#9a32cd" stroke-dasharray="5,2" d="M66.29,-580.66C87.44,-608.29 130.89,-662.33 175,-700.87 238.21,-756.11 255.04,-772.36 332,-805.87 383.59,-828.34 447.58,-841 488.84,-847.39"/>
<polygon fill="#9a32cd" stroke="#9a32cd" points="69.07,-578.53 60.24,-572.68 63.49,-582.76 69.07,-578.53"/>
<text text-anchor="middle" x="244.5" y="-810.87" font-family="Helvetica,sans-Serif" font-size="10.00"> bytes_in</text>
<text text-anchor="middle" x="244.5" y="-799.87" font-family="Helvetica,sans-Serif" font-size="10.00">bytes_out</text>
</g>
<!-- Node19 -->
<g id="node19" class="node">
<title>Node19</title>
<g id="a_node19"><a xlink:href="classdpp_1_1managed.html" target="_top" xlink:title="The managed class is the base class for various types that can be stored in a cache that are identifi...">
<polygon fill="white" stroke="black" points="201.5,-342.37 201.5,-361.37 287.5,-361.37 287.5,-342.37 201.5,-342.37"/>
<text text-anchor="middle" x="244.5" y="-349.37" font-family="Helvetica,sans-Serif" font-size="10.00">dpp::managed</text>
</a>
</g>
</g>
<!-- Node12&#45;&gt;Node19 -->
<g id="edge22" class="edge">
<title>Node12&#45;&gt;Node19</title>
<path fill="none" stroke="#9a32cd" stroke-dasharray="5,2" d="M58.25,-543.45C67.31,-512.6 88.22,-451.64 122,-409.87 140.39,-387.13 148.7,-383.66 175,-370.87 183.21,-366.88 192.4,-363.61 201.32,-360.97"/>
<polygon fill="#9a32cd" stroke="#9a32cd" points="54.8,-542.78 55.45,-553.36 61.54,-544.69 54.8,-542.78"/>
<text text-anchor="middle" x="139.5" y="-412.87" font-family="Helvetica,sans-Serif" font-size="10.00"> id</text>
</g>
<!-- Node22 -->
<g id="node22" class="node">
<title>Node22</title>
<g id="a_node22"><a xlink:href="structdpp_1_1utility_1_1iconhash.html" target="_top" xlink:title="Store a 128 bit icon hash (profile picture, server icon etc) as a 128 bit binary value made of two ui...">
<polygon fill="white" stroke="black" points="185.5,-380.37 185.5,-399.37 303.5,-399.37 303.5,-380.37 185.5,-380.37"/>
<text text-anchor="middle" x="244.5" y="-387.37" font-family="Helvetica,sans-Serif" font-size="10.00">dpp::utility::iconhash</text>
</a>
</g>
</g>
<!-- Node12&#45;&gt;Node22 -->
<g id="edge27" class="edge">
<title>Node12&#45;&gt;Node22</title>
<path fill="none" stroke="#9a32cd" stroke-dasharray="5,2" d="M62.54,-544.28C80.21,-511.75 121.16,-444.58 175,-408.87 180.86,-404.98 187.51,-401.88 194.3,-399.42"/>
<polygon fill="#9a32cd" stroke="#9a32cd" points="59.41,-542.72 57.82,-553.19 65.6,-545.99 59.41,-542.72"/>
<text text-anchor="middle" x="139.5" y="-468.87" font-family="Helvetica,sans-Serif" font-size="10.00"> first</text>
<text text-anchor="middle" x="139.5" y="-457.87" font-family="Helvetica,sans-Serif" font-size="10.00">second</text>
</g>
<!-- Node13 -->
<g id="node13" class="node">
<title>Node13</title>
<g id="a_node13"><a xlink:title=" ">
<polygon fill="white" stroke="#bfbfbf" points="175,-888.37 175,-907.37 314,-907.37 314,-888.37 175,-888.37"/>
<text text-anchor="middle" x="244.5" y="-895.37" font-family="Helvetica,sans-Serif" font-size="10.00">function&lt; dpp::socket()&gt;</text>
</a>
</g>
</g>
<!-- Node13&#45;&gt;Node3 -->
<g id="edge12" class="edge">
<title>Node13&#45;&gt;Node3</title>
<path fill="none" stroke="#9a32cd" stroke-dasharray="5,2" d="M324.42,-892.89C363.38,-889.57 410.92,-884.23 453,-875.87 469.89,-872.51 488.4,-867.13 503.15,-862.42"/>
<polygon fill="#9a32cd" stroke="#9a32cd" points="323.87,-889.42 314.19,-893.73 324.45,-896.39 323.87,-889.42"/>
<text text-anchor="middle" x="392.5" y="-905.87" font-family="Helvetica,sans-Serif" font-size="10.00"> custom_readable_fd</text>
<text text-anchor="middle" x="392.5" y="-894.87" font-family="Helvetica,sans-Serif" font-size="10.00">custom_writeable_fd</text>
</g>
<!-- Node14 -->
<g id="node14" class="node">
<title>Node14</title>
<g id="a_node14"><a xlink:title=" ">
<polygon fill="white" stroke="#bfbfbf" points="192.5,-850.37 192.5,-869.37 296.5,-869.37 296.5,-850.37 192.5,-850.37"/>
<text text-anchor="middle" x="244.5" y="-857.37" font-family="Helvetica,sans-Serif" font-size="10.00">function&lt; void()&gt;</text>
</a>
</g>
</g>
<!-- Node14&#45;&gt;Node3 -->
<g id="edge13" class="edge">
<title>Node14&#45;&gt;Node3</title>
<path fill="none" stroke="#9a32cd" stroke-dasharray="5,2" d="M306.89,-855.13C315.32,-854.62 323.87,-854.17 332,-853.87 386.03,-851.86 448.37,-851.94 488.67,-852.3"/>
<polygon fill="#9a32cd" stroke="#9a32cd" points="306.46,-851.65 296.7,-855.77 306.9,-858.63 306.46,-851.65"/>
<text text-anchor="middle" x="392.5" y="-867.87" font-family="Helvetica,sans-Serif" font-size="10.00"> custom_readable_ready</text>
<text text-anchor="middle" x="392.5" y="-856.87" font-family="Helvetica,sans-Serif" font-size="10.00">custom_writeable_ready</text>
</g>
<!-- Node15&#45;&gt;Node1 -->
<g id="edge15" class="edge">
<title>Node15&#45;&gt;Node1</title>
<path fill="none" stroke="#9a32cd" stroke-dasharray="5,2" d="M840.43,-372.39C898.49,-403.69 1034.12,-476.82 1083.02,-503.18"/>
<polygon fill="#9a32cd" stroke="#9a32cd" points="841.95,-369.23 831.48,-367.57 838.63,-375.39 841.95,-369.23"/>
<text text-anchor="middle" x="961.5" y="-473.87" font-family="Helvetica,sans-Serif" font-size="10.00"> creator</text>
</g>
<!-- Node16 -->
<g id="node16" class="node">
<title>Node16</title>
<g id="a_node16"><a xlink:title=" ">
<polygon fill="white" stroke="#bfbfbf" points="216.5,-214.37 216.5,-233.37 272.5,-233.37 272.5,-214.37 216.5,-214.37"/>
<text text-anchor="middle" x="244.5" y="-221.37" font-family="Helvetica,sans-Serif" font-size="10.00">uint32_t</text>
</a>
</g>
</g>
<!-- Node16&#45;&gt;Node1 -->
<g id="edge34" class="edge">
<title>Node16&#45;&gt;Node1</title>
<path fill="none" stroke="#9a32cd" stroke-dasharray="5,2" d="M272.87,-209.75C347.12,-173.29 558.4,-81.67 732,-123.87 876.86,-159.09 934.69,-163.24 1030,-277.87 1089.13,-348.99 1099.03,-468.39 1100.68,-503.12"/>
<polygon fill="#9a32cd" stroke="#9a32cd" points="271.11,-206.72 263.72,-214.32 274.23,-212.99 271.11,-206.72"/>
<text text-anchor="middle" x="671.5" y="-181.87" font-family="Helvetica,sans-Serif" font-size="10.00"> heartbeat_interval</text>
<text text-anchor="middle" x="671.5" y="-170.87" font-family="Helvetica,sans-Serif" font-size="10.00">intents</text>
<text text-anchor="middle" x="671.5" y="-159.87" font-family="Helvetica,sans-Serif" font-size="10.00">max_shards</text>
<text text-anchor="middle" x="671.5" y="-148.87" font-family="Helvetica,sans-Serif" font-size="10.00">reconnects</text>
<text text-anchor="middle" x="671.5" y="-137.87" font-family="Helvetica,sans-Serif" font-size="10.00">resumes</text>
<text text-anchor="middle" x="671.5" y="-126.87" font-family="Helvetica,sans-Serif" font-size="10.00">shard_id</text>
</g>
<!-- Node16&#45;&gt;Node15 -->
<g id="edge18" class="edge">
<title>Node16&#45;&gt;Node15</title>
<path fill="none" stroke="#9a32cd" stroke-dasharray="5,2" d="M282.94,-225.28C382.91,-229.56 653.85,-244.74 732,-285.87 762.65,-302 790.73,-332.7 803.79,-348.29"/>
<polygon fill="#9a32cd" stroke="#9a32cd" points="282.84,-221.77 272.71,-224.85 282.55,-228.77 282.84,-221.77"/>
<text text-anchor="middle" x="532" y="-286.87" font-family="Helvetica,sans-Serif" font-size="10.00"> cluster_id</text>
<text text-anchor="middle" x="532" y="-275.87" font-family="Helvetica,sans-Serif" font-size="10.00">intents</text>
<text text-anchor="middle" x="532" y="-264.87" font-family="Helvetica,sans-Serif" font-size="10.00">maxclusters</text>
<text text-anchor="middle" x="532" y="-253.87" font-family="Helvetica,sans-Serif" font-size="10.00">numshards</text>
</g>
<!-- Node16&#45;&gt;Node18 -->
<g id="edge28" class="edge">
<title>Node16&#45;&gt;Node18</title>
<path fill="none" stroke="#9a32cd" stroke-dasharray="5,2" d="M282.8,-228.86C334.58,-236.3 425.03,-251.33 453,-268.87 464,-275.77 460.62,-284.08 471,-291.87 479.79,-298.47 490.65,-303.53 500.7,-307.27"/>
<polygon fill="#9a32cd" stroke="#9a32cd" points="283.08,-225.36 272.68,-227.43 282.1,-232.29 283.08,-225.36"/>
<text text-anchor="middle" x="392.5" y="-271.87" font-family="Helvetica,sans-Serif" font-size="10.00"> flags</text>
</g>
<!-- Node17 -->
<g id="node17" class="node">
<title>Node17</title>
<g id="a_node17"><a xlink:title=" ">
<polygon fill="white" stroke="#bfbfbf" points="507,-548.37 507,-567.37 557,-567.37 557,-548.37 507,-548.37"/>
<text text-anchor="middle" x="532" y="-555.37" font-family="Helvetica,sans-Serif" font-size="10.00">double</text>
</a>
</g>
</g>
<!-- Node17&#45;&gt;Node1 -->
<g id="edge40" class="edge">
<title>Node17&#45;&gt;Node1</title>
<path fill="none" stroke="#9a32cd" stroke-dasharray="5,2" d="M567.55,-561.1C581.08,-562.22 596.76,-563.33 611,-563.87 664.74,-565.94 678.35,-567.56 732,-563.87 845.55,-556.06 977.38,-534.89 1048.68,-522.41"/>
<polygon fill="#9a32cd" stroke="#9a32cd" points="567.48,-557.58 557.22,-560.22 566.88,-564.56 567.48,-557.58"/>
<text text-anchor="middle" x="812.5" y="-564.87" font-family="Helvetica,sans-Serif" font-size="10.00"> websocket_ping</text>
</g>
<!-- Node17&#45;&gt;Node15 -->
<g id="edge19" class="edge">
<title>Node17&#45;&gt;Node15</title>
<path fill="none" stroke="#9a32cd" stroke-dasharray="5,2" d="M567.31,-554.84C620.72,-549.85 719.03,-539.5 732,-529.87 787.99,-488.29 805.77,-397.62 810.22,-367.68"/>
<polygon fill="#9a32cd" stroke="#9a32cd" points="566.9,-551.36 557.26,-555.76 567.54,-558.33 566.9,-551.36"/>
<text text-anchor="middle" x="671.5" y="-552.87" font-family="Helvetica,sans-Serif" font-size="10.00"> rest_ping</text>
</g>
<!-- Node18&#45;&gt;Node15 -->
<g id="edge20" class="edge">
<title>Node18&#45;&gt;Node15</title>
<path fill="none" stroke="#9a32cd" stroke-dasharray="5,2" d="M573.06,-303.73C614.02,-293.35 678.99,-282.59 732,-299.87 761.24,-309.4 788.66,-334.21 802.37,-348.09"/>
<polygon fill="#9a32cd" stroke="#9a32cd" points="571.95,-300.4 563.18,-306.34 573.74,-307.16 571.95,-300.4"/>
<text text-anchor="middle" x="671.5" y="-302.87" font-family="Helvetica,sans-Serif" font-size="10.00"> me</text>
</g>
<!-- Node19&#45;&gt;Node18 -->
<g id="edge21" class="edge">
<title>Node19&#45;&gt;Node18</title>
<path fill="none" stroke="midnightblue" d="M297.68,-346.38C339.68,-341.84 400.21,-334.98 453,-327.87 468.75,-325.75 486.24,-323.09 500.66,-320.81"/>
<polygon fill="midnightblue" stroke="midnightblue" points="297.25,-342.91 287.68,-347.46 298,-349.87 297.25,-342.91"/>
</g>
<!-- Node20 -->
<g id="node20" class="node">
<title>Node20</title>
<g id="a_node20"><a xlink:href="structdpp_1_1json__interface.html" target="_top" xlink:title=" ">
<polygon fill="white" stroke="black" points="189.5,-254.87 189.5,-284.87 299.5,-284.87 299.5,-254.87 189.5,-254.87"/>
<text text-anchor="start" x="197.5" y="-272.87" font-family="Helvetica,sans-Serif" font-size="10.00">dpp::json_interface</text>
<text text-anchor="middle" x="244.5" y="-261.87" font-family="Helvetica,sans-Serif" font-size="10.00">&lt; user &gt;</text>
</a>
</g>
</g>
<!-- Node20&#45;&gt;Node18 -->
<g id="edge23" class="edge">
<title>Node20&#45;&gt;Node18</title>
<path fill="none" stroke="midnightblue" d="M309.62,-280.2C369.32,-289.82 455.7,-303.74 500.88,-311.02"/>
<polygon fill="midnightblue" stroke="midnightblue" points="309.97,-276.71 299.54,-278.58 308.85,-283.62 309.97,-276.71"/>
</g>
<!-- Node21 -->
<g id="node21" class="node">
<title>Node21</title>
<g id="a_node21"><a xlink:title=" ">
<polygon fill="white" stroke="#bfbfbf" points="216.5,-418.37 216.5,-437.37 272.5,-437.37 272.5,-418.37 216.5,-418.37"/>
<text text-anchor="middle" x="244.5" y="-425.37" font-family="Helvetica,sans-Serif" font-size="10.00">uint16_t</text>
</a>
</g>
</g>
<!-- Node21&#45;&gt;Node18 -->
<g id="edge25" class="edge">
<title>Node21&#45;&gt;Node18</title>
<path fill="none" stroke="#9a32cd" stroke-dasharray="5,2" d="M282.83,-419.96C298.07,-416.76 315.87,-413.08 332,-409.87 385.69,-399.18 411.58,-422.67 453,-386.87 471.5,-370.88 453.48,-351.93 471,-334.87 479.06,-327.02 490.35,-322.41 500.96,-319.71"/>
<polygon fill="#9a32cd" stroke="#9a32cd" points="281.81,-416.59 272.75,-422.08 283.25,-423.44 281.81,-416.59"/>
<text text-anchor="middle" x="392.5" y="-412.87" font-family="Helvetica,sans-Serif" font-size="10.00"> discriminator</text>
</g>
<!-- Node22&#45;&gt;Node18 -->
<g id="edge26" class="edge">
<title>Node22&#45;&gt;Node18</title>
<path fill="none" stroke="#9a32cd" stroke-dasharray="5,2" d="M310.41,-378.6C366.32,-368.64 440.02,-354.8 453,-348.87 462.22,-344.67 462.03,-339.59 471,-334.87 480.29,-329.99 491.04,-326.1 500.87,-323.14"/>
<polygon fill="#9a32cd" stroke="#9a32cd" points="309.79,-375.16 300.55,-380.35 311.01,-382.05 309.79,-375.16"/>
<text text-anchor="middle" x="392.5" y="-376.87" font-family="Helvetica,sans-Serif" font-size="10.00"> avatar</text>
</g>
<!-- Node23 -->
<g id="node23" class="node">
<title>Node23</title>
<g id="a_node23"><a xlink:title=" ">
<polygon fill="white" stroke="#bfbfbf" points="219.5,-304.37 219.5,-323.37 269.5,-323.37 269.5,-304.37 219.5,-304.37"/>
<text text-anchor="middle" x="244.5" y="-311.37" font-family="Helvetica,sans-Serif" font-size="10.00">uint8_t</text>
</a>
</g>
</g>
<!-- Node23&#45;&gt;Node18 -->
<g id="edge29" class="edge">
<title>Node23&#45;&gt;Node18</title>
<path fill="none" stroke="#9a32cd" stroke-dasharray="5,2" d="M280.04,-314.11C336.43,-314.51 447.34,-315.29 500.79,-315.66"/>
<polygon fill="#9a32cd" stroke="#9a32cd" points="279.87,-310.61 269.84,-314.04 279.82,-317.61 279.87,-310.61"/>
<text text-anchor="middle" x="392.5" y="-317.87" font-family="Helvetica,sans-Serif" font-size="10.00"> refcount</text>
</g>
<!-- Node24 -->
<g id="node24" class="node">
<title>Node24</title>
<g id="a_node24"><a xlink:href="structdpp_1_1cache__policy__t.html" target="_top" xlink:title="Represents the caching policy of the cluster.">
<polygon fill="white" stroke="black" points="475.5,-344.37 475.5,-363.37 588.5,-363.37 588.5,-344.37 475.5,-344.37"/>
<text text-anchor="middle" x="532" y="-351.37" font-family="Helvetica,sans-Serif" font-size="10.00">dpp::cache_policy_t</text>
</a>
</g>
</g>
<!-- Node24&#45;&gt;Node15 -->
<g id="edge30" class="edge">
<title>Node24&#45;&gt;Node15</title>
<path fill="none" stroke="#9a32cd" stroke-dasharray="5,2" d="M577.08,-341.03C582.5,-339.13 587.92,-337.06 593,-334.87 601.4,-331.25 602.14,-327.17 611,-324.87 663.06,-311.38 679.26,-314.36 732,-324.87 754.42,-329.34 778.44,-340.26 794.14,-348.32"/>
<polygon fill="#9a32cd" stroke="#9a32cd" points="575.75,-337.79 567.39,-344.29 577.98,-344.42 575.75,-337.79"/>
<text text-anchor="middle" x="671.5" y="-327.87" font-family="Helvetica,sans-Serif" font-size="10.00"> cache_policy</text>
</g>
<!-- Node25 -->
<g id="node25" class="node">
<title>Node25</title>
<g id="a_node25"><a xlink:title=" ">
<polygon fill="white" stroke="#bfbfbf" points="180.5,-456.37 180.5,-475.37 308.5,-475.37 308.5,-456.37 180.5,-456.37"/>
<text text-anchor="middle" x="244.5" y="-463.37" font-family="Helvetica,sans-Serif" font-size="10.00">cache_policy_setting_t</text>
</a>
</g>
</g>
<!-- Node25&#45;&gt;Node24 -->
<g id="edge31" class="edge">
<title>Node25&#45;&gt;Node24</title>
<path fill="none" stroke="#9a32cd" stroke-dasharray="5,2" d="M290.96,-453.75C304.16,-450.39 318.62,-446.84 332,-443.87 385.44,-432.01 411.13,-456.13 453,-420.87 470.43,-406.2 454.48,-388.56 471,-372.87 475.12,-368.96 480.04,-365.85 485.27,-363.39"/>
<polygon fill="#9a32cd" stroke="#9a32cd" points="289.96,-450.4 281.15,-456.28 291.71,-457.17 289.96,-450.4"/>
<text text-anchor="middle" x="392.5" y="-468.87" font-family="Helvetica,sans-Serif" font-size="10.00"> emoji_policy</text>
<text text-anchor="middle" x="392.5" y="-457.87" font-family="Helvetica,sans-Serif" font-size="10.00">role_policy</text>
<text text-anchor="middle" x="392.5" y="-446.87" font-family="Helvetica,sans-Serif" font-size="10.00">user_policy</text>
</g>
<!-- Node26 -->
<g id="node26" class="node">
<title>Node26</title>
<g id="a_node26"><a xlink:title=" ">
<polygon fill="white" stroke="#bfbfbf" points="471,-188.37 471,-207.37 593,-207.37 593,-188.37 471,-188.37"/>
<text text-anchor="middle" x="532" y="-195.37" font-family="Helvetica,sans-Serif" font-size="10.00">websocket_protocol_t</text>
</a>
</g>
</g>
<!-- Node26&#45;&gt;Node1 -->
<g id="edge41" class="edge">
<title>Node26&#45;&gt;Node1</title>
<path fill="none" stroke="#9a32cd" stroke-dasharray="5,2" d="M603.38,-194.57C642.2,-194.78 690.74,-198.41 732,-211.87 880.65,-260.36 919.62,-288.12 1030,-398.87 1062.75,-431.74 1087.49,-482.39 1096.88,-503.32"/>
<polygon fill="#9a32cd" stroke="#9a32cd" points="603.22,-191.07 593.22,-194.59 603.23,-198.07 603.22,-191.07"/>
<text text-anchor="middle" x="812.5" y="-270.87" font-family="Helvetica,sans-Serif" font-size="10.00"> protocol</text>
</g>
<!-- Node26&#45;&gt;Node15 -->
<g id="edge32" class="edge">
<title>Node26&#45;&gt;Node15</title>
<path fill="none" stroke="#9a32cd" stroke-dasharray="5,2" d="M603.35,-208.51C658.38,-217.05 726.5,-228.2 732,-231.87 776.1,-261.31 800.55,-324.4 808.54,-348.37"/>
<polygon fill="#9a32cd" stroke="#9a32cd" points="603.66,-205.02 593.24,-206.95 602.59,-211.93 603.66,-205.02"/>
<text text-anchor="middle" x="671.5" y="-234.87" font-family="Helvetica,sans-Serif" font-size="10.00"> ws_mode</text>
</g>
<!-- Node27 -->
<g id="node27" class="node">
<title>Node27</title>
<g id="a_node27"><a xlink:title=" ">
<polygon fill="white" stroke="#bfbfbf" points="484,-382.37 484,-401.37 580,-401.37 580,-382.37 484,-382.37"/>
<text text-anchor="middle" x="532" y="-389.37" font-family="Helvetica,sans-Serif" font-size="10.00">event_router_t&lt;</text>
</a>
</g>
</g>
<!-- Node27&#45;&gt;Node15 -->
<g id="edge33" class="edge">
<title>Node27&#45;&gt;Node15</title>
<path fill="none" stroke="#9a32cd" stroke-dasharray="5,2" d="M579.74,-378.88C584.32,-377.08 588.81,-375.08 593,-372.87 601.97,-368.16 601.42,-362.19 611,-358.87 665.77,-339.93 734.11,-345.2 775.2,-351.21"/>
<polygon fill="#9a32cd" stroke="#9a32cd" points="578.52,-375.6 570.32,-382.31 580.92,-382.18 578.52,-375.6"/>
<text text-anchor="middle" x="671.5" y="-471.87" font-family="Helvetica,sans-Serif" font-size="10.00"> on_autocomplete</text>
<text text-anchor="middle" x="671.5" y="-460.87" font-family="Helvetica,sans-Serif" font-size="10.00">on_button_click</text>
<text text-anchor="middle" x="671.5" y="-449.87" font-family="Helvetica,sans-Serif" font-size="10.00">on_channel_create</text>
<text text-anchor="middle" x="671.5" y="-438.87" font-family="Helvetica,sans-Serif" font-size="10.00">on_channel_delete</text>
<text text-anchor="middle" x="671.5" y="-427.87" font-family="Helvetica,sans-Serif" font-size="10.00">on_channel_pins_update</text>
<text text-anchor="middle" x="671.5" y="-416.87" font-family="Helvetica,sans-Serif" font-size="10.00">on_channel_update</text>
<text text-anchor="middle" x="671.5" y="-405.87" font-family="Helvetica,sans-Serif" font-size="10.00">on_form_submit</text>
<text text-anchor="middle" x="671.5" y="-394.87" font-family="Helvetica,sans-Serif" font-size="10.00">on_guild_ban_add</text>
<text text-anchor="middle" x="671.5" y="-383.87" font-family="Helvetica,sans-Serif" font-size="10.00">on_guild_ban_remove</text>
<text text-anchor="middle" x="671.5" y="-372.87" font-family="Helvetica,sans-Serif" font-size="10.00">on_guild_create</text>
<text text-anchor="middle" x="671.5" y="-361.87" font-family="Helvetica,sans-Serif" font-size="10.00">...</text>
</g>
<!-- Node28 -->
<g id="node28" class="node">
<title>Node28</title>
<g id="a_node28"><a xlink:title=" ">
<polygon fill="white" stroke="#bfbfbf" points="756,-87.37 756,-106.37 869,-106.37 869,-87.37 756,-87.37"/>
<text text-anchor="middle" x="812.5" y="-94.37" font-family="Helvetica,sans-Serif" font-size="10.00">native_handle_type</text>
</a>
</g>
</g>
<!-- Node28&#45;&gt;Node1 -->
<g id="edge36" class="edge">
<title>Node28&#45;&gt;Node1</title>
<path fill="none" stroke="#9a32cd" stroke-dasharray="5,2" d="M857.51,-85.17C906,-75.17 983.3,-68.23 1030,-109.87 1091.11,-164.36 1099.73,-447.44 1100.85,-503.3"/>
<polygon fill="#9a32cd" stroke="#9a32cd" points="856.64,-81.78 847.62,-87.33 858.13,-88.62 856.64,-81.78"/>
<text text-anchor="middle" x="961.5" y="-112.87" font-family="Helvetica,sans-Serif" font-size="10.00"> thread_id</text>
</g>
<!-- Node29 -->
<g id="node29" class="node">
<title>Node29</title>
<g id="a_node29"><a xlink:title=" ">
<polygon fill="white" stroke="#bfbfbf" points="778,-49.37 778,-68.37 847,-68.37 847,-49.37 778,-49.37"/>
<text text-anchor="middle" x="812.5" y="-56.37" font-family="Helvetica,sans-Serif" font-size="10.00">std::mutex</text>
</a>
</g>
</g>
<!-- Node29&#45;&gt;Node1 -->
<g id="edge39" class="edge">
<title>Node29&#45;&gt;Node1</title>
<path fill="none" stroke="#9a32cd" stroke-dasharray="5,2" d="M857.25,-53.12C913,-46.84 1005.13,-40.31 1030,-61.87 1099.47,-122.1 1101.34,-443.57 1101.08,-503.31"/>
<polygon fill="#9a32cd" stroke="#9a32cd" points="856.81,-49.65 847.28,-54.29 857.62,-56.6 856.81,-49.65"/>
<text text-anchor="middle" x="961.5" y="-64.87" font-family="Helvetica,sans-Serif" font-size="10.00"> voice_mutex</text>
</g>
<!-- Node30 -->
<g id="node30" class="node">
<title>Node30</title>
<g id="a_node30"><a xlink:title=" ">
<polygon fill="white" stroke="#bfbfbf" points="762,-11.37 762,-30.37 863,-30.37 863,-11.37 762,-11.37"/>
<text text-anchor="middle" x="812.5" y="-18.37" font-family="Helvetica,sans-Serif" font-size="10.00">unordered_map&lt;</text>
</a>
</g>
</g>
<!-- Node30&#45;&gt;Node1 -->
<g id="edge42" class="edge">
<title>Node30&#45;&gt;Node1</title>
<path fill="none" stroke="#9a32cd" stroke-dasharray="5,2" d="M856.06,-9.05C904.6,1.6 983.27,9.77 1030,-32.87 1102.34,-98.88 1101.84,-440.91 1101.14,-503.15"/>
<polygon fill="#9a32cd" stroke="#9a32cd" points="855.13,-5.67 846.18,-11.34 856.71,-12.49 855.13,-5.67"/>
<text text-anchor="middle" x="961.5" y="-35.87" font-family="Helvetica,sans-Serif" font-size="10.00"> connecting_voice_channels</text>
</g>
</g>
</svg>
        <g id="navigator" transform="translate(0 0)" fill="#404254">
                <rect fill="#f2f5e9" fill-opacity="0.5" stroke="#606060" stroke-width=".5" x="0" y="0" width="60" height="60"/>
                <use id="zoomplus" xlink:href="#zoomPlus" x="17" y="9" onmousedown="handleZoom(evt,'in')"/>
                <use id="zoomminus" xlink:href="#zoomMin" x="42" y="9" onmousedown="handleZoom(evt,'out')"/>
                <use id="reset" xlink:href="#resetDef" x="30" y="36" onmousedown="handleReset()"/>
                <g id="arrowUp" xlink:href="#dirArrow" transform="translate(30 24)" onmousedown="handlePan(0,-1)">
                  <use xlink:href="#rim" fill="#404040">
                        <set attributeName="fill" to="#808080" begin="arrowUp.mouseover" end="arrowUp.mouseout"/>
                  </use>
                  <path fill="none" stroke="white" stroke-width="1.5" d="M0,-3.0v7 M-2.5,-0.5L0,-3.0L2.5,-0.5"/>
                </g>
                <g id="arrowRight" xlink:href="#dirArrow" transform="rotate(90) translate(36 -43)" onmousedown="handlePan(1,0)">
                  <use xlink:href="#rim" fill="#404040">
                        <set attributeName="fill" to="#808080" begin="arrowRight.mouseover" end="arrowRight.mouseout"/>
                  </use>
                  <path fill="none" stroke="white" stroke-width="1.5" d="M0,-3.0v7 M-2.5,-0.5L0,-3.0L2.5,-0.5"/>
                </g>
                <g id="arrowDown" xlink:href="#dirArrow" transform="rotate(180) translate(-30 -48)" onmousedown="handlePan(0,1)">
                  <use xlink:href="#rim" fill="#404040">
                        <set attributeName="fill" to="#808080" begin="arrowDown.mouseover" end="arrowDown.mouseout"/>
                  </use>
                  <path fill="none" stroke="white" stroke-width="1.5" d="M0,-3.0v7 M-2.5,-0.5L0,-3.0L2.5,-0.5"/>
                </g>
                <g id="arrowLeft" xlink:href="#dirArrow" transform="rotate(270) translate(-36 17)" onmousedown="handlePan(-1,0)">
                  <use xlink:href="#rim" fill="#404040">
                        <set attributeName="fill" to="#808080" begin="arrowLeft.mouseover" end="arrowLeft.mouseout"/>
                  </use>
                  <path fill="none" stroke="white" stroke-width="1.5" d="M0,-3.0v7 M-2.5,-0.5L0,-3.0L2.5,-0.5"/>
                </g>
        </g>
        <svg viewBox="0 0 15 15" width="100%" height="30px" preserveAspectRatio="xMaxYMin meet">
         <g id="arrow_out" transform="scale(0.3 0.3)">
          <a xlink:href="classdpp_1_1discord__client__coll__graph_org.svg" target="_base">
           <rect id="button" ry="5" rx="5" y="6" x="6" height="38" width="38"
                fill="#f2f5e9" fill-opacity="0.5" stroke="#606060" stroke-width="1.0"/>
           <path id="arrow"
             d="M 11.500037,31.436501 C 11.940474,20.09759 22.043105,11.32322 32.158766,21.979434 L 37.068811,17.246167 C 37.068811,17.246167 37.088388,32 37.088388,32 L 22.160133,31.978069 C 22.160133,31.978069 26.997745,27.140456 26.997745,27.140456 C 18.528582,18.264221 13.291696,25.230495 11.500037,31.436501 z"
             style="fill:#404040;"/>
          </a>
         </g>
        </svg>
</svg>
