<?xml version="1.0" encoding="UTF-8" standalone="no"?>
<!DOCTYPE svg PUBLIC "-//W3C//DTD SVG 1.1//EN"
 "http://www.w3.org/Graphics/SVG/1.1/DTD/svg11.dtd">
<!-- Generated by graphviz version 2.43.0 (0)
 -->
<!-- Title: dpp::user Pages: 1 -->
<!--zoomable 377 -->
<svg id="main" version="1.1" xmlns="http://www.w3.org/2000/svg" xmlns:xlink="http://www.w3.org/1999/xlink" xml:space="preserve" onload="init(evt)">
<style type="text/css"><![CDATA[
.edge:hover path { stroke: red; }
.edge:hover polygon { stroke: red; fill: red; }
]]></style>
<script type="text/javascript"><![CDATA[
var edges = document.getElementsByTagName('g');
if (edges && edges.length) {
  for (var i=0;i<edges.length;i++) {
    if (edges[i].id.substr(0,4)=='edge') {
      edges[i].setAttribute('class','edge');
    }
  }
}
]]></script>
        <defs>
                <circle id="rim" cx="0" cy="0" r="7"/>
                <circle id="rim2" cx="0" cy="0" r="3.5"/>
                <g id="zoomPlus">
                        <use xlink:href="#rim" fill="#404040">
                                <set attributeName="fill" to="#808080" begin="zoomplus.mouseover" end="zoomplus.mouseout"/>
                        </use>
                        <path d="M-4,0h8M0,-4v8" fill="none" stroke="white" stroke-width="1.5" pointer-events="none"/>
                </g>
                <g id="zoomMin">
                        <use xlink:href="#rim" fill="#404040">
                                <set attributeName="fill" to="#808080" begin="zoomminus.mouseover" end="zoomminus.mouseout"/>
                        </use>
                        <path d="M-4,0h8" fill="none" stroke="white" stroke-width="1.5" pointer-events="none"/>
                </g>
                <g id="dirArrow">
                        <path fill="none" stroke="white" stroke-width="1.5" d="M0,-3.0v7 M-2.5,-0.5L0,-3.0L2.5,-0.5"/>
                </g>
               <g id="resetDef">
                       <use xlink:href="#rim2" fill="#404040">
                               <set attributeName="fill" to="#808080" begin="reset.mouseover" end="reset.mouseout"/>
                       </use>
               </g>
        </defs>

<script type="text/javascript">
var viewWidth = 710;
var viewHeight = 377;
var sectionId = 'dynsection-1';
</script>
<script xlink:href="svgpan.js"/>
<svg id="graph" class="graph">
<g id="viewport">
<title>dpp::user</title>
<!-- Node1 -->
<g id="node1" class="node">
<title>Node1</title>
<g id="a_node1"><a xlink:title="Represents a user on discord. May or may not be a member of a dpp::guild.">
<polygon fill="#bfbfbf" stroke="black" points="640,-151.5 640,-170.5 702,-170.5 702,-151.5 640,-151.5"/>
<text text-anchor="middle" x="671" y="-158.5" font-family="Helvetica,sans-Serif" font-size="10.00">dpp::user</text>
</a>
</g>
</g>
<!-- Node2 -->
<g id="node2" class="node">
<title>Node2</title>
<g id="a_node2"><a xlink:href="classdpp_1_1managed.html" target="_top" xlink:title="The managed class is the base class for various types that can be stored in a cache that are identifi...">
<polygon fill="none" stroke="black" points="421.5,-278.5 421.5,-297.5 507.5,-297.5 507.5,-278.5 421.5,-278.5"/>
<text text-anchor="middle" x="464.5" y="-285.5" font-family="Helvetica,sans-Serif" font-size="10.00">dpp::managed</text>
</a>
</g>
</g>
<!-- Node2&#45;&gt;Node1 -->
<g id="edge1" class="edge">
<title>Node2&#45;&gt;Node1</title>
<path fill="none" stroke="midnightblue" d="M517.87,-282.92C550.61,-277.48 592.09,-266.24 622,-243 646.75,-223.77 661.2,-187.91 667.01,-170.71"/>
<polygon fill="midnightblue" stroke="midnightblue" points="516.93,-279.52 507.58,-284.49 517.99,-286.44 516.93,-279.52"/>
</g>
<!-- Node3 -->
<g id="node3" class="node">
<title>Node3</title>
<g id="a_node3"><a xlink:href="classdpp_1_1snowflake.html" target="_top" xlink:title="A container for a 64 bit unsigned value representing many things on discord. This value is known in d...">
<polygon fill="none" stroke="black" points="199.5,-285.5 199.5,-304.5 288.5,-304.5 288.5,-285.5 199.5,-285.5"/>
<text text-anchor="middle" x="244" y="-292.5" font-family="Helvetica,sans-Serif" font-size="10.00">dpp::snowflake</text>
</a>
</g>
</g>
<!-- Node3&#45;&gt;Node2 -->
<g id="edge2" class="edge">
<title>Node3&#45;&gt;Node2</title>
<path fill="none" stroke="#9a32cd" stroke-dasharray="5,2" d="M298.84,-301.83C323.06,-303.98 351.99,-305.26 378,-303 392.11,-301.77 407.39,-299.42 421.07,-296.94"/>
<polygon fill="#9a32cd" stroke="#9a32cd" points="299.06,-298.33 288.77,-300.86 298.39,-305.3 299.06,-298.33"/>
<text text-anchor="middle" x="354.5" y="-307" font-family="Helvetica,sans-Serif" font-size="10.00"> id</text>
</g>
<!-- Node10 -->
<g id="node10" class="node">
<title>Node10</title>
<g id="a_node10"><a xlink:href="structdpp_1_1utility_1_1primaryguild.html" target="_top" xlink:title="User&#39;s primary guild (server tag)">
<polygon fill="none" stroke="black" points="396,-230.5 396,-249.5 533,-249.5 533,-230.5 396,-230.5"/>
<text text-anchor="middle" x="464.5" y="-237.5" font-family="Helvetica,sans-Serif" font-size="10.00">dpp::utility::primaryguild</text>
</a>
</g>
</g>
<!-- Node3&#45;&gt;Node10 -->
<g id="edge11" class="edge">
<title>Node3&#45;&gt;Node10</title>
<path fill="none" stroke="#9a32cd" stroke-dasharray="5,2" d="M298.37,-283.76C322.74,-278.43 351.92,-271.75 378,-265 396.12,-260.31 416.21,-254.47 432.36,-249.61"/>
<polygon fill="#9a32cd" stroke="#9a32cd" points="297.62,-280.34 288.59,-285.89 299.11,-287.18 297.62,-280.34"/>
<text text-anchor="middle" x="354.5" y="-278" font-family="Helvetica,sans-Serif" font-size="10.00"> id</text>
</g>
<!-- Node4 -->
<g id="node4" class="node">
<title>Node4</title>
<g id="a_node4"><a xlink:title=" ">
<polygon fill="none" stroke="#bfbfbf" points="24,-239.5 24,-258.5 80,-258.5 80,-239.5 24,-239.5"/>
<text text-anchor="middle" x="52" y="-246.5" font-family="Helvetica,sans-Serif" font-size="10.00">uint64_t</text>
</a>
</g>
</g>
<!-- Node4&#45;&gt;Node3 -->
<g id="edge3" class="edge">
<title>Node4&#45;&gt;Node3</title>
<path fill="none" stroke="#9a32cd" stroke-dasharray="5,2" d="M90.28,-258.03C122.96,-265.94 170.31,-277.4 203.6,-285.46"/>
<polygon fill="#9a32cd" stroke="#9a32cd" points="90.77,-254.54 80.22,-255.59 89.12,-261.35 90.77,-254.54"/>
<text text-anchor="middle" x="139.5" y="-276" font-family="Helvetica,sans-Serif" font-size="10.00"> value</text>
</g>
<!-- Node9 -->
<g id="node9" class="node">
<title>Node9</title>
<g id="a_node9"><a xlink:href="structdpp_1_1utility_1_1iconhash.html" target="_top" xlink:title="Store a 128 bit icon hash (profile picture, server icon etc) as a 128 bit binary value made of two ui...">
<polygon fill="none" stroke="black" points="185,-209.5 185,-228.5 303,-228.5 303,-209.5 185,-209.5"/>
<text text-anchor="middle" x="244" y="-216.5" font-family="Helvetica,sans-Serif" font-size="10.00">dpp::utility::iconhash</text>
</a>
</g>
</g>
<!-- Node4&#45;&gt;Node9 -->
<g id="edge9" class="edge">
<title>Node4&#45;&gt;Node9</title>
<path fill="none" stroke="#9a32cd" stroke-dasharray="5,2" d="M90.38,-243.1C117.3,-238.85 154.15,-233.03 184.89,-228.18"/>
<polygon fill="#9a32cd" stroke="#9a32cd" points="89.55,-239.68 80.22,-244.7 90.65,-246.6 89.55,-239.68"/>
<text text-anchor="middle" x="139.5" y="-251" font-family="Helvetica,sans-Serif" font-size="10.00"> first</text>
<text text-anchor="middle" x="139.5" y="-240" font-family="Helvetica,sans-Serif" font-size="10.00">second</text>
</g>
<!-- Node5 -->
<g id="node5" class="node">
<title>Node5</title>
<g id="a_node5"><a xlink:href="structdpp_1_1json__interface.html" target="_top" xlink:title=" ">
<polygon fill="none" stroke="black" points="409.5,-335 409.5,-365 519.5,-365 519.5,-335 409.5,-335"/>
<text text-anchor="start" x="417.5" y="-353" font-family="Helvetica,sans-Serif" font-size="10.00">dpp::json_interface</text>
<text text-anchor="middle" x="464.5" y="-342" font-family="Helvetica,sans-Serif" font-size="10.00">&lt; user &gt;</text>
</a>
</g>
</g>
<!-- Node5&#45;&gt;Node1 -->
<g id="edge4" class="edge">
<title>Node5&#45;&gt;Node1</title>
<path fill="none" stroke="midnightblue" d="M525.95,-331.29C557.94,-318.81 595.89,-299.56 622,-272 650.73,-241.67 663.8,-191.42 668.19,-170.55"/>
<polygon fill="midnightblue" stroke="midnightblue" points="524.36,-328.15 516.24,-334.95 526.83,-334.7 524.36,-328.15"/>
</g>
<!-- Node6 -->
<g id="node6" class="node">
<title>Node6</title>
<g id="a_node6"><a xlink:href="structdpp_1_1json__interface.html" target="_top" xlink:title="Represents an interface for an object that can optionally implement functions for converting to and f...">
<polygon fill="none" stroke="black" points="175,-349.5 175,-368.5 313,-368.5 313,-349.5 175,-349.5"/>
<text text-anchor="middle" x="244" y="-356.5" font-family="Helvetica,sans-Serif" font-size="10.00">dpp::json_interface&lt; T &gt;</text>
</a>
</g>
</g>
<!-- Node6&#45;&gt;Node5 -->
<g id="edge5" class="edge">
<title>Node6&#45;&gt;Node5</title>
<path fill="none" stroke="orange" stroke-dasharray="5,2" d="M323.55,-355.76C351.97,-354.59 383.4,-353.3 409.26,-352.23"/>
<polygon fill="orange" stroke="orange" points="323.08,-352.28 313.24,-356.19 323.37,-359.27 323.08,-352.28"/>
<text text-anchor="middle" x="354.5" y="-358" font-family="Helvetica,sans-Serif" font-size="10.00"> &lt; user &gt;</text>
</g>
<!-- Node7 -->
<g id="node7" class="node">
<title>Node7</title>
<g id="a_node7"><a xlink:title=" ">
<polygon fill="none" stroke="#bfbfbf" points="211.5,-138.5 211.5,-157.5 276.5,-157.5 276.5,-138.5 211.5,-138.5"/>
<text text-anchor="middle" x="244" y="-145.5" font-family="Helvetica,sans-Serif" font-size="10.00">std::string</text>
</a>
</g>
</g>
<!-- Node7&#45;&gt;Node1 -->
<g id="edge6" class="edge">
<title>Node7&#45;&gt;Node1</title>
<path fill="none" stroke="#9a32cd" stroke-dasharray="5,2" d="M286.81,-146.1C342.88,-143.92 445.52,-141.23 533,-146 569.91,-148.01 612.17,-153.06 639.88,-156.75"/>
<polygon fill="#9a32cd" stroke="#9a32cd" points="286.42,-142.61 276.57,-146.51 286.7,-149.61 286.42,-142.61"/>
<text text-anchor="middle" x="464.5" y="-160" font-family="Helvetica,sans-Serif" font-size="10.00"> global_name</text>
<text text-anchor="middle" x="464.5" y="-149" font-family="Helvetica,sans-Serif" font-size="10.00">username</text>
</g>
<!-- Node7&#45;&gt;Node10 -->
<g id="edge13" class="edge">
<title>Node7&#45;&gt;Node10</title>
<path fill="none" stroke="#9a32cd" stroke-dasharray="5,2" d="M273.92,-161.87C304.09,-176.14 352.92,-198.67 396,-216 408.69,-221.1 422.94,-226.25 435.06,-230.47"/>
<polygon fill="#9a32cd" stroke="#9a32cd" points="275.34,-158.67 264.81,-157.54 272.34,-164.99 275.34,-158.67"/>
<text text-anchor="middle" x="354.5" y="-210" font-family="Helvetica,sans-Serif" font-size="10.00"> tag</text>
</g>
<!-- Node8 -->
<g id="node8" class="node">
<title>Node8</title>
<g id="a_node8"><a xlink:title=" ">
<polygon fill="none" stroke="#bfbfbf" points="0,-133 0,-163 104,-163 104,-133 0,-133"/>
<text text-anchor="start" x="8" y="-151" font-family="Helvetica,sans-Serif" font-size="10.00">std::basic_string&lt;</text>
<text text-anchor="middle" x="52" y="-140" font-family="Helvetica,sans-Serif" font-size="10.00"> Char &gt;</text>
</a>
</g>
</g>
<!-- Node8&#45;&gt;Node7 -->
<g id="edge7" class="edge">
<title>Node8&#45;&gt;Node7</title>
<path fill="none" stroke="midnightblue" d="M114.44,-148C146.78,-148 185.08,-148 211.41,-148"/>
<polygon fill="midnightblue" stroke="midnightblue" points="114.17,-144.5 104.17,-148 114.17,-151.5 114.17,-144.5"/>
</g>
<!-- Node9&#45;&gt;Node1 -->
<g id="edge8" class="edge">
<title>Node9&#45;&gt;Node1</title>
<path fill="none" stroke="#9a32cd" stroke-dasharray="5,2" d="M313.18,-209.7C407.11,-196.88 572.35,-174.33 639.92,-165.1"/>
<polygon fill="#9a32cd" stroke="#9a32cd" points="312.64,-206.24 303.2,-211.06 313.58,-213.17 312.64,-206.24"/>
<text text-anchor="middle" x="464.5" y="-211" font-family="Helvetica,sans-Serif" font-size="10.00"> avatar</text>
<text text-anchor="middle" x="464.5" y="-200" font-family="Helvetica,sans-Serif" font-size="10.00">avatar_decoration</text>
</g>
<!-- Node9&#45;&gt;Node10 -->
<g id="edge14" class="edge">
<title>Node9&#45;&gt;Node10</title>
<path fill="none" stroke="#9a32cd" stroke-dasharray="5,2" d="M313.3,-224.97C334.08,-226.83 356.98,-228.95 378,-231 383.79,-231.57 389.81,-232.17 395.84,-232.78"/>
<polygon fill="#9a32cd" stroke="#9a32cd" points="313.56,-221.47 303.28,-224.07 312.93,-228.45 313.56,-221.47"/>
<text text-anchor="middle" x="354.5" y="-234" font-family="Helvetica,sans-Serif" font-size="10.00"> badge</text>
</g>
<!-- Node10&#45;&gt;Node1 -->
<g id="edge10" class="edge">
<title>Node10&#45;&gt;Node1</title>
<path fill="none" stroke="#9a32cd" stroke-dasharray="5,2" d="M543.05,-230.16C569.13,-224.8 597.75,-216.57 622,-204 638.09,-195.66 653.04,-180.65 661.85,-170.76"/>
<polygon fill="#9a32cd" stroke="#9a32cd" points="542.34,-226.73 533.19,-232.07 543.68,-233.6 542.34,-226.73"/>
<text text-anchor="middle" x="586.5" y="-231" font-family="Helvetica,sans-Serif" font-size="10.00"> primary_guild</text>
</g>
<!-- Node11 -->
<g id="node11" class="node">
<title>Node11</title>
<g id="a_node11"><a xlink:title=" ">
<polygon fill="none" stroke="#bfbfbf" points="225,-247.5 225,-266.5 263,-266.5 263,-247.5 225,-247.5"/>
<text text-anchor="middle" x="244" y="-254.5" font-family="Helvetica,sans-Serif" font-size="10.00">bool</text>
</a>
</g>
</g>
<!-- Node11&#45;&gt;Node10 -->
<g id="edge12" class="edge">
<title>Node11&#45;&gt;Node10</title>
<path fill="none" stroke="#9a32cd" stroke-dasharray="5,2" d="M273.28,-254.8C304.08,-252.4 354.43,-248.49 395.6,-245.28"/>
<polygon fill="#9a32cd" stroke="#9a32cd" points="272.95,-251.31 263.25,-255.58 273.49,-258.29 272.95,-251.31"/>
<text text-anchor="middle" x="354.5" y="-253" font-family="Helvetica,sans-Serif" font-size="10.00"> enabled</text>
</g>
<!-- Node12 -->
<g id="node12" class="node">
<title>Node12</title>
<g id="a_node12"><a xlink:title=" ">
<polygon fill="none" stroke="#bfbfbf" points="436.5,-76.5 436.5,-95.5 492.5,-95.5 492.5,-76.5 436.5,-76.5"/>
<text text-anchor="middle" x="464.5" y="-83.5" font-family="Helvetica,sans-Serif" font-size="10.00">uint32_t</text>
</a>
</g>
</g>
<!-- Node12&#45;&gt;Node1 -->
<g id="edge15" class="edge">
<title>Node12&#45;&gt;Node1</title>
<path fill="none" stroke="#9a32cd" stroke-dasharray="5,2" d="M502.87,-83.9C536.05,-83.63 584.87,-87.25 622,-107 641.27,-117.25 656.52,-138.51 664.31,-151.08"/>
<polygon fill="#9a32cd" stroke="#9a32cd" points="502.61,-80.41 492.69,-84.11 502.76,-87.4 502.61,-80.41"/>
<text text-anchor="middle" x="586.5" y="-110" font-family="Helvetica,sans-Serif" font-size="10.00"> flags</text>
</g>
<!-- Node13 -->
<g id="node13" class="node">
<title>Node13</title>
<g id="a_node13"><a xlink:title=" ">
<polygon fill="none" stroke="#bfbfbf" points="436.5,-38.5 436.5,-57.5 492.5,-57.5 492.5,-38.5 436.5,-38.5"/>
<text text-anchor="middle" x="464.5" y="-45.5" font-family="Helvetica,sans-Serif" font-size="10.00">uint16_t</text>
</a>
</g>
</g>
<!-- Node13&#45;&gt;Node1 -->
<g id="edge16" class="edge">
<title>Node13&#45;&gt;Node1</title>
<path fill="none" stroke="#9a32cd" stroke-dasharray="5,2" d="M502.53,-44.49C536.6,-43.2 587,-46.36 622,-71 650.24,-90.88 663.31,-132.69 667.93,-151.49"/>
<polygon fill="#9a32cd" stroke="#9a32cd" points="502.32,-41 492.52,-45.02 502.69,-47.99 502.32,-41"/>
<text text-anchor="middle" x="586.5" y="-74" font-family="Helvetica,sans-Serif" font-size="10.00"> discriminator</text>
</g>
<!-- Node14 -->
<g id="node14" class="node">
<title>Node14</title>
<g id="a_node14"><a xlink:title=" ">
<polygon fill="none" stroke="#bfbfbf" points="439.5,-0.5 439.5,-19.5 489.5,-19.5 489.5,-0.5 439.5,-0.5"/>
<text text-anchor="middle" x="464.5" y="-7.5" font-family="Helvetica,sans-Serif" font-size="10.00">uint8_t</text>
</a>
</g>
</g>
<!-- Node14&#45;&gt;Node1 -->
<g id="edge17" class="edge">
<title>Node14&#45;&gt;Node1</title>
<path fill="none" stroke="#9a32cd" stroke-dasharray="5,2" d="M499.73,-5.15C534.33,-2.21 587.48,-3.36 622,-31 660.5,-61.83 668.12,-126.65 669.63,-151.25"/>
<polygon fill="#9a32cd" stroke="#9a32cd" points="499.22,-1.68 489.62,-6.17 499.93,-8.65 499.22,-1.68"/>
<text text-anchor="middle" x="586.5" y="-34" font-family="Helvetica,sans-Serif" font-size="10.00"> refcount</text>
</g>
</g>
</svg>
        <g id="navigator" transform="translate(0 0)" fill="#404254">
                <rect fill="#f2f5e9" fill-opacity="0.5" stroke="#606060" stroke-width=".5" x="0" y="0" width="60" height="60"/>
                <use id="zoomplus" xlink:href="#zoomPlus" x="17" y="9" onmousedown="handleZoom(evt,'in')"/>
                <use id="zoomminus" xlink:href="#zoomMin" x="42" y="9" onmousedown="handleZoom(evt,'out')"/>
                <use id="reset" xlink:href="#resetDef" x="30" y="36" onmousedown="handleReset()"/>
                <g id="arrowUp" xlink:href="#dirArrow" transform="translate(30 24)" onmousedown="handlePan(0,-1)">
                  <use xlink:href="#rim" fill="#404040">
                        <set attributeName="fill" to="#808080" begin="arrowUp.mouseover" end="arrowUp.mouseout"/>
                  </use>
                  <path fill="none" stroke="white" stroke-width="1.5" d="M0,-3.0v7 M-2.5,-0.5L0,-3.0L2.5,-0.5"/>
                </g>
                <g id="arrowRight" xlink:href="#dirArrow" transform="rotate(90) translate(36 -43)" onmousedown="handlePan(1,0)">
                  <use xlink:href="#rim" fill="#404040">
                        <set attributeName="fill" to="#808080" begin="arrowRight.mouseover" end="arrowRight.mouseout"/>
                  </use>
                  <path fill="none" stroke="white" stroke-width="1.5" d="M0,-3.0v7 M-2.5,-0.5L0,-3.0L2.5,-0.5"/>
                </g>
                <g id="arrowDown" xlink:href="#dirArrow" transform="rotate(180) translate(-30 -48)" onmousedown="handlePan(0,1)">
                  <use xlink:href="#rim" fill="#404040">
                        <set attributeName="fill" to="#808080" begin="arrowDown.mouseover" end="arrowDown.mouseout"/>
                  </use>
                  <path fill="none" stroke="white" stroke-width="1.5" d="M0,-3.0v7 M-2.5,-0.5L0,-3.0L2.5,-0.5"/>
                </g>
                <g id="arrowLeft" xlink:href="#dirArrow" transform="rotate(270) translate(-36 17)" onmousedown="handlePan(-1,0)">
                  <use xlink:href="#rim" fill="#404040">
                        <set attributeName="fill" to="#808080" begin="arrowLeft.mouseover" end="arrowLeft.mouseout"/>
                  </use>
                  <path fill="none" stroke="white" stroke-width="1.5" d="M0,-3.0v7 M-2.5,-0.5L0,-3.0L2.5,-0.5"/>
                </g>
        </g>
        <svg viewBox="0 0 15 15" width="100%" height="30px" preserveAspectRatio="xMaxYMin meet">
         <g id="arrow_out" transform="scale(0.3 0.3)">
          <a xlink:href="classdpp_1_1user__coll__graph_org.svg" target="_base">
           <rect id="button" ry="5" rx="5" y="6" x="6" height="38" width="38"
                fill="#f2f5e9" fill-opacity="0.5" stroke="#606060" stroke-width="1.0"/>
           <path id="arrow"
             d="M 11.500037,31.436501 C 11.940474,20.09759 22.043105,11.32322 32.158766,21.979434 L 37.068811,17.246167 C 37.068811,17.246167 37.088388,32 37.088388,32 L 22.160133,31.978069 C 22.160133,31.978069 26.997745,27.140456 26.997745,27.140456 C 18.528582,18.264221 13.291696,25.230495 11.500037,31.436501 z"
             style="fill:#404040;"/>
          </a>
         </g>
        </svg>
</svg>
