<?xml version="1.0" encoding="UTF-8" standalone="no"?>
<!DOCTYPE svg PUBLIC "-//W3C//DTD SVG 1.1//EN"
 "http://www.w3.org/Graphics/SVG/1.1/DTD/svg11.dtd">
<!-- Generated by graphviz version 2.43.0 (0)
 -->
<!-- Title: dpp::welcome_channel_t Pages: 1 -->
<svg width="202pt" height="184pt"
 viewBox="0.00 0.00 201.50 184.00" xmlns="http://www.w3.org/2000/svg" xmlns:xlink="http://www.w3.org/1999/xlink">
<g id="graph0" class="graph" transform="scale(1 1) rotate(0) translate(4 180)">
<title>dpp::welcome_channel_t</title>
<!-- Node1 -->
<g id="node1" class="node">
<title>Node1</title>
<g id="a_node1"><a xlink:title="Defines a channel on a server&#39;s welcome screen.">
<polygon fill="#bfbfbf" stroke="black" points="31.5,-0.5 31.5,-19.5 168.5,-19.5 168.5,-0.5 31.5,-0.5"/>
<text text-anchor="middle" x="100" y="-7.5" font-family="Helvetica,sans-Serif" font-size="10.00">dpp::welcome_channel_t</text>
</a>
</g>
</g>
<!-- Node2 -->
<g id="node2" class="node">
<title>Node2</title>
<g id="a_node2"><a xlink:title=" ">
<polygon fill="none" stroke="#bfbfbf" points="20.5,-78.5 20.5,-97.5 85.5,-97.5 85.5,-78.5 20.5,-78.5"/>
<text text-anchor="middle" x="53" y="-85.5" font-family="Helvetica,sans-Serif" font-size="10.00">std::string</text>
</a>
</g>
</g>
<!-- Node2&#45;&gt;Node1 -->
<g id="edge1" class="edge">
<title>Node2&#45;&gt;Node1</title>
<path fill="none" stroke="#9a32cd" stroke-dasharray="5,2" d="M53.15,-68.14C54.01,-58.48 56.32,-46.91 62,-38 66.96,-30.22 75.04,-24.01 82.47,-19.52"/>
<polygon fill="#9a32cd" stroke="#9a32cd" points="49.65,-68.18 52.69,-78.32 56.64,-68.49 49.65,-68.18"/>
<text text-anchor="middle" x="92.5" y="-52" font-family="Helvetica,sans-Serif" font-size="10.00"> description</text>
<text text-anchor="middle" x="92.5" y="-41" font-family="Helvetica,sans-Serif" font-size="10.00">emoji_name</text>
</g>
<!-- Node3 -->
<g id="node3" class="node">
<title>Node3</title>
<g id="a_node3"><a xlink:title=" ">
<polygon fill="none" stroke="#bfbfbf" points="0,-145.5 0,-175.5 104,-175.5 104,-145.5 0,-145.5"/>
<text text-anchor="start" x="8" y="-163.5" font-family="Helvetica,sans-Serif" font-size="10.00">std::basic_string&lt;</text>
<text text-anchor="middle" x="52" y="-152.5" font-family="Helvetica,sans-Serif" font-size="10.00"> Char &gt;</text>
</a>
</g>
</g>
<!-- Node3&#45;&gt;Node2 -->
<g id="edge2" class="edge">
<title>Node3&#45;&gt;Node2</title>
<path fill="none" stroke="midnightblue" d="M52.35,-135.09C52.53,-122.21 52.74,-107.2 52.87,-97.89"/>
<polygon fill="midnightblue" stroke="midnightblue" points="48.84,-135.18 52.2,-145.23 55.84,-135.28 48.84,-135.18"/>
</g>
<!-- Node4 -->
<g id="node4" class="node">
<title>Node4</title>
<g id="a_node4"><a xlink:href="classdpp_1_1snowflake.html" target="_top" xlink:title="A container for a 64 bit unsigned value representing many things on discord. Discord calls the value ...">
<polygon fill="none" stroke="black" points="104.5,-78.5 104.5,-97.5 193.5,-97.5 193.5,-78.5 104.5,-78.5"/>
<text text-anchor="middle" x="149" y="-85.5" font-family="Helvetica,sans-Serif" font-size="10.00">dpp::snowflake</text>
</a>
</g>
</g>
<!-- Node4&#45;&gt;Node1 -->
<g id="edge3" class="edge">
<title>Node4&#45;&gt;Node1</title>
<path fill="none" stroke="#9a32cd" stroke-dasharray="5,2" d="M140.67,-69.09C135.96,-59.56 129.68,-47.83 123,-38 118.57,-31.48 112.82,-24.73 108.18,-19.61"/>
<polygon fill="#9a32cd" stroke="#9a32cd" points="137.64,-70.85 145.12,-78.35 143.95,-67.82 137.64,-70.85"/>
<text text-anchor="middle" x="163" y="-52" font-family="Helvetica,sans-Serif" font-size="10.00"> channel_id</text>
<text text-anchor="middle" x="163" y="-41" font-family="Helvetica,sans-Serif" font-size="10.00">emoji_id</text>
</g>
<!-- Node5 -->
<g id="node5" class="node">
<title>Node5</title>
<g id="a_node5"><a xlink:title=" ">
<polygon fill="none" stroke="#bfbfbf" points="122,-151 122,-170 178,-170 178,-151 122,-151"/>
<text text-anchor="middle" x="150" y="-158" font-family="Helvetica,sans-Serif" font-size="10.00">uint64_t</text>
</a>
</g>
</g>
<!-- Node5&#45;&gt;Node4 -->
<g id="edge4" class="edge">
<title>Node5&#45;&gt;Node4</title>
<path fill="none" stroke="#9a32cd" stroke-dasharray="5,2" d="M149.73,-140.44C149.53,-126.53 149.27,-108.32 149.12,-97.72"/>
<polygon fill="#9a32cd" stroke="#9a32cd" points="146.24,-140.91 149.88,-150.86 153.24,-140.81 146.24,-140.91"/>
<text text-anchor="middle" x="164.5" y="-119" font-family="Helvetica,sans-Serif" font-size="10.00"> value</text>
</g>
</g>
</svg>
