<?xml version="1.0" encoding="UTF-8" standalone="no"?>
<!DOCTYPE svg PUBLIC "-//W3C//DTD SVG 1.1//EN"
 "http://www.w3.org/Graphics/SVG/1.1/DTD/svg11.dtd">
<!-- Generated by graphviz version 2.38.0 (20140413.2041)
 -->
<!-- Title: dpp::interaction_response Pages: 1 -->
<!--zoomable 785 -->
<svg id="main" version="1.1" xmlns="http://www.w3.org/2000/svg" xmlns:xlink="http://www.w3.org/1999/xlink" xml:space="preserve" onload="init(evt)">
<style type="text/css"><![CDATA[
.edge:hover path { stroke: red; }
.edge:hover polygon { stroke: red; fill: red; }
]]></style>
<script type="text/javascript"><![CDATA[
var edges = document.getElementsByTagName('g');
if (edges && edges.length) {
  for (var i=0;i<edges.length;i++) {
    if (edges[i].id.substr(0,4)=='edge') {
      edges[i].setAttribute('class','edge');
    }
  }
}
]]></script>
        <defs>
                <circle id="rim" cx="0" cy="0" r="7"/>
                <circle id="rim2" cx="0" cy="0" r="3.5"/>
                <g id="zoomPlus">
                        <use xlink:href="#rim" fill="#404040">
                                <set attributeName="fill" to="#808080" begin="zoomplus.mouseover" end="zoomplus.mouseout"/>
                        </use>
                        <path d="M-4,0h8M0,-4v8" fill="none" stroke="white" stroke-width="1.5" pointer-events="none"/>
                </g>
                <g id="zoomMin">
                        <use xlink:href="#rim" fill="#404040">
                                <set attributeName="fill" to="#808080" begin="zoomminus.mouseover" end="zoomminus.mouseout"/>
                        </use>
                        <path d="M-4,0h8" fill="none" stroke="white" stroke-width="1.5" pointer-events="none"/>
                </g>
                <g id="dirArrow">
                        <path fill="none" stroke="white" stroke-width="1.5" d="M0,-3.0v7 M-2.5,-0.5L0,-3.0L2.5,-0.5"/>
                </g>
               <g id="resetDef">
                       <use xlink:href="#rim2" fill="#404040">
                               <set attributeName="fill" to="#808080" begin="reset.mouseover" end="reset.mouseout"/>
                       </use>
               </g>
        </defs>

<script type="text/javascript">
var viewWidth = 1137;
var viewHeight = 785;
var sectionId = 'dynsection-0';
</script>
<script xlink:href="svgpan.js"/>
<svg id="graph" class="graph">
<g id="viewport">
<title>dpp::interaction_response</title>
<polygon fill="white" stroke="none" points="-4,4 -4,-780.586 1133,-780.586 1133,4 -4,4"/>
<!-- Node1 -->
<g id="node1" class="node"><title>Node1</title>
<g id="a_node1"><a xlink:title="A response to an interaction, used to reply to a command and initiate a message, which can be hidden ...">
<polygon fill="#bfbfbf" stroke="black" points="1001,-369.086 1001,-388.086 1129,-388.086 1129,-369.086 1001,-369.086"/>
<text text-anchor="middle" x="1065" y="-376.086" font-family="Helvetica,sans-Serif" font-size="10.00">dpp::interaction_response</text>
</a>
</g>
</g>
<!-- Node2 -->
<g id="node2" class="node"><title>Node2</title>
<g id="a_node2"><a xlink:title=" ">
<polygon fill="white" stroke="#bfbfbf" points="812,-407.086 812,-426.086 943,-426.086 943,-407.086 812,-407.086"/>
<text text-anchor="middle" x="877.5" y="-414.086" font-family="Helvetica,sans-Serif" font-size="10.00">interaction_response_type</text>
</a>
</g>
</g>
<!-- Node2&#45;&gt;Node1 -->
<g id="edge1" class="edge"><title>Node2&#45;&gt;Node1</title>
<path fill="none" stroke="#9a32cd" stroke-dasharray="5,2" d="M935.173,-404.977C961.555,-399.572 992.551,-393.223 1017.53,-388.106"/>
<polygon fill="#9a32cd" stroke="#9a32cd" points="934.404,-401.561 925.309,-406.997 935.808,-408.419 934.404,-401.561"/>
<text text-anchor="middle" x="972" y="-402.586" font-family="Helvetica,sans-Serif" font-size="10.00"> type</text>
</g>
<!-- Node3 -->
<g id="node3" class="node"><title>Node3</title>
<g id="a_node3"><a xlink:href="structdpp_1_1message.html" target="_top" xlink:title="Represents messages sent and received on Discord.">
<polygon fill="white" stroke="black" points="838.5,-369.086 838.5,-388.086 916.5,-388.086 916.5,-369.086 838.5,-369.086"/>
<text text-anchor="middle" x="877.5" y="-376.086" font-family="Helvetica,sans-Serif" font-size="10.00">dpp::message</text>
</a>
</g>
</g>
<!-- Node3&#45;&gt;Node1 -->
<g id="edge2" class="edge"><title>Node3&#45;&gt;Node1</title>
<path fill="none" stroke="#9a32cd" stroke-dasharray="5,2" d="M926.952,-378.586C949.511,-378.586 976.639,-378.586 1000.79,-378.586"/>
<polygon fill="#9a32cd" stroke="#9a32cd" points="926.936,-375.086 916.936,-378.586 926.936,-382.086 926.936,-375.086"/>
<text text-anchor="middle" x="972" y="-381.586" font-family="Helvetica,sans-Serif" font-size="10.00"> msg</text>
</g>
<!-- Node4 -->
<g id="node4" class="node"><title>Node4</title>
<g id="a_node4"><a xlink:title=" ">
<polygon fill="white" stroke="#bfbfbf" points="22,-473.086 22,-492.086 73,-492.086 73,-473.086 22,-473.086"/>
<text text-anchor="middle" x="47.5" y="-480.086" font-family="Helvetica,sans-Serif" font-size="10.00">uint64_t</text>
</a>
</g>
</g>
<!-- Node4&#45;&gt;Node3 -->
<g id="edge3" class="edge"><title>Node4&#45;&gt;Node3</title>
<path fill="none" stroke="#9a32cd" stroke-dasharray="5,2" d="M51.8218,-502.331C62.9959,-561.386 104.925,-732.586 215.5,-732.586 215.5,-732.586 215.5,-732.586 606,-732.586 699.418,-732.586 741.96,-716.167 794,-638.586 823.917,-593.986 778.254,-439.364 812,-397.586 818.528,-389.504 828.313,-384.745 838.301,-381.975"/>
<polygon fill="#9a32cd" stroke="#9a32cd" points="55.2483,-501.61 50.0345,-492.386 48.3587,-502.848 55.2483,-501.61"/>
<text text-anchor="middle" x="393.5" y="-768.586" font-family="Helvetica,sans-Serif" font-size="10.00"> channel_id</text>
<text text-anchor="middle" x="393.5" y="-757.586" font-family="Helvetica,sans-Serif" font-size="10.00">guild_id</text>
<text text-anchor="middle" x="393.5" y="-746.586" font-family="Helvetica,sans-Serif" font-size="10.00">id</text>
<text text-anchor="middle" x="393.5" y="-735.586" font-family="Helvetica,sans-Serif" font-size="10.00">webhook_id</text>
</g>
<!-- Node6 -->
<g id="node6" class="node"><title>Node6</title>
<g id="a_node6"><a xlink:href="classdpp_1_1managed.html" target="_top" xlink:title="The managed class is the base class for various types that can be stored in a cache that are identifi...">
<polygon fill="white" stroke="black" points="177.5,-539.086 177.5,-558.086 255.5,-558.086 255.5,-539.086 177.5,-539.086"/>
<text text-anchor="middle" x="216.5" y="-546.086" font-family="Helvetica,sans-Serif" font-size="10.00">dpp::managed</text>
</a>
</g>
</g>
<!-- Node4&#45;&gt;Node6 -->
<g id="edge6" class="edge"><title>Node4&#45;&gt;Node6</title>
<path fill="none" stroke="#9a32cd" stroke-dasharray="5,2" d="M80.4357,-496.118C103.322,-505.712 134.935,-518.753 163,-529.586 171.229,-532.763 180.241,-536.081 188.441,-539.04"/>
<polygon fill="#9a32cd" stroke="#9a32cd" points="81.7721,-492.884 71.1972,-492.234 79.059,-499.336 81.7721,-492.884"/>
<text text-anchor="middle" x="129" y="-525.586" font-family="Helvetica,sans-Serif" font-size="10.00"> id</text>
</g>
<!-- Node10 -->
<g id="node10" class="node"><title>Node10</title>
<g id="a_node10"><a xlink:href="structdpp_1_1utility_1_1iconhash.html" target="_top" xlink:title="Store a 128 bit icon hash (profile picture, server icon etc) as a 128 bit binary value made of two ui...">
<polygon fill="white" stroke="black" points="163,-425.086 163,-444.086 270,-444.086 270,-425.086 163,-425.086"/>
<text text-anchor="middle" x="216.5" y="-432.086" font-family="Helvetica,sans-Serif" font-size="10.00">dpp::utility::iconhash</text>
</a>
</g>
</g>
<!-- Node4&#45;&gt;Node10 -->
<g id="edge11" class="edge"><title>Node4&#45;&gt;Node10</title>
<path fill="none" stroke="#9a32cd" stroke-dasharray="5,2" d="M82.8985,-472.699C112.061,-464.317 153.617,-452.373 182.403,-444.099"/>
<polygon fill="#9a32cd" stroke="#9a32cd" points="81.7854,-469.377 73.1414,-475.504 83.7192,-476.105 81.7854,-469.377"/>
<text text-anchor="middle" x="129" y="-477.586" font-family="Helvetica,sans-Serif" font-size="10.00"> first</text>
<text text-anchor="middle" x="129" y="-466.586" font-family="Helvetica,sans-Serif" font-size="10.00">second</text>
</g>
<!-- Node13 -->
<g id="node13" class="node"><title>Node13</title>
<g id="a_node13"><a xlink:href="classdpp_1_1guild__member.html" target="_top" xlink:title="Represents dpp::user membership upon a dpp::guild.">
<polygon fill="white" stroke="black" points="555.5,-294.086 555.5,-313.086 654.5,-313.086 654.5,-294.086 555.5,-294.086"/>
<text text-anchor="middle" x="605" y="-301.086" font-family="Helvetica,sans-Serif" font-size="10.00">dpp::guild_member</text>
</a>
</g>
</g>
<!-- Node4&#45;&gt;Node13 -->
<g id="edge16" class="edge"><title>Node4&#45;&gt;Node13</title>
<path fill="none" stroke="#9a32cd" stroke-dasharray="5,2" d="M63.5956,-464.639C98.2456,-425.121 188.217,-331.783 288,-302.586 336.639,-288.354 479.654,-295.185 555.494,-300.09"/>
<polygon fill="#9a32cd" stroke="#9a32cd" points="60.5837,-462.772 56.7028,-472.631 65.8844,-467.344 60.5837,-462.772"/>
<text text-anchor="middle" x="317.5" y="-316.586" font-family="Helvetica,sans-Serif" font-size="10.00"> guild_id</text>
<text text-anchor="middle" x="317.5" y="-305.586" font-family="Helvetica,sans-Serif" font-size="10.00">user_id</text>
</g>
<!-- Node17 -->
<g id="node17" class="node"><title>Node17</title>
<g id="a_node17"><a xlink:href="structdpp_1_1message_1_1message__ref.html" target="_top" xlink:title=" ">
<polygon fill="white" stroke="black" points="535,-459.086 535,-478.086 675,-478.086 675,-459.086 535,-459.086"/>
<text text-anchor="middle" x="605" y="-466.086" font-family="Helvetica,sans-Serif" font-size="10.00">dpp::message::message_ref</text>
</a>
</g>
</g>
<!-- Node4&#45;&gt;Node17 -->
<g id="edge26" class="edge"><title>Node4&#45;&gt;Node17</title>
<path fill="none" stroke="#9a32cd" stroke-dasharray="5,2" d="M68.4144,-466.858C90.2191,-450.656 126.907,-426.306 163,-415.586 241.435,-392.291 278.883,-364.256 347,-409.586 364.248,-421.064 348.145,-440.538 365,-452.586 422.852,-493.939 510.055,-487.186 561.585,-478.143"/>
<polygon fill="#9a32cd" stroke="#9a32cd" points="66.1331,-464.195 60.2898,-473.033 70.369,-469.768 66.1331,-464.195"/>
<text text-anchor="middle" x="317.5" y="-434.586" font-family="Helvetica,sans-Serif" font-size="10.00"> channel_id</text>
<text text-anchor="middle" x="317.5" y="-423.586" font-family="Helvetica,sans-Serif" font-size="10.00">guild_id</text>
<text text-anchor="middle" x="317.5" y="-412.586" font-family="Helvetica,sans-Serif" font-size="10.00">message_id</text>
</g>
<!-- Node18 -->
<g id="node18" class="node"><title>Node18</title>
<g id="a_node18"><a xlink:href="structdpp_1_1message_1_1message__interaction__struct.html" target="_top" xlink:title=" ">
<polygon fill="white" stroke="black" points="543,-559.586 543,-589.586 667,-589.586 667,-559.586 543,-559.586"/>
<text text-anchor="start" x="551" y="-577.586" font-family="Helvetica,sans-Serif" font-size="10.00">dpp::message::message</text>
<text text-anchor="middle" x="605" y="-566.586" font-family="Helvetica,sans-Serif" font-size="10.00">_interaction_struct</text>
</a>
</g>
</g>
<!-- Node4&#45;&gt;Node18 -->
<g id="edge29" class="edge"><title>Node4&#45;&gt;Node18</title>
<path fill="none" stroke="#9a32cd" stroke-dasharray="5,2" d="M64.2825,-499.661C84.7176,-520.379 122.538,-554.198 163,-567.586 292.762,-610.524 455.972,-596.987 542.898,-584.855"/>
<polygon fill="#9a32cd" stroke="#9a32cd" points="66.5497,-496.969 57.0982,-492.181 61.5013,-501.818 66.5497,-496.969"/>
<text text-anchor="middle" x="317.5" y="-599.586" font-family="Helvetica,sans-Serif" font-size="10.00"> id</text>
</g>
<!-- Node5 -->
<g id="node5" class="node"><title>Node5</title>
<g id="a_node5"><a xlink:href="classdpp_1_1user.html" target="_top" xlink:title="Represents a user on discord. May or may not be a member of a dpp::guild.">
<polygon fill="white" stroke="black" points="365,-503.086 365,-522.086 422,-522.086 422,-503.086 365,-503.086"/>
<text text-anchor="middle" x="393.5" y="-510.086" font-family="Helvetica,sans-Serif" font-size="10.00">dpp::user</text>
</a>
</g>
</g>
<!-- Node5&#45;&gt;Node3 -->
<g id="edge4" class="edge"><title>Node5&#45;&gt;Node3</title>
<path fill="none" stroke="#9a32cd" stroke-dasharray="5,2" d="M432.292,-514.417C521.403,-517.906 741.132,-521.423 794,-474.586 820.306,-451.281 787.865,-423.133 812,-397.586 818.975,-390.204 828.658,-385.644 838.403,-382.842"/>
<polygon fill="#9a32cd" stroke="#9a32cd" points="432.229,-510.911 422.093,-513.995 431.94,-517.905 432.229,-510.911"/>
<text text-anchor="middle" x="605" y="-530.586" font-family="Helvetica,sans-Serif" font-size="10.00"> author</text>
<text text-anchor="middle" x="605" y="-519.586" font-family="Helvetica,sans-Serif" font-size="10.00">self_author</text>
</g>
<!-- Node5&#45;&gt;Node18 -->
<g id="edge32" class="edge"><title>Node5&#45;&gt;Node18</title>
<path fill="none" stroke="#9a32cd" stroke-dasharray="5,2" d="M411.31,-529.218C421.443,-538.864 433.593,-549.669 440,-552.586 472.027,-567.168 510.956,-572.832 542.847,-574.774"/>
<polygon fill="#9a32cd" stroke="#9a32cd" points="413.701,-526.661 404.083,-522.219 408.831,-531.69 413.701,-526.661"/>
<text text-anchor="middle" x="478.5" y="-575.586" font-family="Helvetica,sans-Serif" font-size="10.00"> usr</text>
</g>
<!-- Node6&#45;&gt;Node5 -->
<g id="edge5" class="edge"><title>Node6&#45;&gt;Node5</title>
<path fill="none" stroke="midnightblue" d="M265.906,-538.628C297.741,-532.079 338.267,-523.743 364.773,-518.29"/>
<polygon fill="midnightblue" stroke="midnightblue" points="264.994,-535.243 255.904,-540.686 266.405,-542.099 264.994,-535.243"/>
</g>
<!-- Node7 -->
<g id="node7" class="node"><title>Node7</title>
<g id="a_node7"><a xlink:title=" ">
<polygon fill="white" stroke="#bfbfbf" points="186.5,-231.086 186.5,-250.086 246.5,-250.086 246.5,-231.086 186.5,-231.086"/>
<text text-anchor="middle" x="216.5" y="-238.086" font-family="Helvetica,sans-Serif" font-size="10.00">std::string</text>
</a>
</g>
</g>
<!-- Node7&#45;&gt;Node3 -->
<g id="edge20" class="edge"><title>Node7&#45;&gt;Node3</title>
<path fill="none" stroke="#9a32cd" stroke-dasharray="5,2" d="M229.143,-222.158C258.228,-178.09 339.034,-67.2608 440,-26.5862 530.616,9.91893 703.195,17.4312 794,-62.5862 842.283,-105.133 869.806,-320.687 875.423,-368.978"/>
<polygon fill="#9a32cd" stroke="#9a32cd" points="226.091,-220.431 223.588,-230.726 231.965,-224.239 226.091,-220.431"/>
<text text-anchor="middle" x="478.5" y="-62.5862" font-family="Helvetica,sans-Serif" font-size="10.00"> content</text>
<text text-anchor="middle" x="478.5" y="-51.5862" font-family="Helvetica,sans-Serif" font-size="10.00">filecontent</text>
<text text-anchor="middle" x="478.5" y="-40.5862" font-family="Helvetica,sans-Serif" font-size="10.00">filename</text>
<text text-anchor="middle" x="478.5" y="-29.5862" font-family="Helvetica,sans-Serif" font-size="10.00">nonce</text>
</g>
<!-- Node7&#45;&gt;Node5 -->
<g id="edge7" class="edge"><title>Node7&#45;&gt;Node5</title>
<path fill="none" stroke="#9a32cd" stroke-dasharray="5,2" d="M228.023,-258.791C240.206,-278.435 261.968,-309.464 288,-328.586 310.683,-345.248 328.93,-330.009 347,-351.586 373.471,-383.194 353.416,-403.019 365,-442.586 371.457,-464.641 382.034,-489.456 388.013,-502.812"/>
<polygon fill="#9a32cd" stroke="#9a32cd" points="230.989,-256.93 222.836,-250.164 224.99,-260.538 230.989,-256.93"/>
<text text-anchor="middle" x="317.5" y="-354.586" font-family="Helvetica,sans-Serif" font-size="10.00"> username</text>
</g>
<!-- Node7&#45;&gt;Node13 -->
<g id="edge15" class="edge"><title>Node7&#45;&gt;Node13</title>
<path fill="none" stroke="#9a32cd" stroke-dasharray="5,2" d="M256.752,-229.099C316.817,-213.879 433.358,-193.822 517,-238.586 529.716,-245.391 524.38,-255.829 535,-265.586 548.293,-277.8 566.223,-287.521 580.473,-294.073"/>
<polygon fill="#9a32cd" stroke="#9a32cd" points="255.697,-225.757 246.912,-231.679 257.473,-232.529 255.697,-225.757"/>
<text text-anchor="middle" x="393.5" y="-215.586" font-family="Helvetica,sans-Serif" font-size="10.00"> nickname</text>
</g>
<!-- Node7&#45;&gt;Node18 -->
<g id="edge31" class="edge"><title>Node7&#45;&gt;Node18</title>
<path fill="none" stroke="#9a32cd" stroke-dasharray="5,2" d="M256.471,-243.942C285.856,-248.624 324.774,-259.823 347,-286.586 379.771,-326.047 339.702,-355.964 365,-400.586 410.943,-481.623 511.876,-535.215 566.731,-559.544"/>
<polygon fill="#9a32cd" stroke="#9a32cd" points="256.907,-240.469 246.517,-242.542 255.933,-247.401 256.907,-240.469"/>
<text text-anchor="middle" x="393.5" y="-472.586" font-family="Helvetica,sans-Serif" font-size="10.00"> name</text>
</g>
<!-- Node8 -->
<g id="node8" class="node"><title>Node8</title>
<g id="a_node8"><a xlink:title=" ">
<polygon fill="white" stroke="#bfbfbf" points="0,-225.586 0,-255.586 95,-255.586 95,-225.586 0,-225.586"/>
<text text-anchor="start" x="8" y="-243.586" font-family="Helvetica,sans-Serif" font-size="10.00">std::basic_string&lt;</text>
<text text-anchor="middle" x="47.5" y="-232.586" font-family="Helvetica,sans-Serif" font-size="10.00"> Char &gt;</text>
</a>
</g>
</g>
<!-- Node8&#45;&gt;Node7 -->
<g id="edge8" class="edge"><title>Node8&#45;&gt;Node7</title>
<path fill="none" stroke="midnightblue" d="M105.221,-240.586C132.456,-240.586 163.942,-240.586 186.281,-240.586"/>
<polygon fill="midnightblue" stroke="midnightblue" points="105.019,-237.086 95.0188,-240.586 105.019,-244.086 105.019,-237.086"/>
</g>
<!-- Node9 -->
<g id="node9" class="node"><title>Node9</title>
<g id="a_node9"><a xlink:title=" ">
<polygon fill="white" stroke="#bfbfbf" points="191,-501.086 191,-520.086 242,-520.086 242,-501.086 191,-501.086"/>
<text text-anchor="middle" x="216.5" y="-508.086" font-family="Helvetica,sans-Serif" font-size="10.00">uint16_t</text>
</a>
</g>
</g>
<!-- Node9&#45;&gt;Node5 -->
<g id="edge9" class="edge"><title>Node9&#45;&gt;Node5</title>
<path fill="none" stroke="#9a32cd" stroke-dasharray="5,2" d="M252.476,-509.547C278.541,-508.96 315.005,-508.533 347,-509.586 352.697,-509.774 358.788,-510.093 364.602,-510.455"/>
<polygon fill="#9a32cd" stroke="#9a32cd" points="252.245,-506.052 242.334,-509.796 252.416,-513.05 252.245,-506.052"/>
<text text-anchor="middle" x="317.5" y="-512.586" font-family="Helvetica,sans-Serif" font-size="10.00"> discriminator</text>
</g>
<!-- Node10&#45;&gt;Node5 -->
<g id="edge10" class="edge"><title>Node10&#45;&gt;Node5</title>
<path fill="none" stroke="#9a32cd" stroke-dasharray="5,2" d="M280.268,-443.603C302.34,-448.542 326.685,-456.097 347,-467.586 362.86,-476.556 377.073,-492.501 385.24,-502.803"/>
<polygon fill="#9a32cd" stroke="#9a32cd" points="280.816,-440.141 270.31,-441.513 279.378,-446.992 280.816,-440.141"/>
<text text-anchor="middle" x="317.5" y="-470.586" font-family="Helvetica,sans-Serif" font-size="10.00"> avatar</text>
</g>
<!-- Node11 -->
<g id="node11" class="node"><title>Node11</title>
<g id="a_node11"><a xlink:title=" ">
<polygon fill="white" stroke="#bfbfbf" points="191,-463.086 191,-482.086 242,-482.086 242,-463.086 191,-463.086"/>
<text text-anchor="middle" x="216.5" y="-470.086" font-family="Helvetica,sans-Serif" font-size="10.00">uint32_t</text>
</a>
</g>
</g>
<!-- Node11&#45;&gt;Node5 -->
<g id="edge12" class="edge"><title>Node11&#45;&gt;Node5</title>
<path fill="none" stroke="#9a32cd" stroke-dasharray="5,2" d="M252.418,-476.512C278.731,-479.952 315.535,-485.793 347,-494.586 355.018,-496.827 363.565,-499.99 371.061,-503.04"/>
<polygon fill="#9a32cd" stroke="#9a32cd" points="252.539,-473 242.18,-475.226 251.666,-479.946 252.539,-473"/>
<text text-anchor="middle" x="317.5" y="-497.586" font-family="Helvetica,sans-Serif" font-size="10.00"> flags</text>
</g>
<!-- Node12 -->
<g id="node12" class="node"><title>Node12</title>
<g id="a_node12"><a xlink:title=" ">
<polygon fill="white" stroke="#bfbfbf" points="193.5,-637.086 193.5,-656.086 239.5,-656.086 239.5,-637.086 193.5,-637.086"/>
<text text-anchor="middle" x="216.5" y="-644.086" font-family="Helvetica,sans-Serif" font-size="10.00">uint8_t</text>
</a>
</g>
</g>
<!-- Node12&#45;&gt;Node3 -->
<g id="edge24" class="edge"><title>Node12&#45;&gt;Node3</title>
<path fill="none" stroke="#9a32cd" stroke-dasharray="5,2" d="M249.3,-655.865C347.762,-682.424 649.63,-747.148 794,-589.586 822.951,-557.99 784.758,-430.667 812,-397.586 818.605,-389.566 828.413,-384.826 838.399,-382.055"/>
<polygon fill="#9a32cd" stroke="#9a32cd" points="250.198,-652.482 239.627,-653.2 248.338,-659.23 250.198,-652.482"/>
<text text-anchor="middle" x="478.5" y="-706.586" font-family="Helvetica,sans-Serif" font-size="10.00"> flags</text>
<text text-anchor="middle" x="478.5" y="-695.586" font-family="Helvetica,sans-Serif" font-size="10.00">type</text>
</g>
<!-- Node12&#45;&gt;Node5 -->
<g id="edge13" class="edge"><title>Node12&#45;&gt;Node5</title>
<path fill="none" stroke="#9a32cd" stroke-dasharray="5,2" d="M230.002,-628.875C242.908,-611.631 264.436,-585.604 288,-568.586 311.231,-551.809 321.839,-556.299 347,-542.586 358.299,-536.428 370.434,-528.346 379.328,-522.123"/>
<polygon fill="#9a32cd" stroke="#9a32cd" points="227.142,-626.856 224.073,-636.997 232.796,-630.983 227.142,-626.856"/>
<text text-anchor="middle" x="317.5" y="-571.586" font-family="Helvetica,sans-Serif" font-size="10.00"> refcount</text>
</g>
<!-- Node12&#45;&gt;Node13 -->
<g id="edge19" class="edge"><title>Node12&#45;&gt;Node13</title>
<path fill="none" stroke="#9a32cd" stroke-dasharray="5,2" d="M249.949,-642.849C277.174,-638.681 316.403,-630.206 347,-613.586 392.188,-589.041 492.273,-501.675 517,-456.586 538.714,-416.991 511.514,-395.157 535,-356.586 546.862,-337.105 568.737,-322.166 584.686,-313.189"/>
<polygon fill="#9a32cd" stroke="#9a32cd" points="249.2,-639.42 239.79,-644.29 250.183,-646.35 249.2,-639.42"/>
<text text-anchor="middle" x="393.5" y="-605.586" font-family="Helvetica,sans-Serif" font-size="10.00"> flags</text>
</g>
<!-- Node12&#45;&gt;Node18 -->
<g id="edge30" class="edge"><title>Node12&#45;&gt;Node18</title>
<path fill="none" stroke="#9a32cd" stroke-dasharray="5,2" d="M250.166,-647.084C306.035,-647.086 423.007,-643.373 517,-615.586 538.136,-609.338 560.606,-598.632 577.415,-589.728"/>
<polygon fill="#9a32cd" stroke="#9a32cd" points="249.847,-643.582 239.832,-647.04 249.817,-650.582 249.847,-643.582"/>
<text text-anchor="middle" x="393.5" y="-645.586" font-family="Helvetica,sans-Serif" font-size="10.00"> type</text>
</g>
<!-- Node13&#45;&gt;Node3 -->
<g id="edge14" class="edge"><title>Node13&#45;&gt;Node3</title>
<path fill="none" stroke="#9a32cd" stroke-dasharray="5,2" d="M664.871,-303.185C702.751,-304.603 752.478,-309.645 794,-324.586 822.349,-334.787 850.712,-356.485 865.671,-369.05"/>
<polygon fill="#9a32cd" stroke="#9a32cd" points="664.618,-299.676 654.518,-302.876 664.409,-306.673 664.618,-299.676"/>
<text text-anchor="middle" x="743.5" y="-327.586" font-family="Helvetica,sans-Serif" font-size="10.00"> member</text>
</g>
<!-- Node14 -->
<g id="node14" class="node"><title>Node14</title>
<g id="a_node14"><a xlink:title=" ">
<polygon fill="white" stroke="#bfbfbf" points="368.5,-117.086 368.5,-136.086 418.5,-136.086 418.5,-117.086 368.5,-117.086"/>
<text text-anchor="middle" x="393.5" y="-124.086" font-family="Helvetica,sans-Serif" font-size="10.00">vector&lt;</text>
</a>
</g>
</g>
<!-- Node14&#45;&gt;Node1 -->
<g id="edge36" class="edge"><title>Node14&#45;&gt;Node1</title>
<path fill="none" stroke="#9a32cd" stroke-dasharray="5,2" d="M425.081,-113.527C429.991,-111.908 435.078,-110.502 440,-109.586 481.511,-101.859 492.776,-108.808 535,-108.586 650.733,-107.977 691.235,-82.3513 794,-135.586 916.912,-199.258 1027.55,-332.389 1056.59,-369.058"/>
<polygon fill="#9a32cd" stroke="#9a32cd" points="423.563,-110.355 415.36,-117.061 425.954,-116.934 423.563,-110.355"/>
<text text-anchor="middle" x="743.5" y="-138.586" font-family="Helvetica,sans-Serif" font-size="10.00"> autocomplete_choices</text>
</g>
<!-- Node14&#45;&gt;Node3 -->
<g id="edge21" class="edge"><title>Node14&#45;&gt;Node3</title>
<path fill="none" stroke="#9a32cd" stroke-dasharray="5,2" d="M428.698,-120.297C483.519,-111.89 593.207,-102.051 675,-139.586 783.764,-189.498 854.655,-330.74 872.225,-368.952"/>
<polygon fill="#9a32cd" stroke="#9a32cd" points="428.12,-116.845 418.805,-121.892 429.234,-123.756 428.12,-116.845"/>
<text text-anchor="middle" x="605" y="-219.586" font-family="Helvetica,sans-Serif" font-size="10.00"> attachments</text>
<text text-anchor="middle" x="605" y="-208.586" font-family="Helvetica,sans-Serif" font-size="10.00">components</text>
<text text-anchor="middle" x="605" y="-197.586" font-family="Helvetica,sans-Serif" font-size="10.00">embeds</text>
<text text-anchor="middle" x="605" y="-186.586" font-family="Helvetica,sans-Serif" font-size="10.00">mention_channels</text>
<text text-anchor="middle" x="605" y="-175.586" font-family="Helvetica,sans-Serif" font-size="10.00">mention_roles</text>
<text text-anchor="middle" x="605" y="-164.586" font-family="Helvetica,sans-Serif" font-size="10.00">mentions</text>
<text text-anchor="middle" x="605" y="-153.586" font-family="Helvetica,sans-Serif" font-size="10.00">reactions</text>
<text text-anchor="middle" x="605" y="-142.586" font-family="Helvetica,sans-Serif" font-size="10.00">stickers</text>
</g>
<!-- Node14&#45;&gt;Node13 -->
<g id="edge17" class="edge"><title>Node14&#45;&gt;Node13</title>
<path fill="none" stroke="#9a32cd" stroke-dasharray="5,2" d="M410.724,-143.437C418.892,-151.109 429.314,-159.756 440,-165.586 471.353,-182.692 492.522,-162.577 517,-188.586 541.087,-214.179 513.772,-237.576 535,-265.586 544.995,-278.774 560.956,-287.985 575.011,-294.032"/>
<polygon fill="#9a32cd" stroke="#9a32cd" points="412.971,-140.738 403.382,-136.231 408.068,-145.734 412.971,-140.738"/>
<text text-anchor="middle" x="478.5" y="-191.586" font-family="Helvetica,sans-Serif" font-size="10.00"> roles</text>
</g>
<!-- Node19 -->
<g id="node19" class="node"><title>Node19</title>
<g id="a_node19"><a xlink:href="structdpp_1_1message_1_1allowed__ref.html" target="_top" xlink:title=" ">
<polygon fill="white" stroke="black" points="538,-237.086 538,-256.086 672,-256.086 672,-237.086 538,-237.086"/>
<text text-anchor="middle" x="605" y="-244.086" font-family="Helvetica,sans-Serif" font-size="10.00">dpp::message::allowed_ref</text>
</a>
</g>
</g>
<!-- Node14&#45;&gt;Node19 -->
<g id="edge35" class="edge"><title>Node14&#45;&gt;Node19</title>
<path fill="none" stroke="#9a32cd" stroke-dasharray="5,2" d="M428.836,-121.652C456.142,-119.769 493.534,-122.059 517,-143.586 543.536,-167.93 510.984,-195.753 535,-222.586 540.667,-228.918 548.094,-233.58 555.972,-237.011"/>
<polygon fill="#9a32cd" stroke="#9a32cd" points="428.193,-118.196 418.551,-122.587 428.827,-125.167 428.193,-118.196"/>
<text text-anchor="middle" x="478.5" y="-157.586" font-family="Helvetica,sans-Serif" font-size="10.00"> roles</text>
<text text-anchor="middle" x="478.5" y="-146.586" font-family="Helvetica,sans-Serif" font-size="10.00">users</text>
</g>
<!-- Node15 -->
<g id="node15" class="node"><title>Node15</title>
<g id="a_node15"><a xlink:title=" ">
<polygon fill="white" stroke="#bfbfbf" points="371.5,-334.086 371.5,-353.086 415.5,-353.086 415.5,-334.086 371.5,-334.086"/>
<text text-anchor="middle" x="393.5" y="-341.086" font-family="Helvetica,sans-Serif" font-size="10.00">time_t</text>
</a>
</g>
</g>
<!-- Node15&#45;&gt;Node3 -->
<g id="edge22" class="edge"><title>Node15&#45;&gt;Node3</title>
<path fill="none" stroke="#9a32cd" stroke-dasharray="5,2" d="M425.073,-356.691C429.984,-358.304 435.073,-359.696 440,-360.586 440,-360.586 675,-360.586 675,-360.586 732.017,-363.128 797.839,-369.695 838.314,-374.154"/>
<polygon fill="#9a32cd" stroke="#9a32cd" points="425.946,-353.284 415.351,-353.16 423.556,-359.864 425.946,-353.284"/>
<text text-anchor="middle" x="605" y="-374.586" font-family="Helvetica,sans-Serif" font-size="10.00"> edited</text>
<text text-anchor="middle" x="605" y="-363.586" font-family="Helvetica,sans-Serif" font-size="10.00">sent</text>
</g>
<!-- Node15&#45;&gt;Node13 -->
<g id="edge18" class="edge"><title>Node15&#45;&gt;Node13</title>
<path fill="none" stroke="#9a32cd" stroke-dasharray="5,2" d="M425.629,-337.643C459.809,-331.117 515.141,-320.552 555.121,-312.919"/>
<polygon fill="#9a32cd" stroke="#9a32cd" points="424.907,-334.217 415.741,-339.531 426.22,-341.093 424.907,-334.217"/>
<text text-anchor="middle" x="478.5" y="-348.586" font-family="Helvetica,sans-Serif" font-size="10.00"> joined_at</text>
<text text-anchor="middle" x="478.5" y="-337.586" font-family="Helvetica,sans-Serif" font-size="10.00">premium_since</text>
</g>
<!-- Node16 -->
<g id="node16" class="node"><title>Node16</title>
<g id="a_node16"><a xlink:title=" ">
<polygon fill="white" stroke="#bfbfbf" points="376,-372.086 376,-391.086 411,-391.086 411,-372.086 376,-372.086"/>
<text text-anchor="middle" x="393.5" y="-379.086" font-family="Helvetica,sans-Serif" font-size="10.00">bool</text>
</a>
</g>
</g>
<!-- Node16&#45;&gt;Node3 -->
<g id="edge23" class="edge"><title>Node16&#45;&gt;Node3</title>
<path fill="none" stroke="#9a32cd" stroke-dasharray="5,2" d="M421.133,-387.068C427.301,-388.115 433.858,-389.05 440,-389.586 474.093,-392.561 482.782,-390.11 517,-389.586 634.222,-387.793 772.869,-382.714 838.464,-380.132"/>
<polygon fill="#9a32cd" stroke="#9a32cd" points="421.73,-383.619 411.262,-385.252 420.464,-390.504 421.73,-383.619"/>
<text text-anchor="middle" x="605" y="-414.586" font-family="Helvetica,sans-Serif" font-size="10.00"> mention_everyone</text>
<text text-anchor="middle" x="605" y="-403.586" font-family="Helvetica,sans-Serif" font-size="10.00">pinned</text>
<text text-anchor="middle" x="605" y="-392.586" font-family="Helvetica,sans-Serif" font-size="10.00">tts</text>
</g>
<!-- Node16&#45;&gt;Node17 -->
<g id="edge27" class="edge"><title>Node16&#45;&gt;Node17</title>
<path fill="none" stroke="#9a32cd" stroke-dasharray="5,2" d="M413.265,-398.088C423.12,-406.497 434.305,-415.574 440,-418.586 471.572,-435.285 482.833,-431.182 517,-441.586 535.76,-447.299 556.758,-453.812 573.425,-459.01"/>
<polygon fill="#9a32cd" stroke="#9a32cd" points="415.303,-395.223 405.45,-391.329 410.724,-400.518 415.303,-395.223"/>
<text text-anchor="middle" x="478.5" y="-444.586" font-family="Helvetica,sans-Serif" font-size="10.00"> fail_if_not_exists</text>
</g>
<!-- Node16&#45;&gt;Node19 -->
<g id="edge34" class="edge"><title>Node16&#45;&gt;Node19</title>
<path fill="none" stroke="#9a32cd" stroke-dasharray="5,2" d="M419.091,-366.299C420.16,-365.126 421.142,-363.888 422,-362.586 444.213,-328.893 410.949,-301.599 440,-273.586 465.549,-248.95 504.407,-241.755 537.886,-240.928"/>
<polygon fill="#9a32cd" stroke="#9a32cd" points="416.472,-363.934 411.141,-373.09 421.018,-369.257 416.472,-363.934"/>
<text text-anchor="middle" x="478.5" y="-309.586" font-family="Helvetica,sans-Serif" font-size="10.00"> parse_everyone</text>
<text text-anchor="middle" x="478.5" y="-298.586" font-family="Helvetica,sans-Serif" font-size="10.00">parse_roles</text>
<text text-anchor="middle" x="478.5" y="-287.586" font-family="Helvetica,sans-Serif" font-size="10.00">parse_users</text>
<text text-anchor="middle" x="478.5" y="-276.586" font-family="Helvetica,sans-Serif" font-size="10.00">replied_user</text>
</g>
<!-- Node17&#45;&gt;Node3 -->
<g id="edge25" class="edge"><title>Node17&#45;&gt;Node3</title>
<path fill="none" stroke="#9a32cd" stroke-dasharray="5,2" d="M685.203,-460.948C720.761,-454.588 761.848,-442.934 794,-421.586 805.108,-414.211 801.048,-405.19 812,-397.586 819.767,-392.194 829.076,-388.311 838.174,-385.523"/>
<polygon fill="#9a32cd" stroke="#9a32cd" points="684.614,-457.498 675.332,-462.605 685.773,-464.401 684.614,-457.498"/>
<text text-anchor="middle" x="743.5" y="-462.586" font-family="Helvetica,sans-Serif" font-size="10.00"> message_reference</text>
</g>
<!-- Node18&#45;&gt;Node3 -->
<g id="edge28" class="edge"><title>Node18&#45;&gt;Node3</title>
<path fill="none" stroke="#9a32cd" stroke-dasharray="5,2" d="M677.367,-576.474C717.36,-573.519 764.902,-562.601 794,-530.586 834.12,-486.444 773.144,-442.845 812,-397.586 818.692,-389.792 828.404,-385.111 838.27,-382.324"/>
<polygon fill="#9a32cd" stroke="#9a32cd" points="677.155,-572.981 667.377,-577.062 677.566,-579.969 677.155,-572.981"/>
<text text-anchor="middle" x="743.5" y="-577.586" font-family="Helvetica,sans-Serif" font-size="10.00"> interaction</text>
</g>
<!-- Node19&#45;&gt;Node3 -->
<g id="edge33" class="edge"><title>Node19&#45;&gt;Node3</title>
<path fill="none" stroke="#9a32cd" stroke-dasharray="5,2" d="M682.05,-254.066C717.851,-260.094 760.038,-270.97 794,-290.586 828.999,-310.801 858.117,-350.553 870.329,-368.894"/>
<polygon fill="#9a32cd" stroke="#9a32cd" points="682.559,-250.603 672.134,-252.491 681.461,-257.517 682.559,-250.603"/>
<text text-anchor="middle" x="743.5" y="-293.586" font-family="Helvetica,sans-Serif" font-size="10.00"> allowed_mentions</text>
</g>
</g>
</svg>
        <g id="navigator" transform="translate(0 0)" fill="#404254">
                <rect fill="#f2f5e9" fill-opacity="0.5" stroke="#606060" stroke-width=".5" x="0" y="0" width="60" height="60"/>
                <use id="zoomplus" xlink:href="#zoomPlus" x="17" y="9" onmousedown="handleZoom(evt,'in')"/>
                <use id="zoomminus" xlink:href="#zoomMin" x="42" y="9" onmousedown="handleZoom(evt,'out')"/>
                <use id="reset" xlink:href="#resetDef" x="30" y="36" onmousedown="handleReset()"/>
                <g id="arrowUp" xlink:href="#dirArrow" transform="translate(30 24)" onmousedown="handlePan(0,-1)">
                  <use xlink:href="#rim" fill="#404040">
                        <set attributeName="fill" to="#808080" begin="arrowUp.mouseover" end="arrowUp.mouseout"/>
                  </use>
                  <path fill="none" stroke="white" stroke-width="1.5" d="M0,-3.0v7 M-2.5,-0.5L0,-3.0L2.5,-0.5"/>
                </g>
                <g id="arrowRight" xlink:href="#dirArrow" transform="rotate(90) translate(36 -43)" onmousedown="handlePan(1,0)">
                  <use xlink:href="#rim" fill="#404040">
                        <set attributeName="fill" to="#808080" begin="arrowRight.mouseover" end="arrowRight.mouseout"/>
                  </use>
                  <path fill="none" stroke="white" stroke-width="1.5" d="M0,-3.0v7 M-2.5,-0.5L0,-3.0L2.5,-0.5"/>
                </g>
                <g id="arrowDown" xlink:href="#dirArrow" transform="rotate(180) translate(-30 -48)" onmousedown="handlePan(0,1)">
                  <use xlink:href="#rim" fill="#404040">
                        <set attributeName="fill" to="#808080" begin="arrowDown.mouseover" end="arrowDown.mouseout"/>
                  </use>
                  <path fill="none" stroke="white" stroke-width="1.5" d="M0,-3.0v7 M-2.5,-0.5L0,-3.0L2.5,-0.5"/>
                </g>
                <g id="arrowLeft" xlink:href="#dirArrow" transform="rotate(270) translate(-36 17)" onmousedown="handlePan(-1,0)">
                  <use xlink:href="#rim" fill="#404040">
                        <set attributeName="fill" to="#808080" begin="arrowLeft.mouseover" end="arrowLeft.mouseout"/>
                  </use>
                  <path fill="none" stroke="white" stroke-width="1.5" d="M0,-3.0v7 M-2.5,-0.5L0,-3.0L2.5,-0.5"/>
                </g>
        </g>
        <svg viewBox="0 0 15 15" width="100%" height="30px" preserveAspectRatio="xMaxYMin meet">
         <g id="arrow_out" transform="scale(0.3 0.3)">
          <a xlink:href="structdpp_1_1interaction__response__coll__graph_org.svg" target="_base">
           <rect id="button" ry="5" rx="5" y="6" x="6" height="38" width="38"
                fill="#f2f5e9" fill-opacity="0.5" stroke="#606060" stroke-width="1.0"/>
           <path id="arrow"
             d="M 11.500037,31.436501 C 11.940474,20.09759 22.043105,11.32322 32.158766,21.979434 L 37.068811,17.246167 C 37.068811,17.246167 37.088388,32 37.088388,32 L 22.160133,31.978069 C 22.160133,31.978069 26.997745,27.140456 26.997745,27.140456 C 18.528582,18.264221 13.291696,25.230495 11.500037,31.436501 z"
             style="fill:#404040;"/>
          </a>
         </g>
        </svg>
</svg>
