<?xml version="1.0" encoding="UTF-8" standalone="no"?>
<!DOCTYPE svg PUBLIC "-//W3C//DTD SVG 1.1//EN"
 "http://www.w3.org/Graphics/SVG/1.1/DTD/svg11.dtd">
<!-- Generated by graphviz version 2.43.0 (0)
 -->
<!-- Title: dpp::presence_update_t Pages: 1 -->
<!--zoomable 1038 -->
<svg id="main" version="1.1" xmlns="http://www.w3.org/2000/svg" xmlns:xlink="http://www.w3.org/1999/xlink" xml:space="preserve" onload="init(evt)">
<style type="text/css"><![CDATA[
.edge:hover path { stroke: red; }
.edge:hover polygon { stroke: red; fill: red; }
]]></style>
<script type="text/javascript"><![CDATA[
var edges = document.getElementsByTagName('g');
if (edges && edges.length) {
  for (var i=0;i<edges.length;i++) {
    if (edges[i].id.substr(0,4)=='edge') {
      edges[i].setAttribute('class','edge');
    }
  }
}
]]></script>
        <defs>
                <circle id="rim" cx="0" cy="0" r="7"/>
                <circle id="rim2" cx="0" cy="0" r="3.5"/>
                <g id="zoomPlus">
                        <use xlink:href="#rim" fill="#404040">
                                <set attributeName="fill" to="#808080" begin="zoomplus.mouseover" end="zoomplus.mouseout"/>
                        </use>
                        <path d="M-4,0h8M0,-4v8" fill="none" stroke="white" stroke-width="1.5" pointer-events="none"/>
                </g>
                <g id="zoomMin">
                        <use xlink:href="#rim" fill="#404040">
                                <set attributeName="fill" to="#808080" begin="zoomminus.mouseover" end="zoomminus.mouseout"/>
                        </use>
                        <path d="M-4,0h8" fill="none" stroke="white" stroke-width="1.5" pointer-events="none"/>
                </g>
                <g id="dirArrow">
                        <path fill="none" stroke="white" stroke-width="1.5" d="M0,-3.0v7 M-2.5,-0.5L0,-3.0L2.5,-0.5"/>
                </g>
               <g id="resetDef">
                       <use xlink:href="#rim2" fill="#404040">
                               <set attributeName="fill" to="#808080" begin="reset.mouseover" end="reset.mouseout"/>
                       </use>
               </g>
        </defs>

<script type="text/javascript">
var viewWidth = 1518;
var viewHeight = 1038;
var sectionId = 'dynsection-1';
</script>
<script xlink:href="svgpan.js"/>
<svg id="graph" class="graph">
<g id="viewport">
<title>dpp::presence_update_t</title>
<polygon fill="white" stroke="transparent" points="-4,4 -4,-1034.38 1514,-1034.38 1514,4 -4,4"/>
<!-- Node1 -->
<g id="node1" class="node">
<title>Node1</title>
<g id="a_node1"><a xlink:title="Presence update.">
<polygon fill="#bfbfbf" stroke="black" points="1377,-91.88 1377,-110.88 1510,-110.88 1510,-91.88 1377,-91.88"/>
<text text-anchor="middle" x="1443.5" y="-98.88" font-family="Helvetica,sans-Serif" font-size="10.00">dpp::presence_update_t</text>
</a>
</g>
</g>
<!-- Node2 -->
<g id="node2" class="node">
<title>Node2</title>
<g id="a_node2"><a xlink:href="structdpp_1_1event__dispatch__t.html" target="_top" xlink:title="Base event parameter struct. Each event you receive from the library will have its parameter derived ...">
<polygon fill="white" stroke="black" points="1216,-246.88 1216,-265.88 1340,-265.88 1340,-246.88 1216,-246.88"/>
<text text-anchor="middle" x="1278" y="-253.88" font-family="Helvetica,sans-Serif" font-size="10.00">dpp::event_dispatch_t</text>
</a>
</g>
</g>
<!-- Node2&#45;&gt;Node1 -->
<g id="edge1" class="edge">
<title>Node2&#45;&gt;Node1</title>
<path fill="none" stroke="midnightblue" d="M1296.63,-239.67C1330.8,-207.27 1405.1,-136.84 1432.28,-111.08"/>
<polygon fill="midnightblue" stroke="midnightblue" points="1294.08,-237.27 1289.23,-246.69 1298.89,-242.35 1294.08,-237.27"/>
</g>
<!-- Node3 -->
<g id="node3" class="node">
<title>Node3</title>
<g id="a_node3"><a xlink:title=" ">
<polygon fill="white" stroke="#bfbfbf" points="206.5,-537.88 206.5,-556.88 271.5,-556.88 271.5,-537.88 206.5,-537.88"/>
<text text-anchor="middle" x="239" y="-544.88" font-family="Helvetica,sans-Serif" font-size="10.00">std::string</text>
</a>
</g>
</g>
<!-- Node3&#45;&gt;Node2 -->
<g id="edge2" class="edge">
<title>Node3&#45;&gt;Node2</title>
<path fill="none" stroke="#9a32cd" stroke-dasharray="5,2" d="M281.28,-536.65C326.25,-523.01 397.67,-495.42 442,-448.38 456.21,-433.31 444.67,-419.33 460,-405.38 502.01,-367.17 544.29,-409.85 582,-367.38 611.11,-334.6 566.77,-298.99 600,-270.38 645.97,-230.82 1057.79,-245.95 1215.73,-253.3"/>
<polygon fill="#9a32cd" stroke="#9a32cd" points="280.16,-533.33 271.55,-539.5 282.13,-540.04 280.16,-533.33"/>
<text text-anchor="middle" x="809.5" y="-250.38" font-family="Helvetica,sans-Serif" font-size="10.00"> raw_event</text>
</g>
<!-- Node5 -->
<g id="node5" class="node">
<title>Node5</title>
<g id="a_node5"><a xlink:href="classdpp_1_1discord__client.html" target="_top" xlink:title="Implements a discord client. Each discord_client connects to one shard and derives from a websocket c...">
<polygon fill="white" stroke="black" points="1045,-653.88 1045,-672.88 1153,-672.88 1153,-653.88 1045,-653.88"/>
<text text-anchor="middle" x="1099" y="-660.88" font-family="Helvetica,sans-Serif" font-size="10.00">dpp::discord_client</text>
</a>
</g>
</g>
<!-- Node3&#45;&gt;Node5 -->
<g id="edge38" class="edge">
<title>Node3&#45;&gt;Node5</title>
<path fill="none" stroke="#9a32cd" stroke-dasharray="5,2" d="M281.7,-555.82C333.62,-567.04 418.36,-587.97 442,-609.38 457.35,-623.29 443.74,-639.54 460,-652.38 510.4,-692.2 682.82,-683.99 747,-686.38 802.52,-688.46 816.45,-686.92 872,-686.38 940.9,-685.72 958.84,-693.47 1027,-683.38 1041.57,-681.23 1057.38,-676.97 1070.37,-672.94"/>
<polygon fill="#9a32cd" stroke="#9a32cd" points="282.29,-552.36 271.78,-553.7 280.84,-559.21 282.29,-552.36"/>
<text text-anchor="middle" x="664.5" y="-699.38" font-family="Helvetica,sans-Serif" font-size="10.00"> sessionid</text>
<text text-anchor="middle" x="664.5" y="-688.38" font-family="Helvetica,sans-Serif" font-size="10.00">token</text>
</g>
<!-- Node7 -->
<g id="node7" class="node">
<title>Node7</title>
<g id="a_node7"><a xlink:href="classdpp_1_1ssl__client.html" target="_top" xlink:title="Implements a simple non&#45;blocking SSL stream client.">
<polygon fill="white" stroke="black" points="478,-843.88 478,-862.88 564,-862.88 564,-843.88 478,-843.88"/>
<text text-anchor="middle" x="521" y="-850.88" font-family="Helvetica,sans-Serif" font-size="10.00">dpp::ssl_client</text>
</a>
</g>
</g>
<!-- Node3&#45;&gt;Node7 -->
<g id="edge7" class="edge">
<title>Node3&#45;&gt;Node7</title>
<path fill="none" stroke="#9a32cd" stroke-dasharray="5,2" d="M260.59,-563.27C276.93,-575.84 300.37,-593.81 321,-609.38 374.5,-649.75 398.82,-648.12 442,-699.38 452.38,-711.7 500.34,-811.95 515.44,-843.75"/>
<polygon fill="#9a32cd" stroke="#9a32cd" points="262.37,-560.22 252.31,-556.89 258.1,-565.77 262.37,-560.22"/>
<text text-anchor="middle" x="381.5" y="-746.38" font-family="Helvetica,sans-Serif" font-size="10.00"> buffer</text>
<text text-anchor="middle" x="381.5" y="-735.38" font-family="Helvetica,sans-Serif" font-size="10.00">cipher</text>
<text text-anchor="middle" x="381.5" y="-724.38" font-family="Helvetica,sans-Serif" font-size="10.00">hostname</text>
<text text-anchor="middle" x="381.5" y="-713.38" font-family="Helvetica,sans-Serif" font-size="10.00">obuffer</text>
<text text-anchor="middle" x="381.5" y="-702.38" font-family="Helvetica,sans-Serif" font-size="10.00">port</text>
</g>
<!-- Node16 -->
<g id="node16" class="node">
<title>Node16</title>
<g id="a_node16"><a xlink:href="classdpp_1_1cluster.html" target="_top" xlink:title="The cluster class represents a group of shards and a command queue for sending and receiving commands...">
<polygon fill="white" stroke="black" points="772.5,-541.88 772.5,-560.88 846.5,-560.88 846.5,-541.88 772.5,-541.88"/>
<text text-anchor="middle" x="809.5" y="-548.88" font-family="Helvetica,sans-Serif" font-size="10.00">dpp::cluster</text>
</a>
</g>
</g>
<!-- Node3&#45;&gt;Node16 -->
<g id="edge17" class="edge">
<title>Node3&#45;&gt;Node16</title>
<path fill="none" stroke="#9a32cd" stroke-dasharray="5,2" d="M281.89,-547.68C389.01,-548.43 671.59,-550.42 772.25,-551.13"/>
<polygon fill="#9a32cd" stroke="#9a32cd" points="281.81,-544.18 271.78,-547.61 281.76,-551.18 281.81,-544.18"/>
<text text-anchor="middle" x="521" y="-553.38" font-family="Helvetica,sans-Serif" font-size="10.00"> token</text>
</g>
<!-- Node19 -->
<g id="node19" class="node">
<title>Node19</title>
<g id="a_node19"><a xlink:href="classdpp_1_1user.html" target="_top" xlink:title="Represents a user on discord. May or may not be a member of a dpp::guild.">
<polygon fill="white" stroke="black" points="490,-338.88 490,-357.88 552,-357.88 552,-338.88 490,-338.88"/>
<text text-anchor="middle" x="521" y="-345.88" font-family="Helvetica,sans-Serif" font-size="10.00">dpp::user</text>
</a>
</g>
</g>
<!-- Node3&#45;&gt;Node19 -->
<g id="edge24" class="edge">
<title>Node3&#45;&gt;Node19</title>
<path fill="none" stroke="#9a32cd" stroke-dasharray="5,2" d="M248.62,-528.5C260.98,-503.6 286.17,-460.29 321,-437.38 367.12,-407.05 398.83,-443.78 442,-409.38 456.3,-397.99 446.61,-384.84 460,-372.38 468.3,-364.67 479.39,-359.3 489.77,-355.64"/>
<polygon fill="#9a32cd" stroke="#9a32cd" points="245.4,-527.11 244.24,-537.64 251.72,-530.13 245.4,-527.11"/>
<text text-anchor="middle" x="381.5" y="-440.38" font-family="Helvetica,sans-Serif" font-size="10.00"> username</text>
</g>
<!-- Node4 -->
<g id="node4" class="node">
<title>Node4</title>
<g id="a_node4"><a xlink:title=" ">
<polygon fill="white" stroke="#bfbfbf" points="0,-532.38 0,-562.38 104,-562.38 104,-532.38 0,-532.38"/>
<text text-anchor="start" x="8" y="-550.38" font-family="Helvetica,sans-Serif" font-size="10.00">std::basic_string&lt;</text>
<text text-anchor="middle" x="52" y="-539.38" font-family="Helvetica,sans-Serif" font-size="10.00"> Char &gt;</text>
</a>
</g>
</g>
<!-- Node4&#45;&gt;Node3 -->
<g id="edge3" class="edge">
<title>Node4&#45;&gt;Node3</title>
<path fill="none" stroke="midnightblue" d="M114.26,-547.38C145.05,-547.38 181.08,-547.38 206.29,-547.38"/>
<polygon fill="midnightblue" stroke="midnightblue" points="114.04,-543.88 104.04,-547.38 114.04,-550.88 114.04,-543.88"/>
</g>
<!-- Node5&#45;&gt;Node2 -->
<g id="edge4" class="edge">
<title>Node5&#45;&gt;Node2</title>
<path fill="none" stroke="#9a32cd" stroke-dasharray="5,2" d="M1108.2,-644.53C1139.35,-572.9 1249.71,-319.14 1272.76,-266.13"/>
<polygon fill="#9a32cd" stroke="#9a32cd" points="1104.98,-643.16 1104.2,-653.72 1111.4,-645.95 1104.98,-643.16"/>
<text text-anchor="middle" x="1184.5" y="-499.38" font-family="Helvetica,sans-Serif" font-size="10.00"> from</text>
</g>
<!-- Node6 -->
<g id="node6" class="node">
<title>Node6</title>
<g id="a_node6"><a xlink:href="classdpp_1_1websocket__client.html" target="_top" xlink:title="Implements a websocket client based on the SSL client.">
<polygon fill="white" stroke="black" points="747,-853.88 747,-872.88 872,-872.88 872,-853.88 747,-853.88"/>
<text text-anchor="middle" x="809.5" y="-860.88" font-family="Helvetica,sans-Serif" font-size="10.00">dpp::websocket_client</text>
</a>
</g>
</g>
<!-- Node6&#45;&gt;Node5 -->
<g id="edge5" class="edge">
<title>Node6&#45;&gt;Node5</title>
<path fill="none" stroke="midnightblue" d="M882.36,-872.62C928.13,-874.59 986.26,-869.37 1027,-838.38 1082.59,-796.11 1094.83,-703.03 1097.37,-672.96"/>
<polygon fill="midnightblue" stroke="midnightblue" points="882.37,-869.12 872.2,-872.06 881.99,-876.1 882.37,-869.12"/>
</g>
<!-- Node7&#45;&gt;Node6 -->
<g id="edge6" class="edge">
<title>Node7&#45;&gt;Node6</title>
<path fill="none" stroke="midnightblue" d="M574.28,-855.21C622.96,-856.91 695.54,-859.44 746.98,-861.24"/>
<polygon fill="midnightblue" stroke="midnightblue" points="574.39,-851.71 564.27,-854.86 574.15,-858.71 574.39,-851.71"/>
</g>
<!-- Node8 -->
<g id="node8" class="node">
<title>Node8</title>
<g id="a_node8"><a xlink:title=" ">
<polygon fill="white" stroke="#bfbfbf" points="220,-990.88 220,-1009.88 258,-1009.88 258,-990.88 220,-990.88"/>
<text text-anchor="middle" x="239" y="-997.88" font-family="Helvetica,sans-Serif" font-size="10.00">bool</text>
</a>
</g>
</g>
<!-- Node8&#45;&gt;Node5 -->
<g id="edge41" class="edge">
<title>Node8&#45;&gt;Node5</title>
<path fill="none" stroke="#9a32cd" stroke-dasharray="5,2" d="M268.2,-1005.28C380.29,-1023.02 799.25,-1072.7 1027,-869.38 1087.95,-814.97 1096.59,-705.73 1097.81,-672.91"/>
<polygon fill="#9a32cd" stroke="#9a32cd" points="268.47,-1001.78 258.04,-1003.63 267.35,-1008.69 268.47,-1001.78"/>
<text text-anchor="middle" x="664.5" y="-1022.38" font-family="Helvetica,sans-Serif" font-size="10.00"> ready</text>
</g>
<!-- Node8&#45;&gt;Node7 -->
<g id="edge8" class="edge">
<title>Node8&#45;&gt;Node7</title>
<path fill="none" stroke="#9a32cd" stroke-dasharray="5,2" d="M268.08,-996.1C321.85,-987.83 434.7,-970.03 442,-965.38 482.17,-939.8 507.35,-885.35 516.31,-863.13"/>
<polygon fill="#9a32cd" stroke="#9a32cd" points="267.52,-992.65 258.17,-997.63 268.58,-999.57 267.52,-992.65"/>
<text text-anchor="middle" x="381.5" y="-989.38" font-family="Helvetica,sans-Serif" font-size="10.00"> nonblocking</text>
</g>
<!-- Node9 -->
<g id="node9" class="node">
<title>Node9</title>
<g id="a_node9"><a xlink:title=" ">
<polygon fill="white" stroke="#bfbfbf" points="224.5,-877.88 224.5,-896.88 253.5,-896.88 253.5,-877.88 224.5,-877.88"/>
<text text-anchor="middle" x="239" y="-884.88" font-family="Helvetica,sans-Serif" font-size="10.00">int</text>
</a>
</g>
</g>
<!-- Node9&#45;&gt;Node7 -->
<g id="edge9" class="edge">
<title>Node9&#45;&gt;Node7</title>
<path fill="none" stroke="#9a32cd" stroke-dasharray="5,2" d="M263.75,-884.89C301.53,-880.87 377.63,-872.59 442,-864.38 453.67,-862.9 466.3,-861.17 477.93,-859.53"/>
<polygon fill="#9a32cd" stroke="#9a32cd" points="263.31,-881.42 253.73,-885.95 264.04,-888.38 263.31,-881.42"/>
<text text-anchor="middle" x="381.5" y="-881.38" font-family="Helvetica,sans-Serif" font-size="10.00"> sfd</text>
</g>
<!-- Node10 -->
<g id="node10" class="node">
<title>Node10</title>
<g id="a_node10"><a xlink:href="classdpp_1_1opensslcontext.html" target="_top" xlink:title="This is an opaque class containing openssl library specific structures. We define it this way so that...">
<polygon fill="white" stroke="black" points="181.5,-839.88 181.5,-858.88 296.5,-858.88 296.5,-839.88 181.5,-839.88"/>
<text text-anchor="middle" x="239" y="-846.88" font-family="Helvetica,sans-Serif" font-size="10.00">dpp::opensslcontext</text>
</a>
</g>
</g>
<!-- Node10&#45;&gt;Node7 -->
<g id="edge10" class="edge">
<title>Node10&#45;&gt;Node7</title>
<path fill="none" stroke="#9a32cd" stroke-dasharray="5,2" d="M306.99,-850.34C359.96,-851.1 432.3,-852.13 477.57,-852.78"/>
<polygon fill="#9a32cd" stroke="#9a32cd" points="306.71,-846.84 296.66,-850.19 306.61,-853.84 306.71,-846.84"/>
<text text-anchor="middle" x="381.5" y="-854.38" font-family="Helvetica,sans-Serif" font-size="10.00"> ssl</text>
</g>
<!-- Node11 -->
<g id="node11" class="node">
<title>Node11</title>
<g id="a_node11"><a xlink:title=" ">
<polygon fill="white" stroke="#bfbfbf" points="31,-868.88 31,-887.88 73,-887.88 73,-868.88 31,-868.88"/>
<text text-anchor="middle" x="52" y="-875.88" font-family="Helvetica,sans-Serif" font-size="10.00">SSL *</text>
</a>
</g>
</g>
<!-- Node11&#45;&gt;Node10 -->
<g id="edge11" class="edge">
<title>Node11&#45;&gt;Node10</title>
<path fill="none" stroke="#9a32cd" stroke-dasharray="5,2" d="M83.33,-873.63C109.83,-869.48 149,-863.34 181.29,-858.27"/>
<polygon fill="#9a32cd" stroke="#9a32cd" points="82.49,-870.22 73.15,-875.23 83.57,-877.13 82.49,-870.22"/>
<text text-anchor="middle" x="139.5" y="-869.38" font-family="Helvetica,sans-Serif" font-size="10.00"> ssl</text>
</g>
<!-- Node12 -->
<g id="node12" class="node">
<title>Node12</title>
<g id="a_node12"><a xlink:title=" ">
<polygon fill="white" stroke="#bfbfbf" points="18.5,-830.88 18.5,-849.88 85.5,-849.88 85.5,-830.88 18.5,-830.88"/>
<text text-anchor="middle" x="52" y="-837.88" font-family="Helvetica,sans-Serif" font-size="10.00">SSL_CTX *</text>
</a>
</g>
</g>
<!-- Node12&#45;&gt;Node10 -->
<g id="edge12" class="edge">
<title>Node12&#45;&gt;Node10</title>
<path fill="none" stroke="#9a32cd" stroke-dasharray="5,2" d="M95.82,-842.43C114.59,-843.33 136.89,-844.4 157,-845.38 164.88,-845.77 173.18,-846.18 181.35,-846.58"/>
<polygon fill="#9a32cd" stroke="#9a32cd" points="95.94,-838.93 85.79,-841.95 95.61,-845.92 95.94,-838.93"/>
<text text-anchor="middle" x="139.5" y="-848.38" font-family="Helvetica,sans-Serif" font-size="10.00"> ctx</text>
</g>
<!-- Node13 -->
<g id="node13" class="node">
<title>Node13</title>
<g id="a_node13"><a xlink:title=" ">
<polygon fill="white" stroke="#bfbfbf" points="215,-737.88 215,-756.88 263,-756.88 263,-737.88 215,-737.88"/>
<text text-anchor="middle" x="239" y="-744.88" font-family="Helvetica,sans-Serif" font-size="10.00">time_t</text>
</a>
</g>
</g>
<!-- Node13&#45;&gt;Node5 -->
<g id="edge35" class="edge">
<title>Node13&#45;&gt;Node5</title>
<path fill="none" stroke="#9a32cd" stroke-dasharray="5,2" d="M273.35,-748.68C404.57,-753.36 885.02,-766.66 1027,-716.38 1052.52,-707.35 1076.51,-685.69 1089.01,-673.03"/>
<polygon fill="#9a32cd" stroke="#9a32cd" points="273.25,-745.17 263.13,-748.3 272.99,-752.17 273.25,-745.17"/>
<text text-anchor="middle" x="664.5" y="-767.38" font-family="Helvetica,sans-Serif" font-size="10.00"> last_heartbeat</text>
<text text-anchor="middle" x="664.5" y="-756.38" font-family="Helvetica,sans-Serif" font-size="10.00">last_heartbeat_ack</text>
</g>
<!-- Node13&#45;&gt;Node7 -->
<g id="edge13" class="edge">
<title>Node13&#45;&gt;Node7</title>
<path fill="none" stroke="#9a32cd" stroke-dasharray="5,2" d="M273.24,-751.92C326.64,-759.36 427.11,-774.08 442,-781.38 472.94,-796.56 500.3,-827.98 512.8,-843.82"/>
<polygon fill="#9a32cd" stroke="#9a32cd" points="273.61,-748.44 263.22,-750.53 272.65,-755.37 273.61,-748.44"/>
<text text-anchor="middle" x="381.5" y="-784.38" font-family="Helvetica,sans-Serif" font-size="10.00"> last_tick</text>
</g>
<!-- Node13&#45;&gt;Node16 -->
<g id="edge18" class="edge">
<title>Node13&#45;&gt;Node16</title>
<path fill="none" stroke="#9a32cd" stroke-dasharray="5,2" d="M248.27,-728.33C260.38,-702.77 285.43,-657.9 321,-634.38 373.8,-599.48 397.77,-614.95 460,-603.38 519.62,-592.3 695.9,-567.2 772.4,-556.44"/>
<polygon fill="#9a32cd" stroke="#9a32cd" points="244.97,-727.13 244.01,-737.68 251.34,-730.03 244.97,-727.13"/>
<text text-anchor="middle" x="521" y="-606.38" font-family="Helvetica,sans-Serif" font-size="10.00"> last_identify</text>
</g>
<!-- Node14 -->
<g id="node14" class="node">
<title>Node14</title>
<g id="a_node14"><a xlink:title=" ">
<polygon fill="white" stroke="#bfbfbf" points="24,-309.88 24,-328.88 80,-328.88 80,-309.88 24,-309.88"/>
<text text-anchor="middle" x="52" y="-316.88" font-family="Helvetica,sans-Serif" font-size="10.00">uint64_t</text>
</a>
</g>
</g>
<!-- Node14&#45;&gt;Node5 -->
<g id="edge37" class="edge">
<title>Node14&#45;&gt;Node5</title>
<path fill="none" stroke="#9a32cd" stroke-dasharray="5,2" d="M64.06,-301.26C82.96,-271.89 124.41,-214.19 175,-184.38 281.23,-121.8 608,-130.75 729,-154.38 868.18,-181.57 936.56,-159.17 1027,-268.38 1077.99,-329.96 1094.62,-598.59 1097.51,-653.54"/>
<polygon fill="#9a32cd" stroke="#9a32cd" points="61.09,-299.4 58.73,-309.73 67.02,-303.13 61.09,-299.4"/>
<text text-anchor="middle" x="521" y="-142.38" font-family="Helvetica,sans-Serif" font-size="10.00"> last_seq</text>
</g>
<!-- Node14&#45;&gt;Node7 -->
<g id="edge14" class="edge">
<title>Node14&#45;&gt;Node7</title>
<path fill="none" stroke="#9a32cd" stroke-dasharray="5,2" d="M58.02,-338.83C80,-423.78 166.98,-758.52 175,-766.38 196.8,-787.77 390.78,-828.03 477.93,-845.24"/>
<polygon fill="#9a32cd" stroke="#9a32cd" points="61.36,-337.75 55.47,-328.95 54.58,-339.5 61.36,-337.75"/>
<text text-anchor="middle" x="239" y="-820.38" font-family="Helvetica,sans-Serif" font-size="10.00"> bytes_in</text>
<text text-anchor="middle" x="239" y="-809.38" font-family="Helvetica,sans-Serif" font-size="10.00">bytes_out</text>
</g>
<!-- Node20 -->
<g id="node20" class="node">
<title>Node20</title>
<g id="a_node20"><a xlink:href="classdpp_1_1managed.html" target="_top" xlink:title="The managed class is the base class for various types that can be stored in a cache that are identifi...">
<polygon fill="white" stroke="black" points="196,-354.88 196,-373.88 282,-373.88 282,-354.88 196,-354.88"/>
<text text-anchor="middle" x="239" y="-361.88" font-family="Helvetica,sans-Serif" font-size="10.00">dpp::managed</text>
</a>
</g>
</g>
<!-- Node14&#45;&gt;Node20 -->
<g id="edge23" class="edge">
<title>Node14&#45;&gt;Node20</title>
<path fill="none" stroke="#9a32cd" stroke-dasharray="5,2" d="M88.74,-332.31C99.36,-335.88 111.07,-339.54 122,-342.38 146.2,-348.68 173.68,-353.97 195.82,-357.79"/>
<polygon fill="#9a32cd" stroke="#9a32cd" points="89.56,-328.89 78.96,-328.96 87.29,-335.51 89.56,-328.89"/>
<text text-anchor="middle" x="139.5" y="-354.38" font-family="Helvetica,sans-Serif" font-size="10.00"> id</text>
</g>
<!-- Node22 -->
<g id="node22" class="node">
<title>Node22</title>
<g id="a_node22"><a xlink:href="structdpp_1_1utility_1_1iconhash.html" target="_top" xlink:title="Store a 128 bit icon hash (profile picture, server icon etc) as a 128 bit binary value made of two ui...">
<polygon fill="white" stroke="black" points="180,-313.88 180,-332.88 298,-332.88 298,-313.88 180,-313.88"/>
<text text-anchor="middle" x="239" y="-320.88" font-family="Helvetica,sans-Serif" font-size="10.00">dpp::utility::iconhash</text>
</a>
</g>
</g>
<!-- Node14&#45;&gt;Node22 -->
<g id="edge27" class="edge">
<title>Node14&#45;&gt;Node22</title>
<path fill="none" stroke="#9a32cd" stroke-dasharray="5,2" d="M90.52,-319.5C110.3,-319.62 134.97,-319.87 157,-320.38 164.32,-320.55 172,-320.78 179.6,-321.03"/>
<polygon fill="#9a32cd" stroke="#9a32cd" points="90.39,-316 80.37,-319.44 90.36,-323 90.39,-316"/>
<text text-anchor="middle" x="139.5" y="-334.38" font-family="Helvetica,sans-Serif" font-size="10.00"> first</text>
<text text-anchor="middle" x="139.5" y="-323.38" font-family="Helvetica,sans-Serif" font-size="10.00">second</text>
</g>
<!-- Node31 -->
<g id="node31" class="node">
<title>Node31</title>
<g id="a_node31"><a xlink:href="classdpp_1_1presence.html" target="_top" xlink:title="Represents user presence, e.g. what game they are playing and if they are online.">
<polygon fill="white" stroke="black" points="478.5,-69.88 478.5,-88.88 563.5,-88.88 563.5,-69.88 478.5,-69.88"/>
<text text-anchor="middle" x="521" y="-76.88" font-family="Helvetica,sans-Serif" font-size="10.00">dpp::presence</text>
</a>
</g>
</g>
<!-- Node14&#45;&gt;Node31 -->
<g id="edge45" class="edge">
<title>Node14&#45;&gt;Node31</title>
<path fill="none" stroke="#9a32cd" stroke-dasharray="5,2" d="M53.88,-299.55C57.56,-243.88 76.63,-86.4 175,-26.38 285.19,40.84 450.85,-40.49 503.4,-69.71"/>
<polygon fill="#9a32cd" stroke="#9a32cd" points="50.37,-299.63 53.3,-309.81 57.36,-300.02 50.37,-299.63"/>
<text text-anchor="middle" x="239" y="-40.38" font-family="Helvetica,sans-Serif" font-size="10.00"> guild_id</text>
<text text-anchor="middle" x="239" y="-29.38" font-family="Helvetica,sans-Serif" font-size="10.00">user_id</text>
</g>
<!-- Node15 -->
<g id="node15" class="node">
<title>Node15</title>
<g id="a_node15"><a xlink:title=" ">
<polygon fill="white" stroke="#bfbfbf" points="206.5,-915.88 206.5,-934.88 271.5,-934.88 271.5,-915.88 206.5,-915.88"/>
<text text-anchor="middle" x="239" y="-922.88" font-family="Helvetica,sans-Serif" font-size="10.00">function&lt;</text>
</a>
</g>
</g>
<!-- Node15&#45;&gt;Node7 -->
<g id="edge15" class="edge">
<title>Node15&#45;&gt;Node7</title>
<path fill="none" stroke="#9a32cd" stroke-dasharray="5,2" d="M281.53,-922.66C323.01,-919.05 388.17,-910.95 442,-893.38 465,-885.88 489.52,-872.26 504.8,-863.03"/>
<polygon fill="#9a32cd" stroke="#9a32cd" points="281.2,-919.18 271.52,-923.48 281.77,-926.15 281.2,-919.18"/>
<text text-anchor="middle" x="381.5" y="-953.38" font-family="Helvetica,sans-Serif" font-size="10.00"> custom_readable_fd</text>
<text text-anchor="middle" x="381.5" y="-942.38" font-family="Helvetica,sans-Serif" font-size="10.00">custom_readable_ready</text>
<text text-anchor="middle" x="381.5" y="-931.38" font-family="Helvetica,sans-Serif" font-size="10.00">custom_writeable_fd</text>
<text text-anchor="middle" x="381.5" y="-920.38" font-family="Helvetica,sans-Serif" font-size="10.00">custom_writeable_ready</text>
</g>
<!-- Node16&#45;&gt;Node5 -->
<g id="edge16" class="edge">
<title>Node16&#45;&gt;Node5</title>
<path fill="none" stroke="#9a32cd" stroke-dasharray="5,2" d="M844.58,-564.66C903.32,-587.54 1022.26,-633.88 1073.55,-653.86"/>
<polygon fill="#9a32cd" stroke="#9a32cd" points="845.6,-561.3 835.01,-560.93 843.06,-567.82 845.6,-561.3"/>
<text text-anchor="middle" x="958.5" y="-635.38" font-family="Helvetica,sans-Serif" font-size="10.00"> creator</text>
</g>
<!-- Node17 -->
<g id="node17" class="node">
<title>Node17</title>
<g id="a_node17"><a xlink:title=" ">
<polygon fill="white" stroke="#bfbfbf" points="211,-266.88 211,-285.88 267,-285.88 267,-266.88 211,-266.88"/>
<text text-anchor="middle" x="239" y="-273.88" font-family="Helvetica,sans-Serif" font-size="10.00">uint32_t</text>
</a>
</g>
</g>
<!-- Node17&#45;&gt;Node5 -->
<g id="edge34" class="edge">
<title>Node17&#45;&gt;Node5</title>
<path fill="none" stroke="#9a32cd" stroke-dasharray="5,2" d="M277.33,-270.89C331.97,-262.58 428.73,-246.81 442,-237.38 454.99,-228.16 447.11,-215.74 460,-206.38 508.68,-171.05 684.36,-136.07 729,-176.38 758.18,-202.73 728.37,-317.76 747,-352.38 823.17,-493.96 911.74,-469.31 1027,-581.38 1052.11,-605.8 1078.21,-638.02 1090.61,-653.82"/>
<polygon fill="#9a32cd" stroke="#9a32cd" points="276.69,-267.44 267.32,-272.39 277.73,-274.36 276.69,-267.44"/>
<text text-anchor="middle" x="664.5" y="-234.38" font-family="Helvetica,sans-Serif" font-size="10.00"> heartbeat_interval</text>
<text text-anchor="middle" x="664.5" y="-223.38" font-family="Helvetica,sans-Serif" font-size="10.00">intents</text>
<text text-anchor="middle" x="664.5" y="-212.38" font-family="Helvetica,sans-Serif" font-size="10.00">max_shards</text>
<text text-anchor="middle" x="664.5" y="-201.38" font-family="Helvetica,sans-Serif" font-size="10.00">reconnects</text>
<text text-anchor="middle" x="664.5" y="-190.38" font-family="Helvetica,sans-Serif" font-size="10.00">resumes</text>
<text text-anchor="middle" x="664.5" y="-179.38" font-family="Helvetica,sans-Serif" font-size="10.00">shard_id</text>
</g>
<!-- Node17&#45;&gt;Node16 -->
<g id="edge19" class="edge">
<title>Node17&#45;&gt;Node16</title>
<path fill="none" stroke="#9a32cd" stroke-dasharray="5,2" d="M277.19,-274.18C354,-270.15 527.53,-263.85 582,-285.38 591.95,-289.32 590.55,-296.36 600,-301.38 652.26,-329.16 685.34,-294.44 729,-334.38 746.73,-350.61 738.82,-362.78 747,-385.38 768.53,-444.92 795.23,-516.13 804.84,-541.67"/>
<polygon fill="#9a32cd" stroke="#9a32cd" points="276.81,-270.7 267.02,-274.73 277.19,-277.69 276.81,-270.7"/>
<text text-anchor="middle" x="521" y="-321.38" font-family="Helvetica,sans-Serif" font-size="10.00"> cluster_id</text>
<text text-anchor="middle" x="521" y="-310.38" font-family="Helvetica,sans-Serif" font-size="10.00">intents</text>
<text text-anchor="middle" x="521" y="-299.38" font-family="Helvetica,sans-Serif" font-size="10.00">maxclusters</text>
<text text-anchor="middle" x="521" y="-288.38" font-family="Helvetica,sans-Serif" font-size="10.00">numshards</text>
</g>
<!-- Node17&#45;&gt;Node19 -->
<g id="edge28" class="edge">
<title>Node17&#45;&gt;Node19</title>
<path fill="none" stroke="#9a32cd" stroke-dasharray="5,2" d="M277.36,-281.24C318.38,-287.15 385.88,-298.6 442,-316.38 450.35,-319.03 451.93,-320.98 460,-324.38 471.58,-329.27 484.51,-334.47 495.39,-338.78"/>
<polygon fill="#9a32cd" stroke="#9a32cd" points="277.66,-277.74 267.27,-279.82 276.69,-284.68 277.66,-277.74"/>
<text text-anchor="middle" x="381.5" y="-319.38" font-family="Helvetica,sans-Serif" font-size="10.00"> flags</text>
</g>
<!-- Node18 -->
<g id="node18" class="node">
<title>Node18</title>
<g id="a_node18"><a xlink:title=" ">
<polygon fill="white" stroke="#bfbfbf" points="496,-623.88 496,-642.88 546,-642.88 546,-623.88 496,-623.88"/>
<text text-anchor="middle" x="521" y="-630.88" font-family="Helvetica,sans-Serif" font-size="10.00">double</text>
</a>
</g>
</g>
<!-- Node18&#45;&gt;Node5 -->
<g id="edge40" class="edge">
<title>Node18&#45;&gt;Node5</title>
<path fill="none" stroke="#9a32cd" stroke-dasharray="5,2" d="M556.07,-645.06C569.58,-649.14 585.36,-653.24 600,-655.38 760.63,-678.92 953.51,-672.24 1044.94,-667"/>
<polygon fill="#9a32cd" stroke="#9a32cd" points="556.83,-641.63 546.24,-641.97 554.73,-648.31 556.83,-641.63"/>
<text text-anchor="middle" x="809.5" y="-674.38" font-family="Helvetica,sans-Serif" font-size="10.00"> websocket_ping</text>
</g>
<!-- Node18&#45;&gt;Node16 -->
<g id="edge20" class="edge">
<title>Node18&#45;&gt;Node16</title>
<path fill="none" stroke="#9a32cd" stroke-dasharray="5,2" d="M555.96,-622.48C569.56,-618.35 585.44,-613.82 600,-610.38 656.68,-597.02 673.38,-604.64 729,-587.38 751,-580.56 774.9,-569.15 790.69,-561"/>
<polygon fill="#9a32cd" stroke="#9a32cd" points="554.58,-619.25 546.06,-625.54 556.65,-625.94 554.58,-619.25"/>
<text text-anchor="middle" x="664.5" y="-613.38" font-family="Helvetica,sans-Serif" font-size="10.00"> rest_ping</text>
</g>
<!-- Node19&#45;&gt;Node16 -->
<g id="edge21" class="edge">
<title>Node19&#45;&gt;Node16</title>
<path fill="none" stroke="#9a32cd" stroke-dasharray="5,2" d="M562.14,-343.41C614.6,-337.76 702.87,-331.49 729,-349.38 737.61,-355.28 790.84,-502.2 805.03,-541.69"/>
<polygon fill="#9a32cd" stroke="#9a32cd" points="561.71,-339.93 552.16,-344.52 562.48,-346.89 561.71,-339.93"/>
<text text-anchor="middle" x="664.5" y="-352.38" font-family="Helvetica,sans-Serif" font-size="10.00"> me</text>
</g>
<!-- Node20&#45;&gt;Node19 -->
<g id="edge22" class="edge">
<title>Node20&#45;&gt;Node19</title>
<path fill="none" stroke="midnightblue" d="M292.45,-362.69C333.24,-361.22 391.25,-358.79 442,-355.38 457.74,-354.33 475.23,-352.79 489.65,-351.43"/>
<polygon fill="midnightblue" stroke="midnightblue" points="292.07,-359.21 282.2,-363.06 292.32,-366.2 292.07,-359.21"/>
</g>
<!-- Node21 -->
<g id="node21" class="node">
<title>Node21</title>
<g id="a_node21"><a xlink:title=" ">
<polygon fill="white" stroke="#bfbfbf" points="211,-392.88 211,-411.88 267,-411.88 267,-392.88 211,-392.88"/>
<text text-anchor="middle" x="239" y="-399.88" font-family="Helvetica,sans-Serif" font-size="10.00">uint16_t</text>
</a>
</g>
</g>
<!-- Node21&#45;&gt;Node19 -->
<g id="edge25" class="edge">
<title>Node21&#45;&gt;Node19</title>
<path fill="none" stroke="#9a32cd" stroke-dasharray="5,2" d="M277.08,-398.94C317.86,-394.73 385.15,-386.48 442,-373.38 459.6,-369.33 478.93,-363.15 493.95,-357.94"/>
<polygon fill="#9a32cd" stroke="#9a32cd" points="276.66,-395.47 267.06,-399.95 277.36,-402.43 276.66,-395.47"/>
<text text-anchor="middle" x="381.5" y="-397.38" font-family="Helvetica,sans-Serif" font-size="10.00"> discriminator</text>
</g>
<!-- Node22&#45;&gt;Node19 -->
<g id="edge26" class="edge">
<title>Node22&#45;&gt;Node19</title>
<path fill="none" stroke="#9a32cd" stroke-dasharray="5,2" d="M308.19,-329.47C366.11,-334.64 446.51,-341.82 489.69,-345.68"/>
<polygon fill="#9a32cd" stroke="#9a32cd" points="308.29,-325.97 298.02,-328.56 307.67,-332.94 308.29,-325.97"/>
<text text-anchor="middle" x="381.5" y="-344.38" font-family="Helvetica,sans-Serif" font-size="10.00"> avatar</text>
</g>
<!-- Node23 -->
<g id="node23" class="node">
<title>Node23</title>
<g id="a_node23"><a xlink:title=" ">
<polygon fill="white" stroke="#bfbfbf" points="214,-95.88 214,-114.88 264,-114.88 264,-95.88 214,-95.88"/>
<text text-anchor="middle" x="239" y="-102.88" font-family="Helvetica,sans-Serif" font-size="10.00">uint8_t</text>
</a>
</g>
</g>
<!-- Node23&#45;&gt;Node19 -->
<g id="edge29" class="edge">
<title>Node23&#45;&gt;Node19</title>
<path fill="none" stroke="#9a32cd" stroke-dasharray="5,2" d="M274.37,-110.33C320.46,-118.92 401.2,-141.17 442,-195.38 476.81,-241.64 424.3,-278.81 460,-324.38 467.33,-333.75 478.88,-339.47 489.89,-342.96"/>
<polygon fill="#9a32cd" stroke="#9a32cd" points="274.72,-106.84 264.27,-108.57 273.52,-113.74 274.72,-106.84"/>
<text text-anchor="middle" x="381.5" y="-198.38" font-family="Helvetica,sans-Serif" font-size="10.00"> refcount</text>
</g>
<!-- Node23&#45;&gt;Node31 -->
<g id="edge46" class="edge">
<title>Node23&#45;&gt;Node31</title>
<path fill="none" stroke="#9a32cd" stroke-dasharray="5,2" d="M274.33,-102.2C325.84,-97.41 423,-88.39 478.45,-83.24"/>
<polygon fill="#9a32cd" stroke="#9a32cd" points="273.99,-98.71 264.36,-103.12 274.64,-105.68 273.99,-98.71"/>
<text text-anchor="middle" x="381.5" y="-101.38" font-family="Helvetica,sans-Serif" font-size="10.00"> flags</text>
</g>
<!-- Node24 -->
<g id="node24" class="node">
<title>Node24</title>
<g id="a_node24"><a xlink:href="structdpp_1_1cache__policy__t.html" target="_top" xlink:title="Represents the caching policy of the cluster.">
<polygon fill="white" stroke="black" points="464.5,-215.88 464.5,-234.88 577.5,-234.88 577.5,-215.88 464.5,-215.88"/>
<text text-anchor="middle" x="521" y="-222.88" font-family="Helvetica,sans-Serif" font-size="10.00">dpp::cache_policy_t</text>
</a>
</g>
</g>
<!-- Node24&#45;&gt;Node16 -->
<g id="edge30" class="edge">
<title>Node24&#45;&gt;Node16</title>
<path fill="none" stroke="#9a32cd" stroke-dasharray="5,2" d="M569.65,-237.58C627.34,-252.77 718.17,-278.2 729,-290.38 757.56,-322.5 735.5,-343.98 747,-385.38 763.95,-446.38 793.44,-516.7 804.32,-541.84"/>
<polygon fill="#9a32cd" stroke="#9a32cd" points="570.2,-234.11 559.64,-234.96 568.43,-240.88 570.2,-234.11"/>
<text text-anchor="middle" x="664.5" y="-293.38" font-family="Helvetica,sans-Serif" font-size="10.00"> cache_policy</text>
</g>
<!-- Node25 -->
<g id="node25" class="node">
<title>Node25</title>
<g id="a_node25"><a xlink:title=" ">
<polygon fill="white" stroke="#bfbfbf" points="175,-193.88 175,-212.88 303,-212.88 303,-193.88 175,-193.88"/>
<text text-anchor="middle" x="239" y="-200.88" font-family="Helvetica,sans-Serif" font-size="10.00">cache_policy_setting_t</text>
</a>
</g>
</g>
<!-- Node25&#45;&gt;Node24 -->
<g id="edge31" class="edge">
<title>Node25&#45;&gt;Node24</title>
<path fill="none" stroke="#9a32cd" stroke-dasharray="5,2" d="M313.35,-209.15C360.52,-212.85 420.87,-217.6 464.16,-221"/>
<polygon fill="#9a32cd" stroke="#9a32cd" points="313.43,-205.64 303.19,-208.35 312.88,-212.62 313.43,-205.64"/>
<text text-anchor="middle" x="381.5" y="-244.38" font-family="Helvetica,sans-Serif" font-size="10.00"> emoji_policy</text>
<text text-anchor="middle" x="381.5" y="-233.38" font-family="Helvetica,sans-Serif" font-size="10.00">role_policy</text>
<text text-anchor="middle" x="381.5" y="-222.38" font-family="Helvetica,sans-Serif" font-size="10.00">user_policy</text>
</g>
<!-- Node26 -->
<g id="node26" class="node">
<title>Node26</title>
<g id="a_node26"><a xlink:title=" ">
<polygon fill="white" stroke="#bfbfbf" points="460,-699.88 460,-718.88 582,-718.88 582,-699.88 460,-699.88"/>
<text text-anchor="middle" x="521" y="-706.88" font-family="Helvetica,sans-Serif" font-size="10.00">websocket_protocol_t</text>
</a>
</g>
</g>
<!-- Node26&#45;&gt;Node5 -->
<g id="edge42" class="edge">
<title>Node26&#45;&gt;Node5</title>
<path fill="none" stroke="#9a32cd" stroke-dasharray="5,2" d="M537.7,-726.6C552.32,-741.49 575.49,-762.31 600,-773.38 686.62,-812.53 945.64,-847.52 1027,-798.38 1073.92,-770.05 1091.38,-699.27 1096.35,-673.21"/>
<polygon fill="#9a32cd" stroke="#9a32cd" points="539.93,-723.87 530.5,-719.04 534.86,-728.7 539.93,-723.87"/>
<text text-anchor="middle" x="809.5" y="-824.38" font-family="Helvetica,sans-Serif" font-size="10.00"> protocol</text>
</g>
<!-- Node26&#45;&gt;Node16 -->
<g id="edge32" class="edge">
<title>Node26&#45;&gt;Node16</title>
<path fill="none" stroke="#9a32cd" stroke-dasharray="5,2" d="M548.51,-694.8C563.43,-686.85 582.52,-677.09 600,-669.38 655.98,-644.72 676.5,-652.79 729,-621.38 757.72,-604.2 785.79,-576.07 799.61,-561.24"/>
<polygon fill="#9a32cd" stroke="#9a32cd" points="546.52,-691.9 539.37,-699.73 549.84,-698.07 546.52,-691.9"/>
<text text-anchor="middle" x="664.5" y="-672.38" font-family="Helvetica,sans-Serif" font-size="10.00"> ws_mode</text>
</g>
<!-- Node27 -->
<g id="node27" class="node">
<title>Node27</title>
<g id="a_node27"><a xlink:title=" ">
<polygon fill="white" stroke="#bfbfbf" points="473,-414.88 473,-433.88 569,-433.88 569,-414.88 473,-414.88"/>
<text text-anchor="middle" x="521" y="-421.88" font-family="Helvetica,sans-Serif" font-size="10.00">event_router_t&lt;</text>
</a>
</g>
</g>
<!-- Node27&#45;&gt;Node16 -->
<g id="edge33" class="edge">
<title>Node27&#45;&gt;Node16</title>
<path fill="none" stroke="#9a32cd" stroke-dasharray="5,2" d="M561.78,-410.94C568.75,-407.9 575.76,-404.37 582,-400.38 591.27,-394.46 589.77,-387.45 600,-383.38 653.28,-362.2 680.56,-352.72 729,-383.38 787.07,-420.15 803.54,-512.04 807.44,-541.87"/>
<polygon fill="#9a32cd" stroke="#9a32cd" points="560.32,-407.75 552.38,-414.77 562.96,-414.24 560.32,-407.75"/>
<text text-anchor="start" x="600" y="-529.38" font-family="Helvetica,sans-Serif" font-size="10.00"> on_application_command</text>
<text text-anchor="middle" x="664.5" y="-518.38" font-family="Helvetica,sans-Serif" font-size="10.00">_create</text>
<text text-anchor="start" x="600" y="-507.38" font-family="Helvetica,sans-Serif" font-size="10.00">on_application_command</text>
<text text-anchor="middle" x="664.5" y="-496.38" font-family="Helvetica,sans-Serif" font-size="10.00">_delete</text>
<text text-anchor="start" x="600" y="-485.38" font-family="Helvetica,sans-Serif" font-size="10.00">on_application_command</text>
<text text-anchor="middle" x="664.5" y="-474.38" font-family="Helvetica,sans-Serif" font-size="10.00">_update</text>
<text text-anchor="middle" x="664.5" y="-463.38" font-family="Helvetica,sans-Serif" font-size="10.00">on_autocomplete</text>
<text text-anchor="middle" x="664.5" y="-452.38" font-family="Helvetica,sans-Serif" font-size="10.00">on_button_click</text>
<text text-anchor="middle" x="664.5" y="-441.38" font-family="Helvetica,sans-Serif" font-size="10.00">on_channel_create</text>
<text text-anchor="middle" x="664.5" y="-430.38" font-family="Helvetica,sans-Serif" font-size="10.00">on_channel_delete</text>
<text text-anchor="middle" x="664.5" y="-419.38" font-family="Helvetica,sans-Serif" font-size="10.00">on_channel_pins_update</text>
<text text-anchor="middle" x="664.5" y="-408.38" font-family="Helvetica,sans-Serif" font-size="10.00">on_channel_update</text>
<text text-anchor="middle" x="664.5" y="-397.38" font-family="Helvetica,sans-Serif" font-size="10.00">on_guild_ban_add</text>
<text text-anchor="middle" x="664.5" y="-386.38" font-family="Helvetica,sans-Serif" font-size="10.00">...</text>
</g>
<!-- Node28 -->
<g id="node28" class="node">
<title>Node28</title>
<g id="a_node28"><a xlink:title=" ">
<polygon fill="white" stroke="#bfbfbf" points="753,-323.88 753,-342.88 866,-342.88 866,-323.88 753,-323.88"/>
<text text-anchor="middle" x="809.5" y="-330.88" font-family="Helvetica,sans-Serif" font-size="10.00">native_handle_type</text>
</a>
</g>
</g>
<!-- Node28&#45;&gt;Node5 -->
<g id="edge36" class="edge">
<title>Node28&#45;&gt;Node5</title>
<path fill="none" stroke="#9a32cd" stroke-dasharray="5,2" d="M855.79,-321.76C904.06,-312.3 979.89,-306.28 1027,-346.38 1075.74,-387.88 1093.87,-605.03 1097.35,-653.7"/>
<polygon fill="#9a32cd" stroke="#9a32cd" points="855,-318.35 845.93,-323.81 856.43,-325.2 855,-318.35"/>
<text text-anchor="middle" x="958.5" y="-349.38" font-family="Helvetica,sans-Serif" font-size="10.00"> thread_id</text>
</g>
<!-- Node29 -->
<g id="node29" class="node">
<title>Node29</title>
<g id="a_node29"><a xlink:title=" ">
<polygon fill="white" stroke="#bfbfbf" points="775,-285.88 775,-304.88 844,-304.88 844,-285.88 775,-285.88"/>
<text text-anchor="middle" x="809.5" y="-292.88" font-family="Helvetica,sans-Serif" font-size="10.00">std::mutex</text>
</a>
</g>
</g>
<!-- Node29&#45;&gt;Node5 -->
<g id="edge39" class="edge">
<title>Node29&#45;&gt;Node5</title>
<path fill="none" stroke="#9a32cd" stroke-dasharray="5,2" d="M849.26,-283.16C896.93,-270.76 977.59,-258.73 1027,-300.38 1083.22,-347.77 1095.67,-600.85 1097.67,-653.7"/>
<polygon fill="#9a32cd" stroke="#9a32cd" points="848.04,-279.86 839.32,-285.87 849.89,-286.61 848.04,-279.86"/>
<text text-anchor="middle" x="958.5" y="-303.38" font-family="Helvetica,sans-Serif" font-size="10.00"> voice_mutex</text>
</g>
<!-- Node30 -->
<g id="node30" class="node">
<title>Node30</title>
<g id="a_node30"><a xlink:title=" ">
<polygon fill="white" stroke="#bfbfbf" points="759,-768.88 759,-787.88 860,-787.88 860,-768.88 759,-768.88"/>
<text text-anchor="middle" x="809.5" y="-775.88" font-family="Helvetica,sans-Serif" font-size="10.00">unordered_map&lt;</text>
</a>
</g>
</g>
<!-- Node30&#45;&gt;Node5 -->
<g id="edge43" class="edge">
<title>Node30&#45;&gt;Node5</title>
<path fill="none" stroke="#9a32cd" stroke-dasharray="5,2" d="M870.28,-783.84C916,-785.27 979.11,-781.13 1027,-754.38 1061.12,-735.33 1084.45,-692.5 1093.64,-673.18"/>
<polygon fill="#9a32cd" stroke="#9a32cd" points="870.35,-780.34 860.22,-783.43 870.07,-787.33 870.35,-780.34"/>
<text text-anchor="middle" x="958.5" y="-786.38" font-family="Helvetica,sans-Serif" font-size="10.00"> connecting_voice_channels</text>
</g>
<!-- Node31&#45;&gt;Node1 -->
<g id="edge44" class="edge">
<title>Node31&#45;&gt;Node1</title>
<path fill="none" stroke="#9a32cd" stroke-dasharray="5,2" d="M574,-82.29C631.39,-85.24 726.51,-89.38 808.5,-89.38 808.5,-89.38 808.5,-89.38 1279,-89.38 1311.3,-89.38 1347.1,-91.74 1376.95,-94.37"/>
<polygon fill="#9a32cd" stroke="#9a32cd" points="573.91,-78.78 563.74,-81.75 573.54,-85.77 573.91,-78.78"/>
<text text-anchor="middle" x="1099" y="-92.38" font-family="Helvetica,sans-Serif" font-size="10.00"> rich_presence</text>
</g>
<!-- Node32 -->
<g id="node32" class="node">
<title>Node32</title>
<g id="a_node32"><a xlink:title=" ">
<polygon fill="white" stroke="#bfbfbf" points="211,-57.88 211,-76.88 267,-76.88 267,-57.88 211,-57.88"/>
<text text-anchor="middle" x="239" y="-64.88" font-family="Helvetica,sans-Serif" font-size="10.00">vector&lt;</text>
</a>
</g>
</g>
<!-- Node32&#45;&gt;Node31 -->
<g id="edge47" class="edge">
<title>Node32&#45;&gt;Node31</title>
<path fill="none" stroke="#9a32cd" stroke-dasharray="5,2" d="M277.38,-66.82C317.96,-66.47 384.65,-66.66 442,-70.38 453.83,-71.15 466.63,-72.44 478.38,-73.8"/>
<polygon fill="#9a32cd" stroke="#9a32cd" points="277.12,-63.32 267.15,-66.93 277.19,-70.32 277.12,-63.32"/>
<text text-anchor="middle" x="381.5" y="-73.38" font-family="Helvetica,sans-Serif" font-size="10.00"> activities</text>
</g>
</g>
</svg>
        <g id="navigator" transform="translate(0 0)" fill="#404254">
                <rect fill="#f2f5e9" fill-opacity="0.5" stroke="#606060" stroke-width=".5" x="0" y="0" width="60" height="60"/>
                <use id="zoomplus" xlink:href="#zoomPlus" x="17" y="9" onmousedown="handleZoom(evt,'in')"/>
                <use id="zoomminus" xlink:href="#zoomMin" x="42" y="9" onmousedown="handleZoom(evt,'out')"/>
                <use id="reset" xlink:href="#resetDef" x="30" y="36" onmousedown="handleReset()"/>
                <g id="arrowUp" xlink:href="#dirArrow" transform="translate(30 24)" onmousedown="handlePan(0,-1)">
                  <use xlink:href="#rim" fill="#404040">
                        <set attributeName="fill" to="#808080" begin="arrowUp.mouseover" end="arrowUp.mouseout"/>
                  </use>
                  <path fill="none" stroke="white" stroke-width="1.5" d="M0,-3.0v7 M-2.5,-0.5L0,-3.0L2.5,-0.5"/>
                </g>
                <g id="arrowRight" xlink:href="#dirArrow" transform="rotate(90) translate(36 -43)" onmousedown="handlePan(1,0)">
                  <use xlink:href="#rim" fill="#404040">
                        <set attributeName="fill" to="#808080" begin="arrowRight.mouseover" end="arrowRight.mouseout"/>
                  </use>
                  <path fill="none" stroke="white" stroke-width="1.5" d="M0,-3.0v7 M-2.5,-0.5L0,-3.0L2.5,-0.5"/>
                </g>
                <g id="arrowDown" xlink:href="#dirArrow" transform="rotate(180) translate(-30 -48)" onmousedown="handlePan(0,1)">
                  <use xlink:href="#rim" fill="#404040">
                        <set attributeName="fill" to="#808080" begin="arrowDown.mouseover" end="arrowDown.mouseout"/>
                  </use>
                  <path fill="none" stroke="white" stroke-width="1.5" d="M0,-3.0v7 M-2.5,-0.5L0,-3.0L2.5,-0.5"/>
                </g>
                <g id="arrowLeft" xlink:href="#dirArrow" transform="rotate(270) translate(-36 17)" onmousedown="handlePan(-1,0)">
                  <use xlink:href="#rim" fill="#404040">
                        <set attributeName="fill" to="#808080" begin="arrowLeft.mouseover" end="arrowLeft.mouseout"/>
                  </use>
                  <path fill="none" stroke="white" stroke-width="1.5" d="M0,-3.0v7 M-2.5,-0.5L0,-3.0L2.5,-0.5"/>
                </g>
        </g>
        <svg viewBox="0 0 15 15" width="100%" height="30px" preserveAspectRatio="xMaxYMin meet">
         <g id="arrow_out" transform="scale(0.3 0.3)">
          <a xlink:href="structdpp_1_1presence__update__t__coll__graph_org.svg" target="_base">
           <rect id="button" ry="5" rx="5" y="6" x="6" height="38" width="38"
                fill="#f2f5e9" fill-opacity="0.5" stroke="#606060" stroke-width="1.0"/>
           <path id="arrow"
             d="M 11.500037,31.436501 C 11.940474,20.09759 22.043105,11.32322 32.158766,21.979434 L 37.068811,17.246167 C 37.068811,17.246167 37.088388,32 37.088388,32 L 22.160133,31.978069 C 22.160133,31.978069 26.997745,27.140456 26.997745,27.140456 C 18.528582,18.264221 13.291696,25.230495 11.500037,31.436501 z"
             style="fill:#404040;"/>
          </a>
         </g>
        </svg>
</svg>
