<?xml version="1.0" encoding="UTF-8" standalone="no"?>
<!DOCTYPE svg PUBLIC "-//W3C//DTD SVG 1.1//EN"
 "http://www.w3.org/Graphics/SVG/1.1/DTD/svg11.dtd">
<!-- Generated by graphviz version 2.43.0 (0)
 -->
<!-- Title: dpp::entitlement_update_t Pages: 1 -->
<!--zoomable 828 -->
<svg id="main" version="1.1" xmlns="http://www.w3.org/2000/svg" xmlns:xlink="http://www.w3.org/1999/xlink" xml:space="preserve" onload="init(evt)">
<style type="text/css"><![CDATA[
.edge:hover path { stroke: red; }
.edge:hover polygon { stroke: red; fill: red; }
]]></style>
<script type="text/javascript"><![CDATA[
var edges = document.getElementsByTagName('g');
if (edges && edges.length) {
  for (var i=0;i<edges.length;i++) {
    if (edges[i].id.substr(0,4)=='edge') {
      edges[i].setAttribute('class','edge');
    }
  }
}
]]></script>
        <defs>
                <circle id="rim" cx="0" cy="0" r="7"/>
                <circle id="rim2" cx="0" cy="0" r="3.5"/>
                <g id="zoomPlus">
                        <use xlink:href="#rim" fill="#404040">
                                <set attributeName="fill" to="#808080" begin="zoomplus.mouseover" end="zoomplus.mouseout"/>
                        </use>
                        <path d="M-4,0h8M0,-4v8" fill="none" stroke="white" stroke-width="1.5" pointer-events="none"/>
                </g>
                <g id="zoomMin">
                        <use xlink:href="#rim" fill="#404040">
                                <set attributeName="fill" to="#808080" begin="zoomminus.mouseover" end="zoomminus.mouseout"/>
                        </use>
                        <path d="M-4,0h8" fill="none" stroke="white" stroke-width="1.5" pointer-events="none"/>
                </g>
                <g id="dirArrow">
                        <path fill="none" stroke="white" stroke-width="1.5" d="M0,-3.0v7 M-2.5,-0.5L0,-3.0L2.5,-0.5"/>
                </g>
               <g id="resetDef">
                       <use xlink:href="#rim2" fill="#404040">
                               <set attributeName="fill" to="#808080" begin="reset.mouseover" end="reset.mouseout"/>
                       </use>
               </g>
        </defs>

<script type="text/javascript">
var viewWidth = 1502;
var viewHeight = 828;
var sectionId = 'dynsection-1';
</script>
<script xlink:href="svgpan.js"/>
<svg id="graph" class="graph">
<g id="viewport">
<title>dpp::entitlement_update_t</title>
<!-- Node1 -->
<g id="node1" class="node">
<title>Node1</title>
<g id="a_node1"><a xlink:title="Delete stage instance.">
<polygon fill="#bfbfbf" stroke="black" points="1348,-130.5 1348,-149.5 1494,-149.5 1494,-130.5 1348,-130.5"/>
<text text-anchor="middle" x="1421" y="-137.5" font-family="Helvetica,sans-Serif" font-size="10.00">dpp::entitlement_update_t</text>
</a>
</g>
</g>
<!-- Node2 -->
<g id="node2" class="node">
<title>Node2</title>
<g id="a_node2"><a xlink:href="structdpp_1_1event__dispatch__t.html" target="_top" xlink:title="Base event parameter struct. Each event you receive from the library will have its parameter derived ...">
<polygon fill="none" stroke="black" points="1187,-694.5 1187,-713.5 1311,-713.5 1311,-694.5 1187,-694.5"/>
<text text-anchor="middle" x="1249" y="-701.5" font-family="Helvetica,sans-Serif" font-size="10.00">dpp::event_dispatch_t</text>
</a>
</g>
</g>
<!-- Node2&#45;&gt;Node1 -->
<g id="edge1" class="edge">
<title>Node2&#45;&gt;Node1</title>
<path fill="none" stroke="midnightblue" d="M1255.91,-684.38C1283.31,-593.48 1397.41,-214.93 1417.1,-149.62"/>
<polygon fill="midnightblue" stroke="midnightblue" points="1252.49,-683.63 1252.95,-694.21 1259.19,-685.65 1252.49,-683.63"/>
</g>
<!-- Node3 -->
<g id="node3" class="node">
<title>Node3</title>
<g id="a_node3"><a xlink:title=" ">
<polygon fill="none" stroke="#bfbfbf" points="211.5,-626.5 211.5,-645.5 276.5,-645.5 276.5,-626.5 211.5,-626.5"/>
<text text-anchor="middle" x="244" y="-633.5" font-family="Helvetica,sans-Serif" font-size="10.00">std::string</text>
</a>
</g>
</g>
<!-- Node3&#45;&gt;Node2 -->
<g id="edge2" class="edge">
<title>Node3&#45;&gt;Node2</title>
<path fill="none" stroke="#9a32cd" stroke-dasharray="5,2" d="M264.97,-652.02C306.19,-683.42 404.78,-750 499.5,-750 499.5,-750 499.5,-750 1006,-750 1083.41,-750 1172.33,-727 1217.79,-713.53"/>
<polygon fill="#9a32cd" stroke="#9a32cd" points="266.9,-649.08 256.85,-645.72 262.61,-654.61 266.9,-649.08"/>
<text text-anchor="middle" x="742" y="-753" font-family="Helvetica,sans-Serif" font-size="10.00"> raw_event</text>
</g>
<!-- Node6 -->
<g id="node6" class="node">
<title>Node6</title>
<g id="a_node6"><a xlink:href="classdpp_1_1cluster.html" target="_top" xlink:title="The cluster class represents a group of shards and a command queue for sending and receiving commands...">
<polygon fill="none" stroke="black" points="968,-410.5 968,-429.5 1042,-429.5 1042,-410.5 968,-410.5"/>
<text text-anchor="middle" x="1005" y="-417.5" font-family="Helvetica,sans-Serif" font-size="10.00">dpp::cluster</text>
</a>
</g>
</g>
<!-- Node3&#45;&gt;Node6 -->
<g id="edge6" class="edge">
<title>Node3&#45;&gt;Node6</title>
<path fill="none" stroke="#9a32cd" stroke-dasharray="5,2" d="M286.62,-643.44C422.02,-666.66 847.14,-731.51 950,-650 985.68,-621.72 1000.09,-469.53 1003.28,-429.6"/>
<polygon fill="#9a32cd" stroke="#9a32cd" points="287.09,-639.97 276.64,-641.71 285.9,-646.87 287.09,-639.97"/>
<text text-anchor="middle" x="625" y="-690" font-family="Helvetica,sans-Serif" font-size="10.00"> token</text>
</g>
<!-- Node9 -->
<g id="node9" class="node">
<title>Node9</title>
<g id="a_node9"><a xlink:href="classdpp_1_1user.html" target="_top" xlink:title="Represents a user on discord. May or may not be a member of a dpp::guild.">
<polygon fill="none" stroke="black" points="711,-395.5 711,-414.5 773,-414.5 773,-395.5 711,-395.5"/>
<text text-anchor="middle" x="742" y="-402.5" font-family="Helvetica,sans-Serif" font-size="10.00">dpp::user</text>
</a>
</g>
</g>
<!-- Node3&#45;&gt;Node9 -->
<g id="edge16" class="edge">
<title>Node3&#45;&gt;Node9</title>
<path fill="none" stroke="#9a32cd" stroke-dasharray="5,2" d="M261,-618.64C277.62,-601.08 304.82,-573.65 331,-553 365.36,-525.89 377.35,-523.92 414,-500 422.05,-494.75 423.19,-491.84 432,-488 528.75,-445.85 563.81,-469.06 663,-433 671.41,-429.94 672.71,-427.36 681,-424 690.52,-420.14 701.14,-416.55 710.76,-413.56"/>
<polygon fill="#9a32cd" stroke="#9a32cd" points="258.02,-616.71 253.74,-626.4 263.13,-621.49 258.02,-616.71"/>
<text text-anchor="middle" x="500.5" y="-502" font-family="Helvetica,sans-Serif" font-size="10.00"> global_name</text>
<text text-anchor="middle" x="500.5" y="-491" font-family="Helvetica,sans-Serif" font-size="10.00">username</text>
</g>
<!-- Node16 -->
<g id="node16" class="node">
<title>Node16</title>
<g id="a_node16"><a xlink:href="structdpp_1_1utility_1_1primaryguild.html" target="_top" xlink:title="User&#39;s primary guild (server tag)">
<polygon fill="none" stroke="black" points="432,-519.5 432,-538.5 569,-538.5 569,-519.5 432,-519.5"/>
<text text-anchor="middle" x="500.5" y="-526.5" font-family="Helvetica,sans-Serif" font-size="10.00">dpp::utility::primaryguild</text>
</a>
</g>
</g>
<!-- Node3&#45;&gt;Node16 -->
<g id="edge22" class="edge">
<title>Node3&#45;&gt;Node16</title>
<path fill="none" stroke="#9a32cd" stroke-dasharray="5,2" d="M271.9,-621.6C307.7,-602.86 373.31,-569.9 432,-548 441.35,-544.51 451.64,-541.31 461.3,-538.56"/>
<polygon fill="#9a32cd" stroke="#9a32cd" points="269.84,-618.73 262.63,-626.49 273.1,-624.93 269.84,-618.73"/>
<text text-anchor="middle" x="372.5" y="-594" font-family="Helvetica,sans-Serif" font-size="10.00"> tag</text>
</g>
<!-- Node4 -->
<g id="node4" class="node">
<title>Node4</title>
<g id="a_node4"><a xlink:title=" ">
<polygon fill="none" stroke="#bfbfbf" points="0,-621 0,-651 104,-651 104,-621 0,-621"/>
<text text-anchor="start" x="8" y="-639" font-family="Helvetica,sans-Serif" font-size="10.00">std::basic_string&lt;</text>
<text text-anchor="middle" x="52" y="-628" font-family="Helvetica,sans-Serif" font-size="10.00"> Char &gt;</text>
</a>
</g>
</g>
<!-- Node4&#45;&gt;Node3 -->
<g id="edge3" class="edge">
<title>Node4&#45;&gt;Node3</title>
<path fill="none" stroke="midnightblue" d="M114.44,-636C146.78,-636 185.08,-636 211.41,-636"/>
<polygon fill="midnightblue" stroke="midnightblue" points="114.17,-632.5 104.17,-636 114.17,-639.5 114.17,-632.5"/>
</g>
<!-- Node5 -->
<g id="node5" class="node">
<title>Node5</title>
<g id="a_node5"><a xlink:title=" ">
<polygon fill="none" stroke="#bfbfbf" points="472.5,-618.5 472.5,-637.5 528.5,-637.5 528.5,-618.5 472.5,-618.5"/>
<text text-anchor="middle" x="500.5" y="-625.5" font-family="Helvetica,sans-Serif" font-size="10.00">uint32_t</text>
</a>
</g>
</g>
<!-- Node5&#45;&gt;Node2 -->
<g id="edge4" class="edge">
<title>Node5&#45;&gt;Node2</title>
<path fill="none" stroke="#9a32cd" stroke-dasharray="5,2" d="M520.94,-644.2C537.39,-656.84 562.18,-673.46 587,-681 697.97,-714.7 1045.37,-709.54 1186.99,-705.86"/>
<polygon fill="#9a32cd" stroke="#9a32cd" points="522.72,-641.15 512.71,-637.68 518.37,-646.63 522.72,-641.15"/>
<text text-anchor="middle" x="885.5" y="-711" font-family="Helvetica,sans-Serif" font-size="10.00"> shard</text>
</g>
<!-- Node5&#45;&gt;Node6 -->
<g id="edge8" class="edge">
<title>Node5&#45;&gt;Node6</title>
<path fill="none" stroke="#9a32cd" stroke-dasharray="5,2" d="M538.78,-637.96C575.2,-645.24 629.86,-649.23 663,-619 703.17,-582.36 643.18,-537.06 681,-498 723.26,-454.34 892.65,-469.06 950,-449 963.86,-444.15 978.47,-436.1 988.99,-429.71"/>
<polygon fill="#9a32cd" stroke="#9a32cd" points="539.08,-634.45 528.56,-635.74 537.59,-641.29 539.08,-634.45"/>
<text text-anchor="middle" x="742" y="-534" font-family="Helvetica,sans-Serif" font-size="10.00"> cluster_id</text>
<text text-anchor="middle" x="742" y="-523" font-family="Helvetica,sans-Serif" font-size="10.00">intents</text>
<text text-anchor="middle" x="742" y="-512" font-family="Helvetica,sans-Serif" font-size="10.00">maxclusters</text>
<text text-anchor="middle" x="742" y="-501" font-family="Helvetica,sans-Serif" font-size="10.00">numshards</text>
</g>
<!-- Node5&#45;&gt;Node9 -->
<g id="edge24" class="edge">
<title>Node5&#45;&gt;Node9</title>
<path fill="none" stroke="#9a32cd" stroke-dasharray="5,2" d="M534.38,-613.72C546.76,-606.91 559.99,-597.66 569,-586 585.5,-564.64 567.62,-546.78 587,-528 612.16,-503.61 638.92,-532.46 663,-507 688.93,-479.57 655.58,-451.9 681,-424 688.65,-415.6 699.99,-410.89 710.75,-408.26"/>
<polygon fill="#9a32cd" stroke="#9a32cd" points="532.47,-610.76 525.18,-618.45 535.67,-616.99 532.47,-610.76"/>
<text text-anchor="middle" x="625" y="-531" font-family="Helvetica,sans-Serif" font-size="10.00"> flags</text>
</g>
<!-- Node6&#45;&gt;Node2 -->
<g id="edge5" class="edge">
<title>Node6&#45;&gt;Node2</title>
<path fill="none" stroke="#9a32cd" stroke-dasharray="5,2" d="M1020.85,-437.43C1066.6,-491.12 1204.43,-652.87 1239.7,-694.27"/>
<polygon fill="#9a32cd" stroke="#9a32cd" points="1023.48,-435.12 1014.33,-429.78 1018.15,-439.66 1023.48,-435.12"/>
<text text-anchor="middle" x="1114.5" y="-608" font-family="Helvetica,sans-Serif" font-size="10.00"> owner</text>
</g>
<!-- Node7 -->
<g id="node7" class="node">
<title>Node7</title>
<g id="a_node7"><a xlink:title=" ">
<polygon fill="none" stroke="#bfbfbf" points="476.5,-201.5 476.5,-220.5 524.5,-220.5 524.5,-201.5 476.5,-201.5"/>
<text text-anchor="middle" x="500.5" y="-208.5" font-family="Helvetica,sans-Serif" font-size="10.00">time_t</text>
</a>
</g>
</g>
<!-- Node7&#45;&gt;Node6 -->
<g id="edge7" class="edge">
<title>Node7&#45;&gt;Node6</title>
<path fill="none" stroke="#9a32cd" stroke-dasharray="5,2" d="M534.74,-205.45C575.16,-199.29 640.74,-191.43 663,-201 673.69,-205.6 671.24,-213.66 681,-220 787.34,-289.06 854.48,-231.62 950,-315 980.58,-341.69 996.16,-389.91 1001.65,-410.38"/>
<polygon fill="#9a32cd" stroke="#9a32cd" points="534.14,-202 524.8,-207 535.23,-208.91 534.14,-202"/>
<text text-anchor="middle" x="742" y="-264" font-family="Helvetica,sans-Serif" font-size="10.00"> last_identify</text>
</g>
<!-- Node26 -->
<g id="node26" class="node">
<title>Node26</title>
<g id="a_node26"><a xlink:href="classdpp_1_1entitlement.html" target="_top" xlink:title="A definition of a discord entitlement.">
<polygon fill="none" stroke="black" points="693,-115.5 693,-134.5 791,-134.5 791,-115.5 693,-115.5"/>
<text text-anchor="middle" x="742" y="-122.5" font-family="Helvetica,sans-Serif" font-size="10.00">dpp::entitlement</text>
</a>
</g>
</g>
<!-- Node7&#45;&gt;Node26 -->
<g id="edge42" class="edge">
<title>Node7&#45;&gt;Node26</title>
<path fill="none" stroke="#9a32cd" stroke-dasharray="5,2" d="M534.6,-205.29C546.7,-201.77 559.68,-196.1 569,-187 585.01,-171.38 569.21,-153.56 587,-140 603.13,-127.71 653.81,-124.7 692.67,-124.3"/>
<polygon fill="#9a32cd" stroke="#9a32cd" points="533.59,-201.94 524.75,-207.78 535.31,-208.72 533.59,-201.94"/>
<text text-anchor="middle" x="625" y="-154" font-family="Helvetica,sans-Serif" font-size="10.00"> ends_at</text>
<text text-anchor="middle" x="625" y="-143" font-family="Helvetica,sans-Serif" font-size="10.00">starts_at</text>
</g>
<!-- Node8 -->
<g id="node8" class="node">
<title>Node8</title>
<g id="a_node8"><a xlink:title=" ">
<polygon fill="none" stroke="#bfbfbf" points="717,-357.5 717,-376.5 767,-376.5 767,-357.5 717,-357.5"/>
<text text-anchor="middle" x="742" y="-364.5" font-family="Helvetica,sans-Serif" font-size="10.00">double</text>
</a>
</g>
</g>
<!-- Node8&#45;&gt;Node6 -->
<g id="edge9" class="edge">
<title>Node8&#45;&gt;Node6</title>
<path fill="none" stroke="#9a32cd" stroke-dasharray="5,2" d="M777.31,-364.66C819.27,-362.96 891.89,-363.77 950,-384 966.6,-389.78 983.02,-401.88 993.32,-410.46"/>
<polygon fill="#9a32cd" stroke="#9a32cd" points="776.9,-361.18 767.08,-365.15 777.23,-368.17 776.9,-361.18"/>
<text text-anchor="middle" x="885.5" y="-387" font-family="Helvetica,sans-Serif" font-size="10.00"> rest_ping</text>
</g>
<!-- Node9&#45;&gt;Node6 -->
<g id="edge10" class="edge">
<title>Node9&#45;&gt;Node6</title>
<path fill="none" stroke="#9a32cd" stroke-dasharray="5,2" d="M783.09,-401.3C824.97,-398.26 892.46,-395.65 950,-404 959.1,-405.32 968.79,-407.83 977.42,-410.47"/>
<polygon fill="#9a32cd" stroke="#9a32cd" points="782.72,-397.82 773.02,-402.08 783.26,-404.8 782.72,-397.82"/>
<text text-anchor="middle" x="885.5" y="-407" font-family="Helvetica,sans-Serif" font-size="10.00"> me</text>
</g>
<!-- Node10 -->
<g id="node10" class="node">
<title>Node10</title>
<g id="a_node10"><a xlink:href="classdpp_1_1managed.html" target="_top" xlink:title="The managed class is the base class for various types that can be stored in a cache that are identifi...">
<polygon fill="none" stroke="black" points="457.5,-239.5 457.5,-258.5 543.5,-258.5 543.5,-239.5 457.5,-239.5"/>
<text text-anchor="middle" x="500.5" y="-246.5" font-family="Helvetica,sans-Serif" font-size="10.00">dpp::managed</text>
</a>
</g>
</g>
<!-- Node10&#45;&gt;Node9 -->
<g id="edge11" class="edge">
<title>Node10&#45;&gt;Node9</title>
<path fill="none" stroke="midnightblue" d="M553.37,-261.16C558.78,-263.14 564.08,-265.41 569,-268 578.21,-272.85 578.64,-276.8 587,-283 619.47,-307.09 638.27,-301.01 663,-333 678.22,-352.68 663.23,-368.59 681,-386 689.04,-393.88 700.32,-398.49 710.94,-401.19"/>
<polygon fill="midnightblue" stroke="midnightblue" points="554.2,-257.75 543.61,-257.9 551.98,-264.39 554.2,-257.75"/>
</g>
<!-- Node10&#45;&gt;Node26 -->
<g id="edge36" class="edge">
<title>Node10&#45;&gt;Node26</title>
<path fill="none" stroke="midnightblue" d="M553.37,-236.84C558.78,-234.86 564.08,-232.59 569,-230 578.21,-225.15 578.61,-221.17 587,-215 619.39,-191.2 633.02,-192.77 663,-166 672.42,-157.59 670.54,-151.09 681,-144 686.7,-140.14 693.22,-137.02 699.83,-134.53"/>
<polygon fill="midnightblue" stroke="midnightblue" points="551.98,-233.61 543.61,-240.1 554.2,-240.25 551.98,-233.61"/>
</g>
<!-- Node11 -->
<g id="node11" class="node">
<title>Node11</title>
<g id="a_node11"><a xlink:href="classdpp_1_1snowflake.html" target="_top" xlink:title="A container for a 64 bit unsigned value representing many things on discord. This value is known in d...">
<polygon fill="none" stroke="black" points="199.5,-308.5 199.5,-327.5 288.5,-327.5 288.5,-308.5 199.5,-308.5"/>
<text text-anchor="middle" x="244" y="-315.5" font-family="Helvetica,sans-Serif" font-size="10.00">dpp::snowflake</text>
</a>
</g>
</g>
<!-- Node11&#45;&gt;Node10 -->
<g id="edge12" class="edge">
<title>Node11&#45;&gt;Node10</title>
<path fill="none" stroke="#9a32cd" stroke-dasharray="5,2" d="M289.97,-305.81C339.73,-292.32 418.89,-270.85 464.33,-258.53"/>
<polygon fill="#9a32cd" stroke="#9a32cd" points="288.86,-302.48 280.12,-308.48 290.69,-309.24 288.86,-302.48"/>
<text text-anchor="middle" x="372.5" y="-297" font-family="Helvetica,sans-Serif" font-size="10.00"> id</text>
</g>
<!-- Node11&#45;&gt;Node16 -->
<g id="edge20" class="edge">
<title>Node11&#45;&gt;Node16</title>
<path fill="none" stroke="#9a32cd" stroke-dasharray="5,2" d="M271.53,-332.62C308.51,-354.28 375.35,-398.29 414,-453 428.11,-472.98 414.78,-487.63 432,-505 438.31,-511.36 446.4,-516.04 454.79,-519.48"/>
<polygon fill="#9a32cd" stroke="#9a32cd" points="273.22,-329.55 262.8,-327.6 269.73,-335.62 273.22,-329.55"/>
<text text-anchor="middle" x="372.5" y="-456" font-family="Helvetica,sans-Serif" font-size="10.00"> id</text>
</g>
<!-- Node11&#45;&gt;Node26 -->
<g id="edge39" class="edge">
<title>Node11&#45;&gt;Node26</title>
<path fill="none" stroke="#9a32cd" stroke-dasharray="5,2" d="M254.08,-298.85C276.56,-254.23 339.8,-144.83 432,-115 524.94,-84.93 641.91,-102.67 701.77,-115.44"/>
<polygon fill="#9a32cd" stroke="#9a32cd" points="250.83,-297.52 249.57,-308.03 257.12,-300.6 250.83,-297.52"/>
<text text-anchor="middle" x="500.5" y="-184" font-family="Helvetica,sans-Serif" font-size="10.00"> application_id</text>
<text text-anchor="middle" x="500.5" y="-173" font-family="Helvetica,sans-Serif" font-size="10.00">guild_id</text>
<text text-anchor="middle" x="500.5" y="-162" font-family="Helvetica,sans-Serif" font-size="10.00">promotion_id</text>
<text text-anchor="middle" x="500.5" y="-151" font-family="Helvetica,sans-Serif" font-size="10.00">sku_id</text>
<text text-anchor="start" x="464.5" y="-140" font-family="Helvetica,sans-Serif" font-size="10.00">subscription</text>
<text text-anchor="middle" x="500.5" y="-129" font-family="Helvetica,sans-Serif" font-size="10.00">_id</text>
<text text-anchor="middle" x="500.5" y="-118" font-family="Helvetica,sans-Serif" font-size="10.00">user_id</text>
</g>
<!-- Node12 -->
<g id="node12" class="node">
<title>Node12</title>
<g id="a_node12"><a xlink:title=" ">
<polygon fill="none" stroke="#bfbfbf" points="24,-352.5 24,-371.5 80,-371.5 80,-352.5 24,-352.5"/>
<text text-anchor="middle" x="52" y="-359.5" font-family="Helvetica,sans-Serif" font-size="10.00">uint64_t</text>
</a>
</g>
</g>
<!-- Node12&#45;&gt;Node11 -->
<g id="edge13" class="edge">
<title>Node12&#45;&gt;Node11</title>
<path fill="none" stroke="#9a32cd" stroke-dasharray="5,2" d="M90.11,-353.41C122.22,-345.97 168.59,-335.23 201.84,-327.53"/>
<polygon fill="#9a32cd" stroke="#9a32cd" points="89.17,-350.03 80.22,-355.7 90.75,-356.85 89.17,-350.03"/>
<text text-anchor="middle" x="139.5" y="-349" font-family="Helvetica,sans-Serif" font-size="10.00"> value</text>
</g>
<!-- Node15 -->
<g id="node15" class="node">
<title>Node15</title>
<g id="a_node15"><a xlink:href="structdpp_1_1utility_1_1iconhash.html" target="_top" xlink:title="Store a 128 bit icon hash (profile picture, server icon etc) as a 128 bit binary value made of two ui...">
<polygon fill="none" stroke="black" points="185,-411.5 185,-430.5 303,-430.5 303,-411.5 185,-411.5"/>
<text text-anchor="middle" x="244" y="-418.5" font-family="Helvetica,sans-Serif" font-size="10.00">dpp::utility::iconhash</text>
</a>
</g>
</g>
<!-- Node12&#45;&gt;Node15 -->
<g id="edge18" class="edge">
<title>Node12&#45;&gt;Node15</title>
<path fill="none" stroke="#9a32cd" stroke-dasharray="5,2" d="M89.78,-373.42C125.45,-384.5 178.94,-401.11 212.37,-411.49"/>
<polygon fill="#9a32cd" stroke="#9a32cd" points="90.81,-370.08 80.22,-370.45 88.73,-376.76 90.81,-370.08"/>
<text text-anchor="middle" x="139.5" y="-408" font-family="Helvetica,sans-Serif" font-size="10.00"> first</text>
<text text-anchor="middle" x="139.5" y="-397" font-family="Helvetica,sans-Serif" font-size="10.00">second</text>
</g>
<!-- Node13 -->
<g id="node13" class="node">
<title>Node13</title>
<g id="a_node13"><a xlink:href="structdpp_1_1json__interface.html" target="_top" xlink:title=" ">
<polygon fill="none" stroke="black" points="445.5,-354 445.5,-384 555.5,-384 555.5,-354 445.5,-354"/>
<text text-anchor="start" x="453.5" y="-372" font-family="Helvetica,sans-Serif" font-size="10.00">dpp::json_interface</text>
<text text-anchor="middle" x="500.5" y="-361" font-family="Helvetica,sans-Serif" font-size="10.00">&lt; user &gt;</text>
</a>
</g>
</g>
<!-- Node13&#45;&gt;Node9 -->
<g id="edge14" class="edge">
<title>Node13&#45;&gt;Node9</title>
<path fill="none" stroke="midnightblue" d="M548.06,-387.44C560.52,-391.64 574.12,-395.57 587,-398 629.48,-406 679.65,-406.69 710.9,-406.11"/>
<polygon fill="midnightblue" stroke="midnightblue" points="548.94,-384.03 538.35,-384.03 546.63,-390.64 548.94,-384.03"/>
</g>
<!-- Node14 -->
<g id="node14" class="node">
<title>Node14</title>
<g id="a_node14"><a xlink:href="structdpp_1_1json__interface.html" target="_top" xlink:title="Represents an interface for an object that can optionally implement functions for converting to and f...">
<polygon fill="none" stroke="black" points="175,-146.5 175,-165.5 313,-165.5 313,-146.5 175,-146.5"/>
<text text-anchor="middle" x="244" y="-153.5" font-family="Helvetica,sans-Serif" font-size="10.00">dpp::json_interface&lt; T &gt;</text>
</a>
</g>
</g>
<!-- Node14&#45;&gt;Node13 -->
<g id="edge15" class="edge">
<title>Node14&#45;&gt;Node13</title>
<path fill="none" stroke="orange" stroke-dasharray="5,2" d="M283.77,-169.15C322.86,-184.47 381.88,-213.63 414,-259 436.31,-290.52 406.76,-314.78 432,-344 435.76,-348.35 440.34,-351.94 445.34,-354.91"/>
<polygon fill="orange" stroke="orange" points="284.88,-165.83 274.29,-165.55 282.39,-172.37 284.88,-165.83"/>
<text text-anchor="middle" x="372.5" y="-262" font-family="Helvetica,sans-Serif" font-size="10.00"> &lt; user &gt;</text>
</g>
<!-- Node27 -->
<g id="node27" class="node">
<title>Node27</title>
<g id="a_node27"><a xlink:href="structdpp_1_1json__interface.html" target="_top" xlink:title=" ">
<polygon fill="none" stroke="black" points="445.5,-39 445.5,-69 555.5,-69 555.5,-39 445.5,-39"/>
<text text-anchor="start" x="453.5" y="-57" font-family="Helvetica,sans-Serif" font-size="10.00">dpp::json_interface</text>
<text text-anchor="middle" x="500.5" y="-46" font-family="Helvetica,sans-Serif" font-size="10.00">&lt; entitlement &gt;</text>
</a>
</g>
</g>
<!-- Node14&#45;&gt;Node27 -->
<g id="edge38" class="edge">
<title>Node14&#45;&gt;Node27</title>
<path fill="none" stroke="orange" stroke-dasharray="5,2" d="M259.64,-138.45C275.36,-120.89 302.02,-94.58 331,-81 366.82,-64.22 411.1,-57.6 445.28,-55.11"/>
<polygon fill="orange" stroke="orange" points="256.76,-136.44 252.84,-146.28 262.04,-141.03 256.76,-136.44"/>
<text text-anchor="middle" x="372.5" y="-84" font-family="Helvetica,sans-Serif" font-size="10.00"> &lt; entitlement &gt;</text>
</g>
<!-- Node15&#45;&gt;Node9 -->
<g id="edge17" class="edge">
<title>Node15&#45;&gt;Node9</title>
<path fill="none" stroke="#9a32cd" stroke-dasharray="5,2" d="M313.3,-422.86C396.16,-424.5 540.04,-425.37 663,-416 678.82,-414.8 696.32,-412.42 710.72,-410.19"/>
<polygon fill="#9a32cd" stroke="#9a32cd" points="313.33,-419.36 303.26,-422.65 313.18,-426.36 313.33,-419.36"/>
<text text-anchor="middle" x="500.5" y="-438" font-family="Helvetica,sans-Serif" font-size="10.00"> avatar</text>
<text text-anchor="middle" x="500.5" y="-427" font-family="Helvetica,sans-Serif" font-size="10.00">avatar_decoration</text>
</g>
<!-- Node15&#45;&gt;Node16 -->
<g id="edge23" class="edge">
<title>Node15&#45;&gt;Node16</title>
<path fill="none" stroke="#9a32cd" stroke-dasharray="5,2" d="M271.06,-435.62C287.92,-444.84 310.47,-456.7 331,-466 374.83,-485.85 386.88,-488.27 432,-505 445.18,-509.89 459.87,-515.13 472.18,-519.47"/>
<polygon fill="#9a32cd" stroke="#9a32cd" points="272.3,-432.31 261.85,-430.55 268.92,-438.44 272.3,-432.31"/>
<text text-anchor="middle" x="372.5" y="-501" font-family="Helvetica,sans-Serif" font-size="10.00"> badge</text>
</g>
<!-- Node16&#45;&gt;Node9 -->
<g id="edge19" class="edge">
<title>Node16&#45;&gt;Node9</title>
<path fill="none" stroke="#9a32cd" stroke-dasharray="5,2" d="M540.31,-516.11C549.78,-512.72 559.83,-508.91 569,-505 577.23,-501.5 578.69,-499.31 587,-496 619.79,-482.95 637.33,-497.22 663,-473 679.88,-457.08 664.23,-440.03 681,-424 689.06,-416.3 700.22,-411.72 710.73,-409"/>
<polygon fill="#9a32cd" stroke="#9a32cd" points="538.98,-512.87 530.7,-519.49 541.3,-519.48 538.98,-512.87"/>
<text text-anchor="middle" x="625" y="-499" font-family="Helvetica,sans-Serif" font-size="10.00"> primary_guild</text>
</g>
<!-- Node17 -->
<g id="node17" class="node">
<title>Node17</title>
<g id="a_node17"><a xlink:title=" ">
<polygon fill="none" stroke="#bfbfbf" points="225,-786.5 225,-805.5 263,-805.5 263,-786.5 225,-786.5"/>
<text text-anchor="middle" x="244" y="-793.5" font-family="Helvetica,sans-Serif" font-size="10.00">bool</text>
</a>
</g>
</g>
<!-- Node17&#45;&gt;Node2 -->
<g id="edge34" class="edge">
<title>Node17&#45;&gt;Node2</title>
<path fill="none" stroke="#9a32cd" stroke-dasharray="5,2" d="M273.21,-798.38C320.14,-802.14 417.21,-809 499.5,-809 499.5,-809 499.5,-809 1006,-809 1101.26,-809 1201.48,-739.68 1235.71,-713.69"/>
<polygon fill="#9a32cd" stroke="#9a32cd" points="273.44,-794.89 263.19,-797.57 272.87,-801.87 273.44,-794.89"/>
<text text-anchor="middle" x="742" y="-812" font-family="Helvetica,sans-Serif" font-size="10.00"> cancelled</text>
</g>
<!-- Node17&#45;&gt;Node16 -->
<g id="edge21" class="edge">
<title>Node17&#45;&gt;Node16</title>
<path fill="none" stroke="#9a32cd" stroke-dasharray="5,2" d="M264.29,-779.54C299.1,-748.84 372.61,-679.32 414,-606 427.27,-582.5 412.66,-566.83 432,-548 435.92,-544.18 440.56,-541.11 445.52,-538.66"/>
<polygon fill="#9a32cd" stroke="#9a32cd" points="261.94,-776.94 256.71,-786.15 266.54,-782.22 261.94,-776.94"/>
<text text-anchor="middle" x="372.5" y="-713" font-family="Helvetica,sans-Serif" font-size="10.00"> enabled</text>
</g>
<!-- Node18 -->
<g id="node18" class="node">
<title>Node18</title>
<g id="a_node18"><a xlink:title=" ">
<polygon fill="none" stroke="#bfbfbf" points="472.5,-315.5 472.5,-334.5 528.5,-334.5 528.5,-315.5 472.5,-315.5"/>
<text text-anchor="middle" x="500.5" y="-322.5" font-family="Helvetica,sans-Serif" font-size="10.00">uint16_t</text>
</a>
</g>
</g>
<!-- Node18&#45;&gt;Node6 -->
<g id="edge31" class="edge">
<title>Node18&#45;&gt;Node6</title>
<path fill="none" stroke="#9a32cd" stroke-dasharray="5,2" d="M538.76,-318.44C619.38,-306.19 813.71,-287.3 950,-361 971.74,-372.76 989.36,-396.69 998.07,-410.18"/>
<polygon fill="#9a32cd" stroke="#9a32cd" points="537.94,-315.03 528.61,-320.04 539.03,-321.94 537.94,-315.03"/>
<text text-anchor="middle" x="742" y="-318" font-family="Helvetica,sans-Serif" font-size="10.00"> request_timeout</text>
</g>
<!-- Node18&#45;&gt;Node9 -->
<g id="edge25" class="edge">
<title>Node18&#45;&gt;Node9</title>
<path fill="none" stroke="#9a32cd" stroke-dasharray="5,2" d="M538.3,-331.36C548.73,-334.2 559.75,-338.25 569,-344 579.16,-350.31 576.8,-357.76 587,-364 589.69,-365.65 666.81,-385.78 710.87,-397.21"/>
<polygon fill="#9a32cd" stroke="#9a32cd" points="539.1,-327.96 528.56,-329 537.45,-334.76 539.1,-327.96"/>
<text text-anchor="middle" x="625" y="-388" font-family="Helvetica,sans-Serif" font-size="10.00"> discriminator</text>
</g>
<!-- Node18&#45;&gt;Node26 -->
<g id="edge43" class="edge">
<title>Node18&#45;&gt;Node26</title>
<path fill="none" stroke="#9a32cd" stroke-dasharray="5,2" d="M538.64,-320.41C549.35,-317.63 560.43,-313.16 569,-306 583.03,-294.27 573.08,-280.86 587,-269 613.86,-246.11 639.58,-272.4 663,-246 693.55,-211.57 650.67,-178.63 681,-144 684.38,-140.14 688.55,-137.05 693.09,-134.59"/>
<polygon fill="#9a32cd" stroke="#9a32cd" points="537.61,-317.05 528.59,-322.6 539.1,-323.89 537.61,-317.05"/>
<text text-anchor="middle" x="625" y="-272" font-family="Helvetica,sans-Serif" font-size="10.00"> flags</text>
</g>
<!-- Node19 -->
<g id="node19" class="node">
<title>Node19</title>
<g id="a_node19"><a xlink:title=" ">
<polygon fill="none" stroke="#bfbfbf" points="475.5,-277.5 475.5,-296.5 525.5,-296.5 525.5,-277.5 475.5,-277.5"/>
<text text-anchor="middle" x="500.5" y="-284.5" font-family="Helvetica,sans-Serif" font-size="10.00">uint8_t</text>
</a>
</g>
</g>
<!-- Node19&#45;&gt;Node9 -->
<g id="edge26" class="edge">
<title>Node19&#45;&gt;Node9</title>
<path fill="none" stroke="#9a32cd" stroke-dasharray="5,2" d="M535.65,-292.07C546.96,-294.89 559.16,-299.26 569,-306 580,-313.54 575.98,-322.49 587,-330 615.95,-349.74 635.81,-328.89 663,-351 676.57,-362.04 667.64,-374.71 681,-386 689.43,-393.12 700.55,-397.58 710.92,-400.37"/>
<polygon fill="#9a32cd" stroke="#9a32cd" points="536.12,-288.59 525.61,-289.89 534.64,-295.43 536.12,-288.59"/>
<text text-anchor="middle" x="625" y="-354" font-family="Helvetica,sans-Serif" font-size="10.00"> refcount</text>
</g>
<!-- Node19&#45;&gt;Node26 -->
<g id="edge40" class="edge">
<title>Node19&#45;&gt;Node26</title>
<path fill="none" stroke="#9a32cd" stroke-dasharray="5,2" d="M535.62,-282.87C547.15,-280.13 559.5,-275.57 569,-268 582.06,-257.59 574.48,-246.06 587,-235 614.21,-210.95 638.49,-231.8 663,-205 682.08,-184.14 661.21,-164.18 681,-144 684.82,-140.1 689.44,-137 694.4,-134.53"/>
<polygon fill="#9a32cd" stroke="#9a32cd" points="534.9,-279.44 525.79,-284.84 536.28,-286.3 534.9,-279.44"/>
<text text-anchor="middle" x="625" y="-238" font-family="Helvetica,sans-Serif" font-size="10.00"> gift_code_flags</text>
</g>
<!-- Node20 -->
<g id="node20" class="node">
<title>Node20</title>
<g id="a_node20"><a xlink:href="structdpp_1_1cache__policy__t.html" target="_top" xlink:title="Represents the caching policy of the cluster.">
<polygon fill="none" stroke="black" points="685.5,-433.5 685.5,-452.5 798.5,-452.5 798.5,-433.5 685.5,-433.5"/>
<text text-anchor="middle" x="742" y="-440.5" font-family="Helvetica,sans-Serif" font-size="10.00">dpp::cache_policy_t</text>
</a>
</g>
</g>
<!-- Node20&#45;&gt;Node6 -->
<g id="edge27" class="edge">
<title>Node20&#45;&gt;Node6</title>
<path fill="none" stroke="#9a32cd" stroke-dasharray="5,2" d="M808.82,-437.2C859.15,-432.76 926.68,-426.81 967.67,-423.2"/>
<polygon fill="#9a32cd" stroke="#9a32cd" points="808.33,-433.73 798.67,-438.09 808.94,-440.7 808.33,-433.73"/>
<text text-anchor="middle" x="885.5" y="-439" font-family="Helvetica,sans-Serif" font-size="10.00"> cache_policy</text>
</g>
<!-- Node21 -->
<g id="node21" class="node">
<title>Node21</title>
<g id="a_node21"><a xlink:title=" ">
<polygon fill="none" stroke="#bfbfbf" points="436.5,-557.5 436.5,-576.5 564.5,-576.5 564.5,-557.5 436.5,-557.5"/>
<text text-anchor="middle" x="500.5" y="-564.5" font-family="Helvetica,sans-Serif" font-size="10.00">cache_policy_setting_t</text>
</a>
</g>
</g>
<!-- Node21&#45;&gt;Node20 -->
<g id="edge28" class="edge">
<title>Node21&#45;&gt;Node20</title>
<path fill="none" stroke="#9a32cd" stroke-dasharray="5,2" d="M575.05,-562.99C611.3,-559.5 649.99,-553.02 663,-541 687.86,-518.03 658.82,-492.57 681,-467 686.44,-460.73 693.75,-456.08 701.39,-452.63"/>
<polygon fill="#9a32cd" stroke="#9a32cd" points="574.56,-559.52 564.91,-563.89 575.18,-566.49 574.56,-559.52"/>
<text text-anchor="middle" x="625" y="-609" font-family="Helvetica,sans-Serif" font-size="10.00"> channel_policy</text>
<text text-anchor="middle" x="625" y="-598" font-family="Helvetica,sans-Serif" font-size="10.00">emoji_policy</text>
<text text-anchor="middle" x="625" y="-587" font-family="Helvetica,sans-Serif" font-size="10.00">guild_policy</text>
<text text-anchor="middle" x="625" y="-576" font-family="Helvetica,sans-Serif" font-size="10.00">role_policy</text>
<text text-anchor="middle" x="625" y="-565" font-family="Helvetica,sans-Serif" font-size="10.00">user_policy</text>
</g>
<!-- Node22 -->
<g id="node22" class="node">
<title>Node22</title>
<g id="a_node22"><a xlink:title=" ">
<polygon fill="none" stroke="#bfbfbf" points="681,-191.5 681,-210.5 803,-210.5 803,-191.5 681,-191.5"/>
<text text-anchor="middle" x="742" y="-198.5" font-family="Helvetica,sans-Serif" font-size="10.00">websocket_protocol_t</text>
</a>
</g>
</g>
<!-- Node22&#45;&gt;Node6 -->
<g id="edge29" class="edge">
<title>Node22&#45;&gt;Node6</title>
<path fill="none" stroke="#9a32cd" stroke-dasharray="5,2" d="M803,-190.37C848.52,-185.89 909.9,-188.03 950,-222 979.77,-247.22 998.12,-374.19 1002.81,-410.37"/>
<polygon fill="#9a32cd" stroke="#9a32cd" points="802.51,-186.9 792.96,-191.49 803.28,-193.86 802.51,-186.9"/>
<text text-anchor="middle" x="885.5" y="-225" font-family="Helvetica,sans-Serif" font-size="10.00"> ws_mode</text>
</g>
<!-- Node23 -->
<g id="node23" class="node">
<title>Node23</title>
<g id="a_node23"><a xlink:title=" ">
<polygon fill="none" stroke="#bfbfbf" points="703.5,-153.5 703.5,-172.5 780.5,-172.5 780.5,-153.5 703.5,-153.5"/>
<text text-anchor="middle" x="742" y="-160.5" font-family="Helvetica,sans-Serif" font-size="10.00">atomic_bool</text>
</a>
</g>
</g>
<!-- Node23&#45;&gt;Node6 -->
<g id="edge30" class="edge">
<title>Node23&#45;&gt;Node6</title>
<path fill="none" stroke="#9a32cd" stroke-dasharray="5,2" d="M787.27,-151.3C833.45,-141.97 905.24,-136 950,-174 987.17,-205.55 1000.56,-368.8 1003.39,-410.36"/>
<polygon fill="#9a32cd" stroke="#9a32cd" points="786.29,-147.93 777.25,-153.45 787.76,-154.77 786.29,-147.93"/>
<text text-anchor="middle" x="885.5" y="-177" font-family="Helvetica,sans-Serif" font-size="10.00"> terminating</text>
</g>
<!-- Node24 -->
<g id="node24" class="node">
<title>Node24</title>
<g id="a_node24"><a xlink:title=" ">
<polygon fill="none" stroke="#bfbfbf" points="703.5,-618.5 703.5,-637.5 780.5,-637.5 780.5,-618.5 703.5,-618.5"/>
<text text-anchor="middle" x="742" y="-625.5" font-family="Helvetica,sans-Serif" font-size="10.00">unique_ptr&lt;</text>
</a>
</g>
</g>
<!-- Node24&#45;&gt;Node6 -->
<g id="edge32" class="edge">
<title>Node24&#45;&gt;Node6</title>
<path fill="none" stroke="#9a32cd" stroke-dasharray="5,2" d="M790.94,-631.96C844.38,-635.31 926.39,-636.95 950,-618 980.43,-593.58 998.31,-466.04 1002.85,-429.68"/>
<polygon fill="#9a32cd" stroke="#9a32cd" points="790.87,-628.45 780.66,-631.27 790.4,-635.43 790.87,-628.45"/>
<text text-anchor="middle" x="885.5" y="-638" font-family="Helvetica,sans-Serif" font-size="10.00"> socketengine</text>
</g>
<!-- Node25 -->
<g id="node25" class="node">
<title>Node25</title>
<g id="a_node25"><a xlink:title=" ">
<polygon fill="none" stroke="#bfbfbf" points="694,-551.5 694,-570.5 790,-570.5 790,-551.5 694,-551.5"/>
<text text-anchor="middle" x="742" y="-558.5" font-family="Helvetica,sans-Serif" font-size="10.00">event_router_t&lt;</text>
</a>
</g>
</g>
<!-- Node25&#45;&gt;Node6 -->
<g id="edge33" class="edge">
<title>Node25&#45;&gt;Node6</title>
<path fill="none" stroke="#9a32cd" stroke-dasharray="5,2" d="M789.16,-546.93C794.19,-544.16 798.95,-540.88 803,-537 817.07,-523.51 805.63,-508.99 821,-497 866.93,-461.19 898.37,-500.94 950,-474 970.45,-463.33 988.05,-442.22 997.22,-429.79"/>
<polygon fill="#9a32cd" stroke="#9a32cd" points="787.4,-543.89 779.9,-551.37 790.43,-550.2 787.4,-543.89"/>
<text text-anchor="middle" x="885.5" y="-610" font-family="Helvetica,sans-Serif" font-size="10.00"> on_autocomplete</text>
<text text-anchor="middle" x="885.5" y="-599" font-family="Helvetica,sans-Serif" font-size="10.00">on_automod_rule_create</text>
<text text-anchor="middle" x="885.5" y="-588" font-family="Helvetica,sans-Serif" font-size="10.00">on_automod_rule_delete</text>
<text text-anchor="middle" x="885.5" y="-577" font-family="Helvetica,sans-Serif" font-size="10.00">on_automod_rule_execute</text>
<text text-anchor="middle" x="885.5" y="-566" font-family="Helvetica,sans-Serif" font-size="10.00">on_automod_rule_update</text>
<text text-anchor="middle" x="885.5" y="-555" font-family="Helvetica,sans-Serif" font-size="10.00">on_button_click</text>
<text text-anchor="middle" x="885.5" y="-544" font-family="Helvetica,sans-Serif" font-size="10.00">on_channel_create</text>
<text text-anchor="middle" x="885.5" y="-533" font-family="Helvetica,sans-Serif" font-size="10.00">on_channel_delete</text>
<text text-anchor="middle" x="885.5" y="-522" font-family="Helvetica,sans-Serif" font-size="10.00">on_channel_pins_update</text>
<text text-anchor="middle" x="885.5" y="-511" font-family="Helvetica,sans-Serif" font-size="10.00">on_channel_update</text>
<text text-anchor="middle" x="885.5" y="-500" font-family="Helvetica,sans-Serif" font-size="10.00">...</text>
</g>
<!-- Node26&#45;&gt;Node1 -->
<g id="edge35" class="edge">
<title>Node26&#45;&gt;Node1</title>
<path fill="none" stroke="#9a32cd" stroke-dasharray="5,2" d="M801.16,-126.29C924.68,-129.03 1212.85,-135.41 1347.83,-138.4"/>
<polygon fill="#9a32cd" stroke="#9a32cd" points="801.22,-122.79 791.15,-126.07 801.07,-129.79 801.22,-122.79"/>
<text text-anchor="middle" x="1114.5" y="-138" font-family="Helvetica,sans-Serif" font-size="10.00"> updating_entitlement</text>
</g>
<!-- Node27&#45;&gt;Node26 -->
<g id="edge37" class="edge">
<title>Node27&#45;&gt;Node26</title>
<path fill="none" stroke="midnightblue" d="M565.5,-66.45C595.44,-72.94 631.39,-81.68 663,-92 683.13,-98.57 705.29,-108.19 720.83,-115.35"/>
<polygon fill="midnightblue" stroke="midnightblue" points="566.1,-63 555.59,-64.34 564.65,-69.85 566.1,-63"/>
</g>
<!-- Node28 -->
<g id="node28" class="node">
<title>Node28</title>
<g id="a_node28"><a xlink:title=" ">
<polygon fill="none" stroke="#bfbfbf" points="450,-0.5 450,-19.5 551,-19.5 551,-0.5 450,-0.5"/>
<text text-anchor="middle" x="500.5" y="-7.5" font-family="Helvetica,sans-Serif" font-size="10.00">entitlement_type</text>
</a>
</g>
</g>
<!-- Node28&#45;&gt;Node26 -->
<g id="edge41" class="edge">
<title>Node28&#45;&gt;Node26</title>
<path fill="none" stroke="#9a32cd" stroke-dasharray="5,2" d="M561.02,-20.74C592.64,-28.03 631.38,-39.59 663,-57 691.64,-72.77 718.98,-100.49 732.4,-115.19"/>
<polygon fill="#9a32cd" stroke="#9a32cd" points="561.55,-17.27 551.03,-18.52 560.03,-24.1 561.55,-17.27"/>
<text text-anchor="middle" x="625" y="-60" font-family="Helvetica,sans-Serif" font-size="10.00"> type</text>
</g>
</g>
</svg>
        <g id="navigator" transform="translate(0 0)" fill="#404254">
                <rect fill="#f2f5e9" fill-opacity="0.5" stroke="#606060" stroke-width=".5" x="0" y="0" width="60" height="60"/>
                <use id="zoomplus" xlink:href="#zoomPlus" x="17" y="9" onmousedown="handleZoom(evt,'in')"/>
                <use id="zoomminus" xlink:href="#zoomMin" x="42" y="9" onmousedown="handleZoom(evt,'out')"/>
                <use id="reset" xlink:href="#resetDef" x="30" y="36" onmousedown="handleReset()"/>
                <g id="arrowUp" xlink:href="#dirArrow" transform="translate(30 24)" onmousedown="handlePan(0,-1)">
                  <use xlink:href="#rim" fill="#404040">
                        <set attributeName="fill" to="#808080" begin="arrowUp.mouseover" end="arrowUp.mouseout"/>
                  </use>
                  <path fill="none" stroke="white" stroke-width="1.5" d="M0,-3.0v7 M-2.5,-0.5L0,-3.0L2.5,-0.5"/>
                </g>
                <g id="arrowRight" xlink:href="#dirArrow" transform="rotate(90) translate(36 -43)" onmousedown="handlePan(1,0)">
                  <use xlink:href="#rim" fill="#404040">
                        <set attributeName="fill" to="#808080" begin="arrowRight.mouseover" end="arrowRight.mouseout"/>
                  </use>
                  <path fill="none" stroke="white" stroke-width="1.5" d="M0,-3.0v7 M-2.5,-0.5L0,-3.0L2.5,-0.5"/>
                </g>
                <g id="arrowDown" xlink:href="#dirArrow" transform="rotate(180) translate(-30 -48)" onmousedown="handlePan(0,1)">
                  <use xlink:href="#rim" fill="#404040">
                        <set attributeName="fill" to="#808080" begin="arrowDown.mouseover" end="arrowDown.mouseout"/>
                  </use>
                  <path fill="none" stroke="white" stroke-width="1.5" d="M0,-3.0v7 M-2.5,-0.5L0,-3.0L2.5,-0.5"/>
                </g>
                <g id="arrowLeft" xlink:href="#dirArrow" transform="rotate(270) translate(-36 17)" onmousedown="handlePan(-1,0)">
                  <use xlink:href="#rim" fill="#404040">
                        <set attributeName="fill" to="#808080" begin="arrowLeft.mouseover" end="arrowLeft.mouseout"/>
                  </use>
                  <path fill="none" stroke="white" stroke-width="1.5" d="M0,-3.0v7 M-2.5,-0.5L0,-3.0L2.5,-0.5"/>
                </g>
        </g>
        <svg viewBox="0 0 15 15" width="100%" height="30px" preserveAspectRatio="xMaxYMin meet">
         <g id="arrow_out" transform="scale(0.3 0.3)">
          <a xlink:href="structdpp_1_1entitlement__update__t__coll__graph_org.svg" target="_base">
           <rect id="button" ry="5" rx="5" y="6" x="6" height="38" width="38"
                fill="#f2f5e9" fill-opacity="0.5" stroke="#606060" stroke-width="1.0"/>
           <path id="arrow"
             d="M 11.500037,31.436501 C 11.940474,20.09759 22.043105,11.32322 32.158766,21.979434 L 37.068811,17.246167 C 37.068811,17.246167 37.088388,32 37.088388,32 L 22.160133,31.978069 C 22.160133,31.978069 26.997745,27.140456 26.997745,27.140456 C 18.528582,18.264221 13.291696,25.230495 11.500037,31.436501 z"
             style="fill:#404040;"/>
          </a>
         </g>
        </svg>
</svg>
