<?xml version="1.0" encoding="UTF-8" standalone="no"?>
<!DOCTYPE svg PUBLIC "-//W3C//DTD SVG 1.1//EN"
 "http://www.w3.org/Graphics/SVG/1.1/DTD/svg11.dtd">
<!-- Generated by graphviz version 2.38.0 (20140413.2041)
 -->
<!-- Title: dpp::resolved_user Pages: 1 -->
<!--zoomable 370 -->
<svg id="main" version="1.1" xmlns="http://www.w3.org/2000/svg" xmlns:xlink="http://www.w3.org/1999/xlink" xml:space="preserve" onload="init(evt)">
<style type="text/css"><![CDATA[
.edge:hover path { stroke: red; }
.edge:hover polygon { stroke: red; fill: red; }
]]></style>
<script type="text/javascript"><![CDATA[
var edges = document.getElementsByTagName('g');
if (edges && edges.length) {
  for (var i=0;i<edges.length;i++) {
    if (edges[i].id.substr(0,4)=='edge') {
      edges[i].setAttribute('class','edge');
    }
  }
}
]]></script>
        <defs>
                <circle id="rim" cx="0" cy="0" r="7"/>
                <circle id="rim2" cx="0" cy="0" r="3.5"/>
                <g id="zoomPlus">
                        <use xlink:href="#rim" fill="#404040">
                                <set attributeName="fill" to="#808080" begin="zoomplus.mouseover" end="zoomplus.mouseout"/>
                        </use>
                        <path d="M-4,0h8M0,-4v8" fill="none" stroke="white" stroke-width="1.5" pointer-events="none"/>
                </g>
                <g id="zoomMin">
                        <use xlink:href="#rim" fill="#404040">
                                <set attributeName="fill" to="#808080" begin="zoomminus.mouseover" end="zoomminus.mouseout"/>
                        </use>
                        <path d="M-4,0h8" fill="none" stroke="white" stroke-width="1.5" pointer-events="none"/>
                </g>
                <g id="dirArrow">
                        <path fill="none" stroke="white" stroke-width="1.5" d="M0,-3.0v7 M-2.5,-0.5L0,-3.0L2.5,-0.5"/>
                </g>
               <g id="resetDef">
                       <use xlink:href="#rim2" fill="#404040">
                               <set attributeName="fill" to="#808080" begin="reset.mouseover" end="reset.mouseout"/>
                       </use>
               </g>
        </defs>

<script type="text/javascript">
var viewWidth = 683;
var viewHeight = 370;
var sectionId = 'dynsection-0';
</script>
<script xlink:href="svgpan.js"/>
<svg id="graph" class="graph">
<g id="viewport">
<title>dpp::resolved_user</title>
<polygon fill="white" stroke="none" points="-4,4 -4,-366 679,-366 679,4 -4,4"/>
<!-- Node1 -->
<g id="node1" class="node"><title>Node1</title>
<polygon fill="#bfbfbf" stroke="black" points="576,-191.5 576,-210.5 675,-210.5 675,-191.5 576,-191.5"/>
<text text-anchor="middle" x="625.5" y="-198.5" font-family="Helvetica,sans-Serif" font-size="10.00">dpp::resolved_user</text>
</g>
<!-- Node2 -->
<g id="node2" class="node"><title>Node2</title>
<g id="a_node2"><a xlink:href="classdpp_1_1guild__member.html" target="_top" xlink:title="Represents dpp::user membership upon a dpp::guild. ">
<polygon fill="white" stroke="black" points="402,-250.5 402,-269.5 501,-269.5 501,-250.5 402,-250.5"/>
<text text-anchor="middle" x="451.5" y="-257.5" font-family="Helvetica,sans-Serif" font-size="10.00">dpp::guild_member</text>
</a>
</g>
</g>
<!-- Node2&#45;&gt;Node1 -->
<g id="edge1" class="edge"><title>Node2&#45;&gt;Node1</title>
<path fill="none" stroke="#9a32cd" stroke-dasharray="5,2" d="M490.038,-247.124C522.212,-236.087 567.82,-220.442 596.779,-210.509"/>
<polygon fill="#9a32cd" stroke="#9a32cd" points="488.841,-243.834 480.518,-250.389 491.112,-250.455 488.841,-243.834"/>
<text text-anchor="middle" x="538.5" y="-239" font-family="Helvetica,sans-Serif" font-size="10.00"> member</text>
</g>
<!-- Node3 -->
<g id="node3" class="node"><title>Node3</title>
<polygon fill="white" stroke="#bfbfbf" points="214.5,-342.5 214.5,-361.5 258.5,-361.5 258.5,-342.5 214.5,-342.5"/>
<text text-anchor="middle" x="236.5" y="-349.5" font-family="Helvetica,sans-Serif" font-size="10.00">time_t</text>
</g>
<!-- Node3&#45;&gt;Node2 -->
<g id="edge2" class="edge"><title>Node3&#45;&gt;Node2</title>
<path fill="none" stroke="#9a32cd" stroke-dasharray="5,2" d="M269.06,-348.486C299.756,-344.113 347.036,-334.796 384,-316 407.41,-304.096 429.718,-282.503 441.608,-269.892"/>
<polygon fill="#9a32cd" stroke="#9a32cd" points="268.388,-345.044 258.938,-349.834 269.312,-351.983 268.388,-345.044"/>
<text text-anchor="middle" x="350.5" y="-354" font-family="Helvetica,sans-Serif" font-size="10.00"> joined_at</text>
<text text-anchor="middle" x="350.5" y="-343" font-family="Helvetica,sans-Serif" font-size="10.00">premium_since</text>
</g>
<!-- Node4 -->
<g id="node4" class="node"><title>Node4</title>
<polygon fill="white" stroke="#bfbfbf" points="22,-172.5 22,-191.5 73,-191.5 73,-172.5 22,-172.5"/>
<text text-anchor="middle" x="47.5" y="-179.5" font-family="Helvetica,sans-Serif" font-size="10.00">uint64_t</text>
</g>
<!-- Node4&#45;&gt;Node2 -->
<g id="edge3" class="edge"><title>Node4&#45;&gt;Node2</title>
<path fill="none" stroke="#9a32cd" stroke-dasharray="5,2" d="M82.8949,-188.674C154.413,-202.55 319.347,-234.552 401.77,-250.545"/>
<polygon fill="#9a32cd" stroke="#9a32cd" points="83.5254,-185.231 73.0418,-186.762 82.192,-192.103 83.5254,-185.231"/>
<text text-anchor="middle" x="236.5" y="-245" font-family="Helvetica,sans-Serif" font-size="10.00"> user_id</text>
<text text-anchor="middle" x="236.5" y="-234" font-family="Helvetica,sans-Serif" font-size="10.00">guild_id</text>
</g>
<!-- Node8 -->
<g id="node8" class="node"><title>Node8</title>
<polygon fill="white" stroke="#bfbfbf" points="174,-266.5 174,-285.5 299,-285.5 299,-266.5 174,-266.5"/>
<text text-anchor="middle" x="236.5" y="-273.5" font-family="Helvetica,sans-Serif" font-size="10.00">std::vector&lt; snowflake &gt;</text>
</g>
<!-- Node4&#45;&gt;Node8 -->
<g id="edge8" class="edge"><title>Node4&#45;&gt;Node8</title>
<path fill="none" stroke="#9a32cd" stroke-dasharray="5,2" d="M63.4208,-199.054C75.5849,-211.985 93.8345,-229.302 113,-240 135.065,-252.317 161.771,-260.803 184.608,-266.427"/>
<polygon fill="#9a32cd" stroke="#9a32cd" points="66.0058,-196.694 56.6795,-191.667 60.8354,-201.413 66.0058,-196.694"/>
<text text-anchor="middle" x="134.5" y="-261" font-family="Helvetica,sans-Serif" font-size="10.00"> elements</text>
</g>
<!-- Node10 -->
<g id="node10" class="node"><title>Node10</title>
<g id="a_node10"><a xlink:href="classdpp_1_1managed.html" target="_top" xlink:title="The managed class is the base class for various types that can be stored in a cache that are identifi...">
<polygon fill="white" stroke="black" points="197.5,-0.5 197.5,-19.5 275.5,-19.5 275.5,-0.5 197.5,-0.5"/>
<text text-anchor="middle" x="236.5" y="-7.5" font-family="Helvetica,sans-Serif" font-size="10.00">dpp::managed</text>
</a>
</g>
</g>
<!-- Node4&#45;&gt;Node10 -->
<g id="edge11" class="edge"><title>Node4&#45;&gt;Node10</title>
<path fill="none" stroke="#9a32cd" stroke-dasharray="5,2" d="M58.4864,-163.531C76.924,-131.216 119.457,-64.4872 174,-29 181.025,-24.4292 189.213,-20.9058 197.278,-18.2085"/>
<polygon fill="#9a32cd" stroke="#9a32cd" points="55.3642,-161.943 53.5514,-172.382 61.4781,-165.352 55.3642,-161.943"/>
<text text-anchor="middle" x="134.5" y="-87" font-family="Helvetica,sans-Serif" font-size="10.00"> id</text>
</g>
<!-- Node13 -->
<g id="node13" class="node"><title>Node13</title>
<g id="a_node13"><a xlink:href="structdpp_1_1utility_1_1iconhash.html" target="_top" xlink:title="Store a 128 bit icon hash (profile picture, server icon etc) as a 128 bit binary value made of two ui...">
<polygon fill="white" stroke="black" points="183,-76.5 183,-95.5 290,-95.5 290,-76.5 183,-76.5"/>
<text text-anchor="middle" x="236.5" y="-83.5" font-family="Helvetica,sans-Serif" font-size="10.00">dpp::utility::iconhash</text>
</a>
</g>
</g>
<!-- Node4&#45;&gt;Node13 -->
<g id="edge17" class="edge"><title>Node4&#45;&gt;Node13</title>
<path fill="none" stroke="#9a32cd" stroke-dasharray="5,2" d="M70.2646,-166.299C94.5813,-149.328 135.59,-122.383 174,-105 181.941,-101.406 190.752,-98.2385 199.167,-95.5708"/>
<polygon fill="#9a32cd" stroke="#9a32cd" points="67.9524,-163.647 61.8026,-172.274 71.9902,-169.365 67.9524,-163.647"/>
<text text-anchor="middle" x="134.5" y="-152" font-family="Helvetica,sans-Serif" font-size="10.00"> second</text>
<text text-anchor="middle" x="134.5" y="-141" font-family="Helvetica,sans-Serif" font-size="10.00">first</text>
</g>
<!-- Node5 -->
<g id="node5" class="node"><title>Node5</title>
<polygon fill="white" stroke="#bfbfbf" points="213.5,-163.5 213.5,-182.5 259.5,-182.5 259.5,-163.5 213.5,-163.5"/>
<text text-anchor="middle" x="236.5" y="-170.5" font-family="Helvetica,sans-Serif" font-size="10.00">uint8_t</text>
</g>
<!-- Node5&#45;&gt;Node2 -->
<g id="edge4" class="edge"><title>Node5&#45;&gt;Node2</title>
<path fill="none" stroke="#9a32cd" stroke-dasharray="5,2" d="M269.945,-168.978C300.92,-166.628 348.063,-167.035 384,-185 413.419,-199.706 435.645,-233.577 445.264,-250.299"/>
<polygon fill="#9a32cd" stroke="#9a32cd" points="269.354,-165.517 259.709,-169.9 269.982,-172.489 269.354,-165.517"/>
<text text-anchor="middle" x="350.5" y="-188" font-family="Helvetica,sans-Serif" font-size="10.00"> flags</text>
</g>
<!-- Node9 -->
<g id="node9" class="node"><title>Node9</title>
<g id="a_node9"><a xlink:href="classdpp_1_1user.html" target="_top" xlink:title="Represents a user on discord. May or may not be a member of a dpp::guild. ">
<polygon fill="white" stroke="black" points="423,-106.5 423,-125.5 480,-125.5 480,-106.5 423,-106.5"/>
<text text-anchor="middle" x="451.5" y="-113.5" font-family="Helvetica,sans-Serif" font-size="10.00">dpp::user</text>
</a>
</g>
</g>
<!-- Node5&#45;&gt;Node9 -->
<g id="edge14" class="edge"><title>Node5&#45;&gt;Node9</title>
<path fill="none" stroke="#9a32cd" stroke-dasharray="5,2" d="M269.711,-163.979C284.159,-159.961 301.422,-155.197 317,-151 353.554,-141.151 395.839,-130.127 422.857,-123.13"/>
<polygon fill="#9a32cd" stroke="#9a32cd" points="268.445,-160.699 259.752,-166.755 270.325,-167.442 268.445,-160.699"/>
<text text-anchor="middle" x="350.5" y="-154" font-family="Helvetica,sans-Serif" font-size="10.00"> refcount</text>
</g>
<!-- Node6 -->
<g id="node6" class="node"><title>Node6</title>
<g id="a_node6"><a xlink:title="STL class. ">
<polygon fill="white" stroke="#bfbfbf" points="206.5,-304.5 206.5,-323.5 266.5,-323.5 266.5,-304.5 206.5,-304.5"/>
<text text-anchor="middle" x="236.5" y="-311.5" font-family="Helvetica,sans-Serif" font-size="10.00">std::string</text>
</a>
</g>
</g>
<!-- Node6&#45;&gt;Node2 -->
<g id="edge5" class="edge"><title>Node6&#45;&gt;Node2</title>
<path fill="none" stroke="#9a32cd" stroke-dasharray="5,2" d="M276.734,-308.034C306.476,-303.079 348.199,-295.198 384,-285 398.828,-280.776 415.03,-274.717 427.729,-269.621"/>
<polygon fill="#9a32cd" stroke="#9a32cd" points="276.049,-304.599 266.743,-309.663 277.176,-311.508 276.049,-304.599"/>
<text text-anchor="middle" x="350.5" y="-304" font-family="Helvetica,sans-Serif" font-size="10.00"> nickname</text>
</g>
<!-- Node6&#45;&gt;Node9 -->
<g id="edge15" class="edge"><title>Node6&#45;&gt;Node9</title>
<path fill="none" stroke="#9a32cd" stroke-dasharray="5,2" d="M276.642,-307.541C284.754,-304.745 292.728,-300.739 299,-295 314.588,-280.737 304.452,-267.999 317,-251 339.88,-220.004 356.674,-223.158 384,-196 407.571,-172.574 431.612,-141.495 443.272,-125.866"/>
<polygon fill="#9a32cd" stroke="#9a32cd" points="275.421,-304.25 266.784,-310.386 277.363,-310.975 275.421,-304.25"/>
<text text-anchor="middle" x="350.5" y="-254" font-family="Helvetica,sans-Serif" font-size="10.00"> username</text>
</g>
<!-- Node7 -->
<g id="node7" class="node"><title>Node7</title>
<g id="a_node7"><a xlink:title="STL class. ">
<polygon fill="white" stroke="#bfbfbf" points="0,-299 0,-329 95,-329 95,-299 0,-299"/>
<text text-anchor="start" x="8" y="-317" font-family="Helvetica,sans-Serif" font-size="10.00">std::basic_string&lt;</text>
<text text-anchor="middle" x="47.5" y="-306" font-family="Helvetica,sans-Serif" font-size="10.00"> char &gt;</text>
</a>
</g>
</g>
<!-- Node7&#45;&gt;Node6 -->
<g id="edge6" class="edge"><title>Node7&#45;&gt;Node6</title>
<path fill="none" stroke="midnightblue" d="M105.287,-314C138.612,-314 179.335,-314 206.27,-314"/>
<polygon fill="midnightblue" stroke="midnightblue" points="105.206,-310.5 95.2056,-314 105.206,-317.5 105.206,-310.5"/>
</g>
<!-- Node8&#45;&gt;Node2 -->
<g id="edge7" class="edge"><title>Node8&#45;&gt;Node2</title>
<path fill="none" stroke="#9a32cd" stroke-dasharray="5,2" d="M309.263,-270.609C339.738,-268.32 374.474,-265.711 401.871,-263.653"/>
<polygon fill="#9a32cd" stroke="#9a32cd" points="308.818,-267.133 299.108,-271.372 309.343,-274.113 308.818,-267.133"/>
<text text-anchor="middle" x="350.5" y="-273" font-family="Helvetica,sans-Serif" font-size="10.00"> roles</text>
</g>
<!-- Node9&#45;&gt;Node1 -->
<g id="edge9" class="edge"><title>Node9&#45;&gt;Node1</title>
<path fill="none" stroke="#9a32cd" stroke-dasharray="5,2" d="M481.145,-130.156C516.297,-147.527 574.944,-176.51 605.175,-191.45"/>
<polygon fill="#9a32cd" stroke="#9a32cd" points="482.412,-126.878 471.896,-125.585 479.311,-133.154 482.412,-126.878"/>
<text text-anchor="middle" x="538.5" y="-170" font-family="Helvetica,sans-Serif" font-size="10.00"> user</text>
</g>
<!-- Node10&#45;&gt;Node9 -->
<g id="edge10" class="edge"><title>Node10&#45;&gt;Node9</title>
<path fill="none" stroke="midnightblue" d="M285.872,-19.6073C315.513,-26.8177 353.49,-38.4979 384,-56 407.739,-69.6178 430.269,-92.8705 442.031,-106.074"/>
<polygon fill="midnightblue" stroke="midnightblue" points="286.295,-16.1119 275.76,-17.2411 284.7,-22.9277 286.295,-16.1119"/>
</g>
<!-- Node11 -->
<g id="node11" class="node"><title>Node11</title>
<polygon fill="white" stroke="#bfbfbf" points="211,-38.5 211,-57.5 262,-57.5 262,-38.5 211,-38.5"/>
<text text-anchor="middle" x="236.5" y="-45.5" font-family="Helvetica,sans-Serif" font-size="10.00">uint16_t</text>
</g>
<!-- Node11&#45;&gt;Node9 -->
<g id="edge12" class="edge"><title>Node11&#45;&gt;Node9</title>
<path fill="none" stroke="#9a32cd" stroke-dasharray="5,2" d="M272.066,-51.9317C302.311,-56.1046 347.058,-64.0712 384,-78 403.41,-85.3184 423.858,-97.8283 436.871,-106.485"/>
<polygon fill="#9a32cd" stroke="#9a32cd" points="272.38,-48.443 262.01,-50.6104 271.468,-55.3834 272.38,-48.443"/>
<text text-anchor="middle" x="350.5" y="-81" font-family="Helvetica,sans-Serif" font-size="10.00"> discriminator</text>
</g>
<!-- Node12 -->
<g id="node12" class="node"><title>Node12</title>
<polygon fill="white" stroke="#bfbfbf" points="211,-114.5 211,-133.5 262,-133.5 262,-114.5 211,-114.5"/>
<text text-anchor="middle" x="236.5" y="-121.5" font-family="Helvetica,sans-Serif" font-size="10.00">uint32_t</text>
</g>
<!-- Node12&#45;&gt;Node9 -->
<g id="edge13" class="edge"><title>Node12&#45;&gt;Node9</title>
<path fill="none" stroke="#9a32cd" stroke-dasharray="5,2" d="M272.294,-120.327C286.183,-119.02 302.332,-117.7 317,-117 353.579,-115.255 395.859,-115.283 422.869,-115.56"/>
<polygon fill="#9a32cd" stroke="#9a32cd" points="271.788,-116.859 262.174,-121.313 272.467,-123.826 271.788,-116.859"/>
<text text-anchor="middle" x="350.5" y="-120" font-family="Helvetica,sans-Serif" font-size="10.00"> flags</text>
</g>
<!-- Node13&#45;&gt;Node9 -->
<g id="edge16" class="edge"><title>Node13&#45;&gt;Node9</title>
<path fill="none" stroke="#9a32cd" stroke-dasharray="5,2" d="M300.35,-90.7698C326.336,-93.1736 356.712,-96.542 384,-101 396.848,-103.099 410.933,-106.164 422.82,-108.977"/>
<polygon fill="#9a32cd" stroke="#9a32cd" points="300.524,-87.2715 290.251,-89.8633 299.898,-94.2434 300.524,-87.2715"/>
<text text-anchor="middle" x="350.5" y="-104" font-family="Helvetica,sans-Serif" font-size="10.00"> avatar</text>
</g>
</g>
</svg>
        <g id="navigator" transform="translate(0 0)" fill="#404254">
                <rect fill="#f2f5e9" fill-opacity="0.5" stroke="#606060" stroke-width=".5" x="0" y="0" width="60" height="60"/>
                <use id="zoomplus" xlink:href="#zoomPlus" x="17" y="9" onmousedown="handleZoom(evt,'in')"/>
                <use id="zoomminus" xlink:href="#zoomMin" x="42" y="9" onmousedown="handleZoom(evt,'out')"/>
                <use id="reset" xlink:href="#resetDef" x="30" y="36" onmousedown="handleReset()"/>
                <g id="arrowUp" xlink:href="#dirArrow" transform="translate(30 24)" onmousedown="handlePan(0,-1)">
                  <use xlink:href="#rim" fill="#404040">
                        <set attributeName="fill" to="#808080" begin="arrowUp.mouseover" end="arrowUp.mouseout"/>
                  </use>
                  <path fill="none" stroke="white" stroke-width="1.5" d="M0,-3.0v7 M-2.5,-0.5L0,-3.0L2.5,-0.5"/>
                </g>
                <g id="arrowRight" xlink:href="#dirArrow" transform="rotate(90) translate(36 -43)" onmousedown="handlePan(1,0)">
                  <use xlink:href="#rim" fill="#404040">
                        <set attributeName="fill" to="#808080" begin="arrowRight.mouseover" end="arrowRight.mouseout"/>
                  </use>
                  <path fill="none" stroke="white" stroke-width="1.5" d="M0,-3.0v7 M-2.5,-0.5L0,-3.0L2.5,-0.5"/>
                </g>
                <g id="arrowDown" xlink:href="#dirArrow" transform="rotate(180) translate(-30 -48)" onmousedown="handlePan(0,1)">
                  <use xlink:href="#rim" fill="#404040">
                        <set attributeName="fill" to="#808080" begin="arrowDown.mouseover" end="arrowDown.mouseout"/>
                  </use>
                  <path fill="none" stroke="white" stroke-width="1.5" d="M0,-3.0v7 M-2.5,-0.5L0,-3.0L2.5,-0.5"/>
                </g>
                <g id="arrowLeft" xlink:href="#dirArrow" transform="rotate(270) translate(-36 17)" onmousedown="handlePan(-1,0)">
                  <use xlink:href="#rim" fill="#404040">
                        <set attributeName="fill" to="#808080" begin="arrowLeft.mouseover" end="arrowLeft.mouseout"/>
                  </use>
                  <path fill="none" stroke="white" stroke-width="1.5" d="M0,-3.0v7 M-2.5,-0.5L0,-3.0L2.5,-0.5"/>
                </g>
        </g>
        <svg viewBox="0 0 15 15" width="100%" height="30px" preserveAspectRatio="xMaxYMin meet">
         <g id="arrow_out" transform="scale(0.3 0.3)">
          <a xlink:href="structdpp_1_1resolved__user__coll__graph_org.svg" target="_base">
           <rect id="button" ry="5" rx="5" y="6" x="6" height="38" width="38"
                fill="#f2f5e9" fill-opacity="0.5" stroke="#606060" stroke-width="1.0"/>
           <path id="arrow"
             d="M 11.500037,31.436501 C 11.940474,20.09759 22.043105,11.32322 32.158766,21.979434 L 37.068811,17.246167 C 37.068811,17.246167 37.088388,32 37.088388,32 L 22.160133,31.978069 C 22.160133,31.978069 26.997745,27.140456 26.997745,27.140456 C 18.528582,18.264221 13.291696,25.230495 11.500037,31.436501 z"
             style="fill:#404040;"/>
          </a>
         </g>
        </svg>
</svg>
