<?xml version="1.0" encoding="UTF-8" standalone="no"?>
<!DOCTYPE svg PUBLIC "-//W3C//DTD SVG 1.1//EN"
 "http://www.w3.org/Graphics/SVG/1.1/DTD/svg11.dtd">
<!-- Generated by graphviz version 2.43.0 (0)
 -->
<!-- Title: dpp::thread_member_update_t Pages: 1 -->
<!--zoomable 947 -->
<svg id="main" version="1.1" xmlns="http://www.w3.org/2000/svg" xmlns:xlink="http://www.w3.org/1999/xlink" xml:space="preserve" onload="init(evt)">
<style type="text/css"><![CDATA[
.edge:hover path { stroke: red; }
.edge:hover polygon { stroke: red; fill: red; }
]]></style>
<script type="text/javascript"><![CDATA[
var edges = document.getElementsByTagName('g');
if (edges && edges.length) {
  for (var i=0;i<edges.length;i++) {
    if (edges[i].id.substr(0,4)=='edge') {
      edges[i].setAttribute('class','edge');
    }
  }
}
]]></script>
        <defs>
                <circle id="rim" cx="0" cy="0" r="7"/>
                <circle id="rim2" cx="0" cy="0" r="3.5"/>
                <g id="zoomPlus">
                        <use xlink:href="#rim" fill="#404040">
                                <set attributeName="fill" to="#808080" begin="zoomplus.mouseover" end="zoomplus.mouseout"/>
                        </use>
                        <path d="M-4,0h8M0,-4v8" fill="none" stroke="white" stroke-width="1.5" pointer-events="none"/>
                </g>
                <g id="zoomMin">
                        <use xlink:href="#rim" fill="#404040">
                                <set attributeName="fill" to="#808080" begin="zoomminus.mouseover" end="zoomminus.mouseout"/>
                        </use>
                        <path d="M-4,0h8" fill="none" stroke="white" stroke-width="1.5" pointer-events="none"/>
                </g>
                <g id="dirArrow">
                        <path fill="none" stroke="white" stroke-width="1.5" d="M0,-3.0v7 M-2.5,-0.5L0,-3.0L2.5,-0.5"/>
                </g>
               <g id="resetDef">
                       <use xlink:href="#rim2" fill="#404040">
                               <set attributeName="fill" to="#808080" begin="reset.mouseover" end="reset.mouseout"/>
                       </use>
               </g>
        </defs>

<script type="text/javascript">
var viewWidth = 1553;
var viewHeight = 947;
var sectionId = 'dynsection-1';
</script>
<script xlink:href="svgpan.js"/>
<svg id="graph" class="graph">
<g id="viewport">
<title>dpp::thread_member_update_t</title>
<!-- Node1 -->
<g id="node1" class="node">
<title>Node1</title>
<g id="a_node1"><a xlink:title="Thread Member Update.">
<polygon fill="#bfbfbf" stroke="black" points="1426,-25.36 1426,-55.36 1545,-55.36 1545,-25.36 1426,-25.36"/>
<text text-anchor="start" x="1434" y="-43.36" font-family="Helvetica,sans-Serif" font-size="10.00">dpp::thread_member</text>
<text text-anchor="middle" x="1485.5" y="-32.36" font-family="Helvetica,sans-Serif" font-size="10.00">_update_t</text>
</a>
</g>
</g>
<!-- Node2 -->
<g id="node2" class="node">
<title>Node2</title>
<g id="a_node2"><a xlink:href="structdpp_1_1event__dispatch__t.html" target="_top" xlink:title="Base event parameter struct. Each event you receive from the library will have its parameter derived ...">
<polygon fill="none" stroke="black" points="1265,-564.86 1265,-583.86 1389,-583.86 1389,-564.86 1265,-564.86"/>
<text text-anchor="middle" x="1327" y="-571.86" font-family="Helvetica,sans-Serif" font-size="10.00">dpp::event_dispatch_t</text>
</a>
</g>
</g>
<!-- Node2&#45;&gt;Node1 -->
<g id="edge1" class="edge">
<title>Node2&#45;&gt;Node1</title>
<path fill="none" stroke="midnightblue" d="M1333.68,-554.97C1358.59,-469.99 1457.83,-131.35 1480.07,-55.49"/>
<polygon fill="midnightblue" stroke="midnightblue" points="1330.3,-554.06 1330.85,-564.64 1337.02,-556.03 1330.3,-554.06"/>
</g>
<!-- Node3 -->
<g id="node3" class="node">
<title>Node3</title>
<g id="a_node3"><a xlink:title=" ">
<polygon fill="none" stroke="#bfbfbf" points="258,-707.86 258,-726.86 323,-726.86 323,-707.86 258,-707.86"/>
<text text-anchor="middle" x="290.5" y="-714.86" font-family="Helvetica,sans-Serif" font-size="10.00">std::string</text>
</a>
</g>
</g>
<!-- Node3&#45;&gt;Node2 -->
<g id="edge2" class="edge">
<title>Node3&#45;&gt;Node2</title>
<path fill="none" stroke="#9a32cd" stroke-dasharray="5,2" d="M303.47,-735.49C317.61,-757.2 341.56,-794.83 360,-828.36 368.81,-844.39 362.54,-855.59 378,-865.36 443.57,-906.79 1005.66,-903.03 1076,-870.36 1212.66,-806.9 1301.57,-627.87 1321.66,-584.11"/>
<polygon fill="#9a32cd" stroke="#9a32cd" points="306.29,-733.41 297.88,-726.97 300.44,-737.25 306.29,-733.41"/>
<text text-anchor="middle" x="858.5" y="-897.36" font-family="Helvetica,sans-Serif" font-size="10.00"> raw_event</text>
</g>
<!-- Node5 -->
<g id="node5" class="node">
<title>Node5</title>
<g id="a_node5"><a xlink:href="classdpp_1_1discord__client.html" target="_top" xlink:title="Implements a discord client. Each discord_client connects to one shard and derives from a websocket c...">
<polygon fill="none" stroke="black" points="1094,-564.86 1094,-583.86 1202,-583.86 1202,-564.86 1094,-564.86"/>
<text text-anchor="middle" x="1148" y="-571.86" font-family="Helvetica,sans-Serif" font-size="10.00">dpp::discord_client</text>
</a>
</g>
</g>
<!-- Node3&#45;&gt;Node5 -->
<g id="edge42" class="edge">
<title>Node3&#45;&gt;Node5</title>
<path fill="none" stroke="#9a32cd" stroke-dasharray="5,2" d="M310.06,-733.3C326.63,-746.4 352.2,-763.97 378,-771.36 429.7,-786.17 445.41,-775.84 499,-771.36 758.14,-749.73 855.67,-812.49 1076,-674.36 1111.72,-651.97 1134.66,-604.39 1143.22,-583.99"/>
<polygon fill="#9a32cd" stroke="#9a32cd" points="312.22,-730.54 302.26,-726.93 307.79,-735.97 312.22,-730.54"/>
<text text-anchor="middle" x="717.5" y="-782.36" font-family="Helvetica,sans-Serif" font-size="10.00"> sessionid</text>
<text text-anchor="middle" x="717.5" y="-771.36" font-family="Helvetica,sans-Serif" font-size="10.00">token</text>
</g>
<!-- Node7 -->
<g id="node7" class="node">
<title>Node7</title>
<g id="a_node7"><a xlink:href="classdpp_1_1ssl__client.html" target="_top" xlink:title="Implements a simple non&#45;blocking SSL stream client.">
<polygon fill="none" stroke="black" points="535,-660.86 535,-679.86 621,-679.86 621,-660.86 535,-660.86"/>
<text text-anchor="middle" x="578" y="-667.86" font-family="Helvetica,sans-Serif" font-size="10.00">dpp::ssl_client</text>
</a>
</g>
</g>
<!-- Node3&#45;&gt;Node7 -->
<g id="edge7" class="edge">
<title>Node3&#45;&gt;Node7</title>
<path fill="none" stroke="#9a32cd" stroke-dasharray="5,2" d="M333.27,-715.45C375.46,-712.92 442.31,-707.32 499,-695.36 516.95,-691.58 536.61,-685.26 551.71,-679.92"/>
<polygon fill="#9a32cd" stroke="#9a32cd" points="332.89,-711.96 323.1,-716.02 333.28,-718.95 332.89,-711.96"/>
<text text-anchor="middle" x="438.5" y="-759.36" font-family="Helvetica,sans-Serif" font-size="10.00"> buffer</text>
<text text-anchor="middle" x="438.5" y="-748.36" font-family="Helvetica,sans-Serif" font-size="10.00">cipher</text>
<text text-anchor="middle" x="438.5" y="-737.36" font-family="Helvetica,sans-Serif" font-size="10.00">hostname</text>
<text text-anchor="middle" x="438.5" y="-726.36" font-family="Helvetica,sans-Serif" font-size="10.00">obuffer</text>
<text text-anchor="middle" x="438.5" y="-715.36" font-family="Helvetica,sans-Serif" font-size="10.00">port</text>
</g>
<!-- Node16 -->
<g id="node16" class="node">
<title>Node16</title>
<g id="a_node16"><a xlink:href="classdpp_1_1cluster.html" target="_top" xlink:title="The cluster class represents a group of shards and a command queue for sending and receiving commands...">
<polygon fill="none" stroke="black" points="821.5,-310.86 821.5,-329.86 895.5,-329.86 895.5,-310.86 821.5,-310.86"/>
<text text-anchor="middle" x="858.5" y="-317.86" font-family="Helvetica,sans-Serif" font-size="10.00">dpp::cluster</text>
</a>
</g>
</g>
<!-- Node3&#45;&gt;Node16 -->
<g id="edge18" class="edge">
<title>Node3&#45;&gt;Node16</title>
<path fill="none" stroke="#9a32cd" stroke-dasharray="5,2" d="M332.49,-706.1C342.07,-702.34 351.84,-697.5 360,-691.36 370.65,-683.35 367.23,-675.22 378,-667.36 423.97,-633.79 462.38,-668.95 499,-625.36 531.15,-587.1 480.59,-548.6 517,-514.36 601.92,-434.5 682.72,-555.53 778,-488.36 833.91,-448.95 851.74,-359.6 856.22,-330.05"/>
<polygon fill="#9a32cd" stroke="#9a32cd" points="331.27,-702.82 323.05,-709.51 333.64,-709.41 331.27,-702.82"/>
<text text-anchor="middle" x="578" y="-517.36" font-family="Helvetica,sans-Serif" font-size="10.00"> token</text>
</g>
<!-- Node19 -->
<g id="node19" class="node">
<title>Node19</title>
<g id="a_node19"><a xlink:href="classdpp_1_1user.html" target="_top" xlink:title="Represents a user on discord. May or may not be a member of a dpp::guild.">
<polygon fill="none" stroke="black" points="547,-225.86 547,-244.86 609,-244.86 609,-225.86 547,-225.86"/>
<text text-anchor="middle" x="578" y="-232.86" font-family="Helvetica,sans-Serif" font-size="10.00">dpp::user</text>
</a>
</g>
</g>
<!-- Node3&#45;&gt;Node19 -->
<g id="edge27" class="edge">
<title>Node3&#45;&gt;Node19</title>
<path fill="none" stroke="#9a32cd" stroke-dasharray="5,2" d="M332.89,-709.96C343.28,-706.11 353.36,-700.26 360,-691.36 392,-648.51 350.66,-497.33 378,-451.36 410.71,-396.37 464.25,-427.09 499,-373.36 528.05,-328.45 482.25,-295.03 517,-254.36 524.45,-245.64 535.89,-240.88 546.78,-238.29"/>
<polygon fill="#9a32cd" stroke="#9a32cd" points="331.83,-706.62 323.34,-712.96 333.93,-713.3 331.83,-706.62"/>
<text text-anchor="middle" x="438.5" y="-454.36" font-family="Helvetica,sans-Serif" font-size="10.00"> username</text>
</g>
<!-- Node4 -->
<g id="node4" class="node">
<title>Node4</title>
<g id="a_node4"><a xlink:title=" ">
<polygon fill="none" stroke="#bfbfbf" points="17,-702.36 17,-732.36 121,-732.36 121,-702.36 17,-702.36"/>
<text text-anchor="start" x="25" y="-720.36" font-family="Helvetica,sans-Serif" font-size="10.00">std::basic_string&lt;</text>
<text text-anchor="middle" x="69" y="-709.36" font-family="Helvetica,sans-Serif" font-size="10.00"> Char &gt;</text>
</a>
</g>
</g>
<!-- Node4&#45;&gt;Node3 -->
<g id="edge3" class="edge">
<title>Node4&#45;&gt;Node3</title>
<path fill="none" stroke="midnightblue" d="M131.38,-717.36C172.53,-717.36 225.02,-717.36 257.96,-717.36"/>
<polygon fill="midnightblue" stroke="midnightblue" points="131.19,-713.86 121.19,-717.36 131.19,-720.86 131.19,-713.86"/>
</g>
<!-- Node5&#45;&gt;Node2 -->
<g id="edge4" class="edge">
<title>Node5&#45;&gt;Node2</title>
<path fill="none" stroke="#9a32cd" stroke-dasharray="5,2" d="M1212.52,-574.36C1229.56,-574.36 1247.94,-574.36 1264.85,-574.36"/>
<polygon fill="#9a32cd" stroke="#9a32cd" points="1212.11,-570.86 1202.11,-574.36 1212.11,-577.86 1212.11,-570.86"/>
<text text-anchor="middle" x="1233.5" y="-577.36" font-family="Helvetica,sans-Serif" font-size="10.00"> from</text>
</g>
<!-- Node6 -->
<g id="node6" class="node">
<title>Node6</title>
<g id="a_node6"><a xlink:href="classdpp_1_1websocket__client.html" target="_top" xlink:title="Implements a websocket client based on the SSL client.">
<polygon fill="none" stroke="black" points="796,-660.86 796,-679.86 921,-679.86 921,-660.86 796,-660.86"/>
<text text-anchor="middle" x="858.5" y="-667.86" font-family="Helvetica,sans-Serif" font-size="10.00">dpp::websocket_client</text>
</a>
</g>
</g>
<!-- Node6&#45;&gt;Node5 -->
<g id="edge5" class="edge">
<title>Node6&#45;&gt;Node5</title>
<path fill="none" stroke="midnightblue" d="M931.32,-674.25C975.15,-673.82 1031.17,-668.09 1076,-646.36 1105.54,-632.04 1129.81,-600.22 1140.74,-584.11"/>
<polygon fill="midnightblue" stroke="midnightblue" points="931.31,-670.75 921.31,-674.26 931.32,-677.75 931.31,-670.75"/>
</g>
<!-- Node7&#45;&gt;Node6 -->
<g id="edge6" class="edge">
<title>Node7&#45;&gt;Node6</title>
<path fill="none" stroke="midnightblue" d="M631.51,-670.36C678.24,-670.36 746.62,-670.36 795.91,-670.36"/>
<polygon fill="midnightblue" stroke="midnightblue" points="631.3,-666.86 621.3,-670.36 631.3,-673.86 631.3,-666.86"/>
</g>
<!-- Node8 -->
<g id="node8" class="node">
<title>Node8</title>
<g id="a_node8"><a xlink:title=" ">
<polygon fill="none" stroke="#bfbfbf" points="271.5,-837.86 271.5,-856.86 309.5,-856.86 309.5,-837.86 271.5,-837.86"/>
<text text-anchor="middle" x="290.5" y="-844.86" font-family="Helvetica,sans-Serif" font-size="10.00">bool</text>
</a>
</g>
</g>
<!-- Node8&#45;&gt;Node5 -->
<g id="edge16" class="edge">
<title>Node8&#45;&gt;Node5</title>
<path fill="none" stroke="#9a32cd" stroke-dasharray="5,2" d="M318.65,-861.68C332.18,-869.73 348.14,-880.71 360,-893.36 370.89,-904.99 364.19,-916.41 378,-924.36 424.61,-951.19 445.98,-933.37 499,-924.36 515.74,-921.52 1063.35,-733.69 1076,-722.36 1119.95,-683.02 1139.25,-610.53 1145.02,-584.23"/>
<polygon fill="#9a32cd" stroke="#9a32cd" points="320.17,-858.52 309.75,-856.59 316.69,-864.59 320.17,-858.52"/>
<text text-anchor="middle" x="717.5" y="-885.36" font-family="Helvetica,sans-Serif" font-size="10.00"> ready</text>
<text text-anchor="middle" x="717.5" y="-874.36" font-family="Helvetica,sans-Serif" font-size="10.00">terminating</text>
</g>
<!-- Node8&#45;&gt;Node7 -->
<g id="edge8" class="edge">
<title>Node8&#45;&gt;Node7</title>
<path fill="none" stroke="#9a32cd" stroke-dasharray="5,2" d="M319.64,-842.27C361.9,-833.54 442.79,-812.53 499,-771.36 534.21,-745.57 561.42,-699.67 572.09,-679.87"/>
<polygon fill="#9a32cd" stroke="#9a32cd" points="318.9,-838.85 309.77,-844.23 320.26,-845.71 318.9,-838.85"/>
<text text-anchor="middle" x="438.5" y="-862.36" font-family="Helvetica,sans-Serif" font-size="10.00"> keepalive</text>
<text text-anchor="middle" x="438.5" y="-851.36" font-family="Helvetica,sans-Serif" font-size="10.00">make_new</text>
<text text-anchor="middle" x="438.5" y="-840.36" font-family="Helvetica,sans-Serif" font-size="10.00">nonblocking</text>
<text text-anchor="middle" x="438.5" y="-829.36" font-family="Helvetica,sans-Serif" font-size="10.00">plaintext</text>
</g>
<!-- Node9 -->
<g id="node9" class="node">
<title>Node9</title>
<g id="a_node9"><a xlink:title=" ">
<polygon fill="none" stroke="#bfbfbf" points="276,-613.86 276,-632.86 305,-632.86 305,-613.86 276,-613.86"/>
<text text-anchor="middle" x="290.5" y="-620.86" font-family="Helvetica,sans-Serif" font-size="10.00">int</text>
</a>
</g>
</g>
<!-- Node9&#45;&gt;Node7 -->
<g id="edge9" class="edge">
<title>Node9&#45;&gt;Node7</title>
<path fill="none" stroke="#9a32cd" stroke-dasharray="5,2" d="M315.32,-626.99C353.93,-632.91 432.55,-645.12 499,-656.36 510.67,-658.34 523.3,-660.56 534.93,-662.65"/>
<polygon fill="#9a32cd" stroke="#9a32cd" points="315.53,-623.48 305.11,-625.43 314.47,-630.4 315.53,-623.48"/>
<text text-anchor="middle" x="438.5" y="-659.36" font-family="Helvetica,sans-Serif" font-size="10.00"> sfd</text>
</g>
<!-- Node10 -->
<g id="node10" class="node">
<title>Node10</title>
<g id="a_node10"><a xlink:href="classdpp_1_1openssl__connection.html" target="_top" xlink:title="This is an opaque class containing openssl library specific structures. We define it this way so that...">
<polygon fill="none" stroke="black" points="222,-902.86 222,-921.86 359,-921.86 359,-902.86 222,-902.86"/>
<text text-anchor="middle" x="290.5" y="-909.86" font-family="Helvetica,sans-Serif" font-size="10.00">dpp::openssl_connection</text>
</a>
</g>
</g>
<!-- Node10&#45;&gt;Node7 -->
<g id="edge10" class="edge">
<title>Node10&#45;&gt;Node7</title>
<path fill="none" stroke="#9a32cd" stroke-dasharray="5,2" d="M369.39,-915.78C412.02,-913.65 463.28,-904.05 499,-874.36 561.99,-822.02 574.21,-712.77 576.5,-679.91"/>
<polygon fill="#9a32cd" stroke="#9a32cd" points="369.17,-912.28 359.31,-916.15 369.43,-919.28 369.17,-912.28"/>
<text text-anchor="middle" x="438.5" y="-917.36" font-family="Helvetica,sans-Serif" font-size="10.00"> ssl</text>
</g>
<!-- Node11 -->
<g id="node11" class="node">
<title>Node11</title>
<g id="a_node11"><a xlink:title=" ">
<polygon fill="none" stroke="#bfbfbf" points="48,-902.86 48,-921.86 90,-921.86 90,-902.86 48,-902.86"/>
<text text-anchor="middle" x="69" y="-909.86" font-family="Helvetica,sans-Serif" font-size="10.00">SSL *</text>
</a>
</g>
</g>
<!-- Node11&#45;&gt;Node10 -->
<g id="edge11" class="edge">
<title>Node11&#45;&gt;Node10</title>
<path fill="none" stroke="#9a32cd" stroke-dasharray="5,2" d="M100.48,-912.36C131.66,-912.36 181.15,-912.36 221.66,-912.36"/>
<polygon fill="#9a32cd" stroke="#9a32cd" points="100.26,-908.86 90.26,-912.36 100.26,-915.86 100.26,-908.86"/>
<text text-anchor="middle" x="179.5" y="-915.36" font-family="Helvetica,sans-Serif" font-size="10.00"> ssl</text>
</g>
<!-- Node12 -->
<g id="node12" class="node">
<title>Node12</title>
<g id="a_node12"><a xlink:title=" ">
<polygon fill="none" stroke="#bfbfbf" points="266.5,-429.86 266.5,-448.86 314.5,-448.86 314.5,-429.86 266.5,-429.86"/>
<text text-anchor="middle" x="290.5" y="-436.86" font-family="Helvetica,sans-Serif" font-size="10.00">time_t</text>
</a>
</g>
</g>
<!-- Node12&#45;&gt;Node5 -->
<g id="edge39" class="edge">
<title>Node12&#45;&gt;Node5</title>
<path fill="none" stroke="#9a32cd" stroke-dasharray="5,2" d="M324.69,-438.93C376.84,-438.98 474.55,-442.27 499,-465.36 531.19,-495.77 483.7,-534.17 517,-563.36 587.58,-625.22 845.15,-579.38 939,-580.36 999.89,-581 1015.17,-582.93 1076,-580.36 1081.81,-580.12 1087.88,-579.76 1093.92,-579.34"/>
<polygon fill="#9a32cd" stroke="#9a32cd" points="324.59,-435.43 314.6,-438.96 324.61,-442.43 324.59,-435.43"/>
<text text-anchor="middle" x="717.5" y="-610.36" font-family="Helvetica,sans-Serif" font-size="10.00"> last_heartbeat</text>
<text text-anchor="middle" x="717.5" y="-599.36" font-family="Helvetica,sans-Serif" font-size="10.00">last_heartbeat_ack</text>
</g>
<!-- Node12&#45;&gt;Node7 -->
<g id="edge12" class="edge">
<title>Node12&#45;&gt;Node7</title>
<path fill="none" stroke="#9a32cd" stroke-dasharray="5,2" d="M324.57,-448.61C380.21,-464.47 487.61,-496.47 499,-510.36 537.38,-557.17 480.16,-597.33 517,-645.36 522.22,-652.17 529.63,-657.14 537.47,-660.76"/>
<polygon fill="#9a32cd" stroke="#9a32cd" points="325.4,-445.21 314.82,-445.85 323.49,-451.94 325.4,-445.21"/>
<text text-anchor="middle" x="438.5" y="-513.36" font-family="Helvetica,sans-Serif" font-size="10.00"> last_tick</text>
</g>
<!-- Node12&#45;&gt;Node16 -->
<g id="edge19" class="edge">
<title>Node12&#45;&gt;Node16</title>
<path fill="none" stroke="#9a32cd" stroke-dasharray="5,2" d="M324.94,-439.05C376.59,-437.91 472.62,-432.99 499,-412.36 516.29,-398.84 499.74,-379.93 517,-366.36 566.36,-327.55 594.77,-355.77 657,-347.36 714.43,-339.6 781.12,-330.63 821.28,-325.23"/>
<polygon fill="#9a32cd" stroke="#9a32cd" points="324.56,-435.55 314.63,-439.24 324.69,-442.55 324.56,-435.55"/>
<text text-anchor="middle" x="578" y="-369.36" font-family="Helvetica,sans-Serif" font-size="10.00"> last_identify</text>
</g>
<!-- Node34 -->
<g id="node34" class="node">
<title>Node34</title>
<g id="a_node34"><a xlink:href="structdpp_1_1thread__member.html" target="_top" xlink:title="represents membership of a user with a thread">
<polygon fill="none" stroke="black" points="518.5,-18.86 518.5,-37.86 637.5,-37.86 637.5,-18.86 518.5,-18.86"/>
<text text-anchor="middle" x="578" y="-25.86" font-family="Helvetica,sans-Serif" font-size="10.00">dpp::thread_member</text>
</a>
</g>
</g>
<!-- Node12&#45;&gt;Node34 -->
<g id="edge49" class="edge">
<title>Node12&#45;&gt;Node34</title>
<path fill="none" stroke="#9a32cd" stroke-dasharray="5,2" d="M310.21,-422.9C325.51,-408.54 346.72,-386.44 360,-363.36 373.04,-340.7 359.87,-326.19 378,-307.36 417.69,-266.14 463.67,-308.38 499,-263.36 521.77,-234.35 502.34,-132.21 517,-98.36 527.94,-73.1 551.26,-50.18 565.39,-37.87"/>
<polygon fill="#9a32cd" stroke="#9a32cd" points="307.83,-420.34 302.82,-429.67 312.56,-425.5 307.83,-420.34"/>
<text text-anchor="middle" x="438.5" y="-310.36" font-family="Helvetica,sans-Serif" font-size="10.00"> joined</text>
</g>
<!-- Node13 -->
<g id="node13" class="node">
<title>Node13</title>
<g id="a_node13"><a xlink:title=" ">
<polygon fill="none" stroke="#bfbfbf" points="41,-296.86 41,-315.86 97,-315.86 97,-296.86 41,-296.86"/>
<text text-anchor="middle" x="69" y="-303.86" font-family="Helvetica,sans-Serif" font-size="10.00">uint64_t</text>
</a>
</g>
</g>
<!-- Node13&#45;&gt;Node5 -->
<g id="edge41" class="edge">
<title>Node13&#45;&gt;Node5</title>
<path fill="none" stroke="#9a32cd" stroke-dasharray="5,2" d="M82.58,-324.42C105.97,-356.55 159.4,-423.56 221,-458.36 222.73,-459.34 497.58,-524.97 499,-526.36 521.05,-547.92 494.28,-572.51 517,-593.36 563.57,-636.1 594.04,-612.78 657,-618.36 842.78,-634.82 892.59,-629.17 1076,-595.36 1090.66,-592.66 1106.62,-588.09 1119.68,-583.91"/>
<polygon fill="#9a32cd" stroke="#9a32cd" points="85.22,-322.08 76.56,-315.98 79.52,-326.15 85.22,-322.08"/>
<text text-anchor="middle" x="578" y="-623.36" font-family="Helvetica,sans-Serif" font-size="10.00"> last_seq</text>
</g>
<!-- Node13&#45;&gt;Node7 -->
<g id="edge13" class="edge">
<title>Node13&#45;&gt;Node7</title>
<path fill="none" stroke="#9a32cd" stroke-dasharray="5,2" d="M72.57,-326.12C78.88,-366.26 99.04,-457.42 156,-503.36 277.24,-601.16 387.09,-467.01 499,-575.36 522.08,-597.71 495.97,-621.08 517,-645.36 522.91,-652.19 530.99,-657.19 539.3,-660.84"/>
<polygon fill="#9a32cd" stroke="#9a32cd" points="76,-325.42 71.11,-316.03 69.07,-326.42 76,-325.42"/>
<text text-anchor="middle" x="290.5" y="-556.36" font-family="Helvetica,sans-Serif" font-size="10.00"> bytes_in</text>
<text text-anchor="middle" x="290.5" y="-545.36" font-family="Helvetica,sans-Serif" font-size="10.00">bytes_out</text>
</g>
<!-- Node20 -->
<g id="node20" class="node">
<title>Node20</title>
<g id="a_node20"><a xlink:href="classdpp_1_1managed.html" target="_top" xlink:title="The managed class is the base class for various types that can be stored in a cache that are identifi...">
<polygon fill="none" stroke="black" points="247.5,-296.86 247.5,-315.86 333.5,-315.86 333.5,-296.86 247.5,-296.86"/>
<text text-anchor="middle" x="290.5" y="-303.86" font-family="Helvetica,sans-Serif" font-size="10.00">dpp::managed</text>
</a>
</g>
</g>
<!-- Node13&#45;&gt;Node20 -->
<g id="edge24" class="edge">
<title>Node13&#45;&gt;Node20</title>
<path fill="none" stroke="#9a32cd" stroke-dasharray="5,2" d="M107.72,-306.36C146.6,-306.36 207.1,-306.36 247.49,-306.36"/>
<polygon fill="#9a32cd" stroke="#9a32cd" points="107.36,-302.86 97.36,-306.36 107.36,-309.86 107.36,-302.86"/>
<text text-anchor="middle" x="179.5" y="-309.36" font-family="Helvetica,sans-Serif" font-size="10.00"> id</text>
</g>
<!-- Node23 -->
<g id="node23" class="node">
<title>Node23</title>
<g id="a_node23"><a xlink:href="structdpp_1_1utility_1_1iconhash.html" target="_top" xlink:title="Store a 128 bit icon hash (profile picture, server icon etc) as a 128 bit binary value made of two ui...">
<polygon fill="none" stroke="black" points="231.5,-169.86 231.5,-188.86 349.5,-188.86 349.5,-169.86 231.5,-169.86"/>
<text text-anchor="middle" x="290.5" y="-176.86" font-family="Helvetica,sans-Serif" font-size="10.00">dpp::utility::iconhash</text>
</a>
</g>
</g>
<!-- Node13&#45;&gt;Node23 -->
<g id="edge29" class="edge">
<title>Node13&#45;&gt;Node23</title>
<path fill="none" stroke="#9a32cd" stroke-dasharray="5,2" d="M88.38,-289.9C115.52,-266.4 168.78,-223.31 221,-198.36 228.91,-194.58 237.7,-191.44 246.27,-188.87"/>
<polygon fill="#9a32cd" stroke="#9a32cd" points="85.73,-287.57 80.52,-296.8 90.34,-292.83 85.73,-287.57"/>
<text text-anchor="middle" x="179.5" y="-249.36" font-family="Helvetica,sans-Serif" font-size="10.00"> first</text>
<text text-anchor="middle" x="179.5" y="-238.36" font-family="Helvetica,sans-Serif" font-size="10.00">second</text>
</g>
<!-- Node13&#45;&gt;Node34 -->
<g id="edge48" class="edge">
<title>Node13&#45;&gt;Node34</title>
<path fill="none" stroke="#9a32cd" stroke-dasharray="5,2" d="M77.72,-287.36C101.06,-230.99 172.24,-66.8 221,-38.36 323.81,21.6 473.3,-2.96 541.13,-18.83"/>
<polygon fill="#9a32cd" stroke="#9a32cd" points="74.38,-286.28 73.82,-296.86 80.86,-288.93 74.38,-286.28"/>
<text text-anchor="middle" x="290.5" y="-52.36" font-family="Helvetica,sans-Serif" font-size="10.00"> thread_id</text>
<text text-anchor="middle" x="290.5" y="-41.36" font-family="Helvetica,sans-Serif" font-size="10.00">user_id</text>
</g>
<!-- Node14 -->
<g id="node14" class="node">
<title>Node14</title>
<g id="a_node14"><a xlink:title=" ">
<polygon fill="none" stroke="#bfbfbf" points="221,-575.86 221,-594.86 360,-594.86 360,-575.86 221,-575.86"/>
<text text-anchor="middle" x="290.5" y="-582.86" font-family="Helvetica,sans-Serif" font-size="10.00">function&lt; dpp::socket()&gt;</text>
</a>
</g>
</g>
<!-- Node14&#45;&gt;Node7 -->
<g id="edge14" class="edge">
<title>Node14&#45;&gt;Node7</title>
<path fill="none" stroke="#9a32cd" stroke-dasharray="5,2" d="M370.31,-578.57C411.91,-578.86 461.88,-585.73 499,-611.36 513.07,-621.08 504.37,-633.84 517,-645.36 524.34,-652.05 533.72,-657.1 542.88,-660.84"/>
<polygon fill="#9a32cd" stroke="#9a32cd" points="370.18,-575.07 360.2,-578.62 370.22,-582.07 370.18,-575.07"/>
<text text-anchor="middle" x="438.5" y="-625.36" font-family="Helvetica,sans-Serif" font-size="10.00"> custom_readable_fd</text>
<text text-anchor="middle" x="438.5" y="-614.36" font-family="Helvetica,sans-Serif" font-size="10.00">custom_writeable_fd</text>
</g>
<!-- Node15 -->
<g id="node15" class="node">
<title>Node15</title>
<g id="a_node15"><a xlink:title=" ">
<polygon fill="none" stroke="#bfbfbf" points="238.5,-662.86 238.5,-681.86 342.5,-681.86 342.5,-662.86 238.5,-662.86"/>
<text text-anchor="middle" x="290.5" y="-669.86" font-family="Helvetica,sans-Serif" font-size="10.00">function&lt; void()&gt;</text>
</a>
</g>
</g>
<!-- Node15&#45;&gt;Node7 -->
<g id="edge15" class="edge">
<title>Node15&#45;&gt;Node7</title>
<path fill="none" stroke="#9a32cd" stroke-dasharray="5,2" d="M352.84,-671.93C407.7,-671.55 486.68,-670.99 534.76,-670.66"/>
<polygon fill="#9a32cd" stroke="#9a32cd" points="352.52,-668.43 342.54,-672 352.57,-675.43 352.52,-668.43"/>
<text text-anchor="middle" x="438.5" y="-686.36" font-family="Helvetica,sans-Serif" font-size="10.00"> custom_readable_ready</text>
<text text-anchor="middle" x="438.5" y="-675.36" font-family="Helvetica,sans-Serif" font-size="10.00">custom_writeable_ready</text>
</g>
<!-- Node16&#45;&gt;Node5 -->
<g id="edge17" class="edge">
<title>Node16&#45;&gt;Node5</title>
<path fill="none" stroke="#9a32cd" stroke-dasharray="5,2" d="M877.98,-336.69C932.7,-385.03 1092.73,-526.42 1136.07,-564.71"/>
<polygon fill="#9a32cd" stroke="#9a32cd" points="880.23,-334.01 870.42,-330.01 875.6,-339.25 880.23,-334.01"/>
<text text-anchor="middle" x="1007.5" y="-509.36" font-family="Helvetica,sans-Serif" font-size="10.00"> creator</text>
</g>
<!-- Node17 -->
<g id="node17" class="node">
<title>Node17</title>
<g id="a_node17"><a xlink:title=" ">
<polygon fill="none" stroke="#bfbfbf" points="262.5,-69.86 262.5,-88.86 318.5,-88.86 318.5,-69.86 262.5,-69.86"/>
<text text-anchor="middle" x="290.5" y="-76.86" font-family="Helvetica,sans-Serif" font-size="10.00">uint32_t</text>
</a>
</g>
</g>
<!-- Node17&#45;&gt;Node5 -->
<g id="edge38" class="edge">
<title>Node17&#45;&gt;Node5</title>
<path fill="none" stroke="#9a32cd" stroke-dasharray="5,2" d="M328.92,-76.52C477.51,-65.64 1020.54,-29.64 1076,-80.36 1150.48,-148.49 1148.2,-501.83 1147.19,-564.77"/>
<polygon fill="#9a32cd" stroke="#9a32cd" points="328.23,-73.07 318.52,-77.29 328.75,-80.05 328.23,-73.07"/>
<text text-anchor="middle" x="717.5" y="-116.36" font-family="Helvetica,sans-Serif" font-size="10.00"> heartbeat_interval</text>
<text text-anchor="middle" x="717.5" y="-105.36" font-family="Helvetica,sans-Serif" font-size="10.00">intents</text>
<text text-anchor="middle" x="717.5" y="-94.36" font-family="Helvetica,sans-Serif" font-size="10.00">max_shards</text>
<text text-anchor="middle" x="717.5" y="-83.36" font-family="Helvetica,sans-Serif" font-size="10.00">reconnects</text>
<text text-anchor="middle" x="717.5" y="-72.36" font-family="Helvetica,sans-Serif" font-size="10.00">resumes</text>
<text text-anchor="middle" x="717.5" y="-61.36" font-family="Helvetica,sans-Serif" font-size="10.00">shard_id</text>
</g>
<!-- Node17&#45;&gt;Node16 -->
<g id="edge20" class="edge">
<title>Node17&#45;&gt;Node16</title>
<path fill="none" stroke="#9a32cd" stroke-dasharray="5,2" d="M329.03,-80.13C381.09,-81.85 471.88,-87.41 499,-105.36 512.29,-114.16 504.47,-126.52 517,-136.36 561.46,-171.28 591.18,-142.21 639,-172.36 649.12,-178.74 647.01,-185.79 657,-192.36 704.42,-223.59 730.46,-202.31 778,-233.36 810.89,-254.84 839.16,-293.04 851.25,-310.8"/>
<polygon fill="#9a32cd" stroke="#9a32cd" points="328.96,-76.63 318.86,-79.83 328.75,-83.62 328.96,-76.63"/>
<text text-anchor="middle" x="578" y="-208.36" font-family="Helvetica,sans-Serif" font-size="10.00"> cluster_id</text>
<text text-anchor="middle" x="578" y="-197.36" font-family="Helvetica,sans-Serif" font-size="10.00">intents</text>
<text text-anchor="middle" x="578" y="-186.36" font-family="Helvetica,sans-Serif" font-size="10.00">maxclusters</text>
<text text-anchor="middle" x="578" y="-175.36" font-family="Helvetica,sans-Serif" font-size="10.00">numshards</text>
</g>
<!-- Node17&#45;&gt;Node19 -->
<g id="edge30" class="edge">
<title>Node17&#45;&gt;Node19</title>
<path fill="none" stroke="#9a32cd" stroke-dasharray="5,2" d="M328.79,-89.56C344.02,-93.65 361.83,-98.34 378,-102.36 431.57,-115.68 460.14,-91.16 499,-130.36 524.96,-156.55 493.12,-183.26 517,-211.36 524.63,-220.34 536.09,-225.99 546.96,-229.53"/>
<polygon fill="#9a32cd" stroke="#9a32cd" points="329.28,-86.07 318.71,-86.84 327.45,-92.83 329.28,-86.07"/>
<text text-anchor="middle" x="438.5" y="-133.36" font-family="Helvetica,sans-Serif" font-size="10.00"> flags</text>
</g>
<!-- Node17&#45;&gt;Node34 -->
<g id="edge50" class="edge">
<title>Node17&#45;&gt;Node34</title>
<path fill="none" stroke="#9a32cd" stroke-dasharray="5,2" d="M317.57,-65.04C334.32,-56.58 356.82,-46.54 378,-41.36 424.25,-30.07 478.22,-27.15 518.28,-26.88"/>
<polygon fill="#9a32cd" stroke="#9a32cd" points="315.69,-62.08 308.43,-69.8 318.92,-68.29 315.69,-62.08"/>
<text text-anchor="middle" x="438.5" y="-44.36" font-family="Helvetica,sans-Serif" font-size="10.00"> flags</text>
</g>
<!-- Node18 -->
<g id="node18" class="node">
<title>Node18</title>
<g id="a_node18"><a xlink:title=" ">
<polygon fill="none" stroke="#bfbfbf" points="553,-534.86 553,-553.86 603,-553.86 603,-534.86 553,-534.86"/>
<text text-anchor="middle" x="578" y="-541.86" font-family="Helvetica,sans-Serif" font-size="10.00">double</text>
</a>
</g>
</g>
<!-- Node18&#45;&gt;Node5 -->
<g id="edge44" class="edge">
<title>Node18&#45;&gt;Node5</title>
<path fill="none" stroke="#9a32cd" stroke-dasharray="5,2" d="M613.3,-546.17C708.84,-551.22 978.58,-565.47 1093.77,-571.55"/>
<polygon fill="#9a32cd" stroke="#9a32cd" points="613.21,-542.66 603.04,-545.63 612.84,-549.65 613.21,-542.66"/>
<text text-anchor="middle" x="858.5" y="-565.36" font-family="Helvetica,sans-Serif" font-size="10.00"> websocket_ping</text>
</g>
<!-- Node18&#45;&gt;Node16 -->
<g id="edge21" class="edge">
<title>Node18&#45;&gt;Node16</title>
<path fill="none" stroke="#9a32cd" stroke-dasharray="5,2" d="M613.36,-540.86C666.86,-535.12 765.29,-523.38 778,-513.36 839.2,-465.14 853.68,-361.79 856.74,-329.92"/>
<polygon fill="#9a32cd" stroke="#9a32cd" points="612.88,-537.39 603.3,-541.92 613.61,-544.35 612.88,-537.39"/>
<text text-anchor="middle" x="717.5" y="-539.36" font-family="Helvetica,sans-Serif" font-size="10.00"> rest_ping</text>
</g>
<!-- Node19&#45;&gt;Node16 -->
<g id="edge22" class="edge">
<title>Node19&#45;&gt;Node16</title>
<path fill="none" stroke="#9a32cd" stroke-dasharray="5,2" d="M619.4,-234.76C660.7,-235.47 726,-240.34 778,-261.36 806.36,-272.83 833.72,-296.87 847.76,-310.46"/>
<polygon fill="#9a32cd" stroke="#9a32cd" points="619.22,-231.26 609.18,-234.66 619.15,-238.26 619.22,-231.26"/>
<text text-anchor="middle" x="717.5" y="-264.36" font-family="Helvetica,sans-Serif" font-size="10.00"> me</text>
</g>
<!-- Node20&#45;&gt;Node19 -->
<g id="edge23" class="edge">
<title>Node20&#45;&gt;Node19</title>
<path fill="none" stroke="midnightblue" d="M338.86,-317.73C384.14,-325.73 452.25,-329.96 499,-297.36 516,-285.51 501.71,-268.34 517,-254.36 525.23,-246.84 536.42,-242.3 546.92,-239.55"/>
<polygon fill="midnightblue" stroke="midnightblue" points="339.47,-314.29 328.99,-315.87 338.17,-321.17 339.47,-314.29"/>
</g>
<!-- Node21 -->
<g id="node21" class="node">
<title>Node21</title>
<g id="a_node21"><a xlink:href="structdpp_1_1json__interface.html" target="_top" xlink:title=" ">
<polygon fill="none" stroke="black" points="235.5,-120.36 235.5,-150.36 345.5,-150.36 345.5,-120.36 235.5,-120.36"/>
<text text-anchor="start" x="243.5" y="-138.36" font-family="Helvetica,sans-Serif" font-size="10.00">dpp::json_interface</text>
<text text-anchor="middle" x="290.5" y="-127.36" font-family="Helvetica,sans-Serif" font-size="10.00">&lt; user &gt;</text>
</a>
</g>
</g>
<!-- Node21&#45;&gt;Node19 -->
<g id="edge25" class="edge">
<title>Node21&#45;&gt;Node19</title>
<path fill="none" stroke="midnightblue" d="M356.03,-141.53C408.33,-147.66 476.87,-158.58 499,-175.36 513.25,-186.17 503.84,-199.25 517,-211.36 525.34,-219.03 536.44,-224.39 546.82,-228.06"/>
<polygon fill="midnightblue" stroke="midnightblue" points="356.13,-138.02 345.8,-140.37 355.34,-144.98 356.13,-138.02"/>
</g>
<!-- Node22 -->
<g id="node22" class="node">
<title>Node22</title>
<g id="a_node22"><a xlink:href="structdpp_1_1json__interface.html" target="_top" xlink:title="Represents an interface for an object that can optionally implement functions for converting to and f...">
<polygon fill="none" stroke="black" points="0,-125.86 0,-144.86 138,-144.86 138,-125.86 0,-125.86"/>
<text text-anchor="middle" x="69" y="-132.86" font-family="Helvetica,sans-Serif" font-size="10.00">dpp::json_interface&lt; T &gt;</text>
</a>
</g>
</g>
<!-- Node22&#45;&gt;Node21 -->
<g id="edge26" class="edge">
<title>Node22&#45;&gt;Node21</title>
<path fill="none" stroke="orange" stroke-dasharray="5,2" d="M148.28,-135.36C177.07,-135.36 209.01,-135.36 235.22,-135.36"/>
<polygon fill="orange" stroke="orange" points="148.25,-131.86 138.25,-135.36 148.25,-138.86 148.25,-131.86"/>
<text text-anchor="middle" x="179.5" y="-138.36" font-family="Helvetica,sans-Serif" font-size="10.00"> &lt; user &gt;</text>
</g>
<!-- Node23&#45;&gt;Node19 -->
<g id="edge28" class="edge">
<title>Node23&#45;&gt;Node19</title>
<path fill="none" stroke="#9a32cd" stroke-dasharray="5,2" d="M360.18,-177.65C401.5,-178.64 454.53,-183.53 499,-199.36 508.06,-202.59 508.49,-206.89 517,-211.36 527.33,-216.79 539.16,-221.77 549.58,-225.77"/>
<polygon fill="#9a32cd" stroke="#9a32cd" points="360,-174.15 349.94,-177.48 359.88,-181.14 360,-174.15"/>
<text text-anchor="middle" x="438.5" y="-202.36" font-family="Helvetica,sans-Serif" font-size="10.00"> avatar</text>
</g>
<!-- Node24 -->
<g id="node24" class="node">
<title>Node24</title>
<g id="a_node24"><a xlink:title=" ">
<polygon fill="none" stroke="#bfbfbf" points="262.5,-245.86 262.5,-264.86 318.5,-264.86 318.5,-245.86 262.5,-245.86"/>
<text text-anchor="middle" x="290.5" y="-252.86" font-family="Helvetica,sans-Serif" font-size="10.00">uint16_t</text>
</a>
</g>
</g>
<!-- Node24&#45;&gt;Node19 -->
<g id="edge31" class="edge">
<title>Node24&#45;&gt;Node19</title>
<path fill="none" stroke="#9a32cd" stroke-dasharray="5,2" d="M328.66,-252.76C385.75,-248.76 493.96,-241.18 546.65,-237.49"/>
<polygon fill="#9a32cd" stroke="#9a32cd" points="328.35,-249.27 318.62,-253.46 328.84,-256.26 328.35,-249.27"/>
<text text-anchor="middle" x="438.5" y="-252.36" font-family="Helvetica,sans-Serif" font-size="10.00"> discriminator</text>
</g>
<!-- Node25 -->
<g id="node25" class="node">
<title>Node25</title>
<g id="a_node25"><a xlink:title=" ">
<polygon fill="none" stroke="#bfbfbf" points="265.5,-207.86 265.5,-226.86 315.5,-226.86 315.5,-207.86 265.5,-207.86"/>
<text text-anchor="middle" x="290.5" y="-214.86" font-family="Helvetica,sans-Serif" font-size="10.00">uint8_t</text>
</a>
</g>
</g>
<!-- Node25&#45;&gt;Node19 -->
<g id="edge32" class="edge">
<title>Node25&#45;&gt;Node19</title>
<path fill="none" stroke="#9a32cd" stroke-dasharray="5,2" d="M325.61,-215.35C366.83,-213.41 438.22,-211.67 499,-218.36 514.98,-220.12 532.49,-223.78 546.87,-227.25"/>
<polygon fill="#9a32cd" stroke="#9a32cd" points="325.37,-211.85 315.56,-215.85 325.72,-218.84 325.37,-211.85"/>
<text text-anchor="middle" x="438.5" y="-221.36" font-family="Helvetica,sans-Serif" font-size="10.00"> refcount</text>
</g>
<!-- Node26 -->
<g id="node26" class="node">
<title>Node26</title>
<g id="a_node26"><a xlink:href="structdpp_1_1cache__policy__t.html" target="_top" xlink:title="Represents the caching policy of the cluster.">
<polygon fill="none" stroke="black" points="521.5,-301.86 521.5,-320.86 634.5,-320.86 634.5,-301.86 521.5,-301.86"/>
<text text-anchor="middle" x="578" y="-308.86" font-family="Helvetica,sans-Serif" font-size="10.00">dpp::cache_policy_t</text>
</a>
</g>
</g>
<!-- Node26&#45;&gt;Node16 -->
<g id="edge33" class="edge">
<title>Node26&#45;&gt;Node16</title>
<path fill="none" stroke="#9a32cd" stroke-dasharray="5,2" d="M644.96,-307.4C683.75,-305.81 733.72,-305.04 778,-308.36 792.2,-309.43 807.7,-311.55 821.22,-313.72"/>
<polygon fill="#9a32cd" stroke="#9a32cd" points="644.67,-303.91 634.84,-307.84 644.98,-310.9 644.67,-303.91"/>
<text text-anchor="middle" x="717.5" y="-311.36" font-family="Helvetica,sans-Serif" font-size="10.00"> cache_policy</text>
</g>
<!-- Node27 -->
<g id="node27" class="node">
<title>Node27</title>
<g id="a_node27"><a xlink:title=" ">
<polygon fill="none" stroke="#bfbfbf" points="226.5,-334.86 226.5,-353.86 354.5,-353.86 354.5,-334.86 226.5,-334.86"/>
<text text-anchor="middle" x="290.5" y="-341.86" font-family="Helvetica,sans-Serif" font-size="10.00">cache_policy_setting_t</text>
</a>
</g>
</g>
<!-- Node27&#45;&gt;Node26 -->
<g id="edge34" class="edge">
<title>Node27&#45;&gt;Node26</title>
<path fill="none" stroke="#9a32cd" stroke-dasharray="5,2" d="M364.81,-337.21C404.56,-333.18 454.52,-327.86 499,-322.36 506.19,-321.47 513.75,-320.48 521.22,-319.47"/>
<polygon fill="#9a32cd" stroke="#9a32cd" points="364.27,-333.75 354.68,-338.23 364.98,-340.71 364.27,-333.75"/>
<text text-anchor="middle" x="438.5" y="-361.36" font-family="Helvetica,sans-Serif" font-size="10.00"> emoji_policy</text>
<text text-anchor="middle" x="438.5" y="-350.36" font-family="Helvetica,sans-Serif" font-size="10.00">role_policy</text>
<text text-anchor="middle" x="438.5" y="-339.36" font-family="Helvetica,sans-Serif" font-size="10.00">user_policy</text>
</g>
<!-- Node28 -->
<g id="node28" class="node">
<title>Node28</title>
<g id="a_node28"><a xlink:title=" ">
<polygon fill="none" stroke="#bfbfbf" points="517,-107.86 517,-126.86 639,-126.86 639,-107.86 517,-107.86"/>
<text text-anchor="middle" x="578" y="-114.86" font-family="Helvetica,sans-Serif" font-size="10.00">websocket_protocol_t</text>
</a>
</g>
</g>
<!-- Node28&#45;&gt;Node5 -->
<g id="edge45" class="edge">
<title>Node28&#45;&gt;Node5</title>
<path fill="none" stroke="#9a32cd" stroke-dasharray="5,2" d="M634.45,-129C691.01,-140.96 771.41,-158.27 778,-161.36 929.72,-232.51 975.7,-258.12 1076,-392.36 1118.83,-449.69 1139.29,-536.16 1145.16,-564.78"/>
<polygon fill="#9a32cd" stroke="#9a32cd" points="635.05,-125.55 624.54,-126.9 633.6,-132.4 635.05,-125.55"/>
<text text-anchor="middle" x="858.5" y="-238.36" font-family="Helvetica,sans-Serif" font-size="10.00"> protocol</text>
</g>
<!-- Node28&#45;&gt;Node16 -->
<g id="edge35" class="edge">
<title>Node28&#45;&gt;Node16</title>
<path fill="none" stroke="#9a32cd" stroke-dasharray="5,2" d="M618.78,-130.81C625.75,-133.85 632.76,-137.37 639,-141.36 648.27,-147.29 647.2,-153.36 657,-158.36 705.75,-183.27 733.43,-149.58 778,-181.36 790.05,-189.96 837.08,-280.48 852.54,-310.64"/>
<polygon fill="#9a32cd" stroke="#9a32cd" points="619.96,-127.51 609.38,-126.97 617.32,-133.99 619.96,-127.51"/>
<text text-anchor="middle" x="717.5" y="-184.36" font-family="Helvetica,sans-Serif" font-size="10.00"> ws_mode</text>
</g>
<!-- Node29 -->
<g id="node29" class="node">
<title>Node29</title>
<g id="a_node29"><a xlink:title=" ">
<polygon fill="none" stroke="#bfbfbf" points="524.5,-263.86 524.5,-282.86 631.5,-282.86 631.5,-263.86 524.5,-263.86"/>
<text text-anchor="middle" x="578" y="-270.86" font-family="Helvetica,sans-Serif" font-size="10.00">condition_variable</text>
</a>
</g>
</g>
<!-- Node29&#45;&gt;Node16 -->
<g id="edge36" class="edge">
<title>Node29&#45;&gt;Node16</title>
<path fill="none" stroke="#9a32cd" stroke-dasharray="5,2" d="M641.55,-274.87C681.08,-276.83 733,-281.3 778,-291.36 798.22,-295.88 820.28,-304.22 836.02,-310.8"/>
<polygon fill="#9a32cd" stroke="#9a32cd" points="641.68,-271.37 631.53,-274.41 641.36,-278.36 641.68,-271.37"/>
<text text-anchor="middle" x="717.5" y="-294.36" font-family="Helvetica,sans-Serif" font-size="10.00"> terminating</text>
</g>
<!-- Node30 -->
<g id="node30" class="node">
<title>Node30</title>
<g id="a_node30"><a xlink:title=" ">
<polygon fill="none" stroke="#bfbfbf" points="530,-386.86 530,-405.86 626,-405.86 626,-386.86 530,-386.86"/>
<text text-anchor="middle" x="578" y="-393.86" font-family="Helvetica,sans-Serif" font-size="10.00">event_router_t&lt;</text>
</a>
</g>
</g>
<!-- Node30&#45;&gt;Node16 -->
<g id="edge37" class="edge">
<title>Node30&#45;&gt;Node16</title>
<path fill="none" stroke="#9a32cd" stroke-dasharray="5,2" d="M611.14,-383.02C625.06,-377.61 641.66,-371.64 657,-367.36 709.73,-352.66 724.83,-357.4 778,-344.36 794.94,-340.21 813.63,-334.62 828.63,-329.88"/>
<polygon fill="#9a32cd" stroke="#9a32cd" points="609.54,-379.89 601.53,-386.83 612.12,-386.4 609.54,-379.89"/>
<text text-anchor="middle" x="717.5" y="-480.36" font-family="Helvetica,sans-Serif" font-size="10.00"> on_autocomplete</text>
<text text-anchor="middle" x="717.5" y="-469.36" font-family="Helvetica,sans-Serif" font-size="10.00">on_button_click</text>
<text text-anchor="middle" x="717.5" y="-458.36" font-family="Helvetica,sans-Serif" font-size="10.00">on_channel_create</text>
<text text-anchor="middle" x="717.5" y="-447.36" font-family="Helvetica,sans-Serif" font-size="10.00">on_channel_delete</text>
<text text-anchor="middle" x="717.5" y="-436.36" font-family="Helvetica,sans-Serif" font-size="10.00">on_channel_pins_update</text>
<text text-anchor="middle" x="717.5" y="-425.36" font-family="Helvetica,sans-Serif" font-size="10.00">on_channel_update</text>
<text text-anchor="middle" x="717.5" y="-414.36" font-family="Helvetica,sans-Serif" font-size="10.00">on_form_submit</text>
<text text-anchor="middle" x="717.5" y="-403.36" font-family="Helvetica,sans-Serif" font-size="10.00">on_guild_ban_add</text>
<text text-anchor="middle" x="717.5" y="-392.36" font-family="Helvetica,sans-Serif" font-size="10.00">on_guild_ban_remove</text>
<text text-anchor="middle" x="717.5" y="-381.36" font-family="Helvetica,sans-Serif" font-size="10.00">on_guild_create</text>
<text text-anchor="middle" x="717.5" y="-370.36" font-family="Helvetica,sans-Serif" font-size="10.00">...</text>
</g>
<!-- Node31 -->
<g id="node31" class="node">
<title>Node31</title>
<g id="a_node31"><a xlink:title=" ">
<polygon fill="none" stroke="#bfbfbf" points="802,-132.86 802,-151.86 915,-151.86 915,-132.86 802,-132.86"/>
<text text-anchor="middle" x="858.5" y="-139.86" font-family="Helvetica,sans-Serif" font-size="10.00">native_handle_type</text>
</a>
</g>
</g>
<!-- Node31&#45;&gt;Node5 -->
<g id="edge40" class="edge">
<title>Node31&#45;&gt;Node5</title>
<path fill="none" stroke="#9a32cd" stroke-dasharray="5,2" d="M912.24,-131.24C961.11,-124.26 1032.59,-123.07 1076,-163.36 1137.16,-220.14 1145.74,-507.87 1146.85,-564.63"/>
<polygon fill="#9a32cd" stroke="#9a32cd" points="911.52,-127.81 902.18,-132.8 912.6,-134.72 911.52,-127.81"/>
<text text-anchor="middle" x="1007.5" y="-166.36" font-family="Helvetica,sans-Serif" font-size="10.00"> thread_id</text>
</g>
<!-- Node32 -->
<g id="node32" class="node">
<title>Node32</title>
<g id="a_node32"><a xlink:title=" ">
<polygon fill="none" stroke="#bfbfbf" points="824,-94.86 824,-113.86 893,-113.86 893,-94.86 824,-94.86"/>
<text text-anchor="middle" x="858.5" y="-101.86" font-family="Helvetica,sans-Serif" font-size="10.00">std::mutex</text>
</a>
</g>
</g>
<!-- Node32&#45;&gt;Node5 -->
<g id="edge43" class="edge">
<title>Node32&#45;&gt;Node5</title>
<path fill="none" stroke="#9a32cd" stroke-dasharray="5,2" d="M899.92,-92.37C948.14,-80.79 1028.23,-70.63 1076,-113.36 1146.01,-175.99 1147.44,-503.72 1147.09,-564.62"/>
<polygon fill="#9a32cd" stroke="#9a32cd" points="898.97,-89 890.14,-94.84 900.69,-95.78 898.97,-89"/>
<text text-anchor="middle" x="1007.5" y="-116.36" font-family="Helvetica,sans-Serif" font-size="10.00"> voice_mutex</text>
</g>
<!-- Node33 -->
<g id="node33" class="node">
<title>Node33</title>
<g id="a_node33"><a xlink:title=" ">
<polygon fill="none" stroke="#bfbfbf" points="808,-834.86 808,-853.86 909,-853.86 909,-834.86 808,-834.86"/>
<text text-anchor="middle" x="858.5" y="-841.86" font-family="Helvetica,sans-Serif" font-size="10.00">unordered_map&lt;</text>
</a>
</g>
</g>
<!-- Node33&#45;&gt;Node5 -->
<g id="edge46" class="edge">
<title>Node33&#45;&gt;Node5</title>
<path fill="none" stroke="#9a32cd" stroke-dasharray="5,2" d="M919.6,-854.39C967.41,-858.81 1033.16,-856.46 1076,-820.36 1113.9,-788.43 1139.65,-625.46 1145.65,-583.98"/>
<polygon fill="#9a32cd" stroke="#9a32cd" points="919.7,-850.89 909.39,-853.32 918.97,-857.85 919.7,-850.89"/>
<text text-anchor="middle" x="1007.5" y="-858.36" font-family="Helvetica,sans-Serif" font-size="10.00"> connecting_voice_channels</text>
</g>
<!-- Node34&#45;&gt;Node1 -->
<g id="edge47" class="edge">
<title>Node34&#45;&gt;Node1</title>
<path fill="none" stroke="#9a32cd" stroke-dasharray="5,2" d="M647.9,-28.36C704.26,-28.36 786.04,-28.36 857.5,-28.36 857.5,-28.36 857.5,-28.36 1328,-28.36 1360.43,-28.36 1396.52,-30.96 1425.87,-33.73"/>
<polygon fill="#9a32cd" stroke="#9a32cd" points="647.68,-24.86 637.68,-28.36 647.68,-31.86 647.68,-24.86"/>
<text text-anchor="middle" x="1148" y="-31.36" font-family="Helvetica,sans-Serif" font-size="10.00"> updated</text>
</g>
</g>
</svg>
        <g id="navigator" transform="translate(0 0)" fill="#404254">
                <rect fill="#f2f5e9" fill-opacity="0.5" stroke="#606060" stroke-width=".5" x="0" y="0" width="60" height="60"/>
                <use id="zoomplus" xlink:href="#zoomPlus" x="17" y="9" onmousedown="handleZoom(evt,'in')"/>
                <use id="zoomminus" xlink:href="#zoomMin" x="42" y="9" onmousedown="handleZoom(evt,'out')"/>
                <use id="reset" xlink:href="#resetDef" x="30" y="36" onmousedown="handleReset()"/>
                <g id="arrowUp" xlink:href="#dirArrow" transform="translate(30 24)" onmousedown="handlePan(0,-1)">
                  <use xlink:href="#rim" fill="#404040">
                        <set attributeName="fill" to="#808080" begin="arrowUp.mouseover" end="arrowUp.mouseout"/>
                  </use>
                  <path fill="none" stroke="white" stroke-width="1.5" d="M0,-3.0v7 M-2.5,-0.5L0,-3.0L2.5,-0.5"/>
                </g>
                <g id="arrowRight" xlink:href="#dirArrow" transform="rotate(90) translate(36 -43)" onmousedown="handlePan(1,0)">
                  <use xlink:href="#rim" fill="#404040">
                        <set attributeName="fill" to="#808080" begin="arrowRight.mouseover" end="arrowRight.mouseout"/>
                  </use>
                  <path fill="none" stroke="white" stroke-width="1.5" d="M0,-3.0v7 M-2.5,-0.5L0,-3.0L2.5,-0.5"/>
                </g>
                <g id="arrowDown" xlink:href="#dirArrow" transform="rotate(180) translate(-30 -48)" onmousedown="handlePan(0,1)">
                  <use xlink:href="#rim" fill="#404040">
                        <set attributeName="fill" to="#808080" begin="arrowDown.mouseover" end="arrowDown.mouseout"/>
                  </use>
                  <path fill="none" stroke="white" stroke-width="1.5" d="M0,-3.0v7 M-2.5,-0.5L0,-3.0L2.5,-0.5"/>
                </g>
                <g id="arrowLeft" xlink:href="#dirArrow" transform="rotate(270) translate(-36 17)" onmousedown="handlePan(-1,0)">
                  <use xlink:href="#rim" fill="#404040">
                        <set attributeName="fill" to="#808080" begin="arrowLeft.mouseover" end="arrowLeft.mouseout"/>
                  </use>
                  <path fill="none" stroke="white" stroke-width="1.5" d="M0,-3.0v7 M-2.5,-0.5L0,-3.0L2.5,-0.5"/>
                </g>
        </g>
        <svg viewBox="0 0 15 15" width="100%" height="30px" preserveAspectRatio="xMaxYMin meet">
         <g id="arrow_out" transform="scale(0.3 0.3)">
          <a xlink:href="structdpp_1_1thread__member__update__t__coll__graph_org.svg" target="_base">
           <rect id="button" ry="5" rx="5" y="6" x="6" height="38" width="38"
                fill="#f2f5e9" fill-opacity="0.5" stroke="#606060" stroke-width="1.0"/>
           <path id="arrow"
             d="M 11.500037,31.436501 C 11.940474,20.09759 22.043105,11.32322 32.158766,21.979434 L 37.068811,17.246167 C 37.068811,17.246167 37.088388,32 37.088388,32 L 22.160133,31.978069 C 22.160133,31.978069 26.997745,27.140456 26.997745,27.140456 C 18.528582,18.264221 13.291696,25.230495 11.500037,31.436501 z"
             style="fill:#404040;"/>
          </a>
         </g>
        </svg>
</svg>
