<?xml version="1.0" encoding="UTF-8" standalone="no"?>
<!DOCTYPE svg PUBLIC "-//W3C//DTD SVG 1.1//EN"
 "http://www.w3.org/Graphics/SVG/1.1/DTD/svg11.dtd">
<!-- Generated by graphviz version 2.43.0 (0)
 -->
<!-- Title: dpp::presence_update_t Pages: 1 -->
<svg width="1590pt" height="1171pt"
 viewBox="0.00 0.00 1590.00 1170.50" xmlns="http://www.w3.org/2000/svg" xmlns:xlink="http://www.w3.org/1999/xlink">
<g id="graph0" class="graph" transform="scale(1 1) rotate(0) translate(4 1166.5)">
<title>dpp::presence_update_t</title>
<!-- Node1 -->
<g id="node1" class="node">
<title>Node1</title>
<g id="a_node1"><a xlink:title="Presence update.">
<polygon fill="#bfbfbf" stroke="black" points="1449,-109 1449,-128 1582,-128 1582,-109 1449,-109"/>
<text text-anchor="middle" x="1515.5" y="-116" font-family="Helvetica,sans-Serif" font-size="10.00">dpp::presence_update_t</text>
</a>
</g>
</g>
<!-- Node2 -->
<g id="node2" class="node">
<title>Node2</title>
<g id="a_node2"><a xlink:href="structdpp_1_1event__dispatch__t.html" target="_top" xlink:title="Base event parameter struct. Each event you receive from the library will have its parameter derived ...">
<polygon fill="none" stroke="black" points="1288,-145 1288,-164 1412,-164 1412,-145 1288,-145"/>
<text text-anchor="middle" x="1350" y="-152" font-family="Helvetica,sans-Serif" font-size="10.00">dpp::event_dispatch_t</text>
</a>
</g>
</g>
<!-- Node2&#45;&gt;Node1 -->
<g id="edge1" class="edge">
<title>Node2&#45;&gt;Node1</title>
<path fill="none" stroke="midnightblue" d="M1404.41,-142.74C1426.05,-137.98 1450.71,-132.55 1471.2,-128.03"/>
<polygon fill="midnightblue" stroke="midnightblue" points="1403.4,-139.38 1394.39,-144.95 1404.9,-146.21 1403.4,-139.38"/>
</g>
<!-- Node3 -->
<g id="node3" class="node">
<title>Node3</title>
<g id="a_node3"><a xlink:title=" ">
<polygon fill="none" stroke="#bfbfbf" points="281,-250 281,-269 346,-269 346,-250 281,-250"/>
<text text-anchor="middle" x="313.5" y="-257" font-family="Helvetica,sans-Serif" font-size="10.00">std::string</text>
</a>
</g>
</g>
<!-- Node3&#45;&gt;Node2 -->
<g id="edge2" class="edge">
<title>Node3&#45;&gt;Node2</title>
<path fill="none" stroke="#9a32cd" stroke-dasharray="5,2" d="M341.56,-244.69C355.07,-236.42 371.04,-225.22 383,-212.5 393.65,-201.18 388.04,-191.09 401,-182.5 475.46,-133.17 510.68,-154.5 600,-154.5 600,-154.5 600,-154.5 1172,-154.5 1210.57,-154.5 1253.86,-154.5 1287.97,-154.5"/>
<polygon fill="#9a32cd" stroke="#9a32cd" points="339.51,-241.84 332.68,-249.93 343.07,-247.86 339.51,-241.84"/>
<text text-anchor="middle" x="881.5" y="-157.5" font-family="Helvetica,sans-Serif" font-size="10.00"> raw_event</text>
</g>
<!-- Node5 -->
<g id="node5" class="node">
<title>Node5</title>
<g id="a_node5"><a xlink:href="classdpp_1_1discord__client.html" target="_top" xlink:title="Implements a discord client. Each discord_client connects to one shard and derives from a websocket c...">
<polygon fill="none" stroke="black" points="1117,-772 1117,-791 1225,-791 1225,-772 1117,-772"/>
<text text-anchor="middle" x="1171" y="-779" font-family="Helvetica,sans-Serif" font-size="10.00">dpp::discord_client</text>
</a>
</g>
</g>
<!-- Node3&#45;&gt;Node5 -->
<g id="edge42" class="edge">
<title>Node3&#45;&gt;Node5</title>
<path fill="none" stroke="#9a32cd" stroke-dasharray="5,2" d="M356.15,-253.19C458.45,-238.33 719.63,-204.53 801,-233.5 962,-290.82 1008.55,-331.5 1099,-476.5 1162.73,-578.68 1169.33,-732.37 1169.95,-771.94"/>
<polygon fill="#9a32cd" stroke="#9a32cd" points="355.57,-249.73 346.18,-254.65 356.59,-256.66 355.57,-249.73"/>
<text text-anchor="middle" x="740.5" y="-247.5" font-family="Helvetica,sans-Serif" font-size="10.00"> sessionid</text>
<text text-anchor="middle" x="740.5" y="-236.5" font-family="Helvetica,sans-Serif" font-size="10.00">token</text>
</g>
<!-- Node7 -->
<g id="node7" class="node">
<title>Node7</title>
<g id="a_node7"><a xlink:href="classdpp_1_1ssl__client.html" target="_top" xlink:title="Implements a simple non&#45;blocking SSL stream client.">
<polygon fill="none" stroke="black" points="558,-920 558,-939 644,-939 644,-920 558,-920"/>
<text text-anchor="middle" x="601" y="-927" font-family="Helvetica,sans-Serif" font-size="10.00">dpp::ssl_client</text>
</a>
</g>
</g>
<!-- Node3&#45;&gt;Node7 -->
<g id="edge7" class="edge">
<title>Node3&#45;&gt;Node7</title>
<path fill="none" stroke="#9a32cd" stroke-dasharray="5,2" d="M355.47,-272.78C366.08,-278.18 376.37,-285.56 383,-295.5 407.77,-332.62 387.85,-452.86 401,-495.5 433.55,-601.02 486.47,-607.95 522,-712.5 539.63,-764.39 520.95,-783.11 540,-834.5 552.68,-868.71 578.85,-903.63 592.04,-919.97"/>
<polygon fill="#9a32cd" stroke="#9a32cd" points="356.7,-269.5 346.15,-268.54 353.79,-275.87 356.7,-269.5"/>
<text text-anchor="middle" x="461.5" y="-759.5" font-family="Helvetica,sans-Serif" font-size="10.00"> buffer</text>
<text text-anchor="middle" x="461.5" y="-748.5" font-family="Helvetica,sans-Serif" font-size="10.00">cipher</text>
<text text-anchor="middle" x="461.5" y="-737.5" font-family="Helvetica,sans-Serif" font-size="10.00">hostname</text>
<text text-anchor="middle" x="461.5" y="-726.5" font-family="Helvetica,sans-Serif" font-size="10.00">obuffer</text>
<text text-anchor="middle" x="461.5" y="-715.5" font-family="Helvetica,sans-Serif" font-size="10.00">port</text>
</g>
<!-- Node16 -->
<g id="node16" class="node">
<title>Node16</title>
<g id="a_node16"><a xlink:href="classdpp_1_1cluster.html" target="_top" xlink:title="The cluster class represents a group of shards and a command queue for sending and receiving commands...">
<polygon fill="none" stroke="black" points="844.5,-440 844.5,-459 918.5,-459 918.5,-440 844.5,-440"/>
<text text-anchor="middle" x="881.5" y="-447" font-family="Helvetica,sans-Serif" font-size="10.00">dpp::cluster</text>
</a>
</g>
</g>
<!-- Node3&#45;&gt;Node16 -->
<g id="edge18" class="edge">
<title>Node3&#45;&gt;Node16</title>
<path fill="none" stroke="#9a32cd" stroke-dasharray="5,2" d="M356.3,-270.6C370.42,-274.09 386.33,-277.76 401,-280.5 489.14,-296.99 724.6,-286.57 801,-333.5 843.23,-359.44 868.48,-417.18 877.12,-439.98"/>
<polygon fill="#9a32cd" stroke="#9a32cd" points="356.92,-267.14 346.37,-268.1 355.21,-273.93 356.92,-267.14"/>
<text text-anchor="middle" x="601" y="-302.5" font-family="Helvetica,sans-Serif" font-size="10.00"> token</text>
</g>
<!-- Node19 -->
<g id="node19" class="node">
<title>Node19</title>
<g id="a_node19"><a xlink:href="classdpp_1_1user.html" target="_top" xlink:title="Represents a user on discord. May or may not be a member of a dpp::guild.">
<polygon fill="none" stroke="black" points="570,-344 570,-363 632,-363 632,-344 570,-344"/>
<text text-anchor="middle" x="601" y="-351" font-family="Helvetica,sans-Serif" font-size="10.00">dpp::user</text>
</a>
</g>
</g>
<!-- Node3&#45;&gt;Node19 -->
<g id="edge27" class="edge">
<title>Node3&#45;&gt;Node19</title>
<path fill="none" stroke="#9a32cd" stroke-dasharray="5,2" d="M341.93,-273.73C354.48,-280.29 369.53,-288.22 383,-295.5 391.05,-299.85 392.37,-302.45 401,-305.5 452.47,-323.68 469.15,-312.86 522,-326.5 540.32,-331.23 560.48,-338.26 575.72,-343.96"/>
<polygon fill="#9a32cd" stroke="#9a32cd" points="343.36,-270.53 332.88,-269.01 340.13,-276.74 343.36,-270.53"/>
<text text-anchor="middle" x="461.5" y="-329.5" font-family="Helvetica,sans-Serif" font-size="10.00"> username</text>
</g>
<!-- Node4 -->
<g id="node4" class="node">
<title>Node4</title>
<g id="a_node4"><a xlink:title=" ">
<polygon fill="none" stroke="#bfbfbf" points="17,-58.5 17,-88.5 121,-88.5 121,-58.5 17,-58.5"/>
<text text-anchor="start" x="25" y="-76.5" font-family="Helvetica,sans-Serif" font-size="10.00">std::basic_string&lt;</text>
<text text-anchor="middle" x="69" y="-65.5" font-family="Helvetica,sans-Serif" font-size="10.00"> Char &gt;</text>
</a>
</g>
</g>
<!-- Node4&#45;&gt;Node3 -->
<g id="edge3" class="edge">
<title>Node4&#45;&gt;Node3</title>
<path fill="none" stroke="midnightblue" d="M131.3,-66.02C163.65,-65.63 201.59,-71.39 226,-95.5 263.43,-132.47 216.01,-167.95 244,-212.5 254.82,-229.72 274.5,-242.23 290,-249.99"/>
<polygon fill="midnightblue" stroke="midnightblue" points="130.9,-62.53 121.02,-66.35 131.13,-69.53 130.9,-62.53"/>
</g>
<!-- Node5&#45;&gt;Node2 -->
<g id="edge4" class="edge">
<title>Node5&#45;&gt;Node2</title>
<path fill="none" stroke="#9a32cd" stroke-dasharray="5,2" d="M1177.53,-761.92C1205,-664.62 1326.3,-234.91 1346.23,-164.33"/>
<polygon fill="#9a32cd" stroke="#9a32cd" points="1174.13,-761.08 1174.78,-771.65 1180.87,-762.98 1174.13,-761.08"/>
<text text-anchor="middle" x="1256.5" y="-526.5" font-family="Helvetica,sans-Serif" font-size="10.00"> from</text>
</g>
<!-- Node6 -->
<g id="node6" class="node">
<title>Node6</title>
<g id="a_node6"><a xlink:href="classdpp_1_1websocket__client.html" target="_top" xlink:title="Implements a websocket client based on the SSL client.">
<polygon fill="none" stroke="black" points="819,-924 819,-943 944,-943 944,-924 819,-924"/>
<text text-anchor="middle" x="881.5" y="-931" font-family="Helvetica,sans-Serif" font-size="10.00">dpp::websocket_client</text>
</a>
</g>
</g>
<!-- Node6&#45;&gt;Node5 -->
<g id="edge5" class="edge">
<title>Node6&#45;&gt;Node5</title>
<path fill="none" stroke="midnightblue" d="M954.06,-943.21C999.19,-945.61 1056.72,-941.49 1099,-913.5 1143.7,-883.91 1162.43,-816.47 1168.05,-791.25"/>
<polygon fill="midnightblue" stroke="midnightblue" points="954.26,-939.71 944.05,-942.56 953.8,-946.7 954.26,-939.71"/>
</g>
<!-- Node7&#45;&gt;Node6 -->
<g id="edge6" class="edge">
<title>Node7&#45;&gt;Node6</title>
<path fill="none" stroke="midnightblue" d="M654.51,-930.25C701.24,-930.93 769.62,-931.91 818.91,-932.62"/>
<polygon fill="midnightblue" stroke="midnightblue" points="654.35,-926.75 644.3,-930.11 654.25,-933.75 654.35,-926.75"/>
</g>
<!-- Node8 -->
<g id="node8" class="node">
<title>Node8</title>
<g id="a_node8"><a xlink:title=" ">
<polygon fill="none" stroke="#bfbfbf" points="294.5,-1068 294.5,-1087 332.5,-1087 332.5,-1068 294.5,-1068"/>
<text text-anchor="middle" x="313.5" y="-1075" font-family="Helvetica,sans-Serif" font-size="10.00">bool</text>
</a>
</g>
</g>
<!-- Node8&#45;&gt;Node5 -->
<g id="edge16" class="edge">
<title>Node8&#45;&gt;Node5</title>
<path fill="none" stroke="#9a32cd" stroke-dasharray="5,2" d="M342.64,-1081.84C453.64,-1097.28 866.44,-1138.71 1099,-942.5 1148.03,-901.13 1164.4,-819.29 1168.7,-791.22"/>
<polygon fill="#9a32cd" stroke="#9a32cd" points="342.97,-1078.35 332.57,-1080.39 341.97,-1085.28 342.97,-1078.35"/>
<text text-anchor="middle" x="740.5" y="-1104.5" font-family="Helvetica,sans-Serif" font-size="10.00"> ready</text>
<text text-anchor="middle" x="740.5" y="-1093.5" font-family="Helvetica,sans-Serif" font-size="10.00">terminating</text>
</g>
<!-- Node8&#45;&gt;Node7 -->
<g id="edge8" class="edge">
<title>Node8&#45;&gt;Node7</title>
<path fill="none" stroke="#9a32cd" stroke-dasharray="5,2" d="M341.93,-1065.2C358.72,-1058.05 380.78,-1049.34 401,-1043.5 453.59,-1028.31 474.63,-1047.94 522,-1020.5 557.11,-1000.16 583.99,-958.01 594.81,-939.07"/>
<polygon fill="#9a32cd" stroke="#9a32cd" points="340.5,-1062 332.71,-1069.19 343.28,-1068.43 340.5,-1062"/>
<text text-anchor="middle" x="461.5" y="-1079.5" font-family="Helvetica,sans-Serif" font-size="10.00"> keepalive</text>
<text text-anchor="middle" x="461.5" y="-1068.5" font-family="Helvetica,sans-Serif" font-size="10.00">make_new</text>
<text text-anchor="middle" x="461.5" y="-1057.5" font-family="Helvetica,sans-Serif" font-size="10.00">nonblocking</text>
<text text-anchor="middle" x="461.5" y="-1046.5" font-family="Helvetica,sans-Serif" font-size="10.00">plaintext</text>
</g>
<!-- Node9 -->
<g id="node9" class="node">
<title>Node9</title>
<g id="a_node9"><a xlink:title=" ">
<polygon fill="none" stroke="#bfbfbf" points="299,-972 299,-991 328,-991 328,-972 299,-972"/>
<text text-anchor="middle" x="313.5" y="-979" font-family="Helvetica,sans-Serif" font-size="10.00">int</text>
</a>
</g>
</g>
<!-- Node9&#45;&gt;Node7 -->
<g id="edge9" class="edge">
<title>Node9&#45;&gt;Node7</title>
<path fill="none" stroke="#9a32cd" stroke-dasharray="5,2" d="M338.12,-976.73C355.49,-973.25 379.69,-968.47 401,-964.5 454.97,-954.45 517.32,-943.61 557.64,-936.7"/>
<polygon fill="#9a32cd" stroke="#9a32cd" points="337.38,-973.3 328.27,-978.71 338.76,-980.17 337.38,-973.3"/>
<text text-anchor="middle" x="461.5" y="-967.5" font-family="Helvetica,sans-Serif" font-size="10.00"> sfd</text>
</g>
<!-- Node10 -->
<g id="node10" class="node">
<title>Node10</title>
<g id="a_node10"><a xlink:href="classdpp_1_1openssl__connection.html" target="_top" xlink:title="This is an opaque class containing openssl library specific structures. We define it this way so that...">
<polygon fill="none" stroke="black" points="245,-934 245,-953 382,-953 382,-934 245,-934"/>
<text text-anchor="middle" x="313.5" y="-941" font-family="Helvetica,sans-Serif" font-size="10.00">dpp::openssl_connection</text>
</a>
</g>
</g>
<!-- Node10&#45;&gt;Node7 -->
<g id="edge10" class="edge">
<title>Node10&#45;&gt;Node7</title>
<path fill="none" stroke="#9a32cd" stroke-dasharray="5,2" d="M380.03,-932.64C387.09,-931.77 394.18,-931.03 401,-930.5 455.08,-926.32 517.67,-926.89 558,-927.96"/>
<polygon fill="#9a32cd" stroke="#9a32cd" points="379.2,-929.22 369.74,-933.99 380.11,-936.16 379.2,-929.22"/>
<text text-anchor="middle" x="461.5" y="-933.5" font-family="Helvetica,sans-Serif" font-size="10.00"> ssl</text>
</g>
<!-- Node11 -->
<g id="node11" class="node">
<title>Node11</title>
<g id="a_node11"><a xlink:title=" ">
<polygon fill="none" stroke="#bfbfbf" points="48,-934 48,-953 90,-953 90,-934 48,-934"/>
<text text-anchor="middle" x="69" y="-941" font-family="Helvetica,sans-Serif" font-size="10.00">SSL *</text>
</a>
</g>
</g>
<!-- Node11&#45;&gt;Node10 -->
<g id="edge11" class="edge">
<title>Node11&#45;&gt;Node10</title>
<path fill="none" stroke="#9a32cd" stroke-dasharray="5,2" d="M100.6,-943.5C136.66,-943.5 197.63,-943.5 244.94,-943.5"/>
<polygon fill="#9a32cd" stroke="#9a32cd" points="100.26,-940 90.26,-943.5 100.26,-947 100.26,-940"/>
<text text-anchor="middle" x="191" y="-946.5" font-family="Helvetica,sans-Serif" font-size="10.00"> ssl</text>
</g>
<!-- Node12 -->
<g id="node12" class="node">
<title>Node12</title>
<g id="a_node12"><a xlink:title=" ">
<polygon fill="none" stroke="#bfbfbf" points="289.5,-673 289.5,-692 337.5,-692 337.5,-673 289.5,-673"/>
<text text-anchor="middle" x="313.5" y="-680" font-family="Helvetica,sans-Serif" font-size="10.00">time_t</text>
</a>
</g>
</g>
<!-- Node12&#45;&gt;Node5 -->
<g id="edge39" class="edge">
<title>Node12&#45;&gt;Node5</title>
<path fill="none" stroke="#9a32cd" stroke-dasharray="5,2" d="M347.73,-679.95C389.47,-677.83 462.81,-677.67 522,-696.5 530.93,-699.34 531.58,-703.38 540,-707.5 599.76,-736.75 614.83,-747.13 680,-760.5 836.19,-792.54 1026.04,-788.95 1116.76,-784.7"/>
<polygon fill="#9a32cd" stroke="#9a32cd" points="347.35,-676.47 337.57,-680.54 347.76,-683.46 347.35,-676.47"/>
<text text-anchor="middle" x="740.5" y="-791.5" font-family="Helvetica,sans-Serif" font-size="10.00"> last_heartbeat</text>
<text text-anchor="middle" x="740.5" y="-780.5" font-family="Helvetica,sans-Serif" font-size="10.00">last_heartbeat_ack</text>
</g>
<!-- Node12&#45;&gt;Node7 -->
<g id="edge12" class="edge">
<title>Node12&#45;&gt;Node7</title>
<path fill="none" stroke="#9a32cd" stroke-dasharray="5,2" d="M327.99,-700.07C343.75,-719.63 371.45,-751.16 401,-771.5 449.22,-804.68 476.16,-787.1 522,-823.5 557.43,-851.63 584.71,-899.66 595.26,-919.97"/>
<polygon fill="#9a32cd" stroke="#9a32cd" points="330.57,-697.69 321.63,-692.01 325.07,-702.03 330.57,-697.69"/>
<text text-anchor="middle" x="461.5" y="-826.5" font-family="Helvetica,sans-Serif" font-size="10.00"> last_tick</text>
</g>
<!-- Node12&#45;&gt;Node16 -->
<g id="edge19" class="edge">
<title>Node12&#45;&gt;Node16</title>
<path fill="none" stroke="#9a32cd" stroke-dasharray="5,2" d="M343.5,-668.62C385.91,-648.71 467.7,-611.76 540,-587.5 596.77,-568.45 748.2,-548.74 801,-520.5 831.02,-504.44 858.96,-474.79 872.3,-459.38"/>
<polygon fill="#9a32cd" stroke="#9a32cd" points="341.87,-665.52 334.32,-672.95 344.86,-671.85 341.87,-665.52"/>
<text text-anchor="middle" x="601" y="-590.5" font-family="Helvetica,sans-Serif" font-size="10.00"> last_identify</text>
</g>
<!-- Node13 -->
<g id="node13" class="node">
<title>Node13</title>
<g id="a_node13"><a xlink:title=" ">
<polygon fill="none" stroke="#bfbfbf" points="41,-453 41,-472 97,-472 97,-453 41,-453"/>
<text text-anchor="middle" x="69" y="-460" font-family="Helvetica,sans-Serif" font-size="10.00">uint64_t</text>
</a>
</g>
</g>
<!-- Node13&#45;&gt;Node5 -->
<g id="edge41" class="edge">
<title>Node13&#45;&gt;Node5</title>
<path fill="none" stroke="#9a32cd" stroke-dasharray="5,2" d="M79.21,-481.28C111.93,-545.31 229.89,-753.97 401,-805.5 549.53,-850.23 945.21,-819.74 1099,-799.5 1112.24,-797.76 1126.56,-794.42 1138.85,-791.08"/>
<polygon fill="#9a32cd" stroke="#9a32cd" points="82.31,-479.65 74.69,-472.29 76.05,-482.8 82.31,-479.65"/>
<text text-anchor="middle" x="601" y="-831.5" font-family="Helvetica,sans-Serif" font-size="10.00"> last_seq</text>
</g>
<!-- Node13&#45;&gt;Node7 -->
<g id="edge13" class="edge">
<title>Node13&#45;&gt;Node7</title>
<path fill="none" stroke="#9a32cd" stroke-dasharray="5,2" d="M72.46,-482.2C81.19,-549.52 112.51,-769.18 156,-823.5 183.2,-857.48 202.61,-853.02 244,-866.5 354.11,-902.36 490.42,-919.25 557.97,-925.89"/>
<polygon fill="#9a32cd" stroke="#9a32cd" points="75.91,-481.59 71.17,-472.11 68.96,-482.48 75.91,-481.59"/>
<text text-anchor="middle" x="313.5" y="-914.5" font-family="Helvetica,sans-Serif" font-size="10.00"> bytes_in</text>
<text text-anchor="middle" x="313.5" y="-903.5" font-family="Helvetica,sans-Serif" font-size="10.00">bytes_out</text>
</g>
<!-- Node20 -->
<g id="node20" class="node">
<title>Node20</title>
<g id="a_node20"><a xlink:href="classdpp_1_1managed.html" target="_top" xlink:title="The managed class is the base class for various types that can be stored in a cache that are identifi...">
<polygon fill="none" stroke="black" points="270.5,-415 270.5,-434 356.5,-434 356.5,-415 270.5,-415"/>
<text text-anchor="middle" x="313.5" y="-422" font-family="Helvetica,sans-Serif" font-size="10.00">dpp::managed</text>
</a>
</g>
</g>
<!-- Node13&#45;&gt;Node20 -->
<g id="edge24" class="edge">
<title>Node13&#45;&gt;Node20</title>
<path fill="none" stroke="#9a32cd" stroke-dasharray="5,2" d="M107.11,-455.8C122.26,-453.13 139.95,-450.08 156,-447.5 194.64,-441.29 238.75,-434.87 270.27,-430.39"/>
<polygon fill="#9a32cd" stroke="#9a32cd" points="106.32,-452.39 97.08,-457.59 107.54,-459.28 106.32,-452.39"/>
<text text-anchor="middle" x="191" y="-450.5" font-family="Helvetica,sans-Serif" font-size="10.00"> id</text>
</g>
<!-- Node23 -->
<g id="node23" class="node">
<title>Node23</title>
<g id="a_node23"><a xlink:href="structdpp_1_1utility_1_1iconhash.html" target="_top" xlink:title="Store a 128 bit icon hash (profile picture, server icon etc) as a 128 bit binary value made of two ui...">
<polygon fill="none" stroke="black" points="254.5,-453 254.5,-472 372.5,-472 372.5,-453 254.5,-453"/>
<text text-anchor="middle" x="313.5" y="-460" font-family="Helvetica,sans-Serif" font-size="10.00">dpp::utility::iconhash</text>
</a>
</g>
</g>
<!-- Node13&#45;&gt;Node23 -->
<g id="edge29" class="edge">
<title>Node13&#45;&gt;Node23</title>
<path fill="none" stroke="#9a32cd" stroke-dasharray="5,2" d="M107.53,-462.5C146.78,-462.5 208.88,-462.5 254.45,-462.5"/>
<polygon fill="#9a32cd" stroke="#9a32cd" points="107.35,-459 97.35,-462.5 107.35,-466 107.35,-459"/>
<text text-anchor="middle" x="191" y="-476.5" font-family="Helvetica,sans-Serif" font-size="10.00"> first</text>
<text text-anchor="middle" x="191" y="-465.5" font-family="Helvetica,sans-Serif" font-size="10.00">second</text>
</g>
<!-- Node34 -->
<g id="node34" class="node">
<title>Node34</title>
<g id="a_node34"><a xlink:href="classdpp_1_1presence.html" target="_top" xlink:title="Represents user presence, e.g. what game they are playing and if they are online.">
<polygon fill="none" stroke="black" points="558.5,-88 558.5,-107 643.5,-107 643.5,-88 558.5,-88"/>
<text text-anchor="middle" x="601" y="-95" font-family="Helvetica,sans-Serif" font-size="10.00">dpp::presence</text>
</a>
</g>
</g>
<!-- Node13&#45;&gt;Node34 -->
<g id="edge50" class="edge">
<title>Node13&#45;&gt;Node34</title>
<path fill="none" stroke="#9a32cd" stroke-dasharray="5,2" d="M74.57,-442.82C88.7,-386.77 137.33,-225.65 244,-152.5 295.47,-117.2 460.45,-122.84 522,-112.5 533.83,-110.51 546.63,-108.14 558.37,-105.88"/>
<polygon fill="#9a32cd" stroke="#9a32cd" points="71.09,-442.3 72.13,-452.84 77.9,-443.95 71.09,-442.3"/>
<text text-anchor="middle" x="313.5" y="-166.5" font-family="Helvetica,sans-Serif" font-size="10.00"> guild_id</text>
<text text-anchor="middle" x="313.5" y="-155.5" font-family="Helvetica,sans-Serif" font-size="10.00">user_id</text>
</g>
<!-- Node14 -->
<g id="node14" class="node">
<title>Node14</title>
<g id="a_node14"><a xlink:title=" ">
<polygon fill="none" stroke="#bfbfbf" points="244,-838 244,-857 383,-857 383,-838 244,-838"/>
<text text-anchor="middle" x="313.5" y="-845" font-family="Helvetica,sans-Serif" font-size="10.00">function&lt; dpp::socket()&gt;</text>
</a>
</g>
</g>
<!-- Node14&#45;&gt;Node7 -->
<g id="edge14" class="edge">
<title>Node14&#45;&gt;Node7</title>
<path fill="none" stroke="#9a32cd" stroke-dasharray="5,2" d="M393.66,-838.82C433.59,-837.5 481.91,-840.7 522,-857.5 553.95,-870.89 581.04,-903.44 593.18,-919.79"/>
<polygon fill="#9a32cd" stroke="#9a32cd" points="393.28,-835.34 383.44,-839.26 393.58,-842.33 393.28,-835.34"/>
<text text-anchor="middle" x="461.5" y="-871.5" font-family="Helvetica,sans-Serif" font-size="10.00"> custom_readable_fd</text>
<text text-anchor="middle" x="461.5" y="-860.5" font-family="Helvetica,sans-Serif" font-size="10.00">custom_writeable_fd</text>
</g>
<!-- Node15 -->
<g id="node15" class="node">
<title>Node15</title>
<g id="a_node15"><a xlink:title=" ">
<polygon fill="none" stroke="#bfbfbf" points="261.5,-1010 261.5,-1029 365.5,-1029 365.5,-1010 261.5,-1010"/>
<text text-anchor="middle" x="313.5" y="-1017" font-family="Helvetica,sans-Serif" font-size="10.00">function&lt; void()&gt;</text>
</a>
</g>
</g>
<!-- Node15&#45;&gt;Node7 -->
<g id="edge15" class="edge">
<title>Node15&#45;&gt;Node7</title>
<path fill="none" stroke="#9a32cd" stroke-dasharray="5,2" d="M361.8,-1007.56C374.5,-1004.48 388.25,-1001.26 401,-998.5 454.5,-986.93 470.77,-994.8 522,-975.5 546.42,-966.3 571.97,-949.69 586.91,-939.15"/>
<polygon fill="#9a32cd" stroke="#9a32cd" points="360.75,-1004.21 351.87,-1009.99 362.42,-1011.01 360.75,-1004.21"/>
<text text-anchor="middle" x="461.5" y="-1012.5" font-family="Helvetica,sans-Serif" font-size="10.00"> custom_readable_ready</text>
<text text-anchor="middle" x="461.5" y="-1001.5" font-family="Helvetica,sans-Serif" font-size="10.00">custom_writeable_ready</text>
</g>
<!-- Node16&#45;&gt;Node5 -->
<g id="edge17" class="edge">
<title>Node16&#45;&gt;Node5</title>
<path fill="none" stroke="#9a32cd" stroke-dasharray="5,2" d="M920.88,-462.49C969.06,-480.67 1051.18,-518.18 1099,-576.5 1150.11,-638.83 1165.38,-740.2 1169.02,-771.79"/>
<polygon fill="#9a32cd" stroke="#9a32cd" points="922.02,-459.18 911.43,-459 919.6,-465.74 922.02,-459.18"/>
<text text-anchor="middle" x="1030.5" y="-579.5" font-family="Helvetica,sans-Serif" font-size="10.00"> creator</text>
</g>
<!-- Node17 -->
<g id="node17" class="node">
<title>Node17</title>
<g id="a_node17"><a xlink:title=" ">
<polygon fill="none" stroke="#bfbfbf" points="285.5,-496 285.5,-515 341.5,-515 341.5,-496 285.5,-496"/>
<text text-anchor="middle" x="313.5" y="-503" font-family="Helvetica,sans-Serif" font-size="10.00">uint32_t</text>
</a>
</g>
</g>
<!-- Node17&#45;&gt;Node5 -->
<g id="edge38" class="edge">
<title>Node17&#45;&gt;Node5</title>
<path fill="none" stroke="#9a32cd" stroke-dasharray="5,2" d="M330.4,-522.89C364.6,-558.94 449.45,-641.22 540,-674.5 649.08,-714.59 686.11,-672.96 801,-690.5 928.52,-709.97 1076.47,-752.77 1139.28,-771.92"/>
<polygon fill="#9a32cd" stroke="#9a32cd" points="332.56,-520.07 323.17,-515.16 327.44,-524.85 332.56,-520.07"/>
<text text-anchor="middle" x="740.5" y="-748.5" font-family="Helvetica,sans-Serif" font-size="10.00"> heartbeat_interval</text>
<text text-anchor="middle" x="740.5" y="-737.5" font-family="Helvetica,sans-Serif" font-size="10.00">intents</text>
<text text-anchor="middle" x="740.5" y="-726.5" font-family="Helvetica,sans-Serif" font-size="10.00">max_shards</text>
<text text-anchor="middle" x="740.5" y="-715.5" font-family="Helvetica,sans-Serif" font-size="10.00">reconnects</text>
<text text-anchor="middle" x="740.5" y="-704.5" font-family="Helvetica,sans-Serif" font-size="10.00">resumes</text>
<text text-anchor="middle" x="740.5" y="-693.5" font-family="Helvetica,sans-Serif" font-size="10.00">shard_id</text>
</g>
<!-- Node17&#45;&gt;Node16 -->
<g id="edge20" class="edge">
<title>Node17&#45;&gt;Node16</title>
<path fill="none" stroke="#9a32cd" stroke-dasharray="5,2" d="M351.82,-506.6C458.3,-509.56 758.64,-516.62 801,-503.5 829.37,-494.71 856.72,-472.04 870.76,-459.04"/>
<polygon fill="#9a32cd" stroke="#9a32cd" points="351.65,-503.09 341.55,-506.31 351.45,-510.09 351.65,-503.09"/>
<text text-anchor="middle" x="601" y="-546.5" font-family="Helvetica,sans-Serif" font-size="10.00"> cluster_id</text>
<text text-anchor="middle" x="601" y="-535.5" font-family="Helvetica,sans-Serif" font-size="10.00">intents</text>
<text text-anchor="middle" x="601" y="-524.5" font-family="Helvetica,sans-Serif" font-size="10.00">maxclusters</text>
<text text-anchor="middle" x="601" y="-513.5" font-family="Helvetica,sans-Serif" font-size="10.00">numshards</text>
</g>
<!-- Node17&#45;&gt;Node19 -->
<g id="edge30" class="edge">
<title>Node17&#45;&gt;Node19</title>
<path fill="none" stroke="#9a32cd" stroke-dasharray="5,2" d="M351.22,-494.06C366.53,-489.51 384.54,-484.43 401,-480.5 454.24,-467.78 482.89,-495.8 522,-457.5 549.59,-430.48 514.06,-401.11 540,-372.5 547.63,-364.08 558.97,-359.37 569.73,-356.74"/>
<polygon fill="#9a32cd" stroke="#9a32cd" points="350.16,-490.73 341.6,-496.96 352.18,-497.43 350.16,-490.73"/>
<text text-anchor="middle" x="461.5" y="-483.5" font-family="Helvetica,sans-Serif" font-size="10.00"> flags</text>
</g>
<!-- Node18 -->
<g id="node18" class="node">
<title>Node18</title>
<g id="a_node18"><a xlink:title=" ">
<polygon fill="none" stroke="#bfbfbf" points="576,-608 576,-627 626,-627 626,-608 576,-608"/>
<text text-anchor="middle" x="601" y="-615" font-family="Helvetica,sans-Serif" font-size="10.00">double</text>
</a>
</g>
</g>
<!-- Node18&#45;&gt;Node5 -->
<g id="edge44" class="edge">
<title>Node18&#45;&gt;Node5</title>
<path fill="none" stroke="#9a32cd" stroke-dasharray="5,2" d="M636.27,-615.59C735.97,-610.69 1023.61,-601.41 1099,-652.5 1142.38,-681.9 1161.81,-746.94 1167.83,-771.68"/>
<polygon fill="#9a32cd" stroke="#9a32cd" points="635.95,-612.1 626.14,-616.1 636.3,-619.09 635.95,-612.1"/>
<text text-anchor="middle" x="881.5" y="-618.5" font-family="Helvetica,sans-Serif" font-size="10.00"> websocket_ping</text>
</g>
<!-- Node18&#45;&gt;Node16 -->
<g id="edge21" class="edge">
<title>Node18&#45;&gt;Node16</title>
<path fill="none" stroke="#9a32cd" stroke-dasharray="5,2" d="M635.5,-606.67C644.45,-603.1 653.88,-598.69 662,-593.5 671.27,-587.57 670.2,-581.51 680,-576.5 728.75,-551.59 754.42,-582.25 801,-553.5 839.49,-529.75 866.18,-480.08 876.16,-459.14"/>
<polygon fill="#9a32cd" stroke="#9a32cd" points="634.21,-603.42 626.08,-610.21 636.67,-609.97 634.21,-603.42"/>
<text text-anchor="middle" x="740.5" y="-579.5" font-family="Helvetica,sans-Serif" font-size="10.00"> rest_ping</text>
</g>
<!-- Node19&#45;&gt;Node16 -->
<g id="edge22" class="edge">
<title>Node19&#45;&gt;Node16</title>
<path fill="none" stroke="#9a32cd" stroke-dasharray="5,2" d="M642.11,-344.51C683.91,-337.23 750.27,-331.65 801,-355.5 839.3,-373.5 865.91,-419.89 876,-439.98"/>
<polygon fill="#9a32cd" stroke="#9a32cd" points="641.22,-341.12 632.03,-346.39 642.5,-348 641.22,-341.12"/>
<text text-anchor="middle" x="740.5" y="-358.5" font-family="Helvetica,sans-Serif" font-size="10.00"> me</text>
</g>
<!-- Node20&#45;&gt;Node19 -->
<g id="edge23" class="edge">
<title>Node20&#45;&gt;Node19</title>
<path fill="none" stroke="midnightblue" d="M367.05,-425.95C410.95,-425.01 473.91,-418.49 522,-392.5 532.52,-386.81 529.95,-378.98 540,-372.5 549,-366.7 559.9,-362.56 569.93,-359.65"/>
<polygon fill="midnightblue" stroke="midnightblue" points="366.83,-422.46 356.87,-426.08 366.92,-429.46 366.83,-422.46"/>
</g>
<!-- Node21 -->
<g id="node21" class="node">
<title>Node21</title>
<g id="a_node21"><a xlink:href="structdpp_1_1json__interface.html" target="_top" xlink:title=" ">
<polygon fill="none" stroke="black" points="258.5,-304.5 258.5,-334.5 368.5,-334.5 368.5,-304.5 258.5,-304.5"/>
<text text-anchor="start" x="266.5" y="-322.5" font-family="Helvetica,sans-Serif" font-size="10.00">dpp::json_interface</text>
<text text-anchor="middle" x="313.5" y="-311.5" font-family="Helvetica,sans-Serif" font-size="10.00">&lt; user &gt;</text>
</a>
</g>
</g>
<!-- Node21&#45;&gt;Node19 -->
<g id="edge25" class="edge">
<title>Node21&#45;&gt;Node19</title>
<path fill="none" stroke="midnightblue" d="M378.54,-335.49C386.08,-337.02 393.69,-338.4 401,-339.5 460.43,-348.4 530.71,-351.67 569.83,-352.85"/>
<polygon fill="midnightblue" stroke="midnightblue" points="379.21,-332.05 368.7,-333.4 377.76,-338.9 379.21,-332.05"/>
</g>
<!-- Node22 -->
<g id="node22" class="node">
<title>Node22</title>
<g id="a_node22"><a xlink:href="structdpp_1_1json__interface.html" target="_top" xlink:title="Represents an interface for an object that can optionally implement functions for converting to and f...">
<polygon fill="none" stroke="black" points="0,-108 0,-127 138,-127 138,-108 0,-108"/>
<text text-anchor="middle" x="69" y="-115" font-family="Helvetica,sans-Serif" font-size="10.00">dpp::json_interface&lt; T &gt;</text>
</a>
</g>
</g>
<!-- Node22&#45;&gt;Node21 -->
<g id="edge26" class="edge">
<title>Node22&#45;&gt;Node21</title>
<path fill="none" stroke="orange" stroke-dasharray="5,2" d="M86.24,-134.73C115.87,-165.63 181.41,-231.61 244,-278.5 256.65,-287.97 271.61,-297.14 284.33,-304.39"/>
<polygon fill="orange" stroke="orange" points="88.62,-132.15 79.19,-127.32 83.55,-136.98 88.62,-132.15"/>
<text text-anchor="middle" x="191" y="-265.5" font-family="Helvetica,sans-Serif" font-size="10.00"> &lt; user &gt;</text>
</g>
<!-- Node35 -->
<g id="node35" class="node">
<title>Node35</title>
<g id="a_node35"><a xlink:href="structdpp_1_1json__interface.html" target="_top" xlink:title=" ">
<polygon fill="none" stroke="black" points="258.5,-0.5 258.5,-30.5 368.5,-30.5 368.5,-0.5 258.5,-0.5"/>
<text text-anchor="start" x="266.5" y="-18.5" font-family="Helvetica,sans-Serif" font-size="10.00">dpp::json_interface</text>
<text text-anchor="middle" x="313.5" y="-7.5" font-family="Helvetica,sans-Serif" font-size="10.00">&lt; presence &gt;</text>
</a>
</g>
</g>
<!-- Node22&#45;&gt;Node35 -->
<g id="edge49" class="edge">
<title>Node22&#45;&gt;Node35</title>
<path fill="none" stroke="orange" stroke-dasharray="5,2" d="M123.45,-104.73C128.47,-102.89 133.4,-100.82 138,-98.5 147.05,-93.94 147.43,-89.9 156,-84.5 192.99,-61.19 203.84,-57.8 244,-40.5 251.91,-37.09 260.45,-33.73 268.72,-30.63"/>
<polygon fill="orange" stroke="orange" points="122.12,-101.49 113.75,-107.99 124.35,-108.12 122.12,-101.49"/>
<text text-anchor="middle" x="191" y="-87.5" font-family="Helvetica,sans-Serif" font-size="10.00"> &lt; presence &gt;</text>
</g>
<!-- Node23&#45;&gt;Node19 -->
<g id="edge28" class="edge">
<title>Node23&#45;&gt;Node19</title>
<path fill="none" stroke="#9a32cd" stroke-dasharray="5,2" d="M376.08,-451.08C436.23,-439.81 519.16,-423.92 522,-421.5 539.64,-406.43 523.23,-388.53 540,-372.5 548.06,-364.8 559.22,-360.22 569.73,-357.5"/>
<polygon fill="#9a32cd" stroke="#9a32cd" points="375.08,-447.7 365.89,-452.98 376.36,-454.58 375.08,-447.7"/>
<text text-anchor="middle" x="461.5" y="-448.5" font-family="Helvetica,sans-Serif" font-size="10.00"> avatar</text>
</g>
<!-- Node24 -->
<g id="node24" class="node">
<title>Node24</title>
<g id="a_node24"><a xlink:title=" ">
<polygon fill="none" stroke="#bfbfbf" points="285.5,-377 285.5,-396 341.5,-396 341.5,-377 285.5,-377"/>
<text text-anchor="middle" x="313.5" y="-384" font-family="Helvetica,sans-Serif" font-size="10.00">uint16_t</text>
</a>
</g>
</g>
<!-- Node24&#45;&gt;Node19 -->
<g id="edge31" class="edge">
<title>Node24&#45;&gt;Node19</title>
<path fill="none" stroke="#9a32cd" stroke-dasharray="5,2" d="M351.93,-382.92C393.52,-378.86 462.63,-371.83 522,-364.5 537.74,-362.56 555.24,-360.11 569.66,-358.03"/>
<polygon fill="#9a32cd" stroke="#9a32cd" points="351.34,-379.46 341.73,-383.92 352.02,-386.43 351.34,-379.46"/>
<text text-anchor="middle" x="461.5" y="-380.5" font-family="Helvetica,sans-Serif" font-size="10.00"> discriminator</text>
</g>
<!-- Node25 -->
<g id="node25" class="node">
<title>Node25</title>
<g id="a_node25"><a xlink:title=" ">
<polygon fill="none" stroke="#bfbfbf" points="288.5,-88 288.5,-107 338.5,-107 338.5,-88 288.5,-88"/>
<text text-anchor="middle" x="313.5" y="-95" font-family="Helvetica,sans-Serif" font-size="10.00">uint8_t</text>
</a>
</g>
</g>
<!-- Node25&#45;&gt;Node19 -->
<g id="edge32" class="edge">
<title>Node25&#45;&gt;Node19</title>
<path fill="none" stroke="#9a32cd" stroke-dasharray="5,2" d="M348.42,-102.01C361.01,-105.38 374.33,-111.26 383,-121.5 413.31,-157.3 373.57,-187.45 401,-225.5 436.7,-275.02 480.16,-246.05 522,-290.5 535.08,-304.4 526.16,-316.36 540,-329.5 548.3,-337.38 559.51,-342.79 569.99,-346.45"/>
<polygon fill="#9a32cd" stroke="#9a32cd" points="349.1,-98.58 338.58,-99.82 347.57,-105.41 349.1,-98.58"/>
<text text-anchor="middle" x="461.5" y="-293.5" font-family="Helvetica,sans-Serif" font-size="10.00"> refcount</text>
</g>
<!-- Node25&#45;&gt;Node34 -->
<g id="edge51" class="edge">
<title>Node25&#45;&gt;Node34</title>
<path fill="none" stroke="#9a32cd" stroke-dasharray="5,2" d="M349.02,-97.5C401.67,-97.5 501.89,-97.5 558.46,-97.5"/>
<polygon fill="#9a32cd" stroke="#9a32cd" points="348.84,-94 338.84,-97.5 348.84,-101 348.84,-94"/>
<text text-anchor="middle" x="461.5" y="-100.5" font-family="Helvetica,sans-Serif" font-size="10.00"> flags</text>
</g>
<!-- Node26 -->
<g id="node26" class="node">
<title>Node26</title>
<g id="a_node26"><a xlink:href="structdpp_1_1cache__policy__t.html" target="_top" xlink:title="Represents the caching policy of the cluster.">
<polygon fill="none" stroke="black" points="544.5,-183 544.5,-202 657.5,-202 657.5,-183 544.5,-183"/>
<text text-anchor="middle" x="601" y="-190" font-family="Helvetica,sans-Serif" font-size="10.00">dpp::cache_policy_t</text>
</a>
</g>
</g>
<!-- Node26&#45;&gt;Node16 -->
<g id="edge33" class="edge">
<title>Node26&#45;&gt;Node16</title>
<path fill="none" stroke="#9a32cd" stroke-dasharray="5,2" d="M643.66,-180.64C687.39,-170.89 755.91,-163.57 801,-197.5 881.82,-258.33 882.4,-401.33 881,-439.82"/>
<polygon fill="#9a32cd" stroke="#9a32cd" points="642.84,-177.24 633.92,-182.94 644.45,-184.05 642.84,-177.24"/>
<text text-anchor="middle" x="740.5" y="-200.5" font-family="Helvetica,sans-Serif" font-size="10.00"> cache_policy</text>
</g>
<!-- Node27 -->
<g id="node27" class="node">
<title>Node27</title>
<g id="a_node27"><a xlink:title=" ">
<polygon fill="none" stroke="#bfbfbf" points="249.5,-184 249.5,-203 377.5,-203 377.5,-184 249.5,-184"/>
<text text-anchor="middle" x="313.5" y="-191" font-family="Helvetica,sans-Serif" font-size="10.00">cache_policy_setting_t</text>
</a>
</g>
</g>
<!-- Node27&#45;&gt;Node26 -->
<g id="edge34" class="edge">
<title>Node27&#45;&gt;Node26</title>
<path fill="none" stroke="#9a32cd" stroke-dasharray="5,2" d="M388.04,-188.96C392.43,-188.78 396.77,-188.62 401,-188.5 454.76,-186.95 468.24,-187.12 522,-188.5 529.18,-188.68 536.74,-188.96 544.2,-189.29"/>
<polygon fill="#9a32cd" stroke="#9a32cd" points="387.62,-185.47 377.79,-189.42 387.93,-192.47 387.62,-185.47"/>
<text text-anchor="middle" x="461.5" y="-213.5" font-family="Helvetica,sans-Serif" font-size="10.00"> emoji_policy</text>
<text text-anchor="middle" x="461.5" y="-202.5" font-family="Helvetica,sans-Serif" font-size="10.00">role_policy</text>
<text text-anchor="middle" x="461.5" y="-191.5" font-family="Helvetica,sans-Serif" font-size="10.00">user_policy</text>
</g>
<!-- Node28 -->
<g id="node28" class="node">
<title>Node28</title>
<g id="a_node28"><a xlink:title=" ">
<polygon fill="none" stroke="#bfbfbf" points="540,-646 540,-665 662,-665 662,-646 540,-646"/>
<text text-anchor="middle" x="601" y="-653" font-family="Helvetica,sans-Serif" font-size="10.00">websocket_protocol_t</text>
</a>
</g>
</g>
<!-- Node28&#45;&gt;Node5 -->
<g id="edge45" class="edge">
<title>Node28&#45;&gt;Node5</title>
<path fill="none" stroke="#9a32cd" stroke-dasharray="5,2" d="M672.53,-652.47C791.87,-648.55 1027.59,-646.27 1099,-685.5 1134.97,-705.27 1157.77,-751.88 1166.26,-771.99"/>
<polygon fill="#9a32cd" stroke="#9a32cd" points="672.28,-648.98 662.4,-652.82 672.52,-655.98 672.28,-648.98"/>
<text text-anchor="middle" x="881.5" y="-657.5" font-family="Helvetica,sans-Serif" font-size="10.00"> protocol</text>
</g>
<!-- Node28&#45;&gt;Node16 -->
<g id="edge35" class="edge">
<title>Node28&#45;&gt;Node16</title>
<path fill="none" stroke="#9a32cd" stroke-dasharray="5,2" d="M646.26,-643.13C701.08,-627.53 788.78,-601.52 801,-591.5 846.23,-554.42 870.29,-484.46 877.85,-459.04"/>
<polygon fill="#9a32cd" stroke="#9a32cd" points="645.1,-639.82 636.44,-645.92 647.01,-646.56 645.1,-639.82"/>
<text text-anchor="middle" x="740.5" y="-634.5" font-family="Helvetica,sans-Serif" font-size="10.00"> ws_mode</text>
</g>
<!-- Node29 -->
<g id="node29" class="node">
<title>Node29</title>
<g id="a_node29"><a xlink:title=" ">
<polygon fill="none" stroke="#bfbfbf" points="547.5,-259 547.5,-278 654.5,-278 654.5,-259 547.5,-259"/>
<text text-anchor="middle" x="601" y="-266" font-family="Helvetica,sans-Serif" font-size="10.00">condition_variable</text>
</a>
</g>
</g>
<!-- Node29&#45;&gt;Node16 -->
<g id="edge36" class="edge">
<title>Node29&#45;&gt;Node16</title>
<path fill="none" stroke="#9a32cd" stroke-dasharray="5,2" d="M664.67,-260.34C706.79,-258.17 761.6,-262.12 801,-289.5 854.74,-326.85 873.9,-411.33 878.98,-439.87"/>
<polygon fill="#9a32cd" stroke="#9a32cd" points="664.28,-256.85 654.52,-260.99 664.73,-263.84 664.28,-256.85"/>
<text text-anchor="middle" x="740.5" y="-292.5" font-family="Helvetica,sans-Serif" font-size="10.00"> terminating</text>
</g>
<!-- Node30 -->
<g id="node30" class="node">
<title>Node30</title>
<g id="a_node30"><a xlink:title=" ">
<polygon fill="none" stroke="#bfbfbf" points="553,-382 553,-401 649,-401 649,-382 553,-382"/>
<text text-anchor="middle" x="601" y="-389" font-family="Helvetica,sans-Serif" font-size="10.00">event_router_t&lt;</text>
</a>
</g>
</g>
<!-- Node30&#45;&gt;Node16 -->
<g id="edge37" class="edge">
<title>Node30&#45;&gt;Node16</title>
<path fill="none" stroke="#9a32cd" stroke-dasharray="5,2" d="M646.81,-379.85C688.15,-371.31 750.58,-364.09 801,-382.5 832.54,-394.02 860.21,-424.17 872.99,-439.79"/>
<polygon fill="#9a32cd" stroke="#9a32cd" points="646.06,-376.43 637.03,-381.98 647.55,-383.27 646.06,-376.43"/>
<text text-anchor="middle" x="740.5" y="-495.5" font-family="Helvetica,sans-Serif" font-size="10.00"> on_autocomplete</text>
<text text-anchor="middle" x="740.5" y="-484.5" font-family="Helvetica,sans-Serif" font-size="10.00">on_button_click</text>
<text text-anchor="middle" x="740.5" y="-473.5" font-family="Helvetica,sans-Serif" font-size="10.00">on_channel_create</text>
<text text-anchor="middle" x="740.5" y="-462.5" font-family="Helvetica,sans-Serif" font-size="10.00">on_channel_delete</text>
<text text-anchor="middle" x="740.5" y="-451.5" font-family="Helvetica,sans-Serif" font-size="10.00">on_channel_pins_update</text>
<text text-anchor="middle" x="740.5" y="-440.5" font-family="Helvetica,sans-Serif" font-size="10.00">on_channel_update</text>
<text text-anchor="middle" x="740.5" y="-429.5" font-family="Helvetica,sans-Serif" font-size="10.00">on_form_submit</text>
<text text-anchor="middle" x="740.5" y="-418.5" font-family="Helvetica,sans-Serif" font-size="10.00">on_guild_ban_add</text>
<text text-anchor="middle" x="740.5" y="-407.5" font-family="Helvetica,sans-Serif" font-size="10.00">on_guild_ban_remove</text>
<text text-anchor="middle" x="740.5" y="-396.5" font-family="Helvetica,sans-Serif" font-size="10.00">on_guild_create</text>
<text text-anchor="middle" x="740.5" y="-385.5" font-family="Helvetica,sans-Serif" font-size="10.00">...</text>
</g>
<!-- Node31 -->
<g id="node31" class="node">
<title>Node31</title>
<g id="a_node31"><a xlink:title=" ">
<polygon fill="none" stroke="#bfbfbf" points="825,-1130 825,-1149 938,-1149 938,-1130 825,-1130"/>
<text text-anchor="middle" x="881.5" y="-1137" font-family="Helvetica,sans-Serif" font-size="10.00">native_handle_type</text>
</a>
</g>
</g>
<!-- Node31&#45;&gt;Node5 -->
<g id="edge40" class="edge">
<title>Node31&#45;&gt;Node5</title>
<path fill="none" stroke="#9a32cd" stroke-dasharray="5,2" d="M942.1,-1150.21C990.41,-1155.26 1057.13,-1153.42 1099,-1115.5 1148.98,-1070.24 1166.2,-841.65 1169.41,-791.31"/>
<polygon fill="#9a32cd" stroke="#9a32cd" points="942.42,-1146.73 932.08,-1149.04 941.61,-1153.68 942.42,-1146.73"/>
<text text-anchor="middle" x="1030.5" y="-1154.5" font-family="Helvetica,sans-Serif" font-size="10.00"> thread_id</text>
</g>
<!-- Node32 -->
<g id="node32" class="node">
<title>Node32</title>
<g id="a_node32"><a xlink:title=" ">
<polygon fill="none" stroke="#bfbfbf" points="847,-886 847,-905 916,-905 916,-886 847,-886"/>
<text text-anchor="middle" x="881.5" y="-893" font-family="Helvetica,sans-Serif" font-size="10.00">std::mutex</text>
</a>
</g>
</g>
<!-- Node32&#45;&gt;Node5 -->
<g id="edge43" class="edge">
<title>Node32&#45;&gt;Node5</title>
<path fill="none" stroke="#9a32cd" stroke-dasharray="5,2" d="M926.29,-900.45C972.26,-903.56 1045.2,-902.38 1099,-872.5 1133.33,-853.43 1156.71,-810.22 1165.79,-791.01"/>
<polygon fill="#9a32cd" stroke="#9a32cd" points="926.3,-896.95 916.06,-899.66 925.76,-903.92 926.3,-896.95"/>
<text text-anchor="middle" x="1030.5" y="-904.5" font-family="Helvetica,sans-Serif" font-size="10.00"> voice_mutex</text>
</g>
<!-- Node33 -->
<g id="node33" class="node">
<title>Node33</title>
<g id="a_node33"><a xlink:title=" ">
<polygon fill="none" stroke="#bfbfbf" points="831,-848 831,-867 932,-867 932,-848 831,-848"/>
<text text-anchor="middle" x="881.5" y="-855" font-family="Helvetica,sans-Serif" font-size="10.00">unordered_map&lt;</text>
</a>
</g>
</g>
<!-- Node33&#45;&gt;Node5 -->
<g id="edge46" class="edge">
<title>Node33&#45;&gt;Node5</title>
<path fill="none" stroke="#9a32cd" stroke-dasharray="5,2" d="M942.47,-859.07C987.07,-858.3 1048.65,-853.1 1099,-833.5 1123.77,-823.85 1147.67,-803.3 1160.44,-791.12"/>
<polygon fill="#9a32cd" stroke="#9a32cd" points="942.34,-855.57 932.37,-859.17 942.41,-862.57 942.34,-855.57"/>
<text text-anchor="middle" x="1030.5" y="-860.5" font-family="Helvetica,sans-Serif" font-size="10.00"> connecting_voice_channels</text>
</g>
<!-- Node34&#45;&gt;Node1 -->
<g id="edge47" class="edge">
<title>Node34&#45;&gt;Node1</title>
<path fill="none" stroke="#9a32cd" stroke-dasharray="5,2" d="M653.51,-100.16C709.4,-102.82 801.26,-106.5 880.5,-106.5 880.5,-106.5 880.5,-106.5 1351,-106.5 1383.3,-106.5 1419.1,-108.86 1448.95,-111.48"/>
<polygon fill="#9a32cd" stroke="#9a32cd" points="653.67,-96.66 643.51,-99.68 653.33,-103.66 653.67,-96.66"/>
<text text-anchor="middle" x="1171" y="-109.5" font-family="Helvetica,sans-Serif" font-size="10.00"> rich_presence</text>
</g>
<!-- Node35&#45;&gt;Node34 -->
<g id="edge48" class="edge">
<title>Node35&#45;&gt;Node34</title>
<path fill="none" stroke="midnightblue" d="M378.88,-27.78C420.25,-36.39 474.87,-49.09 522,-64.5 542.12,-71.08 564.29,-80.7 579.83,-87.86"/>
<polygon fill="midnightblue" stroke="midnightblue" points="379.43,-24.32 368.93,-25.74 378.02,-31.18 379.43,-24.32"/>
</g>
<!-- Node36 -->
<g id="node36" class="node">
<title>Node36</title>
<g id="a_node36"><a xlink:title=" ">
<polygon fill="none" stroke="#bfbfbf" points="285.5,-50 285.5,-69 341.5,-69 341.5,-50 285.5,-50"/>
<text text-anchor="middle" x="313.5" y="-57" font-family="Helvetica,sans-Serif" font-size="10.00">vector&lt;</text>
</a>
</g>
</g>
<!-- Node36&#45;&gt;Node34 -->
<g id="edge52" class="edge">
<title>Node36&#45;&gt;Node34</title>
<path fill="none" stroke="#9a32cd" stroke-dasharray="5,2" d="M351.74,-62.73C393.36,-66.54 462.7,-73.53 522,-82.5 533.86,-84.3 546.67,-86.6 558.41,-88.87"/>
<polygon fill="#9a32cd" stroke="#9a32cd" points="352.06,-59.24 341.78,-61.83 351.42,-66.21 352.06,-59.24"/>
<text text-anchor="middle" x="461.5" y="-85.5" font-family="Helvetica,sans-Serif" font-size="10.00"> activities</text>
</g>
</g>
</svg>
