<?xml version="1.0" encoding="UTF-8" standalone="no"?>
<!DOCTYPE svg PUBLIC "-//W3C//DTD SVG 1.1//EN"
 "http://www.w3.org/Graphics/SVG/1.1/DTD/svg11.dtd">
<!-- Generated by graphviz version 2.43.0 (0)
 -->
<!-- Title: dpp::detail::task_promise&lt; ReturnType &gt; Pages: 1 -->
<svg width="382pt" height="184pt"
 viewBox="0.00 0.00 381.50 184.00" xmlns="http://www.w3.org/2000/svg" xmlns:xlink="http://www.w3.org/1999/xlink">
<g id="graph0" class="graph" transform="scale(1 1) rotate(0) translate(4 180)">
<title>dpp::detail::task_promise&lt; ReturnType &gt;</title>
<!-- Node1 -->
<g id="node1" class="node">
<title>Node1</title>
<g id="a_node1"><a xlink:title="A task&#39;s promise type, with special logic for handling nested tasks.">
<polygon fill="#bfbfbf" stroke="black" points="178.5,-0.5 178.5,-30.5 318.5,-30.5 318.5,-0.5 178.5,-0.5"/>
<text text-anchor="start" x="186.5" y="-18.5" font-family="Helvetica,sans-Serif" font-size="10.00">dpp::detail::task_promise</text>
<text text-anchor="middle" x="248.5" y="-7.5" font-family="Helvetica,sans-Serif" font-size="10.00">&lt; ReturnType &gt;</text>
</a>
</g>
</g>
<!-- Node2 -->
<g id="node2" class="node">
<title>Node2</title>
<g id="a_node2"><a xlink:href="structdpp_1_1detail_1_1task__promise__base.html" target="_top" xlink:title="Base implementation of task_promise, without the logic that would depend on the return type....">
<polygon fill="none" stroke="black" points="97,-78.5 97,-97.5 266,-97.5 266,-78.5 97,-78.5"/>
<text text-anchor="middle" x="181.5" y="-85.5" font-family="Helvetica,sans-Serif" font-size="10.00">dpp::detail::task_promise_base</text>
</a>
</g>
</g>
<!-- Node2&#45;&gt;Node1 -->
<g id="edge1" class="edge">
<title>Node2&#45;&gt;Node1</title>
<path fill="none" stroke="midnightblue" d="M196.62,-71.09C208.19,-58.91 224.01,-42.27 235.12,-30.58"/>
<polygon fill="midnightblue" stroke="midnightblue" points="194.07,-68.7 189.72,-78.36 199.14,-73.52 194.07,-68.7"/>
</g>
<!-- Node3 -->
<g id="node3" class="node">
<title>Node3</title>
<g id="a_node3"><a xlink:title=" ">
<polygon fill="none" stroke="#bfbfbf" points="0,-156.5 0,-175.5 69,-175.5 69,-156.5 0,-156.5"/>
<text text-anchor="middle" x="34.5" y="-163.5" font-family="Helvetica,sans-Serif" font-size="10.00">std::mutex</text>
</a>
</g>
</g>
<!-- Node3&#45;&gt;Node2 -->
<g id="edge2" class="edge">
<title>Node3&#45;&gt;Node2</title>
<path fill="none" stroke="#9a32cd" stroke-dasharray="5,2" d="M55.94,-150.77C71.98,-140.44 94.64,-126.5 115.5,-116 129.32,-109.04 145.38,-102.44 158.2,-97.51"/>
<polygon fill="#9a32cd" stroke="#9a32cd" points="53.8,-147.99 47.33,-156.38 57.62,-153.85 53.8,-147.99"/>
<text text-anchor="middle" x="133" y="-124.5" font-family="Helvetica,sans-Serif" font-size="10.00"> mutex</text>
</g>
<!-- Node4 -->
<g id="node4" class="node">
<title>Node4</title>
<g id="a_node4"><a xlink:title=" ">
<polygon fill="none" stroke="#bfbfbf" points="87,-156.5 87,-175.5 188,-175.5 188,-156.5 87,-156.5"/>
<text text-anchor="middle" x="137.5" y="-163.5" font-family="Helvetica,sans-Serif" font-size="10.00">coroutine_handle</text>
</a>
</g>
</g>
<!-- Node4&#45;&gt;Node2 -->
<g id="edge3" class="edge">
<title>Node4&#45;&gt;Node2</title>
<path fill="none" stroke="#9a32cd" stroke-dasharray="5,2" d="M147.59,-147.57C156.64,-131.95 169.52,-109.7 176.51,-97.62"/>
<polygon fill="#9a32cd" stroke="#9a32cd" points="144.53,-145.87 142.55,-156.28 150.59,-149.38 144.53,-145.87"/>
<text text-anchor="middle" x="183" y="-124.5" font-family="Helvetica,sans-Serif" font-size="10.00"> parent</text>
</g>
<!-- Node5 -->
<g id="node5" class="node">
<title>Node5</title>
<g id="a_node5"><a xlink:title=" ">
<polygon fill="none" stroke="#bfbfbf" points="206.5,-156.5 206.5,-175.5 244.5,-175.5 244.5,-156.5 206.5,-156.5"/>
<text text-anchor="middle" x="225.5" y="-163.5" font-family="Helvetica,sans-Serif" font-size="10.00">bool</text>
</a>
</g>
</g>
<!-- Node5&#45;&gt;Node2 -->
<g id="edge4" class="edge">
<title>Node5&#45;&gt;Node2</title>
<path fill="none" stroke="#9a32cd" stroke-dasharray="5,2" d="M218.64,-146.75C214.76,-137.28 209.48,-125.69 203.5,-116 199.44,-109.41 193.94,-102.66 189.45,-97.56"/>
<polygon fill="#9a32cd" stroke="#9a32cd" points="215.49,-148.31 222.4,-156.34 222.01,-145.75 215.49,-148.31"/>
<text text-anchor="middle" x="234.5" y="-130" font-family="Helvetica,sans-Serif" font-size="10.00"> destroy</text>
<text text-anchor="middle" x="234.5" y="-119" font-family="Helvetica,sans-Serif" font-size="10.00">is_sync</text>
</g>
<!-- Node6 -->
<g id="node6" class="node">
<title>Node6</title>
<g id="a_node6"><a xlink:title=" ">
<polygon fill="none" stroke="#bfbfbf" points="263,-156.5 263,-175.5 328,-175.5 328,-156.5 263,-156.5"/>
<text text-anchor="middle" x="295.5" y="-163.5" font-family="Helvetica,sans-Serif" font-size="10.00">function&lt;</text>
</a>
</g>
</g>
<!-- Node6&#45;&gt;Node2 -->
<g id="edge5" class="edge">
<title>Node6&#45;&gt;Node2</title>
<path fill="none" stroke="#9a32cd" stroke-dasharray="5,2" d="M285.82,-147.41C279.3,-137.01 269.84,-124.28 258.5,-116 247.06,-107.65 232.81,-101.7 219.69,-97.55"/>
<polygon fill="#9a32cd" stroke="#9a32cd" points="282.86,-149.28 290.95,-156.13 288.89,-145.73 282.86,-149.28"/>
<text text-anchor="middle" x="326.5" y="-124.5" font-family="Helvetica,sans-Serif" font-size="10.00"> exception_handler</text>
</g>
<!-- Node7 -->
<g id="node7" class="node">
<title>Node7</title>
<g id="a_node7"><a xlink:title=" ">
<polygon fill="none" stroke="#bfbfbf" points="284,-78.5 284,-97.5 349,-97.5 349,-78.5 284,-78.5"/>
<text text-anchor="middle" x="316.5" y="-85.5" font-family="Helvetica,sans-Serif" font-size="10.00">optional&lt;</text>
</a>
</g>
</g>
<!-- Node7&#45;&gt;Node1 -->
<g id="edge6" class="edge">
<title>Node7&#45;&gt;Node1</title>
<path fill="none" stroke="#9a32cd" stroke-dasharray="5,2" d="M301.16,-71.09C289.41,-58.91 273.36,-42.27 262.08,-30.58"/>
<polygon fill="#9a32cd" stroke="#9a32cd" points="298.7,-73.59 308.16,-78.36 303.74,-68.73 298.7,-73.59"/>
<text text-anchor="middle" x="304" y="-52" font-family="Helvetica,sans-Serif" font-size="10.00"> value</text>
</g>
</g>
</svg>
