<?xml version="1.0" encoding="UTF-8" standalone="no"?>
<!DOCTYPE svg PUBLIC "-//W3C//DTD SVG 1.1//EN"
 "http://www.w3.org/Graphics/SVG/1.1/DTD/svg11.dtd">
<!-- Generated by graphviz version 2.43.0 (0)
 -->
<!-- Title: dpp::guild_join_request_delete_t Pages: 1 -->
<svg width="1572pt" height="955pt"
 viewBox="0.00 0.00 1572.00 955.00" xmlns="http://www.w3.org/2000/svg" xmlns:xlink="http://www.w3.org/1999/xlink">
<g id="graph0" class="graph" transform="scale(1 1) rotate(0) translate(4 951)">
<title>dpp::guild_join_request_delete_t</title>
<!-- Node1 -->
<g id="node1" class="node">
<title>Node1</title>
<g id="a_node1"><a xlink:title="Guild join request delete (user declined membership screening)">
<polygon fill="#bfbfbf" stroke="black" points="1434,-147 1434,-177 1564,-177 1564,-147 1434,-147"/>
<text text-anchor="start" x="1442" y="-165" font-family="Helvetica,sans-Serif" font-size="10.00">dpp::guild_join_request</text>
<text text-anchor="middle" x="1499" y="-154" font-family="Helvetica,sans-Serif" font-size="10.00">_delete_t</text>
</a>
</g>
</g>
<!-- Node2 -->
<g id="node2" class="node">
<title>Node2</title>
<g id="a_node2"><a xlink:href="structdpp_1_1event__dispatch__t.html" target="_top" xlink:title="Base event parameter struct. Each event you receive from the library will have its parameter derived ...">
<polygon fill="none" stroke="black" points="1273,-645.5 1273,-664.5 1397,-664.5 1397,-645.5 1273,-645.5"/>
<text text-anchor="middle" x="1335" y="-652.5" font-family="Helvetica,sans-Serif" font-size="10.00">dpp::event_dispatch_t</text>
</a>
</g>
</g>
<!-- Node2&#45;&gt;Node1 -->
<g id="edge1" class="edge">
<title>Node2&#45;&gt;Node1</title>
<path fill="none" stroke="midnightblue" d="M1342.48,-635.28C1369.04,-554.46 1469.29,-249.38 1492.97,-177.32"/>
<polygon fill="midnightblue" stroke="midnightblue" points="1339.03,-634.56 1339.24,-645.15 1345.68,-636.74 1339.03,-634.56"/>
</g>
<!-- Node3 -->
<g id="node3" class="node">
<title>Node3</title>
<g id="a_node3"><a xlink:title=" ">
<polygon fill="none" stroke="#bfbfbf" points="258,-792.5 258,-811.5 323,-811.5 323,-792.5 258,-792.5"/>
<text text-anchor="middle" x="290.5" y="-799.5" font-family="Helvetica,sans-Serif" font-size="10.00">std::string</text>
</a>
</g>
</g>
<!-- Node3&#45;&gt;Node2 -->
<g id="edge2" class="edge">
<title>Node3&#45;&gt;Node2</title>
<path fill="none" stroke="#9a32cd" stroke-dasharray="5,2" d="M307.02,-819.45C331.84,-847.34 377.7,-898.86 378,-899 413.29,-916.23 1048.14,-950.02 1084,-934 1216.43,-874.85 1307.84,-707.04 1329.21,-664.76"/>
<polygon fill="#9a32cd" stroke="#9a32cd" points="309.33,-816.78 300.07,-811.64 304.11,-821.43 309.33,-816.78"/>
<text text-anchor="middle" x="866.5" y="-939" font-family="Helvetica,sans-Serif" font-size="10.00"> raw_event</text>
</g>
<!-- Node5 -->
<g id="node5" class="node">
<title>Node5</title>
<g id="a_node5"><a xlink:href="classdpp_1_1discord__client.html" target="_top" xlink:title="Implements a discord client. Each discord_client connects to one shard and derives from a websocket c...">
<polygon fill="none" stroke="black" points="1102,-645.5 1102,-664.5 1210,-664.5 1210,-645.5 1102,-645.5"/>
<text text-anchor="middle" x="1156" y="-652.5" font-family="Helvetica,sans-Serif" font-size="10.00">dpp::discord_client</text>
</a>
</g>
</g>
<!-- Node3&#45;&gt;Node5 -->
<g id="edge41" class="edge">
<title>Node3&#45;&gt;Node5</title>
<path fill="none" stroke="#9a32cd" stroke-dasharray="5,2" d="M304.51,-819.76C319.68,-838.82 346.71,-867.98 378,-880 428.2,-899.29 445.4,-884.4 499,-880 630.84,-869.19 977.28,-848.15 1084,-770 1122.05,-742.13 1144.12,-687.13 1151.85,-664.79"/>
<polygon fill="#9a32cd" stroke="#9a32cd" points="307.09,-817.38 298.22,-811.58 301.53,-821.64 307.09,-817.38"/>
<text text-anchor="middle" x="721.5" y="-892" font-family="Helvetica,sans-Serif" font-size="10.00"> resume_gateway_url</text>
<text text-anchor="middle" x="721.5" y="-881" font-family="Helvetica,sans-Serif" font-size="10.00">sessionid</text>
<text text-anchor="middle" x="721.5" y="-870" font-family="Helvetica,sans-Serif" font-size="10.00">token</text>
</g>
<!-- Node7 -->
<g id="node7" class="node">
<title>Node7</title>
<g id="a_node7"><a xlink:href="classdpp_1_1ssl__client.html" target="_top" xlink:title="Implements a simple non&#45;blocking SSL stream client.">
<polygon fill="none" stroke="black" points="535,-694.5 535,-713.5 621,-713.5 621,-694.5 535,-694.5"/>
<text text-anchor="middle" x="578" y="-701.5" font-family="Helvetica,sans-Serif" font-size="10.00">dpp::ssl_client</text>
</a>
</g>
</g>
<!-- Node3&#45;&gt;Node7 -->
<g id="edge7" class="edge">
<title>Node3&#45;&gt;Node7</title>
<path fill="none" stroke="#9a32cd" stroke-dasharray="5,2" d="M307.54,-784.75C323.69,-768.56 350.13,-745.08 378,-733 405.39,-721.13 484.98,-712.18 534.81,-707.54"/>
<polygon fill="#9a32cd" stroke="#9a32cd" points="304.93,-782.42 300.48,-792.03 309.96,-787.29 304.93,-782.42"/>
<text text-anchor="middle" x="438.5" y="-780" font-family="Helvetica,sans-Serif" font-size="10.00"> buffer</text>
<text text-anchor="middle" x="438.5" y="-769" font-family="Helvetica,sans-Serif" font-size="10.00">cipher</text>
<text text-anchor="middle" x="438.5" y="-758" font-family="Helvetica,sans-Serif" font-size="10.00">hostname</text>
<text text-anchor="middle" x="438.5" y="-747" font-family="Helvetica,sans-Serif" font-size="10.00">obuffer</text>
<text text-anchor="middle" x="438.5" y="-736" font-family="Helvetica,sans-Serif" font-size="10.00">port</text>
</g>
<!-- Node15 -->
<g id="node15" class="node">
<title>Node15</title>
<g id="a_node15"><a xlink:href="classdpp_1_1cluster.html" target="_top" xlink:title="The cluster class represents a group of shards and a command queue for sending and receiving commands...">
<polygon fill="none" stroke="black" points="829.5,-424.5 829.5,-443.5 903.5,-443.5 903.5,-424.5 829.5,-424.5"/>
<text text-anchor="middle" x="866.5" y="-431.5" font-family="Helvetica,sans-Serif" font-size="10.00">dpp::cluster</text>
</a>
</g>
</g>
<!-- Node3&#45;&gt;Node15 -->
<g id="edge17" class="edge">
<title>Node3&#45;&gt;Node15</title>
<path fill="none" stroke="#9a32cd" stroke-dasharray="5,2" d="M333.16,-802.99C440.34,-804.62 721.73,-802.79 786,-741 814.78,-713.33 794.6,-691.8 804,-653 823.81,-571.25 853.23,-473.93 862.55,-443.54"/>
<polygon fill="#9a32cd" stroke="#9a32cd" points="333.1,-799.49 323.05,-802.82 332.99,-806.49 333.1,-799.49"/>
<text text-anchor="middle" x="578" y="-803" font-family="Helvetica,sans-Serif" font-size="10.00"> token</text>
</g>
<!-- Node18 -->
<g id="node18" class="node">
<title>Node18</title>
<g id="a_node18"><a xlink:href="classdpp_1_1user.html" target="_top" xlink:title="Represents a user on discord. May or may not be a member of a dpp::guild.">
<polygon fill="none" stroke="black" points="547,-249.5 547,-268.5 609,-268.5 609,-249.5 547,-249.5"/>
<text text-anchor="middle" x="578" y="-256.5" font-family="Helvetica,sans-Serif" font-size="10.00">dpp::user</text>
</a>
</g>
</g>
<!-- Node3&#45;&gt;Node18 -->
<g id="edge26" class="edge">
<title>Node3&#45;&gt;Node18</title>
<path fill="none" stroke="#9a32cd" stroke-dasharray="5,2" d="M310.23,-785.56C326.43,-770.14 348.93,-745.52 360,-719 375.31,-682.31 354.04,-572.72 378,-541 412.87,-494.84 464.05,-539.1 499,-493 522.22,-462.38 500.75,-355.83 517,-321 527.39,-298.74 549.09,-279.56 563.35,-268.64"/>
<polygon fill="#9a32cd" stroke="#9a32cd" points="307.84,-783.01 302.87,-792.37 312.59,-788.15 307.84,-783.01"/>
<text text-anchor="middle" x="438.5" y="-544" font-family="Helvetica,sans-Serif" font-size="10.00"> username</text>
</g>
<!-- Node4 -->
<g id="node4" class="node">
<title>Node4</title>
<g id="a_node4"><a xlink:title=" ">
<polygon fill="none" stroke="#bfbfbf" points="17,-787 17,-817 121,-817 121,-787 17,-787"/>
<text text-anchor="start" x="25" y="-805" font-family="Helvetica,sans-Serif" font-size="10.00">std::basic_string&lt;</text>
<text text-anchor="middle" x="69" y="-794" font-family="Helvetica,sans-Serif" font-size="10.00"> Char &gt;</text>
</a>
</g>
</g>
<!-- Node4&#45;&gt;Node3 -->
<g id="edge3" class="edge">
<title>Node4&#45;&gt;Node3</title>
<path fill="none" stroke="midnightblue" d="M131.38,-802C172.53,-802 225.02,-802 257.96,-802"/>
<polygon fill="midnightblue" stroke="midnightblue" points="131.19,-798.5 121.19,-802 131.19,-805.5 131.19,-798.5"/>
</g>
<!-- Node5&#45;&gt;Node2 -->
<g id="edge4" class="edge">
<title>Node5&#45;&gt;Node2</title>
<path fill="none" stroke="#9a32cd" stroke-dasharray="5,2" d="M1220.52,-655C1237.56,-655 1255.94,-655 1272.85,-655"/>
<polygon fill="#9a32cd" stroke="#9a32cd" points="1220.11,-651.5 1210.11,-655 1220.11,-658.5 1220.11,-651.5"/>
<text text-anchor="middle" x="1241.5" y="-658" font-family="Helvetica,sans-Serif" font-size="10.00"> from</text>
</g>
<!-- Node6 -->
<g id="node6" class="node">
<title>Node6</title>
<g id="a_node6"><a xlink:href="classdpp_1_1websocket__client.html" target="_top" xlink:title="Implements a websocket client based on the SSL client.">
<polygon fill="none" stroke="black" points="804,-780.5 804,-799.5 929,-799.5 929,-780.5 804,-780.5"/>
<text text-anchor="middle" x="866.5" y="-787.5" font-family="Helvetica,sans-Serif" font-size="10.00">dpp::websocket_client</text>
</a>
</g>
</g>
<!-- Node6&#45;&gt;Node5 -->
<g id="edge5" class="edge">
<title>Node6&#45;&gt;Node5</title>
<path fill="none" stroke="midnightblue" d="M939.54,-781.1C983.69,-773.21 1039.98,-758.62 1084,-732 1113.25,-714.31 1137.83,-681.08 1148.82,-664.67"/>
<polygon fill="midnightblue" stroke="midnightblue" points="938.72,-777.69 929.45,-782.83 939.9,-784.59 938.72,-777.69"/>
</g>
<!-- Node7&#45;&gt;Node6 -->
<g id="edge6" class="edge">
<title>Node7&#45;&gt;Node6</title>
<path fill="none" stroke="midnightblue" d="M605.59,-718.34C620.4,-725.89 639.36,-734.82 657,-741 708.06,-758.88 768.43,-772.27 811.04,-780.49"/>
<polygon fill="midnightblue" stroke="midnightblue" points="607,-715.13 596.51,-713.63 603.78,-721.34 607,-715.13"/>
</g>
<!-- Node8 -->
<g id="node8" class="node">
<title>Node8</title>
<g id="a_node8"><a xlink:title=" ">
<polygon fill="none" stroke="#bfbfbf" points="271.5,-888.5 271.5,-907.5 309.5,-907.5 309.5,-888.5 271.5,-888.5"/>
<text text-anchor="middle" x="290.5" y="-895.5" font-family="Helvetica,sans-Serif" font-size="10.00">bool</text>
</a>
</g>
</g>
<!-- Node8&#45;&gt;Node5 -->
<g id="edge15" class="edge">
<title>Node8&#45;&gt;Node5</title>
<path fill="none" stroke="#9a32cd" stroke-dasharray="5,2" d="M318.56,-912.09C335.21,-919.96 357.26,-928.96 378,-933 480.91,-953.03 777.24,-907.68 786,-904 795.6,-899.97 794.78,-893.84 804,-889 918.39,-828.98 985.84,-894.98 1084,-811 1131.26,-770.57 1148.68,-692.18 1153.48,-664.76"/>
<polygon fill="#9a32cd" stroke="#9a32cd" points="319.95,-908.88 309.43,-907.64 316.88,-915.17 319.95,-908.88"/>
<text text-anchor="middle" x="721.5" y="-936" font-family="Helvetica,sans-Serif" font-size="10.00"> ready</text>
<text text-anchor="middle" x="721.5" y="-925" font-family="Helvetica,sans-Serif" font-size="10.00">terminating</text>
</g>
<!-- Node8&#45;&gt;Node7 -->
<g id="edge8" class="edge">
<title>Node8&#45;&gt;Node7</title>
<path fill="none" stroke="#9a32cd" stroke-dasharray="5,2" d="M319.22,-887.72C360.88,-871.46 440.94,-836.96 499,-792 529.83,-768.13 558.08,-730.89 570.43,-713.52"/>
<polygon fill="#9a32cd" stroke="#9a32cd" points="317.81,-884.52 309.73,-891.37 320.32,-891.05 317.81,-884.52"/>
<text text-anchor="middle" x="438.5" y="-898" font-family="Helvetica,sans-Serif" font-size="10.00"> keepalive</text>
<text text-anchor="middle" x="438.5" y="-887" font-family="Helvetica,sans-Serif" font-size="10.00">make_new</text>
<text text-anchor="middle" x="438.5" y="-876" font-family="Helvetica,sans-Serif" font-size="10.00">nonblocking</text>
<text text-anchor="middle" x="438.5" y="-865" font-family="Helvetica,sans-Serif" font-size="10.00">plaintext</text>
</g>
<!-- Node9 -->
<g id="node9" class="node">
<title>Node9</title>
<g id="a_node9"><a xlink:title=" ">
<polygon fill="none" stroke="#bfbfbf" points="276,-690.5 276,-709.5 305,-709.5 305,-690.5 276,-690.5"/>
<text text-anchor="middle" x="290.5" y="-697.5" font-family="Helvetica,sans-Serif" font-size="10.00">int</text>
</a>
</g>
</g>
<!-- Node9&#45;&gt;Node7 -->
<g id="edge9" class="edge">
<title>Node9&#45;&gt;Node7</title>
<path fill="none" stroke="#9a32cd" stroke-dasharray="5,2" d="M315.31,-699.32C353.89,-698.34 432.47,-696.87 499,-699 510.66,-699.37 523.29,-700.06 534.92,-700.81"/>
<polygon fill="#9a32cd" stroke="#9a32cd" points="315,-695.82 305.1,-699.59 315.19,-702.82 315,-695.82"/>
<text text-anchor="middle" x="438.5" y="-702" font-family="Helvetica,sans-Serif" font-size="10.00"> sfd</text>
</g>
<!-- Node10 -->
<g id="node10" class="node">
<title>Node10</title>
<g id="a_node10"><a xlink:title=" ">
<polygon fill="none" stroke="#bfbfbf" points="230,-652.5 230,-671.5 351,-671.5 351,-652.5 230,-652.5"/>
<text text-anchor="middle" x="290.5" y="-659.5" font-family="Helvetica,sans-Serif" font-size="10.00">openssl_connection *</text>
</a>
</g>
</g>
<!-- Node10&#45;&gt;Node7 -->
<g id="edge10" class="edge">
<title>Node10&#45;&gt;Node7</title>
<path fill="none" stroke="#9a32cd" stroke-dasharray="5,2" d="M361.37,-666.23C401.8,-669.39 453.53,-674.64 499,-683 514.72,-685.89 531.91,-690.37 546.14,-694.45"/>
<polygon fill="#9a32cd" stroke="#9a32cd" points="361.58,-662.74 351.34,-665.48 361.05,-669.72 361.58,-662.74"/>
<text text-anchor="middle" x="438.5" y="-686" font-family="Helvetica,sans-Serif" font-size="10.00"> ssl</text>
</g>
<!-- Node11 -->
<g id="node11" class="node">
<title>Node11</title>
<g id="a_node11"><a xlink:title=" ">
<polygon fill="none" stroke="#bfbfbf" points="266.5,-438.5 266.5,-457.5 314.5,-457.5 314.5,-438.5 266.5,-438.5"/>
<text text-anchor="middle" x="290.5" y="-445.5" font-family="Helvetica,sans-Serif" font-size="10.00">time_t</text>
</a>
</g>
</g>
<!-- Node11&#45;&gt;Node5 -->
<g id="edge38" class="edge">
<title>Node11&#45;&gt;Node5</title>
<path fill="none" stroke="#9a32cd" stroke-dasharray="5,2" d="M324.8,-445.28C377.09,-441.79 475.01,-438.71 499,-462 528.64,-490.77 490.93,-614.96 517,-647 552.84,-691.06 585.39,-666.25 639,-685 647.1,-687.83 648.63,-690.08 657,-692 749.47,-713.28 992.89,-720.53 1084,-694 1105.74,-687.67 1128.22,-673.88 1141.91,-664.51"/>
<polygon fill="#9a32cd" stroke="#9a32cd" points="324.4,-441.8 314.68,-446 324.9,-448.78 324.4,-441.8"/>
<text text-anchor="middle" x="721.5" y="-722" font-family="Helvetica,sans-Serif" font-size="10.00"> last_heartbeat</text>
<text text-anchor="middle" x="721.5" y="-711" font-family="Helvetica,sans-Serif" font-size="10.00">last_heartbeat_ack</text>
</g>
<!-- Node11&#45;&gt;Node7 -->
<g id="edge11" class="edge">
<title>Node11&#45;&gt;Node7</title>
<path fill="none" stroke="#9a32cd" stroke-dasharray="5,2" d="M324.86,-452.39C382.01,-460.05 493.1,-475.66 499,-482 529.1,-514.34 490.6,-644.57 517,-680 521.69,-686.3 528.31,-690.94 535.44,-694.37"/>
<polygon fill="#9a32cd" stroke="#9a32cd" points="325.23,-448.9 314.86,-451.05 324.31,-455.84 325.23,-448.9"/>
<text text-anchor="middle" x="438.5" y="-485" font-family="Helvetica,sans-Serif" font-size="10.00"> last_tick</text>
</g>
<!-- Node11&#45;&gt;Node15 -->
<g id="edge18" class="edge">
<title>Node11&#45;&gt;Node15</title>
<path fill="none" stroke="#9a32cd" stroke-dasharray="5,2" d="M324.57,-443.08C340.66,-440.87 360.3,-438.44 378,-437 546.29,-423.3 748.35,-429.13 829.34,-432.37"/>
<polygon fill="#9a32cd" stroke="#9a32cd" points="323.98,-439.63 314.57,-444.49 324.96,-446.56 323.98,-439.63"/>
<text text-anchor="middle" x="578" y="-433" font-family="Helvetica,sans-Serif" font-size="10.00"> last_identify</text>
</g>
<!-- Node12 -->
<g id="node12" class="node">
<title>Node12</title>
<g id="a_node12"><a xlink:title=" ">
<polygon fill="none" stroke="#bfbfbf" points="41,-147.5 41,-166.5 97,-166.5 97,-147.5 41,-147.5"/>
<text text-anchor="middle" x="69" y="-154.5" font-family="Helvetica,sans-Serif" font-size="10.00">uint64_t</text>
</a>
</g>
</g>
<!-- Node12&#45;&gt;Node1 -->
<g id="edge46" class="edge">
<title>Node12&#45;&gt;Node1</title>
<path fill="none" stroke="#9a32cd" stroke-dasharray="5,2" d="M82.66,-138.83C113.12,-97.5 194.98,0 289.5,0 289.5,0 289.5,0 1336,0 1418.53,0 1473.7,-106.43 1491.65,-146.76"/>
<polygon fill="#9a32cd" stroke="#9a32cd" points="79.66,-137.02 76.65,-147.18 85.34,-141.11 79.66,-137.02"/>
<text text-anchor="middle" x="866.5" y="-14" font-family="Helvetica,sans-Serif" font-size="10.00"> guild_id</text>
<text text-anchor="middle" x="866.5" y="-3" font-family="Helvetica,sans-Serif" font-size="10.00">user_id</text>
</g>
<!-- Node12&#45;&gt;Node5 -->
<g id="edge40" class="edge">
<title>Node12&#45;&gt;Node5</title>
<path fill="none" stroke="#9a32cd" stroke-dasharray="5,2" d="M88.72,-140.54C124.85,-110.54 207.86,-50 289.5,-50 289.5,-50 289.5,-50 867.5,-50 977.95,-50 1021.47,-80.96 1084,-172 1139.66,-253.04 1152.75,-583.88 1154.71,-645.2"/>
<polygon fill="#9a32cd" stroke="#9a32cd" points="86.32,-137.99 80.96,-147.13 90.85,-143.33 86.32,-137.99"/>
<text text-anchor="middle" x="578" y="-53" font-family="Helvetica,sans-Serif" font-size="10.00"> last_seq</text>
</g>
<!-- Node12&#45;&gt;Node7 -->
<g id="edge12" class="edge">
<title>Node12&#45;&gt;Node7</title>
<path fill="none" stroke="#9a32cd" stroke-dasharray="5,2" d="M74.21,-176.59C86.8,-230.54 129.07,-382.84 221,-467 276.1,-517.44 306.55,-505.19 378,-527 430.79,-543.11 461.65,-514.36 499,-555 536.98,-596.33 482.29,-635.89 517,-680 521.99,-686.35 528.93,-691.02 536.31,-694.47"/>
<polygon fill="#9a32cd" stroke="#9a32cd" points="77.58,-175.62 71.97,-166.63 70.75,-177.16 77.58,-175.62"/>
<text text-anchor="middle" x="290.5" y="-536" font-family="Helvetica,sans-Serif" font-size="10.00"> bytes_in</text>
<text text-anchor="middle" x="290.5" y="-525" font-family="Helvetica,sans-Serif" font-size="10.00">bytes_out</text>
</g>
<!-- Node19 -->
<g id="node19" class="node">
<title>Node19</title>
<g id="a_node19"><a xlink:href="classdpp_1_1managed.html" target="_top" xlink:title="The managed class is the base class for various types that can be stored in a cache that are identifi...">
<polygon fill="none" stroke="black" points="247.5,-192.5 247.5,-211.5 333.5,-211.5 333.5,-192.5 247.5,-192.5"/>
<text text-anchor="middle" x="290.5" y="-199.5" font-family="Helvetica,sans-Serif" font-size="10.00">dpp::managed</text>
</a>
</g>
</g>
<!-- Node12&#45;&gt;Node19 -->
<g id="edge23" class="edge">
<title>Node12&#45;&gt;Node19</title>
<path fill="none" stroke="#9a32cd" stroke-dasharray="5,2" d="M107.3,-167.83C122.34,-171.97 139.92,-176.53 156,-180 186.31,-186.53 220.86,-192.18 247.21,-196.11"/>
<polygon fill="#9a32cd" stroke="#9a32cd" points="107.91,-164.36 97.33,-165.04 106.02,-171.11 107.91,-164.36"/>
<text text-anchor="middle" x="179.5" y="-192" font-family="Helvetica,sans-Serif" font-size="10.00"> id</text>
</g>
<!-- Node22 -->
<g id="node22" class="node">
<title>Node22</title>
<g id="a_node22"><a xlink:href="structdpp_1_1utility_1_1iconhash.html" target="_top" xlink:title="Store a 128 bit icon hash (profile picture, server icon etc) as a 128 bit binary value made of two ui...">
<polygon fill="none" stroke="black" points="231.5,-154.5 231.5,-173.5 349.5,-173.5 349.5,-154.5 231.5,-154.5"/>
<text text-anchor="middle" x="290.5" y="-161.5" font-family="Helvetica,sans-Serif" font-size="10.00">dpp::utility::iconhash</text>
</a>
</g>
</g>
<!-- Node12&#45;&gt;Node22 -->
<g id="edge28" class="edge">
<title>Node12&#45;&gt;Node22</title>
<path fill="none" stroke="#9a32cd" stroke-dasharray="5,2" d="M107.07,-156.67C133.76,-156.58 170.61,-156.76 203,-158 212.18,-158.35 221.89,-158.88 231.37,-159.47"/>
<polygon fill="#9a32cd" stroke="#9a32cd" points="107,-153.17 97.01,-156.72 107.03,-160.17 107,-153.17"/>
<text text-anchor="middle" x="179.5" y="-172" font-family="Helvetica,sans-Serif" font-size="10.00"> first</text>
<text text-anchor="middle" x="179.5" y="-161" font-family="Helvetica,sans-Serif" font-size="10.00">second</text>
</g>
<!-- Node13 -->
<g id="node13" class="node">
<title>Node13</title>
<g id="a_node13"><a xlink:title=" ">
<polygon fill="none" stroke="#bfbfbf" points="221,-609.5 221,-628.5 360,-628.5 360,-609.5 221,-609.5"/>
<text text-anchor="middle" x="290.5" y="-616.5" font-family="Helvetica,sans-Serif" font-size="10.00">function&lt; dpp::socket()&gt;</text>
</a>
</g>
</g>
<!-- Node13&#45;&gt;Node7 -->
<g id="edge13" class="edge">
<title>Node13&#45;&gt;Node7</title>
<path fill="none" stroke="#9a32cd" stroke-dasharray="5,2" d="M370.2,-610.24C412,-609.63 462.19,-615.76 499,-642 514.22,-652.85 503.38,-667.2 517,-680 523.62,-686.22 532.06,-690.91 540.5,-694.41"/>
<polygon fill="#9a32cd" stroke="#9a32cd" points="369.95,-606.74 360.05,-610.52 370.14,-613.74 369.95,-606.74"/>
<text text-anchor="middle" x="438.5" y="-656" font-family="Helvetica,sans-Serif" font-size="10.00"> custom_readable_fd</text>
<text text-anchor="middle" x="438.5" y="-645" font-family="Helvetica,sans-Serif" font-size="10.00">custom_writeable_fd</text>
</g>
<!-- Node14 -->
<g id="node14" class="node">
<title>Node14</title>
<g id="a_node14"><a xlink:title=" ">
<polygon fill="none" stroke="#bfbfbf" points="238.5,-567.5 238.5,-586.5 342.5,-586.5 342.5,-567.5 238.5,-567.5"/>
<text text-anchor="middle" x="290.5" y="-574.5" font-family="Helvetica,sans-Serif" font-size="10.00">function&lt; void()&gt;</text>
</a>
</g>
</g>
<!-- Node14&#45;&gt;Node7 -->
<g id="edge14" class="edge">
<title>Node14&#45;&gt;Node7</title>
<path fill="none" stroke="#9a32cd" stroke-dasharray="5,2" d="M332.47,-565.05C378.67,-554.31 453.29,-545.63 499,-585 531.56,-613.05 489.69,-646.82 517,-680 522.21,-686.32 529.32,-690.99 536.83,-694.43"/>
<polygon fill="#9a32cd" stroke="#9a32cd" points="331.38,-561.71 322.51,-567.5 333.05,-568.51 331.38,-561.71"/>
<text text-anchor="middle" x="438.5" y="-599" font-family="Helvetica,sans-Serif" font-size="10.00"> custom_readable_ready</text>
<text text-anchor="middle" x="438.5" y="-588" font-family="Helvetica,sans-Serif" font-size="10.00">custom_writeable_ready</text>
</g>
<!-- Node15&#45;&gt;Node5 -->
<g id="edge16" class="edge">
<title>Node15&#45;&gt;Node5</title>
<path fill="none" stroke="#9a32cd" stroke-dasharray="5,2" d="M888.37,-450.04C944.5,-493.19 1097.48,-610.78 1142.42,-645.33"/>
<polygon fill="#9a32cd" stroke="#9a32cd" points="890.29,-447.1 880.22,-443.78 886.02,-452.65 890.29,-447.1"/>
<text text-anchor="middle" x="1015.5" y="-599" font-family="Helvetica,sans-Serif" font-size="10.00"> creator</text>
</g>
<!-- Node16 -->
<g id="node16" class="node">
<title>Node16</title>
<g id="a_node16"><a xlink:title=" ">
<polygon fill="none" stroke="#bfbfbf" points="262.5,-318.5 262.5,-337.5 318.5,-337.5 318.5,-318.5 262.5,-318.5"/>
<text text-anchor="middle" x="290.5" y="-325.5" font-family="Helvetica,sans-Serif" font-size="10.00">uint32_t</text>
</a>
</g>
</g>
<!-- Node16&#45;&gt;Node5 -->
<g id="edge37" class="edge">
<title>Node16&#45;&gt;Node5</title>
<path fill="none" stroke="#9a32cd" stroke-dasharray="5,2" d="M328.73,-324.47C370.33,-320.34 439.66,-312.93 499,-304 561.58,-294.58 576.99,-290.64 639,-278 647.03,-276.36 648.85,-274.89 657,-274 713.99,-267.74 731.58,-255.96 786,-274 942.77,-325.97 980.76,-367.09 1084,-496 1123.12,-544.85 1145.4,-618.66 1152.49,-645.12"/>
<polygon fill="#9a32cd" stroke="#9a32cd" points="328.38,-320.99 318.77,-325.45 329.06,-327.95 328.38,-320.99"/>
<text text-anchor="middle" x="721.5" y="-332" font-family="Helvetica,sans-Serif" font-size="10.00"> heartbeat_interval</text>
<text text-anchor="middle" x="721.5" y="-321" font-family="Helvetica,sans-Serif" font-size="10.00">intents</text>
<text text-anchor="middle" x="721.5" y="-310" font-family="Helvetica,sans-Serif" font-size="10.00">max_shards</text>
<text text-anchor="middle" x="721.5" y="-299" font-family="Helvetica,sans-Serif" font-size="10.00">reconnects</text>
<text text-anchor="middle" x="721.5" y="-288" font-family="Helvetica,sans-Serif" font-size="10.00">resumes</text>
<text text-anchor="middle" x="721.5" y="-277" font-family="Helvetica,sans-Serif" font-size="10.00">shard_id</text>
</g>
<!-- Node16&#45;&gt;Node15 -->
<g id="edge19" class="edge">
<title>Node16&#45;&gt;Node15</title>
<path fill="none" stroke="#9a32cd" stroke-dasharray="5,2" d="M328.63,-332.69C392.38,-340.96 526.61,-359.31 639,-381 706.61,-394.05 784.63,-413.22 829.21,-424.58"/>
<polygon fill="#9a32cd" stroke="#9a32cd" points="329.02,-329.21 318.66,-331.4 328.13,-336.15 329.02,-329.21"/>
<text text-anchor="middle" x="578" y="-417" font-family="Helvetica,sans-Serif" font-size="10.00"> cluster_id</text>
<text text-anchor="middle" x="578" y="-406" font-family="Helvetica,sans-Serif" font-size="10.00">intents</text>
<text text-anchor="middle" x="578" y="-395" font-family="Helvetica,sans-Serif" font-size="10.00">maxclusters</text>
<text text-anchor="middle" x="578" y="-384" font-family="Helvetica,sans-Serif" font-size="10.00">numshards</text>
</g>
<!-- Node16&#45;&gt;Node18 -->
<g id="edge29" class="edge">
<title>Node16&#45;&gt;Node18</title>
<path fill="none" stroke="#9a32cd" stroke-dasharray="5,2" d="M328.35,-320.23C338.92,-317.22 350.22,-313.21 360,-308 369.19,-303.1 368.54,-297.36 378,-293 393.08,-286.05 494.88,-270.76 546.74,-263.28"/>
<polygon fill="#9a32cd" stroke="#9a32cd" points="327.29,-316.89 318.51,-322.82 329.07,-323.66 327.29,-316.89"/>
<text text-anchor="middle" x="438.5" y="-296" font-family="Helvetica,sans-Serif" font-size="10.00"> flags</text>
</g>
<!-- Node17 -->
<g id="node17" class="node">
<title>Node17</title>
<g id="a_node17"><a xlink:title=" ">
<polygon fill="none" stroke="#bfbfbf" points="553,-580.5 553,-599.5 603,-599.5 603,-580.5 553,-580.5"/>
<text text-anchor="middle" x="578" y="-587.5" font-family="Helvetica,sans-Serif" font-size="10.00">double</text>
</a>
</g>
</g>
<!-- Node17&#45;&gt;Node5 -->
<g id="edge43" class="edge">
<title>Node17&#45;&gt;Node5</title>
<path fill="none" stroke="#9a32cd" stroke-dasharray="5,2" d="M612.87,-596.03C622.04,-598.85 631.49,-602.98 639,-609 651.43,-618.96 643.31,-631.84 657,-640 694.43,-662.31 981.47,-658.79 1101.99,-656.28"/>
<polygon fill="#9a32cd" stroke="#9a32cd" points="613.71,-592.63 603.15,-593.45 611.91,-599.39 613.71,-592.63"/>
<text text-anchor="middle" x="866.5" y="-662" font-family="Helvetica,sans-Serif" font-size="10.00"> websocket_ping</text>
</g>
<!-- Node17&#45;&gt;Node15 -->
<g id="edge20" class="edge">
<title>Node17&#45;&gt;Node15</title>
<path fill="none" stroke="#9a32cd" stroke-dasharray="5,2" d="M613.51,-590.78C664.84,-591.31 758.24,-589.69 786,-572 834.26,-541.24 856.46,-470 863.18,-443.85"/>
<polygon fill="#9a32cd" stroke="#9a32cd" points="613.28,-587.27 603.24,-590.63 613.19,-594.27 613.28,-587.27"/>
<text text-anchor="middle" x="721.5" y="-594" font-family="Helvetica,sans-Serif" font-size="10.00"> rest_ping</text>
</g>
<!-- Node18&#45;&gt;Node15 -->
<g id="edge21" class="edge">
<title>Node18&#45;&gt;Node15</title>
<path fill="none" stroke="#9a32cd" stroke-dasharray="5,2" d="M596.45,-276.06C608.7,-288.26 625.28,-305.25 639,-321 647.53,-330.79 645.88,-337.31 657,-344 706.9,-374.02 733.27,-342.28 786,-367 816.07,-381.1 843.99,-409.54 857.31,-424.43"/>
<polygon fill="#9a32cd" stroke="#9a32cd" points="598.67,-273.33 589.1,-268.79 593.75,-278.31 598.67,-273.33"/>
<text text-anchor="middle" x="721.5" y="-370" font-family="Helvetica,sans-Serif" font-size="10.00"> me</text>
</g>
<!-- Node19&#45;&gt;Node18 -->
<g id="edge22" class="edge">
<title>Node19&#45;&gt;Node18</title>
<path fill="none" stroke="midnightblue" d="M343.86,-199.61C387.13,-199.52 449.3,-203.83 499,-225 508.58,-229.08 507.86,-235 517,-240 526.2,-245.04 536.94,-248.97 546.77,-251.91"/>
<polygon fill="midnightblue" stroke="midnightblue" points="343.8,-196.11 333.84,-199.71 343.87,-203.11 343.8,-196.11"/>
</g>
<!-- Node20 -->
<g id="node20" class="node">
<title>Node20</title>
<g id="a_node20"><a xlink:href="structdpp_1_1json__interface.html" target="_top" xlink:title=" ">
<polygon fill="none" stroke="black" points="235.5,-269 235.5,-299 345.5,-299 345.5,-269 235.5,-269"/>
<text text-anchor="start" x="243.5" y="-287" font-family="Helvetica,sans-Serif" font-size="10.00">dpp::json_interface</text>
<text text-anchor="middle" x="290.5" y="-276" font-family="Helvetica,sans-Serif" font-size="10.00">&lt; user &gt;</text>
</a>
</g>
</g>
<!-- Node20&#45;&gt;Node18 -->
<g id="edge24" class="edge">
<title>Node20&#45;&gt;Node18</title>
<path fill="none" stroke="midnightblue" d="M355.96,-275.4C363.39,-274.53 370.85,-273.71 378,-273 437.8,-267.1 507.95,-262.77 546.95,-260.59"/>
<polygon fill="midnightblue" stroke="midnightblue" points="355.41,-271.94 345.9,-276.61 356.24,-278.89 355.41,-271.94"/>
</g>
<!-- Node21 -->
<g id="node21" class="node">
<title>Node21</title>
<g id="a_node21"><a xlink:href="structdpp_1_1json__interface.html" target="_top" xlink:title="Represents an interface for an object that can optionally implement functions for converting to and f...">
<polygon fill="none" stroke="black" points="0,-550.5 0,-569.5 138,-569.5 138,-550.5 0,-550.5"/>
<text text-anchor="middle" x="69" y="-557.5" font-family="Helvetica,sans-Serif" font-size="10.00">dpp::json_interface&lt; T &gt;</text>
</a>
</g>
</g>
<!-- Node21&#45;&gt;Node20 -->
<g id="edge25" class="edge">
<title>Node21&#45;&gt;Node20</title>
<path fill="none" stroke="orange" stroke-dasharray="5,2" d="M76.44,-540.77C92.97,-494.27 141.27,-374.75 221,-309 225.69,-305.13 231.03,-301.84 236.61,-299.04"/>
<polygon fill="orange" stroke="orange" points="73.05,-539.88 73.08,-550.48 79.66,-542.17 73.05,-539.88"/>
<text text-anchor="middle" x="179.5" y="-383" font-family="Helvetica,sans-Serif" font-size="10.00"> &lt; user &gt;</text>
</g>
<!-- Node22&#45;&gt;Node18 -->
<g id="edge27" class="edge">
<title>Node22&#45;&gt;Node18</title>
<path fill="none" stroke="#9a32cd" stroke-dasharray="5,2" d="M359.41,-153.67C403.75,-150.79 460.37,-154.93 499,-186 518.71,-201.85 498.98,-222.25 517,-240 525.02,-247.9 536.3,-252.52 546.91,-255.22"/>
<polygon fill="#9a32cd" stroke="#9a32cd" points="358.98,-150.19 349.29,-154.46 359.53,-157.17 358.98,-150.19"/>
<text text-anchor="middle" x="438.5" y="-189" font-family="Helvetica,sans-Serif" font-size="10.00"> avatar</text>
</g>
<!-- Node23 -->
<g id="node23" class="node">
<title>Node23</title>
<g id="a_node23"><a xlink:title=" ">
<polygon fill="none" stroke="#bfbfbf" points="262.5,-116.5 262.5,-135.5 318.5,-135.5 318.5,-116.5 262.5,-116.5"/>
<text text-anchor="middle" x="290.5" y="-123.5" font-family="Helvetica,sans-Serif" font-size="10.00">uint16_t</text>
</a>
</g>
</g>
<!-- Node23&#45;&gt;Node18 -->
<g id="edge30" class="edge">
<title>Node23&#45;&gt;Node18</title>
<path fill="none" stroke="#9a32cd" stroke-dasharray="5,2" d="M328.68,-123.06C381.54,-119.74 474.7,-117.32 499,-139 533.02,-169.36 486.93,-205.73 517,-240 524.57,-248.62 536.02,-253.37 546.9,-255.97"/>
<polygon fill="#9a32cd" stroke="#9a32cd" points="328.43,-119.57 318.68,-123.73 328.89,-126.56 328.43,-119.57"/>
<text text-anchor="middle" x="438.5" y="-142" font-family="Helvetica,sans-Serif" font-size="10.00"> discriminator</text>
</g>
<!-- Node24 -->
<g id="node24" class="node">
<title>Node24</title>
<g id="a_node24"><a xlink:title=" ">
<polygon fill="none" stroke="#bfbfbf" points="265.5,-230.5 265.5,-249.5 315.5,-249.5 315.5,-230.5 265.5,-230.5"/>
<text text-anchor="middle" x="290.5" y="-237.5" font-family="Helvetica,sans-Serif" font-size="10.00">uint8_t</text>
</a>
</g>
</g>
<!-- Node24&#45;&gt;Node18 -->
<g id="edge31" class="edge">
<title>Node24&#45;&gt;Node18</title>
<path fill="none" stroke="#9a32cd" stroke-dasharray="5,2" d="M325.74,-235.08C367.1,-230.03 438.62,-224.2 499,-234 507.32,-235.35 508.98,-237.39 517,-240 526.66,-243.14 537.23,-246.51 546.76,-249.52"/>
<polygon fill="#9a32cd" stroke="#9a32cd" points="325.13,-231.63 315.66,-236.36 326.02,-238.57 325.13,-231.63"/>
<text text-anchor="middle" x="438.5" y="-237" font-family="Helvetica,sans-Serif" font-size="10.00"> refcount</text>
</g>
<!-- Node25 -->
<g id="node25" class="node">
<title>Node25</title>
<g id="a_node25"><a xlink:href="structdpp_1_1cache__policy__t.html" target="_top" xlink:title="Represents the caching policy of the cluster.">
<polygon fill="none" stroke="black" points="521.5,-126.5 521.5,-145.5 634.5,-145.5 634.5,-126.5 521.5,-126.5"/>
<text text-anchor="middle" x="578" y="-133.5" font-family="Helvetica,sans-Serif" font-size="10.00">dpp::cache_policy_t</text>
</a>
</g>
</g>
<!-- Node25&#45;&gt;Node15 -->
<g id="edge32" class="edge">
<title>Node25&#45;&gt;Node15</title>
<path fill="none" stroke="#9a32cd" stroke-dasharray="5,2" d="M644.77,-139.34C690.15,-145.07 748.8,-159.82 786,-197 805.99,-216.98 795.34,-231.09 804,-258 824.54,-321.77 852.07,-397.49 861.86,-424.13"/>
<polygon fill="#9a32cd" stroke="#9a32cd" points="645.04,-135.84 634.71,-138.18 644.25,-142.8 645.04,-135.84"/>
<text text-anchor="middle" x="721.5" y="-200" font-family="Helvetica,sans-Serif" font-size="10.00"> cache_policy</text>
</g>
<!-- Node26 -->
<g id="node26" class="node">
<title>Node26</title>
<g id="a_node26"><a xlink:title=" ">
<polygon fill="none" stroke="#bfbfbf" points="226.5,-78.5 226.5,-97.5 354.5,-97.5 354.5,-78.5 226.5,-78.5"/>
<text text-anchor="middle" x="290.5" y="-85.5" font-family="Helvetica,sans-Serif" font-size="10.00">cache_policy_setting_t</text>
</a>
</g>
</g>
<!-- Node26&#45;&gt;Node25 -->
<g id="edge33" class="edge">
<title>Node26&#45;&gt;Node25</title>
<path fill="none" stroke="#9a32cd" stroke-dasharray="5,2" d="M355.62,-77.3C397.33,-72.7 452.43,-71.13 499,-85 525.98,-93.04 552.32,-113.71 566.42,-126.13"/>
<polygon fill="#9a32cd" stroke="#9a32cd" points="355.1,-73.84 345.59,-78.5 355.93,-80.79 355.1,-73.84"/>
<text text-anchor="middle" x="438.5" y="-110" font-family="Helvetica,sans-Serif" font-size="10.00"> emoji_policy</text>
<text text-anchor="middle" x="438.5" y="-99" font-family="Helvetica,sans-Serif" font-size="10.00">role_policy</text>
<text text-anchor="middle" x="438.5" y="-88" font-family="Helvetica,sans-Serif" font-size="10.00">user_policy</text>
</g>
<!-- Node27 -->
<g id="node27" class="node">
<title>Node27</title>
<g id="a_node27"><a xlink:title=" ">
<polygon fill="none" stroke="#bfbfbf" points="517,-618.5 517,-637.5 639,-637.5 639,-618.5 517,-618.5"/>
<text text-anchor="middle" x="578" y="-625.5" font-family="Helvetica,sans-Serif" font-size="10.00">websocket_protocol_t</text>
</a>
</g>
</g>
<!-- Node27&#45;&gt;Node5 -->
<g id="edge44" class="edge">
<title>Node27&#45;&gt;Node5</title>
<path fill="none" stroke="#9a32cd" stroke-dasharray="5,2" d="M616.33,-641.28C623.99,-644.46 631.88,-648.08 639,-652 647.65,-656.76 647.61,-661.96 657,-665 819.51,-717.55 1027.67,-683.06 1114.33,-664.56"/>
<polygon fill="#9a32cd" stroke="#9a32cd" points="617.41,-637.95 606.83,-637.5 614.83,-644.45 617.41,-637.95"/>
<text text-anchor="middle" x="866.5" y="-696" font-family="Helvetica,sans-Serif" font-size="10.00"> protocol</text>
</g>
<!-- Node27&#45;&gt;Node15 -->
<g id="edge34" class="edge">
<title>Node27&#45;&gt;Node15</title>
<path fill="none" stroke="#9a32cd" stroke-dasharray="5,2" d="M649.53,-637.04C692.71,-638.83 746.98,-633.97 786,-606 842.69,-565.37 860.01,-474.08 864.29,-443.9"/>
<polygon fill="#9a32cd" stroke="#9a32cd" points="649.55,-633.54 639.37,-636.49 649.17,-640.53 649.55,-633.54"/>
<text text-anchor="middle" x="721.5" y="-641" font-family="Helvetica,sans-Serif" font-size="10.00"> ws_mode</text>
</g>
<!-- Node28 -->
<g id="node28" class="node">
<title>Node28</title>
<g id="a_node28"><a xlink:title=" ">
<polygon fill="none" stroke="#bfbfbf" points="524.5,-211.5 524.5,-230.5 631.5,-230.5 631.5,-211.5 524.5,-211.5"/>
<text text-anchor="middle" x="578" y="-218.5" font-family="Helvetica,sans-Serif" font-size="10.00">condition_variable</text>
</a>
</g>
</g>
<!-- Node28&#45;&gt;Node15 -->
<g id="edge35" class="edge">
<title>Node28&#45;&gt;Node15</title>
<path fill="none" stroke="#9a32cd" stroke-dasharray="5,2" d="M641.62,-212.29C686.14,-209.55 745.05,-213.34 786,-244 847.54,-290.07 861.79,-392.77 864.77,-424.49"/>
<polygon fill="#9a32cd" stroke="#9a32cd" points="641.21,-208.81 631.5,-213.03 641.73,-215.79 641.21,-208.81"/>
<text text-anchor="middle" x="721.5" y="-247" font-family="Helvetica,sans-Serif" font-size="10.00"> terminating</text>
</g>
<!-- Node29 -->
<g id="node29" class="node">
<title>Node29</title>
<g id="a_node29"><a xlink:title=" ">
<polygon fill="none" stroke="#bfbfbf" points="530,-452.5 530,-471.5 626,-471.5 626,-452.5 530,-452.5"/>
<text text-anchor="middle" x="578" y="-459.5" font-family="Helvetica,sans-Serif" font-size="10.00">event_router_t&lt;</text>
</a>
</g>
</g>
<!-- Node29&#45;&gt;Node15 -->
<g id="edge36" class="edge">
<title>Node29&#45;&gt;Node15</title>
<path fill="none" stroke="#9a32cd" stroke-dasharray="5,2" d="M636.44,-453.51C643.36,-452.6 650.33,-451.74 657,-451 717.28,-444.3 787.64,-439.11 829.28,-436.31"/>
<polygon fill="#9a32cd" stroke="#9a32cd" points="635.82,-450.06 626.38,-454.86 636.76,-457 635.82,-450.06"/>
<text text-anchor="middle" x="721.5" y="-564" font-family="Helvetica,sans-Serif" font-size="10.00"> on_autocomplete</text>
<text text-anchor="middle" x="721.5" y="-553" font-family="Helvetica,sans-Serif" font-size="10.00">on_automod_rule_create</text>
<text text-anchor="middle" x="721.5" y="-542" font-family="Helvetica,sans-Serif" font-size="10.00">on_automod_rule_delete</text>
<text text-anchor="middle" x="721.5" y="-531" font-family="Helvetica,sans-Serif" font-size="10.00">on_automod_rule_execute</text>
<text text-anchor="middle" x="721.5" y="-520" font-family="Helvetica,sans-Serif" font-size="10.00">on_automod_rule_update</text>
<text text-anchor="middle" x="721.5" y="-509" font-family="Helvetica,sans-Serif" font-size="10.00">on_button_click</text>
<text text-anchor="middle" x="721.5" y="-498" font-family="Helvetica,sans-Serif" font-size="10.00">on_channel_create</text>
<text text-anchor="middle" x="721.5" y="-487" font-family="Helvetica,sans-Serif" font-size="10.00">on_channel_delete</text>
<text text-anchor="middle" x="721.5" y="-476" font-family="Helvetica,sans-Serif" font-size="10.00">on_channel_pins_update</text>
<text text-anchor="middle" x="721.5" y="-465" font-family="Helvetica,sans-Serif" font-size="10.00">on_channel_update</text>
<text text-anchor="middle" x="721.5" y="-454" font-family="Helvetica,sans-Serif" font-size="10.00">...</text>
</g>
<!-- Node30 -->
<g id="node30" class="node">
<title>Node30</title>
<g id="a_node30"><a xlink:title=" ">
<polygon fill="none" stroke="#bfbfbf" points="810,-229.5 810,-248.5 923,-248.5 923,-229.5 810,-229.5"/>
<text text-anchor="middle" x="866.5" y="-236.5" font-family="Helvetica,sans-Serif" font-size="10.00">native_handle_type</text>
</a>
</g>
</g>
<!-- Node30&#45;&gt;Node5 -->
<g id="edge39" class="edge">
<title>Node30&#45;&gt;Node5</title>
<path fill="none" stroke="#9a32cd" stroke-dasharray="5,2" d="M911.51,-227.3C960,-217.3 1037.3,-210.36 1084,-252 1145.11,-306.49 1153.73,-589.57 1154.85,-645.42"/>
<polygon fill="#9a32cd" stroke="#9a32cd" points="910.64,-223.91 901.62,-229.46 912.13,-230.74 910.64,-223.91"/>
<text text-anchor="middle" x="1015.5" y="-255" font-family="Helvetica,sans-Serif" font-size="10.00"> thread_id</text>
</g>
<!-- Node31 -->
<g id="node31" class="node">
<title>Node31</title>
<g id="a_node31"><a xlink:title=" ">
<polygon fill="none" stroke="#bfbfbf" points="832,-191.5 832,-210.5 901,-210.5 901,-191.5 832,-191.5"/>
<text text-anchor="middle" x="866.5" y="-198.5" font-family="Helvetica,sans-Serif" font-size="10.00">std::mutex</text>
</a>
</g>
</g>
<!-- Node31&#45;&gt;Node5 -->
<g id="edge42" class="edge">
<title>Node31&#45;&gt;Node5</title>
<path fill="none" stroke="#9a32cd" stroke-dasharray="5,2" d="M905.01,-188.67C952.71,-175.58 1034.77,-162.13 1084,-205 1153.19,-265.25 1155.29,-585.88 1155.07,-645.46"/>
<polygon fill="#9a32cd" stroke="#9a32cd" points="904.03,-185.31 895.38,-191.43 905.96,-192.04 904.03,-185.31"/>
<text text-anchor="middle" x="1015.5" y="-208" font-family="Helvetica,sans-Serif" font-size="10.00"> voice_mutex</text>
</g>
<!-- Node32 -->
<g id="node32" class="node">
<title>Node32</title>
<g id="a_node32"><a xlink:title=" ">
<polygon fill="none" stroke="#bfbfbf" points="816,-898.5 816,-917.5 917,-917.5 917,-898.5 816,-898.5"/>
<text text-anchor="middle" x="866.5" y="-905.5" font-family="Helvetica,sans-Serif" font-size="10.00">unordered_map&lt;</text>
</a>
</g>
</g>
<!-- Node32&#45;&gt;Node5 -->
<g id="edge45" class="edge">
<title>Node32&#45;&gt;Node5</title>
<path fill="none" stroke="#9a32cd" stroke-dasharray="5,2" d="M927.42,-917.81C975.11,-922.1 1040.81,-919.67 1084,-884 1153.97,-826.22 1156.26,-700.79 1155.4,-664.82"/>
<polygon fill="#9a32cd" stroke="#9a32cd" points="927.53,-914.3 917.22,-916.76 926.82,-921.26 927.53,-914.3"/>
<text text-anchor="middle" x="1015.5" y="-922" font-family="Helvetica,sans-Serif" font-size="10.00"> connecting_voice_channels</text>
</g>
</g>
</svg>
