<?xml version="1.0" encoding="UTF-8" standalone="no"?>
<!DOCTYPE svg PUBLIC "-//W3C//DTD SVG 1.1//EN"
 "http://www.w3.org/Graphics/SVG/1.1/DTD/svg11.dtd">
<!-- Generated by graphviz version 2.43.0 (0)
 -->
<!-- Title: dpp::interaction_create_t Pages: 1 -->
<svg width="1563pt" height="1365pt"
 viewBox="0.00 0.00 1563.00 1365.00" xmlns="http://www.w3.org/2000/svg" xmlns:xlink="http://www.w3.org/1999/xlink">
<g id="graph0" class="graph" transform="scale(1 1) rotate(0) translate(4 1361)">
<title>dpp::interaction_create_t</title>
<polygon fill="white" stroke="transparent" points="-4,4 -4,-1361 1559,-1361 1559,4 -4,4"/>
<!-- Node1 -->
<g id="node1" class="node">
<title>Node1</title>
<g id="a_node1"><a xlink:title="Create interaction.">
<polygon fill="#bfbfbf" stroke="black" points="1417,-424.5 1417,-443.5 1555,-443.5 1555,-424.5 1417,-424.5"/>
<text text-anchor="middle" x="1486" y="-431.5" font-family="Helvetica,sans-Serif" font-size="10.00">dpp::interaction_create_t</text>
</a>
</g>
</g>
<!-- Node2 -->
<g id="node2" class="node">
<title>Node2</title>
<g id="a_node2"><a xlink:href="structdpp_1_1event__dispatch__t.html" target="_top" xlink:title="Base event parameter struct. Each event you receive from the library will have its parameter derived ...">
<polygon fill="white" stroke="black" points="1256,-599.5 1256,-618.5 1380,-618.5 1380,-599.5 1256,-599.5"/>
<text text-anchor="middle" x="1318" y="-606.5" font-family="Helvetica,sans-Serif" font-size="10.00">dpp::event_dispatch_t</text>
</a>
</g>
</g>
<!-- Node2&#45;&gt;Node1 -->
<g id="edge1" class="edge">
<title>Node2&#45;&gt;Node1</title>
<path fill="none" stroke="midnightblue" d="M1335.12,-592C1369.38,-555.89 1448.52,-472.46 1475.66,-443.84"/>
<polygon fill="midnightblue" stroke="midnightblue" points="1332.5,-589.68 1328.16,-599.34 1337.58,-594.5 1332.5,-589.68"/>
</g>
<!-- Node3 -->
<g id="node3" class="node">
<title>Node3</title>
<g id="a_node3"><a xlink:title=" ">
<polygon fill="white" stroke="#bfbfbf" points="206.5,-864.5 206.5,-883.5 271.5,-883.5 271.5,-864.5 206.5,-864.5"/>
<text text-anchor="middle" x="239" y="-871.5" font-family="Helvetica,sans-Serif" font-size="10.00">std::string</text>
</a>
</g>
</g>
<!-- Node3&#45;&gt;Node2 -->
<g id="edge2" class="edge">
<title>Node3&#45;&gt;Node2</title>
<path fill="none" stroke="#9a32cd" stroke-dasharray="5,2" d="M274.26,-861.02C288.54,-856.02 305.4,-850.64 321,-847 441.58,-818.86 501.51,-887.83 597,-809 616.18,-793.16 596.38,-772.5 615,-756 663.32,-713.2 1094.01,-643.28 1255.87,-618.26"/>
<polygon fill="#9a32cd" stroke="#9a32cd" points="273.07,-857.73 264.83,-864.39 275.43,-864.32 273.07,-857.73"/>
<text text-anchor="middle" x="824.5" y="-711" font-family="Helvetica,sans-Serif" font-size="10.00"> raw_event</text>
</g>
<!-- Node5 -->
<g id="node5" class="node">
<title>Node5</title>
<g id="a_node5"><a xlink:href="classdpp_1_1discord__client.html" target="_top" xlink:title="Implements a discord client. Each discord_client connects to one shard and derives from a websocket c...">
<polygon fill="white" stroke="black" points="1060,-1083.5 1060,-1102.5 1168,-1102.5 1168,-1083.5 1060,-1083.5"/>
<text text-anchor="middle" x="1114" y="-1090.5" font-family="Helvetica,sans-Serif" font-size="10.00">dpp::discord_client</text>
</a>
</g>
</g>
<!-- Node3&#45;&gt;Node5 -->
<g id="edge38" class="edge">
<title>Node3&#45;&gt;Node5</title>
<path fill="none" stroke="#9a32cd" stroke-dasharray="5,2" d="M260.76,-890.48C273.89,-901.58 290.66,-917.06 303,-933 313.23,-946.21 308.49,-954.93 321,-966 364.32,-1004.35 404.47,-969.97 442,-1014 465.92,-1042.07 431.62,-1071.45 460,-1095 559.55,-1177.6 913.1,-1115.82 1042,-1105 1048.85,-1104.43 1056.04,-1103.54 1063.09,-1102.51"/>
<polygon fill="#9a32cd" stroke="#9a32cd" points="262.67,-887.52 252.73,-883.85 258.22,-892.92 262.67,-887.52"/>
<text text-anchor="middle" x="679.5" y="-1152" font-family="Helvetica,sans-Serif" font-size="10.00"> sessionid</text>
<text text-anchor="middle" x="679.5" y="-1141" font-family="Helvetica,sans-Serif" font-size="10.00">token</text>
</g>
<!-- Node7 -->
<g id="node7" class="node">
<title>Node7</title>
<g id="a_node7"><a xlink:href="classdpp_1_1ssl__client.html" target="_top" xlink:title="Implements a simple non&#45;blocking SSL stream client.">
<polygon fill="white" stroke="black" points="485.5,-1157.5 485.5,-1176.5 571.5,-1176.5 571.5,-1157.5 485.5,-1157.5"/>
<text text-anchor="middle" x="528.5" y="-1164.5" font-family="Helvetica,sans-Serif" font-size="10.00">dpp::ssl_client</text>
</a>
</g>
</g>
<!-- Node3&#45;&gt;Node7 -->
<g id="edge7" class="edge">
<title>Node3&#45;&gt;Node7</title>
<path fill="none" stroke="#9a32cd" stroke-dasharray="5,2" d="M262.41,-889.53C276.15,-900.21 292.97,-915.58 303,-933 320.75,-963.83 295.36,-986.34 321,-1011 360.45,-1048.95 403.61,-994.98 442,-1034 474.9,-1067.44 430.94,-1101.18 460,-1138 467.03,-1146.91 477.33,-1153.13 487.78,-1157.45"/>
<polygon fill="#9a32cd" stroke="#9a32cd" points="264.45,-886.69 254.34,-883.51 260.27,-892.3 264.45,-886.69"/>
<text text-anchor="middle" x="381.5" y="-1081" font-family="Helvetica,sans-Serif" font-size="10.00"> buffer</text>
<text text-anchor="middle" x="381.5" y="-1070" font-family="Helvetica,sans-Serif" font-size="10.00">cipher</text>
<text text-anchor="middle" x="381.5" y="-1059" font-family="Helvetica,sans-Serif" font-size="10.00">hostname</text>
<text text-anchor="middle" x="381.5" y="-1048" font-family="Helvetica,sans-Serif" font-size="10.00">obuffer</text>
<text text-anchor="middle" x="381.5" y="-1037" font-family="Helvetica,sans-Serif" font-size="10.00">port</text>
</g>
<!-- Node16 -->
<g id="node16" class="node">
<title>Node16</title>
<g id="a_node16"><a xlink:href="classdpp_1_1cluster.html" target="_top" xlink:title="The cluster class represents a group of shards and a command queue for sending and receiving commands...">
<polygon fill="white" stroke="black" points="787.5,-802.5 787.5,-821.5 861.5,-821.5 861.5,-802.5 787.5,-802.5"/>
<text text-anchor="middle" x="824.5" y="-809.5" font-family="Helvetica,sans-Serif" font-size="10.00">dpp::cluster</text>
</a>
</g>
</g>
<!-- Node3&#45;&gt;Node16 -->
<g id="edge17" class="edge">
<title>Node3&#45;&gt;Node16</title>
<path fill="none" stroke="#9a32cd" stroke-dasharray="5,2" d="M281.64,-886.19C294.25,-889.79 308.16,-893.65 321,-897 450.97,-930.91 481.6,-951.34 615,-967 671.94,-973.69 695.08,-996.89 744,-967 798.45,-933.73 817.15,-850.01 822.04,-821.6"/>
<polygon fill="#9a32cd" stroke="#9a32cd" points="282.42,-882.78 271.84,-883.38 280.49,-889.51 282.42,-882.78"/>
<text text-anchor="middle" x="528.5" y="-968" font-family="Helvetica,sans-Serif" font-size="10.00"> token</text>
</g>
<!-- Node19 -->
<g id="node19" class="node">
<title>Node19</title>
<g id="a_node19"><a xlink:href="classdpp_1_1user.html" target="_top" xlink:title="Represents a user on discord. May or may not be a member of a dpp::guild.">
<polygon fill="white" stroke="black" points="497.5,-450.5 497.5,-469.5 559.5,-469.5 559.5,-450.5 497.5,-450.5"/>
<text text-anchor="middle" x="528.5" y="-457.5" font-family="Helvetica,sans-Serif" font-size="10.00">dpp::user</text>
</a>
</g>
</g>
<!-- Node3&#45;&gt;Node19 -->
<g id="edge24" class="edge">
<title>Node3&#45;&gt;Node19</title>
<path fill="none" stroke="#9a32cd" stroke-dasharray="5,2" d="M252.72,-855.68C302.59,-783.87 483.84,-522.87 520.87,-469.55"/>
<polygon fill="#9a32cd" stroke="#9a32cd" points="249.65,-853.96 246.82,-864.17 255.4,-857.96 249.65,-853.96"/>
<text text-anchor="middle" x="381.5" y="-755" font-family="Helvetica,sans-Serif" font-size="10.00"> username</text>
</g>
<!-- Node31 -->
<g id="node31" class="node">
<title>Node31</title>
<g id="a_node31"><a xlink:href="classdpp_1_1interaction.html" target="_top" xlink:title="An interaction represents a user running a command and arrives via the dpp::cluster::on_interaction_c...">
<polygon fill="white" stroke="black" points="778,-374.5 778,-393.5 871,-393.5 871,-374.5 778,-374.5"/>
<text text-anchor="middle" x="824.5" y="-381.5" font-family="Helvetica,sans-Serif" font-size="10.00">dpp::interaction</text>
</a>
</g>
</g>
<!-- Node3&#45;&gt;Node31 -->
<g id="edge57" class="edge">
<title>Node3&#45;&gt;Node31</title>
<path fill="none" stroke="#9a32cd" stroke-dasharray="5,2" d="M259.24,-858.17C274.99,-845.92 298.29,-829.35 321,-819 436.46,-766.39 499,-826.6 597,-746 611.12,-734.38 601.5,-721.34 615,-709 660.27,-667.62 702.46,-705.12 744,-660 744.3,-659.67 806.58,-442.92 820.68,-393.81"/>
<polygon fill="#9a32cd" stroke="#9a32cd" points="256.97,-855.5 251.32,-864.46 261.33,-860.98 256.97,-855.5"/>
<text text-anchor="middle" x="528.5" y="-797" font-family="Helvetica,sans-Serif" font-size="10.00"> token</text>
</g>
<!-- Node33 -->
<g id="node33" class="node">
<title>Node33</title>
<g id="a_node33"><a xlink:href="classdpp_1_1guild__member.html" target="_top" xlink:title="Represents dpp::user membership upon a dpp::guild. This contains the user&#39;s nickname,...">
<polygon fill="white" stroke="black" points="473,-183.5 473,-202.5 584,-202.5 584,-183.5 473,-183.5"/>
<text text-anchor="middle" x="528.5" y="-190.5" font-family="Helvetica,sans-Serif" font-size="10.00">dpp::guild_member</text>
</a>
</g>
</g>
<!-- Node3&#45;&gt;Node33 -->
<g id="edge50" class="edge">
<title>Node3&#45;&gt;Node33</title>
<path fill="none" stroke="#9a32cd" stroke-dasharray="5,2" d="M249.99,-855.22C264.49,-826.99 290.93,-771.51 303,-721 314.86,-671.35 289.65,-532.29 321,-492 355.87,-447.19 407.17,-495.84 442,-451 473.99,-409.81 428.31,-258.42 460,-217 464.84,-210.68 471.47,-206.02 478.71,-202.58"/>
<polygon fill="#9a32cd" stroke="#9a32cd" points="246.76,-853.85 245.24,-864.33 252.97,-857.09 246.76,-853.85"/>
<text text-anchor="middle" x="381.5" y="-495" font-family="Helvetica,sans-Serif" font-size="10.00"> nickname</text>
</g>
<!-- Node4 -->
<g id="node4" class="node">
<title>Node4</title>
<g id="a_node4"><a xlink:title=" ">
<polygon fill="white" stroke="#bfbfbf" points="0,-1096 0,-1126 104,-1126 104,-1096 0,-1096"/>
<text text-anchor="start" x="8" y="-1114" font-family="Helvetica,sans-Serif" font-size="10.00">std::basic_string&lt;</text>
<text text-anchor="middle" x="52" y="-1103" font-family="Helvetica,sans-Serif" font-size="10.00"> Char &gt;</text>
</a>
</g>
</g>
<!-- Node4&#45;&gt;Node3 -->
<g id="edge3" class="edge">
<title>Node4&#45;&gt;Node3</title>
<path fill="none" stroke="midnightblue" d="M66.96,-1087.27C88.2,-1052.01 130.86,-984.4 175,-933 191.21,-914.13 212.88,-894.92 226.12,-883.75"/>
<polygon fill="midnightblue" stroke="midnightblue" points="63.92,-1085.54 61.79,-1095.92 69.93,-1089.13 63.92,-1085.54"/>
</g>
<!-- Node5&#45;&gt;Node2 -->
<g id="edge4" class="edge">
<title>Node5&#45;&gt;Node2</title>
<path fill="none" stroke="#9a32cd" stroke-dasharray="5,2" d="M1122.99,-1073.85C1156.9,-992.62 1288.18,-678.05 1312.96,-618.69"/>
<polygon fill="#9a32cd" stroke="#9a32cd" points="1119.66,-1072.76 1119.04,-1083.33 1126.12,-1075.45 1119.66,-1072.76"/>
<text text-anchor="middle" x="1212" y="-926" font-family="Helvetica,sans-Serif" font-size="10.00"> from</text>
</g>
<!-- Node6 -->
<g id="node6" class="node">
<title>Node6</title>
<g id="a_node6"><a xlink:href="classdpp_1_1websocket__client.html" target="_top" xlink:title="Implements a websocket client based on the SSL client.">
<polygon fill="white" stroke="black" points="762,-1236.5 762,-1255.5 887,-1255.5 887,-1236.5 762,-1236.5"/>
<text text-anchor="middle" x="824.5" y="-1243.5" font-family="Helvetica,sans-Serif" font-size="10.00">dpp::websocket_client</text>
</a>
</g>
</g>
<!-- Node6&#45;&gt;Node5 -->
<g id="edge5" class="edge">
<title>Node6&#45;&gt;Node5</title>
<path fill="none" stroke="midnightblue" d="M897.09,-1255.75C942.23,-1258.17 999.76,-1254.06 1042,-1226 1086.91,-1196.17 1105.52,-1128.23 1111.07,-1102.82"/>
<polygon fill="midnightblue" stroke="midnightblue" points="897.28,-1252.26 887.08,-1255.1 896.83,-1259.24 897.28,-1252.26"/>
</g>
<!-- Node7&#45;&gt;Node6 -->
<g id="edge6" class="edge">
<title>Node7&#45;&gt;Node6</title>
<path fill="none" stroke="midnightblue" d="M574.7,-1179.14C633.33,-1194.9 734.42,-1222.06 787.91,-1236.44"/>
<polygon fill="midnightblue" stroke="midnightblue" points="575.53,-1175.74 564.96,-1176.53 573.71,-1182.5 575.53,-1175.74"/>
</g>
<!-- Node8 -->
<g id="node8" class="node">
<title>Node8</title>
<g id="a_node8"><a xlink:title=" ">
<polygon fill="white" stroke="#bfbfbf" points="220,-1276.5 220,-1295.5 258,-1295.5 258,-1276.5 220,-1276.5"/>
<text text-anchor="middle" x="239" y="-1283.5" font-family="Helvetica,sans-Serif" font-size="10.00">bool</text>
</a>
</g>
</g>
<!-- Node8&#45;&gt;Node5 -->
<g id="edge41" class="edge">
<title>Node8&#45;&gt;Node5</title>
<path fill="none" stroke="#9a32cd" stroke-dasharray="5,2" d="M268.09,-1288.86C394.97,-1301.2 913.88,-1345.36 1042,-1256 1095.42,-1218.74 1109.01,-1132.17 1112.14,-1102.89"/>
<polygon fill="#9a32cd" stroke="#9a32cd" points="268.31,-1285.36 258.02,-1287.87 267.63,-1292.33 268.31,-1285.36"/>
<text text-anchor="middle" x="679.5" y="-1313" font-family="Helvetica,sans-Serif" font-size="10.00"> ready</text>
</g>
<!-- Node8&#45;&gt;Node7 -->
<g id="edge8" class="edge">
<title>Node8&#45;&gt;Node7</title>
<path fill="none" stroke="#9a32cd" stroke-dasharray="5,2" d="M268.28,-1281.04C322.95,-1271.41 438.13,-1250.98 442,-1249 476.97,-1231.11 507.35,-1194.27 520.53,-1176.71"/>
<polygon fill="#9a32cd" stroke="#9a32cd" points="267.45,-1277.63 258.21,-1282.81 268.66,-1284.52 267.45,-1277.63"/>
<text text-anchor="middle" x="381.5" y="-1274" font-family="Helvetica,sans-Serif" font-size="10.00"> nonblocking</text>
</g>
<!-- Node9 -->
<g id="node9" class="node">
<title>Node9</title>
<g id="a_node9"><a xlink:title=" ">
<polygon fill="white" stroke="#bfbfbf" points="224.5,-1126.5 224.5,-1145.5 253.5,-1145.5 253.5,-1126.5 224.5,-1126.5"/>
<text text-anchor="middle" x="239" y="-1133.5" font-family="Helvetica,sans-Serif" font-size="10.00">int</text>
</a>
</g>
</g>
<!-- Node9&#45;&gt;Node7 -->
<g id="edge9" class="edge">
<title>Node9&#45;&gt;Node7</title>
<path fill="none" stroke="#9a32cd" stroke-dasharray="5,2" d="M263.78,-1137.64C301.59,-1140.35 377.73,-1146.26 442,-1154 456.16,-1155.71 471.59,-1157.94 485.39,-1160.07"/>
<polygon fill="#9a32cd" stroke="#9a32cd" points="263.97,-1134.14 253.75,-1136.93 263.47,-1141.13 263.97,-1134.14"/>
<text text-anchor="middle" x="381.5" y="-1157" font-family="Helvetica,sans-Serif" font-size="10.00"> sfd</text>
</g>
<!-- Node10 -->
<g id="node10" class="node">
<title>Node10</title>
<g id="a_node10"><a xlink:href="classdpp_1_1opensslcontext.html" target="_top" xlink:title="This is an opaque class containing openssl library specific structures. We define it this way so that...">
<polygon fill="white" stroke="black" points="181.5,-1227.5 181.5,-1246.5 296.5,-1246.5 296.5,-1227.5 181.5,-1227.5"/>
<text text-anchor="middle" x="239" y="-1234.5" font-family="Helvetica,sans-Serif" font-size="10.00">dpp::opensslcontext</text>
</a>
</g>
</g>
<!-- Node10&#45;&gt;Node7 -->
<g id="edge10" class="edge">
<title>Node10&#45;&gt;Node7</title>
<path fill="none" stroke="#9a32cd" stroke-dasharray="5,2" d="M306.74,-1236.43C346.78,-1234.46 398.27,-1229.01 442,-1215 469.56,-1206.17 498.22,-1187.9 514.37,-1176.62"/>
<polygon fill="#9a32cd" stroke="#9a32cd" points="306.39,-1232.94 296.55,-1236.87 306.69,-1239.94 306.39,-1232.94"/>
<text text-anchor="middle" x="381.5" y="-1239" font-family="Helvetica,sans-Serif" font-size="10.00"> ssl</text>
</g>
<!-- Node11 -->
<g id="node11" class="node">
<title>Node11</title>
<g id="a_node11"><a xlink:title=" ">
<polygon fill="white" stroke="#bfbfbf" points="31,-1208.5 31,-1227.5 73,-1227.5 73,-1208.5 31,-1208.5"/>
<text text-anchor="middle" x="52" y="-1215.5" font-family="Helvetica,sans-Serif" font-size="10.00">SSL *</text>
</a>
</g>
</g>
<!-- Node11&#45;&gt;Node10 -->
<g id="edge11" class="edge">
<title>Node11&#45;&gt;Node10</title>
<path fill="none" stroke="#9a32cd" stroke-dasharray="5,2" d="M83.52,-1218.48C104.29,-1219.05 132.37,-1220.29 157,-1223 167.21,-1224.12 178.09,-1225.72 188.45,-1227.44"/>
<polygon fill="#9a32cd" stroke="#9a32cd" points="83.47,-1214.98 73.38,-1218.24 83.3,-1221.98 83.47,-1214.98"/>
<text text-anchor="middle" x="139.5" y="-1226" font-family="Helvetica,sans-Serif" font-size="10.00"> ssl</text>
</g>
<!-- Node12 -->
<g id="node12" class="node">
<title>Node12</title>
<g id="a_node12"><a xlink:title=" ">
<polygon fill="white" stroke="#bfbfbf" points="18.5,-1246.5 18.5,-1265.5 85.5,-1265.5 85.5,-1246.5 18.5,-1246.5"/>
<text text-anchor="middle" x="52" y="-1253.5" font-family="Helvetica,sans-Serif" font-size="10.00">SSL_CTX *</text>
</a>
</g>
</g>
<!-- Node12&#45;&gt;Node10 -->
<g id="edge12" class="edge">
<title>Node12&#45;&gt;Node10</title>
<path fill="none" stroke="#9a32cd" stroke-dasharray="5,2" d="M95.73,-1251.61C121.18,-1249 153.79,-1245.65 181.37,-1242.82"/>
<polygon fill="#9a32cd" stroke="#9a32cd" points="95.24,-1248.14 85.65,-1252.65 95.95,-1255.11 95.24,-1248.14"/>
<text text-anchor="middle" x="139.5" y="-1251" font-family="Helvetica,sans-Serif" font-size="10.00"> ctx</text>
</g>
<!-- Node13 -->
<g id="node13" class="node">
<title>Node13</title>
<g id="a_node13"><a xlink:title=" ">
<polygon fill="white" stroke="#bfbfbf" points="215,-692.5 215,-711.5 263,-711.5 263,-692.5 215,-692.5"/>
<text text-anchor="middle" x="239" y="-699.5" font-family="Helvetica,sans-Serif" font-size="10.00">time_t</text>
</a>
</g>
</g>
<!-- Node13&#45;&gt;Node5 -->
<g id="edge35" class="edge">
<title>Node13&#45;&gt;Node5</title>
<path fill="none" stroke="#9a32cd" stroke-dasharray="5,2" d="M264.99,-687.44C304.87,-664.83 385.99,-621.46 460,-598 640.9,-540.64 703.09,-551.17 887,-598 957.15,-615.86 994.9,-593.04 1042,-648 1100.92,-716.76 1111.34,-1025.06 1112.79,-1083.44"/>
<polygon fill="#9a32cd" stroke="#9a32cd" points="263.16,-684.45 256.21,-692.45 266.63,-690.53 263.16,-684.45"/>
<text text-anchor="middle" x="679.5" y="-580" font-family="Helvetica,sans-Serif" font-size="10.00"> last_heartbeat</text>
<text text-anchor="middle" x="679.5" y="-569" font-family="Helvetica,sans-Serif" font-size="10.00">last_heartbeat_ack</text>
</g>
<!-- Node13&#45;&gt;Node7 -->
<g id="edge13" class="edge">
<title>Node13&#45;&gt;Node7</title>
<path fill="none" stroke="#9a32cd" stroke-dasharray="5,2" d="M259.78,-718.19C308.53,-758.29 431.25,-860.5 442,-882 484.48,-966.98 421.37,-1008.2 460,-1095 471.91,-1121.77 498.03,-1144.9 514.06,-1157.31"/>
<polygon fill="#9a32cd" stroke="#9a32cd" points="261.79,-715.31 251.84,-711.67 257.35,-720.72 261.79,-715.31"/>
<text text-anchor="middle" x="381.5" y="-885" font-family="Helvetica,sans-Serif" font-size="10.00"> last_tick</text>
</g>
<!-- Node13&#45;&gt;Node16 -->
<g id="edge18" class="edge">
<title>Node13&#45;&gt;Node16</title>
<path fill="none" stroke="#9a32cd" stroke-dasharray="5,2" d="M273.37,-703.72C371.35,-709.1 656.8,-727.14 744,-759 771.27,-768.96 798.4,-790.07 812.85,-802.43"/>
<polygon fill="#9a32cd" stroke="#9a32cd" points="273.34,-700.21 263.16,-703.17 272.96,-707.2 273.34,-700.21"/>
<text text-anchor="middle" x="528.5" y="-734" font-family="Helvetica,sans-Serif" font-size="10.00"> last_identify</text>
</g>
<!-- Node13&#45;&gt;Node33 -->
<g id="edge53" class="edge">
<title>Node13&#45;&gt;Node33</title>
<path fill="none" stroke="#9a32cd" stroke-dasharray="5,2" d="M251.62,-683.85C266.54,-659.5 291.82,-614.39 303,-572 310.92,-541.96 300.06,-315.95 321,-293 357.7,-252.79 400.73,-309.5 442,-274 462.14,-256.68 441.55,-236.12 460,-217 466.13,-210.65 474.05,-205.97 482.3,-202.53"/>
<polygon fill="#9a32cd" stroke="#9a32cd" points="248.61,-682.06 246.29,-692.4 254.55,-685.77 248.61,-682.06"/>
<text text-anchor="middle" x="381.5" y="-307" font-family="Helvetica,sans-Serif" font-size="10.00"> joined_at</text>
<text text-anchor="middle" x="381.5" y="-296" font-family="Helvetica,sans-Serif" font-size="10.00">premium_since</text>
</g>
<!-- Node14 -->
<g id="node14" class="node">
<title>Node14</title>
<g id="a_node14"><a xlink:title=" ">
<polygon fill="white" stroke="#bfbfbf" points="24,-391.5 24,-410.5 80,-410.5 80,-391.5 24,-391.5"/>
<text text-anchor="middle" x="52" y="-398.5" font-family="Helvetica,sans-Serif" font-size="10.00">uint64_t</text>
</a>
</g>
</g>
<!-- Node14&#45;&gt;Node5 -->
<g id="edge37" class="edge">
<title>Node14&#45;&gt;Node5</title>
<path fill="none" stroke="#9a32cd" stroke-dasharray="5,2" d="M60.31,-419.99C75.46,-456.52 114.08,-536.13 175,-572 337.66,-667.78 418.48,-558.67 597,-620 605.87,-623.05 606.42,-627.23 615,-631 669.61,-654.99 690.38,-641.88 744,-668 891.06,-739.63 944.9,-752.36 1042,-884 1090.68,-950 1107.59,-1051.7 1111.82,-1083.3"/>
<polygon fill="#9a32cd" stroke="#9a32cd" points="63.48,-418.49 56.5,-410.52 56.98,-421.1 63.48,-418.49"/>
<text text-anchor="middle" x="528.5" y="-623" font-family="Helvetica,sans-Serif" font-size="10.00"> last_seq</text>
</g>
<!-- Node14&#45;&gt;Node7 -->
<g id="edge14" class="edge">
<title>Node14&#45;&gt;Node7</title>
<path fill="none" stroke="#9a32cd" stroke-dasharray="5,2" d="M52.64,-420.68C52.14,-497.41 58.6,-781.55 175,-971 218.68,-1042.09 248.61,-1047.51 321,-1089 352.42,-1107.01 450,-1140.94 498.93,-1157.47"/>
<polygon fill="#9a32cd" stroke="#9a32cd" points="56.14,-420.59 52.76,-410.55 49.14,-420.51 56.14,-420.59"/>
<text text-anchor="middle" x="239" y="-1093" font-family="Helvetica,sans-Serif" font-size="10.00"> bytes_in</text>
<text text-anchor="middle" x="239" y="-1082" font-family="Helvetica,sans-Serif" font-size="10.00">bytes_out</text>
</g>
<!-- Node20 -->
<g id="node20" class="node">
<title>Node20</title>
<g id="a_node20"><a xlink:href="classdpp_1_1managed.html" target="_top" xlink:title="The managed class is the base class for various types that can be stored in a cache that are identifi...">
<polygon fill="white" stroke="black" points="196,-437.5 196,-456.5 282,-456.5 282,-437.5 196,-437.5"/>
<text text-anchor="middle" x="239" y="-444.5" font-family="Helvetica,sans-Serif" font-size="10.00">dpp::managed</text>
</a>
</g>
</g>
<!-- Node14&#45;&gt;Node20 -->
<g id="edge23" class="edge">
<title>Node14&#45;&gt;Node20</title>
<path fill="none" stroke="#9a32cd" stroke-dasharray="5,2" d="M90.1,-410.22C121.89,-418.13 167.5,-429.47 199.65,-437.46"/>
<polygon fill="#9a32cd" stroke="#9a32cd" points="90.85,-406.8 80.3,-407.79 89.16,-413.6 90.85,-406.8"/>
<text text-anchor="middle" x="139.5" y="-430" font-family="Helvetica,sans-Serif" font-size="10.00"> id</text>
</g>
<!-- Node22 -->
<g id="node22" class="node">
<title>Node22</title>
<g id="a_node22"><a xlink:href="structdpp_1_1utility_1_1iconhash.html" target="_top" xlink:title="Store a 128 bit icon hash (profile picture, server icon etc) as a 128 bit binary value made of two ui...">
<polygon fill="white" stroke="black" points="180,-361.5 180,-380.5 298,-380.5 298,-361.5 180,-361.5"/>
<text text-anchor="middle" x="239" y="-368.5" font-family="Helvetica,sans-Serif" font-size="10.00">dpp::utility::iconhash</text>
</a>
</g>
</g>
<!-- Node14&#45;&gt;Node22 -->
<g id="edge27" class="edge">
<title>Node14&#45;&gt;Node22</title>
<path fill="none" stroke="#9a32cd" stroke-dasharray="5,2" d="M90.37,-394.94C116.08,-390.77 150.72,-385.15 179.99,-380.41"/>
<polygon fill="#9a32cd" stroke="#9a32cd" points="89.61,-391.52 80.3,-396.57 90.73,-398.43 89.61,-391.52"/>
<text text-anchor="middle" x="139.5" y="-404" font-family="Helvetica,sans-Serif" font-size="10.00"> first</text>
<text text-anchor="middle" x="139.5" y="-393" font-family="Helvetica,sans-Serif" font-size="10.00">second</text>
</g>
<!-- Node14&#45;&gt;Node31 -->
<g id="edge46" class="edge">
<title>Node14&#45;&gt;Node31</title>
<path fill="none" stroke="#9a32cd" stroke-dasharray="5,2" d="M54.6,-381.07C58.94,-337.1 74.04,-229.81 122,-156 173.85,-76.21 226.5,-88.17 321,-77 513.05,-54.3 604.26,-45.31 744,-179 803.3,-235.74 819.07,-341.77 822.6,-374.28"/>
<polygon fill="#9a32cd" stroke="#9a32cd" points="51.09,-381 53.68,-391.27 58.06,-381.63 51.09,-381"/>
<text text-anchor="middle" x="381.5" y="-113" font-family="Helvetica,sans-Serif" font-size="10.00"> application_id</text>
<text text-anchor="middle" x="381.5" y="-102" font-family="Helvetica,sans-Serif" font-size="10.00">channel_id</text>
<text text-anchor="middle" x="381.5" y="-91" font-family="Helvetica,sans-Serif" font-size="10.00">guild_id</text>
<text text-anchor="middle" x="381.5" y="-80" font-family="Helvetica,sans-Serif" font-size="10.00">message_id</text>
</g>
<!-- Node14&#45;&gt;Node33 -->
<g id="edge51" class="edge">
<title>Node14&#45;&gt;Node33</title>
<path fill="none" stroke="#9a32cd" stroke-dasharray="5,2" d="M55.38,-381.34C62.63,-331.26 89.45,-199 175,-145 275.55,-81.53 326.35,-134.34 442,-162 464.11,-167.29 488.4,-176.44 505.42,-183.43"/>
<polygon fill="#9a32cd" stroke="#9a32cd" points="51.88,-381.1 54.03,-391.48 58.82,-382.03 51.88,-381.1"/>
<text text-anchor="middle" x="239" y="-159" font-family="Helvetica,sans-Serif" font-size="10.00"> guild_id</text>
<text text-anchor="middle" x="239" y="-148" font-family="Helvetica,sans-Serif" font-size="10.00">user_id</text>
</g>
<!-- Node15 -->
<g id="node15" class="node">
<title>Node15</title>
<g id="a_node15"><a xlink:title=" ">
<polygon fill="white" stroke="#bfbfbf" points="206.5,-1164.5 206.5,-1183.5 271.5,-1183.5 271.5,-1164.5 206.5,-1164.5"/>
<text text-anchor="middle" x="239" y="-1171.5" font-family="Helvetica,sans-Serif" font-size="10.00">function&lt;</text>
</a>
</g>
</g>
<!-- Node15&#45;&gt;Node7 -->
<g id="edge15" class="edge">
<title>Node15&#45;&gt;Node7</title>
<path fill="none" stroke="#9a32cd" stroke-dasharray="5,2" d="M281.77,-1172.31C294.38,-1171.84 308.25,-1171.36 321,-1171 377.81,-1169.4 443.43,-1168.25 485.18,-1167.6"/>
<polygon fill="#9a32cd" stroke="#9a32cd" points="281.4,-1168.82 271.54,-1172.7 281.66,-1175.82 281.4,-1168.82"/>
<text text-anchor="middle" x="381.5" y="-1207" font-family="Helvetica,sans-Serif" font-size="10.00"> custom_readable_fd</text>
<text text-anchor="middle" x="381.5" y="-1196" font-family="Helvetica,sans-Serif" font-size="10.00">custom_readable_ready</text>
<text text-anchor="middle" x="381.5" y="-1185" font-family="Helvetica,sans-Serif" font-size="10.00">custom_writeable_fd</text>
<text text-anchor="middle" x="381.5" y="-1174" font-family="Helvetica,sans-Serif" font-size="10.00">custom_writeable_ready</text>
</g>
<!-- Node16&#45;&gt;Node5 -->
<g id="edge16" class="edge">
<title>Node16&#45;&gt;Node5</title>
<path fill="none" stroke="#9a32cd" stroke-dasharray="5,2" d="M844.37,-828.77C882.56,-862.92 971.4,-943.35 1042,-1015 1065.52,-1038.87 1091.69,-1068.47 1104.71,-1083.41"/>
<polygon fill="#9a32cd" stroke="#9a32cd" points="846.39,-825.89 836.6,-821.84 841.73,-831.11 846.39,-825.89"/>
<text text-anchor="middle" x="973.5" y="-1018" font-family="Helvetica,sans-Serif" font-size="10.00"> creator</text>
</g>
<!-- Node17 -->
<g id="node17" class="node">
<title>Node17</title>
<g id="a_node17"><a xlink:title=" ">
<polygon fill="white" stroke="#bfbfbf" points="211,-543.5 211,-562.5 267,-562.5 267,-543.5 211,-543.5"/>
<text text-anchor="middle" x="239" y="-550.5" font-family="Helvetica,sans-Serif" font-size="10.00">uint32_t</text>
</a>
</g>
</g>
<!-- Node17&#45;&gt;Node5 -->
<g id="edge34" class="edge">
<title>Node17&#45;&gt;Node5</title>
<path fill="none" stroke="#9a32cd" stroke-dasharray="5,2" d="M277.02,-552.78C317.75,-551.99 385,-549.09 442,-539 520.81,-525.04 535.75,-500.22 615,-489 808.93,-461.54 918.64,-445.86 1042,-598 1105.56,-676.39 1112.23,-1020.68 1112.92,-1083.23"/>
<polygon fill="#9a32cd" stroke="#9a32cd" points="276.96,-549.28 267.01,-552.94 277.07,-556.28 276.96,-549.28"/>
<text text-anchor="middle" x="679.5" y="-547" font-family="Helvetica,sans-Serif" font-size="10.00"> heartbeat_interval</text>
<text text-anchor="middle" x="679.5" y="-536" font-family="Helvetica,sans-Serif" font-size="10.00">intents</text>
<text text-anchor="middle" x="679.5" y="-525" font-family="Helvetica,sans-Serif" font-size="10.00">max_shards</text>
<text text-anchor="middle" x="679.5" y="-514" font-family="Helvetica,sans-Serif" font-size="10.00">reconnects</text>
<text text-anchor="middle" x="679.5" y="-503" font-family="Helvetica,sans-Serif" font-size="10.00">resumes</text>
<text text-anchor="middle" x="679.5" y="-492" font-family="Helvetica,sans-Serif" font-size="10.00">shard_id</text>
</g>
<!-- Node17&#45;&gt;Node16 -->
<g id="edge19" class="edge">
<title>Node17&#45;&gt;Node16</title>
<path fill="none" stroke="#9a32cd" stroke-dasharray="5,2" d="M272.46,-566.34C315.05,-583.56 392.34,-613.81 460,-635 587.02,-674.77 633.72,-655.49 744,-730 775.05,-750.98 803.59,-785.68 816.39,-802.4"/>
<polygon fill="#9a32cd" stroke="#9a32cd" points="273.74,-563.08 263.16,-562.57 271.11,-569.57 273.74,-563.08"/>
<text text-anchor="middle" x="528.5" y="-703" font-family="Helvetica,sans-Serif" font-size="10.00"> cluster_id</text>
<text text-anchor="middle" x="528.5" y="-692" font-family="Helvetica,sans-Serif" font-size="10.00">intents</text>
<text text-anchor="middle" x="528.5" y="-681" font-family="Helvetica,sans-Serif" font-size="10.00">maxclusters</text>
<text text-anchor="middle" x="528.5" y="-670" font-family="Helvetica,sans-Serif" font-size="10.00">numshards</text>
</g>
<!-- Node17&#45;&gt;Node19 -->
<g id="edge28" class="edge">
<title>Node17&#45;&gt;Node19</title>
<path fill="none" stroke="#9a32cd" stroke-dasharray="5,2" d="M276.78,-540.7C290.55,-536.34 306.4,-531.63 321,-528 374.12,-514.8 390.32,-523.06 442,-505 468.13,-495.87 496.09,-479.82 512.67,-469.56"/>
<polygon fill="#9a32cd" stroke="#9a32cd" points="275.61,-537.4 267.16,-543.79 277.75,-544.06 275.61,-537.4"/>
<text text-anchor="middle" x="381.5" y="-531" font-family="Helvetica,sans-Serif" font-size="10.00"> flags</text>
</g>
<!-- Node18 -->
<g id="node18" class="node">
<title>Node18</title>
<g id="a_node18"><a xlink:title=" ">
<polygon fill="white" stroke="#bfbfbf" points="503.5,-1018.5 503.5,-1037.5 553.5,-1037.5 553.5,-1018.5 503.5,-1018.5"/>
<text text-anchor="middle" x="528.5" y="-1025.5" font-family="Helvetica,sans-Serif" font-size="10.00">double</text>
</a>
</g>
</g>
<!-- Node18&#45;&gt;Node5 -->
<g id="edge40" class="edge">
<title>Node18&#45;&gt;Node5</title>
<path fill="none" stroke="#9a32cd" stroke-dasharray="5,2" d="M564.05,-1031.85C661.95,-1042.75 941.69,-1073.92 1059.58,-1087.05"/>
<polygon fill="#9a32cd" stroke="#9a32cd" points="564.16,-1028.34 553.83,-1030.71 563.38,-1035.3 564.16,-1028.34"/>
<text text-anchor="middle" x="824.5" y="-1070" font-family="Helvetica,sans-Serif" font-size="10.00"> websocket_ping</text>
</g>
<!-- Node18&#45;&gt;Node16 -->
<g id="edge20" class="edge">
<title>Node18&#45;&gt;Node16</title>
<path fill="none" stroke="#9a32cd" stroke-dasharray="5,2" d="M563.69,-1022.69C623.33,-1013.36 740.45,-994.76 744,-992 801.46,-947.35 818.34,-852.39 822.39,-821.75"/>
<polygon fill="#9a32cd" stroke="#9a32cd" points="562.94,-1019.26 553.6,-1024.26 564.02,-1026.18 562.94,-1019.26"/>
<text text-anchor="middle" x="679.5" y="-1018" font-family="Helvetica,sans-Serif" font-size="10.00"> rest_ping</text>
</g>
<!-- Node19&#45;&gt;Node16 -->
<g id="edge21" class="edge">
<title>Node19&#45;&gt;Node16</title>
<path fill="none" stroke="#9a32cd" stroke-dasharray="5,2" d="M536.78,-479.36C548.76,-508.75 575.34,-564.63 615,-597 662.39,-635.68 698.88,-603.69 744,-645 793.73,-690.54 815.37,-773.74 821.54,-802.17"/>
<polygon fill="#9a32cd" stroke="#9a32cd" points="539.94,-477.84 533.03,-469.82 533.43,-480.41 539.94,-477.84"/>
<text text-anchor="middle" x="679.5" y="-648" font-family="Helvetica,sans-Serif" font-size="10.00"> me</text>
</g>
<!-- Node19&#45;&gt;Node31 -->
<g id="edge56" class="edge">
<title>Node19&#45;&gt;Node31</title>
<path fill="none" stroke="#9a32cd" stroke-dasharray="5,2" d="M569.82,-455.47C622.72,-449.23 712.53,-437.58 744,-427 768.24,-418.85 793.85,-403.65 809.25,-393.68"/>
<polygon fill="#9a32cd" stroke="#9a32cd" points="569.28,-452.01 559.76,-456.64 570.09,-458.96 569.28,-452.01"/>
<text text-anchor="middle" x="679.5" y="-453" font-family="Helvetica,sans-Serif" font-size="10.00"> usr</text>
</g>
<!-- Node20&#45;&gt;Node19 -->
<g id="edge22" class="edge">
<title>Node20&#45;&gt;Node19</title>
<path fill="none" stroke="midnightblue" d="M292.13,-449.36C352.07,-452.07 448.43,-456.42 497.17,-458.63"/>
<polygon fill="midnightblue" stroke="midnightblue" points="292.26,-445.86 282.11,-448.9 291.94,-452.85 292.26,-445.86"/>
</g>
<!-- Node20&#45;&gt;Node31 -->
<g id="edge45" class="edge">
<title>Node20&#45;&gt;Node31</title>
<path fill="none" stroke="midnightblue" d="M292.21,-449.34C334.63,-449.18 394.95,-444.12 442,-421 452.15,-416.01 449.66,-407.6 460,-403 565.79,-355.91 706.39,-366.5 777.75,-376.32"/>
<polygon fill="midnightblue" stroke="midnightblue" points="292.11,-445.84 282.1,-449.29 292.08,-452.84 292.11,-445.84"/>
</g>
<!-- Node21 -->
<g id="node21" class="node">
<title>Node21</title>
<g id="a_node21"><a xlink:title=" ">
<polygon fill="white" stroke="#bfbfbf" points="211,-399.5 211,-418.5 267,-418.5 267,-399.5 211,-399.5"/>
<text text-anchor="middle" x="239" y="-406.5" font-family="Helvetica,sans-Serif" font-size="10.00">uint16_t</text>
</a>
</g>
</g>
<!-- Node21&#45;&gt;Node19 -->
<g id="edge25" class="edge">
<title>Node21&#45;&gt;Node19</title>
<path fill="none" stroke="#9a32cd" stroke-dasharray="5,2" d="M277.34,-412.4C318.08,-416.48 385.1,-424.27 442,-436 442.72,-436.15 473.12,-444.69 497.47,-451.54"/>
<polygon fill="#9a32cd" stroke="#9a32cd" points="277.62,-408.91 267.32,-411.42 276.93,-415.88 277.62,-408.91"/>
<text text-anchor="middle" x="381.5" y="-439" font-family="Helvetica,sans-Serif" font-size="10.00"> discriminator</text>
</g>
<!-- Node22&#45;&gt;Node19 -->
<g id="edge26" class="edge">
<title>Node22&#45;&gt;Node19</title>
<path fill="none" stroke="#9a32cd" stroke-dasharray="5,2" d="M308.44,-366.45C350.76,-367.11 404.06,-374.59 442,-403 456.96,-414.2 445.72,-428.94 460,-441 470.42,-449.8 484.64,-454.54 497.34,-457.08"/>
<polygon fill="#9a32cd" stroke="#9a32cd" points="308.22,-362.95 298.21,-366.42 308.2,-369.95 308.22,-362.95"/>
<text text-anchor="middle" x="381.5" y="-406" font-family="Helvetica,sans-Serif" font-size="10.00"> avatar</text>
</g>
<!-- Node22&#45;&gt;Node33 -->
<g id="edge55" class="edge">
<title>Node22&#45;&gt;Node33</title>
<path fill="none" stroke="#9a32cd" stroke-dasharray="5,2" d="M249.42,-352.27C262.39,-328.28 287.95,-286.95 321,-263 335.52,-252.48 441.7,-219.18 495.88,-202.59"/>
<polygon fill="#9a32cd" stroke="#9a32cd" points="246.18,-350.91 244.64,-361.39 252.38,-354.16 246.18,-350.91"/>
<text text-anchor="middle" x="381.5" y="-266" font-family="Helvetica,sans-Serif" font-size="10.00"> avatar</text>
</g>
<!-- Node23 -->
<g id="node23" class="node">
<title>Node23</title>
<g id="a_node23"><a xlink:title=" ">
<polygon fill="white" stroke="#bfbfbf" points="214,-219.5 214,-238.5 264,-238.5 264,-219.5 214,-219.5"/>
<text text-anchor="middle" x="239" y="-226.5" font-family="Helvetica,sans-Serif" font-size="10.00">uint8_t</text>
</a>
</g>
</g>
<!-- Node23&#45;&gt;Node19 -->
<g id="edge29" class="edge">
<title>Node23&#45;&gt;Node19</title>
<path fill="none" stroke="#9a32cd" stroke-dasharray="5,2" d="M251.42,-246.94C265.37,-267.41 290.89,-300.45 321,-319 368.46,-348.24 403.92,-311.29 442,-352 469.57,-381.47 432.55,-411.42 460,-441 469.52,-451.26 484.11,-456.14 497.29,-458.4"/>
<polygon fill="#9a32cd" stroke="#9a32cd" points="254.28,-244.92 245.84,-238.52 248.44,-248.79 254.28,-244.92"/>
<text text-anchor="middle" x="381.5" y="-355" font-family="Helvetica,sans-Serif" font-size="10.00"> refcount</text>
</g>
<!-- Node23&#45;&gt;Node31 -->
<g id="edge47" class="edge">
<title>Node23&#45;&gt;Node31</title>
<path fill="none" stroke="#9a32cd" stroke-dasharray="5,2" d="M274.41,-228.43C314.94,-228.43 384.11,-230.56 442,-243 585.94,-273.92 748.48,-348.01 803.84,-374.43"/>
<polygon fill="#9a32cd" stroke="#9a32cd" points="274.24,-224.93 264.25,-228.47 274.27,-231.93 274.24,-224.93"/>
<text text-anchor="middle" x="528.5" y="-303" font-family="Helvetica,sans-Serif" font-size="10.00"> type</text>
<text text-anchor="middle" x="528.5" y="-292" font-family="Helvetica,sans-Serif" font-size="10.00">version</text>
</g>
<!-- Node23&#45;&gt;Node33 -->
<g id="edge54" class="edge">
<title>Node23&#45;&gt;Node33</title>
<path fill="none" stroke="#9a32cd" stroke-dasharray="5,2" d="M273.56,-216.61C287.96,-211.83 305.11,-206.83 321,-204 371.9,-194.93 430.87,-192.59 472.73,-192.27"/>
<polygon fill="#9a32cd" stroke="#9a32cd" points="272.4,-213.31 264.07,-219.86 274.67,-219.93 272.4,-213.31"/>
<text text-anchor="middle" x="381.5" y="-207" font-family="Helvetica,sans-Serif" font-size="10.00"> flags</text>
</g>
<!-- Node24 -->
<g id="node24" class="node">
<title>Node24</title>
<g id="a_node24"><a xlink:href="structdpp_1_1cache__policy__t.html" target="_top" xlink:title="Represents the caching policy of the cluster.">
<polygon fill="white" stroke="black" points="472,-861.5 472,-880.5 585,-880.5 585,-861.5 472,-861.5"/>
<text text-anchor="middle" x="528.5" y="-868.5" font-family="Helvetica,sans-Serif" font-size="10.00">dpp::cache_policy_t</text>
</a>
</g>
</g>
<!-- Node24&#45;&gt;Node16 -->
<g id="edge30" class="edge">
<title>Node24&#45;&gt;Node16</title>
<path fill="none" stroke="#9a32cd" stroke-dasharray="5,2" d="M584.71,-856.79C589.26,-854.08 593.46,-850.85 597,-847 618.17,-824 590.23,-798.07 615,-779 673.81,-733.73 770.04,-780.73 807.69,-802.35"/>
<polygon fill="#9a32cd" stroke="#9a32cd" points="582.97,-853.75 575.63,-861.4 586.13,-860 582.97,-853.75"/>
<text text-anchor="middle" x="679.5" y="-782" font-family="Helvetica,sans-Serif" font-size="10.00"> cache_policy</text>
</g>
<!-- Node25 -->
<g id="node25" class="node">
<title>Node25</title>
<g id="a_node25"><a xlink:title=" ">
<polygon fill="white" stroke="#bfbfbf" points="175,-942.5 175,-961.5 303,-961.5 303,-942.5 175,-942.5"/>
<text text-anchor="middle" x="239" y="-949.5" font-family="Helvetica,sans-Serif" font-size="10.00">cache_policy_setting_t</text>
</a>
</g>
</g>
<!-- Node25&#45;&gt;Node24 -->
<g id="edge31" class="edge">
<title>Node25&#45;&gt;Node24</title>
<path fill="none" stroke="#9a32cd" stroke-dasharray="5,2" d="M283.8,-939.65C328.2,-927.14 398.87,-907.22 460,-890 470.9,-886.93 482.79,-883.58 493.51,-880.57"/>
<polygon fill="#9a32cd" stroke="#9a32cd" points="282.59,-936.36 273.92,-942.44 284.49,-943.09 282.59,-936.36"/>
<text text-anchor="middle" x="381.5" y="-954" font-family="Helvetica,sans-Serif" font-size="10.00"> emoji_policy</text>
<text text-anchor="middle" x="381.5" y="-943" font-family="Helvetica,sans-Serif" font-size="10.00">role_policy</text>
<text text-anchor="middle" x="381.5" y="-932" font-family="Helvetica,sans-Serif" font-size="10.00">user_policy</text>
</g>
<!-- Node26 -->
<g id="node26" class="node">
<title>Node26</title>
<g id="a_node26"><a xlink:title=" ">
<polygon fill="white" stroke="#bfbfbf" points="467.5,-1066.5 467.5,-1085.5 589.5,-1085.5 589.5,-1066.5 467.5,-1066.5"/>
<text text-anchor="middle" x="528.5" y="-1073.5" font-family="Helvetica,sans-Serif" font-size="10.00">websocket_protocol_t</text>
</a>
</g>
</g>
<!-- Node26&#45;&gt;Node5 -->
<g id="edge42" class="edge">
<title>Node26&#45;&gt;Node5</title>
<path fill="none" stroke="#9a32cd" stroke-dasharray="5,2" d="M600.1,-1080.32C605.14,-1080.57 610.15,-1080.8 615,-1081 777.02,-1087.69 968.85,-1091.02 1059.91,-1092.32"/>
<polygon fill="#9a32cd" stroke="#9a32cd" points="599.91,-1076.8 589.74,-1079.78 599.55,-1083.8 599.91,-1076.8"/>
<text text-anchor="middle" x="824.5" y="-1093" font-family="Helvetica,sans-Serif" font-size="10.00"> protocol</text>
</g>
<!-- Node26&#45;&gt;Node16 -->
<g id="edge32" class="edge">
<title>Node26&#45;&gt;Node16</title>
<path fill="none" stroke="#9a32cd" stroke-dasharray="5,2" d="M599.99,-1068.29C653.97,-1061.06 722.68,-1048.56 744,-1030 809.94,-972.61 821.21,-855.88 823.12,-821.64"/>
<polygon fill="#9a32cd" stroke="#9a32cd" points="599.22,-1064.86 589.76,-1069.62 600.13,-1071.8 599.22,-1064.86"/>
<text text-anchor="middle" x="679.5" y="-1069" font-family="Helvetica,sans-Serif" font-size="10.00"> ws_mode</text>
</g>
<!-- Node27 -->
<g id="node27" class="node">
<title>Node27</title>
<g id="a_node27"><a xlink:title=" ">
<polygon fill="white" stroke="#bfbfbf" points="480.5,-899.5 480.5,-918.5 576.5,-918.5 576.5,-899.5 480.5,-899.5"/>
<text text-anchor="middle" x="528.5" y="-906.5" font-family="Helvetica,sans-Serif" font-size="10.00">event_router_t&lt;</text>
</a>
</g>
</g>
<!-- Node27&#45;&gt;Node16 -->
<g id="edge33" class="edge">
<title>Node27&#45;&gt;Node16</title>
<path fill="none" stroke="#9a32cd" stroke-dasharray="5,2" d="M585.97,-898.43C590.04,-896.14 593.79,-893.36 597,-890 621.29,-864.6 587.52,-834.91 615,-813 640.69,-792.52 734.76,-800.58 787.33,-807"/>
<polygon fill="#9a32cd" stroke="#9a32cd" points="584.28,-895.36 576.68,-902.73 587.22,-901.71 584.28,-895.36"/>
<text text-anchor="start" x="615" y="-959" font-family="Helvetica,sans-Serif" font-size="10.00"> on_application_command</text>
<text text-anchor="middle" x="679.5" y="-948" font-family="Helvetica,sans-Serif" font-size="10.00">_create</text>
<text text-anchor="start" x="615" y="-937" font-family="Helvetica,sans-Serif" font-size="10.00">on_application_command</text>
<text text-anchor="middle" x="679.5" y="-926" font-family="Helvetica,sans-Serif" font-size="10.00">_delete</text>
<text text-anchor="start" x="615" y="-915" font-family="Helvetica,sans-Serif" font-size="10.00">on_application_command</text>
<text text-anchor="middle" x="679.5" y="-904" font-family="Helvetica,sans-Serif" font-size="10.00">_update</text>
<text text-anchor="middle" x="679.5" y="-893" font-family="Helvetica,sans-Serif" font-size="10.00">on_autocomplete</text>
<text text-anchor="middle" x="679.5" y="-882" font-family="Helvetica,sans-Serif" font-size="10.00">on_button_click</text>
<text text-anchor="middle" x="679.5" y="-871" font-family="Helvetica,sans-Serif" font-size="10.00">on_channel_create</text>
<text text-anchor="middle" x="679.5" y="-860" font-family="Helvetica,sans-Serif" font-size="10.00">on_channel_delete</text>
<text text-anchor="middle" x="679.5" y="-849" font-family="Helvetica,sans-Serif" font-size="10.00">on_channel_pins_update</text>
<text text-anchor="middle" x="679.5" y="-838" font-family="Helvetica,sans-Serif" font-size="10.00">on_channel_update</text>
<text text-anchor="middle" x="679.5" y="-827" font-family="Helvetica,sans-Serif" font-size="10.00">on_guild_ban_add</text>
<text text-anchor="middle" x="679.5" y="-816" font-family="Helvetica,sans-Serif" font-size="10.00">...</text>
</g>
<!-- Node28 -->
<g id="node28" class="node">
<title>Node28</title>
<g id="a_node28"><a xlink:title=" ">
<polygon fill="white" stroke="#bfbfbf" points="768,-1325.5 768,-1344.5 881,-1344.5 881,-1325.5 768,-1325.5"/>
<text text-anchor="middle" x="824.5" y="-1332.5" font-family="Helvetica,sans-Serif" font-size="10.00">native_handle_type</text>
</a>
</g>
</g>
<!-- Node28&#45;&gt;Node5 -->
<g id="edge36" class="edge">
<title>Node28&#45;&gt;Node5</title>
<path fill="none" stroke="#9a32cd" stroke-dasharray="5,2" d="M891.21,-1345.12C938.23,-1348.58 1000.33,-1344.92 1042,-1311 1108.99,-1256.48 1113.43,-1137.75 1113.22,-1102.84"/>
<polygon fill="#9a32cd" stroke="#9a32cd" points="891.38,-1341.62 881.12,-1344.26 890.78,-1348.6 891.38,-1341.62"/>
<text text-anchor="middle" x="973.5" y="-1349" font-family="Helvetica,sans-Serif" font-size="10.00"> thread_id</text>
</g>
<!-- Node29 -->
<g id="node29" class="node">
<title>Node29</title>
<g id="a_node29"><a xlink:title=" ">
<polygon fill="white" stroke="#bfbfbf" points="790,-1198.5 790,-1217.5 859,-1217.5 859,-1198.5 790,-1198.5"/>
<text text-anchor="middle" x="824.5" y="-1205.5" font-family="Helvetica,sans-Serif" font-size="10.00">std::mutex</text>
</a>
</g>
</g>
<!-- Node29&#45;&gt;Node5 -->
<g id="edge39" class="edge">
<title>Node29&#45;&gt;Node5</title>
<path fill="none" stroke="#9a32cd" stroke-dasharray="5,2" d="M869.33,-1213.31C915.34,-1216.76 988.32,-1216.03 1042,-1186 1076.75,-1166.56 1099.91,-1122.37 1108.85,-1102.73"/>
<polygon fill="#9a32cd" stroke="#9a32cd" points="869.35,-1209.8 859.09,-1212.44 868.76,-1216.78 869.35,-1209.8"/>
<text text-anchor="middle" x="973.5" y="-1218" font-family="Helvetica,sans-Serif" font-size="10.00"> voice_mutex</text>
</g>
<!-- Node30 -->
<g id="node30" class="node">
<title>Node30</title>
<g id="a_node30"><a xlink:title=" ">
<polygon fill="white" stroke="#bfbfbf" points="774,-1160.5 774,-1179.5 875,-1179.5 875,-1160.5 774,-1160.5"/>
<text text-anchor="middle" x="824.5" y="-1167.5" font-family="Helvetica,sans-Serif" font-size="10.00">unordered_map&lt;</text>
</a>
</g>
</g>
<!-- Node30&#45;&gt;Node5 -->
<g id="edge43" class="edge">
<title>Node30&#45;&gt;Node5</title>
<path fill="none" stroke="#9a32cd" stroke-dasharray="5,2" d="M885.53,-1171.7C930.15,-1171 991.74,-1165.83 1042,-1146 1066.9,-1136.18 1090.75,-1115.22 1103.48,-1102.81"/>
<polygon fill="#9a32cd" stroke="#9a32cd" points="885.39,-1168.2 875.42,-1171.79 885.45,-1175.2 885.39,-1168.2"/>
<text text-anchor="middle" x="973.5" y="-1175" font-family="Helvetica,sans-Serif" font-size="10.00"> connecting_voice_channels</text>
</g>
<!-- Node31&#45;&gt;Node1 -->
<g id="edge44" class="edge">
<title>Node31&#45;&gt;Node1</title>
<path fill="none" stroke="#9a32cd" stroke-dasharray="5,2" d="M881.2,-388.22C1001.65,-397.36 1286.06,-418.92 1416.93,-428.84"/>
<polygon fill="#9a32cd" stroke="#9a32cd" points="881.33,-384.72 871.09,-387.46 880.8,-391.7 881.33,-384.72"/>
<text text-anchor="middle" x="1212" y="-419" font-family="Helvetica,sans-Serif" font-size="10.00"> command</text>
</g>
<!-- Node32 -->
<g id="node32" class="node">
<title>Node32</title>
<g id="a_node32"><a xlink:title=" ">
<polygon fill="white" stroke="#bfbfbf" points="499,-412.5 499,-431.5 558,-431.5 558,-412.5 499,-412.5"/>
<text text-anchor="middle" x="528.5" y="-419.5" font-family="Helvetica,sans-Serif" font-size="10.00">variant&lt;</text>
</a>
</g>
</g>
<!-- Node32&#45;&gt;Node31 -->
<g id="edge48" class="edge">
<title>Node32&#45;&gt;Node31</title>
<path fill="none" stroke="#9a32cd" stroke-dasharray="5,2" d="M568.34,-417.26C611.33,-411.97 682.64,-403.11 744,-395 754.91,-393.56 766.66,-391.96 777.69,-390.44"/>
<polygon fill="#9a32cd" stroke="#9a32cd" points="567.81,-413.8 558.31,-418.49 568.66,-420.74 567.81,-413.8"/>
<text text-anchor="middle" x="679.5" y="-415" font-family="Helvetica,sans-Serif" font-size="10.00"> data</text>
</g>
<!-- Node33&#45;&gt;Node31 -->
<g id="edge49" class="edge">
<title>Node33&#45;&gt;Node31</title>
<path fill="none" stroke="#9a32cd" stroke-dasharray="5,2" d="M594.54,-183.46C640.36,-180.27 700.97,-183.57 744,-214 800.4,-253.88 817.91,-344.29 822.26,-374.19"/>
<polygon fill="#9a32cd" stroke="#9a32cd" points="594.09,-179.98 584.41,-184.28 594.66,-186.96 594.09,-179.98"/>
<text text-anchor="middle" x="679.5" y="-217" font-family="Helvetica,sans-Serif" font-size="10.00"> member</text>
</g>
<!-- Node34 -->
<g id="node34" class="node">
<title>Node34</title>
<g id="a_node34"><a xlink:title=" ">
<polygon fill="white" stroke="#bfbfbf" points="211,-176.5 211,-195.5 267,-195.5 267,-176.5 211,-176.5"/>
<text text-anchor="middle" x="239" y="-183.5" font-family="Helvetica,sans-Serif" font-size="10.00">vector&lt;</text>
</a>
</g>
</g>
<!-- Node34&#45;&gt;Node33 -->
<g id="edge52" class="edge">
<title>Node34&#45;&gt;Node33</title>
<path fill="none" stroke="#9a32cd" stroke-dasharray="5,2" d="M277.2,-177.07C290.88,-174.21 306.56,-171.41 321,-170 374.52,-164.76 388.69,-162.95 442,-170 461.51,-172.58 482.88,-178.33 499.38,-183.43"/>
<polygon fill="#9a32cd" stroke="#9a32cd" points="276.2,-173.71 267.17,-179.26 277.69,-180.55 276.2,-173.71"/>
<text text-anchor="middle" x="381.5" y="-173" font-family="Helvetica,sans-Serif" font-size="10.00"> roles</text>
</g>
<!-- Node35 -->
<g id="node35" class="node">
<title>Node35</title>
<g id="a_node35"><a xlink:href="structdpp_1_1command__resolved.html" target="_top" xlink:title="Resolved snowflake ids to users, guild members, roles and channels.">
<polygon fill="white" stroke="black" points="460,-15.5 460,-34.5 597,-34.5 597,-15.5 460,-15.5"/>
<text text-anchor="middle" x="528.5" y="-22.5" font-family="Helvetica,sans-Serif" font-size="10.00">dpp::command_resolved</text>
</a>
</g>
</g>
<!-- Node35&#45;&gt;Node31 -->
<g id="edge58" class="edge">
<title>Node35&#45;&gt;Node31</title>
<path fill="none" stroke="#9a32cd" stroke-dasharray="5,2" d="M600.68,-14.83C647,-12.37 705.71,-17.7 744,-52 794.22,-96.98 817.97,-324.21 822.63,-374.24"/>
<polygon fill="#9a32cd" stroke="#9a32cd" points="600.44,-11.34 590.69,-15.49 600.9,-18.33 600.44,-11.34"/>
<text text-anchor="middle" x="679.5" y="-55" font-family="Helvetica,sans-Serif" font-size="10.00"> resolved</text>
</g>
<!-- Node36 -->
<g id="node36" class="node">
<title>Node36</title>
<g id="a_node36"><a xlink:title=" ">
<polygon fill="white" stroke="#bfbfbf" points="215.5,-0.5 215.5,-19.5 262.5,-19.5 262.5,-0.5 215.5,-0.5"/>
<text text-anchor="middle" x="239" y="-7.5" font-family="Helvetica,sans-Serif" font-size="10.00">map&lt;</text>
</a>
</g>
</g>
<!-- Node36&#45;&gt;Node35 -->
<g id="edge59" class="edge">
<title>Node36&#45;&gt;Node35</title>
<path fill="none" stroke="#9a32cd" stroke-dasharray="5,2" d="M273.01,-8.57C313.07,-7.21 382.62,-6.02 442,-11 453.54,-11.97 465.88,-13.62 477.48,-15.46"/>
<polygon fill="#9a32cd" stroke="#9a32cd" points="272.64,-5.09 262.77,-8.95 272.89,-12.08 272.64,-5.09"/>
<text text-anchor="middle" x="381.5" y="-47" font-family="Helvetica,sans-Serif" font-size="10.00"> channels</text>
<text text-anchor="middle" x="381.5" y="-36" font-family="Helvetica,sans-Serif" font-size="10.00">members</text>
<text text-anchor="middle" x="381.5" y="-25" font-family="Helvetica,sans-Serif" font-size="10.00">roles</text>
<text text-anchor="middle" x="381.5" y="-14" font-family="Helvetica,sans-Serif" font-size="10.00">users</text>
</g>
</g>
</svg>
