<?xml version="1.0" encoding="UTF-8" standalone="no"?>
<!DOCTYPE svg PUBLIC "-//W3C//DTD SVG 1.1//EN"
 "http://www.w3.org/Graphics/SVG/1.1/DTD/svg11.dtd">
<!-- Generated by graphviz version 2.43.0 (0)
 -->
<!-- Title: dpp::activity_party Pages: 1 -->
<svg width="200pt" height="173pt"
 viewBox="0.00 0.00 199.50 173.00" xmlns="http://www.w3.org/2000/svg" xmlns:xlink="http://www.w3.org/1999/xlink">
<g id="graph0" class="graph" transform="scale(1 1) rotate(0) translate(4 169)">
<title>dpp::activity_party</title>
<!-- Node1 -->
<g id="node1" class="node">
<title>Node1</title>
<g id="a_node1"><a xlink:title="Information for the current party of the player.">
<polygon fill="#bfbfbf" stroke="black" points="34.5,-0.5 34.5,-19.5 142.5,-19.5 142.5,-0.5 34.5,-0.5"/>
<text text-anchor="middle" x="88.5" y="-7.5" font-family="Helvetica,sans-Serif" font-size="10.00">dpp::activity_party</text>
</a>
</g>
</g>
<!-- Node2 -->
<g id="node2" class="node">
<title>Node2</title>
<g id="a_node2"><a xlink:href="classdpp_1_1snowflake.html" target="_top" xlink:title="A container for a 64 bit unsigned value representing many things on discord. Discord calls the value ...">
<polygon fill="none" stroke="black" points="0,-78.5 0,-97.5 89,-97.5 89,-78.5 0,-78.5"/>
<text text-anchor="middle" x="44.5" y="-85.5" font-family="Helvetica,sans-Serif" font-size="10.00">dpp::snowflake</text>
</a>
</g>
</g>
<!-- Node2&#45;&gt;Node1 -->
<g id="edge1" class="edge">
<title>Node2&#45;&gt;Node1</title>
<path fill="none" stroke="#9a32cd" stroke-dasharray="5,2" d="M54.59,-69.57C63.64,-53.95 76.52,-31.7 83.51,-19.62"/>
<polygon fill="#9a32cd" stroke="#9a32cd" points="51.53,-67.87 49.55,-78.28 57.59,-71.38 51.53,-67.87"/>
<text text-anchor="middle" x="79" y="-46.5" font-family="Helvetica,sans-Serif" font-size="10.00"> id</text>
</g>
<!-- Node3 -->
<g id="node3" class="node">
<title>Node3</title>
<g id="a_node3"><a xlink:title=" ">
<polygon fill="none" stroke="#bfbfbf" points="16.5,-145.5 16.5,-164.5 72.5,-164.5 72.5,-145.5 16.5,-145.5"/>
<text text-anchor="middle" x="44.5" y="-152.5" font-family="Helvetica,sans-Serif" font-size="10.00">uint64_t</text>
</a>
</g>
</g>
<!-- Node3&#45;&gt;Node2 -->
<g id="edge2" class="edge">
<title>Node3&#45;&gt;Node2</title>
<path fill="none" stroke="#9a32cd" stroke-dasharray="5,2" d="M44.5,-135.04C44.5,-122.67 44.5,-107.12 44.5,-97.63"/>
<polygon fill="#9a32cd" stroke="#9a32cd" points="41,-135.23 44.5,-145.23 48,-135.23 41,-135.23"/>
<text text-anchor="middle" x="60" y="-119" font-family="Helvetica,sans-Serif" font-size="10.00"> value</text>
</g>
<!-- Node4 -->
<g id="node4" class="node">
<title>Node4</title>
<g id="a_node4"><a xlink:title=" ">
<polygon fill="none" stroke="#bfbfbf" points="107.5,-78.5 107.5,-97.5 157.5,-97.5 157.5,-78.5 107.5,-78.5"/>
<text text-anchor="middle" x="132.5" y="-85.5" font-family="Helvetica,sans-Serif" font-size="10.00">int32_t</text>
</a>
</g>
</g>
<!-- Node4&#45;&gt;Node1 -->
<g id="edge3" class="edge">
<title>Node4&#45;&gt;Node1</title>
<path fill="none" stroke="#9a32cd" stroke-dasharray="5,2" d="M122.41,-69.57C113.36,-53.95 100.48,-31.7 93.49,-19.62"/>
<polygon fill="#9a32cd" stroke="#9a32cd" points="119.41,-71.38 127.45,-78.28 125.47,-67.87 119.41,-71.38"/>
<text text-anchor="middle" x="153.5" y="-52" font-family="Helvetica,sans-Serif" font-size="10.00"> current_size</text>
<text text-anchor="middle" x="153.5" y="-41" font-family="Helvetica,sans-Serif" font-size="10.00">maximum_size</text>
</g>
</g>
</svg>
