<?xml version="1.0" encoding="UTF-8" standalone="no"?>
<!DOCTYPE svg PUBLIC "-//W3C//DTD SVG 1.1//EN"
 "http://www.w3.org/Graphics/SVG/1.1/DTD/svg11.dtd">
<!-- Generated by graphviz version 2.43.0 (0)
 -->
<!-- Title: dpp::interaction_response Pages: 1 -->
<svg width="1678pt" height="1342pt"
 viewBox="0.00 0.00 1678.00 1342.00" xmlns="http://www.w3.org/2000/svg" xmlns:xlink="http://www.w3.org/1999/xlink">
<g id="graph0" class="graph" transform="scale(1 1) rotate(0) translate(4 1338)">
<title>dpp::interaction_response</title>
<!-- Node1 -->
<g id="node1" class="node">
<title>Node1</title>
<g id="a_node1"><a xlink:title="A response to an interaction, used to reply to a command and initiate a message, which can be hidden ...">
<polygon fill="#bfbfbf" stroke="black" points="1527,-287.5 1527,-306.5 1670,-306.5 1670,-287.5 1527,-287.5"/>
<text text-anchor="middle" x="1598.5" y="-294.5" font-family="Helvetica,sans-Serif" font-size="10.00">dpp::interaction_response</text>
</a>
</g>
</g>
<!-- Node2 -->
<g id="node2" class="node">
<title>Node2</title>
<g id="a_node2"><a xlink:href="structdpp_1_1json__interface.html" target="_top" xlink:title=" ">
<polygon fill="none" stroke="black" points="571,-1249 571,-1279 712,-1279 712,-1249 571,-1249"/>
<text text-anchor="start" x="579" y="-1267" font-family="Helvetica,sans-Serif" font-size="10.00">dpp::json_interface</text>
<text text-anchor="middle" x="641.5" y="-1256" font-family="Helvetica,sans-Serif" font-size="10.00">&lt; interaction_response &gt;</text>
</a>
</g>
</g>
<!-- Node2&#45;&gt;Node1 -->
<g id="edge1" class="edge">
<title>Node2&#45;&gt;Node1</title>
<path fill="none" stroke="midnightblue" d="M672.18,-1284.73C688.49,-1295.04 709.52,-1306.63 730,-1313 816.73,-1340 842.66,-1332 933.5,-1332 933.5,-1332 933.5,-1332 1394,-1332 1504.56,-1332 1587.62,-410.93 1596.68,-306.59"/>
<polygon fill="midnightblue" stroke="midnightblue" points="673.93,-1281.7 663.64,-1279.18 670.12,-1287.57 673.93,-1281.7"/>
</g>
<!-- Node3 -->
<g id="node3" class="node">
<title>Node3</title>
<g id="a_node3"><a xlink:href="structdpp_1_1json__interface.html" target="_top" xlink:title="Represents an interface for an object that can optionally implement functions for converting to and f...">
<polygon fill="none" stroke="black" points="123,-1155.5 123,-1174.5 261,-1174.5 261,-1155.5 123,-1155.5"/>
<text text-anchor="middle" x="192" y="-1162.5" font-family="Helvetica,sans-Serif" font-size="10.00">dpp::json_interface&lt; T &gt;</text>
</a>
</g>
</g>
<!-- Node3&#45;&gt;Node2 -->
<g id="edge2" class="edge">
<title>Node3&#45;&gt;Node2</title>
<path fill="none" stroke="orange" stroke-dasharray="5,2" d="M246.35,-1176.8C327.81,-1194.82 483.13,-1229.19 572.55,-1248.97"/>
<polygon fill="orange" stroke="orange" points="246.83,-1173.33 236.31,-1174.58 245.32,-1180.16 246.83,-1173.33"/>
<text text-anchor="middle" x="343" y="-1213" font-family="Helvetica,sans-Serif" font-size="10.00"> &lt; interaction_response &gt;</text>
</g>
<!-- Node10 -->
<g id="node10" class="node">
<title>Node10</title>
<g id="a_node10"><a xlink:href="structdpp_1_1json__interface.html" target="_top" xlink:title=" ">
<polygon fill="none" stroke="black" points="434,-933 434,-963 544,-963 544,-933 434,-933"/>
<text text-anchor="start" x="442" y="-951" font-family="Helvetica,sans-Serif" font-size="10.00">dpp::json_interface</text>
<text text-anchor="middle" x="489" y="-940" font-family="Helvetica,sans-Serif" font-size="10.00">&lt; user &gt;</text>
</a>
</g>
</g>
<!-- Node3&#45;&gt;Node10 -->
<g id="edge12" class="edge">
<title>Node3&#45;&gt;Node10</title>
<path fill="none" stroke="orange" stroke-dasharray="5,2" d="M214.31,-1149.32C268.92,-1109.16 413.34,-1002.92 467.28,-963.24"/>
<polygon fill="orange" stroke="orange" points="212.04,-1146.65 206.06,-1155.4 216.19,-1152.29 212.04,-1146.65"/>
<text text-anchor="middle" x="343" y="-1103" font-family="Helvetica,sans-Serif" font-size="10.00"> &lt; user &gt;</text>
</g>
<!-- Node4 -->
<g id="node4" class="node">
<title>Node4</title>
<g id="a_node4"><a xlink:title=" ">
<polygon fill="none" stroke="#bfbfbf" points="1320,-0.5 1320,-19.5 1466,-19.5 1466,-0.5 1320,-0.5"/>
<text text-anchor="middle" x="1393" y="-7.5" font-family="Helvetica,sans-Serif" font-size="10.00">interaction_response_type</text>
</a>
</g>
</g>
<!-- Node4&#45;&gt;Node1 -->
<g id="edge3" class="edge">
<title>Node4&#45;&gt;Node1</title>
<path fill="none" stroke="#9a32cd" stroke-dasharray="5,2" d="M1476.28,-7.7C1488.19,-10.51 1499.58,-15.3 1509,-23 1594.72,-93.09 1598.36,-247.02 1597.78,-287.23"/>
<polygon fill="#9a32cd" stroke="#9a32cd" points="1476.66,-4.21 1466.18,-5.77 1475.35,-11.08 1476.66,-4.21"/>
<text text-anchor="middle" x="1496.5" y="-26" font-family="Helvetica,sans-Serif" font-size="10.00"> type</text>
</g>
<!-- Node5 -->
<g id="node5" class="node">
<title>Node5</title>
<g id="a_node5"><a xlink:href="structdpp_1_1message.html" target="_top" xlink:title="Represents messages sent and received on Discord.">
<polygon fill="none" stroke="black" points="1350.5,-530.5 1350.5,-549.5 1435.5,-549.5 1435.5,-530.5 1350.5,-530.5"/>
<text text-anchor="middle" x="1393" y="-537.5" font-family="Helvetica,sans-Serif" font-size="10.00">dpp::message</text>
</a>
</g>
</g>
<!-- Node5&#45;&gt;Node1 -->
<g id="edge4" class="edge">
<title>Node5&#45;&gt;Node1</title>
<path fill="none" stroke="#9a32cd" stroke-dasharray="5,2" d="M1408.57,-522.6C1448.46,-474.97 1558.49,-343.58 1589.36,-306.72"/>
<polygon fill="#9a32cd" stroke="#9a32cd" points="1405.71,-520.56 1401.98,-530.47 1411.08,-525.05 1405.71,-520.56"/>
<text text-anchor="middle" x="1496.5" y="-428" font-family="Helvetica,sans-Serif" font-size="10.00"> msg</text>
</g>
<!-- Node6 -->
<g id="node6" class="node">
<title>Node6</title>
<g id="a_node6"><a xlink:href="classdpp_1_1managed.html" target="_top" xlink:title="The managed class is the base class for various types that can be stored in a cache that are identifi...">
<polygon fill="none" stroke="black" points="446,-549.5 446,-568.5 532,-568.5 532,-549.5 446,-549.5"/>
<text text-anchor="middle" x="489" y="-556.5" font-family="Helvetica,sans-Serif" font-size="10.00">dpp::managed</text>
</a>
</g>
</g>
<!-- Node6&#45;&gt;Node5 -->
<g id="edge5" class="edge">
<title>Node6&#45;&gt;Node5</title>
<path fill="none" stroke="midnightblue" d="M542.27,-551.55C589.12,-547.3 658.51,-547.13 712,-573 722.77,-578.21 719.08,-588.13 730,-593 779.53,-615.06 797.83,-595.28 852,-593 1052.53,-584.55 1102.85,-579.96 1302,-555 1317.87,-553.01 1335.23,-550.26 1350.43,-547.65"/>
<polygon fill="midnightblue" stroke="midnightblue" points="541.65,-548.1 532.04,-552.58 542.34,-555.06 541.65,-548.1"/>
</g>
<!-- Node9 -->
<g id="node9" class="node">
<title>Node9</title>
<g id="a_node9"><a xlink:href="classdpp_1_1user.html" target="_top" xlink:title="Represents a user on discord. May or may not be a member of a dpp::guild.">
<polygon fill="none" stroke="black" points="760,-772.5 760,-791.5 822,-791.5 822,-772.5 760,-772.5"/>
<text text-anchor="middle" x="791" y="-779.5" font-family="Helvetica,sans-Serif" font-size="10.00">dpp::user</text>
</a>
</g>
</g>
<!-- Node6&#45;&gt;Node9 -->
<g id="edge10" class="edge">
<title>Node6&#45;&gt;Node9</title>
<path fill="none" stroke="midnightblue" d="M504.53,-576.22C519.75,-593.49 545.04,-620.04 571,-638 627.9,-677.37 655.35,-664.27 712,-704 741.16,-724.45 769.12,-756.36 782.24,-772.28"/>
<polygon fill="midnightblue" stroke="midnightblue" points="507.09,-573.84 497.9,-568.57 501.8,-578.42 507.09,-573.84"/>
</g>
<!-- Node7 -->
<g id="node7" class="node">
<title>Node7</title>
<g id="a_node7"><a xlink:href="classdpp_1_1snowflake.html" target="_top" xlink:title="A container for a 64 bit unsigned value representing many things on discord. This value is known in d...">
<polygon fill="none" stroke="black" points="147.5,-529.5 147.5,-548.5 236.5,-548.5 236.5,-529.5 147.5,-529.5"/>
<text text-anchor="middle" x="192" y="-536.5" font-family="Helvetica,sans-Serif" font-size="10.00">dpp::snowflake</text>
</a>
</g>
</g>
<!-- Node7&#45;&gt;Node5 -->
<g id="edge8" class="edge">
<title>Node7&#45;&gt;Node5</title>
<path fill="none" stroke="#9a32cd" stroke-dasharray="5,2" d="M226.78,-525.81C271.44,-508.9 352.94,-479.86 425,-464 748.82,-392.71 843.62,-418.46 1171,-471 1229.44,-480.38 1245.86,-476.24 1302,-495 1329.34,-504.13 1358.82,-520.19 1376.33,-530.45"/>
<polygon fill="#9a32cd" stroke="#9a32cd" points="225.39,-522.59 217.29,-529.43 227.88,-529.13 225.39,-522.59"/>
<text text-anchor="middle" x="791" y="-449" font-family="Helvetica,sans-Serif" font-size="10.00"> channel_id</text>
<text text-anchor="middle" x="791" y="-438" font-family="Helvetica,sans-Serif" font-size="10.00">guild_id</text>
<text text-anchor="middle" x="791" y="-427" font-family="Helvetica,sans-Serif" font-size="10.00">webhook_id</text>
</g>
<!-- Node7&#45;&gt;Node6 -->
<g id="edge6" class="edge">
<title>Node7&#45;&gt;Node6</title>
<path fill="none" stroke="#9a32cd" stroke-dasharray="5,2" d="M246.82,-542.65C304.04,-546.53 393.35,-552.58 445.73,-556.13"/>
<polygon fill="#9a32cd" stroke="#9a32cd" points="246.74,-539.14 236.53,-541.95 246.27,-546.12 246.74,-539.14"/>
<text text-anchor="middle" x="343" y="-556" font-family="Helvetica,sans-Serif" font-size="10.00"> id</text>
</g>
<!-- Node17 -->
<g id="node17" class="node">
<title>Node17</title>
<g id="a_node17"><a xlink:href="classdpp_1_1guild__member.html" target="_top" xlink:title="Represents dpp::user membership upon a dpp::guild. This contains the user&#39;s nickname,...">
<polygon fill="none" stroke="black" points="1038.5,-530.5 1038.5,-549.5 1149.5,-549.5 1149.5,-530.5 1038.5,-530.5"/>
<text text-anchor="middle" x="1094" y="-537.5" font-family="Helvetica,sans-Serif" font-size="10.00">dpp::guild_member</text>
</a>
</g>
</g>
<!-- Node7&#45;&gt;Node17 -->
<g id="edge24" class="edge">
<title>Node7&#45;&gt;Node17</title>
<path fill="none" stroke="#9a32cd" stroke-dasharray="5,2" d="M247,-536C320.33,-532.08 455.52,-525.44 571,-523 741.43,-519.39 943.06,-530.25 1038.15,-536.28"/>
<polygon fill="#9a32cd" stroke="#9a32cd" points="246.43,-532.52 236.63,-536.55 246.81,-539.51 246.43,-532.52"/>
<text text-anchor="middle" x="641.5" y="-537" font-family="Helvetica,sans-Serif" font-size="10.00"> guild_id</text>
<text text-anchor="middle" x="641.5" y="-526" font-family="Helvetica,sans-Serif" font-size="10.00">user_id</text>
</g>
<!-- Node20 -->
<g id="node20" class="node">
<title>Node20</title>
<g id="a_node20"><a xlink:href="structdpp_1_1message_1_1message__ref.html" target="_top" xlink:title="Reference to another message, e.g. a reply.">
<polygon fill="none" stroke="black" points="1017,-271.5 1017,-290.5 1171,-290.5 1171,-271.5 1017,-271.5"/>
<text text-anchor="middle" x="1094" y="-278.5" font-family="Helvetica,sans-Serif" font-size="10.00">dpp::message::message_ref</text>
</a>
</g>
</g>
<!-- Node7&#45;&gt;Node20 -->
<g id="edge31" class="edge">
<title>Node7&#45;&gt;Node20</title>
<path fill="none" stroke="#9a32cd" stroke-dasharray="5,2" d="M196.35,-519.27C203.82,-482 225.56,-401.61 279,-364 493.87,-212.77 607.67,-334.11 870,-349 927.24,-352.25 950.55,-379.66 999,-349 1014.79,-339.01 1003.35,-323.77 1017,-311 1026.94,-301.7 1040.12,-295.15 1052.7,-290.6"/>
<polygon fill="#9a32cd" stroke="#9a32cd" points="192.86,-518.89 194.47,-529.36 199.74,-520.17 192.86,-518.89"/>
<text text-anchor="middle" x="641.5" y="-352" font-family="Helvetica,sans-Serif" font-size="10.00"> channel_id</text>
<text text-anchor="middle" x="641.5" y="-341" font-family="Helvetica,sans-Serif" font-size="10.00">guild_id</text>
<text text-anchor="middle" x="641.5" y="-330" font-family="Helvetica,sans-Serif" font-size="10.00">message_id</text>
</g>
<!-- Node22 -->
<g id="node22" class="node">
<title>Node22</title>
<g id="a_node22"><a xlink:href="structdpp_1_1message_1_1message__interaction__struct.html" target="_top" xlink:title="Reference to an interaction.">
<polygon fill="none" stroke="black" points="1026.5,-723 1026.5,-753 1161.5,-753 1161.5,-723 1026.5,-723"/>
<text text-anchor="start" x="1034.5" y="-741" font-family="Helvetica,sans-Serif" font-size="10.00">dpp::message::message</text>
<text text-anchor="middle" x="1094" y="-730" font-family="Helvetica,sans-Serif" font-size="10.00">_interaction_struct</text>
</a>
</g>
</g>
<!-- Node7&#45;&gt;Node22 -->
<g id="edge34" class="edge">
<title>Node7&#45;&gt;Node22</title>
<path fill="none" stroke="#9a32cd" stroke-dasharray="5,2" d="M225.3,-552.09C241.21,-557.96 260.83,-564.38 279,-568 342.79,-580.72 360.06,-574.31 425,-578 440.94,-578.91 699.9,-580.59 712,-591 743.26,-617.89 700.21,-653.5 730,-682 773.69,-723.81 939.25,-713.68 999,-723 1007.82,-724.38 1017.1,-725.84 1026.25,-727.29"/>
<polygon fill="#9a32cd" stroke="#9a32cd" points="226.51,-548.8 215.92,-548.53 224.03,-555.35 226.51,-548.8"/>
<text text-anchor="middle" x="641.5" y="-594" font-family="Helvetica,sans-Serif" font-size="10.00"> id</text>
</g>
<!-- Node8 -->
<g id="node8" class="node">
<title>Node8</title>
<g id="a_node8"><a xlink:title=" ">
<polygon fill="none" stroke="#bfbfbf" points="0,-608.5 0,-627.5 56,-627.5 56,-608.5 0,-608.5"/>
<text text-anchor="middle" x="28" y="-615.5" font-family="Helvetica,sans-Serif" font-size="10.00">uint64_t</text>
</a>
</g>
</g>
<!-- Node8&#45;&gt;Node7 -->
<g id="edge7" class="edge">
<title>Node8&#45;&gt;Node7</title>
<path fill="none" stroke="#9a32cd" stroke-dasharray="5,2" d="M57.6,-604.05C90.32,-588.1 143.01,-562.4 171.39,-548.56"/>
<polygon fill="#9a32cd" stroke="#9a32cd" points="56,-600.94 48.54,-608.47 59.06,-607.23 56,-600.94"/>
<text text-anchor="middle" x="89.5" y="-597" font-family="Helvetica,sans-Serif" font-size="10.00"> value</text>
</g>
<!-- Node13 -->
<g id="node13" class="node">
<title>Node13</title>
<g id="a_node13"><a xlink:href="structdpp_1_1utility_1_1iconhash.html" target="_top" xlink:title="Store a 128 bit icon hash (profile picture, server icon etc) as a 128 bit binary value made of two ui...">
<polygon fill="none" stroke="black" points="430,-667.5 430,-686.5 548,-686.5 548,-667.5 430,-667.5"/>
<text text-anchor="middle" x="489" y="-674.5" font-family="Helvetica,sans-Serif" font-size="10.00">dpp::utility::iconhash</text>
</a>
</g>
</g>
<!-- Node8&#45;&gt;Node13 -->
<g id="edge16" class="edge">
<title>Node8&#45;&gt;Node13</title>
<path fill="none" stroke="#9a32cd" stroke-dasharray="5,2" d="M66.43,-622.81C146.34,-633.08 334.1,-657.22 429.77,-669.51"/>
<polygon fill="#9a32cd" stroke="#9a32cd" points="66.7,-619.32 56.34,-621.51 65.81,-626.26 66.7,-619.32"/>
<text text-anchor="middle" x="192" y="-661" font-family="Helvetica,sans-Serif" font-size="10.00"> first</text>
<text text-anchor="middle" x="192" y="-650" font-family="Helvetica,sans-Serif" font-size="10.00">second</text>
</g>
<!-- Node9&#45;&gt;Node5 -->
<g id="edge9" class="edge">
<title>Node9&#45;&gt;Node5</title>
<path fill="none" stroke="#9a32cd" stroke-dasharray="5,2" d="M808.92,-765.18C823.73,-751.51 846.51,-732.92 870,-723 1048.93,-647.44 1134.75,-755.75 1302,-657 1346.8,-630.55 1377.14,-572.48 1387.78,-549.57"/>
<polygon fill="#9a32cd" stroke="#9a32cd" points="806.39,-762.75 801.56,-772.18 811.22,-767.83 806.39,-762.75"/>
<text text-anchor="middle" x="1094" y="-704" font-family="Helvetica,sans-Serif" font-size="10.00"> author</text>
</g>
<!-- Node9&#45;&gt;Node22 -->
<g id="edge37" class="edge">
<title>Node9&#45;&gt;Node22</title>
<path fill="none" stroke="#9a32cd" stroke-dasharray="5,2" d="M813.18,-766.5C828.2,-756.49 849.3,-744.38 870,-739 921.15,-725.71 981.15,-726.31 1026.03,-729.76"/>
<polygon fill="#9a32cd" stroke="#9a32cd" points="810.91,-763.81 804.66,-772.38 814.88,-769.57 810.91,-763.81"/>
<text text-anchor="middle" x="934.5" y="-742" font-family="Helvetica,sans-Serif" font-size="10.00"> usr</text>
</g>
<!-- Node24 -->
<g id="node24" class="node">
<title>Node24</title>
<g id="a_node24"><a xlink:href="classdpp_1_1cluster.html" target="_top" xlink:title="The cluster class represents a group of shards and a command queue for sending and receiving commands...">
<polygon fill="none" stroke="black" points="1057,-1021.5 1057,-1040.5 1131,-1040.5 1131,-1021.5 1057,-1021.5"/>
<text text-anchor="middle" x="1094" y="-1028.5" font-family="Helvetica,sans-Serif" font-size="10.00">dpp::cluster</text>
</a>
</g>
</g>
<!-- Node9&#45;&gt;Node24 -->
<g id="edge46" class="edge">
<title>Node9&#45;&gt;Node24</title>
<path fill="none" stroke="#9a32cd" stroke-dasharray="5,2" d="M820.13,-796.42C870.96,-823 975.07,-880.01 999,-913 1018.11,-939.35 997.75,-957.75 1017,-984 1029.75,-1001.39 1051.06,-1013.75 1067.88,-1021.42"/>
<polygon fill="#9a32cd" stroke="#9a32cd" points="821.49,-793.18 811,-791.67 818.26,-799.39 821.49,-793.18"/>
<text text-anchor="middle" x="934.5" y="-916" font-family="Helvetica,sans-Serif" font-size="10.00"> me</text>
</g>
<!-- Node10&#45;&gt;Node9 -->
<g id="edge11" class="edge">
<title>Node10&#45;&gt;Node9</title>
<path fill="none" stroke="midnightblue" d="M554.14,-936.35C611.48,-924.7 689.8,-905.34 712,-883 732.52,-862.34 712.56,-843.32 730,-820 739.45,-807.36 754.45,-797.86 767.09,-791.52"/>
<polygon fill="midnightblue" stroke="midnightblue" points="553.17,-932.98 544.05,-938.37 554.54,-939.84 553.17,-932.98"/>
</g>
<!-- Node11 -->
<g id="node11" class="node">
<title>Node11</title>
<g id="a_node11"><a xlink:title=" ">
<polygon fill="none" stroke="#bfbfbf" points="456.5,-795.5 456.5,-814.5 521.5,-814.5 521.5,-795.5 456.5,-795.5"/>
<text text-anchor="middle" x="489" y="-802.5" font-family="Helvetica,sans-Serif" font-size="10.00">std::string</text>
</a>
</g>
</g>
<!-- Node11&#45;&gt;Node5 -->
<g id="edge27" class="edge">
<title>Node11&#45;&gt;Node5</title>
<path fill="none" stroke="#9a32cd" stroke-dasharray="5,2" d="M506.68,-788.06C522.06,-773.43 546.2,-752.82 571,-741 599.89,-727.24 822.1,-689.39 852,-678 860.55,-674.74 861.43,-671.22 870,-668 1053.84,-598.89 1113.88,-631.44 1302,-575 1325.77,-567.87 1352.13,-557.29 1370.15,-549.62"/>
<polygon fill="#9a32cd" stroke="#9a32cd" points="504.19,-785.61 499.48,-795.1 509.08,-790.61 504.19,-785.61"/>
<text text-anchor="middle" x="934.5" y="-682" font-family="Helvetica,sans-Serif" font-size="10.00"> content</text>
<text text-anchor="middle" x="934.5" y="-671" font-family="Helvetica,sans-Serif" font-size="10.00">nonce</text>
</g>
<!-- Node11&#45;&gt;Node9 -->
<g id="edge13" class="edge">
<title>Node11&#45;&gt;Node9</title>
<path fill="none" stroke="#9a32cd" stroke-dasharray="5,2" d="M531.63,-801.81C592.87,-797.11 705.83,-788.45 759.78,-784.32"/>
<polygon fill="#9a32cd" stroke="#9a32cd" points="531.24,-798.33 521.54,-802.58 531.78,-805.31 531.24,-798.33"/>
<text text-anchor="middle" x="641.5" y="-812" font-family="Helvetica,sans-Serif" font-size="10.00"> global_name</text>
<text text-anchor="middle" x="641.5" y="-801" font-family="Helvetica,sans-Serif" font-size="10.00">username</text>
</g>
<!-- Node11&#45;&gt;Node17 -->
<g id="edge21" class="edge">
<title>Node11&#45;&gt;Node17</title>
<path fill="none" stroke="#9a32cd" stroke-dasharray="5,2" d="M501.79,-787.12C515.94,-767.02 541.48,-734.74 571,-716 633.43,-676.37 659.2,-688.35 730,-667 784.13,-650.67 799.86,-652.86 852,-631 860.44,-627.46 861.67,-624.8 870,-621 936.71,-590.59 1018.46,-563.31 1062.09,-549.51"/>
<polygon fill="#9a32cd" stroke="#9a32cd" points="498.88,-785.18 496.12,-795.41 504.65,-789.13 498.88,-785.18"/>
<text text-anchor="middle" x="791" y="-670" font-family="Helvetica,sans-Serif" font-size="10.00"> nickname</text>
</g>
<!-- Node11&#45;&gt;Node22 -->
<g id="edge36" class="edge">
<title>Node11&#45;&gt;Node22</title>
<path fill="none" stroke="#9a32cd" stroke-dasharray="5,2" d="M531.51,-815.92C544.12,-818.91 558.06,-821.91 571,-824 618.04,-831.6 955.86,-871.23 999,-851 1042.44,-830.63 1072.77,-779.24 1085.82,-753.37"/>
<polygon fill="#9a32cd" stroke="#9a32cd" points="532.27,-812.5 521.73,-813.53 530.61,-819.3 532.27,-812.5"/>
<text text-anchor="middle" x="791" y="-855" font-family="Helvetica,sans-Serif" font-size="10.00"> name</text>
</g>
<!-- Node11&#45;&gt;Node24 -->
<g id="edge42" class="edge">
<title>Node11&#45;&gt;Node24</title>
<path fill="none" stroke="#9a32cd" stroke-dasharray="5,2" d="M505.64,-822.02C524.72,-842.44 556.27,-874.92 571,-883 627.52,-913.99 660.05,-878.84 712,-917 724.53,-926.2 717.43,-937.85 730,-947 743.39,-956.74 967.57,-1004.63 1056.79,-1023.42"/>
<polygon fill="#9a32cd" stroke="#9a32cd" points="508.13,-819.57 498.76,-814.62 503,-824.33 508.13,-819.57"/>
<text text-anchor="middle" x="791" y="-980" font-family="Helvetica,sans-Serif" font-size="10.00"> token</text>
</g>
<!-- Node12 -->
<g id="node12" class="node">
<title>Node12</title>
<g id="a_node12"><a xlink:title=" ">
<polygon fill="none" stroke="#bfbfbf" points="140,-790 140,-820 244,-820 244,-790 140,-790"/>
<text text-anchor="start" x="148" y="-808" font-family="Helvetica,sans-Serif" font-size="10.00">std::basic_string&lt;</text>
<text text-anchor="middle" x="192" y="-797" font-family="Helvetica,sans-Serif" font-size="10.00"> Char &gt;</text>
</a>
</g>
</g>
<!-- Node12&#45;&gt;Node11 -->
<g id="edge14" class="edge">
<title>Node12&#45;&gt;Node11</title>
<path fill="none" stroke="midnightblue" d="M254.4,-805C315.88,-805 408.08,-805 456.19,-805"/>
<polygon fill="midnightblue" stroke="midnightblue" points="254.05,-801.5 244.05,-805 254.05,-808.5 254.05,-801.5"/>
</g>
<!-- Node13&#45;&gt;Node9 -->
<g id="edge15" class="edge">
<title>Node13&#45;&gt;Node9</title>
<path fill="none" stroke="#9a32cd" stroke-dasharray="5,2" d="M526.76,-689.87C587.78,-711.22 708.6,-753.51 762.69,-772.44"/>
<polygon fill="#9a32cd" stroke="#9a32cd" points="527.75,-686.5 517.15,-686.5 525.43,-693.11 527.75,-686.5"/>
<text text-anchor="middle" x="641.5" y="-767" font-family="Helvetica,sans-Serif" font-size="10.00"> avatar</text>
<text text-anchor="middle" x="641.5" y="-756" font-family="Helvetica,sans-Serif" font-size="10.00">avatar_decoration</text>
</g>
<!-- Node13&#45;&gt;Node17 -->
<g id="edge25" class="edge">
<title>Node13&#45;&gt;Node17</title>
<path fill="none" stroke="#9a32cd" stroke-dasharray="5,2" d="M558.29,-677.17C604.26,-674.6 664.86,-665.85 712,-640 722.49,-634.25 720.05,-626.63 730,-620 784.88,-583.47 805.93,-586.5 870,-571 926.61,-557.3 992.86,-549.05 1038.36,-544.54"/>
<polygon fill="#9a32cd" stroke="#9a32cd" points="557.95,-673.68 548.12,-677.65 558.28,-680.67 557.95,-673.68"/>
<text text-anchor="middle" x="791" y="-623" font-family="Helvetica,sans-Serif" font-size="10.00"> avatar</text>
</g>
<!-- Node14 -->
<g id="node14" class="node">
<title>Node14</title>
<g id="a_node14"><a xlink:title=" ">
<polygon fill="none" stroke="#bfbfbf" points="461,-1005.5 461,-1024.5 517,-1024.5 517,-1005.5 461,-1005.5"/>
<text text-anchor="middle" x="489" y="-1012.5" font-family="Helvetica,sans-Serif" font-size="10.00">uint32_t</text>
</a>
</g>
</g>
<!-- Node14&#45;&gt;Node9 -->
<g id="edge17" class="edge">
<title>Node14&#45;&gt;Node9</title>
<path fill="none" stroke="#9a32cd" stroke-dasharray="5,2" d="M527.25,-1010.2C577.45,-1001.66 665.83,-978.89 712,-921 740.43,-885.35 704.58,-857.85 730,-820 738.59,-807.2 753.1,-797.84 765.69,-791.62"/>
<polygon fill="#9a32cd" stroke="#9a32cd" points="526.47,-1006.78 517.15,-1011.82 527.57,-1013.7 526.47,-1006.78"/>
<text text-anchor="middle" x="641.5" y="-1002" font-family="Helvetica,sans-Serif" font-size="10.00"> flags</text>
</g>
<!-- Node14&#45;&gt;Node24 -->
<g id="edge44" class="edge">
<title>Node14&#45;&gt;Node24</title>
<path fill="none" stroke="#9a32cd" stroke-dasharray="5,2" d="M527.39,-1018.22C574.57,-1022.16 658.23,-1028.69 730,-1032 849.44,-1037.51 879.46,-1037.54 999,-1035 1018.11,-1034.59 1039.38,-1033.72 1056.86,-1032.9"/>
<polygon fill="#9a32cd" stroke="#9a32cd" points="527.59,-1014.73 517.33,-1017.38 527,-1021.7 527.59,-1014.73"/>
<text text-anchor="middle" x="791" y="-1072" font-family="Helvetica,sans-Serif" font-size="10.00"> cluster_id</text>
<text text-anchor="middle" x="791" y="-1061" font-family="Helvetica,sans-Serif" font-size="10.00">intents</text>
<text text-anchor="middle" x="791" y="-1050" font-family="Helvetica,sans-Serif" font-size="10.00">maxclusters</text>
<text text-anchor="middle" x="791" y="-1039" font-family="Helvetica,sans-Serif" font-size="10.00">numshards</text>
</g>
<!-- Node15 -->
<g id="node15" class="node">
<title>Node15</title>
<g id="a_node15"><a xlink:title=" ">
<polygon fill="none" stroke="#bfbfbf" points="461,-473.5 461,-492.5 517,-492.5 517,-473.5 461,-473.5"/>
<text text-anchor="middle" x="489" y="-480.5" font-family="Helvetica,sans-Serif" font-size="10.00">uint16_t</text>
</a>
</g>
</g>
<!-- Node15&#45;&gt;Node5 -->
<g id="edge53" class="edge">
<title>Node15&#45;&gt;Node5</title>
<path fill="none" stroke="#9a32cd" stroke-dasharray="5,2" d="M527.35,-477.98C541.05,-476.36 556.7,-474.79 571,-474 760.93,-463.48 809.44,-458.19 999,-474 1128.27,-484.78 1279,-515.17 1350.41,-530.67"/>
<polygon fill="#9a32cd" stroke="#9a32cd" points="526.81,-474.52 517.31,-479.2 527.66,-481.46 526.81,-474.52"/>
<text text-anchor="middle" x="934.5" y="-477" font-family="Helvetica,sans-Serif" font-size="10.00"> flags</text>
</g>
<!-- Node15&#45;&gt;Node9 -->
<g id="edge18" class="edge">
<title>Node15&#45;&gt;Node9</title>
<path fill="none" stroke="#9a32cd" stroke-dasharray="5,2" d="M513.04,-498.69C526.5,-508.98 542.8,-523.54 553,-540 568.56,-565.12 548.83,-584.47 571,-604 618.54,-645.88 661.99,-586.1 712,-625 728.35,-637.72 721.17,-649.26 730,-668 748.59,-707.45 773.67,-752.95 784.57,-772.39"/>
<polygon fill="#9a32cd" stroke="#9a32cd" points="514.82,-495.66 504.69,-492.57 510.68,-501.31 514.82,-495.66"/>
<text text-anchor="middle" x="641.5" y="-628" font-family="Helvetica,sans-Serif" font-size="10.00"> discriminator</text>
</g>
<!-- Node15&#45;&gt;Node17 -->
<g id="edge23" class="edge">
<title>Node15&#45;&gt;Node17</title>
<path fill="none" stroke="#9a32cd" stroke-dasharray="5,2" d="M527.29,-480.99C612.08,-477.26 825.46,-472.57 999,-508 1024,-513.1 1051.51,-523 1070.27,-530.44"/>
<polygon fill="#9a32cd" stroke="#9a32cd" points="526.95,-477.51 517.12,-481.46 527.28,-484.5 526.95,-477.51"/>
<text text-anchor="middle" x="791" y="-489" font-family="Helvetica,sans-Serif" font-size="10.00"> flags</text>
</g>
<!-- Node16 -->
<g id="node16" class="node">
<title>Node16</title>
<g id="a_node16"><a xlink:title=" ">
<polygon fill="none" stroke="#bfbfbf" points="464,-879.5 464,-898.5 514,-898.5 514,-879.5 464,-879.5"/>
<text text-anchor="middle" x="489" y="-886.5" font-family="Helvetica,sans-Serif" font-size="10.00">uint8_t</text>
</a>
</g>
</g>
<!-- Node16&#45;&gt;Node9 -->
<g id="edge19" class="edge">
<title>Node16&#45;&gt;Node9</title>
<path fill="none" stroke="#9a32cd" stroke-dasharray="5,2" d="M524.16,-881.36C568.41,-870.92 647.51,-850.46 712,-824 734.62,-814.72 759.23,-800.76 774.64,-791.52"/>
<polygon fill="#9a32cd" stroke="#9a32cd" points="523.16,-877.99 514.21,-883.67 524.75,-884.81 523.16,-877.99"/>
<text text-anchor="middle" x="641.5" y="-871" font-family="Helvetica,sans-Serif" font-size="10.00"> refcount</text>
</g>
<!-- Node16&#45;&gt;Node22 -->
<g id="edge35" class="edge">
<title>Node16&#45;&gt;Node22</title>
<path fill="none" stroke="#9a32cd" stroke-dasharray="5,2" d="M523.37,-902.05C533.97,-907.52 545.01,-914.79 553,-924 567.66,-940.89 552.57,-958.32 571,-971 622.63,-1006.51 662.67,-1009.65 712,-971 738.31,-950.39 704.92,-920.08 730,-898 820.33,-818.47 895.04,-927.62 999,-867 1044.96,-840.2 1074.86,-781.04 1086.93,-753.13"/>
<polygon fill="#9a32cd" stroke="#9a32cd" points="524.78,-898.84 514.24,-897.7 521.76,-905.16 524.78,-898.84"/>
<text text-anchor="middle" x="791" y="-901" font-family="Helvetica,sans-Serif" font-size="10.00"> type</text>
</g>
<!-- Node17&#45;&gt;Node5 -->
<g id="edge20" class="edge">
<title>Node17&#45;&gt;Node5</title>
<path fill="none" stroke="#9a32cd" stroke-dasharray="5,2" d="M1159.97,-540C1217.91,-540 1300.99,-540 1350.42,-540"/>
<polygon fill="#9a32cd" stroke="#9a32cd" points="1159.82,-536.5 1149.82,-540 1159.82,-543.5 1159.82,-536.5"/>
<text text-anchor="middle" x="1245.5" y="-543" font-family="Helvetica,sans-Serif" font-size="10.00"> member</text>
</g>
<!-- Node18 -->
<g id="node18" class="node">
<title>Node18</title>
<g id="a_node18"><a xlink:title=" ">
<polygon fill="none" stroke="#bfbfbf" points="763,-111.5 763,-130.5 819,-130.5 819,-111.5 763,-111.5"/>
<text text-anchor="middle" x="791" y="-118.5" font-family="Helvetica,sans-Serif" font-size="10.00">vector&lt;</text>
</a>
</g>
</g>
<!-- Node18&#45;&gt;Node1 -->
<g id="edge55" class="edge">
<title>Node18&#45;&gt;Node1</title>
<path fill="none" stroke="#9a32cd" stroke-dasharray="5,2" d="M812.86,-105.34C827.88,-95.08 849.1,-82.57 870,-77 1055.74,-27.55 1123.29,-26.25 1302,-97 1426.41,-146.26 1551.25,-254.78 1587.22,-287.49"/>
<polygon fill="#9a32cd" stroke="#9a32cd" points="810.5,-102.72 804.37,-111.36 814.55,-108.43 810.5,-102.72"/>
<text text-anchor="middle" x="1245.5" y="-100" font-family="Helvetica,sans-Serif" font-size="10.00"> autocomplete_choices</text>
</g>
<!-- Node18&#45;&gt;Node5 -->
<g id="edge28" class="edge">
<title>Node18&#45;&gt;Node5</title>
<path fill="none" stroke="#9a32cd" stroke-dasharray="5,2" d="M829.06,-109.61C898.78,-90.23 1053.09,-57.16 1171,-103 1354.04,-174.16 1386.69,-472.72 1391.33,-530.35"/>
<polygon fill="#9a32cd" stroke="#9a32cd" points="828.06,-106.26 819.4,-112.36 829.97,-112.99 828.06,-106.26"/>
<text text-anchor="middle" x="1094" y="-216" font-family="Helvetica,sans-Serif" font-size="10.00"> attachments</text>
<text text-anchor="middle" x="1094" y="-205" font-family="Helvetica,sans-Serif" font-size="10.00">components</text>
<text text-anchor="middle" x="1094" y="-194" font-family="Helvetica,sans-Serif" font-size="10.00">embeds</text>
<text text-anchor="middle" x="1094" y="-183" font-family="Helvetica,sans-Serif" font-size="10.00">filecontent</text>
<text text-anchor="middle" x="1094" y="-172" font-family="Helvetica,sans-Serif" font-size="10.00">filemimetype</text>
<text text-anchor="middle" x="1094" y="-161" font-family="Helvetica,sans-Serif" font-size="10.00">filename</text>
<text text-anchor="middle" x="1094" y="-150" font-family="Helvetica,sans-Serif" font-size="10.00">mention_channels</text>
<text text-anchor="middle" x="1094" y="-139" font-family="Helvetica,sans-Serif" font-size="10.00">mention_roles</text>
<text text-anchor="middle" x="1094" y="-128" font-family="Helvetica,sans-Serif" font-size="10.00">mentions</text>
<text text-anchor="middle" x="1094" y="-117" font-family="Helvetica,sans-Serif" font-size="10.00">reactions</text>
<text text-anchor="middle" x="1094" y="-106" font-family="Helvetica,sans-Serif" font-size="10.00">...</text>
</g>
<!-- Node18&#45;&gt;Node17 -->
<g id="edge22" class="edge">
<title>Node18&#45;&gt;Node17</title>
<path fill="none" stroke="#9a32cd" stroke-dasharray="5,2" d="M800.13,-140.29C818.04,-182.6 860.11,-280.82 870,-294 915.25,-354.25 948.49,-348.09 999,-404 1038.06,-447.23 1074.28,-507.42 1087.6,-530.49"/>
<polygon fill="#9a32cd" stroke="#9a32cd" points="803.25,-138.68 796.13,-130.83 796.8,-141.4 803.25,-138.68"/>
<text text-anchor="middle" x="934.5" y="-407" font-family="Helvetica,sans-Serif" font-size="10.00"> roles</text>
</g>
<!-- Node23 -->
<g id="node23" class="node">
<title>Node23</title>
<g id="a_node23"><a xlink:href="structdpp_1_1message_1_1allowed__ref.html" target="_top" xlink:title="Allowed mentions details.">
<polygon fill="none" stroke="black" points="1020,-233.5 1020,-252.5 1168,-252.5 1168,-233.5 1020,-233.5"/>
<text text-anchor="middle" x="1094" y="-240.5" font-family="Helvetica,sans-Serif" font-size="10.00">dpp::message::allowed_ref</text>
</a>
</g>
</g>
<!-- Node18&#45;&gt;Node23 -->
<g id="edge40" class="edge">
<title>Node18&#45;&gt;Node23</title>
<path fill="none" stroke="#9a32cd" stroke-dasharray="5,2" d="M829.02,-127.89C872.87,-137.45 946.57,-158 999,-196 1009.51,-203.62 1006.33,-211.6 1017,-219 1025.98,-225.23 1036.66,-229.9 1047.13,-233.38"/>
<polygon fill="#9a32cd" stroke="#9a32cd" points="829.59,-124.43 819.08,-125.8 828.15,-131.28 829.59,-124.43"/>
<text text-anchor="middle" x="934.5" y="-210" font-family="Helvetica,sans-Serif" font-size="10.00"> roles</text>
<text text-anchor="middle" x="934.5" y="-199" font-family="Helvetica,sans-Serif" font-size="10.00">users</text>
</g>
<!-- Node19 -->
<g id="node19" class="node">
<title>Node19</title>
<g id="a_node19"><a xlink:title=" ">
<polygon fill="none" stroke="#bfbfbf" points="767,-918.5 767,-937.5 815,-937.5 815,-918.5 767,-918.5"/>
<text text-anchor="middle" x="791" y="-925.5" font-family="Helvetica,sans-Serif" font-size="10.00">time_t</text>
</a>
</g>
</g>
<!-- Node19&#45;&gt;Node5 -->
<g id="edge29" class="edge">
<title>Node19&#45;&gt;Node5</title>
<path fill="none" stroke="#9a32cd" stroke-dasharray="5,2" d="M825.29,-926.59C915.4,-920.96 1166.34,-892.93 1302,-754 1362.54,-692 1384.87,-583.2 1390.47,-549.94"/>
<polygon fill="#9a32cd" stroke="#9a32cd" points="824.91,-923.11 815.12,-927.17 825.31,-930.1 824.91,-923.11"/>
<text text-anchor="middle" x="1094" y="-911" font-family="Helvetica,sans-Serif" font-size="10.00"> edited</text>
<text text-anchor="middle" x="1094" y="-900" font-family="Helvetica,sans-Serif" font-size="10.00">sent</text>
</g>
<!-- Node19&#45;&gt;Node17 -->
<g id="edge26" class="edge">
<title>Node19&#45;&gt;Node17</title>
<path fill="none" stroke="#9a32cd" stroke-dasharray="5,2" d="M824.68,-921.72C834.88,-918.17 845.23,-912.63 852,-904 887.45,-858.79 830.6,-817.81 870,-776 910.11,-733.44 957.34,-791.05 999,-750 1025.89,-723.51 1003.13,-702.1 1017,-667 1035.61,-619.92 1070.58,-570.09 1085.72,-549.63"/>
<polygon fill="#9a32cd" stroke="#9a32cd" points="823.66,-918.37 815.05,-924.55 825.64,-925.09 823.66,-918.37"/>
<text text-anchor="start" x="871.5" y="-812" font-family="Helvetica,sans-Serif" font-size="10.00"> communication_disabled</text>
<text text-anchor="middle" x="934.5" y="-801" font-family="Helvetica,sans-Serif" font-size="10.00">_until</text>
<text text-anchor="middle" x="934.5" y="-790" font-family="Helvetica,sans-Serif" font-size="10.00">joined_at</text>
<text text-anchor="middle" x="934.5" y="-779" font-family="Helvetica,sans-Serif" font-size="10.00">premium_since</text>
</g>
<!-- Node19&#45;&gt;Node24 -->
<g id="edge43" class="edge">
<title>Node19&#45;&gt;Node24</title>
<path fill="none" stroke="#9a32cd" stroke-dasharray="5,2" d="M825.46,-927.61C876.7,-927.62 971.56,-930.29 999,-949 1013.45,-958.85 1005.13,-971.15 1017,-984 1032.27,-1000.52 1054.62,-1013.4 1071.14,-1021.47"/>
<polygon fill="#9a32cd" stroke="#9a32cd" points="825.22,-924.11 815.23,-927.64 825.24,-931.11 825.22,-924.11"/>
<text text-anchor="middle" x="934.5" y="-952" font-family="Helvetica,sans-Serif" font-size="10.00"> last_identify</text>
</g>
<!-- Node20&#45;&gt;Node5 -->
<g id="edge30" class="edge">
<title>Node20&#45;&gt;Node5</title>
<path fill="none" stroke="#9a32cd" stroke-dasharray="5,2" d="M1164.12,-270.72C1207.89,-268.07 1263.34,-272.29 1302,-302 1378.89,-361.08 1390.09,-493.82 1391.72,-530.47"/>
<polygon fill="#9a32cd" stroke="#9a32cd" points="1163.83,-267.24 1154.11,-271.46 1164.34,-274.22 1163.83,-267.24"/>
<text text-anchor="middle" x="1245.5" y="-305" font-family="Helvetica,sans-Serif" font-size="10.00"> message_reference</text>
</g>
<!-- Node21 -->
<g id="node21" class="node">
<title>Node21</title>
<g id="a_node21"><a xlink:title=" ">
<polygon fill="none" stroke="#bfbfbf" points="772,-268.5 772,-287.5 810,-287.5 810,-268.5 772,-268.5"/>
<text text-anchor="middle" x="791" y="-275.5" font-family="Helvetica,sans-Serif" font-size="10.00">bool</text>
</a>
</g>
</g>
<!-- Node21&#45;&gt;Node5 -->
<g id="edge54" class="edge">
<title>Node21&#45;&gt;Node5</title>
<path fill="none" stroke="#9a32cd" stroke-dasharray="5,2" d="M820.58,-282.44C896.72,-294.31 1103.32,-326.88 1171,-341 1229.77,-353.27 1254.58,-337.17 1302,-374 1356.63,-416.43 1382.35,-501.69 1389.7,-530.35"/>
<polygon fill="#9a32cd" stroke="#9a32cd" points="820.74,-278.92 810.32,-280.84 819.66,-285.84 820.74,-278.92"/>
<text text-anchor="middle" x="1094" y="-366" font-family="Helvetica,sans-Serif" font-size="10.00"> mention_everyone</text>
<text text-anchor="middle" x="1094" y="-355" font-family="Helvetica,sans-Serif" font-size="10.00">pinned</text>
<text text-anchor="middle" x="1094" y="-344" font-family="Helvetica,sans-Serif" font-size="10.00">tts</text>
</g>
<!-- Node21&#45;&gt;Node20 -->
<g id="edge32" class="edge">
<title>Node21&#45;&gt;Node20</title>
<path fill="none" stroke="#9a32cd" stroke-dasharray="5,2" d="M820.32,-277.99C860.19,-278.01 935.14,-278.17 999,-279 1004.79,-279.08 1010.79,-279.17 1016.82,-279.27"/>
<polygon fill="#9a32cd" stroke="#9a32cd" points="820.28,-274.49 810.28,-277.99 820.28,-281.49 820.28,-274.49"/>
<text text-anchor="middle" x="934.5" y="-282" font-family="Helvetica,sans-Serif" font-size="10.00"> fail_if_not_exists</text>
</g>
<!-- Node21&#45;&gt;Node23 -->
<g id="edge39" class="edge">
<title>Node21&#45;&gt;Node23</title>
<path fill="none" stroke="#9a32cd" stroke-dasharray="5,2" d="M811.2,-262.33C826.19,-251.16 848.1,-237.09 870,-231 932.57,-213.61 1008.73,-224.11 1053.91,-233.45"/>
<polygon fill="#9a32cd" stroke="#9a32cd" points="809,-259.61 803.22,-268.49 813.27,-265.15 809,-259.61"/>
<text text-anchor="middle" x="934.5" y="-267" font-family="Helvetica,sans-Serif" font-size="10.00"> parse_everyone</text>
<text text-anchor="middle" x="934.5" y="-256" font-family="Helvetica,sans-Serif" font-size="10.00">parse_roles</text>
<text text-anchor="middle" x="934.5" y="-245" font-family="Helvetica,sans-Serif" font-size="10.00">parse_users</text>
<text text-anchor="middle" x="934.5" y="-234" font-family="Helvetica,sans-Serif" font-size="10.00">replied_user</text>
</g>
<!-- Node22&#45;&gt;Node5 -->
<g id="edge33" class="edge">
<title>Node22&#45;&gt;Node5</title>
<path fill="none" stroke="#9a32cd" stroke-dasharray="5,2" d="M1171.84,-740.65C1213.73,-738.48 1264.51,-729.59 1302,-703 1357.63,-663.54 1382.7,-578.4 1389.79,-549.68"/>
<polygon fill="#9a32cd" stroke="#9a32cd" points="1171.53,-737.16 1161.68,-741.05 1171.81,-744.15 1171.53,-737.16"/>
<text text-anchor="middle" x="1245.5" y="-742" font-family="Helvetica,sans-Serif" font-size="10.00"> interaction</text>
</g>
<!-- Node23&#45;&gt;Node5 -->
<g id="edge38" class="edge">
<title>Node23&#45;&gt;Node5</title>
<path fill="none" stroke="#9a32cd" stroke-dasharray="5,2" d="M1144.25,-231.66C1189.99,-224.17 1257.55,-221.27 1302,-256 1392.68,-326.86 1393.72,-489.08 1392.44,-530.32"/>
<polygon fill="#9a32cd" stroke="#9a32cd" points="1143.5,-228.24 1134.26,-233.42 1144.72,-235.13 1143.5,-228.24"/>
<text text-anchor="middle" x="1245.5" y="-259" font-family="Helvetica,sans-Serif" font-size="10.00"> allowed_mentions</text>
</g>
<!-- Node24&#45;&gt;Node5 -->
<g id="edge41" class="edge">
<title>Node24&#45;&gt;Node5</title>
<path fill="none" stroke="#9a32cd" stroke-dasharray="5,2" d="M1141.56,-1033.92C1188.68,-1034.16 1260.34,-1026.64 1302,-984 1365.62,-918.88 1387.78,-608.45 1391.43,-549.63"/>
<polygon fill="#9a32cd" stroke="#9a32cd" points="1141.37,-1030.41 1131.32,-1033.74 1141.25,-1037.41 1141.37,-1030.41"/>
<text text-anchor="middle" x="1245.5" y="-1034" font-family="Helvetica,sans-Serif" font-size="10.00"> owner</text>
</g>
<!-- Node25 -->
<g id="node25" class="node">
<title>Node25</title>
<g id="a_node25"><a xlink:title=" ">
<polygon fill="none" stroke="#bfbfbf" points="766,-1003.5 766,-1022.5 816,-1022.5 816,-1003.5 766,-1003.5"/>
<text text-anchor="middle" x="791" y="-1010.5" font-family="Helvetica,sans-Serif" font-size="10.00">double</text>
</a>
</g>
</g>
<!-- Node25&#45;&gt;Node24 -->
<g id="edge45" class="edge">
<title>Node25&#45;&gt;Node24</title>
<path fill="none" stroke="#9a32cd" stroke-dasharray="5,2" d="M826.25,-1014.6C867.31,-1016.56 938.21,-1020.12 999,-1024 1018.11,-1025.22 1039.38,-1026.79 1056.86,-1028.13"/>
<polygon fill="#9a32cd" stroke="#9a32cd" points="826.38,-1011.1 816.23,-1014.12 826.05,-1018.09 826.38,-1011.1"/>
<text text-anchor="middle" x="934.5" y="-1027" font-family="Helvetica,sans-Serif" font-size="10.00"> rest_ping</text>
</g>
<!-- Node26 -->
<g id="node26" class="node">
<title>Node26</title>
<g id="a_node26"><a xlink:href="structdpp_1_1cache__policy__t.html" target="_top" xlink:title="Represents the caching policy of the cluster.">
<polygon fill="none" stroke="black" points="734.5,-1121.5 734.5,-1140.5 847.5,-1140.5 847.5,-1121.5 734.5,-1121.5"/>
<text text-anchor="middle" x="791" y="-1128.5" font-family="Helvetica,sans-Serif" font-size="10.00">dpp::cache_policy_t</text>
</a>
</g>
</g>
<!-- Node26&#45;&gt;Node24 -->
<g id="edge47" class="edge">
<title>Node26&#45;&gt;Node24</title>
<path fill="none" stroke="#9a32cd" stroke-dasharray="5,2" d="M834.76,-1117.3C840.85,-1114.4 846.8,-1110.99 852,-1107 862.58,-1098.89 858.65,-1089.99 870,-1083 919.59,-1052.47 942.4,-1073.72 999,-1060 1021.57,-1054.53 1046.69,-1046.69 1065.28,-1040.54"/>
<polygon fill="#9a32cd" stroke="#9a32cd" points="832.96,-1114.26 825.17,-1121.44 835.74,-1120.69 832.96,-1114.26"/>
<text text-anchor="middle" x="934.5" y="-1086" font-family="Helvetica,sans-Serif" font-size="10.00"> cache_policy</text>
</g>
<!-- Node27 -->
<g id="node27" class="node">
<title>Node27</title>
<g id="a_node27"><a xlink:title=" ">
<polygon fill="none" stroke="#bfbfbf" points="425,-1121.5 425,-1140.5 553,-1140.5 553,-1121.5 425,-1121.5"/>
<text text-anchor="middle" x="489" y="-1128.5" font-family="Helvetica,sans-Serif" font-size="10.00">cache_policy_setting_t</text>
</a>
</g>
</g>
<!-- Node27&#45;&gt;Node26 -->
<g id="edge48" class="edge">
<title>Node27&#45;&gt;Node26</title>
<path fill="none" stroke="#9a32cd" stroke-dasharray="5,2" d="M563.56,-1131C616.32,-1131 686.28,-1131 734.4,-1131"/>
<polygon fill="#9a32cd" stroke="#9a32cd" points="563.26,-1127.5 553.26,-1131 563.26,-1134.5 563.26,-1127.5"/>
<text text-anchor="middle" x="641.5" y="-1178" font-family="Helvetica,sans-Serif" font-size="10.00"> channel_policy</text>
<text text-anchor="middle" x="641.5" y="-1167" font-family="Helvetica,sans-Serif" font-size="10.00">emoji_policy</text>
<text text-anchor="middle" x="641.5" y="-1156" font-family="Helvetica,sans-Serif" font-size="10.00">guild_policy</text>
<text text-anchor="middle" x="641.5" y="-1145" font-family="Helvetica,sans-Serif" font-size="10.00">role_policy</text>
<text text-anchor="middle" x="641.5" y="-1134" font-family="Helvetica,sans-Serif" font-size="10.00">user_policy</text>
</g>
<!-- Node28 -->
<g id="node28" class="node">
<title>Node28</title>
<g id="a_node28"><a xlink:title=" ">
<polygon fill="none" stroke="#bfbfbf" points="730,-1284.5 730,-1303.5 852,-1303.5 852,-1284.5 730,-1284.5"/>
<text text-anchor="middle" x="791" y="-1291.5" font-family="Helvetica,sans-Serif" font-size="10.00">websocket_protocol_t</text>
</a>
</g>
</g>
<!-- Node28&#45;&gt;Node24 -->
<g id="edge49" class="edge">
<title>Node28&#45;&gt;Node24</title>
<path fill="none" stroke="#9a32cd" stroke-dasharray="5,2" d="M862.68,-1303.84C906.17,-1306 960.72,-1301.25 999,-1272 1077.33,-1212.15 1090.44,-1077.76 1092.59,-1040.65"/>
<polygon fill="#9a32cd" stroke="#9a32cd" points="862.65,-1300.33 852.45,-1303.19 862.21,-1307.32 862.65,-1300.33"/>
<text text-anchor="middle" x="934.5" y="-1307" font-family="Helvetica,sans-Serif" font-size="10.00"> ws_mode</text>
</g>
<!-- Node29 -->
<g id="node29" class="node">
<title>Node29</title>
<g id="a_node29"><a xlink:title=" ">
<polygon fill="none" stroke="#bfbfbf" points="737.5,-1246.5 737.5,-1265.5 844.5,-1265.5 844.5,-1246.5 737.5,-1246.5"/>
<text text-anchor="middle" x="791" y="-1253.5" font-family="Helvetica,sans-Serif" font-size="10.00">condition_variable</text>
</a>
</g>
</g>
<!-- Node29&#45;&gt;Node24 -->
<g id="edge50" class="edge">
<title>Node29&#45;&gt;Node24</title>
<path fill="none" stroke="#9a32cd" stroke-dasharray="5,2" d="M854.81,-1257.34C907.1,-1257.24 976.5,-1253.92 999,-1238 1068.92,-1188.54 1087.85,-1074.2 1091.99,-1040.51"/>
<polygon fill="#9a32cd" stroke="#9a32cd" points="854.61,-1253.84 844.6,-1257.32 854.6,-1260.84 854.61,-1253.84"/>
<text text-anchor="middle" x="934.5" y="-1260" font-family="Helvetica,sans-Serif" font-size="10.00"> terminating</text>
</g>
<!-- Node30 -->
<g id="node30" class="node">
<title>Node30</title>
<g id="a_node30"><a xlink:title=" ">
<polygon fill="none" stroke="#bfbfbf" points="743,-1159.5 743,-1178.5 839,-1178.5 839,-1159.5 743,-1159.5"/>
<text text-anchor="middle" x="791" y="-1166.5" font-family="Helvetica,sans-Serif" font-size="10.00">event_router_t&lt;</text>
</a>
</g>
</g>
<!-- Node30&#45;&gt;Node24 -->
<g id="edge51" class="edge">
<title>Node30&#45;&gt;Node24</title>
<path fill="none" stroke="#9a32cd" stroke-dasharray="5,2" d="M845.14,-1154.82C847.55,-1153.36 849.86,-1151.76 852,-1150 864.89,-1139.38 856.44,-1126.76 870,-1117 917.26,-1082.98 944.99,-1115.79 999,-1094 1031.98,-1080.7 1065.31,-1054.71 1082.01,-1040.63"/>
<polygon fill="#9a32cd" stroke="#9a32cd" points="843.33,-1151.81 836,-1159.45 846.5,-1158.05 843.33,-1151.81"/>
<text text-anchor="middle" x="934.5" y="-1230" font-family="Helvetica,sans-Serif" font-size="10.00"> on_autocomplete</text>
<text text-anchor="middle" x="934.5" y="-1219" font-family="Helvetica,sans-Serif" font-size="10.00">on_automod_rule_create</text>
<text text-anchor="middle" x="934.5" y="-1208" font-family="Helvetica,sans-Serif" font-size="10.00">on_automod_rule_delete</text>
<text text-anchor="middle" x="934.5" y="-1197" font-family="Helvetica,sans-Serif" font-size="10.00">on_automod_rule_execute</text>
<text text-anchor="middle" x="934.5" y="-1186" font-family="Helvetica,sans-Serif" font-size="10.00">on_automod_rule_update</text>
<text text-anchor="middle" x="934.5" y="-1175" font-family="Helvetica,sans-Serif" font-size="10.00">on_button_click</text>
<text text-anchor="middle" x="934.5" y="-1164" font-family="Helvetica,sans-Serif" font-size="10.00">on_channel_create</text>
<text text-anchor="middle" x="934.5" y="-1153" font-family="Helvetica,sans-Serif" font-size="10.00">on_channel_delete</text>
<text text-anchor="middle" x="934.5" y="-1142" font-family="Helvetica,sans-Serif" font-size="10.00">on_channel_pins_update</text>
<text text-anchor="middle" x="934.5" y="-1131" font-family="Helvetica,sans-Serif" font-size="10.00">on_channel_update</text>
<text text-anchor="middle" x="934.5" y="-1120" font-family="Helvetica,sans-Serif" font-size="10.00">...</text>
</g>
<!-- Node31 -->
<g id="node31" class="node">
<title>Node31</title>
<g id="a_node31"><a xlink:title=" ">
<polygon fill="none" stroke="#bfbfbf" points="1050,-955.5 1050,-974.5 1138,-974.5 1138,-955.5 1050,-955.5"/>
<text text-anchor="middle" x="1094" y="-962.5" font-family="Helvetica,sans-Serif" font-size="10.00">message_type</text>
</a>
</g>
</g>
<!-- Node31&#45;&gt;Node5 -->
<g id="edge52" class="edge">
<title>Node31&#45;&gt;Node5</title>
<path fill="none" stroke="#9a32cd" stroke-dasharray="5,2" d="M1148.51,-970.82C1195.1,-972.75 1261.36,-967.46 1302,-929 1359.9,-874.21 1386.41,-603.87 1391.2,-549.53"/>
<polygon fill="#9a32cd" stroke="#9a32cd" points="1148.48,-967.31 1138.3,-970.27 1148.1,-974.3 1148.48,-967.31"/>
<text text-anchor="middle" x="1245.5" y="-972" font-family="Helvetica,sans-Serif" font-size="10.00"> type</text>
</g>
</g>
</svg>
