<?xml version="1.0" encoding="UTF-8" standalone="no"?>
<!DOCTYPE svg PUBLIC "-//W3C//DTD SVG 1.1//EN"
 "http://www.w3.org/Graphics/SVG/1.1/DTD/svg11.dtd">
<!-- Generated by graphviz version 2.38.0 (20140413.2041)
 -->
<!-- Title: dpp::voice_receive_t Pages: 1 -->
<!--zoomable 834 -->
<svg id="main" version="1.1" xmlns="http://www.w3.org/2000/svg" xmlns:xlink="http://www.w3.org/1999/xlink" xml:space="preserve" onload="init(evt)">
<style type="text/css"><![CDATA[
.edge:hover path { stroke: red; }
.edge:hover polygon { stroke: red; fill: red; }
]]></style>
<script type="text/javascript"><![CDATA[
var edges = document.getElementsByTagName('g');
if (edges && edges.length) {
  for (var i=0;i<edges.length;i++) {
    if (edges[i].id.substr(0,4)=='edge') {
      edges[i].setAttribute('class','edge');
    }
  }
}
]]></script>
        <defs>
                <circle id="rim" cx="0" cy="0" r="7"/>
                <circle id="rim2" cx="0" cy="0" r="3.5"/>
                <g id="zoomPlus">
                        <use xlink:href="#rim" fill="#404040">
                                <set attributeName="fill" to="#808080" begin="zoomplus.mouseover" end="zoomplus.mouseout"/>
                        </use>
                        <path d="M-4,0h8M0,-4v8" fill="none" stroke="white" stroke-width="1.5" pointer-events="none"/>
                </g>
                <g id="zoomMin">
                        <use xlink:href="#rim" fill="#404040">
                                <set attributeName="fill" to="#808080" begin="zoomminus.mouseover" end="zoomminus.mouseout"/>
                        </use>
                        <path d="M-4,0h8" fill="none" stroke="white" stroke-width="1.5" pointer-events="none"/>
                </g>
                <g id="dirArrow">
                        <path fill="none" stroke="white" stroke-width="1.5" d="M0,-3.0v7 M-2.5,-0.5L0,-3.0L2.5,-0.5"/>
                </g>
               <g id="resetDef">
                       <use xlink:href="#rim2" fill="#404040">
                               <set attributeName="fill" to="#808080" begin="reset.mouseover" end="reset.mouseout"/>
                       </use>
               </g>
        </defs>

<script type="text/javascript">
var viewWidth = 1343;
var viewHeight = 834;
var sectionId = 'dynsection-1';
</script>
<script xlink:href="svgpan.js"/>
<svg id="graph" class="graph">
<g id="viewport">
<title>dpp::voice_receive_t</title>
<polygon fill="white" stroke="none" points="-4,4 -4,-830 1339,-830 1339,4 -4,4"/>
<!-- Node1 -->
<g id="node1" class="node"><title>Node1</title>
<g id="a_node1"><a xlink:title="voice receive packet">
<polygon fill="#bfbfbf" stroke="black" points="1228,-76.5 1228,-95.5 1335,-95.5 1335,-76.5 1228,-76.5"/>
<text text-anchor="middle" x="1281.5" y="-83.5" font-family="Helvetica,sans-Serif" font-size="10.00">dpp::voice_receive_t</text>
</a>
</g>
</g>
<!-- Node2 -->
<g id="node2" class="node"><title>Node2</title>
<g id="a_node2"><a xlink:href="structdpp_1_1event__dispatch__t.html" target="_top" xlink:title="Base event parameter struct.">
<polygon fill="white" stroke="black" points="1029,-122.5 1029,-141.5 1142,-141.5 1142,-122.5 1029,-122.5"/>
<text text-anchor="middle" x="1085.5" y="-129.5" font-family="Helvetica,sans-Serif" font-size="10.00">dpp::event_dispatch_t</text>
</a>
</g>
</g>
<!-- Node2&#45;&gt;Node1 -->
<g id="edge1" class="edge"><title>Node2&#45;&gt;Node1</title>
<path fill="none" stroke="midnightblue" d="M1136.82,-120.068C1169.06,-112.425 1210.32,-102.64 1240.35,-95.519"/>
<polygon fill="midnightblue" stroke="midnightblue" points="1135.62,-116.756 1126.7,-122.469 1137.23,-123.567 1135.62,-116.756"/>
</g>
<!-- Node3 -->
<g id="node3" class="node"><title>Node3</title>
<g id="a_node3"><a xlink:title=" ">
<polygon fill="white" stroke="#bfbfbf" points="170,-351.5 170,-370.5 230,-370.5 230,-351.5 170,-351.5"/>
<text text-anchor="middle" x="200" y="-358.5" font-family="Helvetica,sans-Serif" font-size="10.00">std::string</text>
</a>
</g>
</g>
<!-- Node3&#45;&gt;Node2 -->
<g id="edge2" class="edge"><title>Node3&#45;&gt;Node2</title>
<path fill="none" stroke="#9a32cd" stroke-dasharray="5,2" d="M225.773,-346.045C286.615,-310.134 449.282,-219.053 598,-179 749.99,-138.066 937.155,-131.776 1028.71,-131.417"/>
<polygon fill="#9a32cd" stroke="#9a32cd" points="223.708,-343.2 216.9,-351.318 227.284,-349.218 223.708,-343.2"/>
<text text-anchor="middle" x="655" y="-182" font-family="Helvetica,sans-Serif" font-size="10.00"> raw_event</text>
</g>
<!-- Node5 -->
<g id="node5" class="node"><title>Node5</title>
<g id="a_node5"><a xlink:href="classdpp_1_1discord__client.html" target="_top" xlink:title="Implements a discord client. Each discord_client connects to one shard and derives from a websocket c...">
<polygon fill="white" stroke="black" points="872,-309.5 872,-328.5 970,-328.5 970,-309.5 872,-309.5"/>
<text text-anchor="middle" x="921" y="-316.5" font-family="Helvetica,sans-Serif" font-size="10.00">dpp::discord_client</text>
</a>
</g>
</g>
<!-- Node3&#45;&gt;Node5 -->
<g id="edge21" class="edge"><title>Node3&#45;&gt;Node5</title>
<path fill="none" stroke="#9a32cd" stroke-dasharray="5,2" d="M240.436,-355.934C296.315,-348.953 401.785,-336.503 492,-330 597.579,-322.389 624.178,-323.557 730,-321 778.313,-319.832 833.553,-319.346 871.97,-319.144"/>
<polygon fill="#9a32cd" stroke="#9a32cd" points="239.752,-352.492 230.267,-357.213 240.626,-359.438 239.752,-352.492"/>
<text text-anchor="middle" x="536" y="-344" font-family="Helvetica,sans-Serif" font-size="10.00"> sessionid</text>
<text text-anchor="middle" x="536" y="-333" font-family="Helvetica,sans-Serif" font-size="10.00">token</text>
</g>
<!-- Node7 -->
<g id="node7" class="node"><title>Node7</title>
<g id="a_node7"><a xlink:href="classdpp_1_1ssl__client.html" target="_top" xlink:title="Implements a simple non&#45;blocking SSL stream client.">
<polygon fill="white" stroke="black" points="394,-626.5 394,-645.5 474,-645.5 474,-626.5 394,-626.5"/>
<text text-anchor="middle" x="434" y="-633.5" font-family="Helvetica,sans-Serif" font-size="10.00">dpp::ssl_client</text>
</a>
</g>
</g>
<!-- Node3&#45;&gt;Node7 -->
<g id="edge7" class="edge"><title>Node3&#45;&gt;Node7</title>
<path fill="none" stroke="#9a32cd" stroke-dasharray="5,2" d="M207.493,-380.473C217.284,-407.271 238.139,-455.642 270,-486 307.99,-522.198 337.606,-502.23 376,-538 404.082,-564.163 422.455,-607.329 429.617,-626.415"/>
<polygon fill="#9a32cd" stroke="#9a32cd" points="210.688,-379.007 204.076,-370.728 204.082,-381.323 210.688,-379.007"/>
<text text-anchor="middle" x="323" y="-585" font-family="Helvetica,sans-Serif" font-size="10.00"> buffer</text>
<text text-anchor="middle" x="323" y="-574" font-family="Helvetica,sans-Serif" font-size="10.00">cipher</text>
<text text-anchor="middle" x="323" y="-563" font-family="Helvetica,sans-Serif" font-size="10.00">hostname</text>
<text text-anchor="middle" x="323" y="-552" font-family="Helvetica,sans-Serif" font-size="10.00">obuffer</text>
<text text-anchor="middle" x="323" y="-541" font-family="Helvetica,sans-Serif" font-size="10.00">port</text>
</g>
<!-- Node22 -->
<g id="node22" class="node"><title>Node22</title>
<g id="a_node22"><a xlink:href="classdpp_1_1discord__voice__client.html" target="_top" xlink:title="Implements a discord voice connection. Each discord_voice_client connects to one voice channel and de...">
<polygon fill="white" stroke="black" points="872,-650 872,-680 970,-680 970,-650 872,-650"/>
<text text-anchor="start" x="880" y="-668" font-family="Helvetica,sans-Serif" font-size="10.00">dpp::discord_voice</text>
<text text-anchor="middle" x="921" y="-657" font-family="Helvetica,sans-Serif" font-size="10.00">_client</text>
</a>
</g>
</g>
<!-- Node3&#45;&gt;Node22 -->
<g id="edge33" class="edge"><title>Node3&#45;&gt;Node22</title>
<path fill="none" stroke="#9a32cd" stroke-dasharray="5,2" d="M240.027,-371.464C332.38,-396.588 558.237,-460.281 580,-488 623.918,-543.937 554.532,-590.712 598,-647 631.195,-689.984 663.298,-666.965 712,-691 720.407,-695.149 720.975,-699.461 730,-702 783.051,-716.927 800.678,-715.927 854,-702 870.396,-697.718 887.026,-688.356 899.492,-680.122"/>
<polygon fill="#9a32cd" stroke="#9a32cd" points="240.789,-368.045 230.221,-368.806 238.957,-374.801 240.789,-368.045"/>
<text text-anchor="middle" x="536" y="-502" font-family="Helvetica,sans-Serif" font-size="10.00"> sessionid</text>
<text text-anchor="middle" x="536" y="-491" font-family="Helvetica,sans-Serif" font-size="10.00">token</text>
</g>
<!-- Node4 -->
<g id="node4" class="node"><title>Node4</title>
<g id="a_node4"><a xlink:title=" ">
<polygon fill="white" stroke="#bfbfbf" points="0,-346 0,-376 95,-376 95,-346 0,-346"/>
<text text-anchor="start" x="8" y="-364" font-family="Helvetica,sans-Serif" font-size="10.00">std::basic_string&lt;</text>
<text text-anchor="middle" x="47.5" y="-353" font-family="Helvetica,sans-Serif" font-size="10.00"> Char &gt;</text>
</a>
</g>
</g>
<!-- Node4&#45;&gt;Node3 -->
<g id="edge3" class="edge"><title>Node4&#45;&gt;Node3</title>
<path fill="none" stroke="midnightblue" d="M105.504,-361C127.407,-361 151.506,-361 169.751,-361"/>
<polygon fill="midnightblue" stroke="midnightblue" points="105.294,-357.5 95.2942,-361 105.294,-364.5 105.294,-357.5"/>
</g>
<!-- Node5&#45;&gt;Node2 -->
<g id="edge4" class="edge"><title>Node5&#45;&gt;Node2</title>
<path fill="none" stroke="#9a32cd" stroke-dasharray="5,2" d="M937.026,-301.709C970.426,-263.273 1049.94,-171.771 1076.04,-141.735"/>
<polygon fill="#9a32cd" stroke="#9a32cd" points="934.199,-299.626 930.282,-309.47 939.483,-304.217 934.199,-299.626"/>
<text text-anchor="middle" x="999.5" y="-246" font-family="Helvetica,sans-Serif" font-size="10.00"> from</text>
</g>
<!-- Node6 -->
<g id="node6" class="node"><title>Node6</title>
<g id="a_node6"><a xlink:href="classdpp_1_1websocket__client.html" target="_top" xlink:title="Implements a websocket client based on the SSL client.">
<polygon fill="white" stroke="black" points="598,-533.5 598,-552.5 712,-552.5 712,-533.5 598,-533.5"/>
<text text-anchor="middle" x="655" y="-540.5" font-family="Helvetica,sans-Serif" font-size="10.00">dpp::websocket_client</text>
</a>
</g>
</g>
<!-- Node6&#45;&gt;Node5 -->
<g id="edge5" class="edge"><title>Node6&#45;&gt;Node5</title>
<path fill="none" stroke="midnightblue" d="M688.128,-528.954C696.191,-524.892 704.637,-520.149 712,-515 721.018,-508.694 720.288,-503.173 730,-498 779.865,-471.437 810.44,-505.981 854,-470 900.101,-431.919 914.918,-355.373 918.805,-328.55"/>
<polygon fill="midnightblue" stroke="midnightblue" points="686.413,-525.895 678.928,-533.394 689.455,-532.2 686.413,-525.895"/>
</g>
<!-- Node6&#45;&gt;Node22 -->
<g id="edge27" class="edge"><title>Node6&#45;&gt;Node22</title>
<path fill="none" stroke="midnightblue" d="M722.313,-533.081C763.123,-530.346 814.914,-533.229 854,-557 888.92,-578.238 907.938,-625.627 915.727,-649.955"/>
<polygon fill="midnightblue" stroke="midnightblue" points="721.879,-529.604 712.188,-533.888 722.435,-536.582 721.879,-529.604"/>
</g>
<!-- Node7&#45;&gt;Node6 -->
<g id="edge6" class="edge"><title>Node7&#45;&gt;Node6</title>
<path fill="none" stroke="midnightblue" d="M484.222,-641.807C514.956,-642.714 553.568,-638.547 580,-617 598.956,-601.547 581.066,-582.645 598,-565 603.063,-559.725 609.544,-555.689 616.289,-552.61"/>
<polygon fill="midnightblue" stroke="midnightblue" points="484.286,-638.306 474.13,-641.323 483.951,-645.298 484.286,-638.306"/>
</g>
<!-- Node8 -->
<g id="node8" class="node"><title>Node8</title>
<g id="a_node8"><a xlink:title=" ">
<polygon fill="white" stroke="#bfbfbf" points="182.5,-568.5 182.5,-587.5 217.5,-587.5 217.5,-568.5 182.5,-568.5"/>
<text text-anchor="middle" x="200" y="-575.5" font-family="Helvetica,sans-Serif" font-size="10.00">bool</text>
</a>
</g>
</g>
<!-- Node8&#45;&gt;Node5 -->
<g id="edge24" class="edge"><title>Node8&#45;&gt;Node5</title>
<path fill="none" stroke="#9a32cd" stroke-dasharray="5,2" d="M205.153,-558.13C212.553,-528.093 231.047,-471.7 270,-444 383.409,-363.355 445.374,-435.229 580,-400 588.304,-397.827 589.956,-395.995 598,-393 656.359,-371.268 669.534,-360.9 730,-346 777.554,-334.281 833.143,-327.118 871.86,-323.143"/>
<polygon fill="#9a32cd" stroke="#9a32cd" points="201.659,-557.708 202.841,-568.237 208.483,-559.269 201.659,-557.708"/>
<text text-anchor="middle" x="536" y="-414" font-family="Helvetica,sans-Serif" font-size="10.00"> ready</text>
</g>
<!-- Node8&#45;&gt;Node7 -->
<g id="edge8" class="edge"><title>Node8&#45;&gt;Node7</title>
<path fill="none" stroke="#9a32cd" stroke-dasharray="5,2" d="M227.476,-584.619C268.454,-594.863 347.425,-614.606 394.649,-626.412"/>
<polygon fill="#9a32cd" stroke="#9a32cd" points="228.235,-581.201 217.685,-582.171 226.537,-587.992 228.235,-581.201"/>
<text text-anchor="middle" x="323" y="-624" font-family="Helvetica,sans-Serif" font-size="10.00"> nonblocking</text>
</g>
<!-- Node8&#45;&gt;Node22 -->
<g id="edge29" class="edge"><title>Node8&#45;&gt;Node22</title>
<path fill="none" stroke="#9a32cd" stroke-dasharray="5,2" d="M227.693,-579.004C262.148,-580.593 323.869,-584.435 376,-593 420.249,-600.27 432.509,-599.988 474,-617 533.381,-641.347 538.941,-665.881 598,-691 653.958,-714.801 669.729,-718.929 730,-727 784.623,-734.315 802.761,-747.292 854,-727 877.679,-717.622 897.819,-695.285 909.417,-680.146"/>
<polygon fill="#9a32cd" stroke="#9a32cd" points="227.653,-575.499 217.511,-578.564 227.351,-582.493 227.653,-575.499"/>
<text text-anchor="middle" x="536" y="-708" font-family="Helvetica,sans-Serif" font-size="10.00"> decode_voice_recv</text>
<text text-anchor="middle" x="536" y="-697" font-family="Helvetica,sans-Serif" font-size="10.00">sodium_initialised</text>
<text text-anchor="middle" x="536" y="-686" font-family="Helvetica,sans-Serif" font-size="10.00">terminating</text>
</g>
<!-- Node9 -->
<g id="node9" class="node"><title>Node9</title>
<g id="a_node9"><a xlink:title=" ">
<polygon fill="white" stroke="#bfbfbf" points="171,-736.5 171,-755.5 229,-755.5 229,-736.5 171,-736.5"/>
<text text-anchor="middle" x="200" y="-743.5" font-family="Helvetica,sans-Serif" font-size="10.00">SOCKET</text>
</a>
</g>
</g>
<!-- Node9&#45;&gt;Node7 -->
<g id="edge9" class="edge"><title>Node9&#45;&gt;Node7</title>
<path fill="none" stroke="#9a32cd" stroke-dasharray="5,2" d="M239.246,-744.916C283.734,-743.019 353.911,-737.866 376,-724 405.909,-705.226 423.221,-664.37 429.852,-645.681"/>
<polygon fill="#9a32cd" stroke="#9a32cd" points="238.936,-741.425 229.08,-745.312 239.208,-748.42 238.936,-741.425"/>
<text text-anchor="middle" x="323" y="-746" font-family="Helvetica,sans-Serif" font-size="10.00"> sfd</text>
</g>
<!-- Node10 -->
<g id="node10" class="node"><title>Node10</title>
<g id="a_node10"><a xlink:href="classdpp_1_1opensslcontext.html" target="_top" xlink:title=" ">
<polygon fill="white" stroke="black" points="148,-698.5 148,-717.5 252,-717.5 252,-698.5 148,-698.5"/>
<text text-anchor="middle" x="200" y="-705.5" font-family="Helvetica,sans-Serif" font-size="10.00">dpp::opensslcontext</text>
</a>
</g>
</g>
<!-- Node10&#45;&gt;Node7 -->
<g id="edge10" class="edge"><title>Node10&#45;&gt;Node7</title>
<path fill="none" stroke="#9a32cd" stroke-dasharray="5,2" d="M262.327,-711.229C297.117,-710.772 340.632,-706.239 376,-690 397.803,-679.989 416.568,-658.22 426.167,-645.592"/>
<polygon fill="#9a32cd" stroke="#9a32cd" points="262.287,-707.729 252.296,-711.252 262.304,-714.729 262.287,-707.729"/>
<text text-anchor="middle" x="323" y="-714" font-family="Helvetica,sans-Serif" font-size="10.00"> ssl</text>
</g>
<!-- Node11 -->
<g id="node11" class="node"><title>Node11</title>
<g id="a_node11"><a xlink:title=" ">
<polygon fill="white" stroke="#bfbfbf" points="26.5,-679.5 26.5,-698.5 68.5,-698.5 68.5,-679.5 26.5,-679.5"/>
<text text-anchor="middle" x="47.5" y="-686.5" font-family="Helvetica,sans-Serif" font-size="10.00">SSL *</text>
</a>
</g>
</g>
<!-- Node11&#45;&gt;Node10 -->
<g id="edge11" class="edge"><title>Node11&#45;&gt;Node10</title>
<path fill="none" stroke="#9a32cd" stroke-dasharray="5,2" d="M78.6892,-689.852C94.0932,-690.54 113.099,-691.778 130,-694 138.726,-695.147 148.001,-696.757 156.827,-698.477"/>
<polygon fill="#9a32cd" stroke="#9a32cd" points="78.8001,-686.354 68.6704,-689.459 78.5252,-693.349 78.8001,-686.354"/>
<text text-anchor="middle" x="121.5" y="-697" font-family="Helvetica,sans-Serif" font-size="10.00"> ssl</text>
</g>
<!-- Node12 -->
<g id="node12" class="node"><title>Node12</title>
<g id="a_node12"><a xlink:title=" ">
<polygon fill="white" stroke="#bfbfbf" points="13.5,-717.5 13.5,-736.5 81.5,-736.5 81.5,-717.5 13.5,-717.5"/>
<text text-anchor="middle" x="47.5" y="-724.5" font-family="Helvetica,sans-Serif" font-size="10.00">SSL_CTX *</text>
</a>
</g>
</g>
<!-- Node12&#45;&gt;Node10 -->
<g id="edge12" class="edge"><title>Node12&#45;&gt;Node10</title>
<path fill="none" stroke="#9a32cd" stroke-dasharray="5,2" d="M91.5221,-721.569C109.131,-719.346 129.643,-716.756 147.999,-714.439"/>
<polygon fill="#9a32cd" stroke="#9a32cd" points="91.0107,-718.105 81.5279,-722.83 91.8875,-725.05 91.0107,-718.105"/>
<text text-anchor="middle" x="121.5" y="-721" font-family="Helvetica,sans-Serif" font-size="10.00"> ctx</text>
</g>
<!-- Node13 -->
<g id="node13" class="node"><title>Node13</title>
<g id="a_node13"><a xlink:title=" ">
<polygon fill="white" stroke="#bfbfbf" points="178,-796.5 178,-815.5 222,-815.5 222,-796.5 178,-796.5"/>
<text text-anchor="middle" x="200" y="-803.5" font-family="Helvetica,sans-Serif" font-size="10.00">time_t</text>
</a>
</g>
</g>
<!-- Node13&#45;&gt;Node5 -->
<g id="edge18" class="edge"><title>Node13&#45;&gt;Node5</title>
<path fill="none" stroke="#9a32cd" stroke-dasharray="5,2" d="M232.174,-811.014C269.05,-815.333 331.091,-817.407 376,-792 441.159,-755.137 440.188,-721.793 474,-655 485.617,-632.053 478.661,-621.991 492,-600 521.013,-552.168 553.355,-559.191 580,-510 597.564,-477.573 573.839,-456.861 598,-429 633.477,-388.089 665.216,-413.268 712,-386 720.997,-380.756 720.661,-375.608 730,-371 780.666,-345.998 799.787,-358.908 854,-343 868.156,-338.846 883.675,-333.257 896.106,-328.518"/>
<polygon fill="#9a32cd" stroke="#9a32cd" points="232.398,-807.514 222.03,-809.694 231.495,-814.455 232.398,-807.514"/>
<text text-anchor="middle" x="536" y="-614" font-family="Helvetica,sans-Serif" font-size="10.00"> last_heartbeat</text>
<text text-anchor="middle" x="536" y="-603" font-family="Helvetica,sans-Serif" font-size="10.00">last_heartbeat_ack</text>
</g>
<!-- Node13&#45;&gt;Node7 -->
<g id="edge13" class="edge"><title>Node13&#45;&gt;Node7</title>
<path fill="none" stroke="#9a32cd" stroke-dasharray="5,2" d="M231.655,-793.895C243.517,-789.476 257.279,-784.667 270,-781 316.321,-767.648 338.325,-788.076 376,-758 376.605,-757.517 415.298,-674.167 428.581,-645.53"/>
<polygon fill="#9a32cd" stroke="#9a32cd" points="230.31,-790.662 222.203,-797.483 232.794,-797.207 230.31,-790.662"/>
<text text-anchor="middle" x="323" y="-784" font-family="Helvetica,sans-Serif" font-size="10.00"> last_tick</text>
</g>
<!-- Node13&#45;&gt;Node22 -->
<g id="edge31" class="edge"><title>Node13&#45;&gt;Node22</title>
<path fill="none" stroke="#9a32cd" stroke-dasharray="5,2" d="M231.912,-811.996C243.773,-814.015 257.467,-816.007 270,-817 316.964,-820.72 329.017,-820.47 376,-817 590.192,-801.179 667.324,-852.209 854,-746 881.276,-730.481 901.828,-698.946 912.287,-680.129"/>
<polygon fill="#9a32cd" stroke="#9a32cd" points="232.494,-808.545 222.036,-810.239 231.268,-815.437 232.494,-808.545"/>
<text text-anchor="middle" x="536" y="-818" font-family="Helvetica,sans-Serif" font-size="10.00"> last_heartbeat</text>
</g>
<!-- Node14 -->
<g id="node14" class="node"><title>Node14</title>
<g id="a_node14"><a xlink:title=" ">
<polygon fill="white" stroke="#bfbfbf" points="174.5,-237.5 174.5,-256.5 225.5,-256.5 225.5,-237.5 174.5,-237.5"/>
<text text-anchor="middle" x="200" y="-244.5" font-family="Helvetica,sans-Serif" font-size="10.00">uint64_t</text>
</a>
</g>
</g>
<!-- Node14&#45;&gt;Node1 -->
<g id="edge37" class="edge"><title>Node14&#45;&gt;Node1</title>
<path fill="none" stroke="#9a32cd" stroke-dasharray="5,2" d="M213.871,-229.215C245.825,-187.334 333.429,-86 433,-86 433,-86 433,-86 1086.5,-86 1134.33,-86 1188.78,-86 1227.8,-86"/>
<polygon fill="#9a32cd" stroke="#9a32cd" points="210.931,-227.304 207.753,-237.411 216.54,-231.491 210.931,-227.304"/>
<text text-anchor="middle" x="792" y="-89" font-family="Helvetica,sans-Serif" font-size="10.00"> user_id</text>
</g>
<!-- Node14&#45;&gt;Node5 -->
<g id="edge20" class="edge"><title>Node14&#45;&gt;Node5</title>
<path fill="none" stroke="#9a32cd" stroke-dasharray="5,2" d="M216.864,-230.321C229.823,-217.967 249.321,-202.095 270,-195 392.754,-152.881 744.188,-127.835 854,-197 895.568,-223.181 912.798,-285.107 918.082,-309.185"/>
<polygon fill="#9a32cd" stroke="#9a32cd" points="214.316,-227.919 209.688,-237.45 219.249,-232.885 214.316,-227.919"/>
<text text-anchor="middle" x="536" y="-161" font-family="Helvetica,sans-Serif" font-size="10.00"> last_seq</text>
</g>
<!-- Node14&#45;&gt;Node7 -->
<g id="edge14" class="edge"><title>Node14&#45;&gt;Node7</title>
<path fill="none" stroke="#9a32cd" stroke-dasharray="5,2" d="M211.049,-265.755C229.955,-301.025 269.021,-373.825 270,-375 308.655,-421.394 341.701,-410.299 376,-460 414.309,-515.512 428.123,-598.382 431.851,-626.371"/>
<polygon fill="#9a32cd" stroke="#9a32cd" points="213.904,-263.672 206.095,-256.512 207.734,-266.979 213.904,-263.672"/>
<text text-anchor="middle" x="323" y="-474" font-family="Helvetica,sans-Serif" font-size="10.00"> bytes_in</text>
<text text-anchor="middle" x="323" y="-463" font-family="Helvetica,sans-Serif" font-size="10.00">bytes_out</text>
</g>
<!-- Node14&#45;&gt;Node22 -->
<g id="edge34" class="edge"><title>Node14&#45;&gt;Node22</title>
<path fill="none" stroke="#9a32cd" stroke-dasharray="5,2" d="M234.222,-260.235C287.881,-281.328 397.198,-323.127 492,-352 530.566,-363.746 553.963,-343.221 580,-374 612.968,-412.972 567.497,-562.07 598,-603 630.453,-646.547 670.439,-612.039 712,-647 723.899,-657.009 716.469,-669.339 730,-677 775.731,-702.893 837.95,-691.993 878.534,-680.015"/>
<polygon fill="#9a32cd" stroke="#9a32cd" points="235.454,-256.959 224.867,-256.546 232.886,-263.47 235.454,-256.959"/>
<text text-anchor="middle" x="536" y="-388" font-family="Helvetica,sans-Serif" font-size="10.00"> channel_id</text>
<text text-anchor="middle" x="536" y="-377" font-family="Helvetica,sans-Serif" font-size="10.00">server_id</text>
</g>
<!-- Node15 -->
<g id="node15" class="node"><title>Node15</title>
<g id="a_node15"><a xlink:title=" ">
<polygon fill="white" stroke="#bfbfbf" points="171.5,-635.5 171.5,-654.5 228.5,-654.5 228.5,-635.5 171.5,-635.5"/>
<text text-anchor="middle" x="200" y="-642.5" font-family="Helvetica,sans-Serif" font-size="10.00">function&lt;</text>
</a>
</g>
</g>
<!-- Node15&#45;&gt;Node7 -->
<g id="edge15" class="edge"><title>Node15&#45;&gt;Node7</title>
<path fill="none" stroke="#9a32cd" stroke-dasharray="5,2" d="M238.78,-643.534C281.488,-641.878 350.682,-639.193 393.919,-637.516"/>
<polygon fill="#9a32cd" stroke="#9a32cd" points="238.381,-640.047 228.524,-643.932 238.653,-647.042 238.381,-640.047"/>
<text text-anchor="middle" x="323" y="-679" font-family="Helvetica,sans-Serif" font-size="10.00"> custom_readable_fd</text>
<text text-anchor="middle" x="323" y="-668" font-family="Helvetica,sans-Serif" font-size="10.00">custom_readable_ready</text>
<text text-anchor="middle" x="323" y="-657" font-family="Helvetica,sans-Serif" font-size="10.00">custom_writeable_fd</text>
<text text-anchor="middle" x="323" y="-646" font-family="Helvetica,sans-Serif" font-size="10.00">custom_writeable_ready</text>
</g>
<!-- Node16 -->
<g id="node16" class="node"><title>Node16</title>
<g id="a_node16"><a xlink:title=" ">
<polygon fill="white" stroke="#bfbfbf" points="628.5,-438.5 628.5,-457.5 681.5,-457.5 681.5,-438.5 628.5,-438.5"/>
<text text-anchor="middle" x="655" y="-445.5" font-family="Helvetica,sans-Serif" font-size="10.00">cluster *</text>
</a>
</g>
</g>
<!-- Node16&#45;&gt;Node5 -->
<g id="edge16" class="edge"><title>Node16&#45;&gt;Node5</title>
<path fill="none" stroke="#9a32cd" stroke-dasharray="5,2" d="M690.951,-435.023C698.42,-431.234 705.89,-426.577 712,-421 723.485,-410.517 717.227,-399.868 730,-391 776.042,-359.033 802.617,-390.395 854,-368 876.24,-358.307 898.047,-339.879 910.189,-328.592"/>
<polygon fill="#9a32cd" stroke="#9a32cd" points="689.193,-431.98 681.593,-439.362 692.138,-438.33 689.193,-431.98"/>
<text text-anchor="middle" x="792" y="-394" font-family="Helvetica,sans-Serif" font-size="10.00"> creator</text>
</g>
<!-- Node16&#45;&gt;Node22 -->
<g id="edge28" class="edge"><title>Node16&#45;&gt;Node22</title>
<path fill="none" stroke="#9a32cd" stroke-dasharray="5,2" d="M691.856,-442.068C735.207,-437.024 808.054,-435.643 854,-473 909.655,-518.25 918.533,-612.885 919.833,-649.796"/>
<polygon fill="#9a32cd" stroke="#9a32cd" points="691.235,-438.619 681.766,-443.371 692.132,-445.562 691.235,-438.619"/>
<text text-anchor="middle" x="792" y="-476" font-family="Helvetica,sans-Serif" font-size="10.00"> creator</text>
</g>
<!-- Node17 -->
<g id="node17" class="node"><title>Node17</title>
<g id="a_node17"><a xlink:title=" ">
<polygon fill="white" stroke="#bfbfbf" points="629.5,-574.5 629.5,-593.5 680.5,-593.5 680.5,-574.5 629.5,-574.5"/>
<text text-anchor="middle" x="655" y="-581.5" font-family="Helvetica,sans-Serif" font-size="10.00">uint32_t</text>
</a>
</g>
</g>
<!-- Node17&#45;&gt;Node5 -->
<g id="edge17" class="edge"><title>Node17&#45;&gt;Node5</title>
<path fill="none" stroke="#9a32cd" stroke-dasharray="5,2" d="M690.943,-579.157C741.286,-571.509 830.741,-555.189 854,-533 914.763,-475.031 919.975,-362.535 920.12,-328.795"/>
<polygon fill="#9a32cd" stroke="#9a32cd" points="690.21,-575.728 680.832,-580.657 691.237,-582.652 690.21,-575.728"/>
<text text-anchor="middle" x="792" y="-631" font-family="Helvetica,sans-Serif" font-size="10.00"> heartbeat_interval</text>
<text text-anchor="middle" x="792" y="-620" font-family="Helvetica,sans-Serif" font-size="10.00">intents</text>
<text text-anchor="middle" x="792" y="-609" font-family="Helvetica,sans-Serif" font-size="10.00">max_shards</text>
<text text-anchor="middle" x="792" y="-598" font-family="Helvetica,sans-Serif" font-size="10.00">reconnects</text>
<text text-anchor="middle" x="792" y="-587" font-family="Helvetica,sans-Serif" font-size="10.00">resumes</text>
<text text-anchor="middle" x="792" y="-576" font-family="Helvetica,sans-Serif" font-size="10.00">shard_id</text>
</g>
<!-- Node17&#45;&gt;Node22 -->
<g id="edge30" class="edge"><title>Node17&#45;&gt;Node22</title>
<path fill="none" stroke="#9a32cd" stroke-dasharray="5,2" d="M683.842,-598.635C693.315,-604.31 703.618,-611.301 712,-619 721.82,-628.019 718.438,-636.36 730,-643 753.397,-656.436 823.647,-661.679 871.841,-663.717"/>
<polygon fill="#9a32cd" stroke="#9a32cd" points="685.519,-595.562 675.104,-593.618 682.034,-601.633 685.519,-595.562"/>
<text text-anchor="middle" x="792" y="-666" font-family="Helvetica,sans-Serif" font-size="10.00"> heartbeat_interval</text>
</g>
<!-- Node18 -->
<g id="node18" class="node"><title>Node18</title>
<g id="a_node18"><a xlink:title=" ">
<polygon fill="white" stroke="#bfbfbf" points="604.5,-486.5 604.5,-505.5 705.5,-505.5 705.5,-486.5 604.5,-486.5"/>
<text text-anchor="middle" x="655" y="-493.5" font-family="Helvetica,sans-Serif" font-size="10.00">native_handle_type</text>
</a>
</g>
</g>
<!-- Node18&#45;&gt;Node5 -->
<g id="edge19" class="edge"><title>Node18&#45;&gt;Node5</title>
<path fill="none" stroke="#9a32cd" stroke-dasharray="5,2" d="M692.353,-481.838C699.51,-477.838 706.497,-472.92 712,-467 725.827,-452.126 714.14,-437.685 730,-425 773.772,-389.989 805.959,-430.876 854,-402 884.296,-383.79 906.273,-346.208 915.368,-328.554"/>
<polygon fill="#9a32cd" stroke="#9a32cd" points="690.638,-478.784 683.296,-486.422 693.799,-485.029 690.638,-478.784"/>
<text text-anchor="middle" x="792" y="-428" font-family="Helvetica,sans-Serif" font-size="10.00"> thread_id</text>
</g>
<!-- Node18&#45;&gt;Node22 -->
<g id="edge32" class="edge"><title>Node18&#45;&gt;Node22</title>
<path fill="none" stroke="#9a32cd" stroke-dasharray="5,2" d="M715.798,-487.961C758.25,-485.505 814.49,-489.21 854,-518 898.314,-550.291 913.46,-619.305 918.126,-649.882"/>
<polygon fill="#9a32cd" stroke="#9a32cd" points="715.323,-484.486 705.595,-488.684 715.818,-491.468 715.323,-484.486"/>
<text text-anchor="middle" x="792" y="-521" font-family="Helvetica,sans-Serif" font-size="10.00"> thread_id</text>
</g>
<!-- Node19 -->
<g id="node19" class="node"><title>Node19</title>
<g id="a_node19"><a xlink:title=" ">
<polygon fill="white" stroke="#bfbfbf" points="623.5,-275.5 623.5,-294.5 686.5,-294.5 686.5,-275.5 623.5,-275.5"/>
<text text-anchor="middle" x="655" y="-282.5" font-family="Helvetica,sans-Serif" font-size="10.00">std::mutex</text>
</a>
</g>
</g>
<!-- Node19&#45;&gt;Node5 -->
<g id="edge22" class="edge"><title>Node19&#45;&gt;Node5</title>
<path fill="none" stroke="#9a32cd" stroke-dasharray="5,2" d="M696.847,-278.1C737.423,-272.698 801.063,-268.174 854,-282 874.081,-287.245 894.516,-300.11 907.218,-309.191"/>
<polygon fill="#9a32cd" stroke="#9a32cd" points="696.209,-274.655 686.797,-279.519 697.188,-281.586 696.209,-274.655"/>
<text text-anchor="middle" x="792" y="-285" font-family="Helvetica,sans-Serif" font-size="10.00"> voice_mutex</text>
</g>
<!-- Node20 -->
<g id="node20" class="node"><title>Node20</title>
<g id="a_node20"><a xlink:title=" ">
<polygon fill="white" stroke="#bfbfbf" points="632.5,-237.5 632.5,-256.5 677.5,-256.5 677.5,-237.5 632.5,-237.5"/>
<text text-anchor="middle" x="655" y="-244.5" font-family="Helvetica,sans-Serif" font-size="10.00">double</text>
</a>
</g>
</g>
<!-- Node20&#45;&gt;Node5 -->
<g id="edge23" class="edge"><title>Node20&#45;&gt;Node5</title>
<path fill="none" stroke="#9a32cd" stroke-dasharray="5,2" d="M687.624,-242.394C727.986,-237.911 799.147,-234.759 854,-258 880.147,-269.079 902.475,-295.236 913.198,-309.433"/>
<polygon fill="#9a32cd" stroke="#9a32cd" points="687.082,-238.934 677.575,-243.61 687.923,-245.884 687.082,-238.934"/>
<text text-anchor="middle" x="792" y="-261" font-family="Helvetica,sans-Serif" font-size="10.00"> websocket_ping</text>
</g>
<!-- Node21 -->
<g id="node21" class="node"><title>Node21</title>
<g id="a_node21"><a xlink:title=" ">
<polygon fill="white" stroke="#bfbfbf" points="610.5,-199.5 610.5,-218.5 699.5,-218.5 699.5,-199.5 610.5,-199.5"/>
<text text-anchor="middle" x="655" y="-206.5" font-family="Helvetica,sans-Serif" font-size="10.00">unordered_map&lt;</text>
</a>
</g>
</g>
<!-- Node21&#45;&gt;Node5 -->
<g id="edge25" class="edge"><title>Node21&#45;&gt;Node5</title>
<path fill="none" stroke="#9a32cd" stroke-dasharray="5,2" d="M709.679,-201.503C751.7,-198.3 810.168,-199.924 854,-225 888.097,-244.506 908.8,-289.656 916.532,-309.431"/>
<polygon fill="#9a32cd" stroke="#9a32cd" points="709.294,-198.023 699.638,-202.383 709.906,-204.996 709.294,-198.023"/>
<text text-anchor="middle" x="792" y="-228" font-family="Helvetica,sans-Serif" font-size="10.00"> connecting_voice_channels</text>
</g>
<!-- Node22&#45;&gt;Node1 -->
<g id="edge26" class="edge"><title>Node22&#45;&gt;Node1</title>
<path fill="none" stroke="#9a32cd" stroke-dasharray="5,2" d="M936.817,-641.069C998.459,-541.513 1233.29,-162.25 1274.35,-95.9259"/>
<polygon fill="#9a32cd" stroke="#9a32cd" points="933.693,-639.466 931.405,-649.811 939.645,-643.151 933.693,-639.466"/>
<text text-anchor="middle" x="1085.5" y="-492" font-family="Helvetica,sans-Serif" font-size="10.00"> voice_client</text>
</g>
<!-- Node23 -->
<g id="node23" class="node"><title>Node23</title>
<g id="a_node23"><a xlink:title=" ">
<polygon fill="white" stroke="#bfbfbf" points="1062.5,-38.5 1062.5,-57.5 1108.5,-57.5 1108.5,-38.5 1062.5,-38.5"/>
<text text-anchor="middle" x="1085.5" y="-45.5" font-family="Helvetica,sans-Serif" font-size="10.00">uint8_t</text>
</a>
</g>
</g>
<!-- Node23&#45;&gt;Node1 -->
<g id="edge35" class="edge"><title>Node23&#45;&gt;Node1</title>
<path fill="none" stroke="#9a32cd" stroke-dasharray="5,2" d="M1118.7,-49.3085C1143.82,-50.8274 1179.46,-54.0798 1210,-61 1226.34,-64.7021 1244.11,-71.0212 1257.73,-76.3798"/>
<polygon fill="#9a32cd" stroke="#9a32cd" points="1118.79,-45.8087 1108.62,-48.758 1118.41,-52.7983 1118.79,-45.8087"/>
<text text-anchor="middle" x="1185" y="-64" font-family="Helvetica,sans-Serif" font-size="10.00"> audio</text>
</g>
<!-- Node24 -->
<g id="node24" class="node"><title>Node24</title>
<g id="a_node24"><a xlink:title=" ">
<polygon fill="white" stroke="#bfbfbf" points="1064,-0.5 1064,-19.5 1107,-19.5 1107,-0.5 1064,-0.5"/>
<text text-anchor="middle" x="1085.5" y="-7.5" font-family="Helvetica,sans-Serif" font-size="10.00">size_t</text>
</a>
</g>
</g>
<!-- Node24&#45;&gt;Node1 -->
<g id="edge36" class="edge"><title>Node24&#45;&gt;Node1</title>
<path fill="none" stroke="#9a32cd" stroke-dasharray="5,2" d="M1117.54,-14.1397C1143.12,-18.2841 1179.95,-25.9616 1210,-39 1232.4,-48.7184 1255.39,-65.5954 1268.79,-76.2609"/>
<polygon fill="#9a32cd" stroke="#9a32cd" points="1117.73,-10.6285 1107.32,-12.5745 1116.67,-17.5478 1117.73,-10.6285"/>
<text text-anchor="middle" x="1185" y="-42" font-family="Helvetica,sans-Serif" font-size="10.00"> audio_size</text>
</g>
</g>
</svg>
        <g id="navigator" transform="translate(0 0)" fill="#404254">
                <rect fill="#f2f5e9" fill-opacity="0.5" stroke="#606060" stroke-width=".5" x="0" y="0" width="60" height="60"/>
                <use id="zoomplus" xlink:href="#zoomPlus" x="17" y="9" onmousedown="handleZoom(evt,'in')"/>
                <use id="zoomminus" xlink:href="#zoomMin" x="42" y="9" onmousedown="handleZoom(evt,'out')"/>
                <use id="reset" xlink:href="#resetDef" x="30" y="36" onmousedown="handleReset()"/>
                <g id="arrowUp" xlink:href="#dirArrow" transform="translate(30 24)" onmousedown="handlePan(0,-1)">
                  <use xlink:href="#rim" fill="#404040">
                        <set attributeName="fill" to="#808080" begin="arrowUp.mouseover" end="arrowUp.mouseout"/>
                  </use>
                  <path fill="none" stroke="white" stroke-width="1.5" d="M0,-3.0v7 M-2.5,-0.5L0,-3.0L2.5,-0.5"/>
                </g>
                <g id="arrowRight" xlink:href="#dirArrow" transform="rotate(90) translate(36 -43)" onmousedown="handlePan(1,0)">
                  <use xlink:href="#rim" fill="#404040">
                        <set attributeName="fill" to="#808080" begin="arrowRight.mouseover" end="arrowRight.mouseout"/>
                  </use>
                  <path fill="none" stroke="white" stroke-width="1.5" d="M0,-3.0v7 M-2.5,-0.5L0,-3.0L2.5,-0.5"/>
                </g>
                <g id="arrowDown" xlink:href="#dirArrow" transform="rotate(180) translate(-30 -48)" onmousedown="handlePan(0,1)">
                  <use xlink:href="#rim" fill="#404040">
                        <set attributeName="fill" to="#808080" begin="arrowDown.mouseover" end="arrowDown.mouseout"/>
                  </use>
                  <path fill="none" stroke="white" stroke-width="1.5" d="M0,-3.0v7 M-2.5,-0.5L0,-3.0L2.5,-0.5"/>
                </g>
                <g id="arrowLeft" xlink:href="#dirArrow" transform="rotate(270) translate(-36 17)" onmousedown="handlePan(-1,0)">
                  <use xlink:href="#rim" fill="#404040">
                        <set attributeName="fill" to="#808080" begin="arrowLeft.mouseover" end="arrowLeft.mouseout"/>
                  </use>
                  <path fill="none" stroke="white" stroke-width="1.5" d="M0,-3.0v7 M-2.5,-0.5L0,-3.0L2.5,-0.5"/>
                </g>
        </g>
        <svg viewBox="0 0 15 15" width="100%" height="30px" preserveAspectRatio="xMaxYMin meet">
         <g id="arrow_out" transform="scale(0.3 0.3)">
          <a xlink:href="structdpp_1_1voice__receive__t__coll__graph_org.svg" target="_base">
           <rect id="button" ry="5" rx="5" y="6" x="6" height="38" width="38"
                fill="#f2f5e9" fill-opacity="0.5" stroke="#606060" stroke-width="1.0"/>
           <path id="arrow"
             d="M 11.500037,31.436501 C 11.940474,20.09759 22.043105,11.32322 32.158766,21.979434 L 37.068811,17.246167 C 37.068811,17.246167 37.088388,32 37.088388,32 L 22.160133,31.978069 C 22.160133,31.978069 26.997745,27.140456 26.997745,27.140456 C 18.528582,18.264221 13.291696,25.230495 11.500037,31.436501 z"
             style="fill:#404040;"/>
          </a>
         </g>
        </svg>
</svg>
