<?xml version="1.0" encoding="UTF-8" standalone="no"?>
<!DOCTYPE svg PUBLIC "-//W3C//DTD SVG 1.1//EN"
 "http://www.w3.org/Graphics/SVG/1.1/DTD/svg11.dtd">
<!-- Generated by graphviz version 2.38.0 (20140413.2041)
 -->
<!-- Title: dpp::guild_emojis_update_t Pages: 1 -->
<!--zoomable 941 -->
<svg id="main" version="1.1" xmlns="http://www.w3.org/2000/svg" xmlns:xlink="http://www.w3.org/1999/xlink" xml:space="preserve" onload="init(evt)">
<style type="text/css"><![CDATA[
.edge:hover path { stroke: red; }
.edge:hover polygon { stroke: red; fill: red; }
]]></style>
<script type="text/javascript"><![CDATA[
var edges = document.getElementsByTagName('g');
if (edges && edges.length) {
  for (var i=0;i<edges.length;i++) {
    if (edges[i].id.substr(0,4)=='edge') {
      edges[i].setAttribute('class','edge');
    }
  }
}
]]></script>
        <defs>
                <circle id="rim" cx="0" cy="0" r="7"/>
                <circle id="rim2" cx="0" cy="0" r="3.5"/>
                <g id="zoomPlus">
                        <use xlink:href="#rim" fill="#404040">
                                <set attributeName="fill" to="#808080" begin="zoomplus.mouseover" end="zoomplus.mouseout"/>
                        </use>
                        <path d="M-4,0h8M0,-4v8" fill="none" stroke="white" stroke-width="1.5" pointer-events="none"/>
                </g>
                <g id="zoomMin">
                        <use xlink:href="#rim" fill="#404040">
                                <set attributeName="fill" to="#808080" begin="zoomminus.mouseover" end="zoomminus.mouseout"/>
                        </use>
                        <path d="M-4,0h8" fill="none" stroke="white" stroke-width="1.5" pointer-events="none"/>
                </g>
                <g id="dirArrow">
                        <path fill="none" stroke="white" stroke-width="1.5" d="M0,-3.0v7 M-2.5,-0.5L0,-3.0L2.5,-0.5"/>
                </g>
               <g id="resetDef">
                       <use xlink:href="#rim2" fill="#404040">
                               <set attributeName="fill" to="#808080" begin="reset.mouseover" end="reset.mouseout"/>
                       </use>
               </g>
        </defs>

<script type="text/javascript">
var viewWidth = 1418;
var viewHeight = 941;
var sectionId = 'dynsection-1';
</script>
<script xlink:href="svgpan.js"/>
<svg id="graph" class="graph">
<g id="viewport">
<title>dpp::guild_emojis_update_t</title>
<polygon fill="white" stroke="none" points="-4,4 -4,-937 1414,-937 1414,4 -4,4"/>
<!-- Node1 -->
<g id="node1" class="node"><title>Node1</title>
<g id="a_node1"><a xlink:title="Guild emojis update.">
<polygon fill="#bfbfbf" stroke="black" points="1275,-238.5 1275,-257.5 1410,-257.5 1410,-238.5 1275,-238.5"/>
<text text-anchor="middle" x="1342.5" y="-245.5" font-family="Helvetica,sans-Serif" font-size="10.00">dpp::guild_emojis_update_t</text>
</a>
</g>
</g>
<!-- Node2 -->
<g id="node2" class="node"><title>Node2</title>
<g id="a_node2"><a xlink:href="structdpp_1_1event__dispatch__t.html" target="_top" xlink:title="Base event parameter struct.">
<polygon fill="white" stroke="black" points="1125,-696.5 1125,-715.5 1238,-715.5 1238,-696.5 1125,-696.5"/>
<text text-anchor="middle" x="1181.5" y="-703.5" font-family="Helvetica,sans-Serif" font-size="10.00">dpp::event_dispatch_t</text>
</a>
</g>
</g>
<!-- Node2&#45;&gt;Node1 -->
<g id="edge1" class="edge"><title>Node2&#45;&gt;Node1</title>
<path fill="none" stroke="midnightblue" d="M1189.14,-686.873C1216.31,-608.617 1318.49,-314.294 1338.2,-257.513"/>
<polygon fill="midnightblue" stroke="midnightblue" points="1185.79,-685.839 1185.82,-696.434 1192.41,-688.135 1185.79,-685.839"/>
</g>
<!-- Node3 -->
<g id="node3" class="node"><title>Node3</title>
<g id="a_node3"><a xlink:title=" ">
<polygon fill="white" stroke="#bfbfbf" points="170,-845.5 170,-864.5 230,-864.5 230,-845.5 170,-845.5"/>
<text text-anchor="middle" x="200" y="-852.5" font-family="Helvetica,sans-Serif" font-size="10.00">std::string</text>
</a>
</g>
</g>
<!-- Node3&#45;&gt;Node2 -->
<g id="edge2" class="edge"><title>Node3&#45;&gt;Node2</title>
<path fill="none" stroke="#9a32cd" stroke-dasharray="5,2" d="M229.017,-868.641C241.289,-873.905 256.048,-879.302 270,-882 418.367,-910.686 807.178,-936.374 950,-887 1053.39,-851.258 1145.7,-747.885 1172.61,-715.691"/>
<polygon fill="#9a32cd" stroke="#9a32cd" points="230.329,-865.393 219.771,-864.501 227.468,-871.782 230.329,-865.393"/>
<text text-anchor="middle" x="735" y="-918" font-family="Helvetica,sans-Serif" font-size="10.00"> raw_event</text>
</g>
<!-- Node5 -->
<g id="node5" class="node"><title>Node5</title>
<g id="a_node5"><a xlink:href="classdpp_1_1discord__client.html" target="_top" xlink:title="Implements a discord client. Each discord_client connects to one shard and derives from a websocket c...">
<polygon fill="white" stroke="black" points="968,-696.5 968,-715.5 1066,-715.5 1066,-696.5 968,-696.5"/>
<text text-anchor="middle" x="1017" y="-703.5" font-family="Helvetica,sans-Serif" font-size="10.00">dpp::discord_client</text>
</a>
</g>
</g>
<!-- Node3&#45;&gt;Node5 -->
<g id="edge21" class="edge"><title>Node3&#45;&gt;Node5</title>
<path fill="none" stroke="#9a32cd" stroke-dasharray="5,2" d="M240.262,-862.36C249.948,-863.871 260.32,-865.233 270,-866 316.964,-869.72 329.005,-869.3 376,-866 440.251,-861.489 893.708,-816.303 950,-785 979.677,-768.497 1001.66,-732.974 1011.02,-715.755"/>
<polygon fill="#9a32cd" stroke="#9a32cd" points="240.523,-858.855 230.087,-860.683 239.385,-865.762 240.523,-858.855"/>
<text text-anchor="middle" x="577.5" y="-867" font-family="Helvetica,sans-Serif" font-size="10.00"> sessionid</text>
<text text-anchor="middle" x="577.5" y="-856" font-family="Helvetica,sans-Serif" font-size="10.00">token</text>
</g>
<!-- Node7 -->
<g id="node7" class="node"><title>Node7</title>
<g id="a_node7"><a xlink:href="classdpp_1_1ssl__client.html" target="_top" xlink:title="Implements a simple non&#45;blocking SSL stream client.">
<polygon fill="white" stroke="black" points="403.5,-640.5 403.5,-659.5 483.5,-659.5 483.5,-640.5 403.5,-640.5"/>
<text text-anchor="middle" x="443.5" y="-647.5" font-family="Helvetica,sans-Serif" font-size="10.00">dpp::ssl_client</text>
</a>
</g>
</g>
<!-- Node3&#45;&gt;Node7 -->
<g id="edge7" class="edge"><title>Node3&#45;&gt;Node7</title>
<path fill="none" stroke="#9a32cd" stroke-dasharray="5,2" d="M208.729,-835.83C219.143,-812.465 239.909,-773.455 270,-752 309.675,-723.712 334.421,-749.406 376,-724 403.562,-707.159 426.341,-675.436 436.618,-659.559"/>
<polygon fill="#9a32cd" stroke="#9a32cd" points="205.375,-834.773 204.677,-845.344 211.816,-837.516 205.375,-834.773"/>
<text text-anchor="middle" x="323" y="-799" font-family="Helvetica,sans-Serif" font-size="10.00"> buffer</text>
<text text-anchor="middle" x="323" y="-788" font-family="Helvetica,sans-Serif" font-size="10.00">cipher</text>
<text text-anchor="middle" x="323" y="-777" font-family="Helvetica,sans-Serif" font-size="10.00">hostname</text>
<text text-anchor="middle" x="323" y="-766" font-family="Helvetica,sans-Serif" font-size="10.00">obuffer</text>
<text text-anchor="middle" x="323" y="-755" font-family="Helvetica,sans-Serif" font-size="10.00">port</text>
</g>
<!-- Node23 -->
<g id="node23" class="node"><title>Node23</title>
<g id="a_node23"><a xlink:href="classdpp_1_1guild.html" target="_top" xlink:title="Represents a guild on Discord (AKA a server)">
<polygon fill="white" stroke="black" points="987.5,-238.5 987.5,-257.5 1046.5,-257.5 1046.5,-238.5 987.5,-238.5"/>
<text text-anchor="middle" x="1017" y="-245.5" font-family="Helvetica,sans-Serif" font-size="10.00">dpp::guild</text>
</a>
</g>
</g>
<!-- Node3&#45;&gt;Node23 -->
<g id="edge32" class="edge"><title>Node3&#45;&gt;Node23</title>
<path fill="none" stroke="#9a32cd" stroke-dasharray="5,2" d="M240.23,-861.081C277.698,-864.866 334.454,-865.156 376,-841 455.926,-794.529 457.486,-754.361 493,-669 509.172,-630.129 486.098,-609.946 511,-576 550.758,-521.802 596.976,-552.03 644,-504 656.237,-491.501 648.356,-479.946 662,-469 720.776,-421.847 752.794,-443.857 826,-426 880.889,-412.611 906.396,-433.928 950,-398 995.672,-360.368 1010.7,-284.865 1014.73,-257.874"/>
<polygon fill="#9a32cd" stroke="#9a32cd" points="240.534,-857.593 230.202,-859.938 239.741,-864.548 240.534,-857.593"/>
<text text-anchor="middle" x="577.5" y="-601" font-family="Helvetica,sans-Serif" font-size="10.00"> description</text>
<text text-anchor="middle" x="577.5" y="-590" font-family="Helvetica,sans-Serif" font-size="10.00">name</text>
<text text-anchor="middle" x="577.5" y="-579" font-family="Helvetica,sans-Serif" font-size="10.00">vanity_url_code</text>
</g>
<!-- Node30 -->
<g id="node30" class="node"><title>Node30</title>
<g id="a_node30"><a xlink:href="classdpp_1_1guild__member.html" target="_top" xlink:title="Represents dpp::user membership upon a dpp::guild.">
<polygon fill="white" stroke="black" points="394,-341.5 394,-360.5 493,-360.5 493,-341.5 394,-341.5"/>
<text text-anchor="middle" x="443.5" y="-348.5" font-family="Helvetica,sans-Serif" font-size="10.00">dpp::guild_member</text>
</a>
</g>
</g>
<!-- Node3&#45;&gt;Node30 -->
<g id="edge42" class="edge"><title>Node3&#45;&gt;Node30</title>
<path fill="none" stroke="#9a32cd" stroke-dasharray="5,2" d="M207.47,-835.756C217.166,-806.912 236.031,-750.751 252,-703 260.024,-679.008 251.019,-665.725 270,-649 306.033,-617.248 341.367,-661.274 376,-628 416.122,-589.453 437.087,-404.688 441.576,-360.506"/>
<polygon fill="#9a32cd" stroke="#9a32cd" points="204.098,-834.805 204.229,-845.399 210.733,-837.036 204.098,-834.805"/>
<text text-anchor="middle" x="323" y="-652" font-family="Helvetica,sans-Serif" font-size="10.00"> nickname</text>
</g>
<!-- Node4 -->
<g id="node4" class="node"><title>Node4</title>
<g id="a_node4"><a xlink:title=" ">
<polygon fill="white" stroke="#bfbfbf" points="0,-840 0,-870 95,-870 95,-840 0,-840"/>
<text text-anchor="start" x="8" y="-858" font-family="Helvetica,sans-Serif" font-size="10.00">std::basic_string&lt;</text>
<text text-anchor="middle" x="47.5" y="-847" font-family="Helvetica,sans-Serif" font-size="10.00"> Char &gt;</text>
</a>
</g>
</g>
<!-- Node4&#45;&gt;Node3 -->
<g id="edge3" class="edge"><title>Node4&#45;&gt;Node3</title>
<path fill="none" stroke="midnightblue" d="M105.504,-855C127.407,-855 151.506,-855 169.751,-855"/>
<polygon fill="midnightblue" stroke="midnightblue" points="105.294,-851.5 95.2942,-855 105.294,-858.5 105.294,-851.5"/>
</g>
<!-- Node5&#45;&gt;Node2 -->
<g id="edge4" class="edge"><title>Node5&#45;&gt;Node2</title>
<path fill="none" stroke="#9a32cd" stroke-dasharray="5,2" d="M1076.49,-706C1092.28,-706 1109.32,-706 1124.95,-706"/>
<polygon fill="#9a32cd" stroke="#9a32cd" points="1076.32,-702.5 1066.32,-706 1076.32,-709.5 1076.32,-702.5"/>
<text text-anchor="middle" x="1095.5" y="-709" font-family="Helvetica,sans-Serif" font-size="10.00"> from</text>
</g>
<!-- Node6 -->
<g id="node6" class="node"><title>Node6</title>
<g id="a_node6"><a xlink:href="classdpp_1_1websocket__client.html" target="_top" xlink:title="Implements a websocket client based on the SSL client.">
<polygon fill="white" stroke="black" points="678,-772.5 678,-791.5 792,-791.5 792,-772.5 678,-772.5"/>
<text text-anchor="middle" x="735" y="-779.5" font-family="Helvetica,sans-Serif" font-size="10.00">dpp::websocket_client</text>
</a>
</g>
</g>
<!-- Node6&#45;&gt;Node5 -->
<g id="edge5" class="edge"><title>Node6&#45;&gt;Node5</title>
<path fill="none" stroke="midnightblue" d="M802.335,-783.842C845.822,-782.843 903.093,-777.254 950,-758 973.481,-748.362 995.533,-727.803 1007.25,-715.621"/>
<polygon fill="midnightblue" stroke="midnightblue" points="802.099,-780.345 792.154,-783.998 802.207,-787.344 802.099,-780.345"/>
</g>
<!-- Node7&#45;&gt;Node6 -->
<g id="edge6" class="edge"><title>Node7&#45;&gt;Node6</title>
<path fill="none" stroke="midnightblue" d="M465.818,-665.557C478.568,-674.489 495.296,-685.569 511,-694 576.64,-729.24 659.513,-758.223 703.427,-772.47"/>
<polygon fill="midnightblue" stroke="midnightblue" points="467.485,-662.448 457.308,-659.502 463.426,-668.152 467.485,-662.448"/>
</g>
<!-- Node8 -->
<g id="node8" class="node"><title>Node8</title>
<g id="a_node8"><a xlink:title=" ">
<polygon fill="white" stroke="#bfbfbf" points="182.5,-908.5 182.5,-927.5 217.5,-927.5 217.5,-908.5 182.5,-908.5"/>
<text text-anchor="middle" x="200" y="-915.5" font-family="Helvetica,sans-Serif" font-size="10.00">bool</text>
</a>
</g>
</g>
<!-- Node8&#45;&gt;Node5 -->
<g id="edge24" class="edge"><title>Node8&#45;&gt;Node5</title>
<path fill="none" stroke="#9a32cd" stroke-dasharray="5,2" d="M227.944,-918.649C355.059,-921.476 891.095,-930.712 950,-887 1007.48,-844.345 1014.98,-746.523 1015.89,-715.573"/>
<polygon fill="#9a32cd" stroke="#9a32cd" points="227.654,-915.141 217.577,-918.412 227.494,-922.139 227.654,-915.141"/>
<text text-anchor="middle" x="577.5" y="-925" font-family="Helvetica,sans-Serif" font-size="10.00"> ready</text>
</g>
<!-- Node8&#45;&gt;Node7 -->
<g id="edge8" class="edge"><title>Node8&#45;&gt;Node7</title>
<path fill="none" stroke="#9a32cd" stroke-dasharray="5,2" d="M226.803,-907.625C264.326,-891.356 334.038,-856.507 376,-807 415.811,-760.032 434.829,-685.742 440.562,-659.535"/>
<polygon fill="#9a32cd" stroke="#9a32cd" points="225.403,-904.417 217.558,-911.539 228.131,-910.864 225.403,-904.417"/>
<text text-anchor="middle" x="323" y="-890" font-family="Helvetica,sans-Serif" font-size="10.00"> nonblocking</text>
</g>
<!-- Node9 -->
<g id="node9" class="node"><title>Node9</title>
<g id="a_node9"><a xlink:title=" ">
<polygon fill="white" stroke="#bfbfbf" points="171,-606.5 171,-625.5 229,-625.5 229,-606.5 171,-606.5"/>
<text text-anchor="middle" x="200" y="-613.5" font-family="Helvetica,sans-Serif" font-size="10.00">SOCKET</text>
</a>
</g>
</g>
<!-- Node9&#45;&gt;Node7 -->
<g id="edge9" class="edge"><title>Node9&#45;&gt;Node7</title>
<path fill="none" stroke="#9a32cd" stroke-dasharray="5,2" d="M239.074,-611.331C274.925,-608.075 329.859,-606.042 376,-617 395.186,-621.557 415.192,-632.454 428.185,-640.485"/>
<polygon fill="#9a32cd" stroke="#9a32cd" points="238.651,-607.856 229.043,-612.32 239.338,-614.822 238.651,-607.856"/>
<text text-anchor="middle" x="323" y="-620" font-family="Helvetica,sans-Serif" font-size="10.00"> sfd</text>
</g>
<!-- Node10 -->
<g id="node10" class="node"><title>Node10</title>
<g id="a_node10"><a xlink:href="classdpp_1_1opensslcontext.html" target="_top" xlink:title=" ">
<polygon fill="white" stroke="black" points="148,-568.5 148,-587.5 252,-587.5 252,-568.5 148,-568.5"/>
<text text-anchor="middle" x="200" y="-575.5" font-family="Helvetica,sans-Serif" font-size="10.00">dpp::opensslcontext</text>
</a>
</g>
</g>
<!-- Node10&#45;&gt;Node7 -->
<g id="edge10" class="edge"><title>Node10&#45;&gt;Node7</title>
<path fill="none" stroke="#9a32cd" stroke-dasharray="5,2" d="M262.762,-574.726C297.292,-575.054 340.408,-579.139 376,-594 400.792,-604.352 423.258,-627.382 434.646,-640.455"/>
<polygon fill="#9a32cd" stroke="#9a32cd" points="262.336,-571.226 252.34,-574.737 262.343,-578.226 262.336,-571.226"/>
<text text-anchor="middle" x="323" y="-597" font-family="Helvetica,sans-Serif" font-size="10.00"> ssl</text>
</g>
<!-- Node11 -->
<g id="node11" class="node"><title>Node11</title>
<g id="a_node11"><a xlink:title=" ">
<polygon fill="white" stroke="#bfbfbf" points="26.5,-549.5 26.5,-568.5 68.5,-568.5 68.5,-549.5 26.5,-549.5"/>
<text text-anchor="middle" x="47.5" y="-556.5" font-family="Helvetica,sans-Serif" font-size="10.00">SSL *</text>
</a>
</g>
</g>
<!-- Node11&#45;&gt;Node10 -->
<g id="edge11" class="edge"><title>Node11&#45;&gt;Node10</title>
<path fill="none" stroke="#9a32cd" stroke-dasharray="5,2" d="M78.6892,-559.852C94.0932,-560.54 113.099,-561.778 130,-564 138.726,-565.147 148.001,-566.757 156.827,-568.477"/>
<polygon fill="#9a32cd" stroke="#9a32cd" points="78.8001,-556.354 68.6704,-559.459 78.5252,-563.349 78.8001,-556.354"/>
<text text-anchor="middle" x="121.5" y="-567" font-family="Helvetica,sans-Serif" font-size="10.00"> ssl</text>
</g>
<!-- Node12 -->
<g id="node12" class="node"><title>Node12</title>
<g id="a_node12"><a xlink:title=" ">
<polygon fill="white" stroke="#bfbfbf" points="13.5,-587.5 13.5,-606.5 81.5,-606.5 81.5,-587.5 13.5,-587.5"/>
<text text-anchor="middle" x="47.5" y="-594.5" font-family="Helvetica,sans-Serif" font-size="10.00">SSL_CTX *</text>
</a>
</g>
</g>
<!-- Node12&#45;&gt;Node10 -->
<g id="edge12" class="edge"><title>Node12&#45;&gt;Node10</title>
<path fill="none" stroke="#9a32cd" stroke-dasharray="5,2" d="M91.5221,-591.569C109.131,-589.346 129.643,-586.756 147.999,-584.439"/>
<polygon fill="#9a32cd" stroke="#9a32cd" points="91.0107,-588.105 81.5279,-592.83 91.8875,-595.05 91.0107,-588.105"/>
<text text-anchor="middle" x="121.5" y="-592" font-family="Helvetica,sans-Serif" font-size="10.00"> ctx</text>
</g>
<!-- Node13 -->
<g id="node13" class="node"><title>Node13</title>
<g id="a_node13"><a xlink:title=" ">
<polygon fill="white" stroke="#bfbfbf" points="178,-505.5 178,-524.5 222,-524.5 222,-505.5 178,-505.5"/>
<text text-anchor="middle" x="200" y="-512.5" font-family="Helvetica,sans-Serif" font-size="10.00">time_t</text>
</a>
</g>
</g>
<!-- Node13&#45;&gt;Node5 -->
<g id="edge18" class="edge"><title>Node13&#45;&gt;Node5</title>
<path fill="none" stroke="#9a32cd" stroke-dasharray="5,2" d="M232.378,-513.12C268.093,-511.973 327.728,-513.099 376,-529 443.119,-551.11 448.136,-580.722 511,-613 567.903,-642.218 600.761,-620.861 644,-668 661.958,-687.578 640.572,-709.296 662,-725 765.252,-800.672 823,-737.064 950,-721 959.792,-719.761 970.265,-717.721 979.916,-715.537"/>
<polygon fill="#9a32cd" stroke="#9a32cd" points="231.952,-509.635 222.102,-513.536 232.235,-516.629 231.952,-509.635"/>
<text text-anchor="middle" x="577.5" y="-682" font-family="Helvetica,sans-Serif" font-size="10.00"> last_heartbeat</text>
<text text-anchor="middle" x="577.5" y="-671" font-family="Helvetica,sans-Serif" font-size="10.00">last_heartbeat_ack</text>
</g>
<!-- Node13&#45;&gt;Node7 -->
<g id="edge13" class="edge"><title>Node13&#45;&gt;Node7</title>
<path fill="none" stroke="#9a32cd" stroke-dasharray="5,2" d="M232.153,-520.413C275.852,-528.439 352.629,-544.248 376,-560 392.029,-570.804 423.322,-619.195 436.462,-640.208"/>
<polygon fill="#9a32cd" stroke="#9a32cd" points="232.529,-516.925 222.066,-518.591 231.285,-523.813 232.529,-516.925"/>
<text text-anchor="middle" x="323" y="-563" font-family="Helvetica,sans-Serif" font-size="10.00"> last_tick</text>
</g>
<!-- Node13&#45;&gt;Node30 -->
<g id="edge45" class="edge"><title>Node13&#45;&gt;Node30</title>
<path fill="none" stroke="#9a32cd" stroke-dasharray="5,2" d="M212.935,-497.016C225.467,-479.208 246.579,-452.059 270,-434 315.4,-398.994 377.939,-373.478 413.906,-360.558"/>
<polygon fill="#9a32cd" stroke="#9a32cd" points="209.969,-495.154 207.197,-505.38 215.741,-499.114 209.969,-495.154"/>
<text text-anchor="middle" x="323" y="-448" font-family="Helvetica,sans-Serif" font-size="10.00"> joined_at</text>
<text text-anchor="middle" x="323" y="-437" font-family="Helvetica,sans-Serif" font-size="10.00">premium_since</text>
</g>
<!-- Node14 -->
<g id="node14" class="node"><title>Node14</title>
<g id="a_node14"><a xlink:title=" ">
<polygon fill="white" stroke="#bfbfbf" points="174.5,-261.5 174.5,-280.5 225.5,-280.5 225.5,-261.5 174.5,-261.5"/>
<text text-anchor="middle" x="200" y="-268.5" font-family="Helvetica,sans-Serif" font-size="10.00">uint64_t</text>
</a>
</g>
</g>
<!-- Node14&#45;&gt;Node5 -->
<g id="edge20" class="edge"><title>Node14&#45;&gt;Node5</title>
<path fill="none" stroke="#9a32cd" stroke-dasharray="5,2" d="M210.042,-289.932C227.49,-326.286 264.572,-402.598 270,-406 410.879,-494.293 516.891,-306.829 644,-414 676.187,-441.138 633.83,-475.713 662,-507 712.988,-563.629 752.34,-537.484 826,-557 880.614,-571.47 904.912,-550.953 950,-585 988.765,-614.272 1007.55,-673.205 1013.67,-696.353"/>
<polygon fill="#9a32cd" stroke="#9a32cd" points="213.16,-288.339 205.684,-280.832 206.846,-291.363 213.16,-288.339"/>
<text text-anchor="middle" x="577.5" y="-417" font-family="Helvetica,sans-Serif" font-size="10.00"> last_seq</text>
</g>
<!-- Node14&#45;&gt;Node7 -->
<g id="edge14" class="edge"><title>Node14&#45;&gt;Node7</title>
<path fill="none" stroke="#9a32cd" stroke-dasharray="5,2" d="M210.832,-289.657C221.724,-310.745 239.407,-346.277 252,-378 261.646,-402.298 254.129,-413.226 270,-434 304.126,-478.669 339.389,-460.344 376,-503 413.581,-546.786 433.74,-615.289 440.181,-640.379"/>
<polygon fill="#9a32cd" stroke="#9a32cd" points="213.809,-287.795 206.083,-280.544 207.601,-291.03 213.809,-287.795"/>
<text text-anchor="middle" x="323" y="-517" font-family="Helvetica,sans-Serif" font-size="10.00"> bytes_in</text>
<text text-anchor="middle" x="323" y="-506" font-family="Helvetica,sans-Serif" font-size="10.00">bytes_out</text>
</g>
<!-- Node14&#45;&gt;Node23 -->
<g id="edge35" class="edge"><title>Node14&#45;&gt;Node23</title>
<path fill="none" stroke="#9a32cd" stroke-dasharray="5,2" d="M219.647,-254.853C232.829,-244.344 251.4,-231.281 270,-224 370.848,-184.522 402.998,-196.022 511,-188 608.53,-180.756 855.425,-194.096 950,-219 967.065,-223.494 985.354,-231.835 998.341,-238.422"/>
<polygon fill="#9a32cd" stroke="#9a32cd" points="217.309,-252.244 211.817,-261.304 221.76,-257.647 217.309,-252.244"/>
<text text-anchor="middle" x="577.5" y="-268" font-family="Helvetica,sans-Serif" font-size="10.00"> afk_channel_id</text>
<text text-anchor="middle" x="577.5" y="-257" font-family="Helvetica,sans-Serif" font-size="10.00">application_id</text>
<text text-anchor="middle" x="577.5" y="-246" font-family="Helvetica,sans-Serif" font-size="10.00">owner_id</text>
<text text-anchor="start" x="535" y="-235" font-family="Helvetica,sans-Serif" font-size="10.00">public_updates</text>
<text text-anchor="middle" x="577.5" y="-224" font-family="Helvetica,sans-Serif" font-size="10.00">_channel_id</text>
<text text-anchor="middle" x="577.5" y="-213" font-family="Helvetica,sans-Serif" font-size="10.00">rules_channel_id</text>
<text text-anchor="middle" x="577.5" y="-202" font-family="Helvetica,sans-Serif" font-size="10.00">system_channel_id</text>
<text text-anchor="middle" x="577.5" y="-191" font-family="Helvetica,sans-Serif" font-size="10.00">widget_channel_id</text>
</g>
<!-- Node24 -->
<g id="node24" class="node"><title>Node24</title>
<g id="a_node24"><a xlink:href="classdpp_1_1managed.html" target="_top" xlink:title="The managed class is the base class for various types that can be stored in a cache that are identifi...">
<polygon fill="white" stroke="black" points="538.5,-137.5 538.5,-156.5 616.5,-156.5 616.5,-137.5 538.5,-137.5"/>
<text text-anchor="middle" x="577.5" y="-144.5" font-family="Helvetica,sans-Serif" font-size="10.00">dpp::managed</text>
</a>
</g>
</g>
<!-- Node14&#45;&gt;Node24 -->
<g id="edge29" class="edge"><title>Node14&#45;&gt;Node24</title>
<path fill="none" stroke="#9a32cd" stroke-dasharray="5,2" d="M204.05,-251.325C210.159,-219.504 227.188,-157.629 270,-131 313.775,-103.772 466.485,-126.846 538.441,-139.736"/>
<polygon fill="#9a32cd" stroke="#9a32cd" points="200.594,-250.766 202.32,-261.22 207.49,-251.972 200.594,-250.766"/>
<text text-anchor="middle" x="323" y="-134" font-family="Helvetica,sans-Serif" font-size="10.00"> id</text>
</g>
<!-- Node26 -->
<g id="node26" class="node"><title>Node26</title>
<g id="a_node26"><a xlink:href="structdpp_1_1utility_1_1iconhash.html" target="_top" xlink:title="Store a 128 bit icon hash (profile picture, server icon etc) as a 128 bit binary value made of two ui...">
<polygon fill="white" stroke="black" points="524,-285.5 524,-304.5 631,-304.5 631,-285.5 524,-285.5"/>
<text text-anchor="middle" x="577.5" y="-292.5" font-family="Helvetica,sans-Serif" font-size="10.00">dpp::utility::iconhash</text>
</a>
</g>
</g>
<!-- Node14&#45;&gt;Node26 -->
<g id="edge34" class="edge"><title>Node14&#45;&gt;Node26</title>
<path fill="none" stroke="#9a32cd" stroke-dasharray="5,2" d="M223.165,-255.928C236.184,-247.998 253.315,-239.091 270,-235 315.756,-223.781 329.523,-227.299 376,-235 391.634,-237.59 495.725,-276.781 511,-281 516.716,-282.579 522.755,-284.084 528.76,-285.483"/>
<polygon fill="#9a32cd" stroke="#9a32cd" points="221.042,-253.131 214.478,-261.447 224.795,-259.039 221.042,-253.131"/>
<text text-anchor="middle" x="323" y="-249" font-family="Helvetica,sans-Serif" font-size="10.00"> first</text>
<text text-anchor="middle" x="323" y="-238" font-family="Helvetica,sans-Serif" font-size="10.00">second</text>
</g>
<!-- Node29 -->
<g id="node29" class="node"><title>Node29</title>
<g id="a_node29"><a xlink:title=" ">
<polygon fill="white" stroke="#bfbfbf" points="662,-311 662,-341 808,-341 808,-311 662,-311"/>
<text text-anchor="start" x="670" y="-329" font-family="Helvetica,sans-Serif" font-size="10.00">std::unordered_map</text>
<text text-anchor="middle" x="735" y="-318" font-family="Helvetica,sans-Serif" font-size="10.00">&lt; snowflake, guild_member &gt;</text>
</a>
</g>
</g>
<!-- Node14&#45;&gt;Node29 -->
<g id="edge40" class="edge"><title>Node14&#45;&gt;Node29</title>
<path fill="none" stroke="#9a32cd" stroke-dasharray="5,2" d="M235.97,-273.029C271.349,-275.261 327.582,-279.305 376,-285 436.306,-292.093 450.729,-298.617 511,-306 561.253,-312.156 618.097,-317.225 661.816,-320.719"/>
<polygon fill="#9a32cd" stroke="#9a32cd" points="235.888,-269.517 225.691,-272.394 235.456,-276.504 235.888,-269.517"/>
<text text-anchor="middle" x="443.5" y="-307" font-family="Helvetica,sans-Serif" font-size="10.00"> keys</text>
</g>
<!-- Node14&#45;&gt;Node30 -->
<g id="edge43" class="edge"><title>Node14&#45;&gt;Node30</title>
<path fill="none" stroke="#9a32cd" stroke-dasharray="5,2" d="M235.625,-277.05C271.508,-283.93 328.837,-296.639 376,-315 394.473,-322.192 414.29,-333.424 427.439,-341.429"/>
<polygon fill="#9a32cd" stroke="#9a32cd" points="236.13,-273.584 225.656,-275.184 234.841,-280.465 236.13,-273.584"/>
<text text-anchor="middle" x="323" y="-329" font-family="Helvetica,sans-Serif" font-size="10.00"> guild_id</text>
<text text-anchor="middle" x="323" y="-318" font-family="Helvetica,sans-Serif" font-size="10.00">user_id</text>
</g>
<!-- Node15 -->
<g id="node15" class="node"><title>Node15</title>
<g id="a_node15"><a xlink:title=" ">
<polygon fill="white" stroke="#bfbfbf" points="171.5,-674.5 171.5,-693.5 228.5,-693.5 228.5,-674.5 171.5,-674.5"/>
<text text-anchor="middle" x="200" y="-681.5" font-family="Helvetica,sans-Serif" font-size="10.00">function&lt;</text>
</a>
</g>
</g>
<!-- Node15&#45;&gt;Node7 -->
<g id="edge15" class="edge"><title>Node15&#45;&gt;Node7</title>
<path fill="none" stroke="#9a32cd" stroke-dasharray="5,2" d="M239.027,-679.813C274.531,-675.764 328.955,-669.196 376,-662 384.813,-660.652 394.255,-659.046 403.175,-657.456"/>
<polygon fill="#9a32cd" stroke="#9a32cd" points="238.189,-676.386 228.645,-680.987 238.975,-683.341 238.189,-676.386"/>
<text text-anchor="middle" x="323" y="-712" font-family="Helvetica,sans-Serif" font-size="10.00"> custom_readable_fd</text>
<text text-anchor="middle" x="323" y="-701" font-family="Helvetica,sans-Serif" font-size="10.00">custom_readable_ready</text>
<text text-anchor="middle" x="323" y="-690" font-family="Helvetica,sans-Serif" font-size="10.00">custom_writeable_fd</text>
<text text-anchor="middle" x="323" y="-679" font-family="Helvetica,sans-Serif" font-size="10.00">custom_writeable_ready</text>
</g>
<!-- Node16 -->
<g id="node16" class="node"><title>Node16</title>
<g id="a_node16"><a xlink:title=" ">
<polygon fill="white" stroke="#bfbfbf" points="708.5,-696.5 708.5,-715.5 761.5,-715.5 761.5,-696.5 708.5,-696.5"/>
<text text-anchor="middle" x="735" y="-703.5" font-family="Helvetica,sans-Serif" font-size="10.00">cluster *</text>
</a>
</g>
</g>
<!-- Node16&#45;&gt;Node5 -->
<g id="edge16" class="edge"><title>Node16&#45;&gt;Node5</title>
<path fill="none" stroke="#9a32cd" stroke-dasharray="5,2" d="M771.843,-706C821.735,-706 912.246,-706 967.946,-706"/>
<polygon fill="#9a32cd" stroke="#9a32cd" points="771.84,-702.5 761.84,-706 771.84,-709.5 771.84,-702.5"/>
<text text-anchor="middle" x="888" y="-709" font-family="Helvetica,sans-Serif" font-size="10.00"> creator</text>
</g>
<!-- Node17 -->
<g id="node17" class="node"><title>Node17</title>
<g id="a_node17"><a xlink:title=" ">
<polygon fill="white" stroke="#bfbfbf" points="709.5,-478.5 709.5,-497.5 760.5,-497.5 760.5,-478.5 709.5,-478.5"/>
<text text-anchor="middle" x="735" y="-485.5" font-family="Helvetica,sans-Serif" font-size="10.00">uint32_t</text>
</a>
</g>
</g>
<!-- Node17&#45;&gt;Node5 -->
<g id="edge17" class="edge"><title>Node17&#45;&gt;Node5</title>
<path fill="none" stroke="#9a32cd" stroke-dasharray="5,2" d="M770.582,-483.732C823.83,-477.931 922.62,-470.466 950,-491 1017.78,-541.836 1018.08,-660.971 1016.59,-696.09"/>
<polygon fill="#9a32cd" stroke="#9a32cd" points="770.119,-480.262 760.574,-484.861 770.903,-487.218 770.119,-480.262"/>
<text text-anchor="middle" x="888" y="-549" font-family="Helvetica,sans-Serif" font-size="10.00"> heartbeat_interval</text>
<text text-anchor="middle" x="888" y="-538" font-family="Helvetica,sans-Serif" font-size="10.00">intents</text>
<text text-anchor="middle" x="888" y="-527" font-family="Helvetica,sans-Serif" font-size="10.00">max_shards</text>
<text text-anchor="middle" x="888" y="-516" font-family="Helvetica,sans-Serif" font-size="10.00">reconnects</text>
<text text-anchor="middle" x="888" y="-505" font-family="Helvetica,sans-Serif" font-size="10.00">resumes</text>
<text text-anchor="middle" x="888" y="-494" font-family="Helvetica,sans-Serif" font-size="10.00">shard_id</text>
</g>
<!-- Node17&#45;&gt;Node23 -->
<g id="edge31" class="edge"><title>Node17&#45;&gt;Node23</title>
<path fill="none" stroke="#9a32cd" stroke-dasharray="5,2" d="M770.296,-477.761C782.433,-473.704 796.036,-468.653 808,-463 816.477,-458.995 817.325,-455.557 826,-452 878.367,-430.527 907.447,-460.318 950,-423 1001.76,-377.612 1013.05,-287.384 1015.41,-257.71"/>
<polygon fill="#9a32cd" stroke="#9a32cd" points="768.951,-474.517 760.515,-480.926 771.106,-481.177 768.951,-474.517"/>
<text text-anchor="middle" x="888" y="-466" font-family="Helvetica,sans-Serif" font-size="10.00"> flags</text>
<text text-anchor="middle" x="888" y="-455" font-family="Helvetica,sans-Serif" font-size="10.00">member_count</text>
</g>
<!-- Node18 -->
<g id="node18" class="node"><title>Node18</title>
<g id="a_node18"><a xlink:title=" ">
<polygon fill="white" stroke="#bfbfbf" points="684.5,-658.5 684.5,-677.5 785.5,-677.5 785.5,-658.5 684.5,-658.5"/>
<text text-anchor="middle" x="735" y="-665.5" font-family="Helvetica,sans-Serif" font-size="10.00">native_handle_type</text>
</a>
</g>
</g>
<!-- Node18&#45;&gt;Node5 -->
<g id="edge19" class="edge"><title>Node18&#45;&gt;Node5</title>
<path fill="none" stroke="#9a32cd" stroke-dasharray="5,2" d="M795.552,-672.529C838.628,-676.259 898.134,-682.349 950,-691 958.925,-692.489 968.452,-694.439 977.411,-696.438"/>
<polygon fill="#9a32cd" stroke="#9a32cd" points="795.781,-669.036 785.521,-671.677 795.189,-676.011 795.781,-669.036"/>
<text text-anchor="middle" x="888" y="-694" font-family="Helvetica,sans-Serif" font-size="10.00"> thread_id</text>
</g>
<!-- Node19 -->
<g id="node19" class="node"><title>Node19</title>
<g id="a_node19"><a xlink:title=" ">
<polygon fill="white" stroke="#bfbfbf" points="703.5,-620.5 703.5,-639.5 766.5,-639.5 766.5,-620.5 703.5,-620.5"/>
<text text-anchor="middle" x="735" y="-627.5" font-family="Helvetica,sans-Serif" font-size="10.00">std::mutex</text>
</a>
</g>
</g>
<!-- Node19&#45;&gt;Node5 -->
<g id="edge22" class="edge"><title>Node19&#45;&gt;Node5</title>
<path fill="none" stroke="#9a32cd" stroke-dasharray="5,2" d="M776.557,-630.472C820.651,-632.203 892.511,-638.627 950,-661 971.454,-669.349 992.836,-685.792 1005.22,-696.321"/>
<polygon fill="#9a32cd" stroke="#9a32cd" points="776.619,-626.972 766.509,-630.14 776.388,-633.968 776.619,-626.972"/>
<text text-anchor="middle" x="888" y="-664" font-family="Helvetica,sans-Serif" font-size="10.00"> voice_mutex</text>
</g>
<!-- Node20 -->
<g id="node20" class="node"><title>Node20</title>
<g id="a_node20"><a xlink:title=" ">
<polygon fill="white" stroke="#bfbfbf" points="712.5,-582.5 712.5,-601.5 757.5,-601.5 757.5,-582.5 712.5,-582.5"/>
<text text-anchor="middle" x="735" y="-589.5" font-family="Helvetica,sans-Serif" font-size="10.00">double</text>
</a>
</g>
</g>
<!-- Node20&#45;&gt;Node5 -->
<g id="edge23" class="edge"><title>Node20&#45;&gt;Node5</title>
<path fill="none" stroke="#9a32cd" stroke-dasharray="5,2" d="M767.867,-588.905C811.901,-586.161 892.428,-586.794 950,-620 981.465,-638.148 1003,-677.813 1011.69,-696.236"/>
<polygon fill="#9a32cd" stroke="#9a32cd" points="767.474,-585.424 757.753,-589.636 767.979,-592.405 767.474,-585.424"/>
<text text-anchor="middle" x="888" y="-623" font-family="Helvetica,sans-Serif" font-size="10.00"> websocket_ping</text>
</g>
<!-- Node21 -->
<g id="node21" class="node"><title>Node21</title>
<g id="a_node21"><a xlink:title=" ">
<polygon fill="white" stroke="#bfbfbf" points="690.5,-853.5 690.5,-872.5 779.5,-872.5 779.5,-853.5 690.5,-853.5"/>
<text text-anchor="middle" x="735" y="-860.5" font-family="Helvetica,sans-Serif" font-size="10.00">unordered_map&lt;</text>
</a>
</g>
</g>
<!-- Node21&#45;&gt;Node5 -->
<g id="edge25" class="edge"><title>Node21&#45;&gt;Node5</title>
<path fill="none" stroke="#9a32cd" stroke-dasharray="5,2" d="M789.783,-870.442C836.325,-873.96 903.309,-871.697 950,-839 993.496,-808.54 1009.73,-740.981 1014.41,-715.753"/>
<polygon fill="#9a32cd" stroke="#9a32cd" points="789.857,-866.936 779.591,-869.556 789.25,-873.909 789.857,-866.936"/>
<text text-anchor="middle" x="888" y="-875" font-family="Helvetica,sans-Serif" font-size="10.00"> connecting_voice_channels</text>
</g>
<!-- Node22 -->
<g id="node22" class="node"><title>Node22</title>
<g id="a_node22"><a xlink:title=" ">
<polygon fill="white" stroke="#bfbfbf" points="175,-78.5 175,-97.5 225,-97.5 225,-78.5 175,-78.5"/>
<text text-anchor="middle" x="200" y="-85.5" font-family="Helvetica,sans-Serif" font-size="10.00">vector&lt;</text>
</a>
</g>
</g>
<!-- Node22&#45;&gt;Node1 -->
<g id="edge26" class="edge"><title>Node22&#45;&gt;Node1</title>
<path fill="none" stroke="#9a32cd" stroke-dasharray="5,2" d="M224.509,-73.1482C266.537,-48.0624 358.075,-0 442.5,-0 442.5,-0 442.5,-0 1182.5,-0 1297.83,-0 1333.35,-192.426 1340.18,-238.278"/>
<polygon fill="#9a32cd" stroke="#9a32cd" points="222.573,-70.2289 215.847,-78.4149 226.21,-76.21 222.573,-70.2289"/>
<text text-anchor="middle" x="888" y="-3" font-family="Helvetica,sans-Serif" font-size="10.00"> emojis</text>
</g>
<!-- Node22&#45;&gt;Node23 -->
<g id="edge38" class="edge"><title>Node22&#45;&gt;Node23</title>
<path fill="none" stroke="#9a32cd" stroke-dasharray="5,2" d="M235.465,-85.2817C366.544,-75.6278 832.549,-47.7453 950,-129 989.44,-156.285 1007.83,-215.125 1013.76,-238.319"/>
<polygon fill="#9a32cd" stroke="#9a32cd" points="234.93,-81.8119 225.22,-86.0499 235.453,-88.7924 234.93,-81.8119"/>
<text text-anchor="middle" x="577.5" y="-111" font-family="Helvetica,sans-Serif" font-size="10.00"> channels</text>
<text text-anchor="middle" x="577.5" y="-100" font-family="Helvetica,sans-Serif" font-size="10.00">emojis</text>
<text text-anchor="middle" x="577.5" y="-89" font-family="Helvetica,sans-Serif" font-size="10.00">roles</text>
<text text-anchor="middle" x="577.5" y="-78" font-family="Helvetica,sans-Serif" font-size="10.00">threads</text>
</g>
<!-- Node22&#45;&gt;Node30 -->
<g id="edge44" class="edge"><title>Node22&#45;&gt;Node30</title>
<path fill="none" stroke="#9a32cd" stroke-dasharray="5,2" d="M219.364,-104.503C232.861,-116.227 251.923,-131.96 270,-144 314.519,-173.652 344.96,-157.437 376,-201 405.002,-241.702 368.857,-268.807 394,-312 401.284,-324.513 414.231,-334.612 424.916,-341.396"/>
<polygon fill="#9a32cd" stroke="#9a32cd" points="221.557,-101.771 211.739,-97.791 216.932,-107.025 221.557,-101.771"/>
<text text-anchor="middle" x="323" y="-204" font-family="Helvetica,sans-Serif" font-size="10.00"> roles</text>
</g>
<!-- Node23&#45;&gt;Node1 -->
<g id="edge27" class="edge"><title>Node23&#45;&gt;Node1</title>
<path fill="none" stroke="#9a32cd" stroke-dasharray="5,2" d="M1056.88,-248C1110.84,-248 1209.18,-248 1274.94,-248"/>
<polygon fill="#9a32cd" stroke="#9a32cd" points="1056.71,-244.5 1046.71,-248 1056.71,-251.5 1056.71,-244.5"/>
<text text-anchor="middle" x="1181.5" y="-251" font-family="Helvetica,sans-Serif" font-size="10.00"> updating_guild</text>
</g>
<!-- Node24&#45;&gt;Node23 -->
<g id="edge28" class="edge"><title>Node24&#45;&gt;Node23</title>
<path fill="none" stroke="midnightblue" d="M626.803,-141.942C714.532,-133.657 895.975,-120.938 950,-151 985.242,-170.61 1005.45,-217.912 1012.8,-238.339"/>
<polygon fill="midnightblue" stroke="midnightblue" points="626.202,-138.483 616.584,-142.927 626.874,-145.451 626.202,-138.483"/>
</g>
<!-- Node25 -->
<g id="node25" class="node"><title>Node25</title>
<g id="a_node25"><a xlink:title=" ">
<polygon fill="white" stroke="#bfbfbf" points="709.5,-28.5 709.5,-47.5 760.5,-47.5 760.5,-28.5 709.5,-28.5"/>
<text text-anchor="middle" x="735" y="-35.5" font-family="Helvetica,sans-Serif" font-size="10.00">uint16_t</text>
</a>
</g>
</g>
<!-- Node25&#45;&gt;Node23 -->
<g id="edge30" class="edge"><title>Node25&#45;&gt;Node23</title>
<path fill="none" stroke="#9a32cd" stroke-dasharray="5,2" d="M770.536,-33.028C823.721,-26.1523 922.425,-16.733 950,-37 1017.11,-86.3263 1017.87,-203.637 1016.54,-238.235"/>
<polygon fill="#9a32cd" stroke="#9a32cd" points="769.991,-29.5696 760.54,-34.3596 770.915,-36.5083 769.991,-29.5696"/>
<text text-anchor="middle" x="888" y="-73" font-family="Helvetica,sans-Serif" font-size="10.00"> max_video_channel_users</text>
<text text-anchor="start" x="828.5" y="-62" font-family="Helvetica,sans-Serif" font-size="10.00">premium_subscription</text>
<text text-anchor="middle" x="888" y="-51" font-family="Helvetica,sans-Serif" font-size="10.00">_count</text>
<text text-anchor="middle" x="888" y="-40" font-family="Helvetica,sans-Serif" font-size="10.00">shard_id</text>
</g>
<!-- Node26&#45;&gt;Node23 -->
<g id="edge33" class="edge"><title>Node26&#45;&gt;Node23</title>
<path fill="none" stroke="#9a32cd" stroke-dasharray="5,2" d="M640.609,-283.011C641.766,-282.375 642.898,-281.705 644,-281 655.233,-273.817 650.151,-263.114 662,-257 770.721,-200.901 924.324,-226.58 987.336,-240.796"/>
<polygon fill="#9a32cd" stroke="#9a32cd" points="638.961,-279.917 631.333,-287.27 641.881,-286.279 638.961,-279.917"/>
<text text-anchor="middle" x="735" y="-293" font-family="Helvetica,sans-Serif" font-size="10.00"> banner</text>
<text text-anchor="middle" x="735" y="-282" font-family="Helvetica,sans-Serif" font-size="10.00">discovery_splash</text>
<text text-anchor="middle" x="735" y="-271" font-family="Helvetica,sans-Serif" font-size="10.00">icon</text>
<text text-anchor="middle" x="735" y="-260" font-family="Helvetica,sans-Serif" font-size="10.00">splash</text>
</g>
<!-- Node27 -->
<g id="node27" class="node"><title>Node27</title>
<g id="a_node27"><a xlink:title=" ">
<polygon fill="white" stroke="#bfbfbf" points="713.5,-360.5 713.5,-379.5 756.5,-379.5 756.5,-360.5 713.5,-360.5"/>
<text text-anchor="middle" x="735" y="-367.5" font-family="Helvetica,sans-Serif" font-size="10.00">region</text>
</a>
</g>
</g>
<!-- Node27&#45;&gt;Node23 -->
<g id="edge36" class="edge"><title>Node27&#45;&gt;Node23</title>
<path fill="none" stroke="#9a32cd" stroke-dasharray="5,2" d="M766.764,-367.545C810.203,-362.948 890.811,-350.185 950,-316 976.214,-300.86 998.841,-272.355 1009.5,-257.518"/>
<polygon fill="#9a32cd" stroke="#9a32cd" points="766.168,-364.087 756.557,-368.546 766.851,-371.054 766.168,-364.087"/>
<text text-anchor="middle" x="888" y="-362" font-family="Helvetica,sans-Serif" font-size="10.00"> voice_region</text>
</g>
<!-- Node28 -->
<g id="node28" class="node"><title>Node28</title>
<g id="a_node28"><a xlink:title=" ">
<polygon fill="white" stroke="#bfbfbf" points="177,-387.5 177,-406.5 223,-406.5 223,-387.5 177,-387.5"/>
<text text-anchor="middle" x="200" y="-394.5" font-family="Helvetica,sans-Serif" font-size="10.00">uint8_t</text>
</a>
</g>
</g>
<!-- Node28&#45;&gt;Node23 -->
<g id="edge37" class="edge"><title>Node28&#45;&gt;Node23</title>
<path fill="none" stroke="#9a32cd" stroke-dasharray="5,2" d="M224.026,-411.67C236.984,-419.053 253.778,-427.22 270,-431 315.882,-441.691 328.89,-431.264 376,-431 495.117,-430.333 525.413,-439.242 644,-428 661.195,-426.37 936.058,-383.196 950,-373 990.41,-343.448 1008.33,-281.618 1013.94,-257.719"/>
<polygon fill="#9a32cd" stroke="#9a32cd" points="225.717,-408.604 215.332,-406.507 222.143,-414.623 225.717,-408.604"/>
<text text-anchor="middle" x="577.5" y="-492" font-family="Helvetica,sans-Serif" font-size="10.00"> afk_timeout</text>
<text text-anchor="middle" x="577.5" y="-481" font-family="Helvetica,sans-Serif" font-size="10.00">default_message_notifications</text>
<text text-anchor="middle" x="577.5" y="-470" font-family="Helvetica,sans-Serif" font-size="10.00">explicit_content_filter</text>
<text text-anchor="middle" x="577.5" y="-459" font-family="Helvetica,sans-Serif" font-size="10.00">mfa_level</text>
<text text-anchor="middle" x="577.5" y="-448" font-family="Helvetica,sans-Serif" font-size="10.00">premium_tier</text>
<text text-anchor="middle" x="577.5" y="-437" font-family="Helvetica,sans-Serif" font-size="10.00">verification_level</text>
</g>
<!-- Node28&#45;&gt;Node30 -->
<g id="edge46" class="edge"><title>Node28&#45;&gt;Node30</title>
<path fill="none" stroke="#9a32cd" stroke-dasharray="5,2" d="M218.871,-380.348C231.937,-369.368 250.684,-355.954 270,-350 310.354,-337.562 358.585,-339.129 393.774,-343.046"/>
<polygon fill="#9a32cd" stroke="#9a32cd" points="216.371,-377.885 211.157,-387.109 220.984,-383.15 216.371,-377.885"/>
<text text-anchor="middle" x="323" y="-353" font-family="Helvetica,sans-Serif" font-size="10.00"> flags</text>
</g>
<!-- Node29&#45;&gt;Node23 -->
<g id="edge39" class="edge"><title>Node29&#45;&gt;Node23</title>
<path fill="none" stroke="#9a32cd" stroke-dasharray="5,2" d="M799.945,-308.187C858.89,-291.766 943.662,-268.151 987.432,-255.958"/>
<polygon fill="#9a32cd" stroke="#9a32cd" points="798.681,-304.906 789.987,-310.961 800.559,-311.649 798.681,-304.906"/>
<text text-anchor="middle" x="888" y="-304" font-family="Helvetica,sans-Serif" font-size="10.00"> members</text>
</g>
<!-- Node30&#45;&gt;Node29 -->
<g id="edge41" class="edge"><title>Node30&#45;&gt;Node29</title>
<path fill="none" stroke="#9a32cd" stroke-dasharray="5,2" d="M503.358,-345.917C549.19,-341.959 613.021,-336.447 661.915,-332.225"/>
<polygon fill="#9a32cd" stroke="#9a32cd" points="502.944,-342.44 493.282,-346.787 503.546,-349.414 502.944,-342.44"/>
<text text-anchor="middle" x="577.5" y="-348" font-family="Helvetica,sans-Serif" font-size="10.00"> elements</text>
</g>
<!-- Node31 -->
<g id="node31" class="node"><title>Node31</title>
<g id="a_node31"><a xlink:title=" ">
<polygon fill="white" stroke="#bfbfbf" points="714.5,-154.5 714.5,-173.5 755.5,-173.5 755.5,-154.5 714.5,-154.5"/>
<text text-anchor="middle" x="735" y="-161.5" font-family="Helvetica,sans-Serif" font-size="10.00">map&lt;</text>
</a>
</g>
</g>
<!-- Node31&#45;&gt;Node23 -->
<g id="edge47" class="edge"><title>Node31&#45;&gt;Node23</title>
<path fill="none" stroke="#9a32cd" stroke-dasharray="5,2" d="M765.865,-159.126C808.859,-153.543 889.654,-148.496 950,-177 978.609,-190.513 1000.79,-222.47 1010.56,-238.493"/>
<polygon fill="#9a32cd" stroke="#9a32cd" points="765.202,-155.685 755.784,-160.537 766.172,-162.617 765.202,-155.685"/>
<text text-anchor="middle" x="888" y="-180" font-family="Helvetica,sans-Serif" font-size="10.00"> voice_members</text>
</g>
</g>
</svg>
        <g id="navigator" transform="translate(0 0)" fill="#404254">
                <rect fill="#f2f5e9" fill-opacity="0.5" stroke="#606060" stroke-width=".5" x="0" y="0" width="60" height="60"/>
                <use id="zoomplus" xlink:href="#zoomPlus" x="17" y="9" onmousedown="handleZoom(evt,'in')"/>
                <use id="zoomminus" xlink:href="#zoomMin" x="42" y="9" onmousedown="handleZoom(evt,'out')"/>
                <use id="reset" xlink:href="#resetDef" x="30" y="36" onmousedown="handleReset()"/>
                <g id="arrowUp" xlink:href="#dirArrow" transform="translate(30 24)" onmousedown="handlePan(0,-1)">
                  <use xlink:href="#rim" fill="#404040">
                        <set attributeName="fill" to="#808080" begin="arrowUp.mouseover" end="arrowUp.mouseout"/>
                  </use>
                  <path fill="none" stroke="white" stroke-width="1.5" d="M0,-3.0v7 M-2.5,-0.5L0,-3.0L2.5,-0.5"/>
                </g>
                <g id="arrowRight" xlink:href="#dirArrow" transform="rotate(90) translate(36 -43)" onmousedown="handlePan(1,0)">
                  <use xlink:href="#rim" fill="#404040">
                        <set attributeName="fill" to="#808080" begin="arrowRight.mouseover" end="arrowRight.mouseout"/>
                  </use>
                  <path fill="none" stroke="white" stroke-width="1.5" d="M0,-3.0v7 M-2.5,-0.5L0,-3.0L2.5,-0.5"/>
                </g>
                <g id="arrowDown" xlink:href="#dirArrow" transform="rotate(180) translate(-30 -48)" onmousedown="handlePan(0,1)">
                  <use xlink:href="#rim" fill="#404040">
                        <set attributeName="fill" to="#808080" begin="arrowDown.mouseover" end="arrowDown.mouseout"/>
                  </use>
                  <path fill="none" stroke="white" stroke-width="1.5" d="M0,-3.0v7 M-2.5,-0.5L0,-3.0L2.5,-0.5"/>
                </g>
                <g id="arrowLeft" xlink:href="#dirArrow" transform="rotate(270) translate(-36 17)" onmousedown="handlePan(-1,0)">
                  <use xlink:href="#rim" fill="#404040">
                        <set attributeName="fill" to="#808080" begin="arrowLeft.mouseover" end="arrowLeft.mouseout"/>
                  </use>
                  <path fill="none" stroke="white" stroke-width="1.5" d="M0,-3.0v7 M-2.5,-0.5L0,-3.0L2.5,-0.5"/>
                </g>
        </g>
        <svg viewBox="0 0 15 15" width="100%" height="30px" preserveAspectRatio="xMaxYMin meet">
         <g id="arrow_out" transform="scale(0.3 0.3)">
          <a xlink:href="structdpp_1_1guild__emojis__update__t__coll__graph_org.svg" target="_base">
           <rect id="button" ry="5" rx="5" y="6" x="6" height="38" width="38"
                fill="#f2f5e9" fill-opacity="0.5" stroke="#606060" stroke-width="1.0"/>
           <path id="arrow"
             d="M 11.500037,31.436501 C 11.940474,20.09759 22.043105,11.32322 32.158766,21.979434 L 37.068811,17.246167 C 37.068811,17.246167 37.088388,32 37.088388,32 L 22.160133,31.978069 C 22.160133,31.978069 26.997745,27.140456 26.997745,27.140456 C 18.528582,18.264221 13.291696,25.230495 11.500037,31.436501 z"
             style="fill:#404040;"/>
          </a>
         </g>
        </svg>
</svg>
