<?xml version="1.0" encoding="UTF-8" standalone="no"?>
<!DOCTYPE svg PUBLIC "-//W3C//DTD SVG 1.1//EN"
 "http://www.w3.org/Graphics/SVG/1.1/DTD/svg11.dtd">
<!-- Generated by graphviz version 2.38.0 (20140413.2041)
 -->
<!-- Title: dpp::voice_client_speaking_t Pages: 1 -->
<svg width="1381pt" height="1180pt"
 viewBox="0.00 0.00 1381.00 1180.00" xmlns="http://www.w3.org/2000/svg" xmlns:xlink="http://www.w3.org/1999/xlink">
<g id="graph0" class="graph" transform="scale(1 1) rotate(0) translate(4 1176)">
<title>dpp::voice_client_speaking_t</title>
<polygon fill="white" stroke="none" points="-4,4 -4,-1176 1377,-1176 1377,4 -4,4"/>
<!-- Node1 -->
<g id="node1" class="node"><title>Node1</title>
<g id="a_node1"><a xlink:title="voice client speaking event">
<polygon fill="#bfbfbf" stroke="black" points="1230,-961.5 1230,-980.5 1373,-980.5 1373,-961.5 1230,-961.5"/>
<text text-anchor="middle" x="1301.5" y="-968.5" font-family="Helvetica,sans-Serif" font-size="10.00">dpp::voice_client_speaking_t</text>
</a>
</g>
</g>
<!-- Node2 -->
<g id="node2" class="node"><title>Node2</title>
<g id="a_node2"><a xlink:href="structdpp_1_1event__dispatch__t.html" target="_top" xlink:title="Base event parameter struct.">
<polygon fill="white" stroke="black" points="1080,-432.5 1080,-451.5 1193,-451.5 1193,-432.5 1080,-432.5"/>
<text text-anchor="middle" x="1136.5" y="-439.5" font-family="Helvetica,sans-Serif" font-size="10.00">dpp::event_dispatch_t</text>
</a>
</g>
</g>
<!-- Node2&#45;&gt;Node1 -->
<g id="edge1" class="edge"><title>Node2&#45;&gt;Node1</title>
<path fill="none" stroke="midnightblue" d="M1143.42,-461.216C1170.02,-547.527 1277.98,-897.918 1297.48,-961.185"/>
<polygon fill="midnightblue" stroke="midnightblue" points="1146.76,-460.159 1140.47,-451.633 1140.07,-462.221 1146.76,-460.159"/>
</g>
<!-- Node3 -->
<g id="node3" class="node"><title>Node3</title>
<g id="a_node3"><a xlink:title=" ">
<polygon fill="white" stroke="#bfbfbf" points="191,-59.5 191,-78.5 251,-78.5 251,-59.5 191,-59.5"/>
<text text-anchor="middle" x="221" y="-66.5" font-family="Helvetica,sans-Serif" font-size="10.00">std::string</text>
</a>
</g>
</g>
<!-- Node3&#45;&gt;Node2 -->
<g id="edge2" class="edge"><title>Node3&#45;&gt;Node2</title>
<path fill="none" stroke="#9a32cd" stroke-dasharray="5,2" d="M249.723,-55.1196C263.641,-48.5882 280.923,-41.1269 297,-36 372.653,-11.8751 392.594,-0 472,-0 472,-0 472,-0 973,-0 1068.45,-0 1124.97,-367.719 1134.17,-432.357"/>
<polygon fill="#9a32cd" stroke="#9a32cd" points="248.187,-51.9746 240.682,-59.4526 251.212,-58.2872 248.187,-51.9746"/>
<text text-anchor="middle" x="706" y="-3" font-family="Helvetica,sans-Serif" font-size="10.00"> raw_event</text>
</g>
<!-- Node5 -->
<g id="node5" class="node"><title>Node5</title>
<g id="a_node5"><a xlink:href="classdpp_1_1discord__client.html" target="_top" xlink:title="Implements a discord client. Each discord_client connects to one shard and derives from a websocket c...">
<polygon fill="white" stroke="black" points="923,-432.5 923,-451.5 1021,-451.5 1021,-432.5 923,-432.5"/>
<text text-anchor="middle" x="972" y="-439.5" font-family="Helvetica,sans-Serif" font-size="10.00">dpp::discord_client</text>
</a>
</g>
</g>
<!-- Node3&#45;&gt;Node5 -->
<g id="edge38" class="edge"><title>Node3&#45;&gt;Node5</title>
<path fill="none" stroke="#9a32cd" stroke-dasharray="5,2" d="M255.301,-55.9031C268.123,-51.5119 283.038,-47.1796 297,-45 343.547,-37.7339 356.599,-36.8484 403,-45 636.742,-86.0638 741.433,-55.0486 905,-227 963.128,-288.107 970.151,-399.158 970.927,-432.369"/>
<polygon fill="#9a32cd" stroke="#9a32cd" points="253.764,-52.7357 245.525,-59.3975 256.12,-59.3273 253.764,-52.7357"/>
<text text-anchor="middle" x="587" y="-91" font-family="Helvetica,sans-Serif" font-size="10.00"> sessionid</text>
<text text-anchor="middle" x="587" y="-80" font-family="Helvetica,sans-Serif" font-size="10.00">token</text>
</g>
<!-- Node7 -->
<g id="node7" class="node"><title>Node7</title>
<g id="a_node7"><a xlink:href="classdpp_1_1ssl__client.html" target="_top" xlink:title="Implements a simple non&#45;blocking SSL stream client.">
<polygon fill="white" stroke="black" points="433,-518.5 433,-537.5 513,-537.5 513,-518.5 433,-518.5"/>
<text text-anchor="middle" x="473" y="-525.5" font-family="Helvetica,sans-Serif" font-size="10.00">dpp::ssl_client</text>
</a>
</g>
</g>
<!-- Node3&#45;&gt;Node7 -->
<g id="edge7" class="edge"><title>Node3&#45;&gt;Node7</title>
<path fill="none" stroke="#9a32cd" stroke-dasharray="5,2" d="M242.355,-85.4496C255.153,-97.0296 270.754,-113.686 279,-132 293.87,-165.028 272.256,-267.548 297,-294 329.696,-328.953 370.631,-277.744 403,-313 432.431,-345.056 394.853,-473.214 421,-508 424.257,-512.333 428.592,-515.729 433.364,-518.389"/>
<polygon fill="#9a32cd" stroke="#9a32cd" points="244.305,-82.5082 234.454,-78.6065 239.721,-87.7993 244.305,-82.5082"/>
<text text-anchor="middle" x="350" y="-360" font-family="Helvetica,sans-Serif" font-size="10.00"> buffer</text>
<text text-anchor="middle" x="350" y="-349" font-family="Helvetica,sans-Serif" font-size="10.00">cipher</text>
<text text-anchor="middle" x="350" y="-338" font-family="Helvetica,sans-Serif" font-size="10.00">hostname</text>
<text text-anchor="middle" x="350" y="-327" font-family="Helvetica,sans-Serif" font-size="10.00">obuffer</text>
<text text-anchor="middle" x="350" y="-316" font-family="Helvetica,sans-Serif" font-size="10.00">port</text>
</g>
<!-- Node16 -->
<g id="node16" class="node"><title>Node16</title>
<g id="a_node16"><a xlink:href="classdpp_1_1cluster.html" target="_top" xlink:title="The cluster class represents a group of shards and a command queue for sending and receiving commands...">
<polygon fill="white" stroke="black" points="672,-620.5 672,-639.5 740,-639.5 740,-620.5 672,-620.5"/>
<text text-anchor="middle" x="706" y="-627.5" font-family="Helvetica,sans-Serif" font-size="10.00">dpp::cluster</text>
</a>
</g>
</g>
<!-- Node3&#45;&gt;Node16 -->
<g id="edge17" class="edge"><title>Node3&#45;&gt;Node16</title>
<path fill="none" stroke="#9a32cd" stroke-dasharray="5,2" d="M261.402,-66.4351C303.53,-66.0836 368.863,-72.8938 403,-114 446.377,-166.233 380.929,-364.19 421,-419 450.228,-458.979 490.979,-423.012 525,-459 542.959,-477.998 524.487,-496.541 543,-515 572.065,-543.979 596.827,-520.267 631,-543 662.698,-564.087 688.474,-602.481 699.381,-620.36"/>
<polygon fill="#9a32cd" stroke="#9a32cd" points="261.144,-62.9399 251.224,-66.6623 261.3,-69.9382 261.144,-62.9399"/>
<text text-anchor="middle" x="473" y="-462" font-family="Helvetica,sans-Serif" font-size="10.00"> token</text>
</g>
<!-- Node20 -->
<g id="node20" class="node"><title>Node20</title>
<g id="a_node20"><a xlink:href="classdpp_1_1user.html" target="_top" xlink:title="Represents a user on discord. May or may not be a member of a dpp::guild.">
<polygon fill="white" stroke="black" points="444.5,-793.5 444.5,-812.5 501.5,-812.5 501.5,-793.5 444.5,-793.5"/>
<text text-anchor="middle" x="473" y="-800.5" font-family="Helvetica,sans-Serif" font-size="10.00">dpp::user</text>
</a>
</g>
</g>
<!-- Node3&#45;&gt;Node20 -->
<g id="edge26" class="edge"><title>Node3&#45;&gt;Node20</title>
<path fill="none" stroke="#9a32cd" stroke-dasharray="5,2" d="M242.336,-84.9701C255.354,-96.4965 271.215,-113.278 279,-132 293.568,-167.033 273.065,-443.561 297,-473 327.739,-510.808 370.973,-464.277 403,-501 424.631,-525.803 413.822,-615.882 421,-648 433.604,-704.4 458.506,-769.339 468.102,-793.393"/>
<polygon fill="#9a32cd" stroke="#9a32cd" points="244.589,-82.2918 234.696,-78.502 240.067,-87.6345 244.589,-82.2918"/>
<text text-anchor="middle" x="350" y="-504" font-family="Helvetica,sans-Serif" font-size="10.00"> username</text>
</g>
<!-- Node30 -->
<g id="node30" class="node"><title>Node30</title>
<g id="a_node30"><a xlink:href="classdpp_1_1discord__voice__client.html" target="_top" xlink:title="Implements a discord voice connection. Each discord_voice_client connects to one voice channel and de...">
<polygon fill="white" stroke="black" points="923,-691 923,-721 1021,-721 1021,-691 923,-691"/>
<text text-anchor="start" x="931" y="-709" font-family="Helvetica,sans-Serif" font-size="10.00">dpp::discord_voice</text>
<text text-anchor="middle" x="972" y="-698" font-family="Helvetica,sans-Serif" font-size="10.00">_client</text>
</a>
</g>
</g>
<!-- Node3&#45;&gt;Node30 -->
<g id="edge50" class="edge"><title>Node3&#45;&gt;Node30</title>
<path fill="none" stroke="#9a32cd" stroke-dasharray="5,2" d="M257.909,-56.488C298.634,-44.8341 364.378,-34.109 403,-70 440.23,-104.598 395.982,-253.76 421,-298 435.115,-322.96 607.71,-431.272 631,-448 639.015,-453.757 640.218,-456.499 649,-461 696.528,-485.36 723.698,-462.837 763,-499 777.945,-512.751 765.389,-528.01 781,-541 824.43,-577.137 860.784,-533.828 905,-569 944.876,-600.72 962.139,-662.48 968.221,-690.956"/>
<polygon fill="#9a32cd" stroke="#9a32cd" points="256.687,-53.2009 248.126,-59.4431 258.711,-59.9019 256.687,-53.2009"/>
<text text-anchor="middle" x="587" y="-462" font-family="Helvetica,sans-Serif" font-size="10.00"> sessionid</text>
<text text-anchor="middle" x="587" y="-451" font-family="Helvetica,sans-Serif" font-size="10.00">token</text>
</g>
<!-- Node4 -->
<g id="node4" class="node"><title>Node4</title>
<g id="a_node4"><a xlink:title=" ">
<polygon fill="white" stroke="#bfbfbf" points="0,-54 0,-84 95,-84 95,-54 0,-54"/>
<text text-anchor="start" x="8" y="-72" font-family="Helvetica,sans-Serif" font-size="10.00">std::basic_string&lt;</text>
<text text-anchor="middle" x="47.5" y="-61" font-family="Helvetica,sans-Serif" font-size="10.00"> Char &gt;</text>
</a>
</g>
</g>
<!-- Node4&#45;&gt;Node3 -->
<g id="edge3" class="edge"><title>Node4&#45;&gt;Node3</title>
<path fill="none" stroke="midnightblue" d="M105.658,-69C134.266,-69 167.668,-69 190.956,-69"/>
<polygon fill="midnightblue" stroke="midnightblue" points="105.363,-65.5001 95.3631,-69 105.363,-72.5001 105.363,-65.5001"/>
</g>
<!-- Node5&#45;&gt;Node2 -->
<g id="edge4" class="edge"><title>Node5&#45;&gt;Node2</title>
<path fill="none" stroke="#9a32cd" stroke-dasharray="5,2" d="M1031.49,-442C1047.28,-442 1064.32,-442 1079.95,-442"/>
<polygon fill="#9a32cd" stroke="#9a32cd" points="1031.32,-438.5 1021.32,-442 1031.32,-445.5 1031.32,-438.5"/>
<text text-anchor="middle" x="1050.5" y="-445" font-family="Helvetica,sans-Serif" font-size="10.00"> from</text>
</g>
<!-- Node6 -->
<g id="node6" class="node"><title>Node6</title>
<g id="a_node6"><a xlink:href="classdpp_1_1websocket__client.html" target="_top" xlink:title="Implements a websocket client based on the SSL client.">
<polygon fill="white" stroke="black" points="649,-508.5 649,-527.5 763,-527.5 763,-508.5 649,-508.5"/>
<text text-anchor="middle" x="706" y="-515.5" font-family="Helvetica,sans-Serif" font-size="10.00">dpp::websocket_client</text>
</a>
</g>
</g>
<!-- Node6&#45;&gt;Node5 -->
<g id="edge5" class="edge"><title>Node6&#45;&gt;Node5</title>
<path fill="none" stroke="midnightblue" d="M773.123,-516.646C812.629,-513.909 863.111,-506.957 905,-490 927.326,-480.962 949.105,-462.761 961.218,-451.552"/>
<polygon fill="midnightblue" stroke="midnightblue" points="772.833,-513.157 763.068,-517.269 773.266,-520.144 772.833,-513.157"/>
</g>
<!-- Node6&#45;&gt;Node30 -->
<g id="edge44" class="edge"><title>Node6&#45;&gt;Node30</title>
<path fill="none" stroke="midnightblue" d="M717.418,-536.494C730.035,-557.401 753.102,-591.224 781,-612 828.527,-647.394 852.642,-633.249 905,-661 921.297,-669.638 938.475,-681.446 951.219,-690.8"/>
<polygon fill="midnightblue" stroke="midnightblue" points="720.305,-534.497 712.232,-527.635 714.264,-538.033 720.305,-534.497"/>
</g>
<!-- Node7&#45;&gt;Node6 -->
<g id="edge6" class="edge"><title>Node7&#45;&gt;Node6</title>
<path fill="none" stroke="midnightblue" d="M515.504,-514.062C518.849,-512.25 522.065,-510.234 525,-508 535.61,-499.925 531.074,-489.963 543,-484 577.982,-466.509 593.139,-474.189 631,-484 639.859,-486.296 640.783,-489.97 649,-494 659.446,-499.124 671.255,-504.275 681.326,-508.485"/>
<polygon fill="midnightblue" stroke="midnightblue" points="513.961,-510.92 506.454,-518.397 516.985,-517.234 513.961,-510.92"/>
</g>
<!-- Node8 -->
<g id="node8" class="node"><title>Node8</title>
<g id="a_node8"><a xlink:title=" ">
<polygon fill="white" stroke="#bfbfbf" points="203.5,-713.5 203.5,-732.5 238.5,-732.5 238.5,-713.5 203.5,-713.5"/>
<text text-anchor="middle" x="221" y="-720.5" font-family="Helvetica,sans-Serif" font-size="10.00">bool</text>
</a>
</g>
</g>
<!-- Node8&#45;&gt;Node5 -->
<g id="edge41" class="edge"><title>Node8&#45;&gt;Node5</title>
<path fill="none" stroke="#9a32cd" stroke-dasharray="5,2" d="M249.02,-718.884C284.427,-713.442 348.436,-703.436 403,-694 465.36,-683.215 480.289,-676.511 543,-668 640.25,-654.802 666.508,-666.92 763,-649 827.585,-637.006 856.346,-652.134 905,-608 953.469,-564.034 966.876,-479.773 970.092,-451.509"/>
<polygon fill="#9a32cd" stroke="#9a32cd" points="248.346,-715.447 238.992,-720.421 249.407,-722.366 248.346,-715.447"/>
<text text-anchor="middle" x="587" y="-671" font-family="Helvetica,sans-Serif" font-size="10.00"> ready</text>
</g>
<!-- Node8&#45;&gt;Node7 -->
<g id="edge8" class="edge"><title>Node8&#45;&gt;Node7</title>
<path fill="none" stroke="#9a32cd" stroke-dasharray="5,2" d="M247.668,-708.898C284.082,-688.295 351.976,-647.646 403,-604 427.918,-582.685 452.662,-552.749 464.609,-537.595"/>
<polygon fill="#9a32cd" stroke="#9a32cd" points="245.706,-705.985 238.695,-713.928 249.13,-712.091 245.706,-705.985"/>
<text text-anchor="middle" x="350" y="-682" font-family="Helvetica,sans-Serif" font-size="10.00"> nonblocking</text>
</g>
<!-- Node8&#45;&gt;Node30 -->
<g id="edge46" class="edge"><title>Node8&#45;&gt;Node30</title>
<path fill="none" stroke="#9a32cd" stroke-dasharray="5,2" d="M248.722,-727.885C262.994,-730.249 280.893,-732.825 297,-734 343.986,-737.427 355.893,-734.657 403,-734 626.176,-730.889 683.366,-746.376 905,-720 910.816,-719.308 916.877,-718.352 922.867,-717.262"/>
<polygon fill="#9a32cd" stroke="#9a32cd" points="249.053,-724.391 238.605,-726.145 247.867,-731.289 249.053,-724.391"/>
<text text-anchor="middle" x="587" y="-761" font-family="Helvetica,sans-Serif" font-size="10.00"> decode_voice_recv</text>
<text text-anchor="middle" x="587" y="-750" font-family="Helvetica,sans-Serif" font-size="10.00">sodium_initialised</text>
<text text-anchor="middle" x="587" y="-739" font-family="Helvetica,sans-Serif" font-size="10.00">terminating</text>
</g>
<!-- Node9 -->
<g id="node9" class="node"><title>Node9</title>
<g id="a_node9"><a xlink:title=" ">
<polygon fill="white" stroke="#bfbfbf" points="192,-499.5 192,-518.5 250,-518.5 250,-499.5 192,-499.5"/>
<text text-anchor="middle" x="221" y="-506.5" font-family="Helvetica,sans-Serif" font-size="10.00">SOCKET</text>
</a>
</g>
</g>
<!-- Node9&#45;&gt;Node7 -->
<g id="edge9" class="edge"><title>Node9&#45;&gt;Node7</title>
<path fill="none" stroke="#9a32cd" stroke-dasharray="5,2" d="M260.223,-511.905C306.974,-515.458 385.693,-521.441 432.858,-525.025"/>
<polygon fill="#9a32cd" stroke="#9a32cd" points="260.429,-508.411 250.192,-511.143 259.898,-515.39 260.429,-508.411"/>
<text text-anchor="middle" x="350" y="-526" font-family="Helvetica,sans-Serif" font-size="10.00"> sfd</text>
</g>
<!-- Node10 -->
<g id="node10" class="node"><title>Node10</title>
<g id="a_node10"><a xlink:href="classdpp_1_1opensslcontext.html" target="_top" xlink:title=" ">
<polygon fill="white" stroke="black" points="169,-235.5 169,-254.5 273,-254.5 273,-235.5 169,-235.5"/>
<text text-anchor="middle" x="221" y="-242.5" font-family="Helvetica,sans-Serif" font-size="10.00">dpp::opensslcontext</text>
</a>
</g>
</g>
<!-- Node10&#45;&gt;Node7 -->
<g id="edge10" class="edge"><title>Node10&#45;&gt;Node7</title>
<path fill="none" stroke="#9a32cd" stroke-dasharray="5,2" d="M223.62,-264.881C227.957,-304.447 243.446,-393.175 297,-439 333.628,-470.342 366.308,-430.733 403,-462 419.71,-476.239 405.482,-492.47 421,-508 425.302,-512.306 430.641,-515.708 436.229,-518.391"/>
<polygon fill="#9a32cd" stroke="#9a32cd" points="227.1,-264.511 222.653,-254.895 220.133,-265.186 227.1,-264.511"/>
<text text-anchor="middle" x="350" y="-465" font-family="Helvetica,sans-Serif" font-size="10.00"> ssl</text>
</g>
<!-- Node11 -->
<g id="node11" class="node"><title>Node11</title>
<g id="a_node11"><a xlink:title=" ">
<polygon fill="white" stroke="#bfbfbf" points="26.5,-241.5 26.5,-260.5 68.5,-260.5 68.5,-241.5 26.5,-241.5"/>
<text text-anchor="middle" x="47.5" y="-248.5" font-family="Helvetica,sans-Serif" font-size="10.00">SSL *</text>
</a>
</g>
</g>
<!-- Node11&#45;&gt;Node10 -->
<g id="edge11" class="edge"><title>Node11&#45;&gt;Node10</title>
<path fill="none" stroke="#9a32cd" stroke-dasharray="5,2" d="M78.7675,-249.941C103.613,-249.072 139.349,-247.822 168.657,-246.796"/>
<polygon fill="#9a32cd" stroke="#9a32cd" points="78.3804,-246.452 68.5089,-250.3 78.6252,-253.448 78.3804,-246.452"/>
<text text-anchor="middle" x="129" y="-252" font-family="Helvetica,sans-Serif" font-size="10.00"> ssl</text>
</g>
<!-- Node12 -->
<g id="node12" class="node"><title>Node12</title>
<g id="a_node12"><a xlink:title=" ">
<polygon fill="white" stroke="#bfbfbf" points="13.5,-203.5 13.5,-222.5 81.5,-222.5 81.5,-203.5 13.5,-203.5"/>
<text text-anchor="middle" x="47.5" y="-210.5" font-family="Helvetica,sans-Serif" font-size="10.00">SSL_CTX *</text>
</a>
</g>
</g>
<!-- Node12&#45;&gt;Node10 -->
<g id="edge12" class="edge"><title>Node12&#45;&gt;Node10</title>
<path fill="none" stroke="#9a32cd" stroke-dasharray="5,2" d="M91.5701,-221.036C115.024,-225.413 144.195,-230.856 168.806,-235.448"/>
<polygon fill="#9a32cd" stroke="#9a32cd" points="92.0393,-217.564 81.5669,-219.17 90.7553,-224.445 92.0393,-217.564"/>
<text text-anchor="middle" x="129" y="-234" font-family="Helvetica,sans-Serif" font-size="10.00"> ctx</text>
</g>
<!-- Node13 -->
<g id="node13" class="node"><title>Node13</title>
<g id="a_node13"><a xlink:title=" ">
<polygon fill="white" stroke="#bfbfbf" points="199,-617.5 199,-636.5 243,-636.5 243,-617.5 199,-617.5"/>
<text text-anchor="middle" x="221" y="-624.5" font-family="Helvetica,sans-Serif" font-size="10.00">time_t</text>
</a>
</g>
</g>
<!-- Node13&#45;&gt;Node5 -->
<g id="edge35" class="edge"><title>Node13&#45;&gt;Node5</title>
<path fill="none" stroke="#9a32cd" stroke-dasharray="5,2" d="M253.029,-623.681C289.266,-619.503 350.894,-611.46 403,-600 466.322,-586.073 479.359,-571.39 543,-559 622.517,-543.519 833.7,-554.457 905,-516 933.484,-500.636 955.727,-467.929 965.533,-451.638"/>
<polygon fill="#9a32cd" stroke="#9a32cd" points="252.617,-620.205 243.073,-624.805 253.403,-627.161 252.617,-620.205"/>
<text text-anchor="middle" x="587" y="-573" font-family="Helvetica,sans-Serif" font-size="10.00"> last_heartbeat</text>
<text text-anchor="middle" x="587" y="-562" font-family="Helvetica,sans-Serif" font-size="10.00">last_heartbeat_ack</text>
</g>
<!-- Node13&#45;&gt;Node7 -->
<g id="edge13" class="edge"><title>Node13&#45;&gt;Node7</title>
<path fill="none" stroke="#9a32cd" stroke-dasharray="5,2" d="M246.582,-612.532C260.893,-604.628 279.511,-595.212 297,-589 342.426,-572.864 357.858,-582.916 403,-566 422.849,-558.562 443.957,-546.2 457.523,-537.604"/>
<polygon fill="#9a32cd" stroke="#9a32cd" points="244.843,-609.495 237.855,-617.459 248.284,-615.591 244.843,-609.495"/>
<text text-anchor="middle" x="350" y="-592" font-family="Helvetica,sans-Serif" font-size="10.00"> last_tick</text>
</g>
<!-- Node13&#45;&gt;Node16 -->
<g id="edge18" class="edge"><title>Node13&#45;&gt;Node16</title>
<path fill="none" stroke="#9a32cd" stroke-dasharray="5,2" d="M253.307,-627.194C339.996,-627.733 582.63,-629.24 671.681,-629.793"/>
<polygon fill="#9a32cd" stroke="#9a32cd" points="253.086,-623.693 243.064,-627.131 253.043,-630.693 253.086,-623.693"/>
<text text-anchor="middle" x="473" y="-632" font-family="Helvetica,sans-Serif" font-size="10.00"> last_identify</text>
</g>
<!-- Node13&#45;&gt;Node30 -->
<g id="edge48" class="edge"><title>Node13&#45;&gt;Node30</title>
<path fill="none" stroke="#9a32cd" stroke-dasharray="5,2" d="M253.456,-633.526C266.857,-636.245 282.675,-639.374 297,-642 406.025,-661.983 432.821,-670.896 543,-683 680.21,-698.073 843.298,-703.379 922.718,-705.157"/>
<polygon fill="#9a32cd" stroke="#9a32cd" points="253.8,-630.024 243.301,-631.45 252.398,-636.882 253.8,-630.024"/>
<text text-anchor="middle" x="587" y="-694" font-family="Helvetica,sans-Serif" font-size="10.00"> last_heartbeat</text>
</g>
<!-- Node14 -->
<g id="node14" class="node"><title>Node14</title>
<g id="a_node14"><a xlink:title=" ">
<polygon fill="white" stroke="#bfbfbf" points="22,-817.5 22,-836.5 73,-836.5 73,-817.5 22,-817.5"/>
<text text-anchor="middle" x="47.5" y="-824.5" font-family="Helvetica,sans-Serif" font-size="10.00">uint64_t</text>
</a>
</g>
</g>
<!-- Node14&#45;&gt;Node1 -->
<g id="edge52" class="edge"><title>Node14&#45;&gt;Node1</title>
<path fill="none" stroke="#9a32cd" stroke-dasharray="5,2" d="M49.3289,-847.021C53.4782,-919.083 77.9838,-1161 220,-1161 220,-1161 220,-1161 1137.5,-1161 1233.55,-1161 1285.24,-1019.4 1297.58,-980.683"/>
<polygon fill="#9a32cd" stroke="#9a32cd" points="52.8047,-846.448 48.8084,-836.636 45.8134,-846.798 52.8047,-846.448"/>
<text text-anchor="middle" x="706" y="-1164" font-family="Helvetica,sans-Serif" font-size="10.00"> user_id</text>
</g>
<!-- Node14&#45;&gt;Node5 -->
<g id="edge37" class="edge"><title>Node14&#45;&gt;Node5</title>
<path fill="none" stroke="#9a32cd" stroke-dasharray="5,2" d="M50.3357,-807.034C59.8885,-708.964 107.837,-283 220,-283 220,-283 220,-283 707,-283 823.104,-283 932.065,-397.245 962.569,-432.054"/>
<polygon fill="#9a32cd" stroke="#9a32cd" points="46.8415,-806.807 49.3799,-817.093 53.8101,-807.469 46.8415,-806.807"/>
<text text-anchor="middle" x="473" y="-286" font-family="Helvetica,sans-Serif" font-size="10.00"> last_seq</text>
</g>
<!-- Node14&#45;&gt;Node7 -->
<g id="edge14" class="edge"><title>Node14&#45;&gt;Node7</title>
<path fill="none" stroke="#9a32cd" stroke-dasharray="5,2" d="M51.64,-807.516C60.219,-761.047 88.5873,-643.324 163,-586 173.688,-577.766 352.243,-547.645 432.946,-534.363"/>
<polygon fill="#9a32cd" stroke="#9a32cd" points="48.1718,-807.032 49.9068,-817.484 55.0683,-808.231 48.1718,-807.032"/>
<text text-anchor="middle" x="221" y="-600" font-family="Helvetica,sans-Serif" font-size="10.00"> bytes_in</text>
<text text-anchor="middle" x="221" y="-589" font-family="Helvetica,sans-Serif" font-size="10.00">bytes_out</text>
</g>
<!-- Node21 -->
<g id="node21" class="node"><title>Node21</title>
<g id="a_node21"><a xlink:href="classdpp_1_1managed.html" target="_top" xlink:title="The managed class is the base class for various types that can be stored in a cache that are identifi...">
<polygon fill="white" stroke="black" points="182,-837.5 182,-856.5 260,-856.5 260,-837.5 182,-837.5"/>
<text text-anchor="middle" x="221" y="-844.5" font-family="Helvetica,sans-Serif" font-size="10.00">dpp::managed</text>
</a>
</g>
</g>
<!-- Node14&#45;&gt;Node21 -->
<g id="edge25" class="edge"><title>Node14&#45;&gt;Node21</title>
<path fill="none" stroke="#9a32cd" stroke-dasharray="5,2" d="M83.0311,-831.027C111.655,-834.365 152.299,-839.105 181.874,-842.554"/>
<polygon fill="#9a32cd" stroke="#9a32cd" points="83.4099,-827.547 73.0718,-829.866 82.599,-834.5 83.4099,-827.547"/>
<text text-anchor="middle" x="129" y="-842" font-family="Helvetica,sans-Serif" font-size="10.00"> id</text>
</g>
<!-- Node23 -->
<g id="node23" class="node"><title>Node23</title>
<g id="a_node23"><a xlink:href="structdpp_1_1utility_1_1iconhash.html" target="_top" xlink:title="Store a 128 bit icon hash (profile picture, server icon etc) as a 128 bit binary value made of two ui...">
<polygon fill="white" stroke="black" points="167.5,-799.5 167.5,-818.5 274.5,-818.5 274.5,-799.5 167.5,-799.5"/>
<text text-anchor="middle" x="221" y="-806.5" font-family="Helvetica,sans-Serif" font-size="10.00">dpp::utility::iconhash</text>
</a>
</g>
</g>
<!-- Node14&#45;&gt;Node23 -->
<g id="edge29" class="edge"><title>Node14&#45;&gt;Node23</title>
<path fill="none" stroke="#9a32cd" stroke-dasharray="5,2" d="M81.4851,-814.057C91.4526,-810.75 102.532,-807.661 113,-806 130.528,-803.218 149.869,-802.93 167.231,-803.661"/>
<polygon fill="#9a32cd" stroke="#9a32cd" points="80.2354,-810.786 71.9523,-817.392 82.5471,-817.393 80.2354,-810.786"/>
<text text-anchor="middle" x="129" y="-820" font-family="Helvetica,sans-Serif" font-size="10.00"> first</text>
<text text-anchor="middle" x="129" y="-809" font-family="Helvetica,sans-Serif" font-size="10.00">second</text>
</g>
<!-- Node14&#45;&gt;Node30 -->
<g id="edge51" class="edge"><title>Node14&#45;&gt;Node30</title>
<path fill="none" stroke="#9a32cd" stroke-dasharray="5,2" d="M53.7661,-846.38C65.9269,-887.482 99.8685,-983.889 163,-1036 246.572,-1104.98 295.054,-1088.52 403,-1079 516.62,-1068.98 826.422,-1054.68 905,-972 940.319,-934.838 962.944,-771.748 969.219,-721.076"/>
<polygon fill="#9a32cd" stroke="#9a32cd" points="57.0706,-845.205 50.9648,-836.546 50.3385,-847.123 57.0706,-845.205"/>
<text text-anchor="middle" x="473" y="-1091" font-family="Helvetica,sans-Serif" font-size="10.00"> channel_id</text>
<text text-anchor="middle" x="473" y="-1080" font-family="Helvetica,sans-Serif" font-size="10.00">server_id</text>
</g>
<!-- Node15 -->
<g id="node15" class="node"><title>Node15</title>
<g id="a_node15"><a xlink:title=" ">
<polygon fill="white" stroke="#bfbfbf" points="192.5,-141.5 192.5,-160.5 249.5,-160.5 249.5,-141.5 192.5,-141.5"/>
<text text-anchor="middle" x="221" y="-148.5" font-family="Helvetica,sans-Serif" font-size="10.00">function&lt;</text>
</a>
</g>
</g>
<!-- Node15&#45;&gt;Node7 -->
<g id="edge15" class="edge"><title>Node15&#45;&gt;Node7</title>
<path fill="none" stroke="#9a32cd" stroke-dasharray="5,2" d="M239.241,-168.064C252.463,-182.27 269.935,-203.711 279,-226 291.316,-256.282 274.525,-348.261 297,-372 329.905,-406.756 369.577,-356.741 403,-391 439.74,-428.659 388.129,-466.921 421,-508 424.506,-512.381 429.105,-515.805 434.106,-518.481"/>
<polygon fill="#9a32cd" stroke="#9a32cd" points="241.499,-165.362 232.043,-160.584 236.455,-170.216 241.499,-165.362"/>
<text text-anchor="middle" x="350" y="-427" font-family="Helvetica,sans-Serif" font-size="10.00"> custom_readable_fd</text>
<text text-anchor="middle" x="350" y="-416" font-family="Helvetica,sans-Serif" font-size="10.00">custom_readable_ready</text>
<text text-anchor="middle" x="350" y="-405" font-family="Helvetica,sans-Serif" font-size="10.00">custom_writeable_fd</text>
<text text-anchor="middle" x="350" y="-394" font-family="Helvetica,sans-Serif" font-size="10.00">custom_writeable_ready</text>
</g>
<!-- Node19 -->
<g id="node19" class="node"><title>Node19</title>
<g id="a_node19"><a xlink:href="classdpp_1_1dispatcher.html" target="_top" xlink:title="The dispatcher class contains a set of std::functions representing hooked events that the user code i...">
<polygon fill="white" stroke="black" points="431.5,-479.5 431.5,-498.5 514.5,-498.5 514.5,-479.5 431.5,-479.5"/>
<text text-anchor="middle" x="473" y="-486.5" font-family="Helvetica,sans-Serif" font-size="10.00">dpp::dispatcher</text>
</a>
</g>
</g>
<!-- Node15&#45;&gt;Node19 -->
<g id="edge22" class="edge"><title>Node15&#45;&gt;Node19</title>
<path fill="none" stroke="#9a32cd" stroke-dasharray="5,2" d="M251.507,-137.564C291.491,-121.624 362.52,-101.707 403,-140 429.193,-164.778 401.082,-433.945 421,-464 425.467,-470.74 432.305,-475.727 439.536,-479.393"/>
<polygon fill="#9a32cd" stroke="#9a32cd" points="249.941,-134.425 242.048,-141.493 252.626,-140.889 249.941,-134.425"/>
<text text-anchor="start" x="301" y="-286" font-family="Helvetica,sans-Serif" font-size="10.00"> application_command</text>
<text text-anchor="middle" x="350" y="-275" font-family="Helvetica,sans-Serif" font-size="10.00">_create</text>
<text text-anchor="start" x="301" y="-264" font-family="Helvetica,sans-Serif" font-size="10.00">application_command</text>
<text text-anchor="middle" x="350" y="-253" font-family="Helvetica,sans-Serif" font-size="10.00">_delete</text>
<text text-anchor="start" x="301" y="-242" font-family="Helvetica,sans-Serif" font-size="10.00">application_command</text>
<text text-anchor="middle" x="350" y="-231" font-family="Helvetica,sans-Serif" font-size="10.00">_update</text>
<text text-anchor="middle" x="350" y="-220" font-family="Helvetica,sans-Serif" font-size="10.00">button_click</text>
<text text-anchor="middle" x="350" y="-209" font-family="Helvetica,sans-Serif" font-size="10.00">channel_create</text>
<text text-anchor="middle" x="350" y="-198" font-family="Helvetica,sans-Serif" font-size="10.00">channel_delete</text>
<text text-anchor="middle" x="350" y="-187" font-family="Helvetica,sans-Serif" font-size="10.00">channel_pins_update</text>
<text text-anchor="middle" x="350" y="-176" font-family="Helvetica,sans-Serif" font-size="10.00">channel_update</text>
<text text-anchor="middle" x="350" y="-165" font-family="Helvetica,sans-Serif" font-size="10.00">guild_ban_add</text>
<text text-anchor="middle" x="350" y="-154" font-family="Helvetica,sans-Serif" font-size="10.00">guild_ban_remove</text>
<text text-anchor="middle" x="350" y="-143" font-family="Helvetica,sans-Serif" font-size="10.00">...</text>
</g>
<!-- Node16&#45;&gt;Node5 -->
<g id="edge16" class="edge"><title>Node16&#45;&gt;Node5</title>
<path fill="none" stroke="#9a32cd" stroke-dasharray="5,2" d="M737.539,-616.253C750.864,-610.288 766.684,-603.251 781,-597 835.926,-573.016 859.168,-582.62 905,-544 936.614,-517.361 958.507,-471.723 967.033,-451.793"/>
<polygon fill="#9a32cd" stroke="#9a32cd" points="736.026,-613.096 728.334,-620.381 738.89,-619.483 736.026,-613.096"/>
<text text-anchor="middle" x="843" y="-600" font-family="Helvetica,sans-Serif" font-size="10.00"> creator</text>
</g>
<!-- Node16&#45;&gt;Node30 -->
<g id="edge45" class="edge"><title>Node16&#45;&gt;Node30</title>
<path fill="none" stroke="#9a32cd" stroke-dasharray="5,2" d="M738.428,-643.311C751.43,-648.443 766.768,-654.022 781,-658 834.982,-673.089 851.021,-665.901 905,-681 914.794,-683.739 925.175,-687.331 934.733,-690.933"/>
<polygon fill="#9a32cd" stroke="#9a32cd" points="739.582,-640.002 728.998,-639.507 736.963,-646.494 739.582,-640.002"/>
<text text-anchor="middle" x="843" y="-684" font-family="Helvetica,sans-Serif" font-size="10.00"> creator</text>
</g>
<!-- Node17 -->
<g id="node17" class="node"><title>Node17</title>
<g id="a_node17"><a xlink:title=" ">
<polygon fill="white" stroke="#bfbfbf" points="195.5,-949.5 195.5,-968.5 246.5,-968.5 246.5,-949.5 195.5,-949.5"/>
<text text-anchor="middle" x="221" y="-956.5" font-family="Helvetica,sans-Serif" font-size="10.00">uint32_t</text>
</a>
</g>
</g>
<!-- Node17&#45;&gt;Node1 -->
<g id="edge53" class="edge"><title>Node17&#45;&gt;Node1</title>
<path fill="none" stroke="#9a32cd" stroke-dasharray="5,2" d="M248.06,-973.968C258.344,-980.577 269.86,-988.91 279,-998 288.965,-1007.91 284.856,-1016.93 297,-1024 402.073,-1085.21 720.4,-1073 842,-1073 842,-1073 842,-1073 1137.5,-1073 1206.6,-1073 1270.53,-1006.31 1292.47,-980.78"/>
<polygon fill="#9a32cd" stroke="#9a32cd" points="249.775,-970.913 239.43,-968.628 246.092,-976.866 249.775,-970.913"/>
<text text-anchor="middle" x="843" y="-1076" font-family="Helvetica,sans-Serif" font-size="10.00"> ssrc</text>
</g>
<!-- Node17&#45;&gt;Node5 -->
<g id="edge34" class="edge"><title>Node17&#45;&gt;Node5</title>
<path fill="none" stroke="#9a32cd" stroke-dasharray="5,2" d="M256.818,-960.61C326.5,-963.227 480.257,-965.779 525,-940 537.496,-932.8 531.434,-921.616 543,-913 575.808,-888.56 594.198,-903.868 631,-886 764.309,-821.275 820.184,-817.519 905,-696 961.847,-614.552 969.737,-487.63 970.827,-451.744"/>
<polygon fill="#9a32cd" stroke="#9a32cd" points="256.909,-957.111 246.777,-960.21 256.63,-964.105 256.909,-957.111"/>
<text text-anchor="middle" x="587" y="-971" font-family="Helvetica,sans-Serif" font-size="10.00"> heartbeat_interval</text>
<text text-anchor="middle" x="587" y="-960" font-family="Helvetica,sans-Serif" font-size="10.00">intents</text>
<text text-anchor="middle" x="587" y="-949" font-family="Helvetica,sans-Serif" font-size="10.00">max_shards</text>
<text text-anchor="middle" x="587" y="-938" font-family="Helvetica,sans-Serif" font-size="10.00">reconnects</text>
<text text-anchor="middle" x="587" y="-927" font-family="Helvetica,sans-Serif" font-size="10.00">resumes</text>
<text text-anchor="middle" x="587" y="-916" font-family="Helvetica,sans-Serif" font-size="10.00">shard_id</text>
</g>
<!-- Node17&#45;&gt;Node16 -->
<g id="edge19" class="edge"><title>Node17&#45;&gt;Node16</title>
<path fill="none" stroke="#9a32cd" stroke-dasharray="5,2" d="M256.667,-953.489C306.173,-945.327 392.353,-929.924 403,-920 423.99,-900.437 399.555,-877.064 421,-858 491.717,-795.134 557.718,-882.857 631,-823 690.754,-774.192 702.335,-671.236 704.512,-639.51"/>
<polygon fill="#9a32cd" stroke="#9a32cd" points="256.006,-950.05 246.7,-955.116 257.134,-956.959 256.006,-950.05"/>
<text text-anchor="middle" x="473" y="-894" font-family="Helvetica,sans-Serif" font-size="10.00"> cluster_id</text>
<text text-anchor="middle" x="473" y="-883" font-family="Helvetica,sans-Serif" font-size="10.00">intents</text>
<text text-anchor="middle" x="473" y="-872" font-family="Helvetica,sans-Serif" font-size="10.00">maxclusters</text>
<text text-anchor="middle" x="473" y="-861" font-family="Helvetica,sans-Serif" font-size="10.00">numshards</text>
</g>
<!-- Node17&#45;&gt;Node20 -->
<g id="edge30" class="edge"><title>Node17&#45;&gt;Node20</title>
<path fill="none" stroke="#9a32cd" stroke-dasharray="5,2" d="M241.575,-942.956C256.059,-931.859 276.715,-917.596 297,-909 341.386,-890.19 367.536,-918.654 403,-886 423.168,-867.43 403.056,-847.728 421,-827 427.149,-819.898 435.858,-814.747 444.342,-811.083"/>
<polygon fill="#9a32cd" stroke="#9a32cd" points="239.108,-940.444 233.412,-949.377 243.436,-945.945 239.108,-940.444"/>
<text text-anchor="middle" x="350" y="-912" font-family="Helvetica,sans-Serif" font-size="10.00"> flags</text>
</g>
<!-- Node17&#45;&gt;Node30 -->
<g id="edge47" class="edge"><title>Node17&#45;&gt;Node30</title>
<path fill="none" stroke="#9a32cd" stroke-dasharray="5,2" d="M256.706,-964.987C269.351,-966.931 283.785,-968.875 297,-970 351.929,-974.675 365.884,-971.882 421,-973 637.258,-977.389 744.202,-1066.67 905,-922 965.194,-867.842 971.222,-760.512 971.303,-721.03"/>
<polygon fill="#9a32cd" stroke="#9a32cd" points="256.998,-961.49 246.571,-963.373 255.896,-968.403 256.998,-961.49"/>
<text text-anchor="middle" x="587" y="-1000" font-family="Helvetica,sans-Serif" font-size="10.00"> heartbeat_interval</text>
</g>
<!-- Node18 -->
<g id="node18" class="node"><title>Node18</title>
<g id="a_node18"><a xlink:title=" ">
<polygon fill="white" stroke="#bfbfbf" points="450.5,-390.5 450.5,-409.5 495.5,-409.5 495.5,-390.5 450.5,-390.5"/>
<text text-anchor="middle" x="473" y="-397.5" font-family="Helvetica,sans-Serif" font-size="10.00">double</text>
</a>
</g>
</g>
<!-- Node18&#45;&gt;Node5 -->
<g id="edge40" class="edge"><title>Node18&#45;&gt;Node5</title>
<path fill="none" stroke="#9a32cd" stroke-dasharray="5,2" d="M505.996,-400.267C559.37,-400.949 669.908,-403.376 763,-412 818.039,-417.098 880.781,-426.669 922.832,-433.633"/>
<polygon fill="#9a32cd" stroke="#9a32cd" points="505.843,-396.765 495.803,-400.149 505.762,-403.764 505.843,-396.765"/>
<text text-anchor="middle" x="706" y="-415" font-family="Helvetica,sans-Serif" font-size="10.00"> websocket_ping</text>
</g>
<!-- Node18&#45;&gt;Node16 -->
<g id="edge20" class="edge"><title>Node18&#45;&gt;Node16</title>
<path fill="none" stroke="#9a32cd" stroke-dasharray="5,2" d="M504.618,-412.579C511.849,-416.486 519.149,-421.296 525,-427 536.685,-438.39 531.235,-447.693 543,-459 574.672,-489.439 599.527,-473.355 631,-504 642.97,-515.655 640.689,-522.507 649,-537 666.626,-567.737 688.565,-603.485 698.977,-620.307"/>
<polygon fill="#9a32cd" stroke="#9a32cd" points="506.123,-409.419 495.609,-408.115 503.015,-415.691 506.123,-409.419"/>
<text text-anchor="middle" x="587" y="-507" font-family="Helvetica,sans-Serif" font-size="10.00"> rest_ping</text>
</g>
<!-- Node19&#45;&gt;Node16 -->
<g id="edge21" class="edge"><title>Node19&#45;&gt;Node16</title>
<path fill="none" stroke="#9a32cd" stroke-dasharray="5,2" d="M519.878,-504.118C521.731,-505.597 523.455,-507.22 525,-509 547.753,-535.215 518.74,-560.173 543,-585 571.253,-613.913 592.065,-597.127 631,-608 645.071,-611.929 660.575,-616.501 673.741,-620.456"/>
<polygon fill="#9a32cd" stroke="#9a32cd" points="521.388,-500.93 511.074,-498.508 517.626,-506.833 521.388,-500.93"/>
<text text-anchor="middle" x="587" y="-611" font-family="Helvetica,sans-Serif" font-size="10.00"> dispatch</text>
</g>
<!-- Node20&#45;&gt;Node16 -->
<g id="edge23" class="edge"><title>Node20&#45;&gt;Node16</title>
<path fill="none" stroke="#9a32cd" stroke-dasharray="5,2" d="M511.613,-807.408C545.903,-809.4 596.348,-807.019 631,-782 680.733,-746.092 698.584,-667.504 703.462,-639.858"/>
<polygon fill="#9a32cd" stroke="#9a32cd" points="511.755,-803.909 501.526,-806.67 511.244,-810.891 511.755,-803.909"/>
<text text-anchor="middle" x="587" y="-811" font-family="Helvetica,sans-Serif" font-size="10.00"> me</text>
</g>
<!-- Node21&#45;&gt;Node20 -->
<g id="edge24" class="edge"><title>Node21&#45;&gt;Node20</title>
<path fill="none" stroke="midnightblue" d="M270.466,-842.573C307.109,-838.743 358.53,-832.338 403,-823 416.793,-820.104 431.853,-815.868 444.375,-812.039"/>
<polygon fill="midnightblue" stroke="midnightblue" points="269.661,-839.136 260.068,-843.632 270.371,-846.1 269.661,-839.136"/>
</g>
<!-- Node22 -->
<g id="node22" class="node"><title>Node22</title>
<g id="a_node22"><a xlink:title=" ">
<polygon fill="white" stroke="#bfbfbf" points="195.5,-875.5 195.5,-894.5 246.5,-894.5 246.5,-875.5 195.5,-875.5"/>
<text text-anchor="middle" x="221" y="-882.5" font-family="Helvetica,sans-Serif" font-size="10.00">uint16_t</text>
</a>
</g>
</g>
<!-- Node22&#45;&gt;Node20 -->
<g id="edge27" class="edge"><title>Node22&#45;&gt;Node20</title>
<path fill="none" stroke="#9a32cd" stroke-dasharray="5,2" d="M256.549,-880.049C301.806,-873.141 378.307,-859.888 403,-846 413.139,-840.298 411.574,-833.817 421,-827 428.85,-821.323 438.256,-816.447 446.84,-812.603"/>
<polygon fill="#9a32cd" stroke="#9a32cd" points="255.951,-876.599 246.581,-881.545 256.99,-883.522 255.951,-876.599"/>
<text text-anchor="middle" x="350" y="-877" font-family="Helvetica,sans-Serif" font-size="10.00"> discriminator</text>
</g>
<!-- Node23&#45;&gt;Node20 -->
<g id="edge28" class="edge"><title>Node23&#45;&gt;Node20</title>
<path fill="none" stroke="#9a32cd" stroke-dasharray="5,2" d="M284.718,-807.495C336.073,-806.262 406.269,-804.578 444.475,-803.661"/>
<polygon fill="#9a32cd" stroke="#9a32cd" points="284.626,-803.996 274.713,-807.735 284.794,-810.994 284.626,-803.996"/>
<text text-anchor="middle" x="350" y="-811" font-family="Helvetica,sans-Serif" font-size="10.00"> avatar</text>
</g>
<!-- Node24 -->
<g id="node24" class="node"><title>Node24</title>
<g id="a_node24"><a xlink:title=" ">
<polygon fill="white" stroke="#bfbfbf" points="198,-761.5 198,-780.5 244,-780.5 244,-761.5 198,-761.5"/>
<text text-anchor="middle" x="221" y="-768.5" font-family="Helvetica,sans-Serif" font-size="10.00">uint8_t</text>
</a>
</g>
</g>
<!-- Node24&#45;&gt;Node20 -->
<g id="edge31" class="edge"><title>Node24&#45;&gt;Node20</title>
<path fill="none" stroke="#9a32cd" stroke-dasharray="5,2" d="M254.073,-773.57C290.329,-776.66 351.071,-782.396 403,-790 416.629,-791.996 431.67,-794.763 444.221,-797.231"/>
<polygon fill="#9a32cd" stroke="#9a32cd" points="254.341,-770.08 244.084,-772.733 253.756,-777.056 254.341,-770.08"/>
<text text-anchor="middle" x="350" y="-793" font-family="Helvetica,sans-Serif" font-size="10.00"> refcount</text>
</g>
<!-- Node25 -->
<g id="node25" class="node"><title>Node25</title>
<g id="a_node25"><a xlink:href="structdpp_1_1cache__policy__t.html" target="_top" xlink:title="Represents the caching policy of the cluster.">
<polygon fill="white" stroke="black" points="421,-911.5 421,-930.5 525,-930.5 525,-911.5 421,-911.5"/>
<text text-anchor="middle" x="473" y="-918.5" font-family="Helvetica,sans-Serif" font-size="10.00">dpp::cache_policy_t</text>
</a>
</g>
</g>
<!-- Node25&#45;&gt;Node16 -->
<g id="edge32" class="edge"><title>Node25&#45;&gt;Node16</title>
<path fill="none" stroke="#9a32cd" stroke-dasharray="5,2" d="M509.195,-906.99C514.733,-904.078 520.205,-900.74 525,-897 534.961,-889.23 532.366,-881.821 543,-875 577.026,-853.173 601.486,-879.624 631,-852 695.364,-791.756 703.782,-674.133 704.852,-639.693"/>
<polygon fill="#9a32cd" stroke="#9a32cd" points="507.395,-903.973 499.921,-911.482 510.447,-910.273 507.395,-903.973"/>
<text text-anchor="middle" x="587" y="-878" font-family="Helvetica,sans-Serif" font-size="10.00"> cache_policy</text>
</g>
<!-- Node26 -->
<g id="node26" class="node"><title>Node26</title>
<g id="a_node26"><a xlink:title=" ">
<polygon fill="white" stroke="#bfbfbf" points="163,-1007.5 163,-1026.5 279,-1026.5 279,-1007.5 163,-1007.5"/>
<text text-anchor="middle" x="221" y="-1014.5" font-family="Helvetica,sans-Serif" font-size="10.00">cache_policy_setting_t</text>
</a>
</g>
</g>
<!-- Node26&#45;&gt;Node25 -->
<g id="edge33" class="edge"><title>Node26&#45;&gt;Node25</title>
<path fill="none" stroke="#9a32cd" stroke-dasharray="5,2" d="M256.876,-1003.81C293.35,-989.988 352.246,-967.604 403,-948 417.88,-942.253 434.533,-935.738 447.751,-930.549"/>
<polygon fill="#9a32cd" stroke="#9a32cd" points="255.32,-1000.66 247.208,-1007.47 257.8,-1007.2 255.32,-1000.66"/>
<text text-anchor="middle" x="350" y="-1012" font-family="Helvetica,sans-Serif" font-size="10.00"> emoji_policy</text>
<text text-anchor="middle" x="350" y="-1001" font-family="Helvetica,sans-Serif" font-size="10.00">role_policy</text>
<text text-anchor="middle" x="350" y="-990" font-family="Helvetica,sans-Serif" font-size="10.00">user_policy</text>
</g>
<!-- Node27 -->
<g id="node27" class="node"><title>Node27</title>
<g id="a_node27"><a xlink:title=" ">
<polygon fill="white" stroke="#bfbfbf" points="655.5,-432.5 655.5,-451.5 756.5,-451.5 756.5,-432.5 655.5,-432.5"/>
<text text-anchor="middle" x="706" y="-439.5" font-family="Helvetica,sans-Serif" font-size="10.00">native_handle_type</text>
</a>
</g>
</g>
<!-- Node27&#45;&gt;Node5 -->
<g id="edge36" class="edge"><title>Node27&#45;&gt;Node5</title>
<path fill="none" stroke="#9a32cd" stroke-dasharray="5,2" d="M766.746,-442C813.962,-442 879.004,-442 922.902,-442"/>
<polygon fill="#9a32cd" stroke="#9a32cd" points="766.656,-438.5 756.656,-442 766.656,-445.5 766.656,-438.5"/>
<text text-anchor="middle" x="843" y="-445" font-family="Helvetica,sans-Serif" font-size="10.00"> thread_id</text>
</g>
<!-- Node27&#45;&gt;Node30 -->
<g id="edge49" class="edge"><title>Node27&#45;&gt;Node30</title>
<path fill="none" stroke="#9a32cd" stroke-dasharray="5,2" d="M762.817,-454.128C806.844,-466.372 866.972,-489.43 905,-530 949.411,-577.38 964.658,-657.449 969.246,-690.756"/>
<polygon fill="#9a32cd" stroke="#9a32cd" points="763.686,-450.737 753.121,-451.533 761.876,-457.499 763.686,-450.737"/>
<text text-anchor="middle" x="843" y="-533" font-family="Helvetica,sans-Serif" font-size="10.00"> thread_id</text>
</g>
<!-- Node28 -->
<g id="node28" class="node"><title>Node28</title>
<g id="a_node28"><a xlink:title=" ">
<polygon fill="white" stroke="#bfbfbf" points="674.5,-29.5 674.5,-48.5 737.5,-48.5 737.5,-29.5 674.5,-29.5"/>
<text text-anchor="middle" x="706" y="-36.5" font-family="Helvetica,sans-Serif" font-size="10.00">std::mutex</text>
</a>
</g>
</g>
<!-- Node28&#45;&gt;Node5 -->
<g id="edge39" class="edge"><title>Node28&#45;&gt;Node5</title>
<path fill="none" stroke="#9a32cd" stroke-dasharray="5,2" d="M747.419,-28.492C791.847,-19.5943 862.537,-13.6646 905,-52 963.618,-104.92 970.181,-377.553 970.91,-432.386"/>
<polygon fill="#9a32cd" stroke="#9a32cd" points="746.587,-25.0908 737.541,-30.6058 748.052,-31.9358 746.587,-25.0908"/>
<text text-anchor="middle" x="843" y="-55" font-family="Helvetica,sans-Serif" font-size="10.00"> voice_mutex</text>
</g>
<!-- Node29 -->
<g id="node29" class="node"><title>Node29</title>
<g id="a_node29"><a xlink:title=" ">
<polygon fill="white" stroke="#bfbfbf" points="661.5,-235.5 661.5,-254.5 750.5,-254.5 750.5,-235.5 661.5,-235.5"/>
<text text-anchor="middle" x="706" y="-242.5" font-family="Helvetica,sans-Serif" font-size="10.00">unordered_map&lt;</text>
</a>
</g>
</g>
<!-- Node29&#45;&gt;Node5 -->
<g id="edge42" class="edge"><title>Node29&#45;&gt;Node5</title>
<path fill="none" stroke="#9a32cd" stroke-dasharray="5,2" d="M759.125,-233.895C802.495,-227.782 863.617,-226.802 905,-258 962.993,-301.719 970.149,-400.923 970.936,-432.297"/>
<polygon fill="#9a32cd" stroke="#9a32cd" points="758.404,-230.464 749.055,-235.45 759.472,-237.382 758.404,-230.464"/>
<text text-anchor="middle" x="843" y="-261" font-family="Helvetica,sans-Serif" font-size="10.00"> connecting_voice_channels</text>
</g>
<!-- Node30&#45;&gt;Node1 -->
<g id="edge43" class="edge"><title>Node30&#45;&gt;Node1</title>
<path fill="none" stroke="#9a32cd" stroke-dasharray="5,2" d="M999.548,-727.481C1066.64,-781.769 1241.02,-922.874 1288.44,-961.246"/>
<polygon fill="#9a32cd" stroke="#9a32cd" points="1001.52,-724.576 991.546,-721.007 997.118,-730.018 1001.52,-724.576"/>
<text text-anchor="middle" x="1136.5" y="-886" font-family="Helvetica,sans-Serif" font-size="10.00"> voice_client</text>
</g>
</g>
</svg>
