<?xml version="1.0" encoding="UTF-8" standalone="no"?>
<!DOCTYPE svg PUBLIC "-//W3C//DTD SVG 1.1//EN"
 "http://www.w3.org/Graphics/SVG/1.1/DTD/svg11.dtd">
<!-- Generated by graphviz version 2.38.0 (20140413.2041)
 -->
<!-- Title: dpp::command_option Pages: 1 -->
<!--zoomable 154 -->
<svg id="main" version="1.1" xmlns="http://www.w3.org/2000/svg" xmlns:xlink="http://www.w3.org/1999/xlink" xml:space="preserve" onload="init(evt)">
<style type="text/css"><![CDATA[
.edge:hover path { stroke: red; }
.edge:hover polygon { stroke: red; fill: red; }
]]></style>
<script type="text/javascript"><![CDATA[
var edges = document.getElementsByTagName('g');
if (edges && edges.length) {
  for (var i=0;i<edges.length;i++) {
    if (edges[i].id.substr(0,4)=='edge') {
      edges[i].setAttribute('class','edge');
    }
  }
}
]]></script>
        <defs>
                <circle id="rim" cx="0" cy="0" r="7"/>
                <circle id="rim2" cx="0" cy="0" r="3.5"/>
                <g id="zoomPlus">
                        <use xlink:href="#rim" fill="#404040">
                                <set attributeName="fill" to="#808080" begin="zoomplus.mouseover" end="zoomplus.mouseout"/>
                        </use>
                        <path d="M-4,0h8M0,-4v8" fill="none" stroke="white" stroke-width="1.5" pointer-events="none"/>
                </g>
                <g id="zoomMin">
                        <use xlink:href="#rim" fill="#404040">
                                <set attributeName="fill" to="#808080" begin="zoomminus.mouseover" end="zoomminus.mouseout"/>
                        </use>
                        <path d="M-4,0h8" fill="none" stroke="white" stroke-width="1.5" pointer-events="none"/>
                </g>
                <g id="dirArrow">
                        <path fill="none" stroke="white" stroke-width="1.5" d="M0,-3.0v7 M-2.5,-0.5L0,-3.0L2.5,-0.5"/>
                </g>
               <g id="resetDef">
                       <use xlink:href="#rim2" fill="#404040">
                               <set attributeName="fill" to="#808080" begin="reset.mouseover" end="reset.mouseout"/>
                       </use>
               </g>
        </defs>

<script type="text/javascript">
var viewWidth = 1064;
var viewHeight = 154;
var sectionId = 'dynsection-0';
</script>
<script xlink:href="svgpan.js"/>
<svg id="graph" class="graph">
<g id="viewport">
<title>dpp::command_option</title>
<polygon fill="white" stroke="none" points="-4,4 -4,-150 1060,-150 1060,4 -4,4"/>
<!-- Node1 -->
<g id="node1" class="node"><title>Node1</title>
<polygon fill="#bfbfbf" stroke="black" points="727,-57.5 727,-76.5 840,-76.5 840,-57.5 727,-57.5"/>
<text text-anchor="middle" x="783.5" y="-64.5" font-family="Helvetica,sans-Serif" font-size="10.00">dpp::command_option</text>
</g>
<!-- Node8 -->
<g id="node8" class="node"><title>Node8</title>
<polygon fill="white" stroke="#bfbfbf" points="919,-52 919,-82 1056,-82 1056,-52 919,-52"/>
<text text-anchor="start" x="927" y="-70" font-family="Helvetica,sans-Serif" font-size="10.00">std::vector&lt; dpp::command</text>
<text text-anchor="middle" x="987.5" y="-59" font-family="Helvetica,sans-Serif" font-size="10.00">_option &gt;</text>
</g>
<!-- Node1&#45;&gt;Node8 -->
<g id="edge9" class="edge"><title>Node1&#45;&gt;Node8</title>
<path fill="none" stroke="#9a32cd" stroke-dasharray="5,2" d="M850.422,-67C872.309,-67 896.704,-67 918.728,-67"/>
<polygon fill="#9a32cd" stroke="#9a32cd" points="850.232,-63.5001 840.232,-67 850.232,-70.5001 850.232,-63.5001"/>
<text text-anchor="middle" x="879.5" y="-70" font-family="Helvetica,sans-Serif" font-size="10.00"> elements</text>
</g>
<!-- Node2 -->
<g id="node2" class="node"><title>Node2</title>
<polygon fill="white" stroke="#bfbfbf" points="567,-126.5 567,-145.5 602,-145.5 602,-126.5 567,-126.5"/>
<text text-anchor="middle" x="584.5" y="-133.5" font-family="Helvetica,sans-Serif" font-size="10.00">bool</text>
</g>
<!-- Node2&#45;&gt;Node1 -->
<g id="edge1" class="edge"><title>Node2&#45;&gt;Node1</title>
<path fill="none" stroke="#9a32cd" stroke-dasharray="5,2" d="M612.011,-128.51C624.497,-124.89 639.566,-120.386 653,-116 690.705,-103.691 733.603,-86.8937 759.336,-76.5069"/>
<polygon fill="#9a32cd" stroke="#9a32cd" points="610.868,-125.197 602.223,-131.322 612.8,-131.925 610.868,-125.197"/>
<text text-anchor="middle" x="690" y="-111" font-family="Helvetica,sans-Serif" font-size="10.00"> required</text>
</g>
<!-- Node3 -->
<g id="node3" class="node"><title>Node3</title>
<g id="a_node3"><a xlink:title="STL class. ">
<polygon fill="white" stroke="#bfbfbf" points="163.5,-47.5 163.5,-66.5 223.5,-66.5 223.5,-47.5 163.5,-47.5"/>
<text text-anchor="middle" x="193.5" y="-54.5" font-family="Helvetica,sans-Serif" font-size="10.00">std::string</text>
</a>
</g>
</g>
<!-- Node3&#45;&gt;Node1 -->
<g id="edge2" class="edge"><title>Node3&#45;&gt;Node1</title>
<path fill="none" stroke="#9a32cd" stroke-dasharray="5,2" d="M233.823,-57.6688C335.752,-59.4023 608.758,-64.0452 726.823,-66.0531"/>
<polygon fill="#9a32cd" stroke="#9a32cd" points="233.717,-54.1665 223.659,-57.4959 233.598,-61.1655 233.717,-54.1665"/>
<text text-anchor="middle" x="474" y="-77" font-family="Helvetica,sans-Serif" font-size="10.00"> name</text>
<text text-anchor="middle" x="474" y="-66" font-family="Helvetica,sans-Serif" font-size="10.00">description</text>
</g>
<!-- Node6 -->
<g id="node6" class="node"><title>Node6</title>
<g id="a_node6"><a xlink:href="structdpp_1_1command__option__choice.html" target="_top" xlink:title="This struct represents choices in a multiple choice option for a command parameter. It has both a string name, and a value parameter which is a variant, meaning it can hold different potential types (see dpp::command_value) that you can retrieve with std::get(). ">
<polygon fill="white" stroke="black" points="319,-78 319,-108 432,-108 432,-78 319,-78"/>
<text text-anchor="start" x="327" y="-96" font-family="Helvetica,sans-Serif" font-size="10.00">dpp::command_option</text>
<text text-anchor="middle" x="375.5" y="-85" font-family="Helvetica,sans-Serif" font-size="10.00">_choice</text>
</a>
</g>
</g>
<!-- Node3&#45;&gt;Node6 -->
<g id="edge6" class="edge"><title>Node3&#45;&gt;Node6</title>
<path fill="none" stroke="#9a32cd" stroke-dasharray="5,2" d="M233.628,-64.8255C258.498,-69.7996 291.086,-76.3172 318.654,-81.8307"/>
<polygon fill="#9a32cd" stroke="#9a32cd" points="234.313,-61.3934 223.821,-62.8641 232.94,-68.2574 234.313,-61.3934"/>
<text text-anchor="middle" x="287" y="-82" font-family="Helvetica,sans-Serif" font-size="10.00"> name</text>
</g>
<!-- Node4 -->
<g id="node4" class="node"><title>Node4</title>
<g id="a_node4"><a xlink:title="STL class. ">
<polygon fill="white" stroke="#bfbfbf" points="0,-42 0,-72 95,-72 95,-42 0,-42"/>
<text text-anchor="start" x="8" y="-60" font-family="Helvetica,sans-Serif" font-size="10.00">std::basic_string&lt;</text>
<text text-anchor="middle" x="47.5" y="-49" font-family="Helvetica,sans-Serif" font-size="10.00"> char &gt;</text>
</a>
</g>
</g>
<!-- Node4&#45;&gt;Node3 -->
<g id="edge3" class="edge"><title>Node4&#45;&gt;Node3</title>
<path fill="none" stroke="midnightblue" d="M105.412,-57C125.18,-57 146.536,-57 163.153,-57"/>
<polygon fill="midnightblue" stroke="midnightblue" points="105.253,-53.5001 95.2527,-57 105.253,-60.5001 105.253,-53.5001"/>
</g>
<!-- Node5 -->
<g id="node5" class="node"><title>Node5</title>
<polygon fill="white" stroke="#bfbfbf" points="516,-77 516,-107 653,-107 653,-77 516,-77"/>
<text text-anchor="start" x="524" y="-95" font-family="Helvetica,sans-Serif" font-size="10.00">std::vector&lt; dpp::command</text>
<text text-anchor="middle" x="584.5" y="-84" font-family="Helvetica,sans-Serif" font-size="10.00">_option_choice &gt;</text>
</g>
<!-- Node5&#45;&gt;Node1 -->
<g id="edge4" class="edge"><title>Node5&#45;&gt;Node1</title>
<path fill="none" stroke="#9a32cd" stroke-dasharray="5,2" d="M663.025,-82.1617C684.336,-79.4573 707.021,-76.5786 726.834,-74.0643"/>
<polygon fill="#9a32cd" stroke="#9a32cd" points="662.5,-78.7002 653.021,-83.4314 663.382,-85.6445 662.5,-78.7002"/>
<text text-anchor="middle" x="690" y="-84" font-family="Helvetica,sans-Serif" font-size="10.00"> choices</text>
</g>
<!-- Node6&#45;&gt;Node5 -->
<g id="edge5" class="edge"><title>Node6&#45;&gt;Node5</title>
<path fill="none" stroke="#9a32cd" stroke-dasharray="5,2" d="M442.434,-92.6815C465.867,-92.5683 492.274,-92.4407 515.849,-92.3268"/>
<polygon fill="#9a32cd" stroke="#9a32cd" points="442.227,-89.1823 432.245,-92.7307 442.261,-96.1823 442.227,-89.1823"/>
<text text-anchor="middle" x="474" y="-96" font-family="Helvetica,sans-Serif" font-size="10.00"> elements</text>
</g>
<!-- Node7 -->
<g id="node7" class="node"><title>Node7</title>
<polygon fill="white" stroke="#bfbfbf" points="132,-94.5 132,-135.5 255,-135.5 255,-94.5 132,-94.5"/>
<text text-anchor="start" x="140" y="-123.5" font-family="Helvetica,sans-Serif" font-size="10.00">variant&lt; std::monostate,</text>
<text text-anchor="start" x="140" y="-112.5" font-family="Helvetica,sans-Serif" font-size="10.00"> std::string, int32_t,</text>
<text text-anchor="middle" x="193.5" y="-101.5" font-family="Helvetica,sans-Serif" font-size="10.00"> bool, snowflake &gt;</text>
</g>
<!-- Node7&#45;&gt;Node6 -->
<g id="edge7" class="edge"><title>Node7&#45;&gt;Node6</title>
<path fill="none" stroke="#9a32cd" stroke-dasharray="5,2" d="M265.5,-106.322C283.253,-104.152 302.039,-101.856 318.923,-99.7928"/>
<polygon fill="#9a32cd" stroke="#9a32cd" points="264.69,-102.895 255.189,-107.582 265.54,-109.843 264.69,-102.895"/>
<text text-anchor="middle" x="287" y="-108" font-family="Helvetica,sans-Serif" font-size="10.00"> value</text>
</g>
<!-- Node8&#45;&gt;Node1 -->
<g id="edge8" class="edge"><title>Node8&#45;&gt;Node1</title>
<path fill="none" stroke="#9a32cd" stroke-dasharray="5,2" d="M908.599,-51.4899C891.916,-49.7956 874.382,-49.2376 858,-51 845.795,-52.3131 832.643,-54.8191 820.885,-57.465"/>
<polygon fill="#9a32cd" stroke="#9a32cd" points="908.522,-55.0045 918.859,-52.6811 909.33,-48.0512 908.522,-55.0045"/>
<text text-anchor="middle" x="879.5" y="-54" font-family="Helvetica,sans-Serif" font-size="10.00"> options</text>
</g>
<!-- Node9 -->
<g id="node9" class="node"><title>Node9</title>
<polygon fill="white" stroke="#bfbfbf" points="527,-0.5 527,-19.5 642,-19.5 642,-0.5 527,-0.5"/>
<text text-anchor="middle" x="584.5" y="-7.5" font-family="Helvetica,sans-Serif" font-size="10.00">command_option_type</text>
</g>
<!-- Node9&#45;&gt;Node1 -->
<g id="edge10" class="edge"><title>Node9&#45;&gt;Node1</title>
<path fill="none" stroke="#9a32cd" stroke-dasharray="5,2" d="M652.432,-11.7307C671.095,-13.6323 691.141,-17.0391 709,-23 732.418,-30.8163 756.37,-46.9965 770.317,-57.4072"/>
<polygon fill="#9a32cd" stroke="#9a32cd" points="652.5,-8.22297 642.229,-10.8224 651.88,-15.1954 652.5,-8.22297"/>
<text text-anchor="middle" x="690" y="-26" font-family="Helvetica,sans-Serif" font-size="10.00"> type</text>
</g>
</g>
</svg>
        <g id="navigator" transform="translate(0 0)" fill="#404254">
                <rect fill="#f2f5e9" fill-opacity="0.5" stroke="#606060" stroke-width=".5" x="0" y="0" width="60" height="60"/>
                <use id="zoomplus" xlink:href="#zoomPlus" x="17" y="9" onmousedown="handleZoom(evt,'in')"/>
                <use id="zoomminus" xlink:href="#zoomMin" x="42" y="9" onmousedown="handleZoom(evt,'out')"/>
                <use id="reset" xlink:href="#resetDef" x="30" y="36" onmousedown="handleReset()"/>
                <g id="arrowUp" xlink:href="#dirArrow" transform="translate(30 24)" onmousedown="handlePan(0,-1)">
                  <use xlink:href="#rim" fill="#404040">
                        <set attributeName="fill" to="#808080" begin="arrowUp.mouseover" end="arrowUp.mouseout"/>
                  </use>
                  <path fill="none" stroke="white" stroke-width="1.5" d="M0,-3.0v7 M-2.5,-0.5L0,-3.0L2.5,-0.5"/>
                </g>
                <g id="arrowRight" xlink:href="#dirArrow" transform="rotate(90) translate(36 -43)" onmousedown="handlePan(1,0)">
                  <use xlink:href="#rim" fill="#404040">
                        <set attributeName="fill" to="#808080" begin="arrowRight.mouseover" end="arrowRight.mouseout"/>
                  </use>
                  <path fill="none" stroke="white" stroke-width="1.5" d="M0,-3.0v7 M-2.5,-0.5L0,-3.0L2.5,-0.5"/>
                </g>
                <g id="arrowDown" xlink:href="#dirArrow" transform="rotate(180) translate(-30 -48)" onmousedown="handlePan(0,1)">
                  <use xlink:href="#rim" fill="#404040">
                        <set attributeName="fill" to="#808080" begin="arrowDown.mouseover" end="arrowDown.mouseout"/>
                  </use>
                  <path fill="none" stroke="white" stroke-width="1.5" d="M0,-3.0v7 M-2.5,-0.5L0,-3.0L2.5,-0.5"/>
                </g>
                <g id="arrowLeft" xlink:href="#dirArrow" transform="rotate(270) translate(-36 17)" onmousedown="handlePan(-1,0)">
                  <use xlink:href="#rim" fill="#404040">
                        <set attributeName="fill" to="#808080" begin="arrowLeft.mouseover" end="arrowLeft.mouseout"/>
                  </use>
                  <path fill="none" stroke="white" stroke-width="1.5" d="M0,-3.0v7 M-2.5,-0.5L0,-3.0L2.5,-0.5"/>
                </g>
        </g>
        <svg viewBox="0 0 15 15" width="100%" height="30px" preserveAspectRatio="xMaxYMin meet">
         <g id="arrow_out" transform="scale(0.3 0.3)">
          <a xlink:href="structdpp_1_1command__option__coll__graph_org.svg" target="_base">
           <rect id="button" ry="5" rx="5" y="6" x="6" height="38" width="38"
                fill="#f2f5e9" fill-opacity="0.5" stroke="#606060" stroke-width="1.0"/>
           <path id="arrow"
             d="M 11.500037,31.436501 C 11.940474,20.09759 22.043105,11.32322 32.158766,21.979434 L 37.068811,17.246167 C 37.068811,17.246167 37.088388,32 37.088388,32 L 22.160133,31.978069 C 22.160133,31.978069 26.997745,27.140456 26.997745,27.140456 C 18.528582,18.264221 13.291696,25.230495 11.500037,31.436501 z"
             style="fill:#404040;"/>
          </a>
         </g>
        </svg>
</svg>
