<?xml version="1.0" encoding="UTF-8" standalone="no"?>
<!DOCTYPE svg PUBLIC "-//W3C//DTD SVG 1.1//EN"
 "http://www.w3.org/Graphics/SVG/1.1/DTD/svg11.dtd">
<!-- Generated by graphviz version 2.43.0 (0)
 -->
<!-- Title: dpp::voice_ready_t Pages: 1 -->
<svg width="1543pt" height="1152pt"
 viewBox="0.00 0.00 1543.00 1152.00" xmlns="http://www.w3.org/2000/svg" xmlns:xlink="http://www.w3.org/1999/xlink">
<g id="graph0" class="graph" transform="scale(1 1) rotate(0) translate(4 1148)">
<title>dpp::voice_ready_t</title>
<!-- Node1 -->
<g id="node1" class="node">
<title>Node1</title>
<g id="a_node1"><a xlink:title="voice user talking">
<polygon fill="#bfbfbf" stroke="black" points="1426,-820.5 1426,-839.5 1535,-839.5 1535,-820.5 1426,-820.5"/>
<text text-anchor="middle" x="1480.5" y="-827.5" font-family="Helvetica,sans-Serif" font-size="10.00">dpp::voice_ready_t</text>
</a>
</g>
</g>
<!-- Node2 -->
<g id="node2" class="node">
<title>Node2</title>
<g id="a_node2"><a xlink:href="structdpp_1_1event__dispatch__t.html" target="_top" xlink:title="Base event parameter struct. Each event you receive from the library will have its parameter derived ...">
<polygon fill="none" stroke="black" points="1265,-541.5 1265,-560.5 1389,-560.5 1389,-541.5 1265,-541.5"/>
<text text-anchor="middle" x="1327" y="-548.5" font-family="Helvetica,sans-Serif" font-size="10.00">dpp::event_dispatch_t</text>
</a>
</g>
</g>
<!-- Node2&#45;&gt;Node1 -->
<g id="edge1" class="edge">
<title>Node2&#45;&gt;Node1</title>
<path fill="none" stroke="midnightblue" d="M1338.02,-569.45C1367.36,-623.48 1452.41,-780.1 1474.31,-820.44"/>
<polygon fill="midnightblue" stroke="midnightblue" points="1341.06,-567.72 1333.21,-560.6 1334.91,-571.06 1341.06,-567.72"/>
</g>
<!-- Node3 -->
<g id="node3" class="node">
<title>Node3</title>
<g id="a_node3"><a xlink:title=" ">
<polygon fill="none" stroke="#bfbfbf" points="258,-93.5 258,-112.5 323,-112.5 323,-93.5 258,-93.5"/>
<text text-anchor="middle" x="290.5" y="-100.5" font-family="Helvetica,sans-Serif" font-size="10.00">std::string</text>
</a>
</g>
</g>
<!-- Node3&#45;&gt;Node2 -->
<g id="edge2" class="edge">
<title>Node3&#45;&gt;Node2</title>
<path fill="none" stroke="#9a32cd" stroke-dasharray="5,2" d="M311,-87.21C327.81,-74.34 353.23,-56.62 378,-46 461.44,-10.24 486.22,0 577,0 577,0 577,0 1149,0 1267.56,0 1317.95,-468.27 1325.1,-541.44"/>
<polygon fill="#9a32cd" stroke="#9a32cd" points="308.76,-84.52 303.04,-93.43 313.07,-90.03 308.76,-84.52"/>
<text text-anchor="middle" x="858.5" y="-3" font-family="Helvetica,sans-Serif" font-size="10.00"> raw_event</text>
</g>
<!-- Node5 -->
<g id="node5" class="node">
<title>Node5</title>
<g id="a_node5"><a xlink:href="classdpp_1_1discord__client.html" target="_top" xlink:title="Implements a discord client. Each discord_client connects to one shard and derives from a websocket c...">
<polygon fill="none" stroke="black" points="1094,-541.5 1094,-560.5 1202,-560.5 1202,-541.5 1094,-541.5"/>
<text text-anchor="middle" x="1148" y="-548.5" font-family="Helvetica,sans-Serif" font-size="10.00">dpp::discord_client</text>
</a>
</g>
</g>
<!-- Node3&#45;&gt;Node5 -->
<g id="edge43" class="edge">
<title>Node3&#45;&gt;Node5</title>
<path fill="none" stroke="#9a32cd" stroke-dasharray="5,2" d="M321.56,-89.34C337.93,-82.47 358.72,-74.63 378,-70 529.11,-33.7 970.57,1.17 1076,-113 1136.36,-178.37 1145.6,-482.4 1146.83,-541.15"/>
<polygon fill="#9a32cd" stroke="#9a32cd" points="319.8,-86.29 312,-93.46 322.57,-92.72 319.8,-86.29"/>
<text text-anchor="middle" x="717.5" y="-51" font-family="Helvetica,sans-Serif" font-size="10.00"> sessionid</text>
<text text-anchor="middle" x="717.5" y="-40" font-family="Helvetica,sans-Serif" font-size="10.00">token</text>
</g>
<!-- Node7 -->
<g id="node7" class="node">
<title>Node7</title>
<g id="a_node7"><a xlink:href="classdpp_1_1ssl__client.html" target="_top" xlink:title="Implements a simple non&#45;blocking SSL stream client.">
<polygon fill="none" stroke="black" points="535,-790.5 535,-809.5 621,-809.5 621,-790.5 535,-790.5"/>
<text text-anchor="middle" x="578" y="-797.5" font-family="Helvetica,sans-Serif" font-size="10.00">dpp::ssl_client</text>
</a>
</g>
</g>
<!-- Node3&#45;&gt;Node7 -->
<g id="edge7" class="edge">
<title>Node3&#45;&gt;Node7</title>
<path fill="none" stroke="#9a32cd" stroke-dasharray="5,2" d="M328.26,-117.09C340.25,-123.5 352.42,-132.33 360,-144 396.32,-199.95 336.52,-240.76 378,-293 413.59,-337.81 464.9,-291.05 499,-337 520.69,-366.22 508.52,-628.61 517,-664 528.97,-713.94 558.59,-768.42 571.18,-790.2"/>
<polygon fill="#9a32cd" stroke="#9a32cd" points="329.72,-113.91 319.2,-112.65 326.63,-120.19 329.72,-113.91"/>
<text text-anchor="middle" x="438.5" y="-384" font-family="Helvetica,sans-Serif" font-size="10.00"> buffer</text>
<text text-anchor="middle" x="438.5" y="-373" font-family="Helvetica,sans-Serif" font-size="10.00">cipher</text>
<text text-anchor="middle" x="438.5" y="-362" font-family="Helvetica,sans-Serif" font-size="10.00">hostname</text>
<text text-anchor="middle" x="438.5" y="-351" font-family="Helvetica,sans-Serif" font-size="10.00">obuffer</text>
<text text-anchor="middle" x="438.5" y="-340" font-family="Helvetica,sans-Serif" font-size="10.00">port</text>
</g>
<!-- Node17 -->
<g id="node17" class="node">
<title>Node17</title>
<g id="a_node17"><a xlink:href="classdpp_1_1cluster.html" target="_top" xlink:title="The cluster class represents a group of shards and a command queue for sending and receiving commands...">
<polygon fill="none" stroke="black" points="821.5,-407.5 821.5,-426.5 895.5,-426.5 895.5,-407.5 821.5,-407.5"/>
<text text-anchor="middle" x="858.5" y="-414.5" font-family="Helvetica,sans-Serif" font-size="10.00">dpp::cluster</text>
</a>
</g>
</g>
<!-- Node3&#45;&gt;Node17 -->
<g id="edge19" class="edge">
<title>Node3&#45;&gt;Node17</title>
<path fill="none" stroke="#9a32cd" stroke-dasharray="5,2" d="M333.32,-106.17C375.74,-110.15 442.94,-118.54 499,-135 507.4,-137.47 508.65,-140.37 517,-143 531.09,-147.45 766.96,-184.19 778,-194 797.54,-211.36 787.48,-225.28 796,-250 816.74,-310.17 843.92,-381.64 853.75,-407.26"/>
<polygon fill="#9a32cd" stroke="#9a32cd" points="333.63,-102.69 323.35,-105.28 333,-109.66 333.63,-102.69"/>
<text text-anchor="middle" x="578" y="-168" font-family="Helvetica,sans-Serif" font-size="10.00"> token</text>
</g>
<!-- Node20 -->
<g id="node20" class="node">
<title>Node20</title>
<g id="a_node20"><a xlink:href="classdpp_1_1user.html" target="_top" xlink:title="Represents a user on discord. May or may not be a member of a dpp::guild.">
<polygon fill="none" stroke="black" points="547,-203.5 547,-222.5 609,-222.5 609,-203.5 547,-203.5"/>
<text text-anchor="middle" x="578" y="-210.5" font-family="Helvetica,sans-Serif" font-size="10.00">dpp::user</text>
</a>
</g>
</g>
<!-- Node3&#45;&gt;Node20 -->
<g id="edge28" class="edge">
<title>Node3&#45;&gt;Node20</title>
<path fill="none" stroke="#9a32cd" stroke-dasharray="5,2" d="M329.05,-115.83C344.22,-120.95 361.92,-126.85 378,-132 431.55,-149.16 451.19,-139.39 499,-169 508.89,-175.13 507.42,-181.4 517,-188 526.2,-194.34 537.25,-199.52 547.36,-203.48"/>
<polygon fill="#9a32cd" stroke="#9a32cd" points="330.08,-112.49 319.49,-112.59 327.84,-119.12 330.08,-112.49"/>
<text text-anchor="middle" x="438.5" y="-172" font-family="Helvetica,sans-Serif" font-size="10.00"> username</text>
</g>
<!-- Node35 -->
<g id="node35" class="node">
<title>Node35</title>
<g id="a_node35"><a xlink:href="classdpp_1_1discord__voice__client.html" target="_top" xlink:title="Implements a discord voice connection. Each discord_voice_client connects to one voice channel and de...">
<polygon fill="none" stroke="black" points="1094.5,-815 1094.5,-845 1201.5,-845 1201.5,-815 1094.5,-815"/>
<text text-anchor="start" x="1102.5" y="-833" font-family="Helvetica,sans-Serif" font-size="10.00">dpp::discord_voice</text>
<text text-anchor="middle" x="1148" y="-822" font-family="Helvetica,sans-Serif" font-size="10.00">_client</text>
</a>
</g>
</g>
<!-- Node3&#45;&gt;Node35 -->
<g id="edge55" class="edge">
<title>Node3&#45;&gt;Node35</title>
<path fill="none" stroke="#9a32cd" stroke-dasharray="5,2" d="M332.96,-96.98C438.3,-82.67 712.54,-51.91 778,-109 814.67,-140.98 770.14,-175.78 796,-217 876.99,-346.12 998.23,-283.92 1076,-415 1093.69,-444.82 1088.53,-535.76 1094,-570 1108.96,-663.71 1134.16,-774.96 1143.44,-814.84"/>
<polygon fill="#9a32cd" stroke="#9a32cd" points="332.44,-93.52 323.01,-98.35 333.39,-100.45 332.44,-93.52"/>
<text text-anchor="middle" x="717.5" y="-123" font-family="Helvetica,sans-Serif" font-size="10.00"> sessionid</text>
<text text-anchor="middle" x="717.5" y="-112" font-family="Helvetica,sans-Serif" font-size="10.00">token</text>
</g>
<!-- Node4 -->
<g id="node4" class="node">
<title>Node4</title>
<g id="a_node4"><a xlink:title=" ">
<polygon fill="none" stroke="#bfbfbf" points="17,-88 17,-118 121,-118 121,-88 17,-88"/>
<text text-anchor="start" x="25" y="-106" font-family="Helvetica,sans-Serif" font-size="10.00">std::basic_string&lt;</text>
<text text-anchor="middle" x="69" y="-95" font-family="Helvetica,sans-Serif" font-size="10.00"> Char &gt;</text>
</a>
</g>
</g>
<!-- Node4&#45;&gt;Node3 -->
<g id="edge3" class="edge">
<title>Node4&#45;&gt;Node3</title>
<path fill="none" stroke="midnightblue" d="M131.38,-103C172.53,-103 225.02,-103 257.96,-103"/>
<polygon fill="midnightblue" stroke="midnightblue" points="131.19,-99.5 121.19,-103 131.19,-106.5 131.19,-99.5"/>
</g>
<!-- Node5&#45;&gt;Node2 -->
<g id="edge4" class="edge">
<title>Node5&#45;&gt;Node2</title>
<path fill="none" stroke="#9a32cd" stroke-dasharray="5,2" d="M1212.52,-551C1229.56,-551 1247.94,-551 1264.85,-551"/>
<polygon fill="#9a32cd" stroke="#9a32cd" points="1212.11,-547.5 1202.11,-551 1212.11,-554.5 1212.11,-547.5"/>
<text text-anchor="middle" x="1233.5" y="-554" font-family="Helvetica,sans-Serif" font-size="10.00"> from</text>
</g>
<!-- Node6 -->
<g id="node6" class="node">
<title>Node6</title>
<g id="a_node6"><a xlink:href="classdpp_1_1websocket__client.html" target="_top" xlink:title="Implements a websocket client based on the SSL client.">
<polygon fill="none" stroke="black" points="796,-786.5 796,-805.5 921,-805.5 921,-786.5 796,-786.5"/>
<text text-anchor="middle" x="858.5" y="-793.5" font-family="Helvetica,sans-Serif" font-size="10.00">dpp::websocket_client</text>
</a>
</g>
</g>
<!-- Node6&#45;&gt;Node5 -->
<g id="edge5" class="edge">
<title>Node6&#45;&gt;Node5</title>
<path fill="none" stroke="midnightblue" d="M882.38,-780.51C898.2,-769.85 919.79,-755.43 939,-743 999.36,-703.95 1024.42,-707.08 1076,-657 1107.15,-626.76 1132.22,-580.69 1142.26,-560.76"/>
<polygon fill="midnightblue" stroke="midnightblue" points="880.12,-777.81 873.78,-786.31 884.03,-783.61 880.12,-777.81"/>
</g>
<!-- Node6&#45;&gt;Node35 -->
<g id="edge49" class="edge">
<title>Node6&#45;&gt;Node35</title>
<path fill="none" stroke="midnightblue" d="M873.65,-813.52C888.09,-829.87 912.15,-853.19 939,-863 996.19,-883.89 1016.55,-876.14 1076,-863 1091.93,-859.48 1108.52,-852.01 1121.66,-845.06"/>
<polygon fill="midnightblue" stroke="midnightblue" points="876.15,-811.06 867.01,-805.71 870.82,-815.59 876.15,-811.06"/>
</g>
<!-- Node7&#45;&gt;Node6 -->
<g id="edge6" class="edge">
<title>Node7&#45;&gt;Node6</title>
<path fill="none" stroke="midnightblue" d="M631.51,-799.25C678.24,-798.57 746.62,-797.59 795.91,-796.88"/>
<polygon fill="midnightblue" stroke="midnightblue" points="631.25,-795.75 621.3,-799.39 631.35,-802.75 631.25,-795.75"/>
</g>
<!-- Node8 -->
<g id="node8" class="node">
<title>Node8</title>
<g id="a_node8"><a xlink:title=" ">
<polygon fill="none" stroke="#bfbfbf" points="271.5,-985.5 271.5,-1004.5 309.5,-1004.5 309.5,-985.5 271.5,-985.5"/>
<text text-anchor="middle" x="290.5" y="-992.5" font-family="Helvetica,sans-Serif" font-size="10.00">bool</text>
</a>
</g>
</g>
<!-- Node8&#45;&gt;Node5 -->
<g id="edge17" class="edge">
<title>Node8&#45;&gt;Node5</title>
<path fill="none" stroke="#9a32cd" stroke-dasharray="5,2" d="M319.32,-1003.96C362.12,-1015.91 444.8,-1031.48 499,-994 517.4,-981.28 501.59,-963.22 517,-947 647.11,-810.06 748.39,-891.74 921,-815 925.7,-812.91 1072.68,-717.92 1076,-714 1117.46,-664.98 1138.42,-588.01 1144.82,-560.87"/>
<polygon fill="#9a32cd" stroke="#9a32cd" points="320.17,-1000.57 309.59,-1001.12 318.21,-1007.28 320.17,-1000.57"/>
<text text-anchor="middle" x="717.5" y="-879" font-family="Helvetica,sans-Serif" font-size="10.00"> ready</text>
<text text-anchor="middle" x="717.5" y="-868" font-family="Helvetica,sans-Serif" font-size="10.00">terminating</text>
</g>
<!-- Node8&#45;&gt;Node7 -->
<g id="edge8" class="edge">
<title>Node8&#45;&gt;Node7</title>
<path fill="none" stroke="#9a32cd" stroke-dasharray="5,2" d="M315.18,-980.27C332.1,-970.35 355.73,-957.72 378,-950 429.72,-932.07 456.88,-961.96 499,-927 515.89,-912.98 506.37,-900.21 517,-881 532.25,-853.44 555.72,-824.59 568.31,-809.89"/>
<polygon fill="#9a32cd" stroke="#9a32cd" points="313.3,-977.32 306.52,-985.45 316.89,-983.32 313.3,-977.32"/>
<text text-anchor="middle" x="438.5" y="-986" font-family="Helvetica,sans-Serif" font-size="10.00"> keepalive</text>
<text text-anchor="middle" x="438.5" y="-975" font-family="Helvetica,sans-Serif" font-size="10.00">make_new</text>
<text text-anchor="middle" x="438.5" y="-964" font-family="Helvetica,sans-Serif" font-size="10.00">nonblocking</text>
<text text-anchor="middle" x="438.5" y="-953" font-family="Helvetica,sans-Serif" font-size="10.00">plaintext</text>
</g>
<!-- Node8&#45;&gt;Node35 -->
<g id="edge51" class="edge">
<title>Node8&#45;&gt;Node35</title>
<path fill="none" stroke="#9a32cd" stroke-dasharray="5,2" d="M319.36,-1006.06C336.07,-1012.09 357.91,-1018.94 378,-1022 431.16,-1030.1 445.41,-1026.52 499,-1022 758.2,-1000.14 853.71,-1059.09 1076,-924 1107.28,-904.99 1129.53,-866.61 1140.08,-845.24"/>
<polygon fill="#9a32cd" stroke="#9a32cd" points="320.27,-1002.66 309.68,-1002.45 317.83,-1009.22 320.27,-1002.66"/>
<text text-anchor="middle" x="717.5" y="-1042" font-family="Helvetica,sans-Serif" font-size="10.00"> decode_voice_recv</text>
<text text-anchor="middle" x="717.5" y="-1031" font-family="Helvetica,sans-Serif" font-size="10.00">sodium_initialised</text>
<text text-anchor="middle" x="717.5" y="-1020" font-family="Helvetica,sans-Serif" font-size="10.00">terminating</text>
</g>
<!-- Node9 -->
<g id="node9" class="node">
<title>Node9</title>
<g id="a_node9"><a xlink:title=" ">
<polygon fill="none" stroke="#bfbfbf" points="276,-831.5 276,-850.5 305,-850.5 305,-831.5 276,-831.5"/>
<text text-anchor="middle" x="290.5" y="-838.5" font-family="Helvetica,sans-Serif" font-size="10.00">int</text>
</a>
</g>
</g>
<!-- Node9&#45;&gt;Node7 -->
<g id="edge9" class="edge">
<title>Node9&#45;&gt;Node7</title>
<path fill="none" stroke="#9a32cd" stroke-dasharray="5,2" d="M315.51,-840.47C354.38,-839.28 433.35,-835.4 499,-823 516.06,-819.78 534.74,-814.34 549.53,-809.56"/>
<polygon fill="#9a32cd" stroke="#9a32cd" points="315.12,-836.98 305.22,-840.76 315.32,-843.98 315.12,-836.98"/>
<text text-anchor="middle" x="438.5" y="-840" font-family="Helvetica,sans-Serif" font-size="10.00"> sfd</text>
</g>
<!-- Node10 -->
<g id="node10" class="node">
<title>Node10</title>
<g id="a_node10"><a xlink:href="classdpp_1_1opensslcontext.html" target="_top" xlink:title="This is an opaque class containing openssl library specific structures. We define it this way so that...">
<polygon fill="none" stroke="black" points="233,-477.5 233,-496.5 348,-496.5 348,-477.5 233,-477.5"/>
<text text-anchor="middle" x="290.5" y="-484.5" font-family="Helvetica,sans-Serif" font-size="10.00">dpp::opensslcontext</text>
</a>
</g>
</g>
<!-- Node10&#45;&gt;Node7 -->
<g id="edge10" class="edge">
<title>Node10&#45;&gt;Node7</title>
<path fill="none" stroke="#9a32cd" stroke-dasharray="5,2" d="M356.18,-502.29C357.53,-503.45 358.81,-504.68 360,-506 391.75,-541.12 355.7,-569.23 378,-611 384.16,-622.53 526.06,-753.24 566.39,-790.27"/>
<polygon fill="#9a32cd" stroke="#9a32cd" points="358.02,-499.31 347.79,-496.57 354.08,-505.1 358.02,-499.31"/>
<text text-anchor="middle" x="438.5" y="-729" font-family="Helvetica,sans-Serif" font-size="10.00"> ssl</text>
</g>
<!-- Node11 -->
<g id="node11" class="node">
<title>Node11</title>
<g id="a_node11"><a xlink:title=" ">
<polygon fill="none" stroke="#bfbfbf" points="48,-459.5 48,-478.5 90,-478.5 90,-459.5 48,-459.5"/>
<text text-anchor="middle" x="69" y="-466.5" font-family="Helvetica,sans-Serif" font-size="10.00">SSL *</text>
</a>
</g>
</g>
<!-- Node11&#45;&gt;Node10 -->
<g id="edge11" class="edge">
<title>Node11&#45;&gt;Node10</title>
<path fill="none" stroke="#9a32cd" stroke-dasharray="5,2" d="M100.68,-469.18C127.67,-469.58 168.02,-470.72 203,-474 212.68,-474.91 222.92,-476.17 232.85,-477.56"/>
<polygon fill="#9a32cd" stroke="#9a32cd" points="100.37,-465.68 90.33,-469.06 100.28,-472.68 100.37,-465.68"/>
<text text-anchor="middle" x="179.5" y="-477" font-family="Helvetica,sans-Serif" font-size="10.00"> ssl</text>
</g>
<!-- Node12 -->
<g id="node12" class="node">
<title>Node12</title>
<g id="a_node12"><a xlink:title=" ">
<polygon fill="none" stroke="#bfbfbf" points="35.5,-497.5 35.5,-516.5 102.5,-516.5 102.5,-497.5 35.5,-497.5"/>
<text text-anchor="middle" x="69" y="-504.5" font-family="Helvetica,sans-Serif" font-size="10.00">SSL_CTX *</text>
</a>
</g>
</g>
<!-- Node12&#45;&gt;Node10 -->
<g id="edge12" class="edge">
<title>Node12&#45;&gt;Node10</title>
<path fill="none" stroke="#9a32cd" stroke-dasharray="5,2" d="M113.02,-503.08C147.29,-499.96 195.54,-495.56 232.93,-492.15"/>
<polygon fill="#9a32cd" stroke="#9a32cd" points="112.5,-499.61 102.86,-504.01 113.14,-506.58 112.5,-499.61"/>
<text text-anchor="middle" x="179.5" y="-501" font-family="Helvetica,sans-Serif" font-size="10.00"> ctx</text>
</g>
<!-- Node13 -->
<g id="node13" class="node">
<title>Node13</title>
<g id="a_node13"><a xlink:title=" ">
<polygon fill="none" stroke="#bfbfbf" points="266.5,-693.5 266.5,-712.5 314.5,-712.5 314.5,-693.5 266.5,-693.5"/>
<text text-anchor="middle" x="290.5" y="-700.5" font-family="Helvetica,sans-Serif" font-size="10.00">time_t</text>
</a>
</g>
</g>
<!-- Node13&#45;&gt;Node5 -->
<g id="edge40" class="edge">
<title>Node13&#45;&gt;Node5</title>
<path fill="none" stroke="#9a32cd" stroke-dasharray="5,2" d="M324.5,-696.24C340.58,-693.22 360.22,-689.91 378,-688 554.92,-668.98 602.89,-702.58 778,-671 913.57,-646.55 1068.02,-584.59 1124.67,-560.65"/>
<polygon fill="#9a32cd" stroke="#9a32cd" points="323.67,-692.84 314.52,-698.17 325,-699.71 323.67,-692.84"/>
<text text-anchor="middle" x="717.5" y="-698" font-family="Helvetica,sans-Serif" font-size="10.00"> last_heartbeat</text>
<text text-anchor="middle" x="717.5" y="-687" font-family="Helvetica,sans-Serif" font-size="10.00">last_heartbeat_ack</text>
</g>
<!-- Node13&#45;&gt;Node7 -->
<g id="edge13" class="edge">
<title>Node13&#45;&gt;Node7</title>
<path fill="none" stroke="#9a32cd" stroke-dasharray="5,2" d="M318.55,-717.27C335.36,-725.77 357.58,-736.35 378,-744 431.1,-763.9 494.46,-780.56 535.19,-790.41"/>
<polygon fill="#9a32cd" stroke="#9a32cd" points="319.84,-713.99 309.34,-712.55 316.64,-720.22 319.84,-713.99"/>
<text text-anchor="middle" x="438.5" y="-783" font-family="Helvetica,sans-Serif" font-size="10.00"> last_tick</text>
</g>
<!-- Node13&#45;&gt;Node17 -->
<g id="edge20" class="edge">
<title>Node13&#45;&gt;Node17</title>
<path fill="none" stroke="#9a32cd" stroke-dasharray="5,2" d="M320.92,-689.08C337.59,-681.26 358.89,-671.42 378,-663 501.04,-608.77 532.86,-597.68 657,-546 710.72,-523.64 729.55,-528.23 778,-496 808.29,-475.85 836.75,-442.98 849.89,-426.73"/>
<polygon fill="#9a32cd" stroke="#9a32cd" points="319.24,-686 311.68,-693.42 322.22,-692.33 319.24,-686"/>
<text text-anchor="middle" x="578" y="-606" font-family="Helvetica,sans-Serif" font-size="10.00"> last_identify</text>
</g>
<!-- Node13&#45;&gt;Node35 -->
<g id="edge53" class="edge">
<title>Node13&#45;&gt;Node35</title>
<path fill="none" stroke="#9a32cd" stroke-dasharray="5,2" d="M324.55,-709.73C340.63,-712.84 360.27,-716.42 378,-719 618.17,-753.99 681.73,-736.33 921,-777 980.99,-787.2 1048.84,-803.81 1094.41,-815.71"/>
<polygon fill="#9a32cd" stroke="#9a32cd" points="325.04,-706.26 314.55,-707.76 323.69,-713.12 325.04,-706.26"/>
<text text-anchor="middle" x="717.5" y="-759" font-family="Helvetica,sans-Serif" font-size="10.00"> last_heartbeat</text>
</g>
<!-- Node14 -->
<g id="node14" class="node">
<title>Node14</title>
<g id="a_node14"><a xlink:title=" ">
<polygon fill="none" stroke="#bfbfbf" points="41,-969.5 41,-988.5 97,-988.5 97,-969.5 41,-969.5"/>
<text text-anchor="middle" x="69" y="-976.5" font-family="Helvetica,sans-Serif" font-size="10.00">uint64_t</text>
</a>
</g>
</g>
<!-- Node14&#45;&gt;Node1 -->
<g id="edge57" class="edge">
<title>Node14&#45;&gt;Node1</title>
<path fill="none" stroke="#9a32cd" stroke-dasharray="5,2" d="M82.74,-996.82C113.37,-1037.36 195.59,-1133 289.5,-1133 289.5,-1133 289.5,-1133 1328,-1133 1462.39,-1133 1477.57,-891.6 1479.28,-839.74"/>
<polygon fill="#9a32cd" stroke="#9a32cd" points="85.45,-994.6 76.7,-988.63 79.82,-998.76 85.45,-994.6"/>
<text text-anchor="middle" x="858.5" y="-1136" font-family="Helvetica,sans-Serif" font-size="10.00"> voice_channel_id</text>
</g>
<!-- Node14&#45;&gt;Node5 -->
<g id="edge42" class="edge">
<title>Node14&#45;&gt;Node5</title>
<path fill="none" stroke="#9a32cd" stroke-dasharray="5,2" d="M107.32,-989.8C182.3,-1009.9 356.26,-1048.45 499,-1019 639.77,-989.96 662.32,-943.81 796,-891 850.92,-869.31 869.28,-874.48 921,-846 929.88,-841.11 930.29,-837.18 939,-832 996.12,-798 1031.45,-821.34 1076,-772 1134.34,-707.39 1144.78,-594.48 1146.61,-560.77"/>
<polygon fill="#9a32cd" stroke="#9a32cd" points="107.98,-986.35 97.41,-987.1 106.14,-993.11 107.98,-986.35"/>
<text text-anchor="middle" x="578" y="-1017" font-family="Helvetica,sans-Serif" font-size="10.00"> last_seq</text>
</g>
<!-- Node14&#45;&gt;Node7 -->
<g id="edge14" class="edge">
<title>Node14&#45;&gt;Node7</title>
<path fill="none" stroke="#9a32cd" stroke-dasharray="5,2" d="M107.11,-972.7C209.78,-955.24 490.56,-907.15 499,-902 503.9,-899.01 551.42,-834.78 569.8,-809.81"/>
<polygon fill="#9a32cd" stroke="#9a32cd" points="106.46,-969.27 97.19,-974.39 107.63,-976.17 106.46,-969.27"/>
<text text-anchor="middle" x="290.5" y="-966" font-family="Helvetica,sans-Serif" font-size="10.00"> bytes_in</text>
<text text-anchor="middle" x="290.5" y="-955" font-family="Helvetica,sans-Serif" font-size="10.00">bytes_out</text>
</g>
<!-- Node21 -->
<g id="node21" class="node">
<title>Node21</title>
<g id="a_node21"><a xlink:href="classdpp_1_1managed.html" target="_top" xlink:title="The managed class is the base class for various types that can be stored in a cache that are identifi...">
<polygon fill="none" stroke="black" points="247.5,-515.5 247.5,-534.5 333.5,-534.5 333.5,-515.5 247.5,-515.5"/>
<text text-anchor="middle" x="290.5" y="-522.5" font-family="Helvetica,sans-Serif" font-size="10.00">dpp::managed</text>
</a>
</g>
</g>
<!-- Node14&#45;&gt;Node21 -->
<g id="edge25" class="edge">
<title>Node14&#45;&gt;Node21</title>
<path fill="none" stroke="#9a32cd" stroke-dasharray="5,2" d="M69.63,-959.26C69.42,-898.84 75.72,-713.15 156,-591 176.52,-559.78 216.41,-542.78 247.26,-533.89"/>
<polygon fill="#9a32cd" stroke="#9a32cd" points="66.13,-959.36 69.73,-969.33 73.13,-959.29 66.13,-959.36"/>
<text text-anchor="middle" x="179.5" y="-594" font-family="Helvetica,sans-Serif" font-size="10.00"> id</text>
</g>
<!-- Node24 -->
<g id="node24" class="node">
<title>Node24</title>
<g id="a_node24"><a xlink:href="structdpp_1_1utility_1_1iconhash.html" target="_top" xlink:title="Store a 128 bit icon hash (profile picture, server icon etc) as a 128 bit binary value made of two ui...">
<polygon fill="none" stroke="black" points="231.5,-553.5 231.5,-572.5 349.5,-572.5 349.5,-553.5 231.5,-553.5"/>
<text text-anchor="middle" x="290.5" y="-560.5" font-family="Helvetica,sans-Serif" font-size="10.00">dpp::utility::iconhash</text>
</a>
</g>
</g>
<!-- Node14&#45;&gt;Node24 -->
<g id="edge30" class="edge">
<title>Node14&#45;&gt;Node24</title>
<path fill="none" stroke="#9a32cd" stroke-dasharray="5,2" d="M71.43,-959.16C77.17,-894.57 104.28,-688.36 221,-582 225.29,-578.09 230.31,-574.98 235.65,-572.5"/>
<polygon fill="#9a32cd" stroke="#9a32cd" points="67.93,-958.96 70.61,-969.21 74.91,-959.53 67.93,-958.96"/>
<text text-anchor="middle" x="179.5" y="-676" font-family="Helvetica,sans-Serif" font-size="10.00"> first</text>
<text text-anchor="middle" x="179.5" y="-665" font-family="Helvetica,sans-Serif" font-size="10.00">second</text>
</g>
<!-- Node14&#45;&gt;Node35 -->
<g id="edge56" class="edge">
<title>Node14&#45;&gt;Node35</title>
<path fill="none" stroke="#9a32cd" stroke-dasharray="5,2" d="M87.29,-996.21C103.68,-1011.61 129.65,-1033.74 156,-1047 210.89,-1074.62 228.05,-1083 289.5,-1083 289.5,-1083 289.5,-1083 859.5,-1083 968.04,-1083 999.7,-1047.2 1076,-970 1112.59,-932.98 1134.1,-873.27 1142.67,-845.33"/>
<polygon fill="#9a32cd" stroke="#9a32cd" points="89.28,-993.27 79.65,-988.86 84.43,-998.31 89.28,-993.27"/>
<text text-anchor="middle" x="578" y="-1097" font-family="Helvetica,sans-Serif" font-size="10.00"> channel_id</text>
<text text-anchor="middle" x="578" y="-1086" font-family="Helvetica,sans-Serif" font-size="10.00">server_id</text>
</g>
<!-- Node15 -->
<g id="node15" class="node">
<title>Node15</title>
<g id="a_node15"><a xlink:title=" ">
<polygon fill="none" stroke="#bfbfbf" points="221,-790.5 221,-809.5 360,-809.5 360,-790.5 221,-790.5"/>
<text text-anchor="middle" x="290.5" y="-797.5" font-family="Helvetica,sans-Serif" font-size="10.00">function&lt; dpp::socket()&gt;</text>
</a>
</g>
</g>
<!-- Node15&#45;&gt;Node7 -->
<g id="edge15" class="edge">
<title>Node15&#45;&gt;Node7</title>
<path fill="none" stroke="#9a32cd" stroke-dasharray="5,2" d="M370.35,-800C423.59,-800 491.78,-800 534.95,-800"/>
<polygon fill="#9a32cd" stroke="#9a32cd" points="370.25,-796.5 360.25,-800 370.25,-803.5 370.25,-796.5"/>
<text text-anchor="middle" x="438.5" y="-814" font-family="Helvetica,sans-Serif" font-size="10.00"> custom_readable_fd</text>
<text text-anchor="middle" x="438.5" y="-803" font-family="Helvetica,sans-Serif" font-size="10.00">custom_writeable_fd</text>
</g>
<!-- Node16 -->
<g id="node16" class="node">
<title>Node16</title>
<g id="a_node16"><a xlink:title=" ">
<polygon fill="none" stroke="#bfbfbf" points="238.5,-869.5 238.5,-888.5 342.5,-888.5 342.5,-869.5 238.5,-869.5"/>
<text text-anchor="middle" x="290.5" y="-876.5" font-family="Helvetica,sans-Serif" font-size="10.00">function&lt; void()&gt;</text>
</a>
</g>
</g>
<!-- Node16&#45;&gt;Node7 -->
<g id="edge16" class="edge">
<title>Node16&#45;&gt;Node7</title>
<path fill="none" stroke="#9a32cd" stroke-dasharray="5,2" d="M352.67,-878.32C394.96,-876.12 451.86,-869.67 499,-852 525.52,-842.06 552.02,-821.61 566.28,-809.53"/>
<polygon fill="#9a32cd" stroke="#9a32cd" points="352.35,-874.83 342.52,-878.79 352.67,-881.83 352.35,-874.83"/>
<text text-anchor="middle" x="438.5" y="-890" font-family="Helvetica,sans-Serif" font-size="10.00"> custom_readable_ready</text>
<text text-anchor="middle" x="438.5" y="-879" font-family="Helvetica,sans-Serif" font-size="10.00">custom_writeable_ready</text>
</g>
<!-- Node17&#45;&gt;Node5 -->
<g id="edge18" class="edge">
<title>Node17&#45;&gt;Node5</title>
<path fill="none" stroke="#9a32cd" stroke-dasharray="5,2" d="M905.66,-417.02C951.95,-419.04 1023.68,-427.77 1076,-460 1109.27,-480.5 1133.05,-522.57 1142.49,-541.45"/>
<polygon fill="#9a32cd" stroke="#9a32cd" points="905.73,-413.52 895.61,-416.67 905.48,-420.52 905.73,-413.52"/>
<text text-anchor="middle" x="1007.5" y="-463" font-family="Helvetica,sans-Serif" font-size="10.00"> creator</text>
</g>
<!-- Node17&#45;&gt;Node35 -->
<g id="edge50" class="edge">
<title>Node17&#45;&gt;Node35</title>
<path fill="none" stroke="#9a32cd" stroke-dasharray="5,2" d="M879.33,-432.85C921.05,-467.11 1018.72,-552.32 1076,-643 1112.81,-701.28 1135.22,-781.61 1143.44,-814.76"/>
<polygon fill="#9a32cd" stroke="#9a32cd" points="881.51,-430.11 871.54,-426.51 877.09,-435.54 881.51,-430.11"/>
<text text-anchor="middle" x="1007.5" y="-646" font-family="Helvetica,sans-Serif" font-size="10.00"> creator</text>
</g>
<!-- Node18 -->
<g id="node18" class="node">
<title>Node18</title>
<g id="a_node18"><a xlink:title=" ">
<polygon fill="none" stroke="#bfbfbf" points="262.5,-436.5 262.5,-455.5 318.5,-455.5 318.5,-436.5 262.5,-436.5"/>
<text text-anchor="middle" x="290.5" y="-443.5" font-family="Helvetica,sans-Serif" font-size="10.00">uint32_t</text>
</a>
</g>
</g>
<!-- Node18&#45;&gt;Node5 -->
<g id="edge39" class="edge">
<title>Node18&#45;&gt;Node5</title>
<path fill="none" stroke="#9a32cd" stroke-dasharray="5,2" d="M328.16,-456.65C338.56,-459.98 349.83,-463.87 360,-468 432.18,-497.33 441.48,-526.84 517,-546 607.93,-569.07 845.19,-556.67 939,-557 999.89,-557.21 1015.17,-559.57 1076,-557 1081.81,-556.75 1087.88,-556.4 1093.92,-555.98"/>
<polygon fill="#9a32cd" stroke="#9a32cd" points="329.1,-453.28 318.51,-453.65 327.02,-459.96 329.1,-453.28"/>
<text text-anchor="middle" x="717.5" y="-618" font-family="Helvetica,sans-Serif" font-size="10.00"> heartbeat_interval</text>
<text text-anchor="middle" x="717.5" y="-607" font-family="Helvetica,sans-Serif" font-size="10.00">intents</text>
<text text-anchor="middle" x="717.5" y="-596" font-family="Helvetica,sans-Serif" font-size="10.00">max_shards</text>
<text text-anchor="middle" x="717.5" y="-585" font-family="Helvetica,sans-Serif" font-size="10.00">reconnects</text>
<text text-anchor="middle" x="717.5" y="-574" font-family="Helvetica,sans-Serif" font-size="10.00">resumes</text>
<text text-anchor="middle" x="717.5" y="-563" font-family="Helvetica,sans-Serif" font-size="10.00">shard_id</text>
</g>
<!-- Node18&#45;&gt;Node17 -->
<g id="edge21" class="edge">
<title>Node18&#45;&gt;Node17</title>
<path fill="none" stroke="#9a32cd" stroke-dasharray="5,2" d="M329.07,-444.7C370.77,-442.9 439.99,-438.79 499,-430 507.11,-428.79 508.87,-427 517,-426 627.19,-412.43 758.9,-413.92 821.3,-415.68"/>
<polygon fill="#9a32cd" stroke="#9a32cd" points="328.68,-441.22 318.83,-445.13 328.96,-448.21 328.68,-441.22"/>
<text text-anchor="middle" x="578" y="-462" font-family="Helvetica,sans-Serif" font-size="10.00"> cluster_id</text>
<text text-anchor="middle" x="578" y="-451" font-family="Helvetica,sans-Serif" font-size="10.00">intents</text>
<text text-anchor="middle" x="578" y="-440" font-family="Helvetica,sans-Serif" font-size="10.00">maxclusters</text>
<text text-anchor="middle" x="578" y="-429" font-family="Helvetica,sans-Serif" font-size="10.00">numshards</text>
</g>
<!-- Node18&#45;&gt;Node20 -->
<g id="edge31" class="edge">
<title>Node18&#45;&gt;Node20</title>
<path fill="none" stroke="#9a32cd" stroke-dasharray="5,2" d="M296.04,-426.54C305.19,-391.79 329.3,-319.21 378,-282 421.78,-248.54 452.41,-284.42 499,-255 509.98,-248.07 506.34,-239.4 517,-232 525.8,-225.89 536.65,-221.68 546.7,-218.8"/>
<polygon fill="#9a32cd" stroke="#9a32cd" points="292.6,-425.85 293.58,-436.4 299.39,-427.55 292.6,-425.85"/>
<text text-anchor="middle" x="438.5" y="-285" font-family="Helvetica,sans-Serif" font-size="10.00"> flags</text>
</g>
<!-- Node18&#45;&gt;Node35 -->
<g id="edge52" class="edge">
<title>Node18&#45;&gt;Node35</title>
<path fill="none" stroke="#9a32cd" stroke-dasharray="5,2" d="M328.37,-451.17C339.73,-454.38 351.48,-459.58 360,-468 377.99,-485.79 360.36,-503.87 378,-522 464.09,-610.47 529.92,-559.2 639,-617 647.72,-621.62 647.98,-625.99 657,-630 707.26,-652.36 725.41,-639.89 778,-656 914.52,-697.82 951.85,-705.49 1076,-776 1095.66,-787.17 1115.99,-803.16 1129.83,-814.84"/>
<polygon fill="#9a32cd" stroke="#9a32cd" points="329.11,-447.75 318.57,-448.83 327.49,-454.55 329.11,-447.75"/>
<text text-anchor="middle" x="717.5" y="-659" font-family="Helvetica,sans-Serif" font-size="10.00"> heartbeat_interval</text>
</g>
<!-- Node19 -->
<g id="node19" class="node">
<title>Node19</title>
<g id="a_node19"><a xlink:title=" ">
<polygon fill="none" stroke="#bfbfbf" points="553,-517.5 553,-536.5 603,-536.5 603,-517.5 553,-517.5"/>
<text text-anchor="middle" x="578" y="-524.5" font-family="Helvetica,sans-Serif" font-size="10.00">double</text>
</a>
</g>
</g>
<!-- Node19&#45;&gt;Node5 -->
<g id="edge45" class="edge">
<title>Node19&#45;&gt;Node5</title>
<path fill="none" stroke="#9a32cd" stroke-dasharray="5,2" d="M613.3,-528.45C708.84,-532.49 978.58,-543.88 1093.77,-548.75"/>
<polygon fill="#9a32cd" stroke="#9a32cd" points="613.18,-524.94 603.04,-528.02 612.89,-531.94 613.18,-524.94"/>
<text text-anchor="middle" x="858.5" y="-544" font-family="Helvetica,sans-Serif" font-size="10.00"> websocket_ping</text>
</g>
<!-- Node19&#45;&gt;Node17 -->
<g id="edge22" class="edge">
<title>Node19&#45;&gt;Node17</title>
<path fill="none" stroke="#9a32cd" stroke-dasharray="5,2" d="M613.11,-520.05C622.03,-517.24 631.3,-513.34 639,-508 649.66,-500.6 645.92,-491.75 657,-485 703.74,-456.51 726.61,-480.85 778,-462 802.57,-452.99 828.49,-436.9 843.82,-426.6"/>
<polygon fill="#9a32cd" stroke="#9a32cd" points="611.97,-516.74 603.27,-522.8 613.85,-523.48 611.97,-516.74"/>
<text text-anchor="middle" x="717.5" y="-488" font-family="Helvetica,sans-Serif" font-size="10.00"> rest_ping</text>
</g>
<!-- Node20&#45;&gt;Node17 -->
<g id="edge23" class="edge">
<title>Node20&#45;&gt;Node17</title>
<path fill="none" stroke="#9a32cd" stroke-dasharray="5,2" d="M618.91,-201.02C662.09,-190.64 731.05,-181.79 778,-214 786.64,-219.93 839.85,-367.57 854.03,-407.26"/>
<polygon fill="#9a32cd" stroke="#9a32cd" points="617.87,-197.68 609.04,-203.53 619.6,-204.46 617.87,-197.68"/>
<text text-anchor="middle" x="717.5" y="-217" font-family="Helvetica,sans-Serif" font-size="10.00"> me</text>
</g>
<!-- Node21&#45;&gt;Node20 -->
<g id="edge24" class="edge">
<title>Node21&#45;&gt;Node20</title>
<path fill="none" stroke="midnightblue" d="M343.21,-517.7C349.54,-514.9 355.39,-511.11 360,-506 392.28,-470.18 344.95,-434.12 378,-399 415.83,-358.8 461.94,-411.91 499,-371 540.82,-324.83 477.04,-279.79 517,-232 524.43,-223.12 535.99,-218.33 546.99,-215.77"/>
<polygon fill="midnightblue" stroke="midnightblue" points="341.9,-514.45 333.67,-521.12 344.27,-521.03 341.9,-514.45"/>
</g>
<!-- Node22 -->
<g id="node22" class="node">
<title>Node22</title>
<g id="a_node22"><a xlink:href="structdpp_1_1json__interface.html" target="_top" xlink:title=" ">
<polygon fill="none" stroke="black" points="235.5,-154 235.5,-184 345.5,-184 345.5,-154 235.5,-154"/>
<text text-anchor="start" x="243.5" y="-172" font-family="Helvetica,sans-Serif" font-size="10.00">dpp::json_interface</text>
<text text-anchor="middle" x="290.5" y="-161" font-family="Helvetica,sans-Serif" font-size="10.00">&lt; user &gt;</text>
</a>
</g>
</g>
<!-- Node22&#45;&gt;Node20 -->
<g id="edge26" class="edge">
<title>Node22&#45;&gt;Node20</title>
<path fill="none" stroke="midnightblue" d="M355.62,-178.88C415.32,-188.08 501.7,-201.39 546.88,-208.36"/>
<polygon fill="midnightblue" stroke="midnightblue" points="355.95,-175.39 345.54,-177.33 354.89,-182.31 355.95,-175.39"/>
</g>
<!-- Node23 -->
<g id="node23" class="node">
<title>Node23</title>
<g id="a_node23"><a xlink:href="structdpp_1_1json__interface.html" target="_top" xlink:title="Represents an interface for an object that can optionally implement functions for converting to and f...">
<polygon fill="none" stroke="black" points="0,-159.5 0,-178.5 138,-178.5 138,-159.5 0,-159.5"/>
<text text-anchor="middle" x="69" y="-166.5" font-family="Helvetica,sans-Serif" font-size="10.00">dpp::json_interface&lt; T &gt;</text>
</a>
</g>
</g>
<!-- Node23&#45;&gt;Node22 -->
<g id="edge27" class="edge">
<title>Node23&#45;&gt;Node22</title>
<path fill="none" stroke="orange" stroke-dasharray="5,2" d="M148.28,-169C177.07,-169 209.01,-169 235.22,-169"/>
<polygon fill="orange" stroke="orange" points="148.25,-165.5 138.25,-169 148.25,-172.5 148.25,-165.5"/>
<text text-anchor="middle" x="179.5" y="-172" font-family="Helvetica,sans-Serif" font-size="10.00"> &lt; user &gt;</text>
</g>
<!-- Node24&#45;&gt;Node20 -->
<g id="edge29" class="edge">
<title>Node24&#45;&gt;Node20</title>
<path fill="none" stroke="#9a32cd" stroke-dasharray="5,2" d="M354.37,-548.3C356.35,-546.99 358.23,-545.56 360,-544 375.54,-530.3 365.86,-517.79 378,-501 419.73,-443.31 465.95,-459.07 499,-396 533.04,-331.05 470.51,-288.71 517,-232 524.34,-223.04 535.89,-218.25 546.9,-215.7"/>
<polygon fill="#9a32cd" stroke="#9a32cd" points="352.28,-545.46 345.22,-553.36 355.67,-551.59 352.28,-545.46"/>
<text text-anchor="middle" x="438.5" y="-504" font-family="Helvetica,sans-Serif" font-size="10.00"> avatar</text>
</g>
<!-- Node25 -->
<g id="node25" class="node">
<title>Node25</title>
<g id="a_node25"><a xlink:title=" ">
<polygon fill="none" stroke="#bfbfbf" points="262.5,-241.5 262.5,-260.5 318.5,-260.5 318.5,-241.5 262.5,-241.5"/>
<text text-anchor="middle" x="290.5" y="-248.5" font-family="Helvetica,sans-Serif" font-size="10.00">uint16_t</text>
</a>
</g>
</g>
<!-- Node25&#45;&gt;Node20 -->
<g id="edge32" class="edge">
<title>Node25&#45;&gt;Node20</title>
<path fill="none" stroke="#9a32cd" stroke-dasharray="5,2" d="M328.67,-246.66C370.22,-241.74 439.5,-233.3 499,-225 514.74,-222.8 532.23,-220.13 546.65,-217.87"/>
<polygon fill="#9a32cd" stroke="#9a32cd" points="328.24,-243.19 318.72,-247.84 329.06,-250.14 328.24,-243.19"/>
<text text-anchor="middle" x="438.5" y="-243" font-family="Helvetica,sans-Serif" font-size="10.00"> discriminator</text>
</g>
<!-- Node26 -->
<g id="node26" class="node">
<title>Node26</title>
<g id="a_node26"><a xlink:title=" ">
<polygon fill="none" stroke="#bfbfbf" points="265.5,-203.5 265.5,-222.5 315.5,-222.5 315.5,-203.5 265.5,-203.5"/>
<text text-anchor="middle" x="290.5" y="-210.5" font-family="Helvetica,sans-Serif" font-size="10.00">uint8_t</text>
</a>
</g>
</g>
<!-- Node26&#45;&gt;Node20 -->
<g id="edge33" class="edge">
<title>Node26&#45;&gt;Node20</title>
<path fill="none" stroke="#9a32cd" stroke-dasharray="5,2" d="M326.04,-213C382.43,-213 493.34,-213 546.79,-213"/>
<polygon fill="#9a32cd" stroke="#9a32cd" points="325.84,-209.5 315.84,-213 325.84,-216.5 325.84,-209.5"/>
<text text-anchor="middle" x="438.5" y="-216" font-family="Helvetica,sans-Serif" font-size="10.00"> refcount</text>
</g>
<!-- Node27 -->
<g id="node27" class="node">
<title>Node27</title>
<g id="a_node27"><a xlink:href="structdpp_1_1cache__policy__t.html" target="_top" xlink:title="Represents the caching policy of the cluster.">
<polygon fill="none" stroke="black" points="521.5,-479.5 521.5,-498.5 634.5,-498.5 634.5,-479.5 521.5,-479.5"/>
<text text-anchor="middle" x="578" y="-486.5" font-family="Helvetica,sans-Serif" font-size="10.00">dpp::cache_policy_t</text>
</a>
</g>
</g>
<!-- Node27&#45;&gt;Node17 -->
<g id="edge34" class="edge">
<title>Node27&#45;&gt;Node17</title>
<path fill="none" stroke="#9a32cd" stroke-dasharray="5,2" d="M616.88,-475.73C624.39,-472.58 632.09,-468.96 639,-465 647.79,-459.96 647.72,-455.08 657,-451 671.78,-444.49 767.89,-429.92 821.49,-422.13"/>
<polygon fill="#9a32cd" stroke="#9a32cd" points="615.53,-472.5 607.54,-479.46 618.13,-479 615.53,-472.5"/>
<text text-anchor="middle" x="717.5" y="-454" font-family="Helvetica,sans-Serif" font-size="10.00"> cache_policy</text>
</g>
<!-- Node28 -->
<g id="node28" class="node">
<title>Node28</title>
<g id="a_node28"><a xlink:title=" ">
<polygon fill="none" stroke="#bfbfbf" points="226.5,-591.5 226.5,-610.5 354.5,-610.5 354.5,-591.5 226.5,-591.5"/>
<text text-anchor="middle" x="290.5" y="-598.5" font-family="Helvetica,sans-Serif" font-size="10.00">cache_policy_setting_t</text>
</a>
</g>
</g>
<!-- Node28&#45;&gt;Node27 -->
<g id="edge35" class="edge">
<title>Node28&#45;&gt;Node27</title>
<path fill="none" stroke="#9a32cd" stroke-dasharray="5,2" d="M340.07,-588.63C346.82,-586.59 353.63,-584.37 360,-582 432.32,-555.15 445.18,-536.15 517,-508 525.65,-504.61 535.17,-501.38 544.03,-498.57"/>
<polygon fill="#9a32cd" stroke="#9a32cd" points="338.9,-585.33 330.27,-591.48 340.85,-592.05 338.9,-585.33"/>
<text text-anchor="middle" x="438.5" y="-599" font-family="Helvetica,sans-Serif" font-size="10.00"> emoji_policy</text>
<text text-anchor="middle" x="438.5" y="-588" font-family="Helvetica,sans-Serif" font-size="10.00">role_policy</text>
<text text-anchor="middle" x="438.5" y="-577" font-family="Helvetica,sans-Serif" font-size="10.00">user_policy</text>
</g>
<!-- Node29 -->
<g id="node29" class="node">
<title>Node29</title>
<g id="a_node29"><a xlink:title=" ">
<polygon fill="none" stroke="#bfbfbf" points="517,-114.5 517,-133.5 639,-133.5 639,-114.5 517,-114.5"/>
<text text-anchor="middle" x="578" y="-121.5" font-family="Helvetica,sans-Serif" font-size="10.00">websocket_protocol_t</text>
</a>
</g>
</g>
<!-- Node29&#45;&gt;Node5 -->
<g id="edge46" class="edge">
<title>Node29&#45;&gt;Node5</title>
<path fill="none" stroke="#9a32cd" stroke-dasharray="5,2" d="M649.22,-120.68C778.68,-115.26 1044.65,-107.67 1076,-135 1139.79,-190.61 1146.27,-484.58 1146.93,-541.46"/>
<polygon fill="#9a32cd" stroke="#9a32cd" points="648.86,-117.19 639.02,-121.11 649.16,-124.19 648.86,-117.19"/>
<text text-anchor="middle" x="858.5" y="-120" font-family="Helvetica,sans-Serif" font-size="10.00"> protocol</text>
</g>
<!-- Node29&#45;&gt;Node17 -->
<g id="edge36" class="edge">
<title>Node29&#45;&gt;Node17</title>
<path fill="none" stroke="#9a32cd" stroke-dasharray="5,2" d="M649.21,-133C704.57,-140.41 773.25,-150.4 778,-155 808.88,-184.89 784.54,-208.58 796,-250 812.98,-311.34 842.46,-382.1 853.32,-407.4"/>
<polygon fill="#9a32cd" stroke="#9a32cd" points="649.42,-129.5 639.05,-131.65 648.5,-136.44 649.42,-129.5"/>
<text text-anchor="middle" x="717.5" y="-158" font-family="Helvetica,sans-Serif" font-size="10.00"> ws_mode</text>
</g>
<!-- Node30 -->
<g id="node30" class="node">
<title>Node30</title>
<g id="a_node30"><a xlink:title=" ">
<polygon fill="none" stroke="#bfbfbf" points="524.5,-361.5 524.5,-380.5 631.5,-380.5 631.5,-361.5 524.5,-361.5"/>
<text text-anchor="middle" x="578" y="-368.5" font-family="Helvetica,sans-Serif" font-size="10.00">condition_variable</text>
</a>
</g>
</g>
<!-- Node30&#45;&gt;Node17 -->
<g id="edge37" class="edge">
<title>Node30&#45;&gt;Node17</title>
<path fill="none" stroke="#9a32cd" stroke-dasharray="5,2" d="M641.82,-374.41C681.23,-377.34 732.94,-382.64 778,-392 796.27,-395.8 816.32,-402.12 831.71,-407.45"/>
<polygon fill="#9a32cd" stroke="#9a32cd" points="642.04,-370.92 631.82,-373.7 641.54,-377.9 642.04,-370.92"/>
<text text-anchor="middle" x="717.5" y="-395" font-family="Helvetica,sans-Serif" font-size="10.00"> terminating</text>
</g>
<!-- Node31 -->
<g id="node31" class="node">
<title>Node31</title>
<g id="a_node31"><a xlink:title=" ">
<polygon fill="none" stroke="#bfbfbf" points="530,-241.5 530,-260.5 626,-260.5 626,-241.5 530,-241.5"/>
<text text-anchor="middle" x="578" y="-248.5" font-family="Helvetica,sans-Serif" font-size="10.00">event_router_t&lt;</text>
</a>
</g>
</g>
<!-- Node31&#45;&gt;Node17 -->
<g id="edge38" class="edge">
<title>Node31&#45;&gt;Node17</title>
<path fill="none" stroke="#9a32cd" stroke-dasharray="5,2" d="M619.18,-238.96C662.01,-228.65 730.13,-219.77 778,-250 835.56,-286.35 852.31,-377.02 856.36,-407.12"/>
<polygon fill="#9a32cd" stroke="#9a32cd" points="618.21,-235.59 609.38,-241.44 619.94,-242.38 618.21,-235.59"/>
<text text-anchor="middle" x="717.5" y="-363" font-family="Helvetica,sans-Serif" font-size="10.00"> on_autocomplete</text>
<text text-anchor="middle" x="717.5" y="-352" font-family="Helvetica,sans-Serif" font-size="10.00">on_button_click</text>
<text text-anchor="middle" x="717.5" y="-341" font-family="Helvetica,sans-Serif" font-size="10.00">on_channel_create</text>
<text text-anchor="middle" x="717.5" y="-330" font-family="Helvetica,sans-Serif" font-size="10.00">on_channel_delete</text>
<text text-anchor="middle" x="717.5" y="-319" font-family="Helvetica,sans-Serif" font-size="10.00">on_channel_pins_update</text>
<text text-anchor="middle" x="717.5" y="-308" font-family="Helvetica,sans-Serif" font-size="10.00">on_channel_update</text>
<text text-anchor="middle" x="717.5" y="-297" font-family="Helvetica,sans-Serif" font-size="10.00">on_form_submit</text>
<text text-anchor="middle" x="717.5" y="-286" font-family="Helvetica,sans-Serif" font-size="10.00">on_guild_ban_add</text>
<text text-anchor="middle" x="717.5" y="-275" font-family="Helvetica,sans-Serif" font-size="10.00">on_guild_ban_remove</text>
<text text-anchor="middle" x="717.5" y="-264" font-family="Helvetica,sans-Serif" font-size="10.00">on_guild_create</text>
<text text-anchor="middle" x="717.5" y="-253" font-family="Helvetica,sans-Serif" font-size="10.00">...</text>
</g>
<!-- Node32 -->
<g id="node32" class="node">
<title>Node32</title>
<g id="a_node32"><a xlink:title=" ">
<polygon fill="none" stroke="#bfbfbf" points="802,-900.5 802,-919.5 915,-919.5 915,-900.5 802,-900.5"/>
<text text-anchor="middle" x="858.5" y="-907.5" font-family="Helvetica,sans-Serif" font-size="10.00">native_handle_type</text>
</a>
</g>
</g>
<!-- Node32&#45;&gt;Node5 -->
<g id="edge41" class="edge">
<title>Node32&#45;&gt;Node5</title>
<path fill="none" stroke="#9a32cd" stroke-dasharray="5,2" d="M900.83,-896.61C907.81,-893.59 914.8,-890.05 921,-886 930.47,-879.81 929.25,-873.73 939,-868 993.58,-835.92 1031.85,-874.37 1076,-829 1114.99,-788.93 1140.2,-605.34 1145.81,-560.77"/>
<polygon fill="#9a32cd" stroke="#9a32cd" points="899.35,-893.43 891.38,-900.41 901.96,-899.92 899.35,-893.43"/>
<text text-anchor="middle" x="1007.5" y="-871" font-family="Helvetica,sans-Serif" font-size="10.00"> thread_id</text>
</g>
<!-- Node32&#45;&gt;Node35 -->
<g id="edge54" class="edge">
<title>Node32&#45;&gt;Node35</title>
<path fill="none" stroke="#9a32cd" stroke-dasharray="5,2" d="M925.3,-910.48C969.38,-908.73 1027.92,-902.35 1076,-883 1097.55,-874.33 1118.38,-857.45 1131.84,-845.06"/>
<polygon fill="#9a32cd" stroke="#9a32cd" points="925.15,-906.98 915.27,-910.8 925.38,-913.97 925.15,-906.98"/>
<text text-anchor="middle" x="1007.5" y="-912" font-family="Helvetica,sans-Serif" font-size="10.00"> thread_id</text>
</g>
<!-- Node33 -->
<g id="node33" class="node">
<title>Node33</title>
<g id="a_node33"><a xlink:title=" ">
<polygon fill="none" stroke="#bfbfbf" points="824,-188.5 824,-207.5 893,-207.5 893,-188.5 824,-188.5"/>
<text text-anchor="middle" x="858.5" y="-195.5" font-family="Helvetica,sans-Serif" font-size="10.00">std::mutex</text>
</a>
</g>
</g>
<!-- Node33&#45;&gt;Node5 -->
<g id="edge44" class="edge">
<title>Node33&#45;&gt;Node5</title>
<path fill="none" stroke="#9a32cd" stroke-dasharray="5,2" d="M902.86,-186.65C951.11,-176.86 1028.51,-169.98 1076,-211 1128.02,-255.94 1143.7,-490.52 1146.5,-541.3"/>
<polygon fill="#9a32cd" stroke="#9a32cd" points="902.07,-183.24 893.03,-188.77 903.54,-190.09 902.07,-183.24"/>
<text text-anchor="middle" x="1007.5" y="-214" font-family="Helvetica,sans-Serif" font-size="10.00"> voice_mutex</text>
</g>
<!-- Node34 -->
<g id="node34" class="node">
<title>Node34</title>
<g id="a_node34"><a xlink:title=" ">
<polygon fill="none" stroke="#bfbfbf" points="808,-150.5 808,-169.5 909,-169.5 909,-150.5 808,-150.5"/>
<text text-anchor="middle" x="858.5" y="-157.5" font-family="Helvetica,sans-Serif" font-size="10.00">unordered_map&lt;</text>
</a>
</g>
</g>
<!-- Node34&#45;&gt;Node5 -->
<g id="edge47" class="edge">
<title>Node34&#45;&gt;Node5</title>
<path fill="none" stroke="#9a32cd" stroke-dasharray="5,2" d="M898.03,-147.76C945.74,-135.25 1026.72,-122.98 1076,-165 1135.63,-215.84 1145.42,-486.9 1146.8,-541.44"/>
<polygon fill="#9a32cd" stroke="#9a32cd" points="897.09,-144.39 888.38,-150.42 898.95,-151.14 897.09,-144.39"/>
<text text-anchor="middle" x="1007.5" y="-168" font-family="Helvetica,sans-Serif" font-size="10.00"> connecting_voice_channels</text>
</g>
<!-- Node35&#45;&gt;Node1 -->
<g id="edge48" class="edge">
<title>Node35&#45;&gt;Node1</title>
<path fill="none" stroke="#9a32cd" stroke-dasharray="5,2" d="M1211.77,-830C1273.68,-830 1367.31,-830 1425.86,-830"/>
<polygon fill="#9a32cd" stroke="#9a32cd" points="1211.73,-826.5 1201.73,-830 1211.73,-833.5 1211.73,-826.5"/>
<text text-anchor="middle" x="1327" y="-833" font-family="Helvetica,sans-Serif" font-size="10.00"> voice_client</text>
</g>
</g>
</svg>
