<?xml version="1.0" encoding="UTF-8" standalone="no"?>
<!DOCTYPE svg PUBLIC "-//W3C//DTD SVG 1.1//EN"
 "http://www.w3.org/Graphics/SVG/1.1/DTD/svg11.dtd">
<!-- Generated by graphviz version 2.43.0 (0)
 -->
<!-- Title: dpp::log_t Pages: 1 -->
<!--zoomable 1075 -->
<svg id="main" version="1.1" xmlns="http://www.w3.org/2000/svg" xmlns:xlink="http://www.w3.org/1999/xlink" xml:space="preserve" onload="init(evt)">
<style type="text/css"><![CDATA[
.edge:hover path { stroke: red; }
.edge:hover polygon { stroke: red; fill: red; }
]]></style>
<script type="text/javascript"><![CDATA[
var edges = document.getElementsByTagName('g');
if (edges && edges.length) {
  for (var i=0;i<edges.length;i++) {
    if (edges[i].id.substr(0,4)=='edge') {
      edges[i].setAttribute('class','edge');
    }
  }
}
]]></script>
        <defs>
                <circle id="rim" cx="0" cy="0" r="7"/>
                <circle id="rim2" cx="0" cy="0" r="3.5"/>
                <g id="zoomPlus">
                        <use xlink:href="#rim" fill="#404040">
                                <set attributeName="fill" to="#808080" begin="zoomplus.mouseover" end="zoomplus.mouseout"/>
                        </use>
                        <path d="M-4,0h8M0,-4v8" fill="none" stroke="white" stroke-width="1.5" pointer-events="none"/>
                </g>
                <g id="zoomMin">
                        <use xlink:href="#rim" fill="#404040">
                                <set attributeName="fill" to="#808080" begin="zoomminus.mouseover" end="zoomminus.mouseout"/>
                        </use>
                        <path d="M-4,0h8" fill="none" stroke="white" stroke-width="1.5" pointer-events="none"/>
                </g>
                <g id="dirArrow">
                        <path fill="none" stroke="white" stroke-width="1.5" d="M0,-3.0v7 M-2.5,-0.5L0,-3.0L2.5,-0.5"/>
                </g>
               <g id="resetDef">
                       <use xlink:href="#rim2" fill="#404040">
                               <set attributeName="fill" to="#808080" begin="reset.mouseover" end="reset.mouseout"/>
                       </use>
               </g>
        </defs>

<script type="text/javascript">
var viewWidth = 1495;
var viewHeight = 1075;
var sectionId = 'dynsection-1';
</script>
<script xlink:href="svgpan.js"/>
<svg id="graph" class="graph">
<g id="viewport">
<title>dpp::log_t</title>
<polygon fill="white" stroke="transparent" points="-4,4 -4,-1071.39 1491,-1071.39 1491,4 -4,4"/>
<!-- Node1 -->
<g id="node1" class="node">
<title>Node1</title>
<g id="a_node1"><a xlink:title="Log messages.">
<polygon fill="#bfbfbf" stroke="black" points="1422,-689.89 1422,-708.89 1487,-708.89 1487,-689.89 1422,-689.89"/>
<text text-anchor="middle" x="1454.5" y="-696.89" font-family="Helvetica,sans-Serif" font-size="10.00">dpp::log_t</text>
</a>
</g>
</g>
<!-- Node2 -->
<g id="node2" class="node">
<title>Node2</title>
<g id="a_node2"><a xlink:href="structdpp_1_1event__dispatch__t.html" target="_top" xlink:title="Base event parameter struct. Each event you receive from the library will have its parameter derived ...">
<polygon fill="white" stroke="black" points="1219,-689.89 1219,-708.89 1343,-708.89 1343,-689.89 1219,-689.89"/>
<text text-anchor="middle" x="1281" y="-696.89" font-family="Helvetica,sans-Serif" font-size="10.00">dpp::event_dispatch_t</text>
</a>
</g>
</g>
<!-- Node2&#45;&gt;Node1 -->
<g id="edge1" class="edge">
<title>Node2&#45;&gt;Node1</title>
<path fill="none" stroke="midnightblue" d="M1353.52,-699.39C1377.31,-699.39 1402.61,-699.39 1421.81,-699.39"/>
<polygon fill="midnightblue" stroke="midnightblue" points="1353.43,-695.89 1343.43,-699.39 1353.43,-702.89 1353.43,-695.89"/>
</g>
<!-- Node3 -->
<g id="node3" class="node">
<title>Node3</title>
<g id="a_node3"><a xlink:title=" ">
<polygon fill="white" stroke="#bfbfbf" points="212,-580.89 212,-599.89 277,-599.89 277,-580.89 212,-580.89"/>
<text text-anchor="middle" x="244.5" y="-587.89" font-family="Helvetica,sans-Serif" font-size="10.00">std::string</text>
</a>
</g>
</g>
<!-- Node3&#45;&gt;Node1 -->
<g id="edge47" class="edge">
<title>Node3&#45;&gt;Node1</title>
<path fill="none" stroke="#9a32cd" stroke-dasharray="5,2" d="M287.12,-598.09C296.08,-600.13 305.43,-602.58 314,-605.39 322.32,-608.12 323.7,-610.61 332,-613.39 384.35,-630.9 399.51,-627.77 453,-641.39 461.05,-643.43 462.92,-644.49 471,-646.39 532.69,-660.88 548.74,-661.56 611,-673.39 766.22,-702.87 802.5,-738.39 960.5,-738.39 960.5,-738.39 960.5,-738.39 1282,-738.39 1334.98,-738.39 1394.92,-720.47 1428.05,-708.93"/>
<polygon fill="#9a32cd" stroke="#9a32cd" points="287.75,-594.64 277.23,-595.94 286.26,-601.48 287.75,-594.64"/>
<text text-anchor="middle" x="961.5" y="-741.39" font-family="Helvetica,sans-Serif" font-size="10.00"> message</text>
</g>
<!-- Node3&#45;&gt;Node2 -->
<g id="edge2" class="edge">
<title>Node3&#45;&gt;Node2</title>
<path fill="none" stroke="#9a32cd" stroke-dasharray="5,2" d="M287.35,-594.86C329.33,-599.53 395.8,-607.42 453,-616.39 585.71,-637.19 616.62,-656.49 750,-672.39 919.02,-692.53 1120.12,-697.66 1218.97,-698.96"/>
<polygon fill="#9a32cd" stroke="#9a32cd" points="287.55,-591.36 277.22,-593.75 286.78,-598.32 287.55,-591.36"/>
<text text-anchor="middle" x="812.5" y="-687.39" font-family="Helvetica,sans-Serif" font-size="10.00"> raw_event</text>
</g>
<!-- Node5 -->
<g id="node5" class="node">
<title>Node5</title>
<g id="a_node5"><a xlink:href="classdpp_1_1discord__client.html" target="_top" xlink:title="Implements a discord client. Each discord_client connects to one shard and derives from a websocket c...">
<polygon fill="white" stroke="black" points="1048,-528.89 1048,-547.89 1156,-547.89 1156,-528.89 1048,-528.89"/>
<text text-anchor="middle" x="1102" y="-535.89" font-family="Helvetica,sans-Serif" font-size="10.00">dpp::discord_client</text>
</a>
</g>
</g>
<!-- Node3&#45;&gt;Node5 -->
<g id="edge41" class="edge">
<title>Node3&#45;&gt;Node5</title>
<path fill="none" stroke="#9a32cd" stroke-dasharray="5,2" d="M287.25,-588.04C404.4,-581.42 746.18,-561.88 1030,-543.39 1035.8,-543.01 1041.86,-542.6 1047.89,-542.19"/>
<polygon fill="#9a32cd" stroke="#9a32cd" points="287.05,-584.55 277.27,-588.6 287.45,-591.53 287.05,-584.55"/>
<text text-anchor="middle" x="671.5" y="-583.39" font-family="Helvetica,sans-Serif" font-size="10.00"> sessionid</text>
<text text-anchor="middle" x="671.5" y="-572.39" font-family="Helvetica,sans-Serif" font-size="10.00">token</text>
</g>
<!-- Node7 -->
<g id="node7" class="node">
<title>Node7</title>
<g id="a_node7"><a xlink:href="classdpp_1_1ssl__client.html" target="_top" xlink:title="Implements a simple non&#45;blocking SSL stream client.">
<polygon fill="white" stroke="black" points="489,-798.89 489,-817.89 575,-817.89 575,-798.89 489,-798.89"/>
<text text-anchor="middle" x="532" y="-805.89" font-family="Helvetica,sans-Serif" font-size="10.00">dpp::ssl_client</text>
</a>
</g>
</g>
<!-- Node3&#45;&gt;Node7 -->
<g id="edge7" class="edge">
<title>Node3&#45;&gt;Node7</title>
<path fill="none" stroke="#9a32cd" stroke-dasharray="5,2" d="M268.13,-605.58C285.05,-616.28 309.11,-630.1 332,-638.39 383.47,-657.01 414.02,-622.95 453,-661.39 481.42,-689.42 451.94,-714.31 471,-749.39 482.3,-770.18 503.33,-788.28 517.24,-798.78"/>
<polygon fill="#9a32cd" stroke="#9a32cd" points="269.82,-602.51 259.52,-600.02 266.02,-608.39 269.82,-602.51"/>
<text text-anchor="middle" x="392.5" y="-708.39" font-family="Helvetica,sans-Serif" font-size="10.00"> buffer</text>
<text text-anchor="middle" x="392.5" y="-697.39" font-family="Helvetica,sans-Serif" font-size="10.00">cipher</text>
<text text-anchor="middle" x="392.5" y="-686.39" font-family="Helvetica,sans-Serif" font-size="10.00">hostname</text>
<text text-anchor="middle" x="392.5" y="-675.39" font-family="Helvetica,sans-Serif" font-size="10.00">obuffer</text>
<text text-anchor="middle" x="392.5" y="-664.39" font-family="Helvetica,sans-Serif" font-size="10.00">port</text>
</g>
<!-- Node17 -->
<g id="node17" class="node">
<title>Node17</title>
<g id="a_node17"><a xlink:href="classdpp_1_1cluster.html" target="_top" xlink:title="The cluster class represents a group of shards and a command queue for sending and receiving commands...">
<polygon fill="white" stroke="black" points="775.5,-354.89 775.5,-373.89 849.5,-373.89 849.5,-354.89 775.5,-354.89"/>
<text text-anchor="middle" x="812.5" y="-361.89" font-family="Helvetica,sans-Serif" font-size="10.00">dpp::cluster</text>
</a>
</g>
</g>
<!-- Node3&#45;&gt;Node17 -->
<g id="edge19" class="edge">
<title>Node3&#45;&gt;Node17</title>
<path fill="none" stroke="#9a32cd" stroke-dasharray="5,2" d="M264.8,-574.04C302.05,-543.43 387.54,-477.55 471,-444.39 580.61,-400.83 618.72,-429.24 732,-396.39 752.58,-390.42 775.16,-381.04 790.98,-373.98"/>
<polygon fill="#9a32cd" stroke="#9a32cd" points="262.26,-571.61 256.8,-580.69 266.73,-576.99 262.26,-571.61"/>
<text text-anchor="middle" x="532" y="-447.39" font-family="Helvetica,sans-Serif" font-size="10.00"> token</text>
</g>
<!-- Node20 -->
<g id="node20" class="node">
<title>Node20</title>
<g id="a_node20"><a xlink:href="classdpp_1_1user.html" target="_top" xlink:title="Represents a user on discord. May or may not be a member of a dpp::guild.">
<polygon fill="white" stroke="black" points="501,-282.89 501,-301.89 563,-301.89 563,-282.89 501,-282.89"/>
<text text-anchor="middle" x="532" y="-289.89" font-family="Helvetica,sans-Serif" font-size="10.00">dpp::user</text>
</a>
</g>
</g>
<!-- Node3&#45;&gt;Node20 -->
<g id="edge27" class="edge">
<title>Node3&#45;&gt;Node20</title>
<path fill="none" stroke="#9a32cd" stroke-dasharray="5,2" d="M253.91,-571.4C267.3,-540.88 293.99,-478.93 314,-425.39 322.86,-401.69 312.82,-387.89 332,-371.39 373.38,-335.79 404.9,-376.18 453,-350.39 463.25,-344.89 462.06,-338.83 471,-331.39 484.56,-320.1 501.53,-309.33 513.97,-301.98"/>
<polygon fill="#9a32cd" stroke="#9a32cd" points="250.59,-570.25 249.76,-580.81 256.99,-573.07 250.59,-570.25"/>
<text text-anchor="middle" x="392.5" y="-374.39" font-family="Helvetica,sans-Serif" font-size="10.00"> username</text>
</g>
<!-- Node4 -->
<g id="node4" class="node">
<title>Node4</title>
<g id="a_node4"><a xlink:title=" ">
<polygon fill="white" stroke="#bfbfbf" points="0,-575.39 0,-605.39 104,-605.39 104,-575.39 0,-575.39"/>
<text text-anchor="start" x="8" y="-593.39" font-family="Helvetica,sans-Serif" font-size="10.00">std::basic_string&lt;</text>
<text text-anchor="middle" x="52" y="-582.39" font-family="Helvetica,sans-Serif" font-size="10.00"> Char &gt;</text>
</a>
</g>
</g>
<!-- Node4&#45;&gt;Node3 -->
<g id="edge3" class="edge">
<title>Node4&#45;&gt;Node3</title>
<path fill="none" stroke="midnightblue" d="M114.35,-590.39C146.8,-590.39 185.28,-590.39 211.75,-590.39"/>
<polygon fill="midnightblue" stroke="midnightblue" points="114.05,-586.89 104.05,-590.39 114.05,-593.89 114.05,-586.89"/>
</g>
<!-- Node5&#45;&gt;Node2 -->
<g id="edge4" class="edge">
<title>Node5&#45;&gt;Node2</title>
<path fill="none" stroke="#9a32cd" stroke-dasharray="5,2" d="M1113.28,-557.01C1130.94,-587.32 1169.94,-647.26 1219,-680.39 1224.7,-684.24 1231.22,-687.33 1237.82,-689.82"/>
<polygon fill="#9a32cd" stroke="#9a32cd" points="1116.11,-554.91 1108.12,-547.95 1110.02,-558.37 1116.11,-554.91"/>
<text text-anchor="middle" x="1187.5" y="-668.39" font-family="Helvetica,sans-Serif" font-size="10.00"> from</text>
</g>
<!-- Node6 -->
<g id="node6" class="node">
<title>Node6</title>
<g id="a_node6"><a xlink:href="classdpp_1_1websocket__client.html" target="_top" xlink:title="Implements a websocket client based on the SSL client.">
<polygon fill="white" stroke="black" points="750,-643.89 750,-662.89 875,-662.89 875,-643.89 750,-643.89"/>
<text text-anchor="middle" x="812.5" y="-650.89" font-family="Helvetica,sans-Serif" font-size="10.00">dpp::websocket_client</text>
</a>
</g>
</g>
<!-- Node6&#45;&gt;Node5 -->
<g id="edge5" class="edge">
<title>Node6&#45;&gt;Node5</title>
<path fill="none" stroke="midnightblue" d="M885.39,-660.5C929.73,-661.6 986.28,-656.86 1030,-632.39 1065.16,-612.71 1088.25,-567.65 1097.03,-547.93"/>
<polygon fill="midnightblue" stroke="midnightblue" points="885.38,-657 875.27,-660.14 885.14,-663.99 885.38,-657"/>
</g>
<!-- Node7&#45;&gt;Node6 -->
<g id="edge6" class="edge">
<title>Node7&#45;&gt;Node6</title>
<path fill="none" stroke="midnightblue" d="M555.41,-793.09C594,-767.15 675.99,-713.83 750,-677.39 760.9,-672.02 773.32,-666.98 784.13,-662.92"/>
<polygon fill="midnightblue" stroke="midnightblue" points="553.32,-790.27 547,-798.77 557.24,-796.08 553.32,-790.27"/>
</g>
<!-- Node8 -->
<g id="node8" class="node">
<title>Node8</title>
<g id="a_node8"><a xlink:title=" ">
<polygon fill="white" stroke="#bfbfbf" points="225.5,-953.89 225.5,-972.89 263.5,-972.89 263.5,-953.89 225.5,-953.89"/>
<text text-anchor="middle" x="244.5" y="-960.89" font-family="Helvetica,sans-Serif" font-size="10.00">bool</text>
</a>
</g>
</g>
<!-- Node8&#45;&gt;Node5 -->
<g id="edge17" class="edge">
<title>Node8&#45;&gt;Node5</title>
<path fill="none" stroke="#9a32cd" stroke-dasharray="5,2" d="M271.51,-977.8C288.23,-986.22 310.73,-996.03 332,-1000.39 445.64,-1023.67 480.82,-1029.9 593,-1000.39 808.76,-943.63 888.39,-925.78 1030,-753.39 1083.64,-688.08 1097.26,-580.82 1100.25,-548.14"/>
<polygon fill="#9a32cd" stroke="#9a32cd" points="272.87,-974.56 262.39,-973.05 269.64,-980.77 272.87,-974.56"/>
<text text-anchor="middle" x="671.5" y="-1008.39" font-family="Helvetica,sans-Serif" font-size="10.00"> ready</text>
<text text-anchor="middle" x="671.5" y="-997.39" font-family="Helvetica,sans-Serif" font-size="10.00">terminating</text>
</g>
<!-- Node8&#45;&gt;Node7 -->
<g id="edge8" class="edge">
<title>Node8&#45;&gt;Node7</title>
<path fill="none" stroke="#9a32cd" stroke-dasharray="5,2" d="M271.7,-948.82C288.49,-940.02 311,-929.24 332,-922.39 384.04,-905.42 405.63,-926.82 453,-899.39 488.11,-879.05 514.99,-836.9 525.81,-817.96"/>
<polygon fill="#9a32cd" stroke="#9a32cd" points="269.7,-945.92 262.52,-953.72 272.99,-952.09 269.7,-945.92"/>
<text text-anchor="middle" x="392.5" y="-958.39" font-family="Helvetica,sans-Serif" font-size="10.00"> keepalive</text>
<text text-anchor="middle" x="392.5" y="-947.39" font-family="Helvetica,sans-Serif" font-size="10.00">make_new</text>
<text text-anchor="middle" x="392.5" y="-936.39" font-family="Helvetica,sans-Serif" font-size="10.00">nonblocking</text>
<text text-anchor="middle" x="392.5" y="-925.39" font-family="Helvetica,sans-Serif" font-size="10.00">plaintext</text>
</g>
<!-- Node9 -->
<g id="node9" class="node">
<title>Node9</title>
<g id="a_node9"><a xlink:title=" ">
<polygon fill="white" stroke="#bfbfbf" points="230,-798.89 230,-817.89 259,-817.89 259,-798.89 230,-798.89"/>
<text text-anchor="middle" x="244.5" y="-805.89" font-family="Helvetica,sans-Serif" font-size="10.00">int</text>
</a>
</g>
</g>
<!-- Node9&#45;&gt;Node7 -->
<g id="edge9" class="edge">
<title>Node9&#45;&gt;Node7</title>
<path fill="none" stroke="#9a32cd" stroke-dasharray="5,2" d="M269.41,-808.39C317.85,-808.39 428.1,-808.39 488.87,-808.39"/>
<polygon fill="#9a32cd" stroke="#9a32cd" points="269.27,-804.89 259.27,-808.39 269.27,-811.89 269.27,-804.89"/>
<text text-anchor="middle" x="392.5" y="-811.39" font-family="Helvetica,sans-Serif" font-size="10.00"> sfd</text>
</g>
<!-- Node10 -->
<g id="node10" class="node">
<title>Node10</title>
<g id="a_node10"><a xlink:href="classdpp_1_1opensslcontext.html" target="_top" xlink:title="This is an opaque class containing openssl library specific structures. We define it this way so that...">
<polygon fill="white" stroke="black" points="187,-877.89 187,-896.89 302,-896.89 302,-877.89 187,-877.89"/>
<text text-anchor="middle" x="244.5" y="-884.89" font-family="Helvetica,sans-Serif" font-size="10.00">dpp::opensslcontext</text>
</a>
</g>
</g>
<!-- Node10&#45;&gt;Node7 -->
<g id="edge10" class="edge">
<title>Node10&#45;&gt;Node7</title>
<path fill="none" stroke="#9a32cd" stroke-dasharray="5,2" d="M312.33,-887.46C353.99,-885.55 408.03,-879.45 453,-862.39 480.1,-852.1 506.81,-830.44 520.85,-817.9"/>
<polygon fill="#9a32cd" stroke="#9a32cd" points="312.15,-883.96 302.29,-887.85 312.42,-890.96 312.15,-883.96"/>
<text text-anchor="middle" x="392.5" y="-889.39" font-family="Helvetica,sans-Serif" font-size="10.00"> ssl</text>
</g>
<!-- Node11 -->
<g id="node11" class="node">
<title>Node11</title>
<g id="a_node11"><a xlink:title=" ">
<polygon fill="white" stroke="#bfbfbf" points="31,-858.89 31,-877.89 73,-877.89 73,-858.89 31,-858.89"/>
<text text-anchor="middle" x="52" y="-865.89" font-family="Helvetica,sans-Serif" font-size="10.00">SSL *</text>
</a>
</g>
</g>
<!-- Node11&#45;&gt;Node10 -->
<g id="edge11" class="edge">
<title>Node11&#45;&gt;Node10</title>
<path fill="none" stroke="#9a32cd" stroke-dasharray="5,2" d="M83.51,-868.95C104.28,-869.56 132.35,-870.81 157,-873.39 167.89,-874.53 179.5,-876.13 190.56,-877.85"/>
<polygon fill="#9a32cd" stroke="#9a32cd" points="83.47,-865.45 73.38,-868.69 83.28,-872.45 83.47,-865.45"/>
<text text-anchor="middle" x="139.5" y="-876.39" font-family="Helvetica,sans-Serif" font-size="10.00"> ssl</text>
</g>
<!-- Node12 -->
<g id="node12" class="node">
<title>Node12</title>
<g id="a_node12"><a xlink:title=" ">
<polygon fill="white" stroke="#bfbfbf" points="18.5,-896.89 18.5,-915.89 85.5,-915.89 85.5,-896.89 18.5,-896.89"/>
<text text-anchor="middle" x="52" y="-903.89" font-family="Helvetica,sans-Serif" font-size="10.00">SSL_CTX *</text>
</a>
</g>
</g>
<!-- Node12&#45;&gt;Node10 -->
<g id="edge12" class="edge">
<title>Node12&#45;&gt;Node10</title>
<path fill="none" stroke="#9a32cd" stroke-dasharray="5,2" d="M96,-902.1C122.89,-899.42 157.83,-895.93 186.95,-893.03"/>
<polygon fill="#9a32cd" stroke="#9a32cd" points="95.35,-898.65 85.75,-903.12 96.05,-905.61 95.35,-898.65"/>
<text text-anchor="middle" x="139.5" y="-902.39" font-family="Helvetica,sans-Serif" font-size="10.00"> ctx</text>
</g>
<!-- Node13 -->
<g id="node13" class="node">
<title>Node13</title>
<g id="a_node13"><a xlink:title=" ">
<polygon fill="white" stroke="#bfbfbf" points="220.5,-1029.89 220.5,-1048.89 268.5,-1048.89 268.5,-1029.89 220.5,-1029.89"/>
<text text-anchor="middle" x="244.5" y="-1036.89" font-family="Helvetica,sans-Serif" font-size="10.00">time_t</text>
</a>
</g>
</g>
<!-- Node13&#45;&gt;Node5 -->
<g id="edge38" class="edge">
<title>Node13&#45;&gt;Node5</title>
<path fill="none" stroke="#9a32cd" stroke-dasharray="5,2" d="M278.55,-1044.59C294.63,-1046.86 314.28,-1049.26 332,-1050.39 385.67,-1053.79 399.3,-1053.27 453,-1050.39 577.54,-1043.71 613.08,-1057.95 732,-1020.39 801.24,-998.52 813.27,-979.61 875,-941.39 946.17,-897.32 982.66,-903.43 1030,-834.39 1096.04,-738.06 1100.97,-587.45 1101.08,-548.07"/>
<polygon fill="#9a32cd" stroke="#9a32cd" points="278.96,-1041.11 268.55,-1043.12 277.94,-1048.03 278.96,-1041.11"/>
<text text-anchor="middle" x="671.5" y="-1059.39" font-family="Helvetica,sans-Serif" font-size="10.00"> last_heartbeat</text>
<text text-anchor="middle" x="671.5" y="-1048.39" font-family="Helvetica,sans-Serif" font-size="10.00">last_heartbeat_ack</text>
</g>
<!-- Node13&#45;&gt;Node7 -->
<g id="edge13" class="edge">
<title>Node13&#45;&gt;Node7</title>
<path fill="none" stroke="#9a32cd" stroke-dasharray="5,2" d="M278.43,-1029.68C333.83,-1013.08 440.89,-979.73 453,-966.39 475.46,-941.65 457.12,-923.79 471,-893.39 484.65,-863.48 509.22,-833.14 522.28,-818.09"/>
<polygon fill="#9a32cd" stroke="#9a32cd" points="277.3,-1026.37 268.72,-1032.58 279.3,-1033.08 277.3,-1026.37"/>
<text text-anchor="middle" x="392.5" y="-1014.39" font-family="Helvetica,sans-Serif" font-size="10.00"> last_tick</text>
</g>
<!-- Node13&#45;&gt;Node17 -->
<g id="edge20" class="edge">
<title>Node13&#45;&gt;Node17</title>
<path fill="none" stroke="#9a32cd" stroke-dasharray="5,2" d="M278.76,-1045.45C321.92,-1051.54 398.17,-1056.16 453,-1025.39 546.99,-972.65 556.98,-928.97 593,-827.39 613.25,-770.29 579.49,-607.12 611,-555.39 643.67,-501.74 694.83,-533.01 732,-482.39 752.03,-455.1 731.05,-436.43 750,-408.39 760.29,-393.16 777.72,-381.43 791.4,-373.92"/>
<polygon fill="#9a32cd" stroke="#9a32cd" points="279.2,-1041.97 268.79,-1043.93 278.15,-1048.89 279.2,-1041.97"/>
<text text-anchor="middle" x="532" y="-1015.39" font-family="Helvetica,sans-Serif" font-size="10.00"> last_identify</text>
</g>
<!-- Node14 -->
<g id="node14" class="node">
<title>Node14</title>
<g id="a_node14"><a xlink:title=" ">
<polygon fill="white" stroke="#bfbfbf" points="24,-477.89 24,-496.89 80,-496.89 80,-477.89 24,-477.89"/>
<text text-anchor="middle" x="52" y="-484.89" font-family="Helvetica,sans-Serif" font-size="10.00">uint64_t</text>
</a>
</g>
</g>
<!-- Node14&#45;&gt;Node5 -->
<g id="edge40" class="edge">
<title>Node14&#45;&gt;Node5</title>
<path fill="none" stroke="#9a32cd" stroke-dasharray="5,2" d="M89.98,-492.62C193.27,-506.05 492.97,-536.88 732,-480.39 740.35,-478.41 741.56,-474.97 750,-473.39 804.6,-463.14 819.55,-470 875,-473.39 944.28,-477.62 964.77,-468.69 1030,-492.39 1053.19,-500.81 1076.52,-517.99 1089.82,-528.8"/>
<polygon fill="#9a32cd" stroke="#9a32cd" points="90.42,-489.15 80.04,-491.3 89.49,-496.09 90.42,-489.15"/>
<text text-anchor="middle" x="532" y="-515.39" font-family="Helvetica,sans-Serif" font-size="10.00"> last_seq</text>
</g>
<!-- Node14&#45;&gt;Node7 -->
<g id="edge14" class="edge">
<title>Node14&#45;&gt;Node7</title>
<path fill="none" stroke="#9a32cd" stroke-dasharray="5,2" d="M68.34,-504.66C90.62,-529.27 133.76,-575.22 175,-609.39 240.03,-663.26 257.84,-676.01 332,-716.39 383.26,-744.29 400.23,-742.45 453,-767.39 474.3,-777.45 498.2,-790.24 513.86,-798.84"/>
<polygon fill="#9a32cd" stroke="#9a32cd" points="70.91,-502.28 61.62,-497.18 65.7,-506.96 70.91,-502.28"/>
<text text-anchor="middle" x="244.5" y="-720.39" font-family="Helvetica,sans-Serif" font-size="10.00"> bytes_in</text>
<text text-anchor="middle" x="244.5" y="-709.39" font-family="Helvetica,sans-Serif" font-size="10.00">bytes_out</text>
</g>
<!-- Node21 -->
<g id="node21" class="node">
<title>Node21</title>
<g id="a_node21"><a xlink:href="classdpp_1_1managed.html" target="_top" xlink:title="The managed class is the base class for various types that can be stored in a cache that are identifi...">
<polygon fill="white" stroke="black" points="201.5,-320.89 201.5,-339.89 287.5,-339.89 287.5,-320.89 201.5,-320.89"/>
<text text-anchor="middle" x="244.5" y="-327.89" font-family="Helvetica,sans-Serif" font-size="10.00">dpp::managed</text>
</a>
</g>
</g>
<!-- Node14&#45;&gt;Node21 -->
<g id="edge25" class="edge">
<title>Node14&#45;&gt;Node21</title>
<path fill="none" stroke="#9a32cd" stroke-dasharray="5,2" d="M62.25,-468.8C73.95,-446.6 95.76,-409.23 122,-383.39 141.94,-363.75 149.45,-360.81 175,-349.39 183.34,-345.66 192.58,-342.5 201.5,-339.89"/>
<polygon fill="#9a32cd" stroke="#9a32cd" points="59.06,-467.34 57.61,-477.84 65.29,-470.54 59.06,-467.34"/>
<text text-anchor="middle" x="139.5" y="-386.39" font-family="Helvetica,sans-Serif" font-size="10.00"> id</text>
</g>
<!-- Node23 -->
<g id="node23" class="node">
<title>Node23</title>
<g id="a_node23"><a xlink:href="structdpp_1_1utility_1_1iconhash.html" target="_top" xlink:title="Store a 128 bit icon hash (profile picture, server icon etc) as a 128 bit binary value made of two ui...">
<polygon fill="white" stroke="black" points="185.5,-358.89 185.5,-377.89 303.5,-377.89 303.5,-358.89 185.5,-358.89"/>
<text text-anchor="middle" x="244.5" y="-365.89" font-family="Helvetica,sans-Serif" font-size="10.00">dpp::utility::iconhash</text>
</a>
</g>
</g>
<!-- Node14&#45;&gt;Node23 -->
<g id="edge29" class="edge">
<title>Node14&#45;&gt;Node23</title>
<path fill="none" stroke="#9a32cd" stroke-dasharray="5,2" d="M68.97,-470.49C90.85,-448.28 132.35,-409.52 175,-387.39 182.34,-383.58 190.53,-380.46 198.62,-377.94"/>
<polygon fill="#9a32cd" stroke="#9a32cd" points="66.27,-468.24 61.82,-477.86 71.3,-473.11 66.27,-468.24"/>
<text text-anchor="middle" x="139.5" y="-435.39" font-family="Helvetica,sans-Serif" font-size="10.00"> first</text>
<text text-anchor="middle" x="139.5" y="-424.39" font-family="Helvetica,sans-Serif" font-size="10.00">second</text>
</g>
<!-- Node15 -->
<g id="node15" class="node">
<title>Node15</title>
<g id="a_node15"><a xlink:title=" ">
<polygon fill="white" stroke="#bfbfbf" points="175,-760.89 175,-779.89 314,-779.89 314,-760.89 175,-760.89"/>
<text text-anchor="middle" x="244.5" y="-767.89" font-family="Helvetica,sans-Serif" font-size="10.00">function&lt; dpp::socket()&gt;</text>
</a>
</g>
</g>
<!-- Node15&#45;&gt;Node7 -->
<g id="edge15" class="edge">
<title>Node15&#45;&gt;Node7</title>
<path fill="none" stroke="#9a32cd" stroke-dasharray="5,2" d="M324.52,-770.08C363.5,-771.16 411.04,-774.33 453,-782.39 471.78,-785.99 492.27,-792.95 507.54,-798.76"/>
<polygon fill="#9a32cd" stroke="#9a32cd" points="324.36,-766.57 314.28,-769.83 324.2,-773.57 324.36,-766.57"/>
<text text-anchor="middle" x="392.5" y="-796.39" font-family="Helvetica,sans-Serif" font-size="10.00"> custom_readable_fd</text>
<text text-anchor="middle" x="392.5" y="-785.39" font-family="Helvetica,sans-Serif" font-size="10.00">custom_writeable_fd</text>
</g>
<!-- Node16 -->
<g id="node16" class="node">
<title>Node16</title>
<g id="a_node16"><a xlink:title=" ">
<polygon fill="white" stroke="#bfbfbf" points="192.5,-836.89 192.5,-855.89 296.5,-855.89 296.5,-836.89 192.5,-836.89"/>
<text text-anchor="middle" x="244.5" y="-843.89" font-family="Helvetica,sans-Serif" font-size="10.00">function&lt; void()&gt;</text>
</a>
</g>
</g>
<!-- Node16&#45;&gt;Node7 -->
<g id="edge16" class="edge">
<title>Node16&#45;&gt;Node7</title>
<path fill="none" stroke="#9a32cd" stroke-dasharray="5,2" d="M306.9,-839.15C348.23,-834.17 403.94,-827.23 453,-820.39 464.67,-818.76 477.3,-816.87 488.93,-815.08"/>
<polygon fill="#9a32cd" stroke="#9a32cd" points="306.23,-835.71 296.72,-840.37 307.06,-842.66 306.23,-835.71"/>
<text text-anchor="middle" x="392.5" y="-850.39" font-family="Helvetica,sans-Serif" font-size="10.00"> custom_readable_ready</text>
<text text-anchor="middle" x="392.5" y="-839.39" font-family="Helvetica,sans-Serif" font-size="10.00">custom_writeable_ready</text>
</g>
<!-- Node17&#45;&gt;Node5 -->
<g id="edge18" class="edge">
<title>Node17&#45;&gt;Node5</title>
<path fill="none" stroke="#9a32cd" stroke-dasharray="5,2" d="M859.76,-356.46C906.97,-351 980.2,-350.09 1030,-385.39 1080.17,-420.94 1095.81,-501.12 1099.81,-528.79"/>
<polygon fill="#9a32cd" stroke="#9a32cd" points="859.29,-352.99 849.81,-357.72 860.17,-359.93 859.29,-352.99"/>
<text text-anchor="middle" x="961.5" y="-388.39" font-family="Helvetica,sans-Serif" font-size="10.00"> creator</text>
</g>
<!-- Node18 -->
<g id="node18" class="node">
<title>Node18</title>
<g id="a_node18"><a xlink:title=" ">
<polygon fill="white" stroke="#bfbfbf" points="216.5,-129.89 216.5,-148.89 272.5,-148.89 272.5,-129.89 216.5,-129.89"/>
<text text-anchor="middle" x="244.5" y="-136.89" font-family="Helvetica,sans-Serif" font-size="10.00">uint32_t</text>
</a>
</g>
</g>
<!-- Node18&#45;&gt;Node5 -->
<g id="edge37" class="edge">
<title>Node18&#45;&gt;Node5</title>
<path fill="none" stroke="#9a32cd" stroke-dasharray="5,2" d="M272.84,-125.22C348.67,-87.96 566.98,5.49 732,-61.39 902.99,-130.68 928.75,-196.15 1030,-350.39 1070.4,-411.93 1092.44,-499.74 1098.93,-528.71"/>
<polygon fill="#9a32cd" stroke="#9a32cd" points="270.88,-122.29 263.5,-129.88 274.01,-128.55 270.88,-122.29"/>
<text text-anchor="middle" x="671.5" y="-119.39" font-family="Helvetica,sans-Serif" font-size="10.00"> heartbeat_interval</text>
<text text-anchor="middle" x="671.5" y="-108.39" font-family="Helvetica,sans-Serif" font-size="10.00">intents</text>
<text text-anchor="middle" x="671.5" y="-97.39" font-family="Helvetica,sans-Serif" font-size="10.00">max_shards</text>
<text text-anchor="middle" x="671.5" y="-86.39" font-family="Helvetica,sans-Serif" font-size="10.00">reconnects</text>
<text text-anchor="middle" x="671.5" y="-75.39" font-family="Helvetica,sans-Serif" font-size="10.00">resumes</text>
<text text-anchor="middle" x="671.5" y="-64.39" font-family="Helvetica,sans-Serif" font-size="10.00">shard_id</text>
</g>
<!-- Node18&#45;&gt;Node17 -->
<g id="edge21" class="edge">
<title>Node18&#45;&gt;Node17</title>
<path fill="none" stroke="#9a32cd" stroke-dasharray="5,2" d="M282.81,-135.93C384.19,-127.32 661.85,-109.27 732,-162.39 796.9,-211.53 808.88,-321.55 811.04,-354.73"/>
<polygon fill="#9a32cd" stroke="#9a32cd" points="282.38,-132.45 272.72,-136.8 282.99,-139.42 282.38,-132.45"/>
<text text-anchor="middle" x="532" y="-165.39" font-family="Helvetica,sans-Serif" font-size="10.00"> cluster_id</text>
<text text-anchor="middle" x="532" y="-154.39" font-family="Helvetica,sans-Serif" font-size="10.00">intents</text>
<text text-anchor="middle" x="532" y="-143.39" font-family="Helvetica,sans-Serif" font-size="10.00">maxclusters</text>
<text text-anchor="middle" x="532" y="-132.39" font-family="Helvetica,sans-Serif" font-size="10.00">numshards</text>
</g>
<!-- Node18&#45;&gt;Node20 -->
<g id="edge30" class="edge">
<title>Node18&#45;&gt;Node20</title>
<path fill="none" stroke="#9a32cd" stroke-dasharray="5,2" d="M282.57,-145.91C334.84,-155.72 426.77,-175.35 453,-196.39 466.34,-207.08 460.96,-216.55 471,-230.39 485.78,-250.75 507,-271.09 519.85,-282.66"/>
<polygon fill="#9a32cd" stroke="#9a32cd" points="283.15,-142.46 272.68,-144.09 281.87,-149.34 283.15,-142.46"/>
<text text-anchor="middle" x="392.5" y="-199.39" font-family="Helvetica,sans-Serif" font-size="10.00"> flags</text>
</g>
<!-- Node19 -->
<g id="node19" class="node">
<title>Node19</title>
<g id="a_node19"><a xlink:title=" ">
<polygon fill="white" stroke="#bfbfbf" points="507,-378.89 507,-397.89 557,-397.89 557,-378.89 507,-378.89"/>
<text text-anchor="middle" x="532" y="-385.89" font-family="Helvetica,sans-Serif" font-size="10.00">double</text>
</a>
</g>
</g>
<!-- Node19&#45;&gt;Node5 -->
<g id="edge43" class="edge">
<title>Node19&#45;&gt;Node5</title>
<path fill="none" stroke="#9a32cd" stroke-dasharray="5,2" d="M567.34,-391.93C679.63,-403.54 1028.74,-439.66 1030,-440.39 1066.02,-461.2 1088.79,-508.44 1097.26,-528.78"/>
<polygon fill="#9a32cd" stroke="#9a32cd" points="567.54,-388.44 557.24,-390.89 566.83,-395.4 567.54,-388.44"/>
<text text-anchor="middle" x="812.5" y="-426.39" font-family="Helvetica,sans-Serif" font-size="10.00"> websocket_ping</text>
</g>
<!-- Node19&#45;&gt;Node17 -->
<g id="edge22" class="edge">
<title>Node19&#45;&gt;Node17</title>
<path fill="none" stroke="#9a32cd" stroke-dasharray="5,2" d="M567.47,-385.42C620.47,-380.85 721.49,-372.14 775.44,-367.49"/>
<polygon fill="#9a32cd" stroke="#9a32cd" points="566.89,-381.95 557.23,-386.3 567.49,-388.93 566.89,-381.95"/>
<text text-anchor="middle" x="671.5" y="-384.39" font-family="Helvetica,sans-Serif" font-size="10.00"> rest_ping</text>
</g>
<!-- Node20&#45;&gt;Node17 -->
<g id="edge23" class="edge">
<title>Node20&#45;&gt;Node17</title>
<path fill="none" stroke="#9a32cd" stroke-dasharray="5,2" d="M573.08,-298.6C613.62,-305.36 677.86,-317.38 732,-333.39 752.03,-339.31 774.11,-348.11 789.91,-354.83"/>
<polygon fill="#9a32cd" stroke="#9a32cd" points="573.49,-295.12 563.06,-296.96 572.36,-302.03 573.49,-295.12"/>
<text text-anchor="middle" x="671.5" y="-336.39" font-family="Helvetica,sans-Serif" font-size="10.00"> me</text>
</g>
<!-- Node21&#45;&gt;Node20 -->
<g id="edge24" class="edge">
<title>Node21&#45;&gt;Node20</title>
<path fill="none" stroke="midnightblue" d="M297.59,-323.45C357.16,-315.53 452.66,-302.81 500.95,-296.39"/>
<polygon fill="midnightblue" stroke="midnightblue" points="297.08,-319.99 287.63,-324.78 298,-326.93 297.08,-319.99"/>
</g>
<!-- Node22 -->
<g id="node22" class="node">
<title>Node22</title>
<g id="a_node22"><a xlink:href="structdpp_1_1json__interface.html" target="_top" xlink:title=" ">
<polygon fill="white" stroke="black" points="189.5,-271.39 189.5,-301.39 299.5,-301.39 299.5,-271.39 189.5,-271.39"/>
<text text-anchor="start" x="197.5" y="-289.39" font-family="Helvetica,sans-Serif" font-size="10.00">dpp::json_interface</text>
<text text-anchor="middle" x="244.5" y="-278.39" font-family="Helvetica,sans-Serif" font-size="10.00">&lt; user &gt;</text>
</a>
</g>
</g>
<!-- Node22&#45;&gt;Node20 -->
<g id="edge26" class="edge">
<title>Node22&#45;&gt;Node20</title>
<path fill="none" stroke="midnightblue" d="M309.62,-287.73C369.32,-288.99 455.7,-290.8 500.88,-291.75"/>
<polygon fill="midnightblue" stroke="midnightblue" points="309.61,-284.23 299.54,-287.52 309.46,-291.23 309.61,-284.23"/>
</g>
<!-- Node23&#45;&gt;Node20 -->
<g id="edge28" class="edge">
<title>Node23&#45;&gt;Node20</title>
<path fill="none" stroke="#9a32cd" stroke-dasharray="5,2" d="M295.89,-355.88C302.07,-353.92 308.23,-351.75 314,-349.39 322.47,-345.92 323.4,-342.5 332,-339.39 383.47,-320.75 399.87,-329.57 453,-316.39 469.64,-312.26 487.97,-306.67 502.69,-301.93"/>
<polygon fill="#9a32cd" stroke="#9a32cd" points="294.8,-352.56 286.24,-358.79 296.82,-359.26 294.8,-352.56"/>
<text text-anchor="middle" x="392.5" y="-342.39" font-family="Helvetica,sans-Serif" font-size="10.00"> avatar</text>
</g>
<!-- Node24 -->
<g id="node24" class="node">
<title>Node24</title>
<g id="a_node24"><a xlink:title=" ">
<polygon fill="white" stroke="#bfbfbf" points="216.5,-232.89 216.5,-251.89 272.5,-251.89 272.5,-232.89 216.5,-232.89"/>
<text text-anchor="middle" x="244.5" y="-239.89" font-family="Helvetica,sans-Serif" font-size="10.00">uint16_t</text>
</a>
</g>
</g>
<!-- Node24&#45;&gt;Node20 -->
<g id="edge31" class="edge">
<title>Node24&#45;&gt;Node20</title>
<path fill="none" stroke="#9a32cd" stroke-dasharray="5,2" d="M282.8,-246.92C324.47,-252.23 393.85,-261.79 453,-273.39 468.87,-276.5 486.37,-280.69 500.77,-284.35"/>
<polygon fill="#9a32cd" stroke="#9a32cd" points="283.19,-243.44 272.83,-245.67 282.31,-250.39 283.19,-243.44"/>
<text text-anchor="middle" x="392.5" y="-276.39" font-family="Helvetica,sans-Serif" font-size="10.00"> discriminator</text>
</g>
<!-- Node25 -->
<g id="node25" class="node">
<title>Node25</title>
<g id="a_node25"><a xlink:title=" ">
<polygon fill="white" stroke="#bfbfbf" points="219.5,-194.89 219.5,-213.89 269.5,-213.89 269.5,-194.89 219.5,-194.89"/>
<text text-anchor="middle" x="244.5" y="-201.89" font-family="Helvetica,sans-Serif" font-size="10.00">uint8_t</text>
</a>
</g>
</g>
<!-- Node25&#45;&gt;Node20 -->
<g id="edge32" class="edge">
<title>Node25&#45;&gt;Node20</title>
<path fill="none" stroke="#9a32cd" stroke-dasharray="5,2" d="M279.76,-205.7C321.92,-208.31 395.03,-216.1 453,-239.39 479.43,-250.01 505.97,-270.67 520.25,-282.83"/>
<polygon fill="#9a32cd" stroke="#9a32cd" points="279.91,-202.2 269.74,-205.14 279.53,-209.19 279.91,-202.2"/>
<text text-anchor="middle" x="392.5" y="-242.39" font-family="Helvetica,sans-Serif" font-size="10.00"> refcount</text>
</g>
<!-- Node26 -->
<g id="node26" class="node">
<title>Node26</title>
<g id="a_node26"><a xlink:href="structdpp_1_1cache__policy__t.html" target="_top" xlink:title="Represents the caching policy of the cluster.">
<polygon fill="white" stroke="black" points="475.5,-340.89 475.5,-359.89 588.5,-359.89 588.5,-340.89 475.5,-340.89"/>
<text text-anchor="middle" x="532" y="-347.89" font-family="Helvetica,sans-Serif" font-size="10.00">dpp::cache_policy_t</text>
</a>
</g>
</g>
<!-- Node26&#45;&gt;Node17 -->
<g id="edge33" class="edge">
<title>Node26&#45;&gt;Node17</title>
<path fill="none" stroke="#9a32cd" stroke-dasharray="5,2" d="M598.98,-348.13C637.78,-347.44 687.75,-347.68 732,-351.39 746.22,-352.58 761.72,-354.88 775.24,-357.23"/>
<polygon fill="#9a32cd" stroke="#9a32cd" points="598.79,-344.63 588.86,-348.33 598.93,-351.63 598.79,-344.63"/>
<text text-anchor="middle" x="671.5" y="-354.39" font-family="Helvetica,sans-Serif" font-size="10.00"> cache_policy</text>
</g>
<!-- Node27 -->
<g id="node27" class="node">
<title>Node27</title>
<g id="a_node27"><a xlink:title=" ">
<polygon fill="white" stroke="#bfbfbf" points="180.5,-396.89 180.5,-415.89 308.5,-415.89 308.5,-396.89 180.5,-396.89"/>
<text text-anchor="middle" x="244.5" y="-403.89" font-family="Helvetica,sans-Serif" font-size="10.00">cache_policy_setting_t</text>
</a>
</g>
</g>
<!-- Node27&#45;&gt;Node26 -->
<g id="edge34" class="edge">
<title>Node27&#45;&gt;Node26</title>
<path fill="none" stroke="#9a32cd" stroke-dasharray="5,2" d="M318.73,-403.11C368.49,-400.04 429.39,-394.37 453,-384.39 462.59,-380.33 461.86,-374.39 471,-369.39 477.81,-365.66 485.45,-362.54 492.95,-359.98"/>
<polygon fill="#9a32cd" stroke="#9a32cd" points="318.4,-399.63 308.62,-403.71 318.81,-406.61 318.4,-399.63"/>
<text text-anchor="middle" x="392.5" y="-427.39" font-family="Helvetica,sans-Serif" font-size="10.00"> emoji_policy</text>
<text text-anchor="middle" x="392.5" y="-416.39" font-family="Helvetica,sans-Serif" font-size="10.00">role_policy</text>
<text text-anchor="middle" x="392.5" y="-405.39" font-family="Helvetica,sans-Serif" font-size="10.00">user_policy</text>
</g>
<!-- Node28 -->
<g id="node28" class="node">
<title>Node28</title>
<g id="a_node28"><a xlink:title=" ">
<polygon fill="white" stroke="#bfbfbf" points="471,-464.89 471,-483.89 593,-483.89 593,-464.89 471,-464.89"/>
<text text-anchor="middle" x="532" y="-471.89" font-family="Helvetica,sans-Serif" font-size="10.00">websocket_protocol_t</text>
</a>
</g>
</g>
<!-- Node28&#45;&gt;Node5 -->
<g id="edge44" class="edge">
<title>Node28&#45;&gt;Node5</title>
<path fill="none" stroke="#9a32cd" stroke-dasharray="5,2" d="M592.24,-485.77C635.75,-493.83 696.38,-504.39 750,-511.39 813.28,-519.65 829.38,-519.35 893,-524.39 945.68,-528.55 1005.92,-532.52 1047.97,-535.16"/>
<polygon fill="#9a32cd" stroke="#9a32cd" points="592.86,-482.33 582.39,-483.94 591.58,-489.21 592.86,-482.33"/>
<text text-anchor="middle" x="812.5" y="-526.39" font-family="Helvetica,sans-Serif" font-size="10.00"> protocol</text>
</g>
<!-- Node28&#45;&gt;Node17 -->
<g id="edge35" class="edge">
<title>Node28&#45;&gt;Node17</title>
<path fill="none" stroke="#9a32cd" stroke-dasharray="5,2" d="M603.15,-468.2C656.4,-462.9 722.11,-454.8 732,-446.39 752.56,-428.9 731.61,-408.14 750,-388.39 756.8,-381.09 766.08,-375.98 775.37,-372.42"/>
<polygon fill="#9a32cd" stroke="#9a32cd" points="602.64,-464.74 593.03,-469.19 603.32,-471.7 602.64,-464.74"/>
<text text-anchor="middle" x="671.5" y="-470.39" font-family="Helvetica,sans-Serif" font-size="10.00"> ws_mode</text>
</g>
<!-- Node29 -->
<g id="node29" class="node">
<title>Node29</title>
<g id="a_node29"><a xlink:title=" ">
<polygon fill="white" stroke="#bfbfbf" points="484,-201.89 484,-220.89 580,-220.89 580,-201.89 484,-201.89"/>
<text text-anchor="middle" x="532" y="-208.89" font-family="Helvetica,sans-Serif" font-size="10.00">event_router_t&lt;</text>
</a>
</g>
</g>
<!-- Node29&#45;&gt;Node17 -->
<g id="edge36" class="edge">
<title>Node29&#45;&gt;Node17</title>
<path fill="none" stroke="#9a32cd" stroke-dasharray="5,2" d="M565.87,-198.1C584.98,-190.49 606.21,-182.28 611,-181.39 663.87,-171.57 687.03,-151.89 732,-181.39 793.99,-222.04 807.89,-322.61 810.79,-354.51"/>
<polygon fill="#9a32cd" stroke="#9a32cd" points="564.44,-194.9 556.46,-201.86 567.05,-201.4 564.44,-194.9"/>
<text text-anchor="middle" x="671.5" y="-294.39" font-family="Helvetica,sans-Serif" font-size="10.00"> on_autocomplete</text>
<text text-anchor="middle" x="671.5" y="-283.39" font-family="Helvetica,sans-Serif" font-size="10.00">on_button_click</text>
<text text-anchor="middle" x="671.5" y="-272.39" font-family="Helvetica,sans-Serif" font-size="10.00">on_channel_create</text>
<text text-anchor="middle" x="671.5" y="-261.39" font-family="Helvetica,sans-Serif" font-size="10.00">on_channel_delete</text>
<text text-anchor="middle" x="671.5" y="-250.39" font-family="Helvetica,sans-Serif" font-size="10.00">on_channel_pins_update</text>
<text text-anchor="middle" x="671.5" y="-239.39" font-family="Helvetica,sans-Serif" font-size="10.00">on_channel_update</text>
<text text-anchor="middle" x="671.5" y="-228.39" font-family="Helvetica,sans-Serif" font-size="10.00">on_form_submit</text>
<text text-anchor="middle" x="671.5" y="-217.39" font-family="Helvetica,sans-Serif" font-size="10.00">on_guild_ban_add</text>
<text text-anchor="middle" x="671.5" y="-206.39" font-family="Helvetica,sans-Serif" font-size="10.00">on_guild_ban_remove</text>
<text text-anchor="middle" x="671.5" y="-195.39" font-family="Helvetica,sans-Serif" font-size="10.00">on_guild_create</text>
<text text-anchor="middle" x="671.5" y="-184.39" font-family="Helvetica,sans-Serif" font-size="10.00">...</text>
</g>
<!-- Node30 -->
<g id="node30" class="node">
<title>Node30</title>
<g id="a_node30"><a xlink:title=" ">
<polygon fill="white" stroke="#bfbfbf" points="756,-10.89 756,-29.89 869,-29.89 869,-10.89 756,-10.89"/>
<text text-anchor="middle" x="812.5" y="-17.89" font-family="Helvetica,sans-Serif" font-size="10.00">native_handle_type</text>
</a>
</g>
</g>
<!-- Node30&#45;&gt;Node5 -->
<g id="edge39" class="edge">
<title>Node30&#45;&gt;Node5</title>
<path fill="none" stroke="#9a32cd" stroke-dasharray="5,2" d="M856.96,-8.56C905.64,1.8 983.77,9.3 1030,-33.39 1105.78,-103.36 1102.43,-464.29 1101.22,-528.58"/>
<polygon fill="#9a32cd" stroke="#9a32cd" points="856.02,-5.18 847.04,-10.8 857.56,-12.01 856.02,-5.18"/>
<text text-anchor="middle" x="961.5" y="-36.39" font-family="Helvetica,sans-Serif" font-size="10.00"> thread_id</text>
</g>
<!-- Node31 -->
<g id="node31" class="node">
<title>Node31</title>
<g id="a_node31"><a xlink:title=" ">
<polygon fill="white" stroke="#bfbfbf" points="778,-605.89 778,-624.89 847,-624.89 847,-605.89 778,-605.89"/>
<text text-anchor="middle" x="812.5" y="-612.89" font-family="Helvetica,sans-Serif" font-size="10.00">std::mutex</text>
</a>
</g>
</g>
<!-- Node31&#45;&gt;Node5 -->
<g id="edge42" class="edge">
<title>Node31&#45;&gt;Node5</title>
<path fill="none" stroke="#9a32cd" stroke-dasharray="5,2" d="M857.35,-617.16C902.26,-617.47 973.33,-613.75 1030,-591.39 1054.9,-581.56 1078.75,-560.61 1091.48,-548.19"/>
<polygon fill="#9a32cd" stroke="#9a32cd" points="857.12,-613.65 847.07,-617.01 857.02,-620.65 857.12,-613.65"/>
<text text-anchor="middle" x="961.5" y="-620.39" font-family="Helvetica,sans-Serif" font-size="10.00"> voice_mutex</text>
</g>
<!-- Node32 -->
<g id="node32" class="node">
<title>Node32</title>
<g id="a_node32"><a xlink:title=" ">
<polygon fill="white" stroke="#bfbfbf" points="762,-482.89 762,-501.89 863,-501.89 863,-482.89 762,-482.89"/>
<text text-anchor="middle" x="812.5" y="-489.89" font-family="Helvetica,sans-Serif" font-size="10.00">unordered_map&lt;</text>
</a>
</g>
</g>
<!-- Node32&#45;&gt;Node5 -->
<g id="edge45" class="edge">
<title>Node32&#45;&gt;Node5</title>
<path fill="none" stroke="#9a32cd" stroke-dasharray="5,2" d="M873.24,-494.3C917.06,-496.64 977.77,-501.84 1030,-513.39 1046.59,-517.05 1064.64,-523.44 1078.39,-528.85"/>
<polygon fill="#9a32cd" stroke="#9a32cd" points="873.2,-490.79 863.04,-493.79 872.85,-497.79 873.2,-490.79"/>
<text text-anchor="middle" x="961.5" y="-516.39" font-family="Helvetica,sans-Serif" font-size="10.00"> connecting_voice_channels</text>
</g>
<!-- Node33 -->
<g id="node33" class="node">
<title>Node33</title>
<g id="a_node33"><a xlink:title=" ">
<polygon fill="white" stroke="#bfbfbf" points="1253,-651.89 1253,-670.89 1309,-670.89 1309,-651.89 1253,-651.89"/>
<text text-anchor="middle" x="1281" y="-658.89" font-family="Helvetica,sans-Serif" font-size="10.00">loglevel</text>
</a>
</g>
</g>
<!-- Node33&#45;&gt;Node1 -->
<g id="edge46" class="edge">
<title>Node33&#45;&gt;Node1</title>
<path fill="none" stroke="#9a32cd" stroke-dasharray="5,2" d="M1319.19,-667.33C1343.48,-671.47 1375.79,-677.48 1404,-684.39 1410.45,-685.97 1417.31,-687.89 1423.8,-689.82"/>
<polygon fill="#9a32cd" stroke="#9a32cd" points="1319.76,-663.87 1309.32,-665.67 1318.6,-670.78 1319.76,-663.87"/>
<text text-anchor="middle" x="1382.5" y="-687.39" font-family="Helvetica,sans-Serif" font-size="10.00"> severity</text>
</g>
</g>
</svg>
        <g id="navigator" transform="translate(0 0)" fill="#404254">
                <rect fill="#f2f5e9" fill-opacity="0.5" stroke="#606060" stroke-width=".5" x="0" y="0" width="60" height="60"/>
                <use id="zoomplus" xlink:href="#zoomPlus" x="17" y="9" onmousedown="handleZoom(evt,'in')"/>
                <use id="zoomminus" xlink:href="#zoomMin" x="42" y="9" onmousedown="handleZoom(evt,'out')"/>
                <use id="reset" xlink:href="#resetDef" x="30" y="36" onmousedown="handleReset()"/>
                <g id="arrowUp" xlink:href="#dirArrow" transform="translate(30 24)" onmousedown="handlePan(0,-1)">
                  <use xlink:href="#rim" fill="#404040">
                        <set attributeName="fill" to="#808080" begin="arrowUp.mouseover" end="arrowUp.mouseout"/>
                  </use>
                  <path fill="none" stroke="white" stroke-width="1.5" d="M0,-3.0v7 M-2.5,-0.5L0,-3.0L2.5,-0.5"/>
                </g>
                <g id="arrowRight" xlink:href="#dirArrow" transform="rotate(90) translate(36 -43)" onmousedown="handlePan(1,0)">
                  <use xlink:href="#rim" fill="#404040">
                        <set attributeName="fill" to="#808080" begin="arrowRight.mouseover" end="arrowRight.mouseout"/>
                  </use>
                  <path fill="none" stroke="white" stroke-width="1.5" d="M0,-3.0v7 M-2.5,-0.5L0,-3.0L2.5,-0.5"/>
                </g>
                <g id="arrowDown" xlink:href="#dirArrow" transform="rotate(180) translate(-30 -48)" onmousedown="handlePan(0,1)">
                  <use xlink:href="#rim" fill="#404040">
                        <set attributeName="fill" to="#808080" begin="arrowDown.mouseover" end="arrowDown.mouseout"/>
                  </use>
                  <path fill="none" stroke="white" stroke-width="1.5" d="M0,-3.0v7 M-2.5,-0.5L0,-3.0L2.5,-0.5"/>
                </g>
                <g id="arrowLeft" xlink:href="#dirArrow" transform="rotate(270) translate(-36 17)" onmousedown="handlePan(-1,0)">
                  <use xlink:href="#rim" fill="#404040">
                        <set attributeName="fill" to="#808080" begin="arrowLeft.mouseover" end="arrowLeft.mouseout"/>
                  </use>
                  <path fill="none" stroke="white" stroke-width="1.5" d="M0,-3.0v7 M-2.5,-0.5L0,-3.0L2.5,-0.5"/>
                </g>
        </g>
        <svg viewBox="0 0 15 15" width="100%" height="30px" preserveAspectRatio="xMaxYMin meet">
         <g id="arrow_out" transform="scale(0.3 0.3)">
          <a xlink:href="structdpp_1_1log__t__coll__graph_org.svg" target="_base">
           <rect id="button" ry="5" rx="5" y="6" x="6" height="38" width="38"
                fill="#f2f5e9" fill-opacity="0.5" stroke="#606060" stroke-width="1.0"/>
           <path id="arrow"
             d="M 11.500037,31.436501 C 11.940474,20.09759 22.043105,11.32322 32.158766,21.979434 L 37.068811,17.246167 C 37.068811,17.246167 37.088388,32 37.088388,32 L 22.160133,31.978069 C 22.160133,31.978069 26.997745,27.140456 26.997745,27.140456 C 18.528582,18.264221 13.291696,25.230495 11.500037,31.436501 z"
             style="fill:#404040;"/>
          </a>
         </g>
        </svg>
</svg>
