<?xml version="1.0" encoding="UTF-8" standalone="no"?>
<!DOCTYPE svg PUBLIC "-//W3C//DTD SVG 1.1//EN"
 "http://www.w3.org/Graphics/SVG/1.1/DTD/svg11.dtd">
<!-- Generated by graphviz version 2.38.0 (20140413.2041)
 -->
<!-- Title: dpp::log_t Pages: 1 -->
<svg width="1337pt" height="992pt"
 viewBox="0.00 0.00 1337.00 992.00" xmlns="http://www.w3.org/2000/svg" xmlns:xlink="http://www.w3.org/1999/xlink">
<g id="graph0" class="graph" transform="scale(1 1) rotate(0) translate(4 987.999)">
<title>dpp::log_t</title>
<polygon fill="white" stroke="none" points="-4,4 -4,-987.999 1333,-987.999 1333,4 -4,4"/>
<!-- Node1 -->
<g id="node1" class="node"><title>Node1</title>
<g id="a_node1"><a xlink:title="Log messages.">
<polygon fill="#bfbfbf" stroke="black" points="1270,-654.499 1270,-673.499 1329,-673.499 1329,-654.499 1270,-654.499"/>
<text text-anchor="middle" x="1299.5" y="-661.499" font-family="Helvetica,sans-Serif" font-size="10.00">dpp::log_t</text>
</a>
</g>
</g>
<!-- Node2 -->
<g id="node2" class="node"><title>Node2</title>
<g id="a_node2"><a xlink:href="structdpp_1_1event__dispatch__t.html" target="_top" xlink:title="Base event parameter struct.">
<polygon fill="white" stroke="black" points="1083,-654.499 1083,-673.499 1196,-673.499 1196,-654.499 1083,-654.499"/>
<text text-anchor="middle" x="1139.5" y="-661.499" font-family="Helvetica,sans-Serif" font-size="10.00">dpp::event_dispatch_t</text>
</a>
</g>
</g>
<!-- Node2&#45;&gt;Node1 -->
<g id="edge1" class="edge"><title>Node2&#45;&gt;Node1</title>
<path fill="none" stroke="midnightblue" d="M1206.27,-663.999C1228.45,-663.999 1252.07,-663.999 1269.85,-663.999"/>
<polygon fill="midnightblue" stroke="midnightblue" points="1206.2,-660.499 1196.2,-663.999 1206.2,-667.499 1206.2,-660.499"/>
</g>
<!-- Node3 -->
<g id="node3" class="node"><title>Node3</title>
<g id="a_node3"><a xlink:title=" ">
<polygon fill="white" stroke="#bfbfbf" points="191,-653.499 191,-672.499 251,-672.499 251,-653.499 191,-653.499"/>
<text text-anchor="middle" x="221" y="-660.499" font-family="Helvetica,sans-Serif" font-size="10.00">std::string</text>
</a>
</g>
</g>
<!-- Node3&#45;&gt;Node1 -->
<g id="edge46" class="edge"><title>Node3&#45;&gt;Node1</title>
<path fill="none" stroke="#9a32cd" stroke-dasharray="5,2" d="M261.287,-669.617C272.768,-671.319 285.358,-672.961 297,-673.999 351.922,-678.896 365.871,-676.902 421,-677.999 715.172,-683.854 788.771,-681.888 1083,-682.999 1158.14,-683.283 1178.22,-692.245 1252,-677.999 1257.96,-676.848 1264.25,-675.237 1270.2,-673.516"/>
<polygon fill="#9a32cd" stroke="#9a32cd" points="261.531,-666.114 251.115,-668.053 260.467,-673.033 261.531,-666.114"/>
<text text-anchor="middle" x="846" y="-685.999" font-family="Helvetica,sans-Serif" font-size="10.00"> message</text>
</g>
<!-- Node3&#45;&gt;Node2 -->
<g id="edge2" class="edge"><title>Node3&#45;&gt;Node2</title>
<path fill="none" stroke="#9a32cd" stroke-dasharray="5,2" d="M261.405,-663.175C328.96,-663.463 471.238,-663.999 591.5,-663.999 591.5,-663.999 591.5,-663.999 976,-663.999 1011.55,-663.999 1051.47,-663.999 1082.85,-663.999"/>
<polygon fill="#9a32cd" stroke="#9a32cd" points="261.234,-659.675 251.219,-663.132 261.204,-666.675 261.234,-659.675"/>
<text text-anchor="middle" x="709" y="-666.999" font-family="Helvetica,sans-Serif" font-size="10.00"> raw_event</text>
</g>
<!-- Node5 -->
<g id="node5" class="node"><title>Node5</title>
<g id="a_node5"><a xlink:href="classdpp_1_1discord__client.html" target="_top" xlink:title="Implements a discord client. Each discord_client connects to one shard and derives from a websocket c...">
<polygon fill="white" stroke="black" points="926,-347.499 926,-366.499 1024,-366.499 1024,-347.499 926,-347.499"/>
<text text-anchor="middle" x="975" y="-354.499" font-family="Helvetica,sans-Serif" font-size="10.00">dpp::discord_client</text>
</a>
</g>
</g>
<!-- Node3&#45;&gt;Node5 -->
<g id="edge39" class="edge"><title>Node3&#45;&gt;Node5</title>
<path fill="none" stroke="#9a32cd" stroke-dasharray="5,2" d="M261.493,-656.91C339.284,-644.859 507.07,-618.566 533,-611.999 579.054,-600.334 593.013,-601.02 634,-576.999 643.235,-571.587 643.211,-567.109 652,-560.999 757.786,-487.458 804.995,-502.386 908,-424.999 931.676,-407.211 954.687,-380.819 966.263,-366.717"/>
<polygon fill="#9a32cd" stroke="#9a32cd" points="260.485,-653.524 251.138,-658.512 261.556,-660.442 260.485,-653.524"/>
<text text-anchor="middle" x="592.5" y="-621.999" font-family="Helvetica,sans-Serif" font-size="10.00"> sessionid</text>
<text text-anchor="middle" x="592.5" y="-610.999" font-family="Helvetica,sans-Serif" font-size="10.00">token</text>
</g>
<!-- Node7 -->
<g id="node7" class="node"><title>Node7</title>
<g id="a_node7"><a xlink:href="classdpp_1_1ssl__client.html" target="_top" xlink:title="Implements a simple non&#45;blocking SSL stream client.">
<polygon fill="white" stroke="black" points="437,-797.499 437,-816.499 517,-816.499 517,-797.499 437,-797.499"/>
<text text-anchor="middle" x="477" y="-804.499" font-family="Helvetica,sans-Serif" font-size="10.00">dpp::ssl_client</text>
</a>
</g>
</g>
<!-- Node3&#45;&gt;Node7 -->
<g id="edge7" class="edge"><title>Node3&#45;&gt;Node7</title>
<path fill="none" stroke="#9a32cd" stroke-dasharray="5,2" d="M248.198,-677.439C262.318,-684.74 280.24,-693.247 297,-698.999 342.597,-714.647 361.589,-697.32 403,-721.999 435.083,-741.119 460.104,-779.371 470.609,-797.303"/>
<polygon fill="#9a32cd" stroke="#9a32cd" points="249.567,-674.204 239.091,-672.627 246.297,-680.393 249.567,-674.204"/>
<text text-anchor="middle" x="350" y="-768.999" font-family="Helvetica,sans-Serif" font-size="10.00"> buffer</text>
<text text-anchor="middle" x="350" y="-757.999" font-family="Helvetica,sans-Serif" font-size="10.00">cipher</text>
<text text-anchor="middle" x="350" y="-746.999" font-family="Helvetica,sans-Serif" font-size="10.00">hostname</text>
<text text-anchor="middle" x="350" y="-735.999" font-family="Helvetica,sans-Serif" font-size="10.00">obuffer</text>
<text text-anchor="middle" x="350" y="-724.999" font-family="Helvetica,sans-Serif" font-size="10.00">port</text>
</g>
<!-- Node16 -->
<g id="node16" class="node"><title>Node16</title>
<g id="a_node16"><a xlink:href="classdpp_1_1cluster.html" target="_top" xlink:title="The cluster class represents a group of shards and a command queue for sending and receiving commands...">
<polygon fill="white" stroke="black" points="675,-421.499 675,-440.499 743,-440.499 743,-421.499 675,-421.499"/>
<text text-anchor="middle" x="709" y="-428.499" font-family="Helvetica,sans-Serif" font-size="10.00">dpp::cluster</text>
</a>
</g>
</g>
<!-- Node3&#45;&gt;Node16 -->
<g id="edge17" class="edge"><title>Node3&#45;&gt;Node16</title>
<path fill="none" stroke="#9a32cd" stroke-dasharray="5,2" d="M248.204,-648.575C262.326,-641.28 280.247,-632.772 297,-626.999 306.061,-623.876 626.204,-558.574 634,-552.999 639.314,-549.198 686.139,-468.783 702.437,-440.63"/>
<polygon fill="#9a32cd" stroke="#9a32cd" points="246.304,-645.62 239.095,-653.384 249.572,-651.81 246.304,-645.62"/>
<text text-anchor="middle" x="477" y="-603.999" font-family="Helvetica,sans-Serif" font-size="10.00"> token</text>
</g>
<!-- Node21 -->
<g id="node21" class="node"><title>Node21</title>
<g id="a_node21"><a xlink:href="classdpp_1_1user.html" target="_top" xlink:title="Represents a user on discord. May or may not be a member of a dpp::guild.">
<polygon fill="white" stroke="black" points="448.5,-142.499 448.5,-161.499 505.5,-161.499 505.5,-142.499 448.5,-142.499"/>
<text text-anchor="middle" x="477" y="-149.499" font-family="Helvetica,sans-Serif" font-size="10.00">dpp::user</text>
</a>
</g>
</g>
<!-- Node3&#45;&gt;Node21 -->
<g id="edge26" class="edge"><title>Node3&#45;&gt;Node21</title>
<path fill="none" stroke="#9a32cd" stroke-dasharray="5,2" d="M228.562,-643.539C240.3,-608.049 264.973,-530.264 279,-462.999 291.267,-404.174 270.201,-382.782 297,-328.999 336.47,-249.787 425.498,-185.141 460.986,-161.58"/>
<polygon fill="#9a32cd" stroke="#9a32cd" points="225.205,-642.543 225.361,-653.136 231.845,-644.758 225.205,-642.543"/>
<text text-anchor="middle" x="350" y="-331.999" font-family="Helvetica,sans-Serif" font-size="10.00"> username</text>
</g>
<!-- Node4 -->
<g id="node4" class="node"><title>Node4</title>
<g id="a_node4"><a xlink:title=" ">
<polygon fill="white" stroke="#bfbfbf" points="0,-783.999 0,-813.999 95,-813.999 95,-783.999 0,-783.999"/>
<text text-anchor="start" x="8" y="-801.999" font-family="Helvetica,sans-Serif" font-size="10.00">std::basic_string&lt;</text>
<text text-anchor="middle" x="47.5" y="-790.999" font-family="Helvetica,sans-Serif" font-size="10.00"> Char &gt;</text>
</a>
</g>
</g>
<!-- Node4&#45;&gt;Node3 -->
<g id="edge3" class="edge"><title>Node4&#45;&gt;Node3</title>
<path fill="none" stroke="midnightblue" d="M75.5372,-777.558C113.258,-747.646 180.137,-694.61 207.651,-672.792"/>
<polygon fill="midnightblue" stroke="midnightblue" points="73.1694,-774.969 67.5088,-783.925 77.5189,-780.454 73.1694,-774.969"/>
</g>
<!-- Node5&#45;&gt;Node2 -->
<g id="edge4" class="edge"><title>Node5&#45;&gt;Node2</title>
<path fill="none" stroke="#9a32cd" stroke-dasharray="5,2" d="M977.615,-376.597C982.894,-428.028 1004.16,-568.169 1083,-644.999 1087.01,-648.908 1091.86,-652.014 1097,-654.483"/>
<polygon fill="#9a32cd" stroke="#9a32cd" points="981.088,-376.148 976.673,-366.517 974.118,-376.799 981.088,-376.148"/>
<text text-anchor="middle" x="1053.5" y="-623.999" font-family="Helvetica,sans-Serif" font-size="10.00"> from</text>
</g>
<!-- Node6 -->
<g id="node6" class="node"><title>Node6</title>
<g id="a_node6"><a xlink:href="classdpp_1_1websocket__client.html" target="_top" xlink:title="Implements a websocket client based on the SSL client.">
<polygon fill="white" stroke="black" points="652,-570.499 652,-589.499 766,-589.499 766,-570.499 652,-570.499"/>
<text text-anchor="middle" x="709" y="-577.499" font-family="Helvetica,sans-Serif" font-size="10.00">dpp::websocket_client</text>
</a>
</g>
</g>
<!-- Node6&#45;&gt;Node5 -->
<g id="edge5" class="edge"><title>Node6&#45;&gt;Node5</title>
<path fill="none" stroke="midnightblue" d="M776.318,-588.804C818.465,-590.676 871.725,-585.67 908,-555.999 968.575,-506.451 973.955,-399.766 974.125,-366.864"/>
<polygon fill="midnightblue" stroke="midnightblue" points="776.321,-585.298 766.135,-588.211 775.914,-592.286 776.321,-585.298"/>
</g>
<!-- Node7&#45;&gt;Node6 -->
<g id="edge6" class="edge"><title>Node7&#45;&gt;Node6</title>
<path fill="none" stroke="midnightblue" d="M498.83,-790.995C531.784,-764.684 596.081,-709.173 634,-648.999 646.592,-629.017 635.146,-615.545 652,-598.999 655.956,-595.115 660.735,-592.024 665.813,-589.565"/>
<polygon fill="midnightblue" stroke="midnightblue" points="496.477,-788.393 490.788,-797.331 500.809,-793.891 496.477,-788.393"/>
</g>
<!-- Node8 -->
<g id="node8" class="node"><title>Node8</title>
<g id="a_node8"><a xlink:title=" ">
<polygon fill="white" stroke="#bfbfbf" points="203.5,-964.499 203.5,-983.499 238.5,-983.499 238.5,-964.499 203.5,-964.499"/>
<text text-anchor="middle" x="221" y="-971.499" font-family="Helvetica,sans-Serif" font-size="10.00">bool</text>
</a>
</g>
</g>
<!-- Node8&#45;&gt;Node5 -->
<g id="edge42" class="edge"><title>Node8&#45;&gt;Node5</title>
<path fill="none" stroke="#9a32cd" stroke-dasharray="5,2" d="M248.686,-978.336C284.718,-983.131 350.461,-988.107 403,-970.999 599.856,-906.898 606.594,-809.714 784,-702.999 836.971,-671.135 869.86,-688.646 908,-639.999 976.792,-552.256 975.997,-405.1 974.494,-366.502"/>
<polygon fill="#9a32cd" stroke="#9a32cd" points="248.901,-974.831 238.506,-976.878 247.909,-981.76 248.901,-974.831"/>
<text text-anchor="middle" x="592.5" y="-898.999" font-family="Helvetica,sans-Serif" font-size="10.00"> ready</text>
</g>
<!-- Node8&#45;&gt;Node7 -->
<g id="edge8" class="edge"><title>Node8&#45;&gt;Node7</title>
<path fill="none" stroke="#9a32cd" stroke-dasharray="5,2" d="M248.679,-968.841C298.255,-959.216 399.87,-939.283 403,-936.999 408.541,-932.955 454.967,-846.456 470.763,-816.841"/>
<polygon fill="#9a32cd" stroke="#9a32cd" points="247.817,-965.443 238.666,-970.782 249.15,-972.315 247.817,-965.443"/>
<text text-anchor="middle" x="350" y="-961.999" font-family="Helvetica,sans-Serif" font-size="10.00"> nonblocking</text>
</g>
<!-- Node9 -->
<g id="node9" class="node"><title>Node9</title>
<g id="a_node9"><a xlink:title=" ">
<polygon fill="white" stroke="#bfbfbf" points="206.5,-814.499 206.5,-833.499 235.5,-833.499 235.5,-814.499 206.5,-814.499"/>
<text text-anchor="middle" x="221" y="-821.499" font-family="Helvetica,sans-Serif" font-size="10.00">int</text>
</a>
</g>
</g>
<!-- Node9&#45;&gt;Node7 -->
<g id="edge9" class="edge"><title>Node9&#45;&gt;Node7</title>
<path fill="none" stroke="#9a32cd" stroke-dasharray="5,2" d="M245.64,-822.417C289.381,-819.489 383.345,-813.2 436.765,-809.625"/>
<polygon fill="#9a32cd" stroke="#9a32cd" points="245.4,-818.925 235.656,-823.085 245.868,-825.909 245.4,-818.925"/>
<text text-anchor="middle" x="350" y="-821.999" font-family="Helvetica,sans-Serif" font-size="10.00"> sfd</text>
</g>
<!-- Node10 -->
<g id="node10" class="node"><title>Node10</title>
<g id="a_node10"><a xlink:href="classdpp_1_1opensslcontext.html" target="_top" xlink:title=" ">
<polygon fill="white" stroke="black" points="169,-915.499 169,-934.499 273,-934.499 273,-915.499 169,-915.499"/>
<text text-anchor="middle" x="221" y="-922.499" font-family="Helvetica,sans-Serif" font-size="10.00">dpp::opensslcontext</text>
</a>
</g>
</g>
<!-- Node10&#45;&gt;Node7 -->
<g id="edge10" class="edge"><title>Node10&#45;&gt;Node7</title>
<path fill="none" stroke="#9a32cd" stroke-dasharray="5,2" d="M283.168,-922.235C327.514,-919.306 383.056,-913.445 403,-901.999 438.539,-881.603 462.61,-836.341 471.818,-816.561"/>
<polygon fill="#9a32cd" stroke="#9a32cd" points="282.794,-918.752 273.031,-922.868 283.23,-925.738 282.794,-918.752"/>
<text text-anchor="middle" x="350" y="-924.999" font-family="Helvetica,sans-Serif" font-size="10.00"> ssl</text>
</g>
<!-- Node11 -->
<g id="node11" class="node"><title>Node11</title>
<g id="a_node11"><a xlink:title=" ">
<polygon fill="white" stroke="#bfbfbf" points="26.5,-896.499 26.5,-915.499 68.5,-915.499 68.5,-896.499 26.5,-896.499"/>
<text text-anchor="middle" x="47.5" y="-903.499" font-family="Helvetica,sans-Serif" font-size="10.00">SSL *</text>
</a>
</g>
</g>
<!-- Node11&#45;&gt;Node10 -->
<g id="edge11" class="edge"><title>Node11&#45;&gt;Node10</title>
<path fill="none" stroke="#9a32cd" stroke-dasharray="5,2" d="M78.7111,-906.535C97.7778,-907.128 122.894,-908.375 145,-910.999 154.47,-912.123 164.546,-913.722 174.138,-915.44"/>
<polygon fill="#9a32cd" stroke="#9a32cd" points="78.6161,-903.031 68.526,-906.262 78.4287,-910.029 78.6161,-903.031"/>
<text text-anchor="middle" x="129" y="-913.999" font-family="Helvetica,sans-Serif" font-size="10.00"> ssl</text>
</g>
<!-- Node12 -->
<g id="node12" class="node"><title>Node12</title>
<g id="a_node12"><a xlink:title=" ">
<polygon fill="white" stroke="#bfbfbf" points="13.5,-934.499 13.5,-953.499 81.5,-953.499 81.5,-934.499 13.5,-934.499"/>
<text text-anchor="middle" x="47.5" y="-941.499" font-family="Helvetica,sans-Serif" font-size="10.00">SSL_CTX *</text>
</a>
</g>
</g>
<!-- Node12&#45;&gt;Node10 -->
<g id="edge12" class="edge"><title>Node12&#45;&gt;Node10</title>
<path fill="none" stroke="#9a32cd" stroke-dasharray="5,2" d="M91.5701,-939.227C115.024,-936.629 144.195,-933.397 168.806,-930.67"/>
<polygon fill="#9a32cd" stroke="#9a32cd" points="91.1207,-935.755 81.5669,-940.335 91.8915,-942.713 91.1207,-935.755"/>
<text text-anchor="middle" x="129" y="-939.999" font-family="Helvetica,sans-Serif" font-size="10.00"> ctx</text>
</g>
<!-- Node13 -->
<g id="node13" class="node"><title>Node13</title>
<g id="a_node13"><a xlink:title=" ">
<polygon fill="white" stroke="#bfbfbf" points="199,-277.499 199,-296.499 243,-296.499 243,-277.499 199,-277.499"/>
<text text-anchor="middle" x="221" y="-284.499" font-family="Helvetica,sans-Serif" font-size="10.00">time_t</text>
</a>
</g>
</g>
<!-- Node13&#45;&gt;Node5 -->
<g id="edge36" class="edge"><title>Node13&#45;&gt;Node5</title>
<path fill="none" stroke="#9a32cd" stroke-dasharray="5,2" d="M253.454,-283.406C266.855,-282.046 282.672,-280.666 297,-279.999 344.06,-277.807 355.889,-279.897 403,-279.999 628.498,-280.487 691.746,-265.095 908,-328.999 924.234,-333.796 941.846,-341.398 954.791,-347.472"/>
<polygon fill="#9a32cd" stroke="#9a32cd" points="252.877,-279.948 243.3,-284.479 253.612,-286.909 252.877,-279.948"/>
<text text-anchor="middle" x="592.5" y="-293.999" font-family="Helvetica,sans-Serif" font-size="10.00"> last_heartbeat</text>
<text text-anchor="middle" x="592.5" y="-282.999" font-family="Helvetica,sans-Serif" font-size="10.00">last_heartbeat_ack</text>
</g>
<!-- Node13&#45;&gt;Node7 -->
<g id="edge13" class="edge"><title>Node13&#45;&gt;Node7</title>
<path fill="none" stroke="#9a32cd" stroke-dasharray="5,2" d="M245.89,-302.49C257.275,-310.919 270.279,-322.228 279,-334.999 293.029,-355.543 278.289,-371.605 297,-387.999 333.123,-419.648 370.826,-373.342 403,-408.999 431.857,-440.979 413.392,-559.601 421,-601.999 434.733,-678.528 463.191,-768.167 472.772,-797.317"/>
<polygon fill="#9a32cd" stroke="#9a32cd" points="247.783,-299.542 237.596,-296.63 243.743,-305.259 247.783,-299.542"/>
<text text-anchor="middle" x="350" y="-411.999" font-family="Helvetica,sans-Serif" font-size="10.00"> last_tick</text>
</g>
<!-- Node13&#45;&gt;Node16 -->
<g id="edge18" class="edge"><title>Node13&#45;&gt;Node16</title>
<path fill="none" stroke="#9a32cd" stroke-dasharray="5,2" d="M253.168,-284.913C299.177,-282.555 382.092,-281.297 403,-300.999 445.771,-341.304 378.685,-391.216 421,-431.999 493.291,-501.672 629.589,-461.045 684.345,-440.589"/>
<polygon fill="#9a32cd" stroke="#9a32cd" points="252.924,-281.421 243.136,-285.474 253.316,-288.41 252.924,-281.421"/>
<text text-anchor="middle" x="477" y="-474.999" font-family="Helvetica,sans-Serif" font-size="10.00"> last_identify</text>
</g>
<!-- Node14 -->
<g id="node14" class="node"><title>Node14</title>
<g id="a_node14"><a xlink:title=" ">
<polygon fill="white" stroke="#bfbfbf" points="22,-55.4988 22,-74.4988 73,-74.4988 73,-55.4988 22,-55.4988"/>
<text text-anchor="middle" x="47.5" y="-62.4988" font-family="Helvetica,sans-Serif" font-size="10.00">uint64_t</text>
</a>
</g>
</g>
<!-- Node14&#45;&gt;Node5 -->
<g id="edge38" class="edge"><title>Node14&#45;&gt;Node5</title>
<path fill="none" stroke="#9a32cd" stroke-dasharray="5,2" d="M73.755,-50.3932C106.405,-32.921 165.55,-5.9988 220,-5.9988 220,-5.9988 220,-5.9988 710,-5.9988 799.443,-5.9988 843.916,20.3974 908,-41.9988 953.438,-86.24 970.188,-299.697 973.4,-347.491"/>
<polygon fill="#9a32cd" stroke="#9a32cd" points="71.9745,-47.3779 64.8905,-55.2562 75.3413,-53.5151 71.9745,-47.3779"/>
<text text-anchor="middle" x="477" y="-8.9988" font-family="Helvetica,sans-Serif" font-size="10.00"> last_seq</text>
</g>
<!-- Node14&#45;&gt;Node7 -->
<g id="edge14" class="edge"><title>Node14&#45;&gt;Node7</title>
<path fill="none" stroke="#9a32cd" stroke-dasharray="5,2" d="M50.1612,-84.6654C58.3619,-178.277 96.8117,-578.46 163,-681.999 202.321,-743.509 229.516,-749.15 297,-776.999 342.73,-795.87 399.693,-802.878 436.912,-805.476"/>
<polygon fill="#9a32cd" stroke="#9a32cd" points="53.6392,-84.2583 49.2931,-74.5959 46.6651,-84.8596 53.6392,-84.2583"/>
<text text-anchor="middle" x="221" y="-783.999" font-family="Helvetica,sans-Serif" font-size="10.00"> bytes_in</text>
<text text-anchor="middle" x="221" y="-772.999" font-family="Helvetica,sans-Serif" font-size="10.00">bytes_out</text>
</g>
<!-- Node22 -->
<g id="node22" class="node"><title>Node22</title>
<g id="a_node22"><a xlink:href="classdpp_1_1managed.html" target="_top" xlink:title="The managed class is the base class for various types that can be stored in a cache that are identifi...">
<polygon fill="white" stroke="black" points="182,-72.4988 182,-91.4988 260,-91.4988 260,-72.4988 182,-72.4988"/>
<text text-anchor="middle" x="221" y="-79.4988" font-family="Helvetica,sans-Serif" font-size="10.00">dpp::managed</text>
</a>
</g>
</g>
<!-- Node14&#45;&gt;Node22 -->
<g id="edge25" class="edge"><title>Node14&#45;&gt;Node22</title>
<path fill="none" stroke="#9a32cd" stroke-dasharray="5,2" d="M83.0311,-68.4217C111.655,-71.2591 152.299,-75.2879 181.874,-78.2195"/>
<polygon fill="#9a32cd" stroke="#9a32cd" points="83.3683,-64.9381 73.0718,-67.4345 82.6777,-71.9039 83.3683,-64.9381"/>
<text text-anchor="middle" x="129" y="-77.9988" font-family="Helvetica,sans-Serif" font-size="10.00"> id</text>
</g>
<!-- Node24 -->
<g id="node24" class="node"><title>Node24</title>
<g id="a_node24"><a xlink:href="structdpp_1_1utility_1_1iconhash.html" target="_top" xlink:title="Store a 128 bit icon hash (profile picture, server icon etc) as a 128 bit binary value made of two ui...">
<polygon fill="white" stroke="black" points="167.5,-34.4988 167.5,-53.4988 274.5,-53.4988 274.5,-34.4988 167.5,-34.4988"/>
<text text-anchor="middle" x="221" y="-41.4988" font-family="Helvetica,sans-Serif" font-size="10.00">dpp::utility::iconhash</text>
</a>
</g>
</g>
<!-- Node14&#45;&gt;Node24 -->
<g id="edge29" class="edge"><title>Node14&#45;&gt;Node24</title>
<path fill="none" stroke="#9a32cd" stroke-dasharray="5,2" d="M82.8948,-53.0187C92.5194,-50.1753 103.066,-47.5263 113,-45.9988 130.537,-43.302 149.881,-42.3389 167.242,-42.1914"/>
<polygon fill="#9a32cd" stroke="#9a32cd" points="81.7733,-49.7021 73.2634,-56.0134 83.8517,-56.3865 81.7733,-49.7021"/>
<text text-anchor="middle" x="129" y="-59.9988" font-family="Helvetica,sans-Serif" font-size="10.00"> first</text>
<text text-anchor="middle" x="129" y="-48.9988" font-family="Helvetica,sans-Serif" font-size="10.00">second</text>
</g>
<!-- Node15 -->
<g id="node15" class="node"><title>Node15</title>
<g id="a_node15"><a xlink:title=" ">
<polygon fill="white" stroke="#bfbfbf" points="192.5,-852.499 192.5,-871.499 249.5,-871.499 249.5,-852.499 192.5,-852.499"/>
<text text-anchor="middle" x="221" y="-859.499" font-family="Helvetica,sans-Serif" font-size="10.00">function&lt;</text>
</a>
</g>
</g>
<!-- Node15&#45;&gt;Node7 -->
<g id="edge15" class="edge"><title>Node15&#45;&gt;Node7</title>
<path fill="none" stroke="#9a32cd" stroke-dasharray="5,2" d="M259.949,-858.371C296.885,-854.317 354.397,-846.61 403,-833.999 420.396,-829.485 439.42,-822.374 453.685,-816.582"/>
<polygon fill="#9a32cd" stroke="#9a32cd" points="259.214,-854.929 249.64,-859.466 259.954,-861.89 259.214,-854.929"/>
<text text-anchor="middle" x="350" y="-889.999" font-family="Helvetica,sans-Serif" font-size="10.00"> custom_readable_fd</text>
<text text-anchor="middle" x="350" y="-878.999" font-family="Helvetica,sans-Serif" font-size="10.00">custom_readable_ready</text>
<text text-anchor="middle" x="350" y="-867.999" font-family="Helvetica,sans-Serif" font-size="10.00">custom_writeable_fd</text>
<text text-anchor="middle" x="350" y="-856.999" font-family="Helvetica,sans-Serif" font-size="10.00">custom_writeable_ready</text>
</g>
<!-- Node16&#45;&gt;Node5 -->
<g id="edge16" class="edge"><title>Node16&#45;&gt;Node5</title>
<path fill="none" stroke="#9a32cd" stroke-dasharray="5,2" d="M752.8,-419.002C804.967,-404.379 892.065,-379.965 939.924,-366.55"/>
<polygon fill="#9a32cd" stroke="#9a32cd" points="751.853,-415.632 743.168,-421.702 753.742,-422.373 751.853,-415.632"/>
<text text-anchor="middle" x="846" y="-412.999" font-family="Helvetica,sans-Serif" font-size="10.00"> creator</text>
</g>
<!-- Node17 -->
<g id="node17" class="node"><title>Node17</title>
<g id="a_node17"><a xlink:title=" ">
<polygon fill="white" stroke="#bfbfbf" points="195.5,-202.499 195.5,-221.499 246.5,-221.499 246.5,-202.499 195.5,-202.499"/>
<text text-anchor="middle" x="221" y="-209.499" font-family="Helvetica,sans-Serif" font-size="10.00">uint32_t</text>
</a>
</g>
</g>
<!-- Node17&#45;&gt;Node5 -->
<g id="edge35" class="edge"><title>Node17&#45;&gt;Node5</title>
<path fill="none" stroke="#9a32cd" stroke-dasharray="5,2" d="M256.837,-210.625C293.389,-208.874 352.446,-205.174 403,-197.999 461.425,-189.707 485.601,-206.15 533,-170.999 546.419,-161.047 536.634,-146.527 551,-137.999 582.721,-119.168 598.339,-128.559 634,-137.999 769.466,-173.86 795.589,-210.328 908,-293.999 930.364,-310.645 953.173,-334.18 965.244,-347.264"/>
<polygon fill="#9a32cd" stroke="#9a32cd" points="256.53,-207.135 246.7,-211.087 256.85,-214.128 256.53,-207.135"/>
<text text-anchor="middle" x="592.5" y="-195.999" font-family="Helvetica,sans-Serif" font-size="10.00"> heartbeat_interval</text>
<text text-anchor="middle" x="592.5" y="-184.999" font-family="Helvetica,sans-Serif" font-size="10.00">intents</text>
<text text-anchor="middle" x="592.5" y="-173.999" font-family="Helvetica,sans-Serif" font-size="10.00">max_shards</text>
<text text-anchor="middle" x="592.5" y="-162.999" font-family="Helvetica,sans-Serif" font-size="10.00">reconnects</text>
<text text-anchor="middle" x="592.5" y="-151.999" font-family="Helvetica,sans-Serif" font-size="10.00">resumes</text>
<text text-anchor="middle" x="592.5" y="-140.999" font-family="Helvetica,sans-Serif" font-size="10.00">shard_id</text>
</g>
<!-- Node17&#45;&gt;Node16 -->
<g id="edge19" class="edge"><title>Node17&#45;&gt;Node16</title>
<path fill="none" stroke="#9a32cd" stroke-dasharray="5,2" d="M256.674,-215.328C297.739,-221.166 365.308,-237.07 403,-279.999 426.188,-306.409 396.235,-332.062 421,-356.999 457.081,-393.33 492.362,-352.848 533,-383.999 546.259,-394.163 537.027,-407.84 551,-416.999 587.962,-441.226 640.772,-440.457 674.724,-436.588"/>
<polygon fill="#9a32cd" stroke="#9a32cd" points="256.957,-211.835 246.59,-214.02 256.057,-218.777 256.957,-211.835"/>
<text text-anchor="middle" x="477" y="-419.999" font-family="Helvetica,sans-Serif" font-size="10.00"> cluster_id</text>
<text text-anchor="middle" x="477" y="-408.999" font-family="Helvetica,sans-Serif" font-size="10.00">intents</text>
<text text-anchor="middle" x="477" y="-397.999" font-family="Helvetica,sans-Serif" font-size="10.00">maxclusters</text>
<text text-anchor="middle" x="477" y="-386.999" font-family="Helvetica,sans-Serif" font-size="10.00">numshards</text>
</g>
<!-- Node17&#45;&gt;Node21 -->
<g id="edge30" class="edge"><title>Node17&#45;&gt;Node21</title>
<path fill="none" stroke="#9a32cd" stroke-dasharray="5,2" d="M256.446,-199.484C269.092,-195.164 283.594,-190.528 297,-186.999 349.975,-173.052 413.097,-161.972 448.459,-156.252"/>
<polygon fill="#9a32cd" stroke="#9a32cd" points="255.053,-196.262 246.758,-202.853 257.353,-202.874 255.053,-196.262"/>
<text text-anchor="middle" x="350" y="-189.999" font-family="Helvetica,sans-Serif" font-size="10.00"> flags</text>
</g>
<!-- Node18 -->
<g id="node18" class="node"><title>Node18</title>
<g id="a_node18"><a xlink:title=" ">
<polygon fill="white" stroke="#bfbfbf" points="454.5,-328.499 454.5,-347.499 499.5,-347.499 499.5,-328.499 454.5,-328.499"/>
<text text-anchor="middle" x="477" y="-335.499" font-family="Helvetica,sans-Serif" font-size="10.00">double</text>
</a>
</g>
</g>
<!-- Node18&#45;&gt;Node5 -->
<g id="edge41" class="edge"><title>Node18&#45;&gt;Node5</title>
<path fill="none" stroke="#9a32cd" stroke-dasharray="5,2" d="M509.633,-339.211C594.013,-342.443 824.871,-351.286 925.752,-355.151"/>
<polygon fill="#9a32cd" stroke="#9a32cd" points="509.758,-335.713 499.631,-338.827 509.49,-342.708 509.758,-335.713"/>
<text text-anchor="middle" x="709" y="-351.999" font-family="Helvetica,sans-Serif" font-size="10.00"> websocket_ping</text>
</g>
<!-- Node18&#45;&gt;Node16 -->
<g id="edge20" class="edge"><title>Node18&#45;&gt;Node16</title>
<path fill="none" stroke="#9a32cd" stroke-dasharray="5,2" d="M508.948,-348.614C517.176,-352.189 525.776,-356.656 533,-361.999 542.883,-369.309 540.626,-376.404 551,-382.999 583.304,-403.534 597.409,-394.757 634,-405.999 649.685,-410.817 667.074,-416.666 681.053,-421.494"/>
<polygon fill="#9a32cd" stroke="#9a32cd" points="510.148,-345.324 499.565,-344.828 507.529,-351.815 510.148,-345.324"/>
<text text-anchor="middle" x="592.5" y="-408.999" font-family="Helvetica,sans-Serif" font-size="10.00"> rest_ping</text>
</g>
<!-- Node19 -->
<g id="node19" class="node"><title>Node19</title>
<g id="a_node19"><a xlink:href="classdpp_1_1dispatcher.html" target="_top" xlink:title="The dispatcher class contains a set of std::functions representing hooked events that the user code i...">
<polygon fill="white" stroke="black" points="435.5,-531.499 435.5,-550.499 518.5,-550.499 518.5,-531.499 435.5,-531.499"/>
<text text-anchor="middle" x="477" y="-538.499" font-family="Helvetica,sans-Serif" font-size="10.00">dpp::dispatcher</text>
</a>
</g>
</g>
<!-- Node19&#45;&gt;Node16 -->
<g id="edge21" class="edge"><title>Node19&#45;&gt;Node16</title>
<path fill="none" stroke="#9a32cd" stroke-dasharray="5,2" d="M528.536,-539.733C560.505,-537.033 601.734,-529.927 634,-511.999 665.801,-494.329 691.342,-457.937 702.261,-440.595"/>
<polygon fill="#9a32cd" stroke="#9a32cd" points="528.225,-536.246 518.506,-540.463 528.733,-543.228 528.225,-536.246"/>
<text text-anchor="middle" x="592.5" y="-540.999" font-family="Helvetica,sans-Serif" font-size="10.00"> dispatch</text>
</g>
<!-- Node20 -->
<g id="node20" class="node"><title>Node20</title>
<g id="a_node20"><a xlink:title=" ">
<polygon fill="white" stroke="#bfbfbf" points="196,-434.499 196,-453.499 246,-453.499 246,-434.499 196,-434.499"/>
<text text-anchor="middle" x="221" y="-441.499" font-family="Helvetica,sans-Serif" font-size="10.00">vector&lt;</text>
</a>
</g>
</g>
<!-- Node20&#45;&gt;Node19 -->
<g id="edge22" class="edge"><title>Node20&#45;&gt;Node19</title>
<path fill="none" stroke="#9a32cd" stroke-dasharray="5,2" d="M255.933,-432.843C295.695,-422.086 361.419,-411.829 403,-444.999 430.474,-466.915 397.461,-495.902 421,-521.999 424.924,-526.35 429.894,-529.704 435.233,-532.291"/>
<polygon fill="#9a32cd" stroke="#9a32cd" points="254.824,-429.52 246.172,-435.635 256.749,-436.25 254.824,-429.52"/>
<text text-anchor="start" x="301" y="-590.999" font-family="Helvetica,sans-Serif" font-size="10.00"> application_command</text>
<text text-anchor="middle" x="350" y="-579.999" font-family="Helvetica,sans-Serif" font-size="10.00">_create</text>
<text text-anchor="start" x="301" y="-568.999" font-family="Helvetica,sans-Serif" font-size="10.00">application_command</text>
<text text-anchor="middle" x="350" y="-557.999" font-family="Helvetica,sans-Serif" font-size="10.00">_delete</text>
<text text-anchor="start" x="301" y="-546.999" font-family="Helvetica,sans-Serif" font-size="10.00">application_command</text>
<text text-anchor="middle" x="350" y="-535.999" font-family="Helvetica,sans-Serif" font-size="10.00">_update</text>
<text text-anchor="middle" x="350" y="-524.999" font-family="Helvetica,sans-Serif" font-size="10.00">autocomplete</text>
<text text-anchor="middle" x="350" y="-513.999" font-family="Helvetica,sans-Serif" font-size="10.00">button_click</text>
<text text-anchor="middle" x="350" y="-502.999" font-family="Helvetica,sans-Serif" font-size="10.00">channel_create</text>
<text text-anchor="middle" x="350" y="-491.999" font-family="Helvetica,sans-Serif" font-size="10.00">channel_delete</text>
<text text-anchor="middle" x="350" y="-480.999" font-family="Helvetica,sans-Serif" font-size="10.00">channel_pins_update</text>
<text text-anchor="middle" x="350" y="-469.999" font-family="Helvetica,sans-Serif" font-size="10.00">channel_update</text>
<text text-anchor="middle" x="350" y="-458.999" font-family="Helvetica,sans-Serif" font-size="10.00">guild_ban_add</text>
<text text-anchor="middle" x="350" y="-447.999" font-family="Helvetica,sans-Serif" font-size="10.00">...</text>
</g>
<!-- Node21&#45;&gt;Node16 -->
<g id="edge23" class="edge"><title>Node21&#45;&gt;Node16</title>
<path fill="none" stroke="#9a32cd" stroke-dasharray="5,2" d="M495.448,-168.51C509.475,-180.97 530.206,-197.636 551,-207.999 585.26,-225.073 608.941,-202.063 634,-230.999 675.358,-278.755 624.912,-314.926 652,-371.999 661.81,-392.667 681.629,-410.804 694.862,-421.336"/>
<polygon fill="#9a32cd" stroke="#9a32cd" points="497.764,-165.885 488.015,-161.739 493.051,-171.06 497.764,-165.885"/>
<text text-anchor="middle" x="592.5" y="-233.999" font-family="Helvetica,sans-Serif" font-size="10.00"> me</text>
</g>
<!-- Node22&#45;&gt;Node21 -->
<g id="edge24" class="edge"><title>Node22&#45;&gt;Node21</title>
<path fill="none" stroke="midnightblue" d="M270.254,-90.3153C307.062,-97.2212 358.79,-108.143 403,-121.999 421.174,-127.695 441.134,-136.05 455.582,-142.497"/>
<polygon fill="midnightblue" stroke="midnightblue" points="270.756,-86.8488 260.287,-88.4748 269.485,-93.7325 270.756,-86.8488"/>
</g>
<!-- Node23 -->
<g id="node23" class="node"><title>Node23</title>
<g id="a_node23"><a xlink:title=" ">
<polygon fill="white" stroke="#bfbfbf" points="195.5,-148.499 195.5,-167.499 246.5,-167.499 246.5,-148.499 195.5,-148.499"/>
<text text-anchor="middle" x="221" y="-155.499" font-family="Helvetica,sans-Serif" font-size="10.00">uint16_t</text>
</a>
</g>
</g>
<!-- Node23&#45;&gt;Node21 -->
<g id="edge27" class="edge"><title>Node23&#45;&gt;Node21</title>
<path fill="none" stroke="#9a32cd" stroke-dasharray="5,2" d="M256.786,-155.237C269.438,-154.349 283.857,-153.473 297,-152.999 350.573,-151.065 413.222,-151.283 448.391,-151.631"/>
<polygon fill="#9a32cd" stroke="#9a32cd" points="256.358,-151.758 246.64,-155.976 256.868,-158.74 256.358,-151.758"/>
<text text-anchor="middle" x="350" y="-155.999" font-family="Helvetica,sans-Serif" font-size="10.00"> discriminator</text>
</g>
<!-- Node24&#45;&gt;Node21 -->
<g id="edge28" class="edge"><title>Node24&#45;&gt;Node21</title>
<path fill="none" stroke="#9a32cd" stroke-dasharray="5,2" d="M284.493,-48.513C320.779,-53.1827 366.403,-62.681 403,-81.9988 431.572,-97.0806 456.784,-126.644 468.705,-142.081"/>
<polygon fill="#9a32cd" stroke="#9a32cd" points="284.867,-45.0329 274.522,-47.3199 284.035,-51.9833 284.867,-45.0329"/>
<text text-anchor="middle" x="350" y="-84.9988" font-family="Helvetica,sans-Serif" font-size="10.00"> avatar</text>
</g>
<!-- Node25 -->
<g id="node25" class="node"><title>Node25</title>
<g id="a_node25"><a xlink:title=" ">
<polygon fill="white" stroke="#bfbfbf" points="198,-110.499 198,-129.499 244,-129.499 244,-110.499 198,-110.499"/>
<text text-anchor="middle" x="221" y="-117.499" font-family="Helvetica,sans-Serif" font-size="10.00">uint8_t</text>
</a>
</g>
</g>
<!-- Node25&#45;&gt;Node21 -->
<g id="edge31" class="edge"><title>Node25&#45;&gt;Node21</title>
<path fill="none" stroke="#9a32cd" stroke-dasharray="5,2" d="M254.101,-121.953C290.384,-124.407 351.149,-129.26 403,-136.999 418.1,-139.252 434.79,-142.615 448.395,-145.586"/>
<polygon fill="#9a32cd" stroke="#9a32cd" points="254.313,-118.459 244.105,-121.296 253.854,-125.444 254.313,-118.459"/>
<text text-anchor="middle" x="350" y="-139.999" font-family="Helvetica,sans-Serif" font-size="10.00"> refcount</text>
</g>
<!-- Node26 -->
<g id="node26" class="node"><title>Node26</title>
<g id="a_node26"><a xlink:href="structdpp_1_1cache__policy__t.html" target="_top" xlink:title="Represents the caching policy of the cluster.">
<polygon fill="white" stroke="black" points="425,-493.499 425,-512.499 529,-512.499 529,-493.499 425,-493.499"/>
<text text-anchor="middle" x="477" y="-500.499" font-family="Helvetica,sans-Serif" font-size="10.00">dpp::cache_policy_t</text>
</a>
</g>
</g>
<!-- Node26&#45;&gt;Node16 -->
<g id="edge32" class="edge"><title>Node26&#45;&gt;Node16</title>
<path fill="none" stroke="#9a32cd" stroke-dasharray="5,2" d="M539.352,-498.969C568.718,-495.594 603.945,-489.393 634,-477.999 657.908,-468.935 682.306,-451.526 696.254,-440.629"/>
<polygon fill="#9a32cd" stroke="#9a32cd" points="538.799,-495.508 529.227,-500.049 539.542,-502.469 538.799,-495.508"/>
<text text-anchor="middle" x="592.5" y="-499.999" font-family="Helvetica,sans-Serif" font-size="10.00"> cache_policy</text>
</g>
<!-- Node27 -->
<g id="node27" class="node"><title>Node27</title>
<g id="a_node27"><a xlink:title=" ">
<polygon fill="white" stroke="#bfbfbf" points="163,-344.499 163,-363.499 279,-363.499 279,-344.499 163,-344.499"/>
<text text-anchor="middle" x="221" y="-351.499" font-family="Helvetica,sans-Serif" font-size="10.00">cache_policy_setting_t</text>
</a>
</g>
</g>
<!-- Node27&#45;&gt;Node26 -->
<g id="edge33" class="edge"><title>Node27&#45;&gt;Node26</title>
<path fill="none" stroke="#9a32cd" stroke-dasharray="5,2" d="M289.506,-345.542C333.764,-341.615 386.396,-340.55 403,-354.999 445.011,-391.555 387.221,-434.725 421,-478.999 425.803,-485.294 432.601,-489.966 439.787,-493.425"/>
<polygon fill="#9a32cd" stroke="#9a32cd" points="288.962,-342.078 279.337,-346.506 289.623,-349.046 288.962,-342.078"/>
<text text-anchor="middle" x="350" y="-379.999" font-family="Helvetica,sans-Serif" font-size="10.00"> emoji_policy</text>
<text text-anchor="middle" x="350" y="-368.999" font-family="Helvetica,sans-Serif" font-size="10.00">role_policy</text>
<text text-anchor="middle" x="350" y="-357.999" font-family="Helvetica,sans-Serif" font-size="10.00">user_policy</text>
</g>
<!-- Node28 -->
<g id="node28" class="node"><title>Node28</title>
<g id="a_node28"><a xlink:title=" ">
<polygon fill="white" stroke="#bfbfbf" points="421,-290.499 421,-309.499 533,-309.499 533,-290.499 421,-290.499"/>
<text text-anchor="middle" x="477" y="-297.499" font-family="Helvetica,sans-Serif" font-size="10.00">websocket_protocol_t</text>
</a>
</g>
</g>
<!-- Node28&#45;&gt;Node5 -->
<g id="edge43" class="edge"><title>Node28&#45;&gt;Node5</title>
<path fill="none" stroke="#9a32cd" stroke-dasharray="5,2" d="M543.294,-306.074C627.67,-314.168 779.056,-329.516 908,-346.999 913.742,-347.777 919.759,-348.633 925.724,-349.507"/>
<polygon fill="#9a32cd" stroke="#9a32cd" points="543.38,-302.566 533.093,-305.099 542.714,-309.535 543.38,-302.566"/>
<text text-anchor="middle" x="709" y="-332.999" font-family="Helvetica,sans-Serif" font-size="10.00"> protocol</text>
</g>
<!-- Node28&#45;&gt;Node16 -->
<g id="edge34" class="edge"><title>Node28&#45;&gt;Node16</title>
<path fill="none" stroke="#9a32cd" stroke-dasharray="5,2" d="M517.777,-313.023C522.939,-314.922 528.124,-316.937 533,-318.999 579.315,-338.587 591.895,-342.503 634,-369.999 658.256,-385.839 683.725,-408.327 697.553,-421.108"/>
<polygon fill="#9a32cd" stroke="#9a32cd" points="518.558,-309.586 507.964,-309.53 516.211,-316.181 518.558,-309.586"/>
<text text-anchor="middle" x="592.5" y="-372.999" font-family="Helvetica,sans-Serif" font-size="10.00"> ws_mode</text>
</g>
<!-- Node29 -->
<g id="node29" class="node"><title>Node29</title>
<g id="a_node29"><a xlink:title=" ">
<polygon fill="white" stroke="#bfbfbf" points="658.5,-93.4988 658.5,-112.499 759.5,-112.499 759.5,-93.4988 658.5,-93.4988"/>
<text text-anchor="middle" x="709" y="-100.499" font-family="Helvetica,sans-Serif" font-size="10.00">native_handle_type</text>
</a>
</g>
</g>
<!-- Node29&#45;&gt;Node5 -->
<g id="edge37" class="edge"><title>Node29&#45;&gt;Node5</title>
<path fill="none" stroke="#9a32cd" stroke-dasharray="5,2" d="M758.882,-91.6973C802.83,-84.5902 866.651,-82.2511 908,-115.999 945.389,-146.515 967.642,-306.038 972.826,-347.266"/>
<polygon fill="#9a32cd" stroke="#9a32cd" points="758.239,-88.2565 748.993,-93.4301 759.447,-95.1514 758.239,-88.2565"/>
<text text-anchor="middle" x="846" y="-118.999" font-family="Helvetica,sans-Serif" font-size="10.00"> thread_id</text>
</g>
<!-- Node30 -->
<g id="node30" class="node"><title>Node30</title>
<g id="a_node30"><a xlink:title=" ">
<polygon fill="white" stroke="#bfbfbf" points="677.5,-55.4988 677.5,-74.4988 740.5,-74.4988 740.5,-55.4988 677.5,-55.4988"/>
<text text-anchor="middle" x="709" y="-62.4988" font-family="Helvetica,sans-Serif" font-size="10.00">std::mutex</text>
</a>
</g>
</g>
<!-- Node30&#45;&gt;Node5 -->
<g id="edge40" class="edge"><title>Node30&#45;&gt;Node5</title>
<path fill="none" stroke="#9a32cd" stroke-dasharray="5,2" d="M750.584,-53.6161C794.543,-43.9548 864.235,-36.7737 908,-72.9988 951.966,-109.391 969.687,-302.03 973.285,-347.415"/>
<polygon fill="#9a32cd" stroke="#9a32cd" points="749.747,-50.2174 740.805,-55.8996 751.338,-57.0341 749.747,-50.2174"/>
<text text-anchor="middle" x="846" y="-75.9988" font-family="Helvetica,sans-Serif" font-size="10.00"> voice_mutex</text>
</g>
<!-- Node31 -->
<g id="node31" class="node"><title>Node31</title>
<g id="a_node31"><a xlink:title=" ">
<polygon fill="white" stroke="#bfbfbf" points="664.5,-608.499 664.5,-627.499 753.5,-627.499 753.5,-608.499 664.5,-608.499"/>
<text text-anchor="middle" x="709" y="-615.499" font-family="Helvetica,sans-Serif" font-size="10.00">unordered_map&lt;</text>
</a>
</g>
</g>
<!-- Node31&#45;&gt;Node5 -->
<g id="edge44" class="edge"><title>Node31&#45;&gt;Node5</title>
<path fill="none" stroke="#9a32cd" stroke-dasharray="5,2" d="M764.034,-624.243C808.021,-626.218 869.004,-621.431 908,-586.999 975.886,-527.058 976.014,-402.417 974.556,-366.735"/>
<polygon fill="#9a32cd" stroke="#9a32cd" points="763.989,-620.734 753.803,-623.649 763.583,-627.722 763.989,-620.734"/>
<text text-anchor="middle" x="846" y="-627.999" font-family="Helvetica,sans-Serif" font-size="10.00"> connecting_voice_channels</text>
</g>
<!-- Node32 -->
<g id="node32" class="node"><title>Node32</title>
<g id="a_node32"><a xlink:title=" ">
<polygon fill="white" stroke="#bfbfbf" points="1114.5,-616.499 1114.5,-635.499 1164.5,-635.499 1164.5,-616.499 1114.5,-616.499"/>
<text text-anchor="middle" x="1139.5" y="-623.499" font-family="Helvetica,sans-Serif" font-size="10.00">loglevel</text>
</a>
</g>
</g>
<!-- Node32&#45;&gt;Node1 -->
<g id="edge45" class="edge"><title>Node32&#45;&gt;Node1</title>
<path fill="none" stroke="#9a32cd" stroke-dasharray="5,2" d="M1174.55,-632.029C1196.75,-636.203 1226.26,-642.214 1252,-648.999 1258.07,-650.599 1264.52,-652.527 1270.61,-654.46"/>
<polygon fill="#9a32cd" stroke="#9a32cd" points="1175.07,-628.565 1164.6,-630.188 1173.8,-635.449 1175.07,-628.565"/>
<text text-anchor="middle" x="1233" y="-651.999" font-family="Helvetica,sans-Serif" font-size="10.00"> severity</text>
</g>
</g>
</svg>
