<?xml version="1.0" encoding="UTF-8" standalone="no"?>
<!DOCTYPE svg PUBLIC "-//W3C//DTD SVG 1.1//EN"
 "http://www.w3.org/Graphics/SVG/1.1/DTD/svg11.dtd">
<!-- Generated by graphviz version 2.38.0 (20140413.2041)
 -->
<!-- Title: dpp::log_t Pages: 1 -->
<!--zoomable 1025 -->
<svg id="main" version="1.1" xmlns="http://www.w3.org/2000/svg" xmlns:xlink="http://www.w3.org/1999/xlink" xml:space="preserve" onload="init(evt)">
<style type="text/css"><![CDATA[
.edge:hover path { stroke: red; }
.edge:hover polygon { stroke: red; fill: red; }
]]></style>
<script type="text/javascript"><![CDATA[
var edges = document.getElementsByTagName('g');
if (edges && edges.length) {
  for (var i=0;i<edges.length;i++) {
    if (edges[i].id.substr(0,4)=='edge') {
      edges[i].setAttribute('class','edge');
    }
  }
}
]]></script>
        <defs>
                <circle id="rim" cx="0" cy="0" r="7"/>
                <circle id="rim2" cx="0" cy="0" r="3.5"/>
                <g id="zoomPlus">
                        <use xlink:href="#rim" fill="#404040">
                                <set attributeName="fill" to="#808080" begin="zoomplus.mouseover" end="zoomplus.mouseout"/>
                        </use>
                        <path d="M-4,0h8M0,-4v8" fill="none" stroke="white" stroke-width="1.5" pointer-events="none"/>
                </g>
                <g id="zoomMin">
                        <use xlink:href="#rim" fill="#404040">
                                <set attributeName="fill" to="#808080" begin="zoomminus.mouseover" end="zoomminus.mouseout"/>
                        </use>
                        <path d="M-4,0h8" fill="none" stroke="white" stroke-width="1.5" pointer-events="none"/>
                </g>
                <g id="dirArrow">
                        <path fill="none" stroke="white" stroke-width="1.5" d="M0,-3.0v7 M-2.5,-0.5L0,-3.0L2.5,-0.5"/>
                </g>
               <g id="resetDef">
                       <use xlink:href="#rim2" fill="#404040">
                               <set attributeName="fill" to="#808080" begin="reset.mouseover" end="reset.mouseout"/>
                       </use>
               </g>
        </defs>

<script type="text/javascript">
var viewWidth = 1337;
var viewHeight = 1025;
var sectionId = 'dynsection-1';
</script>
<script xlink:href="svgpan.js"/>
<svg id="graph" class="graph">
<g id="viewport">
<title>dpp::log_t</title>
<polygon fill="white" stroke="none" points="-4,4 -4,-1021 1333,-1021 1333,4 -4,4"/>
<!-- Node1 -->
<g id="node1" class="node"><title>Node1</title>
<g id="a_node1"><a xlink:title="Log messages.">
<polygon fill="#bfbfbf" stroke="black" points="1270,-927.5 1270,-946.5 1329,-946.5 1329,-927.5 1270,-927.5"/>
<text text-anchor="middle" x="1299.5" y="-934.5" font-family="Helvetica,sans-Serif" font-size="10.00">dpp::log_t</text>
</a>
</g>
</g>
<!-- Node2 -->
<g id="node2" class="node"><title>Node2</title>
<g id="a_node2"><a xlink:href="structdpp_1_1event__dispatch__t.html" target="_top" xlink:title="Base event parameter struct.">
<polygon fill="white" stroke="black" points="1083,-927.5 1083,-946.5 1196,-946.5 1196,-927.5 1083,-927.5"/>
<text text-anchor="middle" x="1139.5" y="-934.5" font-family="Helvetica,sans-Serif" font-size="10.00">dpp::event_dispatch_t</text>
</a>
</g>
</g>
<!-- Node2&#45;&gt;Node1 -->
<g id="edge1" class="edge"><title>Node2&#45;&gt;Node1</title>
<path fill="none" stroke="midnightblue" d="M1206.27,-937C1228.45,-937 1252.07,-937 1269.85,-937"/>
<polygon fill="midnightblue" stroke="midnightblue" points="1206.2,-933.5 1196.2,-937 1206.2,-940.5 1206.2,-933.5"/>
</g>
<!-- Node3 -->
<g id="node3" class="node"><title>Node3</title>
<g id="a_node3"><a xlink:title=" ">
<polygon fill="white" stroke="#bfbfbf" points="191,-864.5 191,-883.5 251,-883.5 251,-864.5 191,-864.5"/>
<text text-anchor="middle" x="221" y="-871.5" font-family="Helvetica,sans-Serif" font-size="10.00">std::string</text>
</a>
</g>
</g>
<!-- Node3&#45;&gt;Node1 -->
<g id="edge46" class="edge"><title>Node3&#45;&gt;Node1</title>
<path fill="none" stroke="#9a32cd" stroke-dasharray="5,2" d="M236.226,-891.644C249.971,-907.296 272.294,-929.29 297,-940 347.8,-962.023 365.704,-949.163 421,-952 714.841,-967.075 788.774,-955.111 1083,-956 1158.14,-956.227 1178.22,-965.247 1252,-951 1257.96,-949.849 1264.25,-948.238 1270.2,-946.517"/>
<polygon fill="#9a32cd" stroke="#9a32cd" points="238.645,-889.084 229.512,-883.713 233.302,-893.607 238.645,-889.084"/>
<text text-anchor="middle" x="846" y="-962" font-family="Helvetica,sans-Serif" font-size="10.00"> message</text>
</g>
<!-- Node3&#45;&gt;Node2 -->
<g id="edge2" class="edge"><title>Node3&#45;&gt;Node2</title>
<path fill="none" stroke="#9a32cd" stroke-dasharray="5,2" d="M244.328,-889.135C258.735,-898.143 278.228,-908.96 297,-915 373.302,-939.55 395.846,-937 476,-937 476,-937 476,-937 976,-937 1011.55,-937 1051.47,-937 1082.85,-937"/>
<polygon fill="#9a32cd" stroke="#9a32cd" points="245.956,-886.02 235.654,-883.546 242.164,-891.905 245.956,-886.02"/>
<text text-anchor="middle" x="709" y="-940" font-family="Helvetica,sans-Serif" font-size="10.00"> raw_event</text>
</g>
<!-- Node5 -->
<g id="node5" class="node"><title>Node5</title>
<g id="a_node5"><a xlink:href="classdpp_1_1discord__client.html" target="_top" xlink:title="Implements a discord client. Each discord_client connects to one shard and derives from a websocket c...">
<polygon fill="white" stroke="black" points="926,-632.5 926,-651.5 1024,-651.5 1024,-632.5 926,-632.5"/>
<text text-anchor="middle" x="975" y="-639.5" font-family="Helvetica,sans-Serif" font-size="10.00">dpp::discord_client</text>
</a>
</g>
</g>
<!-- Node3&#45;&gt;Node5 -->
<g id="edge39" class="edge"><title>Node3&#45;&gt;Node5</title>
<path fill="none" stroke="#9a32cd" stroke-dasharray="5,2" d="M255.301,-887.097C268.123,-891.488 283.038,-895.82 297,-898 343.547,-905.266 356.536,-905.78 403,-898 637.134,-858.795 713.755,-860.472 908,-724 936.411,-704.039 959.005,-668.539 968.767,-651.56"/>
<polygon fill="#9a32cd" stroke="#9a32cd" points="256.12,-883.673 245.525,-883.603 253.764,-890.264 256.12,-883.673"/>
<text text-anchor="middle" x="592.5" y="-888" font-family="Helvetica,sans-Serif" font-size="10.00"> sessionid</text>
<text text-anchor="middle" x="592.5" y="-877" font-family="Helvetica,sans-Serif" font-size="10.00">token</text>
</g>
<!-- Node7 -->
<g id="node7" class="node"><title>Node7</title>
<g id="a_node7"><a xlink:href="classdpp_1_1ssl__client.html" target="_top" xlink:title="Implements a simple non&#45;blocking SSL stream client.">
<polygon fill="white" stroke="black" points="437,-689.5 437,-708.5 517,-708.5 517,-689.5 437,-689.5"/>
<text text-anchor="middle" x="477" y="-696.5" font-family="Helvetica,sans-Serif" font-size="10.00">dpp::ssl_client</text>
</a>
</g>
</g>
<!-- Node3&#45;&gt;Node7 -->
<g id="edge7" class="edge"><title>Node3&#45;&gt;Node7</title>
<path fill="none" stroke="#9a32cd" stroke-dasharray="5,2" d="M237.701,-856.657C251.87,-841.989 273.972,-821.43 297,-809 340.086,-785.744 361.348,-804.736 403,-779 433.231,-760.321 458.613,-725.618 469.829,-708.733"/>
<polygon fill="#9a32cd" stroke="#9a32cd" points="234.992,-854.428 230.689,-864.11 240.09,-859.224 234.992,-854.428"/>
<text text-anchor="middle" x="350" y="-856" font-family="Helvetica,sans-Serif" font-size="10.00"> buffer</text>
<text text-anchor="middle" x="350" y="-845" font-family="Helvetica,sans-Serif" font-size="10.00">cipher</text>
<text text-anchor="middle" x="350" y="-834" font-family="Helvetica,sans-Serif" font-size="10.00">hostname</text>
<text text-anchor="middle" x="350" y="-823" font-family="Helvetica,sans-Serif" font-size="10.00">obuffer</text>
<text text-anchor="middle" x="350" y="-812" font-family="Helvetica,sans-Serif" font-size="10.00">port</text>
</g>
<!-- Node16 -->
<g id="node16" class="node"><title>Node16</title>
<g id="a_node16"><a xlink:href="classdpp_1_1cluster.html" target="_top" xlink:title="The cluster class represents a group of shards and a command queue for sending and receiving commands...">
<polygon fill="white" stroke="black" points="675,-430.5 675,-449.5 743,-449.5 743,-430.5 675,-430.5"/>
<text text-anchor="middle" x="709" y="-437.5" font-family="Helvetica,sans-Serif" font-size="10.00">dpp::cluster</text>
</a>
</g>
</g>
<!-- Node3&#45;&gt;Node16 -->
<g id="edge17" class="edge"><title>Node3&#45;&gt;Node16</title>
<path fill="none" stroke="#9a32cd" stroke-dasharray="5,2" d="M235.688,-856.429C247.847,-840.402 265.701,-815.812 279,-793 288.412,-776.855 282.627,-766.944 297,-755 334.477,-723.858 371.566,-764.232 403,-727 431.787,-692.903 391.744,-560.696 421,-527 452.876,-490.287 588.28,-493.54 634,-477 654.666,-469.524 677.062,-457.768 691.738,-449.518"/>
<polygon fill="#9a32cd" stroke="#9a32cd" points="232.894,-854.321 229.584,-864.386 238.448,-858.582 232.894,-854.321"/>
<text text-anchor="middle" x="477" y="-530" font-family="Helvetica,sans-Serif" font-size="10.00"> token</text>
</g>
<!-- Node20 -->
<g id="node20" class="node"><title>Node20</title>
<g id="a_node20"><a xlink:href="classdpp_1_1user.html" target="_top" xlink:title="Represents a user on discord. May or may not be a member of a dpp::guild.">
<polygon fill="white" stroke="black" points="448.5,-226.5 448.5,-245.5 505.5,-245.5 505.5,-226.5 448.5,-226.5"/>
<text text-anchor="middle" x="477" y="-233.5" font-family="Helvetica,sans-Serif" font-size="10.00">dpp::user</text>
</a>
</g>
</g>
<!-- Node3&#45;&gt;Node20 -->
<g id="edge26" class="edge"><title>Node3&#45;&gt;Node20</title>
<path fill="none" stroke="#9a32cd" stroke-dasharray="5,2" d="M238.808,-856.424C252.356,-841.038 270.501,-817.387 279,-793 290.463,-760.105 274.246,-506.377 297,-480 328.429,-443.568 370.551,-493.527 403,-458 426.683,-432.07 407.06,-333.232 421,-301 430.858,-278.206 451.464,-257.336 464.466,-245.681"/>
<polygon fill="#9a32cd" stroke="#9a32cd" points="235.989,-854.322 231.845,-864.073 241.165,-859.034 235.989,-854.322"/>
<text text-anchor="middle" x="350" y="-483" font-family="Helvetica,sans-Serif" font-size="10.00"> username</text>
</g>
<!-- Node4 -->
<g id="node4" class="node"><title>Node4</title>
<g id="a_node4"><a xlink:title=" ">
<polygon fill="white" stroke="#bfbfbf" points="0,-859 0,-889 95,-889 95,-859 0,-859"/>
<text text-anchor="start" x="8" y="-877" font-family="Helvetica,sans-Serif" font-size="10.00">std::basic_string&lt;</text>
<text text-anchor="middle" x="47.5" y="-866" font-family="Helvetica,sans-Serif" font-size="10.00"> Char &gt;</text>
</a>
</g>
</g>
<!-- Node4&#45;&gt;Node3 -->
<g id="edge3" class="edge"><title>Node4&#45;&gt;Node3</title>
<path fill="none" stroke="midnightblue" d="M105.658,-874C134.266,-874 167.668,-874 190.956,-874"/>
<polygon fill="midnightblue" stroke="midnightblue" points="105.363,-870.5 95.3631,-874 105.363,-877.5 105.363,-870.5"/>
</g>
<!-- Node5&#45;&gt;Node2 -->
<g id="edge4" class="edge"><title>Node5&#45;&gt;Node2</title>
<path fill="none" stroke="#9a32cd" stroke-dasharray="5,2" d="M978,-661.785C984.11,-711.895 1007.02,-844.999 1083,-918 1087.04,-921.881 1091.9,-924.971 1097.05,-927.431"/>
<polygon fill="#9a32cd" stroke="#9a32cd" points="981.456,-661.2 976.861,-651.654 974.5,-661.982 981.456,-661.2"/>
<text text-anchor="middle" x="1053.5" y="-898" font-family="Helvetica,sans-Serif" font-size="10.00"> from</text>
</g>
<!-- Node6 -->
<g id="node6" class="node"><title>Node6</title>
<g id="a_node6"><a xlink:href="classdpp_1_1websocket__client.html" target="_top" xlink:title="Implements a websocket client based on the SSL client.">
<polygon fill="white" stroke="black" points="652,-670.5 652,-689.5 766,-689.5 766,-670.5 652,-670.5"/>
<text text-anchor="middle" x="709" y="-677.5" font-family="Helvetica,sans-Serif" font-size="10.00">dpp::websocket_client</text>
</a>
</g>
</g>
<!-- Node6&#45;&gt;Node5 -->
<g id="edge5" class="edge"><title>Node6&#45;&gt;Node5</title>
<path fill="none" stroke="midnightblue" d="M776.158,-673.46C814.735,-669.278 864.259,-663.275 908,-656 915.742,-654.712 923.952,-653.14 931.855,-651.52"/>
<polygon fill="midnightblue" stroke="midnightblue" points="775.661,-669.993 766.09,-674.537 776.406,-676.953 775.661,-669.993"/>
</g>
<!-- Node7&#45;&gt;Node6 -->
<g id="edge6" class="edge"><title>Node7&#45;&gt;Node6</title>
<path fill="none" stroke="midnightblue" d="M527.436,-694.916C564.017,-691.894 613.887,-687.775 651.949,-684.63"/>
<polygon fill="midnightblue" stroke="midnightblue" points="526.694,-691.465 517.016,-695.777 527.271,-698.442 526.694,-691.465"/>
</g>
<!-- Node8 -->
<g id="node8" class="node"><title>Node8</title>
<g id="a_node8"><a xlink:title=" ">
<polygon fill="white" stroke="#bfbfbf" points="203.5,-940.5 203.5,-959.5 238.5,-959.5 238.5,-940.5 203.5,-940.5"/>
<text text-anchor="middle" x="221" y="-947.5" font-family="Helvetica,sans-Serif" font-size="10.00">bool</text>
</a>
</g>
</g>
<!-- Node8&#45;&gt;Node5 -->
<g id="edge42" class="edge"><title>Node8&#45;&gt;Node5</title>
<path fill="none" stroke="#9a32cd" stroke-dasharray="5,2" d="M243.624,-965.218C258.011,-974.384 277.74,-985.185 297,-990 429.686,-1023.17 811.867,-1013.29 908,-916 946.605,-876.932 968.258,-695.667 973.002,-651.65"/>
<polygon fill="#9a32cd" stroke="#9a32cd" points="245.271,-962.111 235,-959.511 241.407,-967.949 245.271,-962.111"/>
<text text-anchor="middle" x="592.5" y="-1009" font-family="Helvetica,sans-Serif" font-size="10.00"> ready</text>
</g>
<!-- Node8&#45;&gt;Node7 -->
<g id="edge8" class="edge"><title>Node8&#45;&gt;Node7</title>
<path fill="none" stroke="#9a32cd" stroke-dasharray="5,2" d="M248.497,-943.718C287.162,-933.304 359.194,-909.007 403,-864 448.881,-816.862 468.611,-736.029 474.22,-708.502"/>
<polygon fill="#9a32cd" stroke="#9a32cd" points="247.335,-940.404 238.528,-946.293 249.085,-947.181 247.335,-940.404"/>
<text text-anchor="middle" x="350" y="-931" font-family="Helvetica,sans-Serif" font-size="10.00"> nonblocking</text>
</g>
<!-- Node9 -->
<g id="node9" class="node"><title>Node9</title>
<g id="a_node9"><a xlink:title=" ">
<polygon fill="white" stroke="#bfbfbf" points="206.5,-722.5 206.5,-741.5 235.5,-741.5 235.5,-722.5 206.5,-722.5"/>
<text text-anchor="middle" x="221" y="-729.5" font-family="Helvetica,sans-Serif" font-size="10.00">int</text>
</a>
</g>
</g>
<!-- Node9&#45;&gt;Node7 -->
<g id="edge9" class="edge"><title>Node9&#45;&gt;Node7</title>
<path fill="none" stroke="#9a32cd" stroke-dasharray="5,2" d="M245.64,-728.929C289.381,-723.246 383.345,-711.038 436.765,-704.097"/>
<polygon fill="#9a32cd" stroke="#9a32cd" points="245.122,-725.466 235.656,-730.226 246.024,-732.408 245.122,-725.466"/>
<text text-anchor="middle" x="350" y="-726" font-family="Helvetica,sans-Serif" font-size="10.00"> sfd</text>
</g>
<!-- Node10 -->
<g id="node10" class="node"><title>Node10</title>
<g id="a_node10"><a xlink:href="classdpp_1_1opensslcontext.html" target="_top" xlink:title=" ">
<polygon fill="white" stroke="black" points="169,-764.5 169,-783.5 273,-783.5 273,-764.5 169,-764.5"/>
<text text-anchor="middle" x="221" y="-771.5" font-family="Helvetica,sans-Serif" font-size="10.00">dpp::opensslcontext</text>
</a>
</g>
</g>
<!-- Node10&#45;&gt;Node7 -->
<g id="edge10" class="edge"><title>Node10&#45;&gt;Node7</title>
<path fill="none" stroke="#9a32cd" stroke-dasharray="5,2" d="M283.262,-766.402C318.901,-760.858 364.285,-751.847 403,-738 424.241,-730.402 446.885,-717.455 461.222,-708.578"/>
<polygon fill="#9a32cd" stroke="#9a32cd" points="282.378,-762.995 273.009,-767.943 283.419,-769.918 282.378,-762.995"/>
<text text-anchor="middle" x="350" y="-767" font-family="Helvetica,sans-Serif" font-size="10.00"> ssl</text>
</g>
<!-- Node11 -->
<g id="node11" class="node"><title>Node11</title>
<g id="a_node11"><a xlink:title=" ">
<polygon fill="white" stroke="#bfbfbf" points="26.5,-745.5 26.5,-764.5 68.5,-764.5 68.5,-745.5 26.5,-745.5"/>
<text text-anchor="middle" x="47.5" y="-752.5" font-family="Helvetica,sans-Serif" font-size="10.00">SSL *</text>
</a>
</g>
</g>
<!-- Node11&#45;&gt;Node10 -->
<g id="edge11" class="edge"><title>Node11&#45;&gt;Node10</title>
<path fill="none" stroke="#9a32cd" stroke-dasharray="5,2" d="M78.7111,-755.536C97.7778,-756.129 122.894,-757.376 145,-760 154.47,-761.124 164.546,-762.723 174.138,-764.442"/>
<polygon fill="#9a32cd" stroke="#9a32cd" points="78.6161,-752.032 68.526,-755.264 78.4287,-759.03 78.6161,-752.032"/>
<text text-anchor="middle" x="129" y="-763" font-family="Helvetica,sans-Serif" font-size="10.00"> ssl</text>
</g>
<!-- Node12 -->
<g id="node12" class="node"><title>Node12</title>
<g id="a_node12"><a xlink:title=" ">
<polygon fill="white" stroke="#bfbfbf" points="13.5,-783.5 13.5,-802.5 81.5,-802.5 81.5,-783.5 13.5,-783.5"/>
<text text-anchor="middle" x="47.5" y="-790.5" font-family="Helvetica,sans-Serif" font-size="10.00">SSL_CTX *</text>
</a>
</g>
</g>
<!-- Node12&#45;&gt;Node10 -->
<g id="edge12" class="edge"><title>Node12&#45;&gt;Node10</title>
<path fill="none" stroke="#9a32cd" stroke-dasharray="5,2" d="M91.5701,-788.228C115.024,-785.63 144.195,-782.398 168.806,-779.672"/>
<polygon fill="#9a32cd" stroke="#9a32cd" points="91.1207,-784.757 81.5669,-789.337 91.8915,-791.714 91.1207,-784.757"/>
<text text-anchor="middle" x="129" y="-789" font-family="Helvetica,sans-Serif" font-size="10.00"> ctx</text>
</g>
<!-- Node13 -->
<g id="node13" class="node"><title>Node13</title>
<g id="a_node13"><a xlink:title=" ">
<polygon fill="white" stroke="#bfbfbf" points="199,-613.5 199,-632.5 243,-632.5 243,-613.5 199,-613.5"/>
<text text-anchor="middle" x="221" y="-620.5" font-family="Helvetica,sans-Serif" font-size="10.00">time_t</text>
</a>
</g>
</g>
<!-- Node13&#45;&gt;Node5 -->
<g id="edge36" class="edge"><title>Node13&#45;&gt;Node5</title>
<path fill="none" stroke="#9a32cd" stroke-dasharray="5,2" d="M253.404,-623.793C370.775,-626.759 784.18,-637.204 925.903,-640.785"/>
<polygon fill="#9a32cd" stroke="#9a32cd" points="253.38,-620.292 243.295,-623.538 253.203,-627.29 253.38,-620.292"/>
<text text-anchor="middle" x="592.5" y="-648" font-family="Helvetica,sans-Serif" font-size="10.00"> last_heartbeat</text>
<text text-anchor="middle" x="592.5" y="-637" font-family="Helvetica,sans-Serif" font-size="10.00">last_heartbeat_ack</text>
</g>
<!-- Node13&#45;&gt;Node7 -->
<g id="edge13" class="edge"><title>Node13&#45;&gt;Node7</title>
<path fill="none" stroke="#9a32cd" stroke-dasharray="5,2" d="M253.201,-627.567C297.433,-634.261 375.998,-647.024 403,-657 425.219,-665.209 448.55,-679.847 462.688,-689.491"/>
<polygon fill="#9a32cd" stroke="#9a32cd" points="253.677,-624.099 243.269,-626.078 252.64,-631.022 253.677,-624.099"/>
<text text-anchor="middle" x="350" y="-660" font-family="Helvetica,sans-Serif" font-size="10.00"> last_tick</text>
</g>
<!-- Node13&#45;&gt;Node16 -->
<g id="edge18" class="edge"><title>Node13&#45;&gt;Node16</title>
<path fill="none" stroke="#9a32cd" stroke-dasharray="5,2" d="M235.855,-605.199C249.86,-588.096 272.833,-562.359 297,-545 339.307,-514.612 368.313,-533.86 403,-495 419.566,-476.441 400.828,-456.559 421,-442 460.645,-413.385 608.17,-427.467 674.874,-435.6"/>
<polygon fill="#9a32cd" stroke="#9a32cd" points="232.913,-603.274 229.39,-613.266 238.375,-607.652 232.913,-603.274"/>
<text text-anchor="middle" x="477" y="-445" font-family="Helvetica,sans-Serif" font-size="10.00"> last_identify</text>
</g>
<!-- Node14 -->
<g id="node14" class="node"><title>Node14</title>
<g id="a_node14"><a xlink:title=" ">
<polygon fill="white" stroke="#bfbfbf" points="22,-450.5 22,-469.5 73,-469.5 73,-450.5 22,-450.5"/>
<text text-anchor="middle" x="47.5" y="-457.5" font-family="Helvetica,sans-Serif" font-size="10.00">uint64_t</text>
</a>
</g>
</g>
<!-- Node14&#45;&gt;Node5 -->
<g id="edge38" class="edge"><title>Node14&#45;&gt;Node5</title>
<path fill="none" stroke="#9a32cd" stroke-dasharray="5,2" d="M83.1314,-463.804C167.568,-473.366 378.904,-499.132 403,-520 422.762,-537.115 400.823,-559.376 421,-576 463.057,-610.652 853.896,-627.499 908,-634 913.73,-634.688 919.739,-635.413 925.7,-636.134"/>
<polygon fill="#9a32cd" stroke="#9a32cd" points="83.3467,-460.307 73.0184,-462.668 82.5651,-467.263 83.3467,-460.307"/>
<text text-anchor="middle" x="477" y="-606" font-family="Helvetica,sans-Serif" font-size="10.00"> last_seq</text>
</g>
<!-- Node14&#45;&gt;Node7 -->
<g id="edge14" class="edge"><title>Node14&#45;&gt;Node7</title>
<path fill="none" stroke="#9a32cd" stroke-dasharray="5,2" d="M54.9089,-479.735C68.3514,-517.779 103.289,-601.111 163,-642 247.423,-699.812 373.564,-703.803 436.839,-701.592"/>
<polygon fill="#9a32cd" stroke="#9a32cd" points="58.089,-478.216 51.5533,-469.877 51.4624,-480.472 58.089,-478.216"/>
<text text-anchor="middle" x="221" y="-703" font-family="Helvetica,sans-Serif" font-size="10.00"> bytes_in</text>
<text text-anchor="middle" x="221" y="-692" font-family="Helvetica,sans-Serif" font-size="10.00">bytes_out</text>
</g>
<!-- Node21 -->
<g id="node21" class="node"><title>Node21</title>
<g id="a_node21"><a xlink:href="classdpp_1_1managed.html" target="_top" xlink:title="The managed class is the base class for various types that can be stored in a cache that are identifi...">
<polygon fill="white" stroke="black" points="182,-238.5 182,-257.5 260,-257.5 260,-238.5 182,-238.5"/>
<text text-anchor="middle" x="221" y="-245.5" font-family="Helvetica,sans-Serif" font-size="10.00">dpp::managed</text>
</a>
</g>
</g>
<!-- Node14&#45;&gt;Node21 -->
<g id="edge25" class="edge"><title>Node14&#45;&gt;Node21</title>
<path fill="none" stroke="#9a32cd" stroke-dasharray="5,2" d="M54.7047,-440.832C68.1586,-402.251 103.672,-314.834 163,-267 168.522,-262.548 175.132,-259.12 181.863,-256.487"/>
<polygon fill="#9a32cd" stroke="#9a32cd" points="51.3755,-439.751 51.4935,-450.346 58.0078,-441.99 51.3755,-439.751"/>
<text text-anchor="middle" x="129" y="-325" font-family="Helvetica,sans-Serif" font-size="10.00"> id</text>
</g>
<!-- Node23 -->
<g id="node23" class="node"><title>Node23</title>
<g id="a_node23"><a xlink:href="structdpp_1_1utility_1_1iconhash.html" target="_top" xlink:title="Store a 128 bit icon hash (profile picture, server icon etc) as a 128 bit binary value made of two ui...">
<polygon fill="white" stroke="black" points="167.5,-162.5 167.5,-181.5 274.5,-181.5 274.5,-162.5 167.5,-162.5"/>
<text text-anchor="middle" x="221" y="-169.5" font-family="Helvetica,sans-Serif" font-size="10.00">dpp::utility::iconhash</text>
</a>
</g>
</g>
<!-- Node14&#45;&gt;Node23 -->
<g id="edge29" class="edge"><title>Node14&#45;&gt;Node23</title>
<path fill="none" stroke="#9a32cd" stroke-dasharray="5,2" d="M52.8543,-440.255C61.3481,-403.755 82.0472,-323.815 113,-262 130.281,-227.49 132.031,-214.033 163,-191 168.189,-187.14 174.208,-184.036 180.351,-181.547"/>
<polygon fill="#9a32cd" stroke="#9a32cd" points="49.4156,-439.593 50.6123,-450.12 56.2415,-441.144 49.4156,-439.593"/>
<text text-anchor="middle" x="129" y="-276" font-family="Helvetica,sans-Serif" font-size="10.00"> first</text>
<text text-anchor="middle" x="129" y="-265" font-family="Helvetica,sans-Serif" font-size="10.00">second</text>
</g>
<!-- Node15 -->
<g id="node15" class="node"><title>Node15</title>
<g id="a_node15"><a xlink:title=" ">
<polygon fill="white" stroke="#bfbfbf" points="192.5,-386.5 192.5,-405.5 249.5,-405.5 249.5,-386.5 192.5,-386.5"/>
<text text-anchor="middle" x="221" y="-393.5" font-family="Helvetica,sans-Serif" font-size="10.00">function&lt;</text>
</a>
</g>
</g>
<!-- Node15&#45;&gt;Node7 -->
<g id="edge15" class="edge"><title>Node15&#45;&gt;Node7</title>
<path fill="none" stroke="#9a32cd" stroke-dasharray="5,2" d="M233.879,-413.907C247.87,-434.437 272.343,-468.647 297,-495 339.62,-540.551 363.243,-538.93 403,-587 413.154,-599.277 412.52,-604.512 421,-618 437.557,-644.334 458.548,-674.41 469.173,-689.421"/>
<polygon fill="#9a32cd" stroke="#9a32cd" points="236.715,-411.853 228.225,-405.515 230.909,-415.764 236.715,-411.853"/>
<text text-anchor="middle" x="350" y="-623" font-family="Helvetica,sans-Serif" font-size="10.00"> custom_readable_fd</text>
<text text-anchor="middle" x="350" y="-612" font-family="Helvetica,sans-Serif" font-size="10.00">custom_readable_ready</text>
<text text-anchor="middle" x="350" y="-601" font-family="Helvetica,sans-Serif" font-size="10.00">custom_writeable_fd</text>
<text text-anchor="middle" x="350" y="-590" font-family="Helvetica,sans-Serif" font-size="10.00">custom_writeable_ready</text>
</g>
<!-- Node19 -->
<g id="node19" class="node"><title>Node19</title>
<g id="a_node19"><a xlink:href="classdpp_1_1dispatcher.html" target="_top" xlink:title="The dispatcher class contains a set of std::functions representing hooked events that the user code i...">
<polygon fill="white" stroke="black" points="435.5,-310.5 435.5,-329.5 518.5,-329.5 518.5,-310.5 435.5,-310.5"/>
<text text-anchor="middle" x="477" y="-317.5" font-family="Helvetica,sans-Serif" font-size="10.00">dpp::dispatcher</text>
</a>
</g>
</g>
<!-- Node15&#45;&gt;Node19 -->
<g id="edge22" class="edge"><title>Node15&#45;&gt;Node19</title>
<path fill="none" stroke="#9a32cd" stroke-dasharray="5,2" d="M230.82,-377.244C242.443,-355.019 265.2,-319.104 297,-304 348.011,-279.771 416.37,-297.802 452.046,-310.446"/>
<polygon fill="#9a32cd" stroke="#9a32cd" points="227.601,-375.857 226.272,-386.368 233.866,-378.98 227.601,-375.857"/>
<text text-anchor="start" x="301" y="-450" font-family="Helvetica,sans-Serif" font-size="10.00"> application_command</text>
<text text-anchor="middle" x="350" y="-439" font-family="Helvetica,sans-Serif" font-size="10.00">_create</text>
<text text-anchor="start" x="301" y="-428" font-family="Helvetica,sans-Serif" font-size="10.00">application_command</text>
<text text-anchor="middle" x="350" y="-417" font-family="Helvetica,sans-Serif" font-size="10.00">_delete</text>
<text text-anchor="start" x="301" y="-406" font-family="Helvetica,sans-Serif" font-size="10.00">application_command</text>
<text text-anchor="middle" x="350" y="-395" font-family="Helvetica,sans-Serif" font-size="10.00">_update</text>
<text text-anchor="middle" x="350" y="-384" font-family="Helvetica,sans-Serif" font-size="10.00">autocomplete</text>
<text text-anchor="middle" x="350" y="-373" font-family="Helvetica,sans-Serif" font-size="10.00">button_click</text>
<text text-anchor="middle" x="350" y="-362" font-family="Helvetica,sans-Serif" font-size="10.00">channel_create</text>
<text text-anchor="middle" x="350" y="-351" font-family="Helvetica,sans-Serif" font-size="10.00">channel_delete</text>
<text text-anchor="middle" x="350" y="-340" font-family="Helvetica,sans-Serif" font-size="10.00">channel_pins_update</text>
<text text-anchor="middle" x="350" y="-329" font-family="Helvetica,sans-Serif" font-size="10.00">channel_update</text>
<text text-anchor="middle" x="350" y="-318" font-family="Helvetica,sans-Serif" font-size="10.00">guild_ban_add</text>
<text text-anchor="middle" x="350" y="-307" font-family="Helvetica,sans-Serif" font-size="10.00">...</text>
</g>
<!-- Node16&#45;&gt;Node5 -->
<g id="edge16" class="edge"><title>Node16&#45;&gt;Node5</title>
<path fill="none" stroke="#9a32cd" stroke-dasharray="5,2" d="M753.07,-434.05C796.808,-430.474 864.169,-432.071 908,-467 962.089,-510.103 971.861,-602.628 973.617,-632.495"/>
<polygon fill="#9a32cd" stroke="#9a32cd" points="752.658,-430.573 743.03,-434.995 753.314,-437.543 752.658,-430.573"/>
<text text-anchor="middle" x="846" y="-470" font-family="Helvetica,sans-Serif" font-size="10.00"> creator</text>
</g>
<!-- Node17 -->
<g id="node17" class="node"><title>Node17</title>
<g id="a_node17"><a xlink:title=" ">
<polygon fill="white" stroke="#bfbfbf" points="195.5,-99.5 195.5,-118.5 246.5,-118.5 246.5,-99.5 195.5,-99.5"/>
<text text-anchor="middle" x="221" y="-106.5" font-family="Helvetica,sans-Serif" font-size="10.00">uint32_t</text>
</a>
</g>
</g>
<!-- Node17&#45;&gt;Node5 -->
<g id="edge35" class="edge"><title>Node17&#45;&gt;Node5</title>
<path fill="none" stroke="#9a32cd" stroke-dasharray="5,2" d="M256.367,-99.7359C342.786,-77.191 567.014,-23.5522 634,-55 806.563,-136.013 821.298,-215.225 908,-385 953.464,-474.026 969.275,-596.785 973.037,-632.122"/>
<polygon fill="#9a32cd" stroke="#9a32cd" points="255.312,-96.3944 246.532,-102.323 257.093,-103.164 255.312,-96.3944"/>
<text text-anchor="middle" x="592.5" y="-113" font-family="Helvetica,sans-Serif" font-size="10.00"> heartbeat_interval</text>
<text text-anchor="middle" x="592.5" y="-102" font-family="Helvetica,sans-Serif" font-size="10.00">intents</text>
<text text-anchor="middle" x="592.5" y="-91" font-family="Helvetica,sans-Serif" font-size="10.00">max_shards</text>
<text text-anchor="middle" x="592.5" y="-80" font-family="Helvetica,sans-Serif" font-size="10.00">reconnects</text>
<text text-anchor="middle" x="592.5" y="-69" font-family="Helvetica,sans-Serif" font-size="10.00">resumes</text>
<text text-anchor="middle" x="592.5" y="-58" font-family="Helvetica,sans-Serif" font-size="10.00">shard_id</text>
</g>
<!-- Node17&#45;&gt;Node16 -->
<g id="edge19" class="edge"><title>Node17&#45;&gt;Node16</title>
<path fill="none" stroke="#9a32cd" stroke-dasharray="5,2" d="M256.997,-108.39C317.882,-108.929 445.181,-117.28 533,-173 585.813,-206.509 606.235,-214.953 634,-271 663.806,-331.167 609.698,-368.856 652,-421 657.757,-428.096 666.279,-432.554 674.948,-435.352"/>
<polygon fill="#9a32cd" stroke="#9a32cd" points="256.778,-104.889 246.771,-108.369 256.764,-111.889 256.778,-104.889"/>
<text text-anchor="middle" x="477" y="-209" font-family="Helvetica,sans-Serif" font-size="10.00"> cluster_id</text>
<text text-anchor="middle" x="477" y="-198" font-family="Helvetica,sans-Serif" font-size="10.00">intents</text>
<text text-anchor="middle" x="477" y="-187" font-family="Helvetica,sans-Serif" font-size="10.00">maxclusters</text>
<text text-anchor="middle" x="477" y="-176" font-family="Helvetica,sans-Serif" font-size="10.00">numshards</text>
</g>
<!-- Node17&#45;&gt;Node20 -->
<g id="edge30" class="edge"><title>Node17&#45;&gt;Node20</title>
<path fill="none" stroke="#9a32cd" stroke-dasharray="5,2" d="M256.446,-116.555C302.246,-127.116 380.083,-147.021 403,-165 415.234,-174.597 410.569,-183.468 421,-195 432.345,-207.542 448.026,-218.785 459.743,-226.311"/>
<polygon fill="#9a32cd" stroke="#9a32cd" points="257.17,-113.13 246.642,-114.324 255.617,-119.956 257.17,-113.13"/>
<text text-anchor="middle" x="350" y="-168" font-family="Helvetica,sans-Serif" font-size="10.00"> flags</text>
</g>
<!-- Node18 -->
<g id="node18" class="node"><title>Node18</title>
<g id="a_node18"><a xlink:title=" ">
<polygon fill="white" stroke="#bfbfbf" points="454.5,-462.5 454.5,-481.5 499.5,-481.5 499.5,-462.5 454.5,-462.5"/>
<text text-anchor="middle" x="477" y="-469.5" font-family="Helvetica,sans-Serif" font-size="10.00">double</text>
</a>
</g>
</g>
<!-- Node18&#45;&gt;Node5 -->
<g id="edge41" class="edge"><title>Node18&#45;&gt;Node5</title>
<path fill="none" stroke="#9a32cd" stroke-dasharray="5,2" d="M509.722,-473.829C583.97,-479.304 772.976,-500.234 908,-576 933.72,-590.432 956.228,-617.702 967.091,-632.262"/>
<polygon fill="#9a32cd" stroke="#9a32cd" points="509.838,-470.329 499.62,-473.129 509.354,-477.312 509.838,-470.329"/>
<text text-anchor="middle" x="709" y="-522" font-family="Helvetica,sans-Serif" font-size="10.00"> websocket_ping</text>
</g>
<!-- Node18&#45;&gt;Node16 -->
<g id="edge20" class="edge"><title>Node18&#45;&gt;Node16</title>
<path fill="none" stroke="#9a32cd" stroke-dasharray="5,2" d="M509.637,-467.598C553.038,-461.56 630.676,-450.758 674.854,-444.612"/>
<polygon fill="#9a32cd" stroke="#9a32cd" points="509.06,-464.145 499.638,-468.99 510.025,-471.078 509.06,-464.145"/>
<text text-anchor="middle" x="592.5" y="-465" font-family="Helvetica,sans-Serif" font-size="10.00"> rest_ping</text>
</g>
<!-- Node19&#45;&gt;Node16 -->
<g id="edge21" class="edge"><title>Node19&#45;&gt;Node16</title>
<path fill="none" stroke="#9a32cd" stroke-dasharray="5,2" d="M505.74,-334.434C537.365,-351.167 590.334,-380.039 634,-408 642.311,-413.321 643.23,-416.476 652,-421 659.117,-424.672 667.095,-427.87 674.75,-430.542"/>
<polygon fill="#9a32cd" stroke="#9a32cd" points="507.123,-331.207 496.644,-329.646 503.862,-337.401 507.123,-331.207"/>
<text text-anchor="middle" x="592.5" y="-411" font-family="Helvetica,sans-Serif" font-size="10.00"> dispatch</text>
</g>
<!-- Node20&#45;&gt;Node16 -->
<g id="edge23" class="edge"><title>Node20&#45;&gt;Node16</title>
<path fill="none" stroke="#9a32cd" stroke-dasharray="5,2" d="M509.849,-249.871C545.649,-267.137 602.832,-300.057 634,-346 653.245,-374.368 628.895,-395.677 652,-421 658.02,-427.598 666.416,-431.906 674.878,-434.718"/>
<polygon fill="#9a32cd" stroke="#9a32cd" points="511.337,-246.703 500.797,-245.619 508.36,-253.039 511.337,-246.703"/>
<text text-anchor="middle" x="592.5" y="-349" font-family="Helvetica,sans-Serif" font-size="10.00"> me</text>
</g>
<!-- Node21&#45;&gt;Node20 -->
<g id="edge24" class="edge"><title>Node21&#45;&gt;Node20</title>
<path fill="none" stroke="midnightblue" d="M270.146,-245.725C322.849,-243.235 405.531,-239.329 448.303,-237.309"/>
<polygon fill="midnightblue" stroke="midnightblue" points="269.85,-242.235 260.026,-246.203 270.18,-249.228 269.85,-242.235"/>
</g>
<!-- Node22 -->
<g id="node22" class="node"><title>Node22</title>
<g id="a_node22"><a xlink:title=" ">
<polygon fill="white" stroke="#bfbfbf" points="195.5,-276.5 195.5,-295.5 246.5,-295.5 246.5,-276.5 195.5,-276.5"/>
<text text-anchor="middle" x="221" y="-283.5" font-family="Helvetica,sans-Serif" font-size="10.00">uint16_t</text>
</a>
</g>
</g>
<!-- Node22&#45;&gt;Node20 -->
<g id="edge27" class="edge"><title>Node22&#45;&gt;Node20</title>
<path fill="none" stroke="#9a32cd" stroke-dasharray="5,2" d="M256.775,-278.411C269.426,-275.695 283.847,-272.652 297,-270 350.489,-259.216 413.167,-247.528 448.364,-241.05"/>
<polygon fill="#9a32cd" stroke="#9a32cd" points="255.667,-275.07 246.63,-280.6 257.143,-281.912 255.667,-275.07"/>
<text text-anchor="middle" x="350" y="-273" font-family="Helvetica,sans-Serif" font-size="10.00"> discriminator</text>
</g>
<!-- Node23&#45;&gt;Node20 -->
<g id="edge28" class="edge"><title>Node23&#45;&gt;Node20</title>
<path fill="none" stroke="#9a32cd" stroke-dasharray="5,2" d="M284.965,-177.579C320.243,-181.818 364.71,-189.031 403,-201 423.256,-207.332 445.014,-218.371 459.455,-226.362"/>
<polygon fill="#9a32cd" stroke="#9a32cd" points="285.136,-174.075 274.801,-176.409 284.336,-181.029 285.136,-174.075"/>
<text text-anchor="middle" x="350" y="-204" font-family="Helvetica,sans-Serif" font-size="10.00"> avatar</text>
</g>
<!-- Node24 -->
<g id="node24" class="node"><title>Node24</title>
<g id="a_node24"><a xlink:title=" ">
<polygon fill="white" stroke="#bfbfbf" points="198,-200.5 198,-219.5 244,-219.5 244,-200.5 198,-200.5"/>
<text text-anchor="middle" x="221" y="-207.5" font-family="Helvetica,sans-Serif" font-size="10.00">uint8_t</text>
</a>
</g>
</g>
<!-- Node24&#45;&gt;Node20 -->
<g id="edge31" class="edge"><title>Node24&#45;&gt;Node20</title>
<path fill="none" stroke="#9a32cd" stroke-dasharray="5,2" d="M254.038,-212.005C290.264,-214.423 350.978,-218.932 403,-225 418.022,-226.752 434.705,-229.226 448.327,-231.384"/>
<polygon fill="#9a32cd" stroke="#9a32cd" points="254.266,-208.513 244.058,-211.351 253.808,-215.498 254.266,-208.513"/>
<text text-anchor="middle" x="350" y="-228" font-family="Helvetica,sans-Serif" font-size="10.00"> refcount</text>
</g>
<!-- Node25 -->
<g id="node25" class="node"><title>Node25</title>
<g id="a_node25"><a xlink:href="structdpp_1_1cache__policy__t.html" target="_top" xlink:title="Represents the caching policy of the cluster.">
<polygon fill="white" stroke="black" points="425,-5.5 425,-24.5 529,-24.5 529,-5.5 425,-5.5"/>
<text text-anchor="middle" x="477" y="-12.5" font-family="Helvetica,sans-Serif" font-size="10.00">dpp::cache_policy_t</text>
</a>
</g>
</g>
<!-- Node25&#45;&gt;Node16 -->
<g id="edge32" class="edge"><title>Node25&#45;&gt;Node16</title>
<path fill="none" stroke="#9a32cd" stroke-dasharray="5,2" d="M485.549,-33.9946C496.342,-58.6923 518.534,-101.447 551,-125 581.984,-147.478 609.837,-118.311 634,-148 672.379,-195.154 614.975,-372.775 652,-421 657.627,-428.329 666.219,-432.853 674.995,-435.639"/>
<polygon fill="#9a32cd" stroke="#9a32cd" points="488.716,-32.4958 481.625,-24.624 482.259,-35.1998 488.716,-32.4958"/>
<text text-anchor="middle" x="592.5" y="-151" font-family="Helvetica,sans-Serif" font-size="10.00"> cache_policy</text>
</g>
<!-- Node26 -->
<g id="node26" class="node"><title>Node26</title>
<g id="a_node26"><a xlink:title=" ">
<polygon fill="white" stroke="#bfbfbf" points="163,-0.5 163,-19.5 279,-19.5 279,-0.5 163,-0.5"/>
<text text-anchor="middle" x="221" y="-7.5" font-family="Helvetica,sans-Serif" font-size="10.00">cache_policy_setting_t</text>
</a>
</g>
</g>
<!-- Node26&#45;&gt;Node25 -->
<g id="edge33" class="edge"><title>Node26&#45;&gt;Node25</title>
<path fill="none" stroke="#9a32cd" stroke-dasharray="5,2" d="M289.381,-9.58481C323.445,-9.57501 365.426,-9.86747 403,-11 410.105,-11.2141 417.594,-11.526 424.96,-11.8826"/>
<polygon fill="#9a32cd" stroke="#9a32cd" points="289.072,-6.08508 279.077,-9.59696 289.081,-13.0851 289.072,-6.08508"/>
<text text-anchor="middle" x="350" y="-36" font-family="Helvetica,sans-Serif" font-size="10.00"> emoji_policy</text>
<text text-anchor="middle" x="350" y="-25" font-family="Helvetica,sans-Serif" font-size="10.00">role_policy</text>
<text text-anchor="middle" x="350" y="-14" font-family="Helvetica,sans-Serif" font-size="10.00">user_policy</text>
</g>
<!-- Node27 -->
<g id="node27" class="node"><title>Node27</title>
<g id="a_node27"><a xlink:title=" ">
<polygon fill="white" stroke="#bfbfbf" points="421,-547.5 421,-566.5 533,-566.5 533,-547.5 421,-547.5"/>
<text text-anchor="middle" x="477" y="-554.5" font-family="Helvetica,sans-Serif" font-size="10.00">websocket_protocol_t</text>
</a>
</g>
</g>
<!-- Node27&#45;&gt;Node5 -->
<g id="edge43" class="edge"><title>Node27&#45;&gt;Node5</title>
<path fill="none" stroke="#9a32cd" stroke-dasharray="5,2" d="M543.342,-561.524C661.57,-569.777 899.624,-586.729 908,-590 931.643,-599.233 953.637,-619.938 965.301,-632.254"/>
<polygon fill="#9a32cd" stroke="#9a32cd" points="543.538,-558.029 533.318,-560.825 543.051,-565.012 543.538,-558.029"/>
<text text-anchor="middle" x="709" y="-581" font-family="Helvetica,sans-Serif" font-size="10.00"> protocol</text>
</g>
<!-- Node27&#45;&gt;Node16 -->
<g id="edge34" class="edge"><title>Node27&#45;&gt;Node16</title>
<path fill="none" stroke="#9a32cd" stroke-dasharray="5,2" d="M543.474,-551.602C579.879,-547.322 620.499,-540.005 634,-528 654.17,-510.064 634.82,-490.817 652,-470 659.441,-460.983 670.322,-454.29 680.517,-449.542"/>
<polygon fill="#9a32cd" stroke="#9a32cd" points="542.895,-548.145 533.344,-552.73 543.67,-555.102 542.895,-548.145"/>
<text text-anchor="middle" x="592.5" y="-554" font-family="Helvetica,sans-Serif" font-size="10.00"> ws_mode</text>
</g>
<!-- Node28 -->
<g id="node28" class="node"><title>Node28</title>
<g id="a_node28"><a xlink:title=" ">
<polygon fill="white" stroke="#bfbfbf" points="658.5,-392.5 658.5,-411.5 759.5,-411.5 759.5,-392.5 658.5,-392.5"/>
<text text-anchor="middle" x="709" y="-399.5" font-family="Helvetica,sans-Serif" font-size="10.00">native_handle_type</text>
</a>
</g>
</g>
<!-- Node28&#45;&gt;Node5 -->
<g id="edge37" class="edge"><title>Node28&#45;&gt;Node5</title>
<path fill="none" stroke="#9a32cd" stroke-dasharray="5,2" d="M764.319,-391.018C807.926,-385.489 868.233,-385.681 908,-418 942.844,-446.318 966.801,-593.326 972.626,-632.435"/>
<polygon fill="#9a32cd" stroke="#9a32cd" points="763.587,-387.586 754.172,-392.444 764.562,-394.518 763.587,-387.586"/>
<text text-anchor="middle" x="846" y="-421" font-family="Helvetica,sans-Serif" font-size="10.00"> thread_id</text>
</g>
<!-- Node29 -->
<g id="node29" class="node"><title>Node29</title>
<g id="a_node29"><a xlink:title=" ">
<polygon fill="white" stroke="#bfbfbf" points="677.5,-881.5 677.5,-900.5 740.5,-900.5 740.5,-881.5 677.5,-881.5"/>
<text text-anchor="middle" x="709" y="-888.5" font-family="Helvetica,sans-Serif" font-size="10.00">std::mutex</text>
</a>
</g>
</g>
<!-- Node29&#45;&gt;Node5 -->
<g id="edge40" class="edge"><title>Node29&#45;&gt;Node5</title>
<path fill="none" stroke="#9a32cd" stroke-dasharray="5,2" d="M750.916,-898.081C794.938,-903.234 864.47,-903.892 908,-867 975.701,-809.623 975.959,-686.805 974.544,-651.608"/>
<polygon fill="#9a32cd" stroke="#9a32cd" points="751.215,-894.59 740.847,-896.772 750.313,-901.532 751.215,-894.59"/>
<text text-anchor="middle" x="846" y="-904" font-family="Helvetica,sans-Serif" font-size="10.00"> voice_mutex</text>
</g>
<!-- Node30 -->
<g id="node30" class="node"><title>Node30</title>
<g id="a_node30"><a xlink:title=" ">
<polygon fill="white" stroke="#bfbfbf" points="664.5,-708.5 664.5,-727.5 753.5,-727.5 753.5,-708.5 664.5,-708.5"/>
<text text-anchor="middle" x="709" y="-715.5" font-family="Helvetica,sans-Serif" font-size="10.00">unordered_map&lt;</text>
</a>
</g>
</g>
<!-- Node30&#45;&gt;Node5 -->
<g id="edge44" class="edge"><title>Node30&#45;&gt;Node5</title>
<path fill="none" stroke="#9a32cd" stroke-dasharray="5,2" d="M763.506,-712.123C804.072,-706.563 860.716,-696.405 908,-679 926.984,-672.012 947.012,-660.042 959.958,-651.613"/>
<polygon fill="#9a32cd" stroke="#9a32cd" points="763.01,-708.658 753.555,-713.439 763.927,-715.598 763.01,-708.658"/>
<text text-anchor="middle" x="846" y="-712" font-family="Helvetica,sans-Serif" font-size="10.00"> connecting_voice_channels</text>
</g>
<!-- Node31 -->
<g id="node31" class="node"><title>Node31</title>
<g id="a_node31"><a xlink:title=" ">
<polygon fill="white" stroke="#bfbfbf" points="1114.5,-889.5 1114.5,-908.5 1164.5,-908.5 1164.5,-889.5 1114.5,-889.5"/>
<text text-anchor="middle" x="1139.5" y="-896.5" font-family="Helvetica,sans-Serif" font-size="10.00">loglevel</text>
</a>
</g>
</g>
<!-- Node31&#45;&gt;Node1 -->
<g id="edge45" class="edge"><title>Node31&#45;&gt;Node1</title>
<path fill="none" stroke="#9a32cd" stroke-dasharray="5,2" d="M1174.55,-905.03C1196.75,-909.204 1226.26,-915.215 1252,-922 1258.07,-923.6 1264.52,-925.528 1270.61,-927.461"/>
<polygon fill="#9a32cd" stroke="#9a32cd" points="1175.07,-901.567 1164.6,-903.189 1173.8,-908.45 1175.07,-901.567"/>
<text text-anchor="middle" x="1233" y="-925" font-family="Helvetica,sans-Serif" font-size="10.00"> severity</text>
</g>
</g>
</svg>
        <g id="navigator" transform="translate(0 0)" fill="#404254">
                <rect fill="#f2f5e9" fill-opacity="0.5" stroke="#606060" stroke-width=".5" x="0" y="0" width="60" height="60"/>
                <use id="zoomplus" xlink:href="#zoomPlus" x="17" y="9" onmousedown="handleZoom(evt,'in')"/>
                <use id="zoomminus" xlink:href="#zoomMin" x="42" y="9" onmousedown="handleZoom(evt,'out')"/>
                <use id="reset" xlink:href="#resetDef" x="30" y="36" onmousedown="handleReset()"/>
                <g id="arrowUp" xlink:href="#dirArrow" transform="translate(30 24)" onmousedown="handlePan(0,-1)">
                  <use xlink:href="#rim" fill="#404040">
                        <set attributeName="fill" to="#808080" begin="arrowUp.mouseover" end="arrowUp.mouseout"/>
                  </use>
                  <path fill="none" stroke="white" stroke-width="1.5" d="M0,-3.0v7 M-2.5,-0.5L0,-3.0L2.5,-0.5"/>
                </g>
                <g id="arrowRight" xlink:href="#dirArrow" transform="rotate(90) translate(36 -43)" onmousedown="handlePan(1,0)">
                  <use xlink:href="#rim" fill="#404040">
                        <set attributeName="fill" to="#808080" begin="arrowRight.mouseover" end="arrowRight.mouseout"/>
                  </use>
                  <path fill="none" stroke="white" stroke-width="1.5" d="M0,-3.0v7 M-2.5,-0.5L0,-3.0L2.5,-0.5"/>
                </g>
                <g id="arrowDown" xlink:href="#dirArrow" transform="rotate(180) translate(-30 -48)" onmousedown="handlePan(0,1)">
                  <use xlink:href="#rim" fill="#404040">
                        <set attributeName="fill" to="#808080" begin="arrowDown.mouseover" end="arrowDown.mouseout"/>
                  </use>
                  <path fill="none" stroke="white" stroke-width="1.5" d="M0,-3.0v7 M-2.5,-0.5L0,-3.0L2.5,-0.5"/>
                </g>
                <g id="arrowLeft" xlink:href="#dirArrow" transform="rotate(270) translate(-36 17)" onmousedown="handlePan(-1,0)">
                  <use xlink:href="#rim" fill="#404040">
                        <set attributeName="fill" to="#808080" begin="arrowLeft.mouseover" end="arrowLeft.mouseout"/>
                  </use>
                  <path fill="none" stroke="white" stroke-width="1.5" d="M0,-3.0v7 M-2.5,-0.5L0,-3.0L2.5,-0.5"/>
                </g>
        </g>
        <svg viewBox="0 0 15 15" width="100%" height="30px" preserveAspectRatio="xMaxYMin meet">
         <g id="arrow_out" transform="scale(0.3 0.3)">
          <a xlink:href="structdpp_1_1log__t__coll__graph_org.svg" target="_base">
           <rect id="button" ry="5" rx="5" y="6" x="6" height="38" width="38"
                fill="#f2f5e9" fill-opacity="0.5" stroke="#606060" stroke-width="1.0"/>
           <path id="arrow"
             d="M 11.500037,31.436501 C 11.940474,20.09759 22.043105,11.32322 32.158766,21.979434 L 37.068811,17.246167 C 37.068811,17.246167 37.088388,32 37.088388,32 L 22.160133,31.978069 C 22.160133,31.978069 26.997745,27.140456 26.997745,27.140456 C 18.528582,18.264221 13.291696,25.230495 11.500037,31.436501 z"
             style="fill:#404040;"/>
          </a>
         </g>
        </svg>
</svg>
