<?xml version="1.0" encoding="UTF-8" standalone="no"?>
<!DOCTYPE svg PUBLIC "-//W3C//DTD SVG 1.1//EN"
 "http://www.w3.org/Graphics/SVG/1.1/DTD/svg11.dtd">
<!-- Generated by graphviz version 2.38.0 (20140413.2041)
 -->
<!-- Title: detail::chrono_formatter&lt; FormatContext, OutputIt, Rep, Period &gt; Pages: 1 -->
<svg width="374pt" height="252pt"
 viewBox="0.00 0.00 374.00 251.50" xmlns="http://www.w3.org/2000/svg" xmlns:xlink="http://www.w3.org/1999/xlink">
<g id="graph0" class="graph" transform="scale(1 1) rotate(0) translate(4 247.5)">
<title>detail::chrono_formatter&lt; FormatContext, OutputIt, Rep, Period &gt;</title>
<polygon fill="white" stroke="none" points="-4,4 -4,-247.5 370,-247.5 370,4 -4,4"/>
<!-- Node1 -->
<g id="node1" class="node"><title>Node1</title>
<polygon fill="#bfbfbf" stroke="black" points="231,-84.5 231,-125.5 366,-125.5 366,-84.5 231,-84.5"/>
<text text-anchor="start" x="239" y="-113.5" font-family="Helvetica,sans-Serif" font-size="10.00">detail::chrono_formatter</text>
<text text-anchor="start" x="239" y="-102.5" font-family="Helvetica,sans-Serif" font-size="10.00">&lt; FormatContext, OutputIt,</text>
<text text-anchor="middle" x="298.5" y="-91.5" font-family="Helvetica,sans-Serif" font-size="10.00"> Rep, Period &gt;</text>
</g>
<!-- Node2 -->
<g id="node2" class="node"><title>Node2</title>
<polygon fill="white" stroke="#bfbfbf" points="0,-191 0,-243 152,-243 152,-191 0,-191"/>
<text text-anchor="start" x="8" y="-231" font-family="Helvetica,sans-Serif" font-size="10.00">value &amp;&amp;sizeof(Rep)</text>
<text text-anchor="start" x="8" y="-220" font-family="Helvetica,sans-Serif" font-size="10.00">&lt; sizeof(int), unsigned,</text>
<text text-anchor="start" x="8" y="-209" font-family="Helvetica,sans-Serif" font-size="10.00"> typename make_unsigned</text>
<text text-anchor="middle" x="76" y="-198" font-family="Helvetica,sans-Serif" font-size="10.00">_or_unchanged&lt; Rep &gt;::type &gt;</text>
</g>
<!-- Node2&#45;&gt;Node1 -->
<g id="edge1" class="edge"><title>Node2&#45;&gt;Node1</title>
<path fill="none" stroke="#9a32cd" stroke-dasharray="5,2" d="M150.153,-186.909C170.751,-177.851 192.989,-167.509 213,-157 231.148,-147.469 250.683,-135.563 266.394,-125.549"/>
<polygon fill="#9a32cd" stroke="#9a32cd" points="148.587,-183.773 140.818,-190.977 151.383,-190.19 148.587,-183.773"/>
<text text-anchor="middle" x="191.5" y="-180" font-family="Helvetica,sans-Serif" font-size="10.00"> val</text>
</g>
<!-- Node3 -->
<g id="node3" class="node"><title>Node3</title>
<polygon fill="white" stroke="#bfbfbf" points="30,-152.5 30,-171.5 122,-171.5 122,-152.5 30,-152.5"/>
<text text-anchor="middle" x="76" y="-159.5" font-family="Helvetica,sans-Serif" font-size="10.00">FormatContext &amp;</text>
</g>
<!-- Node3&#45;&gt;Node1 -->
<g id="edge2" class="edge"><title>Node3&#45;&gt;Node1</title>
<path fill="none" stroke="#9a32cd" stroke-dasharray="5,2" d="M132.192,-150.397C157,-144.931 186.578,-138.066 213,-131 219.376,-129.295 225.994,-127.429 232.593,-125.505"/>
<polygon fill="#9a32cd" stroke="#9a32cd" points="131.253,-147.019 122.231,-152.573 132.747,-153.858 131.253,-147.019"/>
<text text-anchor="middle" x="191.5" y="-145" font-family="Helvetica,sans-Serif" font-size="10.00"> context</text>
</g>
<!-- Node4 -->
<g id="node4" class="node"><title>Node4</title>
<polygon fill="white" stroke="#bfbfbf" points="50,-114.5 50,-133.5 102,-133.5 102,-114.5 50,-114.5"/>
<text text-anchor="middle" x="76" y="-121.5" font-family="Helvetica,sans-Serif" font-size="10.00">OutputIt</text>
</g>
<!-- Node4&#45;&gt;Node1 -->
<g id="edge3" class="edge"><title>Node4&#45;&gt;Node1</title>
<path fill="none" stroke="#9a32cd" stroke-dasharray="5,2" d="M112.446,-120.946C144.262,-118.204 191.809,-114.107 230.74,-110.753"/>
<polygon fill="#9a32cd" stroke="#9a32cd" points="111.957,-117.475 102.294,-121.82 112.558,-124.449 111.957,-117.475"/>
<text text-anchor="middle" x="191.5" y="-119" font-family="Helvetica,sans-Serif" font-size="10.00"> out</text>
</g>
<!-- Node5 -->
<g id="node5" class="node"><title>Node5</title>
<polygon fill="white" stroke="#bfbfbf" points="61.5,-76.5 61.5,-95.5 90.5,-95.5 90.5,-76.5 61.5,-76.5"/>
<text text-anchor="middle" x="76" y="-83.5" font-family="Helvetica,sans-Serif" font-size="10.00">int</text>
</g>
<!-- Node5&#45;&gt;Node1 -->
<g id="edge4" class="edge"><title>Node5&#45;&gt;Node1</title>
<path fill="none" stroke="#9a32cd" stroke-dasharray="5,2" d="M101.028,-88.0704C131.934,-90.7335 186.864,-95.4667 230.799,-99.2526"/>
<polygon fill="#9a32cd" stroke="#9a32cd" points="101.057,-84.56 90.7933,-87.1885 100.456,-91.5342 101.057,-84.56"/>
<text text-anchor="middle" x="191.5" y="-101" font-family="Helvetica,sans-Serif" font-size="10.00"> precision</text>
</g>
<!-- Node6 -->
<g id="node6" class="node"><title>Node6</title>
<polygon fill="white" stroke="#bfbfbf" points="58.5,-38.5 58.5,-57.5 93.5,-57.5 93.5,-38.5 58.5,-38.5"/>
<text text-anchor="middle" x="76" y="-45.5" font-family="Helvetica,sans-Serif" font-size="10.00">bool</text>
</g>
<!-- Node6&#45;&gt;Node1 -->
<g id="edge5" class="edge"><title>Node6&#45;&gt;Node1</title>
<path fill="none" stroke="#9a32cd" stroke-dasharray="5,2" d="M103.86,-53.8491C131.374,-59.9507 175.331,-70.0046 213,-80 218.767,-81.5302 224.738,-83.1745 230.717,-84.8624"/>
<polygon fill="#9a32cd" stroke="#9a32cd" points="104.345,-50.3719 93.8257,-51.6375 102.838,-57.2079 104.345,-50.3719"/>
<text text-anchor="middle" x="191.5" y="-83" font-family="Helvetica,sans-Serif" font-size="10.00"> negative</text>
</g>
<!-- Node7 -->
<g id="node7" class="node"><title>Node7</title>
<polygon fill="white" stroke="#bfbfbf" points="34.5,-0.5 34.5,-19.5 117.5,-19.5 117.5,-0.5 34.5,-0.5"/>
<text text-anchor="middle" x="76" y="-7.5" font-family="Helvetica,sans-Serif" font-size="10.00">duration&lt; rep &gt;</text>
</g>
<!-- Node7&#45;&gt;Node1 -->
<g id="edge6" class="edge"><title>Node7&#45;&gt;Node1</title>
<path fill="none" stroke="#9a32cd" stroke-dasharray="5,2" d="M127.685,-21.7015C135.876,-23.9181 144.219,-26.3737 152,-29 179.923,-38.4247 186.706,-41.6895 213,-55 230.49,-63.8535 249.318,-74.8426 264.753,-84.2619"/>
<polygon fill="#9a32cd" stroke="#9a32cd" points="128.375,-18.2645 117.815,-19.1208 126.604,-25.0368 128.375,-18.2645"/>
<text text-anchor="middle" x="191.5" y="-58" font-family="Helvetica,sans-Serif" font-size="10.00"> s</text>
</g>
</g>
</svg>
