<?xml version="1.0" encoding="UTF-8" standalone="no"?>
<!DOCTYPE svg PUBLIC "-//W3C//DTD SVG 1.1//EN"
 "http://www.w3.org/Graphics/SVG/1.1/DTD/svg11.dtd">
<!-- Generated by graphviz version 2.38.0 (20140413.2041)
 -->
<!-- Title: dpp::error_info Pages: 1 -->
<svg width="240pt" height="341pt"
 viewBox="0.00 0.00 240.00 341.00" xmlns="http://www.w3.org/2000/svg" xmlns:xlink="http://www.w3.org/1999/xlink">
<g id="graph0" class="graph" transform="scale(1 1) rotate(0) translate(4 337)">
<title>dpp::error_info</title>
<polygon fill="white" stroke="none" points="-4,4 -4,-337 236,-337 236,4 -4,4"/>
<!-- Node1 -->
<g id="node1" class="node"><title>Node1</title>
<polygon fill="#bfbfbf" stroke="black" points="67,-0.5 67,-19.5 146,-19.5 146,-0.5 67,-0.5"/>
<text text-anchor="middle" x="106.5" y="-7.5" font-family="Helvetica,sans-Serif" font-size="10.00">dpp::error_info</text>
</g>
<!-- Node2 -->
<g id="node2" class="node"><title>Node2</title>
<polygon fill="white" stroke="#bfbfbf" points="50,-67.5 50,-97.5 163,-97.5 163,-67.5 50,-67.5"/>
<text text-anchor="start" x="58" y="-85.5" font-family="Helvetica,sans-Serif" font-size="10.00">std::vector&lt; dpp::error</text>
<text text-anchor="middle" x="106.5" y="-74.5" font-family="Helvetica,sans-Serif" font-size="10.00">_detail &gt;</text>
</g>
<!-- Node2&#45;&gt;Node1 -->
<g id="edge1" class="edge"><title>Node2&#45;&gt;Node1</title>
<path fill="none" stroke="#9a32cd" stroke-dasharray="5,2" d="M106.5,-57.0913C106.5,-44.2136 106.5,-29.1974 106.5,-19.8932"/>
<polygon fill="#9a32cd" stroke="#9a32cd" points="103,-57.2332 106.5,-67.2333 110,-57.2333 103,-57.2332"/>
<text text-anchor="middle" x="120.5" y="-41" font-family="Helvetica,sans-Serif" font-size="10.00"> errors</text>
</g>
<!-- Node3 -->
<g id="node3" class="node"><title>Node3</title>
<g id="a_node3"><a xlink:href="structdpp_1_1error__detail.html" target="_top" xlink:title="The details of a field in an error response. ">
<polygon fill="white" stroke="black" points="52.5,-145.5 52.5,-164.5 138.5,-164.5 138.5,-145.5 52.5,-145.5"/>
<text text-anchor="middle" x="95.5" y="-152.5" font-family="Helvetica,sans-Serif" font-size="10.00">dpp::error_detail</text>
</a>
</g>
</g>
<!-- Node3&#45;&gt;Node2 -->
<g id="edge2" class="edge"><title>Node3&#45;&gt;Node2</title>
<path fill="none" stroke="#9a32cd" stroke-dasharray="5,2" d="M98.4277,-135.236C100.273,-123.408 102.618,-108.383 104.304,-97.5762"/>
<polygon fill="#9a32cd" stroke="#9a32cd" points="94.9324,-134.935 96.8488,-145.355 101.849,-136.014 94.9324,-134.935"/>
<text text-anchor="middle" x="123" y="-119" font-family="Helvetica,sans-Serif" font-size="10.00"> elements</text>
</g>
<!-- Node4 -->
<g id="node4" class="node"><title>Node4</title>
<g id="a_node4"><a xlink:title="STL class. ">
<polygon fill="white" stroke="#bfbfbf" points="17.5,-245.5 17.5,-264.5 77.5,-264.5 77.5,-245.5 17.5,-245.5"/>
<text text-anchor="middle" x="47.5" y="-252.5" font-family="Helvetica,sans-Serif" font-size="10.00">std::string</text>
</a>
</g>
</g>
<!-- Node4&#45;&gt;Node1 -->
<g id="edge6" class="edge"><title>Node4&#45;&gt;Node1</title>
<path fill="none" stroke="#9a32cd" stroke-dasharray="5,2" d="M41.5241,-235.503C31.3696,-200.649 14.2662,-123.664 40.5,-67 50.6014,-45.1815 73.8573,-28.7611 89.8787,-19.5141"/>
<polygon fill="#9a32cd" stroke="#9a32cd" points="38.2374,-236.724 44.5131,-245.26 44.9303,-234.673 38.2374,-236.724"/>
<text text-anchor="middle" x="50" y="-119" font-family="Helvetica,sans-Serif" font-size="10.00"> message</text>
</g>
<!-- Node4&#45;&gt;Node3 -->
<g id="edge3" class="edge"><title>Node4&#45;&gt;Node3</title>
<path fill="none" stroke="#9a32cd" stroke-dasharray="5,2" d="M56.2697,-236.095C66.6572,-214.887 83.5311,-180.436 91.3184,-164.537"/>
<polygon fill="#9a32cd" stroke="#9a32cd" points="53.0152,-234.783 51.7597,-245.303 59.3016,-237.862 53.0152,-234.783"/>
<text text-anchor="middle" x="98" y="-219" font-family="Helvetica,sans-Serif" font-size="10.00"> reason</text>
<text text-anchor="middle" x="98" y="-208" font-family="Helvetica,sans-Serif" font-size="10.00">field</text>
<text text-anchor="middle" x="98" y="-197" font-family="Helvetica,sans-Serif" font-size="10.00">code</text>
<text text-anchor="middle" x="98" y="-186" font-family="Helvetica,sans-Serif" font-size="10.00">object</text>
</g>
<!-- Node5 -->
<g id="node5" class="node"><title>Node5</title>
<g id="a_node5"><a xlink:title="STL class. ">
<polygon fill="white" stroke="#bfbfbf" points="0,-302.5 0,-332.5 95,-332.5 95,-302.5 0,-302.5"/>
<text text-anchor="start" x="8" y="-320.5" font-family="Helvetica,sans-Serif" font-size="10.00">std::basic_string&lt;</text>
<text text-anchor="middle" x="47.5" y="-309.5" font-family="Helvetica,sans-Serif" font-size="10.00"> char &gt;</text>
</a>
</g>
</g>
<!-- Node5&#45;&gt;Node4 -->
<g id="edge4" class="edge"><title>Node5&#45;&gt;Node4</title>
<path fill="none" stroke="midnightblue" d="M47.5,-292.352C47.5,-282.513 47.5,-271.775 47.5,-264.54"/>
<polygon fill="midnightblue" stroke="midnightblue" points="44.0001,-292.468 47.5,-302.468 51.0001,-292.468 44.0001,-292.468"/>
</g>
<!-- Node6 -->
<g id="node6" class="node"><title>Node6</title>
<polygon fill="white" stroke="#bfbfbf" points="181,-73 181,-92 232,-92 232,-73 181,-73"/>
<text text-anchor="middle" x="206.5" y="-80" font-family="Helvetica,sans-Serif" font-size="10.00">uint32_t</text>
</g>
<!-- Node6&#45;&gt;Node1 -->
<g id="edge5" class="edge"><title>Node6&#45;&gt;Node1</title>
<path fill="none" stroke="#9a32cd" stroke-dasharray="5,2" d="M186.008,-67.0528C165.818,-52.8194 135.635,-31.5399 118.862,-19.7154"/>
<polygon fill="#9a32cd" stroke="#9a32cd" points="184.048,-69.9538 194.238,-72.8553 188.082,-64.2327 184.048,-69.9538"/>
<text text-anchor="middle" x="172" y="-41" font-family="Helvetica,sans-Serif" font-size="10.00"> code</text>
</g>
</g>
</svg>
