<?xml version="1.0" encoding="UTF-8" standalone="no"?>
<!DOCTYPE svg PUBLIC "-//W3C//DTD SVG 1.1//EN"
 "http://www.w3.org/Graphics/SVG/1.1/DTD/svg11.dtd">
<!-- Generated by graphviz version 2.43.0 (0)
 -->
<!-- Title: dpp::confirmation_callback_t Pages: 1 -->
<svg width="1450pt" height="656pt"
 viewBox="0.00 0.00 1450.00 656.00" xmlns="http://www.w3.org/2000/svg" xmlns:xlink="http://www.w3.org/1999/xlink">
<g id="graph0" class="graph" transform="scale(1 1) rotate(0) translate(4 652)">
<title>dpp::confirmation_callback_t</title>
<!-- Node1 -->
<g id="node1" class="node">
<title>Node1</title>
<g id="a_node1"><a xlink:title="The results of a REST call wrapped in a convenient struct.">
<polygon fill="#bfbfbf" stroke="black" points="1285,-330.5 1285,-349.5 1442,-349.5 1442,-330.5 1285,-330.5"/>
<text text-anchor="middle" x="1363.5" y="-337.5" font-family="Helvetica,sans-Serif" font-size="10.00">dpp::confirmation_callback_t</text>
</a>
</g>
</g>
<!-- Node2 -->
<g id="node2" class="node">
<title>Node2</title>
<g id="a_node2"><a xlink:href="structdpp_1_1http__request__completion__t.html" target="_top" xlink:title="The result of any HTTP request. Contains the headers, vital rate limit figures, and returned request ...">
<polygon fill="none" stroke="black" points="466,-482.5 466,-501.5 637,-501.5 637,-482.5 466,-482.5"/>
<text text-anchor="middle" x="551.5" y="-489.5" font-family="Helvetica,sans-Serif" font-size="10.00">dpp::http_request_completion_t</text>
</a>
</g>
</g>
<!-- Node2&#45;&gt;Node1 -->
<g id="edge1" class="edge">
<title>Node2&#45;&gt;Node1</title>
<path fill="none" stroke="#9a32cd" stroke-dasharray="5,2" d="M618.5,-503C741.47,-520.58 1011.87,-545.29 1218,-464 1281.04,-439.14 1335.78,-374.58 1355.09,-349.84"/>
<polygon fill="#9a32cd" stroke="#9a32cd" points="618.88,-499.52 608.48,-501.54 617.87,-506.45 618.88,-499.52"/>
<text text-anchor="middle" x="1010" y="-523" font-family="Helvetica,sans-Serif" font-size="10.00"> http_info</text>
</g>
<!-- Node3 -->
<g id="node3" class="node">
<title>Node3</title>
<g id="a_node3"><a xlink:title=" ">
<polygon fill="none" stroke="#bfbfbf" points="261.5,-590.5 261.5,-609.5 308.5,-609.5 308.5,-590.5 261.5,-590.5"/>
<text text-anchor="middle" x="285" y="-597.5" font-family="Helvetica,sans-Serif" font-size="10.00">map&lt;</text>
</a>
</g>
</g>
<!-- Node3&#45;&gt;Node2 -->
<g id="edge2" class="edge">
<title>Node3&#45;&gt;Node2</title>
<path fill="none" stroke="#9a32cd" stroke-dasharray="5,2" d="M318.78,-593.4C352.14,-586.07 404.94,-572.73 448,-554 481.95,-539.23 518.24,-515.03 537.21,-501.65"/>
<polygon fill="#9a32cd" stroke="#9a32cd" points="317.71,-590.05 308.66,-595.57 319.17,-596.9 317.71,-590.05"/>
<text text-anchor="middle" x="407.5" y="-583" font-family="Helvetica,sans-Serif" font-size="10.00"> headers</text>
</g>
<!-- Node4 -->
<g id="node4" class="node">
<title>Node4</title>
<g id="a_node4"><a xlink:title=" ">
<polygon fill="none" stroke="#bfbfbf" points="257,-292.5 257,-311.5 313,-311.5 313,-292.5 257,-292.5"/>
<text text-anchor="middle" x="285" y="-299.5" font-family="Helvetica,sans-Serif" font-size="10.00">uint16_t</text>
</a>
</g>
</g>
<!-- Node4&#45;&gt;Node2 -->
<g id="edge3" class="edge">
<title>Node4&#45;&gt;Node2</title>
<path fill="none" stroke="#9a32cd" stroke-dasharray="5,2" d="M323.24,-311.87C360.52,-323.71 416.72,-347.25 448,-388 469.67,-416.22 441.76,-439.96 466,-466 472.8,-473.3 481.59,-478.57 490.93,-482.37"/>
<polygon fill="#9a32cd" stroke="#9a32cd" points="323.85,-308.39 313.26,-308.83 321.81,-315.09 323.85,-308.39"/>
<text text-anchor="middle" x="407.5" y="-391" font-family="Helvetica,sans-Serif" font-size="10.00"> status</text>
</g>
<!-- Node15 -->
<g id="node15" class="node">
<title>Node15</title>
<g id="a_node15"><a xlink:href="classdpp_1_1user.html" target="_top" xlink:title="Represents a user on discord. May or may not be a member of a dpp::guild.">
<polygon fill="none" stroke="black" points="520.5,-120.5 520.5,-139.5 582.5,-139.5 582.5,-120.5 520.5,-120.5"/>
<text text-anchor="middle" x="551.5" y="-127.5" font-family="Helvetica,sans-Serif" font-size="10.00">dpp::user</text>
</a>
</g>
</g>
<!-- Node4&#45;&gt;Node15 -->
<g id="edge25" class="edge">
<title>Node4&#45;&gt;Node15</title>
<path fill="none" stroke="#9a32cd" stroke-dasharray="5,2" d="M319.06,-288.62C365.15,-269.83 443.62,-237.33 448,-232 471.98,-202.85 439.41,-175.79 466,-149 480.09,-134.81 502.34,-130.23 520.48,-129.11"/>
<polygon fill="#9a32cd" stroke="#9a32cd" points="317.7,-285.4 309.75,-292.41 320.33,-291.88 317.7,-285.4"/>
<text text-anchor="middle" x="407.5" y="-271" font-family="Helvetica,sans-Serif" font-size="10.00"> discriminator</text>
</g>
<!-- Node5 -->
<g id="node5" class="node">
<title>Node5</title>
<g id="a_node5"><a xlink:title=" ">
<polygon fill="none" stroke="#bfbfbf" points="252.5,-552.5 252.5,-571.5 317.5,-571.5 317.5,-552.5 252.5,-552.5"/>
<text text-anchor="middle" x="285" y="-559.5" font-family="Helvetica,sans-Serif" font-size="10.00">http_error</text>
</a>
</g>
</g>
<!-- Node5&#45;&gt;Node2 -->
<g id="edge4" class="edge">
<title>Node5&#45;&gt;Node2</title>
<path fill="none" stroke="#9a32cd" stroke-dasharray="5,2" d="M327.44,-551.03C378.91,-537.41 465.85,-514.4 514.6,-501.5"/>
<polygon fill="#9a32cd" stroke="#9a32cd" points="326.41,-547.68 317.64,-553.63 328.2,-554.45 326.41,-547.68"/>
<text text-anchor="middle" x="407.5" y="-542" font-family="Helvetica,sans-Serif" font-size="10.00"> error</text>
</g>
<!-- Node6 -->
<g id="node6" class="node">
<title>Node6</title>
<g id="a_node6"><a xlink:title=" ">
<polygon fill="none" stroke="#bfbfbf" points="252.5,-381.5 252.5,-400.5 317.5,-400.5 317.5,-381.5 252.5,-381.5"/>
<text text-anchor="middle" x="285" y="-388.5" font-family="Helvetica,sans-Serif" font-size="10.00">std::string</text>
</a>
</g>
</g>
<!-- Node6&#45;&gt;Node2 -->
<g id="edge5" class="edge">
<title>Node6&#45;&gt;Node2</title>
<path fill="none" stroke="#9a32cd" stroke-dasharray="5,2" d="M327.92,-396.36C369.56,-402.41 429.75,-413.35 448,-428 462.57,-439.7 451.87,-453.77 466,-466 474.47,-473.33 484.98,-478.6 495.68,-482.38"/>
<polygon fill="#9a32cd" stroke="#9a32cd" points="328.16,-392.86 317.77,-394.93 327.19,-399.79 328.16,-392.86"/>
<text text-anchor="middle" x="407.5" y="-442" font-family="Helvetica,sans-Serif" font-size="10.00"> body</text>
<text text-anchor="middle" x="407.5" y="-431" font-family="Helvetica,sans-Serif" font-size="10.00">ratelimit_bucket</text>
</g>
<!-- Node12 -->
<g id="node12" class="node">
<title>Node12</title>
<g id="a_node12"><a xlink:href="classdpp_1_1cluster.html" target="_top" xlink:title="The cluster class represents a group of shards and a command queue for sending and receiving commands...">
<polygon fill="none" stroke="black" points="973,-187.5 973,-206.5 1047,-206.5 1047,-187.5 973,-187.5"/>
<text text-anchor="middle" x="1010" y="-194.5" font-family="Helvetica,sans-Serif" font-size="10.00">dpp::cluster</text>
</a>
</g>
</g>
<!-- Node6&#45;&gt;Node12 -->
<g id="edge12" class="edge">
<title>Node6&#45;&gt;Node12</title>
<path fill="none" stroke="#9a32cd" stroke-dasharray="5,2" d="M327.65,-386.7C361.69,-384.99 410.21,-386.78 448,-405 458.48,-410.05 455.47,-419.07 466,-424 542.23,-459.69 570.87,-433.33 655,-436 712.3,-437.82 741.84,-474.85 784,-436 820.07,-402.76 767.49,-250.86 802,-216 846.31,-171.25 926.39,-178.68 972.89,-187.94"/>
<polygon fill="#9a32cd" stroke="#9a32cd" points="327.33,-383.22 317.57,-387.33 327.77,-390.2 327.33,-383.22"/>
<text text-anchor="middle" x="551.5" y="-445" font-family="Helvetica,sans-Serif" font-size="10.00"> token</text>
</g>
<!-- Node6&#45;&gt;Node15 -->
<g id="edge21" class="edge">
<title>Node6&#45;&gt;Node15</title>
<path fill="none" stroke="#9a32cd" stroke-dasharray="5,2" d="M300.67,-373.69C315.85,-356.66 340.95,-330.83 367,-314 399.65,-292.91 424.17,-311.72 448,-281 484.29,-234.21 425.96,-192.62 466,-149 479.52,-134.27 501.8,-129.71 520.09,-128.74"/>
<polygon fill="#9a32cd" stroke="#9a32cd" points="298,-371.43 294.06,-381.27 303.27,-376.04 298,-371.43"/>
<text text-anchor="middle" x="407.5" y="-317" font-family="Helvetica,sans-Serif" font-size="10.00"> username</text>
</g>
<!-- Node7 -->
<g id="node7" class="node">
<title>Node7</title>
<g id="a_node7"><a xlink:title=" ">
<polygon fill="none" stroke="#bfbfbf" points="17,-376 17,-406 121,-406 121,-376 17,-376"/>
<text text-anchor="start" x="25" y="-394" font-family="Helvetica,sans-Serif" font-size="10.00">std::basic_string&lt;</text>
<text text-anchor="middle" x="69" y="-383" font-family="Helvetica,sans-Serif" font-size="10.00"> Char &gt;</text>
</a>
</g>
</g>
<!-- Node7&#45;&gt;Node6 -->
<g id="edge6" class="edge">
<title>Node7&#45;&gt;Node6</title>
<path fill="none" stroke="midnightblue" d="M131.33,-391C170.87,-391 220.64,-391 252.4,-391"/>
<polygon fill="midnightblue" stroke="midnightblue" points="131.26,-387.5 121.26,-391 131.26,-394.5 131.26,-387.5"/>
</g>
<!-- Node8 -->
<g id="node8" class="node">
<title>Node8</title>
<g id="a_node8"><a xlink:title=" ">
<polygon fill="none" stroke="#bfbfbf" points="41,-212.5 41,-231.5 97,-231.5 97,-212.5 41,-212.5"/>
<text text-anchor="middle" x="69" y="-219.5" font-family="Helvetica,sans-Serif" font-size="10.00">uint64_t</text>
</a>
</g>
</g>
<!-- Node8&#45;&gt;Node2 -->
<g id="edge7" class="edge">
<title>Node8&#45;&gt;Node2</title>
<path fill="none" stroke="#9a32cd" stroke-dasharray="5,2" d="M79.41,-240.74C105.33,-291.61 178.62,-430.3 221,-458 259.99,-483.49 381.58,-490.33 465.62,-491.92"/>
<polygon fill="#9a32cd" stroke="#9a32cd" points="82.39,-238.89 74.75,-231.55 76.15,-242.05 82.39,-238.89"/>
<text text-anchor="middle" x="285" y="-522" font-family="Helvetica,sans-Serif" font-size="10.00"> ratelimit_limit</text>
<text text-anchor="middle" x="285" y="-511" font-family="Helvetica,sans-Serif" font-size="10.00">ratelimit_remaining</text>
<text text-anchor="middle" x="285" y="-500" font-family="Helvetica,sans-Serif" font-size="10.00">ratelimit_reset_after</text>
<text text-anchor="middle" x="285" y="-489" font-family="Helvetica,sans-Serif" font-size="10.00">ratelimit_retry_after</text>
</g>
<!-- Node16 -->
<g id="node16" class="node">
<title>Node16</title>
<g id="a_node16"><a xlink:href="classdpp_1_1managed.html" target="_top" xlink:title="The managed class is the base class for various types that can be stored in a cache that are identifi...">
<polygon fill="none" stroke="black" points="242,-136.5 242,-155.5 328,-155.5 328,-136.5 242,-136.5"/>
<text text-anchor="middle" x="285" y="-143.5" font-family="Helvetica,sans-Serif" font-size="10.00">dpp::managed</text>
</a>
</g>
</g>
<!-- Node8&#45;&gt;Node16 -->
<g id="edge18" class="edge">
<title>Node8&#45;&gt;Node16</title>
<path fill="none" stroke="#9a32cd" stroke-dasharray="5,2" d="M103.57,-208.58C134.01,-196.58 180.23,-178.82 221,-165 230.63,-161.73 241.18,-158.44 250.84,-155.54"/>
<polygon fill="#9a32cd" stroke="#9a32cd" points="101.89,-205.48 93.88,-212.41 104.46,-211.99 101.89,-205.48"/>
<text text-anchor="middle" x="179.5" y="-191" font-family="Helvetica,sans-Serif" font-size="10.00"> id</text>
</g>
<!-- Node19 -->
<g id="node19" class="node">
<title>Node19</title>
<g id="a_node19"><a xlink:href="structdpp_1_1utility_1_1iconhash.html" target="_top" xlink:title="Store a 128 bit icon hash (profile picture, server icon etc) as a 128 bit binary value made of two ui...">
<polygon fill="none" stroke="black" points="226,-212.5 226,-231.5 344,-231.5 344,-212.5 226,-212.5"/>
<text text-anchor="middle" x="285" y="-219.5" font-family="Helvetica,sans-Serif" font-size="10.00">dpp::utility::iconhash</text>
</a>
</g>
</g>
<!-- Node8&#45;&gt;Node19 -->
<g id="edge23" class="edge">
<title>Node8&#45;&gt;Node19</title>
<path fill="none" stroke="#9a32cd" stroke-dasharray="5,2" d="M107.13,-222C139.8,-222 187.91,-222 225.7,-222"/>
<polygon fill="#9a32cd" stroke="#9a32cd" points="107.1,-218.5 97.1,-222 107.1,-225.5 107.1,-218.5"/>
<text text-anchor="middle" x="179.5" y="-236" font-family="Helvetica,sans-Serif" font-size="10.00"> first</text>
<text text-anchor="middle" x="179.5" y="-225" font-family="Helvetica,sans-Serif" font-size="10.00">second</text>
</g>
<!-- Node9 -->
<g id="node9" class="node">
<title>Node9</title>
<g id="a_node9"><a xlink:title=" ">
<polygon fill="none" stroke="#bfbfbf" points="266,-628.5 266,-647.5 304,-647.5 304,-628.5 266,-628.5"/>
<text text-anchor="middle" x="285" y="-635.5" font-family="Helvetica,sans-Serif" font-size="10.00">bool</text>
</a>
</g>
</g>
<!-- Node9&#45;&gt;Node2 -->
<g id="edge8" class="edge">
<title>Node9&#45;&gt;Node2</title>
<path fill="none" stroke="#9a32cd" stroke-dasharray="5,2" d="M314.27,-635.05C348.02,-630.54 405.25,-619.68 448,-595 491.26,-570.02 528.92,-522.07 543.76,-501.62"/>
<polygon fill="#9a32cd" stroke="#9a32cd" points="313.68,-631.59 304.19,-636.3 314.55,-638.54 313.68,-631.59"/>
<text text-anchor="middle" x="407.5" y="-628" font-family="Helvetica,sans-Serif" font-size="10.00"> ratelimit_global</text>
</g>
<!-- Node10 -->
<g id="node10" class="node">
<title>Node10</title>
<g id="a_node10"><a xlink:title=" ">
<polygon fill="none" stroke="#bfbfbf" points="260,-429.5 260,-448.5 310,-448.5 310,-429.5 260,-429.5"/>
<text text-anchor="middle" x="285" y="-436.5" font-family="Helvetica,sans-Serif" font-size="10.00">double</text>
</a>
</g>
</g>
<!-- Node10&#45;&gt;Node2 -->
<g id="edge9" class="edge">
<title>Node10&#45;&gt;Node2</title>
<path fill="none" stroke="#9a32cd" stroke-dasharray="5,2" d="M320.17,-445.31C352.99,-451.42 403.94,-461.06 448,-470 467.44,-473.95 488.91,-478.52 507.15,-482.47"/>
<polygon fill="#9a32cd" stroke="#9a32cd" points="320.66,-441.84 310.19,-443.45 319.38,-448.72 320.66,-441.84"/>
<text text-anchor="middle" x="407.5" y="-473" font-family="Helvetica,sans-Serif" font-size="10.00"> latency</text>
</g>
<!-- Node10&#45;&gt;Node12 -->
<g id="edge15" class="edge">
<title>Node10&#45;&gt;Node12</title>
<path fill="none" stroke="#9a32cd" stroke-dasharray="5,2" d="M317.77,-425.25C327.87,-420.65 339.02,-415.32 349,-410 357.27,-405.59 358.34,-402.59 367,-399 408.82,-381.65 421.3,-382.2 466,-375 501,-369.36 758.28,-373.4 784,-349 827.28,-307.95 758.92,-257.26 802,-216 847.35,-172.56 926.68,-179.4 972.85,-188.23"/>
<polygon fill="#9a32cd" stroke="#9a32cd" points="316.16,-422.14 308.47,-429.42 319.03,-428.52 316.16,-422.14"/>
<text text-anchor="middle" x="551.5" y="-378" font-family="Helvetica,sans-Serif" font-size="10.00"> rest_ping</text>
</g>
<!-- Node11 -->
<g id="node11" class="node">
<title>Node11</title>
<g id="a_node11"><a xlink:title=" ">
<polygon fill="none" stroke="#bfbfbf" points="802,-226 802,-454 1218,-454 1218,-226 802,-226"/>
<text text-anchor="start" x="810" y="-442" font-family="Helvetica,sans-Serif" font-size="10.00">variant&lt; confirmation,</text>
<text text-anchor="start" x="810" y="-431" font-family="Helvetica,sans-Serif" font-size="10.00"> message, message_map,</text>
<text text-anchor="start" x="810" y="-420" font-family="Helvetica,sans-Serif" font-size="10.00"> user, user_identified,</text>
<text text-anchor="start" x="810" y="-409" font-family="Helvetica,sans-Serif" font-size="10.00"> user_map, guild_member,</text>
<text text-anchor="start" x="810" y="-398" font-family="Helvetica,sans-Serif" font-size="10.00"> guild_member_map, channel,</text>
<text text-anchor="start" x="810" y="-387" font-family="Helvetica,sans-Serif" font-size="10.00"> channel_map, thread_member,</text>
<text text-anchor="start" x="810" y="-376" font-family="Helvetica,sans-Serif" font-size="10.00"> thread_member_map, guild, guild</text>
<text text-anchor="start" x="810" y="-365" font-family="Helvetica,sans-Serif" font-size="10.00">_map, guild_command_permissions,</text>
<text text-anchor="start" x="810" y="-354" font-family="Helvetica,sans-Serif" font-size="10.00"> guild_command_permissions_map,</text>
<text text-anchor="start" x="810" y="-343" font-family="Helvetica,sans-Serif" font-size="10.00"> role, role_map, invite, invite_map,</text>
<text text-anchor="start" x="810" y="-332" font-family="Helvetica,sans-Serif" font-size="10.00"> dtemplate, dtemplate_map, emoji, emoji</text>
<text text-anchor="start" x="810" y="-321" font-family="Helvetica,sans-Serif" font-size="10.00">_map, ban, ban_map, voiceregion, voiceregion</text>
<text text-anchor="start" x="810" y="-310" font-family="Helvetica,sans-Serif" font-size="10.00">_map, integration, integration_map, webhook,</text>
<text text-anchor="start" x="810" y="-299" font-family="Helvetica,sans-Serif" font-size="10.00"> webhook_map, prune, guild_widget, gateway,</text>
<text text-anchor="start" x="810" y="-288" font-family="Helvetica,sans-Serif" font-size="10.00"> interaction, interaction_response, auditlog,</text>
<text text-anchor="start" x="810" y="-277" font-family="Helvetica,sans-Serif" font-size="10.00"> slashcommand, slashcommand_map, stage_instance,</text>
<text text-anchor="start" x="810" y="-266" font-family="Helvetica,sans-Serif" font-size="10.00"> sticker, sticker_map, sticker_pack, sticker_pack</text>
<text text-anchor="start" x="810" y="-255" font-family="Helvetica,sans-Serif" font-size="10.00">_map, application, application_map, connection, connection</text>
<text text-anchor="start" x="810" y="-244" font-family="Helvetica,sans-Serif" font-size="10.00">_map, thread, thread_map, scheduled_event, scheduled_event</text>
<text text-anchor="middle" x="1010" y="-233" font-family="Helvetica,sans-Serif" font-size="10.00">_map, event_member, event_member_map, automod_rule, automod_rule_map &gt;</text>
</a>
</g>
</g>
<!-- Node11&#45;&gt;Node1 -->
<g id="edge10" class="edge">
<title>Node11&#45;&gt;Node1</title>
<path fill="none" stroke="#9a32cd" stroke-dasharray="5,2" d="M1228.23,-340C1248.28,-340 1267.56,-340 1284.95,-340"/>
<polygon fill="#9a32cd" stroke="#9a32cd" points="1228.01,-336.5 1218.01,-340 1228.01,-343.5 1228.01,-336.5"/>
<text text-anchor="middle" x="1251.5" y="-343" font-family="Helvetica,sans-Serif" font-size="10.00"> value</text>
</g>
<!-- Node12&#45;&gt;Node1 -->
<g id="edge11" class="edge">
<title>Node12&#45;&gt;Node1</title>
<path fill="none" stroke="#9a32cd" stroke-dasharray="5,2" d="M1057.24,-193.39C1100.52,-191.8 1166.11,-194.04 1218,-216 1280.41,-242.41 1335.53,-306.04 1355.01,-330.34"/>
<polygon fill="#9a32cd" stroke="#9a32cd" points="1056.84,-189.91 1047.01,-193.86 1057.16,-196.9 1056.84,-189.91"/>
<text text-anchor="middle" x="1251.5" y="-245" font-family="Helvetica,sans-Serif" font-size="10.00"> bot</text>
</g>
<!-- Node13 -->
<g id="node13" class="node">
<title>Node13</title>
<g id="a_node13"><a xlink:title=" ">
<polygon fill="none" stroke="#bfbfbf" points="527.5,-158.5 527.5,-177.5 575.5,-177.5 575.5,-158.5 527.5,-158.5"/>
<text text-anchor="middle" x="551.5" y="-165.5" font-family="Helvetica,sans-Serif" font-size="10.00">time_t</text>
</a>
</g>
</g>
<!-- Node13&#45;&gt;Node12 -->
<g id="edge13" class="edge">
<title>Node13&#45;&gt;Node12</title>
<path fill="none" stroke="#9a32cd" stroke-dasharray="5,2" d="M585.56,-169.7C630.49,-172.05 713.34,-176.5 784,-181 850.63,-185.24 928.31,-190.93 972.77,-194.26"/>
<polygon fill="#9a32cd" stroke="#9a32cd" points="585.68,-166.2 575.51,-169.18 585.31,-173.19 585.68,-166.2"/>
<text text-anchor="middle" x="719.5" y="-184" font-family="Helvetica,sans-Serif" font-size="10.00"> last_identify</text>
</g>
<!-- Node14 -->
<g id="node14" class="node">
<title>Node14</title>
<g id="a_node14"><a xlink:title=" ">
<polygon fill="none" stroke="#bfbfbf" points="257,-48.5 257,-67.5 313,-67.5 313,-48.5 257,-48.5"/>
<text text-anchor="middle" x="285" y="-55.5" font-family="Helvetica,sans-Serif" font-size="10.00">uint32_t</text>
</a>
</g>
</g>
<!-- Node14&#45;&gt;Node12 -->
<g id="edge14" class="edge">
<title>Node14&#45;&gt;Node12</title>
<path fill="none" stroke="#9a32cd" stroke-dasharray="5,2" d="M323.24,-55.21C387.77,-51.19 524.25,-46.38 637,-67 776.3,-92.48 933.55,-161.75 988.64,-187.34"/>
<polygon fill="#9a32cd" stroke="#9a32cd" points="322.91,-51.72 313.15,-55.86 323.36,-58.7 322.91,-51.72"/>
<text text-anchor="middle" x="551.5" y="-103" font-family="Helvetica,sans-Serif" font-size="10.00"> cluster_id</text>
<text text-anchor="middle" x="551.5" y="-92" font-family="Helvetica,sans-Serif" font-size="10.00">intents</text>
<text text-anchor="middle" x="551.5" y="-81" font-family="Helvetica,sans-Serif" font-size="10.00">maxclusters</text>
<text text-anchor="middle" x="551.5" y="-70" font-family="Helvetica,sans-Serif" font-size="10.00">numshards</text>
</g>
<!-- Node14&#45;&gt;Node15 -->
<g id="edge24" class="edge">
<title>Node14&#45;&gt;Node15</title>
<path fill="none" stroke="#9a32cd" stroke-dasharray="5,2" d="M323.41,-64.5C356.71,-70.87 406.44,-81.83 448,-97 456.4,-100.07 457.66,-102.76 466,-106 483.63,-112.84 504.01,-118.69 520.33,-122.89"/>
<polygon fill="#9a32cd" stroke="#9a32cd" points="323.68,-60.99 313.21,-62.59 322.4,-67.87 323.68,-60.99"/>
<text text-anchor="middle" x="407.5" y="-100" font-family="Helvetica,sans-Serif" font-size="10.00"> flags</text>
</g>
<!-- Node15&#45;&gt;Node12 -->
<g id="edge16" class="edge">
<title>Node15&#45;&gt;Node12</title>
<path fill="none" stroke="#9a32cd" stroke-dasharray="5,2" d="M592.73,-134.51C638.96,-139.82 717.08,-149.16 784,-159 850.83,-168.82 928.44,-182.42 972.83,-190.4"/>
<polygon fill="#9a32cd" stroke="#9a32cd" points="592.86,-131 582.52,-133.35 592.06,-137.96 592.86,-131"/>
<text text-anchor="middle" x="719.5" y="-162" font-family="Helvetica,sans-Serif" font-size="10.00"> me</text>
</g>
<!-- Node16&#45;&gt;Node15 -->
<g id="edge17" class="edge">
<title>Node16&#45;&gt;Node15</title>
<path fill="none" stroke="midnightblue" d="M338.35,-142.83C392.78,-139.54 476.09,-134.5 520.38,-131.82"/>
<polygon fill="midnightblue" stroke="midnightblue" points="337.97,-139.35 328.2,-143.45 338.4,-146.34 337.97,-139.35"/>
</g>
<!-- Node17 -->
<g id="node17" class="node">
<title>Node17</title>
<g id="a_node17"><a xlink:href="structdpp_1_1json__interface.html" target="_top" xlink:title=" ">
<polygon fill="none" stroke="black" points="230,-87 230,-117 340,-117 340,-87 230,-87"/>
<text text-anchor="start" x="238" y="-105" font-family="Helvetica,sans-Serif" font-size="10.00">dpp::json_interface</text>
<text text-anchor="middle" x="285" y="-94" font-family="Helvetica,sans-Serif" font-size="10.00">&lt; user &gt;</text>
</a>
</g>
</g>
<!-- Node17&#45;&gt;Node15 -->
<g id="edge19" class="edge">
<title>Node17&#45;&gt;Node15</title>
<path fill="none" stroke="midnightblue" d="M350.33,-108.81C404.35,-114.53 479.11,-122.44 520.28,-126.8"/>
<polygon fill="midnightblue" stroke="midnightblue" points="350.48,-105.31 340.16,-107.73 349.74,-112.27 350.48,-105.31"/>
</g>
<!-- Node18 -->
<g id="node18" class="node">
<title>Node18</title>
<g id="a_node18"><a xlink:href="structdpp_1_1json__interface.html" target="_top" xlink:title="Represents an interface for an object that can optionally implement functions for converting to and f...">
<polygon fill="none" stroke="black" points="0,-92.5 0,-111.5 138,-111.5 138,-92.5 0,-92.5"/>
<text text-anchor="middle" x="69" y="-99.5" font-family="Helvetica,sans-Serif" font-size="10.00">dpp::json_interface&lt; T &gt;</text>
</a>
</g>
</g>
<!-- Node18&#45;&gt;Node17 -->
<g id="edge20" class="edge">
<title>Node18&#45;&gt;Node17</title>
<path fill="none" stroke="orange" stroke-dasharray="5,2" d="M148.23,-102C175.3,-102 205.02,-102 229.73,-102"/>
<polygon fill="orange" stroke="orange" points="148.01,-98.5 138,-102 148,-105.5 148.01,-98.5"/>
<text text-anchor="middle" x="179.5" y="-105" font-family="Helvetica,sans-Serif" font-size="10.00"> &lt; user &gt;</text>
</g>
<!-- Node19&#45;&gt;Node15 -->
<g id="edge22" class="edge">
<title>Node19&#45;&gt;Node15</title>
<path fill="none" stroke="#9a32cd" stroke-dasharray="5,2" d="M354.34,-218.89C385.6,-214.43 421.5,-204.7 448,-184 461.79,-173.23 452.17,-159.7 466,-149 481.46,-137.04 503.01,-132.33 520.48,-130.58"/>
<polygon fill="#9a32cd" stroke="#9a32cd" points="353.84,-215.42 344.37,-220.16 354.73,-222.37 353.84,-215.42"/>
<text text-anchor="middle" x="407.5" y="-220" font-family="Helvetica,sans-Serif" font-size="10.00"> avatar</text>
</g>
<!-- Node20 -->
<g id="node20" class="node">
<title>Node20</title>
<g id="a_node20"><a xlink:title=" ">
<polygon fill="none" stroke="#bfbfbf" points="260,-174.5 260,-193.5 310,-193.5 310,-174.5 260,-174.5"/>
<text text-anchor="middle" x="285" y="-181.5" font-family="Helvetica,sans-Serif" font-size="10.00">uint8_t</text>
</a>
</g>
</g>
<!-- Node20&#45;&gt;Node15 -->
<g id="edge26" class="edge">
<title>Node20&#45;&gt;Node15</title>
<path fill="none" stroke="#9a32cd" stroke-dasharray="5,2" d="M320.19,-177.78C353.02,-171.74 403.98,-162.15 448,-153 451.6,-152.25 491.45,-143.29 520.38,-136.78"/>
<polygon fill="#9a32cd" stroke="#9a32cd" points="319.4,-174.37 310.2,-179.62 320.67,-181.25 319.4,-174.37"/>
<text text-anchor="middle" x="407.5" y="-172" font-family="Helvetica,sans-Serif" font-size="10.00"> refcount</text>
</g>
<!-- Node21 -->
<g id="node21" class="node">
<title>Node21</title>
<g id="a_node21"><a xlink:href="structdpp_1_1cache__policy__t.html" target="_top" xlink:title="Represents the caching policy of the cluster.">
<polygon fill="none" stroke="black" points="495,-1.5 495,-20.5 608,-20.5 608,-1.5 495,-1.5"/>
<text text-anchor="middle" x="551.5" y="-8.5" font-family="Helvetica,sans-Serif" font-size="10.00">dpp::cache_policy_t</text>
</a>
</g>
</g>
<!-- Node21&#45;&gt;Node12 -->
<g id="edge27" class="edge">
<title>Node21&#45;&gt;Node12</title>
<path fill="none" stroke="#9a32cd" stroke-dasharray="5,2" d="M618.31,-8.12C665.82,-8.19 730.72,-12.8 784,-33 879.82,-69.32 971.24,-157.95 999.84,-187.35"/>
<polygon fill="#9a32cd" stroke="#9a32cd" points="618.12,-4.62 608.14,-8.17 618.16,-11.62 618.12,-4.62"/>
<text text-anchor="middle" x="719.5" y="-36" font-family="Helvetica,sans-Serif" font-size="10.00"> cache_policy</text>
</g>
<!-- Node22 -->
<g id="node22" class="node">
<title>Node22</title>
<g id="a_node22"><a xlink:title=" ">
<polygon fill="none" stroke="#bfbfbf" points="221,-0.5 221,-19.5 349,-19.5 349,-0.5 221,-0.5"/>
<text text-anchor="middle" x="285" y="-7.5" font-family="Helvetica,sans-Serif" font-size="10.00">cache_policy_setting_t</text>
</a>
</g>
</g>
<!-- Node22&#45;&gt;Node21 -->
<g id="edge28" class="edge">
<title>Node22&#45;&gt;Node21</title>
<path fill="none" stroke="#9a32cd" stroke-dasharray="5,2" d="M359.11,-10.28C401.96,-10.44 455.25,-10.64 494.7,-10.79"/>
<polygon fill="#9a32cd" stroke="#9a32cd" points="359.03,-6.78 349.02,-10.24 359,-13.78 359.03,-6.78"/>
<text text-anchor="middle" x="407.5" y="-36" font-family="Helvetica,sans-Serif" font-size="10.00"> emoji_policy</text>
<text text-anchor="middle" x="407.5" y="-25" font-family="Helvetica,sans-Serif" font-size="10.00">role_policy</text>
<text text-anchor="middle" x="407.5" y="-14" font-family="Helvetica,sans-Serif" font-size="10.00">user_policy</text>
</g>
<!-- Node23 -->
<g id="node23" class="node">
<title>Node23</title>
<g id="a_node23"><a xlink:title=" ">
<polygon fill="none" stroke="#bfbfbf" points="490.5,-395.5 490.5,-414.5 612.5,-414.5 612.5,-395.5 490.5,-395.5"/>
<text text-anchor="middle" x="551.5" y="-402.5" font-family="Helvetica,sans-Serif" font-size="10.00">websocket_protocol_t</text>
</a>
</g>
</g>
<!-- Node23&#45;&gt;Node12 -->
<g id="edge29" class="edge">
<title>Node23&#45;&gt;Node12</title>
<path fill="none" stroke="#9a32cd" stroke-dasharray="5,2" d="M603.8,-416.24C656.56,-424.49 737.4,-427.35 784,-381 836.3,-328.98 749.39,-267.71 802,-216 846.78,-171.98 926.32,-179.02 972.67,-188.05"/>
<polygon fill="#9a32cd" stroke="#9a32cd" points="604.09,-412.74 593.65,-414.53 602.93,-419.64 604.09,-412.74"/>
<text text-anchor="middle" x="719.5" y="-424" font-family="Helvetica,sans-Serif" font-size="10.00"> ws_mode</text>
</g>
<!-- Node24 -->
<g id="node24" class="node">
<title>Node24</title>
<g id="a_node24"><a xlink:title=" ">
<polygon fill="none" stroke="#bfbfbf" points="498,-310.5 498,-329.5 605,-329.5 605,-310.5 498,-310.5"/>
<text text-anchor="middle" x="551.5" y="-317.5" font-family="Helvetica,sans-Serif" font-size="10.00">condition_variable</text>
</a>
</g>
</g>
<!-- Node24&#45;&gt;Node12 -->
<g id="edge30" class="edge">
<title>Node24&#45;&gt;Node12</title>
<path fill="none" stroke="#9a32cd" stroke-dasharray="5,2" d="M615.12,-328.4C674.9,-334.93 759.39,-339.77 784,-319 819.51,-289.02 767.83,-247.49 802,-216 848.04,-173.57 926.75,-179.92 972.71,-188.43"/>
<polygon fill="#9a32cd" stroke="#9a32cd" points="615.35,-324.91 605.01,-327.26 614.56,-331.86 615.35,-324.91"/>
<text text-anchor="middle" x="719.5" y="-337" font-family="Helvetica,sans-Serif" font-size="10.00"> terminating</text>
</g>
<!-- Node25 -->
<g id="node25" class="node">
<title>Node25</title>
<g id="a_node25"><a xlink:title=" ">
<polygon fill="none" stroke="#bfbfbf" points="503.5,-196.5 503.5,-215.5 599.5,-215.5 599.5,-196.5 503.5,-196.5"/>
<text text-anchor="middle" x="551.5" y="-203.5" font-family="Helvetica,sans-Serif" font-size="10.00">event_router_t&lt;</text>
</a>
</g>
</g>
<!-- Node25&#45;&gt;Node12 -->
<g id="edge31" class="edge">
<title>Node25&#45;&gt;Node12</title>
<path fill="none" stroke="#9a32cd" stroke-dasharray="5,2" d="M609.67,-200.77C624.42,-199.64 640.29,-198.59 655,-198 771.06,-193.31 908.7,-195 972.8,-196.21"/>
<polygon fill="#9a32cd" stroke="#9a32cd" points="609.35,-197.29 599.66,-201.57 609.9,-204.27 609.35,-197.29"/>
<text text-anchor="middle" x="719.5" y="-311" font-family="Helvetica,sans-Serif" font-size="10.00"> on_autocomplete</text>
<text text-anchor="middle" x="719.5" y="-300" font-family="Helvetica,sans-Serif" font-size="10.00">on_automod_rule_create</text>
<text text-anchor="middle" x="719.5" y="-289" font-family="Helvetica,sans-Serif" font-size="10.00">on_automod_rule_delete</text>
<text text-anchor="middle" x="719.5" y="-278" font-family="Helvetica,sans-Serif" font-size="10.00">on_automod_rule_execute</text>
<text text-anchor="middle" x="719.5" y="-267" font-family="Helvetica,sans-Serif" font-size="10.00">on_automod_rule_update</text>
<text text-anchor="middle" x="719.5" y="-256" font-family="Helvetica,sans-Serif" font-size="10.00">on_button_click</text>
<text text-anchor="middle" x="719.5" y="-245" font-family="Helvetica,sans-Serif" font-size="10.00">on_channel_create</text>
<text text-anchor="middle" x="719.5" y="-234" font-family="Helvetica,sans-Serif" font-size="10.00">on_channel_delete</text>
<text text-anchor="middle" x="719.5" y="-223" font-family="Helvetica,sans-Serif" font-size="10.00">on_channel_pins_update</text>
<text text-anchor="middle" x="719.5" y="-212" font-family="Helvetica,sans-Serif" font-size="10.00">on_channel_update</text>
<text text-anchor="middle" x="719.5" y="-201" font-family="Helvetica,sans-Serif" font-size="10.00">...</text>
</g>
</g>
</svg>
