<?xml version="1.0" encoding="UTF-8" standalone="no"?>
<!DOCTYPE svg PUBLIC "-//W3C//DTD SVG 1.1//EN"
 "http://www.w3.org/Graphics/SVG/1.1/DTD/svg11.dtd">
<!-- Generated by graphviz version 2.38.0 (20140413.2041)
 -->
<!-- Title: dpp::voice_state_update_t Pages: 1 -->
<!--zoomable 1093 -->
<svg id="main" version="1.1" xmlns="http://www.w3.org/2000/svg" xmlns:xlink="http://www.w3.org/1999/xlink" xml:space="preserve" onload="init(evt)">
<style type="text/css"><![CDATA[
.edge:hover path { stroke: red; }
.edge:hover polygon { stroke: red; fill: red; }
]]></style>
<script type="text/javascript"><![CDATA[
var edges = document.getElementsByTagName('g');
if (edges && edges.length) {
  for (var i=0;i<edges.length;i++) {
    if (edges[i].id.substr(0,4)=='edge') {
      edges[i].setAttribute('class','edge');
    }
  }
}
]]></script>
        <defs>
                <circle id="rim" cx="0" cy="0" r="7"/>
                <circle id="rim2" cx="0" cy="0" r="3.5"/>
                <g id="zoomPlus">
                        <use xlink:href="#rim" fill="#404040">
                                <set attributeName="fill" to="#808080" begin="zoomplus.mouseover" end="zoomplus.mouseout"/>
                        </use>
                        <path d="M-4,0h8M0,-4v8" fill="none" stroke="white" stroke-width="1.5" pointer-events="none"/>
                </g>
                <g id="zoomMin">
                        <use xlink:href="#rim" fill="#404040">
                                <set attributeName="fill" to="#808080" begin="zoomminus.mouseover" end="zoomminus.mouseout"/>
                        </use>
                        <path d="M-4,0h8" fill="none" stroke="white" stroke-width="1.5" pointer-events="none"/>
                </g>
                <g id="dirArrow">
                        <path fill="none" stroke="white" stroke-width="1.5" d="M0,-3.0v7 M-2.5,-0.5L0,-3.0L2.5,-0.5"/>
                </g>
               <g id="resetDef">
                       <use xlink:href="#rim2" fill="#404040">
                               <set attributeName="fill" to="#808080" begin="reset.mouseover" end="reset.mouseout"/>
                       </use>
               </g>
        </defs>

<script type="text/javascript">
var viewWidth = 1393;
var viewHeight = 1093;
var sectionId = 'dynsection-1';
</script>
<script xlink:href="svgpan.js"/>
<svg id="graph" class="graph">
<g id="viewport">
<title>dpp::voice_state_update_t</title>
<polygon fill="white" stroke="none" points="-4,4 -4,-1089 1389,-1089 1389,4 -4,4"/>
<!-- Node1 -->
<g id="node1" class="node"><title>Node1</title>
<g id="a_node1"><a xlink:title="Voice state update.">
<polygon fill="#bfbfbf" stroke="black" points="1254,-726.5 1254,-745.5 1385,-745.5 1385,-726.5 1254,-726.5"/>
<text text-anchor="middle" x="1319.5" y="-733.5" font-family="Helvetica,sans-Serif" font-size="10.00">dpp::voice_state_update_t</text>
</a>
</g>
</g>
<!-- Node2 -->
<g id="node2" class="node"><title>Node2</title>
<g id="a_node2"><a xlink:href="structdpp_1_1event__dispatch__t.html" target="_top" xlink:title="Base event parameter struct.">
<polygon fill="white" stroke="black" points="1080,-744.5 1080,-763.5 1193,-763.5 1193,-744.5 1080,-744.5"/>
<text text-anchor="middle" x="1136.5" y="-751.5" font-family="Helvetica,sans-Serif" font-size="10.00">dpp::event_dispatch_t</text>
</a>
</g>
</g>
<!-- Node2&#45;&gt;Node1 -->
<g id="edge1" class="edge"><title>Node2&#45;&gt;Node1</title>
<path fill="none" stroke="midnightblue" d="M1203.33,-747.453C1219.75,-745.821 1237.34,-744.071 1253.71,-742.444"/>
<polygon fill="midnightblue" stroke="midnightblue" points="1202.89,-743.98 1193.28,-748.453 1203.58,-750.946 1202.89,-743.98"/>
</g>
<!-- Node3 -->
<g id="node3" class="node"><title>Node3</title>
<g id="a_node3"><a xlink:title=" ">
<polygon fill="white" stroke="#bfbfbf" points="191,-966.5 191,-985.5 251,-985.5 251,-966.5 191,-966.5"/>
<text text-anchor="middle" x="221" y="-973.5" font-family="Helvetica,sans-Serif" font-size="10.00">std::string</text>
</a>
</g>
</g>
<!-- Node3&#45;&gt;Node2 -->
<g id="edge2" class="edge"><title>Node3&#45;&gt;Node2</title>
<path fill="none" stroke="#9a32cd" stroke-dasharray="5,2" d="M236.973,-993.363C250.948,-1008.4 273.177,-1029.49 297,-1041 368.261,-1075.44 392.851,-1074 472,-1074 472,-1074 472,-1074 968,-1074 1012.28,-1074 1032.08,-1073.64 1062,-1041 1101.1,-998.345 1128.25,-808.969 1134.25,-763.73"/>
<polygon fill="#9a32cd" stroke="#9a32cd" points="239.393,-990.82 230.1,-985.733 234.192,-995.505 239.393,-990.82"/>
<text text-anchor="middle" x="701" y="-1077" font-family="Helvetica,sans-Serif" font-size="10.00"> raw_event</text>
</g>
<!-- Node5 -->
<g id="node5" class="node"><title>Node5</title>
<g id="a_node5"><a xlink:href="classdpp_1_1discord__client.html" target="_top" xlink:title="Implements a discord client. Each discord_client connects to one shard and derives from a websocket c...">
<polygon fill="white" stroke="black" points="918,-726.5 918,-745.5 1016,-745.5 1016,-726.5 918,-726.5"/>
<text text-anchor="middle" x="967" y="-733.5" font-family="Helvetica,sans-Serif" font-size="10.00">dpp::discord_client</text>
</a>
</g>
</g>
<!-- Node3&#45;&gt;Node5 -->
<g id="edge38" class="edge"><title>Node3&#45;&gt;Node5</title>
<path fill="none" stroke="#9a32cd" stroke-dasharray="5,2" d="M261.162,-978.153C398.009,-985.315 849.307,-1005.77 900,-967 936.775,-938.875 959.401,-785.814 964.763,-745.653"/>
<polygon fill="#9a32cd" stroke="#9a32cd" points="261.291,-974.655 251.12,-977.622 260.921,-981.645 261.291,-974.655"/>
<text text-anchor="middle" x="584.5" y="-1004" font-family="Helvetica,sans-Serif" font-size="10.00"> sessionid</text>
<text text-anchor="middle" x="584.5" y="-993" font-family="Helvetica,sans-Serif" font-size="10.00">token</text>
</g>
<!-- Node7 -->
<g id="node7" class="node"><title>Node7</title>
<g id="a_node7"><a xlink:href="classdpp_1_1ssl__client.html" target="_top" xlink:title="Implements a simple non&#45;blocking SSL stream client.">
<polygon fill="white" stroke="black" points="433,-726.5 433,-745.5 513,-745.5 513,-726.5 433,-726.5"/>
<text text-anchor="middle" x="473" y="-733.5" font-family="Helvetica,sans-Serif" font-size="10.00">dpp::ssl_client</text>
</a>
</g>
</g>
<!-- Node3&#45;&gt;Node7 -->
<g id="edge7" class="edge"><title>Node3&#45;&gt;Node7</title>
<path fill="none" stroke="#9a32cd" stroke-dasharray="5,2" d="M234.7,-958.246C248.655,-939.473 272.38,-909.637 297,-888 339.224,-850.891 361.005,-856.367 403,-819 429.319,-795.582 454.194,-761.797 465.552,-745.501"/>
<polygon fill="#9a32cd" stroke="#9a32cd" points="231.749,-956.351 228.672,-966.489 237.4,-960.483 231.749,-956.351"/>
<text text-anchor="middle" x="350" y="-935" font-family="Helvetica,sans-Serif" font-size="10.00"> buffer</text>
<text text-anchor="middle" x="350" y="-924" font-family="Helvetica,sans-Serif" font-size="10.00">cipher</text>
<text text-anchor="middle" x="350" y="-913" font-family="Helvetica,sans-Serif" font-size="10.00">hostname</text>
<text text-anchor="middle" x="350" y="-902" font-family="Helvetica,sans-Serif" font-size="10.00">obuffer</text>
<text text-anchor="middle" x="350" y="-891" font-family="Helvetica,sans-Serif" font-size="10.00">port</text>
</g>
<!-- Node16 -->
<g id="node16" class="node"><title>Node16</title>
<g id="a_node16"><a xlink:href="classdpp_1_1cluster.html" target="_top" xlink:title="The cluster class represents a group of shards and a command queue for sending and receiving commands...">
<polygon fill="white" stroke="black" points="667,-400.5 667,-419.5 735,-419.5 735,-400.5 667,-400.5"/>
<text text-anchor="middle" x="701" y="-407.5" font-family="Helvetica,sans-Serif" font-size="10.00">dpp::cluster</text>
</a>
</g>
</g>
<!-- Node3&#45;&gt;Node16 -->
<g id="edge17" class="edge"><title>Node3&#45;&gt;Node16</title>
<path fill="none" stroke="#9a32cd" stroke-dasharray="5,2" d="M261.27,-973.353C307.91,-969.455 382.04,-960.638 403,-943 420.752,-928.062 409.934,-914.392 421,-894 457.8,-826.186 493.234,-825.313 525,-755 541.078,-719.413 528.674,-705.328 543,-669 584.474,-563.832 667.023,-452.631 692.4,-419.709"/>
<polygon fill="#9a32cd" stroke="#9a32cd" points="260.885,-969.873 251.195,-974.155 261.441,-976.851 260.885,-969.873"/>
<text text-anchor="middle" x="473" y="-897" font-family="Helvetica,sans-Serif" font-size="10.00"> token</text>
</g>
<!-- Node20 -->
<g id="node20" class="node"><title>Node20</title>
<g id="a_node20"><a xlink:href="classdpp_1_1user.html" target="_top" xlink:title="Represents a user on discord. May or may not be a member of a dpp::guild.">
<polygon fill="white" stroke="black" points="444.5,-290.5 444.5,-309.5 501.5,-309.5 501.5,-290.5 444.5,-290.5"/>
<text text-anchor="middle" x="473" y="-297.5" font-family="Helvetica,sans-Serif" font-size="10.00">dpp::user</text>
</a>
</g>
</g>
<!-- Node3&#45;&gt;Node20 -->
<g id="edge26" class="edge"><title>Node3&#45;&gt;Node20</title>
<path fill="none" stroke="#9a32cd" stroke-dasharray="5,2" d="M232.849,-957.407C246.534,-932.847 269.435,-887.805 279,-846 291.176,-792.783 263.898,-398.412 297,-355 315.007,-331.385 399.656,-312.987 444.29,-304.738"/>
<polygon fill="#9a32cd" stroke="#9a32cd" points="229.676,-955.906 227.776,-966.329 235.761,-959.366 229.676,-955.906"/>
<text text-anchor="middle" x="350" y="-358" font-family="Helvetica,sans-Serif" font-size="10.00"> username</text>
</g>
<!-- Node30 -->
<g id="node30" class="node"><title>Node30</title>
<g id="a_node30"><a xlink:href="classdpp_1_1voicestate.html" target="_top" xlink:title="Represents the voice state of a user on a guild These are stored in the dpp::guild object,...">
<polygon fill="white" stroke="black" points="1095,-706.5 1095,-725.5 1178,-725.5 1178,-706.5 1095,-706.5"/>
<text text-anchor="middle" x="1136.5" y="-713.5" font-family="Helvetica,sans-Serif" font-size="10.00">dpp::voicestate</text>
</a>
</g>
</g>
<!-- Node3&#45;&gt;Node30 -->
<g id="edge46" class="edge"><title>Node3&#45;&gt;Node30</title>
<path fill="none" stroke="#9a32cd" stroke-dasharray="5,2" d="M259.871,-988.681C308.426,-1003.79 395.493,-1027 472,-1027 472,-1027 472,-1027 968,-1027 1037.5,-1027 1029.97,-783.24 1080,-735 1084.25,-730.9 1089.43,-727.682 1094.89,-725.158"/>
<polygon fill="#9a32cd" stroke="#9a32cd" points="260.703,-985.274 250.113,-985.593 258.59,-991.947 260.703,-985.274"/>
<text text-anchor="middle" x="701" y="-1030" font-family="Helvetica,sans-Serif" font-size="10.00"> session_id</text>
</g>
<!-- Node4 -->
<g id="node4" class="node"><title>Node4</title>
<g id="a_node4"><a xlink:title=" ">
<polygon fill="white" stroke="#bfbfbf" points="0,-961 0,-991 95,-991 95,-961 0,-961"/>
<text text-anchor="start" x="8" y="-979" font-family="Helvetica,sans-Serif" font-size="10.00">std::basic_string&lt;</text>
<text text-anchor="middle" x="47.5" y="-968" font-family="Helvetica,sans-Serif" font-size="10.00"> Char &gt;</text>
</a>
</g>
</g>
<!-- Node4&#45;&gt;Node3 -->
<g id="edge3" class="edge"><title>Node4&#45;&gt;Node3</title>
<path fill="none" stroke="midnightblue" d="M105.658,-976C134.266,-976 167.668,-976 190.956,-976"/>
<polygon fill="midnightblue" stroke="midnightblue" points="105.363,-972.5 95.3631,-976 105.363,-979.5 105.363,-972.5"/>
</g>
<!-- Node5&#45;&gt;Node2 -->
<g id="edge4" class="edge"><title>Node5&#45;&gt;Node2</title>
<path fill="none" stroke="#9a32cd" stroke-dasharray="5,2" d="M1026.43,-742.279C1043.74,-744.14 1062.65,-746.171 1079.78,-748.013"/>
<polygon fill="#9a32cd" stroke="#9a32cd" points="1026.76,-738.795 1016.45,-741.206 1026.02,-745.755 1026.76,-738.795"/>
<text text-anchor="middle" x="1048" y="-750" font-family="Helvetica,sans-Serif" font-size="10.00"> from</text>
</g>
<!-- Node5&#45;&gt;Node30 -->
<g id="edge44" class="edge"><title>Node5&#45;&gt;Node30</title>
<path fill="none" stroke="#9a32cd" stroke-dasharray="5,2" d="M1026.58,-729.005C1049.11,-726.315 1074.32,-723.306 1094.8,-720.86"/>
<polygon fill="#9a32cd" stroke="#9a32cd" points="1025.96,-725.554 1016.45,-730.215 1026.79,-732.505 1025.96,-725.554"/>
<text text-anchor="middle" x="1048" y="-731" font-family="Helvetica,sans-Serif" font-size="10.00"> shard</text>
</g>
<!-- Node6 -->
<g id="node6" class="node"><title>Node6</title>
<g id="a_node6"><a xlink:href="classdpp_1_1websocket__client.html" target="_top" xlink:title="Implements a websocket client based on the SSL client.">
<polygon fill="white" stroke="black" points="644,-726.5 644,-745.5 758,-745.5 758,-726.5 644,-726.5"/>
<text text-anchor="middle" x="701" y="-733.5" font-family="Helvetica,sans-Serif" font-size="10.00">dpp::websocket_client</text>
</a>
</g>
</g>
<!-- Node6&#45;&gt;Node5 -->
<g id="edge5" class="edge"><title>Node6&#45;&gt;Node5</title>
<path fill="none" stroke="midnightblue" d="M768.586,-736C815.031,-736 875.936,-736 917.746,-736"/>
<polygon fill="midnightblue" stroke="midnightblue" points="768.311,-732.5 758.311,-736 768.311,-739.5 768.311,-732.5"/>
</g>
<!-- Node7&#45;&gt;Node6 -->
<g id="edge6" class="edge"><title>Node7&#45;&gt;Node6</title>
<path fill="none" stroke="midnightblue" d="M523.222,-736C558.68,-736 606.596,-736 643.597,-736"/>
<polygon fill="midnightblue" stroke="midnightblue" points="523.108,-732.5 513.108,-736 523.108,-739.5 523.108,-732.5"/>
</g>
<!-- Node8 -->
<g id="node8" class="node"><title>Node8</title>
<g id="a_node8"><a xlink:title=" ">
<polygon fill="white" stroke="#bfbfbf" points="203.5,-817.5 203.5,-836.5 238.5,-836.5 238.5,-817.5 203.5,-817.5"/>
<text text-anchor="middle" x="221" y="-824.5" font-family="Helvetica,sans-Serif" font-size="10.00">bool</text>
</a>
</g>
</g>
<!-- Node8&#45;&gt;Node5 -->
<g id="edge41" class="edge"><title>Node8&#45;&gt;Node5</title>
<path fill="none" stroke="#9a32cd" stroke-dasharray="5,2" d="M248.937,-825.752C284.335,-823.989 348.419,-820.373 403,-815 624.698,-793.176 680.424,-787.587 900,-750 907.62,-748.696 915.698,-747.133 923.491,-745.533"/>
<polygon fill="#9a32cd" stroke="#9a32cd" points="248.318,-822.278 238.5,-826.259 248.658,-829.27 248.318,-822.278"/>
<text text-anchor="middle" x="584.5" y="-804" font-family="Helvetica,sans-Serif" font-size="10.00"> ready</text>
</g>
<!-- Node8&#45;&gt;Node7 -->
<g id="edge8" class="edge"><title>Node8&#45;&gt;Node7</title>
<path fill="none" stroke="#9a32cd" stroke-dasharray="5,2" d="M248.252,-818.358C262.577,-813.793 280.671,-808.267 297,-804 343.641,-791.811 358.519,-799.586 403,-781 424.641,-771.957 446.872,-756.033 460.056,-745.755"/>
<polygon fill="#9a32cd" stroke="#9a32cd" points="247.01,-815.081 238.567,-821.481 249.159,-821.743 247.01,-815.081"/>
<text text-anchor="middle" x="350" y="-807" font-family="Helvetica,sans-Serif" font-size="10.00"> nonblocking</text>
</g>
<!-- Node9 -->
<g id="node9" class="node"><title>Node9</title>
<g id="a_node9"><a xlink:title=" ">
<polygon fill="white" stroke="#bfbfbf" points="192,-680.5 192,-699.5 250,-699.5 250,-680.5 192,-680.5"/>
<text text-anchor="middle" x="221" y="-687.5" font-family="Helvetica,sans-Serif" font-size="10.00">SOCKET</text>
</a>
</g>
</g>
<!-- Node9&#45;&gt;Node7 -->
<g id="edge9" class="edge"><title>Node9&#45;&gt;Node7</title>
<path fill="none" stroke="#9a32cd" stroke-dasharray="5,2" d="M260.581,-691.879C297.534,-694.286 354.659,-699.602 403,-711 418.997,-714.772 436.393,-721.091 449.716,-726.431"/>
<polygon fill="#9a32cd" stroke="#9a32cd" points="260.45,-688.364 250.255,-691.248 260.023,-695.351 260.45,-688.364"/>
<text text-anchor="middle" x="350" y="-714" font-family="Helvetica,sans-Serif" font-size="10.00"> sfd</text>
</g>
<!-- Node10 -->
<g id="node10" class="node"><title>Node10</title>
<g id="a_node10"><a xlink:href="classdpp_1_1opensslcontext.html" target="_top" xlink:title=" ">
<polygon fill="white" stroke="black" points="169,-776.5 169,-795.5 273,-795.5 273,-776.5 169,-776.5"/>
<text text-anchor="middle" x="221" y="-783.5" font-family="Helvetica,sans-Serif" font-size="10.00">dpp::opensslcontext</text>
</a>
</g>
</g>
<!-- Node10&#45;&gt;Node7 -->
<g id="edge10" class="edge"><title>Node10&#45;&gt;Node7</title>
<path fill="none" stroke="#9a32cd" stroke-dasharray="5,2" d="M276.158,-774.323C283.167,-772.848 290.251,-771.375 297,-770 343.551,-760.513 397.196,-750.179 432.69,-743.425"/>
<polygon fill="#9a32cd" stroke="#9a32cd" points="275.051,-770.98 265.993,-776.474 276.501,-777.828 275.051,-770.98"/>
<text text-anchor="middle" x="350" y="-773" font-family="Helvetica,sans-Serif" font-size="10.00"> ssl</text>
</g>
<!-- Node11 -->
<g id="node11" class="node"><title>Node11</title>
<g id="a_node11"><a xlink:title=" ">
<polygon fill="white" stroke="#bfbfbf" points="26.5,-806.5 26.5,-825.5 68.5,-825.5 68.5,-806.5 26.5,-806.5"/>
<text text-anchor="middle" x="47.5" y="-813.5" font-family="Helvetica,sans-Serif" font-size="10.00">SSL *</text>
</a>
</g>
</g>
<!-- Node11&#45;&gt;Node10 -->
<g id="edge11" class="edge"><title>Node11&#45;&gt;Node10</title>
<path fill="none" stroke="#9a32cd" stroke-dasharray="5,2" d="M78.4339,-810.764C103.293,-806.415 139.218,-800.131 168.657,-794.981"/>
<polygon fill="#9a32cd" stroke="#9a32cd" points="77.7562,-807.329 68.5089,-812.5 78.9624,-814.224 77.7562,-807.329"/>
<text text-anchor="middle" x="129" y="-808" font-family="Helvetica,sans-Serif" font-size="10.00"> ssl</text>
</g>
<!-- Node12 -->
<g id="node12" class="node"><title>Node12</title>
<g id="a_node12"><a xlink:title=" ">
<polygon fill="white" stroke="#bfbfbf" points="13.5,-768.5 13.5,-787.5 81.5,-787.5 81.5,-768.5 13.5,-768.5"/>
<text text-anchor="middle" x="47.5" y="-775.5" font-family="Helvetica,sans-Serif" font-size="10.00">SSL_CTX *</text>
</a>
</g>
</g>
<!-- Node12&#45;&gt;Node10 -->
<g id="edge12" class="edge"><title>Node12&#45;&gt;Node10</title>
<path fill="none" stroke="#9a32cd" stroke-dasharray="5,2" d="M91.5701,-780.009C115.024,-781.103 144.195,-782.464 168.806,-783.612"/>
<polygon fill="#9a32cd" stroke="#9a32cd" points="91.7192,-776.512 81.5669,-779.542 91.3929,-783.505 91.7192,-776.512"/>
<text text-anchor="middle" x="129" y="-786" font-family="Helvetica,sans-Serif" font-size="10.00"> ctx</text>
</g>
<!-- Node13 -->
<g id="node13" class="node"><title>Node13</title>
<g id="a_node13"><a xlink:title=" ">
<polygon fill="white" stroke="#bfbfbf" points="199,-633.5 199,-652.5 243,-652.5 243,-633.5 199,-633.5"/>
<text text-anchor="middle" x="221" y="-640.5" font-family="Helvetica,sans-Serif" font-size="10.00">time_t</text>
</a>
</g>
</g>
<!-- Node13&#45;&gt;Node5 -->
<g id="edge35" class="edge"><title>Node13&#45;&gt;Node5</title>
<path fill="none" stroke="#9a32cd" stroke-dasharray="5,2" d="M253.608,-644.847C289.775,-647.099 350.753,-651.319 403,-657 594.339,-677.804 820.846,-712.751 917.927,-728.225"/>
<polygon fill="#9a32cd" stroke="#9a32cd" points="253.412,-641.329 243.217,-644.212 252.985,-648.316 253.412,-641.329"/>
<text text-anchor="middle" x="584.5" y="-699" font-family="Helvetica,sans-Serif" font-size="10.00"> last_heartbeat</text>
<text text-anchor="middle" x="584.5" y="-688" font-family="Helvetica,sans-Serif" font-size="10.00">last_heartbeat_ack</text>
</g>
<!-- Node13&#45;&gt;Node7 -->
<g id="edge13" class="edge"><title>Node13&#45;&gt;Node7</title>
<path fill="none" stroke="#9a32cd" stroke-dasharray="5,2" d="M253.082,-647.742C297.53,-654.825 376.778,-668.656 403,-681 427.117,-692.352 450.326,-713.681 462.72,-726.18"/>
<polygon fill="#9a32cd" stroke="#9a32cd" points="253.531,-644.27 243.108,-646.173 252.443,-651.185 253.531,-644.27"/>
<text text-anchor="middle" x="350" y="-684" font-family="Helvetica,sans-Serif" font-size="10.00"> last_tick</text>
</g>
<!-- Node13&#45;&gt;Node16 -->
<g id="edge18" class="edge"><title>Node13&#45;&gt;Node16</title>
<path fill="none" stroke="#9a32cd" stroke-dasharray="5,2" d="M252.938,-637.744C297.203,-629.984 376.224,-615.177 403,-604 524.912,-553.113 651.038,-451.302 688.727,-419.63"/>
<polygon fill="#9a32cd" stroke="#9a32cd" points="252.26,-634.309 243.006,-639.469 253.458,-641.206 252.26,-634.309"/>
<text text-anchor="middle" x="473" y="-599" font-family="Helvetica,sans-Serif" font-size="10.00"> last_identify</text>
</g>
<!-- Node14 -->
<g id="node14" class="node"><title>Node14</title>
<g id="a_node14"><a xlink:title=" ">
<polygon fill="white" stroke="#bfbfbf" points="22,-248.5 22,-267.5 73,-267.5 73,-248.5 22,-248.5"/>
<text text-anchor="middle" x="47.5" y="-255.5" font-family="Helvetica,sans-Serif" font-size="10.00">uint64_t</text>
</a>
</g>
</g>
<!-- Node14&#45;&gt;Node5 -->
<g id="edge37" class="edge"><title>Node14&#45;&gt;Node5</title>
<path fill="none" stroke="#9a32cd" stroke-dasharray="5,2" d="M49.6944,-277.968C55.5069,-372.709 81.8245,-774.219 113,-820 165.151,-896.583 207.106,-895.554 297,-918 342.708,-929.413 355.955,-920.499 403,-918 632.527,-905.806 691.43,-871.591 900,-775 918.599,-766.387 938.705,-754.023 951.774,-745.538"/>
<polygon fill="#9a32cd" stroke="#9a32cd" points="53.1745,-277.532 49.0753,-267.762 46.1873,-277.956 53.1745,-277.532"/>
<text text-anchor="middle" x="473" y="-920" font-family="Helvetica,sans-Serif" font-size="10.00"> last_seq</text>
</g>
<!-- Node14&#45;&gt;Node7 -->
<g id="edge14" class="edge"><title>Node14&#45;&gt;Node7</title>
<path fill="none" stroke="#9a32cd" stroke-dasharray="5,2" d="M50.523,-277.59C59.1083,-356.658 95.2342,-650.819 163,-709 202.53,-742.939 358.841,-740.997 432.808,-738.027"/>
<polygon fill="#9a32cd" stroke="#9a32cd" points="53.9921,-277.113 49.4557,-267.539 47.0313,-277.853 53.9921,-277.113"/>
<text text-anchor="middle" x="221" y="-751" font-family="Helvetica,sans-Serif" font-size="10.00"> bytes_in</text>
<text text-anchor="middle" x="221" y="-740" font-family="Helvetica,sans-Serif" font-size="10.00">bytes_out</text>
</g>
<!-- Node21 -->
<g id="node21" class="node"><title>Node21</title>
<g id="a_node21"><a xlink:href="classdpp_1_1managed.html" target="_top" xlink:title="The managed class is the base class for various types that can be stored in a cache that are identifi...">
<polygon fill="white" stroke="black" points="182,-210.5 182,-229.5 260,-229.5 260,-210.5 182,-210.5"/>
<text text-anchor="middle" x="221" y="-217.5" font-family="Helvetica,sans-Serif" font-size="10.00">dpp::managed</text>
</a>
</g>
</g>
<!-- Node14&#45;&gt;Node21 -->
<g id="edge25" class="edge"><title>Node14&#45;&gt;Node21</title>
<path fill="none" stroke="#9a32cd" stroke-dasharray="5,2" d="M83.315,-249.791C92.9253,-247.556 103.36,-245.157 113,-243 135.807,-237.897 161.399,-232.388 181.835,-228.042"/>
<polygon fill="#9a32cd" stroke="#9a32cd" points="82.229,-246.45 73.2872,-252.133 83.8212,-253.267 82.229,-246.45"/>
<text text-anchor="middle" x="129" y="-246" font-family="Helvetica,sans-Serif" font-size="10.00"> id</text>
</g>
<!-- Node23 -->
<g id="node23" class="node"><title>Node23</title>
<g id="a_node23"><a xlink:href="structdpp_1_1utility_1_1iconhash.html" target="_top" xlink:title="Store a 128 bit icon hash (profile picture, server icon etc) as a 128 bit binary value made of two ui...">
<polygon fill="white" stroke="black" points="167.5,-248.5 167.5,-267.5 274.5,-267.5 274.5,-248.5 167.5,-248.5"/>
<text text-anchor="middle" x="221" y="-255.5" font-family="Helvetica,sans-Serif" font-size="10.00">dpp::utility::iconhash</text>
</a>
</g>
</g>
<!-- Node14&#45;&gt;Node23 -->
<g id="edge29" class="edge"><title>Node14&#45;&gt;Node23</title>
<path fill="none" stroke="#9a32cd" stroke-dasharray="5,2" d="M83.1735,-258C107.282,-258 139.866,-258 167.189,-258"/>
<polygon fill="#9a32cd" stroke="#9a32cd" points="83.0718,-254.5 73.0718,-258 83.0717,-261.5 83.0718,-254.5"/>
<text text-anchor="middle" x="129" y="-272" font-family="Helvetica,sans-Serif" font-size="10.00"> first</text>
<text text-anchor="middle" x="129" y="-261" font-family="Helvetica,sans-Serif" font-size="10.00">second</text>
</g>
<!-- Node14&#45;&gt;Node30 -->
<g id="edge45" class="edge"><title>Node14&#45;&gt;Node30</title>
<path fill="none" stroke="#9a32cd" stroke-dasharray="5,2" d="M51.8016,-238.027C63.0636,-177.463 105.806,-0 220,-0 220,-0 220,-0 968,-0 1029.65,-0 1040.46,-44.2377 1062,-102 1105.98,-219.943 1131.06,-637.009 1134.96,-706.231"/>
<polygon fill="#9a32cd" stroke="#9a32cd" points="48.2973,-237.745 50.0057,-248.201 55.1908,-238.962 48.2973,-237.745"/>
<text text-anchor="middle" x="584.5" y="-25" font-family="Helvetica,sans-Serif" font-size="10.00"> channel_id</text>
<text text-anchor="middle" x="584.5" y="-14" font-family="Helvetica,sans-Serif" font-size="10.00">guild_id</text>
<text text-anchor="middle" x="584.5" y="-3" font-family="Helvetica,sans-Serif" font-size="10.00">user_id</text>
</g>
<!-- Node15 -->
<g id="node15" class="node"><title>Node15</title>
<g id="a_node15"><a xlink:title=" ">
<polygon fill="white" stroke="#bfbfbf" points="192.5,-461.5 192.5,-480.5 249.5,-480.5 249.5,-461.5 192.5,-461.5"/>
<text text-anchor="middle" x="221" y="-468.5" font-family="Helvetica,sans-Serif" font-size="10.00">function&lt;</text>
</a>
</g>
</g>
<!-- Node15&#45;&gt;Node7 -->
<g id="edge15" class="edge"><title>Node15&#45;&gt;Node7</title>
<path fill="none" stroke="#9a32cd" stroke-dasharray="5,2" d="M239.77,-487.83C254.62,-501.599 276.588,-521.291 297,-537 341.936,-571.582 364.87,-566.032 403,-608 420.655,-627.433 455.172,-699.787 467.494,-726.237"/>
<polygon fill="#9a32cd" stroke="#9a32cd" points="242.003,-485.126 232.308,-480.853 237.222,-490.239 242.003,-485.126"/>
<text text-anchor="middle" x="350" y="-644" font-family="Helvetica,sans-Serif" font-size="10.00"> custom_readable_fd</text>
<text text-anchor="middle" x="350" y="-633" font-family="Helvetica,sans-Serif" font-size="10.00">custom_readable_ready</text>
<text text-anchor="middle" x="350" y="-622" font-family="Helvetica,sans-Serif" font-size="10.00">custom_writeable_fd</text>
<text text-anchor="middle" x="350" y="-611" font-family="Helvetica,sans-Serif" font-size="10.00">custom_writeable_ready</text>
</g>
<!-- Node19 -->
<g id="node19" class="node"><title>Node19</title>
<g id="a_node19"><a xlink:href="classdpp_1_1dispatcher.html" target="_top" xlink:title="The dispatcher class contains a set of std::functions representing hooked events that the user code i...">
<polygon fill="white" stroke="black" points="431.5,-415.5 431.5,-434.5 514.5,-434.5 514.5,-415.5 431.5,-415.5"/>
<text text-anchor="middle" x="473" y="-422.5" font-family="Helvetica,sans-Serif" font-size="10.00">dpp::dispatcher</text>
</a>
</g>
</g>
<!-- Node15&#45;&gt;Node19 -->
<g id="edge22" class="edge"><title>Node15&#45;&gt;Node19</title>
<path fill="none" stroke="#9a32cd" stroke-dasharray="5,2" d="M231.384,-452.421C243.325,-431.097 266.162,-397.236 297,-383 339.773,-363.254 358.703,-366.962 403,-383 412.792,-386.545 412.352,-392.199 421,-398 430.651,-404.474 442.028,-410.624 451.584,-415.415"/>
<polygon fill="#9a32cd" stroke="#9a32cd" points="228.168,-451.012 226.542,-461.482 234.342,-454.312 228.168,-451.012"/>
<text text-anchor="start" x="301" y="-529" font-family="Helvetica,sans-Serif" font-size="10.00"> application_command</text>
<text text-anchor="middle" x="350" y="-518" font-family="Helvetica,sans-Serif" font-size="10.00">_create</text>
<text text-anchor="start" x="301" y="-507" font-family="Helvetica,sans-Serif" font-size="10.00">application_command</text>
<text text-anchor="middle" x="350" y="-496" font-family="Helvetica,sans-Serif" font-size="10.00">_delete</text>
<text text-anchor="start" x="301" y="-485" font-family="Helvetica,sans-Serif" font-size="10.00">application_command</text>
<text text-anchor="middle" x="350" y="-474" font-family="Helvetica,sans-Serif" font-size="10.00">_update</text>
<text text-anchor="middle" x="350" y="-463" font-family="Helvetica,sans-Serif" font-size="10.00">button_click</text>
<text text-anchor="middle" x="350" y="-452" font-family="Helvetica,sans-Serif" font-size="10.00">channel_create</text>
<text text-anchor="middle" x="350" y="-441" font-family="Helvetica,sans-Serif" font-size="10.00">channel_delete</text>
<text text-anchor="middle" x="350" y="-430" font-family="Helvetica,sans-Serif" font-size="10.00">channel_pins_update</text>
<text text-anchor="middle" x="350" y="-419" font-family="Helvetica,sans-Serif" font-size="10.00">channel_update</text>
<text text-anchor="middle" x="350" y="-408" font-family="Helvetica,sans-Serif" font-size="10.00">guild_ban_add</text>
<text text-anchor="middle" x="350" y="-397" font-family="Helvetica,sans-Serif" font-size="10.00">guild_ban_remove</text>
<text text-anchor="middle" x="350" y="-386" font-family="Helvetica,sans-Serif" font-size="10.00">...</text>
</g>
<!-- Node16&#45;&gt;Node5 -->
<g id="edge16" class="edge"><title>Node16&#45;&gt;Node5</title>
<path fill="none" stroke="#9a32cd" stroke-dasharray="5,2" d="M716.207,-427.544C764.467,-487.137 921.153,-680.621 958.13,-726.282"/>
<polygon fill="#9a32cd" stroke="#9a32cd" points="718.914,-425.325 709.901,-419.757 713.474,-429.731 718.914,-425.325"/>
<text text-anchor="middle" x="838" y="-652" font-family="Helvetica,sans-Serif" font-size="10.00"> creator</text>
</g>
<!-- Node17 -->
<g id="node17" class="node"><title>Node17</title>
<g id="a_node17"><a xlink:title=" ">
<polygon fill="white" stroke="#bfbfbf" points="195.5,-286.5 195.5,-305.5 246.5,-305.5 246.5,-286.5 195.5,-286.5"/>
<text text-anchor="middle" x="221" y="-293.5" font-family="Helvetica,sans-Serif" font-size="10.00">uint32_t</text>
</a>
</g>
</g>
<!-- Node17&#45;&gt;Node5 -->
<g id="edge34" class="edge"><title>Node17&#45;&gt;Node5</title>
<path fill="none" stroke="#9a32cd" stroke-dasharray="5,2" d="M256.254,-287.761C264.09,-285.031 272.128,-281.501 279,-277 289.004,-270.448 287.25,-263.924 297,-257 419.195,-170.219 482.355,-140.238 626,-183 765.415,-224.503 819.871,-240.599 900,-362 941.587,-425.007 961.584,-674.56 965.34,-726.499"/>
<polygon fill="#9a32cd" stroke="#9a32cd" points="255.035,-284.475 246.539,-290.804 257.128,-291.155 255.035,-284.475"/>
<text text-anchor="middle" x="584.5" y="-241" font-family="Helvetica,sans-Serif" font-size="10.00"> heartbeat_interval</text>
<text text-anchor="middle" x="584.5" y="-230" font-family="Helvetica,sans-Serif" font-size="10.00">intents</text>
<text text-anchor="middle" x="584.5" y="-219" font-family="Helvetica,sans-Serif" font-size="10.00">max_shards</text>
<text text-anchor="middle" x="584.5" y="-208" font-family="Helvetica,sans-Serif" font-size="10.00">reconnects</text>
<text text-anchor="middle" x="584.5" y="-197" font-family="Helvetica,sans-Serif" font-size="10.00">resumes</text>
<text text-anchor="middle" x="584.5" y="-186" font-family="Helvetica,sans-Serif" font-size="10.00">shard_id</text>
</g>
<!-- Node17&#45;&gt;Node16 -->
<g id="edge19" class="edge"><title>Node17&#45;&gt;Node16</title>
<path fill="none" stroke="#9a32cd" stroke-dasharray="5,2" d="M256.668,-300.83C326.075,-310.936 479.353,-335.573 525,-362 534.791,-367.668 533.002,-374.704 543,-380 582.236,-400.782 633.755,-407.305 666.877,-409.275"/>
<polygon fill="#9a32cd" stroke="#9a32cd" points="257.065,-297.351 246.668,-299.39 256.068,-304.279 257.065,-297.351"/>
<text text-anchor="middle" x="473" y="-398" font-family="Helvetica,sans-Serif" font-size="10.00"> cluster_id</text>
<text text-anchor="middle" x="473" y="-387" font-family="Helvetica,sans-Serif" font-size="10.00">intents</text>
<text text-anchor="middle" x="473" y="-376" font-family="Helvetica,sans-Serif" font-size="10.00">maxclusters</text>
<text text-anchor="middle" x="473" y="-365" font-family="Helvetica,sans-Serif" font-size="10.00">numshards</text>
</g>
<!-- Node17&#45;&gt;Node20 -->
<g id="edge30" class="edge"><title>Node17&#45;&gt;Node20</title>
<path fill="none" stroke="#9a32cd" stroke-dasharray="5,2" d="M256.736,-292.686C293.205,-289.714 352.195,-286.338 403,-290 416.642,-290.983 431.685,-293.047 444.234,-295.046"/>
<polygon fill="#9a32cd" stroke="#9a32cd" points="256.291,-289.211 246.624,-293.548 256.885,-296.186 256.291,-289.211"/>
<text text-anchor="middle" x="350" y="-293" font-family="Helvetica,sans-Serif" font-size="10.00"> flags</text>
</g>
<!-- Node18 -->
<g id="node18" class="node"><title>Node18</title>
<g id="a_node18"><a xlink:title=" ">
<polygon fill="white" stroke="#bfbfbf" points="450.5,-214.5 450.5,-233.5 495.5,-233.5 495.5,-214.5 450.5,-214.5"/>
<text text-anchor="middle" x="473" y="-221.5" font-family="Helvetica,sans-Serif" font-size="10.00">double</text>
</a>
</g>
</g>
<!-- Node18&#45;&gt;Node5 -->
<g id="edge40" class="edge"><title>Node18&#45;&gt;Node5</title>
<path fill="none" stroke="#9a32cd" stroke-dasharray="5,2" d="M505.076,-234.727C511.727,-237.258 518.658,-240.077 525,-243 533.311,-246.831 534.63,-249.3 543,-253 578.607,-268.741 591.548,-262.869 626,-281 764.698,-353.991 815.884,-370.752 900,-503 948.738,-579.626 962.217,-692.822 965.239,-726.324"/>
<polygon fill="#9a32cd" stroke="#9a32cd" points="506.226,-231.421 495.633,-231.246 503.805,-237.989 506.226,-231.421"/>
<text text-anchor="middle" x="701" y="-354" font-family="Helvetica,sans-Serif" font-size="10.00"> websocket_ping</text>
</g>
<!-- Node18&#45;&gt;Node16 -->
<g id="edge20" class="edge"><title>Node18&#45;&gt;Node16</title>
<path fill="none" stroke="#9a32cd" stroke-dasharray="5,2" d="M505.224,-231.502C512.293,-234.266 519.366,-237.996 525,-243 538.079,-254.615 529.309,-267.113 543,-278 572.783,-301.683 594.927,-277.037 626,-299 663.826,-325.737 687.715,-378.446 696.356,-400.227"/>
<polygon fill="#9a32cd" stroke="#9a32cd" points="506.317,-228.177 495.723,-228.302 504.082,-234.811 506.317,-228.177"/>
<text text-anchor="middle" x="584.5" y="-302" font-family="Helvetica,sans-Serif" font-size="10.00"> rest_ping</text>
</g>
<!-- Node19&#45;&gt;Node16 -->
<g id="edge21" class="edge"><title>Node19&#45;&gt;Node16</title>
<path fill="none" stroke="#9a32cd" stroke-dasharray="5,2" d="M524.728,-421.633C568.083,-418.756 629.221,-414.698 666.646,-412.214"/>
<polygon fill="#9a32cd" stroke="#9a32cd" points="524.412,-418.146 514.665,-422.301 524.875,-425.131 524.412,-418.146"/>
<text text-anchor="middle" x="584.5" y="-424" font-family="Helvetica,sans-Serif" font-size="10.00"> dispatch</text>
</g>
<!-- Node20&#45;&gt;Node16 -->
<g id="edge23" class="edge"><title>Node20&#45;&gt;Node16</title>
<path fill="none" stroke="#9a32cd" stroke-dasharray="5,2" d="M503.589,-314.397C510.843,-318.419 518.41,-323.055 525,-328 534.049,-334.79 533.226,-340.301 543,-346 576.069,-365.281 590.568,-354.513 626,-369 647.48,-377.783 670.634,-391.342 685.213,-400.436"/>
<polygon fill="#9a32cd" stroke="#9a32cd" points="505.14,-311.257 494.667,-309.653 501.854,-317.438 505.14,-311.257"/>
<text text-anchor="middle" x="584.5" y="-372" font-family="Helvetica,sans-Serif" font-size="10.00"> me</text>
</g>
<!-- Node21&#45;&gt;Node20 -->
<g id="edge24" class="edge"><title>Node21&#45;&gt;Node20</title>
<path fill="none" stroke="midnightblue" d="M270.704,-220.685C309.278,-223.303 363.121,-231.749 403,-257 414.265,-264.133 410.321,-273.016 421,-281 427.887,-286.148 436.321,-290.037 444.334,-292.912"/>
<polygon fill="midnightblue" stroke="midnightblue" points="270.436,-217.164 260.253,-220.092 270.039,-224.153 270.436,-217.164"/>
</g>
<!-- Node22 -->
<g id="node22" class="node"><title>Node22</title>
<g id="a_node22"><a xlink:title=" ">
<polygon fill="white" stroke="#bfbfbf" points="195.5,-161.5 195.5,-180.5 246.5,-180.5 246.5,-161.5 195.5,-161.5"/>
<text text-anchor="middle" x="221" y="-168.5" font-family="Helvetica,sans-Serif" font-size="10.00">uint16_t</text>
</a>
</g>
</g>
<!-- Node22&#45;&gt;Node20 -->
<g id="edge27" class="edge"><title>Node22&#45;&gt;Node20</title>
<path fill="none" stroke="#9a32cd" stroke-dasharray="5,2" d="M257.027,-168.142C297.622,-166.865 363.929,-171.387 403,-209 426.763,-231.876 399.014,-256.411 421,-281 427.109,-287.832 435.911,-292.215 444.487,-295.023"/>
<polygon fill="#9a32cd" stroke="#9a32cd" points="256.63,-164.656 246.798,-168.604 256.946,-171.649 256.63,-164.656"/>
<text text-anchor="middle" x="350" y="-212" font-family="Helvetica,sans-Serif" font-size="10.00"> discriminator</text>
</g>
<!-- Node23&#45;&gt;Node20 -->
<g id="edge28" class="edge"><title>Node23&#45;&gt;Node20</title>
<path fill="none" stroke="#9a32cd" stroke-dasharray="5,2" d="M284.63,-259.189C319.803,-260.936 364.277,-264.952 403,-274 411.359,-275.953 412.978,-277.946 421,-281 429.124,-284.093 437.996,-287.416 446.028,-290.406"/>
<polygon fill="#9a32cd" stroke="#9a32cd" points="284.647,-255.686 274.5,-258.735 284.334,-262.679 284.647,-255.686"/>
<text text-anchor="middle" x="350" y="-277" font-family="Helvetica,sans-Serif" font-size="10.00"> avatar</text>
</g>
<!-- Node24 -->
<g id="node24" class="node"><title>Node24</title>
<g id="a_node24"><a xlink:title=" ">
<polygon fill="white" stroke="#bfbfbf" points="198,-116.5 198,-135.5 244,-135.5 244,-116.5 198,-116.5"/>
<text text-anchor="middle" x="221" y="-123.5" font-family="Helvetica,sans-Serif" font-size="10.00">uint8_t</text>
</a>
</g>
</g>
<!-- Node24&#45;&gt;Node20 -->
<g id="edge31" class="edge"><title>Node24&#45;&gt;Node20</title>
<path fill="none" stroke="#9a32cd" stroke-dasharray="5,2" d="M254.22,-120.827C294.915,-116.302 364.291,-115.628 403,-155 442.659,-195.338 385.517,-236.944 421,-281 426.808,-288.211 435.643,-292.686 444.337,-295.462"/>
<polygon fill="#9a32cd" stroke="#9a32cd" points="253.525,-117.386 244.039,-122.106 254.397,-124.332 253.525,-117.386"/>
<text text-anchor="middle" x="350" y="-158" font-family="Helvetica,sans-Serif" font-size="10.00"> refcount</text>
</g>
<!-- Node24&#45;&gt;Node30 -->
<g id="edge47" class="edge"><title>Node24&#45;&gt;Node30</title>
<path fill="none" stroke="#9a32cd" stroke-dasharray="5,2" d="M253.71,-116.188C262.698,-112.249 271.946,-106.953 279,-100 292.309,-86.8814 281.62,-72.6155 297,-62 361.216,-17.6777 393.974,-48 472,-48 472,-48 472,-48 968,-48 1110.13,-48 1132.73,-624.153 1135.23,-706.299"/>
<polygon fill="#9a32cd" stroke="#9a32cd" points="252.196,-113.022 244.174,-119.942 254.761,-119.535 252.196,-113.022"/>
<text text-anchor="middle" x="701" y="-51" font-family="Helvetica,sans-Serif" font-size="10.00"> flags</text>
</g>
<!-- Node25 -->
<g id="node25" class="node"><title>Node25</title>
<g id="a_node25"><a xlink:href="structdpp_1_1cache__policy__t.html" target="_top" xlink:title="Represents the caching policy of the cluster.">
<polygon fill="white" stroke="black" points="421,-252.5 421,-271.5 525,-271.5 525,-252.5 421,-252.5"/>
<text text-anchor="middle" x="473" y="-259.5" font-family="Helvetica,sans-Serif" font-size="10.00">dpp::cache_policy_t</text>
</a>
</g>
</g>
<!-- Node25&#45;&gt;Node16 -->
<g id="edge32" class="edge"><title>Node25&#45;&gt;Node16</title>
<path fill="none" stroke="#9a32cd" stroke-dasharray="5,2" d="M518.598,-276.376C520.856,-277.783 523.009,-279.321 525,-281 537.178,-291.272 530.281,-302.406 543,-312 573.378,-334.915 593.103,-313.878 626,-333 656.135,-350.517 681.918,-383.832 693.489,-400.295"/>
<polygon fill="#9a32cd" stroke="#9a32cd" points="519.973,-273.144 509.495,-271.57 516.705,-279.334 519.973,-273.144"/>
<text text-anchor="middle" x="584.5" y="-336" font-family="Helvetica,sans-Serif" font-size="10.00"> cache_policy</text>
</g>
<!-- Node26 -->
<g id="node26" class="node"><title>Node26</title>
<g id="a_node26"><a xlink:title=" ">
<polygon fill="white" stroke="#bfbfbf" points="163,-71.5 163,-90.5 279,-90.5 279,-71.5 163,-71.5"/>
<text text-anchor="middle" x="221" y="-78.5" font-family="Helvetica,sans-Serif" font-size="10.00">cache_policy_setting_t</text>
</a>
</g>
</g>
<!-- Node26&#45;&gt;Node25 -->
<g id="edge33" class="edge"><title>Node26&#45;&gt;Node25</title>
<path fill="none" stroke="#9a32cd" stroke-dasharray="5,2" d="M258.373,-68.5251C298.955,-57.1563 364.015,-46.9361 403,-82 429.767,-106.075 398.849,-214.621 421,-243 424.023,-246.873 427.922,-249.957 432.217,-252.412"/>
<polygon fill="#9a32cd" stroke="#9a32cd" points="257.21,-65.2193 248.614,-71.4134 259.196,-71.9316 257.21,-65.2193"/>
<text text-anchor="middle" x="350" y="-107" font-family="Helvetica,sans-Serif" font-size="10.00"> emoji_policy</text>
<text text-anchor="middle" x="350" y="-96" font-family="Helvetica,sans-Serif" font-size="10.00">role_policy</text>
<text text-anchor="middle" x="350" y="-85" font-family="Helvetica,sans-Serif" font-size="10.00">user_policy</text>
</g>
<!-- Node27 -->
<g id="node27" class="node"><title>Node27</title>
<g id="a_node27"><a xlink:title=" ">
<polygon fill="white" stroke="#bfbfbf" points="650.5,-138.5 650.5,-157.5 751.5,-157.5 751.5,-138.5 650.5,-138.5"/>
<text text-anchor="middle" x="701" y="-145.5" font-family="Helvetica,sans-Serif" font-size="10.00">native_handle_type</text>
</a>
</g>
</g>
<!-- Node27&#45;&gt;Node5 -->
<g id="edge36" class="edge"><title>Node27&#45;&gt;Node5</title>
<path fill="none" stroke="#9a32cd" stroke-dasharray="5,2" d="M746.615,-136.309C791.519,-127.494 859.732,-122.648 900,-161 942.838,-201.8 962.714,-654.132 965.622,-726.314"/>
<polygon fill="#9a32cd" stroke="#9a32cd" points="745.635,-132.938 736.57,-138.422 747.077,-139.788 745.635,-132.938"/>
<text text-anchor="middle" x="838" y="-164" font-family="Helvetica,sans-Serif" font-size="10.00"> thread_id</text>
</g>
<!-- Node28 -->
<g id="node28" class="node"><title>Node28</title>
<g id="a_node28"><a xlink:title=" ">
<polygon fill="white" stroke="#bfbfbf" points="669.5,-933.5 669.5,-952.5 732.5,-952.5 732.5,-933.5 669.5,-933.5"/>
<text text-anchor="middle" x="701" y="-940.5" font-family="Helvetica,sans-Serif" font-size="10.00">std::mutex</text>
</a>
</g>
</g>
<!-- Node28&#45;&gt;Node5 -->
<g id="edge39" class="edge"><title>Node28&#45;&gt;Node5</title>
<path fill="none" stroke="#9a32cd" stroke-dasharray="5,2" d="M742.497,-949.57C786.153,-954.278 855.368,-954.552 900,-919 956.533,-873.968 964.67,-776.345 965.818,-745.525"/>
<polygon fill="#9a32cd" stroke="#9a32cd" points="742.863,-946.089 732.516,-948.369 742.026,-953.039 742.863,-946.089"/>
<text text-anchor="middle" x="838" y="-955" font-family="Helvetica,sans-Serif" font-size="10.00"> voice_mutex</text>
</g>
<!-- Node29 -->
<g id="node29" class="node"><title>Node29</title>
<g id="a_node29"><a xlink:title=" ">
<polygon fill="white" stroke="#bfbfbf" points="656.5,-895.5 656.5,-914.5 745.5,-914.5 745.5,-895.5 656.5,-895.5"/>
<text text-anchor="middle" x="701" y="-902.5" font-family="Helvetica,sans-Serif" font-size="10.00">unordered_map&lt;</text>
</a>
</g>
</g>
<!-- Node29&#45;&gt;Node5 -->
<g id="edge42" class="edge"><title>Node29&#45;&gt;Node5</title>
<path fill="none" stroke="#9a32cd" stroke-dasharray="5,2" d="M755.686,-904.296C806.333,-902.618 877.72,-897.318 900,-881 946.413,-847.007 960.975,-772.53 964.804,-745.796"/>
<polygon fill="#9a32cd" stroke="#9a32cd" points="755.429,-900.802 745.536,-904.594 755.634,-907.799 755.429,-900.802"/>
<text text-anchor="middle" x="838" y="-907" font-family="Helvetica,sans-Serif" font-size="10.00"> connecting_voice_channels</text>
</g>
<!-- Node30&#45;&gt;Node1 -->
<g id="edge43" class="edge"><title>Node30&#45;&gt;Node1</title>
<path fill="none" stroke="#9a32cd" stroke-dasharray="5,2" d="M1188.13,-721.595C1208.51,-723.846 1232.26,-726.47 1253.86,-728.857"/>
<polygon fill="#9a32cd" stroke="#9a32cd" points="1188.44,-718.108 1178.12,-720.488 1187.68,-725.066 1188.44,-718.108"/>
<text text-anchor="middle" x="1223.5" y="-730" font-family="Helvetica,sans-Serif" font-size="10.00"> state</text>
</g>
</g>
</svg>
        <g id="navigator" transform="translate(0 0)" fill="#404254">
                <rect fill="#f2f5e9" fill-opacity="0.5" stroke="#606060" stroke-width=".5" x="0" y="0" width="60" height="60"/>
                <use id="zoomplus" xlink:href="#zoomPlus" x="17" y="9" onmousedown="handleZoom(evt,'in')"/>
                <use id="zoomminus" xlink:href="#zoomMin" x="42" y="9" onmousedown="handleZoom(evt,'out')"/>
                <use id="reset" xlink:href="#resetDef" x="30" y="36" onmousedown="handleReset()"/>
                <g id="arrowUp" xlink:href="#dirArrow" transform="translate(30 24)" onmousedown="handlePan(0,-1)">
                  <use xlink:href="#rim" fill="#404040">
                        <set attributeName="fill" to="#808080" begin="arrowUp.mouseover" end="arrowUp.mouseout"/>
                  </use>
                  <path fill="none" stroke="white" stroke-width="1.5" d="M0,-3.0v7 M-2.5,-0.5L0,-3.0L2.5,-0.5"/>
                </g>
                <g id="arrowRight" xlink:href="#dirArrow" transform="rotate(90) translate(36 -43)" onmousedown="handlePan(1,0)">
                  <use xlink:href="#rim" fill="#404040">
                        <set attributeName="fill" to="#808080" begin="arrowRight.mouseover" end="arrowRight.mouseout"/>
                  </use>
                  <path fill="none" stroke="white" stroke-width="1.5" d="M0,-3.0v7 M-2.5,-0.5L0,-3.0L2.5,-0.5"/>
                </g>
                <g id="arrowDown" xlink:href="#dirArrow" transform="rotate(180) translate(-30 -48)" onmousedown="handlePan(0,1)">
                  <use xlink:href="#rim" fill="#404040">
                        <set attributeName="fill" to="#808080" begin="arrowDown.mouseover" end="arrowDown.mouseout"/>
                  </use>
                  <path fill="none" stroke="white" stroke-width="1.5" d="M0,-3.0v7 M-2.5,-0.5L0,-3.0L2.5,-0.5"/>
                </g>
                <g id="arrowLeft" xlink:href="#dirArrow" transform="rotate(270) translate(-36 17)" onmousedown="handlePan(-1,0)">
                  <use xlink:href="#rim" fill="#404040">
                        <set attributeName="fill" to="#808080" begin="arrowLeft.mouseover" end="arrowLeft.mouseout"/>
                  </use>
                  <path fill="none" stroke="white" stroke-width="1.5" d="M0,-3.0v7 M-2.5,-0.5L0,-3.0L2.5,-0.5"/>
                </g>
        </g>
        <svg viewBox="0 0 15 15" width="100%" height="30px" preserveAspectRatio="xMaxYMin meet">
         <g id="arrow_out" transform="scale(0.3 0.3)">
          <a xlink:href="structdpp_1_1voice__state__update__t__coll__graph_org.svg" target="_base">
           <rect id="button" ry="5" rx="5" y="6" x="6" height="38" width="38"
                fill="#f2f5e9" fill-opacity="0.5" stroke="#606060" stroke-width="1.0"/>
           <path id="arrow"
             d="M 11.500037,31.436501 C 11.940474,20.09759 22.043105,11.32322 32.158766,21.979434 L 37.068811,17.246167 C 37.068811,17.246167 37.088388,32 37.088388,32 L 22.160133,31.978069 C 22.160133,31.978069 26.997745,27.140456 26.997745,27.140456 C 18.528582,18.264221 13.291696,25.230495 11.500037,31.436501 z"
             style="fill:#404040;"/>
          </a>
         </g>
        </svg>
</svg>
