<?xml version="1.0" encoding="UTF-8" standalone="no"?>
<!DOCTYPE svg PUBLIC "-//W3C//DTD SVG 1.1//EN"
 "http://www.w3.org/Graphics/SVG/1.1/DTD/svg11.dtd">
<!-- Generated by graphviz version 2.38.0 (20140413.2041)
 -->
<!-- Title: dpp::sticker_pack Pages: 1 -->
<svg width="248pt" height="196pt"
 viewBox="0.00 0.00 248.00 196.00" xmlns="http://www.w3.org/2000/svg" xmlns:xlink="http://www.w3.org/1999/xlink">
<g id="graph0" class="graph" transform="scale(1 1) rotate(0) translate(4 192)">
<title>dpp::sticker_pack</title>
<polygon fill="white" stroke="none" points="-4,4 -4,-192 244,-192 244,4 -4,4"/>
<!-- Node1 -->
<g id="node1" class="node"><title>Node1</title>
<g id="a_node1"><a xlink:title=" ">
<polygon fill="#bfbfbf" stroke="black" points="76.5,-0.5 76.5,-19.5 170.5,-19.5 170.5,-0.5 76.5,-0.5"/>
<text text-anchor="middle" x="123.5" y="-7.5" font-family="Helvetica,sans-Serif" font-size="10.00">dpp::sticker_pack</text>
</a>
</g>
</g>
<!-- Node2 -->
<g id="node2" class="node"><title>Node2</title>
<g id="a_node2"><a xlink:title=" ">
<polygon fill="white" stroke="#bfbfbf" points="0,-100.5 0,-119.5 51,-119.5 51,-100.5 0,-100.5"/>
<text text-anchor="middle" x="25.5" y="-107.5" font-family="Helvetica,sans-Serif" font-size="10.00">uint64_t</text>
</a>
</g>
</g>
<!-- Node2&#45;&gt;Node1 -->
<g id="edge1" class="edge"><title>Node2&#45;&gt;Node1</title>
<path fill="none" stroke="#9a32cd" stroke-dasharray="5,2" d="M25.8211,-90.159C27.0831,-74.3335 31.3211,-52.1049 44.5,-38 52.9111,-28.9979 64.4461,-22.9972 76.1031,-18.9972"/>
<polygon fill="#9a32cd" stroke="#9a32cd" points="22.3159,-90.1898 25.3429,-100.343 29.3082,-90.5182 22.3159,-90.1898"/>
<text text-anchor="middle" x="82" y="-74" font-family="Helvetica,sans-Serif" font-size="10.00"> banner_asset_id</text>
<text text-anchor="middle" x="82" y="-63" font-family="Helvetica,sans-Serif" font-size="10.00">cover_sticker_id</text>
<text text-anchor="middle" x="82" y="-52" font-family="Helvetica,sans-Serif" font-size="10.00">id</text>
<text text-anchor="middle" x="82" y="-41" font-family="Helvetica,sans-Serif" font-size="10.00">sku_id</text>
</g>
<!-- Node3 -->
<g id="node3" class="node"><title>Node3</title>
<g id="a_node3"><a xlink:title=" ">
<polygon fill="white" stroke="#bfbfbf" points="103,-100.5 103,-119.5 144,-119.5 144,-100.5 103,-100.5"/>
<text text-anchor="middle" x="123.5" y="-107.5" font-family="Helvetica,sans-Serif" font-size="10.00">map&lt;</text>
</a>
</g>
</g>
<!-- Node3&#45;&gt;Node1 -->
<g id="edge2" class="edge"><title>Node3&#45;&gt;Node1</title>
<path fill="none" stroke="#9a32cd" stroke-dasharray="5,2" d="M123.5,-90.2203C123.5,-68.9514 123.5,-35.2197 123.5,-19.5374"/>
<polygon fill="#9a32cd" stroke="#9a32cd" points="120,-90.3031 123.5,-100.303 127,-90.3032 120,-90.3031"/>
<text text-anchor="middle" x="142.5" y="-57.5" font-family="Helvetica,sans-Serif" font-size="10.00"> stickers</text>
</g>
<!-- Node4 -->
<g id="node4" class="node"><title>Node4</title>
<g id="a_node4"><a xlink:title=" ">
<polygon fill="white" stroke="#bfbfbf" points="162.5,-100.5 162.5,-119.5 222.5,-119.5 222.5,-100.5 162.5,-100.5"/>
<text text-anchor="middle" x="192.5" y="-107.5" font-family="Helvetica,sans-Serif" font-size="10.00">std::string</text>
</a>
</g>
</g>
<!-- Node4&#45;&gt;Node1 -->
<g id="edge3" class="edge"><title>Node4&#45;&gt;Node1</title>
<path fill="none" stroke="#9a32cd" stroke-dasharray="5,2" d="M188.83,-90.3635C185.057,-75.0039 177.933,-53.3301 165.5,-38 159.275,-30.3249 150.266,-24.1313 142.186,-19.6216"/>
<polygon fill="#9a32cd" stroke="#9a32cd" points="185.44,-91.2406 191.013,-100.251 192.275,-89.7313 185.44,-91.2406"/>
<text text-anchor="middle" x="212" y="-63" font-family="Helvetica,sans-Serif" font-size="10.00"> description</text>
<text text-anchor="middle" x="212" y="-52" font-family="Helvetica,sans-Serif" font-size="10.00">name</text>
</g>
<!-- Node5 -->
<g id="node5" class="node"><title>Node5</title>
<g id="a_node5"><a xlink:title=" ">
<polygon fill="white" stroke="#bfbfbf" points="145,-157.5 145,-187.5 240,-187.5 240,-157.5 145,-157.5"/>
<text text-anchor="start" x="153" y="-175.5" font-family="Helvetica,sans-Serif" font-size="10.00">std::basic_string&lt;</text>
<text text-anchor="middle" x="192.5" y="-164.5" font-family="Helvetica,sans-Serif" font-size="10.00"> Char &gt;</text>
</a>
</g>
</g>
<!-- Node5&#45;&gt;Node4 -->
<g id="edge4" class="edge"><title>Node5&#45;&gt;Node4</title>
<path fill="none" stroke="midnightblue" d="M192.5,-147.352C192.5,-137.513 192.5,-126.775 192.5,-119.54"/>
<polygon fill="midnightblue" stroke="midnightblue" points="189,-147.468 192.5,-157.468 196,-147.468 189,-147.468"/>
</g>
</g>
</svg>
