<?xml version="1.0" encoding="UTF-8" standalone="no"?>
<!DOCTYPE svg PUBLIC "-//W3C//DTD SVG 1.1//EN"
 "http://www.w3.org/Graphics/SVG/1.1/DTD/svg11.dtd">
<!-- Generated by graphviz version 2.38.0 (20140413.2041)
 -->
<!-- Title: dpp::embed Pages: 1 -->
<!--zoomable 351 -->
<svg id="main" version="1.1" xmlns="http://www.w3.org/2000/svg" xmlns:xlink="http://www.w3.org/1999/xlink" xml:space="preserve" onload="init(evt)">
<style type="text/css"><![CDATA[
.edge:hover path { stroke: red; }
.edge:hover polygon { stroke: red; fill: red; }
]]></style>
<script type="text/javascript"><![CDATA[
var edges = document.getElementsByTagName('g');
if (edges && edges.length) {
  for (var i=0;i<edges.length;i++) {
    if (edges[i].id.substr(0,4)=='edge') {
      edges[i].setAttribute('class','edge');
    }
  }
}
]]></script>
        <defs>
                <circle id="rim" cx="0" cy="0" r="7"/>
                <circle id="rim2" cx="0" cy="0" r="3.5"/>
                <g id="zoomPlus">
                        <use xlink:href="#rim" fill="#404040">
                                <set attributeName="fill" to="#808080" begin="zoomplus.mouseover" end="zoomplus.mouseout"/>
                        </use>
                        <path d="M-4,0h8M0,-4v8" fill="none" stroke="white" stroke-width="1.5" pointer-events="none"/>
                </g>
                <g id="zoomMin">
                        <use xlink:href="#rim" fill="#404040">
                                <set attributeName="fill" to="#808080" begin="zoomminus.mouseover" end="zoomminus.mouseout"/>
                        </use>
                        <path d="M-4,0h8" fill="none" stroke="white" stroke-width="1.5" pointer-events="none"/>
                </g>
                <g id="dirArrow">
                        <path fill="none" stroke="white" stroke-width="1.5" d="M0,-3.0v7 M-2.5,-0.5L0,-3.0L2.5,-0.5"/>
                </g>
               <g id="resetDef">
                       <use xlink:href="#rim2" fill="#404040">
                               <set attributeName="fill" to="#808080" begin="reset.mouseover" end="reset.mouseout"/>
                       </use>
               </g>
        </defs>

<script type="text/javascript">
var viewWidth = 726;
var viewHeight = 351;
var sectionId = 'dynsection-0';
</script>
<script xlink:href="svgpan.js"/>
<svg id="graph" class="graph">
<g id="viewport">
<title>dpp::embed</title>
<polygon fill="white" stroke="none" points="-4,4 -4,-347 722,-347 722,4 -4,4"/>
<!-- Node1 -->
<g id="node1" class="node"><title>Node1</title>
<polygon fill="#bfbfbf" stroke="black" points="650,-167 650,-186 718,-186 718,-167 650,-167"/>
<text text-anchor="middle" x="684" y="-174" font-family="Helvetica,sans-Serif" font-size="10.00">dpp::embed</text>
</g>
<!-- Node2 -->
<g id="node2" class="node"><title>Node2</title>
<polygon fill="white" stroke="#bfbfbf" points="448.5,-312.5 448.5,-342.5 558.5,-342.5 558.5,-312.5 448.5,-312.5"/>
<text text-anchor="start" x="456.5" y="-330.5" font-family="Helvetica,sans-Serif" font-size="10.00">optional&lt; dpp::embed</text>
<text text-anchor="middle" x="503.5" y="-319.5" font-family="Helvetica,sans-Serif" font-size="10.00">_image &gt;</text>
</g>
<!-- Node2&#45;&gt;Node1 -->
<g id="edge1" class="edge"><title>Node2&#45;&gt;Node1</title>
<path fill="none" stroke="#9a32cd" stroke-dasharray="5,2" d="M568.326,-313.751C590.48,-306.485 614.203,-295.606 632,-279.5 661.146,-253.124 675.636,-206.348 680.766,-186.188"/>
<polygon fill="#9a32cd" stroke="#9a32cd" points="567.143,-310.453 558.618,-316.745 569.205,-317.143 567.143,-310.453"/>
<text text-anchor="middle" x="607.5" y="-332.5" font-family="Helvetica,sans-Serif" font-size="10.00"> video</text>
<text text-anchor="middle" x="607.5" y="-321.5" font-family="Helvetica,sans-Serif" font-size="10.00">thumbnail</text>
<text text-anchor="middle" x="607.5" y="-310.5" font-family="Helvetica,sans-Serif" font-size="10.00">image</text>
</g>
<!-- Node3 -->
<g id="node3" class="node"><title>Node3</title>
<polygon fill="white" stroke="#bfbfbf" points="481.5,-274 481.5,-293 525.5,-293 525.5,-274 481.5,-274"/>
<text text-anchor="middle" x="503.5" y="-281" font-family="Helvetica,sans-Serif" font-size="10.00">time_t</text>
</g>
<!-- Node3&#45;&gt;Node1 -->
<g id="edge2" class="edge"><title>Node3&#45;&gt;Node1</title>
<path fill="none" stroke="#9a32cd" stroke-dasharray="5,2" d="M535.478,-278.363C562.857,-272.652 602.855,-261.35 632,-240.5 652.799,-225.621 669.563,-200.025 677.684,-186.139"/>
<polygon fill="#9a32cd" stroke="#9a32cd" points="534.793,-274.93 525.652,-280.286 536.138,-281.8 534.793,-274.93"/>
<text text-anchor="middle" x="607.5" y="-267.5" font-family="Helvetica,sans-Serif" font-size="10.00"> timestamp</text>
</g>
<!-- Node4 -->
<g id="node4" class="node"><title>Node4</title>
<polygon fill="white" stroke="#bfbfbf" points="442,-224.5 442,-254.5 565,-254.5 565,-224.5 442,-224.5"/>
<text text-anchor="start" x="450" y="-242.5" font-family="Helvetica,sans-Serif" font-size="10.00">std::vector&lt; dpp::embed</text>
<text text-anchor="middle" x="503.5" y="-231.5" font-family="Helvetica,sans-Serif" font-size="10.00">_field &gt;</text>
</g>
<!-- Node4&#45;&gt;Node1 -->
<g id="edge3" class="edge"><title>Node4&#45;&gt;Node1</title>
<path fill="none" stroke="#9a32cd" stroke-dasharray="5,2" d="M574.976,-227.456C593.913,-223.007 614.095,-217.127 632,-209.5 646.166,-203.466 660.762,-193.581 670.69,-186.2"/>
<polygon fill="#9a32cd" stroke="#9a32cd" points="574.194,-224.045 565.206,-229.654 575.73,-230.874 574.194,-224.045"/>
<text text-anchor="middle" x="607.5" y="-228.5" font-family="Helvetica,sans-Serif" font-size="10.00"> fields</text>
</g>
<!-- Node5 -->
<g id="node5" class="node"><title>Node5</title>
<g id="a_node5"><a xlink:href="structdpp_1_1embed__field.html" target="_top" xlink:title="A dpp::embed may contain zero or more fields. ">
<polygon fill="white" stroke="black" points="267,-253 267,-272 358,-272 358,-253 267,-253"/>
<text text-anchor="middle" x="312.5" y="-260" font-family="Helvetica,sans-Serif" font-size="10.00">dpp::embed_field</text>
</a>
</g>
</g>
<!-- Node5&#45;&gt;Node4 -->
<g id="edge4" class="edge"><title>Node5&#45;&gt;Node4</title>
<path fill="none" stroke="#9a32cd" stroke-dasharray="5,2" d="M368.258,-255.836C391.334,-253.028 418.275,-249.75 441.942,-246.87"/>
<polygon fill="#9a32cd" stroke="#9a32cd" points="367.794,-252.367 358.29,-257.049 368.64,-259.316 367.794,-252.367"/>
<text text-anchor="middle" x="400" y="-256.5" font-family="Helvetica,sans-Serif" font-size="10.00"> elements</text>
</g>
<!-- Node6 -->
<g id="node6" class="node"><title>Node6</title>
<polygon fill="white" stroke="#bfbfbf" points="144.5,-264 144.5,-283 179.5,-283 179.5,-264 144.5,-264"/>
<text text-anchor="middle" x="162" y="-271" font-family="Helvetica,sans-Serif" font-size="10.00">bool</text>
</g>
<!-- Node6&#45;&gt;Node5 -->
<g id="edge5" class="edge"><title>Node6&#45;&gt;Node5</title>
<path fill="none" stroke="#9a32cd" stroke-dasharray="5,2" d="M189.778,-271.516C211.251,-269.926 241.846,-267.66 266.99,-265.797"/>
<polygon fill="#9a32cd" stroke="#9a32cd" points="189.46,-268.03 179.746,-272.26 189.977,-275.011 189.46,-268.03"/>
<text text-anchor="middle" x="229.5" y="-272.5" font-family="Helvetica,sans-Serif" font-size="10.00"> is_inline</text>
</g>
<!-- Node7 -->
<g id="node7" class="node"><title>Node7</title>
<g id="a_node7"><a xlink:title="STL class. ">
<polygon fill="white" stroke="#bfbfbf" points="132,-203 132,-222 192,-222 192,-203 132,-203"/>
<text text-anchor="middle" x="162" y="-210" font-family="Helvetica,sans-Serif" font-size="10.00">std::string</text>
</a>
</g>
</g>
<!-- Node7&#45;&gt;Node1 -->
<g id="edge10" class="edge"><title>Node7&#45;&gt;Node1</title>
<path fill="none" stroke="#9a32cd" stroke-dasharray="5,2" d="M202.298,-210.325C282.918,-205.769 472.831,-194.56 632,-181.5 637.763,-181.027 643.888,-180.472 649.819,-179.907"/>
<polygon fill="#9a32cd" stroke="#9a32cd" points="201.9,-206.842 192.112,-210.898 202.293,-213.831 201.9,-206.842"/>
<text text-anchor="middle" x="400" y="-236.5" font-family="Helvetica,sans-Serif" font-size="10.00"> title</text>
<text text-anchor="middle" x="400" y="-225.5" font-family="Helvetica,sans-Serif" font-size="10.00">url</text>
<text text-anchor="middle" x="400" y="-214.5" font-family="Helvetica,sans-Serif" font-size="10.00">type</text>
<text text-anchor="middle" x="400" y="-203.5" font-family="Helvetica,sans-Serif" font-size="10.00">description</text>
</g>
<!-- Node7&#45;&gt;Node5 -->
<g id="edge6" class="edge"><title>Node7&#45;&gt;Node5</title>
<path fill="none" stroke="#9a32cd" stroke-dasharray="5,2" d="M201.942,-224.963C216.707,-229.745 233.654,-235.302 249,-240.5 260.767,-244.486 273.729,-249.024 284.784,-252.939"/>
<polygon fill="#9a32cd" stroke="#9a32cd" points="202.708,-221.532 192.116,-221.79 200.557,-228.194 202.708,-221.532"/>
<text text-anchor="middle" x="229.5" y="-254.5" font-family="Helvetica,sans-Serif" font-size="10.00"> value</text>
<text text-anchor="middle" x="229.5" y="-243.5" font-family="Helvetica,sans-Serif" font-size="10.00">name</text>
</g>
<!-- Node8 -->
<g id="node8" class="node"><title>Node8</title>
<g id="a_node8"><a xlink:title="STL class. ">
<polygon fill="white" stroke="#bfbfbf" points="0,-197.5 0,-227.5 95,-227.5 95,-197.5 0,-197.5"/>
<text text-anchor="start" x="8" y="-215.5" font-family="Helvetica,sans-Serif" font-size="10.00">std::basic_string&lt;</text>
<text text-anchor="middle" x="47.5" y="-204.5" font-family="Helvetica,sans-Serif" font-size="10.00"> char &gt;</text>
</a>
</g>
</g>
<!-- Node8&#45;&gt;Node7 -->
<g id="edge7" class="edge"><title>Node8&#45;&gt;Node7</title>
<path fill="none" stroke="midnightblue" d="M105.526,-212.5C114.678,-212.5 123.803,-212.5 131.931,-212.5"/>
<polygon fill="midnightblue" stroke="midnightblue" points="105.233,-209 95.2328,-212.5 105.233,-216 105.233,-209"/>
</g>
<!-- Node9 -->
<g id="node9" class="node"><title>Node9</title>
<polygon fill="white" stroke="#bfbfbf" points="478,-148 478,-167 529,-167 529,-148 478,-148"/>
<text text-anchor="middle" x="503.5" y="-155" font-family="Helvetica,sans-Serif" font-size="10.00">uint32_t</text>
</g>
<!-- Node9&#45;&gt;Node1 -->
<g id="edge8" class="edge"><title>Node9&#45;&gt;Node1</title>
<path fill="none" stroke="#9a32cd" stroke-dasharray="5,2" d="M539.418,-160.913C565.05,-163.454 600.703,-167.064 632,-170.5 637.76,-171.132 643.883,-171.831 649.814,-172.52"/>
<polygon fill="#9a32cd" stroke="#9a32cd" points="539.727,-157.427 529.432,-159.927 539.039,-164.393 539.727,-157.427"/>
<text text-anchor="middle" x="607.5" y="-173.5" font-family="Helvetica,sans-Serif" font-size="10.00"> color</text>
</g>
<!-- Node10 -->
<g id="node10" class="node"><title>Node10</title>
<polygon fill="white" stroke="#bfbfbf" points="448.5,-98.5 448.5,-128.5 558.5,-128.5 558.5,-98.5 448.5,-98.5"/>
<text text-anchor="start" x="456.5" y="-116.5" font-family="Helvetica,sans-Serif" font-size="10.00">optional&lt; dpp::embed</text>
<text text-anchor="middle" x="503.5" y="-105.5" font-family="Helvetica,sans-Serif" font-size="10.00">_provider &gt;</text>
</g>
<!-- Node10&#45;&gt;Node1 -->
<g id="edge9" class="edge"><title>Node10&#45;&gt;Node1</title>
<path fill="none" stroke="#9a32cd" stroke-dasharray="5,2" d="M568.134,-130.211C588.756,-136.223 611.572,-143.513 632,-151.5 643.388,-155.953 655.709,-161.957 665.388,-166.966"/>
<polygon fill="#9a32cd" stroke="#9a32cd" points="569.096,-126.846 558.519,-127.454 567.167,-133.575 569.096,-126.846"/>
<text text-anchor="middle" x="607.5" y="-154.5" font-family="Helvetica,sans-Serif" font-size="10.00"> provider</text>
</g>
<!-- Node11 -->
<g id="node11" class="node"><title>Node11</title>
<polygon fill="white" stroke="#bfbfbf" points="448.5,-49.5 448.5,-79.5 558.5,-79.5 558.5,-49.5 448.5,-49.5"/>
<text text-anchor="start" x="456.5" y="-67.5" font-family="Helvetica,sans-Serif" font-size="10.00">optional&lt; dpp::embed</text>
<text text-anchor="middle" x="503.5" y="-56.5" font-family="Helvetica,sans-Serif" font-size="10.00">_footer &gt;</text>
</g>
<!-- Node11&#45;&gt;Node1 -->
<g id="edge11" class="edge"><title>Node11&#45;&gt;Node1</title>
<path fill="none" stroke="#9a32cd" stroke-dasharray="5,2" d="M561.424,-83.1497C584.597,-92.3062 610.848,-104.789 632,-120.5 650.157,-133.986 666.938,-154.63 675.995,-166.725"/>
<polygon fill="#9a32cd" stroke="#9a32cd" points="562.632,-79.8646 552.042,-79.5547 560.127,-86.4012 562.632,-79.8646"/>
<text text-anchor="middle" x="607.5" y="-123.5" font-family="Helvetica,sans-Serif" font-size="10.00"> footer</text>
</g>
<!-- Node12 -->
<g id="node12" class="node"><title>Node12</title>
<polygon fill="white" stroke="#bfbfbf" points="448.5,-0.5 448.5,-30.5 558.5,-30.5 558.5,-0.5 448.5,-0.5"/>
<text text-anchor="start" x="456.5" y="-18.5" font-family="Helvetica,sans-Serif" font-size="10.00">optional&lt; dpp::embed</text>
<text text-anchor="middle" x="503.5" y="-7.5" font-family="Helvetica,sans-Serif" font-size="10.00">_author &gt;</text>
</g>
<!-- Node12&#45;&gt;Node1 -->
<g id="edge12" class="edge"><title>Node12&#45;&gt;Node1</title>
<path fill="none" stroke="#9a32cd" stroke-dasharray="5,2" d="M562.242,-34.4416C586.29,-44.6792 612.979,-59.4194 632,-79.5 657.383,-106.297 673.583,-148.185 679.941,-166.903"/>
<polygon fill="#9a32cd" stroke="#9a32cd" points="563.411,-31.1383 552.83,-30.6006 560.766,-37.6195 563.411,-31.1383"/>
<text text-anchor="middle" x="607.5" y="-82.5" font-family="Helvetica,sans-Serif" font-size="10.00"> author</text>
</g>
</g>
</svg>
        <g id="navigator" transform="translate(0 0)" fill="#404254">
                <rect fill="#f2f5e9" fill-opacity="0.5" stroke="#606060" stroke-width=".5" x="0" y="0" width="60" height="60"/>
                <use id="zoomplus" xlink:href="#zoomPlus" x="17" y="9" onmousedown="handleZoom(evt,'in')"/>
                <use id="zoomminus" xlink:href="#zoomMin" x="42" y="9" onmousedown="handleZoom(evt,'out')"/>
                <use id="reset" xlink:href="#resetDef" x="30" y="36" onmousedown="handleReset()"/>
                <g id="arrowUp" xlink:href="#dirArrow" transform="translate(30 24)" onmousedown="handlePan(0,-1)">
                  <use xlink:href="#rim" fill="#404040">
                        <set attributeName="fill" to="#808080" begin="arrowUp.mouseover" end="arrowUp.mouseout"/>
                  </use>
                  <path fill="none" stroke="white" stroke-width="1.5" d="M0,-3.0v7 M-2.5,-0.5L0,-3.0L2.5,-0.5"/>
                </g>
                <g id="arrowRight" xlink:href="#dirArrow" transform="rotate(90) translate(36 -43)" onmousedown="handlePan(1,0)">
                  <use xlink:href="#rim" fill="#404040">
                        <set attributeName="fill" to="#808080" begin="arrowRight.mouseover" end="arrowRight.mouseout"/>
                  </use>
                  <path fill="none" stroke="white" stroke-width="1.5" d="M0,-3.0v7 M-2.5,-0.5L0,-3.0L2.5,-0.5"/>
                </g>
                <g id="arrowDown" xlink:href="#dirArrow" transform="rotate(180) translate(-30 -48)" onmousedown="handlePan(0,1)">
                  <use xlink:href="#rim" fill="#404040">
                        <set attributeName="fill" to="#808080" begin="arrowDown.mouseover" end="arrowDown.mouseout"/>
                  </use>
                  <path fill="none" stroke="white" stroke-width="1.5" d="M0,-3.0v7 M-2.5,-0.5L0,-3.0L2.5,-0.5"/>
                </g>
                <g id="arrowLeft" xlink:href="#dirArrow" transform="rotate(270) translate(-36 17)" onmousedown="handlePan(-1,0)">
                  <use xlink:href="#rim" fill="#404040">
                        <set attributeName="fill" to="#808080" begin="arrowLeft.mouseover" end="arrowLeft.mouseout"/>
                  </use>
                  <path fill="none" stroke="white" stroke-width="1.5" d="M0,-3.0v7 M-2.5,-0.5L0,-3.0L2.5,-0.5"/>
                </g>
        </g>
        <svg viewBox="0 0 15 15" width="100%" height="30px" preserveAspectRatio="xMaxYMin meet">
         <g id="arrow_out" transform="scale(0.3 0.3)">
          <a xlink:href="structdpp_1_1embed__coll__graph_org.svg" target="_base">
           <rect id="button" ry="5" rx="5" y="6" x="6" height="38" width="38"
                fill="#f2f5e9" fill-opacity="0.5" stroke="#606060" stroke-width="1.0"/>
           <path id="arrow"
             d="M 11.500037,31.436501 C 11.940474,20.09759 22.043105,11.32322 32.158766,21.979434 L 37.068811,17.246167 C 37.068811,17.246167 37.088388,32 37.088388,32 L 22.160133,31.978069 C 22.160133,31.978069 26.997745,27.140456 26.997745,27.140456 C 18.528582,18.264221 13.291696,25.230495 11.500037,31.436501 z"
             style="fill:#404040;"/>
          </a>
         </g>
        </svg>
</svg>
