<?xml version="1.0" encoding="UTF-8" standalone="no"?>
<!DOCTYPE svg PUBLIC "-//W3C//DTD SVG 1.1//EN"
 "http://www.w3.org/Graphics/SVG/1.1/DTD/svg11.dtd">
<!-- Generated by graphviz version 2.38.0 (20140413.2041)
 -->
<!-- Title: dpp::voice_server_update_t Pages: 1 -->
<!--zoomable 549 -->
<svg id="main" version="1.1" xmlns="http://www.w3.org/2000/svg" xmlns:xlink="http://www.w3.org/1999/xlink" xml:space="preserve" onload="init(evt)">
<style type="text/css"><![CDATA[
.edge:hover path { stroke: red; }
.edge:hover polygon { stroke: red; fill: red; }
]]></style>
<script type="text/javascript"><![CDATA[
var edges = document.getElementsByTagName('g');
if (edges && edges.length) {
  for (var i=0;i<edges.length;i++) {
    if (edges[i].id.substr(0,4)=='edge') {
      edges[i].setAttribute('class','edge');
    }
  }
}
]]></script>
        <defs>
                <circle id="rim" cx="0" cy="0" r="7"/>
                <circle id="rim2" cx="0" cy="0" r="3.5"/>
                <g id="zoomPlus">
                        <use xlink:href="#rim" fill="#404040">
                                <set attributeName="fill" to="#808080" begin="zoomplus.mouseover" end="zoomplus.mouseout"/>
                        </use>
                        <path d="M-4,0h8M0,-4v8" fill="none" stroke="white" stroke-width="1.5" pointer-events="none"/>
                </g>
                <g id="zoomMin">
                        <use xlink:href="#rim" fill="#404040">
                                <set attributeName="fill" to="#808080" begin="zoomminus.mouseover" end="zoomminus.mouseout"/>
                        </use>
                        <path d="M-4,0h8" fill="none" stroke="white" stroke-width="1.5" pointer-events="none"/>
                </g>
                <g id="dirArrow">
                        <path fill="none" stroke="white" stroke-width="1.5" d="M0,-3.0v7 M-2.5,-0.5L0,-3.0L2.5,-0.5"/>
                </g>
               <g id="resetDef">
                       <use xlink:href="#rim2" fill="#404040">
                               <set attributeName="fill" to="#808080" begin="reset.mouseover" end="reset.mouseout"/>
                       </use>
               </g>
        </defs>

<script type="text/javascript">
var viewWidth = 1319;
var viewHeight = 549;
var sectionId = 'dynsection-1';
</script>
<script xlink:href="svgpan.js"/>
<svg id="graph" class="graph">
<g id="viewport">
<title>dpp::voice_server_update_t</title>
<polygon fill="white" stroke="none" points="-4,4 -4,-545 1315,-545 1315,4 -4,4"/>
<!-- Node1 -->
<g id="node1" class="node"><title>Node1</title>
<g id="a_node1"><a xlink:title="Voice server update.">
<polygon fill="#bfbfbf" stroke="black" points="1174,-415.5 1174,-434.5 1311,-434.5 1311,-415.5 1174,-415.5"/>
<text text-anchor="middle" x="1242.5" y="-422.5" font-family="Helvetica,sans-Serif" font-size="10.00">dpp::voice_server_update_t</text>
</a>
</g>
</g>
<!-- Node2 -->
<g id="node2" class="node"><title>Node2</title>
<g id="a_node2"><a xlink:href="structdpp_1_1event__dispatch__t.html" target="_top" xlink:title="Base event parameter struct.">
<polygon fill="white" stroke="black" points="1024,-415.5 1024,-434.5 1137,-434.5 1137,-415.5 1024,-415.5"/>
<text text-anchor="middle" x="1080.5" y="-422.5" font-family="Helvetica,sans-Serif" font-size="10.00">dpp::event_dispatch_t</text>
</a>
</g>
</g>
<!-- Node2&#45;&gt;Node1 -->
<g id="edge1" class="edge"><title>Node2&#45;&gt;Node1</title>
<path fill="none" stroke="midnightblue" d="M1147.23,-425C1156.05,-425 1165.1,-425 1173.95,-425"/>
<polygon fill="midnightblue" stroke="midnightblue" points="1147.01,-421.5 1137.01,-425 1147.01,-428.5 1147.01,-421.5"/>
</g>
<!-- Node3 -->
<g id="node3" class="node"><title>Node3</title>
<g id="a_node3"><a xlink:title=" ">
<polygon fill="white" stroke="#bfbfbf" points="170,-457.5 170,-476.5 230,-476.5 230,-457.5 170,-457.5"/>
<text text-anchor="middle" x="200" y="-464.5" font-family="Helvetica,sans-Serif" font-size="10.00">std::string</text>
</a>
</g>
</g>
<!-- Node3&#45;&gt;Node1 -->
<g id="edge27" class="edge"><title>Node3&#45;&gt;Node1</title>
<path fill="none" stroke="#9a32cd" stroke-dasharray="5,2" d="M235.89,-479.875C280.819,-495.274 361.623,-519 433,-519 433,-519 433,-519 1081.5,-519 1147.54,-519 1210.41,-458.722 1232.84,-434.706"/>
<polygon fill="#9a32cd" stroke="#9a32cd" points="236.926,-476.529 226.331,-476.538 234.619,-483.138 236.926,-476.529"/>
<text text-anchor="middle" x="787" y="-533" font-family="Helvetica,sans-Serif" font-size="10.00"> endpoint</text>
<text text-anchor="middle" x="787" y="-522" font-family="Helvetica,sans-Serif" font-size="10.00">token</text>
</g>
<!-- Node3&#45;&gt;Node2 -->
<g id="edge2" class="edge"><title>Node3&#45;&gt;Node2</title>
<path fill="none" stroke="#9a32cd" stroke-dasharray="5,2" d="M240.436,-470.558C286.567,-474.407 365.259,-480 433,-480 433,-480 433,-480 917,-480 972.994,-480 1034.38,-450.338 1063.05,-434.58"/>
<polygon fill="#9a32cd" stroke="#9a32cd" points="240.53,-467.053 230.269,-469.694 239.937,-474.028 240.53,-467.053"/>
<text text-anchor="middle" x="650" y="-483" font-family="Helvetica,sans-Serif" font-size="10.00"> raw_event</text>
</g>
<!-- Node5 -->
<g id="node5" class="node"><title>Node5</title>
<g id="a_node5"><a xlink:href="classdpp_1_1discord__client.html" target="_top" xlink:title="Implements a discord client. Each discord_client connects to one shard and derives from a websocket c...">
<polygon fill="white" stroke="black" points="867,-235.5 867,-254.5 965,-254.5 965,-235.5 867,-235.5"/>
<text text-anchor="middle" x="916" y="-242.5" font-family="Helvetica,sans-Serif" font-size="10.00">dpp::discord_client</text>
</a>
</g>
</g>
<!-- Node3&#45;&gt;Node5 -->
<g id="edge21" class="edge"><title>Node3&#45;&gt;Node5</title>
<path fill="none" stroke="#9a32cd" stroke-dasharray="5,2" d="M240.497,-463.834C379.25,-452.643 836.682,-415.129 849,-406 900.209,-368.047 911.84,-283.284 914.346,-254.657"/>
<polygon fill="#9a32cd" stroke="#9a32cd" points="240.002,-460.363 230.315,-464.654 240.564,-467.34 240.002,-460.363"/>
<text text-anchor="middle" x="533.5" y="-457" font-family="Helvetica,sans-Serif" font-size="10.00"> sessionid</text>
<text text-anchor="middle" x="533.5" y="-446" font-family="Helvetica,sans-Serif" font-size="10.00">token</text>
</g>
<!-- Node7 -->
<g id="node7" class="node"><title>Node7</title>
<g id="a_node7"><a xlink:href="classdpp_1_1ssl__client.html" target="_top" xlink:title="Implements a simple non&#45;blocking SSL stream client.">
<polygon fill="white" stroke="black" points="394,-265.5 394,-284.5 474,-284.5 474,-265.5 394,-265.5"/>
<text text-anchor="middle" x="434" y="-272.5" font-family="Helvetica,sans-Serif" font-size="10.00">dpp::ssl_client</text>
</a>
</g>
</g>
<!-- Node3&#45;&gt;Node7 -->
<g id="edge7" class="edge"><title>Node3&#45;&gt;Node7</title>
<path fill="none" stroke="#9a32cd" stroke-dasharray="5,2" d="M212.533,-449.029C224.878,-431.012 245.965,-403.5 270,-386 311.236,-355.976 334.773,-372.037 376,-342 398.218,-325.812 417.372,-299.265 426.786,-284.929"/>
<polygon fill="#9a32cd" stroke="#9a32cd" points="209.534,-447.219 206.905,-457.482 215.36,-451.098 209.534,-447.219"/>
<text text-anchor="middle" x="323" y="-433" font-family="Helvetica,sans-Serif" font-size="10.00"> buffer</text>
<text text-anchor="middle" x="323" y="-422" font-family="Helvetica,sans-Serif" font-size="10.00">cipher</text>
<text text-anchor="middle" x="323" y="-411" font-family="Helvetica,sans-Serif" font-size="10.00">hostname</text>
<text text-anchor="middle" x="323" y="-400" font-family="Helvetica,sans-Serif" font-size="10.00">obuffer</text>
<text text-anchor="middle" x="323" y="-389" font-family="Helvetica,sans-Serif" font-size="10.00">port</text>
</g>
<!-- Node4 -->
<g id="node4" class="node"><title>Node4</title>
<g id="a_node4"><a xlink:title=" ">
<polygon fill="white" stroke="#bfbfbf" points="0,-452 0,-482 95,-482 95,-452 0,-452"/>
<text text-anchor="start" x="8" y="-470" font-family="Helvetica,sans-Serif" font-size="10.00">std::basic_string&lt;</text>
<text text-anchor="middle" x="47.5" y="-459" font-family="Helvetica,sans-Serif" font-size="10.00"> Char &gt;</text>
</a>
</g>
</g>
<!-- Node4&#45;&gt;Node3 -->
<g id="edge3" class="edge"><title>Node4&#45;&gt;Node3</title>
<path fill="none" stroke="midnightblue" d="M105.504,-467C127.407,-467 151.506,-467 169.751,-467"/>
<polygon fill="midnightblue" stroke="midnightblue" points="105.294,-463.5 95.2942,-467 105.294,-470.5 105.294,-463.5"/>
</g>
<!-- Node5&#45;&gt;Node2 -->
<g id="edge4" class="edge"><title>Node5&#45;&gt;Node2</title>
<path fill="none" stroke="#9a32cd" stroke-dasharray="5,2" d="M932.54,-262.214C966.098,-299.386 1044.43,-386.155 1070.72,-415.275"/>
<polygon fill="#9a32cd" stroke="#9a32cd" points="935.036,-259.755 925.737,-254.678 929.84,-264.446 935.036,-259.755"/>
<text text-anchor="middle" x="994.5" y="-344" font-family="Helvetica,sans-Serif" font-size="10.00"> from</text>
</g>
<!-- Node6 -->
<g id="node6" class="node"><title>Node6</title>
<g id="a_node6"><a xlink:href="classdpp_1_1websocket__client.html" target="_top" xlink:title="Implements a websocket client based on the SSL client.">
<polygon fill="white" stroke="black" points="593,-345.5 593,-364.5 707,-364.5 707,-345.5 593,-345.5"/>
<text text-anchor="middle" x="650" y="-352.5" font-family="Helvetica,sans-Serif" font-size="10.00">dpp::websocket_client</text>
</a>
</g>
</g>
<!-- Node6&#45;&gt;Node5 -->
<g id="edge5" class="edge"><title>Node6&#45;&gt;Node5</title>
<path fill="none" stroke="midnightblue" d="M687.328,-367.521C729.339,-379.636 799.104,-392.263 849,-363 890.305,-338.776 907.691,-278.228 913.05,-254.63"/>
<polygon fill="midnightblue" stroke="midnightblue" points="688.114,-364.103 677.529,-364.559 686.089,-370.803 688.114,-364.103"/>
</g>
<!-- Node7&#45;&gt;Node6 -->
<g id="edge6" class="edge"><title>Node7&#45;&gt;Node6</title>
<path fill="none" stroke="midnightblue" d="M470.337,-288.21C513.455,-304.329 585.308,-331.19 623.428,-345.44"/>
<polygon fill="midnightblue" stroke="midnightblue" points="471.406,-284.873 460.813,-284.65 468.955,-291.43 471.406,-284.873"/>
</g>
<!-- Node8 -->
<g id="node8" class="node"><title>Node8</title>
<g id="a_node8"><a xlink:title=" ">
<polygon fill="white" stroke="#bfbfbf" points="182.5,-126.5 182.5,-145.5 217.5,-145.5 217.5,-126.5 182.5,-126.5"/>
<text text-anchor="middle" x="200" y="-133.5" font-family="Helvetica,sans-Serif" font-size="10.00">bool</text>
</a>
</g>
</g>
<!-- Node8&#45;&gt;Node5 -->
<g id="edge24" class="edge"><title>Node8&#45;&gt;Node5</title>
<path fill="none" stroke="#9a32cd" stroke-dasharray="5,2" d="M227.642,-130.749C336.347,-109.927 745.448,-37.5937 849,-107 894.665,-137.607 909.634,-208.945 913.691,-235.132"/>
<polygon fill="#9a32cd" stroke="#9a32cd" points="226.683,-127.37 217.53,-132.705 228.012,-134.242 226.683,-127.37"/>
<text text-anchor="middle" x="533.5" y="-93" font-family="Helvetica,sans-Serif" font-size="10.00"> ready</text>
</g>
<!-- Node8&#45;&gt;Node7 -->
<g id="edge8" class="edge"><title>Node8&#45;&gt;Node7</title>
<path fill="none" stroke="#9a32cd" stroke-dasharray="5,2" d="M227.967,-134.877C264.915,-134.706 331.728,-139.441 376,-172 408.599,-195.975 424.869,-244.479 430.568,-265.226"/>
<polygon fill="#9a32cd" stroke="#9a32cd" points="227.453,-131.385 217.517,-135.062 227.577,-138.384 227.453,-131.385"/>
<text text-anchor="middle" x="323" y="-175" font-family="Helvetica,sans-Serif" font-size="10.00"> nonblocking</text>
</g>
<!-- Node9 -->
<g id="node9" class="node"><title>Node9</title>
<g id="a_node9"><a xlink:title=" ">
<polygon fill="white" stroke="#bfbfbf" points="171,-282.5 171,-301.5 229,-301.5 229,-282.5 171,-282.5"/>
<text text-anchor="middle" x="200" y="-289.5" font-family="Helvetica,sans-Serif" font-size="10.00">SOCKET</text>
</a>
</g>
</g>
<!-- Node9&#45;&gt;Node7 -->
<g id="edge9" class="edge"><title>Node9&#45;&gt;Node7</title>
<path fill="none" stroke="#9a32cd" stroke-dasharray="5,2" d="M239.462,-289.182C282.202,-286.05 350.846,-281.02 393.858,-277.868"/>
<polygon fill="#9a32cd" stroke="#9a32cd" points="239.165,-285.694 229.448,-289.915 239.677,-292.675 239.165,-285.694"/>
<text text-anchor="middle" x="323" y="-290" font-family="Helvetica,sans-Serif" font-size="10.00"> sfd</text>
</g>
<!-- Node10 -->
<g id="node10" class="node"><title>Node10</title>
<g id="a_node10"><a xlink:href="classdpp_1_1opensslcontext.html" target="_top" xlink:title=" ">
<polygon fill="white" stroke="black" points="148,-244.5 148,-263.5 252,-263.5 252,-244.5 148,-244.5"/>
<text text-anchor="middle" x="200" y="-251.5" font-family="Helvetica,sans-Serif" font-size="10.00">dpp::opensslcontext</text>
</a>
</g>
</g>
<!-- Node10&#45;&gt;Node7 -->
<g id="edge10" class="edge"><title>Node10&#45;&gt;Node7</title>
<path fill="none" stroke="#9a32cd" stroke-dasharray="5,2" d="M262.208,-256.183C295.871,-257.801 338.331,-260.526 376,-265 381.787,-265.687 387.877,-266.576 393.836,-267.541"/>
<polygon fill="#9a32cd" stroke="#9a32cd" points="262.209,-252.679 252.058,-255.715 261.887,-259.672 262.209,-252.679"/>
<text text-anchor="middle" x="323" y="-268" font-family="Helvetica,sans-Serif" font-size="10.00"> ssl</text>
</g>
<!-- Node11 -->
<g id="node11" class="node"><title>Node11</title>
<g id="a_node11"><a xlink:title=" ">
<polygon fill="white" stroke="#bfbfbf" points="26.5,-225.5 26.5,-244.5 68.5,-244.5 68.5,-225.5 26.5,-225.5"/>
<text text-anchor="middle" x="47.5" y="-232.5" font-family="Helvetica,sans-Serif" font-size="10.00">SSL *</text>
</a>
</g>
</g>
<!-- Node11&#45;&gt;Node10 -->
<g id="edge11" class="edge"><title>Node11&#45;&gt;Node10</title>
<path fill="none" stroke="#9a32cd" stroke-dasharray="5,2" d="M78.6892,-235.852C94.0932,-236.54 113.099,-237.778 130,-240 138.726,-241.147 148.001,-242.757 156.827,-244.477"/>
<polygon fill="#9a32cd" stroke="#9a32cd" points="78.8001,-232.354 68.6704,-235.459 78.5252,-239.349 78.8001,-232.354"/>
<text text-anchor="middle" x="121.5" y="-243" font-family="Helvetica,sans-Serif" font-size="10.00"> ssl</text>
</g>
<!-- Node12 -->
<g id="node12" class="node"><title>Node12</title>
<g id="a_node12"><a xlink:title=" ">
<polygon fill="white" stroke="#bfbfbf" points="13.5,-263.5 13.5,-282.5 81.5,-282.5 81.5,-263.5 13.5,-263.5"/>
<text text-anchor="middle" x="47.5" y="-270.5" font-family="Helvetica,sans-Serif" font-size="10.00">SSL_CTX *</text>
</a>
</g>
</g>
<!-- Node12&#45;&gt;Node10 -->
<g id="edge12" class="edge"><title>Node12&#45;&gt;Node10</title>
<path fill="none" stroke="#9a32cd" stroke-dasharray="5,2" d="M91.5221,-267.569C109.131,-265.346 129.643,-262.756 147.999,-260.439"/>
<polygon fill="#9a32cd" stroke="#9a32cd" points="91.0107,-264.105 81.5279,-268.83 91.8875,-271.05 91.0107,-264.105"/>
<text text-anchor="middle" x="121.5" y="-268" font-family="Helvetica,sans-Serif" font-size="10.00"> ctx</text>
</g>
<!-- Node13 -->
<g id="node13" class="node"><title>Node13</title>
<g id="a_node13"><a xlink:title=" ">
<polygon fill="white" stroke="#bfbfbf" points="178,-331.5 178,-350.5 222,-350.5 222,-331.5 178,-331.5"/>
<text text-anchor="middle" x="200" y="-338.5" font-family="Helvetica,sans-Serif" font-size="10.00">time_t</text>
</a>
</g>
</g>
<!-- Node13&#45;&gt;Node5 -->
<g id="edge18" class="edge"><title>Node13&#45;&gt;Node5</title>
<path fill="none" stroke="#9a32cd" stroke-dasharray="5,2" d="M232.555,-345.37C355.288,-362.073 796.64,-419.303 849,-386 896.436,-355.828 910.359,-281.604 913.912,-254.83"/>
<polygon fill="#9a32cd" stroke="#9a32cd" points="232.715,-341.859 222.333,-343.972 231.766,-348.795 232.715,-341.859"/>
<text text-anchor="middle" x="533.5" y="-400" font-family="Helvetica,sans-Serif" font-size="10.00"> last_heartbeat</text>
<text text-anchor="middle" x="533.5" y="-389" font-family="Helvetica,sans-Serif" font-size="10.00">last_heartbeat_ack</text>
</g>
<!-- Node13&#45;&gt;Node7 -->
<g id="edge13" class="edge"><title>Node13&#45;&gt;Node7</title>
<path fill="none" stroke="#9a32cd" stroke-dasharray="5,2" d="M232.175,-334.447C278.758,-324.596 362.521,-306.629 376,-302 389.67,-297.305 404.397,-290.273 415.457,-284.563"/>
<polygon fill="#9a32cd" stroke="#9a32cd" points="231.352,-331.044 222.291,-336.534 232.798,-337.893 231.352,-331.044"/>
<text text-anchor="middle" x="323" y="-330" font-family="Helvetica,sans-Serif" font-size="10.00"> last_tick</text>
</g>
<!-- Node14 -->
<g id="node14" class="node"><title>Node14</title>
<g id="a_node14"><a xlink:title=" ">
<polygon fill="white" stroke="#bfbfbf" points="174.5,-28.5 174.5,-47.5 225.5,-47.5 225.5,-28.5 174.5,-28.5"/>
<text text-anchor="middle" x="200" y="-35.5" font-family="Helvetica,sans-Serif" font-size="10.00">uint64_t</text>
</a>
</g>
</g>
<!-- Node14&#45;&gt;Node1 -->
<g id="edge26" class="edge"><title>Node14&#45;&gt;Node1</title>
<path fill="none" stroke="#9a32cd" stroke-dasharray="5,2" d="M235.34,-28.7916C280.373,-17.545 362.003,-0 433,-0 433,-0 433,-0 1081.5,-0 1173.35,-0 1230.55,-352.063 1240.08,-415.325"/>
<polygon fill="#9a32cd" stroke="#9a32cd" points="234.334,-25.4361 225.505,-31.2938 236.06,-32.22 234.334,-25.4361"/>
<text text-anchor="middle" x="787" y="-3" font-family="Helvetica,sans-Serif" font-size="10.00"> guild_id</text>
</g>
<!-- Node14&#45;&gt;Node5 -->
<g id="edge20" class="edge"><title>Node14&#45;&gt;Node5</title>
<path fill="none" stroke="#9a32cd" stroke-dasharray="5,2" d="M235.934,-35.213C356.105,-26.3395 750.473,-3.35055 849,-75 903.284,-114.476 912.922,-205.154 914.632,-235.159"/>
<polygon fill="#9a32cd" stroke="#9a32cd" points="235.527,-31.7336 225.818,-35.9749 236.053,-38.7139 235.527,-31.7336"/>
<text text-anchor="middle" x="533.5" y="-29" font-family="Helvetica,sans-Serif" font-size="10.00"> last_seq</text>
</g>
<!-- Node14&#45;&gt;Node7 -->
<g id="edge14" class="edge"><title>Node14&#45;&gt;Node7</title>
<path fill="none" stroke="#9a32cd" stroke-dasharray="5,2" d="M235.707,-43.966C274.92,-52.4548 338.187,-71.7001 376,-112 418.872,-157.692 429.734,-237.42 432.277,-265.155"/>
<polygon fill="#9a32cd" stroke="#9a32cd" points="236.305,-40.5159 225.807,-41.9406 234.902,-47.3738 236.305,-40.5159"/>
<text text-anchor="middle" x="323" y="-126" font-family="Helvetica,sans-Serif" font-size="10.00"> bytes_in</text>
<text text-anchor="middle" x="323" y="-115" font-family="Helvetica,sans-Serif" font-size="10.00">bytes_out</text>
</g>
<!-- Node15 -->
<g id="node15" class="node"><title>Node15</title>
<g id="a_node15"><a xlink:title=" ">
<polygon fill="white" stroke="#bfbfbf" points="171.5,-181.5 171.5,-200.5 228.5,-200.5 228.5,-181.5 171.5,-181.5"/>
<text text-anchor="middle" x="200" y="-188.5" font-family="Helvetica,sans-Serif" font-size="10.00">function&lt;</text>
</a>
</g>
</g>
<!-- Node15&#45;&gt;Node7 -->
<g id="edge15" class="edge"><title>Node15&#45;&gt;Node7</title>
<path fill="none" stroke="#9a32cd" stroke-dasharray="5,2" d="M238.911,-187.12C275.986,-185.051 332.984,-186.58 376,-209 400.704,-221.876 419.342,-250.338 427.872,-265.33"/>
<polygon fill="#9a32cd" stroke="#9a32cd" points="238.287,-183.654 228.546,-187.822 238.76,-190.638 238.287,-183.654"/>
<text text-anchor="middle" x="323" y="-245" font-family="Helvetica,sans-Serif" font-size="10.00"> custom_readable_fd</text>
<text text-anchor="middle" x="323" y="-234" font-family="Helvetica,sans-Serif" font-size="10.00">custom_readable_ready</text>
<text text-anchor="middle" x="323" y="-223" font-family="Helvetica,sans-Serif" font-size="10.00">custom_writeable_fd</text>
<text text-anchor="middle" x="323" y="-212" font-family="Helvetica,sans-Serif" font-size="10.00">custom_writeable_ready</text>
</g>
<!-- Node16 -->
<g id="node16" class="node"><title>Node16</title>
<g id="a_node16"><a xlink:title=" ">
<polygon fill="white" stroke="#bfbfbf" points="623.5,-260.5 623.5,-279.5 676.5,-279.5 676.5,-260.5 623.5,-260.5"/>
<text text-anchor="middle" x="650" y="-267.5" font-family="Helvetica,sans-Serif" font-size="10.00">cluster *</text>
</a>
</g>
</g>
<!-- Node16&#45;&gt;Node5 -->
<g id="edge16" class="edge"><title>Node16&#45;&gt;Node5</title>
<path fill="none" stroke="#9a32cd" stroke-dasharray="5,2" d="M687.023,-266.589C733.631,-262.175 814.985,-254.471 866.855,-249.559"/>
<polygon fill="#9a32cd" stroke="#9a32cd" points="686.42,-263.13 676.794,-267.557 687.08,-270.099 686.42,-263.13"/>
<text text-anchor="middle" x="787" y="-266" font-family="Helvetica,sans-Serif" font-size="10.00"> creator</text>
</g>
<!-- Node17 -->
<g id="node17" class="node"><title>Node17</title>
<g id="a_node17"><a xlink:title=" ">
<polygon fill="white" stroke="#bfbfbf" points="624.5,-298.5 624.5,-317.5 675.5,-317.5 675.5,-298.5 624.5,-298.5"/>
<text text-anchor="middle" x="650" y="-305.5" font-family="Helvetica,sans-Serif" font-size="10.00">uint32_t</text>
</a>
</g>
</g>
<!-- Node17&#45;&gt;Node5 -->
<g id="edge17" class="edge"><title>Node17&#45;&gt;Node5</title>
<path fill="none" stroke="#9a32cd" stroke-dasharray="5,2" d="M685.745,-302.506C738.33,-294.12 833.656,-278.613 849,-274 865.54,-269.028 883.427,-260.989 896.402,-254.635"/>
<polygon fill="#9a32cd" stroke="#9a32cd" points="685.16,-299.055 675.834,-304.083 686.26,-305.968 685.16,-299.055"/>
<text text-anchor="middle" x="787" y="-355" font-family="Helvetica,sans-Serif" font-size="10.00"> heartbeat_interval</text>
<text text-anchor="middle" x="787" y="-344" font-family="Helvetica,sans-Serif" font-size="10.00">intents</text>
<text text-anchor="middle" x="787" y="-333" font-family="Helvetica,sans-Serif" font-size="10.00">max_shards</text>
<text text-anchor="middle" x="787" y="-322" font-family="Helvetica,sans-Serif" font-size="10.00">reconnects</text>
<text text-anchor="middle" x="787" y="-311" font-family="Helvetica,sans-Serif" font-size="10.00">resumes</text>
<text text-anchor="middle" x="787" y="-300" font-family="Helvetica,sans-Serif" font-size="10.00">shard_id</text>
</g>
<!-- Node18 -->
<g id="node18" class="node"><title>Node18</title>
<g id="a_node18"><a xlink:title=" ">
<polygon fill="white" stroke="#bfbfbf" points="599.5,-222.5 599.5,-241.5 700.5,-241.5 700.5,-222.5 599.5,-222.5"/>
<text text-anchor="middle" x="650" y="-229.5" font-family="Helvetica,sans-Serif" font-size="10.00">native_handle_type</text>
</a>
</g>
</g>
<!-- Node18&#45;&gt;Node5 -->
<g id="edge19" class="edge"><title>Node18&#45;&gt;Node5</title>
<path fill="none" stroke="#9a32cd" stroke-dasharray="5,2" d="M711.052,-226.93C750.42,-224.628 802.936,-223.496 849,-229 860.005,-230.315 871.826,-232.821 882.381,-235.467"/>
<polygon fill="#9a32cd" stroke="#9a32cd" points="710.589,-223.452 700.828,-227.571 711.027,-230.438 710.589,-223.452"/>
<text text-anchor="middle" x="787" y="-232" font-family="Helvetica,sans-Serif" font-size="10.00"> thread_id</text>
</g>
<!-- Node19 -->
<g id="node19" class="node"><title>Node19</title>
<g id="a_node19"><a xlink:title=" ">
<polygon fill="white" stroke="#bfbfbf" points="618.5,-108.5 618.5,-127.5 681.5,-127.5 681.5,-108.5 618.5,-108.5"/>
<text text-anchor="middle" x="650" y="-115.5" font-family="Helvetica,sans-Serif" font-size="10.00">std::mutex</text>
</a>
</g>
</g>
<!-- Node19&#45;&gt;Node5 -->
<g id="edge22" class="edge"><title>Node19&#45;&gt;Node5</title>
<path fill="none" stroke="#9a32cd" stroke-dasharray="5,2" d="M691.822,-112.427C734.373,-108.75 801.373,-109.155 849,-139 885.739,-162.023 905.357,-213.77 912.181,-235.307"/>
<polygon fill="#9a32cd" stroke="#9a32cd" points="691.431,-108.949 681.819,-113.406 692.113,-115.915 691.431,-108.949"/>
<text text-anchor="middle" x="787" y="-142" font-family="Helvetica,sans-Serif" font-size="10.00"> voice_mutex</text>
</g>
<!-- Node20 -->
<g id="node20" class="node"><title>Node20</title>
<g id="a_node20"><a xlink:title=" ">
<polygon fill="white" stroke="#bfbfbf" points="627.5,-184.5 627.5,-203.5 672.5,-203.5 672.5,-184.5 627.5,-184.5"/>
<text text-anchor="middle" x="650" y="-191.5" font-family="Helvetica,sans-Serif" font-size="10.00">double</text>
</a>
</g>
</g>
<!-- Node20&#45;&gt;Node5 -->
<g id="edge23" class="edge"><title>Node20&#45;&gt;Node5</title>
<path fill="none" stroke="#9a32cd" stroke-dasharray="5,2" d="M682.717,-192.979C722.4,-192.544 792.061,-194.586 849,-211 867.825,-216.427 887.563,-227.396 900.493,-235.412"/>
<polygon fill="#9a32cd" stroke="#9a32cd" points="682.53,-189.481 672.591,-193.151 682.65,-196.48 682.53,-189.481"/>
<text text-anchor="middle" x="787" y="-214" font-family="Helvetica,sans-Serif" font-size="10.00"> websocket_ping</text>
</g>
<!-- Node21 -->
<g id="node21" class="node"><title>Node21</title>
<g id="a_node21"><a xlink:title=" ">
<polygon fill="white" stroke="#bfbfbf" points="605.5,-146.5 605.5,-165.5 694.5,-165.5 694.5,-146.5 605.5,-146.5"/>
<text text-anchor="middle" x="650" y="-153.5" font-family="Helvetica,sans-Serif" font-size="10.00">unordered_map&lt;</text>
</a>
</g>
</g>
<!-- Node21&#45;&gt;Node5 -->
<g id="edge25" class="edge"><title>Node21&#45;&gt;Node5</title>
<path fill="none" stroke="#9a32cd" stroke-dasharray="5,2" d="M704.749,-152.9C746.151,-152.661 803.767,-157.121 849,-179 875.841,-191.983 898.194,-220.399 908.644,-235.355"/>
<polygon fill="#9a32cd" stroke="#9a32cd" points="704.535,-149.403 694.589,-153.054 704.641,-156.402 704.535,-149.403"/>
<text text-anchor="middle" x="787" y="-182" font-family="Helvetica,sans-Serif" font-size="10.00"> connecting_voice_channels</text>
</g>
</g>
</svg>
        <g id="navigator" transform="translate(0 0)" fill="#404254">
                <rect fill="#f2f5e9" fill-opacity="0.5" stroke="#606060" stroke-width=".5" x="0" y="0" width="60" height="60"/>
                <use id="zoomplus" xlink:href="#zoomPlus" x="17" y="9" onmousedown="handleZoom(evt,'in')"/>
                <use id="zoomminus" xlink:href="#zoomMin" x="42" y="9" onmousedown="handleZoom(evt,'out')"/>
                <use id="reset" xlink:href="#resetDef" x="30" y="36" onmousedown="handleReset()"/>
                <g id="arrowUp" xlink:href="#dirArrow" transform="translate(30 24)" onmousedown="handlePan(0,-1)">
                  <use xlink:href="#rim" fill="#404040">
                        <set attributeName="fill" to="#808080" begin="arrowUp.mouseover" end="arrowUp.mouseout"/>
                  </use>
                  <path fill="none" stroke="white" stroke-width="1.5" d="M0,-3.0v7 M-2.5,-0.5L0,-3.0L2.5,-0.5"/>
                </g>
                <g id="arrowRight" xlink:href="#dirArrow" transform="rotate(90) translate(36 -43)" onmousedown="handlePan(1,0)">
                  <use xlink:href="#rim" fill="#404040">
                        <set attributeName="fill" to="#808080" begin="arrowRight.mouseover" end="arrowRight.mouseout"/>
                  </use>
                  <path fill="none" stroke="white" stroke-width="1.5" d="M0,-3.0v7 M-2.5,-0.5L0,-3.0L2.5,-0.5"/>
                </g>
                <g id="arrowDown" xlink:href="#dirArrow" transform="rotate(180) translate(-30 -48)" onmousedown="handlePan(0,1)">
                  <use xlink:href="#rim" fill="#404040">
                        <set attributeName="fill" to="#808080" begin="arrowDown.mouseover" end="arrowDown.mouseout"/>
                  </use>
                  <path fill="none" stroke="white" stroke-width="1.5" d="M0,-3.0v7 M-2.5,-0.5L0,-3.0L2.5,-0.5"/>
                </g>
                <g id="arrowLeft" xlink:href="#dirArrow" transform="rotate(270) translate(-36 17)" onmousedown="handlePan(-1,0)">
                  <use xlink:href="#rim" fill="#404040">
                        <set attributeName="fill" to="#808080" begin="arrowLeft.mouseover" end="arrowLeft.mouseout"/>
                  </use>
                  <path fill="none" stroke="white" stroke-width="1.5" d="M0,-3.0v7 M-2.5,-0.5L0,-3.0L2.5,-0.5"/>
                </g>
        </g>
        <svg viewBox="0 0 15 15" width="100%" height="30px" preserveAspectRatio="xMaxYMin meet">
         <g id="arrow_out" transform="scale(0.3 0.3)">
          <a xlink:href="structdpp_1_1voice__server__update__t__coll__graph_org.svg" target="_base">
           <rect id="button" ry="5" rx="5" y="6" x="6" height="38" width="38"
                fill="#f2f5e9" fill-opacity="0.5" stroke="#606060" stroke-width="1.0"/>
           <path id="arrow"
             d="M 11.500037,31.436501 C 11.940474,20.09759 22.043105,11.32322 32.158766,21.979434 L 37.068811,17.246167 C 37.068811,17.246167 37.088388,32 37.088388,32 L 22.160133,31.978069 C 22.160133,31.978069 26.997745,27.140456 26.997745,27.140456 C 18.528582,18.264221 13.291696,25.230495 11.500037,31.436501 z"
             style="fill:#404040;"/>
          </a>
         </g>
        </svg>
</svg>
