<?xml version="1.0" encoding="UTF-8" standalone="no"?>
<!DOCTYPE svg PUBLIC "-//W3C//DTD SVG 1.1//EN"
 "http://www.w3.org/Graphics/SVG/1.1/DTD/svg11.dtd">
<!-- Generated by graphviz version 2.43.0 (0)
 -->
<!-- Title: dpp::voice_state_update_t Pages: 1 -->
<svg width="1640pt" height="1236pt"
 viewBox="0.00 0.00 1640.00 1236.09" xmlns="http://www.w3.org/2000/svg" xmlns:xlink="http://www.w3.org/1999/xlink">
<g id="graph0" class="graph" transform="scale(1 1) rotate(0) translate(4 1232.09)">
<title>dpp::voice_state_update_t</title>
<!-- Node1 -->
<g id="node1" class="node">
<title>Node1</title>
<g id="a_node1"><a xlink:title="Voice state update.">
<polygon fill="#bfbfbf" stroke="black" points="1487,-363 1487,-382 1632,-382 1632,-363 1487,-363"/>
<text text-anchor="middle" x="1559.5" y="-370" font-family="Helvetica,sans-Serif" font-size="10.00">dpp::voice_state_update_t</text>
</a>
</g>
</g>
<!-- Node2 -->
<g id="node2" class="node">
<title>Node2</title>
<g id="a_node2"><a xlink:href="structdpp_1_1event__dispatch__t.html" target="_top" xlink:title="Base event parameter struct. Each event you receive from the library will have its parameter derived ...">
<polygon fill="none" stroke="black" points="1299,-553 1299,-572 1423,-572 1423,-553 1299,-553"/>
<text text-anchor="middle" x="1361" y="-560" font-family="Helvetica,sans-Serif" font-size="10.00">dpp::event_dispatch_t</text>
</a>
</g>
</g>
<!-- Node2&#45;&gt;Node1 -->
<g id="edge1" class="edge">
<title>Node2&#45;&gt;Node1</title>
<path fill="none" stroke="midnightblue" d="M1379.41,-545.66C1419.34,-507.05 1516.51,-413.1 1548.27,-382.39"/>
<polygon fill="midnightblue" stroke="midnightblue" points="1376.77,-543.35 1372.01,-552.82 1381.64,-548.38 1376.77,-543.35"/>
</g>
<!-- Node3 -->
<g id="node3" class="node">
<title>Node3</title>
<g id="a_node3"><a xlink:title=" ">
<polygon fill="none" stroke="#bfbfbf" points="288,-778 288,-797 353,-797 353,-778 288,-778"/>
<text text-anchor="middle" x="320.5" y="-785" font-family="Helvetica,sans-Serif" font-size="10.00">std::string</text>
</a>
</g>
</g>
<!-- Node3&#45;&gt;Node2 -->
<g id="edge2" class="edge">
<title>Node3&#45;&gt;Node2</title>
<path fill="none" stroke="#9a32cd" stroke-dasharray="5,2" d="M352.54,-800.91C368.74,-807.22 389.08,-814.1 408,-817.5 468.82,-828.42 485.21,-819.72 547,-820.5 710.1,-822.55 1150.29,-915.07 1281,-817.5 1322.6,-786.45 1351.88,-614.5 1358.56,-572"/>
<polygon fill="#9a32cd" stroke="#9a32cd" points="353.62,-797.57 343.04,-797.08 351.01,-804.06 353.62,-797.57"/>
<text text-anchor="middle" x="888.5" y="-861.5" font-family="Helvetica,sans-Serif" font-size="10.00"> raw_event</text>
</g>
<!-- Node5 -->
<g id="node5" class="node">
<title>Node5</title>
<g id="a_node5"><a xlink:href="classdpp_1_1discord__client.html" target="_top" xlink:title="Implements a discord client. Each discord_client connects to one shard and derives from a websocket c...">
<polygon fill="none" stroke="black" points="1124,-553 1124,-572 1232,-572 1232,-553 1124,-553"/>
<text text-anchor="middle" x="1178" y="-560" font-family="Helvetica,sans-Serif" font-size="10.00">dpp::discord_client</text>
</a>
</g>
</g>
<!-- Node3&#45;&gt;Node5 -->
<g id="edge43" class="edge">
<title>Node3&#45;&gt;Node5</title>
<path fill="none" stroke="#9a32cd" stroke-dasharray="5,2" d="M363.21,-784.7C516.82,-774.06 1045.33,-734.53 1106,-690.5 1148.16,-659.9 1168.33,-596.23 1174.69,-572.07"/>
<polygon fill="#9a32cd" stroke="#9a32cd" points="362.96,-781.21 353.22,-785.38 363.44,-788.19 362.96,-781.21"/>
<text text-anchor="middle" x="747.5" y="-772.5" font-family="Helvetica,sans-Serif" font-size="10.00"> sessionid</text>
<text text-anchor="middle" x="747.5" y="-761.5" font-family="Helvetica,sans-Serif" font-size="10.00">token</text>
</g>
<!-- Node7 -->
<g id="node7" class="node">
<title>Node7</title>
<g id="a_node7"><a xlink:href="classdpp_1_1ssl__client.html" target="_top" xlink:title="Implements a simple non&#45;blocking SSL stream client.">
<polygon fill="none" stroke="black" points="565,-1004 565,-1023 651,-1023 651,-1004 565,-1004"/>
<text text-anchor="middle" x="608" y="-1011" font-family="Helvetica,sans-Serif" font-size="10.00">dpp::ssl_client</text>
</a>
</g>
</g>
<!-- Node3&#45;&gt;Node7 -->
<g id="edge7" class="edge">
<title>Node3&#45;&gt;Node7</title>
<path fill="none" stroke="#9a32cd" stroke-dasharray="5,2" d="M333.64,-805.24C348.65,-825.73 376.14,-858.86 408,-876.5 456.12,-903.14 483.14,-872.13 529,-902.5 568.47,-928.64 594.04,-982.16 603.21,-1003.95"/>
<polygon fill="#9a32cd" stroke="#9a32cd" points="336.48,-803.19 327.83,-797.07 330.78,-807.25 336.48,-803.19"/>
<text text-anchor="middle" x="468.5" y="-949.5" font-family="Helvetica,sans-Serif" font-size="10.00"> buffer</text>
<text text-anchor="middle" x="468.5" y="-938.5" font-family="Helvetica,sans-Serif" font-size="10.00">cipher</text>
<text text-anchor="middle" x="468.5" y="-927.5" font-family="Helvetica,sans-Serif" font-size="10.00">hostname</text>
<text text-anchor="middle" x="468.5" y="-916.5" font-family="Helvetica,sans-Serif" font-size="10.00">obuffer</text>
<text text-anchor="middle" x="468.5" y="-905.5" font-family="Helvetica,sans-Serif" font-size="10.00">port</text>
</g>
<!-- Node17 -->
<g id="node17" class="node">
<title>Node17</title>
<g id="a_node17"><a xlink:href="classdpp_1_1cluster.html" target="_top" xlink:title="The cluster class represents a group of shards and a command queue for sending and receiving commands...">
<polygon fill="none" stroke="black" points="851.5,-553 851.5,-572 925.5,-572 925.5,-553 851.5,-553"/>
<text text-anchor="middle" x="888.5" y="-560" font-family="Helvetica,sans-Serif" font-size="10.00">dpp::cluster</text>
</a>
</g>
</g>
<!-- Node3&#45;&gt;Node17 -->
<g id="edge19" class="edge">
<title>Node3&#45;&gt;Node17</title>
<path fill="none" stroke="#9a32cd" stroke-dasharray="5,2" d="M342.15,-771.4C380.37,-742.39 465.67,-681.33 547,-648.5 657.1,-604.05 693.97,-624.59 808,-591.5 827.05,-585.97 848.11,-578.21 863.77,-572.11"/>
<polygon fill="#9a32cd" stroke="#9a32cd" points="339.7,-768.86 333.89,-777.72 343.96,-774.42 339.7,-768.86"/>
<text text-anchor="middle" x="608" y="-651.5" font-family="Helvetica,sans-Serif" font-size="10.00"> token</text>
</g>
<!-- Node20 -->
<g id="node20" class="node">
<title>Node20</title>
<g id="a_node20"><a xlink:href="classdpp_1_1user.html" target="_top" xlink:title="Represents a user on discord. May or may not be a member of a dpp::guild.">
<polygon fill="none" stroke="black" points="577,-299 577,-318 639,-318 639,-299 577,-299"/>
<text text-anchor="middle" x="608" y="-306" font-family="Helvetica,sans-Serif" font-size="10.00">dpp::user</text>
</a>
</g>
</g>
<!-- Node3&#45;&gt;Node20 -->
<g id="edge28" class="edge">
<title>Node3&#45;&gt;Node20</title>
<path fill="none" stroke="#9a32cd" stroke-dasharray="5,2" d="M348.24,-772.62C362.26,-763.69 378.8,-751.21 390,-736.5 393.65,-731.71 542.76,-336.78 547,-332.5 555.05,-324.37 566.21,-318.91 576.73,-315.28"/>
<polygon fill="#9a32cd" stroke="#9a32cd" points="346.19,-769.77 339.47,-777.97 349.83,-775.75 346.19,-769.77"/>
<text text-anchor="middle" x="468.5" y="-688.5" font-family="Helvetica,sans-Serif" font-size="10.00"> username</text>
</g>
<!-- Node35 -->
<g id="node35" class="node">
<title>Node35</title>
<g id="a_node35"><a xlink:href="classdpp_1_1voicestate.html" target="_top" xlink:title="Represents the voice state of a user on a guild These are stored in the dpp::guild object,...">
<polygon fill="none" stroke="black" points="1315,-137 1315,-156 1407,-156 1407,-137 1315,-137"/>
<text text-anchor="middle" x="1361" y="-144" font-family="Helvetica,sans-Serif" font-size="10.00">dpp::voicestate</text>
</a>
</g>
</g>
<!-- Node3&#45;&gt;Node35 -->
<g id="edge53" class="edge">
<title>Node3&#45;&gt;Node35</title>
<path fill="none" stroke="#9a32cd" stroke-dasharray="5,2" d="M363.12,-793.98C484.73,-810.92 847.24,-847.03 1106,-722.5 1197.02,-678.7 1229.93,-664.65 1281,-577.5 1325.33,-501.86 1353.88,-213.02 1359.12,-156.23"/>
<polygon fill="#9a32cd" stroke="#9a32cd" points="363.5,-790.5 353.11,-792.55 362.51,-797.43 363.5,-790.5"/>
<text text-anchor="middle" x="888.5" y="-803.5" font-family="Helvetica,sans-Serif" font-size="10.00"> session_id</text>
</g>
<!-- Node4 -->
<g id="node4" class="node">
<title>Node4</title>
<g id="a_node4"><a xlink:title=" ">
<polygon fill="none" stroke="#bfbfbf" points="17,-772.5 17,-802.5 121,-802.5 121,-772.5 17,-772.5"/>
<text text-anchor="start" x="25" y="-790.5" font-family="Helvetica,sans-Serif" font-size="10.00">std::basic_string&lt;</text>
<text text-anchor="middle" x="69" y="-779.5" font-family="Helvetica,sans-Serif" font-size="10.00"> Char &gt;</text>
</a>
</g>
</g>
<!-- Node4&#45;&gt;Node3 -->
<g id="edge3" class="edge">
<title>Node4&#45;&gt;Node3</title>
<path fill="none" stroke="midnightblue" d="M131.37,-787.5C180.91,-787.5 248.6,-787.5 287.83,-787.5"/>
<polygon fill="midnightblue" stroke="midnightblue" points="131.09,-784 121.09,-787.5 131.09,-791 131.09,-784"/>
</g>
<!-- Node5&#45;&gt;Node2 -->
<g id="edge4" class="edge">
<title>Node5&#45;&gt;Node2</title>
<path fill="none" stroke="#9a32cd" stroke-dasharray="5,2" d="M1242.57,-562.5C1260.82,-562.5 1280.68,-562.5 1298.78,-562.5"/>
<polygon fill="#9a32cd" stroke="#9a32cd" points="1242.33,-559 1232.33,-562.5 1242.33,-566 1242.33,-559"/>
<text text-anchor="middle" x="1265.5" y="-565.5" font-family="Helvetica,sans-Serif" font-size="10.00"> from</text>
</g>
<!-- Node5&#45;&gt;Node35 -->
<g id="edge51" class="edge">
<title>Node5&#45;&gt;Node35</title>
<path fill="none" stroke="#9a32cd" stroke-dasharray="5,2" d="M1187.4,-543.2C1219.33,-469.8 1332.61,-209.45 1355.82,-156.1"/>
<polygon fill="#9a32cd" stroke="#9a32cd" points="1184.08,-542.06 1183.3,-552.63 1190.49,-544.85 1184.08,-542.06"/>
<text text-anchor="middle" x="1265.5" y="-395.5" font-family="Helvetica,sans-Serif" font-size="10.00"> shard</text>
</g>
<!-- Node6 -->
<g id="node6" class="node">
<title>Node6</title>
<g id="a_node6"><a xlink:href="classdpp_1_1websocket__client.html" target="_top" xlink:title="Implements a websocket client based on the SSL client.">
<polygon fill="none" stroke="black" points="826,-914 826,-933 951,-933 951,-914 826,-914"/>
<text text-anchor="middle" x="888.5" y="-921" font-family="Helvetica,sans-Serif" font-size="10.00">dpp::websocket_client</text>
</a>
</g>
</g>
<!-- Node6&#45;&gt;Node5 -->
<g id="edge5" class="edge">
<title>Node6&#45;&gt;Node5</title>
<path fill="none" stroke="midnightblue" d="M921.18,-909.79C968.18,-887.89 1056.17,-840.65 1106,-774.5 1155.98,-708.15 1172.01,-604.59 1175.93,-572.39"/>
<polygon fill="midnightblue" stroke="midnightblue" points="919.71,-906.61 912.07,-913.96 922.62,-912.98 919.71,-906.61"/>
</g>
<!-- Node7&#45;&gt;Node6 -->
<g id="edge6" class="edge">
<title>Node7&#45;&gt;Node6</title>
<path fill="none" stroke="midnightblue" d="M648.17,-1000.84C704.55,-982.62 807.32,-949.41 857.84,-933.08"/>
<polygon fill="midnightblue" stroke="midnightblue" points="646.98,-997.55 638.54,-1003.95 649.13,-1004.21 646.98,-997.55"/>
</g>
<!-- Node8 -->
<g id="node8" class="node">
<title>Node8</title>
<g id="a_node8"><a xlink:title=" ">
<polygon fill="none" stroke="#bfbfbf" points="301.5,-1164 301.5,-1183 339.5,-1183 339.5,-1164 301.5,-1164"/>
<text text-anchor="middle" x="320.5" y="-1171" font-family="Helvetica,sans-Serif" font-size="10.00">bool</text>
</a>
</g>
</g>
<!-- Node8&#45;&gt;Node5 -->
<g id="edge17" class="edge">
<title>Node8&#45;&gt;Node5</title>
<path fill="none" stroke="#9a32cd" stroke-dasharray="5,2" d="M343.93,-1188.64C360.75,-1199.04 384.78,-1211.93 408,-1217.5 460.3,-1230.04 477.43,-1232.75 529,-1217.5 822.06,-1130.83 928.04,-1091.94 1106,-843.5 1170.61,-753.3 1176.59,-610.01 1177.01,-572.01"/>
<polygon fill="#9a32cd" stroke="#9a32cd" points="345.69,-1185.61 335.38,-1183.18 341.93,-1191.51 345.69,-1185.61"/>
<text text-anchor="middle" x="747.5" y="-1180.5" font-family="Helvetica,sans-Serif" font-size="10.00"> ready</text>
<text text-anchor="middle" x="747.5" y="-1169.5" font-family="Helvetica,sans-Serif" font-size="10.00">terminating</text>
</g>
<!-- Node8&#45;&gt;Node7 -->
<g id="edge8" class="edge">
<title>Node8&#45;&gt;Node7</title>
<path fill="none" stroke="#9a32cd" stroke-dasharray="5,2" d="M349.62,-1173.48C399.32,-1172.95 500.15,-1169.47 529,-1150.5 576.33,-1119.37 598.12,-1049.01 604.72,-1023.21"/>
<polygon fill="#9a32cd" stroke="#9a32cd" points="349.53,-1169.98 339.55,-1173.55 349.58,-1176.98 349.53,-1169.98"/>
<text text-anchor="middle" x="468.5" y="-1207.5" font-family="Helvetica,sans-Serif" font-size="10.00"> keepalive</text>
<text text-anchor="middle" x="468.5" y="-1196.5" font-family="Helvetica,sans-Serif" font-size="10.00">make_new</text>
<text text-anchor="middle" x="468.5" y="-1185.5" font-family="Helvetica,sans-Serif" font-size="10.00">nonblocking</text>
<text text-anchor="middle" x="468.5" y="-1174.5" font-family="Helvetica,sans-Serif" font-size="10.00">plaintext</text>
</g>
<!-- Node9 -->
<g id="node9" class="node">
<title>Node9</title>
<g id="a_node9"><a xlink:title=" ">
<polygon fill="none" stroke="#bfbfbf" points="306,-1087 306,-1106 335,-1106 335,-1087 306,-1087"/>
<text text-anchor="middle" x="320.5" y="-1094" font-family="Helvetica,sans-Serif" font-size="10.00">int</text>
</a>
</g>
</g>
<!-- Node9&#45;&gt;Node7 -->
<g id="edge9" class="edge">
<title>Node9&#45;&gt;Node7</title>
<path fill="none" stroke="#9a32cd" stroke-dasharray="5,2" d="M345.22,-1095.23C384.56,-1092.51 465.26,-1084.28 529,-1060.5 553.89,-1051.22 579.7,-1033.88 594.51,-1023.05"/>
<polygon fill="#9a32cd" stroke="#9a32cd" points="344.82,-1091.75 335.06,-1095.87 345.26,-1098.74 344.82,-1091.75"/>
<text text-anchor="middle" x="468.5" y="-1090.5" font-family="Helvetica,sans-Serif" font-size="10.00"> sfd</text>
</g>
<!-- Node10 -->
<g id="node10" class="node">
<title>Node10</title>
<g id="a_node10"><a xlink:href="classdpp_1_1opensslcontext.html" target="_top" xlink:title="This is an opaque class containing openssl library specific structures. We define it this way so that...">
<polygon fill="none" stroke="black" points="263,-1049 263,-1068 378,-1068 378,-1049 263,-1049"/>
<text text-anchor="middle" x="320.5" y="-1056" font-family="Helvetica,sans-Serif" font-size="10.00">dpp::opensslcontext</text>
</a>
</g>
</g>
<!-- Node10&#45;&gt;Node7 -->
<g id="edge10" class="edge">
<title>Node10&#45;&gt;Node7</title>
<path fill="none" stroke="#9a32cd" stroke-dasharray="5,2" d="M388.44,-1049.01C429.14,-1043.11 482.12,-1035.21 529,-1027.5 540.68,-1025.58 553.31,-1023.37 564.94,-1021.28"/>
<polygon fill="#9a32cd" stroke="#9a32cd" points="387.77,-1045.57 378.38,-1050.46 388.77,-1052.5 387.77,-1045.57"/>
<text text-anchor="middle" x="468.5" y="-1048.5" font-family="Helvetica,sans-Serif" font-size="10.00"> ssl</text>
</g>
<!-- Node11 -->
<g id="node11" class="node">
<title>Node11</title>
<g id="a_node11"><a xlink:title=" ">
<polygon fill="none" stroke="#bfbfbf" points="48,-1078 48,-1097 90,-1097 90,-1078 48,-1078"/>
<text text-anchor="middle" x="69" y="-1085" font-family="Helvetica,sans-Serif" font-size="10.00">SSL *</text>
</a>
</g>
</g>
<!-- Node11&#45;&gt;Node10 -->
<g id="edge11" class="edge">
<title>Node11&#45;&gt;Node10</title>
<path fill="none" stroke="#9a32cd" stroke-dasharray="5,2" d="M100.43,-1083.96C140.73,-1079.28 212.59,-1070.93 262.99,-1065.07"/>
<polygon fill="#9a32cd" stroke="#9a32cd" points="99.95,-1080.5 90.42,-1085.13 100.75,-1087.45 99.95,-1080.5"/>
<text text-anchor="middle" x="194.5" y="-1079.5" font-family="Helvetica,sans-Serif" font-size="10.00"> ssl</text>
</g>
<!-- Node12 -->
<g id="node12" class="node">
<title>Node12</title>
<g id="a_node12"><a xlink:title=" ">
<polygon fill="none" stroke="#bfbfbf" points="35.5,-1040 35.5,-1059 102.5,-1059 102.5,-1040 35.5,-1040"/>
<text text-anchor="middle" x="69" y="-1047" font-family="Helvetica,sans-Serif" font-size="10.00">SSL_CTX *</text>
</a>
</g>
</g>
<!-- Node12&#45;&gt;Node10 -->
<g id="edge12" class="edge">
<title>Node12&#45;&gt;Node10</title>
<path fill="none" stroke="#9a32cd" stroke-dasharray="5,2" d="M112.96,-1050.64C145.83,-1051.55 192.28,-1052.93 233,-1054.5 242.61,-1054.87 252.83,-1055.3 262.74,-1055.75"/>
<polygon fill="#9a32cd" stroke="#9a32cd" points="112.88,-1047.13 102.79,-1050.36 112.69,-1054.13 112.88,-1047.13"/>
<text text-anchor="middle" x="194.5" y="-1057.5" font-family="Helvetica,sans-Serif" font-size="10.00"> ctx</text>
</g>
<!-- Node13 -->
<g id="node13" class="node">
<title>Node13</title>
<g id="a_node13"><a xlink:title=" ">
<polygon fill="none" stroke="#bfbfbf" points="296.5,-708 296.5,-727 344.5,-727 344.5,-708 296.5,-708"/>
<text text-anchor="middle" x="320.5" y="-715" font-family="Helvetica,sans-Serif" font-size="10.00">time_t</text>
</a>
</g>
</g>
<!-- Node13&#45;&gt;Node5 -->
<g id="edge40" class="edge">
<title>Node13&#45;&gt;Node5</title>
<path fill="none" stroke="#9a32cd" stroke-dasharray="5,2" d="M354.59,-719.28C448.6,-723.74 725.12,-732.73 951,-698.5 1021.68,-687.79 1046.78,-695.55 1106,-655.5 1138.81,-633.31 1162.83,-590.96 1172.42,-572.04"/>
<polygon fill="#9a32cd" stroke="#9a32cd" points="354.7,-715.78 344.54,-718.79 354.36,-722.77 354.7,-715.78"/>
<text text-anchor="middle" x="747.5" y="-735.5" font-family="Helvetica,sans-Serif" font-size="10.00"> last_heartbeat</text>
<text text-anchor="middle" x="747.5" y="-724.5" font-family="Helvetica,sans-Serif" font-size="10.00">last_heartbeat_ack</text>
</g>
<!-- Node13&#45;&gt;Node7 -->
<g id="edge13" class="edge">
<title>Node13&#45;&gt;Node7</title>
<path fill="none" stroke="#9a32cd" stroke-dasharray="5,2" d="M350.11,-731.84C393.41,-754.7 476.16,-803.08 529,-863.5 568.81,-909.01 595.06,-978.41 603.79,-1003.78"/>
<polygon fill="#9a32cd" stroke="#9a32cd" points="351.47,-728.6 340.99,-727.09 348.24,-734.81 351.47,-728.6"/>
<text text-anchor="middle" x="468.5" y="-866.5" font-family="Helvetica,sans-Serif" font-size="10.00"> last_tick</text>
</g>
<!-- Node13&#45;&gt;Node17 -->
<g id="edge20" class="edge">
<title>Node13&#45;&gt;Node17</title>
<path fill="none" stroke="#9a32cd" stroke-dasharray="5,2" d="M336.04,-700.22C371.29,-657.93 463.25,-545.24 529,-443.5 538.07,-429.47 533.08,-419.73 547,-410.5 595.41,-378.4 764.5,-358.01 808,-396.5 857.29,-440.12 783.77,-493.01 826,-543.5 832.38,-551.13 841.76,-555.75 851.28,-558.53"/>
<polygon fill="#9a32cd" stroke="#9a32cd" points="333.32,-698.02 329.59,-707.93 338.69,-702.51 333.32,-698.02"/>
<text text-anchor="middle" x="608" y="-413.5" font-family="Helvetica,sans-Serif" font-size="10.00"> last_identify</text>
</g>
<!-- Node14 -->
<g id="node14" class="node">
<title>Node14</title>
<g id="a_node14"><a xlink:title=" ">
<polygon fill="none" stroke="#bfbfbf" points="41,-366 41,-385 97,-385 97,-366 41,-366"/>
<text text-anchor="middle" x="69" y="-373" font-family="Helvetica,sans-Serif" font-size="10.00">uint64_t</text>
</a>
</g>
</g>
<!-- Node14&#45;&gt;Node5 -->
<g id="edge42" class="edge">
<title>Node14&#45;&gt;Node5</title>
<path fill="none" stroke="#9a32cd" stroke-dasharray="5,2" d="M107.34,-383.11C122.39,-385.89 139.96,-388.77 156,-390.5 198.02,-395.03 208.75,-393.61 251,-394.5 312.76,-395.8 328.36,-398.69 390,-394.5 452.21,-390.27 470.69,-397.58 529,-375.5 537.99,-372.1 538.29,-367.57 547,-363.5 598.21,-339.55 616.4,-348.22 669,-327.5 677.32,-324.22 678.29,-320.55 687,-318.5 739.34,-306.14 755.25,-308.04 808,-318.5 948.55,-346.37 997.88,-347.47 1106,-441.5 1143.12,-473.79 1165.87,-530.46 1173.81,-552.93"/>
<polygon fill="#9a32cd" stroke="#9a32cd" points="107.85,-379.64 97.37,-381.21 106.54,-386.52 107.85,-379.64"/>
<text text-anchor="middle" x="608" y="-366.5" font-family="Helvetica,sans-Serif" font-size="10.00"> last_seq</text>
</g>
<!-- Node14&#45;&gt;Node7 -->
<g id="edge14" class="edge">
<title>Node14&#45;&gt;Node7</title>
<path fill="none" stroke="#9a32cd" stroke-dasharray="5,2" d="M72.99,-395.46C87.75,-491.19 155.97,-901.88 251,-981.5 297.56,-1020.5 481.06,-1018.57 564.86,-1015.5"/>
<polygon fill="#9a32cd" stroke="#9a32cd" points="76.42,-394.75 71.46,-385.39 69.5,-395.8 76.42,-394.75"/>
<text text-anchor="middle" x="320.5" y="-1027.5" font-family="Helvetica,sans-Serif" font-size="10.00"> bytes_in</text>
<text text-anchor="middle" x="320.5" y="-1016.5" font-family="Helvetica,sans-Serif" font-size="10.00">bytes_out</text>
</g>
<!-- Node21 -->
<g id="node21" class="node">
<title>Node21</title>
<g id="a_node21"><a xlink:href="classdpp_1_1managed.html" target="_top" xlink:title="The managed class is the base class for various types that can be stored in a cache that are identifi...">
<polygon fill="none" stroke="black" points="277.5,-366 277.5,-385 363.5,-385 363.5,-366 277.5,-366"/>
<text text-anchor="middle" x="320.5" y="-373" font-family="Helvetica,sans-Serif" font-size="10.00">dpp::managed</text>
</a>
</g>
</g>
<!-- Node14&#45;&gt;Node21 -->
<g id="edge25" class="edge">
<title>Node14&#45;&gt;Node21</title>
<path fill="none" stroke="#9a32cd" stroke-dasharray="5,2" d="M107.22,-375.5C152.79,-375.5 229.76,-375.5 277.43,-375.5"/>
<polygon fill="#9a32cd" stroke="#9a32cd" points="107.18,-372 97.18,-375.5 107.18,-379 107.18,-372"/>
<text text-anchor="middle" x="194.5" y="-378.5" font-family="Helvetica,sans-Serif" font-size="10.00"> id</text>
</g>
<!-- Node24 -->
<g id="node24" class="node">
<title>Node24</title>
<g id="a_node24"><a xlink:href="structdpp_1_1utility_1_1iconhash.html" target="_top" xlink:title="Store a 128 bit icon hash (profile picture, server icon etc) as a 128 bit binary value made of two ui...">
<polygon fill="none" stroke="black" points="261.5,-290 261.5,-309 379.5,-309 379.5,-290 261.5,-290"/>
<text text-anchor="middle" x="320.5" y="-297" font-family="Helvetica,sans-Serif" font-size="10.00">dpp::utility::iconhash</text>
</a>
</g>
</g>
<!-- Node14&#45;&gt;Node24 -->
<g id="edge30" class="edge">
<title>Node14&#45;&gt;Node24</title>
<path fill="none" stroke="#9a32cd" stroke-dasharray="5,2" d="M106.92,-363.46C143.41,-351.66 200.9,-333.33 251,-318.5 261.77,-315.31 273.54,-311.99 284.23,-309.03"/>
<polygon fill="#9a32cd" stroke="#9a32cd" points="105.64,-360.2 97.2,-366.61 107.79,-366.86 105.64,-360.2"/>
<text text-anchor="middle" x="194.5" y="-361.5" font-family="Helvetica,sans-Serif" font-size="10.00"> first</text>
<text text-anchor="middle" x="194.5" y="-350.5" font-family="Helvetica,sans-Serif" font-size="10.00">second</text>
</g>
<!-- Node14&#45;&gt;Node35 -->
<g id="edge52" class="edge">
<title>Node14&#45;&gt;Node35</title>
<path fill="none" stroke="#9a32cd" stroke-dasharray="5,2" d="M73.06,-355.84C80.21,-316.69 101.71,-228.66 156,-181.5 189.14,-152.71 207.96,-163.11 251,-154.5 373,-130.08 409.8,-157.19 529,-121.5 537.57,-118.93 538.4,-114.97 547,-112.5 632.62,-87.95 657.43,-93.5 746.5,-93.5 746.5,-93.5 746.5,-93.5 1179,-93.5 1240.07,-93.5 1308.22,-121.63 1340.72,-136.9"/>
<polygon fill="#9a32cd" stroke="#9a32cd" points="69.61,-355.28 71.38,-365.72 76.51,-356.45 69.61,-355.28"/>
<text text-anchor="middle" x="747.5" y="-118.5" font-family="Helvetica,sans-Serif" font-size="10.00"> channel_id</text>
<text text-anchor="middle" x="747.5" y="-107.5" font-family="Helvetica,sans-Serif" font-size="10.00">guild_id</text>
<text text-anchor="middle" x="747.5" y="-96.5" font-family="Helvetica,sans-Serif" font-size="10.00">user_id</text>
</g>
<!-- Node15 -->
<g id="node15" class="node">
<title>Node15</title>
<g id="a_node15"><a xlink:title=" ">
<polygon fill="none" stroke="#bfbfbf" points="251,-953 251,-972 390,-972 390,-953 251,-953"/>
<text text-anchor="middle" x="320.5" y="-960" font-family="Helvetica,sans-Serif" font-size="10.00">function&lt; dpp::socket()&gt;</text>
</a>
</g>
</g>
<!-- Node15&#45;&gt;Node7 -->
<g id="edge15" class="edge">
<title>Node15&#45;&gt;Node7</title>
<path fill="none" stroke="#9a32cd" stroke-dasharray="5,2" d="M400.29,-961.57C439.51,-962.77 487.33,-966.76 529,-977.5 551.53,-983.31 575.57,-995.41 590.91,-1003.97"/>
<polygon fill="#9a32cd" stroke="#9a32cd" points="400.33,-958.07 390.25,-961.32 400.16,-965.07 400.33,-958.07"/>
<text text-anchor="middle" x="468.5" y="-991.5" font-family="Helvetica,sans-Serif" font-size="10.00"> custom_readable_fd</text>
<text text-anchor="middle" x="468.5" y="-980.5" font-family="Helvetica,sans-Serif" font-size="10.00">custom_writeable_fd</text>
</g>
<!-- Node16 -->
<g id="node16" class="node">
<title>Node16</title>
<g id="a_node16"><a xlink:title=" ">
<polygon fill="none" stroke="#bfbfbf" points="268.5,-1125 268.5,-1144 372.5,-1144 372.5,-1125 268.5,-1125"/>
<text text-anchor="middle" x="320.5" y="-1132" font-family="Helvetica,sans-Serif" font-size="10.00">function&lt; void()&gt;</text>
</a>
</g>
</g>
<!-- Node16&#45;&gt;Node7 -->
<g id="edge16" class="edge">
<title>Node16&#45;&gt;Node7</title>
<path fill="none" stroke="#9a32cd" stroke-dasharray="5,2" d="M383.08,-1129.67C434.96,-1124.76 504.51,-1115.94 529,-1102.5 563.94,-1083.32 590.72,-1042.1 601.64,-1023.26"/>
<polygon fill="#9a32cd" stroke="#9a32cd" points="382.6,-1126.2 372.96,-1130.6 383.24,-1133.17 382.6,-1126.2"/>
<text text-anchor="middle" x="468.5" y="-1140.5" font-family="Helvetica,sans-Serif" font-size="10.00"> custom_readable_ready</text>
<text text-anchor="middle" x="468.5" y="-1129.5" font-family="Helvetica,sans-Serif" font-size="10.00">custom_writeable_ready</text>
</g>
<!-- Node17&#45;&gt;Node5 -->
<g id="edge18" class="edge">
<title>Node17&#45;&gt;Node5</title>
<path fill="none" stroke="#9a32cd" stroke-dasharray="5,2" d="M935.77,-562.5C987.16,-562.5 1069.97,-562.5 1123.94,-562.5"/>
<polygon fill="#9a32cd" stroke="#9a32cd" points="935.62,-559 925.62,-562.5 935.62,-566 935.62,-559"/>
<text text-anchor="middle" x="1037.5" y="-565.5" font-family="Helvetica,sans-Serif" font-size="10.00"> creator</text>
</g>
<!-- Node18 -->
<g id="node18" class="node">
<title>Node18</title>
<g id="a_node18"><a xlink:title=" ">
<polygon fill="none" stroke="#bfbfbf" points="292.5,-202 292.5,-221 348.5,-221 348.5,-202 292.5,-202"/>
<text text-anchor="middle" x="320.5" y="-209" font-family="Helvetica,sans-Serif" font-size="10.00">uint32_t</text>
</a>
</g>
</g>
<!-- Node18&#45;&gt;Node5 -->
<g id="edge39" class="edge">
<title>Node18&#45;&gt;Node5</title>
<path fill="none" stroke="#9a32cd" stroke-dasharray="5,2" d="M358.45,-204.54C369.03,-201.69 380.31,-197.78 390,-192.5 399.4,-187.38 398.06,-180.48 408,-176.5 490.53,-143.42 720.33,-151.64 808,-166.5 946.31,-189.94 1011.75,-166.6 1106,-270.5 1145.52,-314.07 1170.51,-507.45 1175.9,-552.91"/>
<polygon fill="#9a32cd" stroke="#9a32cd" points="357.48,-201.17 348.61,-206.96 359.15,-207.97 357.48,-201.17"/>
<text text-anchor="middle" x="747.5" y="-224.5" font-family="Helvetica,sans-Serif" font-size="10.00"> heartbeat_interval</text>
<text text-anchor="middle" x="747.5" y="-213.5" font-family="Helvetica,sans-Serif" font-size="10.00">intents</text>
<text text-anchor="middle" x="747.5" y="-202.5" font-family="Helvetica,sans-Serif" font-size="10.00">max_shards</text>
<text text-anchor="middle" x="747.5" y="-191.5" font-family="Helvetica,sans-Serif" font-size="10.00">reconnects</text>
<text text-anchor="middle" x="747.5" y="-180.5" font-family="Helvetica,sans-Serif" font-size="10.00">resumes</text>
<text text-anchor="middle" x="747.5" y="-169.5" font-family="Helvetica,sans-Serif" font-size="10.00">shard_id</text>
</g>
<!-- Node18&#45;&gt;Node17 -->
<g id="edge21" class="edge">
<title>Node18&#45;&gt;Node17</title>
<path fill="none" stroke="#9a32cd" stroke-dasharray="5,2" d="M358.64,-210.29C438.15,-208.46 621.45,-208.49 669,-245.5 687.64,-260.01 669.34,-279.81 687,-295.5 728.27,-332.16 771.91,-281.73 808,-323.5 840.07,-360.62 795.29,-505.25 826,-543.5 832.3,-551.34 841.77,-556.02 851.4,-558.79"/>
<polygon fill="#9a32cd" stroke="#9a32cd" points="358.49,-206.79 348.58,-210.55 358.67,-213.79 358.49,-206.79"/>
<text text-anchor="middle" x="608" y="-281.5" font-family="Helvetica,sans-Serif" font-size="10.00"> cluster_id</text>
<text text-anchor="middle" x="608" y="-270.5" font-family="Helvetica,sans-Serif" font-size="10.00">intents</text>
<text text-anchor="middle" x="608" y="-259.5" font-family="Helvetica,sans-Serif" font-size="10.00">maxclusters</text>
<text text-anchor="middle" x="608" y="-248.5" font-family="Helvetica,sans-Serif" font-size="10.00">numshards</text>
</g>
<!-- Node18&#45;&gt;Node20 -->
<g id="edge31" class="edge">
<title>Node18&#45;&gt;Node20</title>
<path fill="none" stroke="#9a32cd" stroke-dasharray="5,2" d="M358.81,-220.79C374.04,-224.52 391.84,-228.8 408,-232.5 461.62,-244.77 479.94,-233.63 529,-258.5 538.55,-263.34 538.3,-268.27 547,-274.5 559.95,-283.77 575.64,-292.58 587.73,-298.91"/>
<polygon fill="#9a32cd" stroke="#9a32cd" points="359.27,-217.3 348.73,-218.31 357.6,-224.09 359.27,-217.3"/>
<text text-anchor="middle" x="468.5" y="-261.5" font-family="Helvetica,sans-Serif" font-size="10.00"> flags</text>
</g>
<!-- Node19 -->
<g id="node19" class="node">
<title>Node19</title>
<g id="a_node19"><a xlink:title=" ">
<polygon fill="none" stroke="#bfbfbf" points="583,-669 583,-688 633,-688 633,-669 583,-669"/>
<text text-anchor="middle" x="608" y="-676" font-family="Helvetica,sans-Serif" font-size="10.00">double</text>
</a>
</g>
</g>
<!-- Node19&#45;&gt;Node5 -->
<g id="edge45" class="edge">
<title>Node19&#45;&gt;Node5</title>
<path fill="none" stroke="#9a32cd" stroke-dasharray="5,2" d="M643.16,-681.92C727.09,-688.76 948.07,-697.3 1106,-617.5 1130.22,-605.27 1154.31,-584.25 1167.27,-572.05"/>
<polygon fill="#9a32cd" stroke="#9a32cd" points="643.42,-678.43 633.16,-681.05 642.82,-685.4 643.42,-678.43"/>
<text text-anchor="middle" x="888.5" y="-686.5" font-family="Helvetica,sans-Serif" font-size="10.00"> websocket_ping</text>
</g>
<!-- Node19&#45;&gt;Node17 -->
<g id="edge22" class="edge">
<title>Node19&#45;&gt;Node17</title>
<path fill="none" stroke="#9a32cd" stroke-dasharray="5,2" d="M643.05,-671.13C683.62,-661.63 752.83,-643.11 808,-616.5 833.85,-604.03 860.85,-583.94 875.79,-572.1"/>
<polygon fill="#9a32cd" stroke="#9a32cd" points="642.1,-667.76 633.14,-673.41 643.67,-674.58 642.1,-667.76"/>
<text text-anchor="middle" x="747.5" y="-662.5" font-family="Helvetica,sans-Serif" font-size="10.00"> rest_ping</text>
</g>
<!-- Node20&#45;&gt;Node17 -->
<g id="edge23" class="edge">
<title>Node20&#45;&gt;Node17</title>
<path fill="none" stroke="#9a32cd" stroke-dasharray="5,2" d="M649.33,-314.97C706.71,-324.25 805.31,-340.57 808,-343.5 838.2,-376.36 797.92,-508.81 826,-543.5 832.33,-551.32 841.81,-555.99 851.44,-558.75"/>
<polygon fill="#9a32cd" stroke="#9a32cd" points="649.56,-311.46 639.13,-313.32 648.44,-318.37 649.56,-311.46"/>
<text text-anchor="middle" x="747.5" y="-346.5" font-family="Helvetica,sans-Serif" font-size="10.00"> me</text>
</g>
<!-- Node21&#45;&gt;Node20 -->
<g id="edge24" class="edge">
<title>Node21&#45;&gt;Node20</title>
<path fill="none" stroke="midnightblue" d="M373.92,-376.35C417.22,-375.22 479.41,-369.32 529,-347.5 538.53,-343.31 538.06,-337.83 547,-332.5 556.54,-326.81 567.67,-321.93 577.74,-318.09"/>
<polygon fill="midnightblue" stroke="midnightblue" points="373.82,-372.85 363.89,-376.53 373.95,-379.85 373.82,-372.85"/>
</g>
<!-- Node22 -->
<g id="node22" class="node">
<title>Node22</title>
<g id="a_node22"><a xlink:href="structdpp_1_1json__interface.html" target="_top" xlink:title=" ">
<polygon fill="none" stroke="black" points="265.5,-240.5 265.5,-270.5 375.5,-270.5 375.5,-240.5 265.5,-240.5"/>
<text text-anchor="start" x="273.5" y="-258.5" font-family="Helvetica,sans-Serif" font-size="10.00">dpp::json_interface</text>
<text text-anchor="middle" x="320.5" y="-247.5" font-family="Helvetica,sans-Serif" font-size="10.00">&lt; user &gt;</text>
</a>
</g>
</g>
<!-- Node22&#45;&gt;Node20 -->
<g id="edge26" class="edge">
<title>Node22&#45;&gt;Node20</title>
<path fill="none" stroke="midnightblue" d="M385.62,-267.4C445.32,-278.49 531.7,-294.52 576.88,-302.91"/>
<polygon fill="midnightblue" stroke="midnightblue" points="386.01,-263.92 375.54,-265.53 384.73,-270.8 386.01,-263.92"/>
</g>
<!-- Node23 -->
<g id="node23" class="node">
<title>Node23</title>
<g id="a_node23"><a xlink:href="structdpp_1_1json__interface.html" target="_top" xlink:title="Represents an interface for an object that can optionally implement functions for converting to and f...">
<polygon fill="none" stroke="black" points="0,-122 0,-141 138,-141 138,-122 0,-122"/>
<text text-anchor="middle" x="69" y="-129" font-family="Helvetica,sans-Serif" font-size="10.00">dpp::json_interface&lt; T &gt;</text>
</a>
</g>
</g>
<!-- Node23&#45;&gt;Node22 -->
<g id="edge27" class="edge">
<title>Node23&#45;&gt;Node22</title>
<path fill="none" stroke="orange" stroke-dasharray="5,2" d="M94.38,-146.38C128.59,-166.89 193.14,-204.3 251,-230.5 258.73,-234 267.1,-237.38 275.25,-240.46"/>
<polygon fill="orange" stroke="orange" points="95.94,-143.23 85.57,-141.06 92.33,-149.23 95.94,-143.23"/>
<text text-anchor="middle" x="194.5" y="-224.5" font-family="Helvetica,sans-Serif" font-size="10.00"> &lt; user &gt;</text>
</g>
<!-- Node36 -->
<g id="node36" class="node">
<title>Node36</title>
<g id="a_node36"><a xlink:href="structdpp_1_1json__interface.html" target="_top" xlink:title=" ">
<polygon fill="none" stroke="black" points="413.5,-0.5 413.5,-30.5 523.5,-30.5 523.5,-0.5 413.5,-0.5"/>
<text text-anchor="start" x="421.5" y="-18.5" font-family="Helvetica,sans-Serif" font-size="10.00">dpp::json_interface</text>
<text text-anchor="middle" x="468.5" y="-7.5" font-family="Helvetica,sans-Serif" font-size="10.00">&lt; voicestate &gt;</text>
</a>
</g>
</g>
<!-- Node23&#45;&gt;Node36 -->
<g id="edge50" class="edge">
<title>Node23&#45;&gt;Node36</title>
<path fill="none" stroke="orange" stroke-dasharray="5,2" d="M104.52,-118.39C140.71,-104.9 199.38,-83.77 251,-68.5 305.73,-52.31 369.27,-37.19 413.29,-27.27"/>
<polygon fill="orange" stroke="orange" points="103.07,-115.19 94.94,-121.98 105.53,-121.75 103.07,-115.19"/>
<text text-anchor="middle" x="194.5" y="-102.5" font-family="Helvetica,sans-Serif" font-size="10.00"> &lt; voicestate &gt;</text>
</g>
<!-- Node24&#45;&gt;Node20 -->
<g id="edge29" class="edge">
<title>Node24&#45;&gt;Node20</title>
<path fill="none" stroke="#9a32cd" stroke-dasharray="5,2" d="M389.67,-301.65C449.06,-303.52 532.4,-306.15 576.63,-307.54"/>
<polygon fill="#9a32cd" stroke="#9a32cd" points="389.72,-298.15 379.62,-301.33 389.5,-305.15 389.72,-298.15"/>
<text text-anchor="middle" x="468.5" y="-309.5" font-family="Helvetica,sans-Serif" font-size="10.00"> avatar</text>
</g>
<!-- Node25 -->
<g id="node25" class="node">
<title>Node25</title>
<g id="a_node25"><a xlink:title=" ">
<polygon fill="none" stroke="#bfbfbf" points="292.5,-328 292.5,-347 348.5,-347 348.5,-328 292.5,-328"/>
<text text-anchor="middle" x="320.5" y="-335" font-family="Helvetica,sans-Serif" font-size="10.00">uint16_t</text>
</a>
</g>
</g>
<!-- Node25&#45;&gt;Node20 -->
<g id="edge32" class="edge">
<title>Node25&#45;&gt;Node20</title>
<path fill="none" stroke="#9a32cd" stroke-dasharray="5,2" d="M358.99,-335.61C400.62,-333.27 469.77,-328.7 529,-321.5 544.81,-319.58 562.31,-316.73 576.72,-314.19"/>
<polygon fill="#9a32cd" stroke="#9a32cd" points="358.56,-332.12 348.77,-336.17 358.94,-339.11 358.56,-332.12"/>
<text text-anchor="middle" x="468.5" y="-335.5" font-family="Helvetica,sans-Serif" font-size="10.00"> discriminator</text>
</g>
<!-- Node26 -->
<g id="node26" class="node">
<title>Node26</title>
<g id="a_node26"><a xlink:title=" ">
<polygon fill="none" stroke="#bfbfbf" points="295.5,-164 295.5,-183 345.5,-183 345.5,-164 295.5,-164"/>
<text text-anchor="middle" x="320.5" y="-171" font-family="Helvetica,sans-Serif" font-size="10.00">uint8_t</text>
</a>
</g>
</g>
<!-- Node26&#45;&gt;Node20 -->
<g id="edge33" class="edge">
<title>Node26&#45;&gt;Node20</title>
<path fill="none" stroke="#9a32cd" stroke-dasharray="5,2" d="M356,-170.93C401.44,-169.51 481.16,-174.08 529,-217.5 548.67,-235.35 530.28,-253.85 547,-274.5 555.81,-285.39 569.1,-293.42 580.94,-298.94"/>
<polygon fill="#9a32cd" stroke="#9a32cd" points="355.61,-167.44 345.77,-171.37 355.91,-174.44 355.61,-167.44"/>
<text text-anchor="middle" x="468.5" y="-220.5" font-family="Helvetica,sans-Serif" font-size="10.00"> refcount</text>
</g>
<!-- Node26&#45;&gt;Node35 -->
<g id="edge54" class="edge">
<title>Node26&#45;&gt;Node35</title>
<path fill="none" stroke="#9a32cd" stroke-dasharray="5,2" d="M337.97,-156.45C358.36,-135.7 392.32,-102.45 408,-94.5 488.46,-53.7 516.79,-54.5 607,-54.5 607,-54.5 607,-54.5 1179,-54.5 1225.68,-54.5 1239.43,-58.28 1281,-79.5 1310.15,-94.38 1337.78,-121.97 1351.32,-136.67"/>
<polygon fill="#9a32cd" stroke="#9a32cd" points="335.36,-154.11 330.88,-163.71 340.37,-159 335.36,-154.11"/>
<text text-anchor="middle" x="888.5" y="-57.5" font-family="Helvetica,sans-Serif" font-size="10.00"> flags</text>
</g>
<!-- Node27 -->
<g id="node27" class="node">
<title>Node27</title>
<g id="a_node27"><a xlink:href="structdpp_1_1cache__policy__t.html" target="_top" xlink:title="Represents the caching policy of the cluster.">
<polygon fill="none" stroke="black" points="551.5,-122 551.5,-141 664.5,-141 664.5,-122 551.5,-122"/>
<text text-anchor="middle" x="608" y="-129" font-family="Helvetica,sans-Serif" font-size="10.00">dpp::cache_policy_t</text>
</a>
</g>
</g>
<!-- Node27&#45;&gt;Node17 -->
<g id="edge34" class="edge">
<title>Node27&#45;&gt;Node17</title>
<path fill="none" stroke="#9a32cd" stroke-dasharray="5,2" d="M624.93,-149.07C637.59,-163.45 655.37,-184.58 669,-204.5 678.22,-217.97 674.71,-225.76 687,-236.5 730.57,-274.56 773.86,-237.79 808,-284.5 842.05,-331.08 790.16,-498.29 826,-543.5 832.25,-551.38 841.7,-556.07 851.34,-558.84"/>
<polygon fill="#9a32cd" stroke="#9a32cd" points="627.4,-146.59 618.14,-141.45 622.18,-151.25 627.4,-146.59"/>
<text text-anchor="middle" x="747.5" y="-287.5" font-family="Helvetica,sans-Serif" font-size="10.00"> cache_policy</text>
</g>
<!-- Node28 -->
<g id="node28" class="node">
<title>Node28</title>
<g id="a_node28"><a xlink:title=" ">
<polygon fill="none" stroke="#bfbfbf" points="256.5,-78 256.5,-97 384.5,-97 384.5,-78 256.5,-78"/>
<text text-anchor="middle" x="320.5" y="-85" font-family="Helvetica,sans-Serif" font-size="10.00">cache_policy_setting_t</text>
</a>
</g>
</g>
<!-- Node28&#45;&gt;Node27 -->
<g id="edge35" class="edge">
<title>Node28&#45;&gt;Node27</title>
<path fill="none" stroke="#9a32cd" stroke-dasharray="5,2" d="M394.93,-96.17C434.71,-101.18 484.66,-107.97 529,-115.5 540.04,-117.37 551.9,-119.66 562.96,-121.92"/>
<polygon fill="#9a32cd" stroke="#9a32cd" points="395.14,-92.67 384.78,-94.9 394.27,-99.61 395.14,-92.67"/>
<text text-anchor="middle" x="468.5" y="-140.5" font-family="Helvetica,sans-Serif" font-size="10.00"> emoji_policy</text>
<text text-anchor="middle" x="468.5" y="-129.5" font-family="Helvetica,sans-Serif" font-size="10.00">role_policy</text>
<text text-anchor="middle" x="468.5" y="-118.5" font-family="Helvetica,sans-Serif" font-size="10.00">user_policy</text>
</g>
<!-- Node29 -->
<g id="node29" class="node">
<title>Node29</title>
<g id="a_node29"><a xlink:title=" ">
<polygon fill="none" stroke="#bfbfbf" points="547,-575 547,-594 669,-594 669,-575 547,-575"/>
<text text-anchor="middle" x="608" y="-582" font-family="Helvetica,sans-Serif" font-size="10.00">websocket_protocol_t</text>
</a>
</g>
</g>
<!-- Node29&#45;&gt;Node5 -->
<g id="edge46" class="edge">
<title>Node29&#45;&gt;Node5</title>
<path fill="none" stroke="#9a32cd" stroke-dasharray="5,2" d="M643.72,-598.56C652.69,-603.33 661.82,-609.3 669,-616.5 681.07,-628.61 672.35,-641.68 687,-650.5 733.07,-678.24 754.59,-656.78 808,-650.5 936.53,-635.39 1085.15,-591.63 1147.29,-572.1"/>
<polygon fill="#9a32cd" stroke="#9a32cd" points="645.05,-595.32 634.53,-594.04 641.96,-601.6 645.05,-595.32"/>
<text text-anchor="middle" x="888.5" y="-651.5" font-family="Helvetica,sans-Serif" font-size="10.00"> protocol</text>
</g>
<!-- Node29&#45;&gt;Node17 -->
<g id="edge36" class="edge">
<title>Node29&#45;&gt;Node17</title>
<path fill="none" stroke="#9a32cd" stroke-dasharray="5,2" d="M679.09,-578.96C733.9,-574.63 807.88,-568.79 851.36,-565.36"/>
<polygon fill="#9a32cd" stroke="#9a32cd" points="678.78,-575.48 669.09,-579.75 679.33,-582.45 678.78,-575.48"/>
<text text-anchor="middle" x="747.5" y="-581.5" font-family="Helvetica,sans-Serif" font-size="10.00"> ws_mode</text>
</g>
<!-- Node30 -->
<g id="node30" class="node">
<title>Node30</title>
<g id="a_node30"><a xlink:title=" ">
<polygon fill="none" stroke="#bfbfbf" points="554.5,-536 554.5,-555 661.5,-555 661.5,-536 554.5,-536"/>
<text text-anchor="middle" x="608" y="-543" font-family="Helvetica,sans-Serif" font-size="10.00">condition_variable</text>
</a>
</g>
</g>
<!-- Node30&#45;&gt;Node17 -->
<g id="edge37" class="edge">
<title>Node30&#45;&gt;Node17</title>
<path fill="none" stroke="#9a32cd" stroke-dasharray="5,2" d="M671.74,-542.72C710.99,-541.74 762.57,-541.86 808,-546.5 822.29,-547.96 837.81,-550.8 851.31,-553.68"/>
<polygon fill="#9a32cd" stroke="#9a32cd" points="671.42,-539.23 661.52,-543 671.61,-546.22 671.42,-539.23"/>
<text text-anchor="middle" x="747.5" y="-549.5" font-family="Helvetica,sans-Serif" font-size="10.00"> terminating</text>
</g>
<!-- Node31 -->
<g id="node31" class="node">
<title>Node31</title>
<g id="a_node31"><a xlink:title=" ">
<polygon fill="none" stroke="#bfbfbf" points="560,-431 560,-450 656,-450 656,-431 560,-431"/>
<text text-anchor="middle" x="608" y="-438" font-family="Helvetica,sans-Serif" font-size="10.00">event_router_t&lt;</text>
</a>
</g>
</g>
<!-- Node31&#45;&gt;Node17 -->
<g id="edge38" class="edge">
<title>Node31&#45;&gt;Node17</title>
<path fill="none" stroke="#9a32cd" stroke-dasharray="5,2" d="M644.25,-427.78C657.47,-423.63 672.75,-419.56 687,-417.5 740.23,-409.82 767.37,-382.26 808,-417.5 850.73,-454.56 789.28,-500.47 826,-543.5 832.46,-551.06 841.86,-555.67 851.37,-558.45"/>
<polygon fill="#9a32cd" stroke="#9a32cd" points="643,-424.5 634.59,-430.94 645.18,-431.16 643,-424.5"/>
<text text-anchor="middle" x="747.5" y="-530.5" font-family="Helvetica,sans-Serif" font-size="10.00"> on_autocomplete</text>
<text text-anchor="middle" x="747.5" y="-519.5" font-family="Helvetica,sans-Serif" font-size="10.00">on_button_click</text>
<text text-anchor="middle" x="747.5" y="-508.5" font-family="Helvetica,sans-Serif" font-size="10.00">on_channel_create</text>
<text text-anchor="middle" x="747.5" y="-497.5" font-family="Helvetica,sans-Serif" font-size="10.00">on_channel_delete</text>
<text text-anchor="middle" x="747.5" y="-486.5" font-family="Helvetica,sans-Serif" font-size="10.00">on_channel_pins_update</text>
<text text-anchor="middle" x="747.5" y="-475.5" font-family="Helvetica,sans-Serif" font-size="10.00">on_channel_update</text>
<text text-anchor="middle" x="747.5" y="-464.5" font-family="Helvetica,sans-Serif" font-size="10.00">on_form_submit</text>
<text text-anchor="middle" x="747.5" y="-453.5" font-family="Helvetica,sans-Serif" font-size="10.00">on_guild_ban_add</text>
<text text-anchor="middle" x="747.5" y="-442.5" font-family="Helvetica,sans-Serif" font-size="10.00">on_guild_ban_remove</text>
<text text-anchor="middle" x="747.5" y="-431.5" font-family="Helvetica,sans-Serif" font-size="10.00">on_guild_create</text>
<text text-anchor="middle" x="747.5" y="-420.5" font-family="Helvetica,sans-Serif" font-size="10.00">...</text>
</g>
<!-- Node32 -->
<g id="node32" class="node">
<title>Node32</title>
<g id="a_node32"><a xlink:title=" ">
<polygon fill="none" stroke="#bfbfbf" points="832,-515 832,-534 945,-534 945,-515 832,-515"/>
<text text-anchor="middle" x="888.5" y="-522" font-family="Helvetica,sans-Serif" font-size="10.00">native_handle_type</text>
</a>
</g>
</g>
<!-- Node32&#45;&gt;Node5 -->
<g id="edge41" class="edge">
<title>Node32&#45;&gt;Node5</title>
<path fill="none" stroke="#9a32cd" stroke-dasharray="5,2" d="M955.39,-529.74C998.4,-533.59 1055.71,-539.54 1106,-547.5 1115.58,-549.02 1125.82,-550.98 1135.46,-552.98"/>
<polygon fill="#9a32cd" stroke="#9a32cd" points="955.6,-526.24 945.33,-528.85 954.98,-533.21 955.6,-526.24"/>
<text text-anchor="middle" x="1037.5" y="-550.5" font-family="Helvetica,sans-Serif" font-size="10.00"> thread_id</text>
</g>
<!-- Node33 -->
<g id="node33" class="node">
<title>Node33</title>
<g id="a_node33"><a xlink:title=" ">
<polygon fill="none" stroke="#bfbfbf" points="854,-477 854,-496 923,-496 923,-477 854,-477"/>
<text text-anchor="middle" x="888.5" y="-484" font-family="Helvetica,sans-Serif" font-size="10.00">std::mutex</text>
</a>
</g>
</g>
<!-- Node33&#45;&gt;Node5 -->
<g id="edge44" class="edge">
<title>Node33&#45;&gt;Node5</title>
<path fill="none" stroke="#9a32cd" stroke-dasharray="5,2" d="M933.48,-487.04C978.21,-488.85 1048.88,-495.24 1106,-516.5 1129.13,-525.11 1152.48,-542.23 1165.8,-552.98"/>
<polygon fill="#9a32cd" stroke="#9a32cd" points="933.35,-483.53 923.24,-486.68 933.11,-490.53 933.35,-483.53"/>
<text text-anchor="middle" x="1037.5" y="-519.5" font-family="Helvetica,sans-Serif" font-size="10.00"> voice_mutex</text>
</g>
<!-- Node34 -->
<g id="node34" class="node">
<title>Node34</title>
<g id="a_node34"><a xlink:title=" ">
<polygon fill="none" stroke="#bfbfbf" points="838,-439 838,-458 939,-458 939,-439 838,-439"/>
<text text-anchor="middle" x="888.5" y="-446" font-family="Helvetica,sans-Serif" font-size="10.00">unordered_map&lt;</text>
</a>
</g>
</g>
<!-- Node34&#45;&gt;Node5 -->
<g id="edge47" class="edge">
<title>Node34&#45;&gt;Node5</title>
<path fill="none" stroke="#9a32cd" stroke-dasharray="5,2" d="M949.17,-444.33C994.84,-443.78 1057.93,-448.91 1106,-475.5 1139.1,-493.8 1162.81,-534.33 1172.35,-552.88"/>
<polygon fill="#9a32cd" stroke="#9a32cd" points="949.05,-440.84 939.13,-444.55 949.2,-447.83 949.05,-440.84"/>
<text text-anchor="middle" x="1037.5" y="-478.5" font-family="Helvetica,sans-Serif" font-size="10.00"> connecting_voice_channels</text>
</g>
<!-- Node35&#45;&gt;Node1 -->
<g id="edge48" class="edge">
<title>Node35&#45;&gt;Node1</title>
<path fill="none" stroke="#9a32cd" stroke-dasharray="5,2" d="M1377.18,-163.95C1416.34,-209 1519.84,-328.04 1550.09,-362.83"/>
<polygon fill="#9a32cd" stroke="#9a32cd" points="1379.65,-161.46 1370.44,-156.21 1374.36,-166.05 1379.65,-161.46"/>
<text text-anchor="middle" x="1455" y="-269.5" font-family="Helvetica,sans-Serif" font-size="10.00"> state</text>
</g>
<!-- Node36&#45;&gt;Node35 -->
<g id="edge49" class="edge">
<title>Node36&#45;&gt;Node35</title>
<path fill="none" stroke="midnightblue" d="M533.78,-12.96C589.92,-10.95 673.59,-8.5 746.5,-8.5 746.5,-8.5 746.5,-8.5 1179,-8.5 1226.51,-8.5 1242.25,-13 1281,-40.5 1318.06,-66.8 1345.05,-115.83 1355.38,-136.69"/>
<polygon fill="midnightblue" stroke="midnightblue" points="533.5,-9.46 523.63,-13.32 533.75,-16.46 533.5,-9.46"/>
</g>
</g>
</svg>
