<?xml version="1.0" encoding="UTF-8" standalone="no"?>
<!DOCTYPE svg PUBLIC "-//W3C//DTD SVG 1.1//EN"
 "http://www.w3.org/Graphics/SVG/1.1/DTD/svg11.dtd">
<!-- Generated by graphviz version 2.43.0 (0)
 -->
<!-- Title: dpp::sticker_pack Pages: 1 -->
<svg width="489pt" height="197pt"
 viewBox="0.00 0.00 489.06 197.00" xmlns="http://www.w3.org/2000/svg" xmlns:xlink="http://www.w3.org/1999/xlink">
<g id="graph0" class="graph" transform="scale(1 1) rotate(0) translate(4 193)">
<title>dpp::sticker_pack</title>
<polygon fill="white" stroke="transparent" points="-4,4 -4,-193 485.06,-193 485.06,4 -4,4"/>
<!-- Node1 -->
<g id="node1" class="node">
<title>Node1</title>
<g id="a_node1"><a xlink:title="Represents a sticker pack (the built in groups of stickers that all nitro users get to use)">
<polygon fill="#bfbfbf" stroke="black" points="207.56,-0.5 207.56,-19.5 308.56,-19.5 308.56,-0.5 207.56,-0.5"/>
<text text-anchor="middle" x="258.06" y="-7.5" font-family="Helvetica,sans-Serif" font-size="10.00">dpp::sticker_pack</text>
</a>
</g>
</g>
<!-- Node2 -->
<g id="node2" class="node">
<title>Node2</title>
<g id="a_node2"><a xlink:href="classdpp_1_1managed.html" target="_top" xlink:title="The managed class is the base class for various types that can be stored in a cache that are identifi...">
<polygon fill="white" stroke="black" points="99.06,-85 99.06,-104 185.06,-104 185.06,-85 99.06,-85"/>
<text text-anchor="middle" x="142.06" y="-92" font-family="Helvetica,sans-Serif" font-size="10.00">dpp::managed</text>
</a>
</g>
</g>
<!-- Node2&#45;&gt;Node1 -->
<g id="edge1" class="edge">
<title>Node2&#45;&gt;Node1</title>
<path fill="none" stroke="midnightblue" d="M162.49,-78.97C186.68,-61.76 226.19,-33.67 245.97,-19.6"/>
<polygon fill="midnightblue" stroke="midnightblue" points="160.16,-76.33 154.04,-84.98 164.22,-82.04 160.16,-76.33"/>
</g>
<!-- Node3 -->
<g id="node3" class="node">
<title>Node3</title>
<g id="a_node3"><a xlink:title=" ">
<polygon fill="white" stroke="#bfbfbf" points="15.06,-164 15.06,-183 71.06,-183 71.06,-164 15.06,-164"/>
<text text-anchor="middle" x="43.06" y="-171" font-family="Helvetica,sans-Serif" font-size="10.00">uint64_t</text>
</a>
</g>
</g>
<!-- Node3&#45;&gt;Node1 -->
<g id="edge7" class="edge">
<title>Node3&#45;&gt;Node1</title>
<path fill="none" stroke="#9a32cd" stroke-dasharray="5,2" d="M27.89,-156.21C11.11,-136.17 -11.28,-101.88 7.06,-78 31.31,-46.43 141.43,-26.55 207.49,-17.24"/>
<polygon fill="#9a32cd" stroke="#9a32cd" points="25.37,-158.65 34.6,-163.86 30.63,-154.03 25.37,-158.65"/>
<text text-anchor="middle" x="48.56" y="-103" font-family="Helvetica,sans-Serif" font-size="10.00"> banner_asset_id</text>
<text text-anchor="middle" x="48.56" y="-92" font-family="Helvetica,sans-Serif" font-size="10.00">cover_sticker_id</text>
<text text-anchor="middle" x="48.56" y="-81" font-family="Helvetica,sans-Serif" font-size="10.00">sku_id</text>
</g>
<!-- Node3&#45;&gt;Node2 -->
<g id="edge2" class="edge">
<title>Node3&#45;&gt;Node2</title>
<path fill="none" stroke="#9a32cd" stroke-dasharray="5,2" d="M62.02,-157.75C82.48,-141.84 114.36,-117.05 131.04,-104.07"/>
<polygon fill="#9a32cd" stroke="#9a32cd" points="59.78,-155.06 54.03,-163.97 64.08,-160.59 59.78,-155.06"/>
<text text-anchor="middle" x="105.56" y="-132" font-family="Helvetica,sans-Serif" font-size="10.00"> id</text>
</g>
<!-- Node4 -->
<g id="node4" class="node">
<title>Node4</title>
<g id="a_node4"><a xlink:href="structdpp_1_1json__interface.html" target="_top" xlink:title=" ">
<polygon fill="white" stroke="black" points="203.06,-79.5 203.06,-109.5 313.06,-109.5 313.06,-79.5 203.06,-79.5"/>
<text text-anchor="start" x="211.06" y="-97.5" font-family="Helvetica,sans-Serif" font-size="10.00">dpp::json_interface</text>
<text text-anchor="middle" x="258.06" y="-86.5" font-family="Helvetica,sans-Serif" font-size="10.00">&lt; sticker_pack &gt;</text>
</a>
</g>
</g>
<!-- Node4&#45;&gt;Node1 -->
<g id="edge3" class="edge">
<title>Node4&#45;&gt;Node1</title>
<path fill="none" stroke="midnightblue" d="M258.06,-68.95C258.06,-52.28 258.06,-31.23 258.06,-19.64"/>
<polygon fill="midnightblue" stroke="midnightblue" points="254.56,-69.13 258.06,-79.13 261.56,-69.13 254.56,-69.13"/>
</g>
<!-- Node5 -->
<g id="node5" class="node">
<title>Node5</title>
<g id="a_node5"><a xlink:title=" ">
<polygon fill="white" stroke="#bfbfbf" points="331.56,-85 331.56,-104 378.56,-104 378.56,-85 331.56,-85"/>
<text text-anchor="middle" x="355.06" y="-92" font-family="Helvetica,sans-Serif" font-size="10.00">map&lt;</text>
</a>
</g>
</g>
<!-- Node5&#45;&gt;Node1 -->
<g id="edge4" class="edge">
<title>Node5&#45;&gt;Node1</title>
<path fill="none" stroke="#9a32cd" stroke-dasharray="5,2" d="M337.17,-78.28C316.88,-61.02 284.49,-33.48 268.17,-19.6"/>
<polygon fill="#9a32cd" stroke="#9a32cd" points="335.16,-81.17 345.05,-84.98 339.7,-75.84 335.16,-81.17"/>
<text text-anchor="middle" x="336.56" y="-46.5" font-family="Helvetica,sans-Serif" font-size="10.00"> stickers</text>
</g>
<!-- Node6 -->
<g id="node6" class="node">
<title>Node6</title>
<g id="a_node6"><a xlink:title=" ">
<polygon fill="white" stroke="#bfbfbf" points="396.56,-85 396.56,-104 461.56,-104 461.56,-85 396.56,-85"/>
<text text-anchor="middle" x="429.06" y="-92" font-family="Helvetica,sans-Serif" font-size="10.00">std::string</text>
</a>
</g>
</g>
<!-- Node6&#45;&gt;Node1 -->
<g id="edge5" class="edge">
<title>Node6&#45;&gt;Node1</title>
<path fill="none" stroke="#9a32cd" stroke-dasharray="5,2" d="M413.54,-77.51C400.59,-65.04 381.08,-48.18 361.06,-38 344.58,-29.62 325.26,-23.67 307.83,-19.52"/>
<polygon fill="#9a32cd" stroke="#9a32cd" points="411.14,-80.05 420.7,-84.61 416.06,-75.08 411.14,-80.05"/>
<text text-anchor="middle" x="422.06" y="-52" font-family="Helvetica,sans-Serif" font-size="10.00"> description</text>
<text text-anchor="middle" x="422.06" y="-41" font-family="Helvetica,sans-Serif" font-size="10.00">name</text>
</g>
<!-- Node7 -->
<g id="node7" class="node">
<title>Node7</title>
<g id="a_node7"><a xlink:title=" ">
<polygon fill="white" stroke="#bfbfbf" points="377.06,-158.5 377.06,-188.5 481.06,-188.5 481.06,-158.5 377.06,-158.5"/>
<text text-anchor="start" x="385.06" y="-176.5" font-family="Helvetica,sans-Serif" font-size="10.00">std::basic_string&lt;</text>
<text text-anchor="middle" x="429.06" y="-165.5" font-family="Helvetica,sans-Serif" font-size="10.00"> Char &gt;</text>
</a>
</g>
</g>
<!-- Node7&#45;&gt;Node6 -->
<g id="edge6" class="edge">
<title>Node7&#45;&gt;Node6</title>
<path fill="none" stroke="midnightblue" d="M429.06,-148.21C429.06,-133.22 429.06,-114.88 429.06,-104.26"/>
<polygon fill="midnightblue" stroke="midnightblue" points="425.56,-148.38 429.06,-158.38 432.56,-148.38 425.56,-148.38"/>
</g>
</g>
</svg>
