<?xml version="1.0" encoding="UTF-8" standalone="no"?>
<!DOCTYPE svg PUBLIC "-//W3C//DTD SVG 1.1//EN"
 "http://www.w3.org/Graphics/SVG/1.1/DTD/svg11.dtd">
<!-- Generated by graphviz version 2.38.0 (20140413.2041)
 -->
<!-- Title: dpp::invite Pages: 1 -->
<svg width="484pt" height="218pt"
 viewBox="0.00 0.00 483.50 218.00" xmlns="http://www.w3.org/2000/svg" xmlns:xlink="http://www.w3.org/1999/xlink">
<g id="graph0" class="graph" transform="scale(1 1) rotate(0) translate(4 214)">
<title>dpp::invite</title>
<polygon fill="white" stroke="none" points="-4,4 -4,-214 479.5,-214 479.5,4 -4,4"/>
<!-- Node1 -->
<g id="node1" class="node"><title>Node1</title>
<g id="a_node1"><a xlink:title="Represents an invite to a discord guild or channel.">
<polygon fill="#bfbfbf" stroke="black" points="175.5,-0.5 175.5,-19.5 237.5,-19.5 237.5,-0.5 175.5,-0.5"/>
<text text-anchor="middle" x="206.5" y="-7.5" font-family="Helvetica,sans-Serif" font-size="10.00">dpp::invite</text>
</a>
</g>
</g>
<!-- Node2 -->
<g id="node2" class="node"><title>Node2</title>
<g id="a_node2"><a xlink:title=" ">
<polygon fill="white" stroke="#bfbfbf" points="17.5,-122.5 17.5,-141.5 77.5,-141.5 77.5,-122.5 17.5,-122.5"/>
<text text-anchor="middle" x="47.5" y="-129.5" font-family="Helvetica,sans-Serif" font-size="10.00">std::string</text>
</a>
</g>
</g>
<!-- Node2&#45;&gt;Node1 -->
<g id="edge1" class="edge"><title>Node2&#45;&gt;Node1</title>
<path fill="none" stroke="#9a32cd" stroke-dasharray="5,2" d="M51.4063,-112.505C56.8766,-91.2674 68.9146,-56.9304 92.5,-38 115.976,-19.1577 150.41,-13.0777 175.285,-11.3011"/>
<polygon fill="#9a32cd" stroke="#9a32cd" points="47.993,-111.73 49.1179,-122.265 54.8082,-113.328 47.993,-111.73"/>
<text text-anchor="middle" x="105" y="-68.5" font-family="Helvetica,sans-Serif" font-size="10.00"> code</text>
</g>
<!-- Node3 -->
<g id="node3" class="node"><title>Node3</title>
<g id="a_node3"><a xlink:title=" ">
<polygon fill="white" stroke="#bfbfbf" points="0,-179.5 0,-209.5 95,-209.5 95,-179.5 0,-179.5"/>
<text text-anchor="start" x="8" y="-197.5" font-family="Helvetica,sans-Serif" font-size="10.00">std::basic_string&lt;</text>
<text text-anchor="middle" x="47.5" y="-186.5" font-family="Helvetica,sans-Serif" font-size="10.00"> Char &gt;</text>
</a>
</g>
</g>
<!-- Node3&#45;&gt;Node2 -->
<g id="edge2" class="edge"><title>Node3&#45;&gt;Node2</title>
<path fill="none" stroke="midnightblue" d="M47.5,-169.352C47.5,-159.513 47.5,-148.775 47.5,-141.54"/>
<polygon fill="midnightblue" stroke="midnightblue" points="44.0001,-169.468 47.5,-179.468 51.0001,-169.468 44.0001,-169.468"/>
</g>
<!-- Node4 -->
<g id="node4" class="node"><title>Node4</title>
<g id="a_node4"><a xlink:title=" ">
<polygon fill="white" stroke="#bfbfbf" points="96,-122.5 96,-141.5 147,-141.5 147,-122.5 96,-122.5"/>
<text text-anchor="middle" x="121.5" y="-129.5" font-family="Helvetica,sans-Serif" font-size="10.00">uint64_t</text>
</a>
</g>
</g>
<!-- Node4&#45;&gt;Node1 -->
<g id="edge3" class="edge"><title>Node4&#45;&gt;Node1</title>
<path fill="none" stroke="#9a32cd" stroke-dasharray="5,2" d="M120.42,-112.204C120.257,-91.6959 123.103,-58.9932 140.5,-38 149.268,-27.4192 162.841,-20.9378 175.404,-16.9901"/>
<polygon fill="#9a32cd" stroke="#9a32cd" points="116.93,-112.563 120.762,-122.441 123.926,-112.33 116.93,-112.563"/>
<text text-anchor="middle" x="171.5" y="-85" font-family="Helvetica,sans-Serif" font-size="10.00"> channel_id</text>
<text text-anchor="middle" x="171.5" y="-74" font-family="Helvetica,sans-Serif" font-size="10.00">guild_id</text>
<text text-anchor="middle" x="171.5" y="-63" font-family="Helvetica,sans-Serif" font-size="10.00">inviter_id</text>
<text text-anchor="middle" x="171.5" y="-52" font-family="Helvetica,sans-Serif" font-size="10.00">target_user_id</text>
</g>
<!-- Node5 -->
<g id="node5" class="node"><title>Node5</title>
<g id="a_node5"><a xlink:title=" ">
<polygon fill="white" stroke="#bfbfbf" points="183.5,-122.5 183.5,-141.5 229.5,-141.5 229.5,-122.5 183.5,-122.5"/>
<text text-anchor="middle" x="206.5" y="-129.5" font-family="Helvetica,sans-Serif" font-size="10.00">uint8_t</text>
</a>
</g>
</g>
<!-- Node5&#45;&gt;Node1 -->
<g id="edge4" class="edge"><title>Node5&#45;&gt;Node1</title>
<path fill="none" stroke="#9a32cd" stroke-dasharray="5,2" d="M206.5,-112.145C206.5,-85.7231 206.5,-38.7637 206.5,-19.5519"/>
<polygon fill="#9a32cd" stroke="#9a32cd" points="203,-112.37 206.5,-122.37 210,-112.37 203,-112.37"/>
<text text-anchor="middle" x="244.5" y="-68.5" font-family="Helvetica,sans-Serif" font-size="10.00"> target_user_type</text>
</g>
<!-- Node6 -->
<g id="node6" class="node"><title>Node6</title>
<g id="a_node6"><a xlink:title=" ">
<polygon fill="white" stroke="#bfbfbf" points="280,-122.5 280,-141.5 331,-141.5 331,-122.5 280,-122.5"/>
<text text-anchor="middle" x="305.5" y="-129.5" font-family="Helvetica,sans-Serif" font-size="10.00">uint32_t</text>
</a>
</g>
</g>
<!-- Node6&#45;&gt;Node1 -->
<g id="edge5" class="edge"><title>Node6&#45;&gt;Node1</title>
<path fill="none" stroke="#9a32cd" stroke-dasharray="5,2" d="M306.088,-112.27C305.716,-91.5837 301.951,-58.4968 283.5,-38 271.842,-25.0498 253.612,-18.311 237.815,-14.8044"/>
<polygon fill="#9a32cd" stroke="#9a32cd" points="302.588,-112.304 306.018,-122.329 309.588,-112.353 302.588,-112.304"/>
<text text-anchor="start" x="306.5" y="-96" font-family="Helvetica,sans-Serif" font-size="10.00"> approximate_member</text>
<text text-anchor="middle" x="356" y="-85" font-family="Helvetica,sans-Serif" font-size="10.00">_count</text>
<text text-anchor="start" x="306.5" y="-74" font-family="Helvetica,sans-Serif" font-size="10.00">approximate_presence</text>
<text text-anchor="middle" x="356" y="-63" font-family="Helvetica,sans-Serif" font-size="10.00">_count</text>
<text text-anchor="middle" x="356" y="-52" font-family="Helvetica,sans-Serif" font-size="10.00">max_age</text>
<text text-anchor="middle" x="356" y="-41" font-family="Helvetica,sans-Serif" font-size="10.00">max_uses</text>
</g>
<!-- Node7 -->
<g id="node7" class="node"><title>Node7</title>
<g id="a_node7"><a xlink:title=" ">
<polygon fill="white" stroke="#bfbfbf" points="410,-122.5 410,-141.5 445,-141.5 445,-122.5 410,-122.5"/>
<text text-anchor="middle" x="427.5" y="-129.5" font-family="Helvetica,sans-Serif" font-size="10.00">bool</text>
</a>
</g>
</g>
<!-- Node7&#45;&gt;Node1 -->
<g id="edge6" class="edge"><title>Node7&#45;&gt;Node1</title>
<path fill="none" stroke="#9a32cd" stroke-dasharray="5,2" d="M428.808,-112.163C429.163,-90.8594 426.126,-56.7081 405.5,-38 381.483,-16.2161 287.315,-11.8338 237.613,-11.066"/>
<polygon fill="#9a32cd" stroke="#9a32cd" points="425.308,-112.098 428.371,-122.241 432.301,-112.402 425.308,-112.098"/>
<text text-anchor="middle" x="452" y="-74" font-family="Helvetica,sans-Serif" font-size="10.00"> temporary</text>
<text text-anchor="middle" x="452" y="-63" font-family="Helvetica,sans-Serif" font-size="10.00">unique</text>
</g>
</g>
</svg>
