<?xml version="1.0" encoding="UTF-8" standalone="no"?>
<!DOCTYPE svg PUBLIC "-//W3C//DTD SVG 1.1//EN"
 "http://www.w3.org/Graphics/SVG/1.1/DTD/svg11.dtd">
<!-- Generated by graphviz version 2.38.0 (20140413.2041)
 -->
<!-- Title: dpp::interaction Pages: 1 -->
<!--zoomable 288 -->
<svg id="main" version="1.1" xmlns="http://www.w3.org/2000/svg" xmlns:xlink="http://www.w3.org/1999/xlink" xml:space="preserve" onload="init(evt)">
<style type="text/css"><![CDATA[
.edge:hover path { stroke: red; }
.edge:hover polygon { stroke: red; fill: red; }
]]></style>
<script type="text/javascript"><![CDATA[
var edges = document.getElementsByTagName('g');
if (edges && edges.length) {
  for (var i=0;i<edges.length;i++) {
    if (edges[i].id.substr(0,4)=='edge') {
      edges[i].setAttribute('class','edge');
    }
  }
}
]]></script>
        <defs>
                <circle id="rim" cx="0" cy="0" r="7"/>
                <circle id="rim2" cx="0" cy="0" r="3.5"/>
                <g id="zoomPlus">
                        <use xlink:href="#rim" fill="#404040">
                                <set attributeName="fill" to="#808080" begin="zoomplus.mouseover" end="zoomplus.mouseout"/>
                        </use>
                        <path d="M-4,0h8M0,-4v8" fill="none" stroke="white" stroke-width="1.5" pointer-events="none"/>
                </g>
                <g id="zoomMin">
                        <use xlink:href="#rim" fill="#404040">
                                <set attributeName="fill" to="#808080" begin="zoomminus.mouseover" end="zoomminus.mouseout"/>
                        </use>
                        <path d="M-4,0h8" fill="none" stroke="white" stroke-width="1.5" pointer-events="none"/>
                </g>
                <g id="dirArrow">
                        <path fill="none" stroke="white" stroke-width="1.5" d="M0,-3.0v7 M-2.5,-0.5L0,-3.0L2.5,-0.5"/>
                </g>
               <g id="resetDef">
                       <use xlink:href="#rim2" fill="#404040">
                               <set attributeName="fill" to="#808080" begin="reset.mouseover" end="reset.mouseout"/>
                       </use>
               </g>
        </defs>

<script type="text/javascript">
var viewWidth = 869;
var viewHeight = 288;
var sectionId = 'dynsection-1';
</script>
<script xlink:href="svgpan.js"/>
<svg id="graph" class="graph">
<g id="viewport">
<title>dpp::interaction</title>
<polygon fill="white" stroke="none" points="-4,4 -4,-284 864.697,-284 864.697,4 -4,4"/>
<!-- Node1 -->
<g id="node1" class="node"><title>Node1</title>
<g id="a_node1"><a xlink:title="An interaction represents a user running a command and arrives via the dpp::cluster::on_interaction_c...">
<polygon fill="#bfbfbf" stroke="black" points="347.197,-0.5 347.197,-19.5 430.197,-19.5 430.197,-0.5 347.197,-0.5"/>
<text text-anchor="middle" x="388.697" y="-7.5" font-family="Helvetica,sans-Serif" font-size="10.00">dpp::interaction</text>
</a>
</g>
</g>
<!-- Node2 -->
<g id="node2" class="node"><title>Node2</title>
<g id="a_node2"><a xlink:href="classdpp_1_1managed.html" target="_top" xlink:title="The managed class is the base class for various types that can be stored in a cache that are identifi...">
<polygon fill="white" stroke="black" points="33.6969,-170.5 33.6969,-189.5 111.697,-189.5 111.697,-170.5 33.6969,-170.5"/>
<text text-anchor="middle" x="72.6969" y="-177.5" font-family="Helvetica,sans-Serif" font-size="10.00">dpp::managed</text>
</a>
</g>
</g>
<!-- Node2&#45;&gt;Node1 -->
<g id="edge1" class="edge"><title>Node2&#45;&gt;Node1</title>
<path fill="none" stroke="midnightblue" d="M76.297,-160.186C80.3286,-143.997 88.4095,-121.087 103.697,-107 173,-43.1376 286.258,-21.6062 347.035,-14.4607"/>
<polygon fill="midnightblue" stroke="midnightblue" points="72.84,-159.611 74.114,-170.129 79.6772,-161.112 72.84,-159.611"/>
</g>
<!-- Node11 -->
<g id="node11" class="node"><title>Node11</title>
<g id="a_node11"><a xlink:href="classdpp_1_1user.html" target="_top" xlink:title="Represents a user on discord. May or may not be a member of a dpp::guild.">
<polygon fill="white" stroke="black" points="252.197,-68.5 252.197,-87.5 309.197,-87.5 309.197,-68.5 252.197,-68.5"/>
<text text-anchor="middle" x="280.697" y="-75.5" font-family="Helvetica,sans-Serif" font-size="10.00">dpp::user</text>
</a>
</g>
</g>
<!-- Node2&#45;&gt;Node11 -->
<g id="edge14" class="edge"><title>Node2&#45;&gt;Node11</title>
<path fill="none" stroke="midnightblue" d="M89.2451,-163.563C93.6203,-159.48 98.338,-155.074 102.697,-151 123.601,-131.46 124.336,-120.252 149.697,-107 182.264,-89.9825 224.532,-83.3052 252.12,-80.6867"/>
<polygon fill="midnightblue" stroke="midnightblue" points="86.8147,-161.044 81.8911,-170.425 91.5904,-166.162 86.8147,-161.044"/>
</g>
<!-- Node3 -->
<g id="node3" class="node"><title>Node3</title>
<g id="a_node3"><a xlink:title=" ">
<polygon fill="white" stroke="#bfbfbf" points="171.197,-255 171.197,-274 222.197,-274 222.197,-255 171.197,-255"/>
<text text-anchor="middle" x="196.697" y="-262" font-family="Helvetica,sans-Serif" font-size="10.00">uint64_t</text>
</a>
</g>
</g>
<!-- Node3&#45;&gt;Node1 -->
<g id="edge3" class="edge"><title>Node3&#45;&gt;Node1</title>
<path fill="none" stroke="#9a32cd" stroke-dasharray="5,2" d="M161.095,-257.964C122.009,-250.008 60.1111,-231.557 24.6969,-191 -0.108025,-162.593 -8.89247,-137.921 12.6969,-107 51.1208,-51.9674 257.507,-24.4457 347.122,-14.948"/>
<polygon fill="#9a32cd" stroke="#9a32cd" points="160.513,-261.416 170.992,-259.854 161.826,-254.541 160.513,-261.416"/>
<text text-anchor="middle" x="44.1969" y="-143" font-family="Helvetica,sans-Serif" font-size="10.00"> application_id</text>
<text text-anchor="middle" x="44.1969" y="-132" font-family="Helvetica,sans-Serif" font-size="10.00">channel_id</text>
<text text-anchor="middle" x="44.1969" y="-121" font-family="Helvetica,sans-Serif" font-size="10.00">guild_id</text>
<text text-anchor="middle" x="44.1969" y="-110" font-family="Helvetica,sans-Serif" font-size="10.00">message_id</text>
</g>
<!-- Node3&#45;&gt;Node2 -->
<g id="edge2" class="edge"><title>Node3&#45;&gt;Node2</title>
<path fill="none" stroke="#9a32cd" stroke-dasharray="5,2" d="M175.541,-249.424C149.743,-232.261 106.95,-203.789 85.6161,-189.595"/>
<polygon fill="#9a32cd" stroke="#9a32cd" points="173.629,-252.356 183.894,-254.982 177.507,-246.528 173.629,-252.356"/>
<text text-anchor="middle" x="152.197" y="-217.5" font-family="Helvetica,sans-Serif" font-size="10.00"> id</text>
</g>
<!-- Node6 -->
<g id="node6" class="node"><title>Node6</title>
<g id="a_node6"><a xlink:href="classdpp_1_1guild__member.html" target="_top" xlink:title="Represents dpp::user membership upon a dpp::guild.">
<polygon fill="white" stroke="black" points="521.197,-68.5 521.197,-87.5 620.197,-87.5 620.197,-68.5 521.197,-68.5"/>
<text text-anchor="middle" x="570.697" y="-75.5" font-family="Helvetica,sans-Serif" font-size="10.00">dpp::guild_member</text>
</a>
</g>
</g>
<!-- Node3&#45;&gt;Node6 -->
<g id="edge9" class="edge"><title>Node3&#45;&gt;Node6</title>
<path fill="none" stroke="#9a32cd" stroke-dasharray="5,2" d="M232.561,-259.555C324.53,-248.586 564.507,-214.285 606.697,-151 617.544,-134.729 615.289,-124.567 606.697,-107 602.662,-98.7492 594.892,-92.2267 587.6,-87.5602"/>
<polygon fill="#9a32cd" stroke="#9a32cd" points="231.88,-256.111 222.355,-260.749 232.694,-263.064 231.88,-256.111"/>
<text text-anchor="middle" x="605.197" y="-183" font-family="Helvetica,sans-Serif" font-size="10.00"> guild_id</text>
<text text-anchor="middle" x="605.197" y="-172" font-family="Helvetica,sans-Serif" font-size="10.00">user_id</text>
</g>
<!-- Node13 -->
<g id="node13" class="node"><title>Node13</title>
<g id="a_node13"><a xlink:href="structdpp_1_1utility_1_1iconhash.html" target="_top" xlink:title="Store a 128 bit icon hash (profile picture, server icon etc) as a 128 bit binary value made of two ui...">
<polygon fill="white" stroke="black" points="268.197,-170.5 268.197,-189.5 375.197,-189.5 375.197,-170.5 268.197,-170.5"/>
<text text-anchor="middle" x="321.697" y="-177.5" font-family="Helvetica,sans-Serif" font-size="10.00">dpp::utility::iconhash</text>
</a>
</g>
</g>
<!-- Node3&#45;&gt;Node13 -->
<g id="edge18" class="edge"><title>Node3&#45;&gt;Node13</title>
<path fill="none" stroke="#9a32cd" stroke-dasharray="5,2" d="M218.024,-249.424C244.029,-232.261 287.168,-203.789 308.673,-189.595"/>
<polygon fill="#9a32cd" stroke="#9a32cd" points="216.021,-246.552 209.603,-254.982 219.877,-252.394 216.021,-246.552"/>
<text text-anchor="middle" x="293.697" y="-223" font-family="Helvetica,sans-Serif" font-size="10.00"> first</text>
<text text-anchor="middle" x="293.697" y="-212" font-family="Helvetica,sans-Serif" font-size="10.00">second</text>
</g>
<!-- Node4 -->
<g id="node4" class="node"><title>Node4</title>
<g id="a_node4"><a xlink:title=" ">
<polygon fill="white" stroke="#bfbfbf" points="393.697,-170.5 393.697,-189.5 439.697,-189.5 439.697,-170.5 393.697,-170.5"/>
<text text-anchor="middle" x="416.697" y="-177.5" font-family="Helvetica,sans-Serif" font-size="10.00">uint8_t</text>
</a>
</g>
</g>
<!-- Node4&#45;&gt;Node1 -->
<g id="edge4" class="edge"><title>Node4&#45;&gt;Node1</title>
<path fill="none" stroke="#9a32cd" stroke-dasharray="5,2" d="M413.58,-160.298C407.555,-124.148 394.52,-45.9363 390.155,-19.7463"/>
<polygon fill="#9a32cd" stroke="#9a32cd" points="410.173,-161.149 415.27,-170.438 417.078,-159.999 410.173,-161.149"/>
<text text-anchor="middle" x="417.697" y="-81" font-family="Helvetica,sans-Serif" font-size="10.00"> type</text>
<text text-anchor="middle" x="417.697" y="-70" font-family="Helvetica,sans-Serif" font-size="10.00">version</text>
</g>
<!-- Node4&#45;&gt;Node6 -->
<g id="edge12" class="edge"><title>Node4&#45;&gt;Node6</title>
<path fill="none" stroke="#9a32cd" stroke-dasharray="5,2" d="M416.454,-160.46C417.288,-144.083 421.212,-120.73 435.697,-107 447.944,-95.3909 487.654,-88.0759 520.859,-83.8465"/>
<polygon fill="#9a32cd" stroke="#9a32cd" points="412.955,-160.421 416.28,-170.48 419.954,-160.543 412.955,-160.421"/>
<text text-anchor="middle" x="448.197" y="-126.5" font-family="Helvetica,sans-Serif" font-size="10.00"> flags</text>
</g>
<!-- Node4&#45;&gt;Node11 -->
<g id="edge20" class="edge"><title>Node4&#45;&gt;Node11</title>
<path fill="none" stroke="#9a32cd" stroke-dasharray="5,2" d="M383.573,-168.824C362.941,-162.266 339.597,-154.359 335.697,-151 318.977,-136.6 326.344,-124.339 312.697,-107 306.944,-99.691 299.102,-92.7939 292.621,-87.6737"/>
<polygon fill="#9a32cd" stroke="#9a32cd" points="382.797,-172.248 393.387,-171.909 384.897,-165.571 382.797,-172.248"/>
<text text-anchor="middle" x="355.197" y="-126.5" font-family="Helvetica,sans-Serif" font-size="10.00"> refcount</text>
</g>
<!-- Node5 -->
<g id="node5" class="node"><title>Node5</title>
<g id="a_node5"><a xlink:title=" ">
<polygon fill="white" stroke="#bfbfbf" points="808.697,-68.5 808.697,-87.5 860.697,-87.5 860.697,-68.5 808.697,-68.5"/>
<text text-anchor="middle" x="834.697" y="-75.5" font-family="Helvetica,sans-Serif" font-size="10.00">variant&lt;</text>
</a>
</g>
</g>
<!-- Node5&#45;&gt;Node1 -->
<g id="edge5" class="edge"><title>Node5&#45;&gt;Node1</title>
<path fill="none" stroke="#9a32cd" stroke-dasharray="5,2" d="M817.466,-61.8743C806.563,-53.2508 791.729,-43.1612 776.697,-38 713.63,-16.3472 516.941,-12.0339 430.34,-11.1933"/>
<polygon fill="#9a32cd" stroke="#9a32cd" points="815.36,-64.6747 825.295,-68.3538 819.823,-59.2818 815.36,-64.6747"/>
<text text-anchor="middle" x="810.697" y="-41" font-family="Helvetica,sans-Serif" font-size="10.00"> data</text>
</g>
<!-- Node6&#45;&gt;Node1 -->
<g id="edge6" class="edge"><title>Node6&#45;&gt;Node1</title>
<path fill="none" stroke="#9a32cd" stroke-dasharray="5,2" d="M537.261,-64.875C500.994,-51.723 444.03,-31.066 412.208,-19.5259"/>
<polygon fill="#9a32cd" stroke="#9a32cd" points="536.309,-68.2528 546.904,-68.3717 538.696,-61.6721 536.309,-68.2528"/>
<text text-anchor="middle" x="510.197" y="-41" font-family="Helvetica,sans-Serif" font-size="10.00"> member</text>
</g>
<!-- Node7 -->
<g id="node7" class="node"><title>Node7</title>
<g id="a_node7"><a xlink:title=" ">
<polygon fill="white" stroke="#bfbfbf" points="649.697,-170.5 649.697,-189.5 709.697,-189.5 709.697,-170.5 649.697,-170.5"/>
<text text-anchor="middle" x="679.697" y="-177.5" font-family="Helvetica,sans-Serif" font-size="10.00">std::string</text>
</a>
</g>
</g>
<!-- Node7&#45;&gt;Node1 -->
<g id="edge21" class="edge"><title>Node7&#45;&gt;Node1</title>
<path fill="none" stroke="#9a32cd" stroke-dasharray="5,2" d="M719.586,-167.09C732.708,-162.309 744.92,-156.609 748.697,-151 759.62,-134.779 760.131,-122.864 748.697,-107 711.301,-55.1159 516.868,-26.1059 430.322,-15.5903"/>
<polygon fill="#9a32cd" stroke="#9a32cd" points="718.296,-163.832 709.977,-170.394 720.572,-170.452 718.296,-163.832"/>
<text text-anchor="middle" x="741.697" y="-75.5" font-family="Helvetica,sans-Serif" font-size="10.00"> token</text>
</g>
<!-- Node7&#45;&gt;Node6 -->
<g id="edge7" class="edge"><title>Node7&#45;&gt;Node6</title>
<path fill="none" stroke="#9a32cd" stroke-dasharray="5,2" d="M663.916,-162.679C660.687,-158.978 657.441,-154.966 654.697,-151 642.142,-132.854 647.695,-122.197 631.697,-107 622.573,-98.3325 610.29,-91.9948 599.138,-87.5638"/>
<polygon fill="#9a32cd" stroke="#9a32cd" points="661.42,-165.136 670.756,-170.145 666.581,-160.407 661.42,-165.136"/>
<text text-anchor="middle" x="677.697" y="-126.5" font-family="Helvetica,sans-Serif" font-size="10.00"> nickname</text>
</g>
<!-- Node7&#45;&gt;Node11 -->
<g id="edge15" class="edge"><title>Node7&#45;&gt;Node11</title>
<path fill="none" stroke="#9a32cd" stroke-dasharray="5,2" d="M639.839,-169.765C617.322,-164.131 591.727,-156.902 581.697,-151 557.861,-136.975 562.658,-118.908 537.697,-107 503.21,-90.5475 404.675,-93.2067 366.697,-89 347.574,-86.8818 326.074,-84.3818 309.355,-82.4113"/>
<polygon fill="#9a32cd" stroke="#9a32cd" points="639.027,-173.169 649.573,-172.152 640.694,-166.371 639.027,-173.169"/>
<text text-anchor="middle" x="604.697" y="-126.5" font-family="Helvetica,sans-Serif" font-size="10.00"> username</text>
</g>
<!-- Node8 -->
<g id="node8" class="node"><title>Node8</title>
<g id="a_node8"><a xlink:title=" ">
<polygon fill="white" stroke="#bfbfbf" points="632.197,-249.5 632.197,-279.5 727.197,-279.5 727.197,-249.5 632.197,-249.5"/>
<text text-anchor="start" x="640.197" y="-267.5" font-family="Helvetica,sans-Serif" font-size="10.00">std::basic_string&lt;</text>
<text text-anchor="middle" x="679.697" y="-256.5" font-family="Helvetica,sans-Serif" font-size="10.00"> Char &gt;</text>
</a>
</g>
</g>
<!-- Node8&#45;&gt;Node7 -->
<g id="edge8" class="edge"><title>Node8&#45;&gt;Node7</title>
<path fill="none" stroke="midnightblue" d="M679.697,-238.951C679.697,-222.281 679.697,-201.234 679.697,-189.644"/>
<polygon fill="midnightblue" stroke="midnightblue" points="676.197,-239.13 679.697,-249.13 683.197,-239.13 676.197,-239.13"/>
</g>
<!-- Node9 -->
<g id="node9" class="node"><title>Node9</title>
<g id="a_node9"><a xlink:title=" ">
<polygon fill="white" stroke="#bfbfbf" points="727.697,-170.5 727.697,-189.5 777.697,-189.5 777.697,-170.5 727.697,-170.5"/>
<text text-anchor="middle" x="752.697" y="-177.5" font-family="Helvetica,sans-Serif" font-size="10.00">vector&lt;</text>
</a>
</g>
</g>
<!-- Node9&#45;&gt;Node6 -->
<g id="edge10" class="edge"><title>Node9&#45;&gt;Node6</title>
<path fill="none" stroke="#9a32cd" stroke-dasharray="5,2" d="M744.53,-161.075C735.995,-144.427 721.007,-120.27 700.697,-107 676.924,-91.468 645.985,-84.3975 620.254,-81.243"/>
<polygon fill="#9a32cd" stroke="#9a32cd" points="741.492,-162.831 749.001,-170.306 747.792,-159.78 741.492,-162.831"/>
<text text-anchor="middle" x="751.197" y="-126.5" font-family="Helvetica,sans-Serif" font-size="10.00"> roles</text>
</g>
<!-- Node10 -->
<g id="node10" class="node"><title>Node10</title>
<g id="a_node10"><a xlink:title=" ">
<polygon fill="white" stroke="#bfbfbf" points="457.697,-170.5 457.697,-189.5 501.697,-189.5 501.697,-170.5 457.697,-170.5"/>
<text text-anchor="middle" x="479.697" y="-177.5" font-family="Helvetica,sans-Serif" font-size="10.00">time_t</text>
</a>
</g>
</g>
<!-- Node10&#45;&gt;Node6 -->
<g id="edge11" class="edge"><title>Node10&#45;&gt;Node6</title>
<path fill="none" stroke="#9a32cd" stroke-dasharray="5,2" d="M470.993,-161.247C464.628,-145.437 458.957,-122.479 470.697,-107 482.518,-91.4145 502.282,-84.0105 521.132,-80.6525"/>
<polygon fill="#9a32cd" stroke="#9a32cd" points="467.829,-162.746 475.1,-170.453 474.222,-159.894 467.829,-162.746"/>
<text text-anchor="middle" x="504.197" y="-132" font-family="Helvetica,sans-Serif" font-size="10.00"> joined_at</text>
<text text-anchor="middle" x="504.197" y="-121" font-family="Helvetica,sans-Serif" font-size="10.00">premium_since</text>
</g>
<!-- Node11&#45;&gt;Node1 -->
<g id="edge13" class="edge"><title>Node11&#45;&gt;Node1</title>
<path fill="none" stroke="#9a32cd" stroke-dasharray="5,2" d="M303.625,-62.9883C325.11,-49.8584 356.543,-30.6498 374.574,-19.6305"/>
<polygon fill="#9a32cd" stroke="#9a32cd" points="301.524,-60.1706 294.816,-68.3717 305.174,-66.1436 301.524,-60.1706"/>
<text text-anchor="middle" x="353.197" y="-41" font-family="Helvetica,sans-Serif" font-size="10.00"> usr</text>
</g>
<!-- Node12 -->
<g id="node12" class="node"><title>Node12</title>
<g id="a_node12"><a xlink:title=" ">
<polygon fill="white" stroke="#bfbfbf" points="130.197,-170.5 130.197,-189.5 181.197,-189.5 181.197,-170.5 130.197,-170.5"/>
<text text-anchor="middle" x="155.697" y="-177.5" font-family="Helvetica,sans-Serif" font-size="10.00">uint16_t</text>
</a>
</g>
</g>
<!-- Node12&#45;&gt;Node11 -->
<g id="edge16" class="edge"><title>Node12&#45;&gt;Node11</title>
<path fill="none" stroke="#9a32cd" stroke-dasharray="5,2" d="M153.232,-159.8C152.294,-143.692 153.787,-121.117 166.697,-107 178.044,-94.5926 222.122,-86.5474 252.025,-82.3955"/>
<polygon fill="#9a32cd" stroke="#9a32cd" points="149.787,-160.547 154.217,-170.172 156.756,-159.886 149.787,-160.547"/>
<text text-anchor="middle" x="196.197" y="-126.5" font-family="Helvetica,sans-Serif" font-size="10.00"> discriminator</text>
</g>
<!-- Node13&#45;&gt;Node11 -->
<g id="edge17" class="edge"><title>Node13&#45;&gt;Node11</title>
<path fill="none" stroke="#9a32cd" stroke-dasharray="5,2" d="M293.785,-164.718C288.936,-160.937 284.543,-156.375 281.697,-151 270.816,-130.451 275.218,-101.754 278.44,-87.5966"/>
<polygon fill="#9a32cd" stroke="#9a32cd" points="291.929,-167.688 302.184,-170.353 295.829,-161.875 291.929,-167.688"/>
<text text-anchor="middle" x="297.197" y="-126.5" font-family="Helvetica,sans-Serif" font-size="10.00"> avatar</text>
</g>
<!-- Node14 -->
<g id="node14" class="node"><title>Node14</title>
<g id="a_node14"><a xlink:title=" ">
<polygon fill="white" stroke="#bfbfbf" points="199.197,-170.5 199.197,-189.5 250.197,-189.5 250.197,-170.5 199.197,-170.5"/>
<text text-anchor="middle" x="224.697" y="-177.5" font-family="Helvetica,sans-Serif" font-size="10.00">uint32_t</text>
</a>
</g>
</g>
<!-- Node14&#45;&gt;Node11 -->
<g id="edge19" class="edge"><title>Node14&#45;&gt;Node11</title>
<path fill="none" stroke="#9a32cd" stroke-dasharray="5,2" d="M227.387,-160.024C230.257,-144.698 235.931,-123.106 246.697,-107 251.881,-99.244 259.846,-92.5213 266.764,-87.6085"/>
<polygon fill="#9a32cd" stroke="#9a32cd" points="223.862,-159.894 225.702,-170.328 230.77,-161.024 223.862,-159.894"/>
<text text-anchor="middle" x="259.197" y="-126.5" font-family="Helvetica,sans-Serif" font-size="10.00"> flags</text>
</g>
</g>
</svg>
        <g id="navigator" transform="translate(0 0)" fill="#404254">
                <rect fill="#f2f5e9" fill-opacity="0.5" stroke="#606060" stroke-width=".5" x="0" y="0" width="60" height="60"/>
                <use id="zoomplus" xlink:href="#zoomPlus" x="17" y="9" onmousedown="handleZoom(evt,'in')"/>
                <use id="zoomminus" xlink:href="#zoomMin" x="42" y="9" onmousedown="handleZoom(evt,'out')"/>
                <use id="reset" xlink:href="#resetDef" x="30" y="36" onmousedown="handleReset()"/>
                <g id="arrowUp" xlink:href="#dirArrow" transform="translate(30 24)" onmousedown="handlePan(0,-1)">
                  <use xlink:href="#rim" fill="#404040">
                        <set attributeName="fill" to="#808080" begin="arrowUp.mouseover" end="arrowUp.mouseout"/>
                  </use>
                  <path fill="none" stroke="white" stroke-width="1.5" d="M0,-3.0v7 M-2.5,-0.5L0,-3.0L2.5,-0.5"/>
                </g>
                <g id="arrowRight" xlink:href="#dirArrow" transform="rotate(90) translate(36 -43)" onmousedown="handlePan(1,0)">
                  <use xlink:href="#rim" fill="#404040">
                        <set attributeName="fill" to="#808080" begin="arrowRight.mouseover" end="arrowRight.mouseout"/>
                  </use>
                  <path fill="none" stroke="white" stroke-width="1.5" d="M0,-3.0v7 M-2.5,-0.5L0,-3.0L2.5,-0.5"/>
                </g>
                <g id="arrowDown" xlink:href="#dirArrow" transform="rotate(180) translate(-30 -48)" onmousedown="handlePan(0,1)">
                  <use xlink:href="#rim" fill="#404040">
                        <set attributeName="fill" to="#808080" begin="arrowDown.mouseover" end="arrowDown.mouseout"/>
                  </use>
                  <path fill="none" stroke="white" stroke-width="1.5" d="M0,-3.0v7 M-2.5,-0.5L0,-3.0L2.5,-0.5"/>
                </g>
                <g id="arrowLeft" xlink:href="#dirArrow" transform="rotate(270) translate(-36 17)" onmousedown="handlePan(-1,0)">
                  <use xlink:href="#rim" fill="#404040">
                        <set attributeName="fill" to="#808080" begin="arrowLeft.mouseover" end="arrowLeft.mouseout"/>
                  </use>
                  <path fill="none" stroke="white" stroke-width="1.5" d="M0,-3.0v7 M-2.5,-0.5L0,-3.0L2.5,-0.5"/>
                </g>
        </g>
        <svg viewBox="0 0 15 15" width="100%" height="30px" preserveAspectRatio="xMaxYMin meet">
         <g id="arrow_out" transform="scale(0.3 0.3)">
          <a xlink:href="classdpp_1_1interaction__coll__graph_org.svg" target="_base">
           <rect id="button" ry="5" rx="5" y="6" x="6" height="38" width="38"
                fill="#f2f5e9" fill-opacity="0.5" stroke="#606060" stroke-width="1.0"/>
           <path id="arrow"
             d="M 11.500037,31.436501 C 11.940474,20.09759 22.043105,11.32322 32.158766,21.979434 L 37.068811,17.246167 C 37.068811,17.246167 37.088388,32 37.088388,32 L 22.160133,31.978069 C 22.160133,31.978069 26.997745,27.140456 26.997745,27.140456 C 18.528582,18.264221 13.291696,25.230495 11.500037,31.436501 z"
             style="fill:#404040;"/>
          </a>
         </g>
        </svg>
</svg>
