<?xml version="1.0" encoding="UTF-8" standalone="no"?>
<!DOCTYPE svg PUBLIC "-//W3C//DTD SVG 1.1//EN"
 "http://www.w3.org/Graphics/SVG/1.1/DTD/svg11.dtd">
<!-- Generated by graphviz version 2.38.0 (20140413.2041)
 -->
<!-- Title: dpp::commandhandler Pages: 1 -->
<!--zoomable 630 -->
<svg id="main" version="1.1" xmlns="http://www.w3.org/2000/svg" xmlns:xlink="http://www.w3.org/1999/xlink" xml:space="preserve" onload="init(evt)">
<style type="text/css"><![CDATA[
.edge:hover path { stroke: red; }
.edge:hover polygon { stroke: red; fill: red; }
]]></style>
<script type="text/javascript"><![CDATA[
var edges = document.getElementsByTagName('g');
if (edges && edges.length) {
  for (var i=0;i<edges.length;i++) {
    if (edges[i].id.substr(0,4)=='edge') {
      edges[i].setAttribute('class','edge');
    }
  }
}
]]></script>
        <defs>
                <circle id="rim" cx="0" cy="0" r="7"/>
                <circle id="rim2" cx="0" cy="0" r="3.5"/>
                <g id="zoomPlus">
                        <use xlink:href="#rim" fill="#404040">
                                <set attributeName="fill" to="#808080" begin="zoomplus.mouseover" end="zoomplus.mouseout"/>
                        </use>
                        <path d="M-4,0h8M0,-4v8" fill="none" stroke="white" stroke-width="1.5" pointer-events="none"/>
                </g>
                <g id="zoomMin">
                        <use xlink:href="#rim" fill="#404040">
                                <set attributeName="fill" to="#808080" begin="zoomminus.mouseover" end="zoomminus.mouseout"/>
                        </use>
                        <path d="M-4,0h8" fill="none" stroke="white" stroke-width="1.5" pointer-events="none"/>
                </g>
                <g id="dirArrow">
                        <path fill="none" stroke="white" stroke-width="1.5" d="M0,-3.0v7 M-2.5,-0.5L0,-3.0L2.5,-0.5"/>
                </g>
               <g id="resetDef">
                       <use xlink:href="#rim2" fill="#404040">
                               <set attributeName="fill" to="#808080" begin="reset.mouseover" end="reset.mouseout"/>
                       </use>
               </g>
        </defs>

<script type="text/javascript">
var viewWidth = 979;
var viewHeight = 630;
var sectionId = 'dynsection-0';
</script>
<script xlink:href="svgpan.js"/>
<svg id="graph" class="graph">
<g id="viewport">
<title>dpp::commandhandler</title>
<polygon fill="white" stroke="none" points="-4,4 -4,-626 975,-626 975,4 -4,4"/>
<!-- Node1 -->
<g id="node1" class="node"><title>Node1</title>
<g id="a_node1"><a xlink:title="The commandhandler class represents a group of commands, prefixed or slash commands with handling fun...">
<polygon fill="#bfbfbf" stroke="black" points="858,-526.5 858,-545.5 971,-545.5 971,-526.5 858,-526.5"/>
<text text-anchor="middle" x="914.5" y="-533.5" font-family="Helvetica,sans-Serif" font-size="10.00">dpp::commandhandler</text>
</a>
</g>
</g>
<!-- Node2 -->
<g id="node2" class="node"><title>Node2</title>
<g id="a_node2"><a xlink:title=" ">
<polygon fill="white" stroke="#bfbfbf" points="614,-602.5 614,-621.5 703,-621.5 703,-602.5 614,-602.5"/>
<text text-anchor="middle" x="658.5" y="-609.5" font-family="Helvetica,sans-Serif" font-size="10.00">unordered_map&lt;</text>
</a>
</g>
</g>
<!-- Node2&#45;&gt;Node1 -->
<g id="edge1" class="edge"><title>Node2&#45;&gt;Node1</title>
<path fill="none" stroke="#9a32cd" stroke-dasharray="5,2" d="M712.999,-608.16C749.671,-604.25 798.924,-596.449 840,-581 863.247,-572.257 887.25,-555.931 901.254,-545.533"/>
<polygon fill="#9a32cd" stroke="#9a32cd" points="712.608,-604.681 703.007,-609.162 713.306,-611.647 712.608,-604.681"/>
<text text-anchor="middle" x="780.5" y="-610" font-family="Helvetica,sans-Serif" font-size="10.00"> commands</text>
</g>
<!-- Node3 -->
<g id="node3" class="node"><title>Node3</title>
<g id="a_node3"><a xlink:title=" ">
<polygon fill="white" stroke="#bfbfbf" points="633.5,-564.5 633.5,-583.5 683.5,-583.5 683.5,-564.5 633.5,-564.5"/>
<text text-anchor="middle" x="658.5" y="-571.5" font-family="Helvetica,sans-Serif" font-size="10.00">vector&lt;</text>
</a>
</g>
</g>
<!-- Node3&#45;&gt;Node1 -->
<g id="edge2" class="edge"><title>Node3&#45;&gt;Node1</title>
<path fill="none" stroke="#9a32cd" stroke-dasharray="5,2" d="M693.598,-570.422C729.973,-566.427 789.225,-559.404 840,-551 849.636,-549.405 859.935,-547.457 869.681,-545.5"/>
<polygon fill="#9a32cd" stroke="#9a32cd" points="693.089,-566.957 683.525,-571.515 693.844,-573.916 693.089,-566.957"/>
<text text-anchor="middle" x="780.5" y="-569" font-family="Helvetica,sans-Serif" font-size="10.00"> prefixes</text>
</g>
<!-- Node4 -->
<g id="node4" class="node"><title>Node4</title>
<g id="a_node4"><a xlink:title=" ">
<polygon fill="white" stroke="#bfbfbf" points="641,-526.5 641,-545.5 676,-545.5 676,-526.5 641,-526.5"/>
<text text-anchor="middle" x="658.5" y="-533.5" font-family="Helvetica,sans-Serif" font-size="10.00">bool</text>
</a>
</g>
</g>
<!-- Node4&#45;&gt;Node1 -->
<g id="edge3" class="edge"><title>Node4&#45;&gt;Node1</title>
<path fill="none" stroke="#9a32cd" stroke-dasharray="5,2" d="M686.336,-536C726.9,-536 804.725,-536 857.867,-536"/>
<polygon fill="#9a32cd" stroke="#9a32cd" points="686.166,-532.5 676.166,-536 686.166,-539.5 686.166,-532.5"/>
<text text-anchor="middle" x="780.5" y="-539" font-family="Helvetica,sans-Serif" font-size="10.00"> slash_commands_enabled</text>
</g>
<!-- Node5 -->
<g id="node5" class="node"><title>Node5</title>
<g id="a_node5"><a xlink:href="classdpp_1_1cluster.html" target="_top" xlink:title="The cluster class represents a group of shards and a command queue for sending and receiving commands...">
<polygon fill="white" stroke="black" points="624.5,-202.5 624.5,-221.5 692.5,-221.5 692.5,-202.5 624.5,-202.5"/>
<text text-anchor="middle" x="658.5" y="-209.5" font-family="Helvetica,sans-Serif" font-size="10.00">dpp::cluster</text>
</a>
</g>
</g>
<!-- Node5&#45;&gt;Node1 -->
<g id="edge4" class="edge"><title>Node5&#45;&gt;Node1</title>
<path fill="none" stroke="#9a32cd" stroke-dasharray="5,2" d="M673.456,-229.802C720.218,-289.451 870.425,-481.054 905.928,-526.341"/>
<polygon fill="#9a32cd" stroke="#9a32cd" points="676.026,-227.407 667.102,-221.697 670.517,-231.726 676.026,-227.407"/>
<text text-anchor="middle" x="780.5" y="-444" font-family="Helvetica,sans-Serif" font-size="10.00"> owner</text>
</g>
<!-- Node6 -->
<g id="node6" class="node"><title>Node6</title>
<g id="a_node6"><a xlink:title=" ">
<polygon fill="white" stroke="#bfbfbf" points="191,-182.5 191,-201.5 251,-201.5 251,-182.5 191,-182.5"/>
<text text-anchor="middle" x="221" y="-189.5" font-family="Helvetica,sans-Serif" font-size="10.00">std::string</text>
</a>
</g>
</g>
<!-- Node6&#45;&gt;Node5 -->
<g id="edge5" class="edge"><title>Node6&#45;&gt;Node5</title>
<path fill="none" stroke="#9a32cd" stroke-dasharray="5,2" d="M261.25,-193.803C346.069,-197.698 545.171,-206.841 624.262,-210.474"/>
<polygon fill="#9a32cd" stroke="#9a32cd" points="261.401,-190.306 251.251,-193.343 261.079,-197.298 261.401,-190.306"/>
<text text-anchor="middle" x="465" y="-209" font-family="Helvetica,sans-Serif" font-size="10.00"> token</text>
</g>
<!-- Node13 -->
<g id="node13" class="node"><title>Node13</title>
<g id="a_node13"><a xlink:href="classdpp_1_1user.html" target="_top" xlink:title="Represents a user on discord. May or may not be a member of a dpp::guild.">
<polygon fill="white" stroke="black" points="436.5,-270.5 436.5,-289.5 493.5,-289.5 493.5,-270.5 436.5,-270.5"/>
<text text-anchor="middle" x="465" y="-277.5" font-family="Helvetica,sans-Serif" font-size="10.00">dpp::user</text>
</a>
</g>
</g>
<!-- Node6&#45;&gt;Node13 -->
<g id="edge15" class="edge"><title>Node6&#45;&gt;Node13</title>
<path fill="none" stroke="#9a32cd" stroke-dasharray="5,2" d="M261.089,-198.654C296.898,-205.561 350.883,-218.041 395,-237 415.749,-245.917 437.515,-260.485 450.921,-270.156"/>
<polygon fill="#9a32cd" stroke="#9a32cd" points="261.517,-195.173 251.043,-196.771 260.227,-202.054 261.517,-195.173"/>
<text text-anchor="middle" x="346" y="-240" font-family="Helvetica,sans-Serif" font-size="10.00"> username</text>
</g>
<!-- Node7 -->
<g id="node7" class="node"><title>Node7</title>
<g id="a_node7"><a xlink:title=" ">
<polygon fill="white" stroke="#bfbfbf" points="0,-177 0,-207 95,-207 95,-177 0,-177"/>
<text text-anchor="start" x="8" y="-195" font-family="Helvetica,sans-Serif" font-size="10.00">std::basic_string&lt;</text>
<text text-anchor="middle" x="47.5" y="-184" font-family="Helvetica,sans-Serif" font-size="10.00"> Char &gt;</text>
</a>
</g>
</g>
<!-- Node7&#45;&gt;Node6 -->
<g id="edge6" class="edge"><title>Node7&#45;&gt;Node6</title>
<path fill="none" stroke="midnightblue" d="M105.658,-192C134.266,-192 167.668,-192 190.956,-192"/>
<polygon fill="midnightblue" stroke="midnightblue" points="105.363,-188.5 95.3631,-192 105.363,-195.5 105.363,-188.5"/>
</g>
<!-- Node8 -->
<g id="node8" class="node"><title>Node8</title>
<g id="a_node8"><a xlink:title=" ">
<polygon fill="white" stroke="#bfbfbf" points="443,-123.5 443,-142.5 487,-142.5 487,-123.5 443,-123.5"/>
<text text-anchor="middle" x="465" y="-130.5" font-family="Helvetica,sans-Serif" font-size="10.00">time_t</text>
</a>
</g>
</g>
<!-- Node8&#45;&gt;Node5 -->
<g id="edge7" class="edge"><title>Node8&#45;&gt;Node5</title>
<path fill="none" stroke="#9a32cd" stroke-dasharray="5,2" d="M497.586,-132.975C524.929,-134.118 564.865,-138.647 596,-154 619.43,-165.554 640.01,-189.081 650.376,-202.346"/>
<polygon fill="#9a32cd" stroke="#9a32cd" points="497.51,-129.472 487.413,-132.682 497.308,-136.469 497.51,-129.472"/>
<text text-anchor="middle" x="565.5" y="-157" font-family="Helvetica,sans-Serif" font-size="10.00"> last_identify</text>
</g>
<!-- Node9 -->
<g id="node9" class="node"><title>Node9</title>
<g id="a_node9"><a xlink:title=" ">
<polygon fill="white" stroke="#bfbfbf" points="195.5,-384.5 195.5,-403.5 246.5,-403.5 246.5,-384.5 195.5,-384.5"/>
<text text-anchor="middle" x="221" y="-391.5" font-family="Helvetica,sans-Serif" font-size="10.00">uint32_t</text>
</a>
</g>
</g>
<!-- Node9&#45;&gt;Node5 -->
<g id="edge8" class="edge"><title>Node9&#45;&gt;Node5</title>
<path fill="none" stroke="#9a32cd" stroke-dasharray="5,2" d="M256.991,-396.862C292.511,-398.692 348.715,-398.602 395,-385 493.746,-355.981 513.318,-331.291 596,-270 616.279,-254.967 637.07,-233.953 648.531,-221.78"/>
<polygon fill="#9a32cd" stroke="#9a32cd" points="256.856,-393.348 246.665,-396.246 256.439,-400.336 256.856,-393.348"/>
<text text-anchor="middle" x="465" y="-416" font-family="Helvetica,sans-Serif" font-size="10.00"> cluster_id</text>
<text text-anchor="middle" x="465" y="-405" font-family="Helvetica,sans-Serif" font-size="10.00">intents</text>
<text text-anchor="middle" x="465" y="-394" font-family="Helvetica,sans-Serif" font-size="10.00">maxclusters</text>
<text text-anchor="middle" x="465" y="-383" font-family="Helvetica,sans-Serif" font-size="10.00">numshards</text>
</g>
<!-- Node9&#45;&gt;Node13 -->
<g id="edge19" class="edge"><title>Node9&#45;&gt;Node13</title>
<path fill="none" stroke="#9a32cd" stroke-dasharray="5,2" d="M256.409,-384.741C269.152,-381.334 283.727,-377.463 297,-374 340.495,-362.653 355.937,-371.241 395,-349 422.089,-333.577 445.883,-304.679 457.124,-289.644"/>
<polygon fill="#9a32cd" stroke="#9a32cd" points="255.395,-381.389 246.641,-387.357 257.206,-388.15 255.395,-381.389"/>
<text text-anchor="middle" x="346" y="-377" font-family="Helvetica,sans-Serif" font-size="10.00"> flags</text>
</g>
<!-- Node10 -->
<g id="node10" class="node"><title>Node10</title>
<g id="a_node10"><a xlink:title=" ">
<polygon fill="white" stroke="#bfbfbf" points="442.5,-85.5 442.5,-104.5 487.5,-104.5 487.5,-85.5 442.5,-85.5"/>
<text text-anchor="middle" x="465" y="-92.5" font-family="Helvetica,sans-Serif" font-size="10.00">double</text>
</a>
</g>
</g>
<!-- Node10&#45;&gt;Node5 -->
<g id="edge9" class="edge"><title>Node10&#45;&gt;Node5</title>
<path fill="none" stroke="#9a32cd" stroke-dasharray="5,2" d="M497.728,-95.0817C525.738,-96.5815 566.579,-102.384 596,-122 626.546,-142.367 646.114,-183.55 653.801,-202.304"/>
<polygon fill="#9a32cd" stroke="#9a32cd" points="497.798,-91.582 487.672,-94.6977 497.531,-98.5769 497.798,-91.582"/>
<text text-anchor="middle" x="565.5" y="-125" font-family="Helvetica,sans-Serif" font-size="10.00"> rest_ping</text>
</g>
<!-- Node11 -->
<g id="node11" class="node"><title>Node11</title>
<g id="a_node11"><a xlink:href="classdpp_1_1dispatcher.html" target="_top" xlink:title="The dispatcher class contains a set of std::functions representing hooked events that the user code i...">
<polygon fill="white" stroke="black" points="423.5,-24.5 423.5,-43.5 506.5,-43.5 506.5,-24.5 423.5,-24.5"/>
<text text-anchor="middle" x="465" y="-31.5" font-family="Helvetica,sans-Serif" font-size="10.00">dpp::dispatcher</text>
</a>
</g>
</g>
<!-- Node11&#45;&gt;Node5 -->
<g id="edge10" class="edge"><title>Node11&#45;&gt;Node5</title>
<path fill="none" stroke="#9a32cd" stroke-dasharray="5,2" d="M516.36,-44.3802C542.678,-51.9453 573.914,-64.5545 596,-85 632.494,-118.783 649.782,-178.846 655.376,-202.268"/>
<polygon fill="#9a32cd" stroke="#9a32cd" points="517.111,-40.9575 506.544,-41.7219 515.281,-47.7142 517.111,-40.9575"/>
<text text-anchor="middle" x="565.5" y="-88" font-family="Helvetica,sans-Serif" font-size="10.00"> dispatch</text>
</g>
<!-- Node12 -->
<g id="node12" class="node"><title>Node12</title>
<g id="a_node12"><a xlink:title=" ">
<polygon fill="white" stroke="#bfbfbf" points="192.5,-0.5 192.5,-19.5 249.5,-19.5 249.5,-0.5 192.5,-0.5"/>
<text text-anchor="middle" x="221" y="-7.5" font-family="Helvetica,sans-Serif" font-size="10.00">function&lt;</text>
</a>
</g>
</g>
<!-- Node12&#45;&gt;Node11 -->
<g id="edge11" class="edge"><title>Node12&#45;&gt;Node11</title>
<path fill="none" stroke="#9a32cd" stroke-dasharray="5,2" d="M260.11,-6.79858C295.358,-4.64393 349.078,-3.41153 395,-11 410.947,-13.6351 428.197,-19.3851 441.46,-24.4763"/>
<polygon fill="#9a32cd" stroke="#9a32cd" points="259.537,-3.32896 249.792,-7.48813 260.004,-10.3134 259.537,-3.32896"/>
<text text-anchor="start" x="297" y="-157" font-family="Helvetica,sans-Serif" font-size="10.00"> application_command</text>
<text text-anchor="middle" x="346" y="-146" font-family="Helvetica,sans-Serif" font-size="10.00">_create</text>
<text text-anchor="start" x="297" y="-135" font-family="Helvetica,sans-Serif" font-size="10.00">application_command</text>
<text text-anchor="middle" x="346" y="-124" font-family="Helvetica,sans-Serif" font-size="10.00">_delete</text>
<text text-anchor="start" x="297" y="-113" font-family="Helvetica,sans-Serif" font-size="10.00">application_command</text>
<text text-anchor="middle" x="346" y="-102" font-family="Helvetica,sans-Serif" font-size="10.00">_update</text>
<text text-anchor="middle" x="346" y="-91" font-family="Helvetica,sans-Serif" font-size="10.00">button_click</text>
<text text-anchor="middle" x="346" y="-80" font-family="Helvetica,sans-Serif" font-size="10.00">channel_create</text>
<text text-anchor="middle" x="346" y="-69" font-family="Helvetica,sans-Serif" font-size="10.00">channel_delete</text>
<text text-anchor="middle" x="346" y="-58" font-family="Helvetica,sans-Serif" font-size="10.00">channel_pins_update</text>
<text text-anchor="middle" x="346" y="-47" font-family="Helvetica,sans-Serif" font-size="10.00">channel_update</text>
<text text-anchor="middle" x="346" y="-36" font-family="Helvetica,sans-Serif" font-size="10.00">guild_ban_add</text>
<text text-anchor="middle" x="346" y="-25" font-family="Helvetica,sans-Serif" font-size="10.00">guild_ban_remove</text>
<text text-anchor="middle" x="346" y="-14" font-family="Helvetica,sans-Serif" font-size="10.00">...</text>
</g>
<!-- Node13&#45;&gt;Node5 -->
<g id="edge12" class="edge"><title>Node13&#45;&gt;Node5</title>
<path fill="none" stroke="#9a32cd" stroke-dasharray="5,2" d="M502.55,-267.021C539.945,-253.743 597.168,-233.423 630.606,-221.55"/>
<polygon fill="#9a32cd" stroke="#9a32cd" points="501.283,-263.757 493.031,-270.401 503.626,-270.353 501.283,-263.757"/>
<text text-anchor="middle" x="565.5" y="-258" font-family="Helvetica,sans-Serif" font-size="10.00"> me</text>
</g>
<!-- Node14 -->
<g id="node14" class="node"><title>Node14</title>
<g id="a_node14"><a xlink:href="classdpp_1_1managed.html" target="_top" xlink:title="The managed class is the base class for various types that can be stored in a cache that are identifi...">
<polygon fill="white" stroke="black" points="182,-346.5 182,-365.5 260,-365.5 260,-346.5 182,-346.5"/>
<text text-anchor="middle" x="221" y="-353.5" font-family="Helvetica,sans-Serif" font-size="10.00">dpp::managed</text>
</a>
</g>
</g>
<!-- Node14&#45;&gt;Node13 -->
<g id="edge13" class="edge"><title>Node14&#45;&gt;Node13</title>
<path fill="none" stroke="midnightblue" d="M270.273,-351.137C305.697,-346.473 354.487,-337.733 395,-322 416.178,-313.776 438.184,-299.141 451.489,-289.503"/>
<polygon fill="midnightblue" stroke="midnightblue" points="269.68,-347.684 260.194,-352.402 270.552,-354.63 269.68,-347.684"/>
</g>
<!-- Node15 -->
<g id="node15" class="node"><title>Node15</title>
<g id="a_node15"><a xlink:title=" ">
<polygon fill="white" stroke="#bfbfbf" points="22,-346.5 22,-365.5 73,-365.5 73,-346.5 22,-346.5"/>
<text text-anchor="middle" x="47.5" y="-353.5" font-family="Helvetica,sans-Serif" font-size="10.00">uint64_t</text>
</a>
</g>
</g>
<!-- Node15&#45;&gt;Node1 -->
<g id="edge23" class="edge"><title>Node15&#45;&gt;Node1</title>
<path fill="none" stroke="#9a32cd" stroke-dasharray="5,2" d="M59.0619,-374.446C82.6017,-412.88 143.383,-498 220,-498 220,-498 220,-498 659.5,-498 736.191,-498 824.488,-515.154 874.176,-526.411"/>
<polygon fill="#9a32cd" stroke="#9a32cd" points="62.0146,-372.563 53.8926,-365.76 55.9994,-376.144 62.0146,-372.563"/>
<text text-anchor="middle" x="465" y="-501" font-family="Helvetica,sans-Serif" font-size="10.00"> app_id</text>
</g>
<!-- Node15&#45;&gt;Node14 -->
<g id="edge14" class="edge"><title>Node15&#45;&gt;Node14</title>
<path fill="none" stroke="#9a32cd" stroke-dasharray="5,2" d="M83.4084,-356C112.012,-356 152.428,-356 181.874,-356"/>
<polygon fill="#9a32cd" stroke="#9a32cd" points="83.0718,-352.5 73.0718,-356 83.0717,-359.5 83.0718,-352.5"/>
<text text-anchor="middle" x="129" y="-359" font-family="Helvetica,sans-Serif" font-size="10.00"> id</text>
</g>
<!-- Node17 -->
<g id="node17" class="node"><title>Node17</title>
<g id="a_node17"><a xlink:href="structdpp_1_1utility_1_1iconhash.html" target="_top" xlink:title="Store a 128 bit icon hash (profile picture, server icon etc) as a 128 bit binary value made of two ui...">
<polygon fill="white" stroke="black" points="167.5,-232.5 167.5,-251.5 274.5,-251.5 274.5,-232.5 167.5,-232.5"/>
<text text-anchor="middle" x="221" y="-239.5" font-family="Helvetica,sans-Serif" font-size="10.00">dpp::utility::iconhash</text>
</a>
</g>
</g>
<!-- Node15&#45;&gt;Node17 -->
<g id="edge18" class="edge"><title>Node15&#45;&gt;Node17</title>
<path fill="none" stroke="#9a32cd" stroke-dasharray="5,2" d="M64.8411,-339.006C85.8171,-318.055 124.16,-282.581 163,-261 169.656,-257.301 177.151,-254.167 184.465,-251.576"/>
<polygon fill="#9a32cd" stroke="#9a32cd" points="62.2135,-336.686 57.6873,-346.265 67.1994,-341.599 62.2135,-336.686"/>
<text text-anchor="middle" x="129" y="-308" font-family="Helvetica,sans-Serif" font-size="10.00"> first</text>
<text text-anchor="middle" x="129" y="-297" font-family="Helvetica,sans-Serif" font-size="10.00">second</text>
</g>
<!-- Node16 -->
<g id="node16" class="node"><title>Node16</title>
<g id="a_node16"><a xlink:title=" ">
<polygon fill="white" stroke="#bfbfbf" points="195.5,-308.5 195.5,-327.5 246.5,-327.5 246.5,-308.5 195.5,-308.5"/>
<text text-anchor="middle" x="221" y="-315.5" font-family="Helvetica,sans-Serif" font-size="10.00">uint16_t</text>
</a>
</g>
</g>
<!-- Node16&#45;&gt;Node13 -->
<g id="edge16" class="edge"><title>Node16&#45;&gt;Node13</title>
<path fill="none" stroke="#9a32cd" stroke-dasharray="5,2" d="M256.829,-313.006C291.792,-307.936 347.181,-299.751 395,-292 408.683,-289.782 423.862,-287.16 436.492,-284.933"/>
<polygon fill="#9a32cd" stroke="#9a32cd" points="256.062,-309.58 246.666,-314.475 257.064,-316.508 256.062,-309.58"/>
<text text-anchor="middle" x="346" y="-310" font-family="Helvetica,sans-Serif" font-size="10.00"> discriminator</text>
</g>
<!-- Node17&#45;&gt;Node13 -->
<g id="edge17" class="edge"><title>Node17&#45;&gt;Node13</title>
<path fill="none" stroke="#9a32cd" stroke-dasharray="5,2" d="M284.737,-249.085C317.664,-253.121 358.62,-258.638 395,-265 408.646,-267.386 423.689,-270.588 436.237,-273.421"/>
<polygon fill="#9a32cd" stroke="#9a32cd" points="285.138,-245.608 274.79,-247.881 284.297,-252.558 285.138,-245.608"/>
<text text-anchor="middle" x="346" y="-268" font-family="Helvetica,sans-Serif" font-size="10.00"> avatar</text>
</g>
<!-- Node18 -->
<g id="node18" class="node"><title>Node18</title>
<g id="a_node18"><a xlink:title=" ">
<polygon fill="white" stroke="#bfbfbf" points="198,-270.5 198,-289.5 244,-289.5 244,-270.5 198,-270.5"/>
<text text-anchor="middle" x="221" y="-277.5" font-family="Helvetica,sans-Serif" font-size="10.00">uint8_t</text>
</a>
</g>
</g>
<!-- Node18&#45;&gt;Node13 -->
<g id="edge20" class="edge"><title>Node18&#45;&gt;Node13</title>
<path fill="none" stroke="#9a32cd" stroke-dasharray="5,2" d="M254.462,-280C302.36,-280 391.147,-280 436.21,-280"/>
<polygon fill="#9a32cd" stroke="#9a32cd" points="254.333,-276.5 244.333,-280 254.333,-283.5 254.333,-276.5"/>
<text text-anchor="middle" x="346" y="-283" font-family="Helvetica,sans-Serif" font-size="10.00"> refcount</text>
</g>
<!-- Node19 -->
<g id="node19" class="node"><title>Node19</title>
<g id="a_node19"><a xlink:href="structdpp_1_1cache__policy__t.html" target="_top" xlink:title="Represents the caching policy of the cluster.">
<polygon fill="white" stroke="black" points="413,-442.5 413,-461.5 517,-461.5 517,-442.5 413,-442.5"/>
<text text-anchor="middle" x="465" y="-449.5" font-family="Helvetica,sans-Serif" font-size="10.00">dpp::cache_policy_t</text>
</a>
</g>
</g>
<!-- Node19&#45;&gt;Node5 -->
<g id="edge21" class="edge"><title>Node19&#45;&gt;Node5</title>
<path fill="none" stroke="#9a32cd" stroke-dasharray="5,2" d="M518.646,-439.368C545.043,-430.599 575.642,-416.363 596,-394 643.599,-341.714 654.538,-251.213 656.893,-221.647"/>
<polygon fill="#9a32cd" stroke="#9a32cd" points="517.259,-436.135 508.764,-442.466 519.354,-442.814 517.259,-436.135"/>
<text text-anchor="middle" x="565.5" y="-437" font-family="Helvetica,sans-Serif" font-size="10.00"> cache_policy</text>
</g>
<!-- Node20 -->
<g id="node20" class="node"><title>Node20</title>
<g id="a_node20"><a xlink:title=" ">
<polygon fill="white" stroke="#bfbfbf" points="163,-440.5 163,-459.5 279,-459.5 279,-440.5 163,-440.5"/>
<text text-anchor="middle" x="221" y="-447.5" font-family="Helvetica,sans-Serif" font-size="10.00">cache_policy_setting_t</text>
</a>
</g>
</g>
<!-- Node20&#45;&gt;Node19 -->
<g id="edge22" class="edge"><title>Node20&#45;&gt;Node19</title>
<path fill="none" stroke="#9a32cd" stroke-dasharray="5,2" d="M289.411,-450.253C321.407,-450.409 360.176,-450.647 395,-451 400.75,-451.058 406.77,-451.13 412.756,-451.208"/>
<polygon fill="#9a32cd" stroke="#9a32cd" points="289.29,-446.753 279.274,-450.206 289.257,-453.753 289.29,-446.753"/>
<text text-anchor="middle" x="346" y="-476" font-family="Helvetica,sans-Serif" font-size="10.00"> emoji_policy</text>
<text text-anchor="middle" x="346" y="-465" font-family="Helvetica,sans-Serif" font-size="10.00">role_policy</text>
<text text-anchor="middle" x="346" y="-454" font-family="Helvetica,sans-Serif" font-size="10.00">user_policy</text>
</g>
</g>
</svg>
        <g id="navigator" transform="translate(0 0)" fill="#404254">
                <rect fill="#f2f5e9" fill-opacity="0.5" stroke="#606060" stroke-width=".5" x="0" y="0" width="60" height="60"/>
                <use id="zoomplus" xlink:href="#zoomPlus" x="17" y="9" onmousedown="handleZoom(evt,'in')"/>
                <use id="zoomminus" xlink:href="#zoomMin" x="42" y="9" onmousedown="handleZoom(evt,'out')"/>
                <use id="reset" xlink:href="#resetDef" x="30" y="36" onmousedown="handleReset()"/>
                <g id="arrowUp" xlink:href="#dirArrow" transform="translate(30 24)" onmousedown="handlePan(0,-1)">
                  <use xlink:href="#rim" fill="#404040">
                        <set attributeName="fill" to="#808080" begin="arrowUp.mouseover" end="arrowUp.mouseout"/>
                  </use>
                  <path fill="none" stroke="white" stroke-width="1.5" d="M0,-3.0v7 M-2.5,-0.5L0,-3.0L2.5,-0.5"/>
                </g>
                <g id="arrowRight" xlink:href="#dirArrow" transform="rotate(90) translate(36 -43)" onmousedown="handlePan(1,0)">
                  <use xlink:href="#rim" fill="#404040">
                        <set attributeName="fill" to="#808080" begin="arrowRight.mouseover" end="arrowRight.mouseout"/>
                  </use>
                  <path fill="none" stroke="white" stroke-width="1.5" d="M0,-3.0v7 M-2.5,-0.5L0,-3.0L2.5,-0.5"/>
                </g>
                <g id="arrowDown" xlink:href="#dirArrow" transform="rotate(180) translate(-30 -48)" onmousedown="handlePan(0,1)">
                  <use xlink:href="#rim" fill="#404040">
                        <set attributeName="fill" to="#808080" begin="arrowDown.mouseover" end="arrowDown.mouseout"/>
                  </use>
                  <path fill="none" stroke="white" stroke-width="1.5" d="M0,-3.0v7 M-2.5,-0.5L0,-3.0L2.5,-0.5"/>
                </g>
                <g id="arrowLeft" xlink:href="#dirArrow" transform="rotate(270) translate(-36 17)" onmousedown="handlePan(-1,0)">
                  <use xlink:href="#rim" fill="#404040">
                        <set attributeName="fill" to="#808080" begin="arrowLeft.mouseover" end="arrowLeft.mouseout"/>
                  </use>
                  <path fill="none" stroke="white" stroke-width="1.5" d="M0,-3.0v7 M-2.5,-0.5L0,-3.0L2.5,-0.5"/>
                </g>
        </g>
        <svg viewBox="0 0 15 15" width="100%" height="30px" preserveAspectRatio="xMaxYMin meet">
         <g id="arrow_out" transform="scale(0.3 0.3)">
          <a xlink:href="classdpp_1_1commandhandler__coll__graph_org.svg" target="_base">
           <rect id="button" ry="5" rx="5" y="6" x="6" height="38" width="38"
                fill="#f2f5e9" fill-opacity="0.5" stroke="#606060" stroke-width="1.0"/>
           <path id="arrow"
             d="M 11.500037,31.436501 C 11.940474,20.09759 22.043105,11.32322 32.158766,21.979434 L 37.068811,17.246167 C 37.068811,17.246167 37.088388,32 37.088388,32 L 22.160133,31.978069 C 22.160133,31.978069 26.997745,27.140456 26.997745,27.140456 C 18.528582,18.264221 13.291696,25.230495 11.500037,31.436501 z"
             style="fill:#404040;"/>
          </a>
         </g>
        </svg>
</svg>
