<?xml version="1.0" encoding="UTF-8" standalone="no"?>
<!DOCTYPE svg PUBLIC "-//W3C//DTD SVG 1.1//EN"
 "http://www.w3.org/Graphics/SVG/1.1/DTD/svg11.dtd">
<!-- Generated by graphviz version 2.43.0 (0)
 -->
<!-- Title: dpp::command_data_option Pages: 1 -->
<svg width="523pt" height="208pt"
 viewBox="0.00 0.00 523.00 207.50" xmlns="http://www.w3.org/2000/svg" xmlns:xlink="http://www.w3.org/1999/xlink">
<g id="graph0" class="graph" transform="scale(1 1) rotate(0) translate(4 203.5)">
<title>dpp::command_data_option</title>
<!-- Node1 -->
<g id="node1" class="node">
<title>Node1</title>
<g id="a_node1"><a xlink:title="Values in the command interaction. These are the values specified by the user when actually issuing t...">
<polygon fill="#bfbfbf" stroke="black" points="363,-87.5 363,-106.5 515,-106.5 515,-87.5 363,-87.5"/>
<text text-anchor="middle" x="439" y="-94.5" font-family="Helvetica,sans-Serif" font-size="10.00">dpp::command_data_option</text>
</a>
</g>
</g>
<!-- Node2 -->
<g id="node2" class="node">
<title>Node2</title>
<g id="a_node2"><a xlink:title=" ">
<polygon fill="none" stroke="#bfbfbf" points="178,-174.5 178,-193.5 243,-193.5 243,-174.5 178,-174.5"/>
<text text-anchor="middle" x="210.5" y="-181.5" font-family="Helvetica,sans-Serif" font-size="10.00">std::string</text>
</a>
</g>
</g>
<!-- Node2&#45;&gt;Node1 -->
<g id="edge1" class="edge">
<title>Node2&#45;&gt;Node1</title>
<path fill="none" stroke="#9a32cd" stroke-dasharray="5,2" d="M252.92,-173.11C261.89,-170.58 271.3,-167.81 280,-165 309.31,-155.54 316.61,-152.93 345,-141 371.02,-130.07 400.35,-115.87 418.99,-106.6"/>
<polygon fill="#9a32cd" stroke="#9a32cd" points="251.74,-169.8 243.04,-175.84 253.61,-176.55 251.74,-169.8"/>
<text text-anchor="middle" x="321.5" y="-162" font-family="Helvetica,sans-Serif" font-size="10.00"> name</text>
</g>
<!-- Node3 -->
<g id="node3" class="node">
<title>Node3</title>
<g id="a_node3"><a xlink:title=" ">
<polygon fill="none" stroke="#bfbfbf" points="0,-169 0,-199 104,-199 104,-169 0,-169"/>
<text text-anchor="start" x="8" y="-187" font-family="Helvetica,sans-Serif" font-size="10.00">std::basic_string&lt;</text>
<text text-anchor="middle" x="52" y="-176" font-family="Helvetica,sans-Serif" font-size="10.00"> Char &gt;</text>
</a>
</g>
</g>
<!-- Node3&#45;&gt;Node2 -->
<g id="edge2" class="edge">
<title>Node3&#45;&gt;Node2</title>
<path fill="none" stroke="midnightblue" d="M114.38,-184C136.07,-184 159.57,-184 177.78,-184"/>
<polygon fill="midnightblue" stroke="midnightblue" points="114.24,-180.5 104.24,-184 114.24,-187.5 114.24,-180.5"/>
</g>
<!-- Node4 -->
<g id="node4" class="node">
<title>Node4</title>
<g id="a_node4"><a xlink:title=" ">
<polygon fill="none" stroke="#bfbfbf" points="146.5,-136.5 146.5,-155.5 274.5,-155.5 274.5,-136.5 146.5,-136.5"/>
<text text-anchor="middle" x="210.5" y="-143.5" font-family="Helvetica,sans-Serif" font-size="10.00">command_option_type</text>
</a>
</g>
</g>
<!-- Node4&#45;&gt;Node1 -->
<g id="edge3" class="edge">
<title>Node4&#45;&gt;Node1</title>
<path fill="none" stroke="#9a32cd" stroke-dasharray="5,2" d="M265.36,-134.35C304.57,-125.87 357.03,-114.52 393.8,-106.56"/>
<polygon fill="#9a32cd" stroke="#9a32cd" points="264.47,-130.96 255.44,-136.49 265.95,-137.8 264.47,-130.96"/>
<text text-anchor="middle" x="321.5" y="-129" font-family="Helvetica,sans-Serif" font-size="10.00"> type</text>
</g>
<!-- Node5 -->
<g id="node5" class="node">
<title>Node5</title>
<g id="a_node5"><a xlink:title=" ">
<polygon fill="none" stroke="#bfbfbf" points="141,-76.5 141,-117.5 280,-117.5 280,-76.5 141,-76.5"/>
<text text-anchor="start" x="149" y="-105.5" font-family="Helvetica,sans-Serif" font-size="10.00">variant&lt; std::monostate,</text>
<text text-anchor="start" x="149" y="-94.5" font-family="Helvetica,sans-Serif" font-size="10.00"> std::string, int32_t,</text>
<text text-anchor="middle" x="210.5" y="-83.5" font-family="Helvetica,sans-Serif" font-size="10.00"> bool, snowflake &gt;</text>
</a>
</g>
</g>
<!-- Node5&#45;&gt;Node1 -->
<g id="edge4" class="edge">
<title>Node5&#45;&gt;Node1</title>
<path fill="none" stroke="#9a32cd" stroke-dasharray="5,2" d="M290.37,-97C313.91,-97 339.65,-97 362.95,-97"/>
<polygon fill="#9a32cd" stroke="#9a32cd" points="290.07,-93.5 280.07,-97 290.07,-100.5 290.07,-93.5"/>
<text text-anchor="middle" x="321.5" y="-100" font-family="Helvetica,sans-Serif" font-size="10.00"> value</text>
</g>
<!-- Node6 -->
<g id="node6" class="node">
<title>Node6</title>
<g id="a_node6"><a xlink:title=" ">
<polygon fill="none" stroke="#bfbfbf" points="182.5,-38.5 182.5,-57.5 238.5,-57.5 238.5,-38.5 182.5,-38.5"/>
<text text-anchor="middle" x="210.5" y="-45.5" font-family="Helvetica,sans-Serif" font-size="10.00">vector&lt;</text>
</a>
</g>
</g>
<!-- Node6&#45;&gt;Node1 -->
<g id="edge5" class="edge">
<title>Node6&#45;&gt;Node1</title>
<path fill="none" stroke="#9a32cd" stroke-dasharray="5,2" d="M248.65,-56.04C288.44,-64.65 351.55,-78.3 393.85,-87.45"/>
<polygon fill="#9a32cd" stroke="#9a32cd" points="249.34,-52.6 238.82,-53.91 247.86,-59.45 249.34,-52.6"/>
<text text-anchor="middle" x="321.5" y="-79" font-family="Helvetica,sans-Serif" font-size="10.00"> options</text>
</g>
<!-- Node7 -->
<g id="node7" class="node">
<title>Node7</title>
<g id="a_node7"><a xlink:title=" ">
<polygon fill="none" stroke="#bfbfbf" points="182.5,-0.5 182.5,-19.5 238.5,-19.5 238.5,-0.5 182.5,-0.5"/>
<text text-anchor="middle" x="210.5" y="-7.5" font-family="Helvetica,sans-Serif" font-size="10.00">uint64_t</text>
</a>
</g>
</g>
<!-- Node7&#45;&gt;Node1 -->
<g id="edge6" class="edge">
<title>Node7&#45;&gt;Node1</title>
<path fill="none" stroke="#9a32cd" stroke-dasharray="5,2" d="M248.58,-19.58C258.82,-22.42 269.89,-25.66 280,-29 331.33,-45.95 389.06,-72.92 418.48,-87.27"/>
<polygon fill="#9a32cd" stroke="#9a32cd" points="249.25,-16.14 238.68,-16.89 247.42,-22.89 249.25,-16.14"/>
<text text-anchor="middle" x="321.5" y="-56" font-family="Helvetica,sans-Serif" font-size="10.00"> target_id</text>
</g>
</g>
</svg>
