<?xml version="1.0" encoding="UTF-8" standalone="no"?>
<!DOCTYPE svg PUBLIC "-//W3C//DTD SVG 1.1//EN"
 "http://www.w3.org/Graphics/SVG/1.1/DTD/svg11.dtd">
<!-- Generated by graphviz version 2.43.0 (0)
 -->
<!-- Title: dpp::automod_metadata Pages: 1 -->
<svg width="530pt" height="206pt"
 viewBox="0.00 0.00 530.00 206.00" xmlns="http://www.w3.org/2000/svg" xmlns:xlink="http://www.w3.org/1999/xlink">
<g id="graph0" class="graph" transform="scale(1 1) rotate(0) translate(4 202)">
<title>dpp::automod_metadata</title>
<!-- Node1 -->
<g id="node1" class="node">
<title>Node1</title>
<g id="a_node1"><a xlink:title="Metadata associated with an automod action. Different fields are relevant based on the value of dpp::...">
<polygon fill="#bfbfbf" stroke="black" points="162.5,-0.5 162.5,-19.5 299.5,-19.5 299.5,-0.5 162.5,-0.5"/>
<text text-anchor="middle" x="231" y="-7.5" font-family="Helvetica,sans-Serif" font-size="10.00">dpp::automod_metadata</text>
</a>
</g>
</g>
<!-- Node2 -->
<g id="node2" class="node">
<title>Node2</title>
<g id="a_node2"><a xlink:href="structdpp_1_1json__interface.html" target="_top" xlink:title=" ">
<polygon fill="none" stroke="black" points="1.5,-100.5 1.5,-130.5 136.5,-130.5 136.5,-100.5 1.5,-100.5"/>
<text text-anchor="start" x="9.5" y="-118.5" font-family="Helvetica,sans-Serif" font-size="10.00">dpp::json_interface</text>
<text text-anchor="middle" x="69" y="-107.5" font-family="Helvetica,sans-Serif" font-size="10.00">&lt; automod_metadata &gt;</text>
</a>
</g>
</g>
<!-- Node2&#45;&gt;Node1 -->
<g id="edge1" class="edge">
<title>Node2&#45;&gt;Node1</title>
<path fill="none" stroke="midnightblue" d="M93.52,-93.99C113.77,-77.62 143.69,-54.74 172,-38 183.93,-30.95 198.01,-24.44 209.43,-19.58"/>
<polygon fill="midnightblue" stroke="midnightblue" points="91.26,-91.31 85.73,-100.35 95.69,-96.73 91.26,-91.31"/>
</g>
<!-- Node3 -->
<g id="node3" class="node">
<title>Node3</title>
<g id="a_node3"><a xlink:href="structdpp_1_1json__interface.html" target="_top" xlink:title="Represents an interface for an object that can optionally implement functions for converting to and f...">
<polygon fill="none" stroke="black" points="0,-178.5 0,-197.5 138,-197.5 138,-178.5 0,-178.5"/>
<text text-anchor="middle" x="69" y="-185.5" font-family="Helvetica,sans-Serif" font-size="10.00">dpp::json_interface&lt; T &gt;</text>
</a>
</g>
</g>
<!-- Node3&#45;&gt;Node2 -->
<g id="edge2" class="edge">
<title>Node3&#45;&gt;Node2</title>
<path fill="none" stroke="orange" stroke-dasharray="5,2" d="M69,-168.24C69,-156.41 69,-141.38 69,-130.58"/>
<polygon fill="orange" stroke="orange" points="65.5,-168.36 69,-178.36 72.5,-168.36 65.5,-168.36"/>
<text text-anchor="middle" x="130" y="-152" font-family="Helvetica,sans-Serif" font-size="10.00"> &lt; automod_metadata &gt;</text>
</g>
<!-- Node4 -->
<g id="node4" class="node">
<title>Node4</title>
<g id="a_node4"><a xlink:title=" ">
<polygon fill="none" stroke="#bfbfbf" points="155,-106 155,-125 211,-125 211,-106 155,-106"/>
<text text-anchor="middle" x="183" y="-113" font-family="Helvetica,sans-Serif" font-size="10.00">vector&lt;</text>
</a>
</g>
</g>
<!-- Node4&#45;&gt;Node1 -->
<g id="edge3" class="edge">
<title>Node4&#45;&gt;Node1</title>
<path fill="none" stroke="#9a32cd" stroke-dasharray="5,2" d="M178.34,-95.74C175.35,-79.35 173.72,-55.49 184,-38 188.86,-29.72 197.31,-23.76 205.72,-19.57"/>
<polygon fill="#9a32cd" stroke="#9a32cd" points="174.97,-96.7 180.5,-105.73 181.81,-95.22 174.97,-96.7"/>
<text text-anchor="middle" x="221" y="-74" font-family="Helvetica,sans-Serif" font-size="10.00"> allow_list</text>
<text text-anchor="middle" x="221" y="-63" font-family="Helvetica,sans-Serif" font-size="10.00">keywords</text>
<text text-anchor="middle" x="221" y="-52" font-family="Helvetica,sans-Serif" font-size="10.00">presets</text>
<text text-anchor="middle" x="221" y="-41" font-family="Helvetica,sans-Serif" font-size="10.00">regex_patterns</text>
</g>
<!-- Node5 -->
<g id="node5" class="node">
<title>Node5</title>
<g id="a_node5"><a xlink:title=" ">
<polygon fill="none" stroke="#bfbfbf" points="255,-106 255,-125 305,-125 305,-106 255,-106"/>
<text text-anchor="middle" x="280" y="-113" font-family="Helvetica,sans-Serif" font-size="10.00">uint8_t</text>
</a>
</g>
</g>
<!-- Node5&#45;&gt;Node1 -->
<g id="edge4" class="edge">
<title>Node5&#45;&gt;Node1</title>
<path fill="none" stroke="#9a32cd" stroke-dasharray="5,2" d="M277.3,-95.61C274.37,-79.45 268.62,-56.01 258,-38 253.89,-31.03 247.57,-24.57 242.07,-19.72"/>
<polygon fill="#9a32cd" stroke="#9a32cd" points="273.91,-96.6 278.96,-105.91 280.82,-95.48 273.91,-96.6"/>
<text text-anchor="middle" x="323" y="-57.5" font-family="Helvetica,sans-Serif" font-size="10.00"> mention_total_limit</text>
</g>
<!-- Node6 -->
<g id="node6" class="node">
<title>Node6</title>
<g id="a_node6"><a xlink:title=" ">
<polygon fill="none" stroke="#bfbfbf" points="384,-106 384,-125 422,-125 422,-106 384,-106"/>
<text text-anchor="middle" x="403" y="-113" font-family="Helvetica,sans-Serif" font-size="10.00">bool</text>
</a>
</g>
</g>
<!-- Node6&#45;&gt;Node1 -->
<g id="edge5" class="edge">
<title>Node6&#45;&gt;Node1</title>
<path fill="none" stroke="#9a32cd" stroke-dasharray="5,2" d="M401.84,-95.66C399.7,-78.08 393.71,-52.45 377,-38 365.16,-27.76 331.67,-21.15 299.75,-17.04"/>
<polygon fill="#9a32cd" stroke="#9a32cd" points="398.37,-96.21 402.76,-105.85 405.34,-95.58 398.37,-96.21"/>
<text text-anchor="start" x="399" y="-63" font-family="Helvetica,sans-Serif" font-size="10.00"> mention_raid_protection</text>
<text text-anchor="middle" x="460.5" y="-52" font-family="Helvetica,sans-Serif" font-size="10.00">_enabled</text>
</g>
</g>
</svg>
