<?xml version="1.0" encoding="UTF-8" standalone="no"?>
<!DOCTYPE svg PUBLIC "-//W3C//DTD SVG 1.1//EN"
 "http://www.w3.org/Graphics/SVG/1.1/DTD/svg11.dtd">
<!-- Generated by graphviz version 2.38.0 (20140413.2041)
 -->
<!-- Title: dpp::application_command_create_t Pages: 1 -->
<!--zoomable 931 -->
<svg id="main" version="1.1" xmlns="http://www.w3.org/2000/svg" xmlns:xlink="http://www.w3.org/1999/xlink" xml:space="preserve" onload="init(evt)">
<style type="text/css"><![CDATA[
.edge:hover path { stroke: red; }
.edge:hover polygon { stroke: red; fill: red; }
]]></style>
<script type="text/javascript"><![CDATA[
var edges = document.getElementsByTagName('g');
if (edges && edges.length) {
  for (var i=0;i<edges.length;i++) {
    if (edges[i].id.substr(0,4)=='edge') {
      edges[i].setAttribute('class','edge');
    }
  }
}
]]></script>
        <defs>
                <circle id="rim" cx="0" cy="0" r="7"/>
                <circle id="rim2" cx="0" cy="0" r="3.5"/>
                <g id="zoomPlus">
                        <use xlink:href="#rim" fill="#404040">
                                <set attributeName="fill" to="#808080" begin="zoomplus.mouseover" end="zoomplus.mouseout"/>
                        </use>
                        <path d="M-4,0h8M0,-4v8" fill="none" stroke="white" stroke-width="1.5" pointer-events="none"/>
                </g>
                <g id="zoomMin">
                        <use xlink:href="#rim" fill="#404040">
                                <set attributeName="fill" to="#808080" begin="zoomminus.mouseover" end="zoomminus.mouseout"/>
                        </use>
                        <path d="M-4,0h8" fill="none" stroke="white" stroke-width="1.5" pointer-events="none"/>
                </g>
                <g id="dirArrow">
                        <path fill="none" stroke="white" stroke-width="1.5" d="M0,-3.0v7 M-2.5,-0.5L0,-3.0L2.5,-0.5"/>
                </g>
               <g id="resetDef">
                       <use xlink:href="#rim2" fill="#404040">
                               <set attributeName="fill" to="#808080" begin="reset.mouseover" end="reset.mouseout"/>
                       </use>
               </g>
        </defs>

<script type="text/javascript">
var viewWidth = 1323;
var viewHeight = 931;
var sectionId = 'dynsection-1';
</script>
<script xlink:href="svgpan.js"/>
<svg id="graph" class="graph">
<g id="viewport">
<title>dpp::application_command_create_t</title>
<polygon fill="white" stroke="none" points="-4,4 -4,-927 1319,-927 1319,4 -4,4"/>
<!-- Node1 -->
<g id="node1" class="node"><title>Node1</title>
<g id="a_node1"><a xlink:title="Create application slash command.">
<polygon fill="#bfbfbf" stroke="black" points="1182,-806 1182,-836 1315,-836 1315,-806 1182,-806"/>
<text text-anchor="start" x="1190" y="-824" font-family="Helvetica,sans-Serif" font-size="10.00">dpp::application_command</text>
<text text-anchor="middle" x="1248.5" y="-813" font-family="Helvetica,sans-Serif" font-size="10.00">_create_t</text>
</a>
</g>
</g>
<!-- Node2 -->
<g id="node2" class="node"><title>Node2</title>
<g id="a_node2"><a xlink:href="a01266.html" target="_top" xlink:title="Base event parameter struct.">
<polygon fill="white" stroke="black" points="1032,-811.5 1032,-830.5 1145,-830.5 1145,-811.5 1032,-811.5"/>
<text text-anchor="middle" x="1088.5" y="-818.5" font-family="Helvetica,sans-Serif" font-size="10.00">dpp::event_dispatch_t</text>
</a>
</g>
</g>
<!-- Node2&#45;&gt;Node1 -->
<g id="edge1" class="edge"><title>Node2&#45;&gt;Node1</title>
<path fill="none" stroke="midnightblue" d="M1155.33,-821C1164.06,-821 1173.02,-821 1181.75,-821"/>
<polygon fill="midnightblue" stroke="midnightblue" points="1155.2,-817.5 1145.2,-821 1155.2,-824.5 1155.2,-817.5"/>
</g>
<!-- Node3 -->
<g id="node3" class="node"><title>Node3</title>
<g id="a_node3"><a xlink:title=" ">
<polygon fill="white" stroke="#bfbfbf" points="186.5,-807.5 186.5,-826.5 246.5,-826.5 246.5,-807.5 186.5,-807.5"/>
<text text-anchor="middle" x="216.5" y="-814.5" font-family="Helvetica,sans-Serif" font-size="10.00">std::string</text>
</a>
</g>
</g>
<!-- Node3&#45;&gt;Node2 -->
<g id="edge2" class="edge"><title>Node3&#45;&gt;Node2</title>
<path fill="none" stroke="#9a32cd" stroke-dasharray="5,2" d="M245.183,-830.809C257.892,-836.404 273.363,-842.2 288,-845 334.272,-853.852 346.896,-845.815 394,-845 631.293,-840.895 914.053,-828.896 1031.78,-823.583"/>
<polygon fill="#9a32cd" stroke="#9a32cd" points="246.611,-827.613 236.063,-826.622 243.69,-833.975 246.611,-827.613"/>
<text text-anchor="middle" x="664.5" y="-843" font-family="Helvetica,sans-Serif" font-size="10.00"> raw_event</text>
</g>
<!-- Node5 -->
<g id="node5" class="node"><title>Node5</title>
<g id="a_node5"><a xlink:href="a01258.html" target="_top" xlink:title="Implements a discord client. Each DiscordClient connects to one shard and derives from a websocket cl...">
<polygon fill="white" stroke="black" points="875,-524.5 875,-543.5 973,-543.5 973,-524.5 875,-524.5"/>
<text text-anchor="middle" x="924" y="-531.5" font-family="Helvetica,sans-Serif" font-size="10.00">dpp::DiscordClient</text>
</a>
</g>
</g>
<!-- Node3&#45;&gt;Node5 -->
<g id="edge34" class="edge"><title>Node3&#45;&gt;Node5</title>
<path fill="none" stroke="#9a32cd" stroke-dasharray="5,2" d="M256.437,-824.178C266.668,-825.761 277.718,-827.203 288,-828 380.195,-835.149 407.748,-837.631 495,-807 665.29,-747.216 719.134,-739.473 857,-623 885.066,-599.289 907.992,-561.417 917.824,-543.714"/>
<polygon fill="#9a32cd" stroke="#9a32cd" points="256.969,-820.718 246.537,-822.566 255.845,-827.627 256.969,-820.718"/>
<text text-anchor="middle" x="554.5" y="-815" font-family="Helvetica,sans-Serif" font-size="10.00"> sessionid</text>
<text text-anchor="middle" x="554.5" y="-804" font-family="Helvetica,sans-Serif" font-size="10.00">token</text>
</g>
<!-- Node7 -->
<g id="node7" class="node"><title>Node7</title>
<g id="a_node7"><a xlink:href="a01802.html" target="_top" xlink:title="Implements a simple non&#45;blocking SSL stream client.">
<polygon fill="white" stroke="black" points="412,-635.5 412,-654.5 495,-654.5 495,-635.5 412,-635.5"/>
<text text-anchor="middle" x="453.5" y="-642.5" font-family="Helvetica,sans-Serif" font-size="10.00">dpp::SSLClient</text>
</a>
</g>
</g>
<!-- Node3&#45;&gt;Node7 -->
<g id="edge7" class="edge"><title>Node3&#45;&gt;Node7</title>
<path fill="none" stroke="#9a32cd" stroke-dasharray="5,2" d="M230.787,-799.21C243.647,-783.302 264.592,-760.611 288,-748 330.44,-725.136 353.585,-751.279 394,-725 421.407,-707.179 440.356,-671.744 448.305,-654.657"/>
<polygon fill="#9a32cd" stroke="#9a32cd" points="227.909,-797.208 224.51,-807.243 233.425,-801.519 227.909,-797.208"/>
<text text-anchor="middle" x="341" y="-795" font-family="Helvetica,sans-Serif" font-size="10.00"> buffer</text>
<text text-anchor="middle" x="341" y="-784" font-family="Helvetica,sans-Serif" font-size="10.00">cipher</text>
<text text-anchor="middle" x="341" y="-773" font-family="Helvetica,sans-Serif" font-size="10.00">hostname</text>
<text text-anchor="middle" x="341" y="-762" font-family="Helvetica,sans-Serif" font-size="10.00">obuffer</text>
<text text-anchor="middle" x="341" y="-751" font-family="Helvetica,sans-Serif" font-size="10.00">port</text>
</g>
<!-- Node15 -->
<g id="node15" class="node"><title>Node15</title>
<g id="a_node15"><a xlink:href="a01238.html" target="_top" xlink:title="The cluster class represents a group of shards and a command queue for sending and receiving commands...">
<polygon fill="white" stroke="black" points="630.5,-312.5 630.5,-331.5 698.5,-331.5 698.5,-312.5 630.5,-312.5"/>
<text text-anchor="middle" x="664.5" y="-319.5" font-family="Helvetica,sans-Serif" font-size="10.00">dpp::cluster</text>
</a>
</g>
</g>
<!-- Node3&#45;&gt;Node15 -->
<g id="edge16" class="edge"><title>Node3&#45;&gt;Node15</title>
<path fill="none" stroke="#9a32cd" stroke-dasharray="5,2" d="M256.898,-822.877C294.565,-826.512 351.719,-826.694 394,-803 460.617,-765.668 468.837,-735.742 495,-664 514.311,-611.047 482.685,-458.518 513,-411 535.684,-375.444 559.753,-386.562 596,-365 614.509,-353.989 635.35,-340.548 648.913,-331.657"/>
<polygon fill="#9a32cd" stroke="#9a32cd" points="257.141,-819.382 246.82,-821.777 256.381,-826.341 257.141,-819.382"/>
<text text-anchor="middle" x="453.5" y="-795" font-family="Helvetica,sans-Serif" font-size="10.00"> token</text>
</g>
<!-- Node18 -->
<g id="node18" class="node"><title>Node18</title>
<g id="a_node18"><a xlink:href="a01806.html" target="_top" xlink:title="Represents a user on discord. May or may not be a member of a dpp::guild.">
<polygon fill="white" stroke="black" points="425,-181.5 425,-200.5 482,-200.5 482,-181.5 425,-181.5"/>
<text text-anchor="middle" x="453.5" y="-188.5" font-family="Helvetica,sans-Serif" font-size="10.00">dpp::user</text>
</a>
</g>
</g>
<!-- Node3&#45;&gt;Node18 -->
<g id="edge24" class="edge"><title>Node3&#45;&gt;Node18</title>
<path fill="none" stroke="#9a32cd" stroke-dasharray="5,2" d="M233.842,-799.324C246.282,-784.649 262.501,-762.592 270,-740 299.638,-650.705 244.519,-400.435 288,-317 315.401,-264.42 346.947,-272.075 394,-236 409.863,-223.838 428.116,-209.788 439.956,-200.668"/>
<polygon fill="#9a32cd" stroke="#9a32cd" points="231.017,-797.236 227.048,-807.059 236.277,-801.855 231.017,-797.236"/>
<text text-anchor="middle" x="341" y="-320" font-family="Helvetica,sans-Serif" font-size="10.00"> username</text>
</g>
<!-- Node4 -->
<g id="node4" class="node"><title>Node4</title>
<g id="a_node4"><a xlink:title=" ">
<polygon fill="white" stroke="#bfbfbf" points="0,-802 0,-832 95,-832 95,-802 0,-802"/>
<text text-anchor="start" x="8" y="-820" font-family="Helvetica,sans-Serif" font-size="10.00">std::basic_string&lt;</text>
<text text-anchor="middle" x="47.5" y="-809" font-family="Helvetica,sans-Serif" font-size="10.00"> Char &gt;</text>
</a>
</g>
</g>
<!-- Node4&#45;&gt;Node3 -->
<g id="edge3" class="edge"><title>Node4&#45;&gt;Node3</title>
<path fill="none" stroke="midnightblue" d="M105.221,-817C132.456,-817 163.942,-817 186.281,-817"/>
<polygon fill="midnightblue" stroke="midnightblue" points="105.019,-813.5 95.0188,-817 105.019,-820.5 105.019,-813.5"/>
</g>
<!-- Node5&#45;&gt;Node2 -->
<g id="edge4" class="edge"><title>Node5&#45;&gt;Node2</title>
<path fill="none" stroke="#9a32cd" stroke-dasharray="5,2" d="M935.52,-552.579C966.841,-607.897 1058.76,-770.232 1082.07,-811.415"/>
<polygon fill="#9a32cd" stroke="#9a32cd" points="938.379,-550.526 930.407,-543.549 932.288,-553.975 938.379,-550.526"/>
<text text-anchor="middle" x="1002.5" y="-690" font-family="Helvetica,sans-Serif" font-size="10.00"> from</text>
</g>
<!-- Node6 -->
<g id="node6" class="node"><title>Node6</title>
<g id="a_node6"><a xlink:href="a01822.html" target="_top" xlink:title="Implements a websocket client based on the SSL client.">
<polygon fill="white" stroke="black" points="624.5,-486.5 624.5,-505.5 704.5,-505.5 704.5,-486.5 624.5,-486.5"/>
<text text-anchor="middle" x="664.5" y="-493.5" font-family="Helvetica,sans-Serif" font-size="10.00">dpp::WSClient</text>
</a>
</g>
</g>
<!-- Node6&#45;&gt;Node5 -->
<g id="edge5" class="edge"><title>Node6&#45;&gt;Node5</title>
<path fill="none" stroke="midnightblue" d="M714.646,-503.253C760.66,-510.043 828.998,-520.128 874.727,-526.876"/>
<polygon fill="midnightblue" stroke="midnightblue" points="715.013,-499.769 704.609,-501.771 713.991,-506.694 715.013,-499.769"/>
</g>
<!-- Node7&#45;&gt;Node6 -->
<g id="edge6" class="edge"><title>Node7&#45;&gt;Node6</title>
<path fill="none" stroke="midnightblue" d="M471.413,-628.09C499.135,-601.133 556.891,-548.092 614,-515 620.212,-511.4 627.234,-508.23 633.996,-505.562"/>
<polygon fill="midnightblue" stroke="midnightblue" points="468.789,-625.76 464.11,-635.266 473.696,-630.753 468.789,-625.76"/>
</g>
<!-- Node8 -->
<g id="node8" class="node"><title>Node8</title>
<g id="a_node8"><a xlink:title=" ">
<polygon fill="white" stroke="#bfbfbf" points="199,-903.5 199,-922.5 234,-922.5 234,-903.5 199,-903.5"/>
<text text-anchor="middle" x="216.5" y="-910.5" font-family="Helvetica,sans-Serif" font-size="10.00">bool</text>
</a>
</g>
</g>
<!-- Node8&#45;&gt;Node5 -->
<g id="edge36" class="edge"><title>Node8&#45;&gt;Node5</title>
<path fill="none" stroke="#9a32cd" stroke-dasharray="5,2" d="M244.588,-913.518C279.515,-913.651 341.953,-912.067 394,-901 616.658,-853.654 703.241,-849.858 857,-682 896.146,-639.264 915.028,-569.473 920.91,-543.841"/>
<polygon fill="#9a32cd" stroke="#9a32cd" points="244.295,-910.015 234.263,-913.425 244.231,-917.015 244.295,-910.015"/>
<text text-anchor="middle" x="554.5" y="-879" font-family="Helvetica,sans-Serif" font-size="10.00"> ready</text>
</g>
<!-- Node8&#45;&gt;Node7 -->
<g id="edge8" class="edge"><title>Node8&#45;&gt;Node7</title>
<path fill="none" stroke="#9a32cd" stroke-dasharray="5,2" d="M243.859,-904.738C283.041,-891.036 356.092,-859.761 394,-807 415.771,-776.698 399.474,-760.147 412,-725 421.407,-698.605 437.608,-669.777 446.398,-654.987"/>
<polygon fill="#9a32cd" stroke="#9a32cd" points="242.571,-901.479 234.215,-907.993 244.809,-908.111 242.571,-901.479"/>
<text text-anchor="middle" x="341" y="-889" font-family="Helvetica,sans-Serif" font-size="10.00"> nonblocking</text>
</g>
<!-- Node9 -->
<g id="node9" class="node"><title>Node9</title>
<g id="a_node9"><a xlink:title=" ">
<polygon fill="white" stroke="#bfbfbf" points="202,-711.5 202,-730.5 231,-730.5 231,-711.5 202,-711.5"/>
<text text-anchor="middle" x="216.5" y="-718.5" font-family="Helvetica,sans-Serif" font-size="10.00">int</text>
</a>
</g>
</g>
<!-- Node9&#45;&gt;Node7 -->
<g id="edge9" class="edge"><title>Node9&#45;&gt;Node7</title>
<path fill="none" stroke="#9a32cd" stroke-dasharray="5,2" d="M241.227,-718.08C282.782,-712.74 366.889,-700.851 394,-689 413.097,-680.652 431.734,-664.942 442.664,-654.729"/>
<polygon fill="#9a32cd" stroke="#9a32cd" points="240.66,-714.624 231.178,-719.351 241.538,-721.569 240.66,-714.624"/>
<text text-anchor="middle" x="341" y="-714" font-family="Helvetica,sans-Serif" font-size="10.00"> sfd</text>
</g>
<!-- Node10 -->
<g id="node10" class="node"><title>Node10</title>
<g id="a_node10"><a xlink:title=" ">
<polygon fill="white" stroke="#bfbfbf" points="195.5,-673.5 195.5,-692.5 237.5,-692.5 237.5,-673.5 195.5,-673.5"/>
<text text-anchor="middle" x="216.5" y="-680.5" font-family="Helvetica,sans-Serif" font-size="10.00">SSL *</text>
</a>
</g>
</g>
<!-- Node10&#45;&gt;Node7 -->
<g id="edge10" class="edge"><title>Node10&#45;&gt;Node7</title>
<path fill="none" stroke="#9a32cd" stroke-dasharray="5,2" d="M247.779,-679.065C283.001,-674.366 342.858,-666.005 394,-657 399.82,-655.975 405.949,-654.812 411.96,-653.622"/>
<polygon fill="#9a32cd" stroke="#9a32cd" points="247.13,-675.62 237.676,-680.402 248.049,-682.56 247.13,-675.62"/>
<text text-anchor="middle" x="341" y="-677" font-family="Helvetica,sans-Serif" font-size="10.00"> ssl</text>
</g>
<!-- Node11 -->
<g id="node11" class="node"><title>Node11</title>
<g id="a_node11"><a xlink:title=" ">
<polygon fill="white" stroke="#bfbfbf" points="182.5,-635.5 182.5,-654.5 250.5,-654.5 250.5,-635.5 182.5,-635.5"/>
<text text-anchor="middle" x="216.5" y="-642.5" font-family="Helvetica,sans-Serif" font-size="10.00">SSL_CTX *</text>
</a>
</g>
</g>
<!-- Node11&#45;&gt;Node7 -->
<g id="edge11" class="edge"><title>Node11&#45;&gt;Node7</title>
<path fill="none" stroke="#9a32cd" stroke-dasharray="5,2" d="M260.837,-645C303.893,-645 369.42,-645 411.602,-645"/>
<polygon fill="#9a32cd" stroke="#9a32cd" points="260.671,-641.5 250.671,-645 260.671,-648.5 260.671,-641.5"/>
<text text-anchor="middle" x="341" y="-648" font-family="Helvetica,sans-Serif" font-size="10.00"> ctx</text>
</g>
<!-- Node12 -->
<g id="node12" class="node"><title>Node12</title>
<g id="a_node12"><a xlink:title=" ">
<polygon fill="white" stroke="#bfbfbf" points="194.5,-299.5 194.5,-318.5 238.5,-318.5 238.5,-299.5 194.5,-299.5"/>
<text text-anchor="middle" x="216.5" y="-306.5" font-family="Helvetica,sans-Serif" font-size="10.00">time_t</text>
</a>
</g>
</g>
<!-- Node12&#45;&gt;Node5 -->
<g id="edge31" class="edge"><title>Node12&#45;&gt;Node5</title>
<path fill="none" stroke="#9a32cd" stroke-dasharray="5,2" d="M248.878,-312.086C284.196,-315.628 343.271,-321.755 394,-328 438.979,-333.537 455.723,-319.394 495,-342 506.25,-348.475 502.62,-357.205 513,-365 644.724,-463.922 705.941,-437.289 857,-503 872.788,-509.868 890.428,-518.187 903.497,-524.478"/>
<polygon fill="#9a32cd" stroke="#9a32cd" points="249.014,-308.582 238.716,-311.073 248.319,-315.548 249.014,-308.582"/>
<text text-anchor="middle" x="554.5" y="-431" font-family="Helvetica,sans-Serif" font-size="10.00"> last_heartbeat</text>
<text text-anchor="middle" x="554.5" y="-420" font-family="Helvetica,sans-Serif" font-size="10.00">last_heartbeat_ack</text>
</g>
<!-- Node12&#45;&gt;Node7 -->
<g id="edge12" class="edge"><title>Node12&#45;&gt;Node7</title>
<path fill="none" stroke="#9a32cd" stroke-dasharray="5,2" d="M226.837,-327.869C238.131,-351.204 257.214,-392.341 270,-429 280.296,-458.519 265.206,-475.603 288,-497 323.016,-529.87 356.277,-488.276 394,-518 432.897,-548.65 446.95,-611.098 451.054,-635.203"/>
<polygon fill="#9a32cd" stroke="#9a32cd" points="229.917,-326.198 222.381,-318.75 223.627,-329.272 229.917,-326.198"/>
<text text-anchor="middle" x="341" y="-521" font-family="Helvetica,sans-Serif" font-size="10.00"> last_tick</text>
</g>
<!-- Node12&#45;&gt;Node15 -->
<g id="edge17" class="edge"><title>Node12&#45;&gt;Node15</title>
<path fill="none" stroke="#9a32cd" stroke-dasharray="5,2" d="M248.818,-303.049C261,-301.014 275.104,-299 288,-298 379.725,-290.887 403.23,-291.497 495,-298 542.307,-301.352 596.528,-309.935 630.398,-315.872"/>
<polygon fill="#9a32cd" stroke="#9a32cd" points="247.936,-299.65 238.687,-304.817 249.14,-306.546 247.936,-299.65"/>
<text text-anchor="middle" x="453.5" y="-301" font-family="Helvetica,sans-Serif" font-size="10.00"> last_identify</text>
</g>
<!-- Node13 -->
<g id="node13" class="node"><title>Node13</title>
<g id="a_node13"><a xlink:title=" ">
<polygon fill="white" stroke="#bfbfbf" points="22,-149.5 22,-168.5 73,-168.5 73,-149.5 22,-149.5"/>
<text text-anchor="middle" x="47.5" y="-156.5" font-family="Helvetica,sans-Serif" font-size="10.00">uint64_t</text>
</a>
</g>
</g>
<!-- Node13&#45;&gt;Node5 -->
<g id="edge33" class="edge"><title>Node13&#45;&gt;Node5</title>
<path fill="none" stroke="#9a32cd" stroke-dasharray="5,2" d="M57.3357,-139.802C78.2753,-97.5032 135.247,-0 215.5,-0 215.5,-0 215.5,-0 665.5,-0 774.997,-0 801.515,-60.6018 857,-155 895.751,-220.928 917.986,-472.177 922.246,-524.442"/>
<polygon fill="#9a32cd" stroke="#9a32cd" points="54.0673,-138.524 52.8982,-149.054 60.3788,-141.551 54.0673,-138.524"/>
<text text-anchor="middle" x="453.5" y="-3" font-family="Helvetica,sans-Serif" font-size="10.00"> last_seq</text>
</g>
<!-- Node13&#45;&gt;Node7 -->
<g id="edge13" class="edge"><title>Node13&#45;&gt;Node7</title>
<path fill="none" stroke="#9a32cd" stroke-dasharray="5,2" d="M52.8582,-178.653C64.7049,-229.37 100.844,-367.627 163,-467 205.675,-535.228 219.124,-556.379 288,-598 326.513,-621.273 377.054,-633.46 411.898,-639.533"/>
<polygon fill="#9a32cd" stroke="#9a32cd" points="56.2246,-177.673 50.5864,-168.703 49.4002,-179.232 56.2246,-177.673"/>
<text text-anchor="middle" x="216.5" y="-601" font-family="Helvetica,sans-Serif" font-size="10.00"> bytes_in</text>
<text text-anchor="middle" x="216.5" y="-590" font-family="Helvetica,sans-Serif" font-size="10.00">bytes_out</text>
</g>
<!-- Node19 -->
<g id="node19" class="node"><title>Node19</title>
<g id="a_node19"><a xlink:href="a01242.html" target="_top" xlink:title="The managed class is the base class for various types that can be stored in a cache that are identifi...">
<polygon fill="white" stroke="black" points="177.5,-187.5 177.5,-206.5 255.5,-206.5 255.5,-187.5 177.5,-187.5"/>
<text text-anchor="middle" x="216.5" y="-194.5" font-family="Helvetica,sans-Serif" font-size="10.00">dpp::managed</text>
</a>
</g>
</g>
<!-- Node13&#45;&gt;Node19 -->
<g id="edge23" class="edge"><title>Node13&#45;&gt;Node19</title>
<path fill="none" stroke="#9a32cd" stroke-dasharray="5,2" d="M83.1071,-166.875C110.621,-173.135 149.068,-181.884 177.445,-188.341"/>
<polygon fill="#9a32cd" stroke="#9a32cd" points="83.6688,-163.413 73.1414,-164.607 82.1156,-170.239 83.6688,-163.413"/>
<text text-anchor="middle" x="129" y="-184" font-family="Helvetica,sans-Serif" font-size="10.00"> id</text>
</g>
<!-- Node21 -->
<g id="node21" class="node"><title>Node21</title>
<g id="a_node21"><a xlink:href="a01246.html" target="_top" xlink:title="Store a 128 bit icon hash (profile picture, server icon etc) as a 128 bit binary value made of two ui...">
<polygon fill="white" stroke="black" points="163,-111.5 163,-130.5 270,-130.5 270,-111.5 163,-111.5"/>
<text text-anchor="middle" x="216.5" y="-118.5" font-family="Helvetica,sans-Serif" font-size="10.00">dpp::utility::iconhash</text>
</a>
</g>
</g>
<!-- Node13&#45;&gt;Node21 -->
<g id="edge27" class="edge"><title>Node13&#45;&gt;Node21</title>
<path fill="none" stroke="#9a32cd" stroke-dasharray="5,2" d="M83.0387,-151.141C109.329,-145.159 145.631,-136.898 173.585,-130.538"/>
<polygon fill="#9a32cd" stroke="#9a32cd" points="82.1156,-147.761 73.1414,-153.393 83.6688,-154.587 82.1156,-147.761"/>
<text text-anchor="middle" x="129" y="-158" font-family="Helvetica,sans-Serif" font-size="10.00"> first</text>
<text text-anchor="middle" x="129" y="-147" font-family="Helvetica,sans-Serif" font-size="10.00">second</text>
</g>
<!-- Node14 -->
<g id="node14" class="node"><title>Node14</title>
<g id="a_node14"><a xlink:title=" ">
<polygon fill="white" stroke="#bfbfbf" points="188,-438.5 188,-457.5 245,-457.5 245,-438.5 188,-438.5"/>
<text text-anchor="middle" x="216.5" y="-445.5" font-family="Helvetica,sans-Serif" font-size="10.00">function&lt;</text>
</a>
</g>
</g>
<!-- Node14&#45;&gt;Node7 -->
<g id="edge14" class="edge"><title>Node14&#45;&gt;Node7</title>
<path fill="none" stroke="#9a32cd" stroke-dasharray="5,2" d="M228.101,-466.489C240.112,-485.694 261.506,-515.113 288,-531 329.344,-555.792 354.392,-526.519 394,-554 423.936,-574.77 442.096,-616.32 449.136,-635.227"/>
<polygon fill="#9a32cd" stroke="#9a32cd" points="230.993,-464.506 222.837,-457.744 224.996,-468.116 230.993,-464.506"/>
<text text-anchor="middle" x="341" y="-590" font-family="Helvetica,sans-Serif" font-size="10.00"> custom_readable_fd</text>
<text text-anchor="middle" x="341" y="-579" font-family="Helvetica,sans-Serif" font-size="10.00">custom_readable_ready</text>
<text text-anchor="middle" x="341" y="-568" font-family="Helvetica,sans-Serif" font-size="10.00">custom_writeable_fd</text>
<text text-anchor="middle" x="341" y="-557" font-family="Helvetica,sans-Serif" font-size="10.00">custom_writeable_ready</text>
</g>
<!-- Node17 -->
<g id="node17" class="node"><title>Node17</title>
<g id="a_node17"><a xlink:href="a01478.html" target="_top" xlink:title="The dispatcher class contains a set of std::functions representing hooked events that the user code i...">
<polygon fill="white" stroke="black" points="412,-351.5 412,-370.5 495,-370.5 495,-351.5 412,-351.5"/>
<text text-anchor="middle" x="453.5" y="-358.5" font-family="Helvetica,sans-Serif" font-size="10.00">dpp::dispatcher</text>
</a>
</g>
</g>
<!-- Node14&#45;&gt;Node17 -->
<g id="edge20" class="edge"><title>Node14&#45;&gt;Node17</title>
<path fill="none" stroke="#9a32cd" stroke-dasharray="5,2" d="M223.881,-428.919C233.393,-403.93 253.923,-361.166 288,-343 334.395,-318.268 398.519,-338.093 431.318,-351.411"/>
<polygon fill="#9a32cd" stroke="#9a32cd" points="220.556,-427.823 220.471,-438.418 227.144,-430.188 220.556,-427.823"/>
<text text-anchor="start" x="292" y="-489" font-family="Helvetica,sans-Serif" font-size="10.00"> application_command</text>
<text text-anchor="middle" x="341" y="-478" font-family="Helvetica,sans-Serif" font-size="10.00">_create</text>
<text text-anchor="start" x="292" y="-467" font-family="Helvetica,sans-Serif" font-size="10.00">application_command</text>
<text text-anchor="middle" x="341" y="-456" font-family="Helvetica,sans-Serif" font-size="10.00">_delete</text>
<text text-anchor="start" x="292" y="-445" font-family="Helvetica,sans-Serif" font-size="10.00">application_command</text>
<text text-anchor="middle" x="341" y="-434" font-family="Helvetica,sans-Serif" font-size="10.00">_update</text>
<text text-anchor="middle" x="341" y="-423" font-family="Helvetica,sans-Serif" font-size="10.00">channel_create</text>
<text text-anchor="middle" x="341" y="-412" font-family="Helvetica,sans-Serif" font-size="10.00">channel_delete</text>
<text text-anchor="middle" x="341" y="-401" font-family="Helvetica,sans-Serif" font-size="10.00">channel_pins_update</text>
<text text-anchor="middle" x="341" y="-390" font-family="Helvetica,sans-Serif" font-size="10.00">channel_update</text>
<text text-anchor="middle" x="341" y="-379" font-family="Helvetica,sans-Serif" font-size="10.00">guild_ban_add</text>
<text text-anchor="middle" x="341" y="-368" font-family="Helvetica,sans-Serif" font-size="10.00">guild_ban_remove</text>
<text text-anchor="middle" x="341" y="-357" font-family="Helvetica,sans-Serif" font-size="10.00">guild_create</text>
<text text-anchor="middle" x="341" y="-346" font-family="Helvetica,sans-Serif" font-size="10.00">...</text>
</g>
<!-- Node15&#45;&gt;Node5 -->
<g id="edge15" class="edge"><title>Node15&#45;&gt;Node5</title>
<path fill="none" stroke="#9a32cd" stroke-dasharray="5,2" d="M708.493,-331.593C750.725,-342.915 814.796,-365.411 857,-405 894.246,-439.938 913.923,-500.582 920.474,-524.194"/>
<polygon fill="#9a32cd" stroke="#9a32cd" points="709.337,-328.196 698.78,-329.082 707.585,-334.973 709.337,-328.196"/>
<text text-anchor="middle" x="795" y="-408" font-family="Helvetica,sans-Serif" font-size="10.00"> creator</text>
</g>
<!-- Node16 -->
<g id="node16" class="node"><title>Node16</title>
<g id="a_node16"><a xlink:title=" ">
<polygon fill="white" stroke="#bfbfbf" points="191,-54.5 191,-73.5 242,-73.5 242,-54.5 191,-54.5"/>
<text text-anchor="middle" x="216.5" y="-61.5" font-family="Helvetica,sans-Serif" font-size="10.00">uint32_t</text>
</a>
</g>
</g>
<!-- Node16&#45;&gt;Node5 -->
<g id="edge30" class="edge"><title>Node16&#45;&gt;Node5</title>
<path fill="none" stroke="#9a32cd" stroke-dasharray="5,2" d="M252.346,-55.9216C321.502,-41.7111 479.464,-18.4397 596,-71 746.693,-138.965 770.626,-195.049 857,-336 897.136,-401.498 916.059,-494.301 921.378,-524.268"/>
<polygon fill="#9a32cd" stroke="#9a32cd" points="251.472,-52.529 242.416,-58.0269 252.924,-59.3768 251.472,-52.529"/>
<text text-anchor="middle" x="554.5" y="-129" font-family="Helvetica,sans-Serif" font-size="10.00"> heartbeat_interval</text>
<text text-anchor="middle" x="554.5" y="-118" font-family="Helvetica,sans-Serif" font-size="10.00">intents</text>
<text text-anchor="middle" x="554.5" y="-107" font-family="Helvetica,sans-Serif" font-size="10.00">max_shards</text>
<text text-anchor="middle" x="554.5" y="-96" font-family="Helvetica,sans-Serif" font-size="10.00">reconnects</text>
<text text-anchor="middle" x="554.5" y="-85" font-family="Helvetica,sans-Serif" font-size="10.00">resumes</text>
<text text-anchor="middle" x="554.5" y="-74" font-family="Helvetica,sans-Serif" font-size="10.00">shard_id</text>
</g>
<!-- Node16&#45;&gt;Node15 -->
<g id="edge18" class="edge"><title>Node16&#45;&gt;Node15</title>
<path fill="none" stroke="#9a32cd" stroke-dasharray="5,2" d="M252.299,-62.9134C288.39,-62.6716 346.132,-64.7823 394,-78 442.281,-91.332 452.933,-100.811 495,-128 543.797,-159.538 557.923,-167.114 596,-211 625.118,-244.561 649.394,-292.201 659.037,-312.378"/>
<polygon fill="#9a32cd" stroke="#9a32cd" points="252.227,-59.4139 242.274,-63.0453 252.32,-66.4133 252.227,-59.4139"/>
<text text-anchor="middle" x="453.5" y="-164" font-family="Helvetica,sans-Serif" font-size="10.00"> cluster_id</text>
<text text-anchor="middle" x="453.5" y="-153" font-family="Helvetica,sans-Serif" font-size="10.00">intents</text>
<text text-anchor="middle" x="453.5" y="-142" font-family="Helvetica,sans-Serif" font-size="10.00">maxclusters</text>
<text text-anchor="middle" x="453.5" y="-131" font-family="Helvetica,sans-Serif" font-size="10.00">numshards</text>
</g>
<!-- Node16&#45;&gt;Node18 -->
<g id="edge28" class="edge"><title>Node16&#45;&gt;Node18</title>
<path fill="none" stroke="#9a32cd" stroke-dasharray="5,2" d="M251.973,-69.6021C296.998,-77.5113 372.612,-93.0102 394,-111 408.61,-123.288 401.129,-134.307 412,-150 420.318,-162.008 432.321,-173.655 441.101,-181.447"/>
<polygon fill="#9a32cd" stroke="#9a32cd" points="252.497,-66.1409 242.048,-67.8945 251.31,-73.0396 252.497,-66.1409"/>
<text text-anchor="middle" x="341" y="-114" font-family="Helvetica,sans-Serif" font-size="10.00"> flags</text>
</g>
<!-- Node17&#45;&gt;Node15 -->
<g id="edge19" class="edge"><title>Node17&#45;&gt;Node15</title>
<path fill="none" stroke="#9a32cd" stroke-dasharray="5,2" d="M505.371,-351.507C544.265,-344.25 596.755,-334.455 630.373,-328.182"/>
<polygon fill="#9a32cd" stroke="#9a32cd" points="504.482,-348.113 495.293,-353.388 505.766,-354.994 504.482,-348.113"/>
<text text-anchor="middle" x="554.5" y="-353" font-family="Helvetica,sans-Serif" font-size="10.00"> dispatch</text>
</g>
<!-- Node18&#45;&gt;Node15 -->
<g id="edge21" class="edge"><title>Node18&#45;&gt;Node15</title>
<path fill="none" stroke="#9a32cd" stroke-dasharray="5,2" d="M489.539,-204.339C519.188,-216.426 562.135,-235.859 596,-259 619.294,-274.917 642.463,-298.726 654.669,-312.051"/>
<polygon fill="#9a32cd" stroke="#9a32cd" points="490.61,-200.998 480.026,-200.527 488.006,-207.495 490.61,-200.998"/>
<text text-anchor="middle" x="554.5" y="-262" font-family="Helvetica,sans-Serif" font-size="10.00"> me</text>
</g>
<!-- Node19&#45;&gt;Node18 -->
<g id="edge22" class="edge"><title>Node19&#45;&gt;Node18</title>
<path fill="none" stroke="midnightblue" d="M265.675,-195.77C313.682,-194.544 385.723,-192.705 424.837,-191.706"/>
<polygon fill="midnightblue" stroke="midnightblue" points="265.425,-192.275 255.518,-196.029 265.604,-199.273 265.425,-192.275"/>
</g>
<!-- Node20 -->
<g id="node20" class="node"><title>Node20</title>
<g id="a_node20"><a xlink:title=" ">
<polygon fill="white" stroke="#bfbfbf" points="191,-225.5 191,-244.5 242,-244.5 242,-225.5 191,-225.5"/>
<text text-anchor="middle" x="216.5" y="-232.5" font-family="Helvetica,sans-Serif" font-size="10.00">uint16_t</text>
</a>
</g>
</g>
<!-- Node20&#45;&gt;Node18 -->
<g id="edge25" class="edge"><title>Node20&#45;&gt;Node18</title>
<path fill="none" stroke="#9a32cd" stroke-dasharray="5,2" d="M251.934,-228.573C287.509,-221.93 344.641,-211.255 394,-202 404.056,-200.115 415.083,-198.042 424.826,-196.21"/>
<polygon fill="#9a32cd" stroke="#9a32cd" points="251.245,-225.141 242.057,-230.417 252.53,-232.022 251.245,-225.141"/>
<text text-anchor="middle" x="341" y="-225" font-family="Helvetica,sans-Serif" font-size="10.00"> discriminator</text>
</g>
<!-- Node21&#45;&gt;Node18 -->
<g id="edge26" class="edge"><title>Node21&#45;&gt;Node18</title>
<path fill="none" stroke="#9a32cd" stroke-dasharray="5,2" d="M280.117,-124.448C314.719,-128.02 357.882,-135.277 394,-150 412.376,-157.491 430.633,-171.634 441.742,-181.187"/>
<polygon fill="#9a32cd" stroke="#9a32cd" points="280.423,-120.961 270.136,-123.494 279.757,-127.929 280.423,-120.961"/>
<text text-anchor="middle" x="341" y="-153" font-family="Helvetica,sans-Serif" font-size="10.00"> avatar</text>
</g>
<!-- Node22 -->
<g id="node22" class="node"><title>Node22</title>
<g id="a_node22"><a xlink:title=" ">
<polygon fill="white" stroke="#bfbfbf" points="193.5,-149.5 193.5,-168.5 239.5,-168.5 239.5,-149.5 193.5,-149.5"/>
<text text-anchor="middle" x="216.5" y="-156.5" font-family="Helvetica,sans-Serif" font-size="10.00">uint8_t</text>
</a>
</g>
</g>
<!-- Node22&#45;&gt;Node18 -->
<g id="edge29" class="edge"><title>Node22&#45;&gt;Node18</title>
<path fill="none" stroke="#9a32cd" stroke-dasharray="5,2" d="M249.863,-161.395C285.372,-164.276 343.978,-169.776 394,-178 404.164,-179.671 415.215,-181.994 424.948,-184.214"/>
<polygon fill="#9a32cd" stroke="#9a32cd" points="249.864,-157.885 239.62,-160.585 249.312,-164.863 249.864,-157.885"/>
<text text-anchor="middle" x="341" y="-181" font-family="Helvetica,sans-Serif" font-size="10.00"> refcount</text>
</g>
<!-- Node23 -->
<g id="node23" class="node"><title>Node23</title>
<g id="a_node23"><a xlink:title=" ">
<polygon fill="white" stroke="#bfbfbf" points="614,-524.5 614,-543.5 715,-543.5 715,-524.5 614,-524.5"/>
<text text-anchor="middle" x="664.5" y="-531.5" font-family="Helvetica,sans-Serif" font-size="10.00">native_handle_type</text>
</a>
</g>
</g>
<!-- Node23&#45;&gt;Node5 -->
<g id="edge32" class="edge"><title>Node23&#45;&gt;Node5</title>
<path fill="none" stroke="#9a32cd" stroke-dasharray="5,2" d="M725.171,-534C770.645,-534 832.453,-534 874.812,-534"/>
<polygon fill="#9a32cd" stroke="#9a32cd" points="725.149,-530.5 715.149,-534 725.149,-537.5 725.149,-530.5"/>
<text text-anchor="middle" x="795" y="-537" font-family="Helvetica,sans-Serif" font-size="10.00"> thread_id</text>
</g>
<!-- Node24 -->
<g id="node24" class="node"><title>Node24</title>
<g id="a_node24"><a xlink:title=" ">
<polygon fill="white" stroke="#bfbfbf" points="633,-600.5 633,-619.5 696,-619.5 696,-600.5 633,-600.5"/>
<text text-anchor="middle" x="664.5" y="-607.5" font-family="Helvetica,sans-Serif" font-size="10.00">std::mutex</text>
</a>
</g>
</g>
<!-- Node24&#45;&gt;Node5 -->
<g id="edge35" class="edge"><title>Node24&#45;&gt;Node5</title>
<path fill="none" stroke="#9a32cd" stroke-dasharray="5,2" d="M706.289,-609.28C746.076,-607.334 807.643,-600.975 857,-581 878.906,-572.134 900.484,-554.664 912.731,-543.7"/>
<polygon fill="#9a32cd" stroke="#9a32cd" points="706.014,-605.788 696.169,-609.702 706.306,-612.782 706.014,-605.788"/>
<text text-anchor="middle" x="795" y="-611" font-family="Helvetica,sans-Serif" font-size="10.00"> voice_mutex</text>
</g>
<!-- Node25 -->
<g id="node25" class="node"><title>Node25</title>
<g id="a_node25"><a xlink:title=" ">
<polygon fill="white" stroke="#bfbfbf" points="620,-562.5 620,-581.5 709,-581.5 709,-562.5 620,-562.5"/>
<text text-anchor="middle" x="664.5" y="-569.5" font-family="Helvetica,sans-Serif" font-size="10.00">unordered_map&lt;</text>
</a>
</g>
</g>
<!-- Node25&#45;&gt;Node5 -->
<g id="edge37" class="edge"><title>Node25&#45;&gt;Node5</title>
<path fill="none" stroke="#9a32cd" stroke-dasharray="5,2" d="M719.002,-567.078C757.526,-563.169 810.66,-557.026 857,-549 865.799,-547.476 875.191,-545.535 884.048,-543.558"/>
<polygon fill="#9a32cd" stroke="#9a32cd" points="718.642,-563.597 709.039,-568.073 719.337,-570.562 718.642,-563.597"/>
<text text-anchor="middle" x="795" y="-569" font-family="Helvetica,sans-Serif" font-size="10.00"> connecting_voice_channels</text>
</g>
</g>
</svg>
        <g id="navigator" transform="translate(0 0)" fill="#404254">
                <rect fill="#f2f5e9" fill-opacity="0.5" stroke="#606060" stroke-width=".5" x="0" y="0" width="60" height="60"/>
                <use id="zoomplus" xlink:href="#zoomPlus" x="17" y="9" onmousedown="handleZoom(evt,'in')"/>
                <use id="zoomminus" xlink:href="#zoomMin" x="42" y="9" onmousedown="handleZoom(evt,'out')"/>
                <use id="reset" xlink:href="#resetDef" x="30" y="36" onmousedown="handleReset()"/>
                <g id="arrowUp" xlink:href="#dirArrow" transform="translate(30 24)" onmousedown="handlePan(0,-1)">
                  <use xlink:href="#rim" fill="#404040">
                        <set attributeName="fill" to="#808080" begin="arrowUp.mouseover" end="arrowUp.mouseout"/>
                  </use>
                  <path fill="none" stroke="white" stroke-width="1.5" d="M0,-3.0v7 M-2.5,-0.5L0,-3.0L2.5,-0.5"/>
                </g>
                <g id="arrowRight" xlink:href="#dirArrow" transform="rotate(90) translate(36 -43)" onmousedown="handlePan(1,0)">
                  <use xlink:href="#rim" fill="#404040">
                        <set attributeName="fill" to="#808080" begin="arrowRight.mouseover" end="arrowRight.mouseout"/>
                  </use>
                  <path fill="none" stroke="white" stroke-width="1.5" d="M0,-3.0v7 M-2.5,-0.5L0,-3.0L2.5,-0.5"/>
                </g>
                <g id="arrowDown" xlink:href="#dirArrow" transform="rotate(180) translate(-30 -48)" onmousedown="handlePan(0,1)">
                  <use xlink:href="#rim" fill="#404040">
                        <set attributeName="fill" to="#808080" begin="arrowDown.mouseover" end="arrowDown.mouseout"/>
                  </use>
                  <path fill="none" stroke="white" stroke-width="1.5" d="M0,-3.0v7 M-2.5,-0.5L0,-3.0L2.5,-0.5"/>
                </g>
                <g id="arrowLeft" xlink:href="#dirArrow" transform="rotate(270) translate(-36 17)" onmousedown="handlePan(-1,0)">
                  <use xlink:href="#rim" fill="#404040">
                        <set attributeName="fill" to="#808080" begin="arrowLeft.mouseover" end="arrowLeft.mouseout"/>
                  </use>
                  <path fill="none" stroke="white" stroke-width="1.5" d="M0,-3.0v7 M-2.5,-0.5L0,-3.0L2.5,-0.5"/>
                </g>
        </g>
        <svg viewBox="0 0 15 15" width="100%" height="30px" preserveAspectRatio="xMaxYMin meet">
         <g id="arrow_out" transform="scale(0.3 0.3)">
          <a xlink:href="a01320_org.svg" target="_base">
           <rect id="button" ry="5" rx="5" y="6" x="6" height="38" width="38"
                fill="#f2f5e9" fill-opacity="0.5" stroke="#606060" stroke-width="1.0"/>
           <path id="arrow"
             d="M 11.500037,31.436501 C 11.940474,20.09759 22.043105,11.32322 32.158766,21.979434 L 37.068811,17.246167 C 37.068811,17.246167 37.088388,32 37.088388,32 L 22.160133,31.978069 C 22.160133,31.978069 26.997745,27.140456 26.997745,27.140456 C 18.528582,18.264221 13.291696,25.230495 11.500037,31.436501 z"
             style="fill:#404040;"/>
          </a>
         </g>
        </svg>
</svg>
