<?xml version="1.0" encoding="UTF-8" standalone="no"?>
<!DOCTYPE svg PUBLIC "-//W3C//DTD SVG 1.1//EN"
 "http://www.w3.org/Graphics/SVG/1.1/DTD/svg11.dtd">
<!-- Generated by graphviz version 2.43.0 (0)
 -->
<!-- Title: dpp::DiscordVoiceClient Pages: 1 -->
<!--zoomable 498 -->
<svg id="main" version="1.1" xmlns="http://www.w3.org/2000/svg" xmlns:xlink="http://www.w3.org/1999/xlink" xml:space="preserve" onload="init(evt)">
<style type="text/css"><![CDATA[
.edge:hover path { stroke: red; }
.edge:hover polygon { stroke: red; fill: red; }
]]></style>
<script type="text/javascript"><![CDATA[
var edges = document.getElementsByTagName('g');
if (edges && edges.length) {
  for (var i=0;i<edges.length;i++) {
    if (edges[i].id.substr(0,4)=='edge') {
      edges[i].setAttribute('class','edge');
    }
  }
}
]]></script>
        <defs>
                <circle id="rim" cx="0" cy="0" r="7"/>
                <circle id="rim2" cx="0" cy="0" r="3.5"/>
                <g id="zoomPlus">
                        <use xlink:href="#rim" fill="#404040">
                                <set attributeName="fill" to="#808080" begin="zoomplus.mouseover" end="zoomplus.mouseout"/>
                        </use>
                        <path d="M-4,0h8M0,-4v8" fill="none" stroke="white" stroke-width="1.5" pointer-events="none"/>
                </g>
                <g id="zoomMin">
                        <use xlink:href="#rim" fill="#404040">
                                <set attributeName="fill" to="#808080" begin="zoomminus.mouseover" end="zoomminus.mouseout"/>
                        </use>
                        <path d="M-4,0h8" fill="none" stroke="white" stroke-width="1.5" pointer-events="none"/>
                </g>
                <g id="dirArrow">
                        <path fill="none" stroke="white" stroke-width="1.5" d="M0,-3.0v7 M-2.5,-0.5L0,-3.0L2.5,-0.5"/>
                </g>
               <g id="resetDef">
                       <use xlink:href="#rim2" fill="#404040">
                               <set attributeName="fill" to="#808080" begin="reset.mouseover" end="reset.mouseout"/>
                       </use>
               </g>
        </defs>

<script type="text/javascript">
var viewWidth = 1420;
var viewHeight = 498;
var sectionId = 'dynsection-1';
</script>
<script xlink:href="svgpan.js"/>
<svg id="graph" class="graph">
<g id="viewport">
<title>dpp::DiscordVoiceClient</title>
<!-- Node1 -->
<g id="node1" class="node">
<title>Node1</title>
<g id="a_node1"><a xlink:title="Implements a discord voice connection. Each DiscordVoiceClient connects to one voice channel and deri...">
<polygon fill="#bfbfbf" stroke="black" points="700.28,-0.5 700.28,-19.5 832.28,-19.5 832.28,-0.5 700.28,-0.5"/>
<text text-anchor="middle" x="766.28" y="-7.5" font-family="Helvetica,sans-Serif" font-size="10.00">dpp::DiscordVoiceClient</text>
</a>
</g>
</g>
<!-- Node2 -->
<g id="node2" class="node">
<title>Node2</title>
<g id="a_node2"><a xlink:href="classdpp_1_1_w_s_client.html" target="_top" xlink:title="Implements a websocket client based on the SSL client.">
<polygon fill="none" stroke="black" points="354.78,-67.5 354.78,-86.5 439.78,-86.5 439.78,-67.5 354.78,-67.5"/>
<text text-anchor="middle" x="397.28" y="-74.5" font-family="Helvetica,sans-Serif" font-size="10.00">dpp::WSClient</text>
</a>
</g>
</g>
<!-- Node2&#45;&gt;Node1 -->
<g id="edge1" class="edge">
<title>Node2&#45;&gt;Node1</title>
<path fill="none" stroke="midnightblue" d="M449.89,-65.95C491.27,-58.11 550.4,-47.08 602.28,-38 639.09,-31.56 680.63,-24.73 712.69,-19.54"/>
<polygon fill="midnightblue" stroke="midnightblue" points="449.21,-62.51 440.03,-67.82 450.51,-69.39 449.21,-62.51"/>
</g>
<!-- Node3 -->
<g id="node3" class="node">
<title>Node3</title>
<g id="a_node3"><a xlink:href="classdpp_1_1_s_s_l_client.html" target="_top" xlink:title="Implements a simple non&#45;blocking SSL stream client.">
<polygon fill="none" stroke="black" points="205.28,-157.5 205.28,-176.5 291.28,-176.5 291.28,-157.5 205.28,-157.5"/>
<text text-anchor="middle" x="248.28" y="-164.5" font-family="Helvetica,sans-Serif" font-size="10.00">dpp::SSLClient</text>
</a>
</g>
</g>
<!-- Node3&#45;&gt;Node2 -->
<g id="edge2" class="edge">
<title>Node3&#45;&gt;Node2</title>
<path fill="none" stroke="midnightblue" d="M271.73,-152.15C302.92,-133.73 357.12,-101.72 382.88,-86.5"/>
<polygon fill="midnightblue" stroke="midnightblue" points="269.67,-149.3 262.84,-157.4 273.23,-155.33 269.67,-149.3"/>
</g>
<!-- Node4 -->
<g id="node4" class="node">
<title>Node4</title>
<g id="a_node4"><a xlink:title=" ">
<polygon fill="none" stroke="#bfbfbf" points="583.78,-380.5 583.78,-399.5 648.78,-399.5 648.78,-380.5 583.78,-380.5"/>
<text text-anchor="middle" x="616.28" y="-387.5" font-family="Helvetica,sans-Serif" font-size="10.00">std::string</text>
</a>
</g>
</g>
<!-- Node4&#45;&gt;Node1 -->
<g id="edge31" class="edge">
<title>Node4&#45;&gt;Node1</title>
<path fill="none" stroke="#9a32cd" stroke-dasharray="5,2" d="M615.25,-370.02C612.53,-314.11 606.93,-151.05 631.28,-105 654.91,-60.31 710.4,-32.48 742.4,-19.56"/>
<polygon fill="#9a32cd" stroke="#9a32cd" points="611.77,-370.44 615.78,-380.25 618.76,-370.08 611.77,-370.44"/>
<text text-anchor="middle" x="655.78" y="-119" font-family="Helvetica,sans-Serif" font-size="10.00"> sessionid</text>
<text text-anchor="middle" x="655.78" y="-108" font-family="Helvetica,sans-Serif" font-size="10.00">token</text>
</g>
<!-- Node4&#45;&gt;Node3 -->
<g id="edge3" class="edge">
<title>Node4&#45;&gt;Node3</title>
<path fill="none" stroke="#9a32cd" stroke-dasharray="5,2" d="M573.53,-388.97C520.9,-387.96 435.83,-382.87 414.28,-361 365.88,-311.87 440.61,-258.98 395.28,-207 381.7,-191.43 329.79,-180.32 291.49,-174.04"/>
<polygon fill="#9a32cd" stroke="#9a32cd" points="573.54,-392.47 583.59,-389.12 573.64,-385.47 573.54,-392.47"/>
<text text-anchor="middle" x="438.78" y="-303.5" font-family="Helvetica,sans-Serif" font-size="10.00"> buffer</text>
<text text-anchor="middle" x="438.78" y="-292.5" font-family="Helvetica,sans-Serif" font-size="10.00">cipher</text>
<text text-anchor="middle" x="438.78" y="-281.5" font-family="Helvetica,sans-Serif" font-size="10.00">hostname</text>
<text text-anchor="middle" x="438.78" y="-270.5" font-family="Helvetica,sans-Serif" font-size="10.00">obuffer</text>
<text text-anchor="middle" x="438.78" y="-259.5" font-family="Helvetica,sans-Serif" font-size="10.00">port</text>
</g>
<!-- Node13 -->
<g id="node13" class="node">
<title>Node13</title>
<g id="a_node13"><a xlink:href="classdpp_1_1cluster.html" target="_top" xlink:title="The cluster class represents a group of shards and a command queue for sending and receiving commands...">
<polygon fill="none" stroke="black" points="820.28,-67.5 820.28,-86.5 894.28,-86.5 894.28,-67.5 820.28,-67.5"/>
<text text-anchor="middle" x="857.28" y="-74.5" font-family="Helvetica,sans-Serif" font-size="10.00">dpp::cluster</text>
</a>
</g>
</g>
<!-- Node4&#45;&gt;Node13 -->
<g id="edge13" class="edge">
<title>Node4&#45;&gt;Node13</title>
<path fill="none" stroke="#9a32cd" stroke-dasharray="5,2" d="M624.02,-370.79C625.23,-367.57 626.37,-364.21 627.28,-361 646.31,-294.09 612.52,-261.87 655.28,-207 708.1,-139.23 768.69,-185.87 831.28,-127 843.35,-115.65 850.94,-97.43 854.62,-86.7"/>
<polygon fill="#9a32cd" stroke="#9a32cd" points="620.67,-369.74 620.2,-380.32 627.17,-372.35 620.67,-369.74"/>
<text text-anchor="middle" x="822.78" y="-164.5" font-family="Helvetica,sans-Serif" font-size="10.00"> token</text>
</g>
<!-- Node16 -->
<g id="node16" class="node">
<title>Node16</title>
<g id="a_node16"><a xlink:href="classdpp_1_1user.html" target="_top" xlink:title="Represents a user on discord. May or may not be a member of a dpp::guild.">
<polygon fill="none" stroke="black" points="927.28,-157.5 927.28,-176.5 989.28,-176.5 989.28,-157.5 927.28,-157.5"/>
<text text-anchor="middle" x="958.28" y="-164.5" font-family="Helvetica,sans-Serif" font-size="10.00">dpp::user</text>
</a>
</g>
</g>
<!-- Node4&#45;&gt;Node16 -->
<g id="edge21" class="edge">
<title>Node4&#45;&gt;Node16</title>
<path fill="none" stroke="#9a32cd" stroke-dasharray="5,2" d="M640.56,-374.3C645.1,-370.5 649.34,-366.04 652.28,-361 687.21,-301.26 624.64,-254.16 675.28,-207 694.28,-189.3 883.04,-195.11 908.28,-189 919.81,-186.21 932.11,-181.08 941.62,-176.59"/>
<polygon fill="#9a32cd" stroke="#9a32cd" points="638.26,-371.65 632.28,-380.39 642.41,-377.29 638.26,-371.65"/>
<text text-anchor="middle" x="701.28" y="-281.5" font-family="Helvetica,sans-Serif" font-size="10.00"> username</text>
</g>
<!-- Node5 -->
<g id="node5" class="node">
<title>Node5</title>
<g id="a_node5"><a xlink:title=" ">
<polygon fill="none" stroke="#bfbfbf" points="307.28,-459.5 307.28,-489.5 411.28,-489.5 411.28,-459.5 307.28,-459.5"/>
<text text-anchor="start" x="315.28" y="-477.5" font-family="Helvetica,sans-Serif" font-size="10.00">std::basic_string&lt;</text>
<text text-anchor="middle" x="359.28" y="-466.5" font-family="Helvetica,sans-Serif" font-size="10.00"> Char &gt;</text>
</a>
</g>
</g>
<!-- Node5&#45;&gt;Node4 -->
<g id="edge4" class="edge">
<title>Node5&#45;&gt;Node4</title>
<path fill="none" stroke="midnightblue" d="M412.92,-456.28C466.88,-438.96 547.9,-412.95 589.51,-399.59"/>
<polygon fill="midnightblue" stroke="midnightblue" points="411.62,-453.02 403.17,-459.41 413.76,-459.69 411.62,-453.02"/>
</g>
<!-- Node6 -->
<g id="node6" class="node">
<title>Node6</title>
<g id="a_node6"><a xlink:title=" ">
<polygon fill="none" stroke="#bfbfbf" points="0.28,-380.5 0.28,-399.5 38.28,-399.5 38.28,-380.5 0.28,-380.5"/>
<text text-anchor="middle" x="19.28" y="-387.5" font-family="Helvetica,sans-Serif" font-size="10.00">bool</text>
</a>
</g>
</g>
<!-- Node6&#45;&gt;Node1 -->
<g id="edge27" class="edge">
<title>Node6&#45;&gt;Node1</title>
<path fill="none" stroke="#9a32cd" stroke-dasharray="5,2" d="M13.34,-370.35C3.39,-335.35 -12.59,-258.69 19.28,-207 72.28,-121.06 128.61,-142.7 222.28,-105 385.88,-39.16 595.34,-19.4 700.22,-13.5"/>
<polygon fill="#9a32cd" stroke="#9a32cd" points="10.06,-371.6 16.29,-380.17 16.77,-369.58 10.06,-371.6"/>
<text text-anchor="middle" x="268.78" y="-119" font-family="Helvetica,sans-Serif" font-size="10.00"> sodium_initialised</text>
<text text-anchor="middle" x="268.78" y="-108" font-family="Helvetica,sans-Serif" font-size="10.00">terminating</text>
</g>
<!-- Node6&#45;&gt;Node3 -->
<g id="edge5" class="edge">
<title>Node6&#45;&gt;Node3</title>
<path fill="none" stroke="#9a32cd" stroke-dasharray="5,2" d="M18.18,-370.16C16.18,-328.52 13.91,-230.47 35.28,-207 57.49,-182.61 149.36,-173.33 204.93,-169.91"/>
<polygon fill="#9a32cd" stroke="#9a32cd" points="14.7,-370.5 18.72,-380.3 21.69,-370.13 14.7,-370.5"/>
<text text-anchor="middle" x="66.78" y="-281.5" font-family="Helvetica,sans-Serif" font-size="10.00"> nonblocking</text>
</g>
<!-- Node7 -->
<g id="node7" class="node">
<title>Node7</title>
<g id="a_node7"><a xlink:title=" ">
<polygon fill="none" stroke="#bfbfbf" points="215.78,-380.5 215.78,-399.5 244.78,-399.5 244.78,-380.5 215.78,-380.5"/>
<text text-anchor="middle" x="230.28" y="-387.5" font-family="Helvetica,sans-Serif" font-size="10.00">int</text>
</a>
</g>
</g>
<!-- Node7&#45;&gt;Node3 -->
<g id="edge6" class="edge">
<title>Node7&#45;&gt;Node3</title>
<path fill="none" stroke="#9a32cd" stroke-dasharray="5,2" d="M213.6,-372.36C211.01,-368.87 208.72,-365.02 207.28,-361 184.21,-296.56 180.3,-269.9 207.28,-207 212.78,-194.18 224.79,-183.58 234.4,-176.69"/>
<polygon fill="#9a32cd" stroke="#9a32cd" points="211.17,-374.9 220.34,-380.2 216.47,-370.34 211.17,-374.9"/>
<text text-anchor="middle" x="216.78" y="-281.5" font-family="Helvetica,sans-Serif" font-size="10.00"> sfd</text>
</g>
<!-- Node8 -->
<g id="node8" class="node">
<title>Node8</title>
<g id="a_node8"><a xlink:title=" ">
<polygon fill="none" stroke="#bfbfbf" points="70.28,-380.5 70.28,-399.5 112.28,-399.5 112.28,-380.5 70.28,-380.5"/>
<text text-anchor="middle" x="91.28" y="-387.5" font-family="Helvetica,sans-Serif" font-size="10.00">SSL *</text>
</a>
</g>
</g>
<!-- Node8&#45;&gt;Node3 -->
<g id="edge7" class="edge">
<title>Node8&#45;&gt;Node3</title>
<path fill="none" stroke="#9a32cd" stroke-dasharray="5,2" d="M99.09,-370.81C100.29,-367.58 101.41,-364.22 102.28,-361 120.39,-294.14 81.23,-259.62 126.28,-207 145.73,-184.28 178.42,-174.67 205.07,-170.66"/>
<polygon fill="#9a32cd" stroke="#9a32cd" points="95.74,-369.76 95.26,-380.34 102.24,-372.37 95.74,-369.76"/>
<text text-anchor="middle" x="134.78" y="-281.5" font-family="Helvetica,sans-Serif" font-size="10.00"> ssl</text>
</g>
<!-- Node9 -->
<g id="node9" class="node">
<title>Node9</title>
<g id="a_node9"><a xlink:title=" ">
<polygon fill="none" stroke="#bfbfbf" points="130.78,-380.5 130.78,-399.5 197.78,-399.5 197.78,-380.5 130.78,-380.5"/>
<text text-anchor="middle" x="164.28" y="-387.5" font-family="Helvetica,sans-Serif" font-size="10.00">SSL_CTX *</text>
</a>
</g>
</g>
<!-- Node9&#45;&gt;Node3 -->
<g id="edge8" class="edge">
<title>Node9&#45;&gt;Node3</title>
<path fill="none" stroke="#9a32cd" stroke-dasharray="5,2" d="M158.5,-370.26C148.85,-335.09 133.56,-258.17 166.28,-207 176.05,-191.73 193.59,-182.31 209.95,-176.56"/>
<polygon fill="#9a32cd" stroke="#9a32cd" points="155.21,-371.49 161.36,-380.12 161.93,-369.54 155.21,-371.49"/>
<text text-anchor="middle" x="175.78" y="-281.5" font-family="Helvetica,sans-Serif" font-size="10.00"> ctx</text>
</g>
<!-- Node10 -->
<g id="node10" class="node">
<title>Node10</title>
<g id="a_node10"><a xlink:title=" ">
<polygon fill="none" stroke="#bfbfbf" points="720.28,-380.5 720.28,-399.5 768.28,-399.5 768.28,-380.5 720.28,-380.5"/>
<text text-anchor="middle" x="744.28" y="-387.5" font-family="Helvetica,sans-Serif" font-size="10.00">time_t</text>
</a>
</g>
</g>
<!-- Node10&#45;&gt;Node1 -->
<g id="edge29" class="edge">
<title>Node10&#45;&gt;Node1</title>
<path fill="none" stroke="#9a32cd" stroke-dasharray="5,2" d="M777.58,-377.38C784.62,-373.32 791.16,-367.97 795.28,-361 812.71,-331.55 816.89,-233.54 795.28,-207 770.35,-176.38 738.23,-214.73 708.28,-189 685.99,-169.85 690.48,-155.93 685.28,-127 683.55,-117.38 681.88,-114.17 685.28,-105 699.31,-67.24 736.06,-34.49 754.86,-19.58"/>
<polygon fill="#9a32cd" stroke="#9a32cd" points="775.94,-374.28 768.54,-381.86 779.05,-380.55 775.94,-374.28"/>
<text text-anchor="middle" x="722.28" y="-113.5" font-family="Helvetica,sans-Serif" font-size="10.00"> last_heartbeat</text>
</g>
<!-- Node10&#45;&gt;Node3 -->
<g id="edge9" class="edge">
<title>Node10&#45;&gt;Node3</title>
<path fill="none" stroke="#9a32cd" stroke-dasharray="5,2" d="M745.45,-369.98C747.6,-327.95 750.03,-229.17 727.28,-207 705.99,-186.25 489.91,-191.47 460.28,-189 401.68,-184.12 334.09,-177.2 291.29,-172.66"/>
<polygon fill="#9a32cd" stroke="#9a32cd" points="741.95,-370.03 744.88,-380.21 748.94,-370.43 741.95,-370.03"/>
<text text-anchor="middle" x="769.78" y="-281.5" font-family="Helvetica,sans-Serif" font-size="10.00"> last_tick</text>
</g>
<!-- Node10&#45;&gt;Node13 -->
<g id="edge14" class="edge">
<title>Node10&#45;&gt;Node13</title>
<path fill="none" stroke="#9a32cd" stroke-dasharray="5,2" d="M778.07,-378.3C796.97,-372.02 817.33,-364.62 820.28,-361 828.61,-350.82 855.15,-140.1 856.28,-127 857.5,-112.93 857.56,-96.5 857.45,-86.69"/>
<polygon fill="#9a32cd" stroke="#9a32cd" points="776.84,-375.03 768.42,-381.46 779.02,-381.68 776.84,-375.03"/>
<text text-anchor="middle" x="886.28" y="-164.5" font-family="Helvetica,sans-Serif" font-size="10.00"> last_identify</text>
</g>
<!-- Node11 -->
<g id="node11" class="node">
<title>Node11</title>
<g id="a_node11"><a xlink:title=" ">
<polygon fill="none" stroke="#bfbfbf" points="953.28,-465 953.28,-484 1009.28,-484 1009.28,-465 953.28,-465"/>
<text text-anchor="middle" x="981.28" y="-472" font-family="Helvetica,sans-Serif" font-size="10.00">uint64_t</text>
</a>
</g>
</g>
<!-- Node11&#45;&gt;Node1 -->
<g id="edge32" class="edge">
<title>Node11&#45;&gt;Node1</title>
<path fill="none" stroke="#9a32cd" stroke-dasharray="5,2" d="M1019.51,-470.63C1098.05,-463.68 1270.28,-442.56 1270.28,-391 1270.28,-391 1270.28,-391 1270.28,-76 1270.28,-32.36 969.17,-17.35 832.43,-12.78"/>
<polygon fill="#9a32cd" stroke="#9a32cd" points="1019.19,-467.14 1009.52,-471.48 1019.78,-474.12 1019.19,-467.14"/>
<text text-anchor="middle" x="1298.28" y="-170" font-family="Helvetica,sans-Serif" font-size="10.00"> channel_id</text>
<text text-anchor="middle" x="1298.28" y="-159" font-family="Helvetica,sans-Serif" font-size="10.00">server_id</text>
</g>
<!-- Node11&#45;&gt;Node3 -->
<g id="edge10" class="edge">
<title>Node11&#45;&gt;Node3</title>
<path fill="none" stroke="#9a32cd" stroke-dasharray="5,2" d="M942.92,-471.98C824.89,-466.45 470.76,-443.17 398.28,-361 352.27,-308.83 416.19,-259.27 370.28,-207 350.55,-184.53 317.87,-174.9 291.3,-170.83"/>
<polygon fill="#9a32cd" stroke="#9a32cd" points="942.8,-475.48 952.95,-472.43 943.11,-468.49 942.8,-475.48"/>
<text text-anchor="middle" x="483.78" y="-393" font-family="Helvetica,sans-Serif" font-size="10.00"> bytes_in</text>
<text text-anchor="middle" x="483.78" y="-382" font-family="Helvetica,sans-Serif" font-size="10.00">bytes_out</text>
</g>
<!-- Node17 -->
<g id="node17" class="node">
<title>Node17</title>
<g id="a_node17"><a xlink:href="classdpp_1_1managed.html" target="_top" xlink:title="The managed class is the base class for various types that can be stored in a cache that are identifi...">
<polygon fill="none" stroke="black" points="1064.28,-380.5 1064.28,-399.5 1150.28,-399.5 1150.28,-380.5 1064.28,-380.5"/>
<text text-anchor="middle" x="1107.28" y="-387.5" font-family="Helvetica,sans-Serif" font-size="10.00">dpp::managed</text>
</a>
</g>
</g>
<!-- Node11&#45;&gt;Node17 -->
<g id="edge20" class="edge">
<title>Node11&#45;&gt;Node17</title>
<path fill="none" stroke="#9a32cd" stroke-dasharray="5,2" d="M1002.78,-459.42C1028.99,-442.26 1072.48,-413.79 1094.15,-399.6"/>
<polygon fill="#9a32cd" stroke="#9a32cd" points="1000.74,-456.58 994.29,-464.98 1004.58,-462.43 1000.74,-456.58"/>
<text text-anchor="middle" x="1069.78" y="-427.5" font-family="Helvetica,sans-Serif" font-size="10.00"> id</text>
</g>
<!-- Node19 -->
<g id="node19" class="node">
<title>Node19</title>
<g id="a_node19"><a xlink:href="structdpp_1_1utility_1_1iconhash.html" target="_top" xlink:title="Store a 128 bit icon hash (profile picture, server icon etc) as a 128 bit binary value made of two ui...">
<polygon fill="none" stroke="black" points="860.28,-380.5 860.28,-399.5 978.28,-399.5 978.28,-380.5 860.28,-380.5"/>
<text text-anchor="middle" x="919.28" y="-387.5" font-family="Helvetica,sans-Serif" font-size="10.00">dpp::utility::iconhash</text>
</a>
</g>
</g>
<!-- Node11&#45;&gt;Node19 -->
<g id="edge24" class="edge">
<title>Node11&#45;&gt;Node19</title>
<path fill="none" stroke="#9a32cd" stroke-dasharray="5,2" d="M968.79,-456.88C955.77,-439.56 935.9,-413.11 925.74,-399.6"/>
<polygon fill="#9a32cd" stroke="#9a32cd" points="966.08,-459.09 974.88,-464.98 971.67,-454.88 966.08,-459.09"/>
<text text-anchor="middle" x="973.78" y="-433" font-family="Helvetica,sans-Serif" font-size="10.00"> first</text>
<text text-anchor="middle" x="973.78" y="-422" font-family="Helvetica,sans-Serif" font-size="10.00">second</text>
</g>
<!-- Node12 -->
<g id="node12" class="node">
<title>Node12</title>
<g id="a_node12"><a xlink:title=" ">
<polygon fill="none" stroke="#bfbfbf" points="272.78,-380.5 272.78,-399.5 337.78,-399.5 337.78,-380.5 272.78,-380.5"/>
<text text-anchor="middle" x="305.28" y="-387.5" font-family="Helvetica,sans-Serif" font-size="10.00">function&lt;</text>
</a>
</g>
</g>
<!-- Node12&#45;&gt;Node3 -->
<g id="edge11" class="edge">
<title>Node12&#45;&gt;Node3</title>
<path fill="none" stroke="#9a32cd" stroke-dasharray="5,2" d="M264.56,-375.55C258.49,-371.78 253.02,-367.02 249.28,-361 211.25,-299.82 236.39,-205.27 245.42,-176.56"/>
<polygon fill="#9a32cd" stroke="#9a32cd" points="263.27,-378.83 273.75,-380.38 266.52,-372.63 263.27,-378.83"/>
<text text-anchor="middle" x="309.78" y="-298" font-family="Helvetica,sans-Serif" font-size="10.00"> custom_readable_fd</text>
<text text-anchor="middle" x="309.78" y="-287" font-family="Helvetica,sans-Serif" font-size="10.00">custom_readable_ready</text>
<text text-anchor="middle" x="309.78" y="-276" font-family="Helvetica,sans-Serif" font-size="10.00">custom_writeable_fd</text>
<text text-anchor="middle" x="309.78" y="-265" font-family="Helvetica,sans-Serif" font-size="10.00">custom_writeable_ready</text>
</g>
<!-- Node15 -->
<g id="node15" class="node">
<title>Node15</title>
<g id="a_node15"><a xlink:href="classdpp_1_1dispatcher.html" target="_top" xlink:title="The dispatcher class contains a set of std::functions representing hooked events that the user code i...">
<polygon fill="none" stroke="black" points="469.28,-157.5 469.28,-176.5 561.28,-176.5 561.28,-157.5 469.28,-157.5"/>
<text text-anchor="middle" x="515.28" y="-164.5" font-family="Helvetica,sans-Serif" font-size="10.00">dpp::dispatcher</text>
</a>
</g>
</g>
<!-- Node12&#45;&gt;Node15 -->
<g id="edge17" class="edge">
<title>Node12&#45;&gt;Node15</title>
<path fill="none" stroke="#9a32cd" stroke-dasharray="5,2" d="M347.77,-381.53C352.66,-380.67 357.58,-379.82 362.28,-379 385.61,-374.95 450.72,-377.92 467.28,-361 515.69,-311.54 465.96,-271.79 490.28,-207 494.52,-195.71 502.38,-184.26 508.15,-176.71"/>
<polygon fill="#9a32cd" stroke="#9a32cd" points="347.08,-378.09 337.83,-383.27 348.29,-384.99 347.08,-378.09"/>
<text text-anchor="start" x="490.28" y="-353" font-family="Helvetica,sans-Serif" font-size="10.00"> application_command</text>
<text text-anchor="middle" x="546.28" y="-342" font-family="Helvetica,sans-Serif" font-size="10.00">_create</text>
<text text-anchor="start" x="490.28" y="-331" font-family="Helvetica,sans-Serif" font-size="10.00">application_command</text>
<text text-anchor="middle" x="546.28" y="-320" font-family="Helvetica,sans-Serif" font-size="10.00">_delete</text>
<text text-anchor="start" x="490.28" y="-309" font-family="Helvetica,sans-Serif" font-size="10.00">application_command</text>
<text text-anchor="middle" x="546.28" y="-298" font-family="Helvetica,sans-Serif" font-size="10.00">_update</text>
<text text-anchor="middle" x="546.28" y="-287" font-family="Helvetica,sans-Serif" font-size="10.00">channel_create</text>
<text text-anchor="middle" x="546.28" y="-276" font-family="Helvetica,sans-Serif" font-size="10.00">channel_delete</text>
<text text-anchor="middle" x="546.28" y="-265" font-family="Helvetica,sans-Serif" font-size="10.00">channel_pins_update</text>
<text text-anchor="middle" x="546.28" y="-254" font-family="Helvetica,sans-Serif" font-size="10.00">channel_update</text>
<text text-anchor="middle" x="546.28" y="-243" font-family="Helvetica,sans-Serif" font-size="10.00">guild_ban_add</text>
<text text-anchor="middle" x="546.28" y="-232" font-family="Helvetica,sans-Serif" font-size="10.00">guild_ban_remove</text>
<text text-anchor="middle" x="546.28" y="-221" font-family="Helvetica,sans-Serif" font-size="10.00">guild_create</text>
<text text-anchor="middle" x="546.28" y="-210" font-family="Helvetica,sans-Serif" font-size="10.00">...</text>
</g>
<!-- Node13&#45;&gt;Node1 -->
<g id="edge12" class="edge">
<title>Node13&#45;&gt;Node1</title>
<path fill="none" stroke="#9a32cd" stroke-dasharray="5,2" d="M836.87,-61.42C818.88,-48.57 793.28,-30.28 778.36,-19.63"/>
<polygon fill="#9a32cd" stroke="#9a32cd" points="834.84,-64.27 845.01,-67.23 838.91,-58.57 834.84,-64.27"/>
<text text-anchor="middle" x="836.28" y="-41" font-family="Helvetica,sans-Serif" font-size="10.00"> creator</text>
</g>
<!-- Node14 -->
<g id="node14" class="node">
<title>Node14</title>
<g id="a_node14"><a xlink:title=" ">
<polygon fill="none" stroke="#bfbfbf" points="1168.28,-380.5 1168.28,-399.5 1224.28,-399.5 1224.28,-380.5 1168.28,-380.5"/>
<text text-anchor="middle" x="1196.28" y="-387.5" font-family="Helvetica,sans-Serif" font-size="10.00">uint32_t</text>
</a>
</g>
</g>
<!-- Node14&#45;&gt;Node1 -->
<g id="edge28" class="edge">
<title>Node14&#45;&gt;Node1</title>
<path fill="none" stroke="#9a32cd" stroke-dasharray="5,2" d="M1200.31,-370.24C1208.72,-325.72 1223.14,-212.38 1169.28,-145 1087.22,-42.34 924.06,-17.68 832.51,-12.16"/>
<polygon fill="#9a32cd" stroke="#9a32cd" points="1196.84,-369.73 1198.3,-380.23 1203.71,-371.11 1196.84,-369.73"/>
<text text-anchor="middle" x="1198.28" y="-113.5" font-family="Helvetica,sans-Serif" font-size="10.00"> heartbeat_interval</text>
</g>
<!-- Node14&#45;&gt;Node13 -->
<g id="edge15" class="edge">
<title>Node14&#45;&gt;Node13</title>
<path fill="none" stroke="#9a32cd" stroke-dasharray="5,2" d="M1178.42,-373.48C1174.95,-369.7 1171.66,-365.46 1169.28,-361 1136.39,-299.21 1179.04,-262.42 1136.28,-207 1128.6,-197.05 945.85,-109.92 934.28,-105 917.99,-98.06 899.25,-91.46 884.34,-86.53"/>
<polygon fill="#9a32cd" stroke="#9a32cd" points="1175.97,-375.98 1185.56,-380.48 1180.87,-370.98 1175.97,-375.98"/>
<text text-anchor="middle" x="1135.78" y="-181" font-family="Helvetica,sans-Serif" font-size="10.00"> cluster_id</text>
<text text-anchor="middle" x="1135.78" y="-170" font-family="Helvetica,sans-Serif" font-size="10.00">intents</text>
<text text-anchor="middle" x="1135.78" y="-159" font-family="Helvetica,sans-Serif" font-size="10.00">maxclusters</text>
<text text-anchor="middle" x="1135.78" y="-148" font-family="Helvetica,sans-Serif" font-size="10.00">numshards</text>
</g>
<!-- Node14&#45;&gt;Node16 -->
<g id="edge25" class="edge">
<title>Node14&#45;&gt;Node16</title>
<path fill="none" stroke="#9a32cd" stroke-dasharray="5,2" d="M1158.38,-377.78C1135.75,-370.92 1111.04,-363.07 1109.28,-361 1064.5,-308.24 1131.48,-259.41 1086.28,-207 1062.24,-179.12 1018.9,-170.81 989.38,-168.53"/>
<polygon fill="#9a32cd" stroke="#9a32cd" points="1157.63,-381.21 1168.22,-380.74 1159.65,-374.51 1157.63,-381.21"/>
<text text-anchor="middle" x="1122.78" y="-281.5" font-family="Helvetica,sans-Serif" font-size="10.00"> flags</text>
</g>
<!-- Node15&#45;&gt;Node13 -->
<g id="edge16" class="edge">
<title>Node15&#45;&gt;Node13</title>
<path fill="none" stroke="#9a32cd" stroke-dasharray="5,2" d="M571.73,-166.59C623.96,-165.01 702.49,-157.09 763.28,-127 775.96,-120.73 774.32,-112.55 786.28,-105 798.77,-97.11 813.92,-90.96 827.01,-86.53"/>
<polygon fill="#9a32cd" stroke="#9a32cd" points="571.56,-163.09 561.64,-166.83 571.72,-170.09 571.56,-163.09"/>
<text text-anchor="middle" x="808.78" y="-113.5" font-family="Helvetica,sans-Serif" font-size="10.00"> dispatch</text>
</g>
<!-- Node16&#45;&gt;Node13 -->
<g id="edge18" class="edge">
<title>Node16&#45;&gt;Node13</title>
<path fill="none" stroke="#9a32cd" stroke-dasharray="5,2" d="M940.55,-150.55C919.28,-132.02 884.36,-101.59 867.3,-86.72"/>
<polygon fill="#9a32cd" stroke="#9a32cd" points="938.39,-153.31 948.23,-157.24 942.99,-148.03 938.39,-153.31"/>
<text text-anchor="middle" x="920.78" y="-113.5" font-family="Helvetica,sans-Serif" font-size="10.00"> me</text>
</g>
<!-- Node17&#45;&gt;Node16 -->
<g id="edge19" class="edge">
<title>Node17&#45;&gt;Node16</title>
<path fill="none" stroke="midnightblue" d="M1094.75,-371.79C1092.67,-368.34 1090.72,-364.66 1089.28,-361 1063.76,-296.28 1105.8,-260.46 1061.28,-207 1043.54,-185.69 1012.85,-176.01 989.58,-171.62"/>
<polygon fill="midnightblue" stroke="midnightblue" points="1091.86,-373.77 1100.32,-380.16 1097.69,-369.9 1091.86,-373.77"/>
</g>
<!-- Node18 -->
<g id="node18" class="node">
<title>Node18</title>
<g id="a_node18"><a xlink:title=" ">
<polygon fill="none" stroke="#bfbfbf" points="786.28,-380.5 786.28,-399.5 842.28,-399.5 842.28,-380.5 786.28,-380.5"/>
<text text-anchor="middle" x="814.28" y="-387.5" font-family="Helvetica,sans-Serif" font-size="10.00">uint16_t</text>
</a>
</g>
</g>
<!-- Node18&#45;&gt;Node16 -->
<g id="edge22" class="edge">
<title>Node18&#45;&gt;Node16</title>
<path fill="none" stroke="#9a32cd" stroke-dasharray="5,2" d="M835.2,-373.94C839.14,-370.15 842.8,-365.78 845.28,-361 877.1,-299.81 822.4,-261.79 864.28,-207 877.11,-190.21 888.76,-197.09 908.28,-189 918.02,-184.96 928.81,-180.44 937.87,-176.63"/>
<polygon fill="#9a32cd" stroke="#9a32cd" points="832.87,-371.33 827.52,-380.47 837.4,-376.66 832.87,-371.33"/>
<text text-anchor="middle" x="898.28" y="-281.5" font-family="Helvetica,sans-Serif" font-size="10.00"> discriminator</text>
</g>
<!-- Node19&#45;&gt;Node16 -->
<g id="edge23" class="edge">
<title>Node19&#45;&gt;Node16</title>
<path fill="none" stroke="#9a32cd" stroke-dasharray="5,2" d="M931.47,-371.49C933.35,-368.13 935.07,-364.55 936.28,-361 959.53,-293.03 959.32,-204.56 958.6,-176.75"/>
<polygon fill="#9a32cd" stroke="#9a32cd" points="928.37,-369.84 926.02,-380.17 934.3,-373.56 928.37,-369.84"/>
<text text-anchor="middle" x="976.78" y="-281.5" font-family="Helvetica,sans-Serif" font-size="10.00"> avatar</text>
</g>
<!-- Node20 -->
<g id="node20" class="node">
<title>Node20</title>
<g id="a_node20"><a xlink:title=" ">
<polygon fill="none" stroke="#bfbfbf" points="996.28,-380.5 996.28,-399.5 1046.28,-399.5 1046.28,-380.5 996.28,-380.5"/>
<text text-anchor="middle" x="1021.28" y="-387.5" font-family="Helvetica,sans-Serif" font-size="10.00">uint8_t</text>
</a>
</g>
</g>
<!-- Node20&#45;&gt;Node16 -->
<g id="edge26" class="edge">
<title>Node20&#45;&gt;Node16</title>
<path fill="none" stroke="#9a32cd" stroke-dasharray="5,2" d="M1018.57,-370.2C1011.89,-324.06 995.16,-208.84 994.28,-207 988.48,-194.86 977.58,-183.89 969.29,-176.69"/>
<polygon fill="#9a32cd" stroke="#9a32cd" points="1015.14,-370.93 1020.03,-380.33 1022.06,-369.93 1015.14,-370.93"/>
<text text-anchor="middle" x="1039.28" y="-281.5" font-family="Helvetica,sans-Serif" font-size="10.00"> refcount</text>
</g>
<!-- Node21 -->
<g id="node21" class="node">
<title>Node21</title>
<g id="a_node21"><a xlink:title=" ">
<polygon fill="none" stroke="#bfbfbf" points="1298.78,-67.5 1298.78,-86.5 1411.78,-86.5 1411.78,-67.5 1298.78,-67.5"/>
<text text-anchor="middle" x="1355.28" y="-74.5" font-family="Helvetica,sans-Serif" font-size="10.00">native_handle_type</text>
</a>
</g>
</g>
<!-- Node21&#45;&gt;Node1 -->
<g id="edge30" class="edge">
<title>Node21&#45;&gt;Node1</title>
<path fill="none" stroke="#9a32cd" stroke-dasharray="5,2" d="M1334.34,-61.62C1320.73,-53.09 1302.23,-43 1284.28,-38 1201.22,-14.86 952.57,-11.23 832.54,-10.87"/>
<polygon fill="#9a32cd" stroke="#9a32cd" points="1332.63,-64.68 1342.92,-67.19 1336.44,-58.81 1332.63,-64.68"/>
<text text-anchor="middle" x="1334.78" y="-41" font-family="Helvetica,sans-Serif" font-size="10.00"> thread_id</text>
</g>
</g>
</svg>
        <g id="navigator" transform="translate(0 0)" fill="#404254">
                <rect fill="#f2f5e9" fill-opacity="0.5" stroke="#606060" stroke-width=".5" x="0" y="0" width="60" height="60"/>
                <use id="zoomplus" xlink:href="#zoomPlus" x="17" y="9" onmousedown="handleZoom(evt,'in')"/>
                <use id="zoomminus" xlink:href="#zoomMin" x="42" y="9" onmousedown="handleZoom(evt,'out')"/>
                <use id="reset" xlink:href="#resetDef" x="30" y="36" onmousedown="handleReset()"/>
                <g id="arrowUp" xlink:href="#dirArrow" transform="translate(30 24)" onmousedown="handlePan(0,-1)">
                  <use xlink:href="#rim" fill="#404040">
                        <set attributeName="fill" to="#808080" begin="arrowUp.mouseover" end="arrowUp.mouseout"/>
                  </use>
                  <path fill="none" stroke="white" stroke-width="1.5" d="M0,-3.0v7 M-2.5,-0.5L0,-3.0L2.5,-0.5"/>
                </g>
                <g id="arrowRight" xlink:href="#dirArrow" transform="rotate(90) translate(36 -43)" onmousedown="handlePan(1,0)">
                  <use xlink:href="#rim" fill="#404040">
                        <set attributeName="fill" to="#808080" begin="arrowRight.mouseover" end="arrowRight.mouseout"/>
                  </use>
                  <path fill="none" stroke="white" stroke-width="1.5" d="M0,-3.0v7 M-2.5,-0.5L0,-3.0L2.5,-0.5"/>
                </g>
                <g id="arrowDown" xlink:href="#dirArrow" transform="rotate(180) translate(-30 -48)" onmousedown="handlePan(0,1)">
                  <use xlink:href="#rim" fill="#404040">
                        <set attributeName="fill" to="#808080" begin="arrowDown.mouseover" end="arrowDown.mouseout"/>
                  </use>
                  <path fill="none" stroke="white" stroke-width="1.5" d="M0,-3.0v7 M-2.5,-0.5L0,-3.0L2.5,-0.5"/>
                </g>
                <g id="arrowLeft" xlink:href="#dirArrow" transform="rotate(270) translate(-36 17)" onmousedown="handlePan(-1,0)">
                  <use xlink:href="#rim" fill="#404040">
                        <set attributeName="fill" to="#808080" begin="arrowLeft.mouseover" end="arrowLeft.mouseout"/>
                  </use>
                  <path fill="none" stroke="white" stroke-width="1.5" d="M0,-3.0v7 M-2.5,-0.5L0,-3.0L2.5,-0.5"/>
                </g>
        </g>
        <svg viewBox="0 0 15 15" width="100%" height="30px" preserveAspectRatio="xMaxYMin meet">
         <g id="arrow_out" transform="scale(0.3 0.3)">
          <a xlink:href="classdpp_1_1_discord_voice_client__coll__graph_org.svg" target="_base">
           <rect id="button" ry="5" rx="5" y="6" x="6" height="38" width="38"
                fill="#f2f5e9" fill-opacity="0.5" stroke="#606060" stroke-width="1.0"/>
           <path id="arrow"
             d="M 11.500037,31.436501 C 11.940474,20.09759 22.043105,11.32322 32.158766,21.979434 L 37.068811,17.246167 C 37.068811,17.246167 37.088388,32 37.088388,32 L 22.160133,31.978069 C 22.160133,31.978069 26.997745,27.140456 26.997745,27.140456 C 18.528582,18.264221 13.291696,25.230495 11.500037,31.436501 z"
             style="fill:#404040;"/>
          </a>
         </g>
        </svg>
</svg>
