<?xml version="1.0" encoding="UTF-8" standalone="no"?>
<!DOCTYPE svg PUBLIC "-//W3C//DTD SVG 1.1//EN"
 "http://www.w3.org/Graphics/SVG/1.1/DTD/svg11.dtd">
<!-- Generated by graphviz version 2.38.0 (20140413.2041)
 -->
<!-- Title: dpp::cluster Pages: 1 -->
<svg width="655pt" height="429pt"
 viewBox="0.00 0.00 655.00 429.02" xmlns="http://www.w3.org/2000/svg" xmlns:xlink="http://www.w3.org/1999/xlink">
<g id="graph0" class="graph" transform="scale(1 1) rotate(0) translate(4 425.019)">
<title>dpp::cluster</title>
<polygon fill="white" stroke="none" points="-4,4 -4,-425.019 651,-425.019 651,4 -4,4"/>
<!-- Node1 -->
<g id="node1" class="node"><title>Node1</title>
<g id="a_node1"><a xlink:title="The cluster class represents a group of shards and a command queue for sending and receiving commands...">
<polygon fill="#bfbfbf" stroke="black" points="579,-169.519 579,-188.519 647,-188.519 647,-169.519 579,-169.519"/>
<text text-anchor="middle" x="613" y="-176.519" font-family="Helvetica,sans-Serif" font-size="10.00">dpp::cluster</text>
</a>
</g>
</g>
<!-- Node2 -->
<g id="node2" class="node"><title>Node2</title>
<g id="a_node2"><a xlink:title=" ">
<polygon fill="white" stroke="#bfbfbf" points="186.5,-182.519 186.5,-201.519 246.5,-201.519 246.5,-182.519 186.5,-182.519"/>
<text text-anchor="middle" x="216.5" y="-189.519" font-family="Helvetica,sans-Serif" font-size="10.00">std::string</text>
</a>
</g>
</g>
<!-- Node2&#45;&gt;Node1 -->
<g id="edge1" class="edge"><title>Node2&#45;&gt;Node1</title>
<path fill="none" stroke="#9a32cd" stroke-dasharray="5,2" d="M256.826,-190.723C334.52,-188.163 506.424,-182.498 578.826,-180.113"/>
<polygon fill="#9a32cd" stroke="#9a32cd" points="256.388,-187.236 246.509,-191.063 256.618,-194.232 256.388,-187.236"/>
<text text-anchor="middle" x="445.5" y="-189.019" font-family="Helvetica,sans-Serif" font-size="10.00"> token</text>
</g>
<!-- Node8 -->
<g id="node8" class="node"><title>Node8</title>
<g id="a_node8"><a xlink:href="classdpp_1_1user.html" target="_top" xlink:title="Represents a user on discord. May or may not be a member of a dpp::guild.">
<polygon fill="white" stroke="black" points="417,-270.519 417,-289.519 474,-289.519 474,-270.519 417,-270.519"/>
<text text-anchor="middle" x="445.5" y="-277.519" font-family="Helvetica,sans-Serif" font-size="10.00">dpp::user</text>
</a>
</g>
</g>
<!-- Node2&#45;&gt;Node8 -->
<g id="edge10" class="edge"><title>Node2&#45;&gt;Node8</title>
<path fill="none" stroke="#9a32cd" stroke-dasharray="5,2" d="M256.647,-197.393C291.832,-203.278 344.241,-214.704 386,-235.019 404.897,-244.212 423.59,-260.095 434.586,-270.323"/>
<polygon fill="#9a32cd" stroke="#9a32cd" points="257.186,-193.935 246.758,-195.809 256.078,-200.846 257.186,-193.935"/>
<text text-anchor="middle" x="337" y="-238.019" font-family="Helvetica,sans-Serif" font-size="10.00"> username</text>
</g>
<!-- Node3 -->
<g id="node3" class="node"><title>Node3</title>
<g id="a_node3"><a xlink:title=" ">
<polygon fill="white" stroke="#bfbfbf" points="0,-177.019 0,-207.019 95,-207.019 95,-177.019 0,-177.019"/>
<text text-anchor="start" x="8" y="-195.019" font-family="Helvetica,sans-Serif" font-size="10.00">std::basic_string&lt;</text>
<text text-anchor="middle" x="47.5" y="-184.019" font-family="Helvetica,sans-Serif" font-size="10.00"> Char &gt;</text>
</a>
</g>
</g>
<!-- Node3&#45;&gt;Node2 -->
<g id="edge2" class="edge"><title>Node3&#45;&gt;Node2</title>
<path fill="none" stroke="midnightblue" d="M105.221,-192.019C132.456,-192.019 163.942,-192.019 186.281,-192.019"/>
<polygon fill="midnightblue" stroke="midnightblue" points="105.019,-188.519 95.0188,-192.019 105.019,-195.519 105.019,-188.519"/>
</g>
<!-- Node4 -->
<g id="node4" class="node"><title>Node4</title>
<g id="a_node4"><a xlink:title=" ">
<polygon fill="white" stroke="#bfbfbf" points="423.5,-123.519 423.5,-142.519 467.5,-142.519 467.5,-123.519 423.5,-123.519"/>
<text text-anchor="middle" x="445.5" y="-130.519" font-family="Helvetica,sans-Serif" font-size="10.00">time_t</text>
</a>
</g>
</g>
<!-- Node4&#45;&gt;Node1 -->
<g id="edge3" class="edge"><title>Node4&#45;&gt;Node1</title>
<path fill="none" stroke="#9a32cd" stroke-dasharray="5,2" d="M477.648,-136.385C501.004,-139.469 533.537,-144.962 561,-154.019 572.987,-157.973 585.737,-164.223 595.49,-169.484"/>
<polygon fill="#9a32cd" stroke="#9a32cd" points="477.97,-132.898 467.613,-135.134 477.103,-139.845 477.97,-132.898"/>
<text text-anchor="middle" x="533" y="-157.019" font-family="Helvetica,sans-Serif" font-size="10.00"> last_identify</text>
</g>
<!-- Node5 -->
<g id="node5" class="node"><title>Node5</title>
<g id="a_node5"><a xlink:title=" ">
<polygon fill="white" stroke="#bfbfbf" points="191,-387.519 191,-406.519 242,-406.519 242,-387.519 191,-387.519"/>
<text text-anchor="middle" x="216.5" y="-394.519" font-family="Helvetica,sans-Serif" font-size="10.00">uint32_t</text>
</a>
</g>
</g>
<!-- Node5&#45;&gt;Node1 -->
<g id="edge4" class="edge"><title>Node5&#45;&gt;Node1</title>
<path fill="none" stroke="#9a32cd" stroke-dasharray="5,2" d="M252.271,-400.071C287.191,-401.878 341.985,-401.244 386,-385.019 476.662,-351.6 494.412,-326.038 561,-256.019 581.332,-234.64 598.783,-204.215 606.991,-188.792"/>
<polygon fill="#9a32cd" stroke="#9a32cd" points="252.301,-396.566 242.106,-399.446 251.872,-403.553 252.301,-396.566"/>
<text text-anchor="middle" x="445.5" y="-413.019" font-family="Helvetica,sans-Serif" font-size="10.00"> cluster_id</text>
<text text-anchor="middle" x="445.5" y="-402.019" font-family="Helvetica,sans-Serif" font-size="10.00">intents</text>
<text text-anchor="middle" x="445.5" y="-391.019" font-family="Helvetica,sans-Serif" font-size="10.00">maxclusters</text>
<text text-anchor="middle" x="445.5" y="-380.019" font-family="Helvetica,sans-Serif" font-size="10.00">numshards</text>
</g>
<!-- Node5&#45;&gt;Node8 -->
<g id="edge14" class="edge"><title>Node5&#45;&gt;Node8</title>
<path fill="none" stroke="#9a32cd" stroke-dasharray="5,2" d="M251.818,-385.324C263.274,-381.553 276.142,-377.462 288,-374.019 331.168,-361.486 347.884,-372.846 386,-349.019 410.504,-333.702 430.005,-304.758 439.035,-289.688"/>
<polygon fill="#9a32cd" stroke="#9a32cd" points="250.558,-382.054 242.173,-388.531 252.767,-388.697 250.558,-382.054"/>
<text text-anchor="middle" x="337" y="-377.019" font-family="Helvetica,sans-Serif" font-size="10.00"> flags</text>
</g>
<!-- Node6 -->
<g id="node6" class="node"><title>Node6</title>
<g id="a_node6"><a xlink:href="classdpp_1_1dispatcher.html" target="_top" xlink:title="The dispatcher class contains a set of std::functions representing hooked events that the user code i...">
<polygon fill="white" stroke="black" points="404,-43.5193 404,-62.5193 487,-62.5193 487,-43.5193 404,-43.5193"/>
<text text-anchor="middle" x="445.5" y="-50.5193" font-family="Helvetica,sans-Serif" font-size="10.00">dpp::dispatcher</text>
</a>
</g>
</g>
<!-- Node6&#45;&gt;Node1 -->
<g id="edge5" class="edge"><title>Node6&#45;&gt;Node1</title>
<path fill="none" stroke="#9a32cd" stroke-dasharray="5,2" d="M473.351,-67.7014C497.362,-81.3842 532.981,-103.077 561,-126.019 577.599,-139.61 594.375,-158.188 603.948,-169.355"/>
<polygon fill="#9a32cd" stroke="#9a32cd" points="474.88,-64.5453 464.448,-62.6917 471.447,-70.6459 474.88,-64.5453"/>
<text text-anchor="middle" x="533" y="-129.019" font-family="Helvetica,sans-Serif" font-size="10.00"> dispatch</text>
</g>
<!-- Node7 -->
<g id="node7" class="node"><title>Node7</title>
<g id="a_node7"><a xlink:title=" ">
<polygon fill="white" stroke="#bfbfbf" points="188,-0.519349 188,-19.5193 245,-19.5193 245,-0.519349 188,-0.519349"/>
<text text-anchor="middle" x="216.5" y="-7.51935" font-family="Helvetica,sans-Serif" font-size="10.00">function&lt;</text>
</a>
</g>
</g>
<!-- Node7&#45;&gt;Node6 -->
<g id="edge6" class="edge"><title>Node7&#45;&gt;Node6</title>
<path fill="none" stroke="#9a32cd" stroke-dasharray="5,2" d="M255.373,-3.81495C290.224,0.409487 342.886,2.99598 386,-11.0193 405.738,-17.4357 424.476,-33.1906 435.211,-43.4753"/>
<polygon fill="#9a32cd" stroke="#9a32cd" points="254.615,-0.384449 245.159,-5.16201 255.53,-7.32436 254.615,-0.384449"/>
<text text-anchor="start" x="288" y="-157.019" font-family="Helvetica,sans-Serif" font-size="10.00"> application_command</text>
<text text-anchor="middle" x="337" y="-146.019" font-family="Helvetica,sans-Serif" font-size="10.00">_create</text>
<text text-anchor="start" x="288" y="-135.019" font-family="Helvetica,sans-Serif" font-size="10.00">application_command</text>
<text text-anchor="middle" x="337" y="-124.019" font-family="Helvetica,sans-Serif" font-size="10.00">_delete</text>
<text text-anchor="start" x="288" y="-113.019" font-family="Helvetica,sans-Serif" font-size="10.00">application_command</text>
<text text-anchor="middle" x="337" y="-102.019" font-family="Helvetica,sans-Serif" font-size="10.00">_update</text>
<text text-anchor="middle" x="337" y="-91.0193" font-family="Helvetica,sans-Serif" font-size="10.00">channel_create</text>
<text text-anchor="middle" x="337" y="-80.0193" font-family="Helvetica,sans-Serif" font-size="10.00">channel_delete</text>
<text text-anchor="middle" x="337" y="-69.0193" font-family="Helvetica,sans-Serif" font-size="10.00">channel_pins_update</text>
<text text-anchor="middle" x="337" y="-58.0193" font-family="Helvetica,sans-Serif" font-size="10.00">channel_update</text>
<text text-anchor="middle" x="337" y="-47.0193" font-family="Helvetica,sans-Serif" font-size="10.00">guild_ban_add</text>
<text text-anchor="middle" x="337" y="-36.0193" font-family="Helvetica,sans-Serif" font-size="10.00">guild_ban_remove</text>
<text text-anchor="middle" x="337" y="-25.0193" font-family="Helvetica,sans-Serif" font-size="10.00">guild_create</text>
<text text-anchor="middle" x="337" y="-14.0193" font-family="Helvetica,sans-Serif" font-size="10.00">...</text>
</g>
<!-- Node8&#45;&gt;Node1 -->
<g id="edge7" class="edge"><title>Node8&#45;&gt;Node1</title>
<path fill="none" stroke="#9a32cd" stroke-dasharray="5,2" d="M471.029,-265.05C505.546,-243.985 567.458,-206.202 596.351,-188.57"/>
<polygon fill="#9a32cd" stroke="#9a32cd" points="468.783,-262.321 462.07,-270.518 472.429,-268.296 468.783,-262.321"/>
<text text-anchor="middle" x="533" y="-244.019" font-family="Helvetica,sans-Serif" font-size="10.00"> me</text>
</g>
<!-- Node9 -->
<g id="node9" class="node"><title>Node9</title>
<g id="a_node9"><a xlink:href="classdpp_1_1managed.html" target="_top" xlink:title="The managed class is the base class for various types that can be stored in a cache that are identifi...">
<polygon fill="white" stroke="black" points="177.5,-348.519 177.5,-367.519 255.5,-367.519 255.5,-348.519 177.5,-348.519"/>
<text text-anchor="middle" x="216.5" y="-355.519" font-family="Helvetica,sans-Serif" font-size="10.00">dpp::managed</text>
</a>
</g>
</g>
<!-- Node9&#45;&gt;Node8 -->
<g id="edge8" class="edge"><title>Node9&#45;&gt;Node8</title>
<path fill="none" stroke="midnightblue" d="M266,-353.03C300.586,-348.204 347.574,-339.022 386,-322.019 404.522,-313.824 423.029,-299.182 434.122,-289.534"/>
<polygon fill="midnightblue" stroke="midnightblue" points="265.144,-349.612 255.688,-354.391 266.061,-356.552 265.144,-349.612"/>
</g>
<!-- Node10 -->
<g id="node10" class="node"><title>Node10</title>
<g id="a_node10"><a xlink:title=" ">
<polygon fill="white" stroke="#bfbfbf" points="22,-327.519 22,-346.519 73,-346.519 73,-327.519 22,-327.519"/>
<text text-anchor="middle" x="47.5" y="-334.519" font-family="Helvetica,sans-Serif" font-size="10.00">uint64_t</text>
</a>
</g>
</g>
<!-- Node10&#45;&gt;Node9 -->
<g id="edge9" class="edge"><title>Node10&#45;&gt;Node9</title>
<path fill="none" stroke="#9a32cd" stroke-dasharray="5,2" d="M83.1071,-341.371C110.621,-344.831 149.068,-349.666 177.445,-353.234"/>
<polygon fill="#9a32cd" stroke="#9a32cd" points="83.5,-337.893 73.1414,-340.118 82.6266,-344.838 83.5,-337.893"/>
<text text-anchor="middle" x="129" y="-351.019" font-family="Helvetica,sans-Serif" font-size="10.00"> id</text>
</g>
<!-- Node12 -->
<g id="node12" class="node"><title>Node12</title>
<g id="a_node12"><a xlink:href="structdpp_1_1utility_1_1iconhash.html" target="_top" xlink:title="Store a 128 bit icon hash (profile picture, server icon etc) as a 128 bit binary value made of two ui...">
<polygon fill="white" stroke="black" points="163,-308.519 163,-327.519 270,-327.519 270,-308.519 163,-308.519"/>
<text text-anchor="middle" x="216.5" y="-315.519" font-family="Helvetica,sans-Serif" font-size="10.00">dpp::utility::iconhash</text>
</a>
</g>
</g>
<!-- Node10&#45;&gt;Node12 -->
<g id="edge13" class="edge"><title>Node10&#45;&gt;Node12</title>
<path fill="none" stroke="#9a32cd" stroke-dasharray="5,2" d="M81.4851,-324.076C91.4526,-320.769 102.532,-317.681 113,-316.019 129.084,-313.467 146.765,-312.995 162.847,-313.441"/>
<polygon fill="#9a32cd" stroke="#9a32cd" points="80.2354,-320.805 71.9523,-327.412 82.5471,-327.413 80.2354,-320.805"/>
<text text-anchor="middle" x="129" y="-330.019" font-family="Helvetica,sans-Serif" font-size="10.00"> first</text>
<text text-anchor="middle" x="129" y="-319.019" font-family="Helvetica,sans-Serif" font-size="10.00">second</text>
</g>
<!-- Node11 -->
<g id="node11" class="node"><title>Node11</title>
<g id="a_node11"><a xlink:title=" ">
<polygon fill="white" stroke="#bfbfbf" points="191,-270.519 191,-289.519 242,-289.519 242,-270.519 191,-270.519"/>
<text text-anchor="middle" x="216.5" y="-277.519" font-family="Helvetica,sans-Serif" font-size="10.00">uint16_t</text>
</a>
</g>
</g>
<!-- Node11&#45;&gt;Node8 -->
<g id="edge11" class="edge"><title>Node11&#45;&gt;Node8</title>
<path fill="none" stroke="#9a32cd" stroke-dasharray="5,2" d="M252.445,-280.019C297.71,-280.019 375.692,-280.019 416.988,-280.019"/>
<polygon fill="#9a32cd" stroke="#9a32cd" points="252.225,-276.519 242.225,-280.019 252.225,-283.519 252.225,-276.519"/>
<text text-anchor="middle" x="337" y="-283.019" font-family="Helvetica,sans-Serif" font-size="10.00"> discriminator</text>
</g>
<!-- Node12&#45;&gt;Node8 -->
<g id="edge12" class="edge"><title>Node12&#45;&gt;Node8</title>
<path fill="none" stroke="#9a32cd" stroke-dasharray="5,2" d="M280.388,-309.067C312.118,-304.359 351.168,-298.275 386,-292.019 396.102,-290.205 407.14,-287.999 416.879,-285.976"/>
<polygon fill="#9a32cd" stroke="#9a32cd" points="279.74,-305.624 270.357,-310.545 280.761,-312.549 279.74,-305.624"/>
<text text-anchor="middle" x="337" y="-310.019" font-family="Helvetica,sans-Serif" font-size="10.00"> avatar</text>
</g>
<!-- Node13 -->
<g id="node13" class="node"><title>Node13</title>
<g id="a_node13"><a xlink:title=" ">
<polygon fill="white" stroke="#bfbfbf" points="193.5,-232.519 193.5,-251.519 239.5,-251.519 239.5,-232.519 193.5,-232.519"/>
<text text-anchor="middle" x="216.5" y="-239.519" font-family="Helvetica,sans-Serif" font-size="10.00">uint8_t</text>
</a>
</g>
</g>
<!-- Node13&#45;&gt;Node8 -->
<g id="edge15" class="edge"><title>Node13&#45;&gt;Node8</title>
<path fill="none" stroke="#9a32cd" stroke-dasharray="5,2" d="M250.004,-245.33C284.073,-249.063 339.07,-255.831 386,-265.019 396.187,-267.014 407.243,-269.709 416.974,-272.264"/>
<polygon fill="#9a32cd" stroke="#9a32cd" points="250.031,-241.813 239.714,-244.226 249.284,-248.773 250.031,-241.813"/>
<text text-anchor="middle" x="337" y="-268.019" font-family="Helvetica,sans-Serif" font-size="10.00"> refcount</text>
</g>
</g>
</svg>
