<?xml version="1.0" encoding="UTF-8" standalone="no"?>
<!DOCTYPE svg PUBLIC "-//W3C//DTD SVG 1.1//EN"
 "http://www.w3.org/Graphics/SVG/1.1/DTD/svg11.dtd">
<!-- Generated by graphviz version 2.38.0 (20140413.2041)
 -->
<!-- Title: dpp::voiceconn Pages: 1 -->
<!--zoomable 1069 -->
<svg id="main" version="1.1" xmlns="http://www.w3.org/2000/svg" xmlns:xlink="http://www.w3.org/1999/xlink" xml:space="preserve" onload="init(evt)">
<style type="text/css"><![CDATA[
.edge:hover path { stroke: red; }
.edge:hover polygon { stroke: red; fill: red; }
]]></style>
<script type="text/javascript"><![CDATA[
var edges = document.getElementsByTagName('g');
if (edges && edges.length) {
  for (var i=0;i<edges.length;i++) {
    if (edges[i].id.substr(0,4)=='edge') {
      edges[i].setAttribute('class','edge');
    }
  }
}
]]></script>
        <defs>
                <circle id="rim" cx="0" cy="0" r="7"/>
                <circle id="rim2" cx="0" cy="0" r="3.5"/>
                <g id="zoomPlus">
                        <use xlink:href="#rim" fill="#404040">
                                <set attributeName="fill" to="#808080" begin="zoomplus.mouseover" end="zoomplus.mouseout"/>
                        </use>
                        <path d="M-4,0h8M0,-4v8" fill="none" stroke="white" stroke-width="1.5" pointer-events="none"/>
                </g>
                <g id="zoomMin">
                        <use xlink:href="#rim" fill="#404040">
                                <set attributeName="fill" to="#808080" begin="zoomminus.mouseover" end="zoomminus.mouseout"/>
                        </use>
                        <path d="M-4,0h8" fill="none" stroke="white" stroke-width="1.5" pointer-events="none"/>
                </g>
                <g id="dirArrow">
                        <path fill="none" stroke="white" stroke-width="1.5" d="M0,-3.0v7 M-2.5,-0.5L0,-3.0L2.5,-0.5"/>
                </g>
               <g id="resetDef">
                       <use xlink:href="#rim2" fill="#404040">
                               <set attributeName="fill" to="#808080" begin="reset.mouseover" end="reset.mouseout"/>
                       </use>
               </g>
        </defs>

<script type="text/javascript">
var viewWidth = 1110;
var viewHeight = 1069;
var sectionId = 'dynsection-0';
</script>
<script xlink:href="svgpan.js"/>
<svg id="graph" class="graph">
<g id="viewport">
<title>dpp::voiceconn</title>
<polygon fill="white" stroke="none" points="-4,4 -4,-1065 1106,-1065 1106,4 -4,4"/>
<!-- Node1 -->
<g id="node1" class="node"><title>Node1</title>
<g id="a_node1"><a xlink:title="Represents a connection to a voice channel. A client can only connect to one voice channel per guild ...">
<polygon fill="#bfbfbf" stroke="black" points="1019,-754.5 1019,-773.5 1102,-773.5 1102,-754.5 1019,-754.5"/>
<text text-anchor="middle" x="1060.5" y="-761.5" font-family="Helvetica,sans-Serif" font-size="10.00">dpp::voiceconn</text>
</a>
</g>
</g>
<!-- Node2 -->
<g id="node2" class="node"><title>Node2</title>
<g id="a_node2"><a xlink:title=" ">
<polygon fill="white" stroke="#bfbfbf" points="22,-902.5 22,-921.5 73,-921.5 73,-902.5 22,-902.5"/>
<text text-anchor="middle" x="47.5" y="-909.5" font-family="Helvetica,sans-Serif" font-size="10.00">uint64_t</text>
</a>
</g>
</g>
<!-- Node2&#45;&gt;Node1 -->
<g id="edge1" class="edge"><title>Node2&#45;&gt;Node1</title>
<path fill="none" stroke="#9a32cd" stroke-dasharray="5,2" d="M59.5295,-930.45C83.5648,-968.046 144.606,-1050 220,-1050 220,-1050 220,-1050 885,-1050 1017.62,-1050 1052.43,-823.141 1058.45,-773.516"/>
<polygon fill="#9a32cd" stroke="#9a32cd" points="62.4817,-928.57 54.2299,-921.925 56.5367,-932.265 62.4817,-928.57"/>
<text text-anchor="middle" x="583.5" y="-1053" font-family="Helvetica,sans-Serif" font-size="10.00"> channel_id</text>
</g>
<!-- Node5 -->
<g id="node5" class="node"><title>Node5</title>
<g id="a_node5"><a xlink:href="classdpp_1_1discord__voice__client.html" target="_top" xlink:title="Implements a discord voice connection. Each discord_voice_client connects to one voice channel and de...">
<polygon fill="white" stroke="black" points="835,-749 835,-779 933,-779 933,-749 835,-749"/>
<text text-anchor="start" x="843" y="-767" font-family="Helvetica,sans-Serif" font-size="10.00">dpp::discord_voice</text>
<text text-anchor="middle" x="884" y="-756" font-family="Helvetica,sans-Serif" font-size="10.00">_client</text>
</a>
</g>
</g>
<!-- Node2&#45;&gt;Node5 -->
<g id="edge37" class="edge"><title>Node2&#45;&gt;Node5</title>
<path fill="none" stroke="#9a32cd" stroke-dasharray="5,2" d="M66.5861,-928.651C96.2558,-954.162 158.169,-1000 220,-1000 220,-1000 220,-1000 700,-1000 753.367,-1000 777.802,-1009.21 817,-973 874.295,-920.066 882.151,-817.888 883.007,-779.277"/>
<polygon fill="#9a32cd" stroke="#9a32cd" points="68.5865,-925.748 58.7734,-921.754 63.9538,-930.996 68.5865,-925.748"/>
<text text-anchor="middle" x="473" y="-1014" font-family="Helvetica,sans-Serif" font-size="10.00"> channel_id</text>
<text text-anchor="middle" x="473" y="-1003" font-family="Helvetica,sans-Serif" font-size="10.00">server_id</text>
</g>
<!-- Node7 -->
<g id="node7" class="node"><title>Node7</title>
<g id="a_node7"><a xlink:href="classdpp_1_1ssl__client.html" target="_top" xlink:title="Implements a simple non&#45;blocking SSL stream client.">
<polygon fill="white" stroke="black" points="433,-804.5 433,-823.5 513,-823.5 513,-804.5 433,-804.5"/>
<text text-anchor="middle" x="473" y="-811.5" font-family="Helvetica,sans-Serif" font-size="10.00">dpp::ssl_client</text>
</a>
</g>
</g>
<!-- Node2&#45;&gt;Node7 -->
<g id="edge13" class="edge"><title>Node2&#45;&gt;Node7</title>
<path fill="none" stroke="#9a32cd" stroke-dasharray="5,2" d="M83.2799,-915.772C148.993,-921.405 294.525,-926.666 403,-878 430.131,-865.828 453.56,-838.615 464.838,-823.9"/>
<polygon fill="#9a32cd" stroke="#9a32cd" points="83.3448,-912.264 73.0674,-914.838 82.7066,-919.235 83.3448,-912.264"/>
<text text-anchor="middle" x="221" y="-934" font-family="Helvetica,sans-Serif" font-size="10.00"> bytes_in</text>
<text text-anchor="middle" x="221" y="-923" font-family="Helvetica,sans-Serif" font-size="10.00">bytes_out</text>
</g>
<!-- Node18 -->
<g id="node18" class="node"><title>Node18</title>
<g id="a_node18"><a xlink:href="classdpp_1_1managed.html" target="_top" xlink:title="The managed class is the base class for various types that can be stored in a cache that are identifi...">
<polygon fill="white" stroke="black" points="182,-302.5 182,-321.5 260,-321.5 260,-302.5 182,-302.5"/>
<text text-anchor="middle" x="221" y="-309.5" font-family="Helvetica,sans-Serif" font-size="10.00">dpp::managed</text>
</a>
</g>
</g>
<!-- Node2&#45;&gt;Node18 -->
<g id="edge23" class="edge"><title>Node2&#45;&gt;Node18</title>
<path fill="none" stroke="#9a32cd" stroke-dasharray="5,2" d="M52.2052,-892.502C71.3293,-791.953 158.166,-336.492 163,-331 168.031,-325.284 174.828,-321.283 181.975,-318.484"/>
<polygon fill="#9a32cd" stroke="#9a32cd" points="48.7339,-892.022 50.3044,-902.5 55.6107,-893.329 48.7339,-892.022"/>
<text text-anchor="middle" x="129" y="-576" font-family="Helvetica,sans-Serif" font-size="10.00"> id</text>
</g>
<!-- Node20 -->
<g id="node20" class="node"><title>Node20</title>
<g id="a_node20"><a xlink:href="structdpp_1_1utility_1_1iconhash.html" target="_top" xlink:title="Store a 128 bit icon hash (profile picture, server icon etc) as a 128 bit binary value made of two ui...">
<polygon fill="white" stroke="black" points="167.5,-223.5 167.5,-242.5 274.5,-242.5 274.5,-223.5 167.5,-223.5"/>
<text text-anchor="middle" x="221" y="-230.5" font-family="Helvetica,sans-Serif" font-size="10.00">dpp::utility::iconhash</text>
</a>
</g>
</g>
<!-- Node2&#45;&gt;Node20 -->
<g id="edge27" class="edge"><title>Node2&#45;&gt;Node20</title>
<path fill="none" stroke="#9a32cd" stroke-dasharray="5,2" d="M49.4058,-891.887C52.89,-821.946 67.5878,-583.178 113,-392 128.27,-327.717 115.786,-298.22 163,-252 166.951,-248.133 171.709,-245.052 176.77,-242.599"/>
<polygon fill="#9a32cd" stroke="#9a32cd" points="45.8902,-892.133 48.9099,-902.289 52.8822,-892.467 45.8902,-892.133"/>
<text text-anchor="middle" x="129" y="-406" font-family="Helvetica,sans-Serif" font-size="10.00"> first</text>
<text text-anchor="middle" x="129" y="-395" font-family="Helvetica,sans-Serif" font-size="10.00">second</text>
</g>
<!-- Node3 -->
<g id="node3" class="node"><title>Node3</title>
<g id="a_node3"><a xlink:title=" ">
<polygon fill="white" stroke="#bfbfbf" points="191,-120.5 191,-139.5 251,-139.5 251,-120.5 191,-120.5"/>
<text text-anchor="middle" x="221" y="-127.5" font-family="Helvetica,sans-Serif" font-size="10.00">std::string</text>
</a>
</g>
</g>
<!-- Node3&#45;&gt;Node1 -->
<g id="edge2" class="edge"><title>Node3&#45;&gt;Node1</title>
<path fill="none" stroke="#9a32cd" stroke-dasharray="5,2" d="M250.482,-116.117C296.103,-95.1949 388.893,-58 472,-58 472,-58 472,-58 885,-58 1035.4,-58 1057,-669.492 1059.27,-754.288"/>
<polygon fill="#9a32cd" stroke="#9a32cd" points="248.804,-113.038 241.223,-120.439 251.765,-119.381 248.804,-113.038"/>
<text text-anchor="middle" x="699" y="-83" font-family="Helvetica,sans-Serif" font-size="10.00"> session_id</text>
<text text-anchor="middle" x="699" y="-72" font-family="Helvetica,sans-Serif" font-size="10.00">token</text>
<text text-anchor="middle" x="699" y="-61" font-family="Helvetica,sans-Serif" font-size="10.00">websocket_hostname</text>
</g>
<!-- Node3&#45;&gt;Node5 -->
<g id="edge36" class="edge"><title>Node3&#45;&gt;Node5</title>
<path fill="none" stroke="#9a32cd" stroke-dasharray="5,2" d="M261.498,-126.262C298.221,-123.414 354.412,-120.654 403,-125 605.769,-143.136 711.658,-146.795 817,-321 862.165,-395.69 878.872,-680.068 882.3,-748.921"/>
<polygon fill="#9a32cd" stroke="#9a32cd" points="260.901,-122.799 251.219,-127.102 261.47,-129.776 260.901,-122.799"/>
<text text-anchor="middle" x="583.5" y="-171" font-family="Helvetica,sans-Serif" font-size="10.00"> sessionid</text>
<text text-anchor="middle" x="583.5" y="-160" font-family="Helvetica,sans-Serif" font-size="10.00">token</text>
</g>
<!-- Node3&#45;&gt;Node7 -->
<g id="edge7" class="edge"><title>Node3&#45;&gt;Node7</title>
<path fill="none" stroke="#9a32cd" stroke-dasharray="5,2" d="M249.69,-145.222C260.836,-152.895 272.558,-163.291 279,-176 298.462,-214.396 268.617,-530.636 297,-563 328.558,-598.984 370.065,-547.272 403,-582 425.191,-605.4 410.709,-695.437 421,-726 431.368,-756.792 453.179,-788.781 464.627,-804.34"/>
<polygon fill="#9a32cd" stroke="#9a32cd" points="251.297,-142.096 240.986,-139.66 247.528,-147.994 251.297,-142.096"/>
<text text-anchor="middle" x="350" y="-629" font-family="Helvetica,sans-Serif" font-size="10.00"> buffer</text>
<text text-anchor="middle" x="350" y="-618" font-family="Helvetica,sans-Serif" font-size="10.00">cipher</text>
<text text-anchor="middle" x="350" y="-607" font-family="Helvetica,sans-Serif" font-size="10.00">hostname</text>
<text text-anchor="middle" x="350" y="-596" font-family="Helvetica,sans-Serif" font-size="10.00">obuffer</text>
<text text-anchor="middle" x="350" y="-585" font-family="Helvetica,sans-Serif" font-size="10.00">port</text>
</g>
<!-- Node14 -->
<g id="node14" class="node"><title>Node14</title>
<g id="a_node14"><a xlink:href="classdpp_1_1cluster.html" target="_top" xlink:title="The cluster class represents a group of shards and a command queue for sending and receiving commands...">
<polygon fill="white" stroke="black" points="665,-297.5 665,-316.5 733,-316.5 733,-297.5 665,-297.5"/>
<text text-anchor="middle" x="699" y="-304.5" font-family="Helvetica,sans-Serif" font-size="10.00">dpp::cluster</text>
</a>
</g>
</g>
<!-- Node3&#45;&gt;Node14 -->
<g id="edge16" class="edge"><title>Node3&#45;&gt;Node14</title>
<path fill="none" stroke="#9a32cd" stroke-dasharray="5,2" d="M261.639,-128.325C298.903,-127.849 355.845,-129.976 403,-144 521.902,-179.36 646.181,-267.939 685.389,-297.343"/>
<polygon fill="#9a32cd" stroke="#9a32cd" points="261.136,-124.834 251.208,-128.533 261.276,-131.833 261.136,-124.834"/>
<text text-anchor="middle" x="473" y="-197" font-family="Helvetica,sans-Serif" font-size="10.00"> token</text>
</g>
<!-- Node17 -->
<g id="node17" class="node"><title>Node17</title>
<g id="a_node17"><a xlink:href="classdpp_1_1user.html" target="_top" xlink:title="Represents a user on discord. May or may not be a member of a dpp::guild.">
<polygon fill="white" stroke="black" points="444.5,-251.5 444.5,-270.5 501.5,-270.5 501.5,-251.5 444.5,-251.5"/>
<text text-anchor="middle" x="473" y="-258.5" font-family="Helvetica,sans-Serif" font-size="10.00">dpp::user</text>
</a>
</g>
</g>
<!-- Node3&#45;&gt;Node17 -->
<g id="edge24" class="edge"><title>Node3&#45;&gt;Node17</title>
<path fill="none" stroke="#9a32cd" stroke-dasharray="5,2" d="M261.481,-136.371C299.907,-143.913 358.809,-159.127 403,-187 430.634,-204.43 454.537,-235.596 465.543,-251.337"/>
<polygon fill="#9a32cd" stroke="#9a32cd" points="261.689,-132.849 251.215,-134.443 260.397,-139.729 261.689,-132.849"/>
<text text-anchor="middle" x="350" y="-190" font-family="Helvetica,sans-Serif" font-size="10.00"> username</text>
</g>
<!-- Node4 -->
<g id="node4" class="node"><title>Node4</title>
<g id="a_node4"><a xlink:title=" ">
<polygon fill="white" stroke="#bfbfbf" points="0,-115 0,-145 95,-145 95,-115 0,-115"/>
<text text-anchor="start" x="8" y="-133" font-family="Helvetica,sans-Serif" font-size="10.00">std::basic_string&lt;</text>
<text text-anchor="middle" x="47.5" y="-122" font-family="Helvetica,sans-Serif" font-size="10.00"> Char &gt;</text>
</a>
</g>
</g>
<!-- Node4&#45;&gt;Node3 -->
<g id="edge3" class="edge"><title>Node4&#45;&gt;Node3</title>
<path fill="none" stroke="midnightblue" d="M105.658,-130C134.266,-130 167.668,-130 190.956,-130"/>
<polygon fill="midnightblue" stroke="midnightblue" points="105.363,-126.5 95.3631,-130 105.363,-133.5 105.363,-126.5"/>
</g>
<!-- Node5&#45;&gt;Node1 -->
<g id="edge4" class="edge"><title>Node5&#45;&gt;Node1</title>
<path fill="none" stroke="#9a32cd" stroke-dasharray="5,2" d="M943.181,-764C968.01,-764 996.386,-764 1018.89,-764"/>
<polygon fill="#9a32cd" stroke="#9a32cd" points="943.145,-760.5 933.145,-764 943.145,-767.5 943.145,-760.5"/>
<text text-anchor="middle" x="976" y="-767" font-family="Helvetica,sans-Serif" font-size="10.00"> voiceclient</text>
</g>
<!-- Node6 -->
<g id="node6" class="node"><title>Node6</title>
<g id="a_node6"><a xlink:href="classdpp_1_1websocket__client.html" target="_top" xlink:title="Implements a websocket client based on the SSL client.">
<polygon fill="white" stroke="black" points="642,-789.5 642,-808.5 756,-808.5 756,-789.5 642,-789.5"/>
<text text-anchor="middle" x="699" y="-796.5" font-family="Helvetica,sans-Serif" font-size="10.00">dpp::websocket_client</text>
</a>
</g>
</g>
<!-- Node6&#45;&gt;Node5 -->
<g id="edge5" class="edge"><title>Node6&#45;&gt;Node5</title>
<path fill="none" stroke="midnightblue" d="M759.854,-787.553C784.201,-782.896 811.958,-777.587 834.949,-773.19"/>
<polygon fill="midnightblue" stroke="midnightblue" points="759.17,-784.12 750.006,-789.436 760.485,-790.995 759.17,-784.12"/>
</g>
<!-- Node7&#45;&gt;Node6 -->
<g id="edge6" class="edge"><title>Node7&#45;&gt;Node6</title>
<path fill="none" stroke="midnightblue" d="M523.013,-810.718C558.04,-808.372 605.246,-805.211 641.801,-802.763"/>
<polygon fill="midnightblue" stroke="midnightblue" points="522.762,-807.227 513.018,-811.387 523.229,-814.211 522.762,-807.227"/>
</g>
<!-- Node8 -->
<g id="node8" class="node"><title>Node8</title>
<g id="a_node8"><a xlink:title=" ">
<polygon fill="white" stroke="#bfbfbf" points="203.5,-952.5 203.5,-971.5 238.5,-971.5 238.5,-952.5 203.5,-952.5"/>
<text text-anchor="middle" x="221" y="-959.5" font-family="Helvetica,sans-Serif" font-size="10.00">bool</text>
</a>
</g>
</g>
<!-- Node8&#45;&gt;Node5 -->
<g id="edge32" class="edge"><title>Node8&#45;&gt;Node5</title>
<path fill="none" stroke="#9a32cd" stroke-dasharray="5,2" d="M248.769,-963.27C284.391,-964.371 349.147,-964.317 403,-953 582.675,-915.242 782.389,-816.759 854.832,-779.019"/>
<polygon fill="#9a32cd" stroke="#9a32cd" points="248.814,-959.769 238.693,-962.902 248.559,-966.764 248.814,-959.769"/>
<text text-anchor="middle" x="583.5" y="-928" font-family="Helvetica,sans-Serif" font-size="10.00"> sodium_initialised</text>
<text text-anchor="middle" x="583.5" y="-917" font-family="Helvetica,sans-Serif" font-size="10.00">terminating</text>
</g>
<!-- Node8&#45;&gt;Node7 -->
<g id="edge8" class="edge"><title>Node8&#45;&gt;Node7</title>
<path fill="none" stroke="#9a32cd" stroke-dasharray="5,2" d="M248.329,-954.655C262.676,-950.735 280.768,-945.923 297,-942 343.858,-930.675 363.255,-946.281 403,-919 438.788,-894.435 460.631,-844.613 468.584,-823.645"/>
<polygon fill="#9a32cd" stroke="#9a32cd" points="247.337,-951.298 238.624,-957.327 249.195,-958.047 247.337,-951.298"/>
<text text-anchor="middle" x="350" y="-945" font-family="Helvetica,sans-Serif" font-size="10.00"> nonblocking</text>
</g>
<!-- Node9 -->
<g id="node9" class="node"><title>Node9</title>
<g id="a_node9"><a xlink:title=" ">
<polygon fill="white" stroke="#bfbfbf" points="206.5,-856.5 206.5,-875.5 235.5,-875.5 235.5,-856.5 206.5,-856.5"/>
<text text-anchor="middle" x="221" y="-863.5" font-family="Helvetica,sans-Serif" font-size="10.00">int</text>
</a>
</g>
</g>
<!-- Node9&#45;&gt;Node7 -->
<g id="edge9" class="edge"><title>Node9&#45;&gt;Node7</title>
<path fill="none" stroke="#9a32cd" stroke-dasharray="5,2" d="M246.125,-865.537C281.245,-864.343 348.236,-860.09 403,-845 421.358,-839.941 441.056,-830.668 454.687,-823.577"/>
<polygon fill="#9a32cd" stroke="#9a32cd" points="245.794,-862.045 235.897,-865.828 245.993,-869.042 245.794,-862.045"/>
<text text-anchor="middle" x="350" y="-866" font-family="Helvetica,sans-Serif" font-size="10.00"> sfd</text>
</g>
<!-- Node10 -->
<g id="node10" class="node"><title>Node10</title>
<g id="a_node10"><a xlink:title=" ">
<polygon fill="white" stroke="#bfbfbf" points="200,-818.5 200,-837.5 242,-837.5 242,-818.5 200,-818.5"/>
<text text-anchor="middle" x="221" y="-825.5" font-family="Helvetica,sans-Serif" font-size="10.00">SSL *</text>
</a>
</g>
</g>
<!-- Node10&#45;&gt;Node7 -->
<g id="edge10" class="edge"><title>Node10&#45;&gt;Node7</title>
<path fill="none" stroke="#9a32cd" stroke-dasharray="5,2" d="M252.461,-829.156C288.493,-830.178 350.251,-830.846 403,-826 412.686,-825.11 423.057,-823.604 432.738,-821.955"/>
<polygon fill="#9a32cd" stroke="#9a32cd" points="252.247,-825.647 242.142,-828.833 252.028,-832.644 252.247,-825.647"/>
<text text-anchor="middle" x="350" y="-833" font-family="Helvetica,sans-Serif" font-size="10.00"> ssl</text>
</g>
<!-- Node11 -->
<g id="node11" class="node"><title>Node11</title>
<g id="a_node11"><a xlink:title=" ">
<polygon fill="white" stroke="#bfbfbf" points="187,-780.5 187,-799.5 255,-799.5 255,-780.5 187,-780.5"/>
<text text-anchor="middle" x="221" y="-787.5" font-family="Helvetica,sans-Serif" font-size="10.00">SSL_CTX *</text>
</a>
</g>
</g>
<!-- Node11&#45;&gt;Node7 -->
<g id="edge11" class="edge"><title>Node11&#45;&gt;Node7</title>
<path fill="none" stroke="#9a32cd" stroke-dasharray="5,2" d="M265.415,-794.168C312.638,-798.701 387.445,-805.883 432.901,-810.246"/>
<polygon fill="#9a32cd" stroke="#9a32cd" points="265.487,-790.659 255.198,-793.187 264.818,-797.627 265.487,-790.659"/>
<text text-anchor="middle" x="350" y="-810" font-family="Helvetica,sans-Serif" font-size="10.00"> ctx</text>
</g>
<!-- Node12 -->
<g id="node12" class="node"><title>Node12</title>
<g id="a_node12"><a xlink:title=" ">
<polygon fill="white" stroke="#bfbfbf" points="199,-737.5 199,-756.5 243,-756.5 243,-737.5 199,-737.5"/>
<text text-anchor="middle" x="221" y="-744.5" font-family="Helvetica,sans-Serif" font-size="10.00">time_t</text>
</a>
</g>
</g>
<!-- Node12&#45;&gt;Node5 -->
<g id="edge34" class="edge"><title>Node12&#45;&gt;Node5</title>
<path fill="none" stroke="#9a32cd" stroke-dasharray="5,2" d="M253.311,-747.805C359.466,-750.535 706.221,-759.453 834.615,-762.756"/>
<polygon fill="#9a32cd" stroke="#9a32cd" points="253.331,-744.305 243.244,-747.546 253.151,-751.302 253.331,-744.305"/>
<text text-anchor="middle" x="583.5" y="-761" font-family="Helvetica,sans-Serif" font-size="10.00"> last_heartbeat</text>
</g>
<!-- Node12&#45;&gt;Node7 -->
<g id="edge12" class="edge"><title>Node12&#45;&gt;Node7</title>
<path fill="none" stroke="#9a32cd" stroke-dasharray="5,2" d="M253.037,-750.994C289.521,-756.185 351.613,-766.579 403,-783 420.763,-788.676 440.05,-797.593 453.705,-804.41"/>
<polygon fill="#9a32cd" stroke="#9a32cd" points="253.401,-747.511 243.016,-749.608 252.442,-754.445 253.401,-747.511"/>
<text text-anchor="middle" x="350" y="-786" font-family="Helvetica,sans-Serif" font-size="10.00"> last_tick</text>
</g>
<!-- Node12&#45;&gt;Node14 -->
<g id="edge17" class="edge"><title>Node12&#45;&gt;Node14</title>
<path fill="none" stroke="#9a32cd" stroke-dasharray="5,2" d="M253.183,-741.462C301.533,-732.698 390.368,-715.829 403,-708 570.497,-604.197 673.638,-367.215 694.196,-316.617"/>
<polygon fill="#9a32cd" stroke="#9a32cd" points="252.461,-738.035 243.24,-743.253 253.702,-744.924 252.461,-738.035"/>
<text text-anchor="middle" x="473" y="-699" font-family="Helvetica,sans-Serif" font-size="10.00"> last_identify</text>
</g>
<!-- Node13 -->
<g id="node13" class="node"><title>Node13</title>
<g id="a_node13"><a xlink:title=" ">
<polygon fill="white" stroke="#bfbfbf" points="192.5,-525.5 192.5,-544.5 249.5,-544.5 249.5,-525.5 192.5,-525.5"/>
<text text-anchor="middle" x="221" y="-532.5" font-family="Helvetica,sans-Serif" font-size="10.00">function&lt;</text>
</a>
</g>
</g>
<!-- Node13&#45;&gt;Node7 -->
<g id="edge14" class="edge"><title>Node13&#45;&gt;Node7</title>
<path fill="none" stroke="#9a32cd" stroke-dasharray="5,2" d="M232.216,-553.533C245.222,-576.016 269.35,-614.225 297,-641 337.557,-680.274 362.947,-671.211 403,-711 432.776,-740.58 457.225,-784.859 467.186,-804.281"/>
<polygon fill="#9a32cd" stroke="#9a32cd" points="235.172,-551.65 227.198,-544.673 229.081,-555.1 235.172,-551.65"/>
<text text-anchor="middle" x="350" y="-747" font-family="Helvetica,sans-Serif" font-size="10.00"> custom_readable_fd</text>
<text text-anchor="middle" x="350" y="-736" font-family="Helvetica,sans-Serif" font-size="10.00">custom_readable_ready</text>
<text text-anchor="middle" x="350" y="-725" font-family="Helvetica,sans-Serif" font-size="10.00">custom_writeable_fd</text>
<text text-anchor="middle" x="350" y="-714" font-family="Helvetica,sans-Serif" font-size="10.00">custom_writeable_ready</text>
</g>
<!-- Node16 -->
<g id="node16" class="node"><title>Node16</title>
<g id="a_node16"><a xlink:href="classdpp_1_1dispatcher.html" target="_top" xlink:title="The dispatcher class contains a set of std::functions representing hooked events that the user code i...">
<polygon fill="white" stroke="black" points="431.5,-407.5 431.5,-426.5 514.5,-426.5 514.5,-407.5 431.5,-407.5"/>
<text text-anchor="middle" x="473" y="-414.5" font-family="Helvetica,sans-Serif" font-size="10.00">dpp::dispatcher</text>
</a>
</g>
</g>
<!-- Node13&#45;&gt;Node16 -->
<g id="edge20" class="edge"><title>Node13&#45;&gt;Node16</title>
<path fill="none" stroke="#9a32cd" stroke-dasharray="5,2" d="M226.986,-515.562C235.655,-486.317 256.575,-431.982 297,-409 343.666,-382.47 409.169,-396.325 445.353,-407.489"/>
<polygon fill="#9a32cd" stroke="#9a32cd" points="223.551,-514.852 224.248,-525.424 230.296,-516.725 223.551,-514.852"/>
<text text-anchor="start" x="301" y="-555" font-family="Helvetica,sans-Serif" font-size="10.00"> application_command</text>
<text text-anchor="middle" x="350" y="-544" font-family="Helvetica,sans-Serif" font-size="10.00">_create</text>
<text text-anchor="start" x="301" y="-533" font-family="Helvetica,sans-Serif" font-size="10.00">application_command</text>
<text text-anchor="middle" x="350" y="-522" font-family="Helvetica,sans-Serif" font-size="10.00">_delete</text>
<text text-anchor="start" x="301" y="-511" font-family="Helvetica,sans-Serif" font-size="10.00">application_command</text>
<text text-anchor="middle" x="350" y="-500" font-family="Helvetica,sans-Serif" font-size="10.00">_update</text>
<text text-anchor="middle" x="350" y="-489" font-family="Helvetica,sans-Serif" font-size="10.00">button_click</text>
<text text-anchor="middle" x="350" y="-478" font-family="Helvetica,sans-Serif" font-size="10.00">channel_create</text>
<text text-anchor="middle" x="350" y="-467" font-family="Helvetica,sans-Serif" font-size="10.00">channel_delete</text>
<text text-anchor="middle" x="350" y="-456" font-family="Helvetica,sans-Serif" font-size="10.00">channel_pins_update</text>
<text text-anchor="middle" x="350" y="-445" font-family="Helvetica,sans-Serif" font-size="10.00">channel_update</text>
<text text-anchor="middle" x="350" y="-434" font-family="Helvetica,sans-Serif" font-size="10.00">guild_ban_add</text>
<text text-anchor="middle" x="350" y="-423" font-family="Helvetica,sans-Serif" font-size="10.00">guild_ban_remove</text>
<text text-anchor="middle" x="350" y="-412" font-family="Helvetica,sans-Serif" font-size="10.00">...</text>
</g>
<!-- Node14&#45;&gt;Node5 -->
<g id="edge15" class="edge"><title>Node14&#45;&gt;Node5</title>
<path fill="none" stroke="#9a32cd" stroke-dasharray="5,2" d="M742.819,-313.452C768.223,-319.562 798.904,-331.355 817,-354 867.297,-416.94 880.077,-682.487 882.511,-748.897"/>
<polygon fill="#9a32cd" stroke="#9a32cd" points="743.54,-310.027 733.023,-311.308 742.043,-316.865 743.54,-310.027"/>
<text text-anchor="middle" x="795.5" y="-357" font-family="Helvetica,sans-Serif" font-size="10.00"> creator</text>
</g>
<!-- Node15 -->
<g id="node15" class="node"><title>Node15</title>
<g id="a_node15"><a xlink:title=" ">
<polygon fill="white" stroke="#bfbfbf" points="195.5,-340.5 195.5,-359.5 246.5,-359.5 246.5,-340.5 195.5,-340.5"/>
<text text-anchor="middle" x="221" y="-347.5" font-family="Helvetica,sans-Serif" font-size="10.00">uint32_t</text>
</a>
</g>
</g>
<!-- Node15&#45;&gt;Node5 -->
<g id="edge33" class="edge"><title>Node15&#45;&gt;Node5</title>
<path fill="none" stroke="#9a32cd" stroke-dasharray="5,2" d="M256.744,-355.204C269.393,-356.947 283.819,-358.76 297,-360 306.057,-360.852 616.094,-373.5 624,-378 778.655,-466.017 859.041,-688.779 878.362,-748.868"/>
<polygon fill="#9a32cd" stroke="#9a32cd" points="256.996,-351.704 246.604,-353.77 256.016,-358.636 256.996,-351.704"/>
<text text-anchor="middle" x="583.5" y="-381" font-family="Helvetica,sans-Serif" font-size="10.00"> heartbeat_interval</text>
</g>
<!-- Node15&#45;&gt;Node14 -->
<g id="edge18" class="edge"><title>Node15&#45;&gt;Node14</title>
<path fill="none" stroke="#9a32cd" stroke-dasharray="5,2" d="M257.205,-353.441C294.764,-355.729 355.297,-355.384 403,-336 412.648,-332.08 411.301,-324.791 421,-321 503.743,-288.657 611.097,-295.662 664.61,-302.097"/>
<polygon fill="#9a32cd" stroke="#9a32cd" points="257.011,-349.918 246.788,-352.702 256.515,-356.901 257.011,-349.918"/>
<text text-anchor="middle" x="473" y="-357" font-family="Helvetica,sans-Serif" font-size="10.00"> cluster_id</text>
<text text-anchor="middle" x="473" y="-346" font-family="Helvetica,sans-Serif" font-size="10.00">intents</text>
<text text-anchor="middle" x="473" y="-335" font-family="Helvetica,sans-Serif" font-size="10.00">maxclusters</text>
<text text-anchor="middle" x="473" y="-324" font-family="Helvetica,sans-Serif" font-size="10.00">numshards</text>
</g>
<!-- Node15&#45;&gt;Node17 -->
<g id="edge28" class="edge"><title>Node15&#45;&gt;Node17</title>
<path fill="none" stroke="#9a32cd" stroke-dasharray="5,2" d="M256.636,-338.449C276.224,-331.917 296.861,-325.038 297,-325 343.49,-312.248 360.358,-324.485 403,-302 412.734,-296.867 411.908,-291.198 421,-285 429.247,-279.378 439.019,-274.426 447.791,-270.502"/>
<polygon fill="#9a32cd" stroke="#9a32cd" points="255.28,-335.212 246.901,-341.695 257.495,-341.852 255.28,-335.212"/>
<text text-anchor="middle" x="350" y="-328" font-family="Helvetica,sans-Serif" font-size="10.00"> flags</text>
</g>
<!-- Node16&#45;&gt;Node14 -->
<g id="edge19" class="edge"><title>Node16&#45;&gt;Node14</title>
<path fill="none" stroke="#9a32cd" stroke-dasharray="5,2" d="M524.671,-417.48C555.166,-415.754 593.799,-409.872 624,-393 657.188,-374.46 682.394,-334.995 692.791,-316.693"/>
<polygon fill="#9a32cd" stroke="#9a32cd" points="524.503,-413.984 514.665,-417.916 524.808,-420.977 524.503,-413.984"/>
<text text-anchor="middle" x="583.5" y="-419" font-family="Helvetica,sans-Serif" font-size="10.00"> dispatch</text>
</g>
<!-- Node17&#45;&gt;Node14 -->
<g id="edge21" class="edge"><title>Node17&#45;&gt;Node14</title>
<path fill="none" stroke="#9a32cd" stroke-dasharray="5,2" d="M511.872,-264.327C542.42,-267.482 586.347,-273.086 624,-282 640.891,-285.998 659.391,-292.248 673.668,-297.499"/>
<polygon fill="#9a32cd" stroke="#9a32cd" points="511.954,-260.818 501.657,-263.312 511.262,-267.783 511.954,-260.818"/>
<text text-anchor="middle" x="583.5" y="-285" font-family="Helvetica,sans-Serif" font-size="10.00"> me</text>
</g>
<!-- Node18&#45;&gt;Node17 -->
<g id="edge22" class="edge"><title>Node18&#45;&gt;Node17</title>
<path fill="none" stroke="midnightblue" d="M270.109,-303.196C306.637,-296.391 358.073,-286.549 403,-277 416.592,-274.111 431.629,-270.655 444.187,-267.695"/>
<polygon fill="midnightblue" stroke="midnightblue" points="269.412,-299.766 260.219,-305.033 270.69,-306.648 269.412,-299.766"/>
</g>
<!-- Node19 -->
<g id="node19" class="node"><title>Node19</title>
<g id="a_node19"><a xlink:title=" ">
<polygon fill="white" stroke="#bfbfbf" points="195.5,-261.5 195.5,-280.5 246.5,-280.5 246.5,-261.5 195.5,-261.5"/>
<text text-anchor="middle" x="221" y="-268.5" font-family="Helvetica,sans-Serif" font-size="10.00">uint16_t</text>
</a>
</g>
</g>
<!-- Node19&#45;&gt;Node17 -->
<g id="edge25" class="edge"><title>Node19&#45;&gt;Node17</title>
<path fill="none" stroke="#9a32cd" stroke-dasharray="5,2" d="M256.793,-268.404C269.446,-267.533 283.863,-266.625 297,-266 349.067,-263.522 409.912,-262.12 444.406,-261.465"/>
<polygon fill="#9a32cd" stroke="#9a32cd" points="256.374,-264.925 246.645,-269.12 256.867,-271.908 256.374,-264.925"/>
<text text-anchor="middle" x="350" y="-269" font-family="Helvetica,sans-Serif" font-size="10.00"> discriminator</text>
</g>
<!-- Node20&#45;&gt;Node17 -->
<g id="edge26" class="edge"><title>Node20&#45;&gt;Node17</title>
<path fill="none" stroke="#9a32cd" stroke-dasharray="5,2" d="M284.875,-236.605C319.769,-239.008 363.896,-242.71 403,-248 416.65,-249.846 431.694,-252.596 444.241,-255.091"/>
<polygon fill="#9a32cd" stroke="#9a32cd" points="285.038,-233.108 274.826,-235.931 284.569,-240.092 285.038,-233.108"/>
<text text-anchor="middle" x="350" y="-251" font-family="Helvetica,sans-Serif" font-size="10.00"> avatar</text>
</g>
<!-- Node21 -->
<g id="node21" class="node"><title>Node21</title>
<g id="a_node21"><a xlink:title=" ">
<polygon fill="white" stroke="#bfbfbf" points="198,-185.5 198,-204.5 244,-204.5 244,-185.5 198,-185.5"/>
<text text-anchor="middle" x="221" y="-192.5" font-family="Helvetica,sans-Serif" font-size="10.00">uint8_t</text>
</a>
</g>
</g>
<!-- Node21&#45;&gt;Node17 -->
<g id="edge29" class="edge"><title>Node21&#45;&gt;Node17</title>
<path fill="none" stroke="#9a32cd" stroke-dasharray="5,2" d="M254.184,-196.588C291.016,-199.174 352.733,-205.87 403,-223 423.323,-229.926 444.671,-242.649 458.142,-251.454"/>
<polygon fill="#9a32cd" stroke="#9a32cd" points="254.243,-193.085 244.039,-195.937 253.795,-200.07 254.243,-193.085"/>
<text text-anchor="middle" x="350" y="-226" font-family="Helvetica,sans-Serif" font-size="10.00"> refcount</text>
</g>
<!-- Node22 -->
<g id="node22" class="node"><title>Node22</title>
<g id="a_node22"><a xlink:href="structdpp_1_1cache__policy__t.html" target="_top" xlink:title="Represents the caching policy of the cluster.">
<polygon fill="white" stroke="black" points="421,-5.5 421,-24.5 525,-24.5 525,-5.5 421,-5.5"/>
<text text-anchor="middle" x="473" y="-12.5" font-family="Helvetica,sans-Serif" font-size="10.00">dpp::cache_policy_t</text>
</a>
</g>
</g>
<!-- Node22&#45;&gt;Node14 -->
<g id="edge30" class="edge"><title>Node22&#45;&gt;Node14</title>
<path fill="none" stroke="#9a32cd" stroke-dasharray="5,2" d="M534.573,-27.2484C565.117,-36.2858 600.554,-51.5819 624,-77 685.716,-143.906 695.975,-262.645 697.668,-297.271"/>
<polygon fill="#9a32cd" stroke="#9a32cd" points="535.423,-23.8518 524.85,-24.5291 533.538,-30.5931 535.423,-23.8518"/>
<text text-anchor="middle" x="583.5" y="-80" font-family="Helvetica,sans-Serif" font-size="10.00"> cache_policy</text>
</g>
<!-- Node23 -->
<g id="node23" class="node"><title>Node23</title>
<g id="a_node23"><a xlink:title=" ">
<polygon fill="white" stroke="#bfbfbf" points="163,-0.5 163,-19.5 279,-19.5 279,-0.5 163,-0.5"/>
<text text-anchor="middle" x="221" y="-7.5" font-family="Helvetica,sans-Serif" font-size="10.00">cache_policy_setting_t</text>
</a>
</g>
</g>
<!-- Node23&#45;&gt;Node22 -->
<g id="edge31" class="edge"><title>Node23&#45;&gt;Node22</title>
<path fill="none" stroke="#9a32cd" stroke-dasharray="5,2" d="M289.382,-9.53417C323.447,-9.51163 365.428,-9.80798 403,-11 408.757,-11.1826 414.781,-11.4374 420.769,-11.7309"/>
<polygon fill="#9a32cd" stroke="#9a32cd" points="289.072,-6.03457 279.078,-9.55076 289.084,-13.0346 289.072,-6.03457"/>
<text text-anchor="middle" x="350" y="-36" font-family="Helvetica,sans-Serif" font-size="10.00"> emoji_policy</text>
<text text-anchor="middle" x="350" y="-25" font-family="Helvetica,sans-Serif" font-size="10.00">role_policy</text>
<text text-anchor="middle" x="350" y="-14" font-family="Helvetica,sans-Serif" font-size="10.00">user_policy</text>
</g>
<!-- Node24 -->
<g id="node24" class="node"><title>Node24</title>
<g id="a_node24"><a xlink:title=" ">
<polygon fill="white" stroke="#bfbfbf" points="648.5,-952.5 648.5,-971.5 749.5,-971.5 749.5,-952.5 648.5,-952.5"/>
<text text-anchor="middle" x="699" y="-959.5" font-family="Helvetica,sans-Serif" font-size="10.00">native_handle_type</text>
</a>
</g>
</g>
<!-- Node24&#45;&gt;Node5 -->
<g id="edge35" class="edge"><title>Node24&#45;&gt;Node5</title>
<path fill="none" stroke="#9a32cd" stroke-dasharray="5,2" d="M759.746,-961.108C779.867,-958.056 801.197,-951.454 817,-938 866.324,-896.007 878.871,-813.059 881.994,-779.067"/>
<polygon fill="#9a32cd" stroke="#9a32cd" points="759.173,-957.652 749.684,-962.367 760.042,-964.598 759.173,-957.652"/>
<text text-anchor="middle" x="795.5" y="-961" font-family="Helvetica,sans-Serif" font-size="10.00"> thread_id</text>
</g>
</g>
</svg>
        <g id="navigator" transform="translate(0 0)" fill="#404254">
                <rect fill="#f2f5e9" fill-opacity="0.5" stroke="#606060" stroke-width=".5" x="0" y="0" width="60" height="60"/>
                <use id="zoomplus" xlink:href="#zoomPlus" x="17" y="9" onmousedown="handleZoom(evt,'in')"/>
                <use id="zoomminus" xlink:href="#zoomMin" x="42" y="9" onmousedown="handleZoom(evt,'out')"/>
                <use id="reset" xlink:href="#resetDef" x="30" y="36" onmousedown="handleReset()"/>
                <g id="arrowUp" xlink:href="#dirArrow" transform="translate(30 24)" onmousedown="handlePan(0,-1)">
                  <use xlink:href="#rim" fill="#404040">
                        <set attributeName="fill" to="#808080" begin="arrowUp.mouseover" end="arrowUp.mouseout"/>
                  </use>
                  <path fill="none" stroke="white" stroke-width="1.5" d="M0,-3.0v7 M-2.5,-0.5L0,-3.0L2.5,-0.5"/>
                </g>
                <g id="arrowRight" xlink:href="#dirArrow" transform="rotate(90) translate(36 -43)" onmousedown="handlePan(1,0)">
                  <use xlink:href="#rim" fill="#404040">
                        <set attributeName="fill" to="#808080" begin="arrowRight.mouseover" end="arrowRight.mouseout"/>
                  </use>
                  <path fill="none" stroke="white" stroke-width="1.5" d="M0,-3.0v7 M-2.5,-0.5L0,-3.0L2.5,-0.5"/>
                </g>
                <g id="arrowDown" xlink:href="#dirArrow" transform="rotate(180) translate(-30 -48)" onmousedown="handlePan(0,1)">
                  <use xlink:href="#rim" fill="#404040">
                        <set attributeName="fill" to="#808080" begin="arrowDown.mouseover" end="arrowDown.mouseout"/>
                  </use>
                  <path fill="none" stroke="white" stroke-width="1.5" d="M0,-3.0v7 M-2.5,-0.5L0,-3.0L2.5,-0.5"/>
                </g>
                <g id="arrowLeft" xlink:href="#dirArrow" transform="rotate(270) translate(-36 17)" onmousedown="handlePan(-1,0)">
                  <use xlink:href="#rim" fill="#404040">
                        <set attributeName="fill" to="#808080" begin="arrowLeft.mouseover" end="arrowLeft.mouseout"/>
                  </use>
                  <path fill="none" stroke="white" stroke-width="1.5" d="M0,-3.0v7 M-2.5,-0.5L0,-3.0L2.5,-0.5"/>
                </g>
        </g>
        <svg viewBox="0 0 15 15" width="100%" height="30px" preserveAspectRatio="xMaxYMin meet">
         <g id="arrow_out" transform="scale(0.3 0.3)">
          <a xlink:href="classdpp_1_1voiceconn__coll__graph_org.svg" target="_base">
           <rect id="button" ry="5" rx="5" y="6" x="6" height="38" width="38"
                fill="#f2f5e9" fill-opacity="0.5" stroke="#606060" stroke-width="1.0"/>
           <path id="arrow"
             d="M 11.500037,31.436501 C 11.940474,20.09759 22.043105,11.32322 32.158766,21.979434 L 37.068811,17.246167 C 37.068811,17.246167 37.088388,32 37.088388,32 L 22.160133,31.978069 C 22.160133,31.978069 26.997745,27.140456 26.997745,27.140456 C 18.528582,18.264221 13.291696,25.230495 11.500037,31.436501 z"
             style="fill:#404040;"/>
          </a>
         </g>
        </svg>
</svg>
