<?xml version="1.0" encoding="UTF-8" standalone="no"?>
<!DOCTYPE svg PUBLIC "-//W3C//DTD SVG 1.1//EN"
 "http://www.w3.org/Graphics/SVG/1.1/DTD/svg11.dtd">
<!-- Generated by graphviz version 2.43.0 (0)
 -->
<!-- Title: dpp::command_interaction Pages: 1 -->
<svg width="377pt" height="163pt"
 viewBox="0.00 0.00 377.00 163.00" xmlns="http://www.w3.org/2000/svg" xmlns:xlink="http://www.w3.org/1999/xlink">
<g id="graph0" class="graph" transform="scale(1 1) rotate(0) translate(4 159)">
<title>dpp::command_interaction</title>
<!-- Node1 -->
<g id="node1" class="node">
<title>Node1</title>
<g id="a_node1"><a xlink:title="Details of a command within an interaction. This subobject represents the application command associa...">
<polygon fill="#bfbfbf" stroke="black" points="122.5,-0.5 122.5,-19.5 269.5,-19.5 269.5,-0.5 122.5,-0.5"/>
<text text-anchor="middle" x="196" y="-7.5" font-family="Helvetica,sans-Serif" font-size="10.00">dpp::command_interaction</text>
</a>
</g>
</g>
<!-- Node2 -->
<g id="node2" class="node">
<title>Node2</title>
<g id="a_node2"><a xlink:title=" ">
<polygon fill="none" stroke="#bfbfbf" points="0,-67.5 0,-86.5 56,-86.5 56,-67.5 0,-67.5"/>
<text text-anchor="middle" x="28" y="-74.5" font-family="Helvetica,sans-Serif" font-size="10.00">uint64_t</text>
</a>
</g>
</g>
<!-- Node2&#45;&gt;Node1 -->
<g id="edge1" class="edge">
<title>Node2&#45;&gt;Node1</title>
<path fill="none" stroke="#9a32cd" stroke-dasharray="5,2" d="M60.04,-63.6C93.39,-50.7 144.75,-30.83 173.87,-19.56"/>
<polygon fill="#9a32cd" stroke="#9a32cd" points="58.37,-60.5 50.31,-67.37 60.9,-67.02 58.37,-60.5"/>
<text text-anchor="middle" x="129.5" y="-41" font-family="Helvetica,sans-Serif" font-size="10.00"> id</text>
</g>
<!-- Node3 -->
<g id="node3" class="node">
<title>Node3</title>
<g id="a_node3"><a xlink:title=" ">
<polygon fill="none" stroke="#bfbfbf" points="74.5,-67.5 74.5,-86.5 139.5,-86.5 139.5,-67.5 74.5,-67.5"/>
<text text-anchor="middle" x="107" y="-74.5" font-family="Helvetica,sans-Serif" font-size="10.00">std::string</text>
</a>
</g>
</g>
<!-- Node3&#45;&gt;Node1 -->
<g id="edge2" class="edge">
<title>Node3&#45;&gt;Node1</title>
<path fill="none" stroke="#9a32cd" stroke-dasharray="5,2" d="M127.45,-61.07C145.01,-48.24 169.73,-30.19 184.19,-19.63"/>
<polygon fill="#9a32cd" stroke="#9a32cd" points="125.01,-58.51 119,-67.23 129.14,-64.16 125.01,-58.51"/>
<text text-anchor="middle" x="172.5" y="-41" font-family="Helvetica,sans-Serif" font-size="10.00"> name</text>
</g>
<!-- Node4 -->
<g id="node4" class="node">
<title>Node4</title>
<g id="a_node4"><a xlink:title=" ">
<polygon fill="none" stroke="#bfbfbf" points="55,-124.5 55,-154.5 159,-154.5 159,-124.5 55,-124.5"/>
<text text-anchor="start" x="63" y="-142.5" font-family="Helvetica,sans-Serif" font-size="10.00">std::basic_string&lt;</text>
<text text-anchor="middle" x="107" y="-131.5" font-family="Helvetica,sans-Serif" font-size="10.00"> Char &gt;</text>
</a>
</g>
</g>
<!-- Node4&#45;&gt;Node3 -->
<g id="edge3" class="edge">
<title>Node4&#45;&gt;Node3</title>
<path fill="none" stroke="midnightblue" d="M107,-114.35C107,-104.51 107,-93.78 107,-86.54"/>
<polygon fill="midnightblue" stroke="midnightblue" points="103.5,-114.47 107,-124.47 110.5,-114.47 103.5,-114.47"/>
</g>
<!-- Node5 -->
<g id="node5" class="node">
<title>Node5</title>
<g id="a_node5"><a xlink:href="structdpp_1_1command__resolved.html" target="_top" xlink:title="Resolved snowflake ids to usernames. TODO: Needs implementation. Not needed something that functions ...">
<polygon fill="none" stroke="black" points="157.5,-67.5 157.5,-86.5 294.5,-86.5 294.5,-67.5 157.5,-67.5"/>
<text text-anchor="middle" x="226" y="-74.5" font-family="Helvetica,sans-Serif" font-size="10.00">dpp::command_resolved</text>
</a>
</g>
</g>
<!-- Node5&#45;&gt;Node1 -->
<g id="edge4" class="edge">
<title>Node5&#45;&gt;Node1</title>
<path fill="none" stroke="#9a32cd" stroke-dasharray="5,2" d="M217.6,-57.79C211.83,-45.31 204.45,-29.31 199.98,-19.63"/>
<polygon fill="#9a32cd" stroke="#9a32cd" points="214.59,-59.62 221.95,-67.23 220.94,-56.69 214.59,-59.62"/>
<text text-anchor="middle" x="236" y="-41" font-family="Helvetica,sans-Serif" font-size="10.00"> resolved</text>
</g>
<!-- Node6 -->
<g id="node6" class="node">
<title>Node6</title>
<g id="a_node6"><a xlink:title=" ">
<polygon fill="none" stroke="#bfbfbf" points="313,-67.5 313,-86.5 369,-86.5 369,-67.5 313,-67.5"/>
<text text-anchor="middle" x="341" y="-74.5" font-family="Helvetica,sans-Serif" font-size="10.00">vector&lt;</text>
</a>
</g>
</g>
<!-- Node6&#45;&gt;Node1 -->
<g id="edge5" class="edge">
<title>Node6&#45;&gt;Node1</title>
<path fill="none" stroke="#9a32cd" stroke-dasharray="5,2" d="M314.91,-62.72C299.86,-55.2 280.5,-45.78 263,-38 248.33,-31.48 231.58,-24.73 218.5,-19.61"/>
<polygon fill="#9a32cd" stroke="#9a32cd" points="313.61,-65.99 324.12,-67.35 316.76,-59.73 313.61,-65.99"/>
<text text-anchor="middle" x="306" y="-41" font-family="Helvetica,sans-Serif" font-size="10.00"> options</text>
</g>
</g>
</svg>
