<?xml version="1.0" encoding="UTF-8" standalone="no"?>
<!DOCTYPE svg PUBLIC "-//W3C//DTD SVG 1.1//EN"
 "http://www.w3.org/Graphics/SVG/1.1/DTD/svg11.dtd">
<!-- Generated by graphviz version 2.43.0 (0)
 -->
<!-- Title: dpp::confirmation_callback_t Pages: 1 -->
<svg width="834pt" height="449pt"
 viewBox="0.00 0.00 834.00 448.50" xmlns="http://www.w3.org/2000/svg" xmlns:xlink="http://www.w3.org/1999/xlink">
<g id="graph0" class="graph" transform="scale(1 1) rotate(0) translate(4 444.5)">
<title>dpp::confirmation_callback_t</title>
<!-- Node1 -->
<g id="node1" class="node">
<title>Node1</title>
<g id="a_node1"><a xlink:title="The results of a REST call wrapped in a convenient struct.">
<polygon fill="#bfbfbf" stroke="black" points="669,-168 669,-187 826,-187 826,-168 669,-168"/>
<text text-anchor="middle" x="747.5" y="-175" font-family="Helvetica,sans-Serif" font-size="10.00">dpp::confirmation_callback_t</text>
</a>
</g>
</g>
<!-- Node2 -->
<g id="node2" class="node">
<title>Node2</title>
<g id="a_node2"><a xlink:title=" ">
<polygon fill="none" stroke="#bfbfbf" points="141,-185 141,-204 206,-204 206,-185 141,-185"/>
<text text-anchor="middle" x="173.5" y="-192" font-family="Helvetica,sans-Serif" font-size="10.00">std::string</text>
</a>
</g>
</g>
<!-- Node2&#45;&gt;Node1 -->
<g id="edge1" class="edge">
<title>Node2&#45;&gt;Node1</title>
<path fill="none" stroke="#9a32cd" stroke-dasharray="5,2" d="M216.18,-193.26C311.42,-190.43 546.25,-183.45 668.97,-179.8"/>
<polygon fill="#9a32cd" stroke="#9a32cd" points="215.96,-189.77 206.07,-193.56 216.17,-196.76 215.96,-189.77"/>
<text text-anchor="middle" x="464" y="-191.5" font-family="Helvetica,sans-Serif" font-size="10.00"> type</text>
</g>
<!-- Node4 -->
<g id="node4" class="node">
<title>Node4</title>
<g id="a_node4"><a xlink:href="structdpp_1_1http__request__completion__t.html" target="_top" xlink:title="The result of any HTTP request. Contains the headers, vital rate limit figures, and returned request ...">
<polygon fill="none" stroke="black" points="378.5,-280 378.5,-299 549.5,-299 549.5,-280 378.5,-280"/>
<text text-anchor="middle" x="464" y="-287" font-family="Helvetica,sans-Serif" font-size="10.00">dpp::http_request_completion_t</text>
</a>
</g>
</g>
<!-- Node2&#45;&gt;Node4 -->
<g id="edge7" class="edge">
<title>Node2&#45;&gt;Node4</title>
<path fill="none" stroke="#9a32cd" stroke-dasharray="5,2" d="M215.84,-203.78C246.08,-210.93 287.96,-221.59 324,-233.5 366.49,-247.54 414.63,-267.99 441.65,-279.9"/>
<polygon fill="#9a32cd" stroke="#9a32cd" points="216.58,-200.36 206.05,-201.49 214.99,-207.18 216.58,-200.36"/>
<text text-anchor="middle" x="274" y="-247.5" font-family="Helvetica,sans-Serif" font-size="10.00"> body</text>
<text text-anchor="middle" x="274" y="-236.5" font-family="Helvetica,sans-Serif" font-size="10.00">ratelimit_bucket</text>
</g>
<!-- Node3 -->
<g id="node3" class="node">
<title>Node3</title>
<g id="a_node3"><a xlink:title=" ">
<polygon fill="none" stroke="#bfbfbf" points="0,-179.5 0,-209.5 104,-209.5 104,-179.5 0,-179.5"/>
<text text-anchor="start" x="8" y="-197.5" font-family="Helvetica,sans-Serif" font-size="10.00">std::basic_string&lt;</text>
<text text-anchor="middle" x="52" y="-186.5" font-family="Helvetica,sans-Serif" font-size="10.00"> Char &gt;</text>
</a>
</g>
</g>
<!-- Node3&#45;&gt;Node2 -->
<g id="edge2" class="edge">
<title>Node3&#45;&gt;Node2</title>
<path fill="none" stroke="midnightblue" d="M114.1,-194.5C123.41,-194.5 132.68,-194.5 141,-194.5"/>
<polygon fill="midnightblue" stroke="midnightblue" points="114.03,-191 104.03,-194.5 114.03,-198 114.03,-191"/>
</g>
<!-- Node4&#45;&gt;Node1 -->
<g id="edge3" class="edge">
<title>Node4&#45;&gt;Node1</title>
<path fill="none" stroke="#9a32cd" stroke-dasharray="5,2" d="M498.37,-276.22C555.88,-253.34 672.34,-207.01 722.56,-187.02"/>
<polygon fill="#9a32cd" stroke="#9a32cd" points="497,-273 489,-279.95 499.59,-279.51 497,-273"/>
<text text-anchor="middle" x="627.5" y="-236.5" font-family="Helvetica,sans-Serif" font-size="10.00"> http_info</text>
</g>
<!-- Node5 -->
<g id="node5" class="node">
<title>Node5</title>
<g id="a_node5"><a xlink:title=" ">
<polygon fill="none" stroke="#bfbfbf" points="150,-421 150,-440 197,-440 197,-421 150,-421"/>
<text text-anchor="middle" x="173.5" y="-428" font-family="Helvetica,sans-Serif" font-size="10.00">map&lt;</text>
</a>
</g>
</g>
<!-- Node5&#45;&gt;Node4 -->
<g id="edge4" class="edge">
<title>Node5&#45;&gt;Node4</title>
<path fill="none" stroke="#9a32cd" stroke-dasharray="5,2" d="M207.4,-428.69C238.66,-425.93 286.36,-418.99 324,-401.5 380.49,-375.25 433.96,-321.18 454.33,-299.15"/>
<polygon fill="#9a32cd" stroke="#9a32cd" points="206.76,-425.23 197.07,-429.5 207.31,-432.21 206.76,-425.23"/>
<text text-anchor="middle" x="274" y="-429.5" font-family="Helvetica,sans-Serif" font-size="10.00"> headers</text>
</g>
<!-- Node6 -->
<g id="node6" class="node">
<title>Node6</title>
<g id="a_node6"><a xlink:title=" ">
<polygon fill="none" stroke="#bfbfbf" points="145.5,-383 145.5,-402 201.5,-402 201.5,-383 145.5,-383"/>
<text text-anchor="middle" x="173.5" y="-390" font-family="Helvetica,sans-Serif" font-size="10.00">uint16_t</text>
</a>
</g>
</g>
<!-- Node6&#45;&gt;Node4 -->
<g id="edge5" class="edge">
<title>Node6&#45;&gt;Node4</title>
<path fill="none" stroke="#9a32cd" stroke-dasharray="5,2" d="M211.89,-388.75C242.65,-384.9 287.03,-377.58 324,-364.5 372.34,-347.4 424.23,-315.26 448.69,-299.18"/>
<polygon fill="#9a32cd" stroke="#9a32cd" points="211.14,-385.32 201.62,-389.97 211.96,-392.27 211.14,-385.32"/>
<text text-anchor="middle" x="274" y="-389.5" font-family="Helvetica,sans-Serif" font-size="10.00"> status</text>
</g>
<!-- Node7 -->
<g id="node7" class="node">
<title>Node7</title>
<g id="a_node7"><a xlink:title=" ">
<polygon fill="none" stroke="#bfbfbf" points="141,-345 141,-364 206,-364 206,-345 141,-345"/>
<text text-anchor="middle" x="173.5" y="-352" font-family="Helvetica,sans-Serif" font-size="10.00">http_error</text>
</a>
</g>
</g>
<!-- Node7&#45;&gt;Node4 -->
<g id="edge6" class="edge">
<title>Node7&#45;&gt;Node4</title>
<path fill="none" stroke="#9a32cd" stroke-dasharray="5,2" d="M216.17,-350.96C246.36,-347.9 288.02,-342.66 324,-334.5 364.82,-325.24 410.76,-309.22 438.27,-299.01"/>
<polygon fill="#9a32cd" stroke="#9a32cd" points="215.62,-347.49 206,-351.95 216.3,-354.46 215.62,-347.49"/>
<text text-anchor="middle" x="274" y="-352.5" font-family="Helvetica,sans-Serif" font-size="10.00"> error</text>
</g>
<!-- Node8 -->
<g id="node8" class="node">
<title>Node8</title>
<g id="a_node8"><a xlink:title=" ">
<polygon fill="none" stroke="#bfbfbf" points="145.5,-282 145.5,-301 201.5,-301 201.5,-282 145.5,-282"/>
<text text-anchor="middle" x="173.5" y="-289" font-family="Helvetica,sans-Serif" font-size="10.00">uint64_t</text>
</a>
</g>
</g>
<!-- Node8&#45;&gt;Node4 -->
<g id="edge8" class="edge">
<title>Node8&#45;&gt;Node4</title>
<path fill="none" stroke="#9a32cd" stroke-dasharray="5,2" d="M211.82,-290.68C215.93,-290.61 220.05,-290.55 224,-290.5 275.24,-289.88 332.66,-289.62 378.38,-289.52"/>
<polygon fill="#9a32cd" stroke="#9a32cd" points="211.66,-287.18 201.73,-290.87 211.8,-294.18 211.66,-287.18"/>
<text text-anchor="middle" x="274" y="-326.5" font-family="Helvetica,sans-Serif" font-size="10.00"> ratelimit_limit</text>
<text text-anchor="middle" x="274" y="-315.5" font-family="Helvetica,sans-Serif" font-size="10.00">ratelimit_remaining</text>
<text text-anchor="middle" x="274" y="-304.5" font-family="Helvetica,sans-Serif" font-size="10.00">ratelimit_reset_after</text>
<text text-anchor="middle" x="274" y="-293.5" font-family="Helvetica,sans-Serif" font-size="10.00">ratelimit_retry_after</text>
</g>
<!-- Node9 -->
<g id="node9" class="node">
<title>Node9</title>
<g id="a_node9"><a xlink:title=" ">
<polygon fill="none" stroke="#bfbfbf" points="154.5,-244 154.5,-263 192.5,-263 192.5,-244 154.5,-244"/>
<text text-anchor="middle" x="173.5" y="-251" font-family="Helvetica,sans-Serif" font-size="10.00">bool</text>
</a>
</g>
</g>
<!-- Node9&#45;&gt;Node4 -->
<g id="edge9" class="edge">
<title>Node9&#45;&gt;Node4</title>
<path fill="none" stroke="#9a32cd" stroke-dasharray="5,2" d="M202.66,-257.01C244.92,-262.29 326.26,-272.44 386.82,-279.99"/>
<polygon fill="#9a32cd" stroke="#9a32cd" points="202.9,-253.52 192.55,-255.75 202.04,-260.46 202.9,-253.52"/>
<text text-anchor="middle" x="274" y="-274.5" font-family="Helvetica,sans-Serif" font-size="10.00"> ratelimit_global</text>
</g>
<!-- Node10 -->
<g id="node10" class="node">
<title>Node10</title>
<g id="a_node10"><a xlink:title=" ">
<polygon fill="none" stroke="#bfbfbf" points="342,-0.5 342,-140.5 586,-140.5 586,-0.5 342,-0.5"/>
<text text-anchor="start" x="350" y="-128.5" font-family="Helvetica,sans-Serif" font-size="10.00">variant&lt; confirmation,</text>
<text text-anchor="start" x="350" y="-117.5" font-family="Helvetica,sans-Serif" font-size="10.00"> message, message_map,</text>
<text text-anchor="start" x="350" y="-106.5" font-family="Helvetica,sans-Serif" font-size="10.00"> user, user_map, guild</text>
<text text-anchor="start" x="350" y="-95.5" font-family="Helvetica,sans-Serif" font-size="10.00">_member, guild_member_map,</text>
<text text-anchor="start" x="350" y="-84.5" font-family="Helvetica,sans-Serif" font-size="10.00"> channel, channel_map, guild,</text>
<text text-anchor="start" x="350" y="-73.5" font-family="Helvetica,sans-Serif" font-size="10.00"> guild_map, role, role_map,</text>
<text text-anchor="start" x="350" y="-62.5" font-family="Helvetica,sans-Serif" font-size="10.00"> invite, invite_map, dtemplate,</text>
<text text-anchor="start" x="350" y="-51.5" font-family="Helvetica,sans-Serif" font-size="10.00"> dtemplate_map, emoji, emoji_map,</text>
<text text-anchor="start" x="350" y="-40.5" font-family="Helvetica,sans-Serif" font-size="10.00"> ban, ban_map, voiceregion, voiceregion</text>
<text text-anchor="start" x="350" y="-29.5" font-family="Helvetica,sans-Serif" font-size="10.00">_map, integration, integration_map, webhook,</text>
<text text-anchor="start" x="350" y="-18.5" font-family="Helvetica,sans-Serif" font-size="10.00"> webhook_map, prune, guild_widget, gateway,</text>
<text text-anchor="middle" x="464" y="-7.5" font-family="Helvetica,sans-Serif" font-size="10.00"> interaction, interaction_response, auditlog &gt;</text>
</a>
</g>
</g>
<!-- Node10&#45;&gt;Node1 -->
<g id="edge10" class="edge">
<title>Node10&#45;&gt;Node1</title>
<path fill="none" stroke="#9a32cd" stroke-dasharray="5,2" d="M595.55,-120.12C643.36,-138.29 692.74,-157.07 721.49,-167.99"/>
<polygon fill="#9a32cd" stroke="#9a32cd" points="596.61,-116.78 586.02,-116.5 594.12,-123.32 596.61,-116.78"/>
<text text-anchor="middle" x="627.5" y="-142.5" font-family="Helvetica,sans-Serif" font-size="10.00"> value</text>
</g>
</g>
</svg>
