<?xml version="1.0" encoding="UTF-8" standalone="no"?>
<!DOCTYPE svg PUBLIC "-//W3C//DTD SVG 1.1//EN"
 "http://www.w3.org/Graphics/SVG/1.1/DTD/svg11.dtd">
<!-- Generated by graphviz version 2.38.0 (20140413.2041)
 -->
<!-- Title: dpp::discord_voice_client Pages: 1 -->
<svg width="956pt" height="976pt"
 viewBox="0.00 0.00 956.00 976.00" xmlns="http://www.w3.org/2000/svg" xmlns:xlink="http://www.w3.org/1999/xlink">
<g id="graph0" class="graph" transform="scale(1 1) rotate(0) translate(4 972)">
<title>dpp::discord_voice_client</title>
<polygon fill="white" stroke="none" points="-4,4 -4,-972 952,-972 952,4 -4,4"/>
<!-- Node1 -->
<g id="node1" class="node"><title>Node1</title>
<g id="a_node1"><a xlink:title="Implements a discord voice connection. Each discord_voice_client connects to one voice channel and de...">
<polygon fill="#bfbfbf" stroke="black" points="850,-349 850,-379 948,-379 948,-349 850,-349"/>
<text text-anchor="start" x="858" y="-367" font-family="Helvetica,sans-Serif" font-size="10.00">dpp::discord_voice</text>
<text text-anchor="middle" x="899" y="-356" font-family="Helvetica,sans-Serif" font-size="10.00">_client</text>
</a>
</g>
</g>
<!-- Node2 -->
<g id="node2" class="node"><title>Node2</title>
<g id="a_node2"><a xlink:href="classdpp_1_1websocket__client.html" target="_top" xlink:title="Implements a websocket client based on the SSL client.">
<polygon fill="white" stroke="black" points="657,-748.5 657,-767.5 771,-767.5 771,-748.5 657,-748.5"/>
<text text-anchor="middle" x="714" y="-755.5" font-family="Helvetica,sans-Serif" font-size="10.00">dpp::websocket_client</text>
</a>
</g>
</g>
<!-- Node2&#45;&gt;Node1 -->
<g id="edge1" class="edge"><title>Node2&#45;&gt;Node1</title>
<path fill="none" stroke="midnightblue" d="M781.024,-750.727C799.899,-745.518 818.885,-736.735 832,-722 878.431,-669.834 893.883,-440.935 897.24,-379.32"/>
<polygon fill="midnightblue" stroke="midnightblue" points="780.073,-747.356 771.195,-753.138 781.741,-754.155 780.073,-747.356"/>
</g>
<!-- Node3 -->
<g id="node3" class="node"><title>Node3</title>
<g id="a_node3"><a xlink:href="classdpp_1_1ssl__client.html" target="_top" xlink:title="Implements a simple non&#45;blocking SSL stream client.">
<polygon fill="white" stroke="black" points="437,-820.5 437,-839.5 517,-839.5 517,-820.5 437,-820.5"/>
<text text-anchor="middle" x="477" y="-827.5" font-family="Helvetica,sans-Serif" font-size="10.00">dpp::ssl_client</text>
</a>
</g>
</g>
<!-- Node3&#45;&gt;Node2 -->
<g id="edge2" class="edge"><title>Node3&#45;&gt;Node2</title>
<path fill="none" stroke="midnightblue" d="M518.926,-817.461C565.256,-803.266 639.723,-780.451 681.665,-767.601"/>
<polygon fill="midnightblue" stroke="midnightblue" points="517.742,-814.163 509.206,-820.439 519.793,-820.856 517.742,-814.163"/>
</g>
<!-- Node4 -->
<g id="node4" class="node"><title>Node4</title>
<g id="a_node4"><a xlink:title=" ">
<polygon fill="white" stroke="#bfbfbf" points="191,-353.5 191,-372.5 251,-372.5 251,-353.5 191,-353.5"/>
<text text-anchor="middle" x="221" y="-360.5" font-family="Helvetica,sans-Serif" font-size="10.00">std::string</text>
</a>
</g>
</g>
<!-- Node4&#45;&gt;Node1 -->
<g id="edge36" class="edge"><title>Node4&#45;&gt;Node1</title>
<path fill="none" stroke="#9a32cd" stroke-dasharray="5,2" d="M261.299,-363.058C378.017,-363.231 722.409,-363.74 849.858,-363.929"/>
<polygon fill="#9a32cd" stroke="#9a32cd" points="261.052,-359.558 251.047,-363.043 261.042,-366.558 261.052,-359.558"/>
<text text-anchor="middle" x="595" y="-378" font-family="Helvetica,sans-Serif" font-size="10.00"> sessionid</text>
<text text-anchor="middle" x="595" y="-367" font-family="Helvetica,sans-Serif" font-size="10.00">token</text>
</g>
<!-- Node4&#45;&gt;Node3 -->
<g id="edge3" class="edge"><title>Node4&#45;&gt;Node3</title>
<path fill="none" stroke="#9a32cd" stroke-dasharray="5,2" d="M253.739,-377.541C263.332,-383.475 272.923,-391.268 279,-401 310.826,-451.971 255.451,-491.589 297,-535 330.094,-569.577 369.836,-519.49 403,-554 423.208,-575.028 413.815,-655.734 421,-684 434.48,-737.027 460.931,-797.273 471.49,-820.33"/>
<polygon fill="#9a32cd" stroke="#9a32cd" points="255.455,-374.49 245.028,-372.612 252.007,-380.583 255.455,-374.49"/>
<text text-anchor="middle" x="350" y="-601" font-family="Helvetica,sans-Serif" font-size="10.00"> buffer</text>
<text text-anchor="middle" x="350" y="-590" font-family="Helvetica,sans-Serif" font-size="10.00">cipher</text>
<text text-anchor="middle" x="350" y="-579" font-family="Helvetica,sans-Serif" font-size="10.00">hostname</text>
<text text-anchor="middle" x="350" y="-568" font-family="Helvetica,sans-Serif" font-size="10.00">obuffer</text>
<text text-anchor="middle" x="350" y="-557" font-family="Helvetica,sans-Serif" font-size="10.00">port</text>
</g>
<!-- Node14 -->
<g id="node14" class="node"><title>Node14</title>
<g id="a_node14"><a xlink:href="classdpp_1_1cluster.html" target="_top" xlink:title="The cluster class represents a group of shards and a command queue for sending and receiving commands...">
<polygon fill="white" stroke="black" points="680,-422.5 680,-441.5 748,-441.5 748,-422.5 680,-422.5"/>
<text text-anchor="middle" x="714" y="-429.5" font-family="Helvetica,sans-Serif" font-size="10.00">dpp::cluster</text>
</a>
</g>
</g>
<!-- Node4&#45;&gt;Node14 -->
<g id="edge14" class="edge"><title>Node4&#45;&gt;Node14</title>
<path fill="none" stroke="#9a32cd" stroke-dasharray="5,2" d="M261.524,-365.25C298.264,-367.585 354.467,-371.775 403,-378 504.328,-390.997 623.033,-413.82 679.662,-425.179"/>
<polygon fill="#9a32cd" stroke="#9a32cd" points="261.436,-361.738 251.239,-364.613 261.003,-368.725 261.436,-361.738"/>
<text text-anchor="middle" x="477" y="-401" font-family="Helvetica,sans-Serif" font-size="10.00"> token</text>
</g>
<!-- Node19 -->
<g id="node19" class="node"><title>Node19</title>
<g id="a_node19"><a xlink:href="classdpp_1_1user.html" target="_top" xlink:title="Represents a user on discord. May or may not be a member of a dpp::guild.">
<polygon fill="white" stroke="black" points="448.5,-422.5 448.5,-441.5 505.5,-441.5 505.5,-422.5 448.5,-422.5"/>
<text text-anchor="middle" x="477" y="-429.5" font-family="Helvetica,sans-Serif" font-size="10.00">dpp::user</text>
</a>
</g>
</g>
<!-- Node4&#45;&gt;Node19 -->
<g id="edge23" class="edge"><title>Node4&#45;&gt;Node19</title>
<path fill="none" stroke="#9a32cd" stroke-dasharray="5,2" d="M261.116,-372.267C297.89,-381.138 354.397,-395.179 403,-409 418.082,-413.289 434.77,-418.51 448.379,-422.894"/>
<polygon fill="#9a32cd" stroke="#9a32cd" points="261.831,-368.839 251.29,-369.906 260.195,-375.645 261.831,-368.839"/>
<text text-anchor="middle" x="350" y="-412" font-family="Helvetica,sans-Serif" font-size="10.00"> username</text>
</g>
<!-- Node5 -->
<g id="node5" class="node"><title>Node5</title>
<g id="a_node5"><a xlink:title=" ">
<polygon fill="white" stroke="#bfbfbf" points="0,-8 0,-38 95,-38 95,-8 0,-8"/>
<text text-anchor="start" x="8" y="-26" font-family="Helvetica,sans-Serif" font-size="10.00">std::basic_string&lt;</text>
<text text-anchor="middle" x="47.5" y="-15" font-family="Helvetica,sans-Serif" font-size="10.00"> Char &gt;</text>
</a>
</g>
</g>
<!-- Node5&#45;&gt;Node4 -->
<g id="edge4" class="edge"><title>Node5&#45;&gt;Node4</title>
<path fill="none" stroke="midnightblue" d="M56.2933,-47.8903C72.2592,-97.0456 111.557,-209.166 163,-294 177.018,-317.118 198.313,-340.686 210.517,-353.413"/>
<polygon fill="midnightblue" stroke="midnightblue" points="59.5473,-46.5756 53.1601,-38.1225 52.8818,-48.7137 59.5473,-46.5756"/>
</g>
<!-- Node6 -->
<g id="node6" class="node"><title>Node6</title>
<g id="a_node6"><a xlink:title=" ">
<polygon fill="white" stroke="#bfbfbf" points="203.5,-948.5 203.5,-967.5 238.5,-967.5 238.5,-948.5 203.5,-948.5"/>
<text text-anchor="middle" x="221" y="-955.5" font-family="Helvetica,sans-Serif" font-size="10.00">bool</text>
</a>
</g>
</g>
<!-- Node6&#45;&gt;Node1 -->
<g id="edge32" class="edge"><title>Node6&#45;&gt;Node1</title>
<path fill="none" stroke="#9a32cd" stroke-dasharray="5,2" d="M248.778,-958.354C346.319,-958.029 684.603,-942.451 832,-748 877.357,-688.163 893.681,-443.332 897.217,-379.355"/>
<polygon fill="#9a32cd" stroke="#9a32cd" points="248.605,-954.854 238.597,-958.333 248.59,-961.854 248.605,-954.854"/>
<text text-anchor="middle" x="595" y="-942" font-family="Helvetica,sans-Serif" font-size="10.00"> decode_voice_recv</text>
<text text-anchor="middle" x="595" y="-931" font-family="Helvetica,sans-Serif" font-size="10.00">sodium_initialised</text>
<text text-anchor="middle" x="595" y="-920" font-family="Helvetica,sans-Serif" font-size="10.00">terminating</text>
</g>
<!-- Node6&#45;&gt;Node3 -->
<g id="edge5" class="edge"><title>Node6&#45;&gt;Node3</title>
<path fill="none" stroke="#9a32cd" stroke-dasharray="5,2" d="M248.279,-949.79C262.612,-945.439 280.705,-940.152 297,-936 343.715,-924.097 361.444,-937.435 403,-913 434.596,-894.422 459.681,-857.363 470.382,-839.742"/>
<polygon fill="#9a32cd" stroke="#9a32cd" points="247.121,-946.484 238.587,-952.763 249.174,-953.177 247.121,-946.484"/>
<text text-anchor="middle" x="350" y="-939" font-family="Helvetica,sans-Serif" font-size="10.00"> nonblocking</text>
</g>
<!-- Node7 -->
<g id="node7" class="node"><title>Node7</title>
<g id="a_node7"><a xlink:title=" ">
<polygon fill="white" stroke="#bfbfbf" points="206.5,-812.5 206.5,-831.5 235.5,-831.5 235.5,-812.5 206.5,-812.5"/>
<text text-anchor="middle" x="221" y="-819.5" font-family="Helvetica,sans-Serif" font-size="10.00">int</text>
</a>
</g>
</g>
<!-- Node7&#45;&gt;Node3 -->
<g id="edge6" class="edge"><title>Node7&#45;&gt;Node3</title>
<path fill="none" stroke="#9a32cd" stroke-dasharray="5,2" d="M245.918,-822.753C289.779,-824.135 383.458,-827.085 436.765,-828.764"/>
<polygon fill="#9a32cd" stroke="#9a32cd" points="245.761,-819.247 235.656,-822.43 245.541,-826.243 245.761,-819.247"/>
<text text-anchor="middle" x="350" y="-830" font-family="Helvetica,sans-Serif" font-size="10.00"> sfd</text>
</g>
<!-- Node8 -->
<g id="node8" class="node"><title>Node8</title>
<g id="a_node8"><a xlink:href="classdpp_1_1opensslcontext.html" target="_top" xlink:title="This is an opaque class containing openssl library specific structures. We define it this way so that...">
<polygon fill="white" stroke="black" points="169,-908.5 169,-927.5 273,-927.5 273,-908.5 169,-908.5"/>
<text text-anchor="middle" x="221" y="-915.5" font-family="Helvetica,sans-Serif" font-size="10.00">dpp::opensslcontext</text>
</a>
</g>
</g>
<!-- Node8&#45;&gt;Node3 -->
<g id="edge7" class="edge"><title>Node8&#45;&gt;Node3</title>
<path fill="none" stroke="#9a32cd" stroke-dasharray="5,2" d="M276.629,-906.356C329.369,-895.095 401.502,-879.636 403,-879 426.602,-868.974 450.665,-851.005 464.419,-839.835"/>
<polygon fill="#9a32cd" stroke="#9a32cd" points="275.747,-902.965 266.698,-908.475 277.208,-909.811 275.747,-902.965"/>
<text text-anchor="middle" x="350" y="-904" font-family="Helvetica,sans-Serif" font-size="10.00"> ssl</text>
</g>
<!-- Node9 -->
<g id="node9" class="node"><title>Node9</title>
<g id="a_node9"><a xlink:title=" ">
<polygon fill="white" stroke="#bfbfbf" points="26.5,-899.5 26.5,-918.5 68.5,-918.5 68.5,-899.5 26.5,-899.5"/>
<text text-anchor="middle" x="47.5" y="-906.5" font-family="Helvetica,sans-Serif" font-size="10.00">SSL *</text>
</a>
</g>
</g>
<!-- Node9&#45;&gt;Node8 -->
<g id="edge8" class="edge"><title>Node9&#45;&gt;Node8</title>
<path fill="none" stroke="#9a32cd" stroke-dasharray="5,2" d="M78.9865,-910.568C97.9756,-911.547 122.911,-912.839 145,-914 152.683,-914.404 160.808,-914.834 168.763,-915.257"/>
<polygon fill="#9a32cd" stroke="#9a32cd" points="78.9995,-907.064 68.8326,-910.045 78.6392,-914.055 78.9995,-907.064"/>
<text text-anchor="middle" x="129" y="-917" font-family="Helvetica,sans-Serif" font-size="10.00"> ssl</text>
</g>
<!-- Node10 -->
<g id="node10" class="node"><title>Node10</title>
<g id="a_node10"><a xlink:title=" ">
<polygon fill="white" stroke="#bfbfbf" points="13.5,-937.5 13.5,-956.5 81.5,-956.5 81.5,-937.5 13.5,-937.5"/>
<text text-anchor="middle" x="47.5" y="-944.5" font-family="Helvetica,sans-Serif" font-size="10.00">SSL_CTX *</text>
</a>
</g>
</g>
<!-- Node10&#45;&gt;Node8 -->
<g id="edge9" class="edge"><title>Node10&#45;&gt;Node8</title>
<path fill="none" stroke="#9a32cd" stroke-dasharray="5,2" d="M91.5701,-939.717C115.024,-935.751 144.195,-930.818 168.806,-926.657"/>
<polygon fill="#9a32cd" stroke="#9a32cd" points="90.8434,-936.29 81.5669,-941.409 92.0105,-943.192 90.8434,-936.29"/>
<text text-anchor="middle" x="129" y="-938" font-family="Helvetica,sans-Serif" font-size="10.00"> ctx</text>
</g>
<!-- Node11 -->
<g id="node11" class="node"><title>Node11</title>
<g id="a_node11"><a xlink:title=" ">
<polygon fill="white" stroke="#bfbfbf" points="199,-698.5 199,-717.5 243,-717.5 243,-698.5 199,-698.5"/>
<text text-anchor="middle" x="221" y="-705.5" font-family="Helvetica,sans-Serif" font-size="10.00">time_t</text>
</a>
</g>
</g>
<!-- Node11&#45;&gt;Node1 -->
<g id="edge34" class="edge"><title>Node11&#45;&gt;Node1</title>
<path fill="none" stroke="#9a32cd" stroke-dasharray="5,2" d="M253.586,-710.247C311.308,-713.181 436.744,-714.076 533,-676 700.829,-609.612 845.844,-432.366 886.599,-379.25"/>
<polygon fill="#9a32cd" stroke="#9a32cd" points="253.478,-706.736 243.296,-709.665 253.082,-713.725 253.478,-706.736"/>
<text text-anchor="middle" x="595" y="-671" font-family="Helvetica,sans-Serif" font-size="10.00"> last_heartbeat</text>
</g>
<!-- Node11&#45;&gt;Node3 -->
<g id="edge10" class="edge"><title>Node11&#45;&gt;Node3</title>
<path fill="none" stroke="#9a32cd" stroke-dasharray="5,2" d="M253.377,-712.756C298.196,-719.942 377.908,-734.297 403,-749 434.033,-767.184 459.213,-802.994 470.134,-820.25"/>
<polygon fill="#9a32cd" stroke="#9a32cd" points="253.739,-709.27 243.316,-711.169 252.649,-716.184 253.739,-709.27"/>
<text text-anchor="middle" x="350" y="-752" font-family="Helvetica,sans-Serif" font-size="10.00"> last_tick</text>
</g>
<!-- Node11&#45;&gt;Node14 -->
<g id="edge15" class="edge"><title>Node11&#45;&gt;Node14</title>
<path fill="none" stroke="#9a32cd" stroke-dasharray="5,2" d="M253.097,-703.574C289.639,-697.856 351.785,-686.508 403,-669 513.041,-631.383 553.094,-634.385 639,-556 676.409,-521.866 700.856,-464.395 709.505,-441.668"/>
<polygon fill="#9a32cd" stroke="#9a32cd" points="252.419,-700.137 243.06,-705.103 253.473,-707.057 252.419,-700.137"/>
<text text-anchor="middle" x="477" y="-664" font-family="Helvetica,sans-Serif" font-size="10.00"> last_identify</text>
</g>
<!-- Node12 -->
<g id="node12" class="node"><title>Node12</title>
<g id="a_node12"><a xlink:title=" ">
<polygon fill="white" stroke="#bfbfbf" points="22,-444.5 22,-463.5 73,-463.5 73,-444.5 22,-444.5"/>
<text text-anchor="middle" x="47.5" y="-451.5" font-family="Helvetica,sans-Serif" font-size="10.00">uint64_t</text>
</a>
</g>
</g>
<!-- Node12&#45;&gt;Node1 -->
<g id="edge37" class="edge"><title>Node12&#45;&gt;Node1</title>
<path fill="none" stroke="#9a32cd" stroke-dasharray="5,2" d="M47.7728,-433.979C45.9243,-352.223 50.4379,-48 220,-48 220,-48 220,-48 715,-48 855.74,-48 890.003,-285.636 896.621,-348.759"/>
<polygon fill="#9a32cd" stroke="#9a32cd" points="44.2855,-434.47 48.0729,-444.364 51.2825,-434.268 44.2855,-434.47"/>
<text text-anchor="middle" x="477" y="-62" font-family="Helvetica,sans-Serif" font-size="10.00"> channel_id</text>
<text text-anchor="middle" x="477" y="-51" font-family="Helvetica,sans-Serif" font-size="10.00">server_id</text>
</g>
<!-- Node12&#45;&gt;Node3 -->
<g id="edge11" class="edge"><title>Node12&#45;&gt;Node3</title>
<path fill="none" stroke="#9a32cd" stroke-dasharray="5,2" d="M51.24,-473.694C61.7375,-545.997 101.895,-794.999 163,-841 251.401,-907.55 397.043,-861.345 453.061,-839.595"/>
<polygon fill="#9a32cd" stroke="#9a32cd" points="54.6868,-473.072 49.8112,-463.665 47.7567,-474.059 54.6868,-473.072"/>
<text text-anchor="middle" x="221" y="-889" font-family="Helvetica,sans-Serif" font-size="10.00"> bytes_in</text>
<text text-anchor="middle" x="221" y="-878" font-family="Helvetica,sans-Serif" font-size="10.00">bytes_out</text>
</g>
<!-- Node20 -->
<g id="node20" class="node"><title>Node20</title>
<g id="a_node20"><a xlink:href="classdpp_1_1managed.html" target="_top" xlink:title="The managed class is the base class for various types that can be stored in a cache that are identifi...">
<polygon fill="white" stroke="black" points="182,-486.5 182,-505.5 260,-505.5 260,-486.5 182,-486.5"/>
<text text-anchor="middle" x="221" y="-493.5" font-family="Helvetica,sans-Serif" font-size="10.00">dpp::managed</text>
</a>
</g>
</g>
<!-- Node12&#45;&gt;Node20 -->
<g id="edge22" class="edge"><title>Node12&#45;&gt;Node20</title>
<path fill="none" stroke="#9a32cd" stroke-dasharray="5,2" d="M83.0311,-462.457C111.655,-469.467 152.299,-479.42 181.874,-486.663"/>
<polygon fill="#9a32cd" stroke="#9a32cd" points="83.6173,-458.997 73.0718,-460.018 81.9522,-465.796 83.6173,-458.997"/>
<text text-anchor="middle" x="129" y="-481" font-family="Helvetica,sans-Serif" font-size="10.00"> id</text>
</g>
<!-- Node22 -->
<g id="node22" class="node"><title>Node22</title>
<g id="a_node22"><a xlink:href="structdpp_1_1utility_1_1iconhash.html" target="_top" xlink:title="Store a 128 bit icon hash (profile picture, server icon etc) as a 128 bit binary value made of two ui...">
<polygon fill="white" stroke="black" points="167.5,-410.5 167.5,-429.5 274.5,-429.5 274.5,-410.5 167.5,-410.5"/>
<text text-anchor="middle" x="221" y="-417.5" font-family="Helvetica,sans-Serif" font-size="10.00">dpp::utility::iconhash</text>
</a>
</g>
</g>
<!-- Node12&#45;&gt;Node22 -->
<g id="edge26" class="edge"><title>Node12&#45;&gt;Node22</title>
<path fill="none" stroke="#9a32cd" stroke-dasharray="5,2" d="M82.8809,-444.257C92.5744,-441.696 103.16,-439.073 113,-437 130.577,-433.297 149.931,-429.991 167.289,-427.301"/>
<polygon fill="#9a32cd" stroke="#9a32cd" points="81.9135,-440.892 73.171,-446.877 83.7376,-447.65 81.9135,-440.892"/>
<text text-anchor="middle" x="129" y="-451" font-family="Helvetica,sans-Serif" font-size="10.00"> first</text>
<text text-anchor="middle" x="129" y="-440" font-family="Helvetica,sans-Serif" font-size="10.00">second</text>
</g>
<!-- Node13 -->
<g id="node13" class="node"><title>Node13</title>
<g id="a_node13"><a xlink:title=" ">
<polygon fill="white" stroke="#bfbfbf" points="192.5,-765.5 192.5,-784.5 249.5,-784.5 249.5,-765.5 192.5,-765.5"/>
<text text-anchor="middle" x="221" y="-772.5" font-family="Helvetica,sans-Serif" font-size="10.00">function&lt;</text>
</a>
</g>
</g>
<!-- Node13&#45;&gt;Node3 -->
<g id="edge12" class="edge"><title>Node13&#45;&gt;Node3</title>
<path fill="none" stroke="#9a32cd" stroke-dasharray="5,2" d="M259.491,-768.574C296.881,-763.682 355.441,-760.176 403,-776 429.625,-784.859 454.517,-807.505 467.214,-820.483"/>
<polygon fill="#9a32cd" stroke="#9a32cd" points="258.948,-765.116 249.534,-769.976 259.924,-772.048 258.948,-765.116"/>
<text text-anchor="middle" x="350" y="-812" font-family="Helvetica,sans-Serif" font-size="10.00"> custom_readable_fd</text>
<text text-anchor="middle" x="350" y="-801" font-family="Helvetica,sans-Serif" font-size="10.00">custom_readable_ready</text>
<text text-anchor="middle" x="350" y="-790" font-family="Helvetica,sans-Serif" font-size="10.00">custom_writeable_fd</text>
<text text-anchor="middle" x="350" y="-779" font-family="Helvetica,sans-Serif" font-size="10.00">custom_writeable_ready</text>
</g>
<!-- Node14&#45;&gt;Node1 -->
<g id="edge13" class="edge"><title>Node14&#45;&gt;Node1</title>
<path fill="none" stroke="#9a32cd" stroke-dasharray="5,2" d="M750.271,-418.894C780.937,-407.499 825.364,-390.99 857.482,-379.056"/>
<polygon fill="#9a32cd" stroke="#9a32cd" points="748.986,-415.637 740.831,-422.401 751.424,-422.199 748.986,-415.637"/>
<text text-anchor="middle" x="810.5" y="-408" font-family="Helvetica,sans-Serif" font-size="10.00"> creator</text>
</g>
<!-- Node15 -->
<g id="node15" class="node"><title>Node15</title>
<g id="a_node15"><a xlink:title=" ">
<polygon fill="white" stroke="#bfbfbf" points="195.5,-265.5 195.5,-284.5 246.5,-284.5 246.5,-265.5 195.5,-265.5"/>
<text text-anchor="middle" x="221" y="-272.5" font-family="Helvetica,sans-Serif" font-size="10.00">uint32_t</text>
</a>
</g>
</g>
<!-- Node15&#45;&gt;Node1 -->
<g id="edge33" class="edge"><title>Node15&#45;&gt;Node1</title>
<path fill="none" stroke="#9a32cd" stroke-dasharray="5,2" d="M256.758,-274.253C293.245,-273.779 352.251,-273.888 403,-278 568.621,-291.42 761.855,-332.489 849.895,-352.627"/>
<polygon fill="#9a32cd" stroke="#9a32cd" points="256.586,-270.755 246.641,-274.408 256.693,-277.755 256.586,-270.755"/>
<text text-anchor="middle" x="595" y="-313" font-family="Helvetica,sans-Serif" font-size="10.00"> heartbeat_interval</text>
</g>
<!-- Node15&#45;&gt;Node14 -->
<g id="edge16" class="edge"><title>Node15&#45;&gt;Node14</title>
<path fill="none" stroke="#9a32cd" stroke-dasharray="5,2" d="M256.937,-277.689C293.571,-280.872 352.694,-287.035 403,-297 461.81,-308.649 482.402,-300.842 533,-333 543.375,-339.594 541.255,-346.507 551,-354 557.109,-358.697 650.213,-402.571 692.445,-422.378"/>
<polygon fill="#9a32cd" stroke="#9a32cd" points="257.035,-274.185 246.776,-276.833 256.447,-281.161 257.035,-274.185"/>
<text text-anchor="middle" x="477" y="-369" font-family="Helvetica,sans-Serif" font-size="10.00"> cluster_id</text>
<text text-anchor="middle" x="477" y="-358" font-family="Helvetica,sans-Serif" font-size="10.00">intents</text>
<text text-anchor="middle" x="477" y="-347" font-family="Helvetica,sans-Serif" font-size="10.00">maxclusters</text>
<text text-anchor="middle" x="477" y="-336" font-family="Helvetica,sans-Serif" font-size="10.00">numshards</text>
</g>
<!-- Node15&#45;&gt;Node19 -->
<g id="edge27" class="edge"><title>Node15&#45;&gt;Node19</title>
<path fill="none" stroke="#9a32cd" stroke-dasharray="5,2" d="M256.212,-284.615C296.181,-297.426 362.044,-323.66 403,-367 416.669,-381.464 406.912,-393.944 421,-408 428.522,-415.506 438.782,-420.84 448.403,-424.542"/>
<polygon fill="#9a32cd" stroke="#9a32cd" points="257.227,-281.265 246.639,-281.645 255.153,-287.951 257.227,-281.265"/>
<text text-anchor="middle" x="350" y="-370" font-family="Helvetica,sans-Serif" font-size="10.00"> flags</text>
</g>
<!-- Node16 -->
<g id="node16" class="node"><title>Node16</title>
<g id="a_node16"><a xlink:title=" ">
<polygon fill="white" stroke="#bfbfbf" points="454.5,-536.5 454.5,-555.5 499.5,-555.5 499.5,-536.5 454.5,-536.5"/>
<text text-anchor="middle" x="477" y="-543.5" font-family="Helvetica,sans-Serif" font-size="10.00">double</text>
</a>
</g>
</g>
<!-- Node16&#45;&gt;Node14 -->
<g id="edge17" class="edge"><title>Node16&#45;&gt;Node14</title>
<path fill="none" stroke="#9a32cd" stroke-dasharray="5,2" d="M509.808,-545.22C543.827,-543.129 598.363,-536.071 639,-513 670.638,-495.039 696.258,-458.79 707.229,-441.54"/>
<polygon fill="#9a32cd" stroke="#9a32cd" points="509.338,-541.739 499.527,-545.738 509.691,-548.73 509.338,-541.739"/>
<text text-anchor="middle" x="595" y="-544" font-family="Helvetica,sans-Serif" font-size="10.00"> rest_ping</text>
</g>
<!-- Node17 -->
<g id="node17" class="node"><title>Node17</title>
<g id="a_node17"><a xlink:href="classdpp_1_1dispatcher.html" target="_top" xlink:title="The dispatcher class contains a set of std::functions representing hooked events that the user code i...">
<polygon fill="white" stroke="black" points="435.5,-135.5 435.5,-154.5 518.5,-154.5 518.5,-135.5 435.5,-135.5"/>
<text text-anchor="middle" x="477" y="-142.5" font-family="Helvetica,sans-Serif" font-size="10.00">dpp::dispatcher</text>
</a>
</g>
</g>
<!-- Node17&#45;&gt;Node14 -->
<g id="edge18" class="edge"><title>Node17&#45;&gt;Node14</title>
<path fill="none" stroke="#9a32cd" stroke-dasharray="5,2" d="M528.893,-148.949C564.181,-154.294 609.889,-166.804 639,-196 705.094,-262.287 712.283,-386.816 712.961,-422.326"/>
<polygon fill="#9a32cd" stroke="#9a32cd" points="529.156,-145.452 518.774,-147.566 528.208,-152.388 529.156,-145.452"/>
<text text-anchor="middle" x="595" y="-199" font-family="Helvetica,sans-Serif" font-size="10.00"> dispatch</text>
</g>
<!-- Node18 -->
<g id="node18" class="node"><title>Node18</title>
<g id="a_node18"><a xlink:title=" ">
<polygon fill="white" stroke="#bfbfbf" points="196,-76.5 196,-95.5 246,-95.5 246,-76.5 196,-76.5"/>
<text text-anchor="middle" x="221" y="-83.5" font-family="Helvetica,sans-Serif" font-size="10.00">vector&lt;</text>
</a>
</g>
</g>
<!-- Node18&#45;&gt;Node17 -->
<g id="edge19" class="edge"><title>Node18&#45;&gt;Node17</title>
<path fill="none" stroke="#9a32cd" stroke-dasharray="5,2" d="M255.934,-77.9896C293.259,-70.8103 354.394,-63.926 403,-82 431.871,-92.7356 456.952,-120.585 468.776,-135.401"/>
<polygon fill="#9a32cd" stroke="#9a32cd" points="255.167,-74.574 246.068,-80.0019 256.566,-81.4328 255.167,-74.574"/>
<text text-anchor="start" x="301" y="-228" font-family="Helvetica,sans-Serif" font-size="10.00"> application_command</text>
<text text-anchor="middle" x="350" y="-217" font-family="Helvetica,sans-Serif" font-size="10.00">_create</text>
<text text-anchor="start" x="301" y="-206" font-family="Helvetica,sans-Serif" font-size="10.00">application_command</text>
<text text-anchor="middle" x="350" y="-195" font-family="Helvetica,sans-Serif" font-size="10.00">_delete</text>
<text text-anchor="start" x="301" y="-184" font-family="Helvetica,sans-Serif" font-size="10.00">application_command</text>
<text text-anchor="middle" x="350" y="-173" font-family="Helvetica,sans-Serif" font-size="10.00">_update</text>
<text text-anchor="middle" x="350" y="-162" font-family="Helvetica,sans-Serif" font-size="10.00">autocomplete</text>
<text text-anchor="middle" x="350" y="-151" font-family="Helvetica,sans-Serif" font-size="10.00">button_click</text>
<text text-anchor="middle" x="350" y="-140" font-family="Helvetica,sans-Serif" font-size="10.00">channel_create</text>
<text text-anchor="middle" x="350" y="-129" font-family="Helvetica,sans-Serif" font-size="10.00">channel_delete</text>
<text text-anchor="middle" x="350" y="-118" font-family="Helvetica,sans-Serif" font-size="10.00">channel_pins_update</text>
<text text-anchor="middle" x="350" y="-107" font-family="Helvetica,sans-Serif" font-size="10.00">channel_update</text>
<text text-anchor="middle" x="350" y="-96" font-family="Helvetica,sans-Serif" font-size="10.00">guild_ban_add</text>
<text text-anchor="middle" x="350" y="-85" font-family="Helvetica,sans-Serif" font-size="10.00">...</text>
</g>
<!-- Node19&#45;&gt;Node14 -->
<g id="edge20" class="edge"><title>Node19&#45;&gt;Node14</title>
<path fill="none" stroke="#9a32cd" stroke-dasharray="5,2" d="M515.92,-432C561.34,-432 636.69,-432 679.871,-432"/>
<polygon fill="#9a32cd" stroke="#9a32cd" points="515.88,-428.5 505.88,-432 515.88,-435.5 515.88,-428.5"/>
<text text-anchor="middle" x="595" y="-435" font-family="Helvetica,sans-Serif" font-size="10.00"> me</text>
</g>
<!-- Node20&#45;&gt;Node19 -->
<g id="edge21" class="edge"><title>Node20&#45;&gt;Node19</title>
<path fill="none" stroke="midnightblue" d="M270.442,-495.556C308.199,-493.521 361.076,-486.878 403,-467 412.672,-462.414 411.763,-456.408 421,-451 429.457,-446.049 439.401,-442.122 448.492,-439.154"/>
<polygon fill="midnightblue" stroke="midnightblue" points="270.049,-492.07 260.216,-496.015 270.363,-499.063 270.049,-492.07"/>
</g>
<!-- Node21 -->
<g id="node21" class="node"><title>Node21</title>
<g id="a_node21"><a xlink:title=" ">
<polygon fill="white" stroke="#bfbfbf" points="195.5,-524.5 195.5,-543.5 246.5,-543.5 246.5,-524.5 195.5,-524.5"/>
<text text-anchor="middle" x="221" y="-531.5" font-family="Helvetica,sans-Serif" font-size="10.00">uint16_t</text>
</a>
</g>
</g>
<!-- Node21&#45;&gt;Node19 -->
<g id="edge24" class="edge"><title>Node21&#45;&gt;Node19</title>
<path fill="none" stroke="#9a32cd" stroke-dasharray="5,2" d="M256.537,-528.341C305.875,-519.989 391.843,-504.347 403,-495 419.196,-481.431 405.65,-465.518 421,-451 428.486,-443.919 438.738,-439.465 448.364,-436.668"/>
<polygon fill="#9a32cd" stroke="#9a32cd" points="255.887,-524.901 246.604,-530.007 257.046,-531.804 255.887,-524.901"/>
<text text-anchor="middle" x="350" y="-524" font-family="Helvetica,sans-Serif" font-size="10.00"> discriminator</text>
</g>
<!-- Node22&#45;&gt;Node19 -->
<g id="edge25" class="edge"><title>Node22&#45;&gt;Node19</title>
<path fill="none" stroke="#9a32cd" stroke-dasharray="5,2" d="M284.813,-422.968C337.126,-425.439 409.151,-428.842 448.165,-430.685"/>
<polygon fill="#9a32cd" stroke="#9a32cd" points="284.783,-419.462 274.629,-422.486 284.453,-426.455 284.783,-419.462"/>
<text text-anchor="middle" x="350" y="-432" font-family="Helvetica,sans-Serif" font-size="10.00"> avatar</text>
</g>
<!-- Node23 -->
<g id="node23" class="node"><title>Node23</title>
<g id="a_node23"><a xlink:title=" ">
<polygon fill="white" stroke="#bfbfbf" points="198,-448.5 198,-467.5 244,-467.5 244,-448.5 198,-448.5"/>
<text text-anchor="middle" x="221" y="-455.5" font-family="Helvetica,sans-Serif" font-size="10.00">uint8_t</text>
</a>
</g>
</g>
<!-- Node23&#45;&gt;Node19 -->
<g id="edge28" class="edge"><title>Node23&#45;&gt;Node19</title>
<path fill="none" stroke="#9a32cd" stroke-dasharray="5,2" d="M254.021,-455.636C290.23,-452.855 350.93,-447.864 403,-442 418,-440.311 434.681,-438.054 448.308,-436.112"/>
<polygon fill="#9a32cd" stroke="#9a32cd" points="253.751,-452.146 244.045,-456.394 254.282,-459.126 253.751,-452.146"/>
<text text-anchor="middle" x="350" y="-455" font-family="Helvetica,sans-Serif" font-size="10.00"> refcount</text>
</g>
<!-- Node24 -->
<g id="node24" class="node"><title>Node24</title>
<g id="a_node24"><a xlink:href="structdpp_1_1cache__policy__t.html" target="_top" xlink:title="Represents the caching policy of the cluster.">
<polygon fill="white" stroke="black" points="425,-460.5 425,-479.5 529,-479.5 529,-460.5 425,-460.5"/>
<text text-anchor="middle" x="477" y="-467.5" font-family="Helvetica,sans-Serif" font-size="10.00">dpp::cache_policy_t</text>
</a>
</g>
</g>
<!-- Node24&#45;&gt;Node14 -->
<g id="edge29" class="edge"><title>Node24&#45;&gt;Node14</title>
<path fill="none" stroke="#9a32cd" stroke-dasharray="5,2" d="M539.14,-461.459C569.254,-457.106 606.079,-451.566 639,-446 652.408,-443.733 667.135,-440.998 679.896,-438.548"/>
<polygon fill="#9a32cd" stroke="#9a32cd" points="538.6,-458 529.2,-462.888 539.596,-464.929 538.6,-458"/>
<text text-anchor="middle" x="595" y="-463" font-family="Helvetica,sans-Serif" font-size="10.00"> cache_policy</text>
</g>
<!-- Node25 -->
<g id="node25" class="node"><title>Node25</title>
<g id="a_node25"><a xlink:title=" ">
<polygon fill="white" stroke="#bfbfbf" points="163,-625.5 163,-644.5 279,-644.5 279,-625.5 163,-625.5"/>
<text text-anchor="middle" x="221" y="-632.5" font-family="Helvetica,sans-Serif" font-size="10.00">cache_policy_setting_t</text>
</a>
</g>
</g>
<!-- Node25&#45;&gt;Node24 -->
<g id="edge30" class="edge"><title>Node25&#45;&gt;Node24</title>
<path fill="none" stroke="#9a32cd" stroke-dasharray="5,2" d="M289.523,-635.098C334.089,-633.654 387.088,-628.547 403,-613 442.832,-574.082 385.502,-531.908 421,-489 424.22,-485.108 428.28,-482.012 432.729,-479.548"/>
<polygon fill="#9a32cd" stroke="#9a32cd" points="289.186,-631.606 279.284,-635.372 289.374,-638.603 289.186,-631.606"/>
<text text-anchor="middle" x="350" y="-659" font-family="Helvetica,sans-Serif" font-size="10.00"> emoji_policy</text>
<text text-anchor="middle" x="350" y="-648" font-family="Helvetica,sans-Serif" font-size="10.00">role_policy</text>
<text text-anchor="middle" x="350" y="-637" font-family="Helvetica,sans-Serif" font-size="10.00">user_policy</text>
</g>
<!-- Node26 -->
<g id="node26" class="node"><title>Node26</title>
<g id="a_node26"><a xlink:title=" ">
<polygon fill="white" stroke="#bfbfbf" points="421,-498.5 421,-517.5 533,-517.5 533,-498.5 421,-498.5"/>
<text text-anchor="middle" x="477" y="-505.5" font-family="Helvetica,sans-Serif" font-size="10.00">websocket_protocol_t</text>
</a>
</g>
</g>
<!-- Node26&#45;&gt;Node14 -->
<g id="edge31" class="edge"><title>Node26&#45;&gt;Node14</title>
<path fill="none" stroke="#9a32cd" stroke-dasharray="5,2" d="M543.17,-499.574C573.016,-494.476 608.461,-486.645 639,-475 661.492,-466.424 685.151,-451.483 699.493,-441.666"/>
<polygon fill="#9a32cd" stroke="#9a32cd" points="542.578,-496.124 533.278,-501.2 543.714,-503.032 542.578,-496.124"/>
<text text-anchor="middle" x="595" y="-501" font-family="Helvetica,sans-Serif" font-size="10.00"> ws_mode</text>
</g>
<!-- Node27 -->
<g id="node27" class="node"><title>Node27</title>
<g id="a_node27"><a xlink:title=" ">
<polygon fill="white" stroke="#bfbfbf" points="663.5,-0.5 663.5,-19.5 764.5,-19.5 764.5,-0.5 663.5,-0.5"/>
<text text-anchor="middle" x="714" y="-7.5" font-family="Helvetica,sans-Serif" font-size="10.00">native_handle_type</text>
</a>
</g>
</g>
<!-- Node27&#45;&gt;Node1 -->
<g id="edge35" class="edge"><title>Node27&#45;&gt;Node1</title>
<path fill="none" stroke="#9a32cd" stroke-dasharray="5,2" d="M774.824,-3.12319C795.258,-3.99078 816.772,-8.95165 832,-23 880.863,-68.0787 894.516,-288.485 897.363,-348.747"/>
<polygon fill="#9a32cd" stroke="#9a32cd" points="774.633,0.379037 764.595,-3.00989 774.556,-6.62053 774.633,0.379037"/>
<text text-anchor="middle" x="810.5" y="-26" font-family="Helvetica,sans-Serif" font-size="10.00"> thread_id</text>
</g>
</g>
</svg>
