<?xml version="1.0" encoding="UTF-8" standalone="no"?>
<!DOCTYPE svg PUBLIC "-//W3C//DTD SVG 1.1//EN"
 "http://www.w3.org/Graphics/SVG/1.1/DTD/svg11.dtd">
<!-- Generated by graphviz version 2.43.0 (0)
 -->
<!-- Title: dpp::confirmation_callback_t Pages: 1 -->
<svg width="937pt" height="527pt"
 viewBox="0.00 0.00 937.00 526.50" xmlns="http://www.w3.org/2000/svg" xmlns:xlink="http://www.w3.org/1999/xlink">
<g id="graph0" class="graph" transform="scale(1 1) rotate(0) translate(4 522.5)">
<title>dpp::confirmation_callback_t</title>
<!-- Node1 -->
<g id="node1" class="node">
<title>Node1</title>
<g id="a_node1"><a xlink:title="The results of a REST call wrapped in a convenient struct.">
<polygon fill="#bfbfbf" stroke="black" points="772,-212 772,-231 929,-231 929,-212 772,-212"/>
<text text-anchor="middle" x="850.5" y="-219" font-family="Helvetica,sans-Serif" font-size="10.00">dpp::confirmation_callback_t</text>
</a>
</g>
</g>
<!-- Node2 -->
<g id="node2" class="node">
<title>Node2</title>
<g id="a_node2"><a xlink:title=" ">
<polygon fill="none" stroke="#bfbfbf" points="141,-229 141,-248 206,-248 206,-229 141,-229"/>
<text text-anchor="middle" x="173.5" y="-236" font-family="Helvetica,sans-Serif" font-size="10.00">std::string</text>
</a>
</g>
</g>
<!-- Node2&#45;&gt;Node1 -->
<g id="edge1" class="edge">
<title>Node2&#45;&gt;Node1</title>
<path fill="none" stroke="#9a32cd" stroke-dasharray="5,2" d="M216.24,-237.45C326.78,-234.66 628.41,-227.07 771.79,-223.46"/>
<polygon fill="#9a32cd" stroke="#9a32cd" points="216.06,-233.95 206.15,-237.7 216.24,-240.95 216.06,-233.95"/>
<text text-anchor="middle" x="515.5" y="-236.5" font-family="Helvetica,sans-Serif" font-size="10.00"> type</text>
</g>
<!-- Node4 -->
<g id="node4" class="node">
<title>Node4</title>
<g id="a_node4"><a xlink:href="structdpp_1_1http__request__completion__t.html" target="_top" xlink:title="The result of any HTTP request. Contains the headers, vital rate limit figures, and returned request ...">
<polygon fill="none" stroke="black" points="430,-341 430,-360 601,-360 601,-341 430,-341"/>
<text text-anchor="middle" x="515.5" y="-348" font-family="Helvetica,sans-Serif" font-size="10.00">dpp::http_request_completion_t</text>
</a>
</g>
</g>
<!-- Node2&#45;&gt;Node4 -->
<g id="edge7" class="edge">
<title>Node2&#45;&gt;Node4</title>
<path fill="none" stroke="#9a32cd" stroke-dasharray="5,2" d="M215.81,-247.57C246.04,-254.56 287.91,-264.95 324,-276.5 386.18,-296.4 457.39,-325.92 492.52,-340.95"/>
<polygon fill="#9a32cd" stroke="#9a32cd" points="216.55,-244.15 206.02,-245.34 214.99,-250.98 216.55,-244.15"/>
<text text-anchor="middle" x="274" y="-290.5" font-family="Helvetica,sans-Serif" font-size="10.00"> body</text>
<text text-anchor="middle" x="274" y="-279.5" font-family="Helvetica,sans-Serif" font-size="10.00">ratelimit_bucket</text>
</g>
<!-- Node3 -->
<g id="node3" class="node">
<title>Node3</title>
<g id="a_node3"><a xlink:title=" ">
<polygon fill="none" stroke="#bfbfbf" points="0,-223.5 0,-253.5 104,-253.5 104,-223.5 0,-223.5"/>
<text text-anchor="start" x="8" y="-241.5" font-family="Helvetica,sans-Serif" font-size="10.00">std::basic_string&lt;</text>
<text text-anchor="middle" x="52" y="-230.5" font-family="Helvetica,sans-Serif" font-size="10.00"> Char &gt;</text>
</a>
</g>
</g>
<!-- Node3&#45;&gt;Node2 -->
<g id="edge2" class="edge">
<title>Node3&#45;&gt;Node2</title>
<path fill="none" stroke="midnightblue" d="M114.1,-238.5C123.41,-238.5 132.68,-238.5 141,-238.5"/>
<polygon fill="midnightblue" stroke="midnightblue" points="114.03,-235 104.03,-238.5 114.03,-242 114.03,-235"/>
</g>
<!-- Node4&#45;&gt;Node1 -->
<g id="edge3" class="edge">
<title>Node4&#45;&gt;Node1</title>
<path fill="none" stroke="#9a32cd" stroke-dasharray="5,2" d="M550.97,-337.15C618.28,-311.07 765.78,-253.93 824.58,-231.15"/>
<polygon fill="#9a32cd" stroke="#9a32cd" points="549.32,-334.03 541.26,-340.91 551.85,-340.56 549.32,-334.03"/>
<text text-anchor="middle" x="730.5" y="-276.5" font-family="Helvetica,sans-Serif" font-size="10.00"> http_info</text>
</g>
<!-- Node5 -->
<g id="node5" class="node">
<title>Node5</title>
<g id="a_node5"><a xlink:title=" ">
<polygon fill="none" stroke="#bfbfbf" points="150,-499 150,-518 197,-518 197,-499 150,-499"/>
<text text-anchor="middle" x="173.5" y="-506" font-family="Helvetica,sans-Serif" font-size="10.00">map&lt;</text>
</a>
</g>
</g>
<!-- Node5&#45;&gt;Node4 -->
<g id="edge4" class="edge">
<title>Node5&#45;&gt;Node4</title>
<path fill="none" stroke="#9a32cd" stroke-dasharray="5,2" d="M207.34,-505.65C238.38,-502.1 285.75,-494.44 324,-478.5 399.03,-447.23 475.45,-384.52 503.4,-360.33"/>
<polygon fill="#9a32cd" stroke="#9a32cd" points="206.66,-502.2 197.09,-506.74 207.4,-509.17 206.66,-502.2"/>
<text text-anchor="middle" x="274" y="-505.5" font-family="Helvetica,sans-Serif" font-size="10.00"> headers</text>
</g>
<!-- Node6 -->
<g id="node6" class="node">
<title>Node6</title>
<g id="a_node6"><a xlink:title=" ">
<polygon fill="none" stroke="#bfbfbf" points="145.5,-461 145.5,-480 201.5,-480 201.5,-461 145.5,-461"/>
<text text-anchor="middle" x="173.5" y="-468" font-family="Helvetica,sans-Serif" font-size="10.00">uint16_t</text>
</a>
</g>
</g>
<!-- Node6&#45;&gt;Node4 -->
<g id="edge5" class="edge">
<title>Node6&#45;&gt;Node4</title>
<path fill="none" stroke="#9a32cd" stroke-dasharray="5,2" d="M211.74,-466.31C242.41,-462.2 286.75,-454.74 324,-442.5 391.69,-420.25 466.19,-378.89 498.3,-360.16"/>
<polygon fill="#9a32cd" stroke="#9a32cd" points="210.97,-462.88 201.5,-467.63 211.86,-469.82 210.97,-462.88"/>
<text text-anchor="middle" x="274" y="-466.5" font-family="Helvetica,sans-Serif" font-size="10.00"> status</text>
</g>
<!-- Node7 -->
<g id="node7" class="node">
<title>Node7</title>
<g id="a_node7"><a xlink:title=" ">
<polygon fill="none" stroke="#bfbfbf" points="141,-423 141,-442 206,-442 206,-423 141,-423"/>
<text text-anchor="middle" x="173.5" y="-430" font-family="Helvetica,sans-Serif" font-size="10.00">http_error</text>
</a>
</g>
</g>
<!-- Node7&#45;&gt;Node4 -->
<g id="edge6" class="edge">
<title>Node7&#45;&gt;Node4</title>
<path fill="none" stroke="#9a32cd" stroke-dasharray="5,2" d="M216.18,-428.97C246.37,-425.92 288.03,-420.69 324,-412.5 384.87,-398.64 454.04,-373.74 489.94,-360.09"/>
<polygon fill="#9a32cd" stroke="#9a32cd" points="215.62,-425.51 206.01,-429.96 216.3,-432.48 215.62,-425.51"/>
<text text-anchor="middle" x="274" y="-430.5" font-family="Helvetica,sans-Serif" font-size="10.00"> error</text>
</g>
<!-- Node8 -->
<g id="node8" class="node">
<title>Node8</title>
<g id="a_node8"><a xlink:title=" ">
<polygon fill="none" stroke="#bfbfbf" points="145.5,-362 145.5,-381 201.5,-381 201.5,-362 145.5,-362"/>
<text text-anchor="middle" x="173.5" y="-369" font-family="Helvetica,sans-Serif" font-size="10.00">uint64_t</text>
</a>
</g>
</g>
<!-- Node8&#45;&gt;Node4 -->
<g id="edge8" class="edge">
<title>Node8&#45;&gt;Node4</title>
<path fill="none" stroke="#9a32cd" stroke-dasharray="5,2" d="M211.86,-369.19C263.93,-365.98 359.76,-360.06 429.68,-355.74"/>
<polygon fill="#9a32cd" stroke="#9a32cd" points="211.51,-365.71 201.75,-369.82 211.95,-372.69 211.51,-365.71"/>
<text text-anchor="middle" x="274" y="-403.5" font-family="Helvetica,sans-Serif" font-size="10.00"> ratelimit_limit</text>
<text text-anchor="middle" x="274" y="-392.5" font-family="Helvetica,sans-Serif" font-size="10.00">ratelimit_remaining</text>
<text text-anchor="middle" x="274" y="-381.5" font-family="Helvetica,sans-Serif" font-size="10.00">ratelimit_reset_after</text>
<text text-anchor="middle" x="274" y="-370.5" font-family="Helvetica,sans-Serif" font-size="10.00">ratelimit_retry_after</text>
</g>
<!-- Node9 -->
<g id="node9" class="node">
<title>Node9</title>
<g id="a_node9"><a xlink:title=" ">
<polygon fill="none" stroke="#bfbfbf" points="154.5,-324 154.5,-343 192.5,-343 192.5,-324 154.5,-324"/>
<text text-anchor="middle" x="173.5" y="-331" font-family="Helvetica,sans-Serif" font-size="10.00">bool</text>
</a>
</g>
</g>
<!-- Node9&#45;&gt;Node4 -->
<g id="edge9" class="edge">
<title>Node9&#45;&gt;Node4</title>
<path fill="none" stroke="#9a32cd" stroke-dasharray="5,2" d="M203.12,-333.04C233.23,-332.7 281.97,-332.6 324,-334.5 358.65,-336.07 396.75,-339.02 429.72,-341.97"/>
<polygon fill="#9a32cd" stroke="#9a32cd" points="202.88,-329.54 192.92,-333.17 202.97,-336.54 202.88,-329.54"/>
<text text-anchor="middle" x="274" y="-337.5" font-family="Helvetica,sans-Serif" font-size="10.00"> ratelimit_global</text>
</g>
<!-- Node10 -->
<g id="node10" class="node">
<title>Node10</title>
<g id="a_node10"><a xlink:title=" ">
<polygon fill="none" stroke="#bfbfbf" points="148.5,-286 148.5,-305 198.5,-305 198.5,-286 148.5,-286"/>
<text text-anchor="middle" x="173.5" y="-293" font-family="Helvetica,sans-Serif" font-size="10.00">double</text>
</a>
</g>
</g>
<!-- Node10&#45;&gt;Node4 -->
<g id="edge10" class="edge">
<title>Node10&#45;&gt;Node4</title>
<path fill="none" stroke="#9a32cd" stroke-dasharray="5,2" d="M208.67,-300.28C238.99,-304.58 284.49,-311.17 324,-317.5 370.57,-324.96 423.4,-334.17 461.59,-340.96"/>
<polygon fill="#9a32cd" stroke="#9a32cd" points="209,-296.79 198.61,-298.86 208.02,-303.72 209,-296.79"/>
<text text-anchor="middle" x="274" y="-320.5" font-family="Helvetica,sans-Serif" font-size="10.00"> latency</text>
</g>
<!-- Node11 -->
<g id="node11" class="node">
<title>Node11</title>
<g id="a_node11"><a xlink:title=" ">
<polygon fill="none" stroke="#bfbfbf" points="342,-0.5 342,-184.5 689,-184.5 689,-0.5 342,-0.5"/>
<text text-anchor="start" x="350" y="-172.5" font-family="Helvetica,sans-Serif" font-size="10.00">variant&lt; confirmation,</text>
<text text-anchor="start" x="350" y="-161.5" font-family="Helvetica,sans-Serif" font-size="10.00"> message, message_map,</text>
<text text-anchor="start" x="350" y="-150.5" font-family="Helvetica,sans-Serif" font-size="10.00"> user, user_map, guild</text>
<text text-anchor="start" x="350" y="-139.5" font-family="Helvetica,sans-Serif" font-size="10.00">_member, guild_member_map,</text>
<text text-anchor="start" x="350" y="-128.5" font-family="Helvetica,sans-Serif" font-size="10.00"> channel, channel_map, thread</text>
<text text-anchor="start" x="350" y="-117.5" font-family="Helvetica,sans-Serif" font-size="10.00">_member, thread_member_map,</text>
<text text-anchor="start" x="350" y="-106.5" font-family="Helvetica,sans-Serif" font-size="10.00"> guild, guild_map, role, role</text>
<text text-anchor="start" x="350" y="-95.5" font-family="Helvetica,sans-Serif" font-size="10.00">_map, invite, invite_map, dtemplate,</text>
<text text-anchor="start" x="350" y="-84.5" font-family="Helvetica,sans-Serif" font-size="10.00"> dtemplate_map, emoji, emoji_map,</text>
<text text-anchor="start" x="350" y="-73.5" font-family="Helvetica,sans-Serif" font-size="10.00"> ban, ban_map, voiceregion, voiceregion</text>
<text text-anchor="start" x="350" y="-62.5" font-family="Helvetica,sans-Serif" font-size="10.00">_map, integration, integration_map, webhook,</text>
<text text-anchor="start" x="350" y="-51.5" font-family="Helvetica,sans-Serif" font-size="10.00"> webhook_map, prune, guild_widget, gateway,</text>
<text text-anchor="start" x="350" y="-40.5" font-family="Helvetica,sans-Serif" font-size="10.00"> interaction, interaction_response, auditlog,</text>
<text text-anchor="start" x="350" y="-29.5" font-family="Helvetica,sans-Serif" font-size="10.00"> slashcommand, slashcommand_map, stage_instance,</text>
<text text-anchor="start" x="350" y="-18.5" font-family="Helvetica,sans-Serif" font-size="10.00"> sticker, sticker_map, sticker_pack, sticker_pack</text>
<text text-anchor="middle" x="515.5" y="-7.5" font-family="Helvetica,sans-Serif" font-size="10.00">_map, application, application_map, connection, connection_map &gt;</text>
</a>
</g>
</g>
<!-- Node11&#45;&gt;Node1 -->
<g id="edge11" class="edge">
<title>Node11&#45;&gt;Node1</title>
<path fill="none" stroke="#9a32cd" stroke-dasharray="5,2" d="M698.71,-163.09C748.78,-182.48 796.95,-201.14 824.86,-211.96"/>
<polygon fill="#9a32cd" stroke="#9a32cd" points="699.93,-159.8 689.34,-159.46 697.4,-166.33 699.93,-159.8"/>
<text text-anchor="middle" x="730.5" y="-185.5" font-family="Helvetica,sans-Serif" font-size="10.00"> value</text>
</g>
</g>
</svg>
