<?xml version="1.0" encoding="UTF-8" standalone="no"?>
<!DOCTYPE svg PUBLIC "-//W3C//DTD SVG 1.1//EN"
 "http://www.w3.org/Graphics/SVG/1.1/DTD/svg11.dtd">
<!-- Generated by graphviz version 2.43.0 (0)
 -->
<!-- Title: dpp::resumed_t Pages: 1 -->
<svg width="1526pt" height="983pt"
 viewBox="0.00 0.00 1526.00 983.06" xmlns="http://www.w3.org/2000/svg" xmlns:xlink="http://www.w3.org/1999/xlink">
<g id="graph0" class="graph" transform="scale(1 1) rotate(0) translate(4 979.06)">
<title>dpp::resumed_t</title>
<!-- Node1 -->
<g id="node1" class="node">
<title>Node1</title>
<g id="a_node1"><a xlink:title="Session resumed.">
<polygon fill="#bfbfbf" stroke="black" points="1426,-829.56 1426,-848.56 1518,-848.56 1518,-829.56 1426,-829.56"/>
<text text-anchor="middle" x="1472" y="-836.56" font-family="Helvetica,sans-Serif" font-size="10.00">dpp::resumed_t</text>
</a>
</g>
</g>
<!-- Node2 -->
<g id="node2" class="node">
<title>Node2</title>
<g id="a_node2"><a xlink:href="structdpp_1_1event__dispatch__t.html" target="_top" xlink:title="Base event parameter struct. Each event you receive from the library will have its parameter derived ...">
<polygon fill="none" stroke="black" points="1265,-829.56 1265,-848.56 1389,-848.56 1389,-829.56 1265,-829.56"/>
<text text-anchor="middle" x="1327" y="-836.56" font-family="Helvetica,sans-Serif" font-size="10.00">dpp::event_dispatch_t</text>
</a>
</g>
</g>
<!-- Node2&#45;&gt;Node1 -->
<g id="edge1" class="edge">
<title>Node2&#45;&gt;Node1</title>
<path fill="none" stroke="midnightblue" d="M1399.21,-839.06C1408.23,-839.06 1417.26,-839.06 1425.72,-839.06"/>
<polygon fill="midnightblue" stroke="midnightblue" points="1399.06,-835.56 1389.06,-839.06 1399.06,-842.56 1399.06,-835.56"/>
</g>
<!-- Node3 -->
<g id="node3" class="node">
<title>Node3</title>
<g id="a_node3"><a xlink:title=" ">
<polygon fill="none" stroke="#bfbfbf" points="258,-874.56 258,-893.56 323,-893.56 323,-874.56 258,-874.56"/>
<text text-anchor="middle" x="290.5" y="-881.56" font-family="Helvetica,sans-Serif" font-size="10.00">std::string</text>
</a>
</g>
</g>
<!-- Node3&#45;&gt;Node1 -->
<g id="edge47" class="edge">
<title>Node3&#45;&gt;Node1</title>
<path fill="none" stroke="#9a32cd" stroke-dasharray="5,2" d="M316.66,-898.9C333.5,-908.24 356.46,-919.86 378,-927.06 463.32,-955.58 487.04,-964.06 577,-964.06 577,-964.06 577,-964.06 1328,-964.06 1397.91,-964.06 1450.1,-878.33 1465.97,-848.87"/>
<polygon fill="#9a32cd" stroke="#9a32cd" points="317.93,-895.59 307.5,-893.71 314.48,-901.68 317.93,-895.59"/>
<text text-anchor="middle" x="1007.5" y="-967.06" font-family="Helvetica,sans-Serif" font-size="10.00"> session_id</text>
</g>
<!-- Node3&#45;&gt;Node2 -->
<g id="edge2" class="edge">
<title>Node3&#45;&gt;Node2</title>
<path fill="none" stroke="#9a32cd" stroke-dasharray="5,2" d="M333.19,-893.85C388.56,-905.98 489.55,-925.06 577,-925.06 577,-925.06 577,-925.06 1149,-925.06 1218.35,-925.06 1289.01,-870.98 1315.3,-848.59"/>
<polygon fill="#9a32cd" stroke="#9a32cd" points="333.92,-890.43 323.4,-891.67 332.4,-897.26 333.92,-890.43"/>
<text text-anchor="middle" x="858.5" y="-928.06" font-family="Helvetica,sans-Serif" font-size="10.00"> raw_event</text>
</g>
<!-- Node5 -->
<g id="node5" class="node">
<title>Node5</title>
<g id="a_node5"><a xlink:href="classdpp_1_1discord__client.html" target="_top" xlink:title="Implements a discord client. Each discord_client connects to one shard and derives from a websocket c...">
<polygon fill="none" stroke="black" points="1094,-572.56 1094,-591.56 1202,-591.56 1202,-572.56 1094,-572.56"/>
<text text-anchor="middle" x="1148" y="-579.56" font-family="Helvetica,sans-Serif" font-size="10.00">dpp::discord_client</text>
</a>
</g>
</g>
<!-- Node3&#45;&gt;Node5 -->
<g id="edge42" class="edge">
<title>Node3&#45;&gt;Node5</title>
<path fill="none" stroke="#9a32cd" stroke-dasharray="5,2" d="M333.09,-887.32C399.42,-891.21 532.51,-893.57 639,-861.06 844,-798.47 902.15,-782.43 1076,-657.06 1102.76,-637.76 1127.73,-607.46 1139.66,-591.94"/>
<polygon fill="#9a32cd" stroke="#9a32cd" points="333.23,-883.82 323.03,-886.69 332.8,-890.81 333.23,-883.82"/>
<text text-anchor="middle" x="717.5" y="-870.06" font-family="Helvetica,sans-Serif" font-size="10.00"> sessionid</text>
<text text-anchor="middle" x="717.5" y="-859.06" font-family="Helvetica,sans-Serif" font-size="10.00">token</text>
</g>
<!-- Node7 -->
<g id="node7" class="node">
<title>Node7</title>
<g id="a_node7"><a xlink:href="classdpp_1_1ssl__client.html" target="_top" xlink:title="Implements a simple non&#45;blocking SSL stream client.">
<polygon fill="none" stroke="black" points="535,-610.56 535,-629.56 621,-629.56 621,-610.56 535,-610.56"/>
<text text-anchor="middle" x="578" y="-617.56" font-family="Helvetica,sans-Serif" font-size="10.00">dpp::ssl_client</text>
</a>
</g>
</g>
<!-- Node3&#45;&gt;Node7 -->
<g id="edge7" class="edge">
<title>Node3&#45;&gt;Node7</title>
<path fill="none" stroke="#9a32cd" stroke-dasharray="5,2" d="M306.31,-866.51C322.36,-848.45 349.52,-820.54 378,-803.06 426.76,-773.12 455.39,-796.1 499,-759.06 542.45,-722.16 566.48,-654.64 574.21,-629.67"/>
<polygon fill="#9a32cd" stroke="#9a32cd" points="303.28,-864.66 299.36,-874.5 308.57,-869.25 303.28,-864.66"/>
<text text-anchor="middle" x="438.5" y="-850.06" font-family="Helvetica,sans-Serif" font-size="10.00"> buffer</text>
<text text-anchor="middle" x="438.5" y="-839.06" font-family="Helvetica,sans-Serif" font-size="10.00">cipher</text>
<text text-anchor="middle" x="438.5" y="-828.06" font-family="Helvetica,sans-Serif" font-size="10.00">hostname</text>
<text text-anchor="middle" x="438.5" y="-817.06" font-family="Helvetica,sans-Serif" font-size="10.00">obuffer</text>
<text text-anchor="middle" x="438.5" y="-806.06" font-family="Helvetica,sans-Serif" font-size="10.00">port</text>
</g>
<!-- Node17 -->
<g id="node17" class="node">
<title>Node17</title>
<g id="a_node17"><a xlink:href="classdpp_1_1cluster.html" target="_top" xlink:title="The cluster class represents a group of shards and a command queue for sending and receiving commands...">
<polygon fill="none" stroke="black" points="821.5,-366.56 821.5,-385.56 895.5,-385.56 895.5,-366.56 821.5,-366.56"/>
<text text-anchor="middle" x="858.5" y="-373.56" font-family="Helvetica,sans-Serif" font-size="10.00">dpp::cluster</text>
</a>
</g>
</g>
<!-- Node3&#45;&gt;Node17 -->
<g id="edge19" class="edge">
<title>Node3&#45;&gt;Node17</title>
<path fill="none" stroke="#9a32cd" stroke-dasharray="5,2" d="M333.17,-882.97C385.66,-880.9 472.24,-874.96 499,-858.06 596.67,-796.37 594.68,-745.74 639,-639.06 653.15,-605 636.44,-588.67 657,-558.06 693.49,-503.71 734.86,-523.3 778,-474.06 789.53,-460.9 785.78,-453.25 796,-439.06 811.01,-418.22 832.8,-397.6 846.01,-385.89"/>
<polygon fill="#9a32cd" stroke="#9a32cd" points="333.02,-879.47 323.16,-883.33 333.28,-886.47 333.02,-879.47"/>
<text text-anchor="middle" x="578" y="-849.06" font-family="Helvetica,sans-Serif" font-size="10.00"> token</text>
</g>
<!-- Node20 -->
<g id="node20" class="node">
<title>Node20</title>
<g id="a_node20"><a xlink:href="classdpp_1_1user.html" target="_top" xlink:title="Represents a user on discord. May or may not be a member of a dpp::guild.">
<polygon fill="none" stroke="black" points="547,-174.56 547,-193.56 609,-193.56 609,-174.56 547,-174.56"/>
<text text-anchor="middle" x="578" y="-181.56" font-family="Helvetica,sans-Serif" font-size="10.00">dpp::user</text>
</a>
</g>
</g>
<!-- Node3&#45;&gt;Node20 -->
<g id="edge28" class="edge">
<title>Node3&#45;&gt;Node20</title>
<path fill="none" stroke="#9a32cd" stroke-dasharray="5,2" d="M304.43,-866.07C320.5,-842.68 347.34,-799.96 360,-759.06 371.95,-720.45 353.66,-610.33 378,-578.06 412.83,-531.87 465.19,-577.01 499,-530.06 541.53,-471 472.4,-260.57 517,-203.06 524.16,-193.82 535.82,-188.98 546.96,-186.49"/>
<polygon fill="#9a32cd" stroke="#9a32cd" points="301.53,-864.11 298.66,-874.31 307.26,-868.13 301.53,-864.11"/>
<text text-anchor="middle" x="438.5" y="-581.06" font-family="Helvetica,sans-Serif" font-size="10.00"> username</text>
</g>
<!-- Node4 -->
<g id="node4" class="node">
<title>Node4</title>
<g id="a_node4"><a xlink:title=" ">
<polygon fill="none" stroke="#bfbfbf" points="17,-869.06 17,-899.06 121,-899.06 121,-869.06 17,-869.06"/>
<text text-anchor="start" x="25" y="-887.06" font-family="Helvetica,sans-Serif" font-size="10.00">std::basic_string&lt;</text>
<text text-anchor="middle" x="69" y="-876.06" font-family="Helvetica,sans-Serif" font-size="10.00"> Char &gt;</text>
</a>
</g>
</g>
<!-- Node4&#45;&gt;Node3 -->
<g id="edge3" class="edge">
<title>Node4&#45;&gt;Node3</title>
<path fill="none" stroke="midnightblue" d="M131.38,-884.06C172.53,-884.06 225.02,-884.06 257.96,-884.06"/>
<polygon fill="midnightblue" stroke="midnightblue" points="131.19,-880.56 121.19,-884.06 131.19,-887.56 131.19,-880.56"/>
</g>
<!-- Node5&#45;&gt;Node2 -->
<g id="edge4" class="edge">
<title>Node5&#45;&gt;Node2</title>
<path fill="none" stroke="#9a32cd" stroke-dasharray="5,2" d="M1161.44,-600.12C1196.08,-650.42 1292.86,-790.95 1319.27,-829.29"/>
<polygon fill="#9a32cd" stroke="#9a32cd" points="1164.28,-598.07 1155.72,-591.82 1158.51,-602.04 1164.28,-598.07"/>
<text text-anchor="middle" x="1233.5" y="-722.06" font-family="Helvetica,sans-Serif" font-size="10.00"> from</text>
</g>
<!-- Node6 -->
<g id="node6" class="node">
<title>Node6</title>
<g id="a_node6"><a xlink:href="classdpp_1_1websocket__client.html" target="_top" xlink:title="Implements a websocket client based on the SSL client.">
<polygon fill="none" stroke="black" points="796,-610.56 796,-629.56 921,-629.56 921,-610.56 796,-610.56"/>
<text text-anchor="middle" x="858.5" y="-617.56" font-family="Helvetica,sans-Serif" font-size="10.00">dpp::websocket_client</text>
</a>
</g>
</g>
<!-- Node6&#45;&gt;Node5 -->
<g id="edge5" class="edge">
<title>Node6&#45;&gt;Node5</title>
<path fill="none" stroke="midnightblue" d="M931.46,-613.61C973.68,-609.45 1028,-603.44 1076,-596.06 1084.32,-594.78 1093.15,-593.21 1101.65,-591.59"/>
<polygon fill="midnightblue" stroke="midnightblue" points="930.89,-610.15 921.27,-614.61 931.57,-617.12 930.89,-610.15"/>
</g>
<!-- Node7&#45;&gt;Node6 -->
<g id="edge6" class="edge">
<title>Node7&#45;&gt;Node6</title>
<path fill="none" stroke="midnightblue" d="M631.51,-620.06C678.24,-620.06 746.62,-620.06 795.91,-620.06"/>
<polygon fill="midnightblue" stroke="midnightblue" points="631.3,-616.56 621.3,-620.06 631.3,-623.56 631.3,-616.56"/>
</g>
<!-- Node8 -->
<g id="node8" class="node">
<title>Node8</title>
<g id="a_node8"><a xlink:title=" ">
<polygon fill="none" stroke="#bfbfbf" points="271.5,-730.56 271.5,-749.56 309.5,-749.56 309.5,-730.56 271.5,-730.56"/>
<text text-anchor="middle" x="290.5" y="-737.56" font-family="Helvetica,sans-Serif" font-size="10.00">bool</text>
</a>
</g>
</g>
<!-- Node8&#45;&gt;Node5 -->
<g id="edge17" class="edge">
<title>Node8&#45;&gt;Node5</title>
<path fill="none" stroke="#9a32cd" stroke-dasharray="5,2" d="M319.86,-746.24C336.67,-749.59 358.44,-753.37 378,-755.06 431.58,-759.67 445.58,-761.27 499,-755.06 760.71,-724.63 829.04,-710.87 1076,-619.06 1095.93,-611.65 1117.4,-599.88 1131.45,-591.61"/>
<polygon fill="#9a32cd" stroke="#9a32cd" points="320.11,-742.72 309.61,-744.13 318.7,-749.58 320.11,-742.72"/>
<text text-anchor="middle" x="717.5" y="-749.06" font-family="Helvetica,sans-Serif" font-size="10.00"> ready</text>
<text text-anchor="middle" x="717.5" y="-738.06" font-family="Helvetica,sans-Serif" font-size="10.00">terminating</text>
</g>
<!-- Node8&#45;&gt;Node7 -->
<g id="edge8" class="edge">
<title>Node8&#45;&gt;Node7</title>
<path fill="none" stroke="#9a32cd" stroke-dasharray="5,2" d="M319.28,-729.8C336.12,-723.82 358.12,-716.42 378,-711.06 431.02,-696.75 449.63,-710.09 499,-686.06 528.03,-671.93 555.21,-644.53 568.49,-629.87"/>
<polygon fill="#9a32cd" stroke="#9a32cd" points="317.76,-726.63 309.53,-733.31 320.13,-733.22 317.76,-726.63"/>
<text text-anchor="middle" x="438.5" y="-747.06" font-family="Helvetica,sans-Serif" font-size="10.00"> keepalive</text>
<text text-anchor="middle" x="438.5" y="-736.06" font-family="Helvetica,sans-Serif" font-size="10.00">make_new</text>
<text text-anchor="middle" x="438.5" y="-725.06" font-family="Helvetica,sans-Serif" font-size="10.00">nonblocking</text>
<text text-anchor="middle" x="438.5" y="-714.06" font-family="Helvetica,sans-Serif" font-size="10.00">plaintext</text>
</g>
<!-- Node9 -->
<g id="node9" class="node">
<title>Node9</title>
<g id="a_node9"><a xlink:title=" ">
<polygon fill="none" stroke="#bfbfbf" points="276,-574.56 276,-593.56 305,-593.56 305,-574.56 276,-574.56"/>
<text text-anchor="middle" x="290.5" y="-581.56" font-family="Helvetica,sans-Serif" font-size="10.00">int</text>
</a>
</g>
</g>
<!-- Node9&#45;&gt;Node7 -->
<g id="edge9" class="edge">
<title>Node9&#45;&gt;Node7</title>
<path fill="none" stroke="#9a32cd" stroke-dasharray="5,2" d="M315.37,-586.03C354.04,-589.34 432.74,-596.61 499,-606.06 510.71,-607.73 523.36,-609.86 534.99,-611.95"/>
<polygon fill="#9a32cd" stroke="#9a32cd" points="315.4,-582.52 305.14,-585.16 314.81,-589.49 315.4,-582.52"/>
<text text-anchor="middle" x="438.5" y="-609.06" font-family="Helvetica,sans-Serif" font-size="10.00"> sfd</text>
</g>
<!-- Node10 -->
<g id="node10" class="node">
<title>Node10</title>
<g id="a_node10"><a xlink:href="classdpp_1_1opensslcontext.html" target="_top" xlink:title="This is an opaque class containing openssl library specific structures. We define it this way so that...">
<polygon fill="none" stroke="black" points="233,-525.56 233,-544.56 348,-544.56 348,-525.56 233,-525.56"/>
<text text-anchor="middle" x="290.5" y="-532.56" font-family="Helvetica,sans-Serif" font-size="10.00">dpp::opensslcontext</text>
</a>
</g>
</g>
<!-- Node10&#45;&gt;Node7 -->
<g id="edge10" class="edge">
<title>Node10&#45;&gt;Node7</title>
<path fill="none" stroke="#9a32cd" stroke-dasharray="5,2" d="M343.14,-523.42C396.58,-512.69 475.46,-500.94 499,-519.06 523.77,-538.13 497.75,-562.42 517,-587.06 525.2,-597.55 537.71,-605.18 549.19,-610.44"/>
<polygon fill="#9a32cd" stroke="#9a32cd" points="342.24,-520.03 333.15,-525.47 343.65,-526.89 342.24,-520.03"/>
<text text-anchor="middle" x="438.5" y="-522.06" font-family="Helvetica,sans-Serif" font-size="10.00"> ssl</text>
</g>
<!-- Node11 -->
<g id="node11" class="node">
<title>Node11</title>
<g id="a_node11"><a xlink:title=" ">
<polygon fill="none" stroke="#bfbfbf" points="48,-554.56 48,-573.56 90,-573.56 90,-554.56 48,-554.56"/>
<text text-anchor="middle" x="69" y="-561.56" font-family="Helvetica,sans-Serif" font-size="10.00">SSL *</text>
</a>
</g>
</g>
<!-- Node11&#45;&gt;Node10 -->
<g id="edge11" class="edge">
<title>Node11&#45;&gt;Node10</title>
<path fill="none" stroke="#9a32cd" stroke-dasharray="5,2" d="M100.5,-560.03C134.56,-555.53 190.43,-548.15 232.62,-542.57"/>
<polygon fill="#9a32cd" stroke="#9a32cd" points="99.71,-556.6 90.26,-561.38 100.63,-563.54 99.71,-556.6"/>
<text text-anchor="middle" x="179.5" y="-556.06" font-family="Helvetica,sans-Serif" font-size="10.00"> ssl</text>
</g>
<!-- Node12 -->
<g id="node12" class="node">
<title>Node12</title>
<g id="a_node12"><a xlink:title=" ">
<polygon fill="none" stroke="#bfbfbf" points="35.5,-516.56 35.5,-535.56 102.5,-535.56 102.5,-516.56 35.5,-516.56"/>
<text text-anchor="middle" x="69" y="-523.56" font-family="Helvetica,sans-Serif" font-size="10.00">SSL_CTX *</text>
</a>
</g>
</g>
<!-- Node12&#45;&gt;Node10 -->
<g id="edge12" class="edge">
<title>Node12&#45;&gt;Node10</title>
<path fill="none" stroke="#9a32cd" stroke-dasharray="5,2" d="M112.82,-527.57C138.89,-528.52 172.87,-529.79 203,-531.06 212.61,-531.46 222.83,-531.91 232.74,-532.36"/>
<polygon fill="#9a32cd" stroke="#9a32cd" points="112.64,-524.07 102.53,-527.2 112.39,-531.06 112.64,-524.07"/>
<text text-anchor="middle" x="179.5" y="-534.06" font-family="Helvetica,sans-Serif" font-size="10.00"> ctx</text>
</g>
<!-- Node13 -->
<g id="node13" class="node">
<title>Node13</title>
<g id="a_node13"><a xlink:title=" ">
<polygon fill="none" stroke="#bfbfbf" points="266.5,-429.56 266.5,-448.56 314.5,-448.56 314.5,-429.56 266.5,-429.56"/>
<text text-anchor="middle" x="290.5" y="-436.56" font-family="Helvetica,sans-Serif" font-size="10.00">time_t</text>
</a>
</g>
</g>
<!-- Node13&#45;&gt;Node5 -->
<g id="edge39" class="edge">
<title>Node13&#45;&gt;Node5</title>
<path fill="none" stroke="#9a32cd" stroke-dasharray="5,2" d="M324.43,-427.67C369.38,-414.44 449.94,-399.22 499,-440.06 532.03,-467.55 486.24,-505.04 517,-535.06 597.85,-613.96 956.52,-596.31 1093.54,-586.41"/>
<polygon fill="#9a32cd" stroke="#9a32cd" points="323.13,-424.41 314.61,-430.7 325.2,-431.1 323.13,-424.41"/>
<text text-anchor="middle" x="717.5" y="-608.06" font-family="Helvetica,sans-Serif" font-size="10.00"> last_heartbeat</text>
<text text-anchor="middle" x="717.5" y="-597.06" font-family="Helvetica,sans-Serif" font-size="10.00">last_heartbeat_ack</text>
</g>
<!-- Node13&#45;&gt;Node7 -->
<g id="edge13" class="edge">
<title>Node13&#45;&gt;Node7</title>
<path fill="none" stroke="#9a32cd" stroke-dasharray="5,2" d="M324.75,-437.66C376.99,-436.22 474.82,-436.82 499,-460.06 540.11,-499.56 484.61,-540.15 517,-587.06 524.36,-597.72 536.33,-605.29 547.65,-610.46"/>
<polygon fill="#9a32cd" stroke="#9a32cd" points="324.53,-434.16 314.65,-437.98 324.75,-441.16 324.53,-434.16"/>
<text text-anchor="middle" x="438.5" y="-463.06" font-family="Helvetica,sans-Serif" font-size="10.00"> last_tick</text>
</g>
<!-- Node13&#45;&gt;Node17 -->
<g id="edge20" class="edge">
<title>Node13&#45;&gt;Node17</title>
<path fill="none" stroke="#9a32cd" stroke-dasharray="5,2" d="M324.14,-427.27C340.18,-421.9 359.9,-415.89 378,-412.06 540.73,-377.61 740.62,-374.98 821.25,-375.5"/>
<polygon fill="#9a32cd" stroke="#9a32cd" points="323.01,-423.96 314.68,-430.52 325.28,-430.59 323.01,-423.96"/>
<text text-anchor="middle" x="578" y="-393.06" font-family="Helvetica,sans-Serif" font-size="10.00"> last_identify</text>
</g>
<!-- Node14 -->
<g id="node14" class="node">
<title>Node14</title>
<g id="a_node14"><a xlink:title=" ">
<polygon fill="none" stroke="#bfbfbf" points="41,-366.56 41,-385.56 97,-385.56 97,-366.56 41,-366.56"/>
<text text-anchor="middle" x="69" y="-373.56" font-family="Helvetica,sans-Serif" font-size="10.00">uint64_t</text>
</a>
</g>
</g>
<!-- Node14&#45;&gt;Node5 -->
<g id="edge41" class="edge">
<title>Node14&#45;&gt;Node5</title>
<path fill="none" stroke="#9a32cd" stroke-dasharray="5,2" d="M107.26,-374.12C200.58,-370.08 440.99,-364.9 499,-415.06 524.93,-437.48 491.69,-466.94 517,-490.06 538.35,-509.56 945.71,-558.65 1093.78,-575.92"/>
<polygon fill="#9a32cd" stroke="#9a32cd" points="106.98,-370.63 97.15,-374.58 107.29,-377.62 106.98,-370.63"/>
<text text-anchor="middle" x="578" y="-520.06" font-family="Helvetica,sans-Serif" font-size="10.00"> last_seq</text>
</g>
<!-- Node14&#45;&gt;Node7 -->
<g id="edge14" class="edge">
<title>Node14&#45;&gt;Node7</title>
<path fill="none" stroke="#9a32cd" stroke-dasharray="5,2" d="M92.27,-391.2C120.82,-409.87 172.43,-441.19 221,-458.06 280.22,-478.62 453.63,-462.8 499,-506.06 525.69,-531.51 494.88,-557.55 517,-587.06 524.92,-597.62 537.25,-605.22 548.68,-610.45"/>
<polygon fill="#9a32cd" stroke="#9a32cd" points="94.12,-388.22 83.85,-385.62 90.25,-394.06 94.12,-388.22"/>
<text text-anchor="middle" x="290.5" y="-487.06" font-family="Helvetica,sans-Serif" font-size="10.00"> bytes_in</text>
<text text-anchor="middle" x="290.5" y="-476.06" font-family="Helvetica,sans-Serif" font-size="10.00">bytes_out</text>
</g>
<!-- Node21 -->
<g id="node21" class="node">
<title>Node21</title>
<g id="a_node21"><a xlink:href="classdpp_1_1managed.html" target="_top" xlink:title="The managed class is the base class for various types that can be stored in a cache that are identifi...">
<polygon fill="none" stroke="black" points="247.5,-302.56 247.5,-321.56 333.5,-321.56 333.5,-302.56 247.5,-302.56"/>
<text text-anchor="middle" x="290.5" y="-309.56" font-family="Helvetica,sans-Serif" font-size="10.00">dpp::managed</text>
</a>
</g>
</g>
<!-- Node14&#45;&gt;Node21 -->
<g id="edge25" class="edge">
<title>Node14&#45;&gt;Node21</title>
<path fill="none" stroke="#9a32cd" stroke-dasharray="5,2" d="M107.03,-364.81C137.56,-355.59 182.03,-342.27 221,-331.06 231.91,-327.92 243.83,-324.58 254.62,-321.6"/>
<polygon fill="#9a32cd" stroke="#9a32cd" points="105.79,-361.53 97.23,-367.77 107.82,-368.23 105.79,-361.53"/>
<text text-anchor="middle" x="179.5" y="-353.06" font-family="Helvetica,sans-Serif" font-size="10.00"> id</text>
</g>
<!-- Node24 -->
<g id="node24" class="node">
<title>Node24</title>
<g id="a_node24"><a xlink:href="structdpp_1_1utility_1_1iconhash.html" target="_top" xlink:title="Store a 128 bit icon hash (profile picture, server icon etc) as a 128 bit binary value made of two ui...">
<polygon fill="none" stroke="black" points="231.5,-264.56 231.5,-283.56 349.5,-283.56 349.5,-264.56 231.5,-264.56"/>
<text text-anchor="middle" x="290.5" y="-271.56" font-family="Helvetica,sans-Serif" font-size="10.00">dpp::utility::iconhash</text>
</a>
</g>
</g>
<!-- Node14&#45;&gt;Node24 -->
<g id="edge30" class="edge">
<title>Node14&#45;&gt;Node24</title>
<path fill="none" stroke="#9a32cd" stroke-dasharray="5,2" d="M87.73,-359.44C104.24,-344.79 130.14,-323.83 156,-311.06 181.66,-298.38 212.31,-289.5 237.77,-283.62"/>
<polygon fill="#9a32cd" stroke="#9a32cd" points="85.05,-357.14 80,-366.45 89.76,-362.33 85.05,-357.14"/>
<text text-anchor="middle" x="179.5" y="-325.06" font-family="Helvetica,sans-Serif" font-size="10.00"> first</text>
<text text-anchor="middle" x="179.5" y="-314.06" font-family="Helvetica,sans-Serif" font-size="10.00">second</text>
</g>
<!-- Node15 -->
<g id="node15" class="node">
<title>Node15</title>
<g id="a_node15"><a xlink:title=" ">
<polygon fill="none" stroke="#bfbfbf" points="221,-655.56 221,-674.56 360,-674.56 360,-655.56 221,-655.56"/>
<text text-anchor="middle" x="290.5" y="-662.56" font-family="Helvetica,sans-Serif" font-size="10.00">function&lt; dpp::socket()&gt;</text>
</a>
</g>
</g>
<!-- Node15&#45;&gt;Node7 -->
<g id="edge15" class="edge">
<title>Node15&#45;&gt;Node7</title>
<path fill="none" stroke="#9a32cd" stroke-dasharray="5,2" d="M370.42,-660.07C409.38,-656.75 456.92,-651.42 499,-643.06 515.89,-639.7 534.4,-634.32 549.15,-629.61"/>
<polygon fill="#9a32cd" stroke="#9a32cd" points="369.87,-656.6 360.19,-660.91 370.45,-663.58 369.87,-656.6"/>
<text text-anchor="middle" x="438.5" y="-674.06" font-family="Helvetica,sans-Serif" font-size="10.00"> custom_readable_fd</text>
<text text-anchor="middle" x="438.5" y="-663.06" font-family="Helvetica,sans-Serif" font-size="10.00">custom_writeable_fd</text>
</g>
<!-- Node16 -->
<g id="node16" class="node">
<title>Node16</title>
<g id="a_node16"><a xlink:title=" ">
<polygon fill="none" stroke="#bfbfbf" points="238.5,-612.56 238.5,-631.56 342.5,-631.56 342.5,-612.56 238.5,-612.56"/>
<text text-anchor="middle" x="290.5" y="-619.56" font-family="Helvetica,sans-Serif" font-size="10.00">function&lt; void()&gt;</text>
</a>
</g>
</g>
<!-- Node16&#45;&gt;Node7 -->
<g id="edge16" class="edge">
<title>Node16&#45;&gt;Node7</title>
<path fill="none" stroke="#9a32cd" stroke-dasharray="5,2" d="M352.92,-621.3C361.34,-621.21 369.89,-621.13 378,-621.06 432.07,-620.61 494.4,-620.34 534.69,-620.19"/>
<polygon fill="#9a32cd" stroke="#9a32cd" points="352.69,-617.8 342.73,-621.41 352.77,-624.8 352.69,-617.8"/>
<text text-anchor="middle" x="438.5" y="-635.06" font-family="Helvetica,sans-Serif" font-size="10.00"> custom_readable_ready</text>
<text text-anchor="middle" x="438.5" y="-624.06" font-family="Helvetica,sans-Serif" font-size="10.00">custom_writeable_ready</text>
</g>
<!-- Node17&#45;&gt;Node5 -->
<g id="edge18" class="edge">
<title>Node17&#45;&gt;Node5</title>
<path fill="none" stroke="#9a32cd" stroke-dasharray="5,2" d="M905.55,-371.04C953.23,-368.4 1027.42,-371.77 1076,-410.06 1129.79,-452.46 1143.18,-542.59 1146.2,-572.32"/>
<polygon fill="#9a32cd" stroke="#9a32cd" points="905.25,-367.55 895.5,-371.7 905.71,-374.53 905.25,-367.55"/>
<text text-anchor="middle" x="1007.5" y="-413.06" font-family="Helvetica,sans-Serif" font-size="10.00"> creator</text>
</g>
<!-- Node18 -->
<g id="node18" class="node">
<title>Node18</title>
<g id="a_node18"><a xlink:title=" ">
<polygon fill="none" stroke="#bfbfbf" points="262.5,-62.56 262.5,-81.56 318.5,-81.56 318.5,-62.56 262.5,-62.56"/>
<text text-anchor="middle" x="290.5" y="-69.56" font-family="Helvetica,sans-Serif" font-size="10.00">uint32_t</text>
</a>
</g>
</g>
<!-- Node18&#45;&gt;Node1 -->
<g id="edge48" class="edge">
<title>Node18&#45;&gt;Node1</title>
<path fill="none" stroke="#9a32cd" stroke-dasharray="5,2" d="M313.36,-56.75C330.22,-45.75 354.55,-31.59 378,-24.06 462.77,3.17 487.97,-1.06 577,-1.06 577,-1.06 577,-1.06 1328,-1.06 1416.46,-1.06 1464.65,-736.05 1470.41,-829.36"/>
<polygon fill="#9a32cd" stroke="#9a32cd" points="311.18,-54 304.82,-62.47 315.07,-59.81 311.18,-54"/>
<text text-anchor="middle" x="1007.5" y="-4.06" font-family="Helvetica,sans-Serif" font-size="10.00"> shard_id</text>
</g>
<!-- Node18&#45;&gt;Node5 -->
<g id="edge38" class="edge">
<title>Node18&#45;&gt;Node5</title>
<path fill="none" stroke="#9a32cd" stroke-dasharray="5,2" d="M328.35,-60.71C412.23,-36.98 622.25,10.41 778,-56.06 954.07,-131.2 977.33,-203.01 1076,-367.06 1119.36,-439.14 1139.84,-540.95 1145.4,-572.42"/>
<polygon fill="#9a32cd" stroke="#9a32cd" points="327.16,-57.41 318.52,-63.55 329.1,-64.14 327.16,-57.41"/>
<text text-anchor="middle" x="717.5" y="-114.06" font-family="Helvetica,sans-Serif" font-size="10.00"> heartbeat_interval</text>
<text text-anchor="middle" x="717.5" y="-103.06" font-family="Helvetica,sans-Serif" font-size="10.00">intents</text>
<text text-anchor="middle" x="717.5" y="-92.06" font-family="Helvetica,sans-Serif" font-size="10.00">max_shards</text>
<text text-anchor="middle" x="717.5" y="-81.06" font-family="Helvetica,sans-Serif" font-size="10.00">reconnects</text>
<text text-anchor="middle" x="717.5" y="-70.06" font-family="Helvetica,sans-Serif" font-size="10.00">resumes</text>
<text text-anchor="middle" x="717.5" y="-59.06" font-family="Helvetica,sans-Serif" font-size="10.00">shard_id</text>
</g>
<!-- Node18&#45;&gt;Node17 -->
<g id="edge21" class="edge">
<title>Node18&#45;&gt;Node17</title>
<path fill="none" stroke="#9a32cd" stroke-dasharray="5,2" d="M328.67,-76.59C370.22,-81.73 439.5,-90.51 499,-99.06 561.35,-108.01 577.51,-107.43 639,-121.06 654.69,-124.53 766.22,-150.12 778,-161.06 840.99,-219.55 854.28,-332.4 856.9,-366.24"/>
<polygon fill="#9a32cd" stroke="#9a32cd" points="329.08,-73.12 318.72,-75.37 328.22,-80.06 329.08,-73.12"/>
<text text-anchor="middle" x="578" y="-157.06" font-family="Helvetica,sans-Serif" font-size="10.00"> cluster_id</text>
<text text-anchor="middle" x="578" y="-146.06" font-family="Helvetica,sans-Serif" font-size="10.00">intents</text>
<text text-anchor="middle" x="578" y="-135.06" font-family="Helvetica,sans-Serif" font-size="10.00">maxclusters</text>
<text text-anchor="middle" x="578" y="-124.06" font-family="Helvetica,sans-Serif" font-size="10.00">numshards</text>
</g>
<!-- Node18&#45;&gt;Node20 -->
<g id="edge31" class="edge">
<title>Node18&#45;&gt;Node20</title>
<path fill="none" stroke="#9a32cd" stroke-dasharray="5,2" d="M328.26,-83C379.29,-98.45 468.74,-126.48 499,-142.06 507.77,-146.57 508.53,-150 517,-155.06 529.12,-162.29 543.32,-169.21 554.86,-174.48"/>
<polygon fill="#9a32cd" stroke="#9a32cd" points="329.18,-79.63 318.6,-80.09 327.16,-86.33 329.18,-79.63"/>
<text text-anchor="middle" x="438.5" y="-145.06" font-family="Helvetica,sans-Serif" font-size="10.00"> flags</text>
</g>
<!-- Node19 -->
<g id="node19" class="node">
<title>Node19</title>
<g id="a_node19"><a xlink:title=" ">
<polygon fill="none" stroke="#bfbfbf" points="553,-416.56 553,-435.56 603,-435.56 603,-416.56 553,-416.56"/>
<text text-anchor="middle" x="578" y="-423.56" font-family="Helvetica,sans-Serif" font-size="10.00">double</text>
</a>
</g>
</g>
<!-- Node19&#45;&gt;Node5 -->
<g id="edge44" class="edge">
<title>Node19&#45;&gt;Node5</title>
<path fill="none" stroke="#9a32cd" stroke-dasharray="5,2" d="M613.21,-427.84C712.11,-433.49 996.45,-453.41 1076,-499.06 1107.58,-517.18 1131.73,-554.81 1141.83,-572.49"/>
<polygon fill="#9a32cd" stroke="#9a32cd" points="613.33,-424.34 603.15,-427.28 612.94,-431.33 613.33,-424.34"/>
<text text-anchor="middle" x="858.5" y="-461.06" font-family="Helvetica,sans-Serif" font-size="10.00"> websocket_ping</text>
</g>
<!-- Node19&#45;&gt;Node17 -->
<g id="edge22" class="edge">
<title>Node19&#45;&gt;Node17</title>
<path fill="none" stroke="#9a32cd" stroke-dasharray="5,2" d="M613.13,-418.79C626.75,-415.96 642.6,-412.75 657,-410.06 714.26,-399.33 781,-388.31 821.21,-381.83"/>
<polygon fill="#9a32cd" stroke="#9a32cd" points="612.27,-415.4 603.2,-420.87 613.71,-422.25 612.27,-415.4"/>
<text text-anchor="middle" x="717.5" y="-413.06" font-family="Helvetica,sans-Serif" font-size="10.00"> rest_ping</text>
</g>
<!-- Node20&#45;&gt;Node17 -->
<g id="edge23" class="edge">
<title>Node20&#45;&gt;Node17</title>
<path fill="none" stroke="#9a32cd" stroke-dasharray="5,2" d="M619.18,-172.71C662.3,-163.07 730.94,-155.29 778,-187.06 841.43,-229.88 854.39,-334.08 856.92,-366.36"/>
<polygon fill="#9a32cd" stroke="#9a32cd" points="618.24,-169.34 609.32,-175.05 619.86,-176.15 618.24,-169.34"/>
<text text-anchor="middle" x="717.5" y="-190.06" font-family="Helvetica,sans-Serif" font-size="10.00"> me</text>
</g>
<!-- Node21&#45;&gt;Node20 -->
<g id="edge24" class="edge">
<title>Node21&#45;&gt;Node20</title>
<path fill="none" stroke="midnightblue" d="M343.74,-318.98C390.4,-322.07 457.6,-318.4 499,-280.06 524.78,-256.18 493.12,-228.85 517,-203.06 524.72,-194.72 536.07,-190.02 546.83,-187.38"/>
<polygon fill="midnightblue" stroke="midnightblue" points="343.77,-315.48 333.53,-318.18 343.22,-322.45 343.77,-315.48"/>
</g>
<!-- Node22 -->
<g id="node22" class="node">
<title>Node22</title>
<g id="a_node22"><a xlink:href="structdpp_1_1json__interface.html" target="_top" xlink:title=" ">
<polygon fill="none" stroke="black" points="235.5,-215.06 235.5,-245.06 345.5,-245.06 345.5,-215.06 235.5,-215.06"/>
<text text-anchor="start" x="243.5" y="-233.06" font-family="Helvetica,sans-Serif" font-size="10.00">dpp::json_interface</text>
<text text-anchor="middle" x="290.5" y="-222.06" font-family="Helvetica,sans-Serif" font-size="10.00">&lt; user &gt;</text>
</a>
</g>
</g>
<!-- Node22&#45;&gt;Node20 -->
<g id="edge26" class="edge">
<title>Node22&#45;&gt;Node20</title>
<path fill="none" stroke="midnightblue" d="M356,-222.32C397.06,-217.08 451.3,-209.58 499,-201.06 514.83,-198.23 532.33,-194.48 546.73,-191.21"/>
<polygon fill="midnightblue" stroke="midnightblue" points="355.34,-218.88 345.85,-223.6 356.21,-225.82 355.34,-218.88"/>
</g>
<!-- Node23 -->
<g id="node23" class="node">
<title>Node23</title>
<g id="a_node23"><a xlink:href="structdpp_1_1json__interface.html" target="_top" xlink:title="Represents an interface for an object that can optionally implement functions for converting to and f...">
<polygon fill="none" stroke="black" points="0,-220.56 0,-239.56 138,-239.56 138,-220.56 0,-220.56"/>
<text text-anchor="middle" x="69" y="-227.56" font-family="Helvetica,sans-Serif" font-size="10.00">dpp::json_interface&lt; T &gt;</text>
</a>
</g>
</g>
<!-- Node23&#45;&gt;Node22 -->
<g id="edge27" class="edge">
<title>Node23&#45;&gt;Node22</title>
<path fill="none" stroke="orange" stroke-dasharray="5,2" d="M148.28,-230.06C177.07,-230.06 209.01,-230.06 235.22,-230.06"/>
<polygon fill="orange" stroke="orange" points="148.25,-226.56 138.25,-230.06 148.25,-233.56 148.25,-226.56"/>
<text text-anchor="middle" x="179.5" y="-233.06" font-family="Helvetica,sans-Serif" font-size="10.00"> &lt; user &gt;</text>
</g>
<!-- Node24&#45;&gt;Node20 -->
<g id="edge29" class="edge">
<title>Node24&#45;&gt;Node20</title>
<path fill="none" stroke="#9a32cd" stroke-dasharray="5,2" d="M359.76,-268.38C402.35,-262.34 456.87,-249.85 499,-224.06 509.48,-217.64 506.75,-209.84 517,-203.06 525.93,-197.15 536.82,-192.98 546.85,-190.09"/>
<polygon fill="#9a32cd" stroke="#9a32cd" points="359.22,-264.93 349.77,-269.72 360.14,-271.87 359.22,-264.93"/>
<text text-anchor="middle" x="438.5" y="-269.06" font-family="Helvetica,sans-Serif" font-size="10.00"> avatar</text>
</g>
<!-- Node25 -->
<g id="node25" class="node">
<title>Node25</title>
<g id="a_node25"><a xlink:title=" ">
<polygon fill="none" stroke="#bfbfbf" points="262.5,-176.56 262.5,-195.56 318.5,-195.56 318.5,-176.56 262.5,-176.56"/>
<text text-anchor="middle" x="290.5" y="-183.56" font-family="Helvetica,sans-Serif" font-size="10.00">uint16_t</text>
</a>
</g>
</g>
<!-- Node25&#45;&gt;Node20 -->
<g id="edge32" class="edge">
<title>Node25&#45;&gt;Node20</title>
<path fill="none" stroke="#9a32cd" stroke-dasharray="5,2" d="M328.66,-185.8C385.75,-185.4 493.96,-184.64 546.65,-184.27"/>
<polygon fill="#9a32cd" stroke="#9a32cd" points="328.59,-182.3 318.62,-185.87 328.64,-189.3 328.59,-182.3"/>
<text text-anchor="middle" x="438.5" y="-189.06" font-family="Helvetica,sans-Serif" font-size="10.00"> discriminator</text>
</g>
<!-- Node26 -->
<g id="node26" class="node">
<title>Node26</title>
<g id="a_node26"><a xlink:title=" ">
<polygon fill="none" stroke="#bfbfbf" points="265.5,-138.56 265.5,-157.56 315.5,-157.56 315.5,-138.56 265.5,-138.56"/>
<text text-anchor="middle" x="290.5" y="-145.56" font-family="Helvetica,sans-Serif" font-size="10.00">uint8_t</text>
</a>
</g>
</g>
<!-- Node26&#45;&gt;Node20 -->
<g id="edge33" class="edge">
<title>Node26&#45;&gt;Node20</title>
<path fill="none" stroke="#9a32cd" stroke-dasharray="5,2" d="M325.58,-150.91C366.76,-154.54 438.13,-161.38 499,-170.06 514.8,-172.31 532.3,-175.4 546.71,-178.1"/>
<polygon fill="#9a32cd" stroke="#9a32cd" points="325.8,-147.42 315.53,-150.04 325.19,-154.39 325.8,-147.42"/>
<text text-anchor="middle" x="438.5" y="-173.06" font-family="Helvetica,sans-Serif" font-size="10.00"> refcount</text>
</g>
<!-- Node27 -->
<g id="node27" class="node">
<title>Node27</title>
<g id="a_node27"><a xlink:href="structdpp_1_1cache__policy__t.html" target="_top" xlink:title="Represents the caching policy of the cluster.">
<polygon fill="none" stroke="black" points="521.5,-319.56 521.5,-338.56 634.5,-338.56 634.5,-319.56 521.5,-319.56"/>
<text text-anchor="middle" x="578" y="-326.56" font-family="Helvetica,sans-Serif" font-size="10.00">dpp::cache_policy_t</text>
</a>
</g>
</g>
<!-- Node27&#45;&gt;Node17 -->
<g id="edge34" class="edge">
<title>Node27&#45;&gt;Node17</title>
<path fill="none" stroke="#9a32cd" stroke-dasharray="5,2" d="M644.96,-333.11C683.95,-336.31 734.13,-341.83 778,-351.06 796.26,-354.9 816.31,-361.22 831.7,-366.54"/>
<polygon fill="#9a32cd" stroke="#9a32cd" points="645.03,-329.61 634.79,-332.31 644.48,-336.59 645.03,-329.61"/>
<text text-anchor="middle" x="717.5" y="-354.06" font-family="Helvetica,sans-Serif" font-size="10.00"> cache_policy</text>
</g>
<!-- Node28 -->
<g id="node28" class="node">
<title>Node28</title>
<g id="a_node28"><a xlink:title=" ">
<polygon fill="none" stroke="#bfbfbf" points="226.5,-340.56 226.5,-359.56 354.5,-359.56 354.5,-340.56 226.5,-340.56"/>
<text text-anchor="middle" x="290.5" y="-347.56" font-family="Helvetica,sans-Serif" font-size="10.00">cache_policy_setting_t</text>
</a>
</g>
</g>
<!-- Node28&#45;&gt;Node27 -->
<g id="edge35" class="edge">
<title>Node28&#45;&gt;Node27</title>
<path fill="none" stroke="#9a32cd" stroke-dasharray="5,2" d="M332.77,-337.92C346.97,-334.31 363.06,-330.85 378,-329.06 426.2,-323.29 481.43,-323.85 521.46,-325.54"/>
<polygon fill="#9a32cd" stroke="#9a32cd" points="331.58,-334.61 322.8,-340.55 333.37,-341.38 331.58,-334.61"/>
<text text-anchor="middle" x="438.5" y="-354.06" font-family="Helvetica,sans-Serif" font-size="10.00"> emoji_policy</text>
<text text-anchor="middle" x="438.5" y="-343.06" font-family="Helvetica,sans-Serif" font-size="10.00">role_policy</text>
<text text-anchor="middle" x="438.5" y="-332.06" font-family="Helvetica,sans-Serif" font-size="10.00">user_policy</text>
</g>
<!-- Node29 -->
<g id="node29" class="node">
<title>Node29</title>
<g id="a_node29"><a xlink:title=" ">
<polygon fill="none" stroke="#bfbfbf" points="517,-461.56 517,-480.56 639,-480.56 639,-461.56 517,-461.56"/>
<text text-anchor="middle" x="578" y="-468.56" font-family="Helvetica,sans-Serif" font-size="10.00">websocket_protocol_t</text>
</a>
</g>
</g>
<!-- Node29&#45;&gt;Node5 -->
<g id="edge45" class="edge">
<title>Node29&#45;&gt;Node5</title>
<path fill="none" stroke="#9a32cd" stroke-dasharray="5,2" d="M649.45,-475C767.54,-482.34 1000,-500.13 1076,-530.06 1100.74,-539.8 1124.65,-560.32 1137.43,-572.47"/>
<polygon fill="#9a32cd" stroke="#9a32cd" points="649.61,-471.5 639.42,-474.38 649.19,-478.49 649.61,-471.5"/>
<text text-anchor="middle" x="858.5" y="-502.06" font-family="Helvetica,sans-Serif" font-size="10.00"> protocol</text>
</g>
<!-- Node29&#45;&gt;Node17 -->
<g id="edge36" class="edge">
<title>Node29&#45;&gt;Node17</title>
<path fill="none" stroke="#9a32cd" stroke-dasharray="5,2" d="M649.32,-461.18C688.32,-454.15 737.06,-442.73 778,-425.06 786.83,-421.25 787.88,-418.2 796,-413.06 811.16,-403.45 828.72,-392.95 841.19,-385.59"/>
<polygon fill="#9a32cd" stroke="#9a32cd" points="648.36,-457.79 639.11,-462.96 649.56,-464.69 648.36,-457.79"/>
<text text-anchor="middle" x="717.5" y="-462.06" font-family="Helvetica,sans-Serif" font-size="10.00"> ws_mode</text>
</g>
<!-- Node30 -->
<g id="node30" class="node">
<title>Node30</title>
<g id="a_node30"><a xlink:title=" ">
<polygon fill="none" stroke="#bfbfbf" points="530,-212.56 530,-231.56 626,-231.56 626,-212.56 530,-212.56"/>
<text text-anchor="middle" x="578" y="-219.56" font-family="Helvetica,sans-Serif" font-size="10.00">event_router_t&lt;</text>
</a>
</g>
</g>
<!-- Node30&#45;&gt;Node17 -->
<g id="edge37" class="edge">
<title>Node30&#45;&gt;Node17</title>
<path fill="none" stroke="#9a32cd" stroke-dasharray="5,2" d="M636.14,-211.37C686.46,-203.25 755.19,-195.69 778,-210.06 835.32,-246.16 852.22,-336.31 856.34,-366.23"/>
<polygon fill="#9a32cd" stroke="#9a32cd" points="635.31,-207.96 626.02,-213.05 636.46,-214.87 635.31,-207.96"/>
<text text-anchor="middle" x="717.5" y="-323.06" font-family="Helvetica,sans-Serif" font-size="10.00"> on_autocomplete</text>
<text text-anchor="middle" x="717.5" y="-312.06" font-family="Helvetica,sans-Serif" font-size="10.00">on_button_click</text>
<text text-anchor="middle" x="717.5" y="-301.06" font-family="Helvetica,sans-Serif" font-size="10.00">on_channel_create</text>
<text text-anchor="middle" x="717.5" y="-290.06" font-family="Helvetica,sans-Serif" font-size="10.00">on_channel_delete</text>
<text text-anchor="middle" x="717.5" y="-279.06" font-family="Helvetica,sans-Serif" font-size="10.00">on_channel_pins_update</text>
<text text-anchor="middle" x="717.5" y="-268.06" font-family="Helvetica,sans-Serif" font-size="10.00">on_channel_update</text>
<text text-anchor="middle" x="717.5" y="-257.06" font-family="Helvetica,sans-Serif" font-size="10.00">on_form_submit</text>
<text text-anchor="middle" x="717.5" y="-246.06" font-family="Helvetica,sans-Serif" font-size="10.00">on_guild_ban_add</text>
<text text-anchor="middle" x="717.5" y="-235.06" font-family="Helvetica,sans-Serif" font-size="10.00">on_guild_ban_remove</text>
<text text-anchor="middle" x="717.5" y="-224.06" font-family="Helvetica,sans-Serif" font-size="10.00">on_guild_create</text>
<text text-anchor="middle" x="717.5" y="-213.06" font-family="Helvetica,sans-Serif" font-size="10.00">...</text>
</g>
<!-- Node31 -->
<g id="node31" class="node">
<title>Node31</title>
<g id="a_node31"><a xlink:title=" ">
<polygon fill="none" stroke="#bfbfbf" points="802,-29.56 802,-48.56 915,-48.56 915,-29.56 802,-29.56"/>
<text text-anchor="middle" x="858.5" y="-36.56" font-family="Helvetica,sans-Serif" font-size="10.00">native_handle_type</text>
</a>
</g>
</g>
<!-- Node31&#45;&gt;Node5 -->
<g id="edge40" class="edge">
<title>Node31&#45;&gt;Node5</title>
<path fill="none" stroke="#9a32cd" stroke-dasharray="5,2" d="M902.6,-27.27C951.3,-16.81 1029.78,-9.1 1076,-52.06 1115.87,-89.11 1142.27,-503 1146.43,-572.25"/>
<polygon fill="#9a32cd" stroke="#9a32cd" points="901.66,-23.89 892.68,-29.52 903.21,-30.72 901.66,-23.89"/>
<text text-anchor="middle" x="1007.5" y="-55.06" font-family="Helvetica,sans-Serif" font-size="10.00"> thread_id</text>
</g>
<!-- Node32 -->
<g id="node32" class="node">
<title>Node32</title>
<g id="a_node32"><a xlink:title=" ">
<polygon fill="none" stroke="#bfbfbf" points="824,-869.56 824,-888.56 893,-888.56 893,-869.56 824,-869.56"/>
<text text-anchor="middle" x="858.5" y="-876.56" font-family="Helvetica,sans-Serif" font-size="10.00">std::mutex</text>
</a>
</g>
</g>
<!-- Node32&#45;&gt;Node5 -->
<g id="edge43" class="edge">
<title>Node32&#45;&gt;Node5</title>
<path fill="none" stroke="#9a32cd" stroke-dasharray="5,2" d="M903.47,-887.99C951.67,-895.05 1028.47,-897.88 1076,-857.06 1118.08,-820.91 1141.04,-635.87 1145.98,-591.59"/>
<polygon fill="#9a32cd" stroke="#9a32cd" points="903.77,-884.49 893.34,-886.38 902.67,-891.4 903.77,-884.49"/>
<text text-anchor="middle" x="1007.5" y="-896.06" font-family="Helvetica,sans-Serif" font-size="10.00"> voice_mutex</text>
</g>
<!-- Node33 -->
<g id="node33" class="node">
<title>Node33</title>
<g id="a_node33"><a xlink:title=" ">
<polygon fill="none" stroke="#bfbfbf" points="808,-831.56 808,-850.56 909,-850.56 909,-831.56 808,-831.56"/>
<text text-anchor="middle" x="858.5" y="-838.56" font-family="Helvetica,sans-Serif" font-size="10.00">unordered_map&lt;</text>
</a>
</g>
</g>
<!-- Node33&#45;&gt;Node5 -->
<g id="edge46" class="edge">
<title>Node33&#45;&gt;Node5</title>
<path fill="none" stroke="#9a32cd" stroke-dasharray="5,2" d="M919.14,-841.61C974.87,-840.89 1052.87,-836.3 1076,-817.06 1147.75,-757.36 1148.7,-627.82 1147.48,-591.62"/>
<polygon fill="#9a32cd" stroke="#9a32cd" points="918.97,-838.12 909.01,-841.71 919.04,-845.12 918.97,-838.12"/>
<text text-anchor="middle" x="1007.5" y="-845.06" font-family="Helvetica,sans-Serif" font-size="10.00"> connecting_voice_channels</text>
</g>
</g>
</svg>
