<?xml version="1.0" encoding="UTF-8" standalone="no"?>
<!DOCTYPE svg PUBLIC "-//W3C//DTD SVG 1.1//EN"
 "http://www.w3.org/Graphics/SVG/1.1/DTD/svg11.dtd">
<!-- Generated by graphviz version 2.38.0 (20140413.2041)
 -->
<!-- Title: dpp::voicestate Pages: 1 -->
<svg width="1171pt" height="1150pt"
 viewBox="0.00 0.00 1171.00 1149.98" xmlns="http://www.w3.org/2000/svg" xmlns:xlink="http://www.w3.org/1999/xlink">
<g id="graph0" class="graph" transform="scale(1 1) rotate(0) translate(4 1145.98)">
<title>dpp::voicestate</title>
<polygon fill="white" stroke="none" points="-4,4 -4,-1145.98 1167,-1145.98 1167,4 -4,4"/>
<!-- Node1 -->
<g id="node1" class="node"><title>Node1</title>
<g id="a_node1"><a xlink:title="Represents the voice state of a user on a guild These are stored in the dpp::guild object,...">
<polygon fill="#bfbfbf" stroke="black" points="1080,-984.977 1080,-1003.98 1163,-1003.98 1163,-984.977 1080,-984.977"/>
<text text-anchor="middle" x="1121.5" y="-991.977" font-family="Helvetica,sans-Serif" font-size="10.00">dpp::voicestate</text>
</a>
</g>
</g>
<!-- Node2 -->
<g id="node2" class="node"><title>Node2</title>
<g id="a_node2"><a xlink:href="classdpp_1_1discord__client.html" target="_top" xlink:title="Implements a discord client. Each discord_client connects to one shard and derives from a websocket c...">
<polygon fill="white" stroke="black" points="918,-800.977 918,-819.977 1016,-819.977 1016,-800.977 918,-800.977"/>
<text text-anchor="middle" x="967" y="-807.977" font-family="Helvetica,sans-Serif" font-size="10.00">dpp::discord_client</text>
</a>
</g>
</g>
<!-- Node2&#45;&gt;Node1 -->
<g id="edge1" class="edge"><title>Node2&#45;&gt;Node1</title>
<path fill="none" stroke="#9a32cd" stroke-dasharray="5,2" d="M982.758,-828.283C1014.49,-866.571 1088.31,-955.632 1112.59,-984.939"/>
<polygon fill="#9a32cd" stroke="#9a32cd" points="985.06,-825.577 975.984,-820.111 979.671,-830.044 985.06,-825.577"/>
<text text-anchor="middle" x="1048" y="-922.477" font-family="Helvetica,sans-Serif" font-size="10.00"> shard</text>
</g>
<!-- Node3 -->
<g id="node3" class="node"><title>Node3</title>
<g id="a_node3"><a xlink:href="classdpp_1_1websocket__client.html" target="_top" xlink:title="Implements a websocket client based on the SSL client.">
<polygon fill="white" stroke="black" points="644,-779.977 644,-798.977 758,-798.977 758,-779.977 644,-779.977"/>
<text text-anchor="middle" x="701" y="-786.977" font-family="Helvetica,sans-Serif" font-size="10.00">dpp::websocket_client</text>
</a>
</g>
</g>
<!-- Node3&#45;&gt;Node2 -->
<g id="edge2" class="edge"><title>Node3&#45;&gt;Node2</title>
<path fill="none" stroke="midnightblue" d="M768.294,-794.75C814.775,-798.448 875.848,-803.306 917.746,-806.639"/>
<polygon fill="midnightblue" stroke="midnightblue" points="768.557,-791.26 758.311,-793.956 768.002,-798.238 768.557,-791.26"/>
</g>
<!-- Node4 -->
<g id="node4" class="node"><title>Node4</title>
<g id="a_node4"><a xlink:href="classdpp_1_1ssl__client.html" target="_top" xlink:title="Implements a simple non&#45;blocking SSL stream client.">
<polygon fill="white" stroke="black" points="433,-785.977 433,-804.977 513,-804.977 513,-785.977 433,-785.977"/>
<text text-anchor="middle" x="473" y="-792.977" font-family="Helvetica,sans-Serif" font-size="10.00">dpp::ssl_client</text>
</a>
</g>
</g>
<!-- Node4&#45;&gt;Node3 -->
<g id="edge3" class="edge"><title>Node4&#45;&gt;Node3</title>
<path fill="none" stroke="midnightblue" d="M523.222,-794.17C558.68,-793.229 606.596,-791.957 643.597,-790.975"/>
<polygon fill="midnightblue" stroke="midnightblue" points="523.012,-790.675 513.108,-794.439 523.198,-797.672 523.012,-790.675"/>
</g>
<!-- Node5 -->
<g id="node5" class="node"><title>Node5</title>
<g id="a_node5"><a xlink:title=" ">
<polygon fill="white" stroke="#bfbfbf" points="191,-970.977 191,-989.977 251,-989.977 251,-970.977 191,-970.977"/>
<text text-anchor="middle" x="221" y="-977.977" font-family="Helvetica,sans-Serif" font-size="10.00">std::string</text>
</a>
</g>
</g>
<!-- Node5&#45;&gt;Node1 -->
<g id="edge40" class="edge"><title>Node5&#45;&gt;Node1</title>
<path fill="none" stroke="#9a32cd" stroke-dasharray="5,2" d="M260.857,-991.594C340.517,-1014 520.165,-1062.48 583.5,-1062.48 583.5,-1062.48 583.5,-1062.48 968,-1062.48 1024.53,-1062.48 1083.42,-1023.02 1108.28,-1004.22"/>
<polygon fill="#9a32cd" stroke="#9a32cd" points="261.776,-988.216 251.201,-988.867 259.874,-994.953 261.776,-988.216"/>
<text text-anchor="middle" x="701" y="-1065.48" font-family="Helvetica,sans-Serif" font-size="10.00"> session_id</text>
</g>
<!-- Node5&#45;&gt;Node2 -->
<g id="edge34" class="edge"><title>Node5&#45;&gt;Node2</title>
<path fill="none" stroke="#9a32cd" stroke-dasharray="5,2" d="M261.436,-980.66C402.278,-981.16 873.513,-981.476 900,-963.477 950.247,-929.333 962.47,-848.251 965.24,-820.215"/>
<polygon fill="#9a32cd" stroke="#9a32cd" points="261.128,-977.158 251.115,-980.62 261.102,-984.158 261.128,-977.158"/>
<text text-anchor="middle" x="584.5" y="-994.477" font-family="Helvetica,sans-Serif" font-size="10.00"> sessionid</text>
<text text-anchor="middle" x="584.5" y="-983.477" font-family="Helvetica,sans-Serif" font-size="10.00">token</text>
</g>
<!-- Node5&#45;&gt;Node4 -->
<g id="edge4" class="edge"><title>Node5&#45;&gt;Node4</title>
<path fill="none" stroke="#9a32cd" stroke-dasharray="5,2" d="M233.436,-962.477C246.466,-943.516 269.547,-914.262 297,-898.477 338.792,-874.448 361.563,-900.112 403,-875.477 432.954,-857.669 456.453,-822.227 466.579,-805.136"/>
<polygon fill="#9a32cd" stroke="#9a32cd" points="230.489,-960.588 227.872,-970.855 236.32,-964.461 230.489,-960.588"/>
<text text-anchor="middle" x="350" y="-945.477" font-family="Helvetica,sans-Serif" font-size="10.00"> buffer</text>
<text text-anchor="middle" x="350" y="-934.477" font-family="Helvetica,sans-Serif" font-size="10.00">cipher</text>
<text text-anchor="middle" x="350" y="-923.477" font-family="Helvetica,sans-Serif" font-size="10.00">hostname</text>
<text text-anchor="middle" x="350" y="-912.477" font-family="Helvetica,sans-Serif" font-size="10.00">obuffer</text>
<text text-anchor="middle" x="350" y="-901.477" font-family="Helvetica,sans-Serif" font-size="10.00">port</text>
</g>
<!-- Node14 -->
<g id="node14" class="node"><title>Node14</title>
<g id="a_node14"><a xlink:href="classdpp_1_1cluster.html" target="_top" xlink:title="The cluster class represents a group of shards and a command queue for sending and receiving commands...">
<polygon fill="white" stroke="black" points="667,-424.977 667,-443.977 735,-443.977 735,-424.977 667,-424.977"/>
<text text-anchor="middle" x="701" y="-431.977" font-family="Helvetica,sans-Serif" font-size="10.00">dpp::cluster</text>
</a>
</g>
</g>
<!-- Node5&#45;&gt;Node14 -->
<g id="edge14" class="edge"><title>Node5&#45;&gt;Node14</title>
<path fill="none" stroke="#9a32cd" stroke-dasharray="5,2" d="M261.461,-982.203C299.873,-982.197 358.764,-977.601 403,-953.477 475.165,-914.123 492.658,-890.045 525,-814.477 560.639,-731.207 507.144,-694.654 543,-611.477 560.318,-571.305 657.505,-475.449 689.665,-444.381"/>
<polygon fill="#9a32cd" stroke="#9a32cd" points="261.236,-978.7 251.199,-982.095 261.162,-985.7 261.236,-978.7"/>
<text text-anchor="middle" x="473" y="-945.477" font-family="Helvetica,sans-Serif" font-size="10.00"> token</text>
</g>
<!-- Node17 -->
<g id="node17" class="node"><title>Node17</title>
<g id="a_node17"><a xlink:href="classdpp_1_1user.html" target="_top" xlink:title="Represents a user on discord. May or may not be a member of a dpp::guild.">
<polygon fill="white" stroke="black" points="444.5,-339.977 444.5,-358.977 501.5,-358.977 501.5,-339.977 444.5,-339.977"/>
<text text-anchor="middle" x="473" y="-346.977" font-family="Helvetica,sans-Serif" font-size="10.00">dpp::user</text>
</a>
</g>
</g>
<!-- Node5&#45;&gt;Node17 -->
<g id="edge22" class="edge"><title>Node5&#45;&gt;Node17</title>
<path fill="none" stroke="#9a32cd" stroke-dasharray="5,2" d="M237.169,-962.838C250.927,-945.65 270.339,-918.132 279,-890.477 293.092,-845.479 273.9,-507.585 297,-466.477 314.948,-434.536 412.128,-380.859 453.422,-359.086"/>
<polygon fill="#9a32cd" stroke="#9a32cd" points="234.239,-960.889 230.577,-970.831 239.64,-965.343 234.239,-960.889"/>
<text text-anchor="middle" x="350" y="-469.477" font-family="Helvetica,sans-Serif" font-size="10.00"> username</text>
</g>
<!-- Node6 -->
<g id="node6" class="node"><title>Node6</title>
<g id="a_node6"><a xlink:title=" ">
<polygon fill="white" stroke="#bfbfbf" points="0,-1111.48 0,-1141.48 95,-1141.48 95,-1111.48 0,-1111.48"/>
<text text-anchor="start" x="8" y="-1129.48" font-family="Helvetica,sans-Serif" font-size="10.00">std::basic_string&lt;</text>
<text text-anchor="middle" x="47.5" y="-1118.48" font-family="Helvetica,sans-Serif" font-size="10.00"> Char &gt;</text>
</a>
</g>
</g>
<!-- Node6&#45;&gt;Node5 -->
<g id="edge5" class="edge"><title>Node6&#45;&gt;Node5</title>
<path fill="none" stroke="midnightblue" d="M74.2486,-1104.56C112.208,-1072.24 181.615,-1013.15 208.727,-990.074"/>
<polygon fill="midnightblue" stroke="midnightblue" points="71.5532,-1102.26 66.2076,-1111.4 76.0909,-1107.59 71.5532,-1102.26"/>
</g>
<!-- Node7 -->
<g id="node7" class="node"><title>Node7</title>
<g id="a_node7"><a xlink:title=" ">
<polygon fill="white" stroke="#bfbfbf" points="203.5,-1046.98 203.5,-1065.98 238.5,-1065.98 238.5,-1046.98 203.5,-1046.98"/>
<text text-anchor="middle" x="221" y="-1053.98" font-family="Helvetica,sans-Serif" font-size="10.00">bool</text>
</a>
</g>
</g>
<!-- Node7&#45;&gt;Node2 -->
<g id="edge37" class="edge"><title>Node7&#45;&gt;Node2</title>
<path fill="none" stroke="#9a32cd" stroke-dasharray="5,2" d="M248.539,-1056.17C283.907,-1055.49 348.384,-1053.34 403,-1046.48 503.234,-1033.88 556.135,-1075.44 626,-1002.48 662.689,-964.159 607.058,-922.552 644,-884.477 684.277,-842.965 844.493,-853.736 900,-837.477 915.802,-832.849 932.999,-825.742 945.876,-819.981"/>
<polygon fill="#9a32cd" stroke="#9a32cd" points="248.481,-1052.67 238.54,-1056.33 248.597,-1059.67 248.481,-1052.67"/>
<text text-anchor="middle" x="584.5" y="-1049.48" font-family="Helvetica,sans-Serif" font-size="10.00"> ready</text>
</g>
<!-- Node7&#45;&gt;Node4 -->
<g id="edge6" class="edge"><title>Node7&#45;&gt;Node4</title>
<path fill="none" stroke="#9a32cd" stroke-dasharray="5,2" d="M248.475,-1049.72C288.573,-1038.04 364.135,-1010.11 403,-957.477 426.713,-925.362 405.359,-906.206 421,-869.477 431.759,-844.212 451.83,-818.71 463.324,-805.238"/>
<polygon fill="#9a32cd" stroke="#9a32cd" points="247.318,-1046.41 238.627,-1052.47 249.2,-1053.15 247.318,-1046.41"/>
<text text-anchor="middle" x="350" y="-1034.48" font-family="Helvetica,sans-Serif" font-size="10.00"> nonblocking</text>
</g>
<!-- Node8 -->
<g id="node8" class="node"><title>Node8</title>
<g id="a_node8"><a xlink:title=" ">
<polygon fill="white" stroke="#bfbfbf" points="206.5,-861.977 206.5,-880.977 235.5,-880.977 235.5,-861.977 206.5,-861.977"/>
<text text-anchor="middle" x="221" y="-868.977" font-family="Helvetica,sans-Serif" font-size="10.00">int</text>
</a>
</g>
</g>
<!-- Node8&#45;&gt;Node4 -->
<g id="edge7" class="edge"><title>Node8&#45;&gt;Node4</title>
<path fill="none" stroke="#9a32cd" stroke-dasharray="5,2" d="M245.929,-869.981C281.322,-867.14 349.232,-859.259 403,-838.477 424.329,-830.234 446.294,-815.204 459.55,-805.278"/>
<polygon fill="#9a32cd" stroke="#9a32cd" points="245.357,-866.514 235.64,-870.737 245.87,-873.495 245.357,-866.514"/>
<text text-anchor="middle" x="350" y="-867.477" font-family="Helvetica,sans-Serif" font-size="10.00"> sfd</text>
</g>
<!-- Node9 -->
<g id="node9" class="node"><title>Node9</title>
<g id="a_node9"><a xlink:title=" ">
<polygon fill="white" stroke="#bfbfbf" points="200,-823.977 200,-842.977 242,-842.977 242,-823.977 200,-823.977"/>
<text text-anchor="middle" x="221" y="-830.977" font-family="Helvetica,sans-Serif" font-size="10.00">SSL *</text>
</a>
</g>
</g>
<!-- Node9&#45;&gt;Node4 -->
<g id="edge8" class="edge"><title>Node9&#45;&gt;Node4</title>
<path fill="none" stroke="#9a32cd" stroke-dasharray="5,2" d="M252.425,-829.386C288.425,-824.481 350.15,-815.867 403,-807.477 412.727,-805.933 423.206,-804.165 432.988,-802.469"/>
<polygon fill="#9a32cd" stroke="#9a32cd" points="251.556,-825.972 242.117,-830.785 252.497,-832.908 251.556,-825.972"/>
<text text-anchor="middle" x="350" y="-826.477" font-family="Helvetica,sans-Serif" font-size="10.00"> ssl</text>
</g>
<!-- Node10 -->
<g id="node10" class="node"><title>Node10</title>
<g id="a_node10"><a xlink:title=" ">
<polygon fill="white" stroke="#bfbfbf" points="187,-785.977 187,-804.977 255,-804.977 255,-785.977 187,-785.977"/>
<text text-anchor="middle" x="221" y="-792.977" font-family="Helvetica,sans-Serif" font-size="10.00">SSL_CTX *</text>
</a>
</g>
</g>
<!-- Node10&#45;&gt;Node4 -->
<g id="edge9" class="edge"><title>Node10&#45;&gt;Node4</title>
<path fill="none" stroke="#9a32cd" stroke-dasharray="5,2" d="M265.415,-795.477C312.638,-795.477 387.445,-795.477 432.901,-795.477"/>
<polygon fill="#9a32cd" stroke="#9a32cd" points="265.198,-791.977 255.198,-795.477 265.198,-798.977 265.198,-791.977"/>
<text text-anchor="middle" x="350" y="-798.477" font-family="Helvetica,sans-Serif" font-size="10.00"> ctx</text>
</g>
<!-- Node11 -->
<g id="node11" class="node"><title>Node11</title>
<g id="a_node11"><a xlink:title=" ">
<polygon fill="white" stroke="#bfbfbf" points="199,-449.977 199,-468.977 243,-468.977 243,-449.977 199,-449.977"/>
<text text-anchor="middle" x="221" y="-456.977" font-family="Helvetica,sans-Serif" font-size="10.00">time_t</text>
</a>
</g>
</g>
<!-- Node11&#45;&gt;Node2 -->
<g id="edge31" class="edge"><title>Node11&#45;&gt;Node2</title>
<path fill="none" stroke="#9a32cd" stroke-dasharray="5,2" d="M253.102,-457.758C309.384,-455.741 431.005,-456.443 525,-492.477 548.73,-501.575 879.872,-738.961 900,-754.477 919.994,-769.89 942.17,-789.191 955.053,-800.639"/>
<polygon fill="#9a32cd" stroke="#9a32cd" points="252.907,-454.263 243.06,-458.173 253.196,-461.257 252.907,-454.263"/>
<text text-anchor="middle" x="584.5" y="-572.477" font-family="Helvetica,sans-Serif" font-size="10.00"> last_heartbeat</text>
<text text-anchor="middle" x="584.5" y="-561.477" font-family="Helvetica,sans-Serif" font-size="10.00">last_heartbeat_ack</text>
</g>
<!-- Node11&#45;&gt;Node4 -->
<g id="edge10" class="edge"><title>Node11&#45;&gt;Node4</title>
<path fill="none" stroke="#9a32cd" stroke-dasharray="5,2" d="M232.25,-478.24C244.625,-501.47 265.456,-542.501 279,-579.477 289.753,-608.833 274.206,-626.08 297,-647.477 332.016,-680.347 364.316,-640.014 403,-668.477 444.231,-698.814 463.566,-761.448 469.719,-785.641"/>
<polygon fill="#9a32cd" stroke="#9a32cd" points="235.187,-476.312 227.363,-469.167 229.024,-479.631 235.187,-476.312"/>
<text text-anchor="middle" x="350" y="-671.477" font-family="Helvetica,sans-Serif" font-size="10.00"> last_tick</text>
</g>
<!-- Node11&#45;&gt;Node14 -->
<g id="edge15" class="edge"><title>Node11&#45;&gt;Node14</title>
<path fill="none" stroke="#9a32cd" stroke-dasharray="5,2" d="M253.407,-454.078C266.8,-451.982 282.625,-449.777 297,-448.477 433.831,-436.105 597.707,-434.474 666.749,-434.387"/>
<polygon fill="#9a32cd" stroke="#9a32cd" points="252.576,-450.667 243.262,-455.717 253.692,-457.578 252.576,-450.667"/>
<text text-anchor="middle" x="473" y="-443.477" font-family="Helvetica,sans-Serif" font-size="10.00"> last_identify</text>
</g>
<!-- Node12 -->
<g id="node12" class="node"><title>Node12</title>
<g id="a_node12"><a xlink:title=" ">
<polygon fill="white" stroke="#bfbfbf" points="22,-388.977 22,-407.977 73,-407.977 73,-388.977 22,-388.977"/>
<text text-anchor="middle" x="47.5" y="-395.977" font-family="Helvetica,sans-Serif" font-size="10.00">uint64_t</text>
</a>
</g>
</g>
<!-- Node12&#45;&gt;Node1 -->
<g id="edge39" class="edge"><title>Node12&#45;&gt;Node1</title>
<path fill="none" stroke="#9a32cd" stroke-dasharray="5,2" d="M49.4007,-418.426C54.292,-518.82 80.5577,-968.191 163,-1075.48 179.966,-1097.56 192.156,-1101.48 220,-1101.48 220,-1101.48 220,-1101.48 968,-1101.48 1035.27,-1101.48 1093.9,-1030.84 1113.52,-1004.35"/>
<polygon fill="#9a32cd" stroke="#9a32cd" points="52.885,-418.01 48.918,-408.185 45.8928,-418.339 52.885,-418.01"/>
<text text-anchor="middle" x="584.5" y="-1126.48" font-family="Helvetica,sans-Serif" font-size="10.00"> channel_id</text>
<text text-anchor="middle" x="584.5" y="-1115.48" font-family="Helvetica,sans-Serif" font-size="10.00">guild_id</text>
<text text-anchor="middle" x="584.5" y="-1104.48" font-family="Helvetica,sans-Serif" font-size="10.00">user_id</text>
</g>
<!-- Node12&#45;&gt;Node2 -->
<g id="edge33" class="edge"><title>Node12&#45;&gt;Node2</title>
<path fill="none" stroke="#9a32cd" stroke-dasharray="5,2" d="M48.9643,-378.507C51.47,-322.36 67.0929,-162.702 163,-93.4771 377.696,61.4888 525.783,3.73944 758,-123.477 840.225,-168.523 860.826,-194.298 900,-279.477 945.22,-377.802 962.799,-737.017 965.593,-800.77"/>
<polygon fill="#9a32cd" stroke="#9a32cd" points="45.4544,-378.732 48.6045,-388.847 52.4502,-378.975 45.4544,-378.732"/>
<text text-anchor="middle" x="473" y="-20.4771" font-family="Helvetica,sans-Serif" font-size="10.00"> last_seq</text>
</g>
<!-- Node12&#45;&gt;Node4 -->
<g id="edge11" class="edge"><title>Node12&#45;&gt;Node4</title>
<path fill="none" stroke="#9a32cd" stroke-dasharray="5,2" d="M55.2899,-417.55C78.1407,-478.568 158.676,-669.603 297,-748.477 339.905,-772.942 396.004,-785.077 432.977,-790.803"/>
<polygon fill="#9a32cd" stroke="#9a32cd" points="58.5241,-416.204 51.7977,-408.018 51.9513,-418.612 58.5241,-416.204"/>
<text text-anchor="middle" x="221" y="-749.477" font-family="Helvetica,sans-Serif" font-size="10.00"> bytes_in</text>
<text text-anchor="middle" x="221" y="-738.477" font-family="Helvetica,sans-Serif" font-size="10.00">bytes_out</text>
</g>
<!-- Node18 -->
<g id="node18" class="node"><title>Node18</title>
<g id="a_node18"><a xlink:href="classdpp_1_1managed.html" target="_top" xlink:title="The managed class is the base class for various types that can be stored in a cache that are identifi...">
<polygon fill="white" stroke="black" points="182,-385.977 182,-404.977 260,-404.977 260,-385.977 182,-385.977"/>
<text text-anchor="middle" x="221" y="-392.977" font-family="Helvetica,sans-Serif" font-size="10.00">dpp::managed</text>
</a>
</g>
</g>
<!-- Node12&#45;&gt;Node18 -->
<g id="edge21" class="edge"><title>Node12&#45;&gt;Node18</title>
<path fill="none" stroke="#9a32cd" stroke-dasharray="5,2" d="M83.4084,-397.866C112.012,-397.366 152.428,-396.659 181.874,-396.144"/>
<polygon fill="#9a32cd" stroke="#9a32cd" points="83.009,-394.373 73.0718,-398.047 83.1315,-401.372 83.009,-394.373"/>
<text text-anchor="middle" x="129" y="-400.477" font-family="Helvetica,sans-Serif" font-size="10.00"> id</text>
</g>
<!-- Node20 -->
<g id="node20" class="node"><title>Node20</title>
<g id="a_node20"><a xlink:href="structdpp_1_1utility_1_1iconhash.html" target="_top" xlink:title="Store a 128 bit icon hash (profile picture, server icon etc) as a 128 bit binary value made of two ui...">
<polygon fill="white" stroke="black" points="167.5,-343.977 167.5,-362.977 274.5,-362.977 274.5,-343.977 167.5,-343.977"/>
<text text-anchor="middle" x="221" y="-350.977" font-family="Helvetica,sans-Serif" font-size="10.00">dpp::utility::iconhash</text>
</a>
</g>
</g>
<!-- Node12&#45;&gt;Node20 -->
<g id="edge25" class="edge"><title>Node12&#45;&gt;Node20</title>
<path fill="none" stroke="#9a32cd" stroke-dasharray="5,2" d="M77.2496,-384.777C88.2344,-379.988 101.004,-374.947 113,-371.477 130.462,-366.426 149.964,-362.626 167.486,-359.85"/>
<polygon fill="#9a32cd" stroke="#9a32cd" points="75.8098,-381.586 68.12,-388.875 78.6764,-387.973 75.8098,-381.586"/>
<text text-anchor="middle" x="129" y="-385.477" font-family="Helvetica,sans-Serif" font-size="10.00"> first</text>
<text text-anchor="middle" x="129" y="-374.477" font-family="Helvetica,sans-Serif" font-size="10.00">second</text>
</g>
<!-- Node13 -->
<g id="node13" class="node"><title>Node13</title>
<g id="a_node13"><a xlink:title=" ">
<polygon fill="white" stroke="#bfbfbf" points="192.5,-588.977 192.5,-607.977 249.5,-607.977 249.5,-588.977 192.5,-588.977"/>
<text text-anchor="middle" x="221" y="-595.977" font-family="Helvetica,sans-Serif" font-size="10.00">function&lt;</text>
</a>
</g>
</g>
<!-- Node13&#45;&gt;Node4 -->
<g id="edge12" class="edge"><title>Node13&#45;&gt;Node4</title>
<path fill="none" stroke="#9a32cd" stroke-dasharray="5,2" d="M233.384,-616.698C246.369,-635.892 269.412,-665.504 297,-681.477 338.719,-705.632 362.358,-678.55 403,-704.477 435.427,-725.164 458.332,-766.757 467.525,-785.69"/>
<polygon fill="#9a32cd" stroke="#9a32cd" points="236.242,-614.674 227.841,-608.218 230.382,-618.503 236.242,-614.674"/>
<text text-anchor="middle" x="350" y="-740.477" font-family="Helvetica,sans-Serif" font-size="10.00"> custom_readable_fd</text>
<text text-anchor="middle" x="350" y="-729.477" font-family="Helvetica,sans-Serif" font-size="10.00">custom_readable_ready</text>
<text text-anchor="middle" x="350" y="-718.477" font-family="Helvetica,sans-Serif" font-size="10.00">custom_writeable_fd</text>
<text text-anchor="middle" x="350" y="-707.477" font-family="Helvetica,sans-Serif" font-size="10.00">custom_writeable_ready</text>
</g>
<!-- Node16 -->
<g id="node16" class="node"><title>Node16</title>
<g id="a_node16"><a xlink:href="classdpp_1_1dispatcher.html" target="_top" xlink:title="The dispatcher class contains a set of std::functions representing hooked events that the user code i...">
<polygon fill="white" stroke="black" points="431.5,-501.977 431.5,-520.977 514.5,-520.977 514.5,-501.977 431.5,-501.977"/>
<text text-anchor="middle" x="473" y="-508.977" font-family="Helvetica,sans-Serif" font-size="10.00">dpp::dispatcher</text>
</a>
</g>
</g>
<!-- Node13&#45;&gt;Node16 -->
<g id="edge18" class="edge"><title>Node13&#45;&gt;Node16</title>
<path fill="none" stroke="#9a32cd" stroke-dasharray="5,2" d="M229.147,-579.356C239.672,-554.321 261.967,-511.506 297,-493.477 346.969,-467.762 415.513,-488.311 450.116,-501.904"/>
<polygon fill="#9a32cd" stroke="#9a32cd" points="225.805,-578.288 225.354,-588.873 232.307,-580.879 225.805,-578.288"/>
<text text-anchor="start" x="301" y="-639.477" font-family="Helvetica,sans-Serif" font-size="10.00"> application_command</text>
<text text-anchor="middle" x="350" y="-628.477" font-family="Helvetica,sans-Serif" font-size="10.00">_create</text>
<text text-anchor="start" x="301" y="-617.477" font-family="Helvetica,sans-Serif" font-size="10.00">application_command</text>
<text text-anchor="middle" x="350" y="-606.477" font-family="Helvetica,sans-Serif" font-size="10.00">_delete</text>
<text text-anchor="start" x="301" y="-595.477" font-family="Helvetica,sans-Serif" font-size="10.00">application_command</text>
<text text-anchor="middle" x="350" y="-584.477" font-family="Helvetica,sans-Serif" font-size="10.00">_update</text>
<text text-anchor="middle" x="350" y="-573.477" font-family="Helvetica,sans-Serif" font-size="10.00">button_click</text>
<text text-anchor="middle" x="350" y="-562.477" font-family="Helvetica,sans-Serif" font-size="10.00">channel_create</text>
<text text-anchor="middle" x="350" y="-551.477" font-family="Helvetica,sans-Serif" font-size="10.00">channel_delete</text>
<text text-anchor="middle" x="350" y="-540.477" font-family="Helvetica,sans-Serif" font-size="10.00">channel_pins_update</text>
<text text-anchor="middle" x="350" y="-529.477" font-family="Helvetica,sans-Serif" font-size="10.00">channel_update</text>
<text text-anchor="middle" x="350" y="-518.477" font-family="Helvetica,sans-Serif" font-size="10.00">guild_ban_add</text>
<text text-anchor="middle" x="350" y="-507.477" font-family="Helvetica,sans-Serif" font-size="10.00">guild_ban_remove</text>
<text text-anchor="middle" x="350" y="-496.477" font-family="Helvetica,sans-Serif" font-size="10.00">...</text>
</g>
<!-- Node14&#45;&gt;Node2 -->
<g id="edge13" class="edge"><title>Node14&#45;&gt;Node2</title>
<path fill="none" stroke="#9a32cd" stroke-dasharray="5,2" d="M726.955,-449.475C768.771,-475.853 853.018,-534.537 900,-605.477 943.974,-671.875 960.463,-769.699 964.761,-800.689"/>
<polygon fill="#9a32cd" stroke="#9a32cd" points="728.571,-446.358 718.23,-444.053 724.876,-452.304 728.571,-446.358"/>
<text text-anchor="middle" x="838" y="-608.477" font-family="Helvetica,sans-Serif" font-size="10.00"> creator</text>
</g>
<!-- Node15 -->
<g id="node15" class="node"><title>Node15</title>
<g id="a_node15"><a xlink:title=" ">
<polygon fill="white" stroke="#bfbfbf" points="195.5,-204.977 195.5,-223.977 246.5,-223.977 246.5,-204.977 195.5,-204.977"/>
<text text-anchor="middle" x="221" y="-211.977" font-family="Helvetica,sans-Serif" font-size="10.00">uint32_t</text>
</a>
</g>
</g>
<!-- Node15&#45;&gt;Node2 -->
<g id="edge30" class="edge"><title>Node15&#45;&gt;Node2</title>
<path fill="none" stroke="#9a32cd" stroke-dasharray="5,2" d="M256.503,-208.046C341.734,-192.798 560.087,-157.806 626,-186.477 789.791,-257.724 818.503,-321.537 900,-480.477 959.314,-596.155 965.38,-760.036 965.952,-800.946"/>
<polygon fill="#9a32cd" stroke="#9a32cd" points="255.772,-204.621 246.554,-209.845 257.017,-211.51 255.772,-204.621"/>
<text text-anchor="middle" x="584.5" y="-244.477" font-family="Helvetica,sans-Serif" font-size="10.00"> heartbeat_interval</text>
<text text-anchor="middle" x="584.5" y="-233.477" font-family="Helvetica,sans-Serif" font-size="10.00">intents</text>
<text text-anchor="middle" x="584.5" y="-222.477" font-family="Helvetica,sans-Serif" font-size="10.00">max_shards</text>
<text text-anchor="middle" x="584.5" y="-211.477" font-family="Helvetica,sans-Serif" font-size="10.00">reconnects</text>
<text text-anchor="middle" x="584.5" y="-200.477" font-family="Helvetica,sans-Serif" font-size="10.00">resumes</text>
<text text-anchor="middle" x="584.5" y="-189.477" font-family="Helvetica,sans-Serif" font-size="10.00">shard_id</text>
</g>
<!-- Node15&#45;&gt;Node14 -->
<g id="edge16" class="edge"><title>Node15&#45;&gt;Node14</title>
<path fill="none" stroke="#9a32cd" stroke-dasharray="5,2" d="M257.018,-213.437C293.948,-213.202 353.523,-215.289 403,-228.477 535.183,-263.71 657.614,-388.32 691.048,-424.537"/>
<polygon fill="#9a32cd" stroke="#9a32cd" points="256.73,-209.94 246.775,-213.566 256.818,-216.939 256.73,-209.94"/>
<text text-anchor="middle" x="473" y="-318.477" font-family="Helvetica,sans-Serif" font-size="10.00"> cluster_id</text>
<text text-anchor="middle" x="473" y="-307.477" font-family="Helvetica,sans-Serif" font-size="10.00">intents</text>
<text text-anchor="middle" x="473" y="-296.477" font-family="Helvetica,sans-Serif" font-size="10.00">maxclusters</text>
<text text-anchor="middle" x="473" y="-285.477" font-family="Helvetica,sans-Serif" font-size="10.00">numshards</text>
</g>
<!-- Node15&#45;&gt;Node17 -->
<g id="edge26" class="edge"><title>Node15&#45;&gt;Node17</title>
<path fill="none" stroke="#9a32cd" stroke-dasharray="5,2" d="M245.771,-229.7C260.323,-238.775 279.458,-250.282 297,-259.477 342.805,-283.488 357.272,-283.321 403,-307.477 422.344,-317.696 443.735,-331.057 457.495,-339.936"/>
<polygon fill="#9a32cd" stroke="#9a32cd" points="247.26,-226.501 236.933,-224.135 243.531,-232.425 247.26,-226.501"/>
<text text-anchor="middle" x="350" y="-310.477" font-family="Helvetica,sans-Serif" font-size="10.00"> flags</text>
</g>
<!-- Node16&#45;&gt;Node14 -->
<g id="edge17" class="edge"><title>Node16&#45;&gt;Node14</title>
<path fill="none" stroke="#9a32cd" stroke-dasharray="5,2" d="M511.883,-498.57C557.043,-483.184 631.463,-457.828 671.835,-444.073"/>
<polygon fill="#9a32cd" stroke="#9a32cd" points="510.503,-495.343 502.166,-501.881 512.761,-501.969 510.503,-495.343"/>
<text text-anchor="middle" x="584.5" y="-490.477" font-family="Helvetica,sans-Serif" font-size="10.00"> dispatch</text>
</g>
<!-- Node17&#45;&gt;Node14 -->
<g id="edge19" class="edge"><title>Node17&#45;&gt;Node14</title>
<path fill="none" stroke="#9a32cd" stroke-dasharray="5,2" d="M509.008,-362.644C554.848,-379.885 634.121,-409.7 674.607,-424.927"/>
<polygon fill="#9a32cd" stroke="#9a32cd" points="510.078,-359.307 499.486,-359.062 507.614,-365.859 510.078,-359.307"/>
<text text-anchor="middle" x="584.5" y="-408.477" font-family="Helvetica,sans-Serif" font-size="10.00"> me</text>
</g>
<!-- Node18&#45;&gt;Node17 -->
<g id="edge20" class="edge"><title>Node18&#45;&gt;Node17</title>
<path fill="none" stroke="midnightblue" d="M270.178,-386.612C321.866,-377.102 402.179,-362.324 444.212,-354.59"/>
<polygon fill="midnightblue" stroke="midnightblue" points="269.443,-383.189 260.242,-388.441 270.71,-390.073 269.443,-383.189"/>
</g>
<!-- Node19 -->
<g id="node19" class="node"><title>Node19</title>
<g id="a_node19"><a xlink:title=" ">
<polygon fill="white" stroke="#bfbfbf" points="195.5,-305.977 195.5,-324.977 246.5,-324.977 246.5,-305.977 195.5,-305.977"/>
<text text-anchor="middle" x="221" y="-312.977" font-family="Helvetica,sans-Serif" font-size="10.00">uint16_t</text>
</a>
</g>
</g>
<!-- Node19&#45;&gt;Node17 -->
<g id="edge23" class="edge"><title>Node19&#45;&gt;Node17</title>
<path fill="none" stroke="#9a32cd" stroke-dasharray="5,2" d="M256.843,-317.996C293.399,-320.904 352.46,-326.356 403,-334.477 416.677,-336.675 431.724,-339.855 444.266,-342.722"/>
<polygon fill="#9a32cd" stroke="#9a32cd" points="256.946,-314.493 246.705,-317.209 256.404,-321.472 256.946,-314.493"/>
<text text-anchor="middle" x="350" y="-337.477" font-family="Helvetica,sans-Serif" font-size="10.00"> discriminator</text>
</g>
<!-- Node20&#45;&gt;Node17 -->
<g id="edge24" class="edge"><title>Node20&#45;&gt;Node17</title>
<path fill="none" stroke="#9a32cd" stroke-dasharray="5,2" d="M284.982,-350.801C289.048,-350.677 293.081,-350.567 297,-350.477 349.092,-349.287 409.928,-349.243 444.414,-349.343"/>
<polygon fill="#9a32cd" stroke="#9a32cd" points="284.729,-347.307 274.85,-351.136 284.961,-354.303 284.729,-347.307"/>
<text text-anchor="middle" x="350" y="-353.477" font-family="Helvetica,sans-Serif" font-size="10.00"> avatar</text>
</g>
<!-- Node21 -->
<g id="node21" class="node"><title>Node21</title>
<g id="a_node21"><a xlink:title=" ">
<polygon fill="white" stroke="#bfbfbf" points="198,-157.977 198,-176.977 244,-176.977 244,-157.977 198,-157.977"/>
<text text-anchor="middle" x="221" y="-164.977" font-family="Helvetica,sans-Serif" font-size="10.00">uint8_t</text>
</a>
</g>
</g>
<!-- Node21&#45;&gt;Node1 -->
<g id="edge41" class="edge"><title>Node21&#45;&gt;Node1</title>
<path fill="none" stroke="#9a32cd" stroke-dasharray="5,2" d="M254.104,-161.65C339.213,-147.579 576.518,-117.364 758,-180.477 830.666,-205.748 854.64,-217.336 900,-279.477 1078.83,-524.468 1114.88,-917.382 1119.83,-984.556"/>
<polygon fill="#9a32cd" stroke="#9a32cd" points="253.308,-158.234 244.035,-163.358 254.479,-165.136 253.308,-158.234"/>
<text text-anchor="middle" x="701" y="-183.477" font-family="Helvetica,sans-Serif" font-size="10.00"> flags</text>
</g>
<!-- Node21&#45;&gt;Node17 -->
<g id="edge27" class="edge"><title>Node21&#45;&gt;Node17</title>
<path fill="none" stroke="#9a32cd" stroke-dasharray="5,2" d="M253.983,-173.007C294.367,-181.644 363.348,-202.177 403,-246.477 421.001,-266.588 406.336,-281.818 421,-304.477 430.366,-318.951 445.637,-331.552 457.031,-339.709"/>
<polygon fill="#9a32cd" stroke="#9a32cd" points="254.62,-169.565 244.125,-171.014 253.233,-176.426 254.62,-169.565"/>
<text text-anchor="middle" x="350" y="-249.477" font-family="Helvetica,sans-Serif" font-size="10.00"> refcount</text>
</g>
<!-- Node22 -->
<g id="node22" class="node"><title>Node22</title>
<g id="a_node22"><a xlink:href="structdpp_1_1cache__policy__t.html" target="_top" xlink:title="Represents the caching policy of the cluster.">
<polygon fill="white" stroke="black" points="421,-103.977 421,-122.977 525,-122.977 525,-103.977 421,-103.977"/>
<text text-anchor="middle" x="473" y="-110.977" font-family="Helvetica,sans-Serif" font-size="10.00">dpp::cache_policy_t</text>
</a>
</g>
</g>
<!-- Node22&#45;&gt;Node14 -->
<g id="edge28" class="edge"><title>Node22&#45;&gt;Node14</title>
<path fill="none" stroke="#9a32cd" stroke-dasharray="5,2" d="M480.947,-132.572C493.994,-167.465 522.675,-239.504 543,-256.477 572.381,-281.013 596.67,-254.88 626,-279.477 673.753,-319.524 692.857,-397.492 698.262,-424.771"/>
<polygon fill="#9a32cd" stroke="#9a32cd" points="484.174,-131.207 477.427,-123.038 477.608,-133.632 484.174,-131.207"/>
<text text-anchor="middle" x="584.5" y="-282.477" font-family="Helvetica,sans-Serif" font-size="10.00"> cache_policy</text>
</g>
<!-- Node23 -->
<g id="node23" class="node"><title>Node23</title>
<g id="a_node23"><a xlink:title=" ">
<polygon fill="white" stroke="#bfbfbf" points="163,-102.977 163,-121.977 279,-121.977 279,-102.977 163,-102.977"/>
<text text-anchor="middle" x="221" y="-109.977" font-family="Helvetica,sans-Serif" font-size="10.00">cache_policy_setting_t</text>
</a>
</g>
</g>
<!-- Node23&#45;&gt;Node22 -->
<g id="edge29" class="edge"><title>Node23&#45;&gt;Node22</title>
<path fill="none" stroke="#9a32cd" stroke-dasharray="5,2" d="M289.369,-111.464C323.431,-111.115 365.413,-110.933 403,-111.477 408.752,-111.56 414.772,-111.683 420.759,-111.827"/>
<polygon fill="#9a32cd" stroke="#9a32cd" points="289.027,-107.968 279.066,-111.578 289.104,-114.967 289.027,-107.968"/>
<text text-anchor="middle" x="350" y="-136.477" font-family="Helvetica,sans-Serif" font-size="10.00"> emoji_policy</text>
<text text-anchor="middle" x="350" y="-125.477" font-family="Helvetica,sans-Serif" font-size="10.00">role_policy</text>
<text text-anchor="middle" x="350" y="-114.477" font-family="Helvetica,sans-Serif" font-size="10.00">user_policy</text>
</g>
<!-- Node24 -->
<g id="node24" class="node"><title>Node24</title>
<g id="a_node24"><a xlink:title=" ">
<polygon fill="white" stroke="#bfbfbf" points="650.5,-931.977 650.5,-950.977 751.5,-950.977 751.5,-931.977 650.5,-931.977"/>
<text text-anchor="middle" x="701" y="-938.977" font-family="Helvetica,sans-Serif" font-size="10.00">native_handle_type</text>
</a>
</g>
</g>
<!-- Node24&#45;&gt;Node2 -->
<g id="edge32" class="edge"><title>Node24&#45;&gt;Node2</title>
<path fill="none" stroke="#9a32cd" stroke-dasharray="5,2" d="M761.607,-948.062C803.47,-949.706 859.072,-945.624 900,-919.477 937.472,-895.538 956.788,-841.996 963.359,-820.094"/>
<polygon fill="#9a32cd" stroke="#9a32cd" points="761.713,-944.563 751.548,-947.548 761.356,-951.554 761.713,-944.563"/>
<text text-anchor="middle" x="838" y="-951.477" font-family="Helvetica,sans-Serif" font-size="10.00"> thread_id</text>
</g>
<!-- Node25 -->
<g id="node25" class="node"><title>Node25</title>
<g id="a_node25"><a xlink:title=" ">
<polygon fill="white" stroke="#bfbfbf" points="669.5,-893.977 669.5,-912.977 732.5,-912.977 732.5,-893.977 669.5,-893.977"/>
<text text-anchor="middle" x="701" y="-900.977" font-family="Helvetica,sans-Serif" font-size="10.00">std::mutex</text>
</a>
</g>
</g>
<!-- Node25&#45;&gt;Node2 -->
<g id="edge35" class="edge"><title>Node25&#45;&gt;Node2</title>
<path fill="none" stroke="#9a32cd" stroke-dasharray="5,2" d="M742.713,-906.318C784.42,-907.504 850.047,-904.483 900,-879.477 927.571,-865.675 949.919,-835.505 960.079,-820.037"/>
<polygon fill="#9a32cd" stroke="#9a32cd" points="742.774,-902.817 732.649,-905.936 742.509,-909.812 742.774,-902.817"/>
<text text-anchor="middle" x="838" y="-909.477" font-family="Helvetica,sans-Serif" font-size="10.00"> voice_mutex</text>
</g>
<!-- Node26 -->
<g id="node26" class="node"><title>Node26</title>
<g id="a_node26"><a xlink:title=" ">
<polygon fill="white" stroke="#bfbfbf" points="678.5,-741.977 678.5,-760.977 723.5,-760.977 723.5,-741.977 678.5,-741.977"/>
<text text-anchor="middle" x="701" y="-748.977" font-family="Helvetica,sans-Serif" font-size="10.00">double</text>
</a>
</g>
</g>
<!-- Node26&#45;&gt;Node2 -->
<g id="edge36" class="edge"><title>Node26&#45;&gt;Node2</title>
<path fill="none" stroke="#9a32cd" stroke-dasharray="5,2" d="M733.9,-753.71C773.499,-757.071 842.801,-764.894 900,-781.477 916.709,-786.321 934.731,-794.455 947.714,-800.877"/>
<polygon fill="#9a32cd" stroke="#9a32cd" points="734.038,-750.21 723.789,-752.895 733.476,-757.188 734.038,-750.21"/>
<text text-anchor="middle" x="838" y="-784.477" font-family="Helvetica,sans-Serif" font-size="10.00"> websocket_ping</text>
</g>
<!-- Node27 -->
<g id="node27" class="node"><title>Node27</title>
<g id="a_node27"><a xlink:title=" ">
<polygon fill="white" stroke="#bfbfbf" points="656.5,-817.977 656.5,-836.977 745.5,-836.977 745.5,-817.977 656.5,-817.977"/>
<text text-anchor="middle" x="701" y="-824.977" font-family="Helvetica,sans-Serif" font-size="10.00">unordered_map&lt;</text>
</a>
</g>
</g>
<!-- Node27&#45;&gt;Node2 -->
<g id="edge38" class="edge"><title>Node27&#45;&gt;Node2</title>
<path fill="none" stroke="#9a32cd" stroke-dasharray="5,2" d="M755.703,-824.019C803.265,-820.956 872.063,-816.526 917.866,-813.577"/>
<polygon fill="#9a32cd" stroke="#9a32cd" points="755.349,-820.534 745.594,-824.67 755.799,-827.52 755.349,-820.534"/>
<text text-anchor="middle" x="838" y="-825.477" font-family="Helvetica,sans-Serif" font-size="10.00"> connecting_voice_channels</text>
</g>
</g>
</svg>
