<?xml version="1.0" encoding="UTF-8" standalone="no"?>
<!DOCTYPE svg PUBLIC "-//W3C//DTD SVG 1.1//EN"
 "http://www.w3.org/Graphics/SVG/1.1/DTD/svg11.dtd">
<!-- Generated by graphviz version 2.43.0 (0)
 -->
<!-- Title: dpp::interaction_create_t Pages: 1 -->
<svg width="1504pt" height="1407pt"
 viewBox="0.00 0.00 1504.00 1407.00" xmlns="http://www.w3.org/2000/svg" xmlns:xlink="http://www.w3.org/1999/xlink">
<g id="graph0" class="graph" transform="scale(1 1) rotate(0) translate(4 1403)">
<title>dpp::interaction_create_t</title>
<!-- Node1 -->
<g id="node1" class="node">
<title>Node1</title>
<g id="a_node1"><a xlink:title="Create interaction.">
<polygon fill="#bfbfbf" stroke="black" points="1358,-353.5 1358,-372.5 1496,-372.5 1496,-353.5 1358,-353.5"/>
<text text-anchor="middle" x="1427" y="-360.5" font-family="Helvetica,sans-Serif" font-size="10.00">dpp::interaction_create_t</text>
</a>
</g>
</g>
<!-- Node2 -->
<g id="node2" class="node">
<title>Node2</title>
<g id="a_node2"><a xlink:href="structdpp_1_1event__dispatch__t.html" target="_top" xlink:title="Base event parameter struct.">
<polygon fill="none" stroke="black" points="1197,-524.5 1197,-543.5 1321,-543.5 1321,-524.5 1197,-524.5"/>
<text text-anchor="middle" x="1259" y="-531.5" font-family="Helvetica,sans-Serif" font-size="10.00">dpp::event_dispatch_t</text>
</a>
</g>
</g>
<!-- Node2&#45;&gt;Node1 -->
<g id="edge1" class="edge">
<title>Node2&#45;&gt;Node1</title>
<path fill="none" stroke="midnightblue" d="M1276.41,-517.1C1310.84,-481.63 1389.67,-400.42 1416.7,-372.58"/>
<polygon fill="midnightblue" stroke="midnightblue" points="1273.85,-514.7 1269.4,-524.32 1278.88,-519.58 1273.85,-514.7"/>
</g>
<!-- Node3 -->
<g id="node3" class="node">
<title>Node3</title>
<g id="a_node3"><a xlink:title=" ">
<polygon fill="none" stroke="#bfbfbf" points="206.5,-542.5 206.5,-561.5 271.5,-561.5 271.5,-542.5 206.5,-542.5"/>
<text text-anchor="middle" x="239" y="-549.5" font-family="Helvetica,sans-Serif" font-size="10.00">std::string</text>
</a>
</g>
</g>
<!-- Node3&#45;&gt;Node2 -->
<g id="edge2" class="edge">
<title>Node3&#45;&gt;Node2</title>
<path fill="none" stroke="#9a32cd" stroke-dasharray="5,2" d="M281.96,-544.09C294.48,-542.05 308.25,-540.12 321,-539 460.92,-526.73 496.54,-534 637,-534 637,-534 637,-534 1056,-534 1103.17,-534 1156.53,-534 1196.56,-534"/>
<polygon fill="#9a32cd" stroke="#9a32cd" points="281.07,-540.69 271.8,-545.82 282.24,-547.59 281.07,-540.69"/>
<text text-anchor="middle" x="765.5" y="-537" font-family="Helvetica,sans-Serif" font-size="10.00"> raw_event</text>
</g>
<!-- Node5 -->
<g id="node5" class="node">
<title>Node5</title>
<g id="a_node5"><a xlink:href="classdpp_1_1discord__client.html" target="_top" xlink:title="Implements a discord client. Each discord_client connects to one shard and derives from a websocket c...">
<polygon fill="none" stroke="black" points="1001,-858.5 1001,-877.5 1109,-877.5 1109,-858.5 1001,-858.5"/>
<text text-anchor="middle" x="1055" y="-865.5" font-family="Helvetica,sans-Serif" font-size="10.00">dpp::discord_client</text>
</a>
</g>
</g>
<!-- Node3&#45;&gt;Node5 -->
<g id="edge36" class="edge">
<title>Node3&#45;&gt;Node5</title>
<path fill="none" stroke="#9a32cd" stroke-dasharray="5,2" d="M270.2,-566.55C282.54,-574.13 295.63,-584.64 303,-598 331.1,-648.89 283.27,-814.76 321,-859 356.82,-901 389.03,-871.49 442,-887 675.93,-955.5 769.84,-1095.23 983,-977 1022.89,-954.87 1044.04,-899.8 1051.18,-877.55"/>
<polygon fill="#9a32cd" stroke="#9a32cd" points="271.86,-563.47 261.44,-561.55 268.39,-569.55 271.86,-563.47"/>
<text text-anchor="middle" x="638" y="-1002" font-family="Helvetica,sans-Serif" font-size="10.00"> sessionid</text>
<text text-anchor="middle" x="638" y="-991" font-family="Helvetica,sans-Serif" font-size="10.00">token</text>
</g>
<!-- Node7 -->
<g id="node7" class="node">
<title>Node7</title>
<g id="a_node7"><a xlink:href="classdpp_1_1ssl__client.html" target="_top" xlink:title="Implements a simple non&#45;blocking SSL stream client.">
<polygon fill="none" stroke="black" points="473.5,-1166.5 473.5,-1185.5 559.5,-1185.5 559.5,-1166.5 473.5,-1166.5"/>
<text text-anchor="middle" x="516.5" y="-1173.5" font-family="Helvetica,sans-Serif" font-size="10.00">dpp::ssl_client</text>
</a>
</g>
</g>
<!-- Node3&#45;&gt;Node7 -->
<g id="edge7" class="edge">
<title>Node3&#45;&gt;Node7</title>
<path fill="none" stroke="#9a32cd" stroke-dasharray="5,2" d="M267.73,-566.8C280.07,-574.62 293.84,-585.25 303,-598 318.5,-619.58 309.15,-631.22 321,-655 362.36,-738.01 404.82,-740.04 442,-825 497.66,-952.19 512.12,-1124.13 514.93,-1166.35"/>
<polygon fill="#9a32cd" stroke="#9a32cd" points="269.47,-563.76 259.09,-561.62 265.86,-569.76 269.47,-563.76"/>
<text text-anchor="middle" x="381.5" y="-872" font-family="Helvetica,sans-Serif" font-size="10.00"> buffer</text>
<text text-anchor="middle" x="381.5" y="-861" font-family="Helvetica,sans-Serif" font-size="10.00">cipher</text>
<text text-anchor="middle" x="381.5" y="-850" font-family="Helvetica,sans-Serif" font-size="10.00">hostname</text>
<text text-anchor="middle" x="381.5" y="-839" font-family="Helvetica,sans-Serif" font-size="10.00">obuffer</text>
<text text-anchor="middle" x="381.5" y="-828" font-family="Helvetica,sans-Serif" font-size="10.00">port</text>
</g>
<!-- Node15 -->
<g id="node15" class="node">
<title>Node15</title>
<g id="a_node15"><a xlink:href="classdpp_1_1cluster.html" target="_top" xlink:title="The cluster class represents a group of shards and a command queue for sending and receiving commands...">
<polygon fill="none" stroke="black" points="728.5,-655.5 728.5,-674.5 802.5,-674.5 802.5,-655.5 728.5,-655.5"/>
<text text-anchor="middle" x="765.5" y="-662.5" font-family="Helvetica,sans-Serif" font-size="10.00">dpp::cluster</text>
</a>
</g>
</g>
<!-- Node3&#45;&gt;Node15 -->
<g id="edge16" class="edge">
<title>Node3&#45;&gt;Node15</title>
<path fill="none" stroke="#9a32cd" stroke-dasharray="5,2" d="M281.52,-562.43C294.13,-565.27 308.07,-568.09 321,-570 482.66,-593.93 533.92,-559.69 685,-622 708.21,-631.57 733.46,-645.98 749.14,-655.43"/>
<polygon fill="#9a32cd" stroke="#9a32cd" points="282.27,-559.01 271.73,-560.16 280.69,-565.83 282.27,-559.01"/>
<text text-anchor="middle" x="516.5" y="-591" font-family="Helvetica,sans-Serif" font-size="10.00"> token</text>
</g>
<!-- Node18 -->
<g id="node18" class="node">
<title>Node18</title>
<g id="a_node18"><a xlink:href="classdpp_1_1user.html" target="_top" xlink:title="Represents a user on discord. May or may not be a member of a dpp::guild.">
<polygon fill="none" stroke="black" points="485.5,-343.5 485.5,-362.5 547.5,-362.5 547.5,-343.5 485.5,-343.5"/>
<text text-anchor="middle" x="516.5" y="-350.5" font-family="Helvetica,sans-Serif" font-size="10.00">dpp::user</text>
</a>
</g>
</g>
<!-- Node3&#45;&gt;Node18 -->
<g id="edge24" class="edge">
<title>Node3&#45;&gt;Node18</title>
<path fill="none" stroke="#9a32cd" stroke-dasharray="5,2" d="M254.4,-534.92C269.52,-517.85 294.73,-491.8 321,-475 369.74,-443.83 393.71,-458.86 442,-427 469.81,-408.65 495.61,-378.45 507.93,-362.91"/>
<polygon fill="#9a32cd" stroke="#9a32cd" points="251.73,-532.65 247.82,-542.49 257.02,-537.24 251.73,-532.65"/>
<text text-anchor="middle" x="381.5" y="-478" font-family="Helvetica,sans-Serif" font-size="10.00"> username</text>
</g>
<!-- Node29 -->
<g id="node29" class="node">
<title>Node29</title>
<g id="a_node29"><a xlink:href="classdpp_1_1interaction.html" target="_top" xlink:title="An interaction represents a user running a command and arrives via the dpp::cluster::on_interaction_c...">
<polygon fill="none" stroke="black" points="719,-247.5 719,-266.5 812,-266.5 812,-247.5 719,-247.5"/>
<text text-anchor="middle" x="765.5" y="-254.5" font-family="Helvetica,sans-Serif" font-size="10.00">dpp::interaction</text>
</a>
</g>
</g>
<!-- Node3&#45;&gt;Node29 -->
<g id="edge53" class="edge">
<title>Node3&#45;&gt;Node29</title>
<path fill="none" stroke="#9a32cd" stroke-dasharray="5,2" d="M266.21,-537.75C281.76,-529.79 302.07,-520.26 321,-514 429.5,-478.14 473.31,-518.86 573,-463 665.01,-411.44 738.09,-300.23 758.67,-266.74"/>
<polygon fill="#9a32cd" stroke="#9a32cd" points="264.45,-534.72 257.2,-542.45 267.68,-540.92 264.45,-534.72"/>
<text text-anchor="middle" x="516.5" y="-499" font-family="Helvetica,sans-Serif" font-size="10.00"> token</text>
</g>
<!-- Node31 -->
<g id="node31" class="node">
<title>Node31</title>
<g id="a_node31"><a xlink:href="classdpp_1_1guild__member.html" target="_top" xlink:title="Represents dpp::user membership upon a dpp::guild.">
<polygon fill="none" stroke="black" points="461,-191.5 461,-210.5 572,-210.5 572,-191.5 461,-191.5"/>
<text text-anchor="middle" x="516.5" y="-198.5" font-family="Helvetica,sans-Serif" font-size="10.00">dpp::guild_member</text>
</a>
</g>
</g>
<!-- Node3&#45;&gt;Node31 -->
<g id="edge47" class="edge">
<title>Node3&#45;&gt;Node31</title>
<path fill="none" stroke="#9a32cd" stroke-dasharray="5,2" d="M249.19,-533.15C263.28,-503.32 289.96,-443.09 303,-389 312.01,-351.64 293.53,-243.87 321,-217 340.2,-198.22 410.18,-196.57 460.7,-198.02"/>
<polygon fill="#9a32cd" stroke="#9a32cd" points="245.93,-531.84 244.77,-542.37 252.25,-534.86 245.93,-531.84"/>
<text text-anchor="middle" x="381.5" y="-220" font-family="Helvetica,sans-Serif" font-size="10.00"> nickname</text>
</g>
<!-- Node4 -->
<g id="node4" class="node">
<title>Node4</title>
<g id="a_node4"><a xlink:title=" ">
<polygon fill="none" stroke="#bfbfbf" points="0,-1167 0,-1197 104,-1197 104,-1167 0,-1167"/>
<text text-anchor="start" x="8" y="-1185" font-family="Helvetica,sans-Serif" font-size="10.00">std::basic_string&lt;</text>
<text text-anchor="middle" x="52" y="-1174" font-family="Helvetica,sans-Serif" font-size="10.00"> Char &gt;</text>
</a>
</g>
</g>
<!-- Node4&#45;&gt;Node3 -->
<g id="edge3" class="edge">
<title>Node4&#45;&gt;Node3</title>
<path fill="none" stroke="midnightblue" d="M55.82,-1156.94C67.32,-1057.82 113.09,-693.95 175,-598 185.43,-581.84 203.67,-569.45 217.85,-561.63"/>
<polygon fill="midnightblue" stroke="midnightblue" points="52.33,-1156.61 54.67,-1166.94 59.29,-1157.41 52.33,-1156.61"/>
</g>
<!-- Node5&#45;&gt;Node2 -->
<g id="edge4" class="edge">
<title>Node5&#45;&gt;Node2</title>
<path fill="none" stroke="#9a32cd" stroke-dasharray="5,2" d="M1067.07,-849.7C1104.29,-788.15 1224.22,-589.85 1252.15,-543.67"/>
<polygon fill="#9a32cd" stroke="#9a32cd" points="1064.01,-848 1061.83,-858.36 1070,-851.62 1064.01,-848"/>
<text text-anchor="middle" x="1153" y="-754" font-family="Helvetica,sans-Serif" font-size="10.00"> from</text>
</g>
<!-- Node6 -->
<g id="node6" class="node">
<title>Node6</title>
<g id="a_node6"><a xlink:href="classdpp_1_1websocket__client.html" target="_top" xlink:title="Implements a websocket client based on the SSL client.">
<polygon fill="none" stroke="black" points="703,-837.5 703,-856.5 828,-856.5 828,-837.5 703,-837.5"/>
<text text-anchor="middle" x="765.5" y="-844.5" font-family="Helvetica,sans-Serif" font-size="10.00">dpp::websocket_client</text>
</a>
</g>
</g>
<!-- Node6&#45;&gt;Node5 -->
<g id="edge5" class="edge">
<title>Node6&#45;&gt;Node5</title>
<path fill="none" stroke="midnightblue" d="M838.35,-852.25C888.71,-855.93 954.93,-860.76 1000.64,-864.1"/>
<polygon fill="midnightblue" stroke="midnightblue" points="838.4,-848.74 828.18,-851.5 837.89,-855.72 838.4,-848.74"/>
</g>
<!-- Node7&#45;&gt;Node6 -->
<g id="edge6" class="edge">
<title>Node7&#45;&gt;Node6</title>
<path fill="none" stroke="midnightblue" d="M520.37,-1156.17C526.97,-1115.95 546.24,-1023.24 591,-960 621.72,-916.6 646.18,-922.34 685,-886 693.73,-877.83 692.92,-872.44 703,-866 709.03,-862.15 715.88,-859.03 722.78,-856.53"/>
<polygon fill="midnightblue" stroke="midnightblue" points="516.91,-1155.63 518.83,-1166.05 523.83,-1156.71 516.91,-1155.63"/>
</g>
<!-- Node8 -->
<g id="node8" class="node">
<title>Node8</title>
<g id="a_node8"><a xlink:title=" ">
<polygon fill="none" stroke="#bfbfbf" points="220,-1320.5 220,-1339.5 258,-1339.5 258,-1320.5 220,-1320.5"/>
<text text-anchor="middle" x="239" y="-1327.5" font-family="Helvetica,sans-Serif" font-size="10.00">bool</text>
</a>
</g>
</g>
<!-- Node8&#45;&gt;Node5 -->
<g id="edge39" class="edge">
<title>Node8&#45;&gt;Node5</title>
<path fill="none" stroke="#9a32cd" stroke-dasharray="5,2" d="M267.99,-1333.19C307.59,-1336.78 381.86,-1340.08 442,-1323 708.36,-1247.33 793.8,-1216.18 983,-1014 1022.67,-971.6 1044.47,-902.9 1051.47,-877.68"/>
<polygon fill="#9a32cd" stroke="#9a32cd" points="268.3,-1329.7 258.01,-1332.21 267.62,-1336.67 268.3,-1329.7"/>
<text text-anchor="middle" x="638" y="-1282" font-family="Helvetica,sans-Serif" font-size="10.00"> ready</text>
</g>
<!-- Node8&#45;&gt;Node7 -->
<g id="edge8" class="edge">
<title>Node8&#45;&gt;Node7</title>
<path fill="none" stroke="#9a32cd" stroke-dasharray="5,2" d="M268.33,-1323.48C283.86,-1319.96 303.46,-1315.61 321,-1312 374.61,-1300.95 396.54,-1319.5 442,-1289 481.06,-1262.79 504.09,-1208.08 512.19,-1185.78"/>
<polygon fill="#9a32cd" stroke="#9a32cd" points="267.28,-1320.13 258.3,-1325.76 268.83,-1326.96 267.28,-1320.13"/>
<text text-anchor="middle" x="381.5" y="-1315" font-family="Helvetica,sans-Serif" font-size="10.00"> nonblocking</text>
</g>
<!-- Node9 -->
<g id="node9" class="node">
<title>Node9</title>
<g id="a_node9"><a xlink:title=" ">
<polygon fill="none" stroke="#bfbfbf" points="224.5,-1273.5 224.5,-1292.5 253.5,-1292.5 253.5,-1273.5 224.5,-1273.5"/>
<text text-anchor="middle" x="239" y="-1280.5" font-family="Helvetica,sans-Serif" font-size="10.00">int</text>
</a>
</g>
</g>
<!-- Node9&#45;&gt;Node7 -->
<g id="edge9" class="edge">
<title>Node9&#45;&gt;Node7</title>
<path fill="none" stroke="#9a32cd" stroke-dasharray="5,2" d="M263.81,-1281.7C310.33,-1278.83 411.39,-1270.92 442,-1255 473.58,-1238.58 498.77,-1203.01 509.66,-1185.77"/>
<polygon fill="#9a32cd" stroke="#9a32cd" points="263.52,-1278.21 253.74,-1282.29 263.93,-1285.19 263.52,-1278.21"/>
<text text-anchor="middle" x="381.5" y="-1280" font-family="Helvetica,sans-Serif" font-size="10.00"> sfd</text>
</g>
<!-- Node10 -->
<g id="node10" class="node">
<title>Node10</title>
<g id="a_node10"><a xlink:title=" ">
<polygon fill="none" stroke="#bfbfbf" points="218,-1235.5 218,-1254.5 260,-1254.5 260,-1235.5 218,-1235.5"/>
<text text-anchor="middle" x="239" y="-1242.5" font-family="Helvetica,sans-Serif" font-size="10.00">SSL *</text>
</a>
</g>
</g>
<!-- Node10&#45;&gt;Node7 -->
<g id="edge10" class="edge">
<title>Node10&#45;&gt;Node7</title>
<path fill="none" stroke="#9a32cd" stroke-dasharray="5,2" d="M270.2,-1243.71C310.34,-1241.28 383.07,-1234.37 442,-1215 463.68,-1207.87 486.6,-1194.69 500.97,-1185.64"/>
<polygon fill="#9a32cd" stroke="#9a32cd" points="269.81,-1240.22 260.01,-1244.27 270.19,-1247.21 269.81,-1240.22"/>
<text text-anchor="middle" x="381.5" y="-1243" font-family="Helvetica,sans-Serif" font-size="10.00"> ssl</text>
</g>
<!-- Node11 -->
<g id="node11" class="node">
<title>Node11</title>
<g id="a_node11"><a xlink:title=" ">
<polygon fill="none" stroke="#bfbfbf" points="205.5,-1197.5 205.5,-1216.5 272.5,-1216.5 272.5,-1197.5 205.5,-1197.5"/>
<text text-anchor="middle" x="239" y="-1204.5" font-family="Helvetica,sans-Serif" font-size="10.00">SSL_CTX *</text>
</a>
</g>
</g>
<!-- Node11&#45;&gt;Node7 -->
<g id="edge11" class="edge">
<title>Node11&#45;&gt;Node7</title>
<path fill="none" stroke="#9a32cd" stroke-dasharray="5,2" d="M282.75,-1203.39C323.68,-1199.79 387.15,-1193.82 442,-1187 452.12,-1185.74 462.99,-1184.21 473.18,-1182.7"/>
<polygon fill="#9a32cd" stroke="#9a32cd" points="282.25,-1199.92 272.59,-1204.28 282.86,-1206.89 282.25,-1199.92"/>
<text text-anchor="middle" x="381.5" y="-1203" font-family="Helvetica,sans-Serif" font-size="10.00"> ctx</text>
</g>
<!-- Node12 -->
<g id="node12" class="node">
<title>Node12</title>
<g id="a_node12"><a xlink:title=" ">
<polygon fill="none" stroke="#bfbfbf" points="215,-786.5 215,-805.5 263,-805.5 263,-786.5 215,-786.5"/>
<text text-anchor="middle" x="239" y="-793.5" font-family="Helvetica,sans-Serif" font-size="10.00">time_t</text>
</a>
</g>
</g>
<!-- Node12&#45;&gt;Node5 -->
<g id="edge33" class="edge">
<title>Node12&#45;&gt;Node5</title>
<path fill="none" stroke="#9a32cd" stroke-dasharray="5,2" d="M264.72,-810.68C280.3,-819.14 301.16,-829.05 321,-834 381.02,-848.97 398.16,-839.44 460,-841 559.98,-843.52 588.53,-864.38 685,-838 693.83,-835.59 694.14,-830.3 703,-828 756.78,-814.06 772.58,-824.09 828,-828 897.41,-832.9 914.73,-836.54 983,-850 994.98,-852.36 1007.96,-855.48 1019.5,-858.46"/>
<polygon fill="#9a32cd" stroke="#9a32cd" points="266.19,-807.49 255.75,-805.66 262.77,-813.6 266.19,-807.49"/>
<text text-anchor="middle" x="638" y="-866" font-family="Helvetica,sans-Serif" font-size="10.00"> last_heartbeat</text>
<text text-anchor="middle" x="638" y="-855" font-family="Helvetica,sans-Serif" font-size="10.00">last_heartbeat_ack</text>
</g>
<!-- Node12&#45;&gt;Node7 -->
<g id="edge12" class="edge">
<title>Node12&#45;&gt;Node7</title>
<path fill="none" stroke="#9a32cd" stroke-dasharray="5,2" d="M251.22,-814.04C264.99,-834.53 290.33,-867.27 321,-884 368.92,-910.13 401.65,-868.24 442,-905 452.2,-914.29 501.89,-1119.28 513.2,-1166.4"/>
<polygon fill="#9a32cd" stroke="#9a32cd" points="254.11,-812.07 245.73,-805.59 248.24,-815.88 254.11,-812.07"/>
<text text-anchor="middle" x="381.5" y="-908" font-family="Helvetica,sans-Serif" font-size="10.00"> last_tick</text>
</g>
<!-- Node12&#45;&gt;Node15 -->
<g id="edge17" class="edge">
<title>Node12&#45;&gt;Node15</title>
<path fill="none" stroke="#9a32cd" stroke-dasharray="5,2" d="M266.51,-781.86C282.02,-774.12 302.19,-764.91 321,-759 429.61,-724.86 461.72,-737.07 573,-713 627.94,-701.11 691.08,-684.76 729.37,-674.54"/>
<polygon fill="#9a32cd" stroke="#9a32cd" points="264.83,-778.79 257.51,-786.46 268.01,-785.03 264.83,-778.79"/>
<text text-anchor="middle" x="516.5" y="-734" font-family="Helvetica,sans-Serif" font-size="10.00"> last_identify</text>
</g>
<!-- Node12&#45;&gt;Node31 -->
<g id="edge50" class="edge">
<title>Node12&#45;&gt;Node31</title>
<path fill="none" stroke="#9a32cd" stroke-dasharray="5,2" d="M253.41,-778.18C268.52,-756.99 292.35,-719.96 303,-684 311.95,-653.79 299.96,-424.45 321,-401 357.45,-360.37 399.72,-414.52 442,-380 459,-366.11 451.77,-354.35 460,-334 478.75,-287.61 502.08,-232.53 511.39,-210.65"/>
<polygon fill="#9a32cd" stroke="#9a32cd" points="250.41,-776.35 247.35,-786.49 256.07,-780.47 250.41,-776.35"/>
<text text-anchor="middle" x="381.5" y="-415" font-family="Helvetica,sans-Serif" font-size="10.00"> joined_at</text>
<text text-anchor="middle" x="381.5" y="-404" font-family="Helvetica,sans-Serif" font-size="10.00">premium_since</text>
</g>
<!-- Node13 -->
<g id="node13" class="node">
<title>Node13</title>
<g id="a_node13"><a xlink:title=" ">
<polygon fill="none" stroke="#bfbfbf" points="24,-304.5 24,-323.5 80,-323.5 80,-304.5 24,-304.5"/>
<text text-anchor="middle" x="52" y="-311.5" font-family="Helvetica,sans-Serif" font-size="10.00">uint64_t</text>
</a>
</g>
</g>
<!-- Node13&#45;&gt;Node5 -->
<g id="edge35" class="edge">
<title>Node13&#45;&gt;Node5</title>
<path fill="none" stroke="#9a32cd" stroke-dasharray="5,2" d="M72.93,-330.05C115.38,-363.02 219.19,-437.26 321,-461 373.37,-473.21 390.83,-477.55 442,-461 451.39,-457.96 450.61,-451.04 460,-448 617.96,-396.92 685.12,-427.46 828,-512 915.15,-563.57 929.75,-592.87 983,-679 1021.89,-741.91 1044.91,-829.51 1051.8,-858.36"/>
<polygon fill="#9a32cd" stroke="#9a32cd" points="74.85,-327.1 64.82,-323.67 70.52,-332.61 74.85,-327.1"/>
<text text-anchor="middle" x="516.5" y="-451" font-family="Helvetica,sans-Serif" font-size="10.00"> last_seq</text>
</g>
<!-- Node13&#45;&gt;Node7 -->
<g id="edge13" class="edge">
<title>Node13&#45;&gt;Node7</title>
<path fill="none" stroke="#9a32cd" stroke-dasharray="5,2" d="M54.39,-333.87C61.94,-437.88 100.48,-919.47 175,-1046 217.06,-1117.41 243.78,-1131.9 321,-1162 370.68,-1181.36 432.85,-1182.2 473.34,-1179.98"/>
<polygon fill="#9a32cd" stroke="#9a32cd" points="57.87,-333.53 53.67,-323.81 50.89,-334.03 57.87,-333.53"/>
<text text-anchor="middle" x="239" y="-1169" font-family="Helvetica,sans-Serif" font-size="10.00"> bytes_in</text>
<text text-anchor="middle" x="239" y="-1158" font-family="Helvetica,sans-Serif" font-size="10.00">bytes_out</text>
</g>
<!-- Node19 -->
<g id="node19" class="node">
<title>Node19</title>
<g id="a_node19"><a xlink:href="classdpp_1_1managed.html" target="_top" xlink:title="The managed class is the base class for various types that can be stored in a cache that are identifi...">
<polygon fill="none" stroke="black" points="196,-284.5 196,-303.5 282,-303.5 282,-284.5 196,-284.5"/>
<text text-anchor="middle" x="239" y="-291.5" font-family="Helvetica,sans-Serif" font-size="10.00">dpp::managed</text>
</a>
</g>
</g>
<!-- Node13&#45;&gt;Node19 -->
<g id="edge23" class="edge">
<title>Node13&#45;&gt;Node19</title>
<path fill="none" stroke="#9a32cd" stroke-dasharray="5,2" d="M90.14,-309.61C100.46,-308.41 111.66,-307.13 122,-306 146.45,-303.32 173.82,-300.48 195.84,-298.24"/>
<polygon fill="#9a32cd" stroke="#9a32cd" points="89.72,-306.13 80.19,-310.77 90.53,-313.09 89.72,-306.13"/>
<text text-anchor="middle" x="139.5" y="-309" font-family="Helvetica,sans-Serif" font-size="10.00"> id</text>
</g>
<!-- Node21 -->
<g id="node21" class="node">
<title>Node21</title>
<g id="a_node21"><a xlink:href="structdpp_1_1utility_1_1iconhash.html" target="_top" xlink:title="Store a 128 bit icon hash (profile picture, server icon etc) as a 128 bit binary value made of two ui...">
<polygon fill="none" stroke="black" points="180,-322.5 180,-341.5 298,-341.5 298,-322.5 180,-322.5"/>
<text text-anchor="middle" x="239" y="-329.5" font-family="Helvetica,sans-Serif" font-size="10.00">dpp::utility::iconhash</text>
</a>
</g>
</g>
<!-- Node13&#45;&gt;Node21 -->
<g id="edge27" class="edge">
<title>Node13&#45;&gt;Node21</title>
<path fill="none" stroke="#9a32cd" stroke-dasharray="5,2" d="M90.37,-317.64C116.08,-320.14 150.72,-323.51 179.99,-326.36"/>
<polygon fill="#9a32cd" stroke="#9a32cd" points="90.59,-314.14 80.3,-316.66 89.91,-321.11 90.59,-314.14"/>
<text text-anchor="middle" x="139.5" y="-339" font-family="Helvetica,sans-Serif" font-size="10.00"> first</text>
<text text-anchor="middle" x="139.5" y="-328" font-family="Helvetica,sans-Serif" font-size="10.00">second</text>
</g>
<!-- Node13&#45;&gt;Node29 -->
<g id="edge43" class="edge">
<title>Node13&#45;&gt;Node29</title>
<path fill="none" stroke="#9a32cd" stroke-dasharray="5,2" d="M57.3,-294.18C68.23,-249.03 101.54,-138.38 175,-86 229.42,-47.2 254.99,-60.44 321,-50 480.79,-24.74 555.52,48 685,-49 752.14,-99.3 762.58,-213.78 764.2,-247.49"/>
<polygon fill="#9a32cd" stroke="#9a32cd" points="53.84,-293.64 55,-304.18 60.66,-295.22 53.84,-293.64"/>
<text text-anchor="middle" x="381.5" y="-86" font-family="Helvetica,sans-Serif" font-size="10.00"> application_id</text>
<text text-anchor="middle" x="381.5" y="-75" font-family="Helvetica,sans-Serif" font-size="10.00">channel_id</text>
<text text-anchor="middle" x="381.5" y="-64" font-family="Helvetica,sans-Serif" font-size="10.00">guild_id</text>
<text text-anchor="middle" x="381.5" y="-53" font-family="Helvetica,sans-Serif" font-size="10.00">message_id</text>
</g>
<!-- Node13&#45;&gt;Node31 -->
<g id="edge48" class="edge">
<title>Node13&#45;&gt;Node31</title>
<path fill="none" stroke="#9a32cd" stroke-dasharray="5,2" d="M61.2,-294.86C77.21,-260.29 116.28,-188.39 175,-160 286.23,-106.21 440.85,-166.56 495.44,-191.35"/>
<polygon fill="#9a32cd" stroke="#9a32cd" points="57.87,-293.74 56.98,-304.3 64.26,-296.6 57.87,-293.74"/>
<text text-anchor="middle" x="239" y="-174" font-family="Helvetica,sans-Serif" font-size="10.00"> guild_id</text>
<text text-anchor="middle" x="239" y="-163" font-family="Helvetica,sans-Serif" font-size="10.00">user_id</text>
</g>
<!-- Node14 -->
<g id="node14" class="node">
<title>Node14</title>
<g id="a_node14"><a xlink:title=" ">
<polygon fill="none" stroke="#bfbfbf" points="206.5,-1017.5 206.5,-1036.5 271.5,-1036.5 271.5,-1017.5 206.5,-1017.5"/>
<text text-anchor="middle" x="239" y="-1024.5" font-family="Helvetica,sans-Serif" font-size="10.00">function&lt;</text>
</a>
</g>
</g>
<!-- Node14&#45;&gt;Node7 -->
<g id="edge14" class="edge">
<title>Node14&#45;&gt;Node7</title>
<path fill="none" stroke="#9a32cd" stroke-dasharray="5,2" d="M255.38,-1044.19C270.49,-1059.96 295.01,-1082.66 321,-1095 370.45,-1118.47 392.2,-1095.28 442,-1118 468.32,-1130.01 493.58,-1153.36 506.52,-1166.47"/>
<polygon fill="#9a32cd" stroke="#9a32cd" points="257.75,-1041.61 248.37,-1036.67 252.63,-1046.38 257.75,-1041.61"/>
<text text-anchor="middle" x="381.5" y="-1154" font-family="Helvetica,sans-Serif" font-size="10.00"> custom_readable_fd</text>
<text text-anchor="middle" x="381.5" y="-1143" font-family="Helvetica,sans-Serif" font-size="10.00">custom_readable_ready</text>
<text text-anchor="middle" x="381.5" y="-1132" font-family="Helvetica,sans-Serif" font-size="10.00">custom_writeable_fd</text>
<text text-anchor="middle" x="381.5" y="-1121" font-family="Helvetica,sans-Serif" font-size="10.00">custom_writeable_ready</text>
</g>
<!-- Node17 -->
<g id="node17" class="node">
<title>Node17</title>
<g id="a_node17"><a xlink:href="classdpp_1_1dispatcher.html" target="_top" xlink:title="The dispatcher class contains a set of std::functions representing hooked events that the user code i...">
<polygon fill="none" stroke="black" points="470.5,-812.5 470.5,-831.5 562.5,-831.5 562.5,-812.5 470.5,-812.5"/>
<text text-anchor="middle" x="516.5" y="-819.5" font-family="Helvetica,sans-Serif" font-size="10.00">dpp::dispatcher</text>
</a>
</g>
</g>
<!-- Node14&#45;&gt;Node17 -->
<g id="edge20" class="edge">
<title>Node14&#45;&gt;Node17</title>
<path fill="none" stroke="#9a32cd" stroke-dasharray="5,2" d="M250.86,-1008.79C264.44,-987.77 289.75,-953.94 321,-937 368.85,-911.05 395.21,-945.83 442,-918 477.54,-896.86 501.91,-851.41 511.25,-831.58"/>
<polygon fill="#9a32cd" stroke="#9a32cd" points="247.79,-1007.1 245.47,-1017.43 253.73,-1010.8 247.79,-1007.1"/>
<text text-anchor="start" x="325.5" y="-1083" font-family="Helvetica,sans-Serif" font-size="10.00"> application_command</text>
<text text-anchor="middle" x="381.5" y="-1072" font-family="Helvetica,sans-Serif" font-size="10.00">_create</text>
<text text-anchor="start" x="325.5" y="-1061" font-family="Helvetica,sans-Serif" font-size="10.00">application_command</text>
<text text-anchor="middle" x="381.5" y="-1050" font-family="Helvetica,sans-Serif" font-size="10.00">_delete</text>
<text text-anchor="start" x="325.5" y="-1039" font-family="Helvetica,sans-Serif" font-size="10.00">application_command</text>
<text text-anchor="middle" x="381.5" y="-1028" font-family="Helvetica,sans-Serif" font-size="10.00">_update</text>
<text text-anchor="middle" x="381.5" y="-1017" font-family="Helvetica,sans-Serif" font-size="10.00">button_click</text>
<text text-anchor="middle" x="381.5" y="-1006" font-family="Helvetica,sans-Serif" font-size="10.00">channel_create</text>
<text text-anchor="middle" x="381.5" y="-995" font-family="Helvetica,sans-Serif" font-size="10.00">channel_delete</text>
<text text-anchor="middle" x="381.5" y="-984" font-family="Helvetica,sans-Serif" font-size="10.00">channel_pins_update</text>
<text text-anchor="middle" x="381.5" y="-973" font-family="Helvetica,sans-Serif" font-size="10.00">channel_update</text>
<text text-anchor="middle" x="381.5" y="-962" font-family="Helvetica,sans-Serif" font-size="10.00">guild_ban_add</text>
<text text-anchor="middle" x="381.5" y="-951" font-family="Helvetica,sans-Serif" font-size="10.00">guild_ban_remove</text>
<text text-anchor="middle" x="381.5" y="-940" font-family="Helvetica,sans-Serif" font-size="10.00">...</text>
</g>
<!-- Node15&#45;&gt;Node5 -->
<g id="edge15" class="edge">
<title>Node15&#45;&gt;Node5</title>
<path fill="none" stroke="#9a32cd" stroke-dasharray="5,2" d="M812.85,-672.85C860.14,-682.87 933.42,-704.17 983,-746 1020.83,-777.92 1043.17,-835.43 1050.91,-858.27"/>
<polygon fill="#9a32cd" stroke="#9a32cd" points="813.38,-669.39 802.88,-670.82 811.98,-676.25 813.38,-669.39"/>
<text text-anchor="middle" x="914.5" y="-749" font-family="Helvetica,sans-Serif" font-size="10.00"> creator</text>
</g>
<!-- Node16 -->
<g id="node16" class="node">
<title>Node16</title>
<g id="a_node16"><a xlink:title=" ">
<polygon fill="none" stroke="#bfbfbf" points="211,-655.5 211,-674.5 267,-674.5 267,-655.5 211,-655.5"/>
<text text-anchor="middle" x="239" y="-662.5" font-family="Helvetica,sans-Serif" font-size="10.00">uint32_t</text>
</a>
</g>
</g>
<!-- Node16&#45;&gt;Node5 -->
<g id="edge32" class="edge">
<title>Node16&#45;&gt;Node5</title>
<path fill="none" stroke="#9a32cd" stroke-dasharray="5,2" d="M276.94,-674.5C318.33,-685.85 386.86,-706.78 442,-734 450.62,-738.26 450.94,-742.77 460,-746 554.63,-779.77 585.58,-753.5 685,-768 818.52,-787.48 856.87,-778.06 983,-826 1004.55,-834.19 1027.08,-848.69 1040.83,-858.33"/>
<polygon fill="#9a32cd" stroke="#9a32cd" points="277.59,-671.05 267.02,-671.83 275.77,-677.81 277.59,-671.05"/>
<text text-anchor="middle" x="638" y="-826" font-family="Helvetica,sans-Serif" font-size="10.00"> heartbeat_interval</text>
<text text-anchor="middle" x="638" y="-815" font-family="Helvetica,sans-Serif" font-size="10.00">intents</text>
<text text-anchor="middle" x="638" y="-804" font-family="Helvetica,sans-Serif" font-size="10.00">max_shards</text>
<text text-anchor="middle" x="638" y="-793" font-family="Helvetica,sans-Serif" font-size="10.00">reconnects</text>
<text text-anchor="middle" x="638" y="-782" font-family="Helvetica,sans-Serif" font-size="10.00">resumes</text>
<text text-anchor="middle" x="638" y="-771" font-family="Helvetica,sans-Serif" font-size="10.00">shard_id</text>
</g>
<!-- Node16&#45;&gt;Node15 -->
<g id="edge18" class="edge">
<title>Node16&#45;&gt;Node15</title>
<path fill="none" stroke="#9a32cd" stroke-dasharray="5,2" d="M277.28,-665C374.06,-665 632.43,-665 728.16,-665"/>
<polygon fill="#9a32cd" stroke="#9a32cd" points="277.09,-661.5 267.09,-665 277.09,-668.5 277.09,-661.5"/>
<text text-anchor="middle" x="516.5" y="-701" font-family="Helvetica,sans-Serif" font-size="10.00"> cluster_id</text>
<text text-anchor="middle" x="516.5" y="-690" font-family="Helvetica,sans-Serif" font-size="10.00">intents</text>
<text text-anchor="middle" x="516.5" y="-679" font-family="Helvetica,sans-Serif" font-size="10.00">maxclusters</text>
<text text-anchor="middle" x="516.5" y="-668" font-family="Helvetica,sans-Serif" font-size="10.00">numshards</text>
</g>
<!-- Node16&#45;&gt;Node18 -->
<g id="edge28" class="edge">
<title>Node16&#45;&gt;Node18</title>
<path fill="none" stroke="#9a32cd" stroke-dasharray="5,2" d="M276.36,-653.01C285.79,-648.69 295.41,-643.09 303,-636 315.21,-624.59 310.76,-616.2 321,-603 366.08,-544.85 403.74,-552.85 442,-490 457.37,-464.76 446.83,-452.45 460,-426 472.49,-400.92 494.04,-375.82 506.29,-362.58"/>
<polygon fill="#9a32cd" stroke="#9a32cd" points="274.94,-649.81 267.07,-656.9 277.65,-656.26 274.94,-649.81"/>
<text text-anchor="middle" x="381.5" y="-606" font-family="Helvetica,sans-Serif" font-size="10.00"> flags</text>
</g>
<!-- Node17&#45;&gt;Node15 -->
<g id="edge19" class="edge">
<title>Node17&#45;&gt;Node15</title>
<path fill="none" stroke="#9a32cd" stroke-dasharray="5,2" d="M533.32,-804.74C544.54,-792.41 559.87,-775.34 573,-760 581.22,-750.4 580.31,-744.74 591,-738 627.38,-715.06 645.4,-731.78 685,-715 710.37,-704.25 736.89,-685.9 751.99,-674.67"/>
<polygon fill="#9a32cd" stroke="#9a32cd" points="530.44,-802.71 526.29,-812.45 535.61,-807.42 530.44,-802.71"/>
<text text-anchor="middle" x="638" y="-741" font-family="Helvetica,sans-Serif" font-size="10.00"> dispatch</text>
</g>
<!-- Node18&#45;&gt;Node15 -->
<g id="edge21" class="edge">
<title>Node18&#45;&gt;Node15</title>
<path fill="none" stroke="#9a32cd" stroke-dasharray="5,2" d="M531.4,-370.55C577.14,-428.34 722.11,-611.45 756.93,-655.43"/>
<polygon fill="#9a32cd" stroke="#9a32cd" points="534.11,-368.35 525.16,-362.68 528.63,-372.69 534.11,-368.35"/>
<text text-anchor="middle" x="638" y="-568" font-family="Helvetica,sans-Serif" font-size="10.00"> me</text>
</g>
<!-- Node18&#45;&gt;Node29 -->
<g id="edge52" class="edge">
<title>Node18&#45;&gt;Node29</title>
<path fill="none" stroke="#9a32cd" stroke-dasharray="5,2" d="M555.14,-340.08C589.27,-328.19 640.83,-309.74 685,-292 705.15,-283.9 727.79,-273.84 743.74,-266.59"/>
<polygon fill="#9a32cd" stroke="#9a32cd" points="553.87,-336.82 545.57,-343.41 556.17,-343.43 553.87,-336.82"/>
<text text-anchor="middle" x="638" y="-330" font-family="Helvetica,sans-Serif" font-size="10.00"> usr</text>
</g>
<!-- Node19&#45;&gt;Node18 -->
<g id="edge22" class="edge">
<title>Node19&#45;&gt;Node18</title>
<path fill="none" stroke="midnightblue" d="M292.09,-301.93C333.08,-308.55 391.51,-318.86 442,-331 456.76,-334.55 472.95,-339.3 486.37,-343.48"/>
<polygon fill="midnightblue" stroke="midnightblue" points="292.49,-298.45 282.06,-300.32 291.39,-305.36 292.49,-298.45"/>
</g>
<!-- Node19&#45;&gt;Node29 -->
<g id="edge42" class="edge">
<title>Node19&#45;&gt;Node29</title>
<path fill="none" stroke="midnightblue" d="M292.17,-290.32C394.89,-283.07 621.79,-267.07 718.92,-260.21"/>
<polygon fill="midnightblue" stroke="midnightblue" points="291.76,-286.84 282.04,-291.03 292.26,-293.82 291.76,-286.84"/>
</g>
<!-- Node20 -->
<g id="node20" class="node">
<title>Node20</title>
<g id="a_node20"><a xlink:title=" ">
<polygon fill="none" stroke="#bfbfbf" points="211,-360.5 211,-379.5 267,-379.5 267,-360.5 211,-360.5"/>
<text text-anchor="middle" x="239" y="-367.5" font-family="Helvetica,sans-Serif" font-size="10.00">uint16_t</text>
</a>
</g>
</g>
<!-- Node20&#45;&gt;Node18 -->
<g id="edge25" class="edge">
<title>Node20&#45;&gt;Node18</title>
<path fill="none" stroke="#9a32cd" stroke-dasharray="5,2" d="M277.2,-367.7C332.27,-364.31 434.42,-358 485.21,-354.87"/>
<polygon fill="#9a32cd" stroke="#9a32cd" points="276.94,-364.21 267.17,-368.32 277.37,-371.2 276.94,-364.21"/>
<text text-anchor="middle" x="381.5" y="-368" font-family="Helvetica,sans-Serif" font-size="10.00"> discriminator</text>
</g>
<!-- Node21&#45;&gt;Node18 -->
<g id="edge26" class="edge">
<title>Node21&#45;&gt;Node18</title>
<path fill="none" stroke="#9a32cd" stroke-dasharray="5,2" d="M308.65,-334.36C347.79,-336.05 397.71,-338.79 442,-343 456.23,-344.35 471.94,-346.41 485.17,-348.31"/>
<polygon fill="#9a32cd" stroke="#9a32cd" points="308.57,-330.85 298.43,-333.93 308.28,-337.85 308.57,-330.85"/>
<text text-anchor="middle" x="381.5" y="-346" font-family="Helvetica,sans-Serif" font-size="10.00"> avatar</text>
</g>
<!-- Node22 -->
<g id="node22" class="node">
<title>Node22</title>
<g id="a_node22"><a xlink:title=" ">
<polygon fill="none" stroke="#bfbfbf" points="214,-95.5 214,-114.5 264,-114.5 264,-95.5 214,-95.5"/>
<text text-anchor="middle" x="239" y="-102.5" font-family="Helvetica,sans-Serif" font-size="10.00">uint8_t</text>
</a>
</g>
</g>
<!-- Node22&#45;&gt;Node18 -->
<g id="edge29" class="edge">
<title>Node22&#45;&gt;Node18</title>
<path fill="none" stroke="#9a32cd" stroke-dasharray="5,2" d="M273.76,-110.96C284.57,-114.49 295.63,-120.1 303,-129 332.08,-164.12 293.89,-193.34 321,-230 356.93,-278.58 391.56,-258.73 442,-292 466.09,-307.89 491.38,-330.36 505.12,-343.12"/>
<polygon fill="#9a32cd" stroke="#9a32cd" points="274.59,-107.56 264.02,-108.27 272.73,-114.31 274.59,-107.56"/>
<text text-anchor="middle" x="381.5" y="-295" font-family="Helvetica,sans-Serif" font-size="10.00"> refcount</text>
</g>
<!-- Node22&#45;&gt;Node29 -->
<g id="edge44" class="edge">
<title>Node22&#45;&gt;Node29</title>
<path fill="none" stroke="#9a32cd" stroke-dasharray="5,2" d="M274.4,-101.19C314.92,-97.62 384.08,-94.38 442,-106 570.5,-131.78 707.34,-218.42 750.58,-247.44"/>
<polygon fill="#9a32cd" stroke="#9a32cd" points="273.87,-97.73 264.25,-102.15 274.53,-104.7 273.87,-97.73"/>
<text text-anchor="middle" x="516.5" y="-163" font-family="Helvetica,sans-Serif" font-size="10.00"> type</text>
<text text-anchor="middle" x="516.5" y="-152" font-family="Helvetica,sans-Serif" font-size="10.00">version</text>
</g>
<!-- Node22&#45;&gt;Node31 -->
<g id="edge51" class="edge">
<title>Node22&#45;&gt;Node31</title>
<path fill="none" stroke="#9a32cd" stroke-dasharray="5,2" d="M274.29,-105.77C323.98,-107.37 413.23,-112.12 442,-126 473.03,-140.97 498.31,-174.72 509.41,-191.35"/>
<polygon fill="#9a32cd" stroke="#9a32cd" points="274.12,-102.27 264.03,-105.47 273.92,-109.27 274.12,-102.27"/>
<text text-anchor="middle" x="381.5" y="-129" font-family="Helvetica,sans-Serif" font-size="10.00"> flags</text>
</g>
<!-- Node23 -->
<g id="node23" class="node">
<title>Node23</title>
<g id="a_node23"><a xlink:href="structdpp_1_1cache__policy__t.html" target="_top" xlink:title="Represents the caching policy of the cluster.">
<polygon fill="none" stroke="black" points="460,-609.5 460,-628.5 573,-628.5 573,-609.5 460,-609.5"/>
<text text-anchor="middle" x="516.5" y="-616.5" font-family="Helvetica,sans-Serif" font-size="10.00">dpp::cache_policy_t</text>
</a>
</g>
</g>
<!-- Node23&#45;&gt;Node15 -->
<g id="edge30" class="edge">
<title>Node23&#45;&gt;Node15</title>
<path fill="none" stroke="#9a32cd" stroke-dasharray="5,2" d="M583.63,-624.52C614.63,-627.81 651.94,-632.79 685,-640 703.09,-643.95 722.97,-650.2 738.32,-655.46"/>
<polygon fill="#9a32cd" stroke="#9a32cd" points="583.68,-621.01 573.38,-623.47 582.97,-627.97 583.68,-621.01"/>
<text text-anchor="middle" x="638" y="-643" font-family="Helvetica,sans-Serif" font-size="10.00"> cache_policy</text>
</g>
<!-- Node24 -->
<g id="node24" class="node">
<title>Node24</title>
<g id="a_node24"><a xlink:title=" ">
<polygon fill="none" stroke="#bfbfbf" points="175,-607.5 175,-626.5 303,-626.5 303,-607.5 175,-607.5"/>
<text text-anchor="middle" x="239" y="-614.5" font-family="Helvetica,sans-Serif" font-size="10.00">cache_policy_setting_t</text>
</a>
</g>
</g>
<!-- Node24&#45;&gt;Node23 -->
<g id="edge31" class="edge">
<title>Node24&#45;&gt;Node23</title>
<path fill="none" stroke="#9a32cd" stroke-dasharray="5,2" d="M313.28,-617.21C351.62,-617.36 399.35,-617.6 442,-618 447.74,-618.05 453.74,-618.12 459.72,-618.19"/>
<polygon fill="#9a32cd" stroke="#9a32cd" points="313.25,-613.71 303.23,-617.17 313.22,-620.71 313.25,-613.71"/>
<text text-anchor="middle" x="381.5" y="-643" font-family="Helvetica,sans-Serif" font-size="10.00"> emoji_policy</text>
<text text-anchor="middle" x="381.5" y="-632" font-family="Helvetica,sans-Serif" font-size="10.00">role_policy</text>
<text text-anchor="middle" x="381.5" y="-621" font-family="Helvetica,sans-Serif" font-size="10.00">user_policy</text>
</g>
<!-- Node25 -->
<g id="node25" class="node">
<title>Node25</title>
<g id="a_node25"><a xlink:title=" ">
<polygon fill="none" stroke="#bfbfbf" points="709,-1365.5 709,-1384.5 822,-1384.5 822,-1365.5 709,-1365.5"/>
<text text-anchor="middle" x="765.5" y="-1372.5" font-family="Helvetica,sans-Serif" font-size="10.00">native_handle_type</text>
</a>
</g>
</g>
<!-- Node25&#45;&gt;Node5 -->
<g id="edge34" class="edge">
<title>Node25&#45;&gt;Node5</title>
<path fill="none" stroke="#9a32cd" stroke-dasharray="5,2" d="M822.67,-1385.92C871.64,-1391.91 941.21,-1391.33 983,-1351 1053.9,-1282.58 1054.58,-940.04 1054.11,-877.73"/>
<polygon fill="#9a32cd" stroke="#9a32cd" points="822.93,-1382.42 812.55,-1384.55 821.99,-1389.36 822.93,-1382.42"/>
<text text-anchor="middle" x="914.5" y="-1391" font-family="Helvetica,sans-Serif" font-size="10.00"> thread_id</text>
</g>
<!-- Node26 -->
<g id="node26" class="node">
<title>Node26</title>
<g id="a_node26"><a xlink:title=" ">
<polygon fill="none" stroke="#bfbfbf" points="731,-951.5 731,-970.5 800,-970.5 800,-951.5 731,-951.5"/>
<text text-anchor="middle" x="765.5" y="-958.5" font-family="Helvetica,sans-Serif" font-size="10.00">std::mutex</text>
</a>
</g>
</g>
<!-- Node26&#45;&gt;Node5 -->
<g id="edge37" class="edge">
<title>Node26&#45;&gt;Node5</title>
<path fill="none" stroke="#9a32cd" stroke-dasharray="5,2" d="M810.17,-962.58C855.46,-962.55 927.28,-957.78 983,-932 1010.41,-919.32 1034.73,-892.32 1046.5,-877.77"/>
<polygon fill="#9a32cd" stroke="#9a32cd" points="810.12,-959.08 800.1,-962.5 810.07,-966.08 810.12,-959.08"/>
<text text-anchor="middle" x="914.5" y="-965" font-family="Helvetica,sans-Serif" font-size="10.00"> voice_mutex</text>
</g>
<!-- Node27 -->
<g id="node27" class="node">
<title>Node27</title>
<g id="a_node27"><a xlink:title=" ">
<polygon fill="none" stroke="#bfbfbf" points="740.5,-913.5 740.5,-932.5 790.5,-932.5 790.5,-913.5 740.5,-913.5"/>
<text text-anchor="middle" x="765.5" y="-920.5" font-family="Helvetica,sans-Serif" font-size="10.00">double</text>
</a>
</g>
</g>
<!-- Node27&#45;&gt;Node5 -->
<g id="edge38" class="edge">
<title>Node27&#45;&gt;Node5</title>
<path fill="none" stroke="#9a32cd" stroke-dasharray="5,2" d="M800.76,-921.06C843.84,-918.05 919.8,-910.87 983,-895 1000.14,-890.7 1018.79,-883.5 1032.67,-877.62"/>
<polygon fill="#9a32cd" stroke="#9a32cd" points="800.29,-917.58 790.55,-921.74 800.76,-924.57 800.29,-917.58"/>
<text text-anchor="middle" x="914.5" y="-920" font-family="Helvetica,sans-Serif" font-size="10.00"> websocket_ping</text>
</g>
<!-- Node28 -->
<g id="node28" class="node">
<title>Node28</title>
<g id="a_node28"><a xlink:title=" ">
<polygon fill="none" stroke="#bfbfbf" points="715,-875.5 715,-894.5 816,-894.5 816,-875.5 715,-875.5"/>
<text text-anchor="middle" x="765.5" y="-882.5" font-family="Helvetica,sans-Serif" font-size="10.00">unordered_map&lt;</text>
</a>
</g>
</g>
<!-- Node28&#45;&gt;Node5 -->
<g id="edge40" class="edge">
<title>Node28&#45;&gt;Node5</title>
<path fill="none" stroke="#9a32cd" stroke-dasharray="5,2" d="M826.25,-881.47C877.78,-878.42 951.49,-874.06 1000.97,-871.14"/>
<polygon fill="#9a32cd" stroke="#9a32cd" points="826.03,-877.97 816.25,-882.06 826.44,-884.96 826.03,-877.97"/>
<text text-anchor="middle" x="914.5" y="-883" font-family="Helvetica,sans-Serif" font-size="10.00"> connecting_voice_channels</text>
</g>
<!-- Node29&#45;&gt;Node1 -->
<g id="edge41" class="edge">
<title>Node29&#45;&gt;Node1</title>
<path fill="none" stroke="#9a32cd" stroke-dasharray="5,2" d="M822.06,-265.93C945.13,-285.71 1239.83,-333.08 1366.49,-353.43"/>
<polygon fill="#9a32cd" stroke="#9a32cd" points="822.52,-262.46 812.09,-264.33 821.41,-269.37 822.52,-262.46"/>
<text text-anchor="middle" x="1153" y="-326" font-family="Helvetica,sans-Serif" font-size="10.00"> command</text>
</g>
<!-- Node30 -->
<g id="node30" class="node">
<title>Node30</title>
<g id="a_node30"><a xlink:title=" ">
<polygon fill="none" stroke="#bfbfbf" points="487,-49.5 487,-68.5 546,-68.5 546,-49.5 487,-49.5"/>
<text text-anchor="middle" x="516.5" y="-56.5" font-family="Helvetica,sans-Serif" font-size="10.00">variant&lt;</text>
</a>
</g>
</g>
<!-- Node30&#45;&gt;Node29 -->
<g id="edge45" class="edge">
<title>Node30&#45;&gt;Node29</title>
<path fill="none" stroke="#9a32cd" stroke-dasharray="5,2" d="M556.36,-53.74C593.07,-50.93 647.89,-52.56 685,-80 742.69,-122.66 759.42,-216.86 763.41,-247.31"/>
<polygon fill="#9a32cd" stroke="#9a32cd" points="555.69,-50.29 546.05,-54.68 556.33,-57.26 555.69,-50.29"/>
<text text-anchor="middle" x="638" y="-83" font-family="Helvetica,sans-Serif" font-size="10.00"> data</text>
</g>
<!-- Node31&#45;&gt;Node29 -->
<g id="edge46" class="edge">
<title>Node31&#45;&gt;Node29</title>
<path fill="none" stroke="#9a32cd" stroke-dasharray="5,2" d="M569.65,-212.82C615.14,-223.14 680.28,-237.91 722.49,-247.48"/>
<polygon fill="#9a32cd" stroke="#9a32cd" points="570.21,-209.36 559.68,-210.56 568.66,-216.19 570.21,-209.36"/>
<text text-anchor="middle" x="638" y="-242" font-family="Helvetica,sans-Serif" font-size="10.00"> member</text>
</g>
<!-- Node32 -->
<g id="node32" class="node">
<title>Node32</title>
<g id="a_node32"><a xlink:title=" ">
<polygon fill="none" stroke="#bfbfbf" points="211,-191.5 211,-210.5 267,-210.5 267,-191.5 211,-191.5"/>
<text text-anchor="middle" x="239" y="-198.5" font-family="Helvetica,sans-Serif" font-size="10.00">vector&lt;</text>
</a>
</g>
</g>
<!-- Node32&#45;&gt;Node31 -->
<g id="edge49" class="edge">
<title>Node32&#45;&gt;Node31</title>
<path fill="none" stroke="#9a32cd" stroke-dasharray="5,2" d="M277.2,-192.07C290.88,-189.21 306.56,-186.41 321,-185 374.52,-179.76 388.53,-179.25 442,-185 454.21,-186.31 467.36,-188.82 479.11,-191.46"/>
<polygon fill="#9a32cd" stroke="#9a32cd" points="276.2,-188.71 267.17,-194.26 277.69,-195.55 276.2,-188.71"/>
<text text-anchor="middle" x="381.5" y="-188" font-family="Helvetica,sans-Serif" font-size="10.00"> roles</text>
</g>
</g>
</svg>
