<?xml version="1.0" encoding="UTF-8" standalone="no"?>
<!DOCTYPE svg PUBLIC "-//W3C//DTD SVG 1.1//EN"
 "http://www.w3.org/Graphics/SVG/1.1/DTD/svg11.dtd">
<!-- Generated by graphviz version 2.43.0 (0)
 -->
<!-- Title: dpp::integration_update_t Pages: 1 -->
<!--zoomable 1263 -->
<svg id="main" version="1.1" xmlns="http://www.w3.org/2000/svg" xmlns:xlink="http://www.w3.org/1999/xlink" xml:space="preserve" onload="init(evt)">
<style type="text/css"><![CDATA[
.edge:hover path { stroke: red; }
.edge:hover polygon { stroke: red; fill: red; }
]]></style>
<script type="text/javascript"><![CDATA[
var edges = document.getElementsByTagName('g');
if (edges && edges.length) {
  for (var i=0;i<edges.length;i++) {
    if (edges[i].id.substr(0,4)=='edge') {
      edges[i].setAttribute('class','edge');
    }
  }
}
]]></script>
        <defs>
                <circle id="rim" cx="0" cy="0" r="7"/>
                <circle id="rim2" cx="0" cy="0" r="3.5"/>
                <g id="zoomPlus">
                        <use xlink:href="#rim" fill="#404040">
                                <set attributeName="fill" to="#808080" begin="zoomplus.mouseover" end="zoomplus.mouseout"/>
                        </use>
                        <path d="M-4,0h8M0,-4v8" fill="none" stroke="white" stroke-width="1.5" pointer-events="none"/>
                </g>
                <g id="zoomMin">
                        <use xlink:href="#rim" fill="#404040">
                                <set attributeName="fill" to="#808080" begin="zoomminus.mouseover" end="zoomminus.mouseout"/>
                        </use>
                        <path d="M-4,0h8" fill="none" stroke="white" stroke-width="1.5" pointer-events="none"/>
                </g>
                <g id="dirArrow">
                        <path fill="none" stroke="white" stroke-width="1.5" d="M0,-3.0v7 M-2.5,-0.5L0,-3.0L2.5,-0.5"/>
                </g>
               <g id="resetDef">
                       <use xlink:href="#rim2" fill="#404040">
                               <set attributeName="fill" to="#808080" begin="reset.mouseover" end="reset.mouseout"/>
                       </use>
               </g>
        </defs>

<script type="text/javascript">
var viewWidth = 1492;
var viewHeight = 1263;
var sectionId = 'dynsection-1';
</script>
<script xlink:href="svgpan.js"/>
<svg id="graph" class="graph">
<g id="viewport">
<title>dpp::integration_update_t</title>
<!-- Node1 -->
<g id="node1" class="node">
<title>Node1</title>
<g id="a_node1"><a xlink:title="Integration update.">
<polygon fill="#bfbfbf" stroke="black" points="1342,-594 1342,-613 1484,-613 1484,-594 1342,-594"/>
<text text-anchor="middle" x="1413" y="-601" font-family="Helvetica,sans-Serif" font-size="10.00">dpp::integration_update_t</text>
</a>
</g>
</g>
<!-- Node2 -->
<g id="node2" class="node">
<title>Node2</title>
<g id="a_node2"><a xlink:href="structdpp_1_1event__dispatch__t.html" target="_top" xlink:title="Base event parameter struct.">
<polygon fill="none" stroke="black" points="1181,-445 1181,-464 1305,-464 1305,-445 1181,-445"/>
<text text-anchor="middle" x="1243" y="-452" font-family="Helvetica,sans-Serif" font-size="10.00">dpp::event_dispatch_t</text>
</a>
</g>
</g>
<!-- Node2&#45;&gt;Node1 -->
<g id="edge1" class="edge">
<title>Node2&#45;&gt;Node1</title>
<path fill="none" stroke="midnightblue" d="M1262.37,-470.8C1297.45,-501.9 1372.94,-568.86 1401.11,-593.84"/>
<polygon fill="midnightblue" stroke="midnightblue" points="1264.57,-468.06 1254.76,-464.05 1259.92,-473.3 1264.57,-468.06"/>
</g>
<!-- Node3 -->
<g id="node3" class="node">
<title>Node3</title>
<g id="a_node3"><a xlink:title=" ">
<polygon fill="none" stroke="#bfbfbf" points="206.5,-698 206.5,-717 271.5,-717 271.5,-698 206.5,-698"/>
<text text-anchor="middle" x="239" y="-705" font-family="Helvetica,sans-Serif" font-size="10.00">std::string</text>
</a>
</g>
</g>
<!-- Node3&#45;&gt;Node2 -->
<g id="edge2" class="edge">
<title>Node3&#45;&gt;Node2</title>
<path fill="none" stroke="#9a32cd" stroke-dasharray="5,2" d="M242.47,-687.59C248.53,-646.56 267.77,-551.73 321,-495.5 361.49,-452.73 395.97,-478.23 442,-441.5 452.42,-433.18 449.5,-425.72 460,-417.5 555.79,-342.47 592.77,-334.77 712,-310.5 834.26,-285.62 872.61,-294.3 992,-330.5 1086.81,-359.25 1189.68,-421.19 1227.23,-444.95"/>
<polygon fill="#9a32cd" stroke="#9a32cd" points="238.98,-687.28 241.09,-697.66 245.91,-688.23 238.98,-687.28"/>
<text text-anchor="middle" x="774.5" y="-313.5" font-family="Helvetica,sans-Serif" font-size="10.00"> raw_event</text>
</g>
<!-- Node5 -->
<g id="node5" class="node">
<title>Node5</title>
<g id="a_node5"><a xlink:href="classdpp_1_1discord__client.html" target="_top" xlink:title="Implements a discord client. Each discord_client connects to one shard and derives from a websocket c...">
<polygon fill="none" stroke="black" points="1010,-445 1010,-464 1118,-464 1118,-445 1010,-445"/>
<text text-anchor="middle" x="1064" y="-452" font-family="Helvetica,sans-Serif" font-size="10.00">dpp::discord_client</text>
</a>
</g>
</g>
<!-- Node3&#45;&gt;Node5 -->
<g id="edge36" class="edge">
<title>Node3&#45;&gt;Node5</title>
<path fill="none" stroke="#9a32cd" stroke-dasharray="5,2" d="M281.71,-712.55C328.04,-715.59 401.6,-712.33 442,-668.5 491.7,-614.58 416.25,-563.35 460,-504.5 532.6,-406.85 592.77,-421.77 712,-397.5 834.29,-372.61 872.85,-381.39 992,-418.5 1012.32,-424.83 1033.89,-436.57 1047.85,-444.92"/>
<polygon fill="#9a32cd" stroke="#9a32cd" points="281.94,-709.05 271.69,-711.76 281.39,-716.03 281.94,-709.05"/>
<text text-anchor="middle" x="642.5" y="-431.5" font-family="Helvetica,sans-Serif" font-size="10.00"> sessionid</text>
<text text-anchor="middle" x="642.5" y="-420.5" font-family="Helvetica,sans-Serif" font-size="10.00">token</text>
</g>
<!-- Node7 -->
<g id="node7" class="node">
<title>Node7</title>
<g id="a_node7"><a xlink:href="classdpp_1_1ssl__client.html" target="_top" xlink:title="Implements a simple non&#45;blocking SSL stream client.">
<polygon fill="none" stroke="black" points="473.5,-216 473.5,-235 559.5,-235 559.5,-216 473.5,-216"/>
<text text-anchor="middle" x="516.5" y="-223" font-family="Helvetica,sans-Serif" font-size="10.00">dpp::ssl_client</text>
</a>
</g>
</g>
<!-- Node3&#45;&gt;Node7 -->
<g id="edge7" class="edge">
<title>Node3&#45;&gt;Node7</title>
<path fill="none" stroke="#9a32cd" stroke-dasharray="5,2" d="M246.48,-687.92C258.82,-650.1 285.97,-564.25 303,-490.5 313.56,-444.79 288.1,-419.94 321,-386.5 359.39,-347.48 398.15,-396.27 442,-363.5 456.01,-353.03 451.85,-343.98 460,-328.5 478.17,-293.99 500.3,-253.31 510.23,-235.12"/>
<polygon fill="#9a32cd" stroke="#9a32cd" points="243.08,-687.06 243.28,-697.65 249.73,-689.24 243.08,-687.06"/>
<text text-anchor="middle" x="381.5" y="-433.5" font-family="Helvetica,sans-Serif" font-size="10.00"> buffer</text>
<text text-anchor="middle" x="381.5" y="-422.5" font-family="Helvetica,sans-Serif" font-size="10.00">cipher</text>
<text text-anchor="middle" x="381.5" y="-411.5" font-family="Helvetica,sans-Serif" font-size="10.00">hostname</text>
<text text-anchor="middle" x="381.5" y="-400.5" font-family="Helvetica,sans-Serif" font-size="10.00">obuffer</text>
<text text-anchor="middle" x="381.5" y="-389.5" font-family="Helvetica,sans-Serif" font-size="10.00">port</text>
</g>
<!-- Node15 -->
<g id="node15" class="node">
<title>Node15</title>
<g id="a_node15"><a xlink:href="classdpp_1_1cluster.html" target="_top" xlink:title="The cluster class represents a group of shards and a command queue for sending and receiving commands...">
<polygon fill="none" stroke="black" points="737.5,-682 737.5,-701 811.5,-701 811.5,-682 737.5,-682"/>
<text text-anchor="middle" x="774.5" y="-689" font-family="Helvetica,sans-Serif" font-size="10.00">dpp::cluster</text>
</a>
</g>
</g>
<!-- Node3&#45;&gt;Node15 -->
<g id="edge16" class="edge">
<title>Node3&#45;&gt;Node15</title>
<path fill="none" stroke="#9a32cd" stroke-dasharray="5,2" d="M282,-714.3C294.51,-716.03 308.28,-717.64 321,-718.5 374.66,-722.13 392.32,-739.08 442,-718.5 452.45,-714.17 449.61,-704.98 460,-700.5 508.88,-679.43 665.93,-685.29 737.44,-689.24"/>
<polygon fill="#9a32cd" stroke="#9a32cd" points="282.23,-710.8 271.83,-712.83 281.23,-717.73 282.23,-710.8"/>
<text text-anchor="middle" x="516.5" y="-703.5" font-family="Helvetica,sans-Serif" font-size="10.00"> token</text>
</g>
<!-- Node18 -->
<g id="node18" class="node">
<title>Node18</title>
<g id="a_node18"><a xlink:href="classdpp_1_1user.html" target="_top" xlink:title="Represents a user on discord. May or may not be a member of a dpp::guild.">
<polygon fill="none" stroke="black" points="485.5,-1037 485.5,-1056 547.5,-1056 547.5,-1037 485.5,-1037"/>
<text text-anchor="middle" x="516.5" y="-1044" font-family="Helvetica,sans-Serif" font-size="10.00">dpp::user</text>
</a>
</g>
</g>
<!-- Node3&#45;&gt;Node18 -->
<g id="edge24" class="edge">
<title>Node3&#45;&gt;Node18</title>
<path fill="none" stroke="#9a32cd" stroke-dasharray="5,2" d="M261.73,-723.68C275.79,-735.38 293.24,-752.42 303,-771.5 324.76,-814.04 293.24,-838.6 321,-877.5 356.58,-927.36 400.16,-898.76 442,-943.5 455.04,-957.44 449.64,-966.46 460,-982.5 473.56,-1003.5 493.59,-1024.83 505.51,-1036.8"/>
<polygon fill="#9a32cd" stroke="#9a32cd" points="263.51,-720.63 253.51,-717.13 259.15,-726.1 263.51,-720.63"/>
<text text-anchor="middle" x="381.5" y="-946.5" font-family="Helvetica,sans-Serif" font-size="10.00"> username</text>
</g>
<!-- Node29 -->
<g id="node29" class="node">
<title>Node29</title>
<g id="a_node29"><a xlink:href="classdpp_1_1integration.html" target="_top" xlink:title=" ">
<polygon fill="none" stroke="black" points="1017,-997 1017,-1016 1111,-1016 1111,-997 1017,-997"/>
<text text-anchor="middle" x="1064" y="-1004" font-family="Helvetica,sans-Serif" font-size="10.00">dpp::integration</text>
</a>
</g>
</g>
<!-- Node3&#45;&gt;Node29 -->
<g id="edge43" class="edge">
<title>Node3&#45;&gt;Node29</title>
<path fill="none" stroke="#9a32cd" stroke-dasharray="5,2" d="M271.62,-720.91C286.4,-726.74 304.37,-733.2 321,-737.5 483.36,-779.51 535.55,-739.56 694,-794.5 845.48,-847.02 1005.29,-962.83 1050.46,-996.9"/>
<polygon fill="#9a32cd" stroke="#9a32cd" points="272.54,-717.51 261.96,-717.02 269.92,-724 272.54,-717.51"/>
<text text-anchor="middle" x="642.5" y="-819.5" font-family="Helvetica,sans-Serif" font-size="10.00"> account_id</text>
<text text-anchor="middle" x="642.5" y="-808.5" font-family="Helvetica,sans-Serif" font-size="10.00">account_name</text>
<text text-anchor="middle" x="642.5" y="-797.5" font-family="Helvetica,sans-Serif" font-size="10.00">name</text>
</g>
<!-- Node31 -->
<g id="node31" class="node">
<title>Node31</title>
<g id="a_node31"><a xlink:href="structdpp_1_1integration__app.html" target="_top" xlink:title="An application that has been integrated.">
<polygon fill="none" stroke="black" points="716,-1039 716,-1058 833,-1058 833,-1039 716,-1039"/>
<text text-anchor="middle" x="774.5" y="-1046" font-family="Helvetica,sans-Serif" font-size="10.00">dpp::integration_app</text>
</a>
</g>
</g>
<!-- Node3&#45;&gt;Node31 -->
<g id="edge51" class="edge">
<title>Node3&#45;&gt;Node31</title>
<path fill="none" stroke="#9a32cd" stroke-dasharray="5,2" d="M259.63,-724.22C273.05,-736.36 290.57,-753.72 303,-771.5 313.7,-786.82 308.05,-796.03 321,-809.5 332.73,-821.7 575.41,-943.91 591,-950.5 635.4,-969.28 651.66,-961.46 694,-984.5 722.02,-999.74 749.94,-1025.19 764.05,-1038.96"/>
<polygon fill="#9a32cd" stroke="#9a32cd" points="261.71,-721.38 251.9,-717.38 257.07,-726.62 261.71,-721.38"/>
<text text-anchor="middle" x="516.5" y="-976.5" font-family="Helvetica,sans-Serif" font-size="10.00"> description</text>
<text text-anchor="middle" x="516.5" y="-965.5" font-family="Helvetica,sans-Serif" font-size="10.00">icon</text>
<text text-anchor="middle" x="516.5" y="-954.5" font-family="Helvetica,sans-Serif" font-size="10.00">name</text>
<text text-anchor="middle" x="516.5" y="-943.5" font-family="Helvetica,sans-Serif" font-size="10.00">summary</text>
</g>
<!-- Node4 -->
<g id="node4" class="node">
<title>Node4</title>
<g id="a_node4"><a xlink:title=" ">
<polygon fill="none" stroke="#bfbfbf" points="0,-0.5 0,-30.5 104,-30.5 104,-0.5 0,-0.5"/>
<text text-anchor="start" x="8" y="-18.5" font-family="Helvetica,sans-Serif" font-size="10.00">std::basic_string&lt;</text>
<text text-anchor="middle" x="52" y="-7.5" font-family="Helvetica,sans-Serif" font-size="10.00"> Char &gt;</text>
</a>
</g>
</g>
<!-- Node4&#45;&gt;Node3 -->
<g id="edge3" class="edge">
<title>Node4&#45;&gt;Node3</title>
<path fill="none" stroke="midnightblue" d="M59.13,-40.52C76.55,-111.31 128.1,-319.04 175,-490.5 196.94,-570.72 225.75,-666.89 235,-697.58"/>
<polygon fill="midnightblue" stroke="midnightblue" points="62.51,-39.6 56.73,-30.72 55.71,-41.27 62.51,-39.6"/>
</g>
<!-- Node5&#45;&gt;Node2 -->
<g id="edge4" class="edge">
<title>Node5&#45;&gt;Node2</title>
<path fill="none" stroke="#9a32cd" stroke-dasharray="5,2" d="M1128.52,-454.5C1145.56,-454.5 1163.94,-454.5 1180.85,-454.5"/>
<polygon fill="#9a32cd" stroke="#9a32cd" points="1128.11,-451 1118.11,-454.5 1128.11,-458 1128.11,-451"/>
<text text-anchor="middle" x="1149.5" y="-457.5" font-family="Helvetica,sans-Serif" font-size="10.00"> from</text>
</g>
<!-- Node6 -->
<g id="node6" class="node">
<title>Node6</title>
<g id="a_node6"><a xlink:href="classdpp_1_1websocket__client.html" target="_top" xlink:title="Implements a websocket client based on the SSL client.">
<polygon fill="none" stroke="black" points="712,-331 712,-350 837,-350 837,-331 712,-331"/>
<text text-anchor="middle" x="774.5" y="-338" font-family="Helvetica,sans-Serif" font-size="10.00">dpp::websocket_client</text>
</a>
</g>
</g>
<!-- Node6&#45;&gt;Node5 -->
<g id="edge5" class="edge">
<title>Node6&#45;&gt;Node5</title>
<path fill="none" stroke="midnightblue" d="M847.29,-334.89C891.59,-334.6 948.13,-340.16 992,-364.5 1025.93,-383.33 1049.37,-425.69 1058.61,-444.81"/>
<polygon fill="midnightblue" stroke="midnightblue" points="847.11,-331.39 837.17,-335.06 847.23,-338.39 847.11,-331.39"/>
</g>
<!-- Node7&#45;&gt;Node6 -->
<g id="edge6" class="edge">
<title>Node7&#45;&gt;Node6</title>
<path fill="none" stroke="midnightblue" d="M546.26,-239.68C583.98,-258.11 652.39,-290.96 712,-316.5 723.69,-321.51 736.81,-326.69 747.91,-330.95"/>
<polygon fill="midnightblue" stroke="midnightblue" points="547.43,-236.35 536.91,-235.1 544.35,-242.64 547.43,-236.35"/>
</g>
<!-- Node8 -->
<g id="node8" class="node">
<title>Node8</title>
<g id="a_node8"><a xlink:title=" ">
<polygon fill="none" stroke="#bfbfbf" points="220,-298 220,-317 258,-317 258,-298 220,-298"/>
<text text-anchor="middle" x="239" y="-305" font-family="Helvetica,sans-Serif" font-size="10.00">bool</text>
</a>
</g>
</g>
<!-- Node8&#45;&gt;Node5 -->
<g id="edge39" class="edge">
<title>Node8&#45;&gt;Node5</title>
<path fill="none" stroke="#9a32cd" stroke-dasharray="5,2" d="M267.59,-319.15C283.11,-325.42 302.93,-332.98 321,-338.5 373.79,-354.63 391.41,-344.42 442,-366.5 574.86,-424.49 573.42,-506.96 712,-549.5 831.01,-586.03 880.94,-597.76 992,-541.5 1025.91,-524.32 1049.36,-482.83 1058.6,-464.04"/>
<polygon fill="#9a32cd" stroke="#9a32cd" points="268.67,-315.81 258.09,-315.25 266.01,-322.28 268.67,-315.81"/>
<text text-anchor="middle" x="642.5" y="-545.5" font-family="Helvetica,sans-Serif" font-size="10.00"> ready</text>
</g>
<!-- Node8&#45;&gt;Node7 -->
<g id="edge8" class="edge">
<title>Node8&#45;&gt;Node7</title>
<path fill="none" stroke="#9a32cd" stroke-dasharray="5,2" d="M254.72,-289.91C273.38,-268.15 305.04,-233.16 321,-226.5 370.24,-205.96 432.79,-210.39 473.46,-216.8"/>
<polygon fill="#9a32cd" stroke="#9a32cd" points="251.85,-287.89 248.04,-297.78 257.18,-292.42 251.85,-287.89"/>
<text text-anchor="middle" x="381.5" y="-229.5" font-family="Helvetica,sans-Serif" font-size="10.00"> nonblocking</text>
</g>
<!-- Node9 -->
<g id="node9" class="node">
<title>Node9</title>
<g id="a_node9"><a xlink:title=" ">
<polygon fill="none" stroke="#bfbfbf" points="224.5,-119 224.5,-138 253.5,-138 253.5,-119 224.5,-119"/>
<text text-anchor="middle" x="239" y="-126" font-family="Helvetica,sans-Serif" font-size="10.00">int</text>
</a>
</g>
</g>
<!-- Node9&#45;&gt;Node7 -->
<g id="edge9" class="edge">
<title>Node9&#45;&gt;Node7</title>
<path fill="none" stroke="#9a32cd" stroke-dasharray="5,2" d="M263.62,-124.07C302.93,-117.9 383.29,-110.48 442,-139.5 476.16,-156.38 500.76,-197.07 510.67,-215.78"/>
<polygon fill="#9a32cd" stroke="#9a32cd" points="262.95,-120.64 253.67,-125.75 264.11,-127.54 262.95,-120.64"/>
<text text-anchor="middle" x="381.5" y="-142.5" font-family="Helvetica,sans-Serif" font-size="10.00"> sfd</text>
</g>
<!-- Node10 -->
<g id="node10" class="node">
<title>Node10</title>
<g id="a_node10"><a xlink:title=" ">
<polygon fill="none" stroke="#bfbfbf" points="218,-69 218,-88 260,-88 260,-69 218,-69"/>
<text text-anchor="middle" x="239" y="-76" font-family="Helvetica,sans-Serif" font-size="10.00">SSL *</text>
</a>
</g>
</g>
<!-- Node10&#45;&gt;Node7 -->
<g id="edge10" class="edge">
<title>Node10&#45;&gt;Node7</title>
<path fill="none" stroke="#9a32cd" stroke-dasharray="5,2" d="M270.46,-74.48C312.59,-70.53 389.38,-69.34 442,-103.5 484.31,-130.97 505.86,-192.13 512.87,-215.84"/>
<polygon fill="#9a32cd" stroke="#9a32cd" points="269.87,-71.02 260.29,-75.55 270.6,-77.98 269.87,-71.02"/>
<text text-anchor="middle" x="381.5" y="-106.5" font-family="Helvetica,sans-Serif" font-size="10.00"> ssl</text>
</g>
<!-- Node11 -->
<g id="node11" class="node">
<title>Node11</title>
<g id="a_node11"><a xlink:title=" ">
<polygon fill="none" stroke="#bfbfbf" points="205.5,-157 205.5,-176 272.5,-176 272.5,-157 205.5,-157"/>
<text text-anchor="middle" x="239" y="-164" font-family="Helvetica,sans-Serif" font-size="10.00">SSL_CTX *</text>
</a>
</g>
</g>
<!-- Node11&#45;&gt;Node7 -->
<g id="edge11" class="edge">
<title>Node11&#45;&gt;Node7</title>
<path fill="none" stroke="#9a32cd" stroke-dasharray="5,2" d="M282.7,-158.84C324.55,-153.14 389.51,-149.14 442,-167.5 469.62,-177.16 494.74,-201.91 507.21,-215.75"/>
<polygon fill="#9a32cd" stroke="#9a32cd" points="281.97,-155.41 272.58,-160.32 282.98,-162.34 281.97,-155.41"/>
<text text-anchor="middle" x="381.5" y="-170.5" font-family="Helvetica,sans-Serif" font-size="10.00"> ctx</text>
</g>
<!-- Node12 -->
<g id="node12" class="node">
<title>Node12</title>
<g id="a_node12"><a xlink:title=" ">
<polygon fill="none" stroke="#bfbfbf" points="215,-403 215,-422 263,-422 263,-403 215,-403"/>
<text text-anchor="middle" x="239" y="-410" font-family="Helvetica,sans-Serif" font-size="10.00">time_t</text>
</a>
</g>
</g>
<!-- Node12&#45;&gt;Node5 -->
<g id="edge33" class="edge">
<title>Node12&#45;&gt;Node5</title>
<path fill="none" stroke="#9a32cd" stroke-dasharray="5,2" d="M257.48,-394.9C272.43,-378.65 293.05,-353.07 303,-326.5 319.59,-282.22 286.18,-146.49 321,-114.5 360.6,-78.12 389.54,-102.65 442,-114.5 563,-141.84 608.78,-144.36 694,-234.5 708.52,-249.85 695.61,-265.16 712,-278.5 810.18,-358.39 888.78,-257.25 992,-330.5 1033.27,-359.79 1053.85,-421.14 1060.51,-444.86"/>
<polygon fill="#9a32cd" stroke="#9a32cd" points="254.61,-392.85 250.27,-402.51 259.69,-397.66 254.61,-392.85"/>
<text text-anchor="middle" x="642.5" y="-248.5" font-family="Helvetica,sans-Serif" font-size="10.00"> last_heartbeat</text>
<text text-anchor="middle" x="642.5" y="-237.5" font-family="Helvetica,sans-Serif" font-size="10.00">last_heartbeat_ack</text>
</g>
<!-- Node12&#45;&gt;Node7 -->
<g id="edge12" class="edge">
<title>Node12&#45;&gt;Node7</title>
<path fill="none" stroke="#9a32cd" stroke-dasharray="5,2" d="M255.63,-395.24C269.85,-378.7 290.47,-352.48 303,-326.5 316.2,-299.11 298.57,-281.03 321,-260.5 323.82,-257.92 416.75,-242.01 473.12,-232.55"/>
<polygon fill="#9a32cd" stroke="#9a32cd" points="252.83,-393.13 248.86,-402.95 258.09,-397.75 252.83,-393.13"/>
<text text-anchor="middle" x="381.5" y="-263.5" font-family="Helvetica,sans-Serif" font-size="10.00"> last_tick</text>
</g>
<!-- Node12&#45;&gt;Node15 -->
<g id="edge17" class="edge">
<title>Node12&#45;&gt;Node15</title>
<path fill="none" stroke="#9a32cd" stroke-dasharray="5,2" d="M272.89,-425.94C329.63,-449.14 440.07,-494.34 442,-495.5 515.65,-539.65 514.74,-579.02 591,-618.5 633.13,-640.31 650.13,-628.45 694,-646.5 717.91,-656.33 743.6,-671.89 759.11,-681.89"/>
<polygon fill="#9a32cd" stroke="#9a32cd" points="273.87,-422.56 263.29,-422.02 271.22,-429.04 273.87,-422.56"/>
<text text-anchor="middle" x="516.5" y="-610.5" font-family="Helvetica,sans-Serif" font-size="10.00"> last_identify</text>
</g>
<!-- Node12&#45;&gt;Node29 -->
<g id="edge48" class="edge">
<title>Node12&#45;&gt;Node29</title>
<path fill="none" stroke="#9a32cd" stroke-dasharray="5,2" d="M272.36,-425.52C283.99,-431.88 295.96,-440.75 303,-452.5 330.6,-498.57 281.64,-656.97 321,-693.5 360.42,-730.08 399.32,-726.22 442,-693.5 466.47,-674.74 435.67,-645.45 460,-626.5 506.64,-590.17 946.58,-582.67 992,-620.5 1052.21,-670.65 1061.54,-942.26 1062.81,-996.92"/>
<polygon fill="#9a32cd" stroke="#9a32cd" points="273.72,-422.29 263.21,-420.95 270.59,-428.55 273.72,-422.29"/>
<text text-anchor="middle" x="642.5" y="-604.5" font-family="Helvetica,sans-Serif" font-size="10.00"> synced_at</text>
</g>
<!-- Node13 -->
<g id="node13" class="node">
<title>Node13</title>
<g id="a_node13"><a xlink:title=" ">
<polygon fill="none" stroke="#bfbfbf" points="24,-1058 24,-1077 80,-1077 80,-1058 24,-1058"/>
<text text-anchor="middle" x="52" y="-1065" font-family="Helvetica,sans-Serif" font-size="10.00">uint64_t</text>
</a>
</g>
</g>
<!-- Node13&#45;&gt;Node5 -->
<g id="edge35" class="edge">
<title>Node13&#45;&gt;Node5</title>
<path fill="none" stroke="#9a32cd" stroke-dasharray="5,2" d="M53.82,-1047.69C57.67,-959.41 75.75,-593.23 122,-296.5 141.24,-173.08 113.09,-40.5 238,-40.5 238,-40.5 238,-40.5 775.5,-40.5 978.95,-40.5 1049.99,-381.98 1061.32,-444.67"/>
<polygon fill="#9a32cd" stroke="#9a32cd" points="50.31,-1047.72 53.39,-1057.86 57.31,-1048.02 50.31,-1047.72"/>
<text text-anchor="middle" x="516.5" y="-43.5" font-family="Helvetica,sans-Serif" font-size="10.00"> last_seq</text>
</g>
<!-- Node13&#45;&gt;Node7 -->
<g id="edge13" class="edge">
<title>Node13&#45;&gt;Node7</title>
<path fill="none" stroke="#9a32cd" stroke-dasharray="5,2" d="M53.43,-1047.78C56.21,-937.05 74.84,-393.19 175,-266.5 250.37,-171.16 321.35,-192.94 442,-207.5 455.83,-209.17 470.8,-212.54 483.61,-215.92"/>
<polygon fill="#9a32cd" stroke="#9a32cd" points="49.93,-1047.79 53.19,-1057.87 56.93,-1047.95 49.93,-1047.79"/>
<text text-anchor="middle" x="239" y="-280.5" font-family="Helvetica,sans-Serif" font-size="10.00"> bytes_in</text>
<text text-anchor="middle" x="239" y="-269.5" font-family="Helvetica,sans-Serif" font-size="10.00">bytes_out</text>
</g>
<!-- Node19 -->
<g id="node19" class="node">
<title>Node19</title>
<g id="a_node19"><a xlink:href="classdpp_1_1managed.html" target="_top" xlink:title="The managed class is the base class for various types that can be stored in a cache that are identifi...">
<polygon fill="none" stroke="black" points="196,-1115 196,-1134 282,-1134 282,-1115 196,-1115"/>
<text text-anchor="middle" x="239" y="-1122" font-family="Helvetica,sans-Serif" font-size="10.00">dpp::managed</text>
</a>
</g>
</g>
<!-- Node13&#45;&gt;Node19 -->
<g id="edge23" class="edge">
<title>Node13&#45;&gt;Node19</title>
<path fill="none" stroke="#9a32cd" stroke-dasharray="5,2" d="M89.94,-1079.1C114.12,-1086.67 146.42,-1096.74 175,-1105.5 185.16,-1108.61 196.25,-1111.97 206.26,-1114.99"/>
<polygon fill="#9a32cd" stroke="#9a32cd" points="90.7,-1075.67 80.11,-1076.02 88.61,-1082.35 90.7,-1075.67"/>
<text text-anchor="middle" x="139.5" y="-1101.5" font-family="Helvetica,sans-Serif" font-size="10.00"> id</text>
</g>
<!-- Node21 -->
<g id="node21" class="node">
<title>Node21</title>
<g id="a_node21"><a xlink:href="structdpp_1_1utility_1_1iconhash.html" target="_top" xlink:title="Store a 128 bit icon hash (profile picture, server icon etc) as a 128 bit binary value made of two ui...">
<polygon fill="none" stroke="black" points="180,-1001 180,-1020 298,-1020 298,-1001 180,-1001"/>
<text text-anchor="middle" x="239" y="-1008" font-family="Helvetica,sans-Serif" font-size="10.00">dpp::utility::iconhash</text>
</a>
</g>
</g>
<!-- Node13&#45;&gt;Node21 -->
<g id="edge27" class="edge">
<title>Node13&#45;&gt;Node21</title>
<path fill="none" stroke="#9a32cd" stroke-dasharray="5,2" d="M89.94,-1055.9C114.12,-1048.33 146.42,-1038.26 175,-1029.5 185.16,-1026.39 196.25,-1023.03 206.26,-1020.01"/>
<polygon fill="#9a32cd" stroke="#9a32cd" points="88.61,-1052.65 80.11,-1058.98 90.7,-1059.33 88.61,-1052.65"/>
<text text-anchor="middle" x="139.5" y="-1058.5" font-family="Helvetica,sans-Serif" font-size="10.00"> first</text>
<text text-anchor="middle" x="139.5" y="-1047.5" font-family="Helvetica,sans-Serif" font-size="10.00">second</text>
</g>
<!-- Node13&#45;&gt;Node29 -->
<g id="edge46" class="edge">
<title>Node13&#45;&gt;Node29</title>
<path fill="none" stroke="#9a32cd" stroke-dasharray="5,2" d="M62.53,-1086.27C85.98,-1129.52 150.96,-1232.5 238,-1232.5 238,-1232.5 238,-1232.5 775.5,-1232.5 885.95,-1232.5 910.62,-1185.17 992,-1110.5 1023.57,-1081.53 1048.42,-1035.96 1058.33,-1016.19"/>
<polygon fill="#9a32cd" stroke="#9a32cd" points="65.58,-1084.54 57.82,-1077.33 59.39,-1087.81 65.58,-1084.54"/>
<text text-anchor="middle" x="516.5" y="-1246.5" font-family="Helvetica,sans-Serif" font-size="10.00"> role_id</text>
<text text-anchor="middle" x="516.5" y="-1235.5" font-family="Helvetica,sans-Serif" font-size="10.00">user_id</text>
</g>
<!-- Node13&#45;&gt;Node31 -->
<g id="edge50" class="edge">
<title>Node13&#45;&gt;Node31</title>
<path fill="none" stroke="#9a32cd" stroke-dasharray="5,2" d="M71.07,-1083.73C93.52,-1102.64 133.92,-1132.68 175,-1143.5 230.01,-1157.99 246.34,-1148.56 303,-1143.5 387.25,-1135.98 633.73,-1080.65 732.18,-1058.06"/>
<polygon fill="#9a32cd" stroke="#9a32cd" points="73.23,-1080.97 63.38,-1077.09 68.66,-1086.27 73.23,-1080.97"/>
<text text-anchor="middle" x="381.5" y="-1143.5" font-family="Helvetica,sans-Serif" font-size="10.00"> id</text>
</g>
<!-- Node14 -->
<g id="node14" class="node">
<title>Node14</title>
<g id="a_node14"><a xlink:title=" ">
<polygon fill="none" stroke="#bfbfbf" points="206.5,-462 206.5,-481 271.5,-481 271.5,-462 206.5,-462"/>
<text text-anchor="middle" x="239" y="-469" font-family="Helvetica,sans-Serif" font-size="10.00">function&lt;</text>
</a>
</g>
</g>
<!-- Node14&#45;&gt;Node7 -->
<g id="edge14" class="edge">
<title>Node14&#45;&gt;Node7</title>
<path fill="none" stroke="#9a32cd" stroke-dasharray="5,2" d="M273.73,-457.1C284.7,-450.79 295.88,-442.32 303,-431.5 330.72,-389.39 289.45,-358.82 321,-319.5 357.21,-274.38 390.38,-297.62 442,-271.5 463.76,-260.49 487.41,-244.99 501.85,-235.1"/>
<polygon fill="#9a32cd" stroke="#9a32cd" points="271.87,-454.12 264.66,-461.89 275.14,-460.31 271.87,-454.12"/>
<text text-anchor="middle" x="381.5" y="-355.5" font-family="Helvetica,sans-Serif" font-size="10.00"> custom_readable_fd</text>
<text text-anchor="middle" x="381.5" y="-344.5" font-family="Helvetica,sans-Serif" font-size="10.00">custom_readable_ready</text>
<text text-anchor="middle" x="381.5" y="-333.5" font-family="Helvetica,sans-Serif" font-size="10.00">custom_writeable_fd</text>
<text text-anchor="middle" x="381.5" y="-322.5" font-family="Helvetica,sans-Serif" font-size="10.00">custom_writeable_ready</text>
</g>
<!-- Node17 -->
<g id="node17" class="node">
<title>Node17</title>
<g id="a_node17"><a xlink:href="classdpp_1_1dispatcher.html" target="_top" xlink:title="The dispatcher class contains a set of std::functions representing hooked events that the user code i...">
<polygon fill="none" stroke="black" points="470.5,-636 470.5,-655 562.5,-655 562.5,-636 470.5,-636"/>
<text text-anchor="middle" x="516.5" y="-643" font-family="Helvetica,sans-Serif" font-size="10.00">dpp::dispatcher</text>
</a>
</g>
</g>
<!-- Node14&#45;&gt;Node17 -->
<g id="edge20" class="edge">
<title>Node14&#45;&gt;Node17</title>
<path fill="none" stroke="#9a32cd" stroke-dasharray="5,2" d="M279.57,-484.34C322.22,-499.35 390.87,-527.01 442,-564.5 470.79,-585.61 496.93,-619.4 508.79,-635.86"/>
<polygon fill="#9a32cd" stroke="#9a32cd" points="280.69,-481.02 270.09,-481.06 278.4,-487.64 280.69,-481.02"/>
<text text-anchor="start" x="325.5" y="-710.5" font-family="Helvetica,sans-Serif" font-size="10.00"> application_command</text>
<text text-anchor="middle" x="381.5" y="-699.5" font-family="Helvetica,sans-Serif" font-size="10.00">_create</text>
<text text-anchor="start" x="325.5" y="-688.5" font-family="Helvetica,sans-Serif" font-size="10.00">application_command</text>
<text text-anchor="middle" x="381.5" y="-677.5" font-family="Helvetica,sans-Serif" font-size="10.00">_delete</text>
<text text-anchor="start" x="325.5" y="-666.5" font-family="Helvetica,sans-Serif" font-size="10.00">application_command</text>
<text text-anchor="middle" x="381.5" y="-655.5" font-family="Helvetica,sans-Serif" font-size="10.00">_update</text>
<text text-anchor="middle" x="381.5" y="-644.5" font-family="Helvetica,sans-Serif" font-size="10.00">button_click</text>
<text text-anchor="middle" x="381.5" y="-633.5" font-family="Helvetica,sans-Serif" font-size="10.00">channel_create</text>
<text text-anchor="middle" x="381.5" y="-622.5" font-family="Helvetica,sans-Serif" font-size="10.00">channel_delete</text>
<text text-anchor="middle" x="381.5" y="-611.5" font-family="Helvetica,sans-Serif" font-size="10.00">channel_pins_update</text>
<text text-anchor="middle" x="381.5" y="-600.5" font-family="Helvetica,sans-Serif" font-size="10.00">channel_update</text>
<text text-anchor="middle" x="381.5" y="-589.5" font-family="Helvetica,sans-Serif" font-size="10.00">guild_ban_add</text>
<text text-anchor="middle" x="381.5" y="-578.5" font-family="Helvetica,sans-Serif" font-size="10.00">guild_ban_remove</text>
<text text-anchor="middle" x="381.5" y="-567.5" font-family="Helvetica,sans-Serif" font-size="10.00">...</text>
</g>
<!-- Node15&#45;&gt;Node5 -->
<g id="edge15" class="edge">
<title>Node15&#45;&gt;Node5</title>
<path fill="none" stroke="#9a32cd" stroke-dasharray="5,2" d="M817.73,-678.69C864.96,-662.61 941.43,-631.09 992,-582.5 1029.2,-546.76 1052.05,-487.22 1059.91,-464.09"/>
<polygon fill="#9a32cd" stroke="#9a32cd" points="816.5,-675.41 808.12,-681.89 818.71,-682.05 816.5,-675.41"/>
<text text-anchor="middle" x="923.5" y="-665.5" font-family="Helvetica,sans-Serif" font-size="10.00"> creator</text>
</g>
<!-- Node16 -->
<g id="node16" class="node">
<title>Node16</title>
<g id="a_node16"><a xlink:title=" ">
<polygon fill="none" stroke="#bfbfbf" points="211,-909 211,-928 267,-928 267,-909 211,-909"/>
<text text-anchor="middle" x="239" y="-916" font-family="Helvetica,sans-Serif" font-size="10.00">uint32_t</text>
</a>
</g>
</g>
<!-- Node16&#45;&gt;Node5 -->
<g id="edge32" class="edge">
<title>Node16&#45;&gt;Node5</title>
<path fill="none" stroke="#9a32cd" stroke-dasharray="5,2" d="M277.31,-910.45C291,-907.67 306.66,-904.71 321,-902.5 376.69,-893.92 525.11,-904.19 573,-874.5 585.57,-866.7 578.71,-854.74 591,-846.5 629.66,-820.57 649.88,-842.34 694,-827.5 834.54,-780.24 895.76,-790.3 992,-677.5 1048.96,-610.74 1060.35,-497.88 1062.51,-464.24"/>
<polygon fill="#9a32cd" stroke="#9a32cd" points="276.36,-907.07 267.27,-912.52 277.77,-913.92 276.36,-907.07"/>
<text text-anchor="middle" x="642.5" y="-904.5" font-family="Helvetica,sans-Serif" font-size="10.00"> heartbeat_interval</text>
<text text-anchor="middle" x="642.5" y="-893.5" font-family="Helvetica,sans-Serif" font-size="10.00">intents</text>
<text text-anchor="middle" x="642.5" y="-882.5" font-family="Helvetica,sans-Serif" font-size="10.00">max_shards</text>
<text text-anchor="middle" x="642.5" y="-871.5" font-family="Helvetica,sans-Serif" font-size="10.00">reconnects</text>
<text text-anchor="middle" x="642.5" y="-860.5" font-family="Helvetica,sans-Serif" font-size="10.00">resumes</text>
<text text-anchor="middle" x="642.5" y="-849.5" font-family="Helvetica,sans-Serif" font-size="10.00">shard_id</text>
</g>
<!-- Node16&#45;&gt;Node15 -->
<g id="edge18" class="edge">
<title>Node16&#45;&gt;Node15</title>
<path fill="none" stroke="#9a32cd" stroke-dasharray="5,2" d="M264,-903.88C279.81,-894.66 301.18,-882.93 321,-874.5 380.63,-849.14 396.66,-844.19 460,-830.5 562.38,-808.38 604.28,-856.55 694,-802.5 706.04,-795.25 703.88,-787.97 712,-776.5 731.36,-749.14 754.66,-717.2 766.24,-701.4"/>
<polygon fill="#9a32cd" stroke="#9a32cd" points="262.21,-900.88 255.39,-908.98 265.78,-906.9 262.21,-900.88"/>
<text text-anchor="middle" x="516.5" y="-866.5" font-family="Helvetica,sans-Serif" font-size="10.00"> cluster_id</text>
<text text-anchor="middle" x="516.5" y="-855.5" font-family="Helvetica,sans-Serif" font-size="10.00">intents</text>
<text text-anchor="middle" x="516.5" y="-844.5" font-family="Helvetica,sans-Serif" font-size="10.00">maxclusters</text>
<text text-anchor="middle" x="516.5" y="-833.5" font-family="Helvetica,sans-Serif" font-size="10.00">numshards</text>
</g>
<!-- Node16&#45;&gt;Node18 -->
<g id="edge28" class="edge">
<title>Node16&#45;&gt;Node18</title>
<path fill="none" stroke="#9a32cd" stroke-dasharray="5,2" d="M266.8,-932.72C282.41,-940.75 302.58,-950.71 321,-958.5 373.57,-980.73 394.17,-970.37 442,-1001.5 451.75,-1007.84 450.57,-1013.69 460,-1020.5 469.14,-1027.1 480.23,-1032.69 490.09,-1036.98"/>
<polygon fill="#9a32cd" stroke="#9a32cd" points="268.22,-929.52 257.74,-928.01 264.99,-935.73 268.22,-929.52"/>
<text text-anchor="middle" x="381.5" y="-1004.5" font-family="Helvetica,sans-Serif" font-size="10.00"> flags</text>
</g>
<!-- Node16&#45;&gt;Node29 -->
<g id="edge47" class="edge">
<title>Node16&#45;&gt;Node29</title>
<path fill="none" stroke="#9a32cd" stroke-dasharray="5,2" d="M277.29,-925.68C333.76,-936.67 435.17,-956.87 442,-961.5 453.93,-969.6 447.39,-981.51 460,-988.5 508.14,-1015.2 883.94,-1010.18 1016.72,-1007.54"/>
<polygon fill="#9a32cd" stroke="#9a32cd" points="277.78,-922.21 267.3,-923.75 276.45,-929.09 277.78,-922.21"/>
<text text-anchor="middle" x="642.5" y="-1022.5" font-family="Helvetica,sans-Serif" font-size="10.00"> expire_grace_period</text>
<text text-anchor="middle" x="642.5" y="-1011.5" font-family="Helvetica,sans-Serif" font-size="10.00">subscriber_count</text>
</g>
<!-- Node17&#45;&gt;Node15 -->
<g id="edge19" class="edge">
<title>Node17&#45;&gt;Node15</title>
<path fill="none" stroke="#9a32cd" stroke-dasharray="5,2" d="M572.88,-649.43C607.88,-652.56 653.91,-657.89 694,-666.5 712.11,-670.39 731.98,-676.64 747.33,-681.92"/>
<polygon fill="#9a32cd" stroke="#9a32cd" points="573.12,-645.93 562.86,-648.56 572.52,-652.91 573.12,-645.93"/>
<text text-anchor="middle" x="642.5" y="-669.5" font-family="Helvetica,sans-Serif" font-size="10.00"> dispatch</text>
</g>
<!-- Node18&#45;&gt;Node15 -->
<g id="edge21" class="edge">
<title>Node18&#45;&gt;Node15</title>
<path fill="none" stroke="#9a32cd" stroke-dasharray="5,2" d="M532.78,-1028.75C546.87,-1013.03 568.91,-990.08 591,-973.5 632.85,-942.1 660.19,-956.43 694,-916.5 751.82,-848.2 768.67,-734.98 772.52,-701.26"/>
<polygon fill="#9a32cd" stroke="#9a32cd" points="529.8,-1026.84 525.81,-1036.65 535.05,-1031.46 529.8,-1026.84"/>
<text text-anchor="middle" x="642.5" y="-976.5" font-family="Helvetica,sans-Serif" font-size="10.00"> me</text>
</g>
<!-- Node18&#45;&gt;Node31 -->
<g id="edge52" class="edge">
<title>Node18&#45;&gt;Node31</title>
<path fill="none" stroke="#9a32cd" stroke-dasharray="5,2" d="M557.87,-1046.82C600.41,-1047.15 667.79,-1047.67 715.9,-1048.05"/>
<polygon fill="#9a32cd" stroke="#9a32cd" points="557.65,-1043.31 547.62,-1046.74 557.59,-1050.31 557.65,-1043.31"/>
<text text-anchor="middle" x="642.5" y="-1050.5" font-family="Helvetica,sans-Serif" font-size="10.00"> bot</text>
</g>
<!-- Node19&#45;&gt;Node18 -->
<g id="edge22" class="edge">
<title>Node19&#45;&gt;Node18</title>
<path fill="none" stroke="midnightblue" d="M292.4,-1121.51C334.04,-1117.82 393.17,-1109.64 442,-1091.5 465.28,-1082.85 489.28,-1066.5 503.27,-1056.07"/>
<polygon fill="midnightblue" stroke="midnightblue" points="291.89,-1118.04 282.21,-1122.35 292.47,-1125.01 291.89,-1118.04"/>
</g>
<!-- Node19&#45;&gt;Node29 -->
<g id="edge42" class="edge">
<title>Node19&#45;&gt;Node29</title>
<path fill="none" stroke="midnightblue" d="M292.32,-1125.67C396.34,-1127.45 636.38,-1128.94 837,-1110.5 906.49,-1104.11 930.74,-1118.91 992,-1085.5 1022.76,-1068.72 1046.97,-1033.33 1057.41,-1016.2"/>
<polygon fill="midnightblue" stroke="midnightblue" points="292.15,-1122.16 282.09,-1125.48 292.03,-1129.16 292.15,-1122.16"/>
</g>
<!-- Node20 -->
<g id="node20" class="node">
<title>Node20</title>
<g id="a_node20"><a xlink:title=" ">
<polygon fill="none" stroke="#bfbfbf" points="211,-1039 211,-1058 267,-1058 267,-1039 211,-1039"/>
<text text-anchor="middle" x="239" y="-1046" font-family="Helvetica,sans-Serif" font-size="10.00">uint16_t</text>
</a>
</g>
</g>
<!-- Node20&#45;&gt;Node18 -->
<g id="edge25" class="edge">
<title>Node20&#45;&gt;Node18</title>
<path fill="none" stroke="#9a32cd" stroke-dasharray="5,2" d="M277.2,-1048.23C332.27,-1047.83 434.42,-1047.09 485.21,-1046.72"/>
<polygon fill="#9a32cd" stroke="#9a32cd" points="277.14,-1044.73 267.17,-1048.3 277.2,-1051.73 277.14,-1044.73"/>
<text text-anchor="middle" x="381.5" y="-1050.5" font-family="Helvetica,sans-Serif" font-size="10.00"> discriminator</text>
</g>
<!-- Node21&#45;&gt;Node18 -->
<g id="edge26" class="edge">
<title>Node21&#45;&gt;Node18</title>
<path fill="none" stroke="#9a32cd" stroke-dasharray="5,2" d="M308.09,-1015.91C347.36,-1019.44 397.6,-1024.68 442,-1031.5 456.29,-1033.7 472,-1036.81 485.22,-1039.63"/>
<polygon fill="#9a32cd" stroke="#9a32cd" points="308.37,-1012.42 298.1,-1015.02 307.75,-1019.39 308.37,-1012.42"/>
<text text-anchor="middle" x="381.5" y="-1034.5" font-family="Helvetica,sans-Serif" font-size="10.00"> avatar</text>
</g>
<!-- Node22 -->
<g id="node22" class="node">
<title>Node22</title>
<g id="a_node22"><a xlink:title=" ">
<polygon fill="none" stroke="#bfbfbf" points="214,-1077 214,-1096 264,-1096 264,-1077 214,-1077"/>
<text text-anchor="middle" x="239" y="-1084" font-family="Helvetica,sans-Serif" font-size="10.00">uint8_t</text>
</a>
</g>
</g>
<!-- Node22&#45;&gt;Node18 -->
<g id="edge29" class="edge">
<title>Node22&#45;&gt;Node18</title>
<path fill="none" stroke="#9a32cd" stroke-dasharray="5,2" d="M274.08,-1082.75C314.31,-1078.17 383.18,-1069.88 442,-1060.5 456.24,-1058.23 471.95,-1055.3 485.18,-1052.7"/>
<polygon fill="#9a32cd" stroke="#9a32cd" points="273.55,-1079.28 264.01,-1083.88 274.34,-1086.24 273.55,-1079.28"/>
<text text-anchor="middle" x="381.5" y="-1079.5" font-family="Helvetica,sans-Serif" font-size="10.00"> refcount</text>
</g>
<!-- Node22&#45;&gt;Node29 -->
<g id="edge45" class="edge">
<title>Node22&#45;&gt;Node29</title>
<path fill="none" stroke="#9a32cd" stroke-dasharray="5,2" d="M274.09,-1089.07C288.55,-1090.04 305.59,-1091.02 321,-1091.5 374.75,-1093.16 388.25,-1093.13 442,-1091.5 686.91,-1084.07 760.79,-1134.62 992,-1053.5 1015.71,-1045.18 1039.24,-1027.18 1052.37,-1016.03"/>
<polygon fill="#9a32cd" stroke="#9a32cd" points="274.3,-1085.58 264.08,-1088.38 273.82,-1092.56 274.3,-1085.58"/>
<text text-anchor="middle" x="642.5" y="-1101.5" font-family="Helvetica,sans-Serif" font-size="10.00"> flags</text>
</g>
<!-- Node23 -->
<g id="node23" class="node">
<title>Node23</title>
<g id="a_node23"><a xlink:href="structdpp_1_1cache__policy__t.html" target="_top" xlink:title="Represents the caching policy of the cluster.">
<polygon fill="none" stroke="black" points="460,-721 460,-740 573,-740 573,-721 460,-721"/>
<text text-anchor="middle" x="516.5" y="-728" font-family="Helvetica,sans-Serif" font-size="10.00">dpp::cache_policy_t</text>
</a>
</g>
</g>
<!-- Node23&#45;&gt;Node15 -->
<g id="edge30" class="edge">
<title>Node23&#45;&gt;Node15</title>
<path fill="none" stroke="#9a32cd" stroke-dasharray="5,2" d="M583.27,-721.72C616.5,-717.15 657.44,-711.31 694,-705.5 708.12,-703.26 723.61,-700.58 737.13,-698.17"/>
<polygon fill="#9a32cd" stroke="#9a32cd" points="582.65,-718.27 573.22,-723.1 583.6,-725.21 582.65,-718.27"/>
<text text-anchor="middle" x="642.5" y="-722.5" font-family="Helvetica,sans-Serif" font-size="10.00"> cache_policy</text>
</g>
<!-- Node24 -->
<g id="node24" class="node">
<title>Node24</title>
<g id="a_node24"><a xlink:title=" ">
<polygon fill="none" stroke="#bfbfbf" points="175,-781 175,-800 303,-800 303,-781 175,-781"/>
<text text-anchor="middle" x="239" y="-788" font-family="Helvetica,sans-Serif" font-size="10.00">cache_policy_setting_t</text>
</a>
</g>
</g>
<!-- Node24&#45;&gt;Node23 -->
<g id="edge31" class="edge">
<title>Node24&#45;&gt;Node23</title>
<path fill="none" stroke="#9a32cd" stroke-dasharray="5,2" d="M293.67,-778.81C345.58,-767.51 423.27,-750.59 471.6,-740.06"/>
<polygon fill="#9a32cd" stroke="#9a32cd" points="292.68,-775.44 283.65,-780.99 294.17,-782.28 292.68,-775.44"/>
<text text-anchor="middle" x="381.5" y="-797.5" font-family="Helvetica,sans-Serif" font-size="10.00"> emoji_policy</text>
<text text-anchor="middle" x="381.5" y="-786.5" font-family="Helvetica,sans-Serif" font-size="10.00">role_policy</text>
<text text-anchor="middle" x="381.5" y="-775.5" font-family="Helvetica,sans-Serif" font-size="10.00">user_policy</text>
</g>
<!-- Node25 -->
<g id="node25" class="node">
<title>Node25</title>
<g id="a_node25"><a xlink:title=" ">
<polygon fill="none" stroke="#bfbfbf" points="718,-445 718,-464 831,-464 831,-445 718,-445"/>
<text text-anchor="middle" x="774.5" y="-452" font-family="Helvetica,sans-Serif" font-size="10.00">native_handle_type</text>
</a>
</g>
</g>
<!-- Node25&#45;&gt;Node5 -->
<g id="edge34" class="edge">
<title>Node25&#45;&gt;Node5</title>
<path fill="none" stroke="#9a32cd" stroke-dasharray="5,2" d="M841.54,-454.5C892.59,-454.5 962.32,-454.5 1009.81,-454.5"/>
<polygon fill="#9a32cd" stroke="#9a32cd" points="841.27,-451 831.27,-454.5 841.27,-458 841.27,-451"/>
<text text-anchor="middle" x="923.5" y="-457.5" font-family="Helvetica,sans-Serif" font-size="10.00"> thread_id</text>
</g>
<!-- Node26 -->
<g id="node26" class="node">
<title>Node26</title>
<g id="a_node26"><a xlink:title=" ">
<polygon fill="none" stroke="#bfbfbf" points="740,-407 740,-426 809,-426 809,-407 740,-407"/>
<text text-anchor="middle" x="774.5" y="-414" font-family="Helvetica,sans-Serif" font-size="10.00">std::mutex</text>
</a>
</g>
</g>
<!-- Node26&#45;&gt;Node5 -->
<g id="edge37" class="edge">
<title>Node26&#45;&gt;Node5</title>
<path fill="none" stroke="#9a32cd" stroke-dasharray="5,2" d="M819.05,-419.81C862.89,-423.45 932.38,-430.06 992,-439.5 1001.58,-441.02 1011.82,-442.98 1021.46,-444.98"/>
<polygon fill="#9a32cd" stroke="#9a32cd" points="819.27,-416.31 809.02,-418.99 818.7,-423.29 819.27,-416.31"/>
<text text-anchor="middle" x="923.5" y="-442.5" font-family="Helvetica,sans-Serif" font-size="10.00"> voice_mutex</text>
</g>
<!-- Node27 -->
<g id="node27" class="node">
<title>Node27</title>
<g id="a_node27"><a xlink:title=" ">
<polygon fill="none" stroke="#bfbfbf" points="749.5,-521 749.5,-540 799.5,-540 799.5,-521 749.5,-521"/>
<text text-anchor="middle" x="774.5" y="-528" font-family="Helvetica,sans-Serif" font-size="10.00">double</text>
</a>
</g>
</g>
<!-- Node27&#45;&gt;Node5 -->
<g id="edge38" class="edge">
<title>Node27&#45;&gt;Node5</title>
<path fill="none" stroke="#9a32cd" stroke-dasharray="5,2" d="M809.8,-530.3C853.45,-529.03 930.56,-523.37 992,-500.5 1015.13,-491.89 1038.48,-474.77 1051.8,-464.02"/>
<polygon fill="#9a32cd" stroke="#9a32cd" points="809.63,-526.8 799.71,-530.53 809.79,-533.8 809.63,-526.8"/>
<text text-anchor="middle" x="923.5" y="-529.5" font-family="Helvetica,sans-Serif" font-size="10.00"> websocket_ping</text>
</g>
<!-- Node28 -->
<g id="node28" class="node">
<title>Node28</title>
<g id="a_node28"><a xlink:title=" ">
<polygon fill="none" stroke="#bfbfbf" points="724,-483 724,-502 825,-502 825,-483 724,-483"/>
<text text-anchor="middle" x="774.5" y="-490" font-family="Helvetica,sans-Serif" font-size="10.00">unordered_map&lt;</text>
</a>
</g>
</g>
<!-- Node28&#45;&gt;Node5 -->
<g id="edge40" class="edge">
<title>Node28&#45;&gt;Node5</title>
<path fill="none" stroke="#9a32cd" stroke-dasharray="5,2" d="M835.28,-487.81C878.87,-483.98 939.29,-477.84 992,-469.5 1001.58,-467.98 1011.82,-466.02 1021.46,-464.02"/>
<polygon fill="#9a32cd" stroke="#9a32cd" points="834.79,-484.33 825.13,-488.68 835.4,-491.31 834.79,-484.33"/>
<text text-anchor="middle" x="923.5" y="-488.5" font-family="Helvetica,sans-Serif" font-size="10.00"> connecting_voice_channels</text>
</g>
<!-- Node29&#45;&gt;Node1 -->
<g id="edge41" class="edge">
<title>Node29&#45;&gt;Node1</title>
<path fill="none" stroke="#9a32cd" stroke-dasharray="5,2" d="M1079.97,-989.11C1139.47,-920.01 1358.22,-665.96 1403.69,-613.15"/>
<polygon fill="#9a32cd" stroke="#9a32cd" points="1077.11,-987.07 1073.24,-996.94 1082.41,-991.64 1077.11,-987.07"/>
<text text-anchor="middle" x="1243" y="-873.5" font-family="Helvetica,sans-Serif" font-size="10.00"> updated_integration</text>
</g>
<!-- Node30 -->
<g id="node30" class="node">
<title>Node30</title>
<g id="a_node30"><a xlink:title=" ">
<polygon fill="none" stroke="#bfbfbf" points="726,-959 726,-978 823,-978 823,-959 726,-959"/>
<text text-anchor="middle" x="774.5" y="-966" font-family="Helvetica,sans-Serif" font-size="10.00">integration_type</text>
</a>
</g>
</g>
<!-- Node30&#45;&gt;Node29 -->
<g id="edge44" class="edge">
<title>Node30&#45;&gt;Node29</title>
<path fill="none" stroke="#9a32cd" stroke-dasharray="5,2" d="M833.5,-967.63C877.43,-968.01 939.04,-970.8 992,-981.5 1008.91,-984.91 1027.26,-991.45 1041.06,-996.99"/>
<polygon fill="#9a32cd" stroke="#9a32cd" points="833.31,-964.13 823.29,-967.58 833.28,-971.13 833.31,-964.13"/>
<text text-anchor="middle" x="923.5" y="-984.5" font-family="Helvetica,sans-Serif" font-size="10.00"> type</text>
</g>
<!-- Node31&#45;&gt;Node29 -->
<g id="edge49" class="edge">
<title>Node31&#45;&gt;Node29</title>
<path fill="none" stroke="#9a32cd" stroke-dasharray="5,2" d="M843.1,-1040.92C885.89,-1035.84 942.31,-1028.6 992,-1020.5 1000.06,-1019.19 1008.6,-1017.64 1016.87,-1016.06"/>
<polygon fill="#9a32cd" stroke="#9a32cd" points="842.61,-1037.46 833.09,-1042.1 843.43,-1044.41 842.61,-1037.46"/>
<text text-anchor="middle" x="923.5" y="-1041.5" font-family="Helvetica,sans-Serif" font-size="10.00"> app</text>
</g>
</g>
</svg>
        <g id="navigator" transform="translate(0 0)" fill="#404254">
                <rect fill="#f2f5e9" fill-opacity="0.5" stroke="#606060" stroke-width=".5" x="0" y="0" width="60" height="60"/>
                <use id="zoomplus" xlink:href="#zoomPlus" x="17" y="9" onmousedown="handleZoom(evt,'in')"/>
                <use id="zoomminus" xlink:href="#zoomMin" x="42" y="9" onmousedown="handleZoom(evt,'out')"/>
                <use id="reset" xlink:href="#resetDef" x="30" y="36" onmousedown="handleReset()"/>
                <g id="arrowUp" xlink:href="#dirArrow" transform="translate(30 24)" onmousedown="handlePan(0,-1)">
                  <use xlink:href="#rim" fill="#404040">
                        <set attributeName="fill" to="#808080" begin="arrowUp.mouseover" end="arrowUp.mouseout"/>
                  </use>
                  <path fill="none" stroke="white" stroke-width="1.5" d="M0,-3.0v7 M-2.5,-0.5L0,-3.0L2.5,-0.5"/>
                </g>
                <g id="arrowRight" xlink:href="#dirArrow" transform="rotate(90) translate(36 -43)" onmousedown="handlePan(1,0)">
                  <use xlink:href="#rim" fill="#404040">
                        <set attributeName="fill" to="#808080" begin="arrowRight.mouseover" end="arrowRight.mouseout"/>
                  </use>
                  <path fill="none" stroke="white" stroke-width="1.5" d="M0,-3.0v7 M-2.5,-0.5L0,-3.0L2.5,-0.5"/>
                </g>
                <g id="arrowDown" xlink:href="#dirArrow" transform="rotate(180) translate(-30 -48)" onmousedown="handlePan(0,1)">
                  <use xlink:href="#rim" fill="#404040">
                        <set attributeName="fill" to="#808080" begin="arrowDown.mouseover" end="arrowDown.mouseout"/>
                  </use>
                  <path fill="none" stroke="white" stroke-width="1.5" d="M0,-3.0v7 M-2.5,-0.5L0,-3.0L2.5,-0.5"/>
                </g>
                <g id="arrowLeft" xlink:href="#dirArrow" transform="rotate(270) translate(-36 17)" onmousedown="handlePan(-1,0)">
                  <use xlink:href="#rim" fill="#404040">
                        <set attributeName="fill" to="#808080" begin="arrowLeft.mouseover" end="arrowLeft.mouseout"/>
                  </use>
                  <path fill="none" stroke="white" stroke-width="1.5" d="M0,-3.0v7 M-2.5,-0.5L0,-3.0L2.5,-0.5"/>
                </g>
        </g>
        <svg viewBox="0 0 15 15" width="100%" height="30px" preserveAspectRatio="xMaxYMin meet">
         <g id="arrow_out" transform="scale(0.3 0.3)">
          <a xlink:href="structdpp_1_1integration__update__t__coll__graph_org.svg" target="_base">
           <rect id="button" ry="5" rx="5" y="6" x="6" height="38" width="38"
                fill="#f2f5e9" fill-opacity="0.5" stroke="#606060" stroke-width="1.0"/>
           <path id="arrow"
             d="M 11.500037,31.436501 C 11.940474,20.09759 22.043105,11.32322 32.158766,21.979434 L 37.068811,17.246167 C 37.068811,17.246167 37.088388,32 37.088388,32 L 22.160133,31.978069 C 22.160133,31.978069 26.997745,27.140456 26.997745,27.140456 C 18.528582,18.264221 13.291696,25.230495 11.500037,31.436501 z"
             style="fill:#404040;"/>
          </a>
         </g>
        </svg>
</svg>
