<?xml version="1.0" encoding="UTF-8" standalone="no"?>
<!DOCTYPE svg PUBLIC "-//W3C//DTD SVG 1.1//EN"
 "http://www.w3.org/Graphics/SVG/1.1/DTD/svg11.dtd">
<!-- Generated by graphviz version 2.38.0 (20140413.2041)
 -->
<!-- Title: dpp::presence_update_t Pages: 1 -->
<svg width="1354pt" height="1118pt"
 viewBox="0.00 0.00 1354.00 1117.96" xmlns="http://www.w3.org/2000/svg" xmlns:xlink="http://www.w3.org/1999/xlink">
<g id="graph0" class="graph" transform="scale(1 1) rotate(0) translate(4 1113.96)">
<title>dpp::presence_update_t</title>
<polygon fill="white" stroke="none" points="-4,4 -4,-1113.96 1350,-1113.96 1350,4 -4,4"/>
<!-- Node1 -->
<g id="node1" class="node"><title>Node1</title>
<g id="a_node1"><a xlink:title="Presence update.">
<polygon fill="#bfbfbf" stroke="black" points="1225,-196.46 1225,-215.46 1346,-215.46 1346,-196.46 1225,-196.46"/>
<text text-anchor="middle" x="1285.5" y="-203.46" font-family="Helvetica,sans-Serif" font-size="10.00">dpp::presence_update_t</text>
</a>
</g>
</g>
<!-- Node2 -->
<g id="node2" class="node"><title>Node2</title>
<g id="a_node2"><a xlink:href="structdpp_1_1event__dispatch__t.html" target="_top" xlink:title="Base event parameter struct.">
<polygon fill="white" stroke="black" points="1075,-399.46 1075,-418.46 1188,-418.46 1188,-399.46 1075,-399.46"/>
<text text-anchor="middle" x="1131.5" y="-406.46" font-family="Helvetica,sans-Serif" font-size="10.00">dpp::event_dispatch_t</text>
</a>
</g>
</g>
<!-- Node2&#45;&gt;Node1 -->
<g id="edge1" class="edge"><title>Node2&#45;&gt;Node1</title>
<path fill="none" stroke="midnightblue" d="M1145.67,-391.376C1176.63,-350.027 1253.24,-247.706 1277.21,-215.694"/>
<polygon fill="midnightblue" stroke="midnightblue" points="1142.82,-389.339 1139.63,-399.441 1148.42,-393.534 1142.82,-389.339"/>
</g>
<!-- Node3 -->
<g id="node3" class="node"><title>Node3</title>
<g id="a_node3"><a xlink:title=" ">
<polygon fill="white" stroke="#bfbfbf" points="191,-445.46 191,-464.46 251,-464.46 251,-445.46 191,-445.46"/>
<text text-anchor="middle" x="221" y="-452.46" font-family="Helvetica,sans-Serif" font-size="10.00">std::string</text>
</a>
</g>
</g>
<!-- Node3&#45;&gt;Node2 -->
<g id="edge2" class="edge"><title>Node3&#45;&gt;Node2</title>
<path fill="none" stroke="#9a32cd" stroke-dasharray="5,2" d="M261.353,-446.634C327.542,-433.379 465.494,-408.96 583.5,-408.96 583.5,-408.96 583.5,-408.96 968,-408.96 1003.55,-408.96 1043.47,-408.96 1074.85,-408.96"/>
<polygon fill="#9a32cd" stroke="#9a32cd" points="260.465,-443.243 251.36,-448.66 261.856,-450.103 260.465,-443.243"/>
<text text-anchor="middle" x="701" y="-411.96" font-family="Helvetica,sans-Serif" font-size="10.00"> raw_event</text>
</g>
<!-- Node5 -->
<g id="node5" class="node"><title>Node5</title>
<g id="a_node5"><a xlink:href="classdpp_1_1discord__client.html" target="_top" xlink:title="Implements a discord client. Each discord_client connects to one shard and derives from a websocket c...">
<polygon fill="white" stroke="black" points="918,-849.46 918,-868.46 1016,-868.46 1016,-849.46 918,-849.46"/>
<text text-anchor="middle" x="967" y="-856.46" font-family="Helvetica,sans-Serif" font-size="10.00">dpp::discord_client</text>
</a>
</g>
</g>
<!-- Node3&#45;&gt;Node5 -->
<g id="edge37" class="edge"><title>Node3&#45;&gt;Node5</title>
<path fill="none" stroke="#9a32cd" stroke-dasharray="5,2" d="M261.079,-456.302C298.5,-458.619 356.049,-464.911 403,-481.96 411.813,-485.16 412.229,-489.647 421,-492.96 507.536,-525.65 543.616,-486.888 626,-528.96 790.834,-613.137 928.563,-804.264 959.502,-849.318"/>
<polygon fill="#9a32cd" stroke="#9a32cd" points="261.261,-452.807 251.083,-455.749 260.874,-459.797 261.261,-452.807"/>
<text text-anchor="middle" x="584.5" y="-542.96" font-family="Helvetica,sans-Serif" font-size="10.00"> sessionid</text>
<text text-anchor="middle" x="584.5" y="-531.96" font-family="Helvetica,sans-Serif" font-size="10.00">token</text>
</g>
<!-- Node7 -->
<g id="node7" class="node"><title>Node7</title>
<g id="a_node7"><a xlink:href="classdpp_1_1ssl__client.html" target="_top" xlink:title="Implements a simple non&#45;blocking SSL stream client.">
<polygon fill="white" stroke="black" points="433,-935.46 433,-954.46 513,-954.46 513,-935.46 433,-935.46"/>
<text text-anchor="middle" x="473" y="-942.46" font-family="Helvetica,sans-Serif" font-size="10.00">dpp::ssl_client</text>
</a>
</g>
</g>
<!-- Node3&#45;&gt;Node7 -->
<g id="edge7" class="edge"><title>Node3&#45;&gt;Node7</title>
<path fill="none" stroke="#9a32cd" stroke-dasharray="5,2" d="M233.658,-473.418C247.062,-495.632 268.556,-534.507 279,-570.96 289.889,-608.967 274.538,-715.424 297,-747.96 326.925,-791.305 371.675,-758.615 403,-800.96 431.679,-839.729 395.592,-866.972 421,-907.96 428.377,-919.861 441.127,-929.111 452.033,-935.385"/>
<polygon fill="#9a32cd" stroke="#9a32cd" points="236.523,-471.395 228.301,-464.712 230.561,-475.063 236.523,-471.395"/>
<text text-anchor="middle" x="350" y="-847.96" font-family="Helvetica,sans-Serif" font-size="10.00"> buffer</text>
<text text-anchor="middle" x="350" y="-836.96" font-family="Helvetica,sans-Serif" font-size="10.00">cipher</text>
<text text-anchor="middle" x="350" y="-825.96" font-family="Helvetica,sans-Serif" font-size="10.00">hostname</text>
<text text-anchor="middle" x="350" y="-814.96" font-family="Helvetica,sans-Serif" font-size="10.00">obuffer</text>
<text text-anchor="middle" x="350" y="-803.96" font-family="Helvetica,sans-Serif" font-size="10.00">port</text>
</g>
<!-- Node16 -->
<g id="node16" class="node"><title>Node16</title>
<g id="a_node16"><a xlink:href="classdpp_1_1cluster.html" target="_top" xlink:title="The cluster class represents a group of shards and a command queue for sending and receiving commands...">
<polygon fill="white" stroke="black" points="667,-483.46 667,-502.46 735,-502.46 735,-483.46 667,-483.46"/>
<text text-anchor="middle" x="701" y="-490.46" font-family="Helvetica,sans-Serif" font-size="10.00">dpp::cluster</text>
</a>
</g>
</g>
<!-- Node3&#45;&gt;Node16 -->
<g id="edge17" class="edge"><title>Node3&#45;&gt;Node16</title>
<path fill="none" stroke="#9a32cd" stroke-dasharray="5,2" d="M261.401,-450.366C298.495,-447.214 355.323,-445.426 403,-456.96 411.694,-459.063 412.416,-463.446 421,-465.96 473.331,-481.286 488.73,-473.649 543,-478.96 585.759,-483.144 635.121,-487.462 666.905,-490.175"/>
<polygon fill="#9a32cd" stroke="#9a32cd" points="260.655,-446.92 251.02,-451.328 261.301,-453.89 260.655,-446.92"/>
<text text-anchor="middle" x="473" y="-480.96" font-family="Helvetica,sans-Serif" font-size="10.00"> token</text>
</g>
<!-- Node19 -->
<g id="node19" class="node"><title>Node19</title>
<g id="a_node19"><a xlink:href="classdpp_1_1user.html" target="_top" xlink:title="Represents a user on discord. May or may not be a member of a dpp::guild.">
<polygon fill="white" stroke="black" points="444.5,-208.46 444.5,-227.46 501.5,-227.46 501.5,-208.46 444.5,-208.46"/>
<text text-anchor="middle" x="473" y="-215.46" font-family="Helvetica,sans-Serif" font-size="10.00">dpp::user</text>
</a>
</g>
</g>
<!-- Node3&#45;&gt;Node19 -->
<g id="edge25" class="edge"><title>Node3&#45;&gt;Node19</title>
<path fill="none" stroke="#9a32cd" stroke-dasharray="5,2" d="M238.649,-437.52C250.556,-424.624 266.602,-406.355 279,-388.96 288.247,-375.986 286.602,-370.031 297,-357.96 323.408,-327.301 422.431,-254.041 458.635,-227.646"/>
<polygon fill="#9a32cd" stroke="#9a32cd" points="235.78,-435.462 231.502,-445.155 240.891,-440.246 235.78,-435.462"/>
<text text-anchor="middle" x="350" y="-360.96" font-family="Helvetica,sans-Serif" font-size="10.00"> username</text>
</g>
<!-- Node4 -->
<g id="node4" class="node"><title>Node4</title>
<g id="a_node4"><a xlink:title=" ">
<polygon fill="white" stroke="#bfbfbf" points="0,-933.96 0,-963.96 95,-963.96 95,-933.96 0,-933.96"/>
<text text-anchor="start" x="8" y="-951.96" font-family="Helvetica,sans-Serif" font-size="10.00">std::basic_string&lt;</text>
<text text-anchor="middle" x="47.5" y="-940.96" font-family="Helvetica,sans-Serif" font-size="10.00"> Char &gt;</text>
</a>
</g>
</g>
<!-- Node4&#45;&gt;Node3 -->
<g id="edge3" class="edge"><title>Node4&#45;&gt;Node3</title>
<path fill="none" stroke="midnightblue" d="M54.5621,-923.981C69.7473,-862.736 111.887,-700.649 163,-570.96 179.044,-530.252 203.718,-484.255 214.566,-464.646"/>
<polygon fill="midnightblue" stroke="midnightblue" points="51.1138,-923.347 52.1222,-933.894 57.911,-925.02 51.1138,-923.347"/>
</g>
<!-- Node5&#45;&gt;Node2 -->
<g id="edge4" class="edge"><title>Node5&#45;&gt;Node2</title>
<path fill="none" stroke="#9a32cd" stroke-dasharray="5,2" d="M974.976,-839.641C1002.97,-762.125 1106.6,-475.135 1127,-418.648"/>
<polygon fill="#9a32cd" stroke="#9a32cd" points="971.65,-838.548 971.545,-849.143 978.234,-840.926 971.65,-838.548"/>
<text text-anchor="middle" x="1045.5" y="-677.96" font-family="Helvetica,sans-Serif" font-size="10.00"> from</text>
</g>
<!-- Node6 -->
<g id="node6" class="node"><title>Node6</title>
<g id="a_node6"><a xlink:href="classdpp_1_1websocket__client.html" target="_top" xlink:title="Implements a websocket client based on the SSL client.">
<polygon fill="white" stroke="black" points="644,-982.46 644,-1001.46 758,-1001.46 758,-982.46 644,-982.46"/>
<text text-anchor="middle" x="701" y="-989.46" font-family="Helvetica,sans-Serif" font-size="10.00">dpp::websocket_client</text>
</a>
</g>
</g>
<!-- Node6&#45;&gt;Node5 -->
<g id="edge5" class="edge"><title>Node6&#45;&gt;Node5</title>
<path fill="none" stroke="midnightblue" d="M768.235,-999.304C809.245,-1000.56 861.281,-995.886 900,-970.96 938.334,-946.282 957.265,-890.816 963.546,-868.514"/>
<polygon fill="midnightblue" stroke="midnightblue" points="768.202,-995.799 758.061,-998.866 767.902,-1002.79 768.202,-995.799"/>
</g>
<!-- Node7&#45;&gt;Node6 -->
<g id="edge6" class="edge"><title>Node7&#45;&gt;Node6</title>
<path fill="none" stroke="midnightblue" d="M523.15,-955.181C562.031,-963.267 615.924,-974.475 653.971,-982.387"/>
<polygon fill="midnightblue" stroke="midnightblue" points="523.611,-951.703 513.108,-953.093 522.186,-958.556 523.611,-951.703"/>
</g>
<!-- Node8 -->
<g id="node8" class="node"><title>Node8</title>
<g id="a_node8"><a xlink:title=" ">
<polygon fill="white" stroke="#bfbfbf" points="203.5,-1040.46 203.5,-1059.46 238.5,-1059.46 238.5,-1040.46 203.5,-1040.46"/>
<text text-anchor="middle" x="221" y="-1047.46" font-family="Helvetica,sans-Serif" font-size="10.00">bool</text>
</a>
</g>
</g>
<!-- Node8&#45;&gt;Node5 -->
<g id="edge40" class="edge"><title>Node8&#45;&gt;Node5</title>
<path fill="none" stroke="#9a32cd" stroke-dasharray="5,2" d="M248.842,-1051.48C361.111,-1057.34 792.204,-1074.53 900,-999.96 946.235,-967.978 960.908,-894.885 964.786,-868.599"/>
<polygon fill="#9a32cd" stroke="#9a32cd" points="248.884,-1047.98 238.711,-1050.94 248.509,-1054.97 248.884,-1047.98"/>
<text text-anchor="middle" x="584.5" y="-1059.96" font-family="Helvetica,sans-Serif" font-size="10.00"> ready</text>
</g>
<!-- Node8&#45;&gt;Node7 -->
<g id="edge8" class="edge"><title>Node8&#45;&gt;Node7</title>
<path fill="none" stroke="#9a32cd" stroke-dasharray="5,2" d="M248.223,-1040.89C262.539,-1036.11 280.635,-1030.34 297,-1025.96 343.566,-1013.49 359.726,-1024.2 403,-1002.96 427.724,-990.823 451.066,-967.96 463.24,-954.856"/>
<polygon fill="#9a32cd" stroke="#9a32cd" points="246.897,-1037.64 238.546,-1044.16 249.14,-1044.27 246.897,-1037.64"/>
<text text-anchor="middle" x="350" y="-1028.96" font-family="Helvetica,sans-Serif" font-size="10.00"> nonblocking</text>
</g>
<!-- Node9 -->
<g id="node9" class="node"><title>Node9</title>
<g id="a_node9"><a xlink:title=" ">
<polygon fill="white" stroke="#bfbfbf" points="206.5,-964.46 206.5,-983.46 235.5,-983.46 235.5,-964.46 206.5,-964.46"/>
<text text-anchor="middle" x="221" y="-971.46" font-family="Helvetica,sans-Serif" font-size="10.00">int</text>
</a>
</g>
</g>
<!-- Node9&#45;&gt;Node7 -->
<g id="edge9" class="edge"><title>Node9&#45;&gt;Node7</title>
<path fill="none" stroke="#9a32cd" stroke-dasharray="5,2" d="M245.508,-968.085C260.216,-964.624 279.607,-960.449 297,-957.96 343.444,-951.312 397.338,-947.958 432.913,-946.341"/>
<polygon fill="#9a32cd" stroke="#9a32cd" points="244.623,-964.698 235.722,-970.445 246.264,-971.503 244.623,-964.698"/>
<text text-anchor="middle" x="350" y="-960.96" font-family="Helvetica,sans-Serif" font-size="10.00"> sfd</text>
</g>
<!-- Node10 -->
<g id="node10" class="node"><title>Node10</title>
<g id="a_node10"><a xlink:href="classdpp_1_1opensslcontext.html" target="_top" xlink:title=" ">
<polygon fill="white" stroke="black" points="169,-1002.46 169,-1021.46 273,-1021.46 273,-1002.46 169,-1002.46"/>
<text text-anchor="middle" x="221" y="-1009.46" font-family="Helvetica,sans-Serif" font-size="10.00">dpp::opensslcontext</text>
</a>
</g>
</g>
<!-- Node10&#45;&gt;Node7 -->
<g id="edge10" class="edge"><title>Node10&#45;&gt;Node7</title>
<path fill="none" stroke="#9a32cd" stroke-dasharray="5,2" d="M266.429,-999.744C276.461,-997.088 287.078,-994.358 297,-991.96 343.858,-980.635 356.594,-982.013 403,-968.96 417.773,-964.804 433.996,-959.215 446.998,-954.476"/>
<polygon fill="#9a32cd" stroke="#9a32cd" points="265.397,-996.396 256.64,-1002.36 267.204,-1003.16 265.397,-996.396"/>
<text text-anchor="middle" x="350" y="-994.96" font-family="Helvetica,sans-Serif" font-size="10.00"> ssl</text>
</g>
<!-- Node11 -->
<g id="node11" class="node"><title>Node11</title>
<g id="a_node11"><a xlink:title=" ">
<polygon fill="white" stroke="#bfbfbf" points="26.5,-1030.46 26.5,-1049.46 68.5,-1049.46 68.5,-1030.46 26.5,-1030.46"/>
<text text-anchor="middle" x="47.5" y="-1037.46" font-family="Helvetica,sans-Serif" font-size="10.00">SSL *</text>
</a>
</g>
</g>
<!-- Node11&#45;&gt;Node10 -->
<g id="edge11" class="edge"><title>Node11&#45;&gt;Node10</title>
<path fill="none" stroke="#9a32cd" stroke-dasharray="5,2" d="M78.4339,-1035.07C103.293,-1031.01 139.218,-1025.15 168.657,-1020.34"/>
<polygon fill="#9a32cd" stroke="#9a32cd" points="77.8142,-1031.63 68.5089,-1036.69 78.9422,-1038.54 77.8142,-1031.63"/>
<text text-anchor="middle" x="129" y="-1032.96" font-family="Helvetica,sans-Serif" font-size="10.00"> ssl</text>
</g>
<!-- Node12 -->
<g id="node12" class="node"><title>Node12</title>
<g id="a_node12"><a xlink:title=" ">
<polygon fill="white" stroke="#bfbfbf" points="13.5,-992.46 13.5,-1011.46 81.5,-1011.46 81.5,-992.46 13.5,-992.46"/>
<text text-anchor="middle" x="47.5" y="-999.46" font-family="Helvetica,sans-Serif" font-size="10.00">SSL_CTX *</text>
</a>
</g>
</g>
<!-- Node12&#45;&gt;Node10 -->
<g id="edge12" class="edge"><title>Node12&#45;&gt;Node10</title>
<path fill="none" stroke="#9a32cd" stroke-dasharray="5,2" d="M91.5763,-1004.06C108.265,-1004.9 127.526,-1005.92 145,-1006.96 152.686,-1007.42 160.813,-1007.93 168.769,-1008.44"/>
<polygon fill="#9a32cd" stroke="#9a32cd" points="91.72,-1000.56 81.5568,-1003.55 91.3684,-1007.55 91.72,-1000.56"/>
<text text-anchor="middle" x="129" y="-1009.96" font-family="Helvetica,sans-Serif" font-size="10.00"> ctx</text>
</g>
<!-- Node13 -->
<g id="node13" class="node"><title>Node13</title>
<g id="a_node13"><a xlink:title=" ">
<polygon fill="white" stroke="#bfbfbf" points="199,-830.46 199,-849.46 243,-849.46 243,-830.46 199,-830.46"/>
<text text-anchor="middle" x="221" y="-837.46" font-family="Helvetica,sans-Serif" font-size="10.00">time_t</text>
</a>
</g>
</g>
<!-- Node13&#45;&gt;Node5 -->
<g id="edge34" class="edge"><title>Node13&#45;&gt;Node5</title>
<path fill="none" stroke="#9a32cd" stroke-dasharray="5,2" d="M253.034,-840.71C320.751,-842.35 486.857,-846.396 626,-849.96 730.039,-852.624 851.981,-855.886 917.86,-857.66"/>
<polygon fill="#9a32cd" stroke="#9a32cd" points="253.111,-837.211 243.029,-840.468 252.942,-844.209 253.111,-837.211"/>
<text text-anchor="middle" x="584.5" y="-863.96" font-family="Helvetica,sans-Serif" font-size="10.00"> last_heartbeat</text>
<text text-anchor="middle" x="584.5" y="-852.96" font-family="Helvetica,sans-Serif" font-size="10.00">last_heartbeat_ack</text>
</g>
<!-- Node13&#45;&gt;Node7 -->
<g id="edge13" class="edge"><title>Node13&#45;&gt;Node7</title>
<path fill="none" stroke="#9a32cd" stroke-dasharray="5,2" d="M253.2,-847.353C290.083,-856.716 352.792,-874.61 403,-898.96 424.245,-909.263 446.587,-925.244 459.902,-935.399"/>
<polygon fill="#9a32cd" stroke="#9a32cd" points="253.619,-843.851 243.07,-844.832 251.928,-850.644 253.619,-843.851"/>
<text text-anchor="middle" x="350" y="-901.96" font-family="Helvetica,sans-Serif" font-size="10.00"> last_tick</text>
</g>
<!-- Node13&#45;&gt;Node16 -->
<g id="edge18" class="edge"><title>Node13&#45;&gt;Node16</title>
<path fill="none" stroke="#9a32cd" stroke-dasharray="5,2" d="M232.642,-821.572C245.367,-801.235 268.555,-768.968 297,-750.96 338.17,-724.895 358.113,-741.92 403,-722.96 509.516,-677.968 539.651,-665.861 626,-588.96 656.33,-561.949 682.988,-521.101 694.271,-502.633"/>
<polygon fill="#9a32cd" stroke="#9a32cd" points="229.585,-819.865 227.404,-830.233 235.574,-823.487 229.585,-819.865"/>
<text text-anchor="middle" x="473" y="-717.96" font-family="Helvetica,sans-Serif" font-size="10.00"> last_identify</text>
</g>
<!-- Node14 -->
<g id="node14" class="node"><title>Node14</title>
<g id="a_node14"><a xlink:title=" ">
<polygon fill="white" stroke="#bfbfbf" points="22,-182.46 22,-201.46 73,-201.46 73,-182.46 22,-182.46"/>
<text text-anchor="middle" x="47.5" y="-189.46" font-family="Helvetica,sans-Serif" font-size="10.00">uint64_t</text>
</a>
</g>
</g>
<!-- Node14&#45;&gt;Node5 -->
<g id="edge36" class="edge"><title>Node14&#45;&gt;Node5</title>
<path fill="none" stroke="#9a32cd" stroke-dasharray="5,2" d="M48.984,-212.014C51.8388,-312.877 69.7256,-763.645 163,-858.96 215.714,-912.827 752.361,-875.688 917.744,-862.856"/>
<polygon fill="#9a32cd" stroke="#9a32cd" points="52.4751,-211.627 48.7118,-201.723 45.4775,-211.812 52.4751,-211.627"/>
<text text-anchor="middle" x="473" y="-890.96" font-family="Helvetica,sans-Serif" font-size="10.00"> last_seq</text>
</g>
<!-- Node14&#45;&gt;Node7 -->
<g id="edge14" class="edge"><title>Node14&#45;&gt;Node7</title>
<path fill="none" stroke="#9a32cd" stroke-dasharray="5,2" d="M48.8935,-211.769C51.2374,-320.444 64.9326,-841.189 113,-891.96 134.793,-914.978 344.185,-934.56 432.753,-941.883"/>
<polygon fill="#9a32cd" stroke="#9a32cd" points="52.3887,-211.499 48.6813,-201.574 45.3902,-211.645 52.3887,-211.499"/>
<text text-anchor="middle" x="221" y="-940.96" font-family="Helvetica,sans-Serif" font-size="10.00"> bytes_in</text>
<text text-anchor="middle" x="221" y="-929.96" font-family="Helvetica,sans-Serif" font-size="10.00">bytes_out</text>
</g>
<!-- Node20 -->
<g id="node20" class="node"><title>Node20</title>
<g id="a_node20"><a xlink:href="classdpp_1_1managed.html" target="_top" xlink:title="The managed class is the base class for various types that can be stored in a cache that are identifi...">
<polygon fill="white" stroke="black" points="182,-175.46 182,-194.46 260,-194.46 260,-175.46 182,-175.46"/>
<text text-anchor="middle" x="221" y="-182.46" font-family="Helvetica,sans-Serif" font-size="10.00">dpp::managed</text>
</a>
</g>
</g>
<!-- Node14&#45;&gt;Node20 -->
<g id="edge24" class="edge"><title>Node14&#45;&gt;Node20</title>
<path fill="none" stroke="#9a32cd" stroke-dasharray="5,2" d="M83.4084,-190.535C112.012,-189.368 152.428,-187.718 181.874,-186.516"/>
<polygon fill="#9a32cd" stroke="#9a32cd" points="82.9207,-187.052 73.0718,-190.957 83.2062,-194.046 82.9207,-187.052"/>
<text text-anchor="middle" x="129" y="-192.96" font-family="Helvetica,sans-Serif" font-size="10.00"> id</text>
</g>
<!-- Node22 -->
<g id="node22" class="node"><title>Node22</title>
<g id="a_node22"><a xlink:href="structdpp_1_1utility_1_1iconhash.html" target="_top" xlink:title="Store a 128 bit icon hash (profile picture, server icon etc) as a 128 bit binary value made of two ui...">
<polygon fill="white" stroke="black" points="167.5,-137.46 167.5,-156.46 274.5,-156.46 274.5,-137.46 167.5,-137.46"/>
<text text-anchor="middle" x="221" y="-144.46" font-family="Helvetica,sans-Serif" font-size="10.00">dpp::utility::iconhash</text>
</a>
</g>
</g>
<!-- Node14&#45;&gt;Node22 -->
<g id="edge28" class="edge"><title>Node14&#45;&gt;Node22</title>
<path fill="none" stroke="#9a32cd" stroke-dasharray="5,2" d="M75.6446,-177.76C86.9319,-172.387 100.335,-166.677 113,-162.96 130.392,-157.855 149.876,-154.326 167.404,-151.909"/>
<polygon fill="#9a32cd" stroke="#9a32cd" points="73.7697,-174.781 66.3417,-182.336 76.8597,-181.062 73.7697,-174.781"/>
<text text-anchor="middle" x="129" y="-176.96" font-family="Helvetica,sans-Serif" font-size="10.00"> first</text>
<text text-anchor="middle" x="129" y="-165.96" font-family="Helvetica,sans-Serif" font-size="10.00">second</text>
</g>
<!-- Node30 -->
<g id="node30" class="node"><title>Node30</title>
<g id="a_node30"><a xlink:href="classdpp_1_1presence.html" target="_top" xlink:title="Represents user presence, e.g. what game they are playing and if they are online.">
<polygon fill="white" stroke="black" points="434,-64.4599 434,-83.4599 512,-83.4599 512,-64.4599 434,-64.4599"/>
<text text-anchor="middle" x="473" y="-71.4599" font-family="Helvetica,sans-Serif" font-size="10.00">dpp::presence</text>
</a>
</g>
</g>
<!-- Node14&#45;&gt;Node30 -->
<g id="edge43" class="edge"><title>Node14&#45;&gt;Node30</title>
<path fill="none" stroke="#9a32cd" stroke-dasharray="5,2" d="M54.6273,-172.283C67.5781,-134.537 101.696,-52.7952 163,-19.9599 264.053,34.1659 407.843,-37.2304 455.763,-64.3194"/>
<polygon fill="#9a32cd" stroke="#9a32cd" points="51.2029,-171.493 51.4051,-182.085 57.8529,-173.679 51.2029,-171.493"/>
<text text-anchor="middle" x="221" y="-33.9599" font-family="Helvetica,sans-Serif" font-size="10.00"> guild_id</text>
<text text-anchor="middle" x="221" y="-22.9599" font-family="Helvetica,sans-Serif" font-size="10.00">user_id</text>
</g>
<!-- Node15 -->
<g id="node15" class="node"><title>Node15</title>
<g id="a_node15"><a xlink:title=" ">
<polygon fill="white" stroke="#bfbfbf" points="192.5,-580.46 192.5,-599.46 249.5,-599.46 249.5,-580.46 192.5,-580.46"/>
<text text-anchor="middle" x="221" y="-587.46" font-family="Helvetica,sans-Serif" font-size="10.00">function&lt;</text>
</a>
</g>
</g>
<!-- Node15&#45;&gt;Node7 -->
<g id="edge15" class="edge"><title>Node15&#45;&gt;Node7</title>
<path fill="none" stroke="#9a32cd" stroke-dasharray="5,2" d="M238.147,-606.741C252.602,-621.105 274.871,-641.669 297,-655.96 340.444,-684.017 373.086,-661.773 403,-703.96 429.324,-741.084 398.562,-868.367 421,-907.96 427.85,-920.046 440.455,-929.247 451.419,-935.45"/>
<polygon fill="#9a32cd" stroke="#9a32cd" points="240.489,-604.132 230.971,-599.478 235.51,-609.052 240.489,-604.132"/>
<text text-anchor="middle" x="350" y="-739.96" font-family="Helvetica,sans-Serif" font-size="10.00"> custom_readable_fd</text>
<text text-anchor="middle" x="350" y="-728.96" font-family="Helvetica,sans-Serif" font-size="10.00">custom_readable_ready</text>
<text text-anchor="middle" x="350" y="-717.96" font-family="Helvetica,sans-Serif" font-size="10.00">custom_writeable_fd</text>
<text text-anchor="middle" x="350" y="-706.96" font-family="Helvetica,sans-Serif" font-size="10.00">custom_writeable_ready</text>
</g>
<!-- Node18 -->
<g id="node18" class="node"><title>Node18</title>
<g id="a_node18"><a xlink:href="classdpp_1_1dispatcher.html" target="_top" xlink:title="The dispatcher class contains a set of std::functions representing hooked events that the user code i...">
<polygon fill="white" stroke="black" points="431.5,-564.46 431.5,-583.46 514.5,-583.46 514.5,-564.46 431.5,-564.46"/>
<text text-anchor="middle" x="473" y="-571.46" font-family="Helvetica,sans-Serif" font-size="10.00">dpp::dispatcher</text>
</a>
</g>
</g>
<!-- Node15&#45;&gt;Node18 -->
<g id="edge21" class="edge"><title>Node15&#45;&gt;Node18</title>
<path fill="none" stroke="#9a32cd" stroke-dasharray="5,2" d="M231.384,-571.381C243.325,-550.057 266.162,-516.196 297,-501.96 339.773,-482.214 363.886,-475.701 403,-501.96 420.542,-513.737 406.933,-530.194 421,-545.96 427.994,-553.798 437.722,-559.889 446.809,-564.359"/>
<polygon fill="#9a32cd" stroke="#9a32cd" points="228.168,-569.972 226.542,-580.441 234.342,-573.271 228.168,-569.972"/>
<text text-anchor="start" x="301" y="-647.96" font-family="Helvetica,sans-Serif" font-size="10.00"> application_command</text>
<text text-anchor="middle" x="350" y="-636.96" font-family="Helvetica,sans-Serif" font-size="10.00">_create</text>
<text text-anchor="start" x="301" y="-625.96" font-family="Helvetica,sans-Serif" font-size="10.00">application_command</text>
<text text-anchor="middle" x="350" y="-614.96" font-family="Helvetica,sans-Serif" font-size="10.00">_delete</text>
<text text-anchor="start" x="301" y="-603.96" font-family="Helvetica,sans-Serif" font-size="10.00">application_command</text>
<text text-anchor="middle" x="350" y="-592.96" font-family="Helvetica,sans-Serif" font-size="10.00">_update</text>
<text text-anchor="middle" x="350" y="-581.96" font-family="Helvetica,sans-Serif" font-size="10.00">button_click</text>
<text text-anchor="middle" x="350" y="-570.96" font-family="Helvetica,sans-Serif" font-size="10.00">channel_create</text>
<text text-anchor="middle" x="350" y="-559.96" font-family="Helvetica,sans-Serif" font-size="10.00">channel_delete</text>
<text text-anchor="middle" x="350" y="-548.96" font-family="Helvetica,sans-Serif" font-size="10.00">channel_pins_update</text>
<text text-anchor="middle" x="350" y="-537.96" font-family="Helvetica,sans-Serif" font-size="10.00">channel_update</text>
<text text-anchor="middle" x="350" y="-526.96" font-family="Helvetica,sans-Serif" font-size="10.00">guild_ban_add</text>
<text text-anchor="middle" x="350" y="-515.96" font-family="Helvetica,sans-Serif" font-size="10.00">guild_ban_remove</text>
<text text-anchor="middle" x="350" y="-504.96" font-family="Helvetica,sans-Serif" font-size="10.00">...</text>
</g>
<!-- Node16&#45;&gt;Node5 -->
<g id="edge16" class="edge"><title>Node16&#45;&gt;Node5</title>
<path fill="none" stroke="#9a32cd" stroke-dasharray="5,2" d="M744.955,-482.335C789.417,-474.118 858.116,-469.626 900,-506.96 953.028,-554.227 963.975,-797.552 965.715,-849.283"/>
<polygon fill="#9a32cd" stroke="#9a32cd" points="744.157,-478.925 735.03,-484.305 745.52,-485.791 744.157,-478.925"/>
<text text-anchor="middle" x="838" y="-509.96" font-family="Helvetica,sans-Serif" font-size="10.00"> creator</text>
</g>
<!-- Node17 -->
<g id="node17" class="node"><title>Node17</title>
<g id="a_node17"><a xlink:title=" ">
<polygon fill="white" stroke="#bfbfbf" points="195.5,-302.46 195.5,-321.46 246.5,-321.46 246.5,-302.46 195.5,-302.46"/>
<text text-anchor="middle" x="221" y="-309.46" font-family="Helvetica,sans-Serif" font-size="10.00">uint32_t</text>
</a>
</g>
</g>
<!-- Node17&#45;&gt;Node5 -->
<g id="edge33" class="edge"><title>Node17&#45;&gt;Node5</title>
<path fill="none" stroke="#9a32cd" stroke-dasharray="5,2" d="M257.038,-309.781C327.662,-306.186 491.822,-301.871 626,-328.96 753.372,-354.675 817.919,-330.225 900,-430.96 954.853,-498.279 964.452,-792.596 965.804,-849.438"/>
<polygon fill="#9a32cd" stroke="#9a32cd" points="256.715,-306.293 246.918,-310.324 257.091,-313.283 256.715,-306.293"/>
<text text-anchor="middle" x="584.5" y="-386.96" font-family="Helvetica,sans-Serif" font-size="10.00"> heartbeat_interval</text>
<text text-anchor="middle" x="584.5" y="-375.96" font-family="Helvetica,sans-Serif" font-size="10.00">intents</text>
<text text-anchor="middle" x="584.5" y="-364.96" font-family="Helvetica,sans-Serif" font-size="10.00">max_shards</text>
<text text-anchor="middle" x="584.5" y="-353.96" font-family="Helvetica,sans-Serif" font-size="10.00">reconnects</text>
<text text-anchor="middle" x="584.5" y="-342.96" font-family="Helvetica,sans-Serif" font-size="10.00">resumes</text>
<text text-anchor="middle" x="584.5" y="-331.96" font-family="Helvetica,sans-Serif" font-size="10.00">shard_id</text>
</g>
<!-- Node17&#45;&gt;Node16 -->
<g id="edge19" class="edge"><title>Node17&#45;&gt;Node16</title>
<path fill="none" stroke="#9a32cd" stroke-dasharray="5,2" d="M256.67,-318.632C325.395,-332.114 476.454,-363.088 525,-383.96 574.263,-405.14 586.876,-413.289 626,-449.96 635.728,-459.078 633.204,-466.135 644,-473.96 650.733,-478.84 658.812,-482.535 666.711,-485.305"/>
<polygon fill="#9a32cd" stroke="#9a32cd" points="257.248,-315.179 246.762,-316.698 255.907,-322.049 257.248,-315.179"/>
<text text-anchor="middle" x="473" y="-419.96" font-family="Helvetica,sans-Serif" font-size="10.00"> cluster_id</text>
<text text-anchor="middle" x="473" y="-408.96" font-family="Helvetica,sans-Serif" font-size="10.00">intents</text>
<text text-anchor="middle" x="473" y="-397.96" font-family="Helvetica,sans-Serif" font-size="10.00">maxclusters</text>
<text text-anchor="middle" x="473" y="-386.96" font-family="Helvetica,sans-Serif" font-size="10.00">numshards</text>
</g>
<!-- Node17&#45;&gt;Node19 -->
<g id="edge29" class="edge"><title>Node17&#45;&gt;Node19</title>
<path fill="none" stroke="#9a32cd" stroke-dasharray="5,2" d="M238.664,-295.016C252.913,-281.536 274.613,-263.28 297,-252.96 310.225,-246.863 398.404,-230.845 444.317,-222.766"/>
<polygon fill="#9a32cd" stroke="#9a32cd" points="235.904,-292.818 231.187,-302.304 240.79,-297.83 235.904,-292.818"/>
<text text-anchor="middle" x="350" y="-255.96" font-family="Helvetica,sans-Serif" font-size="10.00"> flags</text>
</g>
<!-- Node18&#45;&gt;Node16 -->
<g id="edge20" class="edge"><title>Node18&#45;&gt;Node16</title>
<path fill="none" stroke="#9a32cd" stroke-dasharray="5,2" d="M525.076,-574.722C555.511,-573.463 594.267,-568.785 626,-554.96 653.658,-542.91 679.006,-517.154 691.619,-502.923"/>
<polygon fill="#9a32cd" stroke="#9a32cd" points="524.574,-571.236 514.683,-575.034 524.784,-578.233 524.574,-571.236"/>
<text text-anchor="middle" x="584.5" y="-576.96" font-family="Helvetica,sans-Serif" font-size="10.00"> dispatch</text>
</g>
<!-- Node19&#45;&gt;Node16 -->
<g id="edge22" class="edge"><title>Node19&#45;&gt;Node16</title>
<path fill="none" stroke="#9a32cd" stroke-dasharray="5,2" d="M512.098,-216.553C547.375,-217.514 598.415,-225.098 626,-257.96 656.967,-294.852 614.338,-436.01 644,-473.96 649.627,-481.159 658.11,-485.649 666.783,-488.443"/>
<polygon fill="#9a32cd" stroke="#9a32cd" points="511.735,-213.049 501.7,-216.447 511.664,-220.049 511.735,-213.049"/>
<text text-anchor="middle" x="584.5" y="-260.96" font-family="Helvetica,sans-Serif" font-size="10.00"> me</text>
</g>
<!-- Node20&#45;&gt;Node19 -->
<g id="edge23" class="edge"><title>Node20&#45;&gt;Node19</title>
<path fill="none" stroke="midnightblue" d="M270.178,-191.319C321.866,-198.142 402.179,-208.744 444.212,-214.292"/>
<polygon fill="midnightblue" stroke="midnightblue" points="270.614,-187.847 260.242,-190.008 269.698,-194.786 270.614,-187.847"/>
</g>
<!-- Node21 -->
<g id="node21" class="node"><title>Node21</title>
<g id="a_node21"><a xlink:title=" ">
<polygon fill="white" stroke="#bfbfbf" points="195.5,-213.46 195.5,-232.46 246.5,-232.46 246.5,-213.46 195.5,-213.46"/>
<text text-anchor="middle" x="221" y="-220.46" font-family="Helvetica,sans-Serif" font-size="10.00">uint16_t</text>
</a>
</g>
</g>
<!-- Node21&#45;&gt;Node19 -->
<g id="edge26" class="edge"><title>Node21&#45;&gt;Node19</title>
<path fill="none" stroke="#9a32cd" stroke-dasharray="5,2" d="M256.794,-220.759C269.448,-220.05 283.865,-219.347 297,-218.96 349.083,-217.423 409.922,-217.497 444.411,-217.713"/>
<polygon fill="#9a32cd" stroke="#9a32cd" points="256.426,-217.274 246.647,-221.35 256.833,-224.263 256.426,-217.274"/>
<text text-anchor="middle" x="350" y="-221.96" font-family="Helvetica,sans-Serif" font-size="10.00"> discriminator</text>
</g>
<!-- Node22&#45;&gt;Node19 -->
<g id="edge27" class="edge"><title>Node22&#45;&gt;Node19</title>
<path fill="none" stroke="#9a32cd" stroke-dasharray="5,2" d="M284.798,-153.933C320.204,-159.051 364.852,-167.511 403,-180.96 422.742,-187.92 443.701,-199.896 457.269,-208.334"/>
<polygon fill="#9a32cd" stroke="#9a32cd" points="284.985,-150.426 274.598,-152.514 284.02,-157.359 284.985,-150.426"/>
<text text-anchor="middle" x="350" y="-183.96" font-family="Helvetica,sans-Serif" font-size="10.00"> avatar</text>
</g>
<!-- Node23 -->
<g id="node23" class="node"><title>Node23</title>
<g id="a_node23"><a xlink:title=" ">
<polygon fill="white" stroke="#bfbfbf" points="198,-96.4599 198,-115.46 244,-115.46 244,-96.4599 198,-96.4599"/>
<text text-anchor="middle" x="221" y="-103.46" font-family="Helvetica,sans-Serif" font-size="10.00">uint8_t</text>
</a>
</g>
</g>
<!-- Node23&#45;&gt;Node19 -->
<g id="edge30" class="edge"><title>Node23&#45;&gt;Node19</title>
<path fill="none" stroke="#9a32cd" stroke-dasharray="5,2" d="M254.596,-106.387C292.559,-108.198 356.05,-115.39 403,-141.96 432.158,-158.461 455.703,-191.714 466.153,-208.215"/>
<polygon fill="#9a32cd" stroke="#9a32cd" points="254.265,-102.872 244.141,-105.995 254.003,-109.867 254.265,-102.872"/>
<text text-anchor="middle" x="350" y="-144.96" font-family="Helvetica,sans-Serif" font-size="10.00"> refcount</text>
</g>
<!-- Node23&#45;&gt;Node30 -->
<g id="edge44" class="edge"><title>Node23&#45;&gt;Node30</title>
<path fill="none" stroke="#9a32cd" stroke-dasharray="5,2" d="M254.275,-99.3351C267.479,-96.7816 282.932,-93.993 297,-91.9599 344.005,-85.1671 398.474,-79.9852 433.997,-76.9635"/>
<polygon fill="#9a32cd" stroke="#9a32cd" points="253.371,-95.9459 244.236,-101.314 254.725,-102.814 253.371,-95.9459"/>
<text text-anchor="middle" x="350" y="-94.9599" font-family="Helvetica,sans-Serif" font-size="10.00"> flags</text>
</g>
<!-- Node24 -->
<g id="node24" class="node"><title>Node24</title>
<g id="a_node24"><a xlink:href="structdpp_1_1cache__policy__t.html" target="_top" xlink:title="Represents the caching policy of the cluster.">
<polygon fill="white" stroke="black" points="421,-437.46 421,-456.46 525,-456.46 525,-437.46 421,-437.46"/>
<text text-anchor="middle" x="473" y="-444.46" font-family="Helvetica,sans-Serif" font-size="10.00">dpp::cache_policy_t</text>
</a>
</g>
</g>
<!-- Node24&#45;&gt;Node16 -->
<g id="edge31" class="edge"><title>Node24&#45;&gt;Node16</title>
<path fill="none" stroke="#9a32cd" stroke-dasharray="5,2" d="M535.135,-452.743C563.066,-456.064 596.441,-460.991 626,-467.96 626.61,-468.104 651.248,-476.437 671.927,-483.443"/>
<polygon fill="#9a32cd" stroke="#9a32cd" points="535.443,-449.255 525.109,-451.591 534.644,-456.21 535.443,-449.255"/>
<text text-anchor="middle" x="584.5" y="-470.96" font-family="Helvetica,sans-Serif" font-size="10.00"> cache_policy</text>
</g>
<!-- Node25 -->
<g id="node25" class="node"><title>Node25</title>
<g id="a_node25"><a xlink:title=" ">
<polygon fill="white" stroke="#bfbfbf" points="163,-360.46 163,-379.46 279,-379.46 279,-360.46 163,-360.46"/>
<text text-anchor="middle" x="221" y="-367.46" font-family="Helvetica,sans-Serif" font-size="10.00">cache_policy_setting_t</text>
</a>
</g>
</g>
<!-- Node25&#45;&gt;Node24 -->
<g id="edge32" class="edge"><title>Node25&#45;&gt;Node24</title>
<path fill="none" stroke="#9a32cd" stroke-dasharray="5,2" d="M289.443,-371.785C324.413,-374.66 367.183,-381.255 403,-395.96 426.702,-405.691 449.702,-425.368 462.244,-437.234"/>
<polygon fill="#9a32cd" stroke="#9a32cd" points="289.56,-368.284 279.329,-371.038 289.044,-375.265 289.56,-368.284"/>
<text text-anchor="middle" x="350" y="-420.96" font-family="Helvetica,sans-Serif" font-size="10.00"> emoji_policy</text>
<text text-anchor="middle" x="350" y="-409.96" font-family="Helvetica,sans-Serif" font-size="10.00">role_policy</text>
<text text-anchor="middle" x="350" y="-398.96" font-family="Helvetica,sans-Serif" font-size="10.00">user_policy</text>
</g>
<!-- Node26 -->
<g id="node26" class="node"><title>Node26</title>
<g id="a_node26"><a xlink:title=" ">
<polygon fill="white" stroke="#bfbfbf" points="650.5,-445.46 650.5,-464.46 751.5,-464.46 751.5,-445.46 650.5,-445.46"/>
<text text-anchor="middle" x="701" y="-452.46" font-family="Helvetica,sans-Serif" font-size="10.00">native_handle_type</text>
</a>
</g>
</g>
<!-- Node26&#45;&gt;Node5 -->
<g id="edge35" class="edge"><title>Node26&#45;&gt;Node5</title>
<path fill="none" stroke="#9a32cd" stroke-dasharray="5,2" d="M742.251,-442.988C786.528,-432.53 857.083,-424.266 900,-461.96 960.371,-514.984 965.537,-793.185 965.964,-849.147"/>
<polygon fill="#9a32cd" stroke="#9a32cd" points="741.259,-439.628 732.408,-445.451 742.958,-446.419 741.259,-439.628"/>
<text text-anchor="middle" x="838" y="-464.96" font-family="Helvetica,sans-Serif" font-size="10.00"> thread_id</text>
</g>
<!-- Node27 -->
<g id="node27" class="node"><title>Node27</title>
<g id="a_node27"><a xlink:title=" ">
<polygon fill="white" stroke="#bfbfbf" points="669.5,-1079.46 669.5,-1098.46 732.5,-1098.46 732.5,-1079.46 669.5,-1079.46"/>
<text text-anchor="middle" x="701" y="-1086.46" font-family="Helvetica,sans-Serif" font-size="10.00">std::mutex</text>
</a>
</g>
</g>
<!-- Node27&#45;&gt;Node5 -->
<g id="edge38" class="edge"><title>Node27&#45;&gt;Node5</title>
<path fill="none" stroke="#9a32cd" stroke-dasharray="5,2" d="M742.744,-1095.83C786.615,-1100.81 856.017,-1101.31 900,-1064.96 962.527,-1013.28 966.526,-902.156 966.249,-868.691"/>
<polygon fill="#9a32cd" stroke="#9a32cd" points="743.071,-1092.35 732.711,-1094.57 742.194,-1099.29 743.071,-1092.35"/>
<text text-anchor="middle" x="838" y="-1101.96" font-family="Helvetica,sans-Serif" font-size="10.00"> voice_mutex</text>
</g>
<!-- Node28 -->
<g id="node28" class="node"><title>Node28</title>
<g id="a_node28"><a xlink:title=" ">
<polygon fill="white" stroke="#bfbfbf" points="678.5,-944.46 678.5,-963.46 723.5,-963.46 723.5,-944.46 678.5,-944.46"/>
<text text-anchor="middle" x="701" y="-951.46" font-family="Helvetica,sans-Serif" font-size="10.00">double</text>
</a>
</g>
</g>
<!-- Node28&#45;&gt;Node5 -->
<g id="edge39" class="edge"><title>Node28&#45;&gt;Node5</title>
<path fill="none" stroke="#9a32cd" stroke-dasharray="5,2" d="M733.722,-956.072C774.475,-957.429 846.346,-955.153 900,-927.96 927.502,-914.021 949.881,-883.912 960.063,-868.489"/>
<polygon fill="#9a32cd" stroke="#9a32cd" points="733.718,-952.569 723.577,-955.637 733.418,-959.563 733.718,-952.569"/>
<text text-anchor="middle" x="838" y="-958.96" font-family="Helvetica,sans-Serif" font-size="10.00"> websocket_ping</text>
</g>
<!-- Node29 -->
<g id="node29" class="node"><title>Node29</title>
<g id="a_node29"><a xlink:title=" ">
<polygon fill="white" stroke="#bfbfbf" points="656.5,-906.46 656.5,-925.46 745.5,-925.46 745.5,-906.46 656.5,-906.46"/>
<text text-anchor="middle" x="701" y="-913.46" font-family="Helvetica,sans-Serif" font-size="10.00">unordered_map&lt;</text>
</a>
</g>
</g>
<!-- Node29&#45;&gt;Node5 -->
<g id="edge41" class="edge"><title>Node29&#45;&gt;Node5</title>
<path fill="none" stroke="#9a32cd" stroke-dasharray="5,2" d="M755.92,-914.398C796.32,-912.042 852.566,-906.225 900,-891.96 918.279,-886.463 937.639,-876.185 950.628,-868.555"/>
<polygon fill="#9a32cd" stroke="#9a32cd" points="755.547,-910.912 745.746,-914.937 755.918,-917.902 755.547,-910.912"/>
<text text-anchor="middle" x="838" y="-915.96" font-family="Helvetica,sans-Serif" font-size="10.00"> connecting_voice_channels</text>
</g>
<!-- Node30&#45;&gt;Node1 -->
<g id="edge42" class="edge"><title>Node30&#45;&gt;Node1</title>
<path fill="none" stroke="#9a32cd" stroke-dasharray="5,2" d="M506.404,-87.2658C549.736,-103.828 629.31,-129.96 700,-129.96 700,-129.96 700,-129.96 1132.5,-129.96 1191.21,-129.96 1250.49,-175.884 1273.98,-196.334"/>
<polygon fill="#9a32cd" stroke="#9a32cd" points="507.547,-83.955 496.959,-83.5867 505.006,-90.4777 507.547,-83.955"/>
<text text-anchor="middle" x="967" y="-132.96" font-family="Helvetica,sans-Serif" font-size="10.00"> rich_presence</text>
</g>
<!-- Node31 -->
<g id="node31" class="node"><title>Node31</title>
<g id="a_node31"><a xlink:title=" ">
<polygon fill="white" stroke="#bfbfbf" points="196,-51.4599 196,-70.4599 246,-70.4599 246,-51.4599 196,-51.4599"/>
<text text-anchor="middle" x="221" y="-58.4599" font-family="Helvetica,sans-Serif" font-size="10.00">vector&lt;</text>
</a>
</g>
</g>
<!-- Node31&#45;&gt;Node30 -->
<g id="edge45" class="edge"><title>Node31&#45;&gt;Node30</title>
<path fill="none" stroke="#9a32cd" stroke-dasharray="5,2" d="M256.211,-57.7499C292.702,-54.9421 352.13,-52.1392 403,-57.9599 414.484,-59.274 426.838,-61.7803 437.874,-64.426"/>
<polygon fill="#9a32cd" stroke="#9a32cd" points="255.788,-54.2726 246.105,-58.5732 256.356,-61.2495 255.788,-54.2726"/>
<text text-anchor="middle" x="350" y="-60.9599" font-family="Helvetica,sans-Serif" font-size="10.00"> activities</text>
</g>
</g>
</svg>
