<?xml version="1.0" encoding="UTF-8" standalone="no"?>
<!DOCTYPE svg PUBLIC "-//W3C//DTD SVG 1.1//EN"
 "http://www.w3.org/Graphics/SVG/1.1/DTD/svg11.dtd">
<!-- Generated by graphviz version 2.43.0 (0)
 -->
<!-- Title: dpp::event_dispatch_t Pages: 1 -->
<svg width="1304pt" height="1088pt"
 viewBox="0.00 0.00 1304.00 1088.23" xmlns="http://www.w3.org/2000/svg" xmlns:xlink="http://www.w3.org/1999/xlink">
<g id="graph0" class="graph" transform="scale(1 1) rotate(0) translate(4 1084.23)">
<title>dpp::event_dispatch_t</title>
<!-- Node1 -->
<g id="node1" class="node">
<title>Node1</title>
<g id="a_node1"><a xlink:title="Base event parameter struct.">
<polygon fill="#bfbfbf" stroke="black" points="1172,-916.73 1172,-935.73 1296,-935.73 1296,-916.73 1172,-916.73"/>
<text text-anchor="middle" x="1234" y="-923.73" font-family="Helvetica,sans-Serif" font-size="10.00">dpp::event_dispatch_t</text>
</a>
</g>
</g>
<!-- Node2 -->
<g id="node2" class="node">
<title>Node2</title>
<g id="a_node2"><a xlink:title=" ">
<polygon fill="none" stroke="#bfbfbf" points="206.5,-997.73 206.5,-1016.73 271.5,-1016.73 271.5,-997.73 206.5,-997.73"/>
<text text-anchor="middle" x="239" y="-1004.73" font-family="Helvetica,sans-Serif" font-size="10.00">std::string</text>
</a>
</g>
</g>
<!-- Node2&#45;&gt;Node1 -->
<g id="edge1" class="edge">
<title>Node2&#45;&gt;Node1</title>
<path fill="none" stroke="#9a32cd" stroke-dasharray="5,2" d="M271.82,-1020.48C286.51,-1025.9 304.36,-1031.53 321,-1034.23 374.08,-1042.85 388.23,-1034.78 442,-1034.23 682.48,-1031.79 747.07,-1069.89 983,-1023.23 1073.89,-1005.26 1174.54,-956.62 1214.85,-935.85"/>
<polygon fill="#9a32cd" stroke="#9a32cd" points="272.79,-1017.1 262.2,-1016.79 270.29,-1023.64 272.79,-1017.1"/>
<text text-anchor="middle" x="765.5" y="-1050.23" font-family="Helvetica,sans-Serif" font-size="10.00"> raw_event</text>
</g>
<!-- Node4 -->
<g id="node4" class="node">
<title>Node4</title>
<g id="a_node4"><a xlink:href="classdpp_1_1discord__client.html" target="_top" xlink:title="Implements a discord client. Each discord_client connects to one shard and derives from a websocket c...">
<polygon fill="none" stroke="black" points="1001,-619.73 1001,-638.73 1109,-638.73 1109,-619.73 1001,-619.73"/>
<text text-anchor="middle" x="1055" y="-626.73" font-family="Helvetica,sans-Serif" font-size="10.00">dpp::discord_client</text>
</a>
</g>
</g>
<!-- Node2&#45;&gt;Node4 -->
<g id="edge34" class="edge">
<title>Node2&#45;&gt;Node4</title>
<path fill="none" stroke="#9a32cd" stroke-dasharray="5,2" d="M282,-1014.03C294.51,-1015.76 308.28,-1017.38 321,-1018.23 374.66,-1021.86 388.43,-1022.9 442,-1018.23 500.89,-1013.1 516.31,-1012 573,-995.23 762.82,-939.09 846.37,-964.47 983,-821.23 1035.25,-766.46 1049.7,-669.92 1053.09,-639.03"/>
<polygon fill="#9a32cd" stroke="#9a32cd" points="282.23,-1010.53 271.83,-1012.57 281.23,-1017.46 282.23,-1010.53"/>
<text text-anchor="middle" x="638" y="-1003.23" font-family="Helvetica,sans-Serif" font-size="10.00"> sessionid</text>
<text text-anchor="middle" x="638" y="-992.23" font-family="Helvetica,sans-Serif" font-size="10.00">token</text>
</g>
<!-- Node6 -->
<g id="node6" class="node">
<title>Node6</title>
<g id="a_node6"><a xlink:href="classdpp_1_1ssl__client.html" target="_top" xlink:title="Implements a simple non&#45;blocking SSL stream client.">
<polygon fill="none" stroke="black" points="473.5,-815.73 473.5,-834.73 559.5,-834.73 559.5,-815.73 473.5,-815.73"/>
<text text-anchor="middle" x="516.5" y="-822.73" font-family="Helvetica,sans-Serif" font-size="10.00">dpp::ssl_client</text>
</a>
</g>
</g>
<!-- Node2&#45;&gt;Node6 -->
<g id="edge6" class="edge">
<title>Node2&#45;&gt;Node6</title>
<path fill="none" stroke="#9a32cd" stroke-dasharray="5,2" d="M249.17,-988.68C261.87,-965.05 287.15,-924.81 321,-904.23 367.78,-875.8 392,-903.53 442,-881.23 467.79,-869.74 492.86,-847.58 506.01,-834.85"/>
<polygon fill="#9a32cd" stroke="#9a32cd" points="246,-987.2 244.51,-997.69 252.21,-990.42 246,-987.2"/>
<text text-anchor="middle" x="381.5" y="-951.23" font-family="Helvetica,sans-Serif" font-size="10.00"> buffer</text>
<text text-anchor="middle" x="381.5" y="-940.23" font-family="Helvetica,sans-Serif" font-size="10.00">cipher</text>
<text text-anchor="middle" x="381.5" y="-929.23" font-family="Helvetica,sans-Serif" font-size="10.00">hostname</text>
<text text-anchor="middle" x="381.5" y="-918.23" font-family="Helvetica,sans-Serif" font-size="10.00">obuffer</text>
<text text-anchor="middle" x="381.5" y="-907.23" font-family="Helvetica,sans-Serif" font-size="10.00">port</text>
</g>
<!-- Node13 -->
<g id="node13" class="node">
<title>Node13</title>
<g id="a_node13"><a xlink:href="classdpp_1_1cluster.html" target="_top" xlink:title="The cluster class represents a group of shards and a command queue for sending and receiving commands...">
<polygon fill="none" stroke="black" points="728.5,-472.73 728.5,-491.73 802.5,-491.73 802.5,-472.73 728.5,-472.73"/>
<text text-anchor="middle" x="765.5" y="-479.73" font-family="Helvetica,sans-Serif" font-size="10.00">dpp::cluster</text>
</a>
</g>
</g>
<!-- Node2&#45;&gt;Node13 -->
<g id="edge14" class="edge">
<title>Node2&#45;&gt;Node13</title>
<path fill="none" stroke="#9a32cd" stroke-dasharray="5,2" d="M281.68,-1013.23C324.28,-1017.4 391.21,-1018.36 442,-993.23 521.03,-954.14 533.65,-923.14 573,-844.23 590.62,-808.9 576.23,-793.85 591,-757.23 602.91,-727.72 728.46,-536.83 758.21,-491.76"/>
<polygon fill="#9a32cd" stroke="#9a32cd" points="281.98,-1009.75 271.67,-1012.15 281.23,-1016.71 281.98,-1009.75"/>
<text text-anchor="middle" x="516.5" y="-986.23" font-family="Helvetica,sans-Serif" font-size="10.00"> token</text>
</g>
<!-- Node16 -->
<g id="node16" class="node">
<title>Node16</title>
<g id="a_node16"><a xlink:href="classdpp_1_1user.html" target="_top" xlink:title="Represents a user on discord. May or may not be a member of a dpp::guild.">
<polygon fill="none" stroke="black" points="485.5,-371.73 485.5,-390.73 547.5,-390.73 547.5,-371.73 485.5,-371.73"/>
<text text-anchor="middle" x="516.5" y="-378.73" font-family="Helvetica,sans-Serif" font-size="10.00">dpp::user</text>
</a>
</g>
</g>
<!-- Node2&#45;&gt;Node16 -->
<g id="edge22" class="edge">
<title>Node2&#45;&gt;Node16</title>
<path fill="none" stroke="#9a32cd" stroke-dasharray="5,2" d="M253.79,-989.31C269.05,-968.32 292.81,-931.87 303,-896.23 316.54,-848.87 289.42,-491.04 321,-453.23 356.32,-410.95 390.92,-446.9 442,-426.23 464.89,-416.98 488.8,-400.96 502.92,-390.74"/>
<polygon fill="#9a32cd" stroke="#9a32cd" points="250.81,-987.45 247.65,-997.56 256.43,-991.63 250.81,-987.45"/>
<text text-anchor="middle" x="381.5" y="-456.23" font-family="Helvetica,sans-Serif" font-size="10.00"> username</text>
</g>
<!-- Node3 -->
<g id="node3" class="node">
<title>Node3</title>
<g id="a_node3"><a xlink:title=" ">
<polygon fill="none" stroke="#bfbfbf" points="0,-992.23 0,-1022.23 104,-1022.23 104,-992.23 0,-992.23"/>
<text text-anchor="start" x="8" y="-1010.23" font-family="Helvetica,sans-Serif" font-size="10.00">std::basic_string&lt;</text>
<text text-anchor="middle" x="52" y="-999.23" font-family="Helvetica,sans-Serif" font-size="10.00"> Char &gt;</text>
</a>
</g>
</g>
<!-- Node3&#45;&gt;Node2 -->
<g id="edge2" class="edge">
<title>Node3&#45;&gt;Node2</title>
<path fill="none" stroke="midnightblue" d="M114.26,-1007.23C145.05,-1007.23 181.08,-1007.23 206.29,-1007.23"/>
<polygon fill="midnightblue" stroke="midnightblue" points="114.04,-1003.74 104.04,-1007.23 114.04,-1010.74 114.04,-1003.74"/>
</g>
<!-- Node4&#45;&gt;Node1 -->
<g id="edge3" class="edge">
<title>Node4&#45;&gt;Node1</title>
<path fill="none" stroke="#9a32cd" stroke-dasharray="5,2" d="M1067.01,-647.7C1100.75,-704.32 1201.99,-874.2 1227.24,-916.58"/>
<polygon fill="#9a32cd" stroke="#9a32cd" points="1069.81,-645.58 1061.69,-638.78 1063.8,-649.16 1069.81,-645.58"/>
<text text-anchor="middle" x="1140.5" y="-790.23" font-family="Helvetica,sans-Serif" font-size="10.00"> from</text>
</g>
<!-- Node5 -->
<g id="node5" class="node">
<title>Node5</title>
<g id="a_node5"><a xlink:href="classdpp_1_1websocket__client.html" target="_top" xlink:title="Implements a websocket client based on the SSL client.">
<polygon fill="none" stroke="black" points="703,-804.73 703,-823.73 828,-823.73 828,-804.73 703,-804.73"/>
<text text-anchor="middle" x="765.5" y="-811.73" font-family="Helvetica,sans-Serif" font-size="10.00">dpp::websocket_client</text>
</a>
</g>
</g>
<!-- Node5&#45;&gt;Node4 -->
<g id="edge4" class="edge">
<title>Node5&#45;&gt;Node4</title>
<path fill="none" stroke="midnightblue" d="M838.49,-823.47C884.05,-825.44 941.9,-820.39 983,-790.23 1034.97,-752.11 1049.5,-667.46 1053.01,-638.88"/>
<polygon fill="midnightblue" stroke="midnightblue" points="838.55,-819.96 828.37,-822.91 838.17,-826.95 838.55,-819.96"/>
</g>
<!-- Node6&#45;&gt;Node5 -->
<g id="edge5" class="edge">
<title>Node6&#45;&gt;Node5</title>
<path fill="none" stroke="midnightblue" d="M569.72,-822.91C608.53,-821.18 661.62,-818.82 702.57,-816.99"/>
<polygon fill="midnightblue" stroke="midnightblue" points="569.51,-819.41 559.68,-823.36 569.83,-826.41 569.51,-819.41"/>
</g>
<!-- Node7 -->
<g id="node7" class="node">
<title>Node7</title>
<g id="a_node7"><a xlink:title=" ">
<polygon fill="none" stroke="#bfbfbf" points="220,-1060.73 220,-1079.73 258,-1079.73 258,-1060.73 220,-1060.73"/>
<text text-anchor="middle" x="239" y="-1067.73" font-family="Helvetica,sans-Serif" font-size="10.00">bool</text>
</a>
</g>
</g>
<!-- Node7&#45;&gt;Node4 -->
<g id="edge37" class="edge">
<title>Node7&#45;&gt;Node4</title>
<path fill="none" stroke="#9a32cd" stroke-dasharray="5,2" d="M268.21,-1071.31C307.27,-1072.59 380.04,-1074.21 442,-1071.23 472.16,-1069.79 960.77,-1039.67 983,-1019.23 1041.27,-965.68 1052.15,-693.55 1053.75,-638.83"/>
<polygon fill="#9a32cd" stroke="#9a32cd" points="268.24,-1067.81 258.12,-1070.97 267.99,-1074.81 268.24,-1067.81"/>
<text text-anchor="middle" x="638" y="-1065.23" font-family="Helvetica,sans-Serif" font-size="10.00"> ready</text>
</g>
<!-- Node7&#45;&gt;Node6 -->
<g id="edge7" class="edge">
<title>Node7&#45;&gt;Node6</title>
<path fill="none" stroke="#9a32cd" stroke-dasharray="5,2" d="M267.89,-1062.54C311.61,-1049.04 396.03,-1016.87 442,-959.23 460.16,-936.47 446.79,-922.19 460,-896.23 472.35,-871.97 493.55,-847.89 505.87,-834.95"/>
<polygon fill="#9a32cd" stroke="#9a32cd" points="266.78,-1059.22 258.2,-1065.44 268.78,-1065.93 266.78,-1059.22"/>
<text text-anchor="middle" x="381.5" y="-1046.23" font-family="Helvetica,sans-Serif" font-size="10.00"> nonblocking</text>
</g>
<!-- Node8 -->
<g id="node8" class="node">
<title>Node8</title>
<g id="a_node8"><a xlink:title=" ">
<polygon fill="none" stroke="#bfbfbf" points="224.5,-814.73 224.5,-833.73 253.5,-833.73 253.5,-814.73 224.5,-814.73"/>
<text text-anchor="middle" x="239" y="-821.73" font-family="Helvetica,sans-Serif" font-size="10.00">int</text>
</a>
</g>
</g>
<!-- Node8&#45;&gt;Node6 -->
<g id="edge8" class="edge">
<title>Node8&#45;&gt;Node6</title>
<path fill="none" stroke="#9a32cd" stroke-dasharray="5,2" d="M263.73,-824.32C310.43,-824.49 414.83,-824.87 473.46,-825.08"/>
<polygon fill="#9a32cd" stroke="#9a32cd" points="263.67,-820.82 253.66,-824.28 263.65,-827.82 263.67,-820.82"/>
<text text-anchor="middle" x="381.5" y="-828.23" font-family="Helvetica,sans-Serif" font-size="10.00"> sfd</text>
</g>
<!-- Node9 -->
<g id="node9" class="node">
<title>Node9</title>
<g id="a_node9"><a xlink:title=" ">
<polygon fill="none" stroke="#bfbfbf" points="189.5,-776.73 189.5,-795.73 288.5,-795.73 288.5,-776.73 189.5,-776.73"/>
<text text-anchor="middle" x="239" y="-783.73" font-family="Helvetica,sans-Serif" font-size="10.00">opensslcontext *</text>
</a>
</g>
</g>
<!-- Node9&#45;&gt;Node6 -->
<g id="edge9" class="edge">
<title>Node9&#45;&gt;Node6</title>
<path fill="none" stroke="#9a32cd" stroke-dasharray="5,2" d="M298.68,-791.91C339.09,-796.13 393.95,-802.49 442,-810.23 452.16,-811.87 463.05,-813.93 473.25,-815.99"/>
<polygon fill="#9a32cd" stroke="#9a32cd" points="299.03,-788.42 288.73,-790.88 298.32,-795.39 299.03,-788.42"/>
<text text-anchor="middle" x="381.5" y="-813.23" font-family="Helvetica,sans-Serif" font-size="10.00"> ssl</text>
</g>
<!-- Node10 -->
<g id="node10" class="node">
<title>Node10</title>
<g id="a_node10"><a xlink:title=" ">
<polygon fill="none" stroke="#bfbfbf" points="215,-733.73 215,-752.73 263,-752.73 263,-733.73 215,-733.73"/>
<text text-anchor="middle" x="239" y="-740.73" font-family="Helvetica,sans-Serif" font-size="10.00">time_t</text>
</a>
</g>
</g>
<!-- Node10&#45;&gt;Node4 -->
<g id="edge31" class="edge">
<title>Node10&#45;&gt;Node4</title>
<path fill="none" stroke="#9a32cd" stroke-dasharray="5,2" d="M273.08,-741.7C313.14,-739.67 382.64,-735.59 442,-729.23 654.22,-706.52 904.78,-659.02 1007.02,-638.74"/>
<polygon fill="#9a32cd" stroke="#9a32cd" points="272.89,-738.21 263.07,-742.2 273.23,-745.2 272.89,-738.21"/>
<text text-anchor="middle" x="638" y="-725.23" font-family="Helvetica,sans-Serif" font-size="10.00"> last_heartbeat</text>
<text text-anchor="middle" x="638" y="-714.23" font-family="Helvetica,sans-Serif" font-size="10.00">last_heartbeat_ack</text>
</g>
<!-- Node10&#45;&gt;Node6 -->
<g id="edge10" class="edge">
<title>Node10&#45;&gt;Node6</title>
<path fill="none" stroke="#9a32cd" stroke-dasharray="5,2" d="M273.17,-747.8C322.25,-754.81 411.67,-768.64 442,-780.23 465.06,-789.05 488.93,-805.2 502.98,-815.56"/>
<polygon fill="#9a32cd" stroke="#9a32cd" points="273.45,-744.31 263.06,-746.37 272.47,-751.24 273.45,-744.31"/>
<text text-anchor="middle" x="381.5" y="-783.23" font-family="Helvetica,sans-Serif" font-size="10.00"> last_tick</text>
</g>
<!-- Node10&#45;&gt;Node13 -->
<g id="edge15" class="edge">
<title>Node10&#45;&gt;Node13</title>
<path fill="none" stroke="#9a32cd" stroke-dasharray="5,2" d="M273.25,-738.51C322.44,-731.23 412,-716.81 442,-704.23 578.35,-647.1 715.8,-526.8 754.06,-491.91"/>
<polygon fill="#9a32cd" stroke="#9a32cd" points="272.51,-735.08 263.12,-739.99 273.52,-742.01 272.51,-735.08"/>
<text text-anchor="middle" x="516.5" y="-698.23" font-family="Helvetica,sans-Serif" font-size="10.00"> last_identify</text>
</g>
<!-- Node11 -->
<g id="node11" class="node">
<title>Node11</title>
<g id="a_node11"><a xlink:title=" ">
<polygon fill="none" stroke="#bfbfbf" points="24,-347.73 24,-366.73 80,-366.73 80,-347.73 24,-347.73"/>
<text text-anchor="middle" x="52" y="-354.73" font-family="Helvetica,sans-Serif" font-size="10.00">uint64_t</text>
</a>
</g>
</g>
<!-- Node11&#45;&gt;Node4 -->
<g id="edge33" class="edge">
<title>Node11&#45;&gt;Node4</title>
<path fill="none" stroke="#9a32cd" stroke-dasharray="5,2" d="M59.87,-337.95C74.46,-300.14 112.42,-216.71 175,-179.23 424.29,-29.96 565.32,-87.02 828,-211.23 904.37,-247.35 936,-251.05 983,-321.23 1050.63,-422.23 1054.38,-579.03 1054.16,-619.46"/>
<polygon fill="#9a32cd" stroke="#9a32cd" points="56.59,-336.73 56.38,-347.33 63.15,-339.18 56.59,-336.73"/>
<text text-anchor="middle" x="516.5" y="-110.23" font-family="Helvetica,sans-Serif" font-size="10.00"> last_seq</text>
</g>
<!-- Node11&#45;&gt;Node6 -->
<g id="edge11" class="edge">
<title>Node11&#45;&gt;Node6</title>
<path fill="none" stroke="#9a32cd" stroke-dasharray="5,2" d="M54.8,-376.93C62.86,-460.43 98.68,-783.7 175,-843.23 272.09,-918.96 436.19,-859.75 494.32,-834.88"/>
<polygon fill="#9a32cd" stroke="#9a32cd" points="58.26,-376.42 53.84,-366.79 51.3,-377.07 58.26,-376.42"/>
<text text-anchor="middle" x="239" y="-895.23" font-family="Helvetica,sans-Serif" font-size="10.00"> bytes_in</text>
<text text-anchor="middle" x="239" y="-884.23" font-family="Helvetica,sans-Serif" font-size="10.00">bytes_out</text>
</g>
<!-- Node17 -->
<g id="node17" class="node">
<title>Node17</title>
<g id="a_node17"><a xlink:href="classdpp_1_1managed.html" target="_top" xlink:title="The managed class is the base class for various types that can be stored in a cache that are identifi...">
<polygon fill="none" stroke="black" points="196,-377.73 196,-396.73 282,-396.73 282,-377.73 196,-377.73"/>
<text text-anchor="middle" x="239" y="-384.73" font-family="Helvetica,sans-Serif" font-size="10.00">dpp::managed</text>
</a>
</g>
</g>
<!-- Node11&#45;&gt;Node17 -->
<g id="edge21" class="edge">
<title>Node11&#45;&gt;Node17</title>
<path fill="none" stroke="#9a32cd" stroke-dasharray="5,2" d="M90.53,-363.32C121.06,-368.27 164.13,-375.26 195.84,-380.4"/>
<polygon fill="#9a32cd" stroke="#9a32cd" points="90.73,-359.81 80.3,-361.66 89.61,-366.72 90.73,-359.81"/>
<text text-anchor="middle" x="139.5" y="-377.23" font-family="Helvetica,sans-Serif" font-size="10.00"> id</text>
</g>
<!-- Node19 -->
<g id="node19" class="node">
<title>Node19</title>
<g id="a_node19"><a xlink:href="structdpp_1_1utility_1_1iconhash.html" target="_top" xlink:title="Store a 128 bit icon hash (profile picture, server icon etc) as a 128 bit binary value made of two ui...">
<polygon fill="none" stroke="black" points="180,-301.73 180,-320.73 298,-320.73 298,-301.73 180,-301.73"/>
<text text-anchor="middle" x="239" y="-308.73" font-family="Helvetica,sans-Serif" font-size="10.00">dpp::utility::iconhash</text>
</a>
</g>
</g>
<!-- Node11&#45;&gt;Node19 -->
<g id="edge25" class="edge">
<title>Node11&#45;&gt;Node19</title>
<path fill="none" stroke="#9a32cd" stroke-dasharray="5,2" d="M90.1,-348.01C121.89,-340.11 167.5,-328.76 199.65,-320.77"/>
<polygon fill="#9a32cd" stroke="#9a32cd" points="89.16,-344.64 80.3,-350.45 90.85,-351.43 89.16,-344.64"/>
<text text-anchor="middle" x="139.5" y="-354.23" font-family="Helvetica,sans-Serif" font-size="10.00"> first</text>
<text text-anchor="middle" x="139.5" y="-343.23" font-family="Helvetica,sans-Serif" font-size="10.00">second</text>
</g>
<!-- Node12 -->
<g id="node12" class="node">
<title>Node12</title>
<g id="a_node12"><a xlink:title=" ">
<polygon fill="none" stroke="#bfbfbf" points="206.5,-561.73 206.5,-580.73 271.5,-580.73 271.5,-561.73 206.5,-561.73"/>
<text text-anchor="middle" x="239" y="-568.73" font-family="Helvetica,sans-Serif" font-size="10.00">function&lt;</text>
</a>
</g>
</g>
<!-- Node12&#45;&gt;Node6 -->
<g id="edge12" class="edge">
<title>Node12&#45;&gt;Node6</title>
<path fill="none" stroke="#9a32cd" stroke-dasharray="5,2" d="M258.16,-587.39C274.18,-601.3 298.42,-621.55 321,-637.23 372.21,-672.81 397.25,-664.82 442,-708.23 451,-716.96 494.29,-789.42 509.89,-815.73"/>
<polygon fill="#9a32cd" stroke="#9a32cd" points="260.42,-584.71 250.59,-580.75 255.8,-589.98 260.42,-584.71"/>
<text text-anchor="middle" x="381.5" y="-744.23" font-family="Helvetica,sans-Serif" font-size="10.00"> custom_readable_fd</text>
<text text-anchor="middle" x="381.5" y="-733.23" font-family="Helvetica,sans-Serif" font-size="10.00">custom_readable_ready</text>
<text text-anchor="middle" x="381.5" y="-722.23" font-family="Helvetica,sans-Serif" font-size="10.00">custom_writeable_fd</text>
<text text-anchor="middle" x="381.5" y="-711.23" font-family="Helvetica,sans-Serif" font-size="10.00">custom_writeable_ready</text>
</g>
<!-- Node15 -->
<g id="node15" class="node">
<title>Node15</title>
<g id="a_node15"><a xlink:href="classdpp_1_1dispatcher.html" target="_top" xlink:title="The dispatcher class contains a set of std::functions representing hooked events that the user code i...">
<polygon fill="none" stroke="black" points="470.5,-472.73 470.5,-491.73 562.5,-491.73 562.5,-472.73 470.5,-472.73"/>
<text text-anchor="middle" x="516.5" y="-479.73" font-family="Helvetica,sans-Serif" font-size="10.00">dpp::dispatcher</text>
</a>
</g>
</g>
<!-- Node12&#45;&gt;Node15 -->
<g id="edge18" class="edge">
<title>Node12&#45;&gt;Node15</title>
<path fill="none" stroke="#9a32cd" stroke-dasharray="5,2" d="M250.36,-552.93C263.6,-531.61 288.72,-497.5 321,-483.23 368.88,-462.09 430.08,-466.18 470.92,-472.7"/>
<polygon fill="#9a32cd" stroke="#9a32cd" points="247.24,-551.33 245.13,-561.71 253.25,-554.91 247.24,-551.33"/>
<text text-anchor="start" x="325.5" y="-629.23" font-family="Helvetica,sans-Serif" font-size="10.00"> application_command</text>
<text text-anchor="middle" x="381.5" y="-618.23" font-family="Helvetica,sans-Serif" font-size="10.00">_create</text>
<text text-anchor="start" x="325.5" y="-607.23" font-family="Helvetica,sans-Serif" font-size="10.00">application_command</text>
<text text-anchor="middle" x="381.5" y="-596.23" font-family="Helvetica,sans-Serif" font-size="10.00">_delete</text>
<text text-anchor="start" x="325.5" y="-585.23" font-family="Helvetica,sans-Serif" font-size="10.00">application_command</text>
<text text-anchor="middle" x="381.5" y="-574.23" font-family="Helvetica,sans-Serif" font-size="10.00">_update</text>
<text text-anchor="middle" x="381.5" y="-563.23" font-family="Helvetica,sans-Serif" font-size="10.00">button_click</text>
<text text-anchor="middle" x="381.5" y="-552.23" font-family="Helvetica,sans-Serif" font-size="10.00">channel_create</text>
<text text-anchor="middle" x="381.5" y="-541.23" font-family="Helvetica,sans-Serif" font-size="10.00">channel_delete</text>
<text text-anchor="middle" x="381.5" y="-530.23" font-family="Helvetica,sans-Serif" font-size="10.00">channel_pins_update</text>
<text text-anchor="middle" x="381.5" y="-519.23" font-family="Helvetica,sans-Serif" font-size="10.00">channel_update</text>
<text text-anchor="middle" x="381.5" y="-508.23" font-family="Helvetica,sans-Serif" font-size="10.00">guild_ban_add</text>
<text text-anchor="middle" x="381.5" y="-497.23" font-family="Helvetica,sans-Serif" font-size="10.00">guild_ban_remove</text>
<text text-anchor="middle" x="381.5" y="-486.23" font-family="Helvetica,sans-Serif" font-size="10.00">...</text>
</g>
<!-- Node13&#45;&gt;Node4 -->
<g id="edge13" class="edge">
<title>Node13&#45;&gt;Node4</title>
<path fill="none" stroke="#9a32cd" stroke-dasharray="5,2" d="M794.36,-496.48C852.54,-526.23 985.64,-594.28 1035.07,-619.55"/>
<polygon fill="#9a32cd" stroke="#9a32cd" points="795.86,-493.32 785.36,-491.88 792.67,-499.55 795.86,-493.32"/>
<text text-anchor="middle" x="914.5" y="-593.23" font-family="Helvetica,sans-Serif" font-size="10.00"> creator</text>
</g>
<!-- Node14 -->
<g id="node14" class="node">
<title>Node14</title>
<g id="a_node14"><a xlink:title=" ">
<polygon fill="none" stroke="#bfbfbf" points="211,-188.73 211,-207.73 267,-207.73 267,-188.73 211,-188.73"/>
<text text-anchor="middle" x="239" y="-195.73" font-family="Helvetica,sans-Serif" font-size="10.00">uint32_t</text>
</a>
</g>
</g>
<!-- Node14&#45;&gt;Node4 -->
<g id="edge30" class="edge">
<title>Node14&#45;&gt;Node4</title>
<path fill="none" stroke="#9a32cd" stroke-dasharray="5,2" d="M277.18,-189.16C356.43,-171.79 546.04,-140.94 685,-204.23 889.08,-297.2 1023.81,-565.05 1049.52,-619.5"/>
<polygon fill="#9a32cd" stroke="#9a32cd" points="276.18,-185.79 267.19,-191.4 277.72,-192.62 276.18,-185.79"/>
<text text-anchor="middle" x="638" y="-262.23" font-family="Helvetica,sans-Serif" font-size="10.00"> heartbeat_interval</text>
<text text-anchor="middle" x="638" y="-251.23" font-family="Helvetica,sans-Serif" font-size="10.00">intents</text>
<text text-anchor="middle" x="638" y="-240.23" font-family="Helvetica,sans-Serif" font-size="10.00">max_shards</text>
<text text-anchor="middle" x="638" y="-229.23" font-family="Helvetica,sans-Serif" font-size="10.00">reconnects</text>
<text text-anchor="middle" x="638" y="-218.23" font-family="Helvetica,sans-Serif" font-size="10.00">resumes</text>
<text text-anchor="middle" x="638" y="-207.23" font-family="Helvetica,sans-Serif" font-size="10.00">shard_id</text>
</g>
<!-- Node14&#45;&gt;Node13 -->
<g id="edge16" class="edge">
<title>Node14&#45;&gt;Node13</title>
<path fill="none" stroke="#9a32cd" stroke-dasharray="5,2" d="M277.22,-197.48C318.12,-197.42 385.51,-199.59 442,-212.23 502.97,-225.88 518.48,-232.72 573,-263.23 627.53,-293.75 643.4,-301.61 685,-348.23 721.56,-389.21 750.13,-449.46 760.39,-472.65"/>
<polygon fill="#9a32cd" stroke="#9a32cd" points="277.14,-193.98 267.17,-197.54 277.19,-200.98 277.14,-193.98"/>
<text text-anchor="middle" x="516.5" y="-299.23" font-family="Helvetica,sans-Serif" font-size="10.00"> cluster_id</text>
<text text-anchor="middle" x="516.5" y="-288.23" font-family="Helvetica,sans-Serif" font-size="10.00">intents</text>
<text text-anchor="middle" x="516.5" y="-277.23" font-family="Helvetica,sans-Serif" font-size="10.00">maxclusters</text>
<text text-anchor="middle" x="516.5" y="-266.23" font-family="Helvetica,sans-Serif" font-size="10.00">numshards</text>
</g>
<!-- Node14&#45;&gt;Node16 -->
<g id="edge26" class="edge">
<title>Node14&#45;&gt;Node16</title>
<path fill="none" stroke="#9a32cd" stroke-dasharray="5,2" d="M277.11,-203.91C333.84,-212.74 436.24,-229.37 442,-235.23 476.7,-270.59 432.9,-303.76 460,-345.23 467.66,-356.96 480.63,-365.69 492.1,-371.61"/>
<polygon fill="#9a32cd" stroke="#9a32cd" points="277.5,-200.42 267.08,-202.35 276.43,-207.34 277.5,-200.42"/>
<text text-anchor="middle" x="381.5" y="-238.23" font-family="Helvetica,sans-Serif" font-size="10.00"> flags</text>
</g>
<!-- Node15&#45;&gt;Node13 -->
<g id="edge17" class="edge">
<title>Node15&#45;&gt;Node13</title>
<path fill="none" stroke="#9a32cd" stroke-dasharray="5,2" d="M572.63,-482.23C620.1,-482.23 687.25,-482.23 728.22,-482.23"/>
<polygon fill="#9a32cd" stroke="#9a32cd" points="572.52,-478.74 562.52,-482.23 572.52,-485.74 572.52,-478.74"/>
<text text-anchor="middle" x="638" y="-485.23" font-family="Helvetica,sans-Serif" font-size="10.00"> dispatch</text>
</g>
<!-- Node16&#45;&gt;Node13 -->
<g id="edge19" class="edge">
<title>Node16&#45;&gt;Node13</title>
<path fill="none" stroke="#9a32cd" stroke-dasharray="5,2" d="M550.23,-394.62C600.85,-415.32 696.92,-454.6 741.14,-472.68"/>
<polygon fill="#9a32cd" stroke="#9a32cd" points="551.32,-391.28 540.74,-390.74 548.67,-397.76 551.32,-391.28"/>
<text text-anchor="middle" x="638" y="-453.23" font-family="Helvetica,sans-Serif" font-size="10.00"> me</text>
</g>
<!-- Node17&#45;&gt;Node16 -->
<g id="edge20" class="edge">
<title>Node17&#45;&gt;Node16</title>
<path fill="none" stroke="midnightblue" d="M292.41,-386.09C349.51,-384.85 438.88,-382.9 485.28,-381.89"/>
<polygon fill="midnightblue" stroke="midnightblue" points="292.06,-382.6 282.14,-386.32 292.22,-389.6 292.06,-382.6"/>
</g>
<!-- Node18 -->
<g id="node18" class="node">
<title>Node18</title>
<g id="a_node18"><a xlink:title=" ">
<polygon fill="none" stroke="#bfbfbf" points="211,-415.73 211,-434.73 267,-434.73 267,-415.73 211,-415.73"/>
<text text-anchor="middle" x="239" y="-422.73" font-family="Helvetica,sans-Serif" font-size="10.00">uint16_t</text>
</a>
</g>
</g>
<!-- Node18&#45;&gt;Node16 -->
<g id="edge23" class="edge">
<title>Node18&#45;&gt;Node16</title>
<path fill="none" stroke="#9a32cd" stroke-dasharray="5,2" d="M277.2,-419.29C332.27,-410.5 434.42,-394.18 485.21,-386.07"/>
<polygon fill="#9a32cd" stroke="#9a32cd" points="276.49,-415.86 267.17,-420.9 277.6,-422.77 276.49,-415.86"/>
<text text-anchor="middle" x="381.5" y="-415.23" font-family="Helvetica,sans-Serif" font-size="10.00"> discriminator</text>
</g>
<!-- Node19&#45;&gt;Node16 -->
<g id="edge24" class="edge">
<title>Node19&#45;&gt;Node16</title>
<path fill="none" stroke="#9a32cd" stroke-dasharray="5,2" d="M308.42,-315.4C348.2,-319.3 398.85,-326.8 442,-341.23 464.04,-348.61 487.24,-362.39 501.54,-371.69"/>
<polygon fill="#9a32cd" stroke="#9a32cd" points="308.57,-311.9 298.29,-314.47 307.92,-318.87 308.57,-311.9"/>
<text text-anchor="middle" x="381.5" y="-344.23" font-family="Helvetica,sans-Serif" font-size="10.00"> avatar</text>
</g>
<!-- Node20 -->
<g id="node20" class="node">
<title>Node20</title>
<g id="a_node20"><a xlink:title=" ">
<polygon fill="none" stroke="#bfbfbf" points="214,-339.73 214,-358.73 264,-358.73 264,-339.73 214,-339.73"/>
<text text-anchor="middle" x="239" y="-346.73" font-family="Helvetica,sans-Serif" font-size="10.00">uint8_t</text>
</a>
</g>
</g>
<!-- Node20&#45;&gt;Node16 -->
<g id="edge27" class="edge">
<title>Node20&#45;&gt;Node16</title>
<path fill="none" stroke="#9a32cd" stroke-dasharray="5,2" d="M274.09,-351.59C314.32,-354.57 383.2,-360.28 442,-368.23 456.25,-370.16 471.97,-372.86 485.19,-375.3"/>
<polygon fill="#9a32cd" stroke="#9a32cd" points="274.24,-348.09 264.02,-350.86 273.73,-355.08 274.24,-348.09"/>
<text text-anchor="middle" x="381.5" y="-371.23" font-family="Helvetica,sans-Serif" font-size="10.00"> refcount</text>
</g>
<!-- Node21 -->
<g id="node21" class="node">
<title>Node21</title>
<g id="a_node21"><a xlink:href="structdpp_1_1cache__policy__t.html" target="_top" xlink:title="Represents the caching policy of the cluster.">
<polygon fill="none" stroke="black" points="460,-316.73 460,-335.73 573,-335.73 573,-316.73 460,-316.73"/>
<text text-anchor="middle" x="516.5" y="-323.73" font-family="Helvetica,sans-Serif" font-size="10.00">dpp::cache_policy_t</text>
</a>
</g>
</g>
<!-- Node21&#45;&gt;Node13 -->
<g id="edge28" class="edge">
<title>Node21&#45;&gt;Node13</title>
<path fill="none" stroke="#9a32cd" stroke-dasharray="5,2" d="M558.58,-339C594,-351.16 645.52,-371.7 685,-399.23 715.93,-420.81 744.52,-455.77 757.37,-472.59"/>
<polygon fill="#9a32cd" stroke="#9a32cd" points="559.63,-335.66 549.04,-335.79 557.4,-342.29 559.63,-335.66"/>
<text text-anchor="middle" x="638" y="-402.23" font-family="Helvetica,sans-Serif" font-size="10.00"> cache_policy</text>
</g>
<!-- Node22 -->
<g id="node22" class="node">
<title>Node22</title>
<g id="a_node22"><a xlink:title=" ">
<polygon fill="none" stroke="#bfbfbf" points="175,-255.73 175,-274.73 303,-274.73 303,-255.73 175,-255.73"/>
<text text-anchor="middle" x="239" y="-262.73" font-family="Helvetica,sans-Serif" font-size="10.00">cache_policy_setting_t</text>
</a>
</g>
</g>
<!-- Node22&#45;&gt;Node21 -->
<g id="edge29" class="edge">
<title>Node22&#45;&gt;Node21</title>
<path fill="none" stroke="#9a32cd" stroke-dasharray="5,2" d="M295.05,-254.19C337.07,-248.38 395.47,-246.09 442,-266.23 452.67,-270.86 451.29,-277.53 460,-285.23 473.1,-296.82 489.31,-308.53 500.82,-316.45"/>
<polygon fill="#9a32cd" stroke="#9a32cd" points="294.37,-250.75 285,-255.69 295.41,-257.67 294.37,-250.75"/>
<text text-anchor="middle" x="381.5" y="-291.23" font-family="Helvetica,sans-Serif" font-size="10.00"> emoji_policy</text>
<text text-anchor="middle" x="381.5" y="-280.23" font-family="Helvetica,sans-Serif" font-size="10.00">role_policy</text>
<text text-anchor="middle" x="381.5" y="-269.23" font-family="Helvetica,sans-Serif" font-size="10.00">user_policy</text>
</g>
<!-- Node23 -->
<g id="node23" class="node">
<title>Node23</title>
<g id="a_node23"><a xlink:title=" ">
<polygon fill="none" stroke="#bfbfbf" points="709,-87.73 709,-106.73 822,-106.73 822,-87.73 709,-87.73"/>
<text text-anchor="middle" x="765.5" y="-94.73" font-family="Helvetica,sans-Serif" font-size="10.00">native_handle_type</text>
</a>
</g>
</g>
<!-- Node23&#45;&gt;Node4 -->
<g id="edge32" class="edge">
<title>Node23&#45;&gt;Node4</title>
<path fill="none" stroke="#9a32cd" stroke-dasharray="5,2" d="M809.58,-85.47C858.26,-75.04 936.72,-67.34 983,-110.23 1060.88,-182.41 1055.76,-554.7 1054.26,-619.58"/>
<polygon fill="#9a32cd" stroke="#9a32cd" points="808.64,-82.09 799.66,-87.72 810.19,-88.92 808.64,-82.09"/>
<text text-anchor="middle" x="914.5" y="-113.23" font-family="Helvetica,sans-Serif" font-size="10.00"> thread_id</text>
</g>
<!-- Node24 -->
<g id="node24" class="node">
<title>Node24</title>
<g id="a_node24"><a xlink:title=" ">
<polygon fill="none" stroke="#bfbfbf" points="731,-49.73 731,-68.73 800,-68.73 800,-49.73 731,-49.73"/>
<text text-anchor="middle" x="765.5" y="-56.73" font-family="Helvetica,sans-Serif" font-size="10.00">std::mutex</text>
</a>
</g>
</g>
<!-- Node24&#45;&gt;Node4 -->
<g id="edge35" class="edge">
<title>Node24&#45;&gt;Node4</title>
<path fill="none" stroke="#9a32cd" stroke-dasharray="5,2" d="M810.36,-53.59C866.24,-47.46 958.52,-41.23 983,-63.23 1026.36,-102.21 1050.03,-548.46 1053.54,-619.68"/>
<polygon fill="#9a32cd" stroke="#9a32cd" points="809.92,-50.12 800.38,-54.73 810.71,-57.07 809.92,-50.12"/>
<text text-anchor="middle" x="914.5" y="-66.23" font-family="Helvetica,sans-Serif" font-size="10.00"> voice_mutex</text>
</g>
<!-- Node25 -->
<g id="node25" class="node">
<title>Node25</title>
<g id="a_node25"><a xlink:title=" ">
<polygon fill="none" stroke="#bfbfbf" points="740.5,-11.73 740.5,-30.73 790.5,-30.73 790.5,-11.73 740.5,-11.73"/>
<text text-anchor="middle" x="765.5" y="-18.73" font-family="Helvetica,sans-Serif" font-size="10.00">double</text>
</a>
</g>
</g>
<!-- Node25&#45;&gt;Node4 -->
<g id="edge36" class="edge">
<title>Node25&#45;&gt;Node4</title>
<path fill="none" stroke="#9a32cd" stroke-dasharray="5,2" d="M800.61,-11.21C848.17,0.46 934.03,12.73 983,-33.23 1027.82,-75.31 1050.34,-546.32 1053.59,-619.66"/>
<polygon fill="#9a32cd" stroke="#9a32cd" points="799.6,-7.85 790.8,-13.74 801.35,-14.63 799.6,-7.85"/>
<text text-anchor="middle" x="914.5" y="-36.23" font-family="Helvetica,sans-Serif" font-size="10.00"> websocket_ping</text>
</g>
<!-- Node26 -->
<g id="node26" class="node">
<title>Node26</title>
<g id="a_node26"><a xlink:title=" ">
<polygon fill="none" stroke="#bfbfbf" points="715,-985.73 715,-1004.73 816,-1004.73 816,-985.73 715,-985.73"/>
<text text-anchor="middle" x="765.5" y="-992.73" font-family="Helvetica,sans-Serif" font-size="10.00">unordered_map&lt;</text>
</a>
</g>
</g>
<!-- Node26&#45;&gt;Node4 -->
<g id="edge38" class="edge">
<title>Node26&#45;&gt;Node4</title>
<path fill="none" stroke="#9a32cd" stroke-dasharray="5,2" d="M825.69,-1005.95C874.07,-1011.09 941.09,-1009.37 983,-971.23 1034.13,-924.71 1050.5,-689.78 1053.47,-638.94"/>
<polygon fill="#9a32cd" stroke="#9a32cd" points="826.01,-1002.46 815.67,-1004.76 825.18,-1009.41 826.01,-1002.46"/>
<text text-anchor="middle" x="914.5" y="-1011.23" font-family="Helvetica,sans-Serif" font-size="10.00"> connecting_voice_channels</text>
</g>
</g>
</svg>
