<?xml version="1.0" encoding="UTF-8" standalone="no"?>
<!DOCTYPE svg PUBLIC "-//W3C//DTD SVG 1.1//EN"
 "http://www.w3.org/Graphics/SVG/1.1/DTD/svg11.dtd">
<!-- Generated by graphviz version 2.43.0 (0)
 -->
<!-- Title: dpp::invite_create_t Pages: 1 -->
<svg width="1454pt" height="1230pt"
 viewBox="0.00 0.00 1454.00 1230.41" xmlns="http://www.w3.org/2000/svg" xmlns:xlink="http://www.w3.org/1999/xlink">
<g id="graph0" class="graph" transform="scale(1 1) rotate(0) translate(4 1226.41)">
<title>dpp::invite_create_t</title>
<polygon fill="white" stroke="transparent" points="-4,4 -4,-1226.41 1450,-1226.41 1450,4 -4,4"/>
<!-- Node1 -->
<g id="node1" class="node">
<title>Node1</title>
<g id="a_node1"><a xlink:title="Invite create.">
<polygon fill="#bfbfbf" stroke="black" points="1333,-10.91 1333,-29.91 1446,-29.91 1446,-10.91 1333,-10.91"/>
<text text-anchor="middle" x="1389.5" y="-17.91" font-family="Helvetica,sans-Serif" font-size="10.00">dpp::invite_create_t</text>
</a>
</g>
</g>
<!-- Node2 -->
<g id="node2" class="node">
<title>Node2</title>
<g id="a_node2"><a xlink:href="structdpp_1_1event__dispatch__t.html" target="_top" xlink:title="Base event parameter struct.">
<polygon fill="white" stroke="black" points="1172,-33.91 1172,-52.91 1296,-52.91 1296,-33.91 1172,-33.91"/>
<text text-anchor="middle" x="1234" y="-40.91" font-family="Helvetica,sans-Serif" font-size="10.00">dpp::event_dispatch_t</text>
</a>
</g>
</g>
<!-- Node2&#45;&gt;Node1 -->
<g id="edge1" class="edge">
<title>Node2&#45;&gt;Node1</title>
<path fill="none" stroke="midnightblue" d="M1306.08,-32.76C1314.97,-31.43 1323.97,-30.08 1332.58,-28.79"/>
<polygon fill="midnightblue" stroke="midnightblue" points="1305.48,-29.31 1296.11,-34.26 1306.52,-36.24 1305.48,-29.31"/>
</g>
<!-- Node3 -->
<g id="node3" class="node">
<title>Node3</title>
<g id="a_node3"><a xlink:title=" ">
<polygon fill="white" stroke="#bfbfbf" points="206.5,-25.91 206.5,-44.91 271.5,-44.91 271.5,-25.91 206.5,-25.91"/>
<text text-anchor="middle" x="239" y="-32.91" font-family="Helvetica,sans-Serif" font-size="10.00">std::string</text>
</a>
</g>
</g>
<!-- Node3&#45;&gt;Node2 -->
<g id="edge2" class="edge">
<title>Node3&#45;&gt;Node2</title>
<path fill="none" stroke="#9a32cd" stroke-dasharray="5,2" d="M269.08,-21.84C284.21,-15.51 303.21,-8.67 321,-5.41 381.77,5.71 398.22,-4.64 460,-4.41 510.22,-4.23 522.8,-2.93 573,-4.41 793.57,-10.92 1055.07,-29.65 1171.63,-38.57"/>
<polygon fill="#9a32cd" stroke="#9a32cd" points="267.54,-18.7 259.76,-25.89 270.32,-25.12 267.54,-18.7"/>
<text text-anchor="middle" x="765.5" y="-19.41" font-family="Helvetica,sans-Serif" font-size="10.00"> raw_event</text>
</g>
<!-- Node5 -->
<g id="node5" class="node">
<title>Node5</title>
<g id="a_node5"><a xlink:href="classdpp_1_1discord__client.html" target="_top" xlink:title="Implements a discord client. Each discord_client connects to one shard and derives from a websocket c...">
<polygon fill="white" stroke="black" points="1001,-592.91 1001,-611.91 1109,-611.91 1109,-592.91 1001,-592.91"/>
<text text-anchor="middle" x="1055" y="-599.91" font-family="Helvetica,sans-Serif" font-size="10.00">dpp::discord_client</text>
</a>
</g>
</g>
<!-- Node3&#45;&gt;Node5 -->
<g id="edge37" class="edge">
<title>Node3&#45;&gt;Node5</title>
<path fill="none" stroke="#9a32cd" stroke-dasharray="5,2" d="M281.9,-26.14C294.41,-23.79 308.2,-21.59 321,-20.41 484.65,-5.39 556.09,16.51 685,-85.41 849.82,-215.73 871.03,-274.62 983,-452.41 1014.48,-502.39 1041.07,-568.51 1050.42,-592.88"/>
<polygon fill="#9a32cd" stroke="#9a32cd" points="280.88,-22.78 271.74,-28.14 282.23,-29.65 280.88,-22.78"/>
<text text-anchor="middle" x="638" y="-99.41" font-family="Helvetica,sans-Serif" font-size="10.00"> sessionid</text>
<text text-anchor="middle" x="638" y="-88.41" font-family="Helvetica,sans-Serif" font-size="10.00">token</text>
</g>
<!-- Node7 -->
<g id="node7" class="node">
<title>Node7</title>
<g id="a_node7"><a xlink:href="classdpp_1_1ssl__client.html" target="_top" xlink:title="Implements a simple non&#45;blocking SSL stream client.">
<polygon fill="white" stroke="black" points="473.5,-1015.91 473.5,-1034.91 559.5,-1034.91 559.5,-1015.91 473.5,-1015.91"/>
<text text-anchor="middle" x="516.5" y="-1022.91" font-family="Helvetica,sans-Serif" font-size="10.00">dpp::ssl_client</text>
</a>
</g>
</g>
<!-- Node3&#45;&gt;Node7 -->
<g id="edge7" class="edge">
<title>Node3&#45;&gt;Node7</title>
<path fill="none" stroke="#9a32cd" stroke-dasharray="5,2" d="M280.71,-47C289.42,-51.38 297.61,-57.34 303,-65.41 346.38,-130.36 281.28,-349.17 321,-416.41 353.18,-470.89 409.8,-436.95 442,-491.41 461.59,-524.55 453.51,-799.47 460,-837.41 472,-907.52 501.4,-988.46 511.79,-1015.82"/>
<polygon fill="#9a32cd" stroke="#9a32cd" points="282.1,-43.79 271.54,-42.99 279.3,-50.21 282.1,-43.79"/>
<text text-anchor="middle" x="381.5" y="-538.41" font-family="Helvetica,sans-Serif" font-size="10.00"> buffer</text>
<text text-anchor="middle" x="381.5" y="-527.41" font-family="Helvetica,sans-Serif" font-size="10.00">cipher</text>
<text text-anchor="middle" x="381.5" y="-516.41" font-family="Helvetica,sans-Serif" font-size="10.00">hostname</text>
<text text-anchor="middle" x="381.5" y="-505.41" font-family="Helvetica,sans-Serif" font-size="10.00">obuffer</text>
<text text-anchor="middle" x="381.5" y="-494.41" font-family="Helvetica,sans-Serif" font-size="10.00">port</text>
</g>
<!-- Node16 -->
<g id="node16" class="node">
<title>Node16</title>
<g id="a_node16"><a xlink:href="classdpp_1_1cluster.html" target="_top" xlink:title="The cluster class represents a group of shards and a command queue for sending and receiving commands...">
<polygon fill="white" stroke="black" points="728.5,-570.91 728.5,-589.91 802.5,-589.91 802.5,-570.91 728.5,-570.91"/>
<text text-anchor="middle" x="765.5" y="-577.91" font-family="Helvetica,sans-Serif" font-size="10.00">dpp::cluster</text>
</a>
</g>
</g>
<!-- Node3&#45;&gt;Node16 -->
<g id="edge17" class="edge">
<title>Node3&#45;&gt;Node16</title>
<path fill="none" stroke="#9a32cd" stroke-dasharray="5,2" d="M281.92,-28.64C352.53,-19.84 495.12,-13.74 573,-91.41 672.89,-191.03 652.54,-251.12 685,-388.41 693.89,-426.03 678.47,-531.54 703,-561.41 709.31,-569.1 718.67,-573.74 728.19,-576.52"/>
<polygon fill="#9a32cd" stroke="#9a32cd" points="281.08,-25.22 271.63,-30.01 282,-32.16 281.08,-25.22"/>
<text text-anchor="middle" x="516.5" y="-94.41" font-family="Helvetica,sans-Serif" font-size="10.00"> token</text>
</g>
<!-- Node19 -->
<g id="node19" class="node">
<title>Node19</title>
<g id="a_node19"><a xlink:href="classdpp_1_1user.html" target="_top" xlink:title="Represents a user on discord. May or may not be a member of a dpp::guild.">
<polygon fill="white" stroke="black" points="485.5,-335.91 485.5,-354.91 547.5,-354.91 547.5,-335.91 485.5,-335.91"/>
<text text-anchor="middle" x="516.5" y="-342.91" font-family="Helvetica,sans-Serif" font-size="10.00">dpp::user</text>
</a>
</g>
</g>
<!-- Node3&#45;&gt;Node19 -->
<g id="edge25" class="edge">
<title>Node3&#45;&gt;Node19</title>
<path fill="none" stroke="#9a32cd" stroke-dasharray="5,2" d="M271.06,-49.12C281.39,-53.96 292.84,-59.64 303,-65.41 311.36,-70.16 312.39,-73.14 321,-77.41 371.98,-102.74 402.15,-78.77 442,-119.41 504.68,-183.34 513.91,-301.28 515.27,-335.73"/>
<polygon fill="#9a32cd" stroke="#9a32cd" points="272.52,-45.94 261.97,-44.94 269.59,-52.3 272.52,-45.94"/>
<text text-anchor="middle" x="381.5" y="-122.41" font-family="Helvetica,sans-Serif" font-size="10.00"> username</text>
</g>
<!-- Node30 -->
<g id="node30" class="node">
<title>Node30</title>
<g id="a_node30"><a xlink:href="classdpp_1_1invite.html" target="_top" xlink:title="Represents an invite to a discord guild or channel.">
<polygon fill="white" stroke="black" points="482.5,-111.91 482.5,-130.91 550.5,-130.91 550.5,-111.91 482.5,-111.91"/>
<text text-anchor="middle" x="516.5" y="-118.91" font-family="Helvetica,sans-Serif" font-size="10.00">dpp::invite</text>
</a>
</g>
</g>
<!-- Node3&#45;&gt;Node30 -->
<g id="edge43" class="edge">
<title>Node3&#45;&gt;Node30</title>
<path fill="none" stroke="#9a32cd" stroke-dasharray="5,2" d="M282.13,-38.37C332.67,-42.38 414.06,-50.45 442,-62.41 468.77,-73.88 493.85,-97.92 506.64,-111.51"/>
<polygon fill="#9a32cd" stroke="#9a32cd" points="282.09,-34.86 271.85,-37.58 281.55,-41.84 282.09,-34.86"/>
<text text-anchor="middle" x="381.5" y="-65.41" font-family="Helvetica,sans-Serif" font-size="10.00"> code</text>
</g>
<!-- Node4 -->
<g id="node4" class="node">
<title>Node4</title>
<g id="a_node4"><a xlink:title=" ">
<polygon fill="white" stroke="#bfbfbf" points="0,-20.41 0,-50.41 104,-50.41 104,-20.41 0,-20.41"/>
<text text-anchor="start" x="8" y="-38.41" font-family="Helvetica,sans-Serif" font-size="10.00">std::basic_string&lt;</text>
<text text-anchor="middle" x="52" y="-27.41" font-family="Helvetica,sans-Serif" font-size="10.00"> Char &gt;</text>
</a>
</g>
</g>
<!-- Node4&#45;&gt;Node3 -->
<g id="edge3" class="edge">
<title>Node4&#45;&gt;Node3</title>
<path fill="none" stroke="midnightblue" d="M114.26,-35.41C145.05,-35.41 181.08,-35.41 206.29,-35.41"/>
<polygon fill="midnightblue" stroke="midnightblue" points="114.04,-31.91 104.04,-35.41 114.04,-38.91 114.04,-31.91"/>
</g>
<!-- Node5&#45;&gt;Node2 -->
<g id="edge4" class="edge">
<title>Node5&#45;&gt;Node2</title>
<path fill="none" stroke="#9a32cd" stroke-dasharray="5,2" d="M1062.16,-582.97C1090.68,-492.88 1209.48,-117.68 1229.98,-52.95"/>
<polygon fill="#9a32cd" stroke="#9a32cd" points="1058.75,-582.12 1059.07,-592.71 1065.43,-584.23 1058.75,-582.12"/>
<text text-anchor="middle" x="1140.5" y="-376.41" font-family="Helvetica,sans-Serif" font-size="10.00"> from</text>
</g>
<!-- Node6 -->
<g id="node6" class="node">
<title>Node6</title>
<g id="a_node6"><a xlink:href="classdpp_1_1websocket__client.html" target="_top" xlink:title="Implements a websocket client based on the SSL client.">
<polygon fill="white" stroke="black" points="703,-1015.91 703,-1034.91 828,-1034.91 828,-1015.91 703,-1015.91"/>
<text text-anchor="middle" x="765.5" y="-1022.91" font-family="Helvetica,sans-Serif" font-size="10.00">dpp::websocket_client</text>
</a>
</g>
</g>
<!-- Node6&#45;&gt;Node5 -->
<g id="edge5" class="edge">
<title>Node6&#45;&gt;Node5</title>
<path fill="none" stroke="midnightblue" d="M824.17,-1036.23C872.85,-1041.79 941.12,-1040.63 983,-1001.41 1042.06,-946.11 1052.31,-668.11 1053.78,-612.21"/>
<polygon fill="midnightblue" stroke="midnightblue" points="824.45,-1032.74 814.09,-1034.96 823.57,-1039.69 824.45,-1032.74"/>
</g>
<!-- Node7&#45;&gt;Node6 -->
<g id="edge6" class="edge">
<title>Node7&#45;&gt;Node6</title>
<path fill="none" stroke="midnightblue" d="M569.72,-1025.41C608.53,-1025.41 661.62,-1025.41 702.57,-1025.41"/>
<polygon fill="midnightblue" stroke="midnightblue" points="569.68,-1021.91 559.68,-1025.41 569.68,-1028.91 569.68,-1021.91"/>
</g>
<!-- Node8 -->
<g id="node8" class="node">
<title>Node8</title>
<g id="a_node8"><a xlink:title=" ">
<polygon fill="white" stroke="#bfbfbf" points="220,-977.91 220,-996.91 258,-996.91 258,-977.91 220,-977.91"/>
<text text-anchor="middle" x="239" y="-984.91" font-family="Helvetica,sans-Serif" font-size="10.00">bool</text>
</a>
</g>
</g>
<!-- Node8&#45;&gt;Node5 -->
<g id="edge40" class="edge">
<title>Node8&#45;&gt;Node5</title>
<path fill="none" stroke="#9a32cd" stroke-dasharray="5,2" d="M268.49,-988.98C308.16,-990.37 381.93,-990.07 442,-973.41 476.58,-963.82 967.83,-707.11 983,-694.41 1012.71,-669.56 1037.79,-630.24 1048.48,-612.13"/>
<polygon fill="#9a32cd" stroke="#9a32cd" points="268.38,-985.47 258.24,-988.55 268.09,-992.47 268.38,-985.47"/>
<text text-anchor="middle" x="638" y="-903.41" font-family="Helvetica,sans-Serif" font-size="10.00"> ready</text>
</g>
<!-- Node8&#45;&gt;Node7 -->
<g id="edge8" class="edge">
<title>Node8&#45;&gt;Node7</title>
<path fill="none" stroke="#9a32cd" stroke-dasharray="5,2" d="M268.18,-991.3C316.74,-998 416.45,-1011.75 473.32,-1019.6"/>
<polygon fill="#9a32cd" stroke="#9a32cd" points="268.46,-987.81 258.08,-989.91 267.5,-994.74 268.46,-987.81"/>
<text text-anchor="middle" x="381.5" y="-1017.41" font-family="Helvetica,sans-Serif" font-size="10.00"> nonblocking</text>
</g>
<!-- Node8&#45;&gt;Node30 -->
<g id="edge47" class="edge">
<title>Node8&#45;&gt;Node30</title>
<path fill="none" stroke="#9a32cd" stroke-dasharray="5,2" d="M253.84,-969.85C268.94,-949.59 292.36,-914.66 303,-880.41 319.86,-826.16 283.59,-668.17 321,-625.41 357.16,-584.08 405.94,-641.83 442,-600.41 462.03,-577.4 454.99,-356.51 460,-326.41 472.78,-249.67 502.2,-160.17 512.14,-131.08"/>
<polygon fill="#9a32cd" stroke="#9a32cd" points="251.04,-967.75 247.76,-977.83 256.61,-972 251.04,-967.75"/>
<text text-anchor="middle" x="381.5" y="-639.41" font-family="Helvetica,sans-Serif" font-size="10.00"> temporary</text>
<text text-anchor="middle" x="381.5" y="-628.41" font-family="Helvetica,sans-Serif" font-size="10.00">unique</text>
</g>
<!-- Node9 -->
<g id="node9" class="node">
<title>Node9</title>
<g id="a_node9"><a xlink:title=" ">
<polygon fill="white" stroke="#bfbfbf" points="224.5,-1086.91 224.5,-1105.91 253.5,-1105.91 253.5,-1086.91 224.5,-1086.91"/>
<text text-anchor="middle" x="239" y="-1093.91" font-family="Helvetica,sans-Serif" font-size="10.00">int</text>
</a>
</g>
</g>
<!-- Node9&#45;&gt;Node7 -->
<g id="edge9" class="edge">
<title>Node9&#45;&gt;Node7</title>
<path fill="none" stroke="#9a32cd" stroke-dasharray="5,2" d="M263.91,-1091.64C280.04,-1088.44 301.79,-1084.14 321,-1080.41 374.74,-1070 389.69,-1073.55 442,-1057.41 461.15,-1051.51 482.01,-1042.12 496.6,-1035.04"/>
<polygon fill="#9a32cd" stroke="#9a32cd" points="262.88,-1088.28 253.75,-1093.67 264.24,-1095.15 262.88,-1088.28"/>
<text text-anchor="middle" x="381.5" y="-1083.41" font-family="Helvetica,sans-Serif" font-size="10.00"> sfd</text>
</g>
<!-- Node10 -->
<g id="node10" class="node">
<title>Node10</title>
<g id="a_node10"><a xlink:href="classdpp_1_1opensslcontext.html" target="_top" xlink:title=" ">
<polygon fill="white" stroke="black" points="181.5,-1167.91 181.5,-1186.91 296.5,-1186.91 296.5,-1167.91 181.5,-1167.91"/>
<text text-anchor="middle" x="239" y="-1174.91" font-family="Helvetica,sans-Serif" font-size="10.00">dpp::opensslcontext</text>
</a>
</g>
</g>
<!-- Node10&#45;&gt;Node7 -->
<g id="edge10" class="edge">
<title>Node10&#45;&gt;Node7</title>
<path fill="none" stroke="#9a32cd" stroke-dasharray="5,2" d="M280.27,-1164.69C322.47,-1150.36 389.77,-1124.68 442,-1091.41 468.04,-1074.83 493.8,-1048.94 506.8,-1035.03"/>
<polygon fill="#9a32cd" stroke="#9a32cd" points="279,-1161.42 270.62,-1167.91 281.22,-1168.06 279,-1161.42"/>
<text text-anchor="middle" x="381.5" y="-1150.41" font-family="Helvetica,sans-Serif" font-size="10.00"> ssl</text>
</g>
<!-- Node11 -->
<g id="node11" class="node">
<title>Node11</title>
<g id="a_node11"><a xlink:title=" ">
<polygon fill="white" stroke="#bfbfbf" points="31,-1164.91 31,-1183.91 73,-1183.91 73,-1164.91 31,-1164.91"/>
<text text-anchor="middle" x="52" y="-1171.91" font-family="Helvetica,sans-Serif" font-size="10.00">SSL *</text>
</a>
</g>
</g>
<!-- Node11&#45;&gt;Node10 -->
<g id="edge11" class="edge">
<title>Node11&#45;&gt;Node10</title>
<path fill="none" stroke="#9a32cd" stroke-dasharray="5,2" d="M83.33,-1174.9C109.83,-1175.33 149,-1175.97 181.29,-1176.49"/>
<polygon fill="#9a32cd" stroke="#9a32cd" points="83.21,-1171.4 73.15,-1174.74 83.09,-1178.4 83.21,-1171.4"/>
<text text-anchor="middle" x="139.5" y="-1178.41" font-family="Helvetica,sans-Serif" font-size="10.00"> ssl</text>
</g>
<!-- Node12 -->
<g id="node12" class="node">
<title>Node12</title>
<g id="a_node12"><a xlink:title=" ">
<polygon fill="white" stroke="#bfbfbf" points="18.5,-1202.91 18.5,-1221.91 85.5,-1221.91 85.5,-1202.91 18.5,-1202.91"/>
<text text-anchor="middle" x="52" y="-1209.91" font-family="Helvetica,sans-Serif" font-size="10.00">SSL_CTX *</text>
</a>
</g>
</g>
<!-- Node12&#45;&gt;Node10 -->
<g id="edge12" class="edge">
<title>Node12&#45;&gt;Node10</title>
<path fill="none" stroke="#9a32cd" stroke-dasharray="5,2" d="M95.71,-1204.33C123.09,-1199.15 158.77,-1192.4 187.55,-1186.96"/>
<polygon fill="#9a32cd" stroke="#9a32cd" points="94.82,-1200.94 85.65,-1206.24 96.12,-1207.82 94.82,-1200.94"/>
<text text-anchor="middle" x="139.5" y="-1201.41" font-family="Helvetica,sans-Serif" font-size="10.00"> ctx</text>
</g>
<!-- Node13 -->
<g id="node13" class="node">
<title>Node13</title>
<g id="a_node13"><a xlink:title=" ">
<polygon fill="white" stroke="#bfbfbf" points="215,-851.91 215,-870.91 263,-870.91 263,-851.91 215,-851.91"/>
<text text-anchor="middle" x="239" y="-858.91" font-family="Helvetica,sans-Serif" font-size="10.00">time_t</text>
</a>
</g>
</g>
<!-- Node13&#45;&gt;Node5 -->
<g id="edge34" class="edge">
<title>Node13&#45;&gt;Node5</title>
<path fill="none" stroke="#9a32cd" stroke-dasharray="5,2" d="M273.06,-859.73C313.11,-857.55 382.59,-853.32 442,-847.41 500.42,-841.6 516.67,-846.97 573,-830.41 766.73,-773.48 980.16,-647.64 1038.53,-611.99"/>
<polygon fill="#9a32cd" stroke="#9a32cd" points="272.86,-856.24 263.06,-860.26 273.23,-863.23 272.86,-856.24"/>
<text text-anchor="middle" x="638" y="-837.41" font-family="Helvetica,sans-Serif" font-size="10.00"> last_heartbeat</text>
<text text-anchor="middle" x="638" y="-826.41" font-family="Helvetica,sans-Serif" font-size="10.00">last_heartbeat_ack</text>
</g>
<!-- Node13&#45;&gt;Node7 -->
<g id="edge13" class="edge">
<title>Node13&#45;&gt;Node7</title>
<path fill="none" stroke="#9a32cd" stroke-dasharray="5,2" d="M254.25,-878.89C269.26,-896.32 294.38,-922.81 321,-939.41 369.55,-969.7 390.08,-959.35 442,-983.41 462.94,-993.11 485.84,-1006.71 500.42,-1015.78"/>
<polygon fill="#9a32cd" stroke="#9a32cd" points="256.85,-876.54 247.73,-871.15 251.49,-881.05 256.85,-876.54"/>
<text text-anchor="middle" x="381.5" y="-986.41" font-family="Helvetica,sans-Serif" font-size="10.00"> last_tick</text>
</g>
<!-- Node13&#45;&gt;Node16 -->
<g id="edge18" class="edge">
<title>Node13&#45;&gt;Node16</title>
<path fill="none" stroke="#9a32cd" stroke-dasharray="5,2" d="M273.11,-856.31C322.1,-848.54 411.42,-833.48 442,-822.41 557.97,-780.43 592.29,-769.75 685,-688.41 719.48,-658.17 747.97,-610.52 759.27,-590.16"/>
<polygon fill="#9a32cd" stroke="#9a32cd" points="272.35,-852.89 263.01,-857.9 273.44,-859.8 272.35,-852.89"/>
<text text-anchor="middle" x="516.5" y="-818.41" font-family="Helvetica,sans-Serif" font-size="10.00"> last_identify</text>
</g>
<!-- Node14 -->
<g id="node14" class="node">
<title>Node14</title>
<g id="a_node14"><a xlink:title=" ">
<polygon fill="white" stroke="#bfbfbf" points="24,-373.91 24,-392.91 80,-392.91 80,-373.91 24,-373.91"/>
<text text-anchor="middle" x="52" y="-380.91" font-family="Helvetica,sans-Serif" font-size="10.00">uint64_t</text>
</a>
</g>
</g>
<!-- Node14&#45;&gt;Node5 -->
<g id="edge36" class="edge">
<title>Node14&#45;&gt;Node5</title>
<path fill="none" stroke="#9a32cd" stroke-dasharray="5,2" d="M53.93,-403.13C57.71,-476.84 74.09,-742.97 122,-956.41 143.09,-1050.37 141.7,-1139.41 238,-1139.41 238,-1139.41 238,-1139.41 766.5,-1139.41 873.64,-1139.41 919.07,-1119.39 983,-1033.41 1035.26,-963.13 1051.02,-668.75 1053.6,-611.93"/>
<polygon fill="#9a32cd" stroke="#9a32cd" points="57.42,-402.8 53.43,-392.99 50.43,-403.15 57.42,-402.8"/>
<text text-anchor="middle" x="516.5" y="-1142.41" font-family="Helvetica,sans-Serif" font-size="10.00"> last_seq</text>
</g>
<!-- Node14&#45;&gt;Node7 -->
<g id="edge14" class="edge">
<title>Node14&#45;&gt;Node7</title>
<path fill="none" stroke="#9a32cd" stroke-dasharray="5,2" d="M53.92,-403.13C58.83,-499.5 85.2,-919.88 175,-1006.41 216.52,-1046.42 391.92,-1036.55 473.48,-1029.54"/>
<polygon fill="#9a32cd" stroke="#9a32cd" points="57.41,-402.84 53.42,-393.03 50.42,-403.19 57.41,-402.84"/>
<text text-anchor="middle" x="239" y="-1048.41" font-family="Helvetica,sans-Serif" font-size="10.00"> bytes_in</text>
<text text-anchor="middle" x="239" y="-1037.41" font-family="Helvetica,sans-Serif" font-size="10.00">bytes_out</text>
</g>
<!-- Node20 -->
<g id="node20" class="node">
<title>Node20</title>
<g id="a_node20"><a xlink:href="classdpp_1_1managed.html" target="_top" xlink:title="The managed class is the base class for various types that can be stored in a cache that are identifi...">
<polygon fill="white" stroke="black" points="196,-373.91 196,-392.91 282,-392.91 282,-373.91 196,-373.91"/>
<text text-anchor="middle" x="239" y="-380.91" font-family="Helvetica,sans-Serif" font-size="10.00">dpp::managed</text>
</a>
</g>
</g>
<!-- Node14&#45;&gt;Node20 -->
<g id="edge24" class="edge">
<title>Node14&#45;&gt;Node20</title>
<path fill="none" stroke="#9a32cd" stroke-dasharray="5,2" d="M90.53,-383.41C121.06,-383.41 164.13,-383.41 195.84,-383.41"/>
<polygon fill="#9a32cd" stroke="#9a32cd" points="90.3,-379.91 80.3,-383.41 90.3,-386.91 90.3,-379.91"/>
<text text-anchor="middle" x="139.5" y="-386.41" font-family="Helvetica,sans-Serif" font-size="10.00"> id</text>
</g>
<!-- Node22 -->
<g id="node22" class="node">
<title>Node22</title>
<g id="a_node22"><a xlink:href="structdpp_1_1utility_1_1iconhash.html" target="_top" xlink:title="Store a 128 bit icon hash (profile picture, server icon etc) as a 128 bit binary value made of two ui...">
<polygon fill="white" stroke="black" points="180,-297.91 180,-316.91 298,-316.91 298,-297.91 180,-297.91"/>
<text text-anchor="middle" x="239" y="-304.91" font-family="Helvetica,sans-Serif" font-size="10.00">dpp::utility::iconhash</text>
</a>
</g>
</g>
<!-- Node14&#45;&gt;Node22 -->
<g id="edge28" class="edge">
<title>Node14&#45;&gt;Node22</title>
<path fill="none" stroke="#9a32cd" stroke-dasharray="5,2" d="M80.26,-369.29C104.67,-356.98 141.65,-339.16 175,-326.41 183.96,-322.99 193.83,-319.76 203.04,-316.98"/>
<polygon fill="#9a32cd" stroke="#9a32cd" points="78.57,-366.22 71.24,-373.88 81.74,-372.46 78.57,-366.22"/>
<text text-anchor="middle" x="139.5" y="-362.41" font-family="Helvetica,sans-Serif" font-size="10.00"> first</text>
<text text-anchor="middle" x="139.5" y="-351.41" font-family="Helvetica,sans-Serif" font-size="10.00">second</text>
</g>
<!-- Node14&#45;&gt;Node30 -->
<g id="edge44" class="edge">
<title>Node14&#45;&gt;Node30</title>
<path fill="none" stroke="#9a32cd" stroke-dasharray="5,2" d="M55.05,-363.51C61.57,-311.51 86.94,-171.44 175,-110.41 274.41,-41.52 432.28,-89.71 491.77,-111.89"/>
<polygon fill="#9a32cd" stroke="#9a32cd" points="51.54,-363.38 53.87,-373.72 58.49,-364.19 51.54,-363.38"/>
<text text-anchor="middle" x="239" y="-146.41" font-family="Helvetica,sans-Serif" font-size="10.00"> channel_id</text>
<text text-anchor="middle" x="239" y="-135.41" font-family="Helvetica,sans-Serif" font-size="10.00">guild_id</text>
<text text-anchor="middle" x="239" y="-124.41" font-family="Helvetica,sans-Serif" font-size="10.00">inviter_id</text>
<text text-anchor="middle" x="239" y="-113.41" font-family="Helvetica,sans-Serif" font-size="10.00">target_user_id</text>
</g>
<!-- Node15 -->
<g id="node15" class="node">
<title>Node15</title>
<g id="a_node15"><a xlink:title=" ">
<polygon fill="white" stroke="#bfbfbf" points="206.5,-735.91 206.5,-754.91 271.5,-754.91 271.5,-735.91 206.5,-735.91"/>
<text text-anchor="middle" x="239" y="-742.91" font-family="Helvetica,sans-Serif" font-size="10.00">function&lt;</text>
</a>
</g>
</g>
<!-- Node15&#45;&gt;Node7 -->
<g id="edge15" class="edge">
<title>Node15&#45;&gt;Node7</title>
<path fill="none" stroke="#9a32cd" stroke-dasharray="5,2" d="M254.65,-762.8C269.98,-780.3 295.35,-807.35 321,-826.41 369.99,-862.83 398.65,-848.44 442,-891.41 480.44,-929.52 504.29,-991.99 512.39,-1015.79"/>
<polygon fill="#9a32cd" stroke="#9a32cd" points="257.16,-760.35 247.98,-755.06 251.86,-764.92 257.16,-760.35"/>
<text text-anchor="middle" x="381.5" y="-927.41" font-family="Helvetica,sans-Serif" font-size="10.00"> custom_readable_fd</text>
<text text-anchor="middle" x="381.5" y="-916.41" font-family="Helvetica,sans-Serif" font-size="10.00">custom_readable_ready</text>
<text text-anchor="middle" x="381.5" y="-905.41" font-family="Helvetica,sans-Serif" font-size="10.00">custom_writeable_fd</text>
<text text-anchor="middle" x="381.5" y="-894.41" font-family="Helvetica,sans-Serif" font-size="10.00">custom_writeable_ready</text>
</g>
<!-- Node18 -->
<g id="node18" class="node">
<title>Node18</title>
<g id="a_node18"><a xlink:href="classdpp_1_1dispatcher.html" target="_top" xlink:title="The dispatcher class contains a set of std::functions representing hooked events that the user code i...">
<polygon fill="white" stroke="black" points="470.5,-651.91 470.5,-670.91 562.5,-670.91 562.5,-651.91 470.5,-651.91"/>
<text text-anchor="middle" x="516.5" y="-658.91" font-family="Helvetica,sans-Serif" font-size="10.00">dpp::dispatcher</text>
</a>
</g>
</g>
<!-- Node15&#45;&gt;Node18 -->
<g id="edge21" class="edge">
<title>Node15&#45;&gt;Node18</title>
<path fill="none" stroke="#9a32cd" stroke-dasharray="5,2" d="M252.46,-727.55C266.63,-708.93 291.64,-680.76 321,-668.41 368.97,-648.24 429.61,-649.81 470.32,-654.26"/>
<polygon fill="#9a32cd" stroke="#9a32cd" points="249.49,-725.68 246.41,-735.82 255.14,-729.82 249.49,-725.68"/>
<text text-anchor="start" x="325.5" y="-814.41" font-family="Helvetica,sans-Serif" font-size="10.00"> application_command</text>
<text text-anchor="middle" x="381.5" y="-803.41" font-family="Helvetica,sans-Serif" font-size="10.00">_create</text>
<text text-anchor="start" x="325.5" y="-792.41" font-family="Helvetica,sans-Serif" font-size="10.00">application_command</text>
<text text-anchor="middle" x="381.5" y="-781.41" font-family="Helvetica,sans-Serif" font-size="10.00">_delete</text>
<text text-anchor="start" x="325.5" y="-770.41" font-family="Helvetica,sans-Serif" font-size="10.00">application_command</text>
<text text-anchor="middle" x="381.5" y="-759.41" font-family="Helvetica,sans-Serif" font-size="10.00">_update</text>
<text text-anchor="middle" x="381.5" y="-748.41" font-family="Helvetica,sans-Serif" font-size="10.00">button_click</text>
<text text-anchor="middle" x="381.5" y="-737.41" font-family="Helvetica,sans-Serif" font-size="10.00">channel_create</text>
<text text-anchor="middle" x="381.5" y="-726.41" font-family="Helvetica,sans-Serif" font-size="10.00">channel_delete</text>
<text text-anchor="middle" x="381.5" y="-715.41" font-family="Helvetica,sans-Serif" font-size="10.00">channel_pins_update</text>
<text text-anchor="middle" x="381.5" y="-704.41" font-family="Helvetica,sans-Serif" font-size="10.00">channel_update</text>
<text text-anchor="middle" x="381.5" y="-693.41" font-family="Helvetica,sans-Serif" font-size="10.00">guild_ban_add</text>
<text text-anchor="middle" x="381.5" y="-682.41" font-family="Helvetica,sans-Serif" font-size="10.00">guild_ban_remove</text>
<text text-anchor="middle" x="381.5" y="-671.41" font-family="Helvetica,sans-Serif" font-size="10.00">...</text>
</g>
<!-- Node16&#45;&gt;Node5 -->
<g id="edge16" class="edge">
<title>Node16&#45;&gt;Node5</title>
<path fill="none" stroke="#9a32cd" stroke-dasharray="5,2" d="M812.64,-582.3C856.52,-584.3 924.34,-587.94 983,-593.41 988.81,-593.96 994.89,-594.6 1000.93,-595.3"/>
<polygon fill="#9a32cd" stroke="#9a32cd" points="812.71,-578.8 802.56,-581.85 812.4,-585.79 812.71,-578.8"/>
<text text-anchor="middle" x="914.5" y="-596.41" font-family="Helvetica,sans-Serif" font-size="10.00"> creator</text>
</g>
<!-- Node17 -->
<g id="node17" class="node">
<title>Node17</title>
<g id="a_node17"><a xlink:title=" ">
<polygon fill="white" stroke="#bfbfbf" points="211,-452.91 211,-471.91 267,-471.91 267,-452.91 211,-452.91"/>
<text text-anchor="middle" x="239" y="-459.91" font-family="Helvetica,sans-Serif" font-size="10.00">uint32_t</text>
</a>
</g>
</g>
<!-- Node17&#45;&gt;Node5 -->
<g id="edge33" class="edge">
<title>Node17&#45;&gt;Node5</title>
<path fill="none" stroke="#9a32cd" stroke-dasharray="5,2" d="M261.32,-478.24C274.9,-489.3 291.95,-505.13 303,-522.41 316.39,-543.38 302.09,-559.25 321,-575.41 372.28,-619.24 840.77,-609.01 1000.75,-604.19"/>
<polygon fill="#9a32cd" stroke="#9a32cd" points="263.42,-475.44 253.39,-472 259.09,-480.94 263.42,-475.44"/>
<text text-anchor="middle" x="638" y="-666.41" font-family="Helvetica,sans-Serif" font-size="10.00"> heartbeat_interval</text>
<text text-anchor="middle" x="638" y="-655.41" font-family="Helvetica,sans-Serif" font-size="10.00">intents</text>
<text text-anchor="middle" x="638" y="-644.41" font-family="Helvetica,sans-Serif" font-size="10.00">max_shards</text>
<text text-anchor="middle" x="638" y="-633.41" font-family="Helvetica,sans-Serif" font-size="10.00">reconnects</text>
<text text-anchor="middle" x="638" y="-622.41" font-family="Helvetica,sans-Serif" font-size="10.00">resumes</text>
<text text-anchor="middle" x="638" y="-611.41" font-family="Helvetica,sans-Serif" font-size="10.00">shard_id</text>
</g>
<!-- Node17&#45;&gt;Node16 -->
<g id="edge19" class="edge">
<title>Node17&#45;&gt;Node16</title>
<path fill="none" stroke="#9a32cd" stroke-dasharray="5,2" d="M268.82,-476.12C284,-482.75 303.14,-490.16 321,-494.41 479.63,-532.16 544.5,-457.65 685,-540.41 695.59,-546.65 692.72,-554.67 703,-561.41 710.57,-566.38 719.5,-570.11 728.18,-572.88"/>
<polygon fill="#9a32cd" stroke="#9a32cd" points="270.02,-472.83 259.46,-471.93 267.15,-479.21 270.02,-472.83"/>
<text text-anchor="middle" x="516.5" y="-539.41" font-family="Helvetica,sans-Serif" font-size="10.00"> cluster_id</text>
<text text-anchor="middle" x="516.5" y="-528.41" font-family="Helvetica,sans-Serif" font-size="10.00">intents</text>
<text text-anchor="middle" x="516.5" y="-517.41" font-family="Helvetica,sans-Serif" font-size="10.00">maxclusters</text>
<text text-anchor="middle" x="516.5" y="-506.41" font-family="Helvetica,sans-Serif" font-size="10.00">numshards</text>
</g>
<!-- Node17&#45;&gt;Node19 -->
<g id="edge29" class="edge">
<title>Node17&#45;&gt;Node19</title>
<path fill="none" stroke="#9a32cd" stroke-dasharray="5,2" d="M258.46,-446.07C274.06,-433.11 297.57,-415.56 321,-405.41 371.4,-383.6 389.94,-397.9 442,-380.41 462.1,-373.66 483.88,-362.81 498.47,-354.97"/>
<polygon fill="#9a32cd" stroke="#9a32cd" points="255.99,-443.57 250.65,-452.71 260.53,-448.9 255.99,-443.57"/>
<text text-anchor="middle" x="381.5" y="-408.41" font-family="Helvetica,sans-Serif" font-size="10.00"> flags</text>
</g>
<!-- Node17&#45;&gt;Node30 -->
<g id="edge46" class="edge">
<title>Node17&#45;&gt;Node30</title>
<path fill="none" stroke="#9a32cd" stroke-dasharray="5,2" d="M263.35,-446.7C277.31,-435.96 294.02,-420.44 303,-402.41 334.3,-339.54 277.69,-300.71 321,-245.41 356.38,-200.24 394.28,-232.28 442,-200.41 471.29,-180.86 497.2,-147.42 508.9,-131.03"/>
<polygon fill="#9a32cd" stroke="#9a32cd" points="261.1,-444.01 255.11,-452.75 265.24,-449.66 261.1,-444.01"/>
<text text-anchor="start" x="325.5" y="-303.41" font-family="Helvetica,sans-Serif" font-size="10.00"> approximate_member</text>
<text text-anchor="middle" x="381.5" y="-292.41" font-family="Helvetica,sans-Serif" font-size="10.00">_count</text>
<text text-anchor="start" x="325.5" y="-281.41" font-family="Helvetica,sans-Serif" font-size="10.00">approximate_presence</text>
<text text-anchor="middle" x="381.5" y="-270.41" font-family="Helvetica,sans-Serif" font-size="10.00">_count</text>
<text text-anchor="middle" x="381.5" y="-259.41" font-family="Helvetica,sans-Serif" font-size="10.00">max_age</text>
<text text-anchor="middle" x="381.5" y="-248.41" font-family="Helvetica,sans-Serif" font-size="10.00">max_uses</text>
</g>
<!-- Node18&#45;&gt;Node16 -->
<g id="edge20" class="edge">
<title>Node18&#45;&gt;Node16</title>
<path fill="none" stroke="#9a32cd" stroke-dasharray="5,2" d="M532.82,-644.26C552.12,-622.85 583.67,-588.65 591,-585.41 635.11,-565.95 691.86,-568.86 728.21,-573.79"/>
<polygon fill="#9a32cd" stroke="#9a32cd" points="530.17,-641.97 526.09,-651.74 535.38,-646.64 530.17,-641.97"/>
<text text-anchor="middle" x="638" y="-588.41" font-family="Helvetica,sans-Serif" font-size="10.00"> dispatch</text>
</g>
<!-- Node19&#45;&gt;Node16 -->
<g id="edge22" class="edge">
<title>Node19&#45;&gt;Node16</title>
<path fill="none" stroke="#9a32cd" stroke-dasharray="5,2" d="M544.6,-360.02C582.22,-381.75 649.63,-426.26 685,-483.41 703.72,-513.66 678.78,-535.36 703,-561.41 709.7,-568.62 719.06,-573.11 728.46,-575.91"/>
<polygon fill="#9a32cd" stroke="#9a32cd" points="546.14,-356.87 535.72,-354.99 542.69,-362.96 546.14,-356.87"/>
<text text-anchor="middle" x="638" y="-486.41" font-family="Helvetica,sans-Serif" font-size="10.00"> me</text>
</g>
<!-- Node20&#45;&gt;Node19 -->
<g id="edge23" class="edge">
<title>Node20&#45;&gt;Node19</title>
<path fill="none" stroke="midnightblue" d="M292.22,-377.18C333.04,-372.19 391.2,-364.83 442,-357.41 456.33,-355.32 472.19,-352.76 485.5,-350.55"/>
<polygon fill="midnightblue" stroke="midnightblue" points="291.73,-373.72 282.23,-378.4 292.58,-380.67 291.73,-373.72"/>
</g>
<!-- Node21 -->
<g id="node21" class="node">
<title>Node21</title>
<g id="a_node21"><a xlink:title=" ">
<polygon fill="white" stroke="#bfbfbf" points="211,-335.91 211,-354.91 267,-354.91 267,-335.91 211,-335.91"/>
<text text-anchor="middle" x="239" y="-342.91" font-family="Helvetica,sans-Serif" font-size="10.00">uint16_t</text>
</a>
</g>
</g>
<!-- Node21&#45;&gt;Node19 -->
<g id="edge26" class="edge">
<title>Node21&#45;&gt;Node19</title>
<path fill="none" stroke="#9a32cd" stroke-dasharray="5,2" d="M277.2,-345.41C332.27,-345.41 434.42,-345.41 485.21,-345.41"/>
<polygon fill="#9a32cd" stroke="#9a32cd" points="277.17,-341.91 267.17,-345.41 277.17,-348.91 277.17,-341.91"/>
<text text-anchor="middle" x="381.5" y="-348.41" font-family="Helvetica,sans-Serif" font-size="10.00"> discriminator</text>
</g>
<!-- Node22&#45;&gt;Node19 -->
<g id="edge27" class="edge">
<title>Node22&#45;&gt;Node19</title>
<path fill="none" stroke="#9a32cd" stroke-dasharray="5,2" d="M308.08,-313.66C347.35,-317.64 397.59,-323.37 442,-330.41 456.28,-332.68 471.99,-335.8 485.21,-338.61"/>
<polygon fill="#9a32cd" stroke="#9a32cd" points="308.38,-310.17 298.09,-312.66 307.69,-317.14 308.38,-310.17"/>
<text text-anchor="middle" x="381.5" y="-333.41" font-family="Helvetica,sans-Serif" font-size="10.00"> avatar</text>
</g>
<!-- Node23 -->
<g id="node23" class="node">
<title>Node23</title>
<g id="a_node23"><a xlink:title=" ">
<polygon fill="white" stroke="#bfbfbf" points="214,-163.91 214,-182.91 264,-182.91 264,-163.91 214,-163.91"/>
<text text-anchor="middle" x="239" y="-170.91" font-family="Helvetica,sans-Serif" font-size="10.00">uint8_t</text>
</a>
</g>
</g>
<!-- Node23&#45;&gt;Node19 -->
<g id="edge30" class="edge">
<title>Node23&#45;&gt;Node19</title>
<path fill="none" stroke="#9a32cd" stroke-dasharray="5,2" d="M274.23,-172.09C324.63,-170.8 415.66,-171.21 442,-189.41 493.72,-225.16 510.05,-307.23 514.24,-335.58"/>
<polygon fill="#9a32cd" stroke="#9a32cd" points="274.03,-168.59 264.14,-172.38 274.23,-175.59 274.03,-168.59"/>
<text text-anchor="middle" x="381.5" y="-192.41" font-family="Helvetica,sans-Serif" font-size="10.00"> refcount</text>
</g>
<!-- Node23&#45;&gt;Node30 -->
<g id="edge45" class="edge">
<title>Node23&#45;&gt;Node30</title>
<path fill="none" stroke="#9a32cd" stroke-dasharray="5,2" d="M274.04,-165.49C288.49,-162.22 305.54,-158.48 321,-155.41 377.49,-144.21 443.6,-133.07 482.38,-126.73"/>
<polygon fill="#9a32cd" stroke="#9a32cd" points="273.01,-162.13 264.04,-167.77 274.57,-168.96 273.01,-162.13"/>
<text text-anchor="middle" x="381.5" y="-158.41" font-family="Helvetica,sans-Serif" font-size="10.00"> target_user_type</text>
</g>
<!-- Node24 -->
<g id="node24" class="node">
<title>Node24</title>
<g id="a_node24"><a xlink:href="structdpp_1_1cache__policy__t.html" target="_top" xlink:title="Represents the caching policy of the cluster.">
<polygon fill="white" stroke="black" points="460,-570.91 460,-589.91 573,-589.91 573,-570.91 460,-570.91"/>
<text text-anchor="middle" x="516.5" y="-577.91" font-family="Helvetica,sans-Serif" font-size="10.00">dpp::cache_policy_t</text>
</a>
</g>
</g>
<!-- Node24&#45;&gt;Node16 -->
<g id="edge31" class="edge">
<title>Node24&#45;&gt;Node16</title>
<path fill="none" stroke="#9a32cd" stroke-dasharray="5,2" d="M548.59,-566.8C564.61,-560.06 582.52,-553.03 591,-551.41 632.04,-543.61 644.56,-540.93 685,-551.41 693.86,-553.71 694.58,-557.82 703,-561.41 711.33,-564.97 720.54,-568.17 729.25,-570.9"/>
<polygon fill="#9a32cd" stroke="#9a32cd" points="546.79,-563.77 538.96,-570.91 549.54,-570.2 546.79,-563.77"/>
<text text-anchor="middle" x="638" y="-554.41" font-family="Helvetica,sans-Serif" font-size="10.00"> cache_policy</text>
</g>
<!-- Node25 -->
<g id="node25" class="node">
<title>Node25</title>
<g id="a_node25"><a xlink:title=" ">
<polygon fill="white" stroke="#bfbfbf" points="175,-531.91 175,-550.91 303,-550.91 303,-531.91 175,-531.91"/>
<text text-anchor="middle" x="239" y="-538.91" font-family="Helvetica,sans-Serif" font-size="10.00">cache_policy_setting_t</text>
</a>
</g>
</g>
<!-- Node25&#45;&gt;Node24 -->
<g id="edge32" class="edge">
<title>Node25&#45;&gt;Node24</title>
<path fill="none" stroke="#9a32cd" stroke-dasharray="5,2" d="M313.39,-550.02C351.77,-554.73 399.49,-560.92 442,-567.41 448.92,-568.47 456.19,-569.66 463.35,-570.88"/>
<polygon fill="#9a32cd" stroke="#9a32cd" points="313.69,-546.53 303.34,-548.79 312.84,-553.48 313.69,-546.53"/>
<text text-anchor="middle" x="381.5" y="-592.41" font-family="Helvetica,sans-Serif" font-size="10.00"> emoji_policy</text>
<text text-anchor="middle" x="381.5" y="-581.41" font-family="Helvetica,sans-Serif" font-size="10.00">role_policy</text>
<text text-anchor="middle" x="381.5" y="-570.41" font-family="Helvetica,sans-Serif" font-size="10.00">user_policy</text>
</g>
<!-- Node26 -->
<g id="node26" class="node">
<title>Node26</title>
<g id="a_node26"><a xlink:title=" ">
<polygon fill="white" stroke="#bfbfbf" points="709,-532.91 709,-551.91 822,-551.91 822,-532.91 709,-532.91"/>
<text text-anchor="middle" x="765.5" y="-539.91" font-family="Helvetica,sans-Serif" font-size="10.00">native_handle_type</text>
</a>
</g>
</g>
<!-- Node26&#45;&gt;Node5 -->
<g id="edge35" class="edge">
<title>Node26&#45;&gt;Node5</title>
<path fill="none" stroke="#9a32cd" stroke-dasharray="5,2" d="M832.39,-544.74C875.87,-547.63 933.7,-554.07 983,-568.41 1002.82,-574.18 1023.96,-584.97 1037.97,-592.85"/>
<polygon fill="#9a32cd" stroke="#9a32cd" points="832.41,-541.24 822.22,-544.11 831.98,-548.22 832.41,-541.24"/>
<text text-anchor="middle" x="914.5" y="-571.41" font-family="Helvetica,sans-Serif" font-size="10.00"> thread_id</text>
</g>
<!-- Node27 -->
<g id="node27" class="node">
<title>Node27</title>
<g id="a_node27"><a xlink:title=" ">
<polygon fill="white" stroke="#bfbfbf" points="731,-494.91 731,-513.91 800,-513.91 800,-494.91 731,-494.91"/>
<text text-anchor="middle" x="765.5" y="-501.91" font-family="Helvetica,sans-Serif" font-size="10.00">std::mutex</text>
</a>
</g>
</g>
<!-- Node27&#45;&gt;Node5 -->
<g id="edge38" class="edge">
<title>Node27&#45;&gt;Node5</title>
<path fill="none" stroke="#9a32cd" stroke-dasharray="5,2" d="M810.45,-501.43C855.96,-500.17 927.97,-503.43 983,-530.41 1012.47,-544.87 1036.77,-576.62 1047.73,-592.69"/>
<polygon fill="#9a32cd" stroke="#9a32cd" points="810.19,-497.94 800.32,-501.8 810.44,-504.93 810.19,-497.94"/>
<text text-anchor="middle" x="914.5" y="-533.41" font-family="Helvetica,sans-Serif" font-size="10.00"> voice_mutex</text>
</g>
<!-- Node28 -->
<g id="node28" class="node">
<title>Node28</title>
<g id="a_node28"><a xlink:title=" ">
<polygon fill="white" stroke="#bfbfbf" points="740.5,-456.91 740.5,-475.91 790.5,-475.91 790.5,-456.91 740.5,-456.91"/>
<text text-anchor="middle" x="765.5" y="-463.91" font-family="Helvetica,sans-Serif" font-size="10.00">double</text>
</a>
</g>
</g>
<!-- Node28&#45;&gt;Node5 -->
<g id="edge39" class="edge">
<title>Node28&#45;&gt;Node5</title>
<path fill="none" stroke="#9a32cd" stroke-dasharray="5,2" d="M800.7,-460.7C846.03,-454.99 926.81,-451.43 983,-486.41 1023.69,-511.75 1044.49,-569.84 1051.36,-592.81"/>
<polygon fill="#9a32cd" stroke="#9a32cd" points="800.21,-457.23 790.78,-462.06 801.16,-464.17 800.21,-457.23"/>
<text text-anchor="middle" x="914.5" y="-489.41" font-family="Helvetica,sans-Serif" font-size="10.00"> websocket_ping</text>
</g>
<!-- Node29 -->
<g id="node29" class="node">
<title>Node29</title>
<g id="a_node29"><a xlink:title=" ">
<polygon fill="white" stroke="#bfbfbf" points="715,-1167.91 715,-1186.91 816,-1186.91 816,-1167.91 715,-1167.91"/>
<text text-anchor="middle" x="765.5" y="-1174.91" font-family="Helvetica,sans-Serif" font-size="10.00">unordered_map&lt;</text>
</a>
</g>
</g>
<!-- Node29&#45;&gt;Node5 -->
<g id="edge41" class="edge">
<title>Node29&#45;&gt;Node5</title>
<path fill="none" stroke="#9a32cd" stroke-dasharray="5,2" d="M821.95,-1188.4C871.08,-1194.62 941.32,-1194.36 983,-1153.41 1023.42,-1113.7 1049.46,-682.59 1053.46,-612.13"/>
<polygon fill="#9a32cd" stroke="#9a32cd" points="822.19,-1184.9 811.8,-1186.98 821.22,-1191.83 822.19,-1184.9"/>
<text text-anchor="middle" x="914.5" y="-1193.41" font-family="Helvetica,sans-Serif" font-size="10.00"> connecting_voice_channels</text>
</g>
<!-- Node30&#45;&gt;Node1 -->
<g id="edge42" class="edge">
<title>Node30&#45;&gt;Node1</title>
<path fill="none" stroke="#9a32cd" stroke-dasharray="5,2" d="M560.5,-109.91C564.73,-108.75 568.95,-107.57 573,-106.41 724.93,-63.13 755.52,-4.41 913.5,-4.41 913.5,-4.41 913.5,-4.41 1235,-4.41 1267.55,-4.41 1303.78,-8.02 1332.87,-11.8"/>
<polygon fill="#9a32cd" stroke="#9a32cd" points="559.42,-106.58 550.7,-112.6 561.27,-113.33 559.42,-106.58"/>
<text text-anchor="middle" x="1055" y="-7.41" font-family="Helvetica,sans-Serif" font-size="10.00"> created_invite</text>
</g>
</g>
</svg>
