<?xml version="1.0" encoding="UTF-8" standalone="no"?>
<!DOCTYPE svg PUBLIC "-//W3C//DTD SVG 1.1//EN"
 "http://www.w3.org/Graphics/SVG/1.1/DTD/svg11.dtd">
<!-- Generated by graphviz version 2.38.0 (20140413.2041)
 -->
<!-- Title: dpp::command_source Pages: 1 -->
<!--zoomable 258 -->
<svg id="main" version="1.1" xmlns="http://www.w3.org/2000/svg" xmlns:xlink="http://www.w3.org/1999/xlink" xml:space="preserve" onload="init(evt)">
<style type="text/css"><![CDATA[
.edge:hover path { stroke: red; }
.edge:hover polygon { stroke: red; fill: red; }
]]></style>
<script type="text/javascript"><![CDATA[
var edges = document.getElementsByTagName('g');
if (edges && edges.length) {
  for (var i=0;i<edges.length;i++) {
    if (edges[i].id.substr(0,4)=='edge') {
      edges[i].setAttribute('class','edge');
    }
  }
}
]]></script>
        <defs>
                <circle id="rim" cx="0" cy="0" r="7"/>
                <circle id="rim2" cx="0" cy="0" r="3.5"/>
                <g id="zoomPlus">
                        <use xlink:href="#rim" fill="#404040">
                                <set attributeName="fill" to="#808080" begin="zoomplus.mouseover" end="zoomplus.mouseout"/>
                        </use>
                        <path d="M-4,0h8M0,-4v8" fill="none" stroke="white" stroke-width="1.5" pointer-events="none"/>
                </g>
                <g id="zoomMin">
                        <use xlink:href="#rim" fill="#404040">
                                <set attributeName="fill" to="#808080" begin="zoomminus.mouseover" end="zoomminus.mouseout"/>
                        </use>
                        <path d="M-4,0h8" fill="none" stroke="white" stroke-width="1.5" pointer-events="none"/>
                </g>
                <g id="dirArrow">
                        <path fill="none" stroke="white" stroke-width="1.5" d="M0,-3.0v7 M-2.5,-0.5L0,-3.0L2.5,-0.5"/>
                </g>
               <g id="resetDef">
                       <use xlink:href="#rim2" fill="#404040">
                               <set attributeName="fill" to="#808080" begin="reset.mouseover" end="reset.mouseout"/>
                       </use>
               </g>
        </defs>

<script type="text/javascript">
var viewWidth = 631;
var viewHeight = 258;
var sectionId = 'dynsection-0';
</script>
<script xlink:href="svgpan.js"/>
<svg id="graph" class="graph">
<g id="viewport">
<title>dpp::command_source</title>
<polygon fill="white" stroke="none" points="-4,4 -4,-254.295 627,-254.295 627,4 -4,4"/>
<!-- Node1 -->
<g id="node1" class="node"><title>Node1</title>
<g id="a_node1"><a xlink:title="Represents the sending source of a command. This is passed to any command handler and should be passe...">
<polygon fill="#bfbfbf" stroke="black" points="507,-121.295 507,-140.295 623,-140.295 623,-121.295 507,-121.295"/>
<text text-anchor="middle" x="565" y="-128.295" font-family="Helvetica,sans-Serif" font-size="10.00">dpp::command_source</text>
</a>
</g>
</g>
<!-- Node2 -->
<g id="node2" class="node"><title>Node2</title>
<g id="a_node2"><a xlink:title=" ">
<polygon fill="white" stroke="#bfbfbf" points="22,-105.295 22,-124.295 73,-124.295 73,-105.295 22,-105.295"/>
<text text-anchor="middle" x="47.5" y="-112.295" font-family="Helvetica,sans-Serif" font-size="10.00">uint64_t</text>
</a>
</g>
</g>
<!-- Node2&#45;&gt;Node1 -->
<g id="edge1" class="edge"><title>Node2&#45;&gt;Node1</title>
<path fill="none" stroke="#9a32cd" stroke-dasharray="5,2" d="M62.7282,-97.2643C82.4588,-74.4706 120.53,-35.6974 163,-19.7946 239.595,8.88659 267.592,2.79444 347,-16.7946 431.287,-37.5873 519.039,-97.6327 551.21,-121.168"/>
<polygon fill="#9a32cd" stroke="#9a32cd" points="59.8616,-95.2346 56.0934,-105.137 65.2142,-99.7457 59.8616,-95.2346"/>
<text text-anchor="middle" x="317.5" y="-41.7946" font-family="Helvetica,sans-Serif" font-size="10.00"> channel_id</text>
<text text-anchor="middle" x="317.5" y="-30.7946" font-family="Helvetica,sans-Serif" font-size="10.00">command_id</text>
<text text-anchor="middle" x="317.5" y="-19.7946" font-family="Helvetica,sans-Serif" font-size="10.00">guild_id</text>
</g>
<!-- Node6 -->
<g id="node6" class="node"><title>Node6</title>
<g id="a_node6"><a xlink:href="classdpp_1_1managed.html" target="_top" xlink:title="The managed class is the base class for various types that can be stored in a cache that are identifi...">
<polygon fill="white" stroke="black" points="177.5,-105.295 177.5,-124.295 255.5,-124.295 255.5,-105.295 177.5,-105.295"/>
<text text-anchor="middle" x="216.5" y="-112.295" font-family="Helvetica,sans-Serif" font-size="10.00">dpp::managed</text>
</a>
</g>
</g>
<!-- Node2&#45;&gt;Node6 -->
<g id="edge6" class="edge"><title>Node2&#45;&gt;Node6</title>
<path fill="none" stroke="#9a32cd" stroke-dasharray="5,2" d="M83.4713,-114.795C110.959,-114.795 149.193,-114.795 177.445,-114.795"/>
<polygon fill="#9a32cd" stroke="#9a32cd" points="83.1415,-111.295 73.1414,-114.795 83.1414,-118.295 83.1415,-111.295"/>
<text text-anchor="middle" x="129" y="-117.795" font-family="Helvetica,sans-Serif" font-size="10.00"> id</text>
</g>
<!-- Node8 -->
<g id="node8" class="node"><title>Node8</title>
<g id="a_node8"><a xlink:href="structdpp_1_1utility_1_1iconhash.html" target="_top" xlink:title="Store a 128 bit icon hash (profile picture, server icon etc) as a 128 bit binary value made of two ui...">
<polygon fill="white" stroke="black" points="163,-143.295 163,-162.295 270,-162.295 270,-143.295 163,-143.295"/>
<text text-anchor="middle" x="216.5" y="-150.295" font-family="Helvetica,sans-Serif" font-size="10.00">dpp::utility::iconhash</text>
</a>
</g>
</g>
<!-- Node2&#45;&gt;Node8 -->
<g id="edge10" class="edge"><title>Node2&#45;&gt;Node8</title>
<path fill="none" stroke="#9a32cd" stroke-dasharray="5,2" d="M83.0387,-122.654C109.329,-128.636 145.631,-136.896 173.585,-143.257"/>
<polygon fill="#9a32cd" stroke="#9a32cd" points="83.6688,-119.208 73.1414,-120.402 82.1156,-126.033 83.6688,-119.208"/>
<text text-anchor="middle" x="129" y="-150.795" font-family="Helvetica,sans-Serif" font-size="10.00"> first</text>
<text text-anchor="middle" x="129" y="-139.795" font-family="Helvetica,sans-Serif" font-size="10.00">second</text>
</g>
<!-- Node3 -->
<g id="node3" class="node"><title>Node3</title>
<g id="a_node3"><a xlink:title=" ">
<polygon fill="white" stroke="#bfbfbf" points="186.5,-225.295 186.5,-244.295 246.5,-244.295 246.5,-225.295 186.5,-225.295"/>
<text text-anchor="middle" x="216.5" y="-232.295" font-family="Helvetica,sans-Serif" font-size="10.00">std::string</text>
</a>
</g>
</g>
<!-- Node3&#45;&gt;Node1 -->
<g id="edge2" class="edge"><title>Node3&#45;&gt;Node1</title>
<path fill="none" stroke="#9a32cd" stroke-dasharray="5,2" d="M256.94,-236.367C282.879,-236.501 317.378,-234.955 347,-227.795 426.62,-208.548 513.234,-160.829 548.126,-140.364"/>
<polygon fill="#9a32cd" stroke="#9a32cd" points="256.789,-232.865 246.741,-236.226 256.692,-239.864 256.789,-232.865"/>
<text text-anchor="middle" x="403" y="-225.795" font-family="Helvetica,sans-Serif" font-size="10.00"> command_token</text>
</g>
<!-- Node5 -->
<g id="node5" class="node"><title>Node5</title>
<g id="a_node5"><a xlink:href="classdpp_1_1user.html" target="_top" xlink:title="Represents a user on discord. May or may not be a member of a dpp::guild.">
<polygon fill="white" stroke="black" points="374.5,-121.295 374.5,-140.295 431.5,-140.295 431.5,-121.295 374.5,-121.295"/>
<text text-anchor="middle" x="403" y="-128.295" font-family="Helvetica,sans-Serif" font-size="10.00">dpp::user</text>
</a>
</g>
</g>
<!-- Node3&#45;&gt;Node5 -->
<g id="edge7" class="edge"><title>Node3&#45;&gt;Node5</title>
<path fill="none" stroke="#9a32cd" stroke-dasharray="5,2" d="M256.322,-223.924C288.67,-214.446 331.817,-200.703 347,-190.795 367.828,-177.203 386.013,-153.94 395.346,-140.729"/>
<polygon fill="#9a32cd" stroke="#9a32cd" points="255.304,-220.575 246.673,-226.719 257.252,-227.298 255.304,-220.575"/>
<text text-anchor="middle" x="317.5" y="-216.795" font-family="Helvetica,sans-Serif" font-size="10.00"> username</text>
</g>
<!-- Node4 -->
<g id="node4" class="node"><title>Node4</title>
<g id="a_node4"><a xlink:title=" ">
<polygon fill="white" stroke="#bfbfbf" points="0,-219.795 0,-249.795 95,-249.795 95,-219.795 0,-219.795"/>
<text text-anchor="start" x="8" y="-237.795" font-family="Helvetica,sans-Serif" font-size="10.00">std::basic_string&lt;</text>
<text text-anchor="middle" x="47.5" y="-226.795" font-family="Helvetica,sans-Serif" font-size="10.00"> Char &gt;</text>
</a>
</g>
</g>
<!-- Node4&#45;&gt;Node3 -->
<g id="edge3" class="edge"><title>Node4&#45;&gt;Node3</title>
<path fill="none" stroke="midnightblue" d="M105.221,-234.795C132.456,-234.795 163.942,-234.795 186.281,-234.795"/>
<polygon fill="midnightblue" stroke="midnightblue" points="105.019,-231.295 95.0188,-234.795 105.019,-238.295 105.019,-231.295"/>
</g>
<!-- Node5&#45;&gt;Node1 -->
<g id="edge4" class="edge"><title>Node5&#45;&gt;Node1</title>
<path fill="none" stroke="#9a32cd" stroke-dasharray="5,2" d="M441.746,-130.795C461.12,-130.795 485.13,-130.795 506.73,-130.795"/>
<polygon fill="#9a32cd" stroke="#9a32cd" points="441.505,-127.295 431.505,-130.795 441.505,-134.295 441.505,-127.295"/>
<text text-anchor="middle" x="474" y="-133.795" font-family="Helvetica,sans-Serif" font-size="10.00"> issuer</text>
</g>
<!-- Node6&#45;&gt;Node5 -->
<g id="edge5" class="edge"><title>Node6&#45;&gt;Node5</title>
<path fill="none" stroke="midnightblue" d="M266.074,-119.007C300.605,-122.002 345.751,-125.917 374.321,-128.394"/>
<polygon fill="midnightblue" stroke="midnightblue" points="265.994,-115.487 255.729,-118.11 265.389,-122.461 265.994,-115.487"/>
</g>
<!-- Node7 -->
<g id="node7" class="node"><title>Node7</title>
<g id="a_node7"><a xlink:title=" ">
<polygon fill="white" stroke="#bfbfbf" points="191,-181.295 191,-200.295 242,-200.295 242,-181.295 191,-181.295"/>
<text text-anchor="middle" x="216.5" y="-188.295" font-family="Helvetica,sans-Serif" font-size="10.00">uint16_t</text>
</a>
</g>
</g>
<!-- Node7&#45;&gt;Node5 -->
<g id="edge8" class="edge"><title>Node7&#45;&gt;Node5</title>
<path fill="none" stroke="#9a32cd" stroke-dasharray="5,2" d="M252.284,-184.452C278.733,-179.093 315.771,-170.427 347,-158.795 360.455,-153.783 374.893,-146.346 385.599,-140.396"/>
<polygon fill="#9a32cd" stroke="#9a32cd" points="251.483,-181.042 242.349,-186.41 252.837,-187.91 251.483,-181.042"/>
<text text-anchor="middle" x="317.5" y="-178.795" font-family="Helvetica,sans-Serif" font-size="10.00"> discriminator</text>
</g>
<!-- Node8&#45;&gt;Node5 -->
<g id="edge9" class="edge"><title>Node8&#45;&gt;Node5</title>
<path fill="none" stroke="#9a32cd" stroke-dasharray="5,2" d="M280.55,-145.276C312.539,-141.462 349.751,-137.025 374.47,-134.077"/>
<polygon fill="#9a32cd" stroke="#9a32cd" points="279.886,-141.831 270.37,-146.49 280.714,-148.782 279.886,-141.831"/>
<text text-anchor="middle" x="317.5" y="-146.795" font-family="Helvetica,sans-Serif" font-size="10.00"> avatar</text>
</g>
<!-- Node9 -->
<g id="node9" class="node"><title>Node9</title>
<g id="a_node9"><a xlink:title=" ">
<polygon fill="white" stroke="#bfbfbf" points="191,-67.2946 191,-86.2946 242,-86.2946 242,-67.2946 191,-67.2946"/>
<text text-anchor="middle" x="216.5" y="-74.2946" font-family="Helvetica,sans-Serif" font-size="10.00">uint32_t</text>
</a>
</g>
</g>
<!-- Node9&#45;&gt;Node5 -->
<g id="edge11" class="edge"><title>Node9&#45;&gt;Node5</title>
<path fill="none" stroke="#9a32cd" stroke-dasharray="5,2" d="M252.112,-83.0131C278.471,-88.1793 315.472,-96.3623 347,-106.795 359.067,-110.787 372.123,-116.425 382.486,-121.233"/>
<polygon fill="#9a32cd" stroke="#9a32cd" points="252.695,-79.5612 242.215,-81.117 251.378,-86.4361 252.695,-79.5612"/>
<text text-anchor="middle" x="317.5" y="-109.795" font-family="Helvetica,sans-Serif" font-size="10.00"> flags</text>
</g>
<!-- Node10 -->
<g id="node10" class="node"><title>Node10</title>
<g id="a_node10"><a xlink:title=" ">
<polygon fill="white" stroke="#bfbfbf" points="193.5,-29.2946 193.5,-48.2946 239.5,-48.2946 239.5,-29.2946 193.5,-29.2946"/>
<text text-anchor="middle" x="216.5" y="-36.2946" font-family="Helvetica,sans-Serif" font-size="10.00">uint8_t</text>
</a>
</g>
</g>
<!-- Node10&#45;&gt;Node5 -->
<g id="edge12" class="edge"><title>Node10&#45;&gt;Node5</title>
<path fill="none" stroke="#9a32cd" stroke-dasharray="5,2" d="M250.089,-43.7848C277.399,-49.0036 316.675,-58.9929 347,-76.7946 366.849,-88.4465 384.854,-108.818 394.532,-120.932"/>
<polygon fill="#9a32cd" stroke="#9a32cd" points="250.356,-40.2769 239.895,-41.9516 249.117,-47.1664 250.356,-40.2769"/>
<text text-anchor="middle" x="317.5" y="-79.7946" font-family="Helvetica,sans-Serif" font-size="10.00"> refcount</text>
</g>
</g>
</svg>
        <g id="navigator" transform="translate(0 0)" fill="#404254">
                <rect fill="#f2f5e9" fill-opacity="0.5" stroke="#606060" stroke-width=".5" x="0" y="0" width="60" height="60"/>
                <use id="zoomplus" xlink:href="#zoomPlus" x="17" y="9" onmousedown="handleZoom(evt,'in')"/>
                <use id="zoomminus" xlink:href="#zoomMin" x="42" y="9" onmousedown="handleZoom(evt,'out')"/>
                <use id="reset" xlink:href="#resetDef" x="30" y="36" onmousedown="handleReset()"/>
                <g id="arrowUp" xlink:href="#dirArrow" transform="translate(30 24)" onmousedown="handlePan(0,-1)">
                  <use xlink:href="#rim" fill="#404040">
                        <set attributeName="fill" to="#808080" begin="arrowUp.mouseover" end="arrowUp.mouseout"/>
                  </use>
                  <path fill="none" stroke="white" stroke-width="1.5" d="M0,-3.0v7 M-2.5,-0.5L0,-3.0L2.5,-0.5"/>
                </g>
                <g id="arrowRight" xlink:href="#dirArrow" transform="rotate(90) translate(36 -43)" onmousedown="handlePan(1,0)">
                  <use xlink:href="#rim" fill="#404040">
                        <set attributeName="fill" to="#808080" begin="arrowRight.mouseover" end="arrowRight.mouseout"/>
                  </use>
                  <path fill="none" stroke="white" stroke-width="1.5" d="M0,-3.0v7 M-2.5,-0.5L0,-3.0L2.5,-0.5"/>
                </g>
                <g id="arrowDown" xlink:href="#dirArrow" transform="rotate(180) translate(-30 -48)" onmousedown="handlePan(0,1)">
                  <use xlink:href="#rim" fill="#404040">
                        <set attributeName="fill" to="#808080" begin="arrowDown.mouseover" end="arrowDown.mouseout"/>
                  </use>
                  <path fill="none" stroke="white" stroke-width="1.5" d="M0,-3.0v7 M-2.5,-0.5L0,-3.0L2.5,-0.5"/>
                </g>
                <g id="arrowLeft" xlink:href="#dirArrow" transform="rotate(270) translate(-36 17)" onmousedown="handlePan(-1,0)">
                  <use xlink:href="#rim" fill="#404040">
                        <set attributeName="fill" to="#808080" begin="arrowLeft.mouseover" end="arrowLeft.mouseout"/>
                  </use>
                  <path fill="none" stroke="white" stroke-width="1.5" d="M0,-3.0v7 M-2.5,-0.5L0,-3.0L2.5,-0.5"/>
                </g>
        </g>
        <svg viewBox="0 0 15 15" width="100%" height="30px" preserveAspectRatio="xMaxYMin meet">
         <g id="arrow_out" transform="scale(0.3 0.3)">
          <a xlink:href="structdpp_1_1command__source__coll__graph_org.svg" target="_base">
           <rect id="button" ry="5" rx="5" y="6" x="6" height="38" width="38"
                fill="#f2f5e9" fill-opacity="0.5" stroke="#606060" stroke-width="1.0"/>
           <path id="arrow"
             d="M 11.500037,31.436501 C 11.940474,20.09759 22.043105,11.32322 32.158766,21.979434 L 37.068811,17.246167 C 37.068811,17.246167 37.088388,32 37.088388,32 L 22.160133,31.978069 C 22.160133,31.978069 26.997745,27.140456 26.997745,27.140456 C 18.528582,18.264221 13.291696,25.230495 11.500037,31.436501 z"
             style="fill:#404040;"/>
          </a>
         </g>
        </svg>
</svg>
