<?xml version="1.0" encoding="UTF-8" standalone="no"?>
<!DOCTYPE svg PUBLIC "-//W3C//DTD SVG 1.1//EN"
 "http://www.w3.org/Graphics/SVG/1.1/DTD/svg11.dtd">
<!-- Generated by graphviz version 2.43.0 (0)
 -->
<!-- Title: dpp::integration Pages: 1 -->
<!--zoomable 426 -->
<svg id="main" version="1.1" xmlns="http://www.w3.org/2000/svg" xmlns:xlink="http://www.w3.org/1999/xlink" xml:space="preserve" onload="init(evt)">
<style type="text/css"><![CDATA[
.edge:hover path { stroke: red; }
.edge:hover polygon { stroke: red; fill: red; }
]]></style>
<script type="text/javascript"><![CDATA[
var edges = document.getElementsByTagName('g');
if (edges && edges.length) {
  for (var i=0;i<edges.length;i++) {
    if (edges[i].id.substr(0,4)=='edge') {
      edges[i].setAttribute('class','edge');
    }
  }
}
]]></script>
        <defs>
                <circle id="rim" cx="0" cy="0" r="7"/>
                <circle id="rim2" cx="0" cy="0" r="3.5"/>
                <g id="zoomPlus">
                        <use xlink:href="#rim" fill="#404040">
                                <set attributeName="fill" to="#808080" begin="zoomplus.mouseover" end="zoomplus.mouseout"/>
                        </use>
                        <path d="M-4,0h8M0,-4v8" fill="none" stroke="white" stroke-width="1.5" pointer-events="none"/>
                </g>
                <g id="zoomMin">
                        <use xlink:href="#rim" fill="#404040">
                                <set attributeName="fill" to="#808080" begin="zoomminus.mouseover" end="zoomminus.mouseout"/>
                        </use>
                        <path d="M-4,0h8" fill="none" stroke="white" stroke-width="1.5" pointer-events="none"/>
                </g>
                <g id="dirArrow">
                        <path fill="none" stroke="white" stroke-width="1.5" d="M0,-3.0v7 M-2.5,-0.5L0,-3.0L2.5,-0.5"/>
                </g>
               <g id="resetDef">
                       <use xlink:href="#rim2" fill="#404040">
                               <set attributeName="fill" to="#808080" begin="reset.mouseover" end="reset.mouseout"/>
                       </use>
               </g>
        </defs>

<script type="text/javascript">
var viewWidth = 906;
var viewHeight = 426;
var sectionId = 'dynsection-1';
</script>
<script xlink:href="svgpan.js"/>
<svg id="graph" class="graph">
<g id="viewport">
<title>dpp::integration</title>
<!-- Node1 -->
<g id="node1" class="node">
<title>Node1</title>
<g id="a_node1"><a xlink:title="Represents an integration on a guild, e.g. a connection to twitch.">
<polygon fill="#bfbfbf" stroke="black" points="804,-191.66 804,-210.66 898,-210.66 898,-191.66 804,-191.66"/>
<text text-anchor="middle" x="851" y="-198.66" font-family="Helvetica,sans-Serif" font-size="10.00">dpp::integration</text>
</a>
</g>
</g>
<!-- Node2 -->
<g id="node2" class="node">
<title>Node2</title>
<g id="a_node2"><a xlink:href="classdpp_1_1managed.html" target="_top" xlink:title="The managed class is the base class for various types that can be stored in a cache that are identifi...">
<polygon fill="none" stroke="black" points="191,-115.66 191,-134.66 277,-134.66 277,-115.66 191,-115.66"/>
<text text-anchor="middle" x="234" y="-122.66" font-family="Helvetica,sans-Serif" font-size="10.00">dpp::managed</text>
</a>
</g>
</g>
<!-- Node2&#45;&gt;Node1 -->
<g id="edge1" class="edge">
<title>Node2&#45;&gt;Node1</title>
<path fill="none" stroke="midnightblue" d="M287.17,-125.54C375.8,-126.96 561.15,-133.35 715,-161.16 753.73,-168.17 797.14,-182.18 824.02,-191.62"/>
<polygon fill="midnightblue" stroke="midnightblue" points="287.15,-122.04 277.1,-125.39 287.05,-129.04 287.15,-122.04"/>
</g>
<!-- Node11 -->
<g id="node11" class="node">
<title>Node11</title>
<g id="a_node11"><a xlink:href="classdpp_1_1user.html" target="_top" xlink:title="Represents a user on discord. May or may not be a member of a dpp::guild.">
<polygon fill="none" stroke="black" points="397,-170.66 397,-189.66 459,-189.66 459,-170.66 397,-170.66"/>
<text text-anchor="middle" x="428" y="-177.66" font-family="Helvetica,sans-Serif" font-size="10.00">dpp::user</text>
</a>
</g>
</g>
<!-- Node2&#45;&gt;Node11 -->
<g id="edge14" class="edge">
<title>Node2&#45;&gt;Node11</title>
<path fill="none" stroke="midnightblue" d="M287.02,-132.45C314.82,-137.23 349.33,-144.58 379,-155.16 390.15,-159.14 401.95,-165.26 411.06,-170.45"/>
<polygon fill="midnightblue" stroke="midnightblue" points="287.55,-128.99 277.11,-130.81 286.4,-135.9 287.55,-128.99"/>
</g>
<!-- Node3 -->
<g id="node3" class="node">
<title>Node3</title>
<g id="a_node3"><a xlink:title=" ">
<polygon fill="none" stroke="#bfbfbf" points="24,-236.66 24,-255.66 80,-255.66 80,-236.66 24,-236.66"/>
<text text-anchor="middle" x="52" y="-243.66" font-family="Helvetica,sans-Serif" font-size="10.00">uint64_t</text>
</a>
</g>
</g>
<!-- Node3&#45;&gt;Node1 -->
<g id="edge7" class="edge">
<title>Node3&#45;&gt;Node1</title>
<path fill="none" stroke="#9a32cd" stroke-dasharray="5,2" d="M63.56,-264.83C87.83,-305.03 151.83,-396.16 233,-396.16 233,-396.16 233,-396.16 657.5,-396.16 762.87,-396.16 830.01,-250.18 846.2,-210.83"/>
<polygon fill="#9a32cd" stroke="#9a32cd" points="66.46,-262.86 58.37,-256.01 60.42,-266.4 66.46,-262.86"/>
<text text-anchor="middle" x="428" y="-410.16" font-family="Helvetica,sans-Serif" font-size="10.00"> role_id</text>
<text text-anchor="middle" x="428" y="-399.16" font-family="Helvetica,sans-Serif" font-size="10.00">user_id</text>
</g>
<!-- Node3&#45;&gt;Node2 -->
<g id="edge2" class="edge">
<title>Node3&#45;&gt;Node2</title>
<path fill="none" stroke="#9a32cd" stroke-dasharray="5,2" d="M69.05,-229.2C91.04,-206.86 132.64,-167.66 175,-144.16 181.67,-140.46 189.18,-137.34 196.52,-134.77"/>
<polygon fill="#9a32cd" stroke="#9a32cd" points="66.32,-226.99 61.87,-236.61 71.35,-231.87 66.32,-226.99"/>
<text text-anchor="middle" x="139.5" y="-181.16" font-family="Helvetica,sans-Serif" font-size="10.00"> id</text>
</g>
<!-- Node10 -->
<g id="node10" class="node">
<title>Node10</title>
<g id="a_node10"><a xlink:href="structdpp_1_1integration__app.html" target="_top" xlink:title="An application that has been integrated.">
<polygon fill="none" stroke="black" points="598,-170.66 598,-189.66 715,-189.66 715,-170.66 598,-170.66"/>
<text text-anchor="middle" x="656.5" y="-177.66" font-family="Helvetica,sans-Serif" font-size="10.00">dpp::integration_app</text>
</a>
</g>
</g>
<!-- Node3&#45;&gt;Node10 -->
<g id="edge11" class="edge">
<title>Node3&#45;&gt;Node10</title>
<path fill="none" stroke="#9a32cd" stroke-dasharray="5,2" d="M90.45,-249.37C100.67,-250.11 111.76,-250.79 122,-251.16 137.55,-251.73 141.45,-251.44 157,-251.16 255.71,-249.39 281.1,-255.97 379,-243.16 468.34,-231.48 571.24,-204.31 622.67,-189.76"/>
<polygon fill="#9a32cd" stroke="#9a32cd" points="90.41,-245.86 80.18,-248.59 89.88,-252.84 90.41,-245.86"/>
<text text-anchor="middle" x="345" y="-252.16" font-family="Helvetica,sans-Serif" font-size="10.00"> id</text>
</g>
<!-- Node13 -->
<g id="node13" class="node">
<title>Node13</title>
<g id="a_node13"><a xlink:href="structdpp_1_1utility_1_1iconhash.html" target="_top" xlink:title="Store a 128 bit icon hash (profile picture, server icon etc) as a 128 bit binary value made of two ui...">
<polygon fill="none" stroke="black" points="175,-204.66 175,-223.66 293,-223.66 293,-204.66 175,-204.66"/>
<text text-anchor="middle" x="234" y="-211.66" font-family="Helvetica,sans-Serif" font-size="10.00">dpp::utility::iconhash</text>
</a>
</g>
</g>
<!-- Node3&#45;&gt;Node13 -->
<g id="edge18" class="edge">
<title>Node3&#45;&gt;Node13</title>
<path fill="none" stroke="#9a32cd" stroke-dasharray="5,2" d="M89.99,-236.28C100.3,-233.73 111.55,-231.15 122,-229.16 139.1,-225.91 157.81,-223.1 174.91,-220.82"/>
<polygon fill="#9a32cd" stroke="#9a32cd" points="88.89,-232.94 80.05,-238.79 90.61,-239.73 88.89,-232.94"/>
<text text-anchor="middle" x="139.5" y="-243.16" font-family="Helvetica,sans-Serif" font-size="10.00"> first</text>
<text text-anchor="middle" x="139.5" y="-232.16" font-family="Helvetica,sans-Serif" font-size="10.00">second</text>
</g>
<!-- Node4 -->
<g id="node4" class="node">
<title>Node4</title>
<g id="a_node4"><a xlink:title=" ">
<polygon fill="none" stroke="#bfbfbf" points="201.5,-36.66 201.5,-55.66 266.5,-55.66 266.5,-36.66 201.5,-36.66"/>
<text text-anchor="middle" x="234" y="-43.66" font-family="Helvetica,sans-Serif" font-size="10.00">std::string</text>
</a>
</g>
</g>
<!-- Node4&#45;&gt;Node1 -->
<g id="edge3" class="edge">
<title>Node4&#45;&gt;Node1</title>
<path fill="none" stroke="#9a32cd" stroke-dasharray="5,2" d="M276.52,-34.12C375.63,-8.05 629.47,42.44 786,-72.16 827.35,-102.44 843.52,-166.95 848.32,-191.45"/>
<polygon fill="#9a32cd" stroke="#9a32cd" points="275.33,-30.81 266.58,-36.78 277.15,-37.57 275.33,-30.81"/>
<text text-anchor="middle" x="528.5" y="-28.16" font-family="Helvetica,sans-Serif" font-size="10.00"> account_id</text>
<text text-anchor="middle" x="528.5" y="-17.16" font-family="Helvetica,sans-Serif" font-size="10.00">account_name</text>
<text text-anchor="middle" x="528.5" y="-6.16" font-family="Helvetica,sans-Serif" font-size="10.00">name</text>
</g>
<!-- Node4&#45;&gt;Node10 -->
<g id="edge12" class="edge">
<title>Node4&#45;&gt;Node10</title>
<path fill="none" stroke="#9a32cd" stroke-dasharray="5,2" d="M276.72,-52.7C305.7,-57.69 345.07,-65.38 379,-75.16 476.44,-103.27 588.1,-150.5 634.05,-170.62"/>
<polygon fill="#9a32cd" stroke="#9a32cd" points="276.98,-49.19 266.54,-50.98 275.82,-56.1 276.98,-49.19"/>
<text text-anchor="middle" x="428" y="-135.16" font-family="Helvetica,sans-Serif" font-size="10.00"> description</text>
<text text-anchor="middle" x="428" y="-124.16" font-family="Helvetica,sans-Serif" font-size="10.00">icon</text>
<text text-anchor="middle" x="428" y="-113.16" font-family="Helvetica,sans-Serif" font-size="10.00">name</text>
<text text-anchor="middle" x="428" y="-102.16" font-family="Helvetica,sans-Serif" font-size="10.00">summary</text>
</g>
<!-- Node4&#45;&gt;Node11 -->
<g id="edge15" class="edge">
<title>Node4&#45;&gt;Node11</title>
<path fill="none" stroke="#9a32cd" stroke-dasharray="5,2" d="M269.37,-59.71C300.06,-72.82 345.25,-94.73 379,-122.16 396.65,-136.51 412.48,-158.15 420.81,-170.54"/>
<polygon fill="#9a32cd" stroke="#9a32cd" points="270.52,-56.39 259.94,-55.76 267.82,-62.85 270.52,-56.39"/>
<text text-anchor="middle" x="345" y="-125.16" font-family="Helvetica,sans-Serif" font-size="10.00"> username</text>
</g>
<!-- Node5 -->
<g id="node5" class="node">
<title>Node5</title>
<g id="a_node5"><a xlink:title=" ">
<polygon fill="none" stroke="#bfbfbf" points="0,-31.16 0,-61.16 104,-61.16 104,-31.16 0,-31.16"/>
<text text-anchor="start" x="8" y="-49.16" font-family="Helvetica,sans-Serif" font-size="10.00">std::basic_string&lt;</text>
<text text-anchor="middle" x="52" y="-38.16" font-family="Helvetica,sans-Serif" font-size="10.00"> Char &gt;</text>
</a>
</g>
</g>
<!-- Node5&#45;&gt;Node4 -->
<g id="edge4" class="edge">
<title>Node5&#45;&gt;Node4</title>
<path fill="none" stroke="midnightblue" d="M114.23,-46.16C143.49,-46.16 177.27,-46.16 201.31,-46.16"/>
<polygon fill="midnightblue" stroke="midnightblue" points="114.1,-42.66 104.1,-46.16 114.1,-49.66 114.1,-42.66"/>
</g>
<!-- Node6 -->
<g id="node6" class="node">
<title>Node6</title>
<g id="a_node6"><a xlink:title=" ">
<polygon fill="none" stroke="#bfbfbf" points="608,-208.66 608,-227.66 705,-227.66 705,-208.66 608,-208.66"/>
<text text-anchor="middle" x="656.5" y="-215.66" font-family="Helvetica,sans-Serif" font-size="10.00">integration_type</text>
</a>
</g>
</g>
<!-- Node6&#45;&gt;Node1 -->
<g id="edge5" class="edge">
<title>Node6&#45;&gt;Node1</title>
<path fill="none" stroke="#9a32cd" stroke-dasharray="5,2" d="M715.27,-213.06C743.64,-210.56 777.35,-207.58 803.96,-205.23"/>
<polygon fill="#9a32cd" stroke="#9a32cd" points="714.74,-209.6 705.08,-213.96 715.35,-216.57 714.74,-209.6"/>
<text text-anchor="middle" x="759.5" y="-214.16" font-family="Helvetica,sans-Serif" font-size="10.00"> type</text>
</g>
<!-- Node7 -->
<g id="node7" class="node">
<title>Node7</title>
<g id="a_node7"><a xlink:title=" ">
<polygon fill="none" stroke="#bfbfbf" points="209,-336.66 209,-355.66 259,-355.66 259,-336.66 209,-336.66"/>
<text text-anchor="middle" x="234" y="-343.66" font-family="Helvetica,sans-Serif" font-size="10.00">uint8_t</text>
</a>
</g>
</g>
<!-- Node7&#45;&gt;Node1 -->
<g id="edge6" class="edge">
<title>Node7&#45;&gt;Node1</title>
<path fill="none" stroke="#9a32cd" stroke-dasharray="5,2" d="M269.16,-345.02C298.41,-343.74 341.61,-341.16 379,-336.16 562.82,-311.59 616.62,-319.69 786,-244.16 805.81,-235.33 826.17,-220.46 838.46,-210.73"/>
<polygon fill="#9a32cd" stroke="#9a32cd" points="268.89,-341.52 259.04,-345.43 269.18,-348.52 268.89,-341.52"/>
<text text-anchor="middle" x="528.5" y="-326.16" font-family="Helvetica,sans-Serif" font-size="10.00"> flags</text>
</g>
<!-- Node7&#45;&gt;Node11 -->
<g id="edge20" class="edge">
<title>Node7&#45;&gt;Node11</title>
<path fill="none" stroke="#9a32cd" stroke-dasharray="5,2" d="M269.02,-338.01C301.03,-328.79 348.48,-310.89 379,-280.16 405.46,-253.52 419.46,-209.45 424.63,-189.95"/>
<polygon fill="#9a32cd" stroke="#9a32cd" points="267.92,-334.68 259.21,-340.71 269.78,-341.43 267.92,-334.68"/>
<text text-anchor="middle" x="345" y="-324.16" font-family="Helvetica,sans-Serif" font-size="10.00"> refcount</text>
</g>
<!-- Node8 -->
<g id="node8" class="node">
<title>Node8</title>
<g id="a_node8"><a xlink:title=" ">
<polygon fill="none" stroke="#bfbfbf" points="206,-293.66 206,-312.66 262,-312.66 262,-293.66 206,-293.66"/>
<text text-anchor="middle" x="234" y="-300.66" font-family="Helvetica,sans-Serif" font-size="10.00">uint32_t</text>
</a>
</g>
</g>
<!-- Node8&#45;&gt;Node1 -->
<g id="edge8" class="edge">
<title>Node8&#45;&gt;Node1</title>
<path fill="none" stroke="#9a32cd" stroke-dasharray="5,2" d="M272.24,-298.26C352.98,-287.59 550.11,-261.27 715,-237.16 746.6,-232.54 755.17,-234.47 786,-226.16 800.74,-222.19 816.74,-215.94 829.06,-210.69"/>
<polygon fill="#9a32cd" stroke="#9a32cd" points="271.54,-294.83 262.09,-299.6 272.46,-301.76 271.54,-294.83"/>
<text text-anchor="middle" x="528.5" y="-284.16" font-family="Helvetica,sans-Serif" font-size="10.00"> expire_grace_period</text>
<text text-anchor="middle" x="528.5" y="-273.16" font-family="Helvetica,sans-Serif" font-size="10.00">subscriber_count</text>
</g>
<!-- Node8&#45;&gt;Node11 -->
<g id="edge19" class="edge">
<title>Node8&#45;&gt;Node11</title>
<path fill="none" stroke="#9a32cd" stroke-dasharray="5,2" d="M249.47,-285.95C263.69,-270.02 286.72,-246.68 311,-232.16 338.38,-215.79 350.06,-222.6 379,-209.16 390.83,-203.67 403.43,-195.98 412.75,-189.9"/>
<polygon fill="#9a32cd" stroke="#9a32cd" points="246.81,-283.68 242.89,-293.52 252.09,-288.28 246.81,-283.68"/>
<text text-anchor="middle" x="345" y="-235.16" font-family="Helvetica,sans-Serif" font-size="10.00"> flags</text>
</g>
<!-- Node9 -->
<g id="node9" class="node">
<title>Node9</title>
<g id="a_node9"><a xlink:title=" ">
<polygon fill="none" stroke="#bfbfbf" points="632.5,-70.66 632.5,-89.66 680.5,-89.66 680.5,-70.66 632.5,-70.66"/>
<text text-anchor="middle" x="656.5" y="-77.66" font-family="Helvetica,sans-Serif" font-size="10.00">time_t</text>
</a>
</g>
</g>
<!-- Node9&#45;&gt;Node1 -->
<g id="edge9" class="edge">
<title>Node9&#45;&gt;Node1</title>
<path fill="none" stroke="#9a32cd" stroke-dasharray="5,2" d="M690.85,-75.69C718.48,-73.71 757.68,-75.08 786,-93.16 822.92,-116.74 841.32,-169.87 847.52,-191.62"/>
<polygon fill="#9a32cd" stroke="#9a32cd" points="690.52,-72.2 680.87,-76.58 691.14,-79.18 690.52,-72.2"/>
<text text-anchor="middle" x="759.5" y="-96.16" font-family="Helvetica,sans-Serif" font-size="10.00"> synced_at</text>
</g>
<!-- Node10&#45;&gt;Node1 -->
<g id="edge10" class="edge">
<title>Node10&#45;&gt;Node1</title>
<path fill="none" stroke="#9a32cd" stroke-dasharray="5,2" d="M725.24,-185.07C744.87,-186.74 766.31,-188.79 786,-191.16 791.81,-191.87 797.89,-192.69 803.91,-193.57"/>
<polygon fill="#9a32cd" stroke="#9a32cd" points="725.41,-181.58 715.16,-184.24 724.84,-188.55 725.41,-181.58"/>
<text text-anchor="middle" x="759.5" y="-194.16" font-family="Helvetica,sans-Serif" font-size="10.00"> app</text>
</g>
<!-- Node11&#45;&gt;Node10 -->
<g id="edge13" class="edge">
<title>Node11&#45;&gt;Node10</title>
<path fill="none" stroke="#9a32cd" stroke-dasharray="5,2" d="M469.13,-180.16C504.86,-180.16 557.54,-180.16 597.78,-180.16"/>
<polygon fill="#9a32cd" stroke="#9a32cd" points="469.08,-176.66 459.08,-180.16 469.08,-183.66 469.08,-176.66"/>
<text text-anchor="middle" x="528.5" y="-183.16" font-family="Helvetica,sans-Serif" font-size="10.00"> bot</text>
</g>
<!-- Node12 -->
<g id="node12" class="node">
<title>Node12</title>
<g id="a_node12"><a xlink:title=" ">
<polygon fill="none" stroke="#bfbfbf" points="206,-153.66 206,-172.66 262,-172.66 262,-153.66 206,-153.66"/>
<text text-anchor="middle" x="234" y="-160.66" font-family="Helvetica,sans-Serif" font-size="10.00">uint16_t</text>
</a>
</g>
</g>
<!-- Node12&#45;&gt;Node11 -->
<g id="edge16" class="edge">
<title>Node12&#45;&gt;Node11</title>
<path fill="none" stroke="#9a32cd" stroke-dasharray="5,2" d="M272.2,-160.24C301.44,-158.7 343.09,-158.21 379,-164.16 386.97,-165.49 395.41,-167.92 402.96,-170.51"/>
<polygon fill="#9a32cd" stroke="#9a32cd" points="271.8,-156.76 262.02,-160.84 272.21,-163.74 271.8,-156.76"/>
<text text-anchor="middle" x="345" y="-167.16" font-family="Helvetica,sans-Serif" font-size="10.00"> discriminator</text>
</g>
<!-- Node13&#45;&gt;Node11 -->
<g id="edge17" class="edge">
<title>Node13&#45;&gt;Node11</title>
<path fill="none" stroke="#9a32cd" stroke-dasharray="5,2" d="M288.23,-202.58C295.86,-201.03 303.62,-199.51 311,-198.16 340.07,-192.85 373.42,-187.78 396.88,-184.39"/>
<polygon fill="#9a32cd" stroke="#9a32cd" points="287.41,-199.18 278.33,-204.62 288.83,-206.03 287.41,-199.18"/>
<text text-anchor="middle" x="345" y="-201.16" font-family="Helvetica,sans-Serif" font-size="10.00"> avatar</text>
</g>
</g>
</svg>
        <g id="navigator" transform="translate(0 0)" fill="#404254">
                <rect fill="#f2f5e9" fill-opacity="0.5" stroke="#606060" stroke-width=".5" x="0" y="0" width="60" height="60"/>
                <use id="zoomplus" xlink:href="#zoomPlus" x="17" y="9" onmousedown="handleZoom(evt,'in')"/>
                <use id="zoomminus" xlink:href="#zoomMin" x="42" y="9" onmousedown="handleZoom(evt,'out')"/>
                <use id="reset" xlink:href="#resetDef" x="30" y="36" onmousedown="handleReset()"/>
                <g id="arrowUp" xlink:href="#dirArrow" transform="translate(30 24)" onmousedown="handlePan(0,-1)">
                  <use xlink:href="#rim" fill="#404040">
                        <set attributeName="fill" to="#808080" begin="arrowUp.mouseover" end="arrowUp.mouseout"/>
                  </use>
                  <path fill="none" stroke="white" stroke-width="1.5" d="M0,-3.0v7 M-2.5,-0.5L0,-3.0L2.5,-0.5"/>
                </g>
                <g id="arrowRight" xlink:href="#dirArrow" transform="rotate(90) translate(36 -43)" onmousedown="handlePan(1,0)">
                  <use xlink:href="#rim" fill="#404040">
                        <set attributeName="fill" to="#808080" begin="arrowRight.mouseover" end="arrowRight.mouseout"/>
                  </use>
                  <path fill="none" stroke="white" stroke-width="1.5" d="M0,-3.0v7 M-2.5,-0.5L0,-3.0L2.5,-0.5"/>
                </g>
                <g id="arrowDown" xlink:href="#dirArrow" transform="rotate(180) translate(-30 -48)" onmousedown="handlePan(0,1)">
                  <use xlink:href="#rim" fill="#404040">
                        <set attributeName="fill" to="#808080" begin="arrowDown.mouseover" end="arrowDown.mouseout"/>
                  </use>
                  <path fill="none" stroke="white" stroke-width="1.5" d="M0,-3.0v7 M-2.5,-0.5L0,-3.0L2.5,-0.5"/>
                </g>
                <g id="arrowLeft" xlink:href="#dirArrow" transform="rotate(270) translate(-36 17)" onmousedown="handlePan(-1,0)">
                  <use xlink:href="#rim" fill="#404040">
                        <set attributeName="fill" to="#808080" begin="arrowLeft.mouseover" end="arrowLeft.mouseout"/>
                  </use>
                  <path fill="none" stroke="white" stroke-width="1.5" d="M0,-3.0v7 M-2.5,-0.5L0,-3.0L2.5,-0.5"/>
                </g>
        </g>
        <svg viewBox="0 0 15 15" width="100%" height="30px" preserveAspectRatio="xMaxYMin meet">
         <g id="arrow_out" transform="scale(0.3 0.3)">
          <a xlink:href="classdpp_1_1integration__coll__graph_org.svg" target="_base">
           <rect id="button" ry="5" rx="5" y="6" x="6" height="38" width="38"
                fill="#f2f5e9" fill-opacity="0.5" stroke="#606060" stroke-width="1.0"/>
           <path id="arrow"
             d="M 11.500037,31.436501 C 11.940474,20.09759 22.043105,11.32322 32.158766,21.979434 L 37.068811,17.246167 C 37.068811,17.246167 37.088388,32 37.088388,32 L 22.160133,31.978069 C 22.160133,31.978069 26.997745,27.140456 26.997745,27.140456 C 18.528582,18.264221 13.291696,25.230495 11.500037,31.436501 z"
             style="fill:#404040;"/>
          </a>
         </g>
        </svg>
</svg>
