<?xml version="1.0" encoding="UTF-8" standalone="no"?>
<!DOCTYPE svg PUBLIC "-//W3C//DTD SVG 1.1//EN"
 "http://www.w3.org/Graphics/SVG/1.1/DTD/svg11.dtd">
<!-- Generated by graphviz version 2.43.0 (0)
 -->
<!-- Title: dpp::reaction Pages: 1 -->
<svg width="297pt" height="163pt"
 viewBox="0.00 0.00 297.00 163.00" xmlns="http://www.w3.org/2000/svg" xmlns:xlink="http://www.w3.org/1999/xlink">
<g id="graph0" class="graph" transform="scale(1 1) rotate(0) translate(4 159)">
<title>dpp::reaction</title>
<!-- Node1 -->
<g id="node1" class="node">
<title>Node1</title>
<g id="a_node1"><a xlink:title="Represents a reaction to a dpp::message.">
<polygon fill="#bfbfbf" stroke="black" points="85,-0.5 85,-19.5 165,-19.5 165,-0.5 85,-0.5"/>
<text text-anchor="middle" x="125" y="-7.5" font-family="Helvetica,sans-Serif" font-size="10.00">dpp::reaction</text>
</a>
</g>
</g>
<!-- Node2 -->
<g id="node2" class="node">
<title>Node2</title>
<g id="a_node2"><a xlink:title=" ">
<polygon fill="none" stroke="#bfbfbf" points="0,-67.5 0,-86.5 56,-86.5 56,-67.5 0,-67.5"/>
<text text-anchor="middle" x="28" y="-74.5" font-family="Helvetica,sans-Serif" font-size="10.00">uint32_t</text>
</a>
</g>
</g>
<!-- Node2&#45;&gt;Node1 -->
<g id="edge1" class="edge">
<title>Node2&#45;&gt;Node1</title>
<path fill="none" stroke="#9a32cd" stroke-dasharray="5,2" d="M44.6,-60.44C52.81,-53.17 63.06,-44.66 73,-38 83.48,-30.98 96.01,-24.43 106.14,-19.53"/>
<polygon fill="#9a32cd" stroke="#9a32cd" points="42.22,-57.88 37.17,-67.2 46.92,-63.06 42.22,-57.88"/>
<text text-anchor="middle" x="88.5" y="-41" font-family="Helvetica,sans-Serif" font-size="10.00"> count</text>
</g>
<!-- Node3 -->
<g id="node3" class="node">
<title>Node3</title>
<g id="a_node3"><a xlink:title=" ">
<polygon fill="none" stroke="#bfbfbf" points="74,-67.5 74,-86.5 112,-86.5 112,-67.5 74,-67.5"/>
<text text-anchor="middle" x="93" y="-74.5" font-family="Helvetica,sans-Serif" font-size="10.00">bool</text>
</a>
</g>
</g>
<!-- Node3&#45;&gt;Node1 -->
<g id="edge2" class="edge">
<title>Node3&#45;&gt;Node1</title>
<path fill="none" stroke="#9a32cd" stroke-dasharray="5,2" d="M101.78,-58.16C107.95,-45.63 115.94,-29.41 120.75,-19.63"/>
<polygon fill="#9a32cd" stroke="#9a32cd" points="98.59,-56.72 97.32,-67.23 104.87,-59.81 98.59,-56.72"/>
<text text-anchor="middle" x="120.5" y="-41" font-family="Helvetica,sans-Serif" font-size="10.00"> me</text>
</g>
<!-- Node4 -->
<g id="node4" class="node">
<title>Node4</title>
<g id="a_node4"><a xlink:title=" ">
<polygon fill="none" stroke="#bfbfbf" points="130,-67.5 130,-86.5 186,-86.5 186,-67.5 130,-67.5"/>
<text text-anchor="middle" x="158" y="-74.5" font-family="Helvetica,sans-Serif" font-size="10.00">uint64_t</text>
</a>
</g>
</g>
<!-- Node4&#45;&gt;Node1 -->
<g id="edge3" class="edge">
<title>Node4&#45;&gt;Node1</title>
<path fill="none" stroke="#9a32cd" stroke-dasharray="5,2" d="M148.94,-58.16C142.58,-45.63 134.35,-29.41 129.38,-19.63"/>
<polygon fill="#9a32cd" stroke="#9a32cd" points="145.9,-59.9 153.55,-67.23 152.14,-56.73 145.9,-59.9"/>
<text text-anchor="middle" x="167" y="-41" font-family="Helvetica,sans-Serif" font-size="10.00"> emoji_id</text>
</g>
<!-- Node5 -->
<g id="node5" class="node">
<title>Node5</title>
<g id="a_node5"><a xlink:title=" ">
<polygon fill="none" stroke="#bfbfbf" points="204.5,-67.5 204.5,-86.5 269.5,-86.5 269.5,-67.5 204.5,-67.5"/>
<text text-anchor="middle" x="237" y="-74.5" font-family="Helvetica,sans-Serif" font-size="10.00">std::string</text>
</a>
</g>
</g>
<!-- Node5&#45;&gt;Node1 -->
<g id="edge4" class="edge">
<title>Node5&#45;&gt;Node1</title>
<path fill="none" stroke="#9a32cd" stroke-dasharray="5,2" d="M221.63,-60.03C213.87,-52.61 203.99,-44.1 194,-38 181.38,-30.29 166.17,-24.06 153.25,-19.53"/>
<polygon fill="#9a32cd" stroke="#9a32cd" points="219.57,-62.91 229.13,-67.48 224.51,-57.95 219.57,-62.91"/>
<text text-anchor="middle" x="240" y="-41" font-family="Helvetica,sans-Serif" font-size="10.00"> emoji_name</text>
</g>
<!-- Node6 -->
<g id="node6" class="node">
<title>Node6</title>
<g id="a_node6"><a xlink:title=" ">
<polygon fill="none" stroke="#bfbfbf" points="185,-124.5 185,-154.5 289,-154.5 289,-124.5 185,-124.5"/>
<text text-anchor="start" x="193" y="-142.5" font-family="Helvetica,sans-Serif" font-size="10.00">std::basic_string&lt;</text>
<text text-anchor="middle" x="237" y="-131.5" font-family="Helvetica,sans-Serif" font-size="10.00"> Char &gt;</text>
</a>
</g>
</g>
<!-- Node6&#45;&gt;Node5 -->
<g id="edge5" class="edge">
<title>Node6&#45;&gt;Node5</title>
<path fill="none" stroke="midnightblue" d="M237,-114.35C237,-104.51 237,-93.78 237,-86.54"/>
<polygon fill="midnightblue" stroke="midnightblue" points="233.5,-114.47 237,-124.47 240.5,-114.47 233.5,-114.47"/>
</g>
</g>
</svg>
