<?xml version="1.0" encoding="UTF-8" standalone="no"?>
<!DOCTYPE svg PUBLIC "-//W3C//DTD SVG 1.1//EN"
 "http://www.w3.org/Graphics/SVG/1.1/DTD/svg11.dtd">
<!-- Generated by graphviz version 2.43.0 (0)
 -->
<!-- Title: dpp::voicestate Pages: 1 -->
<!--zoomable 1085 -->
<svg id="main" version="1.1" xmlns="http://www.w3.org/2000/svg" xmlns:xlink="http://www.w3.org/1999/xlink" xml:space="preserve" onload="init(evt)">
<style type="text/css"><![CDATA[
.edge:hover path { stroke: red; }
.edge:hover polygon { stroke: red; fill: red; }
]]></style>
<script type="text/javascript"><![CDATA[
var edges = document.getElementsByTagName('g');
if (edges && edges.length) {
  for (var i=0;i<edges.length;i++) {
    if (edges[i].id.substr(0,4)=='edge') {
      edges[i].setAttribute('class','edge');
    }
  }
}
]]></script>
        <defs>
                <circle id="rim" cx="0" cy="0" r="7"/>
                <circle id="rim2" cx="0" cy="0" r="3.5"/>
                <g id="zoomPlus">
                        <use xlink:href="#rim" fill="#404040">
                                <set attributeName="fill" to="#808080" begin="zoomplus.mouseover" end="zoomplus.mouseout"/>
                        </use>
                        <path d="M-4,0h8M0,-4v8" fill="none" stroke="white" stroke-width="1.5" pointer-events="none"/>
                </g>
                <g id="zoomMin">
                        <use xlink:href="#rim" fill="#404040">
                                <set attributeName="fill" to="#808080" begin="zoomminus.mouseover" end="zoomminus.mouseout"/>
                        </use>
                        <path d="M-4,0h8" fill="none" stroke="white" stroke-width="1.5" pointer-events="none"/>
                </g>
                <g id="dirArrow">
                        <path fill="none" stroke="white" stroke-width="1.5" d="M0,-3.0v7 M-2.5,-0.5L0,-3.0L2.5,-0.5"/>
                </g>
               <g id="resetDef">
                       <use xlink:href="#rim2" fill="#404040">
                               <set attributeName="fill" to="#808080" begin="reset.mouseover" end="reset.mouseout"/>
                       </use>
               </g>
        </defs>

<script type="text/javascript">
var viewWidth = 1276;
var viewHeight = 1085;
var sectionId = 'dynsection-0';
</script>
<script xlink:href="svgpan.js"/>
<svg id="graph" class="graph">
<g id="viewport">
<title>dpp::voicestate</title>
<!-- Node1 -->
<g id="node1" class="node">
<title>Node1</title>
<g id="a_node1"><a xlink:title="Represents the voice state of a user on a guild These are stored in the dpp::guild object,...">
<polygon fill="#bfbfbf" stroke="black" points="1176,-881.5 1176,-900.5 1268,-900.5 1268,-881.5 1176,-881.5"/>
<text text-anchor="middle" x="1222" y="-888.5" font-family="Helvetica,sans-Serif" font-size="10.00">dpp::voicestate</text>
</a>
</g>
</g>
<!-- Node2 -->
<g id="node2" class="node">
<title>Node2</title>
<g id="a_node2"><a xlink:href="classdpp_1_1discord__client.html" target="_top" xlink:title="Implements a discord client. Each discord_client connects to one shard and derives from a websocket c...">
<polygon fill="none" stroke="black" points="1001,-491.5 1001,-510.5 1109,-510.5 1109,-491.5 1001,-491.5"/>
<text text-anchor="middle" x="1055" y="-498.5" font-family="Helvetica,sans-Serif" font-size="10.00">dpp::discord_client</text>
</a>
</g>
</g>
<!-- Node2&#45;&gt;Node1 -->
<g id="edge1" class="edge">
<title>Node2&#45;&gt;Node1</title>
<path fill="none" stroke="#9a32cd" stroke-dasharray="5,2" d="M1064.03,-519.97C1093.51,-589.67 1195.24,-830.11 1216.92,-881.35"/>
<polygon fill="#9a32cd" stroke="#9a32cd" points="1067.2,-518.49 1060.08,-510.64 1060.75,-521.21 1067.2,-518.49"/>
<text text-anchor="middle" x="1142.5" y="-733" font-family="Helvetica,sans-Serif" font-size="10.00"> shard</text>
</g>
<!-- Node3 -->
<g id="node3" class="node">
<title>Node3</title>
<g id="a_node3"><a xlink:href="classdpp_1_1websocket__client.html" target="_top" xlink:title="Implements a websocket client based on the SSL client.">
<polygon fill="none" stroke="black" points="703,-225.5 703,-244.5 828,-244.5 828,-225.5 703,-225.5"/>
<text text-anchor="middle" x="765.5" y="-232.5" font-family="Helvetica,sans-Serif" font-size="10.00">dpp::websocket_client</text>
</a>
</g>
</g>
<!-- Node3&#45;&gt;Node2 -->
<g id="edge2" class="edge">
<title>Node3&#45;&gt;Node2</title>
<path fill="none" stroke="midnightblue" d="M796.09,-249.1C840.88,-271.57 926.63,-319.15 983,-379 1016.77,-414.86 1041.28,-469.62 1050.25,-491.49"/>
<polygon fill="midnightblue" stroke="midnightblue" points="797.44,-245.86 786.92,-244.56 794.33,-252.13 797.44,-245.86"/>
</g>
<!-- Node4 -->
<g id="node4" class="node">
<title>Node4</title>
<g id="a_node4"><a xlink:href="classdpp_1_1ssl__client.html" target="_top" xlink:title="Implements a simple non&#45;blocking SSL stream client.">
<polygon fill="none" stroke="black" points="473.5,-247.5 473.5,-266.5 559.5,-266.5 559.5,-247.5 473.5,-247.5"/>
<text text-anchor="middle" x="516.5" y="-254.5" font-family="Helvetica,sans-Serif" font-size="10.00">dpp::ssl_client</text>
</a>
</g>
</g>
<!-- Node4&#45;&gt;Node3 -->
<g id="edge3" class="edge">
<title>Node4&#45;&gt;Node3</title>
<path fill="none" stroke="midnightblue" d="M569.72,-252.35C608.53,-248.89 661.62,-244.16 702.57,-240.52"/>
<polygon fill="midnightblue" stroke="midnightblue" points="569.33,-248.87 559.68,-253.24 569.95,-255.84 569.33,-248.87"/>
</g>
<!-- Node5 -->
<g id="node5" class="node">
<title>Node5</title>
<g id="a_node5"><a xlink:title=" ">
<polygon fill="none" stroke="#bfbfbf" points="206.5,-119.5 206.5,-138.5 271.5,-138.5 271.5,-119.5 206.5,-119.5"/>
<text text-anchor="middle" x="239" y="-126.5" font-family="Helvetica,sans-Serif" font-size="10.00">std::string</text>
</a>
</g>
</g>
<!-- Node5&#45;&gt;Node1 -->
<g id="edge42" class="edge">
<title>Node5&#45;&gt;Node1</title>
<path fill="none" stroke="#9a32cd" stroke-dasharray="5,2" d="M263.89,-113.93C275.84,-106.18 290.41,-96.4 303,-87 311.34,-80.77 311.99,-77.22 321,-72 400.78,-25.83 423.32,0 515.5,0 515.5,0 515.5,0 1056,0 1150.49,0 1212.95,-784.74 1220.28,-881.3"/>
<polygon fill="#9a32cd" stroke="#9a32cd" points="261.86,-111.08 255.33,-119.43 265.64,-116.97 261.86,-111.08"/>
<text text-anchor="middle" x="765.5" y="-3" font-family="Helvetica,sans-Serif" font-size="10.00"> session_id</text>
</g>
<!-- Node5&#45;&gt;Node2 -->
<g id="edge36" class="edge">
<title>Node5&#45;&gt;Node2</title>
<path fill="none" stroke="#9a32cd" stroke-dasharray="5,2" d="M260.69,-113.61C276.35,-102.97 298.87,-89.73 321,-84 373.06,-70.51 388.95,-75.18 442,-84 693.54,-125.82 808.12,-89.43 983,-275 1044.21,-339.95 1052.66,-457.18 1053.82,-491.38"/>
<polygon fill="#9a32cd" stroke="#9a32cd" points="258.48,-110.88 252.32,-119.5 262.51,-116.61 258.48,-110.88"/>
<text text-anchor="middle" x="638" y="-129" font-family="Helvetica,sans-Serif" font-size="10.00"> sessionid</text>
<text text-anchor="middle" x="638" y="-118" font-family="Helvetica,sans-Serif" font-size="10.00">token</text>
</g>
<!-- Node5&#45;&gt;Node4 -->
<g id="edge4" class="edge">
<title>Node5&#45;&gt;Node4</title>
<path fill="none" stroke="#9a32cd" stroke-dasharray="5,2" d="M281.85,-134.95C332.79,-142.74 415.32,-157.25 442,-173 474.04,-191.91 499.36,-229.71 510.02,-247.42"/>
<polygon fill="#9a32cd" stroke="#9a32cd" points="282.21,-131.47 271.8,-133.44 281.17,-138.39 282.21,-131.47"/>
<text text-anchor="middle" x="381.5" y="-220" font-family="Helvetica,sans-Serif" font-size="10.00"> buffer</text>
<text text-anchor="middle" x="381.5" y="-209" font-family="Helvetica,sans-Serif" font-size="10.00">cipher</text>
<text text-anchor="middle" x="381.5" y="-198" font-family="Helvetica,sans-Serif" font-size="10.00">hostname</text>
<text text-anchor="middle" x="381.5" y="-187" font-family="Helvetica,sans-Serif" font-size="10.00">obuffer</text>
<text text-anchor="middle" x="381.5" y="-176" font-family="Helvetica,sans-Serif" font-size="10.00">port</text>
</g>
<!-- Node15 -->
<g id="node15" class="node">
<title>Node15</title>
<g id="a_node15"><a xlink:href="classdpp_1_1cluster.html" target="_top" xlink:title="The cluster class represents a group of shards and a command queue for sending and receiving commands...">
<polygon fill="none" stroke="black" points="728.5,-511.5 728.5,-530.5 802.5,-530.5 802.5,-511.5 728.5,-511.5"/>
<text text-anchor="middle" x="765.5" y="-518.5" font-family="Helvetica,sans-Serif" font-size="10.00">dpp::cluster</text>
</a>
</g>
</g>
<!-- Node5&#45;&gt;Node15 -->
<g id="edge15" class="edge">
<title>Node5&#45;&gt;Node15</title>
<path fill="none" stroke="#9a32cd" stroke-dasharray="5,2" d="M281.79,-125.96C323.47,-124.28 388.78,-125.38 442,-143 507.66,-164.74 521.92,-180.37 573,-227 632.88,-281.67 653.52,-296.28 685,-371 707.82,-425.16 664.97,-457.2 703,-502 709.44,-509.58 718.83,-514.19 728.35,-516.97"/>
<polygon fill="#9a32cd" stroke="#9a32cd" points="281.55,-122.46 271.73,-126.43 281.88,-129.46 281.55,-122.46"/>
<text text-anchor="middle" x="516.5" y="-230" font-family="Helvetica,sans-Serif" font-size="10.00"> token</text>
</g>
<!-- Node19 -->
<g id="node19" class="node">
<title>Node19</title>
<g id="a_node19"><a xlink:href="classdpp_1_1user.html" target="_top" xlink:title="Represents a user on discord. May or may not be a member of a dpp::guild.">
<polygon fill="none" stroke="black" points="485.5,-766.5 485.5,-785.5 547.5,-785.5 547.5,-766.5 485.5,-766.5"/>
<text text-anchor="middle" x="516.5" y="-773.5" font-family="Helvetica,sans-Serif" font-size="10.00">dpp::user</text>
</a>
</g>
</g>
<!-- Node5&#45;&gt;Node19 -->
<g id="edge24" class="edge">
<title>Node5&#45;&gt;Node19</title>
<path fill="none" stroke="#9a32cd" stroke-dasharray="5,2" d="M257.38,-145.99C271.61,-160.84 291.26,-183.64 303,-207 317.42,-235.7 300.36,-252.39 321,-277 358.96,-322.26 408.62,-283.26 442,-332 461.93,-361.11 451.81,-614.69 460,-649 471.01,-695.11 497.94,-745.46 509.77,-766.22"/>
<polygon fill="#9a32cd" stroke="#9a32cd" points="259.62,-143.27 250.11,-138.6 254.63,-148.18 259.62,-143.27"/>
<text text-anchor="middle" x="381.5" y="-335" font-family="Helvetica,sans-Serif" font-size="10.00"> username</text>
</g>
<!-- Node6 -->
<g id="node6" class="node">
<title>Node6</title>
<g id="a_node6"><a xlink:title=" ">
<polygon fill="none" stroke="#bfbfbf" points="0,-114 0,-144 104,-144 104,-114 0,-114"/>
<text text-anchor="start" x="8" y="-132" font-family="Helvetica,sans-Serif" font-size="10.00">std::basic_string&lt;</text>
<text text-anchor="middle" x="52" y="-121" font-family="Helvetica,sans-Serif" font-size="10.00"> Char &gt;</text>
</a>
</g>
</g>
<!-- Node6&#45;&gt;Node5 -->
<g id="edge5" class="edge">
<title>Node6&#45;&gt;Node5</title>
<path fill="none" stroke="midnightblue" d="M114.26,-129C145.05,-129 181.08,-129 206.29,-129"/>
<polygon fill="midnightblue" stroke="midnightblue" points="114.04,-125.5 104.04,-129 114.04,-132.5 114.04,-125.5"/>
</g>
<!-- Node7 -->
<g id="node7" class="node">
<title>Node7</title>
<g id="a_node7"><a xlink:title=" ">
<polygon fill="none" stroke="#bfbfbf" points="220,-58.5 220,-77.5 258,-77.5 258,-58.5 220,-58.5"/>
<text text-anchor="middle" x="239" y="-65.5" font-family="Helvetica,sans-Serif" font-size="10.00">bool</text>
</a>
</g>
</g>
<!-- Node7&#45;&gt;Node2 -->
<g id="edge39" class="edge">
<title>Node7&#45;&gt;Node2</title>
<path fill="none" stroke="#9a32cd" stroke-dasharray="5,2" d="M267.9,-60.68C378.49,-33.54 789.48,49.34 983,-162 1029.19,-212.45 1049.36,-440.95 1053.27,-491.21"/>
<polygon fill="#9a32cd" stroke="#9a32cd" points="267,-57.3 258.15,-63.12 268.7,-64.09 267,-57.3"/>
<text text-anchor="middle" x="638" y="-31" font-family="Helvetica,sans-Serif" font-size="10.00"> ready</text>
</g>
<!-- Node7&#45;&gt;Node4 -->
<g id="edge6" class="edge">
<title>Node7&#45;&gt;Node4</title>
<path fill="none" stroke="#9a32cd" stroke-dasharray="5,2" d="M268.34,-69.82C310.43,-73.86 390.07,-86.79 442,-128 463.1,-144.74 498.74,-220.13 511.11,-247.25"/>
<polygon fill="#9a32cd" stroke="#9a32cd" points="268.51,-66.32 258.25,-68.95 267.91,-73.29 268.51,-66.32"/>
<text text-anchor="middle" x="381.5" y="-131" font-family="Helvetica,sans-Serif" font-size="10.00"> nonblocking</text>
</g>
<!-- Node8 -->
<g id="node8" class="node">
<title>Node8</title>
<g id="a_node8"><a xlink:title=" ">
<polygon fill="none" stroke="#bfbfbf" points="224.5,-254.5 224.5,-273.5 253.5,-273.5 253.5,-254.5 224.5,-254.5"/>
<text text-anchor="middle" x="239" y="-261.5" font-family="Helvetica,sans-Serif" font-size="10.00">int</text>
</a>
</g>
</g>
<!-- Node8&#45;&gt;Node4 -->
<g id="edge7" class="edge">
<title>Node8&#45;&gt;Node4</title>
<path fill="none" stroke="#9a32cd" stroke-dasharray="5,2" d="M263.73,-263.4C310.43,-262.21 414.83,-259.56 473.46,-258.07"/>
<polygon fill="#9a32cd" stroke="#9a32cd" points="263.57,-259.9 253.66,-263.65 263.75,-266.9 263.57,-259.9"/>
<text text-anchor="middle" x="381.5" y="-265" font-family="Helvetica,sans-Serif" font-size="10.00"> sfd</text>
</g>
<!-- Node9 -->
<g id="node9" class="node">
<title>Node9</title>
<g id="a_node9"><a xlink:href="classdpp_1_1opensslcontext.html" target="_top" xlink:title=" ">
<polygon fill="none" stroke="black" points="181.5,-216.5 181.5,-235.5 296.5,-235.5 296.5,-216.5 181.5,-216.5"/>
<text text-anchor="middle" x="239" y="-223.5" font-family="Helvetica,sans-Serif" font-size="10.00">dpp::opensslcontext</text>
</a>
</g>
</g>
<!-- Node9&#45;&gt;Node4 -->
<g id="edge8" class="edge">
<title>Node9&#45;&gt;Node4</title>
<path fill="none" stroke="#9a32cd" stroke-dasharray="5,2" d="M306.77,-230.5C346.2,-233.51 397.05,-238.03 442,-244 452.15,-245.35 463.03,-247.1 473.23,-248.88"/>
<polygon fill="#9a32cd" stroke="#9a32cd" points="306.97,-227 296.74,-229.74 306.45,-233.98 306.97,-227"/>
<text text-anchor="middle" x="381.5" y="-247" font-family="Helvetica,sans-Serif" font-size="10.00"> ssl</text>
</g>
<!-- Node10 -->
<g id="node10" class="node">
<title>Node10</title>
<g id="a_node10"><a xlink:title=" ">
<polygon fill="none" stroke="#bfbfbf" points="31,-235.5 31,-254.5 73,-254.5 73,-235.5 31,-235.5"/>
<text text-anchor="middle" x="52" y="-242.5" font-family="Helvetica,sans-Serif" font-size="10.00">SSL *</text>
</a>
</g>
</g>
<!-- Node10&#45;&gt;Node9 -->
<g id="edge9" class="edge">
<title>Node10&#45;&gt;Node9</title>
<path fill="none" stroke="#9a32cd" stroke-dasharray="5,2" d="M83.33,-241.89C109.83,-239.16 149,-235.14 181.29,-231.82"/>
<polygon fill="#9a32cd" stroke="#9a32cd" points="82.74,-238.43 73.15,-242.93 83.46,-245.39 82.74,-238.43"/>
<text text-anchor="middle" x="139.5" y="-241" font-family="Helvetica,sans-Serif" font-size="10.00"> ssl</text>
</g>
<!-- Node11 -->
<g id="node11" class="node">
<title>Node11</title>
<g id="a_node11"><a xlink:title=" ">
<polygon fill="none" stroke="#bfbfbf" points="18.5,-197.5 18.5,-216.5 85.5,-216.5 85.5,-197.5 18.5,-197.5"/>
<text text-anchor="middle" x="52" y="-204.5" font-family="Helvetica,sans-Serif" font-size="10.00">SSL_CTX *</text>
</a>
</g>
</g>
<!-- Node11&#45;&gt;Node9 -->
<g id="edge10" class="edge">
<title>Node11&#45;&gt;Node9</title>
<path fill="none" stroke="#9a32cd" stroke-dasharray="5,2" d="M95.73,-211.39C121.18,-214 153.79,-217.35 181.37,-220.18"/>
<polygon fill="#9a32cd" stroke="#9a32cd" points="95.95,-207.89 85.65,-210.35 95.24,-214.86 95.95,-207.89"/>
<text text-anchor="middle" x="139.5" y="-221" font-family="Helvetica,sans-Serif" font-size="10.00"> ctx</text>
</g>
<!-- Node12 -->
<g id="node12" class="node">
<title>Node12</title>
<g id="a_node12"><a xlink:title=" ">
<polygon fill="none" stroke="#bfbfbf" points="215,-383.5 215,-402.5 263,-402.5 263,-383.5 215,-383.5"/>
<text text-anchor="middle" x="239" y="-390.5" font-family="Helvetica,sans-Serif" font-size="10.00">time_t</text>
</a>
</g>
</g>
<!-- Node12&#45;&gt;Node2 -->
<g id="edge33" class="edge">
<title>Node12&#45;&gt;Node2</title>
<path fill="none" stroke="#9a32cd" stroke-dasharray="5,2" d="M273.24,-392.7C399.9,-391.97 851.72,-393.26 983,-447 1007.94,-457.21 1031.78,-478.49 1044.49,-491.07"/>
<polygon fill="#9a32cd" stroke="#9a32cd" points="272.99,-389.2 263.01,-392.77 273.03,-396.2 272.99,-389.2"/>
<text text-anchor="middle" x="638" y="-416" font-family="Helvetica,sans-Serif" font-size="10.00"> last_heartbeat</text>
<text text-anchor="middle" x="638" y="-405" font-family="Helvetica,sans-Serif" font-size="10.00">last_heartbeat_ack</text>
</g>
<!-- Node12&#45;&gt;Node4 -->
<g id="edge11" class="edge">
<title>Node12&#45;&gt;Node4</title>
<path fill="none" stroke="#9a32cd" stroke-dasharray="5,2" d="M272.82,-381.96C287.46,-377.27 304.99,-371.98 321,-368 374.12,-354.8 394.81,-372.74 442,-345 475.29,-325.43 500.34,-284.98 510.51,-266.54"/>
<polygon fill="#9a32cd" stroke="#9a32cd" points="271.63,-378.67 263.2,-385.08 273.79,-385.32 271.63,-378.67"/>
<text text-anchor="middle" x="381.5" y="-371" font-family="Helvetica,sans-Serif" font-size="10.00"> last_tick</text>
</g>
<!-- Node12&#45;&gt;Node15 -->
<g id="edge16" class="edge">
<title>Node12&#45;&gt;Node15</title>
<path fill="none" stroke="#9a32cd" stroke-dasharray="5,2" d="M273.39,-398.13C327.01,-406.57 427.79,-423.31 442,-432 453.07,-438.77 449,-448.1 460,-455 504.68,-483.02 657.97,-506.65 728.48,-516.32"/>
<polygon fill="#9a32cd" stroke="#9a32cd" points="273.75,-394.65 263.33,-396.56 272.67,-401.56 273.75,-394.65"/>
<text text-anchor="middle" x="516.5" y="-492" font-family="Helvetica,sans-Serif" font-size="10.00"> last_identify</text>
</g>
<!-- Node13 -->
<g id="node13" class="node">
<title>Node13</title>
<g id="a_node13"><a xlink:title=" ">
<polygon fill="none" stroke="#bfbfbf" points="24,-804.5 24,-823.5 80,-823.5 80,-804.5 24,-804.5"/>
<text text-anchor="middle" x="52" y="-811.5" font-family="Helvetica,sans-Serif" font-size="10.00">uint64_t</text>
</a>
</g>
</g>
<!-- Node13&#45;&gt;Node1 -->
<g id="edge41" class="edge">
<title>Node13&#45;&gt;Node1</title>
<path fill="none" stroke="#9a32cd" stroke-dasharray="5,2" d="M58.24,-833.24C74.59,-888.54 130.15,-1044 238,-1044 238,-1044 238,-1044 1056,-1044 1140.77,-1044 1200.39,-934.07 1216.58,-900.57"/>
<polygon fill="#9a32cd" stroke="#9a32cd" points="61.6,-832.25 55.49,-823.59 54.86,-834.17 61.6,-832.25"/>
<text text-anchor="middle" x="638" y="-1069" font-family="Helvetica,sans-Serif" font-size="10.00"> channel_id</text>
<text text-anchor="middle" x="638" y="-1058" font-family="Helvetica,sans-Serif" font-size="10.00">guild_id</text>
<text text-anchor="middle" x="638" y="-1047" font-family="Helvetica,sans-Serif" font-size="10.00">user_id</text>
</g>
<!-- Node13&#45;&gt;Node2 -->
<g id="edge35" class="edge">
<title>Node13&#45;&gt;Node2</title>
<path fill="none" stroke="#9a32cd" stroke-dasharray="5,2" d="M63.29,-832.4C81.35,-862.56 121.91,-921.52 175,-945 257.11,-981.32 915.97,-995.74 983,-936 1049.12,-877.07 1053.72,-569 1053.99,-510.57"/>
<polygon fill="#9a32cd" stroke="#9a32cd" points="66.28,-830.59 58.23,-823.7 60.23,-834.1 66.28,-830.59"/>
<text text-anchor="middle" x="516.5" y="-979" font-family="Helvetica,sans-Serif" font-size="10.00"> last_seq</text>
</g>
<!-- Node13&#45;&gt;Node4 -->
<g id="edge12" class="edge">
<title>Node13&#45;&gt;Node4</title>
<path fill="none" stroke="#9a32cd" stroke-dasharray="5,2" d="M55.59,-794.25C66.43,-714.49 110.6,-417.31 175,-352 177.76,-349.2 393.92,-290.11 480.36,-266.56"/>
<polygon fill="#9a32cd" stroke="#9a32cd" points="52.09,-794.01 54.23,-804.39 59.03,-794.94 52.09,-794.01"/>
<text text-anchor="middle" x="239" y="-366" font-family="Helvetica,sans-Serif" font-size="10.00"> bytes_in</text>
<text text-anchor="middle" x="239" y="-355" font-family="Helvetica,sans-Serif" font-size="10.00">bytes_out</text>
</g>
<!-- Node20 -->
<g id="node20" class="node">
<title>Node20</title>
<g id="a_node20"><a xlink:href="classdpp_1_1managed.html" target="_top" xlink:title="The managed class is the base class for various types that can be stored in a cache that are identifi...">
<polygon fill="none" stroke="black" points="196,-728.5 196,-747.5 282,-747.5 282,-728.5 196,-728.5"/>
<text text-anchor="middle" x="239" y="-735.5" font-family="Helvetica,sans-Serif" font-size="10.00">dpp::managed</text>
</a>
</g>
</g>
<!-- Node13&#45;&gt;Node20 -->
<g id="edge23" class="edge">
<title>Node13&#45;&gt;Node20</title>
<path fill="none" stroke="#9a32cd" stroke-dasharray="5,2" d="M80.26,-799.88C104.67,-787.57 141.65,-769.74 175,-757 183.96,-753.57 193.83,-750.35 203.04,-747.57"/>
<polygon fill="#9a32cd" stroke="#9a32cd" points="78.57,-796.81 71.24,-804.46 81.74,-803.05 78.57,-796.81"/>
<text text-anchor="middle" x="139.5" y="-781" font-family="Helvetica,sans-Serif" font-size="10.00"> id</text>
</g>
<!-- Node22 -->
<g id="node22" class="node">
<title>Node22</title>
<g id="a_node22"><a xlink:href="structdpp_1_1utility_1_1iconhash.html" target="_top" xlink:title="Store a 128 bit icon hash (profile picture, server icon etc) as a 128 bit binary value made of two ui...">
<polygon fill="none" stroke="black" points="180,-804.5 180,-823.5 298,-823.5 298,-804.5 180,-804.5"/>
<text text-anchor="middle" x="239" y="-811.5" font-family="Helvetica,sans-Serif" font-size="10.00">dpp::utility::iconhash</text>
</a>
</g>
</g>
<!-- Node13&#45;&gt;Node22 -->
<g id="edge27" class="edge">
<title>Node13&#45;&gt;Node22</title>
<path fill="none" stroke="#9a32cd" stroke-dasharray="5,2" d="M90.37,-814C116.08,-814 150.72,-814 179.99,-814"/>
<polygon fill="#9a32cd" stroke="#9a32cd" points="90.3,-810.5 80.3,-814 90.3,-817.5 90.3,-810.5"/>
<text text-anchor="middle" x="139.5" y="-828" font-family="Helvetica,sans-Serif" font-size="10.00"> first</text>
<text text-anchor="middle" x="139.5" y="-817" font-family="Helvetica,sans-Serif" font-size="10.00">second</text>
</g>
<!-- Node14 -->
<g id="node14" class="node">
<title>Node14</title>
<g id="a_node14"><a xlink:title=" ">
<polygon fill="none" stroke="#bfbfbf" points="206.5,-475.5 206.5,-494.5 271.5,-494.5 271.5,-475.5 206.5,-475.5"/>
<text text-anchor="middle" x="239" y="-482.5" font-family="Helvetica,sans-Serif" font-size="10.00">function&lt;</text>
</a>
</g>
</g>
<!-- Node14&#45;&gt;Node4 -->
<g id="edge13" class="edge">
<title>Node14&#45;&gt;Node4</title>
<path fill="none" stroke="#9a32cd" stroke-dasharray="5,2" d="M269.73,-471.14C322.5,-446.36 428.33,-395.86 442,-383 479.25,-347.94 503.48,-289.76 512.04,-266.77"/>
<polygon fill="#9a32cd" stroke="#9a32cd" points="268.09,-468.04 260.52,-475.45 271.06,-474.38 268.09,-468.04"/>
<text text-anchor="middle" x="381.5" y="-482" font-family="Helvetica,sans-Serif" font-size="10.00"> custom_readable_fd</text>
<text text-anchor="middle" x="381.5" y="-471" font-family="Helvetica,sans-Serif" font-size="10.00">custom_readable_ready</text>
<text text-anchor="middle" x="381.5" y="-460" font-family="Helvetica,sans-Serif" font-size="10.00">custom_writeable_fd</text>
<text text-anchor="middle" x="381.5" y="-449" font-family="Helvetica,sans-Serif" font-size="10.00">custom_writeable_ready</text>
</g>
<!-- Node18 -->
<g id="node18" class="node">
<title>Node18</title>
<g id="a_node18"><a xlink:href="classdpp_1_1dispatcher.html" target="_top" xlink:title="The dispatcher class contains a set of std::functions representing hooked events that the user code i...">
<polygon fill="none" stroke="black" points="470.5,-516.5 470.5,-535.5 562.5,-535.5 562.5,-516.5 470.5,-516.5"/>
<text text-anchor="middle" x="516.5" y="-523.5" font-family="Helvetica,sans-Serif" font-size="10.00">dpp::dispatcher</text>
</a>
</g>
</g>
<!-- Node14&#45;&gt;Node18 -->
<g id="edge20" class="edge">
<title>Node14&#45;&gt;Node18</title>
<path fill="none" stroke="#9a32cd" stroke-dasharray="5,2" d="M281.57,-491.19C332.3,-498.74 417.76,-511.45 470.15,-519.25"/>
<polygon fill="#9a32cd" stroke="#9a32cd" points="282.01,-487.71 271.6,-489.7 280.98,-494.64 282.01,-487.71"/>
<text text-anchor="start" x="325.5" y="-661" font-family="Helvetica,sans-Serif" font-size="10.00"> application_command</text>
<text text-anchor="middle" x="381.5" y="-650" font-family="Helvetica,sans-Serif" font-size="10.00">_create</text>
<text text-anchor="start" x="325.5" y="-639" font-family="Helvetica,sans-Serif" font-size="10.00">application_command</text>
<text text-anchor="middle" x="381.5" y="-628" font-family="Helvetica,sans-Serif" font-size="10.00">_delete</text>
<text text-anchor="start" x="325.5" y="-617" font-family="Helvetica,sans-Serif" font-size="10.00">application_command</text>
<text text-anchor="middle" x="381.5" y="-606" font-family="Helvetica,sans-Serif" font-size="10.00">_update</text>
<text text-anchor="middle" x="381.5" y="-595" font-family="Helvetica,sans-Serif" font-size="10.00">button_click</text>
<text text-anchor="middle" x="381.5" y="-584" font-family="Helvetica,sans-Serif" font-size="10.00">channel_create</text>
<text text-anchor="middle" x="381.5" y="-573" font-family="Helvetica,sans-Serif" font-size="10.00">channel_delete</text>
<text text-anchor="middle" x="381.5" y="-562" font-family="Helvetica,sans-Serif" font-size="10.00">channel_pins_update</text>
<text text-anchor="middle" x="381.5" y="-551" font-family="Helvetica,sans-Serif" font-size="10.00">channel_update</text>
<text text-anchor="middle" x="381.5" y="-540" font-family="Helvetica,sans-Serif" font-size="10.00">guild_ban_add</text>
<text text-anchor="middle" x="381.5" y="-529" font-family="Helvetica,sans-Serif" font-size="10.00">guild_ban_remove</text>
<text text-anchor="middle" x="381.5" y="-518" font-family="Helvetica,sans-Serif" font-size="10.00">...</text>
</g>
<!-- Node15&#45;&gt;Node2 -->
<g id="edge14" class="edge">
<title>Node15&#45;&gt;Node2</title>
<path fill="none" stroke="#9a32cd" stroke-dasharray="5,2" d="M812.77,-517.78C864.16,-514.21 946.97,-508.45 1000.94,-504.69"/>
<polygon fill="#9a32cd" stroke="#9a32cd" points="812.35,-514.3 802.62,-518.49 812.84,-521.28 812.35,-514.3"/>
<text text-anchor="middle" x="914.5" y="-518" font-family="Helvetica,sans-Serif" font-size="10.00"> creator</text>
</g>
<!-- Node16 -->
<g id="node16" class="node">
<title>Node16</title>
<g id="a_node16"><a xlink:title=" ">
<polygon fill="none" stroke="#bfbfbf" points="211,-878.5 211,-897.5 267,-897.5 267,-878.5 211,-878.5"/>
<text text-anchor="middle" x="239" y="-885.5" font-family="Helvetica,sans-Serif" font-size="10.00">uint32_t</text>
</a>
</g>
</g>
<!-- Node16&#45;&gt;Node2 -->
<g id="edge32" class="edge">
<title>Node16&#45;&gt;Node2</title>
<path fill="none" stroke="#9a32cd" stroke-dasharray="5,2" d="M276.82,-898.91C285.43,-901.51 294.55,-904.32 303,-907 311.04,-909.55 312.68,-911.65 321,-913 431.62,-930.95 472.25,-953.08 573,-904 583.75,-898.76 582.32,-892.23 591,-884 753.56,-729.8 813.73,-713.81 983,-567 1005.38,-547.59 1030.54,-523.68 1044.09,-510.62"/>
<polygon fill="#9a32cd" stroke="#9a32cd" points="277.62,-895.49 267.03,-895.97 275.6,-902.2 277.62,-895.49"/>
<text text-anchor="middle" x="638" y="-942" font-family="Helvetica,sans-Serif" font-size="10.00"> heartbeat_interval</text>
<text text-anchor="middle" x="638" y="-931" font-family="Helvetica,sans-Serif" font-size="10.00">intents</text>
<text text-anchor="middle" x="638" y="-920" font-family="Helvetica,sans-Serif" font-size="10.00">max_shards</text>
<text text-anchor="middle" x="638" y="-909" font-family="Helvetica,sans-Serif" font-size="10.00">reconnects</text>
<text text-anchor="middle" x="638" y="-898" font-family="Helvetica,sans-Serif" font-size="10.00">resumes</text>
<text text-anchor="middle" x="638" y="-887" font-family="Helvetica,sans-Serif" font-size="10.00">shard_id</text>
</g>
<!-- Node16&#45;&gt;Node15 -->
<g id="edge17" class="edge">
<title>Node16&#45;&gt;Node15</title>
<path fill="none" stroke="#9a32cd" stroke-dasharray="5,2" d="M277,-898.83C319.73,-909.09 390.72,-919.03 442,-890 455.53,-882.34 448.9,-870.89 460,-860 542.73,-778.78 623.06,-826.01 685,-728 707.42,-692.52 676.5,-572.55 703,-540 709.35,-532.2 718.84,-527.54 728.47,-524.77"/>
<polygon fill="#9a32cd" stroke="#9a32cd" points="277.84,-895.44 267.29,-896.38 276.13,-902.22 277.84,-895.44"/>
<text text-anchor="middle" x="516.5" y="-896" font-family="Helvetica,sans-Serif" font-size="10.00"> cluster_id</text>
<text text-anchor="middle" x="516.5" y="-885" font-family="Helvetica,sans-Serif" font-size="10.00">intents</text>
<text text-anchor="middle" x="516.5" y="-874" font-family="Helvetica,sans-Serif" font-size="10.00">maxclusters</text>
<text text-anchor="middle" x="516.5" y="-863" font-family="Helvetica,sans-Serif" font-size="10.00">numshards</text>
</g>
<!-- Node16&#45;&gt;Node19 -->
<g id="edge28" class="edge">
<title>Node16&#45;&gt;Node19</title>
<path fill="none" stroke="#9a32cd" stroke-dasharray="5,2" d="M263.94,-873.03C279.65,-863.78 300.93,-852.32 321,-845 372.67,-826.15 390.73,-838.92 442,-819 464.32,-810.33 487.83,-795.41 502.08,-785.63"/>
<polygon fill="#9a32cd" stroke="#9a32cd" points="261.71,-870.29 254.94,-878.44 265.32,-876.28 261.71,-870.29"/>
<text text-anchor="middle" x="381.5" y="-848" font-family="Helvetica,sans-Serif" font-size="10.00"> flags</text>
</g>
<!-- Node17 -->
<g id="node17" class="node">
<title>Node17</title>
<g id="a_node17"><a xlink:title=" ">
<polygon fill="none" stroke="#bfbfbf" points="491.5,-426.5 491.5,-445.5 541.5,-445.5 541.5,-426.5 491.5,-426.5"/>
<text text-anchor="middle" x="516.5" y="-433.5" font-family="Helvetica,sans-Serif" font-size="10.00">double</text>
</a>
</g>
</g>
<!-- Node17&#45;&gt;Node2 -->
<g id="edge38" class="edge">
<title>Node17&#45;&gt;Node2</title>
<path fill="none" stroke="#9a32cd" stroke-dasharray="5,2" d="M551.87,-435.3C629.82,-434.51 825.47,-436.96 983,-476 999.11,-479.99 1016.71,-486.18 1030.36,-491.39"/>
<polygon fill="#9a32cd" stroke="#9a32cd" points="551.62,-431.81 541.67,-435.43 551.71,-438.81 551.62,-431.81"/>
<text text-anchor="middle" x="765.5" y="-451" font-family="Helvetica,sans-Serif" font-size="10.00"> websocket_ping</text>
</g>
<!-- Node17&#45;&gt;Node15 -->
<g id="edge18" class="edge">
<title>Node17&#45;&gt;Node15</title>
<path fill="none" stroke="#9a32cd" stroke-dasharray="5,2" d="M551.62,-441.14C597.43,-448.27 674.36,-461.19 685,-469 698.47,-478.88 690.07,-491.42 703,-502 710.27,-507.94 719.39,-512.03 728.36,-514.84"/>
<polygon fill="#9a32cd" stroke="#9a32cd" points="551.94,-437.64 541.52,-439.58 550.87,-444.56 551.94,-437.64"/>
<text text-anchor="middle" x="638" y="-472" font-family="Helvetica,sans-Serif" font-size="10.00"> rest_ping</text>
</g>
<!-- Node18&#45;&gt;Node15 -->
<g id="edge19" class="edge">
<title>Node18&#45;&gt;Node15</title>
<path fill="none" stroke="#9a32cd" stroke-dasharray="5,2" d="M572.63,-524.88C620.1,-523.92 687.25,-522.56 728.22,-521.73"/>
<polygon fill="#9a32cd" stroke="#9a32cd" points="572.44,-521.39 562.52,-525.09 572.59,-528.39 572.44,-521.39"/>
<text text-anchor="middle" x="638" y="-527" font-family="Helvetica,sans-Serif" font-size="10.00"> dispatch</text>
</g>
<!-- Node19&#45;&gt;Node15 -->
<g id="edge21" class="edge">
<title>Node19&#45;&gt;Node15</title>
<path fill="none" stroke="#9a32cd" stroke-dasharray="5,2" d="M538.91,-760.17C574.61,-732.63 646.18,-672.39 685,-605 699.96,-579.03 682.12,-561.51 703,-540 709.77,-533.02 719.04,-528.6 728.34,-525.79"/>
<polygon fill="#9a32cd" stroke="#9a32cd" points="536.49,-757.61 530.65,-766.45 540.73,-763.18 536.49,-757.61"/>
<text text-anchor="middle" x="638" y="-716" font-family="Helvetica,sans-Serif" font-size="10.00"> me</text>
</g>
<!-- Node20&#45;&gt;Node19 -->
<g id="edge22" class="edge">
<title>Node20&#45;&gt;Node19</title>
<path fill="none" stroke="midnightblue" d="M292.06,-745.18C349.14,-753.05 438.79,-765.42 485.28,-771.83"/>
<polygon fill="midnightblue" stroke="midnightblue" points="292.53,-741.71 282.14,-743.81 291.57,-748.65 292.53,-741.71"/>
</g>
<!-- Node21 -->
<g id="node21" class="node">
<title>Node21</title>
<g id="a_node21"><a xlink:title=" ">
<polygon fill="none" stroke="#bfbfbf" points="211,-766.5 211,-785.5 267,-785.5 267,-766.5 211,-766.5"/>
<text text-anchor="middle" x="239" y="-773.5" font-family="Helvetica,sans-Serif" font-size="10.00">uint16_t</text>
</a>
</g>
</g>
<!-- Node21&#45;&gt;Node19 -->
<g id="edge25" class="edge">
<title>Node21&#45;&gt;Node19</title>
<path fill="none" stroke="#9a32cd" stroke-dasharray="5,2" d="M277.2,-776C332.27,-776 434.42,-776 485.21,-776"/>
<polygon fill="#9a32cd" stroke="#9a32cd" points="277.17,-772.5 267.17,-776 277.17,-779.5 277.17,-772.5"/>
<text text-anchor="middle" x="381.5" y="-779" font-family="Helvetica,sans-Serif" font-size="10.00"> discriminator</text>
</g>
<!-- Node22&#45;&gt;Node19 -->
<g id="edge26" class="edge">
<title>Node22&#45;&gt;Node19</title>
<path fill="none" stroke="#9a32cd" stroke-dasharray="5,2" d="M308.38,-805.78C347.54,-800.93 397.58,-794.48 442,-788 456.33,-785.91 472.19,-783.35 485.5,-781.13"/>
<polygon fill="#9a32cd" stroke="#9a32cd" points="307.91,-802.31 298.41,-807.01 308.77,-809.26 307.91,-802.31"/>
<text text-anchor="middle" x="381.5" y="-807" font-family="Helvetica,sans-Serif" font-size="10.00"> avatar</text>
</g>
<!-- Node23 -->
<g id="node23" class="node">
<title>Node23</title>
<g id="a_node23"><a xlink:title=" ">
<polygon fill="none" stroke="#bfbfbf" points="214,-916.5 214,-935.5 264,-935.5 264,-916.5 214,-916.5"/>
<text text-anchor="middle" x="239" y="-923.5" font-family="Helvetica,sans-Serif" font-size="10.00">uint8_t</text>
</a>
</g>
</g>
<!-- Node23&#45;&gt;Node1 -->
<g id="edge43" class="edge">
<title>Node23&#45;&gt;Node1</title>
<path fill="none" stroke="#9a32cd" stroke-dasharray="5,2" d="M268.52,-939.91C317.7,-962.59 422.17,-1005 515.5,-1005 515.5,-1005 515.5,-1005 1056,-1005 1129.12,-1005 1193.31,-928.29 1214.01,-900.72"/>
<polygon fill="#9a32cd" stroke="#9a32cd" points="269.7,-936.6 259.16,-935.53 266.73,-942.94 269.7,-936.6"/>
<text text-anchor="middle" x="765.5" y="-1008" font-family="Helvetica,sans-Serif" font-size="10.00"> flags</text>
</g>
<!-- Node23&#45;&gt;Node19 -->
<g id="edge29" class="edge">
<title>Node23&#45;&gt;Node19</title>
<path fill="none" stroke="#9a32cd" stroke-dasharray="5,2" d="M274.35,-921.84C317.85,-914.99 393.04,-897.66 442,-856 454.43,-845.43 449.68,-836.64 460,-824 472.41,-808.81 489.98,-794.52 502,-785.55"/>
<polygon fill="#9a32cd" stroke="#9a32cd" points="273.65,-918.41 264.26,-923.33 274.67,-925.34 273.65,-918.41"/>
<text text-anchor="middle" x="381.5" y="-914" font-family="Helvetica,sans-Serif" font-size="10.00"> refcount</text>
</g>
<!-- Node24 -->
<g id="node24" class="node">
<title>Node24</title>
<g id="a_node24"><a xlink:href="structdpp_1_1cache__policy__t.html" target="_top" xlink:title="Represents the caching policy of the cluster.">
<polygon fill="none" stroke="black" points="460,-620.5 460,-639.5 573,-639.5 573,-620.5 460,-620.5"/>
<text text-anchor="middle" x="516.5" y="-627.5" font-family="Helvetica,sans-Serif" font-size="10.00">dpp::cache_policy_t</text>
</a>
</g>
</g>
<!-- Node24&#45;&gt;Node15 -->
<g id="edge30" class="edge">
<title>Node24&#45;&gt;Node15</title>
<path fill="none" stroke="#9a32cd" stroke-dasharray="5,2" d="M544.21,-615.44C579.75,-596.44 644.87,-562.93 703,-540 711.73,-536.56 721.36,-533.33 730.34,-530.54"/>
<polygon fill="#9a32cd" stroke="#9a32cd" points="542.15,-612.57 535,-620.39 545.47,-618.74 542.15,-612.57"/>
<text text-anchor="middle" x="638" y="-593" font-family="Helvetica,sans-Serif" font-size="10.00"> cache_policy</text>
</g>
<!-- Node25 -->
<g id="node25" class="node">
<title>Node25</title>
<g id="a_node25"><a xlink:title=" ">
<polygon fill="none" stroke="#bfbfbf" points="175,-685.5 175,-704.5 303,-704.5 303,-685.5 175,-685.5"/>
<text text-anchor="middle" x="239" y="-692.5" font-family="Helvetica,sans-Serif" font-size="10.00">cache_policy_setting_t</text>
</a>
</g>
</g>
<!-- Node25&#45;&gt;Node24 -->
<g id="edge31" class="edge">
<title>Node25&#45;&gt;Node24</title>
<path fill="none" stroke="#9a32cd" stroke-dasharray="5,2" d="M313.54,-694.37C352.55,-692.22 400.79,-686.61 442,-673 465.16,-665.35 489,-649.7 503.02,-639.54"/>
<polygon fill="#9a32cd" stroke="#9a32cd" points="313.14,-690.89 303.32,-694.87 313.48,-697.88 313.14,-690.89"/>
<text text-anchor="middle" x="381.5" y="-718" font-family="Helvetica,sans-Serif" font-size="10.00"> emoji_policy</text>
<text text-anchor="middle" x="381.5" y="-707" font-family="Helvetica,sans-Serif" font-size="10.00">role_policy</text>
<text text-anchor="middle" x="381.5" y="-696" font-family="Helvetica,sans-Serif" font-size="10.00">user_policy</text>
</g>
<!-- Node26 -->
<g id="node26" class="node">
<title>Node26</title>
<g id="a_node26"><a xlink:title=" ">
<polygon fill="none" stroke="#bfbfbf" points="709,-911.5 709,-930.5 822,-930.5 822,-911.5 709,-911.5"/>
<text text-anchor="middle" x="765.5" y="-918.5" font-family="Helvetica,sans-Serif" font-size="10.00">native_handle_type</text>
</a>
</g>
</g>
<!-- Node26&#45;&gt;Node2 -->
<g id="edge34" class="edge">
<title>Node26&#45;&gt;Node2</title>
<path fill="none" stroke="#9a32cd" stroke-dasharray="5,2" d="M832.18,-922.08C887.78,-921.53 961.74,-916.88 983,-897 1041.67,-842.14 1052.23,-566.21 1053.77,-510.73"/>
<polygon fill="#9a32cd" stroke="#9a32cd" points="832.01,-918.58 822.03,-922.13 832.05,-925.58 832.01,-918.58"/>
<text text-anchor="middle" x="914.5" y="-924" font-family="Helvetica,sans-Serif" font-size="10.00"> thread_id</text>
</g>
<!-- Node27 -->
<g id="node27" class="node">
<title>Node27</title>
<g id="a_node27"><a xlink:title=" ">
<polygon fill="none" stroke="#bfbfbf" points="731,-549.5 731,-568.5 800,-568.5 800,-549.5 731,-549.5"/>
<text text-anchor="middle" x="765.5" y="-556.5" font-family="Helvetica,sans-Serif" font-size="10.00">std::mutex</text>
</a>
</g>
</g>
<!-- Node27&#45;&gt;Node2 -->
<g id="edge37" class="edge">
<title>Node27&#45;&gt;Node2</title>
<path fill="none" stroke="#9a32cd" stroke-dasharray="5,2" d="M810.14,-556.43C854.32,-553.06 924.31,-545.64 983,-530 1001.01,-525.2 1020.56,-516.98 1034.57,-510.51"/>
<polygon fill="#9a32cd" stroke="#9a32cd" points="809.75,-552.95 800.03,-557.16 810.25,-559.93 809.75,-552.95"/>
<text text-anchor="middle" x="914.5" y="-555" font-family="Helvetica,sans-Serif" font-size="10.00"> voice_mutex</text>
</g>
<!-- Node28 -->
<g id="node28" class="node">
<title>Node28</title>
<g id="a_node28"><a xlink:title=" ">
<polygon fill="none" stroke="#bfbfbf" points="715,-473.5 715,-492.5 816,-492.5 816,-473.5 715,-473.5"/>
<text text-anchor="middle" x="765.5" y="-480.5" font-family="Helvetica,sans-Serif" font-size="10.00">unordered_map&lt;</text>
</a>
</g>
</g>
<!-- Node28&#45;&gt;Node2 -->
<g id="edge40" class="edge">
<title>Node28&#45;&gt;Node2</title>
<path fill="none" stroke="#9a32cd" stroke-dasharray="5,2" d="M826.26,-480.72C869.84,-479.81 930.26,-480.12 983,-486 993.64,-487.19 1005.05,-489.24 1015.53,-491.45"/>
<polygon fill="#9a32cd" stroke="#9a32cd" points="826.03,-477.22 816.11,-480.96 826.19,-484.22 826.03,-477.22"/>
<text text-anchor="middle" x="914.5" y="-489" font-family="Helvetica,sans-Serif" font-size="10.00"> connecting_voice_channels</text>
</g>
</g>
</svg>
        <g id="navigator" transform="translate(0 0)" fill="#404254">
                <rect fill="#f2f5e9" fill-opacity="0.5" stroke="#606060" stroke-width=".5" x="0" y="0" width="60" height="60"/>
                <use id="zoomplus" xlink:href="#zoomPlus" x="17" y="9" onmousedown="handleZoom(evt,'in')"/>
                <use id="zoomminus" xlink:href="#zoomMin" x="42" y="9" onmousedown="handleZoom(evt,'out')"/>
                <use id="reset" xlink:href="#resetDef" x="30" y="36" onmousedown="handleReset()"/>
                <g id="arrowUp" xlink:href="#dirArrow" transform="translate(30 24)" onmousedown="handlePan(0,-1)">
                  <use xlink:href="#rim" fill="#404040">
                        <set attributeName="fill" to="#808080" begin="arrowUp.mouseover" end="arrowUp.mouseout"/>
                  </use>
                  <path fill="none" stroke="white" stroke-width="1.5" d="M0,-3.0v7 M-2.5,-0.5L0,-3.0L2.5,-0.5"/>
                </g>
                <g id="arrowRight" xlink:href="#dirArrow" transform="rotate(90) translate(36 -43)" onmousedown="handlePan(1,0)">
                  <use xlink:href="#rim" fill="#404040">
                        <set attributeName="fill" to="#808080" begin="arrowRight.mouseover" end="arrowRight.mouseout"/>
                  </use>
                  <path fill="none" stroke="white" stroke-width="1.5" d="M0,-3.0v7 M-2.5,-0.5L0,-3.0L2.5,-0.5"/>
                </g>
                <g id="arrowDown" xlink:href="#dirArrow" transform="rotate(180) translate(-30 -48)" onmousedown="handlePan(0,1)">
                  <use xlink:href="#rim" fill="#404040">
                        <set attributeName="fill" to="#808080" begin="arrowDown.mouseover" end="arrowDown.mouseout"/>
                  </use>
                  <path fill="none" stroke="white" stroke-width="1.5" d="M0,-3.0v7 M-2.5,-0.5L0,-3.0L2.5,-0.5"/>
                </g>
                <g id="arrowLeft" xlink:href="#dirArrow" transform="rotate(270) translate(-36 17)" onmousedown="handlePan(-1,0)">
                  <use xlink:href="#rim" fill="#404040">
                        <set attributeName="fill" to="#808080" begin="arrowLeft.mouseover" end="arrowLeft.mouseout"/>
                  </use>
                  <path fill="none" stroke="white" stroke-width="1.5" d="M0,-3.0v7 M-2.5,-0.5L0,-3.0L2.5,-0.5"/>
                </g>
        </g>
        <svg viewBox="0 0 15 15" width="100%" height="30px" preserveAspectRatio="xMaxYMin meet">
         <g id="arrow_out" transform="scale(0.3 0.3)">
          <a xlink:href="classdpp_1_1voicestate__coll__graph_org.svg" target="_base">
           <rect id="button" ry="5" rx="5" y="6" x="6" height="38" width="38"
                fill="#f2f5e9" fill-opacity="0.5" stroke="#606060" stroke-width="1.0"/>
           <path id="arrow"
             d="M 11.500037,31.436501 C 11.940474,20.09759 22.043105,11.32322 32.158766,21.979434 L 37.068811,17.246167 C 37.068811,17.246167 37.088388,32 37.088388,32 L 22.160133,31.978069 C 22.160133,31.978069 26.997745,27.140456 26.997745,27.140456 C 18.528582,18.264221 13.291696,25.230495 11.500037,31.436501 z"
             style="fill:#404040;"/>
          </a>
         </g>
        </svg>
</svg>
