<?xml version="1.0" encoding="UTF-8" standalone="no"?>
<!DOCTYPE svg PUBLIC "-//W3C//DTD SVG 1.1//EN"
 "http://www.w3.org/Graphics/SVG/1.1/DTD/svg11.dtd">
<!-- Generated by graphviz version 2.38.0 (20140413.2041)
 -->
<!-- Title: dpp::voice_track_marker_t Pages: 1 -->
<!--zoomable 1205 -->
<svg id="main" version="1.1" xmlns="http://www.w3.org/2000/svg" xmlns:xlink="http://www.w3.org/1999/xlink" xml:space="preserve" onload="init(evt)">
<style type="text/css"><![CDATA[
.edge:hover path { stroke: red; }
.edge:hover polygon { stroke: red; fill: red; }
]]></style>
<script type="text/javascript"><![CDATA[
var edges = document.getElementsByTagName('g');
if (edges && edges.length) {
  for (var i=0;i<edges.length;i++) {
    if (edges[i].id.substr(0,4)=='edge') {
      edges[i].setAttribute('class','edge');
    }
  }
}
]]></script>
        <defs>
                <circle id="rim" cx="0" cy="0" r="7"/>
                <circle id="rim2" cx="0" cy="0" r="3.5"/>
                <g id="zoomPlus">
                        <use xlink:href="#rim" fill="#404040">
                                <set attributeName="fill" to="#808080" begin="zoomplus.mouseover" end="zoomplus.mouseout"/>
                        </use>
                        <path d="M-4,0h8M0,-4v8" fill="none" stroke="white" stroke-width="1.5" pointer-events="none"/>
                </g>
                <g id="zoomMin">
                        <use xlink:href="#rim" fill="#404040">
                                <set attributeName="fill" to="#808080" begin="zoomminus.mouseover" end="zoomminus.mouseout"/>
                        </use>
                        <path d="M-4,0h8" fill="none" stroke="white" stroke-width="1.5" pointer-events="none"/>
                </g>
                <g id="dirArrow">
                        <path fill="none" stroke="white" stroke-width="1.5" d="M0,-3.0v7 M-2.5,-0.5L0,-3.0L2.5,-0.5"/>
                </g>
               <g id="resetDef">
                       <use xlink:href="#rim2" fill="#404040">
                               <set attributeName="fill" to="#808080" begin="reset.mouseover" end="reset.mouseout"/>
                       </use>
               </g>
        </defs>

<script type="text/javascript">
var viewWidth = 1370;
var viewHeight = 1205;
var sectionId = 'dynsection-1';
</script>
<script xlink:href="svgpan.js"/>
<svg id="graph" class="graph">
<g id="viewport">
<title>dpp::voice_track_marker_t</title>
<polygon fill="white" stroke="none" points="-4,4 -4,-1201 1366,-1201 1366,4 -4,4"/>
<!-- Node1 -->
<g id="node1" class="node"><title>Node1</title>
<g id="a_node1"><a xlink:title="Voice state update.">
<polygon fill="#bfbfbf" stroke="black" points="1230,-134.5 1230,-153.5 1362,-153.5 1362,-134.5 1230,-134.5"/>
<text text-anchor="middle" x="1296" y="-141.5" font-family="Helvetica,sans-Serif" font-size="10.00">dpp::voice_track_marker_t</text>
</a>
</g>
</g>
<!-- Node2 -->
<g id="node2" class="node"><title>Node2</title>
<g id="a_node2"><a xlink:href="structdpp_1_1event__dispatch__t.html" target="_top" xlink:title="Base event parameter struct.">
<polygon fill="white" stroke="black" points="1080,-134.5 1080,-153.5 1193,-153.5 1193,-134.5 1080,-134.5"/>
<text text-anchor="middle" x="1136.5" y="-141.5" font-family="Helvetica,sans-Serif" font-size="10.00">dpp::event_dispatch_t</text>
</a>
</g>
</g>
<!-- Node2&#45;&gt;Node1 -->
<g id="edge1" class="edge"><title>Node2&#45;&gt;Node1</title>
<path fill="none" stroke="midnightblue" d="M1203.2,-144C1211.97,-144 1220.97,-144 1229.73,-144"/>
<polygon fill="midnightblue" stroke="midnightblue" points="1203.03,-140.5 1193.03,-144 1203.03,-147.5 1203.03,-140.5"/>
</g>
<!-- Node3 -->
<g id="node3" class="node"><title>Node3</title>
<g id="a_node3"><a xlink:title=" ">
<polygon fill="white" stroke="#bfbfbf" points="191,-82.5 191,-101.5 251,-101.5 251,-82.5 191,-82.5"/>
<text text-anchor="middle" x="221" y="-89.5" font-family="Helvetica,sans-Serif" font-size="10.00">std::string</text>
</a>
</g>
</g>
<!-- Node3&#45;&gt;Node1 -->
<g id="edge52" class="edge"><title>Node3&#45;&gt;Node1</title>
<path fill="none" stroke="#9a32cd" stroke-dasharray="5,2" d="M243.785,-76.7084C258.31,-67.0826 278.132,-55.0084 297,-47 371.133,-15.5348 391.466,-0 472,-0 472,-0 472,-0 1137.5,-0 1217.16,-0 1274.11,-101.569 1290.3,-134.102"/>
<polygon fill="#9a32cd" stroke="#9a32cd" points="241.802,-73.8241 235.482,-82.3272 245.725,-79.6214 241.802,-73.8241"/>
<text text-anchor="middle" x="843" y="-3" font-family="Helvetica,sans-Serif" font-size="10.00"> track_meta</text>
</g>
<!-- Node3&#45;&gt;Node2 -->
<g id="edge2" class="edge"><title>Node3&#45;&gt;Node2</title>
<path fill="none" stroke="#9a32cd" stroke-dasharray="5,2" d="M261.153,-80.229C310.024,-66.5999 396.397,-46 472,-46 472,-46 472,-46 973,-46 1040.87,-46 1104.73,-109.457 1127.09,-134.245"/>
<polygon fill="#9a32cd" stroke="#9a32cd" points="259.976,-76.9247 251.311,-83.0215 261.887,-83.6589 259.976,-76.9247"/>
<text text-anchor="middle" x="706" y="-49" font-family="Helvetica,sans-Serif" font-size="10.00"> raw_event</text>
</g>
<!-- Node5 -->
<g id="node5" class="node"><title>Node5</title>
<g id="a_node5"><a xlink:href="classdpp_1_1discord__client.html" target="_top" xlink:title="Implements a discord client. Each discord_client connects to one shard and derives from a websocket c...">
<polygon fill="white" stroke="black" points="923,-415.5 923,-434.5 1021,-434.5 1021,-415.5 923,-415.5"/>
<text text-anchor="middle" x="972" y="-422.5" font-family="Helvetica,sans-Serif" font-size="10.00">dpp::discord_client</text>
</a>
</g>
</g>
<!-- Node3&#45;&gt;Node5 -->
<g id="edge38" class="edge"><title>Node3&#45;&gt;Node5</title>
<path fill="none" stroke="#9a32cd" stroke-dasharray="5,2" d="M261.253,-87.2123C391.876,-72.1899 809.052,-31.8057 905,-116 951.695,-156.975 967.427,-367.332 970.433,-415.268"/>
<polygon fill="#9a32cd" stroke="#9a32cd" points="260.811,-83.7401 251.283,-88.374 261.621,-90.693 260.811,-83.7401"/>
<text text-anchor="middle" x="587" y="-80" font-family="Helvetica,sans-Serif" font-size="10.00"> sessionid</text>
<text text-anchor="middle" x="587" y="-69" font-family="Helvetica,sans-Serif" font-size="10.00">token</text>
</g>
<!-- Node7 -->
<g id="node7" class="node"><title>Node7</title>
<g id="a_node7"><a xlink:href="classdpp_1_1ssl__client.html" target="_top" xlink:title="Implements a simple non&#45;blocking SSL stream client.">
<polygon fill="white" stroke="black" points="433,-927.5 433,-946.5 513,-946.5 513,-927.5 433,-927.5"/>
<text text-anchor="middle" x="473" y="-934.5" font-family="Helvetica,sans-Serif" font-size="10.00">dpp::ssl_client</text>
</a>
</g>
</g>
<!-- Node3&#45;&gt;Node7 -->
<g id="edge7" class="edge"><title>Node3&#45;&gt;Node7</title>
<path fill="none" stroke="#9a32cd" stroke-dasharray="5,2" d="M234.458,-110.131C247.895,-130.686 268.739,-165.682 279,-199 300.841,-269.923 263.636,-298.713 297,-365 325.846,-422.31 375.383,-405.088 403,-463 429.361,-518.278 411.357,-677.522 421,-738 432.794,-811.962 459.557,-898.49 468.794,-927.198"/>
<polygon fill="#9a32cd" stroke="#9a32cd" points="237.333,-108.134 228.87,-101.761 231.511,-112.021 237.333,-108.134"/>
<text text-anchor="middle" x="350" y="-510" font-family="Helvetica,sans-Serif" font-size="10.00"> buffer</text>
<text text-anchor="middle" x="350" y="-499" font-family="Helvetica,sans-Serif" font-size="10.00">cipher</text>
<text text-anchor="middle" x="350" y="-488" font-family="Helvetica,sans-Serif" font-size="10.00">hostname</text>
<text text-anchor="middle" x="350" y="-477" font-family="Helvetica,sans-Serif" font-size="10.00">obuffer</text>
<text text-anchor="middle" x="350" y="-466" font-family="Helvetica,sans-Serif" font-size="10.00">port</text>
</g>
<!-- Node16 -->
<g id="node16" class="node"><title>Node16</title>
<g id="a_node16"><a xlink:href="classdpp_1_1cluster.html" target="_top" xlink:title="The cluster class represents a group of shards and a command queue for sending and receiving commands...">
<polygon fill="white" stroke="black" points="672,-586.5 672,-605.5 740,-605.5 740,-586.5 672,-586.5"/>
<text text-anchor="middle" x="706" y="-593.5" font-family="Helvetica,sans-Serif" font-size="10.00">dpp::cluster</text>
</a>
</g>
</g>
<!-- Node3&#45;&gt;Node16 -->
<g id="edge17" class="edge"><title>Node3&#45;&gt;Node16</title>
<path fill="none" stroke="#9a32cd" stroke-dasharray="5,2" d="M258.389,-105.01C304.095,-121.769 379.4,-150.892 403,-169 413.298,-176.902 411.44,-183.22 421,-192 461.674,-229.357 496.375,-212.772 525,-260 546.18,-294.945 517.293,-411.236 543,-443 568.82,-474.904 599.659,-444.499 631,-471 644.357,-482.294 640.372,-490.784 649,-506 665.974,-535.936 688.031,-570.16 698.688,-586.434"/>
<polygon fill="#9a32cd" stroke="#9a32cd" points="259.432,-101.665 248.838,-101.53 257.036,-108.242 259.432,-101.665"/>
<text text-anchor="middle" x="473" y="-263" font-family="Helvetica,sans-Serif" font-size="10.00"> token</text>
</g>
<!-- Node20 -->
<g id="node20" class="node"><title>Node20</title>
<g id="a_node20"><a xlink:href="classdpp_1_1user.html" target="_top" xlink:title="Represents a user on discord. May or may not be a member of a dpp::guild.">
<polygon fill="white" stroke="black" points="444.5,-280.5 444.5,-299.5 501.5,-299.5 501.5,-280.5 444.5,-280.5"/>
<text text-anchor="middle" x="473" y="-287.5" font-family="Helvetica,sans-Serif" font-size="10.00">dpp::user</text>
</a>
</g>
</g>
<!-- Node3&#45;&gt;Node20 -->
<g id="edge26" class="edge"><title>Node3&#45;&gt;Node20</title>
<path fill="none" stroke="#9a32cd" stroke-dasharray="5,2" d="M236.295,-109.656C250.328,-126.054 273.058,-150.244 297,-166 339.469,-193.948 366.215,-173.906 403,-209 416.813,-222.178 409.339,-232.885 421,-248 431.09,-261.077 445.965,-272.732 457.05,-280.426"/>
<polygon fill="#9a32cd" stroke="#9a32cd" points="238.889,-107.303 229.789,-101.877 233.52,-111.794 238.889,-107.303"/>
<text text-anchor="middle" x="350" y="-212" font-family="Helvetica,sans-Serif" font-size="10.00"> username</text>
</g>
<!-- Node30 -->
<g id="node30" class="node"><title>Node30</title>
<g id="a_node30"><a xlink:href="classdpp_1_1discord__voice__client.html" target="_top" xlink:title="Implements a discord voice connection. Each discord_voice_client connects to one voice channel and de...">
<polygon fill="white" stroke="black" points="923,-655 923,-685 1021,-685 1021,-655 923,-655"/>
<text text-anchor="start" x="931" y="-673" font-family="Helvetica,sans-Serif" font-size="10.00">dpp::discord_voice</text>
<text text-anchor="middle" x="972" y="-662" font-family="Helvetica,sans-Serif" font-size="10.00">_client</text>
</a>
</g>
</g>
<!-- Node3&#45;&gt;Node30 -->
<g id="edge50" class="edge"><title>Node3&#45;&gt;Node30</title>
<path fill="none" stroke="#9a32cd" stroke-dasharray="5,2" d="M261.224,-94.2231C307.179,-97.4472 379.977,-104.672 403,-119 414.933,-126.426 410.204,-136.001 421,-145 459.963,-177.477 495.662,-150.622 525,-192 551.578,-229.486 512.608,-363.533 543,-398 569.463,-428.011 600.532,-391.064 631,-417 647.717,-431.231 633.381,-447.572 649,-463 687.525,-501.055 726.635,-465.876 763,-506 783.706,-528.847 758.762,-551.642 781,-573 821.749,-612.136 855.825,-573.18 905,-601 928.662,-614.387 949.093,-638.939 960.723,-654.858"/>
<polygon fill="#9a32cd" stroke="#9a32cd" points="261.221,-90.7152 251.01,-93.541 260.754,-97.6996 261.221,-90.7152"/>
<text text-anchor="middle" x="587" y="-431" font-family="Helvetica,sans-Serif" font-size="10.00"> sessionid</text>
<text text-anchor="middle" x="587" y="-420" font-family="Helvetica,sans-Serif" font-size="10.00">token</text>
</g>
<!-- Node4 -->
<g id="node4" class="node"><title>Node4</title>
<g id="a_node4"><a xlink:title=" ">
<polygon fill="white" stroke="#bfbfbf" points="0,-77 0,-107 95,-107 95,-77 0,-77"/>
<text text-anchor="start" x="8" y="-95" font-family="Helvetica,sans-Serif" font-size="10.00">std::basic_string&lt;</text>
<text text-anchor="middle" x="47.5" y="-84" font-family="Helvetica,sans-Serif" font-size="10.00"> Char &gt;</text>
</a>
</g>
</g>
<!-- Node4&#45;&gt;Node3 -->
<g id="edge3" class="edge"><title>Node4&#45;&gt;Node3</title>
<path fill="none" stroke="midnightblue" d="M105.658,-92C134.266,-92 167.668,-92 190.956,-92"/>
<polygon fill="midnightblue" stroke="midnightblue" points="105.363,-88.5001 95.3631,-92 105.363,-95.5001 105.363,-88.5001"/>
</g>
<!-- Node5&#45;&gt;Node2 -->
<g id="edge4" class="edge"><title>Node5&#45;&gt;Node2</title>
<path fill="none" stroke="#9a32cd" stroke-dasharray="5,2" d="M983.744,-406.42C1015.21,-352.002 1106.44,-194.255 1129.93,-153.632"/>
<polygon fill="#9a32cd" stroke="#9a32cd" points="980.57,-404.918 978.594,-415.327 986.63,-408.423 980.57,-404.918"/>
<text text-anchor="middle" x="1050.5" y="-313" font-family="Helvetica,sans-Serif" font-size="10.00"> from</text>
</g>
<!-- Node6 -->
<g id="node6" class="node"><title>Node6</title>
<g id="a_node6"><a xlink:href="classdpp_1_1websocket__client.html" target="_top" xlink:title="Implements a websocket client based on the SSL client.">
<polygon fill="white" stroke="black" points="649,-927.5 649,-946.5 763,-946.5 763,-927.5 649,-927.5"/>
<text text-anchor="middle" x="706" y="-934.5" font-family="Helvetica,sans-Serif" font-size="10.00">dpp::websocket_client</text>
</a>
</g>
</g>
<!-- Node6&#45;&gt;Node5 -->
<g id="edge5" class="edge"><title>Node6&#45;&gt;Node5</title>
<path fill="none" stroke="midnightblue" d="M713.578,-917.876C724.949,-884.26 748.455,-812.236 763,-750 773.875,-703.468 753.286,-682.928 781,-644 817.454,-592.797 862.589,-622.389 905,-576 944.961,-532.291 963.45,-460.54 969.064,-434.674"/>
<polygon fill="midnightblue" stroke="midnightblue" points="710.253,-916.785 710.34,-927.379 716.878,-919.043 710.253,-916.785"/>
</g>
<!-- Node6&#45;&gt;Node30 -->
<g id="edge44" class="edge"><title>Node6&#45;&gt;Node30</title>
<path fill="none" stroke="midnightblue" d="M773.145,-938.243C815.877,-935.51 869.866,-924.905 905,-892 965.75,-835.104 971.408,-725.071 971.349,-685.033"/>
<polygon fill="midnightblue" stroke="midnightblue" points="772.909,-934.75 763.101,-938.756 773.266,-941.741 772.909,-934.75"/>
</g>
<!-- Node7&#45;&gt;Node6 -->
<g id="edge6" class="edge"><title>Node7&#45;&gt;Node6</title>
<path fill="none" stroke="midnightblue" d="M523.651,-937C560.391,-937 610.478,-937 648.706,-937"/>
<polygon fill="midnightblue" stroke="midnightblue" points="523.186,-933.5 513.186,-937 523.186,-940.5 523.186,-933.5"/>
</g>
<!-- Node8 -->
<g id="node8" class="node"><title>Node8</title>
<g id="a_node8"><a xlink:title=" ">
<polygon fill="white" stroke="#bfbfbf" points="203.5,-1020.5 203.5,-1039.5 238.5,-1039.5 238.5,-1020.5 203.5,-1020.5"/>
<text text-anchor="middle" x="221" y="-1027.5" font-family="Helvetica,sans-Serif" font-size="10.00">bool</text>
</a>
</g>
</g>
<!-- Node8&#45;&gt;Node5 -->
<g id="edge41" class="edge"><title>Node8&#45;&gt;Node5</title>
<path fill="none" stroke="#9a32cd" stroke-dasharray="5,2" d="M248.882,-1029.59C346.274,-1027.62 679.313,-1016.49 763,-956 872.883,-876.573 856.486,-812.607 905,-686 941.291,-591.292 963.48,-469.61 969.398,-434.733"/>
<polygon fill="#9a32cd" stroke="#9a32cd" points="248.632,-1026.09 238.699,-1029.78 248.763,-1033.09 248.632,-1026.09"/>
<text text-anchor="middle" x="587" y="-1013" font-family="Helvetica,sans-Serif" font-size="10.00"> ready</text>
</g>
<!-- Node8&#45;&gt;Node7 -->
<g id="edge8" class="edge"><title>Node8&#45;&gt;Node7</title>
<path fill="none" stroke="#9a32cd" stroke-dasharray="5,2" d="M248.193,-1020.5C262.501,-1015.5 280.597,-1009.5 297,-1005 343.49,-992.248 358.519,-1000.59 403,-982 424.641,-972.957 446.872,-957.033 460.056,-946.755"/>
<polygon fill="#9a32cd" stroke="#9a32cd" points="246.782,-1017.28 238.523,-1023.92 249.118,-1023.88 246.782,-1017.28"/>
<text text-anchor="middle" x="350" y="-1008" font-family="Helvetica,sans-Serif" font-size="10.00"> nonblocking</text>
</g>
<!-- Node8&#45;&gt;Node30 -->
<g id="edge46" class="edge"><title>Node8&#45;&gt;Node30</title>
<path fill="none" stroke="#9a32cd" stroke-dasharray="5,2" d="M248.736,-1034.99C329.115,-1048.86 574.646,-1082.93 763,-1021 834.667,-997.436 861.123,-989.37 905,-928 961.066,-849.583 969.586,-727.76 970.817,-685.252"/>
<polygon fill="#9a32cd" stroke="#9a32cd" points="248.97,-1031.48 238.513,-1033.18 247.749,-1038.37 248.97,-1031.48"/>
<text text-anchor="middle" x="587" y="-1081" font-family="Helvetica,sans-Serif" font-size="10.00"> decode_voice_recv</text>
<text text-anchor="middle" x="587" y="-1070" font-family="Helvetica,sans-Serif" font-size="10.00">sodium_initialised</text>
<text text-anchor="middle" x="587" y="-1059" font-family="Helvetica,sans-Serif" font-size="10.00">terminating</text>
</g>
<!-- Node9 -->
<g id="node9" class="node"><title>Node9</title>
<g id="a_node9"><a xlink:title=" ">
<polygon fill="white" stroke="#bfbfbf" points="206.5,-977.5 206.5,-996.5 235.5,-996.5 235.5,-977.5 206.5,-977.5"/>
<text text-anchor="middle" x="221" y="-984.5" font-family="Helvetica,sans-Serif" font-size="10.00">int</text>
</a>
</g>
</g>
<!-- Node9&#45;&gt;Node7 -->
<g id="edge9" class="edge"><title>Node9&#45;&gt;Node7</title>
<path fill="none" stroke="#9a32cd" stroke-dasharray="5,2" d="M245.363,-981.901C260.15,-978.702 279.679,-974.53 297,-971 343.551,-961.513 397.196,-951.179 432.69,-944.425"/>
<polygon fill="#9a32cd" stroke="#9a32cd" points="244.563,-978.493 235.533,-984.035 246.048,-985.334 244.563,-978.493"/>
<text text-anchor="middle" x="350" y="-974" font-family="Helvetica,sans-Serif" font-size="10.00"> sfd</text>
</g>
<!-- Node10 -->
<g id="node10" class="node"><title>Node10</title>
<g id="a_node10"><a xlink:href="classdpp_1_1opensslcontext.html" target="_top" xlink:title=" ">
<polygon fill="white" stroke="black" points="169,-1142.5 169,-1161.5 273,-1161.5 273,-1142.5 169,-1142.5"/>
<text text-anchor="middle" x="221" y="-1149.5" font-family="Helvetica,sans-Serif" font-size="10.00">dpp::opensslcontext</text>
</a>
</g>
</g>
<!-- Node10&#45;&gt;Node7 -->
<g id="edge10" class="edge"><title>Node10&#45;&gt;Node7</title>
<path fill="none" stroke="#9a32cd" stroke-dasharray="5,2" d="M246.936,-1136.64C283.267,-1113.66 351.975,-1067.89 403,-1020 428.551,-996.02 453.591,-962.786 465.233,-946.613"/>
<polygon fill="#9a32cd" stroke="#9a32cd" points="244.619,-1133.96 238.007,-1142.24 248.339,-1139.89 244.619,-1133.96"/>
<text text-anchor="middle" x="350" y="-1105" font-family="Helvetica,sans-Serif" font-size="10.00"> ssl</text>
</g>
<!-- Node11 -->
<g id="node11" class="node"><title>Node11</title>
<g id="a_node11"><a xlink:title=" ">
<polygon fill="white" stroke="#bfbfbf" points="26.5,-1139.5 26.5,-1158.5 68.5,-1158.5 68.5,-1139.5 26.5,-1139.5"/>
<text text-anchor="middle" x="47.5" y="-1146.5" font-family="Helvetica,sans-Serif" font-size="10.00">SSL *</text>
</a>
</g>
</g>
<!-- Node11&#45;&gt;Node10 -->
<g id="edge11" class="edge"><title>Node11&#45;&gt;Node10</title>
<path fill="none" stroke="#9a32cd" stroke-dasharray="5,2" d="M78.7675,-1149.53C103.613,-1149.96 139.349,-1150.59 168.657,-1151.1"/>
<polygon fill="#9a32cd" stroke="#9a32cd" points="78.5686,-1146.03 68.5089,-1149.35 78.4461,-1153.02 78.5686,-1146.03"/>
<text text-anchor="middle" x="129" y="-1153" font-family="Helvetica,sans-Serif" font-size="10.00"> ssl</text>
</g>
<!-- Node12 -->
<g id="node12" class="node"><title>Node12</title>
<g id="a_node12"><a xlink:title=" ">
<polygon fill="white" stroke="#bfbfbf" points="13.5,-1177.5 13.5,-1196.5 81.5,-1196.5 81.5,-1177.5 13.5,-1177.5"/>
<text text-anchor="middle" x="47.5" y="-1184.5" font-family="Helvetica,sans-Serif" font-size="10.00">SSL_CTX *</text>
</a>
</g>
</g>
<!-- Node12&#45;&gt;Node10 -->
<g id="edge12" class="edge"><title>Node12&#45;&gt;Node10</title>
<path fill="none" stroke="#9a32cd" stroke-dasharray="5,2" d="M91.4782,-1178.23C116.431,-1173.14 147.878,-1166.72 173.42,-1161.51"/>
<polygon fill="#9a32cd" stroke="#9a32cd" points="90.6651,-1174.82 81.5669,-1180.25 92.0649,-1181.68 90.6651,-1174.82"/>
<text text-anchor="middle" x="129" y="-1176" font-family="Helvetica,sans-Serif" font-size="10.00"> ctx</text>
</g>
<!-- Node13 -->
<g id="node13" class="node"><title>Node13</title>
<g id="a_node13"><a xlink:title=" ">
<polygon fill="white" stroke="#bfbfbf" points="199,-822.5 199,-841.5 243,-841.5 243,-822.5 199,-822.5"/>
<text text-anchor="middle" x="221" y="-829.5" font-family="Helvetica,sans-Serif" font-size="10.00">time_t</text>
</a>
</g>
</g>
<!-- Node13&#45;&gt;Node5 -->
<g id="edge35" class="edge"><title>Node13&#45;&gt;Node5</title>
<path fill="none" stroke="#9a32cd" stroke-dasharray="5,2" d="M250.701,-818.005C264.446,-811.759 281.3,-804.752 297,-800 347.413,-784.74 726.773,-751.236 763,-713 805.238,-668.42 739.605,-621.364 781,-576 819.083,-534.265 860.029,-582.201 905,-548 944.158,-518.22 962.715,-458.327 968.72,-434.804"/>
<polygon fill="#9a32cd" stroke="#9a32cd" points="248.893,-814.985 241.302,-822.376 251.845,-821.333 248.893,-814.985"/>
<text text-anchor="middle" x="587" y="-778" font-family="Helvetica,sans-Serif" font-size="10.00"> last_heartbeat</text>
<text text-anchor="middle" x="587" y="-767" font-family="Helvetica,sans-Serif" font-size="10.00">last_heartbeat_ack</text>
</g>
<!-- Node13&#45;&gt;Node7 -->
<g id="edge13" class="edge"><title>Node13&#45;&gt;Node7</title>
<path fill="none" stroke="#9a32cd" stroke-dasharray="5,2" d="M239.3,-848.696C253.64,-861.609 275.147,-878.931 297,-889 340.783,-909.174 356.679,-898.648 403,-912 418.181,-916.376 434.844,-922.378 447.992,-927.404"/>
<polygon fill="#9a32cd" stroke="#9a32cd" points="241.451,-845.918 231.736,-841.691 236.695,-851.054 241.451,-845.918"/>
<text text-anchor="middle" x="350" y="-915" font-family="Helvetica,sans-Serif" font-size="10.00"> last_tick</text>
</g>
<!-- Node13&#45;&gt;Node16 -->
<g id="edge18" class="edge"><title>Node13&#45;&gt;Node16</title>
<path fill="none" stroke="#9a32cd" stroke-dasharray="5,2" d="M239.425,-815.567C253.836,-802.803 275.377,-785.554 297,-775 340.79,-753.627 367.818,-780.712 403,-747 422.488,-728.326 401.285,-707.434 421,-689 456.041,-656.238 586.452,-656.797 631,-639 653.353,-630.07 677.049,-615.223 691.437,-605.523"/>
<polygon fill="#9a32cd" stroke="#9a32cd" points="236.865,-813.164 231.817,-822.479 241.572,-818.345 236.865,-813.164"/>
<text text-anchor="middle" x="473" y="-692" font-family="Helvetica,sans-Serif" font-size="10.00"> last_identify</text>
</g>
<!-- Node13&#45;&gt;Node30 -->
<g id="edge48" class="edge"><title>Node13&#45;&gt;Node30</title>
<path fill="none" stroke="#9a32cd" stroke-dasharray="5,2" d="M253.134,-837.22C261.848,-839.459 271.092,-842.607 279,-847 288.619,-852.344 286.775,-859.935 297,-864 340.778,-881.405 356.442,-871.196 403,-864 615.914,-831.094 855.398,-724.803 939.662,-685.124"/>
<polygon fill="#9a32cd" stroke="#9a32cd" points="253.785,-833.779 243.26,-834.99 252.243,-840.607 253.785,-833.779"/>
<text text-anchor="middle" x="587" y="-837" font-family="Helvetica,sans-Serif" font-size="10.00"> last_heartbeat</text>
</g>
<!-- Node14 -->
<g id="node14" class="node"><title>Node14</title>
<g id="a_node14"><a xlink:title=" ">
<polygon fill="white" stroke="#bfbfbf" points="22,-329.5 22,-348.5 73,-348.5 73,-329.5 22,-329.5"/>
<text text-anchor="middle" x="47.5" y="-336.5" font-family="Helvetica,sans-Serif" font-size="10.00">uint64_t</text>
</a>
</g>
</g>
<!-- Node14&#45;&gt;Node5 -->
<g id="edge37" class="edge"><title>Node14&#45;&gt;Node5</title>
<path fill="none" stroke="#9a32cd" stroke-dasharray="5,2" d="M53.9856,-319.855C70.0762,-268.227 122.281,-130 220,-130 220,-130 220,-130 707,-130 863.703,-130 950.687,-363.998 967.84,-415.185"/>
<polygon fill="#9a32cd" stroke="#9a32cd" points="50.6203,-318.892 51.0968,-329.477 57.3246,-320.905 50.6203,-318.892"/>
<text text-anchor="middle" x="473" y="-133" font-family="Helvetica,sans-Serif" font-size="10.00"> last_seq</text>
</g>
<!-- Node14&#45;&gt;Node7 -->
<g id="edge14" class="edge"><title>Node14&#45;&gt;Node7</title>
<path fill="none" stroke="#9a32cd" stroke-dasharray="5,2" d="M50.6891,-358.565C60.3833,-442.335 101.694,-770.168 163,-851 226.683,-934.966 365.079,-941.786 432.92,-939.634"/>
<polygon fill="#9a32cd" stroke="#9a32cd" points="54.1642,-358.148 49.5538,-348.608 47.2093,-358.941 54.1642,-358.148"/>
<text text-anchor="middle" x="221" y="-936" font-family="Helvetica,sans-Serif" font-size="10.00"> bytes_in</text>
<text text-anchor="middle" x="221" y="-925" font-family="Helvetica,sans-Serif" font-size="10.00">bytes_out</text>
</g>
<!-- Node21 -->
<g id="node21" class="node"><title>Node21</title>
<g id="a_node21"><a xlink:href="classdpp_1_1managed.html" target="_top" xlink:title="The managed class is the base class for various types that can be stored in a cache that are identifi...">
<polygon fill="white" stroke="black" points="182,-324.5 182,-343.5 260,-343.5 260,-324.5 182,-324.5"/>
<text text-anchor="middle" x="221" y="-331.5" font-family="Helvetica,sans-Serif" font-size="10.00">dpp::managed</text>
</a>
</g>
</g>
<!-- Node14&#45;&gt;Node21 -->
<g id="edge25" class="edge"><title>Node14&#45;&gt;Node21</title>
<path fill="none" stroke="#9a32cd" stroke-dasharray="5,2" d="M83.4084,-337.982C112.012,-337.148 152.428,-335.97 181.874,-335.112"/>
<polygon fill="#9a32cd" stroke="#9a32cd" points="82.9655,-334.494 73.0718,-338.284 83.1696,-341.491 82.9655,-334.494"/>
<text text-anchor="middle" x="129" y="-341" font-family="Helvetica,sans-Serif" font-size="10.00"> id</text>
</g>
<!-- Node23 -->
<g id="node23" class="node"><title>Node23</title>
<g id="a_node23"><a xlink:href="structdpp_1_1utility_1_1iconhash.html" target="_top" xlink:title="Store a 128 bit icon hash (profile picture, server icon etc) as a 128 bit binary value made of two ui...">
<polygon fill="white" stroke="black" points="167.5,-284.5 167.5,-303.5 274.5,-303.5 274.5,-284.5 167.5,-284.5"/>
<text text-anchor="middle" x="221" y="-291.5" font-family="Helvetica,sans-Serif" font-size="10.00">dpp::utility::iconhash</text>
</a>
</g>
</g>
<!-- Node14&#45;&gt;Node23 -->
<g id="edge29" class="edge"><title>Node14&#45;&gt;Node23</title>
<path fill="none" stroke="#9a32cd" stroke-dasharray="5,2" d="M76.4449,-325.037C87.5854,-319.96 100.672,-314.593 113,-311 130.426,-305.922 149.919,-302.256 167.444,-299.66"/>
<polygon fill="#9a32cd" stroke="#9a32cd" points="74.7843,-321.95 67.2237,-329.373 77.7626,-328.285 74.7843,-321.95"/>
<text text-anchor="middle" x="129" y="-325" font-family="Helvetica,sans-Serif" font-size="10.00"> first</text>
<text text-anchor="middle" x="129" y="-314" font-family="Helvetica,sans-Serif" font-size="10.00">second</text>
</g>
<!-- Node14&#45;&gt;Node30 -->
<g id="edge51" class="edge"><title>Node14&#45;&gt;Node30</title>
<path fill="none" stroke="#9a32cd" stroke-dasharray="5,2" d="M48.5285,-358.874C49.2207,-480.024 60.4649,-1114 220,-1114 220,-1114 220,-1114 707,-1114 812.029,-1114 845.701,-1071.69 905,-985 939.465,-934.617 963.177,-740.765 969.385,-685.054"/>
<polygon fill="#9a32cd" stroke="#9a32cd" points="52.0272,-358.506 48.4894,-348.519 45.0273,-358.532 52.0272,-358.506"/>
<text text-anchor="middle" x="473" y="-1128" font-family="Helvetica,sans-Serif" font-size="10.00"> channel_id</text>
<text text-anchor="middle" x="473" y="-1117" font-family="Helvetica,sans-Serif" font-size="10.00">server_id</text>
</g>
<!-- Node15 -->
<g id="node15" class="node"><title>Node15</title>
<g id="a_node15"><a xlink:title=" ">
<polygon fill="white" stroke="#bfbfbf" points="192.5,-683.5 192.5,-702.5 249.5,-702.5 249.5,-683.5 192.5,-683.5"/>
<text text-anchor="middle" x="221" y="-690.5" font-family="Helvetica,sans-Serif" font-size="10.00">function&lt;</text>
</a>
</g>
</g>
<!-- Node15&#45;&gt;Node7 -->
<g id="edge15" class="edge"><title>Node15&#45;&gt;Node7</title>
<path fill="none" stroke="#9a32cd" stroke-dasharray="5,2" d="M242.644,-708.775C284.081,-740.616 375.753,-812.002 403,-841 429.985,-869.719 455.305,-909.36 466.279,-927.385"/>
<polygon fill="#9a32cd" stroke="#9a32cd" points="244.67,-705.918 234.605,-702.61 240.41,-711.473 244.67,-705.918"/>
<text text-anchor="middle" x="350" y="-877" font-family="Helvetica,sans-Serif" font-size="10.00"> custom_readable_fd</text>
<text text-anchor="middle" x="350" y="-866" font-family="Helvetica,sans-Serif" font-size="10.00">custom_readable_ready</text>
<text text-anchor="middle" x="350" y="-855" font-family="Helvetica,sans-Serif" font-size="10.00">custom_writeable_fd</text>
<text text-anchor="middle" x="350" y="-844" font-family="Helvetica,sans-Serif" font-size="10.00">custom_writeable_ready</text>
</g>
<!-- Node19 -->
<g id="node19" class="node"><title>Node19</title>
<g id="a_node19"><a xlink:href="classdpp_1_1dispatcher.html" target="_top" xlink:title="The dispatcher class contains a set of std::functions representing hooked events that the user code i...">
<polygon fill="white" stroke="black" points="431.5,-624.5 431.5,-643.5 514.5,-643.5 514.5,-624.5 431.5,-624.5"/>
<text text-anchor="middle" x="473" y="-631.5" font-family="Helvetica,sans-Serif" font-size="10.00">dpp::dispatcher</text>
</a>
</g>
</g>
<!-- Node15&#45;&gt;Node19 -->
<g id="edge22" class="edge"><title>Node15&#45;&gt;Node19</title>
<path fill="none" stroke="#9a32cd" stroke-dasharray="5,2" d="M229.883,-673.72C240.884,-649.715 263.353,-609.824 297,-593 339.137,-571.931 360.427,-572.826 403,-593 414.416,-598.41 410.724,-607.651 421,-615 426.303,-618.793 432.452,-621.921 438.606,-624.468"/>
<polygon fill="#9a32cd" stroke="#9a32cd" points="226.536,-672.641 225.754,-683.207 232.954,-675.435 226.536,-672.641"/>
<text text-anchor="start" x="301" y="-739" font-family="Helvetica,sans-Serif" font-size="10.00"> application_command</text>
<text text-anchor="middle" x="350" y="-728" font-family="Helvetica,sans-Serif" font-size="10.00">_create</text>
<text text-anchor="start" x="301" y="-717" font-family="Helvetica,sans-Serif" font-size="10.00">application_command</text>
<text text-anchor="middle" x="350" y="-706" font-family="Helvetica,sans-Serif" font-size="10.00">_delete</text>
<text text-anchor="start" x="301" y="-695" font-family="Helvetica,sans-Serif" font-size="10.00">application_command</text>
<text text-anchor="middle" x="350" y="-684" font-family="Helvetica,sans-Serif" font-size="10.00">_update</text>
<text text-anchor="middle" x="350" y="-673" font-family="Helvetica,sans-Serif" font-size="10.00">button_click</text>
<text text-anchor="middle" x="350" y="-662" font-family="Helvetica,sans-Serif" font-size="10.00">channel_create</text>
<text text-anchor="middle" x="350" y="-651" font-family="Helvetica,sans-Serif" font-size="10.00">channel_delete</text>
<text text-anchor="middle" x="350" y="-640" font-family="Helvetica,sans-Serif" font-size="10.00">channel_pins_update</text>
<text text-anchor="middle" x="350" y="-629" font-family="Helvetica,sans-Serif" font-size="10.00">channel_update</text>
<text text-anchor="middle" x="350" y="-618" font-family="Helvetica,sans-Serif" font-size="10.00">guild_ban_add</text>
<text text-anchor="middle" x="350" y="-607" font-family="Helvetica,sans-Serif" font-size="10.00">guild_ban_remove</text>
<text text-anchor="middle" x="350" y="-596" font-family="Helvetica,sans-Serif" font-size="10.00">...</text>
</g>
<!-- Node16&#45;&gt;Node5 -->
<g id="edge16" class="edge"><title>Node16&#45;&gt;Node5</title>
<path fill="none" stroke="#9a32cd" stroke-dasharray="5,2" d="M713.465,-576.778C723.487,-550.102 745.415,-502.394 781,-478 827.3,-446.261 851.416,-470.728 905,-454 921.487,-448.853 939.378,-440.828 952.368,-434.524"/>
<polygon fill="#9a32cd" stroke="#9a32cd" points="710.064,-575.895 709.996,-586.49 716.656,-578.25 710.064,-575.895"/>
<text text-anchor="middle" x="843" y="-481" font-family="Helvetica,sans-Serif" font-size="10.00"> creator</text>
</g>
<!-- Node16&#45;&gt;Node30 -->
<g id="edge45" class="edge"><title>Node16&#45;&gt;Node30</title>
<path fill="none" stroke="#9a32cd" stroke-dasharray="5,2" d="M724.938,-612.506C739.07,-624.485 759.856,-639.947 781,-648 826.927,-665.492 883.255,-670.112 922.607,-670.897"/>
<polygon fill="#9a32cd" stroke="#9a32cd" points="726.881,-609.555 717.055,-605.595 722.267,-614.819 726.881,-609.555"/>
<text text-anchor="middle" x="843" y="-674" font-family="Helvetica,sans-Serif" font-size="10.00"> creator</text>
</g>
<!-- Node17 -->
<g id="node17" class="node"><title>Node17</title>
<g id="a_node17"><a xlink:title=" ">
<polygon fill="white" stroke="#bfbfbf" points="195.5,-416.5 195.5,-435.5 246.5,-435.5 246.5,-416.5 195.5,-416.5"/>
<text text-anchor="middle" x="221" y="-423.5" font-family="Helvetica,sans-Serif" font-size="10.00">uint32_t</text>
</a>
</g>
</g>
<!-- Node17&#45;&gt;Node5 -->
<g id="edge34" class="edge"><title>Node17&#45;&gt;Node5</title>
<path fill="none" stroke="#9a32cd" stroke-dasharray="5,2" d="M247.627,-411.519C261.827,-403.97 280.002,-395.07 297,-389 323.423,-379.564 515.124,-335.187 543,-332 701.649,-313.86 888.021,-388.062 949.876,-415.314"/>
<polygon fill="#9a32cd" stroke="#9a32cd" points="245.611,-408.631 238.494,-416.479 248.952,-414.783 245.611,-408.631"/>
<text text-anchor="middle" x="587" y="-390" font-family="Helvetica,sans-Serif" font-size="10.00"> heartbeat_interval</text>
<text text-anchor="middle" x="587" y="-379" font-family="Helvetica,sans-Serif" font-size="10.00">intents</text>
<text text-anchor="middle" x="587" y="-368" font-family="Helvetica,sans-Serif" font-size="10.00">max_shards</text>
<text text-anchor="middle" x="587" y="-357" font-family="Helvetica,sans-Serif" font-size="10.00">reconnects</text>
<text text-anchor="middle" x="587" y="-346" font-family="Helvetica,sans-Serif" font-size="10.00">resumes</text>
<text text-anchor="middle" x="587" y="-335" font-family="Helvetica,sans-Serif" font-size="10.00">shard_id</text>
</g>
<!-- Node17&#45;&gt;Node16 -->
<g id="edge19" class="edge"><title>Node17&#45;&gt;Node16</title>
<path fill="none" stroke="#9a32cd" stroke-dasharray="5,2" d="M237.558,-443.275C251.637,-457.79 273.685,-477.891 297,-489 390.168,-533.392 425.363,-506.104 525,-533 582.057,-548.402 647.058,-572.955 681.186,-586.409"/>
<polygon fill="#9a32cd" stroke="#9a32cd" points="240.001,-440.764 230.599,-435.879 234.903,-445.561 240.001,-440.764"/>
<text text-anchor="middle" x="473" y="-569" font-family="Helvetica,sans-Serif" font-size="10.00"> cluster_id</text>
<text text-anchor="middle" x="473" y="-558" font-family="Helvetica,sans-Serif" font-size="10.00">intents</text>
<text text-anchor="middle" x="473" y="-547" font-family="Helvetica,sans-Serif" font-size="10.00">maxclusters</text>
<text text-anchor="middle" x="473" y="-536" font-family="Helvetica,sans-Serif" font-size="10.00">numshards</text>
</g>
<!-- Node17&#45;&gt;Node20 -->
<g id="edge30" class="edge"><title>Node17&#45;&gt;Node20</title>
<path fill="none" stroke="#9a32cd" stroke-dasharray="5,2" d="M234.77,-408.063C248.233,-390.526 271.061,-364.419 297,-350 339.219,-326.531 357.654,-342.644 403,-326 422.153,-318.97 442.718,-307.708 456.365,-299.653"/>
<polygon fill="#9a32cd" stroke="#9a32cd" points="231.771,-406.231 228.616,-416.346 237.39,-410.406 231.771,-406.231"/>
<text text-anchor="middle" x="350" y="-353" font-family="Helvetica,sans-Serif" font-size="10.00"> flags</text>
</g>
<!-- Node17&#45;&gt;Node30 -->
<g id="edge47" class="edge"><title>Node17&#45;&gt;Node30</title>
<path fill="none" stroke="#9a32cd" stroke-dasharray="5,2" d="M245.195,-440.769C259.54,-449.121 278.661,-458.888 297,-464 440.393,-503.969 494.822,-428.876 631,-489 641.066,-493.444 640.286,-499.28 649,-506 696.267,-542.452 719.008,-536.657 763,-577 772.827,-586.012 770.288,-593.061 781,-601 803.908,-617.978 874.29,-641.204 922.646,-655.905"/>
<polygon fill="#9a32cd" stroke="#9a32cd" points="246.888,-437.703 236.514,-435.549 243.28,-443.702 246.888,-437.703"/>
<text text-anchor="middle" x="587" y="-492" font-family="Helvetica,sans-Serif" font-size="10.00"> heartbeat_interval</text>
</g>
<!-- Node18 -->
<g id="node18" class="node"><title>Node18</title>
<g id="a_node18"><a xlink:title=" ">
<polygon fill="white" stroke="#bfbfbf" points="450.5,-709.5 450.5,-728.5 495.5,-728.5 495.5,-709.5 450.5,-709.5"/>
<text text-anchor="middle" x="473" y="-716.5" font-family="Helvetica,sans-Serif" font-size="10.00">double</text>
</a>
</g>
</g>
<!-- Node18&#45;&gt;Node5 -->
<g id="edge40" class="edge"><title>Node18&#45;&gt;Node5</title>
<path fill="none" stroke="#9a32cd" stroke-dasharray="5,2" d="M505.78,-720.484C538.219,-720.97 589.549,-718.861 631,-704 697.605,-680.121 724.247,-674.2 763,-615 787.254,-577.948 750.326,-548.94 781,-517 820.135,-476.25 855.311,-515.891 905,-489 930.267,-475.326 952.632,-449.24 963.684,-434.957"/>
<polygon fill="#9a32cd" stroke="#9a32cd" points="505.627,-716.979 495.545,-720.235 505.456,-723.977 505.627,-716.979"/>
<text text-anchor="middle" x="706" y="-701" font-family="Helvetica,sans-Serif" font-size="10.00"> websocket_ping</text>
</g>
<!-- Node18&#45;&gt;Node16 -->
<g id="edge20" class="edge"><title>Node18&#45;&gt;Node16</title>
<path fill="none" stroke="#9a32cd" stroke-dasharray="5,2" d="M504.972,-706.54C516.778,-701.999 530.42,-697.002 543,-693 581.523,-680.745 595.929,-690.105 631,-670 660.476,-653.103 686.375,-621.406 698.194,-605.547"/>
<polygon fill="#9a32cd" stroke="#9a32cd" points="503.594,-703.32 495.549,-710.215 506.138,-709.842 503.594,-703.32"/>
<text text-anchor="middle" x="587" y="-696" font-family="Helvetica,sans-Serif" font-size="10.00"> rest_ping</text>
</g>
<!-- Node19&#45;&gt;Node16 -->
<g id="edge21" class="edge"><title>Node19&#45;&gt;Node16</title>
<path fill="none" stroke="#9a32cd" stroke-dasharray="5,2" d="M524.788,-626.7C555.565,-622.161 595.593,-616.054 631,-610 644.404,-607.708 659.13,-604.968 671.892,-602.522"/>
<polygon fill="#9a32cd" stroke="#9a32cd" points="524.111,-623.262 514.726,-628.177 525.128,-630.188 524.111,-623.262"/>
<text text-anchor="middle" x="587" y="-627" font-family="Helvetica,sans-Serif" font-size="10.00"> dispatch</text>
</g>
<!-- Node20&#45;&gt;Node16 -->
<g id="edge23" class="edge"><title>Node20&#45;&gt;Node16</title>
<path fill="none" stroke="#9a32cd" stroke-dasharray="5,2" d="M474.437,-309.709C476.47,-351.5 487.273,-449.469 543,-502 572.416,-529.729 595.723,-505.259 631,-525 659.588,-540.998 685.309,-570.677 697.516,-586.107"/>
<polygon fill="#9a32cd" stroke="#9a32cd" points="477.935,-309.575 474.072,-299.71 470.94,-309.831 477.935,-309.575"/>
<text text-anchor="middle" x="587" y="-528" font-family="Helvetica,sans-Serif" font-size="10.00"> me</text>
</g>
<!-- Node21&#45;&gt;Node20 -->
<g id="edge24" class="edge"><title>Node21&#45;&gt;Node20</title>
<path fill="none" stroke="midnightblue" d="M270.178,-325.521C321.866,-316.424 402.179,-302.288 444.212,-294.891"/>
<polygon fill="midnightblue" stroke="midnightblue" points="269.484,-322.089 260.242,-327.269 270.697,-328.983 269.484,-322.089"/>
</g>
<!-- Node22 -->
<g id="node22" class="node"><title>Node22</title>
<g id="a_node22"><a xlink:title=" ">
<polygon fill="white" stroke="#bfbfbf" points="195.5,-246.5 195.5,-265.5 246.5,-265.5 246.5,-246.5 195.5,-246.5"/>
<text text-anchor="middle" x="221" y="-253.5" font-family="Helvetica,sans-Serif" font-size="10.00">uint16_t</text>
</a>
</g>
</g>
<!-- Node22&#45;&gt;Node20 -->
<g id="edge27" class="edge"><title>Node22&#45;&gt;Node20</title>
<path fill="none" stroke="#9a32cd" stroke-dasharray="5,2" d="M256.843,-258.519C293.399,-261.427 352.46,-266.879 403,-275 416.677,-277.198 431.724,-280.378 444.266,-283.245"/>
<polygon fill="#9a32cd" stroke="#9a32cd" points="256.946,-255.016 246.705,-257.732 256.404,-261.995 256.946,-255.016"/>
<text text-anchor="middle" x="350" y="-278" font-family="Helvetica,sans-Serif" font-size="10.00"> discriminator</text>
</g>
<!-- Node23&#45;&gt;Node20 -->
<g id="edge28" class="edge"><title>Node23&#45;&gt;Node20</title>
<path fill="none" stroke="#9a32cd" stroke-dasharray="5,2" d="M284.982,-291.324C289.048,-291.199 293.081,-291.09 297,-291 349.092,-289.81 409.928,-289.765 444.414,-289.866"/>
<polygon fill="#9a32cd" stroke="#9a32cd" points="284.729,-287.83 274.85,-291.659 284.961,-294.826 284.729,-287.83"/>
<text text-anchor="middle" x="350" y="-294" font-family="Helvetica,sans-Serif" font-size="10.00"> avatar</text>
</g>
<!-- Node24 -->
<g id="node24" class="node"><title>Node24</title>
<g id="a_node24"><a xlink:title=" ">
<polygon fill="white" stroke="#bfbfbf" points="198,-208.5 198,-227.5 244,-227.5 244,-208.5 198,-208.5"/>
<text text-anchor="middle" x="221" y="-215.5" font-family="Helvetica,sans-Serif" font-size="10.00">uint8_t</text>
</a>
</g>
</g>
<!-- Node24&#45;&gt;Node20 -->
<g id="edge31" class="edge"><title>Node24&#45;&gt;Node20</title>
<path fill="none" stroke="#9a32cd" stroke-dasharray="5,2" d="M254.328,-219.642C291.292,-222.358 353.129,-229.483 403,-248 424.298,-255.908 446.272,-270.626 459.537,-280.369"/>
<polygon fill="#9a32cd" stroke="#9a32cd" points="254.356,-216.137 244.144,-218.96 253.888,-223.121 254.356,-216.137"/>
<text text-anchor="middle" x="350" y="-251" font-family="Helvetica,sans-Serif" font-size="10.00"> refcount</text>
</g>
<!-- Node25 -->
<g id="node25" class="node"><title>Node25</title>
<g id="a_node25"><a xlink:href="structdpp_1_1cache__policy__t.html" target="_top" xlink:title="Represents the caching policy of the cluster.">
<polygon fill="white" stroke="black" points="421,-586.5 421,-605.5 525,-605.5 525,-586.5 421,-586.5"/>
<text text-anchor="middle" x="473" y="-593.5" font-family="Helvetica,sans-Serif" font-size="10.00">dpp::cache_policy_t</text>
</a>
</g>
</g>
<!-- Node25&#45;&gt;Node16 -->
<g id="edge32" class="edge"><title>Node25&#45;&gt;Node16</title>
<path fill="none" stroke="#9a32cd" stroke-dasharray="5,2" d="M535.503,-596C579.207,-596 636.221,-596 671.719,-596"/>
<polygon fill="#9a32cd" stroke="#9a32cd" points="535.266,-592.5 525.266,-596 535.266,-599.5 535.266,-592.5"/>
<text text-anchor="middle" x="587" y="-599" font-family="Helvetica,sans-Serif" font-size="10.00"> cache_policy</text>
</g>
<!-- Node26 -->
<g id="node26" class="node"><title>Node26</title>
<g id="a_node26"><a xlink:title=" ">
<polygon fill="white" stroke="#bfbfbf" points="163,-526.5 163,-545.5 279,-545.5 279,-526.5 163,-526.5"/>
<text text-anchor="middle" x="221" y="-533.5" font-family="Helvetica,sans-Serif" font-size="10.00">cache_policy_setting_t</text>
</a>
</g>
</g>
<!-- Node26&#45;&gt;Node25 -->
<g id="edge33" class="edge"><title>Node26&#45;&gt;Node25</title>
<path fill="none" stroke="#9a32cd" stroke-dasharray="5,2" d="M272.445,-524.876C310.923,-519.204 363.804,-517.708 403,-541 416.696,-549.139 409.259,-561.23 421,-572 427.562,-578.019 435.903,-582.792 443.93,-586.444"/>
<polygon fill="#9a32cd" stroke="#9a32cd" points="271.809,-521.433 262.494,-526.482 272.924,-528.344 271.809,-521.433"/>
<text text-anchor="middle" x="350" y="-566" font-family="Helvetica,sans-Serif" font-size="10.00"> emoji_policy</text>
<text text-anchor="middle" x="350" y="-555" font-family="Helvetica,sans-Serif" font-size="10.00">role_policy</text>
<text text-anchor="middle" x="350" y="-544" font-family="Helvetica,sans-Serif" font-size="10.00">user_policy</text>
</g>
<!-- Node27 -->
<g id="node27" class="node"><title>Node27</title>
<g id="a_node27"><a xlink:title=" ">
<polygon fill="white" stroke="#bfbfbf" points="655.5,-396.5 655.5,-415.5 756.5,-415.5 756.5,-396.5 655.5,-396.5"/>
<text text-anchor="middle" x="706" y="-403.5" font-family="Helvetica,sans-Serif" font-size="10.00">native_handle_type</text>
</a>
</g>
</g>
<!-- Node27&#45;&gt;Node5 -->
<g id="edge36" class="edge"><title>Node27&#45;&gt;Node5</title>
<path fill="none" stroke="#9a32cd" stroke-dasharray="5,2" d="M767.061,-404.055C806.431,-403.556 858.948,-404.361 905,-410 914.914,-411.214 925.521,-413.275 935.267,-415.488"/>
<polygon fill="#9a32cd" stroke="#9a32cd" points="766.778,-400.559 756.835,-404.217 766.889,-407.558 766.778,-400.559"/>
<text text-anchor="middle" x="843" y="-413" font-family="Helvetica,sans-Serif" font-size="10.00"> thread_id</text>
</g>
<!-- Node27&#45;&gt;Node30 -->
<g id="edge49" class="edge"><title>Node27&#45;&gt;Node30</title>
<path fill="none" stroke="#9a32cd" stroke-dasharray="5,2" d="M758.576,-420.94C760.15,-422.186 761.634,-423.537 763,-425 784.338,-447.849 761.81,-468.319 781,-493 819.713,-542.789 859.504,-518.322 905,-562 933.691,-589.545 954.804,-632.128 964.712,-654.715"/>
<polygon fill="#9a32cd" stroke="#9a32cd" points="760.383,-417.941 750.065,-415.534 756.63,-423.85 760.383,-417.941"/>
<text text-anchor="middle" x="843" y="-565" font-family="Helvetica,sans-Serif" font-size="10.00"> thread_id</text>
</g>
<!-- Node28 -->
<g id="node28" class="node"><title>Node28</title>
<g id="a_node28"><a xlink:title=" ">
<polygon fill="white" stroke="#bfbfbf" points="674.5,-434.5 674.5,-453.5 737.5,-453.5 737.5,-434.5 674.5,-434.5"/>
<text text-anchor="middle" x="706" y="-441.5" font-family="Helvetica,sans-Serif" font-size="10.00">std::mutex</text>
</a>
</g>
</g>
<!-- Node28&#45;&gt;Node5 -->
<g id="edge39" class="edge"><title>Node28&#45;&gt;Node5</title>
<path fill="none" stroke="#9a32cd" stroke-dasharray="5,2" d="M747.708,-441.07C794.935,-437.671 872.719,-432.073 922.891,-428.462"/>
<polygon fill="#9a32cd" stroke="#9a32cd" points="747.265,-437.593 737.542,-441.802 747.768,-444.575 747.265,-437.593"/>
<text text-anchor="middle" x="843" y="-442" font-family="Helvetica,sans-Serif" font-size="10.00"> voice_mutex</text>
</g>
<!-- Node29 -->
<g id="node29" class="node"><title>Node29</title>
<g id="a_node29"><a xlink:title=" ">
<polygon fill="white" stroke="#bfbfbf" points="661.5,-283.5 661.5,-302.5 750.5,-302.5 750.5,-283.5 661.5,-283.5"/>
<text text-anchor="middle" x="706" y="-290.5" font-family="Helvetica,sans-Serif" font-size="10.00">unordered_map&lt;</text>
</a>
</g>
</g>
<!-- Node29&#45;&gt;Node5 -->
<g id="edge42" class="edge"><title>Node29&#45;&gt;Node5</title>
<path fill="none" stroke="#9a32cd" stroke-dasharray="5,2" d="M760.954,-283.307C803.382,-278.626 862.262,-278.908 905,-306 945.704,-331.803 963.447,-392.049 968.975,-415.459"/>
<polygon fill="#9a32cd" stroke="#9a32cd" points="760.311,-279.859 750.813,-284.554 761.165,-286.807 760.311,-279.859"/>
<text text-anchor="middle" x="843" y="-309" font-family="Helvetica,sans-Serif" font-size="10.00"> connecting_voice_channels</text>
</g>
<!-- Node30&#45;&gt;Node1 -->
<g id="edge43" class="edge"><title>Node30&#45;&gt;Node1</title>
<path fill="none" stroke="#9a32cd" stroke-dasharray="5,2" d="M987.631,-646.1C1044.73,-552.831 1251.27,-215.442 1289.04,-153.728"/>
<polygon fill="#9a32cd" stroke="#9a32cd" points="984.526,-644.469 982.29,-654.825 990.496,-648.124 984.526,-644.469"/>
<text text-anchor="middle" x="1136.5" y="-497" font-family="Helvetica,sans-Serif" font-size="10.00"> voice_client</text>
</g>
</g>
</svg>
        <g id="navigator" transform="translate(0 0)" fill="#404254">
                <rect fill="#f2f5e9" fill-opacity="0.5" stroke="#606060" stroke-width=".5" x="0" y="0" width="60" height="60"/>
                <use id="zoomplus" xlink:href="#zoomPlus" x="17" y="9" onmousedown="handleZoom(evt,'in')"/>
                <use id="zoomminus" xlink:href="#zoomMin" x="42" y="9" onmousedown="handleZoom(evt,'out')"/>
                <use id="reset" xlink:href="#resetDef" x="30" y="36" onmousedown="handleReset()"/>
                <g id="arrowUp" xlink:href="#dirArrow" transform="translate(30 24)" onmousedown="handlePan(0,-1)">
                  <use xlink:href="#rim" fill="#404040">
                        <set attributeName="fill" to="#808080" begin="arrowUp.mouseover" end="arrowUp.mouseout"/>
                  </use>
                  <path fill="none" stroke="white" stroke-width="1.5" d="M0,-3.0v7 M-2.5,-0.5L0,-3.0L2.5,-0.5"/>
                </g>
                <g id="arrowRight" xlink:href="#dirArrow" transform="rotate(90) translate(36 -43)" onmousedown="handlePan(1,0)">
                  <use xlink:href="#rim" fill="#404040">
                        <set attributeName="fill" to="#808080" begin="arrowRight.mouseover" end="arrowRight.mouseout"/>
                  </use>
                  <path fill="none" stroke="white" stroke-width="1.5" d="M0,-3.0v7 M-2.5,-0.5L0,-3.0L2.5,-0.5"/>
                </g>
                <g id="arrowDown" xlink:href="#dirArrow" transform="rotate(180) translate(-30 -48)" onmousedown="handlePan(0,1)">
                  <use xlink:href="#rim" fill="#404040">
                        <set attributeName="fill" to="#808080" begin="arrowDown.mouseover" end="arrowDown.mouseout"/>
                  </use>
                  <path fill="none" stroke="white" stroke-width="1.5" d="M0,-3.0v7 M-2.5,-0.5L0,-3.0L2.5,-0.5"/>
                </g>
                <g id="arrowLeft" xlink:href="#dirArrow" transform="rotate(270) translate(-36 17)" onmousedown="handlePan(-1,0)">
                  <use xlink:href="#rim" fill="#404040">
                        <set attributeName="fill" to="#808080" begin="arrowLeft.mouseover" end="arrowLeft.mouseout"/>
                  </use>
                  <path fill="none" stroke="white" stroke-width="1.5" d="M0,-3.0v7 M-2.5,-0.5L0,-3.0L2.5,-0.5"/>
                </g>
        </g>
        <svg viewBox="0 0 15 15" width="100%" height="30px" preserveAspectRatio="xMaxYMin meet">
         <g id="arrow_out" transform="scale(0.3 0.3)">
          <a xlink:href="structdpp_1_1voice__track__marker__t__coll__graph_org.svg" target="_base">
           <rect id="button" ry="5" rx="5" y="6" x="6" height="38" width="38"
                fill="#f2f5e9" fill-opacity="0.5" stroke="#606060" stroke-width="1.0"/>
           <path id="arrow"
             d="M 11.500037,31.436501 C 11.940474,20.09759 22.043105,11.32322 32.158766,21.979434 L 37.068811,17.246167 C 37.068811,17.246167 37.088388,32 37.088388,32 L 22.160133,31.978069 C 22.160133,31.978069 26.997745,27.140456 26.997745,27.140456 C 18.528582,18.264221 13.291696,25.230495 11.500037,31.436501 z"
             style="fill:#404040;"/>
          </a>
         </g>
        </svg>
</svg>
