<?xml version="1.0" encoding="UTF-8" standalone="no"?>
<!DOCTYPE svg PUBLIC "-//W3C//DTD SVG 1.1//EN"
 "http://www.w3.org/Graphics/SVG/1.1/DTD/svg11.dtd">
<!-- Generated by graphviz version 2.43.0 (0)
 -->
<!-- Title: dpp::stage_instance_create_t Pages: 1 -->
<!--zoomable 1157 -->
<svg id="main" version="1.1" xmlns="http://www.w3.org/2000/svg" xmlns:xlink="http://www.w3.org/1999/xlink" xml:space="preserve" onload="init(evt)">
<style type="text/css"><![CDATA[
.edge:hover path { stroke: red; }
.edge:hover polygon { stroke: red; fill: red; }
]]></style>
<script type="text/javascript"><![CDATA[
var edges = document.getElementsByTagName('g');
if (edges && edges.length) {
  for (var i=0;i<edges.length;i++) {
    if (edges[i].id.substr(0,4)=='edge') {
      edges[i].setAttribute('class','edge');
    }
  }
}
]]></script>
        <defs>
                <circle id="rim" cx="0" cy="0" r="7"/>
                <circle id="rim2" cx="0" cy="0" r="3.5"/>
                <g id="zoomPlus">
                        <use xlink:href="#rim" fill="#404040">
                                <set attributeName="fill" to="#808080" begin="zoomplus.mouseover" end="zoomplus.mouseout"/>
                        </use>
                        <path d="M-4,0h8M0,-4v8" fill="none" stroke="white" stroke-width="1.5" pointer-events="none"/>
                </g>
                <g id="zoomMin">
                        <use xlink:href="#rim" fill="#404040">
                                <set attributeName="fill" to="#808080" begin="zoomminus.mouseover" end="zoomminus.mouseout"/>
                        </use>
                        <path d="M-4,0h8" fill="none" stroke="white" stroke-width="1.5" pointer-events="none"/>
                </g>
                <g id="dirArrow">
                        <path fill="none" stroke="white" stroke-width="1.5" d="M0,-3.0v7 M-2.5,-0.5L0,-3.0L2.5,-0.5"/>
                </g>
               <g id="resetDef">
                       <use xlink:href="#rim2" fill="#404040">
                               <set attributeName="fill" to="#808080" begin="reset.mouseover" end="reset.mouseout"/>
                       </use>
               </g>
        </defs>

<script type="text/javascript">
var viewWidth = 1464;
var viewHeight = 1157;
var sectionId = 'dynsection-1';
</script>
<script xlink:href="svgpan.js"/>
<svg id="graph" class="graph">
<g id="viewport">
<title>dpp::stage_instance_create_t</title>
<polygon fill="white" stroke="transparent" points="-4,4 -4,-1153.48 1460,-1153.48 1460,4 -4,4"/>
<!-- Node1 -->
<g id="node1" class="node">
<title>Node1</title>
<g id="a_node1"><a xlink:title="Create stage instance.">
<polygon fill="#bfbfbf" stroke="black" points="1342,-1020.48 1342,-1050.48 1456,-1050.48 1456,-1020.48 1342,-1020.48"/>
<text text-anchor="start" x="1350" y="-1038.48" font-family="Helvetica,sans-Serif" font-size="10.00">dpp::stage_instance</text>
<text text-anchor="middle" x="1399" y="-1027.48" font-family="Helvetica,sans-Serif" font-size="10.00">_create_t</text>
</a>
</g>
</g>
<!-- Node2 -->
<g id="node2" class="node">
<title>Node2</title>
<g id="a_node2"><a xlink:href="structdpp_1_1event__dispatch__t.html" target="_top" xlink:title="Base event parameter struct.">
<polygon fill="white" stroke="black" points="1181,-979.98 1181,-998.98 1305,-998.98 1305,-979.98 1181,-979.98"/>
<text text-anchor="middle" x="1243" y="-986.98" font-family="Helvetica,sans-Serif" font-size="10.00">dpp::event_dispatch_t</text>
</a>
</g>
</g>
<!-- Node2&#45;&gt;Node1 -->
<g id="edge1" class="edge">
<title>Node2&#45;&gt;Node1</title>
<path fill="none" stroke="midnightblue" d="M1285.54,-1001.89C1304.67,-1007.61 1327.54,-1014.44 1347.64,-1020.44"/>
<polygon fill="midnightblue" stroke="midnightblue" points="1286.49,-998.52 1275.91,-999.02 1284.49,-1005.23 1286.49,-998.52"/>
</g>
<!-- Node3 -->
<g id="node3" class="node">
<title>Node3</title>
<g id="a_node3"><a xlink:title=" ">
<polygon fill="white" stroke="#bfbfbf" points="206.5,-941.98 206.5,-960.98 271.5,-960.98 271.5,-941.98 206.5,-941.98"/>
<text text-anchor="middle" x="239" y="-948.98" font-family="Helvetica,sans-Serif" font-size="10.00">std::string</text>
</a>
</g>
</g>
<!-- Node3&#45;&gt;Node2 -->
<g id="edge2" class="edge">
<title>Node3&#45;&gt;Node2</title>
<path fill="none" stroke="#9a32cd" stroke-dasharray="5,2" d="M281.94,-960.82C294.45,-963.32 308.23,-965.8 321,-967.48 464.53,-986.44 501.22,-989.48 646,-989.48 646,-989.48 646,-989.48 1065,-989.48 1103.57,-989.48 1146.86,-989.48 1180.97,-989.48"/>
<polygon fill="#9a32cd" stroke="#9a32cd" points="282.28,-957.32 271.78,-958.73 280.87,-964.18 282.28,-957.32"/>
<text text-anchor="middle" x="774.5" y="-992.48" font-family="Helvetica,sans-Serif" font-size="10.00"> raw_event</text>
</g>
<!-- Node5 -->
<g id="node5" class="node">
<title>Node5</title>
<g id="a_node5"><a xlink:href="classdpp_1_1discord__client.html" target="_top" xlink:title="Implements a discord client. Each discord_client connects to one shard and derives from a websocket c...">
<polygon fill="white" stroke="black" points="1010,-551.98 1010,-570.98 1118,-570.98 1118,-551.98 1010,-551.98"/>
<text text-anchor="middle" x="1064" y="-558.98" font-family="Helvetica,sans-Serif" font-size="10.00">dpp::discord_client</text>
</a>
</g>
</g>
<!-- Node3&#45;&gt;Node5 -->
<g id="edge39" class="edge">
<title>Node3&#45;&gt;Node5</title>
<path fill="none" stroke="#9a32cd" stroke-dasharray="5,2" d="M281.96,-942.74C294.47,-940.4 308.25,-938.08 321,-936.48 469.28,-917.96 878.92,-990.17 992,-892.48 1042.59,-848.78 1059.34,-621.35 1062.44,-571.25"/>
<polygon fill="#9a32cd" stroke="#9a32cd" points="280.95,-939.37 271.8,-944.7 282.28,-946.25 280.95,-939.37"/>
<text text-anchor="middle" x="647" y="-959.48" font-family="Helvetica,sans-Serif" font-size="10.00"> sessionid</text>
<text text-anchor="middle" x="647" y="-948.48" font-family="Helvetica,sans-Serif" font-size="10.00">token</text>
</g>
<!-- Node7 -->
<g id="node7" class="node">
<title>Node7</title>
<g id="a_node7"><a xlink:href="classdpp_1_1ssl__client.html" target="_top" xlink:title="Implements a simple non&#45;blocking SSL stream client.">
<polygon fill="white" stroke="black" points="478,-752.98 478,-771.98 564,-771.98 564,-752.98 478,-752.98"/>
<text text-anchor="middle" x="521" y="-759.98" font-family="Helvetica,sans-Serif" font-size="10.00">dpp::ssl_client</text>
</a>
</g>
</g>
<!-- Node3&#45;&gt;Node7 -->
<g id="edge7" class="edge">
<title>Node3&#45;&gt;Node7</title>
<path fill="none" stroke="#9a32cd" stroke-dasharray="5,2" d="M281.52,-945.69C289.55,-942.85 297.24,-938.66 303,-932.48 327.57,-906.16 295.08,-878.48 321,-853.48 360.4,-815.48 392.77,-854.41 442,-830.48 471.73,-816.03 499.02,-787.23 512.02,-772.17"/>
<polygon fill="#9a32cd" stroke="#9a32cd" points="280.32,-942.4 271.68,-948.53 282.26,-949.12 280.32,-942.4"/>
<text text-anchor="middle" x="381.5" y="-900.48" font-family="Helvetica,sans-Serif" font-size="10.00"> buffer</text>
<text text-anchor="middle" x="381.5" y="-889.48" font-family="Helvetica,sans-Serif" font-size="10.00">cipher</text>
<text text-anchor="middle" x="381.5" y="-878.48" font-family="Helvetica,sans-Serif" font-size="10.00">hostname</text>
<text text-anchor="middle" x="381.5" y="-867.48" font-family="Helvetica,sans-Serif" font-size="10.00">obuffer</text>
<text text-anchor="middle" x="381.5" y="-856.48" font-family="Helvetica,sans-Serif" font-size="10.00">port</text>
</g>
<!-- Node16 -->
<g id="node16" class="node">
<title>Node16</title>
<g id="a_node16"><a xlink:href="classdpp_1_1cluster.html" target="_top" xlink:title="The cluster class represents a group of shards and a command queue for sending and receiving commands...">
<polygon fill="white" stroke="black" points="737.5,-388.98 737.5,-407.98 811.5,-407.98 811.5,-388.98 737.5,-388.98"/>
<text text-anchor="middle" x="774.5" y="-395.98" font-family="Helvetica,sans-Serif" font-size="10.00">dpp::cluster</text>
</a>
</g>
</g>
<!-- Node3&#45;&gt;Node16 -->
<g id="edge17" class="edge">
<title>Node3&#45;&gt;Node16</title>
<path fill="none" stroke="#9a32cd" stroke-dasharray="5,2" d="M281.49,-946.28C289.66,-943.41 297.43,-939.06 303,-932.48 343.55,-884.62 282.16,-841.75 321,-792.48 356.62,-747.31 407.68,-792.66 442,-746.48 475.75,-701.07 422.88,-535.19 460,-492.48 494.88,-452.35 644.2,-461.12 694,-442.48 718.08,-433.47 743.73,-418.1 759.18,-408.12"/>
<polygon fill="#9a32cd" stroke="#9a32cd" points="280.48,-942.93 271.81,-949 282.38,-949.66 280.48,-942.93"/>
<text text-anchor="middle" x="521" y="-495.48" font-family="Helvetica,sans-Serif" font-size="10.00"> token</text>
</g>
<!-- Node20 -->
<g id="node20" class="node">
<title>Node20</title>
<g id="a_node20"><a xlink:href="classdpp_1_1user.html" target="_top" xlink:title="Represents a user on discord. May or may not be a member of a dpp::guild.">
<polygon fill="white" stroke="black" points="490,-272.98 490,-291.98 552,-291.98 552,-272.98 490,-272.98"/>
<text text-anchor="middle" x="521" y="-279.98" font-family="Helvetica,sans-Serif" font-size="10.00">dpp::user</text>
</a>
</g>
</g>
<!-- Node3&#45;&gt;Node20 -->
<g id="edge26" class="edge">
<title>Node3&#45;&gt;Node20</title>
<path fill="none" stroke="#9a32cd" stroke-dasharray="5,2" d="M281.49,-946.82C289.81,-943.94 297.64,-939.44 303,-932.48 338.01,-887.04 290.86,-465.3 321,-416.48 353.18,-364.36 398.68,-393.8 442,-350.48 453.81,-338.67 448.36,-329.47 460,-317.48 470.5,-306.67 485.06,-298.08 497.2,-292.11"/>
<polygon fill="#9a32cd" stroke="#9a32cd" points="280.33,-943.5 271.6,-949.51 282.17,-950.26 280.33,-943.5"/>
<text text-anchor="middle" x="381.5" y="-419.48" font-family="Helvetica,sans-Serif" font-size="10.00"> username</text>
</g>
<!-- Node31 -->
<g id="node31" class="node">
<title>Node31</title>
<g id="a_node31"><a xlink:href="structdpp_1_1stage__instance.html" target="_top" xlink:title=" ">
<polygon fill="white" stroke="black" points="464,-1063.98 464,-1082.98 578,-1082.98 578,-1063.98 464,-1063.98"/>
<text text-anchor="middle" x="521" y="-1070.98" font-family="Helvetica,sans-Serif" font-size="10.00">dpp::stage_instance</text>
</a>
</g>
</g>
<!-- Node3&#45;&gt;Node31 -->
<g id="edge47" class="edge">
<title>Node3&#45;&gt;Node31</title>
<path fill="none" stroke="#9a32cd" stroke-dasharray="5,2" d="M266.48,-965.9C282.12,-974.16 302.43,-984.44 321,-992.48 373.51,-1015.22 389.2,-1014.42 442,-1036.48 462.47,-1045.04 485.34,-1056.07 500.99,-1063.85"/>
<polygon fill="#9a32cd" stroke="#9a32cd" points="267.88,-962.68 257.41,-961.06 264.58,-968.86 267.88,-962.68"/>
<text text-anchor="middle" x="381.5" y="-1039.48" font-family="Helvetica,sans-Serif" font-size="10.00"> topic</text>
</g>
<!-- Node4 -->
<g id="node4" class="node">
<title>Node4</title>
<g id="a_node4"><a xlink:title=" ">
<polygon fill="white" stroke="#bfbfbf" points="0,-1077.48 0,-1107.48 104,-1107.48 104,-1077.48 0,-1077.48"/>
<text text-anchor="start" x="8" y="-1095.48" font-family="Helvetica,sans-Serif" font-size="10.00">std::basic_string&lt;</text>
<text text-anchor="middle" x="52" y="-1084.48" font-family="Helvetica,sans-Serif" font-size="10.00"> Char &gt;</text>
</a>
</g>
</g>
<!-- Node4&#45;&gt;Node3 -->
<g id="edge3" class="edge">
<title>Node4&#45;&gt;Node3</title>
<path fill="none" stroke="midnightblue" d="M94.55,-1072.67C97.77,-1070.97 100.95,-1069.23 104,-1067.48 128.5,-1053.47 135.37,-1050.63 157,-1032.48 165.91,-1025.01 166.85,-1021.79 175,-1013.48 193.49,-994.64 215.57,-973.13 228.07,-961.04"/>
<polygon fill="midnightblue" stroke="midnightblue" points="92.72,-1069.68 85.43,-1077.36 95.92,-1075.9 92.72,-1069.68"/>
</g>
<!-- Node5&#45;&gt;Node2 -->
<g id="edge4" class="edge">
<title>Node5&#45;&gt;Node2</title>
<path fill="none" stroke="#9a32cd" stroke-dasharray="5,2" d="M1073,-580.82C1104,-655.78 1215.61,-925.68 1238.05,-979.94"/>
<polygon fill="#9a32cd" stroke="#9a32cd" points="1076.09,-579.13 1069.03,-571.23 1069.62,-581.81 1076.09,-579.13"/>
<text text-anchor="middle" x="1149.5" y="-791.48" font-family="Helvetica,sans-Serif" font-size="10.00"> from</text>
</g>
<!-- Node6 -->
<g id="node6" class="node">
<title>Node6</title>
<g id="a_node6"><a xlink:href="classdpp_1_1websocket__client.html" target="_top" xlink:title="Implements a websocket client based on the SSL client.">
<polygon fill="white" stroke="black" points="712,-674.98 712,-693.98 837,-693.98 837,-674.98 712,-674.98"/>
<text text-anchor="middle" x="774.5" y="-681.98" font-family="Helvetica,sans-Serif" font-size="10.00">dpp::websocket_client</text>
</a>
</g>
</g>
<!-- Node6&#45;&gt;Node5 -->
<g id="edge5" class="edge">
<title>Node6&#45;&gt;Node5</title>
<path fill="none" stroke="midnightblue" d="M807.58,-670.76C866.34,-645.62 989.84,-592.78 1040.55,-571.09"/>
<polygon fill="midnightblue" stroke="midnightblue" points="805.88,-667.68 798.06,-674.83 808.63,-674.12 805.88,-667.68"/>
</g>
<!-- Node7&#45;&gt;Node6 -->
<g id="edge6" class="edge">
<title>Node7&#45;&gt;Node6</title>
<path fill="none" stroke="midnightblue" d="M562.42,-749.95C612.72,-734.35 697.51,-708.05 742.8,-694"/>
<polygon fill="midnightblue" stroke="midnightblue" points="561.35,-746.61 552.84,-752.92 563.43,-753.3 561.35,-746.61"/>
</g>
<!-- Node8 -->
<g id="node8" class="node">
<title>Node8</title>
<g id="a_node8"><a xlink:title=" ">
<polygon fill="white" stroke="#bfbfbf" points="220,-1022.98 220,-1041.98 258,-1041.98 258,-1022.98 220,-1022.98"/>
<text text-anchor="middle" x="239" y="-1029.98" font-family="Helvetica,sans-Serif" font-size="10.00">bool</text>
</a>
</g>
</g>
<!-- Node8&#45;&gt;Node5 -->
<g id="edge42" class="edge">
<title>Node8&#45;&gt;Node5</title>
<path fill="none" stroke="#9a32cd" stroke-dasharray="5,2" d="M268.34,-1036.99C308.36,-1042.18 383.13,-1047.51 442,-1026.48 584.65,-975.53 588.51,-906.21 712,-818.48 833.2,-732.39 877.58,-730.4 992,-635.48 1016.94,-614.8 1042.3,-586.12 1054.88,-571.27"/>
<polygon fill="#9a32cd" stroke="#9a32cd" points="268.63,-1033.5 258.25,-1035.59 267.67,-1040.43 268.63,-1033.5"/>
<text text-anchor="middle" x="647" y="-921.48" font-family="Helvetica,sans-Serif" font-size="10.00"> ready</text>
</g>
<!-- Node8&#45;&gt;Node7 -->
<g id="edge8" class="edge">
<title>Node8&#45;&gt;Node7</title>
<path fill="none" stroke="#9a32cd" stroke-dasharray="5,2" d="M261.4,-1017.06C277.5,-1005.68 300.27,-990.04 321,-977.48 373.21,-945.85 399.12,-955.94 442,-912.48 484.67,-869.23 509.33,-797.85 517.21,-772.11"/>
<polygon fill="#9a32cd" stroke="#9a32cd" points="259.31,-1014.25 253.19,-1022.9 263.37,-1019.95 259.31,-1014.25"/>
<text text-anchor="middle" x="381.5" y="-980.48" font-family="Helvetica,sans-Serif" font-size="10.00"> nonblocking</text>
</g>
<!-- Node8&#45;&gt;Node31 -->
<g id="edge49" class="edge">
<title>Node8&#45;&gt;Node31</title>
<path fill="none" stroke="#9a32cd" stroke-dasharray="5,2" d="M268.2,-1039.98C283.69,-1043.87 303.3,-1048.44 321,-1051.48 368.96,-1059.73 423.98,-1065.54 463.99,-1069.11"/>
<polygon fill="#9a32cd" stroke="#9a32cd" points="268.76,-1036.51 258.21,-1037.42 267.03,-1043.29 268.76,-1036.51"/>
<text text-anchor="middle" x="381.5" y="-1070.48" font-family="Helvetica,sans-Serif" font-size="10.00"> discoverable_disabled</text>
</g>
<!-- Node9 -->
<g id="node9" class="node">
<title>Node9</title>
<g id="a_node9"><a xlink:title=" ">
<polygon fill="white" stroke="#bfbfbf" points="224.5,-724.98 224.5,-743.98 253.5,-743.98 253.5,-724.98 224.5,-724.98"/>
<text text-anchor="middle" x="239" y="-731.98" font-family="Helvetica,sans-Serif" font-size="10.00">int</text>
</a>
</g>
</g>
<!-- Node9&#45;&gt;Node7 -->
<g id="edge9" class="edge">
<title>Node9&#45;&gt;Node7</title>
<path fill="none" stroke="#9a32cd" stroke-dasharray="5,2" d="M263.71,-736.85C311.13,-741.6 418.25,-752.31 477.89,-758.27"/>
<polygon fill="#9a32cd" stroke="#9a32cd" points="263.8,-733.35 253.5,-735.83 263.11,-740.31 263.8,-733.35"/>
<text text-anchor="middle" x="381.5" y="-757.48" font-family="Helvetica,sans-Serif" font-size="10.00"> sfd</text>
</g>
<!-- Node10 -->
<g id="node10" class="node">
<title>Node10</title>
<g id="a_node10"><a xlink:href="classdpp_1_1opensslcontext.html" target="_top" xlink:title=" ">
<polygon fill="white" stroke="black" points="181.5,-903.98 181.5,-922.98 296.5,-922.98 296.5,-903.98 181.5,-903.98"/>
<text text-anchor="middle" x="239" y="-910.98" font-family="Helvetica,sans-Serif" font-size="10.00">dpp::opensslcontext</text>
</a>
</g>
</g>
<!-- Node10&#45;&gt;Node7 -->
<g id="edge10" class="edge">
<title>Node10&#45;&gt;Node7</title>
<path fill="none" stroke="#9a32cd" stroke-dasharray="5,2" d="M250.37,-895.27C263.75,-873.55 289.15,-837.88 321,-819.48 368.4,-792.11 389.7,-812.63 442,-796.48 462.89,-790.03 485.7,-779.68 501.22,-772.09"/>
<polygon fill="#9a32cd" stroke="#9a32cd" points="247.34,-893.51 245.24,-903.89 253.36,-897.09 247.34,-893.51"/>
<text text-anchor="middle" x="381.5" y="-822.48" font-family="Helvetica,sans-Serif" font-size="10.00"> ssl</text>
</g>
<!-- Node11 -->
<g id="node11" class="node">
<title>Node11</title>
<g id="a_node11"><a xlink:title=" ">
<polygon fill="white" stroke="#bfbfbf" points="31,-1000.98 31,-1019.98 73,-1019.98 73,-1000.98 31,-1000.98"/>
<text text-anchor="middle" x="52" y="-1007.98" font-family="Helvetica,sans-Serif" font-size="10.00">SSL *</text>
</a>
</g>
</g>
<!-- Node11&#45;&gt;Node10 -->
<g id="edge11" class="edge">
<title>Node11&#45;&gt;Node10</title>
<path fill="none" stroke="#9a32cd" stroke-dasharray="5,2" d="M73.65,-994.75C97.13,-977.48 137.12,-949.9 175,-932.48 182.89,-928.86 191.65,-925.71 200.06,-923.08"/>
<polygon fill="#9a32cd" stroke="#9a32cd" points="71.43,-992.04 65.5,-1000.82 75.61,-997.65 71.43,-992.04"/>
<text text-anchor="middle" x="139.5" y="-964.48" font-family="Helvetica,sans-Serif" font-size="10.00"> ssl</text>
</g>
<!-- Node12 -->
<g id="node12" class="node">
<title>Node12</title>
<g id="a_node12"><a xlink:title=" ">
<polygon fill="white" stroke="#bfbfbf" points="18.5,-1038.98 18.5,-1057.98 85.5,-1057.98 85.5,-1038.98 18.5,-1038.98"/>
<text text-anchor="middle" x="52" y="-1045.98" font-family="Helvetica,sans-Serif" font-size="10.00">SSL_CTX *</text>
</a>
</g>
</g>
<!-- Node12&#45;&gt;Node10 -->
<g id="edge12" class="edge">
<title>Node12&#45;&gt;Node10</title>
<path fill="none" stroke="#9a32cd" stroke-dasharray="5,2" d="M94.49,-1034.79C97.79,-1033.17 101.01,-1031.41 104,-1029.48 132.03,-1011.48 138.55,-1004.22 157,-976.48 168.7,-958.89 159.36,-946.7 175,-932.48 179.23,-928.64 184.21,-925.58 189.48,-923.13"/>
<polygon fill="#9a32cd" stroke="#9a32cd" points="92.77,-1031.72 85.03,-1038.95 95.59,-1038.13 92.77,-1031.72"/>
<text text-anchor="middle" x="139.5" y="-1020.48" font-family="Helvetica,sans-Serif" font-size="10.00"> ctx</text>
</g>
<!-- Node13 -->
<g id="node13" class="node">
<title>Node13</title>
<g id="a_node13"><a xlink:title=" ">
<polygon fill="white" stroke="#bfbfbf" points="215,-413.98 215,-432.98 263,-432.98 263,-413.98 215,-413.98"/>
<text text-anchor="middle" x="239" y="-420.98" font-family="Helvetica,sans-Serif" font-size="10.00">time_t</text>
</a>
</g>
</g>
<!-- Node13&#45;&gt;Node5 -->
<g id="edge36" class="edge">
<title>Node13&#45;&gt;Node5</title>
<path fill="none" stroke="#9a32cd" stroke-dasharray="5,2" d="M273.32,-421.04C324.23,-418.06 418,-415.82 442,-437.48 476.82,-468.92 424.62,-510.68 460,-541.48 540.88,-611.89 878.12,-582.47 1009.9,-567.87"/>
<polygon fill="#9a32cd" stroke="#9a32cd" points="272.91,-417.56 263.15,-421.68 273.35,-424.54 272.91,-417.56"/>
<text text-anchor="middle" x="647" y="-600.48" font-family="Helvetica,sans-Serif" font-size="10.00"> last_heartbeat</text>
<text text-anchor="middle" x="647" y="-589.48" font-family="Helvetica,sans-Serif" font-size="10.00">last_heartbeat_ack</text>
</g>
<!-- Node13&#45;&gt;Node7 -->
<g id="edge13" class="edge">
<title>Node13&#45;&gt;Node7</title>
<path fill="none" stroke="#9a32cd" stroke-dasharray="5,2" d="M251.21,-442.13C264.93,-465.58 288.16,-507.39 303,-545.48 314.04,-573.82 298.51,-591.02 321,-611.48 361.37,-648.22 396.99,-601.62 442,-632.48 486.5,-663 509.75,-728.01 517.24,-752.69"/>
<polygon fill="#9a32cd" stroke="#9a32cd" points="254.07,-440.1 245.97,-433.27 248.05,-443.66 254.07,-440.1"/>
<text text-anchor="middle" x="381.5" y="-635.48" font-family="Helvetica,sans-Serif" font-size="10.00"> last_tick</text>
</g>
<!-- Node13&#45;&gt;Node16 -->
<g id="edge18" class="edge">
<title>Node13&#45;&gt;Node16</title>
<path fill="none" stroke="#9a32cd" stroke-dasharray="5,2" d="M273.4,-418.19C287.98,-416.08 305.3,-413.83 321,-412.48 475.47,-399.25 660.54,-398.1 737.35,-398.27"/>
<polygon fill="#9a32cd" stroke="#9a32cd" points="272.7,-414.76 263.33,-419.69 273.73,-421.68 272.7,-414.76"/>
<text text-anchor="middle" x="521" y="-407.48" font-family="Helvetica,sans-Serif" font-size="10.00"> last_identify</text>
</g>
<!-- Node14 -->
<g id="node14" class="node">
<title>Node14</title>
<g id="a_node14"><a xlink:title=" ">
<polygon fill="white" stroke="#bfbfbf" points="24,-238.98 24,-257.98 80,-257.98 80,-238.98 24,-238.98"/>
<text text-anchor="middle" x="52" y="-245.98" font-family="Helvetica,sans-Serif" font-size="10.00">uint64_t</text>
</a>
</g>
</g>
<!-- Node14&#45;&gt;Node5 -->
<g id="edge38" class="edge">
<title>Node14&#45;&gt;Node5</title>
<path fill="none" stroke="#9a32cd" stroke-dasharray="5,2" d="M60.59,-229.5C81.23,-181.39 143.21,-58.48 238,-58.48 238,-58.48 238,-58.48 775.5,-58.48 880.05,-58.48 927.07,-68.54 992,-150.48 1043.71,-215.75 1059.81,-495.5 1062.55,-551.65"/>
<polygon fill="#9a32cd" stroke="#9a32cd" points="57.33,-228.22 56.72,-238.8 63.8,-230.91 57.33,-228.22"/>
<text text-anchor="middle" x="521" y="-61.48" font-family="Helvetica,sans-Serif" font-size="10.00"> last_seq</text>
</g>
<!-- Node14&#45;&gt;Node7 -->
<g id="edge14" class="edge">
<title>Node14&#45;&gt;Node7</title>
<path fill="none" stroke="#9a32cd" stroke-dasharray="5,2" d="M54.82,-268.46C63.04,-353.88 99.57,-687.13 175,-753.48 218.81,-792.02 395.62,-777.13 477.73,-767.8"/>
<polygon fill="#9a32cd" stroke="#9a32cd" points="58.29,-267.93 53.87,-258.3 51.32,-268.58 58.29,-267.93"/>
<text text-anchor="middle" x="239" y="-793.48" font-family="Helvetica,sans-Serif" font-size="10.00"> bytes_in</text>
<text text-anchor="middle" x="239" y="-782.48" font-family="Helvetica,sans-Serif" font-size="10.00">bytes_out</text>
</g>
<!-- Node21 -->
<g id="node21" class="node">
<title>Node21</title>
<g id="a_node21"><a xlink:href="classdpp_1_1managed.html" target="_top" xlink:title="The managed class is the base class for various types that can be stored in a cache that are identifi...">
<polygon fill="white" stroke="black" points="196,-162.98 196,-181.98 282,-181.98 282,-162.98 196,-162.98"/>
<text text-anchor="middle" x="239" y="-169.98" font-family="Helvetica,sans-Serif" font-size="10.00">dpp::managed</text>
</a>
</g>
</g>
<!-- Node14&#45;&gt;Node21 -->
<g id="edge25" class="edge">
<title>Node14&#45;&gt;Node21</title>
<path fill="none" stroke="#9a32cd" stroke-dasharray="5,2" d="M80.26,-234.36C104.67,-222.05 141.65,-204.23 175,-191.48 183.96,-188.06 193.83,-184.84 203.04,-182.05"/>
<polygon fill="#9a32cd" stroke="#9a32cd" points="78.57,-231.29 71.24,-238.95 81.74,-237.53 78.57,-231.29"/>
<text text-anchor="middle" x="139.5" y="-216.48" font-family="Helvetica,sans-Serif" font-size="10.00"> id</text>
</g>
<!-- Node23 -->
<g id="node23" class="node">
<title>Node23</title>
<g id="a_node23"><a xlink:href="structdpp_1_1utility_1_1iconhash.html" target="_top" xlink:title="Store a 128 bit icon hash (profile picture, server icon etc) as a 128 bit binary value made of two ui...">
<polygon fill="white" stroke="black" points="180,-238.98 180,-257.98 298,-257.98 298,-238.98 180,-238.98"/>
<text text-anchor="middle" x="239" y="-245.98" font-family="Helvetica,sans-Serif" font-size="10.00">dpp::utility::iconhash</text>
</a>
</g>
</g>
<!-- Node14&#45;&gt;Node23 -->
<g id="edge29" class="edge">
<title>Node14&#45;&gt;Node23</title>
<path fill="none" stroke="#9a32cd" stroke-dasharray="5,2" d="M90.37,-248.48C116.08,-248.48 150.72,-248.48 179.99,-248.48"/>
<polygon fill="#9a32cd" stroke="#9a32cd" points="90.3,-244.98 80.3,-248.48 90.3,-251.98 90.3,-244.98"/>
<text text-anchor="middle" x="139.5" y="-262.48" font-family="Helvetica,sans-Serif" font-size="10.00"> first</text>
<text text-anchor="middle" x="139.5" y="-251.48" font-family="Helvetica,sans-Serif" font-size="10.00">second</text>
</g>
<!-- Node14&#45;&gt;Node31 -->
<g id="edge46" class="edge">
<title>Node14&#45;&gt;Node31</title>
<path fill="none" stroke="#9a32cd" stroke-dasharray="5,2" d="M55.36,-268.28C69.85,-388.98 146.98,-1021.81 175,-1051.48 216.01,-1094.91 382.37,-1085.91 442,-1082.48 449.08,-1082.08 456.5,-1081.46 463.83,-1080.75"/>
<polygon fill="#9a32cd" stroke="#9a32cd" points="58.82,-267.74 54.16,-258.23 51.87,-268.58 58.82,-267.74"/>
<text text-anchor="middle" x="239" y="-1110.48" font-family="Helvetica,sans-Serif" font-size="10.00"> channel_id</text>
<text text-anchor="middle" x="239" y="-1099.48" font-family="Helvetica,sans-Serif" font-size="10.00">guild_id</text>
<text text-anchor="middle" x="239" y="-1088.48" font-family="Helvetica,sans-Serif" font-size="10.00">id</text>
</g>
<!-- Node15 -->
<g id="node15" class="node">
<title>Node15</title>
<g id="a_node15"><a xlink:title=" ">
<polygon fill="white" stroke="#bfbfbf" points="206.5,-554.98 206.5,-573.98 271.5,-573.98 271.5,-554.98 206.5,-554.98"/>
<text text-anchor="middle" x="239" y="-561.98" font-family="Helvetica,sans-Serif" font-size="10.00">function&lt;</text>
</a>
</g>
</g>
<!-- Node15&#45;&gt;Node7 -->
<g id="edge15" class="edge">
<title>Node15&#45;&gt;Node7</title>
<path fill="none" stroke="#9a32cd" stroke-dasharray="5,2" d="M254.03,-582.14C269.02,-600.06 294.28,-627.64 321,-645.48 369.4,-677.79 392.42,-665.03 442,-695.48 469.38,-712.3 496.82,-738.59 510.7,-752.72"/>
<polygon fill="#9a32cd" stroke="#9a32cd" points="256.57,-579.72 247.53,-574.2 251.15,-584.15 256.57,-579.72"/>
<text text-anchor="middle" x="381.5" y="-731.48" font-family="Helvetica,sans-Serif" font-size="10.00"> custom_readable_fd</text>
<text text-anchor="middle" x="381.5" y="-720.48" font-family="Helvetica,sans-Serif" font-size="10.00">custom_readable_ready</text>
<text text-anchor="middle" x="381.5" y="-709.48" font-family="Helvetica,sans-Serif" font-size="10.00">custom_writeable_fd</text>
<text text-anchor="middle" x="381.5" y="-698.48" font-family="Helvetica,sans-Serif" font-size="10.00">custom_writeable_ready</text>
</g>
<!-- Node19 -->
<g id="node19" class="node">
<title>Node19</title>
<g id="a_node19"><a xlink:href="classdpp_1_1dispatcher.html" target="_top" xlink:title="The dispatcher class contains a set of std::functions representing hooked events that the user code i...">
<polygon fill="white" stroke="black" points="475,-427.98 475,-446.98 567,-446.98 567,-427.98 475,-427.98"/>
<text text-anchor="middle" x="521" y="-434.98" font-family="Helvetica,sans-Serif" font-size="10.00">dpp::dispatcher</text>
</a>
</g>
</g>
<!-- Node15&#45;&gt;Node19 -->
<g id="edge22" class="edge">
<title>Node15&#45;&gt;Node19</title>
<path fill="none" stroke="#9a32cd" stroke-dasharray="5,2" d="M248.18,-545.83C260.18,-520.93 285.11,-477.63 321,-457.48 368.39,-430.89 432.21,-429.33 474.66,-432.15"/>
<polygon fill="#9a32cd" stroke="#9a32cd" points="244.97,-544.42 243.96,-554.96 251.33,-547.35 244.97,-544.42"/>
<text text-anchor="start" x="325.5" y="-603.48" font-family="Helvetica,sans-Serif" font-size="10.00"> application_command</text>
<text text-anchor="middle" x="381.5" y="-592.48" font-family="Helvetica,sans-Serif" font-size="10.00">_create</text>
<text text-anchor="start" x="325.5" y="-581.48" font-family="Helvetica,sans-Serif" font-size="10.00">application_command</text>
<text text-anchor="middle" x="381.5" y="-570.48" font-family="Helvetica,sans-Serif" font-size="10.00">_delete</text>
<text text-anchor="start" x="325.5" y="-559.48" font-family="Helvetica,sans-Serif" font-size="10.00">application_command</text>
<text text-anchor="middle" x="381.5" y="-548.48" font-family="Helvetica,sans-Serif" font-size="10.00">_update</text>
<text text-anchor="middle" x="381.5" y="-537.48" font-family="Helvetica,sans-Serif" font-size="10.00">button_click</text>
<text text-anchor="middle" x="381.5" y="-526.48" font-family="Helvetica,sans-Serif" font-size="10.00">channel_create</text>
<text text-anchor="middle" x="381.5" y="-515.48" font-family="Helvetica,sans-Serif" font-size="10.00">channel_delete</text>
<text text-anchor="middle" x="381.5" y="-504.48" font-family="Helvetica,sans-Serif" font-size="10.00">channel_pins_update</text>
<text text-anchor="middle" x="381.5" y="-493.48" font-family="Helvetica,sans-Serif" font-size="10.00">channel_update</text>
<text text-anchor="middle" x="381.5" y="-482.48" font-family="Helvetica,sans-Serif" font-size="10.00">guild_ban_add</text>
<text text-anchor="middle" x="381.5" y="-471.48" font-family="Helvetica,sans-Serif" font-size="10.00">guild_ban_remove</text>
<text text-anchor="middle" x="381.5" y="-460.48" font-family="Helvetica,sans-Serif" font-size="10.00">...</text>
</g>
<!-- Node16&#45;&gt;Node5 -->
<g id="edge16" class="edge">
<title>Node16&#45;&gt;Node5</title>
<path fill="none" stroke="#9a32cd" stroke-dasharray="5,2" d="M812.76,-411.53C857.37,-428.03 933.39,-458.98 992,-497.48 1016.69,-513.7 1041.37,-538.31 1054.12,-551.8"/>
<polygon fill="#9a32cd" stroke="#9a32cd" points="813.8,-408.18 803.2,-408.04 811.39,-414.76 813.8,-408.18"/>
<text text-anchor="middle" x="923.5" y="-500.48" font-family="Helvetica,sans-Serif" font-size="10.00"> creator</text>
</g>
<!-- Node17 -->
<g id="node17" class="node">
<title>Node17</title>
<g id="a_node17"><a xlink:title=" ">
<polygon fill="white" stroke="#bfbfbf" points="211,-112.98 211,-131.98 267,-131.98 267,-112.98 211,-112.98"/>
<text text-anchor="middle" x="239" y="-119.98" font-family="Helvetica,sans-Serif" font-size="10.00">uint32_t</text>
</a>
</g>
</g>
<!-- Node17&#45;&gt;Node5 -->
<g id="edge35" class="edge">
<title>Node17&#45;&gt;Node5</title>
<path fill="none" stroke="#9a32cd" stroke-dasharray="5,2" d="M276.9,-112.85C355.38,-94.02 543.93,-57.68 694,-99.48 843.05,-141.01 899.96,-155.1 992,-279.48 1058.22,-368.97 1063.04,-513.52 1063.1,-551.88"/>
<polygon fill="#9a32cd" stroke="#9a32cd" points="275.89,-109.49 267.01,-115.27 277.55,-116.29 275.89,-109.49"/>
<text text-anchor="middle" x="647" y="-157.48" font-family="Helvetica,sans-Serif" font-size="10.00"> heartbeat_interval</text>
<text text-anchor="middle" x="647" y="-146.48" font-family="Helvetica,sans-Serif" font-size="10.00">intents</text>
<text text-anchor="middle" x="647" y="-135.48" font-family="Helvetica,sans-Serif" font-size="10.00">max_shards</text>
<text text-anchor="middle" x="647" y="-124.48" font-family="Helvetica,sans-Serif" font-size="10.00">reconnects</text>
<text text-anchor="middle" x="647" y="-113.48" font-family="Helvetica,sans-Serif" font-size="10.00">resumes</text>
<text text-anchor="middle" x="647" y="-102.48" font-family="Helvetica,sans-Serif" font-size="10.00">shard_id</text>
</g>
<!-- Node17&#45;&gt;Node16 -->
<g id="edge19" class="edge">
<title>Node17&#45;&gt;Node16</title>
<path fill="none" stroke="#9a32cd" stroke-dasharray="5,2" d="M277.23,-120.43C328.33,-118.38 416.75,-117.8 442,-136.48 459.98,-149.79 443.57,-168.3 460,-183.48 501.52,-221.85 531.11,-194.86 582,-219.48 636.83,-246.01 649.71,-256.66 694,-298.48 725.28,-328.02 754.81,-370.22 767.27,-388.93"/>
<polygon fill="#9a32cd" stroke="#9a32cd" points="277.07,-116.94 267.24,-120.87 277.38,-123.93 277.07,-116.94"/>
<text text-anchor="middle" x="521" y="-255.48" font-family="Helvetica,sans-Serif" font-size="10.00"> cluster_id</text>
<text text-anchor="middle" x="521" y="-244.48" font-family="Helvetica,sans-Serif" font-size="10.00">intents</text>
<text text-anchor="middle" x="521" y="-233.48" font-family="Helvetica,sans-Serif" font-size="10.00">maxclusters</text>
<text text-anchor="middle" x="521" y="-222.48" font-family="Helvetica,sans-Serif" font-size="10.00">numshards</text>
</g>
<!-- Node17&#45;&gt;Node20 -->
<g id="edge30" class="edge">
<title>Node17&#45;&gt;Node20</title>
<path fill="none" stroke="#9a32cd" stroke-dasharray="5,2" d="M277.33,-127.84C334.9,-136.18 439.08,-151.6 442,-154.48 475.41,-187.42 430.47,-222.03 460,-258.48 467.41,-267.64 478.84,-273.32 489.74,-276.84"/>
<polygon fill="#9a32cd" stroke="#9a32cd" points="277.56,-124.34 267.16,-126.37 276.56,-131.26 277.56,-124.34"/>
<text text-anchor="middle" x="381.5" y="-157.48" font-family="Helvetica,sans-Serif" font-size="10.00"> flags</text>
</g>
<!-- Node18 -->
<g id="node18" class="node">
<title>Node18</title>
<g id="a_node18"><a xlink:title=" ">
<polygon fill="white" stroke="#bfbfbf" points="496,-512.98 496,-531.98 546,-531.98 546,-512.98 496,-512.98"/>
<text text-anchor="middle" x="521" y="-519.98" font-family="Helvetica,sans-Serif" font-size="10.00">double</text>
</a>
</g>
</g>
<!-- Node18&#45;&gt;Node5 -->
<g id="edge41" class="edge">
<title>Node18&#45;&gt;Node5</title>
<path fill="none" stroke="#9a32cd" stroke-dasharray="5,2" d="M556.27,-522.44C634.09,-522.76 829.94,-525.84 992,-547.48 1000.84,-548.67 1010.24,-550.27 1019.21,-551.97"/>
<polygon fill="#9a32cd" stroke="#9a32cd" points="556.1,-518.94 546.09,-522.42 556.08,-525.94 556.1,-518.94"/>
<text text-anchor="middle" x="774.5" y="-535.48" font-family="Helvetica,sans-Serif" font-size="10.00"> websocket_ping</text>
</g>
<!-- Node18&#45;&gt;Node16 -->
<g id="edge20" class="edge">
<title>Node18&#45;&gt;Node16</title>
<path fill="none" stroke="#9a32cd" stroke-dasharray="5,2" d="M555.62,-511.14C569.32,-506.66 585.35,-501.62 600,-497.48 641.39,-485.8 656.28,-495.16 694,-474.48 725.48,-457.23 753.6,-424.33 766.32,-408.07"/>
<polygon fill="#9a32cd" stroke="#9a32cd" points="554.51,-507.82 546.11,-514.27 556.7,-514.47 554.51,-507.82"/>
<text text-anchor="middle" x="647" y="-500.48" font-family="Helvetica,sans-Serif" font-size="10.00"> rest_ping</text>
</g>
<!-- Node19&#45;&gt;Node16 -->
<g id="edge21" class="edge">
<title>Node19&#45;&gt;Node16</title>
<path fill="none" stroke="#9a32cd" stroke-dasharray="5,2" d="M577.45,-429.85C611.18,-425.11 655.12,-418.73 694,-412.48 708.11,-410.22 723.6,-407.53 737.13,-405.13"/>
<polygon fill="#9a32cd" stroke="#9a32cd" points="576.74,-426.42 567.32,-431.27 577.71,-433.35 576.74,-426.42"/>
<text text-anchor="middle" x="647" y="-430.48" font-family="Helvetica,sans-Serif" font-size="10.00"> dispatch</text>
</g>
<!-- Node20&#45;&gt;Node16 -->
<g id="edge23" class="edge">
<title>Node20&#45;&gt;Node16</title>
<path fill="none" stroke="#9a32cd" stroke-dasharray="5,2" d="M562.23,-291.17C598.11,-299.87 651.4,-315.2 694,-337.48 721.44,-351.84 749.16,-375.72 763.5,-388.94"/>
<polygon fill="#9a32cd" stroke="#9a32cd" points="562.68,-287.68 552.14,-288.79 561.07,-294.49 562.68,-287.68"/>
<text text-anchor="middle" x="647" y="-340.48" font-family="Helvetica,sans-Serif" font-size="10.00"> me</text>
</g>
<!-- Node21&#45;&gt;Node20 -->
<g id="edge24" class="edge">
<title>Node21&#45;&gt;Node20</title>
<path fill="none" stroke="midnightblue" d="M292.36,-167.48C337.13,-166.12 400.69,-171.54 442,-206.48 460.67,-222.28 443.12,-240.79 460,-258.48 467.98,-266.85 479.25,-272.36 489.87,-275.97"/>
<polygon fill="midnightblue" stroke="midnightblue" points="292.1,-163.99 282.26,-167.91 292.4,-170.98 292.1,-163.99"/>
</g>
<!-- Node22 -->
<g id="node22" class="node">
<title>Node22</title>
<g id="a_node22"><a xlink:title=" ">
<polygon fill="white" stroke="#bfbfbf" points="211,-200.98 211,-219.98 267,-219.98 267,-200.98 211,-200.98"/>
<text text-anchor="middle" x="239" y="-207.98" font-family="Helvetica,sans-Serif" font-size="10.00">uint16_t</text>
</a>
</g>
</g>
<!-- Node22&#45;&gt;Node20 -->
<g id="edge27" class="edge">
<title>Node22&#45;&gt;Node20</title>
<path fill="none" stroke="#9a32cd" stroke-dasharray="5,2" d="M277.32,-208.7C319.62,-208.24 389.5,-212.32 442,-239.48 452.33,-244.83 450.38,-251.95 460,-258.48 469,-264.6 479.8,-269.52 489.73,-273.28"/>
<polygon fill="#9a32cd" stroke="#9a32cd" points="277.12,-205.21 267.19,-208.9 277.26,-212.2 277.12,-205.21"/>
<text text-anchor="middle" x="381.5" y="-242.48" font-family="Helvetica,sans-Serif" font-size="10.00"> discriminator</text>
</g>
<!-- Node23&#45;&gt;Node20 -->
<g id="edge28" class="edge">
<title>Node23&#45;&gt;Node20</title>
<path fill="none" stroke="#9a32cd" stroke-dasharray="5,2" d="M308.07,-253.25C347.33,-256.4 397.57,-261.14 442,-267.48 457.84,-269.75 475.34,-273.04 489.74,-275.96"/>
<polygon fill="#9a32cd" stroke="#9a32cd" points="308.32,-249.76 298.08,-252.46 307.77,-256.73 308.32,-249.76"/>
<text text-anchor="middle" x="381.5" y="-270.48" font-family="Helvetica,sans-Serif" font-size="10.00"> avatar</text>
</g>
<!-- Node24 -->
<g id="node24" class="node">
<title>Node24</title>
<g id="a_node24"><a xlink:title=" ">
<polygon fill="white" stroke="#bfbfbf" points="214,-276.98 214,-295.98 264,-295.98 264,-276.98 214,-276.98"/>
<text text-anchor="middle" x="239" y="-283.98" font-family="Helvetica,sans-Serif" font-size="10.00">uint8_t</text>
</a>
</g>
</g>
<!-- Node24&#45;&gt;Node20 -->
<g id="edge31" class="edge">
<title>Node24&#45;&gt;Node20</title>
<path fill="none" stroke="#9a32cd" stroke-dasharray="5,2" d="M274.11,-284.98C288.57,-284.4 305.6,-283.81 321,-283.48 380.93,-282.22 451.03,-282.21 489.99,-282.34"/>
<polygon fill="#9a32cd" stroke="#9a32cd" points="273.94,-281.48 264.1,-285.39 274.23,-288.48 273.94,-281.48"/>
<text text-anchor="middle" x="381.5" y="-286.48" font-family="Helvetica,sans-Serif" font-size="10.00"> refcount</text>
</g>
<!-- Node25 -->
<g id="node25" class="node">
<title>Node25</title>
<g id="a_node25"><a xlink:href="structdpp_1_1cache__policy__t.html" target="_top" xlink:title="Represents the caching policy of the cluster.">
<polygon fill="white" stroke="black" points="464.5,-326.98 464.5,-345.98 577.5,-345.98 577.5,-326.98 464.5,-326.98"/>
<text text-anchor="middle" x="521" y="-333.98" font-family="Helvetica,sans-Serif" font-size="10.00">dpp::cache_policy_t</text>
</a>
</g>
</g>
<!-- Node25&#45;&gt;Node16 -->
<g id="edge32" class="edge">
<title>Node25&#45;&gt;Node16</title>
<path fill="none" stroke="#9a32cd" stroke-dasharray="5,2" d="M582.34,-348.04C615.47,-354.74 657.2,-363.76 694,-373.48 711.21,-378.03 730.23,-383.98 745.35,-388.93"/>
<polygon fill="#9a32cd" stroke="#9a32cd" points="582.84,-344.57 572.34,-346.03 581.46,-351.43 582.84,-344.57"/>
<text text-anchor="middle" x="647" y="-376.48" font-family="Helvetica,sans-Serif" font-size="10.00"> cache_policy</text>
</g>
<!-- Node26 -->
<g id="node26" class="node">
<title>Node26</title>
<g id="a_node26"><a xlink:title=" ">
<polygon fill="white" stroke="#bfbfbf" points="175,-314.98 175,-333.98 303,-333.98 303,-314.98 175,-314.98"/>
<text text-anchor="middle" x="239" y="-321.98" font-family="Helvetica,sans-Serif" font-size="10.00">cache_policy_setting_t</text>
</a>
</g>
</g>
<!-- Node26&#45;&gt;Node25 -->
<g id="edge33" class="edge">
<title>Node26&#45;&gt;Node25</title>
<path fill="none" stroke="#9a32cd" stroke-dasharray="5,2" d="M313.51,-316.52C351.92,-313.72 399.62,-312.4 442,-317.48 457.5,-319.34 474.37,-323.21 488.44,-326.98"/>
<polygon fill="#9a32cd" stroke="#9a32cd" points="313.14,-313.04 303.45,-317.3 313.69,-320.02 313.14,-313.04"/>
<text text-anchor="middle" x="381.5" y="-342.48" font-family="Helvetica,sans-Serif" font-size="10.00"> emoji_policy</text>
<text text-anchor="middle" x="381.5" y="-331.48" font-family="Helvetica,sans-Serif" font-size="10.00">role_policy</text>
<text text-anchor="middle" x="381.5" y="-320.48" font-family="Helvetica,sans-Serif" font-size="10.00">user_policy</text>
</g>
<!-- Node27 -->
<g id="node27" class="node">
<title>Node27</title>
<g id="a_node27"><a xlink:title=" ">
<polygon fill="white" stroke="#bfbfbf" points="460,-154.98 460,-173.98 582,-173.98 582,-154.98 460,-154.98"/>
<text text-anchor="middle" x="521" y="-161.98" font-family="Helvetica,sans-Serif" font-size="10.00">websocket_protocol_t</text>
</a>
</g>
</g>
<!-- Node27&#45;&gt;Node5 -->
<g id="edge43" class="edge">
<title>Node27&#45;&gt;Node5</title>
<path fill="none" stroke="#9a32cd" stroke-dasharray="5,2" d="M592.37,-167.98C624.43,-171.56 662.22,-178.62 694,-192.48 847.84,-259.61 884.68,-295.43 992,-424.48 1026.77,-466.3 1051.04,-527.94 1059.6,-551.68"/>
<polygon fill="#9a32cd" stroke="#9a32cd" points="592.49,-164.48 582.18,-166.94 591.77,-171.44 592.49,-164.48"/>
<text text-anchor="middle" x="774.5" y="-269.48" font-family="Helvetica,sans-Serif" font-size="10.00"> protocol</text>
</g>
<!-- Node27&#45;&gt;Node16 -->
<g id="edge34" class="edge">
<title>Node27&#45;&gt;Node16</title>
<path fill="none" stroke="#9a32cd" stroke-dasharray="5,2" d="M559.82,-177.19C572.53,-181.31 586.83,-185.77 600,-189.48 641.39,-201.17 661.2,-184.66 694,-212.48 751.05,-260.87 768.2,-357.5 772.35,-388.6"/>
<polygon fill="#9a32cd" stroke="#9a32cd" points="560.61,-173.77 550.02,-173.99 558.43,-180.42 560.61,-173.77"/>
<text text-anchor="middle" x="647" y="-215.48" font-family="Helvetica,sans-Serif" font-size="10.00"> ws_mode</text>
</g>
<!-- Node28 -->
<g id="node28" class="node">
<title>Node28</title>
<g id="a_node28"><a xlink:title=" ">
<polygon fill="white" stroke="#bfbfbf" points="718,-10.98 718,-29.98 831,-29.98 831,-10.98 718,-10.98"/>
<text text-anchor="middle" x="774.5" y="-17.98" font-family="Helvetica,sans-Serif" font-size="10.00">native_handle_type</text>
</a>
</g>
</g>
<!-- Node28&#45;&gt;Node5 -->
<g id="edge37" class="edge">
<title>Node28&#45;&gt;Node5</title>
<path fill="none" stroke="#9a32cd" stroke-dasharray="5,2" d="M818.59,-8.7C867.29,1.75 945.77,9.46 992,-33.48 1031.73,-70.39 1058.25,-482.72 1062.42,-551.72"/>
<polygon fill="#9a32cd" stroke="#9a32cd" points="817.65,-5.32 808.68,-10.95 819.21,-12.15 817.65,-5.32"/>
<text text-anchor="middle" x="923.5" y="-36.48" font-family="Helvetica,sans-Serif" font-size="10.00"> thread_id</text>
</g>
<!-- Node29 -->
<g id="node29" class="node">
<title>Node29</title>
<g id="a_node29"><a xlink:title=" ">
<polygon fill="white" stroke="#bfbfbf" points="740,-865.98 740,-884.98 809,-884.98 809,-865.98 740,-865.98"/>
<text text-anchor="middle" x="774.5" y="-872.98" font-family="Helvetica,sans-Serif" font-size="10.00">std::mutex</text>
</a>
</g>
</g>
<!-- Node29&#45;&gt;Node5 -->
<g id="edge40" class="edge">
<title>Node29&#45;&gt;Node5</title>
<path fill="none" stroke="#9a32cd" stroke-dasharray="5,2" d="M819.57,-876.8C875.33,-877.5 967.11,-875.17 992,-853.48 1036.35,-814.84 1057.66,-617.71 1062.11,-571.29"/>
<polygon fill="#9a32cd" stroke="#9a32cd" points="819.32,-873.29 809.27,-876.63 819.21,-880.29 819.32,-873.29"/>
<text text-anchor="middle" x="923.5" y="-880.48" font-family="Helvetica,sans-Serif" font-size="10.00"> voice_mutex</text>
</g>
<!-- Node30 -->
<g id="node30" class="node">
<title>Node30</title>
<g id="a_node30"><a xlink:title=" ">
<polygon fill="white" stroke="#bfbfbf" points="724,-827.98 724,-846.98 825,-846.98 825,-827.98 724,-827.98"/>
<text text-anchor="middle" x="774.5" y="-834.98" font-family="Helvetica,sans-Serif" font-size="10.00">unordered_map&lt;</text>
</a>
</g>
</g>
<!-- Node30&#45;&gt;Node5 -->
<g id="edge44" class="edge">
<title>Node30&#45;&gt;Node5</title>
<path fill="none" stroke="#9a32cd" stroke-dasharray="5,2" d="M835.21,-838.13C891.01,-837.48 969.06,-832.94 992,-813.48 1030.74,-780.63 1055.95,-613.07 1061.73,-571.05"/>
<polygon fill="#9a32cd" stroke="#9a32cd" points="835.05,-834.64 825.07,-838.21 835.1,-841.64 835.05,-834.64"/>
<text text-anchor="middle" x="923.5" y="-841.48" font-family="Helvetica,sans-Serif" font-size="10.00"> connecting_voice_channels</text>
</g>
<!-- Node31&#45;&gt;Node1 -->
<g id="edge45" class="edge">
<title>Node31&#45;&gt;Node1</title>
<path fill="none" stroke="#9a32cd" stroke-dasharray="5,2" d="M588.54,-1067.35C639.2,-1063.2 710.69,-1058.48 773.5,-1058.48 773.5,-1058.48 773.5,-1058.48 1244,-1058.48 1276.71,-1058.48 1312.9,-1053.35 1341.98,-1047.93"/>
<polygon fill="#9a32cd" stroke="#9a32cd" points="588.05,-1063.88 578.38,-1068.2 588.63,-1070.85 588.05,-1063.88"/>
<text text-anchor="middle" x="1064" y="-1061.48" font-family="Helvetica,sans-Serif" font-size="10.00"> created</text>
</g>
<!-- Node32 -->
<g id="node32" class="node">
<title>Node32</title>
<g id="a_node32"><a xlink:title=" ">
<polygon fill="white" stroke="#bfbfbf" points="182,-1129.98 182,-1148.98 296,-1148.98 296,-1129.98 182,-1129.98"/>
<text text-anchor="middle" x="239" y="-1136.98" font-family="Helvetica,sans-Serif" font-size="10.00">stage_privacy_level</text>
</a>
</g>
</g>
<!-- Node32&#45;&gt;Node31 -->
<g id="edge48" class="edge">
<title>Node32&#45;&gt;Node31</title>
<path fill="none" stroke="#9a32cd" stroke-dasharray="5,2" d="M306.57,-1136.7C346.56,-1133.62 398.04,-1127.13 442,-1113.48 465.26,-1106.27 489.91,-1092.45 505.13,-1083.1"/>
<polygon fill="#9a32cd" stroke="#9a32cd" points="306.13,-1133.23 296.4,-1137.43 306.63,-1140.21 306.13,-1133.23"/>
<text text-anchor="middle" x="381.5" y="-1138.48" font-family="Helvetica,sans-Serif" font-size="10.00"> privacy_level</text>
</g>
</g>
</svg>
        <g id="navigator" transform="translate(0 0)" fill="#404254">
                <rect fill="#f2f5e9" fill-opacity="0.5" stroke="#606060" stroke-width=".5" x="0" y="0" width="60" height="60"/>
                <use id="zoomplus" xlink:href="#zoomPlus" x="17" y="9" onmousedown="handleZoom(evt,'in')"/>
                <use id="zoomminus" xlink:href="#zoomMin" x="42" y="9" onmousedown="handleZoom(evt,'out')"/>
                <use id="reset" xlink:href="#resetDef" x="30" y="36" onmousedown="handleReset()"/>
                <g id="arrowUp" xlink:href="#dirArrow" transform="translate(30 24)" onmousedown="handlePan(0,-1)">
                  <use xlink:href="#rim" fill="#404040">
                        <set attributeName="fill" to="#808080" begin="arrowUp.mouseover" end="arrowUp.mouseout"/>
                  </use>
                  <path fill="none" stroke="white" stroke-width="1.5" d="M0,-3.0v7 M-2.5,-0.5L0,-3.0L2.5,-0.5"/>
                </g>
                <g id="arrowRight" xlink:href="#dirArrow" transform="rotate(90) translate(36 -43)" onmousedown="handlePan(1,0)">
                  <use xlink:href="#rim" fill="#404040">
                        <set attributeName="fill" to="#808080" begin="arrowRight.mouseover" end="arrowRight.mouseout"/>
                  </use>
                  <path fill="none" stroke="white" stroke-width="1.5" d="M0,-3.0v7 M-2.5,-0.5L0,-3.0L2.5,-0.5"/>
                </g>
                <g id="arrowDown" xlink:href="#dirArrow" transform="rotate(180) translate(-30 -48)" onmousedown="handlePan(0,1)">
                  <use xlink:href="#rim" fill="#404040">
                        <set attributeName="fill" to="#808080" begin="arrowDown.mouseover" end="arrowDown.mouseout"/>
                  </use>
                  <path fill="none" stroke="white" stroke-width="1.5" d="M0,-3.0v7 M-2.5,-0.5L0,-3.0L2.5,-0.5"/>
                </g>
                <g id="arrowLeft" xlink:href="#dirArrow" transform="rotate(270) translate(-36 17)" onmousedown="handlePan(-1,0)">
                  <use xlink:href="#rim" fill="#404040">
                        <set attributeName="fill" to="#808080" begin="arrowLeft.mouseover" end="arrowLeft.mouseout"/>
                  </use>
                  <path fill="none" stroke="white" stroke-width="1.5" d="M0,-3.0v7 M-2.5,-0.5L0,-3.0L2.5,-0.5"/>
                </g>
        </g>
        <svg viewBox="0 0 15 15" width="100%" height="30px" preserveAspectRatio="xMaxYMin meet">
         <g id="arrow_out" transform="scale(0.3 0.3)">
          <a xlink:href="structdpp_1_1stage__instance__create__t__coll__graph_org.svg" target="_base">
           <rect id="button" ry="5" rx="5" y="6" x="6" height="38" width="38"
                fill="#f2f5e9" fill-opacity="0.5" stroke="#606060" stroke-width="1.0"/>
           <path id="arrow"
             d="M 11.500037,31.436501 C 11.940474,20.09759 22.043105,11.32322 32.158766,21.979434 L 37.068811,17.246167 C 37.068811,17.246167 37.088388,32 37.088388,32 L 22.160133,31.978069 C 22.160133,31.978069 26.997745,27.140456 26.997745,27.140456 C 18.528582,18.264221 13.291696,25.230495 11.500037,31.436501 z"
             style="fill:#404040;"/>
          </a>
         </g>
        </svg>
</svg>
