<?xml version="1.0" encoding="UTF-8" standalone="no"?>
<!DOCTYPE svg PUBLIC "-//W3C//DTD SVG 1.1//EN"
 "http://www.w3.org/Graphics/SVG/1.1/DTD/svg11.dtd">
<!-- Generated by graphviz version 2.43.0 (0)
 -->
<!-- Title: dpp::stage_instance_delete_t Pages: 1 -->
<!--zoomable 1118 -->
<svg id="main" version="1.1" xmlns="http://www.w3.org/2000/svg" xmlns:xlink="http://www.w3.org/1999/xlink" xml:space="preserve" onload="init(evt)">
<style type="text/css"><![CDATA[
.edge:hover path { stroke: red; }
.edge:hover polygon { stroke: red; fill: red; }
]]></style>
<script type="text/javascript"><![CDATA[
var edges = document.getElementsByTagName('g');
if (edges && edges.length) {
  for (var i=0;i<edges.length;i++) {
    if (edges[i].id.substr(0,4)=='edge') {
      edges[i].setAttribute('class','edge');
    }
  }
}
]]></script>
        <defs>
                <circle id="rim" cx="0" cy="0" r="7"/>
                <circle id="rim2" cx="0" cy="0" r="3.5"/>
                <g id="zoomPlus">
                        <use xlink:href="#rim" fill="#404040">
                                <set attributeName="fill" to="#808080" begin="zoomplus.mouseover" end="zoomplus.mouseout"/>
                        </use>
                        <path d="M-4,0h8M0,-4v8" fill="none" stroke="white" stroke-width="1.5" pointer-events="none"/>
                </g>
                <g id="zoomMin">
                        <use xlink:href="#rim" fill="#404040">
                                <set attributeName="fill" to="#808080" begin="zoomminus.mouseover" end="zoomminus.mouseout"/>
                        </use>
                        <path d="M-4,0h8" fill="none" stroke="white" stroke-width="1.5" pointer-events="none"/>
                </g>
                <g id="dirArrow">
                        <path fill="none" stroke="white" stroke-width="1.5" d="M0,-3.0v7 M-2.5,-0.5L0,-3.0L2.5,-0.5"/>
                </g>
               <g id="resetDef">
                       <use xlink:href="#rim2" fill="#404040">
                               <set attributeName="fill" to="#808080" begin="reset.mouseover" end="reset.mouseout"/>
                       </use>
               </g>
        </defs>

<script type="text/javascript">
var viewWidth = 1455;
var viewHeight = 1118;
var sectionId = 'dynsection-1';
</script>
<script xlink:href="svgpan.js"/>
<svg id="graph" class="graph">
<g id="viewport">
<title>dpp::stage_instance_delete_t</title>
<polygon fill="white" stroke="transparent" points="-4,4 -4,-1114 1451,-1114 1451,4 -4,4"/>
<!-- Node1 -->
<g id="node1" class="node">
<title>Node1</title>
<g id="a_node1"><a xlink:title="Delete stage instance.">
<polygon fill="#bfbfbf" stroke="black" points="1333,-408 1333,-438 1447,-438 1447,-408 1333,-408"/>
<text text-anchor="start" x="1341" y="-426" font-family="Helvetica,sans-Serif" font-size="10.00">dpp::stage_instance</text>
<text text-anchor="middle" x="1390" y="-415" font-family="Helvetica,sans-Serif" font-size="10.00">_delete_t</text>
</a>
</g>
</g>
<!-- Node2 -->
<g id="node2" class="node">
<title>Node2</title>
<g id="a_node2"><a xlink:href="structdpp_1_1event__dispatch__t.html" target="_top" xlink:title="Base event parameter struct.">
<polygon fill="white" stroke="black" points="1172,-814.5 1172,-833.5 1296,-833.5 1296,-814.5 1172,-814.5"/>
<text text-anchor="middle" x="1234" y="-821.5" font-family="Helvetica,sans-Serif" font-size="10.00">dpp::event_dispatch_t</text>
</a>
</g>
</g>
<!-- Node2&#45;&gt;Node1 -->
<g id="edge1" class="edge">
<title>Node2&#45;&gt;Node1</title>
<path fill="none" stroke="midnightblue" d="M1242.34,-804.89C1268.83,-735.9 1359.25,-500.46 1383.16,-438.2"/>
<polygon fill="midnightblue" stroke="midnightblue" points="1238.97,-803.89 1238.65,-814.48 1245.51,-806.4 1238.97,-803.89"/>
</g>
<!-- Node3 -->
<g id="node3" class="node">
<title>Node3</title>
<g id="a_node3"><a xlink:title=" ">
<polygon fill="white" stroke="#bfbfbf" points="206.5,-911.5 206.5,-930.5 271.5,-930.5 271.5,-911.5 206.5,-911.5"/>
<text text-anchor="middle" x="239" y="-918.5" font-family="Helvetica,sans-Serif" font-size="10.00">std::string</text>
</a>
</g>
</g>
<!-- Node3&#45;&gt;Node1 -->
<g id="edge45" class="edge">
<title>Node3&#45;&gt;Node1</title>
<path fill="none" stroke="#9a32cd" stroke-dasharray="5,2" d="M248.88,-939.72C261.54,-964.49 287.06,-1007.95 321,-1033 394.44,-1087.21 424.21,-1099 515.5,-1099 515.5,-1099 515.5,-1099 1235,-1099 1375.38,-1099 1387.8,-537.81 1388.89,-438.07"/>
<polygon fill="#9a32cd" stroke="#9a32cd" points="251.96,-938.05 244.39,-930.64 245.68,-941.16 251.96,-938.05"/>
<text text-anchor="middle" x="914.5" y="-1102" font-family="Helvetica,sans-Serif" font-size="10.00"> topic</text>
</g>
<!-- Node3&#45;&gt;Node2 -->
<g id="edge2" class="edge">
<title>Node3&#45;&gt;Node2</title>
<path fill="none" stroke="#9a32cd" stroke-dasharray="5,2" d="M257.69,-937.41C299.24,-974.19 407.74,-1060 515.5,-1060 515.5,-1060 515.5,-1060 1056,-1060 1171.23,-1060 1220.64,-877.7 1230.91,-833.54"/>
<polygon fill="#9a32cd" stroke="#9a32cd" points="259.85,-934.65 250.07,-930.55 255.16,-939.85 259.85,-934.65"/>
<text text-anchor="middle" x="765.5" y="-1063" font-family="Helvetica,sans-Serif" font-size="10.00"> raw_event</text>
</g>
<!-- Node5 -->
<g id="node5" class="node">
<title>Node5</title>
<g id="a_node5"><a xlink:href="classdpp_1_1discord__client.html" target="_top" xlink:title="Implements a discord client. Each discord_client connects to one shard and derives from a websocket c...">
<polygon fill="white" stroke="black" points="1001,-814.5 1001,-833.5 1109,-833.5 1109,-814.5 1001,-814.5"/>
<text text-anchor="middle" x="1055" y="-821.5" font-family="Helvetica,sans-Serif" font-size="10.00">dpp::discord_client</text>
</a>
</g>
</g>
<!-- Node3&#45;&gt;Node5 -->
<g id="edge38" class="edge">
<title>Node3&#45;&gt;Node5</title>
<path fill="none" stroke="#9a32cd" stroke-dasharray="5,2" d="M281.77,-922.84C294.38,-923.32 308.25,-923.76 321,-924 374.77,-925 388.23,-924.88 442,-924 550.04,-922.22 577.51,-927.09 685,-916 818.74,-902.2 856.38,-909.2 983,-864 1004.19,-856.44 1026.44,-842.84 1040.27,-833.62"/>
<polygon fill="#9a32cd" stroke="#9a32cd" points="281.67,-919.34 271.54,-922.44 281.39,-926.33 281.67,-919.34"/>
<text text-anchor="middle" x="638" y="-937" font-family="Helvetica,sans-Serif" font-size="10.00"> sessionid</text>
<text text-anchor="middle" x="638" y="-926" font-family="Helvetica,sans-Serif" font-size="10.00">token</text>
</g>
<!-- Node7 -->
<g id="node7" class="node">
<title>Node7</title>
<g id="a_node7"><a xlink:href="classdpp_1_1ssl__client.html" target="_top" xlink:title="Implements a simple non&#45;blocking SSL stream client.">
<polygon fill="white" stroke="black" points="473.5,-746.5 473.5,-765.5 559.5,-765.5 559.5,-746.5 473.5,-746.5"/>
<text text-anchor="middle" x="516.5" y="-753.5" font-family="Helvetica,sans-Serif" font-size="10.00">dpp::ssl_client</text>
</a>
</g>
</g>
<!-- Node3&#45;&gt;Node7 -->
<g id="edge7" class="edge">
<title>Node3&#45;&gt;Node7</title>
<path fill="none" stroke="#9a32cd" stroke-dasharray="5,2" d="M252.99,-903.25C267.44,-884.87 292.56,-856.82 321,-842 369.55,-816.7 392.67,-842.72 442,-819 469.26,-805.89 494.52,-780.07 507.12,-765.89"/>
<polygon fill="#9a32cd" stroke="#9a32cd" points="250.06,-901.32 246.78,-911.39 255.62,-905.56 250.06,-901.32"/>
<text text-anchor="middle" x="381.5" y="-889" font-family="Helvetica,sans-Serif" font-size="10.00"> buffer</text>
<text text-anchor="middle" x="381.5" y="-878" font-family="Helvetica,sans-Serif" font-size="10.00">cipher</text>
<text text-anchor="middle" x="381.5" y="-867" font-family="Helvetica,sans-Serif" font-size="10.00">hostname</text>
<text text-anchor="middle" x="381.5" y="-856" font-family="Helvetica,sans-Serif" font-size="10.00">obuffer</text>
<text text-anchor="middle" x="381.5" y="-845" font-family="Helvetica,sans-Serif" font-size="10.00">port</text>
</g>
<!-- Node16 -->
<g id="node16" class="node">
<title>Node16</title>
<g id="a_node16"><a xlink:href="classdpp_1_1cluster.html" target="_top" xlink:title="The cluster class represents a group of shards and a command queue for sending and receiving commands...">
<polygon fill="white" stroke="black" points="728.5,-491.5 728.5,-510.5 802.5,-510.5 802.5,-491.5 728.5,-491.5"/>
<text text-anchor="middle" x="765.5" y="-498.5" font-family="Helvetica,sans-Serif" font-size="10.00">dpp::cluster</text>
</a>
</g>
</g>
<!-- Node3&#45;&gt;Node16 -->
<g id="edge17" class="edge">
<title>Node3&#45;&gt;Node16</title>
<path fill="none" stroke="#9a32cd" stroke-dasharray="5,2" d="M281.96,-923.43C324.31,-924.21 390.6,-920.82 442,-897 579.72,-833.16 613.7,-791.01 685,-657 702.32,-624.44 686.87,-609.16 703,-576 715.96,-549.35 740.17,-523.89 754.03,-510.59"/>
<polygon fill="#9a32cd" stroke="#9a32cd" points="281.83,-919.92 271.74,-923.14 281.64,-926.92 281.83,-919.92"/>
<text text-anchor="middle" x="516.5" y="-890" font-family="Helvetica,sans-Serif" font-size="10.00"> token</text>
</g>
<!-- Node20 -->
<g id="node20" class="node">
<title>Node20</title>
<g id="a_node20"><a xlink:href="classdpp_1_1user.html" target="_top" xlink:title="Represents a user on discord. May or may not be a member of a dpp::guild.">
<polygon fill="white" stroke="black" points="485.5,-199.5 485.5,-218.5 547.5,-218.5 547.5,-199.5 485.5,-199.5"/>
<text text-anchor="middle" x="516.5" y="-206.5" font-family="Helvetica,sans-Serif" font-size="10.00">dpp::user</text>
</a>
</g>
</g>
<!-- Node3&#45;&gt;Node20 -->
<g id="edge26" class="edge">
<title>Node3&#45;&gt;Node20</title>
<path fill="none" stroke="#9a32cd" stroke-dasharray="5,2" d="M260.61,-904.67C275.21,-891.79 293.78,-872.47 303,-851 323.14,-804.1 290.69,-663.07 321,-622 355.35,-575.45 407.89,-620.73 442,-574 476.67,-526.51 443.45,-366.43 460,-310 470.64,-273.71 495.82,-235.96 508.27,-218.68"/>
<polygon fill="#9a32cd" stroke="#9a32cd" points="257.95,-902.34 252.58,-911.47 262.47,-907.68 257.95,-902.34"/>
<text text-anchor="middle" x="381.5" y="-625" font-family="Helvetica,sans-Serif" font-size="10.00"> username</text>
</g>
<!-- Node4 -->
<g id="node4" class="node">
<title>Node4</title>
<g id="a_node4"><a xlink:title=" ">
<polygon fill="white" stroke="#bfbfbf" points="0,-906 0,-936 104,-936 104,-906 0,-906"/>
<text text-anchor="start" x="8" y="-924" font-family="Helvetica,sans-Serif" font-size="10.00">std::basic_string&lt;</text>
<text text-anchor="middle" x="52" y="-913" font-family="Helvetica,sans-Serif" font-size="10.00"> Char &gt;</text>
</a>
</g>
</g>
<!-- Node4&#45;&gt;Node3 -->
<g id="edge3" class="edge">
<title>Node4&#45;&gt;Node3</title>
<path fill="none" stroke="midnightblue" d="M114.26,-921C145.05,-921 181.08,-921 206.29,-921"/>
<polygon fill="midnightblue" stroke="midnightblue" points="114.04,-917.5 104.04,-921 114.04,-924.5 114.04,-917.5"/>
</g>
<!-- Node5&#45;&gt;Node2 -->
<g id="edge4" class="edge">
<title>Node5&#45;&gt;Node2</title>
<path fill="none" stroke="#9a32cd" stroke-dasharray="5,2" d="M1119.52,-824C1136.56,-824 1154.94,-824 1171.85,-824"/>
<polygon fill="#9a32cd" stroke="#9a32cd" points="1119.11,-820.5 1109.11,-824 1119.11,-827.5 1119.11,-820.5"/>
<text text-anchor="middle" x="1140.5" y="-827" font-family="Helvetica,sans-Serif" font-size="10.00"> from</text>
</g>
<!-- Node6 -->
<g id="node6" class="node">
<title>Node6</title>
<g id="a_node6"><a xlink:href="classdpp_1_1websocket__client.html" target="_top" xlink:title="Implements a websocket client based on the SSL client.">
<polygon fill="white" stroke="black" points="703,-814.5 703,-833.5 828,-833.5 828,-814.5 703,-814.5"/>
<text text-anchor="middle" x="765.5" y="-821.5" font-family="Helvetica,sans-Serif" font-size="10.00">dpp::websocket_client</text>
</a>
</g>
</g>
<!-- Node6&#45;&gt;Node5 -->
<g id="edge5" class="edge">
<title>Node6&#45;&gt;Node5</title>
<path fill="none" stroke="midnightblue" d="M838.35,-824C888.71,-824 954.93,-824 1000.64,-824"/>
<polygon fill="midnightblue" stroke="midnightblue" points="838.18,-820.5 828.18,-824 838.18,-827.5 838.18,-820.5"/>
</g>
<!-- Node7&#45;&gt;Node6 -->
<g id="edge6" class="edge">
<title>Node7&#45;&gt;Node6</title>
<path fill="none" stroke="midnightblue" d="M561.93,-768.23C610.04,-781.48 685.77,-802.33 729.73,-814.43"/>
<polygon fill="midnightblue" stroke="midnightblue" points="562.67,-764.81 552.1,-765.53 560.82,-771.56 562.67,-764.81"/>
</g>
<!-- Node8 -->
<g id="node8" class="node">
<title>Node8</title>
<g id="a_node8"><a xlink:title=" ">
<polygon fill="white" stroke="#bfbfbf" points="220,-784.5 220,-803.5 258,-803.5 258,-784.5 220,-784.5"/>
<text text-anchor="middle" x="239" y="-791.5" font-family="Helvetica,sans-Serif" font-size="10.00">bool</text>
</a>
</g>
</g>
<!-- Node8&#45;&gt;Node5 -->
<g id="edge41" class="edge">
<title>Node8&#45;&gt;Node5</title>
<path fill="none" stroke="#9a32cd" stroke-dasharray="5,2" d="M268.02,-796.07C280.38,-798.42 294.09,-803.24 303,-813 329.91,-842.49 290.16,-875.65 321,-901 368.72,-940.23 398.22,-901.78 460,-902 510.22,-902.18 522.93,-905.88 573,-902 664.94,-894.87 892.19,-854.03 983,-838 990.79,-836.62 999.05,-835.08 1007.07,-833.53"/>
<polygon fill="#9a32cd" stroke="#9a32cd" points="268.49,-792.6 258.09,-794.62 267.48,-799.53 268.49,-792.6"/>
<text text-anchor="middle" x="638" y="-904" font-family="Helvetica,sans-Serif" font-size="10.00"> ready</text>
</g>
<!-- Node8&#45;&gt;Node7 -->
<g id="edge8" class="edge">
<title>Node8&#45;&gt;Node7</title>
<path fill="none" stroke="#9a32cd" stroke-dasharray="5,2" d="M268.15,-785.95C283.63,-781.8 303.24,-777 321,-774 373,-765.23 433.59,-760.47 473.15,-758.09"/>
<polygon fill="#9a32cd" stroke="#9a32cd" points="266.89,-782.66 258.17,-788.68 268.74,-789.41 266.89,-782.66"/>
<text text-anchor="middle" x="381.5" y="-777" font-family="Helvetica,sans-Serif" font-size="10.00"> nonblocking</text>
</g>
<!-- Node9 -->
<g id="node9" class="node">
<title>Node9</title>
<g id="a_node9"><a xlink:title=" ">
<polygon fill="white" stroke="#bfbfbf" points="224.5,-746.5 224.5,-765.5 253.5,-765.5 253.5,-746.5 224.5,-746.5"/>
<text text-anchor="middle" x="239" y="-753.5" font-family="Helvetica,sans-Serif" font-size="10.00">int</text>
</a>
</g>
</g>
<!-- Node9&#45;&gt;Node7 -->
<g id="edge9" class="edge">
<title>Node9&#45;&gt;Node7</title>
<path fill="none" stroke="#9a32cd" stroke-dasharray="5,2" d="M263.74,-750.04C279.79,-746.33 301.53,-741.9 321,-740 374.52,-734.76 388.53,-734.25 442,-740 454.21,-741.31 467.36,-743.82 479.11,-746.46"/>
<polygon fill="#9a32cd" stroke="#9a32cd" points="262.55,-746.73 253.64,-752.46 264.18,-753.54 262.55,-746.73"/>
<text text-anchor="middle" x="381.5" y="-743" font-family="Helvetica,sans-Serif" font-size="10.00"> sfd</text>
</g>
<!-- Node10 -->
<g id="node10" class="node">
<title>Node10</title>
<g id="a_node10"><a xlink:href="classdpp_1_1opensslcontext.html" target="_top" xlink:title=" ">
<polygon fill="white" stroke="black" points="181.5,-822.5 181.5,-841.5 296.5,-841.5 296.5,-822.5 181.5,-822.5"/>
<text text-anchor="middle" x="239" y="-829.5" font-family="Helvetica,sans-Serif" font-size="10.00">dpp::opensslcontext</text>
</a>
</g>
</g>
<!-- Node10&#45;&gt;Node7 -->
<g id="edge10" class="edge">
<title>Node10&#45;&gt;Node7</title>
<path fill="none" stroke="#9a32cd" stroke-dasharray="5,2" d="M281.51,-819.5C299.22,-814.21 316.79,-809.02 321,-808 374.2,-795.1 389.42,-800.22 442,-785 460.05,-779.77 479.83,-771.84 494.32,-765.59"/>
<polygon fill="#9a32cd" stroke="#9a32cd" points="280.32,-816.21 271.75,-822.43 282.33,-822.91 280.32,-816.21"/>
<text text-anchor="middle" x="381.5" y="-811" font-family="Helvetica,sans-Serif" font-size="10.00"> ssl</text>
</g>
<!-- Node11 -->
<g id="node11" class="node">
<title>Node11</title>
<g id="a_node11"><a xlink:title=" ">
<polygon fill="white" stroke="#bfbfbf" points="31,-812.5 31,-831.5 73,-831.5 73,-812.5 31,-812.5"/>
<text text-anchor="middle" x="52" y="-819.5" font-family="Helvetica,sans-Serif" font-size="10.00">SSL *</text>
</a>
</g>
</g>
<!-- Node11&#45;&gt;Node10 -->
<g id="edge11" class="edge">
<title>Node11&#45;&gt;Node10</title>
<path fill="none" stroke="#9a32cd" stroke-dasharray="5,2" d="M83.45,-823.35C104.18,-824.3 132.25,-825.64 157,-827 164.88,-827.43 173.19,-827.92 181.36,-828.41"/>
<polygon fill="#9a32cd" stroke="#9a32cd" points="83.48,-819.85 73.33,-822.9 83.16,-826.85 83.48,-819.85"/>
<text text-anchor="middle" x="139.5" y="-830" font-family="Helvetica,sans-Serif" font-size="10.00"> ssl</text>
</g>
<!-- Node12 -->
<g id="node12" class="node">
<title>Node12</title>
<g id="a_node12"><a xlink:title=" ">
<polygon fill="white" stroke="#bfbfbf" points="18.5,-850.5 18.5,-869.5 85.5,-869.5 85.5,-850.5 18.5,-850.5"/>
<text text-anchor="middle" x="52" y="-857.5" font-family="Helvetica,sans-Serif" font-size="10.00">SSL_CTX *</text>
</a>
</g>
</g>
<!-- Node12&#45;&gt;Node10 -->
<g id="edge12" class="edge">
<title>Node12&#45;&gt;Node10</title>
<path fill="none" stroke="#9a32cd" stroke-dasharray="5,2" d="M95.73,-853.53C121.18,-849.68 153.79,-844.74 181.37,-840.57"/>
<polygon fill="#9a32cd" stroke="#9a32cd" points="95.01,-850.1 85.65,-855.06 96.06,-857.02 95.01,-850.1"/>
<text text-anchor="middle" x="139.5" y="-853" font-family="Helvetica,sans-Serif" font-size="10.00"> ctx</text>
</g>
<!-- Node13 -->
<g id="node13" class="node">
<title>Node13</title>
<g id="a_node13"><a xlink:title=" ">
<polygon fill="white" stroke="#bfbfbf" points="215,-612.5 215,-631.5 263,-631.5 263,-612.5 215,-612.5"/>
<text text-anchor="middle" x="239" y="-619.5" font-family="Helvetica,sans-Serif" font-size="10.00">time_t</text>
</a>
</g>
</g>
<!-- Node13&#45;&gt;Node5 -->
<g id="edge35" class="edge">
<title>Node13&#45;&gt;Node5</title>
<path fill="none" stroke="#9a32cd" stroke-dasharray="5,2" d="M273.35,-619.57C402.26,-610.83 866.57,-585.64 983,-667 1034.49,-702.98 1049.28,-785.58 1052.93,-814.1"/>
<polygon fill="#9a32cd" stroke="#9a32cd" points="273.02,-616.08 263.29,-620.26 273.51,-623.07 273.02,-616.08"/>
<text text-anchor="middle" x="638" y="-625" font-family="Helvetica,sans-Serif" font-size="10.00"> last_heartbeat</text>
<text text-anchor="middle" x="638" y="-614" font-family="Helvetica,sans-Serif" font-size="10.00">last_heartbeat_ack</text>
</g>
<!-- Node13&#45;&gt;Node7 -->
<g id="edge13" class="edge">
<title>Node13&#45;&gt;Node7</title>
<path fill="none" stroke="#9a32cd" stroke-dasharray="5,2" d="M272.94,-626.36C314.72,-633.02 387.83,-648.54 442,-681 449.66,-685.59 488.68,-727.12 506.54,-746.33"/>
<polygon fill="#9a32cd" stroke="#9a32cd" points="273.44,-622.89 263.03,-624.85 272.39,-629.81 273.44,-622.89"/>
<text text-anchor="middle" x="381.5" y="-684" font-family="Helvetica,sans-Serif" font-size="10.00"> last_tick</text>
</g>
<!-- Node13&#45;&gt;Node16 -->
<g id="edge18" class="edge">
<title>Node13&#45;&gt;Node16</title>
<path fill="none" stroke="#9a32cd" stroke-dasharray="5,2" d="M262.44,-606.81C278.18,-596.86 300.07,-584.37 321,-577 359.41,-563.48 629.44,-521.57 728.33,-506.48"/>
<polygon fill="#9a32cd" stroke="#9a32cd" points="260.43,-603.95 253.94,-612.32 264.23,-609.82 260.43,-603.95"/>
<text text-anchor="middle" x="516.5" y="-552" font-family="Helvetica,sans-Serif" font-size="10.00"> last_identify</text>
</g>
<!-- Node14 -->
<g id="node14" class="node">
<title>Node14</title>
<g id="a_node14"><a xlink:title=" ">
<polygon fill="white" stroke="#bfbfbf" points="24,-165.5 24,-184.5 80,-184.5 80,-165.5 24,-165.5"/>
<text text-anchor="middle" x="52" y="-172.5" font-family="Helvetica,sans-Serif" font-size="10.00">uint64_t</text>
</a>
</g>
</g>
<!-- Node14&#45;&gt;Node1 -->
<g id="edge43" class="edge">
<title>Node14&#45;&gt;Node1</title>
<path fill="none" stroke="#9a32cd" stroke-dasharray="5,2" d="M61.61,-156.32C83.84,-111.2 147.78,0 238,0 238,0 238,0 1235,0 1323.7,0 1376.18,-332.59 1386.93,-407.95"/>
<polygon fill="#9a32cd" stroke="#9a32cd" points="58.45,-154.81 57.29,-165.34 64.77,-157.83 58.45,-154.81"/>
<text text-anchor="middle" x="765.5" y="-25" font-family="Helvetica,sans-Serif" font-size="10.00"> channel_id</text>
<text text-anchor="middle" x="765.5" y="-14" font-family="Helvetica,sans-Serif" font-size="10.00">guild_id</text>
<text text-anchor="middle" x="765.5" y="-3" font-family="Helvetica,sans-Serif" font-size="10.00">id</text>
</g>
<!-- Node14&#45;&gt;Node5 -->
<g id="edge37" class="edge">
<title>Node14&#45;&gt;Node5</title>
<path fill="none" stroke="#9a32cd" stroke-dasharray="5,2" d="M55.44,-195.04C65.72,-275.96 107.98,-577.3 175,-641 178.89,-644.69 825.99,-777.34 1007.28,-814.44"/>
<polygon fill="#9a32cd" stroke="#9a32cd" points="58.87,-194.25 54.16,-184.76 51.93,-195.11 58.87,-194.25"/>
<text text-anchor="middle" x="516.5" y="-728" font-family="Helvetica,sans-Serif" font-size="10.00"> last_seq</text>
</g>
<!-- Node14&#45;&gt;Node7 -->
<g id="edge14" class="edge">
<title>Node14&#45;&gt;Node7</title>
<path fill="none" stroke="#9a32cd" stroke-dasharray="5,2" d="M52.78,-194.75C52.25,-278.58 54.65,-603.77 122,-674 147.01,-700.08 406.97,-723.15 442,-732 457.88,-736.01 475.31,-741.65 489.22,-746.45"/>
<polygon fill="#9a32cd" stroke="#9a32cd" points="56.28,-194.61 52.86,-184.58 49.28,-194.55 56.28,-194.61"/>
<text text-anchor="middle" x="239" y="-727" font-family="Helvetica,sans-Serif" font-size="10.00"> bytes_in</text>
<text text-anchor="middle" x="239" y="-716" font-family="Helvetica,sans-Serif" font-size="10.00">bytes_out</text>
</g>
<!-- Node21 -->
<g id="node21" class="node">
<title>Node21</title>
<g id="a_node21"><a xlink:href="classdpp_1_1managed.html" target="_top" xlink:title="The managed class is the base class for various types that can be stored in a cache that are identifi...">
<polygon fill="white" stroke="black" points="196,-127.5 196,-146.5 282,-146.5 282,-127.5 196,-127.5"/>
<text text-anchor="middle" x="239" y="-134.5" font-family="Helvetica,sans-Serif" font-size="10.00">dpp::managed</text>
</a>
</g>
</g>
<!-- Node14&#45;&gt;Node21 -->
<g id="edge25" class="edge">
<title>Node14&#45;&gt;Node21</title>
<path fill="none" stroke="#9a32cd" stroke-dasharray="5,2" d="M90.13,-166.8C100.44,-164.56 111.65,-162.15 122,-160 146.42,-154.92 173.79,-149.49 195.81,-145.17"/>
<polygon fill="#9a32cd" stroke="#9a32cd" points="89.2,-163.42 80.18,-168.97 90.69,-170.26 89.2,-163.42"/>
<text text-anchor="middle" x="139.5" y="-163" font-family="Helvetica,sans-Serif" font-size="10.00"> id</text>
</g>
<!-- Node23 -->
<g id="node23" class="node">
<title>Node23</title>
<g id="a_node23"><a xlink:href="structdpp_1_1utility_1_1iconhash.html" target="_top" xlink:title="Store a 128 bit icon hash (profile picture, server icon etc) as a 128 bit binary value made of two ui...">
<polygon fill="white" stroke="black" points="180,-165.5 180,-184.5 298,-184.5 298,-165.5 180,-165.5"/>
<text text-anchor="middle" x="239" y="-172.5" font-family="Helvetica,sans-Serif" font-size="10.00">dpp::utility::iconhash</text>
</a>
</g>
</g>
<!-- Node14&#45;&gt;Node23 -->
<g id="edge29" class="edge">
<title>Node14&#45;&gt;Node23</title>
<path fill="none" stroke="#9a32cd" stroke-dasharray="5,2" d="M90.37,-175C116.08,-175 150.72,-175 179.99,-175"/>
<polygon fill="#9a32cd" stroke="#9a32cd" points="90.3,-171.5 80.3,-175 90.3,-178.5 90.3,-171.5"/>
<text text-anchor="middle" x="139.5" y="-189" font-family="Helvetica,sans-Serif" font-size="10.00"> first</text>
<text text-anchor="middle" x="139.5" y="-178" font-family="Helvetica,sans-Serif" font-size="10.00">second</text>
</g>
<!-- Node15 -->
<g id="node15" class="node">
<title>Node15</title>
<g id="a_node15"><a xlink:title=" ">
<polygon fill="white" stroke="#bfbfbf" points="206.5,-406.5 206.5,-425.5 271.5,-425.5 271.5,-406.5 206.5,-406.5"/>
<text text-anchor="middle" x="239" y="-413.5" font-family="Helvetica,sans-Serif" font-size="10.00">function&lt;</text>
</a>
</g>
</g>
<!-- Node15&#45;&gt;Node7 -->
<g id="edge15" class="edge">
<title>Node15&#45;&gt;Node7</title>
<path fill="none" stroke="#9a32cd" stroke-dasharray="5,2" d="M257.07,-432.55C272.72,-447.05 297.02,-467.93 321,-482 370.9,-511.28 406.96,-483.96 442,-530 486.95,-589.05 429.25,-628.46 460,-696 469.52,-716.92 489.22,-735.39 502.4,-746.13"/>
<polygon fill="#9a32cd" stroke="#9a32cd" points="259.41,-429.94 249.73,-425.63 254.61,-435.04 259.41,-429.94"/>
<text text-anchor="middle" x="381.5" y="-566" font-family="Helvetica,sans-Serif" font-size="10.00"> custom_readable_fd</text>
<text text-anchor="middle" x="381.5" y="-555" font-family="Helvetica,sans-Serif" font-size="10.00">custom_readable_ready</text>
<text text-anchor="middle" x="381.5" y="-544" font-family="Helvetica,sans-Serif" font-size="10.00">custom_writeable_fd</text>
<text text-anchor="middle" x="381.5" y="-533" font-family="Helvetica,sans-Serif" font-size="10.00">custom_writeable_ready</text>
</g>
<!-- Node19 -->
<g id="node19" class="node">
<title>Node19</title>
<g id="a_node19"><a xlink:href="classdpp_1_1dispatcher.html" target="_top" xlink:title="The dispatcher class contains a set of std::functions representing hooked events that the user code i...">
<polygon fill="white" stroke="black" points="470.5,-439.5 470.5,-458.5 562.5,-458.5 562.5,-439.5 470.5,-439.5"/>
<text text-anchor="middle" x="516.5" y="-446.5" font-family="Helvetica,sans-Serif" font-size="10.00">dpp::dispatcher</text>
</a>
</g>
</g>
<!-- Node15&#45;&gt;Node19 -->
<g id="edge22" class="edge">
<title>Node15&#45;&gt;Node19</title>
<path fill="none" stroke="#9a32cd" stroke-dasharray="5,2" d="M250.34,-397.67C263.57,-376.32 288.68,-342.18 321,-328 370.25,-306.4 398.19,-296.81 442,-328 461.92,-342.19 448.16,-358.6 460,-380 472.8,-403.14 493.45,-426.33 505.63,-439.06"/>
<polygon fill="#9a32cd" stroke="#9a32cd" points="247.22,-396.07 245.12,-406.46 253.24,-399.65 247.22,-396.07"/>
<text text-anchor="start" x="325.5" y="-474" font-family="Helvetica,sans-Serif" font-size="10.00"> application_command</text>
<text text-anchor="middle" x="381.5" y="-463" font-family="Helvetica,sans-Serif" font-size="10.00">_create</text>
<text text-anchor="start" x="325.5" y="-452" font-family="Helvetica,sans-Serif" font-size="10.00">application_command</text>
<text text-anchor="middle" x="381.5" y="-441" font-family="Helvetica,sans-Serif" font-size="10.00">_delete</text>
<text text-anchor="start" x="325.5" y="-430" font-family="Helvetica,sans-Serif" font-size="10.00">application_command</text>
<text text-anchor="middle" x="381.5" y="-419" font-family="Helvetica,sans-Serif" font-size="10.00">_update</text>
<text text-anchor="middle" x="381.5" y="-408" font-family="Helvetica,sans-Serif" font-size="10.00">button_click</text>
<text text-anchor="middle" x="381.5" y="-397" font-family="Helvetica,sans-Serif" font-size="10.00">channel_create</text>
<text text-anchor="middle" x="381.5" y="-386" font-family="Helvetica,sans-Serif" font-size="10.00">channel_delete</text>
<text text-anchor="middle" x="381.5" y="-375" font-family="Helvetica,sans-Serif" font-size="10.00">channel_pins_update</text>
<text text-anchor="middle" x="381.5" y="-364" font-family="Helvetica,sans-Serif" font-size="10.00">channel_update</text>
<text text-anchor="middle" x="381.5" y="-353" font-family="Helvetica,sans-Serif" font-size="10.00">guild_ban_add</text>
<text text-anchor="middle" x="381.5" y="-342" font-family="Helvetica,sans-Serif" font-size="10.00">guild_ban_remove</text>
<text text-anchor="middle" x="381.5" y="-331" font-family="Helvetica,sans-Serif" font-size="10.00">...</text>
</g>
<!-- Node16&#45;&gt;Node5 -->
<g id="edge16" class="edge">
<title>Node16&#45;&gt;Node5</title>
<path fill="none" stroke="#9a32cd" stroke-dasharray="5,2" d="M812.59,-502.78C861.55,-507.17 937.97,-521.61 983,-568 1053.52,-640.64 1055.31,-776.92 1054.38,-814.3"/>
<polygon fill="#9a32cd" stroke="#9a32cd" points="812.83,-499.28 802.58,-501.98 812.27,-506.26 812.83,-499.28"/>
<text text-anchor="middle" x="914.5" y="-571" font-family="Helvetica,sans-Serif" font-size="10.00"> creator</text>
</g>
<!-- Node17 -->
<g id="node17" class="node">
<title>Node17</title>
<g id="a_node17"><a xlink:title=" ">
<polygon fill="white" stroke="#bfbfbf" points="211,-259.5 211,-278.5 267,-278.5 267,-259.5 211,-259.5"/>
<text text-anchor="middle" x="239" y="-266.5" font-family="Helvetica,sans-Serif" font-size="10.00">uint32_t</text>
</a>
</g>
</g>
<!-- Node17&#45;&gt;Node5 -->
<g id="edge34" class="edge">
<title>Node17&#45;&gt;Node5</title>
<path fill="none" stroke="#9a32cd" stroke-dasharray="5,2" d="M277.38,-266.86C403.61,-261.97 815.53,-265.39 983,-504 1055.74,-607.64 1055.67,-772.85 1054.41,-814.32"/>
<polygon fill="#9a32cd" stroke="#9a32cd" points="276.92,-263.38 267.08,-267.31 277.23,-270.37 276.92,-263.38"/>
<text text-anchor="middle" x="638" y="-369" font-family="Helvetica,sans-Serif" font-size="10.00"> heartbeat_interval</text>
<text text-anchor="middle" x="638" y="-358" font-family="Helvetica,sans-Serif" font-size="10.00">intents</text>
<text text-anchor="middle" x="638" y="-347" font-family="Helvetica,sans-Serif" font-size="10.00">max_shards</text>
<text text-anchor="middle" x="638" y="-336" font-family="Helvetica,sans-Serif" font-size="10.00">reconnects</text>
<text text-anchor="middle" x="638" y="-325" font-family="Helvetica,sans-Serif" font-size="10.00">resumes</text>
<text text-anchor="middle" x="638" y="-314" font-family="Helvetica,sans-Serif" font-size="10.00">shard_id</text>
</g>
<!-- Node17&#45;&gt;Node16 -->
<g id="edge19" class="edge">
<title>Node17&#45;&gt;Node16</title>
<path fill="none" stroke="#9a32cd" stroke-dasharray="5,2" d="M277.08,-274.59C326.83,-282.35 412.4,-296.73 442,-308 572.8,-357.81 710.82,-459.65 752.13,-491.36"/>
<polygon fill="#9a32cd" stroke="#9a32cd" points="277.45,-271.1 267.03,-273.03 276.38,-278.02 277.45,-271.1"/>
<text text-anchor="middle" x="516.5" y="-407" font-family="Helvetica,sans-Serif" font-size="10.00"> cluster_id</text>
<text text-anchor="middle" x="516.5" y="-396" font-family="Helvetica,sans-Serif" font-size="10.00">intents</text>
<text text-anchor="middle" x="516.5" y="-385" font-family="Helvetica,sans-Serif" font-size="10.00">maxclusters</text>
<text text-anchor="middle" x="516.5" y="-374" font-family="Helvetica,sans-Serif" font-size="10.00">numshards</text>
</g>
<!-- Node17&#45;&gt;Node20 -->
<g id="edge30" class="edge">
<title>Node17&#45;&gt;Node20</title>
<path fill="none" stroke="#9a32cd" stroke-dasharray="5,2" d="M276.76,-256.62C290.53,-252.26 306.39,-247.56 321,-244 351.67,-236.54 438.73,-221.72 485.28,-213.98"/>
<polygon fill="#9a32cd" stroke="#9a32cd" points="275.59,-253.32 267.14,-259.72 277.73,-259.98 275.59,-253.32"/>
<text text-anchor="middle" x="381.5" y="-247" font-family="Helvetica,sans-Serif" font-size="10.00"> flags</text>
</g>
<!-- Node18 -->
<g id="node18" class="node">
<title>Node18</title>
<g id="a_node18"><a xlink:title=" ">
<polygon fill="white" stroke="#bfbfbf" points="491.5,-578.5 491.5,-597.5 541.5,-597.5 541.5,-578.5 491.5,-578.5"/>
<text text-anchor="middle" x="516.5" y="-585.5" font-family="Helvetica,sans-Serif" font-size="10.00">double</text>
</a>
</g>
</g>
<!-- Node18&#45;&gt;Node5 -->
<g id="edge40" class="edge">
<title>Node18&#45;&gt;Node5</title>
<path fill="none" stroke="#9a32cd" stroke-dasharray="5,2" d="M551.8,-585.46C647.68,-579.1 915.83,-566.42 983,-618 1047.81,-667.77 1053.8,-780.21 1054.09,-814.13"/>
<polygon fill="#9a32cd" stroke="#9a32cd" points="551.51,-581.98 541.77,-586.15 551.98,-588.96 551.51,-581.98"/>
<text text-anchor="middle" x="765.5" y="-586" font-family="Helvetica,sans-Serif" font-size="10.00"> websocket_ping</text>
</g>
<!-- Node18&#45;&gt;Node16 -->
<g id="edge20" class="edge">
<title>Node18&#45;&gt;Node16</title>
<path fill="none" stroke="#9a32cd" stroke-dasharray="5,2" d="M551.56,-578.54C563.96,-575.14 578.1,-571.33 591,-568 632.64,-557.24 644.94,-560.66 685,-545 708.8,-535.69 734.31,-520.55 749.84,-510.68"/>
<polygon fill="#9a32cd" stroke="#9a32cd" points="550.34,-575.24 541.62,-581.27 552.19,-581.99 550.34,-575.24"/>
<text text-anchor="middle" x="638" y="-571" font-family="Helvetica,sans-Serif" font-size="10.00"> rest_ping</text>
</g>
<!-- Node19&#45;&gt;Node16 -->
<g id="edge21" class="edge">
<title>Node19&#45;&gt;Node16</title>
<path fill="none" stroke="#9a32cd" stroke-dasharray="5,2" d="M572.33,-460.54C619.82,-470.54 687.16,-484.72 728.22,-493.36"/>
<polygon fill="#9a32cd" stroke="#9a32cd" points="573.02,-457.11 562.52,-458.48 571.58,-463.96 573.02,-457.11"/>
<text text-anchor="middle" x="638" y="-488" font-family="Helvetica,sans-Serif" font-size="10.00"> dispatch</text>
</g>
<!-- Node20&#45;&gt;Node16 -->
<g id="edge23" class="edge">
<title>Node20&#45;&gt;Node16</title>
<path fill="none" stroke="#9a32cd" stroke-dasharray="5,2" d="M557.84,-204.31C595.27,-202.28 650.27,-205.57 685,-236 764.84,-305.96 766.08,-452.62 764.93,-491.42"/>
<polygon fill="#9a32cd" stroke="#9a32cd" points="557.52,-200.82 547.78,-205 558,-207.8 557.52,-200.82"/>
<text text-anchor="middle" x="638" y="-239" font-family="Helvetica,sans-Serif" font-size="10.00"> me</text>
</g>
<!-- Node21&#45;&gt;Node20 -->
<g id="edge24" class="edge">
<title>Node21&#45;&gt;Node20</title>
<path fill="none" stroke="midnightblue" d="M292.14,-144.17C333.39,-150.59 392.14,-161.41 442,-177 461.13,-182.98 481.99,-192.36 496.59,-199.42"/>
<polygon fill="midnightblue" stroke="midnightblue" points="292.46,-140.67 282.05,-142.63 291.41,-147.59 292.46,-140.67"/>
</g>
<!-- Node22 -->
<g id="node22" class="node">
<title>Node22</title>
<g id="a_node22"><a xlink:title=" ">
<polygon fill="white" stroke="#bfbfbf" points="211,-203.5 211,-222.5 267,-222.5 267,-203.5 211,-203.5"/>
<text text-anchor="middle" x="239" y="-210.5" font-family="Helvetica,sans-Serif" font-size="10.00">uint16_t</text>
</a>
</g>
</g>
<!-- Node22&#45;&gt;Node20 -->
<g id="edge27" class="edge">
<title>Node22&#45;&gt;Node20</title>
<path fill="none" stroke="#9a32cd" stroke-dasharray="5,2" d="M277.41,-211.37C291.12,-210.83 306.76,-210.3 321,-210 379.07,-208.78 446.91,-208.75 485.18,-208.86"/>
<polygon fill="#9a32cd" stroke="#9a32cd" points="277.21,-207.87 267.36,-211.77 277.5,-214.86 277.21,-207.87"/>
<text text-anchor="middle" x="381.5" y="-213" font-family="Helvetica,sans-Serif" font-size="10.00"> discriminator</text>
</g>
<!-- Node23&#45;&gt;Node20 -->
<g id="edge28" class="edge">
<title>Node23&#45;&gt;Node20</title>
<path fill="none" stroke="#9a32cd" stroke-dasharray="5,2" d="M308.1,-179.57C347.37,-182.67 397.61,-187.4 442,-194 456.3,-196.13 472.02,-199.23 485.23,-202.06"/>
<polygon fill="#9a32cd" stroke="#9a32cd" points="308.34,-176.08 298.1,-178.8 307.8,-183.06 308.34,-176.08"/>
<text text-anchor="middle" x="381.5" y="-197" font-family="Helvetica,sans-Serif" font-size="10.00"> avatar</text>
</g>
<!-- Node24 -->
<g id="node24" class="node">
<title>Node24</title>
<g id="a_node24"><a xlink:title=" ">
<polygon fill="white" stroke="#bfbfbf" points="214,-81.5 214,-100.5 264,-100.5 264,-81.5 214,-81.5"/>
<text text-anchor="middle" x="239" y="-88.5" font-family="Helvetica,sans-Serif" font-size="10.00">uint8_t</text>
</a>
</g>
</g>
<!-- Node24&#45;&gt;Node1 -->
<g id="edge44" class="edge">
<title>Node24&#45;&gt;Node1</title>
<path fill="none" stroke="#9a32cd" stroke-dasharray="5,2" d="M274.35,-89.36C326.47,-87.02 428.65,-83 515.5,-83 515.5,-83 515.5,-83 1235,-83 1379.83,-83 1389.15,-342.15 1389.19,-407.95"/>
<polygon fill="#9a32cd" stroke="#9a32cd" points="274.15,-85.87 264.32,-89.82 274.47,-92.86 274.15,-85.87"/>
<text text-anchor="middle" x="914.5" y="-86" font-family="Helvetica,sans-Serif" font-size="10.00"> privacy_level</text>
</g>
<!-- Node24&#45;&gt;Node20 -->
<g id="edge31" class="edge">
<title>Node24&#45;&gt;Node20</title>
<path fill="none" stroke="#9a32cd" stroke-dasharray="5,2" d="M274.22,-92.57C316.13,-95.77 388.18,-105.49 442,-135 471.69,-151.28 497.22,-183.26 508.83,-199.32"/>
<polygon fill="#9a32cd" stroke="#9a32cd" points="274.45,-89.08 264.24,-91.89 273.98,-96.06 274.45,-89.08"/>
<text text-anchor="middle" x="381.5" y="-138" font-family="Helvetica,sans-Serif" font-size="10.00"> refcount</text>
</g>
<!-- Node25 -->
<g id="node25" class="node">
<title>Node25</title>
<g id="a_node25"><a xlink:href="structdpp_1_1cache__policy__t.html" target="_top" xlink:title="Represents the caching policy of the cluster.">
<polygon fill="white" stroke="black" points="460,-32.5 460,-51.5 573,-51.5 573,-32.5 460,-32.5"/>
<text text-anchor="middle" x="516.5" y="-39.5" font-family="Helvetica,sans-Serif" font-size="10.00">dpp::cache_policy_t</text>
</a>
</g>
</g>
<!-- Node25&#45;&gt;Node16 -->
<g id="edge32" class="edge">
<title>Node25&#45;&gt;Node16</title>
<path fill="none" stroke="#9a32cd" stroke-dasharray="5,2" d="M542.4,-57C579.34,-80.57 648.24,-129.87 685,-190 749.38,-295.32 761.87,-451.21 764.07,-491.32"/>
<polygon fill="#9a32cd" stroke="#9a32cd" points="544.07,-53.91 533.74,-51.57 540.35,-59.84 544.07,-53.91"/>
<text text-anchor="middle" x="638" y="-193" font-family="Helvetica,sans-Serif" font-size="10.00"> cache_policy</text>
</g>
<!-- Node26 -->
<g id="node26" class="node">
<title>Node26</title>
<g id="a_node26"><a xlink:title=" ">
<polygon fill="white" stroke="#bfbfbf" points="175,-28.5 175,-47.5 303,-47.5 303,-28.5 175,-28.5"/>
<text text-anchor="middle" x="239" y="-35.5" font-family="Helvetica,sans-Serif" font-size="10.00">cache_policy_setting_t</text>
</a>
</g>
</g>
<!-- Node26&#45;&gt;Node25 -->
<g id="edge33" class="edge">
<title>Node26&#45;&gt;Node25</title>
<path fill="none" stroke="#9a32cd" stroke-dasharray="5,2" d="M313.31,-35.49C351.66,-34.63 399.38,-34.26 442,-36 447.76,-36.23 453.76,-36.57 459.75,-36.97"/>
<polygon fill="#9a32cd" stroke="#9a32cd" points="313.17,-31.99 303.26,-35.73 313.34,-38.99 313.17,-31.99"/>
<text text-anchor="middle" x="381.5" y="-61" font-family="Helvetica,sans-Serif" font-size="10.00"> emoji_policy</text>
<text text-anchor="middle" x="381.5" y="-50" font-family="Helvetica,sans-Serif" font-size="10.00">role_policy</text>
<text text-anchor="middle" x="381.5" y="-39" font-family="Helvetica,sans-Serif" font-size="10.00">user_policy</text>
</g>
<!-- Node27 -->
<g id="node27" class="node">
<title>Node27</title>
<g id="a_node27"><a xlink:title=" ">
<polygon fill="white" stroke="#bfbfbf" points="709,-1004.5 709,-1023.5 822,-1023.5 822,-1004.5 709,-1004.5"/>
<text text-anchor="middle" x="765.5" y="-1011.5" font-family="Helvetica,sans-Serif" font-size="10.00">native_handle_type</text>
</a>
</g>
</g>
<!-- Node27&#45;&gt;Node5 -->
<g id="edge36" class="edge">
<title>Node27&#45;&gt;Node5</title>
<path fill="none" stroke="#9a32cd" stroke-dasharray="5,2" d="M832.25,-1023.05C878.73,-1025.84 940.14,-1021.81 983,-990 1036.36,-950.39 1050.03,-862.54 1053.16,-833.52"/>
<polygon fill="#9a32cd" stroke="#9a32cd" points="832.5,-1019.56 822.28,-1022.34 832,-1026.54 832.5,-1019.56"/>
<text text-anchor="middle" x="914.5" y="-1026" font-family="Helvetica,sans-Serif" font-size="10.00"> thread_id</text>
</g>
<!-- Node28 -->
<g id="node28" class="node">
<title>Node28</title>
<g id="a_node28"><a xlink:title=" ">
<polygon fill="white" stroke="#bfbfbf" points="731,-966.5 731,-985.5 800,-985.5 800,-966.5 731,-966.5"/>
<text text-anchor="middle" x="765.5" y="-973.5" font-family="Helvetica,sans-Serif" font-size="10.00">std::mutex</text>
</a>
</g>
</g>
<!-- Node28&#45;&gt;Node5 -->
<g id="edge39" class="edge">
<title>Node28&#45;&gt;Node5</title>
<path fill="none" stroke="#9a32cd" stroke-dasharray="5,2" d="M810.22,-975.57C865.16,-974.26 955.57,-969.29 983,-951 1026.09,-922.28 1045.7,-858.12 1051.8,-833.69"/>
<polygon fill="#9a32cd" stroke="#9a32cd" points="810,-972.08 800.07,-975.79 810.14,-979.08 810,-972.08"/>
<text text-anchor="middle" x="914.5" y="-978" font-family="Helvetica,sans-Serif" font-size="10.00"> voice_mutex</text>
</g>
<!-- Node29 -->
<g id="node29" class="node">
<title>Node29</title>
<g id="a_node29"><a xlink:title=" ">
<polygon fill="white" stroke="#bfbfbf" points="715,-928.5 715,-947.5 816,-947.5 816,-928.5 715,-928.5"/>
<text text-anchor="middle" x="765.5" y="-935.5" font-family="Helvetica,sans-Serif" font-size="10.00">unordered_map&lt;</text>
</a>
</g>
</g>
<!-- Node29&#45;&gt;Node5 -->
<g id="edge42" class="edge">
<title>Node29&#45;&gt;Node5</title>
<path fill="none" stroke="#9a32cd" stroke-dasharray="5,2" d="M826.57,-936.49C881.15,-934.19 956.98,-928.44 983,-914 1016.93,-895.17 1040.37,-852.81 1049.61,-833.69"/>
<polygon fill="#9a32cd" stroke="#9a32cd" points="826.16,-933 816.3,-936.89 826.43,-939.99 826.16,-933"/>
<text text-anchor="middle" x="914.5" y="-939" font-family="Helvetica,sans-Serif" font-size="10.00"> connecting_voice_channels</text>
</g>
</g>
</svg>
        <g id="navigator" transform="translate(0 0)" fill="#404254">
                <rect fill="#f2f5e9" fill-opacity="0.5" stroke="#606060" stroke-width=".5" x="0" y="0" width="60" height="60"/>
                <use id="zoomplus" xlink:href="#zoomPlus" x="17" y="9" onmousedown="handleZoom(evt,'in')"/>
                <use id="zoomminus" xlink:href="#zoomMin" x="42" y="9" onmousedown="handleZoom(evt,'out')"/>
                <use id="reset" xlink:href="#resetDef" x="30" y="36" onmousedown="handleReset()"/>
                <g id="arrowUp" xlink:href="#dirArrow" transform="translate(30 24)" onmousedown="handlePan(0,-1)">
                  <use xlink:href="#rim" fill="#404040">
                        <set attributeName="fill" to="#808080" begin="arrowUp.mouseover" end="arrowUp.mouseout"/>
                  </use>
                  <path fill="none" stroke="white" stroke-width="1.5" d="M0,-3.0v7 M-2.5,-0.5L0,-3.0L2.5,-0.5"/>
                </g>
                <g id="arrowRight" xlink:href="#dirArrow" transform="rotate(90) translate(36 -43)" onmousedown="handlePan(1,0)">
                  <use xlink:href="#rim" fill="#404040">
                        <set attributeName="fill" to="#808080" begin="arrowRight.mouseover" end="arrowRight.mouseout"/>
                  </use>
                  <path fill="none" stroke="white" stroke-width="1.5" d="M0,-3.0v7 M-2.5,-0.5L0,-3.0L2.5,-0.5"/>
                </g>
                <g id="arrowDown" xlink:href="#dirArrow" transform="rotate(180) translate(-30 -48)" onmousedown="handlePan(0,1)">
                  <use xlink:href="#rim" fill="#404040">
                        <set attributeName="fill" to="#808080" begin="arrowDown.mouseover" end="arrowDown.mouseout"/>
                  </use>
                  <path fill="none" stroke="white" stroke-width="1.5" d="M0,-3.0v7 M-2.5,-0.5L0,-3.0L2.5,-0.5"/>
                </g>
                <g id="arrowLeft" xlink:href="#dirArrow" transform="rotate(270) translate(-36 17)" onmousedown="handlePan(-1,0)">
                  <use xlink:href="#rim" fill="#404040">
                        <set attributeName="fill" to="#808080" begin="arrowLeft.mouseover" end="arrowLeft.mouseout"/>
                  </use>
                  <path fill="none" stroke="white" stroke-width="1.5" d="M0,-3.0v7 M-2.5,-0.5L0,-3.0L2.5,-0.5"/>
                </g>
        </g>
        <svg viewBox="0 0 15 15" width="100%" height="30px" preserveAspectRatio="xMaxYMin meet">
         <g id="arrow_out" transform="scale(0.3 0.3)">
          <a xlink:href="structdpp_1_1stage__instance__delete__t__coll__graph_org.svg" target="_base">
           <rect id="button" ry="5" rx="5" y="6" x="6" height="38" width="38"
                fill="#f2f5e9" fill-opacity="0.5" stroke="#606060" stroke-width="1.0"/>
           <path id="arrow"
             d="M 11.500037,31.436501 C 11.940474,20.09759 22.043105,11.32322 32.158766,21.979434 L 37.068811,17.246167 C 37.068811,17.246167 37.088388,32 37.088388,32 L 22.160133,31.978069 C 22.160133,31.978069 26.997745,27.140456 26.997745,27.140456 C 18.528582,18.264221 13.291696,25.230495 11.500037,31.436501 z"
             style="fill:#404040;"/>
          </a>
         </g>
        </svg>
</svg>
