<?xml version="1.0" encoding="UTF-8" standalone="no"?>
<!DOCTYPE svg PUBLIC "-//W3C//DTD SVG 1.1//EN"
 "http://www.w3.org/Graphics/SVG/1.1/DTD/svg11.dtd">
<!-- Generated by graphviz version 2.43.0 (0)
 -->
<!-- Title: dpp::button_click_t Pages: 1 -->
<svg width="1674pt" height="1429pt"
 viewBox="0.00 0.00 1674.00 1429.00" xmlns="http://www.w3.org/2000/svg" xmlns:xlink="http://www.w3.org/1999/xlink">
<g id="graph0" class="graph" transform="scale(1 1) rotate(0) translate(4 1425)">
<title>dpp::button_click_t</title>
<!-- Node1 -->
<g id="node1" class="node">
<title>Node1</title>
<g id="a_node1"><a xlink:title="Click on button.">
<polygon fill="#bfbfbf" stroke="black" points="1557,-37.5 1557,-56.5 1666,-56.5 1666,-37.5 1557,-37.5"/>
<text text-anchor="middle" x="1611.5" y="-44.5" font-family="Helvetica,sans-Serif" font-size="10.00">dpp::button_click_t</text>
</a>
</g>
</g>
<!-- Node2 -->
<g id="node2" class="node">
<title>Node2</title>
<g id="a_node2"><a xlink:href="structdpp_1_1interaction__create__t.html" target="_top" xlink:title="Create interaction.">
<polygon fill="none" stroke="black" points="1382,-76.5 1382,-95.5 1520,-95.5 1520,-76.5 1382,-76.5"/>
<text text-anchor="middle" x="1451" y="-83.5" font-family="Helvetica,sans-Serif" font-size="10.00">dpp::interaction_create_t</text>
</a>
</g>
</g>
<!-- Node2&#45;&gt;Node1 -->
<g id="edge1" class="edge">
<title>Node2&#45;&gt;Node1</title>
<path fill="none" stroke="midnightblue" d="M1500.63,-74.03C1523.51,-68.41 1550.4,-61.79 1571.85,-56.51"/>
<polygon fill="midnightblue" stroke="midnightblue" points="1499.65,-70.67 1490.77,-76.46 1501.32,-77.47 1499.65,-70.67"/>
</g>
<!-- Node3 -->
<g id="node3" class="node">
<title>Node3</title>
<g id="a_node3"><a xlink:href="structdpp_1_1event__dispatch__t.html" target="_top" xlink:title="Base event parameter struct.">
<polygon fill="none" stroke="black" points="1221,-76.5 1221,-95.5 1345,-95.5 1345,-76.5 1221,-76.5"/>
<text text-anchor="middle" x="1283" y="-83.5" font-family="Helvetica,sans-Serif" font-size="10.00">dpp::event_dispatch_t</text>
</a>
</g>
</g>
<!-- Node3&#45;&gt;Node2 -->
<g id="edge2" class="edge">
<title>Node3&#45;&gt;Node2</title>
<path fill="none" stroke="midnightblue" d="M1355.52,-86C1364.28,-86 1373.22,-86 1381.92,-86"/>
<polygon fill="midnightblue" stroke="midnightblue" points="1355.34,-82.5 1345.34,-86 1355.34,-89.5 1355.34,-82.5"/>
</g>
<!-- Node4 -->
<g id="node4" class="node">
<title>Node4</title>
<g id="a_node4"><a xlink:title=" ">
<polygon fill="none" stroke="#bfbfbf" points="206.5,-102.5 206.5,-121.5 271.5,-121.5 271.5,-102.5 206.5,-102.5"/>
<text text-anchor="middle" x="239" y="-109.5" font-family="Helvetica,sans-Serif" font-size="10.00">std::string</text>
</a>
</g>
</g>
<!-- Node4&#45;&gt;Node1 -->
<g id="edge57" class="edge">
<title>Node4&#45;&gt;Node1</title>
<path fill="none" stroke="#9a32cd" stroke-dasharray="5,2" d="M262.05,-96.84C308.75,-66.24 422.04,0 527.5,0 527.5,0 527.5,0 1452,0 1504.24,0 1562.31,-23.76 1591.52,-37.49"/>
<polygon fill="#9a32cd" stroke="#9a32cd" points="260,-94 253.62,-102.45 263.88,-99.82 260,-94"/>
<text text-anchor="middle" x="1079" y="-3" font-family="Helvetica,sans-Serif" font-size="10.00"> custom_id</text>
</g>
<!-- Node4&#45;&gt;Node3 -->
<g id="edge3" class="edge">
<title>Node4&#45;&gt;Node3</title>
<path fill="none" stroke="#9a32cd" stroke-dasharray="5,2" d="M268.74,-98.17C283.91,-91.6 303.05,-84.45 321,-81 381.67,-69.33 398.22,-79.44 460,-79 744.53,-76.95 1084.45,-82.34 1220.9,-84.82"/>
<polygon fill="#9a32cd" stroke="#9a32cd" points="267.1,-95.07 259.4,-102.35 269.96,-101.46 267.1,-95.07"/>
<text text-anchor="middle" x="789.5" y="-83" font-family="Helvetica,sans-Serif" font-size="10.00"> raw_event</text>
</g>
<!-- Node6 -->
<g id="node6" class="node">
<title>Node6</title>
<g id="a_node6"><a xlink:href="classdpp_1_1discord__client.html" target="_top" xlink:title="Implements a discord client. Each discord_client connects to one shard and derives from a websocket c...">
<polygon fill="none" stroke="black" points="1025,-1005.5 1025,-1024.5 1133,-1024.5 1133,-1005.5 1025,-1005.5"/>
<text text-anchor="middle" x="1079" y="-1012.5" font-family="Helvetica,sans-Serif" font-size="10.00">dpp::discord_client</text>
</a>
</g>
</g>
<!-- Node4&#45;&gt;Node6 -->
<g id="edge37" class="edge">
<title>Node4&#45;&gt;Node6</title>
<path fill="none" stroke="#9a32cd" stroke-dasharray="5,2" d="M281.04,-99.82C293.73,-96.61 307.84,-93.6 321,-92 400.33,-82.35 675.96,-75.78 709,-94 1068.73,-292.41 1078.46,-920.51 1078.11,-1005.46"/>
<polygon fill="#9a32cd" stroke="#9a32cd" points="279.99,-96.48 271.21,-102.42 281.78,-103.25 279.99,-96.48"/>
<text text-anchor="middle" x="662" y="-108" font-family="Helvetica,sans-Serif" font-size="10.00"> sessionid</text>
<text text-anchor="middle" x="662" y="-97" font-family="Helvetica,sans-Serif" font-size="10.00">token</text>
</g>
<!-- Node8 -->
<g id="node8" class="node">
<title>Node8</title>
<g id="a_node8"><a xlink:href="classdpp_1_1ssl__client.html" target="_top" xlink:title="Implements a simple non&#45;blocking SSL stream client.">
<polygon fill="none" stroke="black" points="485.5,-1253.5 485.5,-1272.5 571.5,-1272.5 571.5,-1253.5 485.5,-1253.5"/>
<text text-anchor="middle" x="528.5" y="-1260.5" font-family="Helvetica,sans-Serif" font-size="10.00">dpp::ssl_client</text>
</a>
</g>
</g>
<!-- Node4&#45;&gt;Node8 -->
<g id="edge8" class="edge">
<title>Node4&#45;&gt;Node8</title>
<path fill="none" stroke="#9a32cd" stroke-dasharray="5,2" d="M274.07,-126.34C285.21,-132.8 296.41,-141.59 303,-153 340.08,-217.17 273.78,-428.89 321,-486 356.31,-528.7 407.27,-472.83 442,-516 465.16,-544.8 447.05,-1146.38 460,-1181 471.5,-1211.74 499.64,-1239.38 515.72,-1253.36"/>
<polygon fill="#9a32cd" stroke="#9a32cd" points="275.71,-123.25 265.23,-121.65 272.43,-129.43 275.71,-123.25"/>
<text text-anchor="middle" x="381.5" y="-563" font-family="Helvetica,sans-Serif" font-size="10.00"> buffer</text>
<text text-anchor="middle" x="381.5" y="-552" font-family="Helvetica,sans-Serif" font-size="10.00">cipher</text>
<text text-anchor="middle" x="381.5" y="-541" font-family="Helvetica,sans-Serif" font-size="10.00">hostname</text>
<text text-anchor="middle" x="381.5" y="-530" font-family="Helvetica,sans-Serif" font-size="10.00">obuffer</text>
<text text-anchor="middle" x="381.5" y="-519" font-family="Helvetica,sans-Serif" font-size="10.00">port</text>
</g>
<!-- Node15 -->
<g id="node15" class="node">
<title>Node15</title>
<g id="a_node15"><a xlink:href="classdpp_1_1cluster.html" target="_top" xlink:title="The cluster class represents a group of shards and a command queue for sending and receiving commands...">
<polygon fill="none" stroke="black" points="752.5,-815.5 752.5,-834.5 826.5,-834.5 826.5,-815.5 752.5,-815.5"/>
<text text-anchor="middle" x="789.5" y="-822.5" font-family="Helvetica,sans-Serif" font-size="10.00">dpp::cluster</text>
</a>
</g>
</g>
<!-- Node4&#45;&gt;Node15 -->
<g id="edge16" class="edge">
<title>Node4&#45;&gt;Node15</title>
<path fill="none" stroke="#9a32cd" stroke-dasharray="5,2" d="M281.97,-112.55C333.86,-114.08 418.23,-119.57 442,-139 460.94,-154.48 441.78,-174.69 460,-191 506.52,-232.63 555.68,-175.21 597,-222 623.9,-252.46 605.9,-364.39 615,-404 642.05,-521.72 680.17,-541.7 709,-659 716.43,-689.25 708.33,-773.07 727,-798 733.29,-806.4 742.76,-812.23 752.4,-816.26"/>
<polygon fill="#9a32cd" stroke="#9a32cd" points="281.83,-109.05 271.74,-112.29 281.65,-116.04 281.83,-109.05"/>
<text text-anchor="middle" x="528.5" y="-225" font-family="Helvetica,sans-Serif" font-size="10.00"> token</text>
</g>
<!-- Node19 -->
<g id="node19" class="node">
<title>Node19</title>
<g id="a_node19"><a xlink:href="classdpp_1_1user.html" target="_top" xlink:title="Represents a user on discord. May or may not be a member of a dpp::guild.">
<polygon fill="none" stroke="black" points="497.5,-674.5 497.5,-693.5 559.5,-693.5 559.5,-674.5 497.5,-674.5"/>
<text text-anchor="middle" x="528.5" y="-681.5" font-family="Helvetica,sans-Serif" font-size="10.00">dpp::user</text>
</a>
</g>
</g>
<!-- Node4&#45;&gt;Node19 -->
<g id="edge25" class="edge">
<title>Node4&#45;&gt;Node19</title>
<path fill="none" stroke="#9a32cd" stroke-dasharray="5,2" d="M270.95,-126.49C282.38,-133.16 294.59,-142.06 303,-153 318.67,-173.4 302.98,-189.65 321,-208 360.89,-248.61 406.8,-205.26 442,-250 467.68,-282.64 452.52,-395.15 460,-436 477.28,-530.37 513.15,-641.15 524.19,-674.22"/>
<polygon fill="#9a32cd" stroke="#9a32cd" points="272.48,-123.34 262.03,-121.61 269.13,-129.48 272.48,-123.34"/>
<text text-anchor="middle" x="381.5" y="-253" font-family="Helvetica,sans-Serif" font-size="10.00"> username</text>
</g>
<!-- Node29 -->
<g id="node29" class="node">
<title>Node29</title>
<g id="a_node29"><a xlink:href="classdpp_1_1interaction.html" target="_top" xlink:title="An interaction represents a user running a command and arrives via the dpp::cluster::on_interaction_c...">
<polygon fill="none" stroke="black" points="743,-326.5 743,-345.5 836,-345.5 836,-326.5 743,-326.5"/>
<text text-anchor="middle" x="789.5" y="-333.5" font-family="Helvetica,sans-Serif" font-size="10.00">dpp::interaction</text>
</a>
</g>
</g>
<!-- Node4&#45;&gt;Node29 -->
<g id="edge54" class="edge">
<title>Node4&#45;&gt;Node29</title>
<path fill="none" stroke="#9a32cd" stroke-dasharray="5,2" d="M281.56,-101.98C324.34,-93.97 391.66,-87.9 442,-114 454.15,-120.3 448.85,-131.06 460,-139 511.77,-175.87 540.84,-150.25 597,-180 676.2,-221.96 753.72,-299.38 779.51,-326.4"/>
<polygon fill="#9a32cd" stroke="#9a32cd" points="280.63,-98.6 271.51,-103.99 282,-105.47 280.63,-98.6"/>
<text text-anchor="middle" x="528.5" y="-183" font-family="Helvetica,sans-Serif" font-size="10.00"> token</text>
</g>
<!-- Node31 -->
<g id="node31" class="node">
<title>Node31</title>
<g id="a_node31"><a xlink:href="classdpp_1_1guild__member.html" target="_top" xlink:title="Represents dpp::user membership upon a dpp::guild.">
<polygon fill="none" stroke="black" points="473,-242.5 473,-261.5 584,-261.5 584,-242.5 473,-242.5"/>
<text text-anchor="middle" x="528.5" y="-249.5" font-family="Helvetica,sans-Serif" font-size="10.00">dpp::guild_member</text>
</a>
</g>
</g>
<!-- Node4&#45;&gt;Node31 -->
<g id="edge48" class="edge">
<title>Node4&#45;&gt;Node31</title>
<path fill="none" stroke="#9a32cd" stroke-dasharray="5,2" d="M279.15,-124.53C292.36,-128.51 307.24,-132.72 321,-136 374.17,-148.67 401.99,-120.76 442,-158 465.52,-179.88 438.33,-204.29 460,-228 465.79,-234.33 473.36,-239 481.34,-242.43"/>
<polygon fill="#9a32cd" stroke="#9a32cd" points="280,-121.13 269.42,-121.55 277.95,-127.82 280,-121.13"/>
<text text-anchor="middle" x="381.5" y="-161" font-family="Helvetica,sans-Serif" font-size="10.00"> nickname</text>
</g>
<!-- Node5 -->
<g id="node5" class="node">
<title>Node5</title>
<g id="a_node5"><a xlink:title=" ">
<polygon fill="none" stroke="#bfbfbf" points="0,-97 0,-127 104,-127 104,-97 0,-97"/>
<text text-anchor="start" x="8" y="-115" font-family="Helvetica,sans-Serif" font-size="10.00">std::basic_string&lt;</text>
<text text-anchor="middle" x="52" y="-104" font-family="Helvetica,sans-Serif" font-size="10.00"> Char &gt;</text>
</a>
</g>
</g>
<!-- Node5&#45;&gt;Node4 -->
<g id="edge4" class="edge">
<title>Node5&#45;&gt;Node4</title>
<path fill="none" stroke="midnightblue" d="M114.26,-112C145.05,-112 181.08,-112 206.29,-112"/>
<polygon fill="midnightblue" stroke="midnightblue" points="114.04,-108.5 104.04,-112 114.04,-115.5 114.04,-108.5"/>
</g>
<!-- Node6&#45;&gt;Node3 -->
<g id="edge5" class="edge">
<title>Node6&#45;&gt;Node3</title>
<path fill="none" stroke="#9a32cd" stroke-dasharray="5,2" d="M1084.34,-995.05C1111.77,-868.89 1260.6,-184.41 1279.93,-95.52"/>
<polygon fill="#9a32cd" stroke="#9a32cd" points="1080.84,-994.68 1082.13,-1005.2 1087.68,-996.17 1080.84,-994.68"/>
<text text-anchor="middle" x="1177" y="-690" font-family="Helvetica,sans-Serif" font-size="10.00"> from</text>
</g>
<!-- Node7 -->
<g id="node7" class="node">
<title>Node7</title>
<g id="a_node7"><a xlink:href="classdpp_1_1websocket__client.html" target="_top" xlink:title="Implements a websocket client based on the SSL client.">
<polygon fill="none" stroke="black" points="727,-1253.5 727,-1272.5 852,-1272.5 852,-1253.5 727,-1253.5"/>
<text text-anchor="middle" x="789.5" y="-1260.5" font-family="Helvetica,sans-Serif" font-size="10.00">dpp::websocket_client</text>
</a>
</g>
</g>
<!-- Node7&#45;&gt;Node6 -->
<g id="edge6" class="edge">
<title>Node7&#45;&gt;Node6</title>
<path fill="none" stroke="midnightblue" d="M858.15,-1273.35C904.97,-1276.62 966.01,-1272.63 1007,-1239 1075.75,-1182.59 1078.9,-1059.82 1078.32,-1024.61"/>
<polygon fill="midnightblue" stroke="midnightblue" points="858.34,-1269.86 848.08,-1272.53 857.76,-1276.83 858.34,-1269.86"/>
</g>
<!-- Node8&#45;&gt;Node7 -->
<g id="edge7" class="edge">
<title>Node8&#45;&gt;Node7</title>
<path fill="none" stroke="midnightblue" d="M581.7,-1263C623.67,-1263 682.71,-1263 726.97,-1263"/>
<polygon fill="midnightblue" stroke="midnightblue" points="581.69,-1259.5 571.69,-1263 581.69,-1266.5 581.69,-1259.5"/>
</g>
<!-- Node9 -->
<g id="node9" class="node">
<title>Node9</title>
<g id="a_node9"><a xlink:title=" ">
<polygon fill="none" stroke="#bfbfbf" points="220,-1371.5 220,-1390.5 258,-1390.5 258,-1371.5 220,-1371.5"/>
<text text-anchor="middle" x="239" y="-1378.5" font-family="Helvetica,sans-Serif" font-size="10.00">bool</text>
</a>
</g>
</g>
<!-- Node9&#45;&gt;Node6 -->
<g id="edge40" class="edge">
<title>Node9&#45;&gt;Node6</title>
<path fill="none" stroke="#9a32cd" stroke-dasharray="5,2" d="M268.04,-1386.85C378.58,-1408.16 788.71,-1470.26 1007,-1270 1044.84,-1235.28 1070.73,-1066.82 1076.69,-1024.61"/>
<polygon fill="#9a32cd" stroke="#9a32cd" points="268.5,-1383.38 258.02,-1384.87 267.15,-1390.25 268.5,-1383.38"/>
<text text-anchor="middle" x="662" y="-1413" font-family="Helvetica,sans-Serif" font-size="10.00"> ready</text>
</g>
<!-- Node9&#45;&gt;Node8 -->
<g id="edge9" class="edge">
<title>Node9&#45;&gt;Node8</title>
<path fill="none" stroke="#9a32cd" stroke-dasharray="5,2" d="M268.21,-1375.37C323.31,-1364.37 440.05,-1340.98 442,-1340 475.72,-1323.01 506.25,-1289.14 519.92,-1272.57"/>
<polygon fill="#9a32cd" stroke="#9a32cd" points="267.19,-1372.01 258.07,-1377.4 268.56,-1378.87 267.19,-1372.01"/>
<text text-anchor="middle" x="381.5" y="-1367" font-family="Helvetica,sans-Serif" font-size="10.00"> nonblocking</text>
</g>
<!-- Node10 -->
<g id="node10" class="node">
<title>Node10</title>
<g id="a_node10"><a xlink:title=" ">
<polygon fill="none" stroke="#bfbfbf" points="224.5,-1324.5 224.5,-1343.5 253.5,-1343.5 253.5,-1324.5 224.5,-1324.5"/>
<text text-anchor="middle" x="239" y="-1331.5" font-family="Helvetica,sans-Serif" font-size="10.00">int</text>
</a>
</g>
</g>
<!-- Node10&#45;&gt;Node8 -->
<g id="edge10" class="edge">
<title>Node10&#45;&gt;Node8</title>
<path fill="none" stroke="#9a32cd" stroke-dasharray="5,2" d="M263.63,-1332.34C301.82,-1329.2 379.18,-1320.92 442,-1302 466.68,-1294.57 493.47,-1281.45 510.36,-1272.5"/>
<polygon fill="#9a32cd" stroke="#9a32cd" points="263.21,-1328.86 253.51,-1333.13 263.76,-1335.84 263.21,-1328.86"/>
<text text-anchor="middle" x="381.5" y="-1328" font-family="Helvetica,sans-Serif" font-size="10.00"> sfd</text>
</g>
<!-- Node11 -->
<g id="node11" class="node">
<title>Node11</title>
<g id="a_node11"><a xlink:title=" ">
<polygon fill="none" stroke="#bfbfbf" points="189.5,-1286.5 189.5,-1305.5 288.5,-1305.5 288.5,-1286.5 189.5,-1286.5"/>
<text text-anchor="middle" x="239" y="-1293.5" font-family="Helvetica,sans-Serif" font-size="10.00">opensslcontext *</text>
</a>
</g>
</g>
<!-- Node11&#45;&gt;Node8 -->
<g id="edge11" class="edge">
<title>Node11&#45;&gt;Node8</title>
<path fill="none" stroke="#9a32cd" stroke-dasharray="5,2" d="M298.79,-1289.9C339.11,-1285.65 393.82,-1279.72 442,-1274 456.12,-1272.32 471.53,-1270.38 485.34,-1268.59"/>
<polygon fill="#9a32cd" stroke="#9a32cd" points="298.18,-1286.45 288.6,-1290.97 298.91,-1293.41 298.18,-1286.45"/>
<text text-anchor="middle" x="381.5" y="-1290" font-family="Helvetica,sans-Serif" font-size="10.00"> ssl</text>
</g>
<!-- Node12 -->
<g id="node12" class="node">
<title>Node12</title>
<g id="a_node12"><a xlink:title=" ">
<polygon fill="none" stroke="#bfbfbf" points="215,-850.5 215,-869.5 263,-869.5 263,-850.5 215,-850.5"/>
<text text-anchor="middle" x="239" y="-857.5" font-family="Helvetica,sans-Serif" font-size="10.00">time_t</text>
</a>
</g>
</g>
<!-- Node12&#45;&gt;Node6 -->
<g id="edge34" class="edge">
<title>Node12&#45;&gt;Node6</title>
<path fill="none" stroke="#9a32cd" stroke-dasharray="5,2" d="M273.31,-861.57C317.63,-865.43 395.76,-878.68 442,-924 459.47,-941.12 440.53,-961.19 460,-976 504.41,-1009.78 883.29,-1014.42 1024.9,-1014.97"/>
<polygon fill="#9a32cd" stroke="#9a32cd" points="273.31,-858.06 263.07,-860.79 272.78,-865.04 273.31,-858.06"/>
<text text-anchor="middle" x="662" y="-1022" font-family="Helvetica,sans-Serif" font-size="10.00"> last_heartbeat</text>
<text text-anchor="middle" x="662" y="-1011" font-family="Helvetica,sans-Serif" font-size="10.00">last_heartbeat_ack</text>
</g>
<!-- Node12&#45;&gt;Node8 -->
<g id="edge12" class="edge">
<title>Node12&#45;&gt;Node8</title>
<path fill="none" stroke="#9a32cd" stroke-dasharray="5,2" d="M273.02,-864.16C283.63,-866.9 294.76,-871.46 303,-879 318.88,-893.55 305.47,-909.07 321,-924 362.14,-963.56 407.16,-921.8 442,-967 471.13,-1004.8 442.02,-1136.79 460,-1181 472.37,-1211.4 500.17,-1239.17 515.96,-1253.27"/>
<polygon fill="#9a32cd" stroke="#9a32cd" points="273.62,-860.71 263.11,-862.04 272.15,-867.55 273.62,-860.71"/>
<text text-anchor="middle" x="381.5" y="-970" font-family="Helvetica,sans-Serif" font-size="10.00"> last_tick</text>
</g>
<!-- Node12&#45;&gt;Node15 -->
<g id="edge17" class="edge">
<title>Node12&#45;&gt;Node15</title>
<path fill="none" stroke="#9a32cd" stroke-dasharray="5,2" d="M273.33,-857.87C370.33,-851.68 651.94,-833.71 752.38,-827.3"/>
<polygon fill="#9a32cd" stroke="#9a32cd" points="272.97,-854.39 263.22,-858.52 273.42,-861.37 272.97,-854.39"/>
<text text-anchor="middle" x="528.5" y="-848" font-family="Helvetica,sans-Serif" font-size="10.00"> last_identify</text>
</g>
<!-- Node12&#45;&gt;Node31 -->
<g id="edge51" class="edge">
<title>Node12&#45;&gt;Node31</title>
<path fill="none" stroke="#9a32cd" stroke-dasharray="5,2" d="M273.02,-852.44C284.42,-848.1 296.07,-841.38 303,-831 331.73,-788.01 293.61,-409.86 321,-366 353.34,-314.22 388.62,-330.62 442,-301 466.23,-287.55 494.04,-271.5 511.18,-261.53"/>
<polygon fill="#9a32cd" stroke="#9a32cd" points="271.59,-849.22 263.18,-855.66 273.77,-855.87 271.59,-849.22"/>
<text text-anchor="middle" x="381.5" y="-380" font-family="Helvetica,sans-Serif" font-size="10.00"> joined_at</text>
<text text-anchor="middle" x="381.5" y="-369" font-family="Helvetica,sans-Serif" font-size="10.00">premium_since</text>
</g>
<!-- Node13 -->
<g id="node13" class="node">
<title>Node13</title>
<g id="a_node13"><a xlink:title=" ">
<polygon fill="none" stroke="#bfbfbf" points="24,-699.5 24,-718.5 80,-718.5 80,-699.5 24,-699.5"/>
<text text-anchor="middle" x="52" y="-706.5" font-family="Helvetica,sans-Serif" font-size="10.00">uint64_t</text>
</a>
</g>
</g>
<!-- Node13&#45;&gt;Node6 -->
<g id="edge36" class="edge">
<title>Node13&#45;&gt;Node6</title>
<path fill="none" stroke="#9a32cd" stroke-dasharray="5,2" d="M54.1,-728.96C58.47,-789.89 79.39,-976.01 175,-1086 222.34,-1140.46 250.69,-1140.81 321,-1157 612.23,-1224.06 971.94,-1065.79 1058.58,-1024.53"/>
<polygon fill="#9a32cd" stroke="#9a32cd" points="57.58,-728.55 53.45,-718.79 50.6,-729 57.58,-728.55"/>
<text text-anchor="middle" x="528.5" y="-1176" font-family="Helvetica,sans-Serif" font-size="10.00"> last_seq</text>
</g>
<!-- Node13&#45;&gt;Node8 -->
<g id="edge13" class="edge">
<title>Node13&#45;&gt;Node8</title>
<path fill="none" stroke="#9a32cd" stroke-dasharray="5,2" d="M53.17,-729.17C54.28,-810.65 62.4,-1114.49 122,-1185 181.98,-1255.95 229.76,-1231.51 321,-1249 377.11,-1259.76 443.18,-1262.55 485.19,-1263.13"/>
<polygon fill="#9a32cd" stroke="#9a32cd" points="56.67,-728.78 53.06,-718.82 49.67,-728.86 56.67,-728.78"/>
<text text-anchor="middle" x="239" y="-1259" font-family="Helvetica,sans-Serif" font-size="10.00"> bytes_in</text>
<text text-anchor="middle" x="239" y="-1248" font-family="Helvetica,sans-Serif" font-size="10.00">bytes_out</text>
</g>
<!-- Node20 -->
<g id="node20" class="node">
<title>Node20</title>
<g id="a_node20"><a xlink:href="classdpp_1_1managed.html" target="_top" xlink:title="The managed class is the base class for various types that can be stored in a cache that are identifi...">
<polygon fill="none" stroke="black" points="196,-662.5 196,-681.5 282,-681.5 282,-662.5 196,-662.5"/>
<text text-anchor="middle" x="239" y="-669.5" font-family="Helvetica,sans-Serif" font-size="10.00">dpp::managed</text>
</a>
</g>
</g>
<!-- Node13&#45;&gt;Node20 -->
<g id="edge24" class="edge">
<title>Node13&#45;&gt;Node20</title>
<path fill="none" stroke="#9a32cd" stroke-dasharray="5,2" d="M90.14,-701.57C120.69,-695.46 163.99,-686.8 195.84,-680.43"/>
<polygon fill="#9a32cd" stroke="#9a32cd" points="89.42,-698.15 80.3,-703.54 90.79,-705.01 89.42,-698.15"/>
<text text-anchor="middle" x="139.5" y="-697" font-family="Helvetica,sans-Serif" font-size="10.00"> id</text>
</g>
<!-- Node22 -->
<g id="node22" class="node">
<title>Node22</title>
<g id="a_node22"><a xlink:href="structdpp_1_1utility_1_1iconhash.html" target="_top" xlink:title="Store a 128 bit icon hash (profile picture, server icon etc) as a 128 bit binary value made of two ui...">
<polygon fill="none" stroke="black" points="180,-738.5 180,-757.5 298,-757.5 298,-738.5 180,-738.5"/>
<text text-anchor="middle" x="239" y="-745.5" font-family="Helvetica,sans-Serif" font-size="10.00">dpp::utility::iconhash</text>
</a>
</g>
</g>
<!-- Node13&#45;&gt;Node22 -->
<g id="edge28" class="edge">
<title>Node13&#45;&gt;Node22</title>
<path fill="none" stroke="#9a32cd" stroke-dasharray="5,2" d="M90.21,-716.85C119.75,-723.07 161.17,-731.8 192.65,-738.44"/>
<polygon fill="#9a32cd" stroke="#9a32cd" points="90.8,-713.39 80.3,-714.75 89.36,-720.24 90.8,-713.39"/>
<text text-anchor="middle" x="139.5" y="-744" font-family="Helvetica,sans-Serif" font-size="10.00"> first</text>
<text text-anchor="middle" x="139.5" y="-733" font-family="Helvetica,sans-Serif" font-size="10.00">second</text>
</g>
<!-- Node13&#45;&gt;Node29 -->
<g id="edge44" class="edge">
<title>Node13&#45;&gt;Node29</title>
<path fill="none" stroke="#9a32cd" stroke-dasharray="5,2" d="M81.2,-694.89C105.67,-682.94 142.21,-665.75 175,-653 238.53,-628.29 255.81,-625.92 321,-606 374.54,-589.64 390.89,-593.84 442,-571 569.79,-513.89 596.17,-486.83 709,-404 735.06,-384.87 763.32,-359.47 778.11,-345.76"/>
<polygon fill="#9a32cd" stroke="#9a32cd" points="79.56,-691.8 72.13,-699.36 82.65,-698.08 79.56,-691.8"/>
<text text-anchor="middle" x="381.5" y="-642" font-family="Helvetica,sans-Serif" font-size="10.00"> application_id</text>
<text text-anchor="middle" x="381.5" y="-631" font-family="Helvetica,sans-Serif" font-size="10.00">channel_id</text>
<text text-anchor="middle" x="381.5" y="-620" font-family="Helvetica,sans-Serif" font-size="10.00">guild_id</text>
<text text-anchor="middle" x="381.5" y="-609" font-family="Helvetica,sans-Serif" font-size="10.00">message_id</text>
</g>
<!-- Node13&#45;&gt;Node31 -->
<g id="edge49" class="edge">
<title>Node13&#45;&gt;Node31</title>
<path fill="none" stroke="#9a32cd" stroke-dasharray="5,2" d="M52.6,-688.98C52.38,-621.86 60.81,-402.25 175,-282 258.95,-193.59 424.65,-224.25 494.84,-242.48"/>
<polygon fill="#9a32cd" stroke="#9a32cd" points="49.11,-689.41 52.71,-699.37 56.11,-689.33 49.11,-689.41"/>
<text text-anchor="middle" x="239" y="-296" font-family="Helvetica,sans-Serif" font-size="10.00"> guild_id</text>
<text text-anchor="middle" x="239" y="-285" font-family="Helvetica,sans-Serif" font-size="10.00">user_id</text>
</g>
<!-- Node14 -->
<g id="node14" class="node">
<title>Node14</title>
<g id="a_node14"><a xlink:title=" ">
<polygon fill="none" stroke="#bfbfbf" points="206.5,-1057.5 206.5,-1076.5 271.5,-1076.5 271.5,-1057.5 206.5,-1057.5"/>
<text text-anchor="middle" x="239" y="-1064.5" font-family="Helvetica,sans-Serif" font-size="10.00">function&lt;</text>
</a>
</g>
</g>
<!-- Node14&#45;&gt;Node8 -->
<g id="edge14" class="edge">
<title>Node14&#45;&gt;Node8</title>
<path fill="none" stroke="#9a32cd" stroke-dasharray="5,2" d="M251.52,-1085.31C265.57,-1106.29 291.17,-1140.41 321,-1161 368.09,-1193.51 391.04,-1178.96 442,-1205 469.79,-1219.2 499.3,-1240.89 515.36,-1253.33"/>
<polygon fill="#9a32cd" stroke="#9a32cd" points="254.29,-1083.16 245.9,-1076.69 248.43,-1086.98 254.29,-1083.16"/>
<text text-anchor="middle" x="381.5" y="-1241" font-family="Helvetica,sans-Serif" font-size="10.00"> custom_readable_fd</text>
<text text-anchor="middle" x="381.5" y="-1230" font-family="Helvetica,sans-Serif" font-size="10.00">custom_readable_ready</text>
<text text-anchor="middle" x="381.5" y="-1219" font-family="Helvetica,sans-Serif" font-size="10.00">custom_writeable_fd</text>
<text text-anchor="middle" x="381.5" y="-1208" font-family="Helvetica,sans-Serif" font-size="10.00">custom_writeable_ready</text>
</g>
<!-- Node18 -->
<g id="node18" class="node">
<title>Node18</title>
<g id="a_node18"><a xlink:href="classdpp_1_1dispatcher.html" target="_top" xlink:title="The dispatcher class contains a set of std::functions representing hooked events that the user code i...">
<polygon fill="none" stroke="black" points="482.5,-947.5 482.5,-966.5 574.5,-966.5 574.5,-947.5 482.5,-947.5"/>
<text text-anchor="middle" x="528.5" y="-954.5" font-family="Helvetica,sans-Serif" font-size="10.00">dpp::dispatcher</text>
</a>
</g>
</g>
<!-- Node14&#45;&gt;Node18 -->
<g id="edge21" class="edge">
<title>Node14&#45;&gt;Node18</title>
<path fill="none" stroke="#9a32cd" stroke-dasharray="5,2" d="M256.08,-1050.36C271.37,-1035.56 295.73,-1014.54 321,-1003 370.8,-980.27 388.64,-992.23 442,-980 459.38,-976.02 478.56,-970.92 494.35,-966.54"/>
<polygon fill="#9a32cd" stroke="#9a32cd" points="253.58,-1047.91 248.95,-1057.44 258.51,-1052.87 253.58,-1047.91"/>
<text text-anchor="start" x="325.5" y="-1149" font-family="Helvetica,sans-Serif" font-size="10.00"> application_command</text>
<text text-anchor="middle" x="381.5" y="-1138" font-family="Helvetica,sans-Serif" font-size="10.00">_create</text>
<text text-anchor="start" x="325.5" y="-1127" font-family="Helvetica,sans-Serif" font-size="10.00">application_command</text>
<text text-anchor="middle" x="381.5" y="-1116" font-family="Helvetica,sans-Serif" font-size="10.00">_delete</text>
<text text-anchor="start" x="325.5" y="-1105" font-family="Helvetica,sans-Serif" font-size="10.00">application_command</text>
<text text-anchor="middle" x="381.5" y="-1094" font-family="Helvetica,sans-Serif" font-size="10.00">_update</text>
<text text-anchor="middle" x="381.5" y="-1083" font-family="Helvetica,sans-Serif" font-size="10.00">button_click</text>
<text text-anchor="middle" x="381.5" y="-1072" font-family="Helvetica,sans-Serif" font-size="10.00">channel_create</text>
<text text-anchor="middle" x="381.5" y="-1061" font-family="Helvetica,sans-Serif" font-size="10.00">channel_delete</text>
<text text-anchor="middle" x="381.5" y="-1050" font-family="Helvetica,sans-Serif" font-size="10.00">channel_pins_update</text>
<text text-anchor="middle" x="381.5" y="-1039" font-family="Helvetica,sans-Serif" font-size="10.00">channel_update</text>
<text text-anchor="middle" x="381.5" y="-1028" font-family="Helvetica,sans-Serif" font-size="10.00">guild_ban_add</text>
<text text-anchor="middle" x="381.5" y="-1017" font-family="Helvetica,sans-Serif" font-size="10.00">guild_ban_remove</text>
<text text-anchor="middle" x="381.5" y="-1006" font-family="Helvetica,sans-Serif" font-size="10.00">...</text>
</g>
<!-- Node15&#45;&gt;Node6 -->
<g id="edge15" class="edge">
<title>Node15&#45;&gt;Node6</title>
<path fill="none" stroke="#9a32cd" stroke-dasharray="5,2" d="M813.59,-840.24C853.18,-866.38 936.56,-921.42 1007,-968 1026.61,-980.96 1049.25,-995.95 1063.59,-1005.45"/>
<polygon fill="#9a32cd" stroke="#9a32cd" points="815.22,-837.12 804.95,-834.53 811.36,-842.96 815.22,-837.12"/>
<text text-anchor="middle" x="938.5" y="-971" font-family="Helvetica,sans-Serif" font-size="10.00"> creator</text>
</g>
<!-- Node16 -->
<g id="node16" class="node">
<title>Node16</title>
<g id="a_node16"><a xlink:title=" ">
<polygon fill="none" stroke="#bfbfbf" points="211,-888.5 211,-907.5 267,-907.5 267,-888.5 211,-888.5"/>
<text text-anchor="middle" x="239" y="-895.5" font-family="Helvetica,sans-Serif" font-size="10.00">uint32_t</text>
</a>
</g>
</g>
<!-- Node16&#45;&gt;Node6 -->
<g id="edge33" class="edge">
<title>Node16&#45;&gt;Node6</title>
<path fill="none" stroke="#9a32cd" stroke-dasharray="5,2" d="M276.91,-908.9C290.71,-912.86 306.53,-917.27 321,-921 374.45,-934.77 401.74,-911.24 442,-949 462.31,-968.05 438.04,-991.88 460,-1009 546.73,-1076.62 890.85,-1039.79 1024.52,-1022.43"/>
<polygon fill="#9a32cd" stroke="#9a32cd" points="277.86,-905.53 267.28,-906.11 275.91,-912.25 277.86,-905.53"/>
<text text-anchor="middle" x="662" y="-1106" font-family="Helvetica,sans-Serif" font-size="10.00"> heartbeat_interval</text>
<text text-anchor="middle" x="662" y="-1095" font-family="Helvetica,sans-Serif" font-size="10.00">intents</text>
<text text-anchor="middle" x="662" y="-1084" font-family="Helvetica,sans-Serif" font-size="10.00">max_shards</text>
<text text-anchor="middle" x="662" y="-1073" font-family="Helvetica,sans-Serif" font-size="10.00">reconnects</text>
<text text-anchor="middle" x="662" y="-1062" font-family="Helvetica,sans-Serif" font-size="10.00">resumes</text>
<text text-anchor="middle" x="662" y="-1051" font-family="Helvetica,sans-Serif" font-size="10.00">shard_id</text>
</g>
<!-- Node16&#45;&gt;Node15 -->
<g id="edge18" class="edge">
<title>Node16&#45;&gt;Node15</title>
<path fill="none" stroke="#9a32cd" stroke-dasharray="5,2" d="M277.24,-895.92C357.01,-891.03 550.05,-876.78 709,-846 724.7,-842.96 741.88,-838.56 756.24,-834.57"/>
<polygon fill="#9a32cd" stroke="#9a32cd" points="276.97,-892.43 267.2,-896.53 277.39,-899.42 276.97,-892.43"/>
<text text-anchor="middle" x="528.5" y="-916" font-family="Helvetica,sans-Serif" font-size="10.00"> cluster_id</text>
<text text-anchor="middle" x="528.5" y="-905" font-family="Helvetica,sans-Serif" font-size="10.00">intents</text>
<text text-anchor="middle" x="528.5" y="-894" font-family="Helvetica,sans-Serif" font-size="10.00">maxclusters</text>
<text text-anchor="middle" x="528.5" y="-883" font-family="Helvetica,sans-Serif" font-size="10.00">numshards</text>
</g>
<!-- Node16&#45;&gt;Node19 -->
<g id="edge29" class="edge">
<title>Node16&#45;&gt;Node19</title>
<path fill="none" stroke="#9a32cd" stroke-dasharray="5,2" d="M277,-893.89C286.67,-891.1 296.26,-886.51 303,-879 332,-846.7 291.08,-814.45 321,-783 359.12,-742.93 395.47,-783.89 442,-754 452.92,-746.98 450.57,-739.92 460,-731 475.77,-716.09 496.61,-702.31 510.94,-693.58"/>
<polygon fill="#9a32cd" stroke="#9a32cd" points="275.97,-890.53 267.01,-896.19 277.54,-897.35 275.97,-890.53"/>
<text text-anchor="middle" x="381.5" y="-786" font-family="Helvetica,sans-Serif" font-size="10.00"> flags</text>
</g>
<!-- Node17 -->
<g id="node17" class="node">
<title>Node17</title>
<g id="a_node17"><a xlink:title=" ">
<polygon fill="none" stroke="#bfbfbf" points="503.5,-740.5 503.5,-759.5 553.5,-759.5 553.5,-740.5 503.5,-740.5"/>
<text text-anchor="middle" x="528.5" y="-747.5" font-family="Helvetica,sans-Serif" font-size="10.00">double</text>
</a>
</g>
</g>
<!-- Node17&#45;&gt;Node6 -->
<g id="edge39" class="edge">
<title>Node17&#45;&gt;Node6</title>
<path fill="none" stroke="#9a32cd" stroke-dasharray="5,2" d="M563.82,-748.07C651.05,-745.17 883.11,-750.22 1007,-875 1046.36,-914.64 1068.21,-980.57 1075.36,-1005.27"/>
<polygon fill="#9a32cd" stroke="#9a32cd" points="563.53,-744.58 553.68,-748.47 563.81,-751.58 563.53,-744.58"/>
<text text-anchor="middle" x="789.5" y="-786" font-family="Helvetica,sans-Serif" font-size="10.00"> websocket_ping</text>
</g>
<!-- Node17&#45;&gt;Node15 -->
<g id="edge19" class="edge">
<title>Node17&#45;&gt;Node15</title>
<path fill="none" stroke="#9a32cd" stroke-dasharray="5,2" d="M563.68,-754.18C600.31,-759.27 659.83,-769.32 709,-786 731.86,-793.75 756.58,-806.66 772.28,-815.49"/>
<polygon fill="#9a32cd" stroke="#9a32cd" points="563.91,-750.68 553.53,-752.81 562.98,-757.61 563.91,-750.68"/>
<text text-anchor="middle" x="662" y="-789" font-family="Helvetica,sans-Serif" font-size="10.00"> rest_ping</text>
</g>
<!-- Node18&#45;&gt;Node15 -->
<g id="edge20" class="edge">
<title>Node18&#45;&gt;Node15</title>
<path fill="none" stroke="#9a32cd" stroke-dasharray="5,2" d="M584.63,-945.8C621.55,-936.76 670.28,-921.74 709,-899 739.24,-881.24 767.51,-850.22 780.7,-834.59"/>
<polygon fill="#9a32cd" stroke="#9a32cd" points="583.47,-942.48 574.55,-948.2 585.09,-949.29 583.47,-942.48"/>
<text text-anchor="middle" x="662" y="-939" font-family="Helvetica,sans-Serif" font-size="10.00"> dispatch</text>
</g>
<!-- Node19&#45;&gt;Node15 -->
<g id="edge22" class="edge">
<title>Node19&#45;&gt;Node15</title>
<path fill="none" stroke="#9a32cd" stroke-dasharray="5,2" d="M569.69,-692.73C607.61,-702.17 665.04,-719.64 709,-747 724.92,-756.91 762.37,-796.59 779.57,-815.23"/>
<polygon fill="#9a32cd" stroke="#9a32cd" points="570.08,-689.22 559.54,-690.28 568.44,-696.03 570.08,-689.22"/>
<text text-anchor="middle" x="662" y="-750" font-family="Helvetica,sans-Serif" font-size="10.00"> me</text>
</g>
<!-- Node19&#45;&gt;Node29 -->
<g id="edge53" class="edge">
<title>Node19&#45;&gt;Node29</title>
<path fill="none" stroke="#9a32cd" stroke-dasharray="5,2" d="M569.84,-683.77C610.48,-681.32 672.27,-671.13 709,-634 751.55,-590.98 780.93,-391.67 787.23,-345.55"/>
<polygon fill="#9a32cd" stroke="#9a32cd" points="569.56,-680.28 559.74,-684.25 569.9,-687.27 569.56,-680.28"/>
<text text-anchor="middle" x="662" y="-681" font-family="Helvetica,sans-Serif" font-size="10.00"> usr</text>
</g>
<!-- Node20&#45;&gt;Node19 -->
<g id="edge23" class="edge">
<title>Node20&#45;&gt;Node19</title>
<path fill="none" stroke="midnightblue" d="M292.13,-674.18C352.07,-676.68 448.43,-680.7 497.17,-682.73"/>
<polygon fill="midnightblue" stroke="midnightblue" points="292.25,-670.68 282.11,-673.76 291.96,-677.67 292.25,-670.68"/>
</g>
<!-- Node20&#45;&gt;Node29 -->
<g id="edge43" class="edge">
<title>Node20&#45;&gt;Node29</title>
<path fill="none" stroke="midnightblue" d="M292.26,-667.83C407.92,-658.15 677.81,-632.93 709,-606 790.93,-535.27 790.6,-384.81 789.02,-345.54"/>
<polygon fill="midnightblue" stroke="midnightblue" points="291.9,-664.35 282.22,-668.66 292.47,-671.32 291.9,-664.35"/>
</g>
<!-- Node21 -->
<g id="node21" class="node">
<title>Node21</title>
<g id="a_node21"><a xlink:title=" ">
<polygon fill="none" stroke="#bfbfbf" points="211,-700.5 211,-719.5 267,-719.5 267,-700.5 211,-700.5"/>
<text text-anchor="middle" x="239" y="-707.5" font-family="Helvetica,sans-Serif" font-size="10.00">uint16_t</text>
</a>
</g>
</g>
<!-- Node21&#45;&gt;Node19 -->
<g id="edge26" class="edge">
<title>Node21&#45;&gt;Node19</title>
<path fill="none" stroke="#9a32cd" stroke-dasharray="5,2" d="M277.16,-706.64C334.72,-701.43 444.31,-691.52 497.31,-686.73"/>
<polygon fill="#9a32cd" stroke="#9a32cd" points="276.69,-703.17 267.05,-707.55 277.32,-710.14 276.69,-703.17"/>
<text text-anchor="middle" x="381.5" y="-705" font-family="Helvetica,sans-Serif" font-size="10.00"> discriminator</text>
</g>
<!-- Node22&#45;&gt;Node19 -->
<g id="edge27" class="edge">
<title>Node22&#45;&gt;Node19</title>
<path fill="none" stroke="#9a32cd" stroke-dasharray="5,2" d="M308.21,-741.25C347.72,-736.42 398.16,-728.68 442,-717 464.6,-710.98 489.44,-700.99 506.49,-693.58"/>
<polygon fill="#9a32cd" stroke="#9a32cd" points="307.67,-737.79 298.15,-742.45 308.49,-744.74 307.67,-737.79"/>
<text text-anchor="middle" x="381.5" y="-742" font-family="Helvetica,sans-Serif" font-size="10.00"> avatar</text>
</g>
<!-- Node23 -->
<g id="node23" class="node">
<title>Node23</title>
<g id="a_node23"><a xlink:title=" ">
<polygon fill="none" stroke="#bfbfbf" points="214,-313.5 214,-332.5 264,-332.5 264,-313.5 214,-313.5"/>
<text text-anchor="middle" x="239" y="-320.5" font-family="Helvetica,sans-Serif" font-size="10.00">uint8_t</text>
</a>
</g>
</g>
<!-- Node23&#45;&gt;Node1 -->
<g id="edge58" class="edge">
<title>Node23&#45;&gt;Node1</title>
<path fill="none" stroke="#9a32cd" stroke-dasharray="5,2" d="M274.31,-323.12C354.93,-322.63 552.95,-316.69 597,-271 639.93,-226.47 571.76,-177.22 615,-133 626.02,-121.73 1160.23,-47 1176,-47 1176,-47 1176,-47 1452,-47 1486.95,-47 1526.23,-47 1556.94,-47"/>
<polygon fill="#9a32cd" stroke="#9a32cd" points="274.17,-319.62 264.19,-323.16 274.2,-326.62 274.17,-319.62"/>
<text text-anchor="middle" x="1079" y="-70" font-family="Helvetica,sans-Serif" font-size="10.00"> component_type</text>
</g>
<!-- Node23&#45;&gt;Node19 -->
<g id="edge30" class="edge">
<title>Node23&#45;&gt;Node19</title>
<path fill="none" stroke="#9a32cd" stroke-dasharray="5,2" d="M255.28,-340.54C270.32,-356.61 294.8,-379.71 321,-392 370.41,-415.18 400.91,-377.07 442,-413 483.69,-449.45 518.01,-630.38 525.83,-674.36"/>
<polygon fill="#9a32cd" stroke="#9a32cd" points="257.63,-337.93 248.32,-332.88 252.45,-342.63 257.63,-337.93"/>
<text text-anchor="middle" x="381.5" y="-416" font-family="Helvetica,sans-Serif" font-size="10.00"> refcount</text>
</g>
<!-- Node23&#45;&gt;Node29 -->
<g id="edge45" class="edge">
<title>Node23&#45;&gt;Node29</title>
<path fill="none" stroke="#9a32cd" stroke-dasharray="5,2" d="M274.49,-323.82C369.61,-326.07 635.66,-332.38 742.87,-334.92"/>
<polygon fill="#9a32cd" stroke="#9a32cd" points="274.36,-320.31 264.28,-323.58 274.19,-327.31 274.36,-320.31"/>
<text text-anchor="middle" x="528.5" y="-346" font-family="Helvetica,sans-Serif" font-size="10.00"> type</text>
<text text-anchor="middle" x="528.5" y="-335" font-family="Helvetica,sans-Serif" font-size="10.00">version</text>
</g>
<!-- Node23&#45;&gt;Node31 -->
<g id="edge52" class="edge">
<title>Node23&#45;&gt;Node31</title>
<path fill="none" stroke="#9a32cd" stroke-dasharray="5,2" d="M266.47,-308.74C281.97,-300.95 302.14,-291.75 321,-286 348.63,-277.58 421.6,-266.5 472.93,-259.32"/>
<polygon fill="#9a32cd" stroke="#9a32cd" points="264.78,-305.68 257.48,-313.36 267.98,-311.9 264.78,-305.68"/>
<text text-anchor="middle" x="381.5" y="-289" font-family="Helvetica,sans-Serif" font-size="10.00"> flags</text>
</g>
<!-- Node24 -->
<g id="node24" class="node">
<title>Node24</title>
<g id="a_node24"><a xlink:href="structdpp_1_1cache__policy__t.html" target="_top" xlink:title="Represents the caching policy of the cluster.">
<polygon fill="none" stroke="black" points="472,-782.5 472,-801.5 585,-801.5 585,-782.5 472,-782.5"/>
<text text-anchor="middle" x="528.5" y="-789.5" font-family="Helvetica,sans-Serif" font-size="10.00">dpp::cache_policy_t</text>
</a>
</g>
</g>
<!-- Node24&#45;&gt;Node15 -->
<g id="edge31" class="edge">
<title>Node24&#45;&gt;Node15</title>
<path fill="none" stroke="#9a32cd" stroke-dasharray="5,2" d="M595.61,-799.2C629.54,-803.03 671.52,-807.98 709,-813 723.11,-814.89 738.6,-817.18 752.13,-819.25"/>
<polygon fill="#9a32cd" stroke="#9a32cd" points="595.68,-795.69 585.35,-798.05 594.9,-802.64 595.68,-795.69"/>
<text text-anchor="middle" x="662" y="-816" font-family="Helvetica,sans-Serif" font-size="10.00"> cache_policy</text>
</g>
<!-- Node25 -->
<g id="node25" class="node">
<title>Node25</title>
<g id="a_node25"><a xlink:title=" ">
<polygon fill="none" stroke="#bfbfbf" points="175,-802.5 175,-821.5 303,-821.5 303,-802.5 175,-802.5"/>
<text text-anchor="middle" x="239" y="-809.5" font-family="Helvetica,sans-Serif" font-size="10.00">cache_policy_setting_t</text>
</a>
</g>
</g>
<!-- Node25&#45;&gt;Node24 -->
<g id="edge32" class="edge">
<title>Node25&#45;&gt;Node24</title>
<path fill="none" stroke="#9a32cd" stroke-dasharray="5,2" d="M313.07,-806.92C362.44,-803.48 426.61,-799.02 471.84,-795.87"/>
<polygon fill="#9a32cd" stroke="#9a32cd" points="312.83,-803.43 303.09,-807.61 313.31,-810.41 312.83,-803.43"/>
<text text-anchor="middle" x="381.5" y="-831" font-family="Helvetica,sans-Serif" font-size="10.00"> emoji_policy</text>
<text text-anchor="middle" x="381.5" y="-820" font-family="Helvetica,sans-Serif" font-size="10.00">role_policy</text>
<text text-anchor="middle" x="381.5" y="-809" font-family="Helvetica,sans-Serif" font-size="10.00">user_policy</text>
</g>
<!-- Node26 -->
<g id="node26" class="node">
<title>Node26</title>
<g id="a_node26"><a xlink:title=" ">
<polygon fill="none" stroke="#bfbfbf" points="733,-689.5 733,-708.5 846,-708.5 846,-689.5 733,-689.5"/>
<text text-anchor="middle" x="789.5" y="-696.5" font-family="Helvetica,sans-Serif" font-size="10.00">native_handle_type</text>
</a>
</g>
</g>
<!-- Node26&#45;&gt;Node6 -->
<g id="edge35" class="edge">
<title>Node26&#45;&gt;Node6</title>
<path fill="none" stroke="#9a32cd" stroke-dasharray="5,2" d="M846.16,-688.07C894.48,-681.99 963.37,-682.06 1007,-720 1051.92,-759.06 1072.86,-959.06 1077.15,-1005.4"/>
<polygon fill="#9a32cd" stroke="#9a32cd" points="845.61,-684.61 836.18,-689.44 846.56,-691.54 845.61,-684.61"/>
<text text-anchor="middle" x="938.5" y="-723" font-family="Helvetica,sans-Serif" font-size="10.00"> thread_id</text>
</g>
<!-- Node27 -->
<g id="node27" class="node">
<title>Node27</title>
<g id="a_node27"><a xlink:title=" ">
<polygon fill="none" stroke="#bfbfbf" points="755,-1215.5 755,-1234.5 824,-1234.5 824,-1215.5 755,-1215.5"/>
<text text-anchor="middle" x="789.5" y="-1222.5" font-family="Helvetica,sans-Serif" font-size="10.00">std::mutex</text>
</a>
</g>
</g>
<!-- Node27&#45;&gt;Node6 -->
<g id="edge38" class="edge">
<title>Node27&#45;&gt;Node6</title>
<path fill="none" stroke="#9a32cd" stroke-dasharray="5,2" d="M834.64,-1225.39C890.03,-1224.99 980.93,-1221.16 1007,-1201 1065.51,-1155.75 1075.81,-1056.18 1077.62,-1024.72"/>
<polygon fill="#9a32cd" stroke="#9a32cd" points="834.39,-1221.89 824.4,-1225.42 834.41,-1228.89 834.39,-1221.89"/>
<text text-anchor="middle" x="938.5" y="-1227" font-family="Helvetica,sans-Serif" font-size="10.00"> voice_mutex</text>
</g>
<!-- Node28 -->
<g id="node28" class="node">
<title>Node28</title>
<g id="a_node28"><a xlink:title=" ">
<polygon fill="none" stroke="#bfbfbf" points="739,-1177.5 739,-1196.5 840,-1196.5 840,-1177.5 739,-1177.5"/>
<text text-anchor="middle" x="789.5" y="-1184.5" font-family="Helvetica,sans-Serif" font-size="10.00">unordered_map&lt;</text>
</a>
</g>
</g>
<!-- Node28&#45;&gt;Node6 -->
<g id="edge41" class="edge">
<title>Node28&#45;&gt;Node6</title>
<path fill="none" stroke="#9a32cd" stroke-dasharray="5,2" d="M850.51,-1186.74C905.72,-1185.39 982.61,-1180.3 1007,-1163 1055.58,-1128.54 1072.16,-1051.7 1076.61,-1024.65"/>
<polygon fill="#9a32cd" stroke="#9a32cd" points="850.4,-1183.25 840.47,-1186.96 850.55,-1190.24 850.4,-1183.25"/>
<text text-anchor="middle" x="938.5" y="-1189" font-family="Helvetica,sans-Serif" font-size="10.00"> connecting_voice_channels</text>
</g>
<!-- Node29&#45;&gt;Node2 -->
<g id="edge42" class="edge">
<title>Node29&#45;&gt;Node2</title>
<path fill="none" stroke="#9a32cd" stroke-dasharray="5,2" d="M825.56,-322.71C943.29,-278.08 1322.75,-134.24 1424.63,-95.62"/>
<polygon fill="#9a32cd" stroke="#9a32cd" points="824.06,-319.54 815.95,-326.35 826.54,-326.08 824.06,-319.54"/>
<text text-anchor="middle" x="1177" y="-202" font-family="Helvetica,sans-Serif" font-size="10.00"> command</text>
</g>
<!-- Node30 -->
<g id="node30" class="node">
<title>Node30</title>
<g id="a_node30"><a xlink:title=" ">
<polygon fill="none" stroke="#bfbfbf" points="499,-110.5 499,-129.5 558,-129.5 558,-110.5 499,-110.5"/>
<text text-anchor="middle" x="528.5" y="-117.5" font-family="Helvetica,sans-Serif" font-size="10.00">variant&lt;</text>
</a>
</g>
</g>
<!-- Node30&#45;&gt;Node29 -->
<g id="edge46" class="edge">
<title>Node30&#45;&gt;Node29</title>
<path fill="none" stroke="#9a32cd" stroke-dasharray="5,2" d="M568.06,-117.17C607.59,-116.33 668.81,-121.06 709,-153 766.77,-198.9 783.44,-295.11 787.41,-326.13"/>
<polygon fill="#9a32cd" stroke="#9a32cd" points="567.89,-113.67 558.01,-117.51 568.13,-120.66 567.89,-113.67"/>
<text text-anchor="middle" x="662" y="-156" font-family="Helvetica,sans-Serif" font-size="10.00"> data</text>
</g>
<!-- Node31&#45;&gt;Node29 -->
<g id="edge47" class="edge">
<title>Node31&#45;&gt;Node29</title>
<path fill="none" stroke="#9a32cd" stroke-dasharray="5,2" d="M568.55,-264.66C620.79,-281.61 712.25,-311.27 759.07,-326.45"/>
<polygon fill="#9a32cd" stroke="#9a32cd" points="569.55,-261.31 558.96,-261.55 567.39,-267.97 569.55,-261.31"/>
<text text-anchor="middle" x="662" y="-312" font-family="Helvetica,sans-Serif" font-size="10.00"> member</text>
</g>
<!-- Node32 -->
<g id="node32" class="node">
<title>Node32</title>
<g id="a_node32"><a xlink:title=" ">
<polygon fill="none" stroke="#bfbfbf" points="211,-162.5 211,-181.5 267,-181.5 267,-162.5 211,-162.5"/>
<text text-anchor="middle" x="239" y="-169.5" font-family="Helvetica,sans-Serif" font-size="10.00">vector&lt;</text>
</a>
</g>
</g>
<!-- Node32&#45;&gt;Node31 -->
<g id="edge50" class="edge">
<title>Node32&#45;&gt;Node31</title>
<path fill="none" stroke="#9a32cd" stroke-dasharray="5,2" d="M277.34,-171.73C328.24,-172.04 416.05,-175.26 442,-193 456.44,-202.87 446.83,-216.48 460,-228 467.21,-234.31 476.19,-238.99 485.22,-242.46"/>
<polygon fill="#9a32cd" stroke="#9a32cd" points="277.09,-168.23 267.08,-171.7 277.07,-175.23 277.09,-168.23"/>
<text text-anchor="middle" x="381.5" y="-196" font-family="Helvetica,sans-Serif" font-size="10.00"> roles</text>
</g>
<!-- Node33 -->
<g id="node33" class="node">
<title>Node33</title>
<g id="a_node33"><a xlink:href="structdpp_1_1command__resolved.html" target="_top" xlink:title="Resolved snowflake ids to users, guild members, roles and channels.">
<polygon fill="none" stroke="black" points="460,-407.5 460,-426.5 597,-426.5 597,-407.5 460,-407.5"/>
<text text-anchor="middle" x="528.5" y="-414.5" font-family="Helvetica,sans-Serif" font-size="10.00">dpp::command_resolved</text>
</a>
</g>
</g>
<!-- Node33&#45;&gt;Node29 -->
<g id="edge55" class="edge">
<title>Node33&#45;&gt;Node29</title>
<path fill="none" stroke="#9a32cd" stroke-dasharray="5,2" d="M569.52,-404.48C621.42,-388.25 710.84,-360.29 757.74,-345.62"/>
<polygon fill="#9a32cd" stroke="#9a32cd" points="568.47,-401.14 559.97,-407.47 570.56,-407.83 568.47,-401.14"/>
<text text-anchor="middle" x="662" y="-392" font-family="Helvetica,sans-Serif" font-size="10.00"> resolved</text>
</g>
<!-- Node34 -->
<g id="node34" class="node">
<title>Node34</title>
<g id="a_node34"><a xlink:title=" ">
<polygon fill="none" stroke="#bfbfbf" points="215.5,-438.5 215.5,-457.5 262.5,-457.5 262.5,-438.5 215.5,-438.5"/>
<text text-anchor="middle" x="239" y="-445.5" font-family="Helvetica,sans-Serif" font-size="10.00">map&lt;</text>
</a>
</g>
</g>
<!-- Node34&#45;&gt;Node33 -->
<g id="edge56" class="edge">
<title>Node34&#45;&gt;Node33</title>
<path fill="none" stroke="#9a32cd" stroke-dasharray="5,2" d="M272.69,-444.48C317.96,-439.59 400.81,-430.66 459.74,-424.31"/>
<polygon fill="#9a32cd" stroke="#9a32cd" points="272.13,-441.02 262.56,-445.57 272.88,-447.98 272.13,-441.02"/>
<text text-anchor="middle" x="381.5" y="-474" font-family="Helvetica,sans-Serif" font-size="10.00"> channels</text>
<text text-anchor="middle" x="381.5" y="-463" font-family="Helvetica,sans-Serif" font-size="10.00">members</text>
<text text-anchor="middle" x="381.5" y="-452" font-family="Helvetica,sans-Serif" font-size="10.00">roles</text>
<text text-anchor="middle" x="381.5" y="-441" font-family="Helvetica,sans-Serif" font-size="10.00">users</text>
</g>
</g>
</svg>
