<?xml version="1.0" encoding="UTF-8" standalone="no"?>
<!DOCTYPE svg PUBLIC "-//W3C//DTD SVG 1.1//EN"
 "http://www.w3.org/Graphics/SVG/1.1/DTD/svg11.dtd">
<!-- Generated by graphviz version 2.43.0 (0)
 -->
<!-- Title: message_collector Pages: 1 -->
<svg width="140pt" height="140pt"
 viewBox="0.00 0.00 140.00 140.00" xmlns="http://www.w3.org/2000/svg" xmlns:xlink="http://www.w3.org/1999/xlink">
<g id="graph0" class="graph" transform="scale(1 1) rotate(0) translate(4 136)">
<title>message_collector</title>
<!-- Node1 -->
<g id="node1" class="node">
<title>Node1</title>
<g id="a_node1"><a xlink:title="A test version of the message collector for use in unit tests.">
<polygon fill="#bfbfbf" stroke="black" points="12,-0.5 12,-19.5 120,-19.5 120,-0.5 12,-0.5"/>
<text text-anchor="middle" x="66" y="-7.5" font-family="Helvetica,sans-Serif" font-size="10.00">message_collector</text>
</a>
</g>
</g>
<!-- Node2 -->
<g id="node2" class="node">
<title>Node2</title>
<g id="a_node2"><a xlink:href="classdpp_1_1message__collector.html" target="_top" xlink:title="Message collector. Collects messages during a set timeframe and returns them in a list via the comple...">
<polygon fill="none" stroke="black" points="0,-56.5 0,-75.5 132,-75.5 132,-56.5 0,-56.5"/>
<text text-anchor="middle" x="66" y="-63.5" font-family="Helvetica,sans-Serif" font-size="10.00">dpp::message_collector</text>
</a>
</g>
</g>
<!-- Node2&#45;&gt;Node1 -->
<g id="edge1" class="edge">
<title>Node2&#45;&gt;Node1</title>
<path fill="none" stroke="midnightblue" d="M66,-45.8C66,-36.91 66,-26.78 66,-19.75"/>
<polygon fill="midnightblue" stroke="midnightblue" points="62.5,-46.08 66,-56.08 69.5,-46.08 62.5,-46.08"/>
</g>
<!-- Node3 -->
<g id="node3" class="node">
<title>Node3</title>
<g id="a_node3"><a xlink:href="classdpp_1_1collector.html" target="_top" xlink:title="Collects objects from events during a specified time period.">
<polygon fill="none" stroke="black" points="7.5,-112.5 7.5,-131.5 124.5,-131.5 124.5,-112.5 7.5,-112.5"/>
<text text-anchor="middle" x="66" y="-119.5" font-family="Helvetica,sans-Serif" font-size="10.00">message_collector_t</text>
</a>
</g>
</g>
<!-- Node3&#45;&gt;Node2 -->
<g id="edge2" class="edge">
<title>Node3&#45;&gt;Node2</title>
<path fill="none" stroke="midnightblue" d="M66,-101.8C66,-92.91 66,-82.78 66,-75.75"/>
<polygon fill="midnightblue" stroke="midnightblue" points="62.5,-102.08 66,-112.08 69.5,-102.08 62.5,-102.08"/>
</g>
</g>
</svg>
