<?xml version="1.0" encoding="UTF-8" standalone="no"?>
<!DOCTYPE svg PUBLIC "-//W3C//DTD SVG 1.1//EN"
 "http://www.w3.org/Graphics/SVG/1.1/DTD/svg11.dtd">
<!-- Generated by graphviz version 2.43.0 (0)
 -->
<!-- Title: dpp::voice_client_speaking_t Pages: 1 -->
<svg width="1554pt" height="1246pt"
 viewBox="0.00 0.00 1554.00 1246.00" xmlns="http://www.w3.org/2000/svg" xmlns:xlink="http://www.w3.org/1999/xlink">
<g id="graph0" class="graph" transform="scale(1 1) rotate(0) translate(4 1242)">
<title>dpp::voice_client_speaking_t</title>
<polygon fill="white" stroke="transparent" points="-4,4 -4,-1242 1550,-1242 1550,4 -4,4"/>
<!-- Node1 -->
<g id="node1" class="node">
<title>Node1</title>
<g id="a_node1"><a xlink:title="voice client speaking event">
<polygon fill="#bfbfbf" stroke="black" points="1388,-199.5 1388,-218.5 1546,-218.5 1546,-199.5 1388,-199.5"/>
<text text-anchor="middle" x="1467" y="-206.5" font-family="Helvetica,sans-Serif" font-size="10.00">dpp::voice_client_speaking_t</text>
</a>
</g>
</g>
<!-- Node2 -->
<g id="node2" class="node">
<title>Node2</title>
<g id="a_node2"><a xlink:href="structdpp_1_1event__dispatch__t.html" target="_top" xlink:title="Base event parameter struct. Each event you receive from the library will have its parameter derived ...">
<polygon fill="white" stroke="black" points="1227,-399.5 1227,-418.5 1351,-418.5 1351,-399.5 1227,-399.5"/>
<text text-anchor="middle" x="1289" y="-406.5" font-family="Helvetica,sans-Serif" font-size="10.00">dpp::event_dispatch_t</text>
</a>
</g>
</g>
<!-- Node2&#45;&gt;Node1 -->
<g id="edge1" class="edge">
<title>Node2&#45;&gt;Node1</title>
<path fill="none" stroke="midnightblue" d="M1305.31,-391.6C1341.21,-350.8 1429.9,-250.02 1457.6,-218.55"/>
<polygon fill="midnightblue" stroke="midnightblue" points="1302.47,-389.53 1298.49,-399.35 1307.72,-394.16 1302.47,-389.53"/>
</g>
<!-- Node3 -->
<g id="node3" class="node">
<title>Node3</title>
<g id="a_node3"><a xlink:title=" ">
<polygon fill="white" stroke="#bfbfbf" points="212,-739.5 212,-758.5 277,-758.5 277,-739.5 212,-739.5"/>
<text text-anchor="middle" x="244.5" y="-746.5" font-family="Helvetica,sans-Serif" font-size="10.00">std::string</text>
</a>
</g>
</g>
<!-- Node3&#45;&gt;Node2 -->
<g id="edge2" class="edge">
<title>Node3&#45;&gt;Node2</title>
<path fill="none" stroke="#9a32cd" stroke-dasharray="5,2" d="M287.18,-753.81C400.22,-766.42 706.35,-797.46 740,-768 785.54,-728.13 721.11,-680.99 758,-633 763.13,-626.32 1030.33,-520.47 1038,-517 1123.29,-478.4 1139.03,-456.03 1227,-424 1232.53,-421.99 1238.45,-420.15 1244.33,-418.52"/>
<polygon fill="#9a32cd" stroke="#9a32cd" points="287.5,-750.33 277.18,-752.69 286.72,-757.28 287.5,-750.33"/>
<text text-anchor="middle" x="820.5" y="-636" font-family="Helvetica,sans-Serif" font-size="10.00"> raw_event</text>
</g>
<!-- Node5 -->
<g id="node5" class="node">
<title>Node5</title>
<g id="a_node5"><a xlink:href="classdpp_1_1discord__client.html" target="_top" xlink:title="Implements a discord client. Each discord_client connects to one shard and derives from a websocket c...">
<polygon fill="white" stroke="black" points="1056,-399.5 1056,-418.5 1164,-418.5 1164,-399.5 1056,-399.5"/>
<text text-anchor="middle" x="1110" y="-406.5" font-family="Helvetica,sans-Serif" font-size="10.00">dpp::discord_client</text>
</a>
</g>
</g>
<!-- Node3&#45;&gt;Node5 -->
<g id="edge40" class="edge">
<title>Node3&#45;&gt;Node5</title>
<path fill="none" stroke="#9a32cd" stroke-dasharray="5,2" d="M287.36,-747.62C366.82,-744.68 536.58,-736.74 593,-721 601.62,-718.6 602.51,-714.81 611,-712 666.28,-693.68 698.43,-729.79 740,-689 769.43,-660.12 732.01,-630 758,-598 843.24,-493.04 925.65,-554.24 1038,-479 1064.18,-461.47 1089.02,-433.49 1101.19,-418.77"/>
<polygon fill="#9a32cd" stroke="#9a32cd" points="287.09,-744.13 277.23,-747.99 287.35,-751.13 287.09,-744.13"/>
<text text-anchor="middle" x="675.5" y="-726" font-family="Helvetica,sans-Serif" font-size="10.00"> sessionid</text>
<text text-anchor="middle" x="675.5" y="-715" font-family="Helvetica,sans-Serif" font-size="10.00">token</text>
</g>
<!-- Node7 -->
<g id="node7" class="node">
<title>Node7</title>
<g id="a_node7"><a xlink:href="classdpp_1_1ssl__client.html" target="_top" xlink:title="Implements a simple non&#45;blocking SSL stream client.">
<polygon fill="white" stroke="black" points="489,-913.5 489,-932.5 575,-932.5 575,-913.5 489,-913.5"/>
<text text-anchor="middle" x="532" y="-920.5" font-family="Helvetica,sans-Serif" font-size="10.00">dpp::ssl_client</text>
</a>
</g>
</g>
<!-- Node3&#45;&gt;Node7 -->
<g id="edge7" class="edge">
<title>Node3&#45;&gt;Node7</title>
<path fill="none" stroke="#9a32cd" stroke-dasharray="5,2" d="M267.78,-764.34C284.69,-775.29 308.89,-789.52 332,-798 383.39,-816.85 407.87,-790.02 453,-821 465.51,-829.59 462.16,-837.67 471,-850 488.01,-873.74 510.37,-899.76 522.42,-913.41"/>
<polygon fill="#9a32cd" stroke="#9a32cd" points="269.46,-761.25 259.19,-758.65 265.6,-767.09 269.46,-761.25"/>
<text text-anchor="middle" x="392.5" y="-868" font-family="Helvetica,sans-Serif" font-size="10.00"> buffer</text>
<text text-anchor="middle" x="392.5" y="-857" font-family="Helvetica,sans-Serif" font-size="10.00">cipher</text>
<text text-anchor="middle" x="392.5" y="-846" font-family="Helvetica,sans-Serif" font-size="10.00">hostname</text>
<text text-anchor="middle" x="392.5" y="-835" font-family="Helvetica,sans-Serif" font-size="10.00">obuffer</text>
<text text-anchor="middle" x="392.5" y="-824" font-family="Helvetica,sans-Serif" font-size="10.00">port</text>
</g>
<!-- Node17 -->
<g id="node17" class="node">
<title>Node17</title>
<g id="a_node17"><a xlink:href="classdpp_1_1cluster.html" target="_top" xlink:title="The cluster class represents a group of shards and a command queue for sending and receiving commands...">
<polygon fill="white" stroke="black" points="783.5,-456.5 783.5,-475.5 857.5,-475.5 857.5,-456.5 783.5,-456.5"/>
<text text-anchor="middle" x="820.5" y="-463.5" font-family="Helvetica,sans-Serif" font-size="10.00">dpp::cluster</text>
</a>
</g>
</g>
<!-- Node3&#45;&gt;Node17 -->
<g id="edge19" class="edge">
<title>Node3&#45;&gt;Node17</title>
<path fill="none" stroke="#9a32cd" stroke-dasharray="5,2" d="M283.58,-736.22C298.55,-731.55 315.95,-726.55 332,-723 354.36,-718.05 723.67,-680.06 740,-664 775.64,-628.96 739.09,-599.26 758,-553 770.81,-521.67 796.73,-490.67 810.47,-475.55"/>
<polygon fill="#9a32cd" stroke="#9a32cd" points="282.13,-733.01 273.66,-739.38 284.25,-739.68 282.13,-733.01"/>
<text text-anchor="middle" x="532" y="-709" font-family="Helvetica,sans-Serif" font-size="10.00"> token</text>
</g>
<!-- Node20 -->
<g id="node20" class="node">
<title>Node20</title>
<g id="a_node20"><a xlink:href="classdpp_1_1user.html" target="_top" xlink:title="Represents a user on discord. May or may not be a member of a dpp::guild.">
<polygon fill="white" stroke="black" points="501,-222.5 501,-241.5 563,-241.5 563,-222.5 501,-222.5"/>
<text text-anchor="middle" x="532" y="-229.5" font-family="Helvetica,sans-Serif" font-size="10.00">dpp::user</text>
</a>
</g>
</g>
<!-- Node3&#45;&gt;Node20 -->
<g id="edge26" class="edge">
<title>Node3&#45;&gt;Node20</title>
<path fill="none" stroke="#9a32cd" stroke-dasharray="5,2" d="M252.13,-729.71C275.31,-663.85 357.55,-443.49 471,-289 484.78,-270.24 505.14,-252.4 518.24,-241.82"/>
<polygon fill="#9a32cd" stroke="#9a32cd" points="248.79,-728.63 248.81,-739.23 255.4,-730.94 248.79,-728.63"/>
<text text-anchor="middle" x="392.5" y="-534" font-family="Helvetica,sans-Serif" font-size="10.00"> username</text>
</g>
<!-- Node32 -->
<g id="node32" class="node">
<title>Node32</title>
<g id="a_node32"><a xlink:href="classdpp_1_1discord__voice__client.html" target="_top" xlink:title="Implements a discord voice connection. Each discord_voice_client connects to one voice channel and de...">
<polygon fill="white" stroke="black" points="1056.5,-777 1056.5,-807 1163.5,-807 1163.5,-777 1056.5,-777"/>
<text text-anchor="start" x="1064.5" y="-795" font-family="Helvetica,sans-Serif" font-size="10.00">dpp::discord_voice</text>
<text text-anchor="middle" x="1110" y="-784" font-family="Helvetica,sans-Serif" font-size="10.00">_client</text>
</a>
</g>
</g>
<!-- Node3&#45;&gt;Node32 -->
<g id="edge52" class="edge">
<title>Node3&#45;&gt;Node32</title>
<path fill="none" stroke="#9a32cd" stroke-dasharray="5,2" d="M287.22,-756.4C296.17,-758.47 305.49,-760.99 314,-764 322.43,-766.98 323.54,-770.09 332,-773 361.9,-783.27 579.55,-825.77 611,-829 739.22,-842.19 772.11,-830.56 901,-831 961.89,-831.21 979.02,-846.13 1038,-831 1056.12,-826.35 1074.57,-816.01 1088.13,-807.14"/>
<polygon fill="#9a32cd" stroke="#9a32cd" points="287.85,-752.96 277.33,-754.26 286.36,-759.8 287.85,-752.96"/>
<text text-anchor="middle" x="675.5" y="-849" font-family="Helvetica,sans-Serif" font-size="10.00"> sessionid</text>
<text text-anchor="middle" x="675.5" y="-838" font-family="Helvetica,sans-Serif" font-size="10.00">token</text>
</g>
<!-- Node4 -->
<g id="node4" class="node">
<title>Node4</title>
<g id="a_node4"><a xlink:title=" ">
<polygon fill="white" stroke="#bfbfbf" points="0,-734 0,-764 104,-764 104,-734 0,-734"/>
<text text-anchor="start" x="8" y="-752" font-family="Helvetica,sans-Serif" font-size="10.00">std::basic_string&lt;</text>
<text text-anchor="middle" x="52" y="-741" font-family="Helvetica,sans-Serif" font-size="10.00"> Char &gt;</text>
</a>
</g>
</g>
<!-- Node4&#45;&gt;Node3 -->
<g id="edge3" class="edge">
<title>Node4&#45;&gt;Node3</title>
<path fill="none" stroke="midnightblue" d="M114.35,-749C146.8,-749 185.28,-749 211.75,-749"/>
<polygon fill="midnightblue" stroke="midnightblue" points="114.05,-745.5 104.05,-749 114.05,-752.5 114.05,-745.5"/>
</g>
<!-- Node5&#45;&gt;Node2 -->
<g id="edge4" class="edge">
<title>Node5&#45;&gt;Node2</title>
<path fill="none" stroke="#9a32cd" stroke-dasharray="5,2" d="M1174.52,-409C1191.56,-409 1209.94,-409 1226.85,-409"/>
<polygon fill="#9a32cd" stroke="#9a32cd" points="1174.11,-405.5 1164.11,-409 1174.11,-412.5 1174.11,-405.5"/>
<text text-anchor="middle" x="1195.5" y="-412" font-family="Helvetica,sans-Serif" font-size="10.00"> from</text>
</g>
<!-- Node6 -->
<g id="node6" class="node">
<title>Node6</title>
<g id="a_node6"><a xlink:href="classdpp_1_1websocket__client.html" target="_top" xlink:title="Implements a websocket client based on the SSL client.">
<polygon fill="white" stroke="black" points="758,-653.5 758,-672.5 883,-672.5 883,-653.5 758,-653.5"/>
<text text-anchor="middle" x="820.5" y="-660.5" font-family="Helvetica,sans-Serif" font-size="10.00">dpp::websocket_client</text>
</a>
</g>
</g>
<!-- Node6&#45;&gt;Node5 -->
<g id="edge5" class="edge">
<title>Node6&#45;&gt;Node5</title>
<path fill="none" stroke="midnightblue" d="M893.41,-661.86C947.76,-659.53 1016.54,-652.98 1038,-635 1106.72,-577.41 1109.89,-454.02 1109.31,-418.65"/>
<polygon fill="midnightblue" stroke="midnightblue" points="892.95,-658.38 883.1,-662.26 893.22,-665.37 892.95,-658.38"/>
</g>
<!-- Node6&#45;&gt;Node32 -->
<g id="edge46" class="edge">
<title>Node6&#45;&gt;Node32</title>
<path fill="none" stroke="midnightblue" d="M893.14,-668.53C937.38,-674.52 993.92,-687 1038,-713 1065.16,-729.02 1087.72,-758.89 1099.7,-776.95"/>
<polygon fill="midnightblue" stroke="midnightblue" points="893.4,-665.04 883.03,-667.25 892.51,-671.98 893.4,-665.04"/>
</g>
<!-- Node7&#45;&gt;Node6 -->
<g id="edge6" class="edge">
<title>Node7&#45;&gt;Node6</title>
<path fill="none" stroke="midnightblue" d="M585.21,-927.13C632.98,-927.77 701.86,-920.19 740,-877 768.07,-845.21 732.45,-720.85 758,-687 762.76,-680.69 769.43,-676.04 776.62,-672.61"/>
<polygon fill="midnightblue" stroke="midnightblue" points="585.14,-923.62 575.05,-926.87 584.96,-930.62 585.14,-923.62"/>
</g>
<!-- Node8 -->
<g id="node8" class="node">
<title>Node8</title>
<g id="a_node8"><a xlink:title=" ">
<polygon fill="white" stroke="#bfbfbf" points="225.5,-1103.5 225.5,-1122.5 263.5,-1122.5 263.5,-1103.5 225.5,-1103.5"/>
<text text-anchor="middle" x="244.5" y="-1110.5" font-family="Helvetica,sans-Serif" font-size="10.00">bool</text>
</a>
</g>
</g>
<!-- Node8&#45;&gt;Node5 -->
<g id="edge17" class="edge">
<title>Node8&#45;&gt;Node5</title>
<path fill="none" stroke="#9a32cd" stroke-dasharray="5,2" d="M273.81,-1114.28C314.56,-1115.25 391.59,-1113.73 453,-1093 488.55,-1081 720.26,-946.91 740,-915 762.89,-877.99 729.26,-752.68 758,-720 801.01,-671.09 837.32,-701.63 901,-688 961.77,-674.99 992.46,-702.29 1038,-660 1110.84,-592.36 1110.97,-456.18 1109.52,-418.73"/>
<polygon fill="#9a32cd" stroke="#9a32cd" points="273.66,-1110.78 263.56,-1113.97 273.45,-1117.77 273.66,-1110.78"/>
<text text-anchor="middle" x="675.5" y="-1020" font-family="Helvetica,sans-Serif" font-size="10.00"> ready</text>
<text text-anchor="middle" x="675.5" y="-1009" font-family="Helvetica,sans-Serif" font-size="10.00">terminating</text>
</g>
<!-- Node8&#45;&gt;Node7 -->
<g id="edge8" class="edge">
<title>Node8&#45;&gt;Node7</title>
<path fill="none" stroke="#9a32cd" stroke-dasharray="5,2" d="M273.78,-1107.29C286.41,-1104.21 301.29,-1099.82 314,-1094 322.74,-1090 323.1,-1085.64 332,-1082 382.67,-1061.29 408.41,-1090.76 453,-1059 453.74,-1058.47 507.75,-963.79 525.45,-932.74"/>
<polygon fill="#9a32cd" stroke="#9a32cd" points="272.76,-1103.94 263.79,-1109.58 274.32,-1110.76 272.76,-1103.94"/>
<text text-anchor="middle" x="392.5" y="-1085" font-family="Helvetica,sans-Serif" font-size="10.00"> nonblocking</text>
</g>
<!-- Node8&#45;&gt;Node32 -->
<g id="edge48" class="edge">
<title>Node8&#45;&gt;Node32</title>
<path fill="none" stroke="#9a32cd" stroke-dasharray="5,2" d="M273.74,-1116.49C313.81,-1120.81 389.38,-1126.6 453,-1118 736.78,-1079.66 804.76,-1014.13 1038,-848 1056.54,-834.79 1076.86,-818.58 1090.99,-807.01"/>
<polygon fill="#9a32cd" stroke="#9a32cd" points="273.98,-1112.99 263.65,-1115.35 273.19,-1119.95 273.98,-1112.99"/>
<text text-anchor="middle" x="675.5" y="-1112" font-family="Helvetica,sans-Serif" font-size="10.00"> decode_voice_recv</text>
<text text-anchor="middle" x="675.5" y="-1101" font-family="Helvetica,sans-Serif" font-size="10.00">sodium_initialised</text>
<text text-anchor="middle" x="675.5" y="-1090" font-family="Helvetica,sans-Serif" font-size="10.00">terminating</text>
</g>
<!-- Node9 -->
<g id="node9" class="node">
<title>Node9</title>
<g id="a_node9"><a xlink:title=" ">
<polygon fill="white" stroke="#bfbfbf" points="230,-1003.5 230,-1022.5 259,-1022.5 259,-1003.5 230,-1003.5"/>
<text text-anchor="middle" x="244.5" y="-1010.5" font-family="Helvetica,sans-Serif" font-size="10.00">int</text>
</a>
</g>
</g>
<!-- Node9&#45;&gt;Node7 -->
<g id="edge9" class="edge">
<title>Node9&#45;&gt;Node7</title>
<path fill="none" stroke="#9a32cd" stroke-dasharray="5,2" d="M269.36,-1014.4C309.16,-1015.82 390.88,-1014.8 453,-988 482.46,-975.29 509.45,-947.8 522.6,-932.97"/>
<polygon fill="#9a32cd" stroke="#9a32cd" points="269.44,-1010.9 259.29,-1013.95 269.13,-1017.89 269.44,-1010.9"/>
<text text-anchor="middle" x="392.5" y="-1016" font-family="Helvetica,sans-Serif" font-size="10.00"> sfd</text>
</g>
<!-- Node10 -->
<g id="node10" class="node">
<title>Node10</title>
<g id="a_node10"><a xlink:href="classdpp_1_1opensslcontext.html" target="_top" xlink:title="This is an opaque class containing openssl library specific structures. We define it this way so that...">
<polygon fill="white" stroke="black" points="187,-1065.5 187,-1084.5 302,-1084.5 302,-1065.5 187,-1065.5"/>
<text text-anchor="middle" x="244.5" y="-1072.5" font-family="Helvetica,sans-Serif" font-size="10.00">dpp::opensslcontext</text>
</a>
</g>
</g>
<!-- Node10&#45;&gt;Node7 -->
<g id="edge10" class="edge">
<title>Node10&#45;&gt;Node7</title>
<path fill="none" stroke="#9a32cd" stroke-dasharray="5,2" d="M282.86,-1062.31C298,-1057.44 315.73,-1052.07 332,-1048 385.1,-1034.71 406.42,-1053.75 453,-1025 490.56,-1001.82 516.68,-953.48 526.59,-932.77"/>
<polygon fill="#9a32cd" stroke="#9a32cd" points="281.74,-1058.99 273.32,-1065.42 283.91,-1065.65 281.74,-1058.99"/>
<text text-anchor="middle" x="392.5" y="-1051" font-family="Helvetica,sans-Serif" font-size="10.00"> ssl</text>
</g>
<!-- Node11 -->
<g id="node11" class="node">
<title>Node11</title>
<g id="a_node11"><a xlink:title=" ">
<polygon fill="white" stroke="#bfbfbf" points="31,-1180.5 31,-1199.5 73,-1199.5 73,-1180.5 31,-1180.5"/>
<text text-anchor="middle" x="52" y="-1187.5" font-family="Helvetica,sans-Serif" font-size="10.00">SSL *</text>
</a>
</g>
</g>
<!-- Node11&#45;&gt;Node10 -->
<g id="edge11" class="edge">
<title>Node11&#45;&gt;Node10</title>
<path fill="none" stroke="#9a32cd" stroke-dasharray="5,2" d="M69.78,-1173.16C91.99,-1151.78 133.24,-1115.14 175,-1094 182.49,-1090.21 190.83,-1087.09 199.05,-1084.56"/>
<polygon fill="#9a32cd" stroke="#9a32cd" points="67.19,-1170.79 62.49,-1180.29 72.09,-1175.8 67.19,-1170.79"/>
<text text-anchor="middle" x="139.5" y="-1128" font-family="Helvetica,sans-Serif" font-size="10.00"> ssl</text>
</g>
<!-- Node12 -->
<g id="node12" class="node">
<title>Node12</title>
<g id="a_node12"><a xlink:title=" ">
<polygon fill="white" stroke="#bfbfbf" points="18.5,-1218.5 18.5,-1237.5 85.5,-1237.5 85.5,-1218.5 18.5,-1218.5"/>
<text text-anchor="middle" x="52" y="-1225.5" font-family="Helvetica,sans-Serif" font-size="10.00">SSL_CTX *</text>
</a>
</g>
</g>
<!-- Node12&#45;&gt;Node10 -->
<g id="edge12" class="edge">
<title>Node12&#45;&gt;Node10</title>
<path fill="none" stroke="#9a32cd" stroke-dasharray="5,2" d="M94.91,-1214.65C98.1,-1212.96 101.18,-1211.08 104,-1209 135.1,-1186.02 137.99,-1173.67 157,-1140 167.79,-1120.88 158.7,-1108.71 175,-1094 179.31,-1090.11 184.34,-1087.01 189.69,-1084.54"/>
<polygon fill="#9a32cd" stroke="#9a32cd" points="93.29,-1211.55 85.69,-1218.93 96.23,-1217.9 93.29,-1211.55"/>
<text text-anchor="middle" x="139.5" y="-1196" font-family="Helvetica,sans-Serif" font-size="10.00"> ctx</text>
</g>
<!-- Node13 -->
<g id="node13" class="node">
<title>Node13</title>
<g id="a_node13"><a xlink:title=" ">
<polygon fill="white" stroke="#bfbfbf" points="220.5,-531.5 220.5,-550.5 268.5,-550.5 268.5,-531.5 220.5,-531.5"/>
<text text-anchor="middle" x="244.5" y="-538.5" font-family="Helvetica,sans-Serif" font-size="10.00">time_t</text>
</a>
</g>
</g>
<!-- Node13&#45;&gt;Node5 -->
<g id="edge37" class="edge">
<title>Node13&#45;&gt;Node5</title>
<path fill="none" stroke="#9a32cd" stroke-dasharray="5,2" d="M278.27,-527.98C330.57,-506.58 429.45,-463.43 453,-434 472.8,-409.26 447.5,-386.27 471,-365 517.69,-322.73 548.21,-347.9 611,-343 668.16,-338.54 694.44,-308.2 740,-343 764.16,-361.46 734.16,-390.13 758,-409 807.86,-448.48 837.42,-412.89 901,-414 961.88,-415.06 977.15,-416.14 1038,-414 1043.8,-413.8 1049.87,-413.5 1055.91,-413.15"/>
<polygon fill="#9a32cd" stroke="#9a32cd" points="276.72,-524.83 268.77,-531.84 279.35,-531.32 276.72,-524.83"/>
<text text-anchor="middle" x="675.5" y="-357" font-family="Helvetica,sans-Serif" font-size="10.00"> last_heartbeat</text>
<text text-anchor="middle" x="675.5" y="-346" font-family="Helvetica,sans-Serif" font-size="10.00">last_heartbeat_ack</text>
</g>
<!-- Node13&#45;&gt;Node7 -->
<g id="edge13" class="edge">
<title>Node13&#45;&gt;Node7</title>
<path fill="none" stroke="#9a32cd" stroke-dasharray="5,2" d="M261.98,-557.76C298.86,-595.77 389.79,-692.28 453,-783 485.29,-829.34 515.42,-890.22 526.51,-913.44"/>
<polygon fill="#9a32cd" stroke="#9a32cd" points="264.44,-555.27 254.96,-550.56 259.43,-560.16 264.44,-555.27"/>
<text text-anchor="middle" x="392.5" y="-786" font-family="Helvetica,sans-Serif" font-size="10.00"> last_tick</text>
</g>
<!-- Node13&#45;&gt;Node17 -->
<g id="edge20" class="edge">
<title>Node13&#45;&gt;Node17</title>
<path fill="none" stroke="#9a32cd" stroke-dasharray="5,2" d="M278.48,-536.13C342.52,-526.73 488.18,-505.64 611,-490 671.36,-482.32 741.7,-474.44 783.31,-469.9"/>
<polygon fill="#9a32cd" stroke="#9a32cd" points="277.95,-532.67 268.57,-537.59 278.97,-539.59 277.95,-532.67"/>
<text text-anchor="middle" x="532" y="-512" font-family="Helvetica,sans-Serif" font-size="10.00"> last_identify</text>
</g>
<!-- Node13&#45;&gt;Node32 -->
<g id="edge50" class="edge">
<title>Node13&#45;&gt;Node32</title>
<path fill="none" stroke="#9a32cd" stroke-dasharray="5,2" d="M252.26,-560.32C263.84,-590.65 290.34,-649.36 332,-682 535.51,-841.47 642.68,-792.18 901,-803 961.84,-805.55 977.29,-807.67 1038,-803 1043.97,-802.54 1050.2,-801.87 1056.37,-801.07"/>
<polygon fill="#9a32cd" stroke="#9a32cd" points="255.52,-559.04 248.78,-550.86 248.94,-561.45 255.52,-559.04"/>
<text text-anchor="middle" x="675.5" y="-806" font-family="Helvetica,sans-Serif" font-size="10.00"> last_heartbeat</text>
</g>
<!-- Node14 -->
<g id="node14" class="node">
<title>Node14</title>
<g id="a_node14"><a xlink:title=" ">
<polygon fill="white" stroke="#bfbfbf" points="24,-185.5 24,-204.5 80,-204.5 80,-185.5 24,-185.5"/>
<text text-anchor="middle" x="52" y="-192.5" font-family="Helvetica,sans-Serif" font-size="10.00">uint64_t</text>
</a>
</g>
</g>
<!-- Node14&#45;&gt;Node1 -->
<g id="edge54" class="edge">
<title>Node14&#45;&gt;Node1</title>
<path fill="none" stroke="#9a32cd" stroke-dasharray="5,2" d="M60.69,-175.85C81.84,-126.71 145.84,0 243.5,0 243.5,0 243.5,0 1290,0 1395.78,0 1450.82,-158.59 1463.25,-199.48"/>
<polygon fill="#9a32cd" stroke="#9a32cd" points="57.36,-174.75 56.74,-185.33 63.82,-177.45 57.36,-174.75"/>
<text text-anchor="middle" x="820.5" y="-3" font-family="Helvetica,sans-Serif" font-size="10.00"> user_id</text>
</g>
<!-- Node14&#45;&gt;Node5 -->
<g id="edge39" class="edge">
<title>Node14&#45;&gt;Node5</title>
<path fill="none" stroke="#9a32cd" stroke-dasharray="5,2" d="M64.9,-177.01C84.48,-148.84 126.22,-94.5 175,-65 202.04,-48.65 211.91,-46 243.5,-46 243.5,-46 243.5,-46 821.5,-46 922.9,-46 969.29,-43.43 1038,-118 1077.73,-161.12 1102.56,-354.07 1107.91,-399.43"/>
<polygon fill="#9a32cd" stroke="#9a32cd" points="61.86,-175.25 59.13,-185.49 67.65,-179.19 61.86,-175.25"/>
<text text-anchor="middle" x="532" y="-49" font-family="Helvetica,sans-Serif" font-size="10.00"> last_seq</text>
</g>
<!-- Node14&#45;&gt;Node7 -->
<g id="edge14" class="edge">
<title>Node14&#45;&gt;Node7</title>
<path fill="none" stroke="#9a32cd" stroke-dasharray="5,2" d="M55.25,-214.97C65.7,-305.05 111.67,-673.21 175,-768 246.9,-875.62 411.2,-909 488.86,-918.96"/>
<polygon fill="#9a32cd" stroke="#9a32cd" points="58.7,-214.31 54.08,-204.78 51.74,-215.11 58.7,-214.31"/>
<text text-anchor="middle" x="244.5" y="-885" font-family="Helvetica,sans-Serif" font-size="10.00"> bytes_in</text>
<text text-anchor="middle" x="244.5" y="-874" font-family="Helvetica,sans-Serif" font-size="10.00">bytes_out</text>
</g>
<!-- Node21 -->
<g id="node21" class="node">
<title>Node21</title>
<g id="a_node21"><a xlink:href="classdpp_1_1managed.html" target="_top" xlink:title="The managed class is the base class for various types that can be stored in a cache that are identifi...">
<polygon fill="white" stroke="black" points="201.5,-165.5 201.5,-184.5 287.5,-184.5 287.5,-165.5 201.5,-165.5"/>
<text text-anchor="middle" x="244.5" y="-172.5" font-family="Helvetica,sans-Serif" font-size="10.00">dpp::managed</text>
</a>
</g>
</g>
<!-- Node14&#45;&gt;Node21 -->
<g id="edge25" class="edge">
<title>Node14&#45;&gt;Node21</title>
<path fill="none" stroke="#9a32cd" stroke-dasharray="5,2" d="M90.52,-191.06C122.36,-187.72 168.01,-182.93 201.15,-179.45"/>
<polygon fill="#9a32cd" stroke="#9a32cd" points="89.87,-187.61 80.29,-192.13 90.6,-194.57 89.87,-187.61"/>
<text text-anchor="middle" x="139.5" y="-191" font-family="Helvetica,sans-Serif" font-size="10.00"> id</text>
</g>
<!-- Node23 -->
<g id="node23" class="node">
<title>Node23</title>
<g id="a_node23"><a xlink:href="structdpp_1_1utility_1_1iconhash.html" target="_top" xlink:title="Store a 128 bit icon hash (profile picture, server icon etc) as a 128 bit binary value made of two ui...">
<polygon fill="white" stroke="black" points="185.5,-204.5 185.5,-223.5 303.5,-223.5 303.5,-204.5 185.5,-204.5"/>
<text text-anchor="middle" x="244.5" y="-211.5" font-family="Helvetica,sans-Serif" font-size="10.00">dpp::utility::iconhash</text>
</a>
</g>
</g>
<!-- Node14&#45;&gt;Node23 -->
<g id="edge29" class="edge">
<title>Node14&#45;&gt;Node23</title>
<path fill="none" stroke="#9a32cd" stroke-dasharray="5,2" d="M90.48,-198.74C117.47,-201.43 154.41,-205.11 185.23,-208.19"/>
<polygon fill="#9a32cd" stroke="#9a32cd" points="90.59,-195.23 80.29,-197.72 89.9,-202.2 90.59,-195.23"/>
<text text-anchor="middle" x="139.5" y="-220" font-family="Helvetica,sans-Serif" font-size="10.00"> first</text>
<text text-anchor="middle" x="139.5" y="-209" font-family="Helvetica,sans-Serif" font-size="10.00">second</text>
</g>
<!-- Node14&#45;&gt;Node32 -->
<g id="edge53" class="edge">
<title>Node14&#45;&gt;Node32</title>
<path fill="none" stroke="#9a32cd" stroke-dasharray="5,2" d="M55.02,-215.07C68.43,-347.75 145.11,-1094.67 175,-1132 195.26,-1157.3 211.09,-1157 243.5,-1157 243.5,-1157 243.5,-1157 821.5,-1157 1002.59,-1157 1087.17,-876.3 1105.24,-807.22"/>
<polygon fill="#9a32cd" stroke="#9a32cd" points="58.46,-214.37 53.98,-204.77 51.5,-215.07 58.46,-214.37"/>
<text text-anchor="middle" x="532" y="-1171" font-family="Helvetica,sans-Serif" font-size="10.00"> channel_id</text>
<text text-anchor="middle" x="532" y="-1160" font-family="Helvetica,sans-Serif" font-size="10.00">server_id</text>
</g>
<!-- Node15 -->
<g id="node15" class="node">
<title>Node15</title>
<g id="a_node15"><a xlink:title=" ">
<polygon fill="white" stroke="#bfbfbf" points="175,-958.5 175,-977.5 314,-977.5 314,-958.5 175,-958.5"/>
<text text-anchor="middle" x="244.5" y="-965.5" font-family="Helvetica,sans-Serif" font-size="10.00">function&lt; dpp::socket()&gt;</text>
</a>
</g>
</g>
<!-- Node15&#45;&gt;Node7 -->
<g id="edge15" class="edge">
<title>Node15&#45;&gt;Node7</title>
<path fill="none" stroke="#9a32cd" stroke-dasharray="5,2" d="M324.42,-963.01C363.38,-959.7 410.92,-954.36 453,-946 469.89,-942.64 488.4,-937.26 503.15,-932.55"/>
<polygon fill="#9a32cd" stroke="#9a32cd" points="323.87,-959.55 314.19,-963.85 324.45,-966.52 323.87,-959.55"/>
<text text-anchor="middle" x="392.5" y="-976" font-family="Helvetica,sans-Serif" font-size="10.00"> custom_readable_fd</text>
<text text-anchor="middle" x="392.5" y="-965" font-family="Helvetica,sans-Serif" font-size="10.00">custom_writeable_fd</text>
</g>
<!-- Node16 -->
<g id="node16" class="node">
<title>Node16</title>
<g id="a_node16"><a xlink:title=" ">
<polygon fill="white" stroke="#bfbfbf" points="192.5,-920.5 192.5,-939.5 296.5,-939.5 296.5,-920.5 192.5,-920.5"/>
<text text-anchor="middle" x="244.5" y="-927.5" font-family="Helvetica,sans-Serif" font-size="10.00">function&lt; void()&gt;</text>
</a>
</g>
</g>
<!-- Node16&#45;&gt;Node7 -->
<g id="edge16" class="edge">
<title>Node16&#45;&gt;Node7</title>
<path fill="none" stroke="#9a32cd" stroke-dasharray="5,2" d="M306.89,-925.25C315.32,-924.74 323.87,-924.3 332,-924 386.03,-921.99 448.37,-922.07 488.67,-922.43"/>
<polygon fill="#9a32cd" stroke="#9a32cd" points="306.46,-921.77 296.7,-925.9 306.9,-928.76 306.46,-921.77"/>
<text text-anchor="middle" x="392.5" y="-938" font-family="Helvetica,sans-Serif" font-size="10.00"> custom_readable_ready</text>
<text text-anchor="middle" x="392.5" y="-927" font-family="Helvetica,sans-Serif" font-size="10.00">custom_writeable_ready</text>
</g>
<!-- Node17&#45;&gt;Node5 -->
<g id="edge18" class="edge">
<title>Node17&#45;&gt;Node5</title>
<path fill="none" stroke="#9a32cd" stroke-dasharray="5,2" d="M868.01,-465.18C912.42,-463.39 980.85,-457.99 1038,-442 1057.5,-436.54 1078.36,-426.26 1092.38,-418.62"/>
<polygon fill="#9a32cd" stroke="#9a32cd" points="867.67,-461.69 857.81,-465.55 867.92,-468.69 867.67,-461.69"/>
<text text-anchor="middle" x="969.5" y="-467" font-family="Helvetica,sans-Serif" font-size="10.00"> creator</text>
</g>
<!-- Node17&#45;&gt;Node32 -->
<g id="edge47" class="edge">
<title>Node17&#45;&gt;Node32</title>
<path fill="none" stroke="#9a32cd" stroke-dasharray="5,2" d="M844.02,-481.26C886.33,-510.78 978.74,-579.53 1038,-655 1069.27,-694.82 1093.07,-750.52 1103.38,-776.94"/>
<polygon fill="#9a32cd" stroke="#9a32cd" points="846,-478.37 835.79,-475.56 842.02,-484.13 846,-478.37"/>
<text text-anchor="middle" x="969.5" y="-658" font-family="Helvetica,sans-Serif" font-size="10.00"> creator</text>
</g>
<!-- Node18 -->
<g id="node18" class="node">
<title>Node18</title>
<g id="a_node18"><a xlink:title=" ">
<polygon fill="white" stroke="#bfbfbf" points="216.5,-303.5 216.5,-322.5 272.5,-322.5 272.5,-303.5 216.5,-303.5"/>
<text text-anchor="middle" x="244.5" y="-310.5" font-family="Helvetica,sans-Serif" font-size="10.00">uint32_t</text>
</a>
</g>
</g>
<!-- Node18&#45;&gt;Node1 -->
<g id="edge55" class="edge">
<title>Node18&#45;&gt;Node1</title>
<path fill="none" stroke="#9a32cd" stroke-dasharray="5,2" d="M279.79,-298.93C292.11,-292.36 305.14,-283.44 314,-272 331.31,-249.66 311.18,-230.12 332,-211 355.31,-189.6 579.64,-158.24 611,-154 703.04,-141.57 726.62,-140 819.5,-140 819.5,-140 819.5,-140 1290,-140 1354.33,-140 1423.32,-180.45 1452.13,-199.41"/>
<polygon fill="#9a32cd" stroke="#9a32cd" points="278,-295.91 270.59,-303.49 281.11,-302.18 278,-295.91"/>
<text text-anchor="middle" x="969.5" y="-143" font-family="Helvetica,sans-Serif" font-size="10.00"> ssrc</text>
</g>
<!-- Node18&#45;&gt;Node5 -->
<g id="edge36" class="edge">
<title>Node18&#45;&gt;Node5</title>
<path fill="none" stroke="#9a32cd" stroke-dasharray="5,2" d="M282.79,-315.31C325,-316.83 395.38,-316.02 453,-299 461.78,-296.41 462.59,-292.6 471,-289 523.21,-266.65 554.32,-292.58 593,-251 616.94,-225.27 583.47,-195.84 611,-174 655.92,-138.37 683.31,-165.45 740,-174 877.06,-194.68 932.4,-176.21 1038,-266 1081.71,-303.17 1101.15,-373.73 1107,-399.37"/>
<polygon fill="#9a32cd" stroke="#9a32cd" points="282.83,-311.81 272.69,-314.88 282.53,-318.8 282.83,-311.81"/>
<text text-anchor="middle" x="675.5" y="-232" font-family="Helvetica,sans-Serif" font-size="10.00"> heartbeat_interval</text>
<text text-anchor="middle" x="675.5" y="-221" font-family="Helvetica,sans-Serif" font-size="10.00">intents</text>
<text text-anchor="middle" x="675.5" y="-210" font-family="Helvetica,sans-Serif" font-size="10.00">max_shards</text>
<text text-anchor="middle" x="675.5" y="-199" font-family="Helvetica,sans-Serif" font-size="10.00">reconnects</text>
<text text-anchor="middle" x="675.5" y="-188" font-family="Helvetica,sans-Serif" font-size="10.00">resumes</text>
<text text-anchor="middle" x="675.5" y="-177" font-family="Helvetica,sans-Serif" font-size="10.00">shard_id</text>
</g>
<!-- Node18&#45;&gt;Node17 -->
<g id="edge21" class="edge">
<title>Node18&#45;&gt;Node17</title>
<path fill="none" stroke="#9a32cd" stroke-dasharray="5,2" d="M275.88,-326.73C318.73,-345.72 399.66,-380.23 471,-403 532,-422.47 548.1,-425.02 611,-437 670.95,-448.42 741.41,-457.28 783.16,-462.06"/>
<polygon fill="#9a32cd" stroke="#9a32cd" points="277.15,-323.46 266.59,-322.59 274.3,-329.85 277.15,-323.46"/>
<text text-anchor="middle" x="532" y="-470" font-family="Helvetica,sans-Serif" font-size="10.00"> cluster_id</text>
<text text-anchor="middle" x="532" y="-459" font-family="Helvetica,sans-Serif" font-size="10.00">intents</text>
<text text-anchor="middle" x="532" y="-448" font-family="Helvetica,sans-Serif" font-size="10.00">maxclusters</text>
<text text-anchor="middle" x="532" y="-437" font-family="Helvetica,sans-Serif" font-size="10.00">numshards</text>
</g>
<!-- Node18&#45;&gt;Node20 -->
<g id="edge30" class="edge">
<title>Node18&#45;&gt;Node20</title>
<path fill="none" stroke="#9a32cd" stroke-dasharray="5,2" d="M282.27,-301.76C297.58,-297.24 315.59,-292.13 332,-288 385.34,-274.58 400.28,-277.7 453,-262 463.43,-258.89 488.42,-249.13 507.32,-241.57"/>
<polygon fill="#9a32cd" stroke="#9a32cd" points="281.22,-298.42 272.64,-304.63 283.22,-305.13 281.22,-298.42"/>
<text text-anchor="middle" x="392.5" y="-291" font-family="Helvetica,sans-Serif" font-size="10.00"> flags</text>
</g>
<!-- Node18&#45;&gt;Node32 -->
<g id="edge49" class="edge">
<title>Node18&#45;&gt;Node32</title>
<path fill="none" stroke="#9a32cd" stroke-dasharray="5,2" d="M253.11,-332.24C267.24,-368.68 297.56,-450.54 314,-522 320.64,-550.85 312.05,-632.13 332,-654 369.2,-694.78 399.84,-667.13 453,-682 524.2,-701.91 539.19,-716.43 611,-734 675.3,-749.73 692.55,-748.08 758,-758 821.45,-767.62 837.17,-771.4 901,-778 953.74,-783.46 1014.24,-787.25 1056.34,-789.5"/>
<polygon fill="#9a32cd" stroke="#9a32cd" points="256.33,-330.86 249.43,-322.83 249.81,-333.41 256.33,-330.86"/>
<text text-anchor="middle" x="675.5" y="-759" font-family="Helvetica,sans-Serif" font-size="10.00"> heartbeat_interval</text>
</g>
<!-- Node19 -->
<g id="node19" class="node">
<title>Node19</title>
<g id="a_node19"><a xlink:title=" ">
<polygon fill="white" stroke="#bfbfbf" points="507,-298.5 507,-317.5 557,-317.5 557,-298.5 507,-298.5"/>
<text text-anchor="middle" x="532" y="-305.5" font-family="Helvetica,sans-Serif" font-size="10.00">double</text>
</a>
</g>
</g>
<!-- Node19&#45;&gt;Node5 -->
<g id="edge42" class="edge">
<title>Node19&#45;&gt;Node5</title>
<path fill="none" stroke="#9a32cd" stroke-dasharray="5,2" d="M567.57,-305.27C581.12,-304.22 596.78,-303.03 611,-302 800.45,-288.27 874.89,-222.66 1038,-320 1070.93,-339.65 1094.72,-380.63 1104.32,-399.33"/>
<polygon fill="#9a32cd" stroke="#9a32cd" points="566.94,-301.81 557.24,-306.08 567.48,-308.79 566.94,-301.81"/>
<text text-anchor="middle" x="820.5" y="-284" font-family="Helvetica,sans-Serif" font-size="10.00"> websocket_ping</text>
</g>
<!-- Node19&#45;&gt;Node17 -->
<g id="edge22" class="edge">
<title>Node19&#45;&gt;Node17</title>
<path fill="none" stroke="#9a32cd" stroke-dasharray="5,2" d="M549.34,-324.87C564.09,-339.02 587.08,-358.53 611,-369 664.21,-392.29 688.66,-362.82 740,-390 750.28,-395.44 749.73,-400.82 758,-409 775.18,-425.99 795.94,-444.92 808.41,-456.12"/>
<polygon fill="#9a32cd" stroke="#9a32cd" points="551.62,-322.2 542.05,-317.66 546.7,-327.18 551.62,-322.2"/>
<text text-anchor="middle" x="675.5" y="-393" font-family="Helvetica,sans-Serif" font-size="10.00"> rest_ping</text>
</g>
<!-- Node20&#45;&gt;Node17 -->
<g id="edge23" class="edge">
<title>Node20&#45;&gt;Node17</title>
<path fill="none" stroke="#9a32cd" stroke-dasharray="5,2" d="M573.2,-236.17C620.58,-243.32 698.15,-262.46 740,-313 767.69,-346.44 737.02,-370.99 758,-409 769.19,-429.26 790.2,-446.35 804.52,-456.38"/>
<polygon fill="#9a32cd" stroke="#9a32cd" points="573.67,-232.7 563.28,-234.78 572.7,-239.64 573.67,-232.7"/>
<text text-anchor="middle" x="675.5" y="-316" font-family="Helvetica,sans-Serif" font-size="10.00"> me</text>
</g>
<!-- Node21&#45;&gt;Node20 -->
<g id="edge24" class="edge">
<title>Node21&#45;&gt;Node20</title>
<path fill="none" stroke="midnightblue" d="M297.87,-182.73C339.98,-189.27 400.56,-199.42 453,-211 468.88,-214.51 486.39,-219.15 500.78,-223.18"/>
<polygon fill="midnightblue" stroke="midnightblue" points="298.26,-179.25 287.85,-181.19 297.2,-186.17 298.26,-179.25"/>
</g>
<!-- Node22 -->
<g id="node22" class="node">
<title>Node22</title>
<g id="a_node22"><a xlink:title=" ">
<polygon fill="white" stroke="#bfbfbf" points="216.5,-243.5 216.5,-262.5 272.5,-262.5 272.5,-243.5 216.5,-243.5"/>
<text text-anchor="middle" x="244.5" y="-250.5" font-family="Helvetica,sans-Serif" font-size="10.00">uint16_t</text>
</a>
</g>
</g>
<!-- Node22&#45;&gt;Node20 -->
<g id="edge27" class="edge">
<title>Node22&#45;&gt;Node20</title>
<path fill="none" stroke="#9a32cd" stroke-dasharray="5,2" d="M282.66,-250.27C339.75,-246.07 447.96,-238.11 500.65,-234.23"/>
<polygon fill="#9a32cd" stroke="#9a32cd" points="282.33,-246.78 272.62,-251.01 282.85,-253.76 282.33,-246.78"/>
<text text-anchor="middle" x="392.5" y="-250" font-family="Helvetica,sans-Serif" font-size="10.00"> discriminator</text>
</g>
<!-- Node23&#45;&gt;Node20 -->
<g id="edge28" class="edge">
<title>Node23&#45;&gt;Node20</title>
<path fill="none" stroke="#9a32cd" stroke-dasharray="5,2" d="M313.79,-213.85C354.32,-214.29 406.68,-215.78 453,-220 468.83,-221.44 486.33,-224.04 500.73,-226.45"/>
<polygon fill="#9a32cd" stroke="#9a32cd" points="313.78,-210.35 303.75,-213.76 313.72,-217.35 313.78,-210.35"/>
<text text-anchor="middle" x="392.5" y="-223" font-family="Helvetica,sans-Serif" font-size="10.00"> avatar</text>
</g>
<!-- Node24 -->
<g id="node24" class="node">
<title>Node24</title>
<g id="a_node24"><a xlink:title=" ">
<polygon fill="white" stroke="#bfbfbf" points="219.5,-125.5 219.5,-144.5 269.5,-144.5 269.5,-125.5 219.5,-125.5"/>
<text text-anchor="middle" x="244.5" y="-132.5" font-family="Helvetica,sans-Serif" font-size="10.00">uint8_t</text>
</a>
</g>
</g>
<!-- Node24&#45;&gt;Node20 -->
<g id="edge31" class="edge">
<title>Node24&#45;&gt;Node20</title>
<path fill="none" stroke="#9a32cd" stroke-dasharray="5,2" d="M279.6,-136.7C321.88,-139.86 395.42,-148.8 453,-174 480.52,-186.04 507.48,-209.38 521.35,-222.48"/>
<polygon fill="#9a32cd" stroke="#9a32cd" points="279.76,-133.21 269.55,-136.02 279.29,-140.19 279.76,-133.21"/>
<text text-anchor="middle" x="392.5" y="-177" font-family="Helvetica,sans-Serif" font-size="10.00"> refcount</text>
</g>
<!-- Node25 -->
<g id="node25" class="node">
<title>Node25</title>
<g id="a_node25"><a xlink:href="structdpp_1_1cache__policy__t.html" target="_top" xlink:title="Represents the caching policy of the cluster.">
<polygon fill="white" stroke="black" points="475.5,-86.5 475.5,-105.5 588.5,-105.5 588.5,-86.5 475.5,-86.5"/>
<text text-anchor="middle" x="532" y="-93.5" font-family="Helvetica,sans-Serif" font-size="10.00">dpp::cache_policy_t</text>
</a>
</g>
</g>
<!-- Node25&#45;&gt;Node17 -->
<g id="edge32" class="edge">
<title>Node25&#45;&gt;Node17</title>
<path fill="none" stroke="#9a32cd" stroke-dasharray="5,2" d="M598.73,-90.95C645.42,-91.28 705.7,-100.42 740,-140 779.24,-185.27 732.21,-354.93 758,-409 767.9,-429.76 789.01,-446.61 803.72,-456.46"/>
<polygon fill="#9a32cd" stroke="#9a32cd" points="598.66,-87.45 588.68,-91.01 598.71,-94.45 598.66,-87.45"/>
<text text-anchor="middle" x="675.5" y="-143" font-family="Helvetica,sans-Serif" font-size="10.00"> cache_policy</text>
</g>
<!-- Node26 -->
<g id="node26" class="node">
<title>Node26</title>
<g id="a_node26"><a xlink:title=" ">
<polygon fill="white" stroke="#bfbfbf" points="180.5,-74.5 180.5,-93.5 308.5,-93.5 308.5,-74.5 180.5,-74.5"/>
<text text-anchor="middle" x="244.5" y="-81.5" font-family="Helvetica,sans-Serif" font-size="10.00">cache_policy_setting_t</text>
</a>
</g>
</g>
<!-- Node26&#45;&gt;Node25 -->
<g id="edge33" class="edge">
<title>Node26&#45;&gt;Node25</title>
<path fill="none" stroke="#9a32cd" stroke-dasharray="5,2" d="M318.92,-78.29C358.7,-76.28 408.65,-75.5 453,-80 465.93,-81.31 479.88,-83.82 492.36,-86.46"/>
<polygon fill="#9a32cd" stroke="#9a32cd" points="318.57,-74.81 308.77,-78.84 318.95,-81.8 318.57,-74.81"/>
<text text-anchor="middle" x="392.5" y="-105" font-family="Helvetica,sans-Serif" font-size="10.00"> emoji_policy</text>
<text text-anchor="middle" x="392.5" y="-94" font-family="Helvetica,sans-Serif" font-size="10.00">role_policy</text>
<text text-anchor="middle" x="392.5" y="-83" font-family="Helvetica,sans-Serif" font-size="10.00">user_policy</text>
</g>
<!-- Node27 -->
<g id="node27" class="node">
<title>Node27</title>
<g id="a_node27"><a xlink:title=" ">
<polygon fill="white" stroke="#bfbfbf" points="471,-374.5 471,-393.5 593,-393.5 593,-374.5 471,-374.5"/>
<text text-anchor="middle" x="532" y="-381.5" font-family="Helvetica,sans-Serif" font-size="10.00">websocket_protocol_t</text>
</a>
</g>
</g>
<!-- Node27&#45;&gt;Node5 -->
<g id="edge43" class="edge">
<title>Node27&#45;&gt;Node5</title>
<path fill="none" stroke="#9a32cd" stroke-dasharray="5,2" d="M549.76,-367.05C564.47,-353.42 587.19,-335.22 611,-327 725.29,-287.53 762.72,-309.71 883,-322 952.98,-329.15 974.1,-324.59 1038,-354 1062.65,-365.34 1086.59,-386.68 1099.4,-399.18"/>
<polygon fill="#9a32cd" stroke="#9a32cd" points="547.24,-364.61 542.45,-374.06 552.09,-369.66 547.24,-364.61"/>
<text text-anchor="middle" x="820.5" y="-325" font-family="Helvetica,sans-Serif" font-size="10.00"> protocol</text>
</g>
<!-- Node27&#45;&gt;Node17 -->
<g id="edge34" class="edge">
<title>Node27&#45;&gt;Node17</title>
<path fill="none" stroke="#9a32cd" stroke-dasharray="5,2" d="M580.12,-395.98C590.28,-398.42 600.98,-400.89 611,-403 667.99,-415.01 687.6,-400.59 740,-426 749.63,-430.67 748.87,-436.41 758,-442 767.48,-447.8 778.61,-452.66 788.77,-456.44"/>
<polygon fill="#9a32cd" stroke="#9a32cd" points="580.73,-392.53 570.19,-393.56 579.07,-399.33 580.73,-392.53"/>
<text text-anchor="middle" x="675.5" y="-429" font-family="Helvetica,sans-Serif" font-size="10.00"> ws_mode</text>
</g>
<!-- Node28 -->
<g id="node28" class="node">
<title>Node28</title>
<g id="a_node28"><a xlink:title=" ">
<polygon fill="white" stroke="#bfbfbf" points="484,-539.5 484,-558.5 580,-558.5 580,-539.5 484,-539.5"/>
<text text-anchor="middle" x="532" y="-546.5" font-family="Helvetica,sans-Serif" font-size="10.00">event_router_t&lt;</text>
</a>
</g>
</g>
<!-- Node28&#45;&gt;Node17 -->
<g id="edge35" class="edge">
<title>Node28&#45;&gt;Node17</title>
<path fill="none" stroke="#9a32cd" stroke-dasharray="5,2" d="M571.93,-535.51C579.13,-532.44 586.44,-528.91 593,-525 601.94,-519.67 601.56,-514.39 611,-510 663.8,-485.43 683.13,-499.56 740,-487 755.19,-483.64 771.86,-479.34 785.99,-475.5"/>
<polygon fill="#9a32cd" stroke="#9a32cd" points="570.22,-532.42 562.26,-539.41 572.84,-538.92 570.22,-532.42"/>
<text text-anchor="start" x="611" y="-656" font-family="Helvetica,sans-Serif" font-size="10.00"> on_application_command</text>
<text text-anchor="middle" x="675.5" y="-645" font-family="Helvetica,sans-Serif" font-size="10.00">_create</text>
<text text-anchor="start" x="611" y="-634" font-family="Helvetica,sans-Serif" font-size="10.00">on_application_command</text>
<text text-anchor="middle" x="675.5" y="-623" font-family="Helvetica,sans-Serif" font-size="10.00">_delete</text>
<text text-anchor="start" x="611" y="-612" font-family="Helvetica,sans-Serif" font-size="10.00">on_application_command</text>
<text text-anchor="middle" x="675.5" y="-601" font-family="Helvetica,sans-Serif" font-size="10.00">_update</text>
<text text-anchor="middle" x="675.5" y="-590" font-family="Helvetica,sans-Serif" font-size="10.00">on_autocomplete</text>
<text text-anchor="middle" x="675.5" y="-579" font-family="Helvetica,sans-Serif" font-size="10.00">on_button_click</text>
<text text-anchor="middle" x="675.5" y="-568" font-family="Helvetica,sans-Serif" font-size="10.00">on_channel_create</text>
<text text-anchor="middle" x="675.5" y="-557" font-family="Helvetica,sans-Serif" font-size="10.00">on_channel_delete</text>
<text text-anchor="middle" x="675.5" y="-546" font-family="Helvetica,sans-Serif" font-size="10.00">on_channel_pins_update</text>
<text text-anchor="middle" x="675.5" y="-535" font-family="Helvetica,sans-Serif" font-size="10.00">on_channel_update</text>
<text text-anchor="middle" x="675.5" y="-524" font-family="Helvetica,sans-Serif" font-size="10.00">on_form_submit</text>
<text text-anchor="middle" x="675.5" y="-513" font-family="Helvetica,sans-Serif" font-size="10.00">...</text>
</g>
<!-- Node29 -->
<g id="node29" class="node">
<title>Node29</title>
<g id="a_node29"><a xlink:title=" ">
<polygon fill="white" stroke="#bfbfbf" points="764,-729.5 764,-748.5 877,-748.5 877,-729.5 764,-729.5"/>
<text text-anchor="middle" x="820.5" y="-736.5" font-family="Helvetica,sans-Serif" font-size="10.00">native_handle_type</text>
</a>
</g>
</g>
<!-- Node29&#45;&gt;Node5 -->
<g id="edge38" class="edge">
<title>Node29&#45;&gt;Node5</title>
<path fill="none" stroke="#9a32cd" stroke-dasharray="5,2" d="M887.21,-731.07C942.83,-723.05 1016.8,-708.83 1038,-688 1078.11,-648.6 1102.56,-462.94 1107.89,-418.55"/>
<polygon fill="#9a32cd" stroke="#9a32cd" points="886.47,-727.64 877.05,-732.5 887.44,-734.58 886.47,-727.64"/>
<text text-anchor="middle" x="969.5" y="-732" font-family="Helvetica,sans-Serif" font-size="10.00"> thread_id</text>
</g>
<!-- Node29&#45;&gt;Node32 -->
<g id="edge51" class="edge">
<title>Node29&#45;&gt;Node32</title>
<path fill="none" stroke="#9a32cd" stroke-dasharray="5,2" d="M887.36,-743.9C930.6,-748 988.16,-755.14 1038,-767 1048.81,-769.57 1060.26,-773.19 1070.75,-776.88"/>
<polygon fill="#9a32cd" stroke="#9a32cd" points="887.53,-740.4 877.25,-742.97 886.89,-747.37 887.53,-740.4"/>
<text text-anchor="middle" x="969.5" y="-770" font-family="Helvetica,sans-Serif" font-size="10.00"> thread_id</text>
</g>
<!-- Node30 -->
<g id="node30" class="node">
<title>Node30</title>
<g id="a_node30"><a xlink:title=" ">
<polygon fill="white" stroke="#bfbfbf" points="786,-380.5 786,-399.5 855,-399.5 855,-380.5 786,-380.5"/>
<text text-anchor="middle" x="820.5" y="-387.5" font-family="Helvetica,sans-Serif" font-size="10.00">std::mutex</text>
</a>
</g>
</g>
<!-- Node30&#45;&gt;Node5 -->
<g id="edge41" class="edge">
<title>Node30&#45;&gt;Node5</title>
<path fill="none" stroke="#9a32cd" stroke-dasharray="5,2" d="M865.28,-392.32C909.03,-394.7 978.2,-398.68 1038,-403 1043.8,-403.42 1049.86,-403.89 1055.9,-404.37"/>
<polygon fill="#9a32cd" stroke="#9a32cd" points="865.44,-388.82 855.27,-391.77 865.06,-395.81 865.44,-388.82"/>
<text text-anchor="middle" x="969.5" y="-406" font-family="Helvetica,sans-Serif" font-size="10.00"> voice_mutex</text>
</g>
<!-- Node31 -->
<g id="node31" class="node">
<title>Node31</title>
<g id="a_node31"><a xlink:title=" ">
<polygon fill="white" stroke="#bfbfbf" points="770,-342.5 770,-361.5 871,-361.5 871,-342.5 770,-342.5"/>
<text text-anchor="middle" x="820.5" y="-349.5" font-family="Helvetica,sans-Serif" font-size="10.00">unordered_map&lt;</text>
</a>
</g>
</g>
<!-- Node31&#45;&gt;Node5 -->
<g id="edge44" class="edge">
<title>Node31&#45;&gt;Node5</title>
<path fill="none" stroke="#9a32cd" stroke-dasharray="5,2" d="M881.44,-355.56C925.35,-359.18 986.1,-366.29 1038,-380 1056.02,-384.76 1075.57,-392.99 1089.58,-399.46"/>
<polygon fill="#9a32cd" stroke="#9a32cd" points="881.46,-352.06 871.21,-354.76 880.91,-359.03 881.46,-352.06"/>
<text text-anchor="middle" x="969.5" y="-383" font-family="Helvetica,sans-Serif" font-size="10.00"> connecting_voice_channels</text>
</g>
<!-- Node32&#45;&gt;Node1 -->
<g id="edge45" class="edge">
<title>Node32&#45;&gt;Node1</title>
<path fill="none" stroke="#9a32cd" stroke-dasharray="5,2" d="M1127.76,-768.38C1168.1,-711.17 1273.02,-560.1 1351,-428 1397.5,-349.23 1446.23,-249.93 1461.29,-218.79"/>
<polygon fill="#9a32cd" stroke="#9a32cd" points="1124.77,-766.55 1121.86,-776.74 1130.48,-770.59 1124.77,-766.55"/>
<text text-anchor="middle" x="1289" y="-627" font-family="Helvetica,sans-Serif" font-size="10.00"> voice_client</text>
</g>
</g>
</svg>
