<?xml version="1.0" encoding="UTF-8" standalone="no"?>
<!DOCTYPE svg PUBLIC "-//W3C//DTD SVG 1.1//EN"
 "http://www.w3.org/Graphics/SVG/1.1/DTD/svg11.dtd">
<!-- Generated by graphviz version 2.43.0 (0)
 -->
<!-- Title: dpp::integration_delete_t Pages: 1 -->
<svg width="1448pt" height="1256pt"
 viewBox="0.00 0.00 1448.00 1256.00" xmlns="http://www.w3.org/2000/svg" xmlns:xlink="http://www.w3.org/1999/xlink">
<g id="graph0" class="graph" transform="scale(1 1) rotate(0) translate(4 1252)">
<title>dpp::integration_delete_t</title>
<polygon fill="white" stroke="transparent" points="-4,4 -4,-1252 1444,-1252 1444,4 -4,4"/>
<!-- Node1 -->
<g id="node1" class="node">
<title>Node1</title>
<g id="a_node1"><a xlink:title="Integration delete.">
<polygon fill="#bfbfbf" stroke="black" points="1301,-346.5 1301,-365.5 1440,-365.5 1440,-346.5 1301,-346.5"/>
<text text-anchor="middle" x="1370.5" y="-353.5" font-family="Helvetica,sans-Serif" font-size="10.00">dpp::integration_delete_t</text>
</a>
</g>
</g>
<!-- Node2 -->
<g id="node2" class="node">
<title>Node2</title>
<g id="a_node2"><a xlink:href="structdpp_1_1event__dispatch__t.html" target="_top" xlink:title="Base event parameter struct.">
<polygon fill="white" stroke="black" points="1140,-414.5 1140,-433.5 1264,-433.5 1264,-414.5 1140,-414.5"/>
<text text-anchor="middle" x="1202" y="-421.5" font-family="Helvetica,sans-Serif" font-size="10.00">dpp::event_dispatch_t</text>
</a>
</g>
</g>
<!-- Node2&#45;&gt;Node1 -->
<g id="edge1" class="edge">
<title>Node2&#45;&gt;Node1</title>
<path fill="none" stroke="midnightblue" d="M1236.03,-410.51C1268.56,-397.23 1317.42,-377.27 1346.12,-365.55"/>
<polygon fill="midnightblue" stroke="midnightblue" points="1234.44,-407.38 1226.5,-414.4 1237.08,-413.86 1234.44,-407.38"/>
</g>
<!-- Node3 -->
<g id="node3" class="node">
<title>Node3</title>
<g id="a_node3"><a xlink:title=" ">
<polygon fill="white" stroke="#bfbfbf" points="201.5,-394.5 201.5,-413.5 266.5,-413.5 266.5,-394.5 201.5,-394.5"/>
<text text-anchor="middle" x="234" y="-401.5" font-family="Helvetica,sans-Serif" font-size="10.00">std::string</text>
</a>
</g>
</g>
<!-- Node3&#45;&gt;Node2 -->
<g id="edge2" class="edge">
<title>Node3&#45;&gt;Node2</title>
<path fill="none" stroke="#9a32cd" stroke-dasharray="5,2" d="M276.95,-404.87C430.06,-408.04 959.13,-418.99 1139.9,-422.73"/>
<polygon fill="#9a32cd" stroke="#9a32cd" points="276.66,-401.36 266.59,-404.65 276.52,-408.36 276.66,-401.36"/>
<text text-anchor="middle" x="739.5" y="-419" font-family="Helvetica,sans-Serif" font-size="10.00"> raw_event</text>
</g>
<!-- Node5 -->
<g id="node5" class="node">
<title>Node5</title>
<g id="a_node5"><a xlink:href="classdpp_1_1_discord_client.html" target="_top" xlink:title="Implements a discord client. Each DiscordClient connects to one shard and derives from a websocket cl...">
<polygon fill="white" stroke="black" points="971,-858.5 971,-877.5 1077,-877.5 1077,-858.5 971,-858.5"/>
<text text-anchor="middle" x="1024" y="-865.5" font-family="Helvetica,sans-Serif" font-size="10.00">dpp::DiscordClient</text>
</a>
</g>
</g>
<!-- Node3&#45;&gt;Node5 -->
<g id="edge34" class="edge">
<title>Node3&#45;&gt;Node5</title>
<path fill="none" stroke="#9a32cd" stroke-dasharray="5,2" d="M277.31,-408.55C430.4,-425.07 946.76,-481.16 953,-487 1009.36,-539.72 1020.93,-804.12 1022.72,-858.29"/>
<polygon fill="#9a32cd" stroke="#9a32cd" points="277.25,-405.03 266.93,-407.43 276.5,-411.99 277.25,-405.03"/>
<text text-anchor="middle" x="611.5" y="-465" font-family="Helvetica,sans-Serif" font-size="10.00"> sessionid</text>
<text text-anchor="middle" x="611.5" y="-454" font-family="Helvetica,sans-Serif" font-size="10.00">token</text>
</g>
<!-- Node7 -->
<g id="node7" class="node">
<title>Node7</title>
<g id="a_node7"><a xlink:href="classdpp_1_1_s_s_l_client.html" target="_top" xlink:title="Implements a simple non&#45;blocking SSL stream client.">
<polygon fill="white" stroke="black" points="453,-1077.5 453,-1096.5 539,-1096.5 539,-1077.5 453,-1077.5"/>
<text text-anchor="middle" x="496" y="-1084.5" font-family="Helvetica,sans-Serif" font-size="10.00">dpp::SSLClient</text>
</a>
</g>
</g>
<!-- Node3&#45;&gt;Node7 -->
<g id="edge7" class="edge">
<title>Node3&#45;&gt;Node7</title>
<path fill="none" stroke="#9a32cd" stroke-dasharray="5,2" d="M245.42,-422.37C259.05,-447.4 282.43,-494.03 293,-537 306.46,-591.73 280.83,-742.39 311,-790 344.02,-842.1 394,-809.4 432,-858 486.86,-928.16 494,-1042.95 494.88,-1077.11"/>
<polygon fill="#9a32cd" stroke="#9a32cd" points="248.47,-420.65 240.57,-413.6 242.35,-424.05 248.47,-420.65"/>
<text text-anchor="middle" x="371.5" y="-905" font-family="Helvetica,sans-Serif" font-size="10.00"> buffer</text>
<text text-anchor="middle" x="371.5" y="-894" font-family="Helvetica,sans-Serif" font-size="10.00">cipher</text>
<text text-anchor="middle" x="371.5" y="-883" font-family="Helvetica,sans-Serif" font-size="10.00">hostname</text>
<text text-anchor="middle" x="371.5" y="-872" font-family="Helvetica,sans-Serif" font-size="10.00">obuffer</text>
<text text-anchor="middle" x="371.5" y="-861" font-family="Helvetica,sans-Serif" font-size="10.00">port</text>
</g>
<!-- Node15 -->
<g id="node15" class="node">
<title>Node15</title>
<g id="a_node15"><a xlink:href="classdpp_1_1cluster.html" target="_top" xlink:title="The cluster class represents a group of shards and a command queue for sending and receiving commands...">
<polygon fill="white" stroke="black" points="702.5,-675.5 702.5,-694.5 776.5,-694.5 776.5,-675.5 702.5,-675.5"/>
<text text-anchor="middle" x="739.5" y="-682.5" font-family="Helvetica,sans-Serif" font-size="10.00">dpp::cluster</text>
</a>
</g>
</g>
<!-- Node3&#45;&gt;Node15 -->
<g id="edge16" class="edge">
<title>Node3&#45;&gt;Node15</title>
<path fill="none" stroke="#9a32cd" stroke-dasharray="5,2" d="M258.97,-419.09C297.74,-442.89 377.19,-489.16 450,-516 541.14,-549.6 583.81,-508.74 663,-565 703.73,-593.94 727.34,-652.44 735.37,-675.42"/>
<polygon fill="#9a32cd" stroke="#9a32cd" points="260.37,-415.84 250.03,-413.55 256.69,-421.79 260.37,-415.84"/>
<text text-anchor="middle" x="496" y="-535" font-family="Helvetica,sans-Serif" font-size="10.00"> token</text>
</g>
<!-- Node18 -->
<g id="node18" class="node">
<title>Node18</title>
<g id="a_node18"><a xlink:href="classdpp_1_1user.html" target="_top" xlink:title="Represents a user on discord. May or may not be a member of a dpp::guild.">
<polygon fill="white" stroke="black" points="465,-213.5 465,-232.5 527,-232.5 527,-213.5 465,-213.5"/>
<text text-anchor="middle" x="496" y="-220.5" font-family="Helvetica,sans-Serif" font-size="10.00">dpp::user</text>
</a>
</g>
</g>
<!-- Node3&#45;&gt;Node18 -->
<g id="edge24" class="edge">
<title>Node3&#45;&gt;Node18</title>
<path fill="none" stroke="#9a32cd" stroke-dasharray="5,2" d="M240.24,-384.7C249.36,-355.01 271.1,-298.56 311,-270 355.51,-238.13 379.33,-261.91 432,-247 445.85,-243.08 460.94,-237.38 472.87,-232.53"/>
<polygon fill="#9a32cd" stroke="#9a32cd" points="236.87,-383.75 237.44,-394.33 243.59,-385.71 236.87,-383.75"/>
<text text-anchor="middle" x="371.5" y="-273" font-family="Helvetica,sans-Serif" font-size="10.00"> username</text>
</g>
<!-- Node26 -->
<g id="node26" class="node">
<title>Node26</title>
<g id="a_node26"><a xlink:href="classdpp_1_1integration.html" target="_top" xlink:title=" ">
<polygon fill="white" stroke="black" points="977,-292.5 977,-311.5 1071,-311.5 1071,-292.5 977,-292.5"/>
<text text-anchor="middle" x="1024" y="-299.5" font-family="Helvetica,sans-Serif" font-size="10.00">dpp::integration</text>
</a>
</g>
</g>
<!-- Node3&#45;&gt;Node26 -->
<g id="edge40" class="edge">
<title>Node3&#45;&gt;Node26</title>
<path fill="none" stroke="#9a32cd" stroke-dasharray="5,2" d="M260.43,-389.6C274.85,-382.05 293.46,-373.29 311,-368 436.54,-330.13 839.72,-309.82 976.85,-303.87"/>
<polygon fill="#9a32cd" stroke="#9a32cd" points="258.77,-386.52 251.62,-394.34 262.09,-392.68 258.77,-386.52"/>
<text text-anchor="middle" x="611.5" y="-356" font-family="Helvetica,sans-Serif" font-size="10.00"> account_id</text>
<text text-anchor="middle" x="611.5" y="-345" font-family="Helvetica,sans-Serif" font-size="10.00">account_name</text>
<text text-anchor="middle" x="611.5" y="-334" font-family="Helvetica,sans-Serif" font-size="10.00">name</text>
</g>
<!-- Node28 -->
<g id="node28" class="node">
<title>Node28</title>
<g id="a_node28"><a xlink:href="structdpp_1_1integration__app.html" target="_top" xlink:title="An application that has been integrated.">
<polygon fill="white" stroke="black" points="681,-237.5 681,-256.5 798,-256.5 798,-237.5 681,-237.5"/>
<text text-anchor="middle" x="739.5" y="-244.5" font-family="Helvetica,sans-Serif" font-size="10.00">dpp::integration_app</text>
</a>
</g>
</g>
<!-- Node3&#45;&gt;Node28 -->
<g id="edge48" class="edge">
<title>Node3&#45;&gt;Node28</title>
<path fill="none" stroke="#9a32cd" stroke-dasharray="5,2" d="M251.5,-387.04C265.95,-373.17 288.14,-354.1 311,-343 360.66,-318.9 387.82,-348.09 432,-315 445.06,-305.22 436.45,-292.1 450,-283 468.75,-270.41 602.33,-257.83 680.99,-251.39"/>
<polygon fill="#9a32cd" stroke="#9a32cd" points="248.98,-384.61 244.32,-394.12 253.9,-389.59 248.98,-384.61"/>
<text text-anchor="middle" x="496" y="-319" font-family="Helvetica,sans-Serif" font-size="10.00"> description</text>
<text text-anchor="middle" x="496" y="-308" font-family="Helvetica,sans-Serif" font-size="10.00">icon</text>
<text text-anchor="middle" x="496" y="-297" font-family="Helvetica,sans-Serif" font-size="10.00">name</text>
<text text-anchor="middle" x="496" y="-286" font-family="Helvetica,sans-Serif" font-size="10.00">summary</text>
</g>
<!-- Node4 -->
<g id="node4" class="node">
<title>Node4</title>
<g id="a_node4"><a xlink:title=" ">
<polygon fill="white" stroke="#bfbfbf" points="0,-511 0,-541 104,-541 104,-511 0,-511"/>
<text text-anchor="start" x="8" y="-529" font-family="Helvetica,sans-Serif" font-size="10.00">std::basic_string&lt;</text>
<text text-anchor="middle" x="52" y="-518" font-family="Helvetica,sans-Serif" font-size="10.00"> Char &gt;</text>
</a>
</g>
</g>
<!-- Node4&#45;&gt;Node3 -->
<g id="edge3" class="edge">
<title>Node4&#45;&gt;Node3</title>
<path fill="none" stroke="midnightblue" d="M83.86,-505.08C123.19,-478.43 189.55,-433.45 218.62,-413.74"/>
<polygon fill="midnightblue" stroke="midnightblue" points="81.75,-502.29 75.43,-510.8 85.67,-508.08 81.75,-502.29"/>
</g>
<!-- Node5&#45;&gt;Node2 -->
<g id="edge4" class="edge">
<title>Node5&#45;&gt;Node2</title>
<path fill="none" stroke="#9a32cd" stroke-dasharray="5,2" d="M1032.56,-848.94C1062.87,-772.46 1175.12,-489.29 1197.21,-433.56"/>
<polygon fill="#9a32cd" stroke="#9a32cd" points="1029.27,-847.73 1028.84,-858.31 1035.78,-850.31 1029.27,-847.73"/>
<text text-anchor="middle" x="1108.5" y="-688" font-family="Helvetica,sans-Serif" font-size="10.00"> from</text>
</g>
<!-- Node6 -->
<g id="node6" class="node">
<title>Node6</title>
<g id="a_node6"><a xlink:href="classdpp_1_1_w_s_client.html" target="_top" xlink:title="Implements a websocket client based on the SSL client.">
<polygon fill="white" stroke="black" points="697,-1062.5 697,-1081.5 782,-1081.5 782,-1062.5 697,-1062.5"/>
<text text-anchor="middle" x="739.5" y="-1069.5" font-family="Helvetica,sans-Serif" font-size="10.00">dpp::WSClient</text>
</a>
</g>
</g>
<!-- Node6&#45;&gt;Node5 -->
<g id="edge5" class="edge">
<title>Node6&#45;&gt;Node5</title>
<path fill="none" stroke="midnightblue" d="M792.63,-1075.86C839.48,-1076.53 907.69,-1070.22 953,-1034 1004.55,-992.79 1018.68,-906.74 1022.05,-877.76"/>
<polygon fill="midnightblue" stroke="midnightblue" points="792.47,-1072.36 782.39,-1075.6 792.29,-1079.36 792.47,-1072.36"/>
</g>
<!-- Node7&#45;&gt;Node6 -->
<g id="edge6" class="edge">
<title>Node7&#45;&gt;Node6</title>
<path fill="none" stroke="midnightblue" d="M549.05,-1083.77C593.29,-1081.02 655.96,-1077.13 696.92,-1074.58"/>
<polygon fill="midnightblue" stroke="midnightblue" points="548.83,-1080.27 539.07,-1084.39 549.26,-1087.26 548.83,-1080.27"/>
</g>
<!-- Node8 -->
<g id="node8" class="node">
<title>Node8</title>
<g id="a_node8"><a xlink:title=" ">
<polygon fill="white" stroke="#bfbfbf" points="215,-983.5 215,-1002.5 253,-1002.5 253,-983.5 215,-983.5"/>
<text text-anchor="middle" x="234" y="-990.5" font-family="Helvetica,sans-Serif" font-size="10.00">bool</text>
</a>
</g>
</g>
<!-- Node8&#45;&gt;Node5 -->
<g id="edge36" class="edge">
<title>Node8&#45;&gt;Node5</title>
<path fill="none" stroke="#9a32cd" stroke-dasharray="5,2" d="M253.73,-976.95C268.35,-965.32 289.69,-950.25 311,-942 388.52,-911.99 598.3,-895.43 681,-887 783.35,-876.57 903.55,-871.56 970.74,-869.41"/>
<polygon fill="#9a32cd" stroke="#9a32cd" points="251.46,-974.27 245.95,-983.32 255.9,-979.69 251.46,-974.27"/>
<text text-anchor="middle" x="611.5" y="-901" font-family="Helvetica,sans-Serif" font-size="10.00"> ready</text>
</g>
<!-- Node8&#45;&gt;Node7 -->
<g id="edge8" class="edge">
<title>Node8&#45;&gt;Node7</title>
<path fill="none" stroke="#9a32cd" stroke-dasharray="5,2" d="M248.13,-1010.81C261.79,-1027.85 284.8,-1052.71 311,-1065 335.39,-1076.44 406.64,-1082.33 452.98,-1085.03"/>
<polygon fill="#9a32cd" stroke="#9a32cd" points="250.77,-1008.5 241.88,-1002.73 245.23,-1012.78 250.77,-1008.5"/>
<text text-anchor="middle" x="371.5" y="-1086" font-family="Helvetica,sans-Serif" font-size="10.00"> nonblocking</text>
</g>
<!-- Node9 -->
<g id="node9" class="node">
<title>Node9</title>
<g id="a_node9"><a xlink:title=" ">
<polygon fill="white" stroke="#bfbfbf" points="219.5,-1220.5 219.5,-1239.5 248.5,-1239.5 248.5,-1220.5 219.5,-1220.5"/>
<text text-anchor="middle" x="234" y="-1227.5" font-family="Helvetica,sans-Serif" font-size="10.00">int</text>
</a>
</g>
</g>
<!-- Node9&#45;&gt;Node7 -->
<g id="edge9" class="edge">
<title>Node9&#45;&gt;Node7</title>
<path fill="none" stroke="#9a32cd" stroke-dasharray="5,2" d="M258.99,-1234.04C298.73,-1239.38 379.07,-1244.29 432,-1208 471.85,-1180.68 488.19,-1120.07 493.19,-1096.57"/>
<polygon fill="#9a32cd" stroke="#9a32cd" points="259.32,-1230.55 248.92,-1232.56 258.3,-1237.48 259.32,-1230.55"/>
<text text-anchor="middle" x="371.5" y="-1240" font-family="Helvetica,sans-Serif" font-size="10.00"> sfd</text>
</g>
<!-- Node10 -->
<g id="node10" class="node">
<title>Node10</title>
<g id="a_node10"><a xlink:title=" ">
<polygon fill="white" stroke="#bfbfbf" points="213,-1182.5 213,-1201.5 255,-1201.5 255,-1182.5 213,-1182.5"/>
<text text-anchor="middle" x="234" y="-1189.5" font-family="Helvetica,sans-Serif" font-size="10.00">SSL *</text>
</a>
</g>
</g>
<!-- Node10&#45;&gt;Node7 -->
<g id="edge10" class="edge">
<title>Node10&#45;&gt;Node7</title>
<path fill="none" stroke="#9a32cd" stroke-dasharray="5,2" d="M265.35,-1194.73C306.02,-1196.96 379.2,-1195.84 432,-1166 461.17,-1149.51 481.88,-1113.65 490.52,-1096.5"/>
<polygon fill="#9a32cd" stroke="#9a32cd" points="265.47,-1191.23 255.26,-1194.07 265.01,-1198.22 265.47,-1191.23"/>
<text text-anchor="middle" x="371.5" y="-1197" font-family="Helvetica,sans-Serif" font-size="10.00"> ssl</text>
</g>
<!-- Node11 -->
<g id="node11" class="node">
<title>Node11</title>
<g id="a_node11"><a xlink:title=" ">
<polygon fill="white" stroke="#bfbfbf" points="200.5,-1144.5 200.5,-1163.5 267.5,-1163.5 267.5,-1144.5 200.5,-1144.5"/>
<text text-anchor="middle" x="234" y="-1151.5" font-family="Helvetica,sans-Serif" font-size="10.00">SSL_CTX *</text>
</a>
</g>
</g>
<!-- Node11&#45;&gt;Node7 -->
<g id="edge11" class="edge">
<title>Node11&#45;&gt;Node7</title>
<path fill="none" stroke="#9a32cd" stroke-dasharray="5,2" d="M277.88,-1153.36C318.66,-1151.55 381.16,-1145.61 432,-1127 451.47,-1119.87 471.21,-1106.03 483.28,-1096.65"/>
<polygon fill="#9a32cd" stroke="#9a32cd" points="277.61,-1149.87 267.75,-1153.75 277.87,-1156.87 277.61,-1149.87"/>
<text text-anchor="middle" x="371.5" y="-1154" font-family="Helvetica,sans-Serif" font-size="10.00"> ctx</text>
</g>
<!-- Node12 -->
<g id="node12" class="node">
<title>Node12</title>
<g id="a_node12"><a xlink:title=" ">
<polygon fill="white" stroke="#bfbfbf" points="210,-880.5 210,-899.5 258,-899.5 258,-880.5 210,-880.5"/>
<text text-anchor="middle" x="234" y="-887.5" font-family="Helvetica,sans-Serif" font-size="10.00">time_t</text>
</a>
</g>
</g>
<!-- Node12&#45;&gt;Node5 -->
<g id="edge31" class="edge">
<title>Node12&#45;&gt;Node5</title>
<path fill="none" stroke="#9a32cd" stroke-dasharray="5,2" d="M248.11,-907.95C260.2,-924.74 278.42,-950.67 293,-974 301.64,-987.84 296.91,-997.76 311,-1006 339.37,-1022.59 839.31,-1069.29 953,-1000 998.85,-972.06 1016.32,-903 1021.33,-877.59"/>
<polygon fill="#9a32cd" stroke="#9a32cd" points="250.78,-905.68 242.08,-899.63 245.12,-909.78 250.78,-905.68"/>
<text text-anchor="middle" x="611.5" y="-1050" font-family="Helvetica,sans-Serif" font-size="10.00"> last_heartbeat</text>
<text text-anchor="middle" x="611.5" y="-1039" font-family="Helvetica,sans-Serif" font-size="10.00">last_heartbeat_ack</text>
</g>
<!-- Node12&#45;&gt;Node7 -->
<g id="edge12" class="edge">
<title>Node12&#45;&gt;Node7</title>
<path fill="none" stroke="#9a32cd" stroke-dasharray="5,2" d="M249.68,-907.84C262.56,-924.21 281.04,-949.56 293,-974 304.68,-997.86 291,-1013.51 311,-1031 352.09,-1066.92 380.53,-1033.82 432,-1052 449.93,-1058.33 468.78,-1069.48 481.13,-1077.5"/>
<polygon fill="#9a32cd" stroke="#9a32cd" points="252.17,-905.35 243.18,-899.74 246.71,-909.73 252.17,-905.35"/>
<text text-anchor="middle" x="371.5" y="-1055" font-family="Helvetica,sans-Serif" font-size="10.00"> last_tick</text>
</g>
<!-- Node12&#45;&gt;Node15 -->
<g id="edge17" class="edge">
<title>Node12&#45;&gt;Node15</title>
<path fill="none" stroke="#9a32cd" stroke-dasharray="5,2" d="M248.01,-872.09C261.7,-854.58 284.88,-828.49 311,-814 359.27,-787.23 378.72,-800.45 432,-786 535.79,-757.86 561.42,-749.3 663,-714 680.51,-707.92 700.03,-700.4 714.84,-694.54"/>
<polygon fill="#9a32cd" stroke="#9a32cd" points="244.99,-870.28 241.74,-880.36 250.57,-874.5 244.99,-870.28"/>
<text text-anchor="middle" x="496" y="-783" font-family="Helvetica,sans-Serif" font-size="10.00"> last_identify</text>
</g>
<!-- Node12&#45;&gt;Node26 -->
<g id="edge45" class="edge">
<title>Node12&#45;&gt;Node26</title>
<path fill="none" stroke="#9a32cd" stroke-dasharray="5,2" d="M253.82,-874.19C268.5,-862.7 289.87,-847.68 311,-839 407.68,-799.3 441.13,-822.36 542,-795 658.54,-763.39 705.72,-781.89 798,-704 936.74,-586.9 1006.34,-361.39 1020.33,-311.8"/>
<polygon fill="#9a32cd" stroke="#9a32cd" points="251.61,-871.49 246.01,-880.48 256,-876.94 251.61,-871.49"/>
<text text-anchor="middle" x="611.5" y="-793" font-family="Helvetica,sans-Serif" font-size="10.00"> synced_at</text>
</g>
<!-- Node13 -->
<g id="node13" class="node">
<title>Node13</title>
<g id="a_node13"><a xlink:title=" ">
<polygon fill="white" stroke="#bfbfbf" points="24,-168.5 24,-187.5 80,-187.5 80,-168.5 24,-168.5"/>
<text text-anchor="middle" x="52" y="-175.5" font-family="Helvetica,sans-Serif" font-size="10.00">uint64_t</text>
</a>
</g>
</g>
<!-- Node13&#45;&gt;Node5 -->
<g id="edge33" class="edge">
<title>Node13&#45;&gt;Node5</title>
<path fill="none" stroke="#9a32cd" stroke-dasharray="5,2" d="M54.52,-197.82C61.1,-268.07 93.44,-501 233,-501 233,-501 233,-501 740.5,-501 850.53,-501 885.72,-540.94 953,-628 1010.59,-702.52 1020.84,-823.15 1022.63,-858.18"/>
<polygon fill="#9a32cd" stroke="#9a32cd" points="58,-197.33 53.65,-187.67 51.02,-197.93 58,-197.33"/>
<text text-anchor="middle" x="496" y="-504" font-family="Helvetica,sans-Serif" font-size="10.00"> last_seq</text>
</g>
<!-- Node13&#45;&gt;Node7 -->
<g id="edge13" class="edge">
<title>Node13&#45;&gt;Node7</title>
<path fill="none" stroke="#9a32cd" stroke-dasharray="5,2" d="M56.23,-197.62C64.48,-247.97 86.91,-385.86 104,-501 137.66,-727.81 50.79,-819.27 175,-1012 213.74,-1072.11 242.31,-1078.1 311,-1098 360.03,-1112.2 419.39,-1104.44 457.17,-1096.56"/>
<polygon fill="#9a32cd" stroke="#9a32cd" points="59.64,-196.8 54.57,-187.5 52.73,-197.94 59.64,-196.8"/>
<text text-anchor="middle" x="234" y="-1106" font-family="Helvetica,sans-Serif" font-size="10.00"> bytes_in</text>
<text text-anchor="middle" x="234" y="-1095" font-family="Helvetica,sans-Serif" font-size="10.00">bytes_out</text>
</g>
<!-- Node19 -->
<g id="node19" class="node">
<title>Node19</title>
<g id="a_node19"><a xlink:href="classdpp_1_1managed.html" target="_top" xlink:title="The managed class is the base class for various types that can be stored in a cache that are identifi...">
<polygon fill="white" stroke="black" points="191,-149.5 191,-168.5 277,-168.5 277,-149.5 191,-149.5"/>
<text text-anchor="middle" x="234" y="-156.5" font-family="Helvetica,sans-Serif" font-size="10.00">dpp::managed</text>
</a>
</g>
</g>
<!-- Node13&#45;&gt;Node19 -->
<g id="edge23" class="edge">
<title>Node13&#45;&gt;Node19</title>
<path fill="none" stroke="#9a32cd" stroke-dasharray="5,2" d="M90.17,-167.94C100.41,-165.56 111.57,-163.34 122,-162 144.66,-159.1 170.12,-158.24 190.94,-158.15"/>
<polygon fill="#9a32cd" stroke="#9a32cd" points="89.19,-164.58 80.3,-170.34 90.85,-171.38 89.19,-164.58"/>
<text text-anchor="middle" x="139.5" y="-165" font-family="Helvetica,sans-Serif" font-size="10.00"> id</text>
</g>
<!-- Node21 -->
<g id="node21" class="node">
<title>Node21</title>
<g id="a_node21"><a xlink:href="structdpp_1_1utility_1_1iconhash.html" target="_top" xlink:title="Store a 128 bit icon hash (profile picture, server icon etc) as a 128 bit binary value made of two ui...">
<polygon fill="white" stroke="black" points="175,-187.5 175,-206.5 293,-206.5 293,-187.5 175,-187.5"/>
<text text-anchor="middle" x="234" y="-194.5" font-family="Helvetica,sans-Serif" font-size="10.00">dpp::utility::iconhash</text>
</a>
</g>
</g>
<!-- Node13&#45;&gt;Node21 -->
<g id="edge27" class="edge">
<title>Node13&#45;&gt;Node21</title>
<path fill="none" stroke="#9a32cd" stroke-dasharray="5,2" d="M90.6,-181.97C114.95,-184.54 147.17,-187.94 174.8,-190.86"/>
<polygon fill="#9a32cd" stroke="#9a32cd" points="90.65,-178.45 80.34,-180.89 89.92,-185.42 90.65,-178.45"/>
<text text-anchor="middle" x="139.5" y="-203" font-family="Helvetica,sans-Serif" font-size="10.00"> first</text>
<text text-anchor="middle" x="139.5" y="-192" font-family="Helvetica,sans-Serif" font-size="10.00">second</text>
</g>
<!-- Node13&#45;&gt;Node26 -->
<g id="edge43" class="edge">
<title>Node13&#45;&gt;Node26</title>
<path fill="none" stroke="#9a32cd" stroke-dasharray="5,2" d="M61.13,-159.02C82.21,-113.14 143.3,0 233,0 233,0 233,0 740.5,0 848.96,0 882.14,-37.88 953,-120 999.67,-174.08 1016.96,-262.65 1021.6,-292.12"/>
<polygon fill="#9a32cd" stroke="#9a32cd" points="57.81,-157.87 56.94,-168.43 64.21,-160.72 57.81,-157.87"/>
<text text-anchor="middle" x="496" y="-14" font-family="Helvetica,sans-Serif" font-size="10.00"> role_id</text>
<text text-anchor="middle" x="496" y="-3" font-family="Helvetica,sans-Serif" font-size="10.00">user_id</text>
</g>
<!-- Node13&#45;&gt;Node28 -->
<g id="edge47" class="edge">
<title>Node13&#45;&gt;Node28</title>
<path fill="none" stroke="#9a32cd" stroke-dasharray="5,2" d="M85.75,-164.75C109.95,-155.71 143.95,-144.59 175,-140 387.29,-108.65 641.48,-205.9 716.59,-237.46"/>
<polygon fill="#9a32cd" stroke="#9a32cd" points="84.43,-161.5 76.34,-168.34 86.93,-168.04 84.43,-161.5"/>
<text text-anchor="middle" x="371.5" y="-154" font-family="Helvetica,sans-Serif" font-size="10.00"> id</text>
</g>
<!-- Node14 -->
<g id="node14" class="node">
<title>Node14</title>
<g id="a_node14"><a xlink:title=" ">
<polygon fill="white" stroke="#bfbfbf" points="201.5,-764.5 201.5,-783.5 266.5,-783.5 266.5,-764.5 201.5,-764.5"/>
<text text-anchor="middle" x="234" y="-771.5" font-family="Helvetica,sans-Serif" font-size="10.00">function&lt;</text>
</a>
</g>
</g>
<!-- Node14&#45;&gt;Node7 -->
<g id="edge14" class="edge">
<title>Node14&#45;&gt;Node7</title>
<path fill="none" stroke="#9a32cd" stroke-dasharray="5,2" d="M247.13,-792.2C259.57,-811.32 279.03,-842.52 293,-871 302.67,-890.71 296.49,-900.53 311,-917 351.49,-962.96 387.71,-940.68 432,-983 461.91,-1011.59 482.95,-1057.36 491.17,-1077.25"/>
<polygon fill="#9a32cd" stroke="#9a32cd" points="249.9,-790.05 241.48,-783.61 244.05,-793.89 249.9,-790.05"/>
<text text-anchor="middle" x="371.5" y="-1019" font-family="Helvetica,sans-Serif" font-size="10.00"> custom_readable_fd</text>
<text text-anchor="middle" x="371.5" y="-1008" font-family="Helvetica,sans-Serif" font-size="10.00">custom_readable_ready</text>
<text text-anchor="middle" x="371.5" y="-997" font-family="Helvetica,sans-Serif" font-size="10.00">custom_writeable_fd</text>
<text text-anchor="middle" x="371.5" y="-986" font-family="Helvetica,sans-Serif" font-size="10.00">custom_writeable_ready</text>
</g>
<!-- Node17 -->
<g id="node17" class="node">
<title>Node17</title>
<g id="a_node17"><a xlink:href="classdpp_1_1dispatcher.html" target="_top" xlink:title="The dispatcher class contains a set of std::functions representing hooked events that the user code i...">
<polygon fill="white" stroke="black" points="450,-695.5 450,-714.5 542,-714.5 542,-695.5 450,-695.5"/>
<text text-anchor="middle" x="496" y="-702.5" font-family="Helvetica,sans-Serif" font-size="10.00">dpp::dispatcher</text>
</a>
</g>
</g>
<!-- Node14&#45;&gt;Node17 -->
<g id="edge20" class="edge">
<title>Node14&#45;&gt;Node17</title>
<path fill="none" stroke="#9a32cd" stroke-dasharray="5,2" d="M238.82,-754.45C246.28,-722.22 266.15,-658.86 311,-632 357.13,-604.37 387.9,-601.22 432,-632 451.02,-645.28 434.76,-663.5 450,-681 455.23,-687.01 462.35,-691.76 469.38,-695.39"/>
<polygon fill="#9a32cd" stroke="#9a32cd" points="235.35,-753.92 236.67,-764.44 242.19,-755.39 235.35,-753.92"/>
<text text-anchor="start" x="315.5" y="-778" font-family="Helvetica,sans-Serif" font-size="10.00"> application_command</text>
<text text-anchor="middle" x="371.5" y="-767" font-family="Helvetica,sans-Serif" font-size="10.00">_create</text>
<text text-anchor="start" x="315.5" y="-756" font-family="Helvetica,sans-Serif" font-size="10.00">application_command</text>
<text text-anchor="middle" x="371.5" y="-745" font-family="Helvetica,sans-Serif" font-size="10.00">_delete</text>
<text text-anchor="start" x="315.5" y="-734" font-family="Helvetica,sans-Serif" font-size="10.00">application_command</text>
<text text-anchor="middle" x="371.5" y="-723" font-family="Helvetica,sans-Serif" font-size="10.00">_update</text>
<text text-anchor="middle" x="371.5" y="-712" font-family="Helvetica,sans-Serif" font-size="10.00">button_click</text>
<text text-anchor="middle" x="371.5" y="-701" font-family="Helvetica,sans-Serif" font-size="10.00">channel_create</text>
<text text-anchor="middle" x="371.5" y="-690" font-family="Helvetica,sans-Serif" font-size="10.00">channel_delete</text>
<text text-anchor="middle" x="371.5" y="-679" font-family="Helvetica,sans-Serif" font-size="10.00">channel_pins_update</text>
<text text-anchor="middle" x="371.5" y="-668" font-family="Helvetica,sans-Serif" font-size="10.00">channel_update</text>
<text text-anchor="middle" x="371.5" y="-657" font-family="Helvetica,sans-Serif" font-size="10.00">guild_ban_add</text>
<text text-anchor="middle" x="371.5" y="-646" font-family="Helvetica,sans-Serif" font-size="10.00">guild_ban_remove</text>
<text text-anchor="middle" x="371.5" y="-635" font-family="Helvetica,sans-Serif" font-size="10.00">...</text>
</g>
<!-- Node15&#45;&gt;Node5 -->
<g id="edge15" class="edge">
<title>Node15&#45;&gt;Node5</title>
<path fill="none" stroke="#9a32cd" stroke-dasharray="5,2" d="M763.85,-700.13C820.05,-736.53 961.61,-828.23 1008.01,-858.29"/>
<polygon fill="#9a32cd" stroke="#9a32cd" points="765.59,-697.08 755.29,-694.58 761.78,-702.96 765.59,-697.08"/>
<text text-anchor="middle" x="884.5" y="-821" font-family="Helvetica,sans-Serif" font-size="10.00"> creator</text>
</g>
<!-- Node16 -->
<g id="node16" class="node">
<title>Node16</title>
<g id="a_node16"><a xlink:title=" ">
<polygon fill="white" stroke="#bfbfbf" points="206,-546.5 206,-565.5 262,-565.5 262,-546.5 206,-546.5"/>
<text text-anchor="middle" x="234" y="-553.5" font-family="Helvetica,sans-Serif" font-size="10.00">uint32_t</text>
</a>
</g>
</g>
<!-- Node16&#45;&gt;Node5 -->
<g id="edge30" class="edge">
<title>Node16&#45;&gt;Node5</title>
<path fill="none" stroke="#9a32cd" stroke-dasharray="5,2" d="M272.56,-553.51C348.05,-549.57 522.96,-545.86 663,-584 802.23,-621.91 850.81,-628.12 953,-730 992,-768.88 1013.43,-833.98 1020.42,-858.38"/>
<polygon fill="#9a32cd" stroke="#9a32cd" points="271.95,-550.04 262.16,-554.09 272.33,-557.03 271.95,-550.04"/>
<text text-anchor="middle" x="611.5" y="-642" font-family="Helvetica,sans-Serif" font-size="10.00"> heartbeat_interval</text>
<text text-anchor="middle" x="611.5" y="-631" font-family="Helvetica,sans-Serif" font-size="10.00">intents</text>
<text text-anchor="middle" x="611.5" y="-620" font-family="Helvetica,sans-Serif" font-size="10.00">max_shards</text>
<text text-anchor="middle" x="611.5" y="-609" font-family="Helvetica,sans-Serif" font-size="10.00">reconnects</text>
<text text-anchor="middle" x="611.5" y="-598" font-family="Helvetica,sans-Serif" font-size="10.00">resumes</text>
<text text-anchor="middle" x="611.5" y="-587" font-family="Helvetica,sans-Serif" font-size="10.00">shard_id</text>
</g>
<!-- Node16&#45;&gt;Node15 -->
<g id="edge18" class="edge">
<title>Node16&#45;&gt;Node15</title>
<path fill="none" stroke="#9a32cd" stroke-dasharray="5,2" d="M268.3,-569.3C281.47,-574.29 296.83,-579.77 311,-584 412.43,-614.29 445.66,-598.15 542,-642 550.75,-645.98 551.07,-650.43 560,-654 607.03,-672.78 665.5,-680.2 702.43,-683.12"/>
<polygon fill="#9a32cd" stroke="#9a32cd" points="269.29,-565.93 258.7,-565.61 266.78,-572.46 269.29,-565.93"/>
<text text-anchor="middle" x="496" y="-678" font-family="Helvetica,sans-Serif" font-size="10.00"> cluster_id</text>
<text text-anchor="middle" x="496" y="-667" font-family="Helvetica,sans-Serif" font-size="10.00">intents</text>
<text text-anchor="middle" x="496" y="-656" font-family="Helvetica,sans-Serif" font-size="10.00">maxclusters</text>
<text text-anchor="middle" x="496" y="-645" font-family="Helvetica,sans-Serif" font-size="10.00">numshards</text>
</g>
<!-- Node16&#45;&gt;Node18 -->
<g id="edge28" class="edge">
<title>Node16&#45;&gt;Node18</title>
<path fill="none" stroke="#9a32cd" stroke-dasharray="5,2" d="M244.84,-537.46C258.57,-512.06 284.78,-465.34 311,-428 359.63,-358.75 385.08,-351.42 432,-281 441.48,-266.77 437.93,-259.11 450,-247 455.88,-241.11 463.5,-236.3 470.81,-232.59"/>
<polygon fill="#9a32cd" stroke="#9a32cd" points="241.7,-535.91 240.05,-546.38 247.87,-539.22 241.7,-535.91"/>
<text text-anchor="middle" x="371.5" y="-431" font-family="Helvetica,sans-Serif" font-size="10.00"> flags</text>
</g>
<!-- Node16&#45;&gt;Node26 -->
<g id="edge44" class="edge">
<title>Node16&#45;&gt;Node26</title>
<path fill="none" stroke="#9a32cd" stroke-dasharray="5,2" d="M262.17,-541.67C316.96,-513.38 445.28,-450.11 560,-416 729.91,-365.47 788.14,-413.15 953,-348 975.45,-339.13 998.22,-322.42 1011.45,-311.77"/>
<polygon fill="#9a32cd" stroke="#9a32cd" points="260.37,-538.66 253.11,-546.38 263.6,-544.87 260.37,-538.66"/>
<text text-anchor="middle" x="611.5" y="-430" font-family="Helvetica,sans-Serif" font-size="10.00"> expire_grace_period</text>
<text text-anchor="middle" x="611.5" y="-419" font-family="Helvetica,sans-Serif" font-size="10.00">subscriber_count</text>
</g>
<!-- Node17&#45;&gt;Node15 -->
<g id="edge19" class="edge">
<title>Node17&#45;&gt;Node15</title>
<path fill="none" stroke="#9a32cd" stroke-dasharray="5,2" d="M552.25,-700.42C598.28,-696.61 662.5,-691.29 702.25,-688"/>
<polygon fill="#9a32cd" stroke="#9a32cd" points="551.82,-696.95 542.14,-701.26 552.4,-703.92 551.82,-696.95"/>
<text text-anchor="middle" x="611.5" y="-702" font-family="Helvetica,sans-Serif" font-size="10.00"> dispatch</text>
</g>
<!-- Node18&#45;&gt;Node15 -->
<g id="edge21" class="edge">
<title>Node18&#45;&gt;Node15</title>
<path fill="none" stroke="#9a32cd" stroke-dasharray="5,2" d="M524.94,-237.15C535.82,-242.55 548.43,-248.69 560,-254 605.24,-274.77 632.99,-258.28 663,-298 682.04,-323.2 675.4,-407.91 681,-439 697.72,-531.8 726.91,-642.24 735.83,-675.23"/>
<polygon fill="#9a32cd" stroke="#9a32cd" points="526.41,-233.97 515.9,-232.63 523.28,-240.23 526.41,-233.97"/>
<text text-anchor="middle" x="611.5" y="-301" font-family="Helvetica,sans-Serif" font-size="10.00"> me</text>
</g>
<!-- Node18&#45;&gt;Node28 -->
<g id="edge49" class="edge">
<title>Node18&#45;&gt;Node28</title>
<path fill="none" stroke="#9a32cd" stroke-dasharray="5,2" d="M537.65,-226.81C571.26,-229.99 620.24,-234.67 663,-239 668.77,-239.58 674.79,-240.2 680.8,-240.83"/>
<polygon fill="#9a32cd" stroke="#9a32cd" points="537.58,-223.29 527.3,-225.83 536.93,-230.26 537.58,-223.29"/>
<text text-anchor="middle" x="611.5" y="-242" font-family="Helvetica,sans-Serif" font-size="10.00"> bot</text>
</g>
<!-- Node19&#45;&gt;Node18 -->
<g id="edge22" class="edge">
<title>Node19&#45;&gt;Node18</title>
<path fill="none" stroke="midnightblue" d="M287.12,-166.65C327.2,-173.18 383.7,-183.76 432,-198 446.22,-202.19 461.71,-208.31 473.76,-213.45"/>
<polygon fill="midnightblue" stroke="midnightblue" points="287.47,-163.17 277.04,-165.04 286.36,-170.08 287.47,-163.17"/>
</g>
<!-- Node19&#45;&gt;Node26 -->
<g id="edge39" class="edge">
<title>Node19&#45;&gt;Node26</title>
<path fill="none" stroke="midnightblue" d="M287.37,-159.79C327.14,-160.78 383.12,-163.01 432,-168 665.26,-191.83 736.47,-161.03 953,-251 976.88,-260.92 1000.27,-280.53 1013.05,-292.34"/>
<polygon fill="midnightblue" stroke="midnightblue" points="287.45,-156.29 277.37,-159.56 287.29,-163.29 287.45,-156.29"/>
</g>
<!-- Node20 -->
<g id="node20" class="node">
<title>Node20</title>
<g id="a_node20"><a xlink:title=" ">
<polygon fill="white" stroke="#bfbfbf" points="206,-225.5 206,-244.5 262,-244.5 262,-225.5 206,-225.5"/>
<text text-anchor="middle" x="234" y="-232.5" font-family="Helvetica,sans-Serif" font-size="10.00">uint16_t</text>
</a>
</g>
</g>
<!-- Node20&#45;&gt;Node18 -->
<g id="edge25" class="edge">
<title>Node20&#45;&gt;Node18</title>
<path fill="none" stroke="#9a32cd" stroke-dasharray="5,2" d="M272.45,-233.27C324.35,-230.88 417.14,-226.59 464.85,-224.39"/>
<polygon fill="#9a32cd" stroke="#9a32cd" points="272.16,-229.78 262.33,-233.74 272.48,-236.77 272.16,-229.78"/>
<text text-anchor="middle" x="371.5" y="-235" font-family="Helvetica,sans-Serif" font-size="10.00"> discriminator</text>
</g>
<!-- Node21&#45;&gt;Node18 -->
<g id="edge26" class="edge">
<title>Node21&#45;&gt;Node18</title>
<path fill="none" stroke="#9a32cd" stroke-dasharray="5,2" d="M303.75,-200.6C341.67,-202.99 389.53,-206.69 432,-212 442.8,-213.35 454.56,-215.28 464.97,-217.14"/>
<polygon fill="#9a32cd" stroke="#9a32cd" points="303.53,-197.08 293.33,-199.96 303.1,-204.06 303.53,-197.08"/>
<text text-anchor="middle" x="371.5" y="-215" font-family="Helvetica,sans-Serif" font-size="10.00"> avatar</text>
</g>
<!-- Node22 -->
<g id="node22" class="node">
<title>Node22</title>
<g id="a_node22"><a xlink:title=" ">
<polygon fill="white" stroke="#bfbfbf" points="209,-54.5 209,-73.5 259,-73.5 259,-54.5 209,-54.5"/>
<text text-anchor="middle" x="234" y="-61.5" font-family="Helvetica,sans-Serif" font-size="10.00">uint8_t</text>
</a>
</g>
</g>
<!-- Node22&#45;&gt;Node18 -->
<g id="edge29" class="edge">
<title>Node22&#45;&gt;Node18</title>
<path fill="none" stroke="#9a32cd" stroke-dasharray="5,2" d="M269.53,-63.47C318.97,-63.37 406.77,-65.87 432,-84 476.53,-116.01 490.24,-187.14 493.85,-213.19"/>
<polygon fill="#9a32cd" stroke="#9a32cd" points="269.28,-59.97 259.3,-63.53 269.32,-66.97 269.28,-59.97"/>
<text text-anchor="middle" x="371.5" y="-87" font-family="Helvetica,sans-Serif" font-size="10.00"> refcount</text>
</g>
<!-- Node22&#45;&gt;Node26 -->
<g id="edge42" class="edge">
<title>Node22&#45;&gt;Node26</title>
<path fill="none" stroke="#9a32cd" stroke-dasharray="5,2" d="M269.21,-61.35C308.64,-58.91 375.3,-56.67 432,-64 669.45,-94.7 756.88,-63.66 953,-201 987.43,-225.11 1010.32,-271.92 1019.05,-292.22"/>
<polygon fill="#9a32cd" stroke="#9a32cd" points="268.83,-57.87 259.08,-62.02 269.29,-64.85 268.83,-57.87"/>
<text text-anchor="middle" x="611.5" y="-89" font-family="Helvetica,sans-Serif" font-size="10.00"> flags</text>
</g>
<!-- Node23 -->
<g id="node23" class="node">
<title>Node23</title>
<g id="a_node23"><a xlink:title=" ">
<polygon fill="white" stroke="#bfbfbf" points="683,-972.5 683,-991.5 796,-991.5 796,-972.5 683,-972.5"/>
<text text-anchor="middle" x="739.5" y="-979.5" font-family="Helvetica,sans-Serif" font-size="10.00">native_handle_type</text>
</a>
</g>
</g>
<!-- Node23&#45;&gt;Node5 -->
<g id="edge32" class="edge">
<title>Node23&#45;&gt;Node5</title>
<path fill="none" stroke="#9a32cd" stroke-dasharray="5,2" d="M806.44,-986.04C850.54,-985.87 908.43,-979.92 953,-955 985.83,-936.65 1009.1,-896.15 1018.45,-877.61"/>
<polygon fill="#9a32cd" stroke="#9a32cd" points="806.42,-982.54 796.4,-985.98 806.38,-989.54 806.42,-982.54"/>
<text text-anchor="middle" x="884.5" y="-988" font-family="Helvetica,sans-Serif" font-size="10.00"> thread_id</text>
</g>
<!-- Node24 -->
<g id="node24" class="node">
<title>Node24</title>
<g id="a_node24"><a xlink:title=" ">
<polygon fill="white" stroke="#bfbfbf" points="705,-934.5 705,-953.5 774,-953.5 774,-934.5 705,-934.5"/>
<text text-anchor="middle" x="739.5" y="-941.5" font-family="Helvetica,sans-Serif" font-size="10.00">std::mutex</text>
</a>
</g>
</g>
<!-- Node24&#45;&gt;Node5 -->
<g id="edge35" class="edge">
<title>Node24&#45;&gt;Node5</title>
<path fill="none" stroke="#9a32cd" stroke-dasharray="5,2" d="M784.42,-943C828.35,-940.76 897.24,-933.87 953,-913 975.46,-904.59 998.23,-888.17 1011.46,-877.66"/>
<polygon fill="#9a32cd" stroke="#9a32cd" points="784.18,-939.51 774.35,-943.45 784.5,-946.5 784.18,-939.51"/>
<text text-anchor="middle" x="884.5" y="-943" font-family="Helvetica,sans-Serif" font-size="10.00"> voice_mutex</text>
</g>
<!-- Node25 -->
<g id="node25" class="node">
<title>Node25</title>
<g id="a_node25"><a xlink:title=" ">
<polygon fill="white" stroke="#bfbfbf" points="689,-896.5 689,-915.5 790,-915.5 790,-896.5 689,-896.5"/>
<text text-anchor="middle" x="739.5" y="-903.5" font-family="Helvetica,sans-Serif" font-size="10.00">unordered_map&lt;</text>
</a>
</g>
</g>
<!-- Node25&#45;&gt;Node5 -->
<g id="edge37" class="edge">
<title>Node25&#45;&gt;Node5</title>
<path fill="none" stroke="#9a32cd" stroke-dasharray="5,2" d="M800.26,-900.62C842.94,-896.44 901.66,-890.02 953,-882 961.2,-880.72 969.91,-879.15 978.29,-877.53"/>
<polygon fill="#9a32cd" stroke="#9a32cd" points="799.66,-897.16 790.04,-901.61 800.33,-904.13 799.66,-897.16"/>
<text text-anchor="middle" x="884.5" y="-901" font-family="Helvetica,sans-Serif" font-size="10.00"> connecting_voice_channels</text>
</g>
<!-- Node26&#45;&gt;Node1 -->
<g id="edge38" class="edge">
<title>Node26&#45;&gt;Node1</title>
<path fill="none" stroke="#9a32cd" stroke-dasharray="5,2" d="M1081.19,-310.81C1143.77,-320.62 1244.57,-336.42 1308.89,-346.5"/>
<polygon fill="#9a32cd" stroke="#9a32cd" points="1081.52,-307.32 1071.1,-309.23 1080.44,-314.23 1081.52,-307.32"/>
<text text-anchor="middle" x="1202" y="-343" font-family="Helvetica,sans-Serif" font-size="10.00"> deleted_integration</text>
</g>
<!-- Node27 -->
<g id="node27" class="node">
<title>Node27</title>
<g id="a_node27"><a xlink:title=" ">
<polygon fill="white" stroke="#bfbfbf" points="691,-330.5 691,-349.5 788,-349.5 788,-330.5 691,-330.5"/>
<text text-anchor="middle" x="739.5" y="-337.5" font-family="Helvetica,sans-Serif" font-size="10.00">integration_type</text>
</a>
</g>
</g>
<!-- Node27&#45;&gt;Node26 -->
<g id="edge41" class="edge">
<title>Node27&#45;&gt;Node26</title>
<path fill="none" stroke="#9a32cd" stroke-dasharray="5,2" d="M798.3,-334.81C841.14,-330.64 900.87,-324.14 953,-316 961.2,-314.72 969.91,-313.15 978.29,-311.53"/>
<polygon fill="#9a32cd" stroke="#9a32cd" points="797.96,-331.33 788.34,-335.77 798.63,-338.29 797.96,-331.33"/>
<text text-anchor="middle" x="884.5" y="-336" font-family="Helvetica,sans-Serif" font-size="10.00"> type</text>
</g>
<!-- Node28&#45;&gt;Node26 -->
<g id="edge46" class="edge">
<title>Node28&#45;&gt;Node26</title>
<path fill="none" stroke="#9a32cd" stroke-dasharray="5,2" d="M808.5,-253.05C850.54,-257.66 905.38,-265.26 953,-277 969.04,-280.95 986.54,-287.2 1000.03,-292.46"/>
<polygon fill="#9a32cd" stroke="#9a32cd" points="808.69,-249.55 798.37,-251.97 807.95,-256.51 808.69,-249.55"/>
<text text-anchor="middle" x="884.5" y="-280" font-family="Helvetica,sans-Serif" font-size="10.00"> app</text>
</g>
</g>
</svg>
