<?xml version="1.0" encoding="UTF-8" standalone="no"?>
<!DOCTYPE svg PUBLIC "-//W3C//DTD SVG 1.1//EN"
 "http://www.w3.org/Graphics/SVG/1.1/DTD/svg11.dtd">
<!-- Generated by graphviz version 2.38.0 (20140413.2041)
 -->
<!-- Title: dpp::confirmation_callback_t Pages: 1 -->
<!--zoomable 559 -->
<svg id="main" version="1.1" xmlns="http://www.w3.org/2000/svg" xmlns:xlink="http://www.w3.org/1999/xlink" xml:space="preserve" onload="init(evt)">
<style type="text/css"><![CDATA[
.edge:hover path { stroke: red; }
.edge:hover polygon { stroke: red; fill: red; }
]]></style>
<script type="text/javascript"><![CDATA[
var edges = document.getElementsByTagName('g');
if (edges && edges.length) {
  for (var i=0;i<edges.length;i++) {
    if (edges[i].id.substr(0,4)=='edge') {
      edges[i].setAttribute('class','edge');
    }
  }
}
]]></script>
        <defs>
                <circle id="rim" cx="0" cy="0" r="7"/>
                <circle id="rim2" cx="0" cy="0" r="3.5"/>
                <g id="zoomPlus">
                        <use xlink:href="#rim" fill="#404040">
                                <set attributeName="fill" to="#808080" begin="zoomplus.mouseover" end="zoomplus.mouseout"/>
                        </use>
                        <path d="M-4,0h8M0,-4v8" fill="none" stroke="white" stroke-width="1.5" pointer-events="none"/>
                </g>
                <g id="zoomMin">
                        <use xlink:href="#rim" fill="#404040">
                                <set attributeName="fill" to="#808080" begin="zoomminus.mouseover" end="zoomminus.mouseout"/>
                        </use>
                        <path d="M-4,0h8" fill="none" stroke="white" stroke-width="1.5" pointer-events="none"/>
                </g>
                <g id="dirArrow">
                        <path fill="none" stroke="white" stroke-width="1.5" d="M0,-3.0v7 M-2.5,-0.5L0,-3.0L2.5,-0.5"/>
                </g>
               <g id="resetDef">
                       <use xlink:href="#rim2" fill="#404040">
                               <set attributeName="fill" to="#808080" begin="reset.mouseover" end="reset.mouseout"/>
                       </use>
               </g>
        </defs>

<script type="text/javascript">
var viewWidth = 811;
var viewHeight = 559;
var sectionId = 'dynsection-0';
</script>
<script xlink:href="svgpan.js"/>
<svg id="graph" class="graph">
<g id="viewport">
<title>dpp::confirmation_callback_t</title>
<polygon fill="white" stroke="none" points="-4,4 -4,-555 807,-555 807,4 -4,4"/>
<!-- Node1 -->
<g id="node1" class="node"><title>Node1</title>
<g id="a_node1"><a xlink:title="The results of a REST call wrapped in a convenient struct.">
<polygon fill="#bfbfbf" stroke="black" points="662,-244.5 662,-263.5 803,-263.5 803,-244.5 662,-244.5"/>
<text text-anchor="middle" x="732.5" y="-251.5" font-family="Helvetica,sans-Serif" font-size="10.00">dpp::confirmation_callback_t</text>
</a>
</g>
</g>
<!-- Node2 -->
<g id="node2" class="node"><title>Node2</title>
<g id="a_node2"><a xlink:title=" ">
<polygon fill="white" stroke="#bfbfbf" points="132,-261.5 132,-280.5 192,-280.5 192,-261.5 132,-261.5"/>
<text text-anchor="middle" x="162" y="-268.5" font-family="Helvetica,sans-Serif" font-size="10.00">std::string</text>
</a>
</g>
</g>
<!-- Node2&#45;&gt;Node1 -->
<g id="edge1" class="edge"><title>Node2&#45;&gt;Node1</title>
<path fill="none" stroke="#9a32cd" stroke-dasharray="5,2" d="M202.436,-269.821C297.649,-266.974 541.105,-259.693 661.677,-256.088"/>
<polygon fill="#9a32cd" stroke="#9a32cd" points="202.259,-266.324 192.368,-270.122 202.468,-273.321 202.259,-266.324"/>
<text text-anchor="middle" x="450" y="-269" font-family="Helvetica,sans-Serif" font-size="10.00"> type</text>
</g>
<!-- Node4 -->
<g id="node4" class="node"><title>Node4</title>
<g id="a_node4"><a xlink:href="structdpp_1_1http__request__completion__t.html" target="_top" xlink:title="The result of any HTTP request. Contains the headers, vital rate limit figures, and returned request ...">
<polygon fill="white" stroke="black" points="373.5,-373.5 373.5,-392.5 526.5,-392.5 526.5,-373.5 373.5,-373.5"/>
<text text-anchor="middle" x="450" y="-380.5" font-family="Helvetica,sans-Serif" font-size="10.00">dpp::http_request_completion_t</text>
</a>
</g>
</g>
<!-- Node2&#45;&gt;Node4 -->
<g id="edge7" class="edge"><title>Node2&#45;&gt;Node4</title>
<path fill="none" stroke="#9a32cd" stroke-dasharray="5,2" d="M202.101,-280.143C229.148,-286.937 265.75,-297.07 297,-309 347.452,-328.261 403.903,-358.063 431.665,-373.303"/>
<polygon fill="#9a32cd" stroke="#9a32cd" points="202.781,-276.706 192.234,-277.706 201.103,-283.502 202.781,-276.706"/>
<text text-anchor="middle" x="253.5" y="-323" font-family="Helvetica,sans-Serif" font-size="10.00"> body</text>
<text text-anchor="middle" x="253.5" y="-312" font-family="Helvetica,sans-Serif" font-size="10.00">ratelimit_bucket</text>
</g>
<!-- Node3 -->
<g id="node3" class="node"><title>Node3</title>
<g id="a_node3"><a xlink:title=" ">
<polygon fill="white" stroke="#bfbfbf" points="0,-256 0,-286 95,-286 95,-256 0,-256"/>
<text text-anchor="start" x="8" y="-274" font-family="Helvetica,sans-Serif" font-size="10.00">std::basic_string&lt;</text>
<text text-anchor="middle" x="47.5" y="-263" font-family="Helvetica,sans-Serif" font-size="10.00"> Char &gt;</text>
</a>
</g>
</g>
<!-- Node3&#45;&gt;Node2 -->
<g id="edge2" class="edge"><title>Node3&#45;&gt;Node2</title>
<path fill="none" stroke="midnightblue" d="M105.526,-271C114.678,-271 123.803,-271 131.931,-271"/>
<polygon fill="midnightblue" stroke="midnightblue" points="105.233,-267.5 95.2328,-271 105.233,-274.5 105.233,-267.5"/>
</g>
<!-- Node4&#45;&gt;Node1 -->
<g id="edge3" class="edge"><title>Node4&#45;&gt;Node1</title>
<path fill="none" stroke="#9a32cd" stroke-dasharray="5,2" d="M481.344,-369.045C538.647,-342.692 661.432,-286.224 710.555,-263.633"/>
<polygon fill="#9a32cd" stroke="#9a32cd" points="479.706,-365.946 472.083,-373.304 482.631,-372.306 479.706,-365.946"/>
<text text-anchor="middle" x="623.5" y="-313" font-family="Helvetica,sans-Serif" font-size="10.00"> http_info</text>
</g>
<!-- Node5 -->
<g id="node5" class="node"><title>Node5</title>
<g id="a_node5"><a xlink:title=" ">
<polygon fill="white" stroke="#bfbfbf" points="141.5,-531.5 141.5,-550.5 182.5,-550.5 182.5,-531.5 141.5,-531.5"/>
<text text-anchor="middle" x="162" y="-538.5" font-family="Helvetica,sans-Serif" font-size="10.00">map&lt;</text>
</a>
</g>
</g>
<!-- Node5&#45;&gt;Node4 -->
<g id="edge4" class="edge"><title>Node5&#45;&gt;Node4</title>
<path fill="none" stroke="#9a32cd" stroke-dasharray="5,2" d="M192.601,-538.463C220.69,-535.132 263.474,-527.613 297,-511 360.061,-479.751 419.14,-417.024 440.539,-392.83"/>
<polygon fill="#9a32cd" stroke="#9a32cd" points="192.17,-534.989 182.605,-539.545 192.924,-541.949 192.17,-534.989"/>
<text text-anchor="middle" x="253.5" y="-538" font-family="Helvetica,sans-Serif" font-size="10.00"> headers</text>
</g>
<!-- Node6 -->
<g id="node6" class="node"><title>Node6</title>
<g id="a_node6"><a xlink:title=" ">
<polygon fill="white" stroke="#bfbfbf" points="136.5,-493.5 136.5,-512.5 187.5,-512.5 187.5,-493.5 136.5,-493.5"/>
<text text-anchor="middle" x="162" y="-500.5" font-family="Helvetica,sans-Serif" font-size="10.00">uint16_t</text>
</a>
</g>
</g>
<!-- Node6&#45;&gt;Node4 -->
<g id="edge5" class="edge"><title>Node6&#45;&gt;Node4</title>
<path fill="none" stroke="#9a32cd" stroke-dasharray="5,2" d="M197.903,-499.001C225.505,-495.064 264.646,-487.74 297,-475 352.68,-453.074 411.261,-411.546 436.37,-392.717"/>
<polygon fill="#9a32cd" stroke="#9a32cd" points="197.369,-495.541 187.927,-500.348 198.305,-502.478 197.369,-495.541"/>
<text text-anchor="middle" x="253.5" y="-499" font-family="Helvetica,sans-Serif" font-size="10.00"> status</text>
</g>
<!-- Node7 -->
<g id="node7" class="node"><title>Node7</title>
<g id="a_node7"><a xlink:title=" ">
<polygon fill="white" stroke="#bfbfbf" points="133,-455.5 133,-474.5 191,-474.5 191,-455.5 133,-455.5"/>
<text text-anchor="middle" x="162" y="-462.5" font-family="Helvetica,sans-Serif" font-size="10.00">http_error</text>
</a>
</g>
</g>
<!-- Node7&#45;&gt;Node4 -->
<g id="edge6" class="edge"><title>Node7&#45;&gt;Node4</title>
<path fill="none" stroke="#9a32cd" stroke-dasharray="5,2" d="M201.344,-461.736C228.418,-458.838 265.36,-453.679 297,-445 346.472,-431.429 401.52,-406.29 429.845,-392.56"/>
<polygon fill="#9a32cd" stroke="#9a32cd" points="200.716,-458.282 191.12,-462.773 201.422,-465.246 200.716,-458.282"/>
<text text-anchor="middle" x="253.5" y="-463" font-family="Helvetica,sans-Serif" font-size="10.00"> error</text>
</g>
<!-- Node8 -->
<g id="node8" class="node"><title>Node8</title>
<g id="a_node8"><a xlink:title=" ">
<polygon fill="white" stroke="#bfbfbf" points="136.5,-394.5 136.5,-413.5 187.5,-413.5 187.5,-394.5 136.5,-394.5"/>
<text text-anchor="middle" x="162" y="-401.5" font-family="Helvetica,sans-Serif" font-size="10.00">uint64_t</text>
</a>
</g>
</g>
<!-- Node8&#45;&gt;Node4 -->
<g id="edge8" class="edge"><title>Node8&#45;&gt;Node4</title>
<path fill="none" stroke="#9a32cd" stroke-dasharray="5,2" d="M197.661,-401.455C240.96,-398.276 316.273,-392.746 373.198,-388.566"/>
<polygon fill="#9a32cd" stroke="#9a32cd" points="197.349,-397.968 187.632,-402.191 197.861,-404.95 197.349,-397.968"/>
<text text-anchor="middle" x="253.5" y="-436" font-family="Helvetica,sans-Serif" font-size="10.00"> ratelimit_limit</text>
<text text-anchor="middle" x="253.5" y="-425" font-family="Helvetica,sans-Serif" font-size="10.00">ratelimit_remaining</text>
<text text-anchor="middle" x="253.5" y="-414" font-family="Helvetica,sans-Serif" font-size="10.00">ratelimit_reset_after</text>
<text text-anchor="middle" x="253.5" y="-403" font-family="Helvetica,sans-Serif" font-size="10.00">ratelimit_retry_after</text>
</g>
<!-- Node9 -->
<g id="node9" class="node"><title>Node9</title>
<g id="a_node9"><a xlink:title=" ">
<polygon fill="white" stroke="#bfbfbf" points="144.5,-356.5 144.5,-375.5 179.5,-375.5 179.5,-356.5 144.5,-356.5"/>
<text text-anchor="middle" x="162" y="-363.5" font-family="Helvetica,sans-Serif" font-size="10.00">bool</text>
</a>
</g>
</g>
<!-- Node9&#45;&gt;Node4 -->
<g id="edge9" class="edge"><title>Node9&#45;&gt;Node4</title>
<path fill="none" stroke="#9a32cd" stroke-dasharray="5,2" d="M189.739,-365.435C216.804,-365.042 259.845,-364.911 297,-367 321.903,-368.4 349.012,-370.929 373.349,-373.57"/>
<polygon fill="#9a32cd" stroke="#9a32cd" points="189.46,-361.939 179.52,-365.607 189.577,-368.938 189.46,-361.939"/>
<text text-anchor="middle" x="253.5" y="-370" font-family="Helvetica,sans-Serif" font-size="10.00"> ratelimit_global</text>
</g>
<!-- Node10 -->
<g id="node10" class="node"><title>Node10</title>
<g id="a_node10"><a xlink:title=" ">
<polygon fill="white" stroke="#bfbfbf" points="139.5,-318.5 139.5,-337.5 184.5,-337.5 184.5,-318.5 139.5,-318.5"/>
<text text-anchor="middle" x="162" y="-325.5" font-family="Helvetica,sans-Serif" font-size="10.00">double</text>
</a>
</g>
</g>
<!-- Node10&#45;&gt;Node4 -->
<g id="edge10" class="edge"><title>Node10&#45;&gt;Node4</title>
<path fill="none" stroke="#9a32cd" stroke-dasharray="5,2" d="M194.987,-332.781C222.185,-336.96 262.244,-343.378 297,-350 334.668,-357.176 377.315,-366.545 407.828,-373.465"/>
<polygon fill="#9a32cd" stroke="#9a32cd" points="195.291,-329.288 184.878,-331.241 194.236,-336.208 195.291,-329.288"/>
<text text-anchor="middle" x="253.5" y="-353" font-family="Helvetica,sans-Serif" font-size="10.00"> latency</text>
</g>
<!-- Node11 -->
<g id="node11" class="node"><title>Node11</title>
<g id="a_node11"><a xlink:title=" ">
<polygon fill="white" stroke="#bfbfbf" points="315,-0.5 315,-217.5 585,-217.5 585,-0.5 315,-0.5"/>
<text text-anchor="start" x="323" y="-205.5" font-family="Helvetica,sans-Serif" font-size="10.00">variant&lt; confirmation,</text>
<text text-anchor="start" x="323" y="-194.5" font-family="Helvetica,sans-Serif" font-size="10.00"> message, message_map,</text>
<text text-anchor="start" x="323" y="-183.5" font-family="Helvetica,sans-Serif" font-size="10.00"> user, user_identified,</text>
<text text-anchor="start" x="323" y="-172.5" font-family="Helvetica,sans-Serif" font-size="10.00"> user_map, guild_member,</text>
<text text-anchor="start" x="323" y="-161.5" font-family="Helvetica,sans-Serif" font-size="10.00"> guild_member_map, channel,</text>
<text text-anchor="start" x="323" y="-150.5" font-family="Helvetica,sans-Serif" font-size="10.00"> channel_map, thread_member,</text>
<text text-anchor="start" x="323" y="-139.5" font-family="Helvetica,sans-Serif" font-size="10.00"> thread_member_map, guild, guild</text>
<text text-anchor="start" x="323" y="-128.5" font-family="Helvetica,sans-Serif" font-size="10.00">_map, role, role_map, invite, invite</text>
<text text-anchor="start" x="323" y="-117.5" font-family="Helvetica,sans-Serif" font-size="10.00">_map, dtemplate, dtemplate_map, emoji,</text>
<text text-anchor="start" x="323" y="-106.5" font-family="Helvetica,sans-Serif" font-size="10.00"> emoji_map, ban, ban_map, voiceregion,</text>
<text text-anchor="start" x="323" y="-95.5" font-family="Helvetica,sans-Serif" font-size="10.00"> voiceregion_map, integration, integration</text>
<text text-anchor="start" x="323" y="-84.5" font-family="Helvetica,sans-Serif" font-size="10.00">_map, webhook, webhook_map, prune, guild</text>
<text text-anchor="start" x="323" y="-73.5" font-family="Helvetica,sans-Serif" font-size="10.00">_widget, gateway, interaction, interaction</text>
<text text-anchor="start" x="323" y="-62.5" font-family="Helvetica,sans-Serif" font-size="10.00">_response, auditlog, slashcommand, slashcommand</text>
<text text-anchor="start" x="323" y="-51.5" font-family="Helvetica,sans-Serif" font-size="10.00">_map, stage_instance, sticker, sticker_map, sticker</text>
<text text-anchor="start" x="323" y="-40.5" font-family="Helvetica,sans-Serif" font-size="10.00">_pack, sticker_pack_map, application, application</text>
<text text-anchor="start" x="323" y="-29.5" font-family="Helvetica,sans-Serif" font-size="10.00">_map, connection, connection_map, thread, thread_map,</text>
<text text-anchor="start" x="323" y="-18.5" font-family="Helvetica,sans-Serif" font-size="10.00"> scheduled_event, scheduled_event_map, event_member,</text>
<text text-anchor="middle" x="450" y="-7.5" font-family="Helvetica,sans-Serif" font-size="10.00"> event_member_map &gt;</text>
</a>
</g>
</g>
<!-- Node11&#45;&gt;Node1 -->
<g id="edge11" class="edge"><title>Node11&#45;&gt;Node1</title>
<path fill="none" stroke="#9a32cd" stroke-dasharray="5,2" d="M594.203,-183.026C641.342,-207.394 688.036,-231.532 712.972,-244.422"/>
<polygon fill="#9a32cd" stroke="#9a32cd" points="595.579,-179.798 585.088,-178.315 592.364,-186.016 595.579,-179.798"/>
<text text-anchor="middle" x="623.5" y="-210" font-family="Helvetica,sans-Serif" font-size="10.00"> value</text>
</g>
</g>
</svg>
        <g id="navigator" transform="translate(0 0)" fill="#404254">
                <rect fill="#f2f5e9" fill-opacity="0.5" stroke="#606060" stroke-width=".5" x="0" y="0" width="60" height="60"/>
                <use id="zoomplus" xlink:href="#zoomPlus" x="17" y="9" onmousedown="handleZoom(evt,'in')"/>
                <use id="zoomminus" xlink:href="#zoomMin" x="42" y="9" onmousedown="handleZoom(evt,'out')"/>
                <use id="reset" xlink:href="#resetDef" x="30" y="36" onmousedown="handleReset()"/>
                <g id="arrowUp" xlink:href="#dirArrow" transform="translate(30 24)" onmousedown="handlePan(0,-1)">
                  <use xlink:href="#rim" fill="#404040">
                        <set attributeName="fill" to="#808080" begin="arrowUp.mouseover" end="arrowUp.mouseout"/>
                  </use>
                  <path fill="none" stroke="white" stroke-width="1.5" d="M0,-3.0v7 M-2.5,-0.5L0,-3.0L2.5,-0.5"/>
                </g>
                <g id="arrowRight" xlink:href="#dirArrow" transform="rotate(90) translate(36 -43)" onmousedown="handlePan(1,0)">
                  <use xlink:href="#rim" fill="#404040">
                        <set attributeName="fill" to="#808080" begin="arrowRight.mouseover" end="arrowRight.mouseout"/>
                  </use>
                  <path fill="none" stroke="white" stroke-width="1.5" d="M0,-3.0v7 M-2.5,-0.5L0,-3.0L2.5,-0.5"/>
                </g>
                <g id="arrowDown" xlink:href="#dirArrow" transform="rotate(180) translate(-30 -48)" onmousedown="handlePan(0,1)">
                  <use xlink:href="#rim" fill="#404040">
                        <set attributeName="fill" to="#808080" begin="arrowDown.mouseover" end="arrowDown.mouseout"/>
                  </use>
                  <path fill="none" stroke="white" stroke-width="1.5" d="M0,-3.0v7 M-2.5,-0.5L0,-3.0L2.5,-0.5"/>
                </g>
                <g id="arrowLeft" xlink:href="#dirArrow" transform="rotate(270) translate(-36 17)" onmousedown="handlePan(-1,0)">
                  <use xlink:href="#rim" fill="#404040">
                        <set attributeName="fill" to="#808080" begin="arrowLeft.mouseover" end="arrowLeft.mouseout"/>
                  </use>
                  <path fill="none" stroke="white" stroke-width="1.5" d="M0,-3.0v7 M-2.5,-0.5L0,-3.0L2.5,-0.5"/>
                </g>
        </g>
        <svg viewBox="0 0 15 15" width="100%" height="30px" preserveAspectRatio="xMaxYMin meet">
         <g id="arrow_out" transform="scale(0.3 0.3)">
          <a xlink:href="structdpp_1_1confirmation__callback__t__coll__graph_org.svg" target="_base">
           <rect id="button" ry="5" rx="5" y="6" x="6" height="38" width="38"
                fill="#f2f5e9" fill-opacity="0.5" stroke="#606060" stroke-width="1.0"/>
           <path id="arrow"
             d="M 11.500037,31.436501 C 11.940474,20.09759 22.043105,11.32322 32.158766,21.979434 L 37.068811,17.246167 C 37.068811,17.246167 37.088388,32 37.088388,32 L 22.160133,31.978069 C 22.160133,31.978069 26.997745,27.140456 26.997745,27.140456 C 18.528582,18.264221 13.291696,25.230495 11.500037,31.436501 z"
             style="fill:#404040;"/>
          </a>
         </g>
        </svg>
</svg>
