<?xml version="1.0" encoding="UTF-8" standalone="no"?>
<!DOCTYPE svg PUBLIC "-//W3C//DTD SVG 1.1//EN"
 "http://www.w3.org/Graphics/SVG/1.1/DTD/svg11.dtd">
<!-- Generated by graphviz version 2.38.0 (20140413.2041)
 -->
<!-- Title: dpp::application Pages: 1 -->
<!--zoomable 387 -->
<svg id="main" version="1.1" xmlns="http://www.w3.org/2000/svg" xmlns:xlink="http://www.w3.org/1999/xlink" xml:space="preserve" onload="init(evt)">
<style type="text/css"><![CDATA[
.edge:hover path { stroke: red; }
.edge:hover polygon { stroke: red; fill: red; }
]]></style>
<script type="text/javascript"><![CDATA[
var edges = document.getElementsByTagName('g');
if (edges && edges.length) {
  for (var i=0;i<edges.length;i++) {
    if (edges[i].id.substr(0,4)=='edge') {
      edges[i].setAttribute('class','edge');
    }
  }
}
]]></script>
        <defs>
                <circle id="rim" cx="0" cy="0" r="7"/>
                <circle id="rim2" cx="0" cy="0" r="3.5"/>
                <g id="zoomPlus">
                        <use xlink:href="#rim" fill="#404040">
                                <set attributeName="fill" to="#808080" begin="zoomplus.mouseover" end="zoomplus.mouseout"/>
                        </use>
                        <path d="M-4,0h8M0,-4v8" fill="none" stroke="white" stroke-width="1.5" pointer-events="none"/>
                </g>
                <g id="zoomMin">
                        <use xlink:href="#rim" fill="#404040">
                                <set attributeName="fill" to="#808080" begin="zoomminus.mouseover" end="zoomminus.mouseout"/>
                        </use>
                        <path d="M-4,0h8" fill="none" stroke="white" stroke-width="1.5" pointer-events="none"/>
                </g>
                <g id="dirArrow">
                        <path fill="none" stroke="white" stroke-width="1.5" d="M0,-3.0v7 M-2.5,-0.5L0,-3.0L2.5,-0.5"/>
                </g>
               <g id="resetDef">
                       <use xlink:href="#rim2" fill="#404040">
                               <set attributeName="fill" to="#808080" begin="reset.mouseover" end="reset.mouseout"/>
                       </use>
               </g>
        </defs>

<script type="text/javascript">
var viewWidth = 847;
var viewHeight = 387;
var sectionId = 'dynsection-0';
</script>
<script xlink:href="svgpan.js"/>
<svg id="graph" class="graph">
<g id="viewport">
<title>dpp::application</title>
<polygon fill="white" stroke="none" points="-4,4 -4,-383 842.5,-383 842.5,4 -4,4"/>
<!-- Node1 -->
<g id="node1" class="node"><title>Node1</title>
<g id="a_node1"><a xlink:title="The application class represents details of a bot application.">
<polygon fill="#bfbfbf" stroke="black" points="356,-0.5 356,-19.5 441,-19.5 441,-0.5 356,-0.5"/>
<text text-anchor="middle" x="398.5" y="-7.5" font-family="Helvetica,sans-Serif" font-size="10.00">dpp::application</text>
</a>
</g>
</g>
<!-- Node2 -->
<g id="node2" class="node"><title>Node2</title>
<g id="a_node2"><a xlink:title=" ">
<polygon fill="white" stroke="#bfbfbf" points="361,-354 361,-373 412,-373 412,-354 361,-354"/>
<text text-anchor="middle" x="386.5" y="-361" font-family="Helvetica,sans-Serif" font-size="10.00">uint64_t</text>
</a>
</g>
</g>
<!-- Node2&#45;&gt;Node1 -->
<g id="edge1" class="edge"><title>Node2&#45;&gt;Node1</title>
<path fill="none" stroke="#9a32cd" stroke-dasharray="5,2" d="M422.072,-359.33C494.446,-352.066 654.767,-331.553 687.5,-290 719.203,-249.754 897.076,-407.429 666.5,-89 634.895,-45.3533 607.954,-54.0121 556.5,-38 518.37,-26.1343 473.342,-19.0874 441.13,-15.1853"/>
<polygon fill="#9a32cd" stroke="#9a32cd" points="421.67,-355.852 412.057,-360.306 422.35,-362.819 421.67,-355.852"/>
<text text-anchor="middle" x="805" y="-242" font-family="Helvetica,sans-Serif" font-size="10.00"> guild_id</text>
<text text-anchor="middle" x="805" y="-231" font-family="Helvetica,sans-Serif" font-size="10.00">id</text>
<text text-anchor="middle" x="805" y="-220" font-family="Helvetica,sans-Serif" font-size="10.00">primary_sku_id</text>
</g>
<!-- Node5 -->
<g id="node5" class="node"><title>Node5</title>
<g id="a_node5"><a xlink:href="structdpp_1_1utility_1_1iconhash.html" target="_top" xlink:title="Store a 128 bit icon hash (profile picture, server icon etc) as a 128 bit binary value made of two ui...">
<polygon fill="white" stroke="black" points="264,-269.5 264,-288.5 371,-288.5 371,-269.5 264,-269.5"/>
<text text-anchor="middle" x="317.5" y="-276.5" font-family="Helvetica,sans-Serif" font-size="10.00">dpp::utility::iconhash</text>
</a>
</g>
</g>
<!-- Node2&#45;&gt;Node5 -->
<g id="edge5" class="edge"><title>Node2&#45;&gt;Node5</title>
<path fill="none" stroke="#9a32cd" stroke-dasharray="5,2" d="M372.596,-345.875C358.112,-328.558 335.99,-302.107 324.689,-288.595"/>
<polygon fill="#9a32cd" stroke="#9a32cd" points="370.275,-348.556 379.376,-353.982 375.645,-344.066 370.275,-348.556"/>
<text text-anchor="middle" x="374.5" y="-322" font-family="Helvetica,sans-Serif" font-size="10.00"> first</text>
<text text-anchor="middle" x="374.5" y="-311" font-family="Helvetica,sans-Serif" font-size="10.00">second</text>
</g>
<!-- Node8 -->
<g id="node8" class="node"><title>Node8</title>
<g id="a_node8"><a xlink:href="classdpp_1_1managed.html" target="_top" xlink:title="The managed class is the base class for various types that can be stored in a cache that are identifi...">
<polygon fill="white" stroke="black" points="389.5,-269.5 389.5,-288.5 467.5,-288.5 467.5,-269.5 389.5,-269.5"/>
<text text-anchor="middle" x="428.5" y="-276.5" font-family="Helvetica,sans-Serif" font-size="10.00">dpp::managed</text>
</a>
</g>
</g>
<!-- Node2&#45;&gt;Node8 -->
<g id="edge9" class="edge"><title>Node2&#45;&gt;Node8</title>
<path fill="none" stroke="#9a32cd" stroke-dasharray="5,2" d="M395.453,-344.913C404.271,-327.592 417.372,-301.859 424.124,-288.595"/>
<polygon fill="#9a32cd" stroke="#9a32cd" points="392.254,-343.482 390.837,-353.982 398.493,-346.658 392.254,-343.482"/>
<text text-anchor="middle" x="420" y="-316.5" font-family="Helvetica,sans-Serif" font-size="10.00"> id</text>
</g>
<!-- Node12 -->
<g id="node12" class="node"><title>Node12</title>
<g id="a_node12"><a xlink:href="classdpp_1_1app__team.html" target="_top" xlink:title="Represents a team of users who maintain a bot/application.">
<polygon fill="white" stroke="black" points="141,-134.5 141,-153.5 222,-153.5 222,-134.5 141,-134.5"/>
<text text-anchor="middle" x="181.5" y="-141.5" font-family="Helvetica,sans-Serif" font-size="10.00">dpp::app_team</text>
</a>
</g>
</g>
<!-- Node2&#45;&gt;Node12 -->
<g id="edge17" class="edge"><title>Node2&#45;&gt;Node12</title>
<path fill="none" stroke="#9a32cd" stroke-dasharray="5,2" d="M350.97,-360.577C305.541,-356.022 228.252,-340.784 190.5,-290 159.051,-247.695 172.954,-177.821 179.119,-153.59"/>
<polygon fill="#9a32cd" stroke="#9a32cd" points="350.704,-364.067 360.973,-361.458 351.319,-357.094 350.704,-364.067"/>
<text text-anchor="middle" x="222.5" y="-282" font-family="Helvetica,sans-Serif" font-size="10.00"> id</text>
<text text-anchor="middle" x="222.5" y="-271" font-family="Helvetica,sans-Serif" font-size="10.00">owner_user_id</text>
</g>
<!-- Node3 -->
<g id="node3" class="node"><title>Node3</title>
<g id="a_node3"><a xlink:title=" ">
<polygon fill="white" stroke="#bfbfbf" points="17.5,-269.5 17.5,-288.5 77.5,-288.5 77.5,-269.5 17.5,-269.5"/>
<text text-anchor="middle" x="47.5" y="-276.5" font-family="Helvetica,sans-Serif" font-size="10.00">std::string</text>
</a>
</g>
</g>
<!-- Node3&#45;&gt;Node1 -->
<g id="edge2" class="edge"><title>Node3&#45;&gt;Node1</title>
<path fill="none" stroke="#9a32cd" stroke-dasharray="5,2" d="M41.8487,-259.383C31.8813,-222.45 15.7657,-139.159 55.5,-89 92.5196,-42.2676 272.594,-21.4474 355.975,-14.1977"/>
<polygon fill="#9a32cd" stroke="#9a32cd" points="38.5611,-260.616 44.676,-269.268 45.2912,-258.691 38.5611,-260.616"/>
<text text-anchor="middle" x="93.5" y="-191" font-family="Helvetica,sans-Serif" font-size="10.00"> description</text>
<text text-anchor="middle" x="93.5" y="-180" font-family="Helvetica,sans-Serif" font-size="10.00">name</text>
<text text-anchor="start" x="55.5" y="-169" font-family="Helvetica,sans-Serif" font-size="10.00">privacy_policy</text>
<text text-anchor="middle" x="93.5" y="-158" font-family="Helvetica,sans-Serif" font-size="10.00">_url</text>
<text text-anchor="middle" x="93.5" y="-147" font-family="Helvetica,sans-Serif" font-size="10.00">rpc_origins</text>
<text text-anchor="middle" x="93.5" y="-136" font-family="Helvetica,sans-Serif" font-size="10.00">slug</text>
<text text-anchor="middle" x="93.5" y="-125" font-family="Helvetica,sans-Serif" font-size="10.00">summary</text>
<text text-anchor="start" x="55.5" y="-114" font-family="Helvetica,sans-Serif" font-size="10.00">terms_of_service</text>
<text text-anchor="middle" x="93.5" y="-103" font-family="Helvetica,sans-Serif" font-size="10.00">_url</text>
<text text-anchor="middle" x="93.5" y="-92" font-family="Helvetica,sans-Serif" font-size="10.00">verify_key</text>
</g>
<!-- Node7 -->
<g id="node7" class="node"><title>Node7</title>
<g id="a_node7"><a xlink:href="classdpp_1_1user.html" target="_top" xlink:title="Represents a user on discord. May or may not be a member of a dpp::guild.">
<polygon fill="white" stroke="black" points="451,-134.5 451,-153.5 508,-153.5 508,-134.5 451,-134.5"/>
<text text-anchor="middle" x="479.5" y="-141.5" font-family="Helvetica,sans-Serif" font-size="10.00">dpp::user</text>
</a>
</g>
</g>
<!-- Node3&#45;&gt;Node7 -->
<g id="edge10" class="edge"><title>Node3&#45;&gt;Node7</title>
<path fill="none" stroke="#9a32cd" stroke-dasharray="5,2" d="M87.8765,-268.018C154.873,-256.735 175.583,-267.777 237.5,-250 270.559,-240.508 274.512,-226.737 307.5,-217 365.132,-199.988 390.132,-230.181 441.5,-199 459.139,-188.293 470.76,-165.946 476.105,-153.621"/>
<polygon fill="#9a32cd" stroke="#9a32cd" points="86.8718,-264.642 77.6456,-269.85 88.1061,-271.532 86.8718,-264.642"/>
<text text-anchor="middle" x="330.5" y="-231" font-family="Helvetica,sans-Serif" font-size="10.00"> username</text>
</g>
<!-- Node3&#45;&gt;Node12 -->
<g id="edge19" class="edge"><title>Node3&#45;&gt;Node12</title>
<path fill="none" stroke="#9a32cd" stroke-dasharray="5,2" d="M55.8892,-260.174C62.7331,-247.041 73.3963,-229.384 86.5,-217 98.3595,-205.792 105.13,-208.355 118.5,-199 139.038,-184.63 160.761,-164.848 172.571,-153.649"/>
<polygon fill="#9a32cd" stroke="#9a32cd" points="52.7337,-258.659 51.4231,-269.173 59.0039,-261.771 52.7337,-258.659"/>
<text text-anchor="middle" x="100.5" y="-231" font-family="Helvetica,sans-Serif" font-size="10.00"> name</text>
</g>
<!-- Node4 -->
<g id="node4" class="node"><title>Node4</title>
<g id="a_node4"><a xlink:title=" ">
<polygon fill="white" stroke="#bfbfbf" points="0,-348.5 0,-378.5 95,-378.5 95,-348.5 0,-348.5"/>
<text text-anchor="start" x="8" y="-366.5" font-family="Helvetica,sans-Serif" font-size="10.00">std::basic_string&lt;</text>
<text text-anchor="middle" x="47.5" y="-355.5" font-family="Helvetica,sans-Serif" font-size="10.00"> Char &gt;</text>
</a>
</g>
</g>
<!-- Node4&#45;&gt;Node3 -->
<g id="edge3" class="edge"><title>Node4&#45;&gt;Node3</title>
<path fill="none" stroke="midnightblue" d="M47.5,-337.951C47.5,-321.281 47.5,-300.234 47.5,-288.644"/>
<polygon fill="midnightblue" stroke="midnightblue" points="44.0001,-338.13 47.5,-348.13 51.0001,-338.13 44.0001,-338.13"/>
</g>
<!-- Node5&#45;&gt;Node1 -->
<g id="edge4" class="edge"><title>Node5&#45;&gt;Node1</title>
<path fill="none" stroke="#9a32cd" stroke-dasharray="5,2" d="M314.792,-259.052C310.603,-223.951 305.356,-147.102 329.5,-89 341.988,-58.9478 371.027,-32.5945 387.169,-19.5959"/>
<polygon fill="#9a32cd" stroke="#9a32cd" points="311.36,-259.806 316.127,-269.268 318.301,-258.899 311.36,-259.806"/>
<text text-anchor="middle" x="359" y="-147" font-family="Helvetica,sans-Serif" font-size="10.00"> cover_image</text>
<text text-anchor="middle" x="359" y="-136" font-family="Helvetica,sans-Serif" font-size="10.00">icon</text>
</g>
<!-- Node5&#45;&gt;Node7 -->
<g id="edge12" class="edge"><title>Node5&#45;&gt;Node7</title>
<path fill="none" stroke="#9a32cd" stroke-dasharray="5,2" d="M337.086,-263.218C354.576,-250.314 381.122,-231.444 405.5,-217 420.89,-207.881 427.941,-210.669 441.5,-199 456.793,-185.839 469.019,-165.251 475.167,-153.669"/>
<polygon fill="#9a32cd" stroke="#9a32cd" points="334.757,-260.589 328.825,-269.367 338.937,-266.204 334.757,-260.589"/>
<text text-anchor="middle" x="421" y="-231" font-family="Helvetica,sans-Serif" font-size="10.00"> avatar</text>
</g>
<!-- Node5&#45;&gt;Node12 -->
<g id="edge16" class="edge"><title>Node5&#45;&gt;Node12</title>
<path fill="none" stroke="#9a32cd" stroke-dasharray="5,2" d="M260.299,-267.249C240.959,-262.593 222.484,-256.675 215.5,-250 187.658,-223.39 182.577,-173.837 181.678,-153.772"/>
<polygon fill="#9a32cd" stroke="#9a32cd" points="259.595,-270.679 270.124,-269.499 261.157,-263.855 259.595,-270.679"/>
<text text-anchor="middle" x="226.5" y="-231" font-family="Helvetica,sans-Serif" font-size="10.00"> icon</text>
</g>
<!-- Node6 -->
<g id="node6" class="node"><title>Node6</title>
<g id="a_node6"><a xlink:title=" ">
<polygon fill="white" stroke="#bfbfbf" points="398,-134.5 398,-153.5 433,-153.5 433,-134.5 398,-134.5"/>
<text text-anchor="middle" x="415.5" y="-141.5" font-family="Helvetica,sans-Serif" font-size="10.00">bool</text>
</a>
</g>
</g>
<!-- Node6&#45;&gt;Node1 -->
<g id="edge6" class="edge"><title>Node6&#45;&gt;Node1</title>
<path fill="none" stroke="#9a32cd" stroke-dasharray="5,2" d="M410.316,-124.539C406.525,-110.098 401.68,-89.4427 399.5,-71 397.347,-52.7909 397.682,-31.2599 398.101,-19.5813"/>
<polygon fill="#9a32cd" stroke="#9a32cd" points="406.95,-125.498 412.948,-134.231 413.705,-123.663 406.95,-125.498"/>
<text text-anchor="middle" x="437" y="-63" font-family="Helvetica,sans-Serif" font-size="10.00"> bot_public</text>
<text text-anchor="start" x="399.5" y="-52" font-family="Helvetica,sans-Serif" font-size="10.00">bot_require_code</text>
<text text-anchor="middle" x="437" y="-41" font-family="Helvetica,sans-Serif" font-size="10.00">_grant</text>
</g>
<!-- Node7&#45;&gt;Node1 -->
<g id="edge7" class="edge"><title>Node7&#45;&gt;Node1</title>
<path fill="none" stroke="#9a32cd" stroke-dasharray="5,2" d="M484.291,-124.596C489.04,-101.883 493.195,-63.1871 474.5,-38 466.488,-27.2061 453.798,-20.7107 441.065,-16.8079"/>
<polygon fill="#9a32cd" stroke="#9a32cd" points="480.884,-123.798 482.01,-134.332 487.699,-125.395 480.884,-123.798"/>
<text text-anchor="middle" x="502.5" y="-52" font-family="Helvetica,sans-Serif" font-size="10.00"> owner</text>
</g>
<!-- Node8&#45;&gt;Node7 -->
<g id="edge8" class="edge"><title>Node8&#45;&gt;Node7</title>
<path fill="none" stroke="midnightblue" d="M435.439,-259.904C446.575,-230.863 468.016,-174.949 476.208,-153.586"/>
<polygon fill="midnightblue" stroke="midnightblue" points="432.159,-258.683 431.846,-269.273 438.695,-261.19 432.159,-258.683"/>
</g>
<!-- Node9 -->
<g id="node9" class="node"><title>Node9</title>
<g id="a_node9"><a xlink:title=" ">
<polygon fill="white" stroke="#bfbfbf" points="486,-269.5 486,-288.5 537,-288.5 537,-269.5 486,-269.5"/>
<text text-anchor="middle" x="511.5" y="-276.5" font-family="Helvetica,sans-Serif" font-size="10.00">uint16_t</text>
</a>
</g>
</g>
<!-- Node9&#45;&gt;Node7 -->
<g id="edge11" class="edge"><title>Node9&#45;&gt;Node7</title>
<path fill="none" stroke="#9a32cd" stroke-dasharray="5,2" d="M486.414,-263.414C482.003,-259.638 478.022,-255.157 475.5,-250 459.631,-217.553 470.702,-172.486 476.533,-153.73"/>
<polygon fill="#9a32cd" stroke="#9a32cd" points="484.469,-266.328 494.597,-269.44 488.62,-260.692 484.469,-266.328"/>
<text text-anchor="middle" x="505" y="-231" font-family="Helvetica,sans-Serif" font-size="10.00"> discriminator</text>
</g>
<!-- Node10 -->
<g id="node10" class="node"><title>Node10</title>
<g id="a_node10"><a xlink:title=" ">
<polygon fill="white" stroke="#bfbfbf" points="628,-269.5 628,-288.5 679,-288.5 679,-269.5 628,-269.5"/>
<text text-anchor="middle" x="653.5" y="-276.5" font-family="Helvetica,sans-Serif" font-size="10.00">uint32_t</text>
</a>
</g>
</g>
<!-- Node10&#45;&gt;Node1 -->
<g id="edge20" class="edge"><title>Node10&#45;&gt;Node1</title>
<path fill="none" stroke="#9a32cd" stroke-dasharray="5,2" d="M652.935,-259.365C652.039,-246.987 649.834,-230.579 644.5,-217 609.211,-127.155 601.579,-91.8977 521.5,-38 497.831,-22.0694 466.33,-15.3643 441.133,-12.6188"/>
<polygon fill="#9a32cd" stroke="#9a32cd" points="649.442,-259.591 653.443,-269.402 656.433,-259.238 649.442,-259.591"/>
<text text-anchor="middle" x="650" y="-141.5" font-family="Helvetica,sans-Serif" font-size="10.00"> flags</text>
</g>
<!-- Node10&#45;&gt;Node7 -->
<g id="edge13" class="edge"><title>Node10&#45;&gt;Node7</title>
<path fill="none" stroke="#9a32cd" stroke-dasharray="5,2" d="M633.624,-263.164C628.769,-259.137 623.752,-254.608 619.5,-250 607.376,-236.862 609.497,-229.276 596.5,-217 566.33,-188.504 523.121,-165.482 498.536,-153.658"/>
<polygon fill="#9a32cd" stroke="#9a32cd" points="631.469,-265.922 641.478,-269.395 635.819,-260.438 631.469,-265.922"/>
<text text-anchor="middle" x="632" y="-231" font-family="Helvetica,sans-Serif" font-size="10.00"> flags</text>
</g>
<!-- Node11 -->
<g id="node11" class="node"><title>Node11</title>
<g id="a_node11"><a xlink:title=" ">
<polygon fill="white" stroke="#bfbfbf" points="555.5,-269.5 555.5,-288.5 601.5,-288.5 601.5,-269.5 555.5,-269.5"/>
<text text-anchor="middle" x="578.5" y="-276.5" font-family="Helvetica,sans-Serif" font-size="10.00">uint8_t</text>
</a>
</g>
</g>
<!-- Node11&#45;&gt;Node7 -->
<g id="edge14" class="edge"><title>Node11&#45;&gt;Node7</title>
<path fill="none" stroke="#9a32cd" stroke-dasharray="5,2" d="M565.773,-261.228C563.021,-257.547 560.144,-253.656 557.5,-250 547.024,-235.513 545.04,-231.44 534.5,-217 517.622,-193.876 496.944,-167.24 486.399,-153.774"/>
<polygon fill="#9a32cd" stroke="#9a32cd" points="562.988,-263.349 571.8,-269.231 568.58,-259.137 562.988,-263.349"/>
<text text-anchor="middle" x="577" y="-231" font-family="Helvetica,sans-Serif" font-size="10.00"> refcount</text>
</g>
<!-- Node12&#45;&gt;Node1 -->
<g id="edge15" class="edge"><title>Node12&#45;&gt;Node1</title>
<path fill="none" stroke="#9a32cd" stroke-dasharray="5,2" d="M192.761,-126.01C209.313,-102.446 242.504,-60.2392 281.5,-38 304.136,-25.091 332.561,-18.3511 355.726,-14.8336"/>
<polygon fill="#9a32cd" stroke="#9a32cd" points="189.835,-124.089 187.075,-134.318 195.611,-128.042 189.835,-124.089"/>
<text text-anchor="middle" x="294" y="-52" font-family="Helvetica,sans-Serif" font-size="10.00"> team</text>
</g>
<!-- Node13 -->
<g id="node13" class="node"><title>Node13</title>
<g id="a_node13"><a xlink:title=" ">
<polygon fill="white" stroke="#bfbfbf" points="95.5,-269.5 95.5,-288.5 145.5,-288.5 145.5,-269.5 95.5,-269.5"/>
<text text-anchor="middle" x="120.5" y="-276.5" font-family="Helvetica,sans-Serif" font-size="10.00">vector&lt;</text>
</a>
</g>
</g>
<!-- Node13&#45;&gt;Node12 -->
<g id="edge18" class="edge"><title>Node13&#45;&gt;Node12</title>
<path fill="none" stroke="#9a32cd" stroke-dasharray="5,2" d="M118.483,-259.316C117.843,-246.919 118.361,-230.505 123.5,-217 133.662,-190.297 157.733,-165.919 171.458,-153.542"/>
<polygon fill="#9a32cd" stroke="#9a32cd" points="115.001,-259.69 119.296,-269.375 121.979,-259.125 115.001,-259.69"/>
<text text-anchor="middle" x="145.5" y="-231" font-family="Helvetica,sans-Serif" font-size="10.00"> members</text>
</g>
</g>
</svg>
        <g id="navigator" transform="translate(0 0)" fill="#404254">
                <rect fill="#f2f5e9" fill-opacity="0.5" stroke="#606060" stroke-width=".5" x="0" y="0" width="60" height="60"/>
                <use id="zoomplus" xlink:href="#zoomPlus" x="17" y="9" onmousedown="handleZoom(evt,'in')"/>
                <use id="zoomminus" xlink:href="#zoomMin" x="42" y="9" onmousedown="handleZoom(evt,'out')"/>
                <use id="reset" xlink:href="#resetDef" x="30" y="36" onmousedown="handleReset()"/>
                <g id="arrowUp" xlink:href="#dirArrow" transform="translate(30 24)" onmousedown="handlePan(0,-1)">
                  <use xlink:href="#rim" fill="#404040">
                        <set attributeName="fill" to="#808080" begin="arrowUp.mouseover" end="arrowUp.mouseout"/>
                  </use>
                  <path fill="none" stroke="white" stroke-width="1.5" d="M0,-3.0v7 M-2.5,-0.5L0,-3.0L2.5,-0.5"/>
                </g>
                <g id="arrowRight" xlink:href="#dirArrow" transform="rotate(90) translate(36 -43)" onmousedown="handlePan(1,0)">
                  <use xlink:href="#rim" fill="#404040">
                        <set attributeName="fill" to="#808080" begin="arrowRight.mouseover" end="arrowRight.mouseout"/>
                  </use>
                  <path fill="none" stroke="white" stroke-width="1.5" d="M0,-3.0v7 M-2.5,-0.5L0,-3.0L2.5,-0.5"/>
                </g>
                <g id="arrowDown" xlink:href="#dirArrow" transform="rotate(180) translate(-30 -48)" onmousedown="handlePan(0,1)">
                  <use xlink:href="#rim" fill="#404040">
                        <set attributeName="fill" to="#808080" begin="arrowDown.mouseover" end="arrowDown.mouseout"/>
                  </use>
                  <path fill="none" stroke="white" stroke-width="1.5" d="M0,-3.0v7 M-2.5,-0.5L0,-3.0L2.5,-0.5"/>
                </g>
                <g id="arrowLeft" xlink:href="#dirArrow" transform="rotate(270) translate(-36 17)" onmousedown="handlePan(-1,0)">
                  <use xlink:href="#rim" fill="#404040">
                        <set attributeName="fill" to="#808080" begin="arrowLeft.mouseover" end="arrowLeft.mouseout"/>
                  </use>
                  <path fill="none" stroke="white" stroke-width="1.5" d="M0,-3.0v7 M-2.5,-0.5L0,-3.0L2.5,-0.5"/>
                </g>
        </g>
        <svg viewBox="0 0 15 15" width="100%" height="30px" preserveAspectRatio="xMaxYMin meet">
         <g id="arrow_out" transform="scale(0.3 0.3)">
          <a xlink:href="classdpp_1_1application__coll__graph_org.svg" target="_base">
           <rect id="button" ry="5" rx="5" y="6" x="6" height="38" width="38"
                fill="#f2f5e9" fill-opacity="0.5" stroke="#606060" stroke-width="1.0"/>
           <path id="arrow"
             d="M 11.500037,31.436501 C 11.940474,20.09759 22.043105,11.32322 32.158766,21.979434 L 37.068811,17.246167 C 37.068811,17.246167 37.088388,32 37.088388,32 L 22.160133,31.978069 C 22.160133,31.978069 26.997745,27.140456 26.997745,27.140456 C 18.528582,18.264221 13.291696,25.230495 11.500037,31.436501 z"
             style="fill:#404040;"/>
          </a>
         </g>
        </svg>
</svg>
