<?xml version="1.0" encoding="UTF-8" standalone="no"?>
<!DOCTYPE svg PUBLIC "-//W3C//DTD SVG 1.1//EN"
 "http://www.w3.org/Graphics/SVG/1.1/DTD/svg11.dtd">
<!-- Generated by graphviz version 2.43.0 (0)
 -->
<!-- Title: formatter&lt; std::chrono::time_point&lt; std::chrono::system_clock, Duration &gt;, Char &gt; Pages: 1 -->
<svg width="148pt" height="196pt"
 viewBox="0.00 0.00 148.00 196.00" xmlns="http://www.w3.org/2000/svg" xmlns:xlink="http://www.w3.org/1999/xlink">
<g id="graph0" class="graph" transform="scale(1 1) rotate(0) translate(4 192)">
<title>formatter&lt; std::chrono::time_point&lt; std::chrono::system_clock, Duration &gt;, Char &gt;</title>
<polygon fill="white" stroke="transparent" points="-4,4 -4,-192 144,-192 144,4 -4,4"/>
<!-- Node1 -->
<g id="node1" class="node">
<title>Node1</title>
<g id="a_node1"><a xlink:title=" ">
<polygon fill="#bfbfbf" stroke="black" points="0,-0.5 0,-52.5 140,-52.5 140,-0.5 0,-0.5"/>
<text text-anchor="start" x="8" y="-40.5" font-family="Helvetica,sans-Serif" font-size="10.00">formatter&lt; std::chrono</text>
<text text-anchor="start" x="8" y="-29.5" font-family="Helvetica,sans-Serif" font-size="10.00">::time_point&lt; std::chrono</text>
<text text-anchor="start" x="8" y="-18.5" font-family="Helvetica,sans-Serif" font-size="10.00">::system_clock, Duration</text>
<text text-anchor="middle" x="70" y="-7.5" font-family="Helvetica,sans-Serif" font-size="10.00"> &gt;, Char &gt;</text>
</a>
</g>
</g>
<!-- Node2 -->
<g id="node2" class="node">
<title>Node2</title>
<g id="a_node2"><a xlink:href="structformatter_3_01std_1_1tm_00_01_char_01_4.html" target="_top" xlink:title=" ">
<polygon fill="white" stroke="black" points="14,-90.5 14,-120.5 126,-120.5 126,-90.5 14,-90.5"/>
<text text-anchor="start" x="22" y="-108.5" font-family="Helvetica,sans-Serif" font-size="10.00">formatter&lt; std::tm,</text>
<text text-anchor="middle" x="70" y="-97.5" font-family="Helvetica,sans-Serif" font-size="10.00"> Char &gt;</text>
</a>
</g>
</g>
<!-- Node2&#45;&gt;Node1 -->
<g id="edge1" class="edge">
<title>Node2&#45;&gt;Node1</title>
<path fill="none" stroke="midnightblue" d="M70,-80.09C70,-71.38 70,-61.54 70,-52.75"/>
<polygon fill="midnightblue" stroke="midnightblue" points="66.5,-80.38 70,-90.38 73.5,-80.38 66.5,-80.38"/>
</g>
<!-- Node3 -->
<g id="node3" class="node">
<title>Node3</title>
<g id="a_node3"><a xlink:title=" ">
<polygon fill="white" stroke="#bfbfbf" points="14,-168.5 14,-187.5 126,-187.5 126,-168.5 14,-168.5"/>
<text text-anchor="middle" x="70" y="-175.5" font-family="Helvetica,sans-Serif" font-size="10.00">basic_string_view&lt;</text>
</a>
</g>
</g>
<!-- Node3&#45;&gt;Node2 -->
<g id="edge2" class="edge">
<title>Node3&#45;&gt;Node2</title>
<path fill="none" stroke="#9a32cd" stroke-dasharray="5,2" d="M70,-158.24C70,-146.41 70,-131.38 70,-120.58"/>
<polygon fill="#9a32cd" stroke="#9a32cd" points="66.5,-158.36 70,-168.36 73.5,-158.36 66.5,-158.36"/>
<text text-anchor="middle" x="85.5" y="-142" font-family="Helvetica,sans-Serif" font-size="10.00"> specs</text>
</g>
</g>
</svg>
