<?xml version="1.0" encoding="UTF-8" standalone="no"?>
<!DOCTYPE svg PUBLIC "-//W3C//DTD SVG 1.1//EN"
 "http://www.w3.org/Graphics/SVG/1.1/DTD/svg11.dtd">
<!-- Generated by graphviz version 2.43.0 (0)
 -->
<!-- Title: dpp::command_resolved Pages: 1 -->
<svg width="183pt" height="161pt"
 viewBox="0.00 0.00 182.50 161.00" xmlns="http://www.w3.org/2000/svg" xmlns:xlink="http://www.w3.org/1999/xlink">
<g id="graph0" class="graph" transform="scale(1 1) rotate(0) translate(4 157)">
<title>dpp::command_resolved</title>
<polygon fill="white" stroke="transparent" points="-4,4 -4,-157 178.5,-157 178.5,4 -4,4"/>
<!-- Node1 -->
<g id="node1" class="node">
<title>Node1</title>
<g id="a_node1"><a xlink:title="Resolved snowflake ids to users, guild members, roles and channels.">
<polygon fill="#bfbfbf" stroke="black" points="0,-0.5 0,-19.5 137,-19.5 137,-0.5 0,-0.5"/>
<text text-anchor="middle" x="68.5" y="-7.5" font-family="Helvetica,sans-Serif" font-size="10.00">dpp::command_resolved</text>
</a>
</g>
</g>
<!-- Node2 -->
<g id="node2" class="node">
<title>Node2</title>
<g id="a_node2"><a xlink:title=" ">
<polygon fill="white" stroke="#bfbfbf" points="45,-133.5 45,-152.5 92,-152.5 92,-133.5 45,-133.5"/>
<text text-anchor="middle" x="68.5" y="-140.5" font-family="Helvetica,sans-Serif" font-size="10.00">map&lt;</text>
</a>
</g>
</g>
<!-- Node2&#45;&gt;Node1 -->
<g id="edge1" class="edge">
<title>Node2&#45;&gt;Node1</title>
<path fill="none" stroke="#9a32cd" stroke-dasharray="5,2" d="M68.5,-123.09C68.5,-94.36 68.5,-40.82 68.5,-19.8"/>
<polygon fill="#9a32cd" stroke="#9a32cd" points="65,-123.4 68.5,-133.4 72,-123.4 65,-123.4"/>
<text text-anchor="middle" x="121.5" y="-107" font-family="Helvetica,sans-Serif" font-size="10.00"> attachments</text>
<text text-anchor="middle" x="121.5" y="-96" font-family="Helvetica,sans-Serif" font-size="10.00">channels</text>
<text text-anchor="middle" x="121.5" y="-85" font-family="Helvetica,sans-Serif" font-size="10.00">member_permissions</text>
<text text-anchor="middle" x="121.5" y="-74" font-family="Helvetica,sans-Serif" font-size="10.00">members</text>
<text text-anchor="middle" x="121.5" y="-63" font-family="Helvetica,sans-Serif" font-size="10.00">messages</text>
<text text-anchor="middle" x="121.5" y="-52" font-family="Helvetica,sans-Serif" font-size="10.00">roles</text>
<text text-anchor="middle" x="121.5" y="-41" font-family="Helvetica,sans-Serif" font-size="10.00">users</text>
</g>
</g>
</svg>
