<?xml version="1.0" encoding="UTF-8" standalone="no"?>
<!DOCTYPE svg PUBLIC "-//W3C//DTD SVG 1.1//EN"
 "http://www.w3.org/Graphics/SVG/1.1/DTD/svg11.dtd">
<!-- Generated by graphviz version 2.43.0 (0)
 -->
<!-- Title: dpp::resumed_t Pages: 1 -->
<svg width="1480pt" height="985pt"
 viewBox="0.00 0.00 1480.00 985.00" xmlns="http://www.w3.org/2000/svg" xmlns:xlink="http://www.w3.org/1999/xlink">
<g id="graph0" class="graph" transform="scale(1 1) rotate(0) translate(4 981)">
<title>dpp::resumed_t</title>
<!-- Node1 -->
<g id="node1" class="node">
<title>Node1</title>
<g id="a_node1"><a xlink:title="Session resumed.">
<polygon fill="#bfbfbf" stroke="black" points="1380,-48.5 1380,-67.5 1472,-67.5 1472,-48.5 1380,-48.5"/>
<text text-anchor="middle" x="1426" y="-55.5" font-family="Helvetica,sans-Serif" font-size="10.00">dpp::resumed_t</text>
</a>
</g>
</g>
<!-- Node2 -->
<g id="node2" class="node">
<title>Node2</title>
<g id="a_node2"><a xlink:href="structdpp_1_1event__dispatch__t.html" target="_top" xlink:title="Base event parameter struct. Each event you receive from the library will have its parameter derived ...">
<polygon fill="none" stroke="black" points="1219,-86.5 1219,-105.5 1343,-105.5 1343,-86.5 1219,-86.5"/>
<text text-anchor="middle" x="1281" y="-93.5" font-family="Helvetica,sans-Serif" font-size="10.00">dpp::event_dispatch_t</text>
</a>
</g>
</g>
<!-- Node2&#45;&gt;Node1 -->
<g id="edge1" class="edge">
<title>Node2&#45;&gt;Node1</title>
<path fill="none" stroke="midnightblue" d="M1327.81,-83.83C1347.59,-78.57 1370.38,-72.51 1388.93,-67.59"/>
<polygon fill="midnightblue" stroke="midnightblue" points="1326.85,-80.46 1318.08,-86.41 1328.65,-87.23 1326.85,-80.46"/>
</g>
<!-- Node3 -->
<g id="node3" class="node">
<title>Node3</title>
<g id="a_node3"><a xlink:title=" ">
<polygon fill="none" stroke="#bfbfbf" points="212,-81.5 212,-100.5 277,-100.5 277,-81.5 212,-81.5"/>
<text text-anchor="middle" x="244.5" y="-88.5" font-family="Helvetica,sans-Serif" font-size="10.00">std::string</text>
</a>
</g>
</g>
<!-- Node3&#45;&gt;Node1 -->
<g id="edge45" class="edge">
<title>Node3&#45;&gt;Node1</title>
<path fill="none" stroke="#9a32cd" stroke-dasharray="5,2" d="M271.6,-76.67C320.79,-51.04 431.26,0 531,0 531,0 531,0 1282,0 1332.9,0 1387.02,-31.95 1411.54,-48.42"/>
<polygon fill="#9a32cd" stroke="#9a32cd" points="269.8,-73.66 262.6,-81.43 273.07,-79.85 269.8,-73.66"/>
<text text-anchor="middle" x="961.5" y="-3" font-family="Helvetica,sans-Serif" font-size="10.00"> session_id</text>
</g>
<!-- Node3&#45;&gt;Node2 -->
<g id="edge2" class="edge">
<title>Node3&#45;&gt;Node2</title>
<path fill="none" stroke="#9a32cd" stroke-dasharray="5,2" d="M287.27,-81.3C301.39,-78.41 317.31,-75.6 332,-74 640.45,-40.37 720.47,-39.44 1030,-61 1098.64,-65.78 1177.12,-77.86 1227.55,-86.49"/>
<polygon fill="#9a32cd" stroke="#9a32cd" points="286.4,-77.9 277.34,-83.39 287.85,-84.75 286.4,-77.9"/>
<text text-anchor="middle" x="812.5" y="-55" font-family="Helvetica,sans-Serif" font-size="10.00"> raw_event</text>
</g>
<!-- Node5 -->
<g id="node5" class="node">
<title>Node5</title>
<g id="a_node5"><a xlink:href="classdpp_1_1discord__client.html" target="_top" xlink:title="Implements a discord client. Each discord_client connects to one shard and derives from a websocket c...">
<polygon fill="none" stroke="black" points="1048,-584.5 1048,-603.5 1156,-603.5 1156,-584.5 1048,-584.5"/>
<text text-anchor="middle" x="1102" y="-591.5" font-family="Helvetica,sans-Serif" font-size="10.00">dpp::discord_client</text>
</a>
</g>
</g>
<!-- Node3&#45;&gt;Node5 -->
<g id="edge40" class="edge">
<title>Node3&#45;&gt;Node5</title>
<path fill="none" stroke="#9a32cd" stroke-dasharray="5,2" d="M287.34,-87.31C390.07,-78.87 652.18,-61.32 732,-94 902.74,-163.91 931.58,-226.94 1030,-383 1074.12,-452.96 1094.09,-553.4 1099.46,-584.47"/>
<polygon fill="#9a32cd" stroke="#9a32cd" points="287.01,-83.83 277.33,-88.14 287.59,-90.8 287.01,-83.83"/>
<text text-anchor="middle" x="671.5" y="-108" font-family="Helvetica,sans-Serif" font-size="10.00"> sessionid</text>
<text text-anchor="middle" x="671.5" y="-97" font-family="Helvetica,sans-Serif" font-size="10.00">token</text>
</g>
<!-- Node7 -->
<g id="node7" class="node">
<title>Node7</title>
<g id="a_node7"><a xlink:href="classdpp_1_1ssl__client.html" target="_top" xlink:title="Implements a simple non&#45;blocking SSL stream client.">
<polygon fill="none" stroke="black" points="489,-774.5 489,-793.5 575,-793.5 575,-774.5 489,-774.5"/>
<text text-anchor="middle" x="532" y="-781.5" font-family="Helvetica,sans-Serif" font-size="10.00">dpp::ssl_client</text>
</a>
</g>
</g>
<!-- Node3&#45;&gt;Node7 -->
<g id="edge7" class="edge">
<title>Node3&#45;&gt;Node7</title>
<path fill="none" stroke="#9a32cd" stroke-dasharray="5,2" d="M273.18,-105.99C288.02,-115.61 305.06,-129.57 314,-147 343.17,-203.86 310.65,-373.77 332,-434 362.98,-521.41 418.23,-518.03 453,-604 473.06,-653.59 447.08,-675.16 471,-723 481.89,-744.79 503.45,-763.7 517.54,-774.47"/>
<polygon fill="#9a32cd" stroke="#9a32cd" points="274.67,-102.79 264.32,-100.56 271.02,-108.77 274.67,-102.79"/>
<text text-anchor="middle" x="392.5" y="-651" font-family="Helvetica,sans-Serif" font-size="10.00"> buffer</text>
<text text-anchor="middle" x="392.5" y="-640" font-family="Helvetica,sans-Serif" font-size="10.00">cipher</text>
<text text-anchor="middle" x="392.5" y="-629" font-family="Helvetica,sans-Serif" font-size="10.00">hostname</text>
<text text-anchor="middle" x="392.5" y="-618" font-family="Helvetica,sans-Serif" font-size="10.00">obuffer</text>
<text text-anchor="middle" x="392.5" y="-607" font-family="Helvetica,sans-Serif" font-size="10.00">port</text>
</g>
<!-- Node17 -->
<g id="node17" class="node">
<title>Node17</title>
<g id="a_node17"><a xlink:href="classdpp_1_1cluster.html" target="_top" xlink:title="The cluster class represents a group of shards and a command queue for sending and receiving commands...">
<polygon fill="none" stroke="black" points="775.5,-372.5 775.5,-391.5 849.5,-391.5 849.5,-372.5 775.5,-372.5"/>
<text text-anchor="middle" x="812.5" y="-379.5" font-family="Helvetica,sans-Serif" font-size="10.00">dpp::cluster</text>
</a>
</g>
</g>
<!-- Node3&#45;&gt;Node17 -->
<g id="edge19" class="edge">
<title>Node3&#45;&gt;Node17</title>
<path fill="none" stroke="#9a32cd" stroke-dasharray="5,2" d="M287.39,-91.49C392.62,-93.56 664.49,-104.29 732,-160 800.52,-216.54 810,-336.74 811.3,-372.05"/>
<polygon fill="#9a32cd" stroke="#9a32cd" points="287.21,-87.99 277.15,-91.31 287.09,-94.99 287.21,-87.99"/>
<text text-anchor="middle" x="532" y="-118" font-family="Helvetica,sans-Serif" font-size="10.00"> token</text>
</g>
<!-- Node20 -->
<g id="node20" class="node">
<title>Node20</title>
<g id="a_node20"><a xlink:href="classdpp_1_1user.html" target="_top" xlink:title="Represents a user on discord. May or may not be a member of a dpp::guild.">
<polygon fill="none" stroke="black" points="501,-169.5 501,-188.5 563,-188.5 563,-169.5 501,-169.5"/>
<text text-anchor="middle" x="532" y="-176.5" font-family="Helvetica,sans-Serif" font-size="10.00">dpp::user</text>
</a>
</g>
</g>
<!-- Node3&#45;&gt;Node20 -->
<g id="edge26" class="edge">
<title>Node3&#45;&gt;Node20</title>
<path fill="none" stroke="#9a32cd" stroke-dasharray="5,2" d="M287.15,-102.62C329.18,-114.49 395.84,-133.72 453,-152 470.2,-157.5 489.36,-164.13 504.39,-169.44"/>
<polygon fill="#9a32cd" stroke="#9a32cd" points="287.86,-99.18 277.28,-99.84 285.96,-105.92 287.86,-99.18"/>
<text text-anchor="middle" x="392.5" y="-155" font-family="Helvetica,sans-Serif" font-size="10.00"> username</text>
</g>
<!-- Node4 -->
<g id="node4" class="node">
<title>Node4</title>
<g id="a_node4"><a xlink:title=" ">
<polygon fill="none" stroke="#bfbfbf" points="0,-76 0,-106 104,-106 104,-76 0,-76"/>
<text text-anchor="start" x="8" y="-94" font-family="Helvetica,sans-Serif" font-size="10.00">std::basic_string&lt;</text>
<text text-anchor="middle" x="52" y="-83" font-family="Helvetica,sans-Serif" font-size="10.00"> Char &gt;</text>
</a>
</g>
</g>
<!-- Node4&#45;&gt;Node3 -->
<g id="edge3" class="edge">
<title>Node4&#45;&gt;Node3</title>
<path fill="none" stroke="midnightblue" d="M114.35,-91C146.8,-91 185.28,-91 211.75,-91"/>
<polygon fill="midnightblue" stroke="midnightblue" points="114.05,-87.5 104.05,-91 114.05,-94.5 114.05,-87.5"/>
</g>
<!-- Node5&#45;&gt;Node2 -->
<g id="edge4" class="edge">
<title>Node5&#45;&gt;Node2</title>
<path fill="none" stroke="#9a32cd" stroke-dasharray="5,2" d="M1109.8,-574.86C1139.25,-492.01 1255.17,-165.87 1276.59,-105.6"/>
<polygon fill="#9a32cd" stroke="#9a32cd" points="1106.43,-573.9 1106.38,-584.5 1113.02,-576.25 1106.43,-573.9"/>
<text text-anchor="middle" x="1187.5" y="-392" font-family="Helvetica,sans-Serif" font-size="10.00"> from</text>
</g>
<!-- Node6 -->
<g id="node6" class="node">
<title>Node6</title>
<g id="a_node6"><a xlink:href="classdpp_1_1websocket__client.html" target="_top" xlink:title="Implements a websocket client based on the SSL client.">
<polygon fill="none" stroke="black" points="750,-774.5 750,-793.5 875,-793.5 875,-774.5 750,-774.5"/>
<text text-anchor="middle" x="812.5" y="-781.5" font-family="Helvetica,sans-Serif" font-size="10.00">dpp::websocket_client</text>
</a>
</g>
</g>
<!-- Node6&#45;&gt;Node5 -->
<g id="edge5" class="edge">
<title>Node6&#45;&gt;Node5</title>
<path fill="none" stroke="midnightblue" d="M885.14,-792.95C930.82,-794.8 988.94,-789.55 1030,-759 1082.79,-719.72 1096.79,-633.1 1100.08,-603.86"/>
<polygon fill="midnightblue" stroke="midnightblue" points="885.17,-789.45 875,-792.42 884.8,-796.44 885.17,-789.45"/>
</g>
<!-- Node7&#45;&gt;Node6 -->
<g id="edge6" class="edge">
<title>Node7&#45;&gt;Node6</title>
<path fill="none" stroke="midnightblue" d="M585.51,-784C632.24,-784 700.62,-784 749.91,-784"/>
<polygon fill="midnightblue" stroke="midnightblue" points="585.3,-780.5 575.3,-784 585.3,-787.5 585.3,-780.5"/>
</g>
<!-- Node8 -->
<g id="node8" class="node">
<title>Node8</title>
<g id="a_node8"><a xlink:title=" ">
<polygon fill="none" stroke="#bfbfbf" points="225.5,-942.5 225.5,-961.5 263.5,-961.5 263.5,-942.5 225.5,-942.5"/>
<text text-anchor="middle" x="244.5" y="-949.5" font-family="Helvetica,sans-Serif" font-size="10.00">bool</text>
</a>
</g>
</g>
<!-- Node8&#45;&gt;Node5 -->
<g id="edge17" class="edge">
<title>Node8&#45;&gt;Node5</title>
<path fill="none" stroke="#9a32cd" stroke-dasharray="5,2" d="M273.78,-955.6C386.15,-968.24 805.9,-999.14 1030,-790 1086.62,-737.16 1098.19,-635.7 1100.47,-603.83"/>
<polygon fill="#9a32cd" stroke="#9a32cd" points="273.93,-952.1 263.59,-954.41 273.12,-959.05 273.93,-952.1"/>
<text text-anchor="middle" x="671.5" y="-969" font-family="Helvetica,sans-Serif" font-size="10.00"> ready</text>
<text text-anchor="middle" x="671.5" y="-958" font-family="Helvetica,sans-Serif" font-size="10.00">terminating</text>
</g>
<!-- Node8&#45;&gt;Node7 -->
<g id="edge8" class="edge">
<title>Node8&#45;&gt;Node7</title>
<path fill="none" stroke="#9a32cd" stroke-dasharray="5,2" d="M273.51,-945.7C290.43,-941.93 312.43,-937.09 332,-933 385.67,-921.78 407.89,-940.15 453,-909 495.94,-879.35 519.97,-817.58 527.97,-793.71"/>
<polygon fill="#9a32cd" stroke="#9a32cd" points="272.7,-942.29 263.7,-947.89 274.22,-949.12 272.7,-942.29"/>
<text text-anchor="middle" x="392.5" y="-947" font-family="Helvetica,sans-Serif" font-size="10.00"> nonblocking</text>
<text text-anchor="middle" x="392.5" y="-936" font-family="Helvetica,sans-Serif" font-size="10.00">plaintext</text>
</g>
<!-- Node9 -->
<g id="node9" class="node">
<title>Node9</title>
<g id="a_node9"><a xlink:title=" ">
<polygon fill="none" stroke="#bfbfbf" points="230,-888.5 230,-907.5 259,-907.5 259,-888.5 230,-888.5"/>
<text text-anchor="middle" x="244.5" y="-895.5" font-family="Helvetica,sans-Serif" font-size="10.00">int</text>
</a>
</g>
</g>
<!-- Node9&#45;&gt;Node7 -->
<g id="edge9" class="edge">
<title>Node9&#45;&gt;Node7</title>
<path fill="none" stroke="#9a32cd" stroke-dasharray="5,2" d="M269.32,-897.39C316.85,-895.84 421.61,-890.58 453,-874 488.65,-855.17 515.25,-812.81 525.9,-793.69"/>
<polygon fill="#9a32cd" stroke="#9a32cd" points="268.95,-893.9 259.06,-897.7 269.16,-900.9 268.95,-893.9"/>
<text text-anchor="middle" x="392.5" y="-897" font-family="Helvetica,sans-Serif" font-size="10.00"> sfd</text>
</g>
<!-- Node10 -->
<g id="node10" class="node">
<title>Node10</title>
<g id="a_node10"><a xlink:href="classdpp_1_1opensslcontext.html" target="_top" xlink:title="This is an opaque class containing openssl library specific structures. We define it this way so that...">
<polygon fill="none" stroke="black" points="187,-850.5 187,-869.5 302,-869.5 302,-850.5 187,-850.5"/>
<text text-anchor="middle" x="244.5" y="-857.5" font-family="Helvetica,sans-Serif" font-size="10.00">dpp::opensslcontext</text>
</a>
</g>
</g>
<!-- Node10&#45;&gt;Node7 -->
<g id="edge10" class="edge">
<title>Node10&#45;&gt;Node7</title>
<path fill="none" stroke="#9a32cd" stroke-dasharray="5,2" d="M312.26,-860.72C353.89,-859.21 407.92,-853.64 453,-837 479.72,-827.14 506.15,-806.2 520.34,-793.79"/>
<polygon fill="#9a32cd" stroke="#9a32cd" points="312.12,-857.22 302.23,-861.01 312.33,-864.22 312.12,-857.22"/>
<text text-anchor="middle" x="392.5" y="-862" font-family="Helvetica,sans-Serif" font-size="10.00"> ssl</text>
</g>
<!-- Node11 -->
<g id="node11" class="node">
<title>Node11</title>
<g id="a_node11"><a xlink:title=" ">
<polygon fill="none" stroke="#bfbfbf" points="31,-869.5 31,-888.5 73,-888.5 73,-869.5 31,-869.5"/>
<text text-anchor="middle" x="52" y="-876.5" font-family="Helvetica,sans-Serif" font-size="10.00">SSL *</text>
</a>
</g>
</g>
<!-- Node11&#45;&gt;Node10 -->
<g id="edge11" class="edge">
<title>Node11&#45;&gt;Node10</title>
<path fill="none" stroke="#9a32cd" stroke-dasharray="5,2" d="M83.27,-875.98C111,-873.22 152.76,-869.05 186.69,-865.67"/>
<polygon fill="#9a32cd" stroke="#9a32cd" points="82.63,-872.53 73.03,-877 83.32,-879.49 82.63,-872.53"/>
<text text-anchor="middle" x="139.5" y="-874" font-family="Helvetica,sans-Serif" font-size="10.00"> ssl</text>
</g>
<!-- Node12 -->
<g id="node12" class="node">
<title>Node12</title>
<g id="a_node12"><a xlink:title=" ">
<polygon fill="none" stroke="#bfbfbf" points="18.5,-831.5 18.5,-850.5 85.5,-850.5 85.5,-831.5 18.5,-831.5"/>
<text text-anchor="middle" x="52" y="-838.5" font-family="Helvetica,sans-Serif" font-size="10.00">SSL_CTX *</text>
</a>
</g>
</g>
<!-- Node12&#45;&gt;Node10 -->
<g id="edge12" class="edge">
<title>Node12&#45;&gt;Node10</title>
<path fill="none" stroke="#9a32cd" stroke-dasharray="5,2" d="M96,-845.29C122.89,-847.97 157.83,-851.46 186.95,-854.36"/>
<polygon fill="#9a32cd" stroke="#9a32cd" points="96.05,-841.78 85.75,-844.27 95.35,-848.74 96.05,-841.78"/>
<text text-anchor="middle" x="139.5" y="-854" font-family="Helvetica,sans-Serif" font-size="10.00"> ctx</text>
</g>
<!-- Node13 -->
<g id="node13" class="node">
<title>Node13</title>
<g id="a_node13"><a xlink:title=" ">
<polygon fill="none" stroke="#bfbfbf" points="220.5,-639.5 220.5,-658.5 268.5,-658.5 268.5,-639.5 220.5,-639.5"/>
<text text-anchor="middle" x="244.5" y="-646.5" font-family="Helvetica,sans-Serif" font-size="10.00">time_t</text>
</a>
</g>
</g>
<!-- Node13&#45;&gt;Node5 -->
<g id="edge37" class="edge">
<title>Node13&#45;&gt;Node5</title>
<path fill="none" stroke="#9a32cd" stroke-dasharray="5,2" d="M278.68,-650.01C372.38,-652.66 647.05,-659.08 875,-651 944.02,-648.55 964.51,-661.91 1030,-640 1053.4,-632.17 1076.66,-614.81 1089.89,-603.79"/>
<polygon fill="#9a32cd" stroke="#9a32cd" points="278.76,-646.51 268.66,-649.72 278.56,-653.5 278.76,-646.51"/>
<text text-anchor="middle" x="671.5" y="-668" font-family="Helvetica,sans-Serif" font-size="10.00"> last_heartbeat</text>
<text text-anchor="middle" x="671.5" y="-657" font-family="Helvetica,sans-Serif" font-size="10.00">last_heartbeat_ack</text>
</g>
<!-- Node13&#45;&gt;Node7 -->
<g id="edge13" class="edge">
<title>Node13&#45;&gt;Node7</title>
<path fill="none" stroke="#9a32cd" stroke-dasharray="5,2" d="M278.88,-653.31C321.61,-659.95 396.82,-675.48 453,-708 461.06,-712.66 502.9,-755.16 521.76,-774.49"/>
<polygon fill="#9a32cd" stroke="#9a32cd" points="279.15,-649.81 268.75,-651.81 278.12,-656.74 279.15,-649.81"/>
<text text-anchor="middle" x="392.5" y="-711" font-family="Helvetica,sans-Serif" font-size="10.00"> last_tick</text>
</g>
<!-- Node13&#45;&gt;Node17 -->
<g id="edge20" class="edge">
<title>Node13&#45;&gt;Node17</title>
<path fill="none" stroke="#9a32cd" stroke-dasharray="5,2" d="M248.25,-629.07C254.85,-589.49 275.47,-501.04 332,-458 355.36,-440.22 564.01,-421.6 593,-417 657.12,-406.83 731.81,-394.83 775.16,-387.85"/>
<polygon fill="#9a32cd" stroke="#9a32cd" points="244.78,-628.66 246.72,-639.07 251.7,-629.72 244.78,-628.66"/>
<text text-anchor="middle" x="532" y="-434" font-family="Helvetica,sans-Serif" font-size="10.00"> last_identify</text>
</g>
<!-- Node14 -->
<g id="node14" class="node">
<title>Node14</title>
<g id="a_node14"><a xlink:title=" ">
<polygon fill="none" stroke="#bfbfbf" points="24,-608.5 24,-627.5 80,-627.5 80,-608.5 24,-608.5"/>
<text text-anchor="middle" x="52" y="-615.5" font-family="Helvetica,sans-Serif" font-size="10.00">uint64_t</text>
</a>
</g>
</g>
<!-- Node14&#45;&gt;Node5 -->
<g id="edge39" class="edge">
<title>Node14&#45;&gt;Node5</title>
<path fill="none" stroke="#9a32cd" stroke-dasharray="5,2" d="M81.72,-631.93C106.04,-643.19 142.1,-658.66 175,-668 243.04,-687.31 261.51,-688.2 332,-694 486.77,-706.73 887.45,-721.61 1030,-660 1058.42,-647.71 1082.67,-618.99 1094.06,-603.81"/>
<polygon fill="#9a32cd" stroke="#9a32cd" points="82.92,-628.62 72.38,-627.54 79.94,-634.96 82.92,-628.62"/>
<text text-anchor="middle" x="532" y="-708" font-family="Helvetica,sans-Serif" font-size="10.00"> last_seq</text>
</g>
<!-- Node14&#45;&gt;Node7 -->
<g id="edge14" class="edge">
<title>Node14&#45;&gt;Node7</title>
<path fill="none" stroke="#9a32cd" stroke-dasharray="5,2" d="M63.05,-636.26C74.66,-655.52 95.58,-685.22 122,-701 138.11,-710.62 434.62,-764.25 453,-768 464.65,-770.37 477.27,-772.96 488.9,-775.34"/>
<polygon fill="#9a32cd" stroke="#9a32cd" points="66.03,-634.41 57.99,-627.51 59.97,-637.92 66.03,-634.41"/>
<text text-anchor="middle" x="244.5" y="-755" font-family="Helvetica,sans-Serif" font-size="10.00"> bytes_in</text>
<text text-anchor="middle" x="244.5" y="-744" font-family="Helvetica,sans-Serif" font-size="10.00">bytes_out</text>
</g>
<!-- Node21 -->
<g id="node21" class="node">
<title>Node21</title>
<g id="a_node21"><a xlink:href="classdpp_1_1managed.html" target="_top" xlink:title="The managed class is the base class for various types that can be stored in a cache that are identifi...">
<polygon fill="none" stroke="black" points="201.5,-232.5 201.5,-251.5 287.5,-251.5 287.5,-232.5 201.5,-232.5"/>
<text text-anchor="middle" x="244.5" y="-239.5" font-family="Helvetica,sans-Serif" font-size="10.00">dpp::managed</text>
</a>
</g>
</g>
<!-- Node14&#45;&gt;Node21 -->
<g id="edge25" class="edge">
<title>Node14&#45;&gt;Node21</title>
<path fill="none" stroke="#9a32cd" stroke-dasharray="5,2" d="M59.42,-598.42C83.64,-524.62 168.47,-267.16 175,-261 182.27,-254.14 191.8,-249.72 201.43,-246.88"/>
<polygon fill="#9a32cd" stroke="#9a32cd" points="55.98,-597.68 56.19,-608.27 62.63,-599.86 55.98,-597.68"/>
<text text-anchor="middle" x="139.5" y="-403" font-family="Helvetica,sans-Serif" font-size="10.00"> id</text>
</g>
<!-- Node23 -->
<g id="node23" class="node">
<title>Node23</title>
<g id="a_node23"><a xlink:href="structdpp_1_1utility_1_1iconhash.html" target="_top" xlink:title="Store a 128 bit icon hash (profile picture, server icon etc) as a 128 bit binary value made of two ui...">
<polygon fill="none" stroke="black" points="185.5,-156.5 185.5,-175.5 303.5,-175.5 303.5,-156.5 185.5,-156.5"/>
<text text-anchor="middle" x="244.5" y="-163.5" font-family="Helvetica,sans-Serif" font-size="10.00">dpp::utility::iconhash</text>
</a>
</g>
</g>
<!-- Node14&#45;&gt;Node23 -->
<g id="edge29" class="edge">
<title>Node14&#45;&gt;Node23</title>
<path fill="none" stroke="#9a32cd" stroke-dasharray="5,2" d="M55.01,-598.44C60.81,-545.99 79.95,-398.39 122,-283 138.95,-236.48 136.27,-215.86 175,-185 179.83,-181.15 185.38,-178.09 191.19,-175.64"/>
<polygon fill="#9a32cd" stroke="#9a32cd" points="51.52,-598.08 53.94,-608.4 58.48,-598.83 51.52,-598.08"/>
<text text-anchor="middle" x="139.5" y="-297" font-family="Helvetica,sans-Serif" font-size="10.00"> first</text>
<text text-anchor="middle" x="139.5" y="-286" font-family="Helvetica,sans-Serif" font-size="10.00">second</text>
</g>
<!-- Node15 -->
<g id="node15" class="node">
<title>Node15</title>
<g id="a_node15"><a xlink:title=" ">
<polygon fill="none" stroke="#bfbfbf" points="175,-773.5 175,-792.5 314,-792.5 314,-773.5 175,-773.5"/>
<text text-anchor="middle" x="244.5" y="-780.5" font-family="Helvetica,sans-Serif" font-size="10.00">function&lt; dpp::socket()&gt;</text>
</a>
</g>
</g>
<!-- Node15&#45;&gt;Node7 -->
<g id="edge15" class="edge">
<title>Node15&#45;&gt;Node7</title>
<path fill="none" stroke="#9a32cd" stroke-dasharray="5,2" d="M324.38,-775.4C326.95,-775.25 329.5,-775.12 332,-775 385.72,-772.52 399.31,-771.91 453,-775 464.7,-775.67 477.35,-776.91 488.98,-778.25"/>
<polygon fill="#9a32cd" stroke="#9a32cd" points="324.14,-771.91 314.39,-776.05 324.6,-778.89 324.14,-771.91"/>
<text text-anchor="middle" x="392.5" y="-789" font-family="Helvetica,sans-Serif" font-size="10.00"> custom_readable_fd</text>
<text text-anchor="middle" x="392.5" y="-778" font-family="Helvetica,sans-Serif" font-size="10.00">custom_writeable_fd</text>
</g>
<!-- Node16 -->
<g id="node16" class="node">
<title>Node16</title>
<g id="a_node16"><a xlink:title=" ">
<polygon fill="none" stroke="#bfbfbf" points="192.5,-811.5 192.5,-830.5 296.5,-830.5 296.5,-811.5 192.5,-811.5"/>
<text text-anchor="middle" x="244.5" y="-818.5" font-family="Helvetica,sans-Serif" font-size="10.00">function&lt; void()&gt;</text>
</a>
</g>
</g>
<!-- Node16&#45;&gt;Node7 -->
<g id="edge16" class="edge">
<title>Node16&#45;&gt;Node7</title>
<path fill="none" stroke="#9a32cd" stroke-dasharray="5,2" d="M306.95,-814.71C348.3,-810.27 404.01,-803.91 453,-797 464.69,-795.35 477.33,-793.34 488.96,-791.4"/>
<polygon fill="#9a32cd" stroke="#9a32cd" points="306.33,-811.25 296.76,-815.79 307.07,-818.21 306.33,-811.25"/>
<text text-anchor="middle" x="392.5" y="-825" font-family="Helvetica,sans-Serif" font-size="10.00"> custom_readable_ready</text>
<text text-anchor="middle" x="392.5" y="-814" font-family="Helvetica,sans-Serif" font-size="10.00">custom_writeable_ready</text>
</g>
<!-- Node17&#45;&gt;Node5 -->
<g id="edge18" class="edge">
<title>Node17&#45;&gt;Node5</title>
<path fill="none" stroke="#9a32cd" stroke-dasharray="5,2" d="M859.62,-383.78C907.35,-387.91 981.59,-401.05 1030,-442 1076.48,-481.31 1094.39,-557.75 1099.4,-584.49"/>
<polygon fill="#9a32cd" stroke="#9a32cd" points="859.8,-380.28 849.56,-383.01 859.26,-387.26 859.8,-380.28"/>
<text text-anchor="middle" x="961.5" y="-445" font-family="Helvetica,sans-Serif" font-size="10.00"> creator</text>
</g>
<!-- Node18 -->
<g id="node18" class="node">
<title>Node18</title>
<g id="a_node18"><a xlink:title=" ">
<polygon fill="none" stroke="#bfbfbf" points="216.5,-326.5 216.5,-345.5 272.5,-345.5 272.5,-326.5 216.5,-326.5"/>
<text text-anchor="middle" x="244.5" y="-333.5" font-family="Helvetica,sans-Serif" font-size="10.00">uint32_t</text>
</a>
</g>
</g>
<!-- Node18&#45;&gt;Node1 -->
<g id="edge46" class="edge">
<title>Node18&#45;&gt;Node1</title>
<path fill="none" stroke="#9a32cd" stroke-dasharray="5,2" d="M282.98,-336.04C335.84,-335.29 428.61,-330.8 453,-309 477.92,-286.74 448.09,-260.33 471,-236 509.93,-194.65 550.99,-236.22 593,-198 608.33,-184.06 594.52,-167.55 611,-155 719.36,-72.46 1083.6,-91.92 1219,-77 1274.33,-70.9 1338.18,-65.22 1379.95,-61.69"/>
<polygon fill="#9a32cd" stroke="#9a32cd" points="282.62,-332.54 272.65,-336.14 282.69,-339.54 282.62,-332.54"/>
<text text-anchor="middle" x="961.5" y="-95" font-family="Helvetica,sans-Serif" font-size="10.00"> shard_id</text>
</g>
<!-- Node18&#45;&gt;Node5 -->
<g id="edge36" class="edge">
<title>Node18&#45;&gt;Node5</title>
<path fill="none" stroke="#9a32cd" stroke-dasharray="5,2" d="M281.77,-349.73C293.96,-356.16 306.38,-365.09 314,-377 334.23,-408.63 304.77,-519.14 332,-545 375.81,-586.61 814.72,-570.8 875,-575 934.12,-579.12 1001.83,-584.96 1047.61,-589.08"/>
<polygon fill="#9a32cd" stroke="#9a32cd" points="283.11,-346.49 272.58,-345.29 280.06,-352.79 283.11,-346.49"/>
<text text-anchor="middle" x="671.5" y="-632" font-family="Helvetica,sans-Serif" font-size="10.00"> heartbeat_interval</text>
<text text-anchor="middle" x="671.5" y="-621" font-family="Helvetica,sans-Serif" font-size="10.00">intents</text>
<text text-anchor="middle" x="671.5" y="-610" font-family="Helvetica,sans-Serif" font-size="10.00">max_shards</text>
<text text-anchor="middle" x="671.5" y="-599" font-family="Helvetica,sans-Serif" font-size="10.00">reconnects</text>
<text text-anchor="middle" x="671.5" y="-588" font-family="Helvetica,sans-Serif" font-size="10.00">resumes</text>
<text text-anchor="middle" x="671.5" y="-577" font-family="Helvetica,sans-Serif" font-size="10.00">shard_id</text>
</g>
<!-- Node18&#45;&gt;Node17 -->
<g id="edge21" class="edge">
<title>Node18&#45;&gt;Node17</title>
<path fill="none" stroke="#9a32cd" stroke-dasharray="5,2" d="M282.94,-335.67C369.61,-334.95 577.83,-333.39 593,-335 659.36,-342.06 735.19,-360.85 777.8,-372.42"/>
<polygon fill="#9a32cd" stroke="#9a32cd" points="282.72,-332.18 272.75,-335.76 282.78,-339.18 282.72,-332.18"/>
<text text-anchor="middle" x="532" y="-371" font-family="Helvetica,sans-Serif" font-size="10.00"> cluster_id</text>
<text text-anchor="middle" x="532" y="-360" font-family="Helvetica,sans-Serif" font-size="10.00">intents</text>
<text text-anchor="middle" x="532" y="-349" font-family="Helvetica,sans-Serif" font-size="10.00">maxclusters</text>
<text text-anchor="middle" x="532" y="-338" font-family="Helvetica,sans-Serif" font-size="10.00">numshards</text>
</g>
<!-- Node18&#45;&gt;Node20 -->
<g id="edge30" class="edge">
<title>Node18&#45;&gt;Node20</title>
<path fill="none" stroke="#9a32cd" stroke-dasharray="5,2" d="M273.1,-321.96C289.79,-313.96 311.7,-304.3 332,-298 384.28,-281.78 413.2,-312.59 453,-275 476.98,-252.35 449.31,-227.85 471,-203 478.67,-194.21 490.01,-188.6 500.78,-185.04"/>
<polygon fill="#9a32cd" stroke="#9a32cd" points="271.38,-318.91 263.93,-326.44 274.45,-325.19 271.38,-318.91"/>
<text text-anchor="middle" x="392.5" y="-301" font-family="Helvetica,sans-Serif" font-size="10.00"> flags</text>
</g>
<!-- Node19 -->
<g id="node19" class="node">
<title>Node19</title>
<g id="a_node19"><a xlink:title=" ">
<polygon fill="none" stroke="#bfbfbf" points="507,-473.5 507,-492.5 557,-492.5 557,-473.5 507,-473.5"/>
<text text-anchor="middle" x="532" y="-480.5" font-family="Helvetica,sans-Serif" font-size="10.00">double</text>
</a>
</g>
</g>
<!-- Node19&#45;&gt;Node5 -->
<g id="edge42" class="edge">
<title>Node19&#45;&gt;Node5</title>
<path fill="none" stroke="#9a32cd" stroke-dasharray="5,2" d="M567.01,-476.64C651.07,-462.7 873.11,-436.7 1030,-517 1060.75,-532.74 1084.97,-567.53 1095.41,-584.42"/>
<polygon fill="#9a32cd" stroke="#9a32cd" points="566.27,-473.22 557,-478.36 567.45,-480.12 566.27,-473.22"/>
<text text-anchor="middle" x="812.5" y="-472" font-family="Helvetica,sans-Serif" font-size="10.00"> websocket_ping</text>
</g>
<!-- Node19&#45;&gt;Node17 -->
<g id="edge22" class="edge">
<title>Node19&#45;&gt;Node17</title>
<path fill="none" stroke="#9a32cd" stroke-dasharray="5,2" d="M566.5,-472.17C575.45,-468.6 584.88,-464.19 593,-459 602.27,-453.07 601.2,-447.01 611,-442 659.75,-417.09 679.9,-435.79 732,-419 754.31,-411.81 778.55,-399.88 794.32,-391.52"/>
<polygon fill="#9a32cd" stroke="#9a32cd" points="565.21,-468.92 557.08,-475.71 567.67,-475.47 565.21,-468.92"/>
<text text-anchor="middle" x="671.5" y="-445" font-family="Helvetica,sans-Serif" font-size="10.00"> rest_ping</text>
</g>
<!-- Node20&#45;&gt;Node17 -->
<g id="edge23" class="edge">
<title>Node20&#45;&gt;Node17</title>
<path fill="none" stroke="#9a32cd" stroke-dasharray="5,2" d="M572.91,-167.3C616.11,-157.19 685.08,-148.75 732,-181 798.8,-226.91 809.47,-338.44 811.18,-372.17"/>
<polygon fill="#9a32cd" stroke="#9a32cd" points="571.91,-163.94 563.05,-169.74 573.6,-170.74 571.91,-163.94"/>
<text text-anchor="middle" x="671.5" y="-184" font-family="Helvetica,sans-Serif" font-size="10.00"> me</text>
</g>
<!-- Node21&#45;&gt;Node20 -->
<g id="edge24" class="edge">
<title>Node21&#45;&gt;Node20</title>
<path fill="none" stroke="midnightblue" d="M297.66,-238.13C340.13,-234.05 401.31,-226.05 453,-211 461.41,-208.55 462.93,-206.4 471,-203 482.58,-198.11 495.51,-192.91 506.39,-188.6"/>
<polygon fill="midnightblue" stroke="midnightblue" points="297.18,-234.66 287.55,-239.06 297.83,-241.63 297.18,-234.66"/>
</g>
<!-- Node22 -->
<g id="node22" class="node">
<title>Node22</title>
<g id="a_node22"><a xlink:title=" ">
<polygon fill="none" stroke="#bfbfbf" points="216.5,-270.5 216.5,-289.5 272.5,-289.5 272.5,-270.5 216.5,-270.5"/>
<text text-anchor="middle" x="244.5" y="-277.5" font-family="Helvetica,sans-Serif" font-size="10.00">uint16_t</text>
</a>
</g>
</g>
<!-- Node22&#45;&gt;Node20 -->
<g id="edge27" class="edge">
<title>Node22&#45;&gt;Node20</title>
<path fill="none" stroke="#9a32cd" stroke-dasharray="5,2" d="M282.61,-273.16C340.44,-262.37 446.18,-242.12 453,-237 466.67,-226.73 458.28,-214.43 471,-203 479.43,-195.42 490.54,-190.09 500.92,-186.41"/>
<polygon fill="#9a32cd" stroke="#9a32cd" points="281.94,-269.72 272.75,-274.99 283.22,-276.6 281.94,-269.72"/>
<text text-anchor="middle" x="392.5" y="-267" font-family="Helvetica,sans-Serif" font-size="10.00"> discriminator</text>
</g>
<!-- Node23&#45;&gt;Node20 -->
<g id="edge28" class="edge">
<title>Node23&#45;&gt;Node20</title>
<path fill="none" stroke="#9a32cd" stroke-dasharray="5,2" d="M313.72,-166.3C354.23,-166.82 406.59,-168.07 453,-171 468.76,-172 486.25,-173.73 500.67,-175.33"/>
<polygon fill="#9a32cd" stroke="#9a32cd" points="313.73,-162.8 303.69,-166.19 313.65,-169.8 313.73,-162.8"/>
<text text-anchor="middle" x="392.5" y="-174" font-family="Helvetica,sans-Serif" font-size="10.00"> avatar</text>
</g>
<!-- Node24 -->
<g id="node24" class="node">
<title>Node24</title>
<g id="a_node24"><a xlink:title=" ">
<polygon fill="none" stroke="#bfbfbf" points="219.5,-194.5 219.5,-213.5 269.5,-213.5 269.5,-194.5 219.5,-194.5"/>
<text text-anchor="middle" x="244.5" y="-201.5" font-family="Helvetica,sans-Serif" font-size="10.00">uint8_t</text>
</a>
</g>
</g>
<!-- Node24&#45;&gt;Node20 -->
<g id="edge31" class="edge">
<title>Node24&#45;&gt;Node20</title>
<path fill="none" stroke="#9a32cd" stroke-dasharray="5,2" d="M280.04,-200.98C336.43,-196.04 447.34,-186.33 500.79,-181.65"/>
<polygon fill="#9a32cd" stroke="#9a32cd" points="279.5,-197.51 269.84,-201.87 280.11,-204.48 279.5,-197.51"/>
<text text-anchor="middle" x="392.5" y="-199" font-family="Helvetica,sans-Serif" font-size="10.00"> refcount</text>
</g>
<!-- Node25 -->
<g id="node25" class="node">
<title>Node25</title>
<g id="a_node25"><a xlink:href="structdpp_1_1cache__policy__t.html" target="_top" xlink:title="Represents the caching policy of the cluster.">
<polygon fill="none" stroke="black" points="475.5,-388.5 475.5,-407.5 588.5,-407.5 588.5,-388.5 475.5,-388.5"/>
<text text-anchor="middle" x="532" y="-395.5" font-family="Helvetica,sans-Serif" font-size="10.00">dpp::cache_policy_t</text>
</a>
</g>
</g>
<!-- Node25&#45;&gt;Node17 -->
<g id="edge32" class="edge">
<title>Node25&#45;&gt;Node17</title>
<path fill="none" stroke="#9a32cd" stroke-dasharray="5,2" d="M584.91,-386.63C593.58,-385.13 602.52,-383.83 611,-383 668.16,-377.41 734.93,-378.61 775.18,-380.17"/>
<polygon fill="#9a32cd" stroke="#9a32cd" points="584.1,-383.22 574.89,-388.47 585.36,-390.11 584.1,-383.22"/>
<text text-anchor="middle" x="671.5" y="-386" font-family="Helvetica,sans-Serif" font-size="10.00"> cache_policy</text>
</g>
<!-- Node26 -->
<g id="node26" class="node">
<title>Node26</title>
<g id="a_node26"><a xlink:title=" ">
<polygon fill="none" stroke="#bfbfbf" points="180.5,-386.5 180.5,-405.5 308.5,-405.5 308.5,-386.5 180.5,-386.5"/>
<text text-anchor="middle" x="244.5" y="-393.5" font-family="Helvetica,sans-Serif" font-size="10.00">cache_policy_setting_t</text>
</a>
</g>
</g>
<!-- Node26&#45;&gt;Node25 -->
<g id="edge33" class="edge">
<title>Node26&#45;&gt;Node25</title>
<path fill="none" stroke="#9a32cd" stroke-dasharray="5,2" d="M318.74,-396.21C358.47,-396.36 408.43,-396.61 453,-397 460.18,-397.06 467.73,-397.14 475.18,-397.23"/>
<polygon fill="#9a32cd" stroke="#9a32cd" points="318.63,-392.71 308.61,-396.17 318.6,-399.71 318.63,-392.71"/>
<text text-anchor="middle" x="392.5" y="-422" font-family="Helvetica,sans-Serif" font-size="10.00"> emoji_policy</text>
<text text-anchor="middle" x="392.5" y="-411" font-family="Helvetica,sans-Serif" font-size="10.00">role_policy</text>
<text text-anchor="middle" x="392.5" y="-400" font-family="Helvetica,sans-Serif" font-size="10.00">user_policy</text>
</g>
<!-- Node27 -->
<g id="node27" class="node">
<title>Node27</title>
<g id="a_node27"><a xlink:title=" ">
<polygon fill="none" stroke="#bfbfbf" points="471,-511.5 471,-530.5 593,-530.5 593,-511.5 471,-511.5"/>
<text text-anchor="middle" x="532" y="-518.5" font-family="Helvetica,sans-Serif" font-size="10.00">websocket_protocol_t</text>
</a>
</g>
</g>
<!-- Node27&#45;&gt;Node5 -->
<g id="edge43" class="edge">
<title>Node27&#45;&gt;Node5</title>
<path fill="none" stroke="#9a32cd" stroke-dasharray="5,2" d="M603.4,-518.74C721.43,-515.83 953.78,-514.05 1030,-542 1054.96,-551.15 1078.79,-571.89 1091.5,-584.23"/>
<polygon fill="#9a32cd" stroke="#9a32cd" points="603.29,-515.24 593.38,-519 603.47,-522.24 603.29,-515.24"/>
<text text-anchor="middle" x="812.5" y="-523" font-family="Helvetica,sans-Serif" font-size="10.00"> protocol</text>
</g>
<!-- Node27&#45;&gt;Node17 -->
<g id="edge34" class="edge">
<title>Node27&#45;&gt;Node17</title>
<path fill="none" stroke="#9a32cd" stroke-dasharray="5,2" d="M578.67,-508.86C628.87,-495.06 705.87,-472.47 732,-457 762.37,-439.02 790.57,-407.57 803.73,-391.72"/>
<polygon fill="#9a32cd" stroke="#9a32cd" points="577.73,-505.48 569.01,-511.49 579.58,-512.24 577.73,-505.48"/>
<text text-anchor="middle" x="671.5" y="-502" font-family="Helvetica,sans-Serif" font-size="10.00"> ws_mode</text>
</g>
<!-- Node28 -->
<g id="node28" class="node">
<title>Node28</title>
<g id="a_node28"><a xlink:title=" ">
<polygon fill="none" stroke="#bfbfbf" points="484,-245.5 484,-264.5 580,-264.5 580,-245.5 484,-245.5"/>
<text text-anchor="middle" x="532" y="-252.5" font-family="Helvetica,sans-Serif" font-size="10.00">event_router_t&lt;</text>
</a>
</g>
</g>
<!-- Node28&#45;&gt;Node17 -->
<g id="edge35" class="edge">
<title>Node28&#45;&gt;Node17</title>
<path fill="none" stroke="#9a32cd" stroke-dasharray="5,2" d="M572.78,-241.55C579.75,-238.51 586.76,-234.99 593,-231 602.27,-225.07 600.77,-218.07 611,-214 660.97,-194.13 686.56,-185.23 732,-214 790.07,-250.76 806.54,-342.65 810.44,-372.48"/>
<polygon fill="#9a32cd" stroke="#9a32cd" points="571.32,-238.37 563.38,-245.39 573.96,-244.85 571.32,-238.37"/>
<text text-anchor="middle" x="671.5" y="-327" font-family="Helvetica,sans-Serif" font-size="10.00"> on_autocomplete</text>
<text text-anchor="middle" x="671.5" y="-316" font-family="Helvetica,sans-Serif" font-size="10.00">on_button_click</text>
<text text-anchor="middle" x="671.5" y="-305" font-family="Helvetica,sans-Serif" font-size="10.00">on_channel_create</text>
<text text-anchor="middle" x="671.5" y="-294" font-family="Helvetica,sans-Serif" font-size="10.00">on_channel_delete</text>
<text text-anchor="middle" x="671.5" y="-283" font-family="Helvetica,sans-Serif" font-size="10.00">on_channel_pins_update</text>
<text text-anchor="middle" x="671.5" y="-272" font-family="Helvetica,sans-Serif" font-size="10.00">on_channel_update</text>
<text text-anchor="middle" x="671.5" y="-261" font-family="Helvetica,sans-Serif" font-size="10.00">on_form_submit</text>
<text text-anchor="middle" x="671.5" y="-250" font-family="Helvetica,sans-Serif" font-size="10.00">on_guild_ban_add</text>
<text text-anchor="middle" x="671.5" y="-239" font-family="Helvetica,sans-Serif" font-size="10.00">on_guild_ban_remove</text>
<text text-anchor="middle" x="671.5" y="-228" font-family="Helvetica,sans-Serif" font-size="10.00">on_guild_create</text>
<text text-anchor="middle" x="671.5" y="-217" font-family="Helvetica,sans-Serif" font-size="10.00">...</text>
</g>
<!-- Node29 -->
<g id="node29" class="node">
<title>Node29</title>
<g id="a_node29"><a xlink:title=" ">
<polygon fill="none" stroke="#bfbfbf" points="756,-736.5 756,-755.5 869,-755.5 869,-736.5 756,-736.5"/>
<text text-anchor="middle" x="812.5" y="-743.5" font-family="Helvetica,sans-Serif" font-size="10.00">native_handle_type</text>
</a>
</g>
</g>
<!-- Node29&#45;&gt;Node5 -->
<g id="edge38" class="edge">
<title>Node29&#45;&gt;Node5</title>
<path fill="none" stroke="#9a32cd" stroke-dasharray="5,2" d="M879.36,-745.24C933.83,-743.43 1006.01,-737.97 1030,-722 1073.36,-693.13 1092.81,-628.42 1098.83,-603.78"/>
<polygon fill="#9a32cd" stroke="#9a32cd" points="878.96,-741.75 869.06,-745.54 879.16,-748.74 878.96,-741.75"/>
<text text-anchor="middle" x="961.5" y="-747" font-family="Helvetica,sans-Serif" font-size="10.00"> thread_id</text>
</g>
<!-- Node30 -->
<g id="node30" class="node">
<title>Node30</title>
<g id="a_node30"><a xlink:title=" ">
<polygon fill="none" stroke="#bfbfbf" points="778,-622.5 778,-641.5 847,-641.5 847,-622.5 778,-622.5"/>
<text text-anchor="middle" x="812.5" y="-629.5" font-family="Helvetica,sans-Serif" font-size="10.00">std::mutex</text>
</a>
</g>
</g>
<!-- Node30&#45;&gt;Node5 -->
<g id="edge41" class="edge">
<title>Node30&#45;&gt;Node5</title>
<path fill="none" stroke="#9a32cd" stroke-dasharray="5,2" d="M857.05,-628.69C900.89,-625.05 970.38,-618.44 1030,-609 1039.58,-607.48 1049.82,-605.52 1059.46,-603.52"/>
<polygon fill="#9a32cd" stroke="#9a32cd" points="856.7,-625.21 847.02,-629.51 857.27,-632.19 856.7,-625.21"/>
<text text-anchor="middle" x="961.5" y="-628" font-family="Helvetica,sans-Serif" font-size="10.00"> voice_mutex</text>
</g>
<!-- Node31 -->
<g id="node31" class="node">
<title>Node31</title>
<g id="a_node31"><a xlink:title=" ">
<polygon fill="none" stroke="#bfbfbf" points="762,-584.5 762,-603.5 863,-603.5 863,-584.5 762,-584.5"/>
<text text-anchor="middle" x="812.5" y="-591.5" font-family="Helvetica,sans-Serif" font-size="10.00">unordered_map&lt;</text>
</a>
</g>
</g>
<!-- Node31&#45;&gt;Node5 -->
<g id="edge44" class="edge">
<title>Node31&#45;&gt;Node5</title>
<path fill="none" stroke="#9a32cd" stroke-dasharray="5,2" d="M873.57,-594C925.08,-594 998.59,-594 1047.97,-594"/>
<polygon fill="#9a32cd" stroke="#9a32cd" points="873.25,-590.5 863.25,-594 873.25,-597.5 873.25,-590.5"/>
<text text-anchor="middle" x="961.5" y="-597" font-family="Helvetica,sans-Serif" font-size="10.00"> connecting_voice_channels</text>
</g>
</g>
</svg>
