<?xml version="1.0" encoding="UTF-8" standalone="no"?>
<!DOCTYPE svg PUBLIC "-//W3C//DTD SVG 1.1//EN"
 "http://www.w3.org/Graphics/SVG/1.1/DTD/svg11.dtd">
<!-- Generated by graphviz version 2.43.0 (0)
 -->
<!-- Title: dpp::guild_scheduled_event_delete_t Pages: 1 -->
<svg width="1528pt" height="1228pt"
 viewBox="0.00 0.00 1528.00 1228.00" xmlns="http://www.w3.org/2000/svg" xmlns:xlink="http://www.w3.org/1999/xlink">
<g id="graph0" class="graph" transform="scale(1 1) rotate(0) translate(4 1224)">
<title>dpp::guild_scheduled_event_delete_t</title>
<!-- Node1 -->
<g id="node1" class="node">
<title>Node1</title>
<g id="a_node1"><a xlink:title="Delete scheduled event.">
<polygon fill="#bfbfbf" stroke="black" points="1401,-38 1401,-68 1520,-68 1520,-38 1401,-38"/>
<text text-anchor="start" x="1409" y="-56" font-family="Helvetica,sans-Serif" font-size="10.00">dpp::guild_scheduled</text>
<text text-anchor="middle" x="1460.5" y="-45" font-family="Helvetica,sans-Serif" font-size="10.00">_event_delete_t</text>
</a>
</g>
</g>
<!-- Node2 -->
<g id="node2" class="node">
<title>Node2</title>
<g id="a_node2"><a xlink:href="structdpp_1_1event__dispatch__t.html" target="_top" xlink:title="Base event parameter struct. Each event you receive from the library will have its parameter derived ...">
<polygon fill="none" stroke="black" points="1240,-66.5 1240,-85.5 1364,-85.5 1364,-66.5 1240,-66.5"/>
<text text-anchor="middle" x="1302" y="-73.5" font-family="Helvetica,sans-Serif" font-size="10.00">dpp::event_dispatch_t</text>
</a>
</g>
</g>
<!-- Node2&#45;&gt;Node1 -->
<g id="edge1" class="edge">
<title>Node2&#45;&gt;Node1</title>
<path fill="none" stroke="midnightblue" d="M1374.34,-65.52C1383.2,-64.21 1392.19,-62.89 1400.83,-61.62"/>
<polygon fill="midnightblue" stroke="midnightblue" points="1373.79,-62.06 1364.4,-66.98 1374.81,-68.98 1373.79,-62.06"/>
</g>
<!-- Node3 -->
<g id="node3" class="node">
<title>Node3</title>
<g id="a_node3"><a xlink:title=" ">
<polygon fill="none" stroke="#bfbfbf" points="212,-194.5 212,-213.5 277,-213.5 277,-194.5 212,-194.5"/>
<text text-anchor="middle" x="244.5" y="-201.5" font-family="Helvetica,sans-Serif" font-size="10.00">std::string</text>
</a>
</g>
</g>
<!-- Node3&#45;&gt;Node2 -->
<g id="edge2" class="edge">
<title>Node3&#45;&gt;Node2</title>
<path fill="none" stroke="#9a32cd" stroke-dasharray="5,2" d="M252.37,-184.83C264.12,-154.7 290.84,-96.26 332,-63 404.15,-4.69 438.23,0 531,0 531,0 531,0 970.5,0 1067.09,0 1087.81,-28.58 1182,-50 1206.64,-55.6 1234.21,-61.64 1256.6,-66.49"/>
<polygon fill="#9a32cd" stroke="#9a32cd" points="249.09,-183.63 248.84,-194.22 255.64,-186.09 249.09,-183.63"/>
<text text-anchor="middle" x="820.5" y="-3" font-family="Helvetica,sans-Serif" font-size="10.00"> raw_event</text>
</g>
<!-- Node5 -->
<g id="node5" class="node">
<title>Node5</title>
<g id="a_node5"><a xlink:href="classdpp_1_1discord__client.html" target="_top" xlink:title="Implements a discord client. Each discord_client connects to one shard and derives from a websocket c...">
<polygon fill="none" stroke="black" points="1056,-876.5 1056,-895.5 1164,-895.5 1164,-876.5 1056,-876.5"/>
<text text-anchor="middle" x="1110" y="-883.5" font-family="Helvetica,sans-Serif" font-size="10.00">dpp::discord_client</text>
</a>
</g>
</g>
<!-- Node3&#45;&gt;Node5 -->
<g id="edge37" class="edge">
<title>Node3&#45;&gt;Node5</title>
<path fill="none" stroke="#9a32cd" stroke-dasharray="5,2" d="M265.98,-188.02C283.21,-174.84 308.7,-155.95 332,-141 488.62,-40.52 568.14,24.36 740,-47 913.28,-118.94 955.17,-177.65 1038,-346 1086.63,-444.84 1105.55,-811.09 1108.56,-876.1"/>
<polygon fill="#9a32cd" stroke="#9a32cd" points="263.57,-185.47 257.78,-194.34 267.84,-191.01 263.57,-185.47"/>
<text text-anchor="middle" x="675.5" y="-61" font-family="Helvetica,sans-Serif" font-size="10.00"> sessionid</text>
<text text-anchor="middle" x="675.5" y="-50" font-family="Helvetica,sans-Serif" font-size="10.00">token</text>
</g>
<!-- Node7 -->
<g id="node7" class="node">
<title>Node7</title>
<g id="a_node7"><a xlink:href="classdpp_1_1ssl__client.html" target="_top" xlink:title="Implements a simple non&#45;blocking SSL stream client.">
<polygon fill="none" stroke="black" points="489,-985.5 489,-1004.5 575,-1004.5 575,-985.5 489,-985.5"/>
<text text-anchor="middle" x="532" y="-992.5" font-family="Helvetica,sans-Serif" font-size="10.00">dpp::ssl_client</text>
</a>
</g>
</g>
<!-- Node3&#45;&gt;Node7 -->
<g id="edge7" class="edge">
<title>Node3&#45;&gt;Node7</title>
<path fill="none" stroke="#9a32cd" stroke-dasharray="5,2" d="M251.67,-223.44C264.65,-264.9 295.15,-365.22 314,-451 324.64,-499.38 300.39,-522.86 332,-561 368.52,-605.06 418.92,-559.03 453,-605 497.14,-664.53 439.94,-870.72 471,-938 480.52,-958.61 501.14,-975.49 515.54,-985.4"/>
<polygon fill="#9a32cd" stroke="#9a32cd" points="254.97,-222.27 248.63,-213.79 248.29,-224.38 254.97,-222.27"/>
<text text-anchor="middle" x="392.5" y="-652" font-family="Helvetica,sans-Serif" font-size="10.00"> buffer</text>
<text text-anchor="middle" x="392.5" y="-641" font-family="Helvetica,sans-Serif" font-size="10.00">cipher</text>
<text text-anchor="middle" x="392.5" y="-630" font-family="Helvetica,sans-Serif" font-size="10.00">hostname</text>
<text text-anchor="middle" x="392.5" y="-619" font-family="Helvetica,sans-Serif" font-size="10.00">obuffer</text>
<text text-anchor="middle" x="392.5" y="-608" font-family="Helvetica,sans-Serif" font-size="10.00">port</text>
</g>
<!-- Node15 -->
<g id="node15" class="node">
<title>Node15</title>
<g id="a_node15"><a xlink:href="classdpp_1_1cluster.html" target="_top" xlink:title="The cluster class represents a group of shards and a command queue for sending and receiving commands...">
<polygon fill="none" stroke="black" points="783.5,-791.5 783.5,-810.5 857.5,-810.5 857.5,-791.5 783.5,-791.5"/>
<text text-anchor="middle" x="820.5" y="-798.5" font-family="Helvetica,sans-Serif" font-size="10.00">dpp::cluster</text>
</a>
</g>
</g>
<!-- Node3&#45;&gt;Node15 -->
<g id="edge16" class="edge">
<title>Node3&#45;&gt;Node15</title>
<path fill="none" stroke="#9a32cd" stroke-dasharray="5,2" d="M250.24,-223.87C259.51,-257.93 283.51,-326.91 332,-359 369.98,-384.13 706.14,-367.55 740,-398 770.69,-425.6 810.88,-732.84 818.3,-791.39"/>
<polygon fill="#9a32cd" stroke="#9a32cd" points="253.52,-222.57 247.65,-213.76 246.74,-224.31 253.52,-222.57"/>
<text text-anchor="middle" x="532" y="-382" font-family="Helvetica,sans-Serif" font-size="10.00"> token</text>
</g>
<!-- Node18 -->
<g id="node18" class="node">
<title>Node18</title>
<g id="a_node18"><a xlink:href="classdpp_1_1user.html" target="_top" xlink:title="Represents a user on discord. May or may not be a member of a dpp::guild.">
<polygon fill="none" stroke="black" points="501,-559.5 501,-578.5 563,-578.5 563,-559.5 501,-559.5"/>
<text text-anchor="middle" x="532" y="-566.5" font-family="Helvetica,sans-Serif" font-size="10.00">dpp::user</text>
</a>
</g>
</g>
<!-- Node3&#45;&gt;Node18 -->
<g id="edge23" class="edge">
<title>Node3&#45;&gt;Node18</title>
<path fill="none" stroke="#9a32cd" stroke-dasharray="5,2" d="M251.36,-223.63C262.63,-259.08 290.01,-334.91 332,-387 374.57,-439.8 415.1,-423.75 453,-480 469.75,-504.86 451,-522.67 471,-545 478.78,-553.69 490.14,-559.28 500.89,-562.86"/>
<polygon fill="#9a32cd" stroke="#9a32cd" points="254.56,-222.15 248.26,-213.62 247.87,-224.21 254.56,-222.15"/>
<text text-anchor="middle" x="392.5" y="-483" font-family="Helvetica,sans-Serif" font-size="10.00"> username</text>
</g>
<!-- Node30 -->
<g id="node30" class="node">
<title>Node30</title>
<g id="a_node30"><a xlink:href="structdpp_1_1scheduled__event.html" target="_top" xlink:title="A scheduled event.">
<polygon fill="none" stroke="black" points="759,-224.5 759,-243.5 882,-243.5 882,-224.5 759,-224.5"/>
<text text-anchor="middle" x="820.5" y="-231.5" font-family="Helvetica,sans-Serif" font-size="10.00">dpp::scheduled_event</text>
</a>
</g>
</g>
<!-- Node3&#45;&gt;Node30 -->
<g id="edge45" class="edge">
<title>Node3&#45;&gt;Node30</title>
<path fill="none" stroke="#9a32cd" stroke-dasharray="5,2" d="M287.45,-204.19C352.8,-204.68 482.86,-206.48 593,-213 649.18,-216.33 712.99,-222.46 758.54,-227.24"/>
<polygon fill="#9a32cd" stroke="#9a32cd" points="287.18,-200.68 277.15,-204.12 287.13,-207.68 287.18,-200.68"/>
<text text-anchor="middle" x="532" y="-238" font-family="Helvetica,sans-Serif" font-size="10.00"> description</text>
<text text-anchor="middle" x="532" y="-227" font-family="Helvetica,sans-Serif" font-size="10.00">image</text>
<text text-anchor="middle" x="532" y="-216" font-family="Helvetica,sans-Serif" font-size="10.00">name</text>
</g>
<!-- Node34 -->
<g id="node34" class="node">
<title>Node34</title>
<g id="a_node34"><a xlink:href="structdpp_1_1event__entities.html" target="_top" xlink:title="Entities for the event.">
<polygon fill="none" stroke="black" points="477,-110.5 477,-129.5 587,-129.5 587,-110.5 477,-110.5"/>
<text text-anchor="middle" x="532" y="-117.5" font-family="Helvetica,sans-Serif" font-size="10.00">dpp::event_entities</text>
</a>
</g>
</g>
<!-- Node3&#45;&gt;Node34 -->
<g id="edge51" class="edge">
<title>Node3&#45;&gt;Node34</title>
<path fill="none" stroke="#9a32cd" stroke-dasharray="5,2" d="M286.95,-191.81C344.16,-174.97 446.18,-144.96 498.34,-129.61"/>
<polygon fill="#9a32cd" stroke="#9a32cd" points="285.75,-188.51 277.14,-194.69 287.73,-195.22 285.75,-188.51"/>
<text text-anchor="middle" x="392.5" y="-180" font-family="Helvetica,sans-Serif" font-size="10.00"> location</text>
</g>
<!-- Node4 -->
<g id="node4" class="node">
<title>Node4</title>
<g id="a_node4"><a xlink:title=" ">
<polygon fill="none" stroke="#bfbfbf" points="0,-189 0,-219 104,-219 104,-189 0,-189"/>
<text text-anchor="start" x="8" y="-207" font-family="Helvetica,sans-Serif" font-size="10.00">std::basic_string&lt;</text>
<text text-anchor="middle" x="52" y="-196" font-family="Helvetica,sans-Serif" font-size="10.00"> Char &gt;</text>
</a>
</g>
</g>
<!-- Node4&#45;&gt;Node3 -->
<g id="edge3" class="edge">
<title>Node4&#45;&gt;Node3</title>
<path fill="none" stroke="midnightblue" d="M114.35,-204C146.8,-204 185.28,-204 211.75,-204"/>
<polygon fill="midnightblue" stroke="midnightblue" points="114.05,-200.5 104.05,-204 114.05,-207.5 114.05,-200.5"/>
</g>
<!-- Node5&#45;&gt;Node2 -->
<g id="edge4" class="edge">
<title>Node5&#45;&gt;Node2</title>
<path fill="none" stroke="#9a32cd" stroke-dasharray="5,2" d="M1115.58,-866.47C1142.5,-751.72 1279.58,-167.32 1298.77,-85.52"/>
<polygon fill="#9a32cd" stroke="#9a32cd" points="1112.14,-865.8 1113.27,-876.34 1118.96,-867.4 1112.14,-865.8"/>
<text text-anchor="middle" x="1202" y="-580" font-family="Helvetica,sans-Serif" font-size="10.00"> from</text>
</g>
<!-- Node6 -->
<g id="node6" class="node">
<title>Node6</title>
<g id="a_node6"><a xlink:href="classdpp_1_1websocket__client.html" target="_top" xlink:title="Implements a websocket client based on the SSL client.">
<polygon fill="none" stroke="black" points="758,-1006.5 758,-1025.5 883,-1025.5 883,-1006.5 758,-1006.5"/>
<text text-anchor="middle" x="820.5" y="-1013.5" font-family="Helvetica,sans-Serif" font-size="10.00">dpp::websocket_client</text>
</a>
</g>
</g>
<!-- Node6&#45;&gt;Node5 -->
<g id="edge5" class="edge">
<title>Node6&#45;&gt;Node5</title>
<path fill="none" stroke="midnightblue" d="M893.5,-1022.77C938.14,-1023.57 994.96,-1018.12 1038,-992 1075.87,-969.02 1097.9,-917.25 1105.73,-895.7"/>
<polygon fill="midnightblue" stroke="midnightblue" points="893.4,-1019.27 883.31,-1022.48 893.2,-1026.27 893.4,-1019.27"/>
</g>
<!-- Node7&#45;&gt;Node6 -->
<g id="edge6" class="edge">
<title>Node7&#45;&gt;Node6</title>
<path fill="none" stroke="midnightblue" d="M585.1,-999.04C593.75,-999.7 602.63,-1000.38 611,-1001 660.4,-1004.68 716.4,-1008.7 757.91,-1011.65"/>
<polygon fill="midnightblue" stroke="midnightblue" points="585.34,-995.55 575.1,-998.28 584.8,-1002.53 585.34,-995.55"/>
</g>
<!-- Node8 -->
<g id="node8" class="node">
<title>Node8</title>
<g id="a_node8"><a xlink:title=" ">
<polygon fill="none" stroke="#bfbfbf" points="225.5,-1103.5 225.5,-1122.5 263.5,-1122.5 263.5,-1103.5 225.5,-1103.5"/>
<text text-anchor="middle" x="244.5" y="-1110.5" font-family="Helvetica,sans-Serif" font-size="10.00">bool</text>
</a>
</g>
</g>
<!-- Node8&#45;&gt;Node5 -->
<g id="edge40" class="edge">
<title>Node8&#45;&gt;Node5</title>
<path fill="none" stroke="#9a32cd" stroke-dasharray="5,2" d="M273.64,-1114.62C313.59,-1116.59 389.02,-1119.05 453,-1114 715.45,-1093.27 824.06,-1174.42 1038,-1021 1082.33,-989.21 1101.29,-921.17 1107.01,-895.8"/>
<polygon fill="#9a32cd" stroke="#9a32cd" points="273.75,-1111.12 263.58,-1114.1 273.38,-1118.11 273.75,-1111.12"/>
<text text-anchor="middle" x="675.5" y="-1120" font-family="Helvetica,sans-Serif" font-size="10.00"> ready</text>
</g>
<!-- Node8&#45;&gt;Node7 -->
<g id="edge8" class="edge">
<title>Node8&#45;&gt;Node7</title>
<path fill="none" stroke="#9a32cd" stroke-dasharray="5,2" d="M273.66,-1109.57C326.68,-1102.96 437.44,-1088.36 453,-1080 487.05,-1061.71 514.09,-1022.68 525.34,-1004.59"/>
<polygon fill="#9a32cd" stroke="#9a32cd" points="273.06,-1106.12 263.57,-1110.82 273.92,-1113.06 273.06,-1106.12"/>
<text text-anchor="middle" x="392.5" y="-1104" font-family="Helvetica,sans-Serif" font-size="10.00"> nonblocking</text>
</g>
<!-- Node9 -->
<g id="node9" class="node">
<title>Node9</title>
<g id="a_node9"><a xlink:title=" ">
<polygon fill="none" stroke="#bfbfbf" points="230,-923.5 230,-942.5 259,-942.5 259,-923.5 230,-923.5"/>
<text text-anchor="middle" x="244.5" y="-930.5" font-family="Helvetica,sans-Serif" font-size="10.00">int</text>
</a>
</g>
</g>
<!-- Node9&#45;&gt;Node7 -->
<g id="edge9" class="edge">
<title>Node9&#45;&gt;Node7</title>
<path fill="none" stroke="#9a32cd" stroke-dasharray="5,2" d="M269.51,-933.5C316.94,-934.8 420.84,-939.29 453,-954 463.01,-958.58 461.73,-965.07 471,-971 480.08,-976.8 490.78,-981.62 500.62,-985.39"/>
<polygon fill="#9a32cd" stroke="#9a32cd" points="269.34,-930 259.26,-933.25 269.17,-936.99 269.34,-930"/>
<text text-anchor="middle" x="392.5" y="-957" font-family="Helvetica,sans-Serif" font-size="10.00"> sfd</text>
</g>
<!-- Node10 -->
<g id="node10" class="node">
<title>Node10</title>
<g id="a_node10"><a xlink:title=" ">
<polygon fill="none" stroke="#bfbfbf" points="195,-885.5 195,-904.5 294,-904.5 294,-885.5 195,-885.5"/>
<text text-anchor="middle" x="244.5" y="-892.5" font-family="Helvetica,sans-Serif" font-size="10.00">opensslcontext *</text>
</a>
</g>
</g>
<!-- Node10&#45;&gt;Node7 -->
<g id="edge10" class="edge">
<title>Node10&#45;&gt;Node7</title>
<path fill="none" stroke="#9a32cd" stroke-dasharray="5,2" d="M304.22,-899.22C361.45,-903.84 441.52,-911.81 453,-921 471.44,-935.76 454.59,-954.01 471,-971 477.08,-977.29 485.02,-981.98 493.13,-985.46"/>
<polygon fill="#9a32cd" stroke="#9a32cd" points="304.42,-895.73 294.17,-898.43 303.87,-902.71 304.42,-895.73"/>
<text text-anchor="middle" x="392.5" y="-924" font-family="Helvetica,sans-Serif" font-size="10.00"> ssl</text>
</g>
<!-- Node11 -->
<g id="node11" class="node">
<title>Node11</title>
<g id="a_node11"><a xlink:title=" ">
<polygon fill="none" stroke="#bfbfbf" points="220.5,-829.5 220.5,-848.5 268.5,-848.5 268.5,-829.5 220.5,-829.5"/>
<text text-anchor="middle" x="244.5" y="-836.5" font-family="Helvetica,sans-Serif" font-size="10.00">time_t</text>
</a>
</g>
</g>
<!-- Node11&#45;&gt;Node5 -->
<g id="edge34" class="edge">
<title>Node11&#45;&gt;Node5</title>
<path fill="none" stroke="#9a32cd" stroke-dasharray="5,2" d="M278.93,-838.92C330.96,-839.51 427.94,-843.68 453,-866 477.63,-887.94 445.22,-917.42 471,-938 542.56,-995.12 791.69,-948.74 883,-942 952.45,-936.87 971.29,-938.99 1038,-919 1057.27,-913.22 1077.99,-903.1 1092.04,-895.58"/>
<polygon fill="#9a32cd" stroke="#9a32cd" points="278.88,-835.42 268.86,-838.85 278.83,-842.42 278.88,-835.42"/>
<text text-anchor="middle" x="675.5" y="-980" font-family="Helvetica,sans-Serif" font-size="10.00"> last_heartbeat</text>
<text text-anchor="middle" x="675.5" y="-969" font-family="Helvetica,sans-Serif" font-size="10.00">last_heartbeat_ack</text>
</g>
<!-- Node11&#45;&gt;Node7 -->
<g id="edge11" class="edge">
<title>Node11&#45;&gt;Node7</title>
<path fill="none" stroke="#9a32cd" stroke-dasharray="5,2" d="M278.5,-848.78C294.57,-853.38 314.21,-858.77 332,-863 385.34,-875.67 413.94,-848.53 453,-887 480.2,-913.79 446.38,-941.81 471,-971 476.35,-977.35 483.62,-982.03 491.26,-985.48"/>
<polygon fill="#9a32cd" stroke="#9a32cd" points="279.09,-845.31 268.51,-845.89 277.14,-852.03 279.09,-845.31"/>
<text text-anchor="middle" x="392.5" y="-890" font-family="Helvetica,sans-Serif" font-size="10.00"> last_tick</text>
</g>
<!-- Node11&#45;&gt;Node15 -->
<g id="edge17" class="edge">
<title>Node11&#45;&gt;Node15</title>
<path fill="none" stroke="#9a32cd" stroke-dasharray="5,2" d="M279.1,-837.19C359.02,-832.81 566.73,-821.06 740,-808 754.09,-806.94 769.58,-805.61 783.1,-804.4"/>
<polygon fill="#9a32cd" stroke="#9a32cd" points="278.48,-833.72 268.69,-837.75 278.86,-840.7 278.48,-833.72"/>
<text text-anchor="middle" x="532" y="-829" font-family="Helvetica,sans-Serif" font-size="10.00"> last_identify</text>
</g>
<!-- Node11&#45;&gt;Node30 -->
<g id="edge46" class="edge">
<title>Node11&#45;&gt;Node30</title>
<path fill="none" stroke="#9a32cd" stroke-dasharray="5,2" d="M278.89,-832.95C334.58,-822.55 441.49,-801.14 453,-788 501.33,-732.85 420.83,-677.47 471,-624 512.52,-579.75 699.1,-621.83 740,-577 773.21,-540.6 744.66,-403.43 758,-356 770.58,-311.25 799.95,-263.51 813.02,-243.59"/>
<polygon fill="#9a32cd" stroke="#9a32cd" points="278,-829.56 268.8,-834.82 279.27,-836.44 278,-829.56"/>
<text text-anchor="middle" x="532" y="-638" font-family="Helvetica,sans-Serif" font-size="10.00"> scheduled_end_time</text>
<text text-anchor="middle" x="532" y="-627" font-family="Helvetica,sans-Serif" font-size="10.00">scheduled_start_time</text>
</g>
<!-- Node12 -->
<g id="node12" class="node">
<title>Node12</title>
<g id="a_node12"><a xlink:title=" ">
<polygon fill="none" stroke="#bfbfbf" points="24,-714.5 24,-733.5 80,-733.5 80,-714.5 24,-714.5"/>
<text text-anchor="middle" x="52" y="-721.5" font-family="Helvetica,sans-Serif" font-size="10.00">uint64_t</text>
</a>
</g>
</g>
<!-- Node12&#45;&gt;Node5 -->
<g id="edge36" class="edge">
<title>Node12&#45;&gt;Node5</title>
<path fill="none" stroke="#9a32cd" stroke-dasharray="5,2" d="M52.51,-744.1C51.57,-829.63 59.84,-1159 243.5,-1159 243.5,-1159 243.5,-1159 821.5,-1159 925.37,-1159 965.28,-1145.16 1038,-1071 1089.06,-1018.93 1104.24,-926.23 1107.95,-895.9"/>
<polygon fill="#9a32cd" stroke="#9a32cd" points="56.01,-743.96 52.69,-733.9 49.02,-743.84 56.01,-743.96"/>
<text text-anchor="middle" x="532" y="-1162" font-family="Helvetica,sans-Serif" font-size="10.00"> last_seq</text>
</g>
<!-- Node12&#45;&gt;Node7 -->
<g id="edge12" class="edge">
<title>Node12&#45;&gt;Node7</title>
<path fill="none" stroke="#9a32cd" stroke-dasharray="5,2" d="M57.1,-743.73C67.66,-789.12 100.37,-900.96 175,-952 225.17,-986.31 405.9,-993.3 488.85,-994.68"/>
<polygon fill="#9a32cd" stroke="#9a32cd" points="60.51,-742.93 54.93,-733.93 53.67,-744.45 60.51,-742.93"/>
<text text-anchor="middle" x="244.5" y="-998" font-family="Helvetica,sans-Serif" font-size="10.00"> bytes_in</text>
<text text-anchor="middle" x="244.5" y="-987" font-family="Helvetica,sans-Serif" font-size="10.00">bytes_out</text>
</g>
<!-- Node19 -->
<g id="node19" class="node">
<title>Node19</title>
<g id="a_node19"><a xlink:href="classdpp_1_1managed.html" target="_top" xlink:title="The managed class is the base class for various types that can be stored in a cache that are identifi...">
<polygon fill="none" stroke="black" points="201.5,-638.5 201.5,-657.5 287.5,-657.5 287.5,-638.5 201.5,-638.5"/>
<text text-anchor="middle" x="244.5" y="-645.5" font-family="Helvetica,sans-Serif" font-size="10.00">dpp::managed</text>
</a>
</g>
</g>
<!-- Node12&#45;&gt;Node19 -->
<g id="edge22" class="edge">
<title>Node12&#45;&gt;Node19</title>
<path fill="none" stroke="#9a32cd" stroke-dasharray="5,2" d="M80.19,-709.7C104.56,-697.27 141.51,-679.37 175,-667 184.49,-663.49 194.93,-660.28 204.74,-657.54"/>
<polygon fill="#9a32cd" stroke="#9a32cd" points="78.48,-706.64 71.19,-714.33 81.69,-712.86 78.48,-706.64"/>
<text text-anchor="middle" x="139.5" y="-691" font-family="Helvetica,sans-Serif" font-size="10.00"> id</text>
</g>
<!-- Node21 -->
<g id="node21" class="node">
<title>Node21</title>
<g id="a_node21"><a xlink:href="structdpp_1_1utility_1_1iconhash.html" target="_top" xlink:title="Store a 128 bit icon hash (profile picture, server icon etc) as a 128 bit binary value made of two ui...">
<polygon fill="none" stroke="black" points="185.5,-714.5 185.5,-733.5 303.5,-733.5 303.5,-714.5 185.5,-714.5"/>
<text text-anchor="middle" x="244.5" y="-721.5" font-family="Helvetica,sans-Serif" font-size="10.00">dpp::utility::iconhash</text>
</a>
</g>
</g>
<!-- Node12&#45;&gt;Node21 -->
<g id="edge26" class="edge">
<title>Node12&#45;&gt;Node21</title>
<path fill="none" stroke="#9a32cd" stroke-dasharray="5,2" d="M90.48,-724C117.47,-724 154.41,-724 185.23,-724"/>
<polygon fill="#9a32cd" stroke="#9a32cd" points="90.29,-720.5 80.29,-724 90.29,-727.5 90.29,-720.5"/>
<text text-anchor="middle" x="139.5" y="-738" font-family="Helvetica,sans-Serif" font-size="10.00"> first</text>
<text text-anchor="middle" x="139.5" y="-727" font-family="Helvetica,sans-Serif" font-size="10.00">second</text>
</g>
<!-- Node12&#45;&gt;Node30 -->
<g id="edge44" class="edge">
<title>Node12&#45;&gt;Node30</title>
<path fill="none" stroke="#9a32cd" stroke-dasharray="5,2" d="M58.22,-704.21C78.43,-632.41 159.1,-385.87 332,-310 415.4,-273.4 652.11,-294.89 740,-271 763.06,-264.73 787.74,-252.23 803.38,-243.51"/>
<polygon fill="#9a32cd" stroke="#9a32cd" points="54.76,-703.61 55.49,-714.18 61.51,-705.46 54.76,-703.61"/>
<text text-anchor="middle" x="392.5" y="-357" font-family="Helvetica,sans-Serif" font-size="10.00"> channel_id</text>
<text text-anchor="middle" x="392.5" y="-346" font-family="Helvetica,sans-Serif" font-size="10.00">creator_id</text>
<text text-anchor="middle" x="392.5" y="-335" font-family="Helvetica,sans-Serif" font-size="10.00">entity_id</text>
<text text-anchor="middle" x="392.5" y="-324" font-family="Helvetica,sans-Serif" font-size="10.00">guild_id</text>
<text text-anchor="middle" x="392.5" y="-313" font-family="Helvetica,sans-Serif" font-size="10.00">id</text>
</g>
<!-- Node13 -->
<g id="node13" class="node">
<title>Node13</title>
<g id="a_node13"><a xlink:title=" ">
<polygon fill="none" stroke="#bfbfbf" points="175,-1057.5 175,-1076.5 314,-1076.5 314,-1057.5 175,-1057.5"/>
<text text-anchor="middle" x="244.5" y="-1064.5" font-family="Helvetica,sans-Serif" font-size="10.00">function&lt; dpp::socket()&gt;</text>
</a>
</g>
</g>
<!-- Node13&#45;&gt;Node7 -->
<g id="edge13" class="edge">
<title>Node13&#45;&gt;Node7</title>
<path fill="none" stroke="#9a32cd" stroke-dasharray="5,2" d="M324.17,-1057.51C372.47,-1051.18 429.45,-1042.63 453,-1035 476.02,-1027.54 500.53,-1013.92 515.81,-1004.66"/>
<polygon fill="#9a32cd" stroke="#9a32cd" points="323.47,-1054.07 314.01,-1058.83 324.37,-1061.02 323.47,-1054.07"/>
<text text-anchor="middle" x="392.5" y="-1070" font-family="Helvetica,sans-Serif" font-size="10.00"> custom_readable_fd</text>
<text text-anchor="middle" x="392.5" y="-1059" font-family="Helvetica,sans-Serif" font-size="10.00">custom_writeable_fd</text>
</g>
<!-- Node14 -->
<g id="node14" class="node">
<title>Node14</title>
<g id="a_node14"><a xlink:title=" ">
<polygon fill="none" stroke="#bfbfbf" points="192.5,-1019.5 192.5,-1038.5 296.5,-1038.5 296.5,-1019.5 192.5,-1019.5"/>
<text text-anchor="middle" x="244.5" y="-1026.5" font-family="Helvetica,sans-Serif" font-size="10.00">function&lt; void()&gt;</text>
</a>
</g>
</g>
<!-- Node14&#45;&gt;Node7 -->
<g id="edge14" class="edge">
<title>Node14&#45;&gt;Node7</title>
<path fill="none" stroke="#9a32cd" stroke-dasharray="5,2" d="M302.57,-1017.67C312.36,-1015.95 322.46,-1014.31 332,-1013 385.96,-1005.59 448.58,-1000.5 488.94,-997.67"/>
<polygon fill="#9a32cd" stroke="#9a32cd" points="301.73,-1014.27 292.51,-1019.49 302.97,-1021.15 301.73,-1014.27"/>
<text text-anchor="middle" x="392.5" y="-1027" font-family="Helvetica,sans-Serif" font-size="10.00"> custom_readable_ready</text>
<text text-anchor="middle" x="392.5" y="-1016" font-family="Helvetica,sans-Serif" font-size="10.00">custom_writeable_ready</text>
</g>
<!-- Node15&#45;&gt;Node5 -->
<g id="edge15" class="edge">
<title>Node15&#45;&gt;Node5</title>
<path fill="none" stroke="#9a32cd" stroke-dasharray="5,2" d="M867.56,-812.79C911.57,-824.29 979.66,-842.67 1038,-861 1053.09,-865.74 1069.77,-871.58 1083.18,-876.43"/>
<polygon fill="#9a32cd" stroke="#9a32cd" points="868.29,-809.36 857.73,-810.23 866.53,-816.14 868.29,-809.36"/>
<text text-anchor="middle" x="969.5" y="-864" font-family="Helvetica,sans-Serif" font-size="10.00"> creator</text>
</g>
<!-- Node16 -->
<g id="node16" class="node">
<title>Node16</title>
<g id="a_node16"><a xlink:title=" ">
<polygon fill="none" stroke="#bfbfbf" points="216.5,-460.5 216.5,-479.5 272.5,-479.5 272.5,-460.5 216.5,-460.5"/>
<text text-anchor="middle" x="244.5" y="-467.5" font-family="Helvetica,sans-Serif" font-size="10.00">uint32_t</text>
</a>
</g>
</g>
<!-- Node16&#45;&gt;Node5 -->
<g id="edge33" class="edge">
<title>Node16&#45;&gt;Node5</title>
<path fill="none" stroke="#9a32cd" stroke-dasharray="5,2" d="M282.94,-466.35C391.11,-456.09 699,-428.93 740,-448 947.36,-544.44 1079.97,-821.14 1104.77,-876.35"/>
<polygon fill="#9a32cd" stroke="#9a32cd" points="282.44,-462.89 272.81,-467.32 283.1,-469.85 282.44,-462.89"/>
<text text-anchor="middle" x="675.5" y="-506" font-family="Helvetica,sans-Serif" font-size="10.00"> heartbeat_interval</text>
<text text-anchor="middle" x="675.5" y="-495" font-family="Helvetica,sans-Serif" font-size="10.00">intents</text>
<text text-anchor="middle" x="675.5" y="-484" font-family="Helvetica,sans-Serif" font-size="10.00">max_shards</text>
<text text-anchor="middle" x="675.5" y="-473" font-family="Helvetica,sans-Serif" font-size="10.00">reconnects</text>
<text text-anchor="middle" x="675.5" y="-462" font-family="Helvetica,sans-Serif" font-size="10.00">resumes</text>
<text text-anchor="middle" x="675.5" y="-451" font-family="Helvetica,sans-Serif" font-size="10.00">shard_id</text>
</g>
<!-- Node16&#45;&gt;Node15 -->
<g id="edge18" class="edge">
<title>Node16&#45;&gt;Node15</title>
<path fill="none" stroke="#9a32cd" stroke-dasharray="5,2" d="M282.86,-471.6C360.48,-475.3 536.66,-485.71 593,-506 602.05,-509.26 602.3,-513.9 611,-518 665.17,-543.56 697.2,-515.1 740,-557 809.73,-625.25 818.34,-755.29 819.37,-791.46"/>
<polygon fill="#9a32cd" stroke="#9a32cd" points="282.74,-468.09 272.59,-471.13 282.41,-475.09 282.74,-468.09"/>
<text text-anchor="middle" x="532" y="-542" font-family="Helvetica,sans-Serif" font-size="10.00"> cluster_id</text>
<text text-anchor="middle" x="532" y="-531" font-family="Helvetica,sans-Serif" font-size="10.00">intents</text>
<text text-anchor="middle" x="532" y="-520" font-family="Helvetica,sans-Serif" font-size="10.00">maxclusters</text>
<text text-anchor="middle" x="532" y="-509" font-family="Helvetica,sans-Serif" font-size="10.00">numshards</text>
</g>
<!-- Node16&#45;&gt;Node18 -->
<g id="edge27" class="edge">
<title>Node16&#45;&gt;Node18</title>
<path fill="none" stroke="#9a32cd" stroke-dasharray="5,2" d="M282.7,-479.87C338.21,-494.72 437.84,-521.95 453,-530 462.2,-534.88 462.06,-539.67 471,-545 480.54,-550.69 491.67,-555.57 501.74,-559.41"/>
<polygon fill="#9a32cd" stroke="#9a32cd" points="283.45,-476.44 272.88,-477.24 281.64,-483.21 283.45,-476.44"/>
<text text-anchor="middle" x="392.5" y="-533" font-family="Helvetica,sans-Serif" font-size="10.00"> flags</text>
</g>
<!-- Node16&#45;&gt;Node30 -->
<g id="edge53" class="edge">
<title>Node16&#45;&gt;Node30</title>
<path fill="none" stroke="#9a32cd" stroke-dasharray="5,2" d="M265.86,-454.19C282.85,-441.55 308.05,-424.01 332,-412 390.55,-382.64 407.6,-379.47 471,-363 588.4,-332.51 632.88,-373.88 740,-317 773.84,-299.03 801.64,-261.33 813.42,-243.6"/>
<polygon fill="#9a32cd" stroke="#9a32cd" points="263.65,-451.48 257.78,-460.3 267.87,-457.06 263.65,-451.48"/>
<text text-anchor="middle" x="532" y="-366" font-family="Helvetica,sans-Serif" font-size="10.00"> user_count</text>
</g>
<!-- Node17 -->
<g id="node17" class="node">
<title>Node17</title>
<g id="a_node17"><a xlink:title=" ">
<polygon fill="none" stroke="#bfbfbf" points="507,-909.5 507,-928.5 557,-928.5 557,-909.5 507,-909.5"/>
<text text-anchor="middle" x="532" y="-916.5" font-family="Helvetica,sans-Serif" font-size="10.00">double</text>
</a>
</g>
</g>
<!-- Node17&#45;&gt;Node5 -->
<g id="edge39" class="edge">
<title>Node17&#45;&gt;Node5</title>
<path fill="none" stroke="#9a32cd" stroke-dasharray="5,2" d="M567.53,-922.77C581.07,-924.07 596.75,-925.36 611,-926 801.02,-934.51 849.28,-920.78 1038,-897 1043.82,-896.27 1049.89,-895.43 1055.93,-894.56"/>
<polygon fill="#9a32cd" stroke="#9a32cd" points="567.5,-919.25 557.21,-921.73 566.81,-926.21 567.5,-919.25"/>
<text text-anchor="middle" x="820.5" y="-930" font-family="Helvetica,sans-Serif" font-size="10.00"> websocket_ping</text>
</g>
<!-- Node17&#45;&gt;Node15 -->
<g id="edge19" class="edge">
<title>Node17&#45;&gt;Node15</title>
<path fill="none" stroke="#9a32cd" stroke-dasharray="5,2" d="M567.18,-917.31C609.82,-913.99 683.96,-904.14 740,-875 771.28,-858.73 799.28,-826.75 812.11,-810.68"/>
<polygon fill="#9a32cd" stroke="#9a32cd" points="566.77,-913.83 557.04,-918.02 567.26,-920.81 566.77,-913.83"/>
<text text-anchor="middle" x="675.5" y="-914" font-family="Helvetica,sans-Serif" font-size="10.00"> rest_ping</text>
</g>
<!-- Node18&#45;&gt;Node15 -->
<g id="edge20" class="edge">
<title>Node18&#45;&gt;Node15</title>
<path fill="none" stroke="#9a32cd" stroke-dasharray="5,2" d="M573.39,-562.73C618.79,-558.03 692.36,-557.74 740,-595 805.22,-646.01 816.98,-757.6 819.06,-791.22"/>
<polygon fill="#9a32cd" stroke="#9a32cd" points="572.85,-559.27 563.32,-563.89 573.66,-566.22 572.85,-559.27"/>
<text text-anchor="middle" x="675.5" y="-598" font-family="Helvetica,sans-Serif" font-size="10.00"> me</text>
</g>
<!-- Node18&#45;&gt;Node30 -->
<g id="edge52" class="edge">
<title>Node18&#45;&gt;Node30</title>
<path fill="none" stroke="#9a32cd" stroke-dasharray="5,2" d="M572.66,-559.95C580.43,-556.46 587.78,-551.65 593,-545 628.2,-500.16 576.31,-463.24 611,-418 648.93,-368.54 692.76,-403.66 740,-363 780.47,-328.16 806.75,-267.46 815.89,-243.82"/>
<polygon fill="#9a32cd" stroke="#9a32cd" points="571.21,-556.76 563.09,-563.57 573.69,-563.3 571.21,-556.76"/>
<text text-anchor="middle" x="675.5" y="-421" font-family="Helvetica,sans-Serif" font-size="10.00"> creator</text>
</g>
<!-- Node19&#45;&gt;Node18 -->
<g id="edge21" class="edge">
<title>Node19&#45;&gt;Node18</title>
<path fill="none" stroke="midnightblue" d="M292.23,-659.47C337.63,-667.74 406.36,-672.33 453,-639 470.86,-626.23 455.53,-608.58 471,-593 479.06,-584.88 490.22,-579.42 500.74,-575.79"/>
<polygon fill="midnightblue" stroke="midnightblue" points="292.83,-656.02 282.35,-657.54 291.49,-662.89 292.83,-656.02"/>
</g>
<!-- Node20 -->
<g id="node20" class="node">
<title>Node20</title>
<g id="a_node20"><a xlink:title=" ">
<polygon fill="none" stroke="#bfbfbf" points="216.5,-676.5 216.5,-695.5 272.5,-695.5 272.5,-676.5 216.5,-676.5"/>
<text text-anchor="middle" x="244.5" y="-683.5" font-family="Helvetica,sans-Serif" font-size="10.00">uint16_t</text>
</a>
</g>
</g>
<!-- Node20&#45;&gt;Node18 -->
<g id="edge24" class="edge">
<title>Node20&#45;&gt;Node18</title>
<path fill="none" stroke="#9a32cd" stroke-dasharray="5,2" d="M282.91,-686.98C335.69,-687.56 428.35,-685.36 453,-664 477.6,-642.68 449.55,-617.49 471,-593 478.69,-584.22 490.03,-578.62 500.79,-575.05"/>
<polygon fill="#9a32cd" stroke="#9a32cd" points="282.65,-683.48 272.6,-686.83 282.55,-690.47 282.65,-683.48"/>
<text text-anchor="middle" x="392.5" y="-689" font-family="Helvetica,sans-Serif" font-size="10.00"> discriminator</text>
</g>
<!-- Node21&#45;&gt;Node18 -->
<g id="edge25" class="edge">
<title>Node21&#45;&gt;Node18</title>
<path fill="none" stroke="#9a32cd" stroke-dasharray="5,2" d="M311.24,-734.4C356.93,-737.66 416.03,-733.33 453,-698 487.23,-665.28 441.23,-629.82 471,-593 478.41,-583.84 489.83,-578.16 500.73,-574.64"/>
<polygon fill="#9a32cd" stroke="#9a32cd" points="311.38,-730.9 301.12,-733.54 310.79,-737.87 311.38,-730.9"/>
<text text-anchor="middle" x="392.5" y="-738" font-family="Helvetica,sans-Serif" font-size="10.00"> avatar</text>
</g>
<!-- Node22 -->
<g id="node22" class="node">
<title>Node22</title>
<g id="a_node22"><a xlink:title=" ">
<polygon fill="none" stroke="#bfbfbf" points="219.5,-539.5 219.5,-558.5 269.5,-558.5 269.5,-539.5 219.5,-539.5"/>
<text text-anchor="middle" x="244.5" y="-546.5" font-family="Helvetica,sans-Serif" font-size="10.00">uint8_t</text>
</a>
</g>
</g>
<!-- Node22&#45;&gt;Node18 -->
<g id="edge28" class="edge">
<title>Node22&#45;&gt;Node18</title>
<path fill="none" stroke="#9a32cd" stroke-dasharray="5,2" d="M279.64,-546.73C320.89,-544.55 392.31,-542.57 453,-550 469.05,-551.97 486.57,-556.05 500.93,-559.93"/>
<polygon fill="#9a32cd" stroke="#9a32cd" points="279.37,-543.24 269.58,-547.3 279.76,-550.23 279.37,-543.24"/>
<text text-anchor="middle" x="392.5" y="-553" font-family="Helvetica,sans-Serif" font-size="10.00"> refcount</text>
</g>
<!-- Node23 -->
<g id="node23" class="node">
<title>Node23</title>
<g id="a_node23"><a xlink:href="structdpp_1_1cache__policy__t.html" target="_top" xlink:title="Represents the caching policy of the cluster.">
<polygon fill="none" stroke="black" points="475.5,-758.5 475.5,-777.5 588.5,-777.5 588.5,-758.5 475.5,-758.5"/>
<text text-anchor="middle" x="532" y="-765.5" font-family="Helvetica,sans-Serif" font-size="10.00">dpp::cache_policy_t</text>
</a>
</g>
</g>
<!-- Node23&#45;&gt;Node15 -->
<g id="edge29" class="edge">
<title>Node23&#45;&gt;Node15</title>
<path fill="none" stroke="#9a32cd" stroke-dasharray="5,2" d="M598.95,-777.47C603.02,-778 607.07,-778.52 611,-779 671.33,-786.43 741.68,-793.53 783.3,-797.57"/>
<polygon fill="#9a32cd" stroke="#9a32cd" points="599.16,-773.96 588.78,-776.11 598.23,-780.9 599.16,-773.96"/>
<text text-anchor="middle" x="675.5" y="-796" font-family="Helvetica,sans-Serif" font-size="10.00"> cache_policy</text>
</g>
<!-- Node24 -->
<g id="node24" class="node">
<title>Node24</title>
<g id="a_node24"><a xlink:title=" ">
<polygon fill="none" stroke="#bfbfbf" points="180.5,-752.5 180.5,-771.5 308.5,-771.5 308.5,-752.5 180.5,-752.5"/>
<text text-anchor="middle" x="244.5" y="-759.5" font-family="Helvetica,sans-Serif" font-size="10.00">cache_policy_setting_t</text>
</a>
</g>
</g>
<!-- Node24&#45;&gt;Node23 -->
<g id="edge30" class="edge">
<title>Node24&#45;&gt;Node23</title>
<path fill="none" stroke="#9a32cd" stroke-dasharray="5,2" d="M318.69,-763.54C367.51,-764.56 430.69,-765.89 475.39,-766.83"/>
<polygon fill="#9a32cd" stroke="#9a32cd" points="318.58,-760.04 308.51,-763.32 318.43,-767.03 318.58,-760.04"/>
<text text-anchor="middle" x="392.5" y="-791" font-family="Helvetica,sans-Serif" font-size="10.00"> emoji_policy</text>
<text text-anchor="middle" x="392.5" y="-780" font-family="Helvetica,sans-Serif" font-size="10.00">role_policy</text>
<text text-anchor="middle" x="392.5" y="-769" font-family="Helvetica,sans-Serif" font-size="10.00">user_policy</text>
</g>
<!-- Node25 -->
<g id="node25" class="node">
<title>Node25</title>
<g id="a_node25"><a xlink:title=" ">
<polygon fill="none" stroke="#bfbfbf" points="471,-864.5 471,-883.5 593,-883.5 593,-864.5 471,-864.5"/>
<text text-anchor="middle" x="532" y="-871.5" font-family="Helvetica,sans-Serif" font-size="10.00">websocket_protocol_t</text>
</a>
</g>
</g>
<!-- Node25&#45;&gt;Node5 -->
<g id="edge41" class="edge">
<title>Node25&#45;&gt;Node5</title>
<path fill="none" stroke="#9a32cd" stroke-dasharray="5,2" d="M603.27,-875.46C720.05,-877.9 951.57,-882.72 1055.87,-884.89"/>
<polygon fill="#9a32cd" stroke="#9a32cd" points="603.08,-871.96 593.01,-875.25 602.94,-878.96 603.08,-871.96"/>
<text text-anchor="middle" x="820.5" y="-884" font-family="Helvetica,sans-Serif" font-size="10.00"> protocol</text>
</g>
<!-- Node25&#45;&gt;Node15 -->
<g id="edge31" class="edge">
<title>Node25&#45;&gt;Node15</title>
<path fill="none" stroke="#9a32cd" stroke-dasharray="5,2" d="M600.1,-862.77C657.94,-853.01 733.22,-840.13 740,-838 762.37,-830.98 786.6,-819.02 802.35,-810.6"/>
<polygon fill="#9a32cd" stroke="#9a32cd" points="599.16,-859.37 589.88,-864.49 600.33,-866.28 599.16,-859.37"/>
<text text-anchor="middle" x="675.5" y="-863" font-family="Helvetica,sans-Serif" font-size="10.00"> ws_mode</text>
</g>
<!-- Node26 -->
<g id="node26" class="node">
<title>Node26</title>
<g id="a_node26"><a xlink:title=" ">
<polygon fill="none" stroke="#bfbfbf" points="484,-655.5 484,-674.5 580,-674.5 580,-655.5 484,-655.5"/>
<text text-anchor="middle" x="532" y="-662.5" font-family="Helvetica,sans-Serif" font-size="10.00">event_router_t&lt;</text>
</a>
</g>
</g>
<!-- Node26&#45;&gt;Node15 -->
<g id="edge32" class="edge">
<title>Node26&#45;&gt;Node15</title>
<path fill="none" stroke="#9a32cd" stroke-dasharray="5,2" d="M574.17,-651.47C580.73,-648.49 587.25,-645.01 593,-641 602.81,-634.16 600.08,-625.87 611,-621 637.19,-609.34 715.98,-605.35 740,-621 801.25,-660.91 815.65,-759.88 818.73,-791.28"/>
<polygon fill="#9a32cd" stroke="#9a32cd" points="572.47,-648.38 564.59,-655.46 575.17,-654.84 572.47,-648.38"/>
<text text-anchor="start" x="611" y="-767" font-family="Helvetica,sans-Serif" font-size="10.00"> on_application_command</text>
<text text-anchor="middle" x="675.5" y="-756" font-family="Helvetica,sans-Serif" font-size="10.00">_create</text>
<text text-anchor="start" x="611" y="-745" font-family="Helvetica,sans-Serif" font-size="10.00">on_application_command</text>
<text text-anchor="middle" x="675.5" y="-734" font-family="Helvetica,sans-Serif" font-size="10.00">_delete</text>
<text text-anchor="start" x="611" y="-723" font-family="Helvetica,sans-Serif" font-size="10.00">on_application_command</text>
<text text-anchor="middle" x="675.5" y="-712" font-family="Helvetica,sans-Serif" font-size="10.00">_update</text>
<text text-anchor="middle" x="675.5" y="-701" font-family="Helvetica,sans-Serif" font-size="10.00">on_autocomplete</text>
<text text-anchor="middle" x="675.5" y="-690" font-family="Helvetica,sans-Serif" font-size="10.00">on_button_click</text>
<text text-anchor="middle" x="675.5" y="-679" font-family="Helvetica,sans-Serif" font-size="10.00">on_channel_create</text>
<text text-anchor="middle" x="675.5" y="-668" font-family="Helvetica,sans-Serif" font-size="10.00">on_channel_delete</text>
<text text-anchor="middle" x="675.5" y="-657" font-family="Helvetica,sans-Serif" font-size="10.00">on_channel_pins_update</text>
<text text-anchor="middle" x="675.5" y="-646" font-family="Helvetica,sans-Serif" font-size="10.00">on_channel_update</text>
<text text-anchor="middle" x="675.5" y="-635" font-family="Helvetica,sans-Serif" font-size="10.00">on_guild_ban_add</text>
<text text-anchor="middle" x="675.5" y="-624" font-family="Helvetica,sans-Serif" font-size="10.00">...</text>
</g>
<!-- Node27 -->
<g id="node27" class="node">
<title>Node27</title>
<g id="a_node27"><a xlink:title=" ">
<polygon fill="none" stroke="#bfbfbf" points="764,-403.5 764,-422.5 877,-422.5 877,-403.5 764,-403.5"/>
<text text-anchor="middle" x="820.5" y="-410.5" font-family="Helvetica,sans-Serif" font-size="10.00">native_handle_type</text>
</a>
</g>
</g>
<!-- Node27&#45;&gt;Node5 -->
<g id="edge35" class="edge">
<title>Node27&#45;&gt;Node5</title>
<path fill="none" stroke="#9a32cd" stroke-dasharray="5,2" d="M865.26,-401.2C913.87,-390.99 991.61,-383.74 1038,-426 1107.3,-489.12 1109.3,-815.63 1109.07,-876.29"/>
<polygon fill="#9a32cd" stroke="#9a32cd" points="864.35,-397.82 855.35,-403.41 865.87,-404.65 864.35,-397.82"/>
<text text-anchor="middle" x="969.5" y="-429" font-family="Helvetica,sans-Serif" font-size="10.00"> thread_id</text>
</g>
<!-- Node28 -->
<g id="node28" class="node">
<title>Node28</title>
<g id="a_node28"><a xlink:title=" ">
<polygon fill="none" stroke="#bfbfbf" points="786,-365.5 786,-384.5 855,-384.5 855,-365.5 786,-365.5"/>
<text text-anchor="middle" x="820.5" y="-372.5" font-family="Helvetica,sans-Serif" font-size="10.00">std::mutex</text>
</a>
</g>
</g>
<!-- Node28&#45;&gt;Node5 -->
<g id="edge38" class="edge">
<title>Node28&#45;&gt;Node5</title>
<path fill="none" stroke="#9a32cd" stroke-dasharray="5,2" d="M858.74,-362.64C906.51,-349.38 989.01,-335.59 1038,-379 1115.5,-447.67 1110.74,-811.33 1109.26,-876.12"/>
<polygon fill="#9a32cd" stroke="#9a32cd" points="857.73,-359.29 849.1,-365.44 859.68,-366.01 857.73,-359.29"/>
<text text-anchor="middle" x="969.5" y="-382" font-family="Helvetica,sans-Serif" font-size="10.00"> voice_mutex</text>
</g>
<!-- Node29 -->
<g id="node29" class="node">
<title>Node29</title>
<g id="a_node29"><a xlink:title=" ">
<polygon fill="none" stroke="#bfbfbf" points="770,-1187.5 770,-1206.5 871,-1206.5 871,-1187.5 770,-1187.5"/>
<text text-anchor="middle" x="820.5" y="-1194.5" font-family="Helvetica,sans-Serif" font-size="10.00">unordered_map&lt;</text>
</a>
</g>
</g>
<!-- Node29&#45;&gt;Node5 -->
<g id="edge42" class="edge">
<title>Node29&#45;&gt;Node5</title>
<path fill="none" stroke="#9a32cd" stroke-dasharray="5,2" d="M881.22,-1207.39C929.31,-1212.16 995.64,-1210.1 1038,-1173 1081.53,-1134.87 1103.46,-941.23 1108.07,-895.63"/>
<polygon fill="#9a32cd" stroke="#9a32cd" points="881.58,-1203.91 871.26,-1206.28 880.81,-1210.87 881.58,-1203.91"/>
<text text-anchor="middle" x="969.5" y="-1212" font-family="Helvetica,sans-Serif" font-size="10.00"> connecting_voice_channels</text>
</g>
<!-- Node30&#45;&gt;Node1 -->
<g id="edge43" class="edge">
<title>Node30&#45;&gt;Node1</title>
<path fill="none" stroke="#9a32cd" stroke-dasharray="5,2" d="M846.78,-219.21C910.25,-183 1082.56,-90.42 1240,-57 1293.5,-45.64 1355.99,-45.76 1400.58,-48.06"/>
<polygon fill="#9a32cd" stroke="#9a32cd" points="844.8,-216.31 837.88,-224.32 848.29,-222.37 844.8,-216.31"/>
<text text-anchor="middle" x="1202" y="-75" font-family="Helvetica,sans-Serif" font-size="10.00"> deleted</text>
</g>
<!-- Node31 -->
<g id="node31" class="node">
<title>Node31</title>
<g id="a_node31"><a xlink:title=" ">
<polygon fill="none" stroke="#bfbfbf" points="474.5,-148.5 474.5,-167.5 589.5,-167.5 589.5,-148.5 474.5,-148.5"/>
<text text-anchor="middle" x="532" y="-155.5" font-family="Helvetica,sans-Serif" font-size="10.00">event_privacy_level</text>
</a>
</g>
</g>
<!-- Node31&#45;&gt;Node30 -->
<g id="edge47" class="edge">
<title>Node31&#45;&gt;Node30</title>
<path fill="none" stroke="#9a32cd" stroke-dasharray="5,2" d="M599.62,-156.39C641.16,-157.4 695.07,-162.44 740,-179 767.72,-189.22 794.9,-211.38 809.18,-224.24"/>
<polygon fill="#9a32cd" stroke="#9a32cd" points="599.67,-152.89 589.61,-156.22 599.55,-159.89 599.67,-152.89"/>
<text text-anchor="middle" x="675.5" y="-182" font-family="Helvetica,sans-Serif" font-size="10.00"> privacy_level</text>
</g>
<!-- Node32 -->
<g id="node32" class="node">
<title>Node32</title>
<g id="a_node32"><a xlink:title=" ">
<polygon fill="none" stroke="#bfbfbf" points="492,-72.5 492,-91.5 572,-91.5 572,-72.5 492,-72.5"/>
<text text-anchor="middle" x="532" y="-79.5" font-family="Helvetica,sans-Serif" font-size="10.00">event_status</text>
</a>
</g>
</g>
<!-- Node32&#45;&gt;Node30 -->
<g id="edge48" class="edge">
<title>Node32&#45;&gt;Node30</title>
<path fill="none" stroke="#9a32cd" stroke-dasharray="5,2" d="M582.19,-74.62C626.82,-70.52 692.68,-71.22 740,-101 786.9,-130.52 809.8,-198.65 816.95,-224.14"/>
<polygon fill="#9a32cd" stroke="#9a32cd" points="581.76,-71.15 572.17,-75.65 582.47,-78.11 581.76,-71.15"/>
<text text-anchor="middle" x="675.5" y="-104" font-family="Helvetica,sans-Serif" font-size="10.00"> status</text>
</g>
<!-- Node33 -->
<g id="node33" class="node">
<title>Node33</title>
<g id="a_node33"><a xlink:title=" ">
<polygon fill="none" stroke="#bfbfbf" points="479.5,-255.5 479.5,-274.5 584.5,-274.5 584.5,-255.5 479.5,-255.5"/>
<text text-anchor="middle" x="532" y="-262.5" font-family="Helvetica,sans-Serif" font-size="10.00">event_entity_type</text>
</a>
</g>
</g>
<!-- Node33&#45;&gt;Node30 -->
<g id="edge49" class="edge">
<title>Node33&#45;&gt;Node30</title>
<path fill="none" stroke="#9a32cd" stroke-dasharray="5,2" d="M594.62,-258.33C643.21,-253.07 710.61,-245.78 758.93,-240.55"/>
<polygon fill="#9a32cd" stroke="#9a32cd" points="594.12,-254.87 584.55,-259.42 594.87,-261.83 594.12,-254.87"/>
<text text-anchor="middle" x="675.5" y="-259" font-family="Helvetica,sans-Serif" font-size="10.00"> entity_type</text>
</g>
<!-- Node34&#45;&gt;Node30 -->
<g id="edge50" class="edge">
<title>Node34&#45;&gt;Node30</title>
<path fill="none" stroke="#9a32cd" stroke-dasharray="5,2" d="M597.15,-114.96C639.92,-114.36 696.12,-119.05 740,-142 776.66,-161.18 803.79,-204.92 814.49,-224.37"/>
<polygon fill="#9a32cd" stroke="#9a32cd" points="597.05,-111.46 587.13,-115.2 597.22,-118.46 597.05,-111.46"/>
<text text-anchor="middle" x="675.5" y="-145" font-family="Helvetica,sans-Serif" font-size="10.00"> entity_metadata</text>
</g>
</g>
</svg>
