<?xml version="1.0" encoding="UTF-8" standalone="no"?>
<!DOCTYPE svg PUBLIC "-//W3C//DTD SVG 1.1//EN"
 "http://www.w3.org/Graphics/SVG/1.1/DTD/svg11.dtd">
<!-- Generated by graphviz version 2.43.0 (0)
 -->
<!-- Title: dpp::dtemplate Pages: 1 -->
<svg width="584pt" height="206pt"
 viewBox="0.00 0.00 584.00 206.00" xmlns="http://www.w3.org/2000/svg" xmlns:xlink="http://www.w3.org/1999/xlink">
<g id="graph0" class="graph" transform="scale(1 1) rotate(0) translate(4 202)">
<title>dpp::dtemplate</title>
<!-- Node1 -->
<g id="node1" class="node">
<title>Node1</title>
<g id="a_node1"><a xlink:title="Represents a guild template.">
<polygon fill="#bfbfbf" stroke="black" points="276.5,-0.5 276.5,-19.5 367.5,-19.5 367.5,-0.5 276.5,-0.5"/>
<text text-anchor="middle" x="322" y="-7.5" font-family="Helvetica,sans-Serif" font-size="10.00">dpp::dtemplate</text>
</a>
</g>
</g>
<!-- Node2 -->
<g id="node2" class="node">
<title>Node2</title>
<g id="a_node2"><a xlink:href="structdpp_1_1json__interface.html" target="_top" xlink:title=" ">
<polygon fill="none" stroke="black" points="23,-89.5 23,-119.5 133,-119.5 133,-89.5 23,-89.5"/>
<text text-anchor="start" x="31" y="-107.5" font-family="Helvetica,sans-Serif" font-size="10.00">dpp::json_interface</text>
<text text-anchor="middle" x="78" y="-96.5" font-family="Helvetica,sans-Serif" font-size="10.00">&lt; dtemplate &gt;</text>
</a>
</g>
</g>
<!-- Node2&#45;&gt;Node1 -->
<g id="edge1" class="edge">
<title>Node2&#45;&gt;Node1</title>
<path fill="none" stroke="midnightblue" d="M107.2,-83.87C130.17,-69.26 163.46,-49.87 195,-38 221.16,-28.16 251.77,-21.51 276.39,-17.28"/>
<polygon fill="midnightblue" stroke="midnightblue" points="105.13,-81.05 98.63,-89.41 108.93,-86.93 105.13,-81.05"/>
</g>
<!-- Node3 -->
<g id="node3" class="node">
<title>Node3</title>
<g id="a_node3"><a xlink:href="structdpp_1_1json__interface.html" target="_top" xlink:title="Represents an interface for an object that can optionally implement functions for converting to and f...">
<polygon fill="none" stroke="black" points="0,-173 0,-192 138,-192 138,-173 0,-173"/>
<text text-anchor="middle" x="69" y="-180" font-family="Helvetica,sans-Serif" font-size="10.00">dpp::json_interface&lt; T &gt;</text>
</a>
</g>
</g>
<!-- Node3&#45;&gt;Node2 -->
<g id="edge2" class="edge">
<title>Node3&#45;&gt;Node2</title>
<path fill="none" stroke="orange" stroke-dasharray="5,2" d="M71.22,-162.78C72.8,-149.4 74.9,-131.69 76.34,-119.52"/>
<polygon fill="orange" stroke="orange" points="67.73,-162.44 70.03,-172.78 74.68,-163.26 67.73,-162.44"/>
<text text-anchor="middle" x="113" y="-141" font-family="Helvetica,sans-Serif" font-size="10.00"> &lt; dtemplate &gt;</text>
</g>
<!-- Node4 -->
<g id="node4" class="node">
<title>Node4</title>
<g id="a_node4"><a xlink:title=" ">
<polygon fill="none" stroke="#bfbfbf" points="167.5,-95 167.5,-114 232.5,-114 232.5,-95 167.5,-95"/>
<text text-anchor="middle" x="200" y="-102" font-family="Helvetica,sans-Serif" font-size="10.00">std::string</text>
</a>
</g>
</g>
<!-- Node4&#45;&gt;Node1 -->
<g id="edge3" class="edge">
<title>Node4&#45;&gt;Node1</title>
<path fill="none" stroke="#9a32cd" stroke-dasharray="5,2" d="M198.66,-84.62C198.7,-70.03 201.25,-50.31 213,-38 221.88,-28.69 250.58,-21.8 276.31,-17.32"/>
<polygon fill="#9a32cd" stroke="#9a32cd" points="195.18,-85.12 199.05,-94.99 202.18,-84.86 195.18,-85.12"/>
<text text-anchor="middle" x="240.5" y="-63" font-family="Helvetica,sans-Serif" font-size="10.00"> code</text>
<text text-anchor="middle" x="240.5" y="-52" font-family="Helvetica,sans-Serif" font-size="10.00">description</text>
<text text-anchor="middle" x="240.5" y="-41" font-family="Helvetica,sans-Serif" font-size="10.00">name</text>
</g>
<!-- Node5 -->
<g id="node5" class="node">
<title>Node5</title>
<g id="a_node5"><a xlink:title=" ">
<polygon fill="none" stroke="#bfbfbf" points="156,-167.5 156,-197.5 260,-197.5 260,-167.5 156,-167.5"/>
<text text-anchor="start" x="164" y="-185.5" font-family="Helvetica,sans-Serif" font-size="10.00">std::basic_string&lt;</text>
<text text-anchor="middle" x="208" y="-174.5" font-family="Helvetica,sans-Serif" font-size="10.00"> Char &gt;</text>
</a>
</g>
</g>
<!-- Node5&#45;&gt;Node4 -->
<g id="edge4" class="edge">
<title>Node5&#45;&gt;Node4</title>
<path fill="none" stroke="midnightblue" d="M205.44,-157.17C203.88,-142.4 201.99,-124.45 200.9,-114.06"/>
<polygon fill="midnightblue" stroke="midnightblue" points="201.97,-157.63 206.5,-167.2 208.93,-156.89 201.97,-157.63"/>
</g>
<!-- Node6 -->
<g id="node6" class="node">
<title>Node6</title>
<g id="a_node6"><a xlink:title=" ">
<polygon fill="none" stroke="#bfbfbf" points="251,-95 251,-114 307,-114 307,-95 251,-95"/>
<text text-anchor="middle" x="279" y="-102" font-family="Helvetica,sans-Serif" font-size="10.00">uint32_t</text>
</a>
</g>
</g>
<!-- Node6&#45;&gt;Node1 -->
<g id="edge5" class="edge">
<title>Node6&#45;&gt;Node1</title>
<path fill="none" stroke="#9a32cd" stroke-dasharray="5,2" d="M274.43,-84.97C272.06,-71.16 271.1,-52.29 279,-38 283.52,-29.82 291.67,-23.79 299.67,-19.52"/>
<polygon fill="#9a32cd" stroke="#9a32cd" points="271.01,-85.72 276.49,-94.79 277.86,-84.28 271.01,-85.72"/>
<text text-anchor="middle" x="311.5" y="-52" font-family="Helvetica,sans-Serif" font-size="10.00"> usage_count</text>
</g>
<!-- Node7 -->
<g id="node7" class="node">
<title>Node7</title>
<g id="a_node7"><a xlink:title=" ">
<polygon fill="none" stroke="#bfbfbf" points="338,-95 338,-114 394,-114 394,-95 338,-95"/>
<text text-anchor="middle" x="366" y="-102" font-family="Helvetica,sans-Serif" font-size="10.00">uint64_t</text>
</a>
</g>
</g>
<!-- Node7&#45;&gt;Node1 -->
<g id="edge6" class="edge">
<title>Node7&#45;&gt;Node1</title>
<path fill="none" stroke="#9a32cd" stroke-dasharray="5,2" d="M361.59,-84.58C357.98,-71.08 352.14,-52.77 344,-38 340.38,-31.43 335.11,-24.89 330.63,-19.9"/>
<polygon fill="#9a32cd" stroke="#9a32cd" points="358.27,-85.76 364.09,-94.61 365.06,-84.06 358.27,-85.76"/>
<text text-anchor="middle" x="395" y="-57.5" font-family="Helvetica,sans-Serif" font-size="10.00"> creator_id</text>
<text text-anchor="middle" x="395" y="-46.5" font-family="Helvetica,sans-Serif" font-size="10.00">source_guild_id</text>
</g>
<!-- Node8 -->
<g id="node8" class="node">
<title>Node8</title>
<g id="a_node8"><a xlink:title=" ">
<polygon fill="none" stroke="#bfbfbf" points="441,-95 441,-114 489,-114 489,-95 441,-95"/>
<text text-anchor="middle" x="465" y="-102" font-family="Helvetica,sans-Serif" font-size="10.00">time_t</text>
</a>
</g>
</g>
<!-- Node8&#45;&gt;Node1 -->
<g id="edge7" class="edge">
<title>Node8&#45;&gt;Node1</title>
<path fill="none" stroke="#9a32cd" stroke-dasharray="5,2" d="M461.75,-84.72C458.2,-69.88 451.03,-49.79 437,-38 417.76,-21.84 390.61,-14.96 367.51,-12.19"/>
<polygon fill="#9a32cd" stroke="#9a32cd" points="458.38,-85.71 463.81,-94.81 465.24,-84.31 458.38,-85.71"/>
<text text-anchor="middle" x="484.5" y="-57.5" font-family="Helvetica,sans-Serif" font-size="10.00"> created_at</text>
<text text-anchor="middle" x="484.5" y="-46.5" font-family="Helvetica,sans-Serif" font-size="10.00">updated_at</text>
</g>
<!-- Node9 -->
<g id="node9" class="node">
<title>Node9</title>
<g id="a_node9"><a xlink:title=" ">
<polygon fill="none" stroke="#bfbfbf" points="524,-95 524,-114 562,-114 562,-95 524,-95"/>
<text text-anchor="middle" x="543" y="-102" font-family="Helvetica,sans-Serif" font-size="10.00">bool</text>
</a>
</g>
</g>
<!-- Node9&#45;&gt;Node1 -->
<g id="edge8" class="edge">
<title>Node9&#45;&gt;Node1</title>
<path fill="none" stroke="#9a32cd" stroke-dasharray="5,2" d="M540.34,-84.38C537.19,-69.36 530.41,-49.16 516,-38 493.55,-20.61 417.83,-14.42 367.9,-12.22"/>
<polygon fill="#9a32cd" stroke="#9a32cd" points="536.95,-85.37 542.1,-94.63 543.85,-84.18 536.95,-85.37"/>
<text text-anchor="middle" x="556" y="-52" font-family="Helvetica,sans-Serif" font-size="10.00"> is_dirty</text>
</g>
</g>
</svg>
