<?xml version="1.0" encoding="UTF-8" standalone="no"?>
<!DOCTYPE svg PUBLIC "-//W3C//DTD SVG 1.1//EN"
 "http://www.w3.org/Graphics/SVG/1.1/DTD/svg11.dtd">
<!-- Generated by graphviz version 2.43.0 (0)
 -->
<!-- Title: dpp::slashcommand Pages: 1 -->
<svg width="597pt" height="283pt"
 viewBox="0.00 0.00 597.00 283.00" xmlns="http://www.w3.org/2000/svg" xmlns:xlink="http://www.w3.org/1999/xlink">
<g id="graph0" class="graph" transform="scale(1 1) rotate(0) translate(4 279)">
<title>dpp::slashcommand</title>
<polygon fill="white" stroke="transparent" points="-4,4 -4,-279 593,-279 593,4 -4,4"/>
<!-- Node1 -->
<g id="node1" class="node">
<title>Node1</title>
<g id="a_node1"><a xlink:title="Represents an application command, created by your bot either globally, or on a guild.">
<polygon fill="#bfbfbf" stroke="black" points="474,-128.5 474,-147.5 589,-147.5 589,-128.5 474,-128.5"/>
<text text-anchor="middle" x="531.5" y="-135.5" font-family="Helvetica,sans-Serif" font-size="10.00">dpp::slashcommand</text>
</a>
</g>
</g>
<!-- Node2 -->
<g id="node2" class="node">
<title>Node2</title>
<g id="a_node2"><a xlink:href="classdpp_1_1managed.html" target="_top" xlink:title="The managed class is the base class for various types that can be stored in a cache that are identifi...">
<polygon fill="white" stroke="black" points="204,-205.5 204,-224.5 290,-224.5 290,-205.5 204,-205.5"/>
<text text-anchor="middle" x="247" y="-212.5" font-family="Helvetica,sans-Serif" font-size="10.00">dpp::managed</text>
</a>
</g>
</g>
<!-- Node2&#45;&gt;Node1 -->
<g id="edge1" class="edge">
<title>Node2&#45;&gt;Node1</title>
<path fill="none" stroke="midnightblue" d="M299.91,-206.35C342.43,-198.59 403.87,-185.84 456,-169 474.66,-162.97 495.19,-154.27 509.97,-147.61"/>
<polygon fill="midnightblue" stroke="midnightblue" points="299.28,-202.91 290.06,-208.12 300.52,-209.8 299.28,-202.91"/>
</g>
<!-- Node3 -->
<g id="node3" class="node">
<title>Node3</title>
<g id="a_node3"><a xlink:title=" ">
<polygon fill="white" stroke="#bfbfbf" points="24,-238.5 24,-257.5 80,-257.5 80,-238.5 24,-238.5"/>
<text text-anchor="middle" x="52" y="-245.5" font-family="Helvetica,sans-Serif" font-size="10.00">uint64_t</text>
</a>
</g>
</g>
<!-- Node3&#45;&gt;Node1 -->
<g id="edge4" class="edge">
<title>Node3&#45;&gt;Node1</title>
<path fill="none" stroke="#9a32cd" stroke-dasharray="5,2" d="M90.7,-251.48C165.29,-256.63 334.94,-259.58 456,-195 481,-181.66 506.43,-160.12 520.16,-147.69"/>
<polygon fill="#9a32cd" stroke="#9a32cd" points="90.64,-247.97 80.41,-250.71 90.12,-254.95 90.64,-247.97"/>
<text text-anchor="middle" x="247" y="-267" font-family="Helvetica,sans-Serif" font-size="10.00"> application_id</text>
<text text-anchor="middle" x="247" y="-256" font-family="Helvetica,sans-Serif" font-size="10.00">version</text>
</g>
<!-- Node3&#45;&gt;Node2 -->
<g id="edge2" class="edge">
<title>Node3&#45;&gt;Node2</title>
<path fill="none" stroke="#9a32cd" stroke-dasharray="5,2" d="M90.15,-241.51C100.46,-239.71 111.66,-237.77 122,-236 149.22,-231.33 179.82,-226.15 203.81,-222.1"/>
<polygon fill="#9a32cd" stroke="#9a32cd" points="89.45,-238.08 80.2,-243.24 90.65,-244.97 89.45,-238.08"/>
<text text-anchor="middle" x="128.5" y="-239" font-family="Helvetica,sans-Serif" font-size="10.00"> id</text>
</g>
<!-- Node4 -->
<g id="node4" class="node">
<title>Node4</title>
<g id="a_node4"><a xlink:href="structdpp_1_1json__interface.html" target="_top" xlink:title=" ">
<polygon fill="white" stroke="black" points="190.5,-156 190.5,-186 303.5,-186 303.5,-156 190.5,-156"/>
<text text-anchor="start" x="198.5" y="-174" font-family="Helvetica,sans-Serif" font-size="10.00">dpp::json_interface</text>
<text text-anchor="middle" x="247" y="-163" font-family="Helvetica,sans-Serif" font-size="10.00">&lt; slashcommand &gt;</text>
</a>
</g>
</g>
<!-- Node4&#45;&gt;Node1 -->
<g id="edge3" class="edge">
<title>Node4&#45;&gt;Node1</title>
<path fill="none" stroke="midnightblue" d="M313.85,-165.35C354.82,-161.59 408.56,-156.21 456,-150 461.72,-149.25 467.67,-148.41 473.6,-147.52"/>
<polygon fill="midnightblue" stroke="midnightblue" points="313.36,-161.88 303.72,-166.27 314,-168.86 313.36,-161.88"/>
</g>
<!-- Node5 -->
<g id="node5" class="node">
<title>Node5</title>
<g id="a_node5"><a xlink:title=" ">
<polygon fill="white" stroke="#bfbfbf" points="153,-117.5 153,-136.5 341,-136.5 341,-117.5 153,-117.5"/>
<text text-anchor="middle" x="247" y="-124.5" font-family="Helvetica,sans-Serif" font-size="10.00">slashcommand_contextmenu_type</text>
</a>
</g>
</g>
<!-- Node5&#45;&gt;Node1 -->
<g id="edge5" class="edge">
<title>Node5&#45;&gt;Node1</title>
<path fill="none" stroke="#9a32cd" stroke-dasharray="5,2" d="M351.42,-131.03C392.84,-132.64 438.93,-134.43 473.98,-135.8"/>
<polygon fill="#9a32cd" stroke="#9a32cd" points="351.41,-127.52 341.28,-130.63 351.14,-134.52 351.41,-127.52"/>
<text text-anchor="middle" x="407.5" y="-138" font-family="Helvetica,sans-Serif" font-size="10.00"> type</text>
</g>
<!-- Node6 -->
<g id="node6" class="node">
<title>Node6</title>
<g id="a_node6"><a xlink:title=" ">
<polygon fill="white" stroke="#bfbfbf" points="214.5,-79.5 214.5,-98.5 279.5,-98.5 279.5,-79.5 214.5,-79.5"/>
<text text-anchor="middle" x="247" y="-86.5" font-family="Helvetica,sans-Serif" font-size="10.00">std::string</text>
</a>
</g>
</g>
<!-- Node6&#45;&gt;Node1 -->
<g id="edge6" class="edge">
<title>Node6&#45;&gt;Node1</title>
<path fill="none" stroke="#9a32cd" stroke-dasharray="5,2" d="M289.78,-88.09C332.27,-88.12 399.67,-90.8 456,-105 476.58,-110.19 498.62,-120.62 513.34,-128.38"/>
<polygon fill="#9a32cd" stroke="#9a32cd" points="289.53,-84.59 279.54,-88.13 289.56,-91.59 289.53,-84.59"/>
<text text-anchor="middle" x="407.5" y="-119" font-family="Helvetica,sans-Serif" font-size="10.00"> description</text>
<text text-anchor="middle" x="407.5" y="-108" font-family="Helvetica,sans-Serif" font-size="10.00">name</text>
</g>
<!-- Node7 -->
<g id="node7" class="node">
<title>Node7</title>
<g id="a_node7"><a xlink:title=" ">
<polygon fill="white" stroke="#bfbfbf" points="0,-74 0,-104 104,-104 104,-74 0,-74"/>
<text text-anchor="start" x="8" y="-92" font-family="Helvetica,sans-Serif" font-size="10.00">std::basic_string&lt;</text>
<text text-anchor="middle" x="52" y="-81" font-family="Helvetica,sans-Serif" font-size="10.00"> Char &gt;</text>
</a>
</g>
</g>
<!-- Node7&#45;&gt;Node6 -->
<g id="edge7" class="edge">
<title>Node7&#45;&gt;Node6</title>
<path fill="none" stroke="midnightblue" d="M114.29,-89C147.51,-89 187.17,-89 214.23,-89"/>
<polygon fill="midnightblue" stroke="midnightblue" points="114.21,-85.5 104.21,-89 114.21,-92.5 114.21,-85.5"/>
</g>
<!-- Node8 -->
<g id="node8" class="node">
<title>Node8</title>
<g id="a_node8"><a xlink:title=" ">
<polygon fill="white" stroke="#bfbfbf" points="219,-38.5 219,-57.5 275,-57.5 275,-38.5 219,-38.5"/>
<text text-anchor="middle" x="247" y="-45.5" font-family="Helvetica,sans-Serif" font-size="10.00">vector&lt;</text>
</a>
</g>
</g>
<!-- Node8&#45;&gt;Node1 -->
<g id="edge8" class="edge">
<title>Node8&#45;&gt;Node1</title>
<path fill="none" stroke="#9a32cd" stroke-dasharray="5,2" d="M285.12,-43.4C328.27,-39.7 400.63,-38.65 456,-64 487.33,-78.34 513,-111.84 524.3,-128.39"/>
<polygon fill="#9a32cd" stroke="#9a32cd" points="284.69,-39.93 275.07,-44.36 285.36,-46.89 284.69,-39.93"/>
<text text-anchor="middle" x="407.5" y="-78" font-family="Helvetica,sans-Serif" font-size="10.00"> options</text>
<text text-anchor="middle" x="407.5" y="-67" font-family="Helvetica,sans-Serif" font-size="10.00">permissions</text>
</g>
<!-- Node9 -->
<g id="node9" class="node">
<title>Node9</title>
<g id="a_node9"><a xlink:title=" ">
<polygon fill="white" stroke="#bfbfbf" points="228,-0.5 228,-19.5 266,-19.5 266,-0.5 228,-0.5"/>
<text text-anchor="middle" x="247" y="-7.5" font-family="Helvetica,sans-Serif" font-size="10.00">bool</text>
</a>
</g>
</g>
<!-- Node9&#45;&gt;Node1 -->
<g id="edge9" class="edge">
<title>Node9&#45;&gt;Node1</title>
<path fill="none" stroke="#9a32cd" stroke-dasharray="5,2" d="M276.37,-5.2C318.67,0.45 399.36,5.26 456,-28 495.98,-51.47 519.11,-105.9 527.2,-128.2"/>
<polygon fill="#9a32cd" stroke="#9a32cd" points="275.63,-1.77 266.24,-6.67 276.64,-8.7 275.63,-1.77"/>
<text text-anchor="middle" x="407.5" y="-31" font-family="Helvetica,sans-Serif" font-size="10.00"> default_permission</text>
</g>
</g>
</svg>
