<?xml version="1.0" encoding="UTF-8" standalone="no"?>
<!DOCTYPE svg PUBLIC "-//W3C//DTD SVG 1.1//EN"
 "http://www.w3.org/Graphics/SVG/1.1/DTD/svg11.dtd">
<!-- Generated by graphviz version 2.43.0 (0)
 -->
<!-- Title: dpp::user_identified Pages: 1 -->
<svg width="329pt" height="250pt"
 viewBox="0.00 0.00 329.00 250.00" xmlns="http://www.w3.org/2000/svg" xmlns:xlink="http://www.w3.org/1999/xlink">
<g id="graph0" class="graph" transform="scale(1 1) rotate(0) translate(4 246)">
<title>dpp::user_identified</title>
<!-- Node1 -->
<g id="node1" class="node">
<title>Node1</title>
<g id="a_node1"><a xlink:title="A user with additional fields only available via the oauth2 identify scope. These are not included in...">
<polygon fill="#bfbfbf" stroke="black" points="136.5,-0.5 136.5,-19.5 249.5,-19.5 249.5,-0.5 136.5,-0.5"/>
<text text-anchor="middle" x="193" y="-7.5" font-family="Helvetica,sans-Serif" font-size="10.00">dpp::user_identified</text>
</a>
</g>
</g>
<!-- Node2 -->
<g id="node2" class="node">
<title>Node2</title>
<g id="a_node2"><a xlink:href="classdpp_1_1user.html" target="_top" xlink:title="Represents a user on discord. May or may not be a member of a dpp::guild.">
<polygon fill="none" stroke="black" points="128,-57.5 128,-76.5 190,-76.5 190,-57.5 128,-57.5"/>
<text text-anchor="middle" x="159" y="-64.5" font-family="Helvetica,sans-Serif" font-size="10.00">dpp::user</text>
</a>
</g>
</g>
<!-- Node2&#45;&gt;Node1 -->
<g id="edge1" class="edge">
<title>Node2&#45;&gt;Node1</title>
<path fill="none" stroke="midnightblue" d="M169.73,-48.64C175.68,-39.01 182.83,-27.46 187.61,-19.71"/>
<polygon fill="midnightblue" stroke="midnightblue" points="166.59,-47.06 164.31,-57.41 172.55,-50.74 166.59,-47.06"/>
</g>
<!-- Node3 -->
<g id="node3" class="node">
<title>Node3</title>
<g id="a_node3"><a xlink:href="classdpp_1_1managed.html" target="_top" xlink:title="The managed class is the base class for various types that can be stored in a cache that are identifi...">
<polygon fill="none" stroke="black" points="0,-150 0,-169 86,-169 86,-150 0,-150"/>
<text text-anchor="middle" x="43" y="-157" font-family="Helvetica,sans-Serif" font-size="10.00">dpp::managed</text>
</a>
</g>
</g>
<!-- Node3&#45;&gt;Node2 -->
<g id="edge2" class="edge">
<title>Node3&#45;&gt;Node2</title>
<path fill="none" stroke="midnightblue" d="M62.01,-143.67C86.52,-124.55 128.35,-91.92 148.08,-76.52"/>
<polygon fill="midnightblue" stroke="midnightblue" points="59.85,-140.91 54.12,-149.82 64.16,-146.43 59.85,-140.91"/>
</g>
<!-- Node4 -->
<g id="node4" class="node">
<title>Node4</title>
<g id="a_node4"><a xlink:href="structdpp_1_1json__interface.html" target="_top" xlink:title=" ">
<polygon fill="none" stroke="black" points="104,-144.5 104,-174.5 214,-174.5 214,-144.5 104,-144.5"/>
<text text-anchor="start" x="112" y="-162.5" font-family="Helvetica,sans-Serif" font-size="10.00">dpp::json_interface</text>
<text text-anchor="middle" x="159" y="-151.5" font-family="Helvetica,sans-Serif" font-size="10.00">&lt; user &gt;</text>
</a>
</g>
</g>
<!-- Node4&#45;&gt;Node2 -->
<g id="edge3" class="edge">
<title>Node4&#45;&gt;Node2</title>
<path fill="none" stroke="midnightblue" d="M159,-134.28C159,-115.2 159,-89.71 159,-76.6"/>
<polygon fill="midnightblue" stroke="midnightblue" points="155.5,-134.36 159,-144.36 162.5,-134.36 155.5,-134.36"/>
</g>
<!-- Node5 -->
<g id="node5" class="node">
<title>Node5</title>
<g id="a_node5"><a xlink:href="structdpp_1_1json__interface.html" target="_top" xlink:title="Represents an interface for an object that can optionally implement functions for converting to and f...">
<polygon fill="none" stroke="black" points="132,-222.5 132,-241.5 270,-241.5 270,-222.5 132,-222.5"/>
<text text-anchor="middle" x="201" y="-229.5" font-family="Helvetica,sans-Serif" font-size="10.00">dpp::json_interface&lt; T &gt;</text>
</a>
</g>
</g>
<!-- Node5&#45;&gt;Node4 -->
<g id="edge4" class="edge">
<title>Node5&#45;&gt;Node4</title>
<path fill="none" stroke="orange" stroke-dasharray="5,2" d="M182.17,-215.38C178.78,-211.91 175.52,-208.04 173,-204 167.38,-194.98 163.8,-183.48 161.68,-174.58"/>
<polygon fill="orange" stroke="orange" points="179.9,-218.05 189.6,-222.3 184.67,-212.92 179.9,-218.05"/>
<text text-anchor="middle" x="196.5" y="-196" font-family="Helvetica,sans-Serif" font-size="10.00"> &lt; user &gt;</text>
</g>
<!-- Node6 -->
<g id="node6" class="node">
<title>Node6</title>
<g id="a_node6"><a xlink:href="structdpp_1_1json__interface.html" target="_top" xlink:title=" ">
<polygon fill="none" stroke="black" points="180.5,-95.5 180.5,-125.5 291.5,-125.5 291.5,-95.5 180.5,-95.5"/>
<text text-anchor="start" x="188.5" y="-113.5" font-family="Helvetica,sans-Serif" font-size="10.00">dpp::json_interface</text>
<text text-anchor="middle" x="236" y="-102.5" font-family="Helvetica,sans-Serif" font-size="10.00">&lt; user_identified &gt;</text>
</a>
</g>
</g>
<!-- Node5&#45;&gt;Node6 -->
<g id="edge6" class="edge">
<title>Node5&#45;&gt;Node6</title>
<path fill="none" stroke="orange" stroke-dasharray="5,2" d="M214.67,-213.93C216.71,-210.77 218.6,-207.39 220,-204 230.9,-177.65 234.38,-144.1 235.48,-125.51"/>
<polygon fill="orange" stroke="orange" points="211.79,-211.95 208.78,-222.11 217.46,-216.04 211.79,-211.95"/>
<text text-anchor="middle" x="272" y="-196" font-family="Helvetica,sans-Serif" font-size="10.00"> &lt; user_identified &gt;</text>
</g>
<!-- Node6&#45;&gt;Node1 -->
<g id="edge5" class="edge">
<title>Node6&#45;&gt;Node1</title>
<path fill="none" stroke="midnightblue" d="M225.74,-86C216.41,-64.62 203.13,-34.22 196.74,-19.56"/>
<polygon fill="midnightblue" stroke="midnightblue" points="222.63,-87.62 229.84,-95.39 229.05,-84.82 222.63,-87.62"/>
</g>
</g>
</svg>
