<?xml version="1.0" encoding="UTF-8" standalone="no"?>
<!DOCTYPE svg PUBLIC "-//W3C//DTD SVG 1.1//EN"
 "http://www.w3.org/Graphics/SVG/1.1/DTD/svg11.dtd">
<!-- Generated by graphviz version 2.43.0 (0)
 -->
<!-- Title: dpp::presence_update_t Pages: 1 -->
<!--zoomable 1207 -->
<svg id="main" version="1.1" xmlns="http://www.w3.org/2000/svg" xmlns:xlink="http://www.w3.org/1999/xlink" xml:space="preserve" onload="init(evt)">
<style type="text/css"><![CDATA[
.edge:hover path { stroke: red; }
.edge:hover polygon { stroke: red; fill: red; }
]]></style>
<script type="text/javascript"><![CDATA[
var edges = document.getElementsByTagName('g');
if (edges && edges.length) {
  for (var i=0;i<edges.length;i++) {
    if (edges[i].id.substr(0,4)=='edge') {
      edges[i].setAttribute('class','edge');
    }
  }
}
]]></script>
        <defs>
                <circle id="rim" cx="0" cy="0" r="7"/>
                <circle id="rim2" cx="0" cy="0" r="3.5"/>
                <g id="zoomPlus">
                        <use xlink:href="#rim" fill="#404040">
                                <set attributeName="fill" to="#808080" begin="zoomplus.mouseover" end="zoomplus.mouseout"/>
                        </use>
                        <path d="M-4,0h8M0,-4v8" fill="none" stroke="white" stroke-width="1.5" pointer-events="none"/>
                </g>
                <g id="zoomMin">
                        <use xlink:href="#rim" fill="#404040">
                                <set attributeName="fill" to="#808080" begin="zoomminus.mouseover" end="zoomminus.mouseout"/>
                        </use>
                        <path d="M-4,0h8" fill="none" stroke="white" stroke-width="1.5" pointer-events="none"/>
                </g>
                <g id="dirArrow">
                        <path fill="none" stroke="white" stroke-width="1.5" d="M0,-3.0v7 M-2.5,-0.5L0,-3.0L2.5,-0.5"/>
                </g>
               <g id="resetDef">
                       <use xlink:href="#rim2" fill="#404040">
                               <set attributeName="fill" to="#808080" begin="reset.mouseover" end="reset.mouseout"/>
                       </use>
               </g>
        </defs>

<script type="text/javascript">
var viewWidth = 1590;
var viewHeight = 1207;
var sectionId = 'dynsection-1';
</script>
<script xlink:href="svgpan.js"/>
<svg id="graph" class="graph">
<g id="viewport">
<title>dpp::presence_update_t</title>
<!-- Node1 -->
<g id="node1" class="node">
<title>Node1</title>
<g id="a_node1"><a xlink:title="Presence update.">
<polygon fill="#bfbfbf" stroke="black" points="1449,-226.5 1449,-245.5 1582,-245.5 1582,-226.5 1449,-226.5"/>
<text text-anchor="middle" x="1515.5" y="-233.5" font-family="Helvetica,sans-Serif" font-size="10.00">dpp::presence_update_t</text>
</a>
</g>
</g>
<!-- Node2 -->
<g id="node2" class="node">
<title>Node2</title>
<g id="a_node2"><a xlink:href="structdpp_1_1event__dispatch__t.html" target="_top" xlink:title="Base event parameter struct. Each event you receive from the library will have its parameter derived ...">
<polygon fill="none" stroke="black" points="1288,-264.5 1288,-283.5 1412,-283.5 1412,-264.5 1288,-264.5"/>
<text text-anchor="middle" x="1350" y="-271.5" font-family="Helvetica,sans-Serif" font-size="10.00">dpp::event_dispatch_t</text>
</a>
</g>
</g>
<!-- Node2&#45;&gt;Node1 -->
<g id="edge1" class="edge">
<title>Node2&#45;&gt;Node1</title>
<path fill="none" stroke="midnightblue" d="M1402.18,-262.1C1425.17,-256.76 1451.91,-250.55 1473.54,-245.52"/>
<polygon fill="midnightblue" stroke="midnightblue" points="1401.21,-258.74 1392.26,-264.41 1402.79,-265.56 1401.21,-258.74"/>
</g>
<!-- Node3 -->
<g id="node3" class="node">
<title>Node3</title>
<g id="a_node3"><a xlink:title=" ">
<polygon fill="none" stroke="#bfbfbf" points="281,-657.5 281,-676.5 346,-676.5 346,-657.5 281,-657.5"/>
<text text-anchor="middle" x="313.5" y="-664.5" font-family="Helvetica,sans-Serif" font-size="10.00">std::string</text>
</a>
</g>
</g>
<!-- Node3&#45;&gt;Node2 -->
<g id="edge2" class="edge">
<title>Node3&#45;&gt;Node2</title>
<path fill="none" stroke="#9a32cd" stroke-dasharray="5,2" d="M338.75,-652.02C394.79,-617.42 529.36,-534.56 540,-530 591.63,-507.86 612.99,-524.45 662,-497 671.6,-491.62 670.49,-485.54 680,-480 737.48,-446.49 1186.21,-319.56 1314.72,-283.57"/>
<polygon fill="#9a32cd" stroke="#9a32cd" points="336.82,-649.09 330.15,-657.32 340.5,-655.05 336.82,-649.09"/>
<text text-anchor="middle" x="881.5" y="-433" font-family="Helvetica,sans-Serif" font-size="10.00"> raw_event</text>
</g>
<!-- Node5 -->
<g id="node5" class="node">
<title>Node5</title>
<g id="a_node5"><a xlink:href="classdpp_1_1discord__client.html" target="_top" xlink:title="Implements a discord client. Each discord_client connects to one shard and derives from a websocket c...">
<polygon fill="none" stroke="black" points="1117,-827.5 1117,-846.5 1225,-846.5 1225,-827.5 1117,-827.5"/>
<text text-anchor="middle" x="1171" y="-834.5" font-family="Helvetica,sans-Serif" font-size="10.00">dpp::discord_client</text>
</a>
</g>
</g>
<!-- Node3&#45;&gt;Node5 -->
<g id="edge40" class="edge">
<title>Node3&#45;&gt;Node5</title>
<path fill="none" stroke="#9a32cd" stroke-dasharray="5,2" d="M356.21,-674.74C413.45,-685.74 510.61,-705.89 522,-718 552.64,-750.57 511.89,-782.22 540,-817 624.32,-921.3 687.43,-905.95 819,-932 941.12,-956.18 987.94,-980.26 1099,-924 1132.91,-906.82 1156.36,-865.33 1165.6,-846.54"/>
<polygon fill="#9a32cd" stroke="#9a32cd" points="356.84,-671.3 346.36,-672.86 355.52,-678.17 356.84,-671.3"/>
<text text-anchor="middle" x="740.5" y="-942" font-family="Helvetica,sans-Serif" font-size="10.00"> sessionid</text>
<text text-anchor="middle" x="740.5" y="-931" font-family="Helvetica,sans-Serif" font-size="10.00">token</text>
</g>
<!-- Node7 -->
<g id="node7" class="node">
<title>Node7</title>
<g id="a_node7"><a xlink:href="classdpp_1_1ssl__client.html" target="_top" xlink:title="Implements a simple non&#45;blocking SSL stream client.">
<polygon fill="none" stroke="black" points="558,-971.5 558,-990.5 644,-990.5 644,-971.5 558,-971.5"/>
<text text-anchor="middle" x="601" y="-978.5" font-family="Helvetica,sans-Serif" font-size="10.00">dpp::ssl_client</text>
</a>
</g>
</g>
<!-- Node3&#45;&gt;Node7 -->
<g id="edge7" class="edge">
<title>Node3&#45;&gt;Node7</title>
<path fill="none" stroke="#9a32cd" stroke-dasharray="5,2" d="M340.54,-681.53C393.69,-711.42 510.62,-778.46 522,-796 553.99,-845.3 512.48,-875.07 540,-927 550.17,-946.19 570.02,-961.94 584.1,-971.38"/>
<polygon fill="#9a32cd" stroke="#9a32cd" points="342.13,-678.41 331.69,-676.57 338.7,-684.51 342.13,-678.41"/>
<text text-anchor="middle" x="461.5" y="-843" font-family="Helvetica,sans-Serif" font-size="10.00"> buffer</text>
<text text-anchor="middle" x="461.5" y="-832" font-family="Helvetica,sans-Serif" font-size="10.00">cipher</text>
<text text-anchor="middle" x="461.5" y="-821" font-family="Helvetica,sans-Serif" font-size="10.00">hostname</text>
<text text-anchor="middle" x="461.5" y="-810" font-family="Helvetica,sans-Serif" font-size="10.00">obuffer</text>
<text text-anchor="middle" x="461.5" y="-799" font-family="Helvetica,sans-Serif" font-size="10.00">port</text>
</g>
<!-- Node15 -->
<g id="node15" class="node">
<title>Node15</title>
<g id="a_node15"><a xlink:href="classdpp_1_1cluster.html" target="_top" xlink:title="The cluster class represents a group of shards and a command queue for sending and receiving commands...">
<polygon fill="none" stroke="black" points="844.5,-657.5 844.5,-676.5 918.5,-676.5 918.5,-657.5 844.5,-657.5"/>
<text text-anchor="middle" x="881.5" y="-664.5" font-family="Helvetica,sans-Serif" font-size="10.00">dpp::cluster</text>
</a>
</g>
</g>
<!-- Node3&#45;&gt;Node15 -->
<g id="edge17" class="edge">
<title>Node3&#45;&gt;Node15</title>
<path fill="none" stroke="#9a32cd" stroke-dasharray="5,2" d="M356.2,-667C462.86,-667 744.19,-667 844.41,-667"/>
<polygon fill="#9a32cd" stroke="#9a32cd" points="356.14,-663.5 346.14,-667 356.14,-670.5 356.14,-663.5"/>
<text text-anchor="middle" x="601" y="-670" font-family="Helvetica,sans-Serif" font-size="10.00"> token</text>
</g>
<!-- Node18 -->
<g id="node18" class="node">
<title>Node18</title>
<g id="a_node18"><a xlink:href="classdpp_1_1user.html" target="_top" xlink:title="Represents a user on discord. May or may not be a member of a dpp::guild.">
<polygon fill="none" stroke="black" points="570,-327.5 570,-346.5 632,-346.5 632,-327.5 570,-327.5"/>
<text text-anchor="middle" x="601" y="-334.5" font-family="Helvetica,sans-Serif" font-size="10.00">dpp::user</text>
</a>
</g>
</g>
<!-- Node3&#45;&gt;Node18 -->
<g id="edge26" class="edge">
<title>Node3&#45;&gt;Node18</title>
<path fill="none" stroke="#9a32cd" stroke-dasharray="5,2" d="M323.71,-648.06C338.09,-619.45 367.68,-564.2 401,-523 433.04,-483.38 552.15,-378.66 589.04,-346.52"/>
<polygon fill="#9a32cd" stroke="#9a32cd" points="320.43,-646.8 319.13,-657.32 326.7,-649.91 320.43,-646.8"/>
<text text-anchor="middle" x="461.5" y="-526" font-family="Helvetica,sans-Serif" font-size="10.00"> username</text>
</g>
<!-- Node4 -->
<g id="node4" class="node">
<title>Node4</title>
<g id="a_node4"><a xlink:title=" ">
<polygon fill="none" stroke="#bfbfbf" points="17,-652 17,-682 121,-682 121,-652 17,-652"/>
<text text-anchor="start" x="25" y="-670" font-family="Helvetica,sans-Serif" font-size="10.00">std::basic_string&lt;</text>
<text text-anchor="middle" x="69" y="-659" font-family="Helvetica,sans-Serif" font-size="10.00"> Char &gt;</text>
</a>
</g>
</g>
<!-- Node4&#45;&gt;Node3 -->
<g id="edge3" class="edge">
<title>Node4&#45;&gt;Node3</title>
<path fill="none" stroke="midnightblue" d="M131.32,-667C178.88,-667 242.89,-667 280.71,-667"/>
<polygon fill="midnightblue" stroke="midnightblue" points="131.13,-663.5 121.13,-667 131.13,-670.5 131.13,-663.5"/>
</g>
<!-- Node5&#45;&gt;Node2 -->
<g id="edge4" class="edge">
<title>Node5&#45;&gt;Node2</title>
<path fill="none" stroke="#9a32cd" stroke-dasharray="5,2" d="M1178.16,-817.42C1206.68,-726.68 1325.48,-348.8 1345.98,-283.6"/>
<polygon fill="#9a32cd" stroke="#9a32cd" points="1174.73,-816.64 1175.07,-827.23 1181.41,-818.74 1174.73,-816.64"/>
<text text-anchor="middle" x="1256.5" y="-609" font-family="Helvetica,sans-Serif" font-size="10.00"> from</text>
</g>
<!-- Node6 -->
<g id="node6" class="node">
<title>Node6</title>
<g id="a_node6"><a xlink:href="classdpp_1_1websocket__client.html" target="_top" xlink:title="Implements a websocket client based on the SSL client.">
<polygon fill="none" stroke="black" points="819,-979.5 819,-998.5 944,-998.5 944,-979.5 819,-979.5"/>
<text text-anchor="middle" x="881.5" y="-986.5" font-family="Helvetica,sans-Serif" font-size="10.00">dpp::websocket_client</text>
</a>
</g>
</g>
<!-- Node6&#45;&gt;Node5 -->
<g id="edge5" class="edge">
<title>Node6&#45;&gt;Node5</title>
<path fill="none" stroke="midnightblue" d="M954.06,-996.97C999.19,-998.37 1056.71,-993.15 1099,-965 1142.36,-936.13 1161.81,-871.42 1167.83,-846.78"/>
<polygon fill="midnightblue" stroke="midnightblue" points="954.19,-993.47 944.05,-996.54 953.89,-1000.46 954.19,-993.47"/>
</g>
<!-- Node7&#45;&gt;Node6 -->
<g id="edge6" class="edge">
<title>Node7&#45;&gt;Node6</title>
<path fill="none" stroke="midnightblue" d="M654.51,-982.51C701.24,-983.85 769.62,-985.81 818.91,-987.23"/>
<polygon fill="midnightblue" stroke="midnightblue" points="654.39,-979 644.3,-982.22 654.19,-986 654.39,-979"/>
</g>
<!-- Node8 -->
<g id="node8" class="node">
<title>Node8</title>
<g id="a_node8"><a xlink:title=" ">
<polygon fill="none" stroke="#bfbfbf" points="294.5,-1124.5 294.5,-1143.5 332.5,-1143.5 332.5,-1124.5 294.5,-1124.5"/>
<text text-anchor="middle" x="313.5" y="-1131.5" font-family="Helvetica,sans-Serif" font-size="10.00">bool</text>
</a>
</g>
</g>
<!-- Node8&#45;&gt;Node5 -->
<g id="edge15" class="edge">
<title>Node8&#45;&gt;Node5</title>
<path fill="none" stroke="#9a32cd" stroke-dasharray="5,2" d="M342.53,-1140.85C453.89,-1166.29 870.11,-1244.02 1099,-1047 1162,-992.77 1169.23,-880.55 1169.96,-846.81"/>
<polygon fill="#9a32cd" stroke="#9a32cd" points="343.25,-1137.43 332.72,-1138.57 341.66,-1144.25 343.25,-1137.43"/>
<text text-anchor="middle" x="740.5" y="-1191" font-family="Helvetica,sans-Serif" font-size="10.00"> ready</text>
<text text-anchor="middle" x="740.5" y="-1180" font-family="Helvetica,sans-Serif" font-size="10.00">terminating</text>
</g>
<!-- Node8&#45;&gt;Node7 -->
<g id="edge8" class="edge">
<title>Node8&#45;&gt;Node7</title>
<path fill="none" stroke="#9a32cd" stroke-dasharray="5,2" d="M342.28,-1124.03C359.12,-1118.23 381.12,-1111.09 401,-1106 454.03,-1092.43 475.42,-1111.75 522,-1083 559.56,-1059.82 585.68,-1011.48 595.59,-990.77"/>
<polygon fill="#9a32cd" stroke="#9a32cd" points="340.82,-1120.83 332.53,-1127.43 343.13,-1127.44 340.82,-1120.83"/>
<text text-anchor="middle" x="461.5" y="-1142" font-family="Helvetica,sans-Serif" font-size="10.00"> keepalive</text>
<text text-anchor="middle" x="461.5" y="-1131" font-family="Helvetica,sans-Serif" font-size="10.00">make_new</text>
<text text-anchor="middle" x="461.5" y="-1120" font-family="Helvetica,sans-Serif" font-size="10.00">nonblocking</text>
<text text-anchor="middle" x="461.5" y="-1109" font-family="Helvetica,sans-Serif" font-size="10.00">plaintext</text>
</g>
<!-- Node9 -->
<g id="node9" class="node">
<title>Node9</title>
<g id="a_node9"><a xlink:title=" ">
<polygon fill="none" stroke="#bfbfbf" points="299,-973.5 299,-992.5 328,-992.5 328,-973.5 299,-973.5"/>
<text text-anchor="middle" x="313.5" y="-980.5" font-family="Helvetica,sans-Serif" font-size="10.00">int</text>
</a>
</g>
</g>
<!-- Node9&#45;&gt;Node7 -->
<g id="edge9" class="edge">
<title>Node9&#45;&gt;Node7</title>
<path fill="none" stroke="#9a32cd" stroke-dasharray="5,2" d="M338.63,-982.68C355.98,-982.46 379.93,-982.17 401,-982 455.07,-981.55 517.4,-981.28 557.69,-981.13"/>
<polygon fill="#9a32cd" stroke="#9a32cd" points="338.24,-979.18 328.28,-982.81 338.33,-986.18 338.24,-979.18"/>
<text text-anchor="middle" x="461.5" y="-985" font-family="Helvetica,sans-Serif" font-size="10.00"> sfd</text>
</g>
<!-- Node10 -->
<g id="node10" class="node">
<title>Node10</title>
<g id="a_node10"><a xlink:title=" ">
<polygon fill="none" stroke="#bfbfbf" points="264,-935.5 264,-954.5 363,-954.5 363,-935.5 264,-935.5"/>
<text text-anchor="middle" x="313.5" y="-942.5" font-family="Helvetica,sans-Serif" font-size="10.00">opensslcontext *</text>
</a>
</g>
</g>
<!-- Node10&#45;&gt;Node7 -->
<g id="edge10" class="edge">
<title>Node10&#45;&gt;Node7</title>
<path fill="none" stroke="#9a32cd" stroke-dasharray="5,2" d="M373.26,-949.54C414.9,-953.1 472.02,-958.68 522,-966 533.6,-967.7 546.09,-969.92 557.61,-972.14"/>
<polygon fill="#9a32cd" stroke="#9a32cd" points="373.54,-946.05 363.28,-948.7 372.96,-953.03 373.54,-946.05"/>
<text text-anchor="middle" x="461.5" y="-969" font-family="Helvetica,sans-Serif" font-size="10.00"> ssl</text>
</g>
<!-- Node11 -->
<g id="node11" class="node">
<title>Node11</title>
<g id="a_node11"><a xlink:title=" ">
<polygon fill="none" stroke="#bfbfbf" points="289.5,-833.5 289.5,-852.5 337.5,-852.5 337.5,-833.5 289.5,-833.5"/>
<text text-anchor="middle" x="313.5" y="-840.5" font-family="Helvetica,sans-Serif" font-size="10.00">time_t</text>
</a>
</g>
</g>
<!-- Node11&#45;&gt;Node5 -->
<g id="edge37" class="edge">
<title>Node11&#45;&gt;Node5</title>
<path fill="none" stroke="#9a32cd" stroke-dasharray="5,2" d="M348.03,-842.76C478.92,-841.85 956.17,-838.5 1116.82,-837.37"/>
<polygon fill="#9a32cd" stroke="#9a32cd" points="347.8,-839.27 337.83,-842.84 347.85,-846.27 347.8,-839.27"/>
<text text-anchor="middle" x="740.5" y="-854" font-family="Helvetica,sans-Serif" font-size="10.00"> last_heartbeat</text>
<text text-anchor="middle" x="740.5" y="-843" font-family="Helvetica,sans-Serif" font-size="10.00">last_heartbeat_ack</text>
</g>
<!-- Node11&#45;&gt;Node7 -->
<g id="edge11" class="edge">
<title>Node11&#45;&gt;Node7</title>
<path fill="none" stroke="#9a32cd" stroke-dasharray="5,2" d="M347.71,-847.55C404.62,-855.46 515.35,-871.46 522,-877 540.16,-892.1 526.82,-907.4 540,-927 552.35,-945.38 572.31,-961.64 585.78,-971.4"/>
<polygon fill="#9a32cd" stroke="#9a32cd" points="348.13,-844.07 337.75,-846.17 347.17,-851.01 348.13,-844.07"/>
<text text-anchor="middle" x="461.5" y="-880" font-family="Helvetica,sans-Serif" font-size="10.00"> last_tick</text>
</g>
<!-- Node11&#45;&gt;Node15 -->
<g id="edge18" class="edge">
<title>Node11&#45;&gt;Node15</title>
<path fill="none" stroke="#9a32cd" stroke-dasharray="5,2" d="M347.7,-836.94C403.09,-826.54 509.57,-805.24 522,-793 544.89,-770.46 516.3,-744.69 540,-723 545.63,-717.85 757.99,-685.42 844.44,-672.4"/>
<polygon fill="#9a32cd" stroke="#9a32cd" points="346.85,-833.53 337.66,-838.81 348.14,-840.42 346.85,-833.53"/>
<text text-anchor="middle" x="601" y="-726" font-family="Helvetica,sans-Serif" font-size="10.00"> last_identify</text>
</g>
<!-- Node12 -->
<g id="node12" class="node">
<title>Node12</title>
<g id="a_node12"><a xlink:title=" ">
<polygon fill="none" stroke="#bfbfbf" points="41,-272.5 41,-291.5 97,-291.5 97,-272.5 41,-272.5"/>
<text text-anchor="middle" x="69" y="-279.5" font-family="Helvetica,sans-Serif" font-size="10.00">uint64_t</text>
</a>
</g>
</g>
<!-- Node12&#45;&gt;Node5 -->
<g id="edge39" class="edge">
<title>Node12&#45;&gt;Node5</title>
<path fill="none" stroke="#9a32cd" stroke-dasharray="5,2" d="M107.09,-276.77C230.17,-260.86 634.84,-220.13 944,-323 1018.35,-347.74 1053.54,-343.18 1099,-407 1149.59,-478.03 1166.64,-769.75 1169.53,-827.16"/>
<polygon fill="#9a32cd" stroke="#9a32cd" points="106.51,-273.32 97.05,-278.1 107.42,-280.26 106.51,-273.32"/>
<text text-anchor="middle" x="601" y="-269" font-family="Helvetica,sans-Serif" font-size="10.00"> last_seq</text>
</g>
<!-- Node12&#45;&gt;Node7 -->
<g id="edge12" class="edge">
<title>Node12&#45;&gt;Node7</title>
<path fill="none" stroke="#9a32cd" stroke-dasharray="5,2" d="M73.34,-301.64C89.29,-393.31 160.41,-778.25 244,-862 289.59,-907.68 321.35,-884.93 383,-904 444.9,-923.15 461.21,-925.57 522,-948 541.59,-955.23 563.45,-964.59 579.03,-971.5"/>
<polygon fill="#9a32cd" stroke="#9a32cd" points="76.78,-301 71.63,-291.74 69.88,-302.19 76.78,-301"/>
<text text-anchor="middle" x="313.5" y="-918" font-family="Helvetica,sans-Serif" font-size="10.00"> bytes_in</text>
<text text-anchor="middle" x="313.5" y="-907" font-family="Helvetica,sans-Serif" font-size="10.00">bytes_out</text>
</g>
<!-- Node19 -->
<g id="node19" class="node">
<title>Node19</title>
<g id="a_node19"><a xlink:href="classdpp_1_1managed.html" target="_top" xlink:title="The managed class is the base class for various types that can be stored in a cache that are identifi...">
<polygon fill="none" stroke="black" points="270.5,-272.5 270.5,-291.5 356.5,-291.5 356.5,-272.5 270.5,-272.5"/>
<text text-anchor="middle" x="313.5" y="-279.5" font-family="Helvetica,sans-Serif" font-size="10.00">dpp::managed</text>
</a>
</g>
</g>
<!-- Node12&#45;&gt;Node19 -->
<g id="edge23" class="edge">
<title>Node12&#45;&gt;Node19</title>
<path fill="none" stroke="#9a32cd" stroke-dasharray="5,2" d="M107.62,-282C151.63,-282 224.31,-282 270.23,-282"/>
<polygon fill="#9a32cd" stroke="#9a32cd" points="107.35,-278.5 97.35,-282 107.35,-285.5 107.35,-278.5"/>
<text text-anchor="middle" x="191" y="-285" font-family="Helvetica,sans-Serif" font-size="10.00"> id</text>
</g>
<!-- Node22 -->
<g id="node22" class="node">
<title>Node22</title>
<g id="a_node22"><a xlink:href="structdpp_1_1utility_1_1iconhash.html" target="_top" xlink:title="Store a 128 bit icon hash (profile picture, server icon etc) as a 128 bit binary value made of two ui...">
<polygon fill="none" stroke="black" points="254.5,-348.5 254.5,-367.5 372.5,-367.5 372.5,-348.5 254.5,-348.5"/>
<text text-anchor="middle" x="313.5" y="-355.5" font-family="Helvetica,sans-Serif" font-size="10.00">dpp::utility::iconhash</text>
</a>
</g>
</g>
<!-- Node12&#45;&gt;Node22 -->
<g id="edge28" class="edge">
<title>Node12&#45;&gt;Node22</title>
<path fill="none" stroke="#9a32cd" stroke-dasharray="5,2" d="M106.81,-294.6C141.92,-306.5 196.37,-324.6 244,-339 254.63,-342.21 266.25,-345.52 276.86,-348.45"/>
<polygon fill="#9a32cd" stroke="#9a32cd" points="107.6,-291.17 97,-291.27 105.35,-297.8 107.6,-291.17"/>
<text text-anchor="middle" x="191" y="-348" font-family="Helvetica,sans-Serif" font-size="10.00"> first</text>
<text text-anchor="middle" x="191" y="-337" font-family="Helvetica,sans-Serif" font-size="10.00">second</text>
</g>
<!-- Node32 -->
<g id="node32" class="node">
<title>Node32</title>
<g id="a_node32"><a xlink:href="classdpp_1_1presence.html" target="_top" xlink:title="Represents user presence, e.g. what game they are playing and if they are online.">
<polygon fill="none" stroke="black" points="558.5,-96.5 558.5,-115.5 643.5,-115.5 643.5,-96.5 558.5,-96.5"/>
<text text-anchor="middle" x="601" y="-103.5" font-family="Helvetica,sans-Serif" font-size="10.00">dpp::presence</text>
</a>
</g>
</g>
<!-- Node12&#45;&gt;Node32 -->
<g id="edge48" class="edge">
<title>Node12&#45;&gt;Node32</title>
<path fill="none" stroke="#9a32cd" stroke-dasharray="5,2" d="M77.32,-262.7C89.38,-233.41 116.11,-177.79 156,-146 188.43,-120.16 203.22,-122.5 244,-115 356.18,-94.36 491.58,-98.79 558.45,-102.88"/>
<polygon fill="#9a32cd" stroke="#9a32cd" points="73.98,-261.62 73.55,-272.21 80.49,-264.2 73.98,-261.62"/>
<text text-anchor="middle" x="313.5" y="-129" font-family="Helvetica,sans-Serif" font-size="10.00"> guild_id</text>
<text text-anchor="middle" x="313.5" y="-118" font-family="Helvetica,sans-Serif" font-size="10.00">user_id</text>
</g>
<!-- Node13 -->
<g id="node13" class="node">
<title>Node13</title>
<g id="a_node13"><a xlink:title=" ">
<polygon fill="none" stroke="#bfbfbf" points="244,-1050.5 244,-1069.5 383,-1069.5 383,-1050.5 244,-1050.5"/>
<text text-anchor="middle" x="313.5" y="-1057.5" font-family="Helvetica,sans-Serif" font-size="10.00">function&lt; dpp::socket()&gt;</text>
</a>
</g>
</g>
<!-- Node13&#45;&gt;Node7 -->
<g id="edge13" class="edge">
<title>Node13&#45;&gt;Node7</title>
<path fill="none" stroke="#9a32cd" stroke-dasharray="5,2" d="M393.45,-1059.41C433.11,-1056.91 481.27,-1050.46 522,-1035 549.1,-1024.71 575.81,-1003.05 589.85,-990.51"/>
<polygon fill="#9a32cd" stroke="#9a32cd" points="393.08,-1055.93 383.29,-1059.98 393.47,-1062.92 393.08,-1055.93"/>
<text text-anchor="middle" x="461.5" y="-1072" font-family="Helvetica,sans-Serif" font-size="10.00"> custom_readable_fd</text>
<text text-anchor="middle" x="461.5" y="-1061" font-family="Helvetica,sans-Serif" font-size="10.00">custom_writeable_fd</text>
</g>
<!-- Node14 -->
<g id="node14" class="node">
<title>Node14</title>
<g id="a_node14"><a xlink:title=" ">
<polygon fill="none" stroke="#bfbfbf" points="261.5,-1011.5 261.5,-1030.5 365.5,-1030.5 365.5,-1011.5 261.5,-1011.5"/>
<text text-anchor="middle" x="313.5" y="-1018.5" font-family="Helvetica,sans-Serif" font-size="10.00">function&lt; void()&gt;</text>
</a>
</g>
</g>
<!-- Node14&#45;&gt;Node7 -->
<g id="edge14" class="edge">
<title>Node14&#45;&gt;Node7</title>
<path fill="none" stroke="#9a32cd" stroke-dasharray="5,2" d="M375.62,-1013.05C416.97,-1007.61 472.81,-1000.1 522,-993 533.66,-991.32 546.29,-989.41 557.92,-987.62"/>
<polygon fill="#9a32cd" stroke="#9a32cd" points="375.16,-1009.59 365.7,-1014.36 376.07,-1016.53 375.16,-1009.59"/>
<text text-anchor="middle" x="461.5" y="-1023" font-family="Helvetica,sans-Serif" font-size="10.00"> custom_readable_ready</text>
<text text-anchor="middle" x="461.5" y="-1012" font-family="Helvetica,sans-Serif" font-size="10.00">custom_writeable_ready</text>
</g>
<!-- Node15&#45;&gt;Node5 -->
<g id="edge16" class="edge">
<title>Node15&#45;&gt;Node5</title>
<path fill="none" stroke="#9a32cd" stroke-dasharray="5,2" d="M929.08,-670.01C976.01,-675.12 1048.52,-688.89 1099,-726 1135.86,-753.1 1158.46,-805.6 1166.59,-827.28"/>
<polygon fill="#9a32cd" stroke="#9a32cd" points="929.19,-666.51 918.89,-669 928.5,-673.47 929.19,-666.51"/>
<text text-anchor="middle" x="1030.5" y="-729" font-family="Helvetica,sans-Serif" font-size="10.00"> creator</text>
</g>
<!-- Node16 -->
<g id="node16" class="node">
<title>Node16</title>
<g id="a_node16"><a xlink:title=" ">
<polygon fill="none" stroke="#bfbfbf" points="285.5,-404.5 285.5,-423.5 341.5,-423.5 341.5,-404.5 285.5,-404.5"/>
<text text-anchor="middle" x="313.5" y="-411.5" font-family="Helvetica,sans-Serif" font-size="10.00">uint32_t</text>
</a>
</g>
</g>
<!-- Node16&#45;&gt;Node5 -->
<g id="edge36" class="edge">
<title>Node16&#45;&gt;Node5</title>
<path fill="none" stroke="#9a32cd" stroke-dasharray="5,2" d="M351.88,-414.13C393.68,-413.66 463.24,-411.05 522,-400 586.1,-387.94 612.12,-398.03 662,-356 675.38,-344.73 665.07,-330.11 680,-321 725.91,-292.99 748.75,-308.28 801,-321 999.83,-369.4 1008.47,-488.47 1099,-672 1127.42,-729.61 1156.08,-801.35 1166.19,-827.17"/>
<polygon fill="#9a32cd" stroke="#9a32cd" points="351.59,-410.63 341.62,-414.21 351.64,-417.63 351.59,-410.63"/>
<text text-anchor="middle" x="740.5" y="-379" font-family="Helvetica,sans-Serif" font-size="10.00"> heartbeat_interval</text>
<text text-anchor="middle" x="740.5" y="-368" font-family="Helvetica,sans-Serif" font-size="10.00">intents</text>
<text text-anchor="middle" x="740.5" y="-357" font-family="Helvetica,sans-Serif" font-size="10.00">max_shards</text>
<text text-anchor="middle" x="740.5" y="-346" font-family="Helvetica,sans-Serif" font-size="10.00">reconnects</text>
<text text-anchor="middle" x="740.5" y="-335" font-family="Helvetica,sans-Serif" font-size="10.00">resumes</text>
<text text-anchor="middle" x="740.5" y="-324" font-family="Helvetica,sans-Serif" font-size="10.00">shard_id</text>
</g>
<!-- Node16&#45;&gt;Node15 -->
<g id="edge19" class="edge">
<title>Node16&#45;&gt;Node15</title>
<path fill="none" stroke="#9a32cd" stroke-dasharray="5,2" d="M351.68,-418.8C464.66,-433.41 796.5,-476.57 801,-480 861.02,-525.8 876.25,-625.7 879.63,-657.25"/>
<polygon fill="#9a32cd" stroke="#9a32cd" points="352.13,-415.33 341.76,-417.52 351.23,-422.27 352.13,-415.33"/>
<text text-anchor="middle" x="601" y="-496" font-family="Helvetica,sans-Serif" font-size="10.00"> cluster_id</text>
<text text-anchor="middle" x="601" y="-485" font-family="Helvetica,sans-Serif" font-size="10.00">intents</text>
<text text-anchor="middle" x="601" y="-474" font-family="Helvetica,sans-Serif" font-size="10.00">maxclusters</text>
<text text-anchor="middle" x="601" y="-463" font-family="Helvetica,sans-Serif" font-size="10.00">numshards</text>
</g>
<!-- Node16&#45;&gt;Node18 -->
<g id="edge29" class="edge">
<title>Node16&#45;&gt;Node18</title>
<path fill="none" stroke="#9a32cd" stroke-dasharray="5,2" d="M351.22,-402.56C366.53,-398.01 384.54,-392.93 401,-389 454.24,-376.28 469.27,-380.7 522,-366 541.07,-360.68 562.06,-352.75 577.47,-346.53"/>
<polygon fill="#9a32cd" stroke="#9a32cd" points="350.16,-399.23 341.6,-405.46 352.18,-405.93 350.16,-399.23"/>
<text text-anchor="middle" x="461.5" y="-392" font-family="Helvetica,sans-Serif" font-size="10.00"> flags</text>
</g>
<!-- Node17 -->
<g id="node17" class="node">
<title>Node17</title>
<g id="a_node17"><a xlink:title=" ">
<polygon fill="none" stroke="#bfbfbf" points="576,-743.5 576,-762.5 626,-762.5 626,-743.5 576,-743.5"/>
<text text-anchor="middle" x="601" y="-750.5" font-family="Helvetica,sans-Serif" font-size="10.00">double</text>
</a>
</g>
</g>
<!-- Node17&#45;&gt;Node5 -->
<g id="edge42" class="edge">
<title>Node17&#45;&gt;Node5</title>
<path fill="none" stroke="#9a32cd" stroke-dasharray="5,2" d="M636.31,-752.54C718.11,-752.3 930.36,-756.79 1099,-805 1117.98,-810.43 1138.4,-820.07 1152.45,-827.36"/>
<polygon fill="#9a32cd" stroke="#9a32cd" points="636.08,-749.04 626.1,-752.59 636.12,-756.04 636.08,-749.04"/>
<text text-anchor="middle" x="881.5" y="-776" font-family="Helvetica,sans-Serif" font-size="10.00"> websocket_ping</text>
</g>
<!-- Node17&#45;&gt;Node15 -->
<g id="edge20" class="edge">
<title>Node17&#45;&gt;Node15</title>
<path fill="none" stroke="#9a32cd" stroke-dasharray="5,2" d="M635.75,-740.11C649.36,-735.24 665.29,-729.92 680,-726 732.89,-711.9 748.81,-719.52 801,-703 822.96,-696.05 846.87,-684.66 862.67,-676.56"/>
<polygon fill="#9a32cd" stroke="#9a32cd" points="634.5,-736.85 626.31,-743.56 636.9,-743.42 634.5,-736.85"/>
<text text-anchor="middle" x="740.5" y="-729" font-family="Helvetica,sans-Serif" font-size="10.00"> rest_ping</text>
</g>
<!-- Node18&#45;&gt;Node15 -->
<g id="edge21" class="edge">
<title>Node18&#45;&gt;Node15</title>
<path fill="none" stroke="#9a32cd" stroke-dasharray="5,2" d="M620.71,-353.33C635.74,-365.57 657.9,-381.74 680,-391 730.49,-412.15 760.1,-377.61 801,-414 876.68,-481.33 881,-619.78 880.72,-657.39"/>
<polygon fill="#9a32cd" stroke="#9a32cd" points="622.66,-350.4 612.75,-346.66 618.17,-355.77 622.66,-350.4"/>
<text text-anchor="middle" x="740.5" y="-417" font-family="Helvetica,sans-Serif" font-size="10.00"> me</text>
</g>
<!-- Node19&#45;&gt;Node18 -->
<g id="edge22" class="edge">
<title>Node19&#45;&gt;Node18</title>
<path fill="none" stroke="midnightblue" d="M366.62,-287.59C408.83,-292.64 469.66,-301.11 522,-313 538.99,-316.86 557.66,-322.55 572.48,-327.42"/>
<polygon fill="midnightblue" stroke="midnightblue" points="366.91,-284.1 356.57,-286.41 366.1,-291.05 366.91,-284.1"/>
</g>
<!-- Node20 -->
<g id="node20" class="node">
<title>Node20</title>
<g id="a_node20"><a xlink:href="structdpp_1_1json__interface.html" target="_top" xlink:title=" ">
<polygon fill="none" stroke="black" points="258.5,-185 258.5,-215 368.5,-215 368.5,-185 258.5,-185"/>
<text text-anchor="start" x="266.5" y="-203" font-family="Helvetica,sans-Serif" font-size="10.00">dpp::json_interface</text>
<text text-anchor="middle" x="313.5" y="-192" font-family="Helvetica,sans-Serif" font-size="10.00">&lt; user &gt;</text>
</a>
</g>
</g>
<!-- Node20&#45;&gt;Node18 -->
<g id="edge24" class="edge">
<title>Node20&#45;&gt;Node18</title>
<path fill="none" stroke="midnightblue" d="M363.61,-218.7C406.26,-235.5 469.27,-261.65 522,-289 545.01,-300.93 570.34,-317.13 585.71,-327.32"/>
<polygon fill="midnightblue" stroke="midnightblue" points="364.89,-215.44 354.3,-215.06 362.34,-221.96 364.89,-215.44"/>
</g>
<!-- Node21 -->
<g id="node21" class="node">
<title>Node21</title>
<g id="a_node21"><a xlink:href="structdpp_1_1json__interface.html" target="_top" xlink:title="Represents an interface for an object that can optionally implement functions for converting to and f...">
<polygon fill="none" stroke="black" points="0,-108.5 0,-127.5 138,-127.5 138,-108.5 0,-108.5"/>
<text text-anchor="middle" x="69" y="-115.5" font-family="Helvetica,sans-Serif" font-size="10.00">dpp::json_interface&lt; T &gt;</text>
</a>
</g>
</g>
<!-- Node21&#45;&gt;Node20 -->
<g id="edge25" class="edge">
<title>Node21&#45;&gt;Node20</title>
<path fill="none" stroke="orange" stroke-dasharray="5,2" d="M107.89,-130.81C151.21,-145.46 222.04,-169.41 267.96,-184.94"/>
<polygon fill="orange" stroke="orange" points="108.89,-127.45 98.29,-127.57 106.64,-134.09 108.89,-127.45"/>
<text text-anchor="middle" x="191" y="-172" font-family="Helvetica,sans-Serif" font-size="10.00"> &lt; user &gt;</text>
</g>
<!-- Node33 -->
<g id="node33" class="node">
<title>Node33</title>
<g id="a_node33"><a xlink:href="structdpp_1_1json__interface.html" target="_top" xlink:title=" ">
<polygon fill="none" stroke="black" points="258.5,-39 258.5,-69 368.5,-69 368.5,-39 258.5,-39"/>
<text text-anchor="start" x="266.5" y="-57" font-family="Helvetica,sans-Serif" font-size="10.00">dpp::json_interface</text>
<text text-anchor="middle" x="313.5" y="-46" font-family="Helvetica,sans-Serif" font-size="10.00">&lt; presence &gt;</text>
</a>
</g>
</g>
<!-- Node21&#45;&gt;Node33 -->
<g id="edge47" class="edge">
<title>Node21&#45;&gt;Node33</title>
<path fill="none" stroke="orange" stroke-dasharray="5,2" d="M97.76,-104.07C114.31,-96.28 135.94,-86.95 156,-81 189.3,-71.11 227.74,-64.42 258.18,-60.17"/>
<polygon fill="orange" stroke="orange" points="96.15,-100.96 88.65,-108.45 99.18,-107.27 96.15,-100.96"/>
<text text-anchor="middle" x="191" y="-84" font-family="Helvetica,sans-Serif" font-size="10.00"> &lt; presence &gt;</text>
</g>
<!-- Node22&#45;&gt;Node18 -->
<g id="edge27" class="edge">
<title>Node22&#45;&gt;Node18</title>
<path fill="none" stroke="#9a32cd" stroke-dasharray="5,2" d="M382.67,-352.99C442.06,-348.62 525.4,-342.49 569.63,-339.23"/>
<polygon fill="#9a32cd" stroke="#9a32cd" points="382.34,-349.5 372.62,-353.73 382.85,-356.48 382.34,-349.5"/>
<text text-anchor="middle" x="461.5" y="-355" font-family="Helvetica,sans-Serif" font-size="10.00"> avatar</text>
</g>
<!-- Node23 -->
<g id="node23" class="node">
<title>Node23</title>
<g id="a_node23"><a xlink:title=" ">
<polygon fill="none" stroke="#bfbfbf" points="285.5,-310.5 285.5,-329.5 341.5,-329.5 341.5,-310.5 285.5,-310.5"/>
<text text-anchor="middle" x="313.5" y="-317.5" font-family="Helvetica,sans-Serif" font-size="10.00">uint16_t</text>
</a>
</g>
</g>
<!-- Node23&#45;&gt;Node18 -->
<g id="edge30" class="edge">
<title>Node23&#45;&gt;Node18</title>
<path fill="none" stroke="#9a32cd" stroke-dasharray="5,2" d="M352.01,-317.96C393.66,-316.22 462.83,-314.85 522,-321 537.95,-322.66 555.46,-326.1 569.84,-329.37"/>
<polygon fill="#9a32cd" stroke="#9a32cd" points="351.62,-314.48 341.78,-318.42 351.93,-321.47 351.62,-314.48"/>
<text text-anchor="middle" x="461.5" y="-324" font-family="Helvetica,sans-Serif" font-size="10.00"> discriminator</text>
</g>
<!-- Node24 -->
<g id="node24" class="node">
<title>Node24</title>
<g id="a_node24"><a xlink:title=" ">
<polygon fill="none" stroke="#bfbfbf" points="288.5,-146.5 288.5,-165.5 338.5,-165.5 338.5,-146.5 288.5,-146.5"/>
<text text-anchor="middle" x="313.5" y="-153.5" font-family="Helvetica,sans-Serif" font-size="10.00">uint8_t</text>
</a>
</g>
</g>
<!-- Node24&#45;&gt;Node18 -->
<g id="edge31" class="edge">
<title>Node24&#45;&gt;Node18</title>
<path fill="none" stroke="#9a32cd" stroke-dasharray="5,2" d="M348.78,-157.89C393.97,-162.15 473.41,-176 522,-221 537.2,-235.08 529.31,-246.25 540,-264 554.9,-288.73 577.67,-313.96 590.45,-327.31"/>
<polygon fill="#9a32cd" stroke="#9a32cd" points="348.86,-154.39 338.6,-157.04 348.28,-161.36 348.86,-154.39"/>
<text text-anchor="middle" x="461.5" y="-224" font-family="Helvetica,sans-Serif" font-size="10.00"> refcount</text>
</g>
<!-- Node24&#45;&gt;Node32 -->
<g id="edge49" class="edge">
<title>Node24&#45;&gt;Node32</title>
<path fill="none" stroke="#9a32cd" stroke-dasharray="5,2" d="M348.83,-150.11C389.99,-143.03 461.05,-130.76 522,-120 533.79,-117.92 546.57,-115.64 558.31,-113.53"/>
<polygon fill="#9a32cd" stroke="#9a32cd" points="348.05,-146.69 338.79,-151.83 349.23,-153.59 348.05,-146.69"/>
<text text-anchor="middle" x="461.5" y="-144" font-family="Helvetica,sans-Serif" font-size="10.00"> flags</text>
</g>
<!-- Node25 -->
<g id="node25" class="node">
<title>Node25</title>
<g id="a_node25"><a xlink:href="structdpp_1_1cache__policy__t.html" target="_top" xlink:title="Represents the caching policy of the cluster.">
<polygon fill="none" stroke="black" points="544.5,-594.5 544.5,-613.5 657.5,-613.5 657.5,-594.5 544.5,-594.5"/>
<text text-anchor="middle" x="601" y="-601.5" font-family="Helvetica,sans-Serif" font-size="10.00">dpp::cache_policy_t</text>
</a>
</g>
</g>
<!-- Node25&#45;&gt;Node15 -->
<g id="edge32" class="edge">
<title>Node25&#45;&gt;Node15</title>
<path fill="none" stroke="#9a32cd" stroke-dasharray="5,2" d="M661.35,-615.43C667.65,-616.64 673.96,-617.84 680,-619 733.77,-629.28 747.91,-628.66 801,-642 818.4,-646.37 837.6,-652.38 852.77,-657.4"/>
<polygon fill="#9a32cd" stroke="#9a32cd" points="661.99,-611.99 651.51,-613.54 660.67,-618.86 661.99,-611.99"/>
<text text-anchor="middle" x="740.5" y="-645" font-family="Helvetica,sans-Serif" font-size="10.00"> cache_policy</text>
</g>
<!-- Node26 -->
<g id="node26" class="node">
<title>Node26</title>
<g id="a_node26"><a xlink:title=" ">
<polygon fill="none" stroke="#bfbfbf" points="249.5,-496.5 249.5,-515.5 377.5,-515.5 377.5,-496.5 249.5,-496.5"/>
<text text-anchor="middle" x="313.5" y="-503.5" font-family="Helvetica,sans-Serif" font-size="10.00">cache_policy_setting_t</text>
</a>
</g>
</g>
<!-- Node26&#45;&gt;Node25 -->
<g id="edge33" class="edge">
<title>Node26&#45;&gt;Node25</title>
<path fill="none" stroke="#9a32cd" stroke-dasharray="5,2" d="M351.92,-518.84C409.94,-538.76 520.31,-576.65 571.99,-594.39"/>
<polygon fill="#9a32cd" stroke="#9a32cd" points="352.99,-515.51 342.39,-515.58 350.72,-522.13 352.99,-515.51"/>
<text text-anchor="middle" x="461.5" y="-601" font-family="Helvetica,sans-Serif" font-size="10.00"> emoji_policy</text>
<text text-anchor="middle" x="461.5" y="-590" font-family="Helvetica,sans-Serif" font-size="10.00">role_policy</text>
<text text-anchor="middle" x="461.5" y="-579" font-family="Helvetica,sans-Serif" font-size="10.00">user_policy</text>
</g>
<!-- Node27 -->
<g id="node27" class="node">
<title>Node27</title>
<g id="a_node27"><a xlink:title=" ">
<polygon fill="none" stroke="#bfbfbf" points="540,-788.5 540,-807.5 662,-807.5 662,-788.5 540,-788.5"/>
<text text-anchor="middle" x="601" y="-795.5" font-family="Helvetica,sans-Serif" font-size="10.00">websocket_protocol_t</text>
</a>
</g>
</g>
<!-- Node27&#45;&gt;Node5 -->
<g id="edge43" class="edge">
<title>Node27&#45;&gt;Node5</title>
<path fill="none" stroke="#9a32cd" stroke-dasharray="5,2" d="M672.58,-797.9C769.23,-798.59 948.01,-802.83 1099,-823 1107.84,-824.18 1117.24,-825.78 1126.21,-827.48"/>
<polygon fill="#9a32cd" stroke="#9a32cd" points="672.37,-794.4 662.35,-797.84 672.33,-801.4 672.37,-794.4"/>
<text text-anchor="middle" x="881.5" y="-810" font-family="Helvetica,sans-Serif" font-size="10.00"> protocol</text>
</g>
<!-- Node27&#45;&gt;Node15 -->
<g id="edge34" class="edge">
<title>Node27&#45;&gt;Node15</title>
<path fill="none" stroke="#9a32cd" stroke-dasharray="5,2" d="M671.76,-786.41C711.45,-777.81 761.05,-763.57 801,-741 816.84,-732.05 853.98,-694.53 871.3,-676.61"/>
<polygon fill="#9a32cd" stroke="#9a32cd" points="670.97,-783 661.9,-788.47 672.4,-789.85 670.97,-783"/>
<text text-anchor="middle" x="740.5" y="-787" font-family="Helvetica,sans-Serif" font-size="10.00"> ws_mode</text>
</g>
<!-- Node28 -->
<g id="node28" class="node">
<title>Node28</title>
<g id="a_node28"><a xlink:title=" ">
<polygon fill="none" stroke="#bfbfbf" points="553,-539.5 553,-558.5 649,-558.5 649,-539.5 553,-539.5"/>
<text text-anchor="middle" x="601" y="-546.5" font-family="Helvetica,sans-Serif" font-size="10.00">event_router_t&lt;</text>
</a>
</g>
</g>
<!-- Node28&#45;&gt;Node15 -->
<g id="edge35" class="edge">
<title>Node28&#45;&gt;Node15</title>
<path fill="none" stroke="#9a32cd" stroke-dasharray="5,2" d="M646.61,-535.12C652.13,-532.3 657.43,-528.95 662,-525 674.05,-514.58 666.19,-501.95 680,-494 703.3,-480.58 778.36,-479.49 801,-494 860.27,-531.99 875.95,-626.53 879.54,-657.21"/>
<polygon fill="#9a32cd" stroke="#9a32cd" points="644.86,-532.08 637.2,-539.4 647.75,-538.45 644.86,-532.08"/>
<text text-anchor="middle" x="740.5" y="-607" font-family="Helvetica,sans-Serif" font-size="10.00"> on_autocomplete</text>
<text text-anchor="middle" x="740.5" y="-596" font-family="Helvetica,sans-Serif" font-size="10.00">on_button_click</text>
<text text-anchor="middle" x="740.5" y="-585" font-family="Helvetica,sans-Serif" font-size="10.00">on_channel_create</text>
<text text-anchor="middle" x="740.5" y="-574" font-family="Helvetica,sans-Serif" font-size="10.00">on_channel_delete</text>
<text text-anchor="middle" x="740.5" y="-563" font-family="Helvetica,sans-Serif" font-size="10.00">on_channel_pins_update</text>
<text text-anchor="middle" x="740.5" y="-552" font-family="Helvetica,sans-Serif" font-size="10.00">on_channel_update</text>
<text text-anchor="middle" x="740.5" y="-541" font-family="Helvetica,sans-Serif" font-size="10.00">on_form_submit</text>
<text text-anchor="middle" x="740.5" y="-530" font-family="Helvetica,sans-Serif" font-size="10.00">on_guild_ban_add</text>
<text text-anchor="middle" x="740.5" y="-519" font-family="Helvetica,sans-Serif" font-size="10.00">on_guild_ban_remove</text>
<text text-anchor="middle" x="740.5" y="-508" font-family="Helvetica,sans-Serif" font-size="10.00">on_guild_create</text>
<text text-anchor="middle" x="740.5" y="-497" font-family="Helvetica,sans-Serif" font-size="10.00">...</text>
</g>
<!-- Node29 -->
<g id="node29" class="node">
<title>Node29</title>
<g id="a_node29"><a xlink:title=" ">
<polygon fill="none" stroke="#bfbfbf" points="825,-1017.5 825,-1036.5 938,-1036.5 938,-1017.5 825,-1017.5"/>
<text text-anchor="middle" x="881.5" y="-1024.5" font-family="Helvetica,sans-Serif" font-size="10.00">native_handle_type</text>
</a>
</g>
</g>
<!-- Node29&#45;&gt;Node5 -->
<g id="edge38" class="edge">
<title>Node29&#45;&gt;Node5</title>
<path fill="none" stroke="#9a32cd" stroke-dasharray="5,2" d="M948.6,-1033C995.07,-1033.73 1056.32,-1027.28 1099,-995 1149.37,-956.9 1164.88,-874.99 1168.83,-846.78"/>
<polygon fill="#9a32cd" stroke="#9a32cd" points="948.42,-1029.49 938.33,-1032.72 948.23,-1036.49 948.42,-1029.49"/>
<text text-anchor="middle" x="1030.5" y="-1035" font-family="Helvetica,sans-Serif" font-size="10.00"> thread_id</text>
</g>
<!-- Node30 -->
<g id="node30" class="node">
<title>Node30</title>
<g id="a_node30"><a xlink:title=" ">
<polygon fill="none" stroke="#bfbfbf" points="847,-903.5 847,-922.5 916,-922.5 916,-903.5 847,-903.5"/>
<text text-anchor="middle" x="881.5" y="-910.5" font-family="Helvetica,sans-Serif" font-size="10.00">std::mutex</text>
</a>
</g>
</g>
<!-- Node30&#45;&gt;Node5 -->
<g id="edge41" class="edge">
<title>Node30&#45;&gt;Node5</title>
<path fill="none" stroke="#9a32cd" stroke-dasharray="5,2" d="M926.44,-912.09C971.14,-909.94 1041.78,-903.12 1099,-882 1121.73,-873.61 1144.83,-857.18 1158.27,-846.66"/>
<polygon fill="#9a32cd" stroke="#9a32cd" points="926.05,-908.6 916.21,-912.52 926.35,-915.6 926.05,-908.6"/>
<text text-anchor="middle" x="1030.5" y="-912" font-family="Helvetica,sans-Serif" font-size="10.00"> voice_mutex</text>
</g>
<!-- Node31 -->
<g id="node31" class="node">
<title>Node31</title>
<g id="a_node31"><a xlink:title=" ">
<polygon fill="none" stroke="#bfbfbf" points="831,-865.5 831,-884.5 932,-884.5 932,-865.5 831,-865.5"/>
<text text-anchor="middle" x="881.5" y="-872.5" font-family="Helvetica,sans-Serif" font-size="10.00">unordered_map&lt;</text>
</a>
</g>
</g>
<!-- Node31&#45;&gt;Node5 -->
<g id="edge44" class="edge">
<title>Node31&#45;&gt;Node5</title>
<path fill="none" stroke="#9a32cd" stroke-dasharray="5,2" d="M942.24,-869.74C985.82,-865.58 1046.23,-859.11 1099,-851 1107.32,-849.72 1116.15,-848.15 1124.65,-846.53"/>
<polygon fill="#9a32cd" stroke="#9a32cd" points="941.73,-866.28 932.1,-870.7 942.38,-873.25 941.73,-866.28"/>
<text text-anchor="middle" x="1030.5" y="-870" font-family="Helvetica,sans-Serif" font-size="10.00"> connecting_voice_channels</text>
</g>
<!-- Node32&#45;&gt;Node1 -->
<g id="edge45" class="edge">
<title>Node32&#45;&gt;Node1</title>
<path fill="none" stroke="#9a32cd" stroke-dasharray="5,2" d="M622.8,-121.72C667.45,-153.84 776.84,-224 880.5,-224 880.5,-224 880.5,-224 1351,-224 1383.3,-224 1419.1,-226.36 1448.95,-228.98"/>
<polygon fill="#9a32cd" stroke="#9a32cd" points="624.66,-118.74 614.52,-115.66 620.52,-124.39 624.66,-118.74"/>
<text text-anchor="middle" x="1171" y="-227" font-family="Helvetica,sans-Serif" font-size="10.00"> rich_presence</text>
</g>
<!-- Node33&#45;&gt;Node32 -->
<g id="edge46" class="edge">
<title>Node33&#45;&gt;Node32</title>
<path fill="none" stroke="midnightblue" d="M378.51,-65.66C433.43,-75.66 510.97,-89.78 558.24,-98.39"/>
<polygon fill="midnightblue" stroke="midnightblue" points="379,-62.19 368.54,-63.84 377.75,-69.08 379,-62.19"/>
</g>
<!-- Node34 -->
<g id="node34" class="node">
<title>Node34</title>
<g id="a_node34"><a xlink:title=" ">
<polygon fill="none" stroke="#bfbfbf" points="285.5,-0.5 285.5,-19.5 341.5,-19.5 341.5,-0.5 285.5,-0.5"/>
<text text-anchor="middle" x="313.5" y="-7.5" font-family="Helvetica,sans-Serif" font-size="10.00">vector&lt;</text>
</a>
</g>
</g>
<!-- Node34&#45;&gt;Node32 -->
<g id="edge50" class="edge">
<title>Node34&#45;&gt;Node32</title>
<path fill="none" stroke="#9a32cd" stroke-dasharray="5,2" d="M351.78,-14.25C394.26,-19.99 465.15,-32.36 522,-56 547.25,-66.5 573.36,-85.1 588.05,-96.42"/>
<polygon fill="#9a32cd" stroke="#9a32cd" points="351.98,-10.75 341.62,-12.93 351.08,-17.69 351.98,-10.75"/>
<text text-anchor="middle" x="461.5" y="-59" font-family="Helvetica,sans-Serif" font-size="10.00"> activities</text>
</g>
</g>
</svg>
        <g id="navigator" transform="translate(0 0)" fill="#404254">
                <rect fill="#f2f5e9" fill-opacity="0.5" stroke="#606060" stroke-width=".5" x="0" y="0" width="60" height="60"/>
                <use id="zoomplus" xlink:href="#zoomPlus" x="17" y="9" onmousedown="handleZoom(evt,'in')"/>
                <use id="zoomminus" xlink:href="#zoomMin" x="42" y="9" onmousedown="handleZoom(evt,'out')"/>
                <use id="reset" xlink:href="#resetDef" x="30" y="36" onmousedown="handleReset()"/>
                <g id="arrowUp" xlink:href="#dirArrow" transform="translate(30 24)" onmousedown="handlePan(0,-1)">
                  <use xlink:href="#rim" fill="#404040">
                        <set attributeName="fill" to="#808080" begin="arrowUp.mouseover" end="arrowUp.mouseout"/>
                  </use>
                  <path fill="none" stroke="white" stroke-width="1.5" d="M0,-3.0v7 M-2.5,-0.5L0,-3.0L2.5,-0.5"/>
                </g>
                <g id="arrowRight" xlink:href="#dirArrow" transform="rotate(90) translate(36 -43)" onmousedown="handlePan(1,0)">
                  <use xlink:href="#rim" fill="#404040">
                        <set attributeName="fill" to="#808080" begin="arrowRight.mouseover" end="arrowRight.mouseout"/>
                  </use>
                  <path fill="none" stroke="white" stroke-width="1.5" d="M0,-3.0v7 M-2.5,-0.5L0,-3.0L2.5,-0.5"/>
                </g>
                <g id="arrowDown" xlink:href="#dirArrow" transform="rotate(180) translate(-30 -48)" onmousedown="handlePan(0,1)">
                  <use xlink:href="#rim" fill="#404040">
                        <set attributeName="fill" to="#808080" begin="arrowDown.mouseover" end="arrowDown.mouseout"/>
                  </use>
                  <path fill="none" stroke="white" stroke-width="1.5" d="M0,-3.0v7 M-2.5,-0.5L0,-3.0L2.5,-0.5"/>
                </g>
                <g id="arrowLeft" xlink:href="#dirArrow" transform="rotate(270) translate(-36 17)" onmousedown="handlePan(-1,0)">
                  <use xlink:href="#rim" fill="#404040">
                        <set attributeName="fill" to="#808080" begin="arrowLeft.mouseover" end="arrowLeft.mouseout"/>
                  </use>
                  <path fill="none" stroke="white" stroke-width="1.5" d="M0,-3.0v7 M-2.5,-0.5L0,-3.0L2.5,-0.5"/>
                </g>
        </g>
        <svg viewBox="0 0 15 15" width="100%" height="30px" preserveAspectRatio="xMaxYMin meet">
         <g id="arrow_out" transform="scale(0.3 0.3)">
          <a xlink:href="structdpp_1_1presence__update__t__coll__graph_org.svg" target="_base">
           <rect id="button" ry="5" rx="5" y="6" x="6" height="38" width="38"
                fill="#f2f5e9" fill-opacity="0.5" stroke="#606060" stroke-width="1.0"/>
           <path id="arrow"
             d="M 11.500037,31.436501 C 11.940474,20.09759 22.043105,11.32322 32.158766,21.979434 L 37.068811,17.246167 C 37.068811,17.246167 37.088388,32 37.088388,32 L 22.160133,31.978069 C 22.160133,31.978069 26.997745,27.140456 26.997745,27.140456 C 18.528582,18.264221 13.291696,25.230495 11.500037,31.436501 z"
             style="fill:#404040;"/>
          </a>
         </g>
        </svg>
</svg>
