<?xml version="1.0" encoding="UTF-8" standalone="no"?>
<!DOCTYPE svg PUBLIC "-//W3C//DTD SVG 1.1//EN"
 "http://www.w3.org/Graphics/SVG/1.1/DTD/svg11.dtd">
<!-- Generated by graphviz version 2.43.0 (0)
 -->
<!-- Title: dpp::message Pages: 1 -->
<svg width="1120pt" height="1338pt"
 viewBox="0.00 0.00 1120.00 1338.00" xmlns="http://www.w3.org/2000/svg" xmlns:xlink="http://www.w3.org/1999/xlink">
<g id="graph0" class="graph" transform="scale(1 1) rotate(0) translate(4 1334)">
<title>dpp::message</title>
<!-- Node1 -->
<g id="node1" class="node">
<title>Node1</title>
<g id="a_node1"><a xlink:title="Represents messages sent and received on Discord.">
<polygon fill="#bfbfbf" stroke="black" points="1027,-697.5 1027,-716.5 1112,-716.5 1112,-697.5 1027,-697.5"/>
<text text-anchor="middle" x="1069.5" y="-704.5" font-family="Helvetica,sans-Serif" font-size="10.00">dpp::message</text>
</a>
</g>
</g>
<!-- Node2 -->
<g id="node2" class="node">
<title>Node2</title>
<g id="a_node2"><a xlink:href="classdpp_1_1managed.html" target="_top" xlink:title="The managed class is the base class for various types that can be stored in a cache that are identifi...">
<polygon fill="none" stroke="black" points="242,-575.5 242,-594.5 328,-594.5 328,-575.5 242,-575.5"/>
<text text-anchor="middle" x="285" y="-582.5" font-family="Helvetica,sans-Serif" font-size="10.00">dpp::managed</text>
</a>
</g>
</g>
<!-- Node2&#45;&gt;Node1 -->
<g id="edge1" class="edge">
<title>Node2&#45;&gt;Node1</title>
<path fill="none" stroke="midnightblue" d="M332.09,-597.64C337.85,-599.59 343.61,-601.72 349,-604 357.43,-607.56 358.14,-611.7 367,-614 396.26,-621.58 409.7,-630.53 435,-614 451.66,-603.12 437.03,-584.87 453,-573 609.32,-456.86 696.73,-547.5 891,-561 943.63,-564.66 966.36,-542.92 1009,-574 1051.11,-604.7 1063.98,-672.11 1067.4,-697.27"/>
<polygon fill="midnightblue" stroke="midnightblue" points="333.04,-594.28 322.45,-594.55 330.9,-600.94 333.04,-594.28"/>
</g>
<!-- Node4 -->
<g id="node4" class="node">
<title>Node4</title>
<g id="a_node4"><a xlink:href="classdpp_1_1user.html" target="_top" xlink:title="Represents a user on discord. May or may not be a member of a dpp::guild.">
<polygon fill="none" stroke="black" points="483,-407.5 483,-426.5 545,-426.5 545,-407.5 483,-407.5"/>
<text text-anchor="middle" x="514" y="-414.5" font-family="Helvetica,sans-Serif" font-size="10.00">dpp::user</text>
</a>
</g>
</g>
<!-- Node2&#45;&gt;Node4 -->
<g id="edge5" class="edge">
<title>Node2&#45;&gt;Node4</title>
<path fill="none" stroke="midnightblue" d="M305.87,-568.85C322.14,-555.74 345.83,-536.88 367,-521 414.79,-485.13 473.02,-444.57 499.15,-426.53"/>
<polygon fill="midnightblue" stroke="midnightblue" points="303.24,-566.48 297.66,-575.49 307.64,-571.92 303.24,-566.48"/>
</g>
<!-- Node3 -->
<g id="node3" class="node">
<title>Node3</title>
<g id="a_node3"><a xlink:title=" ">
<polygon fill="none" stroke="#bfbfbf" points="41,-746.5 41,-765.5 97,-765.5 97,-746.5 41,-746.5"/>
<text text-anchor="middle" x="69" y="-753.5" font-family="Helvetica,sans-Serif" font-size="10.00">uint64_t</text>
</a>
</g>
</g>
<!-- Node3&#45;&gt;Node1 -->
<g id="edge3" class="edge">
<title>Node3&#45;&gt;Node1</title>
<path fill="none" stroke="#9a32cd" stroke-dasharray="5,2" d="M80.29,-774.51C107.24,-820.26 184.72,-935 284,-935 284,-935 284,-935 815,-935 947.89,-935 1042.66,-759.66 1063.97,-716.51"/>
<polygon fill="#9a32cd" stroke="#9a32cd" points="83.2,-772.55 75.18,-765.62 77.13,-776.04 83.2,-772.55"/>
<text text-anchor="middle" x="514" y="-960" font-family="Helvetica,sans-Serif" font-size="10.00"> channel_id</text>
<text text-anchor="middle" x="514" y="-949" font-family="Helvetica,sans-Serif" font-size="10.00">guild_id</text>
<text text-anchor="middle" x="514" y="-938" font-family="Helvetica,sans-Serif" font-size="10.00">webhook_id</text>
</g>
<!-- Node3&#45;&gt;Node2 -->
<g id="edge2" class="edge">
<title>Node3&#45;&gt;Node2</title>
<path fill="none" stroke="#9a32cd" stroke-dasharray="5,2" d="M74.23,-736.52C82.88,-701.84 106.16,-629.96 156,-597 181.04,-580.44 215.1,-577.97 241.79,-579.35"/>
<polygon fill="#9a32cd" stroke="#9a32cd" points="70.79,-735.84 71.92,-746.37 77.61,-737.44 70.79,-735.84"/>
<text text-anchor="middle" x="179.5" y="-600" font-family="Helvetica,sans-Serif" font-size="10.00"> id</text>
</g>
<!-- Node9 -->
<g id="node9" class="node">
<title>Node9</title>
<g id="a_node9"><a xlink:href="structdpp_1_1utility_1_1iconhash.html" target="_top" xlink:title="Store a 128 bit icon hash (profile picture, server icon etc) as a 128 bit binary value made of two ui...">
<polygon fill="none" stroke="black" points="226,-613.5 226,-632.5 344,-632.5 344,-613.5 226,-613.5"/>
<text text-anchor="middle" x="285" y="-620.5" font-family="Helvetica,sans-Serif" font-size="10.00">dpp::utility::iconhash</text>
</a>
</g>
</g>
<!-- Node3&#45;&gt;Node9 -->
<g id="edge11" class="edge">
<title>Node3&#45;&gt;Node9</title>
<path fill="none" stroke="#9a32cd" stroke-dasharray="5,2" d="M76.11,-736.64C86.8,-706.47 112.05,-649.17 156,-625 180.25,-611.67 211.18,-610.83 236.57,-613.49"/>
<polygon fill="#9a32cd" stroke="#9a32cd" points="72.69,-735.83 72.82,-746.42 79.33,-738.06 72.69,-735.83"/>
<text text-anchor="middle" x="179.5" y="-639" font-family="Helvetica,sans-Serif" font-size="10.00"> first</text>
<text text-anchor="middle" x="179.5" y="-628" font-family="Helvetica,sans-Serif" font-size="10.00">second</text>
</g>
<!-- Node13 -->
<g id="node13" class="node">
<title>Node13</title>
<g id="a_node13"><a xlink:href="classdpp_1_1guild__member.html" target="_top" xlink:title="Represents dpp::user membership upon a dpp::guild. This contains the user&#39;s nickname,...">
<polygon fill="none" stroke="black" points="758.5,-765.5 758.5,-784.5 869.5,-784.5 869.5,-765.5 758.5,-765.5"/>
<text text-anchor="middle" x="814" y="-772.5" font-family="Helvetica,sans-Serif" font-size="10.00">dpp::guild_member</text>
</a>
</g>
</g>
<!-- Node3&#45;&gt;Node13 -->
<g id="edge18" class="edge">
<title>Node3&#45;&gt;Node13</title>
<path fill="none" stroke="#9a32cd" stroke-dasharray="5,2" d="M107.08,-763.39C175.23,-776.54 325.14,-803.54 453,-813 507.07,-817 520.79,-814.13 575,-813 639.04,-811.67 656.04,-818.78 719,-807 744.25,-802.28 771.95,-792.21 790.7,-784.62"/>
<polygon fill="#9a32cd" stroke="#9a32cd" points="107.73,-759.95 97.25,-761.47 106.39,-766.82 107.73,-759.95"/>
<text text-anchor="middle" x="401" y="-825" font-family="Helvetica,sans-Serif" font-size="10.00"> guild_id</text>
<text text-anchor="middle" x="401" y="-814" font-family="Helvetica,sans-Serif" font-size="10.00">user_id</text>
</g>
<!-- Node18 -->
<g id="node18" class="node">
<title>Node18</title>
<g id="a_node18"><a xlink:href="structdpp_1_1message_1_1message__ref.html" target="_top" xlink:title="Reference to another message, e.g. a reply.">
<polygon fill="none" stroke="black" points="737,-963.5 737,-982.5 891,-982.5 891,-963.5 737,-963.5"/>
<text text-anchor="middle" x="814" y="-970.5" font-family="Helvetica,sans-Serif" font-size="10.00">dpp::message::message_ref</text>
</a>
</g>
</g>
<!-- Node3&#45;&gt;Node18 -->
<g id="edge29" class="edge">
<title>Node3&#45;&gt;Node18</title>
<path fill="none" stroke="#9a32cd" stroke-dasharray="5,2" d="M72.27,-775.94C78.03,-816.34 97.22,-907.53 156,-949 202.43,-981.76 574.13,-978.08 737,-974.82"/>
<polygon fill="#9a32cd" stroke="#9a32cd" points="75.71,-775.24 70.95,-765.77 68.76,-776.13 75.71,-775.24"/>
<text text-anchor="middle" x="401" y="-1001" font-family="Helvetica,sans-Serif" font-size="10.00"> channel_id</text>
<text text-anchor="middle" x="401" y="-990" font-family="Helvetica,sans-Serif" font-size="10.00">guild_id</text>
<text text-anchor="middle" x="401" y="-979" font-family="Helvetica,sans-Serif" font-size="10.00">message_id</text>
</g>
<!-- Node19 -->
<g id="node19" class="node">
<title>Node19</title>
<g id="a_node19"><a xlink:href="structdpp_1_1message_1_1message__interaction__struct.html" target="_top" xlink:title="Reference to an interaction.">
<polygon fill="none" stroke="black" points="746.5,-609 746.5,-639 881.5,-639 881.5,-609 746.5,-609"/>
<text text-anchor="start" x="754.5" y="-627" font-family="Helvetica,sans-Serif" font-size="10.00">dpp::message::message</text>
<text text-anchor="middle" x="814" y="-616" font-family="Helvetica,sans-Serif" font-size="10.00">_interaction_struct</text>
</a>
</g>
</g>
<!-- Node3&#45;&gt;Node19 -->
<g id="edge32" class="edge">
<title>Node3&#45;&gt;Node19</title>
<path fill="none" stroke="#9a32cd" stroke-dasharray="5,2" d="M106.76,-744.49C193.52,-717.2 405.91,-649.52 435,-632 444.43,-626.32 442.77,-619.07 453,-615 553.07,-575.21 681.46,-593.04 754.75,-608.97"/>
<polygon fill="#9a32cd" stroke="#9a32cd" points="105.56,-741.2 97.07,-747.54 107.66,-747.88 105.56,-741.2"/>
<text text-anchor="middle" x="401" y="-661" font-family="Helvetica,sans-Serif" font-size="10.00"> id</text>
</g>
<!-- Node4&#45;&gt;Node1 -->
<g id="edge4" class="edge">
<title>Node4&#45;&gt;Node1</title>
<path fill="none" stroke="#9a32cd" stroke-dasharray="5,2" d="M555.6,-415.13C661.54,-411.14 942.71,-406.53 1009,-466 1044.69,-498.02 1063.29,-656.43 1067.54,-697.34"/>
<polygon fill="#9a32cd" stroke="#9a32cd" points="555.18,-411.65 545.32,-415.54 555.45,-418.64 555.18,-411.65"/>
<text text-anchor="middle" x="814" y="-429" font-family="Helvetica,sans-Serif" font-size="10.00"> author</text>
</g>
<!-- Node4&#45;&gt;Node19 -->
<g id="edge35" class="edge">
<title>Node4&#45;&gt;Node19</title>
<path fill="none" stroke="#9a32cd" stroke-dasharray="5,2" d="M555.6,-421.7C613.47,-428.57 713.35,-441.19 719,-447 766.42,-495.77 693.94,-546.34 737,-599 740.17,-602.87 743.94,-606.15 748.1,-608.92"/>
<polygon fill="#9a32cd" stroke="#9a32cd" points="555.66,-418.18 545.32,-420.48 554.84,-425.13 555.66,-418.18"/>
<text text-anchor="middle" x="656" y="-450" font-family="Helvetica,sans-Serif" font-size="10.00"> usr</text>
</g>
<!-- Node21 -->
<g id="node21" class="node">
<title>Node21</title>
<g id="a_node21"><a xlink:href="classdpp_1_1cluster.html" target="_top" xlink:title="The cluster class represents a group of shards and a command queue for sending and receiving commands...">
<polygon fill="none" stroke="black" points="777,-199.5 777,-218.5 851,-218.5 851,-199.5 777,-199.5"/>
<text text-anchor="middle" x="814" y="-206.5" font-family="Helvetica,sans-Serif" font-size="10.00">dpp::cluster</text>
</a>
</g>
</g>
<!-- Node4&#45;&gt;Node21 -->
<g id="edge44" class="edge">
<title>Node4&#45;&gt;Node21</title>
<path fill="none" stroke="#9a32cd" stroke-dasharray="5,2" d="M547.13,-403.61C561.05,-398.19 577.64,-392.22 593,-388 647.89,-372.91 672.16,-397.35 719,-365 773.63,-327.26 801.89,-246.46 810.28,-218.64"/>
<polygon fill="#9a32cd" stroke="#9a32cd" points="545.52,-400.48 537.52,-407.43 548.11,-406.98 545.52,-400.48"/>
<text text-anchor="middle" x="656" y="-391" font-family="Helvetica,sans-Serif" font-size="10.00"> me</text>
</g>
<!-- Node5 -->
<g id="node5" class="node">
<title>Node5</title>
<g id="a_node5"><a xlink:href="structdpp_1_1json__interface.html" target="_top" xlink:title=" ">
<polygon fill="none" stroke="black" points="230,-341 230,-371 340,-371 340,-341 230,-341"/>
<text text-anchor="start" x="238" y="-359" font-family="Helvetica,sans-Serif" font-size="10.00">dpp::json_interface</text>
<text text-anchor="middle" x="285" y="-348" font-family="Helvetica,sans-Serif" font-size="10.00">&lt; user &gt;</text>
</a>
</g>
</g>
<!-- Node5&#45;&gt;Node4 -->
<g id="edge6" class="edge">
<title>Node5&#45;&gt;Node4</title>
<path fill="none" stroke="midnightblue" d="M350.14,-371.8C376.49,-378.44 407.27,-386.38 435,-394 450.79,-398.34 468.29,-403.47 482.7,-407.78"/>
<polygon fill="midnightblue" stroke="midnightblue" points="350.82,-368.37 340.27,-369.33 349.12,-375.16 350.82,-368.37"/>
</g>
<!-- Node6 -->
<g id="node6" class="node">
<title>Node6</title>
<g id="a_node6"><a xlink:href="structdpp_1_1json__interface.html" target="_top" xlink:title="Represents an interface for an object that can optionally implement functions for converting to and f...">
<polygon fill="none" stroke="black" points="0,-346.5 0,-365.5 138,-365.5 138,-346.5 0,-346.5"/>
<text text-anchor="middle" x="69" y="-353.5" font-family="Helvetica,sans-Serif" font-size="10.00">dpp::json_interface&lt; T &gt;</text>
</a>
</g>
</g>
<!-- Node6&#45;&gt;Node5 -->
<g id="edge7" class="edge">
<title>Node6&#45;&gt;Node5</title>
<path fill="none" stroke="orange" stroke-dasharray="5,2" d="M148.23,-356C175.3,-356 205.02,-356 229.73,-356"/>
<polygon fill="orange" stroke="orange" points="148.01,-352.5 138,-356 148,-359.5 148.01,-352.5"/>
<text text-anchor="middle" x="179.5" y="-359" font-family="Helvetica,sans-Serif" font-size="10.00"> &lt; user &gt;</text>
</g>
<!-- Node7 -->
<g id="node7" class="node">
<title>Node7</title>
<g id="a_node7"><a xlink:title=" ">
<polygon fill="none" stroke="#bfbfbf" points="252.5,-450.5 252.5,-469.5 317.5,-469.5 317.5,-450.5 252.5,-450.5"/>
<text text-anchor="middle" x="285" y="-457.5" font-family="Helvetica,sans-Serif" font-size="10.00">std::string</text>
</a>
</g>
</g>
<!-- Node7&#45;&gt;Node1 -->
<g id="edge22" class="edge">
<title>Node7&#45;&gt;Node1</title>
<path fill="none" stroke="#9a32cd" stroke-dasharray="5,2" d="M328.04,-459.39C466.8,-458.26 907.13,-461.96 1009,-552 1054.14,-591.9 1065.23,-669.96 1067.78,-697.28"/>
<polygon fill="#9a32cd" stroke="#9a32cd" points="327.79,-455.89 317.82,-459.49 327.86,-462.89 327.79,-455.89"/>
<text text-anchor="middle" x="656" y="-488" font-family="Helvetica,sans-Serif" font-size="10.00"> content</text>
<text text-anchor="middle" x="656" y="-477" font-family="Helvetica,sans-Serif" font-size="10.00">nonce</text>
</g>
<!-- Node7&#45;&gt;Node4 -->
<g id="edge8" class="edge">
<title>Node7&#45;&gt;Node4</title>
<path fill="none" stroke="#9a32cd" stroke-dasharray="5,2" d="M322.33,-447.29C336.17,-442.84 352.18,-438.18 367,-435 406.58,-426.52 453.12,-421.64 482.82,-419.15"/>
<polygon fill="#9a32cd" stroke="#9a32cd" points="321.09,-444.01 312.69,-450.46 323.28,-450.66 321.09,-444.01"/>
<text text-anchor="middle" x="401" y="-438" font-family="Helvetica,sans-Serif" font-size="10.00"> username</text>
</g>
<!-- Node7&#45;&gt;Node13 -->
<g id="edge16" class="edge">
<title>Node7&#45;&gt;Node13</title>
<path fill="none" stroke="#9a32cd" stroke-dasharray="5,2" d="M296.62,-478.77C314.45,-509.96 350.11,-570.82 367,-589 392.54,-616.48 412.75,-608.8 435,-639 449.51,-658.69 434.74,-674.73 453,-691 494.47,-727.94 526.31,-691.3 575,-718 584.92,-723.44 582.97,-730.77 593,-736 621.08,-750.63 702.81,-762.46 758.35,-769.11"/>
<polygon fill="#9a32cd" stroke="#9a32cd" points="299.49,-476.74 291.5,-469.78 293.4,-480.2 299.49,-476.74"/>
<text text-anchor="middle" x="514" y="-721" font-family="Helvetica,sans-Serif" font-size="10.00"> nickname</text>
</g>
<!-- Node7&#45;&gt;Node19 -->
<g id="edge34" class="edge">
<title>Node7&#45;&gt;Node19</title>
<path fill="none" stroke="#9a32cd" stroke-dasharray="5,2" d="M327.39,-467.24C340.09,-469.44 354.12,-471.84 367,-474 386.54,-477.27 704.32,-517.7 719,-531 742.17,-551.99 715.56,-576.25 737,-599 740.62,-602.84 744.84,-606.09 749.4,-608.84"/>
<polygon fill="#9a32cd" stroke="#9a32cd" points="327.98,-463.79 317.53,-465.53 326.78,-470.69 327.98,-463.79"/>
<text text-anchor="middle" x="514" y="-505" font-family="Helvetica,sans-Serif" font-size="10.00"> name</text>
</g>
<!-- Node7&#45;&gt;Node21 -->
<g id="edge40" class="edge">
<title>Node7&#45;&gt;Node21</title>
<path fill="none" stroke="#9a32cd" stroke-dasharray="5,2" d="M315.62,-445.51C327.19,-438.71 339.85,-429.73 349,-419 422.84,-332.4 357.57,-247.02 453,-185 505.65,-150.78 696.66,-184.89 777,-201.28"/>
<polygon fill="#9a32cd" stroke="#9a32cd" points="313.71,-442.56 306.66,-450.48 317.11,-448.69 313.71,-442.56"/>
<text text-anchor="middle" x="514" y="-188" font-family="Helvetica,sans-Serif" font-size="10.00"> token</text>
</g>
<!-- Node8 -->
<g id="node8" class="node">
<title>Node8</title>
<g id="a_node8"><a xlink:title=" ">
<polygon fill="none" stroke="#bfbfbf" points="17,-445 17,-475 121,-475 121,-445 17,-445"/>
<text text-anchor="start" x="25" y="-463" font-family="Helvetica,sans-Serif" font-size="10.00">std::basic_string&lt;</text>
<text text-anchor="middle" x="69" y="-452" font-family="Helvetica,sans-Serif" font-size="10.00"> Char &gt;</text>
</a>
</g>
</g>
<!-- Node8&#45;&gt;Node7 -->
<g id="edge9" class="edge">
<title>Node8&#45;&gt;Node7</title>
<path fill="none" stroke="midnightblue" d="M131.33,-460C170.87,-460 220.64,-460 252.4,-460"/>
<polygon fill="midnightblue" stroke="midnightblue" points="131.26,-456.5 121.26,-460 131.26,-463.5 131.26,-456.5"/>
</g>
<!-- Node9&#45;&gt;Node4 -->
<g id="edge10" class="edge">
<title>Node9&#45;&gt;Node4</title>
<path fill="none" stroke="#9a32cd" stroke-dasharray="5,2" d="M344.34,-608.04C345.99,-606.8 347.55,-605.46 349,-604 368.67,-584.3 349.08,-565.31 367,-544 388.75,-518.14 408.61,-531.1 435,-510 444.87,-502.11 444.92,-497.71 453,-488 471.37,-465.91 493.2,-440.21 504.8,-426.61"/>
<polygon fill="#9a32cd" stroke="#9a32cd" points="342.22,-605.24 335.51,-613.44 345.87,-611.21 342.22,-605.24"/>
<text text-anchor="middle" x="401" y="-547" font-family="Helvetica,sans-Serif" font-size="10.00"> avatar</text>
</g>
<!-- Node9&#45;&gt;Node13 -->
<g id="edge19" class="edge">
<title>Node9&#45;&gt;Node13</title>
<path fill="none" stroke="#9a32cd" stroke-dasharray="5,2" d="M305.13,-639.23C334.79,-663.5 394.55,-708.98 453,-733 554.85,-774.86 685.68,-779.11 758.27,-777.62"/>
<polygon fill="#9a32cd" stroke="#9a32cd" points="307.19,-636.39 297.26,-632.7 302.72,-641.78 307.19,-636.39"/>
<text text-anchor="middle" x="514" y="-768" font-family="Helvetica,sans-Serif" font-size="10.00"> avatar</text>
</g>
<!-- Node10 -->
<g id="node10" class="node">
<title>Node10</title>
<g id="a_node10"><a xlink:title=" ">
<polygon fill="none" stroke="#bfbfbf" points="257,-80.5 257,-99.5 313,-99.5 313,-80.5 257,-80.5"/>
<text text-anchor="middle" x="285" y="-87.5" font-family="Helvetica,sans-Serif" font-size="10.00">uint32_t</text>
</a>
</g>
</g>
<!-- Node10&#45;&gt;Node4 -->
<g id="edge12" class="edge">
<title>Node10&#45;&gt;Node4</title>
<path fill="none" stroke="#9a32cd" stroke-dasharray="5,2" d="M298.73,-108.34C340.81,-168.96 474.57,-361.64 506.23,-407.25"/>
<polygon fill="#9a32cd" stroke="#9a32cd" points="301.37,-106.01 292.79,-99.79 295.62,-110 301.37,-106.01"/>
<text text-anchor="middle" x="401" y="-305" font-family="Helvetica,sans-Serif" font-size="10.00"> flags</text>
</g>
<!-- Node10&#45;&gt;Node21 -->
<g id="edge42" class="edge">
<title>Node10&#45;&gt;Node21</title>
<path fill="none" stroke="#9a32cd" stroke-dasharray="5,2" d="M323.44,-80.57C378.9,-68.05 485.92,-49.46 575,-67 642.86,-80.36 660.26,-89.49 719,-126 753.95,-147.72 788.53,-182.61 804.24,-199.38"/>
<polygon fill="#9a32cd" stroke="#9a32cd" points="322.33,-77.24 313.38,-82.91 323.91,-84.06 322.33,-77.24"/>
<text text-anchor="middle" x="514" y="-103" font-family="Helvetica,sans-Serif" font-size="10.00"> cluster_id</text>
<text text-anchor="middle" x="514" y="-92" font-family="Helvetica,sans-Serif" font-size="10.00">intents</text>
<text text-anchor="middle" x="514" y="-81" font-family="Helvetica,sans-Serif" font-size="10.00">maxclusters</text>
<text text-anchor="middle" x="514" y="-70" font-family="Helvetica,sans-Serif" font-size="10.00">numshards</text>
</g>
<!-- Node11 -->
<g id="node11" class="node">
<title>Node11</title>
<g id="a_node11"><a xlink:title=" ">
<polygon fill="none" stroke="#bfbfbf" points="257,-390.5 257,-409.5 313,-409.5 313,-390.5 257,-390.5"/>
<text text-anchor="middle" x="285" y="-397.5" font-family="Helvetica,sans-Serif" font-size="10.00">uint16_t</text>
</a>
</g>
</g>
<!-- Node11&#45;&gt;Node4 -->
<g id="edge13" class="edge">
<title>Node11&#45;&gt;Node4</title>
<path fill="none" stroke="#9a32cd" stroke-dasharray="5,2" d="M323.1,-398.24C353.31,-397.29 397.03,-397.02 435,-401 450.95,-402.67 468.46,-406.11 482.84,-409.38"/>
<polygon fill="#9a32cd" stroke="#9a32cd" points="322.87,-394.75 313.01,-398.6 323.12,-401.74 322.87,-394.75"/>
<text text-anchor="middle" x="401" y="-404" font-family="Helvetica,sans-Serif" font-size="10.00"> discriminator</text>
</g>
<!-- Node12 -->
<g id="node12" class="node">
<title>Node12</title>
<g id="a_node12"><a xlink:title=" ">
<polygon fill="none" stroke="#bfbfbf" points="260,-745.5 260,-764.5 310,-764.5 310,-745.5 260,-745.5"/>
<text text-anchor="middle" x="285" y="-752.5" font-family="Helvetica,sans-Serif" font-size="10.00">uint8_t</text>
</a>
</g>
</g>
<!-- Node12&#45;&gt;Node1 -->
<g id="edge26" class="edge">
<title>Node12&#45;&gt;Node1</title>
<path fill="none" stroke="#9a32cd" stroke-dasharray="5,2" d="M297.48,-773.31C311.21,-793.29 336.24,-824.15 367,-837 394.89,-848.65 404.79,-837.69 435,-837 638.51,-832.34 691.94,-836.6 891,-794 943.91,-782.68 961.68,-790.25 1009,-764 1031.02,-751.79 1050.88,-729.43 1061.15,-716.64"/>
<polygon fill="#9a32cd" stroke="#9a32cd" points="300.26,-771.17 291.83,-764.75 294.42,-775.02 300.26,-771.17"/>
<text text-anchor="middle" x="656" y="-836" font-family="Helvetica,sans-Serif" font-size="10.00"> flags</text>
</g>
<!-- Node12&#45;&gt;Node4 -->
<g id="edge14" class="edge">
<title>Node12&#45;&gt;Node4</title>
<path fill="none" stroke="#9a32cd" stroke-dasharray="5,2" d="M296.39,-736.45C310.93,-711.07 338.73,-664.51 367,-628 394.15,-592.94 413.5,-593.78 435,-555 449.95,-528.03 438.71,-515.32 453,-488 466.02,-463.12 489.06,-439.26 502.48,-426.53"/>
<polygon fill="#9a32cd" stroke="#9a32cd" points="293.23,-734.94 291.34,-745.36 299.31,-738.39 293.23,-734.94"/>
<text text-anchor="middle" x="401" y="-631" font-family="Helvetica,sans-Serif" font-size="10.00"> refcount</text>
</g>
<!-- Node12&#45;&gt;Node13 -->
<g id="edge21" class="edge">
<title>Node12&#45;&gt;Node13</title>
<path fill="none" stroke="#9a32cd" stroke-dasharray="5,2" d="M320,-767.08C334.32,-771.64 351.29,-776.37 367,-779 521.35,-804.88 562.92,-800.56 719,-789 731.83,-788.05 745.57,-786.38 758.48,-784.51"/>
<polygon fill="#9a32cd" stroke="#9a32cd" points="320.69,-763.62 310.09,-763.82 318.5,-770.27 320.69,-763.62"/>
<text text-anchor="middle" x="514" y="-801" font-family="Helvetica,sans-Serif" font-size="10.00"> flags</text>
</g>
<!-- Node12&#45;&gt;Node19 -->
<g id="edge33" class="edge">
<title>Node12&#45;&gt;Node19</title>
<path fill="none" stroke="#9a32cd" stroke-dasharray="5,2" d="M319.75,-742.63C352.33,-729.38 401.51,-705.73 435,-673 446.39,-661.86 439.4,-650.29 453,-642 500.56,-613.02 656.03,-615.64 746.35,-619.92"/>
<polygon fill="#9a32cd" stroke="#9a32cd" points="318.22,-739.48 310.21,-746.41 320.8,-745.99 318.22,-739.48"/>
<text text-anchor="middle" x="514" y="-645" font-family="Helvetica,sans-Serif" font-size="10.00"> type</text>
</g>
<!-- Node13&#45;&gt;Node1 -->
<g id="edge15" class="edge">
<title>Node13&#45;&gt;Node1</title>
<path fill="none" stroke="#9a32cd" stroke-dasharray="5,2" d="M860.29,-762.85C909.65,-749.61 987.61,-728.7 1032.82,-716.57"/>
<polygon fill="#9a32cd" stroke="#9a32cd" points="859.27,-759.5 850.52,-765.47 861.08,-766.26 859.27,-759.5"/>
<text text-anchor="middle" x="959" y="-752" font-family="Helvetica,sans-Serif" font-size="10.00"> member</text>
</g>
<!-- Node14 -->
<g id="node14" class="node">
<title>Node14</title>
<g id="a_node14"><a xlink:title=" ">
<polygon fill="none" stroke="#bfbfbf" points="486,-1149.5 486,-1168.5 542,-1168.5 542,-1149.5 486,-1149.5"/>
<text text-anchor="middle" x="514" y="-1156.5" font-family="Helvetica,sans-Serif" font-size="10.00">vector&lt;</text>
</a>
</g>
</g>
<!-- Node14&#45;&gt;Node1 -->
<g id="edge23" class="edge">
<title>Node14&#45;&gt;Node1</title>
<path fill="none" stroke="#9a32cd" stroke-dasharray="5,2" d="M551.84,-1171.4C643.9,-1199.81 885.5,-1257.97 1009,-1133 1069.63,-1071.65 1069.29,-774.16 1068.64,-716.64"/>
<polygon fill="#9a32cd" stroke="#9a32cd" points="552.72,-1168.01 542.13,-1168.34 550.61,-1174.68 552.72,-1168.01"/>
<text text-anchor="middle" x="814" y="-1322" font-family="Helvetica,sans-Serif" font-size="10.00"> attachments</text>
<text text-anchor="middle" x="814" y="-1311" font-family="Helvetica,sans-Serif" font-size="10.00">components</text>
<text text-anchor="middle" x="814" y="-1300" font-family="Helvetica,sans-Serif" font-size="10.00">embeds</text>
<text text-anchor="middle" x="814" y="-1289" font-family="Helvetica,sans-Serif" font-size="10.00">filecontent</text>
<text text-anchor="middle" x="814" y="-1278" font-family="Helvetica,sans-Serif" font-size="10.00">filename</text>
<text text-anchor="middle" x="814" y="-1267" font-family="Helvetica,sans-Serif" font-size="10.00">mention_channels</text>
<text text-anchor="middle" x="814" y="-1256" font-family="Helvetica,sans-Serif" font-size="10.00">mention_roles</text>
<text text-anchor="middle" x="814" y="-1245" font-family="Helvetica,sans-Serif" font-size="10.00">mentions</text>
<text text-anchor="middle" x="814" y="-1234" font-family="Helvetica,sans-Serif" font-size="10.00">reactions</text>
<text text-anchor="middle" x="814" y="-1223" font-family="Helvetica,sans-Serif" font-size="10.00">stickers</text>
<text text-anchor="middle" x="814" y="-1212" font-family="Helvetica,sans-Serif" font-size="10.00">...</text>
</g>
<!-- Node14&#45;&gt;Node13 -->
<g id="edge17" class="edge">
<title>Node14&#45;&gt;Node13</title>
<path fill="none" stroke="#9a32cd" stroke-dasharray="5,2" d="M528.27,-1141.03C549.97,-1111.68 590.86,-1056.56 593,-1055 640.87,-1019.98 677.69,-1053.57 719,-1011 737.5,-991.93 727.8,-978.92 737,-954 761.32,-888.12 796.29,-811.13 808.55,-784.57"/>
<polygon fill="#9a32cd" stroke="#9a32cd" points="525.35,-1139.1 522.22,-1149.22 530.98,-1143.26 525.35,-1139.1"/>
<text text-anchor="middle" x="656" y="-1058" font-family="Helvetica,sans-Serif" font-size="10.00"> roles</text>
</g>
<!-- Node20 -->
<g id="node20" class="node">
<title>Node20</title>
<g id="a_node20"><a xlink:href="structdpp_1_1message_1_1allowed__ref.html" target="_top" xlink:title="Allowed mentions details.">
<polygon fill="none" stroke="black" points="740,-1110.5 740,-1129.5 888,-1129.5 888,-1110.5 740,-1110.5"/>
<text text-anchor="middle" x="814" y="-1117.5" font-family="Helvetica,sans-Serif" font-size="10.00">dpp::message::allowed_ref</text>
</a>
</g>
</g>
<!-- Node14&#45;&gt;Node20 -->
<g id="edge38" class="edge">
<title>Node14&#45;&gt;Node20</title>
<path fill="none" stroke="#9a32cd" stroke-dasharray="5,2" d="M552.2,-1155.79C593.17,-1152.07 660.94,-1145.37 719,-1137 733.61,-1134.89 749.42,-1132.2 763.83,-1129.58"/>
<polygon fill="#9a32cd" stroke="#9a32cd" points="551.78,-1152.32 542.14,-1156.7 552.41,-1159.29 551.78,-1152.32"/>
<text text-anchor="middle" x="656" y="-1165" font-family="Helvetica,sans-Serif" font-size="10.00"> roles</text>
<text text-anchor="middle" x="656" y="-1154" font-family="Helvetica,sans-Serif" font-size="10.00">users</text>
</g>
<!-- Node15 -->
<g id="node15" class="node">
<title>Node15</title>
<g id="a_node15"><a xlink:title=" ">
<polygon fill="none" stroke="#bfbfbf" points="490,-662.5 490,-681.5 538,-681.5 538,-662.5 490,-662.5"/>
<text text-anchor="middle" x="514" y="-669.5" font-family="Helvetica,sans-Serif" font-size="10.00">time_t</text>
</a>
</g>
</g>
<!-- Node15&#45;&gt;Node1 -->
<g id="edge24" class="edge">
<title>Node15&#45;&gt;Node1</title>
<path fill="none" stroke="#9a32cd" stroke-dasharray="5,2" d="M548.37,-670.98C588.78,-669.98 658.93,-669 719,-672 830.61,-677.57 961.52,-693.1 1026.91,-701.48"/>
<polygon fill="#9a32cd" stroke="#9a32cd" points="548.17,-667.48 538.27,-671.25 548.36,-674.48 548.17,-667.48"/>
<text text-anchor="middle" x="814" y="-699" font-family="Helvetica,sans-Serif" font-size="10.00"> edited</text>
<text text-anchor="middle" x="814" y="-688" font-family="Helvetica,sans-Serif" font-size="10.00">sent</text>
</g>
<!-- Node15&#45;&gt;Node13 -->
<g id="edge20" class="edge">
<title>Node15&#45;&gt;Node13</title>
<path fill="none" stroke="#9a32cd" stroke-dasharray="5,2" d="M548.35,-672.79C598.13,-674.39 689.21,-679.03 719,-692 738.76,-700.6 784.19,-745.55 803.75,-765.47"/>
<polygon fill="#9a32cd" stroke="#9a32cd" points="548.2,-669.29 538.1,-672.49 547.99,-676.28 548.2,-669.29"/>
<text text-anchor="start" x="593" y="-728" font-family="Helvetica,sans-Serif" font-size="10.00"> communication_disabled</text>
<text text-anchor="middle" x="656" y="-717" font-family="Helvetica,sans-Serif" font-size="10.00">_until</text>
<text text-anchor="middle" x="656" y="-706" font-family="Helvetica,sans-Serif" font-size="10.00">joined_at</text>
<text text-anchor="middle" x="656" y="-695" font-family="Helvetica,sans-Serif" font-size="10.00">premium_since</text>
</g>
<!-- Node15&#45;&gt;Node21 -->
<g id="edge41" class="edge">
<title>Node15&#45;&gt;Node21</title>
<path fill="none" stroke="#9a32cd" stroke-dasharray="5,2" d="M547.89,-661.56C557.04,-657.94 566.73,-653.41 575,-648 584.4,-641.85 713.87,-516 719,-506 742.61,-459.97 722.93,-440.78 737,-391 756.37,-322.46 794.44,-245.15 808.03,-218.57"/>
<polygon fill="#9a32cd" stroke="#9a32cd" points="546.43,-658.37 538.27,-665.12 548.86,-664.93 546.43,-658.37"/>
<text text-anchor="middle" x="656" y="-634" font-family="Helvetica,sans-Serif" font-size="10.00"> last_identify</text>
</g>
<!-- Node16 -->
<g id="node16" class="node">
<title>Node16</title>
<g id="a_node16"><a xlink:title=" ">
<polygon fill="none" stroke="#bfbfbf" points="495,-1049.5 495,-1068.5 533,-1068.5 533,-1049.5 495,-1049.5"/>
<text text-anchor="middle" x="514" y="-1056.5" font-family="Helvetica,sans-Serif" font-size="10.00">bool</text>
</a>
</g>
</g>
<!-- Node16&#45;&gt;Node1 -->
<g id="edge25" class="edge">
<title>Node16&#45;&gt;Node1</title>
<path fill="none" stroke="#9a32cd" stroke-dasharray="5,2" d="M543.5,-1059.69C638.47,-1061.37 941.98,-1061.5 1009,-997 1050.75,-956.82 1065.12,-762.41 1067.95,-716.66"/>
<polygon fill="#9a32cd" stroke="#9a32cd" points="543.29,-1056.19 533.23,-1059.49 543.16,-1063.19 543.29,-1056.19"/>
<text text-anchor="middle" x="814" y="-1081" font-family="Helvetica,sans-Serif" font-size="10.00"> mention_everyone</text>
<text text-anchor="middle" x="814" y="-1070" font-family="Helvetica,sans-Serif" font-size="10.00">pinned</text>
<text text-anchor="middle" x="814" y="-1059" font-family="Helvetica,sans-Serif" font-size="10.00">tts</text>
</g>
<!-- Node16&#45;&gt;Node18 -->
<g id="edge30" class="edge">
<title>Node16&#45;&gt;Node18</title>
<path fill="none" stroke="#9a32cd" stroke-dasharray="5,2" d="M533.97,-1042.82C552.69,-1027.19 580.32,-1005.14 593,-1000 618.46,-989.69 683.93,-982.48 736.88,-978.12"/>
<polygon fill="#9a32cd" stroke="#9a32cd" points="531.71,-1040.15 526.31,-1049.26 536.22,-1045.5 531.71,-1040.15"/>
<text text-anchor="middle" x="656" y="-1003" font-family="Helvetica,sans-Serif" font-size="10.00"> fail_if_not_exists</text>
</g>
<!-- Node16&#45;&gt;Node20 -->
<g id="edge37" class="edge">
<title>Node16&#45;&gt;Node20</title>
<path fill="none" stroke="#9a32cd" stroke-dasharray="5,2" d="M543.18,-1062.97C597.16,-1070.61 710.58,-1086.78 719,-1089 727.3,-1091.19 728.9,-1093.15 737,-1096 751.36,-1101.05 767.41,-1106.19 781.05,-1110.42"/>
<polygon fill="#9a32cd" stroke="#9a32cd" points="543.62,-1059.5 533.23,-1061.57 542.64,-1066.43 543.62,-1059.5"/>
<text text-anchor="middle" x="656" y="-1125" font-family="Helvetica,sans-Serif" font-size="10.00"> parse_everyone</text>
<text text-anchor="middle" x="656" y="-1114" font-family="Helvetica,sans-Serif" font-size="10.00">parse_roles</text>
<text text-anchor="middle" x="656" y="-1103" font-family="Helvetica,sans-Serif" font-size="10.00">parse_users</text>
<text text-anchor="middle" x="656" y="-1092" font-family="Helvetica,sans-Serif" font-size="10.00">replied_user</text>
</g>
<!-- Node17 -->
<g id="node17" class="node">
<title>Node17</title>
<g id="a_node17"><a xlink:title=" ">
<polygon fill="none" stroke="#bfbfbf" points="770,-570.5 770,-589.5 858,-589.5 858,-570.5 770,-570.5"/>
<text text-anchor="middle" x="814" y="-577.5" font-family="Helvetica,sans-Serif" font-size="10.00">message_type</text>
</a>
</g>
</g>
<!-- Node17&#45;&gt;Node1 -->
<g id="edge27" class="edge">
<title>Node17&#45;&gt;Node1</title>
<path fill="none" stroke="#9a32cd" stroke-dasharray="5,2" d="M868.23,-576.59C909.84,-576.51 967.41,-582.33 1009,-610 1041.4,-631.56 1059.17,-677.38 1065.64,-697.35"/>
<polygon fill="#9a32cd" stroke="#9a32cd" points="867.97,-573.1 858.02,-576.73 868.06,-580.09 867.97,-573.1"/>
<text text-anchor="middle" x="959" y="-613" font-family="Helvetica,sans-Serif" font-size="10.00"> type</text>
</g>
<!-- Node18&#45;&gt;Node1 -->
<g id="edge28" class="edge">
<title>Node18&#45;&gt;Node1</title>
<path fill="none" stroke="#9a32cd" stroke-dasharray="5,2" d="M894.17,-982.77C933.15,-983.15 978.26,-976.31 1009,-949 1044.98,-917.03 1063.36,-757.83 1067.56,-716.71"/>
<polygon fill="#9a32cd" stroke="#9a32cd" points="893.97,-979.26 883.88,-982.5 893.79,-986.26 893.97,-979.26"/>
<text text-anchor="middle" x="959" y="-985" font-family="Helvetica,sans-Serif" font-size="10.00"> message_reference</text>
</g>
<!-- Node19&#45;&gt;Node1 -->
<g id="edge31" class="edge">
<title>Node19&#45;&gt;Node1</title>
<path fill="none" stroke="#9a32cd" stroke-dasharray="5,2" d="M891.88,-623.97C928.83,-626.59 972.84,-633.68 1009,-651 1031.52,-661.79 1051.2,-684.21 1061.3,-697.17"/>
<polygon fill="#9a32cd" stroke="#9a32cd" points="891.85,-620.47 881.65,-623.35 891.42,-627.45 891.85,-620.47"/>
<text text-anchor="middle" x="959" y="-654" font-family="Helvetica,sans-Serif" font-size="10.00"> interaction</text>
</g>
<!-- Node20&#45;&gt;Node1 -->
<g id="edge36" class="edge">
<title>Node20&#45;&gt;Node1</title>
<path fill="none" stroke="#9a32cd" stroke-dasharray="5,2" d="M898.71,-1119.95C937.52,-1115.42 981.11,-1103.11 1009,-1073 1059.09,-1018.92 1067.18,-768.73 1068.33,-716.55"/>
<polygon fill="#9a32cd" stroke="#9a32cd" points="898.03,-1116.5 888.43,-1120.99 898.73,-1123.47 898.03,-1116.5"/>
<text text-anchor="middle" x="959" y="-1121" font-family="Helvetica,sans-Serif" font-size="10.00"> allowed_mentions</text>
</g>
<!-- Node21&#45;&gt;Node1 -->
<g id="edge39" class="edge">
<title>Node21&#45;&gt;Node1</title>
<path fill="none" stroke="#9a32cd" stroke-dasharray="5,2" d="M839.53,-223.94C881.64,-250.98 967.17,-312.34 1009,-388 1069.51,-497.46 1069.82,-656.97 1068.83,-697.41"/>
<polygon fill="#9a32cd" stroke="#9a32cd" points="841.32,-220.93 830.99,-218.54 837.58,-226.84 841.32,-220.93"/>
<text text-anchor="middle" x="959" y="-391" font-family="Helvetica,sans-Serif" font-size="10.00"> owner</text>
</g>
<!-- Node22 -->
<g id="node22" class="node">
<title>Node22</title>
<g id="a_node22"><a xlink:title=" ">
<polygon fill="none" stroke="#bfbfbf" points="489,-205.5 489,-224.5 539,-224.5 539,-205.5 489,-205.5"/>
<text text-anchor="middle" x="514" y="-212.5" font-family="Helvetica,sans-Serif" font-size="10.00">double</text>
</a>
</g>
</g>
<!-- Node22&#45;&gt;Node21 -->
<g id="edge43" class="edge">
<title>Node22&#45;&gt;Node21</title>
<path fill="none" stroke="#9a32cd" stroke-dasharray="5,2" d="M549.56,-212.34C563.1,-211.42 578.77,-210.49 593,-210 657.7,-207.78 733.17,-208.06 776.78,-208.51"/>
<polygon fill="#9a32cd" stroke="#9a32cd" points="548.95,-208.88 539.22,-213.07 549.45,-215.86 548.95,-208.88"/>
<text text-anchor="middle" x="656" y="-213" font-family="Helvetica,sans-Serif" font-size="10.00"> rest_ping</text>
</g>
<!-- Node23 -->
<g id="node23" class="node">
<title>Node23</title>
<g id="a_node23"><a xlink:href="structdpp_1_1cache__policy__t.html" target="_top" xlink:title="Represents the caching policy of the cluster.">
<polygon fill="none" stroke="black" points="457.5,-1.5 457.5,-20.5 570.5,-20.5 570.5,-1.5 457.5,-1.5"/>
<text text-anchor="middle" x="514" y="-8.5" font-family="Helvetica,sans-Serif" font-size="10.00">dpp::cache_policy_t</text>
</a>
</g>
</g>
<!-- Node23&#45;&gt;Node21 -->
<g id="edge45" class="edge">
<title>Node23&#45;&gt;Node21</title>
<path fill="none" stroke="#9a32cd" stroke-dasharray="5,2" d="M580.9,-3.1C623.71,-1.37 678.82,-5.87 719,-33 780.15,-74.29 804.62,-168.71 811.11,-199.27"/>
<polygon fill="#9a32cd" stroke="#9a32cd" points="580.65,0.39 570.85,-3.63 581.02,-6.6 580.65,0.39"/>
<text text-anchor="middle" x="656" y="-36" font-family="Helvetica,sans-Serif" font-size="10.00"> cache_policy</text>
</g>
<!-- Node24 -->
<g id="node24" class="node">
<title>Node24</title>
<g id="a_node24"><a xlink:title=" ">
<polygon fill="none" stroke="#bfbfbf" points="221,-0.5 221,-19.5 349,-19.5 349,-0.5 221,-0.5"/>
<text text-anchor="middle" x="285" y="-7.5" font-family="Helvetica,sans-Serif" font-size="10.00">cache_policy_setting_t</text>
</a>
</g>
</g>
<!-- Node24&#45;&gt;Node23 -->
<g id="edge46" class="edge">
<title>Node24&#45;&gt;Node23</title>
<path fill="none" stroke="#9a32cd" stroke-dasharray="5,2" d="M359.39,-10.32C391.23,-10.46 427.91,-10.63 457.44,-10.76"/>
<polygon fill="#9a32cd" stroke="#9a32cd" points="359.25,-6.82 349.23,-10.28 359.22,-13.82 359.25,-6.82"/>
<text text-anchor="middle" x="401" y="-36" font-family="Helvetica,sans-Serif" font-size="10.00"> emoji_policy</text>
<text text-anchor="middle" x="401" y="-25" font-family="Helvetica,sans-Serif" font-size="10.00">role_policy</text>
<text text-anchor="middle" x="401" y="-14" font-family="Helvetica,sans-Serif" font-size="10.00">user_policy</text>
</g>
<!-- Node25 -->
<g id="node25" class="node">
<title>Node25</title>
<g id="a_node25"><a xlink:title=" ">
<polygon fill="none" stroke="#bfbfbf" points="453,-120.5 453,-139.5 575,-139.5 575,-120.5 453,-120.5"/>
<text text-anchor="middle" x="514" y="-127.5" font-family="Helvetica,sans-Serif" font-size="10.00">websocket_protocol_t</text>
</a>
</g>
</g>
<!-- Node25&#45;&gt;Node21 -->
<g id="edge47" class="edge">
<title>Node25&#45;&gt;Node21</title>
<path fill="none" stroke="#9a32cd" stroke-dasharray="5,2" d="M585.63,-129.54C625.69,-131.17 676.21,-136.45 719,-151 751.5,-162.05 784.51,-186 801.42,-199.41"/>
<polygon fill="#9a32cd" stroke="#9a32cd" points="585.53,-126.03 575.42,-129.19 585.3,-133.03 585.53,-126.03"/>
<text text-anchor="middle" x="656" y="-154" font-family="Helvetica,sans-Serif" font-size="10.00"> ws_mode</text>
</g>
<!-- Node26 -->
<g id="node26" class="node">
<title>Node26</title>
<g id="a_node26"><a xlink:title=" ">
<polygon fill="none" stroke="#bfbfbf" points="466,-243.5 466,-262.5 562,-262.5 562,-243.5 466,-243.5"/>
<text text-anchor="middle" x="514" y="-250.5" font-family="Helvetica,sans-Serif" font-size="10.00">event_router_t&lt;</text>
</a>
</g>
</g>
<!-- Node26&#45;&gt;Node21 -->
<g id="edge48" class="edge">
<title>Node26&#45;&gt;Node21</title>
<path fill="none" stroke="#9a32cd" stroke-dasharray="5,2" d="M572.35,-244.53C632.72,-235.62 725.89,-221.86 776.78,-214.35"/>
<polygon fill="#9a32cd" stroke="#9a32cd" points="571.6,-241.1 562.22,-246.03 572.62,-248.03 571.6,-241.1"/>
<text text-anchor="middle" x="656" y="-355" font-family="Helvetica,sans-Serif" font-size="10.00"> on_autocomplete</text>
<text text-anchor="middle" x="656" y="-344" font-family="Helvetica,sans-Serif" font-size="10.00">on_button_click</text>
<text text-anchor="middle" x="656" y="-333" font-family="Helvetica,sans-Serif" font-size="10.00">on_channel_create</text>
<text text-anchor="middle" x="656" y="-322" font-family="Helvetica,sans-Serif" font-size="10.00">on_channel_delete</text>
<text text-anchor="middle" x="656" y="-311" font-family="Helvetica,sans-Serif" font-size="10.00">on_channel_pins_update</text>
<text text-anchor="middle" x="656" y="-300" font-family="Helvetica,sans-Serif" font-size="10.00">on_channel_update</text>
<text text-anchor="middle" x="656" y="-289" font-family="Helvetica,sans-Serif" font-size="10.00">on_form_submit</text>
<text text-anchor="middle" x="656" y="-278" font-family="Helvetica,sans-Serif" font-size="10.00">on_guild_ban_add</text>
<text text-anchor="middle" x="656" y="-267" font-family="Helvetica,sans-Serif" font-size="10.00">on_guild_ban_remove</text>
<text text-anchor="middle" x="656" y="-256" font-family="Helvetica,sans-Serif" font-size="10.00">on_guild_create</text>
<text text-anchor="middle" x="656" y="-245" font-family="Helvetica,sans-Serif" font-size="10.00">...</text>
</g>
</g>
</svg>
