<?xml version="1.0" encoding="UTF-8" standalone="no"?>
<!DOCTYPE svg PUBLIC "-//W3C//DTD SVG 1.1//EN"
 "http://www.w3.org/Graphics/SVG/1.1/DTD/svg11.dtd">
<!-- Generated by graphviz version 2.43.0 (0)
 -->
<!-- Title: dpp::guild Pages: 1 -->
<!--zoomable 929 -->
<svg id="main" version="1.1" xmlns="http://www.w3.org/2000/svg" xmlns:xlink="http://www.w3.org/1999/xlink" xml:space="preserve" onload="init(evt)">
<style type="text/css"><![CDATA[
.edge:hover path { stroke: red; }
.edge:hover polygon { stroke: red; fill: red; }
]]></style>
<script type="text/javascript"><![CDATA[
var edges = document.getElementsByTagName('g');
if (edges && edges.length) {
  for (var i=0;i<edges.length;i++) {
    if (edges[i].id.substr(0,4)=='edge') {
      edges[i].setAttribute('class','edge');
    }
  }
}
]]></script>
        <defs>
                <circle id="rim" cx="0" cy="0" r="7"/>
                <circle id="rim2" cx="0" cy="0" r="3.5"/>
                <g id="zoomPlus">
                        <use xlink:href="#rim" fill="#404040">
                                <set attributeName="fill" to="#808080" begin="zoomplus.mouseover" end="zoomplus.mouseout"/>
                        </use>
                        <path d="M-4,0h8M0,-4v8" fill="none" stroke="white" stroke-width="1.5" pointer-events="none"/>
                </g>
                <g id="zoomMin">
                        <use xlink:href="#rim" fill="#404040">
                                <set attributeName="fill" to="#808080" begin="zoomminus.mouseover" end="zoomminus.mouseout"/>
                        </use>
                        <path d="M-4,0h8" fill="none" stroke="white" stroke-width="1.5" pointer-events="none"/>
                </g>
                <g id="dirArrow">
                        <path fill="none" stroke="white" stroke-width="1.5" d="M0,-3.0v7 M-2.5,-0.5L0,-3.0L2.5,-0.5"/>
                </g>
               <g id="resetDef">
                       <use xlink:href="#rim2" fill="#404040">
                               <set attributeName="fill" to="#808080" begin="reset.mouseover" end="reset.mouseout"/>
                       </use>
               </g>
        </defs>

<script type="text/javascript">
var viewWidth = 1178;
var viewHeight = 929;
var sectionId = 'dynsection-1';
</script>
<script xlink:href="svgpan.js"/>
<svg id="graph" class="graph">
<g id="viewport">
<title>dpp::guild</title>
<!-- Node1 -->
<g id="node1" class="node">
<title>Node1</title>
<g id="a_node1"><a xlink:title="Represents a guild on Discord (AKA a server)">
<polygon fill="#bfbfbf" stroke="black" points="1105,-321.28 1105,-340.28 1170,-340.28 1170,-321.28 1105,-321.28"/>
<text text-anchor="middle" x="1137.5" y="-328.28" font-family="Helvetica,sans-Serif" font-size="10.00">dpp::guild</text>
</a>
</g>
</g>
<!-- Node2 -->
<g id="node2" class="node">
<title>Node2</title>
<g id="a_node2"><a xlink:href="classdpp_1_1managed.html" target="_top" xlink:title="The managed class is the base class for various types that can be stored in a cache that are identifi...">
<polygon fill="none" stroke="black" points="331,-777.28 331,-796.28 417,-796.28 417,-777.28 331,-777.28"/>
<text text-anchor="middle" x="374" y="-784.28" font-family="Helvetica,sans-Serif" font-size="10.00">dpp::managed</text>
</a>
</g>
</g>
<!-- Node2&#45;&gt;Node1 -->
<g id="edge1" class="edge">
<title>Node2&#45;&gt;Node1</title>
<path fill="none" stroke="midnightblue" d="M427.56,-788.79C576.58,-793.28 996.86,-797.16 1087,-702.78 1138.52,-648.83 1137.48,-393.73 1136.68,-340.52"/>
<polygon fill="midnightblue" stroke="midnightblue" points="427.42,-785.28 417.31,-788.46 427.2,-792.28 427.42,-785.28"/>
</g>
<!-- Node3 -->
<g id="node3" class="node">
<title>Node3</title>
<g id="a_node3"><a xlink:title=" ">
<polygon fill="none" stroke="#bfbfbf" points="24,-739.28 24,-758.28 80,-758.28 80,-739.28 24,-739.28"/>
<text text-anchor="middle" x="52" y="-746.28" font-family="Helvetica,sans-Serif" font-size="10.00">uint64_t</text>
</a>
</g>
</g>
<!-- Node3&#45;&gt;Node1 -->
<g id="edge9" class="edge">
<title>Node3&#45;&gt;Node1</title>
<path fill="none" stroke="#9a32cd" stroke-dasharray="5,2" d="M72.32,-764.72C103.87,-789.08 169.33,-832.78 233,-832.78 233,-832.78 233,-832.78 855,-832.78 965.28,-832.78 1019.07,-831.65 1087,-744.78 1138.39,-679.06 1137.37,-396.05 1136.65,-340.32"/>
<polygon fill="#9a32cd" stroke="#9a32cd" points="74.36,-761.87 64.35,-758.41 70.02,-767.36 74.36,-761.87"/>
<text text-anchor="middle" x="520.5" y="-912.78" font-family="Helvetica,sans-Serif" font-size="10.00"> afk_channel_id</text>
<text text-anchor="middle" x="520.5" y="-901.78" font-family="Helvetica,sans-Serif" font-size="10.00">application_id</text>
<text text-anchor="middle" x="520.5" y="-890.78" font-family="Helvetica,sans-Serif" font-size="10.00">owner_id</text>
<text text-anchor="start" x="473.5" y="-879.78" font-family="Helvetica,sans-Serif" font-size="10.00">public_updates</text>
<text text-anchor="middle" x="520.5" y="-868.78" font-family="Helvetica,sans-Serif" font-size="10.00">_channel_id</text>
<text text-anchor="middle" x="520.5" y="-857.78" font-family="Helvetica,sans-Serif" font-size="10.00">rules_channel_id</text>
<text text-anchor="middle" x="520.5" y="-846.78" font-family="Helvetica,sans-Serif" font-size="10.00">system_channel_id</text>
<text text-anchor="middle" x="520.5" y="-835.78" font-family="Helvetica,sans-Serif" font-size="10.00">widget_channel_id</text>
</g>
<!-- Node3&#45;&gt;Node2 -->
<g id="edge2" class="edge">
<title>Node3&#45;&gt;Node2</title>
<path fill="none" stroke="#9a32cd" stroke-dasharray="5,2" d="M90.03,-757.03C100.34,-759.13 111.57,-761.22 122,-762.78 194.96,-773.63 280.61,-780.6 330.65,-784.09"/>
<polygon fill="#9a32cd" stroke="#9a32cd" points="90.59,-753.57 80.08,-754.96 89.16,-760.43 90.59,-753.57"/>
<text text-anchor="middle" x="139.5" y="-769.78" font-family="Helvetica,sans-Serif" font-size="10.00"> id</text>
</g>
<!-- Node8 -->
<g id="node8" class="node">
<title>Node8</title>
<g id="a_node8"><a xlink:href="structdpp_1_1utility_1_1iconhash.html" target="_top" xlink:title="Store a 128 bit icon hash (profile picture, server icon etc) as a 128 bit binary value made of two ui...">
<polygon fill="none" stroke="black" points="175,-625.28 175,-644.28 293,-644.28 293,-625.28 175,-625.28"/>
<text text-anchor="middle" x="234" y="-632.28" font-family="Helvetica,sans-Serif" font-size="10.00">dpp::utility::iconhash</text>
</a>
</g>
</g>
<!-- Node3&#45;&gt;Node8 -->
<g id="edge8" class="edge">
<title>Node3&#45;&gt;Node8</title>
<path fill="none" stroke="#9a32cd" stroke-dasharray="5,2" d="M70.31,-732.09C92.81,-711.22 134.06,-675.57 175,-653.78 181.92,-650.09 189.69,-646.95 197.23,-644.34"/>
<polygon fill="#9a32cd" stroke="#9a32cd" points="67.79,-729.66 62.91,-739.06 72.59,-734.76 67.79,-729.66"/>
<text text-anchor="middle" x="139.5" y="-699.78" font-family="Helvetica,sans-Serif" font-size="10.00"> first</text>
<text text-anchor="middle" x="139.5" y="-688.78" font-family="Helvetica,sans-Serif" font-size="10.00">second</text>
</g>
<!-- Node14 -->
<g id="node14" class="node">
<title>Node14</title>
<g id="a_node14"><a xlink:title=" ">
<polygon fill="none" stroke="#bfbfbf" points="772,-679.78 772,-709.78 936,-709.78 936,-679.78 772,-679.78"/>
<text text-anchor="start" x="780" y="-697.78" font-family="Helvetica,sans-Serif" font-size="10.00">std::unordered_map</text>
<text text-anchor="middle" x="854" y="-686.78" font-family="Helvetica,sans-Serif" font-size="10.00">&lt; snowflake, guild_member &gt;</text>
</a>
</g>
</g>
<!-- Node3&#45;&gt;Node14 -->
<g id="edge16" class="edge">
<title>Node3&#45;&gt;Node14</title>
<path fill="none" stroke="#9a32cd" stroke-dasharray="5,2" d="M90.44,-749.09C216.5,-749.92 624.85,-750.72 754,-727.78 775.05,-724.04 797.73,-716.73 816.06,-709.94"/>
<polygon fill="#9a32cd" stroke="#9a32cd" points="90.17,-745.59 80.15,-749.02 90.12,-752.59 90.17,-745.59"/>
<text text-anchor="middle" x="374" y="-751.78" font-family="Helvetica,sans-Serif" font-size="10.00"> keys</text>
</g>
<!-- Node15 -->
<g id="node15" class="node">
<title>Node15</title>
<g id="a_node15"><a xlink:href="classdpp_1_1guild__member.html" target="_top" xlink:title="Represents dpp::user membership upon a dpp::guild. This contains the user&#39;s nickname,...">
<polygon fill="none" stroke="black" points="465,-508.28 465,-527.28 576,-527.28 576,-508.28 465,-508.28"/>
<text text-anchor="middle" x="520.5" y="-515.28" font-family="Helvetica,sans-Serif" font-size="10.00">dpp::guild_member</text>
</a>
</g>
</g>
<!-- Node3&#45;&gt;Node15 -->
<g id="edge19" class="edge">
<title>Node3&#45;&gt;Node15</title>
<path fill="none" stroke="#9a32cd" stroke-dasharray="5,2" d="M56.96,-729.07C67.23,-683.83 99.36,-572.86 175,-526.78 222.13,-498.06 380.27,-506.06 464.92,-512.77"/>
<polygon fill="#9a32cd" stroke="#9a32cd" points="53.54,-728.34 54.85,-738.85 60.38,-729.81 53.54,-728.34"/>
<text text-anchor="middle" x="234" y="-540.78" font-family="Helvetica,sans-Serif" font-size="10.00"> guild_id</text>
<text text-anchor="middle" x="234" y="-529.78" font-family="Helvetica,sans-Serif" font-size="10.00">user_id</text>
</g>
<!-- Node4 -->
<g id="node4" class="node">
<title>Node4</title>
<g id="a_node4"><a xlink:title=" ">
<polygon fill="none" stroke="#bfbfbf" points="826,-262.28 826,-281.28 882,-281.28 882,-262.28 826,-262.28"/>
<text text-anchor="middle" x="854" y="-269.28" font-family="Helvetica,sans-Serif" font-size="10.00">uint16_t</text>
</a>
</g>
</g>
<!-- Node4&#45;&gt;Node1 -->
<g id="edge3" class="edge">
<title>Node4&#45;&gt;Node1</title>
<path fill="none" stroke="#9a32cd" stroke-dasharray="5,2" d="M892.18,-262.82C939.78,-253.34 1023.68,-243.41 1087,-272.78 1108.62,-282.8 1124.31,-307.4 1131.72,-321.13"/>
<polygon fill="#9a32cd" stroke="#9a32cd" points="891.38,-259.41 882.31,-264.89 892.81,-266.27 891.38,-259.41"/>
<text text-anchor="middle" x="1020.5" y="-308.78" font-family="Helvetica,sans-Serif" font-size="10.00"> max_video_channel_users</text>
<text text-anchor="start" x="954" y="-297.78" font-family="Helvetica,sans-Serif" font-size="10.00">premium_subscription</text>
<text text-anchor="middle" x="1020.5" y="-286.78" font-family="Helvetica,sans-Serif" font-size="10.00">_count</text>
<text text-anchor="middle" x="1020.5" y="-275.78" font-family="Helvetica,sans-Serif" font-size="10.00">shard_id</text>
</g>
<!-- Node5 -->
<g id="node5" class="node">
<title>Node5</title>
<g id="a_node5"><a xlink:title=" ">
<polygon fill="none" stroke="#bfbfbf" points="826,-201.28 826,-220.28 882,-220.28 882,-201.28 826,-201.28"/>
<text text-anchor="middle" x="854" y="-208.28" font-family="Helvetica,sans-Serif" font-size="10.00">uint32_t</text>
</a>
</g>
</g>
<!-- Node5&#45;&gt;Node1 -->
<g id="edge4" class="edge">
<title>Node5&#45;&gt;Node1</title>
<path fill="none" stroke="#9a32cd" stroke-dasharray="5,2" d="M892.42,-204.67C949.87,-196.14 1056.36,-183.89 1087,-204.78 1126.81,-231.91 1134.6,-296.38 1136.13,-321"/>
<polygon fill="#9a32cd" stroke="#9a32cd" points="891.65,-201.25 882.29,-206.21 892.71,-208.17 891.65,-201.25"/>
<text text-anchor="middle" x="1020.5" y="-240.78" font-family="Helvetica,sans-Serif" font-size="10.00"> flags</text>
<text text-anchor="middle" x="1020.5" y="-229.78" font-family="Helvetica,sans-Serif" font-size="10.00">max_members</text>
<text text-anchor="middle" x="1020.5" y="-218.78" font-family="Helvetica,sans-Serif" font-size="10.00">max_presences</text>
<text text-anchor="middle" x="1020.5" y="-207.78" font-family="Helvetica,sans-Serif" font-size="10.00">member_count</text>
</g>
<!-- Node6 -->
<g id="node6" class="node">
<title>Node6</title>
<g id="a_node6"><a xlink:title=" ">
<polygon fill="none" stroke="#bfbfbf" points="201.5,-296.28 201.5,-315.28 266.5,-315.28 266.5,-296.28 201.5,-296.28"/>
<text text-anchor="middle" x="234" y="-303.28" font-family="Helvetica,sans-Serif" font-size="10.00">std::string</text>
</a>
</g>
</g>
<!-- Node6&#45;&gt;Node1 -->
<g id="edge5" class="edge">
<title>Node6&#45;&gt;Node1</title>
<path fill="none" stroke="#9a32cd" stroke-dasharray="5,2" d="M276.54,-296.71C287.67,-294.67 299.75,-292.8 311,-291.78 366.77,-286.68 381.02,-290.22 437,-291.78 695.06,-298.96 1006.05,-321.04 1104.8,-328.38"/>
<polygon fill="#9a32cd" stroke="#9a32cd" points="275.78,-293.29 266.62,-298.62 277.1,-300.17 275.78,-293.29"/>
<text text-anchor="middle" x="679" y="-329.78" font-family="Helvetica,sans-Serif" font-size="10.00"> description</text>
<text text-anchor="middle" x="679" y="-318.78" font-family="Helvetica,sans-Serif" font-size="10.00">name</text>
<text text-anchor="middle" x="679" y="-307.78" font-family="Helvetica,sans-Serif" font-size="10.00">vanity_url_code</text>
</g>
<!-- Node6&#45;&gt;Node15 -->
<g id="edge18" class="edge">
<title>Node6&#45;&gt;Node15</title>
<path fill="none" stroke="#9a32cd" stroke-dasharray="5,2" d="M276.79,-312.64C334.07,-322.2 430.67,-338.89 437,-343.78 444.25,-349.37 499.47,-472.73 515.28,-508.27"/>
<polygon fill="#9a32cd" stroke="#9a32cd" points="277.02,-309.13 266.58,-310.95 275.87,-316.04 277.02,-309.13"/>
<text text-anchor="middle" x="374" y="-346.78" font-family="Helvetica,sans-Serif" font-size="10.00"> nickname</text>
</g>
<!-- Node21 -->
<g id="node21" class="node">
<title>Node21</title>
<g id="a_node21"><a xlink:href="structdpp_1_1welcome__screen__t.html" target="_top" xlink:title="Defines a server&#39;s welcome screen.">
<polygon fill="none" stroke="black" points="455,-346.28 455,-365.28 586,-365.28 586,-346.28 455,-346.28"/>
<text text-anchor="middle" x="520.5" y="-353.28" font-family="Helvetica,sans-Serif" font-size="10.00">dpp::welcome_screen_t</text>
</a>
</g>
</g>
<!-- Node6&#45;&gt;Node21 -->
<g id="edge29" class="edge">
<title>Node6&#45;&gt;Node21</title>
<path fill="none" stroke="#9a32cd" stroke-dasharray="5,2" d="M276.86,-299.68C318.34,-295.1 383.26,-291.88 437,-306.78 464.77,-314.48 492.68,-334.15 507.86,-346.09"/>
<polygon fill="#9a32cd" stroke="#9a32cd" points="276.37,-296.22 266.85,-300.87 277.19,-303.17 276.37,-296.22"/>
<text text-anchor="middle" x="374" y="-309.78" font-family="Helvetica,sans-Serif" font-size="10.00"> description</text>
</g>
<!-- Node7 -->
<g id="node7" class="node">
<title>Node7</title>
<g id="a_node7"><a xlink:title=" ">
<polygon fill="none" stroke="#bfbfbf" points="0,-290.78 0,-320.78 104,-320.78 104,-290.78 0,-290.78"/>
<text text-anchor="start" x="8" y="-308.78" font-family="Helvetica,sans-Serif" font-size="10.00">std::basic_string&lt;</text>
<text text-anchor="middle" x="52" y="-297.78" font-family="Helvetica,sans-Serif" font-size="10.00"> Char &gt;</text>
</a>
</g>
</g>
<!-- Node7&#45;&gt;Node6 -->
<g id="edge6" class="edge">
<title>Node7&#45;&gt;Node6</title>
<path fill="none" stroke="midnightblue" d="M114.23,-305.78C143.49,-305.78 177.27,-305.78 201.31,-305.78"/>
<polygon fill="midnightblue" stroke="midnightblue" points="114.1,-302.28 104.1,-305.78 114.1,-309.28 114.1,-302.28"/>
</g>
<!-- Node8&#45;&gt;Node1 -->
<g id="edge7" class="edge">
<title>Node8&#45;&gt;Node1</title>
<path fill="none" stroke="#9a32cd" stroke-dasharray="5,2" d="M303.37,-638.08C342.73,-638.73 392.97,-637.46 437,-629.78 736.89,-577.44 849.7,-604.47 1087,-413.78 1111.85,-393.81 1127.08,-357.76 1133.28,-340.5"/>
<polygon fill="#9a32cd" stroke="#9a32cd" points="303.42,-634.58 293.35,-637.86 303.27,-641.57 303.42,-634.58"/>
<text text-anchor="middle" x="679" y="-639.78" font-family="Helvetica,sans-Serif" font-size="10.00"> banner</text>
<text text-anchor="middle" x="679" y="-628.78" font-family="Helvetica,sans-Serif" font-size="10.00">discovery_splash</text>
<text text-anchor="middle" x="679" y="-617.78" font-family="Helvetica,sans-Serif" font-size="10.00">icon</text>
<text text-anchor="middle" x="679" y="-606.78" font-family="Helvetica,sans-Serif" font-size="10.00">splash</text>
</g>
<!-- Node8&#45;&gt;Node15 -->
<g id="edge23" class="edge">
<title>Node8&#45;&gt;Node15</title>
<path fill="none" stroke="#9a32cd" stroke-dasharray="5,2" d="M289.09,-623.2C296.45,-621.68 303.91,-620.17 311,-618.78 366.86,-607.8 386.22,-621.5 437,-595.78 470.41,-578.85 499.67,-544.08 512.54,-527.28"/>
<polygon fill="#9a32cd" stroke="#9a32cd" points="288.24,-619.8 279.17,-625.27 289.67,-626.66 288.24,-619.8"/>
<text text-anchor="middle" x="374" y="-621.78" font-family="Helvetica,sans-Serif" font-size="10.00"> avatar</text>
</g>
<!-- Node9 -->
<g id="node9" class="node">
<title>Node9</title>
<g id="a_node9"><a xlink:title=" ">
<polygon fill="none" stroke="#bfbfbf" points="209,-455.28 209,-474.28 259,-474.28 259,-455.28 209,-455.28"/>
<text text-anchor="middle" x="234" y="-462.28" font-family="Helvetica,sans-Serif" font-size="10.00">uint8_t</text>
</a>
</g>
</g>
<!-- Node9&#45;&gt;Node1 -->
<g id="edge10" class="edge">
<title>Node9&#45;&gt;Node1</title>
<path fill="none" stroke="#9a32cd" stroke-dasharray="5,2" d="M269.33,-464.75C409.91,-464.15 941,-456.78 1087,-380.78 1105.42,-371.19 1121.2,-352.28 1129.73,-340.67"/>
<polygon fill="#9a32cd" stroke="#9a32cd" points="269.14,-461.25 259.16,-464.79 269.17,-468.25 269.14,-461.25"/>
<text text-anchor="middle" x="679" y="-479.78" font-family="Helvetica,sans-Serif" font-size="10.00"> afk_timeout</text>
<text text-anchor="middle" x="679" y="-468.78" font-family="Helvetica,sans-Serif" font-size="10.00">default_message_notifications</text>
<text text-anchor="middle" x="679" y="-457.78" font-family="Helvetica,sans-Serif" font-size="10.00">premium_tier</text>
</g>
<!-- Node9&#45;&gt;Node15 -->
<g id="edge22" class="edge">
<title>Node9&#45;&gt;Node15</title>
<path fill="none" stroke="#9a32cd" stroke-dasharray="5,2" d="M269.28,-467.88C309.7,-471.91 378.75,-479.99 437,-492.78 455.57,-496.85 476.01,-503.03 491.91,-508.23"/>
<polygon fill="#9a32cd" stroke="#9a32cd" points="269.45,-464.38 259.16,-466.89 268.77,-471.34 269.45,-464.38"/>
<text text-anchor="middle" x="374" y="-495.78" font-family="Helvetica,sans-Serif" font-size="10.00"> flags</text>
</g>
<!-- Node10 -->
<g id="node10" class="node">
<title>Node10</title>
<g id="a_node10"><a xlink:title=" ">
<polygon fill="none" stroke="#bfbfbf" points="799,-163.28 799,-182.28 909,-182.28 909,-163.28 799,-163.28"/>
<text text-anchor="middle" x="854" y="-170.28" font-family="Helvetica,sans-Serif" font-size="10.00">verification_level_t</text>
</a>
</g>
</g>
<!-- Node10&#45;&gt;Node1 -->
<g id="edge11" class="edge">
<title>Node10&#45;&gt;Node1</title>
<path fill="none" stroke="#9a32cd" stroke-dasharray="5,2" d="M919.09,-166.11C978.48,-161.34 1061.37,-158.71 1087,-177.78 1134.03,-212.77 1137.21,-293.31 1136.84,-321.12"/>
<polygon fill="#9a32cd" stroke="#9a32cd" points="918.71,-162.63 909.04,-166.96 919.3,-169.61 918.71,-162.63"/>
<text text-anchor="middle" x="1020.5" y="-180.78" font-family="Helvetica,sans-Serif" font-size="10.00"> verification_level</text>
</g>
<!-- Node11 -->
<g id="node11" class="node">
<title>Node11</title>
<g id="a_node11"><a xlink:title=" ">
<polygon fill="none" stroke="#bfbfbf" points="787.5,-125.28 787.5,-144.28 920.5,-144.28 920.5,-125.28 787.5,-125.28"/>
<text text-anchor="middle" x="854" y="-132.28" font-family="Helvetica,sans-Serif" font-size="10.00">guild_explicit_content_t</text>
</a>
</g>
</g>
<!-- Node11&#45;&gt;Node1 -->
<g id="edge12" class="edge">
<title>Node11&#45;&gt;Node1</title>
<path fill="none" stroke="#9a32cd" stroke-dasharray="5,2" d="M899.35,-123.03C950.46,-112.36 1034.18,-104.08 1087,-146.78 1114.91,-169.34 1131.07,-285.86 1135.35,-320.84"/>
<polygon fill="#9a32cd" stroke="#9a32cd" points="898.29,-119.68 889.27,-125.25 899.79,-126.52 898.29,-119.68"/>
<text text-anchor="middle" x="1020.5" y="-149.78" font-family="Helvetica,sans-Serif" font-size="10.00"> explicit_content_filter</text>
</g>
<!-- Node12 -->
<g id="node12" class="node">
<title>Node12</title>
<g id="a_node12"><a xlink:title=" ">
<polygon fill="none" stroke="#bfbfbf" points="817,-87.28 817,-106.28 891,-106.28 891,-87.28 817,-87.28"/>
<text text-anchor="middle" x="854" y="-94.28" font-family="Helvetica,sans-Serif" font-size="10.00">mfa_level_t</text>
</a>
</g>
</g>
<!-- Node12&#45;&gt;Node1 -->
<g id="edge13" class="edge">
<title>Node12&#45;&gt;Node1</title>
<path fill="none" stroke="#9a32cd" stroke-dasharray="5,2" d="M901.31,-90.61C960.79,-83.78 1059.62,-76.43 1087,-98.78 1122.41,-127.68 1133.63,-280.92 1135.99,-321.12"/>
<polygon fill="#9a32cd" stroke="#9a32cd" points="900.56,-87.17 891.04,-91.83 901.39,-94.13 900.56,-87.17"/>
<text text-anchor="middle" x="1020.5" y="-101.78" font-family="Helvetica,sans-Serif" font-size="10.00"> mfa_level</text>
</g>
<!-- Node13 -->
<g id="node13" class="node">
<title>Node13</title>
<g id="a_node13"><a xlink:title=" ">
<polygon fill="none" stroke="#bfbfbf" points="206,-390.28 206,-409.28 262,-409.28 262,-390.28 206,-390.28"/>
<text text-anchor="middle" x="234" y="-397.28" font-family="Helvetica,sans-Serif" font-size="10.00">vector&lt;</text>
</a>
</g>
</g>
<!-- Node13&#45;&gt;Node1 -->
<g id="edge14" class="edge">
<title>Node13&#45;&gt;Node1</title>
<path fill="none" stroke="#9a32cd" stroke-dasharray="5,2" d="M272.14,-399.19C376.72,-397.4 682.51,-391.03 936,-374.78 1003.26,-370.46 1022.99,-381.89 1087,-360.78 1100.74,-356.24 1114.69,-347.32 1124.26,-340.37"/>
<polygon fill="#9a32cd" stroke="#9a32cd" points="272.03,-395.7 262.09,-399.36 272.15,-402.69 272.03,-395.7"/>
<text text-anchor="middle" x="679" y="-425.78" font-family="Helvetica,sans-Serif" font-size="10.00"> channels</text>
<text text-anchor="middle" x="679" y="-414.78" font-family="Helvetica,sans-Serif" font-size="10.00">emojis</text>
<text text-anchor="middle" x="679" y="-403.78" font-family="Helvetica,sans-Serif" font-size="10.00">roles</text>
<text text-anchor="middle" x="679" y="-392.78" font-family="Helvetica,sans-Serif" font-size="10.00">threads</text>
</g>
<!-- Node13&#45;&gt;Node15 -->
<g id="edge20" class="edge">
<title>Node13&#45;&gt;Node15</title>
<path fill="none" stroke="#9a32cd" stroke-dasharray="5,2" d="M272.25,-406.09C313.93,-414.1 382.71,-430.16 437,-456.78 465.47,-470.73 494.23,-494.77 509.12,-508.13"/>
<polygon fill="#9a32cd" stroke="#9a32cd" points="272.74,-402.62 262.27,-404.23 271.46,-409.5 272.74,-402.62"/>
<text text-anchor="middle" x="374" y="-459.78" font-family="Helvetica,sans-Serif" font-size="10.00"> roles</text>
</g>
<!-- Node13&#45;&gt;Node21 -->
<g id="edge30" class="edge">
<title>Node13&#45;&gt;Node21</title>
<path fill="none" stroke="#9a32cd" stroke-dasharray="5,2" d="M268.76,-386.85C281.78,-382.35 296.91,-377.7 311,-374.78 358.51,-364.93 413.17,-360.19 454.6,-357.9"/>
<polygon fill="#9a32cd" stroke="#9a32cd" points="267.51,-383.58 259.26,-390.23 269.85,-390.17 267.51,-383.58"/>
<text text-anchor="middle" x="374" y="-377.78" font-family="Helvetica,sans-Serif" font-size="10.00"> welcome_channels</text>
</g>
<!-- Node14&#45;&gt;Node1 -->
<g id="edge15" class="edge">
<title>Node14&#45;&gt;Node1</title>
<path fill="none" stroke="#9a32cd" stroke-dasharray="5,2" d="M945.99,-689.82C994.73,-682.28 1051.81,-664.72 1087,-624.78 1125.58,-580.99 1134.6,-386.22 1136.2,-340.44"/>
<polygon fill="#9a32cd" stroke="#9a32cd" points="945.45,-686.36 936.05,-691.24 946.44,-693.29 945.45,-686.36"/>
<text text-anchor="middle" x="1020.5" y="-690.78" font-family="Helvetica,sans-Serif" font-size="10.00"> members</text>
</g>
<!-- Node15&#45;&gt;Node14 -->
<g id="edge17" class="edge">
<title>Node15&#45;&gt;Node14</title>
<path fill="none" stroke="#9a32cd" stroke-dasharray="5,2" d="M527.25,-537.39C537.34,-568.09 561.34,-626.99 604,-655.78 611.07,-660.55 701.99,-673.99 771.94,-683.76"/>
<polygon fill="#9a32cd" stroke="#9a32cd" points="530.47,-535.96 524.15,-527.46 523.78,-538.04 530.47,-535.96"/>
<text text-anchor="middle" x="679" y="-682.78" font-family="Helvetica,sans-Serif" font-size="10.00"> elements</text>
</g>
<!-- Node16 -->
<g id="node16" class="node">
<title>Node16</title>
<g id="a_node16"><a xlink:title=" ">
<polygon fill="none" stroke="#bfbfbf" points="210,-558.28 210,-577.28 258,-577.28 258,-558.28 210,-558.28"/>
<text text-anchor="middle" x="234" y="-565.28" font-family="Helvetica,sans-Serif" font-size="10.00">time_t</text>
</a>
</g>
</g>
<!-- Node16&#45;&gt;Node15 -->
<g id="edge21" class="edge">
<title>Node16&#45;&gt;Node15</title>
<path fill="none" stroke="#9a32cd" stroke-dasharray="5,2" d="M268.33,-560.41C281.58,-557.58 296.99,-554.39 311,-551.78 363.1,-542.05 422.81,-532.47 464.94,-525.97"/>
<polygon fill="#9a32cd" stroke="#9a32cd" points="267.26,-557.06 258.23,-562.6 268.74,-563.91 267.26,-557.06"/>
<text text-anchor="start" x="311" y="-587.78" font-family="Helvetica,sans-Serif" font-size="10.00"> communication_disabled</text>
<text text-anchor="middle" x="374" y="-576.78" font-family="Helvetica,sans-Serif" font-size="10.00">_until</text>
<text text-anchor="middle" x="374" y="-565.78" font-family="Helvetica,sans-Serif" font-size="10.00">joined_at</text>
<text text-anchor="middle" x="374" y="-554.78" font-family="Helvetica,sans-Serif" font-size="10.00">premium_since</text>
</g>
<!-- Node17 -->
<g id="node17" class="node">
<title>Node17</title>
<g id="a_node17"><a xlink:title=" ">
<polygon fill="none" stroke="#bfbfbf" points="463.5,-689.78 463.5,-719.78 577.5,-719.78 577.5,-689.78 463.5,-689.78"/>
<text text-anchor="start" x="471.5" y="-707.78" font-family="Helvetica,sans-Serif" font-size="10.00">std::unordered_map</text>
<text text-anchor="middle" x="520.5" y="-696.78" font-family="Helvetica,sans-Serif" font-size="10.00">&lt; K, T &gt;</text>
</a>
</g>
</g>
<!-- Node17&#45;&gt;Node14 -->
<g id="edge24" class="edge">
<title>Node17&#45;&gt;Node14</title>
<path fill="none" stroke="orange" stroke-dasharray="5,2" d="M588.04,-702.77C641.03,-701.17 715.42,-698.93 771.9,-697.22"/>
<polygon fill="orange" stroke="orange" points="587.62,-699.28 577.73,-703.08 587.84,-706.28 587.62,-699.28"/>
<text text-anchor="start" x="632" y="-715.78" font-family="Helvetica,sans-Serif" font-size="10.00"> &lt; snowflake, guild</text>
<text text-anchor="middle" x="679" y="-704.78" font-family="Helvetica,sans-Serif" font-size="10.00">_member &gt;</text>
</g>
<!-- Node18 -->
<g id="node18" class="node">
<title>Node18</title>
<g id="a_node18"><a xlink:title=" ">
<polygon fill="none" stroke="#bfbfbf" points="219.5,-701.28 219.5,-720.28 248.5,-720.28 248.5,-701.28 219.5,-701.28"/>
<text text-anchor="middle" x="234" y="-708.28" font-family="Helvetica,sans-Serif" font-size="10.00">K</text>
</a>
</g>
</g>
<!-- Node18&#45;&gt;Node17 -->
<g id="edge25" class="edge">
<title>Node18&#45;&gt;Node17</title>
<path fill="none" stroke="#9a32cd" stroke-dasharray="5,2" d="M258.9,-710.27C303.6,-709.33 400.97,-707.28 463.21,-705.96"/>
<polygon fill="#9a32cd" stroke="#9a32cd" points="258.65,-706.78 248.72,-710.49 258.79,-713.77 258.65,-706.78"/>
<text text-anchor="middle" x="374" y="-711.78" font-family="Helvetica,sans-Serif" font-size="10.00"> keys</text>
</g>
<!-- Node19 -->
<g id="node19" class="node">
<title>Node19</title>
<g id="a_node19"><a xlink:title=" ">
<polygon fill="none" stroke="#bfbfbf" points="219.5,-663.28 219.5,-682.28 248.5,-682.28 248.5,-663.28 219.5,-663.28"/>
<text text-anchor="middle" x="234" y="-670.28" font-family="Helvetica,sans-Serif" font-size="10.00">T</text>
</a>
</g>
</g>
<!-- Node19&#45;&gt;Node17 -->
<g id="edge26" class="edge">
<title>Node19&#45;&gt;Node17</title>
<path fill="none" stroke="#9a32cd" stroke-dasharray="5,2" d="M258.79,-674.28C296.63,-676.82 372.8,-682.48 437,-690.78 445.5,-691.87 454.47,-693.21 463.23,-694.61"/>
<polygon fill="#9a32cd" stroke="#9a32cd" points="258.96,-670.79 248.76,-673.62 258.51,-677.77 258.96,-670.79"/>
<text text-anchor="middle" x="374" y="-693.78" font-family="Helvetica,sans-Serif" font-size="10.00"> elements</text>
</g>
<!-- Node20 -->
<g id="node20" class="node">
<title>Node20</title>
<g id="a_node20"><a xlink:title=" ">
<polygon fill="none" stroke="#bfbfbf" points="830.5,-49.28 830.5,-68.28 877.5,-68.28 877.5,-49.28 830.5,-49.28"/>
<text text-anchor="middle" x="854" y="-56.28" font-family="Helvetica,sans-Serif" font-size="10.00">map&lt;</text>
</a>
</g>
</g>
<!-- Node20&#45;&gt;Node1 -->
<g id="edge27" class="edge">
<title>Node20&#45;&gt;Node1</title>
<path fill="none" stroke="#9a32cd" stroke-dasharray="5,2" d="M888.16,-55.22C945.09,-49.87 1058.11,-42.86 1087,-67.78 1126.4,-101.76 1134.75,-277.63 1136.22,-321.07"/>
<polygon fill="#9a32cd" stroke="#9a32cd" points="887.5,-51.76 877.89,-56.22 888.18,-58.73 887.5,-51.76"/>
<text text-anchor="middle" x="1020.5" y="-70.78" font-family="Helvetica,sans-Serif" font-size="10.00"> voice_members</text>
</g>
<!-- Node21&#45;&gt;Node1 -->
<g id="edge28" class="edge">
<title>Node21&#45;&gt;Node1</title>
<path fill="none" stroke="#9a32cd" stroke-dasharray="5,2" d="M596.45,-358.52C705.05,-361.46 912.3,-363.14 1087,-341.78 1092.85,-341.06 1099.04,-339.96 1104.97,-338.74"/>
<polygon fill="#9a32cd" stroke="#9a32cd" points="596.35,-355.02 586.25,-358.23 596.15,-362.01 596.35,-355.02"/>
<text text-anchor="middle" x="854" y="-362.78" font-family="Helvetica,sans-Serif" font-size="10.00"> welcome_screen</text>
</g>
<!-- Node22 -->
<g id="node22" class="node">
<title>Node22</title>
<g id="a_node22"><a xlink:title=" ">
<polygon fill="none" stroke="#bfbfbf" points="800.5,-11.28 800.5,-30.28 907.5,-30.28 907.5,-11.28 800.5,-11.28"/>
<text text-anchor="middle" x="854" y="-18.28" font-family="Helvetica,sans-Serif" font-size="10.00">guild_nsfw_level_t</text>
</a>
</g>
</g>
<!-- Node22&#45;&gt;Node1 -->
<g id="edge31" class="edge">
<title>Node22&#45;&gt;Node1</title>
<path fill="none" stroke="#9a32cd" stroke-dasharray="5,2" d="M899,-9.09C950.79,1.77 1036.17,10.13 1087,-35.78 1130.55,-75.11 1135.79,-274.9 1136.41,-321.19"/>
<polygon fill="#9a32cd" stroke="#9a32cd" points="898.12,-5.7 889.11,-11.28 899.63,-12.53 898.12,-5.7"/>
<text text-anchor="middle" x="1020.5" y="-38.78" font-family="Helvetica,sans-Serif" font-size="10.00"> nsfw_level</text>
</g>
</g>
</svg>
        <g id="navigator" transform="translate(0 0)" fill="#404254">
                <rect fill="#f2f5e9" fill-opacity="0.5" stroke="#606060" stroke-width=".5" x="0" y="0" width="60" height="60"/>
                <use id="zoomplus" xlink:href="#zoomPlus" x="17" y="9" onmousedown="handleZoom(evt,'in')"/>
                <use id="zoomminus" xlink:href="#zoomMin" x="42" y="9" onmousedown="handleZoom(evt,'out')"/>
                <use id="reset" xlink:href="#resetDef" x="30" y="36" onmousedown="handleReset()"/>
                <g id="arrowUp" xlink:href="#dirArrow" transform="translate(30 24)" onmousedown="handlePan(0,-1)">
                  <use xlink:href="#rim" fill="#404040">
                        <set attributeName="fill" to="#808080" begin="arrowUp.mouseover" end="arrowUp.mouseout"/>
                  </use>
                  <path fill="none" stroke="white" stroke-width="1.5" d="M0,-3.0v7 M-2.5,-0.5L0,-3.0L2.5,-0.5"/>
                </g>
                <g id="arrowRight" xlink:href="#dirArrow" transform="rotate(90) translate(36 -43)" onmousedown="handlePan(1,0)">
                  <use xlink:href="#rim" fill="#404040">
                        <set attributeName="fill" to="#808080" begin="arrowRight.mouseover" end="arrowRight.mouseout"/>
                  </use>
                  <path fill="none" stroke="white" stroke-width="1.5" d="M0,-3.0v7 M-2.5,-0.5L0,-3.0L2.5,-0.5"/>
                </g>
                <g id="arrowDown" xlink:href="#dirArrow" transform="rotate(180) translate(-30 -48)" onmousedown="handlePan(0,1)">
                  <use xlink:href="#rim" fill="#404040">
                        <set attributeName="fill" to="#808080" begin="arrowDown.mouseover" end="arrowDown.mouseout"/>
                  </use>
                  <path fill="none" stroke="white" stroke-width="1.5" d="M0,-3.0v7 M-2.5,-0.5L0,-3.0L2.5,-0.5"/>
                </g>
                <g id="arrowLeft" xlink:href="#dirArrow" transform="rotate(270) translate(-36 17)" onmousedown="handlePan(-1,0)">
                  <use xlink:href="#rim" fill="#404040">
                        <set attributeName="fill" to="#808080" begin="arrowLeft.mouseover" end="arrowLeft.mouseout"/>
                  </use>
                  <path fill="none" stroke="white" stroke-width="1.5" d="M0,-3.0v7 M-2.5,-0.5L0,-3.0L2.5,-0.5"/>
                </g>
        </g>
        <svg viewBox="0 0 15 15" width="100%" height="30px" preserveAspectRatio="xMaxYMin meet">
         <g id="arrow_out" transform="scale(0.3 0.3)">
          <a xlink:href="classdpp_1_1guild__coll__graph_org.svg" target="_base">
           <rect id="button" ry="5" rx="5" y="6" x="6" height="38" width="38"
                fill="#f2f5e9" fill-opacity="0.5" stroke="#606060" stroke-width="1.0"/>
           <path id="arrow"
             d="M 11.500037,31.436501 C 11.940474,20.09759 22.043105,11.32322 32.158766,21.979434 L 37.068811,17.246167 C 37.068811,17.246167 37.088388,32 37.088388,32 L 22.160133,31.978069 C 22.160133,31.978069 26.997745,27.140456 26.997745,27.140456 C 18.528582,18.264221 13.291696,25.230495 11.500037,31.436501 z"
             style="fill:#404040;"/>
          </a>
         </g>
        </svg>
</svg>
