<?xml version="1.0" encoding="UTF-8" standalone="no"?>
<!DOCTYPE svg PUBLIC "-//W3C//DTD SVG 1.1//EN"
 "http://www.w3.org/Graphics/SVG/1.1/DTD/svg11.dtd">
<!-- Generated by graphviz version 2.43.0 (0)
 -->
<!-- Title: dpp::component Pages: 1 -->
<svg width="765pt" height="485pt"
 viewBox="0.00 0.00 765.00 485.09" xmlns="http://www.w3.org/2000/svg" xmlns:xlink="http://www.w3.org/1999/xlink">
<g id="graph0" class="graph" transform="scale(1 1) rotate(0) translate(4 481.09)">
<title>dpp::component</title>
<!-- Node1 -->
<g id="node1" class="node">
<title>Node1</title>
<g id="a_node1"><a xlink:title="Represents the component object. A component is a clickable button or drop down list within a discord...">
<polygon fill="#bfbfbf" stroke="black" points="662,-217.09 662,-236.09 757,-236.09 757,-217.09 662,-217.09"/>
<text text-anchor="middle" x="709.5" y="-224.09" font-family="Helvetica,sans-Serif" font-size="10.00">dpp::component</text>
</a>
</g>
</g>
<!-- Node2 -->
<g id="node2" class="node">
<title>Node2</title>
<g id="a_node2"><a xlink:href="structdpp_1_1json__interface.html" target="_top" xlink:title=" ">
<polygon fill="none" stroke="black" points="434,-446.59 434,-476.59 544,-476.59 544,-446.59 434,-446.59"/>
<text text-anchor="start" x="442" y="-464.59" font-family="Helvetica,sans-Serif" font-size="10.00">dpp::json_interface</text>
<text text-anchor="middle" x="489" y="-453.59" font-family="Helvetica,sans-Serif" font-size="10.00">&lt; component &gt;</text>
</a>
</g>
</g>
<!-- Node2&#45;&gt;Node1 -->
<g id="edge1" class="edge">
<title>Node2&#45;&gt;Node1</title>
<path fill="none" stroke="midnightblue" d="M554.2,-465.97C584.69,-464.66 619.69,-457.78 644,-436.59 706.1,-382.46 709.33,-270.17 708.82,-236.4"/>
<polygon fill="midnightblue" stroke="midnightblue" points="553.96,-462.48 544.05,-466.21 554.13,-469.47 553.96,-462.48"/>
</g>
<!-- Node3 -->
<g id="node3" class="node">
<title>Node3</title>
<g id="a_node3"><a xlink:href="structdpp_1_1json__interface.html" target="_top" xlink:title="Represents an interface for an object that can optionally implement functions for converting to and f...">
<polygon fill="none" stroke="black" points="171,-452.09 171,-471.09 309,-471.09 309,-452.09 171,-452.09"/>
<text text-anchor="middle" x="240" y="-459.09" font-family="Helvetica,sans-Serif" font-size="10.00">dpp::json_interface&lt; T &gt;</text>
</a>
</g>
</g>
<!-- Node3&#45;&gt;Node2 -->
<g id="edge2" class="edge">
<title>Node3&#45;&gt;Node2</title>
<path fill="none" stroke="orange" stroke-dasharray="5,2" d="M319.47,-461.59C356.69,-461.59 400.25,-461.59 433.75,-461.59"/>
<polygon fill="orange" stroke="orange" points="319.15,-458.09 309.15,-461.59 319.15,-465.09 319.15,-458.09"/>
<text text-anchor="middle" x="367.5" y="-464.59" font-family="Helvetica,sans-Serif" font-size="10.00"> &lt; component &gt;</text>
</g>
<!-- Node4 -->
<g id="node4" class="node">
<title>Node4</title>
<g id="a_node4"><a xlink:title=" ">
<polygon fill="none" stroke="#bfbfbf" points="440,-408.09 440,-427.09 538,-427.09 538,-408.09 440,-408.09"/>
<text text-anchor="middle" x="489" y="-415.09" font-family="Helvetica,sans-Serif" font-size="10.00">component_type</text>
</a>
</g>
</g>
<!-- Node4&#45;&gt;Node1 -->
<g id="edge3" class="edge">
<title>Node4&#45;&gt;Node1</title>
<path fill="none" stroke="#9a32cd" stroke-dasharray="5,2" d="M548.4,-422.76C579.82,-422.47 617.46,-416.79 644,-395.59 696.02,-354.04 706.11,-265.41 708.05,-236.17"/>
<polygon fill="#9a32cd" stroke="#9a32cd" points="548.04,-419.26 538.01,-422.67 547.98,-426.26 548.04,-419.26"/>
<text text-anchor="middle" x="607" y="-424.59" font-family="Helvetica,sans-Serif" font-size="10.00"> type</text>
</g>
<!-- Node5 -->
<g id="node5" class="node">
<title>Node5</title>
<g id="a_node5"><a xlink:title=" ">
<polygon fill="none" stroke="#bfbfbf" points="461,-358.09 461,-377.09 517,-377.09 517,-358.09 461,-358.09"/>
<text text-anchor="middle" x="489" y="-365.09" font-family="Helvetica,sans-Serif" font-size="10.00">vector&lt;</text>
</a>
</g>
</g>
<!-- Node5&#45;&gt;Node1 -->
<g id="edge4" class="edge">
<title>Node5&#45;&gt;Node1</title>
<path fill="none" stroke="#9a32cd" stroke-dasharray="5,2" d="M527.26,-359.67C569.73,-350.41 634.51,-335.47 644,-328.59 677.58,-304.23 697.8,-256.54 705.24,-236.17"/>
<polygon fill="#9a32cd" stroke="#9a32cd" points="526.29,-356.3 517.26,-361.84 527.77,-363.14 526.29,-356.3"/>
<text text-anchor="middle" x="607" y="-385.59" font-family="Helvetica,sans-Serif" font-size="10.00"> channel_types</text>
<text text-anchor="middle" x="607" y="-374.59" font-family="Helvetica,sans-Serif" font-size="10.00">components</text>
<text text-anchor="middle" x="607" y="-363.59" font-family="Helvetica,sans-Serif" font-size="10.00">default_values</text>
<text text-anchor="middle" x="607" y="-352.59" font-family="Helvetica,sans-Serif" font-size="10.00">options</text>
</g>
<!-- Node6 -->
<g id="node6" class="node">
<title>Node6</title>
<g id="a_node6"><a xlink:title=" ">
<polygon fill="none" stroke="#bfbfbf" points="207.5,-191.09 207.5,-210.09 272.5,-210.09 272.5,-191.09 207.5,-191.09"/>
<text text-anchor="middle" x="240" y="-198.09" font-family="Helvetica,sans-Serif" font-size="10.00">std::string</text>
</a>
</g>
</g>
<!-- Node6&#45;&gt;Node1 -->
<g id="edge5" class="edge">
<title>Node6&#45;&gt;Node1</title>
<path fill="none" stroke="#9a32cd" stroke-dasharray="5,2" d="M283.07,-197.49C342.95,-193.7 456.13,-188.78 552,-197.59 591.9,-201.26 636.81,-210.07 668.25,-217.03"/>
<polygon fill="#9a32cd" stroke="#9a32cd" points="282.62,-194.02 272.87,-198.16 283.08,-201 282.62,-194.02"/>
<text text-anchor="middle" x="489" y="-233.59" font-family="Helvetica,sans-Serif" font-size="10.00"> custom_id</text>
<text text-anchor="middle" x="489" y="-222.59" font-family="Helvetica,sans-Serif" font-size="10.00">label</text>
<text text-anchor="middle" x="489" y="-211.59" font-family="Helvetica,sans-Serif" font-size="10.00">placeholder</text>
<text text-anchor="middle" x="489" y="-200.59" font-family="Helvetica,sans-Serif" font-size="10.00">url</text>
</g>
<!-- Node13 -->
<g id="node13" class="node">
<title>Node13</title>
<g id="a_node13"><a xlink:href="structdpp_1_1component_1_1inner__emoji.html" target="_top" xlink:title=" ">
<polygon fill="none" stroke="black" points="426,-250.59 426,-280.59 552,-280.59 552,-250.59 426,-250.59"/>
<text text-anchor="start" x="434" y="-268.59" font-family="Helvetica,sans-Serif" font-size="10.00">dpp::component::inner</text>
<text text-anchor="middle" x="489" y="-257.59" font-family="Helvetica,sans-Serif" font-size="10.00">_emoji</text>
</a>
</g>
</g>
<!-- Node6&#45;&gt;Node13 -->
<g id="edge13" class="edge">
<title>Node6&#45;&gt;Node13</title>
<path fill="none" stroke="#9a32cd" stroke-dasharray="5,2" d="M282.52,-210.17C316.4,-218.13 365.45,-229.99 408,-241.59 418.07,-244.34 428.81,-247.44 439.04,-250.47"/>
<polygon fill="#9a32cd" stroke="#9a32cd" points="283.05,-206.7 272.52,-207.83 281.46,-213.51 283.05,-206.7"/>
<text text-anchor="middle" x="367.5" y="-244.59" font-family="Helvetica,sans-Serif" font-size="10.00"> name</text>
</g>
<!-- Node7 -->
<g id="node7" class="node">
<title>Node7</title>
<g id="a_node7"><a xlink:title=" ">
<polygon fill="none" stroke="#bfbfbf" points="0,-185.59 0,-215.59 104,-215.59 104,-185.59 0,-185.59"/>
<text text-anchor="start" x="8" y="-203.59" font-family="Helvetica,sans-Serif" font-size="10.00">std::basic_string&lt;</text>
<text text-anchor="middle" x="52" y="-192.59" font-family="Helvetica,sans-Serif" font-size="10.00"> Char &gt;</text>
</a>
</g>
</g>
<!-- Node7&#45;&gt;Node6 -->
<g id="edge6" class="edge">
<title>Node7&#45;&gt;Node6</title>
<path fill="none" stroke="midnightblue" d="M114.63,-200.59C145.69,-200.59 182.04,-200.59 207.39,-200.59"/>
<polygon fill="midnightblue" stroke="midnightblue" points="114.32,-197.09 104.32,-200.59 114.32,-204.09 114.32,-197.09"/>
</g>
<!-- Node8 -->
<g id="node8" class="node">
<title>Node8</title>
<g id="a_node8"><a xlink:title=" ">
<polygon fill="none" stroke="#bfbfbf" points="438.5,-132.09 438.5,-151.09 539.5,-151.09 539.5,-132.09 438.5,-132.09"/>
<text text-anchor="middle" x="489" y="-139.09" font-family="Helvetica,sans-Serif" font-size="10.00">component_style</text>
</a>
</g>
</g>
<!-- Node8&#45;&gt;Node1 -->
<g id="edge7" class="edge">
<title>Node8&#45;&gt;Node1</title>
<path fill="none" stroke="#9a32cd" stroke-dasharray="5,2" d="M550.06,-140.97C579.66,-142.8 615.1,-148.33 644,-162.59 669.74,-175.3 691.48,-202.28 701.9,-216.82"/>
<polygon fill="#9a32cd" stroke="#9a32cd" points="550.01,-137.46 539.85,-140.46 549.67,-144.45 550.01,-137.46"/>
<text text-anchor="middle" x="607" y="-165.59" font-family="Helvetica,sans-Serif" font-size="10.00"> style</text>
</g>
<!-- Node9 -->
<g id="node9" class="node">
<title>Node9</title>
<g id="a_node9"><a xlink:title=" ">
<polygon fill="none" stroke="#bfbfbf" points="443,-94.09 443,-113.09 535,-113.09 535,-94.09 443,-94.09"/>
<text text-anchor="middle" x="489" y="-101.09" font-family="Helvetica,sans-Serif" font-size="10.00">text_style_type</text>
</a>
</g>
</g>
<!-- Node9&#45;&gt;Node1 -->
<g id="edge8" class="edge">
<title>Node9&#45;&gt;Node1</title>
<path fill="none" stroke="#9a32cd" stroke-dasharray="5,2" d="M545.5,-101.5C576.67,-102.82 615.01,-108.85 644,-127.59 678.11,-149.64 698.04,-196.81 705.32,-217.04"/>
<polygon fill="#9a32cd" stroke="#9a32cd" points="545.31,-97.99 535.22,-101.22 545.12,-104.99 545.31,-97.99"/>
<text text-anchor="middle" x="607" y="-130.59" font-family="Helvetica,sans-Serif" font-size="10.00"> text_style</text>
</g>
<!-- Node10 -->
<g id="node10" class="node">
<title>Node10</title>
<g id="a_node10"><a xlink:title=" ">
<polygon fill="none" stroke="#bfbfbf" points="464,-41.09 464,-60.09 514,-60.09 514,-41.09 464,-41.09"/>
<text text-anchor="middle" x="489" y="-48.09" font-family="Helvetica,sans-Serif" font-size="10.00">int32_t</text>
</a>
</g>
</g>
<!-- Node10&#45;&gt;Node1 -->
<g id="edge9" class="edge">
<title>Node10&#45;&gt;Node1</title>
<path fill="none" stroke="#9a32cd" stroke-dasharray="5,2" d="M524.07,-41.66C557.77,-34.95 609.21,-30.68 644,-55.59 698.95,-94.93 707.11,-187.19 708.3,-217.07"/>
<polygon fill="#9a32cd" stroke="#9a32cd" points="523.26,-38.25 514.22,-43.79 524.74,-45.09 523.26,-38.25"/>
<text text-anchor="middle" x="607" y="-91.59" font-family="Helvetica,sans-Serif" font-size="10.00"> max_length</text>
<text text-anchor="middle" x="607" y="-80.59" font-family="Helvetica,sans-Serif" font-size="10.00">max_values</text>
<text text-anchor="middle" x="607" y="-69.59" font-family="Helvetica,sans-Serif" font-size="10.00">min_length</text>
<text text-anchor="middle" x="607" y="-58.59" font-family="Helvetica,sans-Serif" font-size="10.00">min_values</text>
</g>
<!-- Node11 -->
<g id="node11" class="node">
<title>Node11</title>
<g id="a_node11"><a xlink:title=" ">
<polygon fill="none" stroke="#bfbfbf" points="221,-297.09 221,-316.09 259,-316.09 259,-297.09 221,-297.09"/>
<text text-anchor="middle" x="240" y="-304.09" font-family="Helvetica,sans-Serif" font-size="10.00">bool</text>
</a>
</g>
</g>
<!-- Node11&#45;&gt;Node1 -->
<g id="edge10" class="edge">
<title>Node11&#45;&gt;Node1</title>
<path fill="none" stroke="#9a32cd" stroke-dasharray="5,2" d="M269.55,-309.33C337.57,-314.69 513.25,-321.58 644,-265.59 662.77,-257.56 682.61,-244.83 695.25,-236.12"/>
<polygon fill="#9a32cd" stroke="#9a32cd" points="269.48,-305.81 259.22,-308.46 268.89,-312.79 269.48,-305.81"/>
<text text-anchor="middle" x="489" y="-324.59" font-family="Helvetica,sans-Serif" font-size="10.00"> disabled</text>
<text text-anchor="middle" x="489" y="-313.59" font-family="Helvetica,sans-Serif" font-size="10.00">required</text>
</g>
<!-- Node11&#45;&gt;Node13 -->
<g id="edge16" class="edge">
<title>Node11&#45;&gt;Node13</title>
<path fill="none" stroke="#9a32cd" stroke-dasharray="5,2" d="M269.48,-301.86C307.47,-295.56 375.75,-284.22 425.91,-275.9"/>
<polygon fill="#9a32cd" stroke="#9a32cd" points="268.45,-298.49 259.16,-303.58 269.6,-305.39 268.45,-298.49"/>
<text text-anchor="middle" x="367.5" y="-294.59" font-family="Helvetica,sans-Serif" font-size="10.00"> animated</text>
</g>
<!-- Node12 -->
<g id="node12" class="node">
<title>Node12</title>
<g id="a_node12"><a xlink:title=" ">
<polygon fill="none" stroke="#bfbfbf" points="459.5,-3.09 459.5,-22.09 518.5,-22.09 518.5,-3.09 459.5,-3.09"/>
<text text-anchor="middle" x="489" y="-10.09" font-family="Helvetica,sans-Serif" font-size="10.00">variant&lt;</text>
</a>
</g>
</g>
<!-- Node12&#45;&gt;Node1 -->
<g id="edge11" class="edge">
<title>Node12&#45;&gt;Node1</title>
<path fill="none" stroke="#9a32cd" stroke-dasharray="5,2" d="M528.63,-3.62C562.6,1.88 611.56,3.7 644,-21.59 707.56,-71.14 709.78,-183.02 708.92,-216.77"/>
<polygon fill="#9a32cd" stroke="#9a32cd" points="527.83,-0.21 518.6,-5.42 529.06,-7.1 527.83,-0.21"/>
<text text-anchor="middle" x="607" y="-24.59" font-family="Helvetica,sans-Serif" font-size="10.00"> value</text>
</g>
<!-- Node13&#45;&gt;Node1 -->
<g id="edge12" class="edge">
<title>Node13&#45;&gt;Node1</title>
<path fill="none" stroke="#9a32cd" stroke-dasharray="5,2" d="M562.05,-252.73C594.93,-246.86 632.91,-240.08 661.96,-234.9"/>
<polygon fill="#9a32cd" stroke="#9a32cd" points="561.26,-249.32 552.03,-254.52 562.49,-256.21 561.26,-249.32"/>
<text text-anchor="middle" x="607" y="-253.59" font-family="Helvetica,sans-Serif" font-size="10.00"> emoji</text>
</g>
<!-- Node14 -->
<g id="node14" class="node">
<title>Node14</title>
<g id="a_node14"><a xlink:href="classdpp_1_1snowflake.html" target="_top" xlink:title="A container for a 64 bit unsigned value representing many things on discord. This value is known in d...">
<polygon fill="none" stroke="black" points="195.5,-248.09 195.5,-267.09 284.5,-267.09 284.5,-248.09 195.5,-248.09"/>
<text text-anchor="middle" x="240" y="-255.09" font-family="Helvetica,sans-Serif" font-size="10.00">dpp::snowflake</text>
</a>
</g>
</g>
<!-- Node14&#45;&gt;Node13 -->
<g id="edge14" class="edge">
<title>Node14&#45;&gt;Node13</title>
<path fill="none" stroke="#9a32cd" stroke-dasharray="5,2" d="M294.89,-256.8C327.62,-256.6 370.24,-256.83 408,-258.59 413.71,-258.86 419.64,-259.22 425.58,-259.64"/>
<polygon fill="#9a32cd" stroke="#9a32cd" points="294.6,-253.31 284.63,-256.88 294.65,-260.31 294.6,-253.31"/>
<text text-anchor="middle" x="367.5" y="-261.59" font-family="Helvetica,sans-Serif" font-size="10.00"> id</text>
</g>
<!-- Node15 -->
<g id="node15" class="node">
<title>Node15</title>
<g id="a_node15"><a xlink:title=" ">
<polygon fill="none" stroke="#bfbfbf" points="24,-248.09 24,-267.09 80,-267.09 80,-248.09 24,-248.09"/>
<text text-anchor="middle" x="52" y="-255.09" font-family="Helvetica,sans-Serif" font-size="10.00">uint64_t</text>
</a>
</g>
</g>
<!-- Node15&#45;&gt;Node14 -->
<g id="edge15" class="edge">
<title>Node15&#45;&gt;Node14</title>
<path fill="none" stroke="#9a32cd" stroke-dasharray="5,2" d="M90.21,-257.59C120.54,-257.59 163.42,-257.59 195.36,-257.59"/>
<polygon fill="#9a32cd" stroke="#9a32cd" points="90.05,-254.09 80.05,-257.59 90.05,-261.09 90.05,-254.09"/>
<text text-anchor="middle" x="137.5" y="-260.59" font-family="Helvetica,sans-Serif" font-size="10.00"> value</text>
</g>
</g>
</svg>
