<?xml version="1.0" encoding="UTF-8" standalone="no"?>
<!DOCTYPE svg PUBLIC "-//W3C//DTD SVG 1.1//EN"
 "http://www.w3.org/Graphics/SVG/1.1/DTD/svg11.dtd">
<!-- Generated by graphviz version 2.43.0 (0)
 -->
<!-- Title: Graphical Class Hierarchy Pages: 1 -->
<svg width="254pt" height="88pt"
 viewBox="0.00 0.00 254.00 88.00" xmlns="http://www.w3.org/2000/svg" xmlns:xlink="http://www.w3.org/1999/xlink">
<g id="graph0" class="graph" transform="scale(1 1) rotate(0) translate(4 84)">
<title>Graphical Class Hierarchy</title>
<!-- Node0 -->
<g id="node1" class="node">
<title>Node0</title>
<g id="a_node1"><a xlink:href="structdpp_1_1detail_1_1task_1_1promise__base.html" target="_top" xlink:title="Base implementation of task::promise_t, without the logic that would depend on the return type....">
<polygon fill="none" stroke="black" points="0,-24.5 0,-54.5 101,-54.5 101,-24.5 0,-24.5"/>
<text text-anchor="start" x="8" y="-42.5" font-family="Helvetica,sans-Serif" font-size="10.00">dpp::detail::task::</text>
<text text-anchor="middle" x="50.5" y="-31.5" font-family="Helvetica,sans-Serif" font-size="10.00">promise_base</text>
</a>
</g>
</g>
<!-- Node1 -->
<g id="node2" class="node">
<title>Node1</title>
<g id="a_node2"><a xlink:href="structdpp_1_1detail_1_1task_1_1promise__t.html" target="_top" xlink:title="A task&#39;s promise_t type, with special logic for handling nested tasks.">
<polygon fill="none" stroke="black" points="141,-49.5 141,-79.5 242,-79.5 242,-49.5 141,-49.5"/>
<text text-anchor="start" x="149" y="-67.5" font-family="Helvetica,sans-Serif" font-size="10.00">dpp::detail::task::</text>
<text text-anchor="middle" x="191.5" y="-56.5" font-family="Helvetica,sans-Serif" font-size="10.00">promise_t&lt; R &gt;</text>
</a>
</g>
</g>
<!-- Node0&#45;&gt;Node1 -->
<g id="edge1" class="edge">
<title>Node0&#45;&gt;Node1</title>
<path fill="none" stroke="midnightblue" d="M111.33,-50.26C121.09,-52.02 131.1,-53.82 140.59,-55.52"/>
<polygon fill="midnightblue" stroke="midnightblue" points="111.75,-46.78 101.29,-48.45 110.51,-53.67 111.75,-46.78"/>
</g>
<!-- Node2 -->
<g id="node3" class="node">
<title>Node2</title>
<g id="a_node3"><a xlink:href="structdpp_1_1detail_1_1task_1_1promise__t_3_01void_01_4.html" target="_top" xlink:title="Implementation of task::promise_t for void return type.">
<polygon fill="none" stroke="black" points="137,-0.5 137,-30.5 246,-30.5 246,-0.5 137,-0.5"/>
<text text-anchor="start" x="145" y="-18.5" font-family="Helvetica,sans-Serif" font-size="10.00">dpp::detail::task::</text>
<text text-anchor="middle" x="191.5" y="-7.5" font-family="Helvetica,sans-Serif" font-size="10.00">promise_t&lt; void &gt;</text>
</a>
</g>
</g>
<!-- Node0&#45;&gt;Node2 -->
<g id="edge2" class="edge">
<title>Node0&#45;&gt;Node2</title>
<path fill="none" stroke="midnightblue" d="M111.17,-29.2C119.7,-27.72 128.42,-26.22 136.82,-24.77"/>
<polygon fill="midnightblue" stroke="midnightblue" points="110.55,-25.75 101.29,-30.9 111.74,-32.65 110.55,-25.75"/>
</g>
</g>
</svg>
