<?xml version="1.0" encoding="UTF-8" standalone="no"?>
<!DOCTYPE svg PUBLIC "-//W3C//DTD SVG 1.1//EN"
 "http://www.w3.org/Graphics/SVG/1.1/DTD/svg11.dtd">
<!-- Generated by graphviz version 2.43.0 (0)
 -->
<!-- Title: dpp::thread_member Pages: 1 -->
<svg width="181pt" height="163pt"
 viewBox="0.00 0.00 181.00 163.00" xmlns="http://www.w3.org/2000/svg" xmlns:xlink="http://www.w3.org/1999/xlink">
<g id="graph0" class="graph" transform="scale(1 1) rotate(0) translate(4 159)">
<title>dpp::thread_member</title>
<!-- Node1 -->
<g id="node1" class="node">
<title>Node1</title>
<g id="a_node1"><a xlink:title="represents membership of a user with a thread">
<polygon fill="#bfbfbf" stroke="black" points="9.5,-0.5 9.5,-19.5 128.5,-19.5 128.5,-0.5 9.5,-0.5"/>
<text text-anchor="middle" x="69" y="-7.5" font-family="Helvetica,sans-Serif" font-size="10.00">dpp::thread_member</text>
</a>
</g>
</g>
<!-- Node2 -->
<g id="node2" class="node">
<title>Node2</title>
<g id="a_node2"><a xlink:href="structdpp_1_1json__interface.html" target="_top" xlink:title=" ">
<polygon fill="none" stroke="black" points="10.5,-57.5 10.5,-87.5 127.5,-87.5 127.5,-57.5 10.5,-57.5"/>
<text text-anchor="start" x="18.5" y="-75.5" font-family="Helvetica,sans-Serif" font-size="10.00">dpp::json_interface</text>
<text text-anchor="middle" x="69" y="-64.5" font-family="Helvetica,sans-Serif" font-size="10.00">&lt; thread_member &gt;</text>
</a>
</g>
</g>
<!-- Node2&#45;&gt;Node1 -->
<g id="edge1" class="edge">
<title>Node2&#45;&gt;Node1</title>
<path fill="none" stroke="midnightblue" d="M69,-47.35C69,-37.51 69,-26.78 69,-19.54"/>
<polygon fill="midnightblue" stroke="midnightblue" points="65.5,-47.47 69,-57.47 72.5,-47.47 65.5,-47.47"/>
</g>
<!-- Node3 -->
<g id="node3" class="node">
<title>Node3</title>
<g id="a_node3"><a xlink:href="structdpp_1_1json__interface.html" target="_top" xlink:title="Represents an interface for an object that can optionally implement functions for converting to and f...">
<polygon fill="none" stroke="black" points="0,-135.5 0,-154.5 138,-154.5 138,-135.5 0,-135.5"/>
<text text-anchor="middle" x="69" y="-142.5" font-family="Helvetica,sans-Serif" font-size="10.00">dpp::json_interface&lt; T &gt;</text>
</a>
</g>
</g>
<!-- Node3&#45;&gt;Node2 -->
<g id="edge2" class="edge">
<title>Node3&#45;&gt;Node2</title>
<path fill="none" stroke="orange" stroke-dasharray="5,2" d="M69,-125.24C69,-113.41 69,-98.38 69,-87.58"/>
<polygon fill="orange" stroke="orange" points="65.5,-125.36 69,-135.36 72.5,-125.36 65.5,-125.36"/>
<text text-anchor="middle" x="121" y="-109" font-family="Helvetica,sans-Serif" font-size="10.00"> &lt; thread_member &gt;</text>
</g>
</g>
</svg>
