<?xml version="1.0" encoding="UTF-8" standalone="no"?>
<!DOCTYPE svg PUBLIC "-//W3C//DTD SVG 1.1//EN"
 "http://www.w3.org/Graphics/SVG/1.1/DTD/svg11.dtd">
<!-- Generated by graphviz version 2.43.0 (0)
 -->
<!-- Title: dpp::integration_update_t Pages: 1 -->
<svg width="1501pt" height="1289pt"
 viewBox="0.00 0.00 1501.00 1288.59" xmlns="http://www.w3.org/2000/svg" xmlns:xlink="http://www.w3.org/1999/xlink">
<g id="graph0" class="graph" transform="scale(1 1) rotate(0) translate(4 1284.59)">
<title>dpp::integration_update_t</title>
<!-- Node1 -->
<g id="node1" class="node">
<title>Node1</title>
<g id="a_node1"><a xlink:title="Integration update.">
<polygon fill="#bfbfbf" stroke="black" points="1351,-940.09 1351,-959.09 1493,-959.09 1493,-940.09 1351,-940.09"/>
<text text-anchor="middle" x="1422" y="-947.09" font-family="Helvetica,sans-Serif" font-size="10.00">dpp::integration_update_t</text>
</a>
</g>
</g>
<!-- Node2 -->
<g id="node2" class="node">
<title>Node2</title>
<g id="a_node2"><a xlink:href="structdpp_1_1event__dispatch__t.html" target="_top" xlink:title="Base event parameter struct. Each event you receive from the library will have its parameter derived ...">
<polygon fill="none" stroke="black" points="1190,-917.09 1190,-936.09 1314,-936.09 1314,-917.09 1190,-917.09"/>
<text text-anchor="middle" x="1252" y="-924.09" font-family="Helvetica,sans-Serif" font-size="10.00">dpp::event_dispatch_t</text>
</a>
</g>
</g>
<!-- Node2&#45;&gt;Node1 -->
<g id="edge1" class="edge">
<title>Node2&#45;&gt;Node1</title>
<path fill="none" stroke="midnightblue" d="M1324.19,-936.34C1333.19,-937.57 1342.4,-938.83 1351.38,-940.06"/>
<polygon fill="midnightblue" stroke="midnightblue" points="1324.51,-932.85 1314.13,-934.96 1323.56,-939.79 1324.51,-932.85"/>
</g>
<!-- Node3 -->
<g id="node3" class="node">
<title>Node3</title>
<g id="a_node3"><a xlink:title=" ">
<polygon fill="none" stroke="#bfbfbf" points="206.5,-1162.09 206.5,-1181.09 271.5,-1181.09 271.5,-1162.09 206.5,-1162.09"/>
<text text-anchor="middle" x="239" y="-1169.09" font-family="Helvetica,sans-Serif" font-size="10.00">std::string</text>
</a>
</g>
</g>
<!-- Node3&#45;&gt;Node2 -->
<g id="edge2" class="edge">
<title>Node3&#45;&gt;Node2</title>
<path fill="none" stroke="#9a32cd" stroke-dasharray="5,2" d="M262.27,-1186.76C278.08,-1196.96 300.12,-1210.05 321,-1218.59 405.5,-1253.17 428.7,-1269.59 520,-1269.59 520,-1269.59 520,-1269.59 1074,-1269.59 1223.61,-1269.59 1087.7,-1062.76 1190,-953.59 1197.21,-945.9 1207,-940.27 1216.62,-936.2"/>
<polygon fill="#9a32cd" stroke="#9a32cd" points="264.01,-1183.72 253.73,-1181.15 260.16,-1189.57 264.01,-1183.72"/>
<text text-anchor="middle" x="783.5" y="-1272.59" font-family="Helvetica,sans-Serif" font-size="10.00"> raw_event</text>
</g>
<!-- Node5 -->
<g id="node5" class="node">
<title>Node5</title>
<g id="a_node5"><a xlink:href="classdpp_1_1discord__client.html" target="_top" xlink:title="Implements a discord client. Each discord_client connects to one shard and derives from a websocket c...">
<polygon fill="none" stroke="black" points="1019,-288.09 1019,-307.09 1127,-307.09 1127,-288.09 1019,-288.09"/>
<text text-anchor="middle" x="1073" y="-295.09" font-family="Helvetica,sans-Serif" font-size="10.00">dpp::discord_client</text>
</a>
</g>
</g>
<!-- Node3&#45;&gt;Node5 -->
<g id="edge37" class="edge">
<title>Node3&#45;&gt;Node5</title>
<path fill="none" stroke="#9a32cd" stroke-dasharray="5,2" d="M281.48,-1178.6C393.94,-1194.91 705.58,-1221.89 846,-1048.59 872.78,-1015.55 853.08,-995.71 864,-954.59 912.23,-772.97 945.51,-734.13 1001,-554.59 1030.52,-459.07 1060.77,-341.78 1069.5,-307.46"/>
<polygon fill="#9a32cd" stroke="#9a32cd" points="281.95,-1175.13 271.54,-1177.11 280.91,-1182.05 281.95,-1175.13"/>
<text text-anchor="middle" x="651.5" y="-1191.59" font-family="Helvetica,sans-Serif" font-size="10.00"> sessionid</text>
<text text-anchor="middle" x="651.5" y="-1180.59" font-family="Helvetica,sans-Serif" font-size="10.00">token</text>
</g>
<!-- Node7 -->
<g id="node7" class="node">
<title>Node7</title>
<g id="a_node7"><a xlink:href="classdpp_1_1ssl__client.html" target="_top" xlink:title="Implements a simple non&#45;blocking SSL stream client.">
<polygon fill="none" stroke="black" points="478,-148.09 478,-167.09 564,-167.09 564,-148.09 478,-148.09"/>
<text text-anchor="middle" x="521" y="-155.09" font-family="Helvetica,sans-Serif" font-size="10.00">dpp::ssl_client</text>
</a>
</g>
</g>
<!-- Node3&#45;&gt;Node7 -->
<g id="edge7" class="edge">
<title>Node3&#45;&gt;Node7</title>
<path fill="none" stroke="#9a32cd" stroke-dasharray="5,2" d="M246.62,-1152.34C259.43,-1114.4 287.67,-1027.08 303,-951.59 309.55,-919.34 300.14,-830.05 321,-804.59 356.91,-760.79 408.06,-809.94 442,-764.59 477.64,-716.98 438.81,-285.17 460,-229.59 470.03,-203.29 493.9,-179.66 508.33,-167.1"/>
<polygon fill="#9a32cd" stroke="#9a32cd" points="243.22,-1151.48 243.31,-1162.08 249.85,-1153.74 243.22,-1151.48"/>
<text text-anchor="middle" x="381.5" y="-851.59" font-family="Helvetica,sans-Serif" font-size="10.00"> buffer</text>
<text text-anchor="middle" x="381.5" y="-840.59" font-family="Helvetica,sans-Serif" font-size="10.00">cipher</text>
<text text-anchor="middle" x="381.5" y="-829.59" font-family="Helvetica,sans-Serif" font-size="10.00">hostname</text>
<text text-anchor="middle" x="381.5" y="-818.59" font-family="Helvetica,sans-Serif" font-size="10.00">obuffer</text>
<text text-anchor="middle" x="381.5" y="-807.59" font-family="Helvetica,sans-Serif" font-size="10.00">port</text>
</g>
<!-- Node14 -->
<g id="node14" class="node">
<title>Node14</title>
<g id="a_node14"><a xlink:href="classdpp_1_1cluster.html" target="_top" xlink:title="The cluster class represents a group of shards and a command queue for sending and receiving commands...">
<polygon fill="none" stroke="black" points="746.5,-415.09 746.5,-434.09 820.5,-434.09 820.5,-415.09 746.5,-415.09"/>
<text text-anchor="middle" x="783.5" y="-422.09" font-family="Helvetica,sans-Serif" font-size="10.00">dpp::cluster</text>
</a>
</g>
</g>
<!-- Node3&#45;&gt;Node14 -->
<g id="edge15" class="edge">
<title>Node3&#45;&gt;Node14</title>
<path fill="none" stroke="#9a32cd" stroke-dasharray="5,2" d="M250.78,-1153.14C264.57,-1130.93 290.38,-1093.72 321,-1070.59 367.57,-1035.42 393.73,-1052.4 442,-1019.59 524.92,-963.25 517.44,-915.48 600,-858.59 641.14,-830.25 674.5,-854.63 703,-813.59 744.39,-754 691.8,-554.01 721,-487.59 731.09,-464.65 753.49,-445.25 768.29,-434.27"/>
<polygon fill="#9a32cd" stroke="#9a32cd" points="247.65,-1151.56 245.47,-1161.93 253.64,-1155.18 247.65,-1151.56"/>
<text text-anchor="middle" x="521" y="-1008.59" font-family="Helvetica,sans-Serif" font-size="10.00"> token</text>
</g>
<!-- Node19 -->
<g id="node19" class="node">
<title>Node19</title>
<g id="a_node19"><a xlink:href="classdpp_1_1user.html" target="_top" xlink:title="Represents a user on discord. May or may not be a member of a dpp::guild.">
<polygon fill="none" stroke="black" points="490,-808.09 490,-827.09 552,-827.09 552,-808.09 490,-808.09"/>
<text text-anchor="middle" x="521" y="-815.09" font-family="Helvetica,sans-Serif" font-size="10.00">dpp::user</text>
</a>
</g>
</g>
<!-- Node3&#45;&gt;Node19 -->
<g id="edge24" class="edge">
<title>Node3&#45;&gt;Node19</title>
<path fill="none" stroke="#9a32cd" stroke-dasharray="5,2" d="M242.89,-1151.86C249.6,-1112.84 269.75,-1025.21 321,-974.59 362.16,-933.94 404.29,-970.47 442,-926.59 465.19,-899.61 438.18,-876.69 460,-848.59 467.55,-838.87 479,-831.91 489.88,-827.08"/>
<polygon fill="#9a32cd" stroke="#9a32cd" points="239.41,-1151.49 241.28,-1161.92 246.32,-1152.6 239.41,-1151.49"/>
<text text-anchor="middle" x="381.5" y="-977.59" font-family="Helvetica,sans-Serif" font-size="10.00"> username</text>
</g>
<!-- Node30 -->
<g id="node30" class="node">
<title>Node30</title>
<g id="a_node30"><a xlink:href="classdpp_1_1integration.html" target="_top" xlink:title=" ">
<polygon fill="none" stroke="black" points="1026,-963.09 1026,-982.09 1120,-982.09 1120,-963.09 1026,-963.09"/>
<text text-anchor="middle" x="1073" y="-970.09" font-family="Helvetica,sans-Serif" font-size="10.00">dpp::integration</text>
</a>
</g>
</g>
<!-- Node3&#45;&gt;Node30 -->
<g id="edge45" class="edge">
<title>Node3&#45;&gt;Node30</title>
<path fill="none" stroke="#9a32cd" stroke-dasharray="5,2" d="M272.81,-1184.69C287.33,-1189.8 304.76,-1195.05 321,-1197.59 470.7,-1221.03 882.78,-1242.37 1001,-1147.59 1055.23,-1104.12 1068.33,-1012.64 1071.23,-982.47"/>
<polygon fill="#9a32cd" stroke="#9a32cd" points="273.87,-1181.35 263.28,-1181.2 271.47,-1187.92 273.87,-1181.35"/>
<text text-anchor="middle" x="651.5" y="-1243.59" font-family="Helvetica,sans-Serif" font-size="10.00"> account_id</text>
<text text-anchor="middle" x="651.5" y="-1232.59" font-family="Helvetica,sans-Serif" font-size="10.00">account_name</text>
<text text-anchor="middle" x="651.5" y="-1221.59" font-family="Helvetica,sans-Serif" font-size="10.00">name</text>
</g>
<!-- Node32 -->
<g id="node32" class="node">
<title>Node32</title>
<g id="a_node32"><a xlink:href="structdpp_1_1integration__app.html" target="_top" xlink:title="An application that has been integrated.">
<polygon fill="none" stroke="black" points="725,-1020.09 725,-1039.09 842,-1039.09 842,-1020.09 725,-1020.09"/>
<text text-anchor="middle" x="783.5" y="-1027.09" font-family="Helvetica,sans-Serif" font-size="10.00">dpp::integration_app</text>
</a>
</g>
</g>
<!-- Node3&#45;&gt;Node32 -->
<g id="edge53" class="edge">
<title>Node3&#45;&gt;Node32</title>
<path fill="none" stroke="#9a32cd" stroke-dasharray="5,2" d="M264.23,-1156.87C303.69,-1133.66 384.97,-1089.02 460,-1067.59 564.54,-1037.74 595.07,-1052.6 703,-1039.59 710.04,-1038.75 717.44,-1037.84 724.76,-1036.93"/>
<polygon fill="#9a32cd" stroke="#9a32cd" points="262.38,-1153.9 255.58,-1162.02 265.96,-1159.92 262.38,-1153.9"/>
<text text-anchor="middle" x="521" y="-1103.59" font-family="Helvetica,sans-Serif" font-size="10.00"> description</text>
<text text-anchor="middle" x="521" y="-1092.59" font-family="Helvetica,sans-Serif" font-size="10.00">icon</text>
<text text-anchor="middle" x="521" y="-1081.59" font-family="Helvetica,sans-Serif" font-size="10.00">name</text>
<text text-anchor="middle" x="521" y="-1070.59" font-family="Helvetica,sans-Serif" font-size="10.00">summary</text>
</g>
<!-- Node4 -->
<g id="node4" class="node">
<title>Node4</title>
<g id="a_node4"><a xlink:title=" ">
<polygon fill="none" stroke="#bfbfbf" points="0,-1156.59 0,-1186.59 104,-1186.59 104,-1156.59 0,-1156.59"/>
<text text-anchor="start" x="8" y="-1174.59" font-family="Helvetica,sans-Serif" font-size="10.00">std::basic_string&lt;</text>
<text text-anchor="middle" x="52" y="-1163.59" font-family="Helvetica,sans-Serif" font-size="10.00"> Char &gt;</text>
</a>
</g>
</g>
<!-- Node4&#45;&gt;Node3 -->
<g id="edge3" class="edge">
<title>Node4&#45;&gt;Node3</title>
<path fill="none" stroke="midnightblue" d="M114.26,-1171.59C145.05,-1171.59 181.08,-1171.59 206.29,-1171.59"/>
<polygon fill="midnightblue" stroke="midnightblue" points="114.04,-1168.09 104.04,-1171.59 114.04,-1175.09 114.04,-1168.09"/>
</g>
<!-- Node5&#45;&gt;Node2 -->
<g id="edge4" class="edge">
<title>Node5&#45;&gt;Node2</title>
<path fill="none" stroke="#9a32cd" stroke-dasharray="5,2" d="M1079.43,-316.9C1106.71,-413.85 1228.25,-845.76 1248.22,-916.72"/>
<polygon fill="#9a32cd" stroke="#9a32cd" points="1082.79,-315.9 1076.71,-307.22 1076.05,-317.8 1082.79,-315.9"/>
<text text-anchor="middle" x="1158.5" y="-634.59" font-family="Helvetica,sans-Serif" font-size="10.00"> from</text>
</g>
<!-- Node6 -->
<g id="node6" class="node">
<title>Node6</title>
<g id="a_node6"><a xlink:href="classdpp_1_1websocket__client.html" target="_top" xlink:title="Implements a websocket client based on the SSL client.">
<polygon fill="none" stroke="black" points="721,-165.09 721,-184.09 846,-184.09 846,-165.09 721,-165.09"/>
<text text-anchor="middle" x="783.5" y="-172.09" font-family="Helvetica,sans-Serif" font-size="10.00">dpp::websocket_client</text>
</a>
</g>
</g>
<!-- Node6&#45;&gt;Node5 -->
<g id="edge5" class="edge">
<title>Node6&#45;&gt;Node5</title>
<path fill="none" stroke="midnightblue" d="M856.22,-168.3C900.74,-167.69 957.55,-173.16 1001,-198.59 1037.14,-219.75 1059.85,-267.4 1068.28,-287.91"/>
<polygon fill="midnightblue" stroke="midnightblue" points="855.96,-164.8 846.05,-168.54 856.13,-171.8 855.96,-164.8"/>
</g>
<!-- Node7&#45;&gt;Node6 -->
<g id="edge6" class="edge">
<title>Node7&#45;&gt;Node6</title>
<path fill="none" stroke="midnightblue" d="M574.24,-161C616.58,-163.77 676.32,-167.67 720.97,-170.58"/>
<polygon fill="midnightblue" stroke="midnightblue" points="574.35,-157.5 564.14,-160.35 573.89,-164.49 574.35,-157.5"/>
</g>
<!-- Node8 -->
<g id="node8" class="node">
<title>Node8</title>
<g id="a_node8"><a xlink:title=" ">
<polygon fill="none" stroke="#bfbfbf" points="220,-187.09 220,-206.09 258,-206.09 258,-187.09 220,-187.09"/>
<text text-anchor="middle" x="239" y="-194.09" font-family="Helvetica,sans-Serif" font-size="10.00">bool</text>
</a>
</g>
</g>
<!-- Node8&#45;&gt;Node5 -->
<g id="edge40" class="edge">
<title>Node8&#45;&gt;Node5</title>
<path fill="none" stroke="#9a32cd" stroke-dasharray="5,2" d="M268.57,-195.73C390.11,-192.42 864.15,-183.3 1001,-237.59 1028,-248.31 1052.13,-273.62 1064.08,-287.7"/>
<polygon fill="#9a32cd" stroke="#9a32cd" points="268.14,-192.24 258.24,-196.02 268.33,-199.24 268.14,-192.24"/>
<text text-anchor="middle" x="651.5" y="-200.59" font-family="Helvetica,sans-Serif" font-size="10.00"> ready</text>
</g>
<!-- Node8&#45;&gt;Node7 -->
<g id="edge8" class="edge">
<title>Node8&#45;&gt;Node7</title>
<path fill="none" stroke="#9a32cd" stroke-dasharray="5,2" d="M268.27,-190.43C283.79,-187.2 303.39,-183.35 321,-180.59 374.95,-172.16 437.57,-165.42 477.94,-161.47"/>
<polygon fill="#9a32cd" stroke="#9a32cd" points="267.32,-187.06 258.26,-192.55 268.77,-193.91 267.32,-187.06"/>
<text text-anchor="middle" x="381.5" y="-183.59" font-family="Helvetica,sans-Serif" font-size="10.00"> nonblocking</text>
</g>
<!-- Node9 -->
<g id="node9" class="node">
<title>Node9</title>
<g id="a_node9"><a xlink:title=" ">
<polygon fill="none" stroke="#bfbfbf" points="224.5,-6.09 224.5,-25.09 253.5,-25.09 253.5,-6.09 224.5,-6.09"/>
<text text-anchor="middle" x="239" y="-13.09" font-family="Helvetica,sans-Serif" font-size="10.00">int</text>
</a>
</g>
</g>
<!-- Node9&#45;&gt;Node7 -->
<g id="edge9" class="edge">
<title>Node9&#45;&gt;Node7</title>
<path fill="none" stroke="#9a32cd" stroke-dasharray="5,2" d="M263.35,-9.6C303.2,-0.75 385.51,11.33 442,-22.59 490.04,-51.44 511.39,-121.9 517.8,-147.82"/>
<polygon fill="#9a32cd" stroke="#9a32cd" points="262.45,-6.21 253.51,-11.91 264.05,-13.03 262.45,-6.21"/>
<text text-anchor="middle" x="381.5" y="-25.59" font-family="Helvetica,sans-Serif" font-size="10.00"> sfd</text>
</g>
<!-- Node10 -->
<g id="node10" class="node">
<title>Node10</title>
<g id="a_node10"><a xlink:title=" ">
<polygon fill="none" stroke="#bfbfbf" points="189.5,-91.09 189.5,-110.09 288.5,-110.09 288.5,-91.09 189.5,-91.09"/>
<text text-anchor="middle" x="239" y="-98.09" font-family="Helvetica,sans-Serif" font-size="10.00">opensslcontext *</text>
</a>
</g>
</g>
<!-- Node10&#45;&gt;Node7 -->
<g id="edge10" class="edge">
<title>Node10&#45;&gt;Node7</title>
<path fill="none" stroke="#9a32cd" stroke-dasharray="5,2" d="M298.63,-101.62C339.45,-103.56 394.83,-108.64 442,-121.59 464.29,-127.72 488.18,-139.62 503.57,-148.06"/>
<polygon fill="#9a32cd" stroke="#9a32cd" points="298.71,-98.12 288.57,-101.2 298.41,-105.12 298.71,-98.12"/>
<text text-anchor="middle" x="381.5" y="-124.59" font-family="Helvetica,sans-Serif" font-size="10.00"> ssl</text>
</g>
<!-- Node11 -->
<g id="node11" class="node">
<title>Node11</title>
<g id="a_node11"><a xlink:title=" ">
<polygon fill="none" stroke="#bfbfbf" points="215,-529.09 215,-548.09 263,-548.09 263,-529.09 215,-529.09"/>
<text text-anchor="middle" x="239" y="-536.09" font-family="Helvetica,sans-Serif" font-size="10.00">time_t</text>
</a>
</g>
</g>
<!-- Node11&#45;&gt;Node5 -->
<g id="edge34" class="edge">
<title>Node11&#45;&gt;Node5</title>
<path fill="none" stroke="#9a32cd" stroke-dasharray="5,2" d="M273.15,-544.79C365.98,-560.8 635.51,-598.21 846,-536.59 920.21,-514.87 947.81,-513.72 1001,-457.59 1044.69,-411.49 1064.37,-334.02 1070.12,-307.13"/>
<polygon fill="#9a32cd" stroke="#9a32cd" points="273.67,-541.32 263.22,-543.04 272.46,-548.22 273.67,-541.32"/>
<text text-anchor="middle" x="651.5" y="-584.59" font-family="Helvetica,sans-Serif" font-size="10.00"> last_heartbeat</text>
<text text-anchor="middle" x="651.5" y="-573.59" font-family="Helvetica,sans-Serif" font-size="10.00">last_heartbeat_ack</text>
</g>
<!-- Node11&#45;&gt;Node7 -->
<g id="edge11" class="edge">
<title>Node11&#45;&gt;Node7</title>
<path fill="none" stroke="#9a32cd" stroke-dasharray="5,2" d="M266.53,-524.51C282.04,-516.78 302.21,-507.58 321,-501.59 373.16,-484.99 405.59,-519.48 442,-478.59 478.9,-437.16 439.24,-281.04 460,-229.59 470.47,-203.64 493.96,-180.06 508.24,-167.38"/>
<polygon fill="#9a32cd" stroke="#9a32cd" points="264.85,-521.44 257.52,-529.09 268.02,-527.68 264.85,-521.44"/>
<text text-anchor="middle" x="381.5" y="-504.59" font-family="Helvetica,sans-Serif" font-size="10.00"> last_tick</text>
</g>
<!-- Node11&#45;&gt;Node14 -->
<g id="edge16" class="edge">
<title>Node11&#45;&gt;Node14</title>
<path fill="none" stroke="#9a32cd" stroke-dasharray="5,2" d="M273.26,-538.73C324.1,-538.23 417.77,-534.28 442,-512.59 467.22,-490.02 433.85,-460.08 460,-438.59 502.76,-403.46 671.49,-414.21 746.37,-420.95"/>
<polygon fill="#9a32cd" stroke="#9a32cd" points="273.09,-535.23 263.11,-538.79 273.13,-542.23 273.09,-535.23"/>
<text text-anchor="middle" x="521" y="-441.59" font-family="Helvetica,sans-Serif" font-size="10.00"> last_identify</text>
</g>
<!-- Node11&#45;&gt;Node30 -->
<g id="edge50" class="edge">
<title>Node11&#45;&gt;Node30</title>
<path fill="none" stroke="#9a32cd" stroke-dasharray="5,2" d="M271.28,-552.31C286.29,-558.84 304.54,-566.71 321,-573.59 444.41,-625.24 473.42,-643.29 600,-686.59 645,-701.99 659.15,-697.18 703,-715.59 843.78,-774.74 884.29,-788.13 1001,-886.59 1028.97,-910.19 1054.34,-945.82 1065.7,-962.85"/>
<polygon fill="#9a32cd" stroke="#9a32cd" points="272.51,-549.03 261.94,-548.24 269.71,-555.44 272.51,-549.03"/>
<text text-anchor="middle" x="651.5" y="-718.59" font-family="Helvetica,sans-Serif" font-size="10.00"> synced_at</text>
</g>
<!-- Node12 -->
<g id="node12" class="node">
<title>Node12</title>
<g id="a_node12"><a xlink:title=" ">
<polygon fill="none" stroke="#bfbfbf" points="24,-741.09 24,-760.09 80,-760.09 80,-741.09 24,-741.09"/>
<text text-anchor="middle" x="52" y="-748.09" font-family="Helvetica,sans-Serif" font-size="10.00">uint64_t</text>
</a>
</g>
</g>
<!-- Node12&#45;&gt;Node5 -->
<g id="edge36" class="edge">
<title>Node12&#45;&gt;Node5</title>
<path fill="none" stroke="#9a32cd" stroke-dasharray="5,2" d="M54.75,-730.79C62.68,-646.11 98.19,-315.98 175,-253.59 240.47,-200.42 836.07,-268.57 1018.89,-290.94"/>
<polygon fill="#9a32cd" stroke="#9a32cd" points="51.26,-730.58 53.83,-740.86 58.23,-731.22 51.26,-730.58"/>
<text text-anchor="middle" x="521" y="-249.59" font-family="Helvetica,sans-Serif" font-size="10.00"> last_seq</text>
</g>
<!-- Node12&#45;&gt;Node7 -->
<g id="edge12" class="edge">
<title>Node12&#45;&gt;Node7</title>
<path fill="none" stroke="#9a32cd" stroke-dasharray="5,2" d="M54.12,-730.91C59.14,-646.55 81.11,-315.51 122,-220.59 136.75,-186.36 141.33,-171.59 175,-155.59 227.35,-130.73 397.67,-144.6 477.71,-152.85"/>
<polygon fill="#9a32cd" stroke="#9a32cd" points="50.62,-730.75 53.54,-740.93 57.61,-731.15 50.62,-730.75"/>
<text text-anchor="middle" x="239" y="-169.59" font-family="Helvetica,sans-Serif" font-size="10.00"> bytes_in</text>
<text text-anchor="middle" x="239" y="-158.59" font-family="Helvetica,sans-Serif" font-size="10.00">bytes_out</text>
</g>
<!-- Node20 -->
<g id="node20" class="node">
<title>Node20</title>
<g id="a_node20"><a xlink:href="classdpp_1_1managed.html" target="_top" xlink:title="The managed class is the base class for various types that can be stored in a cache that are identifi...">
<polygon fill="none" stroke="black" points="196,-847.09 196,-866.09 282,-866.09 282,-847.09 196,-847.09"/>
<text text-anchor="middle" x="239" y="-854.09" font-family="Helvetica,sans-Serif" font-size="10.00">dpp::managed</text>
</a>
</g>
</g>
<!-- Node12&#45;&gt;Node20 -->
<g id="edge23" class="edge">
<title>Node12&#45;&gt;Node20</title>
<path fill="none" stroke="#9a32cd" stroke-dasharray="5,2" d="M78.78,-765.36C117.26,-787.42 188.7,-828.35 221.16,-846.95"/>
<polygon fill="#9a32cd" stroke="#9a32cd" points="80.16,-762.12 69.74,-760.19 76.68,-768.2 80.16,-762.12"/>
<text text-anchor="middle" x="139.5" y="-813.59" font-family="Helvetica,sans-Serif" font-size="10.00"> id</text>
</g>
<!-- Node22 -->
<g id="node22" class="node">
<title>Node22</title>
<g id="a_node22"><a xlink:href="structdpp_1_1utility_1_1iconhash.html" target="_top" xlink:title="Store a 128 bit icon hash (profile picture, server icon etc) as a 128 bit binary value made of two ui...">
<polygon fill="none" stroke="black" points="180,-707.09 180,-726.09 298,-726.09 298,-707.09 180,-707.09"/>
<text text-anchor="middle" x="239" y="-714.09" font-family="Helvetica,sans-Serif" font-size="10.00">dpp::utility::iconhash</text>
</a>
</g>
</g>
<!-- Node12&#45;&gt;Node22 -->
<g id="edge27" class="edge">
<title>Node12&#45;&gt;Node22</title>
<path fill="none" stroke="#9a32cd" stroke-dasharray="5,2" d="M90.3,-743.74C117.81,-738.68 155.59,-731.74 186.05,-726.14"/>
<polygon fill="#9a32cd" stroke="#9a32cd" points="89.5,-740.33 80.3,-745.58 90.77,-747.21 89.5,-740.33"/>
<text text-anchor="middle" x="139.5" y="-752.59" font-family="Helvetica,sans-Serif" font-size="10.00"> first</text>
<text text-anchor="middle" x="139.5" y="-741.59" font-family="Helvetica,sans-Serif" font-size="10.00">second</text>
</g>
<!-- Node12&#45;&gt;Node30 -->
<g id="edge48" class="edge">
<title>Node12&#45;&gt;Node30</title>
<path fill="none" stroke="#9a32cd" stroke-dasharray="5,2" d="M53.29,-770.49C55.57,-849.07 75.06,-1133.59 238,-1133.59 238,-1133.59 238,-1133.59 784.5,-1133.59 888.88,-1133.59 914.16,-1100.5 1001,-1042.59 1027.21,-1025.12 1052.04,-997.11 1064.2,-982.38"/>
<polygon fill="#9a32cd" stroke="#9a32cd" points="56.79,-770.37 53.06,-760.45 49.79,-770.52 56.79,-770.37"/>
<text text-anchor="middle" x="521" y="-1147.59" font-family="Helvetica,sans-Serif" font-size="10.00"> role_id</text>
<text text-anchor="middle" x="521" y="-1136.59" font-family="Helvetica,sans-Serif" font-size="10.00">user_id</text>
</g>
<!-- Node12&#45;&gt;Node32 -->
<g id="edge52" class="edge">
<title>Node12&#45;&gt;Node32</title>
<path fill="none" stroke="#9a32cd" stroke-dasharray="5,2" d="M58.88,-770.13C72.25,-810.96 109,-905.4 175,-951.59 262.99,-1013.18 590.36,-1026.14 724.56,-1028.87"/>
<polygon fill="#9a32cd" stroke="#9a32cd" points="62.2,-769.02 55.85,-760.54 55.53,-771.13 62.2,-769.02"/>
<text text-anchor="middle" x="381.5" y="-1016.59" font-family="Helvetica,sans-Serif" font-size="10.00"> id</text>
</g>
<!-- Node13 -->
<g id="node13" class="node">
<title>Node13</title>
<g id="a_node13"><a xlink:title=" ">
<polygon fill="none" stroke="#bfbfbf" points="206.5,-44.09 206.5,-63.09 271.5,-63.09 271.5,-44.09 206.5,-44.09"/>
<text text-anchor="middle" x="239" y="-51.09" font-family="Helvetica,sans-Serif" font-size="10.00">function&lt;</text>
</a>
</g>
</g>
<!-- Node13&#45;&gt;Node7 -->
<g id="edge13" class="edge">
<title>Node13&#45;&gt;Node7</title>
<path fill="none" stroke="#9a32cd" stroke-dasharray="5,2" d="M281.78,-43.81C324.45,-36.07 391.44,-30.3 442,-55.59 481.87,-75.55 507.05,-126.58 516.16,-147.95"/>
<polygon fill="#9a32cd" stroke="#9a32cd" points="280.9,-40.41 271.74,-45.75 282.23,-47.29 280.9,-40.41"/>
<text text-anchor="middle" x="381.5" y="-91.59" font-family="Helvetica,sans-Serif" font-size="10.00"> custom_readable_fd</text>
<text text-anchor="middle" x="381.5" y="-80.59" font-family="Helvetica,sans-Serif" font-size="10.00">custom_readable_ready</text>
<text text-anchor="middle" x="381.5" y="-69.59" font-family="Helvetica,sans-Serif" font-size="10.00">custom_writeable_fd</text>
<text text-anchor="middle" x="381.5" y="-58.59" font-family="Helvetica,sans-Serif" font-size="10.00">custom_writeable_ready</text>
</g>
<!-- Node14&#45;&gt;Node5 -->
<g id="edge14" class="edge">
<title>Node14&#45;&gt;Node5</title>
<path fill="none" stroke="#9a32cd" stroke-dasharray="5,2" d="M815.58,-410.87C874.15,-384.99 999.53,-329.61 1050.14,-307.25"/>
<polygon fill="#9a32cd" stroke="#9a32cd" points="813.84,-407.81 806.11,-415.05 816.67,-414.21 813.84,-407.81"/>
<text text-anchor="middle" x="932.5" y="-390.59" font-family="Helvetica,sans-Serif" font-size="10.00"> creator</text>
</g>
<!-- Node15 -->
<g id="node15" class="node">
<title>Node15</title>
<g id="a_node15"><a xlink:title=" ">
<polygon fill="none" stroke="#bfbfbf" points="211,-629.09 211,-648.09 267,-648.09 267,-629.09 211,-629.09"/>
<text text-anchor="middle" x="239" y="-636.09" font-family="Helvetica,sans-Serif" font-size="10.00">uint32_t</text>
</a>
</g>
</g>
<!-- Node15&#45;&gt;Node5 -->
<g id="edge33" class="edge">
<title>Node15&#45;&gt;Node5</title>
<path fill="none" stroke="#9a32cd" stroke-dasharray="5,2" d="M277.49,-637.77C416.29,-633.89 898.28,-613.01 1001,-508.59 1059.28,-449.36 1069.75,-340.79 1071.6,-307.54"/>
<polygon fill="#9a32cd" stroke="#9a32cd" points="277.25,-634.27 267.35,-638.04 277.44,-641.27 277.25,-634.27"/>
<text text-anchor="middle" x="651.5" y="-674.59" font-family="Helvetica,sans-Serif" font-size="10.00"> heartbeat_interval</text>
<text text-anchor="middle" x="651.5" y="-663.59" font-family="Helvetica,sans-Serif" font-size="10.00">intents</text>
<text text-anchor="middle" x="651.5" y="-652.59" font-family="Helvetica,sans-Serif" font-size="10.00">max_shards</text>
<text text-anchor="middle" x="651.5" y="-641.59" font-family="Helvetica,sans-Serif" font-size="10.00">reconnects</text>
<text text-anchor="middle" x="651.5" y="-630.59" font-family="Helvetica,sans-Serif" font-size="10.00">resumes</text>
<text text-anchor="middle" x="651.5" y="-619.59" font-family="Helvetica,sans-Serif" font-size="10.00">shard_id</text>
</g>
<!-- Node15&#45;&gt;Node14 -->
<g id="edge17" class="edge">
<title>Node15&#45;&gt;Node14</title>
<path fill="none" stroke="#9a32cd" stroke-dasharray="5,2" d="M274.89,-625.43C326.32,-605.38 418.92,-566.69 442,-539.59 459.78,-518.73 439.45,-498.74 460,-480.59 481.33,-461.77 666.62,-438.13 746.31,-428.73"/>
<polygon fill="#9a32cd" stroke="#9a32cd" points="273.55,-622.19 265.48,-629.06 276.07,-628.72 273.55,-622.19"/>
<text text-anchor="middle" x="521" y="-516.59" font-family="Helvetica,sans-Serif" font-size="10.00"> cluster_id</text>
<text text-anchor="middle" x="521" y="-505.59" font-family="Helvetica,sans-Serif" font-size="10.00">intents</text>
<text text-anchor="middle" x="521" y="-494.59" font-family="Helvetica,sans-Serif" font-size="10.00">maxclusters</text>
<text text-anchor="middle" x="521" y="-483.59" font-family="Helvetica,sans-Serif" font-size="10.00">numshards</text>
</g>
<!-- Node15&#45;&gt;Node19 -->
<g id="edge28" class="edge">
<title>Node15&#45;&gt;Node19</title>
<path fill="none" stroke="#9a32cd" stroke-dasharray="5,2" d="M276.92,-649.91C290.71,-654.04 306.54,-658.66 321,-662.59 374.46,-677.14 403.68,-652.57 442,-692.59 469.91,-721.74 436.72,-748.63 460,-781.59 468.41,-793.5 482.12,-802.16 494.31,-807.99"/>
<polygon fill="#9a32cd" stroke="#9a32cd" points="277.87,-646.55 267.28,-647.01 275.85,-653.25 277.87,-646.55"/>
<text text-anchor="middle" x="381.5" y="-695.59" font-family="Helvetica,sans-Serif" font-size="10.00"> flags</text>
</g>
<!-- Node15&#45;&gt;Node30 -->
<g id="edge49" class="edge">
<title>Node15&#45;&gt;Node30</title>
<path fill="none" stroke="#9a32cd" stroke-dasharray="5,2" d="M277.07,-638.97C328.4,-640.25 417.58,-645.4 442,-665.59 461.5,-681.72 444.51,-699.59 460,-719.59 499.55,-770.67 529.98,-760.29 582,-798.59 590.39,-804.77 590.82,-808.68 600,-813.59 763.89,-901.35 829.83,-860.07 1001,-932.59 1021.32,-941.21 1043.24,-954.18 1057.27,-962.99"/>
<polygon fill="#9a32cd" stroke="#9a32cd" points="277.11,-635.47 267.04,-638.76 276.96,-642.47 277.11,-635.47"/>
<text text-anchor="middle" x="651.5" y="-871.59" font-family="Helvetica,sans-Serif" font-size="10.00"> expire_grace_period</text>
<text text-anchor="middle" x="651.5" y="-860.59" font-family="Helvetica,sans-Serif" font-size="10.00">subscriber_count</text>
</g>
<!-- Node16 -->
<g id="node16" class="node">
<title>Node16</title>
<g id="a_node16"><a xlink:title=" ">
<polygon fill="none" stroke="#bfbfbf" points="496,-534.09 496,-553.09 546,-553.09 546,-534.09 496,-534.09"/>
<text text-anchor="middle" x="521" y="-541.09" font-family="Helvetica,sans-Serif" font-size="10.00">double</text>
</a>
</g>
</g>
<!-- Node16&#45;&gt;Node5 -->
<g id="edge39" class="edge">
<title>Node16&#45;&gt;Node5</title>
<path fill="none" stroke="#9a32cd" stroke-dasharray="5,2" d="M556.28,-543.15C593.07,-541.99 652.95,-538.12 703,-525.59 841.99,-490.8 889.93,-493.12 1001,-402.59 1034.6,-375.21 1058.53,-327.79 1067.78,-307.39"/>
<polygon fill="#9a32cd" stroke="#9a32cd" points="556,-539.66 546.1,-543.42 556.19,-546.65 556,-539.66"/>
<text text-anchor="middle" x="783.5" y="-524.59" font-family="Helvetica,sans-Serif" font-size="10.00"> websocket_ping</text>
</g>
<!-- Node16&#45;&gt;Node14 -->
<g id="edge18" class="edge">
<title>Node16&#45;&gt;Node14</title>
<path fill="none" stroke="#9a32cd" stroke-dasharray="5,2" d="M555.57,-530.43C569.26,-525.24 585.3,-519.39 600,-514.59 645.21,-499.85 660.48,-506.9 703,-485.59 730.69,-471.72 758.31,-447.65 772.57,-434.27"/>
<polygon fill="#9a32cd" stroke="#9a32cd" points="554.15,-527.23 546.06,-534.07 556.65,-533.76 554.15,-527.23"/>
<text text-anchor="middle" x="651.5" y="-517.59" font-family="Helvetica,sans-Serif" font-size="10.00"> rest_ping</text>
</g>
<!-- Node17 -->
<g id="node17" class="node">
<title>Node17</title>
<g id="a_node17"><a xlink:href="classdpp_1_1dispatcher.html" target="_top" xlink:title="The dispatcher class contains a set of std::functions representing hooked events that the user code i...">
<polygon fill="none" stroke="black" points="475,-368.09 475,-387.09 567,-387.09 567,-368.09 475,-368.09"/>
<text text-anchor="middle" x="521" y="-375.09" font-family="Helvetica,sans-Serif" font-size="10.00">dpp::dispatcher</text>
</a>
</g>
</g>
<!-- Node17&#45;&gt;Node14 -->
<g id="edge19" class="edge">
<title>Node17&#45;&gt;Node14</title>
<path fill="none" stroke="#9a32cd" stroke-dasharray="5,2" d="M577.33,-381.67C613.39,-384.97 661.32,-390.59 703,-399.59 721.1,-403.51 740.98,-409.76 756.33,-415.03"/>
<polygon fill="#9a32cd" stroke="#9a32cd" points="577.28,-378.15 567.01,-380.75 576.66,-385.12 577.28,-378.15"/>
<text text-anchor="middle" x="651.5" y="-402.59" font-family="Helvetica,sans-Serif" font-size="10.00"> dispatch</text>
</g>
<!-- Node18 -->
<g id="node18" class="node">
<title>Node18</title>
<g id="a_node18"><a xlink:title=" ">
<polygon fill="none" stroke="#bfbfbf" points="211,-314.09 211,-333.09 267,-333.09 267,-314.09 211,-314.09"/>
<text text-anchor="middle" x="239" y="-321.09" font-family="Helvetica,sans-Serif" font-size="10.00">vector&lt;</text>
</a>
</g>
</g>
<!-- Node18&#45;&gt;Node17 -->
<g id="edge20" class="edge">
<title>Node18&#45;&gt;Node17</title>
<path fill="none" stroke="#9a32cd" stroke-dasharray="5,2" d="M276.89,-313.25C319.81,-303.45 391.26,-294.31 442,-324.59 456.34,-333.16 447.19,-346.88 460,-357.59 465.22,-361.96 471.43,-365.39 477.85,-368.07"/>
<polygon fill="#9a32cd" stroke="#9a32cd" points="276.04,-309.85 267.14,-315.6 277.68,-316.66 276.04,-309.85"/>
<text text-anchor="start" x="325.5" y="-470.59" font-family="Helvetica,sans-Serif" font-size="10.00"> application_command</text>
<text text-anchor="middle" x="381.5" y="-459.59" font-family="Helvetica,sans-Serif" font-size="10.00">_create</text>
<text text-anchor="start" x="325.5" y="-448.59" font-family="Helvetica,sans-Serif" font-size="10.00">application_command</text>
<text text-anchor="middle" x="381.5" y="-437.59" font-family="Helvetica,sans-Serif" font-size="10.00">_delete</text>
<text text-anchor="start" x="325.5" y="-426.59" font-family="Helvetica,sans-Serif" font-size="10.00">application_command</text>
<text text-anchor="middle" x="381.5" y="-415.59" font-family="Helvetica,sans-Serif" font-size="10.00">_update</text>
<text text-anchor="middle" x="381.5" y="-404.59" font-family="Helvetica,sans-Serif" font-size="10.00">autocomplete</text>
<text text-anchor="middle" x="381.5" y="-393.59" font-family="Helvetica,sans-Serif" font-size="10.00">button_click</text>
<text text-anchor="middle" x="381.5" y="-382.59" font-family="Helvetica,sans-Serif" font-size="10.00">channel_create</text>
<text text-anchor="middle" x="381.5" y="-371.59" font-family="Helvetica,sans-Serif" font-size="10.00">channel_delete</text>
<text text-anchor="middle" x="381.5" y="-360.59" font-family="Helvetica,sans-Serif" font-size="10.00">channel_pins_update</text>
<text text-anchor="middle" x="381.5" y="-349.59" font-family="Helvetica,sans-Serif" font-size="10.00">channel_update</text>
<text text-anchor="middle" x="381.5" y="-338.59" font-family="Helvetica,sans-Serif" font-size="10.00">guild_ban_add</text>
<text text-anchor="middle" x="381.5" y="-327.59" font-family="Helvetica,sans-Serif" font-size="10.00">...</text>
</g>
<!-- Node19&#45;&gt;Node14 -->
<g id="edge21" class="edge">
<title>Node19&#45;&gt;Node14</title>
<path fill="none" stroke="#9a32cd" stroke-dasharray="5,2" d="M561.78,-810.43C604.4,-800.48 670.3,-778.03 703,-730.59 729.96,-691.48 705.41,-562.47 721,-517.59 732.75,-483.77 759.63,-450.26 773.64,-434.28"/>
<polygon fill="#9a32cd" stroke="#9a32cd" points="561.02,-807.02 552.01,-812.59 562.53,-813.85 561.02,-807.02"/>
<text text-anchor="middle" x="651.5" y="-801.59" font-family="Helvetica,sans-Serif" font-size="10.00"> me</text>
</g>
<!-- Node19&#45;&gt;Node32 -->
<g id="edge54" class="edge">
<title>Node19&#45;&gt;Node32</title>
<path fill="none" stroke="#9a32cd" stroke-dasharray="5,2" d="M561.34,-831.05C569.29,-835.47 576.79,-841.22 582,-848.59 616.15,-896.97 559.93,-937 600,-980.59 631.74,-1015.13 657.77,-991.18 703,-1003.59 720.64,-1008.44 740.18,-1014.81 755.47,-1020.04"/>
<polygon fill="#9a32cd" stroke="#9a32cd" points="562.79,-827.86 552.28,-826.59 559.71,-834.15 562.79,-827.86"/>
<text text-anchor="middle" x="651.5" y="-1006.59" font-family="Helvetica,sans-Serif" font-size="10.00"> bot</text>
</g>
<!-- Node20&#45;&gt;Node19 -->
<g id="edge22" class="edge">
<title>Node20&#45;&gt;Node19</title>
<path fill="none" stroke="midnightblue" d="M292.21,-856.41C333.26,-855.45 391.72,-852.25 442,-842.59 460.29,-839.08 480.29,-832.62 495.46,-827.14"/>
<polygon fill="midnightblue" stroke="midnightblue" points="292.09,-852.92 282.16,-856.61 292.23,-859.92 292.09,-852.92"/>
</g>
<!-- Node20&#45;&gt;Node30 -->
<g id="edge44" class="edge">
<title>Node20&#45;&gt;Node30</title>
<path fill="none" stroke="midnightblue" d="M261.36,-871.94C277.05,-882.32 299.32,-895.24 321,-901.59 545.37,-967.31 613.27,-912.29 846,-934.59 915.14,-941.22 932.77,-941.59 1001,-954.59 1013.12,-956.9 1026.24,-960.05 1037.88,-963.06"/>
<polygon fill="midnightblue" stroke="midnightblue" points="263.17,-868.94 252.94,-866.2 259.23,-874.73 263.17,-868.94"/>
</g>
<!-- Node21 -->
<g id="node21" class="node">
<title>Node21</title>
<g id="a_node21"><a xlink:title=" ">
<polygon fill="none" stroke="#bfbfbf" points="211,-745.09 211,-764.09 267,-764.09 267,-745.09 211,-745.09"/>
<text text-anchor="middle" x="239" y="-752.09" font-family="Helvetica,sans-Serif" font-size="10.00">uint16_t</text>
</a>
</g>
</g>
<!-- Node21&#45;&gt;Node19 -->
<g id="edge25" class="edge">
<title>Node21&#45;&gt;Node19</title>
<path fill="none" stroke="#9a32cd" stroke-dasharray="5,2" d="M277.11,-744.26C319.73,-734.58 390.39,-725.42 442,-753.59 454.98,-760.68 449.38,-771.3 460,-781.59 471.34,-792.59 486.63,-801.7 498.94,-808.01"/>
<polygon fill="#9a32cd" stroke="#9a32cd" points="276.08,-740.91 267.17,-746.64 277.71,-747.71 276.08,-740.91"/>
<text text-anchor="middle" x="381.5" y="-756.59" font-family="Helvetica,sans-Serif" font-size="10.00"> discriminator</text>
</g>
<!-- Node22&#45;&gt;Node19 -->
<g id="edge26" class="edge">
<title>Node22&#45;&gt;Node19</title>
<path fill="none" stroke="#9a32cd" stroke-dasharray="5,2" d="M308.62,-709.57C358.85,-705.94 421.65,-705.07 442,-720.59 464.47,-737.74 442.7,-759.24 460,-781.59 469.07,-793.32 483.12,-802.04 495.35,-807.96"/>
<polygon fill="#9a32cd" stroke="#9a32cd" points="308.13,-706.09 298.43,-710.35 308.67,-713.07 308.13,-706.09"/>
<text text-anchor="middle" x="381.5" y="-723.59" font-family="Helvetica,sans-Serif" font-size="10.00"> avatar</text>
</g>
<!-- Node23 -->
<g id="node23" class="node">
<title>Node23</title>
<g id="a_node23"><a xlink:title=" ">
<polygon fill="none" stroke="#bfbfbf" points="214,-923.09 214,-942.09 264,-942.09 264,-923.09 214,-923.09"/>
<text text-anchor="middle" x="239" y="-930.09" font-family="Helvetica,sans-Serif" font-size="10.00">uint8_t</text>
</a>
</g>
</g>
<!-- Node23&#45;&gt;Node19 -->
<g id="edge29" class="edge">
<title>Node23&#45;&gt;Node19</title>
<path fill="none" stroke="#9a32cd" stroke-dasharray="5,2" d="M274.08,-925.01C315.56,-914.89 386.9,-894.56 442,-863.59 451.08,-858.49 451.32,-854.35 460,-848.59 472.31,-840.43 487.04,-832.79 498.82,-827.14"/>
<polygon fill="#9a32cd" stroke="#9a32cd" points="273.12,-921.64 264.2,-927.37 274.74,-928.45 273.12,-921.64"/>
<text text-anchor="middle" x="381.5" y="-914.59" font-family="Helvetica,sans-Serif" font-size="10.00"> refcount</text>
</g>
<!-- Node23&#45;&gt;Node30 -->
<g id="edge47" class="edge">
<title>Node23&#45;&gt;Node30</title>
<path fill="none" stroke="#9a32cd" stroke-dasharray="5,2" d="M271.17,-945.95C285.98,-951.61 304.1,-957.6 321,-960.59 488.2,-990.26 534.97,-943.12 703,-967.59 711.22,-968.79 712.79,-971.33 721,-972.59 783.85,-982.28 800.42,-976.48 864,-977.59 924.88,-978.66 940.15,-979.73 1001,-977.59 1009.03,-977.31 1017.56,-976.85 1025.81,-976.32"/>
<polygon fill="#9a32cd" stroke="#9a32cd" points="272.09,-942.54 261.51,-942.11 269.51,-949.05 272.09,-942.54"/>
<text text-anchor="middle" x="651.5" y="-970.59" font-family="Helvetica,sans-Serif" font-size="10.00"> flags</text>
</g>
<!-- Node24 -->
<g id="node24" class="node">
<title>Node24</title>
<g id="a_node24"><a xlink:href="structdpp_1_1cache__policy__t.html" target="_top" xlink:title="Represents the caching policy of the cluster.">
<polygon fill="none" stroke="black" points="464.5,-329.09 464.5,-348.09 577.5,-348.09 577.5,-329.09 464.5,-329.09"/>
<text text-anchor="middle" x="521" y="-336.09" font-family="Helvetica,sans-Serif" font-size="10.00">dpp::cache_policy_t</text>
</a>
</g>
</g>
<!-- Node24&#45;&gt;Node14 -->
<g id="edge30" class="edge">
<title>Node24&#45;&gt;Node14</title>
<path fill="none" stroke="#9a32cd" stroke-dasharray="5,2" d="M587.73,-342.93C622.94,-346.95 666.46,-354.69 703,-369.59 730.19,-380.69 757.36,-402.32 771.83,-414.89"/>
<polygon fill="#9a32cd" stroke="#9a32cd" points="587.88,-339.43 577.56,-341.85 587.14,-346.39 587.88,-339.43"/>
<text text-anchor="middle" x="651.5" y="-372.59" font-family="Helvetica,sans-Serif" font-size="10.00"> cache_policy</text>
</g>
<!-- Node25 -->
<g id="node25" class="node">
<title>Node25</title>
<g id="a_node25"><a xlink:title=" ">
<polygon fill="none" stroke="#bfbfbf" points="175,-263.09 175,-282.09 303,-282.09 303,-263.09 175,-263.09"/>
<text text-anchor="middle" x="239" y="-270.09" font-family="Helvetica,sans-Serif" font-size="10.00">cache_policy_setting_t</text>
</a>
</g>
</g>
<!-- Node25&#45;&gt;Node24 -->
<g id="edge31" class="edge">
<title>Node25&#45;&gt;Node24</title>
<path fill="none" stroke="#9a32cd" stroke-dasharray="5,2" d="M275.31,-260.04C318.74,-247.02 392.74,-232.97 442,-267.59 461.32,-281.18 443.23,-300.97 460,-317.59 464.86,-322.41 470.88,-326.13 477.23,-328.99"/>
<polygon fill="#9a32cd" stroke="#9a32cd" points="274.24,-256.71 265.74,-263.04 276.33,-263.39 274.24,-256.71"/>
<text text-anchor="middle" x="381.5" y="-292.59" font-family="Helvetica,sans-Serif" font-size="10.00"> emoji_policy</text>
<text text-anchor="middle" x="381.5" y="-281.59" font-family="Helvetica,sans-Serif" font-size="10.00">role_policy</text>
<text text-anchor="middle" x="381.5" y="-270.59" font-family="Helvetica,sans-Serif" font-size="10.00">user_policy</text>
</g>
<!-- Node26 -->
<g id="node26" class="node">
<title>Node26</title>
<g id="a_node26"><a xlink:title=" ">
<polygon fill="none" stroke="#bfbfbf" points="460,-289.09 460,-308.09 582,-308.09 582,-289.09 460,-289.09"/>
<text text-anchor="middle" x="521" y="-296.09" font-family="Helvetica,sans-Serif" font-size="10.00">websocket_protocol_t</text>
</a>
</g>
</g>
<!-- Node26&#45;&gt;Node5 -->
<g id="edge41" class="edge">
<title>Node26&#45;&gt;Node5</title>
<path fill="none" stroke="#9a32cd" stroke-dasharray="5,2" d="M592.31,-298.47C703.86,-298.26 918.97,-297.87 1018.75,-297.69"/>
<polygon fill="#9a32cd" stroke="#9a32cd" points="592.16,-294.97 582.17,-298.49 592.18,-301.97 592.16,-294.97"/>
<text text-anchor="middle" x="783.5" y="-301.59" font-family="Helvetica,sans-Serif" font-size="10.00"> protocol</text>
</g>
<!-- Node26&#45;&gt;Node14 -->
<g id="edge32" class="edge">
<title>Node26&#45;&gt;Node14</title>
<path fill="none" stroke="#9a32cd" stroke-dasharray="5,2" d="M592.25,-308.68C638.86,-315.77 693.21,-324.96 703,-330.59 739.32,-351.48 766.62,-395.49 777.43,-414.97"/>
<polygon fill="#9a32cd" stroke="#9a32cd" points="592.55,-305.18 582.14,-307.15 591.51,-312.11 592.55,-305.18"/>
<text text-anchor="middle" x="651.5" y="-333.59" font-family="Helvetica,sans-Serif" font-size="10.00"> ws_mode</text>
</g>
<!-- Node27 -->
<g id="node27" class="node">
<title>Node27</title>
<g id="a_node27"><a xlink:title=" ">
<polygon fill="none" stroke="#bfbfbf" points="727,-127.09 727,-146.09 840,-146.09 840,-127.09 727,-127.09"/>
<text text-anchor="middle" x="783.5" y="-134.09" font-family="Helvetica,sans-Serif" font-size="10.00">native_handle_type</text>
</a>
</g>
</g>
<!-- Node27&#45;&gt;Node5 -->
<g id="edge35" class="edge">
<title>Node27&#45;&gt;Node5</title>
<path fill="none" stroke="#9a32cd" stroke-dasharray="5,2" d="M847.1,-125.99C893.49,-121.58 956.17,-123.22 1001,-153.59 1049,-186.12 1065.87,-260.85 1070.51,-287.74"/>
<polygon fill="#9a32cd" stroke="#9a32cd" points="846.44,-122.54 836.87,-127.08 847.19,-129.5 846.44,-122.54"/>
<text text-anchor="middle" x="932.5" y="-156.59" font-family="Helvetica,sans-Serif" font-size="10.00"> thread_id</text>
</g>
<!-- Node28 -->
<g id="node28" class="node">
<title>Node28</title>
<g id="a_node28"><a xlink:title=" ">
<polygon fill="none" stroke="#bfbfbf" points="749,-89.09 749,-108.09 818,-108.09 818,-89.09 749,-89.09"/>
<text text-anchor="middle" x="783.5" y="-96.09" font-family="Helvetica,sans-Serif" font-size="10.00">std::mutex</text>
</a>
</g>
</g>
<!-- Node28&#45;&gt;Node5 -->
<g id="edge38" class="edge">
<title>Node28&#45;&gt;Node5</title>
<path fill="none" stroke="#9a32cd" stroke-dasharray="5,2" d="M828.19,-87.89C875.49,-79 950.86,-73.02 1001,-109.59 1061.6,-153.8 1070.49,-256.36 1071.78,-288.07"/>
<polygon fill="#9a32cd" stroke="#9a32cd" points="827.37,-84.48 818.25,-89.88 828.74,-91.35 827.37,-84.48"/>
<text text-anchor="middle" x="932.5" y="-112.59" font-family="Helvetica,sans-Serif" font-size="10.00"> voice_mutex</text>
</g>
<!-- Node29 -->
<g id="node29" class="node">
<title>Node29</title>
<g id="a_node29"><a xlink:title=" ">
<polygon fill="none" stroke="#bfbfbf" points="733,-51.09 733,-70.09 834,-70.09 834,-51.09 733,-51.09"/>
<text text-anchor="middle" x="783.5" y="-58.09" font-family="Helvetica,sans-Serif" font-size="10.00">unordered_map&lt;</text>
</a>
</g>
</g>
<!-- Node29&#45;&gt;Node5 -->
<g id="edge42" class="edge">
<title>Node29&#45;&gt;Node5</title>
<path fill="none" stroke="#9a32cd" stroke-dasharray="5,2" d="M826.09,-48.62C873.47,-37.69 950.81,-28.43 1001,-66.59 1074.14,-122.21 1074.1,-251.72 1072.56,-288"/>
<polygon fill="#9a32cd" stroke="#9a32cd" points="825.06,-45.27 816.17,-51.04 826.71,-52.07 825.06,-45.27"/>
<text text-anchor="middle" x="932.5" y="-69.59" font-family="Helvetica,sans-Serif" font-size="10.00"> connecting_voice_channels</text>
</g>
<!-- Node30&#45;&gt;Node1 -->
<g id="edge43" class="edge">
<title>Node30&#45;&gt;Node1</title>
<path fill="none" stroke="#9a32cd" stroke-dasharray="5,2" d="M1130.15,-968.87C1190.33,-964.88 1285.96,-958.55 1351,-954.23"/>
<polygon fill="#9a32cd" stroke="#9a32cd" points="1129.83,-965.39 1120.08,-969.54 1130.29,-972.37 1129.83,-965.39"/>
<text text-anchor="middle" x="1252" y="-968.59" font-family="Helvetica,sans-Serif" font-size="10.00"> updated_integration</text>
</g>
<!-- Node31 -->
<g id="node31" class="node">
<title>Node31</title>
<g id="a_node31"><a xlink:title=" ">
<polygon fill="none" stroke="#bfbfbf" points="735,-944.09 735,-963.09 832,-963.09 832,-944.09 735,-944.09"/>
<text text-anchor="middle" x="783.5" y="-951.09" font-family="Helvetica,sans-Serif" font-size="10.00">integration_type</text>
</a>
</g>
</g>
<!-- Node31&#45;&gt;Node30 -->
<g id="edge46" class="edge">
<title>Node31&#45;&gt;Node30</title>
<path fill="none" stroke="#9a32cd" stroke-dasharray="5,2" d="M842.39,-956.69C886.01,-959.11 947.28,-962.71 1001,-966.59 1009.02,-967.17 1017.54,-967.85 1025.8,-968.53"/>
<polygon fill="#9a32cd" stroke="#9a32cd" points="842.43,-953.18 832.25,-956.13 842.04,-960.17 842.43,-953.18"/>
<text text-anchor="middle" x="932.5" y="-969.59" font-family="Helvetica,sans-Serif" font-size="10.00"> type</text>
</g>
<!-- Node32&#45;&gt;Node30 -->
<g id="edge51" class="edge">
<title>Node32&#45;&gt;Node30</title>
<path fill="none" stroke="#9a32cd" stroke-dasharray="5,2" d="M852.56,-1027.7C895.75,-1025.12 952.45,-1019.18 1001,-1005.59 1020.5,-1000.14 1041.36,-989.86 1055.38,-982.21"/>
<polygon fill="#9a32cd" stroke="#9a32cd" points="852.24,-1024.21 842.44,-1028.26 852.62,-1031.2 852.24,-1024.21"/>
<text text-anchor="middle" x="932.5" y="-1030.59" font-family="Helvetica,sans-Serif" font-size="10.00"> app</text>
</g>
</g>
</svg>
