<?xml version="1.0" encoding="UTF-8" standalone="no"?>
<!DOCTYPE svg PUBLIC "-//W3C//DTD SVG 1.1//EN"
 "http://www.w3.org/Graphics/SVG/1.1/DTD/svg11.dtd">
<!-- Generated by graphviz version 2.43.0 (0)
 -->
<!-- Title: httplib::Stream Pages: 1 -->
<svg width="288pt" height="116pt"
 viewBox="0.00 0.00 288.00 116.00" xmlns="http://www.w3.org/2000/svg" xmlns:xlink="http://www.w3.org/1999/xlink">
<g id="graph0" class="graph" transform="scale(1 1) rotate(0) translate(4 112)">
<title>httplib::Stream</title>
<polygon fill="white" stroke="transparent" points="-4,4 -4,-112 284,-112 284,4 -4,4"/>
<!-- Node1 -->
<g id="node1" class="node">
<title>Node1</title>
<g id="a_node1"><a xlink:title=" ">
<polygon fill="#bfbfbf" stroke="black" points="0,-44.5 0,-63.5 89,-63.5 89,-44.5 0,-44.5"/>
<text text-anchor="middle" x="44.5" y="-51.5" font-family="Helvetica,sans-Serif" font-size="10.00">httplib::Stream</text>
</a>
</g>
</g>
<!-- Node2 -->
<g id="node2" class="node">
<title>Node2</title>
<g id="a_node2"><a xlink:href="classhttplib_1_1detail_1_1_buffer_stream.html" target="_top" xlink:title=" ">
<polygon fill="white" stroke="black" points="126.5,-88.5 126.5,-107.5 278.5,-107.5 278.5,-88.5 126.5,-88.5"/>
<text text-anchor="middle" x="202.5" y="-95.5" font-family="Helvetica,sans-Serif" font-size="10.00">httplib::detail::BufferStream</text>
</a>
</g>
</g>
<!-- Node1&#45;&gt;Node2 -->
<g id="edge1" class="edge">
<title>Node1&#45;&gt;Node2</title>
<path fill="none" stroke="midnightblue" d="M84.01,-66.63C96.98,-70.75 111.57,-75.22 125,-79 136.59,-82.26 149.26,-85.52 160.88,-88.4"/>
<polygon fill="midnightblue" stroke="midnightblue" points="85.04,-63.29 74.45,-63.57 82.9,-69.95 85.04,-63.29"/>
</g>
<!-- Node3 -->
<g id="node3" class="node">
<title>Node3</title>
<g id="a_node3"><a xlink:href="classhttplib_1_1detail_1_1_s_s_l_socket_stream.html" target="_top" xlink:title=" ">
<polygon fill="white" stroke="black" points="134,-39 134,-69 271,-69 271,-39 134,-39"/>
<text text-anchor="start" x="142" y="-57" font-family="Helvetica,sans-Serif" font-size="10.00">httplib::detail::SSLSocket</text>
<text text-anchor="middle" x="202.5" y="-46" font-family="Helvetica,sans-Serif" font-size="10.00">Stream</text>
</a>
</g>
</g>
<!-- Node1&#45;&gt;Node3 -->
<g id="edge2" class="edge">
<title>Node1&#45;&gt;Node3</title>
<path fill="none" stroke="midnightblue" d="M99.67,-54C110.66,-54 122.36,-54 133.76,-54"/>
<polygon fill="midnightblue" stroke="midnightblue" points="99.37,-50.5 89.37,-54 99.37,-57.5 99.37,-50.5"/>
</g>
<!-- Node4 -->
<g id="node4" class="node">
<title>Node4</title>
<g id="a_node4"><a xlink:href="classhttplib_1_1detail_1_1_socket_stream.html" target="_top" xlink:title=" ">
<polygon fill="white" stroke="black" points="125,-0.5 125,-19.5 280,-19.5 280,-0.5 125,-0.5"/>
<text text-anchor="middle" x="202.5" y="-7.5" font-family="Helvetica,sans-Serif" font-size="10.00">httplib::detail::SocketStream</text>
</a>
</g>
</g>
<!-- Node1&#45;&gt;Node4 -->
<g id="edge3" class="edge">
<title>Node1&#45;&gt;Node4</title>
<path fill="none" stroke="midnightblue" d="M86.05,-41.44C98.52,-37.66 112.3,-33.58 125,-30 137.55,-26.47 151.32,-22.8 163.68,-19.59"/>
<polygon fill="midnightblue" stroke="midnightblue" points="84.93,-38.12 76.38,-44.38 86.97,-44.82 84.93,-38.12"/>
</g>
</g>
</svg>
