<?xml version="1.0" encoding="UTF-8" standalone="no"?>
<!DOCTYPE svg PUBLIC "-//W3C//DTD SVG 1.1//EN"
 "http://www.w3.org/Graphics/SVG/1.1/DTD/svg11.dtd">
<!-- Generated by graphviz version 2.38.0 (20140413.2041)
 -->
<!-- Title: dpp::interaction_response Pages: 1 -->
<!--zoomable 1256 -->
<svg id="main" version="1.1" xmlns="http://www.w3.org/2000/svg" xmlns:xlink="http://www.w3.org/1999/xlink" xml:space="preserve" onload="init(evt)">
<style type="text/css"><![CDATA[
.edge:hover path { stroke: red; }
.edge:hover polygon { stroke: red; fill: red; }
]]></style>
<script type="text/javascript"><![CDATA[
var edges = document.getElementsByTagName('g');
if (edges && edges.length) {
  for (var i=0;i<edges.length;i++) {
    if (edges[i].id.substr(0,4)=='edge') {
      edges[i].setAttribute('class','edge');
    }
  }
}
]]></script>
        <defs>
                <circle id="rim" cx="0" cy="0" r="7"/>
                <circle id="rim2" cx="0" cy="0" r="3.5"/>
                <g id="zoomPlus">
                        <use xlink:href="#rim" fill="#404040">
                                <set attributeName="fill" to="#808080" begin="zoomplus.mouseover" end="zoomplus.mouseout"/>
                        </use>
                        <path d="M-4,0h8M0,-4v8" fill="none" stroke="white" stroke-width="1.5" pointer-events="none"/>
                </g>
                <g id="zoomMin">
                        <use xlink:href="#rim" fill="#404040">
                                <set attributeName="fill" to="#808080" begin="zoomminus.mouseover" end="zoomminus.mouseout"/>
                        </use>
                        <path d="M-4,0h8" fill="none" stroke="white" stroke-width="1.5" pointer-events="none"/>
                </g>
                <g id="dirArrow">
                        <path fill="none" stroke="white" stroke-width="1.5" d="M0,-3.0v7 M-2.5,-0.5L0,-3.0L2.5,-0.5"/>
                </g>
               <g id="resetDef">
                       <use xlink:href="#rim2" fill="#404040">
                               <set attributeName="fill" to="#808080" begin="reset.mouseover" end="reset.mouseout"/>
                       </use>
               </g>
        </defs>

<script type="text/javascript">
var viewWidth = 1240;
var viewHeight = 1256;
var sectionId = 'dynsection-0';
</script>
<script xlink:href="svgpan.js"/>
<svg id="graph" class="graph">
<g id="viewport">
<title>dpp::interaction_response</title>
<polygon fill="white" stroke="none" points="-4,4 -4,-1252.49 1236,-1252.49 1236,4 -4,4"/>
<!-- Node1 -->
<g id="node1" class="node"><title>Node1</title>
<g id="a_node1"><a xlink:title="A response to an interaction, used to reply to a command and initiate a message, which can be hidden ...">
<polygon fill="#bfbfbf" stroke="black" points="1104,-357.986 1104,-376.986 1232,-376.986 1232,-357.986 1104,-357.986"/>
<text text-anchor="middle" x="1168" y="-364.986" font-family="Helvetica,sans-Serif" font-size="10.00">dpp::interaction_response</text>
</a>
</g>
</g>
<!-- Node2 -->
<g id="node2" class="node"><title>Node2</title>
<g id="a_node2"><a xlink:title=" ">
<polygon fill="white" stroke="#bfbfbf" points="915,-395.986 915,-414.986 1046,-414.986 1046,-395.986 915,-395.986"/>
<text text-anchor="middle" x="980.5" y="-402.986" font-family="Helvetica,sans-Serif" font-size="10.00">interaction_response_type</text>
</a>
</g>
</g>
<!-- Node2&#45;&gt;Node1 -->
<g id="edge1" class="edge"><title>Node2&#45;&gt;Node1</title>
<path fill="none" stroke="#9a32cd" stroke-dasharray="5,2" d="M1038.17,-393.877C1064.56,-388.472 1095.55,-382.123 1120.53,-377.006"/>
<polygon fill="#9a32cd" stroke="#9a32cd" points="1037.4,-390.462 1028.31,-395.897 1038.81,-397.319 1037.4,-390.462"/>
<text text-anchor="middle" x="1075" y="-391.486" font-family="Helvetica,sans-Serif" font-size="10.00"> type</text>
</g>
<!-- Node3 -->
<g id="node3" class="node"><title>Node3</title>
<g id="a_node3"><a xlink:href="structdpp_1_1message.html" target="_top" xlink:title="Represents messages sent and received on Discord.">
<polygon fill="white" stroke="black" points="941.5,-357.986 941.5,-376.986 1019.5,-376.986 1019.5,-357.986 941.5,-357.986"/>
<text text-anchor="middle" x="980.5" y="-364.986" font-family="Helvetica,sans-Serif" font-size="10.00">dpp::message</text>
</a>
</g>
</g>
<!-- Node3&#45;&gt;Node1 -->
<g id="edge2" class="edge"><title>Node3&#45;&gt;Node1</title>
<path fill="none" stroke="#9a32cd" stroke-dasharray="5,2" d="M1029.95,-367.486C1052.51,-367.486 1079.64,-367.486 1103.79,-367.486"/>
<polygon fill="#9a32cd" stroke="#9a32cd" points="1029.94,-363.986 1019.94,-367.486 1029.94,-370.986 1029.94,-363.986"/>
<text text-anchor="middle" x="1075" y="-370.486" font-family="Helvetica,sans-Serif" font-size="10.00"> msg</text>
</g>
<!-- Node4 -->
<g id="node4" class="node"><title>Node4</title>
<g id="a_node4"><a xlink:title=" ">
<polygon fill="white" stroke="#bfbfbf" points="22,-363.986 22,-382.986 73,-382.986 73,-363.986 22,-363.986"/>
<text text-anchor="middle" x="47.5" y="-370.986" font-family="Helvetica,sans-Serif" font-size="10.00">uint64_t</text>
</a>
</g>
</g>
<!-- Node4&#45;&gt;Node3 -->
<g id="edge3" class="edge"><title>Node4&#45;&gt;Node3</title>
<path fill="none" stroke="#9a32cd" stroke-dasharray="5,2" d="M83.5552,-368.864C146.834,-359.959 283.891,-338.098 395,-302.486 403.337,-299.814 404.436,-296.304 413,-294.486 461.693,-284.153 475.432,-289.92 525,-294.486 575.867,-299.173 587.632,-306.974 638,-315.486 747.84,-334.05 878.074,-353.051 941.279,-362.082"/>
<polygon fill="#9a32cd" stroke="#9a32cd" points="82.7584,-365.441 73.3331,-370.279 83.7186,-372.375 82.7584,-365.441"/>
<text text-anchor="middle" x="469" y="-330.486" font-family="Helvetica,sans-Serif" font-size="10.00"> channel_id</text>
<text text-anchor="middle" x="469" y="-319.486" font-family="Helvetica,sans-Serif" font-size="10.00">guild_id</text>
<text text-anchor="middle" x="469" y="-308.486" font-family="Helvetica,sans-Serif" font-size="10.00">id</text>
<text text-anchor="middle" x="469" y="-297.486" font-family="Helvetica,sans-Serif" font-size="10.00">webhook_id</text>
</g>
<!-- Node6 -->
<g id="node6" class="node"><title>Node6</title>
<g id="a_node6"><a xlink:href="classdpp_1_1managed.html" target="_top" xlink:title="The managed class is the base class for various types that can be stored in a cache that are identifi...">
<polygon fill="white" stroke="black" points="182,-477.986 182,-496.986 260,-496.986 260,-477.986 182,-477.986"/>
<text text-anchor="middle" x="221" y="-484.986" font-family="Helvetica,sans-Serif" font-size="10.00">dpp::managed</text>
</a>
</g>
</g>
<!-- Node4&#45;&gt;Node6 -->
<g id="edge6" class="edge"><title>Node4&#45;&gt;Node6</title>
<path fill="none" stroke="#9a32cd" stroke-dasharray="5,2" d="M71.1662,-388.553C106.911,-412.314 175.385,-457.83 205.35,-477.748"/>
<polygon fill="#9a32cd" stroke="#9a32cd" points="73.0925,-385.631 62.827,-383.01 69.2175,-391.46 73.0925,-385.631"/>
<text text-anchor="middle" x="129" y="-440.486" font-family="Helvetica,sans-Serif" font-size="10.00"> id</text>
</g>
<!-- Node10 -->
<g id="node10" class="node"><title>Node10</title>
<g id="a_node10"><a xlink:href="structdpp_1_1utility_1_1iconhash.html" target="_top" xlink:title="Store a 128 bit icon hash (profile picture, server icon etc) as a 128 bit binary value made of two ui...">
<polygon fill="white" stroke="black" points="167.5,-564.986 167.5,-583.986 274.5,-583.986 274.5,-564.986 167.5,-564.986"/>
<text text-anchor="middle" x="221" y="-571.986" font-family="Helvetica,sans-Serif" font-size="10.00">dpp::utility::iconhash</text>
</a>
</g>
</g>
<!-- Node4&#45;&gt;Node10 -->
<g id="edge11" class="edge"><title>Node4&#45;&gt;Node10</title>
<path fill="none" stroke="#9a32cd" stroke-dasharray="5,2" d="M55.401,-392.551C69.703,-429.423 106.073,-510.802 163,-555.486 167.923,-559.351 173.67,-562.447 179.583,-564.924"/>
<polygon fill="#9a32cd" stroke="#9a32cd" points="58.609,-391.138 51.8122,-383.01 52.0573,-393.603 58.609,-391.138"/>
<text text-anchor="middle" x="129" y="-550.486" font-family="Helvetica,sans-Serif" font-size="10.00"> first</text>
<text text-anchor="middle" x="129" y="-539.486" font-family="Helvetica,sans-Serif" font-size="10.00">second</text>
</g>
<!-- Node13 -->
<g id="node13" class="node"><title>Node13</title>
<g id="a_node13"><a xlink:href="classdpp_1_1guild__member.html" target="_top" xlink:title="Represents dpp::user membership upon a dpp::guild. This contains the user&#39;s nickname,...">
<polygon fill="white" stroke="black" points="658.5,-600.986 658.5,-619.986 757.5,-619.986 757.5,-600.986 658.5,-600.986"/>
<text text-anchor="middle" x="708" y="-607.986" font-family="Helvetica,sans-Serif" font-size="10.00">dpp::guild_member</text>
</a>
</g>
</g>
<!-- Node4&#45;&gt;Node13 -->
<g id="edge16" class="edge"><title>Node4&#45;&gt;Node13</title>
<path fill="none" stroke="#9a32cd" stroke-dasharray="5,2" d="M49.3852,-393.203C52.9965,-448.006 71.2445,-602.893 163,-675.486 210.512,-713.076 236.674,-694.907 297,-700.486 340.37,-704.498 359.444,-725.643 395,-700.486 414.622,-686.603 394.335,-664.632 413,-649.486 431.666,-634.339 579.553,-620.537 658.197,-614.179"/>
<polygon fill="#9a32cd" stroke="#9a32cd" points="52.8727,-392.88 48.8156,-383.093 45.8838,-393.274 52.8727,-392.88"/>
<text text-anchor="middle" x="346" y="-727.486" font-family="Helvetica,sans-Serif" font-size="10.00"> guild_id</text>
<text text-anchor="middle" x="346" y="-716.486" font-family="Helvetica,sans-Serif" font-size="10.00">user_id</text>
</g>
<!-- Node17 -->
<g id="node17" class="node"><title>Node17</title>
<g id="a_node17"><a xlink:href="structdpp_1_1message_1_1message__ref.html" target="_top" xlink:title="Reference to another message, e.g. a reply.">
<polygon fill="white" stroke="black" points="638,-3.98637 638,-22.9864 778,-22.9864 778,-3.98637 638,-3.98637"/>
<text text-anchor="middle" x="708" y="-10.9864" font-family="Helvetica,sans-Serif" font-size="10.00">dpp::message::message_ref</text>
</a>
</g>
</g>
<!-- Node4&#45;&gt;Node17 -->
<g id="edge27" class="edge"><title>Node4&#45;&gt;Node17</title>
<path fill="none" stroke="#9a32cd" stroke-dasharray="5,2" d="M60.6494,-355.223C101.681,-295.319 242.149,-104.307 413,-28.4864 486.692,4.217 581.201,2.31176 642.89,-3.96767"/>
<polygon fill="#9a32cd" stroke="#9a32cd" points="57.636,-353.431 54.9283,-363.674 63.4327,-357.355 57.636,-353.431"/>
<text text-anchor="middle" x="346" y="-121.486" font-family="Helvetica,sans-Serif" font-size="10.00"> channel_id</text>
<text text-anchor="middle" x="346" y="-110.486" font-family="Helvetica,sans-Serif" font-size="10.00">guild_id</text>
<text text-anchor="middle" x="346" y="-99.4864" font-family="Helvetica,sans-Serif" font-size="10.00">message_id</text>
</g>
<!-- Node18 -->
<g id="node18" class="node"><title>Node18</title>
<g id="a_node18"><a xlink:href="structdpp_1_1message_1_1message__interaction__struct.html" target="_top" xlink:title="Reference to an interaction.">
<polygon fill="white" stroke="black" points="646,-422.486 646,-452.486 770,-452.486 770,-422.486 646,-422.486"/>
<text text-anchor="start" x="654" y="-440.486" font-family="Helvetica,sans-Serif" font-size="10.00">dpp::message::message</text>
<text text-anchor="middle" x="708" y="-429.486" font-family="Helvetica,sans-Serif" font-size="10.00">_interaction_struct</text>
</a>
</g>
</g>
<!-- Node4&#45;&gt;Node18 -->
<g id="edge30" class="edge"><title>Node4&#45;&gt;Node18</title>
<path fill="none" stroke="#9a32cd" stroke-dasharray="5,2" d="M61.8229,-355.489C73.5142,-341.332 91.9127,-322.676 113,-314.486 126.257,-309.337 130.86,-312.957 145,-314.486 194.743,-319.866 510.922,-392.179 645.975,-423.35"/>
<polygon fill="#9a32cd" stroke="#9a32cd" points="58.882,-353.567 55.446,-363.589 64.382,-357.897 58.882,-353.567"/>
<text text-anchor="middle" x="346" y="-369.486" font-family="Helvetica,sans-Serif" font-size="10.00"> id</text>
</g>
<!-- Node5 -->
<g id="node5" class="node"><title>Node5</title>
<g id="a_node5"><a xlink:href="classdpp_1_1user.html" target="_top" xlink:title="Represents a user on discord. May or may not be a member of a dpp::guild.">
<polygon fill="white" stroke="black" points="440.5,-526.986 440.5,-545.986 497.5,-545.986 497.5,-526.986 440.5,-526.986"/>
<text text-anchor="middle" x="469" y="-533.986" font-family="Helvetica,sans-Serif" font-size="10.00">dpp::user</text>
</a>
</g>
</g>
<!-- Node5&#45;&gt;Node3 -->
<g id="edge4" class="edge"><title>Node5&#45;&gt;Node3</title>
<path fill="none" stroke="#9a32cd" stroke-dasharray="5,2" d="M507.768,-531.819C538.257,-527.722 582.155,-521.078 620,-512.486 745.206,-484.063 801.767,-516.598 897,-430.486 912.672,-416.316 899.319,-400.647 915,-386.486 922.364,-379.836 931.949,-375.508 941.468,-372.692"/>
<polygon fill="#9a32cd" stroke="#9a32cd" points="507.033,-528.386 497.575,-533.161 507.947,-535.326 507.033,-528.386"/>
<text text-anchor="middle" x="708" y="-522.486" font-family="Helvetica,sans-Serif" font-size="10.00"> author</text>
<text text-anchor="middle" x="708" y="-511.486" font-family="Helvetica,sans-Serif" font-size="10.00">self_author</text>
</g>
<!-- Node5&#45;&gt;Node18 -->
<g id="edge33" class="edge"><title>Node5&#45;&gt;Node18</title>
<path fill="none" stroke="#9a32cd" stroke-dasharray="5,2" d="M498.243,-522.336C511.689,-515.757 528.061,-507.972 543,-501.486 584.353,-483.534 632.496,-465.023 665.878,-452.556"/>
<polygon fill="#9a32cd" stroke="#9a32cd" points="496.453,-519.317 489.031,-526.878 499.548,-525.595 496.453,-519.317"/>
<text text-anchor="middle" x="581.5" y="-504.486" font-family="Helvetica,sans-Serif" font-size="10.00"> usr</text>
</g>
<!-- Node20 -->
<g id="node20" class="node"><title>Node20</title>
<g id="a_node20"><a xlink:href="classdpp_1_1cluster.html" target="_top" xlink:title="The cluster class represents a group of shards and a command queue for sending and receiving commands...">
<polygon fill="white" stroke="black" points="674,-968.986 674,-987.986 742,-987.986 742,-968.986 674,-968.986"/>
<text text-anchor="middle" x="708" y="-975.986" font-family="Helvetica,sans-Serif" font-size="10.00">dpp::cluster</text>
</a>
</g>
</g>
<!-- Node5&#45;&gt;Node20 -->
<g id="edge44" class="edge"><title>Node5&#45;&gt;Node20</title>
<path fill="none" stroke="#9a32cd" stroke-dasharray="5,2" d="M496.805,-551.376C506.489,-557.638 516.995,-565.552 525,-574.486 584.316,-640.691 591.376,-666.331 620,-750.486 636.094,-797.802 621.013,-814.484 638,-861.486 653.55,-904.511 685.157,-949.517 699.555,-968.793"/>
<polygon fill="#9a32cd" stroke="#9a32cd" points="498.591,-548.365 488.239,-546.108 494.924,-554.328 498.591,-548.365"/>
<text text-anchor="middle" x="581.5" y="-753.486" font-family="Helvetica,sans-Serif" font-size="10.00"> me</text>
</g>
<!-- Node6&#45;&gt;Node5 -->
<g id="edge5" class="edge"><title>Node6&#45;&gt;Node5</title>
<path fill="none" stroke="midnightblue" d="M270.255,-497.098C321.05,-507.216 399.24,-522.79 440.431,-530.995"/>
<polygon fill="midnightblue" stroke="midnightblue" points="270.659,-493.61 260.168,-495.089 269.291,-500.475 270.659,-493.61"/>
</g>
<!-- Node7 -->
<g id="node7" class="node"><title>Node7</title>
<g id="a_node7"><a xlink:title=" ">
<polygon fill="white" stroke="#bfbfbf" points="191,-774.986 191,-793.986 251,-793.986 251,-774.986 191,-774.986"/>
<text text-anchor="middle" x="221" y="-781.986" font-family="Helvetica,sans-Serif" font-size="10.00">std::string</text>
</a>
</g>
</g>
<!-- Node7&#45;&gt;Node3 -->
<g id="edge21" class="edge"><title>Node7&#45;&gt;Node3</title>
<path fill="none" stroke="#9a32cd" stroke-dasharray="5,2" d="M246.815,-799.054C282.253,-818.927 350.052,-853.545 413,-866.486 493.379,-883.011 753.918,-863.414 778,-850.486 855.143,-809.072 866.683,-775.627 897,-693.486 908.831,-661.43 893.742,-413.239 915,-386.486 921.464,-378.352 931.229,-373.577 941.219,-370.809"/>
<polygon fill="#9a32cd" stroke="#9a32cd" points="248.539,-796.008 238.116,-794.105 245.077,-802.092 248.539,-796.008"/>
<text text-anchor="middle" x="581.5" y="-908.486" font-family="Helvetica,sans-Serif" font-size="10.00"> content</text>
<text text-anchor="middle" x="581.5" y="-897.486" font-family="Helvetica,sans-Serif" font-size="10.00">filecontent</text>
<text text-anchor="middle" x="581.5" y="-886.486" font-family="Helvetica,sans-Serif" font-size="10.00">filename</text>
<text text-anchor="middle" x="581.5" y="-875.486" font-family="Helvetica,sans-Serif" font-size="10.00">nonce</text>
</g>
<!-- Node7&#45;&gt;Node5 -->
<g id="edge7" class="edge"><title>Node7&#45;&gt;Node5</title>
<path fill="none" stroke="#9a32cd" stroke-dasharray="5,2" d="M232.936,-766.192C246.054,-745.463 269.721,-711.685 297,-689.486 334.771,-658.75 364.127,-678.145 395,-640.486 414.276,-616.973 395.427,-599.299 413,-574.486 421.72,-562.174 435.767,-552.567 447.482,-546.093"/>
<polygon fill="#9a32cd" stroke="#9a32cd" points="229.952,-764.361 227.676,-774.709 235.908,-768.04 229.952,-764.361"/>
<text text-anchor="middle" x="346" y="-692.486" font-family="Helvetica,sans-Serif" font-size="10.00"> username</text>
</g>
<!-- Node7&#45;&gt;Node13 -->
<g id="edge15" class="edge"><title>Node7&#45;&gt;Node13</title>
<path fill="none" stroke="#9a32cd" stroke-dasharray="5,2" d="M261.247,-790.723C298.395,-794.567 354.369,-794.848 395,-770.486 407.688,-762.879 401.633,-751.956 413,-742.486 454.345,-708.043 475.768,-718.211 525,-696.486 584.789,-670.103 654.342,-636.376 687.493,-620.112"/>
<polygon fill="#9a32cd" stroke="#9a32cd" points="261.636,-787.245 251.298,-789.562 260.824,-794.198 261.636,-787.245"/>
<text text-anchor="middle" x="469" y="-745.486" font-family="Helvetica,sans-Serif" font-size="10.00"> nickname</text>
</g>
<!-- Node7&#45;&gt;Node18 -->
<g id="edge32" class="edge"><title>Node7&#45;&gt;Node18</title>
<path fill="none" stroke="#9a32cd" stroke-dasharray="5,2" d="M261.094,-777.847C309.073,-769.367 385.299,-754.692 395,-745.486 416.434,-725.148 394.46,-704.494 413,-681.486 478.368,-600.362 557.12,-654.554 620,-571.486 642.782,-541.39 617.506,-520.185 638,-488.486 647.705,-473.475 663.473,-461.331 677.487,-452.664"/>
<polygon fill="#9a32cd" stroke="#9a32cd" points="260.273,-774.437 251.027,-779.609 261.48,-781.332 260.273,-774.437"/>
<text text-anchor="middle" x="469" y="-684.486" font-family="Helvetica,sans-Serif" font-size="10.00"> name</text>
</g>
<!-- Node7&#45;&gt;Node20 -->
<g id="edge38" class="edge"><title>Node7&#45;&gt;Node20</title>
<path fill="none" stroke="#9a32cd" stroke-dasharray="5,2" d="M229.311,-803.672C240.127,-829.438 262.866,-874.828 297,-899.486 414.668,-984.491 599.12,-984.848 673.877,-980.973"/>
<polygon fill="#9a32cd" stroke="#9a32cd" points="232.498,-802.217 225.52,-794.245 226.003,-804.829 232.498,-802.217"/>
<text text-anchor="middle" x="469" y="-980.486" font-family="Helvetica,sans-Serif" font-size="10.00"> token</text>
</g>
<!-- Node8 -->
<g id="node8" class="node"><title>Node8</title>
<g id="a_node8"><a xlink:title=" ">
<polygon fill="white" stroke="#bfbfbf" points="0,-769.486 0,-799.486 95,-799.486 95,-769.486 0,-769.486"/>
<text text-anchor="start" x="8" y="-787.486" font-family="Helvetica,sans-Serif" font-size="10.00">std::basic_string&lt;</text>
<text text-anchor="middle" x="47.5" y="-776.486" font-family="Helvetica,sans-Serif" font-size="10.00"> Char &gt;</text>
</a>
</g>
</g>
<!-- Node8&#45;&gt;Node7 -->
<g id="edge8" class="edge"><title>Node8&#45;&gt;Node7</title>
<path fill="none" stroke="midnightblue" d="M105.658,-784.486C134.266,-784.486 167.668,-784.486 190.956,-784.486"/>
<polygon fill="midnightblue" stroke="midnightblue" points="105.363,-780.986 95.3631,-784.486 105.363,-787.986 105.363,-780.986"/>
</g>
<!-- Node9 -->
<g id="node9" class="node"><title>Node9</title>
<g id="a_node9"><a xlink:title=" ">
<polygon fill="white" stroke="#bfbfbf" points="195.5,-526.986 195.5,-545.986 246.5,-545.986 246.5,-526.986 195.5,-526.986"/>
<text text-anchor="middle" x="221" y="-533.986" font-family="Helvetica,sans-Serif" font-size="10.00">uint16_t</text>
</a>
</g>
</g>
<!-- Node9&#45;&gt;Node5 -->
<g id="edge9" class="edge"><title>Node9&#45;&gt;Node5</title>
<path fill="none" stroke="#9a32cd" stroke-dasharray="5,2" d="M257.14,-536.486C306.519,-536.486 395.42,-536.486 440.371,-536.486"/>
<polygon fill="#9a32cd" stroke="#9a32cd" points="256.942,-532.986 246.942,-536.486 256.942,-539.986 256.942,-532.986"/>
<text text-anchor="middle" x="346" y="-539.486" font-family="Helvetica,sans-Serif" font-size="10.00"> discriminator</text>
</g>
<!-- Node10&#45;&gt;Node5 -->
<g id="edge10" class="edge"><title>Node10&#45;&gt;Node5</title>
<path fill="none" stroke="#9a32cd" stroke-dasharray="5,2" d="M284.579,-565.293C317.464,-560.409 358.429,-554.24 395,-548.486 409.971,-546.131 426.651,-543.397 440.283,-541.135"/>
<polygon fill="#9a32cd" stroke="#9a32cd" points="284.026,-561.837 274.647,-566.766 285.052,-568.761 284.026,-561.837"/>
<text text-anchor="middle" x="346" y="-566.486" font-family="Helvetica,sans-Serif" font-size="10.00"> avatar</text>
</g>
<!-- Node10&#45;&gt;Node13 -->
<g id="edge20" class="edge"><title>Node10&#45;&gt;Node13</title>
<path fill="none" stroke="#9a32cd" stroke-dasharray="5,2" d="M284.882,-579.154C382.823,-586.424 569.727,-600.297 658.224,-606.866"/>
<polygon fill="#9a32cd" stroke="#9a32cd" points="285.058,-575.657 274.827,-578.408 284.54,-582.638 285.058,-575.657"/>
<text text-anchor="middle" x="469" y="-600.486" font-family="Helvetica,sans-Serif" font-size="10.00"> avatar</text>
</g>
<!-- Node11 -->
<g id="node11" class="node"><title>Node11</title>
<g id="a_node11"><a xlink:title=" ">
<polygon fill="white" stroke="#bfbfbf" points="195.5,-646.986 195.5,-665.986 246.5,-665.986 246.5,-646.986 195.5,-646.986"/>
<text text-anchor="middle" x="221" y="-653.986" font-family="Helvetica,sans-Serif" font-size="10.00">uint32_t</text>
</a>
</g>
</g>
<!-- Node11&#45;&gt;Node5 -->
<g id="edge12" class="edge"><title>Node11&#45;&gt;Node5</title>
<path fill="none" stroke="#9a32cd" stroke-dasharray="5,2" d="M254.285,-643.06C289.374,-628.206 346.875,-603.104 395,-578.486 415.177,-568.165 437.682,-554.945 452.299,-546.121"/>
<polygon fill="#9a32cd" stroke="#9a32cd" points="252.864,-639.86 245.008,-646.968 255.583,-646.311 252.864,-639.86"/>
<text text-anchor="middle" x="346" y="-628.486" font-family="Helvetica,sans-Serif" font-size="10.00"> flags</text>
</g>
<!-- Node11&#45;&gt;Node20 -->
<g id="edge40" class="edge"><title>Node11&#45;&gt;Node20</title>
<path fill="none" stroke="#9a32cd" stroke-dasharray="5,2" d="M256.387,-665.403C306.09,-678.352 392.399,-701.086 395,-703.486 412.357,-719.503 394.916,-738.294 413,-753.486 484.499,-813.552 551.611,-725.902 620,-789.486 644.157,-811.946 625.493,-830.965 638,-861.486 655.436,-904.037 686.344,-949.649 700.084,-968.971"/>
<polygon fill="#9a32cd" stroke="#9a32cd" points="257.233,-662.007 246.674,-662.876 255.471,-668.782 257.233,-662.007"/>
<text text-anchor="middle" x="469" y="-812.486" font-family="Helvetica,sans-Serif" font-size="10.00"> cluster_id</text>
<text text-anchor="middle" x="469" y="-801.486" font-family="Helvetica,sans-Serif" font-size="10.00">intents</text>
<text text-anchor="middle" x="469" y="-790.486" font-family="Helvetica,sans-Serif" font-size="10.00">maxclusters</text>
<text text-anchor="middle" x="469" y="-779.486" font-family="Helvetica,sans-Serif" font-size="10.00">numshards</text>
</g>
<!-- Node12 -->
<g id="node12" class="node"><title>Node12</title>
<g id="a_node12"><a xlink:title=" ">
<polygon fill="white" stroke="#bfbfbf" points="198,-419.986 198,-438.986 244,-438.986 244,-419.986 198,-419.986"/>
<text text-anchor="middle" x="221" y="-426.986" font-family="Helvetica,sans-Serif" font-size="10.00">uint8_t</text>
</a>
</g>
</g>
<!-- Node12&#45;&gt;Node3 -->
<g id="edge25" class="edge"><title>Node12&#45;&gt;Node3</title>
<path fill="none" stroke="#9a32cd" stroke-dasharray="5,2" d="M253.615,-417.353C310.474,-396.253 434.211,-353.609 543,-338.486 576.896,-333.775 586.091,-333.864 620,-338.486 628.227,-339.608 629.818,-342.077 638,-343.486 746.944,-362.25 877.854,-366.417 941.3,-367.293"/>
<polygon fill="#9a32cd" stroke="#9a32cd" points="252.253,-414.126 244.115,-420.91 254.707,-420.681 252.253,-414.126"/>
<text text-anchor="middle" x="581.5" y="-352.486" font-family="Helvetica,sans-Serif" font-size="10.00"> flags</text>
<text text-anchor="middle" x="581.5" y="-341.486" font-family="Helvetica,sans-Serif" font-size="10.00">type</text>
</g>
<!-- Node12&#45;&gt;Node5 -->
<g id="edge13" class="edge"><title>Node12&#45;&gt;Node5</title>
<path fill="none" stroke="#9a32cd" stroke-dasharray="5,2" d="M253.958,-440.635C267.259,-445.257 282.867,-450.657 297,-455.486 340.49,-470.347 353.681,-468.362 395,-488.486 417.637,-499.511 441.611,-516.421 455.67,-526.948"/>
<polygon fill="#9a32cd" stroke="#9a32cd" points="254.893,-437.255 244.298,-437.275 252.593,-443.866 254.893,-437.255"/>
<text text-anchor="middle" x="346" y="-491.486" font-family="Helvetica,sans-Serif" font-size="10.00"> refcount</text>
</g>
<!-- Node12&#45;&gt;Node13 -->
<g id="edge19" class="edge"><title>Node12&#45;&gt;Node13</title>
<path fill="none" stroke="#9a32cd" stroke-dasharray="5,2" d="M254.328,-432.772C346.657,-442.281 605.841,-469.88 620,-481.486 639.239,-497.257 625.375,-513.051 638,-534.486 653.918,-561.512 680.562,-587.299 695.66,-600.777"/>
<polygon fill="#9a32cd" stroke="#9a32cd" points="254.476,-429.269 244.171,-431.73 253.761,-436.233 254.476,-429.269"/>
<text text-anchor="middle" x="469" y="-466.486" font-family="Helvetica,sans-Serif" font-size="10.00"> flags</text>
</g>
<!-- Node12&#45;&gt;Node18 -->
<g id="edge31" class="edge"><title>Node12&#45;&gt;Node18</title>
<path fill="none" stroke="#9a32cd" stroke-dasharray="5,2" d="M254.521,-430.023C334.544,-431.343 542.026,-434.765 645.891,-436.478"/>
<polygon fill="#9a32cd" stroke="#9a32cd" points="254.156,-426.516 244.1,-429.851 254.041,-433.515 254.156,-426.516"/>
<text text-anchor="middle" x="469" y="-437.486" font-family="Helvetica,sans-Serif" font-size="10.00"> type</text>
</g>
<!-- Node13&#45;&gt;Node3 -->
<g id="edge14" class="edge"><title>Node13&#45;&gt;Node3</title>
<path fill="none" stroke="#9a32cd" stroke-dasharray="5,2" d="M767.725,-604.664C810.456,-597.148 866.048,-579.93 897,-540.486 939.541,-486.275 870.589,-439.177 915,-386.486 921.621,-378.632 931.311,-373.932 941.179,-371.146"/>
<polygon fill="#9a32cd" stroke="#9a32cd" points="767.024,-601.232 757.715,-606.291 768.147,-608.141 767.024,-601.232"/>
<text text-anchor="middle" x="846.5" y="-601.486" font-family="Helvetica,sans-Serif" font-size="10.00"> member</text>
</g>
<!-- Node14 -->
<g id="node14" class="node"><title>Node14</title>
<g id="a_node14"><a xlink:title=" ">
<polygon fill="white" stroke="#bfbfbf" points="444,-176.986 444,-195.986 494,-195.986 494,-176.986 444,-176.986"/>
<text text-anchor="middle" x="469" y="-183.986" font-family="Helvetica,sans-Serif" font-size="10.00">vector&lt;</text>
</a>
</g>
</g>
<!-- Node14&#45;&gt;Node1 -->
<g id="edge48" class="edge"><title>Node14&#45;&gt;Node1</title>
<path fill="none" stroke="#9a32cd" stroke-dasharray="5,2" d="M504.643,-187.422C576.225,-188.632 737.172,-187.392 778,-153.486 799.418,-135.7 773.664,-110.105 796,-93.4864 832.014,-66.6908 855.592,-76.1558 897,-93.4864 1034.38,-150.984 1137.3,-316.222 1161.55,-357.867"/>
<polygon fill="#9a32cd" stroke="#9a32cd" points="504.421,-183.917 494.354,-187.22 504.283,-190.916 504.421,-183.917"/>
<text text-anchor="middle" x="846.5" y="-96.4864" font-family="Helvetica,sans-Serif" font-size="10.00"> autocomplete_choices</text>
</g>
<!-- Node14&#45;&gt;Node3 -->
<g id="edge22" class="edge"><title>Node14&#45;&gt;Node3</title>
<path fill="none" stroke="#9a32cd" stroke-dasharray="5,2" d="M504.26,-189.004C573.693,-194.438 728.603,-208.34 778,-227.486 860.614,-259.508 942.002,-331.916 969.618,-357.944"/>
<polygon fill="#9a32cd" stroke="#9a32cd" points="504.507,-185.513 494.268,-188.234 503.97,-192.492 504.507,-185.513"/>
<text text-anchor="middle" x="708" y="-307.486" font-family="Helvetica,sans-Serif" font-size="10.00"> attachments</text>
<text text-anchor="middle" x="708" y="-296.486" font-family="Helvetica,sans-Serif" font-size="10.00">components</text>
<text text-anchor="middle" x="708" y="-285.486" font-family="Helvetica,sans-Serif" font-size="10.00">embeds</text>
<text text-anchor="middle" x="708" y="-274.486" font-family="Helvetica,sans-Serif" font-size="10.00">mention_channels</text>
<text text-anchor="middle" x="708" y="-263.486" font-family="Helvetica,sans-Serif" font-size="10.00">mention_roles</text>
<text text-anchor="middle" x="708" y="-252.486" font-family="Helvetica,sans-Serif" font-size="10.00">mentions</text>
<text text-anchor="middle" x="708" y="-241.486" font-family="Helvetica,sans-Serif" font-size="10.00">reactions</text>
<text text-anchor="middle" x="708" y="-230.486" font-family="Helvetica,sans-Serif" font-size="10.00">stickers</text>
</g>
<!-- Node14&#45;&gt;Node13 -->
<g id="edge17" class="edge"><title>Node14&#45;&gt;Node13</title>
<path fill="none" stroke="#9a32cd" stroke-dasharray="5,2" d="M489.841,-202.949C502.005,-214.195 516.774,-230.156 525,-247.486 547.561,-295.015 519.37,-317.48 543,-364.486 564.879,-408.009 597.914,-399.068 620,-442.486 642.461,-486.641 613.514,-509.422 638,-552.486 650.221,-573.98 673.64,-591.036 689.78,-600.945"/>
<polygon fill="#9a32cd" stroke="#9a32cd" points="492.121,-200.293 482.319,-196.273 487.475,-205.529 492.121,-200.293"/>
<text text-anchor="middle" x="581.5" y="-445.486" font-family="Helvetica,sans-Serif" font-size="10.00"> roles</text>
</g>
<!-- Node19 -->
<g id="node19" class="node"><title>Node19</title>
<g id="a_node19"><a xlink:href="structdpp_1_1message_1_1allowed__ref.html" target="_top" xlink:title="Allowed mentions detils.">
<polygon fill="white" stroke="black" points="641,-50.9864 641,-69.9864 775,-69.9864 775,-50.9864 641,-50.9864"/>
<text text-anchor="middle" x="708" y="-57.9864" font-family="Helvetica,sans-Serif" font-size="10.00">dpp::message::allowed_ref</text>
</a>
</g>
</g>
<!-- Node14&#45;&gt;Node19 -->
<g id="edge36" class="edge"><title>Node14&#45;&gt;Node19</title>
<path fill="none" stroke="#9a32cd" stroke-dasharray="5,2" d="M493.37,-171.401C507.618,-162.294 526.249,-150.544 543,-140.486 576.792,-120.197 586.471,-117.208 620,-96.4864 628.179,-91.4316 629.39,-88.7666 638,-84.4864 649.357,-78.8402 662.37,-73.9429 674.012,-70.0711"/>
<polygon fill="#9a32cd" stroke="#9a32cd" points="491.232,-168.614 484.704,-176.959 495.011,-174.506 491.232,-168.614"/>
<text text-anchor="middle" x="581.5" y="-154.486" font-family="Helvetica,sans-Serif" font-size="10.00"> roles</text>
<text text-anchor="middle" x="581.5" y="-143.486" font-family="Helvetica,sans-Serif" font-size="10.00">users</text>
</g>
<!-- Node15 -->
<g id="node15" class="node"><title>Node15</title>
<g id="a_node15"><a xlink:title=" ">
<polygon fill="white" stroke="#bfbfbf" points="447,-837.986 447,-856.986 491,-856.986 491,-837.986 447,-837.986"/>
<text text-anchor="middle" x="469" y="-844.986" font-family="Helvetica,sans-Serif" font-size="10.00">time_t</text>
</a>
</g>
</g>
<!-- Node15&#45;&gt;Node3 -->
<g id="edge23" class="edge"><title>Node15&#45;&gt;Node3</title>
<path fill="none" stroke="#9a32cd" stroke-dasharray="5,2" d="M501.278,-849.091C532.497,-849.574 581.267,-847.25 620,-831.486 765.107,-772.43 823.051,-751.6 897,-613.486 920.885,-568.876 883.113,-425.779 915,-386.486 921.547,-378.419 931.337,-373.665 941.325,-370.895"/>
<polygon fill="#9a32cd" stroke="#9a32cd" points="501.102,-845.585 491.013,-848.82 500.918,-852.583 501.102,-845.585"/>
<text text-anchor="middle" x="708" y="-838.486" font-family="Helvetica,sans-Serif" font-size="10.00"> edited</text>
<text text-anchor="middle" x="708" y="-827.486" font-family="Helvetica,sans-Serif" font-size="10.00">sent</text>
</g>
<!-- Node15&#45;&gt;Node13 -->
<g id="edge18" class="edge"><title>Node15&#45;&gt;Node13</title>
<path fill="none" stroke="#9a32cd" stroke-dasharray="5,2" d="M500.427,-836.107C508.653,-832.528 517.381,-828.25 525,-823.486 530.881,-819.81 615.407,-747.683 620,-742.486 656.714,-700.943 689.657,-642.774 701.921,-620.083"/>
<polygon fill="#9a32cd" stroke="#9a32cd" points="498.997,-832.911 491.1,-839.974 501.678,-839.377 498.997,-832.911"/>
<text text-anchor="middle" x="581.5" y="-821.486" font-family="Helvetica,sans-Serif" font-size="10.00"> joined_at</text>
<text text-anchor="middle" x="581.5" y="-810.486" font-family="Helvetica,sans-Serif" font-size="10.00">premium_since</text>
</g>
<!-- Node15&#45;&gt;Node20 -->
<g id="edge39" class="edge"><title>Node15&#45;&gt;Node20</title>
<path fill="none" stroke="#9a32cd" stroke-dasharray="5,2" d="M481.364,-865.6C494.127,-884.489 516.552,-913.643 543,-930.486 544.419,-931.39 626.262,-955.14 673.777,-968.887"/>
<polygon fill="#9a32cd" stroke="#9a32cd" points="484.152,-863.468 475.749,-857.014 478.293,-867.299 484.152,-863.468"/>
<text text-anchor="middle" x="581.5" y="-955.486" font-family="Helvetica,sans-Serif" font-size="10.00"> last_identify</text>
</g>
<!-- Node16 -->
<g id="node16" class="node"><title>Node16</title>
<g id="a_node16"><a xlink:title=" ">
<polygon fill="white" stroke="#bfbfbf" points="451.5,-37.9864 451.5,-56.9864 486.5,-56.9864 486.5,-37.9864 451.5,-37.9864"/>
<text text-anchor="middle" x="469" y="-44.9864" font-family="Helvetica,sans-Serif" font-size="10.00">bool</text>
</a>
</g>
</g>
<!-- Node16&#45;&gt;Node3 -->
<g id="edge24" class="edge"><title>Node16&#45;&gt;Node3</title>
<path fill="none" stroke="#9a32cd" stroke-dasharray="5,2" d="M491.654,-62.8402C505.772,-72.337 524.879,-84.2456 543,-92.4864 642.557,-137.761 677.566,-122.194 778,-165.486 784.967,-168.49 891.54,-227.218 897,-232.486 937.324,-271.393 965.77,-334.019 975.662,-357.855"/>
<polygon fill="#9a32cd" stroke="#9a32cd" points="493.382,-59.7817 483.156,-57.0105 489.422,-65.5538 493.382,-59.7817"/>
<text text-anchor="middle" x="708" y="-190.486" font-family="Helvetica,sans-Serif" font-size="10.00"> mention_everyone</text>
<text text-anchor="middle" x="708" y="-179.486" font-family="Helvetica,sans-Serif" font-size="10.00">pinned</text>
<text text-anchor="middle" x="708" y="-168.486" font-family="Helvetica,sans-Serif" font-size="10.00">tts</text>
</g>
<!-- Node16&#45;&gt;Node17 -->
<g id="edge28" class="edge"><title>Node16&#45;&gt;Node17</title>
<path fill="none" stroke="#9a32cd" stroke-dasharray="5,2" d="M496.524,-40.9602C510.317,-37.748 527.492,-34.0295 543,-31.4864 573.951,-26.4108 608.429,-22.384 637.755,-19.4373"/>
<polygon fill="#9a32cd" stroke="#9a32cd" points="495.639,-37.5729 486.719,-43.2901 497.257,-44.3833 495.639,-37.5729"/>
<text text-anchor="middle" x="581.5" y="-34.4864" font-family="Helvetica,sans-Serif" font-size="10.00"> fail_if_not_exists</text>
</g>
<!-- Node16&#45;&gt;Node19 -->
<g id="edge35" class="edge"><title>Node16&#45;&gt;Node19</title>
<path fill="none" stroke="#9a32cd" stroke-dasharray="5,2" d="M496.782,-46.6147C526.82,-45.8813 576.971,-45.3887 620,-48.4864 628.212,-49.0776 636.831,-49.9533 645.319,-50.9672"/>
<polygon fill="#9a32cd" stroke="#9a32cd" points="496.576,-43.1189 486.675,-46.8896 496.767,-50.1163 496.576,-43.1189"/>
<text text-anchor="middle" x="581.5" y="-84.4864" font-family="Helvetica,sans-Serif" font-size="10.00"> parse_everyone</text>
<text text-anchor="middle" x="581.5" y="-73.4864" font-family="Helvetica,sans-Serif" font-size="10.00">parse_roles</text>
<text text-anchor="middle" x="581.5" y="-62.4864" font-family="Helvetica,sans-Serif" font-size="10.00">parse_users</text>
<text text-anchor="middle" x="581.5" y="-51.4864" font-family="Helvetica,sans-Serif" font-size="10.00">replied_user</text>
</g>
<!-- Node17&#45;&gt;Node3 -->
<g id="edge26" class="edge"><title>Node17&#45;&gt;Node3</title>
<path fill="none" stroke="#9a32cd" stroke-dasharray="5,2" d="M758.923,-27.1938C766.053,-30.8997 772.74,-35.5814 778,-41.4864 797.939,-63.8692 774.125,-85.9917 796,-106.486 829.459,-137.833 862.602,-97.1734 897,-127.486 969.393,-191.281 978.302,-321.565 979.365,-357.893"/>
<polygon fill="#9a32cd" stroke="#9a32cd" points="760.279,-23.9654 749.728,-23.0029 757.376,-30.335 760.279,-23.9654"/>
<text text-anchor="middle" x="846.5" y="-130.486" font-family="Helvetica,sans-Serif" font-size="10.00"> message_reference</text>
</g>
<!-- Node18&#45;&gt;Node3 -->
<g id="edge29" class="edge"><title>Node18&#45;&gt;Node3</title>
<path fill="none" stroke="#9a32cd" stroke-dasharray="5,2" d="M776.952,-419.902C829.514,-406.3 900.273,-387.989 942.739,-376.999"/>
<polygon fill="#9a32cd" stroke="#9a32cd" points="775.833,-416.576 767.029,-422.47 777.587,-423.353 775.833,-416.576"/>
<text text-anchor="middle" x="846.5" y="-418.486" font-family="Helvetica,sans-Serif" font-size="10.00"> interaction</text>
</g>
<!-- Node19&#45;&gt;Node3 -->
<g id="edge34" class="edge"><title>Node19&#45;&gt;Node3</title>
<path fill="none" stroke="#9a32cd" stroke-dasharray="5,2" d="M764.648,-74.4362C769.556,-77.2025 774.123,-80.5164 778,-84.4864 796.265,-103.19 776.727,-122.823 796,-140.486 829.94,-171.592 861.943,-133.645 897,-163.486 959.546,-216.726 975.225,-324.429 978.642,-357.561"/>
<polygon fill="#9a32cd" stroke="#9a32cd" points="766.048,-71.2252 755.521,-70.025 763.002,-77.5278 766.048,-71.2252"/>
<text text-anchor="middle" x="846.5" y="-166.486" font-family="Helvetica,sans-Serif" font-size="10.00"> allowed_mentions</text>
</g>
<!-- Node20&#45;&gt;Node3 -->
<g id="edge37" class="edge"><title>Node20&#45;&gt;Node3</title>
<path fill="none" stroke="#9a32cd" stroke-dasharray="5,2" d="M752.199,-973.628C796.737,-966.089 864.168,-947.065 897,-899.486 929.394,-852.543 880.044,-431.554 915,-386.486 921.439,-378.185 931.323,-373.372 941.433,-370.621"/>
<polygon fill="#9a32cd" stroke="#9a32cd" points="751.573,-970.183 742.235,-975.188 752.657,-977.099 751.573,-970.183"/>
<text text-anchor="middle" x="846.5" y="-966.486" font-family="Helvetica,sans-Serif" font-size="10.00"> owner</text>
</g>
<!-- Node21 -->
<g id="node21" class="node"><title>Node21</title>
<g id="a_node21"><a xlink:title=" ">
<polygon fill="white" stroke="#bfbfbf" points="446.5,-1115.99 446.5,-1134.99 491.5,-1134.99 491.5,-1115.99 446.5,-1115.99"/>
<text text-anchor="middle" x="469" y="-1122.99" font-family="Helvetica,sans-Serif" font-size="10.00">double</text>
</a>
</g>
</g>
<!-- Node21&#45;&gt;Node20 -->
<g id="edge41" class="edge"><title>Node21&#45;&gt;Node20</title>
<path fill="none" stroke="#9a32cd" stroke-dasharray="5,2" d="M501.793,-1124.76C533.92,-1122.66 583.846,-1115.55 620,-1092.49 662.192,-1065.58 691.762,-1010.65 702.521,-988.285"/>
<polygon fill="#9a32cd" stroke="#9a32cd" points="501.428,-1121.27 491.626,-1125.29 501.796,-1128.26 501.428,-1121.27"/>
<text text-anchor="middle" x="581.5" y="-1122.49" font-family="Helvetica,sans-Serif" font-size="10.00"> rest_ping</text>
</g>
<!-- Node22 -->
<g id="node22" class="node"><title>Node22</title>
<g id="a_node22"><a xlink:href="classdpp_1_1dispatcher.html" target="_top" xlink:title="The dispatcher class contains a set of std::functions representing hooked events that the user code i...">
<polygon fill="white" stroke="black" points="427.5,-1077.99 427.5,-1096.99 510.5,-1096.99 510.5,-1077.99 427.5,-1077.99"/>
<text text-anchor="middle" x="469" y="-1084.99" font-family="Helvetica,sans-Serif" font-size="10.00">dpp::dispatcher</text>
</a>
</g>
</g>
<!-- Node22&#45;&gt;Node20 -->
<g id="edge42" class="edge"><title>Node22&#45;&gt;Node20</title>
<path fill="none" stroke="#9a32cd" stroke-dasharray="5,2" d="M520.851,-1081.26C550.887,-1076.15 588.98,-1067.12 620,-1051.49 652.749,-1034.98 683.836,-1003.92 698.389,-988.173"/>
<polygon fill="#9a32cd" stroke="#9a32cd" points="519.907,-1077.87 510.588,-1082.91 521.016,-1084.78 519.907,-1077.87"/>
<text text-anchor="middle" x="581.5" y="-1080.49" font-family="Helvetica,sans-Serif" font-size="10.00"> dispatch</text>
</g>
<!-- Node23 -->
<g id="node23" class="node"><title>Node23</title>
<g id="a_node23"><a xlink:title=" ">
<polygon fill="white" stroke="#bfbfbf" points="200.5,-1086.99 200.5,-1105.99 241.5,-1105.99 241.5,-1086.99 200.5,-1086.99"/>
<text text-anchor="middle" x="221" y="-1093.99" font-family="Helvetica,sans-Serif" font-size="10.00">map&lt;</text>
</a>
</g>
</g>
<!-- Node23&#45;&gt;Node22 -->
<g id="edge43" class="edge"><title>Node23&#45;&gt;Node22</title>
<path fill="none" stroke="#9a32cd" stroke-dasharray="5,2" d="M251.748,-1095.4C295.627,-1093.79 377.83,-1090.79 427.275,-1088.98"/>
<polygon fill="#9a32cd" stroke="#9a32cd" points="251.581,-1091.9 241.715,-1095.77 251.837,-1098.9 251.581,-1091.9"/>
<text text-anchor="start" x="297" y="-1240.49" font-family="Helvetica,sans-Serif" font-size="10.00"> application_command</text>
<text text-anchor="middle" x="346" y="-1229.49" font-family="Helvetica,sans-Serif" font-size="10.00">_create</text>
<text text-anchor="start" x="297" y="-1218.49" font-family="Helvetica,sans-Serif" font-size="10.00">application_command</text>
<text text-anchor="middle" x="346" y="-1207.49" font-family="Helvetica,sans-Serif" font-size="10.00">_delete</text>
<text text-anchor="start" x="297" y="-1196.49" font-family="Helvetica,sans-Serif" font-size="10.00">application_command</text>
<text text-anchor="middle" x="346" y="-1185.49" font-family="Helvetica,sans-Serif" font-size="10.00">_update</text>
<text text-anchor="middle" x="346" y="-1174.49" font-family="Helvetica,sans-Serif" font-size="10.00">autocomplete</text>
<text text-anchor="middle" x="346" y="-1163.49" font-family="Helvetica,sans-Serif" font-size="10.00">button_click</text>
<text text-anchor="middle" x="346" y="-1152.49" font-family="Helvetica,sans-Serif" font-size="10.00">channel_create</text>
<text text-anchor="middle" x="346" y="-1141.49" font-family="Helvetica,sans-Serif" font-size="10.00">channel_delete</text>
<text text-anchor="middle" x="346" y="-1130.49" font-family="Helvetica,sans-Serif" font-size="10.00">channel_pins_update</text>
<text text-anchor="middle" x="346" y="-1119.49" font-family="Helvetica,sans-Serif" font-size="10.00">channel_update</text>
<text text-anchor="middle" x="346" y="-1108.49" font-family="Helvetica,sans-Serif" font-size="10.00">guild_ban_add</text>
<text text-anchor="middle" x="346" y="-1097.49" font-family="Helvetica,sans-Serif" font-size="10.00">...</text>
</g>
<!-- Node24 -->
<g id="node24" class="node"><title>Node24</title>
<g id="a_node24"><a xlink:href="structdpp_1_1cache__policy__t.html" target="_top" xlink:title="Represents the caching policy of the cluster.">
<polygon fill="white" stroke="black" points="417,-1039.99 417,-1058.99 521,-1058.99 521,-1039.99 417,-1039.99"/>
<text text-anchor="middle" x="469" y="-1046.99" font-family="Helvetica,sans-Serif" font-size="10.00">dpp::cache_policy_t</text>
</a>
</g>
</g>
<!-- Node24&#45;&gt;Node20 -->
<g id="edge45" class="edge"><title>Node24&#45;&gt;Node20</title>
<path fill="none" stroke="#9a32cd" stroke-dasharray="5,2" d="M531.219,-1038.83C558.697,-1033.33 591.316,-1025.81 620,-1016.49 644.14,-1008.64 670.72,-996.484 688.068,-988.041"/>
<polygon fill="#9a32cd" stroke="#9a32cd" points="530.486,-1035.41 521.345,-1040.76 531.832,-1042.28 530.486,-1035.41"/>
<text text-anchor="middle" x="581.5" y="-1039.49" font-family="Helvetica,sans-Serif" font-size="10.00"> cache_policy</text>
</g>
<!-- Node25 -->
<g id="node25" class="node"><title>Node25</title>
<g id="a_node25"><a xlink:title=" ">
<polygon fill="white" stroke="#bfbfbf" points="163,-1030.99 163,-1049.99 279,-1049.99 279,-1030.99 163,-1030.99"/>
<text text-anchor="middle" x="221" y="-1037.99" font-family="Helvetica,sans-Serif" font-size="10.00">cache_policy_setting_t</text>
</a>
</g>
</g>
<!-- Node25&#45;&gt;Node24 -->
<g id="edge46" class="edge"><title>Node25&#45;&gt;Node24</title>
<path fill="none" stroke="#9a32cd" stroke-dasharray="5,2" d="M289.05,-1042.94C329.276,-1044.41 379.648,-1046.25 416.692,-1047.61"/>
<polygon fill="#9a32cd" stroke="#9a32cd" points="289.177,-1039.44 279.056,-1042.57 288.921,-1046.44 289.177,-1039.44"/>
<text text-anchor="middle" x="346" y="-1072.49" font-family="Helvetica,sans-Serif" font-size="10.00"> emoji_policy</text>
<text text-anchor="middle" x="346" y="-1061.49" font-family="Helvetica,sans-Serif" font-size="10.00">role_policy</text>
<text text-anchor="middle" x="346" y="-1050.49" font-family="Helvetica,sans-Serif" font-size="10.00">user_policy</text>
</g>
<!-- Node26 -->
<g id="node26" class="node"><title>Node26</title>
<g id="a_node26"><a xlink:title=" ">
<polygon fill="white" stroke="#bfbfbf" points="413,-1001.99 413,-1020.99 525,-1020.99 525,-1001.99 413,-1001.99"/>
<text text-anchor="middle" x="469" y="-1008.99" font-family="Helvetica,sans-Serif" font-size="10.00">websocket_protocol_t</text>
</a>
</g>
</g>
<!-- Node26&#45;&gt;Node20 -->
<g id="edge47" class="edge"><title>Node26&#45;&gt;Node20</title>
<path fill="none" stroke="#9a32cd" stroke-dasharray="5,2" d="M535.243,-1002.4C580.256,-996.134 638.214,-988.064 673.976,-983.085"/>
<polygon fill="#9a32cd" stroke="#9a32cd" points="534.689,-998.945 525.267,-1003.79 535.654,-1005.88 534.689,-998.945"/>
<text text-anchor="middle" x="581.5" y="-1004.49" font-family="Helvetica,sans-Serif" font-size="10.00"> ws_mode</text>
</g>
</g>
</svg>
        <g id="navigator" transform="translate(0 0)" fill="#404254">
                <rect fill="#f2f5e9" fill-opacity="0.5" stroke="#606060" stroke-width=".5" x="0" y="0" width="60" height="60"/>
                <use id="zoomplus" xlink:href="#zoomPlus" x="17" y="9" onmousedown="handleZoom(evt,'in')"/>
                <use id="zoomminus" xlink:href="#zoomMin" x="42" y="9" onmousedown="handleZoom(evt,'out')"/>
                <use id="reset" xlink:href="#resetDef" x="30" y="36" onmousedown="handleReset()"/>
                <g id="arrowUp" xlink:href="#dirArrow" transform="translate(30 24)" onmousedown="handlePan(0,-1)">
                  <use xlink:href="#rim" fill="#404040">
                        <set attributeName="fill" to="#808080" begin="arrowUp.mouseover" end="arrowUp.mouseout"/>
                  </use>
                  <path fill="none" stroke="white" stroke-width="1.5" d="M0,-3.0v7 M-2.5,-0.5L0,-3.0L2.5,-0.5"/>
                </g>
                <g id="arrowRight" xlink:href="#dirArrow" transform="rotate(90) translate(36 -43)" onmousedown="handlePan(1,0)">
                  <use xlink:href="#rim" fill="#404040">
                        <set attributeName="fill" to="#808080" begin="arrowRight.mouseover" end="arrowRight.mouseout"/>
                  </use>
                  <path fill="none" stroke="white" stroke-width="1.5" d="M0,-3.0v7 M-2.5,-0.5L0,-3.0L2.5,-0.5"/>
                </g>
                <g id="arrowDown" xlink:href="#dirArrow" transform="rotate(180) translate(-30 -48)" onmousedown="handlePan(0,1)">
                  <use xlink:href="#rim" fill="#404040">
                        <set attributeName="fill" to="#808080" begin="arrowDown.mouseover" end="arrowDown.mouseout"/>
                  </use>
                  <path fill="none" stroke="white" stroke-width="1.5" d="M0,-3.0v7 M-2.5,-0.5L0,-3.0L2.5,-0.5"/>
                </g>
                <g id="arrowLeft" xlink:href="#dirArrow" transform="rotate(270) translate(-36 17)" onmousedown="handlePan(-1,0)">
                  <use xlink:href="#rim" fill="#404040">
                        <set attributeName="fill" to="#808080" begin="arrowLeft.mouseover" end="arrowLeft.mouseout"/>
                  </use>
                  <path fill="none" stroke="white" stroke-width="1.5" d="M0,-3.0v7 M-2.5,-0.5L0,-3.0L2.5,-0.5"/>
                </g>
        </g>
        <svg viewBox="0 0 15 15" width="100%" height="30px" preserveAspectRatio="xMaxYMin meet">
         <g id="arrow_out" transform="scale(0.3 0.3)">
          <a xlink:href="structdpp_1_1interaction__response__coll__graph_org.svg" target="_base">
           <rect id="button" ry="5" rx="5" y="6" x="6" height="38" width="38"
                fill="#f2f5e9" fill-opacity="0.5" stroke="#606060" stroke-width="1.0"/>
           <path id="arrow"
             d="M 11.500037,31.436501 C 11.940474,20.09759 22.043105,11.32322 32.158766,21.979434 L 37.068811,17.246167 C 37.068811,17.246167 37.088388,32 37.088388,32 L 22.160133,31.978069 C 22.160133,31.978069 26.997745,27.140456 26.997745,27.140456 C 18.528582,18.264221 13.291696,25.230495 11.500037,31.436501 z"
             style="fill:#404040;"/>
          </a>
         </g>
        </svg>
</svg>
