<?xml version="1.0" encoding="UTF-8" standalone="no"?>
<!DOCTYPE svg PUBLIC "-//W3C//DTD SVG 1.1//EN"
 "http://www.w3.org/Graphics/SVG/1.1/DTD/svg11.dtd">
<!-- Generated by graphviz version 2.43.0 (0)
 -->
<!-- Title: dpp::thread_member_update_t Pages: 1 -->
<svg width="1469pt" height="1065pt"
 viewBox="0.00 0.00 1469.00 1064.51" xmlns="http://www.w3.org/2000/svg" xmlns:xlink="http://www.w3.org/1999/xlink">
<g id="graph0" class="graph" transform="scale(1 1) rotate(0) translate(4 1060.51)">
<title>dpp::thread_member_update_t</title>
<!-- Node1 -->
<g id="node1" class="node">
<title>Node1</title>
<g id="a_node1"><a xlink:title="Thread Member Update.">
<polygon fill="#bfbfbf" stroke="black" points="1342,-967.51 1342,-997.51 1461,-997.51 1461,-967.51 1342,-967.51"/>
<text text-anchor="start" x="1350" y="-985.51" font-family="Helvetica,sans-Serif" font-size="10.00">dpp::thread_member</text>
<text text-anchor="middle" x="1401.5" y="-974.51" font-family="Helvetica,sans-Serif" font-size="10.00">_update_t</text>
</a>
</g>
</g>
<!-- Node2 -->
<g id="node2" class="node">
<title>Node2</title>
<g id="a_node2"><a xlink:href="structdpp_1_1event__dispatch__t.html" target="_top" xlink:title="Base event parameter struct.">
<polygon fill="none" stroke="black" points="1181,-954.01 1181,-973.01 1305,-973.01 1305,-954.01 1181,-954.01"/>
<text text-anchor="middle" x="1243" y="-961.01" font-family="Helvetica,sans-Serif" font-size="10.00">dpp::event_dispatch_t</text>
</a>
</g>
</g>
<!-- Node2&#45;&gt;Node1 -->
<g id="edge1" class="edge">
<title>Node2&#45;&gt;Node1</title>
<path fill="none" stroke="midnightblue" d="M1315.34,-972.17C1324.2,-973.25 1333.19,-974.34 1341.83,-975.39"/>
<polygon fill="midnightblue" stroke="midnightblue" points="1315.75,-968.7 1305.4,-970.97 1314.91,-975.65 1315.75,-968.7"/>
</g>
<!-- Node3 -->
<g id="node3" class="node">
<title>Node3</title>
<g id="a_node3"><a xlink:title=" ">
<polygon fill="none" stroke="#bfbfbf" points="206.5,-988.01 206.5,-1007.01 271.5,-1007.01 271.5,-988.01 206.5,-988.01"/>
<text text-anchor="middle" x="239" y="-995.01" font-family="Helvetica,sans-Serif" font-size="10.00">std::string</text>
</a>
</g>
</g>
<!-- Node3&#45;&gt;Node2 -->
<g id="edge2" class="edge">
<title>Node3&#45;&gt;Node2</title>
<path fill="none" stroke="#9a32cd" stroke-dasharray="5,2" d="M272.49,-1010.74C287.07,-1016.04 304.64,-1021.59 321,-1024.51 443.13,-1046.36 475.95,-1031.51 600,-1033.51 830.32,-1037.23 893.31,-1067.23 1118,-1016.51 1158.19,-1007.44 1201.73,-985.79 1225.02,-973.15"/>
<polygon fill="#9a32cd" stroke="#9a32cd" points="273.52,-1007.38 262.93,-1007.14 271.05,-1013.94 273.52,-1007.38"/>
<text text-anchor="middle" x="774.5" y="-1048.51" font-family="Helvetica,sans-Serif" font-size="10.00"> raw_event</text>
</g>
<!-- Node5 -->
<g id="node5" class="node">
<title>Node5</title>
<g id="a_node5"><a xlink:href="classdpp_1_1discord__client.html" target="_top" xlink:title="Implements a discord client. Each discord_client connects to one shard and derives from a websocket c...">
<polygon fill="none" stroke="black" points="1010,-566.01 1010,-585.01 1118,-585.01 1118,-566.01 1010,-566.01"/>
<text text-anchor="middle" x="1064" y="-573.01" font-family="Helvetica,sans-Serif" font-size="10.00">dpp::discord_client</text>
</a>
</g>
</g>
<!-- Node3&#45;&gt;Node5 -->
<g id="edge37" class="edge">
<title>Node3&#45;&gt;Node5</title>
<path fill="none" stroke="#9a32cd" stroke-dasharray="5,2" d="M282,-1004.31C294.51,-1006.04 308.28,-1007.65 321,-1008.51 374.66,-1012.14 388.3,-1011.38 442,-1008.51 564.75,-1001.95 901.64,-1032.85 992,-949.51 1047.75,-898.09 1060.6,-638.29 1062.67,-585.05"/>
<polygon fill="#9a32cd" stroke="#9a32cd" points="282.23,-1000.81 271.83,-1002.85 281.23,-1007.74 282.23,-1000.81"/>
<text text-anchor="middle" x="647" y="-1023.51" font-family="Helvetica,sans-Serif" font-size="10.00"> sessionid</text>
<text text-anchor="middle" x="647" y="-1012.51" font-family="Helvetica,sans-Serif" font-size="10.00">token</text>
</g>
<!-- Node7 -->
<g id="node7" class="node">
<title>Node7</title>
<g id="a_node7"><a xlink:href="classdpp_1_1ssl__client.html" target="_top" xlink:title="Implements a simple non&#45;blocking SSL stream client.">
<polygon fill="none" stroke="black" points="478,-778.01 478,-797.01 564,-797.01 564,-778.01 478,-778.01"/>
<text text-anchor="middle" x="521" y="-785.01" font-family="Helvetica,sans-Serif" font-size="10.00">dpp::ssl_client</text>
</a>
</g>
</g>
<!-- Node3&#45;&gt;Node7 -->
<g id="edge7" class="edge">
<title>Node3&#45;&gt;Node7</title>
<path fill="none" stroke="#9a32cd" stroke-dasharray="5,2" d="M256.32,-980.49C271.78,-965.17 296.26,-942.92 321,-928.51 370.45,-899.72 402.2,-925.63 442,-884.51 459.89,-866.03 444.68,-850.17 460,-829.51 470.45,-815.42 487.07,-804.31 500.17,-797.07"/>
<polygon fill="#9a32cd" stroke="#9a32cd" points="253.65,-978.22 249.11,-987.79 258.63,-983.14 253.65,-978.22"/>
<text text-anchor="middle" x="381.5" y="-975.51" font-family="Helvetica,sans-Serif" font-size="10.00"> buffer</text>
<text text-anchor="middle" x="381.5" y="-964.51" font-family="Helvetica,sans-Serif" font-size="10.00">cipher</text>
<text text-anchor="middle" x="381.5" y="-953.51" font-family="Helvetica,sans-Serif" font-size="10.00">hostname</text>
<text text-anchor="middle" x="381.5" y="-942.51" font-family="Helvetica,sans-Serif" font-size="10.00">obuffer</text>
<text text-anchor="middle" x="381.5" y="-931.51" font-family="Helvetica,sans-Serif" font-size="10.00">port</text>
</g>
<!-- Node14 -->
<g id="node14" class="node">
<title>Node14</title>
<g id="a_node14"><a xlink:href="classdpp_1_1cluster.html" target="_top" xlink:title="The cluster class represents a group of shards and a command queue for sending and receiving commands...">
<polygon fill="none" stroke="black" points="737.5,-413.01 737.5,-432.01 811.5,-432.01 811.5,-413.01 737.5,-413.01"/>
<text text-anchor="middle" x="774.5" y="-420.01" font-family="Helvetica,sans-Serif" font-size="10.00">dpp::cluster</text>
</a>
</g>
</g>
<!-- Node3&#45;&gt;Node14 -->
<g id="edge15" class="edge">
<title>Node3&#45;&gt;Node14</title>
<path fill="none" stroke="#9a32cd" stroke-dasharray="5,2" d="M281.59,-1004.01C324.39,-1008.64 391.73,-1010.03 442,-983.51 443.39,-982.78 581.42,-807.97 582,-806.51 599.55,-762.13 573.73,-632.35 600,-592.51 626.05,-553.01 658.97,-574.32 694,-542.51 731.19,-508.74 758.99,-454.03 769.22,-432.07"/>
<polygon fill="#9a32cd" stroke="#9a32cd" points="281.87,-1000.52 271.53,-1002.81 281.05,-1007.47 281.87,-1000.52"/>
<text text-anchor="middle" x="521" y="-964.51" font-family="Helvetica,sans-Serif" font-size="10.00"> token</text>
</g>
<!-- Node18 -->
<g id="node18" class="node">
<title>Node18</title>
<g id="a_node18"><a xlink:href="classdpp_1_1user.html" target="_top" xlink:title="Represents a user on discord. May or may not be a member of a dpp::guild.">
<polygon fill="none" stroke="black" points="490,-159.01 490,-178.01 552,-178.01 552,-159.01 490,-159.01"/>
<text text-anchor="middle" x="521" y="-166.01" font-family="Helvetica,sans-Serif" font-size="10.00">dpp::user</text>
</a>
</g>
</g>
<!-- Node3&#45;&gt;Node18 -->
<g id="edge24" class="edge">
<title>Node3&#45;&gt;Node18</title>
<path fill="none" stroke="#9a32cd" stroke-dasharray="5,2" d="M255.49,-980.03C270.26,-962.31 291.86,-933.45 303,-904.51 323.64,-850.9 286.92,-822.76 321,-776.51 356.27,-728.66 409.19,-769.08 442,-719.51 470.42,-676.58 443.87,-305.4 460,-256.51 470.6,-224.38 496.71,-193.22 510.73,-178.06"/>
<polygon fill="#9a32cd" stroke="#9a32cd" points="252.69,-977.91 248.86,-987.79 258.02,-982.46 252.69,-977.91"/>
<text text-anchor="middle" x="381.5" y="-779.51" font-family="Helvetica,sans-Serif" font-size="10.00"> username</text>
</g>
<!-- Node4 -->
<g id="node4" class="node">
<title>Node4</title>
<g id="a_node4"><a xlink:title=" ">
<polygon fill="none" stroke="#bfbfbf" points="0,-982.51 0,-1012.51 104,-1012.51 104,-982.51 0,-982.51"/>
<text text-anchor="start" x="8" y="-1000.51" font-family="Helvetica,sans-Serif" font-size="10.00">std::basic_string&lt;</text>
<text text-anchor="middle" x="52" y="-989.51" font-family="Helvetica,sans-Serif" font-size="10.00"> Char &gt;</text>
</a>
</g>
</g>
<!-- Node4&#45;&gt;Node3 -->
<g id="edge3" class="edge">
<title>Node4&#45;&gt;Node3</title>
<path fill="none" stroke="midnightblue" d="M114.26,-997.51C145.05,-997.51 181.08,-997.51 206.29,-997.51"/>
<polygon fill="midnightblue" stroke="midnightblue" points="114.04,-994.01 104.04,-997.51 114.04,-1001.01 114.04,-994.01"/>
</g>
<!-- Node5&#45;&gt;Node2 -->
<g id="edge4" class="edge">
<title>Node5&#45;&gt;Node2</title>
<path fill="none" stroke="#9a32cd" stroke-dasharray="5,2" d="M1073.61,-594.39C1105.24,-663.72 1214.36,-902.93 1237.62,-953.91"/>
<polygon fill="#9a32cd" stroke="#9a32cd" points="1076.71,-592.75 1069.38,-585.1 1070.34,-595.65 1076.71,-592.75"/>
<text text-anchor="middle" x="1149.5" y="-784.51" font-family="Helvetica,sans-Serif" font-size="10.00"> from</text>
</g>
<!-- Node6 -->
<g id="node6" class="node">
<title>Node6</title>
<g id="a_node6"><a xlink:href="classdpp_1_1websocket__client.html" target="_top" xlink:title="Implements a websocket client based on the SSL client.">
<polygon fill="none" stroke="black" points="712,-686.01 712,-705.01 837,-705.01 837,-686.01 712,-686.01"/>
<text text-anchor="middle" x="774.5" y="-693.01" font-family="Helvetica,sans-Serif" font-size="10.00">dpp::websocket_client</text>
</a>
</g>
</g>
<!-- Node6&#45;&gt;Node5 -->
<g id="edge5" class="edge">
<title>Node6&#45;&gt;Node5</title>
<path fill="none" stroke="midnightblue" d="M831.89,-683.66C876.81,-672.91 940.49,-654.72 992,-628.51 1015.31,-616.65 1038.97,-597.17 1052.24,-585.42"/>
<polygon fill="midnightblue" stroke="midnightblue" points="830.97,-680.28 822.03,-685.97 832.57,-687.09 830.97,-680.28"/>
</g>
<!-- Node7&#45;&gt;Node6 -->
<g id="edge6" class="edge">
<title>Node7&#45;&gt;Node6</title>
<path fill="none" stroke="midnightblue" d="M558.13,-774.3C609.45,-755.52 702.26,-721.57 747.41,-705.05"/>
<polygon fill="midnightblue" stroke="midnightblue" points="556.63,-771.12 548.44,-777.84 559.03,-777.69 556.63,-771.12"/>
</g>
<!-- Node8 -->
<g id="node8" class="node">
<title>Node8</title>
<g id="a_node8"><a xlink:title=" ">
<polygon fill="none" stroke="#bfbfbf" points="220,-876.01 220,-895.01 258,-895.01 258,-876.01 220,-876.01"/>
<text text-anchor="middle" x="239" y="-883.01" font-family="Helvetica,sans-Serif" font-size="10.00">bool</text>
</a>
</g>
</g>
<!-- Node8&#45;&gt;Node5 -->
<g id="edge40" class="edge">
<title>Node8&#45;&gt;Node5</title>
<path fill="none" stroke="#9a32cd" stroke-dasharray="5,2" d="M268.27,-889.42C327.54,-896.68 468.71,-909.06 582,-880.51 781.12,-830.33 834.46,-799.22 992,-667.51 1021.72,-642.67 1046.8,-603.34 1057.48,-585.23"/>
<polygon fill="#9a32cd" stroke="#9a32cd" points="268.54,-885.93 258.18,-888.14 267.66,-892.87 268.54,-885.93"/>
<text text-anchor="middle" x="647" y="-878.51" font-family="Helvetica,sans-Serif" font-size="10.00"> ready</text>
</g>
<!-- Node8&#45;&gt;Node7 -->
<g id="edge8" class="edge">
<title>Node8&#45;&gt;Node7</title>
<path fill="none" stroke="#9a32cd" stroke-dasharray="5,2" d="M268.06,-879.92C283.65,-876.82 303.39,-872.92 321,-869.51 374.74,-859.1 393.25,-871.42 442,-846.51 451.8,-841.51 451.47,-836.46 460,-829.51 474.59,-817.62 492.36,-805.44 504.76,-797.28"/>
<polygon fill="#9a32cd" stroke="#9a32cd" points="267.13,-876.53 258.01,-881.92 268.5,-883.4 267.13,-876.53"/>
<text text-anchor="middle" x="381.5" y="-872.51" font-family="Helvetica,sans-Serif" font-size="10.00"> nonblocking</text>
</g>
<!-- Node9 -->
<g id="node9" class="node">
<title>Node9</title>
<g id="a_node9"><a xlink:title=" ">
<polygon fill="none" stroke="#bfbfbf" points="224.5,-829.01 224.5,-848.01 253.5,-848.01 253.5,-829.01 224.5,-829.01"/>
<text text-anchor="middle" x="239" y="-836.01" font-family="Helvetica,sans-Serif" font-size="10.00">int</text>
</a>
</g>
</g>
<!-- Node9&#45;&gt;Node7 -->
<g id="edge9" class="edge">
<title>Node9&#45;&gt;Node7</title>
<path fill="none" stroke="#9a32cd" stroke-dasharray="5,2" d="M263.97,-836.85C302.05,-833.89 378.55,-826.64 442,-812.51 459.77,-808.56 479.27,-802.31 494.33,-797.04"/>
<polygon fill="#9a32cd" stroke="#9a32cd" points="263.58,-833.37 253.87,-837.6 264.1,-840.35 263.58,-833.37"/>
<text text-anchor="middle" x="381.5" y="-834.51" font-family="Helvetica,sans-Serif" font-size="10.00"> sfd</text>
</g>
<!-- Node10 -->
<g id="node10" class="node">
<title>Node10</title>
<g id="a_node10"><a xlink:title=" ">
<polygon fill="none" stroke="#bfbfbf" points="189.5,-791.01 189.5,-810.01 288.5,-810.01 288.5,-791.01 189.5,-791.01"/>
<text text-anchor="middle" x="239" y="-798.01" font-family="Helvetica,sans-Serif" font-size="10.00">opensslcontext *</text>
</a>
</g>
</g>
<!-- Node10&#45;&gt;Node7 -->
<g id="edge10" class="edge">
<title>Node10&#45;&gt;Node7</title>
<path fill="none" stroke="#9a32cd" stroke-dasharray="5,2" d="M298.81,-797.78C352.35,-795.3 430.1,-791.69 477.73,-789.47"/>
<polygon fill="#9a32cd" stroke="#9a32cd" points="298.6,-794.29 288.77,-798.25 298.92,-801.28 298.6,-794.29"/>
<text text-anchor="middle" x="381.5" y="-800.51" font-family="Helvetica,sans-Serif" font-size="10.00"> ssl</text>
</g>
<!-- Node11 -->
<g id="node11" class="node">
<title>Node11</title>
<g id="a_node11"><a xlink:title=" ">
<polygon fill="none" stroke="#bfbfbf" points="215,-585.01 215,-604.01 263,-604.01 263,-585.01 215,-585.01"/>
<text text-anchor="middle" x="239" y="-592.01" font-family="Helvetica,sans-Serif" font-size="10.00">time_t</text>
</a>
</g>
</g>
<!-- Node11&#45;&gt;Node5 -->
<g id="edge34" class="edge">
<title>Node11&#45;&gt;Node5</title>
<path fill="none" stroke="#9a32cd" stroke-dasharray="5,2" d="M273.44,-594.86C334.66,-595.43 468.87,-596.31 582,-594.51 764.29,-591.62 809.99,-592.08 992,-581.51 997.8,-581.17 1003.87,-580.76 1009.91,-580.31"/>
<polygon fill="#9a32cd" stroke="#9a32cd" points="273.26,-591.36 263.22,-594.77 273.19,-598.36 273.26,-591.36"/>
<text text-anchor="middle" x="647" y="-608.51" font-family="Helvetica,sans-Serif" font-size="10.00"> last_heartbeat</text>
<text text-anchor="middle" x="647" y="-597.51" font-family="Helvetica,sans-Serif" font-size="10.00">last_heartbeat_ack</text>
</g>
<!-- Node11&#45;&gt;Node7 -->
<g id="edge11" class="edge">
<title>Node11&#45;&gt;Node7</title>
<path fill="none" stroke="#9a32cd" stroke-dasharray="5,2" d="M250.91,-612.75C264.53,-633.83 289.88,-667.88 321,-685.51 368.62,-712.5 393.7,-682.76 442,-708.51 474.31,-725.74 501.63,-760.91 513.56,-777.9"/>
<polygon fill="#9a32cd" stroke="#9a32cd" points="253.76,-610.71 245.49,-604.09 247.82,-614.42 253.76,-610.71"/>
<text text-anchor="middle" x="381.5" y="-711.51" font-family="Helvetica,sans-Serif" font-size="10.00"> last_tick</text>
</g>
<!-- Node11&#45;&gt;Node14 -->
<g id="edge16" class="edge">
<title>Node11&#45;&gt;Node14</title>
<path fill="none" stroke="#9a32cd" stroke-dasharray="5,2" d="M273.06,-585.33C328.54,-569.82 435.05,-539.64 442,-534.51 453.6,-525.95 448.29,-515.94 460,-507.51 504.86,-475.23 664.79,-442.56 737.3,-429.01"/>
<polygon fill="#9a32cd" stroke="#9a32cd" points="272.02,-581.98 263.33,-588.04 273.9,-588.73 272.02,-581.98"/>
<text text-anchor="middle" x="521" y="-510.51" font-family="Helvetica,sans-Serif" font-size="10.00"> last_identify</text>
</g>
<!-- Node29 -->
<g id="node29" class="node">
<title>Node29</title>
<g id="a_node29"><a xlink:href="structdpp_1_1thread__member.html" target="_top" xlink:title="represents membership of a user with a thread">
<polygon fill="none" stroke="black" points="461.5,-566.01 461.5,-585.01 580.5,-585.01 580.5,-566.01 461.5,-566.01"/>
<text text-anchor="middle" x="521" y="-573.01" font-family="Helvetica,sans-Serif" font-size="10.00">dpp::thread_member</text>
</a>
</g>
</g>
<!-- Node11&#45;&gt;Node29 -->
<g id="edge45" class="edge">
<title>Node11&#45;&gt;Node29</title>
<path fill="none" stroke="#9a32cd" stroke-dasharray="5,2" d="M273.38,-588.71C287.96,-586.4 305.28,-583.95 321,-582.51 367.99,-578.22 421.45,-576.51 461.12,-575.86"/>
<polygon fill="#9a32cd" stroke="#9a32cd" points="272.62,-585.29 263.31,-590.35 273.74,-592.2 272.62,-585.29"/>
<text text-anchor="middle" x="381.5" y="-585.51" font-family="Helvetica,sans-Serif" font-size="10.00"> joined</text>
</g>
<!-- Node12 -->
<g id="node12" class="node">
<title>Node12</title>
<g id="a_node12"><a xlink:title=" ">
<polygon fill="none" stroke="#bfbfbf" points="24,-145.01 24,-164.01 80,-164.01 80,-145.01 24,-145.01"/>
<text text-anchor="middle" x="52" y="-152.01" font-family="Helvetica,sans-Serif" font-size="10.00">uint64_t</text>
</a>
</g>
</g>
<!-- Node12&#45;&gt;Node5 -->
<g id="edge36" class="edge">
<title>Node12&#45;&gt;Node5</title>
<path fill="none" stroke="#9a32cd" stroke-dasharray="5,2" d="M63.42,-136.42C88.12,-96.12 154.49,-2.51 238,-2.51 238,-2.51 238,-2.51 775.5,-2.51 874.78,-2.51 925.86,16.53 992,-57.51 1062.45,-136.38 1063.47,-500.79 1063.09,-565.63"/>
<polygon fill="#9a32cd" stroke="#9a32cd" points="60.41,-134.62 58.29,-145 66.42,-138.21 60.41,-134.62"/>
<text text-anchor="middle" x="521" y="-5.51" font-family="Helvetica,sans-Serif" font-size="10.00"> last_seq</text>
</g>
<!-- Node12&#45;&gt;Node7 -->
<g id="edge12" class="edge">
<title>Node12&#45;&gt;Node7</title>
<path fill="none" stroke="#9a32cd" stroke-dasharray="5,2" d="M54.48,-174.67C60.18,-241.65 85.07,-461.11 175,-613.51 220.69,-690.94 240.72,-713.05 321,-753.51 370.92,-778.67 435.89,-785.68 477.77,-787.39"/>
<polygon fill="#9a32cd" stroke="#9a32cd" points="57.94,-173.99 53.66,-164.3 50.96,-174.55 57.94,-173.99"/>
<text text-anchor="middle" x="239" y="-757.51" font-family="Helvetica,sans-Serif" font-size="10.00"> bytes_in</text>
<text text-anchor="middle" x="239" y="-746.51" font-family="Helvetica,sans-Serif" font-size="10.00">bytes_out</text>
</g>
<!-- Node19 -->
<g id="node19" class="node">
<title>Node19</title>
<g id="a_node19"><a xlink:href="classdpp_1_1managed.html" target="_top" xlink:title="The managed class is the base class for various types that can be stored in a cache that are identifi...">
<polygon fill="none" stroke="black" points="196,-31.01 196,-50.01 282,-50.01 282,-31.01 196,-31.01"/>
<text text-anchor="middle" x="239" y="-38.01" font-family="Helvetica,sans-Serif" font-size="10.00">dpp::managed</text>
</a>
</g>
</g>
<!-- Node12&#45;&gt;Node19 -->
<g id="edge23" class="edge">
<title>Node12&#45;&gt;Node19</title>
<path fill="none" stroke="#9a32cd" stroke-dasharray="5,2" d="M69.89,-138C92.22,-117.01 133.59,-80.93 175,-59.51 182.2,-55.79 190.26,-52.67 198.14,-50.1"/>
<polygon fill="#9a32cd" stroke="#9a32cd" points="67.38,-135.56 62.56,-145 72.21,-140.62 67.38,-135.56"/>
<text text-anchor="middle" x="139.5" y="-94.51" font-family="Helvetica,sans-Serif" font-size="10.00"> id</text>
</g>
<!-- Node21 -->
<g id="node21" class="node">
<title>Node21</title>
<g id="a_node21"><a xlink:href="structdpp_1_1utility_1_1iconhash.html" target="_top" xlink:title="Store a 128 bit icon hash (profile picture, server icon etc) as a 128 bit binary value made of two ui...">
<polygon fill="none" stroke="black" points="180,-145.01 180,-164.01 298,-164.01 298,-145.01 180,-145.01"/>
<text text-anchor="middle" x="239" y="-152.01" font-family="Helvetica,sans-Serif" font-size="10.00">dpp::utility::iconhash</text>
</a>
</g>
</g>
<!-- Node12&#45;&gt;Node21 -->
<g id="edge27" class="edge">
<title>Node12&#45;&gt;Node21</title>
<path fill="none" stroke="#9a32cd" stroke-dasharray="5,2" d="M90.37,-154.51C116.08,-154.51 150.72,-154.51 179.99,-154.51"/>
<polygon fill="#9a32cd" stroke="#9a32cd" points="90.3,-151.01 80.3,-154.51 90.3,-158.01 90.3,-151.01"/>
<text text-anchor="middle" x="139.5" y="-168.51" font-family="Helvetica,sans-Serif" font-size="10.00"> first</text>
<text text-anchor="middle" x="139.5" y="-157.51" font-family="Helvetica,sans-Serif" font-size="10.00">second</text>
</g>
<!-- Node12&#45;&gt;Node29 -->
<g id="edge44" class="edge">
<title>Node12&#45;&gt;Node29</title>
<path fill="none" stroke="#9a32cd" stroke-dasharray="5,2" d="M61.42,-173.74C77.79,-208.65 117.42,-282.11 175,-317.51 226.32,-349.07 401.15,-320.23 442,-364.51 471.05,-396.01 433.09,-523.16 460,-556.51 463.09,-560.34 466.94,-563.41 471.2,-565.87"/>
<polygon fill="#9a32cd" stroke="#9a32cd" points="64.42,-171.88 57.09,-164.23 58.05,-174.78 64.42,-171.88"/>
<text text-anchor="middle" x="239" y="-350.51" font-family="Helvetica,sans-Serif" font-size="10.00"> thread_id</text>
<text text-anchor="middle" x="239" y="-339.51" font-family="Helvetica,sans-Serif" font-size="10.00">user_id</text>
</g>
<!-- Node13 -->
<g id="node13" class="node">
<title>Node13</title>
<g id="a_node13"><a xlink:title=" ">
<polygon fill="none" stroke="#bfbfbf" points="206.5,-461.01 206.5,-480.01 271.5,-480.01 271.5,-461.01 206.5,-461.01"/>
<text text-anchor="middle" x="239" y="-468.01" font-family="Helvetica,sans-Serif" font-size="10.00">function&lt;</text>
</a>
</g>
</g>
<!-- Node13&#45;&gt;Node7 -->
<g id="edge13" class="edge">
<title>Node13&#45;&gt;Node7</title>
<path fill="none" stroke="#9a32cd" stroke-dasharray="5,2" d="M250.79,-488.89C270.47,-522.19 311.09,-589.8 321,-597.51 365.7,-632.29 398.87,-600.8 442,-637.51 488.49,-677.09 510.92,-751.38 517.7,-777.84"/>
<polygon fill="#9a32cd" stroke="#9a32cd" points="253.71,-486.96 245.62,-480.12 247.68,-490.51 253.71,-486.96"/>
<text text-anchor="middle" x="381.5" y="-673.51" font-family="Helvetica,sans-Serif" font-size="10.00"> custom_readable_fd</text>
<text text-anchor="middle" x="381.5" y="-662.51" font-family="Helvetica,sans-Serif" font-size="10.00">custom_readable_ready</text>
<text text-anchor="middle" x="381.5" y="-651.51" font-family="Helvetica,sans-Serif" font-size="10.00">custom_writeable_fd</text>
<text text-anchor="middle" x="381.5" y="-640.51" font-family="Helvetica,sans-Serif" font-size="10.00">custom_writeable_ready</text>
</g>
<!-- Node17 -->
<g id="node17" class="node">
<title>Node17</title>
<g id="a_node17"><a xlink:href="classdpp_1_1dispatcher.html" target="_top" xlink:title="The dispatcher class contains a set of std::functions representing hooked events that the user code i...">
<polygon fill="none" stroke="black" points="475,-391.01 475,-410.01 567,-410.01 567,-391.01 475,-391.01"/>
<text text-anchor="middle" x="521" y="-398.01" font-family="Helvetica,sans-Serif" font-size="10.00">dpp::dispatcher</text>
</a>
</g>
</g>
<!-- Node13&#45;&gt;Node17 -->
<g id="edge20" class="edge">
<title>Node13&#45;&gt;Node17</title>
<path fill="none" stroke="#9a32cd" stroke-dasharray="5,2" d="M250.06,-452.07C263.13,-430.27 288.21,-395.11 321,-380.51 380,-354.24 458.32,-376.7 496.73,-390.95"/>
<polygon fill="#9a32cd" stroke="#9a32cd" points="247.01,-450.35 245.06,-460.76 253.08,-453.84 247.01,-450.35"/>
<text text-anchor="start" x="325.5" y="-526.51" font-family="Helvetica,sans-Serif" font-size="10.00"> application_command</text>
<text text-anchor="middle" x="381.5" y="-515.51" font-family="Helvetica,sans-Serif" font-size="10.00">_create</text>
<text text-anchor="start" x="325.5" y="-504.51" font-family="Helvetica,sans-Serif" font-size="10.00">application_command</text>
<text text-anchor="middle" x="381.5" y="-493.51" font-family="Helvetica,sans-Serif" font-size="10.00">_delete</text>
<text text-anchor="start" x="325.5" y="-482.51" font-family="Helvetica,sans-Serif" font-size="10.00">application_command</text>
<text text-anchor="middle" x="381.5" y="-471.51" font-family="Helvetica,sans-Serif" font-size="10.00">_update</text>
<text text-anchor="middle" x="381.5" y="-460.51" font-family="Helvetica,sans-Serif" font-size="10.00">button_click</text>
<text text-anchor="middle" x="381.5" y="-449.51" font-family="Helvetica,sans-Serif" font-size="10.00">channel_create</text>
<text text-anchor="middle" x="381.5" y="-438.51" font-family="Helvetica,sans-Serif" font-size="10.00">channel_delete</text>
<text text-anchor="middle" x="381.5" y="-427.51" font-family="Helvetica,sans-Serif" font-size="10.00">channel_pins_update</text>
<text text-anchor="middle" x="381.5" y="-416.51" font-family="Helvetica,sans-Serif" font-size="10.00">channel_update</text>
<text text-anchor="middle" x="381.5" y="-405.51" font-family="Helvetica,sans-Serif" font-size="10.00">guild_ban_add</text>
<text text-anchor="middle" x="381.5" y="-394.51" font-family="Helvetica,sans-Serif" font-size="10.00">guild_ban_remove</text>
<text text-anchor="middle" x="381.5" y="-383.51" font-family="Helvetica,sans-Serif" font-size="10.00">...</text>
</g>
<!-- Node14&#45;&gt;Node5 -->
<g id="edge14" class="edge">
<title>Node14&#45;&gt;Node5</title>
<path fill="none" stroke="#9a32cd" stroke-dasharray="5,2" d="M802.43,-436.84C860.49,-467.74 996.12,-539.92 1045.02,-565.94"/>
<polygon fill="#9a32cd" stroke="#9a32cd" points="803.96,-433.69 793.48,-432.08 800.67,-439.87 803.96,-433.69"/>
<text text-anchor="middle" x="923.5" y="-537.51" font-family="Helvetica,sans-Serif" font-size="10.00"> creator</text>
</g>
<!-- Node15 -->
<g id="node15" class="node">
<title>Node15</title>
<g id="a_node15"><a xlink:title=" ">
<polygon fill="none" stroke="#bfbfbf" points="211,-210.01 211,-229.01 267,-229.01 267,-210.01 211,-210.01"/>
<text text-anchor="middle" x="239" y="-217.01" font-family="Helvetica,sans-Serif" font-size="10.00">uint32_t</text>
</a>
</g>
</g>
<!-- Node15&#45;&gt;Node5 -->
<g id="edge33" class="edge">
<title>Node15&#45;&gt;Node5</title>
<path fill="none" stroke="#9a32cd" stroke-dasharray="5,2" d="M277.11,-214.57C371.42,-202.58 618.13,-174.98 694,-203.51 888.14,-276.51 1029.16,-514.56 1057.69,-565.75"/>
<polygon fill="#9a32cd" stroke="#9a32cd" points="276.64,-211.1 267.17,-215.85 277.53,-218.04 276.64,-211.1"/>
<text text-anchor="middle" x="647" y="-261.51" font-family="Helvetica,sans-Serif" font-size="10.00"> heartbeat_interval</text>
<text text-anchor="middle" x="647" y="-250.51" font-family="Helvetica,sans-Serif" font-size="10.00">intents</text>
<text text-anchor="middle" x="647" y="-239.51" font-family="Helvetica,sans-Serif" font-size="10.00">max_shards</text>
<text text-anchor="middle" x="647" y="-228.51" font-family="Helvetica,sans-Serif" font-size="10.00">reconnects</text>
<text text-anchor="middle" x="647" y="-217.51" font-family="Helvetica,sans-Serif" font-size="10.00">resumes</text>
<text text-anchor="middle" x="647" y="-206.51" font-family="Helvetica,sans-Serif" font-size="10.00">shard_id</text>
</g>
<!-- Node15&#45;&gt;Node14 -->
<g id="edge17" class="edge">
<title>Node15&#45;&gt;Node14</title>
<path fill="none" stroke="#9a32cd" stroke-dasharray="5,2" d="M277.17,-221.89C318.03,-225.06 385.38,-231.93 442,-245.51 506.25,-260.93 534.59,-249.5 582,-295.51 597.75,-310.8 583.84,-326.65 600,-341.51 632.08,-371.02 654.54,-350.99 694,-369.51 719.68,-381.56 746.52,-401.16 761.52,-412.85"/>
<polygon fill="#9a32cd" stroke="#9a32cd" points="277.36,-218.4 267.13,-221.15 276.84,-225.38 277.36,-218.4"/>
<text text-anchor="middle" x="521" y="-331.51" font-family="Helvetica,sans-Serif" font-size="10.00"> cluster_id</text>
<text text-anchor="middle" x="521" y="-320.51" font-family="Helvetica,sans-Serif" font-size="10.00">intents</text>
<text text-anchor="middle" x="521" y="-309.51" font-family="Helvetica,sans-Serif" font-size="10.00">maxclusters</text>
<text text-anchor="middle" x="521" y="-298.51" font-family="Helvetica,sans-Serif" font-size="10.00">numshards</text>
</g>
<!-- Node15&#45;&gt;Node18 -->
<g id="edge28" class="edge">
<title>Node15&#45;&gt;Node18</title>
<path fill="none" stroke="#9a32cd" stroke-dasharray="5,2" d="M264.74,-204.94C280.33,-196.52 301.19,-186.61 321,-181.51 379.34,-166.49 450.31,-165.89 489.78,-167.04"/>
<polygon fill="#9a32cd" stroke="#9a32cd" points="262.81,-202.01 255.77,-209.93 266.21,-208.12 262.81,-202.01"/>
<text text-anchor="middle" x="381.5" y="-184.51" font-family="Helvetica,sans-Serif" font-size="10.00"> flags</text>
</g>
<!-- Node15&#45;&gt;Node29 -->
<g id="edge46" class="edge">
<title>Node15&#45;&gt;Node29</title>
<path fill="none" stroke="#9a32cd" stroke-dasharray="5,2" d="M276.84,-230.72C290.62,-234.71 306.46,-239.07 321,-242.51 374.27,-255.11 405.81,-224.44 442,-265.51 484.84,-314.12 420.13,-505.45 460,-556.51 463.03,-560.39 466.84,-563.49 471.08,-565.96"/>
<polygon fill="#9a32cd" stroke="#9a32cd" points="277.79,-227.35 267.21,-227.89 275.82,-234.07 277.79,-227.35"/>
<text text-anchor="middle" x="381.5" y="-268.51" font-family="Helvetica,sans-Serif" font-size="10.00"> flags</text>
</g>
<!-- Node16 -->
<g id="node16" class="node">
<title>Node16</title>
<g id="a_node16"><a xlink:title=" ">
<polygon fill="none" stroke="#bfbfbf" points="496,-121.01 496,-140.01 546,-140.01 546,-121.01 496,-121.01"/>
<text text-anchor="middle" x="521" y="-128.01" font-family="Helvetica,sans-Serif" font-size="10.00">double</text>
</a>
</g>
</g>
<!-- Node16&#45;&gt;Node5 -->
<g id="edge39" class="edge">
<title>Node16&#45;&gt;Node5</title>
<path fill="none" stroke="#9a32cd" stroke-dasharray="5,2" d="M556.43,-132.74C659.5,-139.72 960.4,-162.52 992,-192.51 1048.28,-245.93 1060.71,-511.38 1062.68,-565.77"/>
<polygon fill="#9a32cd" stroke="#9a32cd" points="556.46,-129.23 546.25,-132.06 556,-136.22 556.46,-129.23"/>
<text text-anchor="middle" x="774.5" y="-161.51" font-family="Helvetica,sans-Serif" font-size="10.00"> websocket_ping</text>
</g>
<!-- Node16&#45;&gt;Node14 -->
<g id="edge18" class="edge">
<title>Node16&#45;&gt;Node14</title>
<path fill="none" stroke="#9a32cd" stroke-dasharray="5,2" d="M556.07,-134.41C565.75,-137.16 575.44,-141.79 582,-149.51 618.05,-191.96 562.14,-232.67 600,-273.51 629.1,-304.9 659.1,-269.73 694,-294.51 737.73,-325.56 762.4,-388.96 770.5,-412.99"/>
<polygon fill="#9a32cd" stroke="#9a32cd" points="556.63,-130.95 546.11,-132.17 555.09,-137.78 556.63,-130.95"/>
<text text-anchor="middle" x="647" y="-297.51" font-family="Helvetica,sans-Serif" font-size="10.00"> rest_ping</text>
</g>
<!-- Node17&#45;&gt;Node14 -->
<g id="edge19" class="edge">
<title>Node17&#45;&gt;Node14</title>
<path fill="none" stroke="#9a32cd" stroke-dasharray="5,2" d="M577.3,-405.35C625.91,-409.6 695.26,-415.67 737.17,-419.33"/>
<polygon fill="#9a32cd" stroke="#9a32cd" points="577.52,-401.86 567.25,-404.47 576.91,-408.83 577.52,-401.86"/>
<text text-anchor="middle" x="647" y="-418.51" font-family="Helvetica,sans-Serif" font-size="10.00"> dispatch</text>
</g>
<!-- Node18&#45;&gt;Node14 -->
<g id="edge21" class="edge">
<title>Node18&#45;&gt;Node14</title>
<path fill="none" stroke="#9a32cd" stroke-dasharray="5,2" d="M536.17,-186.3C549.37,-203.49 568.91,-230.67 582,-256.51 592.86,-277.96 582.18,-291.38 600,-307.51 631.89,-336.38 657.31,-308.07 694,-330.51 729.11,-351.99 756.86,-394.13 768.09,-412.99"/>
<polygon fill="#9a32cd" stroke="#9a32cd" points="538.83,-184.01 529.92,-178.28 533.31,-188.32 538.83,-184.01"/>
<text text-anchor="middle" x="647" y="-333.51" font-family="Helvetica,sans-Serif" font-size="10.00"> me</text>
</g>
<!-- Node19&#45;&gt;Node18 -->
<g id="edge22" class="edge">
<title>Node19&#45;&gt;Node18</title>
<path fill="none" stroke="midnightblue" d="M292.01,-30.11C337.32,-24.27 401.9,-24.26 442,-60.51 471.94,-87.57 433.03,-119.49 460,-149.51 467.59,-157.97 478.92,-162.69 489.69,-165.31"/>
<polygon fill="midnightblue" stroke="midnightblue" points="291.48,-26.65 282.07,-31.52 292.47,-33.58 291.48,-26.65"/>
</g>
<!-- Node20 -->
<g id="node20" class="node">
<title>Node20</title>
<g id="a_node20"><a xlink:title=" ">
<polygon fill="none" stroke="#bfbfbf" points="211,-107.01 211,-126.01 267,-126.01 267,-107.01 211,-107.01"/>
<text text-anchor="middle" x="239" y="-114.01" font-family="Helvetica,sans-Serif" font-size="10.00">uint16_t</text>
</a>
</g>
</g>
<!-- Node20&#45;&gt;Node18 -->
<g id="edge25" class="edge">
<title>Node20&#45;&gt;Node18</title>
<path fill="none" stroke="#9a32cd" stroke-dasharray="5,2" d="M277.22,-110.84C319.43,-106.19 389.23,-103.95 442,-129.51 452.76,-134.73 449.95,-143.04 460,-149.51 469,-155.31 479.9,-159.45 489.93,-162.36"/>
<polygon fill="#9a32cd" stroke="#9a32cd" points="276.62,-107.39 267.11,-112.07 277.46,-114.34 276.62,-107.39"/>
<text text-anchor="middle" x="381.5" y="-132.51" font-family="Helvetica,sans-Serif" font-size="10.00"> discriminator</text>
</g>
<!-- Node21&#45;&gt;Node18 -->
<g id="edge26" class="edge">
<title>Node21&#45;&gt;Node18</title>
<path fill="none" stroke="#9a32cd" stroke-dasharray="5,2" d="M308.15,-146.55C347.44,-143.36 397.68,-141.65 442,-147.51 458.82,-149.74 477.17,-154.55 491.84,-159.01"/>
<polygon fill="#9a32cd" stroke="#9a32cd" points="307.81,-143.07 298.15,-147.41 308.41,-150.04 307.81,-143.07"/>
<text text-anchor="middle" x="381.5" y="-150.51" font-family="Helvetica,sans-Serif" font-size="10.00"> avatar</text>
</g>
<!-- Node22 -->
<g id="node22" class="node">
<title>Node22</title>
<g id="a_node22"><a xlink:title=" ">
<polygon fill="none" stroke="#bfbfbf" points="214,-69.01 214,-88.01 264,-88.01 264,-69.01 214,-69.01"/>
<text text-anchor="middle" x="239" y="-76.01" font-family="Helvetica,sans-Serif" font-size="10.00">uint8_t</text>
</a>
</g>
</g>
<!-- Node22&#45;&gt;Node18 -->
<g id="edge29" class="edge">
<title>Node22&#45;&gt;Node18</title>
<path fill="none" stroke="#9a32cd" stroke-dasharray="5,2" d="M274.07,-70.5C317.84,-62.34 393.91,-55.65 442,-93.51 462.54,-109.68 441.47,-131.07 460,-149.51 467.98,-157.45 479.25,-162.08 489.87,-164.77"/>
<polygon fill="#9a32cd" stroke="#9a32cd" points="273.31,-67.08 264.19,-72.47 274.68,-73.94 273.31,-67.08"/>
<text text-anchor="middle" x="381.5" y="-96.51" font-family="Helvetica,sans-Serif" font-size="10.00"> refcount</text>
</g>
<!-- Node23 -->
<g id="node23" class="node">
<title>Node23</title>
<g id="a_node23"><a xlink:href="structdpp_1_1cache__policy__t.html" target="_top" xlink:title="Represents the caching policy of the cluster.">
<polygon fill="none" stroke="black" points="464.5,-349.01 464.5,-368.01 577.5,-368.01 577.5,-349.01 464.5,-349.01"/>
<text text-anchor="middle" x="521" y="-356.01" font-family="Helvetica,sans-Serif" font-size="10.00">dpp::cache_policy_t</text>
</a>
</g>
</g>
<!-- Node23&#45;&gt;Node14 -->
<g id="edge30" class="edge">
<title>Node23&#45;&gt;Node14</title>
<path fill="none" stroke="#9a32cd" stroke-dasharray="5,2" d="M588.09,-369.58C620.31,-375.57 659.47,-383.76 694,-393.51 713.23,-398.94 734.46,-406.79 750.15,-412.95"/>
<polygon fill="#9a32cd" stroke="#9a32cd" points="588.36,-366.07 577.89,-367.71 587.09,-372.95 588.36,-366.07"/>
<text text-anchor="middle" x="647" y="-396.51" font-family="Helvetica,sans-Serif" font-size="10.00"> cache_policy</text>
</g>
<!-- Node24 -->
<g id="node24" class="node">
<title>Node24</title>
<g id="a_node24"><a xlink:title=" ">
<polygon fill="none" stroke="#bfbfbf" points="175,-289.01 175,-308.01 303,-308.01 303,-289.01 175,-289.01"/>
<text text-anchor="middle" x="239" y="-296.01" font-family="Helvetica,sans-Serif" font-size="10.00">cache_policy_setting_t</text>
</a>
</g>
</g>
<!-- Node24&#45;&gt;Node23 -->
<g id="edge31" class="edge">
<title>Node24&#45;&gt;Node23</title>
<path fill="none" stroke="#9a32cd" stroke-dasharray="5,2" d="M286.34,-286.98C329.36,-278.88 393.83,-273.58 442,-299.51 454.7,-306.35 449.31,-316.83 460,-326.51 470.41,-335.95 484.11,-343.53 495.78,-348.93"/>
<polygon fill="#9a32cd" stroke="#9a32cd" points="285.55,-283.57 276.43,-288.96 286.92,-290.43 285.55,-283.57"/>
<text text-anchor="middle" x="381.5" y="-324.51" font-family="Helvetica,sans-Serif" font-size="10.00"> emoji_policy</text>
<text text-anchor="middle" x="381.5" y="-313.51" font-family="Helvetica,sans-Serif" font-size="10.00">role_policy</text>
<text text-anchor="middle" x="381.5" y="-302.51" font-family="Helvetica,sans-Serif" font-size="10.00">user_policy</text>
</g>
<!-- Node25 -->
<g id="node25" class="node">
<title>Node25</title>
<g id="a_node25"><a xlink:title=" ">
<polygon fill="none" stroke="#bfbfbf" points="460,-528.01 460,-547.01 582,-547.01 582,-528.01 460,-528.01"/>
<text text-anchor="middle" x="521" y="-535.01" font-family="Helvetica,sans-Serif" font-size="10.00">websocket_protocol_t</text>
</a>
</g>
</g>
<!-- Node25&#45;&gt;Node5 -->
<g id="edge41" class="edge">
<title>Node25&#45;&gt;Node5</title>
<path fill="none" stroke="#9a32cd" stroke-dasharray="5,2" d="M592.23,-543.89C594.85,-544.1 597.45,-544.31 600,-544.51 748.38,-556.14 923.74,-567.13 1009.85,-572.35"/>
<polygon fill="#9a32cd" stroke="#9a32cd" points="592.29,-540.38 582.03,-543.04 591.71,-547.36 592.29,-540.38"/>
<text text-anchor="middle" x="774.5" y="-564.51" font-family="Helvetica,sans-Serif" font-size="10.00"> protocol</text>
</g>
<!-- Node25&#45;&gt;Node14 -->
<g id="edge32" class="edge">
<title>Node25&#45;&gt;Node14</title>
<path fill="none" stroke="#9a32cd" stroke-dasharray="5,2" d="M592.42,-530.28C631.86,-525.33 676.54,-517.96 694,-508.51 728.52,-489.84 756.17,-450.44 767.7,-432.18"/>
<polygon fill="#9a32cd" stroke="#9a32cd" points="591.76,-526.84 582.26,-531.52 592.61,-533.78 591.76,-526.84"/>
<text text-anchor="middle" x="647" y="-532.51" font-family="Helvetica,sans-Serif" font-size="10.00"> ws_mode</text>
</g>
<!-- Node26 -->
<g id="node26" class="node">
<title>Node26</title>
<g id="a_node26"><a xlink:title=" ">
<polygon fill="none" stroke="#bfbfbf" points="718,-112.01 718,-131.01 831,-131.01 831,-112.01 718,-112.01"/>
<text text-anchor="middle" x="774.5" y="-119.01" font-family="Helvetica,sans-Serif" font-size="10.00">native_handle_type</text>
</a>
</g>
</g>
<!-- Node26&#45;&gt;Node5 -->
<g id="edge35" class="edge">
<title>Node26&#45;&gt;Node5</title>
<path fill="none" stroke="#9a32cd" stroke-dasharray="5,2" d="M827.88,-110.37C876.81,-103.28 948.63,-101.91 992,-142.51 1056.23,-202.65 1062.35,-506.82 1062.94,-565.65"/>
<polygon fill="#9a32cd" stroke="#9a32cd" points="827.14,-106.94 817.81,-111.95 828.23,-113.86 827.14,-106.94"/>
<text text-anchor="middle" x="923.5" y="-145.51" font-family="Helvetica,sans-Serif" font-size="10.00"> thread_id</text>
</g>
<!-- Node27 -->
<g id="node27" class="node">
<title>Node27</title>
<g id="a_node27"><a xlink:title=" ">
<polygon fill="none" stroke="#bfbfbf" points="740,-74.01 740,-93.01 809,-93.01 809,-74.01 740,-74.01"/>
<text text-anchor="middle" x="774.5" y="-81.01" font-family="Helvetica,sans-Serif" font-size="10.00">std::mutex</text>
</a>
</g>
</g>
<!-- Node27&#45;&gt;Node5 -->
<g id="edge38" class="edge">
<title>Node27&#45;&gt;Node5</title>
<path fill="none" stroke="#9a32cd" stroke-dasharray="5,2" d="M815.15,-71.44C863.31,-59.47 944.03,-48.49 992,-91.51 1065.5,-157.43 1064.06,-502.83 1063.17,-565.69"/>
<polygon fill="#9a32cd" stroke="#9a32cd" points="814.18,-68.07 805.39,-73.99 815.95,-74.84 814.18,-68.07"/>
<text text-anchor="middle" x="923.5" y="-94.51" font-family="Helvetica,sans-Serif" font-size="10.00"> voice_mutex</text>
</g>
<!-- Node28 -->
<g id="node28" class="node">
<title>Node28</title>
<g id="a_node28"><a xlink:title=" ">
<polygon fill="none" stroke="#bfbfbf" points="724,-916.01 724,-935.01 825,-935.01 825,-916.01 724,-916.01"/>
<text text-anchor="middle" x="774.5" y="-923.01" font-family="Helvetica,sans-Serif" font-size="10.00">unordered_map&lt;</text>
</a>
</g>
</g>
<!-- Node28&#45;&gt;Node5 -->
<g id="edge42" class="edge">
<title>Node28&#45;&gt;Node5</title>
<path fill="none" stroke="#9a32cd" stroke-dasharray="5,2" d="M835.05,-936.17C883.33,-941.18 950.03,-939.32 992,-901.51 1040.95,-857.41 1058.97,-634.24 1062.38,-585.09"/>
<polygon fill="#9a32cd" stroke="#9a32cd" points="835.38,-932.68 825.04,-935.01 834.57,-939.64 835.38,-932.68"/>
<text text-anchor="middle" x="923.5" y="-941.51" font-family="Helvetica,sans-Serif" font-size="10.00"> connecting_voice_channels</text>
</g>
<!-- Node29&#45;&gt;Node1 -->
<g id="edge43" class="edge">
<title>Node29&#45;&gt;Node1</title>
<path fill="none" stroke="#9a32cd" stroke-dasharray="5,2" d="M534.7,-593.62C566,-639.01 647.69,-762.16 694,-875.51 705.99,-904.85 689.69,-922 712,-944.51 780.22,-1013.36 825.58,-1001.51 922.5,-1001.51 922.5,-1001.51 922.5,-1001.51 1244,-1001.51 1276.57,-1001.51 1312.68,-997.41 1341.99,-993.01"/>
<polygon fill="#9a32cd" stroke="#9a32cd" points="537.55,-591.59 528.97,-585.37 531.8,-595.58 537.55,-591.59"/>
<text text-anchor="middle" x="1064" y="-1004.51" font-family="Helvetica,sans-Serif" font-size="10.00"> updated</text>
</g>
</g>
</svg>
