<?xml version="1.0" encoding="UTF-8" standalone="no"?>
<!DOCTYPE svg PUBLIC "-//W3C//DTD SVG 1.1//EN"
 "http://www.w3.org/Graphics/SVG/1.1/DTD/svg11.dtd">
<!-- Generated by graphviz version 2.43.0 (0)
 -->
<!-- Title: dpp::guild_join_request_delete_t Pages: 1 -->
<!--zoomable 1065 -->
<svg id="main" version="1.1" xmlns="http://www.w3.org/2000/svg" xmlns:xlink="http://www.w3.org/1999/xlink" xml:space="preserve" onload="init(evt)">
<style type="text/css"><![CDATA[
.edge:hover path { stroke: red; }
.edge:hover polygon { stroke: red; fill: red; }
]]></style>
<script type="text/javascript"><![CDATA[
var edges = document.getElementsByTagName('g');
if (edges && edges.length) {
  for (var i=0;i<edges.length;i++) {
    if (edges[i].id.substr(0,4)=='edge') {
      edges[i].setAttribute('class','edge');
    }
  }
}
]]></script>
        <defs>
                <circle id="rim" cx="0" cy="0" r="7"/>
                <circle id="rim2" cx="0" cy="0" r="3.5"/>
                <g id="zoomPlus">
                        <use xlink:href="#rim" fill="#404040">
                                <set attributeName="fill" to="#808080" begin="zoomplus.mouseover" end="zoomplus.mouseout"/>
                        </use>
                        <path d="M-4,0h8M0,-4v8" fill="none" stroke="white" stroke-width="1.5" pointer-events="none"/>
                </g>
                <g id="zoomMin">
                        <use xlink:href="#rim" fill="#404040">
                                <set attributeName="fill" to="#808080" begin="zoomminus.mouseover" end="zoomminus.mouseout"/>
                        </use>
                        <path d="M-4,0h8" fill="none" stroke="white" stroke-width="1.5" pointer-events="none"/>
                </g>
                <g id="dirArrow">
                        <path fill="none" stroke="white" stroke-width="1.5" d="M0,-3.0v7 M-2.5,-0.5L0,-3.0L2.5,-0.5"/>
                </g>
               <g id="resetDef">
                       <use xlink:href="#rim2" fill="#404040">
                               <set attributeName="fill" to="#808080" begin="reset.mouseover" end="reset.mouseout"/>
                       </use>
               </g>
        </defs>

<script type="text/javascript">
var viewWidth = 1480;
var viewHeight = 1065;
var sectionId = 'dynsection-1';
</script>
<script xlink:href="svgpan.js"/>
<svg id="graph" class="graph">
<g id="viewport">
<title>dpp::guild_join_request_delete_t</title>
<!-- Node1 -->
<g id="node1" class="node">
<title>Node1</title>
<g id="a_node1"><a xlink:title="Guild join request delete (user declined membership screening)">
<polygon fill="#bfbfbf" stroke="black" points="1342,-101 1342,-131 1472,-131 1472,-101 1342,-101"/>
<text text-anchor="start" x="1350" y="-119" font-family="Helvetica,sans-Serif" font-size="10.00">dpp::guild_join_request</text>
<text text-anchor="middle" x="1407" y="-108" font-family="Helvetica,sans-Serif" font-size="10.00">_delete_t</text>
</a>
</g>
</g>
<!-- Node2 -->
<g id="node2" class="node">
<title>Node2</title>
<g id="a_node2"><a xlink:href="structdpp_1_1event__dispatch__t.html" target="_top" xlink:title="Base event parameter struct.">
<polygon fill="none" stroke="black" points="1181,-461.5 1181,-480.5 1305,-480.5 1305,-461.5 1181,-461.5"/>
<text text-anchor="middle" x="1243" y="-468.5" font-family="Helvetica,sans-Serif" font-size="10.00">dpp::event_dispatch_t</text>
</a>
</g>
</g>
<!-- Node2&#45;&gt;Node1 -->
<g id="edge1" class="edge">
<title>Node2&#45;&gt;Node1</title>
<path fill="none" stroke="midnightblue" d="M1252.7,-451.94C1281.44,-388.95 1373.05,-188.21 1399.05,-131.22"/>
<polygon fill="midnightblue" stroke="midnightblue" points="1249.47,-450.58 1248.5,-461.13 1255.84,-453.49 1249.47,-450.58"/>
</g>
<!-- Node3 -->
<g id="node3" class="node">
<title>Node3</title>
<g id="a_node3"><a xlink:title=" ">
<polygon fill="none" stroke="#bfbfbf" points="206.5,-906.5 206.5,-925.5 271.5,-925.5 271.5,-906.5 206.5,-906.5"/>
<text text-anchor="middle" x="239" y="-913.5" font-family="Helvetica,sans-Serif" font-size="10.00">std::string</text>
</a>
</g>
</g>
<!-- Node3&#45;&gt;Node2 -->
<g id="edge2" class="edge">
<title>Node3&#45;&gt;Node2</title>
<path fill="none" stroke="#9a32cd" stroke-dasharray="5,2" d="M268.49,-929.8C374.07,-978.78 749.41,-1133.38 992,-982 1185.97,-860.96 1233.57,-540.96 1240.9,-480.82"/>
<polygon fill="#9a32cd" stroke="#9a32cd" points="269.95,-926.62 259.41,-925.54 266.97,-932.95 269.95,-926.62"/>
<text text-anchor="middle" x="774.5" y="-1049" font-family="Helvetica,sans-Serif" font-size="10.00"> raw_event</text>
</g>
<!-- Node5 -->
<g id="node5" class="node">
<title>Node5</title>
<g id="a_node5"><a xlink:href="classdpp_1_1discord__client.html" target="_top" xlink:title="Implements a discord client. Each discord_client connects to one shard and derives from a websocket c...">
<polygon fill="none" stroke="black" points="1010,-461.5 1010,-480.5 1118,-480.5 1118,-461.5 1010,-461.5"/>
<text text-anchor="middle" x="1064" y="-468.5" font-family="Helvetica,sans-Serif" font-size="10.00">dpp::discord_client</text>
</a>
</g>
</g>
<!-- Node3&#45;&gt;Node5 -->
<g id="edge37" class="edge">
<title>Node3&#45;&gt;Node5</title>
<path fill="none" stroke="#9a32cd" stroke-dasharray="5,2" d="M282,-922.8C294.51,-924.53 308.28,-926.14 321,-927 437.45,-934.87 473.66,-941.42 582,-898 781.41,-818.08 853.1,-805.88 992,-642 1035.65,-590.5 1055.46,-508.43 1061.17,-480.59"/>
<polygon fill="#9a32cd" stroke="#9a32cd" points="282.23,-919.3 271.83,-921.33 281.23,-926.23 282.23,-919.3"/>
<text text-anchor="middle" x="647" y="-905" font-family="Helvetica,sans-Serif" font-size="10.00"> sessionid</text>
<text text-anchor="middle" x="647" y="-894" font-family="Helvetica,sans-Serif" font-size="10.00">token</text>
</g>
<!-- Node7 -->
<g id="node7" class="node">
<title>Node7</title>
<g id="a_node7"><a xlink:href="classdpp_1_1ssl__client.html" target="_top" xlink:title="Implements a simple non&#45;blocking SSL stream client.">
<polygon fill="none" stroke="black" points="478,-717.5 478,-736.5 564,-736.5 564,-717.5 478,-717.5"/>
<text text-anchor="middle" x="521" y="-724.5" font-family="Helvetica,sans-Serif" font-size="10.00">dpp::ssl_client</text>
</a>
</g>
</g>
<!-- Node3&#45;&gt;Node7 -->
<g id="edge7" class="edge">
<title>Node3&#45;&gt;Node7</title>
<path fill="none" stroke="#9a32cd" stroke-dasharray="5,2" d="M249.17,-897.45C261.87,-873.81 287.15,-833.57 321,-813 367.78,-784.57 392.33,-813 442,-790 470.43,-776.84 497.44,-751.04 510.98,-736.88"/>
<polygon fill="#9a32cd" stroke="#9a32cd" points="246,-895.96 244.51,-906.45 252.21,-899.18 246,-895.96"/>
<text text-anchor="middle" x="381.5" y="-860" font-family="Helvetica,sans-Serif" font-size="10.00"> buffer</text>
<text text-anchor="middle" x="381.5" y="-849" font-family="Helvetica,sans-Serif" font-size="10.00">cipher</text>
<text text-anchor="middle" x="381.5" y="-838" font-family="Helvetica,sans-Serif" font-size="10.00">hostname</text>
<text text-anchor="middle" x="381.5" y="-827" font-family="Helvetica,sans-Serif" font-size="10.00">obuffer</text>
<text text-anchor="middle" x="381.5" y="-816" font-family="Helvetica,sans-Serif" font-size="10.00">port</text>
</g>
<!-- Node14 -->
<g id="node14" class="node">
<title>Node14</title>
<g id="a_node14"><a xlink:href="classdpp_1_1cluster.html" target="_top" xlink:title="The cluster class represents a group of shards and a command queue for sending and receiving commands...">
<polygon fill="none" stroke="black" points="737.5,-372.5 737.5,-391.5 811.5,-391.5 811.5,-372.5 737.5,-372.5"/>
<text text-anchor="middle" x="774.5" y="-379.5" font-family="Helvetica,sans-Serif" font-size="10.00">dpp::cluster</text>
</a>
</g>
</g>
<!-- Node3&#45;&gt;Node14 -->
<g id="edge15" class="edge">
<title>Node3&#45;&gt;Node14</title>
<path fill="none" stroke="#9a32cd" stroke-dasharray="5,2" d="M281.63,-921.89C324.19,-925.97 391.08,-926.87 442,-902 452.46,-896.89 577.3,-756.65 582,-746 614.46,-672.44 563.97,-637.87 600,-566 625.38,-515.38 659.88,-525.19 694,-480 704.78,-465.72 701.57,-458.53 712,-444 726.85,-423.31 748.7,-403.07 761.96,-391.61"/>
<polygon fill="#9a32cd" stroke="#9a32cd" points="281.94,-918.4 271.62,-920.83 281.2,-925.37 281.94,-918.4"/>
<text text-anchor="middle" x="521" y="-888" font-family="Helvetica,sans-Serif" font-size="10.00"> token</text>
</g>
<!-- Node18 -->
<g id="node18" class="node">
<title>Node18</title>
<g id="a_node18"><a xlink:href="classdpp_1_1user.html" target="_top" xlink:title="Represents a user on discord. May or may not be a member of a dpp::guild.">
<polygon fill="none" stroke="black" points="490,-223.5 490,-242.5 552,-242.5 552,-223.5 490,-223.5"/>
<text text-anchor="middle" x="521" y="-230.5" font-family="Helvetica,sans-Serif" font-size="10.00">dpp::user</text>
</a>
</g>
</g>
<!-- Node3&#45;&gt;Node18 -->
<g id="edge24" class="edge">
<title>Node3&#45;&gt;Node18</title>
<path fill="none" stroke="#9a32cd" stroke-dasharray="5,2" d="M252.85,-898.24C267.81,-876.5 291.88,-838.01 303,-801 316.98,-754.45 291.78,-621.85 321,-583 355.59,-537.02 407.68,-583.18 442,-537 475.75,-491.58 434.2,-333.36 460,-283 469.15,-265.14 487.77,-251.22 501.86,-242.65"/>
<polygon fill="#9a32cd" stroke="#9a32cd" points="249.95,-896.28 247.06,-906.47 255.67,-900.31 249.95,-896.28"/>
<text text-anchor="middle" x="381.5" y="-586" font-family="Helvetica,sans-Serif" font-size="10.00"> username</text>
</g>
<!-- Node4 -->
<g id="node4" class="node">
<title>Node4</title>
<g id="a_node4"><a xlink:title=" ">
<polygon fill="none" stroke="#bfbfbf" points="0,-901 0,-931 104,-931 104,-901 0,-901"/>
<text text-anchor="start" x="8" y="-919" font-family="Helvetica,sans-Serif" font-size="10.00">std::basic_string&lt;</text>
<text text-anchor="middle" x="52" y="-908" font-family="Helvetica,sans-Serif" font-size="10.00"> Char &gt;</text>
</a>
</g>
</g>
<!-- Node4&#45;&gt;Node3 -->
<g id="edge3" class="edge">
<title>Node4&#45;&gt;Node3</title>
<path fill="none" stroke="midnightblue" d="M114.26,-916C145.05,-916 181.08,-916 206.29,-916"/>
<polygon fill="midnightblue" stroke="midnightblue" points="114.04,-912.5 104.04,-916 114.04,-919.5 114.04,-912.5"/>
</g>
<!-- Node5&#45;&gt;Node2 -->
<g id="edge4" class="edge">
<title>Node5&#45;&gt;Node2</title>
<path fill="none" stroke="#9a32cd" stroke-dasharray="5,2" d="M1128.52,-471C1145.56,-471 1163.94,-471 1180.85,-471"/>
<polygon fill="#9a32cd" stroke="#9a32cd" points="1128.11,-467.5 1118.11,-471 1128.11,-474.5 1128.11,-467.5"/>
<text text-anchor="middle" x="1149.5" y="-474" font-family="Helvetica,sans-Serif" font-size="10.00"> from</text>
</g>
<!-- Node6 -->
<g id="node6" class="node">
<title>Node6</title>
<g id="a_node6"><a xlink:href="classdpp_1_1websocket__client.html" target="_top" xlink:title="Implements a websocket client based on the SSL client.">
<polygon fill="none" stroke="black" points="712,-659.5 712,-678.5 837,-678.5 837,-659.5 712,-659.5"/>
<text text-anchor="middle" x="774.5" y="-666.5" font-family="Helvetica,sans-Serif" font-size="10.00">dpp::websocket_client</text>
</a>
</g>
</g>
<!-- Node6&#45;&gt;Node5 -->
<g id="edge5" class="edge">
<title>Node6&#45;&gt;Node5</title>
<path fill="none" stroke="midnightblue" d="M847.19,-659.6C892.79,-650.52 950.79,-632.91 992,-599 1032.03,-566.06 1053.35,-504.34 1060.36,-480.62"/>
<polygon fill="midnightblue" stroke="midnightblue" points="846.54,-656.16 837.37,-661.46 847.84,-663.04 846.54,-656.16"/>
</g>
<!-- Node7&#45;&gt;Node6 -->
<g id="edge6" class="edge">
<title>Node7&#45;&gt;Node6</title>
<path fill="none" stroke="midnightblue" d="M573.21,-715.19C620.13,-704.37 688.73,-688.55 732.23,-678.52"/>
<polygon fill="midnightblue" stroke="midnightblue" points="572.21,-711.83 563.25,-717.49 573.78,-718.65 572.21,-711.83"/>
</g>
<!-- Node8 -->
<g id="node8" class="node">
<title>Node8</title>
<g id="a_node8"><a xlink:title=" ">
<polygon fill="none" stroke="#bfbfbf" points="220,-969.5 220,-988.5 258,-988.5 258,-969.5 220,-969.5"/>
<text text-anchor="middle" x="239" y="-976.5" font-family="Helvetica,sans-Serif" font-size="10.00">bool</text>
</a>
</g>
</g>
<!-- Node8&#45;&gt;Node5 -->
<g id="edge40" class="edge">
<title>Node8&#45;&gt;Node5</title>
<path fill="none" stroke="#9a32cd" stroke-dasharray="5,2" d="M268.59,-979.05C341.63,-978.34 540.2,-971.16 694,-917 843.29,-864.43 900.45,-851.12 992,-722 1049.1,-641.47 1060.44,-516.08 1062.55,-480.63"/>
<polygon fill="#9a32cd" stroke="#9a32cd" points="268.33,-975.55 258.35,-979.11 268.37,-982.55 268.33,-975.55"/>
<text text-anchor="middle" x="647" y="-947" font-family="Helvetica,sans-Serif" font-size="10.00"> ready</text>
</g>
<!-- Node8&#45;&gt;Node7 -->
<g id="edge8" class="edge">
<title>Node8&#45;&gt;Node7</title>
<path fill="none" stroke="#9a32cd" stroke-dasharray="5,2" d="M268,-971.75C312.24,-958.78 397.81,-927.24 442,-868 464.57,-837.75 441.64,-817.98 460,-785 471.35,-764.62 492.15,-746.93 506.03,-736.61"/>
<polygon fill="#9a32cd" stroke="#9a32cd" points="266.87,-968.43 258.2,-974.52 268.77,-975.17 266.87,-968.43"/>
<text text-anchor="middle" x="381.5" y="-956" font-family="Helvetica,sans-Serif" font-size="10.00"> nonblocking</text>
</g>
<!-- Node9 -->
<g id="node9" class="node">
<title>Node9</title>
<g id="a_node9"><a xlink:title=" ">
<polygon fill="none" stroke="#bfbfbf" points="224.5,-734.5 224.5,-753.5 253.5,-753.5 253.5,-734.5 224.5,-734.5"/>
<text text-anchor="middle" x="239" y="-741.5" font-family="Helvetica,sans-Serif" font-size="10.00">int</text>
</a>
</g>
</g>
<!-- Node9&#45;&gt;Node7 -->
<g id="edge9" class="edge">
<title>Node9&#45;&gt;Node7</title>
<path fill="none" stroke="#9a32cd" stroke-dasharray="5,2" d="M263.71,-742.56C311.13,-739.68 418.25,-733.18 477.89,-729.56"/>
<polygon fill="#9a32cd" stroke="#9a32cd" points="263.27,-739.08 253.5,-743.18 263.7,-746.07 263.27,-739.08"/>
<text text-anchor="middle" x="381.5" y="-742" font-family="Helvetica,sans-Serif" font-size="10.00"> sfd</text>
</g>
<!-- Node10 -->
<g id="node10" class="node">
<title>Node10</title>
<g id="a_node10"><a xlink:title=" ">
<polygon fill="none" stroke="#bfbfbf" points="189.5,-772.5 189.5,-791.5 288.5,-791.5 288.5,-772.5 189.5,-772.5"/>
<text text-anchor="middle" x="239" y="-779.5" font-family="Helvetica,sans-Serif" font-size="10.00">opensslcontext *</text>
</a>
</g>
</g>
<!-- Node10&#45;&gt;Node7 -->
<g id="edge10" class="edge">
<title>Node10&#45;&gt;Node7</title>
<path fill="none" stroke="#9a32cd" stroke-dasharray="5,2" d="M298.66,-776.93C339.28,-772.68 394.39,-765.42 442,-754 460.53,-749.55 480.86,-742.44 496.12,-736.63"/>
<polygon fill="#9a32cd" stroke="#9a32cd" points="298.25,-773.45 288.66,-777.95 298.96,-780.42 298.25,-773.45"/>
<text text-anchor="middle" x="381.5" y="-778" font-family="Helvetica,sans-Serif" font-size="10.00"> ssl</text>
</g>
<!-- Node11 -->
<g id="node11" class="node">
<title>Node11</title>
<g id="a_node11"><a xlink:title=" ">
<polygon fill="none" stroke="#bfbfbf" points="215,-575.5 215,-594.5 263,-594.5 263,-575.5 215,-575.5"/>
<text text-anchor="middle" x="239" y="-582.5" font-family="Helvetica,sans-Serif" font-size="10.00">time_t</text>
</a>
</g>
</g>
<!-- Node11&#45;&gt;Node5 -->
<g id="edge34" class="edge">
<title>Node11&#45;&gt;Node5</title>
<path fill="none" stroke="#9a32cd" stroke-dasharray="5,2" d="M273.08,-583.51C313.15,-581.52 382.65,-577.47 442,-571 687.69,-544.21 749.69,-537.65 992,-489 1003.84,-486.62 1016.68,-483.53 1028.13,-480.58"/>
<polygon fill="#9a32cd" stroke="#9a32cd" points="272.89,-580.01 263.08,-583.99 273.23,-587.01 272.89,-580.01"/>
<text text-anchor="middle" x="647" y="-568" font-family="Helvetica,sans-Serif" font-size="10.00"> last_heartbeat</text>
<text text-anchor="middle" x="647" y="-557" font-family="Helvetica,sans-Serif" font-size="10.00">last_heartbeat_ack</text>
</g>
<!-- Node11&#45;&gt;Node7 -->
<g id="edge11" class="edge">
<title>Node11&#45;&gt;Node7</title>
<path fill="none" stroke="#9a32cd" stroke-dasharray="5,2" d="M273.37,-589.6C328.89,-597.35 434.9,-612.59 442,-617 481.98,-641.82 507.26,-695.48 516.28,-717.39"/>
<polygon fill="#9a32cd" stroke="#9a32cd" points="273.69,-586.11 263.3,-588.2 272.72,-593.04 273.69,-586.11"/>
<text text-anchor="middle" x="381.5" y="-620" font-family="Helvetica,sans-Serif" font-size="10.00"> last_tick</text>
</g>
<!-- Node11&#45;&gt;Node14 -->
<g id="edge16" class="edge">
<title>Node11&#45;&gt;Node14</title>
<path fill="none" stroke="#9a32cd" stroke-dasharray="5,2" d="M240.63,-565.27C243.21,-521.27 256.19,-415.24 321,-367 386.26,-318.43 641.84,-358.21 737.29,-375.22"/>
<polygon fill="#9a32cd" stroke="#9a32cd" points="237.12,-565.34 240.16,-575.49 244.11,-565.66 237.12,-565.34"/>
<text text-anchor="middle" x="521" y="-355" font-family="Helvetica,sans-Serif" font-size="10.00"> last_identify</text>
</g>
<!-- Node12 -->
<g id="node12" class="node">
<title>Node12</title>
<g id="a_node12"><a xlink:title=" ">
<polygon fill="none" stroke="#bfbfbf" points="24,-143.5 24,-162.5 80,-162.5 80,-143.5 24,-143.5"/>
<text text-anchor="middle" x="52" y="-150.5" font-family="Helvetica,sans-Serif" font-size="10.00">uint64_t</text>
</a>
</g>
</g>
<!-- Node12&#45;&gt;Node1 -->
<g id="edge43" class="edge">
<title>Node12&#45;&gt;Node1</title>
<path fill="none" stroke="#9a32cd" stroke-dasharray="5,2" d="M63.39,-134.78C88.03,-94.22 154.27,0 238,0 238,0 238,0 1244,0 1312.49,0 1371.94,-69.39 1395.37,-100.84"/>
<polygon fill="#9a32cd" stroke="#9a32cd" points="60.35,-133.04 58.28,-143.43 66.38,-136.6 60.35,-133.04"/>
<text text-anchor="middle" x="774.5" y="-14" font-family="Helvetica,sans-Serif" font-size="10.00"> guild_id</text>
<text text-anchor="middle" x="774.5" y="-3" font-family="Helvetica,sans-Serif" font-size="10.00">user_id</text>
</g>
<!-- Node12&#45;&gt;Node5 -->
<g id="edge36" class="edge">
<title>Node12&#45;&gt;Node5</title>
<path fill="none" stroke="#9a32cd" stroke-dasharray="5,2" d="M69.17,-136.42C99.41,-107.3 167.81,-50 238,-50 238,-50 238,-50 775.5,-50 872.31,-50 921.3,-7.86 992,-74 1050.8,-129.01 1061.25,-405.63 1062.77,-461.25"/>
<polygon fill="#9a32cd" stroke="#9a32cd" points="66.67,-133.98 62.01,-143.49 71.58,-138.96 66.67,-133.98"/>
<text text-anchor="middle" x="521" y="-53" font-family="Helvetica,sans-Serif" font-size="10.00"> last_seq</text>
</g>
<!-- Node12&#45;&gt;Node7 -->
<g id="edge12" class="edge">
<title>Node12&#45;&gt;Node7</title>
<path fill="none" stroke="#9a32cd" stroke-dasharray="5,2" d="M55.14,-172.55C64.67,-256.18 105.85,-582.91 175,-655 216.35,-698.11 395.31,-717.34 477.92,-724.04"/>
<polygon fill="#9a32cd" stroke="#9a32cd" points="58.62,-172.15 54.03,-162.6 51.66,-172.93 58.62,-172.15"/>
<text text-anchor="middle" x="239" y="-715" font-family="Helvetica,sans-Serif" font-size="10.00"> bytes_in</text>
<text text-anchor="middle" x="239" y="-704" font-family="Helvetica,sans-Serif" font-size="10.00">bytes_out</text>
</g>
<!-- Node19 -->
<g id="node19" class="node">
<title>Node19</title>
<g id="a_node19"><a xlink:href="classdpp_1_1managed.html" target="_top" xlink:title="The managed class is the base class for various types that can be stored in a cache that are identifi...">
<polygon fill="none" stroke="black" points="196,-143.5 196,-162.5 282,-162.5 282,-143.5 196,-143.5"/>
<text text-anchor="middle" x="239" y="-150.5" font-family="Helvetica,sans-Serif" font-size="10.00">dpp::managed</text>
</a>
</g>
</g>
<!-- Node12&#45;&gt;Node19 -->
<g id="edge23" class="edge">
<title>Node12&#45;&gt;Node19</title>
<path fill="none" stroke="#9a32cd" stroke-dasharray="5,2" d="M90.53,-153C121.06,-153 164.13,-153 195.84,-153"/>
<polygon fill="#9a32cd" stroke="#9a32cd" points="90.3,-149.5 80.3,-153 90.3,-156.5 90.3,-149.5"/>
<text text-anchor="middle" x="139.5" y="-156" font-family="Helvetica,sans-Serif" font-size="10.00"> id</text>
</g>
<!-- Node21 -->
<g id="node21" class="node">
<title>Node21</title>
<g id="a_node21"><a xlink:href="structdpp_1_1utility_1_1iconhash.html" target="_top" xlink:title="Store a 128 bit icon hash (profile picture, server icon etc) as a 128 bit binary value made of two ui...">
<polygon fill="none" stroke="black" points="180,-219.5 180,-238.5 298,-238.5 298,-219.5 180,-219.5"/>
<text text-anchor="middle" x="239" y="-226.5" font-family="Helvetica,sans-Serif" font-size="10.00">dpp::utility::iconhash</text>
</a>
</g>
</g>
<!-- Node12&#45;&gt;Node21 -->
<g id="edge27" class="edge">
<title>Node12&#45;&gt;Node21</title>
<path fill="none" stroke="#9a32cd" stroke-dasharray="5,2" d="M80.26,-167.12C104.67,-179.43 141.65,-197.26 175,-210 183.96,-213.43 193.83,-216.65 203.04,-219.43"/>
<polygon fill="#9a32cd" stroke="#9a32cd" points="81.74,-163.95 71.24,-162.54 78.57,-170.19 81.74,-163.95"/>
<text text-anchor="middle" x="139.5" y="-216" font-family="Helvetica,sans-Serif" font-size="10.00"> first</text>
<text text-anchor="middle" x="139.5" y="-205" font-family="Helvetica,sans-Serif" font-size="10.00">second</text>
</g>
<!-- Node13 -->
<g id="node13" class="node">
<title>Node13</title>
<g id="a_node13"><a xlink:title=" ">
<polygon fill="none" stroke="#bfbfbf" points="206.5,-626.5 206.5,-645.5 271.5,-645.5 271.5,-626.5 206.5,-626.5"/>
<text text-anchor="middle" x="239" y="-633.5" font-family="Helvetica,sans-Serif" font-size="10.00">function&lt;</text>
</a>
</g>
</g>
<!-- Node13&#45;&gt;Node7 -->
<g id="edge13" class="edge">
<title>Node13&#45;&gt;Node7</title>
<path fill="none" stroke="#9a32cd" stroke-dasharray="5,2" d="M281.92,-631.68C324.22,-629.08 390.49,-629.9 442,-653 474.19,-667.43 501.36,-700.89 513.38,-717.41"/>
<polygon fill="#9a32cd" stroke="#9a32cd" points="281.43,-628.2 271.7,-632.4 281.92,-635.19 281.43,-628.2"/>
<text text-anchor="middle" x="381.5" y="-689" font-family="Helvetica,sans-Serif" font-size="10.00"> custom_readable_fd</text>
<text text-anchor="middle" x="381.5" y="-678" font-family="Helvetica,sans-Serif" font-size="10.00">custom_readable_ready</text>
<text text-anchor="middle" x="381.5" y="-667" font-family="Helvetica,sans-Serif" font-size="10.00">custom_writeable_fd</text>
<text text-anchor="middle" x="381.5" y="-656" font-family="Helvetica,sans-Serif" font-size="10.00">custom_writeable_ready</text>
</g>
<!-- Node17 -->
<g id="node17" class="node">
<title>Node17</title>
<g id="a_node17"><a xlink:href="classdpp_1_1dispatcher.html" target="_top" xlink:title="The dispatcher class contains a set of std::functions representing hooked events that the user code i...">
<polygon fill="none" stroke="black" points="475,-378.5 475,-397.5 567,-397.5 567,-378.5 475,-378.5"/>
<text text-anchor="middle" x="521" y="-385.5" font-family="Helvetica,sans-Serif" font-size="10.00">dpp::dispatcher</text>
</a>
</g>
</g>
<!-- Node13&#45;&gt;Node17 -->
<g id="edge20" class="edge">
<title>Node13&#45;&gt;Node17</title>
<path fill="none" stroke="#9a32cd" stroke-dasharray="5,2" d="M280.82,-622.87C289.45,-618.24 297.57,-612.09 303,-604 330.46,-563.09 284.77,-416.4 321,-383 342.53,-363.15 422.79,-371.78 474.57,-379.87"/>
<polygon fill="#9a32cd" stroke="#9a32cd" points="279.29,-619.73 271.75,-627.17 282.28,-626.06 279.29,-619.73"/>
<text text-anchor="start" x="325.5" y="-529" font-family="Helvetica,sans-Serif" font-size="10.00"> application_command</text>
<text text-anchor="middle" x="381.5" y="-518" font-family="Helvetica,sans-Serif" font-size="10.00">_create</text>
<text text-anchor="start" x="325.5" y="-507" font-family="Helvetica,sans-Serif" font-size="10.00">application_command</text>
<text text-anchor="middle" x="381.5" y="-496" font-family="Helvetica,sans-Serif" font-size="10.00">_delete</text>
<text text-anchor="start" x="325.5" y="-485" font-family="Helvetica,sans-Serif" font-size="10.00">application_command</text>
<text text-anchor="middle" x="381.5" y="-474" font-family="Helvetica,sans-Serif" font-size="10.00">_update</text>
<text text-anchor="middle" x="381.5" y="-463" font-family="Helvetica,sans-Serif" font-size="10.00">button_click</text>
<text text-anchor="middle" x="381.5" y="-452" font-family="Helvetica,sans-Serif" font-size="10.00">channel_create</text>
<text text-anchor="middle" x="381.5" y="-441" font-family="Helvetica,sans-Serif" font-size="10.00">channel_delete</text>
<text text-anchor="middle" x="381.5" y="-430" font-family="Helvetica,sans-Serif" font-size="10.00">channel_pins_update</text>
<text text-anchor="middle" x="381.5" y="-419" font-family="Helvetica,sans-Serif" font-size="10.00">channel_update</text>
<text text-anchor="middle" x="381.5" y="-408" font-family="Helvetica,sans-Serif" font-size="10.00">guild_ban_add</text>
<text text-anchor="middle" x="381.5" y="-397" font-family="Helvetica,sans-Serif" font-size="10.00">guild_ban_remove</text>
<text text-anchor="middle" x="381.5" y="-386" font-family="Helvetica,sans-Serif" font-size="10.00">...</text>
</g>
<!-- Node14&#45;&gt;Node5 -->
<g id="edge14" class="edge">
<title>Node14&#45;&gt;Node5</title>
<path fill="none" stroke="#9a32cd" stroke-dasharray="5,2" d="M821.93,-383.02C867.05,-385.49 936.65,-393.26 992,-417 1016.76,-427.62 1040.66,-448.75 1053.44,-461.2"/>
<polygon fill="#9a32cd" stroke="#9a32cd" points="822.01,-379.52 811.85,-382.54 821.67,-386.52 822.01,-379.52"/>
<text text-anchor="middle" x="923.5" y="-420" font-family="Helvetica,sans-Serif" font-size="10.00"> creator</text>
</g>
<!-- Node15 -->
<g id="node15" class="node">
<title>Node15</title>
<g id="a_node15"><a xlink:title=" ">
<polygon fill="none" stroke="#bfbfbf" points="211,-97.5 211,-116.5 267,-116.5 267,-97.5 211,-97.5"/>
<text text-anchor="middle" x="239" y="-104.5" font-family="Helvetica,sans-Serif" font-size="10.00">uint32_t</text>
</a>
</g>
</g>
<!-- Node15&#45;&gt;Node5 -->
<g id="edge33" class="edge">
<title>Node15&#45;&gt;Node5</title>
<path fill="none" stroke="#9a32cd" stroke-dasharray="5,2" d="M277.3,-102.24C373.15,-90.77 625.36,-65.63 694,-109 709.12,-118.56 700.95,-130.93 712,-145 812.73,-273.2 878.4,-265.05 992,-382 1018.03,-408.8 1044.32,-444.54 1056.3,-461.41"/>
<polygon fill="#9a32cd" stroke="#9a32cd" points="276.7,-98.79 267.2,-103.47 277.55,-105.74 276.7,-98.79"/>
<text text-anchor="middle" x="647" y="-167" font-family="Helvetica,sans-Serif" font-size="10.00"> heartbeat_interval</text>
<text text-anchor="middle" x="647" y="-156" font-family="Helvetica,sans-Serif" font-size="10.00">intents</text>
<text text-anchor="middle" x="647" y="-145" font-family="Helvetica,sans-Serif" font-size="10.00">max_shards</text>
<text text-anchor="middle" x="647" y="-134" font-family="Helvetica,sans-Serif" font-size="10.00">reconnects</text>
<text text-anchor="middle" x="647" y="-123" font-family="Helvetica,sans-Serif" font-size="10.00">resumes</text>
<text text-anchor="middle" x="647" y="-112" font-family="Helvetica,sans-Serif" font-size="10.00">shard_id</text>
</g>
<!-- Node15&#45;&gt;Node14 -->
<g id="edge17" class="edge">
<title>Node15&#45;&gt;Node14</title>
<path fill="none" stroke="#9a32cd" stroke-dasharray="5,2" d="M277.14,-106.62C317.97,-106.88 385.3,-109.33 442,-121 506.57,-134.29 523.03,-140.53 582,-170 635.59,-196.78 653.02,-201.3 694,-245 732.37,-285.92 760.07,-348.62 769.74,-372.4"/>
<polygon fill="#9a32cd" stroke="#9a32cd" points="277.11,-103.12 267.1,-106.6 277.09,-110.12 277.11,-103.12"/>
<text text-anchor="middle" x="521" y="-206" font-family="Helvetica,sans-Serif" font-size="10.00"> cluster_id</text>
<text text-anchor="middle" x="521" y="-195" font-family="Helvetica,sans-Serif" font-size="10.00">intents</text>
<text text-anchor="middle" x="521" y="-184" font-family="Helvetica,sans-Serif" font-size="10.00">maxclusters</text>
<text text-anchor="middle" x="521" y="-173" font-family="Helvetica,sans-Serif" font-size="10.00">numshards</text>
</g>
<!-- Node15&#45;&gt;Node18 -->
<g id="edge28" class="edge">
<title>Node15&#45;&gt;Node18</title>
<path fill="none" stroke="#9a32cd" stroke-dasharray="5,2" d="M277.09,-113.35C331.91,-123.02 429.46,-141.42 442,-152 458.15,-165.62 446.34,-179.88 460,-196 470.13,-207.95 485.13,-217.2 497.6,-223.46"/>
<polygon fill="#9a32cd" stroke="#9a32cd" points="277.51,-109.87 267.06,-111.59 276.31,-116.76 277.51,-109.87"/>
<text text-anchor="middle" x="381.5" y="-155" font-family="Helvetica,sans-Serif" font-size="10.00"> flags</text>
</g>
<!-- Node16 -->
<g id="node16" class="node">
<title>Node16</title>
<g id="a_node16"><a xlink:title=" ">
<polygon fill="none" stroke="#bfbfbf" points="496,-425.5 496,-444.5 546,-444.5 546,-425.5 496,-425.5"/>
<text text-anchor="middle" x="521" y="-432.5" font-family="Helvetica,sans-Serif" font-size="10.00">double</text>
</a>
</g>
</g>
<!-- Node16&#45;&gt;Node5 -->
<g id="edge39" class="edge">
<title>Node16&#45;&gt;Node5</title>
<path fill="none" stroke="#9a32cd" stroke-dasharray="5,2" d="M556.43,-437.29C648.23,-443.4 899.33,-460.11 1009.73,-467.46"/>
<polygon fill="#9a32cd" stroke="#9a32cd" points="556.51,-433.79 546.3,-436.62 556.04,-440.77 556.51,-433.79"/>
<text text-anchor="middle" x="774.5" y="-459" font-family="Helvetica,sans-Serif" font-size="10.00"> websocket_ping</text>
</g>
<!-- Node16&#45;&gt;Node14 -->
<g id="edge18" class="edge">
<title>Node16&#45;&gt;Node14</title>
<path fill="none" stroke="#9a32cd" stroke-dasharray="5,2" d="M556.13,-426.91C569.76,-423.73 585.6,-420.11 600,-417 647.3,-406.77 702.07,-395.88 737.22,-389.01"/>
<polygon fill="#9a32cd" stroke="#9a32cd" points="555.14,-423.54 546.2,-429.23 556.74,-430.36 555.14,-423.54"/>
<text text-anchor="middle" x="647" y="-420" font-family="Helvetica,sans-Serif" font-size="10.00"> rest_ping</text>
</g>
<!-- Node17&#45;&gt;Node14 -->
<g id="edge19" class="edge">
<title>Node17&#45;&gt;Node14</title>
<path fill="none" stroke="#9a32cd" stroke-dasharray="5,2" d="M577.53,-384.04C585.08,-383.62 592.73,-383.25 600,-383 647.41,-381.35 702.16,-381.35 737.27,-381.6"/>
<polygon fill="#9a32cd" stroke="#9a32cd" points="577.12,-380.56 567.35,-384.65 577.54,-387.55 577.12,-380.56"/>
<text text-anchor="middle" x="647" y="-386" font-family="Helvetica,sans-Serif" font-size="10.00"> dispatch</text>
</g>
<!-- Node18&#45;&gt;Node14 -->
<g id="edge21" class="edge">
<title>Node18&#45;&gt;Node14</title>
<path fill="none" stroke="#9a32cd" stroke-dasharray="5,2" d="M562.02,-239.59C598.74,-247.06 653.43,-261.89 694,-289 728.26,-311.9 756.25,-353.5 767.8,-372.31"/>
<polygon fill="#9a32cd" stroke="#9a32cd" points="562.65,-236.14 552.16,-237.67 561.31,-243.01 562.65,-236.14"/>
<text text-anchor="middle" x="647" y="-292" font-family="Helvetica,sans-Serif" font-size="10.00"> me</text>
</g>
<!-- Node19&#45;&gt;Node18 -->
<g id="edge22" class="edge">
<title>Node19&#45;&gt;Node18</title>
<path fill="none" stroke="midnightblue" d="M292.27,-160.68C333.59,-167.57 392.37,-179.21 442,-196 463.72,-203.35 487.34,-215.13 502.83,-223.42"/>
<polygon fill="midnightblue" stroke="midnightblue" points="292.59,-157.19 282.16,-159.03 291.46,-164.1 292.59,-157.19"/>
</g>
<!-- Node20 -->
<g id="node20" class="node">
<title>Node20</title>
<g id="a_node20"><a xlink:title=" ">
<polygon fill="none" stroke="#bfbfbf" points="211,-181.5 211,-200.5 267,-200.5 267,-181.5 211,-181.5"/>
<text text-anchor="middle" x="239" y="-188.5" font-family="Helvetica,sans-Serif" font-size="10.00">uint16_t</text>
</a>
</g>
</g>
<!-- Node20&#45;&gt;Node18 -->
<g id="edge25" class="edge">
<title>Node20&#45;&gt;Node18</title>
<path fill="none" stroke="#9a32cd" stroke-dasharray="5,2" d="M277.23,-194.58C317.87,-198.72 384.8,-206.25 442,-216 457.85,-218.7 475.35,-222.45 489.75,-225.73"/>
<polygon fill="#9a32cd" stroke="#9a32cd" points="277.53,-191.09 267.23,-193.57 276.83,-198.05 277.53,-191.09"/>
<text text-anchor="middle" x="381.5" y="-219" font-family="Helvetica,sans-Serif" font-size="10.00"> discriminator</text>
</g>
<!-- Node21&#45;&gt;Node18 -->
<g id="edge26" class="edge">
<title>Node21&#45;&gt;Node18</title>
<path fill="none" stroke="#9a32cd" stroke-dasharray="5,2" d="M308.19,-229.97C366.11,-230.8 446.51,-231.95 489.69,-232.57"/>
<polygon fill="#9a32cd" stroke="#9a32cd" points="308.07,-226.47 298.02,-229.83 307.97,-233.47 308.07,-226.47"/>
<text text-anchor="middle" x="381.5" y="-235" font-family="Helvetica,sans-Serif" font-size="10.00"> avatar</text>
</g>
<!-- Node22 -->
<g id="node22" class="node">
<title>Node22</title>
<g id="a_node22"><a xlink:title=" ">
<polygon fill="none" stroke="#bfbfbf" points="214,-257.5 214,-276.5 264,-276.5 264,-257.5 214,-257.5"/>
<text text-anchor="middle" x="239" y="-264.5" font-family="Helvetica,sans-Serif" font-size="10.00">uint8_t</text>
</a>
</g>
</g>
<!-- Node22&#45;&gt;Node18 -->
<g id="edge29" class="edge">
<title>Node22&#45;&gt;Node18</title>
<path fill="none" stroke="#9a32cd" stroke-dasharray="5,2" d="M274.38,-263.72C314.62,-259.78 383.24,-252.72 442,-245 457.76,-242.93 475.25,-240.27 489.67,-237.98"/>
<polygon fill="#9a32cd" stroke="#9a32cd" points="273.91,-260.25 264.29,-264.7 274.59,-267.22 273.91,-260.25"/>
<text text-anchor="middle" x="381.5" y="-262" font-family="Helvetica,sans-Serif" font-size="10.00"> refcount</text>
</g>
<!-- Node23 -->
<g id="node23" class="node">
<title>Node23</title>
<g id="a_node23"><a xlink:href="structdpp_1_1cache__policy__t.html" target="_top" xlink:title="Represents the caching policy of the cluster.">
<polygon fill="none" stroke="black" points="464.5,-292.5 464.5,-311.5 577.5,-311.5 577.5,-292.5 464.5,-292.5"/>
<text text-anchor="middle" x="521" y="-299.5" font-family="Helvetica,sans-Serif" font-size="10.00">dpp::cache_policy_t</text>
</a>
</g>
</g>
<!-- Node23&#45;&gt;Node14 -->
<g id="edge30" class="edge">
<title>Node23&#45;&gt;Node14</title>
<path fill="none" stroke="#9a32cd" stroke-dasharray="5,2" d="M588,-302.75C620.84,-305.02 660.56,-310.69 694,-324 722.26,-335.24 749.65,-358.89 763.73,-372.26"/>
<polygon fill="#9a32cd" stroke="#9a32cd" points="587.78,-299.23 577.59,-302.12 587.36,-306.21 587.78,-299.23"/>
<text text-anchor="middle" x="647" y="-327" font-family="Helvetica,sans-Serif" font-size="10.00"> cache_policy</text>
</g>
<!-- Node24 -->
<g id="node24" class="node">
<title>Node24</title>
<g id="a_node24"><a xlink:title=" ">
<polygon fill="none" stroke="#bfbfbf" points="175,-295.5 175,-314.5 303,-314.5 303,-295.5 175,-295.5"/>
<text text-anchor="middle" x="239" y="-302.5" font-family="Helvetica,sans-Serif" font-size="10.00">cache_policy_setting_t</text>
</a>
</g>
</g>
<!-- Node24&#45;&gt;Node23 -->
<g id="edge31" class="edge">
<title>Node24&#45;&gt;Node23</title>
<path fill="none" stroke="#9a32cd" stroke-dasharray="5,2" d="M313.32,-302.16C315.91,-302.1 318.48,-302.05 321,-302 369.36,-301.1 424.34,-301.19 464.24,-301.45"/>
<polygon fill="#9a32cd" stroke="#9a32cd" points="313.13,-298.67 303.23,-302.43 313.32,-305.66 313.13,-298.67"/>
<text text-anchor="middle" x="381.5" y="-327" font-family="Helvetica,sans-Serif" font-size="10.00"> emoji_policy</text>
<text text-anchor="middle" x="381.5" y="-316" font-family="Helvetica,sans-Serif" font-size="10.00">role_policy</text>
<text text-anchor="middle" x="381.5" y="-305" font-family="Helvetica,sans-Serif" font-size="10.00">user_policy</text>
</g>
<!-- Node25 -->
<g id="node25" class="node">
<title>Node25</title>
<g id="a_node25"><a xlink:title=" ">
<polygon fill="none" stroke="#bfbfbf" points="460,-473.5 460,-492.5 582,-492.5 582,-473.5 460,-473.5"/>
<text text-anchor="middle" x="521" y="-480.5" font-family="Helvetica,sans-Serif" font-size="10.00">websocket_protocol_t</text>
</a>
</g>
</g>
<!-- Node25&#45;&gt;Node5 -->
<g id="edge41" class="edge">
<title>Node25&#45;&gt;Node5</title>
<path fill="none" stroke="#9a32cd" stroke-dasharray="5,2" d="M592.42,-481.88C623.55,-481.36 660.6,-480.7 694,-480 806.44,-477.65 938.13,-474.29 1009.84,-472.41"/>
<polygon fill="#9a32cd" stroke="#9a32cd" points="592.04,-478.39 582.1,-482.05 592.16,-485.39 592.04,-478.39"/>
<text text-anchor="middle" x="774.5" y="-483" font-family="Helvetica,sans-Serif" font-size="10.00"> protocol</text>
</g>
<!-- Node25&#45;&gt;Node14 -->
<g id="edge32" class="edge">
<title>Node25&#45;&gt;Node14</title>
<path fill="none" stroke="#9a32cd" stroke-dasharray="5,2" d="M577.43,-471.05C611.92,-462.54 656.65,-449.5 694,-432 702.71,-427.92 703.91,-425.19 712,-420 727.42,-410.1 745.25,-399.13 757.73,-391.54"/>
<polygon fill="#9a32cd" stroke="#9a32cd" points="576.44,-467.69 567.54,-473.44 578.08,-474.5 576.44,-467.69"/>
<text text-anchor="middle" x="647" y="-468" font-family="Helvetica,sans-Serif" font-size="10.00"> ws_mode</text>
</g>
<!-- Node26 -->
<g id="node26" class="node">
<title>Node26</title>
<g id="a_node26"><a xlink:title=" ">
<polygon fill="none" stroke="#bfbfbf" points="718,-116.5 718,-135.5 831,-135.5 831,-116.5 718,-116.5"/>
<text text-anchor="middle" x="774.5" y="-123.5" font-family="Helvetica,sans-Serif" font-size="10.00">native_handle_type</text>
</a>
</g>
</g>
<!-- Node26&#45;&gt;Node5 -->
<g id="edge35" class="edge">
<title>Node26&#45;&gt;Node5</title>
<path fill="none" stroke="#9a32cd" stroke-dasharray="5,2" d="M820.45,-114.37C868.77,-104.79 944.95,-98.55 992,-139 1042.84,-182.71 1059.39,-410.92 1062.45,-461.2"/>
<polygon fill="#9a32cd" stroke="#9a32cd" points="819.65,-110.96 810.59,-116.45 821.09,-117.81 819.65,-110.96"/>
<text text-anchor="middle" x="923.5" y="-142" font-family="Helvetica,sans-Serif" font-size="10.00"> thread_id</text>
</g>
<!-- Node27 -->
<g id="node27" class="node">
<title>Node27</title>
<g id="a_node27"><a xlink:title=" ">
<polygon fill="none" stroke="#bfbfbf" points="740,-78.5 740,-97.5 809,-97.5 809,-78.5 740,-78.5"/>
<text text-anchor="middle" x="774.5" y="-85.5" font-family="Helvetica,sans-Serif" font-size="10.00">std::mutex</text>
</a>
</g>
</g>
<!-- Node27&#45;&gt;Node5 -->
<g id="edge38" class="edge">
<title>Node27&#45;&gt;Node5</title>
<path fill="none" stroke="#9a32cd" stroke-dasharray="5,2" d="M819.18,-82.8C874.86,-77.19 966.91,-71.69 992,-93 1050.4,-142.6 1061.15,-407.06 1062.75,-461.28"/>
<polygon fill="#9a32cd" stroke="#9a32cd" points="818.81,-79.32 809.23,-83.84 819.54,-86.28 818.81,-79.32"/>
<text text-anchor="middle" x="923.5" y="-96" font-family="Helvetica,sans-Serif" font-size="10.00"> voice_mutex</text>
</g>
<!-- Node28 -->
<g id="node28" class="node">
<title>Node28</title>
<g id="a_node28"><a xlink:title=" ">
<polygon fill="none" stroke="#bfbfbf" points="724,-943.5 724,-962.5 825,-962.5 825,-943.5 724,-943.5"/>
<text text-anchor="middle" x="774.5" y="-950.5" font-family="Helvetica,sans-Serif" font-size="10.00">unordered_map&lt;</text>
</a>
</g>
</g>
<!-- Node28&#45;&gt;Node5 -->
<g id="edge42" class="edge">
<title>Node28&#45;&gt;Node5</title>
<path fill="none" stroke="#9a32cd" stroke-dasharray="5,2" d="M832.04,-963.89C880.94,-969.77 950.18,-969.04 992,-929 1059.42,-864.45 1062.95,-540.75 1063.02,-480.62"/>
<polygon fill="#9a32cd" stroke="#9a32cd" points="832.3,-960.4 821.93,-962.55 831.38,-967.34 832.3,-960.4"/>
<text text-anchor="middle" x="923.5" y="-970" font-family="Helvetica,sans-Serif" font-size="10.00"> connecting_voice_channels</text>
</g>
</g>
</svg>
        <g id="navigator" transform="translate(0 0)" fill="#404254">
                <rect fill="#f2f5e9" fill-opacity="0.5" stroke="#606060" stroke-width=".5" x="0" y="0" width="60" height="60"/>
                <use id="zoomplus" xlink:href="#zoomPlus" x="17" y="9" onmousedown="handleZoom(evt,'in')"/>
                <use id="zoomminus" xlink:href="#zoomMin" x="42" y="9" onmousedown="handleZoom(evt,'out')"/>
                <use id="reset" xlink:href="#resetDef" x="30" y="36" onmousedown="handleReset()"/>
                <g id="arrowUp" xlink:href="#dirArrow" transform="translate(30 24)" onmousedown="handlePan(0,-1)">
                  <use xlink:href="#rim" fill="#404040">
                        <set attributeName="fill" to="#808080" begin="arrowUp.mouseover" end="arrowUp.mouseout"/>
                  </use>
                  <path fill="none" stroke="white" stroke-width="1.5" d="M0,-3.0v7 M-2.5,-0.5L0,-3.0L2.5,-0.5"/>
                </g>
                <g id="arrowRight" xlink:href="#dirArrow" transform="rotate(90) translate(36 -43)" onmousedown="handlePan(1,0)">
                  <use xlink:href="#rim" fill="#404040">
                        <set attributeName="fill" to="#808080" begin="arrowRight.mouseover" end="arrowRight.mouseout"/>
                  </use>
                  <path fill="none" stroke="white" stroke-width="1.5" d="M0,-3.0v7 M-2.5,-0.5L0,-3.0L2.5,-0.5"/>
                </g>
                <g id="arrowDown" xlink:href="#dirArrow" transform="rotate(180) translate(-30 -48)" onmousedown="handlePan(0,1)">
                  <use xlink:href="#rim" fill="#404040">
                        <set attributeName="fill" to="#808080" begin="arrowDown.mouseover" end="arrowDown.mouseout"/>
                  </use>
                  <path fill="none" stroke="white" stroke-width="1.5" d="M0,-3.0v7 M-2.5,-0.5L0,-3.0L2.5,-0.5"/>
                </g>
                <g id="arrowLeft" xlink:href="#dirArrow" transform="rotate(270) translate(-36 17)" onmousedown="handlePan(-1,0)">
                  <use xlink:href="#rim" fill="#404040">
                        <set attributeName="fill" to="#808080" begin="arrowLeft.mouseover" end="arrowLeft.mouseout"/>
                  </use>
                  <path fill="none" stroke="white" stroke-width="1.5" d="M0,-3.0v7 M-2.5,-0.5L0,-3.0L2.5,-0.5"/>
                </g>
        </g>
        <svg viewBox="0 0 15 15" width="100%" height="30px" preserveAspectRatio="xMaxYMin meet">
         <g id="arrow_out" transform="scale(0.3 0.3)">
          <a xlink:href="structdpp_1_1guild__join__request__delete__t__coll__graph_org.svg" target="_base">
           <rect id="button" ry="5" rx="5" y="6" x="6" height="38" width="38"
                fill="#f2f5e9" fill-opacity="0.5" stroke="#606060" stroke-width="1.0"/>
           <path id="arrow"
             d="M 11.500037,31.436501 C 11.940474,20.09759 22.043105,11.32322 32.158766,21.979434 L 37.068811,17.246167 C 37.068811,17.246167 37.088388,32 37.088388,32 L 22.160133,31.978069 C 22.160133,31.978069 26.997745,27.140456 26.997745,27.140456 C 18.528582,18.264221 13.291696,25.230495 11.500037,31.436501 z"
             style="fill:#404040;"/>
          </a>
         </g>
        </svg>
</svg>
