<?xml version="1.0" encoding="UTF-8" standalone="no"?>
<!DOCTYPE svg PUBLIC "-//W3C//DTD SVG 1.1//EN"
 "http://www.w3.org/Graphics/SVG/1.1/DTD/svg11.dtd">
<!-- Generated by graphviz version 2.43.0 (0)
 -->
<!-- Title: dpp::poll Pages: 1 -->
<svg width="598pt" height="307pt"
 viewBox="0.00 0.00 597.50 307.00" xmlns="http://www.w3.org/2000/svg" xmlns:xlink="http://www.w3.org/1999/xlink">
<g id="graph0" class="graph" transform="scale(1 1) rotate(0) translate(4 303)">
<title>dpp::poll</title>
<!-- Node1 -->
<g id="node1" class="node">
<title>Node1</title>
<g id="a_node1"><a xlink:title="Represents a poll.">
<polygon fill="#bfbfbf" stroke="black" points="301.5,-0.5 301.5,-19.5 360.5,-19.5 360.5,-0.5 301.5,-0.5"/>
<text text-anchor="middle" x="331" y="-7.5" font-family="Helvetica,sans-Serif" font-size="10.00">dpp::poll</text>
</a>
</g>
</g>
<!-- Node2 -->
<g id="node2" class="node">
<title>Node2</title>
<g id="a_node2"><a xlink:href="structdpp_1_1poll__media.html" target="_top" xlink:title="Structure representing a poll media, for example the poll question or a possible poll answer.">
<polygon fill="none" stroke="black" points="99.5,-67.5 99.5,-86.5 194.5,-86.5 194.5,-67.5 99.5,-67.5"/>
<text text-anchor="middle" x="147" y="-74.5" font-family="Helvetica,sans-Serif" font-size="10.00">dpp::poll_media</text>
</a>
</g>
</g>
<!-- Node2&#45;&gt;Node1 -->
<g id="edge1" class="edge">
<title>Node2&#45;&gt;Node1</title>
<path fill="none" stroke="#9a32cd" stroke-dasharray="5,2" d="M159.98,-59.44C166.89,-51.75 176.02,-43.18 186,-38 222.71,-18.97 270.81,-13.2 301.32,-11.54"/>
<polygon fill="#9a32cd" stroke="#9a32cd" points="157.17,-57.34 153.41,-67.24 162.53,-61.84 157.17,-57.34"/>
<text text-anchor="middle" x="209" y="-41" font-family="Helvetica,sans-Serif" font-size="10.00"> question</text>
</g>
<!-- Node3 -->
<g id="node3" class="node">
<title>Node3</title>
<g id="a_node3"><a xlink:title=" ">
<polygon fill="none" stroke="#bfbfbf" points="20.5,-201.5 20.5,-220.5 85.5,-220.5 85.5,-201.5 20.5,-201.5"/>
<text text-anchor="middle" x="53" y="-208.5" font-family="Helvetica,sans-Serif" font-size="10.00">std::string</text>
</a>
</g>
</g>
<!-- Node3&#45;&gt;Node2 -->
<g id="edge2" class="edge">
<title>Node3&#45;&gt;Node2</title>
<path fill="none" stroke="#9a32cd" stroke-dasharray="5,2" d="M50.99,-190.84C50.22,-174.53 51.44,-151.1 62,-134 76.3,-110.84 104.15,-95.28 124.08,-86.56"/>
<polygon fill="#9a32cd" stroke="#9a32cd" points="47.53,-191.56 51.79,-201.26 54.51,-191.02 47.53,-191.56"/>
<text text-anchor="middle" x="73.5" y="-141.5" font-family="Helvetica,sans-Serif" font-size="10.00"> text</text>
</g>
<!-- Node5 -->
<g id="node5" class="node">
<title>Node5</title>
<g id="a_node5"><a xlink:href="structdpp_1_1partial__emoji.html" target="_top" xlink:title="An emoji reference for a component (select menus included) or a poll.">
<polygon fill="none" stroke="black" points="94.5,-134.5 94.5,-153.5 199.5,-153.5 199.5,-134.5 94.5,-134.5"/>
<text text-anchor="middle" x="147" y="-141.5" font-family="Helvetica,sans-Serif" font-size="10.00">dpp::partial_emoji</text>
</a>
</g>
</g>
<!-- Node3&#45;&gt;Node5 -->
<g id="edge5" class="edge">
<title>Node3&#45;&gt;Node5</title>
<path fill="none" stroke="#9a32cd" stroke-dasharray="5,2" d="M74.09,-195.42C92.67,-182.57 119.12,-164.28 134.52,-153.63"/>
<polygon fill="#9a32cd" stroke="#9a32cd" points="71.91,-192.67 65.68,-201.23 75.89,-198.43 71.91,-192.67"/>
<text text-anchor="middle" x="121.5" y="-175" font-family="Helvetica,sans-Serif" font-size="10.00"> name</text>
</g>
<!-- Node4 -->
<g id="node4" class="node">
<title>Node4</title>
<g id="a_node4"><a xlink:title=" ">
<polygon fill="none" stroke="#bfbfbf" points="0,-268.5 0,-298.5 104,-298.5 104,-268.5 0,-268.5"/>
<text text-anchor="start" x="8" y="-286.5" font-family="Helvetica,sans-Serif" font-size="10.00">std::basic_string&lt;</text>
<text text-anchor="middle" x="52" y="-275.5" font-family="Helvetica,sans-Serif" font-size="10.00"> Char &gt;</text>
</a>
</g>
</g>
<!-- Node4&#45;&gt;Node3 -->
<g id="edge3" class="edge">
<title>Node4&#45;&gt;Node3</title>
<path fill="none" stroke="midnightblue" d="M52.35,-258.09C52.53,-245.21 52.74,-230.2 52.87,-220.89"/>
<polygon fill="midnightblue" stroke="midnightblue" points="48.84,-258.18 52.2,-268.23 55.84,-258.28 48.84,-258.18"/>
</g>
<!-- Node5&#45;&gt;Node2 -->
<g id="edge4" class="edge">
<title>Node5&#45;&gt;Node2</title>
<path fill="none" stroke="#9a32cd" stroke-dasharray="5,2" d="M147,-124.04C147,-111.67 147,-96.12 147,-86.63"/>
<polygon fill="#9a32cd" stroke="#9a32cd" points="143.5,-124.23 147,-134.23 150.5,-124.23 143.5,-124.23"/>
<text text-anchor="middle" x="162.5" y="-108" font-family="Helvetica,sans-Serif" font-size="10.00"> emoji</text>
</g>
<!-- Node6 -->
<g id="node6" class="node">
<title>Node6</title>
<g id="a_node6"><a xlink:href="classdpp_1_1snowflake.html" target="_top" xlink:title="A container for a 64 bit unsigned value representing many things on discord. This value is known in d...">
<polygon fill="none" stroke="black" points="104.5,-201.5 104.5,-220.5 193.5,-220.5 193.5,-201.5 104.5,-201.5"/>
<text text-anchor="middle" x="149" y="-208.5" font-family="Helvetica,sans-Serif" font-size="10.00">dpp::snowflake</text>
</a>
</g>
</g>
<!-- Node6&#45;&gt;Node5 -->
<g id="edge6" class="edge">
<title>Node6&#45;&gt;Node5</title>
<path fill="none" stroke="#9a32cd" stroke-dasharray="5,2" d="M146.61,-190.85C146.36,-188.21 146.14,-185.54 146,-183 145.45,-172.98 145.9,-161.47 146.36,-153.76"/>
<polygon fill="#9a32cd" stroke="#9a32cd" points="143.16,-191.47 147.75,-201.02 150.11,-190.69 143.16,-191.47"/>
<text text-anchor="middle" x="152.5" y="-175" font-family="Helvetica,sans-Serif" font-size="10.00"> id</text>
</g>
<!-- Node7 -->
<g id="node7" class="node">
<title>Node7</title>
<g id="a_node7"><a xlink:title=" ">
<polygon fill="none" stroke="#bfbfbf" points="122,-274 122,-293 178,-293 178,-274 122,-274"/>
<text text-anchor="middle" x="150" y="-281" font-family="Helvetica,sans-Serif" font-size="10.00">uint64_t</text>
</a>
</g>
</g>
<!-- Node7&#45;&gt;Node6 -->
<g id="edge7" class="edge">
<title>Node7&#45;&gt;Node6</title>
<path fill="none" stroke="#9a32cd" stroke-dasharray="5,2" d="M149.73,-263.44C149.53,-249.53 149.27,-231.32 149.12,-220.72"/>
<polygon fill="#9a32cd" stroke="#9a32cd" points="146.24,-263.91 149.88,-273.86 153.24,-263.81 146.24,-263.91"/>
<text text-anchor="middle" x="165.5" y="-242" font-family="Helvetica,sans-Serif" font-size="10.00"> value</text>
</g>
<!-- Node8 -->
<g id="node8" class="node">
<title>Node8</title>
<g id="a_node8"><a xlink:title=" ">
<polygon fill="none" stroke="#bfbfbf" points="217,-201.5 217,-220.5 255,-220.5 255,-201.5 217,-201.5"/>
<text text-anchor="middle" x="236" y="-208.5" font-family="Helvetica,sans-Serif" font-size="10.00">bool</text>
</a>
</g>
</g>
<!-- Node8&#45;&gt;Node1 -->
<g id="edge11" class="edge">
<title>Node8&#45;&gt;Node1</title>
<path fill="none" stroke="#9a32cd" stroke-dasharray="5,2" d="M236.94,-191.41C239.01,-163.16 245.55,-108.37 266,-67 276.63,-45.5 299.6,-28.9 315.18,-19.53"/>
<polygon fill="#9a32cd" stroke="#9a32cd" points="233.45,-191.26 236.32,-201.46 240.43,-191.7 233.45,-191.26"/>
<text text-anchor="middle" x="297" y="-108" font-family="Helvetica,sans-Serif" font-size="10.00"> allow_multiselect</text>
</g>
<!-- Node8&#45;&gt;Node5 -->
<g id="edge8" class="edge">
<title>Node8&#45;&gt;Node5</title>
<path fill="none" stroke="#9a32cd" stroke-dasharray="5,2" d="M207.47,-198.13C198.9,-193.95 189.73,-188.82 182,-183 170.68,-174.48 160,-162 153.48,-153.7"/>
<polygon fill="#9a32cd" stroke="#9a32cd" points="206.24,-201.42 216.79,-202.44 209.18,-195.06 206.24,-201.42"/>
<text text-anchor="middle" x="207" y="-175" font-family="Helvetica,sans-Serif" font-size="10.00"> animated</text>
</g>
<!-- Node9 -->
<g id="node9" class="node">
<title>Node9</title>
<g id="a_node9"><a xlink:title=" ">
<polygon fill="none" stroke="#bfbfbf" points="274.5,-67.5 274.5,-86.5 321.5,-86.5 321.5,-67.5 274.5,-67.5"/>
<text text-anchor="middle" x="298" y="-74.5" font-family="Helvetica,sans-Serif" font-size="10.00">map&lt;</text>
</a>
</g>
</g>
<!-- Node9&#45;&gt;Node1 -->
<g id="edge9" class="edge">
<title>Node9&#45;&gt;Node1</title>
<path fill="none" stroke="#9a32cd" stroke-dasharray="5,2" d="M295.47,-57.01C295.4,-50.69 296.21,-43.8 299,-38 302.65,-30.4 309.57,-24.14 316.03,-19.57"/>
<polygon fill="#9a32cd" stroke="#9a32cd" points="292.01,-57.69 296.3,-67.38 298.99,-57.14 292.01,-57.69"/>
<text text-anchor="middle" x="321" y="-41" font-family="Helvetica,sans-Serif" font-size="10.00"> answers</text>
</g>
<!-- Node10 -->
<g id="node10" class="node">
<title>Node10</title>
<g id="a_node10"><a xlink:title=" ">
<polygon fill="none" stroke="#bfbfbf" points="340,-67.5 340,-86.5 390,-86.5 390,-67.5 340,-67.5"/>
<text text-anchor="middle" x="365" y="-74.5" font-family="Helvetica,sans-Serif" font-size="10.00">double</text>
</a>
</g>
</g>
<!-- Node10&#45;&gt;Node1 -->
<g id="edge10" class="edge">
<title>Node10&#45;&gt;Node1</title>
<path fill="none" stroke="#9a32cd" stroke-dasharray="5,2" d="M355.67,-58.16C349.11,-45.63 340.63,-29.41 335.51,-19.63"/>
<polygon fill="#9a32cd" stroke="#9a32cd" points="352.68,-60 360.41,-67.23 358.88,-56.75 352.68,-60"/>
<text text-anchor="middle" x="367" y="-41" font-family="Helvetica,sans-Serif" font-size="10.00"> expiry</text>
</g>
<!-- Node11 -->
<g id="node11" class="node">
<title>Node11</title>
<g id="a_node11"><a xlink:title=" ">
<polygon fill="none" stroke="#bfbfbf" points="408,-67.5 408,-86.5 506,-86.5 506,-67.5 408,-67.5"/>
<text text-anchor="middle" x="457" y="-74.5" font-family="Helvetica,sans-Serif" font-size="10.00">poll_layout_type</text>
</a>
</g>
</g>
<!-- Node11&#45;&gt;Node1 -->
<g id="edge12" class="edge">
<title>Node11&#45;&gt;Node1</title>
<path fill="none" stroke="#9a32cd" stroke-dasharray="5,2" d="M433.16,-62.4C419.95,-54.99 403.19,-45.77 388,-38 375.42,-31.57 361.05,-24.76 349.88,-19.59"/>
<polygon fill="#9a32cd" stroke="#9a32cd" points="431.64,-65.56 442.07,-67.43 435.08,-59.47 431.64,-65.56"/>
<text text-anchor="middle" x="437.5" y="-41" font-family="Helvetica,sans-Serif" font-size="10.00"> layout_type</text>
</g>
<!-- Node12 -->
<g id="node12" class="node">
<title>Node12</title>
<g id="a_node12"><a xlink:title=" ">
<polygon fill="none" stroke="#bfbfbf" points="524.5,-67.5 524.5,-86.5 589.5,-86.5 589.5,-67.5 524.5,-67.5"/>
<text text-anchor="middle" x="557" y="-74.5" font-family="Helvetica,sans-Serif" font-size="10.00">optional&lt;</text>
</a>
</g>
</g>
<!-- Node12&#45;&gt;Node1 -->
<g id="edge13" class="edge">
<title>Node12&#45;&gt;Node1</title>
<path fill="none" stroke="#9a32cd" stroke-dasharray="5,2" d="M531.78,-62.87C515.18,-54.7 492.75,-44.53 472,-38 434.44,-26.18 389.53,-18.67 360.65,-14.65"/>
<polygon fill="#9a32cd" stroke="#9a32cd" points="530.32,-66.05 540.83,-67.41 533.46,-59.8 530.32,-66.05"/>
<text text-anchor="middle" x="518.5" y="-41" font-family="Helvetica,sans-Serif" font-size="10.00"> results</text>
</g>
</g>
</svg>
