<?xml version="1.0" encoding="UTF-8" standalone="no"?>
<!DOCTYPE svg PUBLIC "-//W3C//DTD SVG 1.1//EN"
 "http://www.w3.org/Graphics/SVG/1.1/DTD/svg11.dtd">
<!-- Generated by graphviz version 2.43.0 (0)
 -->
<!-- Title: dpp::thread_member_update_t Pages: 1 -->
<svg width="1561pt" height="943pt"
 viewBox="0.00 0.00 1561.00 943.31" xmlns="http://www.w3.org/2000/svg" xmlns:xlink="http://www.w3.org/1999/xlink">
<g id="graph0" class="graph" transform="scale(1 1) rotate(0) translate(4 939.31)">
<title>dpp::thread_member_update_t</title>
<!-- Node1 -->
<g id="node1" class="node">
<title>Node1</title>
<g id="a_node1"><a xlink:title="Thread Member Update.">
<polygon fill="#bfbfbf" stroke="black" points="1434,-177 1434,-207 1553,-207 1553,-177 1434,-177"/>
<text text-anchor="start" x="1442" y="-195" font-family="Helvetica,sans-Serif" font-size="10.00">dpp::thread_member</text>
<text text-anchor="middle" x="1493.5" y="-184" font-family="Helvetica,sans-Serif" font-size="10.00">_update_t</text>
</a>
</g>
</g>
<!-- Node2 -->
<g id="node2" class="node">
<title>Node2</title>
<g id="a_node2"><a xlink:href="structdpp_1_1event__dispatch__t.html" target="_top" xlink:title="Base event parameter struct. Each event you receive from the library will have its parameter derived ...">
<polygon fill="none" stroke="black" points="1273,-562.5 1273,-581.5 1397,-581.5 1397,-562.5 1273,-562.5"/>
<text text-anchor="middle" x="1335" y="-569.5" font-family="Helvetica,sans-Serif" font-size="10.00">dpp::event_dispatch_t</text>
</a>
</g>
</g>
<!-- Node2&#45;&gt;Node1 -->
<g id="edge1" class="edge">
<title>Node2&#45;&gt;Node1</title>
<path fill="none" stroke="midnightblue" d="M1343.84,-552.95C1371.14,-486.67 1461.65,-266.91 1486.27,-207.13"/>
<polygon fill="midnightblue" stroke="midnightblue" points="1340.6,-551.65 1340.03,-562.22 1347.07,-554.31 1340.6,-551.65"/>
</g>
<!-- Node3 -->
<g id="node3" class="node">
<title>Node3</title>
<g id="a_node3"><a xlink:title=" ">
<polygon fill="none" stroke="#bfbfbf" points="258,-736.5 258,-755.5 323,-755.5 323,-736.5 258,-736.5"/>
<text text-anchor="middle" x="290.5" y="-743.5" font-family="Helvetica,sans-Serif" font-size="10.00">std::string</text>
</a>
</g>
</g>
<!-- Node3&#45;&gt;Node2 -->
<g id="edge2" class="edge">
<title>Node3&#45;&gt;Node2</title>
<path fill="none" stroke="#9a32cd" stroke-dasharray="5,2" d="M315.85,-761.22C330.32,-771.3 348.1,-785.65 360,-802 372.92,-819.75 360.42,-834.85 378,-848 409.47,-871.54 1048.69,-910.26 1084,-893 1227.11,-823.06 1312.08,-627.27 1330.29,-581.61"/>
<polygon fill="#9a32cd" stroke="#9a32cd" points="317.61,-758.19 307.36,-755.52 313.71,-764 317.61,-758.19"/>
<text text-anchor="middle" x="866.5" y="-898" font-family="Helvetica,sans-Serif" font-size="10.00"> raw_event</text>
</g>
<!-- Node5 -->
<g id="node5" class="node">
<title>Node5</title>
<g id="a_node5"><a xlink:href="classdpp_1_1discord__client.html" target="_top" xlink:title="Implements a discord client. Each discord_client connects to one shard and derives from a websocket c...">
<polygon fill="none" stroke="black" points="1102,-562.5 1102,-581.5 1210,-581.5 1210,-562.5 1102,-562.5"/>
<text text-anchor="middle" x="1156" y="-569.5" font-family="Helvetica,sans-Serif" font-size="10.00">dpp::discord_client</text>
</a>
</g>
</g>
<!-- Node3&#45;&gt;Node5 -->
<g id="edge41" class="edge">
<title>Node3&#45;&gt;Node5</title>
<path fill="none" stroke="#9a32cd" stroke-dasharray="5,2" d="M312.86,-761.69C326.87,-772.39 345.25,-787.25 360,-802 368.93,-810.93 366.58,-818.59 378,-824 482.86,-873.69 654.94,-830.95 929,-754 1000.59,-733.9 1027.58,-739.44 1084,-691 1120.69,-659.5 1143.53,-604.1 1151.66,-581.76"/>
<polygon fill="#9a32cd" stroke="#9a32cd" points="314.87,-758.82 304.78,-755.6 310.66,-764.41 314.87,-758.82"/>
<text text-anchor="middle" x="721.5" y="-837" font-family="Helvetica,sans-Serif" font-size="10.00"> sessionid</text>
<text text-anchor="middle" x="721.5" y="-826" font-family="Helvetica,sans-Serif" font-size="10.00">token</text>
</g>
<!-- Node7 -->
<g id="node7" class="node">
<title>Node7</title>
<g id="a_node7"><a xlink:href="classdpp_1_1ssl__client.html" target="_top" xlink:title="Implements a simple non&#45;blocking SSL stream client.">
<polygon fill="none" stroke="black" points="535,-625.5 535,-644.5 621,-644.5 621,-625.5 535,-625.5"/>
<text text-anchor="middle" x="578" y="-632.5" font-family="Helvetica,sans-Serif" font-size="10.00">dpp::ssl_client</text>
</a>
</g>
</g>
<!-- Node3&#45;&gt;Node7 -->
<g id="edge7" class="edge">
<title>Node3&#45;&gt;Node7</title>
<path fill="none" stroke="#9a32cd" stroke-dasharray="5,2" d="M307.66,-729.01C323.89,-713.02 350.4,-689.68 378,-677 427.74,-654.15 445.5,-665.59 499,-654 512.21,-651.14 526.61,-647.72 539.4,-644.57"/>
<polygon fill="#9a32cd" stroke="#9a32cd" points="305.1,-726.63 300.56,-736.2 310.08,-731.55 305.1,-726.63"/>
<text text-anchor="middle" x="438.5" y="-724" font-family="Helvetica,sans-Serif" font-size="10.00"> buffer</text>
<text text-anchor="middle" x="438.5" y="-713" font-family="Helvetica,sans-Serif" font-size="10.00">cipher</text>
<text text-anchor="middle" x="438.5" y="-702" font-family="Helvetica,sans-Serif" font-size="10.00">hostname</text>
<text text-anchor="middle" x="438.5" y="-691" font-family="Helvetica,sans-Serif" font-size="10.00">obuffer</text>
<text text-anchor="middle" x="438.5" y="-680" font-family="Helvetica,sans-Serif" font-size="10.00">port</text>
</g>
<!-- Node15 -->
<g id="node15" class="node">
<title>Node15</title>
<g id="a_node15"><a xlink:href="classdpp_1_1cluster.html" target="_top" xlink:title="The cluster class represents a group of shards and a command queue for sending and receiving commands...">
<polygon fill="none" stroke="black" points="829.5,-438.5 829.5,-457.5 903.5,-457.5 903.5,-438.5 829.5,-438.5"/>
<text text-anchor="middle" x="866.5" y="-445.5" font-family="Helvetica,sans-Serif" font-size="10.00">dpp::cluster</text>
</a>
</g>
</g>
<!-- Node3&#45;&gt;Node15 -->
<g id="edge17" class="edge">
<title>Node3&#45;&gt;Node15</title>
<path fill="none" stroke="#9a32cd" stroke-dasharray="5,2" d="M333.26,-749.38C430.06,-754.66 670.32,-752.6 786,-616 809.83,-587.86 789.06,-568.72 804,-535 817.71,-504.05 843.25,-472.89 856.69,-457.64"/>
<polygon fill="#9a32cd" stroke="#9a32cd" points="333.45,-745.89 323.26,-748.78 333.03,-752.87 333.45,-745.89"/>
<text text-anchor="middle" x="578" y="-745" font-family="Helvetica,sans-Serif" font-size="10.00"> token</text>
</g>
<!-- Node18 -->
<g id="node18" class="node">
<title>Node18</title>
<g id="a_node18"><a xlink:href="classdpp_1_1user.html" target="_top" xlink:title="Represents a user on discord. May or may not be a member of a dpp::guild.">
<polygon fill="none" stroke="black" points="547,-225.5 547,-244.5 609,-244.5 609,-225.5 547,-225.5"/>
<text text-anchor="middle" x="578" y="-232.5" font-family="Helvetica,sans-Serif" font-size="10.00">dpp::user</text>
</a>
</g>
</g>
<!-- Node3&#45;&gt;Node18 -->
<g id="edge26" class="edge">
<title>Node3&#45;&gt;Node18</title>
<path fill="none" stroke="#9a32cd" stroke-dasharray="5,2" d="M309.8,-729.41C326.11,-713.41 349.04,-687.59 360,-660 377.7,-615.44 352.08,-485.33 378,-445 411.35,-393.1 463.91,-427.74 499,-377 529.18,-333.37 484.02,-300.56 517,-259 524.39,-249.68 535.95,-243.97 546.96,-240.47"/>
<polygon fill="#9a32cd" stroke="#9a32cd" points="307.24,-727.02 302.41,-736.45 312.07,-732.09 307.24,-727.02"/>
<text text-anchor="middle" x="438.5" y="-448" font-family="Helvetica,sans-Serif" font-size="10.00"> username</text>
</g>
<!-- Node4 -->
<g id="node4" class="node">
<title>Node4</title>
<g id="a_node4"><a xlink:title=" ">
<polygon fill="none" stroke="#bfbfbf" points="17,-731 17,-761 121,-761 121,-731 17,-731"/>
<text text-anchor="start" x="25" y="-749" font-family="Helvetica,sans-Serif" font-size="10.00">std::basic_string&lt;</text>
<text text-anchor="middle" x="69" y="-738" font-family="Helvetica,sans-Serif" font-size="10.00"> Char &gt;</text>
</a>
</g>
</g>
<!-- Node4&#45;&gt;Node3 -->
<g id="edge3" class="edge">
<title>Node4&#45;&gt;Node3</title>
<path fill="none" stroke="midnightblue" d="M131.38,-746C172.53,-746 225.02,-746 257.96,-746"/>
<polygon fill="midnightblue" stroke="midnightblue" points="131.19,-742.5 121.19,-746 131.19,-749.5 131.19,-742.5"/>
</g>
<!-- Node5&#45;&gt;Node2 -->
<g id="edge4" class="edge">
<title>Node5&#45;&gt;Node2</title>
<path fill="none" stroke="#9a32cd" stroke-dasharray="5,2" d="M1220.52,-572C1237.56,-572 1255.94,-572 1272.85,-572"/>
<polygon fill="#9a32cd" stroke="#9a32cd" points="1220.11,-568.5 1210.11,-572 1220.11,-575.5 1220.11,-568.5"/>
<text text-anchor="middle" x="1241.5" y="-575" font-family="Helvetica,sans-Serif" font-size="10.00"> from</text>
</g>
<!-- Node6 -->
<g id="node6" class="node">
<title>Node6</title>
<g id="a_node6"><a xlink:href="classdpp_1_1websocket__client.html" target="_top" xlink:title="Implements a websocket client based on the SSL client.">
<polygon fill="none" stroke="black" points="804,-725.5 804,-744.5 929,-744.5 929,-725.5 804,-725.5"/>
<text text-anchor="middle" x="866.5" y="-732.5" font-family="Helvetica,sans-Serif" font-size="10.00">dpp::websocket_client</text>
</a>
</g>
</g>
<!-- Node6&#45;&gt;Node5 -->
<g id="edge5" class="edge">
<title>Node6&#45;&gt;Node5</title>
<path fill="none" stroke="midnightblue" d="M909.8,-722.4C955.27,-707.67 1028.49,-680.46 1084,-643 1110.3,-625.25 1135.09,-596.85 1147.22,-581.92"/>
<polygon fill="midnightblue" stroke="midnightblue" points="908.72,-719.07 900.26,-725.44 910.85,-725.74 908.72,-719.07"/>
</g>
<!-- Node7&#45;&gt;Node6 -->
<g id="edge6" class="edge">
<title>Node7&#45;&gt;Node6</title>
<path fill="none" stroke="midnightblue" d="M616.04,-647.93C674.39,-668.3 786.41,-707.39 838.11,-725.44"/>
<polygon fill="midnightblue" stroke="midnightblue" points="617.07,-644.58 606.47,-644.59 614.76,-651.19 617.07,-644.58"/>
</g>
<!-- Node8 -->
<g id="node8" class="node">
<title>Node8</title>
<g id="a_node8"><a xlink:title=" ">
<polygon fill="none" stroke="#bfbfbf" points="271.5,-811.5 271.5,-830.5 309.5,-830.5 309.5,-811.5 271.5,-811.5"/>
<text text-anchor="middle" x="290.5" y="-818.5" font-family="Helvetica,sans-Serif" font-size="10.00">bool</text>
</a>
</g>
</g>
<!-- Node8&#45;&gt;Node5 -->
<g id="edge15" class="edge">
<title>Node8&#45;&gt;Node5</title>
<path fill="none" stroke="#9a32cd" stroke-dasharray="5,2" d="M315.67,-836.36C330.06,-846.49 347.84,-860.84 360,-877 372.21,-893.23 361.05,-907.82 378,-919 459.5,-972.74 705.45,-874.12 786,-849 921.37,-806.78 981.48,-832.97 1084,-735 1130.86,-690.22 1148.62,-609.22 1153.49,-581.56"/>
<polygon fill="#9a32cd" stroke="#9a32cd" points="317.46,-833.35 307.23,-830.62 313.53,-839.14 317.46,-833.35"/>
<text text-anchor="middle" x="721.5" y="-905" font-family="Helvetica,sans-Serif" font-size="10.00"> ready</text>
<text text-anchor="middle" x="721.5" y="-894" font-family="Helvetica,sans-Serif" font-size="10.00">terminating</text>
</g>
<!-- Node8&#45;&gt;Node7 -->
<g id="edge8" class="edge">
<title>Node8&#45;&gt;Node7</title>
<path fill="none" stroke="#9a32cd" stroke-dasharray="5,2" d="M319.63,-814.49C361.89,-803.68 442.76,-778.84 499,-736 533.54,-709.69 560.91,-664.46 571.85,-644.71"/>
<polygon fill="#9a32cd" stroke="#9a32cd" points="318.63,-811.14 309.76,-816.94 320.31,-817.93 318.63,-811.14"/>
<text text-anchor="middle" x="438.5" y="-832" font-family="Helvetica,sans-Serif" font-size="10.00"> keepalive</text>
<text text-anchor="middle" x="438.5" y="-821" font-family="Helvetica,sans-Serif" font-size="10.00">make_new</text>
<text text-anchor="middle" x="438.5" y="-810" font-family="Helvetica,sans-Serif" font-size="10.00">nonblocking</text>
<text text-anchor="middle" x="438.5" y="-799" font-family="Helvetica,sans-Serif" font-size="10.00">plaintext</text>
</g>
<!-- Node9 -->
<g id="node9" class="node">
<title>Node9</title>
<g id="a_node9"><a xlink:title=" ">
<polygon fill="none" stroke="#bfbfbf" points="276,-593.5 276,-612.5 305,-612.5 305,-593.5 276,-593.5"/>
<text text-anchor="middle" x="290.5" y="-600.5" font-family="Helvetica,sans-Serif" font-size="10.00">int</text>
</a>
</g>
</g>
<!-- Node9&#45;&gt;Node7 -->
<g id="edge9" class="edge">
<title>Node9&#45;&gt;Node7</title>
<path fill="none" stroke="#9a32cd" stroke-dasharray="5,2" d="M315.44,-603.13C354.22,-603.65 433.07,-605.98 499,-616 513.74,-618.24 529.79,-621.93 543.47,-625.46"/>
<polygon fill="#9a32cd" stroke="#9a32cd" points="315.22,-599.63 305.18,-603.03 315.15,-606.63 315.22,-599.63"/>
<text text-anchor="middle" x="438.5" y="-619" font-family="Helvetica,sans-Serif" font-size="10.00"> sfd</text>
</g>
<!-- Node10 -->
<g id="node10" class="node">
<title>Node10</title>
<g id="a_node10"><a xlink:title=" ">
<polygon fill="none" stroke="#bfbfbf" points="230,-555.5 230,-574.5 351,-574.5 351,-555.5 230,-555.5"/>
<text text-anchor="middle" x="290.5" y="-562.5" font-family="Helvetica,sans-Serif" font-size="10.00">openssl_connection *</text>
</a>
</g>
</g>
<!-- Node10&#45;&gt;Node7 -->
<g id="edge10" class="edge">
<title>Node10&#45;&gt;Node7</title>
<path fill="none" stroke="#9a32cd" stroke-dasharray="5,2" d="M361.27,-561.79C403.35,-562.67 456.78,-568.95 499,-591 509.6,-596.54 507.19,-604.16 517,-611 525.56,-616.97 535.81,-621.77 545.41,-625.46"/>
<polygon fill="#9a32cd" stroke="#9a32cd" points="361.15,-558.29 351.11,-561.68 361.07,-565.29 361.15,-558.29"/>
<text text-anchor="middle" x="438.5" y="-594" font-family="Helvetica,sans-Serif" font-size="10.00"> ssl</text>
</g>
<!-- Node11 -->
<g id="node11" class="node">
<title>Node11</title>
<g id="a_node11"><a xlink:title=" ">
<polygon fill="none" stroke="#bfbfbf" points="266.5,-400.5 266.5,-419.5 314.5,-419.5 314.5,-400.5 266.5,-400.5"/>
<text text-anchor="middle" x="290.5" y="-407.5" font-family="Helvetica,sans-Serif" font-size="10.00">time_t</text>
</a>
</g>
</g>
<!-- Node11&#45;&gt;Node5 -->
<g id="edge38" class="edge">
<title>Node11&#45;&gt;Node5</title>
<path fill="none" stroke="#9a32cd" stroke-dasharray="5,2" d="M324.6,-418.6C340.7,-422.73 360.34,-427.71 378,-432 431.64,-445.03 459.56,-421.38 499,-460 522.26,-482.78 493.71,-508.25 517,-531 563.21,-576.13 739.48,-573.93 804,-577 928.3,-582.91 959.63,-581.37 1084,-577 1089.8,-576.8 1095.87,-576.5 1101.91,-576.15"/>
<polygon fill="#9a32cd" stroke="#9a32cd" points="325.15,-415.13 314.6,-416.02 323.41,-421.9 325.15,-415.13"/>
<text text-anchor="middle" x="721.5" y="-591" font-family="Helvetica,sans-Serif" font-size="10.00"> last_heartbeat</text>
<text text-anchor="middle" x="721.5" y="-580" font-family="Helvetica,sans-Serif" font-size="10.00">last_heartbeat_ack</text>
</g>
<!-- Node11&#45;&gt;Node7 -->
<g id="edge11" class="edge">
<title>Node11&#45;&gt;Node7</title>
<path fill="none" stroke="#9a32cd" stroke-dasharray="5,2" d="M315.13,-425.11C332.2,-435.66 356.02,-449.65 378,-460 429.91,-484.44 462.41,-460.8 499,-505 529.47,-541.81 486.98,-573.82 517,-611 522.07,-617.28 529.04,-621.93 536.43,-625.37"/>
<polygon fill="#9a32cd" stroke="#9a32cd" points="316.73,-421.98 306.4,-419.65 313.02,-427.92 316.73,-421.98"/>
<text text-anchor="middle" x="438.5" y="-508" font-family="Helvetica,sans-Serif" font-size="10.00"> last_tick</text>
</g>
<!-- Node11&#45;&gt;Node15 -->
<g id="edge18" class="edge">
<title>Node11&#45;&gt;Node15</title>
<path fill="none" stroke="#9a32cd" stroke-dasharray="5,2" d="M324.7,-406.12C380.11,-399.35 486.59,-384.96 499,-373 526.18,-346.81 488.39,-314.62 517,-290 562.33,-250.98 741.23,-241.34 786,-281 835.6,-324.94 761.51,-378.15 804,-429 810.38,-436.63 819.75,-441.25 829.27,-444.04"/>
<polygon fill="#9a32cd" stroke="#9a32cd" points="324.18,-402.66 314.67,-407.33 325.01,-409.61 324.18,-402.66"/>
<text text-anchor="middle" x="578" y="-293" font-family="Helvetica,sans-Serif" font-size="10.00"> last_identify</text>
</g>
<!-- Node33 -->
<g id="node33" class="node">
<title>Node33</title>
<g id="a_node33"><a xlink:href="structdpp_1_1thread__member.html" target="_top" xlink:title="represents membership of a user with a thread">
<polygon fill="none" stroke="black" points="518.5,-61.5 518.5,-80.5 637.5,-80.5 637.5,-61.5 518.5,-61.5"/>
<text text-anchor="middle" x="578" y="-68.5" font-family="Helvetica,sans-Serif" font-size="10.00">dpp::thread_member</text>
</a>
</g>
</g>
<!-- Node11&#45;&gt;Node33 -->
<g id="edge48" class="edge">
<title>Node11&#45;&gt;Node33</title>
<path fill="none" stroke="#9a32cd" stroke-dasharray="5,2" d="M314.13,-394.8C331.05,-384.11 355.11,-370.28 378,-362 429.47,-343.37 462.22,-379.54 499,-339 528.69,-306.28 499.81,-181.7 517,-141 527.59,-115.93 550.57,-93.29 564.82,-80.91"/>
<polygon fill="#9a32cd" stroke="#9a32cd" points="312.02,-392 305.52,-400.36 315.82,-397.88 312.02,-392"/>
<text text-anchor="middle" x="438.5" y="-365" font-family="Helvetica,sans-Serif" font-size="10.00"> joined</text>
</g>
<!-- Node12 -->
<g id="node12" class="node">
<title>Node12</title>
<g id="a_node12"><a xlink:title=" ">
<polygon fill="none" stroke="#bfbfbf" points="41,-287.5 41,-306.5 97,-306.5 97,-287.5 41,-287.5"/>
<text text-anchor="middle" x="69" y="-294.5" font-family="Helvetica,sans-Serif" font-size="10.00">uint64_t</text>
</a>
</g>
</g>
<!-- Node12&#45;&gt;Node5 -->
<g id="edge40" class="edge">
<title>Node12&#45;&gt;Node5</title>
<path fill="none" stroke="#9a32cd" stroke-dasharray="5,2" d="M84.4,-314.46C109.13,-343.22 162.71,-400.22 221,-429 235.13,-435.97 487.72,-474 499,-485 524.78,-510.14 492.15,-537.94 517,-564 561.57,-610.75 593,-594.25 657,-603 737.58,-614.01 1021.02,-603.2 1084,-593 1099.1,-590.55 1115.5,-585.84 1128.74,-581.5"/>
<polygon fill="#9a32cd" stroke="#9a32cd" points="86.8,-311.88 77.67,-306.51 81.45,-316.4 86.8,-311.88"/>
<text text-anchor="middle" x="578" y="-605" font-family="Helvetica,sans-Serif" font-size="10.00"> last_seq</text>
</g>
<!-- Node12&#45;&gt;Node7 -->
<g id="edge12" class="edge">
<title>Node12&#45;&gt;Node7</title>
<path fill="none" stroke="#9a32cd" stroke-dasharray="5,2" d="M73.07,-316.46C80.2,-354.8 101.6,-440.08 156,-483 217.29,-531.36 441.46,-506.24 499,-559 517.03,-575.53 500.12,-593.3 517,-611 522.96,-617.25 530.77,-621.91 538.76,-625.38"/>
<polygon fill="#9a32cd" stroke="#9a32cd" points="76.51,-315.83 71.36,-306.57 69.61,-317.02 76.51,-315.83"/>
<text text-anchor="middle" x="290.5" y="-536" font-family="Helvetica,sans-Serif" font-size="10.00"> bytes_in</text>
<text text-anchor="middle" x="290.5" y="-525" font-family="Helvetica,sans-Serif" font-size="10.00">bytes_out</text>
</g>
<!-- Node19 -->
<g id="node19" class="node">
<title>Node19</title>
<g id="a_node19"><a xlink:href="classdpp_1_1managed.html" target="_top" xlink:title="The managed class is the base class for various types that can be stored in a cache that are identifi...">
<polygon fill="none" stroke="black" points="247.5,-211.5 247.5,-230.5 333.5,-230.5 333.5,-211.5 247.5,-211.5"/>
<text text-anchor="middle" x="290.5" y="-218.5" font-family="Helvetica,sans-Serif" font-size="10.00">dpp::managed</text>
</a>
</g>
</g>
<!-- Node12&#45;&gt;Node19 -->
<g id="edge23" class="edge">
<title>Node12&#45;&gt;Node19</title>
<path fill="none" stroke="#9a32cd" stroke-dasharray="5,2" d="M102.96,-283.57C133.35,-271.43 179.84,-253.45 221,-240 231.21,-236.67 242.39,-233.4 252.7,-230.55"/>
<polygon fill="#9a32cd" stroke="#9a32cd" points="101.28,-280.48 93.31,-287.45 103.89,-286.97 101.28,-280.48"/>
<text text-anchor="middle" x="179.5" y="-266" font-family="Helvetica,sans-Serif" font-size="10.00"> id</text>
</g>
<!-- Node22 -->
<g id="node22" class="node">
<title>Node22</title>
<g id="a_node22"><a xlink:href="structdpp_1_1utility_1_1iconhash.html" target="_top" xlink:title="Store a 128 bit icon hash (profile picture, server icon etc) as a 128 bit binary value made of two ui...">
<polygon fill="none" stroke="black" points="231.5,-287.5 231.5,-306.5 349.5,-306.5 349.5,-287.5 231.5,-287.5"/>
<text text-anchor="middle" x="290.5" y="-294.5" font-family="Helvetica,sans-Serif" font-size="10.00">dpp::utility::iconhash</text>
</a>
</g>
</g>
<!-- Node12&#45;&gt;Node22 -->
<g id="edge28" class="edge">
<title>Node12&#45;&gt;Node22</title>
<path fill="none" stroke="#9a32cd" stroke-dasharray="5,2" d="M107.77,-297C141.73,-297 192.13,-297 231.25,-297"/>
<polygon fill="#9a32cd" stroke="#9a32cd" points="107.36,-293.5 97.36,-297 107.36,-300.5 107.36,-293.5"/>
<text text-anchor="middle" x="179.5" y="-311" font-family="Helvetica,sans-Serif" font-size="10.00"> first</text>
<text text-anchor="middle" x="179.5" y="-300" font-family="Helvetica,sans-Serif" font-size="10.00">second</text>
</g>
<!-- Node12&#45;&gt;Node33 -->
<g id="edge47" class="edge">
<title>Node12&#45;&gt;Node33</title>
<path fill="none" stroke="#9a32cd" stroke-dasharray="5,2" d="M82.13,-279.02C116.14,-228.7 210.63,-89.77 221,-84 322.99,-27.2 468.11,-47.09 537.32,-61.46"/>
<polygon fill="#9a32cd" stroke="#9a32cd" points="79.21,-277.08 76.51,-287.33 85.01,-281 79.21,-277.08"/>
<text text-anchor="middle" x="290.5" y="-98" font-family="Helvetica,sans-Serif" font-size="10.00"> thread_id</text>
<text text-anchor="middle" x="290.5" y="-87" font-family="Helvetica,sans-Serif" font-size="10.00">user_id</text>
</g>
<!-- Node13 -->
<g id="node13" class="node">
<title>Node13</title>
<g id="a_node13"><a xlink:title=" ">
<polygon fill="none" stroke="#bfbfbf" points="221,-886.5 221,-905.5 360,-905.5 360,-886.5 221,-886.5"/>
<text text-anchor="middle" x="290.5" y="-893.5" font-family="Helvetica,sans-Serif" font-size="10.00">function&lt; dpp::socket()&gt;</text>
</a>
</g>
</g>
<!-- Node13&#45;&gt;Node7 -->
<g id="edge13" class="edge">
<title>Node13&#45;&gt;Node7</title>
<path fill="none" stroke="#9a32cd" stroke-dasharray="5,2" d="M370.31,-896.49C414.4,-892.39 466.81,-879.46 499,-844 535.25,-804.07 497.45,-774.26 517,-724 529.43,-692.05 554.99,-660.05 568.38,-644.58"/>
<polygon fill="#9a32cd" stroke="#9a32cd" points="369.86,-893.02 360.17,-897.3 370.41,-899.99 369.86,-893.02"/>
<text text-anchor="middle" x="438.5" y="-909" font-family="Helvetica,sans-Serif" font-size="10.00"> custom_readable_fd</text>
<text text-anchor="middle" x="438.5" y="-898" font-family="Helvetica,sans-Serif" font-size="10.00">custom_writeable_fd</text>
</g>
<!-- Node14 -->
<g id="node14" class="node">
<title>Node14</title>
<g id="a_node14"><a xlink:title=" ">
<polygon fill="none" stroke="#bfbfbf" points="238.5,-631.5 238.5,-650.5 342.5,-650.5 342.5,-631.5 238.5,-631.5"/>
<text text-anchor="middle" x="290.5" y="-638.5" font-family="Helvetica,sans-Serif" font-size="10.00">function&lt; void()&gt;</text>
</a>
</g>
</g>
<!-- Node14&#45;&gt;Node7 -->
<g id="edge14" class="edge">
<title>Node14&#45;&gt;Node7</title>
<path fill="none" stroke="#9a32cd" stroke-dasharray="5,2" d="M352.85,-633.82C361.29,-633.07 369.85,-632.42 378,-632 431.71,-629.21 445.23,-630.97 499,-632 510.65,-632.22 523.28,-632.64 534.91,-633.08"/>
<polygon fill="#9a32cd" stroke="#9a32cd" points="352.28,-630.36 342.66,-634.79 352.95,-637.33 352.28,-630.36"/>
<text text-anchor="middle" x="438.5" y="-646" font-family="Helvetica,sans-Serif" font-size="10.00"> custom_readable_ready</text>
<text text-anchor="middle" x="438.5" y="-635" font-family="Helvetica,sans-Serif" font-size="10.00">custom_writeable_ready</text>
</g>
<!-- Node15&#45;&gt;Node5 -->
<g id="edge16" class="edge">
<title>Node15&#45;&gt;Node5</title>
<path fill="none" stroke="#9a32cd" stroke-dasharray="5,2" d="M913.55,-445.16C959.76,-444.42 1031.43,-449.19 1084,-480 1117.94,-499.89 1141.37,-542.86 1150.61,-562.21"/>
<polygon fill="#9a32cd" stroke="#9a32cd" points="913.43,-441.66 903.53,-445.41 913.61,-448.66 913.43,-441.66"/>
<text text-anchor="middle" x="1015.5" y="-483" font-family="Helvetica,sans-Serif" font-size="10.00"> creator</text>
</g>
<!-- Node16 -->
<g id="node16" class="node">
<title>Node16</title>
<g id="a_node16"><a xlink:title=" ">
<polygon fill="none" stroke="#bfbfbf" points="262.5,-115.5 262.5,-134.5 318.5,-134.5 318.5,-115.5 262.5,-115.5"/>
<text text-anchor="middle" x="290.5" y="-122.5" font-family="Helvetica,sans-Serif" font-size="10.00">uint32_t</text>
</a>
</g>
</g>
<!-- Node16&#45;&gt;Node5 -->
<g id="edge37" class="edge">
<title>Node16&#45;&gt;Node5</title>
<path fill="none" stroke="#9a32cd" stroke-dasharray="5,2" d="M328.75,-120.82C428.86,-110.1 701.86,-84.52 786,-114 945.97,-170.04 987.66,-212.54 1084,-352 1133.04,-423 1149.79,-529.92 1153.89,-562.34"/>
<polygon fill="#9a32cd" stroke="#9a32cd" points="328.35,-117.34 318.79,-121.9 329.1,-124.3 328.35,-117.34"/>
<text text-anchor="middle" x="721.5" y="-172" font-family="Helvetica,sans-Serif" font-size="10.00"> heartbeat_interval</text>
<text text-anchor="middle" x="721.5" y="-161" font-family="Helvetica,sans-Serif" font-size="10.00">intents</text>
<text text-anchor="middle" x="721.5" y="-150" font-family="Helvetica,sans-Serif" font-size="10.00">max_shards</text>
<text text-anchor="middle" x="721.5" y="-139" font-family="Helvetica,sans-Serif" font-size="10.00">reconnects</text>
<text text-anchor="middle" x="721.5" y="-128" font-family="Helvetica,sans-Serif" font-size="10.00">resumes</text>
<text text-anchor="middle" x="721.5" y="-117" font-family="Helvetica,sans-Serif" font-size="10.00">shard_id</text>
</g>
<!-- Node16&#45;&gt;Node15 -->
<g id="edge19" class="edge">
<title>Node16&#45;&gt;Node15</title>
<path fill="none" stroke="#9a32cd" stroke-dasharray="5,2" d="M328.88,-127.92C406.54,-134.32 582.77,-150.76 639,-172 647.99,-175.4 648.22,-180.09 657,-184 711.05,-208.09 747.76,-171.83 786,-217 816.55,-253.09 774.35,-392.17 804,-429 810.31,-436.83 819.78,-441.51 829.42,-444.28"/>
<polygon fill="#9a32cd" stroke="#9a32cd" points="328.85,-124.4 318.6,-127.08 328.28,-131.38 328.85,-124.4"/>
<text text-anchor="middle" x="578" y="-208" font-family="Helvetica,sans-Serif" font-size="10.00"> cluster_id</text>
<text text-anchor="middle" x="578" y="-197" font-family="Helvetica,sans-Serif" font-size="10.00">intents</text>
<text text-anchor="middle" x="578" y="-186" font-family="Helvetica,sans-Serif" font-size="10.00">maxclusters</text>
<text text-anchor="middle" x="578" y="-175" font-family="Helvetica,sans-Serif" font-size="10.00">numshards</text>
</g>
<!-- Node16&#45;&gt;Node18 -->
<g id="edge29" class="edge">
<title>Node16&#45;&gt;Node18</title>
<path fill="none" stroke="#9a32cd" stroke-dasharray="5,2" d="M328.21,-137.65C343.52,-142.73 361.53,-148.44 378,-153 431.2,-167.74 454.36,-148.53 499,-181 511.57,-190.15 505.16,-200.92 517,-211 525.54,-218.27 536.57,-223.53 546.83,-227.23"/>
<polygon fill="#9a32cd" stroke="#9a32cd" points="329.18,-134.29 318.59,-134.43 326.96,-140.92 329.18,-134.29"/>
<text text-anchor="middle" x="438.5" y="-184" font-family="Helvetica,sans-Serif" font-size="10.00"> flags</text>
</g>
<!-- Node16&#45;&gt;Node33 -->
<g id="edge49" class="edge">
<title>Node16&#45;&gt;Node33</title>
<path fill="none" stroke="#9a32cd" stroke-dasharray="5,2" d="M321.56,-111.32C337.92,-104.45 358.71,-96.61 378,-92 424.46,-80.89 478.42,-75.65 518.42,-73.19"/>
<polygon fill="#9a32cd" stroke="#9a32cd" points="319.79,-108.27 311.99,-115.44 322.56,-114.7 319.79,-108.27"/>
<text text-anchor="middle" x="438.5" y="-95" font-family="Helvetica,sans-Serif" font-size="10.00"> flags</text>
</g>
<!-- Node17 -->
<g id="node17" class="node">
<title>Node17</title>
<g id="a_node17"><a xlink:title=" ">
<polygon fill="none" stroke="#bfbfbf" points="553,-464.5 553,-483.5 603,-483.5 603,-464.5 553,-464.5"/>
<text text-anchor="middle" x="578" y="-471.5" font-family="Helvetica,sans-Serif" font-size="10.00">double</text>
</a>
</g>
</g>
<!-- Node17&#45;&gt;Node5 -->
<g id="edge43" class="edge">
<title>Node17&#45;&gt;Node5</title>
<path fill="none" stroke="#9a32cd" stroke-dasharray="5,2" d="M613.11,-480.95C622.03,-483.76 631.3,-487.66 639,-493 649.66,-500.4 645.63,-509.74 657,-516 710.22,-545.27 868.63,-536.3 929,-543 997.98,-550.65 1015.19,-552.94 1084,-562 1089.8,-562.76 1095.86,-563.58 1101.9,-564.41"/>
<polygon fill="#9a32cd" stroke="#9a32cd" points="613.85,-477.52 603.27,-478.2 611.97,-484.26 613.85,-477.52"/>
<text text-anchor="middle" x="866.5" y="-546" font-family="Helvetica,sans-Serif" font-size="10.00"> websocket_ping</text>
</g>
<!-- Node17&#45;&gt;Node15 -->
<g id="edge20" class="edge">
<title>Node17&#45;&gt;Node15</title>
<path fill="none" stroke="#9a32cd" stroke-dasharray="5,2" d="M613.63,-470.86C668.18,-465.91 773.63,-456.34 829.2,-451.29"/>
<polygon fill="#9a32cd" stroke="#9a32cd" points="613.07,-467.39 603.43,-471.78 613.7,-474.37 613.07,-467.39"/>
<text text-anchor="middle" x="721.5" y="-470" font-family="Helvetica,sans-Serif" font-size="10.00"> rest_ping</text>
</g>
<!-- Node18&#45;&gt;Node15 -->
<g id="edge21" class="edge">
<title>Node18&#45;&gt;Node15</title>
<path fill="none" stroke="#9a32cd" stroke-dasharray="5,2" d="M619.51,-228.62C672.83,-221.22 762.54,-212.6 786,-234 818.15,-263.32 776.58,-395.21 804,-429 810.34,-436.81 819.82,-441.48 829.45,-444.25"/>
<polygon fill="#9a32cd" stroke="#9a32cd" points="618.77,-225.19 609.36,-230.07 619.76,-232.12 618.77,-225.19"/>
<text text-anchor="middle" x="721.5" y="-237" font-family="Helvetica,sans-Serif" font-size="10.00"> me</text>
</g>
<!-- Node19&#45;&gt;Node18 -->
<g id="edge22" class="edge">
<title>Node19&#45;&gt;Node18</title>
<path fill="none" stroke="midnightblue" d="M343.96,-223.57C403.55,-226.49 498.76,-231.16 546.95,-233.53"/>
<polygon fill="midnightblue" stroke="midnightblue" points="343.79,-220.06 333.63,-223.07 343.44,-227.05 343.79,-220.06"/>
</g>
<!-- Node20 -->
<g id="node20" class="node">
<title>Node20</title>
<g id="a_node20"><a xlink:href="structdpp_1_1json__interface.html" target="_top" xlink:title=" ">
<polygon fill="none" stroke="black" points="235.5,-162 235.5,-192 345.5,-192 345.5,-162 235.5,-162"/>
<text text-anchor="start" x="243.5" y="-180" font-family="Helvetica,sans-Serif" font-size="10.00">dpp::json_interface</text>
<text text-anchor="middle" x="290.5" y="-169" font-family="Helvetica,sans-Serif" font-size="10.00">&lt; user &gt;</text>
</a>
</g>
</g>
<!-- Node20&#45;&gt;Node18 -->
<g id="edge24" class="edge">
<title>Node20&#45;&gt;Node18</title>
<path fill="none" stroke="midnightblue" d="M355.62,-190.03C415.32,-202.15 501.7,-219.7 546.88,-228.88"/>
<polygon fill="midnightblue" stroke="midnightblue" points="356.03,-186.54 345.54,-187.98 354.64,-193.4 356.03,-186.54"/>
</g>
<!-- Node21 -->
<g id="node21" class="node">
<title>Node21</title>
<g id="a_node21"><a xlink:href="structdpp_1_1json__interface.html" target="_top" xlink:title="Represents an interface for an object that can optionally implement functions for converting to and f...">
<polygon fill="none" stroke="black" points="0,-167.5 0,-186.5 138,-186.5 138,-167.5 0,-167.5"/>
<text text-anchor="middle" x="69" y="-174.5" font-family="Helvetica,sans-Serif" font-size="10.00">dpp::json_interface&lt; T &gt;</text>
</a>
</g>
</g>
<!-- Node21&#45;&gt;Node20 -->
<g id="edge25" class="edge">
<title>Node21&#45;&gt;Node20</title>
<path fill="none" stroke="orange" stroke-dasharray="5,2" d="M148.28,-177C177.07,-177 209.01,-177 235.22,-177"/>
<polygon fill="orange" stroke="orange" points="148.25,-173.5 138.25,-177 148.25,-180.5 148.25,-173.5"/>
<text text-anchor="middle" x="179.5" y="-180" font-family="Helvetica,sans-Serif" font-size="10.00"> &lt; user &gt;</text>
</g>
<!-- Node22&#45;&gt;Node18 -->
<g id="edge27" class="edge">
<title>Node22&#45;&gt;Node18</title>
<path fill="none" stroke="#9a32cd" stroke-dasharray="5,2" d="M359.79,-291.88C400.75,-287.65 453.54,-280.12 499,-267 507.41,-264.57 508.93,-262.4 517,-259 528.58,-254.11 541.51,-248.91 552.39,-244.6"/>
<polygon fill="#9a32cd" stroke="#9a32cd" points="359.25,-288.42 349.65,-292.89 359.94,-295.39 359.25,-288.42"/>
<text text-anchor="middle" x="438.5" y="-293" font-family="Helvetica,sans-Serif" font-size="10.00"> avatar</text>
</g>
<!-- Node23 -->
<g id="node23" class="node">
<title>Node23</title>
<g id="a_node23"><a xlink:title=" ">
<polygon fill="none" stroke="#bfbfbf" points="262.5,-325.5 262.5,-344.5 318.5,-344.5 318.5,-325.5 262.5,-325.5"/>
<text text-anchor="middle" x="290.5" y="-332.5" font-family="Helvetica,sans-Serif" font-size="10.00">uint16_t</text>
</a>
</g>
</g>
<!-- Node23&#45;&gt;Node18 -->
<g id="edge30" class="edge">
<title>Node23&#45;&gt;Node18</title>
<path fill="none" stroke="#9a32cd" stroke-dasharray="5,2" d="M329.13,-331.61C385.31,-326.26 485.94,-315.36 499,-305 516.2,-291.35 501.53,-274.58 517,-259 525.06,-250.88 536.22,-245.42 546.74,-241.79"/>
<polygon fill="#9a32cd" stroke="#9a32cd" points="328.49,-328.16 318.86,-332.58 329.15,-335.13 328.49,-328.16"/>
<text text-anchor="middle" x="438.5" y="-330" font-family="Helvetica,sans-Serif" font-size="10.00"> discriminator</text>
</g>
<!-- Node24 -->
<g id="node24" class="node">
<title>Node24</title>
<g id="a_node24"><a xlink:title=" ">
<polygon fill="none" stroke="#bfbfbf" points="265.5,-249.5 265.5,-268.5 315.5,-268.5 315.5,-249.5 265.5,-249.5"/>
<text text-anchor="middle" x="290.5" y="-256.5" font-family="Helvetica,sans-Serif" font-size="10.00">uint8_t</text>
</a>
</g>
</g>
<!-- Node24&#45;&gt;Node18 -->
<g id="edge31" class="edge">
<title>Node24&#45;&gt;Node18</title>
<path fill="none" stroke="#9a32cd" stroke-dasharray="5,2" d="M326.04,-256.1C382.43,-251.36 493.34,-242.03 546.79,-237.54"/>
<polygon fill="#9a32cd" stroke="#9a32cd" points="325.51,-252.63 315.84,-256.95 326.1,-259.6 325.51,-252.63"/>
<text text-anchor="middle" x="438.5" y="-255" font-family="Helvetica,sans-Serif" font-size="10.00"> refcount</text>
</g>
<!-- Node25 -->
<g id="node25" class="node">
<title>Node25</title>
<g id="a_node25"><a xlink:href="structdpp_1_1cache__policy__t.html" target="_top" xlink:title="Represents the caching policy of the cluster.">
<polygon fill="none" stroke="black" points="521.5,-8.5 521.5,-27.5 634.5,-27.5 634.5,-8.5 521.5,-8.5"/>
<text text-anchor="middle" x="578" y="-15.5" font-family="Helvetica,sans-Serif" font-size="10.00">dpp::cache_policy_t</text>
</a>
</g>
</g>
<!-- Node25&#45;&gt;Node15 -->
<g id="edge32" class="edge">
<title>Node25&#45;&gt;Node15</title>
<path fill="none" stroke="#9a32cd" stroke-dasharray="5,2" d="M645.12,-20.26C692.32,-25.7 753.05,-41.29 786,-84 832.9,-144.78 756.83,-368.43 804,-429 810.18,-436.94 819.62,-441.64 829.25,-444.4"/>
<polygon fill="#9a32cd" stroke="#9a32cd" points="645.28,-16.76 634.97,-19.22 644.56,-23.72 645.28,-16.76"/>
<text text-anchor="middle" x="721.5" y="-87" font-family="Helvetica,sans-Serif" font-size="10.00"> cache_policy</text>
</g>
<!-- Node26 -->
<g id="node26" class="node">
<title>Node26</title>
<g id="a_node26"><a xlink:title=" ">
<polygon fill="none" stroke="#bfbfbf" points="226.5,-0.5 226.5,-19.5 354.5,-19.5 354.5,-0.5 226.5,-0.5"/>
<text text-anchor="middle" x="290.5" y="-7.5" font-family="Helvetica,sans-Serif" font-size="10.00">cache_policy_setting_t</text>
</a>
</g>
</g>
<!-- Node26&#45;&gt;Node25 -->
<g id="edge33" class="edge">
<title>Node26&#45;&gt;Node25</title>
<path fill="none" stroke="#9a32cd" stroke-dasharray="5,2" d="M364.78,-8.84C404.52,-8.59 454.48,-8.9 499,-11 506.2,-11.34 513.76,-11.84 521.22,-12.42"/>
<polygon fill="#9a32cd" stroke="#9a32cd" points="364.62,-5.34 354.65,-8.92 364.67,-12.34 364.62,-5.34"/>
<text text-anchor="middle" x="438.5" y="-36" font-family="Helvetica,sans-Serif" font-size="10.00"> emoji_policy</text>
<text text-anchor="middle" x="438.5" y="-25" font-family="Helvetica,sans-Serif" font-size="10.00">role_policy</text>
<text text-anchor="middle" x="438.5" y="-14" font-family="Helvetica,sans-Serif" font-size="10.00">user_policy</text>
</g>
<!-- Node27 -->
<g id="node27" class="node">
<title>Node27</title>
<g id="a_node27"><a xlink:title=" ">
<polygon fill="none" stroke="#bfbfbf" points="517,-502.5 517,-521.5 639,-521.5 639,-502.5 517,-502.5"/>
<text text-anchor="middle" x="578" y="-509.5" font-family="Helvetica,sans-Serif" font-size="10.00">websocket_protocol_t</text>
</a>
</g>
</g>
<!-- Node27&#45;&gt;Node5 -->
<g id="edge44" class="edge">
<title>Node27&#45;&gt;Node5</title>
<path fill="none" stroke="#9a32cd" stroke-dasharray="5,2" d="M612.27,-525.48C629.25,-532.12 648.14,-539.12 657,-541 740.68,-558.75 991.65,-567.56 1101.98,-570.66"/>
<polygon fill="#9a32cd" stroke="#9a32cd" points="613.18,-522.07 602.59,-521.64 610.6,-528.58 613.18,-522.07"/>
<text text-anchor="middle" x="866.5" y="-568" font-family="Helvetica,sans-Serif" font-size="10.00"> protocol</text>
</g>
<!-- Node27&#45;&gt;Node15 -->
<g id="edge34" class="edge">
<title>Node27&#45;&gt;Node15</title>
<path fill="none" stroke="#9a32cd" stroke-dasharray="5,2" d="M649.24,-506.4C689.76,-502.04 741.37,-494.55 786,-482 807.68,-475.91 831.25,-465.28 847.05,-457.53"/>
<polygon fill="#9a32cd" stroke="#9a32cd" points="648.78,-502.93 639.19,-507.44 649.5,-509.89 648.78,-502.93"/>
<text text-anchor="middle" x="721.5" y="-509" font-family="Helvetica,sans-Serif" font-size="10.00"> ws_mode</text>
</g>
<!-- Node28 -->
<g id="node28" class="node">
<title>Node28</title>
<g id="a_node28"><a xlink:title=" ">
<polygon fill="none" stroke="#bfbfbf" points="524.5,-426.5 524.5,-445.5 631.5,-445.5 631.5,-426.5 524.5,-426.5"/>
<text text-anchor="middle" x="578" y="-433.5" font-family="Helvetica,sans-Serif" font-size="10.00">condition_variable</text>
</a>
</g>
</g>
<!-- Node28&#45;&gt;Node15 -->
<g id="edge35" class="edge">
<title>Node28&#45;&gt;Node15</title>
<path fill="none" stroke="#9a32cd" stroke-dasharray="5,2" d="M641.96,-434.14C683.02,-433.46 737.75,-433.56 786,-437 800.18,-438.01 815.68,-439.96 829.2,-441.94"/>
<polygon fill="#9a32cd" stroke="#9a32cd" points="641.76,-430.64 631.82,-434.33 641.89,-437.64 641.76,-430.64"/>
<text text-anchor="middle" x="721.5" y="-440" font-family="Helvetica,sans-Serif" font-size="10.00"> terminating</text>
</g>
<!-- Node29 -->
<g id="node29" class="node">
<title>Node29</title>
<g id="a_node29"><a xlink:title=" ">
<polygon fill="none" stroke="#bfbfbf" points="530,-310.5 530,-329.5 626,-329.5 626,-310.5 530,-310.5"/>
<text text-anchor="middle" x="578" y="-317.5" font-family="Helvetica,sans-Serif" font-size="10.00">event_router_t&lt;</text>
</a>
</g>
</g>
<!-- Node29&#45;&gt;Node15 -->
<g id="edge36" class="edge">
<title>Node29&#45;&gt;Node15</title>
<path fill="none" stroke="#9a32cd" stroke-dasharray="5,2" d="M609.31,-306.73C653.76,-289.55 736.69,-266.53 786,-309 826.86,-344.19 768.85,-388.1 804,-429 810.48,-436.54 819.89,-441.14 829.41,-443.92"/>
<polygon fill="#9a32cd" stroke="#9a32cd" points="607.9,-303.52 599.92,-310.49 610.5,-310.02 607.9,-303.52"/>
<text text-anchor="middle" x="721.5" y="-422" font-family="Helvetica,sans-Serif" font-size="10.00"> on_autocomplete</text>
<text text-anchor="middle" x="721.5" y="-411" font-family="Helvetica,sans-Serif" font-size="10.00">on_automod_rule_create</text>
<text text-anchor="middle" x="721.5" y="-400" font-family="Helvetica,sans-Serif" font-size="10.00">on_automod_rule_delete</text>
<text text-anchor="middle" x="721.5" y="-389" font-family="Helvetica,sans-Serif" font-size="10.00">on_automod_rule_execute</text>
<text text-anchor="middle" x="721.5" y="-378" font-family="Helvetica,sans-Serif" font-size="10.00">on_automod_rule_update</text>
<text text-anchor="middle" x="721.5" y="-367" font-family="Helvetica,sans-Serif" font-size="10.00">on_button_click</text>
<text text-anchor="middle" x="721.5" y="-356" font-family="Helvetica,sans-Serif" font-size="10.00">on_channel_create</text>
<text text-anchor="middle" x="721.5" y="-345" font-family="Helvetica,sans-Serif" font-size="10.00">on_channel_delete</text>
<text text-anchor="middle" x="721.5" y="-334" font-family="Helvetica,sans-Serif" font-size="10.00">on_channel_pins_update</text>
<text text-anchor="middle" x="721.5" y="-323" font-family="Helvetica,sans-Serif" font-size="10.00">on_channel_update</text>
<text text-anchor="middle" x="721.5" y="-312" font-family="Helvetica,sans-Serif" font-size="10.00">...</text>
</g>
<!-- Node30 -->
<g id="node30" class="node">
<title>Node30</title>
<g id="a_node30"><a xlink:title=" ">
<polygon fill="none" stroke="#bfbfbf" points="810,-400.5 810,-419.5 923,-419.5 923,-400.5 810,-400.5"/>
<text text-anchor="middle" x="866.5" y="-407.5" font-family="Helvetica,sans-Serif" font-size="10.00">native_handle_type</text>
</a>
</g>
</g>
<!-- Node30&#45;&gt;Node5 -->
<g id="edge39" class="edge">
<title>Node30&#45;&gt;Node5</title>
<path fill="none" stroke="#9a32cd" stroke-dasharray="5,2" d="M933.33,-400.65C979.39,-397.63 1040.26,-401.04 1084,-431 1131.03,-463.21 1148.51,-536.16 1153.41,-562.39"/>
<polygon fill="#9a32cd" stroke="#9a32cd" points="932.84,-397.18 923.14,-401.44 933.38,-404.16 932.84,-397.18"/>
<text text-anchor="middle" x="1015.5" y="-434" font-family="Helvetica,sans-Serif" font-size="10.00"> thread_id</text>
</g>
<!-- Node31 -->
<g id="node31" class="node">
<title>Node31</title>
<g id="a_node31"><a xlink:title=" ">
<polygon fill="none" stroke="#bfbfbf" points="832,-362.5 832,-381.5 901,-381.5 901,-362.5 832,-362.5"/>
<text text-anchor="middle" x="866.5" y="-369.5" font-family="Helvetica,sans-Serif" font-size="10.00">std::mutex</text>
</a>
</g>
</g>
<!-- Node31&#45;&gt;Node5 -->
<g id="edge42" class="edge">
<title>Node31&#45;&gt;Node5</title>
<path fill="none" stroke="#9a32cd" stroke-dasharray="5,2" d="M911.23,-361.79C958.56,-353.43 1033.97,-348.22 1084,-385 1143.87,-429.02 1153.26,-530.12 1154.73,-562.11"/>
<polygon fill="#9a32cd" stroke="#9a32cd" points="910.46,-358.38 901.29,-363.67 911.76,-365.26 910.46,-358.38"/>
<text text-anchor="middle" x="1015.5" y="-388" font-family="Helvetica,sans-Serif" font-size="10.00"> voice_mutex</text>
</g>
<!-- Node32 -->
<g id="node32" class="node">
<title>Node32</title>
<g id="a_node32"><a xlink:title=" ">
<polygon fill="none" stroke="#bfbfbf" points="816,-856.5 816,-875.5 917,-875.5 917,-856.5 816,-856.5"/>
<text text-anchor="middle" x="866.5" y="-863.5" font-family="Helvetica,sans-Serif" font-size="10.00">unordered_map&lt;</text>
</a>
</g>
</g>
<!-- Node32&#45;&gt;Node5 -->
<g id="edge45" class="edge">
<title>Node32&#45;&gt;Node5</title>
<path fill="none" stroke="#9a32cd" stroke-dasharray="5,2" d="M927.08,-876.23C975.08,-880.9 1041.37,-878.79 1084,-842 1125.19,-806.45 1148.74,-625.61 1153.91,-581.64"/>
<polygon fill="#9a32cd" stroke="#9a32cd" points="927.45,-872.75 917.13,-875.14 926.69,-879.71 927.45,-872.75"/>
<text text-anchor="middle" x="1015.5" y="-881" font-family="Helvetica,sans-Serif" font-size="10.00"> connecting_voice_channels</text>
</g>
<!-- Node33&#45;&gt;Node1 -->
<g id="edge46" class="edge">
<title>Node33&#45;&gt;Node1</title>
<path fill="none" stroke="#9a32cd" stroke-dasharray="5,2" d="M647.76,-63.12C705.73,-57.16 790.93,-50 865.5,-50 865.5,-50 865.5,-50 1336,-50 1410.84,-50 1465.78,-140.17 1485.02,-176.8"/>
<polygon fill="#9a32cd" stroke="#9a32cd" points="647.2,-59.66 637.62,-64.18 647.93,-66.62 647.2,-59.66"/>
<text text-anchor="middle" x="1156" y="-53" font-family="Helvetica,sans-Serif" font-size="10.00"> updated</text>
</g>
</g>
</svg>
