<?xml version="1.0" encoding="UTF-8" standalone="no"?>
<!DOCTYPE svg PUBLIC "-//W3C//DTD SVG 1.1//EN"
 "http://www.w3.org/Graphics/SVG/1.1/DTD/svg11.dtd">
<!-- Generated by graphviz version 2.43.0 (0)
 -->
<!-- Title: dpp::automod_rule Pages: 1 -->
<svg width="954pt" height="410pt"
 viewBox="0.00 0.00 954.00 410.00" xmlns="http://www.w3.org/2000/svg" xmlns:xlink="http://www.w3.org/1999/xlink">
<g id="graph0" class="graph" transform="scale(1 1) rotate(0) translate(4 406)">
<title>dpp::automod_rule</title>
<!-- Node1 -->
<g id="node1" class="node">
<title>Node1</title>
<g id="a_node1"><a xlink:title="Represnets an automod rule.">
<polygon fill="#bfbfbf" stroke="black" points="838,-160.5 838,-179.5 946,-179.5 946,-160.5 838,-160.5"/>
<text text-anchor="middle" x="892" y="-167.5" font-family="Helvetica,sans-Serif" font-size="10.00">dpp::automod_rule</text>
</a>
</g>
</g>
<!-- Node2 -->
<g id="node2" class="node">
<title>Node2</title>
<g id="a_node2"><a xlink:href="classdpp_1_1managed.html" target="_top" xlink:title="The managed class is the base class for various types that can be stored in a cache that are identifi...">
<polygon fill="none" stroke="black" points="602.5,-297.5 602.5,-316.5 688.5,-316.5 688.5,-297.5 602.5,-297.5"/>
<text text-anchor="middle" x="645.5" y="-304.5" font-family="Helvetica,sans-Serif" font-size="10.00">dpp::managed</text>
</a>
</g>
</g>
<!-- Node2&#45;&gt;Node1 -->
<g id="edge1" class="edge">
<title>Node2&#45;&gt;Node1</title>
<path fill="none" stroke="midnightblue" d="M698.82,-310.91C735.49,-311.14 784.16,-306.15 820,-283 859.31,-257.6 880.79,-201.93 888.1,-179.57"/>
<polygon fill="midnightblue" stroke="midnightblue" points="698.88,-307.41 688.81,-310.72 698.75,-314.41 698.88,-307.41"/>
</g>
<!-- Node3 -->
<g id="node3" class="node">
<title>Node3</title>
<g id="a_node3"><a xlink:title=" ">
<polygon fill="none" stroke="#bfbfbf" points="335.5,-324.5 335.5,-343.5 391.5,-343.5 391.5,-324.5 335.5,-324.5"/>
<text text-anchor="middle" x="363.5" y="-331.5" font-family="Helvetica,sans-Serif" font-size="10.00">uint64_t</text>
</a>
</g>
</g>
<!-- Node3&#45;&gt;Node1 -->
<g id="edge5" class="edge">
<title>Node3&#45;&gt;Node1</title>
<path fill="none" stroke="#9a32cd" stroke-dasharray="5,2" d="M401.43,-344.25C485.01,-365.08 691.37,-402.93 820,-310 865.73,-276.96 883.93,-205.82 889.22,-179.79"/>
<polygon fill="#9a32cd" stroke="#9a32cd" points="402.18,-340.83 391.63,-341.74 400.45,-347.61 402.18,-340.83"/>
<text text-anchor="middle" x="645.5" y="-394" font-family="Helvetica,sans-Serif" font-size="10.00"> creator_id</text>
<text text-anchor="middle" x="645.5" y="-383" font-family="Helvetica,sans-Serif" font-size="10.00">guild_id</text>
<text text-anchor="middle" x="645.5" y="-372" font-family="Helvetica,sans-Serif" font-size="10.00">id</text>
</g>
<!-- Node3&#45;&gt;Node2 -->
<g id="edge2" class="edge">
<title>Node3&#45;&gt;Node2</title>
<path fill="none" stroke="#9a32cd" stroke-dasharray="5,2" d="M401.73,-330.41C453.77,-325.39 547.98,-316.31 602.47,-311.05"/>
<polygon fill="#9a32cd" stroke="#9a32cd" points="401.22,-326.94 391.6,-331.39 401.89,-333.91 401.22,-326.94"/>
<text text-anchor="middle" x="504" y="-328" font-family="Helvetica,sans-Serif" font-size="10.00"> id</text>
</g>
<!-- Node4 -->
<g id="node4" class="node">
<title>Node4</title>
<g id="a_node4"><a xlink:href="structdpp_1_1json__interface.html" target="_top" xlink:title=" ">
<polygon fill="none" stroke="black" points="449,-260 449,-290 559,-290 559,-260 449,-260"/>
<text text-anchor="start" x="457" y="-278" font-family="Helvetica,sans-Serif" font-size="10.00">dpp::json_interface</text>
<text text-anchor="middle" x="504" y="-267" font-family="Helvetica,sans-Serif" font-size="10.00">&lt; automod_rule &gt;</text>
</a>
</g>
</g>
<!-- Node4&#45;&gt;Node1 -->
<g id="edge3" class="edge">
<title>Node4&#45;&gt;Node1</title>
<path fill="none" stroke="midnightblue" d="M569.53,-275.02C635.5,-272.71 739.44,-262.46 820,-224 844.04,-212.52 867.83,-192.09 880.85,-179.92"/>
<polygon fill="midnightblue" stroke="midnightblue" points="569.17,-271.53 559.27,-275.33 569.37,-278.53 569.17,-271.53"/>
</g>
<!-- Node5 -->
<g id="node5" class="node">
<title>Node5</title>
<g id="a_node5"><a xlink:href="structdpp_1_1json__interface.html" target="_top" xlink:title="Represents an interface for an object that can optionally implement functions for converting to and f...">
<polygon fill="none" stroke="black" points="0,-249.5 0,-268.5 138,-268.5 138,-249.5 0,-249.5"/>
<text text-anchor="middle" x="69" y="-256.5" font-family="Helvetica,sans-Serif" font-size="10.00">dpp::json_interface&lt; T &gt;</text>
</a>
</g>
</g>
<!-- Node5&#45;&gt;Node4 -->
<g id="edge4" class="edge">
<title>Node5&#45;&gt;Node4</title>
<path fill="none" stroke="orange" stroke-dasharray="5,2" d="M148.21,-261.89C235.14,-265.1 373.23,-270.2 448.95,-273"/>
<polygon fill="orange" stroke="orange" points="148.26,-258.39 138.13,-261.52 148,-265.38 148.26,-258.39"/>
<text text-anchor="middle" x="217" y="-269" font-family="Helvetica,sans-Serif" font-size="10.00"> &lt; automod_rule &gt;</text>
</g>
<!-- Node11 -->
<g id="node11" class="node">
<title>Node11</title>
<g id="a_node11"><a xlink:href="structdpp_1_1json__interface.html" target="_top" xlink:title=" ">
<polygon fill="none" stroke="black" points="296,-222 296,-252 431,-252 431,-222 296,-222"/>
<text text-anchor="start" x="304" y="-240" font-family="Helvetica,sans-Serif" font-size="10.00">dpp::json_interface</text>
<text text-anchor="middle" x="363.5" y="-229" font-family="Helvetica,sans-Serif" font-size="10.00">&lt; automod_metadata &gt;</text>
</a>
</g>
</g>
<!-- Node5&#45;&gt;Node11 -->
<g id="edge12" class="edge">
<title>Node5&#45;&gt;Node11</title>
<path fill="none" stroke="orange" stroke-dasharray="5,2" d="M148.22,-248.74C150.84,-248.48 153.44,-248.23 156,-248 202.66,-243.78 255.41,-241 295.92,-239.3"/>
<polygon fill="orange" stroke="orange" points="147.59,-245.29 138.02,-249.83 148.33,-252.25 147.59,-245.29"/>
<text text-anchor="middle" x="217" y="-251" font-family="Helvetica,sans-Serif" font-size="10.00"> &lt; automod_metadata &gt;</text>
</g>
<!-- Node6 -->
<g id="node6" class="node">
<title>Node6</title>
<g id="a_node6"><a xlink:title=" ">
<polygon fill="none" stroke="#bfbfbf" points="613,-114.5 613,-133.5 678,-133.5 678,-114.5 613,-114.5"/>
<text text-anchor="middle" x="645.5" y="-121.5" font-family="Helvetica,sans-Serif" font-size="10.00">std::string</text>
</a>
</g>
</g>
<!-- Node6&#45;&gt;Node1 -->
<g id="edge6" class="edge">
<title>Node6&#45;&gt;Node1</title>
<path fill="none" stroke="#9a32cd" stroke-dasharray="5,2" d="M688.19,-126.48C723.61,-129.2 775.63,-134.63 820,-145 836.42,-148.84 854.32,-155.15 868.04,-160.48"/>
<polygon fill="#9a32cd" stroke="#9a32cd" points="688.43,-122.99 678.2,-125.76 687.92,-129.97 688.43,-122.99"/>
<text text-anchor="middle" x="776" y="-148" font-family="Helvetica,sans-Serif" font-size="10.00"> name</text>
</g>
<!-- Node7 -->
<g id="node7" class="node">
<title>Node7</title>
<g id="a_node7"><a xlink:title=" ">
<polygon fill="none" stroke="#bfbfbf" points="311.5,-109 311.5,-139 415.5,-139 415.5,-109 311.5,-109"/>
<text text-anchor="start" x="319.5" y="-127" font-family="Helvetica,sans-Serif" font-size="10.00">std::basic_string&lt;</text>
<text text-anchor="middle" x="363.5" y="-116" font-family="Helvetica,sans-Serif" font-size="10.00"> Char &gt;</text>
</a>
</g>
</g>
<!-- Node7&#45;&gt;Node6 -->
<g id="edge7" class="edge">
<title>Node7&#45;&gt;Node6</title>
<path fill="none" stroke="midnightblue" d="M425.63,-124C483.37,-124 567.67,-124 612.95,-124"/>
<polygon fill="midnightblue" stroke="midnightblue" points="425.53,-120.5 415.53,-124 425.53,-127.5 425.53,-120.5"/>
</g>
<!-- Node8 -->
<g id="node8" class="node">
<title>Node8</title>
<g id="a_node8"><a xlink:title=" ">
<polygon fill="none" stroke="#bfbfbf" points="585.5,-76.5 585.5,-95.5 705.5,-95.5 705.5,-76.5 585.5,-76.5"/>
<text text-anchor="middle" x="645.5" y="-83.5" font-family="Helvetica,sans-Serif" font-size="10.00">automod_event_type</text>
</a>
</g>
</g>
<!-- Node8&#45;&gt;Node1 -->
<g id="edge8" class="edge">
<title>Node8&#45;&gt;Node1</title>
<path fill="none" stroke="#9a32cd" stroke-dasharray="5,2" d="M715.95,-89.76C748.61,-93.47 787.43,-100.75 820,-115 845.14,-126 869.27,-147.87 881.9,-160.47"/>
<polygon fill="#9a32cd" stroke="#9a32cd" points="715.89,-86.23 705.58,-88.67 715.17,-93.19 715.89,-86.23"/>
<text text-anchor="middle" x="776" y="-118" font-family="Helvetica,sans-Serif" font-size="10.00"> event_type</text>
</g>
<!-- Node9 -->
<g id="node9" class="node">
<title>Node9</title>
<g id="a_node9"><a xlink:title=" ">
<polygon fill="none" stroke="#bfbfbf" points="583,-38.5 583,-57.5 708,-57.5 708,-38.5 583,-38.5"/>
<text text-anchor="middle" x="645.5" y="-45.5" font-family="Helvetica,sans-Serif" font-size="10.00">automod_trigger_type</text>
</a>
</g>
</g>
<!-- Node9&#45;&gt;Node1 -->
<g id="edge9" class="edge">
<title>Node9&#45;&gt;Node1</title>
<path fill="none" stroke="#9a32cd" stroke-dasharray="5,2" d="M718.19,-48.13C751.19,-51.05 789.65,-58.72 820,-77 854.1,-97.54 877.61,-141.15 886.75,-160.45"/>
<polygon fill="#9a32cd" stroke="#9a32cd" points="718.37,-44.64 708.14,-47.37 717.84,-51.62 718.37,-44.64"/>
<text text-anchor="middle" x="776" y="-80" font-family="Helvetica,sans-Serif" font-size="10.00"> trigger_type</text>
</g>
<!-- Node10 -->
<g id="node10" class="node">
<title>Node10</title>
<g id="a_node10"><a xlink:href="structdpp_1_1automod__metadata.html" target="_top" xlink:title="Metadata associated with an automod action.">
<polygon fill="none" stroke="black" points="577,-221.5 577,-240.5 714,-240.5 714,-221.5 577,-221.5"/>
<text text-anchor="middle" x="645.5" y="-228.5" font-family="Helvetica,sans-Serif" font-size="10.00">dpp::automod_metadata</text>
</a>
</g>
</g>
<!-- Node10&#45;&gt;Node1 -->
<g id="edge10" class="edge">
<title>Node10&#45;&gt;Node1</title>
<path fill="none" stroke="#9a32cd" stroke-dasharray="5,2" d="M694.5,-219.02C740.79,-207.48 809.94,-190.22 852.66,-179.56"/>
<polygon fill="#9a32cd" stroke="#9a32cd" points="693.56,-215.65 684.7,-221.47 695.25,-222.44 693.56,-215.65"/>
<text text-anchor="middle" x="776" y="-212" font-family="Helvetica,sans-Serif" font-size="10.00"> trigger_metadata</text>
</g>
<!-- Node11&#45;&gt;Node10 -->
<g id="edge11" class="edge">
<title>Node11&#45;&gt;Node10</title>
<path fill="none" stroke="midnightblue" d="M441.22,-235.36C483.66,-234.45 535.93,-233.33 576.84,-232.45"/>
<polygon fill="midnightblue" stroke="midnightblue" points="441.13,-231.86 431.21,-235.57 441.28,-238.86 441.13,-231.86"/>
</g>
<!-- Node12 -->
<g id="node12" class="node">
<title>Node12</title>
<g id="a_node12"><a xlink:title=" ">
<polygon fill="none" stroke="#bfbfbf" points="335.5,-170.5 335.5,-189.5 391.5,-189.5 391.5,-170.5 335.5,-170.5"/>
<text text-anchor="middle" x="363.5" y="-177.5" font-family="Helvetica,sans-Serif" font-size="10.00">vector&lt;</text>
</a>
</g>
</g>
<!-- Node12&#45;&gt;Node1 -->
<g id="edge14" class="edge">
<title>Node12&#45;&gt;Node1</title>
<path fill="none" stroke="#9a32cd" stroke-dasharray="5,2" d="M401.92,-179.29C493.87,-177.54 731.11,-173.04 837.73,-171.01"/>
<polygon fill="#9a32cd" stroke="#9a32cd" points="401.63,-175.79 391.7,-179.48 401.76,-182.79 401.63,-175.79"/>
<text text-anchor="middle" x="645.5" y="-200" font-family="Helvetica,sans-Serif" font-size="10.00"> actions</text>
<text text-anchor="middle" x="645.5" y="-189" font-family="Helvetica,sans-Serif" font-size="10.00">exempt_channels</text>
<text text-anchor="middle" x="645.5" y="-178" font-family="Helvetica,sans-Serif" font-size="10.00">exempt_roles</text>
</g>
<!-- Node12&#45;&gt;Node10 -->
<g id="edge13" class="edge">
<title>Node12&#45;&gt;Node10</title>
<path fill="none" stroke="#9a32cd" stroke-dasharray="5,2" d="M401.98,-183.31C441.36,-187.18 504.96,-194.56 559,-206 578.21,-210.07 599.41,-216.25 615.89,-221.45"/>
<polygon fill="#9a32cd" stroke="#9a32cd" points="402.07,-179.8 391.78,-182.33 401.4,-186.77 402.07,-179.8"/>
<text text-anchor="middle" x="504" y="-220" font-family="Helvetica,sans-Serif" font-size="10.00"> keywords</text>
<text text-anchor="middle" x="504" y="-209" font-family="Helvetica,sans-Serif" font-size="10.00">presets</text>
</g>
<!-- Node13 -->
<g id="node13" class="node">
<title>Node13</title>
<g id="a_node13"><a xlink:title=" ">
<polygon fill="none" stroke="#bfbfbf" points="626.5,-0.5 626.5,-19.5 664.5,-19.5 664.5,-0.5 626.5,-0.5"/>
<text text-anchor="middle" x="645.5" y="-7.5" font-family="Helvetica,sans-Serif" font-size="10.00">bool</text>
</a>
</g>
</g>
<!-- Node13&#45;&gt;Node1 -->
<g id="edge15" class="edge">
<title>Node13&#45;&gt;Node1</title>
<path fill="none" stroke="#9a32cd" stroke-dasharray="5,2" d="M674.71,-6.69C711.58,-3.88 776.56,-4.32 820,-35 864.56,-66.47 883.38,-134.71 889.03,-160.16"/>
<polygon fill="#9a32cd" stroke="#9a32cd" points="674.31,-3.21 664.66,-7.59 674.93,-10.18 674.31,-3.21"/>
<text text-anchor="middle" x="776" y="-38" font-family="Helvetica,sans-Serif" font-size="10.00"> enabled</text>
</g>
</g>
</svg>
