<?xml version="1.0" encoding="UTF-8" standalone="no"?>
<!DOCTYPE svg PUBLIC "-//W3C//DTD SVG 1.1//EN"
 "http://www.w3.org/Graphics/SVG/1.1/DTD/svg11.dtd">
<!-- Generated by graphviz version 2.43.0 (0)
 -->
<!-- Title: dpp::thread_member_update_t Pages: 1 -->
<svg width="1759pt" height="1190pt"
 viewBox="0.00 0.00 1759.00 1189.72" xmlns="http://www.w3.org/2000/svg" xmlns:xlink="http://www.w3.org/1999/xlink">
<g id="graph0" class="graph" transform="scale(1 1) rotate(0) translate(4 1185.72)">
<title>dpp::thread_member_update_t</title>
<!-- Node1 -->
<g id="node1" class="node">
<title>Node1</title>
<g id="a_node1"><a xlink:title="Thread Member Update.">
<polygon fill="#bfbfbf" stroke="black" points="1632,-131.72 1632,-161.72 1751,-161.72 1751,-131.72 1632,-131.72"/>
<text text-anchor="start" x="1640" y="-149.72" font-family="Helvetica,sans-Serif" font-size="10.00">dpp::thread_member</text>
<text text-anchor="middle" x="1691.5" y="-138.72" font-family="Helvetica,sans-Serif" font-size="10.00">_update_t</text>
</a>
</g>
</g>
<!-- Node2 -->
<g id="node2" class="node">
<title>Node2</title>
<g id="a_node2"><a xlink:href="structdpp_1_1event__dispatch__t.html" target="_top" xlink:title="Base event parameter struct. Each event you receive from the library will have its parameter derived ...">
<polygon fill="none" stroke="black" points="1471,-941.22 1471,-960.22 1595,-960.22 1595,-941.22 1471,-941.22"/>
<text text-anchor="middle" x="1533" y="-948.22" font-family="Helvetica,sans-Serif" font-size="10.00">dpp::event_dispatch_t</text>
</a>
</g>
</g>
<!-- Node2&#45;&gt;Node1 -->
<g id="edge1" class="edge">
<title>Node2&#45;&gt;Node1</title>
<path fill="none" stroke="midnightblue" d="M1537.79,-931.23C1559.56,-819.41 1668.25,-261.01 1687.56,-161.8"/>
<polygon fill="midnightblue" stroke="midnightblue" points="1534.34,-930.65 1535.87,-941.13 1541.21,-931.98 1534.34,-930.65"/>
</g>
<!-- Node3 -->
<g id="node3" class="node">
<title>Node3</title>
<g id="a_node3"><a xlink:title=" ">
<polygon fill="none" stroke="#bfbfbf" points="456,-724.22 456,-743.22 521,-743.22 521,-724.22 456,-724.22"/>
<text text-anchor="middle" x="488.5" y="-731.22" font-family="Helvetica,sans-Serif" font-size="10.00">std::string</text>
</a>
</g>
</g>
<!-- Node3&#45;&gt;Node2 -->
<g id="edge2" class="edge">
<title>Node3&#45;&gt;Node2</title>
<path fill="none" stroke="#9a32cd" stroke-dasharray="5,2" d="M531.34,-739.9C582.87,-747.8 667.23,-761.77 697,-772.72 834.88,-823.44 881.81,-831.18 984,-936.72 995.89,-949 987.35,-961.9 1002,-970.72 1171.01,-1072.48 1428.35,-989.9 1507.79,-960.26"/>
<polygon fill="#9a32cd" stroke="#9a32cd" points="531.6,-736.4 521.19,-738.35 530.55,-743.32 531.6,-736.4"/>
<text text-anchor="middle" x="1064.5" y="-1016.72" font-family="Helvetica,sans-Serif" font-size="10.00"> raw_event</text>
</g>
<!-- Node5 -->
<g id="node5" class="node">
<title>Node5</title>
<g id="a_node5"><a xlink:href="classdpp_1_1discord__client.html" target="_top" xlink:title="Implements a discord client. Each discord_client connects to one shard and derives from a websocket c...">
<polygon fill="none" stroke="black" points="1300,-738.22 1300,-757.22 1408,-757.22 1408,-738.22 1300,-738.22"/>
<text text-anchor="middle" x="1354" y="-745.22" font-family="Helvetica,sans-Serif" font-size="10.00">dpp::discord_client</text>
</a>
</g>
</g>
<!-- Node3&#45;&gt;Node5 -->
<g id="edge43" class="edge">
<title>Node3&#45;&gt;Node5</title>
<path fill="none" stroke="#9a32cd" stroke-dasharray="5,2" d="M531.44,-734.69C573.49,-736.1 640,-739.51 697,-747.72 705.11,-748.89 706.9,-750.45 715,-751.72 776.73,-761.41 792.58,-761.83 855,-764.72 942.48,-768.77 1235.42,-766.51 1282,-761.72 1291.62,-760.73 1301.88,-759.07 1311.52,-757.23"/>
<polygon fill="#9a32cd" stroke="#9a32cd" points="531.4,-731.19 521.3,-734.37 531.18,-738.18 531.4,-731.19"/>
<text text-anchor="middle" x="919.5" y="-791.72" font-family="Helvetica,sans-Serif" font-size="10.00"> resume_gateway_url</text>
<text text-anchor="middle" x="919.5" y="-780.72" font-family="Helvetica,sans-Serif" font-size="10.00">sessionid</text>
<text text-anchor="middle" x="919.5" y="-769.72" font-family="Helvetica,sans-Serif" font-size="10.00">token</text>
</g>
<!-- Node7 -->
<g id="node7" class="node">
<title>Node7</title>
<g id="a_node7"><a xlink:href="classdpp_1_1ssl__client.html" target="_top" xlink:title="Implements a simple non&#45;blocking SSL stream client.">
<polygon fill="none" stroke="black" points="733,-905.22 733,-924.22 819,-924.22 819,-905.22 733,-905.22"/>
<text text-anchor="middle" x="776" y="-912.22" font-family="Helvetica,sans-Serif" font-size="10.00">dpp::ssl_client</text>
</a>
</g>
</g>
<!-- Node3&#45;&gt;Node7 -->
<g id="edge7" class="edge">
<title>Node3&#45;&gt;Node7</title>
<path fill="none" stroke="#9a32cd" stroke-dasharray="5,2" d="M521.35,-747.45C537.62,-754.34 557.78,-762.7 576,-769.72 629.25,-790.25 656.43,-772.58 697,-812.72 713.49,-829.04 701.91,-842.57 715,-861.72 727.31,-879.73 747.09,-895.59 760.55,-905.15"/>
<polygon fill="#9a32cd" stroke="#9a32cd" points="522.34,-744.07 511.77,-743.37 519.6,-750.51 522.34,-744.07"/>
<text text-anchor="middle" x="636.5" y="-859.72" font-family="Helvetica,sans-Serif" font-size="10.00"> buffer</text>
<text text-anchor="middle" x="636.5" y="-848.72" font-family="Helvetica,sans-Serif" font-size="10.00">cipher</text>
<text text-anchor="middle" x="636.5" y="-837.72" font-family="Helvetica,sans-Serif" font-size="10.00">hostname</text>
<text text-anchor="middle" x="636.5" y="-826.72" font-family="Helvetica,sans-Serif" font-size="10.00">obuffer</text>
<text text-anchor="middle" x="636.5" y="-815.72" font-family="Helvetica,sans-Serif" font-size="10.00">port</text>
</g>
<!-- Node15 -->
<g id="node15" class="node">
<title>Node15</title>
<g id="a_node15"><a xlink:href="classdpp_1_1cluster.html" target="_top" xlink:title="The cluster class represents a group of shards and a command queue for sending and receiving commands...">
<polygon fill="none" stroke="black" points="1027.5,-475.22 1027.5,-494.22 1101.5,-494.22 1101.5,-475.22 1027.5,-475.22"/>
<text text-anchor="middle" x="1064.5" y="-482.22" font-family="Helvetica,sans-Serif" font-size="10.00">dpp::cluster</text>
</a>
</g>
</g>
<!-- Node3&#45;&gt;Node15 -->
<g id="edge17" class="edge">
<title>Node3&#45;&gt;Node15</title>
<path fill="none" stroke="#9a32cd" stroke-dasharray="5,2" d="M509.99,-717.93C526.78,-705.89 551.65,-690.01 576,-681.72 634.87,-661.69 653.21,-672.72 715,-665.72 744.88,-662.33 962.39,-656.63 984,-635.72 1024.02,-597 968.27,-556.03 1002,-511.72 1008.36,-503.37 1017.84,-497.55 1027.48,-493.52"/>
<polygon fill="#9a32cd" stroke="#9a32cd" points="507.53,-715.4 501.56,-724.16 511.68,-721.04 507.53,-715.4"/>
<text text-anchor="middle" x="776" y="-668.72" font-family="Helvetica,sans-Serif" font-size="10.00"> token</text>
</g>
<!-- Node18 -->
<g id="node18" class="node">
<title>Node18</title>
<g id="a_node18"><a xlink:href="classdpp_1_1user.html" target="_top" xlink:title="Represents a user on discord. May or may not be a member of a dpp::guild.">
<polygon fill="none" stroke="black" points="745,-217.22 745,-236.22 807,-236.22 807,-217.22 745,-217.22"/>
<text text-anchor="middle" x="776" y="-224.22" font-family="Helvetica,sans-Serif" font-size="10.00">dpp::user</text>
</a>
</g>
</g>
<!-- Node3&#45;&gt;Node18 -->
<g id="edge27" class="edge">
<title>Node3&#45;&gt;Node18</title>
<path fill="none" stroke="#9a32cd" stroke-dasharray="5,2" d="M502.46,-715.74C547.64,-653.04 695.53,-447.65 697,-443.72 711.99,-403.57 689.59,-286.23 715,-251.72 722.16,-242 733.82,-236.03 744.96,-232.39"/>
<polygon fill="#9a32cd" stroke="#9a32cd" points="499.36,-714.06 496.35,-724.22 505.03,-718.15 499.36,-714.06"/>
<text text-anchor="middle" x="636.5" y="-621.72" font-family="Helvetica,sans-Serif" font-size="10.00"> global_name</text>
<text text-anchor="middle" x="636.5" y="-610.72" font-family="Helvetica,sans-Serif" font-size="10.00">username</text>
</g>
<!-- Node4 -->
<g id="node4" class="node">
<title>Node4</title>
<g id="a_node4"><a xlink:title=" ">
<polygon fill="none" stroke="#bfbfbf" points="144,-718.72 144,-748.72 248,-748.72 248,-718.72 144,-718.72"/>
<text text-anchor="start" x="152" y="-736.72" font-family="Helvetica,sans-Serif" font-size="10.00">std::basic_string&lt;</text>
<text text-anchor="middle" x="196" y="-725.72" font-family="Helvetica,sans-Serif" font-size="10.00"> Char &gt;</text>
</a>
</g>
</g>
<!-- Node4&#45;&gt;Node3 -->
<g id="edge3" class="edge">
<title>Node4&#45;&gt;Node3</title>
<path fill="none" stroke="midnightblue" d="M258.42,-733.72C318.72,-733.72 408.31,-733.72 455.6,-733.72"/>
<polygon fill="midnightblue" stroke="midnightblue" points="258.27,-730.22 248.27,-733.72 258.27,-737.22 258.27,-730.22"/>
</g>
<!-- Node5&#45;&gt;Node2 -->
<g id="edge4" class="edge">
<title>Node5&#45;&gt;Node2</title>
<path fill="none" stroke="#9a32cd" stroke-dasharray="5,2" d="M1369.88,-764.79C1405.64,-805.79 1495.48,-908.84 1523.51,-940.99"/>
<polygon fill="#9a32cd" stroke="#9a32cd" points="1372.51,-762.48 1363.3,-757.24 1367.23,-767.08 1372.51,-762.48"/>
<text text-anchor="middle" x="1439.5" y="-857.72" font-family="Helvetica,sans-Serif" font-size="10.00"> from</text>
</g>
<!-- Node6 -->
<g id="node6" class="node">
<title>Node6</title>
<g id="a_node6"><a xlink:href="classdpp_1_1websocket__client.html" target="_top" xlink:title="Implements a websocket client based on the SSL client.">
<polygon fill="none" stroke="black" points="1002,-866.22 1002,-885.22 1127,-885.22 1127,-866.22 1002,-866.22"/>
<text text-anchor="middle" x="1064.5" y="-873.22" font-family="Helvetica,sans-Serif" font-size="10.00">dpp::websocket_client</text>
</a>
</g>
</g>
<!-- Node6&#45;&gt;Node5 -->
<g id="edge5" class="edge">
<title>Node6&#45;&gt;Node5</title>
<path fill="none" stroke="midnightblue" d="M1113.94,-863.57C1159.01,-851.2 1227.27,-829.73 1282,-800.72 1305.1,-788.47 1328.83,-769.12 1342.17,-757.5"/>
<polygon fill="midnightblue" stroke="midnightblue" points="1112.87,-860.23 1104.13,-866.21 1114.69,-866.99 1112.87,-860.23"/>
</g>
<!-- Node7&#45;&gt;Node6 -->
<g id="edge6" class="edge">
<title>Node7&#45;&gt;Node6</title>
<path fill="none" stroke="midnightblue" d="M829.28,-907.6C877.96,-900.98 950.54,-891.1 1001.98,-884.09"/>
<polygon fill="midnightblue" stroke="midnightblue" points="828.71,-904.15 819.27,-908.97 829.65,-911.08 828.71,-904.15"/>
</g>
<!-- Node8 -->
<g id="node8" class="node">
<title>Node8</title>
<g id="a_node8"><a xlink:title=" ">
<polygon fill="none" stroke="#bfbfbf" points="469.5,-1097.22 469.5,-1116.22 507.5,-1116.22 507.5,-1097.22 469.5,-1097.22"/>
<text text-anchor="middle" x="488.5" y="-1104.22" font-family="Helvetica,sans-Serif" font-size="10.00">bool</text>
</a>
</g>
</g>
<!-- Node8&#45;&gt;Node2 -->
<g id="edge48" class="edge">
<title>Node8&#45;&gt;Node2</title>
<path fill="none" stroke="#9a32cd" stroke-dasharray="5,2" d="M510.29,-1122.38C527.07,-1134.09 551.79,-1149.31 576,-1156.72 660.78,-1182.68 686.34,-1170.72 775,-1170.72 775,-1170.72 775,-1170.72 1355,-1170.72 1464.56,-1170.72 1517.73,-1003.03 1529.46,-960.46"/>
<polygon fill="#9a32cd" stroke="#9a32cd" points="512,-1119.3 501.83,-1116.31 507.91,-1124.99 512,-1119.3"/>
<text text-anchor="middle" x="1064.5" y="-1173.72" font-family="Helvetica,sans-Serif" font-size="10.00"> cancelled</text>
</g>
<!-- Node8&#45;&gt;Node5 -->
<g id="edge15" class="edge">
<title>Node8&#45;&gt;Node5</title>
<path fill="none" stroke="#9a32cd" stroke-dasharray="5,2" d="M517.9,-1109.45C558.45,-1112.47 634.92,-1114.88 697,-1097.72 845.55,-1056.67 859.78,-992.1 1002,-932.72 1055.58,-910.35 1071.79,-912.72 1127,-894.72 1196.36,-872.11 1222.93,-883.52 1282,-840.72 1313.91,-817.6 1338.23,-776.11 1348.14,-757.37"/>
<polygon fill="#9a32cd" stroke="#9a32cd" points="517.94,-1105.94 507.69,-1108.62 517.37,-1112.92 517.94,-1105.94"/>
<text text-anchor="middle" x="919.5" y="-1032.72" font-family="Helvetica,sans-Serif" font-size="10.00"> ready</text>
<text text-anchor="middle" x="919.5" y="-1021.72" font-family="Helvetica,sans-Serif" font-size="10.00">terminating</text>
</g>
<!-- Node8&#45;&gt;Node7 -->
<g id="edge8" class="edge">
<title>Node8&#45;&gt;Node7</title>
<path fill="none" stroke="#9a32cd" stroke-dasharray="5,2" d="M510.41,-1090.9C527.26,-1078.92 552.02,-1062.99 576,-1053.72 627.06,-1033.99 651.31,-1060.87 697,-1030.72 707.58,-1023.74 752.87,-950.84 769.15,-924.31"/>
<polygon fill="#9a32cd" stroke="#9a32cd" points="507.94,-1088.37 501.92,-1097.08 512.06,-1094.03 507.94,-1088.37"/>
<text text-anchor="middle" x="636.5" y="-1089.72" font-family="Helvetica,sans-Serif" font-size="10.00"> keepalive</text>
<text text-anchor="middle" x="636.5" y="-1078.72" font-family="Helvetica,sans-Serif" font-size="10.00">make_new</text>
<text text-anchor="middle" x="636.5" y="-1067.72" font-family="Helvetica,sans-Serif" font-size="10.00">nonblocking</text>
<text text-anchor="middle" x="636.5" y="-1056.72" font-family="Helvetica,sans-Serif" font-size="10.00">plaintext</text>
</g>
<!-- Node9 -->
<g id="node9" class="node">
<title>Node9</title>
<g id="a_node9"><a xlink:title=" ">
<polygon fill="none" stroke="#bfbfbf" points="474,-1018.22 474,-1037.22 503,-1037.22 503,-1018.22 474,-1018.22"/>
<text text-anchor="middle" x="488.5" y="-1025.22" font-family="Helvetica,sans-Serif" font-size="10.00">int</text>
</a>
</g>
</g>
<!-- Node9&#45;&gt;Node7 -->
<g id="edge9" class="edge">
<title>Node9&#45;&gt;Node7</title>
<path fill="none" stroke="#9a32cd" stroke-dasharray="5,2" d="M513.1,-1025.07C564.02,-1019.23 680.89,-1005.09 697,-996.72 730.47,-979.32 757.61,-941.9 769.09,-924.27"/>
<polygon fill="#9a32cd" stroke="#9a32cd" points="512.57,-1021.61 503.03,-1026.22 513.36,-1028.56 512.57,-1021.61"/>
<text text-anchor="middle" x="636.5" y="-1019.72" font-family="Helvetica,sans-Serif" font-size="10.00"> sfd</text>
</g>
<!-- Node10 -->
<g id="node10" class="node">
<title>Node10</title>
<g id="a_node10"><a xlink:title=" ">
<polygon fill="none" stroke="#bfbfbf" points="428,-980.22 428,-999.22 549,-999.22 549,-980.22 428,-980.22"/>
<text text-anchor="middle" x="488.5" y="-987.22" font-family="Helvetica,sans-Serif" font-size="10.00">openssl_connection *</text>
</a>
</g>
</g>
<!-- Node10&#45;&gt;Node7 -->
<g id="edge10" class="edge">
<title>Node10&#45;&gt;Node7</title>
<path fill="none" stroke="#9a32cd" stroke-dasharray="5,2" d="M559.18,-983.81C609.3,-978.96 672.25,-971.49 697,-962.72 722.48,-953.69 748.51,-935.49 763.13,-924.28"/>
<polygon fill="#9a32cd" stroke="#9a32cd" points="558.64,-980.34 549.02,-984.77 559.3,-987.31 558.64,-980.34"/>
<text text-anchor="middle" x="636.5" y="-984.72" font-family="Helvetica,sans-Serif" font-size="10.00"> ssl</text>
</g>
<!-- Node11 -->
<g id="node11" class="node">
<title>Node11</title>
<g id="a_node11"><a xlink:title=" ">
<polygon fill="none" stroke="#bfbfbf" points="464.5,-595.22 464.5,-614.22 512.5,-614.22 512.5,-595.22 464.5,-595.22"/>
<text text-anchor="middle" x="488.5" y="-602.22" font-family="Helvetica,sans-Serif" font-size="10.00">time_t</text>
</a>
</g>
</g>
<!-- Node11&#45;&gt;Node5 -->
<g id="edge40" class="edge">
<title>Node11&#45;&gt;Node5</title>
<path fill="none" stroke="#9a32cd" stroke-dasharray="5,2" d="M522.4,-611.78C566.05,-622.46 643.77,-646.12 697,-688.72 707.97,-697.5 702.75,-707.83 715,-714.72 740.3,-728.95 1150.98,-741.98 1299.74,-746.25"/>
<polygon fill="#9a32cd" stroke="#9a32cd" points="523.13,-608.36 512.59,-609.46 521.52,-615.17 523.13,-608.36"/>
<text text-anchor="middle" x="919.5" y="-749.72" font-family="Helvetica,sans-Serif" font-size="10.00"> last_heartbeat</text>
<text text-anchor="middle" x="919.5" y="-738.72" font-family="Helvetica,sans-Serif" font-size="10.00">last_heartbeat_ack</text>
</g>
<!-- Node11&#45;&gt;Node7 -->
<g id="edge11" class="edge">
<title>Node11&#45;&gt;Node7</title>
<path fill="none" stroke="#9a32cd" stroke-dasharray="5,2" d="M505.47,-621.88C522.1,-639.19 549.39,-666.1 576,-685.72 625.82,-722.46 654.66,-709.55 697,-754.72 740.96,-801.62 764.98,-877.93 772.44,-904.9"/>
<polygon fill="#9a32cd" stroke="#9a32cd" points="507.64,-619.07 498.22,-614.22 502.56,-623.89 507.64,-619.07"/>
<text text-anchor="middle" x="636.5" y="-757.72" font-family="Helvetica,sans-Serif" font-size="10.00"> last_tick</text>
</g>
<!-- Node11&#45;&gt;Node15 -->
<g id="edge18" class="edge">
<title>Node11&#45;&gt;Node15</title>
<path fill="none" stroke="#9a32cd" stroke-dasharray="5,2" d="M522.65,-599.86C618.71,-585.62 895.98,-543.39 984,-517.72 995.26,-514.44 1022.61,-502.77 1042.08,-494.24"/>
<polygon fill="#9a32cd" stroke="#9a32cd" points="522.01,-596.42 512.63,-601.34 523.03,-603.34 522.01,-596.42"/>
<text text-anchor="middle" x="776" y="-572.72" font-family="Helvetica,sans-Serif" font-size="10.00"> last_identify</text>
</g>
<!-- Node34 -->
<g id="node34" class="node">
<title>Node34</title>
<g id="a_node34"><a xlink:href="structdpp_1_1thread__member.html" target="_top" xlink:title="represents membership of a user with a thread">
<polygon fill="none" stroke="black" points="716.5,-125.22 716.5,-144.22 835.5,-144.22 835.5,-125.22 716.5,-125.22"/>
<text text-anchor="middle" x="776" y="-132.22" font-family="Helvetica,sans-Serif" font-size="10.00">dpp::thread_member</text>
</a>
</g>
</g>
<!-- Node11&#45;&gt;Node34 -->
<g id="edge53" class="edge">
<title>Node11&#45;&gt;Node34</title>
<path fill="none" stroke="#9a32cd" stroke-dasharray="5,2" d="M500.81,-586.19C516.44,-559.65 544.24,-508.81 558,-461.72 567.23,-430.13 555.51,-340.48 576,-314.72 611.62,-269.94 660.35,-314.67 697,-270.72 727.61,-234.02 686.55,-203.12 715,-164.72 721.86,-155.46 732.39,-148.87 742.72,-144.28"/>
<polygon fill="#9a32cd" stroke="#9a32cd" points="497.61,-584.73 495.48,-595.11 503.61,-588.32 497.61,-584.73"/>
<text text-anchor="middle" x="636.5" y="-317.72" font-family="Helvetica,sans-Serif" font-size="10.00"> joined</text>
</g>
<!-- Node12 -->
<g id="node12" class="node">
<title>Node12</title>
<g id="a_node12"><a xlink:title=" ">
<polygon fill="none" stroke="#bfbfbf" points="0,-585.22 0,-604.22 56,-604.22 56,-585.22 0,-585.22"/>
<text text-anchor="middle" x="28" y="-592.22" font-family="Helvetica,sans-Serif" font-size="10.00">uint64_t</text>
</a>
</g>
</g>
<!-- Node12&#45;&gt;Node5 -->
<g id="edge42" class="edge">
<title>Node12&#45;&gt;Node5</title>
<path fill="none" stroke="#9a32cd" stroke-dasharray="5,2" d="M34.66,-614.3C42.43,-640.38 57.35,-687.76 74,-726.72 166.13,-942.29 202.8,-1035.09 419,-1125.72 599.15,-1201.24 1150.92,-1103.55 1282,-958.72 1337.76,-897.11 1349.94,-790.16 1352.41,-757.48"/>
<polygon fill="#9a32cd" stroke="#9a32cd" points="37.96,-613.12 31.79,-604.51 31.25,-615.1 37.96,-613.12"/>
<text text-anchor="middle" x="636.5" y="-1154.72" font-family="Helvetica,sans-Serif" font-size="10.00"> last_seq</text>
</g>
<!-- Node12&#45;&gt;Node7 -->
<g id="edge12" class="edge">
<title>Node12&#45;&gt;Node7</title>
<path fill="none" stroke="#9a32cd" stroke-dasharray="5,2" d="M36.64,-613.52C50.61,-646.09 82.94,-713.72 127,-757.72 234.06,-864.63 273.84,-890.05 419,-932.72 537.56,-967.57 574.69,-955.38 697,-937.72 714.89,-935.14 734.39,-929.39 749.41,-924.28"/>
<polygon fill="#9a32cd" stroke="#9a32cd" points="39.85,-612.13 32.76,-604.25 33.39,-614.83 39.85,-612.13"/>
<text text-anchor="middle" x="342" y="-940.72" font-family="Helvetica,sans-Serif" font-size="10.00"> bytes_in</text>
<text text-anchor="middle" x="342" y="-929.72" font-family="Helvetica,sans-Serif" font-size="10.00">bytes_out</text>
</g>
<!-- Node20 -->
<g id="node20" class="node">
<title>Node20</title>
<g id="a_node20"><a xlink:href="classdpp_1_1snowflake.html" target="_top" xlink:title="A container for a 64 bit unsigned value representing many things on discord. This value is known in d...">
<polygon fill="none" stroke="black" points="151.5,-43.22 151.5,-62.22 240.5,-62.22 240.5,-43.22 151.5,-43.22"/>
<text text-anchor="middle" x="196" y="-50.22" font-family="Helvetica,sans-Serif" font-size="10.00">dpp::snowflake</text>
</a>
</g>
</g>
<!-- Node12&#45;&gt;Node20 -->
<g id="edge24" class="edge">
<title>Node12&#45;&gt;Node20</title>
<path fill="none" stroke="#9a32cd" stroke-dasharray="5,2" d="M28.79,-574.93C28.88,-506.37 36.28,-274.48 127,-114.72 139.86,-92.08 163.91,-73.13 179.69,-62.36"/>
<polygon fill="#9a32cd" stroke="#9a32cd" points="25.29,-575.16 28.83,-585.14 32.29,-575.13 25.29,-575.16"/>
<text text-anchor="middle" x="91.5" y="-240.72" font-family="Helvetica,sans-Serif" font-size="10.00"> value</text>
</g>
<!-- Node23 -->
<g id="node23" class="node">
<title>Node23</title>
<g id="a_node23"><a xlink:href="structdpp_1_1utility_1_1iconhash.html" target="_top" xlink:title="Store a 128 bit icon hash (profile picture, server icon etc) as a 128 bit binary value made of two ui...">
<polygon fill="none" stroke="black" points="283,-340.22 283,-359.22 401,-359.22 401,-340.22 283,-340.22"/>
<text text-anchor="middle" x="342" y="-347.22" font-family="Helvetica,sans-Serif" font-size="10.00">dpp::utility::iconhash</text>
</a>
</g>
</g>
<!-- Node12&#45;&gt;Node23 -->
<g id="edge29" class="edge">
<title>Node12&#45;&gt;Node23</title>
<path fill="none" stroke="#9a32cd" stroke-dasharray="5,2" d="M49.13,-578.91C108.46,-532.32 281.43,-396.5 328.85,-359.26"/>
<polygon fill="#9a32cd" stroke="#9a32cd" points="46.93,-576.19 41.23,-585.12 51.26,-581.69 46.93,-576.19"/>
<text text-anchor="middle" x="91.5" y="-572.72" font-family="Helvetica,sans-Serif" font-size="10.00"> first</text>
<text text-anchor="middle" x="91.5" y="-561.72" font-family="Helvetica,sans-Serif" font-size="10.00">second</text>
</g>
<!-- Node13 -->
<g id="node13" class="node">
<title>Node13</title>
<g id="a_node13"><a xlink:title=" ">
<polygon fill="none" stroke="#bfbfbf" points="419,-904.22 419,-923.22 558,-923.22 558,-904.22 419,-904.22"/>
<text text-anchor="middle" x="488.5" y="-911.22" font-family="Helvetica,sans-Serif" font-size="10.00">function&lt; dpp::socket()&gt;</text>
</a>
</g>
</g>
<!-- Node13&#45;&gt;Node7 -->
<g id="edge13" class="edge">
<title>Node13&#45;&gt;Node7</title>
<path fill="none" stroke="#9a32cd" stroke-dasharray="5,2" d="M568.35,-914C621.59,-914.18 689.78,-914.42 732.95,-914.57"/>
<polygon fill="#9a32cd" stroke="#9a32cd" points="568.26,-910.5 558.25,-913.96 568.24,-917.5 568.26,-910.5"/>
<text text-anchor="middle" x="636.5" y="-927.72" font-family="Helvetica,sans-Serif" font-size="10.00"> custom_readable_fd</text>
<text text-anchor="middle" x="636.5" y="-916.72" font-family="Helvetica,sans-Serif" font-size="10.00">custom_writeable_fd</text>
</g>
<!-- Node14 -->
<g id="node14" class="node">
<title>Node14</title>
<g id="a_node14"><a xlink:title=" ">
<polygon fill="none" stroke="#bfbfbf" points="436.5,-860.22 436.5,-879.22 540.5,-879.22 540.5,-860.22 436.5,-860.22"/>
<text text-anchor="middle" x="488.5" y="-867.22" font-family="Helvetica,sans-Serif" font-size="10.00">function&lt; void()&gt;</text>
</a>
</g>
</g>
<!-- Node14&#45;&gt;Node7 -->
<g id="edge14" class="edge">
<title>Node14&#45;&gt;Node7</title>
<path fill="none" stroke="#9a32cd" stroke-dasharray="5,2" d="M551.01,-871.09C592.61,-872.98 648.58,-877.41 697,-887.72 716.06,-891.78 736.88,-899.15 752.22,-905.16"/>
<polygon fill="#9a32cd" stroke="#9a32cd" points="550.89,-867.58 540.76,-870.66 550.6,-874.57 550.89,-867.58"/>
<text text-anchor="middle" x="636.5" y="-901.72" font-family="Helvetica,sans-Serif" font-size="10.00"> custom_readable_ready</text>
<text text-anchor="middle" x="636.5" y="-890.72" font-family="Helvetica,sans-Serif" font-size="10.00">custom_writeable_ready</text>
</g>
<!-- Node15&#45;&gt;Node5 -->
<g id="edge16" class="edge">
<title>Node15&#45;&gt;Node5</title>
<path fill="none" stroke="#9a32cd" stroke-dasharray="5,2" d="M1111.94,-473.86C1159.94,-465.54 1234.39,-461.18 1282,-499.72 1320.81,-531.14 1345.88,-696 1351.7,-737.99"/>
<polygon fill="#9a32cd" stroke="#9a32cd" points="1111.01,-470.47 1101.82,-475.73 1112.29,-477.35 1111.01,-470.47"/>
<text text-anchor="middle" x="1213.5" y="-502.72" font-family="Helvetica,sans-Serif" font-size="10.00"> creator</text>
</g>
<!-- Node16 -->
<g id="node16" class="node">
<title>Node16</title>
<g id="a_node16"><a xlink:title=" ">
<polygon fill="none" stroke="#bfbfbf" points="460.5,-433.22 460.5,-452.22 516.5,-452.22 516.5,-433.22 460.5,-433.22"/>
<text text-anchor="middle" x="488.5" y="-440.22" font-family="Helvetica,sans-Serif" font-size="10.00">uint32_t</text>
</a>
</g>
</g>
<!-- Node16&#45;&gt;Node5 -->
<g id="edge39" class="edge">
<title>Node16&#45;&gt;Node5</title>
<path fill="none" stroke="#9a32cd" stroke-dasharray="5,2" d="M497.09,-461.48C509.23,-488.74 535.81,-538.46 576,-560.72 735.06,-648.82 804.02,-564.9 984,-590.72 1118.09,-609.96 1167.6,-582.17 1282,-654.72 1315.45,-675.93 1339.14,-718.79 1348.53,-738.01"/>
<polygon fill="#9a32cd" stroke="#9a32cd" points="500.29,-460.07 493.15,-452.24 493.85,-462.81 500.29,-460.07"/>
<text text-anchor="middle" x="919.5" y="-648.72" font-family="Helvetica,sans-Serif" font-size="10.00"> heartbeat_interval</text>
<text text-anchor="middle" x="919.5" y="-637.72" font-family="Helvetica,sans-Serif" font-size="10.00">intents</text>
<text text-anchor="middle" x="919.5" y="-626.72" font-family="Helvetica,sans-Serif" font-size="10.00">max_shards</text>
<text text-anchor="middle" x="919.5" y="-615.72" font-family="Helvetica,sans-Serif" font-size="10.00">reconnects</text>
<text text-anchor="middle" x="919.5" y="-604.72" font-family="Helvetica,sans-Serif" font-size="10.00">resumes</text>
<text text-anchor="middle" x="919.5" y="-593.72" font-family="Helvetica,sans-Serif" font-size="10.00">shard_id</text>
</g>
<!-- Node16&#45;&gt;Node15 -->
<g id="edge19" class="edge">
<title>Node16&#45;&gt;Node15</title>
<path fill="none" stroke="#9a32cd" stroke-dasharray="5,2" d="M526.91,-443.79C611.21,-446.46 810.75,-454.33 837,-469.72 849.44,-477.01 842.28,-489.92 855,-496.72 905.55,-523.77 926.83,-501.01 984,-496.72 998.2,-495.65 1013.7,-493.53 1027.22,-491.37"/>
<polygon fill="#9a32cd" stroke="#9a32cd" points="526.85,-440.29 516.75,-443.47 526.64,-447.28 526.85,-440.29"/>
<text text-anchor="middle" x="776" y="-505.72" font-family="Helvetica,sans-Serif" font-size="10.00"> cluster_id</text>
<text text-anchor="middle" x="776" y="-494.72" font-family="Helvetica,sans-Serif" font-size="10.00">intents</text>
<text text-anchor="middle" x="776" y="-483.72" font-family="Helvetica,sans-Serif" font-size="10.00">maxclusters</text>
<text text-anchor="middle" x="776" y="-472.72" font-family="Helvetica,sans-Serif" font-size="10.00">numshards</text>
</g>
<!-- Node16&#45;&gt;Node18 -->
<g id="edge30" class="edge">
<title>Node16&#45;&gt;Node18</title>
<path fill="none" stroke="#9a32cd" stroke-dasharray="5,2" d="M526.4,-436.94C584.46,-427.68 691.19,-409.94 697,-403.72 743.44,-354.01 674,-306 715,-251.72 722.21,-242.18 733.74,-236.25 744.77,-232.58"/>
<polygon fill="#9a32cd" stroke="#9a32cd" points="525.83,-433.49 516.5,-438.51 526.93,-440.4 525.83,-433.49"/>
<text text-anchor="middle" x="636.5" y="-431.72" font-family="Helvetica,sans-Serif" font-size="10.00"> flags</text>
</g>
<!-- Node16&#45;&gt;Node34 -->
<g id="edge54" class="edge">
<title>Node16&#45;&gt;Node34</title>
<path fill="none" stroke="#9a32cd" stroke-dasharray="5,2" d="M511.18,-426.42C526.97,-413.24 547.38,-393.23 558,-370.72 586.27,-310.79 536.55,-275.96 576,-222.72 597.03,-194.34 693.52,-160.47 744.01,-144.27"/>
<polygon fill="#9a32cd" stroke="#9a32cd" points="508.58,-424.01 502.98,-433 512.97,-429.47 508.58,-424.01"/>
<text text-anchor="middle" x="636.5" y="-225.72" font-family="Helvetica,sans-Serif" font-size="10.00"> flags</text>
</g>
<!-- Node17 -->
<g id="node17" class="node">
<title>Node17</title>
<g id="a_node17"><a xlink:title=" ">
<polygon fill="none" stroke="#bfbfbf" points="751,-686.22 751,-705.22 801,-705.22 801,-686.22 751,-686.22"/>
<text text-anchor="middle" x="776" y="-693.22" font-family="Helvetica,sans-Serif" font-size="10.00">double</text>
</a>
</g>
</g>
<!-- Node17&#45;&gt;Node5 -->
<g id="edge45" class="edge">
<title>Node17&#45;&gt;Node5</title>
<path fill="none" stroke="#9a32cd" stroke-dasharray="5,2" d="M811.23,-696.88C892.97,-699.97 1105.86,-709.81 1282,-733.72 1290.71,-734.9 1299.97,-736.49 1308.82,-738.16"/>
<polygon fill="#9a32cd" stroke="#9a32cd" points="811.15,-693.38 801.03,-696.51 810.89,-700.37 811.15,-693.38"/>
<text text-anchor="middle" x="1064.5" y="-719.72" font-family="Helvetica,sans-Serif" font-size="10.00"> websocket_ping</text>
</g>
<!-- Node17&#45;&gt;Node15 -->
<g id="edge20" class="edge">
<title>Node17&#45;&gt;Node15</title>
<path fill="none" stroke="#9a32cd" stroke-dasharray="5,2" d="M811.3,-690.45C869.35,-681.47 981.02,-663.84 984,-660.72 1030.04,-612.45 962.24,-565.28 1002,-511.72 1008.26,-503.29 1017.71,-497.46 1027.35,-493.43"/>
<polygon fill="#9a32cd" stroke="#9a32cd" points="810.47,-687.04 801.12,-692.03 811.54,-693.96 810.47,-687.04"/>
<text text-anchor="middle" x="919.5" y="-686.72" font-family="Helvetica,sans-Serif" font-size="10.00"> rest_ping</text>
</g>
<!-- Node18&#45;&gt;Node15 -->
<g id="edge21" class="edge">
<title>Node18&#45;&gt;Node15</title>
<path fill="none" stroke="#9a32cd" stroke-dasharray="5,2" d="M817.09,-226C869.93,-225.86 959.09,-228.74 984,-248.72 1057.87,-307.95 1063.53,-438.55 1063.63,-475.07"/>
<polygon fill="#9a32cd" stroke="#9a32cd" points="817.02,-222.5 807.04,-226.06 817.06,-229.5 817.02,-222.5"/>
<text text-anchor="middle" x="919.5" y="-251.72" font-family="Helvetica,sans-Serif" font-size="10.00"> me</text>
</g>
<!-- Node19 -->
<g id="node19" class="node">
<title>Node19</title>
<g id="a_node19"><a xlink:href="classdpp_1_1managed.html" target="_top" xlink:title="The managed class is the base class for various types that can be stored in a cache that are identifi...">
<polygon fill="none" stroke="black" points="445.5,-43.22 445.5,-62.22 531.5,-62.22 531.5,-43.22 445.5,-43.22"/>
<text text-anchor="middle" x="488.5" y="-50.22" font-family="Helvetica,sans-Serif" font-size="10.00">dpp::managed</text>
</a>
</g>
</g>
<!-- Node19&#45;&gt;Node18 -->
<g id="edge22" class="edge">
<title>Node19&#45;&gt;Node18</title>
<path fill="none" stroke="midnightblue" d="M541.83,-56.84C589.39,-63.46 657.93,-80.72 697,-125.72 720.04,-152.26 692.09,-176.07 715,-202.72 722.61,-211.57 733.93,-217.19 744.7,-220.74"/>
<polygon fill="midnightblue" stroke="midnightblue" points="542.08,-53.34 531.71,-55.54 541.19,-60.28 542.08,-53.34"/>
</g>
<!-- Node20&#45;&gt;Node19 -->
<g id="edge23" class="edge">
<title>Node20&#45;&gt;Node19</title>
<path fill="none" stroke="#9a32cd" stroke-dasharray="5,2" d="M250.92,-52.72C307.06,-52.72 393.85,-52.72 445.23,-52.72"/>
<polygon fill="#9a32cd" stroke="#9a32cd" points="250.81,-49.22 240.81,-52.72 250.81,-56.22 250.81,-49.22"/>
<text text-anchor="middle" x="342" y="-55.72" font-family="Helvetica,sans-Serif" font-size="10.00"> id</text>
</g>
<!-- Node20&#45;&gt;Node34 -->
<g id="edge52" class="edge">
<title>Node20&#45;&gt;Node34</title>
<path fill="none" stroke="#9a32cd" stroke-dasharray="5,2" d="M233.26,-39.94C299.04,-18.64 441.97,18.88 558,-11.72 644.26,-34.47 732.21,-100.25 763.27,-125.08"/>
<polygon fill="#9a32cd" stroke="#9a32cd" points="232.15,-36.62 223.75,-43.08 234.35,-43.26 232.15,-36.62"/>
<text text-anchor="middle" x="488.5" y="-25.72" font-family="Helvetica,sans-Serif" font-size="10.00"> thread_id</text>
<text text-anchor="middle" x="488.5" y="-14.72" font-family="Helvetica,sans-Serif" font-size="10.00">user_id</text>
</g>
<!-- Node21 -->
<g id="node21" class="node">
<title>Node21</title>
<g id="a_node21"><a xlink:href="structdpp_1_1json__interface.html" target="_top" xlink:title=" ">
<polygon fill="none" stroke="black" points="433.5,-169.72 433.5,-199.72 543.5,-199.72 543.5,-169.72 433.5,-169.72"/>
<text text-anchor="start" x="441.5" y="-187.72" font-family="Helvetica,sans-Serif" font-size="10.00">dpp::json_interface</text>
<text text-anchor="middle" x="488.5" y="-176.72" font-family="Helvetica,sans-Serif" font-size="10.00">&lt; user &gt;</text>
</a>
</g>
</g>
<!-- Node21&#45;&gt;Node18 -->
<g id="edge25" class="edge">
<title>Node21&#45;&gt;Node18</title>
<path fill="none" stroke="midnightblue" d="M553.82,-193.87C594.81,-199.73 649.04,-207.56 697,-214.72 712.72,-217.07 730.21,-219.75 744.64,-221.98"/>
<polygon fill="midnightblue" stroke="midnightblue" points="554.09,-190.37 543.7,-192.42 553.1,-197.3 554.09,-190.37"/>
</g>
<!-- Node22 -->
<g id="node22" class="node">
<title>Node22</title>
<g id="a_node22"><a xlink:href="structdpp_1_1json__interface.html" target="_top" xlink:title="Represents an interface for an object that can optionally implement functions for converting to and f...">
<polygon fill="none" stroke="black" points="127,-124.22 127,-143.22 265,-143.22 265,-124.22 127,-124.22"/>
<text text-anchor="middle" x="196" y="-131.22" font-family="Helvetica,sans-Serif" font-size="10.00">dpp::json_interface&lt; T &gt;</text>
</a>
</g>
</g>
<!-- Node22&#45;&gt;Node21 -->
<g id="edge26" class="edge">
<title>Node22&#45;&gt;Node21</title>
<path fill="none" stroke="orange" stroke-dasharray="5,2" d="M261.35,-145.02C313.02,-154.09 384.75,-166.68 433.47,-175.23"/>
<polygon fill="orange" stroke="orange" points="261.75,-141.54 251.3,-143.25 260.54,-148.43 261.75,-141.54"/>
<text text-anchor="middle" x="342" y="-171.72" font-family="Helvetica,sans-Serif" font-size="10.00"> &lt; user &gt;</text>
</g>
<!-- Node35 -->
<g id="node35" class="node">
<title>Node35</title>
<g id="a_node35"><a xlink:href="structdpp_1_1json__interface.html" target="_top" xlink:title=" ">
<polygon fill="none" stroke="black" points="430,-81.72 430,-111.72 547,-111.72 547,-81.72 430,-81.72"/>
<text text-anchor="start" x="438" y="-99.72" font-family="Helvetica,sans-Serif" font-size="10.00">dpp::json_interface</text>
<text text-anchor="middle" x="488.5" y="-88.72" font-family="Helvetica,sans-Serif" font-size="10.00">&lt; thread_member &gt;</text>
</a>
</g>
</g>
<!-- Node22&#45;&gt;Node35 -->
<g id="edge51" class="edge">
<title>Node22&#45;&gt;Node35</title>
<path fill="none" stroke="orange" stroke-dasharray="5,2" d="M275.28,-123.75C323.91,-117.56 385.37,-109.73 429.62,-104.09"/>
<polygon fill="orange" stroke="orange" points="274.59,-120.31 265.11,-125.05 275.47,-127.25 274.59,-120.31"/>
<text text-anchor="middle" x="342" y="-125.72" font-family="Helvetica,sans-Serif" font-size="10.00"> &lt; thread_member &gt;</text>
</g>
<!-- Node23&#45;&gt;Node18 -->
<g id="edge28" class="edge">
<title>Node23&#45;&gt;Node18</title>
<path fill="none" stroke="#9a32cd" stroke-dasharray="5,2" d="M352.99,-331.07C365.42,-309.9 388.76,-276.17 419,-259.72 526.69,-201.15 680.11,-213.31 744.6,-221.93"/>
<polygon fill="#9a32cd" stroke="#9a32cd" points="349.78,-329.64 347.92,-340.07 355.88,-333.08 349.78,-329.64"/>
<text text-anchor="middle" x="488.5" y="-273.72" font-family="Helvetica,sans-Serif" font-size="10.00"> avatar</text>
<text text-anchor="middle" x="488.5" y="-262.72" font-family="Helvetica,sans-Serif" font-size="10.00">avatar_decoration</text>
</g>
<!-- Node24 -->
<g id="node24" class="node">
<title>Node24</title>
<g id="a_node24"><a xlink:title=" ">
<polygon fill="none" stroke="#bfbfbf" points="460.5,-291.22 460.5,-310.22 516.5,-310.22 516.5,-291.22 460.5,-291.22"/>
<text text-anchor="middle" x="488.5" y="-298.22" font-family="Helvetica,sans-Serif" font-size="10.00">uint16_t</text>
</a>
</g>
</g>
<!-- Node24&#45;&gt;Node15 -->
<g id="edge37" class="edge">
<title>Node24&#45;&gt;Node15</title>
<path fill="none" stroke="#9a32cd" stroke-dasharray="5,2" d="M526.85,-302.83C542.09,-303.59 559.88,-304.35 576,-304.72 629.76,-305.96 648.4,-327.75 697,-304.72 708.42,-299.31 703.58,-288.13 715,-282.72 769.04,-257.11 935.18,-255.19 984,-289.72 1048.17,-335.11 1060.63,-441.8 1062.97,-474.81"/>
<polygon fill="#9a32cd" stroke="#9a32cd" points="526.93,-299.32 516.76,-302.3 526.57,-306.32 526.93,-299.32"/>
<text text-anchor="middle" x="776" y="-285.72" font-family="Helvetica,sans-Serif" font-size="10.00"> request_timeout</text>
</g>
<!-- Node24&#45;&gt;Node18 -->
<g id="edge31" class="edge">
<title>Node24&#45;&gt;Node18</title>
<path fill="none" stroke="#9a32cd" stroke-dasharray="5,2" d="M515.33,-286.15C532.13,-277.26 554.79,-266.36 576,-259.72 606.91,-250.04 697.07,-237.12 744.7,-230.69"/>
<polygon fill="#9a32cd" stroke="#9a32cd" points="513.3,-283.26 506.16,-291.1 516.63,-289.42 513.3,-283.26"/>
<text text-anchor="middle" x="636.5" y="-262.72" font-family="Helvetica,sans-Serif" font-size="10.00"> discriminator</text>
</g>
<!-- Node25 -->
<g id="node25" class="node">
<title>Node25</title>
<g id="a_node25"><a xlink:title=" ">
<polygon fill="none" stroke="#bfbfbf" points="463.5,-131.22 463.5,-150.22 513.5,-150.22 513.5,-131.22 463.5,-131.22"/>
<text text-anchor="middle" x="488.5" y="-138.22" font-family="Helvetica,sans-Serif" font-size="10.00">uint8_t</text>
</a>
</g>
</g>
<!-- Node25&#45;&gt;Node18 -->
<g id="edge32" class="edge">
<title>Node25&#45;&gt;Node18</title>
<path fill="none" stroke="#9a32cd" stroke-dasharray="5,2" d="M523.75,-136.13C575.56,-129.95 670.59,-121.88 697,-141.72 719.6,-158.7 695.97,-181.82 715,-202.72 722.86,-211.35 734.23,-216.93 744.97,-220.51"/>
<polygon fill="#9a32cd" stroke="#9a32cd" points="523.2,-132.67 513.7,-137.36 524.05,-139.61 523.2,-132.67"/>
<text text-anchor="middle" x="636.5" y="-144.72" font-family="Helvetica,sans-Serif" font-size="10.00"> refcount</text>
</g>
<!-- Node26 -->
<g id="node26" class="node">
<title>Node26</title>
<g id="a_node26"><a xlink:href="structdpp_1_1cache__policy__t.html" target="_top" xlink:title="Represents the caching policy of the cluster.">
<polygon fill="none" stroke="black" points="719.5,-303.22 719.5,-322.22 832.5,-322.22 832.5,-303.22 719.5,-303.22"/>
<text text-anchor="middle" x="776" y="-310.22" font-family="Helvetica,sans-Serif" font-size="10.00">dpp::cache_policy_t</text>
</a>
</g>
</g>
<!-- Node26&#45;&gt;Node15 -->
<g id="edge33" class="edge">
<title>Node26&#45;&gt;Node15</title>
<path fill="none" stroke="#9a32cd" stroke-dasharray="5,2" d="M820.15,-300.93C864.87,-291.38 934.96,-284.09 984,-315.72 1042.04,-353.15 1058.53,-445.29 1062.44,-475.19"/>
<polygon fill="#9a32cd" stroke="#9a32cd" points="819.16,-297.57 810.18,-303.19 820.71,-304.4 819.16,-297.57"/>
<text text-anchor="middle" x="919.5" y="-318.72" font-family="Helvetica,sans-Serif" font-size="10.00"> cache_policy</text>
</g>
<!-- Node27 -->
<g id="node27" class="node">
<title>Node27</title>
<g id="a_node27"><a xlink:title=" ">
<polygon fill="none" stroke="#bfbfbf" points="424.5,-342.22 424.5,-361.22 552.5,-361.22 552.5,-342.22 424.5,-342.22"/>
<text text-anchor="middle" x="488.5" y="-349.22" font-family="Helvetica,sans-Serif" font-size="10.00">cache_policy_setting_t</text>
</a>
</g>
</g>
<!-- Node27&#45;&gt;Node26 -->
<g id="edge34" class="edge">
<title>Node27&#45;&gt;Node26</title>
<path fill="none" stroke="#9a32cd" stroke-dasharray="5,2" d="M563,-345.89C602.8,-342.24 652.75,-336.87 697,-329.72 709.45,-327.71 722.91,-324.98 735.08,-322.3"/>
<polygon fill="#9a32cd" stroke="#9a32cd" points="562.5,-342.42 552.85,-346.81 563.12,-349.4 562.5,-342.42"/>
<text text-anchor="middle" x="636.5" y="-391.72" font-family="Helvetica,sans-Serif" font-size="10.00"> channel_policy</text>
<text text-anchor="middle" x="636.5" y="-380.72" font-family="Helvetica,sans-Serif" font-size="10.00">emoji_policy</text>
<text text-anchor="middle" x="636.5" y="-369.72" font-family="Helvetica,sans-Serif" font-size="10.00">guild_policy</text>
<text text-anchor="middle" x="636.5" y="-358.72" font-family="Helvetica,sans-Serif" font-size="10.00">role_policy</text>
<text text-anchor="middle" x="636.5" y="-347.72" font-family="Helvetica,sans-Serif" font-size="10.00">user_policy</text>
</g>
<!-- Node28 -->
<g id="node28" class="node">
<title>Node28</title>
<g id="a_node28"><a xlink:title=" ">
<polygon fill="none" stroke="#bfbfbf" points="715,-174.22 715,-193.22 837,-193.22 837,-174.22 715,-174.22"/>
<text text-anchor="middle" x="776" y="-181.22" font-family="Helvetica,sans-Serif" font-size="10.00">websocket_protocol_t</text>
</a>
</g>
</g>
<!-- Node28&#45;&gt;Node5 -->
<g id="edge46" class="edge">
<title>Node28&#45;&gt;Node5</title>
<path fill="none" stroke="#9a32cd" stroke-dasharray="5,2" d="M847.58,-175.98C888.87,-174.22 941.12,-176.86 984,-194.72 1148.99,-263.43 1190.08,-311.45 1282,-464.72 1339.32,-560.29 1350.56,-700.6 1352.58,-738.17"/>
<polygon fill="#9a32cd" stroke="#9a32cd" points="847.14,-172.5 837.34,-176.52 847.51,-179.49 847.14,-172.5"/>
<text text-anchor="middle" x="1064.5" y="-271.72" font-family="Helvetica,sans-Serif" font-size="10.00"> protocol</text>
</g>
<!-- Node28&#45;&gt;Node15 -->
<g id="edge35" class="edge">
<title>Node28&#45;&gt;Node15</title>
<path fill="none" stroke="#9a32cd" stroke-dasharray="5,2" d="M847.41,-191.75C905.33,-198.64 978.73,-208.17 984,-212.72 1066.44,-283.99 1065.74,-435.56 1064.05,-475.11"/>
<polygon fill="#9a32cd" stroke="#9a32cd" points="847.51,-188.24 837.16,-190.54 846.68,-195.19 847.51,-188.24"/>
<text text-anchor="middle" x="919.5" y="-215.72" font-family="Helvetica,sans-Serif" font-size="10.00"> ws_mode</text>
</g>
<!-- Node29 -->
<g id="node29" class="node">
<title>Node29</title>
<g id="a_node29"><a xlink:title=" ">
<polygon fill="none" stroke="#bfbfbf" points="722.5,-400.22 722.5,-419.22 829.5,-419.22 829.5,-400.22 722.5,-400.22"/>
<text text-anchor="middle" x="776" y="-407.22" font-family="Helvetica,sans-Serif" font-size="10.00">condition_variable</text>
</a>
</g>
</g>
<!-- Node29&#45;&gt;Node15 -->
<g id="edge36" class="edge">
<title>Node29&#45;&gt;Node15</title>
<path fill="none" stroke="#9a32cd" stroke-dasharray="5,2" d="M821.31,-423.62C826.92,-426.45 832.32,-429.79 837,-433.72 848.62,-443.47 842.15,-454.66 855,-462.72 882.91,-480.22 975.58,-483.97 1027.48,-484.67"/>
<polygon fill="#9a32cd" stroke="#9a32cd" points="822.32,-420.24 811.77,-419.34 819.45,-426.63 822.32,-420.24"/>
<text text-anchor="middle" x="919.5" y="-486.72" font-family="Helvetica,sans-Serif" font-size="10.00"> terminating</text>
</g>
<!-- Node30 -->
<g id="node30" class="node">
<title>Node30</title>
<g id="a_node30"><a xlink:title=" ">
<polygon fill="none" stroke="#bfbfbf" points="728,-341.22 728,-360.22 824,-360.22 824,-341.22 728,-341.22"/>
<text text-anchor="middle" x="776" y="-348.22" font-family="Helvetica,sans-Serif" font-size="10.00">event_router_t&lt;</text>
</a>
</g>
</g>
<!-- Node30&#45;&gt;Node15 -->
<g id="edge38" class="edge">
<title>Node30&#45;&gt;Node15</title>
<path fill="none" stroke="#9a32cd" stroke-dasharray="5,2" d="M834.54,-339.98C886.9,-331.47 959.64,-323.2 984,-337.72 1036.34,-368.92 1056.31,-447.85 1061.79,-475.21"/>
<polygon fill="#9a32cd" stroke="#9a32cd" points="833.64,-336.58 824.35,-341.68 834.79,-343.48 833.64,-336.58"/>
<text text-anchor="middle" x="919.5" y="-450.72" font-family="Helvetica,sans-Serif" font-size="10.00"> on_autocomplete</text>
<text text-anchor="middle" x="919.5" y="-439.72" font-family="Helvetica,sans-Serif" font-size="10.00">on_automod_rule_create</text>
<text text-anchor="middle" x="919.5" y="-428.72" font-family="Helvetica,sans-Serif" font-size="10.00">on_automod_rule_delete</text>
<text text-anchor="middle" x="919.5" y="-417.72" font-family="Helvetica,sans-Serif" font-size="10.00">on_automod_rule_execute</text>
<text text-anchor="middle" x="919.5" y="-406.72" font-family="Helvetica,sans-Serif" font-size="10.00">on_automod_rule_update</text>
<text text-anchor="middle" x="919.5" y="-395.72" font-family="Helvetica,sans-Serif" font-size="10.00">on_button_click</text>
<text text-anchor="middle" x="919.5" y="-384.72" font-family="Helvetica,sans-Serif" font-size="10.00">on_channel_create</text>
<text text-anchor="middle" x="919.5" y="-373.72" font-family="Helvetica,sans-Serif" font-size="10.00">on_channel_delete</text>
<text text-anchor="middle" x="919.5" y="-362.72" font-family="Helvetica,sans-Serif" font-size="10.00">on_channel_pins_update</text>
<text text-anchor="middle" x="919.5" y="-351.72" font-family="Helvetica,sans-Serif" font-size="10.00">on_channel_update</text>
<text text-anchor="middle" x="919.5" y="-340.72" font-family="Helvetica,sans-Serif" font-size="10.00">...</text>
</g>
<!-- Node31 -->
<g id="node31" class="node">
<title>Node31</title>
<g id="a_node31"><a xlink:title=" ">
<polygon fill="none" stroke="#bfbfbf" points="1008,-942.22 1008,-961.22 1121,-961.22 1121,-942.22 1008,-942.22"/>
<text text-anchor="middle" x="1064.5" y="-949.22" font-family="Helvetica,sans-Serif" font-size="10.00">native_handle_type</text>
</a>
</g>
</g>
<!-- Node31&#45;&gt;Node5 -->
<g id="edge41" class="edge">
<title>Node31&#45;&gt;Node5</title>
<path fill="none" stroke="#9a32cd" stroke-dasharray="5,2" d="M1131.33,-946.88C1190.59,-941.98 1270.16,-933.85 1282,-924.72 1337.86,-881.67 1349.92,-787.72 1352.39,-757.38"/>
<polygon fill="#9a32cd" stroke="#9a32cd" points="1130.95,-943.4 1121.27,-947.7 1131.52,-950.38 1130.95,-943.4"/>
<text text-anchor="middle" x="1213.5" y="-947.72" font-family="Helvetica,sans-Serif" font-size="10.00"> thread_id</text>
</g>
<!-- Node32 -->
<g id="node32" class="node">
<title>Node32</title>
<g id="a_node32"><a xlink:title=" ">
<polygon fill="none" stroke="#bfbfbf" points="1011,-521.22 1011,-540.22 1118,-540.22 1118,-521.22 1011,-521.22"/>
<text text-anchor="middle" x="1064.5" y="-528.22" font-family="Helvetica,sans-Serif" font-size="10.00">std::shared_mutex</text>
</a>
</g>
</g>
<!-- Node32&#45;&gt;Node5 -->
<g id="edge44" class="edge">
<title>Node32&#45;&gt;Node5</title>
<path fill="none" stroke="#9a32cd" stroke-dasharray="5,2" d="M1114.35,-519.39C1162.03,-511.34 1234.17,-507.52 1282,-543.72 1346.59,-592.61 1352.73,-704.23 1353.07,-737.92"/>
<polygon fill="#9a32cd" stroke="#9a32cd" points="1113.49,-515.99 1104.27,-521.22 1114.74,-522.88 1113.49,-515.99"/>
<text text-anchor="middle" x="1213.5" y="-546.72" font-family="Helvetica,sans-Serif" font-size="10.00"> voice_mutex</text>
</g>
<!-- Node33 -->
<g id="node33" class="node">
<title>Node33</title>
<g id="a_node33"><a xlink:title=" ">
<polygon fill="none" stroke="#bfbfbf" points="1014,-653.22 1014,-672.22 1115,-672.22 1115,-653.22 1014,-653.22"/>
<text text-anchor="middle" x="1064.5" y="-660.22" font-family="Helvetica,sans-Serif" font-size="10.00">unordered_map&lt;</text>
</a>
</g>
</g>
<!-- Node33&#45;&gt;Node5 -->
<g id="edge47" class="edge">
<title>Node33&#45;&gt;Node5</title>
<path fill="none" stroke="#9a32cd" stroke-dasharray="5,2" d="M1125.61,-658.66C1170.53,-657.92 1232.47,-661.89 1282,-683.72 1309.64,-695.9 1333.86,-723.11 1345.56,-737.82"/>
<polygon fill="#9a32cd" stroke="#9a32cd" points="1125.35,-655.16 1115.44,-658.91 1125.52,-662.16 1125.35,-655.16"/>
<text text-anchor="middle" x="1213.5" y="-686.72" font-family="Helvetica,sans-Serif" font-size="10.00"> connecting_voice_channels</text>
</g>
<!-- Node34&#45;&gt;Node1 -->
<g id="edge49" class="edge">
<title>Node34&#45;&gt;Node1</title>
<path fill="none" stroke="#9a32cd" stroke-dasharray="5,2" d="M845.86,-134.72C903.9,-134.72 989.13,-134.72 1063.5,-134.72 1063.5,-134.72 1063.5,-134.72 1534,-134.72 1566.43,-134.72 1602.52,-137.31 1631.87,-140.09"/>
<polygon fill="#9a32cd" stroke="#9a32cd" points="845.71,-131.22 835.71,-134.72 845.71,-138.22 845.71,-131.22"/>
<text text-anchor="middle" x="1354" y="-137.72" font-family="Helvetica,sans-Serif" font-size="10.00"> updated</text>
</g>
<!-- Node35&#45;&gt;Node34 -->
<g id="edge50" class="edge">
<title>Node35&#45;&gt;Node34</title>
<path fill="none" stroke="midnightblue" d="M557.45,-102.25C598.07,-105.98 650.63,-111.52 697,-118.72 708.47,-120.5 720.82,-122.84 732.22,-125.17"/>
<polygon fill="midnightblue" stroke="midnightblue" points="557.66,-98.76 547.39,-101.35 557.03,-105.73 557.66,-98.76"/>
</g>
</g>
</svg>
