<?xml version="1.0" encoding="UTF-8" standalone="no"?>
<!DOCTYPE svg PUBLIC "-//W3C//DTD SVG 1.1//EN"
 "http://www.w3.org/Graphics/SVG/1.1/DTD/svg11.dtd">
<!-- Generated by graphviz version 2.43.0 (0)
 -->
<!-- Title: dpp::message Pages: 1 -->
<svg width="1354pt" height="1502pt"
 viewBox="0.00 0.00 1354.00 1502.46" xmlns="http://www.w3.org/2000/svg" xmlns:xlink="http://www.w3.org/1999/xlink">
<g id="graph0" class="graph" transform="scale(1 1) rotate(0) translate(4 1498.46)">
<title>dpp::message</title>
<!-- Node1 -->
<g id="node1" class="node">
<title>Node1</title>
<g id="a_node1"><a xlink:title="Represents messages sent and received on Discord.">
<polygon fill="#bfbfbf" stroke="black" points="1261,-400.96 1261,-419.96 1346,-419.96 1346,-400.96 1261,-400.96"/>
<text text-anchor="middle" x="1303.5" y="-407.96" font-family="Helvetica,sans-Serif" font-size="10.00">dpp::message</text>
</a>
</g>
</g>
<!-- Node2 -->
<g id="node2" class="node">
<title>Node2</title>
<g id="a_node2"><a xlink:href="classdpp_1_1managed.html" target="_top" xlink:title="The managed class is the base class for various types that can be stored in a cache that are identifi...">
<polygon fill="none" stroke="black" points="415,-649.96 415,-668.96 501,-668.96 501,-649.96 415,-649.96"/>
<text text-anchor="middle" x="458" y="-656.96" font-family="Helvetica,sans-Serif" font-size="10.00">dpp::managed</text>
</a>
</g>
</g>
<!-- Node2&#45;&gt;Node1 -->
<g id="edge1" class="edge">
<title>Node2&#45;&gt;Node1</title>
<path fill="none" stroke="midnightblue" d="M510.76,-647.17C514.74,-645.24 518.54,-643.02 522,-640.46 533.59,-631.87 527.94,-621.37 540,-613.46 573.18,-591.68 1209.01,-506.95 1243,-486.46 1270.12,-470.1 1289.63,-436.47 1297.98,-419.99"/>
<polygon fill="midnightblue" stroke="midnightblue" points="509.14,-644.05 501.26,-651.13 511.83,-650.51 509.14,-644.05"/>
</g>
<!-- Node7 -->
<g id="node7" class="node">
<title>Node7</title>
<g id="a_node7"><a xlink:href="classdpp_1_1user.html" target="_top" xlink:title="Represents a user on discord. May or may not be a member of a dpp::guild.">
<polygon fill="none" stroke="black" points="714,-712.96 714,-731.96 776,-731.96 776,-712.96 714,-712.96"/>
<text text-anchor="middle" x="745" y="-719.96" font-family="Helvetica,sans-Serif" font-size="10.00">dpp::user</text>
</a>
</g>
</g>
<!-- Node2&#45;&gt;Node7 -->
<g id="edge8" class="edge">
<title>Node2&#45;&gt;Node7</title>
<path fill="none" stroke="midnightblue" d="M508.48,-672.45C513.14,-674.25 517.72,-676.25 522,-678.46 531,-683.11 530.68,-688.48 540,-692.46 597.94,-717.2 672.64,-722.1 713.66,-722.75"/>
<polygon fill="midnightblue" stroke="midnightblue" points="509.46,-669.09 498.86,-669.05 507.12,-675.69 509.46,-669.09"/>
</g>
<!-- Node3 -->
<g id="node3" class="node">
<title>Node3</title>
<g id="a_node3"><a xlink:href="classdpp_1_1snowflake.html" target="_top" xlink:title="A container for a 64 bit unsigned value representing many things on discord. This value is known in d...">
<polygon fill="none" stroke="black" points="147.5,-528.96 147.5,-547.96 236.5,-547.96 236.5,-528.96 147.5,-528.96"/>
<text text-anchor="middle" x="192" y="-535.96" font-family="Helvetica,sans-Serif" font-size="10.00">dpp::snowflake</text>
</a>
</g>
</g>
<!-- Node3&#45;&gt;Node1 -->
<g id="edge6" class="edge">
<title>Node3&#45;&gt;Node1</title>
<path fill="none" stroke="#9a32cd" stroke-dasharray="5,2" d="M246.73,-528.84C314.79,-516.95 435.76,-496.78 540,-484.46 851.3,-447.67 934.57,-483.46 1243,-427.46 1253.04,-425.64 1263.82,-422.82 1273.42,-420.01"/>
<polygon fill="#9a32cd" stroke="#9a32cd" points="245.92,-525.43 236.68,-530.6 247.13,-532.32 245.92,-525.43"/>
<text text-anchor="middle" x="745" y="-495.46" font-family="Helvetica,sans-Serif" font-size="10.00"> channel_id</text>
<text text-anchor="middle" x="745" y="-484.46" font-family="Helvetica,sans-Serif" font-size="10.00">guild_id</text>
<text text-anchor="middle" x="745" y="-473.46" font-family="Helvetica,sans-Serif" font-size="10.00">webhook_id</text>
</g>
<!-- Node3&#45;&gt;Node2 -->
<g id="edge2" class="edge">
<title>Node3&#45;&gt;Node2</title>
<path fill="none" stroke="#9a32cd" stroke-dasharray="5,2" d="M217.83,-553.12C255.07,-574.62 328.07,-614.92 394,-640.46 402.95,-643.92 412.81,-647.16 422.02,-649.95"/>
<polygon fill="#9a32cd" stroke="#9a32cd" points="219.57,-550.08 209.16,-548.08 216.05,-556.13 219.57,-550.08"/>
<text text-anchor="middle" x="327.5" y="-633.46" font-family="Helvetica,sans-Serif" font-size="10.00"> id</text>
</g>
<!-- Node15 -->
<g id="node15" class="node">
<title>Node15</title>
<g id="a_node15"><a xlink:href="classdpp_1_1guild__member.html" target="_top" xlink:title="Represents dpp::user membership upon a dpp::guild. This contains the user&#39;s nickname,...">
<polygon fill="none" stroke="black" points="689.5,-416.96 689.5,-435.96 800.5,-435.96 800.5,-416.96 689.5,-416.96"/>
<text text-anchor="middle" x="745" y="-423.96" font-family="Helvetica,sans-Serif" font-size="10.00">dpp::guild_member</text>
</a>
</g>
</g>
<!-- Node3&#45;&gt;Node15 -->
<g id="edge24" class="edge">
<title>Node3&#45;&gt;Node15</title>
<path fill="none" stroke="#9a32cd" stroke-dasharray="5,2" d="M206.26,-520.59C221.47,-501.65 248.3,-472.69 279,-459.46 283.67,-457.45 567.66,-438.25 689.48,-430.1"/>
<polygon fill="#9a32cd" stroke="#9a32cd" points="203.31,-518.68 199.94,-528.73 208.84,-522.98 203.31,-518.68"/>
<text text-anchor="middle" x="458" y="-463.46" font-family="Helvetica,sans-Serif" font-size="10.00"> guild_id</text>
<text text-anchor="middle" x="458" y="-452.46" font-family="Helvetica,sans-Serif" font-size="10.00">user_id</text>
</g>
<!-- Node19 -->
<g id="node19" class="node">
<title>Node19</title>
<g id="a_node19"><a xlink:href="structdpp_1_1message_1_1message__ref.html" target="_top" xlink:title="Reference to another message, e.g. a reply.">
<polygon fill="none" stroke="black" points="971,-301.96 971,-320.96 1125,-320.96 1125,-301.96 971,-301.96"/>
<text text-anchor="middle" x="1048" y="-308.96" font-family="Helvetica,sans-Serif" font-size="10.00">dpp::message::message_ref</text>
</a>
</g>
</g>
<!-- Node3&#45;&gt;Node19 -->
<g id="edge31" class="edge">
<title>Node3&#45;&gt;Node19</title>
<path fill="none" stroke="#9a32cd" stroke-dasharray="5,2" d="M200.51,-519.58C218.69,-474.32 264.58,-362.55 279,-351.46 320.11,-319.82 342.39,-336.71 394,-331.46 503.66,-320.3 823.25,-314.56 970.76,-312.44"/>
<polygon fill="#9a32cd" stroke="#9a32cd" points="197.26,-518.28 196.8,-528.87 203.76,-520.88 197.26,-518.28"/>
<text text-anchor="middle" x="603" y="-347.46" font-family="Helvetica,sans-Serif" font-size="10.00"> channel_id</text>
<text text-anchor="middle" x="603" y="-336.46" font-family="Helvetica,sans-Serif" font-size="10.00">guild_id</text>
<text text-anchor="middle" x="603" y="-325.46" font-family="Helvetica,sans-Serif" font-size="10.00">message_id</text>
</g>
<!-- Node21 -->
<g id="node21" class="node">
<title>Node21</title>
<g id="a_node21"><a xlink:href="structdpp_1_1message_1_1message__interaction__struct.html" target="_top" xlink:title="Reference to an interaction.">
<polygon fill="none" stroke="black" points="980.5,-607.46 980.5,-637.46 1115.5,-637.46 1115.5,-607.46 980.5,-607.46"/>
<text text-anchor="start" x="988.5" y="-625.46" font-family="Helvetica,sans-Serif" font-size="10.00">dpp::message::message</text>
<text text-anchor="middle" x="1048" y="-614.46" font-family="Helvetica,sans-Serif" font-size="10.00">_interaction_struct</text>
</a>
</g>
</g>
<!-- Node3&#45;&gt;Node21 -->
<g id="edge34" class="edge">
<title>Node3&#45;&gt;Node21</title>
<path fill="none" stroke="#9a32cd" stroke-dasharray="5,2" d="M246.75,-543.24C371.11,-554.37 688.26,-583.26 953,-611.46 961.82,-612.4 971.11,-613.43 980.26,-614.48"/>
<polygon fill="#9a32cd" stroke="#9a32cd" points="247,-539.74 236.73,-542.34 246.38,-546.72 247,-539.74"/>
<text text-anchor="middle" x="603" y="-584.46" font-family="Helvetica,sans-Serif" font-size="10.00"> id</text>
</g>
<!-- Node4 -->
<g id="node4" class="node">
<title>Node4</title>
<g id="a_node4"><a xlink:title=" ">
<polygon fill="none" stroke="#bfbfbf" points="0,-598.96 0,-617.96 56,-617.96 56,-598.96 0,-598.96"/>
<text text-anchor="middle" x="28" y="-605.96" font-family="Helvetica,sans-Serif" font-size="10.00">uint64_t</text>
</a>
</g>
</g>
<!-- Node4&#45;&gt;Node3 -->
<g id="edge3" class="edge">
<title>Node4&#45;&gt;Node3</title>
<path fill="none" stroke="#9a32cd" stroke-dasharray="5,2" d="M60.5,-594.85C92.36,-581.08 140.79,-560.15 168.82,-548.04"/>
<polygon fill="#9a32cd" stroke="#9a32cd" points="58.98,-591.69 51.19,-598.87 61.75,-598.12 58.98,-591.69"/>
<text text-anchor="middle" x="89.5" y="-590.46" font-family="Helvetica,sans-Serif" font-size="10.00"> value</text>
</g>
<!-- Node11 -->
<g id="node11" class="node">
<title>Node11</title>
<g id="a_node11"><a xlink:href="structdpp_1_1utility_1_1iconhash.html" target="_top" xlink:title="Store a 128 bit icon hash (profile picture, server icon etc) as a 128 bit binary value made of two ui...">
<polygon fill="none" stroke="black" points="399,-687.96 399,-706.96 517,-706.96 517,-687.96 399,-687.96"/>
<text text-anchor="middle" x="458" y="-694.96" font-family="Helvetica,sans-Serif" font-size="10.00">dpp::utility::iconhash</text>
</a>
</g>
</g>
<!-- Node4&#45;&gt;Node11 -->
<g id="edge14" class="edge">
<title>Node4&#45;&gt;Node11</title>
<path fill="none" stroke="#9a32cd" stroke-dasharray="5,2" d="M65.97,-616.15C144.08,-632.39 325.69,-670.15 411.08,-687.91"/>
<polygon fill="#9a32cd" stroke="#9a32cd" points="66.6,-612.7 56.1,-614.09 65.18,-619.56 66.6,-612.7"/>
<text text-anchor="middle" x="192" y="-669.46" font-family="Helvetica,sans-Serif" font-size="10.00"> first</text>
<text text-anchor="middle" x="192" y="-658.46" font-family="Helvetica,sans-Serif" font-size="10.00">second</text>
</g>
<!-- Node5 -->
<g id="node5" class="node">
<title>Node5</title>
<g id="a_node5"><a xlink:href="structdpp_1_1json__interface.html" target="_top" xlink:title=" ">
<polygon fill="none" stroke="black" points="548,-257.46 548,-287.46 658,-287.46 658,-257.46 548,-257.46"/>
<text text-anchor="start" x="556" y="-275.46" font-family="Helvetica,sans-Serif" font-size="10.00">dpp::json_interface</text>
<text text-anchor="middle" x="603" y="-264.46" font-family="Helvetica,sans-Serif" font-size="10.00">&lt; message &gt;</text>
</a>
</g>
</g>
<!-- Node5&#45;&gt;Node1 -->
<g id="edge4" class="edge">
<title>Node5&#45;&gt;Node1</title>
<path fill="none" stroke="midnightblue" d="M668.08,-285.14C711.9,-293.62 771.36,-304.79 824,-313.46 870.41,-321.1 1198.81,-357.36 1243,-373.46 1260.83,-379.95 1279.02,-392.27 1290.52,-400.9"/>
<polygon fill="midnightblue" stroke="midnightblue" points="668.62,-281.68 658.13,-283.2 667.28,-288.55 668.62,-281.68"/>
</g>
<!-- Node6 -->
<g id="node6" class="node">
<title>Node6</title>
<g id="a_node6"><a xlink:href="structdpp_1_1json__interface.html" target="_top" xlink:title="Represents an interface for an object that can optionally implement functions for converting to and f...">
<polygon fill="none" stroke="black" points="123,-345.96 123,-364.96 261,-364.96 261,-345.96 123,-345.96"/>
<text text-anchor="middle" x="192" y="-352.96" font-family="Helvetica,sans-Serif" font-size="10.00">dpp::json_interface&lt; T &gt;</text>
</a>
</g>
</g>
<!-- Node6&#45;&gt;Node5 -->
<g id="edge5" class="edge">
<title>Node6&#45;&gt;Node5</title>
<path fill="none" stroke="orange" stroke-dasharray="5,2" d="M207.91,-338.39C223.67,-321.71 250.21,-297.29 279,-286.46 368.57,-252.77 482.11,-257.75 547.95,-264.83"/>
<polygon fill="orange" stroke="orange" points="205.24,-336.13 201.07,-345.87 210.4,-340.85 205.24,-336.13"/>
<text text-anchor="middle" x="327.5" y="-289.46" font-family="Helvetica,sans-Serif" font-size="10.00"> &lt; message &gt;</text>
</g>
<!-- Node8 -->
<g id="node8" class="node">
<title>Node8</title>
<g id="a_node8"><a xlink:href="structdpp_1_1json__interface.html" target="_top" xlink:title=" ">
<polygon fill="none" stroke="black" points="403,-600.46 403,-630.46 513,-630.46 513,-600.46 403,-600.46"/>
<text text-anchor="start" x="411" y="-618.46" font-family="Helvetica,sans-Serif" font-size="10.00">dpp::json_interface</text>
<text text-anchor="middle" x="458" y="-607.46" font-family="Helvetica,sans-Serif" font-size="10.00">&lt; user &gt;</text>
</a>
</g>
</g>
<!-- Node6&#45;&gt;Node8 -->
<g id="edge10" class="edge">
<title>Node6&#45;&gt;Node8</title>
<path fill="none" stroke="orange" stroke-dasharray="5,2" d="M209.88,-372.09C258,-419.48 395.34,-554.73 441.59,-600.28"/>
<polygon fill="orange" stroke="orange" points="212.29,-369.54 202.71,-365.02 207.38,-374.53 212.29,-369.54"/>
<text text-anchor="middle" x="327.5" y="-533.46" font-family="Helvetica,sans-Serif" font-size="10.00"> &lt; user &gt;</text>
</g>
<!-- Node16 -->
<g id="node16" class="node">
<title>Node16</title>
<g id="a_node16"><a xlink:href="structdpp_1_1json__interface.html" target="_top" xlink:title=" ">
<polygon fill="none" stroke="black" points="403,-340.46 403,-370.46 513,-370.46 513,-340.46 403,-340.46"/>
<text text-anchor="start" x="411" y="-358.46" font-family="Helvetica,sans-Serif" font-size="10.00">dpp::json_interface</text>
<text text-anchor="middle" x="458" y="-347.46" font-family="Helvetica,sans-Serif" font-size="10.00">&lt; guild_member &gt;</text>
</a>
</g>
</g>
<!-- Node6&#45;&gt;Node16 -->
<g id="edge20" class="edge">
<title>Node6&#45;&gt;Node16</title>
<path fill="none" stroke="orange" stroke-dasharray="5,2" d="M271.59,-355.46C313.83,-355.46 364.86,-355.46 402.68,-355.46"/>
<polygon fill="orange" stroke="orange" points="271.33,-351.96 261.33,-355.46 271.33,-358.96 271.33,-351.96"/>
<text text-anchor="middle" x="327.5" y="-358.46" font-family="Helvetica,sans-Serif" font-size="10.00"> &lt; guild_member &gt;</text>
</g>
<!-- Node7&#45;&gt;Node1 -->
<g id="edge7" class="edge">
<title>Node7&#45;&gt;Node1</title>
<path fill="none" stroke="#9a32cd" stroke-dasharray="5,2" d="M786.18,-727.12C880.21,-735.61 1116.2,-742.5 1243,-617.46 1300.24,-561.01 1303.3,-453.37 1302.82,-420.34"/>
<polygon fill="#9a32cd" stroke="#9a32cd" points="786.5,-723.63 776.22,-726.16 785.84,-730.6 786.5,-723.63"/>
<text text-anchor="middle" x="1048" y="-728.46" font-family="Helvetica,sans-Serif" font-size="10.00"> author</text>
</g>
<!-- Node7&#45;&gt;Node21 -->
<g id="edge37" class="edge">
<title>Node7&#45;&gt;Node21</title>
<path fill="none" stroke="#9a32cd" stroke-dasharray="5,2" d="M773,-708.28C787.8,-700.86 806.62,-691.98 824,-685.46 876.54,-665.73 938.04,-648.8 983.13,-637.47"/>
<polygon fill="#9a32cd" stroke="#9a32cd" points="771.23,-705.25 763.91,-712.91 774.41,-711.49 771.23,-705.25"/>
<text text-anchor="middle" x="888.5" y="-688.46" font-family="Helvetica,sans-Serif" font-size="10.00"> usr</text>
</g>
<!-- Node23 -->
<g id="node23" class="node">
<title>Node23</title>
<g id="a_node23"><a xlink:href="classdpp_1_1cluster.html" target="_top" xlink:title="The cluster class represents a group of shards and a command queue for sending and receiving commands...">
<polygon fill="none" stroke="black" points="1011,-1158.96 1011,-1177.96 1085,-1177.96 1085,-1158.96 1011,-1158.96"/>
<text text-anchor="middle" x="1048" y="-1165.96" font-family="Helvetica,sans-Serif" font-size="10.00">dpp::cluster</text>
</a>
</g>
</g>
<!-- Node7&#45;&gt;Node23 -->
<g id="edge46" class="edge">
<title>Node7&#45;&gt;Node23</title>
<path fill="none" stroke="#9a32cd" stroke-dasharray="5,2" d="M753.98,-741.68C766.35,-772.03 790.38,-833.1 806,-886.46 816.36,-921.85 797.38,-941.94 824,-967.46 866.04,-1007.76 905.97,-956.12 953,-990.46 1013.12,-1034.35 1038.27,-1128.43 1045.02,-1158.8"/>
<polygon fill="#9a32cd" stroke="#9a32cd" points="757.15,-740.21 750.12,-732.29 750.68,-742.87 757.15,-740.21"/>
<text text-anchor="middle" x="888.5" y="-993.46" font-family="Helvetica,sans-Serif" font-size="10.00"> me</text>
</g>
<!-- Node8&#45;&gt;Node7 -->
<g id="edge9" class="edge">
<title>Node8&#45;&gt;Node7</title>
<path fill="none" stroke="midnightblue" d="M523.15,-622.24C565.3,-628.47 620.79,-640.11 666,-661.46 693.67,-674.53 720.57,-698.91 734.4,-712.56"/>
<polygon fill="midnightblue" stroke="midnightblue" points="523.4,-618.74 513.01,-620.81 522.42,-625.67 523.4,-618.74"/>
</g>
<!-- Node9 -->
<g id="node9" class="node">
<title>Node9</title>
<g id="a_node9"><a xlink:title=" ">
<polygon fill="none" stroke="#bfbfbf" points="425.5,-912.96 425.5,-931.96 490.5,-931.96 490.5,-912.96 425.5,-912.96"/>
<text text-anchor="middle" x="458" y="-919.96" font-family="Helvetica,sans-Serif" font-size="10.00">std::string</text>
</a>
</g>
</g>
<!-- Node9&#45;&gt;Node1 -->
<g id="edge27" class="edge">
<title>Node9&#45;&gt;Node1</title>
<path fill="none" stroke="#9a32cd" stroke-dasharray="5,2" d="M501.03,-928.02C513.55,-929.44 527.31,-930.76 540,-931.46 595.91,-934.56 610.09,-934.64 666,-931.46 728.53,-927.9 746.32,-934.43 806,-915.46 960.11,-866.47 986.3,-823.59 1125,-740.46 1178.71,-708.26 1207.03,-714.72 1243,-663.46 1299.5,-582.94 1302.92,-456.09 1302.69,-420.2"/>
<polygon fill="#9a32cd" stroke="#9a32cd" points="501.2,-924.52 490.86,-926.82 500.38,-931.47 501.2,-924.52"/>
<text text-anchor="middle" x="888.5" y="-922.46" font-family="Helvetica,sans-Serif" font-size="10.00"> content</text>
<text text-anchor="middle" x="888.5" y="-911.46" font-family="Helvetica,sans-Serif" font-size="10.00">nonce</text>
</g>
<!-- Node9&#45;&gt;Node7 -->
<g id="edge11" class="edge">
<title>Node9&#45;&gt;Node7</title>
<path fill="none" stroke="#9a32cd" stroke-dasharray="5,2" d="M469.04,-903.93C482.37,-880.97 508.01,-842.14 540,-819.46 588.27,-785.24 613.17,-803.11 666,-776.46 691.29,-763.7 717.81,-743.71 732.49,-731.96"/>
<polygon fill="#9a32cd" stroke="#9a32cd" points="465.96,-902.27 464.1,-912.7 472.06,-905.7 465.96,-902.27"/>
<text text-anchor="middle" x="603" y="-833.46" font-family="Helvetica,sans-Serif" font-size="10.00"> global_name</text>
<text text-anchor="middle" x="603" y="-822.46" font-family="Helvetica,sans-Serif" font-size="10.00">username</text>
</g>
<!-- Node9&#45;&gt;Node15 -->
<g id="edge21" class="edge">
<title>Node9&#45;&gt;Node15</title>
<path fill="none" stroke="#9a32cd" stroke-dasharray="5,2" d="M468.44,-903.84C481.85,-876.8 506.51,-824.82 522,-778.46 533,-745.54 522.46,-732.42 540,-702.46 578.46,-636.77 630.91,-654.01 666,-586.46 694.11,-532.35 646.57,-498.59 684,-450.46 688.89,-444.17 695.68,-439.52 702.95,-436.09"/>
<polygon fill="#9a32cd" stroke="#9a32cd" points="465.24,-902.41 463.9,-912.92 471.5,-905.54 465.24,-902.41"/>
<text text-anchor="middle" x="603" y="-705.46" font-family="Helvetica,sans-Serif" font-size="10.00"> nickname</text>
</g>
<!-- Node9&#45;&gt;Node21 -->
<g id="edge36" class="edge">
<title>Node9&#45;&gt;Node21</title>
<path fill="none" stroke="#9a32cd" stroke-dasharray="5,2" d="M500.67,-926.25C543.48,-928.65 611.4,-928.22 666,-908.46 750.77,-877.77 967.45,-691.95 1029.91,-637.46"/>
<polygon fill="#9a32cd" stroke="#9a32cd" points="500.81,-922.75 490.61,-925.61 500.37,-929.74 500.81,-922.75"/>
<text text-anchor="middle" x="745" y="-903.46" font-family="Helvetica,sans-Serif" font-size="10.00"> name</text>
</g>
<!-- Node9&#45;&gt;Node23 -->
<g id="edge42" class="edge">
<title>Node9&#45;&gt;Node23</title>
<path fill="none" stroke="#9a32cd" stroke-dasharray="5,2" d="M473.31,-939.9C488.1,-956.56 512.8,-980.8 540,-992.46 709.93,-1065.32 794.97,-946.47 953,-1042.46 1000.82,-1071.5 1032.33,-1134.83 1042.99,-1158.91"/>
<polygon fill="#9a32cd" stroke="#9a32cd" points="475.69,-937.3 466.52,-931.99 470.38,-941.86 475.69,-937.3"/>
<text text-anchor="middle" x="745" y="-1019.46" font-family="Helvetica,sans-Serif" font-size="10.00"> token</text>
</g>
<!-- Node10 -->
<g id="node10" class="node">
<title>Node10</title>
<g id="a_node10"><a xlink:title=" ">
<polygon fill="none" stroke="#bfbfbf" points="140,-907.46 140,-937.46 244,-937.46 244,-907.46 140,-907.46"/>
<text text-anchor="start" x="148" y="-925.46" font-family="Helvetica,sans-Serif" font-size="10.00">std::basic_string&lt;</text>
<text text-anchor="middle" x="192" y="-914.46" font-family="Helvetica,sans-Serif" font-size="10.00"> Char &gt;</text>
</a>
</g>
</g>
<!-- Node10&#45;&gt;Node9 -->
<g id="edge12" class="edge">
<title>Node10&#45;&gt;Node9</title>
<path fill="none" stroke="midnightblue" d="M254.27,-922.46C307.76,-922.46 383.26,-922.46 425.4,-922.46"/>
<polygon fill="midnightblue" stroke="midnightblue" points="254.21,-918.96 244.21,-922.46 254.21,-925.96 254.21,-918.96"/>
</g>
<!-- Node11&#45;&gt;Node7 -->
<g id="edge13" class="edge">
<title>Node11&#45;&gt;Node7</title>
<path fill="none" stroke="#9a32cd" stroke-dasharray="5,2" d="M500.4,-709.52C513,-712.69 526.97,-715.71 540,-717.46 601.27,-725.67 673.8,-725.01 713.77,-723.76"/>
<polygon fill="#9a32cd" stroke="#9a32cd" points="501.18,-706.11 490.62,-706.96 499.41,-712.88 501.18,-706.11"/>
<text text-anchor="middle" x="603" y="-738.46" font-family="Helvetica,sans-Serif" font-size="10.00"> avatar</text>
<text text-anchor="middle" x="603" y="-727.46" font-family="Helvetica,sans-Serif" font-size="10.00">avatar_decoration</text>
</g>
<!-- Node11&#45;&gt;Node15 -->
<g id="edge25" class="edge">
<title>Node11&#45;&gt;Node15</title>
<path fill="none" stroke="#9a32cd" stroke-dasharray="5,2" d="M518.79,-681.87C519.92,-680.81 521,-679.67 522,-678.46 571.52,-618.52 492,-565.62 540,-504.46 576.71,-457.68 611.31,-482.8 666,-459.46 674.23,-455.95 675.84,-454.12 684,-450.46 695.26,-445.4 707.92,-440.26 718.7,-436.04"/>
<polygon fill="#9a32cd" stroke="#9a32cd" points="516.5,-679.21 510.47,-687.92 520.62,-684.87 516.5,-679.21"/>
<text text-anchor="middle" x="603" y="-507.46" font-family="Helvetica,sans-Serif" font-size="10.00"> avatar</text>
</g>
<!-- Node12 -->
<g id="node12" class="node">
<title>Node12</title>
<g id="a_node12"><a xlink:title=" ">
<polygon fill="none" stroke="#bfbfbf" points="430,-1007.96 430,-1026.96 486,-1026.96 486,-1007.96 430,-1007.96"/>
<text text-anchor="middle" x="458" y="-1014.96" font-family="Helvetica,sans-Serif" font-size="10.00">uint32_t</text>
</a>
</g>
</g>
<!-- Node12&#45;&gt;Node7 -->
<g id="edge15" class="edge">
<title>Node12&#45;&gt;Node7</title>
<path fill="none" stroke="#9a32cd" stroke-dasharray="5,2" d="M496.04,-1007.21C541.68,-992.82 618.95,-962.53 666,-911.46 692.1,-883.13 730,-767.03 740.94,-732.31"/>
<polygon fill="#9a32cd" stroke="#9a32cd" points="494.8,-1003.93 486.26,-1010.2 496.84,-1010.62 494.8,-1003.93"/>
<text text-anchor="middle" x="603" y="-993.46" font-family="Helvetica,sans-Serif" font-size="10.00"> flags</text>
</g>
<!-- Node12&#45;&gt;Node23 -->
<g id="edge44" class="edge">
<title>Node12&#45;&gt;Node23</title>
<path fill="none" stroke="#9a32cd" stroke-dasharray="5,2" d="M496.43,-1019.81C604.57,-1026.82 912.34,-1048.33 953,-1068.46 995.5,-1089.49 1028.72,-1138.25 1041.42,-1158.92"/>
<polygon fill="#9a32cd" stroke="#9a32cd" points="496.51,-1016.31 486.31,-1019.16 496.06,-1023.3 496.51,-1016.31"/>
<text text-anchor="middle" x="745" y="-1079.46" font-family="Helvetica,sans-Serif" font-size="10.00"> cluster_id</text>
<text text-anchor="middle" x="745" y="-1068.46" font-family="Helvetica,sans-Serif" font-size="10.00">intents</text>
<text text-anchor="middle" x="745" y="-1057.46" font-family="Helvetica,sans-Serif" font-size="10.00">maxclusters</text>
<text text-anchor="middle" x="745" y="-1046.46" font-family="Helvetica,sans-Serif" font-size="10.00">numshards</text>
</g>
<!-- Node13 -->
<g id="node13" class="node">
<title>Node13</title>
<g id="a_node13"><a xlink:title=" ">
<polygon fill="none" stroke="#bfbfbf" points="430,-389.96 430,-408.96 486,-408.96 486,-389.96 430,-389.96"/>
<text text-anchor="middle" x="458" y="-396.96" font-family="Helvetica,sans-Serif" font-size="10.00">uint16_t</text>
</a>
</g>
</g>
<!-- Node13&#45;&gt;Node1 -->
<g id="edge53" class="edge">
<title>Node13&#45;&gt;Node1</title>
<path fill="none" stroke="#9a32cd" stroke-dasharray="5,2" d="M496.25,-399.31C608.86,-398.97 955.67,-398.75 1243,-407.46 1248.79,-407.63 1254.89,-407.88 1260.9,-408.15"/>
<polygon fill="#9a32cd" stroke="#9a32cd" points="496.08,-395.81 486.09,-399.34 496.1,-402.81 496.08,-395.81"/>
<text text-anchor="middle" x="888.5" y="-404.46" font-family="Helvetica,sans-Serif" font-size="10.00"> flags</text>
</g>
<!-- Node13&#45;&gt;Node7 -->
<g id="edge16" class="edge">
<title>Node13&#45;&gt;Node7</title>
<path fill="none" stroke="#9a32cd" stroke-dasharray="5,2" d="M495.8,-406.57C505.58,-410.13 515.27,-415.47 522,-423.46 548.84,-455.32 510.35,-486.18 540,-515.46 580.51,-555.46 625.76,-498.19 666,-538.46 697.61,-570.09 666.7,-596.22 684,-637.46 696.72,-667.77 721.68,-697.95 735.05,-712.86"/>
<polygon fill="#9a32cd" stroke="#9a32cd" points="496.7,-403.19 486.11,-403.57 494.62,-409.87 496.7,-403.19"/>
<text text-anchor="middle" x="603" y="-541.46" font-family="Helvetica,sans-Serif" font-size="10.00"> discriminator</text>
</g>
<!-- Node13&#45;&gt;Node15 -->
<g id="edge23" class="edge">
<title>Node13&#45;&gt;Node15</title>
<path fill="none" stroke="#9a32cd" stroke-dasharray="5,2" d="M496.27,-402.99C545.49,-407.65 632.55,-415.9 689.25,-421.27"/>
<polygon fill="#9a32cd" stroke="#9a32cd" points="496.35,-399.48 486.07,-402.02 495.69,-406.45 496.35,-399.48"/>
<text text-anchor="middle" x="603" y="-421.46" font-family="Helvetica,sans-Serif" font-size="10.00"> flags</text>
</g>
<!-- Node14 -->
<g id="node14" class="node">
<title>Node14</title>
<g id="a_node14"><a xlink:title=" ">
<polygon fill="none" stroke="#bfbfbf" points="433,-749.96 433,-768.96 483,-768.96 483,-749.96 433,-749.96"/>
<text text-anchor="middle" x="458" y="-756.96" font-family="Helvetica,sans-Serif" font-size="10.00">uint8_t</text>
</a>
</g>
</g>
<!-- Node14&#45;&gt;Node7 -->
<g id="edge17" class="edge">
<title>Node14&#45;&gt;Node7</title>
<path fill="none" stroke="#9a32cd" stroke-dasharray="5,2" d="M493.27,-761.09C534.63,-762.35 606.09,-762.23 666,-750.46 685.91,-746.55 707.55,-738.45 722.97,-731.96"/>
<polygon fill="#9a32cd" stroke="#9a32cd" points="493.3,-757.59 483.18,-760.74 493.05,-764.59 493.3,-757.59"/>
<text text-anchor="middle" x="603" y="-764.46" font-family="Helvetica,sans-Serif" font-size="10.00"> refcount</text>
</g>
<!-- Node14&#45;&gt;Node21 -->
<g id="edge35" class="edge">
<title>Node14&#45;&gt;Node21</title>
<path fill="none" stroke="#9a32cd" stroke-dasharray="5,2" d="M489.38,-745.05C501.23,-738 513.88,-728.42 522,-716.46 542.48,-686.31 511.86,-659.62 540,-636.46 573.15,-609.18 849.97,-615.34 980.01,-619.82"/>
<polygon fill="#9a32cd" stroke="#9a32cd" points="487.61,-742.03 480.58,-749.95 491.02,-748.15 487.61,-742.03"/>
<text text-anchor="middle" x="745" y="-619.46" font-family="Helvetica,sans-Serif" font-size="10.00"> type</text>
</g>
<!-- Node15&#45;&gt;Node1 -->
<g id="edge18" class="edge">
<title>Node15&#45;&gt;Node1</title>
<path fill="none" stroke="#9a32cd" stroke-dasharray="5,2" d="M810.74,-424.6C926.19,-421.28 1164.53,-414.43 1260.8,-411.66"/>
<polygon fill="#9a32cd" stroke="#9a32cd" points="810.52,-421.1 800.63,-424.89 810.72,-428.1 810.52,-421.1"/>
<text text-anchor="middle" x="1048" y="-422.46" font-family="Helvetica,sans-Serif" font-size="10.00"> member</text>
</g>
<!-- Node16&#45;&gt;Node15 -->
<g id="edge19" class="edge">
<title>Node16&#45;&gt;Node15</title>
<path fill="none" stroke="midnightblue" d="M523.19,-368.73C564.22,-377.53 618.47,-389.77 666,-402.46 682.29,-406.81 700.29,-412.3 714.89,-416.93"/>
<polygon fill="midnightblue" stroke="midnightblue" points="523.83,-365.29 513.32,-366.62 522.37,-372.13 523.83,-365.29"/>
</g>
<!-- Node17 -->
<g id="node17" class="node">
<title>Node17</title>
<g id="a_node17"><a xlink:title=" ">
<polygon fill="none" stroke="#bfbfbf" points="430,-166.96 430,-185.96 486,-185.96 486,-166.96 430,-166.96"/>
<text text-anchor="middle" x="458" y="-173.96" font-family="Helvetica,sans-Serif" font-size="10.00">vector&lt;</text>
</a>
</g>
</g>
<!-- Node17&#45;&gt;Node1 -->
<g id="edge28" class="edge">
<title>Node17&#45;&gt;Node1</title>
<path fill="none" stroke="#9a32cd" stroke-dasharray="5,2" d="M496.28,-173.77C595.96,-166.96 866.89,-151.14 953,-173.46 961.86,-175.75 962.77,-179.46 971,-183.46 1088.91,-240.71 1146.34,-208.93 1243,-297.46 1275.7,-327.41 1293.62,-379.53 1299.9,-400.9"/>
<polygon fill="#9a32cd" stroke="#9a32cd" points="495.82,-170.29 486.09,-174.47 496.3,-177.27 495.82,-170.29"/>
<text text-anchor="middle" x="888.5" y="-264.46" font-family="Helvetica,sans-Serif" font-size="10.00"> attachments</text>
<text text-anchor="middle" x="888.5" y="-253.46" font-family="Helvetica,sans-Serif" font-size="10.00">components</text>
<text text-anchor="middle" x="888.5" y="-242.46" font-family="Helvetica,sans-Serif" font-size="10.00">embeds</text>
<text text-anchor="middle" x="888.5" y="-231.46" font-family="Helvetica,sans-Serif" font-size="10.00">file_data</text>
<text text-anchor="middle" x="888.5" y="-220.46" font-family="Helvetica,sans-Serif" font-size="10.00">mention_channels</text>
<text text-anchor="middle" x="888.5" y="-209.46" font-family="Helvetica,sans-Serif" font-size="10.00">mention_roles</text>
<text text-anchor="middle" x="888.5" y="-198.46" font-family="Helvetica,sans-Serif" font-size="10.00">mentions</text>
<text text-anchor="middle" x="888.5" y="-187.46" font-family="Helvetica,sans-Serif" font-size="10.00">reactions</text>
<text text-anchor="middle" x="888.5" y="-176.46" font-family="Helvetica,sans-Serif" font-size="10.00">stickers</text>
</g>
<!-- Node17&#45;&gt;Node15 -->
<g id="edge22" class="edge">
<title>Node17&#45;&gt;Node15</title>
<path fill="none" stroke="#9a32cd" stroke-dasharray="5,2" d="M496.27,-183.43C548.78,-193.91 640.94,-214.9 666,-237.46 722.19,-288.05 738.87,-385.29 742.89,-416.53"/>
<polygon fill="#9a32cd" stroke="#9a32cd" points="496.82,-179.97 486.33,-181.48 495.47,-186.84 496.82,-179.97"/>
<text text-anchor="middle" x="603" y="-240.46" font-family="Helvetica,sans-Serif" font-size="10.00"> roles</text>
</g>
<!-- Node22 -->
<g id="node22" class="node">
<title>Node22</title>
<g id="a_node22"><a xlink:href="structdpp_1_1message_1_1allowed__ref.html" target="_top" xlink:title="Allowed mentions details.">
<polygon fill="none" stroke="black" points="974,-87.96 974,-106.96 1122,-106.96 1122,-87.96 974,-87.96"/>
<text text-anchor="middle" x="1048" y="-94.96" font-family="Helvetica,sans-Serif" font-size="10.00">dpp::message::allowed_ref</text>
</a>
</g>
</g>
<!-- Node17&#45;&gt;Node22 -->
<g id="edge40" class="edge">
<title>Node17&#45;&gt;Node22</title>
<path fill="none" stroke="#9a32cd" stroke-dasharray="5,2" d="M490.32,-163.01C552.49,-137.29 696.49,-82.64 824,-70.46 881.07,-65.01 896.92,-58.56 953,-70.46 961.56,-72.28 962.72,-75.61 971,-78.46 981.29,-82 992.57,-85.18 1003.21,-87.89"/>
<polygon fill="#9a32cd" stroke="#9a32cd" points="488.94,-159.79 481.06,-166.87 491.64,-166.25 488.94,-159.79"/>
<text text-anchor="middle" x="745" y="-109.46" font-family="Helvetica,sans-Serif" font-size="10.00"> roles</text>
<text text-anchor="middle" x="745" y="-98.46" font-family="Helvetica,sans-Serif" font-size="10.00">users</text>
</g>
<!-- Node18 -->
<g id="node18" class="node">
<title>Node18</title>
<g id="a_node18"><a xlink:title=" ">
<polygon fill="none" stroke="#bfbfbf" points="434,-1334.96 434,-1353.96 482,-1353.96 482,-1334.96 434,-1334.96"/>
<text text-anchor="middle" x="458" y="-1341.96" font-family="Helvetica,sans-Serif" font-size="10.00">time_t</text>
</a>
</g>
</g>
<!-- Node18&#45;&gt;Node1 -->
<g id="edge29" class="edge">
<title>Node18&#45;&gt;Node1</title>
<path fill="none" stroke="#9a32cd" stroke-dasharray="5,2" d="M491.72,-1356.29C573.18,-1383.75 790.2,-1444.72 953,-1379.46 1118.44,-1313.14 1165.95,-1263.18 1243,-1102.46 1304.51,-974.15 1303.18,-494.31 1302.59,-420.12"/>
<polygon fill="#9a32cd" stroke="#9a32cd" points="492.85,-1352.97 482.25,-1353.04 490.58,-1359.59 492.85,-1352.97"/>
<text text-anchor="middle" x="888.5" y="-1420.46" font-family="Helvetica,sans-Serif" font-size="10.00"> edited</text>
<text text-anchor="middle" x="888.5" y="-1409.46" font-family="Helvetica,sans-Serif" font-size="10.00">sent</text>
</g>
<!-- Node18&#45;&gt;Node15 -->
<g id="edge26" class="edge">
<title>Node18&#45;&gt;Node15</title>
<path fill="none" stroke="#9a32cd" stroke-dasharray="5,2" d="M463.63,-1325.19C475.08,-1276.88 505.05,-1146.56 522,-1036.46 527.88,-998.26 513.63,-891.72 540,-863.46 578.78,-821.9 628.43,-884.12 666,-841.46 694.74,-808.82 658.8,-485.9 684,-450.46 688.49,-444.15 694.91,-439.5 701.91,-436.07"/>
<polygon fill="#9a32cd" stroke="#9a32cd" points="460.22,-1324.4 461.3,-1334.94 467.03,-1326.02 460.22,-1324.4"/>
<text text-anchor="start" x="540" y="-899.46" font-family="Helvetica,sans-Serif" font-size="10.00"> communication_disabled</text>
<text text-anchor="middle" x="603" y="-888.46" font-family="Helvetica,sans-Serif" font-size="10.00">_until</text>
<text text-anchor="middle" x="603" y="-877.46" font-family="Helvetica,sans-Serif" font-size="10.00">joined_at</text>
<text text-anchor="middle" x="603" y="-866.46" font-family="Helvetica,sans-Serif" font-size="10.00">premium_since</text>
</g>
<!-- Node18&#45;&gt;Node23 -->
<g id="edge43" class="edge">
<title>Node18&#45;&gt;Node23</title>
<path fill="none" stroke="#9a32cd" stroke-dasharray="5,2" d="M492.4,-1346.52C590.36,-1351.96 874.93,-1363.34 953,-1317.46 1008.38,-1284.92 1036.15,-1205.5 1044.35,-1178.01"/>
<polygon fill="#9a32cd" stroke="#9a32cd" points="492.37,-1343.01 482.19,-1345.93 491.97,-1350 492.37,-1343.01"/>
<text text-anchor="middle" x="745" y="-1354.46" font-family="Helvetica,sans-Serif" font-size="10.00"> last_identify</text>
</g>
<!-- Node19&#45;&gt;Node1 -->
<g id="edge30" class="edge">
<title>Node19&#45;&gt;Node1</title>
<path fill="none" stroke="#9a32cd" stroke-dasharray="5,2" d="M1128.53,-301.54C1165.52,-300.61 1208.79,-305.04 1243,-324.46 1273.63,-341.84 1292.01,-382.27 1299.11,-400.83"/>
<polygon fill="#9a32cd" stroke="#9a32cd" points="1128.13,-298.05 1118.28,-301.94 1128.4,-305.05 1128.13,-298.05"/>
<text text-anchor="middle" x="1193" y="-327.46" font-family="Helvetica,sans-Serif" font-size="10.00"> message_reference</text>
</g>
<!-- Node20 -->
<g id="node20" class="node">
<title>Node20</title>
<g id="a_node20"><a xlink:title=" ">
<polygon fill="none" stroke="#bfbfbf" points="726,-128.96 726,-147.96 764,-147.96 764,-128.96 726,-128.96"/>
<text text-anchor="middle" x="745" y="-135.96" font-family="Helvetica,sans-Serif" font-size="10.00">bool</text>
</a>
</g>
</g>
<!-- Node20&#45;&gt;Node1 -->
<g id="edge54" class="edge">
<title>Node20&#45;&gt;Node1</title>
<path fill="none" stroke="#9a32cd" stroke-dasharray="5,2" d="M774.19,-136.98C869.46,-132.62 1177.13,-124.02 1243,-190.46 1303.45,-251.43 1304.17,-367.11 1302.99,-400.94"/>
<polygon fill="#9a32cd" stroke="#9a32cd" points="773.97,-133.48 764.15,-137.46 774.3,-140.48 773.97,-133.48"/>
<text text-anchor="middle" x="1048" y="-171.46" font-family="Helvetica,sans-Serif" font-size="10.00"> mention_everyone</text>
<text text-anchor="middle" x="1048" y="-160.46" font-family="Helvetica,sans-Serif" font-size="10.00">pinned</text>
<text text-anchor="middle" x="1048" y="-149.46" font-family="Helvetica,sans-Serif" font-size="10.00">tts</text>
</g>
<!-- Node20&#45;&gt;Node19 -->
<g id="edge32" class="edge">
<title>Node20&#45;&gt;Node19</title>
<path fill="none" stroke="#9a32cd" stroke-dasharray="5,2" d="M751.11,-158.04C760.21,-188.71 782.3,-247.56 824,-276.46 830.36,-280.87 913.82,-293.17 976.78,-301.94"/>
<polygon fill="#9a32cd" stroke="#9a32cd" points="754.4,-156.81 748.33,-148.12 747.66,-158.7 754.4,-156.81"/>
<text text-anchor="middle" x="888.5" y="-301.46" font-family="Helvetica,sans-Serif" font-size="10.00"> fail_if_not_exists</text>
</g>
<!-- Node20&#45;&gt;Node22 -->
<g id="edge39" class="edge">
<title>Node20&#45;&gt;Node22</title>
<path fill="none" stroke="#9a32cd" stroke-dasharray="5,2" d="M763.83,-121.7C778.65,-108.99 800.98,-92.54 824,-85.46 887.37,-65.97 965.58,-77.87 1010.53,-87.92"/>
<polygon fill="#9a32cd" stroke="#9a32cd" points="761.16,-119.38 756.02,-128.65 765.82,-124.61 761.16,-119.38"/>
<text text-anchor="middle" x="888.5" y="-121.46" font-family="Helvetica,sans-Serif" font-size="10.00"> parse_everyone</text>
<text text-anchor="middle" x="888.5" y="-110.46" font-family="Helvetica,sans-Serif" font-size="10.00">parse_roles</text>
<text text-anchor="middle" x="888.5" y="-99.46" font-family="Helvetica,sans-Serif" font-size="10.00">parse_users</text>
<text text-anchor="middle" x="888.5" y="-88.46" font-family="Helvetica,sans-Serif" font-size="10.00">replied_user</text>
</g>
<!-- Node21&#45;&gt;Node1 -->
<g id="edge33" class="edge">
<title>Node21&#45;&gt;Node1</title>
<path fill="none" stroke="#9a32cd" stroke-dasharray="5,2" d="M1125.73,-609.07C1164.95,-598.8 1211.02,-580.99 1243,-550.46 1282.35,-512.89 1296.9,-445.13 1301.08,-420.1"/>
<polygon fill="#9a32cd" stroke="#9a32cd" points="1124.77,-605.71 1115.92,-611.53 1126.47,-612.5 1124.77,-605.71"/>
<text text-anchor="middle" x="1193" y="-605.46" font-family="Helvetica,sans-Serif" font-size="10.00"> interaction</text>
</g>
<!-- Node22&#45;&gt;Node1 -->
<g id="edge38" class="edge">
<title>Node22&#45;&gt;Node1</title>
<path fill="none" stroke="#9a32cd" stroke-dasharray="5,2" d="M1109.73,-86.91C1152.28,-83.18 1207.64,-86.25 1243,-118.46 1286.12,-157.74 1299.44,-354.39 1302,-400.68"/>
<polygon fill="#9a32cd" stroke="#9a32cd" points="1109.36,-83.43 1099.76,-87.92 1110.07,-90.39 1109.36,-83.43"/>
<text text-anchor="middle" x="1193" y="-121.46" font-family="Helvetica,sans-Serif" font-size="10.00"> allowed_mentions</text>
</g>
<!-- Node23&#45;&gt;Node1 -->
<g id="edge41" class="edge">
<title>Node23&#45;&gt;Node1</title>
<path fill="none" stroke="#9a32cd" stroke-dasharray="5,2" d="M1070.79,-1152.76C1112.54,-1121.29 1203.18,-1045.98 1243,-958.46 1289.27,-856.76 1300.63,-484.68 1302.27,-420.06"/>
<polygon fill="#9a32cd" stroke="#9a32cd" points="1068.6,-1150.02 1062.66,-1158.8 1072.77,-1155.64 1068.6,-1150.02"/>
<text text-anchor="middle" x="1193" y="-1090.46" font-family="Helvetica,sans-Serif" font-size="10.00"> owner</text>
</g>
<!-- Node24 -->
<g id="node24" class="node">
<title>Node24</title>
<g id="a_node24"><a xlink:title=" ">
<polygon fill="none" stroke="#bfbfbf" points="720,-1288.96 720,-1307.96 770,-1307.96 770,-1288.96 720,-1288.96"/>
<text text-anchor="middle" x="745" y="-1295.96" font-family="Helvetica,sans-Serif" font-size="10.00">double</text>
</a>
</g>
</g>
<!-- Node24&#45;&gt;Node23 -->
<g id="edge45" class="edge">
<title>Node24&#45;&gt;Node23</title>
<path fill="none" stroke="#9a32cd" stroke-dasharray="5,2" d="M780.47,-1301.94C823.42,-1304.7 897.87,-1304.18 953,-1275.46 997.08,-1252.49 1029.89,-1199.63 1041.95,-1177.97"/>
<polygon fill="#9a32cd" stroke="#9a32cd" points="780.49,-1298.43 770.26,-1301.18 779.98,-1305.41 780.49,-1298.43"/>
<text text-anchor="middle" x="888.5" y="-1305.46" font-family="Helvetica,sans-Serif" font-size="10.00"> rest_ping</text>
</g>
<!-- Node25 -->
<g id="node25" class="node">
<title>Node25</title>
<g id="a_node25"><a xlink:href="structdpp_1_1cache__policy__t.html" target="_top" xlink:title="Represents the caching policy of the cluster.">
<polygon fill="none" stroke="black" points="688.5,-1429.96 688.5,-1448.96 801.5,-1448.96 801.5,-1429.96 688.5,-1429.96"/>
<text text-anchor="middle" x="745" y="-1436.96" font-family="Helvetica,sans-Serif" font-size="10.00">dpp::cache_policy_t</text>
</a>
</g>
</g>
<!-- Node25&#45;&gt;Node23 -->
<g id="edge47" class="edge">
<title>Node25&#45;&gt;Node23</title>
<path fill="none" stroke="#9a32cd" stroke-dasharray="5,2" d="M760.02,-1421.95C774.3,-1405.41 797.98,-1381.27 824,-1368.46 876.25,-1342.74 905.93,-1379.75 953,-1345.46 1012.9,-1301.83 1038.2,-1208.27 1045.01,-1178.07"/>
<polygon fill="#9a32cd" stroke="#9a32cd" points="757.18,-1419.89 753.45,-1429.81 762.55,-1424.38 757.18,-1419.89"/>
<text text-anchor="middle" x="888.5" y="-1371.46" font-family="Helvetica,sans-Serif" font-size="10.00"> cache_policy</text>
</g>
<!-- Node26 -->
<g id="node26" class="node">
<title>Node26</title>
<g id="a_node26"><a xlink:title=" ">
<polygon fill="none" stroke="#bfbfbf" points="394,-1429.96 394,-1448.96 522,-1448.96 522,-1429.96 394,-1429.96"/>
<text text-anchor="middle" x="458" y="-1436.96" font-family="Helvetica,sans-Serif" font-size="10.00">cache_policy_setting_t</text>
</a>
</g>
</g>
<!-- Node26&#45;&gt;Node25 -->
<g id="edge48" class="edge">
<title>Node26&#45;&gt;Node25</title>
<path fill="none" stroke="#9a32cd" stroke-dasharray="5,2" d="M532.39,-1439.46C580.95,-1439.46 643.65,-1439.46 688.16,-1439.46"/>
<polygon fill="#9a32cd" stroke="#9a32cd" points="532.25,-1435.96 522.25,-1439.46 532.25,-1442.96 532.25,-1435.96"/>
<text text-anchor="middle" x="603" y="-1486.46" font-family="Helvetica,sans-Serif" font-size="10.00"> channel_policy</text>
<text text-anchor="middle" x="603" y="-1475.46" font-family="Helvetica,sans-Serif" font-size="10.00">emoji_policy</text>
<text text-anchor="middle" x="603" y="-1464.46" font-family="Helvetica,sans-Serif" font-size="10.00">guild_policy</text>
<text text-anchor="middle" x="603" y="-1453.46" font-family="Helvetica,sans-Serif" font-size="10.00">role_policy</text>
<text text-anchor="middle" x="603" y="-1442.46" font-family="Helvetica,sans-Serif" font-size="10.00">user_policy</text>
</g>
<!-- Node27 -->
<g id="node27" class="node">
<title>Node27</title>
<g id="a_node27"><a xlink:title=" ">
<polygon fill="none" stroke="#bfbfbf" points="684,-1250.96 684,-1269.96 806,-1269.96 806,-1250.96 684,-1250.96"/>
<text text-anchor="middle" x="745" y="-1257.96" font-family="Helvetica,sans-Serif" font-size="10.00">websocket_protocol_t</text>
</a>
</g>
</g>
<!-- Node27&#45;&gt;Node23 -->
<g id="edge49" class="edge">
<title>Node27&#45;&gt;Node23</title>
<path fill="none" stroke="#9a32cd" stroke-dasharray="5,2" d="M816.58,-1261.6C857.64,-1260.08 909.68,-1254.36 953,-1237.46 988.08,-1223.77 1021.81,-1193.55 1037.63,-1178.04"/>
<polygon fill="#9a32cd" stroke="#9a32cd" points="816.29,-1258.1 806.39,-1261.89 816.49,-1265.1 816.29,-1258.1"/>
<text text-anchor="middle" x="888.5" y="-1263.46" font-family="Helvetica,sans-Serif" font-size="10.00"> ws_mode</text>
</g>
<!-- Node28 -->
<g id="node28" class="node">
<title>Node28</title>
<g id="a_node28"><a xlink:title=" ">
<polygon fill="none" stroke="#bfbfbf" points="691.5,-1212.96 691.5,-1231.96 798.5,-1231.96 798.5,-1212.96 691.5,-1212.96"/>
<text text-anchor="middle" x="745" y="-1219.96" font-family="Helvetica,sans-Serif" font-size="10.00">condition_variable</text>
</a>
</g>
</g>
<!-- Node28&#45;&gt;Node23 -->
<g id="edge50" class="edge">
<title>Node28&#45;&gt;Node23</title>
<path fill="none" stroke="#9a32cd" stroke-dasharray="5,2" d="M808.85,-1223.62C850.31,-1223.08 905.53,-1219.82 953,-1208.46 980.94,-1201.77 1011.16,-1187.53 1029.59,-1177.97"/>
<polygon fill="#9a32cd" stroke="#9a32cd" points="808.59,-1220.13 798.62,-1223.71 808.65,-1227.13 808.59,-1220.13"/>
<text text-anchor="middle" x="888.5" y="-1225.46" font-family="Helvetica,sans-Serif" font-size="10.00"> terminating</text>
</g>
<!-- Node29 -->
<g id="node29" class="node">
<title>Node29</title>
<g id="a_node29"><a xlink:title=" ">
<polygon fill="none" stroke="#bfbfbf" points="697,-1115.96 697,-1134.96 793,-1134.96 793,-1115.96 697,-1115.96"/>
<text text-anchor="middle" x="745" y="-1122.96" font-family="Helvetica,sans-Serif" font-size="10.00">event_router_t&lt;</text>
</a>
</g>
</g>
<!-- Node29&#45;&gt;Node23 -->
<g id="edge51" class="edge">
<title>Node29&#45;&gt;Node23</title>
<path fill="none" stroke="#9a32cd" stroke-dasharray="5,2" d="M783.88,-1112.18C791.39,-1109.03 799.09,-1105.42 806,-1101.46 814.79,-1096.42 814.41,-1090.75 824,-1087.46 878.23,-1068.85 899.25,-1067.5 953,-1087.46 991.98,-1101.93 1025.61,-1140.62 1039.8,-1158.79"/>
<polygon fill="#9a32cd" stroke="#9a32cd" points="782.53,-1108.96 774.54,-1115.92 785.13,-1115.46 782.53,-1108.96"/>
<text text-anchor="middle" x="888.5" y="-1200.46" font-family="Helvetica,sans-Serif" font-size="10.00"> on_autocomplete</text>
<text text-anchor="middle" x="888.5" y="-1189.46" font-family="Helvetica,sans-Serif" font-size="10.00">on_automod_rule_create</text>
<text text-anchor="middle" x="888.5" y="-1178.46" font-family="Helvetica,sans-Serif" font-size="10.00">on_automod_rule_delete</text>
<text text-anchor="middle" x="888.5" y="-1167.46" font-family="Helvetica,sans-Serif" font-size="10.00">on_automod_rule_execute</text>
<text text-anchor="middle" x="888.5" y="-1156.46" font-family="Helvetica,sans-Serif" font-size="10.00">on_automod_rule_update</text>
<text text-anchor="middle" x="888.5" y="-1145.46" font-family="Helvetica,sans-Serif" font-size="10.00">on_button_click</text>
<text text-anchor="middle" x="888.5" y="-1134.46" font-family="Helvetica,sans-Serif" font-size="10.00">on_channel_create</text>
<text text-anchor="middle" x="888.5" y="-1123.46" font-family="Helvetica,sans-Serif" font-size="10.00">on_channel_delete</text>
<text text-anchor="middle" x="888.5" y="-1112.46" font-family="Helvetica,sans-Serif" font-size="10.00">on_channel_pins_update</text>
<text text-anchor="middle" x="888.5" y="-1101.46" font-family="Helvetica,sans-Serif" font-size="10.00">on_channel_update</text>
<text text-anchor="middle" x="888.5" y="-1090.46" font-family="Helvetica,sans-Serif" font-size="10.00">...</text>
</g>
<!-- Node30 -->
<g id="node30" class="node">
<title>Node30</title>
<g id="a_node30"><a xlink:title=" ">
<polygon fill="none" stroke="#bfbfbf" points="1004,-49.96 1004,-68.96 1092,-68.96 1092,-49.96 1004,-49.96"/>
<text text-anchor="middle" x="1048" y="-56.96" font-family="Helvetica,sans-Serif" font-size="10.00">message_type</text>
</a>
</g>
</g>
<!-- Node30&#45;&gt;Node1 -->
<g id="edge52" class="edge">
<title>Node30&#45;&gt;Node1</title>
<path fill="none" stroke="#9a32cd" stroke-dasharray="5,2" d="M1093.24,-47.83C1136.84,-39.26 1202.63,-34.55 1243,-70.46 1294.04,-115.87 1301.36,-350.08 1302.35,-400.78"/>
<polygon fill="#9a32cd" stroke="#9a32cd" points="1092.27,-44.46 1083.21,-49.94 1093.71,-51.31 1092.27,-44.46"/>
<text text-anchor="middle" x="1193" y="-73.46" font-family="Helvetica,sans-Serif" font-size="10.00"> type</text>
</g>
<!-- Node31 -->
<g id="node31" class="node">
<title>Node31</title>
<g id="a_node31"><a xlink:title=" ">
<polygon fill="none" stroke="#bfbfbf" points="1015.5,-11.96 1015.5,-30.96 1080.5,-30.96 1080.5,-11.96 1015.5,-11.96"/>
<text text-anchor="middle" x="1048" y="-18.96" font-family="Helvetica,sans-Serif" font-size="10.00">optional&lt;</text>
</a>
</g>
</g>
<!-- Node31&#45;&gt;Node1 -->
<g id="edge55" class="edge">
<title>Node31&#45;&gt;Node1</title>
<path fill="none" stroke="#9a32cd" stroke-dasharray="5,2" d="M1088.76,-9.37C1132.2,1.14 1201.16,9.52 1243,-27.46 1300.86,-78.59 1302.8,-345.86 1302.58,-400.64"/>
<polygon fill="#9a32cd" stroke="#9a32cd" points="1087.65,-6.04 1078.83,-11.92 1089.38,-12.82 1087.65,-6.04"/>
<text text-anchor="middle" x="1193" y="-30.46" font-family="Helvetica,sans-Serif" font-size="10.00"> attached_poll</text>
</g>
</g>
</svg>
