<?xml version="1.0" encoding="UTF-8" standalone="no"?>
<!DOCTYPE svg PUBLIC "-//W3C//DTD SVG 1.1//EN"
 "http://www.w3.org/Graphics/SVG/1.1/DTD/svg11.dtd">
<!-- Generated by graphviz version 2.38.0 (20140413.2041)
 -->
<!-- Title: dpp::slashcommand Pages: 1 -->
<svg width="612pt" height="184pt"
 viewBox="0.00 0.00 612.17 184.00" xmlns="http://www.w3.org/2000/svg" xmlns:xlink="http://www.w3.org/1999/xlink">
<g id="graph0" class="graph" transform="scale(1 1) rotate(0) translate(4 180)">
<title>dpp::slashcommand</title>
<polygon fill="white" stroke="none" points="-4,4 -4,-180 608.173,-180 608.173,4 -4,4"/>
<!-- Node1 -->
<g id="node1" class="node"><title>Node1</title>
<g id="a_node1"><a xlink:title="Represents an application command, created by your bot either globally, or on a guild.">
<polygon fill="#bfbfbf" stroke="black" points="247.173,-0.5 247.173,-19.5 351.173,-19.5 351.173,-0.5 247.173,-0.5"/>
<text text-anchor="middle" x="299.173" y="-7.5" font-family="Helvetica,sans-Serif" font-size="10.00">dpp::slashcommand</text>
</a>
</g>
</g>
<!-- Node2 -->
<g id="node2" class="node"><title>Node2</title>
<g id="a_node2"><a xlink:href="classdpp_1_1managed.html" target="_top" xlink:title="The managed class is the base class for various types that can be stored in a cache that are identifi...">
<polygon fill="white" stroke="black" points="79.1732,-78.5 79.1732,-97.5 157.173,-97.5 157.173,-78.5 79.1732,-78.5"/>
<text text-anchor="middle" x="118.173" y="-85.5" font-family="Helvetica,sans-Serif" font-size="10.00">dpp::managed</text>
</a>
</g>
</g>
<!-- Node2&#45;&gt;Node1 -->
<g id="edge1" class="edge"><title>Node2&#45;&gt;Node1</title>
<path fill="none" stroke="midnightblue" d="M147.844,-74.5416C184.78,-59.0324 246.888,-32.9541 278.837,-19.5391"/>
<polygon fill="midnightblue" stroke="midnightblue" points="146.45,-71.331 138.584,-78.4296 149.16,-77.7851 146.45,-71.331"/>
</g>
<!-- Node3 -->
<g id="node3" class="node"><title>Node3</title>
<g id="a_node3"><a xlink:title=" ">
<polygon fill="white" stroke="#bfbfbf" points="2.67319,-151 2.67319,-170 53.6732,-170 53.6732,-151 2.67319,-151"/>
<text text-anchor="middle" x="28.1732" y="-158" font-family="Helvetica,sans-Serif" font-size="10.00">uint64_t</text>
</a>
</g>
</g>
<!-- Node3&#45;&gt;Node1 -->
<g id="edge3" class="edge"><title>Node3&#45;&gt;Node1</title>
<path fill="none" stroke="#9a32cd" stroke-dasharray="5,2" d="M15.7932,-142.093C4.75231,-124.234 -7.57454,-96.5149 7.17319,-78 36.6217,-41.0292 171.437,-22.7831 247.163,-15.309"/>
<polygon fill="#9a32cd" stroke="#9a32cd" points="13.1738,-144.477 21.6147,-150.88 19.0093,-140.611 13.1738,-144.477"/>
<text text-anchor="middle" x="38.6732" y="-85.5" font-family="Helvetica,sans-Serif" font-size="10.00"> application_id</text>
</g>
<!-- Node3&#45;&gt;Node2 -->
<g id="edge2" class="edge"><title>Node3&#45;&gt;Node2</title>
<path fill="none" stroke="#9a32cd" stroke-dasharray="5,2" d="M47.3546,-144.475C65.5154,-130.249 92.1552,-109.381 107.047,-97.7154"/>
<polygon fill="#9a32cd" stroke="#9a32cd" points="44.9229,-141.933 39.209,-150.855 49.2396,-147.444 44.9229,-141.933"/>
<text text-anchor="middle" x="87.6732" y="-119" font-family="Helvetica,sans-Serif" font-size="10.00"> id</text>
</g>
<!-- Node4 -->
<g id="node4" class="node"><title>Node4</title>
<g id="a_node4"><a xlink:title=" ">
<polygon fill="white" stroke="#bfbfbf" points="175.173,-78.5 175.173,-97.5 343.173,-97.5 343.173,-78.5 175.173,-78.5"/>
<text text-anchor="middle" x="259.173" y="-85.5" font-family="Helvetica,sans-Serif" font-size="10.00">slashcommand_contextmenu_type</text>
</a>
</g>
</g>
<!-- Node4&#45;&gt;Node1 -->
<g id="edge4" class="edge"><title>Node4&#45;&gt;Node1</title>
<path fill="none" stroke="#9a32cd" stroke-dasharray="5,2" d="M268.583,-69.1216C276.789,-53.5297 288.338,-31.5862 294.638,-19.6165"/>
<polygon fill="#9a32cd" stroke="#9a32cd" points="265.322,-67.8025 263.762,-78.2818 271.516,-71.0628 265.322,-67.8025"/>
<text text-anchor="middle" x="295.173" y="-46.5" font-family="Helvetica,sans-Serif" font-size="10.00"> type</text>
</g>
<!-- Node5 -->
<g id="node5" class="node"><title>Node5</title>
<g id="a_node5"><a xlink:title=" ">
<polygon fill="white" stroke="#bfbfbf" points="361.173,-78.5 361.173,-97.5 421.173,-97.5 421.173,-78.5 361.173,-78.5"/>
<text text-anchor="middle" x="391.173" y="-85.5" font-family="Helvetica,sans-Serif" font-size="10.00">std::string</text>
</a>
</g>
</g>
<!-- Node5&#45;&gt;Node1 -->
<g id="edge5" class="edge"><title>Node5&#45;&gt;Node1</title>
<path fill="none" stroke="#9a32cd" stroke-dasharray="5,2" d="M372.688,-71.7293C353.732,-56.0702 324.921,-32.2701 309.604,-19.6165"/>
<polygon fill="#9a32cd" stroke="#9a32cd" points="370.681,-74.6114 380.62,-78.2818 375.139,-69.2146 370.681,-74.6114"/>
<text text-anchor="middle" x="381.673" y="-52" font-family="Helvetica,sans-Serif" font-size="10.00"> description</text>
<text text-anchor="middle" x="381.673" y="-41" font-family="Helvetica,sans-Serif" font-size="10.00">name</text>
</g>
<!-- Node6 -->
<g id="node6" class="node"><title>Node6</title>
<g id="a_node6"><a xlink:title=" ">
<polygon fill="white" stroke="#bfbfbf" points="343.673,-145.5 343.673,-175.5 438.673,-175.5 438.673,-145.5 343.673,-145.5"/>
<text text-anchor="start" x="351.673" y="-163.5" font-family="Helvetica,sans-Serif" font-size="10.00">std::basic_string&lt;</text>
<text text-anchor="middle" x="391.173" y="-152.5" font-family="Helvetica,sans-Serif" font-size="10.00"> Char &gt;</text>
</a>
</g>
</g>
<!-- Node6&#45;&gt;Node5 -->
<g id="edge6" class="edge"><title>Node6&#45;&gt;Node5</title>
<path fill="none" stroke="midnightblue" d="M391.173,-135.091C391.173,-122.214 391.173,-107.197 391.173,-97.8932"/>
<polygon fill="midnightblue" stroke="midnightblue" points="387.673,-135.233 391.173,-145.233 394.673,-135.233 387.673,-135.233"/>
</g>
<!-- Node7 -->
<g id="node7" class="node"><title>Node7</title>
<g id="a_node7"><a xlink:title=" ">
<polygon fill="white" stroke="#bfbfbf" points="439.173,-78.5 439.173,-97.5 489.173,-97.5 489.173,-78.5 439.173,-78.5"/>
<text text-anchor="middle" x="464.173" y="-85.5" font-family="Helvetica,sans-Serif" font-size="10.00">vector&lt;</text>
</a>
</g>
</g>
<!-- Node7&#45;&gt;Node1 -->
<g id="edge7" class="edge"><title>Node7&#45;&gt;Node1</title>
<path fill="none" stroke="#9a32cd" stroke-dasharray="5,2" d="M450.631,-70.7201C440.765,-59.8905 426.493,-46.1985 411.173,-38 392.833,-28.1849 370.91,-21.8886 351.342,-17.8718"/>
<polygon fill="#9a32cd" stroke="#9a32cd" points="448.044,-73.0792 457.261,-78.3052 453.315,-68.4725 448.044,-73.0792"/>
<text text-anchor="middle" x="466.673" y="-52" font-family="Helvetica,sans-Serif" font-size="10.00"> options</text>
<text text-anchor="middle" x="466.673" y="-41" font-family="Helvetica,sans-Serif" font-size="10.00">permissions</text>
</g>
<!-- Node8 -->
<g id="node8" class="node"><title>Node8</title>
<g id="a_node8"><a xlink:title=" ">
<polygon fill="white" stroke="#bfbfbf" points="514.673,-78.5 514.673,-97.5 549.673,-97.5 549.673,-78.5 514.673,-78.5"/>
<text text-anchor="middle" x="532.173" y="-85.5" font-family="Helvetica,sans-Serif" font-size="10.00">bool</text>
</a>
</g>
</g>
<!-- Node8&#45;&gt;Node1 -->
<g id="edge8" class="edge"><title>Node8&#45;&gt;Node1</title>
<path fill="none" stroke="#9a32cd" stroke-dasharray="5,2" d="M524.173,-69.3351C518.295,-58.4715 509.234,-45.2793 497.173,-38 473.337,-23.6134 401.561,-16.6533 351.327,-13.4626"/>
<polygon fill="#9a32cd" stroke="#9a32cd" points="521.097,-71.0115 528.671,-78.4207 527.371,-67.9059 521.097,-71.0115"/>
<text text-anchor="middle" x="561.673" y="-46.5" font-family="Helvetica,sans-Serif" font-size="10.00"> default_permission</text>
</g>
</g>
</svg>
