<?xml version="1.0" encoding="UTF-8" standalone="no"?>
<!DOCTYPE svg PUBLIC "-//W3C//DTD SVG 1.1//EN"
 "http://www.w3.org/Graphics/SVG/1.1/DTD/svg11.dtd">
<!-- Generated by graphviz version 2.38.0 (20140413.2041)
 -->
<!-- Title: dpp::interaction_response Pages: 1 -->
<!--zoomable 842 -->
<svg id="main" version="1.1" xmlns="http://www.w3.org/2000/svg" xmlns:xlink="http://www.w3.org/1999/xlink" xml:space="preserve" onload="init(evt)">
<style type="text/css"><![CDATA[
.edge:hover path { stroke: red; }
.edge:hover polygon { stroke: red; fill: red; }
]]></style>
<script type="text/javascript"><![CDATA[
var edges = document.getElementsByTagName('g');
if (edges && edges.length) {
  for (var i=0;i<edges.length;i++) {
    if (edges[i].id.substr(0,4)=='edge') {
      edges[i].setAttribute('class','edge');
    }
  }
}
]]></script>
        <defs>
                <circle id="rim" cx="0" cy="0" r="7"/>
                <circle id="rim2" cx="0" cy="0" r="3.5"/>
                <g id="zoomPlus">
                        <use xlink:href="#rim" target="_top" fill="#404040">
                                <set attributeName="fill" to="#808080" begin="zoomplus.mouseover" end="zoomplus.mouseout"/>
                        </use>
                        <path d="M-4,0h8M0,-4v8" fill="none" stroke="white" stroke-width="1.5" pointer-events="none"/>
                </g>
                <g id="zoomMin">
                        <use xlink:href="#rim" target="_top" fill="#404040">
                                <set attributeName="fill" to="#808080" begin="zoomminus.mouseover" end="zoomminus.mouseout"/>
                        </use>
                        <path d="M-4,0h8" fill="none" stroke="white" stroke-width="1.5" pointer-events="none"/>
                </g>
                <g id="dirArrow">
                        <path fill="none" stroke="white" stroke-width="1.5" d="M0,-3.0v7 M-2.5,-0.5L0,-3.0L2.5,-0.5"/>
                </g>
               <g id="resetDef">
                       <use xlink:href="#rim2" target="_top" fill="#404040">
                               <set attributeName="fill" to="#808080" begin="reset.mouseover" end="reset.mouseout"/>
                       </use>
               </g>
        </defs>

<script type="text/javascript">
var viewWidth = 1125;
var viewHeight = 842;
var sectionId = 'dynsection-0';
</script>
<script xlink:href="svgpan.js" target="_top"/>
<svg id="graph" class="graph">
<g id="viewport">
<title>dpp::interaction_response</title>
<polygon fill="white" stroke="none" points="-4,4 -4,-837.722 1121,-837.722 1121,4 -4,4"/>
<!-- Node1 -->
<g id="node1" class="node"><title>Node1</title>
<g id="a_node1"><a xlink:title="A response to an interaction, used to reply to a command and initiate a message, which can be hidden ...">
<polygon fill="#bfbfbf" stroke="black" points="989,-353.222 989,-372.222 1117,-372.222 1117,-353.222 989,-353.222"/>
<text text-anchor="middle" x="1053" y="-360.222" font-family="Helvetica,sans-Serif" font-size="10.00">dpp::interaction_response</text>
</a>
</g>
</g>
<!-- Node2 -->
<g id="node2" class="node"><title>Node2</title>
<g id="a_node2"><a xlink:title=" ">
<polygon fill="white" stroke="#bfbfbf" points="800,-371.222 800,-390.222 931,-390.222 931,-371.222 800,-371.222"/>
<text text-anchor="middle" x="865.5" y="-378.222" font-family="Helvetica,sans-Serif" font-size="10.00">interaction_response_type</text>
</a>
</g>
</g>
<!-- Node2&#45;&gt;Node1 -->
<g id="edge1" class="edge"><title>Node2&#45;&gt;Node1</title>
<path fill="none" stroke="#9a32cd" stroke-dasharray="5,2" d="M941.351,-373.458C957.11,-371.929 973.586,-370.331 988.864,-368.848"/>
<polygon fill="#9a32cd" stroke="#9a32cd" points="940.734,-370.002 931.118,-374.451 941.41,-376.969 940.734,-370.002"/>
<text text-anchor="middle" x="960" y="-375.722" font-family="Helvetica,sans-Serif" font-size="10.00"> type</text>
</g>
<!-- Node3 -->
<g id="node3" class="node"><title>Node3</title>
<g id="a_node3"><a xlink:href="structdpp_1_1message.html" target="_top" xlink:title="Represents messages sent and received on Discord.">
<polygon fill="white" stroke="black" points="826.5,-333.222 826.5,-352.222 904.5,-352.222 904.5,-333.222 826.5,-333.222"/>
<text text-anchor="middle" x="865.5" y="-340.222" font-family="Helvetica,sans-Serif" font-size="10.00">dpp::message</text>
</a>
</g>
</g>
<!-- Node3&#45;&gt;Node1 -->
<g id="edge2" class="edge"><title>Node3&#45;&gt;Node1</title>
<path fill="none" stroke="#9a32cd" stroke-dasharray="5,2" d="M914.952,-347.946C937.511,-350.378 964.639,-353.303 988.786,-355.906"/>
<polygon fill="#9a32cd" stroke="#9a32cd" points="915.253,-344.458 904.936,-346.866 914.503,-351.417 915.253,-344.458"/>
<text text-anchor="middle" x="960" y="-357.722" font-family="Helvetica,sans-Serif" font-size="10.00"> msg</text>
</g>
<!-- Node4 -->
<g id="node4" class="node"><title>Node4</title>
<g id="a_node4"><a xlink:title=" ">
<polygon fill="white" stroke="#bfbfbf" points="22,-600.222 22,-619.222 73,-619.222 73,-600.222 22,-600.222"/>
<text text-anchor="middle" x="47.5" y="-607.222" font-family="Helvetica,sans-Serif" font-size="10.00">uint64_t</text>
</a>
</g>
</g>
<!-- Node4&#45;&gt;Node3 -->
<g id="edge3" class="edge"><title>Node4&#45;&gt;Node3</title>
<path fill="none" stroke="#9a32cd" stroke-dasharray="5,2" d="M55.5803,-628.915C74.0711,-675.306 128.495,-789.722 215.5,-789.722 215.5,-789.722 215.5,-789.722 606,-789.722 715.996,-789.722 736.053,-715.662 782,-615.722 805.637,-564.309 764.528,-405.809 800,-361.722 806.513,-353.627 816.293,-348.864 826.282,-346.095"/>
<polygon fill="#9a32cd" stroke="#9a32cd" points="58.7754,-627.473 51.9149,-619.399 52.2431,-629.989 58.7754,-627.473"/>
<text text-anchor="middle" x="393.5" y="-825.722" font-family="Helvetica,sans-Serif" font-size="10.00"> channel_id</text>
<text text-anchor="middle" x="393.5" y="-814.722" font-family="Helvetica,sans-Serif" font-size="10.00">guild_id</text>
<text text-anchor="middle" x="393.5" y="-803.722" font-family="Helvetica,sans-Serif" font-size="10.00">id</text>
<text text-anchor="middle" x="393.5" y="-792.722" font-family="Helvetica,sans-Serif" font-size="10.00">webhook_id</text>
</g>
<!-- Node6 -->
<g id="node6" class="node"><title>Node6</title>
<g id="a_node6"><a xlink:href="classdpp_1_1managed.html" target="_top" xlink:title="The managed class is the base class for various types that can be stored in a cache that are identifi...">
<polygon fill="white" stroke="black" points="177.5,-704.222 177.5,-723.222 255.5,-723.222 255.5,-704.222 177.5,-704.222"/>
<text text-anchor="middle" x="216.5" y="-711.222" font-family="Helvetica,sans-Serif" font-size="10.00">dpp::managed</text>
</a>
</g>
</g>
<!-- Node4&#45;&gt;Node6 -->
<g id="edge6" class="edge"><title>Node4&#45;&gt;Node6</title>
<path fill="none" stroke="#9a32cd" stroke-dasharray="5,2" d="M66.9018,-626.06C88.6181,-644.681 126.417,-675.071 163,-694.722 169.661,-698.299 177.136,-701.461 184.312,-704.127"/>
<polygon fill="#9a32cd" stroke="#9a32cd" points="68.9885,-623.236 59.1443,-619.319 64.3972,-628.52 68.9885,-623.236"/>
<text text-anchor="middle" x="129" y="-686.722" font-family="Helvetica,sans-Serif" font-size="10.00"> id</text>
</g>
<!-- Node10 -->
<g id="node10" class="node"><title>Node10</title>
<g id="a_node10"><a xlink:href="structdpp_1_1utility_1_1iconhash.html" target="_top" xlink:title="Store a 128 bit icon hash (profile picture, server icon etc) as a 128 bit binary value made of two ui...">
<polygon fill="white" stroke="black" points="163,-623.222 163,-642.222 270,-642.222 270,-623.222 163,-623.222"/>
<text text-anchor="middle" x="216.5" y="-630.222" font-family="Helvetica,sans-Serif" font-size="10.00">dpp::utility::iconhash</text>
</a>
</g>
</g>
<!-- Node4&#45;&gt;Node10 -->
<g id="edge11" class="edge"><title>Node4&#45;&gt;Node10</title>
<path fill="none" stroke="#9a32cd" stroke-dasharray="5,2" d="M83.1299,-614.491C106.135,-617.659 136.777,-621.88 162.786,-625.462"/>
<polygon fill="#9a32cd" stroke="#9a32cd" points="83.5255,-611.013 73.1414,-613.115 82.5704,-617.947 83.5255,-611.013"/>
<text text-anchor="middle" x="129" y="-636.722" font-family="Helvetica,sans-Serif" font-size="10.00"> first</text>
<text text-anchor="middle" x="129" y="-625.722" font-family="Helvetica,sans-Serif" font-size="10.00">second</text>
</g>
<!-- Node13 -->
<g id="node13" class="node"><title>Node13</title>
<g id="a_node13"><a xlink:href="classdpp_1_1guild__member.html" target="_top" xlink:title="Represents dpp::user membership upon a dpp::guild.">
<polygon fill="white" stroke="black" points="555.5,-333.222 555.5,-352.222 654.5,-352.222 654.5,-333.222 555.5,-333.222"/>
<text text-anchor="middle" x="605" y="-340.222" font-family="Helvetica,sans-Serif" font-size="10.00">dpp::guild_member</text>
</a>
</g>
</g>
<!-- Node4&#45;&gt;Node13 -->
<g id="edge16" class="edge"><title>Node4&#45;&gt;Node13</title>
<path fill="none" stroke="#9a32cd" stroke-dasharray="5,2" d="M61.4424,-591.637C93.9464,-547.725 183.899,-435.236 288,-382.722 374.525,-339.074 490.675,-336.44 555.339,-339.122"/>
<polygon fill="#9a32cd" stroke="#9a32cd" points="58.4647,-589.78 55.394,-599.92 64.1179,-593.908 58.4647,-589.78"/>
<text text-anchor="middle" x="317.5" y="-396.722" font-family="Helvetica,sans-Serif" font-size="10.00"> guild_id</text>
<text text-anchor="middle" x="317.5" y="-385.722" font-family="Helvetica,sans-Serif" font-size="10.00">user_id</text>
</g>
<!-- Node17 -->
<g id="node17" class="node"><title>Node17</title>
<g id="a_node17"><a xlink:href="structdpp_1_1message_1_1message__ref.html" target="_top" xlink:title=" ">
<polygon fill="white" stroke="black" points="535,-257.222 535,-276.222 675,-276.222 675,-257.222 535,-257.222"/>
<text text-anchor="middle" x="605" y="-264.222" font-family="Helvetica,sans-Serif" font-size="10.00">dpp::message::message_ref</text>
</a>
</g>
</g>
<!-- Node4&#45;&gt;Node17 -->
<g id="edge26" class="edge"><title>Node4&#45;&gt;Node17</title>
<path fill="none" stroke="#9a32cd" stroke-dasharray="5,2" d="M49.4761,-590.018C53.3433,-533.732 72.2349,-370.696 163,-283.722 204.925,-243.548 230.565,-254.259 288,-245.722 382.357,-231.696 493.963,-246.328 556.096,-257.215"/>
<polygon fill="#9a32cd" stroke="#9a32cd" points="45.9782,-589.88 48.8722,-600.072 52.9656,-590.299 45.9782,-589.88"/>
<text text-anchor="middle" x="317.5" y="-270.722" font-family="Helvetica,sans-Serif" font-size="10.00"> channel_id</text>
<text text-anchor="middle" x="317.5" y="-259.722" font-family="Helvetica,sans-Serif" font-size="10.00">guild_id</text>
<text text-anchor="middle" x="317.5" y="-248.722" font-family="Helvetica,sans-Serif" font-size="10.00">message_id</text>
</g>
<!-- Node18 -->
<g id="node18" class="node"><title>Node18</title>
<g id="a_node18"><a xlink:href="structdpp_1_1message_1_1message__interaction__struct.html" target="_top" xlink:title=" ">
<polygon fill="white" stroke="black" points="543,-542.722 543,-572.722 667,-572.722 667,-542.722 543,-542.722"/>
<text text-anchor="start" x="551" y="-560.722" font-family="Helvetica,sans-Serif" font-size="10.00">dpp::message::message</text>
<text text-anchor="middle" x="605" y="-549.722" font-family="Helvetica,sans-Serif" font-size="10.00">_interaction_struct</text>
</a>
</g>
</g>
<!-- Node4&#45;&gt;Node18 -->
<g id="edge29" class="edge"><title>Node4&#45;&gt;Node18</title>
<path fill="none" stroke="#9a32cd" stroke-dasharray="5,2" d="M83.4935,-606.698C130.137,-602.691 215.259,-595.459 288,-589.722 389.742,-581.697 415.706,-585.184 517,-572.722 525.367,-571.692 534.154,-570.413 542.795,-569.038"/>
<polygon fill="#9a32cd" stroke="#9a32cd" points="82.9813,-603.229 73.3182,-607.573 83.5815,-610.203 82.9813,-603.229"/>
<text text-anchor="middle" x="317.5" y="-592.722" font-family="Helvetica,sans-Serif" font-size="10.00"> id</text>
</g>
<!-- Node5 -->
<g id="node5" class="node"><title>Node5</title>
<g id="a_node5"><a xlink:href="classdpp_1_1user.html" target="_top" xlink:title="Represents a user on discord. May or may not be a member of a dpp::guild.">
<polygon fill="white" stroke="black" points="365,-649.222 365,-668.222 422,-668.222 422,-649.222 365,-649.222"/>
<text text-anchor="middle" x="393.5" y="-656.222" font-family="Helvetica,sans-Serif" font-size="10.00">dpp::user</text>
</a>
</g>
</g>
<!-- Node5&#45;&gt;Node3 -->
<g id="edge4" class="edge"><title>Node5&#45;&gt;Node3</title>
<path fill="none" stroke="#9a32cd" stroke-dasharray="5,2" d="M432.188,-663.225C511.405,-670.33 695.027,-673.915 782,-568.722 811.422,-533.136 770.768,-397.464 800,-361.722 806.577,-353.679 816.377,-348.932 826.364,-346.162"/>
<polygon fill="#9a32cd" stroke="#9a32cd" points="432.458,-659.735 422.168,-662.257 431.784,-666.703 432.458,-659.735"/>
<text text-anchor="middle" x="605" y="-679.722" font-family="Helvetica,sans-Serif" font-size="10.00"> author</text>
<text text-anchor="middle" x="605" y="-668.722" font-family="Helvetica,sans-Serif" font-size="10.00">self_author</text>
</g>
<!-- Node5&#45;&gt;Node18 -->
<g id="edge32" class="edge"><title>Node5&#45;&gt;Node18</title>
<path fill="none" stroke="#9a32cd" stroke-dasharray="5,2" d="M418.083,-643.956C424.989,-639.989 432.659,-635.918 440,-632.722 472.866,-618.412 484.214,-623.213 517,-608.722 539.899,-598.6 564.362,-583.873 581.497,-572.843"/>
<polygon fill="#9a32cd" stroke="#9a32cd" points="416.051,-641.091 409.242,-649.208 419.627,-647.109 416.051,-641.091"/>
<text text-anchor="middle" x="478.5" y="-635.722" font-family="Helvetica,sans-Serif" font-size="10.00"> usr</text>
</g>
<!-- Node6&#45;&gt;Node5 -->
<g id="edge5" class="edge"><title>Node6&#45;&gt;Node5</title>
<path fill="none" stroke="midnightblue" d="M265.555,-710.224C290.579,-707.166 321.245,-701.44 347,-690.722 360.017,-685.304 372.986,-675.658 381.727,-668.368"/>
<polygon fill="midnightblue" stroke="midnightblue" points="265.11,-706.752 255.561,-711.342 265.888,-713.709 265.11,-706.752"/>
</g>
<!-- Node7 -->
<g id="node7" class="node"><title>Node7</title>
<g id="a_node7"><a xlink:title=" ">
<polygon fill="white" stroke="#bfbfbf" points="186.5,-293.222 186.5,-312.222 246.5,-312.222 246.5,-293.222 186.5,-293.222"/>
<text text-anchor="middle" x="216.5" y="-300.222" font-family="Helvetica,sans-Serif" font-size="10.00">std::string</text>
</a>
</g>
</g>
<!-- Node7&#45;&gt;Node3 -->
<g id="edge20" class="edge"><title>Node7&#45;&gt;Node3</title>
<path fill="none" stroke="#9a32cd" stroke-dasharray="5,2" d="M256.574,-295.606C300.873,-287.93 375.343,-276.204 440,-271.722 474.14,-269.355 484.63,-260.615 517,-271.722 526.586,-275.011 525.73,-281.624 535,-285.722 586.838,-308.633 751.274,-329.753 826.398,-338.486"/>
<polygon fill="#9a32cd" stroke="#9a32cd" points="255.767,-292.194 246.522,-297.368 256.976,-299.089 255.767,-292.194"/>
<text text-anchor="middle" x="478.5" y="-307.722" font-family="Helvetica,sans-Serif" font-size="10.00"> content</text>
<text text-anchor="middle" x="478.5" y="-296.722" font-family="Helvetica,sans-Serif" font-size="10.00">filecontent</text>
<text text-anchor="middle" x="478.5" y="-285.722" font-family="Helvetica,sans-Serif" font-size="10.00">filename</text>
<text text-anchor="middle" x="478.5" y="-274.722" font-family="Helvetica,sans-Serif" font-size="10.00">nonce</text>
</g>
<!-- Node7&#45;&gt;Node5 -->
<g id="edge7" class="edge"><title>Node7&#45;&gt;Node5</title>
<path fill="none" stroke="#9a32cd" stroke-dasharray="5,2" d="M227.372,-321.417C249.444,-363.374 304.209,-468.358 347,-557.722 362.948,-591.025 380.568,-631.186 388.381,-649.185"/>
<polygon fill="#9a32cd" stroke="#9a32cd" points="230.362,-319.583 222.604,-312.368 224.17,-322.847 230.362,-319.583"/>
<text text-anchor="middle" x="317.5" y="-560.722" font-family="Helvetica,sans-Serif" font-size="10.00"> username</text>
</g>
<!-- Node7&#45;&gt;Node13 -->
<g id="edge15" class="edge"><title>Node7&#45;&gt;Node13</title>
<path fill="none" stroke="#9a32cd" stroke-dasharray="5,2" d="M256.843,-304.623C298.069,-306.802 364.684,-310.845 422,-316.722 464.393,-321.068 474.814,-323.684 517,-329.722 529.397,-331.496 542.778,-333.467 555.241,-335.328"/>
<polygon fill="#9a32cd" stroke="#9a32cd" points="256.844,-301.119 246.677,-304.097 256.482,-308.11 256.844,-301.119"/>
<text text-anchor="middle" x="393.5" y="-319.722" font-family="Helvetica,sans-Serif" font-size="10.00"> nickname</text>
</g>
<!-- Node7&#45;&gt;Node18 -->
<g id="edge31" class="edge"><title>Node7&#45;&gt;Node18</title>
<path fill="none" stroke="#9a32cd" stroke-dasharray="5,2" d="M232.85,-319.806C274.698,-366.011 390.916,-491.778 440,-518.722 471.556,-536.044 510.648,-545.723 542.75,-551.106"/>
<polygon fill="#9a32cd" stroke="#9a32cd" points="235.447,-317.46 226.148,-312.383 230.251,-322.151 235.447,-317.46"/>
<text text-anchor="middle" x="393.5" y="-509.722" font-family="Helvetica,sans-Serif" font-size="10.00"> name</text>
</g>
<!-- Node8 -->
<g id="node8" class="node"><title>Node8</title>
<g id="a_node8"><a xlink:title=" ">
<polygon fill="white" stroke="#bfbfbf" points="0,-173.722 0,-203.722 95,-203.722 95,-173.722 0,-173.722"/>
<text text-anchor="start" x="8" y="-191.722" font-family="Helvetica,sans-Serif" font-size="10.00">std::basic_string&lt;</text>
<text text-anchor="middle" x="47.5" y="-180.722" font-family="Helvetica,sans-Serif" font-size="10.00"> Char &gt;</text>
</a>
</g>
</g>
<!-- Node8&#45;&gt;Node7 -->
<g id="edge8" class="edge"><title>Node8&#45;&gt;Node7</title>
<path fill="none" stroke="midnightblue" d="M78.9594,-209.514C115.358,-234.361 174.703,-274.872 201.539,-293.191"/>
<polygon fill="midnightblue" stroke="midnightblue" points="80.9088,-206.607 70.6763,-203.86 76.9622,-212.389 80.9088,-206.607"/>
</g>
<!-- Node9 -->
<g id="node9" class="node"><title>Node9</title>
<g id="a_node9"><a xlink:title=" ">
<polygon fill="white" stroke="#bfbfbf" points="191,-666.222 191,-685.222 242,-685.222 242,-666.222 191,-666.222"/>
<text text-anchor="middle" x="216.5" y="-673.222" font-family="Helvetica,sans-Serif" font-size="10.00">uint16_t</text>
</a>
</g>
</g>
<!-- Node9&#45;&gt;Node5 -->
<g id="edge9" class="edge"><title>Node9&#45;&gt;Node5</title>
<path fill="none" stroke="#9a32cd" stroke-dasharray="5,2" d="M252.66,-676.437C278.817,-676.468 315.316,-675.453 347,-670.722 352.817,-669.853 358.962,-668.524 364.789,-667.062"/>
<polygon fill="#9a32cd" stroke="#9a32cd" points="252.499,-672.936 242.477,-676.372 252.454,-679.936 252.499,-672.936"/>
<text text-anchor="middle" x="317.5" y="-678.722" font-family="Helvetica,sans-Serif" font-size="10.00"> discriminator</text>
</g>
<!-- Node10&#45;&gt;Node5 -->
<g id="edge10" class="edge"><title>Node10&#45;&gt;Node5</title>
<path fill="none" stroke="#9a32cd" stroke-dasharray="5,2" d="M280.095,-642.021C309.156,-646.339 342.215,-651.251 364.919,-654.624"/>
<polygon fill="#9a32cd" stroke="#9a32cd" points="280.412,-638.53 270.006,-640.522 279.383,-645.454 280.412,-638.53"/>
<text text-anchor="middle" x="317.5" y="-655.722" font-family="Helvetica,sans-Serif" font-size="10.00"> avatar</text>
</g>
<!-- Node11 -->
<g id="node11" class="node"><title>Node11</title>
<g id="a_node11"><a xlink:title=" ">
<polygon fill="white" stroke="#bfbfbf" points="191,-742.222 191,-761.222 242,-761.222 242,-742.222 191,-742.222"/>
<text text-anchor="middle" x="216.5" y="-749.222" font-family="Helvetica,sans-Serif" font-size="10.00">uint32_t</text>
</a>
</g>
</g>
<!-- Node11&#45;&gt;Node5 -->
<g id="edge12" class="edge"><title>Node11&#45;&gt;Node5</title>
<path fill="none" stroke="#9a32cd" stroke-dasharray="5,2" d="M252.186,-747.246C279.705,-742.413 318.199,-732.695 347,-713.722 365.007,-701.859 379.555,-680.713 387.028,-668.384"/>
<polygon fill="#9a32cd" stroke="#9a32cd" points="251.528,-743.807 242.22,-748.868 252.652,-750.716 251.528,-743.807"/>
<text text-anchor="middle" x="317.5" y="-741.722" font-family="Helvetica,sans-Serif" font-size="10.00"> flags</text>
</g>
<!-- Node12 -->
<g id="node12" class="node"><title>Node12</title>
<g id="a_node12"><a xlink:title=" ">
<polygon fill="white" stroke="#bfbfbf" points="193.5,-516.222 193.5,-535.222 239.5,-535.222 239.5,-516.222 193.5,-516.222"/>
<text text-anchor="middle" x="216.5" y="-523.222" font-family="Helvetica,sans-Serif" font-size="10.00">uint8_t</text>
</a>
</g>
</g>
<!-- Node12&#45;&gt;Node3 -->
<g id="edge24" class="edge"><title>Node12&#45;&gt;Node3</title>
<path fill="none" stroke="#9a32cd" stroke-dasharray="5,2" d="M249.676,-519.292C261.674,-517.026 275.43,-514.582 288,-512.722 459.983,-487.272 511.379,-514.492 675,-455.722 726.727,-437.142 743.385,-432.833 782,-393.722 793.465,-382.11 787.234,-371.886 800,-361.722 807.58,-355.686 817.025,-351.567 826.329,-348.756"/>
<polygon fill="#9a32cd" stroke="#9a32cd" points="248.818,-515.893 239.659,-521.219 250.14,-522.767 248.818,-515.893"/>
<text text-anchor="middle" x="478.5" y="-513.722" font-family="Helvetica,sans-Serif" font-size="10.00"> flags</text>
<text text-anchor="middle" x="478.5" y="-502.722" font-family="Helvetica,sans-Serif" font-size="10.00">type</text>
</g>
<!-- Node12&#45;&gt;Node5 -->
<g id="edge13" class="edge"><title>Node12&#45;&gt;Node5</title>
<path fill="none" stroke="#9a32cd" stroke-dasharray="5,2" d="M230.258,-543.47C243.223,-560.485 264.673,-585.988 288,-602.722 311.284,-619.424 321.839,-615.009 347,-628.722 358.299,-634.88 370.434,-642.961 379.328,-649.185"/>
<polygon fill="#9a32cd" stroke="#9a32cd" points="233.061,-541.374 224.286,-535.437 227.444,-545.551 233.061,-541.374"/>
<text text-anchor="middle" x="317.5" y="-631.722" font-family="Helvetica,sans-Serif" font-size="10.00"> refcount</text>
</g>
<!-- Node12&#45;&gt;Node13 -->
<g id="edge19" class="edge"><title>Node12&#45;&gt;Node13</title>
<path fill="none" stroke="#9a32cd" stroke-dasharray="5,2" d="M231.988,-508.395C256.413,-480.374 308.663,-425.367 365,-396.722 397.8,-380.044 495.415,-361.246 555.265,-350.811"/>
<polygon fill="#9a32cd" stroke="#9a32cd" points="229.178,-506.295 225.328,-516.166 234.493,-510.851 229.178,-506.295"/>
<text text-anchor="middle" x="393.5" y="-399.722" font-family="Helvetica,sans-Serif" font-size="10.00"> flags</text>
</g>
<!-- Node12&#45;&gt;Node18 -->
<g id="edge30" class="edge"><title>Node12&#45;&gt;Node18</title>
<path fill="none" stroke="#9a32cd" stroke-dasharray="5,2" d="M249.745,-535.44C261.657,-538.635 275.339,-541.845 288,-543.722 375.865,-556.743 478.85,-558.899 542.771,-558.721"/>
<polygon fill="#9a32cd" stroke="#9a32cd" points="250.375,-531.982 239.803,-532.67 248.497,-538.725 250.375,-531.982"/>
<text text-anchor="middle" x="393.5" y="-559.722" font-family="Helvetica,sans-Serif" font-size="10.00"> type</text>
</g>
<!-- Node13&#45;&gt;Node3 -->
<g id="edge14" class="edge"><title>Node13&#45;&gt;Node3</title>
<path fill="none" stroke="#9a32cd" stroke-dasharray="5,2" d="M664.862,-342.722C714.338,-342.722 783.612,-342.722 826.192,-342.722"/>
<polygon fill="#9a32cd" stroke="#9a32cd" points="664.622,-339.222 654.622,-342.722 664.622,-346.222 664.622,-339.222"/>
<text text-anchor="middle" x="737.5" y="-345.722" font-family="Helvetica,sans-Serif" font-size="10.00"> member</text>
</g>
<!-- Node14 -->
<g id="node14" class="node"><title>Node14</title>
<g id="a_node14"><a xlink:title=" ">
<polygon fill="white" stroke="#bfbfbf" points="368.5,-142.222 368.5,-161.222 418.5,-161.222 418.5,-142.222 368.5,-142.222"/>
<text text-anchor="middle" x="393.5" y="-149.222" font-family="Helvetica,sans-Serif" font-size="10.00">vector&lt;</text>
</a>
</g>
</g>
<!-- Node14&#45;&gt;Node3 -->
<g id="edge21" class="edge"><title>Node14&#45;&gt;Node3</title>
<path fill="none" stroke="#9a32cd" stroke-dasharray="5,2" d="M428.958,-149.701C493.825,-146.388 631.464,-141.823 675,-159.722 765.946,-197.111 837.793,-300.775 858.473,-333.02"/>
<polygon fill="#9a32cd" stroke="#9a32cd" points="428.63,-146.214 418.83,-150.239 429.001,-153.204 428.63,-146.214"/>
<text text-anchor="middle" x="605" y="-239.722" font-family="Helvetica,sans-Serif" font-size="10.00"> attachments</text>
<text text-anchor="middle" x="605" y="-228.722" font-family="Helvetica,sans-Serif" font-size="10.00">components</text>
<text text-anchor="middle" x="605" y="-217.722" font-family="Helvetica,sans-Serif" font-size="10.00">embeds</text>
<text text-anchor="middle" x="605" y="-206.722" font-family="Helvetica,sans-Serif" font-size="10.00">mention_channels</text>
<text text-anchor="middle" x="605" y="-195.722" font-family="Helvetica,sans-Serif" font-size="10.00">mention_roles</text>
<text text-anchor="middle" x="605" y="-184.722" font-family="Helvetica,sans-Serif" font-size="10.00">mentions</text>
<text text-anchor="middle" x="605" y="-173.722" font-family="Helvetica,sans-Serif" font-size="10.00">reactions</text>
<text text-anchor="middle" x="605" y="-162.722" font-family="Helvetica,sans-Serif" font-size="10.00">stickers</text>
</g>
<!-- Node14&#45;&gt;Node13 -->
<g id="edge17" class="edge"><title>Node14&#45;&gt;Node13</title>
<path fill="none" stroke="#9a32cd" stroke-dasharray="5,2" d="M428.275,-163.444C455.988,-174.739 494.241,-194.457 517,-223.722 534.615,-246.372 519.241,-261.744 535,-285.722 548.484,-306.237 571.607,-323.141 587.335,-333.077"/>
<polygon fill="#9a32cd" stroke="#9a32cd" points="429.542,-160.182 418.955,-159.799 426.992,-166.701 429.542,-160.182"/>
<text text-anchor="middle" x="478.5" y="-226.722" font-family="Helvetica,sans-Serif" font-size="10.00"> roles</text>
</g>
<!-- Node19 -->
<g id="node19" class="node"><title>Node19</title>
<g id="a_node19"><a xlink:href="structdpp_1_1message_1_1allowed__ref.html" target="_top" xlink:title=" ">
<polygon fill="white" stroke="black" points="538,-71.2216 538,-90.2216 672,-90.2216 672,-71.2216 538,-71.2216"/>
<text text-anchor="middle" x="605" y="-78.2216" font-family="Helvetica,sans-Serif" font-size="10.00">dpp::message::allowed_ref</text>
</a>
</g>
</g>
<!-- Node14&#45;&gt;Node19 -->
<g id="edge35" class="edge"><title>Node14&#45;&gt;Node19</title>
<path fill="none" stroke="#9a32cd" stroke-dasharray="5,2" d="M400.972,-132.618C407.788,-115.844 420.305,-92.4879 440,-81.7216 478.725,-60.5532 530.677,-64.6518 565.644,-71.1808"/>
<polygon fill="#9a32cd" stroke="#9a32cd" points="397.673,-131.448 397.451,-142.04 404.23,-133.898 397.673,-131.448"/>
<text text-anchor="middle" x="478.5" y="-95.7216" font-family="Helvetica,sans-Serif" font-size="10.00"> roles</text>
<text text-anchor="middle" x="478.5" y="-84.7216" font-family="Helvetica,sans-Serif" font-size="10.00">users</text>
</g>
<!-- Node15 -->
<g id="node15" class="node"><title>Node15</title>
<g id="a_node15"><a xlink:title=" ">
<polygon fill="white" stroke="#bfbfbf" points="371.5,-417.222 371.5,-436.222 415.5,-436.222 415.5,-417.222 371.5,-417.222"/>
<text text-anchor="middle" x="393.5" y="-424.222" font-family="Helvetica,sans-Serif" font-size="10.00">time_t</text>
</a>
</g>
</g>
<!-- Node15&#45;&gt;Node3 -->
<g id="edge22" class="edge"><title>Node15&#45;&gt;Node3</title>
<path fill="none" stroke="#9a32cd" stroke-dasharray="5,2" d="M425.774,-430.843C450.599,-433.431 486.141,-435.611 517,-431.722 579.02,-423.906 757.461,-373.618 831.595,-352.277"/>
<polygon fill="#9a32cd" stroke="#9a32cd" points="426.164,-427.365 415.835,-429.726 425.382,-434.321 426.164,-427.365"/>
<text text-anchor="middle" x="605" y="-443.722" font-family="Helvetica,sans-Serif" font-size="10.00"> edited</text>
<text text-anchor="middle" x="605" y="-432.722" font-family="Helvetica,sans-Serif" font-size="10.00">sent</text>
</g>
<!-- Node15&#45;&gt;Node13 -->
<g id="edge18" class="edge"><title>Node15&#45;&gt;Node13</title>
<path fill="none" stroke="#9a32cd" stroke-dasharray="5,2" d="M425.392,-414.861C430.261,-413.084 435.253,-411.315 440,-409.722 473.859,-398.354 483.822,-399.945 517,-386.722 542.314,-376.633 570.199,-361.831 587.408,-352.234"/>
<polygon fill="#9a32cd" stroke="#9a32cd" points="423.844,-411.702 415.69,-418.467 426.283,-418.264 423.844,-411.702"/>
<text text-anchor="middle" x="478.5" y="-423.722" font-family="Helvetica,sans-Serif" font-size="10.00"> joined_at</text>
<text text-anchor="middle" x="478.5" y="-412.722" font-family="Helvetica,sans-Serif" font-size="10.00">premium_since</text>
</g>
<!-- Node16 -->
<g id="node16" class="node"><title>Node16</title>
<g id="a_node16"><a xlink:title=" ">
<polygon fill="white" stroke="#bfbfbf" points="376,-4.22159 376,-23.2216 411,-23.2216 411,-4.22159 376,-4.22159"/>
<text text-anchor="middle" x="393.5" y="-11.2216" font-family="Helvetica,sans-Serif" font-size="10.00">bool</text>
</a>
</g>
</g>
<!-- Node16&#45;&gt;Node3 -->
<g id="edge23" class="edge"><title>Node16&#45;&gt;Node3</title>
<path fill="none" stroke="#9a32cd" stroke-dasharray="5,2" d="M421.043,-6.18743C427.216,-4.74804 433.796,-3.46084 440,-2.72159 473.982,1.32777 482.892,0.0660559 517,-2.72159 639.619,-12.7431 702.242,10.9507 782,-82.7216 849.389,-161.867 861.868,-296.435 864.057,-333.199"/>
<polygon fill="#9a32cd" stroke="#9a32cd" points="420.017,-2.83691 411.181,-8.68366 421.734,-9.62293 420.017,-2.83691"/>
<text text-anchor="middle" x="605" y="-38.7216" font-family="Helvetica,sans-Serif" font-size="10.00"> mention_everyone</text>
<text text-anchor="middle" x="605" y="-27.7216" font-family="Helvetica,sans-Serif" font-size="10.00">pinned</text>
<text text-anchor="middle" x="605" y="-16.7216" font-family="Helvetica,sans-Serif" font-size="10.00">tts</text>
</g>
<!-- Node16&#45;&gt;Node17 -->
<g id="edge27" class="edge"><title>Node16&#45;&gt;Node17</title>
<path fill="none" stroke="#9a32cd" stroke-dasharray="5,2" d="M400.887,-32.9465C408.074,-52.4335 421.248,-82.6385 440,-103.722 467.28,-134.393 494.034,-120.7 517,-154.722 539.336,-187.809 508.709,-212.68 535,-242.722 540.513,-249.021 547.769,-253.667 555.504,-257.094"/>
<polygon fill="#9a32cd" stroke="#9a32cd" points="404.131,-31.6218 397.512,-23.349 397.527,-33.9438 404.131,-31.6218"/>
<text text-anchor="middle" x="478.5" y="-157.722" font-family="Helvetica,sans-Serif" font-size="10.00"> fail_if_not_exists</text>
</g>
<!-- Node16&#45;&gt;Node19 -->
<g id="edge34" class="edge"><title>Node16&#45;&gt;Node19</title>
<path fill="none" stroke="#9a32cd" stroke-dasharray="5,2" d="M421.293,-9.19727C446.668,-6.00175 485.471,-3.97214 517,-14.7216 550.377,-26.1009 581.179,-55.7856 595.529,-71.1686"/>
<polygon fill="#9a32cd" stroke="#9a32cd" points="420.715,-5.74405 411.301,-10.6043 421.691,-12.6757 420.715,-5.74405"/>
<text text-anchor="middle" x="478.5" y="-50.7216" font-family="Helvetica,sans-Serif" font-size="10.00"> parse_everyone</text>
<text text-anchor="middle" x="478.5" y="-39.7216" font-family="Helvetica,sans-Serif" font-size="10.00">parse_roles</text>
<text text-anchor="middle" x="478.5" y="-28.7216" font-family="Helvetica,sans-Serif" font-size="10.00">parse_users</text>
<text text-anchor="middle" x="478.5" y="-17.7216" font-family="Helvetica,sans-Serif" font-size="10.00">replied_user</text>
</g>
<!-- Node17&#45;&gt;Node3 -->
<g id="edge25" class="edge"><title>Node17&#45;&gt;Node3</title>
<path fill="none" stroke="#9a32cd" stroke-dasharray="5,2" d="M685.574,-263.017C716.535,-264.015 751.763,-268.238 782,-279.722 812.662,-291.366 841.425,-318.296 855.491,-332.892"/>
<polygon fill="#9a32cd" stroke="#9a32cd" points="685.324,-259.511 675.251,-262.796 685.174,-266.509 685.324,-259.511"/>
<text text-anchor="middle" x="737.5" y="-282.722" font-family="Helvetica,sans-Serif" font-size="10.00"> message_reference</text>
</g>
<!-- Node18&#45;&gt;Node3 -->
<g id="edge28" class="edge"><title>Node18&#45;&gt;Node3</title>
<path fill="none" stroke="#9a32cd" stroke-dasharray="5,2" d="M677.363,-556.33C714.01,-551.685 756.253,-539.508 782,-509.722 825.332,-459.591 757.177,-412.288 800,-361.722 806.639,-353.882 816.335,-349.187 826.202,-346.401"/>
<polygon fill="#9a32cd" stroke="#9a32cd" points="676.75,-552.876 667.193,-557.449 677.516,-559.834 676.75,-552.876"/>
<text text-anchor="middle" x="737.5" y="-556.722" font-family="Helvetica,sans-Serif" font-size="10.00"> interaction</text>
</g>
<!-- Node19&#45;&gt;Node3 -->
<g id="edge33" class="edge"><title>Node19&#45;&gt;Node3</title>
<path fill="none" stroke="#9a32cd" stroke-dasharray="5,2" d="M682.217,-84.5703C716.29,-89.912 754.808,-101.44 782,-125.722 847.237,-183.975 861.155,-299.39 863.881,-333.203"/>
<polygon fill="#9a32cd" stroke="#9a32cd" points="682.664,-81.0987 672.272,-83.1629 681.683,-88.0297 682.664,-81.0987"/>
<text text-anchor="middle" x="737.5" y="-128.722" font-family="Helvetica,sans-Serif" font-size="10.00"> allowed_mentions</text>
</g>
</g>
</svg>
        <g id="navigator" transform="translate(0 0)" fill="#404254">
                <rect fill="#f2f5e9" fill-opacity="0.5" stroke="#606060" stroke-width=".5" x="0" y="0" width="60" height="60"/>
                <use id="zoomplus" xlink:href="#zoomPlus" target="_top" x="17" y="9" onmousedown="handleZoom(evt,'in')"/>
                <use id="zoomminus" xlink:href="#zoomMin" target="_top" x="42" y="9" onmousedown="handleZoom(evt,'out')"/>
                <use id="reset" xlink:href="#resetDef" target="_top" x="30" y="36" onmousedown="handleReset()"/>
                <g id="arrowUp" xlink:href="#dirArrow" target="_top" transform="translate(30 24)" onmousedown="handlePan(0,-1)">
                  <use xlink:href="#rim" target="_top" fill="#404040">
                        <set attributeName="fill" to="#808080" begin="arrowUp.mouseover" end="arrowUp.mouseout"/>
                  </use>
                  <path fill="none" stroke="white" stroke-width="1.5" d="M0,-3.0v7 M-2.5,-0.5L0,-3.0L2.5,-0.5"/>
                </g>
                <g id="arrowRight" xlink:href="#dirArrow" target="_top" transform="rotate(90) translate(36 -43)" onmousedown="handlePan(1,0)">
                  <use xlink:href="#rim" target="_top" fill="#404040">
                        <set attributeName="fill" to="#808080" begin="arrowRight.mouseover" end="arrowRight.mouseout"/>
                  </use>
                  <path fill="none" stroke="white" stroke-width="1.5" d="M0,-3.0v7 M-2.5,-0.5L0,-3.0L2.5,-0.5"/>
                </g>
                <g id="arrowDown" xlink:href="#dirArrow" target="_top" transform="rotate(180) translate(-30 -48)" onmousedown="handlePan(0,1)">
                  <use xlink:href="#rim" target="_top" fill="#404040">
                        <set attributeName="fill" to="#808080" begin="arrowDown.mouseover" end="arrowDown.mouseout"/>
                  </use>
                  <path fill="none" stroke="white" stroke-width="1.5" d="M0,-3.0v7 M-2.5,-0.5L0,-3.0L2.5,-0.5"/>
                </g>
                <g id="arrowLeft" xlink:href="#dirArrow" target="_top" transform="rotate(270) translate(-36 17)" onmousedown="handlePan(-1,0)">
                  <use xlink:href="#rim" target="_top" fill="#404040">
                        <set attributeName="fill" to="#808080" begin="arrowLeft.mouseover" end="arrowLeft.mouseout"/>
                  </use>
                  <path fill="none" stroke="white" stroke-width="1.5" d="M0,-3.0v7 M-2.5,-0.5L0,-3.0L2.5,-0.5"/>
                </g>
        </g>
        <svg viewBox="0 0 15 15" width="100%" height="30px" preserveAspectRatio="xMaxYMin meet">
         <g id="arrow_out" transform="scale(0.3 0.3)">
          <a xlink:href="structdpp_1_1interaction__response__coll__graph_org.svg" target="_base">
           <rect id="button" ry="5" rx="5" y="6" x="6" height="38" width="38"
                fill="#f2f5e9" fill-opacity="0.5" stroke="#606060" stroke-width="1.0"/>
           <path id="arrow"
             d="M 11.500037,31.436501 C 11.940474,20.09759 22.043105,11.32322 32.158766,21.979434 L 37.068811,17.246167 C 37.068811,17.246167 37.088388,32 37.088388,32 L 22.160133,31.978069 C 22.160133,31.978069 26.997745,27.140456 26.997745,27.140456 C 18.528582,18.264221 13.291696,25.230495 11.500037,31.436501 z"
             style="fill:#404040;"/>
          </a>
         </g>
        </svg>
</svg>
