<?xml version="1.0" encoding="UTF-8" standalone="no"?>
<!DOCTYPE svg PUBLIC "-//W3C//DTD SVG 1.1//EN"
 "http://www.w3.org/Graphics/SVG/1.1/DTD/svg11.dtd">
<!-- Generated by graphviz version 2.38.0 (20140413.2041)
 -->
<!-- Title: dpp::voice_server_update_t Pages: 1 -->
<svg width="1370pt" height="1095pt"
 viewBox="0.00 0.00 1370.00 1094.70" xmlns="http://www.w3.org/2000/svg" xmlns:xlink="http://www.w3.org/1999/xlink">
<g id="graph0" class="graph" transform="scale(1 1) rotate(0) translate(4 1090.7)">
<title>dpp::voice_server_update_t</title>
<polygon fill="white" stroke="none" points="-4,4 -4,-1090.7 1366,-1090.7 1366,4 -4,4"/>
<!-- Node1 -->
<g id="node1" class="node"><title>Node1</title>
<g id="a_node1"><a xlink:title="Voice server update.">
<polygon fill="#bfbfbf" stroke="black" points="1225,-366.196 1225,-385.196 1362,-385.196 1362,-366.196 1225,-366.196"/>
<text text-anchor="middle" x="1293.5" y="-373.196" font-family="Helvetica,sans-Serif" font-size="10.00">dpp::voice_server_update_t</text>
</a>
</g>
</g>
<!-- Node2 -->
<g id="node2" class="node"><title>Node2</title>
<g id="a_node2"><a xlink:href="structdpp_1_1event__dispatch__t.html" target="_top" xlink:title="Base event parameter struct.">
<polygon fill="white" stroke="black" points="1075,-366.196 1075,-385.196 1188,-385.196 1188,-366.196 1075,-366.196"/>
<text text-anchor="middle" x="1131.5" y="-373.196" font-family="Helvetica,sans-Serif" font-size="10.00">dpp::event_dispatch_t</text>
</a>
</g>
</g>
<!-- Node2&#45;&gt;Node1 -->
<g id="edge1" class="edge"><title>Node2&#45;&gt;Node1</title>
<path fill="none" stroke="midnightblue" d="M1198.23,-375.696C1207.05,-375.696 1216.1,-375.696 1224.95,-375.696"/>
<polygon fill="midnightblue" stroke="midnightblue" points="1198.01,-372.196 1188.01,-375.696 1198.01,-379.196 1198.01,-372.196"/>
</g>
<!-- Node3 -->
<g id="node3" class="node"><title>Node3</title>
<g id="a_node3"><a xlink:title=" ">
<polygon fill="white" stroke="#bfbfbf" points="191,-115.196 191,-134.196 251,-134.196 251,-115.196 191,-115.196"/>
<text text-anchor="middle" x="221" y="-122.196" font-family="Helvetica,sans-Serif" font-size="10.00">std::string</text>
</a>
</g>
</g>
<!-- Node3&#45;&gt;Node1 -->
<g id="edge44" class="edge"><title>Node3&#45;&gt;Node1</title>
<path fill="none" stroke="#9a32cd" stroke-dasharray="5,2" d="M236.255,-107.065C247.822,-92.7281 264.526,-71.9563 279,-53.6963 287.063,-43.5239 285.836,-37.3197 297,-30.6963 364.803,9.53179 393.162,-1.69627 472,-1.69627 472,-1.69627 472,-1.69627 1132.5,-1.69627 1295.99,-1.69627 1294.63,-307.536 1292.88,-366.075"/>
<polygon fill="#9a32cd" stroke="#9a32cd" points="233.342,-105.101 229.782,-115.08 238.788,-109.499 233.342,-105.101"/>
<text text-anchor="middle" x="838" y="-15.6963" font-family="Helvetica,sans-Serif" font-size="10.00"> endpoint</text>
<text text-anchor="middle" x="838" y="-4.69627" font-family="Helvetica,sans-Serif" font-size="10.00">token</text>
</g>
<!-- Node3&#45;&gt;Node2 -->
<g id="edge2" class="edge"><title>Node3&#45;&gt;Node2</title>
<path fill="none" stroke="#9a32cd" stroke-dasharray="5,2" d="M261.37,-116.733C327.585,-104.054 465.574,-80.6963 583.5,-80.6963 583.5,-80.6963 583.5,-80.6963 968,-80.6963 1101.31,-80.6963 1126.06,-314.694 1129.88,-365.881"/>
<polygon fill="#9a32cd" stroke="#9a32cd" points="260.525,-113.331 251.374,-118.671 261.857,-120.203 260.525,-113.331"/>
<text text-anchor="middle" x="701" y="-83.6963" font-family="Helvetica,sans-Serif" font-size="10.00"> raw_event</text>
</g>
<!-- Node5 -->
<g id="node5" class="node"><title>Node5</title>
<g id="a_node5"><a xlink:href="classdpp_1_1discord__client.html" target="_top" xlink:title="Implements a discord client. Each discord_client connects to one shard and derives from a websocket c...">
<polygon fill="white" stroke="black" points="918,-662.196 918,-681.196 1016,-681.196 1016,-662.196 918,-662.196"/>
<text text-anchor="middle" x="967" y="-669.196" font-family="Helvetica,sans-Serif" font-size="10.00">dpp::discord_client</text>
</a>
</g>
</g>
<!-- Node3&#45;&gt;Node5 -->
<g id="edge38" class="edge"><title>Node3&#45;&gt;Node5</title>
<path fill="none" stroke="#9a32cd" stroke-dasharray="5,2" d="M261.578,-122.336C298.356,-120.752 354.583,-119.885 403,-125.696 505.878,-138.044 537.337,-140.075 626,-193.696 764.525,-277.473 813.873,-296.621 900,-433.696 949.274,-512.119 962.385,-627.639 965.279,-661.824"/>
<polygon fill="#9a32cd" stroke="#9a32cd" points="261.106,-118.854 251.282,-122.82 261.435,-125.846 261.106,-118.854"/>
<text text-anchor="middle" x="584.5" y="-207.696" font-family="Helvetica,sans-Serif" font-size="10.00"> sessionid</text>
<text text-anchor="middle" x="584.5" y="-196.696" font-family="Helvetica,sans-Serif" font-size="10.00">token</text>
</g>
<!-- Node7 -->
<g id="node7" class="node"><title>Node7</title>
<g id="a_node7"><a xlink:href="classdpp_1_1ssl__client.html" target="_top" xlink:title="Implements a simple non&#45;blocking SSL stream client.">
<polygon fill="white" stroke="black" points="433,-801.196 433,-820.196 513,-820.196 513,-801.196 433,-801.196"/>
<text text-anchor="middle" x="473" y="-808.196" font-family="Helvetica,sans-Serif" font-size="10.00">dpp::ssl_client</text>
</a>
</g>
</g>
<!-- Node3&#45;&gt;Node7 -->
<g id="edge7" class="edge"><title>Node3&#45;&gt;Node7</title>
<path fill="none" stroke="#9a32cd" stroke-dasharray="5,2" d="M244.134,-140.494C256.792,-150.899 271.587,-165.714 279,-182.696 296.221,-222.148 268.617,-537.332 297,-569.696 328.558,-605.681 370.217,-553.824 403,-588.696 426.751,-613.961 408.038,-711.534 421,-743.696 430.29,-766.746 449.732,-788.728 461.746,-800.897"/>
<polygon fill="#9a32cd" stroke="#9a32cd" points="246.258,-137.712 236.223,-134.314 241.949,-143.228 246.258,-137.712"/>
<text text-anchor="middle" x="350" y="-635.696" font-family="Helvetica,sans-Serif" font-size="10.00"> buffer</text>
<text text-anchor="middle" x="350" y="-624.696" font-family="Helvetica,sans-Serif" font-size="10.00">cipher</text>
<text text-anchor="middle" x="350" y="-613.696" font-family="Helvetica,sans-Serif" font-size="10.00">hostname</text>
<text text-anchor="middle" x="350" y="-602.696" font-family="Helvetica,sans-Serif" font-size="10.00">obuffer</text>
<text text-anchor="middle" x="350" y="-591.696" font-family="Helvetica,sans-Serif" font-size="10.00">port</text>
</g>
<!-- Node16 -->
<g id="node16" class="node"><title>Node16</title>
<g id="a_node16"><a xlink:href="classdpp_1_1cluster.html" target="_top" xlink:title="The cluster class represents a group of shards and a command queue for sending and receiving commands...">
<polygon fill="white" stroke="black" points="667,-373.196 667,-392.196 735,-392.196 735,-373.196 667,-373.196"/>
<text text-anchor="middle" x="701" y="-380.196" font-family="Helvetica,sans-Serif" font-size="10.00">dpp::cluster</text>
</a>
</g>
</g>
<!-- Node3&#45;&gt;Node16 -->
<g id="edge17" class="edge"><title>Node3&#45;&gt;Node16</title>
<path fill="none" stroke="#9a32cd" stroke-dasharray="5,2" d="M261.096,-125.711C298.53,-127.74 356.088,-133.656 403,-150.696 512.551,-190.488 539.071,-211.055 626,-288.696 655.742,-315.26 682.496,-354.853 694.014,-372.99"/>
<polygon fill="#9a32cd" stroke="#9a32cd" points="261.252,-122.215 251.097,-125.236 260.919,-129.207 261.252,-122.215"/>
<text text-anchor="middle" x="473" y="-208.696" font-family="Helvetica,sans-Serif" font-size="10.00"> token</text>
</g>
<!-- Node20 -->
<g id="node20" class="node"><title>Node20</title>
<g id="a_node20"><a xlink:href="classdpp_1_1user.html" target="_top" xlink:title="Represents a user on discord. May or may not be a member of a dpp::guild.">
<polygon fill="white" stroke="black" points="444.5,-254.196 444.5,-273.196 501.5,-273.196 501.5,-254.196 444.5,-254.196"/>
<text text-anchor="middle" x="473" y="-261.196" font-family="Helvetica,sans-Serif" font-size="10.00">dpp::user</text>
</a>
</g>
</g>
<!-- Node3&#45;&gt;Node20 -->
<g id="edge26" class="edge"><title>Node3&#45;&gt;Node20</title>
<path fill="none" stroke="#9a32cd" stroke-dasharray="5,2" d="M260.684,-137.278C306.29,-152.484 378.93,-177.981 403,-193.696 429.005,-210.675 452.909,-238.892 464.556,-253.787"/>
<polygon fill="#9a32cd" stroke="#9a32cd" points="261.705,-133.93 251.112,-134.105 259.503,-140.574 261.705,-133.93"/>
<text text-anchor="middle" x="350" y="-196.696" font-family="Helvetica,sans-Serif" font-size="10.00"> username</text>
</g>
<!-- Node4 -->
<g id="node4" class="node"><title>Node4</title>
<g id="a_node4"><a xlink:title=" ">
<polygon fill="white" stroke="#bfbfbf" points="0,-109.696 0,-139.696 95,-139.696 95,-109.696 0,-109.696"/>
<text text-anchor="start" x="8" y="-127.696" font-family="Helvetica,sans-Serif" font-size="10.00">std::basic_string&lt;</text>
<text text-anchor="middle" x="47.5" y="-116.696" font-family="Helvetica,sans-Serif" font-size="10.00"> Char &gt;</text>
</a>
</g>
</g>
<!-- Node4&#45;&gt;Node3 -->
<g id="edge3" class="edge"><title>Node4&#45;&gt;Node3</title>
<path fill="none" stroke="midnightblue" d="M105.658,-124.696C134.266,-124.696 167.668,-124.696 190.956,-124.696"/>
<polygon fill="midnightblue" stroke="midnightblue" points="105.363,-121.196 95.3631,-124.696 105.363,-128.196 105.363,-121.196"/>
</g>
<!-- Node5&#45;&gt;Node2 -->
<g id="edge4" class="edge"><title>Node5&#45;&gt;Node2</title>
<path fill="none" stroke="#9a32cd" stroke-dasharray="5,2" d="M978.104,-653.292C1009.08,-596.865 1102.03,-427.558 1125.22,-385.323"/>
<polygon fill="#9a32cd" stroke="#9a32cd" points="974.967,-651.733 973.223,-662.183 981.103,-655.101 974.967,-651.733"/>
<text text-anchor="middle" x="1045.5" y="-553.696" font-family="Helvetica,sans-Serif" font-size="10.00"> from</text>
</g>
<!-- Node6 -->
<g id="node6" class="node"><title>Node6</title>
<g id="a_node6"><a xlink:href="classdpp_1_1websocket__client.html" target="_top" xlink:title="Implements a websocket client based on the SSL client.">
<polygon fill="white" stroke="black" points="644,-778.196 644,-797.196 758,-797.196 758,-778.196 644,-778.196"/>
<text text-anchor="middle" x="701" y="-785.196" font-family="Helvetica,sans-Serif" font-size="10.00">dpp::websocket_client</text>
</a>
</g>
</g>
<!-- Node6&#45;&gt;Node5 -->
<g id="edge5" class="edge"><title>Node6&#45;&gt;Node5</title>
<path fill="none" stroke="midnightblue" d="M768.139,-782.579C808.432,-777.134 859.733,-765.895 900,-742.696 927.124,-727.07 949.674,-696.67 959.979,-681.214"/>
<polygon fill="midnightblue" stroke="midnightblue" points="767.628,-779.116 758.146,-783.842 768.506,-786.061 767.628,-779.116"/>
</g>
<!-- Node7&#45;&gt;Node6 -->
<g id="edge6" class="edge"><title>Node7&#45;&gt;Node6</title>
<path fill="none" stroke="midnightblue" d="M523.222,-805.687C558.68,-802.078 606.596,-797.202 643.597,-793.436"/>
<polygon fill="midnightblue" stroke="midnightblue" points="522.702,-802.222 513.108,-806.716 523.411,-809.186 522.702,-802.222"/>
</g>
<!-- Node8 -->
<g id="node8" class="node"><title>Node8</title>
<g id="a_node8"><a xlink:title=" ">
<polygon fill="white" stroke="#bfbfbf" points="203.5,-955.196 203.5,-974.196 238.5,-974.196 238.5,-955.196 203.5,-955.196"/>
<text text-anchor="middle" x="221" y="-962.196" font-family="Helvetica,sans-Serif" font-size="10.00">bool</text>
</a>
</g>
</g>
<!-- Node8&#45;&gt;Node5 -->
<g id="edge41" class="edge"><title>Node8&#45;&gt;Node5</title>
<path fill="none" stroke="#9a32cd" stroke-dasharray="5,2" d="M248.721,-965.826C368.071,-970.624 848.774,-987.224 900,-945.696 942.76,-911.031 961.339,-725.642 965.212,-681.252"/>
<polygon fill="#9a32cd" stroke="#9a32cd" points="248.758,-962.325 238.624,-965.413 248.472,-969.319 248.758,-962.325"/>
<text text-anchor="middle" x="584.5" y="-975.696" font-family="Helvetica,sans-Serif" font-size="10.00"> ready</text>
</g>
<!-- Node8&#45;&gt;Node7 -->
<g id="edge8" class="edge"><title>Node8&#45;&gt;Node7</title>
<path fill="none" stroke="#9a32cd" stroke-dasharray="5,2" d="M248.221,-955.95C269.725,-948.778 296.684,-939.789 297,-939.696 343.646,-926.001 363.229,-940.655 403,-912.696 437.631,-888.351 459.968,-840.648 468.312,-820.282"/>
<polygon fill="#9a32cd" stroke="#9a32cd" points="246.922,-952.694 238.543,-959.178 249.137,-959.334 246.922,-952.694"/>
<text text-anchor="middle" x="350" y="-942.696" font-family="Helvetica,sans-Serif" font-size="10.00"> nonblocking</text>
</g>
<!-- Node9 -->
<g id="node9" class="node"><title>Node9</title>
<g id="a_node9"><a xlink:title=" ">
<polygon fill="white" stroke="#bfbfbf" points="192,-802.196 192,-821.196 250,-821.196 250,-802.196 192,-802.196"/>
<text text-anchor="middle" x="221" y="-809.196" font-family="Helvetica,sans-Serif" font-size="10.00">SOCKET</text>
</a>
</g>
</g>
<!-- Node9&#45;&gt;Node7 -->
<g id="edge9" class="edge"><title>Node9&#45;&gt;Node7</title>
<path fill="none" stroke="#9a32cd" stroke-dasharray="5,2" d="M260.223,-811.543C306.974,-811.356 385.693,-811.041 432.858,-810.853"/>
<polygon fill="#9a32cd" stroke="#9a32cd" points="260.178,-808.043 250.192,-811.583 260.206,-815.043 260.178,-808.043"/>
<text text-anchor="middle" x="350" y="-813.696" font-family="Helvetica,sans-Serif" font-size="10.00"> sfd</text>
</g>
<!-- Node10 -->
<g id="node10" class="node"><title>Node10</title>
<g id="a_node10"><a xlink:href="classdpp_1_1opensslcontext.html" target="_top" xlink:title=" ">
<polygon fill="white" stroke="black" points="169,-917.196 169,-936.196 273,-936.196 273,-917.196 169,-917.196"/>
<text text-anchor="middle" x="221" y="-924.196" font-family="Helvetica,sans-Serif" font-size="10.00">dpp::opensslcontext</text>
</a>
</g>
</g>
<!-- Node10&#45;&gt;Node7 -->
<g id="edge10" class="edge"><title>Node10&#45;&gt;Node7</title>
<path fill="none" stroke="#9a32cd" stroke-dasharray="5,2" d="M259.394,-913.78C296.588,-900.433 354.895,-878.152 403,-853.696 422.88,-843.59 444.504,-829.579 458.147,-820.333"/>
<polygon fill="#9a32cd" stroke="#9a32cd" points="258.199,-910.49 249.95,-917.139 260.545,-917.085 258.199,-910.49"/>
<text text-anchor="middle" x="350" y="-900.696" font-family="Helvetica,sans-Serif" font-size="10.00"> ssl</text>
</g>
<!-- Node11 -->
<g id="node11" class="node"><title>Node11</title>
<g id="a_node11"><a xlink:title=" ">
<polygon fill="white" stroke="#bfbfbf" points="26.5,-1067.2 26.5,-1086.2 68.5,-1086.2 68.5,-1067.2 26.5,-1067.2"/>
<text text-anchor="middle" x="47.5" y="-1074.2" font-family="Helvetica,sans-Serif" font-size="10.00">SSL *</text>
</a>
</g>
</g>
<!-- Node11&#45;&gt;Node10 -->
<g id="edge11" class="edge"><title>Node11&#45;&gt;Node10</title>
<path fill="none" stroke="#9a32cd" stroke-dasharray="5,2" d="M78.379,-1067.26C84.2053,-1064.68 90.0384,-1061.51 95,-1057.7 124.18,-1035.27 127.014,-1023.8 145,-991.696 155.73,-972.543 147.084,-960.817 163,-945.696 167.084,-941.817 171.981,-938.728 177.166,-936.27"/>
<polygon fill="#9a32cd" stroke="#9a32cd" points="76.7487,-1064.14 68.7351,-1071.07 79.3216,-1070.65 76.7487,-1064.14"/>
<text text-anchor="middle" x="129" y="-1044.7" font-family="Helvetica,sans-Serif" font-size="10.00"> ssl</text>
</g>
<!-- Node12 -->
<g id="node12" class="node"><title>Node12</title>
<g id="a_node12"><a xlink:title=" ">
<polygon fill="white" stroke="#bfbfbf" points="13.5,-1029.2 13.5,-1048.2 81.5,-1048.2 81.5,-1029.2 13.5,-1029.2"/>
<text text-anchor="middle" x="47.5" y="-1036.2" font-family="Helvetica,sans-Serif" font-size="10.00">SSL_CTX *</text>
</a>
</g>
</g>
<!-- Node12&#45;&gt;Node10 -->
<g id="edge12" class="edge"><title>Node12&#45;&gt;Node10</title>
<path fill="none" stroke="#9a32cd" stroke-dasharray="5,2" d="M64.9121,-1022.08C85.9615,-1001.6 124.38,-966.892 163,-945.696 169.767,-941.982 177.384,-938.828 184.795,-936.22"/>
<polygon fill="#9a32cd" stroke="#9a32cd" points="62.3828,-1019.66 57.731,-1029.18 67.3036,-1024.64 62.3828,-1019.66"/>
<text text-anchor="middle" x="129" y="-979.696" font-family="Helvetica,sans-Serif" font-size="10.00"> ctx</text>
</g>
<!-- Node13 -->
<g id="node13" class="node"><title>Node13</title>
<g id="a_node13"><a xlink:title=" ">
<polygon fill="white" stroke="#bfbfbf" points="199,-840.196 199,-859.196 243,-859.196 243,-840.196 199,-840.196"/>
<text text-anchor="middle" x="221" y="-847.196" font-family="Helvetica,sans-Serif" font-size="10.00">time_t</text>
</a>
</g>
</g>
<!-- Node13&#45;&gt;Node5 -->
<g id="edge35" class="edge"><title>Node13&#45;&gt;Node5</title>
<path fill="none" stroke="#9a32cd" stroke-dasharray="5,2" d="M253.59,-852.073C289.74,-854.403 350.702,-857.143 403,-853.696 626.109,-838.991 716.749,-903.808 900,-775.696 934.877,-751.313 955.413,-701.995 962.828,-681.242"/>
<polygon fill="#9a32cd" stroke="#9a32cd" points="253.418,-848.553 243.204,-851.37 252.945,-855.537 253.418,-848.553"/>
<text text-anchor="middle" x="584.5" y="-870.696" font-family="Helvetica,sans-Serif" font-size="10.00"> last_heartbeat</text>
<text text-anchor="middle" x="584.5" y="-859.696" font-family="Helvetica,sans-Serif" font-size="10.00">last_heartbeat_ack</text>
</g>
<!-- Node13&#45;&gt;Node7 -->
<g id="edge13" class="edge"><title>Node13&#45;&gt;Node7</title>
<path fill="none" stroke="#9a32cd" stroke-dasharray="5,2" d="M253.151,-845.641C289.267,-840.843 350.552,-832.4 403,-823.696 412.62,-822.1 422.966,-820.232 432.645,-818.417"/>
<polygon fill="#9a32cd" stroke="#9a32cd" points="252.679,-842.173 243.224,-846.952 253.596,-849.113 252.679,-842.173"/>
<text text-anchor="middle" x="350" y="-841.696" font-family="Helvetica,sans-Serif" font-size="10.00"> last_tick</text>
</g>
<!-- Node13&#45;&gt;Node16 -->
<g id="edge18" class="edge"><title>Node13&#45;&gt;Node16</title>
<path fill="none" stroke="#9a32cd" stroke-dasharray="5,2" d="M252.969,-843.092C261.908,-840.236 271.315,-836.236 279,-830.696 289.817,-822.9 287.08,-815.605 297,-806.696 337.774,-770.077 373.82,-790.086 403,-743.696 451.227,-667.027 371.25,-616.386 421,-540.696 477.909,-454.115 536.66,-482.169 626,-429.696 646.997,-417.364 670.654,-402.087 685.444,-392.365"/>
<polygon fill="#9a32cd" stroke="#9a32cd" points="251.866,-839.767 243.192,-845.852 253.767,-846.504 251.866,-839.767"/>
<text text-anchor="middle" x="473" y="-543.696" font-family="Helvetica,sans-Serif" font-size="10.00"> last_identify</text>
</g>
<!-- Node14 -->
<g id="node14" class="node"><title>Node14</title>
<g id="a_node14"><a xlink:title=" ">
<polygon fill="white" stroke="#bfbfbf" points="22,-698.196 22,-717.196 73,-717.196 73,-698.196 22,-698.196"/>
<text text-anchor="middle" x="47.5" y="-705.196" font-family="Helvetica,sans-Serif" font-size="10.00">uint64_t</text>
</a>
</g>
</g>
<!-- Node14&#45;&gt;Node1 -->
<g id="edge43" class="edge"><title>Node14&#45;&gt;Node1</title>
<path fill="none" stroke="#9a32cd" stroke-dasharray="5,2" d="M50.3087,-727.245C57.6134,-793.538 91.063,-1005.7 220,-1005.7 220,-1005.7 220,-1005.7 1132.5,-1005.7 1266.37,-1005.7 1289.53,-464.602 1292.21,-385.34"/>
<polygon fill="#9a32cd" stroke="#9a32cd" points="53.7883,-726.866 49.2901,-717.274 46.8246,-727.578 53.7883,-726.866"/>
<text text-anchor="middle" x="701" y="-1008.7" font-family="Helvetica,sans-Serif" font-size="10.00"> guild_id</text>
</g>
<!-- Node14&#45;&gt;Node5 -->
<g id="edge37" class="edge"><title>Node14&#45;&gt;Node5</title>
<path fill="none" stroke="#9a32cd" stroke-dasharray="5,2" d="M83.359,-708.988C131.426,-710.698 220.77,-713.623 297,-714.696 344.106,-715.36 355.895,-715.435 403,-714.696 502.148,-713.141 527.072,-714.477 626,-707.696 730.373,-700.542 852.189,-686.175 917.957,-677.918"/>
<polygon fill="#9a32cd" stroke="#9a32cd" points="83.3041,-705.484 73.1848,-708.622 83.0525,-712.479 83.3041,-705.484"/>
<text text-anchor="middle" x="473" y="-716.696" font-family="Helvetica,sans-Serif" font-size="10.00"> last_seq</text>
</g>
<!-- Node14&#45;&gt;Node7 -->
<g id="edge14" class="edge"><title>Node14&#45;&gt;Node7</title>
<path fill="none" stroke="#9a32cd" stroke-dasharray="5,2" d="M82.9066,-716.064C160.882,-735.029 350.646,-781.182 432.902,-801.187"/>
<polygon fill="#9a32cd" stroke="#9a32cd" points="83.6436,-712.642 73.0997,-713.679 81.9893,-719.443 83.6436,-712.642"/>
<text text-anchor="middle" x="221" y="-775.696" font-family="Helvetica,sans-Serif" font-size="10.00"> bytes_in</text>
<text text-anchor="middle" x="221" y="-764.696" font-family="Helvetica,sans-Serif" font-size="10.00">bytes_out</text>
</g>
<!-- Node21 -->
<g id="node21" class="node"><title>Node21</title>
<g id="a_node21"><a xlink:href="classdpp_1_1managed.html" target="_top" xlink:title="The managed class is the base class for various types that can be stored in a cache that are identifi...">
<polygon fill="white" stroke="black" points="182,-268.196 182,-287.196 260,-287.196 260,-268.196 182,-268.196"/>
<text text-anchor="middle" x="221" y="-275.196" font-family="Helvetica,sans-Serif" font-size="10.00">dpp::managed</text>
</a>
</g>
</g>
<!-- Node14&#45;&gt;Node21 -->
<g id="edge25" class="edge"><title>Node14&#45;&gt;Node21</title>
<path fill="none" stroke="#9a32cd" stroke-dasharray="5,2" d="M54.2449,-688.029C69.4602,-635.808 111.902,-489.271 145,-366.696 153.374,-335.684 141.095,-320.192 163,-296.696 168.121,-291.203 174.871,-287.297 181.927,-284.519"/>
<polygon fill="#9a32cd" stroke="#9a32cd" points="50.7901,-687.375 51.3498,-697.955 57.51,-689.335 50.7901,-687.375"/>
<text text-anchor="middle" x="129" y="-482.696" font-family="Helvetica,sans-Serif" font-size="10.00"> id</text>
</g>
<!-- Node23 -->
<g id="node23" class="node"><title>Node23</title>
<g id="a_node23"><a xlink:href="structdpp_1_1utility_1_1iconhash.html" target="_top" xlink:title="Store a 128 bit icon hash (profile picture, server icon etc) as a 128 bit binary value made of two ui...">
<polygon fill="white" stroke="black" points="167.5,-230.196 167.5,-249.196 274.5,-249.196 274.5,-230.196 167.5,-230.196"/>
<text text-anchor="middle" x="221" y="-237.196" font-family="Helvetica,sans-Serif" font-size="10.00">dpp::utility::iconhash</text>
</a>
</g>
</g>
<!-- Node14&#45;&gt;Node23 -->
<g id="edge29" class="edge"><title>Node14&#45;&gt;Node23</title>
<path fill="none" stroke="#9a32cd" stroke-dasharray="5,2" d="M49.3936,-687.996C52.4733,-631.908 65.2517,-467.256 113,-340.696 128.068,-300.759 129.609,-285.286 163,-258.696 167.896,-254.798 173.628,-251.683 179.535,-249.198"/>
<polygon fill="#9a32cd" stroke="#9a32cd" points="45.8976,-687.83 48.887,-697.994 52.8887,-688.184 45.8976,-687.83"/>
<text text-anchor="middle" x="129" y="-354.696" font-family="Helvetica,sans-Serif" font-size="10.00"> first</text>
<text text-anchor="middle" x="129" y="-343.696" font-family="Helvetica,sans-Serif" font-size="10.00">second</text>
</g>
<!-- Node15 -->
<g id="node15" class="node"><title>Node15</title>
<g id="a_node15"><a xlink:title=" ">
<polygon fill="white" stroke="#bfbfbf" points="192.5,-532.196 192.5,-551.196 249.5,-551.196 249.5,-532.196 192.5,-532.196"/>
<text text-anchor="middle" x="221" y="-539.196" font-family="Helvetica,sans-Serif" font-size="10.00">function&lt;</text>
</a>
</g>
</g>
<!-- Node15&#45;&gt;Node7 -->
<g id="edge15" class="edge"><title>Node15&#45;&gt;Node7</title>
<path fill="none" stroke="#9a32cd" stroke-dasharray="5,2" d="M231.352,-560.631C243.629,-583.827 267.167,-623.068 297,-647.696 336.882,-680.62 367.666,-657.933 403,-695.696 418.567,-712.333 409.983,-723.753 421,-743.696 433.158,-765.705 452.001,-788.384 463.058,-800.898"/>
<polygon fill="#9a32cd" stroke="#9a32cd" points="234.338,-558.784 226.657,-551.487 228.111,-561.981 234.338,-558.784"/>
<text text-anchor="middle" x="350" y="-731.696" font-family="Helvetica,sans-Serif" font-size="10.00"> custom_readable_fd</text>
<text text-anchor="middle" x="350" y="-720.696" font-family="Helvetica,sans-Serif" font-size="10.00">custom_readable_ready</text>
<text text-anchor="middle" x="350" y="-709.696" font-family="Helvetica,sans-Serif" font-size="10.00">custom_writeable_fd</text>
<text text-anchor="middle" x="350" y="-698.696" font-family="Helvetica,sans-Serif" font-size="10.00">custom_writeable_ready</text>
</g>
<!-- Node19 -->
<g id="node19" class="node"><title>Node19</title>
<g id="a_node19"><a xlink:href="classdpp_1_1dispatcher.html" target="_top" xlink:title="The dispatcher class contains a set of std::functions representing hooked events that the user code i...">
<polygon fill="white" stroke="black" points="431.5,-419.196 431.5,-438.196 514.5,-438.196 514.5,-419.196 431.5,-419.196"/>
<text text-anchor="middle" x="473" y="-426.196" font-family="Helvetica,sans-Serif" font-size="10.00">dpp::dispatcher</text>
</a>
</g>
</g>
<!-- Node15&#45;&gt;Node19 -->
<g id="edge22" class="edge"><title>Node15&#45;&gt;Node19</title>
<path fill="none" stroke="#9a32cd" stroke-dasharray="5,2" d="M226.986,-522.258C235.655,-493.013 256.575,-438.678 297,-415.696 345.202,-388.293 413.318,-406.424 448.669,-419.196"/>
<polygon fill="#9a32cd" stroke="#9a32cd" points="223.551,-521.548 224.248,-532.12 230.296,-523.421 223.551,-521.548"/>
<text text-anchor="start" x="301" y="-561.696" font-family="Helvetica,sans-Serif" font-size="10.00"> application_command</text>
<text text-anchor="middle" x="350" y="-550.696" font-family="Helvetica,sans-Serif" font-size="10.00">_create</text>
<text text-anchor="start" x="301" y="-539.696" font-family="Helvetica,sans-Serif" font-size="10.00">application_command</text>
<text text-anchor="middle" x="350" y="-528.696" font-family="Helvetica,sans-Serif" font-size="10.00">_delete</text>
<text text-anchor="start" x="301" y="-517.696" font-family="Helvetica,sans-Serif" font-size="10.00">application_command</text>
<text text-anchor="middle" x="350" y="-506.696" font-family="Helvetica,sans-Serif" font-size="10.00">_update</text>
<text text-anchor="middle" x="350" y="-495.696" font-family="Helvetica,sans-Serif" font-size="10.00">button_click</text>
<text text-anchor="middle" x="350" y="-484.696" font-family="Helvetica,sans-Serif" font-size="10.00">channel_create</text>
<text text-anchor="middle" x="350" y="-473.696" font-family="Helvetica,sans-Serif" font-size="10.00">channel_delete</text>
<text text-anchor="middle" x="350" y="-462.696" font-family="Helvetica,sans-Serif" font-size="10.00">channel_pins_update</text>
<text text-anchor="middle" x="350" y="-451.696" font-family="Helvetica,sans-Serif" font-size="10.00">channel_update</text>
<text text-anchor="middle" x="350" y="-440.696" font-family="Helvetica,sans-Serif" font-size="10.00">guild_ban_add</text>
<text text-anchor="middle" x="350" y="-429.696" font-family="Helvetica,sans-Serif" font-size="10.00">guild_ban_remove</text>
<text text-anchor="middle" x="350" y="-418.696" font-family="Helvetica,sans-Serif" font-size="10.00">...</text>
</g>
<!-- Node16&#45;&gt;Node5 -->
<g id="edge16" class="edge"><title>Node16&#45;&gt;Node5</title>
<path fill="none" stroke="#9a32cd" stroke-dasharray="5,2" d="M725.248,-398.105C764.908,-425.26 846.531,-485.016 900,-550.696 930.214,-587.811 953.502,-640.786 962.244,-662.187"/>
<polygon fill="#9a32cd" stroke="#9a32cd" points="727.019,-395.077 716.777,-392.365 723.092,-400.872 727.019,-395.077"/>
<text text-anchor="middle" x="838" y="-553.696" font-family="Helvetica,sans-Serif" font-size="10.00"> creator</text>
</g>
<!-- Node17 -->
<g id="node17" class="node"><title>Node17</title>
<g id="a_node17"><a xlink:title=" ">
<polygon fill="white" stroke="#bfbfbf" points="195.5,-347.196 195.5,-366.196 246.5,-366.196 246.5,-347.196 195.5,-347.196"/>
<text text-anchor="middle" x="221" y="-354.196" font-family="Helvetica,sans-Serif" font-size="10.00">uint32_t</text>
</a>
</g>
</g>
<!-- Node17&#45;&gt;Node5 -->
<g id="edge34" class="edge"><title>Node17&#45;&gt;Node5</title>
<path fill="none" stroke="#9a32cd" stroke-dasharray="5,2" d="M256.544,-362.29C306.323,-370.679 393.347,-386.707 403,-397.696 431.281,-429.893 391.556,-558.56 421,-589.696 455.063,-625.717 791.168,-657.158 917.942,-667.827"/>
<polygon fill="#9a32cd" stroke="#9a32cd" points="256.968,-358.812 246.529,-360.62 255.817,-365.717 256.968,-358.812"/>
<text text-anchor="middle" x="584.5" y="-695.696" font-family="Helvetica,sans-Serif" font-size="10.00"> heartbeat_interval</text>
<text text-anchor="middle" x="584.5" y="-684.696" font-family="Helvetica,sans-Serif" font-size="10.00">intents</text>
<text text-anchor="middle" x="584.5" y="-673.696" font-family="Helvetica,sans-Serif" font-size="10.00">max_shards</text>
<text text-anchor="middle" x="584.5" y="-662.696" font-family="Helvetica,sans-Serif" font-size="10.00">reconnects</text>
<text text-anchor="middle" x="584.5" y="-651.696" font-family="Helvetica,sans-Serif" font-size="10.00">resumes</text>
<text text-anchor="middle" x="584.5" y="-640.696" font-family="Helvetica,sans-Serif" font-size="10.00">shard_id</text>
</g>
<!-- Node17&#45;&gt;Node16 -->
<g id="edge19" class="edge"><title>Node17&#45;&gt;Node16</title>
<path fill="none" stroke="#9a32cd" stroke-dasharray="5,2" d="M256.934,-356.973C313.361,-357.59 428.043,-359.554 525,-365.696 574.504,-368.832 631.673,-374.837 666.83,-378.805"/>
<polygon fill="#9a32cd" stroke="#9a32cd" points="256.805,-353.471 246.77,-356.869 256.734,-360.471 256.805,-353.471"/>
<text text-anchor="middle" x="473" y="-401.696" font-family="Helvetica,sans-Serif" font-size="10.00"> cluster_id</text>
<text text-anchor="middle" x="473" y="-390.696" font-family="Helvetica,sans-Serif" font-size="10.00">intents</text>
<text text-anchor="middle" x="473" y="-379.696" font-family="Helvetica,sans-Serif" font-size="10.00">maxclusters</text>
<text text-anchor="middle" x="473" y="-368.696" font-family="Helvetica,sans-Serif" font-size="10.00">numshards</text>
</g>
<!-- Node17&#45;&gt;Node20 -->
<g id="edge30" class="edge"><title>Node17&#45;&gt;Node20</title>
<path fill="none" stroke="#9a32cd" stroke-dasharray="5,2" d="M256.487,-344.333C269.137,-340.028 283.631,-335.363 297,-331.696 343.49,-318.944 358.519,-327.282 403,-308.696 424.641,-299.654 446.872,-283.729 460.056,-273.451"/>
<polygon fill="#9a32cd" stroke="#9a32cd" points="255.102,-341.108 246.793,-347.682 257.388,-347.724 255.102,-341.108"/>
<text text-anchor="middle" x="350" y="-334.696" font-family="Helvetica,sans-Serif" font-size="10.00"> flags</text>
</g>
<!-- Node18 -->
<g id="node18" class="node"><title>Node18</title>
<g id="a_node18"><a xlink:title=" ">
<polygon fill="white" stroke="#bfbfbf" points="450.5,-561.196 450.5,-580.196 495.5,-580.196 495.5,-561.196 450.5,-561.196"/>
<text text-anchor="middle" x="473" y="-568.196" font-family="Helvetica,sans-Serif" font-size="10.00">double</text>
</a>
</g>
</g>
<!-- Node18&#45;&gt;Node5 -->
<g id="edge40" class="edge"><title>Node18&#45;&gt;Node5</title>
<path fill="none" stroke="#9a32cd" stroke-dasharray="5,2" d="M505.865,-569.933C592.504,-568.326 830.522,-567.169 900,-600.696 928.344,-614.374 950.496,-645.954 960.378,-661.984"/>
<polygon fill="#9a32cd" stroke="#9a32cd" points="505.532,-566.439 495.604,-570.139 505.672,-573.437 505.532,-566.439"/>
<text text-anchor="middle" x="701" y="-578.696" font-family="Helvetica,sans-Serif" font-size="10.00"> websocket_ping</text>
</g>
<!-- Node18&#45;&gt;Node16 -->
<g id="edge20" class="edge"><title>Node18&#45;&gt;Node16</title>
<path fill="none" stroke="#9a32cd" stroke-dasharray="5,2" d="M505.547,-561.467C517.296,-558.053 530.749,-554.169 543,-550.696 579.828,-540.257 596.347,-551.903 626,-527.696 671.32,-490.7 691.732,-418.729 697.886,-392.533"/>
<polygon fill="#9a32cd" stroke="#9a32cd" points="504.357,-558.168 495.735,-564.325 506.315,-564.889 504.357,-558.168"/>
<text text-anchor="middle" x="584.5" y="-553.696" font-family="Helvetica,sans-Serif" font-size="10.00"> rest_ping</text>
</g>
<!-- Node19&#45;&gt;Node16 -->
<g id="edge21" class="edge"><title>Node19&#45;&gt;Node16</title>
<path fill="none" stroke="#9a32cd" stroke-dasharray="5,2" d="M524.728,-418.371C568.083,-409.547 629.221,-397.103 666.646,-389.485"/>
<polygon fill="#9a32cd" stroke="#9a32cd" points="523.766,-414.995 514.665,-420.419 525.162,-421.854 523.766,-414.995"/>
<text text-anchor="middle" x="584.5" y="-417.696" font-family="Helvetica,sans-Serif" font-size="10.00"> dispatch</text>
</g>
<!-- Node20&#45;&gt;Node16 -->
<g id="edge23" class="edge"><title>Node20&#45;&gt;Node16</title>
<path fill="none" stroke="#9a32cd" stroke-dasharray="5,2" d="M508.495,-277.017C539.884,-289.627 587.114,-309.84 626,-331.696 648.715,-344.463 673.285,-362.276 687.623,-373.119"/>
<polygon fill="#9a32cd" stroke="#9a32cd" points="509.477,-273.641 498.891,-273.197 506.89,-280.145 509.477,-273.641"/>
<text text-anchor="middle" x="584.5" y="-334.696" font-family="Helvetica,sans-Serif" font-size="10.00"> me</text>
</g>
<!-- Node21&#45;&gt;Node20 -->
<g id="edge24" class="edge"><title>Node21&#45;&gt;Node20</title>
<path fill="none" stroke="midnightblue" d="M270.501,-274.98C322.201,-272.085 402.267,-267.601 444.212,-265.252"/>
<polygon fill="midnightblue" stroke="midnightblue" points="270.03,-271.501 260.242,-275.555 270.422,-278.49 270.03,-271.501"/>
</g>
<!-- Node22 -->
<g id="node22" class="node"><title>Node22</title>
<g id="a_node22"><a xlink:title=" ">
<polygon fill="white" stroke="#bfbfbf" points="195.5,-306.196 195.5,-325.196 246.5,-325.196 246.5,-306.196 195.5,-306.196"/>
<text text-anchor="middle" x="221" y="-313.196" font-family="Helvetica,sans-Serif" font-size="10.00">uint16_t</text>
</a>
</g>
</g>
<!-- Node22&#45;&gt;Node20 -->
<g id="edge27" class="edge"><title>Node22&#45;&gt;Node20</title>
<path fill="none" stroke="#9a32cd" stroke-dasharray="5,2" d="M256.357,-307.118C269.095,-304.025 283.68,-300.587 297,-297.696 348.872,-286.438 409.783,-275.005 444.342,-268.684"/>
<polygon fill="#9a32cd" stroke="#9a32cd" points="255.478,-303.729 246.597,-309.507 257.142,-310.529 255.478,-303.729"/>
<text text-anchor="middle" x="350" y="-300.696" font-family="Helvetica,sans-Serif" font-size="10.00"> discriminator</text>
</g>
<!-- Node23&#45;&gt;Node20 -->
<g id="edge28" class="edge"><title>Node23&#45;&gt;Node20</title>
<path fill="none" stroke="#9a32cd" stroke-dasharray="5,2" d="M284.799,-243.519C319.669,-245.902 363.798,-249.344 403,-253.696 416.594,-255.205 431.631,-257.331 444.189,-259.234"/>
<polygon fill="#9a32cd" stroke="#9a32cd" points="284.969,-240.023 274.757,-242.845 284.5,-247.007 284.969,-240.023"/>
<text text-anchor="middle" x="350" y="-256.696" font-family="Helvetica,sans-Serif" font-size="10.00"> avatar</text>
</g>
<!-- Node24 -->
<g id="node24" class="node"><title>Node24</title>
<g id="a_node24"><a xlink:title=" ">
<polygon fill="white" stroke="#bfbfbf" points="198,-192.196 198,-211.196 244,-211.196 244,-192.196 198,-192.196"/>
<text text-anchor="middle" x="221" y="-199.196" font-family="Helvetica,sans-Serif" font-size="10.00">uint8_t</text>
</a>
</g>
</g>
<!-- Node24&#45;&gt;Node20 -->
<g id="edge31" class="edge"><title>Node24&#45;&gt;Node20</title>
<path fill="none" stroke="#9a32cd" stroke-dasharray="5,2" d="M254.348,-203.725C291.09,-206.707 352.493,-213.759 403,-229.696 422.103,-235.724 442.509,-246.361 456.133,-254.136"/>
<polygon fill="#9a32cd" stroke="#9a32cd" points="254.459,-200.224 244.223,-202.957 253.929,-207.204 254.459,-200.224"/>
<text text-anchor="middle" x="350" y="-232.696" font-family="Helvetica,sans-Serif" font-size="10.00"> refcount</text>
</g>
<!-- Node25 -->
<g id="node25" class="node"><title>Node25</title>
<g id="a_node25"><a xlink:href="structdpp_1_1cache__policy__t.html" target="_top" xlink:title="Represents the caching policy of the cluster.">
<polygon fill="white" stroke="black" points="421,-32.1963 421,-51.1963 525,-51.1963 525,-32.1963 421,-32.1963"/>
<text text-anchor="middle" x="473" y="-39.1963" font-family="Helvetica,sans-Serif" font-size="10.00">dpp::cache_policy_t</text>
</a>
</g>
</g>
<!-- Node25&#45;&gt;Node16 -->
<g id="edge32" class="edge"><title>Node25&#45;&gt;Node16</title>
<path fill="none" stroke="#9a32cd" stroke-dasharray="5,2" d="M535.085,-47.4019C566.3,-53.4197 602.547,-65.701 626,-90.6963 636.176,-101.542 686.706,-323.714 697.831,-373.048"/>
<polygon fill="#9a32cd" stroke="#9a32cd" points="535.603,-43.9396 525.149,-45.66 534.394,-50.8344 535.603,-43.9396"/>
<text text-anchor="middle" x="584.5" y="-93.6963" font-family="Helvetica,sans-Serif" font-size="10.00"> cache_policy</text>
</g>
<!-- Node26 -->
<g id="node26" class="node"><title>Node26</title>
<g id="a_node26"><a xlink:title=" ">
<polygon fill="white" stroke="#bfbfbf" points="163,-25.1963 163,-44.1963 279,-44.1963 279,-25.1963 163,-25.1963"/>
<text text-anchor="middle" x="221" y="-32.1963" font-family="Helvetica,sans-Serif" font-size="10.00">cache_policy_setting_t</text>
</a>
</g>
</g>
<!-- Node26&#45;&gt;Node25 -->
<g id="edge33" class="edge"><title>Node26&#45;&gt;Node25</title>
<path fill="none" stroke="#9a32cd" stroke-dasharray="5,2" d="M289.4,-33.7694C323.47,-33.631 365.449,-33.9627 403,-35.6963 408.766,-35.9624 414.795,-36.3397 420.786,-36.7771"/>
<polygon fill="#9a32cd" stroke="#9a32cd" points="289.075,-30.2711 279.094,-33.8265 289.114,-37.271 289.075,-30.2711"/>
<text text-anchor="middle" x="350" y="-60.6963" font-family="Helvetica,sans-Serif" font-size="10.00"> emoji_policy</text>
<text text-anchor="middle" x="350" y="-49.6963" font-family="Helvetica,sans-Serif" font-size="10.00">role_policy</text>
<text text-anchor="middle" x="350" y="-38.6963" font-family="Helvetica,sans-Serif" font-size="10.00">user_policy</text>
</g>
<!-- Node27 -->
<g id="node27" class="node"><title>Node27</title>
<g id="a_node27"><a xlink:title=" ">
<polygon fill="white" stroke="#bfbfbf" points="650.5,-110.196 650.5,-129.196 751.5,-129.196 751.5,-110.196 650.5,-110.196"/>
<text text-anchor="middle" x="701" y="-117.196" font-family="Helvetica,sans-Serif" font-size="10.00">native_handle_type</text>
</a>
</g>
</g>
<!-- Node27&#45;&gt;Node5 -->
<g id="edge36" class="edge"><title>Node27&#45;&gt;Node5</title>
<path fill="none" stroke="#9a32cd" stroke-dasharray="5,2" d="M746.556,-108.068C791.412,-99.3028 859.587,-94.4963 900,-132.696 940.251,-170.743 962.22,-593.136 965.553,-662.178"/>
<polygon fill="#9a32cd" stroke="#9a32cd" points="745.592,-104.693 736.522,-110.169 747.027,-111.545 745.592,-104.693"/>
<text text-anchor="middle" x="838" y="-135.696" font-family="Helvetica,sans-Serif" font-size="10.00"> thread_id</text>
</g>
<!-- Node28 -->
<g id="node28" class="node"><title>Node28</title>
<g id="a_node28"><a xlink:title=" ">
<polygon fill="white" stroke="#bfbfbf" points="669.5,-912.196 669.5,-931.196 732.5,-931.196 732.5,-912.196 669.5,-912.196"/>
<text text-anchor="middle" x="701" y="-919.196" font-family="Helvetica,sans-Serif" font-size="10.00">std::mutex</text>
</a>
</g>
</g>
<!-- Node28&#45;&gt;Node5 -->
<g id="edge39" class="edge"><title>Node28&#45;&gt;Node5</title>
<path fill="none" stroke="#9a32cd" stroke-dasharray="5,2" d="M742.571,-928.495C786.593,-933.436 856.413,-933.824 900,-896.696 967.558,-839.151 967.917,-716.452 966.535,-681.293"/>
<polygon fill="#9a32cd" stroke="#9a32cd" points="742.864,-925.005 732.507,-927.236 741.995,-931.951 742.864,-925.005"/>
<text text-anchor="middle" x="838" y="-933.696" font-family="Helvetica,sans-Serif" font-size="10.00"> voice_mutex</text>
</g>
<!-- Node29 -->
<g id="node29" class="node"><title>Node29</title>
<g id="a_node29"><a xlink:title=" ">
<polygon fill="white" stroke="#bfbfbf" points="656.5,-874.196 656.5,-893.196 745.5,-893.196 745.5,-874.196 656.5,-874.196"/>
<text text-anchor="middle" x="701" y="-881.196" font-family="Helvetica,sans-Serif" font-size="10.00">unordered_map&lt;</text>
</a>
</g>
</g>
<!-- Node29&#45;&gt;Node5 -->
<g id="edge42" class="edge"><title>Node29&#45;&gt;Node5</title>
<path fill="none" stroke="#9a32cd" stroke-dasharray="5,2" d="M756.006,-883.41C806.901,-882.054 878.472,-876.995 900,-859.696 957.705,-813.328 965.055,-713.109 965.913,-681.473"/>
<polygon fill="#9a32cd" stroke="#9a32cd" points="755.723,-879.916 745.805,-883.641 755.882,-886.914 755.723,-879.916"/>
<text text-anchor="middle" x="838" y="-884.696" font-family="Helvetica,sans-Serif" font-size="10.00"> connecting_voice_channels</text>
</g>
</g>
</svg>
