<?xml version="1.0" encoding="UTF-8" standalone="no"?>
<!DOCTYPE svg PUBLIC "-//W3C//DTD SVG 1.1//EN"
 "http://www.w3.org/Graphics/SVG/1.1/DTD/svg11.dtd">
<!-- Generated by graphviz version 2.38.0 (20140413.2041)
 -->
<!-- Title: dpp::http_request_completion_t Pages: 1 -->
<!--zoomable 196 -->
<svg id="main" version="1.1" xmlns="http://www.w3.org/2000/svg" xmlns:xlink="http://www.w3.org/1999/xlink" xml:space="preserve" onload="init(evt)">
<style type="text/css"><![CDATA[
.edge:hover path { stroke: red; }
.edge:hover polygon { stroke: red; fill: red; }
]]></style>
<script type="text/javascript"><![CDATA[
var edges = document.getElementsByTagName('g');
if (edges && edges.length) {
  for (var i=0;i<edges.length;i++) {
    if (edges[i].id.substr(0,4)=='edge') {
      edges[i].setAttribute('class','edge');
    }
  }
}
]]></script>
        <defs>
                <circle id="rim" cx="0" cy="0" r="7"/>
                <circle id="rim2" cx="0" cy="0" r="3.5"/>
                <g id="zoomPlus">
                        <use xlink:href="#rim" fill="#404040">
                                <set attributeName="fill" to="#808080" begin="zoomplus.mouseover" end="zoomplus.mouseout"/>
                        </use>
                        <path d="M-4,0h8M0,-4v8" fill="none" stroke="white" stroke-width="1.5" pointer-events="none"/>
                </g>
                <g id="zoomMin">
                        <use xlink:href="#rim" fill="#404040">
                                <set attributeName="fill" to="#808080" begin="zoomminus.mouseover" end="zoomminus.mouseout"/>
                        </use>
                        <path d="M-4,0h8" fill="none" stroke="white" stroke-width="1.5" pointer-events="none"/>
                </g>
                <g id="dirArrow">
                        <path fill="none" stroke="white" stroke-width="1.5" d="M0,-3.0v7 M-2.5,-0.5L0,-3.0L2.5,-0.5"/>
                </g>
               <g id="resetDef">
                       <use xlink:href="#rim2" fill="#404040">
                               <set attributeName="fill" to="#808080" begin="reset.mouseover" end="reset.mouseout"/>
                       </use>
               </g>
        </defs>

<script type="text/javascript">
var viewWidth = 547;
var viewHeight = 196;
var sectionId = 'dynsection-0';
</script>
<script xlink:href="svgpan.js"/>
<svg id="graph" class="graph">
<g id="viewport">
<title>dpp::http_request_completion_t</title>
<polygon fill="white" stroke="none" points="-4,4 -4,-192 542.5,-192 542.5,4 -4,4"/>
<!-- Node1 -->
<g id="node1" class="node"><title>Node1</title>
<g id="a_node1"><a xlink:title="The result of any HTTP request. Contains the headers, vital rate limit figures, and returned request ...">
<polygon fill="#bfbfbf" stroke="black" points="133,-0.5 133,-19.5 286,-19.5 286,-0.5 133,-0.5"/>
<text text-anchor="middle" x="209.5" y="-7.5" font-family="Helvetica,sans-Serif" font-size="10.00">dpp::http_request_completion_t</text>
</a>
</g>
</g>
<!-- Node2 -->
<g id="node2" class="node"><title>Node2</title>
<g id="a_node2"><a xlink:title=" ">
<polygon fill="white" stroke="#bfbfbf" points="0,-100.5 0,-119.5 41,-119.5 41,-100.5 0,-100.5"/>
<text text-anchor="middle" x="20.5" y="-107.5" font-family="Helvetica,sans-Serif" font-size="10.00">map&lt;</text>
</a>
</g>
</g>
<!-- Node2&#45;&gt;Node1 -->
<g id="edge1" class="edge"><title>Node2&#45;&gt;Node1</title>
<path fill="none" stroke="#9a32cd" stroke-dasharray="5,2" d="M24.3694,-90.3402C28.7842,-73.9336 37.6827,-50.7402 54.5,-38 67.1825,-28.3921 100.422,-21.9373 132.882,-17.7555"/>
<polygon fill="#9a32cd" stroke="#9a32cd" points="20.8852,-89.8651 21.9872,-100.402 27.6969,-91.4778 20.8852,-89.8651"/>
<text text-anchor="middle" x="73.5" y="-57.5" font-family="Helvetica,sans-Serif" font-size="10.00"> headers</text>
</g>
<!-- Node3 -->
<g id="node3" class="node"><title>Node3</title>
<g id="a_node3"><a xlink:title=" ">
<polygon fill="white" stroke="#bfbfbf" points="59,-100.5 59,-119.5 110,-119.5 110,-100.5 59,-100.5"/>
<text text-anchor="middle" x="84.5" y="-107.5" font-family="Helvetica,sans-Serif" font-size="10.00">uint16_t</text>
</a>
</g>
</g>
<!-- Node3&#45;&gt;Node1 -->
<g id="edge2" class="edge"><title>Node3&#45;&gt;Node1</title>
<path fill="none" stroke="#9a32cd" stroke-dasharray="5,2" d="M91.24,-90.8173C98.0673,-74.7703 110.11,-51.8386 127.5,-38 138.172,-29.5072 151.619,-23.6406 164.518,-19.6062"/>
<polygon fill="#9a32cd" stroke="#9a32cd" points="87.9502,-89.6182 87.5028,-100.204 94.4537,-92.2076 87.9502,-89.6182"/>
<text text-anchor="middle" x="143" y="-57.5" font-family="Helvetica,sans-Serif" font-size="10.00"> status</text>
</g>
<!-- Node4 -->
<g id="node4" class="node"><title>Node4</title>
<g id="a_node4"><a xlink:title=" ">
<polygon fill="white" stroke="#bfbfbf" points="128.5,-100.5 128.5,-119.5 186.5,-119.5 186.5,-100.5 128.5,-100.5"/>
<text text-anchor="middle" x="157.5" y="-107.5" font-family="Helvetica,sans-Serif" font-size="10.00">http_error</text>
</a>
</g>
</g>
<!-- Node4&#45;&gt;Node1 -->
<g id="edge3" class="edge"><title>Node4&#45;&gt;Node1</title>
<path fill="none" stroke="#9a32cd" stroke-dasharray="5,2" d="M160.058,-90.3662C162.791,-75.299 168.204,-54.0308 178.5,-38 183.128,-30.7938 190.229,-24.4108 196.467,-19.6626"/>
<polygon fill="#9a32cd" stroke="#9a32cd" points="156.562,-90.0653 158.454,-100.49 163.476,-91.1608 156.562,-90.0653"/>
<text text-anchor="middle" x="190" y="-57.5" font-family="Helvetica,sans-Serif" font-size="10.00"> error</text>
</g>
<!-- Node5 -->
<g id="node5" class="node"><title>Node5</title>
<g id="a_node5"><a xlink:title=" ">
<polygon fill="white" stroke="#bfbfbf" points="204.5,-100.5 204.5,-119.5 264.5,-119.5 264.5,-100.5 204.5,-100.5"/>
<text text-anchor="middle" x="234.5" y="-107.5" font-family="Helvetica,sans-Serif" font-size="10.00">std::string</text>
</a>
</g>
</g>
<!-- Node5&#45;&gt;Node1 -->
<g id="edge4" class="edge"><title>Node5&#45;&gt;Node1</title>
<path fill="none" stroke="#9a32cd" stroke-dasharray="5,2" d="M216.894,-92.7785C214.293,-89.4806 211.99,-85.8367 210.5,-82 202.29,-60.8552 205.365,-33.4273 207.745,-19.6717"/>
<polygon fill="#9a32cd" stroke="#9a32cd" points="214.343,-95.1746 223.683,-100.176 219.5,-90.4417 214.343,-95.1746"/>
<text text-anchor="middle" x="245.5" y="-63" font-family="Helvetica,sans-Serif" font-size="10.00"> body</text>
<text text-anchor="middle" x="245.5" y="-52" font-family="Helvetica,sans-Serif" font-size="10.00">ratelimit_bucket</text>
</g>
<!-- Node6 -->
<g id="node6" class="node"><title>Node6</title>
<g id="a_node6"><a xlink:title=" ">
<polygon fill="white" stroke="#bfbfbf" points="187,-157.5 187,-187.5 282,-187.5 282,-157.5 187,-157.5"/>
<text text-anchor="start" x="195" y="-175.5" font-family="Helvetica,sans-Serif" font-size="10.00">std::basic_string&lt;</text>
<text text-anchor="middle" x="234.5" y="-164.5" font-family="Helvetica,sans-Serif" font-size="10.00"> Char &gt;</text>
</a>
</g>
</g>
<!-- Node6&#45;&gt;Node5 -->
<g id="edge5" class="edge"><title>Node6&#45;&gt;Node5</title>
<path fill="none" stroke="midnightblue" d="M234.5,-147.352C234.5,-137.513 234.5,-126.775 234.5,-119.54"/>
<polygon fill="midnightblue" stroke="midnightblue" points="231,-147.468 234.5,-157.468 238,-147.468 231,-147.468"/>
</g>
<!-- Node7 -->
<g id="node7" class="node"><title>Node7</title>
<g id="a_node7"><a xlink:title=" ">
<polygon fill="white" stroke="#bfbfbf" points="283,-100.5 283,-119.5 334,-119.5 334,-100.5 283,-100.5"/>
<text text-anchor="middle" x="308.5" y="-107.5" font-family="Helvetica,sans-Serif" font-size="10.00">uint64_t</text>
</a>
</g>
</g>
<!-- Node7&#45;&gt;Node1 -->
<g id="edge6" class="edge"><title>Node7&#45;&gt;Node1</title>
<path fill="none" stroke="#9a32cd" stroke-dasharray="5,2" d="M305.436,-90.15C301.945,-74.3189 294.761,-52.087 280.5,-38 271.869,-29.4737 260.271,-23.5886 248.955,-19.5475"/>
<polygon fill="#9a32cd" stroke="#9a32cd" points="302.067,-91.1685 307.374,-100.338 308.944,-89.8604 302.067,-91.1685"/>
<text text-anchor="middle" x="347" y="-74" font-family="Helvetica,sans-Serif" font-size="10.00"> ratelimit_limit</text>
<text text-anchor="middle" x="347" y="-63" font-family="Helvetica,sans-Serif" font-size="10.00">ratelimit_remaining</text>
<text text-anchor="middle" x="347" y="-52" font-family="Helvetica,sans-Serif" font-size="10.00">ratelimit_reset_after</text>
<text text-anchor="middle" x="347" y="-41" font-family="Helvetica,sans-Serif" font-size="10.00">ratelimit_retry_after</text>
</g>
<!-- Node8 -->
<g id="node8" class="node"><title>Node8</title>
<g id="a_node8"><a xlink:title=" ">
<polygon fill="white" stroke="#bfbfbf" points="395,-100.5 395,-119.5 430,-119.5 430,-100.5 395,-100.5"/>
<text text-anchor="middle" x="412.5" y="-107.5" font-family="Helvetica,sans-Serif" font-size="10.00">bool</text>
</a>
</g>
</g>
<!-- Node8&#45;&gt;Node1 -->
<g id="edge7" class="edge"><title>Node8&#45;&gt;Node1</title>
<path fill="none" stroke="#9a32cd" stroke-dasharray="5,2" d="M411.999,-90.4504C410.503,-74.1187 405.618,-50.9734 390.5,-38 374.768,-24.4996 328.04,-17.747 286.006,-14.3709"/>
<polygon fill="#9a32cd" stroke="#9a32cd" points="408.506,-90.6783 412.577,-100.46 415.495,-90.2744 408.506,-90.6783"/>
<text text-anchor="middle" x="446" y="-57.5" font-family="Helvetica,sans-Serif" font-size="10.00"> ratelimit_global</text>
</g>
<!-- Node9 -->
<g id="node9" class="node"><title>Node9</title>
<g id="a_node9"><a xlink:title=" ">
<polygon fill="white" stroke="#bfbfbf" points="482,-100.5 482,-119.5 527,-119.5 527,-100.5 482,-100.5"/>
<text text-anchor="middle" x="504.5" y="-107.5" font-family="Helvetica,sans-Serif" font-size="10.00">double</text>
</a>
</g>
</g>
<!-- Node9&#45;&gt;Node1 -->
<g id="edge8" class="edge"><title>Node9&#45;&gt;Node1</title>
<path fill="none" stroke="#9a32cd" stroke-dasharray="5,2" d="M504.149,-90.2717C502.754,-73.8185 497.934,-50.5953 482.5,-38 467.509,-25.767 361.551,-18.1851 286.151,-14.2786"/>
<polygon fill="#9a32cd" stroke="#9a32cd" points="500.658,-90.5548 504.655,-100.367 507.65,-90.2041 500.658,-90.5548"/>
<text text-anchor="middle" x="521" y="-57.5" font-family="Helvetica,sans-Serif" font-size="10.00"> latency</text>
</g>
</g>
</svg>
        <g id="navigator" transform="translate(0 0)" fill="#404254">
                <rect fill="#f2f5e9" fill-opacity="0.5" stroke="#606060" stroke-width=".5" x="0" y="0" width="60" height="60"/>
                <use id="zoomplus" xlink:href="#zoomPlus" x="17" y="9" onmousedown="handleZoom(evt,'in')"/>
                <use id="zoomminus" xlink:href="#zoomMin" x="42" y="9" onmousedown="handleZoom(evt,'out')"/>
                <use id="reset" xlink:href="#resetDef" x="30" y="36" onmousedown="handleReset()"/>
                <g id="arrowUp" xlink:href="#dirArrow" transform="translate(30 24)" onmousedown="handlePan(0,-1)">
                  <use xlink:href="#rim" fill="#404040">
                        <set attributeName="fill" to="#808080" begin="arrowUp.mouseover" end="arrowUp.mouseout"/>
                  </use>
                  <path fill="none" stroke="white" stroke-width="1.5" d="M0,-3.0v7 M-2.5,-0.5L0,-3.0L2.5,-0.5"/>
                </g>
                <g id="arrowRight" xlink:href="#dirArrow" transform="rotate(90) translate(36 -43)" onmousedown="handlePan(1,0)">
                  <use xlink:href="#rim" fill="#404040">
                        <set attributeName="fill" to="#808080" begin="arrowRight.mouseover" end="arrowRight.mouseout"/>
                  </use>
                  <path fill="none" stroke="white" stroke-width="1.5" d="M0,-3.0v7 M-2.5,-0.5L0,-3.0L2.5,-0.5"/>
                </g>
                <g id="arrowDown" xlink:href="#dirArrow" transform="rotate(180) translate(-30 -48)" onmousedown="handlePan(0,1)">
                  <use xlink:href="#rim" fill="#404040">
                        <set attributeName="fill" to="#808080" begin="arrowDown.mouseover" end="arrowDown.mouseout"/>
                  </use>
                  <path fill="none" stroke="white" stroke-width="1.5" d="M0,-3.0v7 M-2.5,-0.5L0,-3.0L2.5,-0.5"/>
                </g>
                <g id="arrowLeft" xlink:href="#dirArrow" transform="rotate(270) translate(-36 17)" onmousedown="handlePan(-1,0)">
                  <use xlink:href="#rim" fill="#404040">
                        <set attributeName="fill" to="#808080" begin="arrowLeft.mouseover" end="arrowLeft.mouseout"/>
                  </use>
                  <path fill="none" stroke="white" stroke-width="1.5" d="M0,-3.0v7 M-2.5,-0.5L0,-3.0L2.5,-0.5"/>
                </g>
        </g>
        <svg viewBox="0 0 15 15" width="100%" height="30px" preserveAspectRatio="xMaxYMin meet">
         <g id="arrow_out" transform="scale(0.3 0.3)">
          <a xlink:href="structdpp_1_1http__request__completion__t__coll__graph_org.svg" target="_base">
           <rect id="button" ry="5" rx="5" y="6" x="6" height="38" width="38"
                fill="#f2f5e9" fill-opacity="0.5" stroke="#606060" stroke-width="1.0"/>
           <path id="arrow"
             d="M 11.500037,31.436501 C 11.940474,20.09759 22.043105,11.32322 32.158766,21.979434 L 37.068811,17.246167 C 37.068811,17.246167 37.088388,32 37.088388,32 L 22.160133,31.978069 C 22.160133,31.978069 26.997745,27.140456 26.997745,27.140456 C 18.528582,18.264221 13.291696,25.230495 11.500037,31.436501 z"
             style="fill:#404040;"/>
          </a>
         </g>
        </svg>
</svg>
