<?xml version="1.0" encoding="UTF-8" standalone="no"?>
<!DOCTYPE svg PUBLIC "-//W3C//DTD SVG 1.1//EN"
 "http://www.w3.org/Graphics/SVG/1.1/DTD/svg11.dtd">
<!-- Generated by graphviz version 2.43.0 (0)
 -->
<!-- Title: dpp::voice_ready_t Pages: 1 -->
<!--zoomable 1172 -->
<svg id="main" version="1.1" xmlns="http://www.w3.org/2000/svg" xmlns:xlink="http://www.w3.org/1999/xlink" xml:space="preserve" onload="init(evt)">
<style type="text/css"><![CDATA[
.edge:hover path { stroke: red; }
.edge:hover polygon { stroke: red; fill: red; }
]]></style>
<script type="text/javascript"><![CDATA[
var edges = document.getElementsByTagName('g');
if (edges && edges.length) {
  for (var i=0;i<edges.length;i++) {
    if (edges[i].id.substr(0,4)=='edge') {
      edges[i].setAttribute('class','edge');
    }
  }
}
]]></script>
        <defs>
                <circle id="rim" cx="0" cy="0" r="7"/>
                <circle id="rim2" cx="0" cy="0" r="3.5"/>
                <g id="zoomPlus">
                        <use xlink:href="#rim" fill="#404040">
                                <set attributeName="fill" to="#808080" begin="zoomplus.mouseover" end="zoomplus.mouseout"/>
                        </use>
                        <path d="M-4,0h8M0,-4v8" fill="none" stroke="white" stroke-width="1.5" pointer-events="none"/>
                </g>
                <g id="zoomMin">
                        <use xlink:href="#rim" fill="#404040">
                                <set attributeName="fill" to="#808080" begin="zoomminus.mouseover" end="zoomminus.mouseout"/>
                        </use>
                        <path d="M-4,0h8" fill="none" stroke="white" stroke-width="1.5" pointer-events="none"/>
                </g>
                <g id="dirArrow">
                        <path fill="none" stroke="white" stroke-width="1.5" d="M0,-3.0v7 M-2.5,-0.5L0,-3.0L2.5,-0.5"/>
                </g>
               <g id="resetDef">
                       <use xlink:href="#rim2" fill="#404040">
                               <set attributeName="fill" to="#808080" begin="reset.mouseover" end="reset.mouseout"/>
                       </use>
               </g>
        </defs>

<script type="text/javascript">
var viewWidth = 1450;
var viewHeight = 1172;
var sectionId = 'dynsection-1';
</script>
<script xlink:href="svgpan.js"/>
<svg id="graph" class="graph">
<g id="viewport">
<title>dpp::voice_ready_t</title>
<!-- Node1 -->
<g id="node1" class="node">
<title>Node1</title>
<g id="a_node1"><a xlink:title="voice user talking">
<polygon fill="#bfbfbf" stroke="black" points="1333,-638.5 1333,-657.5 1442,-657.5 1442,-638.5 1333,-638.5"/>
<text text-anchor="middle" x="1387.5" y="-645.5" font-family="Helvetica,sans-Serif" font-size="10.00">dpp::voice_ready_t</text>
</a>
</g>
</g>
<!-- Node2 -->
<g id="node2" class="node">
<title>Node2</title>
<g id="a_node2"><a xlink:href="structdpp_1_1event__dispatch__t.html" target="_top" xlink:title="Base event parameter struct.">
<polygon fill="none" stroke="black" points="1172,-638.5 1172,-657.5 1296,-657.5 1296,-638.5 1172,-638.5"/>
<text text-anchor="middle" x="1234" y="-645.5" font-family="Helvetica,sans-Serif" font-size="10.00">dpp::event_dispatch_t</text>
</a>
</g>
</g>
<!-- Node2&#45;&gt;Node1 -->
<g id="edge1" class="edge">
<title>Node2&#45;&gt;Node1</title>
<path fill="none" stroke="midnightblue" d="M1306.24,-648C1315.21,-648 1324.26,-648 1332.89,-648"/>
<polygon fill="midnightblue" stroke="midnightblue" points="1306.18,-644.5 1296.18,-648 1306.18,-651.5 1306.18,-644.5"/>
</g>
<!-- Node3 -->
<g id="node3" class="node">
<title>Node3</title>
<g id="a_node3"><a xlink:title=" ">
<polygon fill="none" stroke="#bfbfbf" points="206.5,-621.5 206.5,-640.5 271.5,-640.5 271.5,-621.5 206.5,-621.5"/>
<text text-anchor="middle" x="239" y="-628.5" font-family="Helvetica,sans-Serif" font-size="10.00">std::string</text>
</a>
</g>
</g>
<!-- Node3&#45;&gt;Node2 -->
<g id="edge2" class="edge">
<title>Node3&#45;&gt;Node2</title>
<path fill="none" stroke="#9a32cd" stroke-dasharray="5,2" d="M281.85,-639.5C325.65,-645.97 394.52,-649.04 442,-617 457.16,-606.77 444.5,-589.7 460,-580 500.8,-554.48 516.27,-553.49 983,-607 1053.13,-615.04 1133.59,-629.12 1183.86,-638.5"/>
<polygon fill="#9a32cd" stroke="#9a32cd" points="282.25,-636.02 271.83,-637.89 281.15,-642.93 282.25,-636.02"/>
<text text-anchor="middle" x="765.5" y="-591" font-family="Helvetica,sans-Serif" font-size="10.00"> raw_event</text>
</g>
<!-- Node5 -->
<g id="node5" class="node">
<title>Node5</title>
<g id="a_node5"><a xlink:href="classdpp_1_1discord__client.html" target="_top" xlink:title="Implements a discord client. Each discord_client connects to one shard and derives from a websocket c...">
<polygon fill="none" stroke="black" points="1001,-760.5 1001,-779.5 1109,-779.5 1109,-760.5 1001,-760.5"/>
<text text-anchor="middle" x="1055" y="-767.5" font-family="Helvetica,sans-Serif" font-size="10.00">dpp::discord_client</text>
</a>
</g>
</g>
<!-- Node3&#45;&gt;Node5 -->
<g id="edge38" class="edge">
<title>Node3&#45;&gt;Node5</title>
<path fill="none" stroke="#9a32cd" stroke-dasharray="5,2" d="M281.99,-639.1C294.5,-641.29 308.27,-643.47 321,-645 394.2,-653.82 916.75,-658.63 983,-691 1014.65,-706.46 1038.59,-742.83 1048.71,-760.3"/>
<polygon fill="#9a32cd" stroke="#9a32cd" points="282.28,-635.6 271.82,-637.28 281.05,-642.49 282.28,-635.6"/>
<text text-anchor="middle" x="638" y="-674" font-family="Helvetica,sans-Serif" font-size="10.00"> sessionid</text>
<text text-anchor="middle" x="638" y="-663" font-family="Helvetica,sans-Serif" font-size="10.00">token</text>
</g>
<!-- Node7 -->
<g id="node7" class="node">
<title>Node7</title>
<g id="a_node7"><a xlink:href="classdpp_1_1ssl__client.html" target="_top" xlink:title="Implements a simple non&#45;blocking SSL stream client.">
<polygon fill="none" stroke="black" points="473.5,-228.5 473.5,-247.5 559.5,-247.5 559.5,-228.5 473.5,-228.5"/>
<text text-anchor="middle" x="516.5" y="-235.5" font-family="Helvetica,sans-Serif" font-size="10.00">dpp::ssl_client</text>
</a>
</g>
</g>
<!-- Node3&#45;&gt;Node7 -->
<g id="edge7" class="edge">
<title>Node3&#45;&gt;Node7</title>
<path fill="none" stroke="#9a32cd" stroke-dasharray="5,2" d="M245.26,-611.45C256.12,-571.04 281.79,-475.38 303,-395 311.09,-364.36 297.85,-347.64 321,-326 360.99,-288.62 392.85,-327.1 442,-303 469.84,-289.35 495.24,-262.25 507.6,-247.73"/>
<polygon fill="#9a32cd" stroke="#9a32cd" points="241.88,-610.55 242.66,-621.11 248.64,-612.36 241.88,-610.55"/>
<text text-anchor="middle" x="381.5" y="-373" font-family="Helvetica,sans-Serif" font-size="10.00"> buffer</text>
<text text-anchor="middle" x="381.5" y="-362" font-family="Helvetica,sans-Serif" font-size="10.00">cipher</text>
<text text-anchor="middle" x="381.5" y="-351" font-family="Helvetica,sans-Serif" font-size="10.00">hostname</text>
<text text-anchor="middle" x="381.5" y="-340" font-family="Helvetica,sans-Serif" font-size="10.00">obuffer</text>
<text text-anchor="middle" x="381.5" y="-329" font-family="Helvetica,sans-Serif" font-size="10.00">port</text>
</g>
<!-- Node16 -->
<g id="node16" class="node">
<title>Node16</title>
<g id="a_node16"><a xlink:href="classdpp_1_1cluster.html" target="_top" xlink:title="The cluster class represents a group of shards and a command queue for sending and receiving commands...">
<polygon fill="none" stroke="black" points="728.5,-738.5 728.5,-757.5 802.5,-757.5 802.5,-738.5 728.5,-738.5"/>
<text text-anchor="middle" x="765.5" y="-745.5" font-family="Helvetica,sans-Serif" font-size="10.00">dpp::cluster</text>
</a>
</g>
</g>
<!-- Node3&#45;&gt;Node16 -->
<g id="edge17" class="edge">
<title>Node3&#45;&gt;Node16</title>
<path fill="none" stroke="#9a32cd" stroke-dasharray="5,2" d="M257.04,-647.99C272.4,-662.21 296.3,-681.77 321,-692 358.37,-707.48 629.06,-734.89 728.22,-744.53"/>
<polygon fill="#9a32cd" stroke="#9a32cd" points="259.09,-645.1 249.44,-640.73 254.25,-650.17 259.09,-645.1"/>
<text text-anchor="middle" x="516.5" y="-730" font-family="Helvetica,sans-Serif" font-size="10.00"> token</text>
</g>
<!-- Node20 -->
<g id="node20" class="node">
<title>Node20</title>
<g id="a_node20"><a xlink:href="classdpp_1_1user.html" target="_top" xlink:title="Represents a user on discord. May or may not be a member of a dpp::guild.">
<polygon fill="none" stroke="black" points="485.5,-877.5 485.5,-896.5 547.5,-896.5 547.5,-877.5 485.5,-877.5"/>
<text text-anchor="middle" x="516.5" y="-884.5" font-family="Helvetica,sans-Serif" font-size="10.00">dpp::user</text>
</a>
</g>
</g>
<!-- Node3&#45;&gt;Node20 -->
<g id="edge26" class="edge">
<title>Node3&#45;&gt;Node20</title>
<path fill="none" stroke="#9a32cd" stroke-dasharray="5,2" d="M258.9,-647.68C271.97,-659.66 289.4,-676.54 303,-693 312.19,-704.12 311.64,-709.03 321,-720 368.54,-775.76 396.21,-774.79 442,-832 451.96,-844.44 448.09,-852.42 460,-863 467.22,-869.41 476.42,-874.32 485.24,-877.97"/>
<polygon fill="#9a32cd" stroke="#9a32cd" points="261.16,-645 251.39,-640.9 256.47,-650.2 261.16,-645"/>
<text text-anchor="middle" x="381.5" y="-835" font-family="Helvetica,sans-Serif" font-size="10.00"> username</text>
</g>
<!-- Node30 -->
<g id="node30" class="node">
<title>Node30</title>
<g id="a_node30"><a xlink:href="classdpp_1_1discord__voice__client.html" target="_top" xlink:title="Implements a discord voice connection. Each discord_voice_client connects to one voice channel and de...">
<polygon fill="none" stroke="black" points="1001.5,-456 1001.5,-486 1108.5,-486 1108.5,-456 1001.5,-456"/>
<text text-anchor="start" x="1009.5" y="-474" font-family="Helvetica,sans-Serif" font-size="10.00">dpp::discord_voice</text>
<text text-anchor="middle" x="1055" y="-463" font-family="Helvetica,sans-Serif" font-size="10.00">_client</text>
</a>
</g>
</g>
<!-- Node3&#45;&gt;Node30 -->
<g id="edge50" class="edge">
<title>Node3&#45;&gt;Node30</title>
<path fill="none" stroke="#9a32cd" stroke-dasharray="5,2" d="M240.27,-610.9C242.08,-565.67 253.58,-456.17 321,-409 340.35,-395.46 814.1,-362.03 983,-419 1005.01,-426.42 1025.91,-443.36 1039.26,-455.9"/>
<polygon fill="#9a32cd" stroke="#9a32cd" points="236.76,-611.07 239.98,-621.17 243.76,-611.27 236.76,-611.07"/>
<text text-anchor="middle" x="638" y="-401" font-family="Helvetica,sans-Serif" font-size="10.00"> sessionid</text>
<text text-anchor="middle" x="638" y="-390" font-family="Helvetica,sans-Serif" font-size="10.00">token</text>
</g>
<!-- Node4 -->
<g id="node4" class="node">
<title>Node4</title>
<g id="a_node4"><a xlink:title=" ">
<polygon fill="none" stroke="#bfbfbf" points="0,-199 0,-229 104,-229 104,-199 0,-199"/>
<text text-anchor="start" x="8" y="-217" font-family="Helvetica,sans-Serif" font-size="10.00">std::basic_string&lt;</text>
<text text-anchor="middle" x="52" y="-206" font-family="Helvetica,sans-Serif" font-size="10.00"> Char &gt;</text>
</a>
</g>
</g>
<!-- Node4&#45;&gt;Node3 -->
<g id="edge3" class="edge">
<title>Node4&#45;&gt;Node3</title>
<path fill="none" stroke="midnightblue" d="M63.92,-238.62C99.37,-318.51 210.21,-568.37 233.63,-621.15"/>
<polygon fill="midnightblue" stroke="midnightblue" points="67.06,-237.06 59.8,-229.34 60.66,-239.9 67.06,-237.06"/>
</g>
<!-- Node5&#45;&gt;Node2 -->
<g id="edge4" class="edge">
<title>Node5&#45;&gt;Node2</title>
<path fill="none" stroke="#9a32cd" stroke-dasharray="5,2" d="M1078.51,-754.48C1115.67,-728.87 1188.73,-678.51 1219.18,-657.53"/>
<polygon fill="#9a32cd" stroke="#9a32cd" points="1076.14,-751.87 1069.89,-760.43 1080.11,-757.63 1076.14,-751.87"/>
<text text-anchor="middle" x="1140.5" y="-722" font-family="Helvetica,sans-Serif" font-size="10.00"> from</text>
</g>
<!-- Node6 -->
<g id="node6" class="node">
<title>Node6</title>
<g id="a_node6"><a xlink:href="classdpp_1_1websocket__client.html" target="_top" xlink:title="Implements a websocket client based on the SSL client.">
<polygon fill="none" stroke="black" points="703,-461.5 703,-480.5 828,-480.5 828,-461.5 703,-461.5"/>
<text text-anchor="middle" x="765.5" y="-468.5" font-family="Helvetica,sans-Serif" font-size="10.00">dpp::websocket_client</text>
</a>
</g>
</g>
<!-- Node6&#45;&gt;Node5 -->
<g id="edge5" class="edge">
<title>Node6&#45;&gt;Node5</title>
<path fill="none" stroke="midnightblue" d="M786.23,-487.33C798.84,-498.22 815.17,-513.2 828,-528 837.21,-538.62 834.27,-546.26 846,-554 897.87,-588.24 935.69,-541.7 983,-582 1039.83,-630.42 1051.26,-729.26 1053.48,-760.39"/>
<polygon fill="midnightblue" stroke="midnightblue" points="788.44,-484.62 778.56,-480.81 783.91,-489.95 788.44,-484.62"/>
</g>
<!-- Node6&#45;&gt;Node30 -->
<g id="edge44" class="edge">
<title>Node6&#45;&gt;Node30</title>
<path fill="none" stroke="midnightblue" d="M838.38,-471C888.91,-471 955.4,-471 1001.11,-471"/>
<polygon fill="midnightblue" stroke="midnightblue" points="838.18,-467.5 828.18,-471 838.18,-474.5 838.18,-467.5"/>
</g>
<!-- Node7&#45;&gt;Node6 -->
<g id="edge6" class="edge">
<title>Node7&#45;&gt;Node6</title>
<path fill="none" stroke="midnightblue" d="M567.3,-250.52C603.62,-261.79 652.05,-281.51 685,-313 731.39,-357.34 755.02,-434.59 762.14,-461.46"/>
<polygon fill="midnightblue" stroke="midnightblue" points="567.99,-247.08 557.4,-247.57 565.99,-253.78 567.99,-247.08"/>
</g>
<!-- Node8 -->
<g id="node8" class="node">
<title>Node8</title>
<g id="a_node8"><a xlink:title=" ">
<polygon fill="none" stroke="#bfbfbf" points="220,-88.5 220,-107.5 258,-107.5 258,-88.5 220,-88.5"/>
<text text-anchor="middle" x="239" y="-95.5" font-family="Helvetica,sans-Serif" font-size="10.00">bool</text>
</a>
</g>
</g>
<!-- Node8&#45;&gt;Node5 -->
<g id="edge41" class="edge">
<title>Node8&#45;&gt;Node5</title>
<path fill="none" stroke="#9a32cd" stroke-dasharray="5,2" d="M268.24,-94.65C308.43,-91.04 383.73,-88.59 442,-112 451.66,-115.88 451.96,-120.38 460,-127 509.99,-168.18 528.32,-172.11 573,-219 630.89,-279.75 655.16,-292.57 685,-371 700.47,-411.67 676.12,-531.78 703,-566 739.29,-612.2 782.07,-572.36 828,-609 839.86,-618.46 833.55,-629.33 846,-638 896.99,-673.52 931.24,-631.59 983,-666 1019.23,-690.08 1042.04,-739.57 1050.4,-760.41"/>
<polygon fill="#9a32cd" stroke="#9a32cd" points="267.71,-91.18 258.11,-95.65 268.4,-98.15 267.71,-91.18"/>
<text text-anchor="middle" x="638" y="-374" font-family="Helvetica,sans-Serif" font-size="10.00"> ready</text>
</g>
<!-- Node8&#45;&gt;Node7 -->
<g id="edge8" class="edge">
<title>Node8&#45;&gt;Node7</title>
<path fill="none" stroke="#9a32cd" stroke-dasharray="5,2" d="M268.38,-102.11C323.22,-110.1 438.69,-127.21 442,-130 461.02,-146.03 446.81,-161.91 460,-183 471.5,-201.4 490.31,-218.29 502.79,-228.36"/>
<polygon fill="#9a32cd" stroke="#9a32cd" points="268.67,-98.62 258.27,-100.64 267.66,-105.54 268.67,-98.62"/>
<text text-anchor="middle" x="381.5" y="-133" font-family="Helvetica,sans-Serif" font-size="10.00"> nonblocking</text>
</g>
<!-- Node8&#45;&gt;Node30 -->
<g id="edge46" class="edge">
<title>Node8&#45;&gt;Node30</title>
<path fill="none" stroke="#9a32cd" stroke-dasharray="5,2" d="M268.11,-91.39C307.58,-83.25 381.37,-72.2 442,-87 549.67,-113.28 775.23,-219.99 983,-390 1007.31,-409.9 1030.29,-438.56 1043.22,-455.92"/>
<polygon fill="#9a32cd" stroke="#9a32cd" points="267.2,-88.01 258.16,-93.53 268.67,-94.85 267.2,-88.01"/>
<text text-anchor="middle" x="638" y="-204" font-family="Helvetica,sans-Serif" font-size="10.00"> sodium_initialised</text>
<text text-anchor="middle" x="638" y="-193" font-family="Helvetica,sans-Serif" font-size="10.00">terminating</text>
</g>
<!-- Node9 -->
<g id="node9" class="node">
<title>Node9</title>
<g id="a_node9"><a xlink:title=" ">
<polygon fill="none" stroke="#bfbfbf" points="211,-183.5 211,-202.5 267,-202.5 267,-183.5 211,-183.5"/>
<text text-anchor="middle" x="239" y="-190.5" font-family="Helvetica,sans-Serif" font-size="10.00">SOCKET</text>
</a>
</g>
</g>
<!-- Node9&#45;&gt;Node7 -->
<g id="edge9" class="edge">
<title>Node9&#45;&gt;Node7</title>
<path fill="none" stroke="#9a32cd" stroke-dasharray="5,2" d="M277.1,-189.48C318.16,-186.68 385.94,-185.33 442,-200 464.24,-205.82 487.39,-219.21 501.62,-228.43"/>
<polygon fill="#9a32cd" stroke="#9a32cd" points="276.72,-185.99 267.01,-190.23 277.24,-192.97 276.72,-185.99"/>
<text text-anchor="middle" x="381.5" y="-203" font-family="Helvetica,sans-Serif" font-size="10.00"> sfd</text>
</g>
<!-- Node10 -->
<g id="node10" class="node">
<title>Node10</title>
<g id="a_node10"><a xlink:href="classdpp_1_1opensslcontext.html" target="_top" xlink:title=" ">
<polygon fill="none" stroke="black" points="181.5,-133.5 181.5,-152.5 296.5,-152.5 296.5,-133.5 181.5,-133.5"/>
<text text-anchor="middle" x="239" y="-140.5" font-family="Helvetica,sans-Serif" font-size="10.00">dpp::opensslcontext</text>
</a>
</g>
</g>
<!-- Node10&#45;&gt;Node7 -->
<g id="edge10" class="edge">
<title>Node10&#45;&gt;Node7</title>
<path fill="none" stroke="#9a32cd" stroke-dasharray="5,2" d="M306.99,-143.43C347.7,-145.96 399.78,-153.34 442,-173 470.11,-186.09 495.4,-213.42 507.67,-228.13"/>
<polygon fill="#9a32cd" stroke="#9a32cd" points="307.08,-139.93 296.9,-142.89 306.7,-146.92 307.08,-139.93"/>
<text text-anchor="middle" x="381.5" y="-176" font-family="Helvetica,sans-Serif" font-size="10.00"> ssl</text>
</g>
<!-- Node11 -->
<g id="node11" class="node">
<title>Node11</title>
<g id="a_node11"><a xlink:title=" ">
<polygon fill="none" stroke="#bfbfbf" points="31,-133.5 31,-152.5 73,-152.5 73,-133.5 31,-133.5"/>
<text text-anchor="middle" x="52" y="-140.5" font-family="Helvetica,sans-Serif" font-size="10.00">SSL *</text>
</a>
</g>
</g>
<!-- Node11&#45;&gt;Node10 -->
<g id="edge11" class="edge">
<title>Node11&#45;&gt;Node10</title>
<path fill="none" stroke="#9a32cd" stroke-dasharray="5,2" d="M83.33,-143C109.83,-143 149,-143 181.29,-143"/>
<polygon fill="#9a32cd" stroke="#9a32cd" points="83.15,-139.5 73.15,-143 83.15,-146.5 83.15,-139.5"/>
<text text-anchor="middle" x="139.5" y="-146" font-family="Helvetica,sans-Serif" font-size="10.00"> ssl</text>
</g>
<!-- Node12 -->
<g id="node12" class="node">
<title>Node12</title>
<g id="a_node12"><a xlink:title=" ">
<polygon fill="none" stroke="#bfbfbf" points="18.5,-0.5 18.5,-19.5 85.5,-19.5 85.5,-0.5 18.5,-0.5"/>
<text text-anchor="middle" x="52" y="-7.5" font-family="Helvetica,sans-Serif" font-size="10.00">SSL_CTX *</text>
</a>
</g>
</g>
<!-- Node12&#45;&gt;Node10 -->
<g id="edge12" class="edge">
<title>Node12&#45;&gt;Node10</title>
<path fill="none" stroke="#9a32cd" stroke-dasharray="5,2" d="M68.87,-27.07C90.9,-49.97 132.82,-90.81 175,-117 185.66,-123.62 198.29,-129.21 209.43,-133.5"/>
<polygon fill="#9a32cd" stroke="#9a32cd" points="71.36,-24.61 61.94,-19.77 66.29,-29.43 71.36,-24.61"/>
<text text-anchor="middle" x="139.5" y="-108" font-family="Helvetica,sans-Serif" font-size="10.00"> ctx</text>
</g>
<!-- Node13 -->
<g id="node13" class="node">
<title>Node13</title>
<g id="a_node13"><a xlink:title=" ">
<polygon fill="none" stroke="#bfbfbf" points="215,-702.5 215,-721.5 263,-721.5 263,-702.5 215,-702.5"/>
<text text-anchor="middle" x="239" y="-709.5" font-family="Helvetica,sans-Serif" font-size="10.00">time_t</text>
</a>
</g>
</g>
<!-- Node13&#45;&gt;Node5 -->
<g id="edge35" class="edge">
<title>Node13&#45;&gt;Node5</title>
<path fill="none" stroke="#9a32cd" stroke-dasharray="5,2" d="M253.84,-729.69C268.2,-748.91 290.3,-781.02 303,-812 317.16,-846.52 294.77,-867.47 321,-894 359.81,-933.25 395.12,-892.86 442,-922 452.73,-928.67 450.87,-935.26 460,-944 512.52,-994.29 522.01,-1019.05 591,-1042 766.4,-1100.35 848.82,-1030.14 983,-903 1021.76,-866.27 1043.83,-803.62 1051.2,-779.69"/>
<polygon fill="#9a32cd" stroke="#9a32cd" points="256.51,-727.43 247.66,-721.59 250.94,-731.67 256.51,-727.43"/>
<text text-anchor="middle" x="638" y="-1075" font-family="Helvetica,sans-Serif" font-size="10.00"> last_heartbeat</text>
<text text-anchor="middle" x="638" y="-1064" font-family="Helvetica,sans-Serif" font-size="10.00">last_heartbeat_ack</text>
</g>
<!-- Node13&#45;&gt;Node7 -->
<g id="edge13" class="edge">
<title>Node13&#45;&gt;Node7</title>
<path fill="none" stroke="#9a32cd" stroke-dasharray="5,2" d="M263.05,-696.12C277.2,-684.98 294.23,-668.77 303,-650 324.04,-604.95 290.57,-466.32 321,-427 355.84,-381.98 399.23,-422.56 442,-385 486.38,-346.03 507.05,-273.97 513.33,-247.81"/>
<polygon fill="#9a32cd" stroke="#9a32cd" points="260.61,-693.57 254.71,-702.37 264.81,-699.17 260.61,-693.57"/>
<text text-anchor="middle" x="381.5" y="-430" font-family="Helvetica,sans-Serif" font-size="10.00"> last_tick</text>
</g>
<!-- Node13&#45;&gt;Node16 -->
<g id="edge18" class="edge">
<title>Node13&#45;&gt;Node16</title>
<path fill="none" stroke="#9a32cd" stroke-dasharray="5,2" d="M273.18,-718.41C347.01,-731.98 530.53,-761.79 685,-755 699.12,-754.38 714.61,-753.14 728.13,-751.88"/>
<polygon fill="#9a32cd" stroke="#9a32cd" points="273.57,-714.93 263.1,-716.54 272.29,-721.81 273.57,-714.93"/>
<text text-anchor="middle" x="516.5" y="-757" font-family="Helvetica,sans-Serif" font-size="10.00"> last_identify</text>
</g>
<!-- Node13&#45;&gt;Node30 -->
<g id="edge48" class="edge">
<title>Node13&#45;&gt;Node30</title>
<path fill="none" stroke="#9a32cd" stroke-dasharray="5,2" d="M273.04,-709.71C317.66,-704.82 396.79,-689.58 442,-642 461.77,-621.2 439,-599.55 460,-580 546.47,-499.52 866.65,-505.4 983,-485 988.94,-483.96 995.15,-482.82 1001.32,-481.65"/>
<polygon fill="#9a32cd" stroke="#9a32cd" points="272.62,-706.23 263.01,-710.69 273.3,-713.2 272.62,-706.23"/>
<text text-anchor="middle" x="638" y="-529" font-family="Helvetica,sans-Serif" font-size="10.00"> last_heartbeat</text>
</g>
<!-- Node14 -->
<g id="node14" class="node">
<title>Node14</title>
<g id="a_node14"><a xlink:title=" ">
<polygon fill="none" stroke="#bfbfbf" points="24,-944.5 24,-963.5 80,-963.5 80,-944.5 24,-944.5"/>
<text text-anchor="middle" x="52" y="-951.5" font-family="Helvetica,sans-Serif" font-size="10.00">uint64_t</text>
</a>
</g>
</g>
<!-- Node14&#45;&gt;Node1 -->
<g id="edge52" class="edge">
<title>Node14&#45;&gt;Node1</title>
<path fill="none" stroke="#9a32cd" stroke-dasharray="5,2" d="M60.06,-973.21C79.77,-1023.11 140.44,-1153 238,-1153 238,-1153 238,-1153 1235,-1153 1342.55,-1153 1380.31,-727.45 1385.78,-657.64"/>
<polygon fill="#9a32cd" stroke="#9a32cd" points="63.22,-971.69 56.38,-963.6 56.68,-974.19 63.22,-971.69"/>
<text text-anchor="middle" x="765.5" y="-1156" font-family="Helvetica,sans-Serif" font-size="10.00"> voice_channel_id</text>
</g>
<!-- Node14&#45;&gt;Node5 -->
<g id="edge37" class="edge">
<title>Node14&#45;&gt;Node5</title>
<path fill="none" stroke="#9a32cd" stroke-dasharray="5,2" d="M63.39,-972.22C88.03,-1012.78 154.27,-1107 238,-1107 238,-1107 238,-1107 766.5,-1107 879.66,-1107 912.15,-1061.24 983,-973 1033.02,-910.7 1049.03,-810.7 1052.93,-779.57"/>
<polygon fill="#9a32cd" stroke="#9a32cd" points="66.38,-970.4 58.28,-963.57 60.35,-973.96 66.38,-970.4"/>
<text text-anchor="middle" x="516.5" y="-1110" font-family="Helvetica,sans-Serif" font-size="10.00"> last_seq</text>
</g>
<!-- Node14&#45;&gt;Node7 -->
<g id="edge14" class="edge">
<title>Node14&#45;&gt;Node7</title>
<path fill="none" stroke="#9a32cd" stroke-dasharray="5,2" d="M54.84,-934.21C63.89,-840.04 106.07,-437.53 175,-335 218.33,-270.55 246.66,-261.46 321,-239 371.59,-223.72 433.01,-226.75 473.12,-231.41"/>
<polygon fill="#9a32cd" stroke="#9a32cd" points="51.34,-934.06 53.88,-944.34 58.31,-934.72 51.34,-934.06"/>
<text text-anchor="middle" x="239" y="-349" font-family="Helvetica,sans-Serif" font-size="10.00"> bytes_in</text>
<text text-anchor="middle" x="239" y="-338" font-family="Helvetica,sans-Serif" font-size="10.00">bytes_out</text>
</g>
<!-- Node21 -->
<g id="node21" class="node">
<title>Node21</title>
<g id="a_node21"><a xlink:href="classdpp_1_1managed.html" target="_top" xlink:title="The managed class is the base class for various types that can be stored in a cache that are identifi...">
<polygon fill="none" stroke="black" points="196,-1009.5 196,-1028.5 282,-1028.5 282,-1009.5 196,-1009.5"/>
<text text-anchor="middle" x="239" y="-1016.5" font-family="Helvetica,sans-Serif" font-size="10.00">dpp::managed</text>
</a>
</g>
</g>
<!-- Node14&#45;&gt;Node21 -->
<g id="edge25" class="edge">
<title>Node14&#45;&gt;Node21</title>
<path fill="none" stroke="#9a32cd" stroke-dasharray="5,2" d="M89.87,-966.96C125.59,-979.5 178.91,-998.24 210.89,-1009.48"/>
<polygon fill="#9a32cd" stroke="#9a32cd" points="90.89,-963.6 80.3,-963.59 88.57,-970.21 90.89,-963.6"/>
<text text-anchor="middle" x="139.5" y="-993" font-family="Helvetica,sans-Serif" font-size="10.00"> id</text>
</g>
<!-- Node23 -->
<g id="node23" class="node">
<title>Node23</title>
<g id="a_node23"><a xlink:href="structdpp_1_1utility_1_1iconhash.html" target="_top" xlink:title="Store a 128 bit icon hash (profile picture, server icon etc) as a 128 bit binary value made of two ui...">
<polygon fill="none" stroke="black" points="180,-881.5 180,-900.5 298,-900.5 298,-881.5 180,-881.5"/>
<text text-anchor="middle" x="239" y="-888.5" font-family="Helvetica,sans-Serif" font-size="10.00">dpp::utility::iconhash</text>
</a>
</g>
</g>
<!-- Node14&#45;&gt;Node23 -->
<g id="edge29" class="edge">
<title>Node14&#45;&gt;Node23</title>
<path fill="none" stroke="#9a32cd" stroke-dasharray="5,2" d="M89.79,-941.47C125.17,-929.42 177.89,-911.47 209.98,-900.54"/>
<polygon fill="#9a32cd" stroke="#9a32cd" points="88.64,-938.17 80.3,-944.7 90.89,-944.79 88.64,-938.17"/>
<text text-anchor="middle" x="139.5" y="-943" font-family="Helvetica,sans-Serif" font-size="10.00"> first</text>
<text text-anchor="middle" x="139.5" y="-932" font-family="Helvetica,sans-Serif" font-size="10.00">second</text>
</g>
<!-- Node14&#45;&gt;Node30 -->
<g id="edge51" class="edge">
<title>Node14&#45;&gt;Node30</title>
<path fill="none" stroke="#9a32cd" stroke-dasharray="5,2" d="M54.3,-934.5C62.38,-814.2 105.83,-176.83 122,-139 149.1,-75.6 169.05,-36 238,-36 238,-36 238,-36 766.5,-36 972.22,-36 1039.26,-378.78 1051.72,-455.77"/>
<polygon fill="#9a32cd" stroke="#9a32cd" points="50.81,-934.28 53.63,-944.49 57.79,-934.75 50.81,-934.28"/>
<text text-anchor="middle" x="516.5" y="-50" font-family="Helvetica,sans-Serif" font-size="10.00"> channel_id</text>
<text text-anchor="middle" x="516.5" y="-39" font-family="Helvetica,sans-Serif" font-size="10.00">server_id</text>
</g>
<!-- Node15 -->
<g id="node15" class="node">
<title>Node15</title>
<g id="a_node15"><a xlink:title=" ">
<polygon fill="none" stroke="#bfbfbf" points="206.5,-366.5 206.5,-385.5 271.5,-385.5 271.5,-366.5 206.5,-366.5"/>
<text text-anchor="middle" x="239" y="-373.5" font-family="Helvetica,sans-Serif" font-size="10.00">function&lt;</text>
</a>
</g>
</g>
<!-- Node15&#45;&gt;Node7 -->
<g id="edge15" class="edge">
<title>Node15&#45;&gt;Node7</title>
<path fill="none" stroke="#9a32cd" stroke-dasharray="5,2" d="M247.22,-356.84C258.47,-329.91 282.94,-281.63 321,-259 345.89,-244.2 423.9,-239.8 473.23,-238.51"/>
<polygon fill="#9a32cd" stroke="#9a32cd" points="243.89,-355.74 243.43,-366.33 250.39,-358.34 243.89,-355.74"/>
<text text-anchor="middle" x="381.5" y="-295" font-family="Helvetica,sans-Serif" font-size="10.00"> custom_readable_fd</text>
<text text-anchor="middle" x="381.5" y="-284" font-family="Helvetica,sans-Serif" font-size="10.00">custom_readable_ready</text>
<text text-anchor="middle" x="381.5" y="-273" font-family="Helvetica,sans-Serif" font-size="10.00">custom_writeable_fd</text>
<text text-anchor="middle" x="381.5" y="-262" font-family="Helvetica,sans-Serif" font-size="10.00">custom_writeable_ready</text>
</g>
<!-- Node19 -->
<g id="node19" class="node">
<title>Node19</title>
<g id="a_node19"><a xlink:href="classdpp_1_1dispatcher.html" target="_top" xlink:title="The dispatcher class contains a set of std::functions representing hooked events that the user code i...">
<polygon fill="none" stroke="black" points="470.5,-589.5 470.5,-608.5 562.5,-608.5 562.5,-589.5 470.5,-589.5"/>
<text text-anchor="middle" x="516.5" y="-596.5" font-family="Helvetica,sans-Serif" font-size="10.00">dpp::dispatcher</text>
</a>
</g>
</g>
<!-- Node15&#45;&gt;Node19 -->
<g id="edge22" class="edge">
<title>Node15&#45;&gt;Node19</title>
<path fill="none" stroke="#9a32cd" stroke-dasharray="5,2" d="M259.28,-392.36C275.37,-405.74 299.12,-424.85 321,-440 372.63,-475.76 394.09,-472.38 442,-513 470.31,-537.01 496.88,-572.44 508.85,-589.34"/>
<polygon fill="#9a32cd" stroke="#9a32cd" points="261.1,-389.32 251.19,-385.58 256.61,-394.69 261.1,-389.32"/>
<text text-anchor="start" x="325.5" y="-659" font-family="Helvetica,sans-Serif" font-size="10.00"> application_command</text>
<text text-anchor="middle" x="381.5" y="-648" font-family="Helvetica,sans-Serif" font-size="10.00">_create</text>
<text text-anchor="start" x="325.5" y="-637" font-family="Helvetica,sans-Serif" font-size="10.00">application_command</text>
<text text-anchor="middle" x="381.5" y="-626" font-family="Helvetica,sans-Serif" font-size="10.00">_delete</text>
<text text-anchor="start" x="325.5" y="-615" font-family="Helvetica,sans-Serif" font-size="10.00">application_command</text>
<text text-anchor="middle" x="381.5" y="-604" font-family="Helvetica,sans-Serif" font-size="10.00">_update</text>
<text text-anchor="middle" x="381.5" y="-593" font-family="Helvetica,sans-Serif" font-size="10.00">button_click</text>
<text text-anchor="middle" x="381.5" y="-582" font-family="Helvetica,sans-Serif" font-size="10.00">channel_create</text>
<text text-anchor="middle" x="381.5" y="-571" font-family="Helvetica,sans-Serif" font-size="10.00">channel_delete</text>
<text text-anchor="middle" x="381.5" y="-560" font-family="Helvetica,sans-Serif" font-size="10.00">channel_pins_update</text>
<text text-anchor="middle" x="381.5" y="-549" font-family="Helvetica,sans-Serif" font-size="10.00">channel_update</text>
<text text-anchor="middle" x="381.5" y="-538" font-family="Helvetica,sans-Serif" font-size="10.00">guild_ban_add</text>
<text text-anchor="middle" x="381.5" y="-527" font-family="Helvetica,sans-Serif" font-size="10.00">guild_ban_remove</text>
<text text-anchor="middle" x="381.5" y="-516" font-family="Helvetica,sans-Serif" font-size="10.00">...</text>
</g>
<!-- Node16&#45;&gt;Node5 -->
<g id="edge16" class="edge">
<title>Node16&#45;&gt;Node5</title>
<path fill="none" stroke="#9a32cd" stroke-dasharray="5,2" d="M812.64,-749.89C856.52,-751.89 924.34,-755.53 983,-761 988.81,-761.54 994.89,-762.19 1000.93,-762.88"/>
<polygon fill="#9a32cd" stroke="#9a32cd" points="812.71,-746.39 802.56,-749.44 812.4,-753.38 812.71,-746.39"/>
<text text-anchor="middle" x="914.5" y="-764" font-family="Helvetica,sans-Serif" font-size="10.00"> creator</text>
</g>
<!-- Node16&#45;&gt;Node30 -->
<g id="edge45" class="edge">
<title>Node16&#45;&gt;Node30</title>
<path fill="none" stroke="#9a32cd" stroke-dasharray="5,2" d="M812.62,-735.98C860.93,-721.22 936.17,-691.82 983,-642 1026.59,-595.63 1045.23,-518.69 1051.43,-486.21"/>
<polygon fill="#9a32cd" stroke="#9a32cd" points="811.33,-732.71 802.74,-738.91 813.32,-739.42 811.33,-732.71"/>
<text text-anchor="middle" x="914.5" y="-727" font-family="Helvetica,sans-Serif" font-size="10.00"> creator</text>
</g>
<!-- Node17 -->
<g id="node17" class="node">
<title>Node17</title>
<g id="a_node17"><a xlink:title=" ">
<polygon fill="none" stroke="#bfbfbf" points="211,-821.5 211,-840.5 267,-840.5 267,-821.5 211,-821.5"/>
<text text-anchor="middle" x="239" y="-828.5" font-family="Helvetica,sans-Serif" font-size="10.00">uint32_t</text>
</a>
</g>
</g>
<!-- Node17&#45;&gt;Node5 -->
<g id="edge34" class="edge">
<title>Node17&#45;&gt;Node5</title>
<path fill="none" stroke="#9a32cd" stroke-dasharray="5,2" d="M272.66,-845.27C283.99,-851.81 295.67,-860.68 303,-872 331.12,-915.43 281.69,-953.37 321,-987 361.86,-1021.96 388.35,-990.73 442,-987 455.6,-986.05 675.45,-962.73 685,-953 731.43,-905.73 655.64,-851.34 703,-805 723.84,-784.6 908.03,-775.18 1000.92,-771.7"/>
<polygon fill="#9a32cd" stroke="#9a32cd" points="274.22,-842.13 263.75,-840.52 270.92,-848.31 274.22,-842.13"/>
<text text-anchor="middle" x="638" y="-1027" font-family="Helvetica,sans-Serif" font-size="10.00"> heartbeat_interval</text>
<text text-anchor="middle" x="638" y="-1016" font-family="Helvetica,sans-Serif" font-size="10.00">intents</text>
<text text-anchor="middle" x="638" y="-1005" font-family="Helvetica,sans-Serif" font-size="10.00">max_shards</text>
<text text-anchor="middle" x="638" y="-994" font-family="Helvetica,sans-Serif" font-size="10.00">reconnects</text>
<text text-anchor="middle" x="638" y="-983" font-family="Helvetica,sans-Serif" font-size="10.00">resumes</text>
<text text-anchor="middle" x="638" y="-972" font-family="Helvetica,sans-Serif" font-size="10.00">shard_id</text>
</g>
<!-- Node17&#45;&gt;Node16 -->
<g id="edge19" class="edge">
<title>Node17&#45;&gt;Node16</title>
<path fill="none" stroke="#9a32cd" stroke-dasharray="5,2" d="M277.14,-827.35C353.83,-819.47 535.09,-799.13 685,-769 700.54,-765.88 717.54,-761.51 731.83,-757.57"/>
<polygon fill="#9a32cd" stroke="#9a32cd" points="276.62,-823.88 267.03,-828.38 277.33,-830.85 276.62,-823.88"/>
<text text-anchor="middle" x="516.5" y="-841" font-family="Helvetica,sans-Serif" font-size="10.00"> cluster_id</text>
<text text-anchor="middle" x="516.5" y="-830" font-family="Helvetica,sans-Serif" font-size="10.00">intents</text>
<text text-anchor="middle" x="516.5" y="-819" font-family="Helvetica,sans-Serif" font-size="10.00">maxclusters</text>
<text text-anchor="middle" x="516.5" y="-808" font-family="Helvetica,sans-Serif" font-size="10.00">numshards</text>
</g>
<!-- Node17&#45;&gt;Node20 -->
<g id="edge30" class="edge">
<title>Node17&#45;&gt;Node20</title>
<path fill="none" stroke="#9a32cd" stroke-dasharray="5,2" d="M277.2,-838.56C332.27,-849.76 434.42,-870.52 485.21,-880.84"/>
<polygon fill="#9a32cd" stroke="#9a32cd" points="277.67,-835.08 267.17,-836.52 276.27,-841.94 277.67,-835.08"/>
<text text-anchor="middle" x="381.5" y="-874" font-family="Helvetica,sans-Serif" font-size="10.00"> flags</text>
</g>
<!-- Node17&#45;&gt;Node30 -->
<g id="edge47" class="edge">
<title>Node17&#45;&gt;Node30</title>
<path fill="none" stroke="#9a32cd" stroke-dasharray="5,2" d="M253.41,-813.46C268.37,-794.76 294.04,-765.12 321,-745 421.52,-669.99 499.47,-719.6 573,-618 604.62,-574.31 557.72,-540.44 591,-498 624.21,-455.65 650.21,-462.42 703,-452 807.33,-431.41 932.25,-447.65 1001.4,-460.13"/>
<polygon fill="#9a32cd" stroke="#9a32cd" points="250.57,-811.42 247.15,-821.45 256.08,-815.74 250.57,-811.42"/>
<text text-anchor="middle" x="638" y="-501" font-family="Helvetica,sans-Serif" font-size="10.00"> heartbeat_interval</text>
</g>
<!-- Node18 -->
<g id="node18" class="node">
<title>Node18</title>
<g id="a_node18"><a xlink:title=" ">
<polygon fill="none" stroke="#bfbfbf" points="491.5,-915.5 491.5,-934.5 541.5,-934.5 541.5,-915.5 491.5,-915.5"/>
<text text-anchor="middle" x="516.5" y="-922.5" font-family="Helvetica,sans-Serif" font-size="10.00">double</text>
</a>
</g>
</g>
<!-- Node18&#45;&gt;Node5 -->
<g id="edge40" class="edge">
<title>Node18&#45;&gt;Node5</title>
<path fill="none" stroke="#9a32cd" stroke-dasharray="5,2" d="M551.8,-923.23C653.13,-917.78 946.31,-900.24 983,-878 1021.57,-854.62 1043.34,-801.38 1050.92,-779.58"/>
<polygon fill="#9a32cd" stroke="#9a32cd" points="551.59,-919.74 541.79,-923.77 551.96,-926.73 551.59,-919.74"/>
<text text-anchor="middle" x="765.5" y="-916" font-family="Helvetica,sans-Serif" font-size="10.00"> websocket_ping</text>
</g>
<!-- Node18&#45;&gt;Node16 -->
<g id="edge20" class="edge">
<title>Node18&#45;&gt;Node16</title>
<path fill="none" stroke="#9a32cd" stroke-dasharray="5,2" d="M551.33,-916.88C558.87,-914.16 566.54,-910.6 573,-906 583.58,-898.48 580.1,-890.04 591,-883 627.13,-859.67 655.17,-890.99 685,-860 712.68,-831.24 677.27,-802.53 703,-772 709.5,-764.29 718.8,-759.04 728.2,-755.48"/>
<polygon fill="#9a32cd" stroke="#9a32cd" points="550.06,-913.62 541.6,-920 552.19,-920.28 550.06,-913.62"/>
<text text-anchor="middle" x="638" y="-886" font-family="Helvetica,sans-Serif" font-size="10.00"> rest_ping</text>
</g>
<!-- Node19&#45;&gt;Node16 -->
<g id="edge21" class="edge">
<title>Node19&#45;&gt;Node16</title>
<path fill="none" stroke="#9a32cd" stroke-dasharray="5,2" d="M526.65,-617.82C538.43,-639.99 560.98,-676.28 591,-696 626.95,-719.61 643.85,-706.5 685,-719 703.84,-724.72 724.74,-732.4 740.38,-738.42"/>
<polygon fill="#9a32cd" stroke="#9a32cd" points="529.68,-616.05 522.02,-608.74 523.45,-619.24 529.68,-616.05"/>
<text text-anchor="middle" x="638" y="-722" font-family="Helvetica,sans-Serif" font-size="10.00"> dispatch</text>
</g>
<!-- Node20&#45;&gt;Node16 -->
<g id="edge23" class="edge">
<title>Node20&#45;&gt;Node16</title>
<path fill="none" stroke="#9a32cd" stroke-dasharray="5,2" d="M552.57,-873.44C559.5,-870.32 566.6,-866.79 573,-863 581.72,-857.84 581.88,-853.41 591,-849 629.72,-830.27 653.37,-855.14 685,-826 703.6,-808.86 685.57,-790.33 703,-772 709.87,-764.77 719.17,-759.69 728.46,-756.12"/>
<polygon fill="#9a32cd" stroke="#9a32cd" points="551.1,-870.26 543.31,-877.43 553.88,-876.69 551.1,-870.26"/>
<text text-anchor="middle" x="638" y="-852" font-family="Helvetica,sans-Serif" font-size="10.00"> me</text>
</g>
<!-- Node21&#45;&gt;Node20 -->
<g id="edge24" class="edge">
<title>Node21&#45;&gt;Node20</title>
<path fill="none" stroke="midnightblue" d="M292.17,-1027.27C337.6,-1031.31 402.24,-1028.94 442,-992 470.61,-965.42 434.14,-935.26 460,-906 466.54,-898.6 476.09,-894.08 485.44,-891.32"/>
<polygon fill="midnightblue" stroke="midnightblue" points="292.52,-1023.78 282.21,-1026.25 291.81,-1030.75 292.52,-1023.78"/>
</g>
<!-- Node22 -->
<g id="node22" class="node">
<title>Node22</title>
<g id="a_node22"><a xlink:title=" ">
<polygon fill="none" stroke="#bfbfbf" points="211,-967.5 211,-986.5 267,-986.5 267,-967.5 211,-967.5"/>
<text text-anchor="middle" x="239" y="-974.5" font-family="Helvetica,sans-Serif" font-size="10.00">uint16_t</text>
</a>
</g>
</g>
<!-- Node22&#45;&gt;Node20 -->
<g id="edge27" class="edge">
<title>Node22&#45;&gt;Node20</title>
<path fill="none" stroke="#9a32cd" stroke-dasharray="5,2" d="M277.25,-979.43C320.88,-980.34 393.39,-975.63 442,-940 455.79,-929.89 447,-917.1 460,-906 467.2,-899.85 476.5,-895.66 485.41,-892.82"/>
<polygon fill="#9a32cd" stroke="#9a32cd" points="277.18,-975.92 267.07,-979.1 276.95,-982.92 277.18,-975.92"/>
<text text-anchor="middle" x="381.5" y="-980" font-family="Helvetica,sans-Serif" font-size="10.00"> discriminator</text>
</g>
<!-- Node23&#45;&gt;Node20 -->
<g id="edge28" class="edge">
<title>Node23&#45;&gt;Node20</title>
<path fill="none" stroke="#9a32cd" stroke-dasharray="5,2" d="M308.41,-890.01C365.06,-889.18 442.89,-888.05 485.17,-887.44"/>
<polygon fill="#9a32cd" stroke="#9a32cd" points="308.04,-886.51 298.09,-890.16 308.14,-893.51 308.04,-886.51"/>
<text text-anchor="middle" x="381.5" y="-892" font-family="Helvetica,sans-Serif" font-size="10.00"> avatar</text>
</g>
<!-- Node24 -->
<g id="node24" class="node">
<title>Node24</title>
<g id="a_node24"><a xlink:title=" ">
<polygon fill="none" stroke="#bfbfbf" points="214,-929.5 214,-948.5 264,-948.5 264,-929.5 214,-929.5"/>
<text text-anchor="middle" x="239" y="-936.5" font-family="Helvetica,sans-Serif" font-size="10.00">uint8_t</text>
</a>
</g>
</g>
<!-- Node24&#45;&gt;Node20 -->
<g id="edge31" class="edge">
<title>Node24&#45;&gt;Node20</title>
<path fill="none" stroke="#9a32cd" stroke-dasharray="5,2" d="M274.1,-933.69C314.35,-927.28 383.23,-915.88 442,-904 456.25,-901.12 471.96,-897.54 485.19,-894.41"/>
<polygon fill="#9a32cd" stroke="#9a32cd" points="273.35,-930.26 264.02,-935.28 274.45,-937.17 273.35,-930.26"/>
<text text-anchor="middle" x="381.5" y="-928" font-family="Helvetica,sans-Serif" font-size="10.00"> refcount</text>
</g>
<!-- Node25 -->
<g id="node25" class="node">
<title>Node25</title>
<g id="a_node25"><a xlink:href="structdpp_1_1cache__policy__t.html" target="_top" xlink:title="Represents the caching policy of the cluster.">
<polygon fill="none" stroke="black" points="460,-1048.5 460,-1067.5 573,-1067.5 573,-1048.5 460,-1048.5"/>
<text text-anchor="middle" x="516.5" y="-1055.5" font-family="Helvetica,sans-Serif" font-size="10.00">dpp::cache_policy_t</text>
</a>
</g>
</g>
<!-- Node25&#45;&gt;Node16 -->
<g id="edge32" class="edge">
<title>Node25&#45;&gt;Node16</title>
<path fill="none" stroke="#9a32cd" stroke-dasharray="5,2" d="M525.36,-1039.13C536.63,-1014.05 559.55,-969.69 591,-942 625.62,-911.52 656.64,-934.38 685,-898 710.88,-864.8 682.55,-841.8 703,-805 714.24,-784.77 735.25,-767.68 749.55,-757.63"/>
<polygon fill="#9a32cd" stroke="#9a32cd" points="522.15,-1037.73 521.38,-1048.3 528.57,-1040.52 522.15,-1037.73"/>
<text text-anchor="middle" x="638" y="-945" font-family="Helvetica,sans-Serif" font-size="10.00"> cache_policy</text>
</g>
<!-- Node26 -->
<g id="node26" class="node">
<title>Node26</title>
<g id="a_node26"><a xlink:title=" ">
<polygon fill="none" stroke="#bfbfbf" points="175,-1049.5 175,-1068.5 303,-1068.5 303,-1049.5 175,-1049.5"/>
<text text-anchor="middle" x="239" y="-1056.5" font-family="Helvetica,sans-Serif" font-size="10.00">cache_policy_setting_t</text>
</a>
</g>
</g>
<!-- Node26&#45;&gt;Node25 -->
<g id="edge33" class="edge">
<title>Node26&#45;&gt;Node25</title>
<path fill="none" stroke="#9a32cd" stroke-dasharray="5,2" d="M313.39,-1058.73C359.28,-1058.57 417.45,-1058.36 459.59,-1058.2"/>
<polygon fill="#9a32cd" stroke="#9a32cd" points="313.19,-1055.23 303.21,-1058.77 313.22,-1062.23 313.19,-1055.23"/>
<text text-anchor="middle" x="381.5" y="-1083" font-family="Helvetica,sans-Serif" font-size="10.00"> emoji_policy</text>
<text text-anchor="middle" x="381.5" y="-1072" font-family="Helvetica,sans-Serif" font-size="10.00">role_policy</text>
<text text-anchor="middle" x="381.5" y="-1061" font-family="Helvetica,sans-Serif" font-size="10.00">user_policy</text>
</g>
<!-- Node27 -->
<g id="node27" class="node">
<title>Node27</title>
<g id="a_node27"><a xlink:title=" ">
<polygon fill="none" stroke="#bfbfbf" points="709,-537.5 709,-556.5 822,-556.5 822,-537.5 709,-537.5"/>
<text text-anchor="middle" x="765.5" y="-544.5" font-family="Helvetica,sans-Serif" font-size="10.00">native_handle_type</text>
</a>
</g>
</g>
<!-- Node27&#45;&gt;Node5 -->
<g id="edge36" class="edge">
<title>Node27&#45;&gt;Node5</title>
<path fill="none" stroke="#9a32cd" stroke-dasharray="5,2" d="M803.32,-560.15C811.56,-563.43 820.18,-567.12 828,-571 836.4,-575.16 837.49,-578.07 846,-582 904.18,-608.89 934.55,-585.05 983,-627 1026.37,-664.56 1046.03,-734.87 1051.96,-760.42"/>
<polygon fill="#9a32cd" stroke="#9a32cd" points="804.48,-556.84 793.89,-556.5 801.96,-563.37 804.48,-556.84"/>
<text text-anchor="middle" x="914.5" y="-630" font-family="Helvetica,sans-Serif" font-size="10.00"> thread_id</text>
</g>
<!-- Node27&#45;&gt;Node30 -->
<g id="edge49" class="edge">
<title>Node27&#45;&gt;Node30</title>
<path fill="none" stroke="#9a32cd" stroke-dasharray="5,2" d="M832.07,-546.89C876.05,-544.9 934.56,-538.46 983,-520 1003.43,-512.21 1023.65,-497.37 1037.26,-486.05"/>
<polygon fill="#9a32cd" stroke="#9a32cd" points="831.93,-543.4 822.07,-547.28 832.2,-550.39 831.93,-543.4"/>
<text text-anchor="middle" x="914.5" y="-548" font-family="Helvetica,sans-Serif" font-size="10.00"> thread_id</text>
</g>
<!-- Node28 -->
<g id="node28" class="node">
<title>Node28</title>
<g id="a_node28"><a xlink:title=" ">
<polygon fill="none" stroke="#bfbfbf" points="731,-814.5 731,-833.5 800,-833.5 800,-814.5 731,-814.5"/>
<text text-anchor="middle" x="765.5" y="-821.5" font-family="Helvetica,sans-Serif" font-size="10.00">std::mutex</text>
</a>
</g>
</g>
<!-- Node28&#45;&gt;Node5 -->
<g id="edge39" class="edge">
<title>Node28&#45;&gt;Node5</title>
<path fill="none" stroke="#9a32cd" stroke-dasharray="5,2" d="M810.17,-822.85C854.38,-820.84 924.39,-815.28 983,-800 1001.52,-795.17 1021.5,-786.38 1035.53,-779.55"/>
<polygon fill="#9a32cd" stroke="#9a32cd" points="809.9,-819.36 800.05,-823.27 810.19,-826.36 809.9,-819.36"/>
<text text-anchor="middle" x="914.5" y="-823" font-family="Helvetica,sans-Serif" font-size="10.00"> voice_mutex</text>
</g>
<!-- Node29 -->
<g id="node29" class="node">
<title>Node29</title>
<g id="a_node29"><a xlink:title=" ">
<polygon fill="none" stroke="#bfbfbf" points="715,-852.5 715,-871.5 816,-871.5 816,-852.5 715,-852.5"/>
<text text-anchor="middle" x="765.5" y="-859.5" font-family="Helvetica,sans-Serif" font-size="10.00">unordered_map&lt;</text>
</a>
</g>
</g>
<!-- Node29&#45;&gt;Node5 -->
<g id="edge42" class="edge">
<title>Node29&#45;&gt;Node5</title>
<path fill="none" stroke="#9a32cd" stroke-dasharray="5,2" d="M826.31,-864.15C871.34,-863.54 933.55,-857.84 983,-835 1010.61,-822.25 1034.85,-794.77 1046.55,-779.96"/>
<polygon fill="#9a32cd" stroke="#9a32cd" points="826.1,-860.65 816.12,-864.2 826.14,-867.65 826.1,-860.65"/>
<text text-anchor="middle" x="914.5" y="-866" font-family="Helvetica,sans-Serif" font-size="10.00"> connecting_voice_channels</text>
</g>
<!-- Node30&#45;&gt;Node1 -->
<g id="edge43" class="edge">
<title>Node30&#45;&gt;Node1</title>
<path fill="none" stroke="#9a32cd" stroke-dasharray="5,2" d="M1093.23,-490.94C1164.25,-528.97 1316.6,-610.56 1368.64,-638.44"/>
<polygon fill="#9a32cd" stroke="#9a32cd" points="1094.65,-487.73 1084.18,-486.09 1091.34,-493.9 1094.65,-487.73"/>
<text text-anchor="middle" x="1234" y="-602" font-family="Helvetica,sans-Serif" font-size="10.00"> voice_client</text>
</g>
</g>
</svg>
        <g id="navigator" transform="translate(0 0)" fill="#404254">
                <rect fill="#f2f5e9" fill-opacity="0.5" stroke="#606060" stroke-width=".5" x="0" y="0" width="60" height="60"/>
                <use id="zoomplus" xlink:href="#zoomPlus" x="17" y="9" onmousedown="handleZoom(evt,'in')"/>
                <use id="zoomminus" xlink:href="#zoomMin" x="42" y="9" onmousedown="handleZoom(evt,'out')"/>
                <use id="reset" xlink:href="#resetDef" x="30" y="36" onmousedown="handleReset()"/>
                <g id="arrowUp" xlink:href="#dirArrow" transform="translate(30 24)" onmousedown="handlePan(0,-1)">
                  <use xlink:href="#rim" fill="#404040">
                        <set attributeName="fill" to="#808080" begin="arrowUp.mouseover" end="arrowUp.mouseout"/>
                  </use>
                  <path fill="none" stroke="white" stroke-width="1.5" d="M0,-3.0v7 M-2.5,-0.5L0,-3.0L2.5,-0.5"/>
                </g>
                <g id="arrowRight" xlink:href="#dirArrow" transform="rotate(90) translate(36 -43)" onmousedown="handlePan(1,0)">
                  <use xlink:href="#rim" fill="#404040">
                        <set attributeName="fill" to="#808080" begin="arrowRight.mouseover" end="arrowRight.mouseout"/>
                  </use>
                  <path fill="none" stroke="white" stroke-width="1.5" d="M0,-3.0v7 M-2.5,-0.5L0,-3.0L2.5,-0.5"/>
                </g>
                <g id="arrowDown" xlink:href="#dirArrow" transform="rotate(180) translate(-30 -48)" onmousedown="handlePan(0,1)">
                  <use xlink:href="#rim" fill="#404040">
                        <set attributeName="fill" to="#808080" begin="arrowDown.mouseover" end="arrowDown.mouseout"/>
                  </use>
                  <path fill="none" stroke="white" stroke-width="1.5" d="M0,-3.0v7 M-2.5,-0.5L0,-3.0L2.5,-0.5"/>
                </g>
                <g id="arrowLeft" xlink:href="#dirArrow" transform="rotate(270) translate(-36 17)" onmousedown="handlePan(-1,0)">
                  <use xlink:href="#rim" fill="#404040">
                        <set attributeName="fill" to="#808080" begin="arrowLeft.mouseover" end="arrowLeft.mouseout"/>
                  </use>
                  <path fill="none" stroke="white" stroke-width="1.5" d="M0,-3.0v7 M-2.5,-0.5L0,-3.0L2.5,-0.5"/>
                </g>
        </g>
        <svg viewBox="0 0 15 15" width="100%" height="30px" preserveAspectRatio="xMaxYMin meet">
         <g id="arrow_out" transform="scale(0.3 0.3)">
          <a xlink:href="structdpp_1_1voice__ready__t__coll__graph_org.svg" target="_base">
           <rect id="button" ry="5" rx="5" y="6" x="6" height="38" width="38"
                fill="#f2f5e9" fill-opacity="0.5" stroke="#606060" stroke-width="1.0"/>
           <path id="arrow"
             d="M 11.500037,31.436501 C 11.940474,20.09759 22.043105,11.32322 32.158766,21.979434 L 37.068811,17.246167 C 37.068811,17.246167 37.088388,32 37.088388,32 L 22.160133,31.978069 C 22.160133,31.978069 26.997745,27.140456 26.997745,27.140456 C 18.528582,18.264221 13.291696,25.230495 11.500037,31.436501 z"
             style="fill:#404040;"/>
          </a>
         </g>
        </svg>
</svg>
