<?xml version="1.0" encoding="UTF-8" standalone="no"?>
<!DOCTYPE svg PUBLIC "-//W3C//DTD SVG 1.1//EN"
 "http://www.w3.org/Graphics/SVG/1.1/DTD/svg11.dtd">
<!-- Generated by graphviz version 2.43.0 (0)
 -->
<!-- Title: dpp::integration Pages: 1 -->
<!--zoomable 694 -->
<svg id="main" version="1.1" xmlns="http://www.w3.org/2000/svg" xmlns:xlink="http://www.w3.org/1999/xlink" xml:space="preserve" onload="init(evt)">
<style type="text/css"><![CDATA[
.edge:hover path { stroke: red; }
.edge:hover polygon { stroke: red; fill: red; }
]]></style>
<script type="text/javascript"><![CDATA[
var edges = document.getElementsByTagName('g');
if (edges && edges.length) {
  for (var i=0;i<edges.length;i++) {
    if (edges[i].id.substr(0,4)=='edge') {
      edges[i].setAttribute('class','edge');
    }
  }
}
]]></script>
        <defs>
                <circle id="rim" cx="0" cy="0" r="7"/>
                <circle id="rim2" cx="0" cy="0" r="3.5"/>
                <g id="zoomPlus">
                        <use xlink:href="#rim" fill="#404040">
                                <set attributeName="fill" to="#808080" begin="zoomplus.mouseover" end="zoomplus.mouseout"/>
                        </use>
                        <path d="M-4,0h8M0,-4v8" fill="none" stroke="white" stroke-width="1.5" pointer-events="none"/>
                </g>
                <g id="zoomMin">
                        <use xlink:href="#rim" fill="#404040">
                                <set attributeName="fill" to="#808080" begin="zoomminus.mouseover" end="zoomminus.mouseout"/>
                        </use>
                        <path d="M-4,0h8" fill="none" stroke="white" stroke-width="1.5" pointer-events="none"/>
                </g>
                <g id="dirArrow">
                        <path fill="none" stroke="white" stroke-width="1.5" d="M0,-3.0v7 M-2.5,-0.5L0,-3.0L2.5,-0.5"/>
                </g>
               <g id="resetDef">
                       <use xlink:href="#rim2" fill="#404040">
                               <set attributeName="fill" to="#808080" begin="reset.mouseover" end="reset.mouseout"/>
                       </use>
               </g>
        </defs>

<script type="text/javascript">
var viewWidth = 1224;
var viewHeight = 694;
var sectionId = 'dynsection-1';
</script>
<script xlink:href="svgpan.js"/>
<svg id="graph" class="graph">
<g id="viewport">
<title>dpp::integration</title>
<!-- Node1 -->
<g id="node1" class="node">
<title>Node1</title>
<g id="a_node1"><a xlink:title="Represents an integration on a guild, e.g. a connection to twitch.">
<polygon fill="#bfbfbf" stroke="black" points="1122,-234.5 1122,-253.5 1216,-253.5 1216,-234.5 1122,-234.5"/>
<text text-anchor="middle" x="1169" y="-241.5" font-family="Helvetica,sans-Serif" font-size="10.00">dpp::integration</text>
</a>
</g>
</g>
<!-- Node2 -->
<g id="node2" class="node">
<title>Node2</title>
<g id="a_node2"><a xlink:href="classdpp_1_1managed.html" target="_top" xlink:title="The managed class is the base class for various types that can be stored in a cache that are identifi...">
<polygon fill="none" stroke="black" points="392,-383.5 392,-402.5 478,-402.5 478,-383.5 392,-383.5"/>
<text text-anchor="middle" x="435" y="-390.5" font-family="Helvetica,sans-Serif" font-size="10.00">dpp::managed</text>
</a>
</g>
</g>
<!-- Node2&#45;&gt;Node1 -->
<g id="edge1" class="edge">
<title>Node2&#45;&gt;Node1</title>
<path fill="none" stroke="midnightblue" d="M444.51,-411.7C456.08,-434.58 479.17,-472.22 512,-488 571.76,-516.72 926.2,-464.35 1033,-411 1104.04,-375.51 1150.32,-283.47 1163.87,-253.55"/>
<polygon fill="midnightblue" stroke="midnightblue" points="447.63,-410.12 440.13,-402.63 441.32,-413.16 447.63,-410.12"/>
</g>
<!-- Node12 -->
<g id="node12" class="node">
<title>Node12</title>
<g id="a_node12"><a xlink:href="classdpp_1_1user.html" target="_top" xlink:title="Represents a user on discord. May or may not be a member of a dpp::guild.">
<polygon fill="none" stroke="black" points="677.5,-293.5 677.5,-312.5 739.5,-312.5 739.5,-293.5 677.5,-293.5"/>
<text text-anchor="middle" x="708.5" y="-300.5" font-family="Helvetica,sans-Serif" font-size="10.00">dpp::user</text>
</a>
</g>
</g>
<!-- Node2&#45;&gt;Node12 -->
<g id="edge13" class="edge">
<title>Node2&#45;&gt;Node12</title>
<path fill="none" stroke="midnightblue" d="M488.68,-389C526.8,-384.78 578.95,-376.21 622,-359 651,-347.41 680.54,-325.29 696.17,-312.59"/>
<polygon fill="midnightblue" stroke="midnightblue" points="487.91,-385.56 478.32,-390.08 488.63,-392.53 487.91,-385.56"/>
</g>
<!-- Node3 -->
<g id="node3" class="node">
<title>Node3</title>
<g id="a_node3"><a xlink:href="classdpp_1_1snowflake.html" target="_top" xlink:title="A container for a 64 bit unsigned value representing many things on discord. This value is known in d...">
<polygon fill="none" stroke="black" points="147.5,-421.5 147.5,-440.5 236.5,-440.5 236.5,-421.5 147.5,-421.5"/>
<text text-anchor="middle" x="192" y="-428.5" font-family="Helvetica,sans-Serif" font-size="10.00">dpp::snowflake</text>
</a>
</g>
</g>
<!-- Node3&#45;&gt;Node1 -->
<g id="edge10" class="edge">
<title>Node3&#45;&gt;Node1</title>
<path fill="none" stroke="#9a32cd" stroke-dasharray="5,2" d="M233.2,-443.62C293.18,-461.72 409.96,-494.17 512,-506 682.86,-525.82 729.75,-513.74 898,-478 995.39,-457.32 1042.42,-468.23 1104,-390 1139.09,-345.42 1159.02,-278.61 1165.57,-253.77"/>
<polygon fill="#9a32cd" stroke="#9a32cd" points="233.96,-440.19 223.38,-440.63 231.92,-446.89 233.96,-440.19"/>
<text text-anchor="middle" x="708.5" y="-518" font-family="Helvetica,sans-Serif" font-size="10.00"> role_id</text>
</g>
<!-- Node3&#45;&gt;Node2 -->
<g id="edge2" class="edge">
<title>Node3&#45;&gt;Node2</title>
<path fill="none" stroke="#9a32cd" stroke-dasharray="5,2" d="M230.44,-418.35C245.39,-413.77 262.85,-408.99 279,-406 316.84,-398.99 360.58,-395.75 391.92,-394.26"/>
<polygon fill="#9a32cd" stroke="#9a32cd" points="229.04,-415.13 220.55,-421.47 231.14,-421.81 229.04,-415.13"/>
<text text-anchor="middle" x="318.5" y="-409" font-family="Helvetica,sans-Serif" font-size="10.00"> id</text>
</g>
<!-- Node16 -->
<g id="node16" class="node">
<title>Node16</title>
<g id="a_node16"><a xlink:href="structdpp_1_1integration__account.html" target="_top" xlink:title="The account information for an integration.">
<polygon fill="none" stroke="black" points="640,-614.5 640,-633.5 777,-633.5 777,-614.5 640,-614.5"/>
<text text-anchor="middle" x="708.5" y="-621.5" font-family="Helvetica,sans-Serif" font-size="10.00">dpp::integration_account</text>
</a>
</g>
</g>
<!-- Node3&#45;&gt;Node16 -->
<g id="edge23" class="edge">
<title>Node3&#45;&gt;Node16</title>
<path fill="none" stroke="#9a32cd" stroke-dasharray="5,2" d="M204.11,-449.12C218.56,-471.08 245.92,-507.55 279,-527 311.67,-546.21 551.89,-594.06 657.7,-614.5"/>
<polygon fill="#9a32cd" stroke="#9a32cd" points="207.06,-447.23 198.73,-440.69 201.16,-451 207.06,-447.23"/>
<text text-anchor="middle" x="435" y="-583" font-family="Helvetica,sans-Serif" font-size="10.00"> id</text>
</g>
<!-- Node18 -->
<g id="node18" class="node">
<title>Node18</title>
<g id="a_node18"><a xlink:href="structdpp_1_1integration__app.html" target="_top" xlink:title="An application that has been integrated.">
<polygon fill="none" stroke="black" points="916,-382.5 916,-401.5 1033,-401.5 1033,-382.5 916,-382.5"/>
<text text-anchor="middle" x="974.5" y="-389.5" font-family="Helvetica,sans-Serif" font-size="10.00">dpp::integration_app</text>
</a>
</g>
</g>
<!-- Node3&#45;&gt;Node18 -->
<g id="edge27" class="edge">
<title>Node3&#45;&gt;Node18</title>
<path fill="none" stroke="#9a32cd" stroke-dasharray="5,2" d="M246.99,-429.42C365.11,-425.76 655.36,-415.75 898,-399 903.78,-398.6 909.8,-398.13 915.81,-397.63"/>
<polygon fill="#9a32cd" stroke="#9a32cd" points="246.65,-425.93 236.77,-429.73 246.87,-432.92 246.65,-425.93"/>
<text text-anchor="middle" x="567" y="-422" font-family="Helvetica,sans-Serif" font-size="10.00"> id</text>
</g>
<!-- Node4 -->
<g id="node4" class="node">
<title>Node4</title>
<g id="a_node4"><a xlink:title=" ">
<polygon fill="none" stroke="#bfbfbf" points="0,-366.5 0,-385.5 56,-385.5 56,-366.5 0,-366.5"/>
<text text-anchor="middle" x="28" y="-373.5" font-family="Helvetica,sans-Serif" font-size="10.00">uint64_t</text>
</a>
</g>
</g>
<!-- Node4&#45;&gt;Node3 -->
<g id="edge3" class="edge">
<title>Node4&#45;&gt;Node3</title>
<path fill="none" stroke="#9a32cd" stroke-dasharray="5,2" d="M65.65,-388.44C95.17,-398.46 136.04,-412.34 162.98,-421.49"/>
<polygon fill="#9a32cd" stroke="#9a32cd" points="66.71,-385.11 56.12,-385.21 64.46,-391.73 66.71,-385.11"/>
<text text-anchor="middle" x="89.5" y="-403" font-family="Helvetica,sans-Serif" font-size="10.00"> value</text>
</g>
<!-- Node14 -->
<g id="node14" class="node">
<title>Node14</title>
<g id="a_node14"><a xlink:href="structdpp_1_1utility_1_1iconhash.html" target="_top" xlink:title="Store a 128 bit icon hash (profile picture, server icon etc) as a 128 bit binary value made of two ui...">
<polygon fill="none" stroke="black" points="376,-345.5 376,-364.5 494,-364.5 494,-345.5 376,-345.5"/>
<text text-anchor="middle" x="435" y="-352.5" font-family="Helvetica,sans-Serif" font-size="10.00">dpp::utility::iconhash</text>
</a>
</g>
</g>
<!-- Node4&#45;&gt;Node14 -->
<g id="edge18" class="edge">
<title>Node4&#45;&gt;Node14</title>
<path fill="none" stroke="#9a32cd" stroke-dasharray="5,2" d="M66.44,-374.06C137.31,-370.38 291.51,-362.39 375.92,-358.01"/>
<polygon fill="#9a32cd" stroke="#9a32cd" points="66.01,-370.58 56.2,-374.59 66.37,-377.57 66.01,-370.58"/>
<text text-anchor="middle" x="192" y="-384" font-family="Helvetica,sans-Serif" font-size="10.00"> first</text>
<text text-anchor="middle" x="192" y="-373" font-family="Helvetica,sans-Serif" font-size="10.00">second</text>
</g>
<!-- Node5 -->
<g id="node5" class="node">
<title>Node5</title>
<g id="a_node5"><a xlink:href="structdpp_1_1json__interface.html" target="_top" xlink:title=" ">
<polygon fill="none" stroke="black" points="512,-105 512,-135 622,-135 622,-105 512,-105"/>
<text text-anchor="start" x="520" y="-123" font-family="Helvetica,sans-Serif" font-size="10.00">dpp::json_interface</text>
<text text-anchor="middle" x="567" y="-112" font-family="Helvetica,sans-Serif" font-size="10.00">&lt; integration &gt;</text>
</a>
</g>
</g>
<!-- Node5&#45;&gt;Node1 -->
<g id="edge4" class="edge">
<title>Node5&#45;&gt;Node1</title>
<path fill="none" stroke="midnightblue" d="M632.24,-116.31C756.67,-110.3 1025.23,-103.16 1104,-148 1138.47,-167.62 1157.9,-214.32 1164.94,-234.47"/>
<polygon fill="midnightblue" stroke="midnightblue" points="631.91,-112.82 622.1,-116.82 632.26,-119.82 631.91,-112.82"/>
</g>
<!-- Node6 -->
<g id="node6" class="node">
<title>Node6</title>
<g id="a_node6"><a xlink:href="structdpp_1_1json__interface.html" target="_top" xlink:title="Represents an interface for an object that can optionally implement functions for converting to and f...">
<polygon fill="none" stroke="black" points="123,-179.5 123,-198.5 261,-198.5 261,-179.5 123,-179.5"/>
<text text-anchor="middle" x="192" y="-186.5" font-family="Helvetica,sans-Serif" font-size="10.00">dpp::json_interface&lt; T &gt;</text>
</a>
</g>
</g>
<!-- Node6&#45;&gt;Node5 -->
<g id="edge5" class="edge">
<title>Node6&#45;&gt;Node5</title>
<path fill="none" stroke="orange" stroke-dasharray="5,2" d="M254.7,-177.59C326.35,-164.33 443.41,-142.68 511.73,-130.04"/>
<polygon fill="orange" stroke="orange" points="253.67,-174.22 244.47,-179.48 254.94,-181.1 253.67,-174.22"/>
<text text-anchor="middle" x="318.5" y="-175" font-family="Helvetica,sans-Serif" font-size="10.00"> &lt; integration &gt;</text>
</g>
<!-- Node13 -->
<g id="node13" class="node">
<title>Node13</title>
<g id="a_node13"><a xlink:href="structdpp_1_1json__interface.html" target="_top" xlink:title=" ">
<polygon fill="none" stroke="black" points="380,-294 380,-324 490,-324 490,-294 380,-294"/>
<text text-anchor="start" x="388" y="-312" font-family="Helvetica,sans-Serif" font-size="10.00">dpp::json_interface</text>
<text text-anchor="middle" x="435" y="-301" font-family="Helvetica,sans-Serif" font-size="10.00">&lt; user &gt;</text>
</a>
</g>
</g>
<!-- Node6&#45;&gt;Node13 -->
<g id="edge15" class="edge">
<title>Node6&#45;&gt;Node13</title>
<path fill="none" stroke="orange" stroke-dasharray="5,2" d="M219.62,-203.59C254.97,-222.78 319.53,-257.22 376,-284 383.03,-287.34 390.63,-290.75 397.93,-293.93"/>
<polygon fill="orange" stroke="orange" points="220.91,-200.3 210.45,-198.6 217.56,-206.45 220.91,-200.3"/>
<text text-anchor="middle" x="318.5" y="-277" font-family="Helvetica,sans-Serif" font-size="10.00"> &lt; user &gt;</text>
</g>
<!-- Node7 -->
<g id="node7" class="node">
<title>Node7</title>
<g id="a_node7"><a xlink:title=" ">
<polygon fill="none" stroke="#bfbfbf" points="402.5,-604.5 402.5,-623.5 467.5,-623.5 467.5,-604.5 402.5,-604.5"/>
<text text-anchor="middle" x="435" y="-611.5" font-family="Helvetica,sans-Serif" font-size="10.00">std::string</text>
</a>
</g>
</g>
<!-- Node7&#45;&gt;Node1 -->
<g id="edge6" class="edge">
<title>Node7&#45;&gt;Node1</title>
<path fill="none" stroke="#9a32cd" stroke-dasharray="5,2" d="M476.19,-626.39C575.12,-654.64 836.66,-715.64 1033,-638 1072.51,-622.38 1083.1,-610.99 1104,-574 1167.89,-460.95 1169.07,-295.13 1168.28,-253.67"/>
<polygon fill="#9a32cd" stroke="#9a32cd" points="476.89,-622.95 466.31,-623.52 474.94,-629.67 476.89,-622.95"/>
<text text-anchor="middle" x="846.5" y="-678" font-family="Helvetica,sans-Serif" font-size="10.00"> name</text>
</g>
<!-- Node7&#45;&gt;Node12 -->
<g id="edge16" class="edge">
<title>Node7&#45;&gt;Node12</title>
<path fill="none" stroke="#9a32cd" stroke-dasharray="5,2" d="M461.74,-599.11C472.4,-592.25 484.46,-583.52 494,-574 503.95,-564.07 502.87,-558.68 512,-548 555.91,-496.62 588.11,-501.48 622,-443 638.75,-414.09 623.53,-399.07 640,-370 653.75,-345.72 678.77,-324.3 694.18,-312.54"/>
<polygon fill="#9a32cd" stroke="#9a32cd" points="459.86,-596.16 453.21,-604.41 463.55,-602.11 459.86,-596.16"/>
<text text-anchor="middle" x="567" y="-562" font-family="Helvetica,sans-Serif" font-size="10.00"> global_name</text>
<text text-anchor="middle" x="567" y="-551" font-family="Helvetica,sans-Serif" font-size="10.00">username</text>
</g>
<!-- Node7&#45;&gt;Node16 -->
<g id="edge24" class="edge">
<title>Node7&#45;&gt;Node16</title>
<path fill="none" stroke="#9a32cd" stroke-dasharray="5,2" d="M477.82,-615.54C520.97,-617.13 588.96,-619.63 639.78,-621.51"/>
<polygon fill="#9a32cd" stroke="#9a32cd" points="477.8,-612.04 467.68,-615.17 477.54,-619.03 477.8,-612.04"/>
<text text-anchor="middle" x="567" y="-623" font-family="Helvetica,sans-Serif" font-size="10.00"> name</text>
</g>
<!-- Node7&#45;&gt;Node18 -->
<g id="edge28" class="edge">
<title>Node7&#45;&gt;Node18</title>
<path fill="none" stroke="#9a32cd" stroke-dasharray="5,2" d="M477.76,-607.55C556.51,-595 723.84,-566.38 777,-542 858.53,-504.6 937.91,-428.29 964.31,-401.53"/>
<polygon fill="#9a32cd" stroke="#9a32cd" points="477.03,-604.12 467.7,-609.14 478.13,-611.03 477.03,-604.12"/>
<text text-anchor="middle" x="708.5" y="-592" font-family="Helvetica,sans-Serif" font-size="10.00"> description</text>
<text text-anchor="middle" x="708.5" y="-581" font-family="Helvetica,sans-Serif" font-size="10.00">name</text>
</g>
<!-- Node8 -->
<g id="node8" class="node">
<title>Node8</title>
<g id="a_node8"><a xlink:title=" ">
<polygon fill="none" stroke="#bfbfbf" points="140,-599 140,-629 244,-629 244,-599 140,-599"/>
<text text-anchor="start" x="148" y="-617" font-family="Helvetica,sans-Serif" font-size="10.00">std::basic_string&lt;</text>
<text text-anchor="middle" x="192" y="-606" font-family="Helvetica,sans-Serif" font-size="10.00"> Char &gt;</text>
</a>
</g>
</g>
<!-- Node8&#45;&gt;Node7 -->
<g id="edge7" class="edge">
<title>Node8&#45;&gt;Node7</title>
<path fill="none" stroke="midnightblue" d="M254.24,-614C301.51,-614 364.98,-614 402.49,-614"/>
<polygon fill="midnightblue" stroke="midnightblue" points="254.11,-610.5 244.11,-614 254.11,-617.5 254.11,-610.5"/>
</g>
<!-- Node9 -->
<g id="node9" class="node">
<title>Node9</title>
<g id="a_node9"><a xlink:title=" ">
<polygon fill="none" stroke="#bfbfbf" points="926,-76.5 926,-95.5 1023,-95.5 1023,-76.5 926,-76.5"/>
<text text-anchor="middle" x="974.5" y="-83.5" font-family="Helvetica,sans-Serif" font-size="10.00">integration_type</text>
</a>
</g>
</g>
<!-- Node9&#45;&gt;Node1 -->
<g id="edge8" class="edge">
<title>Node9&#45;&gt;Node1</title>
<path fill="none" stroke="#9a32cd" stroke-dasharray="5,2" d="M1033.29,-79.72C1057.18,-80.02 1083.92,-84.42 1104,-99 1150.32,-132.63 1163.62,-207.33 1166.98,-234.17"/>
<polygon fill="#9a32cd" stroke="#9a32cd" points="1033.22,-76.22 1023.26,-79.82 1033.29,-83.22 1033.22,-76.22"/>
<text text-anchor="middle" x="1077.5" y="-102" font-family="Helvetica,sans-Serif" font-size="10.00"> type</text>
</g>
<!-- Node10 -->
<g id="node10" class="node">
<title>Node10</title>
<g id="a_node10"><a xlink:title=" ">
<polygon fill="none" stroke="#bfbfbf" points="410,-214.5 410,-233.5 460,-233.5 460,-214.5 410,-214.5"/>
<text text-anchor="middle" x="435" y="-221.5" font-family="Helvetica,sans-Serif" font-size="10.00">uint8_t</text>
</a>
</g>
</g>
<!-- Node10&#45;&gt;Node1 -->
<g id="edge9" class="edge">
<title>Node10&#45;&gt;Node1</title>
<path fill="none" stroke="#9a32cd" stroke-dasharray="5,2" d="M470.4,-224.92C507.73,-225.92 569.1,-227.56 622,-229 807.32,-234.04 1028.02,-240.13 1121.98,-242.73"/>
<polygon fill="#9a32cd" stroke="#9a32cd" points="470.17,-221.41 460.08,-224.64 469.98,-228.41 470.17,-221.41"/>
<text text-anchor="middle" x="846.5" y="-239" font-family="Helvetica,sans-Serif" font-size="10.00"> flags</text>
</g>
<!-- Node10&#45;&gt;Node12 -->
<g id="edge21" class="edge">
<title>Node10&#45;&gt;Node12</title>
<path fill="none" stroke="#9a32cd" stroke-dasharray="5,2" d="M470.05,-227.42C507.94,-231.9 570.58,-241.35 622,-259 647.9,-267.89 675.7,-283.45 692.34,-293.48"/>
<polygon fill="#9a32cd" stroke="#9a32cd" points="470.39,-223.93 460.05,-226.28 469.6,-230.89 470.39,-223.93"/>
<text text-anchor="middle" x="567" y="-262" font-family="Helvetica,sans-Serif" font-size="10.00"> refcount</text>
</g>
<!-- Node11 -->
<g id="node11" class="node">
<title>Node11</title>
<g id="a_node11"><a xlink:title=" ">
<polygon fill="none" stroke="#bfbfbf" points="407,-168.5 407,-187.5 463,-187.5 463,-168.5 407,-168.5"/>
<text text-anchor="middle" x="435" y="-175.5" font-family="Helvetica,sans-Serif" font-size="10.00">uint32_t</text>
</a>
</g>
</g>
<!-- Node11&#45;&gt;Node1 -->
<g id="edge11" class="edge">
<title>Node11&#45;&gt;Node1</title>
<path fill="none" stroke="#9a32cd" stroke-dasharray="5,2" d="M473.6,-177.45C511.19,-177.12 570.64,-177.22 622,-180 808.07,-190.08 1027.92,-222.01 1121.79,-236.6"/>
<polygon fill="#9a32cd" stroke="#9a32cd" points="473.09,-173.95 463.13,-177.56 473.17,-180.95 473.09,-173.95"/>
<text text-anchor="middle" x="846.5" y="-219" font-family="Helvetica,sans-Serif" font-size="10.00"> expire_grace_period</text>
<text text-anchor="middle" x="846.5" y="-208" font-family="Helvetica,sans-Serif" font-size="10.00">subscriber_count</text>
</g>
<!-- Node11&#45;&gt;Node12 -->
<g id="edge19" class="edge">
<title>Node11&#45;&gt;Node12</title>
<path fill="none" stroke="#9a32cd" stroke-dasharray="5,2" d="M473.36,-179.86C512.52,-183.17 574.8,-192.39 622,-218 657.32,-237.17 687.76,-275.4 700.76,-293.31"/>
<polygon fill="#9a32cd" stroke="#9a32cd" points="473.44,-176.36 463.21,-179.09 472.91,-183.34 473.44,-176.36"/>
<text text-anchor="middle" x="567" y="-221" font-family="Helvetica,sans-Serif" font-size="10.00"> flags</text>
</g>
<!-- Node12&#45;&gt;Node1 -->
<g id="edge12" class="edge">
<title>Node12&#45;&gt;Node1</title>
<path fill="none" stroke="#9a32cd" stroke-dasharray="5,2" d="M749.59,-297.84C834.42,-286.93 1031.61,-261.55 1121.66,-249.96"/>
<polygon fill="#9a32cd" stroke="#9a32cd" points="749.05,-294.38 739.58,-299.13 749.95,-301.32 749.05,-294.38"/>
<text text-anchor="middle" x="974.5" y="-278" font-family="Helvetica,sans-Serif" font-size="10.00"> user_obj</text>
</g>
<!-- Node12&#45;&gt;Node18 -->
<g id="edge30" class="edge">
<title>Node12&#45;&gt;Node18</title>
<path fill="none" stroke="#9a32cd" stroke-dasharray="5,2" d="M747.54,-315.82C801.04,-333.86 897.31,-366.31 945.05,-382.41"/>
<polygon fill="#9a32cd" stroke="#9a32cd" points="748.35,-312.4 737.75,-312.52 746.11,-319.04 748.35,-312.4"/>
<text text-anchor="middle" x="846.5" y="-368" font-family="Helvetica,sans-Serif" font-size="10.00"> bot</text>
</g>
<!-- Node13&#45;&gt;Node12 -->
<g id="edge14" class="edge">
<title>Node13&#45;&gt;Node12</title>
<path fill="none" stroke="midnightblue" d="M500.45,-307.58C556.37,-306.34 634.81,-304.61 677.29,-303.67"/>
<polygon fill="midnightblue" stroke="midnightblue" points="500.21,-304.08 490.29,-307.8 500.36,-311.08 500.21,-304.08"/>
</g>
<!-- Node14&#45;&gt;Node12 -->
<g id="edge17" class="edge">
<title>Node14&#45;&gt;Node12</title>
<path fill="none" stroke="#9a32cd" stroke-dasharray="5,2" d="M484.03,-343.16C493.29,-341.01 502.93,-338.86 512,-337 570.21,-325.06 638.74,-313.77 677.25,-307.68"/>
<polygon fill="#9a32cd" stroke="#9a32cd" points="483.1,-339.78 474.17,-345.48 484.71,-346.6 483.1,-339.78"/>
<text text-anchor="middle" x="567" y="-351" font-family="Helvetica,sans-Serif" font-size="10.00"> avatar</text>
<text text-anchor="middle" x="567" y="-340" font-family="Helvetica,sans-Serif" font-size="10.00">avatar_decoration</text>
</g>
<!-- Node14&#45;&gt;Node18 -->
<g id="edge29" class="edge">
<title>Node14&#45;&gt;Node18</title>
<path fill="none" stroke="#9a32cd" stroke-dasharray="5,2" d="M504.25,-362.32C506.86,-362.56 509.46,-362.79 512,-363 657.2,-375.2 828.49,-384.68 915.88,-389.16"/>
<polygon fill="#9a32cd" stroke="#9a32cd" points="504.35,-358.82 494.07,-361.37 503.7,-365.79 504.35,-358.82"/>
<text text-anchor="middle" x="708.5" y="-384" font-family="Helvetica,sans-Serif" font-size="10.00"> icon</text>
</g>
<!-- Node15 -->
<g id="node15" class="node">
<title>Node15</title>
<g id="a_node15"><a xlink:title=" ">
<polygon fill="none" stroke="#bfbfbf" points="407,-255.5 407,-274.5 463,-274.5 463,-255.5 407,-255.5"/>
<text text-anchor="middle" x="435" y="-262.5" font-family="Helvetica,sans-Serif" font-size="10.00">uint16_t</text>
</a>
</g>
</g>
<!-- Node15&#45;&gt;Node12 -->
<g id="edge20" class="edge">
<title>Node15&#45;&gt;Node12</title>
<path fill="none" stroke="#9a32cd" stroke-dasharray="5,2" d="M473.13,-269.41C510.71,-273.97 570.47,-281.46 622,-289 640.45,-291.7 661.09,-295.07 677.47,-297.83"/>
<polygon fill="#9a32cd" stroke="#9a32cd" points="473.49,-265.93 463.15,-268.21 472.66,-272.88 473.49,-265.93"/>
<text text-anchor="middle" x="567" y="-292" font-family="Helvetica,sans-Serif" font-size="10.00"> discriminator</text>
</g>
<!-- Node16&#45;&gt;Node1 -->
<g id="edge22" class="edge">
<title>Node16&#45;&gt;Node1</title>
<path fill="none" stroke="#9a32cd" stroke-dasharray="5,2" d="M787.33,-630.71C876.35,-633.8 1020.52,-624.07 1104,-541 1146.25,-498.96 1163.78,-299.68 1167.31,-253.55"/>
<polygon fill="#9a32cd" stroke="#9a32cd" points="787.43,-627.21 777.29,-630.3 787.14,-634.2 787.43,-627.21"/>
<text text-anchor="middle" x="974.5" y="-626" font-family="Helvetica,sans-Serif" font-size="10.00"> account</text>
</g>
<!-- Node17 -->
<g id="node17" class="node">
<title>Node17</title>
<g id="a_node17"><a xlink:title=" ">
<polygon fill="none" stroke="#bfbfbf" points="950.5,-38.5 950.5,-57.5 998.5,-57.5 998.5,-38.5 950.5,-38.5"/>
<text text-anchor="middle" x="974.5" y="-45.5" font-family="Helvetica,sans-Serif" font-size="10.00">time_t</text>
</a>
</g>
</g>
<!-- Node17&#45;&gt;Node1 -->
<g id="edge25" class="edge">
<title>Node17&#45;&gt;Node1</title>
<path fill="none" stroke="#9a32cd" stroke-dasharray="5,2" d="M1008.93,-43.48C1037.28,-41.55 1077.46,-43.56 1104,-65 1158.68,-109.17 1166.68,-203.76 1167.82,-234.28"/>
<polygon fill="#9a32cd" stroke="#9a32cd" points="1008.35,-40.02 998.69,-44.38 1008.96,-46.99 1008.35,-40.02"/>
<text text-anchor="middle" x="1077.5" y="-68" font-family="Helvetica,sans-Serif" font-size="10.00"> synced_at</text>
</g>
<!-- Node18&#45;&gt;Node1 -->
<g id="edge26" class="edge">
<title>Node18&#45;&gt;Node1</title>
<path fill="none" stroke="#9a32cd" stroke-dasharray="5,2" d="M996.14,-376.13C1036.17,-345.36 1123.23,-278.42 1155.57,-253.55"/>
<polygon fill="#9a32cd" stroke="#9a32cd" points="993.92,-373.42 988.13,-382.29 998.19,-378.97 993.92,-373.42"/>
<text text-anchor="middle" x="1077.5" y="-334" font-family="Helvetica,sans-Serif" font-size="10.00"> app</text>
</g>
<!-- Node19 -->
<g id="node19" class="node">
<title>Node19</title>
<g id="a_node19"><a xlink:title=" ">
<polygon fill="none" stroke="#bfbfbf" points="946.5,-0.5 946.5,-19.5 1002.5,-19.5 1002.5,-0.5 946.5,-0.5"/>
<text text-anchor="middle" x="974.5" y="-7.5" font-family="Helvetica,sans-Serif" font-size="10.00">vector&lt;</text>
</a>
</g>
</g>
<!-- Node19&#45;&gt;Node1 -->
<g id="edge31" class="edge">
<title>Node19&#45;&gt;Node1</title>
<path fill="none" stroke="#9a32cd" stroke-dasharray="5,2" d="M1012.84,-5.55C1041.13,-4.31 1079.22,-7.52 1104,-29 1167.86,-84.35 1169.44,-200.35 1168.44,-234.4"/>
<polygon fill="#9a32cd" stroke="#9a32cd" points="1012.29,-2.08 1002.53,-6.21 1012.73,-9.06 1012.29,-2.08"/>
<text text-anchor="middle" x="1077.5" y="-32" font-family="Helvetica,sans-Serif" font-size="10.00"> scopes</text>
</g>
</g>
</svg>
        <g id="navigator" transform="translate(0 0)" fill="#404254">
                <rect fill="#f2f5e9" fill-opacity="0.5" stroke="#606060" stroke-width=".5" x="0" y="0" width="60" height="60"/>
                <use id="zoomplus" xlink:href="#zoomPlus" x="17" y="9" onmousedown="handleZoom(evt,'in')"/>
                <use id="zoomminus" xlink:href="#zoomMin" x="42" y="9" onmousedown="handleZoom(evt,'out')"/>
                <use id="reset" xlink:href="#resetDef" x="30" y="36" onmousedown="handleReset()"/>
                <g id="arrowUp" xlink:href="#dirArrow" transform="translate(30 24)" onmousedown="handlePan(0,-1)">
                  <use xlink:href="#rim" fill="#404040">
                        <set attributeName="fill" to="#808080" begin="arrowUp.mouseover" end="arrowUp.mouseout"/>
                  </use>
                  <path fill="none" stroke="white" stroke-width="1.5" d="M0,-3.0v7 M-2.5,-0.5L0,-3.0L2.5,-0.5"/>
                </g>
                <g id="arrowRight" xlink:href="#dirArrow" transform="rotate(90) translate(36 -43)" onmousedown="handlePan(1,0)">
                  <use xlink:href="#rim" fill="#404040">
                        <set attributeName="fill" to="#808080" begin="arrowRight.mouseover" end="arrowRight.mouseout"/>
                  </use>
                  <path fill="none" stroke="white" stroke-width="1.5" d="M0,-3.0v7 M-2.5,-0.5L0,-3.0L2.5,-0.5"/>
                </g>
                <g id="arrowDown" xlink:href="#dirArrow" transform="rotate(180) translate(-30 -48)" onmousedown="handlePan(0,1)">
                  <use xlink:href="#rim" fill="#404040">
                        <set attributeName="fill" to="#808080" begin="arrowDown.mouseover" end="arrowDown.mouseout"/>
                  </use>
                  <path fill="none" stroke="white" stroke-width="1.5" d="M0,-3.0v7 M-2.5,-0.5L0,-3.0L2.5,-0.5"/>
                </g>
                <g id="arrowLeft" xlink:href="#dirArrow" transform="rotate(270) translate(-36 17)" onmousedown="handlePan(-1,0)">
                  <use xlink:href="#rim" fill="#404040">
                        <set attributeName="fill" to="#808080" begin="arrowLeft.mouseover" end="arrowLeft.mouseout"/>
                  </use>
                  <path fill="none" stroke="white" stroke-width="1.5" d="M0,-3.0v7 M-2.5,-0.5L0,-3.0L2.5,-0.5"/>
                </g>
        </g>
        <svg viewBox="0 0 15 15" width="100%" height="30px" preserveAspectRatio="xMaxYMin meet">
         <g id="arrow_out" transform="scale(0.3 0.3)">
          <a xlink:href="classdpp_1_1integration__coll__graph_org.svg" target="_base">
           <rect id="button" ry="5" rx="5" y="6" x="6" height="38" width="38"
                fill="#f2f5e9" fill-opacity="0.5" stroke="#606060" stroke-width="1.0"/>
           <path id="arrow"
             d="M 11.500037,31.436501 C 11.940474,20.09759 22.043105,11.32322 32.158766,21.979434 L 37.068811,17.246167 C 37.068811,17.246167 37.088388,32 37.088388,32 L 22.160133,31.978069 C 22.160133,31.978069 26.997745,27.140456 26.997745,27.140456 C 18.528582,18.264221 13.291696,25.230495 11.500037,31.436501 z"
             style="fill:#404040;"/>
          </a>
         </g>
        </svg>
</svg>
