<?xml version="1.0" encoding="UTF-8" standalone="no"?>
<!DOCTYPE svg PUBLIC "-//W3C//DTD SVG 1.1//EN"
 "http://www.w3.org/Graphics/SVG/1.1/DTD/svg11.dtd">
<!-- Generated by graphviz version 2.43.0 (0)
 -->
<!-- Title: dpp::guild_audit_log_entry_create_t Pages: 1 -->
<svg width="1755pt" height="1389pt"
 viewBox="0.00 0.00 1755.00 1389.00" xmlns="http://www.w3.org/2000/svg" xmlns:xlink="http://www.w3.org/1999/xlink">
<g id="graph0" class="graph" transform="scale(1 1) rotate(0) translate(4 1385)">
<title>dpp::guild_audit_log_entry_create_t</title>
<!-- Node1 -->
<g id="node1" class="node">
<title>Node1</title>
<g id="a_node1"><a xlink:title="Guild audit log entry create.">
<polygon fill="#bfbfbf" stroke="black" points="1632,-199 1632,-229 1747,-229 1747,-199 1632,-199"/>
<text text-anchor="start" x="1640" y="-217" font-family="Helvetica,sans-Serif" font-size="10.00">dpp::guild_audit_log</text>
<text text-anchor="middle" x="1689.5" y="-206" font-family="Helvetica,sans-Serif" font-size="10.00">_entry_create_t</text>
</a>
</g>
</g>
<!-- Node2 -->
<g id="node2" class="node">
<title>Node2</title>
<g id="a_node2"><a xlink:href="structdpp_1_1event__dispatch__t.html" target="_top" xlink:title="Base event parameter struct. Each event you receive from the library will have its parameter derived ...">
<polygon fill="none" stroke="black" points="1471,-593.5 1471,-612.5 1595,-612.5 1595,-593.5 1471,-593.5"/>
<text text-anchor="middle" x="1533" y="-600.5" font-family="Helvetica,sans-Serif" font-size="10.00">dpp::event_dispatch_t</text>
</a>
</g>
</g>
<!-- Node2&#45;&gt;Node1 -->
<g id="edge1" class="edge">
<title>Node2&#45;&gt;Node1</title>
<path fill="none" stroke="midnightblue" d="M1541.55,-583.99C1568.32,-516.59 1658.35,-289.92 1682.5,-229.11"/>
<polygon fill="midnightblue" stroke="midnightblue" points="1538.26,-582.8 1537.82,-593.38 1544.76,-585.38 1538.26,-582.8"/>
</g>
<!-- Node3 -->
<g id="node3" class="node">
<title>Node3</title>
<g id="a_node3"><a xlink:title=" ">
<polygon fill="none" stroke="#bfbfbf" points="456,-377.5 456,-396.5 521,-396.5 521,-377.5 456,-377.5"/>
<text text-anchor="middle" x="488.5" y="-384.5" font-family="Helvetica,sans-Serif" font-size="10.00">std::string</text>
</a>
</g>
</g>
<!-- Node3&#45;&gt;Node2 -->
<g id="edge2" class="edge">
<title>Node3&#45;&gt;Node2</title>
<path fill="none" stroke="#9a32cd" stroke-dasharray="5,2" d="M520.1,-373.59C571.65,-352.27 679.51,-313 775,-313 775,-313 775,-313 1355,-313 1489.48,-313 1524.82,-543.03 1530.94,-593.35"/>
<polygon fill="#9a32cd" stroke="#9a32cd" points="518.72,-370.38 510.86,-377.48 521.43,-376.83 518.72,-370.38"/>
<text text-anchor="middle" x="1064.5" y="-316" font-family="Helvetica,sans-Serif" font-size="10.00"> raw_event</text>
</g>
<!-- Node5 -->
<g id="node5" class="node">
<title>Node5</title>
<g id="a_node5"><a xlink:href="classdpp_1_1discord__client.html" target="_top" xlink:title="Implements a discord client. Each discord_client connects to one shard and derives from a websocket c...">
<polygon fill="none" stroke="black" points="1300,-883.5 1300,-902.5 1408,-902.5 1408,-883.5 1300,-883.5"/>
<text text-anchor="middle" x="1354" y="-890.5" font-family="Helvetica,sans-Serif" font-size="10.00">dpp::discord_client</text>
</a>
</g>
</g>
<!-- Node3&#45;&gt;Node5 -->
<g id="edge43" class="edge">
<title>Node3&#45;&gt;Node5</title>
<path fill="none" stroke="#9a32cd" stroke-dasharray="5,2" d="M531.29,-379.64C667.96,-358.26 1103.17,-312.19 1282,-555 1322.45,-609.92 1347.08,-834.16 1352.06,-883.41"/>
<polygon fill="#9a32cd" stroke="#9a32cd" points="530.54,-376.21 521.22,-381.25 531.65,-383.12 530.54,-376.21"/>
<text text-anchor="middle" x="919.5" y="-407" font-family="Helvetica,sans-Serif" font-size="10.00"> resume_gateway_url</text>
<text text-anchor="middle" x="919.5" y="-396" font-family="Helvetica,sans-Serif" font-size="10.00">sessionid</text>
<text text-anchor="middle" x="919.5" y="-385" font-family="Helvetica,sans-Serif" font-size="10.00">token</text>
</g>
<!-- Node7 -->
<g id="node7" class="node">
<title>Node7</title>
<g id="a_node7"><a xlink:href="classdpp_1_1ssl__client.html" target="_top" xlink:title="Implements a simple non&#45;blocking SSL stream client.">
<polygon fill="none" stroke="black" points="733,-1195.5 733,-1214.5 819,-1214.5 819,-1195.5 733,-1195.5"/>
<text text-anchor="middle" x="776" y="-1202.5" font-family="Helvetica,sans-Serif" font-size="10.00">dpp::ssl_client</text>
</a>
</g>
</g>
<!-- Node3&#45;&gt;Node7 -->
<g id="edge7" class="edge">
<title>Node3&#45;&gt;Node7</title>
<path fill="none" stroke="#9a32cd" stroke-dasharray="5,2" d="M530.89,-393.47C541.17,-397.02 551.18,-402.51 558,-411 600.04,-463.35 534.46,-508.25 576,-561 611.5,-606.08 662.63,-560.05 697,-606 714.21,-629.01 711.51,-835.48 715,-864 731.19,-996.16 764.28,-1154.9 772.91,-1195.29"/>
<polygon fill="#9a32cd" stroke="#9a32cd" points="531.62,-390.04 521.04,-390.62 529.68,-396.76 531.62,-390.04"/>
<text text-anchor="middle" x="636.5" y="-653" font-family="Helvetica,sans-Serif" font-size="10.00"> buffer</text>
<text text-anchor="middle" x="636.5" y="-642" font-family="Helvetica,sans-Serif" font-size="10.00">cipher</text>
<text text-anchor="middle" x="636.5" y="-631" font-family="Helvetica,sans-Serif" font-size="10.00">hostname</text>
<text text-anchor="middle" x="636.5" y="-620" font-family="Helvetica,sans-Serif" font-size="10.00">obuffer</text>
<text text-anchor="middle" x="636.5" y="-609" font-family="Helvetica,sans-Serif" font-size="10.00">port</text>
</g>
<!-- Node15 -->
<g id="node15" class="node">
<title>Node15</title>
<g id="a_node15"><a xlink:href="classdpp_1_1cluster.html" target="_top" xlink:title="The cluster class represents a group of shards and a command queue for sending and receiving commands...">
<polygon fill="none" stroke="black" points="1027.5,-573.5 1027.5,-592.5 1101.5,-592.5 1101.5,-573.5 1027.5,-573.5"/>
<text text-anchor="middle" x="1064.5" y="-580.5" font-family="Helvetica,sans-Serif" font-size="10.00">dpp::cluster</text>
</a>
</g>
</g>
<!-- Node3&#45;&gt;Node15 -->
<g id="edge17" class="edge">
<title>Node3&#45;&gt;Node15</title>
<path fill="none" stroke="#9a32cd" stroke-dasharray="5,2" d="M519.88,-401.31C533.13,-408.84 547.91,-419.2 558,-432 572.62,-450.55 557.68,-467.09 576,-482 718.05,-597.63 826.37,-446.74 984,-540 995.48,-546.79 991.1,-556.32 1002,-564 1009.49,-569.28 1018.5,-573.12 1027.27,-575.91"/>
<polygon fill="#9a32cd" stroke="#9a32cd" points="521.5,-398.2 511.03,-396.55 518.18,-404.37 521.5,-398.2"/>
<text text-anchor="middle" x="776" y="-530" font-family="Helvetica,sans-Serif" font-size="10.00"> token</text>
</g>
<!-- Node18 -->
<g id="node18" class="node">
<title>Node18</title>
<g id="a_node18"><a xlink:href="classdpp_1_1user.html" target="_top" xlink:title="Represents a user on discord. May or may not be a member of a dpp::guild.">
<polygon fill="none" stroke="black" points="745,-423.5 745,-442.5 807,-442.5 807,-423.5 745,-423.5"/>
<text text-anchor="middle" x="776" y="-430.5" font-family="Helvetica,sans-Serif" font-size="10.00">dpp::user</text>
</a>
</g>
</g>
<!-- Node3&#45;&gt;Node18 -->
<g id="edge27" class="edge">
<title>Node3&#45;&gt;Node18</title>
<path fill="none" stroke="#9a32cd" stroke-dasharray="5,2" d="M531.55,-384.37C573.96,-382.79 640.97,-383.27 697,-397 719.6,-402.54 743.62,-414.69 758.94,-423.35"/>
<polygon fill="#9a32cd" stroke="#9a32cd" points="531.17,-380.88 521.32,-384.81 531.46,-387.88 531.17,-380.88"/>
<text text-anchor="middle" x="636.5" y="-411" font-family="Helvetica,sans-Serif" font-size="10.00"> global_name</text>
<text text-anchor="middle" x="636.5" y="-400" font-family="Helvetica,sans-Serif" font-size="10.00">username</text>
</g>
<!-- Node34 -->
<g id="node34" class="node">
<title>Node34</title>
<g id="a_node34"><a xlink:href="structdpp_1_1audit__entry.html" target="_top" xlink:title="An individual audit log entry.">
<polygon fill="none" stroke="black" points="728,-126.5 728,-145.5 824,-145.5 824,-126.5 728,-126.5"/>
<text text-anchor="middle" x="776" y="-133.5" font-family="Helvetica,sans-Serif" font-size="10.00">dpp::audit_entry</text>
</a>
</g>
</g>
<!-- Node3&#45;&gt;Node34 -->
<g id="edge56" class="edge">
<title>Node3&#45;&gt;Node34</title>
<path fill="none" stroke="#9a32cd" stroke-dasharray="5,2" d="M519.22,-372.36C533.2,-363.95 548.79,-352.03 558,-337 584.34,-294.01 543.03,-263.14 576,-225 612.87,-182.36 646.04,-211.1 697,-187 721.72,-175.31 747.79,-156.83 762.66,-145.62"/>
<polygon fill="#9a32cd" stroke="#9a32cd" points="517.33,-369.42 510.35,-377.39 520.78,-375.51 517.33,-369.42"/>
<text text-anchor="middle" x="636.5" y="-228" font-family="Helvetica,sans-Serif" font-size="10.00"> reason</text>
</g>
<!-- Node4 -->
<g id="node4" class="node">
<title>Node4</title>
<g id="a_node4"><a xlink:title=" ">
<polygon fill="none" stroke="#bfbfbf" points="144,-396 144,-426 248,-426 248,-396 144,-396"/>
<text text-anchor="start" x="152" y="-414" font-family="Helvetica,sans-Serif" font-size="10.00">std::basic_string&lt;</text>
<text text-anchor="middle" x="196" y="-403" font-family="Helvetica,sans-Serif" font-size="10.00"> Char &gt;</text>
</a>
</g>
</g>
<!-- Node4&#45;&gt;Node3 -->
<g id="edge3" class="edge">
<title>Node4&#45;&gt;Node3</title>
<path fill="none" stroke="midnightblue" d="M258.42,-405.93C318.72,-400.94 408.31,-393.54 455.6,-389.64"/>
<polygon fill="midnightblue" stroke="midnightblue" points="257.94,-402.45 248.27,-406.76 258.52,-409.43 257.94,-402.45"/>
</g>
<!-- Node5&#45;&gt;Node2 -->
<g id="edge4" class="edge">
<title>Node5&#45;&gt;Node2</title>
<path fill="none" stroke="#9a32cd" stroke-dasharray="5,2" d="M1366.25,-874.57C1400.16,-819.01 1500.64,-654.38 1526.09,-612.69"/>
<polygon fill="#9a32cd" stroke="#9a32cd" points="1363.11,-872.99 1360.89,-883.35 1369.09,-876.64 1363.11,-872.99"/>
<text text-anchor="middle" x="1439.5" y="-776" font-family="Helvetica,sans-Serif" font-size="10.00"> from</text>
</g>
<!-- Node6 -->
<g id="node6" class="node">
<title>Node6</title>
<g id="a_node6"><a xlink:href="classdpp_1_1websocket__client.html" target="_top" xlink:title="Implements a websocket client based on the SSL client.">
<polygon fill="none" stroke="black" points="1002,-1067.5 1002,-1086.5 1127,-1086.5 1127,-1067.5 1002,-1067.5"/>
<text text-anchor="middle" x="1064.5" y="-1074.5" font-family="Helvetica,sans-Serif" font-size="10.00">dpp::websocket_client</text>
</a>
</g>
</g>
<!-- Node6&#45;&gt;Node5 -->
<g id="edge5" class="edge">
<title>Node6&#45;&gt;Node5</title>
<path fill="none" stroke="midnightblue" d="M1137.47,-1086.2C1183.02,-1088.16 1240.86,-1083.11 1282,-1053 1333.75,-1015.13 1348.42,-930.99 1351.99,-902.58"/>
<polygon fill="midnightblue" stroke="midnightblue" points="1137.53,-1082.7 1127.35,-1085.64 1137.15,-1089.69 1137.53,-1082.7"/>
</g>
<!-- Node7&#45;&gt;Node6 -->
<g id="edge6" class="edge">
<title>Node7&#45;&gt;Node6</title>
<path fill="none" stroke="midnightblue" d="M803.27,-1190.65C844.67,-1168.42 928.01,-1125.16 1002,-1096 1010.73,-1092.56 1020.36,-1089.33 1029.35,-1086.54"/>
<polygon fill="midnightblue" stroke="midnightblue" points="801.52,-1187.62 794.38,-1195.45 804.85,-1193.78 801.52,-1187.62"/>
</g>
<!-- Node8 -->
<g id="node8" class="node">
<title>Node8</title>
<g id="a_node8"><a xlink:title=" ">
<polygon fill="none" stroke="#bfbfbf" points="469.5,-1061.5 469.5,-1080.5 507.5,-1080.5 507.5,-1061.5 469.5,-1061.5"/>
<text text-anchor="middle" x="488.5" y="-1068.5" font-family="Helvetica,sans-Serif" font-size="10.00">bool</text>
</a>
</g>
</g>
<!-- Node8&#45;&gt;Node2 -->
<g id="edge48" class="edge">
<title>Node8&#45;&gt;Node2</title>
<path fill="none" stroke="#9a32cd" stroke-dasharray="5,2" d="M517.81,-1071.03C557.96,-1071.5 633.63,-1073.95 697,-1085 956.35,-1130.22 1059.54,-1318.78 1282,-1178 1496.32,-1042.37 1527.61,-677.31 1531.5,-612.81"/>
<polygon fill="#9a32cd" stroke="#9a32cd" points="517.72,-1067.53 507.69,-1070.95 517.66,-1074.53 517.72,-1067.53"/>
<text text-anchor="middle" x="1064.5" y="-1232" font-family="Helvetica,sans-Serif" font-size="10.00"> cancelled</text>
</g>
<!-- Node8&#45;&gt;Node5 -->
<g id="edge15" class="edge">
<title>Node8&#45;&gt;Node5</title>
<path fill="none" stroke="#9a32cd" stroke-dasharray="5,2" d="M517.99,-1067.11C534.85,-1064.88 556.62,-1062.11 576,-1060 732.61,-1042.95 1145.99,-1075.48 1282,-996 1319.32,-974.19 1341.52,-924.05 1349.56,-902.8"/>
<polygon fill="#9a32cd" stroke="#9a32cd" points="517.15,-1063.7 507.7,-1068.49 518.08,-1070.63 517.15,-1063.7"/>
<text text-anchor="middle" x="919.5" y="-1066" font-family="Helvetica,sans-Serif" font-size="10.00"> ready</text>
<text text-anchor="middle" x="919.5" y="-1055" font-family="Helvetica,sans-Serif" font-size="10.00">terminating</text>
</g>
<!-- Node8&#45;&gt;Node7 -->
<g id="edge8" class="edge">
<title>Node8&#45;&gt;Node7</title>
<path fill="none" stroke="#9a32cd" stroke-dasharray="5,2" d="M514.8,-1085.47C531.79,-1094.86 554.85,-1106.98 576,-1116 628.23,-1138.28 645.61,-1132.86 697,-1157 720.75,-1168.16 746.28,-1184.87 761.44,-1195.35"/>
<polygon fill="#9a32cd" stroke="#9a32cd" points="516.48,-1082.4 506.04,-1080.57 513.06,-1088.51 516.48,-1082.4"/>
<text text-anchor="middle" x="636.5" y="-1193" font-family="Helvetica,sans-Serif" font-size="10.00"> keepalive</text>
<text text-anchor="middle" x="636.5" y="-1182" font-family="Helvetica,sans-Serif" font-size="10.00">make_new</text>
<text text-anchor="middle" x="636.5" y="-1171" font-family="Helvetica,sans-Serif" font-size="10.00">nonblocking</text>
<text text-anchor="middle" x="636.5" y="-1160" font-family="Helvetica,sans-Serif" font-size="10.00">plaintext</text>
</g>
<!-- Node9 -->
<g id="node9" class="node">
<title>Node9</title>
<g id="a_node9"><a xlink:title=" ">
<polygon fill="none" stroke="#bfbfbf" points="474,-1353.5 474,-1372.5 503,-1372.5 503,-1353.5 474,-1353.5"/>
<text text-anchor="middle" x="488.5" y="-1360.5" font-family="Helvetica,sans-Serif" font-size="10.00">int</text>
</a>
</g>
</g>
<!-- Node9&#45;&gt;Node7 -->
<g id="edge9" class="edge">
<title>Node9&#45;&gt;Node7</title>
<path fill="none" stroke="#9a32cd" stroke-dasharray="5,2" d="M513.11,-1366.98C554.15,-1372.59 639.74,-1378.34 697,-1341 744.2,-1310.22 766.07,-1240.3 772.71,-1214.66"/>
<polygon fill="#9a32cd" stroke="#9a32cd" points="513.41,-1363.49 503,-1365.48 512.38,-1370.41 513.41,-1363.49"/>
<text text-anchor="middle" x="636.5" y="-1373" font-family="Helvetica,sans-Serif" font-size="10.00"> sfd</text>
</g>
<!-- Node10 -->
<g id="node10" class="node">
<title>Node10</title>
<g id="a_node10"><a xlink:title=" ">
<polygon fill="none" stroke="#bfbfbf" points="428,-1315.5 428,-1334.5 549,-1334.5 549,-1315.5 428,-1315.5"/>
<text text-anchor="middle" x="488.5" y="-1322.5" font-family="Helvetica,sans-Serif" font-size="10.00">openssl_connection *</text>
</a>
</g>
</g>
<!-- Node10&#45;&gt;Node7 -->
<g id="edge10" class="edge">
<title>Node10&#45;&gt;Node7</title>
<path fill="none" stroke="#9a32cd" stroke-dasharray="5,2" d="M559.64,-1329.77C601.84,-1329.62 655.29,-1323.88 697,-1301 734.09,-1280.65 760.29,-1234.77 770.39,-1214.7"/>
<polygon fill="#9a32cd" stroke="#9a32cd" points="559.46,-1326.27 549.44,-1329.7 559.41,-1333.27 559.46,-1326.27"/>
<text text-anchor="middle" x="636.5" y="-1332" font-family="Helvetica,sans-Serif" font-size="10.00"> ssl</text>
</g>
<!-- Node11 -->
<g id="node11" class="node">
<title>Node11</title>
<g id="a_node11"><a xlink:title=" ">
<polygon fill="none" stroke="#bfbfbf" points="464.5,-991.5 464.5,-1010.5 512.5,-1010.5 512.5,-991.5 464.5,-991.5"/>
<text text-anchor="middle" x="488.5" y="-998.5" font-family="Helvetica,sans-Serif" font-size="10.00">time_t</text>
</a>
</g>
</g>
<!-- Node11&#45;&gt;Node5 -->
<g id="edge40" class="edge">
<title>Node11&#45;&gt;Node5</title>
<path fill="none" stroke="#9a32cd" stroke-dasharray="5,2" d="M523.08,-1000.74C669.62,-999.53 1247.38,-993.71 1282,-977 1315.36,-960.9 1338.93,-920.96 1348.39,-902.56"/>
<polygon fill="#9a32cd" stroke="#9a32cd" points="522.87,-997.25 512.9,-1000.83 522.93,-1004.25 522.87,-997.25"/>
<text text-anchor="middle" x="919.5" y="-1010" font-family="Helvetica,sans-Serif" font-size="10.00"> last_heartbeat</text>
<text text-anchor="middle" x="919.5" y="-999" font-family="Helvetica,sans-Serif" font-size="10.00">last_heartbeat_ack</text>
</g>
<!-- Node11&#45;&gt;Node7 -->
<g id="edge11" class="edge">
<title>Node11&#45;&gt;Node7</title>
<path fill="none" stroke="#9a32cd" stroke-dasharray="5,2" d="M522.11,-1011.7C565.38,-1027.01 642.6,-1058.34 697,-1103 730.77,-1130.73 758.55,-1175.79 769.72,-1195.39"/>
<polygon fill="#9a32cd" stroke="#9a32cd" points="523.25,-1008.38 512.65,-1008.41 520.95,-1015 523.25,-1008.38"/>
<text text-anchor="middle" x="636.5" y="-1106" font-family="Helvetica,sans-Serif" font-size="10.00"> last_tick</text>
</g>
<!-- Node11&#45;&gt;Node15 -->
<g id="edge18" class="edge">
<title>Node11&#45;&gt;Node15</title>
<path fill="none" stroke="#9a32cd" stroke-dasharray="5,2" d="M522.91,-994.47C578.64,-983.27 685.6,-960.31 697,-947 723.01,-916.64 687.73,-797.23 715,-768 797.75,-679.32 884.61,-791.51 984,-722 1031.16,-689.02 1054.03,-618.49 1061.06,-592.7"/>
<polygon fill="#9a32cd" stroke="#9a32cd" points="521.94,-991.1 512.82,-996.48 523.31,-997.96 521.94,-991.1"/>
<text text-anchor="middle" x="776" y="-771" font-family="Helvetica,sans-Serif" font-size="10.00"> last_identify</text>
</g>
<!-- Node12 -->
<g id="node12" class="node">
<title>Node12</title>
<g id="a_node12"><a xlink:title=" ">
<polygon fill="none" stroke="#bfbfbf" points="0,-780.5 0,-799.5 56,-799.5 56,-780.5 0,-780.5"/>
<text text-anchor="middle" x="28" y="-787.5" font-family="Helvetica,sans-Serif" font-size="10.00">uint64_t</text>
</a>
</g>
</g>
<!-- Node12&#45;&gt;Node5 -->
<g id="edge42" class="edge">
<title>Node12&#45;&gt;Node5</title>
<path fill="none" stroke="#9a32cd" stroke-dasharray="5,2" d="M64.88,-802.85C190.37,-846.35 621.61,-983.75 984,-954 1102.91,-944.24 1241.23,-917.06 1309.83,-902.5"/>
<polygon fill="#9a32cd" stroke="#9a32cd" points="65.96,-799.52 55.37,-799.53 63.65,-806.13 65.96,-799.52"/>
<text text-anchor="middle" x="636.5" y="-950" font-family="Helvetica,sans-Serif" font-size="10.00"> last_seq</text>
</g>
<!-- Node12&#45;&gt;Node7 -->
<g id="edge12" class="edge">
<title>Node12&#45;&gt;Node7</title>
<path fill="none" stroke="#9a32cd" stroke-dasharray="5,2" d="M31.1,-809.79C35.19,-841.31 46.35,-903.91 74,-949 183.19,-1127.02 224.78,-1191.25 419,-1268 533.91,-1313.41 580.66,-1310.62 697,-1269 727.35,-1258.14 754.37,-1229.83 767.16,-1214.76"/>
<polygon fill="#9a32cd" stroke="#9a32cd" points="34.56,-809.2 29.9,-799.68 27.61,-810.02 34.56,-809.2"/>
<text text-anchor="middle" x="342" y="-1273" font-family="Helvetica,sans-Serif" font-size="10.00"> bytes_in</text>
<text text-anchor="middle" x="342" y="-1262" font-family="Helvetica,sans-Serif" font-size="10.00">bytes_out</text>
</g>
<!-- Node20 -->
<g id="node20" class="node">
<title>Node20</title>
<g id="a_node20"><a xlink:href="classdpp_1_1snowflake.html" target="_top" xlink:title="A container for a 64 bit unsigned value representing many things on discord. This value is known in d...">
<polygon fill="none" stroke="black" points="151.5,-357.5 151.5,-376.5 240.5,-376.5 240.5,-357.5 151.5,-357.5"/>
<text text-anchor="middle" x="196" y="-364.5" font-family="Helvetica,sans-Serif" font-size="10.00">dpp::snowflake</text>
</a>
</g>
</g>
<!-- Node12&#45;&gt;Node20 -->
<g id="edge24" class="edge">
<title>Node12&#45;&gt;Node20</title>
<path fill="none" stroke="#9a32cd" stroke-dasharray="5,2" d="M31.19,-770C39.61,-696.51 72.26,-442.66 127,-386 133.56,-379.21 142.32,-374.79 151.37,-371.92"/>
<polygon fill="#9a32cd" stroke="#9a32cd" points="27.68,-769.86 30.04,-780.19 34.64,-770.64 27.68,-769.86"/>
<text text-anchor="middle" x="91.5" y="-516" font-family="Helvetica,sans-Serif" font-size="10.00"> value</text>
</g>
<!-- Node23 -->
<g id="node23" class="node">
<title>Node23</title>
<g id="a_node23"><a xlink:href="structdpp_1_1utility_1_1iconhash.html" target="_top" xlink:title="Store a 128 bit icon hash (profile picture, server icon etc) as a 128 bit binary value made of two ui...">
<polygon fill="none" stroke="black" points="283,-439.5 283,-458.5 401,-458.5 401,-439.5 283,-439.5"/>
<text text-anchor="middle" x="342" y="-446.5" font-family="Helvetica,sans-Serif" font-size="10.00">dpp::utility::iconhash</text>
</a>
</g>
</g>
<!-- Node12&#45;&gt;Node23 -->
<g id="edge29" class="edge">
<title>Node12&#45;&gt;Node23</title>
<path fill="none" stroke="#9a32cd" stroke-dasharray="5,2" d="M37.92,-771.3C65.66,-715.22 156.24,-547.23 283,-464 286.22,-461.89 289.72,-460.07 293.35,-458.51"/>
<polygon fill="#9a32cd" stroke="#9a32cd" points="34.71,-769.9 33.47,-780.42 41,-772.97 34.71,-769.9"/>
<text text-anchor="middle" x="91.5" y="-718" font-family="Helvetica,sans-Serif" font-size="10.00"> first</text>
<text text-anchor="middle" x="91.5" y="-707" font-family="Helvetica,sans-Serif" font-size="10.00">second</text>
</g>
<!-- Node13 -->
<g id="node13" class="node">
<title>Node13</title>
<g id="a_node13"><a xlink:title=" ">
<polygon fill="none" stroke="#bfbfbf" points="419,-1239.5 419,-1258.5 558,-1258.5 558,-1239.5 419,-1239.5"/>
<text text-anchor="middle" x="488.5" y="-1246.5" font-family="Helvetica,sans-Serif" font-size="10.00">function&lt; dpp::socket()&gt;</text>
</a>
</g>
</g>
<!-- Node13&#45;&gt;Node7 -->
<g id="edge13" class="edge">
<title>Node13&#45;&gt;Node7</title>
<path fill="none" stroke="#9a32cd" stroke-dasharray="5,2" d="M568.42,-1244.48C607.38,-1241.37 654.93,-1236.26 697,-1228 713.9,-1224.68 732.41,-1219.3 747.15,-1214.58"/>
<polygon fill="#9a32cd" stroke="#9a32cd" points="567.9,-1241.01 558.19,-1245.26 568.43,-1247.99 567.9,-1241.01"/>
<text text-anchor="middle" x="636.5" y="-1257" font-family="Helvetica,sans-Serif" font-size="10.00"> custom_readable_fd</text>
<text text-anchor="middle" x="636.5" y="-1246" font-family="Helvetica,sans-Serif" font-size="10.00">custom_writeable_fd</text>
</g>
<!-- Node14 -->
<g id="node14" class="node">
<title>Node14</title>
<g id="a_node14"><a xlink:title=" ">
<polygon fill="none" stroke="#bfbfbf" points="436.5,-1195.5 436.5,-1214.5 540.5,-1214.5 540.5,-1195.5 436.5,-1195.5"/>
<text text-anchor="middle" x="488.5" y="-1202.5" font-family="Helvetica,sans-Serif" font-size="10.00">function&lt; void()&gt;</text>
</a>
</g>
</g>
<!-- Node14&#45;&gt;Node7 -->
<g id="edge14" class="edge">
<title>Node14&#45;&gt;Node7</title>
<path fill="none" stroke="#9a32cd" stroke-dasharray="5,2" d="M550.84,-1205C605.7,-1205 684.68,-1205 732.76,-1205"/>
<polygon fill="#9a32cd" stroke="#9a32cd" points="550.54,-1201.5 540.54,-1205 550.54,-1208.5 550.54,-1201.5"/>
<text text-anchor="middle" x="636.5" y="-1219" font-family="Helvetica,sans-Serif" font-size="10.00"> custom_readable_ready</text>
<text text-anchor="middle" x="636.5" y="-1208" font-family="Helvetica,sans-Serif" font-size="10.00">custom_writeable_ready</text>
</g>
<!-- Node15&#45;&gt;Node5 -->
<g id="edge16" class="edge">
<title>Node15&#45;&gt;Node5</title>
<path fill="none" stroke="#9a32cd" stroke-dasharray="5,2" d="M1086.38,-599.12C1127.03,-631.14 1218.4,-706.22 1282,-782 1310.83,-816.34 1337.13,-863.16 1347.88,-883.23"/>
<polygon fill="#9a32cd" stroke="#9a32cd" points="1088.31,-596.19 1078.28,-592.79 1084,-601.7 1088.31,-596.19"/>
<text text-anchor="middle" x="1213.5" y="-785" font-family="Helvetica,sans-Serif" font-size="10.00"> creator</text>
</g>
<!-- Node16 -->
<g id="node16" class="node">
<title>Node16</title>
<g id="a_node16"><a xlink:title=" ">
<polygon fill="none" stroke="#bfbfbf" points="460.5,-703.5 460.5,-722.5 516.5,-722.5 516.5,-703.5 460.5,-703.5"/>
<text text-anchor="middle" x="488.5" y="-710.5" font-family="Helvetica,sans-Serif" font-size="10.00">uint32_t</text>
</a>
</g>
</g>
<!-- Node16&#45;&gt;Node5 -->
<g id="edge39" class="edge">
<title>Node16&#45;&gt;Node5</title>
<path fill="none" stroke="#9a32cd" stroke-dasharray="5,2" d="M507.26,-730.04C543.08,-763.14 627.99,-835.38 715,-864 769.77,-882.01 1156.72,-889.9 1299.9,-892.22"/>
<polygon fill="#9a32cd" stroke="#9a32cd" points="509.31,-727.16 499.62,-722.88 504.52,-732.27 509.31,-727.16"/>
<text text-anchor="middle" x="919.5" y="-942" font-family="Helvetica,sans-Serif" font-size="10.00"> heartbeat_interval</text>
<text text-anchor="middle" x="919.5" y="-931" font-family="Helvetica,sans-Serif" font-size="10.00">intents</text>
<text text-anchor="middle" x="919.5" y="-920" font-family="Helvetica,sans-Serif" font-size="10.00">max_shards</text>
<text text-anchor="middle" x="919.5" y="-909" font-family="Helvetica,sans-Serif" font-size="10.00">reconnects</text>
<text text-anchor="middle" x="919.5" y="-898" font-family="Helvetica,sans-Serif" font-size="10.00">resumes</text>
<text text-anchor="middle" x="919.5" y="-887" font-family="Helvetica,sans-Serif" font-size="10.00">shard_id</text>
</g>
<!-- Node16&#45;&gt;Node15 -->
<g id="edge19" class="edge">
<title>Node16&#45;&gt;Node15</title>
<path fill="none" stroke="#9a32cd" stroke-dasharray="5,2" d="M526.62,-722.5C572.35,-731.8 649.79,-739.34 697,-699 724.38,-675.61 690.15,-646.06 715,-620 759.57,-573.25 791,-589.75 855,-581 914.9,-572.81 985.37,-576.16 1027.14,-579.47"/>
<polygon fill="#9a32cd" stroke="#9a32cd" points="527.32,-719.07 516.81,-720.38 525.85,-725.91 527.32,-719.07"/>
<text text-anchor="middle" x="776" y="-656" font-family="Helvetica,sans-Serif" font-size="10.00"> cluster_id</text>
<text text-anchor="middle" x="776" y="-645" font-family="Helvetica,sans-Serif" font-size="10.00">intents</text>
<text text-anchor="middle" x="776" y="-634" font-family="Helvetica,sans-Serif" font-size="10.00">maxclusters</text>
<text text-anchor="middle" x="776" y="-623" font-family="Helvetica,sans-Serif" font-size="10.00">numshards</text>
</g>
<!-- Node16&#45;&gt;Node18 -->
<g id="edge30" class="edge">
<title>Node16&#45;&gt;Node18</title>
<path fill="none" stroke="#9a32cd" stroke-dasharray="5,2" d="M526.22,-701.56C541.53,-697.01 559.54,-691.93 576,-688 629.24,-675.28 660.35,-705.66 697,-665 728.81,-629.72 685.35,-489.11 715,-452 722.23,-442.95 733.76,-438.14 744.79,-435.61"/>
<polygon fill="#9a32cd" stroke="#9a32cd" points="525.16,-698.23 516.6,-704.46 527.18,-704.93 525.16,-698.23"/>
<text text-anchor="middle" x="636.5" y="-691" font-family="Helvetica,sans-Serif" font-size="10.00"> flags</text>
</g>
<!-- Node17 -->
<g id="node17" class="node">
<title>Node17</title>
<g id="a_node17"><a xlink:title=" ">
<polygon fill="none" stroke="#bfbfbf" points="751,-788.5 751,-807.5 801,-807.5 801,-788.5 751,-788.5"/>
<text text-anchor="middle" x="776" y="-795.5" font-family="Helvetica,sans-Serif" font-size="10.00">double</text>
</a>
</g>
</g>
<!-- Node17&#45;&gt;Node5 -->
<g id="edge45" class="edge">
<title>Node17&#45;&gt;Node5</title>
<path fill="none" stroke="#9a32cd" stroke-dasharray="5,2" d="M811,-806.39C824.61,-809.49 840.48,-812.79 855,-815 1043.65,-843.76 1098.86,-806.37 1282,-860 1301.31,-865.65 1322.02,-875.8 1336.06,-883.35"/>
<polygon fill="#9a32cd" stroke="#9a32cd" points="811.63,-802.94 801.1,-804.08 810.04,-809.76 811.63,-802.94"/>
<text text-anchor="middle" x="1064.5" y="-833" font-family="Helvetica,sans-Serif" font-size="10.00"> websocket_ping</text>
</g>
<!-- Node17&#45;&gt;Node15 -->
<g id="edge20" class="edge">
<title>Node17&#45;&gt;Node15</title>
<path fill="none" stroke="#9a32cd" stroke-dasharray="5,2" d="M810.08,-784.73C823.81,-779.59 840.01,-774 855,-770 911.27,-755 937.57,-782.15 984,-747 1037.23,-706.71 1056.72,-621.42 1061.93,-592.69"/>
<polygon fill="#9a32cd" stroke="#9a32cd" points="808.66,-781.53 800.57,-788.37 811.16,-788.07 808.66,-781.53"/>
<text text-anchor="middle" x="919.5" y="-773" font-family="Helvetica,sans-Serif" font-size="10.00"> rest_ping</text>
</g>
<!-- Node18&#45;&gt;Node15 -->
<g id="edge21" class="edge">
<title>Node18&#45;&gt;Node15</title>
<path fill="none" stroke="#9a32cd" stroke-dasharray="5,2" d="M817.48,-429.14C870.76,-425.02 960.43,-421.66 984,-443 1024.31,-479.49 966.58,-522.75 1002,-564 1008.48,-571.55 1017.89,-576.14 1027.4,-578.93"/>
<polygon fill="#9a32cd" stroke="#9a32cd" points="817.02,-425.67 807.34,-429.97 817.59,-432.65 817.02,-425.67"/>
<text text-anchor="middle" x="919.5" y="-446" font-family="Helvetica,sans-Serif" font-size="10.00"> me</text>
</g>
<!-- Node19 -->
<g id="node19" class="node">
<title>Node19</title>
<g id="a_node19"><a xlink:href="classdpp_1_1managed.html" target="_top" xlink:title="The managed class is the base class for various types that can be stored in a cache that are identifi...">
<polygon fill="none" stroke="black" points="445.5,-511.5 445.5,-530.5 531.5,-530.5 531.5,-511.5 445.5,-511.5"/>
<text text-anchor="middle" x="488.5" y="-518.5" font-family="Helvetica,sans-Serif" font-size="10.00">dpp::managed</text>
</a>
</g>
</g>
<!-- Node19&#45;&gt;Node18 -->
<g id="edge22" class="edge">
<title>Node19&#45;&gt;Node18</title>
<path fill="none" stroke="midnightblue" d="M541.6,-520.74C586.23,-518.2 650.47,-508.81 697,-478 708.72,-470.24 703.69,-460.35 715,-452 723.7,-445.58 734.65,-441.28 744.8,-438.42"/>
<polygon fill="midnightblue" stroke="midnightblue" points="541.37,-517.25 531.55,-521.22 541.7,-524.24 541.37,-517.25"/>
</g>
<!-- Node20&#45;&gt;Node19 -->
<g id="edge23" class="edge">
<title>Node20&#45;&gt;Node19</title>
<path fill="none" stroke="#9a32cd" stroke-dasharray="5,2" d="M250.28,-375.56C255.77,-378.2 260.85,-381.61 265,-386 290.63,-413.12 257.12,-441.13 283,-468 325.24,-511.85 398.68,-521.12 445.11,-522.21"/>
<polygon fill="#9a32cd" stroke="#9a32cd" points="251.32,-372.21 240.74,-371.82 248.76,-378.73 251.32,-372.21"/>
<text text-anchor="middle" x="342" y="-521" font-family="Helvetica,sans-Serif" font-size="10.00"> id</text>
</g>
<!-- Node20&#45;&gt;Node34 -->
<g id="edge52" class="edge">
<title>Node20&#45;&gt;Node34</title>
<path fill="none" stroke="#9a32cd" stroke-dasharray="5,2" d="M212.66,-349.48C246.35,-313.05 329.92,-229.36 419,-191 533.65,-141.63 573.9,-171.68 697,-151 706.93,-149.33 717.54,-147.4 727.63,-145.48"/>
<polygon fill="#9a32cd" stroke="#9a32cd" points="209.7,-347.53 205.54,-357.28 214.87,-352.25 209.7,-347.53"/>
<text text-anchor="middle" x="488.5" y="-216" font-family="Helvetica,sans-Serif" font-size="10.00"> id</text>
<text text-anchor="middle" x="488.5" y="-205" font-family="Helvetica,sans-Serif" font-size="10.00">target_id</text>
<text text-anchor="middle" x="488.5" y="-194" font-family="Helvetica,sans-Serif" font-size="10.00">user_id</text>
</g>
<!-- Node21 -->
<g id="node21" class="node">
<title>Node21</title>
<g id="a_node21"><a xlink:href="structdpp_1_1json__interface.html" target="_top" xlink:title=" ">
<polygon fill="none" stroke="black" points="433.5,-298 433.5,-328 543.5,-328 543.5,-298 433.5,-298"/>
<text text-anchor="start" x="441.5" y="-316" font-family="Helvetica,sans-Serif" font-size="10.00">dpp::json_interface</text>
<text text-anchor="middle" x="488.5" y="-305" font-family="Helvetica,sans-Serif" font-size="10.00">&lt; user &gt;</text>
</a>
</g>
</g>
<!-- Node21&#45;&gt;Node18 -->
<g id="edge25" class="edge">
<title>Node21&#45;&gt;Node18</title>
<path fill="none" stroke="midnightblue" d="M553.39,-328.56C595.38,-339.99 650.87,-357.46 697,-380 722.15,-392.29 748.51,-411.81 763.23,-423.42"/>
<polygon fill="midnightblue" stroke="midnightblue" points="554.13,-325.13 543.57,-325.92 552.32,-331.89 554.13,-325.13"/>
</g>
<!-- Node22 -->
<g id="node22" class="node">
<title>Node22</title>
<g id="a_node22"><a xlink:href="structdpp_1_1json__interface.html" target="_top" xlink:title="Represents an interface for an object that can optionally implement functions for converting to and f...">
<polygon fill="none" stroke="black" points="127,-107.5 127,-126.5 265,-126.5 265,-107.5 127,-107.5"/>
<text text-anchor="middle" x="196" y="-114.5" font-family="Helvetica,sans-Serif" font-size="10.00">dpp::json_interface&lt; T &gt;</text>
</a>
</g>
</g>
<!-- Node22&#45;&gt;Node21 -->
<g id="edge26" class="edge">
<title>Node22&#45;&gt;Node21</title>
<path fill="none" stroke="orange" stroke-dasharray="5,2" d="M220.01,-132.53C274.53,-169.31 411,-261.39 465,-297.82"/>
<polygon fill="orange" stroke="orange" points="221.65,-129.41 211.41,-126.72 217.74,-135.21 221.65,-129.41"/>
<text text-anchor="middle" x="342" y="-253" font-family="Helvetica,sans-Serif" font-size="10.00"> &lt; user &gt;</text>
</g>
<!-- Node35 -->
<g id="node35" class="node">
<title>Node35</title>
<g id="a_node35"><a xlink:href="structdpp_1_1json__interface.html" target="_top" xlink:title=" ">
<polygon fill="none" stroke="black" points="433.5,-77 433.5,-107 543.5,-107 543.5,-77 433.5,-77"/>
<text text-anchor="start" x="441.5" y="-95" font-family="Helvetica,sans-Serif" font-size="10.00">dpp::json_interface</text>
<text text-anchor="middle" x="488.5" y="-84" font-family="Helvetica,sans-Serif" font-size="10.00">&lt; audit_entry &gt;</text>
</a>
</g>
</g>
<!-- Node22&#45;&gt;Node35 -->
<g id="edge51" class="edge">
<title>Node22&#45;&gt;Node35</title>
<path fill="none" stroke="orange" stroke-dasharray="5,2" d="M275.25,-110.27C325.28,-105.96 388.9,-100.49 433.39,-96.66"/>
<polygon fill="orange" stroke="orange" points="274.77,-106.79 265.11,-111.14 275.37,-113.77 274.77,-106.79"/>
<text text-anchor="middle" x="342" y="-112" font-family="Helvetica,sans-Serif" font-size="10.00"> &lt; audit_entry &gt;</text>
</g>
<!-- Node23&#45;&gt;Node18 -->
<g id="edge28" class="edge">
<title>Node23&#45;&gt;Node18</title>
<path fill="none" stroke="#9a32cd" stroke-dasharray="5,2" d="M411.24,-442.5C413.86,-442.32 416.45,-442.15 419,-442 539.66,-434.93 683.65,-433.41 744.97,-433.09"/>
<polygon fill="#9a32cd" stroke="#9a32cd" points="410.78,-439.02 401.06,-443.25 411.29,-446 410.78,-439.02"/>
<text text-anchor="middle" x="488.5" y="-456" font-family="Helvetica,sans-Serif" font-size="10.00"> avatar</text>
<text text-anchor="middle" x="488.5" y="-445" font-family="Helvetica,sans-Serif" font-size="10.00">avatar_decoration</text>
</g>
<!-- Node24 -->
<g id="node24" class="node">
<title>Node24</title>
<g id="a_node24"><a xlink:title=" ">
<polygon fill="none" stroke="#bfbfbf" points="460.5,-557.5 460.5,-576.5 516.5,-576.5 516.5,-557.5 460.5,-557.5"/>
<text text-anchor="middle" x="488.5" y="-564.5" font-family="Helvetica,sans-Serif" font-size="10.00">uint16_t</text>
</a>
</g>
</g>
<!-- Node24&#45;&gt;Node15 -->
<g id="edge37" class="edge">
<title>Node24&#45;&gt;Node15</title>
<path fill="none" stroke="#9a32cd" stroke-dasharray="5,2" d="M526.89,-565.95C568.44,-564.78 637.52,-562.8 697,-561 824.52,-557.14 859.2,-529.52 984,-556 992.56,-557.82 993.8,-560.92 1002,-564 1011,-567.38 1020.89,-570.63 1030.06,-573.46"/>
<polygon fill="#9a32cd" stroke="#9a32cd" points="526.59,-562.46 516.69,-566.24 526.79,-569.45 526.59,-562.46"/>
<text text-anchor="middle" x="776" y="-563" font-family="Helvetica,sans-Serif" font-size="10.00"> request_timeout</text>
</g>
<!-- Node24&#45;&gt;Node18 -->
<g id="edge31" class="edge">
<title>Node24&#45;&gt;Node18</title>
<path fill="none" stroke="#9a32cd" stroke-dasharray="5,2" d="M526.54,-559.04C582.82,-546.66 684.66,-522.94 697,-511 716.7,-491.93 695.72,-471.49 715,-452 722.92,-444 734.17,-439.36 744.81,-436.68"/>
<polygon fill="#9a32cd" stroke="#9a32cd" points="525.62,-555.66 516.59,-561.22 527.11,-562.5 525.62,-555.66"/>
<text text-anchor="middle" x="636.5" y="-549" font-family="Helvetica,sans-Serif" font-size="10.00"> discriminator</text>
</g>
<!-- Node25 -->
<g id="node25" class="node">
<title>Node25</title>
<g id="a_node25"><a xlink:title=" ">
<polygon fill="none" stroke="#bfbfbf" points="463.5,-473.5 463.5,-492.5 513.5,-492.5 513.5,-473.5 463.5,-473.5"/>
<text text-anchor="middle" x="488.5" y="-480.5" font-family="Helvetica,sans-Serif" font-size="10.00">uint8_t</text>
</a>
</g>
</g>
<!-- Node25&#45;&gt;Node18 -->
<g id="edge32" class="edge">
<title>Node25&#45;&gt;Node18</title>
<path fill="none" stroke="#9a32cd" stroke-dasharray="5,2" d="M523.64,-476.57C539.55,-473.61 558.73,-470.07 576,-467 635.87,-456.35 705.99,-444.52 744.97,-438"/>
<polygon fill="#9a32cd" stroke="#9a32cd" points="522.91,-473.15 513.72,-478.43 524.19,-480.03 522.91,-473.15"/>
<text text-anchor="middle" x="636.5" y="-470" font-family="Helvetica,sans-Serif" font-size="10.00"> refcount</text>
</g>
<!-- Node26 -->
<g id="node26" class="node">
<title>Node26</title>
<g id="a_node26"><a xlink:href="structdpp_1_1cache__policy__t.html" target="_top" xlink:title="Represents the caching policy of the cluster.">
<polygon fill="none" stroke="black" points="719.5,-249.5 719.5,-268.5 832.5,-268.5 832.5,-249.5 719.5,-249.5"/>
<text text-anchor="middle" x="776" y="-256.5" font-family="Helvetica,sans-Serif" font-size="10.00">dpp::cache_policy_t</text>
</a>
</g>
</g>
<!-- Node26&#45;&gt;Node15 -->
<g id="edge33" class="edge">
<title>Node26&#45;&gt;Node15</title>
<path fill="none" stroke="#9a32cd" stroke-dasharray="5,2" d="M842.51,-268.67C889.88,-279.35 951.11,-301.5 984,-347 1012.34,-386.22 971.69,-526.28 1002,-564 1008.3,-571.84 1017.77,-576.52 1027.41,-579.28"/>
<polygon fill="#9a32cd" stroke="#9a32cd" points="843.13,-265.23 832.62,-266.56 841.67,-272.07 843.13,-265.23"/>
<text text-anchor="middle" x="919.5" y="-350" font-family="Helvetica,sans-Serif" font-size="10.00"> cache_policy</text>
</g>
<!-- Node27 -->
<g id="node27" class="node">
<title>Node27</title>
<g id="a_node27"><a xlink:title=" ">
<polygon fill="none" stroke="#bfbfbf" points="424.5,-233.5 424.5,-252.5 552.5,-252.5 552.5,-233.5 424.5,-233.5"/>
<text text-anchor="middle" x="488.5" y="-240.5" font-family="Helvetica,sans-Serif" font-size="10.00">cache_policy_setting_t</text>
</a>
</g>
</g>
<!-- Node27&#45;&gt;Node26 -->
<g id="edge34" class="edge">
<title>Node27&#45;&gt;Node26</title>
<path fill="none" stroke="#9a32cd" stroke-dasharray="5,2" d="M562.91,-240.05C602.69,-239.29 652.64,-239.67 697,-244 708.8,-245.15 721.48,-247.22 733.11,-249.47"/>
<polygon fill="#9a32cd" stroke="#9a32cd" points="562.69,-236.56 552.77,-240.28 562.84,-243.56 562.69,-236.56"/>
<text text-anchor="middle" x="636.5" y="-291" font-family="Helvetica,sans-Serif" font-size="10.00"> channel_policy</text>
<text text-anchor="middle" x="636.5" y="-280" font-family="Helvetica,sans-Serif" font-size="10.00">emoji_policy</text>
<text text-anchor="middle" x="636.5" y="-269" font-family="Helvetica,sans-Serif" font-size="10.00">guild_policy</text>
<text text-anchor="middle" x="636.5" y="-258" font-family="Helvetica,sans-Serif" font-size="10.00">role_policy</text>
<text text-anchor="middle" x="636.5" y="-247" font-family="Helvetica,sans-Serif" font-size="10.00">user_policy</text>
</g>
<!-- Node28 -->
<g id="node28" class="node">
<title>Node28</title>
<g id="a_node28"><a xlink:title=" ">
<polygon fill="none" stroke="#bfbfbf" points="715,-835.5 715,-854.5 837,-854.5 837,-835.5 715,-835.5"/>
<text text-anchor="middle" x="776" y="-842.5" font-family="Helvetica,sans-Serif" font-size="10.00">websocket_protocol_t</text>
</a>
</g>
</g>
<!-- Node28&#45;&gt;Node5 -->
<g id="edge46" class="edge">
<title>Node28&#45;&gt;Node5</title>
<path fill="none" stroke="#9a32cd" stroke-dasharray="5,2" d="M847.17,-846.82C944.97,-850.02 1127.64,-858.38 1282,-879 1290.84,-880.18 1300.24,-881.78 1309.21,-883.48"/>
<polygon fill="#9a32cd" stroke="#9a32cd" points="847.22,-843.32 837.11,-846.5 847,-850.32 847.22,-843.32"/>
<text text-anchor="middle" x="1064.5" y="-865" font-family="Helvetica,sans-Serif" font-size="10.00"> protocol</text>
</g>
<!-- Node28&#45;&gt;Node15 -->
<g id="edge35" class="edge">
<title>Node28&#45;&gt;Node15</title>
<path fill="none" stroke="#9a32cd" stroke-dasharray="5,2" d="M833.92,-833.18C887.26,-821.1 961.97,-801.29 984,-781 1042.3,-727.29 1058.68,-625.02 1062.49,-592.9"/>
<polygon fill="#9a32cd" stroke="#9a32cd" points="832.9,-829.82 823.9,-835.42 834.42,-836.65 832.9,-829.82"/>
<text text-anchor="middle" x="919.5" y="-831" font-family="Helvetica,sans-Serif" font-size="10.00"> ws_mode</text>
</g>
<!-- Node29 -->
<g id="node29" class="node">
<title>Node29</title>
<g id="a_node29"><a xlink:title=" ">
<polygon fill="none" stroke="#bfbfbf" points="722.5,-461.5 722.5,-480.5 829.5,-480.5 829.5,-461.5 722.5,-461.5"/>
<text text-anchor="middle" x="776" y="-468.5" font-family="Helvetica,sans-Serif" font-size="10.00">condition_variable</text>
</a>
</g>
</g>
<!-- Node29&#45;&gt;Node15 -->
<g id="edge36" class="edge">
<title>Node29&#45;&gt;Node15</title>
<path fill="none" stroke="#9a32cd" stroke-dasharray="5,2" d="M835.89,-460.27C881.65,-455.49 943.88,-457.27 984,-492 1008.94,-513.59 979.32,-540.05 1002,-564 1008.68,-571.06 1017.93,-575.52 1027.22,-578.32"/>
<polygon fill="#9a32cd" stroke="#9a32cd" points="835.33,-456.81 825.81,-461.46 836.15,-463.76 835.33,-456.81"/>
<text text-anchor="middle" x="919.5" y="-495" font-family="Helvetica,sans-Serif" font-size="10.00"> terminating</text>
</g>
<!-- Node30 -->
<g id="node30" class="node">
<title>Node30</title>
<g id="a_node30"><a xlink:title=" ">
<polygon fill="none" stroke="#bfbfbf" points="728,-673.5 728,-692.5 824,-692.5 824,-673.5 728,-673.5"/>
<text text-anchor="middle" x="776" y="-680.5" font-family="Helvetica,sans-Serif" font-size="10.00">event_router_t&lt;</text>
</a>
</g>
</g>
<!-- Node30&#45;&gt;Node15 -->
<g id="edge38" class="edge">
<title>Node30&#45;&gt;Node15</title>
<path fill="none" stroke="#9a32cd" stroke-dasharray="5,2" d="M824.72,-668.76C829.26,-666.04 833.48,-662.82 837,-659 855.31,-639.17 833.98,-617.93 855,-601 880.68,-580.32 974.75,-579.92 1027.33,-581.43"/>
<polygon fill="#9a32cd" stroke="#9a32cd" points="823,-665.71 815.7,-673.38 826.19,-671.94 823,-665.71"/>
<text text-anchor="middle" x="919.5" y="-714" font-family="Helvetica,sans-Serif" font-size="10.00"> on_autocomplete</text>
<text text-anchor="middle" x="919.5" y="-703" font-family="Helvetica,sans-Serif" font-size="10.00">on_automod_rule_create</text>
<text text-anchor="middle" x="919.5" y="-692" font-family="Helvetica,sans-Serif" font-size="10.00">on_automod_rule_delete</text>
<text text-anchor="middle" x="919.5" y="-681" font-family="Helvetica,sans-Serif" font-size="10.00">on_automod_rule_execute</text>
<text text-anchor="middle" x="919.5" y="-670" font-family="Helvetica,sans-Serif" font-size="10.00">on_automod_rule_update</text>
<text text-anchor="middle" x="919.5" y="-659" font-family="Helvetica,sans-Serif" font-size="10.00">on_button_click</text>
<text text-anchor="middle" x="919.5" y="-648" font-family="Helvetica,sans-Serif" font-size="10.00">on_channel_create</text>
<text text-anchor="middle" x="919.5" y="-637" font-family="Helvetica,sans-Serif" font-size="10.00">on_channel_delete</text>
<text text-anchor="middle" x="919.5" y="-626" font-family="Helvetica,sans-Serif" font-size="10.00">on_channel_pins_update</text>
<text text-anchor="middle" x="919.5" y="-615" font-family="Helvetica,sans-Serif" font-size="10.00">on_channel_update</text>
<text text-anchor="middle" x="919.5" y="-604" font-family="Helvetica,sans-Serif" font-size="10.00">...</text>
</g>
<!-- Node31 -->
<g id="node31" class="node">
<title>Node31</title>
<g id="a_node31"><a xlink:title=" ">
<polygon fill="none" stroke="#bfbfbf" points="1008,-535.5 1008,-554.5 1121,-554.5 1121,-535.5 1008,-535.5"/>
<text text-anchor="middle" x="1064.5" y="-542.5" font-family="Helvetica,sans-Serif" font-size="10.00">native_handle_type</text>
</a>
</g>
</g>
<!-- Node31&#45;&gt;Node5 -->
<g id="edge41" class="edge">
<title>Node31&#45;&gt;Node5</title>
<path fill="none" stroke="#9a32cd" stroke-dasharray="5,2" d="M1131.18,-555.53C1179.75,-566.74 1243.84,-589.34 1282,-634 1348.48,-711.81 1353.15,-846.6 1353.14,-883.45"/>
<polygon fill="#9a32cd" stroke="#9a32cd" points="1131.9,-552.1 1121.38,-553.37 1130.39,-558.94 1131.9,-552.1"/>
<text text-anchor="middle" x="1213.5" y="-637" font-family="Helvetica,sans-Serif" font-size="10.00"> thread_id</text>
</g>
<!-- Node32 -->
<g id="node32" class="node">
<title>Node32</title>
<g id="a_node32"><a xlink:title=" ">
<polygon fill="none" stroke="#bfbfbf" points="1011,-1143.5 1011,-1162.5 1118,-1162.5 1118,-1143.5 1011,-1143.5"/>
<text text-anchor="middle" x="1064.5" y="-1150.5" font-family="Helvetica,sans-Serif" font-size="10.00">std::shared_mutex</text>
</a>
</g>
</g>
<!-- Node32&#45;&gt;Node5 -->
<g id="edge44" class="edge">
<title>Node32&#45;&gt;Node5</title>
<path fill="none" stroke="#9a32cd" stroke-dasharray="5,2" d="M1128.28,-1162.1C1175.8,-1165.35 1239.88,-1161.45 1282,-1126 1352.54,-1066.64 1354.43,-939.42 1353.43,-902.95"/>
<polygon fill="#9a32cd" stroke="#9a32cd" points="1128.35,-1158.59 1118.1,-1161.28 1127.79,-1165.57 1128.35,-1158.59"/>
<text text-anchor="middle" x="1213.5" y="-1166" font-family="Helvetica,sans-Serif" font-size="10.00"> voice_mutex</text>
</g>
<!-- Node33 -->
<g id="node33" class="node">
<title>Node33</title>
<g id="a_node33"><a xlink:title=" ">
<polygon fill="none" stroke="#bfbfbf" points="1014,-1105.5 1014,-1124.5 1115,-1124.5 1115,-1105.5 1014,-1105.5"/>
<text text-anchor="middle" x="1064.5" y="-1112.5" font-family="Helvetica,sans-Serif" font-size="10.00">unordered_map&lt;</text>
</a>
</g>
</g>
<!-- Node33&#45;&gt;Node5 -->
<g id="edge47" class="edge">
<title>Node33&#45;&gt;Node5</title>
<path fill="none" stroke="#9a32cd" stroke-dasharray="5,2" d="M1125.47,-1112.86C1181.05,-1109.7 1258.57,-1101.95 1282,-1083 1340.6,-1035.62 1350.84,-934.68 1352.63,-902.84"/>
<polygon fill="#9a32cd" stroke="#9a32cd" points="1125.16,-1109.37 1115.36,-1113.39 1125.54,-1116.36 1125.16,-1109.37"/>
<text text-anchor="middle" x="1213.5" y="-1114" font-family="Helvetica,sans-Serif" font-size="10.00"> connecting_voice_channels</text>
</g>
<!-- Node34&#45;&gt;Node1 -->
<g id="edge49" class="edge">
<title>Node34&#45;&gt;Node1</title>
<path fill="none" stroke="#9a32cd" stroke-dasharray="5,2" d="M811.06,-149.13C864.15,-168.38 970.23,-202 1063.5,-202 1063.5,-202 1063.5,-202 1534,-202 1566.42,-202 1602.55,-204.66 1631.72,-207.47"/>
<polygon fill="#9a32cd" stroke="#9a32cd" points="812.06,-145.77 801.47,-145.6 809.65,-152.34 812.06,-145.77"/>
<text text-anchor="middle" x="1354" y="-205" font-family="Helvetica,sans-Serif" font-size="10.00"> entry</text>
</g>
<!-- Node35&#45;&gt;Node34 -->
<g id="edge50" class="edge">
<title>Node35&#45;&gt;Node34</title>
<path fill="none" stroke="midnightblue" d="M553.48,-101.86C606.35,-110.01 680.2,-121.39 727.81,-128.73"/>
<polygon fill="midnightblue" stroke="midnightblue" points="553.95,-98.39 543.54,-100.33 552.89,-105.31 553.95,-98.39"/>
</g>
<!-- Node36 -->
<g id="node36" class="node">
<title>Node36</title>
<g id="a_node36"><a xlink:title=" ">
<polygon fill="none" stroke="#bfbfbf" points="460.5,-38.5 460.5,-57.5 516.5,-57.5 516.5,-38.5 460.5,-38.5"/>
<text text-anchor="middle" x="488.5" y="-45.5" font-family="Helvetica,sans-Serif" font-size="10.00">vector&lt;</text>
</a>
</g>
</g>
<!-- Node36&#45;&gt;Node34 -->
<g id="edge53" class="edge">
<title>Node36&#45;&gt;Node34</title>
<path fill="none" stroke="#9a32cd" stroke-dasharray="5,2" d="M526.9,-52.44C569.21,-58.25 639.68,-70.34 697,-92 720.71,-100.96 745.85,-116.35 760.98,-126.35"/>
<polygon fill="#9a32cd" stroke="#9a32cd" points="527.15,-48.94 516.77,-51.09 526.23,-55.88 527.15,-48.94"/>
<text text-anchor="middle" x="636.5" y="-95" font-family="Helvetica,sans-Serif" font-size="10.00"> changes</text>
</g>
<!-- Node37 -->
<g id="node37" class="node">
<title>Node37</title>
<g id="a_node37"><a xlink:title=" ">
<polygon fill="none" stroke="#bfbfbf" points="454.5,-0.5 454.5,-19.5 522.5,-19.5 522.5,-0.5 454.5,-0.5"/>
<text text-anchor="middle" x="488.5" y="-7.5" font-family="Helvetica,sans-Serif" font-size="10.00">audit_type</text>
</a>
</g>
</g>
<!-- Node37&#45;&gt;Node34 -->
<g id="edge54" class="edge">
<title>Node37&#45;&gt;Node34</title>
<path fill="none" stroke="#9a32cd" stroke-dasharray="5,2" d="M532.75,-9.54C576.78,-10.87 645.67,-18.03 697,-47 731.71,-66.59 758.61,-107.6 769.6,-126.31"/>
<polygon fill="#9a32cd" stroke="#9a32cd" points="532.73,-6.04 522.66,-9.32 532.59,-13.04 532.73,-6.04"/>
<text text-anchor="middle" x="636.5" y="-50" font-family="Helvetica,sans-Serif" font-size="10.00"> type</text>
</g>
<!-- Node38 -->
<g id="node38" class="node">
<title>Node38</title>
<g id="a_node38"><a xlink:title=" ">
<polygon fill="none" stroke="#bfbfbf" points="456,-126.5 456,-145.5 521,-145.5 521,-126.5 456,-126.5"/>
<text text-anchor="middle" x="488.5" y="-133.5" font-family="Helvetica,sans-Serif" font-size="10.00">optional&lt;</text>
</a>
</g>
</g>
<!-- Node38&#45;&gt;Node34 -->
<g id="edge55" class="edge">
<title>Node38&#45;&gt;Node34</title>
<path fill="none" stroke="#9a32cd" stroke-dasharray="5,2" d="M531.42,-136C583.78,-136 673.13,-136 727.84,-136"/>
<polygon fill="#9a32cd" stroke="#9a32cd" points="531.14,-132.5 521.14,-136 531.14,-139.5 531.14,-132.5"/>
<text text-anchor="middle" x="636.5" y="-139" font-family="Helvetica,sans-Serif" font-size="10.00"> extra</text>
</g>
</g>
</svg>
