<?xml version="1.0" encoding="UTF-8" standalone="no"?>
<!DOCTYPE svg PUBLIC "-//W3C//DTD SVG 1.1//EN"
 "http://www.w3.org/Graphics/SVG/1.1/DTD/svg11.dtd">
<!-- Generated by graphviz version 2.43.0 (0)
 -->
<!-- Title: dpp::stage_instance_delete_t Pages: 1 -->
<svg width="1601pt" height="1133pt"
 viewBox="0.00 0.00 1601.00 1132.50" xmlns="http://www.w3.org/2000/svg" xmlns:xlink="http://www.w3.org/1999/xlink">
<g id="graph0" class="graph" transform="scale(1 1) rotate(0) translate(4 1128.5)">
<title>dpp::stage_instance_delete_t</title>
<!-- Node1 -->
<g id="node1" class="node">
<title>Node1</title>
<g id="a_node1"><a xlink:title="Delete stage instance.">
<polygon fill="#bfbfbf" stroke="black" points="1479,-85.5 1479,-115.5 1593,-115.5 1593,-85.5 1479,-85.5"/>
<text text-anchor="start" x="1487" y="-103.5" font-family="Helvetica,sans-Serif" font-size="10.00">dpp::stage_instance</text>
<text text-anchor="middle" x="1536" y="-92.5" font-family="Helvetica,sans-Serif" font-size="10.00">_delete_t</text>
</a>
</g>
</g>
<!-- Node2 -->
<g id="node2" class="node">
<title>Node2</title>
<g id="a_node2"><a xlink:href="structdpp_1_1event__dispatch__t.html" target="_top" xlink:title="Base event parameter struct. Each event you receive from the library will have its parameter derived ...">
<polygon fill="none" stroke="black" points="1318,-125 1318,-144 1442,-144 1442,-125 1318,-125"/>
<text text-anchor="middle" x="1380" y="-132" font-family="Helvetica,sans-Serif" font-size="10.00">dpp::event_dispatch_t</text>
</a>
</g>
</g>
<!-- Node2&#45;&gt;Node1 -->
<g id="edge1" class="edge">
<title>Node2&#45;&gt;Node1</title>
<path fill="none" stroke="midnightblue" d="M1434.49,-122.69C1448.81,-119.53 1464.32,-116.1 1478.78,-112.91"/>
<polygon fill="midnightblue" stroke="midnightblue" points="1433.32,-119.36 1424.31,-124.94 1434.83,-126.2 1433.32,-119.36"/>
</g>
<!-- Node3 -->
<g id="node3" class="node">
<title>Node3</title>
<g id="a_node3"><a xlink:title=" ">
<polygon fill="none" stroke="#bfbfbf" points="311,-163 311,-182 376,-182 376,-163 311,-163"/>
<text text-anchor="middle" x="343.5" y="-170" font-family="Helvetica,sans-Serif" font-size="10.00">std::string</text>
</a>
</g>
</g>
<!-- Node3&#45;&gt;Node2 -->
<g id="edge2" class="edge">
<title>Node3&#45;&gt;Node2</title>
<path fill="none" stroke="#9a32cd" stroke-dasharray="5,2" d="M386.25,-166.28C462.29,-155.5 628.53,-134.5 769.5,-134.5 769.5,-134.5 769.5,-134.5 1202,-134.5 1240.57,-134.5 1283.86,-134.5 1317.97,-134.5"/>
<polygon fill="#9a32cd" stroke="#9a32cd" points="385.54,-162.84 376.14,-167.73 386.53,-169.77 385.54,-162.84"/>
<text text-anchor="middle" x="911.5" y="-137.5" font-family="Helvetica,sans-Serif" font-size="10.00"> raw_event</text>
</g>
<!-- Node5 -->
<g id="node5" class="node">
<title>Node5</title>
<g id="a_node5"><a xlink:href="classdpp_1_1discord__client.html" target="_top" xlink:title="Implements a discord client. Each discord_client connects to one shard and derives from a websocket c...">
<polygon fill="none" stroke="black" points="1147,-725 1147,-744 1255,-744 1255,-725 1147,-725"/>
<text text-anchor="middle" x="1201" y="-732" font-family="Helvetica,sans-Serif" font-size="10.00">dpp::discord_client</text>
</a>
</g>
</g>
<!-- Node3&#45;&gt;Node5 -->
<g id="edge43" class="edge">
<title>Node3&#45;&gt;Node5</title>
<path fill="none" stroke="#9a32cd" stroke-dasharray="5,2" d="M386.11,-168.96C470.7,-162.7 668.47,-152.88 831,-181.5 897.17,-193.15 912.07,-204.45 974,-230.5 1045.09,-260.4 1083.26,-246.41 1129,-308.5 1180.25,-378.08 1196.77,-667.72 1199.55,-724.73"/>
<polygon fill="#9a32cd" stroke="#9a32cd" points="385.83,-165.47 376.13,-169.72 386.37,-172.45 385.83,-165.47"/>
<text text-anchor="middle" x="770.5" y="-195.5" font-family="Helvetica,sans-Serif" font-size="10.00"> sessionid</text>
<text text-anchor="middle" x="770.5" y="-184.5" font-family="Helvetica,sans-Serif" font-size="10.00">token</text>
</g>
<!-- Node7 -->
<g id="node7" class="node">
<title>Node7</title>
<g id="a_node7"><a xlink:href="classdpp_1_1ssl__client.html" target="_top" xlink:title="Implements a simple non&#45;blocking SSL stream client.">
<polygon fill="none" stroke="black" points="588,-953 588,-972 674,-972 674,-953 588,-953"/>
<text text-anchor="middle" x="631" y="-960" font-family="Helvetica,sans-Serif" font-size="10.00">dpp::ssl_client</text>
</a>
</g>
</g>
<!-- Node3&#45;&gt;Node7 -->
<g id="edge7" class="edge">
<title>Node3&#45;&gt;Node7</title>
<path fill="none" stroke="#9a32cd" stroke-dasharray="5,2" d="M385.22,-185.85C396.05,-191.43 406.53,-199.1 413,-209.5 440.68,-253.96 401.06,-637.53 431,-680.5 464.27,-728.24 512.27,-687.99 552,-730.5 614.96,-797.87 627.23,-917.72 629.5,-952.68"/>
<polygon fill="#9a32cd" stroke="#9a32cd" points="386.66,-182.67 376.12,-181.65 383.73,-189.02 386.66,-182.67"/>
<text text-anchor="middle" x="491.5" y="-777.5" font-family="Helvetica,sans-Serif" font-size="10.00"> buffer</text>
<text text-anchor="middle" x="491.5" y="-766.5" font-family="Helvetica,sans-Serif" font-size="10.00">cipher</text>
<text text-anchor="middle" x="491.5" y="-755.5" font-family="Helvetica,sans-Serif" font-size="10.00">hostname</text>
<text text-anchor="middle" x="491.5" y="-744.5" font-family="Helvetica,sans-Serif" font-size="10.00">obuffer</text>
<text text-anchor="middle" x="491.5" y="-733.5" font-family="Helvetica,sans-Serif" font-size="10.00">port</text>
</g>
<!-- Node17 -->
<g id="node17" class="node">
<title>Node17</title>
<g id="a_node17"><a xlink:href="classdpp_1_1cluster.html" target="_top" xlink:title="The cluster class represents a group of shards and a command queue for sending and receiving commands...">
<polygon fill="none" stroke="black" points="874.5,-419 874.5,-438 948.5,-438 948.5,-419 874.5,-419"/>
<text text-anchor="middle" x="911.5" y="-426" font-family="Helvetica,sans-Serif" font-size="10.00">dpp::cluster</text>
</a>
</g>
</g>
<!-- Node3&#45;&gt;Node17 -->
<g id="edge19" class="edge">
<title>Node3&#45;&gt;Node17</title>
<path fill="none" stroke="#9a32cd" stroke-dasharray="5,2" d="M386.27,-178.78C442.71,-187.5 537.94,-203.16 552,-211.5 562.87,-217.95 559.21,-226.94 570,-233.5 671.29,-295.1 735.28,-218.56 831,-288.5 877.72,-322.63 900.86,-393.1 908.01,-418.83"/>
<polygon fill="#9a32cd" stroke="#9a32cd" points="386.62,-175.29 376.21,-177.23 385.56,-182.21 386.62,-175.29"/>
<text text-anchor="middle" x="631" y="-263.5" font-family="Helvetica,sans-Serif" font-size="10.00"> token</text>
</g>
<!-- Node20 -->
<g id="node20" class="node">
<title>Node20</title>
<g id="a_node20"><a xlink:href="classdpp_1_1user.html" target="_top" xlink:title="Represents a user on discord. May or may not be a member of a dpp::guild.">
<polygon fill="none" stroke="black" points="600,-295 600,-314 662,-314 662,-295 600,-295"/>
<text text-anchor="middle" x="631" y="-302" font-family="Helvetica,sans-Serif" font-size="10.00">dpp::user</text>
</a>
</g>
</g>
<!-- Node3&#45;&gt;Node20 -->
<g id="edge28" class="edge">
<title>Node3&#45;&gt;Node20</title>
<path fill="none" stroke="#9a32cd" stroke-dasharray="5,2" d="M375.15,-186.32C391.54,-193.43 412.17,-201.96 431,-208.5 483.77,-226.82 508.94,-206.92 552,-242.5 565.79,-253.89 557.01,-266.2 570,-278.5 578.33,-286.38 589.42,-292.09 599.81,-296.12"/>
<polygon fill="#9a32cd" stroke="#9a32cd" points="376.12,-182.92 365.55,-182.1 373.3,-189.33 376.12,-182.92"/>
<text text-anchor="middle" x="491.5" y="-245.5" font-family="Helvetica,sans-Serif" font-size="10.00"> username</text>
</g>
<!-- Node35 -->
<g id="node35" class="node">
<title>Node35</title>
<g id="a_node35"><a xlink:href="structdpp_1_1stage__instance.html" target="_top" xlink:title="A stage instance. Stage instances are like a conference facility, with moderators/speakers and listen...">
<polygon fill="none" stroke="black" points="574,-79 574,-98 688,-98 688,-79 574,-79"/>
<text text-anchor="middle" x="631" y="-86" font-family="Helvetica,sans-Serif" font-size="10.00">dpp::stage_instance</text>
</a>
</g>
</g>
<!-- Node3&#45;&gt;Node35 -->
<g id="edge53" class="edge">
<title>Node3&#45;&gt;Node35</title>
<path fill="none" stroke="#9a32cd" stroke-dasharray="5,2" d="M371.88,-157.98C384.53,-151.1 399.67,-142.62 413,-134.5 421.21,-129.5 422.07,-126.05 431,-122.5 444.13,-117.28 519.67,-105.14 573.79,-96.88"/>
<polygon fill="#9a32cd" stroke="#9a32cd" points="369.9,-155.07 362.76,-162.9 373.22,-161.23 369.9,-155.07"/>
<text text-anchor="middle" x="491.5" y="-125.5" font-family="Helvetica,sans-Serif" font-size="10.00"> topic</text>
</g>
<!-- Node4 -->
<g id="node4" class="node">
<title>Node4</title>
<g id="a_node4"><a xlink:title=" ">
<polygon fill="none" stroke="#bfbfbf" points="17,-0.5 17,-30.5 121,-30.5 121,-0.5 17,-0.5"/>
<text text-anchor="start" x="25" y="-18.5" font-family="Helvetica,sans-Serif" font-size="10.00">std::basic_string&lt;</text>
<text text-anchor="middle" x="69" y="-7.5" font-family="Helvetica,sans-Serif" font-size="10.00"> Char &gt;</text>
</a>
</g>
</g>
<!-- Node4&#45;&gt;Node3 -->
<g id="edge3" class="edge">
<title>Node4&#45;&gt;Node3</title>
<path fill="none" stroke="midnightblue" d="M131.21,-2.5C171.61,2.28 222.98,0.53 256,-29.5 291.03,-61.36 246.6,-95.88 274,-134.5 283.44,-147.81 299.08,-156.99 313.04,-162.99"/>
<polygon fill="midnightblue" stroke="midnightblue" points="130.64,0.96 121.19,-3.84 131.57,-5.98 130.64,0.96"/>
</g>
<!-- Node5&#45;&gt;Node2 -->
<g id="edge4" class="edge">
<title>Node5&#45;&gt;Node2</title>
<path fill="none" stroke="#9a32cd" stroke-dasharray="5,2" d="M1207.8,-714.85C1235.72,-620.19 1355.88,-212.88 1376.1,-144.32"/>
<polygon fill="#9a32cd" stroke="#9a32cd" points="1204.4,-714 1204.92,-724.59 1211.11,-715.99 1204.4,-714"/>
<text text-anchor="middle" x="1286.5" y="-490.5" font-family="Helvetica,sans-Serif" font-size="10.00"> from</text>
</g>
<!-- Node6 -->
<g id="node6" class="node">
<title>Node6</title>
<g id="a_node6"><a xlink:href="classdpp_1_1websocket__client.html" target="_top" xlink:title="Implements a websocket client based on the SSL client.">
<polygon fill="none" stroke="black" points="849,-953 849,-972 974,-972 974,-953 849,-953"/>
<text text-anchor="middle" x="911.5" y="-960" font-family="Helvetica,sans-Serif" font-size="10.00">dpp::websocket_client</text>
</a>
</g>
</g>
<!-- Node6&#45;&gt;Node5 -->
<g id="edge5" class="edge">
<title>Node6&#45;&gt;Node5</title>
<path fill="none" stroke="midnightblue" d="M984.4,-972.37C1030.45,-974.67 1088.89,-969.58 1129,-937.5 1191.98,-887.13 1199.23,-777.24 1199.95,-744.13"/>
<polygon fill="midnightblue" stroke="midnightblue" points="984.37,-968.86 974.17,-971.73 983.93,-975.85 984.37,-968.86"/>
</g>
<!-- Node7&#45;&gt;Node6 -->
<g id="edge6" class="edge">
<title>Node7&#45;&gt;Node6</title>
<path fill="none" stroke="midnightblue" d="M684.51,-962.5C731.24,-962.5 799.62,-962.5 848.91,-962.5"/>
<polygon fill="midnightblue" stroke="midnightblue" points="684.3,-959 674.3,-962.5 684.3,-966 684.3,-959"/>
</g>
<!-- Node8 -->
<g id="node8" class="node">
<title>Node8</title>
<g id="a_node8"><a xlink:title=" ">
<polygon fill="none" stroke="#bfbfbf" points="324.5,-803 324.5,-822 362.5,-822 362.5,-803 324.5,-803"/>
<text text-anchor="middle" x="343.5" y="-810" font-family="Helvetica,sans-Serif" font-size="10.00">bool</text>
</a>
</g>
</g>
<!-- Node8&#45;&gt;Node5 -->
<g id="edge17" class="edge">
<title>Node8&#45;&gt;Node5</title>
<path fill="none" stroke="#9a32cd" stroke-dasharray="5,2" d="M372.81,-814.77C476.11,-822.23 841.78,-841.44 1129,-766.5 1148.36,-761.45 1169.07,-751.54 1183.09,-744.08"/>
<polygon fill="#9a32cd" stroke="#9a32cd" points="372.81,-811.26 362.58,-814 372.29,-818.24 372.81,-811.26"/>
<text text-anchor="middle" x="770.5" y="-834.5" font-family="Helvetica,sans-Serif" font-size="10.00"> ready</text>
<text text-anchor="middle" x="770.5" y="-823.5" font-family="Helvetica,sans-Serif" font-size="10.00">terminating</text>
</g>
<!-- Node8&#45;&gt;Node7 -->
<g id="edge8" class="edge">
<title>Node8&#45;&gt;Node7</title>
<path fill="none" stroke="#9a32cd" stroke-dasharray="5,2" d="M368.18,-827.23C385.1,-837.15 408.73,-849.78 431,-857.5 482.72,-875.43 503.94,-854.3 552,-880.5 584.95,-898.46 612.15,-935.27 623.84,-952.8"/>
<polygon fill="#9a32cd" stroke="#9a32cd" points="369.89,-824.18 359.52,-822.05 366.3,-830.18 369.89,-824.18"/>
<text text-anchor="middle" x="491.5" y="-916.5" font-family="Helvetica,sans-Serif" font-size="10.00"> keepalive</text>
<text text-anchor="middle" x="491.5" y="-905.5" font-family="Helvetica,sans-Serif" font-size="10.00">make_new</text>
<text text-anchor="middle" x="491.5" y="-894.5" font-family="Helvetica,sans-Serif" font-size="10.00">nonblocking</text>
<text text-anchor="middle" x="491.5" y="-883.5" font-family="Helvetica,sans-Serif" font-size="10.00">plaintext</text>
</g>
<!-- Node8&#45;&gt;Node35 -->
<g id="edge55" class="edge">
<title>Node8&#45;&gt;Node35</title>
<path fill="none" stroke="#9a32cd" stroke-dasharray="5,2" d="M372.78,-810.76C386.9,-808.38 403.05,-803.08 413,-791.5 448.72,-749.93 409.5,-719.92 431,-669.5 465.42,-588.79 521.24,-595.68 552,-513.5 576.81,-447.21 550.18,-263.45 570,-195.5 581.39,-156.45 609.18,-116.11 622.56,-98.14"/>
<polygon fill="#9a32cd" stroke="#9a32cd" points="371.99,-807.34 362.51,-812.07 372.87,-814.28 371.99,-807.34"/>
<text text-anchor="middle" x="491.5" y="-672.5" font-family="Helvetica,sans-Serif" font-size="10.00"> discoverable_disabled</text>
</g>
<!-- Node9 -->
<g id="node9" class="node">
<title>Node9</title>
<g id="a_node9"><a xlink:title=" ">
<polygon fill="none" stroke="#bfbfbf" points="329,-962 329,-981 358,-981 358,-962 329,-962"/>
<text text-anchor="middle" x="343.5" y="-969" font-family="Helvetica,sans-Serif" font-size="10.00">int</text>
</a>
</g>
</g>
<!-- Node9&#45;&gt;Node7 -->
<g id="edge9" class="edge">
<title>Node9&#45;&gt;Node7</title>
<path fill="none" stroke="#9a32cd" stroke-dasharray="5,2" d="M368.41,-970.75C416.85,-969.22 527.1,-965.74 587.87,-963.83"/>
<polygon fill="#9a32cd" stroke="#9a32cd" points="368.15,-967.25 358.27,-971.07 368.38,-974.25 368.15,-967.25"/>
<text text-anchor="middle" x="491.5" y="-971.5" font-family="Helvetica,sans-Serif" font-size="10.00"> sfd</text>
</g>
<!-- Node10 -->
<g id="node10" class="node">
<title>Node10</title>
<g id="a_node10"><a xlink:href="classdpp_1_1opensslcontext.html" target="_top" xlink:title="This is an opaque class containing openssl library specific structures. We define it this way so that...">
<polygon fill="none" stroke="black" points="286,-1086 286,-1105 401,-1105 401,-1086 286,-1086"/>
<text text-anchor="middle" x="343.5" y="-1093" font-family="Helvetica,sans-Serif" font-size="10.00">dpp::opensslcontext</text>
</a>
</g>
</g>
<!-- Node10&#45;&gt;Node7 -->
<g id="edge10" class="edge">
<title>Node10&#45;&gt;Node7</title>
<path fill="none" stroke="#9a32cd" stroke-dasharray="5,2" d="M411.34,-1102.02C454.32,-1103.08 509.8,-1098.34 552,-1073.5 593,-1049.37 617.86,-994.21 626.53,-972.01"/>
<polygon fill="#9a32cd" stroke="#9a32cd" points="411.38,-1098.52 401.26,-1101.66 411.13,-1105.52 411.38,-1098.52"/>
<text text-anchor="middle" x="491.5" y="-1104.5" font-family="Helvetica,sans-Serif" font-size="10.00"> ssl</text>
</g>
<!-- Node11 -->
<g id="node11" class="node">
<title>Node11</title>
<g id="a_node11"><a xlink:title=" ">
<polygon fill="none" stroke="#bfbfbf" points="48,-1067 48,-1086 90,-1086 90,-1067 48,-1067"/>
<text text-anchor="middle" x="69" y="-1074" font-family="Helvetica,sans-Serif" font-size="10.00">SSL *</text>
</a>
</g>
</g>
<!-- Node11&#45;&gt;Node10 -->
<g id="edge11" class="edge">
<title>Node11&#45;&gt;Node10</title>
<path fill="none" stroke="#9a32cd" stroke-dasharray="5,2" d="M100.23,-1076.08C137.09,-1075.84 201.26,-1076.36 256,-1081.5 267.21,-1082.55 279.16,-1084.17 290.5,-1085.93"/>
<polygon fill="#9a32cd" stroke="#9a32cd" points="100.11,-1072.58 90.15,-1076.16 100.18,-1079.58 100.11,-1072.58"/>
<text text-anchor="middle" x="206" y="-1084.5" font-family="Helvetica,sans-Serif" font-size="10.00"> ssl</text>
</g>
<!-- Node12 -->
<g id="node12" class="node">
<title>Node12</title>
<g id="a_node12"><a xlink:title=" ">
<polygon fill="none" stroke="#bfbfbf" points="35.5,-1105 35.5,-1124 102.5,-1124 102.5,-1105 35.5,-1105"/>
<text text-anchor="middle" x="69" y="-1112" font-family="Helvetica,sans-Serif" font-size="10.00">SSL_CTX *</text>
</a>
</g>
</g>
<!-- Node12&#45;&gt;Node10 -->
<g id="edge12" class="edge">
<title>Node12&#45;&gt;Node10</title>
<path fill="none" stroke="#9a32cd" stroke-dasharray="5,2" d="M112.68,-1111.52C159.36,-1108.27 234.37,-1103.04 285.93,-1099.44"/>
<polygon fill="#9a32cd" stroke="#9a32cd" points="112.33,-1108.04 102.6,-1112.23 112.82,-1115.02 112.33,-1108.04"/>
<text text-anchor="middle" x="206" y="-1110.5" font-family="Helvetica,sans-Serif" font-size="10.00"> ctx</text>
</g>
<!-- Node13 -->
<g id="node13" class="node">
<title>Node13</title>
<g id="a_node13"><a xlink:title=" ">
<polygon fill="none" stroke="#bfbfbf" points="319.5,-763 319.5,-782 367.5,-782 367.5,-763 319.5,-763"/>
<text text-anchor="middle" x="343.5" y="-770" font-family="Helvetica,sans-Serif" font-size="10.00">time_t</text>
</a>
</g>
</g>
<!-- Node13&#45;&gt;Node5 -->
<g id="edge40" class="edge">
<title>Node13&#45;&gt;Node5</title>
<path fill="none" stroke="#9a32cd" stroke-dasharray="5,2" d="M377.73,-772.21C507.47,-770.97 980.02,-765.35 1129,-748.5 1138.36,-747.44 1148.33,-745.8 1157.75,-744.01"/>
<polygon fill="#9a32cd" stroke="#9a32cd" points="377.58,-768.71 367.62,-772.3 377.65,-775.71 377.58,-768.71"/>
<text text-anchor="middle" x="770.5" y="-780.5" font-family="Helvetica,sans-Serif" font-size="10.00"> last_heartbeat</text>
<text text-anchor="middle" x="770.5" y="-769.5" font-family="Helvetica,sans-Serif" font-size="10.00">last_heartbeat_ack</text>
</g>
<!-- Node13&#45;&gt;Node7 -->
<g id="edge13" class="edge">
<title>Node13&#45;&gt;Node7</title>
<path fill="none" stroke="#9a32cd" stroke-dasharray="5,2" d="M377.91,-777.12C421.86,-784.64 499.64,-803.09 552,-844.5 590.71,-875.12 616.72,-930.4 626.11,-952.74"/>
<polygon fill="#9a32cd" stroke="#9a32cd" points="378.19,-773.62 367.76,-775.48 377.07,-780.53 378.19,-773.62"/>
<text text-anchor="middle" x="491.5" y="-847.5" font-family="Helvetica,sans-Serif" font-size="10.00"> last_tick</text>
</g>
<!-- Node13&#45;&gt;Node17 -->
<g id="edge20" class="edge">
<title>Node13&#45;&gt;Node17</title>
<path fill="none" stroke="#9a32cd" stroke-dasharray="5,2" d="M353.26,-753.68C366.54,-727.03 394.18,-678.33 431,-649.5 483.19,-608.64 506.07,-612.98 570,-595.5 626.7,-580 781.9,-584.81 831,-552.5 874.58,-523.82 899.19,-462.11 907.39,-438.22"/>
<polygon fill="#9a32cd" stroke="#9a32cd" points="350.08,-752.2 348.88,-762.73 356.39,-755.25 350.08,-752.2"/>
<text text-anchor="middle" x="631" y="-598.5" font-family="Helvetica,sans-Serif" font-size="10.00"> last_identify</text>
</g>
<!-- Node14 -->
<g id="node14" class="node">
<title>Node14</title>
<g id="a_node14"><a xlink:title=" ">
<polygon fill="none" stroke="#bfbfbf" points="41,-402 41,-421 97,-421 97,-402 41,-402"/>
<text text-anchor="middle" x="69" y="-409" font-family="Helvetica,sans-Serif" font-size="10.00">uint64_t</text>
</a>
</g>
</g>
<!-- Node14&#45;&gt;Node5 -->
<g id="edge42" class="edge">
<title>Node14&#45;&gt;Node5</title>
<path fill="none" stroke="#9a32cd" stroke-dasharray="5,2" d="M90.27,-427.33C125.7,-454.33 202.01,-509.59 274,-542.5 303.29,-555.89 527.73,-603.33 552,-624.5 566.69,-637.32 556.13,-650.8 570,-664.5 618.28,-712.21 643.69,-711.04 710,-725.5 791.88,-743.35 1037.91,-739.06 1146.96,-736.13"/>
<polygon fill="#9a32cd" stroke="#9a32cd" points="92.23,-424.42 82.17,-421.1 87.96,-429.97 92.23,-424.42"/>
<text text-anchor="middle" x="631" y="-724.5" font-family="Helvetica,sans-Serif" font-size="10.00"> last_seq</text>
</g>
<!-- Node14&#45;&gt;Node7 -->
<g id="edge14" class="edge">
<title>Node14&#45;&gt;Node7</title>
<path fill="none" stroke="#9a32cd" stroke-dasharray="5,2" d="M74.71,-431.16C91.19,-496.22 152.01,-707.46 274,-831.5 330.87,-889.32 355.15,-895.8 431,-924.5 482.98,-944.17 546.6,-954.03 587.69,-958.7"/>
<polygon fill="#9a32cd" stroke="#9a32cd" points="78.01,-429.94 72.21,-421.07 71.21,-431.62 78.01,-429.94"/>
<text text-anchor="middle" x="343.5" y="-930.5" font-family="Helvetica,sans-Serif" font-size="10.00"> bytes_in</text>
<text text-anchor="middle" x="343.5" y="-919.5" font-family="Helvetica,sans-Serif" font-size="10.00">bytes_out</text>
</g>
<!-- Node21 -->
<g id="node21" class="node">
<title>Node21</title>
<g id="a_node21"><a xlink:href="classdpp_1_1managed.html" target="_top" xlink:title="The managed class is the base class for various types that can be stored in a cache that are identifi...">
<polygon fill="none" stroke="black" points="300.5,-288 300.5,-307 386.5,-307 386.5,-288 300.5,-288"/>
<text text-anchor="middle" x="343.5" y="-295" font-family="Helvetica,sans-Serif" font-size="10.00">dpp::managed</text>
</a>
</g>
</g>
<!-- Node14&#45;&gt;Node21 -->
<g id="edge25" class="edge">
<title>Node14&#45;&gt;Node21</title>
<path fill="none" stroke="#9a32cd" stroke-dasharray="5,2" d="M96.85,-397.24C135.3,-377.24 208.61,-340.61 274,-316.5 283.5,-313 293.94,-309.79 303.74,-307.05"/>
<polygon fill="#9a32cd" stroke="#9a32cd" points="95.09,-394.22 87.86,-401.95 98.34,-400.42 95.09,-394.22"/>
<text text-anchor="middle" x="206" y="-369.5" font-family="Helvetica,sans-Serif" font-size="10.00"> id</text>
</g>
<!-- Node24 -->
<g id="node24" class="node">
<title>Node24</title>
<g id="a_node24"><a xlink:href="structdpp_1_1utility_1_1iconhash.html" target="_top" xlink:title="Store a 128 bit icon hash (profile picture, server icon etc) as a 128 bit binary value made of two ui...">
<polygon fill="none" stroke="black" points="284.5,-402 284.5,-421 402.5,-421 402.5,-402 284.5,-402"/>
<text text-anchor="middle" x="343.5" y="-409" font-family="Helvetica,sans-Serif" font-size="10.00">dpp::utility::iconhash</text>
</a>
</g>
</g>
<!-- Node14&#45;&gt;Node24 -->
<g id="edge30" class="edge">
<title>Node14&#45;&gt;Node24</title>
<path fill="none" stroke="#9a32cd" stroke-dasharray="5,2" d="M107.18,-411.5C152.83,-411.5 230.79,-411.5 284.38,-411.5"/>
<polygon fill="#9a32cd" stroke="#9a32cd" points="107.12,-408 97.12,-411.5 107.12,-415 107.12,-408"/>
<text text-anchor="middle" x="206" y="-425.5" font-family="Helvetica,sans-Serif" font-size="10.00"> first</text>
<text text-anchor="middle" x="206" y="-414.5" font-family="Helvetica,sans-Serif" font-size="10.00">second</text>
</g>
<!-- Node14&#45;&gt;Node35 -->
<g id="edge52" class="edge">
<title>Node14&#45;&gt;Node35</title>
<path fill="none" stroke="#9a32cd" stroke-dasharray="5,2" d="M77.76,-392.46C99.83,-340.91 168.29,-198.05 274,-131.5 366.46,-73.29 499.46,-74.68 573.96,-81.31"/>
<polygon fill="#9a32cd" stroke="#9a32cd" points="74.5,-391.18 73.86,-401.76 80.95,-393.89 74.5,-391.18"/>
<text text-anchor="middle" x="343.5" y="-145.5" font-family="Helvetica,sans-Serif" font-size="10.00"> channel_id</text>
<text text-anchor="middle" x="343.5" y="-134.5" font-family="Helvetica,sans-Serif" font-size="10.00">guild_id</text>
</g>
<!-- Node15 -->
<g id="node15" class="node">
<title>Node15</title>
<g id="a_node15"><a xlink:title=" ">
<polygon fill="none" stroke="#bfbfbf" points="274,-1041 274,-1060 413,-1060 413,-1041 274,-1041"/>
<text text-anchor="middle" x="343.5" y="-1048" font-family="Helvetica,sans-Serif" font-size="10.00">function&lt; dpp::socket()&gt;</text>
</a>
</g>
</g>
<!-- Node15&#45;&gt;Node7 -->
<g id="edge15" class="edge">
<title>Node15&#45;&gt;Node7</title>
<path fill="none" stroke="#9a32cd" stroke-dasharray="5,2" d="M423.54,-1051.79C463.43,-1049.88 511.77,-1043.56 552,-1026.5 581.35,-1014.05 608.39,-986.96 621.57,-972.33"/>
<polygon fill="#9a32cd" stroke="#9a32cd" points="423.18,-1048.3 413.32,-1052.19 423.45,-1055.29 423.18,-1048.3"/>
<text text-anchor="middle" x="491.5" y="-1064.5" font-family="Helvetica,sans-Serif" font-size="10.00"> custom_readable_fd</text>
<text text-anchor="middle" x="491.5" y="-1053.5" font-family="Helvetica,sans-Serif" font-size="10.00">custom_writeable_fd</text>
</g>
<!-- Node16 -->
<g id="node16" class="node">
<title>Node16</title>
<g id="a_node16"><a xlink:title=" ">
<polygon fill="none" stroke="#bfbfbf" points="291.5,-1000 291.5,-1019 395.5,-1019 395.5,-1000 291.5,-1000"/>
<text text-anchor="middle" x="343.5" y="-1007" font-family="Helvetica,sans-Serif" font-size="10.00">function&lt; void()&gt;</text>
</a>
</g>
</g>
<!-- Node16&#45;&gt;Node7 -->
<g id="edge16" class="edge">
<title>Node16&#45;&gt;Node7</title>
<path fill="none" stroke="#9a32cd" stroke-dasharray="5,2" d="M405.52,-1004.1C447.04,-999.87 503.12,-993.09 552,-983.5 567.41,-980.47 584.27,-976.08 598.36,-972.09"/>
<polygon fill="#9a32cd" stroke="#9a32cd" points="405.16,-1000.62 395.55,-1005.09 405.85,-1007.58 405.16,-1000.62"/>
<text text-anchor="middle" x="491.5" y="-1014.5" font-family="Helvetica,sans-Serif" font-size="10.00"> custom_readable_ready</text>
<text text-anchor="middle" x="491.5" y="-1003.5" font-family="Helvetica,sans-Serif" font-size="10.00">custom_writeable_ready</text>
</g>
<!-- Node17&#45;&gt;Node5 -->
<g id="edge18" class="edge">
<title>Node17&#45;&gt;Node5</title>
<path fill="none" stroke="#9a32cd" stroke-dasharray="5,2" d="M937.55,-443.48C980.97,-470.44 1071.12,-530.85 1129,-600.5 1163.16,-641.61 1187.79,-701.78 1196.52,-724.93"/>
<polygon fill="#9a32cd" stroke="#9a32cd" points="939.13,-440.35 928.77,-438.1 935.47,-446.31 939.13,-440.35"/>
<text text-anchor="middle" x="1060.5" y="-603.5" font-family="Helvetica,sans-Serif" font-size="10.00"> creator</text>
</g>
<!-- Node18 -->
<g id="node18" class="node">
<title>Node18</title>
<g id="a_node18"><a xlink:title=" ">
<polygon fill="none" stroke="#bfbfbf" points="315.5,-514 315.5,-533 371.5,-533 371.5,-514 315.5,-514"/>
<text text-anchor="middle" x="343.5" y="-521" font-family="Helvetica,sans-Serif" font-size="10.00">uint32_t</text>
</a>
</g>
</g>
<!-- Node18&#45;&gt;Node5 -->
<g id="edge39" class="edge">
<title>Node18&#45;&gt;Node5</title>
<path fill="none" stroke="#9a32cd" stroke-dasharray="5,2" d="M381.86,-527.88C427.6,-535.11 504.76,-553.63 552,-599.5 567.45,-614.51 552.52,-631.92 570,-644.5 593.58,-661.47 802.19,-655.76 831,-659.5 953.37,-675.37 1095.88,-708.61 1162.32,-724.98"/>
<polygon fill="#9a32cd" stroke="#9a32cd" points="382.18,-524.39 371.78,-526.39 381.16,-531.31 382.18,-524.39"/>
<text text-anchor="middle" x="770.5" y="-717.5" font-family="Helvetica,sans-Serif" font-size="10.00"> heartbeat_interval</text>
<text text-anchor="middle" x="770.5" y="-706.5" font-family="Helvetica,sans-Serif" font-size="10.00">intents</text>
<text text-anchor="middle" x="770.5" y="-695.5" font-family="Helvetica,sans-Serif" font-size="10.00">max_shards</text>
<text text-anchor="middle" x="770.5" y="-684.5" font-family="Helvetica,sans-Serif" font-size="10.00">reconnects</text>
<text text-anchor="middle" x="770.5" y="-673.5" font-family="Helvetica,sans-Serif" font-size="10.00">resumes</text>
<text text-anchor="middle" x="770.5" y="-662.5" font-family="Helvetica,sans-Serif" font-size="10.00">shard_id</text>
</g>
<!-- Node18&#45;&gt;Node17 -->
<g id="edge21" class="edge">
<title>Node18&#45;&gt;Node17</title>
<path fill="none" stroke="#9a32cd" stroke-dasharray="5,2" d="M381.54,-530.93C425.72,-537.69 500.13,-542.23 552,-509.5 565.8,-500.79 555.91,-485.74 570,-477.5 616.81,-450.13 641.32,-458.23 692,-477.5 702,-481.3 700,-489.7 710,-493.5 760.27,-512.61 780.35,-511.57 831,-493.5 861.9,-482.48 889.45,-453.72 902.5,-438.42"/>
<polygon fill="#9a32cd" stroke="#9a32cd" points="381.95,-527.45 371.52,-529.27 380.82,-534.35 381.95,-527.45"/>
<text text-anchor="middle" x="631" y="-513.5" font-family="Helvetica,sans-Serif" font-size="10.00"> cluster_id</text>
<text text-anchor="middle" x="631" y="-502.5" font-family="Helvetica,sans-Serif" font-size="10.00">intents</text>
<text text-anchor="middle" x="631" y="-491.5" font-family="Helvetica,sans-Serif" font-size="10.00">maxclusters</text>
<text text-anchor="middle" x="631" y="-480.5" font-family="Helvetica,sans-Serif" font-size="10.00">numshards</text>
</g>
<!-- Node18&#45;&gt;Node20 -->
<g id="edge31" class="edge">
<title>Node18&#45;&gt;Node20</title>
<path fill="none" stroke="#9a32cd" stroke-dasharray="5,2" d="M381.22,-512.06C396.53,-507.51 414.54,-502.43 431,-498.5 484.24,-485.78 514.67,-515.54 552,-475.5 598.39,-425.74 526.65,-375.92 570,-323.5 577.38,-314.57 588.94,-309.78 599.94,-307.23"/>
<polygon fill="#9a32cd" stroke="#9a32cd" points="380.16,-508.73 371.6,-514.96 382.18,-515.43 380.16,-508.73"/>
<text text-anchor="middle" x="491.5" y="-501.5" font-family="Helvetica,sans-Serif" font-size="10.00"> flags</text>
</g>
<!-- Node19 -->
<g id="node19" class="node">
<title>Node19</title>
<g id="a_node19"><a xlink:title=" ">
<polygon fill="none" stroke="#bfbfbf" points="606,-616 606,-635 656,-635 656,-616 606,-616"/>
<text text-anchor="middle" x="631" y="-623" font-family="Helvetica,sans-Serif" font-size="10.00">double</text>
</a>
</g>
</g>
<!-- Node19&#45;&gt;Node5 -->
<g id="edge45" class="edge">
<title>Node19&#45;&gt;Node5</title>
<path fill="none" stroke="#9a32cd" stroke-dasharray="5,2" d="M666.07,-623.68C764.59,-618.94 1047.99,-609.35 1129,-650.5 1161.86,-667.19 1185.53,-706.46 1195.19,-724.77"/>
<polygon fill="#9a32cd" stroke="#9a32cd" points="665.87,-620.18 656.05,-624.17 666.21,-627.17 665.87,-620.18"/>
<text text-anchor="middle" x="911.5" y="-625.5" font-family="Helvetica,sans-Serif" font-size="10.00"> websocket_ping</text>
</g>
<!-- Node19&#45;&gt;Node17 -->
<g id="edge22" class="edge">
<title>Node19&#45;&gt;Node17</title>
<path fill="none" stroke="#9a32cd" stroke-dasharray="5,2" d="M665.52,-613.77C679.2,-609.23 695.25,-604.25 710,-600.5 763.05,-587.01 786.91,-609.94 831,-577.5 880.36,-541.19 902.11,-464.86 908.44,-438.05"/>
<polygon fill="#9a32cd" stroke="#9a32cd" points="664.38,-610.45 656.02,-616.96 666.62,-617.09 664.38,-610.45"/>
<text text-anchor="middle" x="770.5" y="-603.5" font-family="Helvetica,sans-Serif" font-size="10.00"> rest_ping</text>
</g>
<!-- Node20&#45;&gt;Node17 -->
<g id="edge23" class="edge">
<title>Node20&#45;&gt;Node17</title>
<path fill="none" stroke="#9a32cd" stroke-dasharray="5,2" d="M672.14,-296.69C714.44,-290.59 781.66,-287.16 831,-314.5 873.84,-338.24 898.73,-396.01 907.2,-418.92"/>
<polygon fill="#9a32cd" stroke="#9a32cd" points="671.55,-293.24 662.2,-298.23 672.62,-300.15 671.55,-293.24"/>
<text text-anchor="middle" x="770.5" y="-317.5" font-family="Helvetica,sans-Serif" font-size="10.00"> me</text>
</g>
<!-- Node21&#45;&gt;Node20 -->
<g id="edge24" class="edge">
<title>Node21&#45;&gt;Node20</title>
<path fill="none" stroke="midnightblue" d="M396.96,-298.79C456.55,-300.25 551.76,-302.58 599.95,-303.76"/>
<polygon fill="midnightblue" stroke="midnightblue" points="396.71,-295.28 386.63,-298.53 396.54,-302.28 396.71,-295.28"/>
</g>
<!-- Node21&#45;&gt;Node35 -->
<g id="edge49" class="edge">
<title>Node21&#45;&gt;Node35</title>
<path fill="none" stroke="midnightblue" d="M396.62,-293.61C450.48,-288.54 529.72,-277.82 552,-257.5 573.2,-238.17 558.91,-221.96 570,-195.5 585.8,-157.79 611.65,-116.46 623.59,-98.15"/>
<polygon fill="midnightblue" stroke="midnightblue" points="396.19,-290.13 386.55,-294.52 396.82,-297.1 396.19,-290.13"/>
</g>
<!-- Node22 -->
<g id="node22" class="node">
<title>Node22</title>
<g id="a_node22"><a xlink:href="structdpp_1_1json__interface.html" target="_top" xlink:title=" ">
<polygon fill="none" stroke="black" points="288.5,-219.5 288.5,-249.5 398.5,-249.5 398.5,-219.5 288.5,-219.5"/>
<text text-anchor="start" x="296.5" y="-237.5" font-family="Helvetica,sans-Serif" font-size="10.00">dpp::json_interface</text>
<text text-anchor="middle" x="343.5" y="-226.5" font-family="Helvetica,sans-Serif" font-size="10.00">&lt; user &gt;</text>
</a>
</g>
</g>
<!-- Node22&#45;&gt;Node20 -->
<g id="edge26" class="edge">
<title>Node22&#45;&gt;Node20</title>
<path fill="none" stroke="midnightblue" d="M408.62,-250.22C468.32,-264.86 554.7,-286.04 599.88,-297.11"/>
<polygon fill="midnightblue" stroke="midnightblue" points="409.08,-246.73 398.54,-247.75 407.41,-253.53 409.08,-246.73"/>
</g>
<!-- Node23 -->
<g id="node23" class="node">
<title>Node23</title>
<g id="a_node23"><a xlink:href="structdpp_1_1json__interface.html" target="_top" xlink:title="Represents an interface for an object that can optionally implement functions for converting to and f...">
<polygon fill="none" stroke="black" points="0,-62 0,-81 138,-81 138,-62 0,-62"/>
<text text-anchor="middle" x="69" y="-69" font-family="Helvetica,sans-Serif" font-size="10.00">dpp::json_interface&lt; T &gt;</text>
</a>
</g>
</g>
<!-- Node23&#45;&gt;Node22 -->
<g id="edge27" class="edge">
<title>Node23&#45;&gt;Node22</title>
<path fill="none" stroke="orange" stroke-dasharray="5,2" d="M95.1,-86.52C146.94,-117.52 265.28,-188.31 317.24,-219.39"/>
<polygon fill="orange" stroke="orange" points="96.61,-83.34 86.23,-81.21 93.02,-89.35 96.61,-83.34"/>
<text text-anchor="middle" x="206" y="-185.5" font-family="Helvetica,sans-Serif" font-size="10.00"> &lt; user &gt;</text>
</g>
<!-- Node36 -->
<g id="node36" class="node">
<title>Node36</title>
<g id="a_node36"><a xlink:href="structdpp_1_1json__interface.html" target="_top" xlink:title=" ">
<polygon fill="none" stroke="black" points="287,-3.5 287,-33.5 400,-33.5 400,-3.5 287,-3.5"/>
<text text-anchor="start" x="295" y="-21.5" font-family="Helvetica,sans-Serif" font-size="10.00">dpp::json_interface</text>
<text text-anchor="middle" x="343.5" y="-10.5" font-family="Helvetica,sans-Serif" font-size="10.00">&lt; stage_instance &gt;</text>
</a>
</g>
</g>
<!-- Node23&#45;&gt;Node36 -->
<g id="edge51" class="edge">
<title>Node23&#45;&gt;Node36</title>
<path fill="none" stroke="orange" stroke-dasharray="5,2" d="M114.44,-59.36C127.75,-55.93 142.42,-52.36 156,-49.5 199.68,-40.3 249.59,-32.13 286.77,-26.48"/>
<polygon fill="orange" stroke="orange" points="113.36,-56.02 104.57,-61.93 115.13,-62.79 113.36,-56.02"/>
<text text-anchor="middle" x="206" y="-52.5" font-family="Helvetica,sans-Serif" font-size="10.00"> &lt; stage_instance &gt;</text>
</g>
<!-- Node24&#45;&gt;Node20 -->
<g id="edge29" class="edge">
<title>Node24&#45;&gt;Node20</title>
<path fill="none" stroke="#9a32cd" stroke-dasharray="5,2" d="M412.88,-406.66C469.18,-402.06 541.42,-394.53 552,-385.5 573.83,-366.87 549.96,-344.03 570,-323.5 577.86,-315.45 589.11,-310.8 599.75,-308.12"/>
<polygon fill="#9a32cd" stroke="#9a32cd" points="412.25,-403.2 402.57,-407.48 412.81,-410.17 412.25,-403.2"/>
<text text-anchor="middle" x="491.5" y="-407.5" font-family="Helvetica,sans-Serif" font-size="10.00"> avatar</text>
</g>
<!-- Node25 -->
<g id="node25" class="node">
<title>Node25</title>
<g id="a_node25"><a xlink:title=" ">
<polygon fill="none" stroke="#bfbfbf" points="315.5,-364 315.5,-383 371.5,-383 371.5,-364 315.5,-364"/>
<text text-anchor="middle" x="343.5" y="-371" font-family="Helvetica,sans-Serif" font-size="10.00">uint16_t</text>
</a>
</g>
</g>
<!-- Node25&#45;&gt;Node20 -->
<g id="edge32" class="edge">
<title>Node25&#45;&gt;Node20</title>
<path fill="none" stroke="#9a32cd" stroke-dasharray="5,2" d="M381.86,-375.05C425.21,-375.3 497.69,-370.8 552,-342.5 562.32,-337.12 560.14,-329.67 570,-323.5 578.98,-317.87 589.77,-313.78 599.71,-310.87"/>
<polygon fill="#9a32cd" stroke="#9a32cd" points="381.8,-371.55 371.75,-374.91 381.7,-378.55 381.8,-371.55"/>
<text text-anchor="middle" x="491.5" y="-375.5" font-family="Helvetica,sans-Serif" font-size="10.00"> discriminator</text>
</g>
<!-- Node26 -->
<g id="node26" class="node">
<title>Node26</title>
<g id="a_node26"><a xlink:title=" ">
<polygon fill="none" stroke="#bfbfbf" points="318.5,-326 318.5,-345 368.5,-345 368.5,-326 318.5,-326"/>
<text text-anchor="middle" x="343.5" y="-333" font-family="Helvetica,sans-Serif" font-size="10.00">uint8_t</text>
</a>
</g>
</g>
<!-- Node26&#45;&gt;Node20 -->
<g id="edge33" class="edge">
<title>Node26&#45;&gt;Node20</title>
<path fill="none" stroke="#9a32cd" stroke-dasharray="5,2" d="M378.53,-332.68C419.68,-329.17 491,-322.74 552,-315.5 567.75,-313.63 585.25,-311.2 599.67,-309.09"/>
<polygon fill="#9a32cd" stroke="#9a32cd" points="378.17,-329.2 368.5,-333.53 378.76,-336.18 378.17,-329.2"/>
<text text-anchor="middle" x="491.5" y="-330.5" font-family="Helvetica,sans-Serif" font-size="10.00"> refcount</text>
</g>
<!-- Node27 -->
<g id="node27" class="node">
<title>Node27</title>
<g id="a_node27"><a xlink:href="structdpp_1_1cache__policy__t.html" target="_top" xlink:title="Represents the caching policy of the cluster.">
<polygon fill="none" stroke="black" points="574.5,-333 574.5,-352 687.5,-352 687.5,-333 574.5,-333"/>
<text text-anchor="middle" x="631" y="-340" font-family="Helvetica,sans-Serif" font-size="10.00">dpp::cache_policy_t</text>
</a>
</g>
</g>
<!-- Node27&#45;&gt;Node17 -->
<g id="edge34" class="edge">
<title>Node27&#45;&gt;Node17</title>
<path fill="none" stroke="#9a32cd" stroke-dasharray="5,2" d="M694.63,-331.86C735.18,-327.79 788.21,-327.88 831,-346.5 866.09,-361.77 893.46,-400.62 904.8,-418.82"/>
<polygon fill="#9a32cd" stroke="#9a32cd" points="694.15,-328.4 684.6,-332.98 694.93,-335.35 694.15,-328.4"/>
<text text-anchor="middle" x="770.5" y="-349.5" font-family="Helvetica,sans-Serif" font-size="10.00"> cache_policy</text>
</g>
<!-- Node28 -->
<g id="node28" class="node">
<title>Node28</title>
<g id="a_node28"><a xlink:title=" ">
<polygon fill="none" stroke="#bfbfbf" points="279.5,-440 279.5,-459 407.5,-459 407.5,-440 279.5,-440"/>
<text text-anchor="middle" x="343.5" y="-447" font-family="Helvetica,sans-Serif" font-size="10.00">cache_policy_setting_t</text>
</a>
</g>
</g>
<!-- Node28&#45;&gt;Node27 -->
<g id="edge35" class="edge">
<title>Node28&#45;&gt;Node27</title>
<path fill="none" stroke="#9a32cd" stroke-dasharray="5,2" d="M417.83,-442.74C473.32,-436.99 541.71,-428.29 552,-419.5 572.53,-401.97 550.97,-380.64 570,-361.5 573.85,-357.63 578.49,-354.54 583.46,-352.08"/>
<polygon fill="#9a32cd" stroke="#9a32cd" points="417.23,-439.29 407.64,-443.78 417.94,-446.25 417.23,-439.29"/>
<text text-anchor="middle" x="491.5" y="-465.5" font-family="Helvetica,sans-Serif" font-size="10.00"> emoji_policy</text>
<text text-anchor="middle" x="491.5" y="-454.5" font-family="Helvetica,sans-Serif" font-size="10.00">role_policy</text>
<text text-anchor="middle" x="491.5" y="-443.5" font-family="Helvetica,sans-Serif" font-size="10.00">user_policy</text>
</g>
<!-- Node29 -->
<g id="node29" class="node">
<title>Node29</title>
<g id="a_node29"><a xlink:title=" ">
<polygon fill="none" stroke="#bfbfbf" points="570,-205 570,-224 692,-224 692,-205 570,-205"/>
<text text-anchor="middle" x="631" y="-212" font-family="Helvetica,sans-Serif" font-size="10.00">websocket_protocol_t</text>
</a>
</g>
</g>
<!-- Node29&#45;&gt;Node5 -->
<g id="edge46" class="edge">
<title>Node29&#45;&gt;Node5</title>
<path fill="none" stroke="#9a32cd" stroke-dasharray="5,2" d="M702.05,-207.65C741.29,-206.41 790.35,-209.28 831,-225.5 992.37,-289.87 1035.43,-332.11 1129,-478.5 1183.15,-563.22 1196.56,-689.29 1199.35,-724.85"/>
<polygon fill="#9a32cd" stroke="#9a32cd" points="701.89,-204.15 692.04,-208.06 702.17,-211.14 701.89,-204.15"/>
<text text-anchor="middle" x="911.5" y="-299.5" font-family="Helvetica,sans-Serif" font-size="10.00"> protocol</text>
</g>
<!-- Node29&#45;&gt;Node17 -->
<g id="edge36" class="edge">
<title>Node29&#45;&gt;Node17</title>
<path fill="none" stroke="#9a32cd" stroke-dasharray="5,2" d="M702.19,-222.09C755.26,-228.38 820.72,-237.56 831,-245.5 889.66,-290.82 905.8,-388.25 909.52,-419"/>
<polygon fill="#9a32cd" stroke="#9a32cd" points="702.44,-218.59 692.1,-220.91 701.62,-225.55 702.44,-218.59"/>
<text text-anchor="middle" x="770.5" y="-248.5" font-family="Helvetica,sans-Serif" font-size="10.00"> ws_mode</text>
</g>
<!-- Node30 -->
<g id="node30" class="node">
<title>Node30</title>
<g id="a_node30"><a xlink:title=" ">
<polygon fill="none" stroke="#bfbfbf" points="577.5,-531 577.5,-550 684.5,-550 684.5,-531 577.5,-531"/>
<text text-anchor="middle" x="631" y="-538" font-family="Helvetica,sans-Serif" font-size="10.00">condition_variable</text>
</a>
</g>
</g>
<!-- Node30&#45;&gt;Node17 -->
<g id="edge37" class="edge">
<title>Node30&#45;&gt;Node17</title>
<path fill="none" stroke="#9a32cd" stroke-dasharray="5,2" d="M694.82,-538.45C744.05,-535.95 807.96,-530.46 831,-518.5 867.08,-499.77 894.32,-457.36 905.26,-438.21"/>
<polygon fill="#9a32cd" stroke="#9a32cd" points="694.37,-534.97 684.55,-538.94 694.71,-541.96 694.37,-534.97"/>
<text text-anchor="middle" x="770.5" y="-540.5" font-family="Helvetica,sans-Serif" font-size="10.00"> terminating</text>
</g>
<!-- Node31 -->
<g id="node31" class="node">
<title>Node31</title>
<g id="a_node31"><a xlink:title=" ">
<polygon fill="none" stroke="#bfbfbf" points="583,-371 583,-390 679,-390 679,-371 583,-371"/>
<text text-anchor="middle" x="631" y="-378" font-family="Helvetica,sans-Serif" font-size="10.00">event_router_t&lt;</text>
</a>
</g>
</g>
<!-- Node31&#45;&gt;Node17 -->
<g id="edge38" class="edge">
<title>Node31&#45;&gt;Node17</title>
<path fill="none" stroke="#9a32cd" stroke-dasharray="5,2" d="M682.35,-369.17C723.36,-362.13 782.23,-357.05 831,-372.5 859.65,-381.58 886.89,-405.1 900.83,-418.6"/>
<polygon fill="#9a32cd" stroke="#9a32cd" points="681.55,-365.76 672.33,-370.99 682.8,-372.65 681.55,-365.76"/>
<text text-anchor="middle" x="770.5" y="-485.5" font-family="Helvetica,sans-Serif" font-size="10.00"> on_autocomplete</text>
<text text-anchor="middle" x="770.5" y="-474.5" font-family="Helvetica,sans-Serif" font-size="10.00">on_button_click</text>
<text text-anchor="middle" x="770.5" y="-463.5" font-family="Helvetica,sans-Serif" font-size="10.00">on_channel_create</text>
<text text-anchor="middle" x="770.5" y="-452.5" font-family="Helvetica,sans-Serif" font-size="10.00">on_channel_delete</text>
<text text-anchor="middle" x="770.5" y="-441.5" font-family="Helvetica,sans-Serif" font-size="10.00">on_channel_pins_update</text>
<text text-anchor="middle" x="770.5" y="-430.5" font-family="Helvetica,sans-Serif" font-size="10.00">on_channel_update</text>
<text text-anchor="middle" x="770.5" y="-419.5" font-family="Helvetica,sans-Serif" font-size="10.00">on_form_submit</text>
<text text-anchor="middle" x="770.5" y="-408.5" font-family="Helvetica,sans-Serif" font-size="10.00">on_guild_ban_add</text>
<text text-anchor="middle" x="770.5" y="-397.5" font-family="Helvetica,sans-Serif" font-size="10.00">on_guild_ban_remove</text>
<text text-anchor="middle" x="770.5" y="-386.5" font-family="Helvetica,sans-Serif" font-size="10.00">on_guild_create</text>
<text text-anchor="middle" x="770.5" y="-375.5" font-family="Helvetica,sans-Serif" font-size="10.00">...</text>
</g>
<!-- Node32 -->
<g id="node32" class="node">
<title>Node32</title>
<g id="a_node32"><a xlink:title=" ">
<polygon fill="none" stroke="#bfbfbf" points="855,-915 855,-934 968,-934 968,-915 855,-915"/>
<text text-anchor="middle" x="911.5" y="-922" font-family="Helvetica,sans-Serif" font-size="10.00">native_handle_type</text>
</a>
</g>
</g>
<!-- Node32&#45;&gt;Node5 -->
<g id="edge41" class="edge">
<title>Node32&#45;&gt;Node5</title>
<path fill="none" stroke="#9a32cd" stroke-dasharray="5,2" d="M978.19,-923.67C1033.01,-921.72 1105.79,-915.81 1129,-898.5 1181.47,-859.36 1195.68,-773.33 1199.05,-744.29"/>
<polygon fill="#9a32cd" stroke="#9a32cd" points="978.06,-920.17 968.18,-923.99 978.28,-927.17 978.06,-920.17"/>
<text text-anchor="middle" x="1060.5" y="-925.5" font-family="Helvetica,sans-Serif" font-size="10.00"> thread_id</text>
</g>
<!-- Node33 -->
<g id="node33" class="node">
<title>Node33</title>
<g id="a_node33"><a xlink:title=" ">
<polygon fill="none" stroke="#bfbfbf" points="877,-877 877,-896 946,-896 946,-877 877,-877"/>
<text text-anchor="middle" x="911.5" y="-884" font-family="Helvetica,sans-Serif" font-size="10.00">std::mutex</text>
</a>
</g>
</g>
<!-- Node33&#45;&gt;Node5 -->
<g id="edge44" class="edge">
<title>Node33&#45;&gt;Node5</title>
<path fill="none" stroke="#9a32cd" stroke-dasharray="5,2" d="M956.22,-885.84C1011.16,-884.24 1101.56,-878.81 1129,-860.5 1171.81,-831.92 1191.59,-768.32 1197.77,-744.11"/>
<polygon fill="#9a32cd" stroke="#9a32cd" points="955.98,-882.35 946.07,-886.11 956.16,-889.34 955.98,-882.35"/>
<text text-anchor="middle" x="1060.5" y="-886.5" font-family="Helvetica,sans-Serif" font-size="10.00"> voice_mutex</text>
</g>
<!-- Node34 -->
<g id="node34" class="node">
<title>Node34</title>
<g id="a_node34"><a xlink:title=" ">
<polygon fill="none" stroke="#bfbfbf" points="861,-839 861,-858 962,-858 962,-839 861,-839"/>
<text text-anchor="middle" x="911.5" y="-846" font-family="Helvetica,sans-Serif" font-size="10.00">unordered_map&lt;</text>
</a>
</g>
</g>
<!-- Node34&#45;&gt;Node5 -->
<g id="edge47" class="edge">
<title>Node34&#45;&gt;Node5</title>
<path fill="none" stroke="#9a32cd" stroke-dasharray="5,2" d="M972.57,-846.99C1027.15,-844.69 1102.98,-838.94 1129,-824.5 1162.93,-805.67 1186.37,-763.31 1195.61,-744.19"/>
<polygon fill="#9a32cd" stroke="#9a32cd" points="972.16,-843.5 962.3,-847.39 972.43,-850.49 972.16,-843.5"/>
<text text-anchor="middle" x="1060.5" y="-848.5" font-family="Helvetica,sans-Serif" font-size="10.00"> connecting_voice_channels</text>
</g>
<!-- Node35&#45;&gt;Node1 -->
<g id="edge48" class="edge">
<title>Node35&#45;&gt;Node1</title>
<path fill="none" stroke="#9a32cd" stroke-dasharray="5,2" d="M698.23,-88.5C754.65,-88.5 837.9,-88.5 910.5,-88.5 910.5,-88.5 910.5,-88.5 1381,-88.5 1413.45,-88.5 1449.63,-91.18 1478.76,-94.01"/>
<polygon fill="#9a32cd" stroke="#9a32cd" points="698.01,-85 688.01,-88.5 698.01,-92 698.01,-85"/>
<text text-anchor="middle" x="1201" y="-91.5" font-family="Helvetica,sans-Serif" font-size="10.00"> deleted</text>
</g>
<!-- Node36&#45;&gt;Node35 -->
<g id="edge50" class="edge">
<title>Node36&#45;&gt;Node35</title>
<path fill="none" stroke="midnightblue" d="M410.37,-25.26C451.66,-30.56 505.65,-39.44 552,-53.5 573.45,-60 596.73,-71.01 612.22,-78.95"/>
<polygon fill="midnightblue" stroke="midnightblue" points="410.79,-21.79 400.43,-24.02 409.92,-28.73 410.79,-21.79"/>
</g>
<!-- Node37 -->
<g id="node37" class="node">
<title>Node37</title>
<g id="a_node37"><a xlink:title=" ">
<polygon fill="none" stroke="#bfbfbf" points="286.5,-53 286.5,-72 400.5,-72 400.5,-53 286.5,-53"/>
<text text-anchor="middle" x="343.5" y="-60" font-family="Helvetica,sans-Serif" font-size="10.00">stage_privacy_level</text>
</a>
</g>
</g>
<!-- Node37&#45;&gt;Node35 -->
<g id="edge54" class="edge">
<title>Node37&#45;&gt;Node35</title>
<path fill="none" stroke="#9a32cd" stroke-dasharray="5,2" d="M410.92,-57.7C451.85,-56.01 505.26,-56.08 552,-63.5 570.82,-66.49 591.31,-73.2 606.56,-78.91"/>
<polygon fill="#9a32cd" stroke="#9a32cd" points="410.63,-54.21 400.8,-58.17 410.95,-61.2 410.63,-54.21"/>
<text text-anchor="middle" x="491.5" y="-66.5" font-family="Helvetica,sans-Serif" font-size="10.00"> privacy_level</text>
</g>
</g>
</svg>
