<?xml version="1.0" encoding="UTF-8" standalone="no"?>
<!DOCTYPE svg PUBLIC "-//W3C//DTD SVG 1.1//EN"
 "http://www.w3.org/Graphics/SVG/1.1/DTD/svg11.dtd">
<!-- Generated by graphviz version 2.43.0 (0)
 -->
<!-- Title: dpp::task&lt; R &gt; Pages: 1 -->
<svg width="109pt" height="163pt"
 viewBox="0.00 0.00 109.00 163.00" xmlns="http://www.w3.org/2000/svg" xmlns:xlink="http://www.w3.org/1999/xlink">
<g id="graph0" class="graph" transform="scale(1 1) rotate(0) translate(4 159)">
<title>dpp::task&lt; R &gt;</title>
<!-- Node1 -->
<g id="node1" class="node">
<title>Node1</title>
<g id="a_node1"><a xlink:title="A coroutine task. It starts immediately on construction and can be co_await&#45;ed, making it perfect for...">
<polygon fill="#bfbfbf" stroke="black" points="5,-0.5 5,-19.5 96,-19.5 96,-0.5 5,-0.5"/>
<text text-anchor="middle" x="50.5" y="-7.5" font-family="Helvetica,sans-Serif" font-size="10.00">dpp::task&lt; R &gt;</text>
</a>
</g>
</g>
<!-- Node2 -->
<g id="node2" class="node">
<title>Node2</title>
<g id="a_node2"><a xlink:href="classdpp_1_1detail_1_1task_1_1task__base.html" target="_top" xlink:title="Base class of dpp::task.">
<polygon fill="none" stroke="black" points="0,-57.5 0,-87.5 101,-87.5 101,-57.5 0,-57.5"/>
<text text-anchor="start" x="8" y="-75.5" font-family="Helvetica,sans-Serif" font-size="10.00">dpp::detail::task::</text>
<text text-anchor="middle" x="50.5" y="-64.5" font-family="Helvetica,sans-Serif" font-size="10.00">task_base&lt; R &gt;</text>
</a>
</g>
</g>
<!-- Node2&#45;&gt;Node1 -->
<g id="edge1" class="edge">
<title>Node2&#45;&gt;Node1</title>
<path fill="none" stroke="#8b1a1a" d="M50.5,-47.35C50.5,-37.51 50.5,-26.78 50.5,-19.54"/>
<polygon fill="#8b1a1a" stroke="#8b1a1a" points="47,-47.47 50.5,-57.47 54,-47.47 47,-47.47"/>
</g>
<!-- Node3 -->
<g id="node3" class="node">
<title>Node3</title>
<g id="a_node3"><a xlink:title=" ">
<polygon fill="none" stroke="#bfbfbf" points="17,-135.5 17,-154.5 84,-154.5 84,-135.5 17,-135.5"/>
<text text-anchor="middle" x="50.5" y="-142.5" font-family="Helvetica,sans-Serif" font-size="10.00">handle_t&lt;</text>
</a>
</g>
</g>
<!-- Node3&#45;&gt;Node2 -->
<g id="edge2" class="edge">
<title>Node3&#45;&gt;Node2</title>
<path fill="none" stroke="#9a32cd" stroke-dasharray="5,2" d="M50.5,-125.24C50.5,-113.41 50.5,-98.38 50.5,-87.58"/>
<polygon fill="#9a32cd" stroke="#9a32cd" points="47,-125.36 50.5,-135.36 54,-125.36 47,-125.36"/>
<text text-anchor="middle" x="69" y="-109" font-family="Helvetica,sans-Serif" font-size="10.00"> handle</text>
</g>
</g>
</svg>
