<?xml version="1.0" encoding="UTF-8" standalone="no"?>
<!DOCTYPE svg PUBLIC "-//W3C//DTD SVG 1.1//EN"
 "http://www.w3.org/Graphics/SVG/1.1/DTD/svg11.dtd">
<!-- Generated by graphviz version 2.43.0 (0)
 -->
<!-- Title: dpp::event_member Pages: 1 -->
<!--zoomable 512 -->
<svg id="main" version="1.1" xmlns="http://www.w3.org/2000/svg" xmlns:xlink="http://www.w3.org/1999/xlink" xml:space="preserve" onload="init(evt)">
<style type="text/css"><![CDATA[
.edge:hover path { stroke: red; }
.edge:hover polygon { stroke: red; fill: red; }
]]></style>
<script type="text/javascript"><![CDATA[
var edges = document.getElementsByTagName('g');
if (edges && edges.length) {
  for (var i=0;i<edges.length;i++) {
    if (edges[i].id.substr(0,4)=='edge') {
      edges[i].setAttribute('class','edge');
    }
  }
}
]]></script>
        <defs>
                <circle id="rim" cx="0" cy="0" r="7"/>
                <circle id="rim2" cx="0" cy="0" r="3.5"/>
                <g id="zoomPlus">
                        <use xlink:href="#rim" fill="#404040">
                                <set attributeName="fill" to="#808080" begin="zoomplus.mouseover" end="zoomplus.mouseout"/>
                        </use>
                        <path d="M-4,0h8M0,-4v8" fill="none" stroke="white" stroke-width="1.5" pointer-events="none"/>
                </g>
                <g id="zoomMin">
                        <use xlink:href="#rim" fill="#404040">
                                <set attributeName="fill" to="#808080" begin="zoomminus.mouseover" end="zoomminus.mouseout"/>
                        </use>
                        <path d="M-4,0h8" fill="none" stroke="white" stroke-width="1.5" pointer-events="none"/>
                </g>
                <g id="dirArrow">
                        <path fill="none" stroke="white" stroke-width="1.5" d="M0,-3.0v7 M-2.5,-0.5L0,-3.0L2.5,-0.5"/>
                </g>
               <g id="resetDef">
                       <use xlink:href="#rim2" fill="#404040">
                               <set attributeName="fill" to="#808080" begin="reset.mouseover" end="reset.mouseout"/>
                       </use>
               </g>
        </defs>

<script type="text/javascript">
var viewWidth = 943;
var viewHeight = 512;
var sectionId = 'dynsection-0';
</script>
<script xlink:href="svgpan.js"/>
<svg id="graph" class="graph">
<g id="viewport">
<title>dpp::event_member</title>
<!-- Node1 -->
<g id="node1" class="node">
<title>Node1</title>
<g id="a_node1"><a xlink:title="Represents a guild member/user who has registered interest in an event.">
<polygon fill="#bfbfbf" stroke="black" points="820,-353.5 820,-372.5 935,-372.5 935,-353.5 820,-353.5"/>
<text text-anchor="middle" x="877.5" y="-360.5" font-family="Helvetica,sans-Serif" font-size="10.00">dpp::event_member</text>
</a>
</g>
</g>
<!-- Node2 -->
<g id="node2" class="node">
<title>Node2</title>
<g id="a_node2"><a xlink:href="classdpp_1_1snowflake.html" target="_top" xlink:title="A container for a 64 bit unsigned value representing many things on discord. This value is known in d...">
<polygon fill="none" stroke="black" points="147.5,-397.5 147.5,-416.5 236.5,-416.5 236.5,-397.5 147.5,-397.5"/>
<text text-anchor="middle" x="192" y="-404.5" font-family="Helvetica,sans-Serif" font-size="10.00">dpp::snowflake</text>
</a>
</g>
</g>
<!-- Node2&#45;&gt;Node1 -->
<g id="edge1" class="edge">
<title>Node2&#45;&gt;Node1</title>
<path fill="none" stroke="#9a32cd" stroke-dasharray="5,2" d="M213.49,-422.79C241.23,-442.96 293.14,-476.51 344,-487 547.59,-528.99 792.55,-408.39 859.1,-372.65"/>
<polygon fill="#9a32cd" stroke="#9a32cd" points="215.48,-419.91 205.36,-416.76 211.31,-425.53 215.48,-419.91"/>
<text text-anchor="middle" x="545" y="-496" font-family="Helvetica,sans-Serif" font-size="10.00"> guild_scheduled_event_id</text>
</g>
<!-- Node5 -->
<g id="node5" class="node">
<title>Node5</title>
<g id="a_node5"><a xlink:href="classdpp_1_1managed.html" target="_top" xlink:title="The managed class is the base class for various types that can be stored in a cache that are identifi...">
<polygon fill="none" stroke="black" points="360,-458.5 360,-477.5 446,-477.5 446,-458.5 360,-458.5"/>
<text text-anchor="middle" x="403" y="-465.5" font-family="Helvetica,sans-Serif" font-size="10.00">dpp::managed</text>
</a>
</g>
</g>
<!-- Node2&#45;&gt;Node5 -->
<g id="edge5" class="edge">
<title>Node2&#45;&gt;Node5</title>
<path fill="none" stroke="#9a32cd" stroke-dasharray="5,2" d="M235.28,-419.34C274.84,-430.89 333.09,-447.89 369.23,-458.44"/>
<polygon fill="#9a32cd" stroke="#9a32cd" points="236.24,-415.97 225.66,-416.53 234.28,-422.69 236.24,-415.97"/>
<text text-anchor="middle" x="302.5" y="-447" font-family="Helvetica,sans-Serif" font-size="10.00"> id</text>
</g>
<!-- Node14 -->
<g id="node14" class="node">
<title>Node14</title>
<g id="a_node14"><a xlink:href="classdpp_1_1guild__member.html" target="_top" xlink:title="Represents dpp::user membership upon a dpp::guild. This contains the user&#39;s nickname,...">
<polygon fill="none" stroke="black" points="628,-146.5 628,-165.5 739,-165.5 739,-146.5 628,-146.5"/>
<text text-anchor="middle" x="683.5" y="-153.5" font-family="Helvetica,sans-Serif" font-size="10.00">dpp::guild_member</text>
</a>
</g>
</g>
<!-- Node2&#45;&gt;Node14 -->
<g id="edge18" class="edge">
<title>Node2&#45;&gt;Node14</title>
<path fill="none" stroke="#9a32cd" stroke-dasharray="5,2" d="M227.99,-393.03C239.98,-386.69 252.5,-378.09 261,-367 345.64,-256.49 233.29,-149.38 344,-65 391.16,-29.05 556.72,-59.97 610,-86 639.24,-100.28 664.26,-130.76 675.76,-146.36"/>
<polygon fill="#9a32cd" stroke="#9a32cd" points="226.44,-389.89 219,-397.44 229.52,-396.18 226.44,-389.89"/>
<text text-anchor="middle" x="403" y="-79" font-family="Helvetica,sans-Serif" font-size="10.00"> guild_id</text>
<text text-anchor="middle" x="403" y="-68" font-family="Helvetica,sans-Serif" font-size="10.00">user_id</text>
</g>
<!-- Node3 -->
<g id="node3" class="node">
<title>Node3</title>
<g id="a_node3"><a xlink:title=" ">
<polygon fill="none" stroke="#bfbfbf" points="0,-288.5 0,-307.5 56,-307.5 56,-288.5 0,-288.5"/>
<text text-anchor="middle" x="28" y="-295.5" font-family="Helvetica,sans-Serif" font-size="10.00">uint64_t</text>
</a>
</g>
</g>
<!-- Node3&#45;&gt;Node2 -->
<g id="edge2" class="edge">
<title>Node3&#45;&gt;Node2</title>
<path fill="none" stroke="#9a32cd" stroke-dasharray="5,2" d="M49.28,-313.82C68.04,-328.22 96.88,-349.79 123,-367 139.81,-378.08 159.74,-389.62 173.66,-397.44"/>
<polygon fill="#9a32cd" stroke="#9a32cd" points="51.24,-310.9 41.18,-307.56 46.96,-316.44 51.24,-310.9"/>
<text text-anchor="middle" x="89.5" y="-357" font-family="Helvetica,sans-Serif" font-size="10.00"> value</text>
</g>
<!-- Node10 -->
<g id="node10" class="node">
<title>Node10</title>
<g id="a_node10"><a xlink:href="structdpp_1_1utility_1_1iconhash.html" target="_top" xlink:title="Store a 128 bit icon hash (profile picture, server icon etc) as a 128 bit binary value made of two ui...">
<polygon fill="none" stroke="black" points="344,-256.5 344,-275.5 462,-275.5 462,-256.5 344,-256.5"/>
<text text-anchor="middle" x="403" y="-263.5" font-family="Helvetica,sans-Serif" font-size="10.00">dpp::utility::iconhash</text>
</a>
</g>
</g>
<!-- Node3&#45;&gt;Node10 -->
<g id="edge11" class="edge">
<title>Node3&#45;&gt;Node10</title>
<path fill="none" stroke="#9a32cd" stroke-dasharray="5,2" d="M66.34,-294.8C131.51,-289.21 266.45,-277.63 343.92,-270.98"/>
<polygon fill="#9a32cd" stroke="#9a32cd" points="65.79,-291.33 56.13,-295.67 66.39,-298.31 65.79,-291.33"/>
<text text-anchor="middle" x="192" y="-303" font-family="Helvetica,sans-Serif" font-size="10.00"> first</text>
<text text-anchor="middle" x="192" y="-292" font-family="Helvetica,sans-Serif" font-size="10.00">second</text>
</g>
<!-- Node4 -->
<g id="node4" class="node">
<title>Node4</title>
<g id="a_node4"><a xlink:href="classdpp_1_1user.html" target="_top" xlink:title="Represents a user on discord. May or may not be a member of a dpp::guild.">
<polygon fill="none" stroke="black" points="652.5,-353.5 652.5,-372.5 714.5,-372.5 714.5,-353.5 652.5,-353.5"/>
<text text-anchor="middle" x="683.5" y="-360.5" font-family="Helvetica,sans-Serif" font-size="10.00">dpp::user</text>
</a>
</g>
</g>
<!-- Node4&#45;&gt;Node1 -->
<g id="edge3" class="edge">
<title>Node4&#45;&gt;Node1</title>
<path fill="none" stroke="#9a32cd" stroke-dasharray="5,2" d="M725,-363C752.58,-363 789.46,-363 819.92,-363"/>
<polygon fill="#9a32cd" stroke="#9a32cd" points="724.92,-359.5 714.92,-363 724.92,-366.5 724.92,-359.5"/>
<text text-anchor="middle" x="779.5" y="-366" font-family="Helvetica,sans-Serif" font-size="10.00"> user</text>
</g>
<!-- Node5&#45;&gt;Node4 -->
<g id="edge4" class="edge">
<title>Node5&#45;&gt;Node4</title>
<path fill="none" stroke="midnightblue" d="M456.31,-469.54C499.73,-468.73 561.91,-462.64 610,-438 640.46,-422.39 665.46,-388.95 676.46,-372.52"/>
<polygon fill="midnightblue" stroke="midnightblue" points="456.22,-466.04 446.25,-469.63 456.29,-473.04 456.22,-466.04"/>
</g>
<!-- Node6 -->
<g id="node6" class="node">
<title>Node6</title>
<g id="a_node6"><a xlink:href="structdpp_1_1json__interface.html" target="_top" xlink:title=" ">
<polygon fill="none" stroke="black" points="348,-333 348,-363 458,-363 458,-333 348,-333"/>
<text text-anchor="start" x="356" y="-351" font-family="Helvetica,sans-Serif" font-size="10.00">dpp::json_interface</text>
<text text-anchor="middle" x="403" y="-340" font-family="Helvetica,sans-Serif" font-size="10.00">&lt; user &gt;</text>
</a>
</g>
</g>
<!-- Node6&#45;&gt;Node4 -->
<g id="edge6" class="edge">
<title>Node6&#45;&gt;Node4</title>
<path fill="none" stroke="midnightblue" d="M468.16,-351.46C525.96,-354.57 608.39,-359.01 652.27,-361.37"/>
<polygon fill="midnightblue" stroke="midnightblue" points="468.2,-347.95 458.03,-350.91 467.83,-354.94 468.2,-347.95"/>
</g>
<!-- Node7 -->
<g id="node7" class="node">
<title>Node7</title>
<g id="a_node7"><a xlink:href="structdpp_1_1json__interface.html" target="_top" xlink:title="Represents an interface for an object that can optionally implement functions for converting to and f...">
<polygon fill="none" stroke="black" points="123,-338.5 123,-357.5 261,-357.5 261,-338.5 123,-338.5"/>
<text text-anchor="middle" x="192" y="-345.5" font-family="Helvetica,sans-Serif" font-size="10.00">dpp::json_interface&lt; T &gt;</text>
</a>
</g>
</g>
<!-- Node7&#45;&gt;Node6 -->
<g id="edge7" class="edge">
<title>Node7&#45;&gt;Node6</title>
<path fill="none" stroke="orange" stroke-dasharray="5,2" d="M271.18,-348C296.71,-348 324.48,-348 347.84,-348"/>
<polygon fill="orange" stroke="orange" points="271.15,-344.5 261.15,-348 271.15,-351.5 271.15,-344.5"/>
<text text-anchor="middle" x="302.5" y="-351" font-family="Helvetica,sans-Serif" font-size="10.00"> &lt; user &gt;</text>
</g>
<!-- Node8 -->
<g id="node8" class="node">
<title>Node8</title>
<g id="a_node8"><a xlink:title=" ">
<polygon fill="none" stroke="#bfbfbf" points="370.5,-175.5 370.5,-194.5 435.5,-194.5 435.5,-175.5 370.5,-175.5"/>
<text text-anchor="middle" x="403" y="-182.5" font-family="Helvetica,sans-Serif" font-size="10.00">std::string</text>
</a>
</g>
</g>
<!-- Node8&#45;&gt;Node4 -->
<g id="edge8" class="edge">
<title>Node8&#45;&gt;Node4</title>
<path fill="none" stroke="#9a32cd" stroke-dasharray="5,2" d="M422.72,-201.07C437.34,-212.71 458.68,-227.78 480,-236 534.48,-257.01 560.6,-223.87 610,-255 648.21,-279.08 670.97,-331.45 679.1,-353.21"/>
<polygon fill="#9a32cd" stroke="#9a32cd" points="424.89,-198.33 414.94,-194.69 420.46,-203.74 424.89,-198.33"/>
<text text-anchor="middle" x="545" y="-269" font-family="Helvetica,sans-Serif" font-size="10.00"> global_name</text>
<text text-anchor="middle" x="545" y="-258" font-family="Helvetica,sans-Serif" font-size="10.00">username</text>
</g>
<!-- Node8&#45;&gt;Node14 -->
<g id="edge16" class="edge">
<title>Node8&#45;&gt;Node14</title>
<path fill="none" stroke="#9a32cd" stroke-dasharray="5,2" d="M433.55,-171.39C447.35,-165.75 464.19,-159.86 480,-157 529.47,-148.05 586.86,-148.79 627.88,-151.18"/>
<polygon fill="#9a32cd" stroke="#9a32cd" points="431.94,-168.27 424.1,-175.4 434.67,-174.71 431.94,-168.27"/>
<text text-anchor="middle" x="545" y="-160" font-family="Helvetica,sans-Serif" font-size="10.00"> nickname</text>
</g>
<!-- Node9 -->
<g id="node9" class="node">
<title>Node9</title>
<g id="a_node9"><a xlink:title=" ">
<polygon fill="none" stroke="#bfbfbf" points="140,-170 140,-200 244,-200 244,-170 140,-170"/>
<text text-anchor="start" x="148" y="-188" font-family="Helvetica,sans-Serif" font-size="10.00">std::basic_string&lt;</text>
<text text-anchor="middle" x="192" y="-177" font-family="Helvetica,sans-Serif" font-size="10.00"> Char &gt;</text>
</a>
</g>
</g>
<!-- Node9&#45;&gt;Node8 -->
<g id="edge9" class="edge">
<title>Node9&#45;&gt;Node8</title>
<path fill="none" stroke="midnightblue" d="M254.57,-185C292.53,-185 339.63,-185 370.23,-185"/>
<polygon fill="midnightblue" stroke="midnightblue" points="254.13,-181.5 244.13,-185 254.13,-188.5 254.13,-181.5"/>
</g>
<!-- Node10&#45;&gt;Node4 -->
<g id="edge10" class="edge">
<title>Node10&#45;&gt;Node4</title>
<path fill="none" stroke="#9a32cd" stroke-dasharray="5,2" d="M460.98,-277.47C467.39,-278.69 473.83,-279.89 480,-281 537.61,-291.33 556.8,-277.61 610,-302 636.92,-314.34 661.82,-339.48 674.24,-353.33"/>
<polygon fill="#9a32cd" stroke="#9a32cd" points="461.46,-274 450.98,-275.54 460.13,-280.87 461.46,-274"/>
<text text-anchor="middle" x="545" y="-305" font-family="Helvetica,sans-Serif" font-size="10.00"> avatar</text>
</g>
<!-- Node10&#45;&gt;Node14 -->
<g id="edge19" class="edge">
<title>Node10&#45;&gt;Node14</title>
<path fill="none" stroke="#9a32cd" stroke-dasharray="5,2" d="M419.06,-248.91C436.9,-229.1 465.95,-198.23 480,-191 483.32,-189.29 568.99,-174.84 627.82,-165.04"/>
<polygon fill="#9a32cd" stroke="#9a32cd" points="416.45,-246.59 412.4,-256.38 421.67,-251.25 416.45,-246.59"/>
<text text-anchor="middle" x="545" y="-194" font-family="Helvetica,sans-Serif" font-size="10.00"> avatar</text>
</g>
<!-- Node11 -->
<g id="node11" class="node">
<title>Node11</title>
<g id="a_node11"><a xlink:title=" ">
<polygon fill="none" stroke="#bfbfbf" points="375,-420.5 375,-439.5 431,-439.5 431,-420.5 375,-420.5"/>
<text text-anchor="middle" x="403" y="-427.5" font-family="Helvetica,sans-Serif" font-size="10.00">uint32_t</text>
</a>
</g>
</g>
<!-- Node11&#45;&gt;Node4 -->
<g id="edge12" class="edge">
<title>Node11&#45;&gt;Node4</title>
<path fill="none" stroke="#9a32cd" stroke-dasharray="5,2" d="M441.26,-427.54C483.1,-424.01 552.66,-415.86 610,-398 630.28,-391.68 652.04,-380.53 666.37,-372.51"/>
<polygon fill="#9a32cd" stroke="#9a32cd" points="440.93,-424.05 431.24,-428.34 441.49,-431.03 440.93,-424.05"/>
<text text-anchor="middle" x="545" y="-426" font-family="Helvetica,sans-Serif" font-size="10.00"> flags</text>
</g>
<!-- Node12 -->
<g id="node12" class="node">
<title>Node12</title>
<g id="a_node12"><a xlink:title=" ">
<polygon fill="none" stroke="#bfbfbf" points="375,-294.5 375,-313.5 431,-313.5 431,-294.5 375,-294.5"/>
<text text-anchor="middle" x="403" y="-301.5" font-family="Helvetica,sans-Serif" font-size="10.00">uint16_t</text>
</a>
</g>
</g>
<!-- Node12&#45;&gt;Node4 -->
<g id="edge13" class="edge">
<title>Node12&#45;&gt;Node4</title>
<path fill="none" stroke="#9a32cd" stroke-dasharray="5,2" d="M441.03,-309.55C495.88,-317.83 593.98,-332.88 610,-337 626.84,-341.33 645.27,-347.96 659.34,-353.45"/>
<polygon fill="#9a32cd" stroke="#9a32cd" points="441.41,-306.07 431,-308.04 440.37,-312.99 441.41,-306.07"/>
<text text-anchor="middle" x="545" y="-340" font-family="Helvetica,sans-Serif" font-size="10.00"> discriminator</text>
</g>
<!-- Node12&#45;&gt;Node14 -->
<g id="edge21" class="edge">
<title>Node12&#45;&gt;Node14</title>
<path fill="none" stroke="#9a32cd" stroke-dasharray="5,2" d="M440.96,-297.73C448.72,-294.92 456.28,-290.87 462,-285 481.44,-265.07 459.2,-243.51 480,-225 523.83,-185.99 555.3,-223.23 610,-202 633.21,-192.99 656.99,-176.16 670.72,-165.55"/>
<polygon fill="#9a32cd" stroke="#9a32cd" points="439.72,-294.44 431.14,-300.65 441.72,-301.15 439.72,-294.44"/>
<text text-anchor="middle" x="545" y="-228" font-family="Helvetica,sans-Serif" font-size="10.00"> flags</text>
</g>
<!-- Node13 -->
<g id="node13" class="node">
<title>Node13</title>
<g id="a_node13"><a xlink:title=" ">
<polygon fill="none" stroke="#bfbfbf" points="378,-382.5 378,-401.5 428,-401.5 428,-382.5 378,-382.5"/>
<text text-anchor="middle" x="403" y="-389.5" font-family="Helvetica,sans-Serif" font-size="10.00">uint8_t</text>
</a>
</g>
</g>
<!-- Node13&#45;&gt;Node4 -->
<g id="edge14" class="edge">
<title>Node13&#45;&gt;Node4</title>
<path fill="none" stroke="#9a32cd" stroke-dasharray="5,2" d="M438.51,-388.41C493.51,-382.68 600.14,-371.58 652.3,-366.14"/>
<polygon fill="#9a32cd" stroke="#9a32cd" points="437.81,-384.96 428.23,-389.48 438.54,-391.92 437.81,-384.96"/>
<text text-anchor="middle" x="545" y="-386" font-family="Helvetica,sans-Serif" font-size="10.00"> refcount</text>
</g>
<!-- Node14&#45;&gt;Node1 -->
<g id="edge15" class="edge">
<title>Node14&#45;&gt;Node1</title>
<path fill="none" stroke="#9a32cd" stroke-dasharray="5,2" d="M700.4,-173.14C739.02,-214.78 836.83,-320.23 867.29,-353.07"/>
<polygon fill="#9a32cd" stroke="#9a32cd" points="702.87,-170.66 693.5,-165.71 697.74,-175.42 702.87,-170.66"/>
<text text-anchor="middle" x="779.5" y="-281" font-family="Helvetica,sans-Serif" font-size="10.00"> member</text>
</g>
<!-- Node15 -->
<g id="node15" class="node">
<title>Node15</title>
<g id="a_node15"><a xlink:title=" ">
<polygon fill="none" stroke="#bfbfbf" points="375,-0.5 375,-19.5 431,-19.5 431,-0.5 375,-0.5"/>
<text text-anchor="middle" x="403" y="-7.5" font-family="Helvetica,sans-Serif" font-size="10.00">vector&lt;</text>
</a>
</g>
</g>
<!-- Node15&#45;&gt;Node14 -->
<g id="edge17" class="edge">
<title>Node15&#45;&gt;Node14</title>
<path fill="none" stroke="#9a32cd" stroke-dasharray="5,2" d="M441.19,-4.24C485.17,0.55 558.84,2.04 610,-31 653.2,-58.9 673.7,-122.27 680.16,-146.42"/>
<polygon fill="#9a32cd" stroke="#9a32cd" points="440.73,-0.77 431.22,-5.44 441.56,-7.72 440.73,-0.77"/>
<text text-anchor="middle" x="545" y="-34" font-family="Helvetica,sans-Serif" font-size="10.00"> roles</text>
</g>
<!-- Node16 -->
<g id="node16" class="node">
<title>Node16</title>
<g id="a_node16"><a xlink:title=" ">
<polygon fill="none" stroke="#bfbfbf" points="379,-96.5 379,-115.5 427,-115.5 427,-96.5 379,-96.5"/>
<text text-anchor="middle" x="403" y="-103.5" font-family="Helvetica,sans-Serif" font-size="10.00">time_t</text>
</a>
</g>
</g>
<!-- Node16&#45;&gt;Node14 -->
<g id="edge20" class="edge">
<title>Node16&#45;&gt;Node14</title>
<path fill="none" stroke="#9a32cd" stroke-dasharray="5,2" d="M436.86,-98.46C478.4,-90.42 551.55,-81.34 610,-101 636.65,-109.97 661.29,-133.05 673.83,-146.29"/>
<polygon fill="#9a32cd" stroke="#9a32cd" points="436.11,-95.04 427.01,-100.46 437.51,-101.9 436.11,-95.04"/>
<text text-anchor="start" x="482" y="-137" font-family="Helvetica,sans-Serif" font-size="10.00"> communication_disabled</text>
<text text-anchor="middle" x="545" y="-126" font-family="Helvetica,sans-Serif" font-size="10.00">_until</text>
<text text-anchor="middle" x="545" y="-115" font-family="Helvetica,sans-Serif" font-size="10.00">joined_at</text>
<text text-anchor="middle" x="545" y="-104" font-family="Helvetica,sans-Serif" font-size="10.00">premium_since</text>
</g>
</g>
</svg>
        <g id="navigator" transform="translate(0 0)" fill="#404254">
                <rect fill="#f2f5e9" fill-opacity="0.5" stroke="#606060" stroke-width=".5" x="0" y="0" width="60" height="60"/>
                <use id="zoomplus" xlink:href="#zoomPlus" x="17" y="9" onmousedown="handleZoom(evt,'in')"/>
                <use id="zoomminus" xlink:href="#zoomMin" x="42" y="9" onmousedown="handleZoom(evt,'out')"/>
                <use id="reset" xlink:href="#resetDef" x="30" y="36" onmousedown="handleReset()"/>
                <g id="arrowUp" xlink:href="#dirArrow" transform="translate(30 24)" onmousedown="handlePan(0,-1)">
                  <use xlink:href="#rim" fill="#404040">
                        <set attributeName="fill" to="#808080" begin="arrowUp.mouseover" end="arrowUp.mouseout"/>
                  </use>
                  <path fill="none" stroke="white" stroke-width="1.5" d="M0,-3.0v7 M-2.5,-0.5L0,-3.0L2.5,-0.5"/>
                </g>
                <g id="arrowRight" xlink:href="#dirArrow" transform="rotate(90) translate(36 -43)" onmousedown="handlePan(1,0)">
                  <use xlink:href="#rim" fill="#404040">
                        <set attributeName="fill" to="#808080" begin="arrowRight.mouseover" end="arrowRight.mouseout"/>
                  </use>
                  <path fill="none" stroke="white" stroke-width="1.5" d="M0,-3.0v7 M-2.5,-0.5L0,-3.0L2.5,-0.5"/>
                </g>
                <g id="arrowDown" xlink:href="#dirArrow" transform="rotate(180) translate(-30 -48)" onmousedown="handlePan(0,1)">
                  <use xlink:href="#rim" fill="#404040">
                        <set attributeName="fill" to="#808080" begin="arrowDown.mouseover" end="arrowDown.mouseout"/>
                  </use>
                  <path fill="none" stroke="white" stroke-width="1.5" d="M0,-3.0v7 M-2.5,-0.5L0,-3.0L2.5,-0.5"/>
                </g>
                <g id="arrowLeft" xlink:href="#dirArrow" transform="rotate(270) translate(-36 17)" onmousedown="handlePan(-1,0)">
                  <use xlink:href="#rim" fill="#404040">
                        <set attributeName="fill" to="#808080" begin="arrowLeft.mouseover" end="arrowLeft.mouseout"/>
                  </use>
                  <path fill="none" stroke="white" stroke-width="1.5" d="M0,-3.0v7 M-2.5,-0.5L0,-3.0L2.5,-0.5"/>
                </g>
        </g>
        <svg viewBox="0 0 15 15" width="100%" height="30px" preserveAspectRatio="xMaxYMin meet">
         <g id="arrow_out" transform="scale(0.3 0.3)">
          <a xlink:href="structdpp_1_1event__member__coll__graph_org.svg" target="_base">
           <rect id="button" ry="5" rx="5" y="6" x="6" height="38" width="38"
                fill="#f2f5e9" fill-opacity="0.5" stroke="#606060" stroke-width="1.0"/>
           <path id="arrow"
             d="M 11.500037,31.436501 C 11.940474,20.09759 22.043105,11.32322 32.158766,21.979434 L 37.068811,17.246167 C 37.068811,17.246167 37.088388,32 37.088388,32 L 22.160133,31.978069 C 22.160133,31.978069 26.997745,27.140456 26.997745,27.140456 C 18.528582,18.264221 13.291696,25.230495 11.500037,31.436501 z"
             style="fill:#404040;"/>
          </a>
         </g>
        </svg>
</svg>
