<?xml version="1.0" encoding="UTF-8" standalone="no"?>
<!DOCTYPE svg PUBLIC "-//W3C//DTD SVG 1.1//EN"
 "http://www.w3.org/Graphics/SVG/1.1/DTD/svg11.dtd">
<!-- Generated by graphviz version 2.43.0 (0)
 -->
<!-- Title: dpp::guild_scheduled_event_create_t Pages: 1 -->
<svg width="1520pt" height="1306pt"
 viewBox="0.00 0.00 1520.00 1305.65" xmlns="http://www.w3.org/2000/svg" xmlns:xlink="http://www.w3.org/1999/xlink">
<g id="graph0" class="graph" transform="scale(1 1) rotate(0) translate(4 1301.65)">
<title>dpp::guild_scheduled_event_create_t</title>
<!-- Node1 -->
<g id="node1" class="node">
<title>Node1</title>
<g id="a_node1"><a xlink:title="Create scheduled event.">
<polygon fill="#bfbfbf" stroke="black" points="1393,-268.65 1393,-298.65 1512,-298.65 1512,-268.65 1393,-268.65"/>
<text text-anchor="start" x="1401" y="-286.65" font-family="Helvetica,sans-Serif" font-size="10.00">dpp::guild_scheduled</text>
<text text-anchor="middle" x="1452.5" y="-275.65" font-family="Helvetica,sans-Serif" font-size="10.00">_event_create_t</text>
</a>
</g>
</g>
<!-- Node2 -->
<g id="node2" class="node">
<title>Node2</title>
<g id="a_node2"><a xlink:href="structdpp_1_1event__dispatch__t.html" target="_top" xlink:title="Base event parameter struct. Each event you receive from the library will have its parameter derived ...">
<polygon fill="none" stroke="black" points="1232,-325.15 1232,-344.15 1356,-344.15 1356,-325.15 1232,-325.15"/>
<text text-anchor="middle" x="1294" y="-332.15" font-family="Helvetica,sans-Serif" font-size="10.00">dpp::event_dispatch_t</text>
</a>
</g>
</g>
<!-- Node2&#45;&gt;Node1 -->
<g id="edge1" class="edge">
<title>Node2&#45;&gt;Node1</title>
<path fill="none" stroke="midnightblue" d="M1333.95,-321.96C1355.57,-314.92 1382.59,-306.11 1405.27,-298.72"/>
<polygon fill="midnightblue" stroke="midnightblue" points="1332.86,-318.64 1324.44,-325.06 1335.03,-325.29 1332.86,-318.64"/>
</g>
<!-- Node3 -->
<g id="node3" class="node">
<title>Node3</title>
<g id="a_node3"><a xlink:title=" ">
<polygon fill="none" stroke="#bfbfbf" points="212,-755.15 212,-774.15 277,-774.15 277,-755.15 212,-755.15"/>
<text text-anchor="middle" x="244.5" y="-762.15" font-family="Helvetica,sans-Serif" font-size="10.00">std::string</text>
</a>
</g>
</g>
<!-- Node3&#45;&gt;Node2 -->
<g id="edge2" class="edge">
<title>Node3&#45;&gt;Node2</title>
<path fill="none" stroke="#9a32cd" stroke-dasharray="5,2" d="M287.09,-758.04C301.31,-755.87 317.33,-753.54 332,-751.65 389.86,-744.21 544.5,-756.07 593,-723.65 606.89,-714.37 597.73,-700.81 611,-690.65 654.91,-657.04 696.38,-703.95 732,-661.65 772.16,-613.96 706.4,-426.23 750,-381.65 889.28,-239.26 1166.64,-299.26 1260.84,-325.09"/>
<polygon fill="#9a32cd" stroke="#9a32cd" points="286.44,-754.6 277.09,-759.58 287.51,-761.52 286.44,-754.6"/>
<text text-anchor="middle" x="812.5" y="-384.65" font-family="Helvetica,sans-Serif" font-size="10.00"> raw_event</text>
</g>
<!-- Node5 -->
<g id="node5" class="node">
<title>Node5</title>
<g id="a_node5"><a xlink:href="classdpp_1_1discord__client.html" target="_top" xlink:title="Implements a discord client. Each discord_client connects to one shard and derives from a websocket c...">
<polygon fill="none" stroke="black" points="1048,-928.15 1048,-947.15 1156,-947.15 1156,-928.15 1048,-928.15"/>
<text text-anchor="middle" x="1102" y="-935.15" font-family="Helvetica,sans-Serif" font-size="10.00">dpp::discord_client</text>
</a>
</g>
</g>
<!-- Node3&#45;&gt;Node5 -->
<g id="edge38" class="edge">
<title>Node3&#45;&gt;Node5</title>
<path fill="none" stroke="#9a32cd" stroke-dasharray="5,2" d="M274.26,-779.17C287.67,-787.05 303.05,-797.81 314,-810.65 326.38,-825.18 317.85,-836.83 332,-849.65 374.18,-887.88 415.97,-848.42 453,-891.65 482.09,-925.62 437.5,-961.03 471,-990.65 517.69,-1031.94 548.7,-996.88 611,-998.65 797.43,-1003.98 852.93,-1034.21 1030,-975.65 1050.84,-968.76 1072.82,-956.03 1086.71,-947.22"/>
<polygon fill="#9a32cd" stroke="#9a32cd" points="275.8,-776.02 265.37,-774.18 272.38,-782.13 275.8,-776.02"/>
<text text-anchor="middle" x="671.5" y="-1020.65" font-family="Helvetica,sans-Serif" font-size="10.00"> sessionid</text>
<text text-anchor="middle" x="671.5" y="-1009.65" font-family="Helvetica,sans-Serif" font-size="10.00">token</text>
</g>
<!-- Node7 -->
<g id="node7" class="node">
<title>Node7</title>
<g id="a_node7"><a xlink:href="classdpp_1_1ssl__client.html" target="_top" xlink:title="Implements a simple non&#45;blocking SSL stream client.">
<polygon fill="none" stroke="black" points="489,-1038.15 489,-1057.15 575,-1057.15 575,-1038.15 489,-1038.15"/>
<text text-anchor="middle" x="532" y="-1045.15" font-family="Helvetica,sans-Serif" font-size="10.00">dpp::ssl_client</text>
</a>
</g>
</g>
<!-- Node3&#45;&gt;Node7 -->
<g id="edge7" class="edge">
<title>Node3&#45;&gt;Node7</title>
<path fill="none" stroke="#9a32cd" stroke-dasharray="5,2" d="M276.88,-779.05C290.2,-786.66 304.76,-797.23 314,-810.65 334.18,-839.95 306.36,-863.99 332,-888.65 371.45,-926.6 414.85,-872.4 453,-911.65 488.14,-947.81 439.5,-984.29 471,-1023.65 476.05,-1029.96 483,-1034.62 490.39,-1038.06"/>
<polygon fill="#9a32cd" stroke="#9a32cd" points="278.41,-775.89 267.94,-774.26 275.1,-782.06 278.41,-775.89"/>
<text text-anchor="middle" x="392.5" y="-958.65" font-family="Helvetica,sans-Serif" font-size="10.00"> buffer</text>
<text text-anchor="middle" x="392.5" y="-947.65" font-family="Helvetica,sans-Serif" font-size="10.00">cipher</text>
<text text-anchor="middle" x="392.5" y="-936.65" font-family="Helvetica,sans-Serif" font-size="10.00">hostname</text>
<text text-anchor="middle" x="392.5" y="-925.65" font-family="Helvetica,sans-Serif" font-size="10.00">obuffer</text>
<text text-anchor="middle" x="392.5" y="-914.65" font-family="Helvetica,sans-Serif" font-size="10.00">port</text>
</g>
<!-- Node15 -->
<g id="node15" class="node">
<title>Node15</title>
<g id="a_node15"><a xlink:href="classdpp_1_1cluster.html" target="_top" xlink:title="The cluster class represents a group of shards and a command queue for sending and receiving commands...">
<polygon fill="none" stroke="black" points="775.5,-733.15 775.5,-752.15 849.5,-752.15 849.5,-733.15 775.5,-733.15"/>
<text text-anchor="middle" x="812.5" y="-740.15" font-family="Helvetica,sans-Serif" font-size="10.00">dpp::cluster</text>
</a>
</g>
</g>
<!-- Node3&#45;&gt;Node15 -->
<g id="edge17" class="edge">
<title>Node3&#45;&gt;Node15</title>
<path fill="none" stroke="#9a32cd" stroke-dasharray="5,2" d="M287.09,-773.52C346.62,-786.26 449.44,-808.46 453,-810.65 463.76,-817.27 460.26,-826 471,-832.65 520.67,-863.44 680.63,-892.5 732,-864.65 777.56,-839.96 801.13,-776.58 808.72,-752.31"/>
<polygon fill="#9a32cd" stroke="#9a32cd" points="287.73,-770.07 277.21,-771.41 286.26,-776.92 287.73,-770.07"/>
<text text-anchor="middle" x="532" y="-872.65" font-family="Helvetica,sans-Serif" font-size="10.00"> token</text>
</g>
<!-- Node18 -->
<g id="node18" class="node">
<title>Node18</title>
<g id="a_node18"><a xlink:href="classdpp_1_1user.html" target="_top" xlink:title="Represents a user on discord. May or may not be a member of a dpp::guild.">
<polygon fill="none" stroke="black" points="501,-268.15 501,-287.15 563,-287.15 563,-268.15 501,-268.15"/>
<text text-anchor="middle" x="532" y="-275.15" font-family="Helvetica,sans-Serif" font-size="10.00">dpp::user</text>
</a>
</g>
</g>
<!-- Node3&#45;&gt;Node18 -->
<g id="edge24" class="edge">
<title>Node3&#45;&gt;Node18</title>
<path fill="none" stroke="#9a32cd" stroke-dasharray="5,2" d="M252.7,-745.45C282.56,-666.65 398.46,-369.1 471,-301.65 479.3,-293.94 490.39,-288.57 500.77,-284.91"/>
<polygon fill="#9a32cd" stroke="#9a32cd" points="249.33,-744.48 249.07,-755.07 255.88,-746.95 249.33,-744.48"/>
<text text-anchor="middle" x="392.5" y="-552.65" font-family="Helvetica,sans-Serif" font-size="10.00"> username</text>
</g>
<!-- Node30 -->
<g id="node30" class="node">
<title>Node30</title>
<g id="a_node30"><a xlink:href="structdpp_1_1scheduled__event.html" target="_top" xlink:title="A scheduled event.">
<polygon fill="none" stroke="black" points="751,-230.15 751,-249.15 874,-249.15 874,-230.15 751,-230.15"/>
<text text-anchor="middle" x="812.5" y="-237.15" font-family="Helvetica,sans-Serif" font-size="10.00">dpp::scheduled_event</text>
</a>
</g>
</g>
<!-- Node3&#45;&gt;Node30 -->
<g id="edge46" class="edge">
<title>Node3&#45;&gt;Node30</title>
<path fill="none" stroke="#9a32cd" stroke-dasharray="5,2" d="M272.13,-750.25C288.93,-741.61 311.29,-730.93 332,-723.65 391.91,-702.61 409.02,-704.42 471,-690.65 478.23,-689.05 727.17,-642.26 732,-636.65 755.53,-609.34 736.7,-346.17 750,-312.65 760.58,-286.01 784.94,-262.04 799.63,-249.3"/>
<polygon fill="#9a32cd" stroke="#9a32cd" points="270.17,-747.32 262.93,-755.06 273.42,-753.52 270.17,-747.32"/>
<text text-anchor="middle" x="532" y="-715.65" font-family="Helvetica,sans-Serif" font-size="10.00"> description</text>
<text text-anchor="middle" x="532" y="-704.65" font-family="Helvetica,sans-Serif" font-size="10.00">image</text>
<text text-anchor="middle" x="532" y="-693.65" font-family="Helvetica,sans-Serif" font-size="10.00">name</text>
</g>
<!-- Node34 -->
<g id="node34" class="node">
<title>Node34</title>
<g id="a_node34"><a xlink:href="structdpp_1_1event__entities.html" target="_top" xlink:title="Entities for the event.">
<polygon fill="none" stroke="black" points="477,-621.15 477,-640.15 587,-640.15 587,-621.15 477,-621.15"/>
<text text-anchor="middle" x="532" y="-628.15" font-family="Helvetica,sans-Serif" font-size="10.00">dpp::event_entities</text>
</a>
</g>
</g>
<!-- Node3&#45;&gt;Node34 -->
<g id="edge52" class="edge">
<title>Node3&#45;&gt;Node34</title>
<path fill="none" stroke="#9a32cd" stroke-dasharray="5,2" d="M253.95,-745.71C266.71,-719.57 293.58,-673.21 332,-651.65 376.23,-626.84 434.74,-623.5 476.85,-625.21"/>
<polygon fill="#9a32cd" stroke="#9a32cd" points="250.69,-744.41 249.61,-754.95 257.03,-747.38 250.69,-744.41"/>
<text text-anchor="middle" x="392.5" y="-654.65" font-family="Helvetica,sans-Serif" font-size="10.00"> location</text>
</g>
<!-- Node4 -->
<g id="node4" class="node">
<title>Node4</title>
<g id="a_node4"><a xlink:title=" ">
<polygon fill="none" stroke="#bfbfbf" points="0,-973.65 0,-1003.65 104,-1003.65 104,-973.65 0,-973.65"/>
<text text-anchor="start" x="8" y="-991.65" font-family="Helvetica,sans-Serif" font-size="10.00">std::basic_string&lt;</text>
<text text-anchor="middle" x="52" y="-980.65" font-family="Helvetica,sans-Serif" font-size="10.00"> Char &gt;</text>
</a>
</g>
</g>
<!-- Node4&#45;&gt;Node3 -->
<g id="edge3" class="edge">
<title>Node4&#45;&gt;Node3</title>
<path fill="none" stroke="midnightblue" d="M65.62,-964.52C85.44,-928.18 126.62,-858.58 175,-810.65 190.16,-795.63 210.88,-782.51 225.55,-774.17"/>
<polygon fill="midnightblue" stroke="midnightblue" points="62.49,-962.96 60.83,-973.42 68.65,-966.27 62.49,-962.96"/>
</g>
<!-- Node5&#45;&gt;Node2 -->
<g id="edge4" class="edge">
<title>Node5&#45;&gt;Node2</title>
<path fill="none" stroke="#9a32cd" stroke-dasharray="5,2" d="M1109.22,-917.91C1139.2,-822.77 1268.18,-413.42 1289.89,-344.52"/>
<polygon fill="#9a32cd" stroke="#9a32cd" points="1105.81,-917.1 1106.14,-927.69 1112.48,-919.21 1105.81,-917.1"/>
<text text-anchor="middle" x="1194" y="-711.65" font-family="Helvetica,sans-Serif" font-size="10.00"> from</text>
</g>
<!-- Node6 -->
<g id="node6" class="node">
<title>Node6</title>
<g id="a_node6"><a xlink:href="classdpp_1_1websocket__client.html" target="_top" xlink:title="Implements a websocket client based on the SSL client.">
<polygon fill="none" stroke="black" points="750,-1058.15 750,-1077.15 875,-1077.15 875,-1058.15 750,-1058.15"/>
<text text-anchor="middle" x="812.5" y="-1065.15" font-family="Helvetica,sans-Serif" font-size="10.00">dpp::websocket_client</text>
</a>
</g>
</g>
<!-- Node6&#45;&gt;Node5 -->
<g id="edge5" class="edge">
<title>Node6&#45;&gt;Node5</title>
<path fill="none" stroke="midnightblue" d="M885.5,-1074.43C930.14,-1075.22 986.96,-1069.78 1030,-1043.65 1067.87,-1020.67 1089.9,-968.9 1097.73,-947.35"/>
<polygon fill="midnightblue" stroke="midnightblue" points="885.4,-1070.92 875.31,-1074.14 885.2,-1077.92 885.4,-1070.92"/>
</g>
<!-- Node7&#45;&gt;Node6 -->
<g id="edge6" class="edge">
<title>Node7&#45;&gt;Node6</title>
<path fill="none" stroke="midnightblue" d="M585.51,-1051.43C632.24,-1054.78 700.62,-1059.69 749.91,-1063.23"/>
<polygon fill="midnightblue" stroke="midnightblue" points="585.52,-1047.92 575.3,-1050.69 585.02,-1054.9 585.52,-1047.92"/>
</g>
<!-- Node8 -->
<g id="node8" class="node">
<title>Node8</title>
<g id="a_node8"><a xlink:title=" ">
<polygon fill="none" stroke="#bfbfbf" points="225.5,-1177.15 225.5,-1196.15 263.5,-1196.15 263.5,-1177.15 225.5,-1177.15"/>
<text text-anchor="middle" x="244.5" y="-1184.15" font-family="Helvetica,sans-Serif" font-size="10.00">bool</text>
</a>
</g>
</g>
<!-- Node8&#45;&gt;Node5 -->
<g id="edge15" class="edge">
<title>Node8&#45;&gt;Node5</title>
<path fill="none" stroke="#9a32cd" stroke-dasharray="5,2" d="M273.73,-1191.36C383.45,-1208.02 787.35,-1253.94 1030,-1073.65 1074.04,-1040.93 1093.18,-972.81 1098.97,-947.45"/>
<polygon fill="#9a32cd" stroke="#9a32cd" points="274.19,-1187.89 263.77,-1189.8 273.11,-1194.81 274.19,-1187.89"/>
<text text-anchor="middle" x="671.5" y="-1218.65" font-family="Helvetica,sans-Serif" font-size="10.00"> ready</text>
<text text-anchor="middle" x="671.5" y="-1207.65" font-family="Helvetica,sans-Serif" font-size="10.00">terminating</text>
</g>
<!-- Node8&#45;&gt;Node7 -->
<g id="edge8" class="edge">
<title>Node8&#45;&gt;Node7</title>
<path fill="none" stroke="#9a32cd" stroke-dasharray="5,2" d="M273.93,-1181.72C328.97,-1172.08 445.36,-1151.31 453,-1146.65 489.82,-1124.23 516.16,-1077.69 526.35,-1057.43"/>
<polygon fill="#9a32cd" stroke="#9a32cd" points="273.04,-1178.32 263.79,-1183.49 274.24,-1185.21 273.04,-1178.32"/>
<text text-anchor="middle" x="392.5" y="-1173.65" font-family="Helvetica,sans-Serif" font-size="10.00"> nonblocking</text>
</g>
<!-- Node9 -->
<g id="node9" class="node">
<title>Node9</title>
<g id="a_node9"><a xlink:title=" ">
<polygon fill="none" stroke="#bfbfbf" points="230,-1004.15 230,-1023.15 259,-1023.15 259,-1004.15 230,-1004.15"/>
<text text-anchor="middle" x="244.5" y="-1011.15" font-family="Helvetica,sans-Serif" font-size="10.00">int</text>
</a>
</g>
</g>
<!-- Node9&#45;&gt;Node7 -->
<g id="edge9" class="edge">
<title>Node9&#45;&gt;Node7</title>
<path fill="none" stroke="#9a32cd" stroke-dasharray="5,2" d="M269.39,-1015.07C308.08,-1017.54 386.82,-1023.28 453,-1032.65 464.61,-1034.3 477.1,-1036.5 488.62,-1038.72"/>
<polygon fill="#9a32cd" stroke="#9a32cd" points="269.35,-1011.56 259.15,-1014.44 268.91,-1018.55 269.35,-1011.56"/>
<text text-anchor="middle" x="392.5" y="-1035.65" font-family="Helvetica,sans-Serif" font-size="10.00"> sfd</text>
</g>
<!-- Node10 -->
<g id="node10" class="node">
<title>Node10</title>
<g id="a_node10"><a xlink:title=" ">
<polygon fill="none" stroke="#bfbfbf" points="195,-1128.15 195,-1147.15 294,-1147.15 294,-1128.15 195,-1128.15"/>
<text text-anchor="middle" x="244.5" y="-1135.15" font-family="Helvetica,sans-Serif" font-size="10.00">opensslcontext *</text>
</a>
</g>
</g>
<!-- Node10&#45;&gt;Node7 -->
<g id="edge10" class="edge">
<title>Node10&#45;&gt;Node7</title>
<path fill="none" stroke="#9a32cd" stroke-dasharray="5,2" d="M304.24,-1134.65C356.01,-1131.32 427.11,-1124.87 453,-1113.65 482.95,-1100.68 510.14,-1072.26 523.07,-1057.3"/>
<polygon fill="#9a32cd" stroke="#9a32cd" points="303.93,-1131.16 294.16,-1135.28 304.36,-1138.15 303.93,-1131.16"/>
<text text-anchor="middle" x="392.5" y="-1134.65" font-family="Helvetica,sans-Serif" font-size="10.00"> ssl</text>
</g>
<!-- Node11 -->
<g id="node11" class="node">
<title>Node11</title>
<g id="a_node11"><a xlink:title=" ">
<polygon fill="none" stroke="#bfbfbf" points="220.5,-519.15 220.5,-538.15 268.5,-538.15 268.5,-519.15 220.5,-519.15"/>
<text text-anchor="middle" x="244.5" y="-526.15" font-family="Helvetica,sans-Serif" font-size="10.00">time_t</text>
</a>
</g>
</g>
<!-- Node11&#45;&gt;Node5 -->
<g id="edge35" class="edge">
<title>Node11&#45;&gt;Node5</title>
<path fill="none" stroke="#9a32cd" stroke-dasharray="5,2" d="M278.37,-519.19C321.96,-507.18 401.49,-487.12 471,-479.65 528.74,-473.45 679.57,-467.69 732,-492.65 902.83,-573.98 919.92,-642.77 1030,-796.65 1062.37,-841.91 1088.05,-904.05 1097.29,-927.84"/>
<polygon fill="#9a32cd" stroke="#9a32cd" points="277.3,-515.86 268.6,-521.91 279.18,-522.6 277.3,-515.86"/>
<text text-anchor="middle" x="671.5" y="-506.65" font-family="Helvetica,sans-Serif" font-size="10.00"> last_heartbeat</text>
<text text-anchor="middle" x="671.5" y="-495.65" font-family="Helvetica,sans-Serif" font-size="10.00">last_heartbeat_ack</text>
</g>
<!-- Node11&#45;&gt;Node7 -->
<g id="edge11" class="edge">
<title>Node11&#45;&gt;Node7</title>
<path fill="none" stroke="#9a32cd" stroke-dasharray="5,2" d="M255.02,-547.23C269.59,-574.78 299.21,-627.44 332,-666.65 378.62,-722.41 420.84,-711.48 453,-776.65 495.24,-862.25 429.7,-904.6 471,-990.65 480.82,-1011.12 501.38,-1028.04 515.67,-1037.99"/>
<polygon fill="#9a32cd" stroke="#9a32cd" points="258.08,-545.54 250.35,-538.29 251.87,-548.77 258.08,-545.54"/>
<text text-anchor="middle" x="392.5" y="-779.65" font-family="Helvetica,sans-Serif" font-size="10.00"> last_tick</text>
</g>
<!-- Node11&#45;&gt;Node15 -->
<g id="edge18" class="edge">
<title>Node11&#45;&gt;Node15</title>
<path fill="none" stroke="#9a32cd" stroke-dasharray="5,2" d="M278.75,-533.12C385.4,-547.54 713.12,-592.71 732,-605.65 778.95,-637.84 801.95,-707.55 809.04,-733.06"/>
<polygon fill="#9a32cd" stroke="#9a32cd" points="278.94,-529.61 268.56,-531.74 278,-536.55 278.94,-529.61"/>
<text text-anchor="middle" x="532" y="-581.65" font-family="Helvetica,sans-Serif" font-size="10.00"> last_identify</text>
</g>
<!-- Node11&#45;&gt;Node30 -->
<g id="edge47" class="edge">
<title>Node11&#45;&gt;Node30</title>
<path fill="none" stroke="#9a32cd" stroke-dasharray="5,2" d="M260.37,-510.95C293.71,-472.54 378.81,-381.47 471,-337.65 577.91,-286.85 621.12,-326.1 732,-284.65 756.51,-275.49 782.45,-259.45 797.8,-249.2"/>
<polygon fill="#9a32cd" stroke="#9a32cd" points="257.56,-508.85 253.71,-518.72 262.87,-513.41 257.56,-508.85"/>
<text text-anchor="middle" x="532" y="-351.65" font-family="Helvetica,sans-Serif" font-size="10.00"> scheduled_end_time</text>
<text text-anchor="middle" x="532" y="-340.65" font-family="Helvetica,sans-Serif" font-size="10.00">scheduled_start_time</text>
</g>
<!-- Node12 -->
<g id="node12" class="node">
<title>Node12</title>
<g id="a_node12"><a xlink:title=" ">
<polygon fill="none" stroke="#bfbfbf" points="24,-234.15 24,-253.15 80,-253.15 80,-234.15 24,-234.15"/>
<text text-anchor="middle" x="52" y="-241.15" font-family="Helvetica,sans-Serif" font-size="10.00">uint64_t</text>
</a>
</g>
</g>
<!-- Node12&#45;&gt;Node5 -->
<g id="edge37" class="edge">
<title>Node12&#45;&gt;Node5</title>
<path fill="none" stroke="#9a32cd" stroke-dasharray="5,2" d="M69.21,-260.55C91.08,-282.27 132.25,-319.45 175,-338.65 239.73,-367.73 261.44,-360.12 332,-367.65 370.58,-371.77 1001.25,-362.61 1030,-388.65 1071.84,-426.56 1096.69,-857.5 1100.49,-927.94"/>
<polygon fill="#9a32cd" stroke="#9a32cd" points="71.57,-257.97 62.05,-253.31 66.59,-262.88 71.57,-257.97"/>
<text text-anchor="middle" x="532" y="-372.65" font-family="Helvetica,sans-Serif" font-size="10.00"> last_seq</text>
</g>
<!-- Node12&#45;&gt;Node7 -->
<g id="edge12" class="edge">
<title>Node12&#45;&gt;Node7</title>
<path fill="none" stroke="#9a32cd" stroke-dasharray="5,2" d="M55.09,-263.5C65.14,-356.23 110.67,-746.64 175,-848.65 256.52,-977.92 329.35,-966.28 471,-1023.65 482.85,-1028.46 496.05,-1033.74 507.04,-1038.12"/>
<polygon fill="#9a32cd" stroke="#9a32cd" points="58.56,-263.06 54.02,-253.49 51.6,-263.81 58.56,-263.06"/>
<text text-anchor="middle" x="244.5" y="-982.65" font-family="Helvetica,sans-Serif" font-size="10.00"> bytes_in</text>
<text text-anchor="middle" x="244.5" y="-971.65" font-family="Helvetica,sans-Serif" font-size="10.00">bytes_out</text>
</g>
<!-- Node19 -->
<g id="node19" class="node">
<title>Node19</title>
<g id="a_node19"><a xlink:href="classdpp_1_1managed.html" target="_top" xlink:title="The managed class is the base class for various types that can be stored in a cache that are identifi...">
<polygon fill="none" stroke="black" points="201.5,-120.15 201.5,-139.15 287.5,-139.15 287.5,-120.15 201.5,-120.15"/>
<text text-anchor="middle" x="244.5" y="-127.15" font-family="Helvetica,sans-Serif" font-size="10.00">dpp::managed</text>
</a>
</g>
</g>
<!-- Node12&#45;&gt;Node19 -->
<g id="edge23" class="edge">
<title>Node12&#45;&gt;Node19</title>
<path fill="none" stroke="#9a32cd" stroke-dasharray="5,2" d="M69.82,-227C92.06,-205.85 133.35,-169.61 175,-148.65 183.16,-144.55 192.32,-141.23 201.23,-138.59"/>
<polygon fill="#9a32cd" stroke="#9a32cd" points="67.28,-224.59 62.51,-234.05 72.14,-229.62 67.28,-224.59"/>
<text text-anchor="middle" x="139.5" y="-183.65" font-family="Helvetica,sans-Serif" font-size="10.00"> id</text>
</g>
<!-- Node21 -->
<g id="node21" class="node">
<title>Node21</title>
<g id="a_node21"><a xlink:href="structdpp_1_1utility_1_1iconhash.html" target="_top" xlink:title="Store a 128 bit icon hash (profile picture, server icon etc) as a 128 bit binary value made of two ui...">
<polygon fill="none" stroke="black" points="185.5,-234.15 185.5,-253.15 303.5,-253.15 303.5,-234.15 185.5,-234.15"/>
<text text-anchor="middle" x="244.5" y="-241.15" font-family="Helvetica,sans-Serif" font-size="10.00">dpp::utility::iconhash</text>
</a>
</g>
</g>
<!-- Node12&#45;&gt;Node21 -->
<g id="edge27" class="edge">
<title>Node12&#45;&gt;Node21</title>
<path fill="none" stroke="#9a32cd" stroke-dasharray="5,2" d="M90.48,-243.65C117.47,-243.65 154.41,-243.65 185.23,-243.65"/>
<polygon fill="#9a32cd" stroke="#9a32cd" points="90.29,-240.15 80.29,-243.65 90.29,-247.15 90.29,-240.15"/>
<text text-anchor="middle" x="139.5" y="-257.65" font-family="Helvetica,sans-Serif" font-size="10.00"> first</text>
<text text-anchor="middle" x="139.5" y="-246.65" font-family="Helvetica,sans-Serif" font-size="10.00">second</text>
</g>
<!-- Node12&#45;&gt;Node30 -->
<g id="edge45" class="edge">
<title>Node12&#45;&gt;Node30</title>
<path fill="none" stroke="#9a32cd" stroke-dasharray="5,2" d="M65.54,-225.54C78.67,-207.12 100.36,-178.16 122,-155.65 193.93,-80.87 229.81,-71.63 332,-53.65 420.34,-38.11 658.48,-56.27 732,-107.65 777.17,-139.22 801.12,-205.46 808.76,-230.13"/>
<polygon fill="#9a32cd" stroke="#9a32cd" points="62.56,-223.7 59.66,-233.89 68.28,-227.73 62.56,-223.7"/>
<text text-anchor="middle" x="392.5" y="-89.65" font-family="Helvetica,sans-Serif" font-size="10.00"> channel_id</text>
<text text-anchor="middle" x="392.5" y="-78.65" font-family="Helvetica,sans-Serif" font-size="10.00">creator_id</text>
<text text-anchor="middle" x="392.5" y="-67.65" font-family="Helvetica,sans-Serif" font-size="10.00">entity_id</text>
<text text-anchor="middle" x="392.5" y="-56.65" font-family="Helvetica,sans-Serif" font-size="10.00">guild_id</text>
</g>
<!-- Node13 -->
<g id="node13" class="node">
<title>Node13</title>
<g id="a_node13"><a xlink:title=" ">
<polygon fill="none" stroke="#bfbfbf" points="175,-1083.15 175,-1102.15 314,-1102.15 314,-1083.15 175,-1083.15"/>
<text text-anchor="middle" x="244.5" y="-1090.15" font-family="Helvetica,sans-Serif" font-size="10.00">function&lt; dpp::socket()&gt;</text>
</a>
</g>
</g>
<!-- Node13&#45;&gt;Node7 -->
<g id="edge13" class="edge">
<title>Node13&#45;&gt;Node7</title>
<path fill="none" stroke="#9a32cd" stroke-dasharray="5,2" d="M324.42,-1087.67C363.38,-1084.35 410.92,-1079.02 453,-1070.65 469.89,-1067.3 488.4,-1061.92 503.15,-1057.2"/>
<polygon fill="#9a32cd" stroke="#9a32cd" points="323.87,-1084.2 314.19,-1088.51 324.45,-1091.18 323.87,-1084.2"/>
<text text-anchor="middle" x="392.5" y="-1101.65" font-family="Helvetica,sans-Serif" font-size="10.00"> custom_readable_fd</text>
<text text-anchor="middle" x="392.5" y="-1090.65" font-family="Helvetica,sans-Serif" font-size="10.00">custom_writeable_fd</text>
</g>
<!-- Node14 -->
<g id="node14" class="node">
<title>Node14</title>
<g id="a_node14"><a xlink:title=" ">
<polygon fill="none" stroke="#bfbfbf" points="192.5,-1042.15 192.5,-1061.15 296.5,-1061.15 296.5,-1042.15 192.5,-1042.15"/>
<text text-anchor="middle" x="244.5" y="-1049.15" font-family="Helvetica,sans-Serif" font-size="10.00">function&lt; void()&gt;</text>
</a>
</g>
</g>
<!-- Node14&#45;&gt;Node7 -->
<g id="edge14" class="edge">
<title>Node14&#45;&gt;Node7</title>
<path fill="none" stroke="#9a32cd" stroke-dasharray="5,2" d="M306.91,-1049.3C315.34,-1049.04 323.88,-1048.82 332,-1048.65 386.06,-1047.58 448.39,-1047.45 488.68,-1047.5"/>
<polygon fill="#9a32cd" stroke="#9a32cd" points="306.6,-1045.81 296.72,-1049.63 306.83,-1052.8 306.6,-1045.81"/>
<text text-anchor="middle" x="392.5" y="-1062.65" font-family="Helvetica,sans-Serif" font-size="10.00"> custom_readable_ready</text>
<text text-anchor="middle" x="392.5" y="-1051.65" font-family="Helvetica,sans-Serif" font-size="10.00">custom_writeable_ready</text>
</g>
<!-- Node15&#45;&gt;Node5 -->
<g id="edge16" class="edge">
<title>Node15&#45;&gt;Node5</title>
<path fill="none" stroke="#9a32cd" stroke-dasharray="5,2" d="M836.05,-757.95C892.75,-796.41 1040.07,-896.33 1086.66,-927.93"/>
<polygon fill="#9a32cd" stroke="#9a32cd" points="838,-755.04 827.76,-752.32 834.07,-760.83 838,-755.04"/>
<text text-anchor="middle" x="961.5" y="-888.65" font-family="Helvetica,sans-Serif" font-size="10.00"> creator</text>
</g>
<!-- Node16 -->
<g id="node16" class="node">
<title>Node16</title>
<g id="a_node16"><a xlink:title=" ">
<polygon fill="none" stroke="#bfbfbf" points="216.5,-310.15 216.5,-329.15 272.5,-329.15 272.5,-310.15 216.5,-310.15"/>
<text text-anchor="middle" x="244.5" y="-317.15" font-family="Helvetica,sans-Serif" font-size="10.00">uint32_t</text>
</a>
</g>
</g>
<!-- Node16&#45;&gt;Node5 -->
<g id="edge34" class="edge">
<title>Node16&#45;&gt;Node5</title>
<path fill="none" stroke="#9a32cd" stroke-dasharray="5,2" d="M256.94,-337.86C271.44,-359 298.59,-392.76 332,-406.65 414.07,-440.79 652.89,-365.13 732,-405.65 744.19,-411.9 739.73,-421.6 750,-430.65 797.44,-472.47 820.98,-465.77 875,-498.65 946.07,-541.92 983.54,-534.63 1030,-603.65 1103.82,-713.32 1102.91,-885.37 1101.44,-927.9"/>
<polygon fill="#9a32cd" stroke="#9a32cd" points="259.79,-335.82 251.36,-329.4 253.95,-339.68 259.79,-335.82"/>
<text text-anchor="middle" x="671.5" y="-463.65" font-family="Helvetica,sans-Serif" font-size="10.00"> heartbeat_interval</text>
<text text-anchor="middle" x="671.5" y="-452.65" font-family="Helvetica,sans-Serif" font-size="10.00">intents</text>
<text text-anchor="middle" x="671.5" y="-441.65" font-family="Helvetica,sans-Serif" font-size="10.00">max_shards</text>
<text text-anchor="middle" x="671.5" y="-430.65" font-family="Helvetica,sans-Serif" font-size="10.00">reconnects</text>
<text text-anchor="middle" x="671.5" y="-419.65" font-family="Helvetica,sans-Serif" font-size="10.00">resumes</text>
<text text-anchor="middle" x="671.5" y="-408.65" font-family="Helvetica,sans-Serif" font-size="10.00">shard_id</text>
</g>
<!-- Node16&#45;&gt;Node15 -->
<g id="edge19" class="edge">
<title>Node16&#45;&gt;Node15</title>
<path fill="none" stroke="#9a32cd" stroke-dasharray="5,2" d="M254.66,-338.34C268.11,-363.86 295.62,-409.33 332,-434.65 431.36,-503.83 501.91,-432.9 593,-512.65 607.67,-525.5 595.94,-540.28 611,-552.65 653.65,-587.69 688.77,-546.33 732,-580.65 783.53,-621.56 804.01,-704.37 809.71,-732.8"/>
<polygon fill="#9a32cd" stroke="#9a32cd" points="257.72,-336.64 250.06,-329.32 251.49,-339.82 257.72,-336.64"/>
<text text-anchor="middle" x="532" y="-548.65" font-family="Helvetica,sans-Serif" font-size="10.00"> cluster_id</text>
<text text-anchor="middle" x="532" y="-537.65" font-family="Helvetica,sans-Serif" font-size="10.00">intents</text>
<text text-anchor="middle" x="532" y="-526.65" font-family="Helvetica,sans-Serif" font-size="10.00">maxclusters</text>
<text text-anchor="middle" x="532" y="-515.65" font-family="Helvetica,sans-Serif" font-size="10.00">numshards</text>
</g>
<!-- Node16&#45;&gt;Node18 -->
<g id="edge28" class="edge">
<title>Node16&#45;&gt;Node18</title>
<path fill="none" stroke="#9a32cd" stroke-dasharray="5,2" d="M282.6,-308.93C297.8,-304.87 315.63,-300.54 332,-297.65 391.33,-287.19 461.64,-281.72 500.8,-279.29"/>
<polygon fill="#9a32cd" stroke="#9a32cd" points="281.27,-305.66 272.55,-311.67 283.11,-312.41 281.27,-305.66"/>
<text text-anchor="middle" x="392.5" y="-300.65" font-family="Helvetica,sans-Serif" font-size="10.00"> flags</text>
</g>
<!-- Node16&#45;&gt;Node30 -->
<g id="edge54" class="edge">
<title>Node16&#45;&gt;Node30</title>
<path fill="none" stroke="#9a32cd" stroke-dasharray="5,2" d="M272.83,-305.39C289.58,-297.06 311.65,-286.81 332,-279.65 384.27,-261.28 410.46,-285.16 453,-249.65 467.97,-237.16 454.63,-220.24 471,-209.65 519.71,-178.16 692.6,-212.26 771.6,-230.14"/>
<polygon fill="#9a32cd" stroke="#9a32cd" points="270.99,-302.4 263.64,-310.03 274.14,-308.65 270.99,-302.4"/>
<text text-anchor="middle" x="532" y="-212.65" font-family="Helvetica,sans-Serif" font-size="10.00"> user_count</text>
</g>
<!-- Node17 -->
<g id="node17" class="node">
<title>Node17</title>
<g id="a_node17"><a xlink:title=" ">
<polygon fill="none" stroke="#bfbfbf" points="507,-962.15 507,-981.15 557,-981.15 557,-962.15 507,-962.15"/>
<text text-anchor="middle" x="532" y="-969.15" font-family="Helvetica,sans-Serif" font-size="10.00">double</text>
</a>
</g>
</g>
<!-- Node17&#45;&gt;Node5 -->
<g id="edge40" class="edge">
<title>Node17&#45;&gt;Node5</title>
<path fill="none" stroke="#9a32cd" stroke-dasharray="5,2" d="M567.07,-977.51C580.69,-979.58 596.54,-981.64 611,-982.65 773.55,-994.06 965.91,-963.48 1053.41,-947.16"/>
<polygon fill="#9a32cd" stroke="#9a32cd" points="567.57,-974.05 557.15,-975.95 566.48,-980.97 567.57,-974.05"/>
<text text-anchor="middle" x="812.5" y="-986.65" font-family="Helvetica,sans-Serif" font-size="10.00"> websocket_ping</text>
</g>
<!-- Node17&#45;&gt;Node15 -->
<g id="edge20" class="edge">
<title>Node17&#45;&gt;Node15</title>
<path fill="none" stroke="#9a32cd" stroke-dasharray="5,2" d="M567.16,-972.87C610.36,-972.6 684.78,-965.84 732,-926.65 789.04,-879.32 806.2,-783.37 810.35,-752.48"/>
<polygon fill="#9a32cd" stroke="#9a32cd" points="567.16,-969.37 557.14,-972.82 567.12,-976.37 567.16,-969.37"/>
<text text-anchor="middle" x="671.5" y="-973.65" font-family="Helvetica,sans-Serif" font-size="10.00"> rest_ping</text>
</g>
<!-- Node18&#45;&gt;Node15 -->
<g id="edge21" class="edge">
<title>Node18&#45;&gt;Node15</title>
<path fill="none" stroke="#9a32cd" stroke-dasharray="5,2" d="M572.48,-286.27C580.41,-289.78 587.87,-294.72 593,-301.65 621.76,-340.57 578.63,-482.69 611,-518.65 647.62,-559.34 689.82,-506.77 732,-541.65 794.17,-593.07 807.99,-699.9 810.82,-732.8"/>
<polygon fill="#9a32cd" stroke="#9a32cd" points="573.66,-282.97 563.06,-282.77 571.22,-289.54 573.66,-282.97"/>
<text text-anchor="middle" x="671.5" y="-544.65" font-family="Helvetica,sans-Serif" font-size="10.00"> me</text>
</g>
<!-- Node18&#45;&gt;Node30 -->
<g id="edge53" class="edge">
<title>Node18&#45;&gt;Node30</title>
<path fill="none" stroke="#9a32cd" stroke-dasharray="5,2" d="M573.03,-273.47C613.27,-269.12 677.06,-261.8 732,-253.65 741.01,-252.32 750.57,-250.76 759.82,-249.17"/>
<polygon fill="#9a32cd" stroke="#9a32cd" points="572.64,-269.99 563.07,-274.54 573.39,-276.95 572.64,-269.99"/>
<text text-anchor="middle" x="671.5" y="-272.65" font-family="Helvetica,sans-Serif" font-size="10.00"> creator</text>
</g>
<!-- Node19&#45;&gt;Node18 -->
<g id="edge22" class="edge">
<title>Node19&#45;&gt;Node18</title>
<path fill="none" stroke="midnightblue" d="M297.86,-128.53C351.92,-128.53 431.33,-132.2 453,-152.65 487.75,-185.45 439.63,-222.61 471,-258.65 478.53,-267.31 489.98,-272.06 500.86,-274.65"/>
<polygon fill="midnightblue" stroke="midnightblue" points="297.73,-125.03 287.75,-128.57 297.76,-132.03 297.73,-125.03"/>
</g>
<!-- Node19&#45;&gt;Node30 -->
<g id="edge44" class="edge">
<title>Node19&#45;&gt;Node30</title>
<path fill="none" stroke="midnightblue" d="M297.87,-118.24C391.07,-100.76 589.35,-76.51 732,-149.65 768.17,-168.2 795.37,-210.71 806.27,-229.92"/>
<polygon fill="midnightblue" stroke="midnightblue" points="296.99,-114.85 287.83,-120.18 298.32,-121.72 296.99,-114.85"/>
</g>
<!-- Node20 -->
<g id="node20" class="node">
<title>Node20</title>
<g id="a_node20"><a xlink:title=" ">
<polygon fill="none" stroke="#bfbfbf" points="216.5,-196.15 216.5,-215.15 272.5,-215.15 272.5,-196.15 216.5,-196.15"/>
<text text-anchor="middle" x="244.5" y="-203.15" font-family="Helvetica,sans-Serif" font-size="10.00">uint16_t</text>
</a>
</g>
</g>
<!-- Node20&#45;&gt;Node18 -->
<g id="edge25" class="edge">
<title>Node20&#45;&gt;Node18</title>
<path fill="none" stroke="#9a32cd" stroke-dasharray="5,2" d="M282.87,-203.42C326.54,-202.49 399.61,-206.32 453,-236.65 463.98,-242.89 460.54,-251.56 471,-258.65 479.86,-264.66 490.73,-268.86 500.77,-271.74"/>
<polygon fill="#9a32cd" stroke="#9a32cd" points="282.59,-199.93 272.7,-203.73 282.8,-206.92 282.59,-199.93"/>
<text text-anchor="middle" x="392.5" y="-239.65" font-family="Helvetica,sans-Serif" font-size="10.00"> discriminator</text>
</g>
<!-- Node21&#45;&gt;Node18 -->
<g id="edge26" class="edge">
<title>Node21&#45;&gt;Node18</title>
<path fill="none" stroke="#9a32cd" stroke-dasharray="5,2" d="M313.83,-248.83C354.37,-252.25 406.73,-257.28 453,-263.65 468.81,-265.83 486.31,-268.91 500.72,-271.63"/>
<polygon fill="#9a32cd" stroke="#9a32cd" points="314.04,-245.34 303.79,-247.99 313.46,-252.31 314.04,-245.34"/>
<text text-anchor="middle" x="392.5" y="-266.65" font-family="Helvetica,sans-Serif" font-size="10.00"> avatar</text>
</g>
<!-- Node22 -->
<g id="node22" class="node">
<title>Node22</title>
<g id="a_node22"><a xlink:title=" ">
<polygon fill="none" stroke="#bfbfbf" points="219.5,-158.15 219.5,-177.15 269.5,-177.15 269.5,-158.15 219.5,-158.15"/>
<text text-anchor="middle" x="244.5" y="-165.15" font-family="Helvetica,sans-Serif" font-size="10.00">uint8_t</text>
</a>
</g>
</g>
<!-- Node22&#45;&gt;Node18 -->
<g id="edge29" class="edge">
<title>Node22&#45;&gt;Node18</title>
<path fill="none" stroke="#9a32cd" stroke-dasharray="5,2" d="M279.62,-160.77C324.9,-153.75 404.73,-149.06 453,-190.65 476.68,-211.06 449.43,-236.02 471,-258.65 478.84,-266.88 490.21,-271.56 500.95,-274.21"/>
<polygon fill="#9a32cd" stroke="#9a32cd" points="278.98,-157.32 269.7,-162.43 280.14,-164.23 278.98,-157.32"/>
<text text-anchor="middle" x="392.5" y="-193.65" font-family="Helvetica,sans-Serif" font-size="10.00"> refcount</text>
</g>
<!-- Node23 -->
<g id="node23" class="node">
<title>Node23</title>
<g id="a_node23"><a xlink:href="structdpp_1_1cache__policy__t.html" target="_top" xlink:title="Represents the caching policy of the cluster.">
<polygon fill="none" stroke="black" points="475.5,-766.15 475.5,-785.15 588.5,-785.15 588.5,-766.15 475.5,-766.15"/>
<text text-anchor="middle" x="532" y="-773.15" font-family="Helvetica,sans-Serif" font-size="10.00">dpp::cache_policy_t</text>
</a>
</g>
</g>
<!-- Node23&#45;&gt;Node15 -->
<g id="edge30" class="edge">
<title>Node23&#45;&gt;Node15</title>
<path fill="none" stroke="#9a32cd" stroke-dasharray="5,2" d="M579.23,-761.65C584.25,-758.87 588.99,-755.57 593,-751.65 607.53,-737.47 594.05,-720.83 611,-709.65 669.9,-670.81 759.15,-712.8 795.37,-733.03"/>
<polygon fill="#9a32cd" stroke="#9a32cd" points="577.47,-758.62 569.98,-766.11 580.5,-764.92 577.47,-758.62"/>
<text text-anchor="middle" x="671.5" y="-712.65" font-family="Helvetica,sans-Serif" font-size="10.00"> cache_policy</text>
</g>
<!-- Node24 -->
<g id="node24" class="node">
<title>Node24</title>
<g id="a_node24"><a xlink:title=" ">
<polygon fill="none" stroke="#bfbfbf" points="180.5,-820.15 180.5,-839.15 308.5,-839.15 308.5,-820.15 180.5,-820.15"/>
<text text-anchor="middle" x="244.5" y="-827.15" font-family="Helvetica,sans-Serif" font-size="10.00">cache_policy_setting_t</text>
</a>
</g>
</g>
<!-- Node24&#45;&gt;Node23 -->
<g id="edge31" class="edge">
<title>Node24&#45;&gt;Node23</title>
<path fill="none" stroke="#9a32cd" stroke-dasharray="5,2" d="M305.96,-818.22C357.89,-808.4 431.87,-794.4 480.64,-785.18"/>
<polygon fill="#9a32cd" stroke="#9a32cd" points="305.06,-814.83 295.88,-820.12 306.36,-821.7 305.06,-814.83"/>
<text text-anchor="middle" x="392.5" y="-837.65" font-family="Helvetica,sans-Serif" font-size="10.00"> emoji_policy</text>
<text text-anchor="middle" x="392.5" y="-826.65" font-family="Helvetica,sans-Serif" font-size="10.00">role_policy</text>
<text text-anchor="middle" x="392.5" y="-815.65" font-family="Helvetica,sans-Serif" font-size="10.00">user_policy</text>
</g>
<!-- Node25 -->
<g id="node25" class="node">
<title>Node25</title>
<g id="a_node25"><a xlink:title=" ">
<polygon fill="none" stroke="#bfbfbf" points="471,-913.15 471,-932.15 593,-932.15 593,-913.15 471,-913.15"/>
<text text-anchor="middle" x="532" y="-920.15" font-family="Helvetica,sans-Serif" font-size="10.00">websocket_protocol_t</text>
</a>
</g>
</g>
<!-- Node25&#45;&gt;Node5 -->
<g id="edge41" class="edge">
<title>Node25&#45;&gt;Node5</title>
<path fill="none" stroke="#9a32cd" stroke-dasharray="5,2" d="M603.36,-924.51C718.5,-927.55 944.63,-933.52 1047.63,-936.24"/>
<polygon fill="#9a32cd" stroke="#9a32cd" points="603.34,-921.01 593.25,-924.25 603.15,-928.01 603.34,-921.01"/>
<text text-anchor="middle" x="812.5" y="-934.65" font-family="Helvetica,sans-Serif" font-size="10.00"> protocol</text>
</g>
<!-- Node25&#45;&gt;Node15 -->
<g id="edge32" class="edge">
<title>Node25&#45;&gt;Node15</title>
<path fill="none" stroke="#9a32cd" stroke-dasharray="5,2" d="M603.15,-912.51C658.26,-904.3 726.62,-893.5 732,-889.65 781.13,-854.6 802.91,-779.47 809.34,-752.52"/>
<polygon fill="#9a32cd" stroke="#9a32cd" points="602.41,-909.08 593.03,-914.01 603.44,-916 602.41,-909.08"/>
<text text-anchor="middle" x="671.5" y="-914.65" font-family="Helvetica,sans-Serif" font-size="10.00"> ws_mode</text>
</g>
<!-- Node26 -->
<g id="node26" class="node">
<title>Node26</title>
<g id="a_node26"><a xlink:title=" ">
<polygon fill="none" stroke="#bfbfbf" points="484,-804.15 484,-823.15 580,-823.15 580,-804.15 484,-804.15"/>
<text text-anchor="middle" x="532" y="-811.15" font-family="Helvetica,sans-Serif" font-size="10.00">event_router_t&lt;</text>
</a>
</g>
</g>
<!-- Node26&#45;&gt;Node15 -->
<g id="edge33" class="edge">
<title>Node26&#45;&gt;Node15</title>
<path fill="none" stroke="#9a32cd" stroke-dasharray="5,2" d="M587.76,-799C589.62,-797.67 591.37,-796.23 593,-794.65 610.27,-777.94 591.41,-757.59 611,-743.65 636.46,-725.55 724.79,-732.34 775.31,-738.02"/>
<polygon fill="#9a32cd" stroke="#9a32cd" points="585.96,-796 579.1,-804.07 589.5,-802.04 585.96,-796"/>
<text text-anchor="middle" x="671.5" y="-856.65" font-family="Helvetica,sans-Serif" font-size="10.00"> on_autocomplete</text>
<text text-anchor="middle" x="671.5" y="-845.65" font-family="Helvetica,sans-Serif" font-size="10.00">on_button_click</text>
<text text-anchor="middle" x="671.5" y="-834.65" font-family="Helvetica,sans-Serif" font-size="10.00">on_channel_create</text>
<text text-anchor="middle" x="671.5" y="-823.65" font-family="Helvetica,sans-Serif" font-size="10.00">on_channel_delete</text>
<text text-anchor="middle" x="671.5" y="-812.65" font-family="Helvetica,sans-Serif" font-size="10.00">on_channel_pins_update</text>
<text text-anchor="middle" x="671.5" y="-801.65" font-family="Helvetica,sans-Serif" font-size="10.00">on_channel_update</text>
<text text-anchor="middle" x="671.5" y="-790.65" font-family="Helvetica,sans-Serif" font-size="10.00">on_form_submit</text>
<text text-anchor="middle" x="671.5" y="-779.65" font-family="Helvetica,sans-Serif" font-size="10.00">on_guild_ban_add</text>
<text text-anchor="middle" x="671.5" y="-768.65" font-family="Helvetica,sans-Serif" font-size="10.00">on_guild_ban_remove</text>
<text text-anchor="middle" x="671.5" y="-757.65" font-family="Helvetica,sans-Serif" font-size="10.00">on_guild_create</text>
<text text-anchor="middle" x="671.5" y="-746.65" font-family="Helvetica,sans-Serif" font-size="10.00">...</text>
</g>
<!-- Node27 -->
<g id="node27" class="node">
<title>Node27</title>
<g id="a_node27"><a xlink:title=" ">
<polygon fill="none" stroke="#bfbfbf" points="756,-402.15 756,-421.15 869,-421.15 869,-402.15 756,-402.15"/>
<text text-anchor="middle" x="812.5" y="-409.15" font-family="Helvetica,sans-Serif" font-size="10.00">native_handle_type</text>
</a>
</g>
</g>
<!-- Node27&#45;&gt;Node5 -->
<g id="edge36" class="edge">
<title>Node27&#45;&gt;Node5</title>
<path fill="none" stroke="#9a32cd" stroke-dasharray="5,2" d="M856.57,-399.9C905.23,-389.48 983.68,-381.8 1030,-424.65 1107.05,-495.95 1102.61,-863.97 1101.24,-928.11"/>
<polygon fill="#9a32cd" stroke="#9a32cd" points="855.63,-396.52 846.65,-402.15 857.18,-403.35 855.63,-396.52"/>
<text text-anchor="middle" x="961.5" y="-427.65" font-family="Helvetica,sans-Serif" font-size="10.00"> thread_id</text>
</g>
<!-- Node28 -->
<g id="node28" class="node">
<title>Node28</title>
<g id="a_node28"><a xlink:title=" ">
<polygon fill="none" stroke="#bfbfbf" points="778,-1264.15 778,-1283.15 847,-1283.15 847,-1264.15 778,-1264.15"/>
<text text-anchor="middle" x="812.5" y="-1271.15" font-family="Helvetica,sans-Serif" font-size="10.00">std::mutex</text>
</a>
</g>
</g>
<!-- Node28&#45;&gt;Node5 -->
<g id="edge39" class="edge">
<title>Node28&#45;&gt;Node5</title>
<path fill="none" stroke="#9a32cd" stroke-dasharray="5,2" d="M857.31,-1282.55C905.72,-1289.63 983.03,-1292.42 1030,-1250.65 1077.26,-1208.63 1096.53,-995.03 1100.29,-947.18"/>
<polygon fill="#9a32cd" stroke="#9a32cd" points="857.57,-1279.04 847.15,-1280.93 856.48,-1285.96 857.57,-1279.04"/>
<text text-anchor="middle" x="961.5" y="-1289.65" font-family="Helvetica,sans-Serif" font-size="10.00"> voice_mutex</text>
</g>
<!-- Node29 -->
<g id="node29" class="node">
<title>Node29</title>
<g id="a_node29"><a xlink:title=" ">
<polygon fill="none" stroke="#bfbfbf" points="762,-1226.15 762,-1245.15 863,-1245.15 863,-1226.15 762,-1226.15"/>
<text text-anchor="middle" x="812.5" y="-1233.15" font-family="Helvetica,sans-Serif" font-size="10.00">unordered_map&lt;</text>
</a>
</g>
</g>
<!-- Node29&#45;&gt;Node5 -->
<g id="edge42" class="edge">
<title>Node29&#45;&gt;Node5</title>
<path fill="none" stroke="#9a32cd" stroke-dasharray="5,2" d="M873.3,-1236.41C929.17,-1235.83 1007.26,-1231.35 1030,-1211.65 1071.69,-1175.54 1094.86,-992.05 1099.93,-947.44"/>
<polygon fill="#9a32cd" stroke="#9a32cd" points="873.13,-1232.91 863.15,-1236.47 873.17,-1239.91 873.13,-1232.91"/>
<text text-anchor="middle" x="961.5" y="-1238.65" font-family="Helvetica,sans-Serif" font-size="10.00"> connecting_voice_channels</text>
</g>
<!-- Node30&#45;&gt;Node1 -->
<g id="edge43" class="edge">
<title>Node30&#45;&gt;Node1</title>
<path fill="none" stroke="#9a32cd" stroke-dasharray="5,2" d="M884.09,-244.52C1010.9,-253.27 1275,-271.48 1392.7,-279.6"/>
<polygon fill="#9a32cd" stroke="#9a32cd" points="884.31,-241.03 874.1,-243.83 883.83,-248.01 884.31,-241.03"/>
<text text-anchor="middle" x="1194" y="-270.65" font-family="Helvetica,sans-Serif" font-size="10.00"> created</text>
</g>
<!-- Node31 -->
<g id="node31" class="node">
<title>Node31</title>
<g id="a_node31"><a xlink:title=" ">
<polygon fill="none" stroke="#bfbfbf" points="474.5,-230.15 474.5,-249.15 589.5,-249.15 589.5,-230.15 474.5,-230.15"/>
<text text-anchor="middle" x="532" y="-237.15" font-family="Helvetica,sans-Serif" font-size="10.00">event_privacy_level</text>
</a>
</g>
</g>
<!-- Node31&#45;&gt;Node30 -->
<g id="edge48" class="edge">
<title>Node31&#45;&gt;Node30</title>
<path fill="none" stroke="#9a32cd" stroke-dasharray="5,2" d="M599.83,-239.65C645.67,-239.65 706.01,-239.65 750.54,-239.65"/>
<polygon fill="#9a32cd" stroke="#9a32cd" points="599.69,-236.15 589.69,-239.65 599.69,-243.15 599.69,-236.15"/>
<text text-anchor="middle" x="671.5" y="-242.65" font-family="Helvetica,sans-Serif" font-size="10.00"> privacy_level</text>
</g>
<!-- Node32 -->
<g id="node32" class="node">
<title>Node32</title>
<g id="a_node32"><a xlink:title=" ">
<polygon fill="none" stroke="#bfbfbf" points="492,-145.15 492,-164.15 572,-164.15 572,-145.15 492,-145.15"/>
<text text-anchor="middle" x="532" y="-152.15" font-family="Helvetica,sans-Serif" font-size="10.00">event_status</text>
</a>
</g>
</g>
<!-- Node32&#45;&gt;Node30 -->
<g id="edge49" class="edge">
<title>Node32&#45;&gt;Node30</title>
<path fill="none" stroke="#9a32cd" stroke-dasharray="5,2" d="M582.49,-152.25C623.95,-151.99 683.89,-155.8 732,-175.65 761.81,-187.96 789.41,-215.12 802.88,-229.79"/>
<polygon fill="#9a32cd" stroke="#9a32cd" points="582.31,-148.75 572.36,-152.39 582.41,-155.75 582.31,-148.75"/>
<text text-anchor="middle" x="671.5" y="-178.65" font-family="Helvetica,sans-Serif" font-size="10.00"> status</text>
</g>
<!-- Node33 -->
<g id="node33" class="node">
<title>Node33</title>
<g id="a_node33"><a xlink:title=" ">
<polygon fill="none" stroke="#bfbfbf" points="479.5,-5.15 479.5,-24.15 584.5,-24.15 584.5,-5.15 479.5,-5.15"/>
<text text-anchor="middle" x="532" y="-12.15" font-family="Helvetica,sans-Serif" font-size="10.00">event_entity_type</text>
</a>
</g>
</g>
<!-- Node33&#45;&gt;Node30 -->
<g id="edge50" class="edge">
<title>Node33&#45;&gt;Node30</title>
<path fill="none" stroke="#9a32cd" stroke-dasharray="5,2" d="M585.67,-3.57C629.17,2.45 690.31,3.3 732,-27.65 800.49,-78.5 809.99,-195.47 811.3,-229.93"/>
<polygon fill="#9a32cd" stroke="#9a32cd" points="584.93,-0.14 575.57,-5.1 585.98,-7.06 584.93,-0.14"/>
<text text-anchor="middle" x="671.5" y="-30.65" font-family="Helvetica,sans-Serif" font-size="10.00"> entity_type</text>
</g>
<!-- Node34&#45;&gt;Node30 -->
<g id="edge51" class="edge">
<title>Node34&#45;&gt;Node30</title>
<path fill="none" stroke="#9a32cd" stroke-dasharray="5,2" d="M597.33,-624.3C642.61,-616.19 700.55,-597.71 732,-555.65 764.43,-512.29 729.56,-362.8 750,-312.65 760.82,-286.11 785.1,-262.1 799.71,-249.33"/>
<polygon fill="#9a32cd" stroke="#9a32cd" points="596.58,-620.88 587.29,-625.97 597.73,-627.78 596.58,-620.88"/>
<text text-anchor="middle" x="671.5" y="-624.65" font-family="Helvetica,sans-Serif" font-size="10.00"> entity_metadata</text>
</g>
</g>
</svg>
