<?xml version="1.0" encoding="UTF-8" standalone="no"?>
<!DOCTYPE svg PUBLIC "-//W3C//DTD SVG 1.1//EN"
 "http://www.w3.org/Graphics/SVG/1.1/DTD/svg11.dtd">
<!-- Generated by graphviz version 2.43.0 (0)
 -->
<!-- Title: dpp::user_update_t Pages: 1 -->
<!--zoomable 985 -->
<svg id="main" version="1.1" xmlns="http://www.w3.org/2000/svg" xmlns:xlink="http://www.w3.org/1999/xlink" xml:space="preserve" onload="init(evt)">
<style type="text/css"><![CDATA[
.edge:hover path { stroke: red; }
.edge:hover polygon { stroke: red; fill: red; }
]]></style>
<script type="text/javascript"><![CDATA[
var edges = document.getElementsByTagName('g');
if (edges && edges.length) {
  for (var i=0;i<edges.length;i++) {
    if (edges[i].id.substr(0,4)=='edge') {
      edges[i].setAttribute('class','edge');
    }
  }
}
]]></script>
        <defs>
                <circle id="rim" cx="0" cy="0" r="7"/>
                <circle id="rim2" cx="0" cy="0" r="3.5"/>
                <g id="zoomPlus">
                        <use xlink:href="#rim" fill="#404040">
                                <set attributeName="fill" to="#808080" begin="zoomplus.mouseover" end="zoomplus.mouseout"/>
                        </use>
                        <path d="M-4,0h8M0,-4v8" fill="none" stroke="white" stroke-width="1.5" pointer-events="none"/>
                </g>
                <g id="zoomMin">
                        <use xlink:href="#rim" fill="#404040">
                                <set attributeName="fill" to="#808080" begin="zoomminus.mouseover" end="zoomminus.mouseout"/>
                        </use>
                        <path d="M-4,0h8" fill="none" stroke="white" stroke-width="1.5" pointer-events="none"/>
                </g>
                <g id="dirArrow">
                        <path fill="none" stroke="white" stroke-width="1.5" d="M0,-3.0v7 M-2.5,-0.5L0,-3.0L2.5,-0.5"/>
                </g>
               <g id="resetDef">
                       <use xlink:href="#rim2" fill="#404040">
                               <set attributeName="fill" to="#808080" begin="reset.mouseover" end="reset.mouseout"/>
                       </use>
               </g>
        </defs>

<script type="text/javascript">
var viewWidth = 1498;
var viewHeight = 985;
var sectionId = 'dynsection-1';
</script>
<script xlink:href="svgpan.js"/>
<svg id="graph" class="graph">
<g id="viewport">
<title>dpp::user_update_t</title>
<!-- Node1 -->
<g id="node1" class="node">
<title>Node1</title>
<g id="a_node1"><a xlink:title="User update.">
<polygon fill="#bfbfbf" stroke="black" points="1380,-109.5 1380,-128.5 1490,-128.5 1490,-109.5 1380,-109.5"/>
<text text-anchor="middle" x="1435" y="-116.5" font-family="Helvetica,sans-Serif" font-size="10.00">dpp::user_update_t</text>
</a>
</g>
</g>
<!-- Node2 -->
<g id="node2" class="node">
<title>Node2</title>
<g id="a_node2"><a xlink:href="structdpp_1_1event__dispatch__t.html" target="_top" xlink:title="Base event parameter struct. Each event you receive from the library will have its parameter derived ...">
<polygon fill="none" stroke="black" points="1219,-649.5 1219,-668.5 1343,-668.5 1343,-649.5 1219,-649.5"/>
<text text-anchor="middle" x="1281" y="-656.5" font-family="Helvetica,sans-Serif" font-size="10.00">dpp::event_dispatch_t</text>
</a>
</g>
</g>
<!-- Node2&#45;&gt;Node1 -->
<g id="edge1" class="edge">
<title>Node2&#45;&gt;Node1</title>
<path fill="none" stroke="midnightblue" d="M1287.53,-639.36C1312.4,-551.02 1413.45,-192 1431.3,-128.59"/>
<polygon fill="midnightblue" stroke="midnightblue" points="1284.11,-638.59 1284.77,-649.17 1290.85,-640.49 1284.11,-638.59"/>
</g>
<!-- Node3 -->
<g id="node3" class="node">
<title>Node3</title>
<g id="a_node3"><a xlink:title=" ">
<polygon fill="none" stroke="#bfbfbf" points="212,-623.5 212,-642.5 277,-642.5 277,-623.5 212,-623.5"/>
<text text-anchor="middle" x="244.5" y="-630.5" font-family="Helvetica,sans-Serif" font-size="10.00">std::string</text>
</a>
</g>
</g>
<!-- Node3&#45;&gt;Node2 -->
<g id="edge2" class="edge">
<title>Node3&#45;&gt;Node2</title>
<path fill="none" stroke="#9a32cd" stroke-dasharray="5,2" d="M287.21,-638.65C344.07,-646.69 440.34,-661.59 453,-672 469.64,-685.68 456.26,-701.29 471,-717 512.09,-760.77 541.25,-744.56 593,-775 629.94,-796.73 709.47,-873.08 750,-887 810.16,-907.66 829.4,-891.67 893,-893 953.88,-894.28 973.37,-915.37 1030,-893 1151.64,-844.95 1248.84,-706.67 1273.78,-668.73"/>
<polygon fill="#9a32cd" stroke="#9a32cd" points="287.47,-635.16 277.08,-637.24 286.5,-642.09 287.47,-635.16"/>
<text text-anchor="middle" x="812.5" y="-900" font-family="Helvetica,sans-Serif" font-size="10.00"> raw_event</text>
</g>
<!-- Node5 -->
<g id="node5" class="node">
<title>Node5</title>
<g id="a_node5"><a xlink:href="classdpp_1_1discord__client.html" target="_top" xlink:title="Implements a discord client. Each discord_client connects to one shard and derives from a websocket c...">
<polygon fill="none" stroke="black" points="1048,-649.5 1048,-668.5 1156,-668.5 1156,-649.5 1048,-649.5"/>
<text text-anchor="middle" x="1102" y="-656.5" font-family="Helvetica,sans-Serif" font-size="10.00">dpp::discord_client</text>
</a>
</g>
</g>
<!-- Node3&#45;&gt;Node5 -->
<g id="edge40" class="edge">
<title>Node3&#45;&gt;Node5</title>
<path fill="none" stroke="#9a32cd" stroke-dasharray="5,2" d="M287.18,-624.2C332.2,-617.15 404.02,-613.29 453,-647 468.72,-657.82 455.26,-675.2 471,-686 573.44,-756.28 908.84,-719.42 1030,-692 1050.15,-687.44 1071.4,-676.66 1085.34,-668.66"/>
<polygon fill="#9a32cd" stroke="#9a32cd" points="286.45,-620.78 277.18,-625.89 287.62,-627.68 286.45,-620.78"/>
<text text-anchor="middle" x="671.5" y="-740" font-family="Helvetica,sans-Serif" font-size="10.00"> sessionid</text>
<text text-anchor="middle" x="671.5" y="-729" font-family="Helvetica,sans-Serif" font-size="10.00">token</text>
</g>
<!-- Node7 -->
<g id="node7" class="node">
<title>Node7</title>
<g id="a_node7"><a xlink:href="classdpp_1_1ssl__client.html" target="_top" xlink:title="Implements a simple non&#45;blocking SSL stream client.">
<polygon fill="none" stroke="black" points="489,-784.5 489,-803.5 575,-803.5 575,-784.5 489,-784.5"/>
<text text-anchor="middle" x="532" y="-791.5" font-family="Helvetica,sans-Serif" font-size="10.00">dpp::ssl_client</text>
</a>
</g>
</g>
<!-- Node3&#45;&gt;Node7 -->
<g id="edge7" class="edge">
<title>Node3&#45;&gt;Node7</title>
<path fill="none" stroke="#9a32cd" stroke-dasharray="5,2" d="M274.49,-646.83C291.03,-654.27 312.33,-663.11 332,-669 384.44,-684.71 413.49,-654.11 453,-692 478.37,-716.33 448.28,-742.18 471,-769 476.76,-775.8 484.68,-780.79 492.88,-784.43"/>
<polygon fill="#9a32cd" stroke="#9a32cd" points="275.89,-643.63 265.34,-642.64 272.98,-649.99 275.89,-643.63"/>
<text text-anchor="middle" x="392.5" y="-739" font-family="Helvetica,sans-Serif" font-size="10.00"> buffer</text>
<text text-anchor="middle" x="392.5" y="-728" font-family="Helvetica,sans-Serif" font-size="10.00">cipher</text>
<text text-anchor="middle" x="392.5" y="-717" font-family="Helvetica,sans-Serif" font-size="10.00">hostname</text>
<text text-anchor="middle" x="392.5" y="-706" font-family="Helvetica,sans-Serif" font-size="10.00">obuffer</text>
<text text-anchor="middle" x="392.5" y="-695" font-family="Helvetica,sans-Serif" font-size="10.00">port</text>
</g>
<!-- Node17 -->
<g id="node17" class="node">
<title>Node17</title>
<g id="a_node17"><a xlink:href="classdpp_1_1cluster.html" target="_top" xlink:title="The cluster class represents a group of shards and a command queue for sending and receiving commands...">
<polygon fill="none" stroke="black" points="775.5,-486.5 775.5,-505.5 849.5,-505.5 849.5,-486.5 775.5,-486.5"/>
<text text-anchor="middle" x="812.5" y="-493.5" font-family="Helvetica,sans-Serif" font-size="10.00">dpp::cluster</text>
</a>
</g>
</g>
<!-- Node3&#45;&gt;Node17 -->
<g id="edge19" class="edge">
<title>Node3&#45;&gt;Node17</title>
<path fill="none" stroke="#9a32cd" stroke-dasharray="5,2" d="M287.4,-626.94C344.01,-618.47 439.44,-603.13 453,-594 465.27,-585.74 458.86,-574.46 471,-566 523.28,-529.56 548.61,-547.97 611,-535 668.29,-523.09 735.02,-510.33 775.22,-502.76"/>
<polygon fill="#9a32cd" stroke="#9a32cd" points="286.69,-623.51 277.31,-628.44 287.72,-630.43 286.69,-623.51"/>
<text text-anchor="middle" x="532" y="-569" font-family="Helvetica,sans-Serif" font-size="10.00"> token</text>
</g>
<!-- Node20 -->
<g id="node20" class="node">
<title>Node20</title>
<g id="a_node20"><a xlink:href="classdpp_1_1user.html" target="_top" xlink:title="Represents a user on discord. May or may not be a member of a dpp::guild.">
<polygon fill="none" stroke="black" points="501,-97.5 501,-116.5 563,-116.5 563,-97.5 501,-97.5"/>
<text text-anchor="middle" x="532" y="-104.5" font-family="Helvetica,sans-Serif" font-size="10.00">dpp::user</text>
</a>
</g>
</g>
<!-- Node3&#45;&gt;Node20 -->
<g id="edge26" class="edge">
<title>Node3&#45;&gt;Node20</title>
<path fill="none" stroke="#9a32cd" stroke-dasharray="5,2" d="M268.4,-617.61C283.89,-605.9 303.39,-588.36 314,-568 338.92,-520.17 316.23,-499.57 332,-448 368.56,-328.42 406.88,-310.23 453,-194 462.64,-169.7 454.11,-157.95 471,-138 479.11,-128.42 490.92,-121.44 501.92,-116.55"/>
<polygon fill="#9a32cd" stroke="#9a32cd" points="266.32,-614.79 260.28,-623.5 270.43,-620.46 266.32,-614.79"/>
<text text-anchor="middle" x="392.5" y="-451" font-family="Helvetica,sans-Serif" font-size="10.00"> username</text>
</g>
<!-- Node4 -->
<g id="node4" class="node">
<title>Node4</title>
<g id="a_node4"><a xlink:title=" ">
<polygon fill="none" stroke="#bfbfbf" points="0,-618 0,-648 104,-648 104,-618 0,-618"/>
<text text-anchor="start" x="8" y="-636" font-family="Helvetica,sans-Serif" font-size="10.00">std::basic_string&lt;</text>
<text text-anchor="middle" x="52" y="-625" font-family="Helvetica,sans-Serif" font-size="10.00"> Char &gt;</text>
</a>
</g>
</g>
<!-- Node4&#45;&gt;Node3 -->
<g id="edge3" class="edge">
<title>Node4&#45;&gt;Node3</title>
<path fill="none" stroke="midnightblue" d="M114.35,-633C146.8,-633 185.28,-633 211.75,-633"/>
<polygon fill="midnightblue" stroke="midnightblue" points="114.05,-629.5 104.05,-633 114.05,-636.5 114.05,-629.5"/>
</g>
<!-- Node5&#45;&gt;Node2 -->
<g id="edge4" class="edge">
<title>Node5&#45;&gt;Node2</title>
<path fill="none" stroke="#9a32cd" stroke-dasharray="5,2" d="M1166.52,-659C1183.56,-659 1201.94,-659 1218.85,-659"/>
<polygon fill="#9a32cd" stroke="#9a32cd" points="1166.11,-655.5 1156.11,-659 1166.11,-662.5 1166.11,-655.5"/>
<text text-anchor="middle" x="1187.5" y="-662" font-family="Helvetica,sans-Serif" font-size="10.00"> from</text>
</g>
<!-- Node6 -->
<g id="node6" class="node">
<title>Node6</title>
<g id="a_node6"><a xlink:href="classdpp_1_1websocket__client.html" target="_top" xlink:title="Implements a websocket client based on the SSL client.">
<polygon fill="none" stroke="black" points="750,-782.5 750,-801.5 875,-801.5 875,-782.5 750,-782.5"/>
<text text-anchor="middle" x="812.5" y="-789.5" font-family="Helvetica,sans-Serif" font-size="10.00">dpp::websocket_client</text>
</a>
</g>
</g>
<!-- Node6&#45;&gt;Node5 -->
<g id="edge5" class="edge">
<title>Node6&#45;&gt;Node5</title>
<path fill="none" stroke="midnightblue" d="M885.66,-800.78C930.35,-802.66 987.18,-798.31 1030,-772 1069.88,-747.5 1091.03,-691.31 1098.18,-668.69"/>
<polygon fill="midnightblue" stroke="midnightblue" points="885.62,-797.27 875.45,-800.24 885.24,-804.26 885.62,-797.27"/>
</g>
<!-- Node7&#45;&gt;Node6 -->
<g id="edge6" class="edge">
<title>Node7&#45;&gt;Node6</title>
<path fill="none" stroke="midnightblue" d="M585.51,-793.62C632.24,-793.29 700.62,-792.8 749.91,-792.44"/>
<polygon fill="midnightblue" stroke="midnightblue" points="585.27,-790.12 575.3,-793.7 585.32,-797.12 585.27,-790.12"/>
</g>
<!-- Node8 -->
<g id="node8" class="node">
<title>Node8</title>
<g id="a_node8"><a xlink:title=" ">
<polygon fill="none" stroke="#bfbfbf" points="225.5,-957.5 225.5,-976.5 263.5,-976.5 263.5,-957.5 225.5,-957.5"/>
<text text-anchor="middle" x="244.5" y="-964.5" font-family="Helvetica,sans-Serif" font-size="10.00">bool</text>
</a>
</g>
</g>
<!-- Node8&#45;&gt;Node5 -->
<g id="edge17" class="edge">
<title>Node8&#45;&gt;Node5</title>
<path fill="none" stroke="#9a32cd" stroke-dasharray="5,2" d="M273.91,-969.73C314.18,-972.9 389.99,-976.25 453,-964 591.95,-937 613.63,-886.94 750,-849 871.71,-815.14 928.57,-875.32 1030,-800 1075.55,-766.17 1093.86,-694.86 1099.2,-668.8"/>
<polygon fill="#9a32cd" stroke="#9a32cd" points="274.02,-966.23 263.76,-968.88 273.43,-973.21 274.02,-966.23"/>
<text text-anchor="middle" x="671.5" y="-919" font-family="Helvetica,sans-Serif" font-size="10.00"> ready</text>
<text text-anchor="middle" x="671.5" y="-908" font-family="Helvetica,sans-Serif" font-size="10.00">terminating</text>
</g>
<!-- Node8&#45;&gt;Node7 -->
<g id="edge8" class="edge">
<title>Node8&#45;&gt;Node7</title>
<path fill="none" stroke="#9a32cd" stroke-dasharray="5,2" d="M273.45,-962.33C329.23,-952.97 449.33,-932.58 453,-930 498.85,-897.73 521.42,-829.33 528.48,-803.84"/>
<polygon fill="#9a32cd" stroke="#9a32cd" points="272.8,-958.89 263.52,-963.99 273.96,-965.79 272.8,-958.89"/>
<text text-anchor="middle" x="392.5" y="-954" font-family="Helvetica,sans-Serif" font-size="10.00"> nonblocking</text>
</g>
<!-- Node9 -->
<g id="node9" class="node">
<title>Node9</title>
<g id="a_node9"><a xlink:title=" ">
<polygon fill="none" stroke="#bfbfbf" points="230,-908.5 230,-927.5 259,-927.5 259,-908.5 230,-908.5"/>
<text text-anchor="middle" x="244.5" y="-915.5" font-family="Helvetica,sans-Serif" font-size="10.00">int</text>
</a>
</g>
</g>
<!-- Node9&#45;&gt;Node7 -->
<g id="edge9" class="edge">
<title>Node9&#45;&gt;Node7</title>
<path fill="none" stroke="#9a32cd" stroke-dasharray="5,2" d="M269.4,-917.8C317.07,-917.04 422.08,-913.37 453,-896 491.68,-874.27 517.36,-824.69 526.87,-803.69"/>
<polygon fill="#9a32cd" stroke="#9a32cd" points="269.06,-914.31 259.1,-917.94 269.15,-921.31 269.06,-914.31"/>
<text text-anchor="middle" x="392.5" y="-918" font-family="Helvetica,sans-Serif" font-size="10.00"> sfd</text>
</g>
<!-- Node10 -->
<g id="node10" class="node">
<title>Node10</title>
<g id="a_node10"><a xlink:href="classdpp_1_1opensslcontext.html" target="_top" xlink:title="This is an opaque class containing openssl library specific structures. We define it this way so that...">
<polygon fill="none" stroke="black" points="187,-870.5 187,-889.5 302,-889.5 302,-870.5 187,-870.5"/>
<text text-anchor="middle" x="244.5" y="-877.5" font-family="Helvetica,sans-Serif" font-size="10.00">dpp::opensslcontext</text>
</a>
</g>
</g>
<!-- Node10&#45;&gt;Node7 -->
<g id="edge10" class="edge">
<title>Node10&#45;&gt;Node7</title>
<path fill="none" stroke="#9a32cd" stroke-dasharray="5,2" d="M312.4,-883.04C354.31,-882.6 408.59,-877.66 453,-859 482.9,-846.44 510.11,-818.35 523.06,-803.55"/>
<polygon fill="#9a32cd" stroke="#9a32cd" points="312.29,-879.54 302.3,-883.06 312.3,-886.54 312.29,-879.54"/>
<text text-anchor="middle" x="392.5" y="-885" font-family="Helvetica,sans-Serif" font-size="10.00"> ssl</text>
</g>
<!-- Node11 -->
<g id="node11" class="node">
<title>Node11</title>
<g id="a_node11"><a xlink:title=" ">
<polygon fill="none" stroke="#bfbfbf" points="31,-889.5 31,-908.5 73,-908.5 73,-889.5 31,-889.5"/>
<text text-anchor="middle" x="52" y="-896.5" font-family="Helvetica,sans-Serif" font-size="10.00">SSL *</text>
</a>
</g>
</g>
<!-- Node11&#45;&gt;Node10 -->
<g id="edge11" class="edge">
<title>Node11&#45;&gt;Node10</title>
<path fill="none" stroke="#9a32cd" stroke-dasharray="5,2" d="M83.27,-895.98C111,-893.22 152.76,-889.05 186.69,-885.67"/>
<polygon fill="#9a32cd" stroke="#9a32cd" points="82.63,-892.53 73.03,-897 83.32,-899.49 82.63,-892.53"/>
<text text-anchor="middle" x="139.5" y="-894" font-family="Helvetica,sans-Serif" font-size="10.00"> ssl</text>
</g>
<!-- Node12 -->
<g id="node12" class="node">
<title>Node12</title>
<g id="a_node12"><a xlink:title=" ">
<polygon fill="none" stroke="#bfbfbf" points="18.5,-851.5 18.5,-870.5 85.5,-870.5 85.5,-851.5 18.5,-851.5"/>
<text text-anchor="middle" x="52" y="-858.5" font-family="Helvetica,sans-Serif" font-size="10.00">SSL_CTX *</text>
</a>
</g>
</g>
<!-- Node12&#45;&gt;Node10 -->
<g id="edge12" class="edge">
<title>Node12&#45;&gt;Node10</title>
<path fill="none" stroke="#9a32cd" stroke-dasharray="5,2" d="M96,-865.29C122.89,-867.97 157.83,-871.46 186.95,-874.36"/>
<polygon fill="#9a32cd" stroke="#9a32cd" points="96.05,-861.78 85.75,-864.27 95.35,-868.74 96.05,-861.78"/>
<text text-anchor="middle" x="139.5" y="-874" font-family="Helvetica,sans-Serif" font-size="10.00"> ctx</text>
</g>
<!-- Node13 -->
<g id="node13" class="node">
<title>Node13</title>
<g id="a_node13"><a xlink:title=" ">
<polygon fill="none" stroke="#bfbfbf" points="220.5,-539.5 220.5,-558.5 268.5,-558.5 268.5,-539.5 220.5,-539.5"/>
<text text-anchor="middle" x="244.5" y="-546.5" font-family="Helvetica,sans-Serif" font-size="10.00">time_t</text>
</a>
</g>
</g>
<!-- Node13&#45;&gt;Node5 -->
<g id="edge37" class="edge">
<title>Node13&#45;&gt;Node5</title>
<path fill="none" stroke="#9a32cd" stroke-dasharray="5,2" d="M278.74,-543.25C324.12,-537.44 405.25,-534.66 453,-578 478.38,-601.04 444.5,-631.25 471,-653 519.02,-692.42 967.92,-666.18 1030,-664 1035.8,-663.8 1041.87,-663.5 1047.91,-663.15"/>
<polygon fill="#9a32cd" stroke="#9a32cd" points="277.97,-539.82 268.56,-544.68 278.95,-546.75 277.97,-539.82"/>
<text text-anchor="middle" x="671.5" y="-689" font-family="Helvetica,sans-Serif" font-size="10.00"> last_heartbeat</text>
<text text-anchor="middle" x="671.5" y="-678" font-family="Helvetica,sans-Serif" font-size="10.00">last_heartbeat_ack</text>
</g>
<!-- Node13&#45;&gt;Node7 -->
<g id="edge13" class="edge">
<title>Node13&#45;&gt;Node7</title>
<path fill="none" stroke="#9a32cd" stroke-dasharray="5,2" d="M278.41,-558.86C322.66,-573.5 401.68,-604.69 453,-654 453.67,-654.65 508.23,-752.95 525.69,-784.43"/>
<polygon fill="#9a32cd" stroke="#9a32cd" points="279.33,-555.48 268.73,-555.74 277.18,-562.14 279.33,-555.48"/>
<text text-anchor="middle" x="392.5" y="-657" font-family="Helvetica,sans-Serif" font-size="10.00"> last_tick</text>
</g>
<!-- Node13&#45;&gt;Node17 -->
<g id="edge20" class="edge">
<title>Node13&#45;&gt;Node17</title>
<path fill="none" stroke="#9a32cd" stroke-dasharray="5,2" d="M278.57,-543.08C294.65,-540.35 314.29,-537.22 332,-535 496.91,-514.29 695.18,-502.21 775.3,-497.86"/>
<polygon fill="#9a32cd" stroke="#9a32cd" points="277.82,-539.66 268.57,-544.81 279.02,-546.56 277.82,-539.66"/>
<text text-anchor="middle" x="532" y="-523" font-family="Helvetica,sans-Serif" font-size="10.00"> last_identify</text>
</g>
<!-- Node14 -->
<g id="node14" class="node">
<title>Node14</title>
<g id="a_node14"><a xlink:title=" ">
<polygon fill="none" stroke="#bfbfbf" points="24,-134.5 24,-153.5 80,-153.5 80,-134.5 24,-134.5"/>
<text text-anchor="middle" x="52" y="-141.5" font-family="Helvetica,sans-Serif" font-size="10.00">uint64_t</text>
</a>
</g>
</g>
<!-- Node14&#45;&gt;Node5 -->
<g id="edge39" class="edge">
<title>Node14&#45;&gt;Node5</title>
<path fill="none" stroke="#9a32cd" stroke-dasharray="5,2" d="M90.36,-145.47C143.88,-147.51 245.47,-151.17 332,-153 341.69,-153.2 1022.71,-153.61 1030,-160 1106.66,-227.2 1102.59,-585.44 1101.24,-649.27"/>
<polygon fill="#9a32cd" stroke="#9a32cd" points="90.45,-141.97 80.32,-145.08 90.18,-148.96 90.45,-141.97"/>
<text text-anchor="middle" x="532" y="-157" font-family="Helvetica,sans-Serif" font-size="10.00"> last_seq</text>
</g>
<!-- Node14&#45;&gt;Node7 -->
<g id="edge14" class="edge">
<title>Node14&#45;&gt;Node7</title>
<path fill="none" stroke="#9a32cd" stroke-dasharray="5,2" d="M52.55,-163.86C51.9,-236.59 58.4,-492.48 175,-652 250.19,-754.88 412.1,-783.3 488.91,-791.09"/>
<polygon fill="#9a32cd" stroke="#9a32cd" points="56.05,-163.85 52.7,-153.8 49.05,-163.75 56.05,-163.85"/>
<text text-anchor="middle" x="244.5" y="-763" font-family="Helvetica,sans-Serif" font-size="10.00"> bytes_in</text>
<text text-anchor="middle" x="244.5" y="-752" font-family="Helvetica,sans-Serif" font-size="10.00">bytes_out</text>
</g>
<!-- Node21 -->
<g id="node21" class="node">
<title>Node21</title>
<g id="a_node21"><a xlink:href="classdpp_1_1managed.html" target="_top" xlink:title="The managed class is the base class for various types that can be stored in a cache that are identifi...">
<polygon fill="none" stroke="black" points="201.5,-76.5 201.5,-95.5 287.5,-95.5 287.5,-76.5 201.5,-76.5"/>
<text text-anchor="middle" x="244.5" y="-83.5" font-family="Helvetica,sans-Serif" font-size="10.00">dpp::managed</text>
</a>
</g>
</g>
<!-- Node14&#45;&gt;Node21 -->
<g id="edge25" class="edge">
<title>Node14&#45;&gt;Node21</title>
<path fill="none" stroke="#9a32cd" stroke-dasharray="5,2" d="M89.86,-131.81C114,-123.92 146.29,-113.57 175,-105 185.76,-101.79 197.53,-98.46 208.22,-95.5"/>
<polygon fill="#9a32cd" stroke="#9a32cd" points="88.45,-128.58 80.04,-135.02 90.63,-135.24 88.45,-128.58"/>
<text text-anchor="middle" x="139.5" y="-124" font-family="Helvetica,sans-Serif" font-size="10.00"> id</text>
</g>
<!-- Node23 -->
<g id="node23" class="node">
<title>Node23</title>
<g id="a_node23"><a xlink:href="structdpp_1_1utility_1_1iconhash.html" target="_top" xlink:title="Store a 128 bit icon hash (profile picture, server icon etc) as a 128 bit binary value made of two ui...">
<polygon fill="none" stroke="black" points="185.5,-0.5 185.5,-19.5 303.5,-19.5 303.5,-0.5 185.5,-0.5"/>
<text text-anchor="middle" x="244.5" y="-7.5" font-family="Helvetica,sans-Serif" font-size="10.00">dpp::utility::iconhash</text>
</a>
</g>
</g>
<!-- Node14&#45;&gt;Node23 -->
<g id="edge29" class="edge">
<title>Node14&#45;&gt;Node23</title>
<path fill="none" stroke="#9a32cd" stroke-dasharray="5,2" d="M66.87,-126.33C87.68,-101.03 129.41,-54.7 175,-29 181.77,-25.18 189.36,-22.09 196.95,-19.61"/>
<polygon fill="#9a32cd" stroke="#9a32cd" points="63.97,-124.35 60.42,-134.33 69.42,-128.75 63.97,-124.35"/>
<text text-anchor="middle" x="139.5" y="-81" font-family="Helvetica,sans-Serif" font-size="10.00"> first</text>
<text text-anchor="middle" x="139.5" y="-70" font-family="Helvetica,sans-Serif" font-size="10.00">second</text>
</g>
<!-- Node15 -->
<g id="node15" class="node">
<title>Node15</title>
<g id="a_node15"><a xlink:title=" ">
<polygon fill="none" stroke="#bfbfbf" points="175,-829.5 175,-848.5 314,-848.5 314,-829.5 175,-829.5"/>
<text text-anchor="middle" x="244.5" y="-836.5" font-family="Helvetica,sans-Serif" font-size="10.00">function&lt; dpp::socket()&gt;</text>
</a>
</g>
</g>
<!-- Node15&#45;&gt;Node7 -->
<g id="edge15" class="edge">
<title>Node15&#45;&gt;Node7</title>
<path fill="none" stroke="#9a32cd" stroke-dasharray="5,2" d="M324.42,-834.01C363.38,-830.7 410.92,-825.36 453,-817 469.89,-813.64 488.4,-808.26 503.15,-803.55"/>
<polygon fill="#9a32cd" stroke="#9a32cd" points="323.87,-830.55 314.19,-834.85 324.45,-837.52 323.87,-830.55"/>
<text text-anchor="middle" x="392.5" y="-847" font-family="Helvetica,sans-Serif" font-size="10.00"> custom_readable_fd</text>
<text text-anchor="middle" x="392.5" y="-836" font-family="Helvetica,sans-Serif" font-size="10.00">custom_writeable_fd</text>
</g>
<!-- Node16 -->
<g id="node16" class="node">
<title>Node16</title>
<g id="a_node16"><a xlink:title=" ">
<polygon fill="none" stroke="#bfbfbf" points="192.5,-791.5 192.5,-810.5 296.5,-810.5 296.5,-791.5 192.5,-791.5"/>
<text text-anchor="middle" x="244.5" y="-798.5" font-family="Helvetica,sans-Serif" font-size="10.00">function&lt; void()&gt;</text>
</a>
</g>
</g>
<!-- Node16&#45;&gt;Node7 -->
<g id="edge16" class="edge">
<title>Node16&#45;&gt;Node7</title>
<path fill="none" stroke="#9a32cd" stroke-dasharray="5,2" d="M306.89,-796.25C315.32,-795.74 323.87,-795.3 332,-795 386.03,-792.99 448.37,-793.07 488.67,-793.43"/>
<polygon fill="#9a32cd" stroke="#9a32cd" points="306.46,-792.77 296.7,-796.9 306.9,-799.76 306.46,-792.77"/>
<text text-anchor="middle" x="392.5" y="-809" font-family="Helvetica,sans-Serif" font-size="10.00"> custom_readable_ready</text>
<text text-anchor="middle" x="392.5" y="-798" font-family="Helvetica,sans-Serif" font-size="10.00">custom_writeable_ready</text>
</g>
<!-- Node17&#45;&gt;Node5 -->
<g id="edge18" class="edge">
<title>Node17&#45;&gt;Node5</title>
<path fill="none" stroke="#9a32cd" stroke-dasharray="5,2" d="M859.87,-502.99C906.33,-511.78 978.19,-530.39 1030,-567 1061.96,-589.59 1086.26,-630.78 1096.15,-649.4"/>
<polygon fill="#9a32cd" stroke="#9a32cd" points="860.25,-499.51 849.79,-501.16 859,-506.39 860.25,-499.51"/>
<text text-anchor="middle" x="961.5" y="-570" font-family="Helvetica,sans-Serif" font-size="10.00"> creator</text>
</g>
<!-- Node18 -->
<g id="node18" class="node">
<title>Node18</title>
<g id="a_node18"><a xlink:title=" ">
<polygon fill="none" stroke="#bfbfbf" points="216.5,-202.5 216.5,-221.5 272.5,-221.5 272.5,-202.5 216.5,-202.5"/>
<text text-anchor="middle" x="244.5" y="-209.5" font-family="Helvetica,sans-Serif" font-size="10.00">uint32_t</text>
</a>
</g>
</g>
<!-- Node18&#45;&gt;Node5 -->
<g id="edge36" class="edge">
<title>Node18&#45;&gt;Node5</title>
<path fill="none" stroke="#9a32cd" stroke-dasharray="5,2" d="M282.98,-208.17C382.47,-198.57 651.13,-176.58 732,-210 904.82,-281.41 922.57,-353.95 1030,-507 1064.47,-556.11 1089.44,-624.61 1097.88,-649.49"/>
<polygon fill="#9a32cd" stroke="#9a32cd" points="282.41,-204.71 272.79,-209.16 283.09,-211.67 282.41,-204.71"/>
<text text-anchor="middle" x="671.5" y="-268" font-family="Helvetica,sans-Serif" font-size="10.00"> heartbeat_interval</text>
<text text-anchor="middle" x="671.5" y="-257" font-family="Helvetica,sans-Serif" font-size="10.00">intents</text>
<text text-anchor="middle" x="671.5" y="-246" font-family="Helvetica,sans-Serif" font-size="10.00">max_shards</text>
<text text-anchor="middle" x="671.5" y="-235" font-family="Helvetica,sans-Serif" font-size="10.00">reconnects</text>
<text text-anchor="middle" x="671.5" y="-224" font-family="Helvetica,sans-Serif" font-size="10.00">resumes</text>
<text text-anchor="middle" x="671.5" y="-213" font-family="Helvetica,sans-Serif" font-size="10.00">shard_id</text>
</g>
<!-- Node18&#45;&gt;Node17 -->
<g id="edge21" class="edge">
<title>Node18&#45;&gt;Node17</title>
<path fill="none" stroke="#9a32cd" stroke-dasharray="5,2" d="M249.38,-231.83C257.57,-267.85 280.31,-343.46 332,-378 428.82,-442.71 490.06,-346.56 593,-401 604.17,-406.91 600.46,-416.04 611,-423 657.73,-453.83 679.68,-438.08 732,-458 753.73,-466.27 777.68,-478.12 793.56,-486.38"/>
<polygon fill="#9a32cd" stroke="#9a32cd" points="252.71,-230.69 247.21,-221.63 245.87,-232.14 252.71,-230.69"/>
<text text-anchor="middle" x="532" y="-437" font-family="Helvetica,sans-Serif" font-size="10.00"> cluster_id</text>
<text text-anchor="middle" x="532" y="-426" font-family="Helvetica,sans-Serif" font-size="10.00">intents</text>
<text text-anchor="middle" x="532" y="-415" font-family="Helvetica,sans-Serif" font-size="10.00">maxclusters</text>
<text text-anchor="middle" x="532" y="-404" font-family="Helvetica,sans-Serif" font-size="10.00">numshards</text>
</g>
<!-- Node18&#45;&gt;Node20 -->
<g id="edge30" class="edge">
<title>Node18&#45;&gt;Node20</title>
<path fill="none" stroke="#9a32cd" stroke-dasharray="5,2" d="M280.85,-199C339.03,-177.6 453.64,-135.45 505.01,-116.56"/>
<polygon fill="#9a32cd" stroke="#9a32cd" points="279.52,-195.76 271.34,-202.5 281.93,-202.33 279.52,-195.76"/>
<text text-anchor="middle" x="392.5" y="-182" font-family="Helvetica,sans-Serif" font-size="10.00"> flags</text>
</g>
<!-- Node19 -->
<g id="node19" class="node">
<title>Node19</title>
<g id="a_node19"><a xlink:title=" ">
<polygon fill="none" stroke="#bfbfbf" points="507,-624.5 507,-643.5 557,-643.5 557,-624.5 507,-624.5"/>
<text text-anchor="middle" x="532" y="-631.5" font-family="Helvetica,sans-Serif" font-size="10.00">double</text>
</a>
</g>
</g>
<!-- Node19&#45;&gt;Node5 -->
<g id="edge42" class="edge">
<title>Node19&#45;&gt;Node5</title>
<path fill="none" stroke="#9a32cd" stroke-dasharray="5,2" d="M567.3,-635.51C662.84,-639.71 932.58,-651.59 1047.77,-656.66"/>
<polygon fill="#9a32cd" stroke="#9a32cd" points="567.19,-632 557.04,-635.06 566.88,-638.99 567.19,-632"/>
<text text-anchor="middle" x="812.5" y="-652" font-family="Helvetica,sans-Serif" font-size="10.00"> websocket_ping</text>
</g>
<!-- Node19&#45;&gt;Node17 -->
<g id="edge22" class="edge">
<title>Node19&#45;&gt;Node17</title>
<path fill="none" stroke="#9a32cd" stroke-dasharray="5,2" d="M567.18,-624.13C616.16,-609.68 703.55,-582.68 732,-566 760.87,-549.07 788.87,-520.83 802.65,-505.92"/>
<polygon fill="#9a32cd" stroke="#9a32cd" points="565.95,-620.84 557.34,-627.02 567.92,-627.56 565.95,-620.84"/>
<text text-anchor="middle" x="671.5" y="-614" font-family="Helvetica,sans-Serif" font-size="10.00"> rest_ping</text>
</g>
<!-- Node20&#45;&gt;Node1 -->
<g id="edge45" class="edge">
<title>Node20&#45;&gt;Node1</title>
<path fill="none" stroke="#9a32cd" stroke-dasharray="5,2" d="M573.3,-107C627.46,-107 726.74,-107 811.5,-107 811.5,-107 811.5,-107 1282,-107 1314.56,-107 1350.92,-109.77 1379.91,-112.65"/>
<polygon fill="#9a32cd" stroke="#9a32cd" points="573.08,-103.5 563.08,-107 573.08,-110.5 573.08,-103.5"/>
<text text-anchor="middle" x="1102" y="-110" font-family="Helvetica,sans-Serif" font-size="10.00"> updated</text>
</g>
<!-- Node20&#45;&gt;Node17 -->
<g id="edge23" class="edge">
<title>Node20&#45;&gt;Node17</title>
<path fill="none" stroke="#9a32cd" stroke-dasharray="5,2" d="M573,-116.72C624.61,-130.04 710.35,-155.04 732,-179 775.07,-226.68 804.16,-438.14 810.29,-486.24"/>
<polygon fill="#9a32cd" stroke="#9a32cd" points="573.71,-113.29 563.16,-114.22 571.99,-120.07 573.71,-113.29"/>
<text text-anchor="middle" x="671.5" y="-182" font-family="Helvetica,sans-Serif" font-size="10.00"> me</text>
</g>
<!-- Node21&#45;&gt;Node20 -->
<g id="edge24" class="edge">
<title>Node21&#45;&gt;Node20</title>
<path fill="none" stroke="midnightblue" d="M297.62,-89.7C339.59,-92.7 400.09,-97.05 453,-101 468.71,-102.17 486.2,-103.51 500.63,-104.63"/>
<polygon fill="midnightblue" stroke="midnightblue" points="297.85,-86.21 287.63,-88.99 297.36,-93.19 297.85,-86.21"/>
</g>
<!-- Node22 -->
<g id="node22" class="node">
<title>Node22</title>
<g id="a_node22"><a xlink:title=" ">
<polygon fill="none" stroke="#bfbfbf" points="216.5,-38.5 216.5,-57.5 272.5,-57.5 272.5,-38.5 216.5,-38.5"/>
<text text-anchor="middle" x="244.5" y="-45.5" font-family="Helvetica,sans-Serif" font-size="10.00">uint16_t</text>
</a>
</g>
</g>
<!-- Node22&#45;&gt;Node20 -->
<g id="edge27" class="edge">
<title>Node22&#45;&gt;Node20</title>
<path fill="none" stroke="#9a32cd" stroke-dasharray="5,2" d="M282.74,-50.98C324.64,-54.89 394.47,-63.07 453,-78 472.46,-82.96 493.78,-91.09 509.21,-97.48"/>
<polygon fill="#9a32cd" stroke="#9a32cd" points="282.99,-47.49 272.72,-50.08 282.37,-54.46 282.99,-47.49"/>
<text text-anchor="middle" x="392.5" y="-81" font-family="Helvetica,sans-Serif" font-size="10.00"> discriminator</text>
</g>
<!-- Node23&#45;&gt;Node20 -->
<g id="edge28" class="edge">
<title>Node23&#45;&gt;Node20</title>
<path fill="none" stroke="#9a32cd" stroke-dasharray="5,2" d="M313.86,-11.35C355.64,-14.36 409.26,-22.26 453,-42 482.24,-55.2 509.33,-82.48 522.55,-97.15"/>
<polygon fill="#9a32cd" stroke="#9a32cd" points="313.98,-7.85 303.78,-10.69 313.53,-14.83 313.98,-7.85"/>
<text text-anchor="middle" x="392.5" y="-45" font-family="Helvetica,sans-Serif" font-size="10.00"> avatar</text>
</g>
<!-- Node24 -->
<g id="node24" class="node">
<title>Node24</title>
<g id="a_node24"><a xlink:title=" ">
<polygon fill="none" stroke="#bfbfbf" points="219.5,-114.5 219.5,-133.5 269.5,-133.5 269.5,-114.5 219.5,-114.5"/>
<text text-anchor="middle" x="244.5" y="-121.5" font-family="Helvetica,sans-Serif" font-size="10.00">uint8_t</text>
</a>
</g>
</g>
<!-- Node24&#45;&gt;Node20 -->
<g id="edge31" class="edge">
<title>Node24&#45;&gt;Node20</title>
<path fill="none" stroke="#9a32cd" stroke-dasharray="5,2" d="M279.47,-116.27C295.34,-113.03 314.54,-109.65 332,-108 391.68,-102.38 461.87,-103.92 500.91,-105.49"/>
<polygon fill="#9a32cd" stroke="#9a32cd" points="278.64,-112.87 269.57,-118.36 280.08,-119.72 278.64,-112.87"/>
<text text-anchor="middle" x="392.5" y="-111" font-family="Helvetica,sans-Serif" font-size="10.00"> refcount</text>
</g>
<!-- Node25 -->
<g id="node25" class="node">
<title>Node25</title>
<g id="a_node25"><a xlink:href="structdpp_1_1cache__policy__t.html" target="_top" xlink:title="Represents the caching policy of the cluster.">
<polygon fill="none" stroke="black" points="475.5,-454.5 475.5,-473.5 588.5,-473.5 588.5,-454.5 475.5,-454.5"/>
<text text-anchor="middle" x="532" y="-461.5" font-family="Helvetica,sans-Serif" font-size="10.00">dpp::cache_policy_t</text>
</a>
</g>
</g>
<!-- Node25&#45;&gt;Node17 -->
<g id="edge32" class="edge">
<title>Node25&#45;&gt;Node17</title>
<path fill="none" stroke="#9a32cd" stroke-dasharray="5,2" d="M598.91,-461.89C637.88,-461.74 688.06,-463.46 732,-471 750.97,-474.25 771.68,-480.87 787.21,-486.49"/>
<polygon fill="#9a32cd" stroke="#9a32cd" points="598.71,-458.39 588.74,-461.97 598.77,-465.39 598.71,-458.39"/>
<text text-anchor="middle" x="671.5" y="-474" font-family="Helvetica,sans-Serif" font-size="10.00"> cache_policy</text>
</g>
<!-- Node26 -->
<g id="node26" class="node">
<title>Node26</title>
<g id="a_node26"><a xlink:title=" ">
<polygon fill="none" stroke="#bfbfbf" points="180.5,-452.5 180.5,-471.5 308.5,-471.5 308.5,-452.5 180.5,-452.5"/>
<text text-anchor="middle" x="244.5" y="-459.5" font-family="Helvetica,sans-Serif" font-size="10.00">cache_policy_setting_t</text>
</a>
</g>
</g>
<!-- Node26&#45;&gt;Node25 -->
<g id="edge33" class="edge">
<title>Node26&#45;&gt;Node25</title>
<path fill="none" stroke="#9a32cd" stroke-dasharray="5,2" d="M318.74,-462.21C358.47,-462.36 408.43,-462.61 453,-463 460.18,-463.06 467.73,-463.14 475.18,-463.23"/>
<polygon fill="#9a32cd" stroke="#9a32cd" points="318.63,-458.71 308.61,-462.17 318.6,-465.71 318.63,-458.71"/>
<text text-anchor="middle" x="392.5" y="-488" font-family="Helvetica,sans-Serif" font-size="10.00"> emoji_policy</text>
<text text-anchor="middle" x="392.5" y="-477" font-family="Helvetica,sans-Serif" font-size="10.00">role_policy</text>
<text text-anchor="middle" x="392.5" y="-466" font-family="Helvetica,sans-Serif" font-size="10.00">user_policy</text>
</g>
<!-- Node27 -->
<g id="node27" class="node">
<title>Node27</title>
<g id="a_node27"><a xlink:title=" ">
<polygon fill="none" stroke="#bfbfbf" points="471,-586.5 471,-605.5 593,-605.5 593,-586.5 471,-586.5"/>
<text text-anchor="middle" x="532" y="-593.5" font-family="Helvetica,sans-Serif" font-size="10.00">websocket_protocol_t</text>
</a>
</g>
</g>
<!-- Node27&#45;&gt;Node5 -->
<g id="edge43" class="edge">
<title>Node27&#45;&gt;Node5</title>
<path fill="none" stroke="#9a32cd" stroke-dasharray="5,2" d="M603.46,-601.48C699.97,-609.38 878.59,-625.43 1030,-647 1035.82,-647.83 1041.89,-648.76 1047.93,-649.72"/>
<polygon fill="#9a32cd" stroke="#9a32cd" points="603.49,-597.97 593.24,-600.65 602.92,-604.94 603.49,-597.97"/>
<text text-anchor="middle" x="812.5" y="-631" font-family="Helvetica,sans-Serif" font-size="10.00"> protocol</text>
</g>
<!-- Node27&#45;&gt;Node17 -->
<g id="edge34" class="edge">
<title>Node27&#45;&gt;Node17</title>
<path fill="none" stroke="#9a32cd" stroke-dasharray="5,2" d="M572.78,-582.55C579.75,-579.51 586.76,-575.99 593,-572 602.27,-566.07 601.2,-560.01 611,-555 659.75,-530.09 679.81,-548.52 732,-532 753.96,-525.05 777.87,-513.66 793.67,-505.56"/>
<polygon fill="#9a32cd" stroke="#9a32cd" points="571.32,-579.37 563.38,-586.39 573.96,-585.85 571.32,-579.37"/>
<text text-anchor="middle" x="671.5" y="-558" font-family="Helvetica,sans-Serif" font-size="10.00"> ws_mode</text>
</g>
<!-- Node28 -->
<g id="node28" class="node">
<title>Node28</title>
<g id="a_node28"><a xlink:title=" ">
<polygon fill="none" stroke="#bfbfbf" points="484,-291.5 484,-310.5 580,-310.5 580,-291.5 484,-291.5"/>
<text text-anchor="middle" x="532" y="-298.5" font-family="Helvetica,sans-Serif" font-size="10.00">event_router_t&lt;</text>
</a>
</g>
</g>
<!-- Node28&#45;&gt;Node17 -->
<g id="edge35" class="edge">
<title>Node28&#45;&gt;Node17</title>
<path fill="none" stroke="#9a32cd" stroke-dasharray="5,2" d="M573.54,-288.99C616.68,-278.8 685.07,-270.34 732,-302 797.18,-345.97 808.97,-453.85 811.06,-486.49"/>
<polygon fill="#9a32cd" stroke="#9a32cd" points="572.53,-285.64 563.67,-291.46 574.22,-292.43 572.53,-285.64"/>
<text text-anchor="middle" x="671.5" y="-415" font-family="Helvetica,sans-Serif" font-size="10.00"> on_autocomplete</text>
<text text-anchor="middle" x="671.5" y="-404" font-family="Helvetica,sans-Serif" font-size="10.00">on_button_click</text>
<text text-anchor="middle" x="671.5" y="-393" font-family="Helvetica,sans-Serif" font-size="10.00">on_channel_create</text>
<text text-anchor="middle" x="671.5" y="-382" font-family="Helvetica,sans-Serif" font-size="10.00">on_channel_delete</text>
<text text-anchor="middle" x="671.5" y="-371" font-family="Helvetica,sans-Serif" font-size="10.00">on_channel_pins_update</text>
<text text-anchor="middle" x="671.5" y="-360" font-family="Helvetica,sans-Serif" font-size="10.00">on_channel_update</text>
<text text-anchor="middle" x="671.5" y="-349" font-family="Helvetica,sans-Serif" font-size="10.00">on_form_submit</text>
<text text-anchor="middle" x="671.5" y="-338" font-family="Helvetica,sans-Serif" font-size="10.00">on_guild_ban_add</text>
<text text-anchor="middle" x="671.5" y="-327" font-family="Helvetica,sans-Serif" font-size="10.00">on_guild_ban_remove</text>
<text text-anchor="middle" x="671.5" y="-316" font-family="Helvetica,sans-Serif" font-size="10.00">on_guild_create</text>
<text text-anchor="middle" x="671.5" y="-305" font-family="Helvetica,sans-Serif" font-size="10.00">...</text>
</g>
<!-- Node29 -->
<g id="node29" class="node">
<title>Node29</title>
<g id="a_node29"><a xlink:title=" ">
<polygon fill="none" stroke="#bfbfbf" points="756,-173.5 756,-192.5 869,-192.5 869,-173.5 756,-173.5"/>
<text text-anchor="middle" x="812.5" y="-180.5" font-family="Helvetica,sans-Serif" font-size="10.00">native_handle_type</text>
</a>
</g>
</g>
<!-- Node29&#45;&gt;Node5 -->
<g id="edge38" class="edge">
<title>Node29&#45;&gt;Node5</title>
<path fill="none" stroke="#9a32cd" stroke-dasharray="5,2" d="M856.86,-171.28C905.45,-161.02 983.5,-153.6 1030,-196 1099.71,-259.56 1101.38,-588.17 1101.08,-649.23"/>
<polygon fill="#9a32cd" stroke="#9a32cd" points="855.95,-167.9 846.96,-173.5 857.48,-174.73 855.95,-167.9"/>
<text text-anchor="middle" x="961.5" y="-199" font-family="Helvetica,sans-Serif" font-size="10.00"> thread_id</text>
</g>
<!-- Node30 -->
<g id="node30" class="node">
<title>Node30</title>
<g id="a_node30"><a xlink:title=" ">
<polygon fill="none" stroke="#bfbfbf" points="778,-858.5 778,-877.5 847,-877.5 847,-858.5 778,-858.5"/>
<text text-anchor="middle" x="812.5" y="-865.5" font-family="Helvetica,sans-Serif" font-size="10.00">std::mutex</text>
</a>
</g>
</g>
<!-- Node30&#45;&gt;Node5 -->
<g id="edge41" class="edge">
<title>Node30&#45;&gt;Node5</title>
<path fill="none" stroke="#9a32cd" stroke-dasharray="5,2" d="M857.08,-875.47C904.61,-881.07 980.5,-882.21 1030,-844 1088.28,-799.01 1098.74,-699.96 1100.6,-668.67"/>
<polygon fill="#9a32cd" stroke="#9a32cd" points="857.46,-871.99 847.1,-874.18 856.57,-878.94 857.46,-871.99"/>
<text text-anchor="middle" x="961.5" y="-881" font-family="Helvetica,sans-Serif" font-size="10.00"> voice_mutex</text>
</g>
<!-- Node31 -->
<g id="node31" class="node">
<title>Node31</title>
<g id="a_node31"><a xlink:title=" ">
<polygon fill="none" stroke="#bfbfbf" points="762,-744.5 762,-763.5 863,-763.5 863,-744.5 762,-744.5"/>
<text text-anchor="middle" x="812.5" y="-751.5" font-family="Helvetica,sans-Serif" font-size="10.00">unordered_map&lt;</text>
</a>
</g>
</g>
<!-- Node31&#45;&gt;Node5 -->
<g id="edge44" class="edge">
<title>Node31&#45;&gt;Node5</title>
<path fill="none" stroke="#9a32cd" stroke-dasharray="5,2" d="M873.56,-757.78C918.72,-758.22 980.98,-753.55 1030,-730 1059.38,-715.88 1083.72,-684.51 1094.71,-668.62"/>
<polygon fill="#9a32cd" stroke="#9a32cd" points="873.4,-754.28 863.34,-757.59 873.27,-761.28 873.4,-754.28"/>
<text text-anchor="middle" x="961.5" y="-760" font-family="Helvetica,sans-Serif" font-size="10.00"> connecting_voice_channels</text>
</g>
</g>
</svg>
        <g id="navigator" transform="translate(0 0)" fill="#404254">
                <rect fill="#f2f5e9" fill-opacity="0.5" stroke="#606060" stroke-width=".5" x="0" y="0" width="60" height="60"/>
                <use id="zoomplus" xlink:href="#zoomPlus" x="17" y="9" onmousedown="handleZoom(evt,'in')"/>
                <use id="zoomminus" xlink:href="#zoomMin" x="42" y="9" onmousedown="handleZoom(evt,'out')"/>
                <use id="reset" xlink:href="#resetDef" x="30" y="36" onmousedown="handleReset()"/>
                <g id="arrowUp" xlink:href="#dirArrow" transform="translate(30 24)" onmousedown="handlePan(0,-1)">
                  <use xlink:href="#rim" fill="#404040">
                        <set attributeName="fill" to="#808080" begin="arrowUp.mouseover" end="arrowUp.mouseout"/>
                  </use>
                  <path fill="none" stroke="white" stroke-width="1.5" d="M0,-3.0v7 M-2.5,-0.5L0,-3.0L2.5,-0.5"/>
                </g>
                <g id="arrowRight" xlink:href="#dirArrow" transform="rotate(90) translate(36 -43)" onmousedown="handlePan(1,0)">
                  <use xlink:href="#rim" fill="#404040">
                        <set attributeName="fill" to="#808080" begin="arrowRight.mouseover" end="arrowRight.mouseout"/>
                  </use>
                  <path fill="none" stroke="white" stroke-width="1.5" d="M0,-3.0v7 M-2.5,-0.5L0,-3.0L2.5,-0.5"/>
                </g>
                <g id="arrowDown" xlink:href="#dirArrow" transform="rotate(180) translate(-30 -48)" onmousedown="handlePan(0,1)">
                  <use xlink:href="#rim" fill="#404040">
                        <set attributeName="fill" to="#808080" begin="arrowDown.mouseover" end="arrowDown.mouseout"/>
                  </use>
                  <path fill="none" stroke="white" stroke-width="1.5" d="M0,-3.0v7 M-2.5,-0.5L0,-3.0L2.5,-0.5"/>
                </g>
                <g id="arrowLeft" xlink:href="#dirArrow" transform="rotate(270) translate(-36 17)" onmousedown="handlePan(-1,0)">
                  <use xlink:href="#rim" fill="#404040">
                        <set attributeName="fill" to="#808080" begin="arrowLeft.mouseover" end="arrowLeft.mouseout"/>
                  </use>
                  <path fill="none" stroke="white" stroke-width="1.5" d="M0,-3.0v7 M-2.5,-0.5L0,-3.0L2.5,-0.5"/>
                </g>
        </g>
        <svg viewBox="0 0 15 15" width="100%" height="30px" preserveAspectRatio="xMaxYMin meet">
         <g id="arrow_out" transform="scale(0.3 0.3)">
          <a xlink:href="structdpp_1_1user__update__t__coll__graph_org.svg" target="_base">
           <rect id="button" ry="5" rx="5" y="6" x="6" height="38" width="38"
                fill="#f2f5e9" fill-opacity="0.5" stroke="#606060" stroke-width="1.0"/>
           <path id="arrow"
             d="M 11.500037,31.436501 C 11.940474,20.09759 22.043105,11.32322 32.158766,21.979434 L 37.068811,17.246167 C 37.068811,17.246167 37.088388,32 37.088388,32 L 22.160133,31.978069 C 22.160133,31.978069 26.997745,27.140456 26.997745,27.140456 C 18.528582,18.264221 13.291696,25.230495 11.500037,31.436501 z"
             style="fill:#404040;"/>
          </a>
         </g>
        </svg>
</svg>
