<?xml version="1.0" encoding="UTF-8" standalone="no"?>
<!DOCTYPE svg PUBLIC "-//W3C//DTD SVG 1.1//EN"
 "http://www.w3.org/Graphics/SVG/1.1/DTD/svg11.dtd">
<!-- Generated by graphviz version 2.38.0 (20140413.2041)
 -->
<!-- Title: dpp::embed Pages: 1 -->
<svg width="367pt" height="218pt"
 viewBox="0.00 0.00 366.50 218.00" xmlns="http://www.w3.org/2000/svg" xmlns:xlink="http://www.w3.org/1999/xlink">
<g id="graph0" class="graph" transform="scale(1 1) rotate(0) translate(4 214)">
<title>dpp::embed</title>
<polygon fill="white" stroke="none" points="-4,4 -4,-214 362.5,-214 362.5,4 -4,4"/>
<!-- Node1 -->
<g id="node1" class="node"><title>Node1</title>
<g id="a_node1"><a xlink:title="A rich embed for display within a dpp::message.">
<polygon fill="#bfbfbf" stroke="black" points="159.5,-0.5 159.5,-19.5 227.5,-19.5 227.5,-0.5 159.5,-0.5"/>
<text text-anchor="middle" x="193.5" y="-7.5" font-family="Helvetica,sans-Serif" font-size="10.00">dpp::embed</text>
</a>
</g>
</g>
<!-- Node2 -->
<g id="node2" class="node"><title>Node2</title>
<g id="a_node2"><a xlink:title=" ">
<polygon fill="white" stroke="#bfbfbf" points="17.5,-122.5 17.5,-141.5 77.5,-141.5 77.5,-122.5 17.5,-122.5"/>
<text text-anchor="middle" x="47.5" y="-129.5" font-family="Helvetica,sans-Serif" font-size="10.00">std::string</text>
</a>
</g>
</g>
<!-- Node2&#45;&gt;Node1 -->
<g id="edge1" class="edge"><title>Node2&#45;&gt;Node1</title>
<path fill="none" stroke="#9a32cd" stroke-dasharray="5,2" d="M45.5327,-112.218C44.449,-91.2168 46.2357,-57.5888 65.5,-38 78.3591,-24.9243 125.936,-17.6009 159.308,-13.9759"/>
<polygon fill="#9a32cd" stroke="#9a32cd" points="42.0616,-112.723 46.3373,-122.417 49.0399,-112.173 42.0616,-112.723"/>
<text text-anchor="middle" x="91" y="-85" font-family="Helvetica,sans-Serif" font-size="10.00"> description</text>
<text text-anchor="middle" x="91" y="-74" font-family="Helvetica,sans-Serif" font-size="10.00">title</text>
<text text-anchor="middle" x="91" y="-63" font-family="Helvetica,sans-Serif" font-size="10.00">type</text>
<text text-anchor="middle" x="91" y="-52" font-family="Helvetica,sans-Serif" font-size="10.00">url</text>
</g>
<!-- Node3 -->
<g id="node3" class="node"><title>Node3</title>
<g id="a_node3"><a xlink:title=" ">
<polygon fill="white" stroke="#bfbfbf" points="0,-179.5 0,-209.5 95,-209.5 95,-179.5 0,-179.5"/>
<text text-anchor="start" x="8" y="-197.5" font-family="Helvetica,sans-Serif" font-size="10.00">std::basic_string&lt;</text>
<text text-anchor="middle" x="47.5" y="-186.5" font-family="Helvetica,sans-Serif" font-size="10.00"> Char &gt;</text>
</a>
</g>
</g>
<!-- Node3&#45;&gt;Node2 -->
<g id="edge2" class="edge"><title>Node3&#45;&gt;Node2</title>
<path fill="none" stroke="midnightblue" d="M47.5,-169.352C47.5,-159.513 47.5,-148.775 47.5,-141.54"/>
<polygon fill="midnightblue" stroke="midnightblue" points="44.0001,-169.468 47.5,-179.468 51.0001,-169.468 44.0001,-169.468"/>
</g>
<!-- Node4 -->
<g id="node4" class="node"><title>Node4</title>
<g id="a_node4"><a xlink:title=" ">
<polygon fill="white" stroke="#bfbfbf" points="99.5,-122.5 99.5,-141.5 143.5,-141.5 143.5,-122.5 99.5,-122.5"/>
<text text-anchor="middle" x="121.5" y="-129.5" font-family="Helvetica,sans-Serif" font-size="10.00">time_t</text>
</a>
</g>
</g>
<!-- Node4&#45;&gt;Node1 -->
<g id="edge3" class="edge"><title>Node4&#45;&gt;Node1</title>
<path fill="none" stroke="#9a32cd" stroke-dasharray="5,2" d="M120.221,-112.144C119.833,-91.836 122.2,-59.5473 138.5,-38 144.853,-29.6015 154.518,-23.6608 163.983,-19.533"/>
<polygon fill="#9a32cd" stroke="#9a32cd" points="116.731,-112.46 120.665,-122.297 123.725,-112.153 116.731,-112.46"/>
<text text-anchor="middle" x="163" y="-68.5" font-family="Helvetica,sans-Serif" font-size="10.00"> timestamp</text>
</g>
<!-- Node5 -->
<g id="node5" class="node"><title>Node5</title>
<g id="a_node5"><a xlink:title=" ">
<polygon fill="white" stroke="#bfbfbf" points="165,-122.5 165,-141.5 216,-141.5 216,-122.5 165,-122.5"/>
<text text-anchor="middle" x="190.5" y="-129.5" font-family="Helvetica,sans-Serif" font-size="10.00">uint32_t</text>
</a>
</g>
</g>
<!-- Node5&#45;&gt;Node1 -->
<g id="edge4" class="edge"><title>Node5&#45;&gt;Node1</title>
<path fill="none" stroke="#9a32cd" stroke-dasharray="5,2" d="M190.971,-112.145C191.632,-85.7231 192.806,-38.7637 193.286,-19.5519"/>
<polygon fill="#9a32cd" stroke="#9a32cd" points="187.467,-112.286 190.716,-122.37 194.465,-112.461 187.467,-112.286"/>
<text text-anchor="middle" x="206" y="-68.5" font-family="Helvetica,sans-Serif" font-size="10.00"> color</text>
</g>
<!-- Node6 -->
<g id="node6" class="node"><title>Node6</title>
<g id="a_node6"><a xlink:title=" ">
<polygon fill="white" stroke="#bfbfbf" points="234.5,-122.5 234.5,-141.5 290.5,-141.5 290.5,-122.5 234.5,-122.5"/>
<text text-anchor="middle" x="262.5" y="-129.5" font-family="Helvetica,sans-Serif" font-size="10.00">optional&lt;</text>
</a>
</g>
</g>
<!-- Node6&#45;&gt;Node1 -->
<g id="edge5" class="edge"><title>Node6&#45;&gt;Node1</title>
<path fill="none" stroke="#9a32cd" stroke-dasharray="5,2" d="M257.12,-112.648C250.813,-93.0164 239.075,-61.5325 222.5,-38 217.588,-31.0263 210.631,-24.4736 204.762,-19.5703"/>
<polygon fill="#9a32cd" stroke="#9a32cd" points="253.848,-113.917 260.131,-122.448 260.539,-111.861 253.848,-113.917"/>
<text text-anchor="middle" x="276" y="-96" font-family="Helvetica,sans-Serif" font-size="10.00"> author</text>
<text text-anchor="middle" x="276" y="-85" font-family="Helvetica,sans-Serif" font-size="10.00">footer</text>
<text text-anchor="middle" x="276" y="-74" font-family="Helvetica,sans-Serif" font-size="10.00">image</text>
<text text-anchor="middle" x="276" y="-63" font-family="Helvetica,sans-Serif" font-size="10.00">provider</text>
<text text-anchor="middle" x="276" y="-52" font-family="Helvetica,sans-Serif" font-size="10.00">thumbnail</text>
<text text-anchor="middle" x="276" y="-41" font-family="Helvetica,sans-Serif" font-size="10.00">video</text>
</g>
<!-- Node7 -->
<g id="node7" class="node"><title>Node7</title>
<g id="a_node7"><a xlink:title=" ">
<polygon fill="white" stroke="#bfbfbf" points="308.5,-122.5 308.5,-141.5 358.5,-141.5 358.5,-122.5 308.5,-122.5"/>
<text text-anchor="middle" x="333.5" y="-129.5" font-family="Helvetica,sans-Serif" font-size="10.00">vector&lt;</text>
</a>
</g>
</g>
<!-- Node7&#45;&gt;Node1 -->
<g id="edge6" class="edge"><title>Node7&#45;&gt;Node1</title>
<path fill="none" stroke="#9a32cd" stroke-dasharray="5,2" d="M332.243,-112.399C329.802,-91.3152 322.621,-57.3699 301.5,-38 281.559,-19.7115 251.128,-13.3511 227.645,-11.342"/>
<polygon fill="#9a32cd" stroke="#9a32cd" points="328.758,-112.721 333.153,-122.361 335.729,-112.084 328.758,-112.721"/>
<text text-anchor="middle" x="345" y="-68.5" font-family="Helvetica,sans-Serif" font-size="10.00"> fields</text>
</g>
</g>
</svg>
