<?xml version="1.0" encoding="UTF-8" standalone="no"?>
<!DOCTYPE svg PUBLIC "-//W3C//DTD SVG 1.1//EN"
 "http://www.w3.org/Graphics/SVG/1.1/DTD/svg11.dtd">
<!-- Generated by graphviz version 2.43.0 (0)
 -->
<!-- Title: dpp::interaction_create_t Pages: 1 -->
<!--zoomable 1216 -->
<svg id="main" version="1.1" xmlns="http://www.w3.org/2000/svg" xmlns:xlink="http://www.w3.org/1999/xlink" xml:space="preserve" onload="init(evt)">
<style type="text/css"><![CDATA[
.edge:hover path { stroke: red; }
.edge:hover polygon { stroke: red; fill: red; }
]]></style>
<script type="text/javascript"><![CDATA[
var edges = document.getElementsByTagName('g');
if (edges && edges.length) {
  for (var i=0;i<edges.length;i++) {
    if (edges[i].id.substr(0,4)=='edge') {
      edges[i].setAttribute('class','edge');
    }
  }
}
]]></script>
        <defs>
                <circle id="rim" cx="0" cy="0" r="7"/>
                <circle id="rim2" cx="0" cy="0" r="3.5"/>
                <g id="zoomPlus">
                        <use xlink:href="#rim" fill="#404040">
                                <set attributeName="fill" to="#808080" begin="zoomplus.mouseover" end="zoomplus.mouseout"/>
                        </use>
                        <path d="M-4,0h8M0,-4v8" fill="none" stroke="white" stroke-width="1.5" pointer-events="none"/>
                </g>
                <g id="zoomMin">
                        <use xlink:href="#rim" fill="#404040">
                                <set attributeName="fill" to="#808080" begin="zoomminus.mouseover" end="zoomminus.mouseout"/>
                        </use>
                        <path d="M-4,0h8" fill="none" stroke="white" stroke-width="1.5" pointer-events="none"/>
                </g>
                <g id="dirArrow">
                        <path fill="none" stroke="white" stroke-width="1.5" d="M0,-3.0v7 M-2.5,-0.5L0,-3.0L2.5,-0.5"/>
                </g>
               <g id="resetDef">
                       <use xlink:href="#rim2" fill="#404040">
                               <set attributeName="fill" to="#808080" begin="reset.mouseover" end="reset.mouseout"/>
                       </use>
               </g>
        </defs>

<script type="text/javascript">
var viewWidth = 1492;
var viewHeight = 1216;
var sectionId = 'dynsection-1';
</script>
<script xlink:href="svgpan.js"/>
<svg id="graph" class="graph">
<g id="viewport">
<title>dpp::interaction_create_t</title>
<polygon fill="white" stroke="transparent" points="-4,4 -4,-1211.63 1488,-1211.63 1488,4 -4,4"/>
<!-- Node1 -->
<g id="node1" class="node">
<title>Node1</title>
<g id="a_node1"><a xlink:title="Create interaction.">
<polygon fill="#bfbfbf" stroke="black" points="1346,-246.13 1346,-265.13 1484,-265.13 1484,-246.13 1346,-246.13"/>
<text text-anchor="middle" x="1415" y="-253.13" font-family="Helvetica,sans-Serif" font-size="10.00">dpp::interaction_create_t</text>
</a>
</g>
</g>
<!-- Node2 -->
<g id="node2" class="node">
<title>Node2</title>
<g id="a_node2"><a xlink:href="structdpp_1_1event__dispatch__t.html" target="_top" xlink:title="Base event parameter struct.">
<polygon fill="white" stroke="black" points="1185,-615.13 1185,-634.13 1309,-634.13 1309,-615.13 1185,-615.13"/>
<text text-anchor="middle" x="1247" y="-622.13" font-family="Helvetica,sans-Serif" font-size="10.00">dpp::event_dispatch_t</text>
</a>
</g>
</g>
<!-- Node2&#45;&gt;Node1 -->
<g id="edge1" class="edge">
<title>Node2&#45;&gt;Node1</title>
<path fill="none" stroke="midnightblue" d="M1256.68,-605.34C1286.97,-538 1387.41,-314.75 1409.62,-265.36"/>
<polygon fill="midnightblue" stroke="midnightblue" points="1253.35,-604.2 1252.44,-614.76 1259.73,-607.07 1253.35,-604.2"/>
</g>
<!-- Node3 -->
<g id="node3" class="node">
<title>Node3</title>
<g id="a_node3"><a xlink:title=" ">
<polygon fill="white" stroke="#bfbfbf" points="201.5,-860.13 201.5,-879.13 266.5,-879.13 266.5,-860.13 201.5,-860.13"/>
<text text-anchor="middle" x="234" y="-867.13" font-family="Helvetica,sans-Serif" font-size="10.00">std::string</text>
</a>
</g>
</g>
<!-- Node3&#45;&gt;Node2 -->
<g id="edge2" class="edge">
<title>Node3&#45;&gt;Node2</title>
<path fill="none" stroke="#9a32cd" stroke-dasharray="5,2" d="M276.49,-874.26C282.67,-876.56 288.48,-879.88 293,-884.63 320.23,-913.23 281.73,-945.13 311,-971.63 363.01,-1018.72 554.84,-1004.63 625,-1004.63 625,-1004.63 625,-1004.63 1044,-1004.63 1216.96,-1004.63 1242.29,-693.88 1245.56,-634.4"/>
<polygon fill="#9a32cd" stroke="#9a32cd" points="277.16,-870.81 266.58,-871.41 275.22,-877.54 277.16,-870.81"/>
<text text-anchor="middle" x="753.5" y="-1007.63" font-family="Helvetica,sans-Serif" font-size="10.00"> raw_event</text>
</g>
<!-- Node5 -->
<g id="node5" class="node">
<title>Node5</title>
<g id="a_node5"><a xlink:href="classdpp_1_1discord__client.html" target="_top" xlink:title="Implements a discord client. Each discord_client connects to one shard and derives from a websocket c...">
<polygon fill="white" stroke="black" points="989,-615.13 989,-634.13 1097,-634.13 1097,-615.13 989,-615.13"/>
<text text-anchor="middle" x="1043" y="-622.13" font-family="Helvetica,sans-Serif" font-size="10.00">dpp::discord_client</text>
</a>
</g>
</g>
<!-- Node3&#45;&gt;Node5 -->
<g id="edge34" class="edge">
<title>Node3&#45;&gt;Node5</title>
<path fill="none" stroke="#9a32cd" stroke-dasharray="5,2" d="M276.95,-871.13C316.88,-872.15 378.62,-872.67 432,-868.63 489.79,-864.25 505.5,-866.3 561,-849.63 753.48,-791.8 966.94,-669.3 1026.07,-634.21"/>
<polygon fill="#9a32cd" stroke="#9a32cd" points="276.88,-867.62 266.79,-870.84 276.69,-874.62 276.88,-867.62"/>
<text text-anchor="middle" x="626" y="-857.63" font-family="Helvetica,sans-Serif" font-size="10.00"> sessionid</text>
<text text-anchor="middle" x="626" y="-846.63" font-family="Helvetica,sans-Serif" font-size="10.00">token</text>
</g>
<!-- Node7 -->
<g id="node7" class="node">
<title>Node7</title>
<g id="a_node7"><a xlink:href="classdpp_1_1ssl__client.html" target="_top" xlink:title="Implements a simple non&#45;blocking SSL stream client.">
<polygon fill="white" stroke="black" points="462.5,-919.13 462.5,-938.13 548.5,-938.13 548.5,-919.13 462.5,-919.13"/>
<text text-anchor="middle" x="505.5" y="-926.13" font-family="Helvetica,sans-Serif" font-size="10.00">dpp::ssl_client</text>
</a>
</g>
</g>
<!-- Node3&#45;&gt;Node7 -->
<g id="edge7" class="edge">
<title>Node3&#45;&gt;Node7</title>
<path fill="none" stroke="#9a32cd" stroke-dasharray="5,2" d="M271.74,-882.26C284.12,-886.24 298.07,-890.43 311,-893.63 339,-900.55 414.36,-913.59 462.35,-921.65"/>
<polygon fill="#9a32cd" stroke="#9a32cd" points="272.79,-878.93 262.2,-879.14 270.61,-885.58 272.79,-878.93"/>
<text text-anchor="middle" x="371.5" y="-963.63" font-family="Helvetica,sans-Serif" font-size="10.00"> buffer</text>
<text text-anchor="middle" x="371.5" y="-952.63" font-family="Helvetica,sans-Serif" font-size="10.00">cipher</text>
<text text-anchor="middle" x="371.5" y="-941.63" font-family="Helvetica,sans-Serif" font-size="10.00">hostname</text>
<text text-anchor="middle" x="371.5" y="-930.63" font-family="Helvetica,sans-Serif" font-size="10.00">obuffer</text>
<text text-anchor="middle" x="371.5" y="-919.63" font-family="Helvetica,sans-Serif" font-size="10.00">port</text>
</g>
<!-- Node15 -->
<g id="node15" class="node">
<title>Node15</title>
<g id="a_node15"><a xlink:href="classdpp_1_1cluster.html" target="_top" xlink:title="The cluster class represents a group of shards and a command queue for sending and receiving commands...">
<polygon fill="white" stroke="black" points="716.5,-482.13 716.5,-501.13 790.5,-501.13 790.5,-482.13 716.5,-482.13"/>
<text text-anchor="middle" x="753.5" y="-489.13" font-family="Helvetica,sans-Serif" font-size="10.00">dpp::cluster</text>
</a>
</g>
</g>
<!-- Node3&#45;&gt;Node15 -->
<g id="edge16" class="edge">
<title>Node3&#45;&gt;Node15</title>
<path fill="none" stroke="#9a32cd" stroke-dasharray="5,2" d="M276.79,-871.03C318.04,-870.86 382.01,-866.33 432,-843.63 561.89,-784.63 604.79,-756.92 673,-631.63 698.99,-583.88 655.58,-551.88 691,-510.63 697.48,-503.08 706.89,-498.49 716.4,-495.7"/>
<polygon fill="#9a32cd" stroke="#9a32cd" points="276.58,-867.53 266.56,-870.98 276.55,-874.53 276.58,-867.53"/>
<text text-anchor="middle" x="505.5" y="-837.63" font-family="Helvetica,sans-Serif" font-size="10.00"> token</text>
</g>
<!-- Node18 -->
<g id="node18" class="node">
<title>Node18</title>
<g id="a_node18"><a xlink:href="classdpp_1_1user.html" target="_top" xlink:title="Represents a user on discord. May or may not be a member of a dpp::guild.">
<polygon fill="white" stroke="black" points="474.5,-288.13 474.5,-307.13 536.5,-307.13 536.5,-288.13 474.5,-288.13"/>
<text text-anchor="middle" x="505.5" y="-295.13" font-family="Helvetica,sans-Serif" font-size="10.00">dpp::user</text>
</a>
</g>
</g>
<!-- Node3&#45;&gt;Node18 -->
<g id="edge24" class="edge">
<title>Node3&#45;&gt;Node18</title>
<path fill="none" stroke="#9a32cd" stroke-dasharray="5,2" d="M243.83,-850.5C256.9,-821.26 281.15,-763.38 293,-711.63 311.15,-632.4 276.08,-603.03 311,-529.63 343.54,-461.23 386.5,-470.18 432,-409.63 442.04,-396.27 441.24,-390.86 450,-376.63 465.89,-350.8 486.73,-321.77 497.45,-307.14"/>
<polygon fill="#9a32cd" stroke="#9a32cd" points="240.5,-849.36 239.56,-859.91 246.88,-852.25 240.5,-849.36"/>
<text text-anchor="middle" x="371.5" y="-532.63" font-family="Helvetica,sans-Serif" font-size="10.00"> username</text>
</g>
<!-- Node26 -->
<g id="node26" class="node">
<title>Node26</title>
<g id="a_node26"><a xlink:href="classdpp_1_1interaction.html" target="_top" xlink:title="An interaction represents a user running a command and arrives via the dpp::cluster::on_interaction_c...">
<polygon fill="white" stroke="black" points="707,-165.13 707,-184.13 800,-184.13 800,-165.13 707,-165.13"/>
<text text-anchor="middle" x="753.5" y="-172.13" font-family="Helvetica,sans-Serif" font-size="10.00">dpp::interaction</text>
</a>
</g>
</g>
<!-- Node3&#45;&gt;Node26 -->
<g id="edge50" class="edge">
<title>Node3&#45;&gt;Node26</title>
<path fill="none" stroke="#9a32cd" stroke-dasharray="5,2" d="M243.64,-850.45C256.46,-821.15 280.39,-763.2 293,-711.63 300.45,-681.16 290.22,-595.13 311,-571.63 347.77,-530.04 394.74,-581.79 432,-540.63 467.6,-501.3 412.82,-460.47 450,-422.63 520.47,-350.92 595.38,-448.54 673,-384.63 738,-331.1 749.91,-218.4 752.04,-184.49"/>
<polygon fill="#9a32cd" stroke="#9a32cd" points="240.31,-849.33 239.45,-859.89 246.71,-852.16 240.31,-849.33"/>
<text text-anchor="middle" x="505.5" y="-425.63" font-family="Helvetica,sans-Serif" font-size="10.00"> token</text>
</g>
<!-- Node28 -->
<g id="node28" class="node">
<title>Node28</title>
<g id="a_node28"><a xlink:href="classdpp_1_1guild__member.html" target="_top" xlink:title="Represents dpp::user membership upon a dpp::guild.">
<polygon fill="white" stroke="black" points="450,-108.13 450,-127.13 561,-127.13 561,-108.13 450,-108.13"/>
<text text-anchor="middle" x="505.5" y="-115.13" font-family="Helvetica,sans-Serif" font-size="10.00">dpp::guild_member</text>
</a>
</g>
</g>
<!-- Node3&#45;&gt;Node28 -->
<g id="edge44" class="edge">
<title>Node3&#45;&gt;Node28</title>
<path fill="none" stroke="#9a32cd" stroke-dasharray="5,2" d="M244.1,-850.56C257.53,-821.39 282.23,-763.61 293,-711.63 300.16,-677.08 287.64,-421.06 311,-394.63 347.2,-353.67 395.11,-412.96 432,-372.63 461.82,-340.03 431.71,-214.85 450,-174.63 459.07,-154.69 478.09,-137.41 491.08,-127.25"/>
<polygon fill="#9a32cd" stroke="#9a32cd" points="240.78,-849.4 239.71,-859.94 247.12,-852.37 240.78,-849.4"/>
<text text-anchor="middle" x="371.5" y="-397.63" font-family="Helvetica,sans-Serif" font-size="10.00"> nickname</text>
</g>
<!-- Node4 -->
<g id="node4" class="node">
<title>Node4</title>
<g id="a_node4"><a xlink:title=" ">
<polygon fill="white" stroke="#bfbfbf" points="0,-1000.63 0,-1030.63 104,-1030.63 104,-1000.63 0,-1000.63"/>
<text text-anchor="start" x="8" y="-1018.63" font-family="Helvetica,sans-Serif" font-size="10.00">std::basic_string&lt;</text>
<text text-anchor="middle" x="52" y="-1007.63" font-family="Helvetica,sans-Serif" font-size="10.00"> Char &gt;</text>
</a>
</g>
</g>
<!-- Node4&#45;&gt;Node3 -->
<g id="edge3" class="edge">
<title>Node4&#45;&gt;Node3</title>
<path fill="none" stroke="midnightblue" d="M79.52,-994.11C119.25,-961.89 192.59,-902.4 221.17,-879.23"/>
<polygon fill="midnightblue" stroke="midnightblue" points="77.15,-991.54 71.59,-1000.55 81.56,-996.97 77.15,-991.54"/>
</g>
<!-- Node5&#45;&gt;Node2 -->
<g id="edge4" class="edge">
<title>Node5&#45;&gt;Node2</title>
<path fill="none" stroke="#9a32cd" stroke-dasharray="5,2" d="M1107.08,-624.63C1131.83,-624.63 1160.13,-624.63 1184.7,-624.63"/>
<polygon fill="#9a32cd" stroke="#9a32cd" points="1107.07,-621.13 1097.07,-624.63 1107.07,-628.13 1107.07,-621.13"/>
<text text-anchor="middle" x="1141" y="-627.63" font-family="Helvetica,sans-Serif" font-size="10.00"> from</text>
</g>
<!-- Node6 -->
<g id="node6" class="node">
<title>Node6</title>
<g id="a_node6"><a xlink:href="classdpp_1_1websocket__client.html" target="_top" xlink:title="Implements a websocket client based on the SSL client.">
<polygon fill="white" stroke="black" points="691,-911.13 691,-930.13 816,-930.13 816,-911.13 691,-911.13"/>
<text text-anchor="middle" x="753.5" y="-918.13" font-family="Helvetica,sans-Serif" font-size="10.00">dpp::websocket_client</text>
</a>
</g>
</g>
<!-- Node6&#45;&gt;Node5 -->
<g id="edge5" class="edge">
<title>Node6&#45;&gt;Node5</title>
<path fill="none" stroke="midnightblue" d="M817.59,-931.2C865.28,-935.44 929.42,-932.58 971,-896.63 1012.44,-860.8 1035.8,-678.63 1040.92,-634.34"/>
<polygon fill="midnightblue" stroke="midnightblue" points="817.67,-927.69 807.37,-930.17 816.96,-934.66 817.67,-927.69"/>
</g>
<!-- Node7&#45;&gt;Node6 -->
<g id="edge6" class="edge">
<title>Node7&#45;&gt;Node6</title>
<path fill="none" stroke="midnightblue" d="M558.51,-926.94C597.17,-925.68 650.04,-923.96 690.82,-922.63"/>
<polygon fill="midnightblue" stroke="midnightblue" points="558.39,-923.44 548.51,-927.26 558.62,-930.44 558.39,-923.44"/>
</g>
<!-- Node8 -->
<g id="node8" class="node">
<title>Node8</title>
<g id="a_node8"><a xlink:title=" ">
<polygon fill="white" stroke="#bfbfbf" points="215,-1147.13 215,-1166.13 253,-1166.13 253,-1147.13 215,-1147.13"/>
<text text-anchor="middle" x="234" y="-1154.13" font-family="Helvetica,sans-Serif" font-size="10.00">bool</text>
</a>
</g>
</g>
<!-- Node8&#45;&gt;Node5 -->
<g id="edge36" class="edge">
<title>Node8&#45;&gt;Node5</title>
<path fill="none" stroke="#9a32cd" stroke-dasharray="5,2" d="M263.25,-1161.93C302.2,-1168.1 374.16,-1175.34 432,-1157.63 564.84,-1116.96 562.54,-1035.53 691,-982.63 808.11,-934.4 879.6,-1017.3 971,-929.63 1015.43,-887.01 1036.82,-681.05 1041.16,-634.15"/>
<polygon fill="#9a32cd" stroke="#9a32cd" points="263.62,-1158.44 253.18,-1160.24 262.46,-1165.35 263.62,-1158.44"/>
<text text-anchor="middle" x="626" y="-1061.63" font-family="Helvetica,sans-Serif" font-size="10.00"> ready</text>
</g>
<!-- Node8&#45;&gt;Node7 -->
<g id="edge8" class="edge">
<title>Node8&#45;&gt;Node7</title>
<path fill="none" stroke="#9a32cd" stroke-dasharray="5,2" d="M263.33,-1152.8C316.46,-1145.49 426.25,-1129.74 432,-1123.63 458.18,-1095.8 427.48,-983.49 450,-952.63 454.57,-946.36 461.14,-941.71 468.15,-938.26"/>
<polygon fill="#9a32cd" stroke="#9a32cd" points="262.65,-1149.36 253.21,-1154.18 263.6,-1156.3 262.65,-1149.36"/>
<text text-anchor="middle" x="371.5" y="-1148.63" font-family="Helvetica,sans-Serif" font-size="10.00"> nonblocking</text>
</g>
<!-- Node9 -->
<g id="node9" class="node">
<title>Node9</title>
<g id="a_node9"><a xlink:title=" ">
<polygon fill="white" stroke="#bfbfbf" points="219.5,-1069.13 219.5,-1088.13 248.5,-1088.13 248.5,-1069.13 219.5,-1069.13"/>
<text text-anchor="middle" x="234" y="-1076.13" font-family="Helvetica,sans-Serif" font-size="10.00">int</text>
</a>
</g>
</g>
<!-- Node9&#45;&gt;Node7 -->
<g id="edge9" class="edge">
<title>Node9&#45;&gt;Node7</title>
<path fill="none" stroke="#9a32cd" stroke-dasharray="5,2" d="M258.83,-1077.42C308.51,-1074.69 419.61,-1067.34 432,-1055.63 465.78,-1023.71 421.34,-989.21 450,-952.63 454.91,-946.36 461.8,-941.69 469.03,-938.23"/>
<polygon fill="#9a32cd" stroke="#9a32cd" points="258.48,-1073.94 248.68,-1077.97 258.85,-1080.93 258.48,-1073.94"/>
<text text-anchor="middle" x="371.5" y="-1077.63" font-family="Helvetica,sans-Serif" font-size="10.00"> sfd</text>
</g>
<!-- Node10 -->
<g id="node10" class="node">
<title>Node10</title>
<g id="a_node10"><a xlink:title=" ">
<polygon fill="white" stroke="#bfbfbf" points="213,-1031.13 213,-1050.13 255,-1050.13 255,-1031.13 213,-1031.13"/>
<text text-anchor="middle" x="234" y="-1038.13" font-family="Helvetica,sans-Serif" font-size="10.00">SSL *</text>
</a>
</g>
</g>
<!-- Node10&#45;&gt;Node7 -->
<g id="edge10" class="edge">
<title>Node10&#45;&gt;Node7</title>
<path fill="none" stroke="#9a32cd" stroke-dasharray="5,2" d="M265.36,-1041.79C314.3,-1043 407.63,-1042.4 432,-1021.63 456.12,-1001.07 429.45,-976.75 450,-952.63 455.36,-946.33 462.7,-941.63 470.25,-938.13"/>
<polygon fill="#9a32cd" stroke="#9a32cd" points="265.16,-1038.28 255.07,-1041.49 264.96,-1045.28 265.16,-1038.28"/>
<text text-anchor="middle" x="371.5" y="-1045.63" font-family="Helvetica,sans-Serif" font-size="10.00"> ssl</text>
</g>
<!-- Node11 -->
<g id="node11" class="node">
<title>Node11</title>
<g id="a_node11"><a xlink:title=" ">
<polygon fill="white" stroke="#bfbfbf" points="200.5,-1107.13 200.5,-1126.13 267.5,-1126.13 267.5,-1107.13 200.5,-1107.13"/>
<text text-anchor="middle" x="234" y="-1114.13" font-family="Helvetica,sans-Serif" font-size="10.00">SSL_CTX *</text>
</a>
</g>
</g>
<!-- Node11&#45;&gt;Node7 -->
<g id="edge11" class="edge">
<title>Node11&#45;&gt;Node7</title>
<path fill="none" stroke="#9a32cd" stroke-dasharray="5,2" d="M277.85,-1113.5C332.52,-1109.09 421.31,-1100.38 432,-1089.63 475.3,-1046.08 413.16,-1001.77 450,-952.63 454.71,-946.34 461.43,-941.67 468.55,-938.21"/>
<polygon fill="#9a32cd" stroke="#9a32cd" points="277.43,-1110.02 267.74,-1114.3 277.98,-1117 277.43,-1110.02"/>
<text text-anchor="middle" x="371.5" y="-1113.63" font-family="Helvetica,sans-Serif" font-size="10.00"> ctx</text>
</g>
<!-- Node12 -->
<g id="node12" class="node">
<title>Node12</title>
<g id="a_node12"><a xlink:title=" ">
<polygon fill="white" stroke="#bfbfbf" points="210,-473.13 210,-492.13 258,-492.13 258,-473.13 210,-473.13"/>
<text text-anchor="middle" x="234" y="-480.13" font-family="Helvetica,sans-Serif" font-size="10.00">time_t</text>
</a>
</g>
</g>
<!-- Node12&#45;&gt;Node5 -->
<g id="edge31" class="edge">
<title>Node12&#45;&gt;Node5</title>
<path fill="none" stroke="#9a32cd" stroke-dasharray="5,2" d="M268.31,-485.81C307.67,-489.89 375.02,-497.86 432,-509.63 440.13,-511.31 441.93,-512.66 450,-514.63 548.4,-538.64 588.12,-506.35 673,-561.63 684.47,-569.1 679.17,-579.74 691,-586.63 740.26,-615.31 903.23,-622.37 988.67,-624.09"/>
<polygon fill="#9a32cd" stroke="#9a32cd" points="268.52,-482.31 258.22,-484.79 267.82,-489.28 268.52,-482.31"/>
<text text-anchor="middle" x="626" y="-575.63" font-family="Helvetica,sans-Serif" font-size="10.00"> last_heartbeat</text>
<text text-anchor="middle" x="626" y="-564.63" font-family="Helvetica,sans-Serif" font-size="10.00">last_heartbeat_ack</text>
</g>
<!-- Node12&#45;&gt;Node7 -->
<g id="edge12" class="edge">
<title>Node12&#45;&gt;Node7</title>
<path fill="none" stroke="#9a32cd" stroke-dasharray="5,2" d="M241.1,-501.81C251.96,-536.14 275.17,-610.43 293,-673.63 301.61,-704.13 287.68,-721.17 311,-742.63 351.17,-779.58 393.11,-725.33 432,-763.63 462.62,-793.78 432.3,-819.47 450,-858.63 460.91,-882.77 481.76,-906.07 494.27,-918.76"/>
<polygon fill="#9a32cd" stroke="#9a32cd" points="244.39,-500.6 238.03,-492.13 237.72,-502.72 244.39,-500.6"/>
<text text-anchor="middle" x="371.5" y="-766.63" font-family="Helvetica,sans-Serif" font-size="10.00"> last_tick</text>
</g>
<!-- Node12&#45;&gt;Node15 -->
<g id="edge17" class="edge">
<title>Node12&#45;&gt;Node15</title>
<path fill="none" stroke="#9a32cd" stroke-dasharray="5,2" d="M268.32,-478.46C307.95,-474.54 375.81,-471.06 432,-484.63 440.69,-486.73 441.29,-491.57 450,-493.63 498.01,-504.96 511.67,-493.89 561,-493.63 615.03,-493.35 677.63,-492.62 716.15,-492.12"/>
<polygon fill="#9a32cd" stroke="#9a32cd" points="267.74,-475.01 258.16,-479.54 268.48,-481.97 267.74,-475.01"/>
<text text-anchor="middle" x="505.5" y="-502.63" font-family="Helvetica,sans-Serif" font-size="10.00"> last_identify</text>
</g>
<!-- Node12&#45;&gt;Node28 -->
<g id="edge47" class="edge">
<title>Node12&#45;&gt;Node28</title>
<path fill="none" stroke="#9a32cd" stroke-dasharray="5,2" d="M264.32,-467.74C275.13,-460.71 286.36,-451.29 293,-439.63 331.69,-371.68 267.28,-329.45 311,-264.63 345.02,-214.19 386.5,-241.01 432,-200.63 442.51,-191.3 441.12,-185.52 450,-174.63 464.37,-157.02 483.02,-138.28 494.36,-127.28"/>
<polygon fill="#9a32cd" stroke="#9a32cd" points="262.21,-464.92 255.44,-473.07 265.81,-470.92 262.21,-464.92"/>
<text text-anchor="middle" x="371.5" y="-278.63" font-family="Helvetica,sans-Serif" font-size="10.00"> joined_at</text>
<text text-anchor="middle" x="371.5" y="-267.63" font-family="Helvetica,sans-Serif" font-size="10.00">premium_since</text>
</g>
<!-- Node13 -->
<g id="node13" class="node">
<title>Node13</title>
<g id="a_node13"><a xlink:title=" ">
<polygon fill="white" stroke="#bfbfbf" points="24,-260.13 24,-279.13 80,-279.13 80,-260.13 24,-260.13"/>
<text text-anchor="middle" x="52" y="-267.13" font-family="Helvetica,sans-Serif" font-size="10.00">uint64_t</text>
</a>
</g>
</g>
<!-- Node13&#45;&gt;Node5 -->
<g id="edge33" class="edge">
<title>Node13&#45;&gt;Node5</title>
<path fill="none" stroke="#9a32cd" stroke-dasharray="5,2" d="M52.95,-289.33C53.02,-408.59 58.99,-1033.39 175,-1175.63 192.33,-1196.87 205.58,-1196.63 233,-1196.63 233,-1196.63 233,-1196.63 754.5,-1196.63 1016.8,-1196.63 1039.82,-710.51 1041.81,-634.56"/>
<polygon fill="#9a32cd" stroke="#9a32cd" points="56.45,-289.14 52.96,-279.14 49.45,-289.14 56.45,-289.14"/>
<text text-anchor="middle" x="505.5" y="-1199.63" font-family="Helvetica,sans-Serif" font-size="10.00"> last_seq</text>
</g>
<!-- Node13&#45;&gt;Node7 -->
<g id="edge13" class="edge">
<title>Node13&#45;&gt;Node7</title>
<path fill="none" stroke="#9a32cd" stroke-dasharray="5,2" d="M54.81,-289.43C63.73,-383.7 105.43,-786.53 175,-888.63 215.41,-947.92 242.13,-955.48 311,-975.63 362.62,-990.73 383.66,-999.18 432,-975.63 443.67,-969.94 439.75,-960.59 450,-952.63 457.67,-946.66 467.06,-941.84 475.87,-938.13"/>
<polygon fill="#9a32cd" stroke="#9a32cd" points="58.28,-288.93 53.87,-279.29 51.31,-289.58 58.28,-288.93"/>
<text text-anchor="middle" x="234" y="-984.63" font-family="Helvetica,sans-Serif" font-size="10.00"> bytes_in</text>
<text text-anchor="middle" x="234" y="-973.63" font-family="Helvetica,sans-Serif" font-size="10.00">bytes_out</text>
</g>
<!-- Node19 -->
<g id="node19" class="node">
<title>Node19</title>
<g id="a_node19"><a xlink:href="classdpp_1_1managed.html" target="_top" xlink:title="The managed class is the base class for various types that can be stored in a cache that are identifi...">
<polygon fill="white" stroke="black" points="191,-241.13 191,-260.13 277,-260.13 277,-241.13 191,-241.13"/>
<text text-anchor="middle" x="234" y="-248.13" font-family="Helvetica,sans-Serif" font-size="10.00">dpp::managed</text>
</a>
</g>
</g>
<!-- Node13&#45;&gt;Node19 -->
<g id="edge23" class="edge">
<title>Node13&#45;&gt;Node19</title>
<path fill="none" stroke="#9a32cd" stroke-dasharray="5,2" d="M90.17,-259.57C100.41,-257.19 111.57,-254.96 122,-253.63 144.66,-250.72 170.12,-249.87 190.94,-249.78"/>
<polygon fill="#9a32cd" stroke="#9a32cd" points="89.19,-256.2 80.3,-261.97 90.85,-263.01 89.19,-256.2"/>
<text text-anchor="middle" x="139.5" y="-256.63" font-family="Helvetica,sans-Serif" font-size="10.00"> id</text>
</g>
<!-- Node21 -->
<g id="node21" class="node">
<title>Node21</title>
<g id="a_node21"><a xlink:href="structdpp_1_1utility_1_1iconhash.html" target="_top" xlink:title="Store a 128 bit icon hash (profile picture, server icon etc) as a 128 bit binary value made of two ui...">
<polygon fill="white" stroke="black" points="175,-279.13 175,-298.13 293,-298.13 293,-279.13 175,-279.13"/>
<text text-anchor="middle" x="234" y="-286.13" font-family="Helvetica,sans-Serif" font-size="10.00">dpp::utility::iconhash</text>
</a>
</g>
</g>
<!-- Node13&#45;&gt;Node21 -->
<g id="edge27" class="edge">
<title>Node13&#45;&gt;Node21</title>
<path fill="none" stroke="#9a32cd" stroke-dasharray="5,2" d="M90.6,-273.6C114.95,-276.17 147.17,-279.57 174.8,-282.49"/>
<polygon fill="#9a32cd" stroke="#9a32cd" points="90.65,-270.08 80.34,-272.51 89.92,-277.04 90.65,-270.08"/>
<text text-anchor="middle" x="139.5" y="-294.63" font-family="Helvetica,sans-Serif" font-size="10.00"> first</text>
<text text-anchor="middle" x="139.5" y="-283.63" font-family="Helvetica,sans-Serif" font-size="10.00">second</text>
</g>
<!-- Node13&#45;&gt;Node26 -->
<g id="edge40" class="edge">
<title>Node13&#45;&gt;Node26</title>
<path fill="none" stroke="#9a32cd" stroke-dasharray="5,2" d="M56.33,-249.99C65.49,-202.78 95.86,-83.01 175,-31.63 226.35,1.72 249.97,-14.53 311,-9.63 473.78,3.45 536.6,17.17 673,-72.63 710.13,-97.07 737.38,-144.72 747.82,-165.06"/>
<polygon fill="#9a32cd" stroke="#9a32cd" points="52.88,-249.41 54.52,-259.88 59.76,-250.67 52.88,-249.41"/>
<text text-anchor="middle" x="371.5" y="-34.63" font-family="Helvetica,sans-Serif" font-size="10.00"> application_id</text>
<text text-anchor="middle" x="371.5" y="-23.63" font-family="Helvetica,sans-Serif" font-size="10.00">channel_id</text>
<text text-anchor="middle" x="371.5" y="-12.63" font-family="Helvetica,sans-Serif" font-size="10.00">guild_id</text>
</g>
<!-- Node13&#45;&gt;Node28 -->
<g id="edge45" class="edge">
<title>Node13&#45;&gt;Node28</title>
<path fill="none" stroke="#9a32cd" stroke-dasharray="5,2" d="M60.42,-250.28C75.56,-213.94 113.82,-136.37 175,-105.63 221.61,-82.21 368.85,-98.22 449.82,-109.38"/>
<polygon fill="#9a32cd" stroke="#9a32cd" points="57.1,-249.17 56.62,-259.75 63.59,-251.78 57.1,-249.17"/>
<text text-anchor="middle" x="234" y="-119.63" font-family="Helvetica,sans-Serif" font-size="10.00"> guild_id</text>
<text text-anchor="middle" x="234" y="-108.63" font-family="Helvetica,sans-Serif" font-size="10.00">user_id</text>
</g>
<!-- Node14 -->
<g id="node14" class="node">
<title>Node14</title>
<g id="a_node14"><a xlink:title=" ">
<polygon fill="white" stroke="#bfbfbf" points="201.5,-683.13 201.5,-702.13 266.5,-702.13 266.5,-683.13 201.5,-683.13"/>
<text text-anchor="middle" x="234" y="-690.13" font-family="Helvetica,sans-Serif" font-size="10.00">function&lt;</text>
</a>
</g>
</g>
<!-- Node14&#45;&gt;Node7 -->
<g id="edge14" class="edge">
<title>Node14&#45;&gt;Node7</title>
<path fill="none" stroke="#9a32cd" stroke-dasharray="5,2" d="M248.28,-710.36C262.45,-728.49 286.23,-756.73 311,-776.63 359.26,-815.4 384.08,-806.44 432,-845.63 459.84,-868.4 485.89,-902.49 497.77,-918.99"/>
<polygon fill="#9a32cd" stroke="#9a32cd" points="251,-708.16 242.14,-702.36 245.45,-712.42 251,-708.16"/>
<text text-anchor="middle" x="371.5" y="-881.63" font-family="Helvetica,sans-Serif" font-size="10.00"> custom_readable_fd</text>
<text text-anchor="middle" x="371.5" y="-870.63" font-family="Helvetica,sans-Serif" font-size="10.00">custom_readable_ready</text>
<text text-anchor="middle" x="371.5" y="-859.63" font-family="Helvetica,sans-Serif" font-size="10.00">custom_writeable_fd</text>
<text text-anchor="middle" x="371.5" y="-848.63" font-family="Helvetica,sans-Serif" font-size="10.00">custom_writeable_ready</text>
</g>
<!-- Node17 -->
<g id="node17" class="node">
<title>Node17</title>
<g id="a_node17"><a xlink:href="classdpp_1_1dispatcher.html" target="_top" xlink:title="The dispatcher class contains a set of std::functions representing hooked events that the user code i...">
<polygon fill="white" stroke="black" points="459.5,-597.13 459.5,-616.13 551.5,-616.13 551.5,-597.13 459.5,-597.13"/>
<text text-anchor="middle" x="505.5" y="-604.13" font-family="Helvetica,sans-Serif" font-size="10.00">dpp::dispatcher</text>
</a>
</g>
</g>
<!-- Node14&#45;&gt;Node17 -->
<g id="edge20" class="edge">
<title>Node14&#45;&gt;Node17</title>
<path fill="none" stroke="#9a32cd" stroke-dasharray="5,2" d="M242.37,-673.68C253.18,-648.86 275.93,-606.44 311,-588.63 367.1,-560.14 444.16,-582.71 481.86,-597.07"/>
<polygon fill="#9a32cd" stroke="#9a32cd" points="239.06,-672.53 238.47,-683.11 245.52,-675.21 239.06,-672.53"/>
<text text-anchor="start" x="315.5" y="-734.63" font-family="Helvetica,sans-Serif" font-size="10.00"> application_command</text>
<text text-anchor="middle" x="371.5" y="-723.63" font-family="Helvetica,sans-Serif" font-size="10.00">_create</text>
<text text-anchor="start" x="315.5" y="-712.63" font-family="Helvetica,sans-Serif" font-size="10.00">application_command</text>
<text text-anchor="middle" x="371.5" y="-701.63" font-family="Helvetica,sans-Serif" font-size="10.00">_delete</text>
<text text-anchor="start" x="315.5" y="-690.63" font-family="Helvetica,sans-Serif" font-size="10.00">application_command</text>
<text text-anchor="middle" x="371.5" y="-679.63" font-family="Helvetica,sans-Serif" font-size="10.00">_update</text>
<text text-anchor="middle" x="371.5" y="-668.63" font-family="Helvetica,sans-Serif" font-size="10.00">button_click</text>
<text text-anchor="middle" x="371.5" y="-657.63" font-family="Helvetica,sans-Serif" font-size="10.00">channel_create</text>
<text text-anchor="middle" x="371.5" y="-646.63" font-family="Helvetica,sans-Serif" font-size="10.00">channel_delete</text>
<text text-anchor="middle" x="371.5" y="-635.63" font-family="Helvetica,sans-Serif" font-size="10.00">channel_pins_update</text>
<text text-anchor="middle" x="371.5" y="-624.63" font-family="Helvetica,sans-Serif" font-size="10.00">channel_update</text>
<text text-anchor="middle" x="371.5" y="-613.63" font-family="Helvetica,sans-Serif" font-size="10.00">guild_ban_add</text>
<text text-anchor="middle" x="371.5" y="-602.63" font-family="Helvetica,sans-Serif" font-size="10.00">guild_ban_remove</text>
<text text-anchor="middle" x="371.5" y="-591.63" font-family="Helvetica,sans-Serif" font-size="10.00">...</text>
</g>
<!-- Node15&#45;&gt;Node5 -->
<g id="edge15" class="edge">
<title>Node15&#45;&gt;Node5</title>
<path fill="none" stroke="#9a32cd" stroke-dasharray="5,2" d="M800.98,-483.74C847.53,-478.35 919.45,-477.03 971,-508.63 1011.86,-533.68 1032.57,-591.94 1039.39,-614.99"/>
<polygon fill="#9a32cd" stroke="#9a32cd" points="800.36,-480.29 790.88,-485.03 801.24,-487.24 800.36,-480.29"/>
<text text-anchor="middle" x="902.5" y="-511.63" font-family="Helvetica,sans-Serif" font-size="10.00"> creator</text>
</g>
<!-- Node16 -->
<g id="node16" class="node">
<title>Node16</title>
<g id="a_node16"><a xlink:title=" ">
<polygon fill="white" stroke="#bfbfbf" points="206,-411.13 206,-430.13 262,-430.13 262,-411.13 206,-411.13"/>
<text text-anchor="middle" x="234" y="-418.13" font-family="Helvetica,sans-Serif" font-size="10.00">uint32_t</text>
</a>
</g>
</g>
<!-- Node16&#45;&gt;Node5 -->
<g id="edge30" class="edge">
<title>Node16&#45;&gt;Node5</title>
<path fill="none" stroke="#9a32cd" stroke-dasharray="5,2" d="M272.34,-424.61C313.12,-427.47 379.63,-427.72 432,-406.63 441.66,-402.74 441.45,-397.57 450,-391.63 504.26,-353.88 515.13,-334.65 579,-317.63 619.37,-306.87 632.48,-307.44 673,-317.63 818.79,-354.29 867,-369.08 971,-477.63 1011.39,-519.79 1032.75,-589.28 1039.56,-614.82"/>
<polygon fill="#9a32cd" stroke="#9a32cd" points="272.54,-421.11 262.29,-423.81 271.99,-428.09 272.54,-421.11"/>
<text text-anchor="middle" x="626" y="-375.63" font-family="Helvetica,sans-Serif" font-size="10.00"> heartbeat_interval</text>
<text text-anchor="middle" x="626" y="-364.63" font-family="Helvetica,sans-Serif" font-size="10.00">intents</text>
<text text-anchor="middle" x="626" y="-353.63" font-family="Helvetica,sans-Serif" font-size="10.00">max_shards</text>
<text text-anchor="middle" x="626" y="-342.63" font-family="Helvetica,sans-Serif" font-size="10.00">reconnects</text>
<text text-anchor="middle" x="626" y="-331.63" font-family="Helvetica,sans-Serif" font-size="10.00">resumes</text>
<text text-anchor="middle" x="626" y="-320.63" font-family="Helvetica,sans-Serif" font-size="10.00">shard_id</text>
</g>
<!-- Node16&#45;&gt;Node15 -->
<g id="edge18" class="edge">
<title>Node16&#45;&gt;Node15</title>
<path fill="none" stroke="#9a32cd" stroke-dasharray="5,2" d="M271.99,-426.65C284.37,-428.48 298.25,-430.35 311,-431.63 421.73,-442.72 450.9,-429.46 561,-445.63 618,-454 682.93,-471.28 720.66,-482.11"/>
<polygon fill="#9a32cd" stroke="#9a32cd" points="272.43,-423.17 262.01,-425.13 271.37,-430.09 272.43,-423.17"/>
<text text-anchor="middle" x="505.5" y="-481.63" font-family="Helvetica,sans-Serif" font-size="10.00"> cluster_id</text>
<text text-anchor="middle" x="505.5" y="-470.63" font-family="Helvetica,sans-Serif" font-size="10.00">intents</text>
<text text-anchor="middle" x="505.5" y="-459.63" font-family="Helvetica,sans-Serif" font-size="10.00">maxclusters</text>
<text text-anchor="middle" x="505.5" y="-448.63" font-family="Helvetica,sans-Serif" font-size="10.00">numshards</text>
</g>
<!-- Node16&#45;&gt;Node18 -->
<g id="edge28" class="edge">
<title>Node16&#45;&gt;Node18</title>
<path fill="none" stroke="#9a32cd" stroke-dasharray="5,2" d="M252.01,-403.87C266.52,-390.5 288.55,-372.3 311,-361.63 360.85,-337.93 380.04,-352.25 432,-333.63 451.98,-326.47 473.61,-315.23 488,-307.22"/>
<polygon fill="#9a32cd" stroke="#9a32cd" points="249.24,-401.67 244.39,-411.09 254.06,-406.75 249.24,-401.67"/>
<text text-anchor="middle" x="371.5" y="-364.63" font-family="Helvetica,sans-Serif" font-size="10.00"> flags</text>
</g>
<!-- Node17&#45;&gt;Node15 -->
<g id="edge19" class="edge">
<title>Node17&#45;&gt;Node15</title>
<path fill="none" stroke="#9a32cd" stroke-dasharray="5,2" d="M562.06,-615.33C597.96,-617.68 643.33,-614.04 673,-587.63 699.25,-564.26 667.03,-536.33 691,-510.63 697.71,-503.44 707.07,-498.94 716.47,-496.14"/>
<polygon fill="#9a32cd" stroke="#9a32cd" points="561.99,-611.82 551.73,-614.48 561.41,-618.79 561.99,-611.82"/>
<text text-anchor="middle" x="626" y="-619.63" font-family="Helvetica,sans-Serif" font-size="10.00"> dispatch</text>
</g>
<!-- Node18&#45;&gt;Node15 -->
<g id="edge21" class="edge">
<title>Node18&#45;&gt;Node15</title>
<path fill="none" stroke="#9a32cd" stroke-dasharray="5,2" d="M517.63,-315.87C530.43,-335.63 553.04,-367.08 579,-387.63 615.32,-416.38 633.33,-408.72 673,-432.63 698.61,-448.07 726.14,-469.78 741.14,-482.1"/>
<polygon fill="#9a32cd" stroke="#9a32cd" points="520.46,-313.8 512.16,-307.21 514.54,-317.53 520.46,-313.8"/>
<text text-anchor="middle" x="626" y="-435.63" font-family="Helvetica,sans-Serif" font-size="10.00"> me</text>
</g>
<!-- Node18&#45;&gt;Node26 -->
<g id="edge49" class="edge">
<title>Node18&#45;&gt;Node26</title>
<path fill="none" stroke="#9a32cd" stroke-dasharray="5,2" d="M534.89,-283.43C585.53,-258.11 690.17,-205.79 733.29,-184.24"/>
<polygon fill="#9a32cd" stroke="#9a32cd" points="533.18,-280.37 525.8,-287.98 536.31,-286.63 533.18,-280.37"/>
<text text-anchor="middle" x="626" y="-264.63" font-family="Helvetica,sans-Serif" font-size="10.00"> usr</text>
</g>
<!-- Node19&#45;&gt;Node18 -->
<g id="edge22" class="edge">
<title>Node19&#45;&gt;Node18</title>
<path fill="none" stroke="midnightblue" d="M287.13,-259.72C342.78,-269.43 429.06,-284.47 474.37,-292.37"/>
<polygon fill="midnightblue" stroke="midnightblue" points="287.56,-256.24 277.11,-257.97 286.36,-263.14 287.56,-256.24"/>
</g>
<!-- Node19&#45;&gt;Node26 -->
<g id="edge39" class="edge">
<title>Node19&#45;&gt;Node26</title>
<path fill="none" stroke="midnightblue" d="M245.72,-232.3C258.43,-212.58 281.65,-182.34 311,-169.63 380.99,-139.32 608.95,-159.15 706.99,-169.49"/>
<polygon fill="midnightblue" stroke="midnightblue" points="242.61,-230.66 240.34,-241.01 248.57,-234.34 242.61,-230.66"/>
</g>
<!-- Node20 -->
<g id="node20" class="node">
<title>Node20</title>
<g id="a_node20"><a xlink:title=" ">
<polygon fill="white" stroke="#bfbfbf" points="206,-317.13 206,-336.13 262,-336.13 262,-317.13 206,-317.13"/>
<text text-anchor="middle" x="234" y="-324.13" font-family="Helvetica,sans-Serif" font-size="10.00">uint16_t</text>
</a>
</g>
</g>
<!-- Node20&#45;&gt;Node18 -->
<g id="edge25" class="edge">
<title>Node20&#45;&gt;Node18</title>
<path fill="none" stroke="#9a32cd" stroke-dasharray="5,2" d="M272.21,-322.62C326.01,-316.83 424.5,-306.24 474.16,-300.89"/>
<polygon fill="#9a32cd" stroke="#9a32cd" points="271.64,-319.16 262.07,-323.71 272.39,-326.12 271.64,-319.16"/>
<text text-anchor="middle" x="371.5" y="-321.63" font-family="Helvetica,sans-Serif" font-size="10.00"> discriminator</text>
</g>
<!-- Node21&#45;&gt;Node18 -->
<g id="edge26" class="edge">
<title>Node21&#45;&gt;Node18</title>
<path fill="none" stroke="#9a32cd" stroke-dasharray="5,2" d="M303.6,-289.87C341.48,-290.68 389.35,-291.91 432,-293.63 445.86,-294.19 461.19,-295 474.17,-295.75"/>
<polygon fill="#9a32cd" stroke="#9a32cd" points="303.27,-286.36 293.2,-289.65 303.12,-293.36 303.27,-286.36"/>
<text text-anchor="middle" x="371.5" y="-296.63" font-family="Helvetica,sans-Serif" font-size="10.00"> avatar</text>
</g>
<!-- Node22 -->
<g id="node22" class="node">
<title>Node22</title>
<g id="a_node22"><a xlink:title=" ">
<polygon fill="white" stroke="#bfbfbf" points="209,-41.13 209,-60.13 259,-60.13 259,-41.13 209,-41.13"/>
<text text-anchor="middle" x="234" y="-48.13" font-family="Helvetica,sans-Serif" font-size="10.00">uint8_t</text>
</a>
</g>
</g>
<!-- Node22&#45;&gt;Node18 -->
<g id="edge29" class="edge">
<title>Node22&#45;&gt;Node18</title>
<path fill="none" stroke="#9a32cd" stroke-dasharray="5,2" d="M268.78,-58.6C277.74,-62.18 286.66,-67.31 293,-74.63 314.3,-99.24 289.17,-121.48 311,-145.63 349.38,-188.07 386.94,-154.36 432,-189.63 441.2,-196.83 482.92,-263 498.56,-288.06"/>
<polygon fill="#9a32cd" stroke="#9a32cd" points="269.77,-55.24 259.18,-55.29 267.5,-61.86 269.77,-55.24"/>
<text text-anchor="middle" x="371.5" y="-192.63" font-family="Helvetica,sans-Serif" font-size="10.00"> refcount</text>
</g>
<!-- Node22&#45;&gt;Node26 -->
<g id="edge41" class="edge">
<title>Node22&#45;&gt;Node26</title>
<path fill="none" stroke="#9a32cd" stroke-dasharray="5,2" d="M269.11,-47.92C346.1,-43.36 537.17,-40.76 673,-112.63 700.54,-127.2 728.22,-151.48 742.53,-164.93"/>
<polygon fill="#9a32cd" stroke="#9a32cd" points="268.78,-44.44 259.03,-48.57 269.23,-51.42 268.78,-44.44"/>
<text text-anchor="middle" x="505.5" y="-85.63" font-family="Helvetica,sans-Serif" font-size="10.00"> type</text>
<text text-anchor="middle" x="505.5" y="-74.63" font-family="Helvetica,sans-Serif" font-size="10.00">version</text>
</g>
<!-- Node22&#45;&gt;Node28 -->
<g id="edge48" class="edge">
<title>Node22&#45;&gt;Node28</title>
<path fill="none" stroke="#9a32cd" stroke-dasharray="5,2" d="M269.17,-49.62C309.29,-49.48 377.3,-52.54 432,-71.63 455.64,-79.88 479.48,-97.11 493.07,-107.98"/>
<polygon fill="#9a32cd" stroke="#9a32cd" points="269.08,-46.12 259.11,-49.72 269.15,-53.12 269.08,-46.12"/>
<text text-anchor="middle" x="371.5" y="-74.63" font-family="Helvetica,sans-Serif" font-size="10.00"> flags</text>
</g>
<!-- Node23 -->
<g id="node23" class="node">
<title>Node23</title>
<g id="a_node23"><a xlink:title=" ">
<polygon fill="white" stroke="#bfbfbf" points="697,-634.13 697,-653.13 810,-653.13 810,-634.13 697,-634.13"/>
<text text-anchor="middle" x="753.5" y="-641.13" font-family="Helvetica,sans-Serif" font-size="10.00">native_handle_type</text>
</a>
</g>
</g>
<!-- Node23&#45;&gt;Node5 -->
<g id="edge32" class="edge">
<title>Node23&#45;&gt;Node5</title>
<path fill="none" stroke="#9a32cd" stroke-dasharray="5,2" d="M820.54,-639.26C871.59,-635.89 941.32,-631.28 988.81,-628.14"/>
<polygon fill="#9a32cd" stroke="#9a32cd" points="820.02,-635.79 810.27,-639.94 820.48,-642.78 820.02,-635.79"/>
<text text-anchor="middle" x="902.5" y="-641.63" font-family="Helvetica,sans-Serif" font-size="10.00"> thread_id</text>
</g>
<!-- Node24 -->
<g id="node24" class="node">
<title>Node24</title>
<g id="a_node24"><a xlink:title=" ">
<polygon fill="white" stroke="#bfbfbf" points="719,-558.13 719,-577.13 788,-577.13 788,-558.13 719,-558.13"/>
<text text-anchor="middle" x="753.5" y="-565.13" font-family="Helvetica,sans-Serif" font-size="10.00">std::mutex</text>
</a>
</g>
</g>
<!-- Node24&#45;&gt;Node5 -->
<g id="edge35" class="edge">
<title>Node24&#45;&gt;Node5</title>
<path fill="none" stroke="#9a32cd" stroke-dasharray="5,2" d="M798.26,-564.08C842.82,-561.87 913.35,-562.33 971,-580.63 993.94,-587.91 1016.99,-604.25 1030.35,-614.84"/>
<polygon fill="#9a32cd" stroke="#9a32cd" points="797.85,-560.59 788.06,-564.65 798.24,-567.58 797.85,-560.59"/>
<text text-anchor="middle" x="902.5" y="-583.63" font-family="Helvetica,sans-Serif" font-size="10.00"> voice_mutex</text>
</g>
<!-- Node25 -->
<g id="node25" class="node">
<title>Node25</title>
<g id="a_node25"><a xlink:title=" ">
<polygon fill="white" stroke="#bfbfbf" points="703,-520.13 703,-539.13 804,-539.13 804,-520.13 703,-520.13"/>
<text text-anchor="middle" x="753.5" y="-527.13" font-family="Helvetica,sans-Serif" font-size="10.00">unordered_map&lt;</text>
</a>
</g>
</g>
<!-- Node25&#45;&gt;Node5 -->
<g id="edge37" class="edge">
<title>Node25&#45;&gt;Node5</title>
<path fill="none" stroke="#9a32cd" stroke-dasharray="5,2" d="M814.27,-523.7C859.53,-521.78 922.07,-524.78 971,-548.63 1001.84,-563.66 1026.01,-598.24 1036.43,-615.08"/>
<polygon fill="#9a32cd" stroke="#9a32cd" points="813.82,-520.22 804.02,-524.23 814.18,-527.21 813.82,-520.22"/>
<text text-anchor="middle" x="902.5" y="-551.63" font-family="Helvetica,sans-Serif" font-size="10.00"> connecting_voice_channels</text>
</g>
<!-- Node26&#45;&gt;Node1 -->
<g id="edge38" class="edge">
<title>Node26&#45;&gt;Node1</title>
<path fill="none" stroke="#9a32cd" stroke-dasharray="5,2" d="M810.2,-181.47C930.65,-196.26 1215.06,-231.19 1345.93,-247.27"/>
<polygon fill="#9a32cd" stroke="#9a32cd" points="810.44,-177.97 800.09,-180.23 809.59,-184.92 810.44,-177.97"/>
<text text-anchor="middle" x="1141" y="-228.63" font-family="Helvetica,sans-Serif" font-size="10.00"> command</text>
</g>
<!-- Node27 -->
<g id="node27" class="node">
<title>Node27</title>
<g id="a_node27"><a xlink:title=" ">
<polygon fill="white" stroke="#bfbfbf" points="476,-184.13 476,-203.13 535,-203.13 535,-184.13 476,-184.13"/>
<text text-anchor="middle" x="505.5" y="-191.13" font-family="Helvetica,sans-Serif" font-size="10.00">variant&lt;</text>
</a>
</g>
</g>
<!-- Node27&#45;&gt;Node26 -->
<g id="edge42" class="edge">
<title>Node27&#45;&gt;Node26</title>
<path fill="none" stroke="#9a32cd" stroke-dasharray="5,2" d="M545.18,-190.64C589.01,-187.26 660.36,-181.74 706.87,-178.15"/>
<polygon fill="#9a32cd" stroke="#9a32cd" points="544.9,-187.15 535.2,-191.41 545.44,-194.13 544.9,-187.15"/>
<text text-anchor="middle" x="626" y="-191.63" font-family="Helvetica,sans-Serif" font-size="10.00"> data</text>
</g>
<!-- Node28&#45;&gt;Node26 -->
<g id="edge43" class="edge">
<title>Node28&#45;&gt;Node26</title>
<path fill="none" stroke="#9a32cd" stroke-dasharray="5,2" d="M571.52,-116.33C602.78,-117.3 640.44,-120.85 673,-130.63 698.23,-138.2 724.38,-154.62 739.5,-165.12"/>
<polygon fill="#9a32cd" stroke="#9a32cd" points="571.26,-112.82 561.18,-116.09 571.1,-119.82 571.26,-112.82"/>
<text text-anchor="middle" x="626" y="-133.63" font-family="Helvetica,sans-Serif" font-size="10.00"> member</text>
</g>
<!-- Node29 -->
<g id="node29" class="node">
<title>Node29</title>
<g id="a_node29"><a xlink:title=" ">
<polygon fill="white" stroke="#bfbfbf" points="206,-137.13 206,-156.13 262,-156.13 262,-137.13 206,-137.13"/>
<text text-anchor="middle" x="234" y="-144.13" font-family="Helvetica,sans-Serif" font-size="10.00">vector&lt;</text>
</a>
</g>
</g>
<!-- Node29&#45;&gt;Node28 -->
<g id="edge46" class="edge">
<title>Node29&#45;&gt;Node28</title>
<path fill="none" stroke="#9a32cd" stroke-dasharray="5,2" d="M272.19,-137.71C284.48,-135.05 298.27,-132.39 311,-130.63 357.53,-124.2 410.8,-120.92 449.66,-119.26"/>
<polygon fill="#9a32cd" stroke="#9a32cd" points="271.28,-134.33 262.28,-139.92 272.8,-141.16 271.28,-134.33"/>
<text text-anchor="middle" x="371.5" y="-133.63" font-family="Helvetica,sans-Serif" font-size="10.00"> roles</text>
</g>
</g>
</svg>
        <g id="navigator" transform="translate(0 0)" fill="#404254">
                <rect fill="#f2f5e9" fill-opacity="0.5" stroke="#606060" stroke-width=".5" x="0" y="0" width="60" height="60"/>
                <use id="zoomplus" xlink:href="#zoomPlus" x="17" y="9" onmousedown="handleZoom(evt,'in')"/>
                <use id="zoomminus" xlink:href="#zoomMin" x="42" y="9" onmousedown="handleZoom(evt,'out')"/>
                <use id="reset" xlink:href="#resetDef" x="30" y="36" onmousedown="handleReset()"/>
                <g id="arrowUp" xlink:href="#dirArrow" transform="translate(30 24)" onmousedown="handlePan(0,-1)">
                  <use xlink:href="#rim" fill="#404040">
                        <set attributeName="fill" to="#808080" begin="arrowUp.mouseover" end="arrowUp.mouseout"/>
                  </use>
                  <path fill="none" stroke="white" stroke-width="1.5" d="M0,-3.0v7 M-2.5,-0.5L0,-3.0L2.5,-0.5"/>
                </g>
                <g id="arrowRight" xlink:href="#dirArrow" transform="rotate(90) translate(36 -43)" onmousedown="handlePan(1,0)">
                  <use xlink:href="#rim" fill="#404040">
                        <set attributeName="fill" to="#808080" begin="arrowRight.mouseover" end="arrowRight.mouseout"/>
                  </use>
                  <path fill="none" stroke="white" stroke-width="1.5" d="M0,-3.0v7 M-2.5,-0.5L0,-3.0L2.5,-0.5"/>
                </g>
                <g id="arrowDown" xlink:href="#dirArrow" transform="rotate(180) translate(-30 -48)" onmousedown="handlePan(0,1)">
                  <use xlink:href="#rim" fill="#404040">
                        <set attributeName="fill" to="#808080" begin="arrowDown.mouseover" end="arrowDown.mouseout"/>
                  </use>
                  <path fill="none" stroke="white" stroke-width="1.5" d="M0,-3.0v7 M-2.5,-0.5L0,-3.0L2.5,-0.5"/>
                </g>
                <g id="arrowLeft" xlink:href="#dirArrow" transform="rotate(270) translate(-36 17)" onmousedown="handlePan(-1,0)">
                  <use xlink:href="#rim" fill="#404040">
                        <set attributeName="fill" to="#808080" begin="arrowLeft.mouseover" end="arrowLeft.mouseout"/>
                  </use>
                  <path fill="none" stroke="white" stroke-width="1.5" d="M0,-3.0v7 M-2.5,-0.5L0,-3.0L2.5,-0.5"/>
                </g>
        </g>
        <svg viewBox="0 0 15 15" width="100%" height="30px" preserveAspectRatio="xMaxYMin meet">
         <g id="arrow_out" transform="scale(0.3 0.3)">
          <a xlink:href="structdpp_1_1interaction__create__t__coll__graph_org.svg" target="_base">
           <rect id="button" ry="5" rx="5" y="6" x="6" height="38" width="38"
                fill="#f2f5e9" fill-opacity="0.5" stroke="#606060" stroke-width="1.0"/>
           <path id="arrow"
             d="M 11.500037,31.436501 C 11.940474,20.09759 22.043105,11.32322 32.158766,21.979434 L 37.068811,17.246167 C 37.068811,17.246167 37.088388,32 37.088388,32 L 22.160133,31.978069 C 22.160133,31.978069 26.997745,27.140456 26.997745,27.140456 C 18.528582,18.264221 13.291696,25.230495 11.500037,31.436501 z"
             style="fill:#404040;"/>
          </a>
         </g>
        </svg>
</svg>
