<?xml version="1.0" encoding="UTF-8" standalone="no"?>
<!DOCTYPE svg PUBLIC "-//W3C//DTD SVG 1.1//EN"
 "http://www.w3.org/Graphics/SVG/1.1/DTD/svg11.dtd">
<!-- Generated by graphviz version 2.38.0 (20140413.2041)
 -->
<!-- Title: dpp::confirmation_callback_t Pages: 1 -->
<!--zoomable 481 -->
<svg id="main" version="1.1" xmlns="http://www.w3.org/2000/svg" xmlns:xlink="http://www.w3.org/1999/xlink" xml:space="preserve" onload="init(evt)">
<style type="text/css"><![CDATA[
.edge:hover path { stroke: red; }
.edge:hover polygon { stroke: red; fill: red; }
]]></style>
<script type="text/javascript"><![CDATA[
var edges = document.getElementsByTagName('g');
if (edges && edges.length) {
  for (var i=0;i<edges.length;i++) {
    if (edges[i].id.substr(0,4)=='edge') {
      edges[i].setAttribute('class','edge');
    }
  }
}
]]></script>
        <defs>
                <circle id="rim" cx="0" cy="0" r="7"/>
                <circle id="rim2" cx="0" cy="0" r="3.5"/>
                <g id="zoomPlus">
                        <use xlink:href="#rim" fill="#404040">
                                <set attributeName="fill" to="#808080" begin="zoomplus.mouseover" end="zoomplus.mouseout"/>
                        </use>
                        <path d="M-4,0h8M0,-4v8" fill="none" stroke="white" stroke-width="1.5" pointer-events="none"/>
                </g>
                <g id="zoomMin">
                        <use xlink:href="#rim" fill="#404040">
                                <set attributeName="fill" to="#808080" begin="zoomminus.mouseover" end="zoomminus.mouseout"/>
                        </use>
                        <path d="M-4,0h8" fill="none" stroke="white" stroke-width="1.5" pointer-events="none"/>
                </g>
                <g id="dirArrow">
                        <path fill="none" stroke="white" stroke-width="1.5" d="M0,-3.0v7 M-2.5,-0.5L0,-3.0L2.5,-0.5"/>
                </g>
               <g id="resetDef">
                       <use xlink:href="#rim2" fill="#404040">
                               <set attributeName="fill" to="#808080" begin="reset.mouseover" end="reset.mouseout"/>
                       </use>
               </g>
        </defs>

<script type="text/javascript">
var viewWidth = 780;
var viewHeight = 481;
var sectionId = 'dynsection-0';
</script>
<script xlink:href="svgpan.js"/>
<svg id="graph" class="graph">
<g id="viewport">
<title>dpp::confirmation_callback_t</title>
<polygon fill="white" stroke="none" points="-4,4 -4,-477 776,-477 776,4 -4,4"/>
<!-- Node1 -->
<g id="node1" class="node"><title>Node1</title>
<g id="a_node1"><a xlink:title="The results of a REST call wrapped in a convenient struct.">
<polygon fill="#bfbfbf" stroke="black" points="631,-200.5 631,-219.5 772,-219.5 772,-200.5 631,-200.5"/>
<text text-anchor="middle" x="701.5" y="-207.5" font-family="Helvetica,sans-Serif" font-size="10.00">dpp::confirmation_callback_t</text>
</a>
</g>
</g>
<!-- Node2 -->
<g id="node2" class="node"><title>Node2</title>
<g id="a_node2"><a xlink:title=" ">
<polygon fill="white" stroke="#bfbfbf" points="132,-217.5 132,-236.5 192,-236.5 192,-217.5 132,-217.5"/>
<text text-anchor="middle" x="162" y="-224.5" font-family="Helvetica,sans-Serif" font-size="10.00">std::string</text>
</a>
</g>
</g>
<!-- Node2&#45;&gt;Node1 -->
<g id="edge1" class="edge"><title>Node2&#45;&gt;Node1</title>
<path fill="none" stroke="#9a32cd" stroke-dasharray="5,2" d="M202.386,-225.754C292.863,-222.893 516.533,-215.819 630.832,-212.203"/>
<polygon fill="#9a32cd" stroke="#9a32cd" points="202.164,-222.259 192.28,-226.074 202.386,-229.256 202.164,-222.259"/>
<text text-anchor="middle" x="434.5" y="-225" font-family="Helvetica,sans-Serif" font-size="10.00"> type</text>
</g>
<!-- Node4 -->
<g id="node4" class="node"><title>Node4</title>
<g id="a_node4"><a xlink:href="structdpp_1_1http__request__completion__t.html" target="_top" xlink:title="The result of any HTTP request. Contains the headers, vital rate limit figures, and returned request ...">
<polygon fill="white" stroke="black" points="358,-312.5 358,-331.5 511,-331.5 511,-312.5 358,-312.5"/>
<text text-anchor="middle" x="434.5" y="-319.5" font-family="Helvetica,sans-Serif" font-size="10.00">dpp::http_request_completion_t</text>
</a>
</g>
</g>
<!-- Node2&#45;&gt;Node4 -->
<g id="edge7" class="edge"><title>Node2&#45;&gt;Node4</title>
<path fill="none" stroke="#9a32cd" stroke-dasharray="5,2" d="M201.854,-237.135C228.79,-244.446 265.361,-254.941 297,-266 338.348,-280.453 385.361,-300.584 412.023,-312.359"/>
<polygon fill="#9a32cd" stroke="#9a32cd" points="202.599,-233.711 192.033,-234.494 200.781,-240.471 202.599,-233.711"/>
<text text-anchor="middle" x="253.5" y="-280" font-family="Helvetica,sans-Serif" font-size="10.00"> body</text>
<text text-anchor="middle" x="253.5" y="-269" font-family="Helvetica,sans-Serif" font-size="10.00">ratelimit_bucket</text>
</g>
<!-- Node3 -->
<g id="node3" class="node"><title>Node3</title>
<g id="a_node3"><a xlink:title=" ">
<polygon fill="white" stroke="#bfbfbf" points="0,-212 0,-242 95,-242 95,-212 0,-212"/>
<text text-anchor="start" x="8" y="-230" font-family="Helvetica,sans-Serif" font-size="10.00">std::basic_string&lt;</text>
<text text-anchor="middle" x="47.5" y="-219" font-family="Helvetica,sans-Serif" font-size="10.00"> Char &gt;</text>
</a>
</g>
</g>
<!-- Node3&#45;&gt;Node2 -->
<g id="edge2" class="edge"><title>Node3&#45;&gt;Node2</title>
<path fill="none" stroke="midnightblue" d="M105.526,-227C114.678,-227 123.803,-227 131.931,-227"/>
<polygon fill="midnightblue" stroke="midnightblue" points="105.233,-223.5 95.2328,-227 105.233,-230.5 105.233,-223.5"/>
</g>
<!-- Node4&#45;&gt;Node1 -->
<g id="edge3" class="edge"><title>Node4&#45;&gt;Node1</title>
<path fill="none" stroke="#9a32cd" stroke-dasharray="5,2" d="M467.584,-308.44C521.958,-285.459 630.881,-239.424 677.963,-219.525"/>
<polygon fill="#9a32cd" stroke="#9a32cd" points="465.942,-305.334 458.094,-312.451 468.667,-311.782 465.942,-305.334"/>
<text text-anchor="middle" x="592.5" y="-265" font-family="Helvetica,sans-Serif" font-size="10.00"> http_info</text>
</g>
<!-- Node5 -->
<g id="node5" class="node"><title>Node5</title>
<g id="a_node5"><a xlink:title=" ">
<polygon fill="white" stroke="#bfbfbf" points="141.5,-453.5 141.5,-472.5 182.5,-472.5 182.5,-453.5 141.5,-453.5"/>
<text text-anchor="middle" x="162" y="-460.5" font-family="Helvetica,sans-Serif" font-size="10.00">map&lt;</text>
</a>
</g>
</g>
<!-- Node5&#45;&gt;Node4 -->
<g id="edge4" class="edge"><title>Node5&#45;&gt;Node4</title>
<path fill="none" stroke="#9a32cd" stroke-dasharray="5,2" d="M192.523,-460.033C220.555,-456.34 263.3,-448.396 297,-432 351.735,-405.369 404.26,-353.21 424.62,-331.665"/>
<polygon fill="#9a32cd" stroke="#9a32cd" points="192.052,-456.564 182.549,-461.248 192.899,-463.513 192.052,-456.564"/>
<text text-anchor="middle" x="253.5" y="-459" font-family="Helvetica,sans-Serif" font-size="10.00"> headers</text>
</g>
<!-- Node6 -->
<g id="node6" class="node"><title>Node6</title>
<g id="a_node6"><a xlink:title=" ">
<polygon fill="white" stroke="#bfbfbf" points="136.5,-415.5 136.5,-434.5 187.5,-434.5 187.5,-415.5 136.5,-415.5"/>
<text text-anchor="middle" x="162" y="-422.5" font-family="Helvetica,sans-Serif" font-size="10.00">uint16_t</text>
</a>
</g>
</g>
<!-- Node6&#45;&gt;Node4 -->
<g id="edge5" class="edge"><title>Node6&#45;&gt;Node4</title>
<path fill="none" stroke="#9a32cd" stroke-dasharray="5,2" d="M197.737,-420.256C225.248,-415.844 264.346,-408.103 297,-396 344.013,-378.574 394.768,-347.406 419.009,-331.664"/>
<polygon fill="#9a32cd" stroke="#9a32cd" points="197.15,-416.805 187.799,-421.786 198.215,-423.724 197.15,-416.805"/>
<text text-anchor="middle" x="253.5" y="-420" font-family="Helvetica,sans-Serif" font-size="10.00"> status</text>
</g>
<!-- Node7 -->
<g id="node7" class="node"><title>Node7</title>
<g id="a_node7"><a xlink:title=" ">
<polygon fill="white" stroke="#bfbfbf" points="133,-377.5 133,-396.5 191,-396.5 191,-377.5 133,-377.5"/>
<text text-anchor="middle" x="162" y="-384.5" font-family="Helvetica,sans-Serif" font-size="10.00">http_error</text>
</a>
</g>
</g>
<!-- Node7&#45;&gt;Node4 -->
<g id="edge6" class="edge"><title>Node7&#45;&gt;Node4</title>
<path fill="none" stroke="#9a32cd" stroke-dasharray="5,2" d="M201.427,-383.026C228.396,-379.809 265.181,-374.561 297,-367 336.813,-357.539 381.636,-341.732 408.71,-331.592"/>
<polygon fill="#9a32cd" stroke="#9a32cd" points="200.774,-379.578 191.24,-384.2 201.575,-386.532 200.774,-379.578"/>
<text text-anchor="middle" x="253.5" y="-384" font-family="Helvetica,sans-Serif" font-size="10.00"> error</text>
</g>
<!-- Node8 -->
<g id="node8" class="node"><title>Node8</title>
<g id="a_node8"><a xlink:title=" ">
<polygon fill="white" stroke="#bfbfbf" points="136.5,-314.5 136.5,-333.5 187.5,-333.5 187.5,-314.5 136.5,-314.5"/>
<text text-anchor="middle" x="162" y="-321.5" font-family="Helvetica,sans-Serif" font-size="10.00">uint64_t</text>
</a>
</g>
</g>
<!-- Node8&#45;&gt;Node4 -->
<g id="edge8" class="edge"><title>Node8&#45;&gt;Node4</title>
<path fill="none" stroke="#9a32cd" stroke-dasharray="5,2" d="M198.223,-323.186C202.196,-323.114 206.185,-323.049 210,-323 259.275,-322.366 314.665,-322.115 357.976,-322.023"/>
<polygon fill="#9a32cd" stroke="#9a32cd" points="197.807,-319.694 187.878,-323.393 197.946,-326.692 197.807,-319.694"/>
<text text-anchor="middle" x="253.5" y="-359" font-family="Helvetica,sans-Serif" font-size="10.00"> ratelimit_limit</text>
<text text-anchor="middle" x="253.5" y="-348" font-family="Helvetica,sans-Serif" font-size="10.00">ratelimit_remaining</text>
<text text-anchor="middle" x="253.5" y="-337" font-family="Helvetica,sans-Serif" font-size="10.00">ratelimit_reset_after</text>
<text text-anchor="middle" x="253.5" y="-326" font-family="Helvetica,sans-Serif" font-size="10.00">ratelimit_retry_after</text>
</g>
<!-- Node9 -->
<g id="node9" class="node"><title>Node9</title>
<g id="a_node9"><a xlink:title=" ">
<polygon fill="white" stroke="#bfbfbf" points="144.5,-276.5 144.5,-295.5 179.5,-295.5 179.5,-276.5 144.5,-276.5"/>
<text text-anchor="middle" x="162" y="-283.5" font-family="Helvetica,sans-Serif" font-size="10.00">bool</text>
</a>
</g>
</g>
<!-- Node9&#45;&gt;Node4 -->
<g id="edge9" class="edge"><title>Node9&#45;&gt;Node4</title>
<path fill="none" stroke="#9a32cd" stroke-dasharray="5,2" d="M189.453,-289.521C229.1,-294.797 305.334,-304.943 362.096,-312.497"/>
<polygon fill="#9a32cd" stroke="#9a32cd" points="189.888,-286.048 179.514,-288.198 188.965,-292.987 189.888,-286.048"/>
<text text-anchor="middle" x="253.5" y="-305" font-family="Helvetica,sans-Serif" font-size="10.00"> ratelimit_global</text>
</g>
<!-- Node10 -->
<g id="node10" class="node"><title>Node10</title>
<g id="a_node10"><a xlink:title=" ">
<polygon fill="white" stroke="#bfbfbf" points="315,-0.5 315,-173.5 554,-173.5 554,-0.5 315,-0.5"/>
<text text-anchor="start" x="323" y="-161.5" font-family="Helvetica,sans-Serif" font-size="10.00">variant&lt; confirmation,</text>
<text text-anchor="start" x="323" y="-150.5" font-family="Helvetica,sans-Serif" font-size="10.00"> message, message_map,</text>
<text text-anchor="start" x="323" y="-139.5" font-family="Helvetica,sans-Serif" font-size="10.00"> user, user_map, guild</text>
<text text-anchor="start" x="323" y="-128.5" font-family="Helvetica,sans-Serif" font-size="10.00">_member, guild_member_map,</text>
<text text-anchor="start" x="323" y="-117.5" font-family="Helvetica,sans-Serif" font-size="10.00"> channel, channel_map, thread</text>
<text text-anchor="start" x="323" y="-106.5" font-family="Helvetica,sans-Serif" font-size="10.00">_member_map, guild, guild_map,</text>
<text text-anchor="start" x="323" y="-95.5" font-family="Helvetica,sans-Serif" font-size="10.00"> role, role_map, invite, invite</text>
<text text-anchor="start" x="323" y="-84.5" font-family="Helvetica,sans-Serif" font-size="10.00">_map, dtemplate, dtemplate_map,</text>
<text text-anchor="start" x="323" y="-73.5" font-family="Helvetica,sans-Serif" font-size="10.00"> emoji, emoji_map, ban, ban_map,</text>
<text text-anchor="start" x="323" y="-62.5" font-family="Helvetica,sans-Serif" font-size="10.00"> voiceregion, voiceregion_map, integration,</text>
<text text-anchor="start" x="323" y="-51.5" font-family="Helvetica,sans-Serif" font-size="10.00"> integration_map, webhook, webhook_map,</text>
<text text-anchor="start" x="323" y="-40.5" font-family="Helvetica,sans-Serif" font-size="10.00"> prune, guild_widget, gateway, interaction,</text>
<text text-anchor="start" x="323" y="-29.5" font-family="Helvetica,sans-Serif" font-size="10.00"> interaction_response, auditlog, slashcommand,</text>
<text text-anchor="start" x="323" y="-18.5" font-family="Helvetica,sans-Serif" font-size="10.00"> slashcommand_map, sticker, sticker_map, sticker</text>
<text text-anchor="middle" x="434.5" y="-7.5" font-family="Helvetica,sans-Serif" font-size="10.00">_pack, sticker_pack_map &gt;</text>
</a>
</g>
</g>
<!-- Node10&#45;&gt;Node1 -->
<g id="edge10" class="edge"><title>Node10&#45;&gt;Node1</title>
<path fill="none" stroke="#9a32cd" stroke-dasharray="5,2" d="M563.345,-146.34C608.41,-167.256 654.193,-188.506 679.809,-200.396"/>
<polygon fill="#9a32cd" stroke="#9a32cd" points="564.593,-143.06 554.048,-142.024 561.645,-149.409 564.593,-143.06"/>
<text text-anchor="middle" x="592.5" y="-169" font-family="Helvetica,sans-Serif" font-size="10.00"> value</text>
</g>
</g>
</svg>
        <g id="navigator" transform="translate(0 0)" fill="#404254">
                <rect fill="#f2f5e9" fill-opacity="0.5" stroke="#606060" stroke-width=".5" x="0" y="0" width="60" height="60"/>
                <use id="zoomplus" xlink:href="#zoomPlus" x="17" y="9" onmousedown="handleZoom(evt,'in')"/>
                <use id="zoomminus" xlink:href="#zoomMin" x="42" y="9" onmousedown="handleZoom(evt,'out')"/>
                <use id="reset" xlink:href="#resetDef" x="30" y="36" onmousedown="handleReset()"/>
                <g id="arrowUp" xlink:href="#dirArrow" transform="translate(30 24)" onmousedown="handlePan(0,-1)">
                  <use xlink:href="#rim" fill="#404040">
                        <set attributeName="fill" to="#808080" begin="arrowUp.mouseover" end="arrowUp.mouseout"/>
                  </use>
                  <path fill="none" stroke="white" stroke-width="1.5" d="M0,-3.0v7 M-2.5,-0.5L0,-3.0L2.5,-0.5"/>
                </g>
                <g id="arrowRight" xlink:href="#dirArrow" transform="rotate(90) translate(36 -43)" onmousedown="handlePan(1,0)">
                  <use xlink:href="#rim" fill="#404040">
                        <set attributeName="fill" to="#808080" begin="arrowRight.mouseover" end="arrowRight.mouseout"/>
                  </use>
                  <path fill="none" stroke="white" stroke-width="1.5" d="M0,-3.0v7 M-2.5,-0.5L0,-3.0L2.5,-0.5"/>
                </g>
                <g id="arrowDown" xlink:href="#dirArrow" transform="rotate(180) translate(-30 -48)" onmousedown="handlePan(0,1)">
                  <use xlink:href="#rim" fill="#404040">
                        <set attributeName="fill" to="#808080" begin="arrowDown.mouseover" end="arrowDown.mouseout"/>
                  </use>
                  <path fill="none" stroke="white" stroke-width="1.5" d="M0,-3.0v7 M-2.5,-0.5L0,-3.0L2.5,-0.5"/>
                </g>
                <g id="arrowLeft" xlink:href="#dirArrow" transform="rotate(270) translate(-36 17)" onmousedown="handlePan(-1,0)">
                  <use xlink:href="#rim" fill="#404040">
                        <set attributeName="fill" to="#808080" begin="arrowLeft.mouseover" end="arrowLeft.mouseout"/>
                  </use>
                  <path fill="none" stroke="white" stroke-width="1.5" d="M0,-3.0v7 M-2.5,-0.5L0,-3.0L2.5,-0.5"/>
                </g>
        </g>
        <svg viewBox="0 0 15 15" width="100%" height="30px" preserveAspectRatio="xMaxYMin meet">
         <g id="arrow_out" transform="scale(0.3 0.3)">
          <a xlink:href="structdpp_1_1confirmation__callback__t__coll__graph_org.svg" target="_base">
           <rect id="button" ry="5" rx="5" y="6" x="6" height="38" width="38"
                fill="#f2f5e9" fill-opacity="0.5" stroke="#606060" stroke-width="1.0"/>
           <path id="arrow"
             d="M 11.500037,31.436501 C 11.940474,20.09759 22.043105,11.32322 32.158766,21.979434 L 37.068811,17.246167 C 37.068811,17.246167 37.088388,32 37.088388,32 L 22.160133,31.978069 C 22.160133,31.978069 26.997745,27.140456 26.997745,27.140456 C 18.528582,18.264221 13.291696,25.230495 11.500037,31.436501 z"
             style="fill:#404040;"/>
          </a>
         </g>
        </svg>
</svg>
