<?xml version="1.0" encoding="UTF-8" standalone="no"?>
<!DOCTYPE svg PUBLIC "-//W3C//DTD SVG 1.1//EN"
 "http://www.w3.org/Graphics/SVG/1.1/DTD/svg11.dtd">
<!-- Generated by graphviz version 2.43.0 (0)
 -->
<!-- Title: dpp::websocket_client Pages: 1 -->
<svg width="650pt" height="264pt"
 viewBox="0.00 0.00 650.00 264.00" xmlns="http://www.w3.org/2000/svg" xmlns:xlink="http://www.w3.org/1999/xlink">
<g id="graph0" class="graph" transform="scale(1 1) rotate(0) translate(4 260)">
<title>dpp::websocket_client</title>
<!-- Node1 -->
<g id="node1" class="node">
<title>Node1</title>
<g id="a_node1"><a xlink:title="Implements a websocket client based on the SSL client.">
<polygon fill="#bfbfbf" stroke="black" points="222.5,-0.5 222.5,-19.5 347.5,-19.5 347.5,-0.5 222.5,-0.5"/>
<text text-anchor="middle" x="285" y="-7.5" font-family="Helvetica,sans-Serif" font-size="10.00">dpp::websocket_client</text>
</a>
</g>
</g>
<!-- Node2 -->
<g id="node2" class="node">
<title>Node2</title>
<g id="a_node2"><a xlink:href="classdpp_1_1ssl__client.html" target="_top" xlink:title="Implements a simple non&#45;blocking SSL stream client.">
<polygon fill="none" stroke="black" points="242,-57.5 242,-76.5 328,-76.5 328,-57.5 242,-57.5"/>
<text text-anchor="middle" x="285" y="-64.5" font-family="Helvetica,sans-Serif" font-size="10.00">dpp::ssl_client</text>
</a>
</g>
</g>
<!-- Node2&#45;&gt;Node1 -->
<g id="edge1" class="edge">
<title>Node2&#45;&gt;Node1</title>
<path fill="none" stroke="midnightblue" d="M285,-47.12C285,-37.82 285,-27.06 285,-19.71"/>
<polygon fill="midnightblue" stroke="midnightblue" points="281.5,-47.41 285,-57.41 288.5,-47.41 281.5,-47.41"/>
</g>
<!-- Node3 -->
<g id="node3" class="node">
<title>Node3</title>
<g id="a_node3"><a xlink:title=" ">
<polygon fill="none" stroke="#bfbfbf" points="19.5,-168.5 19.5,-187.5 84.5,-187.5 84.5,-168.5 19.5,-168.5"/>
<text text-anchor="middle" x="52" y="-175.5" font-family="Helvetica,sans-Serif" font-size="10.00">std::string</text>
</a>
</g>
</g>
<!-- Node3&#45;&gt;Node2 -->
<g id="edge2" class="edge">
<title>Node3&#45;&gt;Node2</title>
<path fill="none" stroke="#9a32cd" stroke-dasharray="5,2" d="M50.95,-158.43C50.98,-139.53 54.27,-110.83 72,-95 96.33,-73.28 186.93,-68.64 241.83,-67.87"/>
<polygon fill="#9a32cd" stroke="#9a32cd" points="47.45,-158.6 51.23,-168.49 54.45,-158.4 47.45,-158.6"/>
<text text-anchor="middle" x="96.5" y="-142" font-family="Helvetica,sans-Serif" font-size="10.00"> buffer</text>
<text text-anchor="middle" x="96.5" y="-131" font-family="Helvetica,sans-Serif" font-size="10.00">cipher</text>
<text text-anchor="middle" x="96.5" y="-120" font-family="Helvetica,sans-Serif" font-size="10.00">hostname</text>
<text text-anchor="middle" x="96.5" y="-109" font-family="Helvetica,sans-Serif" font-size="10.00">obuffer</text>
<text text-anchor="middle" x="96.5" y="-98" font-family="Helvetica,sans-Serif" font-size="10.00">port</text>
</g>
<!-- Node4 -->
<g id="node4" class="node">
<title>Node4</title>
<g id="a_node4"><a xlink:title=" ">
<polygon fill="none" stroke="#bfbfbf" points="0,-225.5 0,-255.5 104,-255.5 104,-225.5 0,-225.5"/>
<text text-anchor="start" x="8" y="-243.5" font-family="Helvetica,sans-Serif" font-size="10.00">std::basic_string&lt;</text>
<text text-anchor="middle" x="52" y="-232.5" font-family="Helvetica,sans-Serif" font-size="10.00"> Char &gt;</text>
</a>
</g>
</g>
<!-- Node4&#45;&gt;Node3 -->
<g id="edge3" class="edge">
<title>Node4&#45;&gt;Node3</title>
<path fill="none" stroke="midnightblue" d="M52,-215.35C52,-205.51 52,-194.78 52,-187.54"/>
<polygon fill="midnightblue" stroke="midnightblue" points="48.5,-215.47 52,-225.47 55.5,-215.47 48.5,-215.47"/>
</g>
<!-- Node5 -->
<g id="node5" class="node">
<title>Node5</title>
<g id="a_node5"><a xlink:title=" ">
<polygon fill="none" stroke="#bfbfbf" points="105,-168.5 105,-187.5 143,-187.5 143,-168.5 105,-168.5"/>
<text text-anchor="middle" x="124" y="-175.5" font-family="Helvetica,sans-Serif" font-size="10.00">bool</text>
</a>
</g>
</g>
<!-- Node5&#45;&gt;Node2 -->
<g id="edge4" class="edge">
<title>Node5&#45;&gt;Node2</title>
<path fill="none" stroke="#9a32cd" stroke-dasharray="5,2" d="M123.92,-158.32C124.9,-139.56 129.46,-111.19 147,-95 160.64,-82.42 206.73,-75.26 241.93,-71.52"/>
<polygon fill="#9a32cd" stroke="#9a32cd" points="120.42,-158.25 123.68,-168.32 127.42,-158.41 120.42,-158.25"/>
<text text-anchor="middle" x="178.5" y="-120" font-family="Helvetica,sans-Serif" font-size="10.00"> nonblocking</text>
</g>
<!-- Node6 -->
<g id="node6" class="node">
<title>Node6</title>
<g id="a_node6"><a xlink:title=" ">
<polygon fill="none" stroke="#bfbfbf" points="161,-168.5 161,-187.5 217,-187.5 217,-168.5 161,-168.5"/>
<text text-anchor="middle" x="189" y="-175.5" font-family="Helvetica,sans-Serif" font-size="10.00">SOCKET</text>
</a>
</g>
</g>
<!-- Node6&#45;&gt;Node2 -->
<g id="edge5" class="edge">
<title>Node6&#45;&gt;Node2</title>
<path fill="none" stroke="#9a32cd" stroke-dasharray="5,2" d="M203.33,-160.73C224.02,-137.24 261.55,-94.62 277.5,-76.51"/>
<polygon fill="#9a32cd" stroke="#9a32cd" points="200.52,-158.63 196.53,-168.45 205.77,-163.26 200.52,-158.63"/>
<text text-anchor="middle" x="268.5" y="-120" font-family="Helvetica,sans-Serif" font-size="10.00"> sfd</text>
</g>
<!-- Node7 -->
<g id="node7" class="node">
<title>Node7</title>
<g id="a_node7"><a xlink:title=" ">
<polygon fill="none" stroke="#bfbfbf" points="235.5,-168.5 235.5,-187.5 334.5,-187.5 334.5,-168.5 235.5,-168.5"/>
<text text-anchor="middle" x="285" y="-175.5" font-family="Helvetica,sans-Serif" font-size="10.00">opensslcontext *</text>
</a>
</g>
</g>
<!-- Node7&#45;&gt;Node2 -->
<g id="edge6" class="edge">
<title>Node7&#45;&gt;Node2</title>
<path fill="none" stroke="#9a32cd" stroke-dasharray="5,2" d="M285,-158.19C285,-134.28 285,-93.99 285,-76.51"/>
<polygon fill="#9a32cd" stroke="#9a32cd" points="281.5,-158.45 285,-168.45 288.5,-158.45 281.5,-158.45"/>
<text text-anchor="middle" x="293.5" y="-120" font-family="Helvetica,sans-Serif" font-size="10.00"> ssl</text>
</g>
<!-- Node8 -->
<g id="node8" class="node">
<title>Node8</title>
<g id="a_node8"><a xlink:title=" ">
<polygon fill="none" stroke="#bfbfbf" points="353,-168.5 353,-187.5 401,-187.5 401,-168.5 353,-168.5"/>
<text text-anchor="middle" x="377" y="-175.5" font-family="Helvetica,sans-Serif" font-size="10.00">time_t</text>
</a>
</g>
</g>
<!-- Node8&#45;&gt;Node2 -->
<g id="edge7" class="edge">
<title>Node8&#45;&gt;Node2</title>
<path fill="none" stroke="#9a32cd" stroke-dasharray="5,2" d="M363.27,-160.73C343.44,-137.24 307.47,-94.62 292.19,-76.51"/>
<polygon fill="#9a32cd" stroke="#9a32cd" points="360.66,-163.06 369.78,-168.45 366.01,-158.55 360.66,-163.06"/>
<text text-anchor="middle" x="374.5" y="-120" font-family="Helvetica,sans-Serif" font-size="10.00"> last_tick</text>
</g>
<!-- Node9 -->
<g id="node9" class="node">
<title>Node9</title>
<g id="a_node9"><a xlink:title=" ">
<polygon fill="none" stroke="#bfbfbf" points="419,-168.5 419,-187.5 475,-187.5 475,-168.5 419,-168.5"/>
<text text-anchor="middle" x="447" y="-175.5" font-family="Helvetica,sans-Serif" font-size="10.00">uint64_t</text>
</a>
</g>
</g>
<!-- Node9&#45;&gt;Node2 -->
<g id="edge8" class="edge">
<title>Node9&#45;&gt;Node2</title>
<path fill="none" stroke="#9a32cd" stroke-dasharray="5,2" d="M441.61,-158.7C435.1,-139.83 422.27,-110.97 401,-95 380.17,-79.35 351.74,-72.57 328.24,-69.71"/>
<polygon fill="#9a32cd" stroke="#9a32cd" points="438.29,-159.79 444.67,-168.25 444.95,-157.66 438.29,-159.79"/>
<text text-anchor="middle" x="462.5" y="-125.5" font-family="Helvetica,sans-Serif" font-size="10.00"> bytes_in</text>
<text text-anchor="middle" x="462.5" y="-114.5" font-family="Helvetica,sans-Serif" font-size="10.00">bytes_out</text>
</g>
<!-- Node10 -->
<g id="node10" class="node">
<title>Node10</title>
<g id="a_node10"><a xlink:title=" ">
<polygon fill="none" stroke="#bfbfbf" points="493.5,-168.5 493.5,-187.5 558.5,-187.5 558.5,-168.5 493.5,-168.5"/>
<text text-anchor="middle" x="526" y="-175.5" font-family="Helvetica,sans-Serif" font-size="10.00">function&lt;</text>
</a>
</g>
</g>
<!-- Node10&#45;&gt;Node2 -->
<g id="edge9" class="edge">
<title>Node10&#45;&gt;Node2</title>
<path fill="none" stroke="#9a32cd" stroke-dasharray="5,2" d="M523.46,-158.44C519.8,-139.32 511.1,-110.25 491,-95 466.14,-76.15 380.8,-70.44 328.08,-68.73"/>
<polygon fill="#9a32cd" stroke="#9a32cd" points="520.01,-159.05 525.08,-168.36 526.92,-157.92 520.01,-159.05"/>
<text text-anchor="middle" x="581.5" y="-136.5" font-family="Helvetica,sans-Serif" font-size="10.00"> custom_readable_fd</text>
<text text-anchor="middle" x="581.5" y="-125.5" font-family="Helvetica,sans-Serif" font-size="10.00">custom_readable_ready</text>
<text text-anchor="middle" x="581.5" y="-114.5" font-family="Helvetica,sans-Serif" font-size="10.00">custom_writeable_fd</text>
<text text-anchor="middle" x="581.5" y="-103.5" font-family="Helvetica,sans-Serif" font-size="10.00">custom_writeable_ready</text>
</g>
</g>
</svg>
