<?xml version="1.0" encoding="UTF-8" standalone="no"?>
<!DOCTYPE svg PUBLIC "-//W3C//DTD SVG 1.1//EN"
 "http://www.w3.org/Graphics/SVG/1.1/DTD/svg11.dtd">
<!-- Generated by graphviz version 2.43.0 (0)
 -->
<!-- Title: dpp::voice_client_disconnect_t Pages: 1 -->
<svg width="1519pt" height="1150pt"
 viewBox="0.00 0.00 1519.00 1150.00" xmlns="http://www.w3.org/2000/svg" xmlns:xlink="http://www.w3.org/1999/xlink">
<g id="graph0" class="graph" transform="scale(1 1) rotate(0) translate(4 1146)">
<title>dpp::voice_client_disconnect_t</title>
<polygon fill="white" stroke="transparent" points="-4,4 -4,-1146 1515,-1146 1515,4 -4,4"/>
<!-- Node1 -->
<g id="node1" class="node">
<title>Node1</title>
<g id="a_node1"><a xlink:title="voice client disconnect event">
<polygon fill="#bfbfbf" stroke="black" points="1345,-151.5 1345,-170.5 1511,-170.5 1511,-151.5 1345,-151.5"/>
<text text-anchor="middle" x="1428" y="-158.5" font-family="Helvetica,sans-Serif" font-size="10.00">dpp::voice_client_disconnect_t</text>
</a>
</g>
</g>
<!-- Node2 -->
<g id="node2" class="node">
<title>Node2</title>
<g id="a_node2"><a xlink:href="structdpp_1_1event__dispatch__t.html" target="_top" xlink:title="Base event parameter struct. Each event you receive from the library will have its parameter derived ...">
<polygon fill="white" stroke="black" points="1184,-151.5 1184,-170.5 1308,-170.5 1308,-151.5 1184,-151.5"/>
<text text-anchor="middle" x="1246" y="-158.5" font-family="Helvetica,sans-Serif" font-size="10.00">dpp::event_dispatch_t</text>
</a>
</g>
</g>
<!-- Node2&#45;&gt;Node1 -->
<g id="edge1" class="edge">
<title>Node2&#45;&gt;Node1</title>
<path fill="none" stroke="midnightblue" d="M1318.32,-161C1327.06,-161 1336.05,-161 1344.94,-161"/>
<polygon fill="midnightblue" stroke="midnightblue" points="1318.19,-157.5 1308.19,-161 1318.19,-164.5 1318.19,-157.5"/>
</g>
<!-- Node3 -->
<g id="node3" class="node">
<title>Node3</title>
<g id="a_node3"><a xlink:title=" ">
<polygon fill="white" stroke="#bfbfbf" points="206.5,-545.5 206.5,-564.5 271.5,-564.5 271.5,-545.5 206.5,-545.5"/>
<text text-anchor="middle" x="239" y="-552.5" font-family="Helvetica,sans-Serif" font-size="10.00">std::string</text>
</a>
</g>
</g>
<!-- Node3&#45;&gt;Node2 -->
<g id="edge2" class="edge">
<title>Node3&#45;&gt;Node2</title>
<path fill="none" stroke="#9a32cd" stroke-dasharray="5,2" d="M272.06,-541.56C286.8,-535.68 304.62,-529 321,-524 373.79,-507.87 404.8,-536.78 442,-496 481.9,-452.25 422.61,-409.91 460,-364 641.57,-141.07 1033.12,-144.65 1183.99,-155.2"/>
<polygon fill="#9a32cd" stroke="#9a32cd" points="270.36,-538.47 262.4,-545.47 272.99,-544.96 270.36,-538.47"/>
<text text-anchor="middle" x="777.5" y="-204" font-family="Helvetica,sans-Serif" font-size="10.00"> raw_event</text>
</g>
<!-- Node5 -->
<g id="node5" class="node">
<title>Node5</title>
<g id="a_node5"><a xlink:href="classdpp_1_1discord__client.html" target="_top" xlink:title="Implements a discord client. Each discord_client connects to one shard and derives from a websocket c...">
<polygon fill="white" stroke="black" points="1013,-487.5 1013,-506.5 1121,-506.5 1121,-487.5 1013,-487.5"/>
<text text-anchor="middle" x="1067" y="-494.5" font-family="Helvetica,sans-Serif" font-size="10.00">dpp::discord_client</text>
</a>
</g>
</g>
<!-- Node3&#45;&gt;Node5 -->
<g id="edge39" class="edge">
<title>Node3&#45;&gt;Node5</title>
<path fill="none" stroke="#9a32cd" stroke-dasharray="5,2" d="M281.76,-550.54C337.56,-544.2 430.74,-532.11 442,-521 473.83,-489.59 431.92,-456.8 460,-422 502.29,-369.59 533.94,-377.14 600,-364 781.12,-327.97 994.24,-451.5 1051.33,-487.46"/>
<polygon fill="#9a32cd" stroke="#9a32cd" points="281.36,-547.07 271.81,-551.66 282.14,-554.02 281.36,-547.07"/>
<text text-anchor="middle" x="648.5" y="-378" font-family="Helvetica,sans-Serif" font-size="10.00"> sessionid</text>
<text text-anchor="middle" x="648.5" y="-367" font-family="Helvetica,sans-Serif" font-size="10.00">token</text>
</g>
<!-- Node7 -->
<g id="node7" class="node">
<title>Node7</title>
<g id="a_node7"><a xlink:href="classdpp_1_1ssl__client.html" target="_top" xlink:title="Implements a simple non&#45;blocking SSL stream client.">
<polygon fill="white" stroke="black" points="478,-861.5 478,-880.5 564,-880.5 564,-861.5 478,-861.5"/>
<text text-anchor="middle" x="521" y="-868.5" font-family="Helvetica,sans-Serif" font-size="10.00">dpp::ssl_client</text>
</a>
</g>
</g>
<!-- Node3&#45;&gt;Node7 -->
<g id="edge7" class="edge">
<title>Node3&#45;&gt;Node7</title>
<path fill="none" stroke="#9a32cd" stroke-dasharray="5,2" d="M281.55,-560.77C289.57,-563.61 297.25,-567.81 303,-574 328.09,-601.03 301.03,-624 321,-655 357.44,-711.57 396.53,-696.4 442,-746 476.74,-783.9 505.01,-839.34 515.56,-861.42"/>
<polygon fill="#9a32cd" stroke="#9a32cd" points="282.28,-557.34 271.71,-557.93 280.35,-564.06 282.28,-557.34"/>
<text text-anchor="middle" x="381.5" y="-793" font-family="Helvetica,sans-Serif" font-size="10.00"> buffer</text>
<text text-anchor="middle" x="381.5" y="-782" font-family="Helvetica,sans-Serif" font-size="10.00">cipher</text>
<text text-anchor="middle" x="381.5" y="-771" font-family="Helvetica,sans-Serif" font-size="10.00">hostname</text>
<text text-anchor="middle" x="381.5" y="-760" font-family="Helvetica,sans-Serif" font-size="10.00">obuffer</text>
<text text-anchor="middle" x="381.5" y="-749" font-family="Helvetica,sans-Serif" font-size="10.00">port</text>
</g>
<!-- Node16 -->
<g id="node16" class="node">
<title>Node16</title>
<g id="a_node16"><a xlink:href="classdpp_1_1cluster.html" target="_top" xlink:title="The cluster class represents a group of shards and a command queue for sending and receiving commands...">
<polygon fill="white" stroke="black" points="740.5,-487.5 740.5,-506.5 814.5,-506.5 814.5,-487.5 740.5,-487.5"/>
<text text-anchor="middle" x="777.5" y="-494.5" font-family="Helvetica,sans-Serif" font-size="10.00">dpp::cluster</text>
</a>
</g>
</g>
<!-- Node3&#45;&gt;Node16 -->
<g id="edge17" class="edge">
<title>Node3&#45;&gt;Node16</title>
<path fill="none" stroke="#9a32cd" stroke-dasharray="5,2" d="M281.99,-556.49C323.12,-557.16 387.38,-556.12 442,-546 450.29,-544.46 451.79,-541.91 460,-540 563.54,-515.98 591.69,-522.4 697,-508 711.22,-506.06 726.87,-503.9 740.49,-502.01"/>
<polygon fill="#9a32cd" stroke="#9a32cd" points="281.87,-552.99 271.8,-556.28 281.72,-559.99 281.87,-552.99"/>
<text text-anchor="middle" x="521" y="-543" font-family="Helvetica,sans-Serif" font-size="10.00"> token</text>
</g>
<!-- Node21 -->
<g id="node21" class="node">
<title>Node21</title>
<g id="a_node21"><a xlink:href="classdpp_1_1user.html" target="_top" xlink:title="Represents a user on discord. May or may not be a member of a dpp::guild.">
<polygon fill="white" stroke="black" points="490,-230.5 490,-249.5 552,-249.5 552,-230.5 490,-230.5"/>
<text text-anchor="middle" x="521" y="-237.5" font-family="Helvetica,sans-Serif" font-size="10.00">dpp::user</text>
</a>
</g>
</g>
<!-- Node3&#45;&gt;Node21 -->
<g id="edge26" class="edge">
<title>Node3&#45;&gt;Node21</title>
<path fill="none" stroke="#9a32cd" stroke-dasharray="5,2" d="M255.27,-537.29C270.31,-521.06 294.78,-497.67 321,-485 370.28,-461.18 404.74,-502.11 442,-462 465.9,-436.27 445.37,-336.92 460,-305 470.69,-281.69 492.96,-261.13 507.16,-249.65"/>
<polygon fill="#9a32cd" stroke="#9a32cd" points="252.4,-535.26 248.31,-545.04 257.6,-539.94 252.4,-535.26"/>
<text text-anchor="middle" x="381.5" y="-488" font-family="Helvetica,sans-Serif" font-size="10.00"> username</text>
</g>
<!-- Node32 -->
<g id="node32" class="node">
<title>Node32</title>
<g id="a_node32"><a xlink:href="classdpp_1_1discord__voice__client.html" target="_top" xlink:title="Implements a discord voice connection. Each discord_voice_client connects to one voice channel and de...">
<polygon fill="white" stroke="black" points="1013.5,-778 1013.5,-808 1120.5,-808 1120.5,-778 1013.5,-778"/>
<text text-anchor="start" x="1021.5" y="-796" font-family="Helvetica,sans-Serif" font-size="10.00">dpp::discord_voice</text>
<text text-anchor="middle" x="1067" y="-785" font-family="Helvetica,sans-Serif" font-size="10.00">_client</text>
</a>
</g>
</g>
<!-- Node3&#45;&gt;Node32 -->
<g id="edge52" class="edge">
<title>Node3&#45;&gt;Node32</title>
<path fill="none" stroke="#9a32cd" stroke-dasharray="5,2" d="M281.44,-561.5C289.33,-564.3 296.99,-568.3 303,-574 320.13,-590.26 303.53,-608.11 321,-624 362.07,-661.35 401.16,-617.4 442,-655 459.99,-671.57 442.4,-690.01 460,-707 522.77,-767.6 849.93,-783.3 858,-784 910.75,-788.61 971.24,-790.89 1013.34,-792"/>
<polygon fill="#9a32cd" stroke="#9a32cd" points="282.37,-558.13 271.79,-558.65 280.38,-564.84 282.37,-558.13"/>
<text text-anchor="middle" x="648.5" y="-785" font-family="Helvetica,sans-Serif" font-size="10.00"> sessionid</text>
<text text-anchor="middle" x="648.5" y="-774" font-family="Helvetica,sans-Serif" font-size="10.00">token</text>
</g>
<!-- Node4 -->
<g id="node4" class="node">
<title>Node4</title>
<g id="a_node4"><a xlink:title=" ">
<polygon fill="white" stroke="#bfbfbf" points="0,-846 0,-876 104,-876 104,-846 0,-846"/>
<text text-anchor="start" x="8" y="-864" font-family="Helvetica,sans-Serif" font-size="10.00">std::basic_string&lt;</text>
<text text-anchor="middle" x="52" y="-853" font-family="Helvetica,sans-Serif" font-size="10.00"> Char &gt;</text>
</a>
</g>
</g>
<!-- Node4&#45;&gt;Node3 -->
<g id="edge3" class="edge">
<title>Node4&#45;&gt;Node3</title>
<path fill="none" stroke="midnightblue" d="M56.43,-835.92C65.35,-780.37 94.5,-646.17 175,-574 183.68,-566.22 195.44,-561.63 206.45,-558.91"/>
<polygon fill="midnightblue" stroke="midnightblue" points="52.95,-835.53 54.9,-845.94 59.87,-836.58 52.95,-835.53"/>
</g>
<!-- Node5&#45;&gt;Node2 -->
<g id="edge4" class="edge">
<title>Node5&#45;&gt;Node2</title>
<path fill="none" stroke="#9a32cd" stroke-dasharray="5,2" d="M1077.9,-478.21C1110.75,-415.85 1215.45,-217.09 1239.87,-170.73"/>
<polygon fill="#9a32cd" stroke="#9a32cd" points="1074.67,-476.83 1073.11,-487.31 1080.86,-480.09 1074.67,-476.83"/>
<text text-anchor="middle" x="1152.5" y="-363" font-family="Helvetica,sans-Serif" font-size="10.00"> from</text>
</g>
<!-- Node6 -->
<g id="node6" class="node">
<title>Node6</title>
<g id="a_node6"><a xlink:href="classdpp_1_1websocket__client.html" target="_top" xlink:title="Implements a websocket client based on the SSL client.">
<polygon fill="white" stroke="black" points="715,-724.5 715,-743.5 840,-743.5 840,-724.5 715,-724.5"/>
<text text-anchor="middle" x="777.5" y="-731.5" font-family="Helvetica,sans-Serif" font-size="10.00">dpp::websocket_client</text>
</a>
</g>
</g>
<!-- Node6&#45;&gt;Node5 -->
<g id="edge5" class="edge">
<title>Node6&#45;&gt;Node5</title>
<path fill="none" stroke="midnightblue" d="M850.63,-742.04C896.78,-743.2 955.24,-736.75 995,-704 1058.34,-651.82 1065.34,-540.33 1065.98,-506.76"/>
<polygon fill="midnightblue" stroke="midnightblue" points="850.51,-738.53 840.38,-741.65 850.24,-745.53 850.51,-738.53"/>
</g>
<!-- Node6&#45;&gt;Node32 -->
<g id="edge46" class="edge">
<title>Node6&#45;&gt;Node32</title>
<path fill="none" stroke="midnightblue" d="M818.27,-746.44C830.89,-750.13 844.96,-754 858,-757 910.32,-769.06 970.87,-779.1 1013.11,-785.49"/>
<polygon fill="midnightblue" stroke="midnightblue" points="819.08,-743.03 808.5,-743.53 817.08,-749.74 819.08,-743.03"/>
</g>
<!-- Node7&#45;&gt;Node6 -->
<g id="edge6" class="edge">
<title>Node7&#45;&gt;Node6</title>
<path fill="none" stroke="midnightblue" d="M574.44,-874.4C612.37,-874.1 662.76,-867.63 697,-840 713.44,-826.73 703.34,-813.62 715,-796 728.89,-775.02 750.63,-755.18 764.19,-743.82"/>
<polygon fill="midnightblue" stroke="midnightblue" points="574.12,-870.9 564.1,-874.34 574.08,-877.9 574.12,-870.9"/>
</g>
<!-- Node8 -->
<g id="node8" class="node">
<title>Node8</title>
<g id="a_node8"><a xlink:title=" ">
<polygon fill="white" stroke="#bfbfbf" points="220,-1037.5 220,-1056.5 258,-1056.5 258,-1037.5 220,-1037.5"/>
<text text-anchor="middle" x="239" y="-1044.5" font-family="Helvetica,sans-Serif" font-size="10.00">bool</text>
</a>
</g>
</g>
<!-- Node8&#45;&gt;Node5 -->
<g id="edge42" class="edge">
<title>Node8&#45;&gt;Node5</title>
<path fill="none" stroke="#9a32cd" stroke-dasharray="5,2" d="M268.28,-1048.71C307.94,-1050.29 381.96,-1050.24 442,-1033 458.73,-1028.19 984,-751.5 995,-738 1054.78,-664.62 1064.23,-542.48 1065.72,-506.97"/>
<polygon fill="#9a32cd" stroke="#9a32cd" points="268.42,-1045.21 258.27,-1048.25 268.1,-1052.21 268.42,-1045.21"/>
<text text-anchor="middle" x="648.5" y="-953" font-family="Helvetica,sans-Serif" font-size="10.00"> ready</text>
</g>
<!-- Node8&#45;&gt;Node7 -->
<g id="edge8" class="edge">
<title>Node8&#45;&gt;Node7</title>
<path fill="none" stroke="#9a32cd" stroke-dasharray="5,2" d="M267.71,-1037.61C283.26,-1032.55 303.07,-1026.46 321,-1022 374.12,-1008.8 399.33,-1033.29 442,-999 457.83,-986.28 450.14,-974.75 460,-957 476.27,-927.72 500.15,-896.1 512.29,-880.63"/>
<polygon fill="#9a32cd" stroke="#9a32cd" points="266.57,-1034.3 258.17,-1040.75 268.77,-1040.94 266.57,-1034.3"/>
<text text-anchor="middle" x="381.5" y="-1025" font-family="Helvetica,sans-Serif" font-size="10.00"> nonblocking</text>
</g>
<!-- Node8&#45;&gt;Node32 -->
<g id="edge48" class="edge">
<title>Node8&#45;&gt;Node32</title>
<path fill="none" stroke="#9a32cd" stroke-dasharray="5,2" d="M267.89,-1052.59C307.1,-1059.53 380.59,-1069.17 442,-1058 700.35,-1011.02 766.87,-980.04 995,-850 1015.6,-838.26 1036.43,-820.71 1050.16,-808.19"/>
<polygon fill="#9a32cd" stroke="#9a32cd" points="268.48,-1049.14 258.01,-1050.77 267.21,-1056.02 268.48,-1049.14"/>
<text text-anchor="middle" x="648.5" y="-1049" font-family="Helvetica,sans-Serif" font-size="10.00"> decode_voice_recv</text>
<text text-anchor="middle" x="648.5" y="-1038" font-family="Helvetica,sans-Serif" font-size="10.00">sodium_initialised</text>
<text text-anchor="middle" x="648.5" y="-1027" font-family="Helvetica,sans-Serif" font-size="10.00">terminating</text>
</g>
<!-- Node9 -->
<g id="node9" class="node">
<title>Node9</title>
<g id="a_node9"><a xlink:title=" ">
<polygon fill="white" stroke="#bfbfbf" points="224.5,-876.5 224.5,-895.5 253.5,-895.5 253.5,-876.5 224.5,-876.5"/>
<text text-anchor="middle" x="239" y="-883.5" font-family="Helvetica,sans-Serif" font-size="10.00">int</text>
</a>
</g>
</g>
<!-- Node9&#45;&gt;Node7 -->
<g id="edge9" class="edge">
<title>Node9&#45;&gt;Node7</title>
<path fill="none" stroke="#9a32cd" stroke-dasharray="5,2" d="M263.71,-884.73C311.13,-882.19 418.25,-876.45 477.89,-873.26"/>
<polygon fill="#9a32cd" stroke="#9a32cd" points="263.3,-881.25 253.5,-885.28 263.68,-888.24 263.3,-881.25"/>
<text text-anchor="middle" x="381.5" y="-885" font-family="Helvetica,sans-Serif" font-size="10.00"> sfd</text>
</g>
<!-- Node10 -->
<g id="node10" class="node">
<title>Node10</title>
<g id="a_node10"><a xlink:href="classdpp_1_1opensslcontext.html" target="_top" xlink:title="This is an opaque class containing openssl library specific structures. We define it this way so that...">
<polygon fill="white" stroke="black" points="181.5,-977.5 181.5,-996.5 296.5,-996.5 296.5,-977.5 181.5,-977.5"/>
<text text-anchor="middle" x="239" y="-984.5" font-family="Helvetica,sans-Serif" font-size="10.00">dpp::opensslcontext</text>
</a>
</g>
</g>
<!-- Node10&#45;&gt;Node7 -->
<g id="edge10" class="edge">
<title>Node10&#45;&gt;Node7</title>
<path fill="none" stroke="#9a32cd" stroke-dasharray="5,2" d="M306.85,-985.08C356.45,-982.67 419.25,-977.23 442,-965 478.79,-945.22 505.15,-900.22 515.34,-880.52"/>
<polygon fill="#9a32cd" stroke="#9a32cd" points="306.64,-981.59 296.81,-985.54 306.96,-988.58 306.64,-981.59"/>
<text text-anchor="middle" x="381.5" y="-987" font-family="Helvetica,sans-Serif" font-size="10.00"> ssl</text>
</g>
<!-- Node11 -->
<g id="node11" class="node">
<title>Node11</title>
<g id="a_node11"><a xlink:title=" ">
<polygon fill="white" stroke="#bfbfbf" points="31,-958.5 31,-977.5 73,-977.5 73,-958.5 31,-958.5"/>
<text text-anchor="middle" x="52" y="-965.5" font-family="Helvetica,sans-Serif" font-size="10.00">SSL *</text>
</a>
</g>
</g>
<!-- Node11&#45;&gt;Node10 -->
<g id="edge11" class="edge">
<title>Node11&#45;&gt;Node10</title>
<path fill="none" stroke="#9a32cd" stroke-dasharray="5,2" d="M83.52,-968.48C104.29,-969.05 132.37,-970.29 157,-973 167.21,-974.12 178.09,-975.72 188.45,-977.44"/>
<polygon fill="#9a32cd" stroke="#9a32cd" points="83.47,-964.98 73.38,-968.24 83.3,-971.98 83.47,-964.98"/>
<text text-anchor="middle" x="139.5" y="-976" font-family="Helvetica,sans-Serif" font-size="10.00"> ssl</text>
</g>
<!-- Node12 -->
<g id="node12" class="node">
<title>Node12</title>
<g id="a_node12"><a xlink:title=" ">
<polygon fill="white" stroke="#bfbfbf" points="18.5,-996.5 18.5,-1015.5 85.5,-1015.5 85.5,-996.5 18.5,-996.5"/>
<text text-anchor="middle" x="52" y="-1003.5" font-family="Helvetica,sans-Serif" font-size="10.00">SSL_CTX *</text>
</a>
</g>
</g>
<!-- Node12&#45;&gt;Node10 -->
<g id="edge12" class="edge">
<title>Node12&#45;&gt;Node10</title>
<path fill="none" stroke="#9a32cd" stroke-dasharray="5,2" d="M95.73,-1001.61C121.18,-999 153.79,-995.65 181.37,-992.82"/>
<polygon fill="#9a32cd" stroke="#9a32cd" points="95.24,-998.14 85.65,-1002.65 95.95,-1005.11 95.24,-998.14"/>
<text text-anchor="middle" x="139.5" y="-1001" font-family="Helvetica,sans-Serif" font-size="10.00"> ctx</text>
</g>
<!-- Node13 -->
<g id="node13" class="node">
<title>Node13</title>
<g id="a_node13"><a xlink:title=" ">
<polygon fill="white" stroke="#bfbfbf" points="215,-770.5 215,-789.5 263,-789.5 263,-770.5 215,-770.5"/>
<text text-anchor="middle" x="239" y="-777.5" font-family="Helvetica,sans-Serif" font-size="10.00">time_t</text>
</a>
</g>
</g>
<!-- Node13&#45;&gt;Node5 -->
<g id="edge36" class="edge">
<title>Node13&#45;&gt;Node5</title>
<path fill="none" stroke="#9a32cd" stroke-dasharray="5,2" d="M273.11,-776.63C313.21,-772.37 382.74,-764.46 442,-755 456.26,-752.72 686.43,-714.83 697,-705 719.27,-684.3 693.15,-660.14 715,-639 761.95,-593.57 794.21,-619.1 858,-605 918.68,-591.59 941.17,-608.06 995,-577 1025.56,-559.37 1049.87,-523.84 1060.37,-506.69"/>
<polygon fill="#9a32cd" stroke="#9a32cd" points="272.68,-773.15 263.1,-777.68 273.41,-780.11 272.68,-773.15"/>
<text text-anchor="middle" x="648.5" y="-742" font-family="Helvetica,sans-Serif" font-size="10.00"> last_heartbeat</text>
<text text-anchor="middle" x="648.5" y="-731" font-family="Helvetica,sans-Serif" font-size="10.00">last_heartbeat_ack</text>
</g>
<!-- Node13&#45;&gt;Node7 -->
<g id="edge13" class="edge">
<title>Node13&#45;&gt;Node7</title>
<path fill="none" stroke="#9a32cd" stroke-dasharray="5,2" d="M272.82,-791.04C287.46,-795.73 304.99,-801.02 321,-805 374.12,-818.2 390.5,-809.44 442,-828 465.71,-836.54 490.85,-851.64 505.99,-861.48"/>
<polygon fill="#9a32cd" stroke="#9a32cd" points="273.79,-787.68 263.2,-787.92 271.63,-794.33 273.79,-787.68"/>
<text text-anchor="middle" x="381.5" y="-831" font-family="Helvetica,sans-Serif" font-size="10.00"> last_tick</text>
</g>
<!-- Node13&#45;&gt;Node16 -->
<g id="edge18" class="edge">
<title>Node13&#45;&gt;Node16</title>
<path fill="none" stroke="#9a32cd" stroke-dasharray="5,2" d="M250.74,-761.62C264.49,-739.52 290.25,-702.58 321,-680 374.55,-640.68 396.23,-643.63 460,-625 485.75,-617.48 677.19,-597.09 697,-579 718.19,-559.65 695.04,-537.61 715,-517 721.8,-509.98 731.08,-505.43 740.37,-502.47"/>
<polygon fill="#9a32cd" stroke="#9a32cd" points="247.63,-760 245.45,-770.37 253.62,-763.62 247.63,-760"/>
<text text-anchor="middle" x="521" y="-628" font-family="Helvetica,sans-Serif" font-size="10.00"> last_identify</text>
</g>
<!-- Node13&#45;&gt;Node32 -->
<g id="edge50" class="edge">
<title>Node13&#45;&gt;Node32</title>
<path fill="none" stroke="#9a32cd" stroke-dasharray="5,2" d="M273.41,-783.81C366.08,-794.14 634.23,-822.6 858,-832 918.84,-834.55 936.02,-847.13 995,-832 1013.12,-827.35 1031.57,-817.01 1045.13,-808.14"/>
<polygon fill="#9a32cd" stroke="#9a32cd" points="273.57,-780.3 263.25,-782.67 272.79,-787.26 273.57,-780.3"/>
<text text-anchor="middle" x="648.5" y="-826" font-family="Helvetica,sans-Serif" font-size="10.00"> last_heartbeat</text>
</g>
<!-- Node14 -->
<g id="node14" class="node">
<title>Node14</title>
<g id="a_node14"><a xlink:title=" ">
<polygon fill="white" stroke="#bfbfbf" points="24,-243.5 24,-262.5 80,-262.5 80,-243.5 24,-243.5"/>
<text text-anchor="middle" x="52" y="-250.5" font-family="Helvetica,sans-Serif" font-size="10.00">uint64_t</text>
</a>
</g>
</g>
<!-- Node14&#45;&gt;Node1 -->
<g id="edge54" class="edge">
<title>Node14&#45;&gt;Node1</title>
<path fill="none" stroke="#9a32cd" stroke-dasharray="5,2" d="M57.23,-233.41C71.32,-174.02 122.47,0 238,0 238,0 238,0 1247,0 1338.4,0 1404.66,-116.75 1422.32,-151.41"/>
<polygon fill="#9a32cd" stroke="#9a32cd" points="53.77,-232.86 54.96,-243.39 60.59,-234.42 53.77,-232.86"/>
<text text-anchor="middle" x="777.5" y="-3" font-family="Helvetica,sans-Serif" font-size="10.00"> user_id</text>
</g>
<!-- Node14&#45;&gt;Node5 -->
<g id="edge38" class="edge">
<title>Node14&#45;&gt;Node5</title>
<path fill="none" stroke="#9a32cd" stroke-dasharray="5,2" d="M60.14,-233.8C74.99,-196.95 113.11,-117.03 175,-84 305.58,-14.3 697.72,-81.17 840,-122 911.16,-142.42 946.79,-126.81 995,-183 1036.22,-231.04 1060.08,-439.87 1065.03,-487.37"/>
<polygon fill="#9a32cd" stroke="#9a32cd" points="56.78,-232.78 56.41,-243.37 63.3,-235.32 56.78,-232.78"/>
<text text-anchor="middle" x="521" y="-74" font-family="Helvetica,sans-Serif" font-size="10.00"> last_seq</text>
</g>
<!-- Node14&#45;&gt;Node7 -->
<g id="edge14" class="edge">
<title>Node14&#45;&gt;Node7</title>
<path fill="none" stroke="#9a32cd" stroke-dasharray="5,2" d="M54.7,-272.56C62.77,-360.73 99.87,-720.21 175,-799 195.87,-820.89 390.36,-851.92 477.78,-864.91"/>
<polygon fill="#9a32cd" stroke="#9a32cd" points="58.19,-272.23 53.81,-262.58 51.22,-272.85 58.19,-272.23"/>
<text text-anchor="middle" x="239" y="-850" font-family="Helvetica,sans-Serif" font-size="10.00"> bytes_in</text>
<text text-anchor="middle" x="239" y="-839" font-family="Helvetica,sans-Serif" font-size="10.00">bytes_out</text>
</g>
<!-- Node22 -->
<g id="node22" class="node">
<title>Node22</title>
<g id="a_node22"><a xlink:href="classdpp_1_1managed.html" target="_top" xlink:title="The managed class is the base class for various types that can be stored in a cache that are identifi...">
<polygon fill="white" stroke="black" points="196,-223.5 196,-242.5 282,-242.5 282,-223.5 196,-223.5"/>
<text text-anchor="middle" x="239" y="-230.5" font-family="Helvetica,sans-Serif" font-size="10.00">dpp::managed</text>
</a>
</g>
</g>
<!-- Node14&#45;&gt;Node22 -->
<g id="edge25" class="edge">
<title>Node14&#45;&gt;Node22</title>
<path fill="none" stroke="#9a32cd" stroke-dasharray="5,2" d="M90.14,-248.61C100.46,-247.41 111.66,-246.13 122,-245 146.45,-242.32 173.82,-239.48 195.84,-237.24"/>
<polygon fill="#9a32cd" stroke="#9a32cd" points="89.72,-245.13 80.19,-249.77 90.53,-252.09 89.72,-245.13"/>
<text text-anchor="middle" x="139.5" y="-248" font-family="Helvetica,sans-Serif" font-size="10.00"> id</text>
</g>
<!-- Node24 -->
<g id="node24" class="node">
<title>Node24</title>
<g id="a_node24"><a xlink:href="structdpp_1_1utility_1_1iconhash.html" target="_top" xlink:title="Store a 128 bit icon hash (profile picture, server icon etc) as a 128 bit binary value made of two ui...">
<polygon fill="white" stroke="black" points="180,-261.5 180,-280.5 298,-280.5 298,-261.5 180,-261.5"/>
<text text-anchor="middle" x="239" y="-268.5" font-family="Helvetica,sans-Serif" font-size="10.00">dpp::utility::iconhash</text>
</a>
</g>
</g>
<!-- Node14&#45;&gt;Node24 -->
<g id="edge29" class="edge">
<title>Node14&#45;&gt;Node24</title>
<path fill="none" stroke="#9a32cd" stroke-dasharray="5,2" d="M90.37,-256.64C116.08,-259.14 150.72,-262.51 179.99,-265.36"/>
<polygon fill="#9a32cd" stroke="#9a32cd" points="90.59,-253.14 80.3,-255.66 89.91,-260.11 90.59,-253.14"/>
<text text-anchor="middle" x="139.5" y="-278" font-family="Helvetica,sans-Serif" font-size="10.00"> first</text>
<text text-anchor="middle" x="139.5" y="-267" font-family="Helvetica,sans-Serif" font-size="10.00">second</text>
</g>
<!-- Node14&#45;&gt;Node32 -->
<g id="edge53" class="edge">
<title>Node14&#45;&gt;Node32</title>
<path fill="none" stroke="#9a32cd" stroke-dasharray="5,2" d="M54.72,-272.99C65,-392.2 117.94,-1004.34 122,-1013 151.75,-1076.52 167.86,-1120 238,-1120 238,-1120 238,-1120 778.5,-1120 946.69,-1120 1039.7,-872.98 1061.16,-808.33"/>
<polygon fill="#9a32cd" stroke="#9a32cd" points="58.19,-272.43 53.84,-262.77 51.21,-273.03 58.19,-272.43"/>
<text text-anchor="middle" x="521" y="-1134" font-family="Helvetica,sans-Serif" font-size="10.00"> channel_id</text>
<text text-anchor="middle" x="521" y="-1123" font-family="Helvetica,sans-Serif" font-size="10.00">server_id</text>
</g>
<!-- Node15 -->
<g id="node15" class="node">
<title>Node15</title>
<g id="a_node15"><a xlink:title=" ">
<polygon fill="white" stroke="#bfbfbf" points="206.5,-914.5 206.5,-933.5 271.5,-933.5 271.5,-914.5 206.5,-914.5"/>
<text text-anchor="middle" x="239" y="-921.5" font-family="Helvetica,sans-Serif" font-size="10.00">function&lt;</text>
</a>
</g>
</g>
<!-- Node15&#45;&gt;Node7 -->
<g id="edge15" class="edge">
<title>Node15&#45;&gt;Node7</title>
<path fill="none" stroke="#9a32cd" stroke-dasharray="5,2" d="M282.02,-920.71C323.17,-916.95 387.46,-909.62 442,-897 460.22,-892.79 480.22,-886.08 495.4,-880.53"/>
<polygon fill="#9a32cd" stroke="#9a32cd" points="281.47,-917.25 271.82,-921.62 282.09,-924.22 281.47,-917.25"/>
<text text-anchor="middle" x="381.5" y="-953" font-family="Helvetica,sans-Serif" font-size="10.00"> custom_readable_fd</text>
<text text-anchor="middle" x="381.5" y="-942" font-family="Helvetica,sans-Serif" font-size="10.00">custom_readable_ready</text>
<text text-anchor="middle" x="381.5" y="-931" font-family="Helvetica,sans-Serif" font-size="10.00">custom_writeable_fd</text>
<text text-anchor="middle" x="381.5" y="-920" font-family="Helvetica,sans-Serif" font-size="10.00">custom_writeable_ready</text>
</g>
<!-- Node16&#45;&gt;Node5 -->
<g id="edge16" class="edge">
<title>Node16&#45;&gt;Node5</title>
<path fill="none" stroke="#9a32cd" stroke-dasharray="5,2" d="M824.77,-497C876.16,-497 958.97,-497 1012.94,-497"/>
<polygon fill="#9a32cd" stroke="#9a32cd" points="824.62,-493.5 814.62,-497 824.62,-500.5 824.62,-493.5"/>
<text text-anchor="middle" x="926.5" y="-500" font-family="Helvetica,sans-Serif" font-size="10.00"> creator</text>
</g>
<!-- Node16&#45;&gt;Node32 -->
<g id="edge47" class="edge">
<title>Node16&#45;&gt;Node32</title>
<path fill="none" stroke="#9a32cd" stroke-dasharray="5,2" d="M824.15,-509.24C830.05,-512.33 835.56,-516.19 840,-521 858.88,-541.46 838.37,-561.25 858,-581 902.9,-626.17 947.81,-580.23 995,-623 1042.16,-665.74 1058.9,-744.76 1064.02,-777.83"/>
<polygon fill="#9a32cd" stroke="#9a32cd" points="825.24,-505.89 814.68,-504.99 822.37,-512.28 825.24,-505.89"/>
<text text-anchor="middle" x="926.5" y="-626" font-family="Helvetica,sans-Serif" font-size="10.00"> creator</text>
</g>
<!-- Node17 -->
<g id="node17" class="node">
<title>Node17</title>
<g id="a_node17"><a xlink:title=" ">
<polygon fill="white" stroke="#bfbfbf" points="211,-93.5 211,-112.5 267,-112.5 267,-93.5 211,-93.5"/>
<text text-anchor="middle" x="239" y="-100.5" font-family="Helvetica,sans-Serif" font-size="10.00">uint32_t</text>
</a>
</g>
</g>
<!-- Node17&#45;&gt;Node5 -->
<g id="edge35" class="edge">
<title>Node17&#45;&gt;Node5</title>
<path fill="none" stroke="#9a32cd" stroke-dasharray="5,2" d="M277.22,-94.63C290.91,-91.94 306.59,-89.32 321,-88 374.55,-83.08 388.28,-85.51 442,-88 623.16,-96.39 676.3,-99.95 840,-178 915.33,-213.92 944.73,-217.38 995,-284 1045.24,-350.59 1061.1,-454.69 1064.95,-487.06"/>
<polygon fill="#9a32cd" stroke="#9a32cd" points="276.29,-91.25 267.2,-96.68 277.69,-98.11 276.29,-91.25"/>
<text text-anchor="middle" x="648.5" y="-177" font-family="Helvetica,sans-Serif" font-size="10.00"> heartbeat_interval</text>
<text text-anchor="middle" x="648.5" y="-166" font-family="Helvetica,sans-Serif" font-size="10.00">intents</text>
<text text-anchor="middle" x="648.5" y="-155" font-family="Helvetica,sans-Serif" font-size="10.00">max_shards</text>
<text text-anchor="middle" x="648.5" y="-144" font-family="Helvetica,sans-Serif" font-size="10.00">reconnects</text>
<text text-anchor="middle" x="648.5" y="-133" font-family="Helvetica,sans-Serif" font-size="10.00">resumes</text>
<text text-anchor="middle" x="648.5" y="-122" font-family="Helvetica,sans-Serif" font-size="10.00">shard_id</text>
</g>
<!-- Node17&#45;&gt;Node16 -->
<g id="edge19" class="edge">
<title>Node17&#45;&gt;Node16</title>
<path fill="none" stroke="#9a32cd" stroke-dasharray="5,2" d="M277.37,-96.86C351.63,-87.1 516.24,-78.19 582,-177 605.25,-211.94 573.2,-332.7 600,-365 628.65,-399.53 666.59,-360.01 697,-393 724.35,-422.67 687.04,-452.9 715,-482 721.7,-488.97 731.06,-492.92 740.46,-495.11"/>
<polygon fill="#9a32cd" stroke="#9a32cd" points="276.52,-93.45 267.1,-98.3 277.48,-100.38 276.52,-93.45"/>
<text text-anchor="middle" x="521" y="-213" font-family="Helvetica,sans-Serif" font-size="10.00"> cluster_id</text>
<text text-anchor="middle" x="521" y="-202" font-family="Helvetica,sans-Serif" font-size="10.00">intents</text>
<text text-anchor="middle" x="521" y="-191" font-family="Helvetica,sans-Serif" font-size="10.00">maxclusters</text>
<text text-anchor="middle" x="521" y="-180" font-family="Helvetica,sans-Serif" font-size="10.00">numshards</text>
</g>
<!-- Node17&#45;&gt;Node21 -->
<g id="edge30" class="edge">
<title>Node17&#45;&gt;Node21</title>
<path fill="none" stroke="#9a32cd" stroke-dasharray="5,2" d="M277.4,-100.34C322.05,-99.27 396.41,-104.45 442,-145 460.9,-161.81 444.76,-178.81 460,-199 470.34,-212.7 486.62,-223.41 499.62,-230.45"/>
<polygon fill="#9a32cd" stroke="#9a32cd" points="277.13,-96.85 267.26,-100.7 277.38,-103.84 277.13,-96.85"/>
<text text-anchor="middle" x="381.5" y="-148" font-family="Helvetica,sans-Serif" font-size="10.00"> flags</text>
</g>
<!-- Node17&#45;&gt;Node32 -->
<g id="edge49" class="edge">
<title>Node17&#45;&gt;Node32</title>
<path fill="none" stroke="#9a32cd" stroke-dasharray="5,2" d="M276.52,-114.6C286.31,-119.26 296.08,-125.58 303,-134 322.58,-157.82 300.32,-178.13 321,-201 359.58,-243.68 408.35,-200.34 442,-247 469.78,-285.51 426.99,-639.86 460,-674 478.36,-692.99 670.77,-688.9 697,-692 760.93,-699.56 780.97,-689.33 840,-715 849.29,-719.04 848.79,-724.76 858,-729 914.46,-754.98 936.32,-736.54 995,-757 1010.66,-762.46 1027.24,-770.71 1040.44,-777.94"/>
<polygon fill="#9a32cd" stroke="#9a32cd" points="277.79,-111.34 267.22,-110.63 275.04,-117.77 277.79,-111.34"/>
<text text-anchor="middle" x="648.5" y="-695" font-family="Helvetica,sans-Serif" font-size="10.00"> heartbeat_interval</text>
</g>
<!-- Node18 -->
<g id="node18" class="node">
<title>Node18</title>
<g id="a_node18"><a xlink:title=" ">
<polygon fill="white" stroke="#bfbfbf" points="496,-431.5 496,-450.5 546,-450.5 546,-431.5 496,-431.5"/>
<text text-anchor="middle" x="521" y="-438.5" font-family="Helvetica,sans-Serif" font-size="10.00">double</text>
</a>
</g>
</g>
<!-- Node18&#45;&gt;Node5 -->
<g id="edge41" class="edge">
<title>Node18&#45;&gt;Node5</title>
<path fill="none" stroke="#9a32cd" stroke-dasharray="5,2" d="M556.33,-442.73C591.63,-444.62 648.2,-447.91 697,-452 809.87,-461.46 941.4,-479.1 1012.97,-489.26"/>
<polygon fill="#9a32cd" stroke="#9a32cd" points="556.25,-439.22 546.08,-442.2 555.89,-446.22 556.25,-439.22"/>
<text text-anchor="middle" x="777.5" y="-470" font-family="Helvetica,sans-Serif" font-size="10.00"> websocket_ping</text>
</g>
<!-- Node18&#45;&gt;Node16 -->
<g id="edge20" class="edge">
<title>Node18&#45;&gt;Node16</title>
<path fill="none" stroke="#9a32cd" stroke-dasharray="5,2" d="M556.54,-446.14C592.01,-451.69 648.71,-461.33 697,-473 713.96,-477.1 732.65,-482.68 747.64,-487.43"/>
<polygon fill="#9a32cd" stroke="#9a32cd" points="556.66,-442.62 546.24,-444.55 555.59,-449.54 556.66,-442.62"/>
<text text-anchor="middle" x="648.5" y="-476" font-family="Helvetica,sans-Serif" font-size="10.00"> rest_ping</text>
</g>
<!-- Node19 -->
<g id="node19" class="node">
<title>Node19</title>
<g id="a_node19"><a xlink:href="classdpp_1_1dispatcher.html" target="_top" xlink:title="The dispatcher class contains a set of std::functions representing hooked events that the user code i...">
<polygon fill="white" stroke="black" points="475,-473.5 475,-492.5 567,-492.5 567,-473.5 475,-473.5"/>
<text text-anchor="middle" x="521" y="-480.5" font-family="Helvetica,sans-Serif" font-size="10.00">dpp::dispatcher</text>
</a>
</g>
</g>
<!-- Node19&#45;&gt;Node16 -->
<g id="edge21" class="edge">
<title>Node19&#45;&gt;Node16</title>
<path fill="none" stroke="#9a32cd" stroke-dasharray="5,2" d="M577.41,-486.05C626.87,-488.77 697.86,-492.67 740.35,-495.01"/>
<polygon fill="#9a32cd" stroke="#9a32cd" points="577.38,-482.54 567.21,-485.49 577,-489.53 577.38,-482.54"/>
<text text-anchor="middle" x="648.5" y="-496" font-family="Helvetica,sans-Serif" font-size="10.00"> dispatch</text>
</g>
<!-- Node20 -->
<g id="node20" class="node">
<title>Node20</title>
<g id="a_node20"><a xlink:title=" ">
<polygon fill="white" stroke="#bfbfbf" points="211,-299.5 211,-318.5 267,-318.5 267,-299.5 211,-299.5"/>
<text text-anchor="middle" x="239" y="-306.5" font-family="Helvetica,sans-Serif" font-size="10.00">vector&lt;</text>
</a>
</g>
</g>
<!-- Node20&#45;&gt;Node19 -->
<g id="edge22" class="edge">
<title>Node20&#45;&gt;Node19</title>
<path fill="none" stroke="#9a32cd" stroke-dasharray="5,2" d="M277.33,-303.14C328.97,-295.96 418.52,-287.13 442,-308 467.43,-330.59 439.11,-433.16 460,-460 464.52,-465.81 470.7,-470.15 477.38,-473.4"/>
<polygon fill="#9a32cd" stroke="#9a32cd" points="276.63,-299.71 267.23,-304.59 277.62,-306.64 276.63,-299.71"/>
<text text-anchor="start" x="325.5" y="-454" font-family="Helvetica,sans-Serif" font-size="10.00"> application_command</text>
<text text-anchor="middle" x="381.5" y="-443" font-family="Helvetica,sans-Serif" font-size="10.00">_create</text>
<text text-anchor="start" x="325.5" y="-432" font-family="Helvetica,sans-Serif" font-size="10.00">application_command</text>
<text text-anchor="middle" x="381.5" y="-421" font-family="Helvetica,sans-Serif" font-size="10.00">_delete</text>
<text text-anchor="start" x="325.5" y="-410" font-family="Helvetica,sans-Serif" font-size="10.00">application_command</text>
<text text-anchor="middle" x="381.5" y="-399" font-family="Helvetica,sans-Serif" font-size="10.00">_update</text>
<text text-anchor="middle" x="381.5" y="-388" font-family="Helvetica,sans-Serif" font-size="10.00">autocomplete</text>
<text text-anchor="middle" x="381.5" y="-377" font-family="Helvetica,sans-Serif" font-size="10.00">button_click</text>
<text text-anchor="middle" x="381.5" y="-366" font-family="Helvetica,sans-Serif" font-size="10.00">channel_create</text>
<text text-anchor="middle" x="381.5" y="-355" font-family="Helvetica,sans-Serif" font-size="10.00">channel_delete</text>
<text text-anchor="middle" x="381.5" y="-344" font-family="Helvetica,sans-Serif" font-size="10.00">channel_pins_update</text>
<text text-anchor="middle" x="381.5" y="-333" font-family="Helvetica,sans-Serif" font-size="10.00">channel_update</text>
<text text-anchor="middle" x="381.5" y="-322" font-family="Helvetica,sans-Serif" font-size="10.00">guild_ban_add</text>
<text text-anchor="middle" x="381.5" y="-311" font-family="Helvetica,sans-Serif" font-size="10.00">...</text>
</g>
<!-- Node21&#45;&gt;Node16 -->
<g id="edge23" class="edge">
<title>Node21&#45;&gt;Node16</title>
<path fill="none" stroke="#9a32cd" stroke-dasharray="5,2" d="M527.73,-259.32C537.8,-290.38 561.34,-351.79 600,-390 634.35,-423.95 656.19,-413.16 697,-439 705.56,-444.42 706.88,-446.94 715,-453 731.2,-465.09 750.17,-478.56 762.71,-487.37"/>
<polygon fill="#9a32cd" stroke="#9a32cd" points="531.05,-258.19 524.73,-249.69 524.36,-260.28 531.05,-258.19"/>
<text text-anchor="middle" x="648.5" y="-442" font-family="Helvetica,sans-Serif" font-size="10.00"> me</text>
</g>
<!-- Node22&#45;&gt;Node21 -->
<g id="edge24" class="edge">
<title>Node22&#45;&gt;Node21</title>
<path fill="none" stroke="midnightblue" d="M292.33,-234.31C350.59,-235.76 442.73,-238.07 489.94,-239.25"/>
<polygon fill="midnightblue" stroke="midnightblue" points="292.31,-230.81 282.22,-234.06 292.13,-237.8 292.31,-230.81"/>
</g>
<!-- Node23 -->
<g id="node23" class="node">
<title>Node23</title>
<g id="a_node23"><a xlink:title=" ">
<polygon fill="white" stroke="#bfbfbf" points="211,-181.5 211,-200.5 267,-200.5 267,-181.5 211,-181.5"/>
<text text-anchor="middle" x="239" y="-188.5" font-family="Helvetica,sans-Serif" font-size="10.00">uint16_t</text>
</a>
</g>
</g>
<!-- Node23&#45;&gt;Node21 -->
<g id="edge27" class="edge">
<title>Node23&#45;&gt;Node21</title>
<path fill="none" stroke="#9a32cd" stroke-dasharray="5,2" d="M277.25,-195.49C317.92,-200.64 384.87,-209.82 442,-221 457.87,-224.1 475.37,-228.3 489.77,-231.95"/>
<polygon fill="#9a32cd" stroke="#9a32cd" points="277.61,-192.01 267.25,-194.24 276.74,-198.96 277.61,-192.01"/>
<text text-anchor="middle" x="381.5" y="-224" font-family="Helvetica,sans-Serif" font-size="10.00"> discriminator</text>
</g>
<!-- Node24&#45;&gt;Node21 -->
<g id="edge28" class="edge">
<title>Node24&#45;&gt;Node21</title>
<path fill="none" stroke="#9a32cd" stroke-dasharray="5,2" d="M308.38,-264.94C347.54,-261.29 397.58,-256.33 442,-251 457.75,-249.11 475.24,-246.67 489.66,-244.58"/>
<polygon fill="#9a32cd" stroke="#9a32cd" points="308.05,-261.46 298.41,-265.86 308.69,-268.43 308.05,-261.46"/>
<text text-anchor="middle" x="381.5" y="-267" font-family="Helvetica,sans-Serif" font-size="10.00"> avatar</text>
</g>
<!-- Node25 -->
<g id="node25" class="node">
<title>Node25</title>
<g id="a_node25"><a xlink:title=" ">
<polygon fill="white" stroke="#bfbfbf" points="214,-143.5 214,-162.5 264,-162.5 264,-143.5 214,-143.5"/>
<text text-anchor="middle" x="239" y="-150.5" font-family="Helvetica,sans-Serif" font-size="10.00">uint8_t</text>
</a>
</g>
</g>
<!-- Node25&#45;&gt;Node21 -->
<g id="edge31" class="edge">
<title>Node25&#45;&gt;Node21</title>
<path fill="none" stroke="#9a32cd" stroke-dasharray="5,2" d="M274.28,-154.32C315.46,-156.9 385.99,-164.51 442,-187 442.88,-187.35 483.66,-215.17 505.89,-230.36"/>
<polygon fill="#9a32cd" stroke="#9a32cd" points="274.4,-150.82 264.22,-153.75 274.01,-157.81 274.4,-150.82"/>
<text text-anchor="middle" x="381.5" y="-190" font-family="Helvetica,sans-Serif" font-size="10.00"> refcount</text>
</g>
<!-- Node26 -->
<g id="node26" class="node">
<title>Node26</title>
<g id="a_node26"><a xlink:href="structdpp_1_1cache__policy__t.html" target="_top" xlink:title="Represents the caching policy of the cluster.">
<polygon fill="white" stroke="black" points="464.5,-560.5 464.5,-579.5 577.5,-579.5 577.5,-560.5 464.5,-560.5"/>
<text text-anchor="middle" x="521" y="-567.5" font-family="Helvetica,sans-Serif" font-size="10.00">dpp::cache_policy_t</text>
</a>
</g>
</g>
<!-- Node26&#45;&gt;Node16 -->
<g id="edge32" class="edge">
<title>Node26&#45;&gt;Node16</title>
<path fill="none" stroke="#9a32cd" stroke-dasharray="5,2" d="M587.97,-565.81C629.6,-562.18 678.82,-555.76 697,-545 708.47,-538.21 704.38,-529.07 715,-521 723.03,-514.9 732.81,-510.16 742.18,-506.56"/>
<polygon fill="#9a32cd" stroke="#9a32cd" points="587.52,-562.34 577.85,-566.65 588.1,-569.31 587.52,-562.34"/>
<text text-anchor="middle" x="648.5" y="-568" font-family="Helvetica,sans-Serif" font-size="10.00"> cache_policy</text>
</g>
<!-- Node27 -->
<g id="node27" class="node">
<title>Node27</title>
<g id="a_node27"><a xlink:title=" ">
<polygon fill="white" stroke="#bfbfbf" points="175,-583.5 175,-602.5 303,-602.5 303,-583.5 175,-583.5"/>
<text text-anchor="middle" x="239" y="-590.5" font-family="Helvetica,sans-Serif" font-size="10.00">cache_policy_setting_t</text>
</a>
</g>
</g>
<!-- Node27&#45;&gt;Node26 -->
<g id="edge33" class="edge">
<title>Node27&#45;&gt;Node26</title>
<path fill="none" stroke="#9a32cd" stroke-dasharray="5,2" d="M313.35,-586.98C360.52,-583.1 420.87,-578.14 464.16,-574.59"/>
<polygon fill="#9a32cd" stroke="#9a32cd" points="312.87,-583.5 303.19,-587.81 313.44,-590.48 312.87,-583.5"/>
<text text-anchor="middle" x="381.5" y="-612" font-family="Helvetica,sans-Serif" font-size="10.00"> emoji_policy</text>
<text text-anchor="middle" x="381.5" y="-601" font-family="Helvetica,sans-Serif" font-size="10.00">role_policy</text>
<text text-anchor="middle" x="381.5" y="-590" font-family="Helvetica,sans-Serif" font-size="10.00">user_policy</text>
</g>
<!-- Node28 -->
<g id="node28" class="node">
<title>Node28</title>
<g id="a_node28"><a xlink:title=" ">
<polygon fill="white" stroke="#bfbfbf" points="460,-645.5 460,-664.5 582,-664.5 582,-645.5 460,-645.5"/>
<text text-anchor="middle" x="521" y="-652.5" font-family="Helvetica,sans-Serif" font-size="10.00">websocket_protocol_t</text>
</a>
</g>
</g>
<!-- Node28&#45;&gt;Node5 -->
<g id="edge43" class="edge">
<title>Node28&#45;&gt;Node5</title>
<path fill="none" stroke="#9a32cd" stroke-dasharray="5,2" d="M581.15,-665.58C618.81,-668.76 666.14,-665.65 697,-638 726.08,-611.94 686.51,-578.71 715,-552 760.85,-509.01 933.11,-522.95 995,-512 1004.18,-510.38 1013.99,-508.44 1023.29,-506.5"/>
<polygon fill="#9a32cd" stroke="#9a32cd" points="581.1,-662.05 570.8,-664.53 580.4,-669.02 581.1,-662.05"/>
<text text-anchor="middle" x="777.5" y="-555" font-family="Helvetica,sans-Serif" font-size="10.00"> protocol</text>
</g>
<!-- Node28&#45;&gt;Node16 -->
<g id="edge34" class="edge">
<title>Node28&#45;&gt;Node16</title>
<path fill="none" stroke="#9a32cd" stroke-dasharray="5,2" d="M555.81,-641.93C569.43,-636.91 585.35,-631.35 600,-627 642.47,-614.38 665.97,-635.63 697,-604 723.43,-577.05 690.51,-549.72 715,-521 721.54,-513.33 730.86,-508.09 740.26,-504.53"/>
<polygon fill="#9a32cd" stroke="#9a32cd" points="554.5,-638.68 546.36,-645.46 556.95,-645.24 554.5,-638.68"/>
<text text-anchor="middle" x="648.5" y="-630" font-family="Helvetica,sans-Serif" font-size="10.00"> ws_mode</text>
</g>
<!-- Node29 -->
<g id="node29" class="node">
<title>Node29</title>
<g id="a_node29"><a xlink:title=" ">
<polygon fill="white" stroke="#bfbfbf" points="721,-648.5 721,-667.5 834,-667.5 834,-648.5 721,-648.5"/>
<text text-anchor="middle" x="777.5" y="-655.5" font-family="Helvetica,sans-Serif" font-size="10.00">native_handle_type</text>
</a>
</g>
</g>
<!-- Node29&#45;&gt;Node5 -->
<g id="edge37" class="edge">
<title>Node29&#45;&gt;Node5</title>
<path fill="none" stroke="#9a32cd" stroke-dasharray="5,2" d="M844.47,-658.09C899.02,-656.95 971.23,-652.26 995,-636 1041.3,-604.33 1059.14,-533 1064.28,-506.85"/>
<polygon fill="#9a32cd" stroke="#9a32cd" points="844.1,-654.6 834.16,-658.27 844.22,-661.6 844.1,-654.6"/>
<text text-anchor="middle" x="926.5" y="-661" font-family="Helvetica,sans-Serif" font-size="10.00"> thread_id</text>
</g>
<!-- Node29&#45;&gt;Node32 -->
<g id="edge51" class="edge">
<title>Node29&#45;&gt;Node32</title>
<path fill="none" stroke="#9a32cd" stroke-dasharray="5,2" d="M833.76,-669.76C888.5,-682.03 967.94,-701.72 995,-718 1020.66,-733.44 1043.05,-760.65 1055.53,-777.7"/>
<polygon fill="#9a32cd" stroke="#9a32cd" points="834.37,-666.31 823.85,-667.56 832.85,-673.14 834.37,-666.31"/>
<text text-anchor="middle" x="926.5" y="-721" font-family="Helvetica,sans-Serif" font-size="10.00"> thread_id</text>
</g>
<!-- Node30 -->
<g id="node30" class="node">
<title>Node30</title>
<g id="a_node30"><a xlink:title=" ">
<polygon fill="white" stroke="#bfbfbf" points="743,-294.5 743,-313.5 812,-313.5 812,-294.5 743,-294.5"/>
<text text-anchor="middle" x="777.5" y="-301.5" font-family="Helvetica,sans-Serif" font-size="10.00">std::mutex</text>
</a>
</g>
</g>
<!-- Node30&#45;&gt;Node5 -->
<g id="edge40" class="edge">
<title>Node30&#45;&gt;Node5</title>
<path fill="none" stroke="#9a32cd" stroke-dasharray="5,2" d="M822.14,-293.92C869.4,-285.66 944.74,-280.54 995,-317 1053.19,-359.21 1063.71,-456.63 1065.59,-487.46"/>
<polygon fill="#9a32cd" stroke="#9a32cd" points="821.4,-290.49 812.21,-295.77 822.69,-297.38 821.4,-290.49"/>
<text text-anchor="middle" x="926.5" y="-320" font-family="Helvetica,sans-Serif" font-size="10.00"> voice_mutex</text>
</g>
<!-- Node31 -->
<g id="node31" class="node">
<title>Node31</title>
<g id="a_node31"><a xlink:title=" ">
<polygon fill="white" stroke="#bfbfbf" points="727,-572.5 727,-591.5 828,-591.5 828,-572.5 727,-572.5"/>
<text text-anchor="middle" x="777.5" y="-579.5" font-family="Helvetica,sans-Serif" font-size="10.00">unordered_map&lt;</text>
</a>
</g>
</g>
<!-- Node31&#45;&gt;Node5 -->
<g id="edge44" class="edge">
<title>Node31&#45;&gt;Node5</title>
<path fill="none" stroke="#9a32cd" stroke-dasharray="5,2" d="M834.55,-570.48C842.42,-568.94 850.41,-567.4 858,-566 918.72,-554.8 937.45,-565.36 995,-543 1017.73,-534.17 1040.83,-517.45 1054.27,-506.78"/>
<polygon fill="#9a32cd" stroke="#9a32cd" points="833.82,-567.06 824.69,-572.44 835.18,-573.93 833.82,-567.06"/>
<text text-anchor="middle" x="926.5" y="-569" font-family="Helvetica,sans-Serif" font-size="10.00"> connecting_voice_channels</text>
</g>
<!-- Node32&#45;&gt;Node1 -->
<g id="edge45" class="edge">
<title>Node32&#45;&gt;Node1</title>
<path fill="none" stroke="#9a32cd" stroke-dasharray="5,2" d="M1081.64,-768.98C1141.84,-663.02 1382.4,-239.51 1421.59,-170.52"/>
<polygon fill="#9a32cd" stroke="#9a32cd" points="1078.59,-767.27 1076.7,-777.69 1084.68,-770.72 1078.59,-767.27"/>
<text text-anchor="middle" x="1246" y="-592" font-family="Helvetica,sans-Serif" font-size="10.00"> voice_client</text>
</g>
</g>
</svg>
