<?xml version="1.0" encoding="UTF-8" standalone="no"?>
<!DOCTYPE svg PUBLIC "-//W3C//DTD SVG 1.1//EN"
 "http://www.w3.org/Graphics/SVG/1.1/DTD/svg11.dtd">
<!-- Generated by graphviz version 2.38.0 (20140413.2041)
 -->
<!-- Title: dpp::voice_ready_t Pages: 1 -->
<svg width="1332pt" height="1172pt"
 viewBox="0.00 0.00 1332.00 1172.00" xmlns="http://www.w3.org/2000/svg" xmlns:xlink="http://www.w3.org/1999/xlink">
<g id="graph0" class="graph" transform="scale(1 1) rotate(0) translate(4 1168)">
<title>dpp::voice_ready_t</title>
<polygon fill="white" stroke="none" points="-4,4 -4,-1168 1328,-1168 1328,4 -4,4"/>
<!-- Node1 -->
<g id="node1" class="node"><title>Node1</title>
<g id="a_node1"><a xlink:title="voice user talking">
<polygon fill="#bfbfbf" stroke="black" points="1225,-639.5 1225,-658.5 1324,-658.5 1324,-639.5 1225,-639.5"/>
<text text-anchor="middle" x="1274.5" y="-646.5" font-family="Helvetica,sans-Serif" font-size="10.00">dpp::voice_ready_t</text>
</a>
</g>
</g>
<!-- Node2 -->
<g id="node2" class="node"><title>Node2</title>
<g id="a_node2"><a xlink:href="structdpp_1_1event__dispatch__t.html" target="_top" xlink:title="Base event parameter struct.">
<polygon fill="white" stroke="black" points="1075,-639.5 1075,-658.5 1188,-658.5 1188,-639.5 1075,-639.5"/>
<text text-anchor="middle" x="1131.5" y="-646.5" font-family="Helvetica,sans-Serif" font-size="10.00">dpp::event_dispatch_t</text>
</a>
</g>
</g>
<!-- Node2&#45;&gt;Node1 -->
<g id="edge1" class="edge"><title>Node2&#45;&gt;Node1</title>
<path fill="none" stroke="midnightblue" d="M1198.47,-649C1207.26,-649 1216.14,-649 1224.57,-649"/>
<polygon fill="midnightblue" stroke="midnightblue" points="1198.23,-645.5 1188.23,-649 1198.23,-652.5 1198.23,-645.5"/>
</g>
<!-- Node3 -->
<g id="node3" class="node"><title>Node3</title>
<g id="a_node3"><a xlink:title=" ">
<polygon fill="white" stroke="#bfbfbf" points="191,-621.5 191,-640.5 251,-640.5 251,-621.5 191,-621.5"/>
<text text-anchor="middle" x="221" y="-628.5" font-family="Helvetica,sans-Serif" font-size="10.00">std::string</text>
</a>
</g>
</g>
<!-- Node3&#45;&gt;Node2 -->
<g id="edge2" class="edge"><title>Node3&#45;&gt;Node2</title>
<path fill="none" stroke="#9a32cd" stroke-dasharray="5,2" d="M261.208,-638.477C300.545,-643.736 361.144,-645.488 403,-617 418.118,-606.71 405.497,-589.699 421,-580 461.518,-554.653 487.208,-554.688 900,-607 965.171,-615.259 1039.85,-629.813 1086.1,-639.432"/>
<polygon fill="#9a32cd" stroke="#9a32cd" points="261.604,-634.998 251.2,-637.003 260.583,-641.923 261.604,-634.998"/>
<text text-anchor="middle" x="701" y="-592" font-family="Helvetica,sans-Serif" font-size="10.00"> raw_event</text>
</g>
<!-- Node5 -->
<g id="node5" class="node"><title>Node5</title>
<g id="a_node5"><a xlink:href="classdpp_1_1discord__client.html" target="_top" xlink:title="Implements a discord client. Each discord_client connects to one shard and derives from a websocket c...">
<polygon fill="white" stroke="black" points="918,-760.5 918,-779.5 1016,-779.5 1016,-760.5 918,-760.5"/>
<text text-anchor="middle" x="967" y="-767.5" font-family="Helvetica,sans-Serif" font-size="10.00">dpp::discord_client</text>
</a>
</g>
</g>
<!-- Node3&#45;&gt;Node5 -->
<g id="edge38" class="edge"><title>Node3&#45;&gt;Node5</title>
<path fill="none" stroke="#9a32cd" stroke-dasharray="5,2" d="M260.907,-639.094C272.481,-641.276 285.217,-643.457 297,-645 363.626,-653.724 840.264,-660.23 900,-691 930.346,-706.631 952.149,-742.914 961.265,-760.33"/>
<polygon fill="#9a32cd" stroke="#9a32cd" points="261.572,-635.658 251.089,-637.192 260.241,-642.53 261.572,-635.658"/>
<text text-anchor="middle" x="584.5" y="-675" font-family="Helvetica,sans-Serif" font-size="10.00"> sessionid</text>
<text text-anchor="middle" x="584.5" y="-664" font-family="Helvetica,sans-Serif" font-size="10.00">token</text>
</g>
<!-- Node7 -->
<g id="node7" class="node"><title>Node7</title>
<g id="a_node7"><a xlink:href="classdpp_1_1ssl__client.html" target="_top" xlink:title="Implements a simple non&#45;blocking SSL stream client.">
<polygon fill="white" stroke="black" points="433,-232.5 433,-251.5 513,-251.5 513,-232.5 433,-232.5"/>
<text text-anchor="middle" x="473" y="-239.5" font-family="Helvetica,sans-Serif" font-size="10.00">dpp::ssl_client</text>
</a>
</g>
</g>
<!-- Node3&#45;&gt;Node7 -->
<g id="edge7" class="edge"><title>Node3&#45;&gt;Node7</title>
<path fill="none" stroke="#9a32cd" stroke-dasharray="5,2" d="M226.722,-611.503C242.975,-544.437 295.678,-327.286 297,-326 331.552,-292.383 359.994,-324.781 403,-303 428.39,-290.141 451.831,-265.673 463.758,-251.957"/>
<polygon fill="#9a32cd" stroke="#9a32cd" points="223.315,-610.702 224.362,-621.245 230.119,-612.35 223.315,-610.702"/>
<text text-anchor="middle" x="350" y="-373" font-family="Helvetica,sans-Serif" font-size="10.00"> buffer</text>
<text text-anchor="middle" x="350" y="-362" font-family="Helvetica,sans-Serif" font-size="10.00">cipher</text>
<text text-anchor="middle" x="350" y="-351" font-family="Helvetica,sans-Serif" font-size="10.00">hostname</text>
<text text-anchor="middle" x="350" y="-340" font-family="Helvetica,sans-Serif" font-size="10.00">obuffer</text>
<text text-anchor="middle" x="350" y="-329" font-family="Helvetica,sans-Serif" font-size="10.00">port</text>
</g>
<!-- Node16 -->
<g id="node16" class="node"><title>Node16</title>
<g id="a_node16"><a xlink:href="classdpp_1_1cluster.html" target="_top" xlink:title="The cluster class represents a group of shards and a command queue for sending and receiving commands...">
<polygon fill="white" stroke="black" points="667,-738.5 667,-757.5 735,-757.5 735,-738.5 667,-738.5"/>
<text text-anchor="middle" x="701" y="-745.5" font-family="Helvetica,sans-Serif" font-size="10.00">dpp::cluster</text>
</a>
</g>
</g>
<!-- Node3&#45;&gt;Node16 -->
<g id="edge17" class="edge"><title>Node3&#45;&gt;Node16</title>
<path fill="none" stroke="#9a32cd" stroke-dasharray="5,2" d="M237.568,-647.93C251.653,-662.112 273.705,-681.652 297,-692 330.609,-706.93 576.221,-734.627 666.676,-744.44"/>
<polygon fill="#9a32cd" stroke="#9a32cd" points="240.061,-645.473 230.606,-640.694 235.017,-650.326 240.061,-645.473"/>
<text text-anchor="middle" x="473" y="-731" font-family="Helvetica,sans-Serif" font-size="10.00"> token</text>
</g>
<!-- Node20 -->
<g id="node20" class="node"><title>Node20</title>
<g id="a_node20"><a xlink:href="classdpp_1_1user.html" target="_top" xlink:title="Represents a user on discord. May or may not be a member of a dpp::guild.">
<polygon fill="white" stroke="black" points="444.5,-877.5 444.5,-896.5 501.5,-896.5 501.5,-877.5 444.5,-877.5"/>
<text text-anchor="middle" x="473" y="-884.5" font-family="Helvetica,sans-Serif" font-size="10.00">dpp::user</text>
</a>
</g>
</g>
<!-- Node3&#45;&gt;Node20 -->
<g id="edge26" class="edge"><title>Node3&#45;&gt;Node20</title>
<path fill="none" stroke="#9a32cd" stroke-dasharray="5,2" d="M238.738,-648.263C250.448,-660.631 266.219,-677.884 279,-694 287.733,-705.012 288.216,-709.029 297,-720 340.444,-774.263 360.491,-780.002 403,-835 412.047,-846.705 409.874,-853.249 421,-863 427.844,-868.998 436.446,-873.806 444.626,-877.496"/>
<polygon fill="#9a32cd" stroke="#9a32cd" points="241.141,-645.711 231.701,-640.901 236.081,-650.548 241.141,-645.711"/>
<text text-anchor="middle" x="350" y="-838" font-family="Helvetica,sans-Serif" font-size="10.00"> username</text>
</g>
<!-- Node30 -->
<g id="node30" class="node"><title>Node30</title>
<g id="a_node30"><a xlink:href="classdpp_1_1discord__voice__client.html" target="_top" xlink:title="Implements a discord voice connection. Each discord_voice_client connects to one voice channel and de...">
<polygon fill="white" stroke="black" points="918,-456 918,-486 1016,-486 1016,-456 918,-456"/>
<text text-anchor="start" x="926" y="-474" font-family="Helvetica,sans-Serif" font-size="10.00">dpp::discord_voice</text>
<text text-anchor="middle" x="967" y="-463" font-family="Helvetica,sans-Serif" font-size="10.00">_client</text>
</a>
</g>
</g>
<!-- Node3&#45;&gt;Node30 -->
<g id="edge50" class="edge"><title>Node3&#45;&gt;Node30</title>
<path fill="none" stroke="#9a32cd" stroke-dasharray="5,2" d="M221.703,-610.957C222.258,-565.844 230.719,-456.569 297,-409 315.254,-395.899 738.323,-361.133 900,-419 920.876,-426.472 940.229,-443.403 952.509,-455.926"/>
<polygon fill="#9a32cd" stroke="#9a32cd" points="218.203,-611.196 221.704,-621.196 225.203,-611.195 218.203,-611.196"/>
<text text-anchor="middle" x="584.5" y="-402" font-family="Helvetica,sans-Serif" font-size="10.00"> sessionid</text>
<text text-anchor="middle" x="584.5" y="-391" font-family="Helvetica,sans-Serif" font-size="10.00">token</text>
</g>
<!-- Node4 -->
<g id="node4" class="node"><title>Node4</title>
<g id="a_node4"><a xlink:title=" ">
<polygon fill="white" stroke="#bfbfbf" points="0,-199 0,-229 95,-229 95,-199 0,-199"/>
<text text-anchor="start" x="8" y="-217" font-family="Helvetica,sans-Serif" font-size="10.00">std::basic_string&lt;</text>
<text text-anchor="middle" x="47.5" y="-206" font-family="Helvetica,sans-Serif" font-size="10.00"> Char &gt;</text>
</a>
</g>
</g>
<!-- Node4&#45;&gt;Node3 -->
<g id="edge3" class="edge"><title>Node4&#45;&gt;Node3</title>
<path fill="none" stroke="midnightblue" d="M58.6275,-238.625C91.4833,-318.513 194.241,-568.368 215.948,-621.147"/>
<polygon fill="midnightblue" stroke="midnightblue" points="61.8478,-237.253 54.8072,-229.336 55.3739,-239.915 61.8478,-237.253"/>
</g>
<!-- Node5&#45;&gt;Node2 -->
<g id="edge4" class="edge"><title>Node5&#45;&gt;Node2</title>
<path fill="none" stroke="#9a32cd" stroke-dasharray="5,2" d="M989.371,-754.087C1023.53,-728.651 1089.43,-679.583 1117.41,-658.744"/>
<polygon fill="#9a32cd" stroke="#9a32cd" points="986.954,-751.523 981.023,-760.303 991.134,-757.137 986.954,-751.523"/>
<text text-anchor="middle" x="1045.5" y="-724" font-family="Helvetica,sans-Serif" font-size="10.00"> from</text>
</g>
<!-- Node6 -->
<g id="node6" class="node"><title>Node6</title>
<g id="a_node6"><a xlink:href="classdpp_1_1websocket__client.html" target="_top" xlink:title="Implements a websocket client based on the SSL client.">
<polygon fill="white" stroke="black" points="644,-461.5 644,-480.5 758,-480.5 758,-461.5 644,-461.5"/>
<text text-anchor="middle" x="701" y="-468.5" font-family="Helvetica,sans-Serif" font-size="10.00">dpp::websocket_client</text>
</a>
</g>
</g>
<!-- Node6&#45;&gt;Node5 -->
<g id="edge5" class="edge"><title>Node6&#45;&gt;Node5</title>
<path fill="none" stroke="midnightblue" d="M719.737,-487.523C731.171,-498.534 746.075,-513.582 758,-528 766.958,-538.83 764.35,-546.138 776,-554 822.831,-585.606 857.809,-544.423 900,-582 955.28,-631.235 964.259,-729.528 965.717,-760.455"/>
<polygon fill="midnightblue" stroke="midnightblue" points="722.115,-484.954 712.455,-480.602 717.293,-490.028 722.115,-484.954"/>
</g>
<!-- Node6&#45;&gt;Node30 -->
<g id="edge44" class="edge"><title>Node6&#45;&gt;Node30</title>
<path fill="none" stroke="midnightblue" d="M768.586,-471C815.031,-471 875.936,-471 917.746,-471"/>
<polygon fill="midnightblue" stroke="midnightblue" points="768.311,-467.5 758.311,-471 768.311,-474.5 768.311,-467.5"/>
</g>
<!-- Node7&#45;&gt;Node6 -->
<g id="edge6" class="edge"><title>Node7&#45;&gt;Node6</title>
<path fill="none" stroke="midnightblue" d="M523.046,-248.912C555.786,-255.826 597.841,-269.447 626,-296 676.639,-343.75 694.074,-431.671 698.638,-461.105"/>
<polygon fill="midnightblue" stroke="midnightblue" points="523.697,-245.474 513.21,-246.975 522.345,-252.342 523.697,-245.474"/>
</g>
<!-- Node8 -->
<g id="node8" class="node"><title>Node8</title>
<g id="a_node8"><a xlink:title=" ">
<polygon fill="white" stroke="#bfbfbf" points="203.5,-88.5 203.5,-107.5 238.5,-107.5 238.5,-88.5 203.5,-88.5"/>
<text text-anchor="middle" x="221" y="-95.5" font-family="Helvetica,sans-Serif" font-size="10.00">bool</text>
</a>
</g>
</g>
<!-- Node8&#45;&gt;Node5 -->
<g id="edge41" class="edge"><title>Node8&#45;&gt;Node5</title>
<path fill="none" stroke="#9a32cd" stroke-dasharray="5,2" d="M248.896,-94.8177C285.421,-91.6412 351.999,-89.9723 403,-112 411.412,-115.633 518.998,-216.076 525,-223 577.399,-283.454 599.01,-296.688 626,-372 640.606,-412.758 617.752,-531.567 644,-566 676.828,-609.066 716.167,-574.614 758,-609 769.719,-618.633 763.676,-629.155 776,-638 821.981,-671.002 853.783,-634.33 900,-667 934.338,-691.274 955.041,-739.614 962.659,-760.272"/>
<polygon fill="#9a32cd" stroke="#9a32cd" points="248.187,-91.3702 238.575,-95.8274 248.869,-98.337 248.187,-91.3702"/>
<text text-anchor="middle" x="584.5" y="-375" font-family="Helvetica,sans-Serif" font-size="10.00"> ready</text>
</g>
<!-- Node8&#45;&gt;Node7 -->
<g id="edge8" class="edge"><title>Node8&#45;&gt;Node7</title>
<path fill="none" stroke="#9a32cd" stroke-dasharray="5,2" d="M248.805,-102.221C297.699,-110.014 396.927,-126.293 403,-131 418.089,-142.695 411.442,-153.474 421,-170 434.498,-193.338 453.541,-218.617 464.126,-232.138"/>
<polygon fill="#9a32cd" stroke="#9a32cd" points="249.062,-98.7185 238.637,-100.608 247.965,-105.632 249.062,-98.7185"/>
<text text-anchor="middle" x="350" y="-134" font-family="Helvetica,sans-Serif" font-size="10.00"> nonblocking</text>
</g>
<!-- Node8&#45;&gt;Node30 -->
<g id="edge46" class="edge"><title>Node8&#45;&gt;Node30</title>
<path fill="none" stroke="#9a32cd" stroke-dasharray="5,2" d="M248.775,-91.9039C284.403,-84.8024 349.167,-75.4263 403,-87 572.997,-123.548 860.724,-355.597 900,-391 922.201,-411.012 943.361,-438.708 955.496,-455.709"/>
<polygon fill="#9a32cd" stroke="#9a32cd" points="247.77,-88.5381 238.697,-94.009 249.202,-95.3901 247.77,-88.5381"/>
<text text-anchor="middle" x="584.5" y="-205" font-family="Helvetica,sans-Serif" font-size="10.00"> sodium_initialised</text>
<text text-anchor="middle" x="584.5" y="-194" font-family="Helvetica,sans-Serif" font-size="10.00">terminating</text>
</g>
<!-- Node9 -->
<g id="node9" class="node"><title>Node9</title>
<g id="a_node9"><a xlink:title=" ">
<polygon fill="white" stroke="#bfbfbf" points="192,-183.5 192,-202.5 250,-202.5 250,-183.5 192,-183.5"/>
<text text-anchor="middle" x="221" y="-190.5" font-family="Helvetica,sans-Serif" font-size="10.00">SOCKET</text>
</a>
</g>
</g>
<!-- Node9&#45;&gt;Node7 -->
<g id="edge9" class="edge"><title>Node9&#45;&gt;Node7</title>
<path fill="none" stroke="#9a32cd" stroke-dasharray="5,2" d="M260.414,-188.984C297.695,-186.356 355.454,-185.67 403,-200 425.021,-206.637 447.145,-222.007 460.203,-232.197"/>
<polygon fill="#9a32cd" stroke="#9a32cd" points="259.695,-185.53 250.001,-189.807 260.246,-192.508 259.695,-185.53"/>
<text text-anchor="middle" x="350" y="-203" font-family="Helvetica,sans-Serif" font-size="10.00"> sfd</text>
</g>
<!-- Node10 -->
<g id="node10" class="node"><title>Node10</title>
<g id="a_node10"><a xlink:href="classdpp_1_1opensslcontext.html" target="_top" xlink:title=" ">
<polygon fill="white" stroke="black" points="169,-133.5 169,-152.5 273,-152.5 273,-133.5 169,-133.5"/>
<text text-anchor="middle" x="221" y="-140.5" font-family="Helvetica,sans-Serif" font-size="10.00">dpp::opensslcontext</text>
</a>
</g>
</g>
<!-- Node10&#45;&gt;Node7 -->
<g id="edge10" class="edge"><title>Node10&#45;&gt;Node7</title>
<path fill="none" stroke="#9a32cd" stroke-dasharray="5,2" d="M283.402,-143.874C319.893,-146.6 366.101,-154.032 403,-173 430.723,-187.251 454.24,-216.662 465.275,-232.078"/>
<polygon fill="#9a32cd" stroke="#9a32cd" points="283.588,-140.379 273.383,-143.225 283.135,-147.365 283.588,-140.379"/>
<text text-anchor="middle" x="350" y="-176" font-family="Helvetica,sans-Serif" font-size="10.00"> ssl</text>
</g>
<!-- Node11 -->
<g id="node11" class="node"><title>Node11</title>
<g id="a_node11"><a xlink:title=" ">
<polygon fill="white" stroke="#bfbfbf" points="26.5,-133.5 26.5,-152.5 68.5,-152.5 68.5,-133.5 26.5,-133.5"/>
<text text-anchor="middle" x="47.5" y="-140.5" font-family="Helvetica,sans-Serif" font-size="10.00">SSL *</text>
</a>
</g>
</g>
<!-- Node11&#45;&gt;Node10 -->
<g id="edge11" class="edge"><title>Node11&#45;&gt;Node10</title>
<path fill="none" stroke="#9a32cd" stroke-dasharray="5,2" d="M78.7675,-143C103.613,-143 139.349,-143 168.657,-143"/>
<polygon fill="#9a32cd" stroke="#9a32cd" points="78.5089,-139.5 68.5089,-143 78.5088,-146.5 78.5089,-139.5"/>
<text text-anchor="middle" x="129" y="-146" font-family="Helvetica,sans-Serif" font-size="10.00"> ssl</text>
</g>
<!-- Node12 -->
<g id="node12" class="node"><title>Node12</title>
<g id="a_node12"><a xlink:title=" ">
<polygon fill="white" stroke="#bfbfbf" points="13.5,-0.5 13.5,-19.5 81.5,-19.5 81.5,-0.5 13.5,-0.5"/>
<text text-anchor="middle" x="47.5" y="-7.5" font-family="Helvetica,sans-Serif" font-size="10.00">SSL_CTX *</text>
</a>
</g>
</g>
<!-- Node12&#45;&gt;Node10 -->
<g id="edge12" class="edge"><title>Node12&#45;&gt;Node10</title>
<path fill="none" stroke="#9a32cd" stroke-dasharray="5,2" d="M63.5901,-27.2275C84.2519,-50.0333 123.328,-90.4515 163,-117 172.672,-123.473 184.217,-129.077 194.379,-133.407"/>
<polygon fill="#9a32cd" stroke="#9a32cd" points="66.1178,-24.8036 56.8439,-19.6805 60.8989,-29.4687 66.1178,-24.8036"/>
<text text-anchor="middle" x="129" y="-105" font-family="Helvetica,sans-Serif" font-size="10.00"> ctx</text>
</g>
<!-- Node13 -->
<g id="node13" class="node"><title>Node13</title>
<g id="a_node13"><a xlink:title=" ">
<polygon fill="white" stroke="#bfbfbf" points="199,-703.5 199,-722.5 243,-722.5 243,-703.5 199,-703.5"/>
<text text-anchor="middle" x="221" y="-710.5" font-family="Helvetica,sans-Serif" font-size="10.00">time_t</text>
</a>
</g>
</g>
<!-- Node13&#45;&gt;Node5 -->
<g id="edge35" class="edge"><title>Node13&#45;&gt;Node5</title>
<path fill="none" stroke="#9a32cd" stroke-dasharray="5,2" d="M234.596,-731.179C247.511,-750.609 267.312,-782.72 279,-813 292.28,-847.404 271.444,-867.412 297,-894 330.767,-929.13 362.02,-895.637 403,-922 413.625,-928.835 412.027,-935.107 421,-944 470.4,-992.957 477.394,-1018.91 543,-1042 703.615,-1098.52 780.134,-1023.93 900,-903 937.019,-865.653 956.949,-803.371 963.519,-779.611"/>
<polygon fill="#9a32cd" stroke="#9a32cd" points="237.377,-729.044 228.875,-722.723 231.579,-732.967 237.377,-729.044"/>
<text text-anchor="middle" x="584.5" y="-1074" font-family="Helvetica,sans-Serif" font-size="10.00"> last_heartbeat</text>
<text text-anchor="middle" x="584.5" y="-1063" font-family="Helvetica,sans-Serif" font-size="10.00">last_heartbeat_ack</text>
</g>
<!-- Node13&#45;&gt;Node7 -->
<g id="edge13" class="edge"><title>Node13&#45;&gt;Node7</title>
<path fill="none" stroke="#9a32cd" stroke-dasharray="5,2" d="M242.536,-696.631C255.412,-685.085 271.031,-668.436 279,-650 298.726,-604.364 267.427,-466.965 297,-427 327.142,-386.265 365.896,-419.514 403,-385 444.578,-346.325 463.92,-277.297 469.89,-251.808"/>
<polygon fill="#9a32cd" stroke="#9a32cd" points="239.896,-694.284 234.579,-703.449 244.45,-699.6 239.896,-694.284"/>
<text text-anchor="middle" x="350" y="-430" font-family="Helvetica,sans-Serif" font-size="10.00"> last_tick</text>
</g>
<!-- Node13&#45;&gt;Node16 -->
<g id="edge18" class="edge"><title>Node13&#45;&gt;Node16</title>
<path fill="none" stroke="#9a32cd" stroke-dasharray="5,2" d="M253.429,-719.522C321.275,-732.883 486.594,-761.579 626,-755 639.406,-754.367 654.132,-753.093 666.894,-751.804"/>
<polygon fill="#9a32cd" stroke="#9a32cd" points="253.888,-716.045 243.396,-717.517 252.516,-722.909 253.888,-716.045"/>
<text text-anchor="middle" x="473" y="-758" font-family="Helvetica,sans-Serif" font-size="10.00"> last_identify</text>
</g>
<!-- Node13&#45;&gt;Node30 -->
<g id="edge48" class="edge"><title>Node13&#45;&gt;Node30</title>
<path fill="none" stroke="#9a32cd" stroke-dasharray="5,2" d="M253.34,-709.213C293.688,-702.674 363.313,-685.485 403,-642 422.343,-620.806 400.176,-599.74 421,-580 578.514,-430.69 686.777,-525.503 900,-485 905.754,-483.907 911.778,-482.707 917.747,-481.483"/>
<polygon fill="#9a32cd" stroke="#9a32cd" points="252.639,-705.779 243.268,-710.722 253.676,-712.701 252.639,-705.779"/>
<text text-anchor="middle" x="584.5" y="-508" font-family="Helvetica,sans-Serif" font-size="10.00"> last_heartbeat</text>
</g>
<!-- Node14 -->
<g id="node14" class="node"><title>Node14</title>
<g id="a_node14"><a xlink:title=" ">
<polygon fill="white" stroke="#bfbfbf" points="22,-957.5 22,-976.5 73,-976.5 73,-957.5 22,-957.5"/>
<text text-anchor="middle" x="47.5" y="-964.5" font-family="Helvetica,sans-Serif" font-size="10.00">uint64_t</text>
</a>
</g>
</g>
<!-- Node14&#45;&gt;Node1 -->
<g id="edge52" class="edge"><title>Node14&#45;&gt;Node1</title>
<path fill="none" stroke="#9a32cd" stroke-dasharray="5,2" d="M55.4877,-986.207C74.1512,-1033.73 129.959,-1153 220,-1153 220,-1153 220,-1153 1132.5,-1153 1239.26,-1153 1268.83,-728.296 1272.96,-658.618"/>
<polygon fill="#9a32cd" stroke="#9a32cd" points="58.714,-984.844 51.8918,-976.738 52.17,-987.329 58.714,-984.844"/>
<text text-anchor="middle" x="701" y="-1156" font-family="Helvetica,sans-Serif" font-size="10.00"> voice_channel_id</text>
</g>
<!-- Node14&#45;&gt;Node5 -->
<g id="edge37" class="edge"><title>Node14&#45;&gt;Node5</title>
<path fill="none" stroke="#9a32cd" stroke-dasharray="5,2" d="M59.1287,-985.186C82.799,-1023.08 143.82,-1107 220,-1107 220,-1107 220,-1107 702,-1107 808.258,-1107 836.11,-1057.91 900,-973 947.462,-909.927 961.634,-811.279 965.056,-779.919"/>
<polygon fill="#9a32cd" stroke="#9a32cd" points="62.111,-983.354 53.9291,-976.623 56.1276,-986.987 62.111,-983.354"/>
<text text-anchor="middle" x="473" y="-1110" font-family="Helvetica,sans-Serif" font-size="10.00"> last_seq</text>
</g>
<!-- Node14&#45;&gt;Node7 -->
<g id="edge14" class="edge"><title>Node14&#45;&gt;Node7</title>
<path fill="none" stroke="#9a32cd" stroke-dasharray="5,2" d="M50.0917,-947.156C58.0318,-851.856 95.6759,-441.392 163,-335 202.175,-273.092 227.249,-261.407 297,-239 341.842,-224.595 396.537,-228.733 432.715,-234.241"/>
<polygon fill="#9a32cd" stroke="#9a32cd" points="46.5993,-946.922 49.2707,-957.174 53.5759,-947.494 46.5993,-946.922"/>
<text text-anchor="middle" x="221" y="-349" font-family="Helvetica,sans-Serif" font-size="10.00"> bytes_in</text>
<text text-anchor="middle" x="221" y="-338" font-family="Helvetica,sans-Serif" font-size="10.00">bytes_out</text>
</g>
<!-- Node21 -->
<g id="node21" class="node"><title>Node21</title>
<g id="a_node21"><a xlink:href="classdpp_1_1managed.html" target="_top" xlink:title="The managed class is the base class for various types that can be stored in a cache that are identifi...">
<polygon fill="white" stroke="black" points="182,-1009.5 182,-1028.5 260,-1028.5 260,-1009.5 182,-1009.5"/>
<text text-anchor="middle" x="221" y="-1016.5" font-family="Helvetica,sans-Serif" font-size="10.00">dpp::managed</text>
</a>
</g>
</g>
<!-- Node14&#45;&gt;Node21 -->
<g id="edge25" class="edge"><title>Node14&#45;&gt;Node21</title>
<path fill="none" stroke="#9a32cd" stroke-dasharray="5,2" d="M82.9477,-977.445C113.773,-986.791 158.586,-1000.38 188.482,-1009.44"/>
<polygon fill="#9a32cd" stroke="#9a32cd" points="83.6571,-974.003 73.0718,-974.45 81.626,-980.701 83.6571,-974.003"/>
<text text-anchor="middle" x="129" y="-999" font-family="Helvetica,sans-Serif" font-size="10.00"> id</text>
</g>
<!-- Node23 -->
<g id="node23" class="node"><title>Node23</title>
<g id="a_node23"><a xlink:href="structdpp_1_1utility_1_1iconhash.html" target="_top" xlink:title="Store a 128 bit icon hash (profile picture, server icon etc) as a 128 bit binary value made of two ui...">
<polygon fill="white" stroke="black" points="167.5,-883.5 167.5,-902.5 274.5,-902.5 274.5,-883.5 167.5,-883.5"/>
<text text-anchor="middle" x="221" y="-890.5" font-family="Helvetica,sans-Serif" font-size="10.00">dpp::utility::iconhash</text>
</a>
</g>
</g>
<!-- Node14&#45;&gt;Node23 -->
<g id="edge29" class="edge"><title>Node14&#45;&gt;Node23</title>
<path fill="none" stroke="#9a32cd" stroke-dasharray="5,2" d="M80.0708,-953.378C114.21,-938.647 167.756,-915.543 197.744,-902.603"/>
<polygon fill="#9a32cd" stroke="#9a32cd" points="78.3646,-950.302 70.5695,-957.477 81.1379,-956.729 78.3646,-950.302"/>
<text text-anchor="middle" x="129" y="-952" font-family="Helvetica,sans-Serif" font-size="10.00"> first</text>
<text text-anchor="middle" x="129" y="-941" font-family="Helvetica,sans-Serif" font-size="10.00">second</text>
</g>
<!-- Node14&#45;&gt;Node30 -->
<g id="edge51" class="edge"><title>Node14&#45;&gt;Node30</title>
<path fill="none" stroke="#9a32cd" stroke-dasharray="5,2" d="M49.3241,-947.146C54.3429,-828.539 81.625,-216.152 113,-139 137.866,-77.8541 153.991,-36 220,-36 220,-36 220,-36 702,-36 902.754,-36 955.124,-378.781 964.355,-455.773"/>
<polygon fill="#9a32cd" stroke="#9a32cd" points="45.8199,-947.176 48.8975,-957.314 52.8137,-947.47 45.8199,-947.176"/>
<text text-anchor="middle" x="473" y="-50" font-family="Helvetica,sans-Serif" font-size="10.00"> channel_id</text>
<text text-anchor="middle" x="473" y="-39" font-family="Helvetica,sans-Serif" font-size="10.00">server_id</text>
</g>
<!-- Node15 -->
<g id="node15" class="node"><title>Node15</title>
<g id="a_node15"><a xlink:title=" ">
<polygon fill="white" stroke="#bfbfbf" points="192.5,-366.5 192.5,-385.5 249.5,-385.5 249.5,-366.5 192.5,-366.5"/>
<text text-anchor="middle" x="221" y="-373.5" font-family="Helvetica,sans-Serif" font-size="10.00">function&lt;</text>
</a>
</g>
</g>
<!-- Node15&#45;&gt;Node7 -->
<g id="edge15" class="edge"><title>Node15&#45;&gt;Node7</title>
<path fill="none" stroke="#9a32cd" stroke-dasharray="5,2" d="M228.239,-356.823C238.115,-329.869 260.11,-281.556 297,-259 319.006,-245.544 388.223,-242.446 432.728,-241.894"/>
<polygon fill="#9a32cd" stroke="#9a32cd" points="224.916,-355.723 224.94,-366.317 231.528,-358.02 224.916,-355.723"/>
<text text-anchor="middle" x="350" y="-295" font-family="Helvetica,sans-Serif" font-size="10.00"> custom_readable_fd</text>
<text text-anchor="middle" x="350" y="-284" font-family="Helvetica,sans-Serif" font-size="10.00">custom_readable_ready</text>
<text text-anchor="middle" x="350" y="-273" font-family="Helvetica,sans-Serif" font-size="10.00">custom_writeable_fd</text>
<text text-anchor="middle" x="350" y="-262" font-family="Helvetica,sans-Serif" font-size="10.00">custom_writeable_ready</text>
</g>
<!-- Node19 -->
<g id="node19" class="node"><title>Node19</title>
<g id="a_node19"><a xlink:href="classdpp_1_1dispatcher.html" target="_top" xlink:title="The dispatcher class contains a set of std::functions representing hooked events that the user code i...">
<polygon fill="white" stroke="black" points="431.5,-589.5 431.5,-608.5 514.5,-608.5 514.5,-589.5 431.5,-589.5"/>
<text text-anchor="middle" x="473" y="-596.5" font-family="Helvetica,sans-Serif" font-size="10.00">dpp::dispatcher</text>
</a>
</g>
</g>
<!-- Node15&#45;&gt;Node19 -->
<g id="edge22" class="edge"><title>Node15&#45;&gt;Node19</title>
<path fill="none" stroke="#9a32cd" stroke-dasharray="5,2" d="M240.414,-392.644C255.33,-405.897 277.067,-424.697 297,-440 342.373,-474.834 361.101,-474.056 403,-513 429.5,-537.631 454.48,-572.768 465.74,-589.473"/>
<polygon fill="#9a32cd" stroke="#9a32cd" points="242.671,-389.967 232.884,-385.91 238.005,-395.185 242.671,-389.967"/>
<text text-anchor="start" x="301" y="-659" font-family="Helvetica,sans-Serif" font-size="10.00"> application_command</text>
<text text-anchor="middle" x="350" y="-648" font-family="Helvetica,sans-Serif" font-size="10.00">_create</text>
<text text-anchor="start" x="301" y="-637" font-family="Helvetica,sans-Serif" font-size="10.00">application_command</text>
<text text-anchor="middle" x="350" y="-626" font-family="Helvetica,sans-Serif" font-size="10.00">_delete</text>
<text text-anchor="start" x="301" y="-615" font-family="Helvetica,sans-Serif" font-size="10.00">application_command</text>
<text text-anchor="middle" x="350" y="-604" font-family="Helvetica,sans-Serif" font-size="10.00">_update</text>
<text text-anchor="middle" x="350" y="-593" font-family="Helvetica,sans-Serif" font-size="10.00">button_click</text>
<text text-anchor="middle" x="350" y="-582" font-family="Helvetica,sans-Serif" font-size="10.00">channel_create</text>
<text text-anchor="middle" x="350" y="-571" font-family="Helvetica,sans-Serif" font-size="10.00">channel_delete</text>
<text text-anchor="middle" x="350" y="-560" font-family="Helvetica,sans-Serif" font-size="10.00">channel_pins_update</text>
<text text-anchor="middle" x="350" y="-549" font-family="Helvetica,sans-Serif" font-size="10.00">channel_update</text>
<text text-anchor="middle" x="350" y="-538" font-family="Helvetica,sans-Serif" font-size="10.00">guild_ban_add</text>
<text text-anchor="middle" x="350" y="-527" font-family="Helvetica,sans-Serif" font-size="10.00">guild_ban_remove</text>
<text text-anchor="middle" x="350" y="-516" font-family="Helvetica,sans-Serif" font-size="10.00">...</text>
</g>
<!-- Node16&#45;&gt;Node5 -->
<g id="edge16" class="edge"><title>Node16&#45;&gt;Node5</title>
<path fill="none" stroke="#9a32cd" stroke-dasharray="5,2" d="M745.583,-749.984C785.75,-752.02 846.984,-755.651 900,-761 905.753,-761.58 911.776,-762.277 917.745,-763.023"/>
<polygon fill="#9a32cd" stroke="#9a32cd" points="745.502,-746.476 735.341,-749.476 745.155,-753.467 745.502,-746.476"/>
<text text-anchor="middle" x="838" y="-764" font-family="Helvetica,sans-Serif" font-size="10.00"> creator</text>
</g>
<!-- Node16&#45;&gt;Node30 -->
<g id="edge45" class="edge"><title>Node16&#45;&gt;Node30</title>
<path fill="none" stroke="#9a32cd" stroke-dasharray="5,2" d="M744.233,-735.228C788.621,-719.803 857.749,-689.804 900,-642 941.726,-594.789 958.389,-518.314 963.797,-486.085"/>
<polygon fill="#9a32cd" stroke="#9a32cd" points="742.962,-731.963 734.609,-738.479 745.203,-738.595 742.962,-731.963"/>
<text text-anchor="middle" x="838" y="-727" font-family="Helvetica,sans-Serif" font-size="10.00"> creator</text>
</g>
<!-- Node17 -->
<g id="node17" class="node"><title>Node17</title>
<g id="a_node17"><a xlink:title=" ">
<polygon fill="white" stroke="#bfbfbf" points="195.5,-822.5 195.5,-841.5 246.5,-841.5 246.5,-822.5 195.5,-822.5"/>
<text text-anchor="middle" x="221" y="-829.5" font-family="Helvetica,sans-Serif" font-size="10.00">uint32_t</text>
</a>
</g>
</g>
<!-- Node17&#45;&gt;Node5 -->
<g id="edge34" class="edge"><title>Node17&#45;&gt;Node5</title>
<path fill="none" stroke="#9a32cd" stroke-dasharray="5,2" d="M250.722,-846.849C261.236,-853.714 272.208,-862.844 279,-874 305.446,-917.439 258.315,-953.989 297,-987 332.837,-1017.58 356.024,-990.561 403,-987 415.496,-986.053 617.274,-961.995 626,-953 672.14,-905.442 596.847,-851.555 644,-805 663.107,-786.135 832.946,-775.937 917.961,-771.975"/>
<polygon fill="#9a32cd" stroke="#9a32cd" points="252.467,-843.814 242.101,-841.621 248.837,-849.799 252.467,-843.814"/>
<text text-anchor="middle" x="584.5" y="-1026" font-family="Helvetica,sans-Serif" font-size="10.00"> heartbeat_interval</text>
<text text-anchor="middle" x="584.5" y="-1015" font-family="Helvetica,sans-Serif" font-size="10.00">intents</text>
<text text-anchor="middle" x="584.5" y="-1004" font-family="Helvetica,sans-Serif" font-size="10.00">max_shards</text>
<text text-anchor="middle" x="584.5" y="-993" font-family="Helvetica,sans-Serif" font-size="10.00">reconnects</text>
<text text-anchor="middle" x="584.5" y="-982" font-family="Helvetica,sans-Serif" font-size="10.00">resumes</text>
<text text-anchor="middle" x="584.5" y="-971" font-family="Helvetica,sans-Serif" font-size="10.00">shard_id</text>
</g>
<!-- Node17&#45;&gt;Node16 -->
<g id="edge19" class="edge"><title>Node17&#45;&gt;Node16</title>
<path fill="none" stroke="#9a32cd" stroke-dasharray="5,2" d="M256.896,-828.274C327.265,-820.402 490.989,-800.28 626,-770 641.04,-766.627 657.5,-761.845 671.07,-757.6"/>
<polygon fill="#9a32cd" stroke="#9a32cd" points="256.368,-824.811 246.813,-829.389 257.137,-831.768 256.368,-824.811"/>
<text text-anchor="middle" x="473" y="-843" font-family="Helvetica,sans-Serif" font-size="10.00"> cluster_id</text>
<text text-anchor="middle" x="473" y="-832" font-family="Helvetica,sans-Serif" font-size="10.00">intents</text>
<text text-anchor="middle" x="473" y="-821" font-family="Helvetica,sans-Serif" font-size="10.00">maxclusters</text>
<text text-anchor="middle" x="473" y="-810" font-family="Helvetica,sans-Serif" font-size="10.00">numshards</text>
</g>
<!-- Node17&#45;&gt;Node20 -->
<g id="edge30" class="edge"><title>Node17&#45;&gt;Node20</title>
<path fill="none" stroke="#9a32cd" stroke-dasharray="5,2" d="M256.922,-839.683C307.037,-850.708 398.348,-870.796 444.185,-880.881"/>
<polygon fill="#9a32cd" stroke="#9a32cd" points="257.403,-836.205 246.885,-837.475 255.899,-843.042 257.403,-836.205"/>
<text text-anchor="middle" x="350" y="-873" font-family="Helvetica,sans-Serif" font-size="10.00"> flags</text>
</g>
<!-- Node17&#45;&gt;Node30 -->
<g id="edge47" class="edge"><title>Node17&#45;&gt;Node30</title>
<path fill="none" stroke="#9a32cd" stroke-dasharray="5,2" d="M234.455,-814.125C248.205,-795.293 271.759,-765.57 297,-745 386.917,-671.724 460.006,-714.074 525,-618 560.399,-565.674 500.985,-524.179 543,-477 591.295,-422.768 817.38,-448.74 917.766,-463.367"/>
<polygon fill="#9a32cd" stroke="#9a32cd" points="231.501,-812.238 228.528,-822.407 237.194,-816.311 231.501,-812.238"/>
<text text-anchor="middle" x="584.5" y="-480" font-family="Helvetica,sans-Serif" font-size="10.00"> heartbeat_interval</text>
</g>
<!-- Node18 -->
<g id="node18" class="node"><title>Node18</title>
<g id="a_node18"><a xlink:title=" ">
<polygon fill="white" stroke="#bfbfbf" points="450.5,-915.5 450.5,-934.5 495.5,-934.5 495.5,-915.5 450.5,-915.5"/>
<text text-anchor="middle" x="473" y="-922.5" font-family="Helvetica,sans-Serif" font-size="10.00">double</text>
</a>
</g>
</g>
<!-- Node18&#45;&gt;Node5 -->
<g id="edge40" class="edge"><title>Node18&#45;&gt;Node5</title>
<path fill="none" stroke="#9a32cd" stroke-dasharray="5,2" d="M505.924,-923.097C599.211,-917.312 866.888,-899.04 900,-878 937.278,-854.312 956.705,-801.243 963.332,-779.533"/>
<polygon fill="#9a32cd" stroke="#9a32cd" points="505.455,-919.619 495.688,-923.725 505.884,-926.606 505.455,-919.619"/>
<text text-anchor="middle" x="701" y="-916" font-family="Helvetica,sans-Serif" font-size="10.00"> websocket_ping</text>
</g>
<!-- Node18&#45;&gt;Node16 -->
<g id="edge20" class="edge"><title>Node18&#45;&gt;Node16</title>
<path fill="none" stroke="#9a32cd" stroke-dasharray="5,2" d="M505.43,-916.381C512.248,-913.691 519.159,-910.274 525,-906 535.476,-898.335 532.203,-890.206 543,-883 574.839,-861.75 599.876,-887.979 626,-860 653.244,-830.821 618.779,-802.945 644,-772 649.881,-764.785 658.335,-759.694 666.9,-756.12"/>
<polygon fill="#9a32cd" stroke="#9a32cd" points="503.918,-913.203 495.643,-919.819 506.238,-919.807 503.918,-913.203"/>
<text text-anchor="middle" x="584.5" y="-886" font-family="Helvetica,sans-Serif" font-size="10.00"> rest_ping</text>
</g>
<!-- Node19&#45;&gt;Node16 -->
<g id="edge21" class="edge"><title>Node19&#45;&gt;Node16</title>
<path fill="none" stroke="#9a32cd" stroke-dasharray="5,2" d="M482.543,-617.968C493.441,-640.014 514.367,-675.928 543,-696 574.344,-717.973 589.687,-706.889 626,-719 643.409,-724.806 662.703,-732.407 677.224,-738.37"/>
<polygon fill="#9a32cd" stroke="#9a32cd" points="485.574,-616.193 478.128,-608.656 479.249,-619.191 485.574,-616.193"/>
<text text-anchor="middle" x="584.5" y="-722" font-family="Helvetica,sans-Serif" font-size="10.00"> dispatch</text>
</g>
<!-- Node20&#45;&gt;Node16 -->
<g id="edge23" class="edge"><title>Node20&#45;&gt;Node16</title>
<path fill="none" stroke="#9a32cd" stroke-dasharray="5,2" d="M506.252,-873.148C512.602,-870.054 519.116,-866.611 525,-863 533.638,-857.699 533.944,-853.551 543,-849 577.203,-831.811 598.246,-852.363 626,-826 644.343,-808.577 626.87,-790.617 644,-772 650.159,-765.306 658.5,-760.401 666.862,-756.838"/>
<polygon fill="#9a32cd" stroke="#9a32cd" points="504.728,-869.997 497.159,-877.41 507.699,-876.336 504.728,-869.997"/>
<text text-anchor="middle" x="584.5" y="-852" font-family="Helvetica,sans-Serif" font-size="10.00"> me</text>
</g>
<!-- Node21&#45;&gt;Node20 -->
<g id="edge24" class="edge"><title>Node21&#45;&gt;Node20</title>
<path fill="none" stroke="midnightblue" d="M270.505,-1025.37C311.173,-1027.83 368.049,-1024.07 403,-991 431.048,-964.459 395.787,-935.249 421,-906 426.984,-899.058 435.755,-894.649 444.343,-891.85"/>
<polygon fill="midnightblue" stroke="midnightblue" points="270.512,-1021.86 260.278,-1024.6 269.988,-1028.84 270.512,-1021.86"/>
</g>
<!-- Node22 -->
<g id="node22" class="node"><title>Node22</title>
<g id="a_node22"><a xlink:title=" ">
<polygon fill="white" stroke="#bfbfbf" points="195.5,-967.5 195.5,-986.5 246.5,-986.5 246.5,-967.5 195.5,-967.5"/>
<text text-anchor="middle" x="221" y="-974.5" font-family="Helvetica,sans-Serif" font-size="10.00">uint16_t</text>
</a>
</g>
</g>
<!-- Node22&#45;&gt;Node20 -->
<g id="edge27" class="edge"><title>Node22&#45;&gt;Node20</title>
<path fill="none" stroke="#9a32cd" stroke-dasharray="5,2" d="M256.806,-978.652C296.137,-978.729 360.234,-973.246 403,-941 416.967,-930.469 407.921,-917.615 421,-906 427.57,-900.165 436.097,-896.062 444.293,-893.203"/>
<polygon fill="#9a32cd" stroke="#9a32cd" points="256.697,-975.15 246.647,-978.507 256.596,-982.149 256.697,-975.15"/>
<text text-anchor="middle" x="350" y="-979" font-family="Helvetica,sans-Serif" font-size="10.00"> discriminator</text>
</g>
<!-- Node23&#45;&gt;Node20 -->
<g id="edge28" class="edge"><title>Node23&#45;&gt;Node20</title>
<path fill="none" stroke="#9a32cd" stroke-dasharray="5,2" d="M284.718,-891.495C336.073,-890.262 406.269,-888.578 444.475,-887.661"/>
<polygon fill="#9a32cd" stroke="#9a32cd" points="284.626,-887.996 274.713,-891.735 284.794,-894.994 284.626,-887.996"/>
<text text-anchor="middle" x="350" y="-894" font-family="Helvetica,sans-Serif" font-size="10.00"> avatar</text>
</g>
<!-- Node24 -->
<g id="node24" class="node"><title>Node24</title>
<g id="a_node24"><a xlink:title=" ">
<polygon fill="white" stroke="#bfbfbf" points="198,-929.5 198,-948.5 244,-948.5 244,-929.5 198,-929.5"/>
<text text-anchor="middle" x="221" y="-936.5" font-family="Helvetica,sans-Serif" font-size="10.00">uint8_t</text>
</a>
</g>
</g>
<!-- Node24&#45;&gt;Node20 -->
<g id="edge31" class="edge"><title>Node24&#45;&gt;Node20</title>
<path fill="none" stroke="#9a32cd" stroke-dasharray="5,2" d="M254.148,-934.02C290.473,-928.189 351.276,-917.812 403,-906 416.688,-902.874 431.736,-898.806 444.276,-895.236"/>
<polygon fill="#9a32cd" stroke="#9a32cd" points="253.466,-930.584 244.139,-935.611 254.565,-937.498 253.466,-930.584"/>
<text text-anchor="middle" x="350" y="-929" font-family="Helvetica,sans-Serif" font-size="10.00"> refcount</text>
</g>
<!-- Node25 -->
<g id="node25" class="node"><title>Node25</title>
<g id="a_node25"><a xlink:href="structdpp_1_1cache__policy__t.html" target="_top" xlink:title="Represents the caching policy of the cluster.">
<polygon fill="white" stroke="black" points="421,-1048.5 421,-1067.5 525,-1067.5 525,-1048.5 421,-1048.5"/>
<text text-anchor="middle" x="473" y="-1055.5" font-family="Helvetica,sans-Serif" font-size="10.00">dpp::cache_policy_t</text>
</a>
</g>
</g>
<!-- Node25&#45;&gt;Node16 -->
<g id="edge32" class="edge"><title>Node25&#45;&gt;Node16</title>
<path fill="none" stroke="#9a32cd" stroke-dasharray="5,2" d="M481.432,-1039C491.962,-1014.1 513.3,-970.275 543,-942 573.24,-913.211 601.158,-931.557 626,-898 651.05,-864.163 624.415,-842.267 644,-805 654.326,-785.352 673.619,-767.998 686.637,-757.746"/>
<polygon fill="#9a32cd" stroke="#9a32cd" points="478.128,-1037.83 477.588,-1048.41 484.609,-1040.48 478.128,-1037.83"/>
<text text-anchor="middle" x="584.5" y="-945" font-family="Helvetica,sans-Serif" font-size="10.00"> cache_policy</text>
</g>
<!-- Node26 -->
<g id="node26" class="node"><title>Node26</title>
<g id="a_node26"><a xlink:title=" ">
<polygon fill="white" stroke="#bfbfbf" points="163,-1049.5 163,-1068.5 279,-1068.5 279,-1049.5 163,-1049.5"/>
<text text-anchor="middle" x="221" y="-1056.5" font-family="Helvetica,sans-Serif" font-size="10.00">cache_policy_setting_t</text>
</a>
</g>
</g>
<!-- Node26&#45;&gt;Node25 -->
<g id="edge33" class="edge"><title>Node26&#45;&gt;Node25</title>
<path fill="none" stroke="#9a32cd" stroke-dasharray="5,2" d="M289.302,-1058.73C330.633,-1058.57 382.744,-1058.36 420.725,-1058.21"/>
<polygon fill="#9a32cd" stroke="#9a32cd" points="289.028,-1055.23 279.042,-1058.77 289.056,-1062.23 289.028,-1055.23"/>
<text text-anchor="middle" x="350" y="-1083" font-family="Helvetica,sans-Serif" font-size="10.00"> emoji_policy</text>
<text text-anchor="middle" x="350" y="-1072" font-family="Helvetica,sans-Serif" font-size="10.00">role_policy</text>
<text text-anchor="middle" x="350" y="-1061" font-family="Helvetica,sans-Serif" font-size="10.00">user_policy</text>
</g>
<!-- Node27 -->
<g id="node27" class="node"><title>Node27</title>
<g id="a_node27"><a xlink:title=" ">
<polygon fill="white" stroke="#bfbfbf" points="650.5,-537.5 650.5,-556.5 751.5,-556.5 751.5,-537.5 650.5,-537.5"/>
<text text-anchor="middle" x="701" y="-544.5" font-family="Helvetica,sans-Serif" font-size="10.00">native_handle_type</text>
</a>
</g>
</g>
<!-- Node27&#45;&gt;Node5 -->
<g id="edge36" class="edge"><title>Node27&#45;&gt;Node5</title>
<path fill="none" stroke="#9a32cd" stroke-dasharray="5,2" d="M735.549,-560.447C743.033,-563.703 750.863,-567.314 758,-571 766.33,-575.302 767.551,-577.936 776,-582 828.834,-607.413 856.834,-587.327 900,-627 941.673,-665.301 959.105,-735.159 964.252,-760.498"/>
<polygon fill="#9a32cd" stroke="#9a32cd" points="736.904,-557.22 726.332,-556.534 734.168,-563.664 736.904,-557.22"/>
<text text-anchor="middle" x="838" y="-630" font-family="Helvetica,sans-Serif" font-size="10.00"> thread_id</text>
</g>
<!-- Node27&#45;&gt;Node30 -->
<g id="edge49" class="edge"><title>Node27&#45;&gt;Node30</title>
<path fill="none" stroke="#9a32cd" stroke-dasharray="5,2" d="M761.984,-546.555C802.322,-544.419 855.965,-537.951 900,-520 919.294,-512.135 938.048,-497.303 950.602,-486.01"/>
<polygon fill="#9a32cd" stroke="#9a32cd" points="761.599,-543.069 751.768,-547.019 761.916,-550.062 761.599,-543.069"/>
<text text-anchor="middle" x="838" y="-549" font-family="Helvetica,sans-Serif" font-size="10.00"> thread_id</text>
</g>
<!-- Node28 -->
<g id="node28" class="node"><title>Node28</title>
<g id="a_node28"><a xlink:title=" ">
<polygon fill="white" stroke="#bfbfbf" points="669.5,-814.5 669.5,-833.5 732.5,-833.5 732.5,-814.5 669.5,-814.5"/>
<text text-anchor="middle" x="701" y="-821.5" font-family="Helvetica,sans-Serif" font-size="10.00">std::mutex</text>
</a>
</g>
</g>
<!-- Node28&#45;&gt;Node5 -->
<g id="edge39" class="edge"><title>Node28&#45;&gt;Node5</title>
<path fill="none" stroke="#9a32cd" stroke-dasharray="5,2" d="M742.795,-822.688C783.333,-820.543 846.943,-814.891 900,-800 917.329,-795.136 935.892,-786.345 948.903,-779.532"/>
<polygon fill="#9a32cd" stroke="#9a32cd" points="742.575,-819.194 732.756,-823.172 742.913,-826.186 742.575,-819.194"/>
<text text-anchor="middle" x="838" y="-824" font-family="Helvetica,sans-Serif" font-size="10.00"> voice_mutex</text>
</g>
<!-- Node29 -->
<g id="node29" class="node"><title>Node29</title>
<g id="a_node29"><a xlink:title=" ">
<polygon fill="white" stroke="#bfbfbf" points="656.5,-852.5 656.5,-871.5 745.5,-871.5 745.5,-852.5 656.5,-852.5"/>
<text text-anchor="middle" x="701" y="-859.5" font-family="Helvetica,sans-Serif" font-size="10.00">unordered_map&lt;</text>
</a>
</g>
</g>
<!-- Node29&#45;&gt;Node5 -->
<g id="edge42" class="edge"><title>Node29&#45;&gt;Node5</title>
<path fill="none" stroke="#9a32cd" stroke-dasharray="5,2" d="M755.794,-864.113C797.221,-863.631 854.848,-858.257 900,-836 926.744,-822.817 949.139,-794.489 959.621,-779.597"/>
<polygon fill="#9a32cd" stroke="#9a32cd" points="755.62,-860.613 745.629,-864.137 755.637,-867.613 755.62,-860.613"/>
<text text-anchor="middle" x="838" y="-866" font-family="Helvetica,sans-Serif" font-size="10.00"> connecting_voice_channels</text>
</g>
<!-- Node30&#45;&gt;Node1 -->
<g id="edge43" class="edge"><title>Node30&#45;&gt;Node1</title>
<path fill="none" stroke="#9a32cd" stroke-dasharray="5,2" d="M1002.54,-491.122C1068.21,-529.388 1208.84,-611.326 1256.96,-639.361"/>
<polygon fill="#9a32cd" stroke="#9a32cd" points="1004.19,-488.033 993.783,-486.023 1000.66,-494.081 1004.19,-488.033"/>
<text text-anchor="middle" x="1131.5" y="-602" font-family="Helvetica,sans-Serif" font-size="10.00"> voice_client</text>
</g>
</g>
</svg>
