<?xml version="1.0" encoding="UTF-8" standalone="no"?>
<!DOCTYPE svg PUBLIC "-//W3C//DTD SVG 1.1//EN"
 "http://www.w3.org/Graphics/SVG/1.1/DTD/svg11.dtd">
<!-- Generated by graphviz version 2.43.0 (0)
 -->
<!-- Title: dpp::log_t Pages: 1 -->
<svg width="1448pt" height="1121pt"
 viewBox="0.00 0.00 1448.00 1121.22" xmlns="http://www.w3.org/2000/svg" xmlns:xlink="http://www.w3.org/1999/xlink">
<g id="graph0" class="graph" transform="scale(1 1) rotate(0) translate(4 1117.22)">
<title>dpp::log_t</title>
<!-- Node1 -->
<g id="node1" class="node">
<title>Node1</title>
<g id="a_node1"><a xlink:title="Log messages.">
<polygon fill="#bfbfbf" stroke="black" points="1375,-1053.72 1375,-1072.72 1440,-1072.72 1440,-1053.72 1375,-1053.72"/>
<text text-anchor="middle" x="1407.5" y="-1060.72" font-family="Helvetica,sans-Serif" font-size="10.00">dpp::log_t</text>
</a>
</g>
</g>
<!-- Node2 -->
<g id="node2" class="node">
<title>Node2</title>
<g id="a_node2"><a xlink:href="structdpp_1_1event__dispatch__t.html" target="_top" xlink:title="Base event parameter struct.">
<polygon fill="none" stroke="black" points="1172,-1053.72 1172,-1072.72 1296,-1072.72 1296,-1053.72 1172,-1053.72"/>
<text text-anchor="middle" x="1234" y="-1060.72" font-family="Helvetica,sans-Serif" font-size="10.00">dpp::event_dispatch_t</text>
</a>
</g>
</g>
<!-- Node2&#45;&gt;Node1 -->
<g id="edge1" class="edge">
<title>Node2&#45;&gt;Node1</title>
<path fill="none" stroke="midnightblue" d="M1306.52,-1063.22C1330.31,-1063.22 1355.61,-1063.22 1374.81,-1063.22"/>
<polygon fill="midnightblue" stroke="midnightblue" points="1306.43,-1059.72 1296.43,-1063.22 1306.43,-1066.72 1306.43,-1059.72"/>
</g>
<!-- Node3 -->
<g id="node3" class="node">
<title>Node3</title>
<g id="a_node3"><a xlink:title=" ">
<polygon fill="none" stroke="#bfbfbf" points="206.5,-975.72 206.5,-994.72 271.5,-994.72 271.5,-975.72 206.5,-975.72"/>
<text text-anchor="middle" x="239" y="-982.72" font-family="Helvetica,sans-Serif" font-size="10.00">std::string</text>
</a>
</g>
</g>
<!-- Node3&#45;&gt;Node1 -->
<g id="edge42" class="edge">
<title>Node3&#45;&gt;Node1</title>
<path fill="none" stroke="#9a32cd" stroke-dasharray="5,2" d="M256.05,-1002.57C271.32,-1018.07 295.66,-1040.26 321,-1053.22 400.37,-1093.79 426.35,-1102.22 515.5,-1102.22 515.5,-1102.22 515.5,-1102.22 1235,-1102.22 1287.98,-1102.22 1347.92,-1084.3 1381.05,-1072.76"/>
<polygon fill="#9a32cd" stroke="#9a32cd" points="258.38,-999.95 248.93,-995.16 253.33,-1004.8 258.38,-999.95"/>
<text text-anchor="middle" x="914.5" y="-1105.22" font-family="Helvetica,sans-Serif" font-size="10.00"> message</text>
</g>
<!-- Node3&#45;&gt;Node2 -->
<g id="edge2" class="edge">
<title>Node3&#45;&gt;Node2</title>
<path fill="none" stroke="#9a32cd" stroke-dasharray="5,2" d="M268.6,-998.98C317.83,-1021.37 422.29,-1063.22 515.5,-1063.22 515.5,-1063.22 515.5,-1063.22 1056,-1063.22 1094.57,-1063.22 1137.86,-1063.22 1171.97,-1063.22"/>
<polygon fill="#9a32cd" stroke="#9a32cd" points="270.06,-995.8 259.51,-994.78 267.12,-1002.15 270.06,-995.8"/>
<text text-anchor="middle" x="765.5" y="-1066.22" font-family="Helvetica,sans-Serif" font-size="10.00"> raw_event</text>
</g>
<!-- Node5 -->
<g id="node5" class="node">
<title>Node5</title>
<g id="a_node5"><a xlink:href="classdpp_1_1discord__client.html" target="_top" xlink:title="Implements a discord client. Each discord_client connects to one shard and derives from a websocket c...">
<polygon fill="none" stroke="black" points="1001,-697.72 1001,-716.72 1109,-716.72 1109,-697.72 1001,-697.72"/>
<text text-anchor="middle" x="1055" y="-704.72" font-family="Helvetica,sans-Serif" font-size="10.00">dpp::discord_client</text>
</a>
</g>
</g>
<!-- Node3&#45;&gt;Node5 -->
<g id="edge36" class="edge">
<title>Node3&#45;&gt;Node5</title>
<path fill="none" stroke="#9a32cd" stroke-dasharray="5,2" d="M282.06,-986.34C431.06,-989.94 927.87,-998.56 983,-955.22 1022.25,-924.35 1047,-759.07 1052.72,-716.98"/>
<polygon fill="#9a32cd" stroke="#9a32cd" points="282.02,-982.84 271.94,-986.09 281.85,-989.83 282.02,-982.84"/>
<text text-anchor="middle" x="638" y="-1004.22" font-family="Helvetica,sans-Serif" font-size="10.00"> sessionid</text>
<text text-anchor="middle" x="638" y="-993.22" font-family="Helvetica,sans-Serif" font-size="10.00">token</text>
</g>
<!-- Node7 -->
<g id="node7" class="node">
<title>Node7</title>
<g id="a_node7"><a xlink:href="classdpp_1_1ssl__client.html" target="_top" xlink:title="Implements a simple non&#45;blocking SSL stream client.">
<polygon fill="none" stroke="black" points="473.5,-724.72 473.5,-743.72 559.5,-743.72 559.5,-724.72 473.5,-724.72"/>
<text text-anchor="middle" x="516.5" y="-731.72" font-family="Helvetica,sans-Serif" font-size="10.00">dpp::ssl_client</text>
</a>
</g>
</g>
<!-- Node3&#45;&gt;Node7 -->
<g id="edge7" class="edge">
<title>Node3&#45;&gt;Node7</title>
<path fill="none" stroke="#9a32cd" stroke-dasharray="5,2" d="M253.54,-967.52C268.6,-948.59 294.36,-918.43 321,-897.22 369.43,-858.65 395.16,-868.7 442,-828.22 472.25,-802.07 498.66,-761.92 509.83,-743.74"/>
<polygon fill="#9a32cd" stroke="#9a32cd" points="250.63,-965.55 247.22,-975.59 256.14,-969.87 250.63,-965.55"/>
<text text-anchor="middle" x="381.5" y="-944.22" font-family="Helvetica,sans-Serif" font-size="10.00"> buffer</text>
<text text-anchor="middle" x="381.5" y="-933.22" font-family="Helvetica,sans-Serif" font-size="10.00">cipher</text>
<text text-anchor="middle" x="381.5" y="-922.22" font-family="Helvetica,sans-Serif" font-size="10.00">hostname</text>
<text text-anchor="middle" x="381.5" y="-911.22" font-family="Helvetica,sans-Serif" font-size="10.00">obuffer</text>
<text text-anchor="middle" x="381.5" y="-900.22" font-family="Helvetica,sans-Serif" font-size="10.00">port</text>
</g>
<!-- Node14 -->
<g id="node14" class="node">
<title>Node14</title>
<g id="a_node14"><a xlink:href="classdpp_1_1cluster.html" target="_top" xlink:title="The cluster class represents a group of shards and a command queue for sending and receiving commands...">
<polygon fill="none" stroke="black" points="728.5,-334.72 728.5,-353.72 802.5,-353.72 802.5,-334.72 728.5,-334.72"/>
<text text-anchor="middle" x="765.5" y="-341.72" font-family="Helvetica,sans-Serif" font-size="10.00">dpp::cluster</text>
</a>
</g>
</g>
<!-- Node3&#45;&gt;Node14 -->
<g id="edge15" class="edge">
<title>Node3&#45;&gt;Node14</title>
<path fill="none" stroke="#9a32cd" stroke-dasharray="5,2" d="M281.86,-983.13C333.63,-979.75 417.87,-971.42 442,-952.22 458.53,-939.06 449.7,-926.66 460,-908.22 501.55,-833.78 538.2,-831.04 573,-753.22 588.59,-718.36 577.88,-705.07 591,-669.22 597.29,-652.02 731.16,-405.53 759.33,-353.72"/>
<polygon fill="#9a32cd" stroke="#9a32cd" points="281.42,-979.65 271.65,-983.76 281.85,-986.63 281.42,-979.65"/>
<text text-anchor="middle" x="516.5" y="-911.22" font-family="Helvetica,sans-Serif" font-size="10.00"> token</text>
</g>
<!-- Node18 -->
<g id="node18" class="node">
<title>Node18</title>
<g id="a_node18"><a xlink:href="classdpp_1_1user.html" target="_top" xlink:title="Represents a user on discord. May or may not be a member of a dpp::guild.">
<polygon fill="none" stroke="black" points="485.5,-257.72 485.5,-276.72 547.5,-276.72 547.5,-257.72 485.5,-257.72"/>
<text text-anchor="middle" x="516.5" y="-264.72" font-family="Helvetica,sans-Serif" font-size="10.00">dpp::user</text>
</a>
</g>
</g>
<!-- Node3&#45;&gt;Node18 -->
<g id="edge24" class="edge">
<title>Node3&#45;&gt;Node18</title>
<path fill="none" stroke="#9a32cd" stroke-dasharray="5,2" d="M251.57,-966.73C266.64,-941.51 292.34,-894.39 303,-850.22 315.75,-797.36 286.06,-402.87 321,-361.22 356.35,-319.07 398.71,-369.15 442,-335.22 456.39,-323.93 447.44,-311.51 460,-298.22 468.64,-289.07 480.59,-281.92 491.19,-276.81"/>
<polygon fill="#9a32cd" stroke="#9a32cd" points="248.4,-965.2 246.18,-975.56 254.38,-968.84 248.4,-965.2"/>
<text text-anchor="middle" x="381.5" y="-364.22" font-family="Helvetica,sans-Serif" font-size="10.00"> username</text>
</g>
<!-- Node4 -->
<g id="node4" class="node">
<title>Node4</title>
<g id="a_node4"><a xlink:title=" ">
<polygon fill="none" stroke="#bfbfbf" points="0,-970.22 0,-1000.22 104,-1000.22 104,-970.22 0,-970.22"/>
<text text-anchor="start" x="8" y="-988.22" font-family="Helvetica,sans-Serif" font-size="10.00">std::basic_string&lt;</text>
<text text-anchor="middle" x="52" y="-977.22" font-family="Helvetica,sans-Serif" font-size="10.00"> Char &gt;</text>
</a>
</g>
</g>
<!-- Node4&#45;&gt;Node3 -->
<g id="edge3" class="edge">
<title>Node4&#45;&gt;Node3</title>
<path fill="none" stroke="midnightblue" d="M114.26,-985.22C145.05,-985.22 181.08,-985.22 206.29,-985.22"/>
<polygon fill="midnightblue" stroke="midnightblue" points="114.04,-981.72 104.04,-985.22 114.04,-988.72 114.04,-981.72"/>
</g>
<!-- Node5&#45;&gt;Node2 -->
<g id="edge4" class="edge">
<title>Node5&#45;&gt;Node2</title>
<path fill="none" stroke="#9a32cd" stroke-dasharray="5,2" d="M1056.86,-727.16C1060.43,-784.87 1078.76,-953.69 1172,-1044.22 1175.98,-1048.08 1180.73,-1051.16 1185.8,-1053.61"/>
<polygon fill="#9a32cd" stroke="#9a32cd" points="1060.34,-726.67 1056.31,-716.87 1053.35,-727.04 1060.34,-726.67"/>
<text text-anchor="middle" x="1140.5" y="-1026.22" font-family="Helvetica,sans-Serif" font-size="10.00"> from</text>
</g>
<!-- Node6 -->
<g id="node6" class="node">
<title>Node6</title>
<g id="a_node6"><a xlink:href="classdpp_1_1websocket__client.html" target="_top" xlink:title="Implements a websocket client based on the SSL client.">
<polygon fill="none" stroke="black" points="703,-718.72 703,-737.72 828,-737.72 828,-718.72 703,-718.72"/>
<text text-anchor="middle" x="765.5" y="-725.72" font-family="Helvetica,sans-Serif" font-size="10.00">dpp::websocket_client</text>
</a>
</g>
</g>
<!-- Node6&#45;&gt;Node5 -->
<g id="edge5" class="edge">
<title>Node6&#45;&gt;Node5</title>
<path fill="none" stroke="midnightblue" d="M838.35,-722.97C888.71,-719.29 954.93,-714.45 1000.64,-711.11"/>
<polygon fill="midnightblue" stroke="midnightblue" points="837.89,-719.49 828.18,-723.71 838.4,-726.47 837.89,-719.49"/>
</g>
<!-- Node7&#45;&gt;Node6 -->
<g id="edge6" class="edge">
<title>Node7&#45;&gt;Node6</title>
<path fill="none" stroke="midnightblue" d="M569.72,-732.95C608.53,-732 661.62,-730.71 702.57,-729.72"/>
<polygon fill="midnightblue" stroke="midnightblue" points="569.59,-729.45 559.68,-733.19 569.76,-736.45 569.59,-729.45"/>
</g>
<!-- Node8 -->
<g id="node8" class="node">
<title>Node8</title>
<g id="a_node8"><a xlink:title=" ">
<polygon fill="none" stroke="#bfbfbf" points="220,-821.72 220,-840.72 258,-840.72 258,-821.72 220,-821.72"/>
<text text-anchor="middle" x="239" y="-828.72" font-family="Helvetica,sans-Serif" font-size="10.00">bool</text>
</a>
</g>
</g>
<!-- Node8&#45;&gt;Node5 -->
<g id="edge39" class="edge">
<title>Node8&#45;&gt;Node5</title>
<path fill="none" stroke="#9a32cd" stroke-dasharray="5,2" d="M268.27,-831.43C307.41,-831.45 380.25,-830.51 442,-824.22 684.64,-799.49 746.9,-793.38 983,-732.22 998.94,-728.09 1016.39,-721.97 1030,-716.81"/>
<polygon fill="#9a32cd" stroke="#9a32cd" points="268.17,-827.93 258.16,-831.4 268.15,-834.93 268.17,-827.93"/>
<text text-anchor="middle" x="638" y="-812.22" font-family="Helvetica,sans-Serif" font-size="10.00"> ready</text>
</g>
<!-- Node8&#45;&gt;Node7 -->
<g id="edge8" class="edge">
<title>Node8&#45;&gt;Node7</title>
<path fill="none" stroke="#9a32cd" stroke-dasharray="5,2" d="M268.33,-824.7C283.86,-821.18 303.46,-816.83 321,-813.22 374.61,-802.17 392,-812.51 442,-790.22 467.79,-778.72 492.86,-756.56 506.01,-743.84"/>
<polygon fill="#9a32cd" stroke="#9a32cd" points="267.28,-821.35 258.3,-826.98 268.83,-828.17 267.28,-821.35"/>
<text text-anchor="middle" x="381.5" y="-816.22" font-family="Helvetica,sans-Serif" font-size="10.00"> nonblocking</text>
</g>
<!-- Node9 -->
<g id="node9" class="node">
<title>Node9</title>
<g id="a_node9"><a xlink:title=" ">
<polygon fill="none" stroke="#bfbfbf" points="211,-774.72 211,-793.72 267,-793.72 267,-774.72 211,-774.72"/>
<text text-anchor="middle" x="239" y="-781.72" font-family="Helvetica,sans-Serif" font-size="10.00">SOCKET</text>
</a>
</g>
</g>
<!-- Node9&#45;&gt;Node7 -->
<g id="edge9" class="edge">
<title>Node9&#45;&gt;Node7</title>
<path fill="none" stroke="#9a32cd" stroke-dasharray="5,2" d="M277.04,-780.8C317.78,-776.65 385.03,-768.61 442,-756.22 457.1,-752.93 473.6,-748.1 487.14,-743.81"/>
<polygon fill="#9a32cd" stroke="#9a32cd" points="276.63,-777.32 267.02,-781.8 277.32,-784.29 276.63,-777.32"/>
<text text-anchor="middle" x="381.5" y="-779.22" font-family="Helvetica,sans-Serif" font-size="10.00"> sfd</text>
</g>
<!-- Node10 -->
<g id="node10" class="node">
<title>Node10</title>
<g id="a_node10"><a xlink:title=" ">
<polygon fill="none" stroke="#bfbfbf" points="189.5,-736.72 189.5,-755.72 288.5,-755.72 288.5,-736.72 189.5,-736.72"/>
<text text-anchor="middle" x="239" y="-743.72" font-family="Helvetica,sans-Serif" font-size="10.00">opensslcontext *</text>
</a>
</g>
</g>
<!-- Node10&#45;&gt;Node7 -->
<g id="edge10" class="edge">
<title>Node10&#45;&gt;Node7</title>
<path fill="none" stroke="#9a32cd" stroke-dasharray="5,2" d="M298.78,-743.66C351.17,-741.37 426.58,-738.09 473.23,-736.06"/>
<polygon fill="#9a32cd" stroke="#9a32cd" points="298.46,-740.17 288.62,-744.1 298.76,-747.16 298.46,-740.17"/>
<text text-anchor="middle" x="381.5" y="-746.22" font-family="Helvetica,sans-Serif" font-size="10.00"> ssl</text>
</g>
<!-- Node11 -->
<g id="node11" class="node">
<title>Node11</title>
<g id="a_node11"><a xlink:title=" ">
<polygon fill="none" stroke="#bfbfbf" points="215,-640.72 215,-659.72 263,-659.72 263,-640.72 215,-640.72"/>
<text text-anchor="middle" x="239" y="-647.72" font-family="Helvetica,sans-Serif" font-size="10.00">time_t</text>
</a>
</g>
</g>
<!-- Node11&#45;&gt;Node5 -->
<g id="edge33" class="edge">
<title>Node11&#45;&gt;Node5</title>
<path fill="none" stroke="#9a32cd" stroke-dasharray="5,2" d="M273.2,-652.54C398.87,-661.34 846.03,-692.65 1000.81,-703.49"/>
<polygon fill="#9a32cd" stroke="#9a32cd" points="273.27,-649.04 263.05,-651.83 272.78,-656.02 273.27,-649.04"/>
<text text-anchor="middle" x="638" y="-696.22" font-family="Helvetica,sans-Serif" font-size="10.00"> last_heartbeat</text>
<text text-anchor="middle" x="638" y="-685.22" font-family="Helvetica,sans-Serif" font-size="10.00">last_heartbeat_ack</text>
</g>
<!-- Node11&#45;&gt;Node7 -->
<g id="edge11" class="edge">
<title>Node11&#45;&gt;Node7</title>
<path fill="none" stroke="#9a32cd" stroke-dasharray="5,2" d="M273.25,-655.71C328.59,-664.92 434.34,-682.81 442,-686.22 451.26,-690.34 451.67,-694.45 460,-700.22 472.64,-708.96 487.51,-718.01 498.68,-724.57"/>
<polygon fill="#9a32cd" stroke="#9a32cd" points="273.65,-652.23 263.22,-654.05 272.51,-659.14 273.65,-652.23"/>
<text text-anchor="middle" x="381.5" y="-689.22" font-family="Helvetica,sans-Serif" font-size="10.00"> last_tick</text>
</g>
<!-- Node11&#45;&gt;Node14 -->
<g id="edge16" class="edge">
<title>Node11&#45;&gt;Node14</title>
<path fill="none" stroke="#9a32cd" stroke-dasharray="5,2" d="M273.4,-646.19C322.78,-639.89 412.6,-626.99 442,-613.22 588.24,-544.69 722.85,-393.37 756.48,-353.82"/>
<polygon fill="#9a32cd" stroke="#9a32cd" points="272.71,-642.75 263.23,-647.47 273.58,-649.7 272.71,-642.75"/>
<text text-anchor="middle" x="516.5" y="-605.22" font-family="Helvetica,sans-Serif" font-size="10.00"> last_identify</text>
</g>
<!-- Node12 -->
<g id="node12" class="node">
<title>Node12</title>
<g id="a_node12"><a xlink:title=" ">
<polygon fill="none" stroke="#bfbfbf" points="24,-668.72 24,-687.72 80,-687.72 80,-668.72 24,-668.72"/>
<text text-anchor="middle" x="52" y="-675.72" font-family="Helvetica,sans-Serif" font-size="10.00">uint64_t</text>
</a>
</g>
</g>
<!-- Node12&#45;&gt;Node5 -->
<g id="edge35" class="edge">
<title>Node12&#45;&gt;Node5</title>
<path fill="none" stroke="#9a32cd" stroke-dasharray="5,2" d="M56.8,-697.79C69.88,-758.76 118.97,-941.22 238,-941.22 238,-941.22 238,-941.22 766.5,-941.22 910.98,-941.22 1023.16,-761.26 1048.58,-716.97"/>
<polygon fill="#9a32cd" stroke="#9a32cd" points="60.21,-696.98 54.77,-687.89 53.35,-698.39 60.21,-696.98"/>
<text text-anchor="middle" x="516.5" y="-944.22" font-family="Helvetica,sans-Serif" font-size="10.00"> last_seq</text>
</g>
<!-- Node12&#45;&gt;Node7 -->
<g id="edge12" class="edge">
<title>Node12&#45;&gt;Node7</title>
<path fill="none" stroke="#9a32cd" stroke-dasharray="5,2" d="M90.13,-681.9C138.98,-686.82 227.51,-695.99 303,-705.22 362.13,-712.44 430.36,-721.96 473.21,-728.09"/>
<polygon fill="#9a32cd" stroke="#9a32cd" points="90.33,-678.4 80.03,-680.88 89.64,-685.37 90.33,-678.4"/>
<text text-anchor="middle" x="239" y="-719.22" font-family="Helvetica,sans-Serif" font-size="10.00"> bytes_in</text>
<text text-anchor="middle" x="239" y="-708.22" font-family="Helvetica,sans-Serif" font-size="10.00">bytes_out</text>
</g>
<!-- Node19 -->
<g id="node19" class="node">
<title>Node19</title>
<g id="a_node19"><a xlink:href="classdpp_1_1managed.html" target="_top" xlink:title="The managed class is the base class for various types that can be stored in a cache that are identifi...">
<polygon fill="none" stroke="black" points="196,-188.72 196,-207.72 282,-207.72 282,-188.72 196,-188.72"/>
<text text-anchor="middle" x="239" y="-195.72" font-family="Helvetica,sans-Serif" font-size="10.00">dpp::managed</text>
</a>
</g>
</g>
<!-- Node12&#45;&gt;Node19 -->
<g id="edge23" class="edge">
<title>Node12&#45;&gt;Node19</title>
<path fill="none" stroke="#9a32cd" stroke-dasharray="5,2" d="M54.16,-658.59C58.01,-601.98 73.06,-434.26 122,-305.22 138.19,-262.53 138.95,-245.24 175,-217.22 181.13,-212.45 188.45,-208.87 195.9,-206.19"/>
<polygon fill="#9a32cd" stroke="#9a32cd" points="50.66,-658.45 53.51,-668.65 57.64,-658.9 50.66,-658.45"/>
<text text-anchor="middle" x="139.5" y="-308.22" font-family="Helvetica,sans-Serif" font-size="10.00"> id</text>
</g>
<!-- Node21 -->
<g id="node21" class="node">
<title>Node21</title>
<g id="a_node21"><a xlink:href="structdpp_1_1utility_1_1iconhash.html" target="_top" xlink:title="Store a 128 bit icon hash (profile picture, server icon etc) as a 128 bit binary value made of two ui...">
<polygon fill="none" stroke="black" points="180,-226.72 180,-245.72 298,-245.72 298,-226.72 180,-226.72"/>
<text text-anchor="middle" x="239" y="-233.72" font-family="Helvetica,sans-Serif" font-size="10.00">dpp::utility::iconhash</text>
</a>
</g>
</g>
<!-- Node12&#45;&gt;Node21 -->
<g id="edge27" class="edge">
<title>Node12&#45;&gt;Node21</title>
<path fill="none" stroke="#9a32cd" stroke-dasharray="5,2" d="M58.79,-658.62C74.69,-604.71 120.31,-449.56 157,-320.22 165.18,-291.38 154.05,-276.65 175,-255.22 178.75,-251.38 183.25,-248.31 188.1,-245.85"/>
<polygon fill="#9a32cd" stroke="#9a32cd" points="55.33,-657.96 55.86,-668.55 62.04,-659.95 55.33,-657.96"/>
<text text-anchor="middle" x="139.5" y="-453.22" font-family="Helvetica,sans-Serif" font-size="10.00"> first</text>
<text text-anchor="middle" x="139.5" y="-442.22" font-family="Helvetica,sans-Serif" font-size="10.00">second</text>
</g>
<!-- Node13 -->
<g id="node13" class="node">
<title>Node13</title>
<g id="a_node13"><a xlink:title=" ">
<polygon fill="none" stroke="#bfbfbf" points="206.5,-469.72 206.5,-488.72 271.5,-488.72 271.5,-469.72 206.5,-469.72"/>
<text text-anchor="middle" x="239" y="-476.72" font-family="Helvetica,sans-Serif" font-size="10.00">function&lt;</text>
</a>
</g>
</g>
<!-- Node13&#45;&gt;Node7 -->
<g id="edge13" class="edge">
<title>Node13&#45;&gt;Node7</title>
<path fill="none" stroke="#9a32cd" stroke-dasharray="5,2" d="M258.13,-495.64C274.12,-509.78 298.34,-530.35 321,-546.22 372.08,-581.98 397.25,-573.8 442,-617.22 451,-625.94 494.29,-698.4 509.89,-724.72"/>
<polygon fill="#9a32cd" stroke="#9a32cd" points="260.36,-492.94 250.57,-488.9 255.69,-498.17 260.36,-492.94"/>
<text text-anchor="middle" x="381.5" y="-653.22" font-family="Helvetica,sans-Serif" font-size="10.00"> custom_readable_fd</text>
<text text-anchor="middle" x="381.5" y="-642.22" font-family="Helvetica,sans-Serif" font-size="10.00">custom_readable_ready</text>
<text text-anchor="middle" x="381.5" y="-631.22" font-family="Helvetica,sans-Serif" font-size="10.00">custom_writeable_fd</text>
<text text-anchor="middle" x="381.5" y="-620.22" font-family="Helvetica,sans-Serif" font-size="10.00">custom_writeable_ready</text>
</g>
<!-- Node17 -->
<g id="node17" class="node">
<title>Node17</title>
<g id="a_node17"><a xlink:href="classdpp_1_1dispatcher.html" target="_top" xlink:title="The dispatcher class contains a set of std::functions representing hooked events that the user code i...">
<polygon fill="none" stroke="black" points="470.5,-363.72 470.5,-382.72 562.5,-382.72 562.5,-363.72 470.5,-363.72"/>
<text text-anchor="middle" x="516.5" y="-370.72" font-family="Helvetica,sans-Serif" font-size="10.00">dpp::dispatcher</text>
</a>
</g>
</g>
<!-- Node13&#45;&gt;Node17 -->
<g id="edge20" class="edge">
<title>Node13&#45;&gt;Node17</title>
<path fill="none" stroke="#9a32cd" stroke-dasharray="5,2" d="M251.06,-460.98C264.68,-440.34 289.88,-407.61 321,-392.22 346.32,-379.7 420.98,-375.42 470.09,-373.97"/>
<polygon fill="#9a32cd" stroke="#9a32cd" points="248.05,-459.19 245.64,-469.5 253.96,-462.94 248.05,-459.19"/>
<text text-anchor="start" x="325.5" y="-538.22" font-family="Helvetica,sans-Serif" font-size="10.00"> application_command</text>
<text text-anchor="middle" x="381.5" y="-527.22" font-family="Helvetica,sans-Serif" font-size="10.00">_create</text>
<text text-anchor="start" x="325.5" y="-516.22" font-family="Helvetica,sans-Serif" font-size="10.00">application_command</text>
<text text-anchor="middle" x="381.5" y="-505.22" font-family="Helvetica,sans-Serif" font-size="10.00">_delete</text>
<text text-anchor="start" x="325.5" y="-494.22" font-family="Helvetica,sans-Serif" font-size="10.00">application_command</text>
<text text-anchor="middle" x="381.5" y="-483.22" font-family="Helvetica,sans-Serif" font-size="10.00">_update</text>
<text text-anchor="middle" x="381.5" y="-472.22" font-family="Helvetica,sans-Serif" font-size="10.00">button_click</text>
<text text-anchor="middle" x="381.5" y="-461.22" font-family="Helvetica,sans-Serif" font-size="10.00">channel_create</text>
<text text-anchor="middle" x="381.5" y="-450.22" font-family="Helvetica,sans-Serif" font-size="10.00">channel_delete</text>
<text text-anchor="middle" x="381.5" y="-439.22" font-family="Helvetica,sans-Serif" font-size="10.00">channel_pins_update</text>
<text text-anchor="middle" x="381.5" y="-428.22" font-family="Helvetica,sans-Serif" font-size="10.00">channel_update</text>
<text text-anchor="middle" x="381.5" y="-417.22" font-family="Helvetica,sans-Serif" font-size="10.00">guild_ban_add</text>
<text text-anchor="middle" x="381.5" y="-406.22" font-family="Helvetica,sans-Serif" font-size="10.00">guild_ban_remove</text>
<text text-anchor="middle" x="381.5" y="-395.22" font-family="Helvetica,sans-Serif" font-size="10.00">...</text>
</g>
<!-- Node14&#45;&gt;Node5 -->
<g id="edge14" class="edge">
<title>Node14&#45;&gt;Node5</title>
<path fill="none" stroke="#9a32cd" stroke-dasharray="5,2" d="M780.57,-361.98C831.85,-426.72 1007.7,-648.76 1046.42,-697.64"/>
<polygon fill="#9a32cd" stroke="#9a32cd" points="783.14,-359.59 774.19,-353.93 777.65,-363.94 783.14,-359.59"/>
<text text-anchor="middle" x="914.5" y="-613.22" font-family="Helvetica,sans-Serif" font-size="10.00"> creator</text>
</g>
<!-- Node15 -->
<g id="node15" class="node">
<title>Node15</title>
<g id="a_node15"><a xlink:title=" ">
<polygon fill="none" stroke="#bfbfbf" points="211,-97.72 211,-116.72 267,-116.72 267,-97.72 211,-97.72"/>
<text text-anchor="middle" x="239" y="-104.72" font-family="Helvetica,sans-Serif" font-size="10.00">uint32_t</text>
</a>
</g>
</g>
<!-- Node15&#45;&gt;Node5 -->
<g id="edge32" class="edge">
<title>Node15&#45;&gt;Node5</title>
<path fill="none" stroke="#9a32cd" stroke-dasharray="5,2" d="M271.39,-93.68C384.54,-47.21 775.72,92.78 983,-96.22 1029.56,-138.67 1050.61,-622.11 1053.62,-697.39"/>
<polygon fill="#9a32cd" stroke="#9a32cd" points="269.81,-90.54 261.92,-97.62 272.49,-97.01 269.81,-90.54"/>
<text text-anchor="middle" x="638" y="-65.22" font-family="Helvetica,sans-Serif" font-size="10.00"> heartbeat_interval</text>
<text text-anchor="middle" x="638" y="-54.22" font-family="Helvetica,sans-Serif" font-size="10.00">intents</text>
<text text-anchor="middle" x="638" y="-43.22" font-family="Helvetica,sans-Serif" font-size="10.00">max_shards</text>
<text text-anchor="middle" x="638" y="-32.22" font-family="Helvetica,sans-Serif" font-size="10.00">reconnects</text>
<text text-anchor="middle" x="638" y="-21.22" font-family="Helvetica,sans-Serif" font-size="10.00">resumes</text>
<text text-anchor="middle" x="638" y="-10.22" font-family="Helvetica,sans-Serif" font-size="10.00">shard_id</text>
</g>
<!-- Node15&#45;&gt;Node14 -->
<g id="edge17" class="edge">
<title>Node15&#45;&gt;Node14</title>
<path fill="none" stroke="#9a32cd" stroke-dasharray="5,2" d="M277.23,-105.16C328.33,-103.11 416.75,-102.53 442,-121.22 459.98,-134.52 443.74,-152.86 460,-168.22 498.32,-204.4 527.19,-178.14 573,-204.22 582.3,-209.51 582.49,-213.73 591,-220.22 630.61,-250.4 644.55,-252.16 685,-281.22 710.03,-299.19 737.99,-322.03 753.18,-334.69"/>
<polygon fill="#9a32cd" stroke="#9a32cd" points="277.07,-101.67 267.24,-105.6 277.38,-108.66 277.07,-101.67"/>
<text text-anchor="middle" x="516.5" y="-240.22" font-family="Helvetica,sans-Serif" font-size="10.00"> cluster_id</text>
<text text-anchor="middle" x="516.5" y="-229.22" font-family="Helvetica,sans-Serif" font-size="10.00">intents</text>
<text text-anchor="middle" x="516.5" y="-218.22" font-family="Helvetica,sans-Serif" font-size="10.00">maxclusters</text>
<text text-anchor="middle" x="516.5" y="-207.22" font-family="Helvetica,sans-Serif" font-size="10.00">numshards</text>
</g>
<!-- Node15&#45;&gt;Node18 -->
<g id="edge28" class="edge">
<title>Node15&#45;&gt;Node18</title>
<path fill="none" stroke="#9a32cd" stroke-dasharray="5,2" d="M277.09,-112.52C333.81,-120.8 436.18,-136.42 442,-142.22 474.32,-174.38 431.7,-207.46 460,-243.22 466.38,-251.28 476.01,-256.69 485.47,-260.29"/>
<polygon fill="#9a32cd" stroke="#9a32cd" points="277.47,-109.04 267.07,-111.07 276.46,-115.97 277.47,-109.04"/>
<text text-anchor="middle" x="381.5" y="-145.22" font-family="Helvetica,sans-Serif" font-size="10.00"> flags</text>
</g>
<!-- Node16 -->
<g id="node16" class="node">
<title>Node16</title>
<g id="a_node16"><a xlink:title=" ">
<polygon fill="none" stroke="#bfbfbf" points="491.5,-139.72 491.5,-158.72 541.5,-158.72 541.5,-139.72 491.5,-139.72"/>
<text text-anchor="middle" x="516.5" y="-146.72" font-family="Helvetica,sans-Serif" font-size="10.00">double</text>
</a>
</g>
</g>
<!-- Node16&#45;&gt;Node5 -->
<g id="edge38" class="edge">
<title>Node16&#45;&gt;Node5</title>
<path fill="none" stroke="#9a32cd" stroke-dasharray="5,2" d="M551.99,-152.57C587.08,-157.08 642.23,-167.22 685,-189.22 841.05,-269.46 889.58,-299.68 983,-448.22 1037.11,-534.25 1050.55,-661.57 1053.35,-697.48"/>
<polygon fill="#9a32cd" stroke="#9a32cd" points="552.12,-149.06 541.78,-151.35 551.29,-156.01 552.12,-149.06"/>
<text text-anchor="middle" x="765.5" y="-273.22" font-family="Helvetica,sans-Serif" font-size="10.00"> websocket_ping</text>
</g>
<!-- Node16&#45;&gt;Node14 -->
<g id="edge18" class="edge">
<title>Node16&#45;&gt;Node14</title>
<path fill="none" stroke="#9a32cd" stroke-dasharray="5,2" d="M550.75,-162.2C558.22,-165.49 566.01,-169.24 573,-173.22 581.58,-178.09 582.04,-182.08 591,-186.22 630.05,-204.25 650.48,-183.56 685,-209.22 729.97,-242.64 754.04,-309.69 761.73,-334.6"/>
<polygon fill="#9a32cd" stroke="#9a32cd" points="552.11,-158.97 541.54,-158.28 549.37,-165.41 552.11,-158.97"/>
<text text-anchor="middle" x="638" y="-212.22" font-family="Helvetica,sans-Serif" font-size="10.00"> rest_ping</text>
</g>
<!-- Node17&#45;&gt;Node14 -->
<g id="edge19" class="edge">
<title>Node17&#45;&gt;Node14</title>
<path fill="none" stroke="#9a32cd" stroke-dasharray="5,2" d="M572.63,-366.74C620.1,-361.17 687.25,-353.29 728.22,-348.47"/>
<polygon fill="#9a32cd" stroke="#9a32cd" points="572.04,-363.29 562.52,-367.93 572.86,-370.24 572.04,-363.29"/>
<text text-anchor="middle" x="638" y="-367.22" font-family="Helvetica,sans-Serif" font-size="10.00"> dispatch</text>
</g>
<!-- Node18&#45;&gt;Node14 -->
<g id="edge21" class="edge">
<title>Node18&#45;&gt;Node14</title>
<path fill="none" stroke="#9a32cd" stroke-dasharray="5,2" d="M557.64,-275.7C591.89,-283.38 642.24,-295.68 685,-310.22 705.75,-317.27 728.69,-327.34 744.57,-334.69"/>
<polygon fill="#9a32cd" stroke="#9a32cd" points="558.07,-272.22 547.55,-273.47 556.56,-279.05 558.07,-272.22"/>
<text text-anchor="middle" x="638" y="-313.22" font-family="Helvetica,sans-Serif" font-size="10.00"> me</text>
</g>
<!-- Node19&#45;&gt;Node18 -->
<g id="edge22" class="edge">
<title>Node19&#45;&gt;Node18</title>
<path fill="none" stroke="midnightblue" d="M292.39,-205.93C333.54,-212.62 392.04,-223.54 442,-238.22 460.03,-243.51 479.81,-251.44 494.31,-257.68"/>
<polygon fill="midnightblue" stroke="midnightblue" points="292.74,-202.44 282.32,-204.32 291.64,-209.35 292.74,-202.44"/>
</g>
<!-- Node20 -->
<g id="node20" class="node">
<title>Node20</title>
<g id="a_node20"><a xlink:title=" ">
<polygon fill="none" stroke="#bfbfbf" points="211,-264.72 211,-283.72 267,-283.72 267,-264.72 211,-264.72"/>
<text text-anchor="middle" x="239" y="-271.72" font-family="Helvetica,sans-Serif" font-size="10.00">uint16_t</text>
</a>
</g>
</g>
<!-- Node20&#45;&gt;Node18 -->
<g id="edge25" class="edge">
<title>Node20&#45;&gt;Node18</title>
<path fill="none" stroke="#9a32cd" stroke-dasharray="5,2" d="M277.2,-273.27C332.27,-271.87 434.42,-269.28 485.21,-267.99"/>
<polygon fill="#9a32cd" stroke="#9a32cd" points="277.08,-269.77 267.17,-273.53 277.26,-276.77 277.08,-269.77"/>
<text text-anchor="middle" x="381.5" y="-275.22" font-family="Helvetica,sans-Serif" font-size="10.00"> discriminator</text>
</g>
<!-- Node21&#45;&gt;Node18 -->
<g id="edge26" class="edge">
<title>Node21&#45;&gt;Node18</title>
<path fill="none" stroke="#9a32cd" stroke-dasharray="5,2" d="M308.04,-240.81C347.29,-243.83 397.53,-248.31 442,-254.22 456.26,-256.11 471.97,-258.8 485.2,-261.25"/>
<polygon fill="#9a32cd" stroke="#9a32cd" points="308.28,-237.32 298.05,-240.06 307.76,-244.3 308.28,-237.32"/>
<text text-anchor="middle" x="381.5" y="-257.22" font-family="Helvetica,sans-Serif" font-size="10.00"> avatar</text>
</g>
<!-- Node22 -->
<g id="node22" class="node">
<title>Node22</title>
<g id="a_node22"><a xlink:title=" ">
<polygon fill="none" stroke="#bfbfbf" points="214,-150.72 214,-169.72 264,-169.72 264,-150.72 214,-150.72"/>
<text text-anchor="middle" x="239" y="-157.72" font-family="Helvetica,sans-Serif" font-size="10.00">uint8_t</text>
</a>
</g>
</g>
<!-- Node22&#45;&gt;Node18 -->
<g id="edge29" class="edge">
<title>Node22&#45;&gt;Node18</title>
<path fill="none" stroke="#9a32cd" stroke-dasharray="5,2" d="M274.44,-156.76C318.35,-154.3 394.31,-156.8 442,-196.22 459.24,-210.47 444.52,-227.07 460,-243.22 466.9,-250.42 476.32,-255.58 485.44,-259.22"/>
<polygon fill="#9a32cd" stroke="#9a32cd" points="274,-153.28 264.26,-157.46 274.47,-160.27 274,-153.28"/>
<text text-anchor="middle" x="381.5" y="-199.22" font-family="Helvetica,sans-Serif" font-size="10.00"> refcount</text>
</g>
<!-- Node23 -->
<g id="node23" class="node">
<title>Node23</title>
<g id="a_node23"><a xlink:href="structdpp_1_1cache__policy__t.html" target="_top" xlink:title="Represents the caching policy of the cluster.">
<polygon fill="none" stroke="black" points="460,-307.72 460,-326.72 573,-326.72 573,-307.72 460,-307.72"/>
<text text-anchor="middle" x="516.5" y="-314.72" font-family="Helvetica,sans-Serif" font-size="10.00">dpp::cache_policy_t</text>
</a>
</g>
</g>
<!-- Node23&#45;&gt;Node14 -->
<g id="edge30" class="edge">
<title>Node23&#45;&gt;Node14</title>
<path fill="none" stroke="#9a32cd" stroke-dasharray="5,2" d="M583.57,-323.55C614.41,-326.6 651.6,-330.42 685,-334.22 699.1,-335.82 714.58,-337.73 728.11,-339.45"/>
<polygon fill="#9a32cd" stroke="#9a32cd" points="583.66,-320.04 573.37,-322.55 582.98,-327.01 583.66,-320.04"/>
<text text-anchor="middle" x="638" y="-337.22" font-family="Helvetica,sans-Serif" font-size="10.00"> cache_policy</text>
</g>
<!-- Node24 -->
<g id="node24" class="node">
<title>Node24</title>
<g id="a_node24"><a xlink:title=" ">
<polygon fill="none" stroke="#bfbfbf" points="175,-302.72 175,-321.72 303,-321.72 303,-302.72 175,-302.72"/>
<text text-anchor="middle" x="239" y="-309.72" font-family="Helvetica,sans-Serif" font-size="10.00">cache_policy_setting_t</text>
</a>
</g>
</g>
<!-- Node24&#45;&gt;Node23 -->
<g id="edge31" class="edge">
<title>Node24&#45;&gt;Node23</title>
<path fill="none" stroke="#9a32cd" stroke-dasharray="5,2" d="M313.28,-302.76C315.88,-302.55 318.46,-302.37 321,-302.22 374.68,-298.91 388.49,-296.81 442,-302.22 453.14,-303.34 465.09,-305.4 476.05,-307.65"/>
<polygon fill="#9a32cd" stroke="#9a32cd" points="312.81,-299.29 303.16,-303.66 313.43,-306.26 312.81,-299.29"/>
<text text-anchor="middle" x="381.5" y="-327.22" font-family="Helvetica,sans-Serif" font-size="10.00"> emoji_policy</text>
<text text-anchor="middle" x="381.5" y="-316.22" font-family="Helvetica,sans-Serif" font-size="10.00">role_policy</text>
<text text-anchor="middle" x="381.5" y="-305.22" font-family="Helvetica,sans-Serif" font-size="10.00">user_policy</text>
</g>
<!-- Node25 -->
<g id="node25" class="node">
<title>Node25</title>
<g id="a_node25"><a xlink:title=" ">
<polygon fill="none" stroke="#bfbfbf" points="709,-148.72 709,-167.72 822,-167.72 822,-148.72 709,-148.72"/>
<text text-anchor="middle" x="765.5" y="-155.72" font-family="Helvetica,sans-Serif" font-size="10.00">native_handle_type</text>
</a>
</g>
</g>
<!-- Node25&#45;&gt;Node5 -->
<g id="edge34" class="edge">
<title>Node25&#45;&gt;Node5</title>
<path fill="none" stroke="#9a32cd" stroke-dasharray="5,2" d="M817.84,-146.99C866.99,-139.53 939.84,-137.63 983,-179.22 1060.75,-254.15 1055.74,-631.65 1054.25,-697.43"/>
<polygon fill="#9a32cd" stroke="#9a32cd" points="817.03,-143.58 807.73,-148.65 818.17,-150.48 817.03,-143.58"/>
<text text-anchor="middle" x="914.5" y="-182.22" font-family="Helvetica,sans-Serif" font-size="10.00"> thread_id</text>
</g>
<!-- Node26 -->
<g id="node26" class="node">
<title>Node26</title>
<g id="a_node26"><a xlink:title=" ">
<polygon fill="none" stroke="#bfbfbf" points="731,-110.72 731,-129.72 800,-129.72 800,-110.72 731,-110.72"/>
<text text-anchor="middle" x="765.5" y="-117.72" font-family="Helvetica,sans-Serif" font-size="10.00">std::mutex</text>
</a>
</g>
</g>
<!-- Node26&#45;&gt;Node5 -->
<g id="edge37" class="edge">
<title>Node26&#45;&gt;Node5</title>
<path fill="none" stroke="#9a32cd" stroke-dasharray="5,2" d="M805.93,-108.05C854.21,-95.86 935.41,-84.51 983,-128.22 1026.92,-168.55 1050.12,-624.66 1053.55,-697.45"/>
<polygon fill="#9a32cd" stroke="#9a32cd" points="804.91,-104.7 796.15,-110.65 806.71,-111.47 804.91,-104.7"/>
<text text-anchor="middle" x="914.5" y="-131.22" font-family="Helvetica,sans-Serif" font-size="10.00"> voice_mutex</text>
</g>
<!-- Node27 -->
<g id="node27" class="node">
<title>Node27</title>
<g id="a_node27"><a xlink:title=" ">
<polygon fill="none" stroke="#bfbfbf" points="715,-1007.72 715,-1026.72 816,-1026.72 816,-1007.72 715,-1007.72"/>
<text text-anchor="middle" x="765.5" y="-1014.72" font-family="Helvetica,sans-Serif" font-size="10.00">unordered_map&lt;</text>
</a>
</g>
</g>
<!-- Node27&#45;&gt;Node5 -->
<g id="edge40" class="edge">
<title>Node27&#45;&gt;Node5</title>
<path fill="none" stroke="#9a32cd" stroke-dasharray="5,2" d="M826.22,-1027.6C874.29,-1032.36 940.62,-1030.3 983,-993.22 1026.41,-955.23 1048.43,-762.25 1053.07,-716.81"/>
<polygon fill="#9a32cd" stroke="#9a32cd" points="826.57,-1024.12 816.25,-1026.49 825.8,-1031.08 826.57,-1024.12"/>
<text text-anchor="middle" x="914.5" y="-1033.22" font-family="Helvetica,sans-Serif" font-size="10.00"> connecting_voice_channels</text>
</g>
<!-- Node28 -->
<g id="node28" class="node">
<title>Node28</title>
<g id="a_node28"><a xlink:title=" ">
<polygon fill="none" stroke="#bfbfbf" points="1206,-1015.72 1206,-1034.72 1262,-1034.72 1262,-1015.72 1206,-1015.72"/>
<text text-anchor="middle" x="1234" y="-1022.72" font-family="Helvetica,sans-Serif" font-size="10.00">loglevel</text>
</a>
</g>
</g>
<!-- Node28&#45;&gt;Node1 -->
<g id="edge41" class="edge">
<title>Node28&#45;&gt;Node1</title>
<path fill="none" stroke="#9a32cd" stroke-dasharray="5,2" d="M1272.19,-1031.16C1296.48,-1035.3 1328.79,-1041.3 1357,-1048.22 1363.45,-1049.8 1370.31,-1051.72 1376.8,-1053.65"/>
<polygon fill="#9a32cd" stroke="#9a32cd" points="1272.76,-1027.7 1262.32,-1029.5 1271.6,-1034.6 1272.76,-1027.7"/>
<text text-anchor="middle" x="1335.5" y="-1051.22" font-family="Helvetica,sans-Serif" font-size="10.00"> severity</text>
</g>
</g>
</svg>
