<?xml version="1.0" encoding="UTF-8" standalone="no"?>
<!DOCTYPE svg PUBLIC "-//W3C//DTD SVG 1.1//EN"
 "http://www.w3.org/Graphics/SVG/1.1/DTD/svg11.dtd">
<!-- Generated by graphviz version 2.38.0 (20140413.2041)
 -->
<!-- Title: dpp::resolved_user Pages: 1 -->
<svg width="654pt" height="380pt"
 viewBox="0.00 0.00 654.00 380.00" xmlns="http://www.w3.org/2000/svg" xmlns:xlink="http://www.w3.org/1999/xlink">
<g id="graph0" class="graph" transform="scale(1 1) rotate(0) translate(4 376)">
<title>dpp::resolved_user</title>
<polygon fill="white" stroke="none" points="-4,4 -4,-376 650,-376 650,4 -4,4"/>
<!-- Node1 -->
<g id="node1" class="node"><title>Node1</title>
<g id="a_node1"><a xlink:title="dpp::resolved_user contains both a dpp::guild_member and a dpp::user. The user can be used to obtain ...">
<polygon fill="#bfbfbf" stroke="black" points="547,-191.5 547,-210.5 646,-210.5 646,-191.5 547,-191.5"/>
<text text-anchor="middle" x="596.5" y="-198.5" font-family="Helvetica,sans-Serif" font-size="10.00">dpp::resolved_user</text>
</a>
</g>
</g>
<!-- Node2 -->
<g id="node2" class="node"><title>Node2</title>
<g id="a_node2"><a xlink:href="classdpp_1_1user.html" target="_top" xlink:title="Represents a user on discord. May or may not be a member of a dpp::guild.">
<polygon fill="white" stroke="black" points="394,-253.5 394,-272.5 451,-272.5 451,-253.5 394,-253.5"/>
<text text-anchor="middle" x="422.5" y="-260.5" font-family="Helvetica,sans-Serif" font-size="10.00">dpp::user</text>
</a>
</g>
</g>
<!-- Node2&#45;&gt;Node1 -->
<g id="edge1" class="edge"><title>Node2&#45;&gt;Node1</title>
<path fill="none" stroke="#9a32cd" stroke-dasharray="5,2" d="M459.632,-249.976C492.311,-238.196 539.668,-221.126 568.972,-210.562"/>
<polygon fill="#9a32cd" stroke="#9a32cd" points="458.219,-246.765 449.998,-253.448 460.592,-253.35 458.219,-246.765"/>
<text text-anchor="middle" x="509.5" y="-241" font-family="Helvetica,sans-Serif" font-size="10.00"> user</text>
</g>
<!-- Node3 -->
<g id="node3" class="node"><title>Node3</title>
<g id="a_node3"><a xlink:href="classdpp_1_1managed.html" target="_top" xlink:title="The managed class is the base class for various types that can be stored in a cache that are identifi...">
<polygon fill="white" stroke="black" points="177.5,-276.5 177.5,-295.5 255.5,-295.5 255.5,-276.5 177.5,-276.5"/>
<text text-anchor="middle" x="216.5" y="-283.5" font-family="Helvetica,sans-Serif" font-size="10.00">dpp::managed</text>
</a>
</g>
</g>
<!-- Node3&#45;&gt;Node2 -->
<g id="edge2" class="edge"><title>Node3&#45;&gt;Node2</title>
<path fill="none" stroke="midnightblue" d="M265.91,-282.078C292.286,-279.776 325.479,-276.612 355,-273 367.747,-271.44 381.818,-269.374 393.721,-267.526"/>
<polygon fill="midnightblue" stroke="midnightblue" points="265.454,-278.604 255.791,-282.948 266.054,-285.578 265.454,-278.604"/>
</g>
<!-- Node4 -->
<g id="node4" class="node"><title>Node4</title>
<g id="a_node4"><a xlink:title=" ">
<polygon fill="white" stroke="#bfbfbf" points="22,-276.5 22,-295.5 73,-295.5 73,-276.5 22,-276.5"/>
<text text-anchor="middle" x="47.5" y="-283.5" font-family="Helvetica,sans-Serif" font-size="10.00">uint64_t</text>
</a>
</g>
</g>
<!-- Node4&#45;&gt;Node3 -->
<g id="edge3" class="edge"><title>Node4&#45;&gt;Node3</title>
<path fill="none" stroke="#9a32cd" stroke-dasharray="5,2" d="M83.4713,-286C110.959,-286 149.193,-286 177.445,-286"/>
<polygon fill="#9a32cd" stroke="#9a32cd" points="83.1415,-282.5 73.1414,-286 83.1414,-289.5 83.1415,-282.5"/>
<text text-anchor="middle" x="129" y="-289" font-family="Helvetica,sans-Serif" font-size="10.00"> id</text>
</g>
<!-- Node8 -->
<g id="node8" class="node"><title>Node8</title>
<g id="a_node8"><a xlink:href="structdpp_1_1utility_1_1iconhash.html" target="_top" xlink:title="Store a 128 bit icon hash (profile picture, server icon etc) as a 128 bit binary value made of two ui...">
<polygon fill="white" stroke="black" points="163,-352.5 163,-371.5 270,-371.5 270,-352.5 163,-352.5"/>
<text text-anchor="middle" x="216.5" y="-359.5" font-family="Helvetica,sans-Serif" font-size="10.00">dpp::utility::iconhash</text>
</a>
</g>
</g>
<!-- Node4&#45;&gt;Node8 -->
<g id="edge8" class="edge"><title>Node4&#45;&gt;Node8</title>
<path fill="none" stroke="#9a32cd" stroke-dasharray="5,2" d="M75.1577,-300.36C98.106,-312.458 132.279,-329.845 163,-343 170.752,-346.319 179.299,-349.577 187.204,-352.432"/>
<polygon fill="#9a32cd" stroke="#9a32cd" points="76.5265,-297.125 66.0527,-295.528 73.2446,-303.308 76.5265,-297.125"/>
<text text-anchor="middle" x="129" y="-349" font-family="Helvetica,sans-Serif" font-size="10.00"> first</text>
<text text-anchor="middle" x="129" y="-338" font-family="Helvetica,sans-Serif" font-size="10.00">second</text>
</g>
<!-- Node11 -->
<g id="node11" class="node"><title>Node11</title>
<g id="a_node11"><a xlink:href="classdpp_1_1guild__member.html" target="_top" xlink:title="Represents dpp::user membership upon a dpp::guild.">
<polygon fill="white" stroke="black" points="373,-100.5 373,-119.5 472,-119.5 472,-100.5 373,-100.5"/>
<text text-anchor="middle" x="422.5" y="-107.5" font-family="Helvetica,sans-Serif" font-size="10.00">dpp::guild_member</text>
</a>
</g>
</g>
<!-- Node4&#45;&gt;Node11 -->
<g id="edge13" class="edge"><title>Node4&#45;&gt;Node11</title>
<path fill="none" stroke="#9a32cd" stroke-dasharray="5,2" d="M61.6208,-268.423C71.1433,-255.485 84.1957,-237.372 95,-221 127.075,-172.395 112.25,-137.559 163,-109 235.356,-68.2826 338.132,-86.9368 389.575,-100.416"/>
<polygon fill="#9a32cd" stroke="#9a32cd" points="58.8017,-266.348 55.6633,-276.468 64.4272,-270.514 58.8017,-266.348"/>
<text text-anchor="middle" x="216.5" y="-123" font-family="Helvetica,sans-Serif" font-size="10.00"> guild_id</text>
<text text-anchor="middle" x="216.5" y="-112" font-family="Helvetica,sans-Serif" font-size="10.00">user_id</text>
</g>
<!-- Node5 -->
<g id="node5" class="node"><title>Node5</title>
<g id="a_node5"><a xlink:title=" ">
<polygon fill="white" stroke="#bfbfbf" points="186.5,-187.5 186.5,-206.5 246.5,-206.5 246.5,-187.5 186.5,-187.5"/>
<text text-anchor="middle" x="216.5" y="-194.5" font-family="Helvetica,sans-Serif" font-size="10.00">std::string</text>
</a>
</g>
</g>
<!-- Node5&#45;&gt;Node2 -->
<g id="edge4" class="edge"><title>Node5&#45;&gt;Node2</title>
<path fill="none" stroke="#9a32cd" stroke-dasharray="5,2" d="M256.29,-208.286C283.924,-216.463 321.886,-227.975 355,-239 368.625,-243.536 383.687,-248.939 396.025,-253.469"/>
<polygon fill="#9a32cd" stroke="#9a32cd" points="257.186,-204.901 246.604,-205.431 255.207,-211.616 257.186,-204.901"/>
<text text-anchor="middle" x="321.5" y="-242" font-family="Helvetica,sans-Serif" font-size="10.00"> username</text>
</g>
<!-- Node5&#45;&gt;Node11 -->
<g id="edge12" class="edge"><title>Node5&#45;&gt;Node11</title>
<path fill="none" stroke="#9a32cd" stroke-dasharray="5,2" d="M244.074,-182.784C257.122,-176.069 273.187,-168.189 288,-162 317.05,-149.863 325.658,-150.413 355,-139 370.495,-132.973 387.691,-125.451 400.714,-119.578"/>
<polygon fill="#9a32cd" stroke="#9a32cd" points="242.416,-179.701 235.167,-187.427 245.652,-185.908 242.416,-179.701"/>
<text text-anchor="middle" x="321.5" y="-165" font-family="Helvetica,sans-Serif" font-size="10.00"> nickname</text>
</g>
<!-- Node6 -->
<g id="node6" class="node"><title>Node6</title>
<g id="a_node6"><a xlink:title=" ">
<polygon fill="white" stroke="#bfbfbf" points="0,-182 0,-212 95,-212 95,-182 0,-182"/>
<text text-anchor="start" x="8" y="-200" font-family="Helvetica,sans-Serif" font-size="10.00">std::basic_string&lt;</text>
<text text-anchor="middle" x="47.5" y="-189" font-family="Helvetica,sans-Serif" font-size="10.00"> Char &gt;</text>
</a>
</g>
</g>
<!-- Node6&#45;&gt;Node5 -->
<g id="edge5" class="edge"><title>Node6&#45;&gt;Node5</title>
<path fill="none" stroke="midnightblue" d="M105.221,-197C132.456,-197 163.942,-197 186.281,-197"/>
<polygon fill="midnightblue" stroke="midnightblue" points="105.019,-193.5 95.0188,-197 105.019,-200.5 105.019,-193.5"/>
</g>
<!-- Node7 -->
<g id="node7" class="node"><title>Node7</title>
<g id="a_node7"><a xlink:title=" ">
<polygon fill="white" stroke="#bfbfbf" points="191,-314.5 191,-333.5 242,-333.5 242,-314.5 191,-314.5"/>
<text text-anchor="middle" x="216.5" y="-321.5" font-family="Helvetica,sans-Serif" font-size="10.00">uint16_t</text>
</a>
</g>
</g>
<!-- Node7&#45;&gt;Node2 -->
<g id="edge6" class="edge"><title>Node7&#45;&gt;Node2</title>
<path fill="none" stroke="#9a32cd" stroke-dasharray="5,2" d="M252.294,-317.289C280.356,-311.486 320.665,-302.265 355,-291 370.83,-285.806 388.161,-278.451 401.161,-272.583"/>
<polygon fill="#9a32cd" stroke="#9a32cd" points="251.281,-313.923 242.177,-319.342 252.673,-320.783 251.281,-313.923"/>
<text text-anchor="middle" x="321.5" y="-312" font-family="Helvetica,sans-Serif" font-size="10.00"> discriminator</text>
</g>
<!-- Node8&#45;&gt;Node2 -->
<g id="edge7" class="edge"><title>Node8&#45;&gt;Node2</title>
<path fill="none" stroke="#9a32cd" stroke-dasharray="5,2" d="M279.909,-351.311C304.335,-345.482 331.962,-336.765 355,-324 379.393,-310.485 402.014,-286.273 413.535,-272.774"/>
<polygon fill="#9a32cd" stroke="#9a32cd" points="278.991,-347.931 270.015,-353.56 280.542,-354.757 278.991,-347.931"/>
<text text-anchor="middle" x="321.5" y="-352" font-family="Helvetica,sans-Serif" font-size="10.00"> avatar</text>
</g>
<!-- Node9 -->
<g id="node9" class="node"><title>Node9</title>
<g id="a_node9"><a xlink:title=" ">
<polygon fill="white" stroke="#bfbfbf" points="191,-238.5 191,-257.5 242,-257.5 242,-238.5 191,-238.5"/>
<text text-anchor="middle" x="216.5" y="-245.5" font-family="Helvetica,sans-Serif" font-size="10.00">uint32_t</text>
</a>
</g>
</g>
<!-- Node9&#45;&gt;Node2 -->
<g id="edge9" class="edge"><title>Node9&#45;&gt;Node2</title>
<path fill="none" stroke="#9a32cd" stroke-dasharray="5,2" d="M252.195,-250.551C292.195,-253.492 357.138,-258.267 393.876,-260.969"/>
<polygon fill="#9a32cd" stroke="#9a32cd" points="252.337,-247.052 242.107,-249.809 251.824,-254.033 252.337,-247.052"/>
<text text-anchor="middle" x="321.5" y="-261" font-family="Helvetica,sans-Serif" font-size="10.00"> flags</text>
</g>
<!-- Node10 -->
<g id="node10" class="node"><title>Node10</title>
<g id="a_node10"><a xlink:title=" ">
<polygon fill="white" stroke="#bfbfbf" points="193.5,-140.5 193.5,-159.5 239.5,-159.5 239.5,-140.5 193.5,-140.5"/>
<text text-anchor="middle" x="216.5" y="-147.5" font-family="Helvetica,sans-Serif" font-size="10.00">uint8_t</text>
</a>
</g>
</g>
<!-- Node10&#45;&gt;Node2 -->
<g id="edge10" class="edge"><title>Node10&#45;&gt;Node2</title>
<path fill="none" stroke="#9a32cd" stroke-dasharray="5,2" d="M249.173,-160.981C283.784,-173.235 336.741,-192.806 355,-204 378.158,-218.197 400.906,-240.76 412.861,-253.475"/>
<polygon fill="#9a32cd" stroke="#9a32cd" points="250.106,-157.599 239.511,-157.581 247.782,-164.202 250.106,-157.599"/>
<text text-anchor="middle" x="321.5" y="-207" font-family="Helvetica,sans-Serif" font-size="10.00"> refcount</text>
</g>
<!-- Node10&#45;&gt;Node11 -->
<g id="edge16" class="edge"><title>Node10&#45;&gt;Node11</title>
<path fill="none" stroke="#9a32cd" stroke-dasharray="5,2" d="M249.36,-138.808C261.354,-134.927 275.189,-130.841 288,-128 315.855,-121.822 347.48,-117.445 372.956,-114.554"/>
<polygon fill="#9a32cd" stroke="#9a32cd" points="248.17,-135.515 239.782,-141.988 250.376,-142.159 248.17,-135.515"/>
<text text-anchor="middle" x="321.5" y="-131" font-family="Helvetica,sans-Serif" font-size="10.00"> flags</text>
</g>
<!-- Node11&#45;&gt;Node1 -->
<g id="edge11" class="edge"><title>Node11&#45;&gt;Node1</title>
<path fill="none" stroke="#9a32cd" stroke-dasharray="5,2" d="M450.865,-124.478C486.332,-143.242 547.196,-175.444 577.402,-191.425"/>
<polygon fill="#9a32cd" stroke="#9a32cd" points="452.058,-121.149 441.582,-119.567 448.784,-127.337 452.058,-121.149"/>
<text text-anchor="middle" x="509.5" y="-167" font-family="Helvetica,sans-Serif" font-size="10.00"> member</text>
</g>
<!-- Node12 -->
<g id="node12" class="node"><title>Node12</title>
<g id="a_node12"><a xlink:title=" ">
<polygon fill="white" stroke="#bfbfbf" points="191.5,-0.5 191.5,-19.5 241.5,-19.5 241.5,-0.5 191.5,-0.5"/>
<text text-anchor="middle" x="216.5" y="-7.5" font-family="Helvetica,sans-Serif" font-size="10.00">vector&lt;</text>
</a>
</g>
</g>
<!-- Node12&#45;&gt;Node11 -->
<g id="edge14" class="edge"><title>Node12&#45;&gt;Node11</title>
<path fill="none" stroke="#9a32cd" stroke-dasharray="5,2" d="M251.635,-8.6924C280.849,-9.03488 323.114,-13.1089 355,-31 384.706,-47.668 406.948,-83.111 416.442,-100.278"/>
<polygon fill="#9a32cd" stroke="#9a32cd" points="251.497,-5.19262 241.506,-8.71638 251.514,-12.1926 251.497,-5.19262"/>
<text text-anchor="middle" x="321.5" y="-34" font-family="Helvetica,sans-Serif" font-size="10.00"> roles</text>
</g>
<!-- Node13 -->
<g id="node13" class="node"><title>Node13</title>
<g id="a_node13"><a xlink:title=" ">
<polygon fill="white" stroke="#bfbfbf" points="194.5,-38.5 194.5,-57.5 238.5,-57.5 238.5,-38.5 194.5,-38.5"/>
<text text-anchor="middle" x="216.5" y="-45.5" font-family="Helvetica,sans-Serif" font-size="10.00">time_t</text>
</a>
</g>
</g>
<!-- Node13&#45;&gt;Node11 -->
<g id="edge15" class="edge"><title>Node13&#45;&gt;Node11</title>
<path fill="none" stroke="#9a32cd" stroke-dasharray="5,2" d="M249.051,-45.1881C277.677,-43.8079 320.546,-44.7109 355,-58 378.793,-67.1768 400.963,-87.9016 412.726,-100.237"/>
<polygon fill="#9a32cd" stroke="#9a32cd" points="248.595,-41.7092 238.825,-45.8078 249.018,-48.6964 248.595,-41.7092"/>
<text text-anchor="middle" x="321.5" y="-72" font-family="Helvetica,sans-Serif" font-size="10.00"> joined_at</text>
<text text-anchor="middle" x="321.5" y="-61" font-family="Helvetica,sans-Serif" font-size="10.00">premium_since</text>
</g>
</g>
</svg>
