<?xml version="1.0" encoding="UTF-8" standalone="no"?>
<!DOCTYPE svg PUBLIC "-//W3C//DTD SVG 1.1//EN"
 "http://www.w3.org/Graphics/SVG/1.1/DTD/svg11.dtd">
<!-- Generated by graphviz version 2.43.0 (0)
 -->
<!-- Title: dpp::thread_collector Pages: 1 -->
<!--zoomable 792 -->
<svg id="main" version="1.1" xmlns="http://www.w3.org/2000/svg" xmlns:xlink="http://www.w3.org/1999/xlink" xml:space="preserve" onload="init(evt)">
<style type="text/css"><![CDATA[
.edge:hover path { stroke: red; }
.edge:hover polygon { stroke: red; fill: red; }
]]></style>
<script type="text/javascript"><![CDATA[
var edges = document.getElementsByTagName('g');
if (edges && edges.length) {
  for (var i=0;i<edges.length;i++) {
    if (edges[i].id.substr(0,4)=='edge') {
      edges[i].setAttribute('class','edge');
    }
  }
}
]]></script>
        <defs>
                <circle id="rim" cx="0" cy="0" r="7"/>
                <circle id="rim2" cx="0" cy="0" r="3.5"/>
                <g id="zoomPlus">
                        <use xlink:href="#rim" fill="#404040">
                                <set attributeName="fill" to="#808080" begin="zoomplus.mouseover" end="zoomplus.mouseout"/>
                        </use>
                        <path d="M-4,0h8M0,-4v8" fill="none" stroke="white" stroke-width="1.5" pointer-events="none"/>
                </g>
                <g id="zoomMin">
                        <use xlink:href="#rim" fill="#404040">
                                <set attributeName="fill" to="#808080" begin="zoomminus.mouseover" end="zoomminus.mouseout"/>
                        </use>
                        <path d="M-4,0h8" fill="none" stroke="white" stroke-width="1.5" pointer-events="none"/>
                </g>
                <g id="dirArrow">
                        <path fill="none" stroke="white" stroke-width="1.5" d="M0,-3.0v7 M-2.5,-0.5L0,-3.0L2.5,-0.5"/>
                </g>
               <g id="resetDef">
                       <use xlink:href="#rim2" fill="#404040">
                               <set attributeName="fill" to="#808080" begin="reset.mouseover" end="reset.mouseout"/>
                       </use>
               </g>
        </defs>

<script type="text/javascript">
var viewWidth = 1344;
var viewHeight = 792;
var sectionId = 'dynsection-1';
</script>
<script xlink:href="svgpan.js"/>
<svg id="graph" class="graph">
<g id="viewport">
<title>dpp::thread_collector</title>
<!-- Node1 -->
<g id="node1" class="node">
<title>Node1</title>
<g id="a_node1"><a xlink:title="Thread collector. Collects threads during a set timeframe and returns them in a list via the complete...">
<polygon fill="#bfbfbf" stroke="black" points="1217,-308.86 1217,-327.86 1336,-327.86 1336,-308.86 1217,-308.86"/>
<text text-anchor="middle" x="1276.5" y="-315.86" font-family="Helvetica,sans-Serif" font-size="10.00">dpp::thread_collector</text>
</a>
</g>
</g>
<!-- Node2 -->
<g id="node2" class="node">
<title>Node2</title>
<g id="a_node2"><a xlink:href="classdpp_1_1collector.html" target="_top" xlink:title="Collects objects from events during a specified time period.">
<polygon fill="none" stroke="black" points="1076,-308.86 1076,-327.86 1180,-327.86 1180,-308.86 1076,-308.86"/>
<text text-anchor="middle" x="1128" y="-315.86" font-family="Helvetica,sans-Serif" font-size="10.00">thread_collector_t</text>
</a>
</g>
</g>
<!-- Node2&#45;&gt;Node1 -->
<g id="edge1" class="edge">
<title>Node2&#45;&gt;Node1</title>
<path fill="none" stroke="midnightblue" d="M1190.36,-318.36C1199.1,-318.36 1208.08,-318.36 1216.77,-318.36"/>
<polygon fill="midnightblue" stroke="midnightblue" points="1190.24,-314.86 1180.24,-318.36 1190.24,-321.86 1190.24,-314.86"/>
</g>
<!-- Node3 -->
<g id="node3" class="node">
<title>Node3</title>
<g id="a_node3"><a xlink:href="classdpp_1_1cluster.html" target="_top" xlink:title="The cluster class represents a group of shards and a command queue for sending and receiving commands...">
<polygon fill="none" stroke="black" points="932,-308.86 932,-327.86 1006,-327.86 1006,-308.86 932,-308.86"/>
<text text-anchor="middle" x="969" y="-315.86" font-family="Helvetica,sans-Serif" font-size="10.00">dpp::cluster</text>
</a>
</g>
</g>
<!-- Node3&#45;&gt;Node2 -->
<g id="edge2" class="edge">
<title>Node3&#45;&gt;Node2</title>
<path fill="none" stroke="#9a32cd" stroke-dasharray="5,2" d="M1016.12,-318.36C1034.91,-318.36 1056.71,-318.36 1075.98,-318.36"/>
<polygon fill="#9a32cd" stroke="#9a32cd" points="1016.02,-314.86 1006.02,-318.36 1016.02,-321.86 1016.02,-314.86"/>
<text text-anchor="middle" x="1041" y="-321.36" font-family="Helvetica,sans-Serif" font-size="10.00"> owner</text>
</g>
<!-- Node4 -->
<g id="node4" class="node">
<title>Node4</title>
<g id="a_node4"><a xlink:title=" ">
<polygon fill="none" stroke="#bfbfbf" points="211.5,-650.86 211.5,-669.86 276.5,-669.86 276.5,-650.86 211.5,-650.86"/>
<text text-anchor="middle" x="244" y="-657.86" font-family="Helvetica,sans-Serif" font-size="10.00">std::string</text>
</a>
</g>
</g>
<!-- Node4&#45;&gt;Node3 -->
<g id="edge3" class="edge">
<title>Node4&#45;&gt;Node3</title>
<path fill="none" stroke="#9a32cd" stroke-dasharray="5,2" d="M269.55,-675.26C298.57,-691.98 348.88,-718.21 396,-729.36 556.5,-767.34 614.83,-801.99 767,-738.36 852.82,-702.47 870.41,-671.54 914,-589.36 963.23,-496.55 967.75,-364.21 968.03,-327.89"/>
<polygon fill="#9a32cd" stroke="#9a32cd" points="270.96,-672.03 260.56,-669.99 267.42,-678.07 270.96,-672.03"/>
<text text-anchor="middle" x="589" y="-776.36" font-family="Helvetica,sans-Serif" font-size="10.00"> token</text>
</g>
<!-- Node9 -->
<g id="node9" class="node">
<title>Node9</title>
<g id="a_node9"><a xlink:href="classdpp_1_1user.html" target="_top" xlink:title="Represents a user on discord. May or may not be a member of a dpp::guild.">
<polygon fill="none" stroke="black" points="675,-526.86 675,-545.86 737,-545.86 737,-526.86 675,-526.86"/>
<text text-anchor="middle" x="706" y="-533.86" font-family="Helvetica,sans-Serif" font-size="10.00">dpp::user</text>
</a>
</g>
</g>
<!-- Node4&#45;&gt;Node9 -->
<g id="edge14" class="edge">
<title>Node4&#45;&gt;Node9</title>
<path fill="none" stroke="#9a32cd" stroke-dasharray="5,2" d="M286.82,-659.14C313.63,-657.21 348.76,-652.53 378,-641.36 386.98,-637.93 387.22,-633.27 396,-629.36 444.4,-607.8 576.89,-587.56 627,-570.36 647.4,-563.36 669.9,-553.29 685.47,-545.92"/>
<polygon fill="#9a32cd" stroke="#9a32cd" points="286.38,-655.66 276.62,-659.77 286.82,-662.64 286.38,-655.66"/>
<text text-anchor="middle" x="464.5" y="-643.36" font-family="Helvetica,sans-Serif" font-size="10.00"> global_name</text>
<text text-anchor="middle" x="464.5" y="-632.36" font-family="Helvetica,sans-Serif" font-size="10.00">username</text>
</g>
<!-- Node16 -->
<g id="node16" class="node">
<title>Node16</title>
<g id="a_node16"><a xlink:href="structdpp_1_1utility_1_1primaryguild.html" target="_top" xlink:title="User&#39;s primary guild (server tag)">
<polygon fill="none" stroke="black" points="396,-526.86 396,-545.86 533,-545.86 533,-526.86 396,-526.86"/>
<text text-anchor="middle" x="464.5" y="-533.86" font-family="Helvetica,sans-Serif" font-size="10.00">dpp::utility::primaryguild</text>
</a>
</g>
</g>
<!-- Node4&#45;&gt;Node16 -->
<g id="edge20" class="edge">
<title>Node4&#45;&gt;Node16</title>
<path fill="none" stroke="#9a32cd" stroke-dasharray="5,2" d="M286.33,-647.61C315.08,-636.98 352.64,-619.35 378,-593.36 391.05,-579.99 381.72,-567.42 396,-555.36 400.56,-551.51 405.84,-548.44 411.41,-545.99"/>
<polygon fill="#9a32cd" stroke="#9a32cd" points="284.82,-644.44 276.57,-651.08 287.16,-651.03 284.82,-644.44"/>
<text text-anchor="middle" x="354.5" y="-629.36" font-family="Helvetica,sans-Serif" font-size="10.00"> tag</text>
</g>
<!-- Node5 -->
<g id="node5" class="node">
<title>Node5</title>
<g id="a_node5"><a xlink:title=" ">
<polygon fill="none" stroke="#bfbfbf" points="0,-645.36 0,-675.36 104,-675.36 104,-645.36 0,-645.36"/>
<text text-anchor="start" x="8" y="-663.36" font-family="Helvetica,sans-Serif" font-size="10.00">std::basic_string&lt;</text>
<text text-anchor="middle" x="52" y="-652.36" font-family="Helvetica,sans-Serif" font-size="10.00"> Char &gt;</text>
</a>
</g>
</g>
<!-- Node5&#45;&gt;Node4 -->
<g id="edge4" class="edge">
<title>Node5&#45;&gt;Node4</title>
<path fill="none" stroke="midnightblue" d="M114.44,-660.36C146.78,-660.36 185.08,-660.36 211.41,-660.36"/>
<polygon fill="midnightblue" stroke="midnightblue" points="114.17,-656.86 104.17,-660.36 114.17,-663.86 114.17,-656.86"/>
</g>
<!-- Node6 -->
<g id="node6" class="node">
<title>Node6</title>
<g id="a_node6"><a xlink:title=" ">
<polygon fill="none" stroke="#bfbfbf" points="682,-346.86 682,-365.86 730,-365.86 730,-346.86 682,-346.86"/>
<text text-anchor="middle" x="706" y="-353.86" font-family="Helvetica,sans-Serif" font-size="10.00">time_t</text>
</a>
</g>
</g>
<!-- Node6&#45;&gt;Node3 -->
<g id="edge5" class="edge">
<title>Node6&#45;&gt;Node3</title>
<path fill="none" stroke="#9a32cd" stroke-dasharray="5,2" d="M740.15,-354.32C781.24,-351.42 853.25,-345.09 914,-333.36 921.55,-331.9 929.58,-329.92 937.08,-327.87"/>
<polygon fill="#9a32cd" stroke="#9a32cd" points="739.89,-350.83 730.16,-355 740.37,-357.81 739.89,-350.83"/>
<text text-anchor="middle" x="849.5" y="-353.36" font-family="Helvetica,sans-Serif" font-size="10.00"> last_identify</text>
</g>
<!-- Node7 -->
<g id="node7" class="node">
<title>Node7</title>
<g id="a_node7"><a xlink:title=" ">
<polygon fill="none" stroke="#bfbfbf" points="436.5,-700.86 436.5,-719.86 492.5,-719.86 492.5,-700.86 436.5,-700.86"/>
<text text-anchor="middle" x="464.5" y="-707.86" font-family="Helvetica,sans-Serif" font-size="10.00">uint32_t</text>
</a>
</g>
</g>
<!-- Node7&#45;&gt;Node3 -->
<g id="edge6" class="edge">
<title>Node7&#45;&gt;Node3</title>
<path fill="none" stroke="#9a32cd" stroke-dasharray="5,2" d="M502.8,-712.34C536.2,-712.96 586.06,-711 627,-697.36 770.08,-649.71 824.28,-637.57 914,-516.36 959.15,-455.36 966.55,-358.8 967.76,-328.08"/>
<polygon fill="#9a32cd" stroke="#9a32cd" points="502.66,-708.84 492.57,-712.06 502.47,-715.83 502.66,-708.84"/>
<text text-anchor="middle" x="706" y="-726.36" font-family="Helvetica,sans-Serif" font-size="10.00"> cluster_id</text>
<text text-anchor="middle" x="706" y="-715.36" font-family="Helvetica,sans-Serif" font-size="10.00">intents</text>
<text text-anchor="middle" x="706" y="-704.36" font-family="Helvetica,sans-Serif" font-size="10.00">maxclusters</text>
<text text-anchor="middle" x="706" y="-693.36" font-family="Helvetica,sans-Serif" font-size="10.00">numshards</text>
</g>
<!-- Node7&#45;&gt;Node9 -->
<g id="edge22" class="edge">
<title>Node7&#45;&gt;Node9</title>
<path fill="none" stroke="#9a32cd" stroke-dasharray="5,2" d="M502.52,-699.94C549.4,-686.7 624.45,-665.3 627,-663.36 668.97,-631.35 693.58,-569.71 701.85,-545.99"/>
<polygon fill="#9a32cd" stroke="#9a32cd" points="501.37,-696.63 492.69,-702.72 503.27,-703.37 501.37,-696.63"/>
<text text-anchor="middle" x="589" y="-687.36" font-family="Helvetica,sans-Serif" font-size="10.00"> flags</text>
</g>
<!-- Node8 -->
<g id="node8" class="node">
<title>Node8</title>
<g id="a_node8"><a xlink:title=" ">
<polygon fill="none" stroke="#bfbfbf" points="681,-308.86 681,-327.86 731,-327.86 731,-308.86 681,-308.86"/>
<text text-anchor="middle" x="706" y="-315.86" font-family="Helvetica,sans-Serif" font-size="10.00">double</text>
</a>
</g>
</g>
<!-- Node8&#45;&gt;Node3 -->
<g id="edge7" class="edge">
<title>Node8&#45;&gt;Node3</title>
<path fill="none" stroke="#9a32cd" stroke-dasharray="5,2" d="M741.24,-318.36C790.53,-318.36 881.09,-318.36 931.57,-318.36"/>
<polygon fill="#9a32cd" stroke="#9a32cd" points="741.09,-314.86 731.09,-318.36 741.09,-321.86 741.09,-314.86"/>
<text text-anchor="middle" x="849.5" y="-321.36" font-family="Helvetica,sans-Serif" font-size="10.00"> rest_ping</text>
</g>
<!-- Node9&#45;&gt;Node3 -->
<g id="edge8" class="edge">
<title>Node9&#45;&gt;Node3</title>
<path fill="none" stroke="#9a32cd" stroke-dasharray="5,2" d="M742.38,-522.87C786.95,-504.44 863.76,-467.7 914,-416.36 940.36,-389.42 957.78,-347.03 964.67,-328.08"/>
<polygon fill="#9a32cd" stroke="#9a32cd" points="740.8,-519.74 732.85,-526.74 743.43,-526.22 740.8,-519.74"/>
<text text-anchor="middle" x="849.5" y="-504.36" font-family="Helvetica,sans-Serif" font-size="10.00"> me</text>
</g>
<!-- Node10 -->
<g id="node10" class="node">
<title>Node10</title>
<g id="a_node10"><a xlink:href="classdpp_1_1managed.html" target="_top" xlink:title="The managed class is the base class for various types that can be stored in a cache that are identifi...">
<polygon fill="none" stroke="black" points="421.5,-564.86 421.5,-583.86 507.5,-583.86 507.5,-564.86 421.5,-564.86"/>
<text text-anchor="middle" x="464.5" y="-571.86" font-family="Helvetica,sans-Serif" font-size="10.00">dpp::managed</text>
</a>
</g>
</g>
<!-- Node10&#45;&gt;Node9 -->
<g id="edge9" class="edge">
<title>Node10&#45;&gt;Node9</title>
<path fill="none" stroke="midnightblue" d="M517.68,-567.58C549.36,-563.31 590.58,-557.45 627,-551.36 642.78,-548.72 660.27,-545.39 674.69,-542.54"/>
<polygon fill="midnightblue" stroke="midnightblue" points="517.2,-564.12 507.75,-568.91 518.13,-571.05 517.2,-564.12"/>
</g>
<!-- Node11 -->
<g id="node11" class="node">
<title>Node11</title>
<g id="a_node11"><a xlink:href="classdpp_1_1snowflake.html" target="_top" xlink:title="A container for a 64 bit unsigned value representing many things on discord. This value is known in d...">
<polygon fill="none" stroke="black" points="199.5,-560.86 199.5,-579.86 288.5,-579.86 288.5,-560.86 199.5,-560.86"/>
<text text-anchor="middle" x="244" y="-567.86" font-family="Helvetica,sans-Serif" font-size="10.00">dpp::snowflake</text>
</a>
</g>
</g>
<!-- Node11&#45;&gt;Node10 -->
<g id="edge10" class="edge">
<title>Node11&#45;&gt;Node10</title>
<path fill="none" stroke="#9a32cd" stroke-dasharray="5,2" d="M298.75,-576.13C309.42,-577.06 320.56,-577.88 331,-578.36 361.23,-579.76 395.37,-578.67 421.42,-577.27"/>
<polygon fill="#9a32cd" stroke="#9a32cd" points="298.97,-572.64 288.7,-575.22 298.34,-579.61 298.97,-572.64"/>
<text text-anchor="middle" x="354.5" y="-581.36" font-family="Helvetica,sans-Serif" font-size="10.00"> id</text>
</g>
<!-- Node11&#45;&gt;Node16 -->
<g id="edge18" class="edge">
<title>Node11&#45;&gt;Node16</title>
<path fill="none" stroke="#9a32cd" stroke-dasharray="5,2" d="M298.95,-561.97C330.2,-557.1 369.65,-550.96 402.09,-545.92"/>
<polygon fill="#9a32cd" stroke="#9a32cd" points="298.03,-558.57 288.69,-563.56 299.11,-565.48 298.03,-558.57"/>
<text text-anchor="middle" x="354.5" y="-559.36" font-family="Helvetica,sans-Serif" font-size="10.00"> id</text>
</g>
<!-- Node12 -->
<g id="node12" class="node">
<title>Node12</title>
<g id="a_node12"><a xlink:title=" ">
<polygon fill="none" stroke="#bfbfbf" points="24,-519.86 24,-538.86 80,-538.86 80,-519.86 24,-519.86"/>
<text text-anchor="middle" x="52" y="-526.86" font-family="Helvetica,sans-Serif" font-size="10.00">uint64_t</text>
</a>
</g>
</g>
<!-- Node12&#45;&gt;Node11 -->
<g id="edge11" class="edge">
<title>Node12&#45;&gt;Node11</title>
<path fill="none" stroke="#9a32cd" stroke-dasharray="5,2" d="M90.28,-537.41C121.58,-544.16 166.34,-553.82 199.32,-560.93"/>
<polygon fill="#9a32cd" stroke="#9a32cd" points="90.74,-533.92 80.22,-535.24 89.26,-540.77 90.74,-533.92"/>
<text text-anchor="middle" x="139.5" y="-553.36" font-family="Helvetica,sans-Serif" font-size="10.00"> value</text>
</g>
<!-- Node15 -->
<g id="node15" class="node">
<title>Node15</title>
<g id="a_node15"><a xlink:href="structdpp_1_1utility_1_1iconhash.html" target="_top" xlink:title="Store a 128 bit icon hash (profile picture, server icon etc) as a 128 bit binary value made of two ui...">
<polygon fill="none" stroke="black" points="185,-484.86 185,-503.86 303,-503.86 303,-484.86 185,-484.86"/>
<text text-anchor="middle" x="244" y="-491.86" font-family="Helvetica,sans-Serif" font-size="10.00">dpp::utility::iconhash</text>
</a>
</g>
</g>
<!-- Node12&#45;&gt;Node15 -->
<g id="edge16" class="edge">
<title>Node12&#45;&gt;Node15</title>
<path fill="none" stroke="#9a32cd" stroke-dasharray="5,2" d="M89.97,-518.88C100.28,-516.18 111.53,-513.45 122,-511.36 142.39,-507.28 164.9,-503.84 184.92,-501.14"/>
<polygon fill="#9a32cd" stroke="#9a32cd" points="88.79,-515.57 80.03,-521.54 90.6,-522.33 88.79,-515.57"/>
<text text-anchor="middle" x="139.5" y="-525.36" font-family="Helvetica,sans-Serif" font-size="10.00"> first</text>
<text text-anchor="middle" x="139.5" y="-514.36" font-family="Helvetica,sans-Serif" font-size="10.00">second</text>
</g>
<!-- Node13 -->
<g id="node13" class="node">
<title>Node13</title>
<g id="a_node13"><a xlink:href="structdpp_1_1json__interface.html" target="_top" xlink:title=" ">
<polygon fill="none" stroke="black" points="409.5,-419.36 409.5,-449.36 519.5,-449.36 519.5,-419.36 409.5,-419.36"/>
<text text-anchor="start" x="417.5" y="-437.36" font-family="Helvetica,sans-Serif" font-size="10.00">dpp::json_interface</text>
<text text-anchor="middle" x="464.5" y="-426.36" font-family="Helvetica,sans-Serif" font-size="10.00">&lt; user &gt;</text>
</a>
</g>
</g>
<!-- Node13&#45;&gt;Node9 -->
<g id="edge12" class="edge">
<title>Node13&#45;&gt;Node9</title>
<path fill="none" stroke="midnightblue" d="M529.92,-444.34C560.4,-450.64 596.67,-460.48 627,-475.36 654.47,-488.84 681.45,-513.07 695.34,-526.58"/>
<polygon fill="midnightblue" stroke="midnightblue" points="530.31,-440.85 519.82,-442.34 528.95,-447.72 530.31,-440.85"/>
</g>
<!-- Node14 -->
<g id="node14" class="node">
<title>Node14</title>
<g id="a_node14"><a xlink:href="structdpp_1_1json__interface.html" target="_top" xlink:title="Represents an interface for an object that can optionally implement functions for converting to and f...">
<polygon fill="none" stroke="black" points="175,-424.86 175,-443.86 313,-443.86 313,-424.86 175,-424.86"/>
<text text-anchor="middle" x="244" y="-431.86" font-family="Helvetica,sans-Serif" font-size="10.00">dpp::json_interface&lt; T &gt;</text>
</a>
</g>
</g>
<!-- Node14&#45;&gt;Node13 -->
<g id="edge13" class="edge">
<title>Node14&#45;&gt;Node13</title>
<path fill="none" stroke="orange" stroke-dasharray="5,2" d="M323.55,-434.36C351.97,-434.36 383.4,-434.36 409.26,-434.36"/>
<polygon fill="orange" stroke="orange" points="323.24,-430.86 313.24,-434.36 323.24,-437.86 323.24,-430.86"/>
<text text-anchor="middle" x="354.5" y="-437.36" font-family="Helvetica,sans-Serif" font-size="10.00"> &lt; user &gt;</text>
</g>
<!-- Node15&#45;&gt;Node9 -->
<g id="edge15" class="edge">
<title>Node15&#45;&gt;Node9</title>
<path fill="none" stroke="#9a32cd" stroke-dasharray="5,2" d="M313.39,-490.19C371.92,-487.67 458.3,-486.45 533,-495.36 583.6,-501.4 640.9,-516.84 674.93,-526.96"/>
<polygon fill="#9a32cd" stroke="#9a32cd" points="312.99,-486.7 303.16,-490.65 313.31,-493.69 312.99,-486.7"/>
<text text-anchor="middle" x="464.5" y="-509.36" font-family="Helvetica,sans-Serif" font-size="10.00"> avatar</text>
<text text-anchor="middle" x="464.5" y="-498.36" font-family="Helvetica,sans-Serif" font-size="10.00">avatar_decoration</text>
</g>
<!-- Node15&#45;&gt;Node16 -->
<g id="edge21" class="edge">
<title>Node15&#45;&gt;Node16</title>
<path fill="none" stroke="#9a32cd" stroke-dasharray="5,2" d="M313.1,-505.5C333.96,-509.08 356.96,-513.21 378,-517.36 392.47,-520.22 408.25,-523.64 422.27,-526.78"/>
<polygon fill="#9a32cd" stroke="#9a32cd" points="313.49,-502.02 303.05,-503.78 312.32,-508.92 313.49,-502.02"/>
<text text-anchor="middle" x="354.5" y="-520.36" font-family="Helvetica,sans-Serif" font-size="10.00"> badge</text>
</g>
<!-- Node16&#45;&gt;Node9 -->
<g id="edge17" class="edge">
<title>Node16&#45;&gt;Node9</title>
<path fill="none" stroke="#9a32cd" stroke-dasharray="5,2" d="M543.18,-536.36C588.06,-536.36 641.97,-536.36 674.84,-536.36"/>
<polygon fill="#9a32cd" stroke="#9a32cd" points="543.17,-532.86 533.17,-536.36 543.17,-539.86 543.17,-532.86"/>
<text text-anchor="middle" x="589" y="-539.36" font-family="Helvetica,sans-Serif" font-size="10.00"> primary_guild</text>
</g>
<!-- Node17 -->
<g id="node17" class="node">
<title>Node17</title>
<g id="a_node17"><a xlink:title=" ">
<polygon fill="none" stroke="#bfbfbf" points="225,-522.86 225,-541.86 263,-541.86 263,-522.86 225,-522.86"/>
<text text-anchor="middle" x="244" y="-529.86" font-family="Helvetica,sans-Serif" font-size="10.00">bool</text>
</a>
</g>
</g>
<!-- Node17&#45;&gt;Node16 -->
<g id="edge19" class="edge">
<title>Node17&#45;&gt;Node16</title>
<path fill="none" stroke="#9a32cd" stroke-dasharray="5,2" d="M273.31,-532.35C300.24,-532.39 341.88,-532.59 378,-533.36 383.79,-533.48 389.8,-533.64 395.83,-533.81"/>
<polygon fill="#9a32cd" stroke="#9a32cd" points="273.08,-528.85 263.07,-532.34 273.07,-535.85 273.08,-528.85"/>
<text text-anchor="middle" x="354.5" y="-536.36" font-family="Helvetica,sans-Serif" font-size="10.00"> enabled</text>
</g>
<!-- Node18 -->
<g id="node18" class="node">
<title>Node18</title>
<g id="a_node18"><a xlink:title=" ">
<polygon fill="none" stroke="#bfbfbf" points="436.5,-380.86 436.5,-399.86 492.5,-399.86 492.5,-380.86 436.5,-380.86"/>
<text text-anchor="middle" x="464.5" y="-387.86" font-family="Helvetica,sans-Serif" font-size="10.00">uint16_t</text>
</a>
</g>
</g>
<!-- Node18&#45;&gt;Node3 -->
<g id="edge29" class="edge">
<title>Node18&#45;&gt;Node3</title>
<path fill="none" stroke="#9a32cd" stroke-dasharray="5,2" d="M502.61,-396.24C581.76,-407.12 771.57,-424.25 914,-365.36 933.53,-357.29 950.93,-339.21 960.42,-327.98"/>
<polygon fill="#9a32cd" stroke="#9a32cd" points="503.02,-392.76 492.63,-394.82 502.04,-399.69 503.02,-392.76"/>
<text text-anchor="middle" x="706" y="-409.36" font-family="Helvetica,sans-Serif" font-size="10.00"> request_timeout</text>
</g>
<!-- Node18&#45;&gt;Node9 -->
<g id="edge23" class="edge">
<title>Node18&#45;&gt;Node9</title>
<path fill="none" stroke="#9a32cd" stroke-dasharray="5,2" d="M502.5,-400.29C549.77,-412.99 625.67,-433.47 627,-434.36 663.63,-458.99 690.26,-506.54 700.44,-526.82"/>
<polygon fill="#9a32cd" stroke="#9a32cd" points="503.17,-396.84 492.6,-397.63 501.35,-403.6 503.17,-396.84"/>
<text text-anchor="middle" x="589" y="-437.36" font-family="Helvetica,sans-Serif" font-size="10.00"> discriminator</text>
</g>
<!-- Node19 -->
<g id="node19" class="node">
<title>Node19</title>
<g id="a_node19"><a xlink:title=" ">
<polygon fill="none" stroke="#bfbfbf" points="439.5,-660.86 439.5,-679.86 489.5,-679.86 489.5,-660.86 439.5,-660.86"/>
<text text-anchor="middle" x="464.5" y="-667.86" font-family="Helvetica,sans-Serif" font-size="10.00">uint8_t</text>
</a>
</g>
</g>
<!-- Node19&#45;&gt;Node9 -->
<g id="edge24" class="edge">
<title>Node19&#45;&gt;Node9</title>
<path fill="none" stroke="#9a32cd" stroke-dasharray="5,2" d="M499.53,-662.9C543.63,-653.04 616.2,-636.14 627,-629.36 661.8,-607.51 688.84,-564.99 699.75,-545.96"/>
<polygon fill="#9a32cd" stroke="#9a32cd" points="498.52,-659.53 489.52,-665.12 500.04,-666.37 498.52,-659.53"/>
<text text-anchor="middle" x="589" y="-652.36" font-family="Helvetica,sans-Serif" font-size="10.00"> refcount</text>
</g>
<!-- Node20 -->
<g id="node20" class="node">
<title>Node20</title>
<g id="a_node20"><a xlink:href="structdpp_1_1cache__policy__t.html" target="_top" xlink:title="Represents the caching policy of the cluster.">
<polygon fill="none" stroke="black" points="649.5,-270.86 649.5,-289.86 762.5,-289.86 762.5,-270.86 649.5,-270.86"/>
<text text-anchor="middle" x="706" y="-277.86" font-family="Helvetica,sans-Serif" font-size="10.00">dpp::cache_policy_t</text>
</a>
</g>
</g>
<!-- Node20&#45;&gt;Node3 -->
<g id="edge25" class="edge">
<title>Node20&#45;&gt;Node3</title>
<path fill="none" stroke="#9a32cd" stroke-dasharray="5,2" d="M772.82,-284.96C813.71,-288.49 867.2,-294.32 914,-303.36 921.55,-304.82 929.58,-306.81 937.08,-308.86"/>
<polygon fill="#9a32cd" stroke="#9a32cd" points="772.97,-281.46 762.71,-284.12 772.39,-288.44 772.97,-281.46"/>
<text text-anchor="middle" x="849.5" y="-306.36" font-family="Helvetica,sans-Serif" font-size="10.00"> cache_policy</text>
</g>
<!-- Node21 -->
<g id="node21" class="node">
<title>Node21</title>
<g id="a_node21"><a xlink:title=" ">
<polygon fill="none" stroke="#bfbfbf" points="400.5,-270.86 400.5,-289.86 528.5,-289.86 528.5,-270.86 400.5,-270.86"/>
<text text-anchor="middle" x="464.5" y="-277.86" font-family="Helvetica,sans-Serif" font-size="10.00">cache_policy_setting_t</text>
</a>
</g>
</g>
<!-- Node21&#45;&gt;Node20 -->
<g id="edge26" class="edge">
<title>Node21&#45;&gt;Node20</title>
<path fill="none" stroke="#9a32cd" stroke-dasharray="5,2" d="M539.04,-280.36C574.51,-280.36 616.37,-280.36 649.17,-280.36"/>
<polygon fill="#9a32cd" stroke="#9a32cd" points="538.74,-276.86 528.74,-280.36 538.74,-283.86 538.74,-276.86"/>
<text text-anchor="middle" x="589" y="-327.36" font-family="Helvetica,sans-Serif" font-size="10.00"> channel_policy</text>
<text text-anchor="middle" x="589" y="-316.36" font-family="Helvetica,sans-Serif" font-size="10.00">emoji_policy</text>
<text text-anchor="middle" x="589" y="-305.36" font-family="Helvetica,sans-Serif" font-size="10.00">guild_policy</text>
<text text-anchor="middle" x="589" y="-294.36" font-family="Helvetica,sans-Serif" font-size="10.00">role_policy</text>
<text text-anchor="middle" x="589" y="-283.36" font-family="Helvetica,sans-Serif" font-size="10.00">user_policy</text>
</g>
<!-- Node22 -->
<g id="node22" class="node">
<title>Node22</title>
<g id="a_node22"><a xlink:title=" ">
<polygon fill="none" stroke="#bfbfbf" points="645,-232.86 645,-251.86 767,-251.86 767,-232.86 645,-232.86"/>
<text text-anchor="middle" x="706" y="-239.86" font-family="Helvetica,sans-Serif" font-size="10.00">websocket_protocol_t</text>
</a>
</g>
</g>
<!-- Node22&#45;&gt;Node3 -->
<g id="edge27" class="edge">
<title>Node22&#45;&gt;Node3</title>
<path fill="none" stroke="#9a32cd" stroke-dasharray="5,2" d="M777.13,-241.74C818.61,-243.79 871.22,-250.71 914,-270.36 933.38,-279.26 950.83,-297.51 960.37,-308.76"/>
<polygon fill="#9a32cd" stroke="#9a32cd" points="777.25,-238.24 767.11,-241.33 776.96,-245.24 777.25,-238.24"/>
<text text-anchor="middle" x="849.5" y="-273.36" font-family="Helvetica,sans-Serif" font-size="10.00"> ws_mode</text>
</g>
<!-- Node23 -->
<g id="node23" class="node">
<title>Node23</title>
<g id="a_node23"><a xlink:title=" ">
<polygon fill="none" stroke="#bfbfbf" points="667.5,-194.86 667.5,-213.86 744.5,-213.86 744.5,-194.86 667.5,-194.86"/>
<text text-anchor="middle" x="706" y="-201.86" font-family="Helvetica,sans-Serif" font-size="10.00">atomic_bool</text>
</a>
</g>
</g>
<!-- Node23&#45;&gt;Node3 -->
<g id="edge28" class="edge">
<title>Node23&#45;&gt;Node3</title>
<path fill="none" stroke="#9a32cd" stroke-dasharray="5,2" d="M754.71,-198.2C799.43,-194.91 866.36,-196.63 914,-227.36 944.1,-246.78 959.68,-289.42 965.39,-308.63"/>
<polygon fill="#9a32cd" stroke="#9a32cd" points="754.35,-194.72 744.68,-199.05 754.94,-201.69 754.35,-194.72"/>
<text text-anchor="middle" x="849.5" y="-230.36" font-family="Helvetica,sans-Serif" font-size="10.00"> terminating</text>
</g>
<!-- Node24 -->
<g id="node24" class="node">
<title>Node24</title>
<g id="a_node24"><a xlink:title=" ">
<polygon fill="none" stroke="#bfbfbf" points="667.5,-156.86 667.5,-175.86 744.5,-175.86 744.5,-156.86 667.5,-156.86"/>
<text text-anchor="middle" x="706" y="-163.86" font-family="Helvetica,sans-Serif" font-size="10.00">unique_ptr&lt;</text>
</a>
</g>
</g>
<!-- Node24&#45;&gt;Node3 -->
<g id="edge30" class="edge">
<title>Node24&#45;&gt;Node3</title>
<path fill="none" stroke="#9a32cd" stroke-dasharray="5,2" d="M754.57,-156.46C799.99,-149.83 868.11,-147.63 914,-181.36 956.64,-212.7 965.63,-282.93 967.51,-308.67"/>
<polygon fill="#9a32cd" stroke="#9a32cd" points="754.01,-153 744.68,-158.02 755.1,-159.92 754.01,-153"/>
<text text-anchor="middle" x="849.5" y="-184.36" font-family="Helvetica,sans-Serif" font-size="10.00"> socketengine</text>
</g>
<!-- Node25 -->
<g id="node25" class="node">
<title>Node25</title>
<g id="a_node25"><a xlink:title=" ">
<polygon fill="none" stroke="#bfbfbf" points="658,-14.86 658,-33.86 754,-33.86 754,-14.86 658,-14.86"/>
<text text-anchor="middle" x="706" y="-21.86" font-family="Helvetica,sans-Serif" font-size="10.00">event_router_t&lt;</text>
</a>
</g>
</g>
<!-- Node25&#45;&gt;Node3 -->
<g id="edge31" class="edge">
<title>Node25&#45;&gt;Node3</title>
<path fill="none" stroke="#9a32cd" stroke-dasharray="5,2" d="M744.72,-12.04C790.39,0.29 867.01,12.29 914,-27.36 958.38,-64.81 966.49,-262.93 967.78,-308.85"/>
<polygon fill="#9a32cd" stroke="#9a32cd" points="743.58,-8.72 734.92,-14.82 745.49,-15.46 743.58,-8.72"/>
<text text-anchor="middle" x="849.5" y="-140.36" font-family="Helvetica,sans-Serif" font-size="10.00"> on_autocomplete</text>
<text text-anchor="middle" x="849.5" y="-129.36" font-family="Helvetica,sans-Serif" font-size="10.00">on_automod_rule_create</text>
<text text-anchor="middle" x="849.5" y="-118.36" font-family="Helvetica,sans-Serif" font-size="10.00">on_automod_rule_delete</text>
<text text-anchor="middle" x="849.5" y="-107.36" font-family="Helvetica,sans-Serif" font-size="10.00">on_automod_rule_execute</text>
<text text-anchor="middle" x="849.5" y="-96.36" font-family="Helvetica,sans-Serif" font-size="10.00">on_automod_rule_update</text>
<text text-anchor="middle" x="849.5" y="-85.36" font-family="Helvetica,sans-Serif" font-size="10.00">on_button_click</text>
<text text-anchor="middle" x="849.5" y="-74.36" font-family="Helvetica,sans-Serif" font-size="10.00">on_channel_create</text>
<text text-anchor="middle" x="849.5" y="-63.36" font-family="Helvetica,sans-Serif" font-size="10.00">on_channel_delete</text>
<text text-anchor="middle" x="849.5" y="-52.36" font-family="Helvetica,sans-Serif" font-size="10.00">on_channel_pins_update</text>
<text text-anchor="middle" x="849.5" y="-41.36" font-family="Helvetica,sans-Serif" font-size="10.00">on_channel_update</text>
<text text-anchor="middle" x="849.5" y="-30.36" font-family="Helvetica,sans-Serif" font-size="10.00">...</text>
</g>
</g>
</svg>
        <g id="navigator" transform="translate(0 0)" fill="#404254">
                <rect fill="#f2f5e9" fill-opacity="0.5" stroke="#606060" stroke-width=".5" x="0" y="0" width="60" height="60"/>
                <use id="zoomplus" xlink:href="#zoomPlus" x="17" y="9" onmousedown="handleZoom(evt,'in')"/>
                <use id="zoomminus" xlink:href="#zoomMin" x="42" y="9" onmousedown="handleZoom(evt,'out')"/>
                <use id="reset" xlink:href="#resetDef" x="30" y="36" onmousedown="handleReset()"/>
                <g id="arrowUp" xlink:href="#dirArrow" transform="translate(30 24)" onmousedown="handlePan(0,-1)">
                  <use xlink:href="#rim" fill="#404040">
                        <set attributeName="fill" to="#808080" begin="arrowUp.mouseover" end="arrowUp.mouseout"/>
                  </use>
                  <path fill="none" stroke="white" stroke-width="1.5" d="M0,-3.0v7 M-2.5,-0.5L0,-3.0L2.5,-0.5"/>
                </g>
                <g id="arrowRight" xlink:href="#dirArrow" transform="rotate(90) translate(36 -43)" onmousedown="handlePan(1,0)">
                  <use xlink:href="#rim" fill="#404040">
                        <set attributeName="fill" to="#808080" begin="arrowRight.mouseover" end="arrowRight.mouseout"/>
                  </use>
                  <path fill="none" stroke="white" stroke-width="1.5" d="M0,-3.0v7 M-2.5,-0.5L0,-3.0L2.5,-0.5"/>
                </g>
                <g id="arrowDown" xlink:href="#dirArrow" transform="rotate(180) translate(-30 -48)" onmousedown="handlePan(0,1)">
                  <use xlink:href="#rim" fill="#404040">
                        <set attributeName="fill" to="#808080" begin="arrowDown.mouseover" end="arrowDown.mouseout"/>
                  </use>
                  <path fill="none" stroke="white" stroke-width="1.5" d="M0,-3.0v7 M-2.5,-0.5L0,-3.0L2.5,-0.5"/>
                </g>
                <g id="arrowLeft" xlink:href="#dirArrow" transform="rotate(270) translate(-36 17)" onmousedown="handlePan(-1,0)">
                  <use xlink:href="#rim" fill="#404040">
                        <set attributeName="fill" to="#808080" begin="arrowLeft.mouseover" end="arrowLeft.mouseout"/>
                  </use>
                  <path fill="none" stroke="white" stroke-width="1.5" d="M0,-3.0v7 M-2.5,-0.5L0,-3.0L2.5,-0.5"/>
                </g>
        </g>
        <svg viewBox="0 0 15 15" width="100%" height="30px" preserveAspectRatio="xMaxYMin meet">
         <g id="arrow_out" transform="scale(0.3 0.3)">
          <a xlink:href="classdpp_1_1thread__collector__coll__graph_org.svg" target="_base">
           <rect id="button" ry="5" rx="5" y="6" x="6" height="38" width="38"
                fill="#f2f5e9" fill-opacity="0.5" stroke="#606060" stroke-width="1.0"/>
           <path id="arrow"
             d="M 11.500037,31.436501 C 11.940474,20.09759 22.043105,11.32322 32.158766,21.979434 L 37.068811,17.246167 C 37.068811,17.246167 37.088388,32 37.088388,32 L 22.160133,31.978069 C 22.160133,31.978069 26.997745,27.140456 26.997745,27.140456 C 18.528582,18.264221 13.291696,25.230495 11.500037,31.436501 z"
             style="fill:#404040;"/>
          </a>
         </g>
        </svg>
</svg>
