<?xml version="1.0" encoding="UTF-8" standalone="no"?>
<!DOCTYPE svg PUBLIC "-//W3C//DTD SVG 1.1//EN"
 "http://www.w3.org/Graphics/SVG/1.1/DTD/svg11.dtd">
<!-- Generated by graphviz version 2.43.0 (0)
 -->
<!-- Title: dpp::websocket_client Pages: 1 -->
<svg width="1440pt" height="902pt"
 viewBox="0.00 0.00 1440.00 901.50" xmlns="http://www.w3.org/2000/svg" xmlns:xlink="http://www.w3.org/1999/xlink">
<g id="graph0" class="graph" transform="scale(1 1) rotate(0) translate(4 897.5)">
<title>dpp::websocket_client</title>
<!-- Node1 -->
<g id="node1" class="node">
<title>Node1</title>
<g id="a_node1"><a xlink:title="Implements a websocket client based on the SSL client.">
<polygon fill="#bfbfbf" stroke="black" points="1307,-835 1307,-854 1432,-854 1432,-835 1307,-835"/>
<text text-anchor="middle" x="1369.5" y="-842" font-family="Helvetica,sans-Serif" font-size="10.00">dpp::websocket_client</text>
</a>
</g>
</g>
<!-- Node2 -->
<g id="node2" class="node">
<title>Node2</title>
<g id="a_node2"><a xlink:href="classdpp_1_1ssl__connection.html" target="_top" xlink:title="Implements a simple non&#45;blocking SSL stream connection.">
<polygon fill="none" stroke="black" points="1157,-636 1157,-655 1270,-655 1270,-636 1157,-636"/>
<text text-anchor="middle" x="1213.5" y="-643" font-family="Helvetica,sans-Serif" font-size="10.00">dpp::ssl_connection</text>
</a>
</g>
</g>
<!-- Node2&#45;&gt;Node1 -->
<g id="edge1" class="edge">
<title>Node2&#45;&gt;Node1</title>
<path fill="none" stroke="midnightblue" d="M1228.09,-663.07C1259.64,-703.83 1336.96,-803.75 1361.15,-835"/>
<polygon fill="midnightblue" stroke="midnightblue" points="1230.82,-660.87 1221.93,-655.1 1225.28,-665.15 1230.82,-660.87"/>
</g>
<!-- Node3 -->
<g id="node3" class="node">
<title>Node3</title>
<g id="a_node3"><a xlink:title=" ">
<polygon fill="none" stroke="#bfbfbf" points="211.5,-459 211.5,-478 276.5,-478 276.5,-459 211.5,-459"/>
<text text-anchor="middle" x="244" y="-466" font-family="Helvetica,sans-Serif" font-size="10.00">std::string</text>
</a>
</g>
</g>
<!-- Node3&#45;&gt;Node2 -->
<g id="edge2" class="edge">
<title>Node3&#45;&gt;Node2</title>
<path fill="none" stroke="#9a32cd" stroke-dasharray="5,2" d="M257.56,-486.79C287.77,-528.38 369.06,-626.5 463.5,-626.5 463.5,-626.5 463.5,-626.5 993.5,-626.5 1049.22,-626.5 1112.61,-632.68 1156.81,-637.99"/>
<polygon fill="#9a32cd" stroke="#9a32cd" points="260.24,-484.51 251.6,-478.39 254.53,-488.57 260.24,-484.51"/>
<text text-anchor="middle" x="706" y="-717.5" font-family="Helvetica,sans-Serif" font-size="10.00"> buffer</text>
<text text-anchor="middle" x="706" y="-706.5" font-family="Helvetica,sans-Serif" font-size="10.00">cipher</text>
<text text-anchor="middle" x="706" y="-695.5" font-family="Helvetica,sans-Serif" font-size="10.00">hostname</text>
<text text-anchor="middle" x="706" y="-684.5" font-family="Helvetica,sans-Serif" font-size="10.00">obuffer</text>
<text text-anchor="middle" x="706" y="-673.5" font-family="Helvetica,sans-Serif" font-size="10.00">port</text>
<text text-anchor="start" x="677" y="-662.5" font-family="Helvetica,sans-Serif" font-size="10.00">private_key</text>
<text text-anchor="middle" x="706" y="-651.5" font-family="Helvetica,sans-Serif" font-size="10.00">_file</text>
<text text-anchor="start" x="677" y="-640.5" font-family="Helvetica,sans-Serif" font-size="10.00">public_key</text>
<text text-anchor="middle" x="706" y="-629.5" font-family="Helvetica,sans-Serif" font-size="10.00">_file</text>
</g>
<!-- Node12 -->
<g id="node12" class="node">
<title>Node12</title>
<g id="a_node12"><a xlink:href="classdpp_1_1cluster.html" target="_top" xlink:title="The cluster class represents a group of shards and a command queue for sending and receiving commands...">
<polygon fill="none" stroke="black" points="955.5,-416 955.5,-435 1029.5,-435 1029.5,-416 955.5,-416"/>
<text text-anchor="middle" x="992.5" y="-423" font-family="Helvetica,sans-Serif" font-size="10.00">dpp::cluster</text>
</a>
</g>
</g>
<!-- Node3&#45;&gt;Node12 -->
<g id="edge12" class="edge">
<title>Node3&#45;&gt;Node12</title>
<path fill="none" stroke="#9a32cd" stroke-dasharray="5,2" d="M280.2,-481.5C336.47,-501.51 450.57,-538.97 551,-552.5 667.79,-568.24 899.74,-524.2 914,-516.5 949.61,-497.28 975.94,-454.54 986.46,-435.27"/>
<polygon fill="#9a32cd" stroke="#9a32cd" points="281.3,-478.18 270.71,-478.09 278.94,-484.76 281.3,-478.18"/>
<text text-anchor="middle" x="589" y="-558.5" font-family="Helvetica,sans-Serif" font-size="10.00"> token</text>
</g>
<!-- Node15 -->
<g id="node15" class="node">
<title>Node15</title>
<g id="a_node15"><a xlink:href="classdpp_1_1user.html" target="_top" xlink:title="Represents a user on discord. May or may not be a member of a dpp::guild.">
<polygon fill="none" stroke="black" points="675,-172 675,-191 737,-191 737,-172 675,-172"/>
<text text-anchor="middle" x="706" y="-179" font-family="Helvetica,sans-Serif" font-size="10.00">dpp::user</text>
</a>
</g>
</g>
<!-- Node3&#45;&gt;Node15 -->
<g id="edge22" class="edge">
<title>Node3&#45;&gt;Node15</title>
<path fill="none" stroke="#9a32cd" stroke-dasharray="5,2" d="M269.67,-453.77C299.1,-436.54 350.1,-407.82 396,-387.5 399.11,-386.12 624.79,-308.09 627,-305.5 655.72,-271.79 617.44,-242.16 645,-207.5 652.42,-198.17 663.85,-192.12 674.74,-188.23"/>
<polygon fill="#9a32cd" stroke="#9a32cd" points="267.75,-450.84 260.91,-458.93 271.3,-456.87 267.75,-450.84"/>
<text text-anchor="middle" x="464.5" y="-401.5" font-family="Helvetica,sans-Serif" font-size="10.00"> global_name</text>
<text text-anchor="middle" x="464.5" y="-390.5" font-family="Helvetica,sans-Serif" font-size="10.00">username</text>
</g>
<!-- Node21 -->
<g id="node21" class="node">
<title>Node21</title>
<g id="a_node21"><a xlink:href="structdpp_1_1utility_1_1primaryguild.html" target="_top" xlink:title="User&#39;s primary guild (server tag)">
<polygon fill="none" stroke="black" points="396,-205 396,-224 533,-224 533,-205 396,-205"/>
<text text-anchor="middle" x="464.5" y="-212" font-family="Helvetica,sans-Serif" font-size="10.00">dpp::utility::primaryguild</text>
</a>
</g>
</g>
<!-- Node3&#45;&gt;Node21 -->
<g id="edge28" class="edge">
<title>Node3&#45;&gt;Node21</title>
<path fill="none" stroke="#9a32cd" stroke-dasharray="5,2" d="M252.24,-449.53C269.91,-405.72 319.49,-296.81 396,-238.5 404.11,-232.32 413.95,-227.64 423.58,-224.12"/>
<polygon fill="#9a32cd" stroke="#9a32cd" points="248.92,-448.39 248.52,-458.98 255.44,-450.95 248.92,-448.39"/>
<text text-anchor="middle" x="354.5" y="-306.5" font-family="Helvetica,sans-Serif" font-size="10.00"> tag</text>
</g>
<!-- Node4 -->
<g id="node4" class="node">
<title>Node4</title>
<g id="a_node4"><a xlink:title=" ">
<polygon fill="none" stroke="#bfbfbf" points="0,-453.5 0,-483.5 104,-483.5 104,-453.5 0,-453.5"/>
<text text-anchor="start" x="8" y="-471.5" font-family="Helvetica,sans-Serif" font-size="10.00">std::basic_string&lt;</text>
<text text-anchor="middle" x="52" y="-460.5" font-family="Helvetica,sans-Serif" font-size="10.00"> Char &gt;</text>
</a>
</g>
</g>
<!-- Node4&#45;&gt;Node3 -->
<g id="edge3" class="edge">
<title>Node4&#45;&gt;Node3</title>
<path fill="none" stroke="midnightblue" d="M114.44,-468.5C146.78,-468.5 185.08,-468.5 211.41,-468.5"/>
<polygon fill="midnightblue" stroke="midnightblue" points="114.17,-465 104.17,-468.5 114.17,-472 114.17,-465"/>
</g>
<!-- Node5 -->
<g id="node5" class="node">
<title>Node5</title>
<g id="a_node5"><a xlink:title=" ">
<polygon fill="none" stroke="#bfbfbf" points="978,-2 978,-21 1007,-21 1007,-2 978,-2"/>
<text text-anchor="middle" x="992.5" y="-9" font-family="Helvetica,sans-Serif" font-size="10.00">int</text>
</a>
</g>
</g>
<!-- Node5&#45;&gt;Node2 -->
<g id="edge4" class="edge">
<title>Node5&#45;&gt;Node2</title>
<path fill="none" stroke="#9a32cd" stroke-dasharray="5,2" d="M1017.32,-5.51C1049.58,1.02 1106.81,6.78 1139,-24.5 1184.94,-69.14 1208.64,-559.24 1212.07,-635.54"/>
<polygon fill="#9a32cd" stroke="#9a32cd" points="1016.42,-2.13 1007.41,-7.71 1017.93,-8.96 1016.42,-2.13"/>
<text text-anchor="middle" x="1105" y="-27.5" font-family="Helvetica,sans-Serif" font-size="10.00"> sfd</text>
</g>
<!-- Node6 -->
<g id="node6" class="node">
<title>Node6</title>
<g id="a_node6"><a xlink:title=" ">
<polygon fill="none" stroke="#bfbfbf" points="932,-797 932,-816 1053,-816 1053,-797 932,-797"/>
<text text-anchor="middle" x="992.5" y="-804" font-family="Helvetica,sans-Serif" font-size="10.00">openssl_connection *</text>
</a>
</g>
</g>
<!-- Node6&#45;&gt;Node2 -->
<g id="edge5" class="edge">
<title>Node6&#45;&gt;Node2</title>
<path fill="none" stroke="#9a32cd" stroke-dasharray="5,2" d="M1063.4,-800.64C1089.13,-795.69 1117.27,-786.71 1139,-770.5 1180.17,-739.79 1202.4,-678.65 1209.73,-655.08"/>
<polygon fill="#9a32cd" stroke="#9a32cd" points="1062.55,-797.23 1053.3,-802.4 1063.75,-804.13 1062.55,-797.23"/>
<text text-anchor="middle" x="1105" y="-801.5" font-family="Helvetica,sans-Serif" font-size="10.00"> ssl</text>
</g>
<!-- Node7 -->
<g id="node7" class="node">
<title>Node7</title>
<g id="a_node7"><a xlink:title=" ">
<polygon fill="none" stroke="#bfbfbf" points="682,-835 682,-854 730,-854 730,-835 682,-835"/>
<text text-anchor="middle" x="706" y="-842" font-family="Helvetica,sans-Serif" font-size="10.00">time_t</text>
</a>
</g>
</g>
<!-- Node7&#45;&gt;Node1 -->
<g id="edge41" class="edge">
<title>Node7&#45;&gt;Node1</title>
<path fill="none" stroke="#9a32cd" stroke-dasharray="5,2" d="M740.47,-844.5C845.58,-844.5 1170.14,-844.5 1306.82,-844.5"/>
<polygon fill="#9a32cd" stroke="#9a32cd" points="740.16,-841 730.16,-844.5 740.16,-848 740.16,-841"/>
<text text-anchor="middle" x="1105" y="-847.5" font-family="Helvetica,sans-Serif" font-size="10.00"> timeout</text>
</g>
<!-- Node7&#45;&gt;Node2 -->
<g id="edge6" class="edge">
<title>Node7&#45;&gt;Node2</title>
<path fill="none" stroke="#9a32cd" stroke-dasharray="5,2" d="M739.48,-831.67C782.85,-814.86 862.34,-785.22 932,-765.5 1022.59,-739.86 1056.59,-766.03 1139,-720.5 1169,-703.93 1194.58,-671.25 1206.05,-655.06"/>
<polygon fill="#9a32cd" stroke="#9a32cd" points="738.07,-828.46 730.02,-835.35 740.61,-834.99 738.07,-828.46"/>
<text text-anchor="middle" x="992.5" y="-779.5" font-family="Helvetica,sans-Serif" font-size="10.00"> last_tick</text>
<text text-anchor="middle" x="992.5" y="-768.5" font-family="Helvetica,sans-Serif" font-size="10.00">start</text>
</g>
<!-- Node7&#45;&gt;Node12 -->
<g id="edge13" class="edge">
<title>Node7&#45;&gt;Node12</title>
<path fill="none" stroke="#9a32cd" stroke-dasharray="5,2" d="M739.83,-837.7C749.83,-834.12 760.01,-828.7 767,-820.5 790.64,-792.76 768.58,-773.04 785,-740.5 824.47,-662.31 866.35,-665 914,-591.5 949.81,-536.26 978.38,-461.82 988.01,-435.35"/>
<polygon fill="#9a32cd" stroke="#9a32cd" points="738.56,-834.43 730.01,-840.7 740.6,-841.13 738.56,-834.43"/>
<text text-anchor="middle" x="849.5" y="-743.5" font-family="Helvetica,sans-Serif" font-size="10.00"> last_identify</text>
</g>
<!-- Node8 -->
<g id="node8" class="node">
<title>Node8</title>
<g id="a_node8"><a xlink:title=" ">
<polygon fill="none" stroke="#bfbfbf" points="439.5,-419 439.5,-438 489.5,-438 489.5,-419 439.5,-419"/>
<text text-anchor="middle" x="464.5" y="-426" font-family="Helvetica,sans-Serif" font-size="10.00">uint8_t</text>
</a>
</g>
</g>
<!-- Node8&#45;&gt;Node2 -->
<g id="edge7" class="edge">
<title>Node8&#45;&gt;Node2</title>
<path fill="none" stroke="#9a32cd" stroke-dasharray="5,2" d="M499.54,-434.2C511.64,-437.84 524.38,-443.79 533,-453.5 555.75,-479.14 525.65,-505.42 551,-528.5 599.8,-572.93 1075.61,-594.14 1139,-612.5 1158.88,-618.26 1180.34,-628.39 1194.91,-635.91"/>
<polygon fill="#9a32cd" stroke="#9a32cd" points="500.19,-430.76 489.63,-431.66 498.45,-437.54 500.19,-430.76"/>
<text text-anchor="middle" x="849.5" y="-589.5" font-family="Helvetica,sans-Serif" font-size="10.00"> connect_retries</text>
</g>
<!-- Node8&#45;&gt;Node15 -->
<g id="edge32" class="edge">
<title>Node8&#45;&gt;Node15</title>
<path fill="none" stroke="#9a32cd" stroke-dasharray="5,2" d="M499.18,-418.54C536.9,-405.5 596.71,-378.8 627,-333.5 658.93,-285.75 609.55,-250.71 645,-205.5 652.34,-196.14 663.89,-190.42 674.9,-186.93"/>
<polygon fill="#9a32cd" stroke="#9a32cd" points="498.02,-415.23 489.63,-421.71 500.23,-421.88 498.02,-415.23"/>
<text text-anchor="middle" x="589" y="-398.5" font-family="Helvetica,sans-Serif" font-size="10.00"> refcount</text>
</g>
<!-- Node9 -->
<g id="node9" class="node">
<title>Node9</title>
<g id="a_node9"><a xlink:title=" ">
<polygon fill="none" stroke="#bfbfbf" points="24,-134 24,-153 80,-153 80,-134 24,-134"/>
<text text-anchor="middle" x="52" y="-141" font-family="Helvetica,sans-Serif" font-size="10.00">uint64_t</text>
</a>
</g>
</g>
<!-- Node9&#45;&gt;Node2 -->
<g id="edge8" class="edge">
<title>Node9&#45;&gt;Node2</title>
<path fill="none" stroke="#9a32cd" stroke-dasharray="5,2" d="M71.36,-127.21C103.64,-100.3 173.74,-49.5 243,-49.5 243,-49.5 243,-49.5 993.5,-49.5 1123.85,-49.5 1200.27,-558.16 1211.15,-635.65"/>
<polygon fill="#9a32cd" stroke="#9a32cd" points="68.97,-124.64 63.63,-133.8 73.51,-129.97 68.97,-124.64"/>
<text text-anchor="middle" x="589" y="-74.5" font-family="Helvetica,sans-Serif" font-size="10.00"> bytes_in</text>
<text text-anchor="middle" x="589" y="-63.5" font-family="Helvetica,sans-Serif" font-size="10.00">bytes_out</text>
<text text-anchor="middle" x="589" y="-52.5" font-family="Helvetica,sans-Serif" font-size="10.00">unique_id</text>
</g>
<!-- Node17 -->
<g id="node17" class="node">
<title>Node17</title>
<g id="a_node17"><a xlink:href="classdpp_1_1snowflake.html" target="_top" xlink:title="A container for a 64 bit unsigned value representing many things on discord. This value is known in d...">
<polygon fill="none" stroke="black" points="199.5,-134 199.5,-153 288.5,-153 288.5,-134 199.5,-134"/>
<text text-anchor="middle" x="244" y="-141" font-family="Helvetica,sans-Serif" font-size="10.00">dpp::snowflake</text>
</a>
</g>
</g>
<!-- Node9&#45;&gt;Node17 -->
<g id="edge19" class="edge">
<title>Node9&#45;&gt;Node17</title>
<path fill="none" stroke="#9a32cd" stroke-dasharray="5,2" d="M90.28,-143.5C121.58,-143.5 166.34,-143.5 199.32,-143.5"/>
<polygon fill="#9a32cd" stroke="#9a32cd" points="90.22,-140 80.22,-143.5 90.22,-147 90.22,-140"/>
<text text-anchor="middle" x="139.5" y="-146.5" font-family="Helvetica,sans-Serif" font-size="10.00"> value</text>
</g>
<!-- Node20 -->
<g id="node20" class="node">
<title>Node20</title>
<g id="a_node20"><a xlink:href="structdpp_1_1utility_1_1iconhash.html" target="_top" xlink:title="Store a 128 bit icon hash (profile picture, server icon etc) as a 128 bit binary value made of two ui...">
<polygon fill="none" stroke="black" points="185,-191 185,-210 303,-210 303,-191 185,-191"/>
<text text-anchor="middle" x="244" y="-198" font-family="Helvetica,sans-Serif" font-size="10.00">dpp::utility::iconhash</text>
</a>
</g>
</g>
<!-- Node9&#45;&gt;Node20 -->
<g id="edge24" class="edge">
<title>Node9&#45;&gt;Node20</title>
<path fill="none" stroke="#9a32cd" stroke-dasharray="5,2" d="M90.11,-154.64C125.32,-165.2 177.68,-180.9 211.07,-190.92"/>
<polygon fill="#9a32cd" stroke="#9a32cd" points="90.81,-151.19 80.22,-151.67 88.79,-157.89 90.81,-151.19"/>
<text text-anchor="middle" x="139.5" y="-188.5" font-family="Helvetica,sans-Serif" font-size="10.00"> first</text>
<text text-anchor="middle" x="139.5" y="-177.5" font-family="Helvetica,sans-Serif" font-size="10.00">second</text>
</g>
<!-- Node10 -->
<g id="node10" class="node">
<title>Node10</title>
<g id="a_node10"><a xlink:title=" ">
<polygon fill="none" stroke="#bfbfbf" points="225,-752 225,-771 263,-771 263,-752 225,-752"/>
<text text-anchor="middle" x="244" y="-759" font-family="Helvetica,sans-Serif" font-size="10.00">bool</text>
</a>
</g>
</g>
<!-- Node10&#45;&gt;Node1 -->
<g id="edge40" class="edge">
<title>Node10&#45;&gt;Node1</title>
<path fill="none" stroke="#9a32cd" stroke-dasharray="5,2" d="M261.72,-778.66C296.14,-812.05 378.8,-882.5 463.5,-882.5 463.5,-882.5 463.5,-882.5 1214.5,-882.5 1261.87,-882.5 1315.1,-865.35 1344.94,-854.09"/>
<polygon fill="#9a32cd" stroke="#9a32cd" points="263.97,-775.96 254.4,-771.4 259.04,-780.93 263.97,-775.96"/>
<text text-anchor="middle" x="849.5" y="-885.5" font-family="Helvetica,sans-Serif" font-size="10.00"> timed_out</text>
</g>
<!-- Node10&#45;&gt;Node2 -->
<g id="edge9" class="edge">
<title>Node10&#45;&gt;Node2</title>
<path fill="none" stroke="#9a32cd" stroke-dasharray="5,2" d="M273.7,-763.7C353.54,-768.98 584.43,-778.55 767,-729.5 775.64,-727.18 776.46,-723.15 785,-720.5 899.86,-684.92 933.9,-700.03 1053,-683.5 1091.23,-678.2 1101.51,-680.65 1139,-671.5 1156.23,-667.3 1175.07,-660.59 1189.36,-655.04"/>
<polygon fill="#9a32cd" stroke="#9a32cd" points="273.67,-760.19 263.45,-762.99 273.19,-767.17 273.67,-760.19"/>
<text text-anchor="middle" x="706" y="-799.5" font-family="Helvetica,sans-Serif" font-size="10.00"> connected</text>
<text text-anchor="middle" x="706" y="-788.5" font-family="Helvetica,sans-Serif" font-size="10.00">keepalive</text>
<text text-anchor="middle" x="706" y="-777.5" font-family="Helvetica,sans-Serif" font-size="10.00">plaintext</text>
<text text-anchor="middle" x="706" y="-766.5" font-family="Helvetica,sans-Serif" font-size="10.00">raw_trace</text>
<text text-anchor="middle" x="706" y="-755.5" font-family="Helvetica,sans-Serif" font-size="10.00">tcp_connect_done</text>
</g>
<!-- Node10&#45;&gt;Node21 -->
<g id="edge27" class="edge">
<title>Node10&#45;&gt;Node21</title>
<path fill="none" stroke="#9a32cd" stroke-dasharray="5,2" d="M251.27,-742.38C271.23,-681.13 334.57,-484.1 378,-318.5 387.25,-283.25 371.83,-265.77 396,-238.5 401.61,-232.17 409,-227.51 416.83,-224.08"/>
<polygon fill="#9a32cd" stroke="#9a32cd" points="247.93,-741.32 248.15,-751.91 254.59,-743.49 247.93,-741.32"/>
<text text-anchor="middle" x="354.5" y="-481.5" font-family="Helvetica,sans-Serif" font-size="10.00"> enabled</text>
</g>
<!-- Node11 -->
<g id="node11" class="node">
<title>Node11</title>
<g id="a_node11"><a xlink:title=" ">
<polygon fill="none" stroke="#bfbfbf" points="970,-655 970,-674 1015,-674 1015,-655 970,-655"/>
<text text-anchor="middle" x="992.5" y="-662" font-family="Helvetica,sans-Serif" font-size="10.00">size_t</text>
</a>
</g>
</g>
<!-- Node11&#45;&gt;Node2 -->
<g id="edge10" class="edge">
<title>Node11&#45;&gt;Node2</title>
<path fill="none" stroke="#9a32cd" stroke-dasharray="5,2" d="M1025.69,-661.71C1060.07,-658.73 1115.2,-653.94 1156.68,-650.34"/>
<polygon fill="#9a32cd" stroke="#9a32cd" points="1024.96,-658.26 1015.3,-662.61 1025.56,-665.23 1024.96,-658.26"/>
<text text-anchor="middle" x="1105" y="-659.5" font-family="Helvetica,sans-Serif" font-size="10.00"> timer_handle</text>
</g>
<!-- Node12&#45;&gt;Node2 -->
<g id="edge11" class="edge">
<title>Node12&#45;&gt;Node2</title>
<path fill="none" stroke="#9a32cd" stroke-dasharray="5,2" d="M1014.56,-441.61C1043.91,-464.51 1098.09,-508.49 1139,-551.5 1166.27,-580.17 1193.76,-618.39 1205.96,-635.94"/>
<polygon fill="#9a32cd" stroke="#9a32cd" points="1016.34,-438.56 1006.29,-435.2 1012.05,-444.09 1016.34,-438.56"/>
<text text-anchor="middle" x="1105" y="-554.5" font-family="Helvetica,sans-Serif" font-size="10.00"> owner</text>
</g>
<!-- Node13 -->
<g id="node13" class="node">
<title>Node13</title>
<g id="a_node13"><a xlink:title=" ">
<polygon fill="none" stroke="#bfbfbf" points="436.5,-301 436.5,-320 492.5,-320 492.5,-301 436.5,-301"/>
<text text-anchor="middle" x="464.5" y="-308" font-family="Helvetica,sans-Serif" font-size="10.00">uint32_t</text>
</a>
</g>
</g>
<!-- Node13&#45;&gt;Node12 -->
<g id="edge14" class="edge">
<title>Node13&#45;&gt;Node12</title>
<path fill="none" stroke="#9a32cd" stroke-dasharray="5,2" d="M502.55,-321.8C538.32,-330.24 592.07,-336.13 627,-308.5 652.87,-288.04 620.89,-259.02 645,-236.5 666.94,-216.01 889.42,-194.26 914,-211.5 984.2,-260.74 991.07,-380.27 991.54,-415.54"/>
<polygon fill="#9a32cd" stroke="#9a32cd" points="503.07,-318.32 492.51,-319.25 501.35,-325.1 503.07,-318.32"/>
<text text-anchor="middle" x="706" y="-272.5" font-family="Helvetica,sans-Serif" font-size="10.00"> cluster_id</text>
<text text-anchor="middle" x="706" y="-261.5" font-family="Helvetica,sans-Serif" font-size="10.00">intents</text>
<text text-anchor="middle" x="706" y="-250.5" font-family="Helvetica,sans-Serif" font-size="10.00">maxclusters</text>
<text text-anchor="middle" x="706" y="-239.5" font-family="Helvetica,sans-Serif" font-size="10.00">numshards</text>
</g>
<!-- Node13&#45;&gt;Node15 -->
<g id="edge30" class="edge">
<title>Node13&#45;&gt;Node15</title>
<path fill="none" stroke="#9a32cd" stroke-dasharray="5,2" d="M502.58,-303.61C547.42,-294.95 618.05,-280.19 627,-271.5 648.81,-250.32 624.76,-228.19 645,-205.5 652.77,-196.79 664.12,-191.2 674.87,-187.63"/>
<polygon fill="#9a32cd" stroke="#9a32cd" points="501.78,-300.2 492.61,-305.51 503.09,-307.07 501.78,-300.2"/>
<text text-anchor="middle" x="589" y="-296.5" font-family="Helvetica,sans-Serif" font-size="10.00"> flags</text>
</g>
<!-- Node14 -->
<g id="node14" class="node">
<title>Node14</title>
<g id="a_node14"><a xlink:title=" ">
<polygon fill="none" stroke="#bfbfbf" points="681,-457 681,-476 731,-476 731,-457 681,-457"/>
<text text-anchor="middle" x="706" y="-464" font-family="Helvetica,sans-Serif" font-size="10.00">double</text>
</a>
</g>
</g>
<!-- Node14&#45;&gt;Node12 -->
<g id="edge15" class="edge">
<title>Node14&#45;&gt;Node12</title>
<path fill="none" stroke="#9a32cd" stroke-dasharray="5,2" d="M741.07,-463.95C782.24,-460.59 853.51,-453.85 914,-443.5 927.62,-441.17 942.42,-437.92 955.41,-434.81"/>
<polygon fill="#9a32cd" stroke="#9a32cd" points="740.72,-460.47 731.03,-464.75 741.28,-467.45 740.72,-460.47"/>
<text text-anchor="middle" x="849.5" y="-463.5" font-family="Helvetica,sans-Serif" font-size="10.00"> rest_ping</text>
</g>
<!-- Node15&#45;&gt;Node12 -->
<g id="edge16" class="edge">
<title>Node15&#45;&gt;Node12</title>
<path fill="none" stroke="#9a32cd" stroke-dasharray="5,2" d="M739.89,-168.46C784.11,-153.28 863.02,-134.8 914,-172.5 955.28,-203.03 983.55,-373.09 990.07,-415.78"/>
<polygon fill="#9a32cd" stroke="#9a32cd" points="738.46,-165.25 730.22,-171.91 740.82,-171.84 738.46,-165.25"/>
<text text-anchor="middle" x="849.5" y="-175.5" font-family="Helvetica,sans-Serif" font-size="10.00"> me</text>
</g>
<!-- Node16 -->
<g id="node16" class="node">
<title>Node16</title>
<g id="a_node16"><a xlink:href="classdpp_1_1managed.html" target="_top" xlink:title="The managed class is the base class for various types that can be stored in a cache that are identifi...">
<polygon fill="none" stroke="black" points="421.5,-167 421.5,-186 507.5,-186 507.5,-167 421.5,-167"/>
<text text-anchor="middle" x="464.5" y="-174" font-family="Helvetica,sans-Serif" font-size="10.00">dpp::managed</text>
</a>
</g>
</g>
<!-- Node16&#45;&gt;Node15 -->
<g id="edge17" class="edge">
<title>Node16&#45;&gt;Node15</title>
<path fill="none" stroke="midnightblue" d="M517.98,-177.6C566.07,-178.6 635.57,-180.05 674.9,-180.87"/>
<polygon fill="midnightblue" stroke="midnightblue" points="517.84,-174.09 507.77,-177.38 517.69,-181.09 517.84,-174.09"/>
</g>
<!-- Node17&#45;&gt;Node16 -->
<g id="edge18" class="edge">
<title>Node17&#45;&gt;Node16</title>
<path fill="none" stroke="#9a32cd" stroke-dasharray="5,2" d="M281.21,-131.22C309.07,-123.97 347.78,-118.78 378,-133.5 389.67,-139.19 385.27,-149.2 396,-156.5 403.58,-161.66 412.51,-165.51 421.35,-168.38"/>
<polygon fill="#9a32cd" stroke="#9a32cd" points="280.15,-127.88 271.47,-133.96 282.04,-134.62 280.15,-127.88"/>
<text text-anchor="middle" x="354.5" y="-136.5" font-family="Helvetica,sans-Serif" font-size="10.00"> id</text>
</g>
<!-- Node17&#45;&gt;Node21 -->
<g id="edge26" class="edge">
<title>Node17&#45;&gt;Node21</title>
<path fill="none" stroke="#9a32cd" stroke-dasharray="5,2" d="M294.75,-155.66C320.21,-162.67 351.36,-172.48 378,-184.5 386.55,-188.36 387.41,-191.75 396,-195.5 404.37,-199.15 413.63,-202.3 422.54,-204.92"/>
<polygon fill="#9a32cd" stroke="#9a32cd" points="295.5,-152.24 284.94,-153.02 293.68,-159 295.5,-152.24"/>
<text text-anchor="middle" x="354.5" y="-187.5" font-family="Helvetica,sans-Serif" font-size="10.00"> id</text>
</g>
<!-- Node18 -->
<g id="node18" class="node">
<title>Node18</title>
<g id="a_node18"><a xlink:href="structdpp_1_1json__interface.html" target="_top" xlink:title=" ">
<polygon fill="none" stroke="black" points="409.5,-117.5 409.5,-147.5 519.5,-147.5 519.5,-117.5 409.5,-117.5"/>
<text text-anchor="start" x="417.5" y="-135.5" font-family="Helvetica,sans-Serif" font-size="10.00">dpp::json_interface</text>
<text text-anchor="middle" x="464.5" y="-124.5" font-family="Helvetica,sans-Serif" font-size="10.00">&lt; user &gt;</text>
</a>
</g>
</g>
<!-- Node18&#45;&gt;Node15 -->
<g id="edge20" class="edge">
<title>Node18&#45;&gt;Node15</title>
<path fill="none" stroke="midnightblue" d="M529.37,-145.57C576.52,-155.21 638.56,-167.91 674.89,-175.34"/>
<polygon fill="midnightblue" stroke="midnightblue" points="530.05,-142.13 519.55,-143.56 528.64,-148.99 530.05,-142.13"/>
</g>
<!-- Node19 -->
<g id="node19" class="node">
<title>Node19</title>
<g id="a_node19"><a xlink:href="structdpp_1_1json__interface.html" target="_top" xlink:title="Represents an interface for an object that can optionally implement functions for converting to and f...">
<polygon fill="none" stroke="black" points="175,-89 175,-108 313,-108 313,-89 175,-89"/>
<text text-anchor="middle" x="244" y="-96" font-family="Helvetica,sans-Serif" font-size="10.00">dpp::json_interface&lt; T &gt;</text>
</a>
</g>
</g>
<!-- Node19&#45;&gt;Node18 -->
<g id="edge21" class="edge">
<title>Node19&#45;&gt;Node18</title>
<path fill="none" stroke="orange" stroke-dasharray="5,2" d="M323.47,-102.63C341.47,-104.23 360.46,-106.44 378,-109.5 389.66,-111.54 402.04,-114.43 413.65,-117.47"/>
<polygon fill="orange" stroke="orange" points="323.56,-99.12 313.3,-101.78 322.98,-106.1 323.56,-99.12"/>
<text text-anchor="middle" x="354.5" y="-112.5" font-family="Helvetica,sans-Serif" font-size="10.00"> &lt; user &gt;</text>
</g>
<!-- Node20&#45;&gt;Node15 -->
<g id="edge23" class="edge">
<title>Node20&#45;&gt;Node15</title>
<path fill="none" stroke="#9a32cd" stroke-dasharray="5,2" d="M266.3,-215.74C283,-226.71 307.3,-240.56 331,-246.5 459.18,-278.63 504.87,-268.97 627,-218.5 636.12,-214.73 636.35,-210.26 645,-205.5 655.12,-199.93 666.81,-194.96 677.17,-191"/>
<polygon fill="#9a32cd" stroke="#9a32cd" points="268.1,-212.73 257.86,-210.02 264.17,-218.53 268.1,-212.73"/>
<text text-anchor="middle" x="464.5" y="-279.5" font-family="Helvetica,sans-Serif" font-size="10.00"> avatar</text>
<text text-anchor="middle" x="464.5" y="-268.5" font-family="Helvetica,sans-Serif" font-size="10.00">avatar_decoration</text>
</g>
<!-- Node20&#45;&gt;Node21 -->
<g id="edge29" class="edge">
<title>Node20&#45;&gt;Node21</title>
<path fill="none" stroke="#9a32cd" stroke-dasharray="5,2" d="M313.07,-199.14C333.93,-199.23 356.93,-199.83 378,-201.5 387.88,-202.29 398.35,-203.53 408.44,-204.94"/>
<polygon fill="#9a32cd" stroke="#9a32cd" points="313.02,-195.64 303.02,-199.14 313.01,-202.64 313.02,-195.64"/>
<text text-anchor="middle" x="354.5" y="-204.5" font-family="Helvetica,sans-Serif" font-size="10.00"> badge</text>
</g>
<!-- Node21&#45;&gt;Node15 -->
<g id="edge25" class="edge">
<title>Node21&#45;&gt;Node15</title>
<path fill="none" stroke="#9a32cd" stroke-dasharray="5,2" d="M543.11,-204.01C569.71,-200.39 599.66,-196.29 627,-192.5 642.71,-190.32 660.2,-187.86 674.63,-185.82"/>
<polygon fill="#9a32cd" stroke="#9a32cd" points="542.52,-200.55 533.09,-205.37 543.47,-207.49 542.52,-200.55"/>
<text text-anchor="middle" x="589" y="-206.5" font-family="Helvetica,sans-Serif" font-size="10.00"> primary_guild</text>
</g>
<!-- Node22 -->
<g id="node22" class="node">
<title>Node22</title>
<g id="a_node22"><a xlink:title=" ">
<polygon fill="none" stroke="#bfbfbf" points="436.5,-79 436.5,-98 492.5,-98 492.5,-79 436.5,-79"/>
<text text-anchor="middle" x="464.5" y="-86" font-family="Helvetica,sans-Serif" font-size="10.00">uint16_t</text>
</a>
</g>
</g>
<!-- Node22&#45;&gt;Node12 -->
<g id="edge37" class="edge">
<title>Node22&#45;&gt;Node12</title>
<path fill="none" stroke="#9a32cd" stroke-dasharray="5,2" d="M502.78,-88.21C599.06,-88.24 852.82,-93.46 914,-146.5 956.73,-183.55 984.22,-370.99 990.25,-415.85"/>
<polygon fill="#9a32cd" stroke="#9a32cd" points="502.62,-84.71 492.63,-88.23 502.64,-91.71 502.62,-84.71"/>
<text text-anchor="middle" x="706" y="-105.5" font-family="Helvetica,sans-Serif" font-size="10.00"> request_timeout</text>
</g>
<!-- Node22&#45;&gt;Node15 -->
<g id="edge31" class="edge">
<title>Node22&#45;&gt;Node15</title>
<path fill="none" stroke="#9a32cd" stroke-dasharray="5,2" d="M502.73,-98.8C512.59,-101.58 523.21,-104.61 533,-107.5 574.93,-119.87 586.92,-119.02 627,-136.5 650.21,-146.63 675.28,-161.96 690.56,-171.85"/>
<polygon fill="#9a32cd" stroke="#9a32cd" points="503.38,-95.35 492.8,-96.02 501.49,-102.09 503.38,-95.35"/>
<text text-anchor="middle" x="589" y="-139.5" font-family="Helvetica,sans-Serif" font-size="10.00"> discriminator</text>
</g>
<!-- Node23 -->
<g id="node23" class="node">
<title>Node23</title>
<g id="a_node23"><a xlink:href="structdpp_1_1cache__policy__t.html" target="_top" xlink:title="Represents the caching policy of the cluster.">
<polygon fill="none" stroke="black" points="649.5,-495 649.5,-514 762.5,-514 762.5,-495 649.5,-495"/>
<text text-anchor="middle" x="706" y="-502" font-family="Helvetica,sans-Serif" font-size="10.00">dpp::cache_policy_t</text>
</a>
</g>
</g>
<!-- Node23&#45;&gt;Node12 -->
<g id="edge33" class="edge">
<title>Node23&#45;&gt;Node12</title>
<path fill="none" stroke="#9a32cd" stroke-dasharray="5,2" d="M772.65,-502.54C814.26,-499.55 868.6,-492.39 914,-475.5 939.81,-465.9 965.92,-446.63 980.28,-435.02"/>
<polygon fill="#9a32cd" stroke="#9a32cd" points="772.38,-499.05 762.63,-503.19 772.84,-506.03 772.38,-499.05"/>
<text text-anchor="middle" x="849.5" y="-504.5" font-family="Helvetica,sans-Serif" font-size="10.00"> cache_policy</text>
</g>
<!-- Node24 -->
<g id="node24" class="node">
<title>Node24</title>
<g id="a_node24"><a xlink:title=" ">
<polygon fill="none" stroke="#bfbfbf" points="400.5,-463 400.5,-482 528.5,-482 528.5,-463 400.5,-463"/>
<text text-anchor="middle" x="464.5" y="-470" font-family="Helvetica,sans-Serif" font-size="10.00">cache_policy_setting_t</text>
</a>
</g>
</g>
<!-- Node24&#45;&gt;Node23 -->
<g id="edge34" class="edge">
<title>Node24&#45;&gt;Node23</title>
<path fill="none" stroke="#9a32cd" stroke-dasharray="5,2" d="M539.04,-482.33C574.51,-487.07 616.37,-492.66 649.17,-497.04"/>
<polygon fill="#9a32cd" stroke="#9a32cd" points="539.11,-478.81 528.74,-480.95 538.19,-485.74 539.11,-478.81"/>
<text text-anchor="middle" x="589" y="-540.5" font-family="Helvetica,sans-Serif" font-size="10.00"> channel_policy</text>
<text text-anchor="middle" x="589" y="-529.5" font-family="Helvetica,sans-Serif" font-size="10.00">emoji_policy</text>
<text text-anchor="middle" x="589" y="-518.5" font-family="Helvetica,sans-Serif" font-size="10.00">guild_policy</text>
<text text-anchor="middle" x="589" y="-507.5" font-family="Helvetica,sans-Serif" font-size="10.00">role_policy</text>
<text text-anchor="middle" x="589" y="-496.5" font-family="Helvetica,sans-Serif" font-size="10.00">user_policy</text>
</g>
<!-- Node25 -->
<g id="node25" class="node">
<title>Node25</title>
<g id="a_node25"><a xlink:title=" ">
<polygon fill="none" stroke="#bfbfbf" points="645,-419 645,-438 767,-438 767,-419 645,-419"/>
<text text-anchor="middle" x="706" y="-426" font-family="Helvetica,sans-Serif" font-size="10.00">websocket_protocol_t</text>
</a>
</g>
</g>
<!-- Node25&#45;&gt;Node12 -->
<g id="edge35" class="edge">
<title>Node25&#45;&gt;Node12</title>
<path fill="none" stroke="#9a32cd" stroke-dasharray="5,2" d="M777.6,-427.76C833.92,-427.16 910.51,-426.36 955.12,-425.89"/>
<polygon fill="#9a32cd" stroke="#9a32cd" points="777.3,-424.26 767.34,-427.87 777.37,-431.26 777.3,-424.26"/>
<text text-anchor="middle" x="849.5" y="-431.5" font-family="Helvetica,sans-Serif" font-size="10.00"> ws_mode</text>
</g>
<!-- Node26 -->
<g id="node26" class="node">
<title>Node26</title>
<g id="a_node26"><a xlink:title=" ">
<polygon fill="none" stroke="#bfbfbf" points="667.5,-381 667.5,-400 744.5,-400 744.5,-381 667.5,-381"/>
<text text-anchor="middle" x="706" y="-388" font-family="Helvetica,sans-Serif" font-size="10.00">atomic_bool</text>
</a>
</g>
</g>
<!-- Node26&#45;&gt;Node12 -->
<g id="edge36" class="edge">
<title>Node26&#45;&gt;Node12</title>
<path fill="none" stroke="#9a32cd" stroke-dasharray="5,2" d="M754.72,-394.28C796.76,-397.87 859.59,-403.84 914,-411.5 927.54,-413.41 942.33,-415.96 955.32,-418.37"/>
<polygon fill="#9a32cd" stroke="#9a32cd" points="754.76,-390.78 744.5,-393.43 754.17,-397.75 754.76,-390.78"/>
<text text-anchor="middle" x="849.5" y="-414.5" font-family="Helvetica,sans-Serif" font-size="10.00"> terminating</text>
</g>
<!-- Node27 -->
<g id="node27" class="node">
<title>Node27</title>
<g id="a_node27"><a xlink:title=" ">
<polygon fill="none" stroke="#bfbfbf" points="667.5,-343 667.5,-362 744.5,-362 744.5,-343 667.5,-343"/>
<text text-anchor="middle" x="706" y="-350" font-family="Helvetica,sans-Serif" font-size="10.00">unique_ptr&lt;</text>
</a>
</g>
</g>
<!-- Node27&#45;&gt;Node12 -->
<g id="edge38" class="edge">
<title>Node27&#45;&gt;Node12</title>
<path fill="none" stroke="#9a32cd" stroke-dasharray="5,2" d="M754.7,-354.52C797.4,-357.47 861.23,-364.71 914,-382.5 937.91,-390.57 962.99,-405.94 977.93,-415.96"/>
<polygon fill="#9a32cd" stroke="#9a32cd" points="754.79,-351.02 744.58,-353.88 754.34,-358.01 754.79,-351.02"/>
<text text-anchor="middle" x="849.5" y="-385.5" font-family="Helvetica,sans-Serif" font-size="10.00"> socketengine</text>
</g>
<!-- Node28 -->
<g id="node28" class="node">
<title>Node28</title>
<g id="a_node28"><a xlink:title=" ">
<polygon fill="none" stroke="#bfbfbf" points="658,-290 658,-309 754,-309 754,-290 658,-290"/>
<text text-anchor="middle" x="706" y="-297" font-family="Helvetica,sans-Serif" font-size="10.00">event_router_t&lt;</text>
</a>
</g>
</g>
<!-- Node28&#45;&gt;Node12 -->
<g id="edge39" class="edge">
<title>Node28&#45;&gt;Node12</title>
<path fill="none" stroke="#9a32cd" stroke-dasharray="5,2" d="M753.26,-285.53C758.28,-282.75 763,-279.44 767,-275.5 781.77,-260.97 767.75,-243.98 785,-232.5 832.73,-200.74 866.5,-200.39 914,-232.5 978.31,-275.98 989.26,-382.56 991.12,-415.58"/>
<polygon fill="#9a32cd" stroke="#9a32cd" points="751.5,-282.5 744.01,-290 754.54,-288.8 751.5,-282.5"/>
<text text-anchor="middle" x="849.5" y="-345.5" font-family="Helvetica,sans-Serif" font-size="10.00"> on_autocomplete</text>
<text text-anchor="middle" x="849.5" y="-334.5" font-family="Helvetica,sans-Serif" font-size="10.00">on_automod_rule_create</text>
<text text-anchor="middle" x="849.5" y="-323.5" font-family="Helvetica,sans-Serif" font-size="10.00">on_automod_rule_delete</text>
<text text-anchor="middle" x="849.5" y="-312.5" font-family="Helvetica,sans-Serif" font-size="10.00">on_automod_rule_execute</text>
<text text-anchor="middle" x="849.5" y="-301.5" font-family="Helvetica,sans-Serif" font-size="10.00">on_automod_rule_update</text>
<text text-anchor="middle" x="849.5" y="-290.5" font-family="Helvetica,sans-Serif" font-size="10.00">on_button_click</text>
<text text-anchor="middle" x="849.5" y="-279.5" font-family="Helvetica,sans-Serif" font-size="10.00">on_channel_create</text>
<text text-anchor="middle" x="849.5" y="-268.5" font-family="Helvetica,sans-Serif" font-size="10.00">on_channel_delete</text>
<text text-anchor="middle" x="849.5" y="-257.5" font-family="Helvetica,sans-Serif" font-size="10.00">on_channel_pins_update</text>
<text text-anchor="middle" x="849.5" y="-246.5" font-family="Helvetica,sans-Serif" font-size="10.00">on_channel_update</text>
<text text-anchor="middle" x="849.5" y="-235.5" font-family="Helvetica,sans-Serif" font-size="10.00">...</text>
</g>
</g>
</svg>
