<?xml version="1.0" encoding="UTF-8" standalone="no"?>
<!DOCTYPE svg PUBLIC "-//W3C//DTD SVG 1.1//EN"
 "http://www.w3.org/Graphics/SVG/1.1/DTD/svg11.dtd">
<!-- Generated by graphviz version 2.43.0 (0)
 -->
<!-- Title: dpp::presence Pages: 1 -->
<svg width="382pt" height="184pt"
 viewBox="0.00 0.00 382.00 184.00" xmlns="http://www.w3.org/2000/svg" xmlns:xlink="http://www.w3.org/1999/xlink">
<g id="graph0" class="graph" transform="scale(1 1) rotate(0) translate(4 180)">
<title>dpp::presence</title>
<!-- Node1 -->
<g id="node1" class="node">
<title>Node1</title>
<g id="a_node1"><a xlink:title="Represents user presence, e.g. what game they are playing and if they are online.">
<polygon fill="#bfbfbf" stroke="black" points="199.5,-0.5 199.5,-19.5 284.5,-19.5 284.5,-0.5 199.5,-0.5"/>
<text text-anchor="middle" x="242" y="-7.5" font-family="Helvetica,sans-Serif" font-size="10.00">dpp::presence</text>
</a>
</g>
</g>
<!-- Node2 -->
<g id="node2" class="node">
<title>Node2</title>
<g id="a_node2"><a xlink:href="structdpp_1_1json__interface.html" target="_top" xlink:title=" ">
<polygon fill="none" stroke="black" points="14,-78.5 14,-108.5 124,-108.5 124,-78.5 14,-78.5"/>
<text text-anchor="start" x="22" y="-96.5" font-family="Helvetica,sans-Serif" font-size="10.00">dpp::json_interface</text>
<text text-anchor="middle" x="69" y="-85.5" font-family="Helvetica,sans-Serif" font-size="10.00">&lt; presence &gt;</text>
</a>
</g>
</g>
<!-- Node2&#45;&gt;Node1 -->
<g id="edge1" class="edge">
<title>Node2&#45;&gt;Node1</title>
<path fill="none" stroke="midnightblue" d="M108.03,-74.11C144.21,-57.07 196.46,-32.45 223.78,-19.58"/>
<polygon fill="midnightblue" stroke="midnightblue" points="106.29,-71.06 98.74,-78.49 109.28,-77.39 106.29,-71.06"/>
</g>
<!-- Node3 -->
<g id="node3" class="node">
<title>Node3</title>
<g id="a_node3"><a xlink:href="structdpp_1_1json__interface.html" target="_top" xlink:title="Represents an interface for an object that can optionally implement functions for converting to and f...">
<polygon fill="none" stroke="black" points="0,-156.5 0,-175.5 138,-175.5 138,-156.5 0,-156.5"/>
<text text-anchor="middle" x="69" y="-163.5" font-family="Helvetica,sans-Serif" font-size="10.00">dpp::json_interface&lt; T &gt;</text>
</a>
</g>
</g>
<!-- Node3&#45;&gt;Node2 -->
<g id="edge2" class="edge">
<title>Node3&#45;&gt;Node2</title>
<path fill="none" stroke="orange" stroke-dasharray="5,2" d="M69,-146.24C69,-134.41 69,-119.38 69,-108.58"/>
<polygon fill="orange" stroke="orange" points="65.5,-146.36 69,-156.36 72.5,-146.36 65.5,-146.36"/>
<text text-anchor="middle" x="104" y="-130" font-family="Helvetica,sans-Serif" font-size="10.00"> &lt; presence &gt;</text>
</g>
<!-- Node4 -->
<g id="node4" class="node">
<title>Node4</title>
<g id="a_node4"><a xlink:href="classdpp_1_1snowflake.html" target="_top" xlink:title="A container for a 64 bit unsigned value representing many things on discord. This value is known in d...">
<polygon fill="none" stroke="black" points="142.5,-84 142.5,-103 231.5,-103 231.5,-84 142.5,-84"/>
<text text-anchor="middle" x="187" y="-91" font-family="Helvetica,sans-Serif" font-size="10.00">dpp::snowflake</text>
</a>
</g>
</g>
<!-- Node4&#45;&gt;Node1 -->
<g id="edge3" class="edge">
<title>Node4&#45;&gt;Node1</title>
<path fill="none" stroke="#9a32cd" stroke-dasharray="5,2" d="M191.1,-73.7C194.18,-62.56 199.22,-48.61 207,-38 212.35,-30.7 220.21,-24.39 227.12,-19.71"/>
<polygon fill="#9a32cd" stroke="#9a32cd" points="187.64,-73.11 188.65,-83.66 194.44,-74.78 187.64,-73.11"/>
<text text-anchor="middle" x="228" y="-52" font-family="Helvetica,sans-Serif" font-size="10.00"> guild_id</text>
<text text-anchor="middle" x="228" y="-41" font-family="Helvetica,sans-Serif" font-size="10.00">user_id</text>
</g>
<!-- Node5 -->
<g id="node5" class="node">
<title>Node5</title>
<g id="a_node5"><a xlink:title=" ">
<polygon fill="none" stroke="#bfbfbf" points="159,-156.5 159,-175.5 215,-175.5 215,-156.5 159,-156.5"/>
<text text-anchor="middle" x="187" y="-163.5" font-family="Helvetica,sans-Serif" font-size="10.00">uint64_t</text>
</a>
</g>
</g>
<!-- Node5&#45;&gt;Node4 -->
<g id="edge4" class="edge">
<title>Node5&#45;&gt;Node4</title>
<path fill="none" stroke="#9a32cd" stroke-dasharray="5,2" d="M187,-145.94C187,-132.03 187,-113.82 187,-103.22"/>
<polygon fill="#9a32cd" stroke="#9a32cd" points="183.5,-146.36 187,-156.36 190.5,-146.36 183.5,-146.36"/>
<text text-anchor="middle" x="202.5" y="-130" font-family="Helvetica,sans-Serif" font-size="10.00"> value</text>
</g>
<!-- Node6 -->
<g id="node6" class="node">
<title>Node6</title>
<g id="a_node6"><a xlink:title=" ">
<polygon fill="none" stroke="#bfbfbf" points="250,-84 250,-103 300,-103 300,-84 250,-84"/>
<text text-anchor="middle" x="275" y="-91" font-family="Helvetica,sans-Serif" font-size="10.00">uint8_t</text>
</a>
</g>
</g>
<!-- Node6&#45;&gt;Node1 -->
<g id="edge5" class="edge">
<title>Node6&#45;&gt;Node1</title>
<path fill="none" stroke="#9a32cd" stroke-dasharray="5,2" d="M267.65,-74.35C260.76,-57.33 250.75,-32.61 245.51,-19.66"/>
<polygon fill="#9a32cd" stroke="#9a32cd" points="264.47,-75.82 271.47,-83.78 270.96,-73.2 264.47,-75.82"/>
<text text-anchor="middle" x="274.5" y="-46.5" font-family="Helvetica,sans-Serif" font-size="10.00"> flags</text>
</g>
<!-- Node7 -->
<g id="node7" class="node">
<title>Node7</title>
<g id="a_node7"><a xlink:title=" ">
<polygon fill="none" stroke="#bfbfbf" points="318,-84 318,-103 374,-103 374,-84 318,-84"/>
<text text-anchor="middle" x="346" y="-91" font-family="Helvetica,sans-Serif" font-size="10.00">vector&lt;</text>
</a>
</g>
</g>
<!-- Node7&#45;&gt;Node1 -->
<g id="edge6" class="edge">
<title>Node7&#45;&gt;Node1</title>
<path fill="none" stroke="#9a32cd" stroke-dasharray="5,2" d="M332.34,-76.35C322.02,-64.78 307.1,-49.3 292,-38 282.36,-30.79 270.56,-24.32 260.84,-19.52"/>
<polygon fill="#9a32cd" stroke="#9a32cd" points="329.77,-78.73 338.97,-83.98 335.05,-74.14 329.77,-78.73"/>
<text text-anchor="middle" x="339.5" y="-46.5" font-family="Helvetica,sans-Serif" font-size="10.00"> activities</text>
</g>
</g>
</svg>
