<?xml version="1.0" encoding="UTF-8" standalone="no"?>
<!DOCTYPE svg PUBLIC "-//W3C//DTD SVG 1.1//EN"
 "http://www.w3.org/Graphics/SVG/1.1/DTD/svg11.dtd">
<!-- Generated by graphviz version 2.43.0 (0)
 -->
<!-- Title: dpp::presence_update_t Pages: 1 -->
<!--zoomable 757 -->
<svg id="main" version="1.1" xmlns="http://www.w3.org/2000/svg" xmlns:xlink="http://www.w3.org/1999/xlink" xml:space="preserve" onload="init(evt)">
<style type="text/css"><![CDATA[
.edge:hover path { stroke: red; }
.edge:hover polygon { stroke: red; fill: red; }
]]></style>
<script type="text/javascript"><![CDATA[
var edges = document.getElementsByTagName('g');
if (edges && edges.length) {
  for (var i=0;i<edges.length;i++) {
    if (edges[i].id.substr(0,4)=='edge') {
      edges[i].setAttribute('class','edge');
    }
  }
}
]]></script>
        <defs>
                <circle id="rim" cx="0" cy="0" r="7"/>
                <circle id="rim2" cx="0" cy="0" r="3.5"/>
                <g id="zoomPlus">
                        <use xlink:href="#rim" fill="#404040">
                                <set attributeName="fill" to="#808080" begin="zoomplus.mouseover" end="zoomplus.mouseout"/>
                        </use>
                        <path d="M-4,0h8M0,-4v8" fill="none" stroke="white" stroke-width="1.5" pointer-events="none"/>
                </g>
                <g id="zoomMin">
                        <use xlink:href="#rim" fill="#404040">
                                <set attributeName="fill" to="#808080" begin="zoomminus.mouseover" end="zoomminus.mouseout"/>
                        </use>
                        <path d="M-4,0h8" fill="none" stroke="white" stroke-width="1.5" pointer-events="none"/>
                </g>
                <g id="dirArrow">
                        <path fill="none" stroke="white" stroke-width="1.5" d="M0,-3.0v7 M-2.5,-0.5L0,-3.0L2.5,-0.5"/>
                </g>
               <g id="resetDef">
                       <use xlink:href="#rim2" fill="#404040">
                               <set attributeName="fill" to="#808080" begin="reset.mouseover" end="reset.mouseout"/>
                       </use>
               </g>
        </defs>

<script type="text/javascript">
var viewWidth = 1438;
var viewHeight = 757;
var sectionId = 'dynsection-1';
</script>
<script xlink:href="svgpan.js"/>
<svg id="graph" class="graph">
<g id="viewport">
<title>dpp::presence_update_t</title>
<!-- Node1 -->
<g id="node1" class="node">
<title>Node1</title>
<g id="a_node1"><a xlink:title="Presence update.">
<polygon fill="#bfbfbf" stroke="black" points="1297,-101 1297,-120 1430,-120 1430,-101 1297,-101"/>
<text text-anchor="middle" x="1363.5" y="-108" font-family="Helvetica,sans-Serif" font-size="10.00">dpp::presence_update_t</text>
</a>
</g>
</g>
<!-- Node2 -->
<g id="node2" class="node">
<title>Node2</title>
<g id="a_node2"><a xlink:href="structdpp_1_1event__dispatch__t.html" target="_top" xlink:title="Base event parameter struct. Each event you receive from the library will have its parameter derived ...">
<polygon fill="none" stroke="black" points="1136,-635 1136,-654 1260,-654 1260,-635 1136,-635"/>
<text text-anchor="middle" x="1198" y="-642" font-family="Helvetica,sans-Serif" font-size="10.00">dpp::event_dispatch_t</text>
</a>
</g>
</g>
<!-- Node2&#45;&gt;Node1 -->
<g id="edge1" class="edge">
<title>Node2&#45;&gt;Node1</title>
<path fill="none" stroke="midnightblue" d="M1204.94,-625.1C1231.62,-537.98 1339.91,-184.27 1359.47,-120.41"/>
<polygon fill="midnightblue" stroke="midnightblue" points="1201.56,-624.19 1201.98,-634.78 1208.25,-626.24 1201.56,-624.19"/>
</g>
<!-- Node3 -->
<g id="node3" class="node">
<title>Node3</title>
<g id="a_node3"><a xlink:title=" ">
<polygon fill="none" stroke="#bfbfbf" points="211.5,-490 211.5,-509 276.5,-509 276.5,-490 211.5,-490"/>
<text text-anchor="middle" x="244" y="-497" font-family="Helvetica,sans-Serif" font-size="10.00">std::string</text>
</a>
</g>
</g>
<!-- Node3&#45;&gt;Node2 -->
<g id="edge2" class="edge">
<title>Node3&#45;&gt;Node2</title>
<path fill="none" stroke="#9a32cd" stroke-dasharray="5,2" d="M256.1,-517.98C286.45,-565.91 375.98,-690.5 486.5,-690.5 486.5,-690.5 486.5,-690.5 993,-690.5 1058.71,-690.5 1133.48,-667.5 1171.65,-654.03"/>
<polygon fill="#9a32cd" stroke="#9a32cd" points="258.92,-515.89 250.68,-509.23 252.97,-519.58 258.92,-515.89"/>
<text text-anchor="middle" x="729" y="-693.5" font-family="Helvetica,sans-Serif" font-size="10.00"> raw_event</text>
</g>
<!-- Node6 -->
<g id="node6" class="node">
<title>Node6</title>
<g id="a_node6"><a xlink:href="classdpp_1_1cluster.html" target="_top" xlink:title="The cluster class represents a group of shards and a command queue for sending and receiving commands...">
<polygon fill="none" stroke="black" points="955,-340 955,-359 1029,-359 1029,-340 955,-340"/>
<text text-anchor="middle" x="992" y="-347" font-family="Helvetica,sans-Serif" font-size="10.00">dpp::cluster</text>
</a>
</g>
</g>
<!-- Node3&#45;&gt;Node6 -->
<g id="edge6" class="edge">
<title>Node3&#45;&gt;Node6</title>
<path fill="none" stroke="#9a32cd" stroke-dasharray="5,2" d="M286.83,-502.02C384.59,-507.52 621.93,-518.43 650,-496.5 675.31,-476.72 644.41,-448.3 668,-426.5 712.56,-385.31 879.79,-399.74 937,-379.5 951.36,-374.42 966.4,-365.75 976.95,-359.03"/>
<polygon fill="#9a32cd" stroke="#9a32cd" points="286.9,-498.52 276.71,-501.45 286.5,-505.51 286.9,-498.52"/>
<text text-anchor="middle" x="612" y="-511.5" font-family="Helvetica,sans-Serif" font-size="10.00"> token</text>
</g>
<!-- Node9 -->
<g id="node9" class="node">
<title>Node9</title>
<g id="a_node9"><a xlink:href="classdpp_1_1user.html" target="_top" xlink:title="Represents a user on discord. May or may not be a member of a dpp::guild.">
<polygon fill="none" stroke="black" points="698,-361 698,-380 760,-380 760,-361 698,-361"/>
<text text-anchor="middle" x="729" y="-368" font-family="Helvetica,sans-Serif" font-size="10.00">dpp::user</text>
</a>
</g>
</g>
<!-- Node3&#45;&gt;Node9 -->
<g id="edge16" class="edge">
<title>Node3&#45;&gt;Node9</title>
<path fill="none" stroke="#9a32cd" stroke-dasharray="5,2" d="M286.56,-493.64C361.21,-482.28 522.12,-453.91 650,-404.5 658.54,-401.2 659.73,-398.43 668,-394.5 678.94,-389.3 691.33,-384.21 702,-380.07"/>
<polygon fill="#9a32cd" stroke="#9a32cd" points="285.99,-490.19 276.62,-495.13 287.03,-497.11 285.99,-490.19"/>
<text text-anchor="middle" x="487.5" y="-483.5" font-family="Helvetica,sans-Serif" font-size="10.00"> global_name</text>
<text text-anchor="middle" x="487.5" y="-472.5" font-family="Helvetica,sans-Serif" font-size="10.00">username</text>
</g>
<!-- Node16 -->
<g id="node16" class="node">
<title>Node16</title>
<g id="a_node16"><a xlink:href="structdpp_1_1utility_1_1primaryguild.html" target="_top" xlink:title="User&#39;s primary guild (server tag)">
<polygon fill="none" stroke="black" points="419,-361 419,-380 556,-380 556,-361 419,-361"/>
<text text-anchor="middle" x="487.5" y="-368" font-family="Helvetica,sans-Serif" font-size="10.00">dpp::utility::primaryguild</text>
</a>
</g>
</g>
<!-- Node3&#45;&gt;Node16 -->
<g id="edge22" class="edge">
<title>Node3&#45;&gt;Node16</title>
<path fill="none" stroke="#9a32cd" stroke-dasharray="5,2" d="M267.18,-484.11C299.49,-462.17 361.87,-421.55 419,-394.5 430.58,-389.02 443.77,-384.06 455.39,-380.1"/>
<polygon fill="#9a32cd" stroke="#9a32cd" points="265.17,-481.24 258.89,-489.78 269.12,-487.02 265.17,-481.24"/>
<text text-anchor="middle" x="366" y="-446.5" font-family="Helvetica,sans-Serif" font-size="10.00"> tag</text>
</g>
<!-- Node4 -->
<g id="node4" class="node">
<title>Node4</title>
<g id="a_node4"><a xlink:title=" ">
<polygon fill="none" stroke="#bfbfbf" points="0,-484.5 0,-514.5 104,-514.5 104,-484.5 0,-484.5"/>
<text text-anchor="start" x="8" y="-502.5" font-family="Helvetica,sans-Serif" font-size="10.00">std::basic_string&lt;</text>
<text text-anchor="middle" x="52" y="-491.5" font-family="Helvetica,sans-Serif" font-size="10.00"> Char &gt;</text>
</a>
</g>
</g>
<!-- Node4&#45;&gt;Node3 -->
<g id="edge3" class="edge">
<title>Node4&#45;&gt;Node3</title>
<path fill="none" stroke="midnightblue" d="M114.44,-499.5C146.78,-499.5 185.08,-499.5 211.41,-499.5"/>
<polygon fill="midnightblue" stroke="midnightblue" points="114.17,-496 104.17,-499.5 114.17,-503 114.17,-496"/>
</g>
<!-- Node5 -->
<g id="node5" class="node">
<title>Node5</title>
<g id="a_node5"><a xlink:title=" ">
<polygon fill="none" stroke="#bfbfbf" points="459.5,-553 459.5,-572 515.5,-572 515.5,-553 459.5,-553"/>
<text text-anchor="middle" x="487.5" y="-560" font-family="Helvetica,sans-Serif" font-size="10.00">uint32_t</text>
</a>
</g>
</g>
<!-- Node5&#45;&gt;Node2 -->
<g id="edge4" class="edge">
<title>Node5&#45;&gt;Node2</title>
<path fill="none" stroke="#9a32cd" stroke-dasharray="5,2" d="M518.39,-576.14C553.41,-591.36 613.57,-615.22 668,-625.5 834.83,-657.02 1036.38,-652.94 1135.65,-648.23"/>
<polygon fill="#9a32cd" stroke="#9a32cd" points="519.77,-572.92 509.21,-572.09 516.95,-579.33 519.77,-572.92"/>
<text text-anchor="middle" x="872.5" y="-653.5" font-family="Helvetica,sans-Serif" font-size="10.00"> shard</text>
</g>
<!-- Node5&#45;&gt;Node6 -->
<g id="edge8" class="edge">
<title>Node5&#45;&gt;Node6</title>
<path fill="none" stroke="#9a32cd" stroke-dasharray="5,2" d="M526,-565.57C562.36,-566.39 616.75,-561.6 650,-530.5 672.52,-509.44 645.13,-484.18 668,-463.5 757.85,-382.24 832.96,-481.57 937,-419.5 961.52,-404.87 978.91,-374.55 986.59,-359.06"/>
<polygon fill="#9a32cd" stroke="#9a32cd" points="525.93,-562.06 515.8,-565.18 525.66,-569.06 525.93,-562.06"/>
<text text-anchor="middle" x="729" y="-499.5" font-family="Helvetica,sans-Serif" font-size="10.00"> cluster_id</text>
<text text-anchor="middle" x="729" y="-488.5" font-family="Helvetica,sans-Serif" font-size="10.00">intents</text>
<text text-anchor="middle" x="729" y="-477.5" font-family="Helvetica,sans-Serif" font-size="10.00">maxclusters</text>
<text text-anchor="middle" x="729" y="-466.5" font-family="Helvetica,sans-Serif" font-size="10.00">numshards</text>
</g>
<!-- Node5&#45;&gt;Node9 -->
<g id="edge24" class="edge">
<title>Node5&#45;&gt;Node9</title>
<path fill="none" stroke="#9a32cd" stroke-dasharray="5,2" d="M506.44,-545.98C530.35,-524.01 570.13,-487.68 574,-485.5 604.74,-468.16 622.17,-484.2 650,-462.5 662.26,-452.94 658.53,-444.83 668,-432.5 683.32,-412.54 704.37,-392.08 717.04,-380.37"/>
<polygon fill="#9a32cd" stroke="#9a32cd" points="504.01,-543.46 499.01,-552.81 508.74,-548.62 504.01,-543.46"/>
<text text-anchor="middle" x="612" y="-488.5" font-family="Helvetica,sans-Serif" font-size="10.00"> flags</text>
</g>
<!-- Node6&#45;&gt;Node2 -->
<g id="edge5" class="edge">
<title>Node6&#45;&gt;Node2</title>
<path fill="none" stroke="#9a32cd" stroke-dasharray="5,2" d="M1005.5,-367.57C1044.21,-423.55 1161.28,-592.85 1190.39,-634.95"/>
<polygon fill="#9a32cd" stroke="#9a32cd" points="1008.35,-365.55 999.79,-359.32 1002.6,-369.53 1008.35,-365.55"/>
<text text-anchor="middle" x="1082.5" y="-526.5" font-family="Helvetica,sans-Serif" font-size="10.00"> owner</text>
</g>
<!-- Node7 -->
<g id="node7" class="node">
<title>Node7</title>
<g id="a_node7"><a xlink:title=" ">
<polygon fill="none" stroke="#bfbfbf" points="705,-276 705,-295 753,-295 753,-276 705,-276"/>
<text text-anchor="middle" x="729" y="-283" font-family="Helvetica,sans-Serif" font-size="10.00">time_t</text>
</a>
</g>
</g>
<!-- Node7&#45;&gt;Node6 -->
<g id="edge7" class="edge">
<title>Node7&#45;&gt;Node6</title>
<path fill="none" stroke="#9a32cd" stroke-dasharray="5,2" d="M763.29,-283.24C805.38,-281.63 879.3,-283 937,-306.5 955.2,-313.91 972.24,-329.48 982.14,-339.7"/>
<polygon fill="#9a32cd" stroke="#9a32cd" points="762.88,-279.76 753.06,-283.72 763.21,-286.75 762.88,-279.76"/>
<text text-anchor="middle" x="872.5" y="-309.5" font-family="Helvetica,sans-Serif" font-size="10.00"> last_identify</text>
</g>
<!-- Node8 -->
<g id="node8" class="node">
<title>Node8</title>
<g id="a_node8"><a xlink:title=" ">
<polygon fill="none" stroke="#bfbfbf" points="704,-238 704,-257 754,-257 754,-238 704,-238"/>
<text text-anchor="middle" x="729" y="-245" font-family="Helvetica,sans-Serif" font-size="10.00">double</text>
</a>
</g>
</g>
<!-- Node8&#45;&gt;Node6 -->
<g id="edge9" class="edge">
<title>Node8&#45;&gt;Node6</title>
<path fill="none" stroke="#9a32cd" stroke-dasharray="5,2" d="M764.12,-242.54C807.56,-238.01 883.4,-236.23 937,-268.5 964.8,-285.24 981.28,-322.43 987.78,-339.98"/>
<polygon fill="#9a32cd" stroke="#9a32cd" points="763.6,-239.08 754.07,-243.7 764.4,-246.03 763.6,-239.08"/>
<text text-anchor="middle" x="872.5" y="-271.5" font-family="Helvetica,sans-Serif" font-size="10.00"> rest_ping</text>
</g>
<!-- Node9&#45;&gt;Node6 -->
<g id="edge10" class="edge">
<title>Node9&#45;&gt;Node6</title>
<path fill="none" stroke="#9a32cd" stroke-dasharray="5,2" d="M770.4,-367.25C820.86,-363.19 906.43,-356.3 954.82,-352.41"/>
<polygon fill="#9a32cd" stroke="#9a32cd" points="769.88,-363.78 760.19,-368.07 770.44,-370.76 769.88,-363.78"/>
<text text-anchor="middle" x="872.5" y="-367.5" font-family="Helvetica,sans-Serif" font-size="10.00"> me</text>
</g>
<!-- Node10 -->
<g id="node10" class="node">
<title>Node10</title>
<g id="a_node10"><a xlink:href="classdpp_1_1managed.html" target="_top" xlink:title="The managed class is the base class for various types that can be stored in a cache that are identifi...">
<polygon fill="none" stroke="black" points="444.5,-323 444.5,-342 530.5,-342 530.5,-323 444.5,-323"/>
<text text-anchor="middle" x="487.5" y="-330" font-family="Helvetica,sans-Serif" font-size="10.00">dpp::managed</text>
</a>
</g>
</g>
<!-- Node10&#45;&gt;Node9 -->
<g id="edge11" class="edge">
<title>Node10&#45;&gt;Node9</title>
<path fill="none" stroke="midnightblue" d="M540.61,-341.1C551.63,-342.9 563.2,-344.77 574,-346.5 617.02,-353.37 666.84,-361.09 697.89,-365.88"/>
<polygon fill="midnightblue" stroke="midnightblue" points="541.11,-337.63 530.67,-339.47 539.98,-344.54 541.11,-337.63"/>
</g>
<!-- Node11 -->
<g id="node11" class="node">
<title>Node11</title>
<g id="a_node11"><a xlink:href="classdpp_1_1snowflake.html" target="_top" xlink:title="A container for a 64 bit unsigned value representing many things on discord. This value is known in d...">
<polygon fill="none" stroke="black" points="199.5,-330 199.5,-349 288.5,-349 288.5,-330 199.5,-330"/>
<text text-anchor="middle" x="244" y="-337" font-family="Helvetica,sans-Serif" font-size="10.00">dpp::snowflake</text>
</a>
</g>
</g>
<!-- Node11&#45;&gt;Node10 -->
<g id="edge12" class="edge">
<title>Node11&#45;&gt;Node10</title>
<path fill="none" stroke="#9a32cd" stroke-dasharray="5,2" d="M297.56,-328.14C308.56,-326.21 320.12,-324.5 331,-323.5 369.24,-319.97 412.9,-323.13 444.2,-326.64"/>
<polygon fill="#9a32cd" stroke="#9a32cd" points="296.85,-324.71 287.65,-329.96 298.12,-331.59 296.85,-324.71"/>
<text text-anchor="middle" x="366" y="-326.5" font-family="Helvetica,sans-Serif" font-size="10.00"> id</text>
</g>
<!-- Node11&#45;&gt;Node16 -->
<g id="edge20" class="edge">
<title>Node11&#45;&gt;Node16</title>
<path fill="none" stroke="#9a32cd" stroke-dasharray="5,2" d="M298.88,-346.42C334.32,-350.97 380.99,-356.96 418.92,-361.82"/>
<polygon fill="#9a32cd" stroke="#9a32cd" points="299.1,-342.92 288.73,-345.11 298.21,-349.86 299.1,-342.92"/>
<text text-anchor="middle" x="366" y="-362.5" font-family="Helvetica,sans-Serif" font-size="10.00"> id</text>
</g>
<!-- Node26 -->
<g id="node26" class="node">
<title>Node26</title>
<g id="a_node26"><a xlink:href="classdpp_1_1presence.html" target="_top" xlink:title="Represents user presence, e.g. what game they are playing and if they are online.">
<polygon fill="none" stroke="black" points="686.5,-86 686.5,-105 771.5,-105 771.5,-86 686.5,-86"/>
<text text-anchor="middle" x="729" y="-93" font-family="Helvetica,sans-Serif" font-size="10.00">dpp::presence</text>
</a>
</g>
</g>
<!-- Node11&#45;&gt;Node26 -->
<g id="edge38" class="edge">
<title>Node11&#45;&gt;Node26</title>
<path fill="none" stroke="#9a32cd" stroke-dasharray="5,2" d="M252.38,-320.36C271.49,-273.98 327.56,-156.33 419,-114.5 465.43,-93.26 613.15,-93.08 686.23,-94.4"/>
<polygon fill="#9a32cd" stroke="#9a32cd" points="249.06,-319.25 248.59,-329.83 255.56,-321.85 249.06,-319.25"/>
<text text-anchor="middle" x="487.5" y="-128.5" font-family="Helvetica,sans-Serif" font-size="10.00"> guild_id</text>
<text text-anchor="middle" x="487.5" y="-117.5" font-family="Helvetica,sans-Serif" font-size="10.00">user_id</text>
</g>
<!-- Node12 -->
<g id="node12" class="node">
<title>Node12</title>
<g id="a_node12"><a xlink:title=" ">
<polygon fill="none" stroke="#bfbfbf" points="24,-354 24,-373 80,-373 80,-354 24,-354"/>
<text text-anchor="middle" x="52" y="-361" font-family="Helvetica,sans-Serif" font-size="10.00">uint64_t</text>
</a>
</g>
</g>
<!-- Node12&#45;&gt;Node11 -->
<g id="edge13" class="edge">
<title>Node12&#45;&gt;Node11</title>
<path fill="none" stroke="#9a32cd" stroke-dasharray="5,2" d="M90.01,-355.16C100.33,-353.06 111.56,-350.98 122,-349.5 147.56,-345.86 176.37,-343.42 199.46,-341.85"/>
<polygon fill="#9a32cd" stroke="#9a32cd" points="89.14,-351.76 80.07,-357.24 90.58,-358.61 89.14,-351.76"/>
<text text-anchor="middle" x="139.5" y="-352.5" font-family="Helvetica,sans-Serif" font-size="10.00"> value</text>
</g>
<!-- Node15 -->
<g id="node15" class="node">
<title>Node15</title>
<g id="a_node15"><a xlink:href="structdpp_1_1utility_1_1iconhash.html" target="_top" xlink:title="Store a 128 bit icon hash (profile picture, server icon etc) as a 128 bit binary value made of two ui...">
<polygon fill="none" stroke="black" points="185,-381 185,-400 303,-400 303,-381 185,-381"/>
<text text-anchor="middle" x="244" y="-388" font-family="Helvetica,sans-Serif" font-size="10.00">dpp::utility::iconhash</text>
</a>
</g>
</g>
<!-- Node12&#45;&gt;Node15 -->
<g id="edge18" class="edge">
<title>Node12&#45;&gt;Node15</title>
<path fill="none" stroke="#9a32cd" stroke-dasharray="5,2" d="M90.38,-368.81C117.3,-372.64 154.15,-377.87 184.89,-382.24"/>
<polygon fill="#9a32cd" stroke="#9a32cd" points="90.62,-365.31 80.22,-367.37 89.63,-372.24 90.62,-365.31"/>
<text text-anchor="middle" x="139.5" y="-392.5" font-family="Helvetica,sans-Serif" font-size="10.00"> first</text>
<text text-anchor="middle" x="139.5" y="-381.5" font-family="Helvetica,sans-Serif" font-size="10.00">second</text>
</g>
<!-- Node13 -->
<g id="node13" class="node">
<title>Node13</title>
<g id="a_node13"><a xlink:href="structdpp_1_1json__interface.html" target="_top" xlink:title=" ">
<polygon fill="none" stroke="black" points="432.5,-273.5 432.5,-303.5 542.5,-303.5 542.5,-273.5 432.5,-273.5"/>
<text text-anchor="start" x="440.5" y="-291.5" font-family="Helvetica,sans-Serif" font-size="10.00">dpp::json_interface</text>
<text text-anchor="middle" x="487.5" y="-280.5" font-family="Helvetica,sans-Serif" font-size="10.00">&lt; user &gt;</text>
</a>
</g>
</g>
<!-- Node13&#45;&gt;Node9 -->
<g id="edge14" class="edge">
<title>Node13&#45;&gt;Node9</title>
<path fill="none" stroke="midnightblue" d="M540.09,-307.22C545.48,-309.29 550.86,-311.41 556,-313.5 564.11,-316.8 565.82,-318.39 574,-321.5 616.36,-337.6 666.56,-352.88 697.85,-361.98"/>
<polygon fill="midnightblue" stroke="midnightblue" points="541.02,-303.83 530.43,-303.56 538.54,-310.38 541.02,-303.83"/>
</g>
<!-- Node14 -->
<g id="node14" class="node">
<title>Node14</title>
<g id="a_node14"><a xlink:href="structdpp_1_1json__interface.html" target="_top" xlink:title="Represents an interface for an object that can optionally implement functions for converting to and f...">
<polygon fill="none" stroke="black" points="175,-123 175,-142 313,-142 313,-123 175,-123"/>
<text text-anchor="middle" x="244" y="-130" font-family="Helvetica,sans-Serif" font-size="10.00">dpp::json_interface&lt; T &gt;</text>
</a>
</g>
</g>
<!-- Node14&#45;&gt;Node13 -->
<g id="edge15" class="edge">
<title>Node14&#45;&gt;Node13</title>
<path fill="none" stroke="orange" stroke-dasharray="5,2" d="M263.29,-149.16C293.7,-176.16 357.43,-229.86 419,-263.5 425.69,-267.15 433.02,-270.49 440.32,-273.44"/>
<polygon fill="orange" stroke="orange" points="265.41,-146.36 255.62,-142.29 260.73,-151.57 265.41,-146.36"/>
<text text-anchor="middle" x="366" y="-255.5" font-family="Helvetica,sans-Serif" font-size="10.00"> &lt; user &gt;</text>
</g>
<!-- Node27 -->
<g id="node27" class="node">
<title>Node27</title>
<g id="a_node27"><a xlink:href="structdpp_1_1json__interface.html" target="_top" xlink:title=" ">
<polygon fill="none" stroke="black" points="432.5,-0.5 432.5,-30.5 542.5,-30.5 542.5,-0.5 432.5,-0.5"/>
<text text-anchor="start" x="440.5" y="-18.5" font-family="Helvetica,sans-Serif" font-size="10.00">dpp::json_interface</text>
<text text-anchor="middle" x="487.5" y="-7.5" font-family="Helvetica,sans-Serif" font-size="10.00">&lt; presence &gt;</text>
</a>
</g>
</g>
<!-- Node14&#45;&gt;Node27 -->
<g id="edge37" class="edge">
<title>Node14&#45;&gt;Node27</title>
<path fill="none" stroke="orange" stroke-dasharray="5,2" d="M268.33,-117.37C285.39,-106.56 309.25,-91.97 331,-80.5 369,-60.46 379.28,-56.86 419,-40.5 427.2,-37.12 436.05,-33.69 444.55,-30.5"/>
<polygon fill="orange" stroke="orange" points="266.15,-114.61 259.61,-122.94 269.92,-120.51 266.15,-114.61"/>
<text text-anchor="middle" x="366" y="-83.5" font-family="Helvetica,sans-Serif" font-size="10.00"> &lt; presence &gt;</text>
</g>
<!-- Node15&#45;&gt;Node9 -->
<g id="edge17" class="edge">
<title>Node15&#45;&gt;Node9</title>
<path fill="none" stroke="#9a32cd" stroke-dasharray="5,2" d="M313.29,-397.43C319.28,-397.87 325.24,-398.23 331,-398.5 431.8,-403.18 645.25,-388.12 650,-387.5 665.94,-385.43 683.45,-381.74 697.84,-378.33"/>
<polygon fill="#9a32cd" stroke="#9a32cd" points="313.48,-393.94 303.24,-396.65 312.94,-400.92 313.48,-393.94"/>
<text text-anchor="middle" x="487.5" y="-413.5" font-family="Helvetica,sans-Serif" font-size="10.00"> avatar</text>
<text text-anchor="middle" x="487.5" y="-402.5" font-family="Helvetica,sans-Serif" font-size="10.00">avatar_decoration</text>
</g>
<!-- Node15&#45;&gt;Node16 -->
<g id="edge23" class="edge">
<title>Node15&#45;&gt;Node16</title>
<path fill="none" stroke="#9a32cd" stroke-dasharray="5,2" d="M313.16,-384.85C346.14,-382.12 385.63,-378.85 418.58,-376.13"/>
<polygon fill="#9a32cd" stroke="#9a32cd" points="312.83,-381.37 303.15,-385.68 313.41,-388.35 312.83,-381.37"/>
<text text-anchor="middle" x="366" y="-386.5" font-family="Helvetica,sans-Serif" font-size="10.00"> badge</text>
</g>
<!-- Node16&#45;&gt;Node9 -->
<g id="edge19" class="edge">
<title>Node16&#45;&gt;Node9</title>
<path fill="none" stroke="#9a32cd" stroke-dasharray="5,2" d="M566.29,-371.45C568.89,-371.47 571.47,-371.49 574,-371.5 607.78,-371.7 616.22,-371.72 650,-371.5 665.84,-371.4 683.5,-371.18 698,-370.97"/>
<polygon fill="#9a32cd" stroke="#9a32cd" points="566.2,-367.95 556.17,-371.36 566.14,-374.95 566.2,-367.95"/>
<text text-anchor="middle" x="612" y="-375.5" font-family="Helvetica,sans-Serif" font-size="10.00"> primary_guild</text>
</g>
<!-- Node17 -->
<g id="node17" class="node">
<title>Node17</title>
<g id="a_node17"><a xlink:title=" ">
<polygon fill="none" stroke="#bfbfbf" points="225,-662 225,-681 263,-681 263,-662 225,-662"/>
<text text-anchor="middle" x="244" y="-669" font-family="Helvetica,sans-Serif" font-size="10.00">bool</text>
</a>
</g>
</g>
<!-- Node17&#45;&gt;Node2 -->
<g id="edge34" class="edge">
<title>Node17&#45;&gt;Node2</title>
<path fill="none" stroke="#9a32cd" stroke-dasharray="5,2" d="M272.2,-684.06C316.22,-703.2 406.29,-737.5 486.5,-737.5 486.5,-737.5 486.5,-737.5 993,-737.5 1050.46,-737.5 1066.36,-729.69 1118,-704.5 1145.55,-691.06 1172.98,-667.3 1187.14,-654.07"/>
<polygon fill="#9a32cd" stroke="#9a32cd" points="273.58,-680.84 263.02,-679.99 270.75,-687.24 273.58,-680.84"/>
<text text-anchor="middle" x="729" y="-740.5" font-family="Helvetica,sans-Serif" font-size="10.00"> cancelled</text>
</g>
<!-- Node17&#45;&gt;Node16 -->
<g id="edge21" class="edge">
<title>Node17&#45;&gt;Node16</title>
<path fill="none" stroke="#9a32cd" stroke-dasharray="5,2" d="M261.37,-653.92C292.85,-619.21 362.15,-538.28 401,-458.5 413.94,-431.93 398.82,-416.09 419,-394.5 424.95,-388.14 432.69,-383.46 440.8,-380.03"/>
<polygon fill="#9a32cd" stroke="#9a32cd" points="258.39,-651.98 254.22,-661.72 263.55,-656.71 258.39,-651.98"/>
<text text-anchor="middle" x="366" y="-570.5" font-family="Helvetica,sans-Serif" font-size="10.00"> enabled</text>
</g>
<!-- Node18 -->
<g id="node18" class="node">
<title>Node18</title>
<g id="a_node18"><a xlink:title=" ">
<polygon fill="none" stroke="#bfbfbf" points="459.5,-235 459.5,-254 515.5,-254 515.5,-235 459.5,-235"/>
<text text-anchor="middle" x="487.5" y="-242" font-family="Helvetica,sans-Serif" font-size="10.00">uint16_t</text>
</a>
</g>
</g>
<!-- Node18&#45;&gt;Node6 -->
<g id="edge31" class="edge">
<title>Node18&#45;&gt;Node6</title>
<path fill="none" stroke="#9a32cd" stroke-dasharray="5,2" d="M525.51,-236.75C561.02,-231.54 614.37,-229.8 650,-256.5 668.23,-270.16 650.22,-290.26 668,-304.5 711.64,-339.45 880.19,-347.26 954.94,-349"/>
<polygon fill="#9a32cd" stroke="#9a32cd" points="524.85,-233.31 515.54,-238.38 525.98,-240.22 524.85,-233.31"/>
<text text-anchor="middle" x="729" y="-341.5" font-family="Helvetica,sans-Serif" font-size="10.00"> request_timeout</text>
</g>
<!-- Node18&#45;&gt;Node9 -->
<g id="edge25" class="edge">
<title>Node18&#45;&gt;Node9</title>
<path fill="none" stroke="#9a32cd" stroke-dasharray="5,2" d="M525.37,-250.28C535.89,-253.1 546.94,-257.29 556,-263.5 567,-271.04 562.98,-279.99 574,-287.5 602.95,-307.24 623.17,-285.95 650,-308.5 664.31,-320.52 654.38,-333.7 668,-346.5 676.26,-354.26 687.34,-359.63 697.73,-363.29"/>
<polygon fill="#9a32cd" stroke="#9a32cd" points="526.07,-246.84 515.54,-247.96 524.47,-253.66 526.07,-246.84"/>
<text text-anchor="middle" x="612" y="-311.5" font-family="Helvetica,sans-Serif" font-size="10.00"> discriminator</text>
</g>
<!-- Node19 -->
<g id="node19" class="node">
<title>Node19</title>
<g id="a_node19"><a xlink:title=" ">
<polygon fill="none" stroke="#bfbfbf" points="462.5,-197 462.5,-216 512.5,-216 512.5,-197 462.5,-197"/>
<text text-anchor="middle" x="487.5" y="-204" font-family="Helvetica,sans-Serif" font-size="10.00">uint8_t</text>
</a>
</g>
</g>
<!-- Node19&#45;&gt;Node9 -->
<g id="edge26" class="edge">
<title>Node19&#45;&gt;Node9</title>
<path fill="none" stroke="#9a32cd" stroke-dasharray="5,2" d="M522.61,-214.63C533.44,-217.6 545.37,-221.28 556,-225.5 599.8,-242.86 620.83,-237.5 650,-274.5 670.42,-300.4 646.31,-321.65 668,-346.5 675.67,-355.29 687.01,-360.9 697.78,-364.46"/>
<polygon fill="#9a32cd" stroke="#9a32cd" points="523.2,-211.17 512.64,-212.01 521.42,-217.94 523.2,-211.17"/>
<text text-anchor="middle" x="612" y="-277.5" font-family="Helvetica,sans-Serif" font-size="10.00"> refcount</text>
</g>
<!-- Node19&#45;&gt;Node26 -->
<g id="edge39" class="edge">
<title>Node19&#45;&gt;Node26</title>
<path fill="none" stroke="#9a32cd" stroke-dasharray="5,2" d="M522.72,-208.55C564.42,-210.28 631.6,-210.37 650,-194.5 677.59,-170.69 643.35,-141.35 668,-114.5 672.95,-109.11 679.42,-105.24 686.27,-102.46"/>
<polygon fill="#9a32cd" stroke="#9a32cd" points="522.87,-205.05 512.71,-208.08 522.54,-212.04 522.87,-205.05"/>
<text text-anchor="middle" x="612" y="-212.5" font-family="Helvetica,sans-Serif" font-size="10.00"> flags</text>
</g>
<!-- Node20 -->
<g id="node20" class="node">
<title>Node20</title>
<g id="a_node20"><a xlink:href="structdpp_1_1cache__policy__t.html" target="_top" xlink:title="Represents the caching policy of the cluster.">
<polygon fill="none" stroke="black" points="672.5,-200 672.5,-219 785.5,-219 785.5,-200 672.5,-200"/>
<text text-anchor="middle" x="729" y="-207" font-family="Helvetica,sans-Serif" font-size="10.00">dpp::cache_policy_t</text>
</a>
</g>
</g>
<!-- Node20&#45;&gt;Node6 -->
<g id="edge27" class="edge">
<title>Node20&#45;&gt;Node6</title>
<path fill="none" stroke="#9a32cd" stroke-dasharray="5,2" d="M789.24,-198.79C833.9,-194.09 894.5,-195.25 937,-225.5 976.02,-253.28 987.14,-315.53 990.05,-339.67"/>
<polygon fill="#9a32cd" stroke="#9a32cd" points="788.63,-195.34 779.11,-199.99 789.45,-202.29 788.63,-195.34"/>
<text text-anchor="middle" x="872.5" y="-228.5" font-family="Helvetica,sans-Serif" font-size="10.00"> cache_policy</text>
</g>
<!-- Node21 -->
<g id="node21" class="node">
<title>Node21</title>
<g id="a_node21"><a xlink:title=" ">
<polygon fill="none" stroke="#bfbfbf" points="423.5,-146 423.5,-165 551.5,-165 551.5,-146 423.5,-146"/>
<text text-anchor="middle" x="487.5" y="-153" font-family="Helvetica,sans-Serif" font-size="10.00">cache_policy_setting_t</text>
</a>
</g>
</g>
<!-- Node21&#45;&gt;Node20 -->
<g id="edge28" class="edge">
<title>Node21&#45;&gt;Node20</title>
<path fill="none" stroke="#9a32cd" stroke-dasharray="5,2" d="M537.06,-143.83C577.9,-135.24 632.36,-127.02 650,-139.5 669.62,-153.38 650.73,-173.78 668,-190.5 672,-194.38 676.79,-197.46 681.9,-199.92"/>
<polygon fill="#9a32cd" stroke="#9a32cd" points="536.3,-140.41 527.27,-145.95 537.78,-147.25 536.3,-140.41"/>
<text text-anchor="middle" x="612" y="-186.5" font-family="Helvetica,sans-Serif" font-size="10.00"> channel_policy</text>
<text text-anchor="middle" x="612" y="-175.5" font-family="Helvetica,sans-Serif" font-size="10.00">emoji_policy</text>
<text text-anchor="middle" x="612" y="-164.5" font-family="Helvetica,sans-Serif" font-size="10.00">guild_policy</text>
<text text-anchor="middle" x="612" y="-153.5" font-family="Helvetica,sans-Serif" font-size="10.00">role_policy</text>
<text text-anchor="middle" x="612" y="-142.5" font-family="Helvetica,sans-Serif" font-size="10.00">user_policy</text>
</g>
<!-- Node22 -->
<g id="node22" class="node">
<title>Node22</title>
<g id="a_node22"><a xlink:title=" ">
<polygon fill="none" stroke="#bfbfbf" points="668,-162 668,-181 790,-181 790,-162 668,-162"/>
<text text-anchor="middle" x="729" y="-169" font-family="Helvetica,sans-Serif" font-size="10.00">websocket_protocol_t</text>
</a>
</g>
</g>
<!-- Node22&#45;&gt;Node6 -->
<g id="edge29" class="edge">
<title>Node22&#45;&gt;Node6</title>
<path fill="none" stroke="#9a32cd" stroke-dasharray="5,2" d="M777.12,-160.01C822.79,-151.82 891.65,-147.62 937,-182.5 988.21,-221.88 991.64,-310.56 991.3,-339.89"/>
<polygon fill="#9a32cd" stroke="#9a32cd" points="776.33,-156.6 767.17,-161.93 777.65,-163.47 776.33,-156.6"/>
<text text-anchor="middle" x="872.5" y="-185.5" font-family="Helvetica,sans-Serif" font-size="10.00"> ws_mode</text>
</g>
<!-- Node23 -->
<g id="node23" class="node">
<title>Node23</title>
<g id="a_node23"><a xlink:title=" ">
<polygon fill="none" stroke="#bfbfbf" points="690.5,-124 690.5,-143 767.5,-143 767.5,-124 690.5,-124"/>
<text text-anchor="middle" x="729" y="-131" font-family="Helvetica,sans-Serif" font-size="10.00">atomic_bool</text>
</a>
</g>
</g>
<!-- Node23&#45;&gt;Node6 -->
<g id="edge30" class="edge">
<title>Node23&#45;&gt;Node6</title>
<path fill="none" stroke="#9a32cd" stroke-dasharray="5,2" d="M770.75,-121.56C816.4,-110.88 890.12,-102.05 937,-139.5 969.35,-165.35 985.98,-301.86 990.02,-339.74"/>
<polygon fill="#9a32cd" stroke="#9a32cd" points="769.77,-118.2 760.9,-124 771.45,-124.99 769.77,-118.2"/>
<text text-anchor="middle" x="872.5" y="-142.5" font-family="Helvetica,sans-Serif" font-size="10.00"> terminating</text>
</g>
<!-- Node24 -->
<g id="node24" class="node">
<title>Node24</title>
<g id="a_node24"><a xlink:title=" ">
<polygon fill="none" stroke="#bfbfbf" points="690.5,-597 690.5,-616 767.5,-616 767.5,-597 690.5,-597"/>
<text text-anchor="middle" x="729" y="-604" font-family="Helvetica,sans-Serif" font-size="10.00">unique_ptr&lt;</text>
</a>
</g>
</g>
<!-- Node24&#45;&gt;Node6 -->
<g id="edge32" class="edge">
<title>Node24&#45;&gt;Node6</title>
<path fill="none" stroke="#9a32cd" stroke-dasharray="5,2" d="M778.2,-608.64C831.88,-609.96 914.13,-608.46 937,-588.5 972.65,-557.38 987.12,-399.81 990.3,-359.11"/>
<polygon fill="#9a32cd" stroke="#9a32cd" points="777.97,-605.13 767.87,-608.34 777.77,-612.13 777.97,-605.13"/>
<text text-anchor="middle" x="872.5" y="-611.5" font-family="Helvetica,sans-Serif" font-size="10.00"> socketengine</text>
</g>
<!-- Node25 -->
<g id="node25" class="node">
<title>Node25</title>
<g id="a_node25"><a xlink:title=" ">
<polygon fill="none" stroke="#bfbfbf" points="681,-517 681,-536 777,-536 777,-517 681,-517"/>
<text text-anchor="middle" x="729" y="-524" font-family="Helvetica,sans-Serif" font-size="10.00">event_router_t&lt;</text>
</a>
</g>
</g>
<!-- Node25&#45;&gt;Node6 -->
<g id="edge33" class="edge">
<title>Node25&#45;&gt;Node6</title>
<path fill="none" stroke="#9a32cd" stroke-dasharray="5,2" d="M775.2,-512.63C780.54,-509.81 785.64,-506.47 790,-502.5 802.94,-490.73 793.93,-477.89 808,-467.5 854.85,-432.9 889.44,-478.11 937,-444.5 967.37,-423.04 982.89,-378.75 988.5,-359.17"/>
<polygon fill="#9a32cd" stroke="#9a32cd" points="773.64,-509.5 766.04,-516.89 776.59,-515.85 773.64,-509.5"/>
<text text-anchor="middle" x="872.5" y="-580.5" font-family="Helvetica,sans-Serif" font-size="10.00"> on_autocomplete</text>
<text text-anchor="middle" x="872.5" y="-569.5" font-family="Helvetica,sans-Serif" font-size="10.00">on_automod_rule_create</text>
<text text-anchor="middle" x="872.5" y="-558.5" font-family="Helvetica,sans-Serif" font-size="10.00">on_automod_rule_delete</text>
<text text-anchor="middle" x="872.5" y="-547.5" font-family="Helvetica,sans-Serif" font-size="10.00">on_automod_rule_execute</text>
<text text-anchor="middle" x="872.5" y="-536.5" font-family="Helvetica,sans-Serif" font-size="10.00">on_automod_rule_update</text>
<text text-anchor="middle" x="872.5" y="-525.5" font-family="Helvetica,sans-Serif" font-size="10.00">on_button_click</text>
<text text-anchor="middle" x="872.5" y="-514.5" font-family="Helvetica,sans-Serif" font-size="10.00">on_channel_create</text>
<text text-anchor="middle" x="872.5" y="-503.5" font-family="Helvetica,sans-Serif" font-size="10.00">on_channel_delete</text>
<text text-anchor="middle" x="872.5" y="-492.5" font-family="Helvetica,sans-Serif" font-size="10.00">on_channel_pins_update</text>
<text text-anchor="middle" x="872.5" y="-481.5" font-family="Helvetica,sans-Serif" font-size="10.00">on_channel_update</text>
<text text-anchor="middle" x="872.5" y="-470.5" font-family="Helvetica,sans-Serif" font-size="10.00">...</text>
</g>
<!-- Node26&#45;&gt;Node1 -->
<g id="edge35" class="edge">
<title>Node26&#45;&gt;Node1</title>
<path fill="none" stroke="#9a32cd" stroke-dasharray="5,2" d="M781.73,-96.73C896.08,-99.44 1170.17,-105.94 1296.58,-108.94"/>
<polygon fill="#9a32cd" stroke="#9a32cd" points="781.58,-93.22 771.5,-96.48 781.41,-100.22 781.58,-93.22"/>
<text text-anchor="middle" x="1082.5" y="-108.5" font-family="Helvetica,sans-Serif" font-size="10.00"> rich_presence</text>
</g>
<!-- Node27&#45;&gt;Node26 -->
<g id="edge36" class="edge">
<title>Node27&#45;&gt;Node26</title>
<path fill="none" stroke="midnightblue" d="M548.2,-33.57C578.77,-43.02 616.5,-54.99 650,-66.5 667.9,-72.65 687.9,-80.1 703.17,-85.91"/>
<polygon fill="midnightblue" stroke="midnightblue" points="549.13,-30.2 538.55,-30.6 547.07,-36.89 549.13,-30.2"/>
</g>
<!-- Node28 -->
<g id="node28" class="node">
<title>Node28</title>
<g id="a_node28"><a xlink:title=" ">
<polygon fill="none" stroke="#bfbfbf" points="459.5,-50 459.5,-69 515.5,-69 515.5,-50 459.5,-50"/>
<text text-anchor="middle" x="487.5" y="-57" font-family="Helvetica,sans-Serif" font-size="10.00">vector&lt;</text>
</a>
</g>
</g>
<!-- Node28&#45;&gt;Node26 -->
<g id="edge40" class="edge">
<title>Node28&#45;&gt;Node26</title>
<path fill="none" stroke="#9a32cd" stroke-dasharray="5,2" d="M525.77,-63.7C558.56,-67.54 607.56,-73.67 650,-80.5 661.84,-82.41 674.65,-84.75 686.39,-87.01"/>
<polygon fill="#9a32cd" stroke="#9a32cd" points="526.06,-60.21 515.72,-62.53 525.25,-67.16 526.06,-60.21"/>
<text text-anchor="middle" x="612" y="-83.5" font-family="Helvetica,sans-Serif" font-size="10.00"> activities</text>
</g>
</g>
</svg>
        <g id="navigator" transform="translate(0 0)" fill="#404254">
                <rect fill="#f2f5e9" fill-opacity="0.5" stroke="#606060" stroke-width=".5" x="0" y="0" width="60" height="60"/>
                <use id="zoomplus" xlink:href="#zoomPlus" x="17" y="9" onmousedown="handleZoom(evt,'in')"/>
                <use id="zoomminus" xlink:href="#zoomMin" x="42" y="9" onmousedown="handleZoom(evt,'out')"/>
                <use id="reset" xlink:href="#resetDef" x="30" y="36" onmousedown="handleReset()"/>
                <g id="arrowUp" xlink:href="#dirArrow" transform="translate(30 24)" onmousedown="handlePan(0,-1)">
                  <use xlink:href="#rim" fill="#404040">
                        <set attributeName="fill" to="#808080" begin="arrowUp.mouseover" end="arrowUp.mouseout"/>
                  </use>
                  <path fill="none" stroke="white" stroke-width="1.5" d="M0,-3.0v7 M-2.5,-0.5L0,-3.0L2.5,-0.5"/>
                </g>
                <g id="arrowRight" xlink:href="#dirArrow" transform="rotate(90) translate(36 -43)" onmousedown="handlePan(1,0)">
                  <use xlink:href="#rim" fill="#404040">
                        <set attributeName="fill" to="#808080" begin="arrowRight.mouseover" end="arrowRight.mouseout"/>
                  </use>
                  <path fill="none" stroke="white" stroke-width="1.5" d="M0,-3.0v7 M-2.5,-0.5L0,-3.0L2.5,-0.5"/>
                </g>
                <g id="arrowDown" xlink:href="#dirArrow" transform="rotate(180) translate(-30 -48)" onmousedown="handlePan(0,1)">
                  <use xlink:href="#rim" fill="#404040">
                        <set attributeName="fill" to="#808080" begin="arrowDown.mouseover" end="arrowDown.mouseout"/>
                  </use>
                  <path fill="none" stroke="white" stroke-width="1.5" d="M0,-3.0v7 M-2.5,-0.5L0,-3.0L2.5,-0.5"/>
                </g>
                <g id="arrowLeft" xlink:href="#dirArrow" transform="rotate(270) translate(-36 17)" onmousedown="handlePan(-1,0)">
                  <use xlink:href="#rim" fill="#404040">
                        <set attributeName="fill" to="#808080" begin="arrowLeft.mouseover" end="arrowLeft.mouseout"/>
                  </use>
                  <path fill="none" stroke="white" stroke-width="1.5" d="M0,-3.0v7 M-2.5,-0.5L0,-3.0L2.5,-0.5"/>
                </g>
        </g>
        <svg viewBox="0 0 15 15" width="100%" height="30px" preserveAspectRatio="xMaxYMin meet">
         <g id="arrow_out" transform="scale(0.3 0.3)">
          <a xlink:href="structdpp_1_1presence__update__t__coll__graph_org.svg" target="_base">
           <rect id="button" ry="5" rx="5" y="6" x="6" height="38" width="38"
                fill="#f2f5e9" fill-opacity="0.5" stroke="#606060" stroke-width="1.0"/>
           <path id="arrow"
             d="M 11.500037,31.436501 C 11.940474,20.09759 22.043105,11.32322 32.158766,21.979434 L 37.068811,17.246167 C 37.068811,17.246167 37.088388,32 37.088388,32 L 22.160133,31.978069 C 22.160133,31.978069 26.997745,27.140456 26.997745,27.140456 C 18.528582,18.264221 13.291696,25.230495 11.500037,31.436501 z"
             style="fill:#404040;"/>
          </a>
         </g>
        </svg>
</svg>
