<?xml version="1.0" encoding="UTF-8" standalone="no"?>
<!DOCTYPE svg PUBLIC "-//W3C//DTD SVG 1.1//EN"
 "http://www.w3.org/Graphics/SVG/1.1/DTD/svg11.dtd">
<!-- Generated by graphviz version 2.43.0 (0)
 -->
<!-- Title: dpp::message_search_result Pages: 1 -->
<svg width="594pt" height="195pt"
 viewBox="0.00 0.00 594.00 195.00" xmlns="http://www.w3.org/2000/svg" xmlns:xlink="http://www.w3.org/1999/xlink">
<g id="graph0" class="graph" transform="scale(1 1) rotate(0) translate(4 191)">
<title>dpp::message_search_result</title>
<!-- Node1 -->
<g id="node1" class="node">
<title>Node1</title>
<g id="a_node1"><a xlink:title="Represents the result of a guild message search.">
<polygon fill="#bfbfbf" stroke="black" points="226,-0.5 226,-30.5 348,-30.5 348,-0.5 226,-0.5"/>
<text text-anchor="start" x="234" y="-18.5" font-family="Helvetica,sans-Serif" font-size="10.00">dpp::message_search</text>
<text text-anchor="middle" x="287" y="-7.5" font-family="Helvetica,sans-Serif" font-size="10.00">_result</text>
</a>
</g>
</g>
<!-- Node2 -->
<g id="node2" class="node">
<title>Node2</title>
<g id="a_node2"><a xlink:href="structdpp_1_1json__interface.html" target="_top" xlink:title=" ">
<polygon fill="none" stroke="black" points="0,-89.5 0,-119.5 154,-119.5 154,-89.5 0,-89.5"/>
<text text-anchor="start" x="8" y="-107.5" font-family="Helvetica,sans-Serif" font-size="10.00">dpp::json_interface</text>
<text text-anchor="middle" x="77" y="-96.5" font-family="Helvetica,sans-Serif" font-size="10.00">&lt; message_search_result &gt;</text>
</a>
</g>
</g>
<!-- Node2&#45;&gt;Node1 -->
<g id="edge1" class="edge">
<title>Node2&#45;&gt;Node1</title>
<path fill="none" stroke="midnightblue" d="M117.46,-85.3C141.83,-74.47 173.56,-60.63 202,-49 217.35,-42.72 234.41,-36.13 249.19,-30.53"/>
<polygon fill="midnightblue" stroke="midnightblue" points="115.88,-82.17 108.17,-89.44 118.73,-88.57 115.88,-82.17"/>
</g>
<!-- Node3 -->
<g id="node3" class="node">
<title>Node3</title>
<g id="a_node3"><a xlink:href="structdpp_1_1json__interface.html" target="_top" xlink:title="Represents an interface for an object that can optionally implement functions for converting to and f...">
<polygon fill="none" stroke="black" points="8,-167.5 8,-186.5 146,-186.5 146,-167.5 8,-167.5"/>
<text text-anchor="middle" x="77" y="-174.5" font-family="Helvetica,sans-Serif" font-size="10.00">dpp::json_interface&lt; T &gt;</text>
</a>
</g>
</g>
<!-- Node3&#45;&gt;Node2 -->
<g id="edge2" class="edge">
<title>Node3&#45;&gt;Node2</title>
<path fill="none" stroke="orange" stroke-dasharray="5,2" d="M77,-157.24C77,-145.41 77,-130.38 77,-119.58"/>
<polygon fill="orange" stroke="orange" points="73.5,-157.36 77,-167.36 80.5,-157.36 73.5,-157.36"/>
<text text-anchor="middle" x="147.5" y="-141" font-family="Helvetica,sans-Serif" font-size="10.00"> &lt; message_search_result &gt;</text>
</g>
<!-- Node4 -->
<g id="node4" class="node">
<title>Node4</title>
<g id="a_node4"><a xlink:title=" ">
<polygon fill="none" stroke="#bfbfbf" points="172,-95 172,-114 228,-114 228,-95 172,-95"/>
<text text-anchor="middle" x="200" y="-102" font-family="Helvetica,sans-Serif" font-size="10.00">uint32_t</text>
</a>
</g>
</g>
<!-- Node4&#45;&gt;Node1 -->
<g id="edge3" class="edge">
<title>Node4&#45;&gt;Node1</title>
<path fill="none" stroke="#9a32cd" stroke-dasharray="5,2" d="M202.77,-84.82C205.3,-73.33 210.09,-58.96 219,-49 225.89,-41.3 235.01,-35.26 244.32,-30.58"/>
<polygon fill="#9a32cd" stroke="#9a32cd" points="199.31,-84.24 200.96,-94.71 206.2,-85.5 199.31,-84.24"/>
<text text-anchor="middle" x="251" y="-57.5" font-family="Helvetica,sans-Serif" font-size="10.00"> total_results</text>
</g>
<!-- Node5 -->
<g id="node5" class="node">
<title>Node5</title>
<g id="a_node5"><a xlink:title=" ">
<polygon fill="none" stroke="#bfbfbf" points="268,-95 268,-114 306,-114 306,-95 268,-95"/>
<text text-anchor="middle" x="287" y="-102" font-family="Helvetica,sans-Serif" font-size="10.00">bool</text>
</a>
</g>
</g>
<!-- Node5&#45;&gt;Node1 -->
<g id="edge4" class="edge">
<title>Node5&#45;&gt;Node1</title>
<path fill="none" stroke="#9a32cd" stroke-dasharray="5,2" d="M287,-84.41C287,-68.15 287,-45.16 287,-30.55"/>
<polygon fill="#9a32cd" stroke="#9a32cd" points="283.5,-84.84 287,-94.84 290.5,-84.84 283.5,-84.84"/>
<text text-anchor="start" x="287" y="-63" font-family="Helvetica,sans-Serif" font-size="10.00"> doing_deep_historical</text>
<text text-anchor="middle" x="342" y="-52" font-family="Helvetica,sans-Serif" font-size="10.00">_index</text>
</g>
<!-- Node6 -->
<g id="node6" class="node">
<title>Node6</title>
<g id="a_node6"><a xlink:title=" ">
<polygon fill="none" stroke="#bfbfbf" points="387.5,-95 387.5,-114 452.5,-114 452.5,-95 387.5,-95"/>
<text text-anchor="middle" x="420" y="-102" font-family="Helvetica,sans-Serif" font-size="10.00">optional&lt;</text>
</a>
</g>
</g>
<!-- Node6&#45;&gt;Node1 -->
<g id="edge5" class="edge">
<title>Node6&#45;&gt;Node1</title>
<path fill="none" stroke="#9a32cd" stroke-dasharray="5,2" d="M416.74,-84.65C413.76,-72.87 408.2,-58.24 398,-49 384.23,-36.53 365.92,-28.83 348.15,-24.08"/>
<polygon fill="#9a32cd" stroke="#9a32cd" points="413.39,-85.73 418.87,-94.8 420.24,-84.29 413.39,-85.73"/>
<text text-anchor="middle" x="461.5" y="-57.5" font-family="Helvetica,sans-Serif" font-size="10.00"> documents_indexed</text>
</g>
<!-- Node7 -->
<g id="node7" class="node">
<title>Node7</title>
<g id="a_node7"><a xlink:title=" ">
<polygon fill="none" stroke="#bfbfbf" points="516,-95 516,-114 572,-114 572,-95 516,-95"/>
<text text-anchor="middle" x="544" y="-102" font-family="Helvetica,sans-Serif" font-size="10.00">vector&lt;</text>
</a>
</g>
</g>
<!-- Node7&#45;&gt;Node1 -->
<g id="edge6" class="edge">
<title>Node7&#45;&gt;Node1</title>
<path fill="none" stroke="#9a32cd" stroke-dasharray="5,2" d="M539.37,-85.18C535.29,-72.95 528.07,-57.59 516,-49 489.79,-30.34 406.66,-22.31 348.14,-18.91"/>
<polygon fill="#9a32cd" stroke="#9a32cd" points="536.03,-86.25 542.19,-94.88 542.76,-84.3 536.03,-86.25"/>
<text text-anchor="middle" x="559.5" y="-57.5" font-family="Helvetica,sans-Serif" font-size="10.00"> messages</text>
</g>
</g>
</svg>
