<?xml version="1.0" encoding="UTF-8" standalone="no"?>
<!DOCTYPE svg PUBLIC "-//W3C//DTD SVG 1.1//EN"
 "http://www.w3.org/Graphics/SVG/1.1/DTD/svg11.dtd">
<!-- Generated by graphviz version 2.43.0 (0)
 -->
<!-- Title: dpp::confirmation_callback_t Pages: 1 -->
<svg width="1758pt" height="664pt"
 viewBox="0.00 0.00 1758.00 664.00" xmlns="http://www.w3.org/2000/svg" xmlns:xlink="http://www.w3.org/1999/xlink">
<g id="graph0" class="graph" transform="scale(1 1) rotate(0) translate(4 660)">
<title>dpp::confirmation_callback_t</title>
<!-- Node1 -->
<g id="node1" class="node">
<title>Node1</title>
<g id="a_node1"><a xlink:title="The results of a REST call wrapped in a convenient struct.">
<polygon fill="#bfbfbf" stroke="black" points="1593,-362.5 1593,-381.5 1750,-381.5 1750,-362.5 1593,-362.5"/>
<text text-anchor="middle" x="1671.5" y="-369.5" font-family="Helvetica,sans-Serif" font-size="10.00">dpp::confirmation_callback_t</text>
</a>
</g>
</g>
<!-- Node2 -->
<g id="node2" class="node">
<title>Node2</title>
<g id="a_node2"><a xlink:href="structdpp_1_1http__request__completion__t.html" target="_top" xlink:title="The result of any HTTP request. Contains the headers, vital rate limit figures, and returned request ...">
<polygon fill="none" stroke="black" points="664,-513.5 664,-532.5 835,-532.5 835,-513.5 664,-513.5"/>
<text text-anchor="middle" x="749.5" y="-520.5" font-family="Helvetica,sans-Serif" font-size="10.00">dpp::http_request_completion_t</text>
</a>
</g>
</g>
<!-- Node2&#45;&gt;Node1 -->
<g id="edge1" class="edge">
<title>Node2&#45;&gt;Node1</title>
<path fill="none" stroke="#9a32cd" stroke-dasharray="5,2" d="M812.43,-534.21C947.58,-555.87 1276.78,-593.24 1526,-496 1589.44,-471.25 1644.35,-406.04 1663.38,-381.51"/>
<polygon fill="#9a32cd" stroke="#9a32cd" points="812.71,-530.71 802.27,-532.55 811.58,-537.62 812.71,-530.71"/>
<text text-anchor="middle" x="1263" y="-562" font-family="Helvetica,sans-Serif" font-size="10.00"> http_info</text>
</g>
<!-- Node3 -->
<g id="node3" class="node">
<title>Node3</title>
<g id="a_node3"><a xlink:title=" ">
<polygon fill="none" stroke="#bfbfbf" points="447,-589.5 447,-608.5 519,-608.5 519,-589.5 447,-589.5"/>
<text text-anchor="middle" x="483" y="-596.5" font-family="Helvetica,sans-Serif" font-size="10.00">multimap&lt;</text>
</a>
</g>
</g>
<!-- Node3&#45;&gt;Node2 -->
<g id="edge2" class="edge">
<title>Node3&#45;&gt;Node2</title>
<path fill="none" stroke="#9a32cd" stroke-dasharray="5,2" d="M529.34,-590.86C562.09,-584.51 607.2,-574.81 646,-563 674.51,-554.33 706.33,-541.37 726.85,-532.57"/>
<polygon fill="#9a32cd" stroke="#9a32cd" points="528.33,-587.49 519.16,-592.8 529.64,-594.37 528.33,-587.49"/>
<text text-anchor="middle" x="605.5" y="-586" font-family="Helvetica,sans-Serif" font-size="10.00"> headers</text>
</g>
<!-- Node4 -->
<g id="node4" class="node">
<title>Node4</title>
<g id="a_node4"><a xlink:title=" ">
<polygon fill="none" stroke="#bfbfbf" points="455,-375.5 455,-394.5 511,-394.5 511,-375.5 455,-375.5"/>
<text text-anchor="middle" x="483" y="-382.5" font-family="Helvetica,sans-Serif" font-size="10.00">uint16_t</text>
</a>
</g>
</g>
<!-- Node4&#45;&gt;Node2 -->
<g id="edge3" class="edge">
<title>Node4&#45;&gt;Node2</title>
<path fill="none" stroke="#9a32cd" stroke-dasharray="5,2" d="M504.14,-400.77C520.07,-412.78 543.18,-429.19 565,-441 599.19,-459.5 610.45,-458.28 646,-474 675.4,-487 708.92,-503.31 729.39,-513.45"/>
<polygon fill="#9a32cd" stroke="#9a32cd" points="506.16,-397.91 496.09,-394.61 501.9,-403.47 506.16,-397.91"/>
<text text-anchor="middle" x="605.5" y="-477" font-family="Helvetica,sans-Serif" font-size="10.00"> status</text>
</g>
<!-- Node12 -->
<g id="node12" class="node">
<title>Node12</title>
<g id="a_node12"><a xlink:href="classdpp_1_1cluster.html" target="_top" xlink:title="The cluster class represents a group of shards and a command queue for sending and receiving commands...">
<polygon fill="none" stroke="black" points="1226,-219.5 1226,-238.5 1300,-238.5 1300,-219.5 1226,-219.5"/>
<text text-anchor="middle" x="1263" y="-226.5" font-family="Helvetica,sans-Serif" font-size="10.00">dpp::cluster</text>
</a>
</g>
</g>
<!-- Node4&#45;&gt;Node12 -->
<g id="edge32" class="edge">
<title>Node4&#45;&gt;Node12</title>
<path fill="none" stroke="#9a32cd" stroke-dasharray="5,2" d="M521.31,-387.27C634.09,-393.97 964.84,-412.21 982,-397 1031.91,-352.75 951.72,-294.03 1000,-248 1061.56,-189.31 1172.48,-206.05 1228.17,-219.46"/>
<polygon fill="#9a32cd" stroke="#9a32cd" points="521.28,-383.77 511.09,-386.66 520.86,-390.75 521.28,-383.77"/>
<text text-anchor="middle" x="749.5" y="-404" font-family="Helvetica,sans-Serif" font-size="10.00"> request_timeout</text>
</g>
<!-- Node15 -->
<g id="node15" class="node">
<title>Node15</title>
<g id="a_node15"><a xlink:href="classdpp_1_1user.html" target="_top" xlink:title="Represents a user on discord. May or may not be a member of a dpp::guild.">
<polygon fill="none" stroke="black" points="718.5,-168.5 718.5,-187.5 780.5,-187.5 780.5,-168.5 718.5,-168.5"/>
<text text-anchor="middle" x="749.5" y="-175.5" font-family="Helvetica,sans-Serif" font-size="10.00">dpp::user</text>
</a>
</g>
</g>
<!-- Node4&#45;&gt;Node15 -->
<g id="edge26" class="edge">
<title>Node4&#45;&gt;Node15</title>
<path fill="none" stroke="#9a32cd" stroke-dasharray="5,2" d="M520.87,-375.23C558.49,-363.25 615.55,-339.15 646,-297 672.45,-260.39 632.76,-229.61 664,-197 677.83,-182.56 700.1,-177.99 718.3,-176.94"/>
<polygon fill="#9a32cd" stroke="#9a32cd" points="519.83,-371.88 511.28,-378.15 521.87,-378.58 519.83,-371.88"/>
<text text-anchor="middle" x="605.5" y="-359" font-family="Helvetica,sans-Serif" font-size="10.00"> discriminator</text>
</g>
<!-- Node5 -->
<g id="node5" class="node">
<title>Node5</title>
<g id="a_node5"><a xlink:title=" ">
<polygon fill="none" stroke="#bfbfbf" points="450.5,-551.5 450.5,-570.5 515.5,-570.5 515.5,-551.5 450.5,-551.5"/>
<text text-anchor="middle" x="483" y="-558.5" font-family="Helvetica,sans-Serif" font-size="10.00">http_error</text>
</a>
</g>
</g>
<!-- Node5&#45;&gt;Node2 -->
<g id="edge4" class="edge">
<title>Node5&#45;&gt;Node2</title>
<path fill="none" stroke="#9a32cd" stroke-dasharray="5,2" d="M525.79,-555C567.76,-548.97 633.08,-539.58 682.15,-532.53"/>
<polygon fill="#9a32cd" stroke="#9a32cd" points="525.04,-551.57 515.64,-556.45 526.04,-558.5 525.04,-551.57"/>
<text text-anchor="middle" x="605.5" y="-551" font-family="Helvetica,sans-Serif" font-size="10.00"> error</text>
</g>
<!-- Node6 -->
<g id="node6" class="node">
<title>Node6</title>
<g id="a_node6"><a xlink:title=" ">
<polygon fill="none" stroke="#bfbfbf" points="450.5,-316.5 450.5,-335.5 515.5,-335.5 515.5,-316.5 450.5,-316.5"/>
<text text-anchor="middle" x="483" y="-323.5" font-family="Helvetica,sans-Serif" font-size="10.00">std::string</text>
</a>
</g>
</g>
<!-- Node6&#45;&gt;Node2 -->
<g id="edge5" class="edge">
<title>Node6&#45;&gt;Node2</title>
<path fill="none" stroke="#9a32cd" stroke-dasharray="5,2" d="M512.28,-340.18C556.07,-362.33 636.29,-403.78 646,-415 660.91,-432.22 650.1,-444.95 664,-463 681.45,-485.67 709.82,-503.32 728.81,-513.45"/>
<polygon fill="#9a32cd" stroke="#9a32cd" points="513.77,-337.01 503.27,-335.63 510.62,-343.26 513.77,-337.01"/>
<text text-anchor="middle" x="605.5" y="-429" font-family="Helvetica,sans-Serif" font-size="10.00"> body</text>
<text text-anchor="middle" x="605.5" y="-418" font-family="Helvetica,sans-Serif" font-size="10.00">ratelimit_bucket</text>
</g>
<!-- Node6&#45;&gt;Node12 -->
<g id="edge12" class="edge">
<title>Node6&#45;&gt;Node12</title>
<path fill="none" stroke="#9a32cd" stroke-dasharray="5,2" d="M526,-325.11C560.46,-322.66 609.37,-315.11 646,-293 656.82,-286.47 652.81,-276.86 664,-271 713.74,-244.97 1104.38,-232.98 1225.99,-229.86"/>
<polygon fill="#9a32cd" stroke="#9a32cd" points="525.57,-321.63 515.8,-325.72 525.99,-328.62 525.57,-321.63"/>
<text text-anchor="middle" x="749.5" y="-274" font-family="Helvetica,sans-Serif" font-size="10.00"> token</text>
</g>
<!-- Node6&#45;&gt;Node15 -->
<g id="edge22" class="edge">
<title>Node6&#45;&gt;Node15</title>
<path fill="none" stroke="#9a32cd" stroke-dasharray="5,2" d="M525.43,-318.76C533.18,-316.02 540.8,-312.23 547,-307 560.68,-295.48 551.23,-282.41 565,-271 593.82,-247.12 618.72,-273.62 646,-248 663.52,-231.54 646.03,-212.96 664,-197 678.73,-183.92 700.51,-179.25 718.27,-177.81"/>
<polygon fill="#9a32cd" stroke="#9a32cd" points="524.18,-315.48 515.61,-321.71 526.2,-322.18 524.18,-315.48"/>
<text text-anchor="middle" x="605.5" y="-285" font-family="Helvetica,sans-Serif" font-size="10.00"> global_name</text>
<text text-anchor="middle" x="605.5" y="-274" font-family="Helvetica,sans-Serif" font-size="10.00">username</text>
</g>
<!-- Node7 -->
<g id="node7" class="node">
<title>Node7</title>
<g id="a_node7"><a xlink:title=" ">
<polygon fill="none" stroke="#bfbfbf" points="144,-311 144,-341 248,-341 248,-311 144,-311"/>
<text text-anchor="start" x="152" y="-329" font-family="Helvetica,sans-Serif" font-size="10.00">std::basic_string&lt;</text>
<text text-anchor="middle" x="196" y="-318" font-family="Helvetica,sans-Serif" font-size="10.00"> Char &gt;</text>
</a>
</g>
</g>
<!-- Node7&#45;&gt;Node6 -->
<g id="edge6" class="edge">
<title>Node7&#45;&gt;Node6</title>
<path fill="none" stroke="midnightblue" d="M258.58,-326C317.47,-326 403.94,-326 450.13,-326"/>
<polygon fill="midnightblue" stroke="midnightblue" points="258.28,-322.5 248.28,-326 258.28,-329.5 258.28,-322.5"/>
</g>
<!-- Node8 -->
<g id="node8" class="node">
<title>Node8</title>
<g id="a_node8"><a xlink:title=" ">
<polygon fill="none" stroke="#bfbfbf" points="0,-240.5 0,-259.5 56,-259.5 56,-240.5 0,-240.5"/>
<text text-anchor="middle" x="28" y="-247.5" font-family="Helvetica,sans-Serif" font-size="10.00">uint64_t</text>
</a>
</g>
</g>
<!-- Node8&#45;&gt;Node2 -->
<g id="edge7" class="edge">
<title>Node8&#45;&gt;Node2</title>
<path fill="none" stroke="#9a32cd" stroke-dasharray="5,2" d="M43.09,-267.39C60.99,-288.72 93.59,-325.11 127,-350 244.65,-437.67 277.65,-464.66 419,-504 500.01,-526.55 596.42,-529.49 663.95,-527.89"/>
<polygon fill="#9a32cd" stroke="#9a32cd" points="45.64,-264.98 36.57,-259.5 40.24,-269.44 45.64,-264.98"/>
<text text-anchor="middle" x="342" y="-534" font-family="Helvetica,sans-Serif" font-size="10.00"> ratelimit_limit</text>
<text text-anchor="middle" x="342" y="-523" font-family="Helvetica,sans-Serif" font-size="10.00">ratelimit_remaining</text>
<text text-anchor="middle" x="342" y="-512" font-family="Helvetica,sans-Serif" font-size="10.00">ratelimit_reset_after</text>
<text text-anchor="middle" x="342" y="-501" font-family="Helvetica,sans-Serif" font-size="10.00">ratelimit_retry_after</text>
</g>
<!-- Node17 -->
<g id="node17" class="node">
<title>Node17</title>
<g id="a_node17"><a xlink:href="classdpp_1_1snowflake.html" target="_top" xlink:title="A container for a 64 bit unsigned value representing many things on discord. This value is known in d...">
<polygon fill="none" stroke="black" points="151.5,-240.5 151.5,-259.5 240.5,-259.5 240.5,-240.5 151.5,-240.5"/>
<text text-anchor="middle" x="196" y="-247.5" font-family="Helvetica,sans-Serif" font-size="10.00">dpp::snowflake</text>
</a>
</g>
</g>
<!-- Node8&#45;&gt;Node17 -->
<g id="edge19" class="edge">
<title>Node8&#45;&gt;Node17</title>
<path fill="none" stroke="#9a32cd" stroke-dasharray="5,2" d="M66.31,-250C91.55,-250 124.97,-250 151.43,-250"/>
<polygon fill="#9a32cd" stroke="#9a32cd" points="66.04,-246.5 56.04,-250 66.04,-253.5 66.04,-246.5"/>
<text text-anchor="middle" x="91.5" y="-253" font-family="Helvetica,sans-Serif" font-size="10.00"> value</text>
</g>
<!-- Node20 -->
<g id="node20" class="node">
<title>Node20</title>
<g id="a_node20"><a xlink:href="structdpp_1_1utility_1_1iconhash.html" target="_top" xlink:title="Store a 128 bit icon hash (profile picture, server icon etc) as a 128 bit binary value made of two ui...">
<polygon fill="none" stroke="black" points="283,-145.5 283,-164.5 401,-164.5 401,-145.5 283,-145.5"/>
<text text-anchor="middle" x="342" y="-152.5" font-family="Helvetica,sans-Serif" font-size="10.00">dpp::utility::iconhash</text>
</a>
</g>
</g>
<!-- Node8&#45;&gt;Node20 -->
<g id="edge24" class="edge">
<title>Node8&#45;&gt;Node20</title>
<path fill="none" stroke="#9a32cd" stroke-dasharray="5,2" d="M48.31,-234.03C67.17,-219.33 97.29,-198.18 127,-187 177.45,-168.02 238.59,-160.26 282.57,-157.11"/>
<polygon fill="#9a32cd" stroke="#9a32cd" points="46.12,-231.3 40.48,-240.27 50.49,-236.77 46.12,-231.3"/>
<text text-anchor="middle" x="91.5" y="-229" font-family="Helvetica,sans-Serif" font-size="10.00"> first</text>
<text text-anchor="middle" x="91.5" y="-218" font-family="Helvetica,sans-Serif" font-size="10.00">second</text>
</g>
<!-- Node9 -->
<g id="node9" class="node">
<title>Node9</title>
<g id="a_node9"><a xlink:title=" ">
<polygon fill="none" stroke="#bfbfbf" points="464,-475.5 464,-494.5 502,-494.5 502,-475.5 464,-475.5"/>
<text text-anchor="middle" x="483" y="-482.5" font-family="Helvetica,sans-Serif" font-size="10.00">bool</text>
</a>
</g>
</g>
<!-- Node9&#45;&gt;Node2 -->
<g id="edge8" class="edge">
<title>Node9&#45;&gt;Node2</title>
<path fill="none" stroke="#9a32cd" stroke-dasharray="5,2" d="M512.19,-485.9C544.64,-487.26 599.45,-490.5 646,-498 669.33,-501.76 695.17,-508.08 715.07,-513.42"/>
<polygon fill="#9a32cd" stroke="#9a32cd" points="512.22,-482.4 502.09,-485.51 511.95,-489.4 512.22,-482.4"/>
<text text-anchor="middle" x="605.5" y="-501" font-family="Helvetica,sans-Serif" font-size="10.00"> ratelimit_global</text>
</g>
<!-- Node10 -->
<g id="node10" class="node">
<title>Node10</title>
<g id="a_node10"><a xlink:title=" ">
<polygon fill="none" stroke="#bfbfbf" points="458,-636.5 458,-655.5 508,-655.5 508,-636.5 458,-636.5"/>
<text text-anchor="middle" x="483" y="-643.5" font-family="Helvetica,sans-Serif" font-size="10.00">double</text>
</a>
</g>
</g>
<!-- Node10&#45;&gt;Node2 -->
<g id="edge9" class="edge">
<title>Node10&#45;&gt;Node2</title>
<path fill="none" stroke="#9a32cd" stroke-dasharray="5,2" d="M517.83,-639.53C551.51,-632.29 604.07,-618.77 646,-598 682.75,-579.8 720.21,-548.45 737.94,-532.67"/>
<polygon fill="#9a32cd" stroke="#9a32cd" points="517.09,-636.11 508.02,-641.58 518.52,-642.96 517.09,-636.11"/>
<text text-anchor="middle" x="605.5" y="-629" font-family="Helvetica,sans-Serif" font-size="10.00"> latency</text>
</g>
<!-- Node10&#45;&gt;Node12 -->
<g id="edge15" class="edge">
<title>Node10&#45;&gt;Node12</title>
<path fill="none" stroke="#9a32cd" stroke-dasharray="5,2" d="M518.14,-648.5C551.33,-650.01 602.9,-649.89 646,-639 806.92,-598.35 888.43,-613.09 982,-476 1010.65,-434.02 963.95,-283.82 1000,-248 1060.66,-187.73 1173.01,-205.55 1228.79,-219.41"/>
<polygon fill="#9a32cd" stroke="#9a32cd" points="518.22,-645 508.05,-647.96 517.85,-651.99 518.22,-645"/>
<text text-anchor="middle" x="749.5" y="-636" font-family="Helvetica,sans-Serif" font-size="10.00"> rest_ping</text>
</g>
<!-- Node11 -->
<g id="node11" class="node">
<title>Node11</title>
<g id="a_node11"><a xlink:title=" ">
<polygon fill="none" stroke="#bfbfbf" points="1000,-258 1000,-486 1526,-486 1526,-258 1000,-258"/>
<text text-anchor="start" x="1008" y="-474" font-family="Helvetica,sans-Serif" font-size="10.00">variant&lt; active_threads,</text>
<text text-anchor="start" x="1008" y="-463" font-family="Helvetica,sans-Serif" font-size="10.00"> application_role_connection,</text>
<text text-anchor="start" x="1008" y="-452" font-family="Helvetica,sans-Serif" font-size="10.00"> application_role_connection</text>
<text text-anchor="start" x="1008" y="-441" font-family="Helvetica,sans-Serif" font-size="10.00">_metadata_list, confirmation,</text>
<text text-anchor="start" x="1008" y="-430" font-family="Helvetica,sans-Serif" font-size="10.00"> message, message_map, user,</text>
<text text-anchor="start" x="1008" y="-419" font-family="Helvetica,sans-Serif" font-size="10.00"> user_identified, user_map, guild</text>
<text text-anchor="start" x="1008" y="-408" font-family="Helvetica,sans-Serif" font-size="10.00">_member, guild_member_map, channel,</text>
<text text-anchor="start" x="1008" y="-397" font-family="Helvetica,sans-Serif" font-size="10.00"> channel_map, thread_member, thread</text>
<text text-anchor="start" x="1008" y="-386" font-family="Helvetica,sans-Serif" font-size="10.00">_member_map, guild, guild_map, guild</text>
<text text-anchor="start" x="1008" y="-375" font-family="Helvetica,sans-Serif" font-size="10.00">_command_permissions, guild_command_permissions</text>
<text text-anchor="start" x="1008" y="-364" font-family="Helvetica,sans-Serif" font-size="10.00">_map, role, role_map, invite, invite_map, dtemplate,</text>
<text text-anchor="start" x="1008" y="-353" font-family="Helvetica,sans-Serif" font-size="10.00"> dtemplate_map, emoji, emoji_map, ban, ban_map,</text>
<text text-anchor="start" x="1008" y="-342" font-family="Helvetica,sans-Serif" font-size="10.00"> voiceregion, voiceregion_map, voicestate, integration,</text>
<text text-anchor="start" x="1008" y="-331" font-family="Helvetica,sans-Serif" font-size="10.00"> integration_map, webhook, webhook_map, prune, guild</text>
<text text-anchor="start" x="1008" y="-320" font-family="Helvetica,sans-Serif" font-size="10.00">_widget, gateway, interaction, interaction_response, auditlog,</text>
<text text-anchor="start" x="1008" y="-309" font-family="Helvetica,sans-Serif" font-size="10.00"> slashcommand, slashcommand_map, stage_instance, sticker, sticker</text>
<text text-anchor="start" x="1008" y="-298" font-family="Helvetica,sans-Serif" font-size="10.00">_map, sticker_pack, sticker_pack_map, application, application</text>
<text text-anchor="start" x="1008" y="-287" font-family="Helvetica,sans-Serif" font-size="10.00">_map, connection, connection_map, thread, thread_map, scheduled</text>
<text text-anchor="start" x="1008" y="-276" font-family="Helvetica,sans-Serif" font-size="10.00">_event, scheduled_event_map, event_member, event_member_map, automod</text>
<text text-anchor="middle" x="1263" y="-265" font-family="Helvetica,sans-Serif" font-size="10.00">_rule, automod_rule_map, onboarding, welcome_screen, entitlement, entitlement_map, sku, sku_map &gt;</text>
</a>
</g>
</g>
<!-- Node11&#45;&gt;Node1 -->
<g id="edge10" class="edge">
<title>Node11&#45;&gt;Node1</title>
<path fill="none" stroke="#9a32cd" stroke-dasharray="5,2" d="M1536.07,-372C1556.36,-372 1575.6,-372 1592.86,-372"/>
<polygon fill="#9a32cd" stroke="#9a32cd" points="1536.04,-368.5 1526.04,-372 1536.04,-375.5 1536.04,-368.5"/>
<text text-anchor="middle" x="1559.5" y="-375" font-family="Helvetica,sans-Serif" font-size="10.00"> value</text>
</g>
<!-- Node12&#45;&gt;Node1 -->
<g id="edge11" class="edge">
<title>Node12&#45;&gt;Node1</title>
<path fill="none" stroke="#9a32cd" stroke-dasharray="5,2" d="M1310.66,-223.83C1364.67,-219.75 1455.24,-218.85 1526,-248 1588.66,-273.81 1643.63,-337.8 1663.04,-362.27"/>
<polygon fill="#9a32cd" stroke="#9a32cd" points="1310.04,-220.37 1300.36,-224.68 1310.62,-227.35 1310.04,-220.37"/>
<text text-anchor="middle" x="1559.5" y="-277" font-family="Helvetica,sans-Serif" font-size="10.00"> bot</text>
</g>
<!-- Node13 -->
<g id="node13" class="node">
<title>Node13</title>
<g id="a_node13"><a xlink:title=" ">
<polygon fill="none" stroke="#bfbfbf" points="725.5,-206.5 725.5,-225.5 773.5,-225.5 773.5,-206.5 725.5,-206.5"/>
<text text-anchor="middle" x="749.5" y="-213.5" font-family="Helvetica,sans-Serif" font-size="10.00">time_t</text>
</a>
</g>
</g>
<!-- Node13&#45;&gt;Node12 -->
<g id="edge13" class="edge">
<title>Node13&#45;&gt;Node12</title>
<path fill="none" stroke="#9a32cd" stroke-dasharray="5,2" d="M783.55,-215.74C828.48,-215.48 911.32,-215.33 982,-217 1069.56,-219.06 1172.41,-224.16 1225.77,-227"/>
<polygon fill="#9a32cd" stroke="#9a32cd" points="783.48,-212.24 773.5,-215.81 783.53,-219.24 783.48,-212.24"/>
<text text-anchor="middle" x="917.5" y="-220" font-family="Helvetica,sans-Serif" font-size="10.00"> last_identify</text>
</g>
<!-- Node14 -->
<g id="node14" class="node">
<title>Node14</title>
<g id="a_node14"><a xlink:title=" ">
<polygon fill="none" stroke="#bfbfbf" points="455,-88.5 455,-107.5 511,-107.5 511,-88.5 455,-88.5"/>
<text text-anchor="middle" x="483" y="-95.5" font-family="Helvetica,sans-Serif" font-size="10.00">uint32_t</text>
</a>
</g>
</g>
<!-- Node14&#45;&gt;Node12 -->
<g id="edge14" class="edge">
<title>Node14&#45;&gt;Node12</title>
<path fill="none" stroke="#9a32cd" stroke-dasharray="5,2" d="M521.12,-97.22C585.45,-96.45 721.65,-97.33 835,-115 988.9,-138.99 1167.22,-196.62 1234.46,-219.45"/>
<polygon fill="#9a32cd" stroke="#9a32cd" points="521.01,-93.72 511.06,-97.36 521.11,-100.72 521.01,-93.72"/>
<text text-anchor="middle" x="749.5" y="-151" font-family="Helvetica,sans-Serif" font-size="10.00"> cluster_id</text>
<text text-anchor="middle" x="749.5" y="-140" font-family="Helvetica,sans-Serif" font-size="10.00">intents</text>
<text text-anchor="middle" x="749.5" y="-129" font-family="Helvetica,sans-Serif" font-size="10.00">maxclusters</text>
<text text-anchor="middle" x="749.5" y="-118" font-family="Helvetica,sans-Serif" font-size="10.00">numshards</text>
</g>
<!-- Node14&#45;&gt;Node15 -->
<g id="edge25" class="edge">
<title>Node14&#45;&gt;Node15</title>
<path fill="none" stroke="#9a32cd" stroke-dasharray="5,2" d="M521.62,-99.91C555.45,-102.78 605.86,-109.97 646,-128 655.25,-132.15 655.27,-136.86 664,-142 682.14,-152.68 704.04,-161.91 721,-168.36"/>
<polygon fill="#9a32cd" stroke="#9a32cd" points="521.49,-96.39 511.25,-99.12 520.96,-103.37 521.49,-96.39"/>
<text text-anchor="middle" x="605.5" y="-131" font-family="Helvetica,sans-Serif" font-size="10.00"> flags</text>
</g>
<!-- Node15&#45;&gt;Node12 -->
<g id="edge16" class="edge">
<title>Node15&#45;&gt;Node12</title>
<path fill="none" stroke="#9a32cd" stroke-dasharray="5,2" d="M791.04,-182.02C837.26,-186.6 915.07,-194.33 982,-201 1069.5,-209.72 1172.38,-220.02 1225.76,-225.37"/>
<polygon fill="#9a32cd" stroke="#9a32cd" points="791.13,-178.51 780.84,-181.01 790.44,-185.48 791.13,-178.51"/>
<text text-anchor="middle" x="917.5" y="-204" font-family="Helvetica,sans-Serif" font-size="10.00"> me</text>
</g>
<!-- Node16 -->
<g id="node16" class="node">
<title>Node16</title>
<g id="a_node16"><a xlink:href="classdpp_1_1managed.html" target="_top" xlink:title="The managed class is the base class for various types that can be stored in a cache that are identifi...">
<polygon fill="none" stroke="black" points="440,-240.5 440,-259.5 526,-259.5 526,-240.5 440,-240.5"/>
<text text-anchor="middle" x="483" y="-247.5" font-family="Helvetica,sans-Serif" font-size="10.00">dpp::managed</text>
</a>
</g>
</g>
<!-- Node16&#45;&gt;Node15 -->
<g id="edge17" class="edge">
<title>Node16&#45;&gt;Node15</title>
<path fill="none" stroke="midnightblue" d="M530.36,-237.16C536.07,-235.03 541.75,-232.64 547,-230 555.81,-225.56 555.98,-221 565,-217 616.06,-194.35 681.06,-184.55 718.41,-180.54"/>
<polygon fill="midnightblue" stroke="midnightblue" points="529.06,-233.9 520.76,-240.49 531.36,-240.52 529.06,-233.9"/>
</g>
<!-- Node17&#45;&gt;Node16 -->
<g id="edge18" class="edge">
<title>Node17&#45;&gt;Node16</title>
<path fill="none" stroke="#9a32cd" stroke-dasharray="5,2" d="M250.82,-250C305.66,-250 389.59,-250 439.8,-250"/>
<polygon fill="#9a32cd" stroke="#9a32cd" points="250.6,-246.5 240.6,-250 250.6,-253.5 250.6,-246.5"/>
<text text-anchor="middle" x="342" y="-253" font-family="Helvetica,sans-Serif" font-size="10.00"> id</text>
</g>
<!-- Node18 -->
<g id="node18" class="node">
<title>Node18</title>
<g id="a_node18"><a xlink:href="structdpp_1_1json__interface.html" target="_top" xlink:title=" ">
<polygon fill="none" stroke="black" points="428,-191 428,-221 538,-221 538,-191 428,-191"/>
<text text-anchor="start" x="436" y="-209" font-family="Helvetica,sans-Serif" font-size="10.00">dpp::json_interface</text>
<text text-anchor="middle" x="483" y="-198" font-family="Helvetica,sans-Serif" font-size="10.00">&lt; user &gt;</text>
</a>
</g>
</g>
<!-- Node18&#45;&gt;Node15 -->
<g id="edge20" class="edge">
<title>Node18&#45;&gt;Node15</title>
<path fill="none" stroke="midnightblue" d="M548.41,-194.3C554.01,-193.45 559.6,-192.67 565,-192 618.74,-185.32 681.76,-181.35 718.21,-179.43"/>
<polygon fill="midnightblue" stroke="midnightblue" points="547.69,-190.87 538.36,-195.87 548.78,-197.78 547.69,-190.87"/>
</g>
<!-- Node19 -->
<g id="node19" class="node">
<title>Node19</title>
<g id="a_node19"><a xlink:href="structdpp_1_1json__interface.html" target="_top" xlink:title="Represents an interface for an object that can optionally implement functions for converting to and f...">
<polygon fill="none" stroke="black" points="127,-196.5 127,-215.5 265,-215.5 265,-196.5 127,-196.5"/>
<text text-anchor="middle" x="196" y="-203.5" font-family="Helvetica,sans-Serif" font-size="10.00">dpp::json_interface&lt; T &gt;</text>
</a>
</g>
</g>
<!-- Node19&#45;&gt;Node18 -->
<g id="edge21" class="edge">
<title>Node19&#45;&gt;Node18</title>
<path fill="none" stroke="orange" stroke-dasharray="5,2" d="M275.38,-206C323.74,-206 384.53,-206 427.63,-206"/>
<polygon fill="orange" stroke="orange" points="275.26,-202.5 265.26,-206 275.26,-209.5 275.26,-202.5"/>
<text text-anchor="middle" x="342" y="-209" font-family="Helvetica,sans-Serif" font-size="10.00"> &lt; user &gt;</text>
</g>
<!-- Node20&#45;&gt;Node15 -->
<g id="edge23" class="edge">
<title>Node20&#45;&gt;Node15</title>
<path fill="none" stroke="#9a32cd" stroke-dasharray="5,2" d="M411.17,-155.07C450.84,-155.43 501.78,-156.43 547,-159 607.87,-162.46 678.78,-169.96 718.17,-174.43"/>
<polygon fill="#9a32cd" stroke="#9a32cd" points="411.11,-151.57 401.08,-154.99 411.05,-158.57 411.11,-151.57"/>
<text text-anchor="middle" x="483" y="-173" font-family="Helvetica,sans-Serif" font-size="10.00"> avatar</text>
<text text-anchor="middle" x="483" y="-162" font-family="Helvetica,sans-Serif" font-size="10.00">avatar_decoration</text>
</g>
<!-- Node21 -->
<g id="node21" class="node">
<title>Node21</title>
<g id="a_node21"><a xlink:title=" ">
<polygon fill="none" stroke="#bfbfbf" points="458,-278.5 458,-297.5 508,-297.5 508,-278.5 458,-278.5"/>
<text text-anchor="middle" x="483" y="-285.5" font-family="Helvetica,sans-Serif" font-size="10.00">uint8_t</text>
</a>
</g>
</g>
<!-- Node21&#45;&gt;Node15 -->
<g id="edge27" class="edge">
<title>Node21&#45;&gt;Node15</title>
<path fill="none" stroke="#9a32cd" stroke-dasharray="5,2" d="M518.02,-282.78C528.13,-279.97 538.71,-275.64 547,-269 559.73,-258.79 552.18,-247.1 565,-237 594.39,-213.83 613.46,-232.49 646,-214 655.57,-208.56 654.29,-202.17 664,-197 680.73,-188.1 701.46,-183.36 718.2,-180.84"/>
<polygon fill="#9a32cd" stroke="#9a32cd" points="517.08,-279.41 508.16,-285.12 518.7,-286.22 517.08,-279.41"/>
<text text-anchor="middle" x="605.5" y="-240" font-family="Helvetica,sans-Serif" font-size="10.00"> refcount</text>
</g>
<!-- Node22 -->
<g id="node22" class="node">
<title>Node22</title>
<g id="a_node22"><a xlink:href="structdpp_1_1cache__policy__t.html" target="_top" xlink:title="Represents the caching policy of the cluster.">
<polygon fill="none" stroke="black" points="693,-38.5 693,-57.5 806,-57.5 806,-38.5 693,-38.5"/>
<text text-anchor="middle" x="749.5" y="-45.5" font-family="Helvetica,sans-Serif" font-size="10.00">dpp::cache_policy_t</text>
</a>
</g>
</g>
<!-- Node22&#45;&gt;Node12 -->
<g id="edge28" class="edge">
<title>Node22&#45;&gt;Node12</title>
<path fill="none" stroke="#9a32cd" stroke-dasharray="5,2" d="M816.14,-46.57C863.3,-47.31 927.84,-51.96 982,-69 1094.96,-104.54 1212.39,-190.56 1249.8,-219.4"/>
<polygon fill="#9a32cd" stroke="#9a32cd" points="816.09,-43.07 806.05,-46.47 816.01,-50.07 816.09,-43.07"/>
<text text-anchor="middle" x="917.5" y="-72" font-family="Helvetica,sans-Serif" font-size="10.00"> cache_policy</text>
</g>
<!-- Node23 -->
<g id="node23" class="node">
<title>Node23</title>
<g id="a_node23"><a xlink:title=" ">
<polygon fill="none" stroke="#bfbfbf" points="419,-14.5 419,-33.5 547,-33.5 547,-14.5 419,-14.5"/>
<text text-anchor="middle" x="483" y="-21.5" font-family="Helvetica,sans-Serif" font-size="10.00">cache_policy_setting_t</text>
</a>
</g>
</g>
<!-- Node23&#45;&gt;Node22 -->
<g id="edge29" class="edge">
<title>Node23&#45;&gt;Node22</title>
<path fill="none" stroke="#9a32cd" stroke-dasharray="5,2" d="M557.33,-21.13C585.18,-20.91 617.13,-21.71 646,-25 646.4,-25.05 678.12,-32.17 706.16,-38.47"/>
<polygon fill="#9a32cd" stroke="#9a32cd" points="557.23,-17.63 547.27,-21.26 557.32,-24.63 557.23,-17.63"/>
<text text-anchor="middle" x="605.5" y="-72" font-family="Helvetica,sans-Serif" font-size="10.00"> channel_policy</text>
<text text-anchor="middle" x="605.5" y="-61" font-family="Helvetica,sans-Serif" font-size="10.00">emoji_policy</text>
<text text-anchor="middle" x="605.5" y="-50" font-family="Helvetica,sans-Serif" font-size="10.00">guild_policy</text>
<text text-anchor="middle" x="605.5" y="-39" font-family="Helvetica,sans-Serif" font-size="10.00">role_policy</text>
<text text-anchor="middle" x="605.5" y="-28" font-family="Helvetica,sans-Serif" font-size="10.00">user_policy</text>
</g>
<!-- Node24 -->
<g id="node24" class="node">
<title>Node24</title>
<g id="a_node24"><a xlink:title=" ">
<polygon fill="none" stroke="#bfbfbf" points="688.5,-0.5 688.5,-19.5 810.5,-19.5 810.5,-0.5 688.5,-0.5"/>
<text text-anchor="middle" x="749.5" y="-7.5" font-family="Helvetica,sans-Serif" font-size="10.00">websocket_protocol_t</text>
</a>
</g>
</g>
<!-- Node24&#45;&gt;Node12 -->
<g id="edge30" class="edge">
<title>Node24&#45;&gt;Node12</title>
<path fill="none" stroke="#9a32cd" stroke-dasharray="5,2" d="M820.96,-8.25C867.93,-9.24 930.31,-14.79 982,-34 1101.94,-78.57 1218.82,-186.75 1252.41,-219.47"/>
<polygon fill="#9a32cd" stroke="#9a32cd" points="820.93,-4.75 810.88,-8.1 820.82,-11.75 820.93,-4.75"/>
<text text-anchor="middle" x="917.5" y="-37" font-family="Helvetica,sans-Serif" font-size="10.00"> ws_mode</text>
</g>
<!-- Node25 -->
<g id="node25" class="node">
<title>Node25</title>
<g id="a_node25"><a xlink:title=" ">
<polygon fill="none" stroke="#bfbfbf" points="696,-434.5 696,-453.5 803,-453.5 803,-434.5 696,-434.5"/>
<text text-anchor="middle" x="749.5" y="-441.5" font-family="Helvetica,sans-Serif" font-size="10.00">condition_variable</text>
</a>
</g>
</g>
<!-- Node25&#45;&gt;Node12 -->
<g id="edge31" class="edge">
<title>Node25&#45;&gt;Node12</title>
<path fill="none" stroke="#9a32cd" stroke-dasharray="5,2" d="M799.53,-455.42C852.2,-464.49 934.7,-468.91 982,-422 1009.6,-394.63 972.09,-275.06 1000,-248 1061.22,-188.63 1172.8,-205.86 1228.5,-219.46"/>
<polygon fill="#9a32cd" stroke="#9a32cd" points="799.88,-451.92 789.41,-453.56 798.61,-458.81 799.88,-451.92"/>
<text text-anchor="middle" x="917.5" y="-464" font-family="Helvetica,sans-Serif" font-size="10.00"> terminating</text>
</g>
<!-- Node26 -->
<g id="node26" class="node">
<title>Node26</title>
<g id="a_node26"><a xlink:title=" ">
<polygon fill="none" stroke="#bfbfbf" points="701.5,-291.5 701.5,-310.5 797.5,-310.5 797.5,-291.5 701.5,-291.5"/>
<text text-anchor="middle" x="749.5" y="-298.5" font-family="Helvetica,sans-Serif" font-size="10.00">event_router_t&lt;</text>
</a>
</g>
</g>
<!-- Node26&#45;&gt;Node12 -->
<g id="edge33" class="edge">
<title>Node26&#45;&gt;Node12</title>
<path fill="none" stroke="#9a32cd" stroke-dasharray="5,2" d="M797.31,-288.93C814.74,-284.61 834.72,-279.85 853,-276 909.98,-263.98 925.21,-265.92 982,-253 990.1,-251.16 991.82,-249.42 1000,-248 1079.76,-234.17 1174.87,-230.39 1225.7,-229.36"/>
<polygon fill="#9a32cd" stroke="#9a32cd" points="796.23,-285.59 787.38,-291.41 797.93,-292.38 796.23,-285.59"/>
<text text-anchor="middle" x="917.5" y="-389" font-family="Helvetica,sans-Serif" font-size="10.00"> on_autocomplete</text>
<text text-anchor="middle" x="917.5" y="-378" font-family="Helvetica,sans-Serif" font-size="10.00">on_automod_rule_create</text>
<text text-anchor="middle" x="917.5" y="-367" font-family="Helvetica,sans-Serif" font-size="10.00">on_automod_rule_delete</text>
<text text-anchor="middle" x="917.5" y="-356" font-family="Helvetica,sans-Serif" font-size="10.00">on_automod_rule_execute</text>
<text text-anchor="middle" x="917.5" y="-345" font-family="Helvetica,sans-Serif" font-size="10.00">on_automod_rule_update</text>
<text text-anchor="middle" x="917.5" y="-334" font-family="Helvetica,sans-Serif" font-size="10.00">on_button_click</text>
<text text-anchor="middle" x="917.5" y="-323" font-family="Helvetica,sans-Serif" font-size="10.00">on_channel_create</text>
<text text-anchor="middle" x="917.5" y="-312" font-family="Helvetica,sans-Serif" font-size="10.00">on_channel_delete</text>
<text text-anchor="middle" x="917.5" y="-301" font-family="Helvetica,sans-Serif" font-size="10.00">on_channel_pins_update</text>
<text text-anchor="middle" x="917.5" y="-290" font-family="Helvetica,sans-Serif" font-size="10.00">on_channel_update</text>
<text text-anchor="middle" x="917.5" y="-279" font-family="Helvetica,sans-Serif" font-size="10.00">...</text>
</g>
</g>
</svg>
