<?xml version="1.0" encoding="UTF-8" standalone="no"?>
<!DOCTYPE svg PUBLIC "-//W3C//DTD SVG 1.1//EN"
 "http://www.w3.org/Graphics/SVG/1.1/DTD/svg11.dtd">
<!-- Generated by graphviz version 2.43.0 (0)
 -->
<!-- Title: dpp::log_t Pages: 1 -->
<!--zoomable 1039 -->
<svg id="main" version="1.1" xmlns="http://www.w3.org/2000/svg" xmlns:xlink="http://www.w3.org/1999/xlink" xml:space="preserve" onload="init(evt)">
<style type="text/css"><![CDATA[
.edge:hover path { stroke: red; }
.edge:hover polygon { stroke: red; fill: red; }
]]></style>
<script type="text/javascript"><![CDATA[
var edges = document.getElementsByTagName('g');
if (edges && edges.length) {
  for (var i=0;i<edges.length;i++) {
    if (edges[i].id.substr(0,4)=='edge') {
      edges[i].setAttribute('class','edge');
    }
  }
}
]]></script>
        <defs>
                <circle id="rim" cx="0" cy="0" r="7"/>
                <circle id="rim2" cx="0" cy="0" r="3.5"/>
                <g id="zoomPlus">
                        <use xlink:href="#rim" fill="#404040">
                                <set attributeName="fill" to="#808080" begin="zoomplus.mouseover" end="zoomplus.mouseout"/>
                        </use>
                        <path d="M-4,0h8M0,-4v8" fill="none" stroke="white" stroke-width="1.5" pointer-events="none"/>
                </g>
                <g id="zoomMin">
                        <use xlink:href="#rim" fill="#404040">
                                <set attributeName="fill" to="#808080" begin="zoomminus.mouseover" end="zoomminus.mouseout"/>
                        </use>
                        <path d="M-4,0h8" fill="none" stroke="white" stroke-width="1.5" pointer-events="none"/>
                </g>
                <g id="dirArrow">
                        <path fill="none" stroke="white" stroke-width="1.5" d="M0,-3.0v7 M-2.5,-0.5L0,-3.0L2.5,-0.5"/>
                </g>
               <g id="resetDef">
                       <use xlink:href="#rim2" fill="#404040">
                               <set attributeName="fill" to="#808080" begin="reset.mouseover" end="reset.mouseout"/>
                       </use>
               </g>
        </defs>

<script type="text/javascript">
var viewWidth = 1541;
var viewHeight = 1039;
var sectionId = 'dynsection-1';
</script>
<script xlink:href="svgpan.js"/>
<svg id="graph" class="graph">
<g id="viewport">
<title>dpp::log_t</title>
<!-- Node1 -->
<g id="node1" class="node">
<title>Node1</title>
<g id="a_node1"><a xlink:title="Log messages.">
<polygon fill="#bfbfbf" stroke="black" points="1468,-616.7 1468,-635.7 1533,-635.7 1533,-616.7 1468,-616.7"/>
<text text-anchor="middle" x="1500.5" y="-623.7" font-family="Helvetica,sans-Serif" font-size="10.00">dpp::log_t</text>
</a>
</g>
</g>
<!-- Node2 -->
<g id="node2" class="node">
<title>Node2</title>
<g id="a_node2"><a xlink:href="structdpp_1_1event__dispatch__t.html" target="_top" xlink:title="Base event parameter struct. Each event you receive from the library will have its parameter derived ...">
<polygon fill="none" stroke="black" points="1265,-616.7 1265,-635.7 1389,-635.7 1389,-616.7 1265,-616.7"/>
<text text-anchor="middle" x="1327" y="-623.7" font-family="Helvetica,sans-Serif" font-size="10.00">dpp::event_dispatch_t</text>
</a>
</g>
</g>
<!-- Node2&#45;&gt;Node1 -->
<g id="edge1" class="edge">
<title>Node2&#45;&gt;Node1</title>
<path fill="none" stroke="midnightblue" d="M1399.52,-626.2C1423.31,-626.2 1448.61,-626.2 1467.81,-626.2"/>
<polygon fill="midnightblue" stroke="midnightblue" points="1399.43,-622.7 1389.43,-626.2 1399.43,-629.7 1399.43,-622.7"/>
</g>
<!-- Node3 -->
<g id="node3" class="node">
<title>Node3</title>
<g id="a_node3"><a xlink:title=" ">
<polygon fill="none" stroke="#bfbfbf" points="258,-554.7 258,-573.7 323,-573.7 323,-554.7 258,-554.7"/>
<text text-anchor="middle" x="290.5" y="-561.7" font-family="Helvetica,sans-Serif" font-size="10.00">std::string</text>
</a>
</g>
</g>
<!-- Node3&#45;&gt;Node1 -->
<g id="edge48" class="edge">
<title>Node3&#45;&gt;Node1</title>
<path fill="none" stroke="#9a32cd" stroke-dasharray="5,2" d="M333.07,-575.54C347.29,-579.34 363.32,-583.55 378,-587.2 431.57,-600.51 446.52,-598.07 499,-615.2 663.69,-668.93 684.26,-768.2 857.5,-768.2 857.5,-768.2 857.5,-768.2 1328,-768.2 1411.11,-768.2 1475.59,-668.04 1494.11,-635.96"/>
<polygon fill="#9a32cd" stroke="#9a32cd" points="333.64,-572.07 323.07,-572.85 331.82,-578.83 333.64,-572.07"/>
<text text-anchor="middle" x="1007.5" y="-771.2" font-family="Helvetica,sans-Serif" font-size="10.00"> message</text>
</g>
<!-- Node3&#45;&gt;Node2 -->
<g id="edge2" class="edge">
<title>Node3&#45;&gt;Node2</title>
<path fill="none" stroke="#9a32cd" stroke-dasharray="5,2" d="M333.46,-566.71C494.63,-576.37 1074.42,-611.12 1264.89,-622.53"/>
<polygon fill="#9a32cd" stroke="#9a32cd" points="333.22,-563.19 323.03,-566.08 332.8,-570.18 333.22,-563.19"/>
<text text-anchor="middle" x="858.5" y="-605.2" font-family="Helvetica,sans-Serif" font-size="10.00"> raw_event</text>
</g>
<!-- Node5 -->
<g id="node5" class="node">
<title>Node5</title>
<g id="a_node5"><a xlink:href="classdpp_1_1discord__client.html" target="_top" xlink:title="Implements a discord client. Each discord_client connects to one shard and derives from a websocket c...">
<polygon fill="none" stroke="black" points="1094,-463.7 1094,-482.7 1202,-482.7 1202,-463.7 1094,-463.7"/>
<text text-anchor="middle" x="1148" y="-470.7" font-family="Helvetica,sans-Serif" font-size="10.00">dpp::discord_client</text>
</a>
</g>
</g>
<!-- Node3&#45;&gt;Node5 -->
<g id="edge42" class="edge">
<title>Node3&#45;&gt;Node5</title>
<path fill="none" stroke="#9a32cd" stroke-dasharray="5,2" d="M333.56,-563.59C486.27,-561.21 1006.05,-551.32 1076,-526.2 1101.48,-517.04 1125.48,-495.42 1138,-482.81"/>
<polygon fill="#9a32cd" stroke="#9a32cd" points="333.16,-560.1 323.22,-563.75 333.27,-567.1 333.16,-560.1"/>
<text text-anchor="middle" x="717.5" y="-570.2" font-family="Helvetica,sans-Serif" font-size="10.00"> sessionid</text>
<text text-anchor="middle" x="717.5" y="-559.2" font-family="Helvetica,sans-Serif" font-size="10.00">token</text>
</g>
<!-- Node7 -->
<g id="node7" class="node">
<title>Node7</title>
<g id="a_node7"><a xlink:href="classdpp_1_1ssl__client.html" target="_top" xlink:title="Implements a simple non&#45;blocking SSL stream client.">
<polygon fill="none" stroke="black" points="535,-783.7 535,-802.7 621,-802.7 621,-783.7 535,-783.7"/>
<text text-anchor="middle" x="578" y="-790.7" font-family="Helvetica,sans-Serif" font-size="10.00">dpp::ssl_client</text>
</a>
</g>
</g>
<!-- Node3&#45;&gt;Node7 -->
<g id="edge7" class="edge">
<title>Node3&#45;&gt;Node7</title>
<path fill="none" stroke="#9a32cd" stroke-dasharray="5,2" d="M314.13,-579.39C331.05,-590.08 355.11,-603.91 378,-612.2 429.47,-630.82 460.27,-596.51 499,-635.2 529.1,-665.25 497.69,-691.29 517,-729.2 528.55,-751.86 550.56,-772.19 564.47,-783.59"/>
<polygon fill="#9a32cd" stroke="#9a32cd" points="315.82,-576.32 305.52,-573.83 312.02,-582.2 315.82,-576.32"/>
<text text-anchor="middle" x="438.5" y="-682.2" font-family="Helvetica,sans-Serif" font-size="10.00"> buffer</text>
<text text-anchor="middle" x="438.5" y="-671.2" font-family="Helvetica,sans-Serif" font-size="10.00">cipher</text>
<text text-anchor="middle" x="438.5" y="-660.2" font-family="Helvetica,sans-Serif" font-size="10.00">hostname</text>
<text text-anchor="middle" x="438.5" y="-649.2" font-family="Helvetica,sans-Serif" font-size="10.00">obuffer</text>
<text text-anchor="middle" x="438.5" y="-638.2" font-family="Helvetica,sans-Serif" font-size="10.00">port</text>
</g>
<!-- Node16 -->
<g id="node16" class="node">
<title>Node16</title>
<g id="a_node16"><a xlink:href="classdpp_1_1cluster.html" target="_top" xlink:title="The cluster class represents a group of shards and a command queue for sending and receiving commands...">
<polygon fill="none" stroke="black" points="821.5,-318.7 821.5,-337.7 895.5,-337.7 895.5,-318.7 821.5,-318.7"/>
<text text-anchor="middle" x="858.5" y="-325.7" font-family="Helvetica,sans-Serif" font-size="10.00">dpp::cluster</text>
</a>
</g>
</g>
<!-- Node3&#45;&gt;Node16 -->
<g id="edge18" class="edge">
<title>Node3&#45;&gt;Node16</title>
<path fill="none" stroke="#9a32cd" stroke-dasharray="5,2" d="M333.04,-552.28C347.26,-548.3 363.29,-543.93 378,-540.2 431.5,-526.59 459.87,-551.13 499,-512.2 523.61,-487.71 491.31,-459.54 517,-436.2 603.66,-357.44 671.88,-449.7 778,-400.2 809.56,-385.47 837.43,-353.84 850.16,-337.86"/>
<polygon fill="#9a32cd" stroke="#9a32cd" points="331.73,-549.01 323.05,-555.09 333.62,-555.75 331.73,-549.01"/>
<text text-anchor="middle" x="578" y="-439.2" font-family="Helvetica,sans-Serif" font-size="10.00"> token</text>
</g>
<!-- Node19 -->
<g id="node19" class="node">
<title>Node19</title>
<g id="a_node19"><a xlink:href="classdpp_1_1user.html" target="_top" xlink:title="Represents a user on discord. May or may not be a member of a dpp::guild.">
<polygon fill="none" stroke="black" points="547,-371.7 547,-390.7 609,-390.7 609,-371.7 547,-371.7"/>
<text text-anchor="middle" x="578" y="-378.7" font-family="Helvetica,sans-Serif" font-size="10.00">dpp::user</text>
</a>
</g>
</g>
<!-- Node3&#45;&gt;Node19 -->
<g id="edge27" class="edge">
<title>Node3&#45;&gt;Node19</title>
<path fill="none" stroke="#9a32cd" stroke-dasharray="5,2" d="M310.62,-548.08C327.55,-534.37 353.34,-514.78 378,-501.2 428.67,-473.28 458.48,-494.49 499,-453.2 514.96,-436.93 501.07,-421.48 517,-405.2 525.08,-396.94 536.37,-391.44 546.98,-387.82"/>
<polygon fill="#9a32cd" stroke="#9a32cd" points="308.13,-545.6 302.63,-554.66 312.58,-551.01 308.13,-545.6"/>
<text text-anchor="middle" x="438.5" y="-504.2" font-family="Helvetica,sans-Serif" font-size="10.00"> username</text>
</g>
<!-- Node4 -->
<g id="node4" class="node">
<title>Node4</title>
<g id="a_node4"><a xlink:title=" ">
<polygon fill="none" stroke="#bfbfbf" points="17,-549.2 17,-579.2 121,-579.2 121,-549.2 17,-549.2"/>
<text text-anchor="start" x="25" y="-567.2" font-family="Helvetica,sans-Serif" font-size="10.00">std::basic_string&lt;</text>
<text text-anchor="middle" x="69" y="-556.2" font-family="Helvetica,sans-Serif" font-size="10.00"> Char &gt;</text>
</a>
</g>
</g>
<!-- Node4&#45;&gt;Node3 -->
<g id="edge3" class="edge">
<title>Node4&#45;&gt;Node3</title>
<path fill="none" stroke="midnightblue" d="M131.38,-564.2C172.53,-564.2 225.02,-564.2 257.96,-564.2"/>
<polygon fill="midnightblue" stroke="midnightblue" points="131.19,-560.7 121.19,-564.2 131.19,-567.7 131.19,-560.7"/>
</g>
<!-- Node5&#45;&gt;Node2 -->
<g id="edge4" class="edge">
<title>Node5&#45;&gt;Node2</title>
<path fill="none" stroke="#9a32cd" stroke-dasharray="5,2" d="M1160.07,-491.59C1178.35,-520.42 1217.58,-576.16 1265,-607.2 1270.85,-611.02 1277.51,-614.12 1284.23,-616.61"/>
<polygon fill="#9a32cd" stroke="#9a32cd" points="1162.94,-489.57 1154.69,-482.92 1156.99,-493.26 1162.94,-489.57"/>
<text text-anchor="middle" x="1233.5" y="-596.2" font-family="Helvetica,sans-Serif" font-size="10.00"> from</text>
</g>
<!-- Node6 -->
<g id="node6" class="node">
<title>Node6</title>
<g id="a_node6"><a xlink:href="classdpp_1_1websocket__client.html" target="_top" xlink:title="Implements a websocket client based on the SSL client.">
<polygon fill="none" stroke="black" points="796,-664.7 796,-683.7 921,-683.7 921,-664.7 796,-664.7"/>
<text text-anchor="middle" x="858.5" y="-671.7" font-family="Helvetica,sans-Serif" font-size="10.00">dpp::websocket_client</text>
</a>
</g>
</g>
<!-- Node6&#45;&gt;Node5 -->
<g id="edge5" class="edge">
<title>Node6&#45;&gt;Node5</title>
<path fill="none" stroke="midnightblue" d="M887.98,-659.45C899.41,-652.42 911.99,-643.15 921,-632.2 933.9,-616.51 923.26,-603.02 939,-590.2 987.18,-550.94 1023,-594.65 1076,-562.2 1108.7,-542.17 1132.61,-501.38 1142.28,-482.8"/>
<polygon fill="midnightblue" stroke="midnightblue" points="886.03,-656.54 879.14,-664.59 889.55,-662.59 886.03,-656.54"/>
</g>
<!-- Node7&#45;&gt;Node6 -->
<g id="edge6" class="edge">
<title>Node7&#45;&gt;Node6</title>
<path fill="none" stroke="midnightblue" d="M610.54,-779.72C667.38,-755.43 785.68,-704.88 835.07,-683.78"/>
<polygon fill="midnightblue" stroke="midnightblue" points="609.14,-776.51 601.32,-783.66 611.89,-782.95 609.14,-776.51"/>
</g>
<!-- Node8 -->
<g id="node8" class="node">
<title>Node8</title>
<g id="a_node8"><a xlink:title=" ">
<polygon fill="none" stroke="#bfbfbf" points="271.5,-988.7 271.5,-1007.7 309.5,-1007.7 309.5,-988.7 271.5,-988.7"/>
<text text-anchor="middle" x="290.5" y="-995.7" font-family="Helvetica,sans-Serif" font-size="10.00">bool</text>
</a>
</g>
</g>
<!-- Node8&#45;&gt;Node5 -->
<g id="edge16" class="edge">
<title>Node8&#45;&gt;Node5</title>
<path fill="none" stroke="#9a32cd" stroke-dasharray="5,2" d="M319.56,-1006.8C336.33,-1011.5 358.18,-1016.82 378,-1019.2 557.2,-1040.64 622.06,-1040.05 778,-949.2 857.58,-902.83 872.58,-877.55 921,-799.2 933.42,-779.1 924.04,-767.47 939,-749.2 984.09,-694.1 1030.72,-721.13 1076,-666.2 1124.37,-607.51 1141.4,-512.87 1145.76,-482.73"/>
<polygon fill="#9a32cd" stroke="#9a32cd" points="320.41,-1003.41 309.83,-1003.99 318.46,-1010.13 320.41,-1003.41"/>
<text text-anchor="middle" x="717.5" y="-1021.2" font-family="Helvetica,sans-Serif" font-size="10.00"> ready</text>
<text text-anchor="middle" x="717.5" y="-1010.2" font-family="Helvetica,sans-Serif" font-size="10.00">terminating</text>
</g>
<!-- Node8&#45;&gt;Node7 -->
<g id="edge8" class="edge">
<title>Node8&#45;&gt;Node7</title>
<path fill="none" stroke="#9a32cd" stroke-dasharray="5,2" d="M319.79,-993.69C363.92,-985.23 449.2,-962.94 499,-911.2 514.8,-894.78 505.41,-882.81 517,-863.2 531.17,-839.22 553.8,-815.5 566.84,-802.76"/>
<polygon fill="#9a32cd" stroke="#9a32cd" points="318.98,-990.28 309.76,-995.51 320.23,-997.17 318.98,-990.28"/>
<text text-anchor="middle" x="438.5" y="-1014.2" font-family="Helvetica,sans-Serif" font-size="10.00"> keepalive</text>
<text text-anchor="middle" x="438.5" y="-1003.2" font-family="Helvetica,sans-Serif" font-size="10.00">make_new</text>
<text text-anchor="middle" x="438.5" y="-992.2" font-family="Helvetica,sans-Serif" font-size="10.00">nonblocking</text>
<text text-anchor="middle" x="438.5" y="-981.2" font-family="Helvetica,sans-Serif" font-size="10.00">plaintext</text>
</g>
<!-- Node9 -->
<g id="node9" class="node">
<title>Node9</title>
<g id="a_node9"><a xlink:title=" ">
<polygon fill="none" stroke="#bfbfbf" points="276,-851.7 276,-870.7 305,-870.7 305,-851.7 276,-851.7"/>
<text text-anchor="middle" x="290.5" y="-858.7" font-family="Helvetica,sans-Serif" font-size="10.00">int</text>
</a>
</g>
</g>
<!-- Node9&#45;&gt;Node7 -->
<g id="edge9" class="edge">
<title>Node9&#45;&gt;Node7</title>
<path fill="none" stroke="#9a32cd" stroke-dasharray="5,2" d="M315.31,-860.37C354.46,-858.46 434.52,-852.23 499,-832.2 521.84,-825.1 546.2,-811.9 561.5,-802.84"/>
<polygon fill="#9a32cd" stroke="#9a32cd" points="315.02,-856.88 305.18,-860.81 315.32,-863.87 315.02,-856.88"/>
<text text-anchor="middle" x="438.5" y="-858.2" font-family="Helvetica,sans-Serif" font-size="10.00"> sfd</text>
</g>
<!-- Node10 -->
<g id="node10" class="node">
<title>Node10</title>
<g id="a_node10"><a xlink:href="classdpp_1_1openssl__connection.html" target="_top" xlink:title="This is an opaque class containing openssl library specific structures. We define it this way so that...">
<polygon fill="none" stroke="black" points="222,-813.7 222,-832.7 359,-832.7 359,-813.7 222,-813.7"/>
<text text-anchor="middle" x="290.5" y="-820.7" font-family="Helvetica,sans-Serif" font-size="10.00">dpp::openssl_connection</text>
</a>
</g>
</g>
<!-- Node10&#45;&gt;Node7 -->
<g id="edge10" class="edge">
<title>Node10&#45;&gt;Node7</title>
<path fill="none" stroke="#9a32cd" stroke-dasharray="5,2" d="M369.59,-817.65C408.54,-814.57 456.32,-810.32 499,-805.2 510.7,-803.79 523.34,-801.97 534.97,-800.18"/>
<polygon fill="#9a32cd" stroke="#9a32cd" points="369.07,-814.18 359.37,-818.45 369.61,-821.16 369.07,-814.18"/>
<text text-anchor="middle" x="438.5" y="-820.2" font-family="Helvetica,sans-Serif" font-size="10.00"> ssl</text>
</g>
<!-- Node11 -->
<g id="node11" class="node">
<title>Node11</title>
<g id="a_node11"><a xlink:title=" ">
<polygon fill="none" stroke="#bfbfbf" points="48,-813.7 48,-832.7 90,-832.7 90,-813.7 48,-813.7"/>
<text text-anchor="middle" x="69" y="-820.7" font-family="Helvetica,sans-Serif" font-size="10.00">SSL *</text>
</a>
</g>
</g>
<!-- Node11&#45;&gt;Node10 -->
<g id="edge11" class="edge">
<title>Node11&#45;&gt;Node10</title>
<path fill="none" stroke="#9a32cd" stroke-dasharray="5,2" d="M100.48,-823.2C131.66,-823.2 181.15,-823.2 221.66,-823.2"/>
<polygon fill="#9a32cd" stroke="#9a32cd" points="100.26,-819.7 90.26,-823.2 100.26,-826.7 100.26,-819.7"/>
<text text-anchor="middle" x="179.5" y="-826.2" font-family="Helvetica,sans-Serif" font-size="10.00"> ssl</text>
</g>
<!-- Node12 -->
<g id="node12" class="node">
<title>Node12</title>
<g id="a_node12"><a xlink:title=" ">
<polygon fill="none" stroke="#bfbfbf" points="266.5,-911.7 266.5,-930.7 314.5,-930.7 314.5,-911.7 266.5,-911.7"/>
<text text-anchor="middle" x="290.5" y="-918.7" font-family="Helvetica,sans-Serif" font-size="10.00">time_t</text>
</a>
</g>
</g>
<!-- Node12&#45;&gt;Node5 -->
<g id="edge39" class="edge">
<title>Node12&#45;&gt;Node5</title>
<path fill="none" stroke="#9a32cd" stroke-dasharray="5,2" d="M311.82,-937.19C325.79,-948.47 344.53,-964.19 360,-979.2 368.58,-987.52 367.08,-994.33 378,-999.2 427.13,-1021.07 447.21,-1013.69 499,-999.2 652.66,-956.2 915.96,-761.51 1076,-587.2 1107.22,-553.19 1132.62,-503.59 1142.53,-482.86"/>
<polygon fill="#9a32cd" stroke="#9a32cd" points="313.8,-934.29 303.81,-930.78 309.43,-939.76 313.8,-934.29"/>
<text text-anchor="middle" x="717.5" y="-937.2" font-family="Helvetica,sans-Serif" font-size="10.00"> last_heartbeat</text>
<text text-anchor="middle" x="717.5" y="-926.2" font-family="Helvetica,sans-Serif" font-size="10.00">last_heartbeat_ack</text>
</g>
<!-- Node12&#45;&gt;Node7 -->
<g id="edge12" class="edge">
<title>Node12&#45;&gt;Node7</title>
<path fill="none" stroke="#9a32cd" stroke-dasharray="5,2" d="M324.5,-911.07C340.57,-906.29 360.22,-900.67 378,-896.2 431.34,-882.77 450.6,-896.34 499,-870.2 530.64,-853.1 558.08,-819.28 570.27,-802.74"/>
<polygon fill="#9a32cd" stroke="#9a32cd" points="323.08,-907.84 314.51,-914.07 325.1,-914.55 323.08,-907.84"/>
<text text-anchor="middle" x="438.5" y="-899.2" font-family="Helvetica,sans-Serif" font-size="10.00"> last_tick</text>
</g>
<!-- Node12&#45;&gt;Node16 -->
<g id="edge19" class="edge">
<title>Node12&#45;&gt;Node16</title>
<path fill="none" stroke="#9a32cd" stroke-dasharray="5,2" d="M324.88,-924.19C366.78,-926.79 440.28,-927.43 499,-907.2 570.09,-882.7 587.5,-866.99 639,-812.2 722.1,-723.77 736.76,-691.32 778,-577.2 795.13,-529.78 781.55,-513.5 796,-465.2 810.94,-415.24 840.07,-359.72 852.1,-337.82"/>
<polygon fill="#9a32cd" stroke="#9a32cd" points="324.9,-920.69 314.68,-923.49 324.42,-927.67 324.9,-920.69"/>
<text text-anchor="middle" x="578" y="-902.2" font-family="Helvetica,sans-Serif" font-size="10.00"> last_identify</text>
</g>
<!-- Node13 -->
<g id="node13" class="node">
<title>Node13</title>
<g id="a_node13"><a xlink:title=" ">
<polygon fill="none" stroke="#bfbfbf" points="41,-478.7 41,-497.7 97,-497.7 97,-478.7 41,-478.7"/>
<text text-anchor="middle" x="69" y="-485.7" font-family="Helvetica,sans-Serif" font-size="10.00">uint64_t</text>
</a>
</g>
</g>
<!-- Node13&#45;&gt;Node5 -->
<g id="edge41" class="edge">
<title>Node13&#45;&gt;Node5</title>
<path fill="none" stroke="#9a32cd" stroke-dasharray="5,2" d="M107.05,-488.22C133.73,-488.23 170.59,-488.23 203,-488.2 591,-487.75 689.63,-521.72 1076,-486.2 1084.36,-485.43 1093.21,-484.17 1101.72,-482.73"/>
<polygon fill="#9a32cd" stroke="#9a32cd" points="107,-484.72 97,-488.21 107,-491.72 107,-484.72"/>
<text text-anchor="middle" x="578" y="-504.2" font-family="Helvetica,sans-Serif" font-size="10.00"> last_seq</text>
</g>
<!-- Node13&#45;&gt;Node7 -->
<g id="edge13" class="edge">
<title>Node13&#45;&gt;Node7</title>
<path fill="none" stroke="#9a32cd" stroke-dasharray="5,2" d="M90.75,-503.96C139.13,-540.22 263.94,-630.95 378,-690.2 429.34,-716.86 448.11,-710.67 499,-738.2 523.92,-751.68 550.35,-771.69 565.16,-783.49"/>
<polygon fill="#9a32cd" stroke="#9a32cd" points="92.72,-501.06 82.63,-497.85 88.51,-506.66 92.72,-501.06"/>
<text text-anchor="middle" x="290.5" y="-694.2" font-family="Helvetica,sans-Serif" font-size="10.00"> bytes_in</text>
<text text-anchor="middle" x="290.5" y="-683.2" font-family="Helvetica,sans-Serif" font-size="10.00">bytes_out</text>
</g>
<!-- Node20 -->
<g id="node20" class="node">
<title>Node20</title>
<g id="a_node20"><a xlink:href="classdpp_1_1managed.html" target="_top" xlink:title="The managed class is the base class for various types that can be stored in a cache that are identifi...">
<polygon fill="none" stroke="black" points="247.5,-454.7 247.5,-473.7 333.5,-473.7 333.5,-454.7 247.5,-454.7"/>
<text text-anchor="middle" x="290.5" y="-461.7" font-family="Helvetica,sans-Serif" font-size="10.00">dpp::managed</text>
</a>
</g>
</g>
<!-- Node13&#45;&gt;Node20 -->
<g id="edge24" class="edge">
<title>Node13&#45;&gt;Node20</title>
<path fill="none" stroke="#9a32cd" stroke-dasharray="5,2" d="M107.12,-483.2C122.26,-481.23 139.96,-479 156,-477.2 186.55,-473.76 221.08,-470.41 247.38,-467.97"/>
<polygon fill="#9a32cd" stroke="#9a32cd" points="106.55,-479.74 97.09,-484.52 107.46,-486.68 106.55,-479.74"/>
<text text-anchor="middle" x="179.5" y="-480.2" font-family="Helvetica,sans-Serif" font-size="10.00"> id</text>
</g>
<!-- Node23 -->
<g id="node23" class="node">
<title>Node23</title>
<g id="a_node23"><a xlink:href="structdpp_1_1utility_1_1iconhash.html" target="_top" xlink:title="Store a 128 bit icon hash (profile picture, server icon etc) as a 128 bit binary value made of two ui...">
<polygon fill="none" stroke="black" points="231.5,-416.7 231.5,-435.7 349.5,-435.7 349.5,-416.7 231.5,-416.7"/>
<text text-anchor="middle" x="290.5" y="-423.7" font-family="Helvetica,sans-Serif" font-size="10.00">dpp::utility::iconhash</text>
</a>
</g>
</g>
<!-- Node13&#45;&gt;Node23 -->
<g id="edge29" class="edge">
<title>Node13&#45;&gt;Node23</title>
<path fill="none" stroke="#9a32cd" stroke-dasharray="5,2" d="M95.65,-473.55C112.34,-464.64 134.87,-453.74 156,-447.2 180.09,-439.73 207.49,-434.83 231.17,-431.66"/>
<polygon fill="#9a32cd" stroke="#9a32cd" points="93.64,-470.66 86.55,-478.53 97,-476.8 93.64,-470.66"/>
<text text-anchor="middle" x="179.5" y="-461.2" font-family="Helvetica,sans-Serif" font-size="10.00"> first</text>
<text text-anchor="middle" x="179.5" y="-450.2" font-family="Helvetica,sans-Serif" font-size="10.00">second</text>
</g>
<!-- Node14 -->
<g id="node14" class="node">
<title>Node14</title>
<g id="a_node14"><a xlink:title=" ">
<polygon fill="none" stroke="#bfbfbf" points="221,-772.7 221,-791.7 360,-791.7 360,-772.7 221,-772.7"/>
<text text-anchor="middle" x="290.5" y="-779.7" font-family="Helvetica,sans-Serif" font-size="10.00">function&lt; dpp::socket()&gt;</text>
</a>
</g>
</g>
<!-- Node14&#45;&gt;Node7 -->
<g id="edge14" class="edge">
<title>Node14&#45;&gt;Node7</title>
<path fill="none" stroke="#9a32cd" stroke-dasharray="5,2" d="M370.45,-780.3C409.22,-779.95 456.6,-780.39 499,-783.2 510.72,-783.97 523.36,-785.35 534.99,-786.85"/>
<polygon fill="#9a32cd" stroke="#9a32cd" points="370.23,-776.81 360.27,-780.41 370.31,-783.8 370.23,-776.81"/>
<text text-anchor="middle" x="438.5" y="-797.2" font-family="Helvetica,sans-Serif" font-size="10.00"> custom_readable_fd</text>
<text text-anchor="middle" x="438.5" y="-786.2" font-family="Helvetica,sans-Serif" font-size="10.00">custom_writeable_fd</text>
</g>
<!-- Node15 -->
<g id="node15" class="node">
<title>Node15</title>
<g id="a_node15"><a xlink:title=" ">
<polygon fill="none" stroke="#bfbfbf" points="238.5,-734.7 238.5,-753.7 342.5,-753.7 342.5,-734.7 238.5,-734.7"/>
<text text-anchor="middle" x="290.5" y="-741.7" font-family="Helvetica,sans-Serif" font-size="10.00">function&lt; void()&gt;</text>
</a>
</g>
</g>
<!-- Node15&#45;&gt;Node7 -->
<g id="edge15" class="edge">
<title>Node15&#45;&gt;Node7</title>
<path fill="none" stroke="#9a32cd" stroke-dasharray="5,2" d="M352.71,-741.1C394.56,-740.52 450.93,-742.76 499,-755.2 522.19,-761.19 546.66,-774.4 561.88,-783.55"/>
<polygon fill="#9a32cd" stroke="#9a32cd" points="352.6,-737.6 342.67,-741.3 352.74,-744.6 352.6,-737.6"/>
<text text-anchor="middle" x="438.5" y="-769.2" font-family="Helvetica,sans-Serif" font-size="10.00"> custom_readable_ready</text>
<text text-anchor="middle" x="438.5" y="-758.2" font-family="Helvetica,sans-Serif" font-size="10.00">custom_writeable_ready</text>
</g>
<!-- Node16&#45;&gt;Node5 -->
<g id="edge17" class="edge">
<title>Node16&#45;&gt;Node5</title>
<path fill="none" stroke="#9a32cd" stroke-dasharray="5,2" d="M905.85,-318.73C952.6,-311.82 1024.97,-308.58 1076,-341.2 1121.17,-370.06 1139.62,-437.94 1145.1,-463.36"/>
<polygon fill="#9a32cd" stroke="#9a32cd" points="905.03,-315.32 895.71,-320.35 906.13,-322.23 905.03,-315.32"/>
<text text-anchor="middle" x="1007.5" y="-344.2" font-family="Helvetica,sans-Serif" font-size="10.00"> creator</text>
</g>
<!-- Node17 -->
<g id="node17" class="node">
<title>Node17</title>
<g id="a_node17"><a xlink:title=" ">
<polygon fill="none" stroke="#bfbfbf" points="262.5,-246.7 262.5,-265.7 318.5,-265.7 318.5,-246.7 262.5,-246.7"/>
<text text-anchor="middle" x="290.5" y="-253.7" font-family="Helvetica,sans-Serif" font-size="10.00">uint32_t</text>
</a>
</g>
</g>
<!-- Node17&#45;&gt;Node5 -->
<g id="edge38" class="edge">
<title>Node17&#45;&gt;Node5</title>
<path fill="none" stroke="#9a32cd" stroke-dasharray="5,2" d="M328.64,-250.87C371.79,-246.41 444.07,-244.34 499,-270.2 509.52,-275.15 506.41,-284.37 517,-289.2 569.83,-313.25 730.87,-266.3 778,-300.2 796.16,-313.26 780.02,-331.55 796,-347.2 879.04,-428.5 1018.2,-457.74 1093.95,-467.95"/>
<polygon fill="#9a32cd" stroke="#9a32cd" points="328.13,-247.41 318.59,-252.01 328.92,-254.37 328.13,-247.41"/>
<text text-anchor="middle" x="717.5" y="-358.2" font-family="Helvetica,sans-Serif" font-size="10.00"> heartbeat_interval</text>
<text text-anchor="middle" x="717.5" y="-347.2" font-family="Helvetica,sans-Serif" font-size="10.00">intents</text>
<text text-anchor="middle" x="717.5" y="-336.2" font-family="Helvetica,sans-Serif" font-size="10.00">max_shards</text>
<text text-anchor="middle" x="717.5" y="-325.2" font-family="Helvetica,sans-Serif" font-size="10.00">reconnects</text>
<text text-anchor="middle" x="717.5" y="-314.2" font-family="Helvetica,sans-Serif" font-size="10.00">resumes</text>
<text text-anchor="middle" x="717.5" y="-303.2" font-family="Helvetica,sans-Serif" font-size="10.00">shard_id</text>
</g>
<!-- Node17&#45;&gt;Node16 -->
<g id="edge20" class="edge">
<title>Node17&#45;&gt;Node16</title>
<path fill="none" stroke="#9a32cd" stroke-dasharray="5,2" d="M328.62,-248.77C392.87,-237.28 528.54,-219.12 639,-245.2 647.71,-247.25 648.58,-251.17 657,-254.2 708.94,-272.89 732.6,-250.8 778,-282.2 789.86,-290.4 784.44,-300.57 796,-309.2 803.43,-314.74 812.51,-318.69 821.39,-321.49"/>
<polygon fill="#9a32cd" stroke="#9a32cd" points="327.77,-245.36 318.57,-250.61 329.04,-252.25 327.77,-245.36"/>
<text text-anchor="middle" x="578" y="-281.2" font-family="Helvetica,sans-Serif" font-size="10.00"> cluster_id</text>
<text text-anchor="middle" x="578" y="-270.2" font-family="Helvetica,sans-Serif" font-size="10.00">intents</text>
<text text-anchor="middle" x="578" y="-259.2" font-family="Helvetica,sans-Serif" font-size="10.00">maxclusters</text>
<text text-anchor="middle" x="578" y="-248.2" font-family="Helvetica,sans-Serif" font-size="10.00">numshards</text>
</g>
<!-- Node17&#45;&gt;Node19 -->
<g id="edge30" class="edge">
<title>Node17&#45;&gt;Node19</title>
<path fill="none" stroke="#9a32cd" stroke-dasharray="5,2" d="M328.82,-261.56C384.58,-269.8 484.65,-285.51 499,-294.2 510.11,-300.91 508.55,-307.34 517,-317.2 534.05,-337.09 555.27,-359.14 567.37,-371.47"/>
<polygon fill="#9a32cd" stroke="#9a32cd" points="329.03,-258.05 318.63,-260.07 328.01,-264.98 329.03,-258.05"/>
<text text-anchor="middle" x="438.5" y="-297.2" font-family="Helvetica,sans-Serif" font-size="10.00"> flags</text>
</g>
<!-- Node18 -->
<g id="node18" class="node">
<title>Node18</title>
<g id="a_node18"><a xlink:title=" ">
<polygon fill="none" stroke="#bfbfbf" points="553,-456.7 553,-475.7 603,-475.7 603,-456.7 553,-456.7"/>
<text text-anchor="middle" x="578" y="-463.7" font-family="Helvetica,sans-Serif" font-size="10.00">double</text>
</a>
</g>
</g>
<!-- Node18&#45;&gt;Node5 -->
<g id="edge44" class="edge">
<title>Node18&#45;&gt;Node5</title>
<path fill="none" stroke="#9a32cd" stroke-dasharray="5,2" d="M613.3,-466.62C708.84,-467.8 978.58,-471.12 1093.77,-472.54"/>
<polygon fill="#9a32cd" stroke="#9a32cd" points="613.09,-463.11 603.04,-466.49 613,-470.11 613.09,-463.11"/>
<text text-anchor="middle" x="858.5" y="-474.2" font-family="Helvetica,sans-Serif" font-size="10.00"> websocket_ping</text>
</g>
<!-- Node18&#45;&gt;Node16 -->
<g id="edge21" class="edge">
<title>Node18&#45;&gt;Node16</title>
<path fill="none" stroke="#9a32cd" stroke-dasharray="5,2" d="M613.04,-460.02C669.42,-449.78 776.23,-430.26 778,-429.2 815.81,-406.33 842.69,-358.42 852.93,-337.88"/>
<polygon fill="#9a32cd" stroke="#9a32cd" points="612.35,-456.59 603.13,-461.82 613.6,-463.48 612.35,-456.59"/>
<text text-anchor="middle" x="717.5" y="-455.2" font-family="Helvetica,sans-Serif" font-size="10.00"> rest_ping</text>
</g>
<!-- Node19&#45;&gt;Node16 -->
<g id="edge22" class="edge">
<title>Node19&#45;&gt;Node16</title>
<path fill="none" stroke="#9a32cd" stroke-dasharray="5,2" d="M619.41,-383.96C660.2,-385.59 724.63,-385 778,-370.2 802.82,-363.31 828.67,-347.85 843.91,-337.73"/>
<polygon fill="#9a32cd" stroke="#9a32cd" points="619.47,-380.46 609.32,-383.49 619.14,-387.45 619.47,-380.46"/>
<text text-anchor="middle" x="717.5" y="-388.2" font-family="Helvetica,sans-Serif" font-size="10.00"> me</text>
</g>
<!-- Node20&#45;&gt;Node19 -->
<g id="edge23" class="edge">
<title>Node20&#45;&gt;Node19</title>
<path fill="none" stroke="midnightblue" d="M343.97,-459.42C396.62,-453.86 473.48,-443.46 499,-428.2 510.14,-421.53 506.62,-412.98 517,-405.2 525.79,-398.6 536.65,-393.53 546.7,-389.8"/>
<polygon fill="midnightblue" stroke="midnightblue" points="343.37,-455.96 333.78,-460.46 344.09,-462.92 343.37,-455.96"/>
</g>
<!-- Node21 -->
<g id="node21" class="node">
<title>Node21</title>
<g id="a_node21"><a xlink:href="structdpp_1_1json__interface.html" target="_top" xlink:title=" ">
<polygon fill="none" stroke="black" points="235.5,-367.2 235.5,-397.2 345.5,-397.2 345.5,-367.2 235.5,-367.2"/>
<text text-anchor="start" x="243.5" y="-385.2" font-family="Helvetica,sans-Serif" font-size="10.00">dpp::json_interface</text>
<text text-anchor="middle" x="290.5" y="-374.2" font-family="Helvetica,sans-Serif" font-size="10.00">&lt; user &gt;</text>
</a>
</g>
</g>
<!-- Node21&#45;&gt;Node19 -->
<g id="edge25" class="edge">
<title>Node21&#45;&gt;Node19</title>
<path fill="none" stroke="midnightblue" d="M355.62,-381.97C415.32,-381.76 501.7,-381.46 546.88,-381.3"/>
<polygon fill="midnightblue" stroke="midnightblue" points="355.52,-378.47 345.54,-382.01 355.55,-385.47 355.52,-378.47"/>
</g>
<!-- Node22 -->
<g id="node22" class="node">
<title>Node22</title>
<g id="a_node22"><a xlink:href="structdpp_1_1json__interface.html" target="_top" xlink:title="Represents an interface for an object that can optionally implement functions for converting to and f...">
<polygon fill="none" stroke="black" points="0,-372.7 0,-391.7 138,-391.7 138,-372.7 0,-372.7"/>
<text text-anchor="middle" x="69" y="-379.7" font-family="Helvetica,sans-Serif" font-size="10.00">dpp::json_interface&lt; T &gt;</text>
</a>
</g>
</g>
<!-- Node22&#45;&gt;Node21 -->
<g id="edge26" class="edge">
<title>Node22&#45;&gt;Node21</title>
<path fill="none" stroke="orange" stroke-dasharray="5,2" d="M148.28,-382.2C177.07,-382.2 209.01,-382.2 235.22,-382.2"/>
<polygon fill="orange" stroke="orange" points="148.25,-378.7 138.25,-382.2 148.25,-385.7 148.25,-378.7"/>
<text text-anchor="middle" x="179.5" y="-385.2" font-family="Helvetica,sans-Serif" font-size="10.00"> &lt; user &gt;</text>
</g>
<!-- Node23&#45;&gt;Node19 -->
<g id="edge28" class="edge">
<title>Node23&#45;&gt;Node19</title>
<path fill="none" stroke="#9a32cd" stroke-dasharray="5,2" d="M359.7,-415.89C400.2,-409.72 452.55,-401.65 499,-394.2 514.72,-391.67 532.21,-388.77 546.64,-386.34"/>
<polygon fill="#9a32cd" stroke="#9a32cd" points="359.03,-412.45 349.67,-417.42 360.08,-419.37 359.03,-412.45"/>
<text text-anchor="middle" x="438.5" y="-416.2" font-family="Helvetica,sans-Serif" font-size="10.00"> avatar</text>
</g>
<!-- Node24 -->
<g id="node24" class="node">
<title>Node24</title>
<g id="a_node24"><a xlink:title=" ">
<polygon fill="none" stroke="#bfbfbf" points="262.5,-328.7 262.5,-347.7 318.5,-347.7 318.5,-328.7 262.5,-328.7"/>
<text text-anchor="middle" x="290.5" y="-335.7" font-family="Helvetica,sans-Serif" font-size="10.00">uint16_t</text>
</a>
</g>
</g>
<!-- Node24&#45;&gt;Node19 -->
<g id="edge31" class="edge">
<title>Node24&#45;&gt;Node19</title>
<path fill="none" stroke="#9a32cd" stroke-dasharray="5,2" d="M328.69,-342.95C370.27,-348.37 439.56,-357.71 499,-367.2 514.76,-369.71 532.25,-372.82 546.67,-375.47"/>
<polygon fill="#9a32cd" stroke="#9a32cd" points="329.11,-339.48 318.74,-341.66 328.21,-346.42 329.11,-339.48"/>
<text text-anchor="middle" x="438.5" y="-370.2" font-family="Helvetica,sans-Serif" font-size="10.00"> discriminator</text>
</g>
<!-- Node25 -->
<g id="node25" class="node">
<title>Node25</title>
<g id="a_node25"><a xlink:title=" ">
<polygon fill="none" stroke="#bfbfbf" points="265.5,-290.7 265.5,-309.7 315.5,-309.7 315.5,-290.7 265.5,-290.7"/>
<text text-anchor="middle" x="290.5" y="-297.7" font-family="Helvetica,sans-Serif" font-size="10.00">uint8_t</text>
</a>
</g>
</g>
<!-- Node25&#45;&gt;Node19 -->
<g id="edge32" class="edge">
<title>Node25&#45;&gt;Node19</title>
<path fill="none" stroke="#9a32cd" stroke-dasharray="5,2" d="M325.79,-302.14C367.75,-305.39 440.44,-313.82 499,-335.2 523.66,-344.2 549.34,-361.03 564.22,-371.65"/>
<polygon fill="#9a32cd" stroke="#9a32cd" points="325.78,-298.64 315.56,-301.41 325.28,-305.62 325.78,-298.64"/>
<text text-anchor="middle" x="438.5" y="-338.2" font-family="Helvetica,sans-Serif" font-size="10.00"> refcount</text>
</g>
<!-- Node26 -->
<g id="node26" class="node">
<title>Node26</title>
<g id="a_node26"><a xlink:href="structdpp_1_1cache__policy__t.html" target="_top" xlink:title="Represents the caching policy of the cluster.">
<polygon fill="none" stroke="black" points="521.5,-50.7 521.5,-69.7 634.5,-69.7 634.5,-50.7 521.5,-50.7"/>
<text text-anchor="middle" x="578" y="-57.7" font-family="Helvetica,sans-Serif" font-size="10.00">dpp::cache_policy_t</text>
</a>
</g>
</g>
<!-- Node26&#45;&gt;Node16 -->
<g id="edge33" class="edge">
<title>Node26&#45;&gt;Node16</title>
<path fill="none" stroke="#9a32cd" stroke-dasharray="5,2" d="M644.78,-53.82C695.32,-50.52 759.51,-50.33 778,-68.2 816.62,-105.51 762.53,-267.2 796,-309.2 802.27,-317.06 811.73,-321.74 821.37,-324.51"/>
<polygon fill="#9a32cd" stroke="#9a32cd" points="644.27,-50.35 634.55,-54.54 644.77,-57.33 644.27,-50.35"/>
<text text-anchor="middle" x="717.5" y="-71.2" font-family="Helvetica,sans-Serif" font-size="10.00"> cache_policy</text>
</g>
<!-- Node27 -->
<g id="node27" class="node">
<title>Node27</title>
<g id="a_node27"><a xlink:title=" ">
<polygon fill="none" stroke="#bfbfbf" points="226.5,-50.7 226.5,-69.7 354.5,-69.7 354.5,-50.7 226.5,-50.7"/>
<text text-anchor="middle" x="290.5" y="-57.7" font-family="Helvetica,sans-Serif" font-size="10.00">cache_policy_setting_t</text>
</a>
</g>
</g>
<!-- Node27&#45;&gt;Node26 -->
<g id="edge34" class="edge">
<title>Node27&#45;&gt;Node26</title>
<path fill="none" stroke="#9a32cd" stroke-dasharray="5,2" d="M364.69,-60.2C413.51,-60.2 476.69,-60.2 521.39,-60.2"/>
<polygon fill="#9a32cd" stroke="#9a32cd" points="364.51,-56.7 354.51,-60.2 364.51,-63.7 364.51,-56.7"/>
<text text-anchor="middle" x="438.5" y="-85.2" font-family="Helvetica,sans-Serif" font-size="10.00"> emoji_policy</text>
<text text-anchor="middle" x="438.5" y="-74.2" font-family="Helvetica,sans-Serif" font-size="10.00">role_policy</text>
<text text-anchor="middle" x="438.5" y="-63.2" font-family="Helvetica,sans-Serif" font-size="10.00">user_policy</text>
</g>
<!-- Node28 -->
<g id="node28" class="node">
<title>Node28</title>
<g id="a_node28"><a xlink:title=" ">
<polygon fill="none" stroke="#bfbfbf" points="517,-0.7 517,-19.7 639,-19.7 639,-0.7 517,-0.7"/>
<text text-anchor="middle" x="578" y="-7.7" font-family="Helvetica,sans-Serif" font-size="10.00">websocket_protocol_t</text>
</a>
</g>
</g>
<!-- Node28&#45;&gt;Node5 -->
<g id="edge45" class="edge">
<title>Node28&#45;&gt;Node5</title>
<path fill="none" stroke="#9a32cd" stroke-dasharray="5,2" d="M649.43,-1.72C688.06,0.75 736.41,0.23 778,-11.2 926.11,-51.87 984.13,-63.11 1076,-186.2 1143.85,-277.1 1147.47,-424.94 1147.19,-463.67"/>
<polygon fill="#9a32cd" stroke="#9a32cd" points="649.04,1.76 639.32,-2.45 649.54,-5.22 649.04,1.76"/>
<text text-anchor="middle" x="858.5" y="-58.2" font-family="Helvetica,sans-Serif" font-size="10.00"> protocol</text>
</g>
<!-- Node28&#45;&gt;Node16 -->
<g id="edge35" class="edge">
<title>Node28&#45;&gt;Node16</title>
<path fill="none" stroke="#9a32cd" stroke-dasharray="5,2" d="M649.3,-10.61C699.39,-12.53 760.78,-18.75 778,-37.2 819.34,-81.48 758.45,-261.66 796,-309.2 802.23,-317.09 811.69,-321.78 821.32,-324.54"/>
<polygon fill="#9a32cd" stroke="#9a32cd" points="649.24,-7.1 639.12,-10.27 649,-14.1 649.24,-7.1"/>
<text text-anchor="middle" x="717.5" y="-40.2" font-family="Helvetica,sans-Serif" font-size="10.00"> ws_mode</text>
</g>
<!-- Node29 -->
<g id="node29" class="node">
<title>Node29</title>
<g id="a_node29"><a xlink:title=" ">
<polygon fill="none" stroke="#bfbfbf" points="524.5,-175.7 524.5,-194.7 631.5,-194.7 631.5,-175.7 524.5,-175.7"/>
<text text-anchor="middle" x="578" y="-182.7" font-family="Helvetica,sans-Serif" font-size="10.00">condition_variable</text>
</a>
</g>
</g>
<!-- Node29&#45;&gt;Node16 -->
<g id="edge36" class="edge">
<title>Node29&#45;&gt;Node16</title>
<path fill="none" stroke="#9a32cd" stroke-dasharray="5,2" d="M615.17,-198.52C623.13,-201.77 631.44,-205.41 639,-209.2 647.38,-213.4 648.25,-216.82 657,-220.2 708.07,-239.9 737.81,-206.03 778,-243.2 800.33,-263.84 774.86,-287.34 796,-309.2 802.76,-316.18 812.03,-320.62 821.32,-323.42"/>
<polygon fill="#9a32cd" stroke="#9a32cd" points="616.29,-195.2 605.71,-194.77 613.71,-201.71 616.29,-195.2"/>
<text text-anchor="middle" x="717.5" y="-246.2" font-family="Helvetica,sans-Serif" font-size="10.00"> terminating</text>
</g>
<!-- Node30 -->
<g id="node30" class="node">
<title>Node30</title>
<g id="a_node30"><a xlink:title=" ">
<polygon fill="none" stroke="#bfbfbf" points="530,-88.7 530,-107.7 626,-107.7 626,-88.7 530,-88.7"/>
<text text-anchor="middle" x="578" y="-95.7" font-family="Helvetica,sans-Serif" font-size="10.00">event_router_t&lt;</text>
</a>
</g>
</g>
<!-- Node30&#45;&gt;Node16 -->
<g id="edge37" class="edge">
<title>Node30&#45;&gt;Node16</title>
<path fill="none" stroke="#9a32cd" stroke-dasharray="5,2" d="M636.28,-88.96C687.68,-82.13 758.03,-76.83 778,-95.2 813.13,-127.5 766.08,-272.01 796,-309.2 802.3,-317.03 811.78,-321.71 821.41,-324.47"/>
<polygon fill="#9a32cd" stroke="#9a32cd" points="635.69,-85.51 626.27,-90.35 636.65,-92.44 635.69,-85.51"/>
<text text-anchor="middle" x="717.5" y="-208.2" font-family="Helvetica,sans-Serif" font-size="10.00"> on_autocomplete</text>
<text text-anchor="middle" x="717.5" y="-197.2" font-family="Helvetica,sans-Serif" font-size="10.00">on_button_click</text>
<text text-anchor="middle" x="717.5" y="-186.2" font-family="Helvetica,sans-Serif" font-size="10.00">on_channel_create</text>
<text text-anchor="middle" x="717.5" y="-175.2" font-family="Helvetica,sans-Serif" font-size="10.00">on_channel_delete</text>
<text text-anchor="middle" x="717.5" y="-164.2" font-family="Helvetica,sans-Serif" font-size="10.00">on_channel_pins_update</text>
<text text-anchor="middle" x="717.5" y="-153.2" font-family="Helvetica,sans-Serif" font-size="10.00">on_channel_update</text>
<text text-anchor="middle" x="717.5" y="-142.2" font-family="Helvetica,sans-Serif" font-size="10.00">on_form_submit</text>
<text text-anchor="middle" x="717.5" y="-131.2" font-family="Helvetica,sans-Serif" font-size="10.00">on_guild_ban_add</text>
<text text-anchor="middle" x="717.5" y="-120.2" font-family="Helvetica,sans-Serif" font-size="10.00">on_guild_ban_remove</text>
<text text-anchor="middle" x="717.5" y="-109.2" font-family="Helvetica,sans-Serif" font-size="10.00">on_guild_create</text>
<text text-anchor="middle" x="717.5" y="-98.2" font-family="Helvetica,sans-Serif" font-size="10.00">...</text>
</g>
<!-- Node31 -->
<g id="node31" class="node">
<title>Node31</title>
<g id="a_node31"><a xlink:title=" ">
<polygon fill="none" stroke="#bfbfbf" points="802,-280.7 802,-299.7 915,-299.7 915,-280.7 802,-280.7"/>
<text text-anchor="middle" x="858.5" y="-287.7" font-family="Helvetica,sans-Serif" font-size="10.00">native_handle_type</text>
</a>
</g>
</g>
<!-- Node31&#45;&gt;Node5 -->
<g id="edge40" class="edge">
<title>Node31&#45;&gt;Node5</title>
<path fill="none" stroke="#9a32cd" stroke-dasharray="5,2" d="M906.19,-278.64C953.43,-269.8 1026.39,-264.34 1076,-299.2 1132.86,-339.15 1144.25,-433.07 1146.48,-463.5"/>
<polygon fill="#9a32cd" stroke="#9a32cd" points="905.35,-275.24 896.22,-280.62 906.71,-282.1 905.35,-275.24"/>
<text text-anchor="middle" x="1007.5" y="-302.2" font-family="Helvetica,sans-Serif" font-size="10.00"> thread_id</text>
</g>
<!-- Node32 -->
<g id="node32" class="node">
<title>Node32</title>
<g id="a_node32"><a xlink:title=" ">
<polygon fill="none" stroke="#bfbfbf" points="824,-242.7 824,-261.7 893,-261.7 893,-242.7 824,-242.7"/>
<text text-anchor="middle" x="858.5" y="-249.7" font-family="Helvetica,sans-Serif" font-size="10.00">std::mutex</text>
</a>
</g>
</g>
<!-- Node32&#45;&gt;Node5 -->
<g id="edge43" class="edge">
<title>Node32&#45;&gt;Node5</title>
<path fill="none" stroke="#9a32cd" stroke-dasharray="5,2" d="M900.54,-240.25C947.73,-229.19 1025.22,-219.53 1076,-257.2 1144.8,-308.22 1147.98,-427.94 1147.35,-463.24"/>
<polygon fill="#9a32cd" stroke="#9a32cd" points="899.53,-236.9 890.66,-242.69 901.21,-243.69 899.53,-236.9"/>
<text text-anchor="middle" x="1007.5" y="-260.2" font-family="Helvetica,sans-Serif" font-size="10.00"> voice_mutex</text>
</g>
<!-- Node33 -->
<g id="node33" class="node">
<title>Node33</title>
<g id="a_node33"><a xlink:title=" ">
<polygon fill="none" stroke="#bfbfbf" points="808,-204.7 808,-223.7 909,-223.7 909,-204.7 808,-204.7"/>
<text text-anchor="middle" x="858.5" y="-211.7" font-family="Helvetica,sans-Serif" font-size="10.00">unordered_map&lt;</text>
</a>
</g>
</g>
<!-- Node33&#45;&gt;Node5 -->
<g id="edge46" class="edge">
<title>Node33&#45;&gt;Node5</title>
<path fill="none" stroke="#9a32cd" stroke-dasharray="5,2" d="M897.67,-201.95C944.73,-189.42 1024.77,-176.82 1076,-216.2 1117.11,-247.79 1140.64,-420.86 1145.88,-463.63"/>
<polygon fill="#9a32cd" stroke="#9a32cd" points="896.55,-198.63 887.86,-204.69 898.44,-205.37 896.55,-198.63"/>
<text text-anchor="middle" x="1007.5" y="-219.2" font-family="Helvetica,sans-Serif" font-size="10.00"> connecting_voice_channels</text>
</g>
<!-- Node34 -->
<g id="node34" class="node">
<title>Node34</title>
<g id="a_node34"><a xlink:title=" ">
<polygon fill="none" stroke="#bfbfbf" points="1299,-578.7 1299,-597.7 1355,-597.7 1355,-578.7 1299,-578.7"/>
<text text-anchor="middle" x="1327" y="-585.7" font-family="Helvetica,sans-Serif" font-size="10.00">loglevel</text>
</a>
</g>
</g>
<!-- Node34&#45;&gt;Node1 -->
<g id="edge47" class="edge">
<title>Node34&#45;&gt;Node1</title>
<path fill="none" stroke="#9a32cd" stroke-dasharray="5,2" d="M1365.19,-594.13C1389.48,-598.28 1421.79,-604.28 1450,-611.2 1456.45,-612.78 1463.31,-614.7 1469.8,-616.63"/>
<polygon fill="#9a32cd" stroke="#9a32cd" points="1365.76,-590.68 1355.32,-592.48 1364.6,-597.58 1365.76,-590.68"/>
<text text-anchor="middle" x="1428.5" y="-614.2" font-family="Helvetica,sans-Serif" font-size="10.00"> severity</text>
</g>
</g>
</svg>
        <g id="navigator" transform="translate(0 0)" fill="#404254">
                <rect fill="#f2f5e9" fill-opacity="0.5" stroke="#606060" stroke-width=".5" x="0" y="0" width="60" height="60"/>
                <use id="zoomplus" xlink:href="#zoomPlus" x="17" y="9" onmousedown="handleZoom(evt,'in')"/>
                <use id="zoomminus" xlink:href="#zoomMin" x="42" y="9" onmousedown="handleZoom(evt,'out')"/>
                <use id="reset" xlink:href="#resetDef" x="30" y="36" onmousedown="handleReset()"/>
                <g id="arrowUp" xlink:href="#dirArrow" transform="translate(30 24)" onmousedown="handlePan(0,-1)">
                  <use xlink:href="#rim" fill="#404040">
                        <set attributeName="fill" to="#808080" begin="arrowUp.mouseover" end="arrowUp.mouseout"/>
                  </use>
                  <path fill="none" stroke="white" stroke-width="1.5" d="M0,-3.0v7 M-2.5,-0.5L0,-3.0L2.5,-0.5"/>
                </g>
                <g id="arrowRight" xlink:href="#dirArrow" transform="rotate(90) translate(36 -43)" onmousedown="handlePan(1,0)">
                  <use xlink:href="#rim" fill="#404040">
                        <set attributeName="fill" to="#808080" begin="arrowRight.mouseover" end="arrowRight.mouseout"/>
                  </use>
                  <path fill="none" stroke="white" stroke-width="1.5" d="M0,-3.0v7 M-2.5,-0.5L0,-3.0L2.5,-0.5"/>
                </g>
                <g id="arrowDown" xlink:href="#dirArrow" transform="rotate(180) translate(-30 -48)" onmousedown="handlePan(0,1)">
                  <use xlink:href="#rim" fill="#404040">
                        <set attributeName="fill" to="#808080" begin="arrowDown.mouseover" end="arrowDown.mouseout"/>
                  </use>
                  <path fill="none" stroke="white" stroke-width="1.5" d="M0,-3.0v7 M-2.5,-0.5L0,-3.0L2.5,-0.5"/>
                </g>
                <g id="arrowLeft" xlink:href="#dirArrow" transform="rotate(270) translate(-36 17)" onmousedown="handlePan(-1,0)">
                  <use xlink:href="#rim" fill="#404040">
                        <set attributeName="fill" to="#808080" begin="arrowLeft.mouseover" end="arrowLeft.mouseout"/>
                  </use>
                  <path fill="none" stroke="white" stroke-width="1.5" d="M0,-3.0v7 M-2.5,-0.5L0,-3.0L2.5,-0.5"/>
                </g>
        </g>
        <svg viewBox="0 0 15 15" width="100%" height="30px" preserveAspectRatio="xMaxYMin meet">
         <g id="arrow_out" transform="scale(0.3 0.3)">
          <a xlink:href="structdpp_1_1log__t__coll__graph_org.svg" target="_base">
           <rect id="button" ry="5" rx="5" y="6" x="6" height="38" width="38"
                fill="#f2f5e9" fill-opacity="0.5" stroke="#606060" stroke-width="1.0"/>
           <path id="arrow"
             d="M 11.500037,31.436501 C 11.940474,20.09759 22.043105,11.32322 32.158766,21.979434 L 37.068811,17.246167 C 37.068811,17.246167 37.088388,32 37.088388,32 L 22.160133,31.978069 C 22.160133,31.978069 26.997745,27.140456 26.997745,27.140456 C 18.528582,18.264221 13.291696,25.230495 11.500037,31.436501 z"
             style="fill:#404040;"/>
          </a>
         </g>
        </svg>
</svg>
