<?xml version="1.0" encoding="UTF-8" standalone="no"?>
<!DOCTYPE svg PUBLIC "-//W3C//DTD SVG 1.1//EN"
 "http://www.w3.org/Graphics/SVG/1.1/DTD/svg11.dtd">
<!-- Generated by graphviz version 2.38.0 (20140413.2041)
 -->
<!-- Title: dpp::interaction_response Pages: 1 -->
<!--zoomable 432 -->
<svg id="main" version="1.1" xmlns="http://www.w3.org/2000/svg" xmlns:xlink="http://www.w3.org/1999/xlink" xml:space="preserve" onload="init(evt)">
<style type="text/css"><![CDATA[
.edge:hover path { stroke: red; }
.edge:hover polygon { stroke: red; fill: red; }
]]></style>
<script type="text/javascript"><![CDATA[
var edges = document.getElementsByTagName('g');
if (edges && edges.length) {
  for (var i=0;i<edges.length;i++) {
    if (edges[i].id.substr(0,4)=='edge') {
      edges[i].setAttribute('class','edge');
    }
  }
}
]]></script>
        <defs>
                <circle id="rim" cx="0" cy="0" r="7"/>
                <circle id="rim2" cx="0" cy="0" r="3.5"/>
                <g id="zoomPlus">
                        <use xlink:href="#rim" fill="#404040">
                                <set attributeName="fill" to="#808080" begin="zoomplus.mouseover" end="zoomplus.mouseout"/>
                        </use>
                        <path d="M-4,0h8M0,-4v8" fill="none" stroke="white" stroke-width="1.5" pointer-events="none"/>
                </g>
                <g id="zoomMin">
                        <use xlink:href="#rim" fill="#404040">
                                <set attributeName="fill" to="#808080" begin="zoomminus.mouseover" end="zoomminus.mouseout"/>
                        </use>
                        <path d="M-4,0h8" fill="none" stroke="white" stroke-width="1.5" pointer-events="none"/>
                </g>
                <g id="dirArrow">
                        <path fill="none" stroke="white" stroke-width="1.5" d="M0,-3.0v7 M-2.5,-0.5L0,-3.0L2.5,-0.5"/>
                </g>
               <g id="resetDef">
                       <use xlink:href="#rim2" fill="#404040">
                               <set attributeName="fill" to="#808080" begin="reset.mouseover" end="reset.mouseout"/>
                       </use>
               </g>
        </defs>

<script type="text/javascript">
var viewWidth = 958;
var viewHeight = 432;
var sectionId = 'dynsection-0';
</script>
<script xlink:href="svgpan.js"/>
<svg id="graph" class="graph">
<g id="viewport">
<title>dpp::interaction_response</title>
<polygon fill="white" stroke="none" points="-4,4 -4,-428 954.403,-428 954.403,4 -4,4"/>
<!-- Node1 -->
<g id="node1" class="node"><title>Node1</title>
<g id="a_node1"><a xlink:title="A response to an interaction, used to reply to a command and initiate a message, which can be hidden ...">
<polygon fill="#bfbfbf" stroke="black" points="363.403,-0.5 363.403,-19.5 491.403,-19.5 491.403,-0.5 363.403,-0.5"/>
<text text-anchor="middle" x="427.403" y="-7.5" font-family="Helvetica,sans-Serif" font-size="10.00">dpp::interaction_response</text>
</a>
</g>
</g>
<!-- Node2 -->
<g id="node2" class="node"><title>Node2</title>
<g id="a_node2"><a xlink:title=" ">
<polygon fill="white" stroke="#bfbfbf" points="319.903,-67.5 319.903,-86.5 450.903,-86.5 450.903,-67.5 319.903,-67.5"/>
<text text-anchor="middle" x="385.403" y="-74.5" font-family="Helvetica,sans-Serif" font-size="10.00">interaction_response_type</text>
</a>
</g>
</g>
<!-- Node2&#45;&gt;Node1 -->
<g id="edge1" class="edge"><title>Node2&#45;&gt;Node1</title>
<path fill="none" stroke="#9a32cd" stroke-dasharray="5,2" d="M396.688,-58.5347C404.82,-45.9499 415.444,-29.5072 421.828,-19.6273"/>
<polygon fill="#9a32cd" stroke="#9a32cd" points="393.555,-56.9351 391.067,-67.2338 399.434,-60.7341 393.555,-56.9351"/>
<text text-anchor="middle" x="420.403" y="-41" font-family="Helvetica,sans-Serif" font-size="10.00"> type</text>
</g>
<!-- Node3 -->
<g id="node3" class="node"><title>Node3</title>
<g id="a_node3"><a xlink:href="a01813.html" target="_top" xlink:title="Represents messages sent and received on Discord.">
<polygon fill="white" stroke="black" points="469.403,-67.5 469.403,-86.5 547.403,-86.5 547.403,-67.5 469.403,-67.5"/>
<text text-anchor="middle" x="508.403" y="-74.5" font-family="Helvetica,sans-Serif" font-size="10.00">dpp::message</text>
</a>
</g>
</g>
<!-- Node3&#45;&gt;Node1 -->
<g id="edge2" class="edge"><title>Node3&#45;&gt;Node1</title>
<path fill="none" stroke="#9a32cd" stroke-dasharray="5,2" d="M489.353,-60.7134C473.395,-47.907 451.19,-30.0884 438.154,-19.6273"/>
<polygon fill="#9a32cd" stroke="#9a32cd" points="487.489,-63.7048 497.479,-67.2338 491.87,-58.2453 487.489,-63.7048"/>
<text text-anchor="middle" x="484.403" y="-41" font-family="Helvetica,sans-Serif" font-size="10.00"> msg</text>
</g>
<!-- Node4 -->
<g id="node4" class="node"><title>Node4</title>
<g id="a_node4"><a xlink:title=" ">
<polygon fill="white" stroke="#bfbfbf" points="252.903,-399 252.903,-418 303.903,-418 303.903,-399 252.903,-399"/>
<text text-anchor="middle" x="278.403" y="-406" font-family="Helvetica,sans-Serif" font-size="10.00">uint64_t</text>
</a>
</g>
</g>
<!-- Node4&#45;&gt;Node3 -->
<g id="edge3" class="edge"><title>Node4&#45;&gt;Node3</title>
<path fill="none" stroke="#9a32cd" stroke-dasharray="5,2" d="M242.606,-408.162C187.132,-407.133 80.7308,-396.607 22.4029,-335 -3.41144,-307.735 -6.50775,-282.833 13.4029,-251 92.0359,-125.281 171.217,-147.089 313.403,-105 376.094,-86.4425 394.778,-96.9098 459.403,-87 462.652,-86.5018 466.016,-85.9532 469.389,-85.3802"/>
<polygon fill="#9a32cd" stroke="#9a32cd" points="242.639,-411.662 252.67,-408.254 242.703,-404.663 242.639,-411.662"/>
<text text-anchor="middle" x="39.4029" y="-287" font-family="Helvetica,sans-Serif" font-size="10.00"> channel_id</text>
<text text-anchor="middle" x="39.4029" y="-276" font-family="Helvetica,sans-Serif" font-size="10.00">guild_id</text>
<text text-anchor="middle" x="39.4029" y="-265" font-family="Helvetica,sans-Serif" font-size="10.00">id</text>
<text text-anchor="middle" x="39.4029" y="-254" font-family="Helvetica,sans-Serif" font-size="10.00">webhook_id</text>
</g>
<!-- Node6 -->
<g id="node6" class="node"><title>Node6</title>
<g id="a_node6"><a xlink:href="a01305.html" target="_top" xlink:title="The managed class is the base class for various types that can be stored in a cache that are identifi...">
<polygon fill="white" stroke="black" points="295.403,-314.5 295.403,-333.5 373.403,-333.5 373.403,-314.5 295.403,-314.5"/>
<text text-anchor="middle" x="334.403" y="-321.5" font-family="Helvetica,sans-Serif" font-size="10.00">dpp::managed</text>
</a>
</g>
</g>
<!-- Node4&#45;&gt;Node6 -->
<g id="edge6" class="edge"><title>Node4&#45;&gt;Node6</title>
<path fill="none" stroke="#9a32cd" stroke-dasharray="5,2" d="M290.012,-390.397C301.771,-373.074 319.481,-346.983 328.568,-333.595"/>
<polygon fill="#9a32cd" stroke="#9a32cd" points="286.905,-388.742 284.185,-398.982 292.697,-392.674 286.905,-388.742"/>
<text text-anchor="middle" x="320.903" y="-361.5" font-family="Helvetica,sans-Serif" font-size="10.00"> id</text>
</g>
<!-- Node10 -->
<g id="node10" class="node"><title>Node10</title>
<g id="a_node10"><a xlink:href="a01309.html" target="_top" xlink:title="Store a 128 bit icon hash (profile picture, server icon etc) as a 128 bit binary value made of two ui...">
<polygon fill="white" stroke="black" points="169.903,-314.5 169.903,-333.5 276.903,-333.5 276.903,-314.5 169.903,-314.5"/>
<text text-anchor="middle" x="223.403" y="-321.5" font-family="Helvetica,sans-Serif" font-size="10.00">dpp::utility::iconhash</text>
</a>
</g>
</g>
<!-- Node4&#45;&gt;Node10 -->
<g id="edge11" class="edge"><title>Node4&#45;&gt;Node10</title>
<path fill="none" stroke="#9a32cd" stroke-dasharray="5,2" d="M267.001,-390.397C255.452,-373.074 238.058,-346.983 229.133,-333.595"/>
<polygon fill="#9a32cd" stroke="#9a32cd" points="264.265,-392.603 272.724,-398.982 270.089,-388.72 264.265,-392.603"/>
<text text-anchor="middle" x="272.403" y="-367" font-family="Helvetica,sans-Serif" font-size="10.00"> first</text>
<text text-anchor="middle" x="272.403" y="-356" font-family="Helvetica,sans-Serif" font-size="10.00">second</text>
</g>
<!-- Node13 -->
<g id="node13" class="node"><title>Node13</title>
<g id="a_node13"><a xlink:href="a01757.html" target="_top" xlink:title="Represents dpp::user membership upon a dpp::guild.">
<polygon fill="white" stroke="black" points="535.903,-185 535.903,-204 634.903,-204 634.903,-185 535.903,-185"/>
<text text-anchor="middle" x="585.403" y="-192" font-family="Helvetica,sans-Serif" font-size="10.00">dpp::guild_member</text>
</a>
</g>
</g>
<!-- Node4&#45;&gt;Node13 -->
<g id="edge16" class="edge"><title>Node4&#45;&gt;Node13</title>
<path fill="none" stroke="#9a32cd" stroke-dasharray="5,2" d="M313.947,-402.316C363.666,-393.928 455.602,-374.204 524.403,-335 547.081,-322.078 554.883,-317.903 567.403,-295 583.99,-264.655 585.708,-222.091 585.618,-204.084"/>
<polygon fill="#9a32cd" stroke="#9a32cd" points="313.308,-398.874 304.001,-403.937 314.434,-405.783 313.308,-398.874"/>
<text text-anchor="middle" x="573.903" y="-327" font-family="Helvetica,sans-Serif" font-size="10.00"> guild_id</text>
<text text-anchor="middle" x="573.903" y="-316" font-family="Helvetica,sans-Serif" font-size="10.00">user_id</text>
</g>
<!-- Node5 -->
<g id="node5" class="node"><title>Node5</title>
<g id="a_node5"><a xlink:href="a02457.html" target="_top" xlink:title="Represents a user on discord. May or may not be a member of a dpp::guild.">
<polygon fill="white" stroke="black" points="227.903,-185 227.903,-204 284.903,-204 284.903,-185 227.903,-185"/>
<text text-anchor="middle" x="256.403" y="-192" font-family="Helvetica,sans-Serif" font-size="10.00">dpp::user</text>
</a>
</g>
</g>
<!-- Node5&#45;&gt;Node3 -->
<g id="edge4" class="edge"><title>Node5&#45;&gt;Node3</title>
<path fill="none" stroke="#9a32cd" stroke-dasharray="5,2" d="M271.234,-177.27C290.758,-156.979 327.116,-122.759 365.403,-105 366.603,-104.444 427.451,-93.0564 469.379,-85.2498"/>
<polygon fill="#9a32cd" stroke="#9a32cd" points="268.467,-175.103 264.162,-184.784 273.564,-179.901 268.467,-175.103"/>
<text text-anchor="middle" x="380.903" y="-119" font-family="Helvetica,sans-Serif" font-size="10.00"> author</text>
</g>
<!-- Node6&#45;&gt;Node5 -->
<g id="edge5" class="edge"><title>Node6&#45;&gt;Node5</title>
<path fill="none" stroke="midnightblue" d="M288.997,-310.178C281.857,-306.34 275.248,-301.386 270.403,-295 249.525,-267.484 252.568,-223.01 255.018,-204.271"/>
<polygon fill="midnightblue" stroke="midnightblue" points="287.687,-313.428 298.231,-314.464 290.634,-307.079 287.687,-313.428"/>
</g>
<!-- Node7 -->
<g id="node7" class="node"><title>Node7</title>
<g id="a_node7"><a xlink:title=" ">
<polygon fill="white" stroke="#bfbfbf" points="455.403,-314.5 455.403,-333.5 515.403,-333.5 515.403,-314.5 455.403,-314.5"/>
<text text-anchor="middle" x="485.403" y="-321.5" font-family="Helvetica,sans-Serif" font-size="10.00">std::string</text>
</a>
</g>
</g>
<!-- Node7&#45;&gt;Node3 -->
<g id="edge20" class="edge"><title>Node7&#45;&gt;Node3</title>
<path fill="none" stroke="#9a32cd" stroke-dasharray="5,2" d="M462.961,-307.885C459.082,-304.161 455.596,-299.834 453.403,-295 445.322,-277.192 450.704,-270.368 453.403,-251 462.494,-185.762 493.399,-111.738 504.441,-86.7557"/>
<polygon fill="#9a32cd" stroke="#9a32cd" points="460.738,-310.588 470.67,-314.278 465.206,-305.2 460.738,-310.588"/>
<text text-anchor="middle" x="500.403" y="-208.5" font-family="Helvetica,sans-Serif" font-size="10.00"> content</text>
<text text-anchor="middle" x="500.403" y="-197.5" font-family="Helvetica,sans-Serif" font-size="10.00">filecontent</text>
<text text-anchor="middle" x="500.403" y="-186.5" font-family="Helvetica,sans-Serif" font-size="10.00">filename</text>
<text text-anchor="middle" x="500.403" y="-175.5" font-family="Helvetica,sans-Serif" font-size="10.00">nonce</text>
</g>
<!-- Node7&#45;&gt;Node5 -->
<g id="edge7" class="edge"><title>Node7&#45;&gt;Node5</title>
<path fill="none" stroke="#9a32cd" stroke-dasharray="5,2" d="M445.697,-312.734C416.257,-305.088 380.959,-295.83 379.403,-295 353.284,-281.07 352.311,-269.748 329.403,-251 308.335,-233.758 282.841,-214.787 268.234,-204.09"/>
<polygon fill="#9a32cd" stroke="#9a32cd" points="444.841,-316.128 455.4,-315.251 446.599,-309.352 444.841,-316.128"/>
<text text-anchor="middle" x="402.403" y="-270.5" font-family="Helvetica,sans-Serif" font-size="10.00"> username</text>
</g>
<!-- Node7&#45;&gt;Node13 -->
<g id="edge15" class="edge"><title>Node7&#45;&gt;Node13</title>
<path fill="none" stroke="#9a32cd" stroke-dasharray="5,2" d="M493.861,-305.184C503.32,-285.41 517.791,-255.654 521.403,-251 536.372,-231.714 558.838,-214.103 572.785,-204.104"/>
<polygon fill="#9a32cd" stroke="#9a32cd" points="490.598,-303.896 489.456,-314.429 496.918,-306.907 490.598,-303.896"/>
<text text-anchor="middle" x="544.403" y="-270.5" font-family="Helvetica,sans-Serif" font-size="10.00"> nickname</text>
</g>
<!-- Node8 -->
<g id="node8" class="node"><title>Node8</title>
<g id="a_node8"><a xlink:title=" ">
<polygon fill="white" stroke="#bfbfbf" points="437.903,-393.5 437.903,-423.5 532.903,-423.5 532.903,-393.5 437.903,-393.5"/>
<text text-anchor="start" x="445.903" y="-411.5" font-family="Helvetica,sans-Serif" font-size="10.00">std::basic_string&lt;</text>
<text text-anchor="middle" x="485.403" y="-400.5" font-family="Helvetica,sans-Serif" font-size="10.00"> Char &gt;</text>
</a>
</g>
</g>
<!-- Node8&#45;&gt;Node7 -->
<g id="edge8" class="edge"><title>Node8&#45;&gt;Node7</title>
<path fill="none" stroke="midnightblue" d="M485.403,-382.951C485.403,-366.281 485.403,-345.234 485.403,-333.644"/>
<polygon fill="midnightblue" stroke="midnightblue" points="481.903,-383.13 485.403,-393.13 488.903,-383.13 481.903,-383.13"/>
</g>
<!-- Node9 -->
<g id="node9" class="node"><title>Node9</title>
<g id="a_node9"><a xlink:title=" ">
<polygon fill="white" stroke="#bfbfbf" points="100.903,-314.5 100.903,-333.5 151.903,-333.5 151.903,-314.5 100.903,-314.5"/>
<text text-anchor="middle" x="126.403" y="-321.5" font-family="Helvetica,sans-Serif" font-size="10.00">uint16_t</text>
</a>
</g>
</g>
<!-- Node9&#45;&gt;Node5 -->
<g id="edge9" class="edge"><title>Node9&#45;&gt;Node5</title>
<path fill="none" stroke="#9a32cd" stroke-dasharray="5,2" d="M127.147,-304.331C128.675,-288.559 133.066,-266.176 145.403,-251 166.333,-225.254 202.25,-210.399 227.548,-202.649"/>
<polygon fill="#9a32cd" stroke="#9a32cd" points="123.645,-304.238 126.467,-314.45 130.629,-304.707 123.645,-304.238"/>
<text text-anchor="middle" x="174.903" y="-270.5" font-family="Helvetica,sans-Serif" font-size="10.00"> discriminator</text>
</g>
<!-- Node10&#45;&gt;Node5 -->
<g id="edge10" class="edge"><title>Node10&#45;&gt;Node5</title>
<path fill="none" stroke="#9a32cd" stroke-dasharray="5,2" d="M214.544,-305.274C213.242,-301.937 212.105,-298.419 211.403,-295 207.471,-275.844 204.869,-269.432 211.403,-251 218.283,-231.591 235.161,-214.017 246.179,-204.059"/>
<polygon fill="#9a32cd" stroke="#9a32cd" points="211.384,-306.78 218.672,-314.469 217.77,-303.913 211.384,-306.78"/>
<text text-anchor="middle" x="226.903" y="-270.5" font-family="Helvetica,sans-Serif" font-size="10.00"> avatar</text>
</g>
<!-- Node11 -->
<g id="node11" class="node"><title>Node11</title>
<g id="a_node11"><a xlink:title=" ">
<polygon fill="white" stroke="#bfbfbf" points="31.9029,-314.5 31.9029,-333.5 82.9029,-333.5 82.9029,-314.5 31.9029,-314.5"/>
<text text-anchor="middle" x="57.4029" y="-321.5" font-family="Helvetica,sans-Serif" font-size="10.00">uint32_t</text>
</a>
</g>
</g>
<!-- Node11&#45;&gt;Node5 -->
<g id="edge12" class="edge"><title>Node11&#45;&gt;Node5</title>
<path fill="none" stroke="#9a32cd" stroke-dasharray="5,2" d="M63.887,-304.653C70.4884,-288.442 82.2085,-265.228 99.4029,-251 137.156,-219.761 193.743,-205.559 227.673,-199.528"/>
<polygon fill="#9a32cd" stroke="#9a32cd" points="60.5663,-303.539 60.2819,-314.13 67.1089,-306.028 60.5663,-303.539"/>
<text text-anchor="middle" x="111.903" y="-270.5" font-family="Helvetica,sans-Serif" font-size="10.00"> flags</text>
</g>
<!-- Node12 -->
<g id="node12" class="node"><title>Node12</title>
<g id="a_node12"><a xlink:title=" ">
<polygon fill="white" stroke="#bfbfbf" points="391.403,-314.5 391.403,-333.5 437.403,-333.5 437.403,-314.5 391.403,-314.5"/>
<text text-anchor="middle" x="414.403" y="-321.5" font-family="Helvetica,sans-Serif" font-size="10.00">uint8_t</text>
</a>
</g>
</g>
<!-- Node12&#45;&gt;Node3 -->
<g id="edge24" class="edge"><title>Node12&#45;&gt;Node3</title>
<path fill="none" stroke="#9a32cd" stroke-dasharray="5,2" d="M411.912,-304.349C408.489,-272.307 405.146,-205.482 428.403,-156 443.09,-124.751 476.03,-99.248 494.739,-86.6079"/>
<polygon fill="#9a32cd" stroke="#9a32cd" points="408.462,-304.972 413.128,-314.484 415.412,-304.138 408.462,-304.972"/>
<text text-anchor="middle" x="440.903" y="-197.5" font-family="Helvetica,sans-Serif" font-size="10.00"> flags</text>
<text text-anchor="middle" x="440.903" y="-186.5" font-family="Helvetica,sans-Serif" font-size="10.00">type</text>
</g>
<!-- Node12&#45;&gt;Node5 -->
<g id="edge13" class="edge"><title>Node12&#45;&gt;Node5</title>
<path fill="none" stroke="#9a32cd" stroke-dasharray="5,2" d="M381.135,-313.173C339.116,-305.297 319.591,-320.464 290.403,-295 276.303,-282.699 262.982,-226.294 258.235,-204.309"/>
<polygon fill="#9a32cd" stroke="#9a32cd" points="380.547,-316.628 391.068,-315.383 382.067,-309.795 380.547,-316.628"/>
<text text-anchor="middle" x="309.903" y="-270.5" font-family="Helvetica,sans-Serif" font-size="10.00"> refcount</text>
</g>
<!-- Node12&#45;&gt;Node13 -->
<g id="edge19" class="edge"><title>Node12&#45;&gt;Node13</title>
<path fill="none" stroke="#9a32cd" stroke-dasharray="5,2" d="M424.247,-305.139C434.017,-288.927 450.402,-265.416 470.403,-251 489.903,-236.945 499.601,-243.122 521.403,-233 539.858,-224.432 559.912,-212.156 572.56,-204.012"/>
<polygon fill="#9a32cd" stroke="#9a32cd" points="421.017,-303.733 419.045,-314.143 427.078,-307.235 421.017,-303.733"/>
<text text-anchor="middle" x="482.903" y="-270.5" font-family="Helvetica,sans-Serif" font-size="10.00"> flags</text>
</g>
<!-- Node13&#45;&gt;Node3 -->
<g id="edge14" class="edge"><title>Node13&#45;&gt;Node3</title>
<path fill="none" stroke="#9a32cd" stroke-dasharray="5,2" d="M573.966,-176.344C557.307,-151.357 526.973,-105.855 514.258,-86.782"/>
<polygon fill="#9a32cd" stroke="#9a32cd" points="571.156,-178.44 579.615,-184.819 576.98,-174.557 571.156,-178.44"/>
<text text-anchor="middle" x="566.903" y="-119" font-family="Helvetica,sans-Serif" font-size="10.00"> member</text>
</g>
<!-- Node14 -->
<g id="node14" class="node"><title>Node14</title>
<g id="a_node14"><a xlink:title=" ">
<polygon fill="white" stroke="#bfbfbf" points="677.403,-314.5 677.403,-333.5 727.403,-333.5 727.403,-314.5 677.403,-314.5"/>
<text text-anchor="middle" x="702.403" y="-321.5" font-family="Helvetica,sans-Serif" font-size="10.00">vector&lt;</text>
</a>
</g>
</g>
<!-- Node14&#45;&gt;Node3 -->
<g id="edge21" class="edge"><title>Node14&#45;&gt;Node3</title>
<path fill="none" stroke="#9a32cd" stroke-dasharray="5,2" d="M722.276,-307.259C725.589,-303.616 728.547,-299.48 730.403,-295 737.886,-276.933 737.488,-269.227 730.403,-251 697.832,-167.207 667.413,-151.385 590.403,-105 576.794,-96.8028 560.396,-90.7648 545.852,-86.5033"/>
<polygon fill="#9a32cd" stroke="#9a32cd" points="719.604,-304.969 714.748,-314.385 724.417,-310.052 719.604,-304.969"/>
<text text-anchor="middle" x="762.903" y="-225" font-family="Helvetica,sans-Serif" font-size="10.00"> attachments</text>
<text text-anchor="middle" x="762.903" y="-214" font-family="Helvetica,sans-Serif" font-size="10.00">components</text>
<text text-anchor="middle" x="762.903" y="-203" font-family="Helvetica,sans-Serif" font-size="10.00">embeds</text>
<text text-anchor="middle" x="762.903" y="-192" font-family="Helvetica,sans-Serif" font-size="10.00">mention_channels</text>
<text text-anchor="middle" x="762.903" y="-181" font-family="Helvetica,sans-Serif" font-size="10.00">mention_roles</text>
<text text-anchor="middle" x="762.903" y="-170" font-family="Helvetica,sans-Serif" font-size="10.00">mentions</text>
<text text-anchor="middle" x="762.903" y="-159" font-family="Helvetica,sans-Serif" font-size="10.00">reactions</text>
</g>
<!-- Node14&#45;&gt;Node13 -->
<g id="edge17" class="edge"><title>Node14&#45;&gt;Node13</title>
<path fill="none" stroke="#9a32cd" stroke-dasharray="5,2" d="M667.013,-319.375C649.374,-315.826 628.969,-308.82 615.403,-295 602.448,-281.803 591.004,-225.937 586.958,-204.202"/>
<polygon fill="#9a32cd" stroke="#9a32cd" points="666.559,-322.848 677.007,-321.091 667.743,-315.949 666.559,-322.848"/>
<text text-anchor="middle" x="627.903" y="-270.5" font-family="Helvetica,sans-Serif" font-size="10.00"> roles</text>
</g>
<!-- Node15 -->
<g id="node15" class="node"><title>Node15</title>
<g id="a_node15"><a xlink:title=" ">
<polygon fill="white" stroke="#bfbfbf" points="773.403,-314.5 773.403,-333.5 817.403,-333.5 817.403,-314.5 773.403,-314.5"/>
<text text-anchor="middle" x="795.403" y="-321.5" font-family="Helvetica,sans-Serif" font-size="10.00">time_t</text>
</a>
</g>
</g>
<!-- Node15&#45;&gt;Node3 -->
<g id="edge22" class="edge"><title>Node15&#45;&gt;Node3</title>
<path fill="none" stroke="#9a32cd" stroke-dasharray="5,2" d="M802.876,-304.918C815.263,-271.75 835.575,-200.51 802.403,-156 771.951,-115.14 620.313,-91.5561 547.522,-82.4229"/>
<polygon fill="#9a32cd" stroke="#9a32cd" points="799.602,-303.68 799.21,-314.267 806.119,-306.235 799.602,-303.68"/>
<text text-anchor="middle" x="835.403" y="-197.5" font-family="Helvetica,sans-Serif" font-size="10.00"> edited</text>
<text text-anchor="middle" x="835.403" y="-186.5" font-family="Helvetica,sans-Serif" font-size="10.00">sent</text>
</g>
<!-- Node15&#45;&gt;Node13 -->
<g id="edge18" class="edge"><title>Node15&#45;&gt;Node13</title>
<path fill="none" stroke="#9a32cd" stroke-dasharray="5,2" d="M769.795,-309.657C761.325,-305.126 751.897,-299.954 743.403,-295 688.518,-262.991 625.059,-221.671 598.327,-204.06"/>
<polygon fill="#9a32cd" stroke="#9a32cd" points="768.375,-312.866 778.85,-314.455 771.653,-306.68 768.375,-312.866"/>
<text text-anchor="middle" x="776.903" y="-276" font-family="Helvetica,sans-Serif" font-size="10.00"> joined_at</text>
<text text-anchor="middle" x="776.903" y="-265" font-family="Helvetica,sans-Serif" font-size="10.00">premium_since</text>
</g>
<!-- Node16 -->
<g id="node16" class="node"><title>Node16</title>
<g id="a_node16"><a xlink:title=" ">
<polygon fill="white" stroke="#bfbfbf" points="872.903,-185 872.903,-204 907.903,-204 907.903,-185 872.903,-185"/>
<text text-anchor="middle" x="890.403" y="-192" font-family="Helvetica,sans-Serif" font-size="10.00">bool</text>
</a>
</g>
</g>
<!-- Node16&#45;&gt;Node3 -->
<g id="edge23" class="edge"><title>Node16&#45;&gt;Node3</title>
<path fill="none" stroke="#9a32cd" stroke-dasharray="5,2" d="M885.257,-175.187C878.334,-154.298 863.851,-120.976 838.403,-105 814.274,-89.852 629.61,-81.9733 547.523,-79.1895"/>
<polygon fill="#9a32cd" stroke="#9a32cd" points="881.932,-176.282 888.207,-184.819 888.626,-174.233 881.932,-176.282"/>
<text text-anchor="middle" x="908.903" y="-130" font-family="Helvetica,sans-Serif" font-size="10.00"> mention_everyone</text>
<text text-anchor="middle" x="908.903" y="-119" font-family="Helvetica,sans-Serif" font-size="10.00">pinned</text>
<text text-anchor="middle" x="908.903" y="-108" font-family="Helvetica,sans-Serif" font-size="10.00">tts</text>
</g>
</g>
</svg>
        <g id="navigator" transform="translate(0 0)" fill="#404254">
                <rect fill="#f2f5e9" fill-opacity="0.5" stroke="#606060" stroke-width=".5" x="0" y="0" width="60" height="60"/>
                <use id="zoomplus" xlink:href="#zoomPlus" x="17" y="9" onmousedown="handleZoom(evt,'in')"/>
                <use id="zoomminus" xlink:href="#zoomMin" x="42" y="9" onmousedown="handleZoom(evt,'out')"/>
                <use id="reset" xlink:href="#resetDef" x="30" y="36" onmousedown="handleReset()"/>
                <g id="arrowUp" xlink:href="#dirArrow" transform="translate(30 24)" onmousedown="handlePan(0,-1)">
                  <use xlink:href="#rim" fill="#404040">
                        <set attributeName="fill" to="#808080" begin="arrowUp.mouseover" end="arrowUp.mouseout"/>
                  </use>
                  <path fill="none" stroke="white" stroke-width="1.5" d="M0,-3.0v7 M-2.5,-0.5L0,-3.0L2.5,-0.5"/>
                </g>
                <g id="arrowRight" xlink:href="#dirArrow" transform="rotate(90) translate(36 -43)" onmousedown="handlePan(1,0)">
                  <use xlink:href="#rim" fill="#404040">
                        <set attributeName="fill" to="#808080" begin="arrowRight.mouseover" end="arrowRight.mouseout"/>
                  </use>
                  <path fill="none" stroke="white" stroke-width="1.5" d="M0,-3.0v7 M-2.5,-0.5L0,-3.0L2.5,-0.5"/>
                </g>
                <g id="arrowDown" xlink:href="#dirArrow" transform="rotate(180) translate(-30 -48)" onmousedown="handlePan(0,1)">
                  <use xlink:href="#rim" fill="#404040">
                        <set attributeName="fill" to="#808080" begin="arrowDown.mouseover" end="arrowDown.mouseout"/>
                  </use>
                  <path fill="none" stroke="white" stroke-width="1.5" d="M0,-3.0v7 M-2.5,-0.5L0,-3.0L2.5,-0.5"/>
                </g>
                <g id="arrowLeft" xlink:href="#dirArrow" transform="rotate(270) translate(-36 17)" onmousedown="handlePan(-1,0)">
                  <use xlink:href="#rim" fill="#404040">
                        <set attributeName="fill" to="#808080" begin="arrowLeft.mouseover" end="arrowLeft.mouseout"/>
                  </use>
                  <path fill="none" stroke="white" stroke-width="1.5" d="M0,-3.0v7 M-2.5,-0.5L0,-3.0L2.5,-0.5"/>
                </g>
        </g>
        <svg viewBox="0 0 15 15" width="100%" height="30px" preserveAspectRatio="xMaxYMin meet">
         <g id="arrow_out" transform="scale(0.3 0.3)">
          <a xlink:href="a02423_org.svg" target="_base">
           <rect id="button" ry="5" rx="5" y="6" x="6" height="38" width="38"
                fill="#f2f5e9" fill-opacity="0.5" stroke="#606060" stroke-width="1.0"/>
           <path id="arrow"
             d="M 11.500037,31.436501 C 11.940474,20.09759 22.043105,11.32322 32.158766,21.979434 L 37.068811,17.246167 C 37.068811,17.246167 37.088388,32 37.088388,32 L 22.160133,31.978069 C 22.160133,31.978069 26.997745,27.140456 26.997745,27.140456 C 18.528582,18.264221 13.291696,25.230495 11.500037,31.436501 z"
             style="fill:#404040;"/>
          </a>
         </g>
        </svg>
</svg>
