<?xml version="1.0" encoding="UTF-8" standalone="no"?>
<!DOCTYPE svg PUBLIC "-//W3C//DTD SVG 1.1//EN"
 "http://www.w3.org/Graphics/SVG/1.1/DTD/svg11.dtd">
<!-- Generated by graphviz version 2.43.0 (0)
 -->
<!-- Title: dpp::discord_client Pages: 1 -->
<!--zoomable 1132 -->
<svg id="main" version="1.1" xmlns="http://www.w3.org/2000/svg" xmlns:xlink="http://www.w3.org/1999/xlink" xml:space="preserve" onload="init(evt)">
<style type="text/css"><![CDATA[
.edge:hover path { stroke: red; }
.edge:hover polygon { stroke: red; fill: red; }
]]></style>
<script type="text/javascript"><![CDATA[
var edges = document.getElementsByTagName('g');
if (edges && edges.length) {
  for (var i=0;i<edges.length;i++) {
    if (edges[i].id.substr(0,4)=='edge') {
      edges[i].setAttribute('class','edge');
    }
  }
}
]]></script>
        <defs>
                <circle id="rim" cx="0" cy="0" r="7"/>
                <circle id="rim2" cx="0" cy="0" r="3.5"/>
                <g id="zoomPlus">
                        <use xlink:href="#rim" fill="#404040">
                                <set attributeName="fill" to="#808080" begin="zoomplus.mouseover" end="zoomplus.mouseout"/>
                        </use>
                        <path d="M-4,0h8M0,-4v8" fill="none" stroke="white" stroke-width="1.5" pointer-events="none"/>
                </g>
                <g id="zoomMin">
                        <use xlink:href="#rim" fill="#404040">
                                <set attributeName="fill" to="#808080" begin="zoomminus.mouseover" end="zoomminus.mouseout"/>
                        </use>
                        <path d="M-4,0h8" fill="none" stroke="white" stroke-width="1.5" pointer-events="none"/>
                </g>
                <g id="dirArrow">
                        <path fill="none" stroke="white" stroke-width="1.5" d="M0,-3.0v7 M-2.5,-0.5L0,-3.0L2.5,-0.5"/>
                </g>
               <g id="resetDef">
                       <use xlink:href="#rim2" fill="#404040">
                               <set attributeName="fill" to="#808080" begin="reset.mouseover" end="reset.mouseout"/>
                       </use>
               </g>
        </defs>

<script type="text/javascript">
var viewWidth = 1117;
var viewHeight = 1132;
var sectionId = 'dynsection-1';
</script>
<script xlink:href="svgpan.js"/>
<svg id="graph" class="graph">
<g id="viewport">
<title>dpp::discord_client</title>
<!-- Node1 -->
<g id="node1" class="node">
<title>Node1</title>
<g id="a_node1"><a xlink:title="Implements a discord client. Each discord_client connects to one shard and derives from a websocket c...">
<polygon fill="#bfbfbf" stroke="black" points="1001,-199.35 1001,-218.35 1109,-218.35 1109,-199.35 1001,-199.35"/>
<text text-anchor="middle" x="1055" y="-206.35" font-family="Helvetica,sans-Serif" font-size="10.00">dpp::discord_client</text>
</a>
</g>
</g>
<!-- Node2 -->
<g id="node2" class="node">
<title>Node2</title>
<g id="a_node2"><a xlink:href="classdpp_1_1websocket__client.html" target="_top" xlink:title="Implements a websocket client based on the SSL client.">
<polygon fill="none" stroke="black" points="703,-955.35 703,-974.35 828,-974.35 828,-955.35 703,-955.35"/>
<text text-anchor="middle" x="765.5" y="-962.35" font-family="Helvetica,sans-Serif" font-size="10.00">dpp::websocket_client</text>
</a>
</g>
</g>
<!-- Node2&#45;&gt;Node1 -->
<g id="edge1" class="edge">
<title>Node2&#45;&gt;Node1</title>
<path fill="none" stroke="midnightblue" d="M791.06,-949.85C837.53,-919.99 937.68,-848.22 983,-758.85 1033.84,-658.6 1051,-283.66 1053.63,-218.53"/>
<polygon fill="midnightblue" stroke="midnightblue" points="789.1,-946.95 782.52,-955.26 792.84,-952.87 789.1,-946.95"/>
</g>
<!-- Node3 -->
<g id="node3" class="node">
<title>Node3</title>
<g id="a_node3"><a xlink:href="classdpp_1_1ssl__client.html" target="_top" xlink:title="Implements a simple non&#45;blocking SSL stream client.">
<polygon fill="none" stroke="black" points="473.5,-878.35 473.5,-897.35 559.5,-897.35 559.5,-878.35 473.5,-878.35"/>
<text text-anchor="middle" x="516.5" y="-885.35" font-family="Helvetica,sans-Serif" font-size="10.00">dpp::ssl_client</text>
</a>
</g>
</g>
<!-- Node3&#45;&gt;Node2 -->
<g id="edge2" class="edge">
<title>Node3&#45;&gt;Node2</title>
<path fill="none" stroke="midnightblue" d="M557.97,-900.47C607.23,-915.82 689.32,-941.41 733.72,-955.26"/>
<polygon fill="midnightblue" stroke="midnightblue" points="558.87,-897.08 548.28,-897.45 556.79,-903.77 558.87,-897.08"/>
</g>
<!-- Node4 -->
<g id="node4" class="node">
<title>Node4</title>
<g id="a_node4"><a xlink:title=" ">
<polygon fill="none" stroke="#bfbfbf" points="206.5,-965.35 206.5,-984.35 271.5,-984.35 271.5,-965.35 206.5,-965.35"/>
<text text-anchor="middle" x="239" y="-972.35" font-family="Helvetica,sans-Serif" font-size="10.00">std::string</text>
</a>
</g>
</g>
<!-- Node4&#45;&gt;Node1 -->
<g id="edge32" class="edge">
<title>Node4&#45;&gt;Node1</title>
<path fill="none" stroke="#9a32cd" stroke-dasharray="5,2" d="M251.86,-992.81C265.78,-1012.08 290.84,-1041.58 321,-1053.85 370.81,-1074.12 388.44,-1058.67 442,-1053.85 698.25,-1030.8 864.05,-1075.99 983,-847.85 1043.64,-731.56 1052.78,-290.31 1053.87,-218.7"/>
<polygon fill="#9a32cd" stroke="#9a32cd" points="254.69,-990.74 246.11,-984.53 248.94,-994.74 254.69,-990.74"/>
<text text-anchor="middle" x="638" y="-1058.85" font-family="Helvetica,sans-Serif" font-size="10.00"> sessionid</text>
<text text-anchor="middle" x="638" y="-1047.85" font-family="Helvetica,sans-Serif" font-size="10.00">token</text>
</g>
<!-- Node4&#45;&gt;Node3 -->
<g id="edge3" class="edge">
<title>Node4&#45;&gt;Node3</title>
<path fill="none" stroke="#9a32cd" stroke-dasharray="5,2" d="M268.27,-960.81C283.57,-953.68 302.98,-945.38 321,-939.85 373.33,-923.79 389.42,-932.08 442,-916.85 460.05,-911.62 479.83,-903.69 494.32,-897.44"/>
<polygon fill="#9a32cd" stroke="#9a32cd" points="266.39,-957.83 258.86,-965.29 269.4,-964.15 266.39,-957.83"/>
<text text-anchor="middle" x="381.5" y="-986.85" font-family="Helvetica,sans-Serif" font-size="10.00"> buffer</text>
<text text-anchor="middle" x="381.5" y="-975.85" font-family="Helvetica,sans-Serif" font-size="10.00">cipher</text>
<text text-anchor="middle" x="381.5" y="-964.85" font-family="Helvetica,sans-Serif" font-size="10.00">hostname</text>
<text text-anchor="middle" x="381.5" y="-953.85" font-family="Helvetica,sans-Serif" font-size="10.00">obuffer</text>
<text text-anchor="middle" x="381.5" y="-942.85" font-family="Helvetica,sans-Serif" font-size="10.00">port</text>
</g>
<!-- Node12 -->
<g id="node12" class="node">
<title>Node12</title>
<g id="a_node12"><a xlink:href="classdpp_1_1cluster.html" target="_top" xlink:title="The cluster class represents a group of shards and a command queue for sending and receiving commands...">
<polygon fill="none" stroke="black" points="728.5,-418.35 728.5,-437.35 802.5,-437.35 802.5,-418.35 728.5,-418.35"/>
<text text-anchor="middle" x="765.5" y="-425.35" font-family="Helvetica,sans-Serif" font-size="10.00">dpp::cluster</text>
</a>
</g>
</g>
<!-- Node4&#45;&gt;Node12 -->
<g id="edge12" class="edge">
<title>Node4&#45;&gt;Node12</title>
<path fill="none" stroke="#9a32cd" stroke-dasharray="5,2" d="M277.76,-987.18C319,-998.68 386.57,-1011.74 442,-994.85 509.09,-974.41 521.05,-953.97 573,-906.85 631,-854.24 650.35,-841.07 685,-770.85 745.31,-648.61 760.87,-479.07 763.88,-437.39"/>
<polygon fill="#9a32cd" stroke="#9a32cd" points="278.7,-983.81 268.12,-984.38 276.75,-990.53 278.7,-983.81"/>
<text text-anchor="middle" x="516.5" y="-990.85" font-family="Helvetica,sans-Serif" font-size="10.00"> token</text>
</g>
<!-- Node15 -->
<g id="node15" class="node">
<title>Node15</title>
<g id="a_node15"><a xlink:href="classdpp_1_1user.html" target="_top" xlink:title="Represents a user on discord. May or may not be a member of a dpp::guild.">
<polygon fill="none" stroke="black" points="485.5,-350.35 485.5,-369.35 547.5,-369.35 547.5,-350.35 485.5,-350.35"/>
<text text-anchor="middle" x="516.5" y="-357.35" font-family="Helvetica,sans-Serif" font-size="10.00">dpp::user</text>
</a>
</g>
</g>
<!-- Node4&#45;&gt;Node15 -->
<g id="edge20" class="edge">
<title>Node4&#45;&gt;Node15</title>
<path fill="none" stroke="#9a32cd" stroke-dasharray="5,2" d="M267.9,-960.07C280.4,-952.1 294.26,-941.16 303,-927.85 322.06,-898.84 299.58,-879.17 321,-851.85 358.28,-804.3 409.28,-840.65 442,-789.85 487.9,-718.59 423.33,-485.27 460,-408.85 468.23,-391.7 485.49,-378 498.59,-369.5"/>
<polygon fill="#9a32cd" stroke="#9a32cd" points="265.9,-957.18 259.13,-965.33 269.51,-963.18 265.9,-957.18"/>
<text text-anchor="middle" x="381.5" y="-854.85" font-family="Helvetica,sans-Serif" font-size="10.00"> username</text>
</g>
<!-- Node5 -->
<g id="node5" class="node">
<title>Node5</title>
<g id="a_node5"><a xlink:title=" ">
<polygon fill="none" stroke="#bfbfbf" points="0,-959.85 0,-989.85 104,-989.85 104,-959.85 0,-959.85"/>
<text text-anchor="start" x="8" y="-977.85" font-family="Helvetica,sans-Serif" font-size="10.00">std::basic_string&lt;</text>
<text text-anchor="middle" x="52" y="-966.85" font-family="Helvetica,sans-Serif" font-size="10.00"> Char &gt;</text>
</a>
</g>
</g>
<!-- Node5&#45;&gt;Node4 -->
<g id="edge4" class="edge">
<title>Node5&#45;&gt;Node4</title>
<path fill="none" stroke="midnightblue" d="M114.26,-974.85C145.05,-974.85 181.08,-974.85 206.29,-974.85"/>
<polygon fill="midnightblue" stroke="midnightblue" points="114.04,-971.35 104.04,-974.85 114.04,-978.35 114.04,-971.35"/>
</g>
<!-- Node6 -->
<g id="node6" class="node">
<title>Node6</title>
<g id="a_node6"><a xlink:title=" ">
<polygon fill="none" stroke="#bfbfbf" points="220,-1067.35 220,-1086.35 258,-1086.35 258,-1067.35 220,-1067.35"/>
<text text-anchor="middle" x="239" y="-1074.35" font-family="Helvetica,sans-Serif" font-size="10.00">bool</text>
</a>
</g>
</g>
<!-- Node6&#45;&gt;Node1 -->
<g id="edge35" class="edge">
<title>Node6&#45;&gt;Node1</title>
<path fill="none" stroke="#9a32cd" stroke-dasharray="5,2" d="M268.08,-1083.28C384.65,-1108.11 831.37,-1184.51 983,-935.85 1061.07,-807.82 1055.49,-295.88 1054.19,-218.63"/>
<polygon fill="#9a32cd" stroke="#9a32cd" points="268.66,-1079.82 258.15,-1081.11 267.17,-1086.66 268.66,-1079.82"/>
<text text-anchor="middle" x="638" y="-1115.85" font-family="Helvetica,sans-Serif" font-size="10.00"> ready</text>
</g>
<!-- Node6&#45;&gt;Node3 -->
<g id="edge5" class="edge">
<title>Node6&#45;&gt;Node3</title>
<path fill="none" stroke="#9a32cd" stroke-dasharray="5,2" d="M268.04,-1071.7C309.75,-1062.88 388.91,-1041.54 442,-998.85 477.84,-970.03 502.38,-918.94 511.52,-897.62"/>
<polygon fill="#9a32cd" stroke="#9a32cd" points="267.15,-1068.31 258.05,-1073.73 268.54,-1075.17 267.15,-1068.31"/>
<text text-anchor="middle" x="381.5" y="-1059.85" font-family="Helvetica,sans-Serif" font-size="10.00"> nonblocking</text>
</g>
<!-- Node7 -->
<g id="node7" class="node">
<title>Node7</title>
<g id="a_node7"><a xlink:title=" ">
<polygon fill="none" stroke="#bfbfbf" points="211,-899.35 211,-918.35 267,-918.35 267,-899.35 211,-899.35"/>
<text text-anchor="middle" x="239" y="-906.35" font-family="Helvetica,sans-Serif" font-size="10.00">SOCKET</text>
</a>
</g>
</g>
<!-- Node7&#45;&gt;Node3 -->
<g id="edge6" class="edge">
<title>Node7&#45;&gt;Node3</title>
<path fill="none" stroke="#9a32cd" stroke-dasharray="5,2" d="M277.44,-906C328.55,-902.1 419.91,-895.14 473.36,-891.06"/>
<polygon fill="#9a32cd" stroke="#9a32cd" points="276.88,-902.53 267.17,-906.78 277.41,-909.51 276.88,-902.53"/>
<text text-anchor="middle" x="381.5" y="-904.85" font-family="Helvetica,sans-Serif" font-size="10.00"> sfd</text>
</g>
<!-- Node8 -->
<g id="node8" class="node">
<title>Node8</title>
<g id="a_node8"><a xlink:title=" ">
<polygon fill="none" stroke="#bfbfbf" points="189.5,-861.35 189.5,-880.35 288.5,-880.35 288.5,-861.35 189.5,-861.35"/>
<text text-anchor="middle" x="239" y="-868.35" font-family="Helvetica,sans-Serif" font-size="10.00">opensslcontext *</text>
</a>
</g>
</g>
<!-- Node8&#45;&gt;Node3 -->
<g id="edge7" class="edge">
<title>Node8&#45;&gt;Node3</title>
<path fill="none" stroke="#9a32cd" stroke-dasharray="5,2" d="M298.94,-867.9C339.33,-866.68 394.06,-866.57 442,-871.85 454.07,-873.18 467.07,-875.66 478.73,-878.27"/>
<polygon fill="#9a32cd" stroke="#9a32cd" points="298.61,-864.41 288.73,-868.25 298.85,-871.41 298.61,-864.41"/>
<text text-anchor="middle" x="381.5" y="-874.85" font-family="Helvetica,sans-Serif" font-size="10.00"> ssl</text>
</g>
<!-- Node9 -->
<g id="node9" class="node">
<title>Node9</title>
<g id="a_node9"><a xlink:title=" ">
<polygon fill="none" stroke="#bfbfbf" points="215,-735.35 215,-754.35 263,-754.35 263,-735.35 215,-735.35"/>
<text text-anchor="middle" x="239" y="-742.35" font-family="Helvetica,sans-Serif" font-size="10.00">time_t</text>
</a>
</g>
</g>
<!-- Node9&#45;&gt;Node1 -->
<g id="edge29" class="edge">
<title>Node9&#45;&gt;Node1</title>
<path fill="none" stroke="#9a32cd" stroke-dasharray="5,2" d="M273.42,-747.85C335.49,-752.02 471.45,-754.54 573,-708.85 786.57,-612.76 842.27,-565.04 983,-377.85 1022.97,-324.69 1045,-245.69 1051.74,-218.47"/>
<polygon fill="#9a32cd" stroke="#9a32cd" points="273.3,-744.33 263.07,-747.09 272.78,-751.31 273.3,-744.33"/>
<text text-anchor="middle" x="638" y="-713.85" font-family="Helvetica,sans-Serif" font-size="10.00"> last_heartbeat</text>
<text text-anchor="middle" x="638" y="-702.85" font-family="Helvetica,sans-Serif" font-size="10.00">last_heartbeat_ack</text>
</g>
<!-- Node9&#45;&gt;Node3 -->
<g id="edge8" class="edge">
<title>Node9&#45;&gt;Node3</title>
<path fill="none" stroke="#9a32cd" stroke-dasharray="5,2" d="M273.38,-749.77C328.92,-758.05 434.96,-774.32 442,-778.85 480.38,-803.57 503.65,-856.19 512,-878.03"/>
<polygon fill="#9a32cd" stroke="#9a32cd" points="273.72,-746.28 263.31,-748.27 272.69,-753.2 273.72,-746.28"/>
<text text-anchor="middle" x="381.5" y="-781.85" font-family="Helvetica,sans-Serif" font-size="10.00"> last_tick</text>
</g>
<!-- Node9&#45;&gt;Node12 -->
<g id="edge13" class="edge">
<title>Node9&#45;&gt;Node12</title>
<path fill="none" stroke="#9a32cd" stroke-dasharray="5,2" d="M273.43,-740.53C322.86,-733.78 412.73,-720.03 442,-705.85 589.69,-634.31 723.75,-477.79 756.76,-437.47"/>
<polygon fill="#9a32cd" stroke="#9a32cd" points="272.69,-737.09 263.25,-741.9 273.63,-744.03 272.69,-737.09"/>
<text text-anchor="middle" x="516.5" y="-696.85" font-family="Helvetica,sans-Serif" font-size="10.00"> last_identify</text>
</g>
<!-- Node10 -->
<g id="node10" class="node">
<title>Node10</title>
<g id="a_node10"><a xlink:title=" ">
<polygon fill="none" stroke="#bfbfbf" points="24,-351.35 24,-370.35 80,-370.35 80,-351.35 24,-351.35"/>
<text text-anchor="middle" x="52" y="-358.35" font-family="Helvetica,sans-Serif" font-size="10.00">uint64_t</text>
</a>
</g>
</g>
<!-- Node10&#45;&gt;Node1 -->
<g id="edge31" class="edge">
<title>Node10&#45;&gt;Node1</title>
<path fill="none" stroke="#9a32cd" stroke-dasharray="5,2" d="M61.81,-342.38C78.57,-309.66 118.48,-242.37 175,-214.85 321.3,-143.61 833.8,-186.9 1000.89,-203.34"/>
<polygon fill="#9a32cd" stroke="#9a32cd" points="58.67,-340.83 57.36,-351.35 64.94,-343.95 58.67,-340.83"/>
<text text-anchor="middle" x="516.5" y="-178.85" font-family="Helvetica,sans-Serif" font-size="10.00"> last_seq</text>
</g>
<!-- Node10&#45;&gt;Node3 -->
<g id="edge9" class="edge">
<title>Node10&#45;&gt;Node3</title>
<path fill="none" stroke="#9a32cd" stroke-dasharray="5,2" d="M53.29,-380.75C55.27,-444.82 69.96,-648.22 175,-763.85 217.55,-810.69 381.93,-842.96 442,-862.85 457.1,-867.85 473.89,-873.55 487.61,-878.25"/>
<polygon fill="#9a32cd" stroke="#9a32cd" points="56.78,-380.38 53.05,-370.47 49.78,-380.55 56.78,-380.38"/>
<text text-anchor="middle" x="239" y="-836.85" font-family="Helvetica,sans-Serif" font-size="10.00"> bytes_in</text>
<text text-anchor="middle" x="239" y="-825.85" font-family="Helvetica,sans-Serif" font-size="10.00">bytes_out</text>
</g>
<!-- Node16 -->
<g id="node16" class="node">
<title>Node16</title>
<g id="a_node16"><a xlink:href="classdpp_1_1managed.html" target="_top" xlink:title="The managed class is the base class for various types that can be stored in a cache that are identifi...">
<polygon fill="none" stroke="black" points="196,-274.35 196,-293.35 282,-293.35 282,-274.35 196,-274.35"/>
<text text-anchor="middle" x="239" y="-281.35" font-family="Helvetica,sans-Serif" font-size="10.00">dpp::managed</text>
</a>
</g>
</g>
<!-- Node10&#45;&gt;Node16 -->
<g id="edge19" class="edge">
<title>Node10&#45;&gt;Node16</title>
<path fill="none" stroke="#9a32cd" stroke-dasharray="5,2" d="M79.81,-346.66C104.19,-334.11 141.39,-315.82 175,-302.85 183.95,-299.4 193.81,-296.16 203.02,-293.38"/>
<polygon fill="#9a32cd" stroke="#9a32cd" points="78.08,-343.62 70.81,-351.33 81.3,-349.83 78.08,-343.62"/>
<text text-anchor="middle" x="139.5" y="-327.85" font-family="Helvetica,sans-Serif" font-size="10.00"> id</text>
</g>
<!-- Node18 -->
<g id="node18" class="node">
<title>Node18</title>
<g id="a_node18"><a xlink:href="structdpp_1_1utility_1_1iconhash.html" target="_top" xlink:title="Store a 128 bit icon hash (profile picture, server icon etc) as a 128 bit binary value made of two ui...">
<polygon fill="none" stroke="black" points="180,-388.35 180,-407.35 298,-407.35 298,-388.35 180,-388.35"/>
<text text-anchor="middle" x="239" y="-395.35" font-family="Helvetica,sans-Serif" font-size="10.00">dpp::utility::iconhash</text>
</a>
</g>
</g>
<!-- Node10&#45;&gt;Node18 -->
<g id="edge23" class="edge">
<title>Node10&#45;&gt;Node18</title>
<path fill="none" stroke="#9a32cd" stroke-dasharray="5,2" d="M90.38,-368.33C119.23,-374.1 159.35,-382.12 190.48,-388.35"/>
<polygon fill="#9a32cd" stroke="#9a32cd" points="90.79,-364.84 80.3,-366.31 89.42,-371.7 90.79,-364.84"/>
<text text-anchor="middle" x="139.5" y="-394.85" font-family="Helvetica,sans-Serif" font-size="10.00"> first</text>
<text text-anchor="middle" x="139.5" y="-383.85" font-family="Helvetica,sans-Serif" font-size="10.00">second</text>
</g>
<!-- Node11 -->
<g id="node11" class="node">
<title>Node11</title>
<g id="a_node11"><a xlink:title=" ">
<polygon fill="none" stroke="#bfbfbf" points="206.5,-562.35 206.5,-581.35 271.5,-581.35 271.5,-562.35 206.5,-562.35"/>
<text text-anchor="middle" x="239" y="-569.35" font-family="Helvetica,sans-Serif" font-size="10.00">function&lt;</text>
</a>
</g>
</g>
<!-- Node11&#45;&gt;Node3 -->
<g id="edge10" class="edge">
<title>Node11&#45;&gt;Node3</title>
<path fill="none" stroke="#9a32cd" stroke-dasharray="5,2" d="M258.1,-588.32C274.08,-602.48 298.29,-623.05 321,-638.85 372,-674.33 401.13,-662.06 442,-708.85 488.63,-762.24 508.33,-849.22 513.81,-878.15"/>
<polygon fill="#9a32cd" stroke="#9a32cd" points="260.33,-585.62 250.55,-581.55 255.67,-590.83 260.33,-585.62"/>
<text text-anchor="middle" x="381.5" y="-744.85" font-family="Helvetica,sans-Serif" font-size="10.00"> custom_readable_fd</text>
<text text-anchor="middle" x="381.5" y="-733.85" font-family="Helvetica,sans-Serif" font-size="10.00">custom_readable_ready</text>
<text text-anchor="middle" x="381.5" y="-722.85" font-family="Helvetica,sans-Serif" font-size="10.00">custom_writeable_fd</text>
<text text-anchor="middle" x="381.5" y="-711.85" font-family="Helvetica,sans-Serif" font-size="10.00">custom_writeable_ready</text>
</g>
<!-- Node14 -->
<g id="node14" class="node">
<title>Node14</title>
<g id="a_node14"><a xlink:href="classdpp_1_1dispatcher.html" target="_top" xlink:title="The dispatcher class contains a set of std::functions representing hooked events that the user code i...">
<polygon fill="none" stroke="black" points="470.5,-465.35 470.5,-484.35 562.5,-484.35 562.5,-465.35 470.5,-465.35"/>
<text text-anchor="middle" x="516.5" y="-472.35" font-family="Helvetica,sans-Serif" font-size="10.00">dpp::dispatcher</text>
</a>
</g>
</g>
<!-- Node11&#45;&gt;Node14 -->
<g id="edge16" class="edge">
<title>Node11&#45;&gt;Node14</title>
<path fill="none" stroke="#9a32cd" stroke-dasharray="5,2" d="M250.73,-553.68C264.18,-532.82 289.37,-499.6 321,-484.85 368.35,-462.78 429.39,-463.71 470.35,-467.91"/>
<polygon fill="#9a32cd" stroke="#9a32cd" points="247.69,-551.94 245.39,-562.28 253.64,-555.63 247.69,-551.94"/>
<text text-anchor="start" x="325.5" y="-630.85" font-family="Helvetica,sans-Serif" font-size="10.00"> application_command</text>
<text text-anchor="middle" x="381.5" y="-619.85" font-family="Helvetica,sans-Serif" font-size="10.00">_create</text>
<text text-anchor="start" x="325.5" y="-608.85" font-family="Helvetica,sans-Serif" font-size="10.00">application_command</text>
<text text-anchor="middle" x="381.5" y="-597.85" font-family="Helvetica,sans-Serif" font-size="10.00">_delete</text>
<text text-anchor="start" x="325.5" y="-586.85" font-family="Helvetica,sans-Serif" font-size="10.00">application_command</text>
<text text-anchor="middle" x="381.5" y="-575.85" font-family="Helvetica,sans-Serif" font-size="10.00">_update</text>
<text text-anchor="middle" x="381.5" y="-564.85" font-family="Helvetica,sans-Serif" font-size="10.00">button_click</text>
<text text-anchor="middle" x="381.5" y="-553.85" font-family="Helvetica,sans-Serif" font-size="10.00">channel_create</text>
<text text-anchor="middle" x="381.5" y="-542.85" font-family="Helvetica,sans-Serif" font-size="10.00">channel_delete</text>
<text text-anchor="middle" x="381.5" y="-531.85" font-family="Helvetica,sans-Serif" font-size="10.00">channel_pins_update</text>
<text text-anchor="middle" x="381.5" y="-520.85" font-family="Helvetica,sans-Serif" font-size="10.00">channel_update</text>
<text text-anchor="middle" x="381.5" y="-509.85" font-family="Helvetica,sans-Serif" font-size="10.00">guild_ban_add</text>
<text text-anchor="middle" x="381.5" y="-498.85" font-family="Helvetica,sans-Serif" font-size="10.00">guild_ban_remove</text>
<text text-anchor="middle" x="381.5" y="-487.85" font-family="Helvetica,sans-Serif" font-size="10.00">...</text>
</g>
<!-- Node12&#45;&gt;Node1 -->
<g id="edge11" class="edge">
<title>Node12&#45;&gt;Node1</title>
<path fill="none" stroke="#9a32cd" stroke-dasharray="5,2" d="M787.37,-411.95C843.5,-369.2 996.48,-252.67 1041.42,-218.43"/>
<polygon fill="#9a32cd" stroke="#9a32cd" points="785.06,-409.31 779.22,-418.16 789.3,-414.88 785.06,-409.31"/>
<text text-anchor="middle" x="914.5" y="-365.85" font-family="Helvetica,sans-Serif" font-size="10.00"> creator</text>
</g>
<!-- Node13 -->
<g id="node13" class="node">
<title>Node13</title>
<g id="a_node13"><a xlink:title=" ">
<polygon fill="none" stroke="#bfbfbf" points="211,-224.35 211,-243.35 267,-243.35 267,-224.35 211,-224.35"/>
<text text-anchor="middle" x="239" y="-231.35" font-family="Helvetica,sans-Serif" font-size="10.00">uint32_t</text>
</a>
</g>
</g>
<!-- Node13&#45;&gt;Node1 -->
<g id="edge28" class="edge">
<title>Node13&#45;&gt;Node1</title>
<path fill="none" stroke="#9a32cd" stroke-dasharray="5,2" d="M277.41,-231.84C291.12,-231.15 306.76,-230.41 321,-229.85 575.42,-219.93 879.7,-212.69 1000.64,-210"/>
<polygon fill="#9a32cd" stroke="#9a32cd" points="277.17,-228.35 267.36,-232.36 277.53,-235.34 277.17,-228.35"/>
<text text-anchor="middle" x="638" y="-277.85" font-family="Helvetica,sans-Serif" font-size="10.00"> heartbeat_interval</text>
<text text-anchor="middle" x="638" y="-266.85" font-family="Helvetica,sans-Serif" font-size="10.00">intents</text>
<text text-anchor="middle" x="638" y="-255.85" font-family="Helvetica,sans-Serif" font-size="10.00">max_shards</text>
<text text-anchor="middle" x="638" y="-244.85" font-family="Helvetica,sans-Serif" font-size="10.00">reconnects</text>
<text text-anchor="middle" x="638" y="-233.85" font-family="Helvetica,sans-Serif" font-size="10.00">resumes</text>
<text text-anchor="middle" x="638" y="-222.85" font-family="Helvetica,sans-Serif" font-size="10.00">shard_id</text>
</g>
<!-- Node13&#45;&gt;Node12 -->
<g id="edge14" class="edge">
<title>Node13&#45;&gt;Node12</title>
<path fill="none" stroke="#9a32cd" stroke-dasharray="5,2" d="M277.19,-233.24C318.06,-233.3 385.43,-235.58 442,-247.85 502.75,-261.03 517.83,-268.2 573,-296.85 645.57,-334.54 723.46,-394.83 752.61,-418.18"/>
<polygon fill="#9a32cd" stroke="#9a32cd" points="277.13,-229.74 267.14,-233.27 277.15,-236.74 277.13,-229.74"/>
<text text-anchor="middle" x="516.5" y="-332.85" font-family="Helvetica,sans-Serif" font-size="10.00"> cluster_id</text>
<text text-anchor="middle" x="516.5" y="-321.85" font-family="Helvetica,sans-Serif" font-size="10.00">intents</text>
<text text-anchor="middle" x="516.5" y="-310.85" font-family="Helvetica,sans-Serif" font-size="10.00">maxclusters</text>
<text text-anchor="middle" x="516.5" y="-299.85" font-family="Helvetica,sans-Serif" font-size="10.00">numshards</text>
</g>
<!-- Node13&#45;&gt;Node15 -->
<g id="edge24" class="edge">
<title>Node13&#45;&gt;Node15</title>
<path fill="none" stroke="#9a32cd" stroke-dasharray="5,2" d="M277.32,-238.56C328.52,-245.68 417.06,-260.54 442,-280.85 456.8,-292.91 447.86,-305.12 460,-319.85 470.42,-332.5 485.74,-343.13 497.64,-350.25"/>
<polygon fill="#9a32cd" stroke="#9a32cd" points="277.68,-235.08 267.3,-237.2 276.74,-242.02 277.68,-235.08"/>
<text text-anchor="middle" x="381.5" y="-283.85" font-family="Helvetica,sans-Serif" font-size="10.00"> flags</text>
</g>
<!-- Node14&#45;&gt;Node12 -->
<g id="edge15" class="edge">
<title>Node14&#45;&gt;Node12</title>
<path fill="none" stroke="#9a32cd" stroke-dasharray="5,2" d="M572.63,-464.36C620.1,-455.33 687.25,-442.55 728.22,-434.75"/>
<polygon fill="#9a32cd" stroke="#9a32cd" points="571.69,-460.98 562.52,-466.29 572.99,-467.85 571.69,-460.98"/>
<text text-anchor="middle" x="638" y="-461.85" font-family="Helvetica,sans-Serif" font-size="10.00"> dispatch</text>
</g>
<!-- Node15&#45;&gt;Node12 -->
<g id="edge17" class="edge">
<title>Node15&#45;&gt;Node12</title>
<path fill="none" stroke="#9a32cd" stroke-dasharray="5,2" d="M557.47,-370.86C605.19,-383.99 684.22,-405.75 729.59,-418.24"/>
<polygon fill="#9a32cd" stroke="#9a32cd" points="558.36,-367.47 547.79,-368.19 556.5,-374.22 558.36,-367.47"/>
<text text-anchor="middle" x="638" y="-408.85" font-family="Helvetica,sans-Serif" font-size="10.00"> me</text>
</g>
<!-- Node16&#45;&gt;Node15 -->
<g id="edge18" class="edge">
<title>Node16&#45;&gt;Node15</title>
<path fill="none" stroke="midnightblue" d="M292.29,-290.87C333.62,-297.28 392.41,-308.29 442,-324.85 462.11,-331.57 483.89,-342.43 498.47,-350.27"/>
<polygon fill="midnightblue" stroke="midnightblue" points="292.58,-287.38 282.17,-289.34 291.54,-294.3 292.58,-287.38"/>
</g>
<!-- Node17 -->
<g id="node17" class="node">
<title>Node17</title>
<g id="a_node17"><a xlink:title=" ">
<polygon fill="none" stroke="#bfbfbf" points="211,-312.35 211,-331.35 267,-331.35 267,-312.35 211,-312.35"/>
<text text-anchor="middle" x="239" y="-319.35" font-family="Helvetica,sans-Serif" font-size="10.00">uint16_t</text>
</a>
</g>
</g>
<!-- Node17&#45;&gt;Node15 -->
<g id="edge21" class="edge">
<title>Node17&#45;&gt;Node15</title>
<path fill="none" stroke="#9a32cd" stroke-dasharray="5,2" d="M277.21,-325.1C317.84,-328.88 384.76,-335.77 442,-344.85 456.28,-347.12 471.99,-350.24 485.21,-353.05"/>
<polygon fill="#9a32cd" stroke="#9a32cd" points="277.5,-321.61 267.22,-324.18 276.86,-328.58 277.5,-321.61"/>
<text text-anchor="middle" x="381.5" y="-347.85" font-family="Helvetica,sans-Serif" font-size="10.00"> discriminator</text>
</g>
<!-- Node18&#45;&gt;Node15 -->
<g id="edge22" class="edge">
<title>Node18&#45;&gt;Node15</title>
<path fill="none" stroke="#9a32cd" stroke-dasharray="5,2" d="M308.38,-389.63C347.54,-384.78 397.58,-378.33 442,-371.85 456.33,-369.76 472.19,-367.2 485.5,-364.99"/>
<polygon fill="#9a32cd" stroke="#9a32cd" points="307.91,-386.17 298.41,-390.86 308.77,-393.11 307.91,-386.17"/>
<text text-anchor="middle" x="381.5" y="-390.85" font-family="Helvetica,sans-Serif" font-size="10.00"> avatar</text>
</g>
<!-- Node19 -->
<g id="node19" class="node">
<title>Node19</title>
<g id="a_node19"><a xlink:title=" ">
<polygon fill="none" stroke="#bfbfbf" points="214,-350.35 214,-369.35 264,-369.35 264,-350.35 214,-350.35"/>
<text text-anchor="middle" x="239" y="-357.35" font-family="Helvetica,sans-Serif" font-size="10.00">uint8_t</text>
</a>
</g>
</g>
<!-- Node19&#45;&gt;Node15 -->
<g id="edge25" class="edge">
<title>Node19&#45;&gt;Node15</title>
<path fill="none" stroke="#9a32cd" stroke-dasharray="5,2" d="M274.64,-359.85C329.08,-359.85 433.78,-359.85 485.33,-359.85"/>
<polygon fill="#9a32cd" stroke="#9a32cd" points="274.45,-356.35 264.45,-359.85 274.45,-363.35 274.45,-356.35"/>
<text text-anchor="middle" x="381.5" y="-362.85" font-family="Helvetica,sans-Serif" font-size="10.00"> refcount</text>
</g>
<!-- Node20 -->
<g id="node20" class="node">
<title>Node20</title>
<g id="a_node20"><a xlink:href="structdpp_1_1cache__policy__t.html" target="_top" xlink:title="Represents the caching policy of the cluster.">
<polygon fill="none" stroke="black" points="460,-418.35 460,-437.35 573,-437.35 573,-418.35 460,-418.35"/>
<text text-anchor="middle" x="516.5" y="-425.35" font-family="Helvetica,sans-Serif" font-size="10.00">dpp::cache_policy_t</text>
</a>
</g>
</g>
<!-- Node20&#45;&gt;Node12 -->
<g id="edge26" class="edge">
<title>Node20&#45;&gt;Node12</title>
<path fill="none" stroke="#9a32cd" stroke-dasharray="5,2" d="M583.24,-427.85C629.79,-427.85 690.46,-427.85 728.46,-427.85"/>
<polygon fill="#9a32cd" stroke="#9a32cd" points="583.24,-424.35 573.24,-427.85 583.24,-431.35 583.24,-424.35"/>
<text text-anchor="middle" x="638" y="-430.85" font-family="Helvetica,sans-Serif" font-size="10.00"> cache_policy</text>
</g>
<!-- Node21 -->
<g id="node21" class="node">
<title>Node21</title>
<g id="a_node21"><a xlink:title=" ">
<polygon fill="none" stroke="#bfbfbf" points="175,-426.35 175,-445.35 303,-445.35 303,-426.35 175,-426.35"/>
<text text-anchor="middle" x="239" y="-433.35" font-family="Helvetica,sans-Serif" font-size="10.00">cache_policy_setting_t</text>
</a>
</g>
</g>
<!-- Node21&#45;&gt;Node20 -->
<g id="edge27" class="edge">
<title>Node21&#45;&gt;Node20</title>
<path fill="none" stroke="#9a32cd" stroke-dasharray="5,2" d="M313.3,-429.25C315.9,-429.1 318.47,-428.97 321,-428.85 367.72,-426.72 420.82,-426.6 459.72,-426.94"/>
<polygon fill="#9a32cd" stroke="#9a32cd" points="312.96,-425.76 303.2,-429.89 313.4,-432.75 312.96,-425.76"/>
<text text-anchor="middle" x="381.5" y="-453.85" font-family="Helvetica,sans-Serif" font-size="10.00"> emoji_policy</text>
<text text-anchor="middle" x="381.5" y="-442.85" font-family="Helvetica,sans-Serif" font-size="10.00">role_policy</text>
<text text-anchor="middle" x="381.5" y="-431.85" font-family="Helvetica,sans-Serif" font-size="10.00">user_policy</text>
</g>
<!-- Node22 -->
<g id="node22" class="node">
<title>Node22</title>
<g id="a_node22"><a xlink:title=" ">
<polygon fill="none" stroke="#bfbfbf" points="709,-123.35 709,-142.35 822,-142.35 822,-123.35 709,-123.35"/>
<text text-anchor="middle" x="765.5" y="-130.35" font-family="Helvetica,sans-Serif" font-size="10.00">native_handle_type</text>
</a>
</g>
</g>
<!-- Node22&#45;&gt;Node1 -->
<g id="edge30" class="edge">
<title>Node22&#45;&gt;Node1</title>
<path fill="none" stroke="#9a32cd" stroke-dasharray="5,2" d="M832.16,-125.88C876.43,-123.76 935.24,-126.06 983,-145.85 1010.71,-157.33 1034.9,-184.33 1046.58,-198.98"/>
<polygon fill="#9a32cd" stroke="#9a32cd" points="831.88,-122.39 822.1,-126.45 832.28,-129.38 831.88,-122.39"/>
<text text-anchor="middle" x="914.5" y="-148.85" font-family="Helvetica,sans-Serif" font-size="10.00"> thread_id</text>
</g>
<!-- Node23 -->
<g id="node23" class="node">
<title>Node23</title>
<g id="a_node23"><a xlink:title=" ">
<polygon fill="none" stroke="#bfbfbf" points="731,-85.35 731,-104.35 800,-104.35 800,-85.35 731,-85.35"/>
<text text-anchor="middle" x="765.5" y="-92.35" font-family="Helvetica,sans-Serif" font-size="10.00">std::mutex</text>
</a>
</g>
</g>
<!-- Node23&#45;&gt;Node1 -->
<g id="edge33" class="edge">
<title>Node23&#45;&gt;Node1</title>
<path fill="none" stroke="#9a32cd" stroke-dasharray="5,2" d="M810.09,-87.52C856.12,-82.03 929.32,-79.9 983,-109.85 1019.57,-130.26 1042.04,-178.32 1050.35,-199.05"/>
<polygon fill="#9a32cd" stroke="#9a32cd" points="809.6,-84.06 800.13,-88.81 810.5,-91 809.6,-84.06"/>
<text text-anchor="middle" x="914.5" y="-112.85" font-family="Helvetica,sans-Serif" font-size="10.00"> voice_mutex</text>
</g>
<!-- Node24 -->
<g id="node24" class="node">
<title>Node24</title>
<g id="a_node24"><a xlink:title=" ">
<polygon fill="none" stroke="#bfbfbf" points="740.5,-47.35 740.5,-66.35 790.5,-66.35 790.5,-47.35 740.5,-47.35"/>
<text text-anchor="middle" x="765.5" y="-54.35" font-family="Helvetica,sans-Serif" font-size="10.00">double</text>
</a>
</g>
</g>
<!-- Node24&#45;&gt;Node1 -->
<g id="edge34" class="edge">
<title>Node24&#45;&gt;Node1</title>
<path fill="none" stroke="#9a32cd" stroke-dasharray="5,2" d="M800.61,-48.99C846.18,-40.52 927.58,-32.67 983,-68.85 1030.46,-99.84 1047.67,-172.89 1052.45,-199.2"/>
<polygon fill="#9a32cd" stroke="#9a32cd" points="799.78,-45.59 790.65,-50.97 801.13,-52.46 799.78,-45.59"/>
<text text-anchor="middle" x="914.5" y="-71.85" font-family="Helvetica,sans-Serif" font-size="10.00"> websocket_ping</text>
</g>
<!-- Node25 -->
<g id="node25" class="node">
<title>Node25</title>
<g id="a_node25"><a xlink:title=" ">
<polygon fill="none" stroke="#bfbfbf" points="715,-9.35 715,-28.35 816,-28.35 816,-9.35 715,-9.35"/>
<text text-anchor="middle" x="765.5" y="-16.35" font-family="Helvetica,sans-Serif" font-size="10.00">unordered_map&lt;</text>
</a>
</g>
</g>
<!-- Node25&#45;&gt;Node1 -->
<g id="edge36" class="edge">
<title>Node25&#45;&gt;Node1</title>
<path fill="none" stroke="#9a32cd" stroke-dasharray="5,2" d="M812.47,-7.31C859.76,1.72 933.34,7.55 983,-27.85 1041.82,-69.78 1051.92,-168.09 1053.64,-199.22"/>
<polygon fill="#9a32cd" stroke="#9a32cd" points="811.6,-3.91 802.5,-9.34 813,-10.77 811.6,-3.91"/>
<text text-anchor="middle" x="914.5" y="-30.85" font-family="Helvetica,sans-Serif" font-size="10.00"> connecting_voice_channels</text>
</g>
</g>
</svg>
        <g id="navigator" transform="translate(0 0)" fill="#404254">
                <rect fill="#f2f5e9" fill-opacity="0.5" stroke="#606060" stroke-width=".5" x="0" y="0" width="60" height="60"/>
                <use id="zoomplus" xlink:href="#zoomPlus" x="17" y="9" onmousedown="handleZoom(evt,'in')"/>
                <use id="zoomminus" xlink:href="#zoomMin" x="42" y="9" onmousedown="handleZoom(evt,'out')"/>
                <use id="reset" xlink:href="#resetDef" x="30" y="36" onmousedown="handleReset()"/>
                <g id="arrowUp" xlink:href="#dirArrow" transform="translate(30 24)" onmousedown="handlePan(0,-1)">
                  <use xlink:href="#rim" fill="#404040">
                        <set attributeName="fill" to="#808080" begin="arrowUp.mouseover" end="arrowUp.mouseout"/>
                  </use>
                  <path fill="none" stroke="white" stroke-width="1.5" d="M0,-3.0v7 M-2.5,-0.5L0,-3.0L2.5,-0.5"/>
                </g>
                <g id="arrowRight" xlink:href="#dirArrow" transform="rotate(90) translate(36 -43)" onmousedown="handlePan(1,0)">
                  <use xlink:href="#rim" fill="#404040">
                        <set attributeName="fill" to="#808080" begin="arrowRight.mouseover" end="arrowRight.mouseout"/>
                  </use>
                  <path fill="none" stroke="white" stroke-width="1.5" d="M0,-3.0v7 M-2.5,-0.5L0,-3.0L2.5,-0.5"/>
                </g>
                <g id="arrowDown" xlink:href="#dirArrow" transform="rotate(180) translate(-30 -48)" onmousedown="handlePan(0,1)">
                  <use xlink:href="#rim" fill="#404040">
                        <set attributeName="fill" to="#808080" begin="arrowDown.mouseover" end="arrowDown.mouseout"/>
                  </use>
                  <path fill="none" stroke="white" stroke-width="1.5" d="M0,-3.0v7 M-2.5,-0.5L0,-3.0L2.5,-0.5"/>
                </g>
                <g id="arrowLeft" xlink:href="#dirArrow" transform="rotate(270) translate(-36 17)" onmousedown="handlePan(-1,0)">
                  <use xlink:href="#rim" fill="#404040">
                        <set attributeName="fill" to="#808080" begin="arrowLeft.mouseover" end="arrowLeft.mouseout"/>
                  </use>
                  <path fill="none" stroke="white" stroke-width="1.5" d="M0,-3.0v7 M-2.5,-0.5L0,-3.0L2.5,-0.5"/>
                </g>
        </g>
        <svg viewBox="0 0 15 15" width="100%" height="30px" preserveAspectRatio="xMaxYMin meet">
         <g id="arrow_out" transform="scale(0.3 0.3)">
          <a xlink:href="classdpp_1_1discord__client__coll__graph_org.svg" target="_base">
           <rect id="button" ry="5" rx="5" y="6" x="6" height="38" width="38"
                fill="#f2f5e9" fill-opacity="0.5" stroke="#606060" stroke-width="1.0"/>
           <path id="arrow"
             d="M 11.500037,31.436501 C 11.940474,20.09759 22.043105,11.32322 32.158766,21.979434 L 37.068811,17.246167 C 37.068811,17.246167 37.088388,32 37.088388,32 L 22.160133,31.978069 C 22.160133,31.978069 26.997745,27.140456 26.997745,27.140456 C 18.528582,18.264221 13.291696,25.230495 11.500037,31.436501 z"
             style="fill:#404040;"/>
          </a>
         </g>
        </svg>
</svg>
