<?xml version="1.0" encoding="UTF-8" standalone="no"?>
<!DOCTYPE svg PUBLIC "-//W3C//DTD SVG 1.1//EN"
 "http://www.w3.org/Graphics/SVG/1.1/DTD/svg11.dtd">
<!-- Generated by graphviz version 2.43.0 (0)
 -->
<!-- Title: dpp::interaction_create_t Pages: 1 -->
<!--zoomable 1264 -->
<svg id="main" version="1.1" xmlns="http://www.w3.org/2000/svg" xmlns:xlink="http://www.w3.org/1999/xlink" xml:space="preserve" onload="init(evt)">
<style type="text/css"><![CDATA[
.edge:hover path { stroke: red; }
.edge:hover polygon { stroke: red; fill: red; }
]]></style>
<script type="text/javascript"><![CDATA[
var edges = document.getElementsByTagName('g');
if (edges && edges.length) {
  for (var i=0;i<edges.length;i++) {
    if (edges[i].id.substr(0,4)=='edge') {
      edges[i].setAttribute('class','edge');
    }
  }
}
]]></script>
        <defs>
                <circle id="rim" cx="0" cy="0" r="7"/>
                <circle id="rim2" cx="0" cy="0" r="3.5"/>
                <g id="zoomPlus">
                        <use xlink:href="#rim" fill="#404040">
                                <set attributeName="fill" to="#808080" begin="zoomplus.mouseover" end="zoomplus.mouseout"/>
                        </use>
                        <path d="M-4,0h8M0,-4v8" fill="none" stroke="white" stroke-width="1.5" pointer-events="none"/>
                </g>
                <g id="zoomMin">
                        <use xlink:href="#rim" fill="#404040">
                                <set attributeName="fill" to="#808080" begin="zoomminus.mouseover" end="zoomminus.mouseout"/>
                        </use>
                        <path d="M-4,0h8" fill="none" stroke="white" stroke-width="1.5" pointer-events="none"/>
                </g>
                <g id="dirArrow">
                        <path fill="none" stroke="white" stroke-width="1.5" d="M0,-3.0v7 M-2.5,-0.5L0,-3.0L2.5,-0.5"/>
                </g>
               <g id="resetDef">
                       <use xlink:href="#rim2" fill="#404040">
                               <set attributeName="fill" to="#808080" begin="reset.mouseover" end="reset.mouseout"/>
                       </use>
               </g>
        </defs>

<script type="text/javascript">
var viewWidth = 1504;
var viewHeight = 1264;
var sectionId = 'dynsection-1';
</script>
<script xlink:href="svgpan.js"/>
<svg id="graph" class="graph">
<g id="viewport">
<title>dpp::interaction_create_t</title>
<!-- Node1 -->
<g id="node1" class="node">
<title>Node1</title>
<g id="a_node1"><a xlink:title="Create interaction.">
<polygon fill="#bfbfbf" stroke="black" points="1358,-261.29 1358,-280.29 1496,-280.29 1496,-261.29 1358,-261.29"/>
<text text-anchor="middle" x="1427" y="-268.29" font-family="Helvetica,sans-Serif" font-size="10.00">dpp::interaction_create_t</text>
</a>
</g>
</g>
<!-- Node2 -->
<g id="node2" class="node">
<title>Node2</title>
<g id="a_node2"><a xlink:href="structdpp_1_1event__dispatch__t.html" target="_top" xlink:title="Base event parameter struct.">
<polygon fill="none" stroke="black" points="1197,-688.29 1197,-707.29 1321,-707.29 1321,-688.29 1197,-688.29"/>
<text text-anchor="middle" x="1259" y="-695.29" font-family="Helvetica,sans-Serif" font-size="10.00">dpp::event_dispatch_t</text>
</a>
</g>
</g>
<!-- Node2&#45;&gt;Node1 -->
<g id="edge1" class="edge">
<title>Node2&#45;&gt;Node1</title>
<path fill="none" stroke="midnightblue" d="M1267.5,-678.5C1296.57,-603.71 1401.25,-334.45 1422.3,-280.31"/>
<polygon fill="midnightblue" stroke="midnightblue" points="1264.14,-677.48 1263.78,-688.07 1270.66,-680.02 1264.14,-677.48"/>
</g>
<!-- Node3 -->
<g id="node3" class="node">
<title>Node3</title>
<g id="a_node3"><a xlink:title=" ">
<polygon fill="none" stroke="#bfbfbf" points="206.5,-965.29 206.5,-984.29 271.5,-984.29 271.5,-965.29 206.5,-965.29"/>
<text text-anchor="middle" x="239" y="-972.29" font-family="Helvetica,sans-Serif" font-size="10.00">std::string</text>
</a>
</g>
</g>
<!-- Node3&#45;&gt;Node2 -->
<g id="edge2" class="edge">
<title>Node3&#45;&gt;Node2</title>
<path fill="none" stroke="#9a32cd" stroke-dasharray="5,2" d="M281.24,-981.52C288.72,-983.59 296.27,-986.29 303,-989.79 312.49,-994.74 311.12,-1001.68 321,-1005.79 388.98,-1034.11 916.56,-1070.57 983,-1038.79 1138.41,-964.48 1234.09,-754.73 1254.08,-707.37"/>
<polygon fill="#9a32cd" stroke="#9a32cd" points="282.07,-978.12 271.53,-979.13 280.4,-984.92 282.07,-978.12"/>
<text text-anchor="middle" x="765.5" y="-1054.79" font-family="Helvetica,sans-Serif" font-size="10.00"> raw_event</text>
</g>
<!-- Node5 -->
<g id="node5" class="node">
<title>Node5</title>
<g id="a_node5"><a xlink:href="classdpp_1_1discord__client.html" target="_top" xlink:title="Implements a discord client. Each discord_client connects to one shard and derives from a websocket c...">
<polygon fill="none" stroke="black" points="1001,-688.29 1001,-707.29 1109,-707.29 1109,-688.29 1001,-688.29"/>
<text text-anchor="middle" x="1055" y="-695.29" font-family="Helvetica,sans-Serif" font-size="10.00">dpp::discord_client</text>
</a>
</g>
</g>
<!-- Node3&#45;&gt;Node5 -->
<g id="edge35" class="edge">
<title>Node3&#45;&gt;Node5</title>
<path fill="none" stroke="#9a32cd" stroke-dasharray="5,2" d="M281.9,-982.94C346.79,-993.63 474.39,-1006.89 573,-968.79 639.03,-943.28 642.43,-913.41 703,-876.79 823.3,-804.07 976.64,-732.76 1032.46,-707.45"/>
<polygon fill="#9a32cd" stroke="#9a32cd" points="282.11,-979.43 271.66,-981.19 280.93,-986.33 282.11,-979.43"/>
<text text-anchor="middle" x="638" y="-975.79" font-family="Helvetica,sans-Serif" font-size="10.00"> sessionid</text>
<text text-anchor="middle" x="638" y="-964.79" font-family="Helvetica,sans-Serif" font-size="10.00">token</text>
</g>
<!-- Node7 -->
<g id="node7" class="node">
<title>Node7</title>
<g id="a_node7"><a xlink:href="classdpp_1_1ssl__client.html" target="_top" xlink:title="Implements a simple non&#45;blocking SSL stream client.">
<polygon fill="none" stroke="black" points="473.5,-1096.29 473.5,-1115.29 559.5,-1115.29 559.5,-1096.29 473.5,-1096.29"/>
<text text-anchor="middle" x="516.5" y="-1103.29" font-family="Helvetica,sans-Serif" font-size="10.00">dpp::ssl_client</text>
</a>
</g>
</g>
<!-- Node3&#45;&gt;Node7 -->
<g id="edge7" class="edge">
<title>Node3&#45;&gt;Node7</title>
<path fill="none" stroke="#9a32cd" stroke-dasharray="5,2" d="M257.17,-991.49C272.6,-1005.52 296.55,-1024.97 321,-1035.79 371.06,-1057.95 391.13,-1038.57 442,-1058.79 465.65,-1068.19 489.91,-1085.5 503.8,-1096.28"/>
<polygon fill="#9a32cd" stroke="#9a32cd" points="259.21,-988.61 249.52,-984.34 254.43,-993.72 259.21,-988.61"/>
<text text-anchor="middle" x="381.5" y="-1105.79" font-family="Helvetica,sans-Serif" font-size="10.00"> buffer</text>
<text text-anchor="middle" x="381.5" y="-1094.79" font-family="Helvetica,sans-Serif" font-size="10.00">cipher</text>
<text text-anchor="middle" x="381.5" y="-1083.79" font-family="Helvetica,sans-Serif" font-size="10.00">hostname</text>
<text text-anchor="middle" x="381.5" y="-1072.79" font-family="Helvetica,sans-Serif" font-size="10.00">obuffer</text>
<text text-anchor="middle" x="381.5" y="-1061.79" font-family="Helvetica,sans-Serif" font-size="10.00">port</text>
</g>
<!-- Node14 -->
<g id="node14" class="node">
<title>Node14</title>
<g id="a_node14"><a xlink:href="classdpp_1_1cluster.html" target="_top" xlink:title="The cluster class represents a group of shards and a command queue for sending and receiving commands...">
<polygon fill="none" stroke="black" points="728.5,-649.29 728.5,-668.29 802.5,-668.29 802.5,-649.29 728.5,-649.29"/>
<text text-anchor="middle" x="765.5" y="-656.29" font-family="Helvetica,sans-Serif" font-size="10.00">dpp::cluster</text>
</a>
</g>
</g>
<!-- Node3&#45;&gt;Node14 -->
<g id="edge15" class="edge">
<title>Node3&#45;&gt;Node14</title>
<path fill="none" stroke="#9a32cd" stroke-dasharray="5,2" d="M281.97,-979.28C324.04,-982.1 389.89,-981.91 442,-960.79 601.6,-896.12 729.29,-712.63 758.3,-668.45"/>
<polygon fill="#9a32cd" stroke="#9a32cd" points="282.04,-975.77 271.8,-978.5 281.51,-982.75 282.04,-975.77"/>
<text text-anchor="middle" x="516.5" y="-956.79" font-family="Helvetica,sans-Serif" font-size="10.00"> token</text>
</g>
<!-- Node17 -->
<g id="node17" class="node">
<title>Node17</title>
<g id="a_node17"><a xlink:href="classdpp_1_1user.html" target="_top" xlink:title="Represents a user on discord. May or may not be a member of a dpp::guild.">
<polygon fill="none" stroke="black" points="485.5,-361.29 485.5,-380.29 547.5,-380.29 547.5,-361.29 485.5,-361.29"/>
<text text-anchor="middle" x="516.5" y="-368.29" font-family="Helvetica,sans-Serif" font-size="10.00">dpp::user</text>
</a>
</g>
</g>
<!-- Node3&#45;&gt;Node17 -->
<g id="edge23" class="edge">
<title>Node3&#45;&gt;Node17</title>
<path fill="none" stroke="#9a32cd" stroke-dasharray="5,2" d="M250.51,-955.89C265,-928.84 290.71,-877.14 303,-829.79 313.27,-790.24 298.77,-681.08 321,-646.79 354.68,-594.85 406.52,-628.52 442,-577.79 469.39,-538.64 444.27,-516.92 460,-471.79 472.51,-435.9 497.02,-397.65 508.83,-380.31"/>
<polygon fill="#9a32cd" stroke="#9a32cd" points="247.26,-954.53 245.56,-964.98 253.41,-957.87 247.26,-954.53"/>
<text text-anchor="middle" x="381.5" y="-649.79" font-family="Helvetica,sans-Serif" font-size="10.00"> username</text>
</g>
<!-- Node28 -->
<g id="node28" class="node">
<title>Node28</title>
<g id="a_node28"><a xlink:href="classdpp_1_1interaction.html" target="_top" xlink:title="An interaction represents a user running a command and arrives via the dpp::cluster::on_interaction_c...">
<polygon fill="none" stroke="black" points="719,-218.29 719,-237.29 812,-237.29 812,-218.29 719,-218.29"/>
<text text-anchor="middle" x="765.5" y="-225.29" font-family="Helvetica,sans-Serif" font-size="10.00">dpp::interaction</text>
</a>
</g>
</g>
<!-- Node3&#45;&gt;Node28 -->
<g id="edge52" class="edge">
<title>Node3&#45;&gt;Node28</title>
<path fill="none" stroke="#9a32cd" stroke-dasharray="5,2" d="M250.32,-955.84C264.58,-928.73 290.03,-876.96 303,-829.79 311.38,-799.34 300.09,-712.47 321,-688.79 357.75,-647.18 403.05,-697.35 442,-657.79 466.05,-633.37 434.34,-605.53 460,-582.79 535.34,-516.03 614.79,-628.93 685,-556.79 716.74,-524.18 690.75,-396.62 703,-352.79 715.83,-306.91 745.33,-257.62 758.25,-237.34"/>
<polygon fill="#9a32cd" stroke="#9a32cd" points="247.07,-954.49 245.45,-964.96 253.25,-957.78 247.07,-954.49"/>
<text text-anchor="middle" x="516.5" y="-585.79" font-family="Helvetica,sans-Serif" font-size="10.00"> token</text>
</g>
<!-- Node30 -->
<g id="node30" class="node">
<title>Node30</title>
<g id="a_node30"><a xlink:href="classdpp_1_1guild__member.html" target="_top" xlink:title="Represents dpp::user membership upon a dpp::guild.">
<polygon fill="none" stroke="black" points="461,-138.29 461,-157.29 572,-157.29 572,-138.29 461,-138.29"/>
<text text-anchor="middle" x="516.5" y="-145.29" font-family="Helvetica,sans-Serif" font-size="10.00">dpp::guild_member</text>
</a>
</g>
</g>
<!-- Node3&#45;&gt;Node30 -->
<g id="edge46" class="edge">
<title>Node3&#45;&gt;Node30</title>
<path fill="none" stroke="#9a32cd" stroke-dasharray="5,2" d="M250.78,-955.95C265.59,-928.99 291.68,-877.38 303,-829.79 319.22,-761.58 285.52,-575.27 321,-514.79 353.26,-459.81 409.49,-492.62 442,-437.79 472.78,-385.88 423.3,-214.71 460,-166.79 462.97,-162.91 466.78,-159.82 471.01,-157.35"/>
<polygon fill="#9a32cd" stroke="#9a32cd" points="247.53,-954.59 245.71,-965.02 253.64,-958 247.53,-954.59"/>
<text text-anchor="middle" x="381.5" y="-517.79" font-family="Helvetica,sans-Serif" font-size="10.00"> nickname</text>
</g>
<!-- Node4 -->
<g id="node4" class="node">
<title>Node4</title>
<g id="a_node4"><a xlink:title=" ">
<polygon fill="none" stroke="#bfbfbf" points="0,-959.79 0,-989.79 104,-989.79 104,-959.79 0,-959.79"/>
<text text-anchor="start" x="8" y="-977.79" font-family="Helvetica,sans-Serif" font-size="10.00">std::basic_string&lt;</text>
<text text-anchor="middle" x="52" y="-966.79" font-family="Helvetica,sans-Serif" font-size="10.00"> Char &gt;</text>
</a>
</g>
</g>
<!-- Node4&#45;&gt;Node3 -->
<g id="edge3" class="edge">
<title>Node4&#45;&gt;Node3</title>
<path fill="none" stroke="midnightblue" d="M114.26,-974.79C145.05,-974.79 181.08,-974.79 206.29,-974.79"/>
<polygon fill="midnightblue" stroke="midnightblue" points="114.04,-971.29 104.04,-974.79 114.04,-978.29 114.04,-971.29"/>
</g>
<!-- Node5&#45;&gt;Node2 -->
<g id="edge4" class="edge">
<title>Node5&#45;&gt;Node2</title>
<path fill="none" stroke="#9a32cd" stroke-dasharray="5,2" d="M1119.08,-697.79C1143.83,-697.79 1172.13,-697.79 1196.7,-697.79"/>
<polygon fill="#9a32cd" stroke="#9a32cd" points="1119.07,-694.29 1109.07,-697.79 1119.07,-701.29 1119.07,-694.29"/>
<text text-anchor="middle" x="1153" y="-700.79" font-family="Helvetica,sans-Serif" font-size="10.00"> from</text>
</g>
<!-- Node6 -->
<g id="node6" class="node">
<title>Node6</title>
<g id="a_node6"><a xlink:href="classdpp_1_1websocket__client.html" target="_top" xlink:title="Implements a websocket client based on the SSL client.">
<polygon fill="none" stroke="black" points="703,-886.29 703,-905.29 828,-905.29 828,-886.29 703,-886.29"/>
<text text-anchor="middle" x="765.5" y="-893.29" font-family="Helvetica,sans-Serif" font-size="10.00">dpp::websocket_client</text>
</a>
</g>
</g>
<!-- Node6&#45;&gt;Node5 -->
<g id="edge5" class="edge">
<title>Node6&#45;&gt;Node5</title>
<path fill="none" stroke="midnightblue" d="M838.3,-905.39C884.05,-907.57 942.18,-902.62 983,-871.79 1038.45,-829.91 1050.78,-737.27 1053.36,-707.33"/>
<polygon fill="midnightblue" stroke="midnightblue" points="838.34,-901.88 828.15,-904.77 837.92,-908.87 838.34,-901.88"/>
</g>
<!-- Node7&#45;&gt;Node6 -->
<g id="edge6" class="edge">
<title>Node7&#45;&gt;Node6</title>
<path fill="none" stroke="midnightblue" d="M565.13,-1093.04C603.56,-1080.21 655.85,-1056.52 685,-1016.79 710.94,-981.44 675.05,-953.58 703,-919.79 708.26,-913.43 715.43,-908.75 723.01,-905.31"/>
<polygon fill="midnightblue" stroke="midnightblue" points="563.64,-1089.84 555.19,-1096.22 565.78,-1096.51 563.64,-1089.84"/>
</g>
<!-- Node8 -->
<g id="node8" class="node">
<title>Node8</title>
<g id="a_node8"><a xlink:title=" ">
<polygon fill="none" stroke="#bfbfbf" points="220,-1236.29 220,-1255.29 258,-1255.29 258,-1236.29 220,-1236.29"/>
<text text-anchor="middle" x="239" y="-1243.29" font-family="Helvetica,sans-Serif" font-size="10.00">bool</text>
</a>
</g>
</g>
<!-- Node8&#45;&gt;Node5 -->
<g id="edge38" class="edge">
<title>Node8&#45;&gt;Node5</title>
<path fill="none" stroke="#9a32cd" stroke-dasharray="5,2" d="M268.24,-1250.23C308.15,-1255.38 382.79,-1260.8 442,-1240.79 568.34,-1198.11 615.11,-1178.36 685,-1064.79 711.42,-1021.86 667.6,-988.69 703,-952.79 791.71,-862.84 886.87,-985.77 983,-903.79 1045.17,-850.78 1052.98,-740.57 1053.9,-707.43"/>
<polygon fill="#9a32cd" stroke="#9a32cd" points="268.57,-1246.75 258.18,-1248.85 267.61,-1253.68 268.57,-1246.75"/>
<text text-anchor="middle" x="638" y="-1176.79" font-family="Helvetica,sans-Serif" font-size="10.00"> ready</text>
</g>
<!-- Node8&#45;&gt;Node7 -->
<g id="edge8" class="edge">
<title>Node8&#45;&gt;Node7</title>
<path fill="none" stroke="#9a32cd" stroke-dasharray="5,2" d="M268.06,-1240.2C283.65,-1237.1 303.39,-1233.21 321,-1229.79 374.74,-1219.38 395.76,-1236.09 442,-1206.79 446.72,-1203.8 491.44,-1140.23 508.72,-1115.5"/>
<polygon fill="#9a32cd" stroke="#9a32cd" points="267.13,-1236.81 258.01,-1242.2 268.5,-1243.68 267.13,-1236.81"/>
<text text-anchor="middle" x="381.5" y="-1232.79" font-family="Helvetica,sans-Serif" font-size="10.00"> nonblocking</text>
</g>
<!-- Node9 -->
<g id="node9" class="node">
<title>Node9</title>
<g id="a_node9"><a xlink:title=" ">
<polygon fill="none" stroke="#bfbfbf" points="211,-1189.29 211,-1208.29 267,-1208.29 267,-1189.29 211,-1189.29"/>
<text text-anchor="middle" x="239" y="-1196.29" font-family="Helvetica,sans-Serif" font-size="10.00">SOCKET</text>
</a>
</g>
</g>
<!-- Node9&#45;&gt;Node7 -->
<g id="edge9" class="edge">
<title>Node9&#45;&gt;Node7</title>
<path fill="none" stroke="#9a32cd" stroke-dasharray="5,2" d="M277.39,-1196.44C327.52,-1192.83 413.51,-1184.94 442,-1171.79 470.65,-1158.57 496.09,-1130.26 508.13,-1115.38"/>
<polygon fill="#9a32cd" stroke="#9a32cd" points="277,-1192.96 267.27,-1197.14 277.49,-1199.94 277,-1192.96"/>
<text text-anchor="middle" x="381.5" y="-1194.79" font-family="Helvetica,sans-Serif" font-size="10.00"> sfd</text>
</g>
<!-- Node10 -->
<g id="node10" class="node">
<title>Node10</title>
<g id="a_node10"><a xlink:title=" ">
<polygon fill="none" stroke="#bfbfbf" points="189.5,-1151.29 189.5,-1170.29 288.5,-1170.29 288.5,-1151.29 189.5,-1151.29"/>
<text text-anchor="middle" x="239" y="-1158.29" font-family="Helvetica,sans-Serif" font-size="10.00">opensslcontext *</text>
</a>
</g>
</g>
<!-- Node10&#45;&gt;Node7 -->
<g id="edge10" class="edge">
<title>Node10&#45;&gt;Node7</title>
<path fill="none" stroke="#9a32cd" stroke-dasharray="5,2" d="M298.59,-1159.25C339.4,-1157.01 394.77,-1151.62 442,-1138.79 462.11,-1133.33 483.71,-1123.05 498.25,-1115.41"/>
<polygon fill="#9a32cd" stroke="#9a32cd" points="298.35,-1155.76 288.54,-1159.75 298.7,-1162.75 298.35,-1155.76"/>
<text text-anchor="middle" x="381.5" y="-1159.79" font-family="Helvetica,sans-Serif" font-size="10.00"> ssl</text>
</g>
<!-- Node11 -->
<g id="node11" class="node">
<title>Node11</title>
<g id="a_node11"><a xlink:title=" ">
<polygon fill="none" stroke="#bfbfbf" points="215,-590.29 215,-609.29 263,-609.29 263,-590.29 215,-590.29"/>
<text text-anchor="middle" x="239" y="-597.29" font-family="Helvetica,sans-Serif" font-size="10.00">time_t</text>
</a>
</g>
</g>
<!-- Node11&#45;&gt;Node5 -->
<g id="edge32" class="edge">
<title>Node11&#45;&gt;Node5</title>
<path fill="none" stroke="#9a32cd" stroke-dasharray="5,2" d="M273.13,-600.49C323.36,-602.16 415.69,-607.79 442,-626.79 456.83,-637.5 444.78,-653.65 460,-663.79 504.38,-693.36 863.66,-697.35 1000.94,-697.79"/>
<polygon fill="#9a32cd" stroke="#9a32cd" points="273.2,-596.99 263.1,-600.19 272.99,-603.99 273.2,-596.99"/>
<text text-anchor="middle" x="638" y="-705.79" font-family="Helvetica,sans-Serif" font-size="10.00"> last_heartbeat</text>
<text text-anchor="middle" x="638" y="-694.79" font-family="Helvetica,sans-Serif" font-size="10.00">last_heartbeat_ack</text>
</g>
<!-- Node11&#45;&gt;Node7 -->
<g id="edge11" class="edge">
<title>Node11&#45;&gt;Node7</title>
<path fill="none" stroke="#9a32cd" stroke-dasharray="5,2" d="M246.72,-619.03C258.67,-653.48 284.12,-728.05 303,-791.79 311.88,-821.77 297.95,-838.67 321,-859.79 361.24,-896.67 403.11,-842.5 442,-880.79 472.62,-910.94 447.49,-934.68 460,-975.79 474.22,-1022.51 499.87,-1075.15 510.59,-1096.28"/>
<polygon fill="#9a32cd" stroke="#9a32cd" points="249.94,-617.61 243.35,-609.32 243.33,-619.92 249.94,-617.61"/>
<text text-anchor="middle" x="381.5" y="-883.79" font-family="Helvetica,sans-Serif" font-size="10.00"> last_tick</text>
</g>
<!-- Node11&#45;&gt;Node14 -->
<g id="edge16" class="edge">
<title>Node11&#45;&gt;Node14</title>
<path fill="none" stroke="#9a32cd" stroke-dasharray="5,2" d="M272.83,-590.89C315.03,-581.4 389.14,-571.52 442,-601.79 455.49,-609.52 446.86,-623.47 460,-631.79 509.43,-663.1 532.73,-639.55 591,-644.79 638.4,-649.06 693.15,-653.37 728.26,-656.06"/>
<polygon fill="#9a32cd" stroke="#9a32cd" points="272,-587.49 263.08,-593.21 273.61,-594.3 272,-587.49"/>
<text text-anchor="middle" x="516.5" y="-651.79" font-family="Helvetica,sans-Serif" font-size="10.00"> last_identify</text>
</g>
<!-- Node11&#45;&gt;Node30 -->
<g id="edge49" class="edge">
<title>Node11&#45;&gt;Node30</title>
<path fill="none" stroke="#9a32cd" stroke-dasharray="5,2" d="M272.36,-586.27C283.99,-579.72 295.96,-570.66 303,-558.79 329.71,-513.74 292,-367.4 321,-323.79 354.46,-273.48 405.8,-310.18 442,-261.79 467.74,-227.38 431.85,-199.27 460,-166.79 463.34,-162.94 467.48,-159.88 472,-157.43"/>
<polygon fill="#9a32cd" stroke="#9a32cd" points="270.5,-583.29 263.21,-590.98 273.7,-589.51 270.5,-583.29"/>
<text text-anchor="middle" x="381.5" y="-337.79" font-family="Helvetica,sans-Serif" font-size="10.00"> joined_at</text>
<text text-anchor="middle" x="381.5" y="-326.79" font-family="Helvetica,sans-Serif" font-size="10.00">premium_since</text>
</g>
<!-- Node12 -->
<g id="node12" class="node">
<title>Node12</title>
<g id="a_node12"><a xlink:title=" ">
<polygon fill="none" stroke="#bfbfbf" points="24,-199.29 24,-218.29 80,-218.29 80,-199.29 24,-199.29"/>
<text text-anchor="middle" x="52" y="-206.29" font-family="Helvetica,sans-Serif" font-size="10.00">uint64_t</text>
</a>
</g>
</g>
<!-- Node12&#45;&gt;Node5 -->
<g id="edge34" class="edge">
<title>Node12&#45;&gt;Node5</title>
<path fill="none" stroke="#9a32cd" stroke-dasharray="5,2" d="M90.03,-208.25C141.74,-207.52 238.51,-206.25 321,-205.79 374.78,-205.49 390.63,-189.89 442,-205.79 518.66,-229.52 515.54,-280.49 591,-307.79 755.55,-367.34 852.97,-227.68 983,-344.79 1036.07,-392.59 1050.97,-636.3 1053.56,-688.1"/>
<polygon fill="#9a32cd" stroke="#9a32cd" points="89.96,-204.75 80.01,-208.39 90.06,-211.75 89.96,-204.75"/>
<text text-anchor="middle" x="516.5" y="-303.79" font-family="Helvetica,sans-Serif" font-size="10.00"> last_seq</text>
</g>
<!-- Node12&#45;&gt;Node7 -->
<g id="edge12" class="edge">
<title>Node12&#45;&gt;Node7</title>
<path fill="none" stroke="#9a32cd" stroke-dasharray="5,2" d="M54.18,-228.7C60.9,-337.13 96.77,-856.68 175,-993.79 216.63,-1066.75 241.93,-1085.47 321,-1113.79 373.34,-1132.54 438.72,-1123.89 478.78,-1115.31"/>
<polygon fill="#9a32cd" stroke="#9a32cd" points="57.66,-228.29 53.56,-218.52 50.68,-228.72 57.66,-228.29"/>
<text text-anchor="middle" x="239" y="-1119.79" font-family="Helvetica,sans-Serif" font-size="10.00"> bytes_in</text>
<text text-anchor="middle" x="239" y="-1108.79" font-family="Helvetica,sans-Serif" font-size="10.00">bytes_out</text>
</g>
<!-- Node18 -->
<g id="node18" class="node">
<title>Node18</title>
<g id="a_node18"><a xlink:href="classdpp_1_1managed.html" target="_top" xlink:title="The managed class is the base class for various types that can be stored in a cache that are identifi...">
<polygon fill="none" stroke="black" points="196,-241.29 196,-260.29 282,-260.29 282,-241.29 196,-241.29"/>
<text text-anchor="middle" x="239" y="-248.29" font-family="Helvetica,sans-Serif" font-size="10.00">dpp::managed</text>
</a>
</g>
</g>
<!-- Node12&#45;&gt;Node18 -->
<g id="edge22" class="edge">
<title>Node12&#45;&gt;Node18</title>
<path fill="none" stroke="#9a32cd" stroke-dasharray="5,2" d="M90.14,-217.22C120.69,-224.16 163.99,-233.99 195.84,-241.22"/>
<polygon fill="#9a32cd" stroke="#9a32cd" points="90.82,-213.79 80.3,-214.99 89.27,-220.62 90.82,-213.79"/>
<text text-anchor="middle" x="139.5" y="-235.79" font-family="Helvetica,sans-Serif" font-size="10.00"> id</text>
</g>
<!-- Node20 -->
<g id="node20" class="node">
<title>Node20</title>
<g id="a_node20"><a xlink:href="structdpp_1_1utility_1_1iconhash.html" target="_top" xlink:title="Store a 128 bit icon hash (profile picture, server icon etc) as a 128 bit binary value made of two ui...">
<polygon fill="none" stroke="black" points="180,-380.29 180,-399.29 298,-399.29 298,-380.29 180,-380.29"/>
<text text-anchor="middle" x="239" y="-387.29" font-family="Helvetica,sans-Serif" font-size="10.00">dpp::utility::iconhash</text>
</a>
</g>
</g>
<!-- Node12&#45;&gt;Node20 -->
<g id="edge26" class="edge">
<title>Node12&#45;&gt;Node20</title>
<path fill="none" stroke="#9a32cd" stroke-dasharray="5,2" d="M62.12,-227.75C79.37,-261.59 120.04,-332.46 175,-370.79 180.53,-374.65 186.85,-377.74 193.32,-380.21"/>
<polygon fill="#9a32cd" stroke="#9a32cd" points="65.11,-225.9 57.53,-218.51 58.85,-229.02 65.11,-225.9"/>
<text text-anchor="middle" x="139.5" y="-367.79" font-family="Helvetica,sans-Serif" font-size="10.00"> first</text>
<text text-anchor="middle" x="139.5" y="-356.79" font-family="Helvetica,sans-Serif" font-size="10.00">second</text>
</g>
<!-- Node12&#45;&gt;Node28 -->
<g id="edge42" class="edge">
<title>Node12&#45;&gt;Node28</title>
<path fill="none" stroke="#9a32cd" stroke-dasharray="5,2" d="M59.32,-189.73C69.11,-162.55 90.2,-112.36 122,-79.79 223.09,23.74 299.48,5.22 442,-19.79 555.13,-39.65 594.72,-36.77 685,-107.79 724.68,-139 751.24,-195.67 760.68,-218.19"/>
<polygon fill="#9a32cd" stroke="#9a32cd" points="55.99,-188.64 56.02,-199.24 62.6,-190.94 55.99,-188.64"/>
<text text-anchor="middle" x="381.5" y="-55.79" font-family="Helvetica,sans-Serif" font-size="10.00"> application_id</text>
<text text-anchor="middle" x="381.5" y="-44.79" font-family="Helvetica,sans-Serif" font-size="10.00">channel_id</text>
<text text-anchor="middle" x="381.5" y="-33.79" font-family="Helvetica,sans-Serif" font-size="10.00">guild_id</text>
<text text-anchor="middle" x="381.5" y="-22.79" font-family="Helvetica,sans-Serif" font-size="10.00">message_id</text>
</g>
<!-- Node12&#45;&gt;Node30 -->
<g id="edge47" class="edge">
<title>Node12&#45;&gt;Node30</title>
<path fill="none" stroke="#9a32cd" stroke-dasharray="5,2" d="M62.81,-190.09C80.41,-158.84 120.64,-97.06 175,-72.79 284.89,-23.74 328.97,-76.49 442,-117.79 459.35,-124.13 478.67,-132.05 493.15,-138.17"/>
<polygon fill="#9a32cd" stroke="#9a32cd" points="59.63,-188.62 57.9,-199.08 65.77,-191.98 59.63,-188.62"/>
<text text-anchor="middle" x="239" y="-86.79" font-family="Helvetica,sans-Serif" font-size="10.00"> guild_id</text>
<text text-anchor="middle" x="239" y="-75.79" font-family="Helvetica,sans-Serif" font-size="10.00">user_id</text>
</g>
<!-- Node13 -->
<g id="node13" class="node">
<title>Node13</title>
<g id="a_node13"><a xlink:title=" ">
<polygon fill="none" stroke="#bfbfbf" points="206.5,-801.29 206.5,-820.29 271.5,-820.29 271.5,-801.29 206.5,-801.29"/>
<text text-anchor="middle" x="239" y="-808.29" font-family="Helvetica,sans-Serif" font-size="10.00">function&lt;</text>
</a>
</g>
</g>
<!-- Node13&#45;&gt;Node7 -->
<g id="edge13" class="edge">
<title>Node13&#45;&gt;Node7</title>
<path fill="none" stroke="#9a32cd" stroke-dasharray="5,2" d="M255.54,-828.05C271.39,-845.33 297,-872.35 321,-893.79 371.79,-939.16 396.4,-937.22 442,-987.79 474.16,-1023.46 500.74,-1074.98 510.97,-1096.15"/>
<polygon fill="#9a32cd" stroke="#9a32cd" points="257.91,-825.46 248.59,-820.42 252.74,-830.17 257.91,-825.46"/>
<text text-anchor="middle" x="381.5" y="-1023.79" font-family="Helvetica,sans-Serif" font-size="10.00"> custom_readable_fd</text>
<text text-anchor="middle" x="381.5" y="-1012.79" font-family="Helvetica,sans-Serif" font-size="10.00">custom_readable_ready</text>
<text text-anchor="middle" x="381.5" y="-1001.79" font-family="Helvetica,sans-Serif" font-size="10.00">custom_writeable_fd</text>
<text text-anchor="middle" x="381.5" y="-990.79" font-family="Helvetica,sans-Serif" font-size="10.00">custom_writeable_ready</text>
</g>
<!-- Node16 -->
<g id="node16" class="node">
<title>Node16</title>
<g id="a_node16"><a xlink:href="classdpp_1_1dispatcher.html" target="_top" xlink:title="The dispatcher class contains a set of std::functions representing hooked events that the user code i...">
<polygon fill="none" stroke="black" points="470.5,-730.29 470.5,-749.29 562.5,-749.29 562.5,-730.29 470.5,-730.29"/>
<text text-anchor="middle" x="516.5" y="-737.29" font-family="Helvetica,sans-Serif" font-size="10.00">dpp::dispatcher</text>
</a>
</g>
</g>
<!-- Node13&#45;&gt;Node16 -->
<g id="edge19" class="edge">
<title>Node13&#45;&gt;Node16</title>
<path fill="none" stroke="#9a32cd" stroke-dasharray="5,2" d="M248,-791.96C259.8,-766.92 284.5,-723.73 321,-705.79 369.26,-682.07 389.48,-694.23 442,-705.79 453.05,-708.23 479.27,-721.05 497.21,-730.23"/>
<polygon fill="#9a32cd" stroke="#9a32cd" points="244.77,-790.61 243.86,-801.16 251.15,-793.48 244.77,-790.61"/>
<text text-anchor="start" x="325.5" y="-851.79" font-family="Helvetica,sans-Serif" font-size="10.00"> application_command</text>
<text text-anchor="middle" x="381.5" y="-840.79" font-family="Helvetica,sans-Serif" font-size="10.00">_create</text>
<text text-anchor="start" x="325.5" y="-829.79" font-family="Helvetica,sans-Serif" font-size="10.00">application_command</text>
<text text-anchor="middle" x="381.5" y="-818.79" font-family="Helvetica,sans-Serif" font-size="10.00">_delete</text>
<text text-anchor="start" x="325.5" y="-807.79" font-family="Helvetica,sans-Serif" font-size="10.00">application_command</text>
<text text-anchor="middle" x="381.5" y="-796.79" font-family="Helvetica,sans-Serif" font-size="10.00">_update</text>
<text text-anchor="middle" x="381.5" y="-785.79" font-family="Helvetica,sans-Serif" font-size="10.00">button_click</text>
<text text-anchor="middle" x="381.5" y="-774.79" font-family="Helvetica,sans-Serif" font-size="10.00">channel_create</text>
<text text-anchor="middle" x="381.5" y="-763.79" font-family="Helvetica,sans-Serif" font-size="10.00">channel_delete</text>
<text text-anchor="middle" x="381.5" y="-752.79" font-family="Helvetica,sans-Serif" font-size="10.00">channel_pins_update</text>
<text text-anchor="middle" x="381.5" y="-741.79" font-family="Helvetica,sans-Serif" font-size="10.00">channel_update</text>
<text text-anchor="middle" x="381.5" y="-730.79" font-family="Helvetica,sans-Serif" font-size="10.00">guild_ban_add</text>
<text text-anchor="middle" x="381.5" y="-719.79" font-family="Helvetica,sans-Serif" font-size="10.00">guild_ban_remove</text>
<text text-anchor="middle" x="381.5" y="-708.79" font-family="Helvetica,sans-Serif" font-size="10.00">...</text>
</g>
<!-- Node14&#45;&gt;Node5 -->
<g id="edge14" class="edge">
<title>Node14&#45;&gt;Node5</title>
<path fill="none" stroke="#9a32cd" stroke-dasharray="5,2" d="M812.67,-658.14C856.83,-658.37 925.09,-660.96 983,-672.79 999.77,-676.22 1017.97,-682.69 1031.74,-688.18"/>
<polygon fill="#9a32cd" stroke="#9a32cd" points="812.53,-654.64 802.53,-658.13 812.52,-661.64 812.53,-654.64"/>
<text text-anchor="middle" x="914.5" y="-675.79" font-family="Helvetica,sans-Serif" font-size="10.00"> creator</text>
</g>
<!-- Node15 -->
<g id="node15" class="node">
<title>Node15</title>
<g id="a_node15"><a xlink:title=" ">
<polygon fill="none" stroke="#bfbfbf" points="211,-438.29 211,-457.29 267,-457.29 267,-438.29 211,-438.29"/>
<text text-anchor="middle" x="239" y="-445.29" font-family="Helvetica,sans-Serif" font-size="10.00">uint32_t</text>
</a>
</g>
</g>
<!-- Node15&#45;&gt;Node5 -->
<g id="edge31" class="edge">
<title>Node15&#45;&gt;Node5</title>
<path fill="none" stroke="#9a32cd" stroke-dasharray="5,2" d="M277.13,-445.01C369.82,-438.52 609.35,-424.58 685,-447.79 848.86,-498.07 1005.41,-648.5 1044.63,-688.13"/>
<polygon fill="#9a32cd" stroke="#9a32cd" points="276.81,-441.53 267.09,-445.73 277.31,-448.51 276.81,-441.53"/>
<text text-anchor="middle" x="638" y="-505.79" font-family="Helvetica,sans-Serif" font-size="10.00"> heartbeat_interval</text>
<text text-anchor="middle" x="638" y="-494.79" font-family="Helvetica,sans-Serif" font-size="10.00">intents</text>
<text text-anchor="middle" x="638" y="-483.79" font-family="Helvetica,sans-Serif" font-size="10.00">max_shards</text>
<text text-anchor="middle" x="638" y="-472.79" font-family="Helvetica,sans-Serif" font-size="10.00">reconnects</text>
<text text-anchor="middle" x="638" y="-461.79" font-family="Helvetica,sans-Serif" font-size="10.00">resumes</text>
<text text-anchor="middle" x="638" y="-450.79" font-family="Helvetica,sans-Serif" font-size="10.00">shard_id</text>
</g>
<!-- Node15&#45;&gt;Node14 -->
<g id="edge17" class="edge">
<title>Node15&#45;&gt;Node14</title>
<path fill="none" stroke="#9a32cd" stroke-dasharray="5,2" d="M261.35,-463.16C277.04,-473.55 299.31,-486.48 321,-492.79 374.86,-508.47 529.94,-471.83 573,-507.79 598.98,-529.49 568.4,-556.6 591,-581.79 620.67,-614.86 644.46,-597.62 685,-615.79 707.62,-625.94 732.6,-639.94 748.41,-649.17"/>
<polygon fill="#9a32cd" stroke="#9a32cd" points="263.17,-460.16 252.93,-457.41 259.22,-465.94 263.17,-460.16"/>
<text text-anchor="middle" x="516.5" y="-543.79" font-family="Helvetica,sans-Serif" font-size="10.00"> cluster_id</text>
<text text-anchor="middle" x="516.5" y="-532.79" font-family="Helvetica,sans-Serif" font-size="10.00">intents</text>
<text text-anchor="middle" x="516.5" y="-521.79" font-family="Helvetica,sans-Serif" font-size="10.00">maxclusters</text>
<text text-anchor="middle" x="516.5" y="-510.79" font-family="Helvetica,sans-Serif" font-size="10.00">numshards</text>
</g>
<!-- Node15&#45;&gt;Node17 -->
<g id="edge27" class="edge">
<title>Node15&#45;&gt;Node17</title>
<path fill="none" stroke="#9a32cd" stroke-dasharray="5,2" d="M276.78,-435.49C290.55,-431.14 306.4,-426.42 321,-422.79 374.12,-409.59 389.42,-415.02 442,-399.79 460.05,-394.57 479.83,-386.63 494.32,-380.38"/>
<polygon fill="#9a32cd" stroke="#9a32cd" points="275.61,-432.19 267.16,-438.58 277.75,-438.86 275.61,-432.19"/>
<text text-anchor="middle" x="381.5" y="-425.79" font-family="Helvetica,sans-Serif" font-size="10.00"> flags</text>
</g>
<!-- Node16&#45;&gt;Node14 -->
<g id="edge18" class="edge">
<title>Node16&#45;&gt;Node14</title>
<path fill="none" stroke="#9a32cd" stroke-dasharray="5,2" d="M572.61,-741C606.21,-739.95 649.4,-735.33 685,-720.79 714.49,-708.75 742.23,-682.49 755.8,-668.32"/>
<polygon fill="#9a32cd" stroke="#9a32cd" points="572.43,-737.51 562.5,-741.22 572.58,-744.5 572.43,-737.51"/>
<text text-anchor="middle" x="638" y="-743.79" font-family="Helvetica,sans-Serif" font-size="10.00"> dispatch</text>
</g>
<!-- Node17&#45;&gt;Node14 -->
<g id="edge20" class="edge">
<title>Node17&#45;&gt;Node14</title>
<path fill="none" stroke="#9a32cd" stroke-dasharray="5,2" d="M528.43,-388.98C540.19,-408.93 559.08,-442.05 573,-471.79 582.31,-491.68 576.6,-501.22 591,-517.79 622.45,-554 647.55,-540.83 685,-570.79 715.55,-595.23 744.54,-631.87 757.46,-649.13"/>
<polygon fill="#9a32cd" stroke="#9a32cd" points="531.4,-387.13 523.28,-380.33 525.39,-390.71 531.4,-387.13"/>
<text text-anchor="middle" x="638" y="-573.79" font-family="Helvetica,sans-Serif" font-size="10.00"> me</text>
</g>
<!-- Node17&#45;&gt;Node28 -->
<g id="edge51" class="edge">
<title>Node17&#45;&gt;Node28</title>
<path fill="none" stroke="#9a32cd" stroke-dasharray="5,2" d="M542.78,-356.16C593.34,-326.88 705.7,-261.83 747.98,-237.36"/>
<polygon fill="#9a32cd" stroke="#9a32cd" points="540.99,-353.15 534.09,-361.19 544.5,-359.21 540.99,-353.15"/>
<text text-anchor="middle" x="638" y="-327.79" font-family="Helvetica,sans-Serif" font-size="10.00"> usr</text>
</g>
<!-- Node18&#45;&gt;Node17 -->
<g id="edge21" class="edge">
<title>Node18&#45;&gt;Node17</title>
<path fill="none" stroke="midnightblue" d="M259.35,-266.6C275.16,-278.9 298.49,-295.69 321,-306.79 371.67,-331.79 388.36,-328.03 442,-345.79 457.1,-350.79 473.89,-356.5 487.61,-361.19"/>
<polygon fill="midnightblue" stroke="midnightblue" points="261.41,-263.77 251.4,-260.3 257.06,-269.25 261.41,-263.77"/>
</g>
<!-- Node18&#45;&gt;Node28 -->
<g id="edge41" class="edge">
<title>Node18&#45;&gt;Node28</title>
<path fill="none" stroke="midnightblue" d="M292.18,-251.57C357.78,-252.22 473.82,-252.3 573,-246.79 623.04,-244.02 680.18,-237.97 718.93,-233.44"/>
<polygon fill="midnightblue" stroke="midnightblue" points="292.13,-248.07 282.09,-251.46 292.05,-255.06 292.13,-248.07"/>
</g>
<!-- Node19 -->
<g id="node19" class="node">
<title>Node19</title>
<g id="a_node19"><a xlink:title=" ">
<polygon fill="none" stroke="#bfbfbf" points="211,-342.29 211,-361.29 267,-361.29 267,-342.29 211,-342.29"/>
<text text-anchor="middle" x="239" y="-349.29" font-family="Helvetica,sans-Serif" font-size="10.00">uint16_t</text>
</a>
</g>
</g>
<!-- Node19&#45;&gt;Node17 -->
<g id="edge24" class="edge">
<title>Node19&#45;&gt;Node17</title>
<path fill="none" stroke="#9a32cd" stroke-dasharray="5,2" d="M277.48,-350.13C318.14,-348.83 384.91,-348.22 442,-354.79 456.4,-356.45 472.13,-359.68 485.33,-362.8"/>
<polygon fill="#9a32cd" stroke="#9a32cd" points="277.1,-346.64 267.23,-350.48 277.35,-353.63 277.1,-346.64"/>
<text text-anchor="middle" x="381.5" y="-357.79" font-family="Helvetica,sans-Serif" font-size="10.00"> discriminator</text>
</g>
<!-- Node20&#45;&gt;Node17 -->
<g id="edge25" class="edge">
<title>Node20&#45;&gt;Node17</title>
<path fill="none" stroke="#9a32cd" stroke-dasharray="5,2" d="M308.41,-385.08C365.06,-381.17 442.89,-375.8 485.17,-372.88"/>
<polygon fill="#9a32cd" stroke="#9a32cd" points="307.83,-381.61 298.09,-385.79 308.31,-388.59 307.83,-381.61"/>
<text text-anchor="middle" x="381.5" y="-387.79" font-family="Helvetica,sans-Serif" font-size="10.00"> avatar</text>
</g>
<!-- Node21 -->
<g id="node21" class="node">
<title>Node21</title>
<g id="a_node21"><a xlink:title=" ">
<polygon fill="none" stroke="#bfbfbf" points="214,-144.29 214,-163.29 264,-163.29 264,-144.29 214,-144.29"/>
<text text-anchor="middle" x="239" y="-151.29" font-family="Helvetica,sans-Serif" font-size="10.00">uint8_t</text>
</a>
</g>
</g>
<!-- Node21&#45;&gt;Node17 -->
<g id="edge28" class="edge">
<title>Node21&#45;&gt;Node17</title>
<path fill="none" stroke="#9a32cd" stroke-dasharray="5,2" d="M273.74,-163.41C316.86,-177.06 391.88,-205.54 442,-250.79 478.45,-283.7 502.97,-338.91 511.83,-361.11"/>
<polygon fill="#9a32cd" stroke="#9a32cd" points="274.61,-160.01 264.02,-160.41 272.55,-166.7 274.61,-160.01"/>
<text text-anchor="middle" x="381.5" y="-253.79" font-family="Helvetica,sans-Serif" font-size="10.00"> refcount</text>
</g>
<!-- Node21&#45;&gt;Node28 -->
<g id="edge43" class="edge">
<title>Node21&#45;&gt;Node28</title>
<path fill="none" stroke="#9a32cd" stroke-dasharray="5,2" d="M274.06,-144.18C317,-132.6 393.26,-113.84 460,-106.79 509.94,-101.52 523.88,-96.33 573,-106.79 626.32,-118.15 639.24,-127.17 685,-156.79 713.27,-175.09 741.53,-203.26 755.5,-218.01"/>
<polygon fill="#9a32cd" stroke="#9a32cd" points="272.87,-140.87 264.15,-146.88 274.72,-147.63 272.87,-140.87"/>
<text text-anchor="middle" x="516.5" y="-120.79" font-family="Helvetica,sans-Serif" font-size="10.00"> type</text>
<text text-anchor="middle" x="516.5" y="-109.79" font-family="Helvetica,sans-Serif" font-size="10.00">version</text>
</g>
<!-- Node21&#45;&gt;Node30 -->
<g id="edge50" class="edge">
<title>Node21&#45;&gt;Node30</title>
<path fill="none" stroke="#9a32cd" stroke-dasharray="5,2" d="M274.69,-153.04C321.57,-152.02 405.62,-150.19 460.98,-148.98"/>
<polygon fill="#9a32cd" stroke="#9a32cd" points="274.37,-149.54 264.45,-153.26 274.52,-156.54 274.37,-149.54"/>
<text text-anchor="middle" x="381.5" y="-155.79" font-family="Helvetica,sans-Serif" font-size="10.00"> flags</text>
</g>
<!-- Node22 -->
<g id="node22" class="node">
<title>Node22</title>
<g id="a_node22"><a xlink:href="structdpp_1_1cache__policy__t.html" target="_top" xlink:title="Represents the caching policy of the cluster.">
<polygon fill="none" stroke="black" points="460,-603.29 460,-622.29 573,-622.29 573,-603.29 460,-603.29"/>
<text text-anchor="middle" x="516.5" y="-610.29" font-family="Helvetica,sans-Serif" font-size="10.00">dpp::cache_policy_t</text>
</a>
</g>
</g>
<!-- Node22&#45;&gt;Node14 -->
<g id="edge29" class="edge">
<title>Node22&#45;&gt;Node14</title>
<path fill="none" stroke="#9a32cd" stroke-dasharray="5,2" d="M583.63,-618.31C614.63,-621.61 651.94,-626.58 685,-633.79 703.09,-637.74 722.97,-643.99 738.32,-649.25"/>
<polygon fill="#9a32cd" stroke="#9a32cd" points="583.68,-614.8 573.38,-617.26 582.97,-621.76 583.68,-614.8"/>
<text text-anchor="middle" x="638" y="-636.79" font-family="Helvetica,sans-Serif" font-size="10.00"> cache_policy</text>
</g>
<!-- Node23 -->
<g id="node23" class="node">
<title>Node23</title>
<g id="a_node23"><a xlink:title=" ">
<polygon fill="none" stroke="#bfbfbf" points="175,-530.29 175,-549.29 303,-549.29 303,-530.29 175,-530.29"/>
<text text-anchor="middle" x="239" y="-537.29" font-family="Helvetica,sans-Serif" font-size="10.00">cache_policy_setting_t</text>
</a>
</g>
</g>
<!-- Node23&#45;&gt;Node22 -->
<g id="edge30" class="edge">
<title>Node23&#45;&gt;Node22</title>
<path fill="none" stroke="#9a32cd" stroke-dasharray="5,2" d="M313.11,-531.68C362.27,-527.8 421.67,-526.63 442,-540.79 460.69,-553.82 444.29,-572.29 460,-588.79 465.93,-595.03 473.76,-599.73 481.66,-603.24"/>
<polygon fill="#9a32cd" stroke="#9a32cd" points="312.78,-528.2 303.11,-532.52 313.36,-535.17 312.78,-528.2"/>
<text text-anchor="middle" x="381.5" y="-565.79" font-family="Helvetica,sans-Serif" font-size="10.00"> emoji_policy</text>
<text text-anchor="middle" x="381.5" y="-554.79" font-family="Helvetica,sans-Serif" font-size="10.00">role_policy</text>
<text text-anchor="middle" x="381.5" y="-543.79" font-family="Helvetica,sans-Serif" font-size="10.00">user_policy</text>
</g>
<!-- Node24 -->
<g id="node24" class="node">
<title>Node24</title>
<g id="a_node24"><a xlink:title=" ">
<polygon fill="none" stroke="#bfbfbf" points="709,-400.29 709,-419.29 822,-419.29 822,-400.29 709,-400.29"/>
<text text-anchor="middle" x="765.5" y="-407.29" font-family="Helvetica,sans-Serif" font-size="10.00">native_handle_type</text>
</a>
</g>
</g>
<!-- Node24&#45;&gt;Node5 -->
<g id="edge33" class="edge">
<title>Node24&#45;&gt;Node5</title>
<path fill="none" stroke="#9a32cd" stroke-dasharray="5,2" d="M812.37,-398.31C860.46,-389.19 935.52,-383.68 983,-422.79 1025.82,-458.06 1048.22,-643.77 1053.01,-688.22"/>
<polygon fill="#9a32cd" stroke="#9a32cd" points="811.64,-394.88 802.53,-400.29 813.03,-401.74 811.64,-394.88"/>
<text text-anchor="middle" x="914.5" y="-425.79" font-family="Helvetica,sans-Serif" font-size="10.00"> thread_id</text>
</g>
<!-- Node25 -->
<g id="node25" class="node">
<title>Node25</title>
<g id="a_node25"><a xlink:title=" ">
<polygon fill="none" stroke="#bfbfbf" points="731,-362.29 731,-381.29 800,-381.29 800,-362.29 731,-362.29"/>
<text text-anchor="middle" x="765.5" y="-369.29" font-family="Helvetica,sans-Serif" font-size="10.00">std::mutex</text>
</a>
</g>
</g>
<!-- Node25&#45;&gt;Node5 -->
<g id="edge36" class="edge">
<title>Node25&#45;&gt;Node5</title>
<path fill="none" stroke="#9a32cd" stroke-dasharray="5,2" d="M805.87,-359.57C853.46,-347.44 933.35,-335.97 983,-376.79 1033.15,-418.02 1050.24,-639.48 1053.42,-688.28"/>
<polygon fill="#9a32cd" stroke="#9a32cd" points="804.69,-356.26 795.93,-362.23 806.5,-363.02 804.69,-356.26"/>
<text text-anchor="middle" x="914.5" y="-379.79" font-family="Helvetica,sans-Serif" font-size="10.00"> voice_mutex</text>
</g>
<!-- Node26 -->
<g id="node26" class="node">
<title>Node26</title>
<g id="a_node26"><a xlink:title=" ">
<polygon fill="none" stroke="#bfbfbf" points="740.5,-1000.29 740.5,-1019.29 790.5,-1019.29 790.5,-1000.29 740.5,-1000.29"/>
<text text-anchor="middle" x="765.5" y="-1007.29" font-family="Helvetica,sans-Serif" font-size="10.00">double</text>
</a>
</g>
</g>
<!-- Node26&#45;&gt;Node5 -->
<g id="edge37" class="edge">
<title>Node26&#45;&gt;Node5</title>
<path fill="none" stroke="#9a32cd" stroke-dasharray="5,2" d="M800.76,-1017.26C847.82,-1025.36 932.39,-1031.83 983,-987.79 1027.09,-949.43 1048.6,-753.64 1053.09,-707.53"/>
<polygon fill="#9a32cd" stroke="#9a32cd" points="801.22,-1013.79 790.76,-1015.42 799.96,-1020.67 801.22,-1013.79"/>
<text text-anchor="middle" x="914.5" y="-1026.79" font-family="Helvetica,sans-Serif" font-size="10.00"> websocket_ping</text>
</g>
<!-- Node27 -->
<g id="node27" class="node">
<title>Node27</title>
<g id="a_node27"><a xlink:title=" ">
<polygon fill="none" stroke="#bfbfbf" points="715,-962.29 715,-981.29 816,-981.29 816,-962.29 715,-962.29"/>
<text text-anchor="middle" x="765.5" y="-969.29" font-family="Helvetica,sans-Serif" font-size="10.00">unordered_map&lt;</text>
</a>
</g>
</g>
<!-- Node27&#45;&gt;Node5 -->
<g id="edge39" class="edge">
<title>Node27&#45;&gt;Node5</title>
<path fill="none" stroke="#9a32cd" stroke-dasharray="5,2" d="M826.21,-972.43C882,-971.77 960.03,-967.22 983,-947.79 1021.4,-915.3 1046.78,-749.71 1052.68,-707.56"/>
<polygon fill="#9a32cd" stroke="#9a32cd" points="826.04,-968.93 816.07,-972.51 826.09,-975.93 826.04,-968.93"/>
<text text-anchor="middle" x="914.5" y="-975.79" font-family="Helvetica,sans-Serif" font-size="10.00"> connecting_voice_channels</text>
</g>
<!-- Node28&#45;&gt;Node1 -->
<g id="edge40" class="edge">
<title>Node28&#45;&gt;Node1</title>
<path fill="none" stroke="#9a32cd" stroke-dasharray="5,2" d="M822.2,-231.42C942.65,-239.28 1227.06,-257.82 1357.93,-266.35"/>
<polygon fill="#9a32cd" stroke="#9a32cd" points="822.3,-227.92 812.09,-230.77 821.84,-234.91 822.3,-227.92"/>
<text text-anchor="middle" x="1153" y="-257.79" font-family="Helvetica,sans-Serif" font-size="10.00"> command</text>
</g>
<!-- Node29 -->
<g id="node29" class="node">
<title>Node29</title>
<g id="a_node29"><a xlink:title=" ">
<polygon fill="none" stroke="#bfbfbf" points="487,-176.29 487,-195.29 546,-195.29 546,-176.29 487,-176.29"/>
<text text-anchor="middle" x="516.5" y="-183.29" font-family="Helvetica,sans-Serif" font-size="10.00">variant&lt;</text>
</a>
</g>
</g>
<!-- Node29&#45;&gt;Node28 -->
<g id="edge44" class="edge">
<title>Node29&#45;&gt;Node28</title>
<path fill="none" stroke="#9a32cd" stroke-dasharray="5,2" d="M556.34,-192.4C600.34,-199.88 671.98,-212.06 718.68,-220"/>
<polygon fill="#9a32cd" stroke="#9a32cd" points="556.76,-188.92 546.32,-190.69 555.59,-195.82 556.76,-188.92"/>
<text text-anchor="middle" x="638" y="-217.79" font-family="Helvetica,sans-Serif" font-size="10.00"> data</text>
</g>
<!-- Node30&#45;&gt;Node28 -->
<g id="edge45" class="edge">
<title>Node30&#45;&gt;Node28</title>
<path fill="none" stroke="#9a32cd" stroke-dasharray="5,2" d="M582.17,-157.73C613.78,-163.67 652.01,-172.5 685,-184.79 708.82,-193.67 734.33,-208.53 749.85,-218.25"/>
<polygon fill="#9a32cd" stroke="#9a32cd" points="582.62,-154.26 572.16,-155.9 581.37,-161.14 582.62,-154.26"/>
<text text-anchor="middle" x="638" y="-187.79" font-family="Helvetica,sans-Serif" font-size="10.00"> member</text>
</g>
<!-- Node31 -->
<g id="node31" class="node">
<title>Node31</title>
<g id="a_node31"><a xlink:title=" ">
<polygon fill="none" stroke="#bfbfbf" points="211,-104.29 211,-123.29 267,-123.29 267,-104.29 211,-104.29"/>
<text text-anchor="middle" x="239" y="-111.29" font-family="Helvetica,sans-Serif" font-size="10.00">vector&lt;</text>
</a>
</g>
</g>
<!-- Node31&#45;&gt;Node30 -->
<g id="edge48" class="edge">
<title>Node31&#45;&gt;Node30</title>
<path fill="none" stroke="#9a32cd" stroke-dasharray="5,2" d="M277.17,-116.86C317.77,-120.39 384.66,-126.75 442,-134.79 449.19,-135.8 456.75,-136.99 464.17,-138.23"/>
<polygon fill="#9a32cd" stroke="#9a32cd" points="277.46,-113.37 267.19,-116 276.86,-120.34 277.46,-113.37"/>
<text text-anchor="middle" x="381.5" y="-137.79" font-family="Helvetica,sans-Serif" font-size="10.00"> roles</text>
</g>
</g>
</svg>
        <g id="navigator" transform="translate(0 0)" fill="#404254">
                <rect fill="#f2f5e9" fill-opacity="0.5" stroke="#606060" stroke-width=".5" x="0" y="0" width="60" height="60"/>
                <use id="zoomplus" xlink:href="#zoomPlus" x="17" y="9" onmousedown="handleZoom(evt,'in')"/>
                <use id="zoomminus" xlink:href="#zoomMin" x="42" y="9" onmousedown="handleZoom(evt,'out')"/>
                <use id="reset" xlink:href="#resetDef" x="30" y="36" onmousedown="handleReset()"/>
                <g id="arrowUp" xlink:href="#dirArrow" transform="translate(30 24)" onmousedown="handlePan(0,-1)">
                  <use xlink:href="#rim" fill="#404040">
                        <set attributeName="fill" to="#808080" begin="arrowUp.mouseover" end="arrowUp.mouseout"/>
                  </use>
                  <path fill="none" stroke="white" stroke-width="1.5" d="M0,-3.0v7 M-2.5,-0.5L0,-3.0L2.5,-0.5"/>
                </g>
                <g id="arrowRight" xlink:href="#dirArrow" transform="rotate(90) translate(36 -43)" onmousedown="handlePan(1,0)">
                  <use xlink:href="#rim" fill="#404040">
                        <set attributeName="fill" to="#808080" begin="arrowRight.mouseover" end="arrowRight.mouseout"/>
                  </use>
                  <path fill="none" stroke="white" stroke-width="1.5" d="M0,-3.0v7 M-2.5,-0.5L0,-3.0L2.5,-0.5"/>
                </g>
                <g id="arrowDown" xlink:href="#dirArrow" transform="rotate(180) translate(-30 -48)" onmousedown="handlePan(0,1)">
                  <use xlink:href="#rim" fill="#404040">
                        <set attributeName="fill" to="#808080" begin="arrowDown.mouseover" end="arrowDown.mouseout"/>
                  </use>
                  <path fill="none" stroke="white" stroke-width="1.5" d="M0,-3.0v7 M-2.5,-0.5L0,-3.0L2.5,-0.5"/>
                </g>
                <g id="arrowLeft" xlink:href="#dirArrow" transform="rotate(270) translate(-36 17)" onmousedown="handlePan(-1,0)">
                  <use xlink:href="#rim" fill="#404040">
                        <set attributeName="fill" to="#808080" begin="arrowLeft.mouseover" end="arrowLeft.mouseout"/>
                  </use>
                  <path fill="none" stroke="white" stroke-width="1.5" d="M0,-3.0v7 M-2.5,-0.5L0,-3.0L2.5,-0.5"/>
                </g>
        </g>
        <svg viewBox="0 0 15 15" width="100%" height="30px" preserveAspectRatio="xMaxYMin meet">
         <g id="arrow_out" transform="scale(0.3 0.3)">
          <a xlink:href="structdpp_1_1interaction__create__t__coll__graph_org.svg" target="_base">
           <rect id="button" ry="5" rx="5" y="6" x="6" height="38" width="38"
                fill="#f2f5e9" fill-opacity="0.5" stroke="#606060" stroke-width="1.0"/>
           <path id="arrow"
             d="M 11.500037,31.436501 C 11.940474,20.09759 22.043105,11.32322 32.158766,21.979434 L 37.068811,17.246167 C 37.068811,17.246167 37.088388,32 37.088388,32 L 22.160133,31.978069 C 22.160133,31.978069 26.997745,27.140456 26.997745,27.140456 C 18.528582,18.264221 13.291696,25.230495 11.500037,31.436501 z"
             style="fill:#404040;"/>
          </a>
         </g>
        </svg>
</svg>
